<svg xmlns="http://www.w3.org/2000/svg" xmlns:xlink="http://www.w3.org/1999/xlink"><symbol id="hd-icon-bitcoin-icons-address-book-filled" viewBox="0 0 24 24"><g fill="currentColor" fill-rule="evenodd" clip-rule="evenodd"><path d="M7.005 19.996c.05.563.524 1.004 1.1 1.004h9.79c.61 0 1.105-.495 1.105-1.105V6.105c0-.576-.442-1.05-1.005-1.1q.005.05.005.1v13.79c0 .61-.495 1.105-1.105 1.105h-9.79a1 1 0 0 1-.1-.005"/><path d="M5 4.105C5 3.495 5.495 3 6.105 3h9.79C16.505 3 17 3.495 17 4.105v13.79c0 .61-.495 1.105-1.105 1.105h-9.79C5.495 19 5 18.505 5 17.895zm3.34 10.502a.808.808 0 0 1 0-1.291a4.36 4.36 0 0 1 2.66-.9c1 0 1.923.335 2.66.9c.43.329.43.962 0 1.291c-.737.565-1.66.9-2.66.9s-1.923-.335-2.66-.9m2.658-2.965c1.136 0 2.058-1.153 2.058-2.575s-.922-2.574-2.058-2.574c-1.137 0-2.058 1.152-2.058 2.574s.921 2.575 2.058 2.575"/></g></symbol><symbol id="hd-icon-bitcoin-icons-address-book-outline" viewBox="0 0 24 24"><g fill="none" stroke="currentColor"><path stroke-linecap="round" d="M8 20.5h9.5a1 1 0 0 0 1-1V6"/><path d="M5 4.075A1.07 1.07 0 0 1 6.066 3h9.444a1.07 1.07 0 0 1 1.066 1.075v13.41a1.07 1.07 0 0 1-1.066 1.075H6.066A1.07 1.07 0 0 1 5 17.485zm3.222 10.213a.79.79 0 0 1 0-1.256a4.2 4.2 0 0 1 2.566-.875c.965 0 1.855.326 2.566.875a.79.79 0 0 1 0 1.256a4.2 4.2 0 0 1-2.566.876a4.2 4.2 0 0 1-2.566-.876Zm2.564-2.884c1.096 0 1.985-1.12 1.985-2.504c0-1.382-.889-2.503-1.985-2.503S8.8 7.517 8.8 8.9s.888 2.504 1.985 2.504Z" clip-rule="evenodd"/></g></symbol><symbol id="hd-icon-bitcoin-icons-alert-circle-filled" viewBox="0 0 24 24"><path fill="currentColor" fill-rule="evenodd" d="M21 12a9 9 0 1 1-18 0a9 9 0 0 1 18 0m-7.75 4.25a1.25 1.25 0 1 1-2.5 0a1.25 1.25 0 0 1 2.5 0M13 6.5h-2v7h2z" clip-rule="evenodd"/></symbol><symbol id="hd-icon-bitcoin-icons-alert-circle-outline" viewBox="0 0 24 24"><g fill="none" stroke="currentColor"><circle cx="12" cy="12" r="8.5"/><path stroke-linecap="round" d="M12 7v7m0 3.5v-1"/></g></symbol><symbol id="hd-icon-bitcoin-icons-alert-filled" viewBox="0 0 24 24"><circle cx="12" cy="16.75" r="1.25" fill="currentColor"/><path fill="currentColor" d="M11 6h2v8h-2z"/></symbol><symbol id="hd-icon-bitcoin-icons-alert-outline" viewBox="0 0 24 24"><path fill="none" stroke="currentColor" stroke-linecap="round" d="M12 7v7m0 3.5v-1"/></symbol><symbol id="hd-icon-bitcoin-icons-arrow-down-filled" viewBox="0 0 24 24"><path fill="currentColor" fill-rule="evenodd" d="M12.013 2.25a.75.75 0 0 1 .75.75l-.012 16.19l5.72-5.708a.75.75 0 1 1 1.059 1.061l-7 6.988a.75.75 0 0 1-1.06 0l-7-6.988a.75.75 0 0 1 1.06-1.061l5.721 5.71L11.262 3a.75.75 0 0 1 .751-.75" clip-rule="evenodd"/></symbol><symbol id="hd-icon-bitcoin-icons-arrow-down-outline" viewBox="0 0 24 24"><path fill="none" stroke="currentColor" stroke-linecap="round" stroke-linejoin="round" d="M12.013 3L12 20.789m7-6.776L12 21l-7-6.988"/></symbol><symbol id="hd-icon-bitcoin-icons-arrow-left-filled" viewBox="0 0 24 24"><g fill="currentColor" fill-rule="evenodd" clip-rule="evenodd"><path d="M2.461 12a.75.75 0 0 1 .75-.75l17.79.012a.75.75 0 1 1-.002 1.5L3.21 12.75a.75.75 0 0 1-.749-.75"/><path d="M10.517 4.47a.75.75 0 0 1 .001 1.06L4.06 12l6.458 6.47a.75.75 0 0 1-1.061 1.06l-6.988-7a.75.75 0 0 1 0-1.06l6.988-7a.75.75 0 0 1 1.06 0"/></g></symbol><symbol id="hd-icon-bitcoin-icons-arrow-left-outline" viewBox="0 0 24 24"><path fill="none" stroke="currentColor" stroke-linecap="round" stroke-linejoin="round" d="M21 12.013L3.211 12m6.777 7L3 12l6.988-7"/></symbol><symbol id="hd-icon-bitcoin-icons-arrow-right-filled" viewBox="0 0 24 24"><path fill="currentColor" fill-rule="evenodd" d="M13.483 4.47a.75.75 0 0 1 1.06 0l6.988 7a.75.75 0 0 1 0 1.06l-6.988 7a.75.75 0 0 1-1.061-1.06l5.709-5.719L3 12.762a.75.75 0 0 1-.002-1.5l16.194-.01l-5.711-5.722a.75.75 0 0 1 0-1.06" clip-rule="evenodd"/></symbol><symbol id="hd-icon-bitcoin-icons-arrow-right-outline" viewBox="0 0 24 24"><path fill="none" stroke="currentColor" stroke-linecap="round" stroke-linejoin="round" d="M3 12.013L20.789 12m-6.776 7L21 12l-6.988-7"/></symbol><symbol id="hd-icon-bitcoin-icons-arrow-up-filled" viewBox="0 0 24 24"><path fill="currentColor" fill-rule="evenodd" d="M11.47 2.47a.75.75 0 0 1 1.06 0l7 6.987a.75.75 0 1 1-1.06 1.061L12.751 4.81L12.762 21a.75.75 0 0 1-1.5.002l-.01-16.194l-5.722 5.711a.75.75 0 1 1-1.06-1.061z" clip-rule="evenodd"/></symbol><symbol id="hd-icon-bitcoin-icons-arrow-up-outline" viewBox="0 0 24 24"><path fill="none" stroke="currentColor" stroke-linecap="round" stroke-linejoin="round" d="M12.013 21L12 3.211m7 6.777L12 3L5 9.988"/></symbol><symbol id="hd-icon-bitcoin-icons-bell-filled" viewBox="0 0 24 24"><path fill="currentColor" d="M10.1 5.374a2.001 2.001 0 0 1 3.8 0A5 5 0 0 1 17 10v4l2.146 2.146a.5.5 0 0 1-.353.854H5.207a.5.5 0 0 1-.353-.854L7 14v-4a5 5 0 0 1 3.1-4.626M10 18a2 2 0 1 0 4 0z"/></symbol><symbol id="hd-icon-bitcoin-icons-bell-outline" viewBox="0 0 24 24"><g fill="none" stroke="currentColor"><path stroke-linecap="round" stroke-linejoin="round" d="M13.479 5.749A4.5 4.5 0 0 1 16.5 10v3.7l2.073 1.935a.5.5 0 0 1-.341.865H5.769a.5.5 0 0 1-.342-.866L7.5 13.7V10a4.5 4.5 0 0 1 3.021-4.251a1.5 1.5 0 0 1 2.958 0"/><path d="M10.585 18.5a1.5 1.5 0 0 0 2.83 0z"/></g></symbol><symbol id="hd-icon-bitcoin-icons-bitcoin-circle-filled" viewBox="0 0 24 24"><path fill="currentColor" d="M10.864 14.36c.806.213 2.567.678 2.847-.447c.287-1.151-1.422-1.534-2.255-1.721q-.14-.031-.243-.056l-.542 2.174q.083.02.193.05m.759-3.177c.672.18 2.138.57 2.393-.452c.26-1.046-1.164-1.36-1.86-1.515l-.203-.047l-.492 1.972q.07.017.162.042"/><path fill="currentColor" fill-rule="evenodd" d="M9.822 20.73a9 9 0 0 0 4.354-17.46A9 9 0 0 0 3.27 9.823A8.997 8.997 0 0 0 9.822 20.73m4.165-12.252c1.247.43 2.16 1.073 1.98 2.27c-.13.877-.616 1.302-1.261 1.45c.886.462 1.337 1.17.907 2.396c-.532 1.522-1.799 1.65-3.483 1.332l-.409 1.638l-.987-.246l.403-1.616a39 39 0 0 1-.787-.204l-.405 1.623l-.986-.246l.408-1.64l-.256-.067l-.448-.115l-1.285-.32l.49-1.13s.728.193.718.178c.28.07.404-.113.453-.234l.646-2.589l.084.021l.02.005a1 1 0 0 0-.103-.033l.46-1.848c.013-.21-.06-.475-.46-.574c.016-.01-.716-.179-.716-.179l.262-1.054l1.362.34v.005q.307.075.63.148l.405-1.622l.986.246l-.396 1.59c.265.06.532.121.791.186l.394-1.58l.988.247z" clip-rule="evenodd"/></symbol><symbol id="hd-icon-bitcoin-icons-bitcoin-circle-outline" viewBox="0 0 24 24"><g fill="none" stroke="currentColor"><path d="M20.247 14.052a8.5 8.5 0 0 1-10.302 6.194C5.394 19.11 2.62 14.5 3.754 9.95s5.74-7.33 10.288-6.195c4.562 1.12 7.337 5.744 6.205 10.298Z"/><path stroke-linecap="square" stroke-linejoin="round" d="m9.4 14.912l1.693-6.792m-1.456-.363L13.818 8.8c2.728.68 2.12 3.877-.786 3.153c3.184.794 2.86 4.578-.907 3.639c-1.841-.46-3.813-.95-3.813-.95m1.994-3.368l2.669.665m-1.397-3.698l.363-1.455m-2.42 9.703l.363-1.456m3.634-6.308l.363-1.455m-2.419 9.703l.363-1.456"/></g></symbol><symbol id="hd-icon-bitcoin-icons-bitcoin-filled" viewBox="0 0 24 24"><path fill="currentColor" fill-rule="evenodd" d="M13.425 6.432c1.983.19 3.538.778 3.71 2.528c.117 1.276-.438 2.035-1.355 2.463c1.481.359 2.382 1.202 2.196 3.072c-.227 2.343-2.035 2.952-4.62 3.08l.004 2.42l-1.522.002l-.004-2.42q-.25-.002-.519.003c-.238.003-.484.006-.731-.001l.004 2.42l-1.52.001l-.004-2.42l-3.044-.058l.256-1.768s1.15.024 1.129.012c.423-.002.549-.293.58-.485l-.008-3.878l.012-2.76c-.046-.288-.248-.634-.87-.644c.033-.03-1.115.001-1.115.001L6 6.38l3.12-.005l-.004-2.37l1.571-.002l.004 2.37c.304-.008.603-.005.906-.003l.3.002l-.005-2.37L13.422 4zm-2.92 4.46l.076.002c.926.04 3.67.155 3.673-1.457c-.004-1.532-2.339-1.482-3.423-1.46q-.195.006-.327.005zm.129 4.75l-.134-.005v-2.91q.146.002.359-.002c1.282-.015 4.145-.05 4.132 1.494c.014 1.597-3.218 1.468-4.357 1.423" clip-rule="evenodd"/></symbol><symbol id="hd-icon-bitcoin-icons-bitcoin-outline" viewBox="0 0 24 24"><g fill="none" stroke="currentColor"><path d="M10.521 7.95v2.927c1.21.076 3.737.067 3.737-1.43S12.132 7.95 10.521 7.95Z"/><path d="M13.425 6.432c1.983.19 3.538.778 3.71 2.528c.117 1.276-.438 2.035-1.355 2.463c1.481.359 2.382 1.202 2.196 3.072c-.227 2.343-2.035 2.952-4.62 3.08l.004 2.42l-1.522.002l-.004-2.42c-.389-.005-.819.015-1.25.002l.004 2.42l-1.52.001l-.004-2.42l-3.044-.058l.256-1.768s.724.012 1.129.012c.423-.002.549-.293.58-.485l-.008-3.878l.012-2.76c-.046-.288-.248-.634-.87-.644c.033-.03-1.115.001-1.115.001L6 6.38l3.12-.005l-.004-2.37l1.571-.002l.004 2.37c.403-.01.8-.003 1.205-.001l-.004-2.37L13.422 4z"/><path d="M10.5 15.637c.991.036 4.506.247 4.49-1.418c.016-1.713-3.512-1.483-4.49-1.491z"/></g></symbol><symbol id="hd-icon-bitcoin-icons-block-filled" viewBox="0 0 24 24"><path fill="currentColor" fill-rule="evenodd" d="M21 8.344a.73.73 0 0 0-.364-.645l-7.494-4.395a2.21 2.21 0 0 0-2.23-.003L3.368 7.698a.73.73 0 0 0-.365.646H3v7.43h.004a.73.73 0 0 0 .376.622l7.563 4.242a2.21 2.21 0 0 0 2.167-.003l7.515-4.24a.73.73 0 0 0 .375-.62zm-16.236.564a.375.375 0 0 0-.368.653l6.359 3.588a2.59 2.59 0 0 0 2.551-.006l6.278-3.583a.375.375 0 1 0-.372-.651l-6.278 3.582c-.56.32-1.248.322-1.81.005z" clip-rule="evenodd"/></symbol><symbol id="hd-icon-bitcoin-icons-block-outline" viewBox="0 0 24 24"><g fill="none" stroke="currentColor"><path d="M20.54 8.676v6.876a.69.69 0 0 1-.355.644l-7.132 4.024a2.1 2.1 0 0 1-2.056.002L3.82 16.197a.69.69 0 0 1-.355-.66V8.694a.69.69 0 0 1 .345-.654l7.156-4.172a2.1 2.1 0 0 1 2.117.002l7.112 4.17a.69.69 0 0 1 .344.636Z"/><path d="M3.82 9.253a.699.699 0 0 1-.01-1.213l7.156-4.172a2.1 2.1 0 0 1 2.117.002l7.112 4.17a.699.699 0 0 1-.01 1.212l-7.132 4.024a2.1 2.1 0 0 1-2.056.003z"/></g></symbol><symbol id="hd-icon-bitcoin-icons-brush-filled" viewBox="0 0 24 24"><path fill="currentColor" d="M7.5 5H5v6h14V5h-2.5v3a.5.5 0 0 1-1 0V5H14v4.5a.5.5 0 0 1-1 0V5H8.5v2a.5.5 0 0 1-1 0zM5 13v-1h14v1a2 2 0 0 1-2 2h-3v3a2 2 0 1 1-4 0v-3H7a2 2 0 0 1-2-2"/></symbol><symbol id="hd-icon-bitcoin-icons-brush-outline" viewBox="0 0 24 24"><g fill="none" stroke="currentColor"><path d="M18.5 5.5h-13v7a2 2 0 0 0 2 2h3V18a1.5 1.5 0 0 0 3 0v-3.5h3a2 2 0 0 0 2-2z"/><path stroke-linecap="round" stroke-linejoin="round" d="M6 11.5h12M16 6v2m-2.5-2v3.5M8 6v1"/></g></symbol><symbol id="hd-icon-bitcoin-icons-buoy-filled" viewBox="0 0 24 24"><path fill="currentColor" d="M6.315 5.022c-.473.386-.907.82-1.293 1.293L7.877 9.17A5 5 0 0 1 9.17 7.877zm9.808 9.808a5 5 0 0 1-1.293 1.293l2.855 2.855a9 9 0 0 0 1.293-1.293zm3.45 2.036l-2.952-2.952c.244-.59.379-1.236.379-1.914s-.135-1.324-.38-1.914l2.953-2.952A8.96 8.96 0 0 1 21 12a8.96 8.96 0 0 1-1.427 4.866M10.086 7.38L7.134 4.426A8.96 8.96 0 0 1 12 3a8.96 8.96 0 0 1 4.866 1.427L13.914 7.38A5 5 0 0 0 12 7c-.678 0-1.324.135-1.914.38M5.022 17.685c.386.473.82.907 1.293 1.293l2.855-2.855a5 5 0 0 1-1.293-1.293zM7 12c0-.678.135-1.324.38-1.914L4.426 7.134A8.96 8.96 0 0 0 3 12a8.96 8.96 0 0 0 1.427 4.866l2.952-2.952A5 5 0 0 1 7 12m9.866 7.573l-2.952-2.952A5 5 0 0 1 12 17a5 5 0 0 1-1.914-.38l-2.952 2.953A8.96 8.96 0 0 0 12 21a8.96 8.96 0 0 0 4.866-1.427M14.83 7.877a5 5 0 0 1 1.293 1.293l2.855-2.855a9 9 0 0 0-1.293-1.293z"/></symbol><symbol id="hd-icon-bitcoin-icons-buoy-outline" viewBox="0 0 24 24"><g fill="none" stroke="currentColor"><circle cx="12" cy="12" r="8.5"/><circle cx="12" cy="12" r="5"/><path d="m19 7l-2.5 2.5M17 5l-2.5 2.5m-5 9L7 19m.5-4.5L5 17m4.5-9.5L7 5m.5 4.5L5 7m12 12l-2.5-2.5m4.5.5l-2.5-2.5"/></g></symbol><symbol id="hd-icon-bitcoin-icons-calendar-filled" viewBox="0 0 24 24"><path fill="currentColor" d="M5 7.5A1.5 1.5 0 0 1 6.5 6h11A1.5 1.5 0 0 1 19 7.5V9H5z"/><path fill="currentColor" fill-rule="evenodd" d="M16 4.5a.5.5 0 0 1 .5.5v2a.5.5 0 0 1-1 0V5a.5.5 0 0 1 .5-.5m-8 0a.5.5 0 0 1 .5.5v2a.5.5 0 0 1-1 0V5a.5.5 0 0 1 .5-.5M5 10h14v6.5a1.5 1.5 0 0 1-1.5 1.5h-11A1.5 1.5 0 0 1 5 16.5zm10.5 2a.5.5 0 0 1 .5-.5h1a.5.5 0 0 1 0 1h-1a.5.5 0 0 1-.5-.5m-2.5-.5a.5.5 0 0 0 0 1h1a.5.5 0 0 0 0-1zm-3.5.5a.5.5 0 0 1 .5-.5h1a.5.5 0 0 1 0 1h-1a.5.5 0 0 1-.5-.5M7 13.5a.5.5 0 0 0 0 1h1a.5.5 0 0 0 0-1zm8.5.5a.5.5 0 0 1 .5-.5h1a.5.5 0 0 1 0 1h-1a.5.5 0 0 1-.5-.5m-2.5-.5a.5.5 0 0 0 0 1h1a.5.5 0 0 0 0-1zm-3.5.5a.5.5 0 0 1 .5-.5h1a.5.5 0 0 1 0 1h-1a.5.5 0 0 1-.5-.5M7 15.5a.5.5 0 0 0 0 1h1a.5.5 0 0 0 0-1zm5.5.5a.5.5 0 0 1 .5-.5h1a.5.5 0 0 1 0 1h-1a.5.5 0 0 1-.5-.5m-2.5-.5a.5.5 0 0 0 0 1h1a.5.5 0 0 0 0-1z" clip-rule="evenodd"/></symbol><symbol id="hd-icon-bitcoin-icons-calendar-outline" viewBox="0 0 24 24"><g fill="none" stroke="currentColor"><path d="M5.5 8A1.5 1.5 0 0 1 7 6.5h10A1.5 1.5 0 0 1 18.5 8v.5h-13z"/><path stroke-linecap="round" d="M16 5v2M8 5v2"/><path d="M5.5 10.5h13V16a1.5 1.5 0 0 1-1.5 1.5H7A1.5 1.5 0 0 1 5.5 16z"/><path stroke-linecap="round" d="M15.75 12.25h1m-3.833 0h1m-3.834 0h1M7.25 14h1m7.5 0h1m-3.833 0h1m-3.834 0h1M7.25 15.75h1m4.667 0h1m-3.834 0h1"/></g></symbol><symbol id="hd-icon-bitcoin-icons-car-filled" viewBox="0 0 24 24"><path fill="currentColor" d="M18.92 5.01C18.72 4.42 18.16 4 17.5 4h-11c-.66 0-1.21.42-1.42 1.01L3 11v8c0 .55.45 1 1 1h1c.55 0 1-.45 1-1v-1h12v1c0 .55.45 1 1 1h1c.55 0 1-.45 1-1v-8zM6.5 15c-.83 0-1.5-.67-1.5-1.5S5.67 12 6.5 12s1.5.67 1.5 1.5S7.33 15 6.5 15m11 0c-.83 0-1.5-.67-1.5-1.5s.67-1.5 1.5-1.5s1.5.67 1.5 1.5s-.67 1.5-1.5 1.5M5 10l1.5-4.5h11L19 10z"/></symbol><symbol id="hd-icon-bitcoin-icons-car-outline" viewBox="0 0 24 24"><g fill="none" stroke="currentColor"><path d="M18.5 5.51c-.2-.59-.59-1.01-1.25-1.01H6.75c-.66 0-1.04.42-1.25 1.01l-2 5.74v7.5c0 .55.2.75.75.75h.5c.55 0 .75-.2.75-.75V17.5h13v1.25c0 .55.2.75.75.75h.5c.55 0 .75-.2.75-.75v-7.5z"/><path d="M6.5 14.5a1 1 0 1 1 0-2a1 1 0 1 1 0 2Zm11 0a1 1 0 1 1 0-2a1 1 0 1 1 0 2Z"/><path stroke-linejoin="round" d="M5.75 9.5L7 6h10l1.25 3.5z"/></g></symbol><symbol id="hd-icon-bitcoin-icons-caret-down-filled" viewBox="0 0 24 24"><path fill="currentColor" fill-rule="evenodd" d="M4.47 9.4a.75.75 0 0 1 1.06 0l6.364 6.364a.25.25 0 0 0 .354 0L18.612 9.4a.75.75 0 0 1 1.06 1.06l-6.364 6.364a1.75 1.75 0 0 1-2.475 0L4.47 10.46a.75.75 0 0 1 0-1.06" clip-rule="evenodd"/></symbol><symbol id="hd-icon-bitcoin-icons-caret-down-outline" viewBox="0 0 24 24"><path fill="none" stroke="currentColor" stroke-linecap="round" d="m19.142 9.929l-6.364 6.364a1 1 0 0 1-1.415 0L5 9.929"/></symbol><symbol id="hd-icon-bitcoin-icons-caret-left-filled" viewBox="0 0 24 24"><path fill="currentColor" fill-rule="evenodd" d="M14.601 4.47a.75.75 0 0 1 0 1.06l-6.364 6.364a.25.25 0 0 0 0 .354l6.364 6.364a.75.75 0 0 1-1.06 1.06L7.177 13.31a1.75 1.75 0 0 1 0-2.475L13.54 4.47a.75.75 0 0 1 1.06 0" clip-rule="evenodd"/></symbol><symbol id="hd-icon-bitcoin-icons-caret-left-outline" viewBox="0 0 24 24"><path fill="none" stroke="currentColor" stroke-linecap="round" d="m14.071 5l-6.364 6.364a1 1 0 0 0 0 1.414l6.364 6.364"/></symbol><symbol id="hd-icon-bitcoin-icons-caret-right-filled" viewBox="0 0 24 24"><path fill="currentColor" fill-rule="evenodd" d="M9.399 4.328a.75.75 0 0 1 1.06 0l6.364 6.363a1.75 1.75 0 0 1 0 2.475L10.46 19.53a.75.75 0 0 1-1.06-1.06l6.364-6.364a.25.25 0 0 0 0-.354L9.399 5.388a.75.75 0 0 1 0-1.06" clip-rule="evenodd"/></symbol><symbol id="hd-icon-bitcoin-icons-caret-right-outline" viewBox="0 0 24 24"><path fill="none" stroke="currentColor" stroke-linecap="round" d="m9.929 4.858l6.364 6.364a1 1 0 0 1 0 1.414L9.929 19"/></symbol><symbol id="hd-icon-bitcoin-icons-caret-up-filled" viewBox="0 0 24 24"><path fill="currentColor" fill-rule="evenodd" d="M12.248 8.237a.25.25 0 0 0-.354 0L5.53 14.601a.75.75 0 1 1-1.06-1.06l6.363-6.364a1.75 1.75 0 0 1 2.475 0l6.364 6.364a.75.75 0 0 1-1.06 1.06z" clip-rule="evenodd"/></symbol><symbol id="hd-icon-bitcoin-icons-caret-up-outline" viewBox="0 0 24 24"><path fill="none" stroke="currentColor" stroke-linecap="round" d="m5 14.071l6.364-6.364a1 1 0 0 1 1.414 0l6.364 6.364"/></symbol><symbol id="hd-icon-bitcoin-icons-cart-filled" viewBox="0 0 24 24"><path fill="currentColor" fill-rule="evenodd" d="M9.5 19.5a1 1 0 1 0 0-2a1 1 0 0 0 0 2m0 1a2 2 0 1 0 0-4a2 2 0 0 0 0 4m7-1a1 1 0 1 0 0-2a1 1 0 0 0 0 2m0 1a2 2 0 1 0 0-4a2 2 0 0 0 0 4M3 4a.5.5 0 0 1 .5-.5h2a.5.5 0 0 1 .476.348L9.37 14.5H17a.5.5 0 0 1 0 1H9.004a.5.5 0 0 1-.476-.348L5.135 4.5H3.5A.5.5 0 0 1 3 4" clip-rule="evenodd"/><path fill="currentColor" d="M8.5 13L6 6h13.337a.5.5 0 0 1 .48.637l-1.713 6a.5.5 0 0 1-.481.363z"/></symbol><symbol id="hd-icon-bitcoin-icons-cart-outline" viewBox="0 0 24 24"><g fill="none" stroke="currentColor"><circle cx="10" cy="19" r="1.5"/><circle cx="17" cy="19" r="1.5"/><path stroke-linecap="round" stroke-linejoin="round" d="M3.5 4h2l3.504 11H17"/><path stroke-linecap="round" stroke-linejoin="round" d="M8.224 12.5L6.3 6.5h12.507a.5.5 0 0 1 .475.658l-1.667 5a.5.5 0 0 1-.474.342z"/></g></symbol><symbol id="hd-icon-bitcoin-icons-channel-filled" viewBox="0 0 24 24"><path fill="currentColor" fill-rule="evenodd" d="M3 12a3.5 3.5 0 0 1 3.5-3.5h11a3.5 3.5 0 1 1 0 7h-11A3.5 3.5 0 0 1 3 12m3.5-2.5a2.5 2.5 0 0 0 0 5h11a2.5 2.5 0 0 0 0-5z" clip-rule="evenodd"/><path fill="currentColor" d="M5 12a1.5 1.5 0 0 1 1.5-1.5h7v3h-7A1.5 1.5 0 0 1 5 12m9.5-1.5h3a1.5 1.5 0 0 1 0 3h-3z"/></symbol><symbol id="hd-icon-bitcoin-icons-channel-outline" viewBox="0 0 24 24"><g fill="none" stroke="currentColor"><rect width="17" height="6" x="3.5" y="9" rx="3"/><path d="M5.5 12a1 1 0 0 1 1-1H13v2H6.5a1 1 0 0 1-1-1Zm9.5-1h2.5a1 1 0 1 1 0 2H15z"/></g></symbol><symbol id="hd-icon-bitcoin-icons-channels-filled" viewBox="0 0 24 24"><path fill="currentColor" d="M3 8.5A1.5 1.5 0 0 1 4.5 7H13v3H4.5A1.5 1.5 0 0 1 3 8.5M14 7h5.5a1.5 1.5 0 0 1 0 3H14zM3 12.5A1.5 1.5 0 0 1 4.5 11H10v3H4.5A1.5 1.5 0 0 1 3 12.5m8-1.5h8.5a1.5 1.5 0 0 1 0 3H11zm-8 5.5A1.5 1.5 0 0 1 4.5 15H16v3H4.5A1.5 1.5 0 0 1 3 16.5M17 15h2.5a1.5 1.5 0 0 1 0 3H17z"/></symbol><symbol id="hd-icon-bitcoin-icons-channels-outline" viewBox="0 0 24 24"><path fill="none" stroke="currentColor" d="M3.5 8.5a1 1 0 0 1 1-1h8v2h-8a1 1 0 0 1-1-1Zm11-1h5a1 1 0 1 1 0 2h-5zm-11 5a1 1 0 0 1 1-1h5v2h-5a1 1 0 0 1-1-1Zm8-1h8a1 1 0 1 1 0 2h-8zm-8 5a1 1 0 0 1 1-1h11v2h-11a1 1 0 0 1-1-1Zm14-1h2a1 1 0 1 1 0 2h-2z"/></symbol><symbol id="hd-icon-bitcoin-icons-check-filled" viewBox="0 0 24 24"><path fill="currentColor" fill-rule="evenodd" d="M18.381 5.354a.75.75 0 0 1 .265 1.027l-7.087 12a.75.75 0 0 1-1.164.16L5.48 13.838a.75.75 0 0 1 1.038-1.084l4.23 4.051L17.353 5.62a.75.75 0 0 1 1.027-.265" clip-rule="evenodd"/></symbol><symbol id="hd-icon-bitcoin-icons-check-outline" viewBox="0 0 24 24"><path fill="none" stroke="currentColor" stroke-linecap="round" stroke-linejoin="round" d="M6 13.295L10.913 18L18 6"/></symbol><symbol id="hd-icon-bitcoin-icons-clear-character-filled" viewBox="0 0 24 24"><path fill="currentColor" fill-rule="evenodd" d="M8 5a.53.53 0 0 0-.431.222l-3.923 5.486a1.64 1.64 0 0 0-.047 1.839L7.58 18.77A.5.5 0 0 0 8 19h11.359c.906 0 1.641-.735 1.641-1.641V6.64C21 5.735 20.265 5 19.359 5zm1.646 3.146a.5.5 0 0 1 .708 0l3.127 3.128l3.094-3.126a.5.5 0 0 1 .71.704l-3.097 3.129l3.166 3.165a.5.5 0 0 1-.708.708l-3.162-3.163l-3.129 3.16a.5.5 0 0 1-.71-.703l3.132-3.164l-3.13-3.13a.5.5 0 0 1 0-.708" clip-rule="evenodd"/></symbol><symbol id="hd-icon-bitcoin-icons-clear-character-outline" viewBox="0 0 24 24"><path fill="none" stroke="currentColor" stroke-linecap="round" stroke-linejoin="round" d="m7.5 5.5l-3.447 5.29a1.64 1.64 0 0 0-.043 1.723L7.5 18.5h11.36a1.64 1.64 0 0 0 1.64-1.641V7.14a1.64 1.64 0 0 0-1.64-1.641zm2.5 3l7 7m-7 0l6.93-7"/></symbol><symbol id="hd-icon-bitcoin-icons-clock-filled" viewBox="0 0 24 24"><path fill="currentColor" fill-rule="evenodd" d="M21 12a9 9 0 1 1-18 0a9 9 0 0 1 18 0m-8.5-.207V6.97a.5.5 0 1 0-1 0v5.015a.5.5 0 0 0 .146.369l2.829 2.828a.5.5 0 1 0 .707-.707z" clip-rule="evenodd"/></symbol><symbol id="hd-icon-bitcoin-icons-clock-outline" viewBox="0 0 24 24"><g fill="none" stroke="currentColor"><circle cx="12" cy="12" r="8.5"/><path stroke-linecap="round" stroke-linejoin="round" d="M12 7v5l2.8 2.8"/></g></symbol><symbol id="hd-icon-bitcoin-icons-cloud-filled" viewBox="0 0 24 24"><path fill="currentColor" d="M9.5 6a4.5 4.5 0 0 1 4.366 3.404a3.5 3.5 0 0 1 5.105 2.64A2.5 2.5 0 0 1 18.5 17h-12a3.5 3.5 0 0 1-1.497-6.665A4.5 4.5 0 0 1 9.5 6"/></symbol><symbol id="hd-icon-bitcoin-icons-cloud-outline" viewBox="0 0 24 24"><path fill="none" stroke="currentColor" d="M9.5 6.5a4 4 0 0 1 3.993 3.77A3 3 0 0 1 18.5 12.5a2 2 0 1 1 0 4h-12a3 3 0 0 1-.996-5.83L5.5 10.5a4 4 0 0 1 4-4Z"/></symbol><symbol id="hd-icon-bitcoin-icons-code-filled" viewBox="0 0 24 24"><path fill="currentColor" fill-rule="evenodd" d="M13.737 6.789a.75.75 0 0 1 .475.948l-3 9a.75.75 0 0 1-1.423-.474l3-9a.75.75 0 0 1 .948-.474m2.275 1.141a.75.75 0 0 1 1.058.082l3 3.5a.75.75 0 0 1 0 .976l-3 3.5a.75.75 0 0 1-1.14-.976L18.513 12l-2.581-3.012a.75.75 0 0 1 .08-1.057M7.988 7.93a.75.75 0 0 1 .081 1.058L5.488 12l2.581 3.012a.75.75 0 0 1-1.138.976l-3-3.5a.75.75 0 0 1 0-.976l3-3.5a.75.75 0 0 1 1.057-.081" clip-rule="evenodd"/></symbol><symbol id="hd-icon-bitcoin-icons-code-outline" viewBox="0 0 24 24"><g fill="none" stroke="currentColor" stroke-linecap="round"><path d="m10.5 16.5l3-9"/><path stroke-linejoin="round" d="m16.5 8.5l3 3.5l-3 3.5m-9-7l-3 3.5l3 3.5"/></g></symbol><symbol id="hd-icon-bitcoin-icons-coins-filled" viewBox="0 0 24 24"><path fill="currentColor" d="M10 16a6 6 0 0 0 5.97-6.597a5.001 5.001 0 1 1-6.567 6.568Q9.7 16 10 16"/><circle cx="10" cy="10" r="5" fill="currentColor"/></symbol><symbol id="hd-icon-bitcoin-icons-coins-outline" viewBox="0 0 24 24"><g fill="none" stroke="currentColor"><path d="M16.495 10.255a6.5 6.5 0 0 1-6.24 6.24a4.5 4.5 0 1 0 6.24-6.24Z"/><circle cx="10" cy="10" r="4.5"/></g></symbol><symbol id="hd-icon-bitcoin-icons-confirmations-0-filled" viewBox="0 0 24 24"><path fill="currentColor" fill-rule="evenodd" d="M13.018 4.806a.5.5 0 0 1 .593-.385a7.75 7.75 0 0 1 4.148 2.395a.5.5 0 0 1-.743.669a6.75 6.75 0 0 0-3.612-2.086a.5.5 0 0 1-.386-.593m5.722 4.48a.5.5 0 0 1 .63.32a7.75 7.75 0 0 1 0 4.79a.5.5 0 0 1-.95-.308a6.75 6.75 0 0 0 0-4.172a.5.5 0 0 1 .32-.63m-1.017 7.195a.5.5 0 0 1 .037.706a7.75 7.75 0 0 1-4.149 2.395a.5.5 0 1 1-.208-.978a6.75 6.75 0 0 0 3.613-2.086a.5.5 0 0 1 .707-.037m-11.445 0a.5.5 0 0 1 .706.037a6.75 6.75 0 0 0 3.613 2.086a.5.5 0 1 1-.208.978a7.75 7.75 0 0 1-4.148-2.395a.5.5 0 0 1 .037-.706M5.26 9.286a.5.5 0 0 1 .32.63a6.75 6.75 0 0 0 0 4.172a.5.5 0 1 1-.95.309a7.75 7.75 0 0 1 0-4.79a.5.5 0 0 1 .63-.321m5.722-4.48a.5.5 0 0 1-.385.593a6.75 6.75 0 0 0-3.613 2.086a.5.5 0 1 1-.743-.67a7.75 7.75 0 0 1 4.148-2.394a.5.5 0 0 1 .593.385" clip-rule="evenodd"/></symbol><symbol id="hd-icon-bitcoin-icons-confirmations-0-outline" viewBox="0 0 24 24"><path fill="none" stroke="currentColor" stroke-linecap="round" d="M13.507 4.908a7.25 7.25 0 0 1 3.88 2.24m1.508 2.612a7.25 7.25 0 0 1 0 4.48m-1.507 2.611a7.25 7.25 0 0 1-3.88 2.24m-3.015.001a7.25 7.25 0 0 1-3.88-2.24M5.105 14.24a7.25 7.25 0 0 1 0-4.48m1.507-2.611a7.25 7.25 0 0 1 3.88-2.24"/></symbol><symbol id="hd-icon-bitcoin-icons-confirmations-1-filled" viewBox="0 0 24 24"><path fill="currentColor" d="M13 5.66c0 .244.177.45.415.508a6 6 0 0 1 2.928 1.692a.53.53 0 0 0 .646.105l1.773-1.024a.477.477 0 0 0 .139-.719a9 9 0 0 0-5.348-3.087a.477.477 0 0 0-.553.48z"/><path fill="currentColor" fill-rule="evenodd" d="M18.74 9.286a.5.5 0 0 1 .63.32a7.75 7.75 0 0 1 0 4.79a.5.5 0 0 1-.95-.308a6.75 6.75 0 0 0 0-4.172a.5.5 0 0 1 .32-.63m-1.017 7.195a.5.5 0 0 1 .037.706a7.75 7.75 0 0 1-4.149 2.395a.5.5 0 1 1-.208-.978a6.75 6.75 0 0 0 3.613-2.086a.5.5 0 0 1 .707-.037m-11.445 0a.5.5 0 0 1 .706.037a6.75 6.75 0 0 0 3.613 2.086a.5.5 0 1 1-.208.978a7.75 7.75 0 0 1-4.148-2.395a.5.5 0 0 1 .037-.706M5.26 9.286a.5.5 0 0 1 .32.63a6.75 6.75 0 0 0 0 4.172a.5.5 0 1 1-.95.309a7.75 7.75 0 0 1 0-4.79a.5.5 0 0 1 .63-.321m5.722-4.48a.5.5 0 0 1-.385.593a6.75 6.75 0 0 0-3.613 2.086a.5.5 0 1 1-.743-.67a7.75 7.75 0 0 1 4.148-2.394a.5.5 0 0 1 .593.385" clip-rule="evenodd"/></symbol><symbol id="hd-icon-bitcoin-icons-confirmations-1-outline" viewBox="0 0 24 24"><g fill="none" stroke="currentColor"><path stroke-linejoin="round" d="m16.281 7.796l2.215-1.278A8.5 8.5 0 0 0 13.5 3.633V6.19a6 6 0 0 1 2.781 1.607Z"/><path stroke-linecap="round" d="M18.895 9.76a7.25 7.25 0 0 1 0 4.48m-1.507 2.611a7.25 7.25 0 0 1-3.88 2.24m-3.015.001a7.25 7.25 0 0 1-3.88-2.24M5.105 14.24a7.25 7.25 0 0 1 0-4.48m1.507-2.611a7.25 7.25 0 0 1 3.88-2.24"/></g></symbol><symbol id="hd-icon-bitcoin-icons-confirmations-2-filled" viewBox="0 0 24 24"><path fill="currentColor" d="M13 5.66c0 .244.177.45.415.508a6 6 0 0 1 2.928 1.692a.53.53 0 0 0 .646.105l1.773-1.024a.477.477 0 0 0 .139-.719a9 9 0 0 0-5.348-3.087a.477.477 0 0 0-.553.48zM18 12c0-.588-.084-1.155-.242-1.692a.53.53 0 0 1 .233-.612l1.77-1.023a.478.478 0 0 1 .693.24a9 9 0 0 1 0 6.174a.477.477 0 0 1-.692.24l-1.771-1.023a.53.53 0 0 1-.233-.612A6 6 0 0 0 18 12"/><path fill="currentColor" fill-rule="evenodd" d="M17.723 16.481a.5.5 0 0 1 .037.706a7.75 7.75 0 0 1-4.149 2.395a.5.5 0 1 1-.208-.978a6.75 6.75 0 0 0 3.613-2.086a.5.5 0 0 1 .707-.037m-11.445 0a.5.5 0 0 1 .706.037a6.75 6.75 0 0 0 3.613 2.086a.5.5 0 1 1-.208.978a7.75 7.75 0 0 1-4.148-2.395a.5.5 0 0 1 .037-.706M5.26 9.286a.5.5 0 0 1 .32.63a6.75 6.75 0 0 0 0 4.172a.5.5 0 1 1-.95.309a7.75 7.75 0 0 1 0-4.79a.5.5 0 0 1 .63-.321m5.722-4.48a.5.5 0 0 1-.385.593a6.75 6.75 0 0 0-3.613 2.086a.5.5 0 1 1-.743-.67a7.75 7.75 0 0 1 4.148-2.394a.5.5 0 0 1 .593.385" clip-rule="evenodd"/></symbol><symbol id="hd-icon-bitcoin-icons-confirmations-2-outline" viewBox="0 0 24 24"><g fill="none" stroke="currentColor"><path stroke-linejoin="round" d="M17.783 10.394a6.03 6.03 0 0 1-.001 3.213l2.214 1.277a8.5 8.5 0 0 0 0-5.768zm-1.502-2.598l2.215-1.278A8.5 8.5 0 0 0 13.5 3.633V6.19a6 6 0 0 1 2.781 1.607Z"/><path stroke-linecap="round" d="M17.388 16.851a7.25 7.25 0 0 1-3.88 2.24m-3.015.001a7.25 7.25 0 0 1-3.88-2.24M5.105 14.24a7.25 7.25 0 0 1 0-4.48m1.507-2.611a7.25 7.25 0 0 1 3.88-2.24"/></g></symbol><symbol id="hd-icon-bitcoin-icons-confirmations-3-filled" viewBox="0 0 24 24"><path fill="currentColor" d="M13 20.385c0 .298.26.531.553.48a9 9 0 0 0 5.348-3.087a.477.477 0 0 0-.14-.72l-1.772-1.023a.53.53 0 0 0-.646.105a6 6 0 0 1-2.928 1.692a.53.53 0 0 0-.415.508zm4.758-6.693a.53.53 0 0 0 .233.612l2.102 1.214a.155.155 0 0 0 .222-.074a9 9 0 0 0 0-6.888a.155.155 0 0 0-.222-.074l-2.102 1.214a.53.53 0 0 0-.233.612c.158.537.242 1.104.242 1.692s-.084 1.155-.242 1.692m.606-8.056q.282.282.537.586a.478.478 0 0 1-.14.72L16.99 7.964a.53.53 0 0 1-.646-.105a6 6 0 0 0-2.928-1.692A.53.53 0 0 1 13 5.66V3.615c0-.298.26-.531.553-.48a9 9 0 0 1 4.811 2.501"/><path fill="currentColor" fill-rule="evenodd" d="M6.278 16.481a.5.5 0 0 1 .706.037a6.75 6.75 0 0 0 3.613 2.086a.5.5 0 1 1-.208.978a7.75 7.75 0 0 1-4.148-2.395a.5.5 0 0 1 .037-.706M5.26 9.286a.5.5 0 0 1 .32.63a6.75 6.75 0 0 0 0 4.172a.5.5 0 1 1-.95.309a7.75 7.75 0 0 1 0-4.79a.5.5 0 0 1 .63-.321m5.722-4.48a.5.5 0 0 1-.385.593a6.75 6.75 0 0 0-3.613 2.086a.5.5 0 1 1-.743-.67a7.75 7.75 0 0 1 4.148-2.394a.5.5 0 0 1 .593.385" clip-rule="evenodd"/></symbol><symbol id="hd-icon-bitcoin-icons-confirmations-3-outline" viewBox="0 0 24 24"><g fill="none" stroke="currentColor"><path stroke-linejoin="round" d="M13.5 20.367a8.5 8.5 0 0 0 4.996-2.885l-2.215-1.278A6 6 0 0 1 13.5 17.81zm7-8.367c0 .993-.174 1.968-.504 2.884l-2.213-1.277a6.04 6.04 0 0 0-.001-3.214l2.214-1.277c.33.916.504 1.891.504 2.884Zm-2.004-5.482A8.5 8.5 0 0 0 13.5 3.633V6.19a6 6 0 0 1 2.781 1.607z"/><path stroke-linecap="round" d="M10.493 19.092a7.25 7.25 0 0 1-3.88-2.24M5.105 14.24a7.25 7.25 0 0 1 0-4.48m1.507-2.611a7.25 7.25 0 0 1 3.88-2.24"/></g></symbol><symbol id="hd-icon-bitcoin-icons-confirmations-4-filled" viewBox="0 0 24 24"><path fill="currentColor" d="M11 18.34a.53.53 0 0 0-.415-.508a6 6 0 0 1-2.928-1.692a.53.53 0 0 0-.646-.105L5.238 17.06a.477.477 0 0 0-.139.719a9 9 0 0 0 5.348 3.087a.477.477 0 0 0 .553-.48zm2 2.045c0 .298.26.531.553.48a9 9 0 0 0 5.348-3.087a.477.477 0 0 0-.14-.72l-1.772-1.023a.53.53 0 0 0-.646.105a6 6 0 0 1-2.928 1.692a.53.53 0 0 0-.415.508zm4.758-6.693a.53.53 0 0 0 .233.612l1.77 1.023c.259.149.59.04.693-.24a9 9 0 0 0 0-6.174a.477.477 0 0 0-.692-.24L17.99 9.696a.53.53 0 0 0-.233.612c.158.537.242 1.104.242 1.692s-.084 1.155-.242 1.692M16.542 4.23A9 9 0 0 1 18.9 6.222a.478.478 0 0 1-.14.72l-1.77 1.022a.53.53 0 0 1-.646-.105a6 6 0 0 0-2.928-1.692A.53.53 0 0 1 13 5.66V3.615c0-.298.26-.531.553-.48a9 9 0 0 1 2.988 1.095"/><path fill="currentColor" fill-rule="evenodd" d="M17.723 16.481a.5.5 0 0 1 .037.706a7.75 7.75 0 0 1-4.149 2.395a.5.5 0 1 1-.208-.978a6.75 6.75 0 0 0 3.613-2.086a.5.5 0 0 1 .707-.037m-11.445 0a.5.5 0 0 1 .706.037a6.75 6.75 0 0 0 3.613 2.086a.5.5 0 1 1-.208.978a7.75 7.75 0 0 1-4.148-2.395a.5.5 0 0 1 .037-.706M5.26 9.286a.5.5 0 0 1 .32.63a6.75 6.75 0 0 0 0 4.172a.5.5 0 1 1-.95.309a7.75 7.75 0 0 1 0-4.79a.5.5 0 0 1 .63-.321m5.722-4.48a.5.5 0 0 1-.385.593a6.75 6.75 0 0 0-3.613 2.086a.5.5 0 1 1-.743-.67a7.75 7.75 0 0 1 4.148-2.394a.5.5 0 0 1 .593.385" clip-rule="evenodd"/></symbol><symbol id="hd-icon-bitcoin-icons-confirmations-4-outline" viewBox="0 0 24 24"><g fill="none" stroke="currentColor"><path stroke-linejoin="round" d="m7.719 16.204l-2.215 1.278a8.5 8.5 0 0 0 4.996 2.885V17.81a6 6 0 0 1-2.781-1.607Zm10.064-5.81l2.213-1.278a8.5 8.5 0 0 1 0 5.768l-2.213-1.277a6.04 6.04 0 0 0-.001-3.214Zm.713-3.876L16.28 7.796A6 6 0 0 0 13.5 6.19V3.633a8.5 8.5 0 0 1 4.996 2.885ZM13.5 20.367a8.5 8.5 0 0 0 4.996-2.885l-2.215-1.278A6 6 0 0 1 13.5 17.81z"/><path stroke-linecap="round" d="M5.105 14.24a7.25 7.25 0 0 1 0-4.48m1.507-2.611a7.25 7.25 0 0 1 3.88-2.24"/></g></symbol><symbol id="hd-icon-bitcoin-icons-confirmations-5-filled" viewBox="0 0 24 24"><path fill="currentColor" d="M11 18.34a.53.53 0 0 0-.415-.508a6 6 0 0 1-2.928-1.692a.53.53 0 0 0-.646-.105L5.238 17.06a.477.477 0 0 0-.139.719a9 9 0 0 0 5.8 3.155a.09.09 0 0 0 .101-.09zM18 12c0-.588-.084-1.155-.242-1.692a.53.53 0 0 1 .233-.612l1.77-1.023c.26-.149.59-.04.693.24a9 9 0 0 1-.151 6.56a.13.13 0 0 1-.182.06l-2.13-1.229a.53.53 0 0 1-.233-.612A6 6 0 0 0 18 12M6.01 9.696a.53.53 0 0 1 .232.612A6 6 0 0 0 6 12c0 .588.084 1.155.242 1.692a.53.53 0 0 1-.233.612l-1.77 1.023a.477.477 0 0 1-.693-.24a9 9 0 0 1 0-6.174a.477.477 0 0 1 .692-.24zm10.98 6.339a.53.53 0 0 0-.647.105a6 6 0 0 1-2.928 1.692a.53.53 0 0 0-.415.508v2.045c0 .298.26.531.553.48a9 9 0 0 0 5.348-3.087a.477.477 0 0 0-.14-.72zm-.647-8.175a.53.53 0 0 0 .646.105l1.773-1.024a.477.477 0 0 0 .139-.719a9 9 0 0 0-5.348-3.087a.477.477 0 0 0-.553.48V5.66c0 .244.177.45.415.508a6 6 0 0 1 2.928 1.692"/><path fill="currentColor" fill-rule="evenodd" d="M10.982 4.806a.5.5 0 0 1-.385.593a6.75 6.75 0 0 0-3.613 2.086a.5.5 0 1 1-.743-.67a7.75 7.75 0 0 1 4.148-2.394a.5.5 0 0 1 .593.385" clip-rule="evenodd"/></symbol><symbol id="hd-icon-bitcoin-icons-confirmations-5-outline" viewBox="0 0 24 24"><g fill="none" stroke="currentColor"><path stroke-linejoin="round" d="M6.217 13.607A6 6 0 0 1 6 12c0-.556.076-1.095.217-1.607L4.004 9.117a8.5 8.5 0 0 0 0 5.768zm1.502 2.597l-2.215 1.278q.226.27.477.52a8.5 8.5 0 0 0 4.519 2.365V17.81a6 6 0 0 1-2.781-1.607Zm10.064-5.81l2.213-1.278a8.5 8.5 0 0 1 0 5.768l-2.213-1.277a6.04 6.04 0 0 0-.001-3.214Zm.713-3.876L16.28 7.796A6 6 0 0 0 13.5 6.19V3.633a8.5 8.5 0 0 1 4.996 2.885ZM13.5 17.811a6 6 0 0 0 2.781-1.607l2.215 1.278a8.5 8.5 0 0 1-4.996 2.885z"/><path stroke-linecap="round" d="M6.612 7.149a7.25 7.25 0 0 1 3.88-2.24"/></g></symbol><symbol id="hd-icon-bitcoin-icons-confirmations-6-filled" viewBox="0 0 24 24"><path fill="currentColor" d="M4.236 8.672a.477.477 0 0 0-.692.24A9 9 0 0 0 3 12c0 1.085.192 2.126.544 3.089c.102.28.434.388.692.239l1.773-1.024a.53.53 0 0 0 .233-.612A6 6 0 0 1 6 12c0-.588.084-1.155.242-1.692a.53.53 0 0 0-.233-.612zm.864-2.45a.477.477 0 0 0 .138.72l1.773 1.023a.53.53 0 0 0 .646-.105a6 6 0 0 1 2.928-1.692A.53.53 0 0 0 11 5.66V3.613c0-.298-.26-.53-.553-.48A9 9 0 0 0 5.1 6.222m11.89 9.813a.53.53 0 0 0-.647.105a6 6 0 0 1-2.928 1.692a.53.53 0 0 0-.415.508v2.047c0 .298.26.53.553.48a9 9 0 0 0 5.348-3.089a.477.477 0 0 0-.139-.72zm3.466-.946a.477.477 0 0 1-.692.239l-1.773-1.024a.53.53 0 0 1-.233-.612A6 6 0 0 0 18 12c0-.588-.084-1.155-.242-1.692a.53.53 0 0 1 .233-.612l1.773-1.024a.477.477 0 0 1 .692.24c.352.962.544 2.003.544 3.088a9 9 0 0 1-.544 3.089M11 20.387c0 .298-.26.53-.553.48A9 9 0 0 1 5.1 17.778a.477.477 0 0 1 .139-.72l1.773-1.023a.53.53 0 0 1 .646.105a6 6 0 0 0 2.928 1.692a.53.53 0 0 1 .415.508zm2-16.774c0-.298.26-.53.553-.48A9 9 0 0 1 18.9 6.222c.191.229.12.57-.139.72l-1.773 1.023a.53.53 0 0 1-.646-.105a6 6 0 0 0-2.928-1.692A.53.53 0 0 1 13 5.66z"/></symbol><symbol id="hd-icon-bitcoin-icons-confirmations-6-outline" viewBox="0 0 24 24"><path fill="none" stroke="currentColor" stroke-linejoin="round" d="M10.5 3.632a8.5 8.5 0 0 0-4.996 2.886L7.72 7.796A6 6 0 0 1 10.5 6.19zM3.5 12a8.5 8.5 0 0 1 .502-2.885l2.215 1.278A6 6 0 0 0 6 12c0 .556.076 1.095.217 1.607l-2.215 1.278A8.5 8.5 0 0 1 3.5 12Zm2.004 5.482a8.5 8.5 0 0 0 4.996 2.886v-2.557a6 6 0 0 1-2.781-1.607zm12.279-7.088a6.03 6.03 0 0 1-.001 3.213l2.216 1.279A8.5 8.5 0 0 0 20.5 12a8.5 8.5 0 0 0-.502-2.885zm.713-3.876A8.5 8.5 0 0 0 13.5 3.632v2.557a6 6 0 0 1 2.781 1.607zM13.5 17.811a6 6 0 0 0 2.781-1.607l2.215 1.278a8.5 8.5 0 0 1-4.996 2.886z"/></symbol><symbol id="hd-icon-bitcoin-icons-console-filled" viewBox="0 0 24 24"><path fill="currentColor" fill-rule="evenodd" d="M3.22 4.47a.75.75 0 0 1 1.06 0l7 7a.75.75 0 0 1 0 1.06l-7 7a.75.75 0 0 1-1.06-1.06L9.69 12L3.22 5.53a.75.75 0 0 1 0-1.06M9.25 19a.75.75 0 0 1 .75-.75h10.25a.75.75 0 0 1 0 1.5H10a.75.75 0 0 1-.75-.75" clip-rule="evenodd"/></symbol><symbol id="hd-icon-bitcoin-icons-console-outline" viewBox="0 0 24 24"><path fill="none" stroke="currentColor" stroke-linecap="round" stroke-linejoin="round" d="M10 19h10.5M3.5 5l7 7l-7 7"/></symbol><symbol id="hd-icon-bitcoin-icons-contacts-filled" viewBox="0 0 24 24"><path fill="currentColor" d="M15.436 14.778c-.595-.25-1.336-.563-1.336-.803v-1.57A3.55 3.55 0 0 0 15.5 9.6V7.5C15.5 5.57 13.93 4 12 4S8.5 5.57 8.5 7.5v2.1a3.55 3.55 0 0 0 1.4 2.806v1.569c0 .226-.734.54-1.323.792C7.152 15.376 5 16.296 5 18.7v.35h14v-.35c0-2.42-2.144-3.324-3.564-3.922" opacity=".25"/><path fill="currentColor" d="M8.5 9.5v-2a3.5 3.5 0 1 1 7 0v2c0 1.19-.593 2.24-1.5 2.873v.95a1 1 0 0 0 .629.928l1.586.635A4.43 4.43 0 0 1 19 19H5a4.43 4.43 0 0 1 2.785-4.114l1.586-.635a1 1 0 0 0 .629-.928v-.95A3.5 3.5 0 0 1 8.5 9.5"/></symbol><symbol id="hd-icon-bitcoin-icons-contacts-outline" viewBox="0 0 24 24"><path fill="none" stroke="currentColor" stroke-linecap="round" stroke-linejoin="round" d="M9 9.5v-2a3 3 0 1 1 6 0v2a3 3 0 0 1-1.5 2.599v1.224a1 1 0 0 0 .629.928l2.05.82A3.69 3.69 0 0 1 18.5 18.5h-13c0-1.51.92-2.868 2.321-3.428l2.05-.82a1 1 0 0 0 .629-.929v-1.224A3 3 0 0 1 9 9.5"/></symbol><symbol id="hd-icon-bitcoin-icons-copy-filled" viewBox="0 0 24 24"><rect width="10" height="14" x="6" y="6" fill="currentColor" rx="1.5"/><path fill="currentColor" d="M8.064 5.064A1.5 1.5 0 0 1 8.5 5h7A1.5 1.5 0 0 1 17 6.5v11a1.5 1.5 0 0 1-.064.436A1.5 1.5 0 0 0 18 16.5v-11A1.5 1.5 0 0 0 16.5 4h-7a1.5 1.5 0 0 0-1.436 1.064"/></symbol><symbol id="hd-icon-bitcoin-icons-copy-outline" viewBox="0 0 24 24"><g fill="none" stroke="currentColor"><rect width="9" height="13" x="6.5" y="6.5" rx="1.5"/><path d="M8.5 6A1.5 1.5 0 0 1 10 4.5h6A1.5 1.5 0 0 1 17.5 6v10a1.5 1.5 0 0 1-1.5 1.5"/></g></symbol><symbol id="hd-icon-bitcoin-icons-credit-card-filled" viewBox="0 0 24 24"><path fill="currentColor" d="M4 7.5A1.5 1.5 0 0 1 5.5 6h13A1.5 1.5 0 0 1 20 7.5V9H4z"/><path fill="currentColor" fill-rule="evenodd" d="M4 10h16v6.5a1.5 1.5 0 0 1-1.5 1.5h-13A1.5 1.5 0 0 1 4 16.5zm3 3a.5.5 0 0 1 .5-.5h4a.5.5 0 0 1 0 1h-4A.5.5 0 0 1 7 13m.5 1.5a.5.5 0 0 0 0 1h3a.5.5 0 0 0 0-1z" clip-rule="evenodd"/></symbol><symbol id="hd-icon-bitcoin-icons-credit-card-outline" viewBox="0 0 24 24"><g fill="none" stroke="currentColor"><rect width="15" height="11" x="4.5" y="6.5" rx="1.5"/><path d="M19.5 9.5h-15"/><path stroke-linecap="round" d="M11.5 12.5h-4m3 2h-3"/></g></symbol><symbol id="hd-icon-bitcoin-icons-cross-filled" viewBox="0 0 24 24"><g fill="currentColor" fill-rule="evenodd" clip-rule="evenodd"><path d="M5.47 5.47a.75.75 0 0 1 1.06 0l12 12a.75.75 0 1 1-1.06 1.06l-12-12a.75.75 0 0 1 0-1.06"/><path d="M18.53 5.47a.75.75 0 0 1 0 1.06l-12 12a.75.75 0 0 1-1.06-1.06l12-12a.75.75 0 0 1 1.06 0"/></g></symbol><symbol id="hd-icon-bitcoin-icons-cross-outline" viewBox="0 0 24 24"><path fill="none" stroke="currentColor" stroke-linecap="round" d="m6 6l12 12m0-12L6 18"/></symbol><symbol id="hd-icon-bitcoin-icons-devices-filled" viewBox="0 0 24 24"><path fill="currentColor" fill-rule="evenodd" d="M8.5 4A1.5 1.5 0 0 0 7 5.5v13A1.5 1.5 0 0 0 8.5 20h7a1.5 1.5 0 0 0 1.5-1.5v-13A1.5 1.5 0 0 0 15.5 4zm1.25 2a.75.75 0 0 0-.75.75v4.5c0 .414.336.75.75.75h4.5a.75.75 0 0 0 .75-.75v-4.5a.75.75 0 0 0-.75-.75zM9 14.25c0 .414.336.75.75.75h.5a.75.75 0 0 0 0-1.5h-.5a.75.75 0 0 0-.75.75m4.75.75a.75.75 0 0 1 0-1.5h.5a.75.75 0 0 1 0 1.5z" clip-rule="evenodd"/></symbol><symbol id="hd-icon-bitcoin-icons-devices-outline" viewBox="0 0 24 24"><g fill="none" stroke="currentColor"><rect width="9" height="15" x="7.5" y="4.5" rx="1.5"/><rect width="5" height="5" x="9.5" y="6.5" rx=".75"/><rect width="1.5" height="1" rx=".5" transform="matrix(1 0 0 -1 9.5 14.5)"/><rect width="1.5" height="1" rx=".5" transform="matrix(1 0 0 -1 13 14.5)"/></g></symbol><symbol id="hd-icon-bitcoin-icons-edit-filled" viewBox="0 0 24 24"><path fill="currentColor" d="M3.995 17.207V19.5a.5.5 0 0 0 .5.5h2.298a.5.5 0 0 0 .353-.146l9.448-9.448l-3-3l-9.452 9.448a.5.5 0 0 0-.147.353m10.837-11.04l3 3l1.46-1.46a1 1 0 0 0 0-1.414l-1.585-1.586a1 1 0 0 0-1.414 0z"/></symbol><symbol id="hd-icon-bitcoin-icons-edit-outline" viewBox="0 0 24 24"><path fill="none" stroke="currentColor" d="M4.5 17.207V19a.5.5 0 0 0 .5.5h1.793a.5.5 0 0 0 .353-.146l8.5-8.5l-2.5-2.5l-8.5 8.5a.5.5 0 0 0-.146.353ZM15.09 6.41l2.5 2.5l1.203-1.203a1 1 0 0 0 0-1.414l-1.086-1.086a1 1 0 0 0-1.414 0z"/></symbol><symbol id="hd-icon-bitcoin-icons-ellipsis-filled" viewBox="0 0 24 24"><circle cx="6.5" cy="12" r="1.5" fill="currentColor"/><circle cx="12" cy="12" r="1.5" fill="currentColor"/><circle cx="17.5" cy="12" r="1.5" fill="currentColor"/></symbol><symbol id="hd-icon-bitcoin-icons-ellipsis-outline" viewBox="0 0 24 24"><g fill="none" stroke="currentColor"><circle cx="7" cy="12" r="1"/><circle cx="12.5" cy="12" r="1"/><circle cx="18" cy="12" r="1"/></g></symbol><symbol id="hd-icon-bitcoin-icons-exchange-filled" viewBox="0 0 24 24"><path fill="currentColor" d="M19.013 10.15a.55.55 0 0 0-.145.493Q19 11.303 19 12a7 7 0 0 1-12.167 4.722a.53.53 0 0 0-.76-.032a.475.475 0 0 0-.027.654a8 8 0 0 0 13.788-6.971c-.079-.383-.545-.498-.821-.222m-1.224-2.99a.475.475 0 0 0 .018-.664A8 8 0 0 0 4.192 13.75c.084.378.546.489.82.215c.13-.13.18-.32.142-.5A7 7 0 0 1 17.038 7.14a.53.53 0 0 0 .75.021"/><path fill="currentColor" fill-rule="evenodd" d="M18.125 5a.5.5 0 0 1 .5.5v2a.5.5 0 0 1-.5.5h-2a.5.5 0 1 1 0-1h1.5V5.5a.5.5 0 0 1 .5-.5M5.521 16.147A.5.5 0 0 1 5.875 16h2a.5.5 0 0 1 0 1h-1.5v1.5a.5.5 0 1 1-1 0v-2a.5.5 0 0 1 .146-.354" clip-rule="evenodd"/><path fill="currentColor" d="M12.224 12.334v1.941c.662-.074 1.138-.457 1.138-1.006c0-.558-.525-.766-1.116-.93zm-1.433-1.679c0 .555.57.785.985.902V9.741c-.602.08-.985.44-.985.914"/><path fill="currentColor" fill-rule="evenodd" d="M12 17a5 5 0 1 0 0-10a5 5 0 0 0 0 10m.224-1.5h-.448v-.61c-1.075-.07-1.731-.672-1.794-1.534h.7c.05.563.52.859 1.094.919v-2.07l-.219-.063c-.875-.251-1.422-.7-1.422-1.454c0-.86.703-1.455 1.64-1.55V8.5h.45v.629c.99.066 1.69.673 1.716 1.471h-.656c-.06-.498-.481-.81-1.06-.867v1.944l.218.06c.58.154 1.575.493 1.575 1.543c0 .853-.645 1.531-1.794 1.61z" clip-rule="evenodd"/></symbol><symbol id="hd-icon-bitcoin-icons-exchange-outline" viewBox="0 0 24 24"><g fill="none" stroke="currentColor" stroke-linecap="round"><path d="M17.757 7.193a7.5 7.5 0 0 0-13.108 6.303M19.3 10.274a7.5 7.5 0 0 1-13.186 6.375"/><path stroke-linejoin="round" d="M18.125 5.5v2h-2m-8.25 9h-2v2"/><path d="M12 8v8"/><path stroke-linejoin="round" d="M13.81 10.152c-.12-.53-.803-1.12-1.804-1.12s-1.77.65-1.77 1.47c0 1.864 3.711.906 3.711 3.07c0 .781-.94 1.444-1.94 1.444s-1.694-.615-1.899-1.274"/></g></symbol><symbol id="hd-icon-bitcoin-icons-exit-filled" viewBox="0 0 24 24"><g fill="currentColor" fill-rule="evenodd" clip-rule="evenodd"><path d="M15.99 7.823a.75.75 0 0 1 1.061.021l3.49 3.637a.75.75 0 0 1 0 1.038l-3.49 3.637a.75.75 0 0 1-1.082-1.039l2.271-2.367h-6.967a.75.75 0 0 1 0-1.5h6.968l-2.272-2.367a.75.75 0 0 1 .022-1.06"/><path d="M3.25 4A.75.75 0 0 1 4 3.25h9.455a.75.75 0 0 1 .75.75v3a.75.75 0 1 1-1.5 0V4.75H4.75v14.5h7.954V17a.75.75 0 0 1 1.5 0v3a.75.75 0 0 1-.75.75H4a.75.75 0 0 1-.75-.75z"/></g></symbol><symbol id="hd-icon-bitcoin-icons-exit-outline" viewBox="0 0 24 24"><path fill="none" stroke="currentColor" stroke-linecap="round" stroke-linejoin="round" d="M19.285 12h-8.012m5.237 3.636L20 12l-3.49-3.636M13.455 7V4H4v16h9.455v-3"/></symbol><symbol id="hd-icon-bitcoin-icons-export-filled" viewBox="0 0 24 24"><path fill="currentColor" d="M11.37 10.384a1.5 1.5 0 0 0 0 2.121l.067.067a1.5 1.5 0 0 0 2.122 0l3.115-3.115c.144-.144.253-.31.326-.488V17a2 2 0 0 1-2 2H7a2 2 0 0 1-2-2V9a2 2 0 0 1 2-2h7.851a1.5 1.5 0 0 0-.366.269z"/><path fill="currentColor" fill-rule="evenodd" d="M19.218 4.782a.5.5 0 0 1 0 .708l-6.364 6.364a.5.5 0 0 1-.708-.707l6.364-6.365a.5.5 0 0 1 .707 0" clip-rule="evenodd"/><path fill="currentColor" fill-rule="evenodd" d="M14 4.5a.5.5 0 0 1 .5-.5h5a.5.5 0 0 1 .5.5v5a.5.5 0 0 1-1 0V5h-4.5a.5.5 0 0 1-.5-.5" clip-rule="evenodd"/></symbol><symbol id="hd-icon-bitcoin-icons-export-outline" viewBox="0 0 24 24"><g fill="none" stroke="currentColor" stroke-linecap="round"><path d="M12 7.5H7A1.5 1.5 0 0 0 5.5 9v8A1.5 1.5 0 0 0 7 18.5h8a1.5 1.5 0 0 0 1.5-1.5v-5"/><path stroke-linejoin="round" d="m12.5 11.5l6.364-6.364M14.5 4.5h5v5"/></g></symbol><symbol id="hd-icon-bitcoin-icons-file-filled" viewBox="0 0 24 24"><path fill="currentColor" fill-rule="evenodd" d="M13 4H7.5A1.5 1.5 0 0 0 6 5.5v13A1.5 1.5 0 0 0 7.5 20h9a1.5 1.5 0 0 0 1.5-1.5V9h-.004zm-1 1.604V9.75c0 .138.112.25.25.25h4.147a.25.25 0 0 0 .176-.427l-4.146-4.146a.25.25 0 0 0-.427.177" clip-rule="evenodd"/></symbol><symbol id="hd-icon-bitcoin-icons-file-outline" viewBox="0 0 24 24"><g fill="none" stroke="currentColor"><path d="M6.5 6A1.5 1.5 0 0 1 8 4.5h5.5l4 4V18a1.5 1.5 0 0 1-1.5 1.5H8A1.5 1.5 0 0 1 6.5 18z"/><path stroke-linejoin="round" d="M13 4.5V9h4.5"/></g></symbol><symbol id="hd-icon-bitcoin-icons-flip-horizontal-filled" viewBox="0 0 24 24"><path fill="currentColor" fill-rule="evenodd" d="M15.079 3.462a.75.75 0 0 1 1.06.016l3.399 3.5a.75.75 0 0 1 0 1.045l-3.398 3.5a.75.75 0 1 1-1.077-1.045l2.163-2.228H5a.75.75 0 1 1 0-1.5h12.226l-2.163-2.227a.75.75 0 0 1 .016-1.06m-6.158 9a.75.75 0 0 1 .015 1.06L6.773 15.75H19a.75.75 0 0 1 0 1.5H6.774l2.162 2.227a.75.75 0 0 1-1.076 1.045l-3.398-3.5a.75.75 0 0 1 0-1.045l3.398-3.5a.75.75 0 0 1 1.06-.015" clip-rule="evenodd"/></symbol><symbol id="hd-icon-bitcoin-icons-flip-horizontal-outline" viewBox="0 0 24 24"><path fill="none" stroke="currentColor" stroke-linecap="round" stroke-linejoin="round" d="M6 16.5h13M8.398 20L5 16.5L8.398 13M18 7.5H5M15.602 11L19 7.5L15.6 4"/></symbol><symbol id="hd-icon-bitcoin-icons-flip-vertical-filled" viewBox="0 0 24 24"><path fill="currentColor" fill-rule="evenodd" d="M7.5 4.25a.75.75 0 0 1 .75.75v12.227l2.227-2.163a.75.75 0 1 1 1.045 1.076l-3.5 3.398a.75.75 0 0 1-1.045 0l-3.5-3.398a.75.75 0 1 1 1.045-1.076l2.228 2.162V5a.75.75 0 0 1 .75-.75m8.477.212a.75.75 0 0 1 1.045 0l3.5 3.398a.75.75 0 0 1-1.045 1.076L17.25 6.774V19a.75.75 0 0 1-1.5 0V6.774l-2.228 2.162a.75.75 0 0 1-1.045-1.076z" clip-rule="evenodd"/></symbol><symbol id="hd-icon-bitcoin-icons-flip-vertical-outline" viewBox="0 0 24 24"><path fill="none" stroke="currentColor" stroke-linecap="round" stroke-linejoin="round" d="M7.5 18V5M4 15.602L7.5 19l3.5-3.398M16.5 6v13M13 8.398L16.5 5L20 8.398"/></symbol><symbol id="hd-icon-bitcoin-icons-gear-filled" viewBox="0 0 24 24"><path fill="currentColor" fill-rule="evenodd" d="m17.653 10.35l2.056.336a.35.35 0 0 1 .291.343v1.913a.35.35 0 0 1-.288.342l-2.058.362a5.8 5.8 0 0 1-.49 1.185l1.217 1.69a.35.35 0 0 1-.036.45l-1.353 1.352a.35.35 0 0 1-.445.04l-1.707-1.198q-.566.315-1.193.5l-.363 2.048a.35.35 0 0 1-.343.287h-1.913a.35.35 0 0 1-.343-.29l-.34-2.039a6 6 0 0 1-1.197-.495l-1.694 1.186a.35.35 0 0 1-.446-.038L5.655 16.97a.35.35 0 0 1-.036-.448l1.197-1.674a6 6 0 0 1-.5-1.204l-2.029-.36A.35.35 0 0 1 4 12.942v-1.913c0-.17.123-.315.29-.343l2.03-.338q.183-.63.5-1.203L5.636 7.453a.35.35 0 0 1 .039-.445l1.352-1.352c.12-.12.31-.136.448-.037l1.68 1.2a6 6 0 0 1 1.196-.491l.333-2.036A.35.35 0 0 1 11.028 4h1.913c.17 0 .314.122.343.288l.359 2.047q.624.182 1.193.497l1.685-1.211a.35.35 0 0 1 .45.036l1.352 1.352c.12.12.136.308.039.446l-1.2 1.71q.31.565.49 1.185M9.565 12a2.435 2.435 0 1 0 4.87 0a2.435 2.435 0 0 0-4.87 0" clip-rule="evenodd"/></symbol><symbol id="hd-icon-bitcoin-icons-gear-outline" viewBox="0 0 24 24"><path fill="none" stroke="currentColor" d="m17.3 10.453l1.927.315a.326.326 0 0 1 .273.322v1.793a.326.326 0 0 1-.27.321l-1.93.339q-.167.582-.459 1.111l1.141 1.584a.326.326 0 0 1-.034.422l-1.268 1.268a.326.326 0 0 1-.418.037l-1.6-1.123a5.5 5.5 0 0 1-1.118.468l-.34 1.921a.326.326 0 0 1-.322.269H11.09a.325.325 0 0 1-.321-.272l-.319-1.911a5.5 5.5 0 0 1-1.123-.465l-1.588 1.113a.326.326 0 0 1-.418-.037L6.052 16.66a.33.33 0 0 1-.035-.42l1.123-1.57a5.5 5.5 0 0 1-.47-1.129l-1.901-.337a.326.326 0 0 1-.269-.321V11.09c0-.16.115-.296.273-.322l1.901-.317q.173-.59.47-1.128l-1.11-1.586a.326.326 0 0 1 .037-.417L7.34 6.053a.326.326 0 0 1 .42-.035l1.575 1.125q.533-.292 1.121-.46l.312-1.91a.326.326 0 0 1 .322-.273h1.793c.159 0 .294.114.322.27l.336 1.92q.585.169 1.12.465l1.578-1.135a.326.326 0 0 1 .422.033l1.268 1.268a.326.326 0 0 1 .036.418L16.84 9.342q.29.53.46 1.11ZM9.716 12a2.283 2.283 0 1 0 4.566 0a2.283 2.283 0 0 0-4.566 0Z" clip-rule="evenodd"/></symbol><symbol id="hd-icon-bitcoin-icons-globe-filled" viewBox="0 0 24 24"><g fill="currentColor" fill-rule="evenodd" clip-rule="evenodd"><path d="M10.51 6.617c-.518 1.341-.855 3.245-.855 5.385s.337 4.044.856 5.385c.26.673.552 1.166.838 1.478s.506.385.651.385s.366-.073.652-.385c.285-.312.577-.805.837-1.478c.52-1.341.856-3.245.856-5.385s-.337-4.044-.856-5.385c-.26-.673-.552-1.166-.838-1.478s-.506-.385-.651-.385s-.366.073-.651.385s-.578.805-.838 1.478m-.268-2.49c.455-.499 1.048-.873 1.758-.873s1.303.374 1.758.872c.455.497.83 1.175 1.13 1.95c.601 1.553.957 3.649.957 5.926s-.356 4.373-.957 5.926c-.3.774-.675 1.453-1.13 1.95s-1.048.872-1.758.872s-1.303-.375-1.758-.872s-.83-1.175-1.13-1.95c-.601-1.553-.957-3.649-.957-5.926s.356-4.373.957-5.926c.3-.775.675-1.453 1.13-1.95"/><path d="M12 4.746a7.25 7.25 0 1 0 0 14.5a7.25 7.25 0 0 0 0-14.5m-8.75 7.25a8.75 8.75 0 1 1 17.5 0a8.75 8.75 0 0 1-17.5 0"/><path d="M3.25 11.99a.75.75 0 0 1 .75-.75l16 .012a.75.75 0 1 1 0 1.5l-16-.011a.75.75 0 0 1-.75-.75"/></g></symbol><symbol id="hd-icon-bitcoin-icons-globe-outline" viewBox="0 0 24 24"><g fill="none" stroke="currentColor"><ellipse cx="12" cy="12.006" rx="3.095" ry="7.998"/><circle cx="12" cy="12" r="8"/><path stroke-linecap="round" stroke-linejoin="round" d="m4 11.995l16 .01"/></g></symbol><symbol id="hd-icon-bitcoin-icons-graph-filled" viewBox="0 0 24 24"><path fill="currentColor" fill-rule="evenodd" d="M5.5 18a.5.5 0 0 1 .5-.5h12a.5.5 0 0 1 0 1H6a.5.5 0 0 1-.5-.5" clip-rule="evenodd"/><rect width="3" height="7" x="6.5" y="11.5" fill="currentColor" rx=".5"/><rect width="3" height="13" x="10.5" y="5.5" fill="currentColor" rx=".5"/><rect width="3" height="10" x="14.5" y="8.5" fill="currentColor" rx=".5"/></symbol><symbol id="hd-icon-bitcoin-icons-graph-outline" viewBox="0 0 24 24"><defs><path id="hd-icon-bitcoin-icons-graph-outline-680" d="M18 18H6"/><path id="hd-icon-bitcoin-icons-graph-outline-681" d="M7 12h2v6H7zm4-6h2v12h-2zm4 3h2v9h-2z"/></defs><g fill="none" stroke="currentColor"><use href="#hd-icon-bitcoin-icons-graph-outline-680" stroke-linecap="round"/><use href="#hd-icon-bitcoin-icons-graph-outline-681" stroke-linejoin="round"/><use href="#hd-icon-bitcoin-icons-graph-outline-680" stroke-linecap="round"/><use href="#hd-icon-bitcoin-icons-graph-outline-681" stroke-linejoin="round"/></g></symbol><symbol id="hd-icon-bitcoin-icons-grid-filled" viewBox="0 0 24 24"><path fill="currentColor" d="M5 10.2V5.8a.8.8 0 0 1 .8-.8h4.4a.8.8 0 0 1 .8.8v4.4a.8.8 0 0 1-.8.8H5.8a.8.8 0 0 1-.8-.8m8 0V5.8a.8.8 0 0 1 .8-.8h4.4a.8.8 0 0 1 .8.8v4.4a.8.8 0 0 1-.8.8h-4.4a.8.8 0 0 1-.8-.8m0 8v-4.4a.8.8 0 0 1 .8-.8h4.4a.8.8 0 0 1 .8.8v4.4a.8.8 0 0 1-.8.8h-4.4a.8.8 0 0 1-.8-.8m-8 0v-4.4a.8.8 0 0 1 .8-.8h4.4a.8.8 0 0 1 .8.8v4.4a.8.8 0 0 1-.8.8H5.8a.8.8 0 0 1-.8-.8"/></symbol><symbol id="hd-icon-bitcoin-icons-grid-outline" viewBox="0 0 24 24"><path fill="none" stroke="currentColor" stroke-linecap="round" stroke-linejoin="round" d="M5.5 9.5v-3a1 1 0 0 1 1-1h3a1 1 0 0 1 1 1v3a1 1 0 0 1-1 1h-3a1 1 0 0 1-1-1m8 0v-3a1 1 0 0 1 1-1h3a1 1 0 0 1 1 1v3a1 1 0 0 1-1 1h-3a1 1 0 0 1-1-1m0 8v-3a1 1 0 0 1 1-1h3a1 1 0 0 1 1 1v3a1 1 0 0 1-1 1h-3a1 1 0 0 1-1-1m-8 0v-3a1 1 0 0 1 1-1h3a1 1 0 0 1 1 1v3a1 1 0 0 1-1 1h-3a1 1 0 0 1-1-1"/></symbol><symbol id="hd-icon-bitcoin-icons-hidden-filled" viewBox="0 0 24 24"><path fill="currentColor" d="M14.33 7.17A16 16 0 0 0 12 7c-4.97 0-9 2.239-9 5c0 1.44 1.096 2.738 2.85 3.65l2.362-2.362a4 4 0 0 1 5.076-5.076zm-3.1 8.756q.375.074.77.074a4 4 0 0 0 3.926-4.77l2.647-2.646C20.078 9.478 21 10.68 21 12c0 2.761-4.03 5-9 5q-.899 0-1.749-.094zm6.563-10.719a1 1 0 1 1 1.414 1.414L6.48 19.35a1 1 0 1 1-1.414-1.414z"/></symbol><symbol id="hd-icon-bitcoin-icons-hidden-outline" viewBox="0 0 24 24"><g fill="none" stroke="currentColor" stroke-linecap="round"><path d="M10.563 16.436q.701.064 1.437.064c4.694 0 8.5-2.015 8.5-4.5c0-1.213-.906-2.313-2.379-3.122m-4.685-1.314A16 16 0 0 0 12 7.5c-4.694 0-8.5 2.015-8.5 4.5c0 1.212.905 2.312 2.376 3.121"/><path stroke-linejoin="round" d="M19 5L5 19"/></g></symbol><symbol id="hd-icon-bitcoin-icons-home-filled" viewBox="0 0 24 24"><path fill="currentColor" d="M12.827 3.834a1.5 1.5 0 0 0-2.26.054L5 10.58v8.92A1.5 1.5 0 0 0 6.5 21h1.79a1.5 1.5 0 0 0 1.5-1.5v-3.011a1.5 1.5 0 0 1 1.5-1.5h1.42a1.5 1.5 0 0 1 1.5 1.5V19.5a1.5 1.5 0 0 0 1.5 1.5h1.79a1.5 1.5 0 0 0 1.5-1.5v-8.92z"/></symbol><symbol id="hd-icon-bitcoin-icons-home-outline" viewBox="0 0 24 24"><path fill="none" stroke="currentColor" d="M12.391 4.262a1 1 0 0 0-1.46.035l-6.177 6.919a1 1 0 0 0-.254.666V19.5a1 1 0 0 0 1 1h3a1 1 0 0 0 1-1V16a1 1 0 0 1 1-1h3a1 1 0 0 1 1 1v3.5a1 1 0 0 0 1 1h3a1 1 0 0 0 1-1v-7.591a1 1 0 0 0-.287-.7z"/></symbol><symbol id="hd-icon-bitcoin-icons-info-circle-filled" viewBox="0 0 24 24"><path fill="currentColor" fill-rule="evenodd" d="M21 12a9 9 0 1 1-18 0a9 9 0 0 1 18 0m-7.75-4.25a1.25 1.25 0 1 1-2.5 0a1.25 1.25 0 0 1 2.5 0M13 17.5v-7h-2v7z" clip-rule="evenodd"/></symbol><symbol id="hd-icon-bitcoin-icons-info-circle-outline" viewBox="0 0 24 24"><g fill="none" stroke="currentColor"><circle cx="12" cy="12" r="8.5"/><path stroke-linecap="round" d="M12 10.5v7M12 8V7"/></g></symbol><symbol id="hd-icon-bitcoin-icons-info-filled" viewBox="0 0 24 24"><circle cx="12" cy="7.25" r="1.25" fill="currentColor"/><path fill="currentColor" d="M11 10h2v8h-2z"/></symbol><symbol id="hd-icon-bitcoin-icons-info-outline" viewBox="0 0 24 24"><path fill="none" stroke="currentColor" stroke-linecap="round" d="M12 10.5v7M12 8V7"/></symbol><symbol id="hd-icon-bitcoin-icons-invoice-filled" viewBox="0 0 24 24"><path fill="currentColor" fill-rule="evenodd" d="M7.5 4A1.5 1.5 0 0 0 6 5.5v13A1.5 1.5 0 0 0 7.5 20h9a1.5 1.5 0 0 0 1.5-1.5v-13A1.5 1.5 0 0 0 16.5 4zm6.854 4.354a.5.5 0 0 0-.708-.708l-4 4a.5.5 0 0 0 .708.708zM11.5 8.5a1 1 0 1 1-2 0a1 1 0 0 1 2 0m2 4a1 1 0 1 0 0-2a1 1 0 0 0 0 2m-5 2.5a.5.5 0 0 1 .5-.5h6a.5.5 0 0 1 0 1H9a.5.5 0 0 1-.5-.5m.5 1.5a.5.5 0 0 0 0 1h6a.5.5 0 0 0 0-1z" clip-rule="evenodd"/></symbol><symbol id="hd-icon-bitcoin-icons-invoice-outline" viewBox="0 0 24 24"><g fill="none" stroke="currentColor"><rect width="11" height="15" x="6.5" y="4.5" rx="1.5"/><path stroke-linecap="round" d="m10 12l4-4"/><circle cx="10.5" cy="8.5" r=".5"/><circle cx="13.5" cy="11.5" r=".5"/><path stroke-linecap="round" d="M9 15h6m-6 2h6"/></g></symbol><symbol id="hd-icon-bitcoin-icons-key-filled" viewBox="0 0 24 24"><path fill="currentColor" fill-rule="evenodd" d="M18.865 7.374c.74 2.968-1.163 5.998-4.25 6.767a6 6 0 0 1-1.155.172l-3.435 5.471a2 2 0 0 1-1.21.877l-1.974.492a1 1 0 0 1-1.212-.728l-.445-1.786a2 2 0 0 1 .246-1.547l3.157-5.028a5.3 5.3 0 0 1-.9-1.903c-.74-2.968 1.162-5.998 4.249-6.768s6.189 1.013 6.929 3.98m-4.627 1.324c.685-.171 1.108-.844.944-1.504s-.854-1.055-1.54-.884s-1.109.844-.944 1.503c.164.66.854 1.056 1.54.885" clip-rule="evenodd"/></symbol><symbol id="hd-icon-bitcoin-icons-key-outline" viewBox="0 0 24 24"><path fill="none" stroke="currentColor" d="M18.865 7.374c.74 2.968-1.163 5.998-4.25 6.767a6 6 0 0 1-1.155.172l-3.435 5.471a2 2 0 0 1-1.21.877l-1.974.492a1 1 0 0 1-1.212-.728l-.445-1.786a2 2 0 0 1 .246-1.547l3.157-5.028a5.3 5.3 0 0 1-.9-1.903c-.74-2.968 1.162-5.998 4.249-6.768s6.189 1.013 6.929 3.98Zm-5.157 2.991a2 2 0 1 0-.967-3.881a2 2 0 0 0 .967 3.881Z" clip-rule="evenodd"/></symbol><symbol id="hd-icon-bitcoin-icons-lightning-circle-filled" viewBox="0 0 24 24"><path fill="currentColor" fill-rule="evenodd" d="M12 21a9 9 0 1 0 0-18a9 9 0 0 0 0 18m-1.58-3.89l6.215-5.966a.2.2 0 0 0-.14-.344l-4.519.052a.2.2 0 0 1-.184-.283l1.654-3.64c.09-.2-.16-.378-.32-.227l-5.76 5.448a.2.2 0 0 0 .137.345h4.641a.2.2 0 0 1 .176.295l-2.215 4.08c-.11.2.15.397.314.24" clip-rule="evenodd"/></symbol><symbol id="hd-icon-bitcoin-icons-lightning-circle-outline" viewBox="0 0 24 24"><g fill="none" stroke="currentColor"><circle cx="12" cy="12" r="8.5"/><path d="m16.778 10.965l-6.286 6.083c-.208.2-.534-.051-.392-.302l2.295-4.06a.125.125 0 0 0-.11-.186H7.31a.125.125 0 0 1-.087-.215l5.728-5.524c.203-.195.523.04.397.292l-1.758 3.516a.125.125 0 0 0 .112.181h4.99c.111 0 .167.137.086.215Z"/></g></symbol><symbol id="hd-icon-bitcoin-icons-lightning-filled" viewBox="0 0 24 24"><path fill="currentColor" d="m18.496 10.709l-8.636 8.88c-.24.246-.638-.039-.482-.345l3.074-6.066a.3.3 0 0 0-.268-.436H5.718a.3.3 0 0 1-.214-.51l8.01-8.115c.232-.235.618.023.489.328L11.706 9.86a.3.3 0 0 0 .28.417l6.291-.078a.3.3 0 0 1 .22.509"/></symbol><symbol id="hd-icon-bitcoin-icons-lightning-outline" viewBox="0 0 24 24"><path fill="none" stroke="currentColor" d="m18.496 10.709l-8.636 8.88c-.24.246-.638-.039-.482-.345l3.074-6.066a.3.3 0 0 0-.268-.436H5.718a.3.3 0 0 1-.214-.51l8.01-8.115c.232-.235.618.023.489.328L11.706 9.86a.3.3 0 0 0 .28.417l6.291-.078a.3.3 0 0 1 .22.509Z"/></symbol><symbol id="hd-icon-bitcoin-icons-link-filled" viewBox="0 0 24 24"><path fill="currentColor" d="m7.05 11.293l-2.12 2.121a4 4 0 0 0 5.657 5.657l2.828-2.828a4 4 0 0 0 0-5.657l-1.06 1.06a2.5 2.5 0 0 1 0 3.536l-2.83 2.828a2.5 2.5 0 0 1-3.535-3.535l2.12-2.121z"/><path fill="currentColor" d="m15.889 11.646l2.121-2.12a2.5 2.5 0 0 0-3.535-3.536l-2.829 2.828a2.5 2.5 0 0 0 0 3.536l-1.06 1.06a4 4 0 0 1 0-5.657l2.828-2.828a4 4 0 0 1 5.657 5.657l-2.121 2.121z"/></symbol><symbol id="hd-icon-bitcoin-icons-link-outline" viewBox="0 0 24 24"><path fill="none" stroke="currentColor" stroke-linecap="round" stroke-linejoin="round" d="M5.576 13.481a3.5 3.5 0 0 0 4.95 4.95m2.473-7.423a3.5 3.5 0 0 1 0 4.95l-2.475 2.475m-2.475-7.425l-2.475 2.475m12.857-2.957a3.5 3.5 0 1 0-4.95-4.95M11.01 13a3.5 3.5 0 0 1 0-4.95l2.474-2.475M15.958 13l2.475-2.475"/></symbol><symbol id="hd-icon-bitcoin-icons-linux-terminal-filled" viewBox="0 0 24 24"><g fill="currentColor" fill-rule="evenodd" clip-rule="evenodd"><path d="M9.25 19a.75.75 0 0 1 .75-.75h10.25a.75.75 0 0 1 0 1.5H10a.75.75 0 0 1-.75-.75m-2.645-2.5a.75.75 0 0 1 .75.75V19a.75.75 0 0 1-1.5 0v-1.75a.75.75 0 0 1 .75-.75m0-12a.75.75 0 0 1 .75.75V7a.75.75 0 1 1-1.5 0V5.25a.75.75 0 0 1 .75-.75"/><path d="M2.965 9.51c0-1.907 1.753-3.208 3.707-3.208c1.925 0 3.449 1.143 3.746 2.456a.75.75 0 1 1-1.464.33c-.103-.457-.865-1.286-2.282-1.286c-1.39 0-2.207.87-2.207 1.707c0 .257.06.428.145.558c.09.138.233.272.456.404c.45.267 1.061.44 1.816.654l.138.04c.755.215 1.655.48 2.356.97c.76.532 1.289 1.33 1.289 2.503c0 .968-.578 1.772-1.302 2.302a4.62 4.62 0 0 1-2.691.862c-1.995 0-3.446-1.237-3.888-2.655a.75.75 0 1 1 1.432-.447c.244.782 1.107 1.602 2.456 1.602c.678 0 1.333-.227 1.805-.573c.48-.35.688-.753.688-1.091c0-.634-.247-.992-.65-1.274c-.46-.323-1.111-.53-1.906-.757l-.19-.053c-.691-.196-1.49-.421-2.118-.793a2.8 2.8 0 0 1-.95-.877a2.5 2.5 0 0 1-.386-1.375"/></g></symbol><symbol id="hd-icon-bitcoin-icons-linux-terminal-outline" viewBox="0 0 24 24"><g fill="none" stroke="currentColor" stroke-linecap="round"><path stroke-linejoin="round" d="M10 19h10.5"/><path d="M6.605 17.25V19m0-13.75V7"/><path stroke-linejoin="round" d="M9.686 8.923c-.2-.885-1.343-1.871-3.015-1.871c-1.671 0-2.957 1.086-2.957 2.457c0 3.114 6.2 1.514 6.2 5.129c0 1.306-1.571 2.414-3.243 2.414c-1.67 0-2.828-1.029-3.171-2.129"/></g></symbol><symbol id="hd-icon-bitcoin-icons-lock-filled" viewBox="0 0 24 24"><rect width="14" height="10" x="5" y="11" fill="currentColor" rx="2"/><path fill="currentColor" fill-rule="evenodd" d="M9.5 6.75a.25.25 0 0 0-.25.25v5h-1.5V7c0-.966.784-1.75 1.75-1.75h5c.966 0 1.75.784 1.75 1.75v5h-1.5V7a.25.25 0 0 0-.25-.25z" clip-rule="evenodd"/></symbol><symbol id="hd-icon-bitcoin-icons-lock-outline" viewBox="0 0 24 24"><g fill="none" stroke="currentColor"><rect width="14" height="10" x="5" y="10.968" rx="2"/><path d="M15.486 10.984V7.243a1.5 1.5 0 0 0-1.5-1.5h-3.972a1.5 1.5 0 0 0-1.5 1.5v3.74"/></g></symbol><symbol id="hd-icon-bitcoin-icons-magic-wand-filled" viewBox="0 0 24 24"><path fill="currentColor" fill-rule="evenodd" d="m7.999 20l7-7.003a2.822 2.822 0 0 0-3.99-3.993l-7.007 6.997a2.827 2.827 0 1 0 3.997 4M11 11l2 2l1-1a1.414 1.414 0 1 0-2-2z" clip-rule="evenodd"/><path fill="currentColor" d="M6.759 4.897c.066-.247.416-.247.482 0L7.6 6.225a.25.25 0 0 0 .176.176l1.328.358c.247.066.247.416 0 .482L7.775 7.6a.25.25 0 0 0-.176.176L7.24 9.103c-.066.247-.416.247-.482 0L6.4 7.775a.25.25 0 0 0-.176-.176l-1.329-.358c-.246-.066-.246-.416 0-.482l1.33-.359a.25.25 0 0 0 .176-.176zm10-1c.066-.247.416-.247.482 0l.358 1.328a.25.25 0 0 0 .176.176l1.328.358c.247.066.247.416 0 .482l-1.328.358a.25.25 0 0 0-.176.176l-.358 1.328c-.066.247-.416.247-.482 0L16.4 6.775a.25.25 0 0 0-.177-.176l-1.328-.358c-.246-.066-.246-.416 0-.482l1.328-.358a.25.25 0 0 0 .177-.176zm1 9c.066-.247.416-.247.482 0l.358 1.328a.25.25 0 0 0 .176.176l1.328.358c.247.066.247.416 0 .482l-1.328.358a.25.25 0 0 0-.176.176l-.358 1.328c-.066.247-.416.247-.482 0l-.358-1.328a.25.25 0 0 0-.177-.176l-1.328-.358c-.246-.066-.246-.416 0-.482l1.328-.358a.25.25 0 0 0 .177-.176z"/></symbol><symbol id="hd-icon-bitcoin-icons-magic-wand-outline" viewBox="0 0 24 24"><g fill="none" stroke="currentColor"><path d="m14.75 12.746l-7 7.004a2.475 2.475 0 1 1-3.5-3.5l7.002-7.002a2.474 2.474 0 0 1 3.499 3.498Zm-4.717-2.23l3.451 3.45"/><path stroke-linecap="round" stroke-linejoin="round" d="M18 13.25v3.5M19.75 15h-3.5M17 4.25v3.5M18.75 6h-3.5M7 5.25v3.5M8.75 7h-3.5"/></g></symbol><symbol id="hd-icon-bitcoin-icons-menu-filled" viewBox="0 0 24 24"><rect width="18" height="1.5" x="3" y="7.001" fill="currentColor" rx=".75"/><rect width="15" height="1.5" x="3" y="11.251" fill="currentColor" rx=".75"/><rect width="18" height="1.5" x="3" y="15.499" fill="currentColor" rx=".75"/></symbol><symbol id="hd-icon-bitcoin-icons-menu-outline" viewBox="0 0 24 24"><path fill="none" stroke="currentColor" stroke-linecap="round" d="M3.5 7.5h17M3.5 12h14m-14 4.5h17"/></symbol><symbol id="hd-icon-bitcoin-icons-message-filled" viewBox="0 0 24 24"><path fill="currentColor" fill-rule="evenodd" d="M8.5 18.896V16H6a1 1 0 0 1-1-1V7a1 1 0 0 1 1-1h12a1 1 0 0 1 1 1v8a1 1 0 0 1-1 1h-6l-3.073 3.073a.25.25 0 0 1-.427-.177M8 12.5a.5.5 0 0 1 .5-.5h7a.5.5 0 0 1 0 1h-7a.5.5 0 0 1-.5-.5M8.5 9a.5.5 0 0 0 0 1h7a.5.5 0 0 0 0-1z" clip-rule="evenodd"/></symbol><symbol id="hd-icon-bitcoin-icons-message-outline" viewBox="0 0 24 24"><g fill="none" stroke="currentColor"><path d="M8.5 18.396V15.5h-2a1 1 0 0 1-1-1v-7a1 1 0 0 1 1-1h11a1 1 0 0 1 1 1v7a1 1 0 0 1-1 1H12l-3.073 3.073a.25.25 0 0 1-.427-.177Z"/><path stroke-linecap="round" d="M8.5 12.5h7m-7-3h7"/></g></symbol><symbol id="hd-icon-bitcoin-icons-milk-filled" viewBox="0 0 24 24"><path fill="currentColor" d="M14.278 4.977a.95.95 0 0 0-.832-.477h-2.858a.96.96 0 0 0-.861.518c-.13.253-.296.589-.48.982h5.569a22 22 0 0 0-.538-1.023"/><path fill="currentColor" fill-rule="evenodd" d="M7.5 12c0-1.542.66-3.48 1.302-5h6.475c.616 1.43 1.223 3.275 1.223 5v7a2 2 0 0 1-2 2h-5a2 2 0 0 1-2-2zM9 12a.5.5 0 0 0-.5.5v6a.5.5 0 0 0 1 0v-6A.5.5 0 0 0 9 12" clip-rule="evenodd"/><rect width="7" height="3" x="8.5" y="3" fill="currentColor" rx="1"/></symbol><symbol id="hd-icon-bitcoin-icons-milk-outline" viewBox="0 0 24 24"><g fill="none" stroke="currentColor"><path d="M14.054 5.985a.94.94 0 0 0-.836-.485h-2.402a.96.96 0 0 0-.865.526c-.566 1.134-1.83 3.877-1.943 5.97a.004.004 0 0 1-.004.004a.004.004 0 0 0-.004.004V18.5a2 2 0 0 0 2 2h4a2 2 0 0 0 2-2v-6.497L15.997 12l-.003-.003c-.1-2.39-1.368-4.965-1.94-6.012Z"/><rect width="6" height="2" x="9" y="3.5" rx=".5"/><path stroke-linecap="round" d="M10 12.5V18"/></g></symbol><symbol id="hd-icon-bitcoin-icons-miner-filled" viewBox="0 0 24 24"><path fill="currentColor" d="M5.642 18.37a1.224 1.224 0 0 1 0-1.74A8.97 8.97 0 0 1 12 14a8.97 8.97 0 0 1 6.358 2.63a1.224 1.224 0 0 1 0 1.74A8.97 8.97 0 0 1 12 21a8.97 8.97 0 0 1-6.358-2.63"/><path fill="currentColor" fill-rule="evenodd" d="M8.5 7.5h7V8h.5c0 2.637-1.681 5-4 5s-4-2.363-4-5h.5zm.523 1C9.213 10.568 10.566 12 12 12s2.787-1.432 2.977-3.5z" clip-rule="evenodd"/><path fill="currentColor" fill-rule="evenodd" d="M12 3c2.485 0 4.5 2.239 4.5 5h-9c0-2.761 2.015-5 4.5-5m0 4.5a1.5 1.5 0 1 0 0-3a1.5 1.5 0 0 0 0 3m-5.5 1A.5.5 0 0 1 7 8h10a.5.5 0 1 1 0 1H7a.5.5 0 0 1-.5-.5" clip-rule="evenodd"/></symbol><symbol id="hd-icon-bitcoin-icons-miner-outline" viewBox="0 0 24 24"><g fill="none" stroke="currentColor"><path d="M6.413 18.406a1.197 1.197 0 0 1 0-1.812A8.47 8.47 0 0 1 12 14.5c2.139 0 4.093.79 5.587 2.094a1.197 1.197 0 0 1 0 1.812A8.47 8.47 0 0 1 12 20.5a8.47 8.47 0 0 1-5.587-2.094ZM8.521 8.5c.194 2.25 1.677 4 3.479 4s3.285-1.75 3.479-4z"/><path d="M16 8q0 .254-.024.5H8.024A5 5 0 0 1 8 8c0-2.485 1.79-4.5 4-4.5s4 2.015 4 4.5Zm-4-1a1 1 0 1 0 0-2a1 1 0 0 0 0 2Z" clip-rule="evenodd"/><path stroke-linecap="round" stroke-linejoin="round" d="M7 8.5h10"/></g></symbol><symbol id="hd-icon-bitcoin-icons-mining-device-filled" viewBox="0 0 24 24"><path fill="currentColor" d="M8.5 12c0-.786.26-1.512.697-2.096L11.293 12l-2.096 2.096A3.5 3.5 0 0 1 8.5 12m5.596-2.803A3.5 3.5 0 0 0 12 8.5c-.786 0-1.512.26-2.096.697L12 11.293zM12 12.707l2.096 2.096A3.5 3.5 0 0 1 12 15.5c-.786 0-1.512-.26-2.096-.697zm.707-.707l2.096-2.096c.438.584.697 1.31.697 2.096s-.26 1.512-.697 2.096z"/><path fill="currentColor" fill-rule="evenodd" d="M19 5H5v14h14zM8.484 14.809l-1.338 1.338a.5.5 0 1 0 .708.707l1.337-1.338A4.48 4.48 0 0 0 12 16.5a4.48 4.48 0 0 0 2.809-.984l1.337 1.338a.5.5 0 0 0 .708-.707l-1.338-1.338A4.48 4.48 0 0 0 16.5 12a4.48 4.48 0 0 0-.984-2.809l1.338-1.337a.5.5 0 0 0-.708-.708L14.81 8.484A4.48 4.48 0 0 0 12 7.5a4.48 4.48 0 0 0-2.809.984L7.854 7.146a.5.5 0 1 0-.708.708L8.484 9.19A4.48 4.48 0 0 0 7.5 12a4.48 4.48 0 0 0 .984 2.809" clip-rule="evenodd"/></symbol><symbol id="hd-icon-bitcoin-icons-mining-device-outline" viewBox="0 0 24 24"><g fill="none" stroke="currentColor"><path d="M5.5 5.5h13v13h-13z"/><circle cx="12" cy="12" r="4"/><path stroke-linecap="round" stroke-linejoin="round" d="m7.5 7.5l9 9m0-9l-9 9"/></g></symbol><symbol id="hd-icon-bitcoin-icons-mining-filled" viewBox="0 0 24 24"><path fill="currentColor" d="M12.101 2.9a.5.5 0 0 1 .378-.056l3.397.847a.5.5 0 0 1 .37.573c2.365 1.107 4.125 2.93 4.815 4.983a.5.5 0 0 1-.82.52c-1.21-1.16-2.794-2.171-4.642-2.902l-.025.1a.5.5 0 0 1-.606.364l-.485-.12l-.907 3.638a.5.5 0 0 1 .364.606l-2.298 9.218a.5.5 0 0 1-.606.364L8.61 20.43a.5.5 0 0 1-.364-.606l2.298-9.218a.5.5 0 0 1 .606-.364l.907-3.638l-.485-.121a.5.5 0 0 1-.364-.607l.025-.1c-1.974-.222-3.847-.073-5.46.383a.5.5 0 0 1-.48-.844c1.572-1.488 3.982-2.272 6.59-2.14a.5.5 0 0 1 .218-.274"/></symbol><symbol id="hd-icon-bitcoin-icons-mining-outline" viewBox="0 0 24 24"><g fill="none" stroke="currentColor" stroke-linecap="round" stroke-linejoin="round"><path d="M12.265 3.703c-2.536-.225-4.88.459-6.423 1.79c-.19.164-.02.443.226.385c1.717-.41 3.67-.494 5.704-.197zm2.903 2.824c1.935.693 3.62 1.685 4.944 2.853c.189.166.472 0 .38-.235c-.736-1.899-2.486-3.603-4.83-4.595zm-2.687-.591l1.94.484l-1.209 4.851l-1.94-.484zm-1.694 4.731l2.91.726L11.4 20.61l-2.911-.726z"/><path d="m12.358 3.329l3.396.847l-.665 2.668l-3.396-.847z"/></g></symbol><symbol id="hd-icon-bitcoin-icons-minus-filled" viewBox="0 0 24 24"><path fill="currentColor" fill-rule="evenodd" d="M4.85 11.25h14.302a.75.75 0 1 1 0 1.5H4.85a.75.75 0 0 1 0-1.5" clip-rule="evenodd"/></symbol><symbol id="hd-icon-bitcoin-icons-minus-outline" viewBox="0 0 24 24"><path fill="none" stroke="currentColor" stroke-linecap="round" d="M19.5 12h-15"/></symbol><symbol id="hd-icon-bitcoin-icons-mixed-filled" viewBox="0 0 24 24"><g fill="currentColor" fill-rule="evenodd" clip-rule="evenodd"><path d="M8.504 15.7c-1.172 1.09-2.594 1.873-4.513 1.85a.75.75 0 0 1 .018-1.5c1.435.018 2.502-.545 3.473-1.449c.778-.724 1.451-1.62 2.187-2.6q.33-.442.684-.903c.994-1.288 2.139-2.62 3.69-3.514c1.577-.909 3.515-1.333 6.037-.924a.75.75 0 1 1-.24 1.48c-2.21-.357-3.794.021-5.049.744c-1.28.738-2.276 1.867-3.25 3.13q-.307.4-.62.818c-.75 1-1.531 2.043-2.417 2.867"/><path d="M16.04 3.469a.75.75 0 0 1 1.06.001l3.431 3.44a.75.75 0 0 1 0 1.06l-3.432 3.44a.75.75 0 0 1-1.062-1.06l2.904-2.91l-2.903-2.91a.75.75 0 0 1 .001-1.061m.016 9.185a.75.75 0 0 1 1.06.032l3.39 3.6a.75.75 0 0 1-.03 1.06l-3.391 3.2a.75.75 0 0 1-1.03-1.091l2.846-2.686l-2.877-3.055a.75.75 0 0 1 .032-1.06"/><path d="M7.53 9.396C6.574 8.49 5.496 7.923 4.014 7.95a.75.75 0 0 1-.026-1.5c1.962-.035 3.403.748 4.575 1.856c.921.872 1.71 1.983 2.46 3.04q.255.36.506.709c.936 1.29 1.876 2.441 3.094 3.2c1.187.74 2.692 1.14 4.822.804a.75.75 0 0 1 .233 1.482c-2.459.387-4.333-.068-5.848-1.013c-1.485-.925-2.569-2.287-3.515-3.593q-.285-.393-.553-.773c-.745-1.048-1.426-2.006-2.23-2.766"/></g></symbol><symbol id="hd-icon-bitcoin-icons-mixed-outline" viewBox="0 0 24 24"><g fill="none" stroke="currentColor" stroke-linecap="round" stroke-linejoin="round"><path d="M4 16.8c6.708.082 6.496-10.932 15.96-9.4"/><path d="M16.57 4L20 7.44l-3.432 3.44m.002 2.32l3.39 3.6l-3.39 3.2"/><path d="M4 7.2c6.887-.124 6.381 11.044 15.56 9.6"/></g></symbol><symbol id="hd-icon-bitcoin-icons-mnemonic-filled" viewBox="0 0 24 24"><path fill="currentColor" fill-rule="evenodd" d="M5 6.5A1.5 1.5 0 0 1 6.5 5h11A1.5 1.5 0 0 1 19 6.5v11a1.5 1.5 0 0 1-1.5 1.5h-11A1.5 1.5 0 0 1 5 17.5zm1.5 0H9V8H6.5zM9 9.667H6.5v1.5H9zm-2.5 3.166H9v1.5H6.5zM9 16H6.5v1.5H9zm1.75-9.5h2.5V8h-2.5zm2.5 3.167h-2.5v1.5h2.5zm-2.5 3.166h2.5v1.5h-2.5zM13.25 16h-2.5v1.5h2.5zM15 6.5h2.5V8H15zm2.5 3.167H15v1.5h2.5zM15 12.833h2.5v1.5H15zM17.5 16H15v1.5h2.5z" clip-rule="evenodd"/></symbol><symbol id="hd-icon-bitcoin-icons-mnemonic-outline" viewBox="0 0 24 24"><g fill="none" stroke="currentColor"><rect width="13" height="13" x="5.5" y="5.5" rx="1"/><path stroke-linecap="round" d="M15 16h1.5m-5 0H13m-5 0h1.5m5.5-2.667h1.5m-5 0H13m-5 0h1.5m5.5-2.666h1.5m-5 0H13m-5 0h1.5M15 8h1.5m-5 0H13M8 8h1.5"/></g></symbol><symbol id="hd-icon-bitcoin-icons-moon-filled" viewBox="0 0 24 24"><path fill="currentColor" d="M20.993 13.313a6 6 0 0 1-7.306-7.306a7 7 0 1 0 7.306 7.306"/><path fill="currentColor" fill-rule="evenodd" d="M4.5 8.25a.5.5 0 0 1 .5.5v1.5a.5.5 0 0 1-1 0v-1.5a.5.5 0 0 1 .5-.5" clip-rule="evenodd"/><path fill="currentColor" fill-rule="evenodd" d="M3.25 9.5a.5.5 0 0 1 .5-.5h1.5a.5.5 0 0 1 0 1h-1.5a.5.5 0 0 1-.5-.5M7.5 3a.5.5 0 0 1 .5.5v2a.5.5 0 0 1-1 0v-2a.5.5 0 0 1 .5-.5" clip-rule="evenodd"/><path fill="currentColor" fill-rule="evenodd" d="M6 4.5a.5.5 0 0 1 .5-.5h2a.5.5 0 0 1 0 1h-2a.5.5 0 0 1-.5-.5" clip-rule="evenodd"/></symbol><symbol id="hd-icon-bitcoin-icons-moon-outline" viewBox="0 0 24 24"><g fill="none" stroke="currentColor"><path d="M20.434 13.934a6.5 6.5 0 0 1-7.367-7.367A6.501 6.501 0 0 0 14 19.5a6.5 6.5 0 0 0 6.433-5.566Z"/><path stroke-linecap="round" d="M4.5 8.75v1.5m.75-.75h-1.5m3.75-6v2m1-1h-2"/></g></symbol><symbol id="hd-icon-bitcoin-icons-no-dollars-filled" viewBox="0 0 24 24"><path fill="currentColor" d="M18.509 18.216A9 9 0 1 1 5.784 5.49l3.097 3.097a2.5 2.5 0 0 0-.224 1.06c0 1.352.98 2.156 2.549 2.607l.392.113v3.71c-1.03-.108-1.872-.637-1.96-1.647H8.383c.113 1.544 1.289 2.622 3.215 2.75v1.093h.804V17.18c1.64-.114 2.707-.908 3.073-1.999zm.651-.763l-3.574-3.574c-.193-1.248-1.251-1.841-2.158-2.158l-1.026-1.026V7.937c1.039.103 1.794.662 1.902 1.554h1.176c-.05-1.432-1.304-2.52-3.078-2.637V5.726h-.804v1.142c-.853.087-1.598.405-2.124.899L6.547 4.84A9 9 0 0 1 19.16 17.454"/><path fill="currentColor" d="M9.834 9.541v.048c0 .933.897 1.353 1.624 1.576zm1.764.349l-1.337-1.336c.308-.312.768-.527 1.337-.602zm1.512 2.928a9 9 0 0 0-.669-.21l-.04-.01v3.48c1.187-.133 2.04-.819 2.04-1.804q0-.068-.006-.132z"/></symbol><symbol id="hd-icon-bitcoin-icons-no-dollars-outline" viewBox="0 0 24 24"><g fill="none" stroke="currentColor"><circle cx="12" cy="12" r="8.5"/><path stroke-linejoin="round" d="m5.75 5.75l12.5 12.5"/><path stroke-linecap="round" d="M12 6v12"/><path stroke-linecap="round" stroke-linejoin="round" d="M14.567 9.37c-.17-.755-1.145-1.595-2.57-1.595s-2.52.925-2.52 2.094c0 2.655 5.285 1.291 5.285 4.372c0 1.114-1.34 2.059-2.765 2.059s-2.411-.877-2.703-1.815"/></g></symbol><symbol id="hd-icon-bitcoin-icons-node-0-connections-filled" viewBox="0 0 24 24"><path fill="currentColor" d="M12.54 7.165c.5-.162.901-.543 1.091-1.03l4.233 4.234a1.76 1.76 0 0 0-1.03 1.092zm4.295 5.375l-4.296 4.295c.5.162.902.543 1.092 1.03l4.233-4.234a1.76 1.76 0 0 1-1.03-1.092m-5.374 4.296l-4.295-4.296c-.162.5-.542.902-1.03 1.092l4.234 4.233c.19-.487.591-.867 1.092-1.03m-.001-9.669l-4.295 4.296a1.76 1.76 0 0 0-1.03-1.092l4.234-4.233c.19.487.591.867 1.092 1.03"/><path fill="currentColor" fill-rule="evenodd" d="M12 4.5a1 1 0 1 0 0 2a1 1 0 0 0 0-2m-2.5 1a2.5 2.5 0 1 1 5 0a2.5 2.5 0 0 1-5 0m2.5 12a1 1 0 1 0 0 2a1 1 0 0 0 0-2m-2.5 1a2.5 2.5 0 1 1 5 0a2.5 2.5 0 0 1-5 0m-4-7.5a1 1 0 1 0 0 2a1 1 0 0 0 0-2M3 12a2.5 2.5 0 1 1 5 0a2.5 2.5 0 0 1-5 0m15.5-1a1 1 0 1 0 0 2a1 1 0 0 0 0-2M16 12a2.5 2.5 0 1 1 5 0a2.5 2.5 0 0 1-5 0" clip-rule="evenodd"/></symbol><symbol id="hd-icon-bitcoin-icons-node-0-connections-outline" viewBox="0 0 24 24"><g fill="none" stroke="currentColor"><path stroke-linecap="round" d="m13.5 7l3.5 3.5m-10 3l3.5 3.5m0-10L7 10.5m10 3L13.5 17"/><circle cx="12" cy="5.5" r="2"/><circle cx="12" cy="18.5" r="2"/><circle cx="5.5" cy="12" r="2"/><circle cx="18.5" cy="12" r="2"/></g></symbol><symbol id="hd-icon-bitcoin-icons-node-1-connection-filled" viewBox="0 0 24 24"><path fill="currentColor" d="M12.54 7.165c.5-.162.901-.543 1.091-1.03l4.233 4.234a1.76 1.76 0 0 0-1.03 1.092zm4.295 5.375l-4.296 4.295c.5.162.902.543 1.092 1.03l4.233-4.234a1.76 1.76 0 0 1-1.03-1.092m-5.374 4.296l-4.295-4.296c-.162.5-.542.902-1.03 1.092l4.234 4.233c.19-.487.591-.867 1.092-1.03m-.001-9.669l-4.295 4.296a1.76 1.76 0 0 0-1.03-1.092l4.234-4.233c.19.487.591.867 1.092 1.03"/><path fill="currentColor" fill-rule="evenodd" d="M12 4.5a1 1 0 1 0 0 2a1 1 0 0 0 0-2m-2.5 1a2.5 2.5 0 1 1 5 0a2.5 2.5 0 0 1-5 0m2.5 12a1 1 0 1 0 0 2a1 1 0 0 0 0-2m-2.5 1a2.5 2.5 0 1 1 5 0a2.5 2.5 0 0 1-5 0" clip-rule="evenodd"/><circle cx="5.5" cy="12" r="2.5" fill="currentColor"/><path fill="currentColor" fill-rule="evenodd" d="M18.5 11a1 1 0 1 0 0 2a1 1 0 0 0 0-2M16 12a2.5 2.5 0 1 1 5 0a2.5 2.5 0 0 1-5 0" clip-rule="evenodd"/></symbol><symbol id="hd-icon-bitcoin-icons-node-1-connection-outline" viewBox="0 0 24 24"><g fill="none" stroke="currentColor"><path stroke-linecap="round" d="m13.5 7l3.5 3.5m-10 3l3.5 3.5m0-10L7 10.5m10 3L13.5 17"/><circle cx="12" cy="5.5" r="2"/><circle cx="12" cy="18.5" r="2"/><circle cx="5.5" cy="12" r="2"/><circle cx="18.5" cy="12" r="2"/><circle cx="5.5" cy="12" r=".5"/></g></symbol><symbol id="hd-icon-bitcoin-icons-node-2-connections-filled" viewBox="0 0 24 24"><path fill="currentColor" d="M12.54 7.165c.5-.162.901-.543 1.091-1.03l4.233 4.234a1.76 1.76 0 0 0-1.03 1.092zm4.295 5.375l-4.296 4.295c.5.162.902.543 1.092 1.03l4.233-4.234a1.76 1.76 0 0 1-1.03-1.092m-5.374 4.296l-4.295-4.296c-.162.5-.542.902-1.03 1.092l4.234 4.233c.19-.487.591-.867 1.092-1.03m-.001-9.669l-4.295 4.296a1.76 1.76 0 0 0-1.03-1.092l4.234-4.233c.19.487.591.867 1.092 1.03"/><path fill="currentColor" fill-rule="evenodd" d="M12 4.5a1 1 0 1 0 0 2a1 1 0 0 0 0-2m-2.5 1a2.5 2.5 0 1 1 5 0a2.5 2.5 0 0 1-5 0" clip-rule="evenodd"/><circle cx="12" cy="18.5" r="2.5" fill="currentColor"/><circle cx="5.5" cy="12" r="2.5" fill="currentColor"/><path fill="currentColor" fill-rule="evenodd" d="M18.5 11a1 1 0 1 0 0 2a1 1 0 0 0 0-2M16 12a2.5 2.5 0 1 1 5 0a2.5 2.5 0 0 1-5 0" clip-rule="evenodd"/></symbol><symbol id="hd-icon-bitcoin-icons-node-2-connections-outline" viewBox="0 0 24 24"><g fill="none" stroke="currentColor"><path stroke-linecap="round" d="m13.5 7l3.5 3.5m-10 3l3.5 3.5m0-10L7 10.5m10 3L13.5 17"/><circle cx="12" cy="5.5" r="2"/><circle cx="12" cy="18.5" r="2"/><circle cx="5.5" cy="12" r="2"/><circle cx="18.5" cy="12" r="2"/><circle cx="5.5" cy="12" r=".5"/><circle cx="12" cy="18.5" r=".5"/></g></symbol><symbol id="hd-icon-bitcoin-icons-node-3-connections-filled" viewBox="0 0 24 24"><path fill="currentColor" d="M12.54 7.165c.5-.162.901-.543 1.091-1.03l4.233 4.234a1.76 1.76 0 0 0-1.03 1.092zm4.295 5.375l-4.296 4.295c.5.162.902.543 1.092 1.03l4.233-4.234a1.76 1.76 0 0 1-1.03-1.092m-5.374 4.296l-4.295-4.296c-.162.5-.542.902-1.03 1.092l4.234 4.233c.19-.487.591-.867 1.092-1.03m-.001-9.669l-4.295 4.296a1.76 1.76 0 0 0-1.03-1.092l4.234-4.233c.19.487.591.867 1.092 1.03"/><path fill="currentColor" fill-rule="evenodd" d="M12 4.5a1 1 0 1 0 0 2a1 1 0 0 0 0-2m-2.5 1a2.5 2.5 0 1 1 5 0a2.5 2.5 0 0 1-5 0" clip-rule="evenodd"/><circle cx="12" cy="18.5" r="2.5" fill="currentColor"/><circle cx="5.5" cy="12" r="2.5" fill="currentColor"/><circle cx="18.5" cy="12" r="2.5" fill="currentColor"/></symbol><symbol id="hd-icon-bitcoin-icons-node-3-connections-outline" viewBox="0 0 24 24"><g fill="none" stroke="currentColor"><path stroke-linecap="round" d="m13.5 7l3.5 3.5m-10 3l3.5 3.5m0-10L7 10.5m10 3L13.5 17"/><circle cx="12" cy="5.5" r="2"/><circle cx="12" cy="18.5" r="2"/><circle cx="5.5" cy="12" r="2"/><circle cx="18.5" cy="12" r="2"/><circle cx="5.5" cy="12" r=".5"/><circle cx="12" cy="18.5" r=".5"/><circle cx="18.5" cy="12" r=".5"/></g></symbol><symbol id="hd-icon-bitcoin-icons-node-filled" viewBox="0 0 24 24"><path fill="currentColor" fill-rule="evenodd" d="m12.31 4.815l7.496 7.496l-7.495 7.495l-7.496-7.495zm-5.373 7.496l5.374 5.374l5.374-5.374l-5.374-5.374z" clip-rule="evenodd"/><circle cx="12" cy="5.5" r="2.5" fill="currentColor"/><circle cx="12" cy="18.5" r="2.5" fill="currentColor"/><circle cx="5.5" cy="12" r="2.5" fill="currentColor"/><circle cx="18.5" cy="12" r="2.5" fill="currentColor"/></symbol><symbol id="hd-icon-bitcoin-icons-node-hardware-filled" viewBox="0 0 24 24"><path fill="currentColor" fill-rule="evenodd" d="M21 9.884a.73.73 0 0 0-.364-.646l-7.494-4.395a2.21 2.21 0 0 0-2.23-.003L3.368 9.237a.73.73 0 0 0-.365.647H3v4.43h.004a.73.73 0 0 0 .376.621l7.563 4.243a2.21 2.21 0 0 0 2.167-.003l7.515-4.24a.73.73 0 0 0 .375-.62zm-16.236.563a.375.375 0 1 0-.368.654l6.359 3.587a2.59 2.59 0 0 0 2.551-.006l6.278-3.582a.375.375 0 0 0-.372-.652l-6.278 3.583c-.56.32-1.248.322-1.81.004z" clip-rule="evenodd"/></symbol><symbol id="hd-icon-bitcoin-icons-node-hardware-outline" viewBox="0 0 24 24"><g fill="none" stroke="currentColor"><path d="M20.54 9.984v4.123a.69.69 0 0 1-.356.644l-7.13 4.024a2.1 2.1 0 0 1-2.057.003L3.82 14.752a.69.69 0 0 1-.355-.659V9.998a.69.69 0 0 1 .345-.653l7.156-4.172a2.1 2.1 0 0 1 2.117.003l7.112 4.17a.69.69 0 0 1 .344.638Z"/><path d="M3.82 10.558a.699.699 0 0 1-.01-1.213l7.157-4.172a2.1 2.1 0 0 1 2.116.003l7.112 4.17a.699.699 0 0 1-.01 1.212l-7.132 4.023a2.1 2.1 0 0 1-2.056.003z"/></g></symbol><symbol id="hd-icon-bitcoin-icons-node-outline" viewBox="0 0 24 24"><g fill="none" stroke="currentColor"><path stroke-linecap="round" d="m13.5 7l3.5 3.5m-10 3l3.5 3.5m0-10L7 10.5m10 3L13.5 17"/><circle cx="12" cy="5.5" r="2"/><circle cx="12" cy="18.5" r="2"/><circle cx="5.5" cy="12" r="2"/><circle cx="18.5" cy="12" r="2"/><circle cx="12" cy="5.5" r=".5"/><circle cx="12" cy="18.5" r=".5"/><circle cx="5.5" cy="12" r=".5"/><circle cx="18.5" cy="12" r=".5"/></g></symbol><symbol id="hd-icon-bitcoin-icons-pantheon-filled" viewBox="0 0 24 24"><path fill="currentColor" d="M19.99 8H4.01A.01.01 0 0 1 4 7.99V6.507a.01.01 0 0 1 .007-.01l7.99-2.496h.006l7.99 2.497a.01.01 0 0 1 .007.01V7.99a.01.01 0 0 1-.01.01M4 20h16v-2H4zm2-3h2V9H6zm10 0h2V9h-2zm-5 0h2V9h-2z"/></symbol><symbol id="hd-icon-bitcoin-icons-pantheon-outline" viewBox="0 0 24 24"><g fill="none" stroke="currentColor"><path stroke-linecap="round" d="M19 7.5H5a.5.5 0 0 1-.5-.5v-.64a.5.5 0 0 1 .342-.474l7-2.333a.5.5 0 0 1 .316 0l7 2.333a.5.5 0 0 1 .342.474V7a.5.5 0 0 1-.5.5Z"/><rect width="15" height="2" rx=".5" transform="matrix(1 0 0 -1 4.5 19.5)"/><rect width="2" height="6" rx=".5" transform="matrix(1 0 0 -1 6 15.5)"/><rect width="2" height="6" rx=".5" transform="matrix(1 0 0 -1 16 15.5)"/><rect width="2" height="6" rx=".5" transform="matrix(1 0 0 -1 11 15.5)"/></g></symbol><symbol id="hd-icon-bitcoin-icons-password-filled" viewBox="0 0 24 24"><path fill="currentColor" fill-rule="evenodd" d="M3.91 8a.91.91 0 0 0-.91.91v6.18c0 .503.407.91.91.91h16.18a.91.91 0 0 0 .91-.91V8.91a.91.91 0 0 0-.91-.91zM7 13.5a1.5 1.5 0 1 0 0-3a1.5 1.5 0 0 0 0 3m6.5-1.5a1.5 1.5 0 1 1-3 0a1.5 1.5 0 0 1 3 0m3.5 1.5a1.5 1.5 0 1 0 0-3a1.5 1.5 0 0 0 0 3" clip-rule="evenodd"/></symbol><symbol id="hd-icon-bitcoin-icons-password-outline" viewBox="0 0 24 24"><g fill="none" stroke="currentColor" stroke-linecap="round" stroke-linejoin="round"><rect width="17" height="9" x="3.5" y="7.5" rx=".5"/><circle cx="7" cy="12" r="1.5"/><circle cx="12" cy="12" r="1.5"/><circle cx="17" cy="12" r="1.5"/></g></symbol><symbol id="hd-icon-bitcoin-icons-photo-filled" viewBox="0 0 24 24"><path fill="currentColor" fill-rule="evenodd" d="M6 5a1 1 0 0 0-1 1v12a1 1 0 0 0 1 1h12a1 1 0 0 0 1-1V6a1 1 0 0 0-1-1zm3.5 6a1.5 1.5 0 1 0 0-3a1.5 1.5 0 0 0 0 3m-2.022 4.735l1.598-2.557a.5.5 0 0 1 .848 0l1.305 2.088l2.09-3.537a.5.5 0 0 1 .861 0l2.374 4.017a.5.5 0 0 1-.43.754h-4.748a.5.5 0 0 1-.139-.02a.5.5 0 0 1-.14.02H7.903a.5.5 0 0 1-.424-.765" clip-rule="evenodd"/></symbol><symbol id="hd-icon-bitcoin-icons-photo-outline" viewBox="0 0 24 24"><g fill="none" stroke="currentColor"><rect width="13" height="13" x="5.5" y="5.5" rx="1"/><circle cx="9.5" cy="9.5" r="1"/><path stroke-linecap="round" stroke-linejoin="round" d="m8 16l1.5-2.5L11 16l2.5-4l2.5 4"/></g></symbol><symbol id="hd-icon-bitcoin-icons-pie-chart-filled" viewBox="0 0 24 24"><path fill="currentColor" d="M17.5 11.5a5 5 0 0 0-5-5v5z"/><path fill="currentColor" d="M11.5 7.5a5 5 0 1 0 5 5h-5z"/></symbol><symbol id="hd-icon-bitcoin-icons-pie-chart-outline" viewBox="0 0 24 24"><g fill="none" stroke="currentColor"><path d="M17.5 11A4.5 4.5 0 0 0 13 6.5V11z"/><path d="M11 8.5a4.5 4.5 0 1 0 4.5 4.5H11z"/></g></symbol><symbol id="hd-icon-bitcoin-icons-plus-filled" viewBox="0 0 24 24"><path fill="currentColor" fill-rule="evenodd" d="M12 3.25a.75.75 0 0 1 .75.75v7.25H20a.75.75 0 0 1 0 1.5h-7.25V20a.75.75 0 0 1-1.5 0v-7.25H4a.75.75 0 0 1 0-1.5h7.25V4a.75.75 0 0 1 .75-.75" clip-rule="evenodd"/></symbol><symbol id="hd-icon-bitcoin-icons-plus-outline" viewBox="0 0 24 24"><path fill="none" stroke="currentColor" stroke-linecap="round" d="M12 3.5v17m8.5-8.5h-17"/></symbol><symbol id="hd-icon-bitcoin-icons-podcast-filled" viewBox="0 0 24 24"><path fill="currentColor" d="M12 3a4 4 0 0 0-4 4h2a.5.5 0 0 1 0 1H8v1h2a.5.5 0 0 1 0 1H8v1h2a.5.5 0 0 1 0 1H8a4 4 0 0 0 8 0h-2a.5.5 0 0 1 0-1h2v-1h-2a.5.5 0 0 1 0-1h2V8h-2a.5.5 0 0 1 0-1h2a4 4 0 0 0-4-4"/><path fill="currentColor" fill-rule="evenodd" d="M11.5 20v-2.5h1V20zm-3.5.5a.5.5 0 0 1 .5-.5h7a.5.5 0 0 1 0 1h-7a.5.5 0 0 1-.5-.5" clip-rule="evenodd"/><path fill="currentColor" fill-rule="evenodd" d="M6.227 13.709a.5.5 0 0 1 .647.284a5.5 5.5 0 0 0 10.16.222a.5.5 0 0 1 .916.403a6.5 6.5 0 0 1-12.008-.262a.5.5 0 0 1 .285-.647" clip-rule="evenodd"/></symbol><symbol id="hd-icon-bitcoin-icons-podcast-outline" viewBox="0 0 24 24"><g fill="none" stroke="currentColor"><rect width="7" height="12" x="8.5" y="3.5" stroke-linejoin="round" rx="3.5"/><path stroke-linecap="round" stroke-linejoin="round" d="M8.5 11.5h2m3 0h2m-7-2h2m3 0h2m-7-2h2m3 0h2"/><path d="M12 18v2.5"/><path stroke-linecap="round" stroke-linejoin="round" d="M8.5 20.5h7"/><path stroke-linecap="round" d="M6.408 14.175a6 6 0 0 0 11.084.241"/></g></symbol><symbol id="hd-icon-bitcoin-icons-point-of-sale-filled" viewBox="0 0 24 24"><path fill="currentColor" fill-rule="evenodd" d="M6 5.5A1.5 1.5 0 0 1 7.5 4h9A1.5 1.5 0 0 1 18 5.5v13a1.5 1.5 0 0 1-1.5 1.5h-9A1.5 1.5 0 0 1 6 18.5zm2 1a.5.5 0 0 1 .5-.5h7a.5.5 0 0 1 .5.5V11a.5.5 0 0 1-.5.5h-7A.5.5 0 0 1 8 11zM8.5 17a.5.5 0 0 0 0 1h1a.5.5 0 0 0 0-1zm5.5.5a.5.5 0 0 1 .5-.5h1a.5.5 0 0 1 0 1h-1a.5.5 0 0 1-.5-.5m-2.5-.5a.5.5 0 0 0 0 1h1a.5.5 0 0 0 0-1zM8 15.5a.5.5 0 0 1 .5-.5h1a.5.5 0 0 1 0 1h-1a.5.5 0 0 1-.5-.5m6.5-.5a.5.5 0 0 0 0 1h1a.5.5 0 0 0 0-1zm-3.5.5a.5.5 0 0 1 .5-.5h1a.5.5 0 0 1 0 1h-1a.5.5 0 0 1-.5-.5M8.5 13a.5.5 0 0 0 0 1h1a.5.5 0 0 0 0-1zm5.5.5a.5.5 0 0 1 .5-.5h1a.5.5 0 0 1 0 1h-1a.5.5 0 0 1-.5-.5m-2.5-.5a.5.5 0 0 0 0 1h1a.5.5 0 0 0 0-1z" clip-rule="evenodd"/></symbol><symbol id="hd-icon-bitcoin-icons-point-of-sale-outline" viewBox="0 0 24 24"><g fill="none" stroke="currentColor"><rect width="11" height="15" x="6.5" y="4.5" rx="1.5"/><path stroke-linejoin="round" d="M8.5 6.5h7v5h-7z"/><path stroke-linecap="round" stroke-linejoin="round" d="M8.5 17.5h1m5 0h1m-4 0h1m-4-2h1m5 0h1m-4 0h1m-4-2h1m5 0h1m-4 0h1"/></g></symbol><symbol id="hd-icon-bitcoin-icons-proxy-filled" viewBox="0 0 24 24"><path fill="currentColor" fill-rule="evenodd" d="M12 6.25a.75.75 0 0 1 .75.75v10a.75.75 0 1 1-1.5 0V7a.75.75 0 0 1 .75-.75M6.065 8.399a.75.75 0 0 1 1.06.02l2.953 3.06c.28.29.28.751 0 1.042l-2.953 3.06a.75.75 0 1 1-1.08-1.04l1.728-1.79H4a.75.75 0 1 1 0-1.5h3.773L6.046 9.458a.75.75 0 0 1 .019-1.06m10.461.001a.75.75 0 0 1 1.06.02l2.954 3.06c.28.29.28.751 0 1.042l-2.953 3.06a.75.75 0 1 1-1.08-1.04l1.727-1.79l-3.772-.001a.75.75 0 0 1 0-1.5h3.773l-1.728-1.79a.75.75 0 0 1 .02-1.061" clip-rule="evenodd"/></symbol><symbol id="hd-icon-bitcoin-icons-proxy-outline" viewBox="0 0 24 24"><g fill="none" stroke="currentColor" stroke-linecap="round"><path d="M12 17V7"/><path stroke-linejoin="round" d="M8.934 12H4m2.585 3.061L9.538 12L6.585 8.939M19.396 12h-4.934m2.585 3.061L20 12l-2.953-3.061"/></g></symbol><symbol id="hd-icon-bitcoin-icons-qr-code-filled" viewBox="0 0 24 24"><path fill="currentColor" fill-rule="evenodd" d="M5 5h4.5v4.5H5zm1.5 1.5V8H8V6.5zm8-1.5H19v4.5h-4.5zM16 6.5V8h1.5V6.5zm-11 8h4.5V19H5zM6.5 16v1.5H8V16z" clip-rule="evenodd"/><path fill="currentColor" d="M5 11.25h1.5v1.5H5zm3 0h1.5v1.5H8zm3.167 0h1.5v1.5h-1.5zm0 3.125h1.5v1.5h-1.5zm0 3.125h1.5V19h-1.5zm0-9.375h1.5v1.5h-1.5zm0-3.125h1.5v1.5h-1.5zm3.166 6.25h1.5v1.5h-1.5zm3.167 0H19v1.5h-1.5zm-3.167 3.125h1.5v1.5h-1.5zm3.167 0H19v1.5h-1.5zM14.333 17.5h1.5V19h-1.5zm3.167 0H19V19h-1.5z"/></symbol><symbol id="hd-icon-bitcoin-icons-qr-code-outline" viewBox="0 0 24 24"><path fill="none" stroke="currentColor" stroke-linejoin="round" d="M5.5 15H9v3.5H5.5zM15 5.5h3.5V9H15zm-9.5 0H9V9H5.5zm6.25 0h.5V6h-.5zm0 3.125h.5v.5h-.5zM8.625 11.75h.5v.5h-.5zm3.125 3.125h.5v.5h-.5zm0 3.125h.5v.5h-.5zM5.5 11.75H6v.5h-.5zm6.25 0h.5v.5h-.5zm3.125 0h.5v.5h-.5zm3.125 0h.5v.5H18zm-3.125 3.125h.5v.5h-.5zm3.125 0h.5v.5H18zM14.875 18h.5v.5h-.5zM18 18h.5v.5H18z"/></symbol><symbol id="hd-icon-bitcoin-icons-question-circle-filled" viewBox="0 0 24 24"><path fill="currentColor" fill-rule="evenodd" d="M21 12a9 9 0 1 1-18 0a9 9 0 0 1 18 0m-8 3.5v2h-2v-2zM10.5 10c0-.844.59-1.5 1.5-1.5c.523 0 .88.17 1.105.395c.225.224.395.582.395 1.105c0 .32-.081.462-.168.57c-.113.14-.251.244-.507.437l-.183.14c-.335.256-.774.615-1.11 1.178c-.343.574-.532 1.279-.532 2.175h2c0-.604.123-.94.25-1.15c.133-.223.318-.394.608-.615q.053-.042.12-.09c.255-.191.626-.468.909-.817c.382-.472.613-1.06.613-1.828c0-.977-.33-1.87-.98-2.52S12.977 6.5 12 6.5c-2.09 0-3.5 1.627-3.5 3.5z" clip-rule="evenodd"/></symbol><symbol id="hd-icon-bitcoin-icons-question-circle-outline" viewBox="0 0 24 24"><g fill="none" stroke="currentColor"><circle cx="12" cy="12" r="8.5"/><path stroke-linecap="round" d="M9 10c0-1.358 1.15-3 3-3s3 1.596 3 3c0 2.175-3 2.059-3 4.5m0 3v-1"/></g></symbol><symbol id="hd-icon-bitcoin-icons-question-filled" viewBox="0 0 24 24"><path fill="currentColor" d="M10.75 15.75h2.5v2.5h-2.5z"/><path fill="currentColor" fill-rule="evenodd" d="M12 8c-1.195 0-2 1.086-2 2H8c0-1.802 1.496-4 4-4c2.496 0 4 2.142 4 4c0 1.578-1.108 2.378-1.794 2.873l-.116.084c-.755.552-1.09.866-1.09 1.543h-2c0-1.762 1.161-2.61 1.907-3.155l.003-.002c.832-.609 1.09-.84 1.09-1.343c0-.95-.796-2-2-2" clip-rule="evenodd"/></symbol><symbol id="hd-icon-bitcoin-icons-question-outline" viewBox="0 0 24 24"><path fill="none" stroke="currentColor" stroke-linecap="round" d="M9 10c0-1.358 1.15-3 3-3s3 1.596 3 3c0 2.175-3 2.059-3 4.5m0 3v-1"/></symbol><symbol id="hd-icon-bitcoin-icons-receive-filled" viewBox="0 0 24 24"><g fill="currentColor" fill-rule="evenodd" clip-rule="evenodd"><path d="M5 14.997a.75.75 0 0 1 .75.75V18c0 .138.112.25.25.25h12a.25.25 0 0 0 .25-.25v-2.253a.75.75 0 0 1 1.5 0V18A1.75 1.75 0 0 1 18 19.75H6A1.75 1.75 0 0 1 4.25 18v-2.253a.75.75 0 0 1 .75-.75M12.202 4.25a.75.75 0 0 1 .75.75v8.086a.75.75 0 0 1-1.5 0V5a.75.75 0 0 1 .75-.75"/><path d="M8.322 10.626a.75.75 0 0 1 1.06-.013l2.82 2.755l2.82-2.755a.75.75 0 1 1 1.048 1.073l-3.344 3.267a.75.75 0 0 1-1.048 0l-3.344-3.267a.75.75 0 0 1-.012-1.06"/></g></symbol><symbol id="hd-icon-bitcoin-icons-receive-outline" viewBox="0 0 24 24"><path fill="none" stroke="currentColor" stroke-linecap="round" stroke-linejoin="round" d="M5 15.747V18a1 1 0 0 0 1 1h12a1 1 0 0 0 1-1v-2.253M12.202 13.5V5m3.344 6.15l-3.344 3.266l-3.344-3.266"/></symbol><symbol id="hd-icon-bitcoin-icons-refresh-filled" viewBox="0 0 24 24"><g fill="currentColor" fill-rule="evenodd" clip-rule="evenodd"><path d="M6.64 9.788a.75.75 0 0 1 .53.918a5 5 0 0 0 7.33 5.624a.75.75 0 1 1 .75 1.3a6.501 6.501 0 0 1-9.529-7.312a.75.75 0 0 1 .919-.53M8.75 6.37a6.5 6.5 0 0 1 9.529 7.312a.75.75 0 1 1-1.45-.388A5.001 5.001 0 0 0 9.5 7.67a.75.75 0 1 1-.75-1.3"/><path d="M5.72 9.47a.75.75 0 0 1 1.06 0l2.5 2.5a.75.75 0 1 1-1.06 1.06l-1.97-1.97l-1.97 1.97a.75.75 0 0 1-1.06-1.06zm9 1.5a.75.75 0 0 1 1.06 0l1.97 1.97l1.97-1.97a.75.75 0 1 1 1.06 1.06l-2.5 2.5a.75.75 0 0 1-1.06 0l-2.5-2.5a.75.75 0 0 1 0-1.06"/></g></symbol><symbol id="hd-icon-bitcoin-icons-refresh-outline" viewBox="0 0 24 24"><g fill="none" stroke="currentColor" stroke-linecap="round"><path d="M6.446 10.512a5.75 5.75 0 0 0 8.429 6.468m2.679-3.492A5.75 5.75 0 0 0 9.125 7.02"/><path stroke-linejoin="round" d="m3.75 12.5l2.5-2.5l2.5 2.5m6.5-1l2.5 2.5l2.5-2.5"/></g></symbol><symbol id="hd-icon-bitcoin-icons-relay-filled" viewBox="0 0 24 24"><g fill="currentColor" fill-rule="evenodd" clip-rule="evenodd"><path d="M13.383 4.844a.75.75 0 0 1 .935-.5a8 8 0 0 1-3.765 15.524a.75.75 0 0 1 .271-1.475a6.5 6.5 0 0 0 3.06-12.614a.75.75 0 0 1-.501-.935m-2.66-.02a.75.75 0 0 1-.514.928a6.5 6.5 0 0 0-2.544 11.091a.75.75 0 0 1-1 1.118A8 8 0 0 1 9.794 4.31a.75.75 0 0 1 .928.514"/><path d="M10.842 6.88a5.25 5.25 0 0 1 6.276 6.292a.75.75 0 1 1-1.463-.335a3.75 3.75 0 1 0-2.041 2.548a.75.75 0 0 1 .645 1.354a5.25 5.25 0 1 1-3.417-9.86"/><path d="M12.297 11.045a1 1 0 0 0-.986.23a.75.75 0 0 1-1.033-1.087a2.5 2.5 0 1 1 .875 4.164a.75.75 0 1 1 .508-1.411a1 1 0 1 0 .636-1.896"/></g></symbol><symbol id="hd-icon-bitcoin-icons-relay-outline" viewBox="0 0 24 24"><g fill="none" stroke="currentColor" stroke-linecap="round"><path d="M10.689 19.13A7.25 7.25 0 0 0 14.1 5.06m-4.098-.03a7.25 7.25 0 0 0-2.837 12.372"/><path d="M16.387 13.004a4.5 4.5 0 1 0-2.45 3.058"/><path d="M10.794 10.732a1.75 1.75 0 1 1 .613 2.914"/></g></symbol><symbol id="hd-icon-bitcoin-icons-rocket-filled" viewBox="0 0 24 24"><path fill="currentColor" fill-rule="evenodd" d="M8 16a.5.5 0 0 1 0 .707l-1 1A.5.5 0 1 1 6.293 17l1-1A.5.5 0 0 1 8 16m1.5 1.5a.5.5 0 0 1 0 .707l-1 1a.5.5 0 1 1-.707-.707l1-1a.5.5 0 0 1 .707 0m-3-3a.5.5 0 0 1 0 .707l-1 1a.5.5 0 1 1-.707-.708l1-1a.5.5 0 0 1 .707 0m6.102-8.483a11.54 11.54 0 0 0-5.797 6.495l4.684 4.685a11.54 11.54 0 0 0 6.495-5.798zm1.045 5.337a1.5 1.5 0 1 1-3 0a1.5 1.5 0 0 1 3 0" clip-rule="evenodd"/><path fill="currentColor" d="M18.41 10.41a11.5 11.5 0 0 0 .737-4.057q-.001-.718-.086-1.414a12 12 0 0 0-1.414-.086c-1.428 0-2.795.26-4.057.736zm-6.144 7.562l1.027 1.027a.5.5 0 0 0 .854-.353v-1.614a12.5 12.5 0 0 1-1.881.94m-6.238-6.238q.393-.985.94-1.881H5.354a.5.5 0 0 0-.354.854z"/></symbol><symbol id="hd-icon-bitcoin-icons-rocket-outline" viewBox="0 0 24 24"><g fill="none" stroke="currentColor"><path d="M11.449 16.449L7.55 12.55C8.998 8.167 13.13 5 18 5q.485 0 .959.041q.04.474.041.96c0 4.87-3.165 9-7.552 10.448Z"/><path stroke-linecap="round" d="m8 16l-1 1m2.5.5l-1 1m-2-4l-1 1"/><circle cx="13" cy="11" r="1"/><path stroke-linecap="round" d="m14 6l4 4"/><path stroke-linecap="round" stroke-linejoin="round" d="M14 15.5V19l-9-9h3.5"/></g></symbol><symbol id="hd-icon-bitcoin-icons-safe-filled" viewBox="0 0 24 24"><path fill="currentColor" fill-rule="evenodd" d="M7.5 7.5v9h9v-9zM12 14c.37 0 .718-.101 1.016-.277l1.13 1.13a.5.5 0 0 0 .708-.707l-1.13-1.13a2 2 0 0 0-.001-2.032l1.13-1.13a.5.5 0 0 0-.707-.708l-1.13 1.13A2 2 0 0 0 12 10c-.37 0-.718.101-1.016.277l-1.13-1.13a.5.5 0 1 0-.708.707l1.13 1.13A2 2 0 0 0 10 12c0 .37.101.718.277 1.016l-1.13 1.13a.5.5 0 0 0 .707.708l1.13-1.13A2 2 0 0 0 12 14" clip-rule="evenodd"/><path fill="currentColor" fill-rule="evenodd" d="M5 6a1 1 0 0 1 1-1h12a1 1 0 0 1 1 1v11.935a1 1 0 0 1-1 1H6a1 1 0 0 1-1-1zm1.5 1a.5.5 0 0 1 .5-.5h10a.5.5 0 0 1 .5.5v10a.5.5 0 0 1-.5.5H7a.5.5 0 0 1-.5-.5z" clip-rule="evenodd"/><circle cx="12" cy="12" r="1" fill="currentColor"/><path fill="currentColor" d="M7 19h2v.578a.42.42 0 0 1-.422.422H7.422A.42.42 0 0 1 7 19.578zm8 0h2v.578a.42.42 0 0 1-.422.422h-1.156a.42.42 0 0 1-.422-.422z"/></symbol><symbol id="hd-icon-bitcoin-icons-safe-outline" viewBox="0 0 24 24"><g fill="none" stroke="currentColor"><rect width="13" height="13" x="5.5" y="5.5" rx="1"/><rect width="9" height="9" x="7.5" y="7.5" rx=".5"/><path stroke-linecap="square" d="M8.5 19.5h-1m9 0h-1"/><circle cx="12" cy="12" r="1.25"/><path stroke-linecap="round" stroke-linejoin="round" d="M9.5 9.5L11 11m-1.5 3.5L11 13m2 0l1.5 1.5M13 11l1.5-1.5"/></g></symbol><symbol id="hd-icon-bitcoin-icons-satoshi-v1-filled" viewBox="0 0 24 24"><path fill="currentColor" fill-rule="evenodd" d="M21 12a9 9 0 1 1-18 0a9 9 0 0 1 18 0M8.693 8.742l7.637 2.063l.337-1.462L9.029 7.28zm5.526-3.05l-.406 1.774l-1.448-.392l.407-1.774zM11.227 18.7l.408-1.774l-1.448-.391l-.408 1.774zm4.421-4.934L8.011 11.7l.336-1.462l7.637 2.066zm-8.316.89l7.638 2.064l.336-1.462l-7.638-2.064z" clip-rule="evenodd"/></symbol><symbol id="hd-icon-bitcoin-icons-satoshi-v1-outline" viewBox="0 0 24 24"><path fill="none" stroke="currentColor" d="M12 20.5a8.5 8.5 0 1 0 0-17a8.5 8.5 0 0 0 0 17ZM8.86 8.011l7.639 2.063m-3.41-2.804l.406-1.774m-2.992 13.008l.408-1.773M8.18 10.969l7.636 2.066m-8.316.89l7.638 2.064"/></symbol><symbol id="hd-icon-bitcoin-icons-satoshi-v2-filled" viewBox="0 0 24 24"><path fill="currentColor" fill-rule="evenodd" d="M12.75 18.5V21h-1.5v-2.5zM17 16.75H7v-1.5h10zm0-4H7v-1.5h10zm0-4H7v-1.5h10zM12.75 3v2.5h-1.5V3z" clip-rule="evenodd"/></symbol><symbol id="hd-icon-bitcoin-icons-satoshi-v2-outline" viewBox="0 0 24 24"><path fill="none" stroke="currentColor" d="M7 7.91h10m-5-2.455V3m0 18v-2.455M7 12h10M7 16.09h10"/></symbol></svg>