<svg xmlns="http://www.w3.org/2000/svg" xmlns:xlink="http://www.w3.org/1999/xlink"><symbol id="hd-icon-mdi-format-list-checks" viewBox="0 0 24 24"><path fill="currentColor" d="M3 5h6v6H3zm2 2v2h2V7zm6 0h10v2H11zm0 8h10v2H11zm-6 5l-3.5-3.5l1.41-1.41L5 17.17l4.59-4.58L11 14z"/></symbol><symbol id="hd-icon-mdi-format-list-group" viewBox="0 0 24 24"><path fill="currentColor" d="M5 5v14h2v2H3V3h4v2zm15 2H7v2h13zm0 4H7v2h13zm0 4H7v2h13z"/></symbol><symbol id="hd-icon-mdi-format-list-group-plus" viewBox="0 0 24 24"><path fill="currentColor" d="M17 14v3h-3v2h3v3h2v-3h3v-2h-3v-3m1-3v1.3c-.6-.2-1.3-.3-2-.3c-1.2 0-2.4.4-3.3 1H7v-2zm-7.9 6H7v-2h5.8c-.3.6-.6 1.3-.7 2M7 7h13v2H7zM5 19h2v2H3V3h4v2H5z"/></symbol><symbol id="hd-icon-mdi-format-list-numbered" viewBox="0 0 24 24"><path fill="currentColor" d="M7 13v-2h14v2zm0 6v-2h14v2zM7 7V5h14v2zM3 8V5H2V4h2v4zm-1 9v-1h3v4H2v-1h2v-.5H3v-1h1V17zm2.25-7a.75.75 0 0 1 .75.75c0 .2-.08.39-.21.52L3.12 13H5v1H2v-.92L4 11H2v-1z"/></symbol><symbol id="hd-icon-mdi-format-list-numbered-rtl" viewBox="0 0 24 24"><path fill="currentColor" d="M3 13v-2h14v2zm0 6v-2h14v2zM3 7V5h14v2zm17 1V5h-1V4h2v4zm-1 9v-1h3v4h-3v-1h2v-.5h-1v-1h1V17zm2.25-7a.749.749 0 0 1 .54 1.27L20.12 13H22v1h-3v-.92L21 11h-2v-1z"/></symbol><symbol id="hd-icon-mdi-format-list-text" viewBox="0 0 24 24"><path fill="currentColor" d="M2 14h6v6H2M16 8h-6v2h6M2 10h6V4H2m8 0v2h12V4M10 20h6v-2h-6m0-2h12v-2H10"/></symbol><symbol id="hd-icon-mdi-format-list-triangle" viewBox="0 0 24 24"><path d="M5 15.5L7.5 20h-5L5 15.5M9 19h12v-2H9v2zM5 9.5L7.5 14h-5L5 9.5M9 13h12v-2H9v2zM5 3.5L7.5 8h-5L5 3.5M9 7h12V5H9v2z" fill="currentColor"/></symbol><symbol id="hd-icon-mdi-format-overline" viewBox="0 0 24 24"><path fill="currentColor" d="M5 5h14V3H5zm4.62 11L12 9.67L14.37 16M11 7L5.5 21h2.25l1.12-3h6.25l1.13 3h2.25L13 7z"/></symbol><symbol id="hd-icon-mdi-format-page-break" viewBox="0 0 24 24"><path fill="currentColor" d="M18 20H6v-2H4v2a2 2 0 0 0 2 2h12a2 2 0 0 0 2-2v-2h-2zM14 2H6a2 2 0 0 0-2 2v8h2V4h8v4h4v4h2V8zm-3 14H8v-2h3zm5 0h-3v-2h3zM3 14h3v2H3zm18 2h-3v-2h3z"/></symbol><symbol id="hd-icon-mdi-format-page-split" viewBox="0 0 24 24"><path fill="currentColor" d="M11 11V7h2v4zm2-10v4h-2V1zm-2 16v-4h2v4zm-2 3H6V4h3V2H6a2 2 0 0 0-2 2v16c0 1.11.89 2 2 2h3zm6-17v5h3v12h-3v2h3c1.11 0 2-.89 2-2V8zm-2 16h-2v4h2z"/></symbol><symbol id="hd-icon-mdi-format-paint" viewBox="0 0 24 24"><path fill="currentColor" d="M18 4V3a1 1 0 0 0-1-1H5a1 1 0 0 0-1 1v4a1 1 0 0 0 1 1h12a1 1 0 0 0 1-1V6h1v4H9v11a1 1 0 0 0 1 1h2a1 1 0 0 0 1-1v-9h8V4z"/></symbol><symbol id="hd-icon-mdi-format-paragraph" viewBox="0 0 24 24"><path fill="currentColor" d="M13 4a4 4 0 0 1 4 4a4 4 0 0 1-4 4h-2v6H9V4zm0 6a2 2 0 0 0 2-2a2 2 0 0 0-2-2h-2v4z"/></symbol><symbol id="hd-icon-mdi-format-paragraph-spacing" viewBox="0 0 24 24"><path fill="currentColor" d="M3 17h18v2H3zM3 2h18v2H3zm0 18h18v2H3zM13 8h2l-3-3l-3 3h2v5H9l3 3l3-3h-2z"/></symbol><symbol id="hd-icon-mdi-format-pilcrow" viewBox="0 0 24 24"><path fill="currentColor" d="M10 11a4 4 0 0 1-4-4a4 4 0 0 1 4-4h8v2h-2v16h-2V5h-2v16h-2z"/></symbol><symbol id="hd-icon-mdi-format-pilcrow-arrow-left" viewBox="0 0 24 24"><path fill="currentColor" d="M8 17v-3l-4 4l4 4v-3h12v-2m-10-7v5h2V4h2v11h2V4h2V2h-8a4 4 0 0 0-4 4a4 4 0 0 0 4 4"/></symbol><symbol id="hd-icon-mdi-format-pilcrow-arrow-right" viewBox="0 0 24 24"><path fill="currentColor" d="m21 18l-4-4v3H5v2h12v3M9 10v5h2V4h2v11h2V4h2V2H9a4 4 0 0 0-4 4a4 4 0 0 0 4 4"/></symbol><symbol id="hd-icon-mdi-format-quote-close" viewBox="0 0 24 24"><path fill="currentColor" d="M14 17h3l2-4V7h-6v6h3M6 17h3l2-4V7H5v6h3z"/></symbol><symbol id="hd-icon-mdi-format-quote-close-outline" viewBox="0 0 24 24"><path fill="currentColor" d="M13 6v8h1.88l-2 4h5.74L21 13.24V6m-6 2h4v4.76L17.38 16h-1.26l2-4H15M3 6v8h1.88l-2 4h5.74L11 13.24V6M5 8h4v4.76L7.38 16H6.12l2-4H5Z"/></symbol><symbol id="hd-icon-mdi-format-quote-open" viewBox="0 0 24 24"><path fill="currentColor" d="m10 7l-2 4h3v6H5v-6l2-4zm8 0l-2 4h3v6h-6v-6l2-4z"/></symbol><symbol id="hd-icon-mdi-format-quote-open-outline" viewBox="0 0 24 24"><path fill="currentColor" d="M11 18v-8H9.12l2-4H5.38L3 10.76V18m6-2H5v-4.76L6.62 8h1.26l-2 4H9m12 6v-8h-1.88l2-4h-5.74L13 10.76V18m6-2h-4v-4.76L16.62 8h1.26l-2 4H19Z"/></symbol><symbol id="hd-icon-mdi-format-rotate-90" viewBox="0 0 24 24"><path fill="currentColor" d="M7.34 6.41L.86 12.9l6.49 6.48l6.49-6.48zM3.69 12.9l3.66-3.66L11 12.9l-3.66 3.66zm15.67-6.26A8.95 8.95 0 0 0 13 4V.76L8.76 5L13 9.24V6c1.79 0 3.58.68 4.95 2.05a7.007 7.007 0 0 1 0 9.9a6.97 6.97 0 0 1-7.79 1.44l-1.49 1.49C10 21.62 11.5 22 13 22c2.3 0 4.61-.88 6.36-2.64a8.98 8.98 0 0 0 0-12.72"/></symbol><symbol id="hd-icon-mdi-format-section" viewBox="0 0 24 24"><path fill="currentColor" d="M15.67 4.42a6.1 6.1 0 0 0-3.22-.86c-1.58 0-2.79.78-2.79 2c0 1.4 1.34 1.91 3.34 2.58c2.5.81 4.4 1.83 4.4 4.24a4.01 4.01 0 0 1-1.8 3.23c.65.61 1.01 1.47 1 2.36c0 2.82-2.6 4-5.1 4c-1.46.06-2.91-.33-4.15-1.1L8 19.34c1.04.71 2.27 1.09 3.53 1.1c1.72 0 3-.78 3-2.2c0-1.24-.78-1.93-3.28-2.79C8.5 14.5 6.6 13.5 6.6 11.21c.07-1.32.83-2.52 2-3.14c-.63-.57-.99-1.4-1-2.26C7.6 3.45 9.77 2 12.53 2c1.29 0 2.56.29 3.7.89zm-4.32 9c1.06.33 2.09.76 3.06 1.29c.65-.49 1.02-1.26 1-2.07c0-1-.64-1.88-2.41-2.5c-1.11-.37-2.22-.83-3.28-1.37c-.75.45-1.22 1.26-1.22 2.14c0 .97.73 1.77 2.85 2.51"/></symbol><symbol id="hd-icon-mdi-format-size" viewBox="0 0 24 24"><path fill="currentColor" d="M2 4v3h5v12h3V7h5V4zm19 5h-9v3h3v7h3v-7h3z"/></symbol><symbol id="hd-icon-mdi-format-strikethrough" viewBox="0 0 24 24"><path fill="currentColor" d="M3 14h18v-2H3m2-8v3h5v3h4V7h5V4m-9 15h4v-3h-4z"/></symbol><symbol id="hd-icon-mdi-format-strikethrough-variant" viewBox="0 0 24 24"><path fill="currentColor" d="M7.2 9.8c-1.2-2.3.5-5 2.9-5.5c3.1-1 7.6.4 7.5 4.2h-3c0-.3-.1-.6-.1-.8c-.2-.6-.6-.9-1.2-1.1c-.8-.3-2.1-.2-2.8.3C9 8.2 10.4 9.5 12 10H7.4c-.1-.1-.1-.2-.2-.2M21 13v-2H3v2h9.6c.2.1.4.1.6.2c.6.3 1.1.5 1.3 1.1c.1.4.2.9 0 1.3c-.2.5-.6.7-1.1.9c-1.8.5-4-.2-3.9-2.4h-3c-.1 2.6 2.1 4.4 4.5 4.7c3.8.8 8.3-1.6 6.3-5.9z"/></symbol><symbol id="hd-icon-mdi-format-subscript" viewBox="0 0 24 24"><path fill="currentColor" d="M16 7.41L11.41 12L16 16.59L14.59 18L10 13.41L5.41 18L4 16.59L8.59 12L4 7.41L5.41 6L10 10.59L14.59 6zm5.85 13.62h-4.88v-1l.89-.8c.76-.65 1.32-1.19 1.7-1.63c.37-.44.56-.85.57-1.24a.9.9 0 0 0-.27-.7c-.18-.16-.47-.28-.86-.28c-.31 0-.58.06-.84.18l-.66.38l-.45-1.17c.27-.21.59-.39.98-.53s.82-.24 1.29-.24c.78.04 1.38.25 1.78.66s.62.93.62 1.57c-.01.56-.19 1.08-.54 1.55c-.34.47-.76.92-1.27 1.36l-.64.52v.02h2.58z"/></symbol><symbol id="hd-icon-mdi-format-superscript" viewBox="0 0 24 24"><path fill="currentColor" d="M16 7.41L11.41 12L16 16.59L14.59 18L10 13.41L5.41 18L4 16.59L8.59 12L4 7.41L5.41 6L10 10.59L14.59 6zM21.85 9h-4.88V8l.89-.82c.76-.64 1.32-1.18 1.7-1.63q.555-.66.57-1.23a.88.88 0 0 0-.27-.7c-.18-.19-.47-.28-.86-.29c-.31.01-.58.07-.84.17l-.66.39l-.45-1.17c.27-.22.59-.39.98-.53S18.85 2 19.32 2c.78 0 1.38.2 1.78.61c.4.39.62.93.62 1.57c-.01.56-.19 1.08-.54 1.55c-.34.48-.76.93-1.27 1.36l-.64.52v.02h2.58z"/></symbol><symbol id="hd-icon-mdi-format-text" viewBox="0 0 24 24"><path fill="currentColor" d="m18.5 4l1.16 4.35l-.96.26c-.45-.87-.91-1.74-1.44-2.18C16.73 6 16.11 6 15.5 6H13v10.5c0 .5 0 1 .33 1.25c.34.25 1 .25 1.67.25v1H9v-1c.67 0 1.33 0 1.67-.25c.33-.25.33-.75.33-1.25V6H8.5c-.61 0-1.23 0-1.76.43c-.53.44-.99 1.31-1.44 2.18l-.96-.26L5.5 4z"/></symbol><symbol id="hd-icon-mdi-format-text-rotation-angle-down" viewBox="0 0 24 24"><path fill="currentColor" d="M14.25 21h-4.22l1.41-1.41l-8.86-8.86l1.45-1.4l8.81 8.86l1.41-1.41M12.61 8l2.62 2.64l2.2-4.87m1.98-.85l-4.46 11.11l-1.45-1.45l.89-2.2l-3.51-3.57l-2.2.94l-1.46-1.5l11.11-4.41Z"/></symbol><symbol id="hd-icon-mdi-format-text-rotation-angle-up" viewBox="0 0 24 24"><path fill="currentColor" d="M20.58 9.33v4.22l-1.41-1.41L10.31 21l-1.4-1.41l8.81-8.86l-1.41-1.4M7.59 11l2.63-2.61l-4.88-2.25M4.5 4.22l11.11 4.41l-1.45 1.5l-2.2-.94l-3.57 3.56l.94 2.16l-1.5 1.5L3.42 5.25Z"/></symbol><symbol id="hd-icon-mdi-format-text-rotation-down" viewBox="0 0 24 24"><path fill="currentColor" d="m6 19.73l-3-3h2V4.27h2v12.46h2zm8-10.35v3.75l5.03-1.88zM21 12l-11 4.73v-2.06l2.19-.94V8.77L10 7.83V5.77l11 4.73z"/></symbol><symbol id="hd-icon-mdi-format-text-rotation-down-vertical" viewBox="0 0 24 24"><path fill="currentColor" d="M15.25 4h-1.5L9 15h2.1l.9-2.2h5l.9 2.2H20zm-2.62 7l1.87-5l1.87 5zM5 17.5l3-3H6V2H4v12.5H2zM22 20l-3-3v2H6.5v2H19v2z"/></symbol><symbol id="hd-icon-mdi-format-text-rotation-none" viewBox="0 0 24 24"><path fill="currentColor" d="m20.5 18l-3 3v-2H5v-2h12.5v-2zm-10.37-8h3.75L12 4.97zm2.62-7l4.75 11h-2.08l-.92-2.19h-5L8.58 14H6.5l4.75-11z"/></symbol><symbol id="hd-icon-mdi-format-text-rotation-up" viewBox="0 0 24 24"><path fill="currentColor" d="M3 12v1.5l11 4.75v-2.1l-2.2-.9v-5l2.2-.9v-2.1zm7 2.62l-5-1.87l5-1.87zm8-10.37l-3 3h2v12.5h2V7.25h2z"/></symbol><symbol id="hd-icon-mdi-format-text-rotation-vertical" viewBox="0 0 24 24"><path fill="currentColor" d="M15.75 5h-1.5L9.5 16h2.1l.9-2.2h5l.9 2.2h2.1zm-2.62 7L15 7l1.87 5zM6 19.75l3-3H7V4.25H5v12.5H3z"/></symbol><symbol id="hd-icon-mdi-format-text-variant" viewBox="0 0 24 24"><path fill="currentColor" d="M9.6 14L12 7.7l2.4 6.3M11 5L5.5 19h2.2l1.1-3H15l1.1 3h2.2L13 5z"/></symbol><symbol id="hd-icon-mdi-format-text-variant-outline" viewBox="0 0 24 24"><path fill="currentColor" d="M11 3c-.82 0-1.56.5-1.86 1.27l-5.5 14C3.12 19.58 4.09 21 5.5 21h2.25c.84 0 1.58-.5 1.87-1.3l.64-1.7h3.48l.64 1.7c.29.8 1.04 1.3 1.87 1.3h2.25c1.41 0 2.38-1.42 1.86-2.73l-5.5-14C14.56 3.5 13.82 3 13 3m-2 2h2l5.5 14h-2.25l-1.13-3H8.87l-1.12 3H5.5M12 7.67L9.62 14h4.75Z"/></symbol><symbol id="hd-icon-mdi-format-text-wrapping-clip" viewBox="0 0 24 24"><path fill="currentColor" d="M7 21H5V3h2zM17 3v8H9v2h8v8h2V3z"/></symbol><symbol id="hd-icon-mdi-format-text-wrapping-overflow" viewBox="0 0 24 24"><path fill="currentColor" d="M7 21H5V3h2zm7-18h-2v6h2zm0 12h-2v6h2zm5-3l-3-3v2H9v2h7v2z"/></symbol><symbol id="hd-icon-mdi-format-text-wrapping-wrap" viewBox="0 0 24 24"><path fill="currentColor" d="M7 21H5V3h2zM19 3h-2v18h2zm-6 5H9v2h3.97c.17 0 1.03.16 1.03 2s-.86 2-1 2h-2v-2l-3 3l3 3v-2h2c1.04 0 3-.84 3-4s-1.96-4-3-4"/></symbol><symbol id="hd-icon-mdi-format-textbox" viewBox="0 0 24 24"><path fill="currentColor" d="M21 7V3h-4v1H7V3H3v4h1v10H3v4h4v-1h10v1h4v-4h-1V7zm-3-3h2v2h-2zM4 4h2v2H4zm2 16H4v-2h2zm14 0h-2v-2h2zm-2-3h-1v1H7v-1H6V7h1V6h10v1h1zm-2-9v2h-3v6h-2v-6H8V8z"/></symbol><symbol id="hd-icon-mdi-format-title" viewBox="0 0 24 24"><path fill="currentColor" d="M5 4v3h5.5v12h3V7H19V4z"/></symbol><symbol id="hd-icon-mdi-format-underline" viewBox="0 0 24 24"><path fill="currentColor" d="M5 21h14v-2H5zm7-4a6 6 0 0 0 6-6V3h-2.5v8a3.5 3.5 0 0 1-3.5 3.5A3.5 3.5 0 0 1 8.5 11V3H6v8a6 6 0 0 0 6 6"/></symbol><symbol id="hd-icon-mdi-format-underline-wavy" viewBox="0 0 24 24"><path fill="currentColor" d="M12 17c3.31 0 6-2.69 6-6V3h-2.5v8c0 1.93-1.57 3.5-3.5 3.5S8.5 12.93 8.5 11V3H6v8c0 3.31 2.69 6 6 6m8 5c-1.4 0-2.2-.7-2.7-1.3c-.5-.5-.7-.7-1.3-.7s-.8.2-1.3.7c-.5.6-1.3 1.3-2.7 1.3s-2.2-.7-2.7-1.3c-.5-.5-.7-.7-1.3-.7s-.8.2-1.3.7C6.2 21.3 5.4 22 4 22v-2c.6 0 .8-.2 1.3-.7c.5-.6 1.3-1.3 2.7-1.3s2.2.7 2.7 1.3c.5.5.7.7 1.3.7s.8-.2 1.3-.7c.5-.6 1.3-1.3 2.7-1.3s2.2.7 2.7 1.3c.5.5.7.7 1.3.7z"/></symbol><symbol id="hd-icon-mdi-format-vertical-align-bottom" viewBox="0 0 24 24"><path fill="currentColor" d="M16 13h-3V3h-2v10H8l4 4zM4 19v2h16v-2z"/></symbol><symbol id="hd-icon-mdi-format-vertical-align-center" viewBox="0 0 24 24"><path fill="currentColor" d="M8 19h3v4h2v-4h3l-4-4zm8-14h-3V1h-2v4H8l4 4zM4 11v2h16v-2z"/></symbol><symbol id="hd-icon-mdi-format-vertical-align-top" viewBox="0 0 24 24"><path fill="currentColor" d="M8 11h3v10h2V11h3l-4-4zM4 3v2h16V3z"/></symbol><symbol id="hd-icon-mdi-format-wrap-inline" viewBox="0 0 24 24"><path fill="currentColor" d="m8 7l5 10H3zM3 3h18v2H3zm18 12v2h-7v-2zM3 19h18v2H3z"/></symbol><symbol id="hd-icon-mdi-format-wrap-square" viewBox="0 0 24 24"><path fill="currentColor" d="m12 7l5 10H7zM3 3h18v2H3zm0 4h3v2H3zm18 0v2h-3V7zM3 11h3v2H3zm18 0v2h-3v-2zM3 15h3v2H3zm18 0v2h-3v-2zM3 19h18v2H3z"/></symbol><symbol id="hd-icon-mdi-format-wrap-tight" viewBox="0 0 24 24"><path fill="currentColor" d="m12 7l5 10H7zM3 3h18v2H3zm0 4h6v2H3zm18 0v2h-6V7zM3 11h4v2H3zm18 0v2h-4v-2zM3 15h3v2H3zm18 0v2h-3v-2zM3 19h18v2H3z"/></symbol><symbol id="hd-icon-mdi-format-wrap-top-bottom" viewBox="0 0 24 24"><path fill="currentColor" d="m12 7l5 10H7zM3 3h18v2H3zm0 16h18v2H3z"/></symbol><symbol id="hd-icon-mdi-forum" viewBox="0 0 24 24"><path fill="currentColor" d="M17 12V3a1 1 0 0 0-1-1H3a1 1 0 0 0-1 1v14l4-4h10a1 1 0 0 0 1-1m4-6h-2v9H6v2a1 1 0 0 0 1 1h11l4 4V7a1 1 0 0 0-1-1"/></symbol><symbol id="hd-icon-mdi-forum-minus" viewBox="0 0 24 24"><path fill="currentColor" d="M21 6h-2v6.1c1.2.2 2.2.7 3 1.4V7c0-.5-.5-1-1-1M6 17c0 .5.5 1 1 1h5c0-1.1.3-2.1.8-3H6zM16 2H3c-.5 0-1 .5-1 1v14l4-4h8.7c.7-.5 1.5-.8 2.3-.9V3c0-.5-.5-1-1-1m6 15v2h-8v-2z"/></symbol><symbol id="hd-icon-mdi-forum-minus-outline" viewBox="0 0 24 24"><path fill="currentColor" d="M21 6h-2v6.1c1.2.2 2.2.7 3 1.4V7c0-.5-.5-1-1-1M6 17c0 .5.5 1 1 1h5c0-1.1.3-2.1.8-3H6zM16 2H3c-.5 0-1 .5-1 1v14l4-4h8.7c.7-.5 1.5-.8 2.3-.9V3c0-.5-.5-1-1-1m-1 9H5.2L4 12.2V4h11zm7 6v2h-8v-2z"/></symbol><symbol id="hd-icon-mdi-forum-outline" viewBox="0 0 24 24"><path fill="currentColor" d="M15 4v7H5.17L4 12.17V4zm1-2H3a1 1 0 0 0-1 1v14l4-4h10a1 1 0 0 0 1-1V3a1 1 0 0 0-1-1m5 4h-2v9H6v2a1 1 0 0 0 1 1h11l4 4V7a1 1 0 0 0-1-1"/></symbol><symbol id="hd-icon-mdi-forum-plus" viewBox="0 0 24 24"><path fill="currentColor" d="M21 6h-2v6.1c1.2.2 2.2.7 3 1.4V7c0-.5-.5-1-1-1M6 17c0 .5.5 1 1 1h5c0-1.1.3-2.1.8-3H6zM16 2H3c-.5 0-1 .5-1 1v14l4-4h8.7c.7-.5 1.5-.8 2.3-.9V3c0-.5-.5-1-1-1m1 12h2v3h3v2h-3v3h-2v-3h-3v-2h3z"/></symbol><symbol id="hd-icon-mdi-forum-plus-outline" viewBox="0 0 24 24"><path fill="currentColor" d="M21 6h-2v6.1c1.2.2 2.2.7 3 1.4V7c0-.5-.5-1-1-1M6 17c0 .5.5 1 1 1h5c0-1.1.3-2.1.8-3H6zM16 2H3c-.5 0-1 .5-1 1v14l4-4h8.7c.7-.5 1.5-.8 2.3-.9V3c0-.5-.5-1-1-1m-1 9H5.2L4 12.2V4h11zm2 3h2v3h3v2h-3v3h-2v-3h-3v-2h3z"/></symbol><symbol id="hd-icon-mdi-forum-remove" viewBox="0 0 24 24"><path fill="currentColor" d="M21 6h-2v6.1c1.2.2 2.2.7 3 1.4V7c0-.5-.5-1-1-1M6 17c0 .5.5 1 1 1h5c0-1.1.3-2.1.8-3H6zM16 2H3c-.5 0-1 .5-1 1v14l4-4h8.7c.7-.5 1.5-.8 2.3-.9V3c0-.5-.5-1-1-1m4.12 12.46l1.42 1.42L19.41 18l2.13 2.12l-1.42 1.42L18 19.41l-2.12 2.13l-1.41-1.42L16.59 18l-2.12-2.12l1.41-1.41L18 16.59z"/></symbol><symbol id="hd-icon-mdi-forum-remove-outline" viewBox="0 0 24 24"><path fill="currentColor" d="M21 6h-2v6.1c1.2.2 2.2.7 3 1.4V7c0-.5-.5-1-1-1M6 17c0 .5.5 1 1 1h5c0-1.1.3-2.1.8-3H6zM16 2H3c-.5 0-1 .5-1 1v14l4-4h8.7c.7-.5 1.5-.8 2.3-.9V3c0-.5-.5-1-1-1m-1 9H5.2L4 12.2V4h11zm5.12 3.46l1.42 1.42L19.41 18l2.13 2.12l-1.42 1.42L18 19.41l-2.12 2.13l-1.41-1.42L16.59 18l-2.12-2.12l1.41-1.41L18 16.59z"/></symbol><symbol id="hd-icon-mdi-forward" viewBox="0 0 24 24"><path fill="currentColor" d="M12 8V4l8 8l-8 8v-4H4V8z"/></symbol><symbol id="hd-icon-mdi-forwardburger" viewBox="0 0 24 24"><path fill="currentColor" d="M19 13H3v-2h16l-4-4l1.4-1.4l6.4 6.4l-6.4 6.4L15 17zM3 6h10v2H3zm10 10v2H3v-2z"/></symbol><symbol id="hd-icon-mdi-fountain" viewBox="0 0 24 24"><path fill="currentColor" d="M7.5 2C4.47 2 2 4.46 2 7.5V8h2v-.5A3.5 3.5 0 0 1 7.5 4c1.5 0 2.76.93 3.26 2.24Q10.175 6 9.5 6c-1.39 0-2.6.82-3.16 2l1.74 1c.21-.58.77-1 1.42-1A1.5 1.5 0 0 1 11 9.5V11h2V9.5A1.5 1.5 0 0 1 14.5 8c.66 0 1.21.42 1.42 1l1.74-1c-.56-1.18-1.76-2-3.16-2q-.675 0-1.26.24C13.74 4.93 15 4 16.5 4A3.5 3.5 0 0 1 20 7.5V8h2v-.5A5.5 5.5 0 0 0 16.5 2c-1.86 0-3.5.93-4.5 2.34C11 2.93 9.36 2 7.5 2M6 12v2h1.42c.5 1.15 1.43 2.07 2.58 2.57V19H2s.82 1.23 1.41 2.11c.37.56.99.89 1.66.89h13.86c.67 0 1.29-.33 1.66-.89L22 19h-8v-2.43c1.15-.5 2.08-1.42 2.58-2.57H18v-2z"/></symbol><symbol id="hd-icon-mdi-fountain-pen" viewBox="0 0 24 24"><path fill="currentColor" d="m6.95 14.93l4.24-5.66l8.49-7.07c.39-.39 1.04-.39 1.41 0l.71.71c.39.37.39 1.02 0 1.41l-7.07 8.49l-5.66 4.24zm1.41 2.83l-2.12-2.12l-2.83 1.41L2 21.29l2.12-2.12c.2-.17.51-.17.71 0c.17.2.17.51 0 .71L2.71 22l4.24-1.41z"/></symbol><symbol id="hd-icon-mdi-fountain-pen-tip" viewBox="0 0 24 24"><path fill="currentColor" d="m15.54 3.5l4.96 4.97l-1.43 1.41l-4.95-4.95zM3.5 19.78l6.5-6.47c-.1-.31-.03-.7.23-.96c.39-.39 1.03-.39 1.42 0c.39.4.39 1.03 0 1.42c-.26.26-.65.33-.96.23l-6.47 6.5l10.61-3.55l3.53-6.36l-4.94-4.95l-6.37 3.53z"/></symbol><symbol id="hd-icon-mdi-foursquare" viewBox="0 0 24 24"><path d="M17 5l-.43 2.5c-.07.23-.37.5-.66.5H12c-.47 0-1.05.32-1.05.79v.41c0 .47.58.8 1.05.8h3.28c.33 0 .65.36.58.71c-.07.36-.92 2.57-.96 2.79c-.04.17-.26.5-.65.5h-2.88c-.52 0-.68.07-1.03.5c-.34.44-3.07 3.6-3.07 3.6c-.03.03-.27-.06-.27-.1V5c0-.3.61-1 1-1h8.5c.32 0 .58.61.5 1m0 9.45c.11-.48 1.78-7.73 2.22-9.9M17.58 2H6.91C5.43 2 5 3.11 5 3.8v16.96c0 .78.42 1.08.66 1.17c.24.1.89.18 1.28-.27c0 0 4.71-5.44 4.8-5.53c.13-.13.13-.13.26-.13h3.26c1.37 0 1.59-1 1.74-1.55c.11-.48 1.78-7.73 2.22-9.9c.34-1.66-.08-2.55-1.64-2.55z" fill="currentColor"/></symbol><symbol id="hd-icon-mdi-fraction-one-half" viewBox="0 0 24 24"><path fill="currentColor" d="m5.79 21.61l-1.58-1.22l14-18l1.58 1.22zM4 2v2h2v8h2V2zm11 10v2h4v2h-2c-1.1 0-2 .9-2 2v4h6v-2h-4v-2h2c1.11 0 2-.89 2-2v-2a2 2 0 0 0-2-2z"/></symbol><symbol id="hd-icon-mdi-freebsd" viewBox="0 0 24 24"><path fill="currentColor" d="M2.69 2c.85-.05 3.39 1.16 3.44 1.19c-1.29.81-2.39 1.9-3.22 3.19C2.09 4.81 1.34 2.91 2 2.25c.17-.17.4-.25.69-.25m18.15.13c.41-.05.74.01.94.21c1.07 1.08-1.9 5.81-2.4 6.32c-.51.5-1.81.04-2.88-1.03c-1.07-1.08-1.53-2.37-1.03-2.88c.41-.41 3.62-2.45 5.37-2.62M12 2.56c1.29 0 2.53.26 3.66.72c-.49.32-.85.57-.97.69c-.99.99-.55 2.86 1.03 4.44c.98.97 2.12 1.56 3.06 1.56c.68 0 1.14-.29 1.38-.53c.17-.17.44-.56.75-1.03c.51 1.18.78 2.47.78 3.84c0 5.36-4.33 9.72-9.69 9.72s-9.69-4.36-9.69-9.72A9.68 9.68 0 0 1 12 2.56"/></symbol><symbol id="hd-icon-mdi-french-fries" viewBox="0 0 24 24"><path fill="currentColor" d="M18 11V6h-3V4h-3V2H8v3H6v6H5l2 11h10l2-11zm-2.14 0c-.16.61-.46 1.16-.86 1.62v-4l2 1V11zM17 7v1.5l-2-1V7zm-5-2h2v3.5l-2 1zm0 5.62l2-1v3.83c-.59.35-1.27.55-2 .55zm-1 3.24c-.79-.21-1.5-.64-2-1.24v-3l2-1zM9 3h2v4.5L10 8V5H9zM7 6h2v2.5L8 9v2H7z"/></symbol><symbol id="hd-icon-mdi-frequently-asked-questions" viewBox="0 0 24 24"><path fill="currentColor" d="M18 15H6l-4 4V3a1 1 0 0 1 1-1h15a1 1 0 0 1 1 1v11a1 1 0 0 1-1 1m5-6v14l-4-4H8a1 1 0 0 1-1-1v-1h14V8h1a1 1 0 0 1 1 1M8.19 4c-.87 0-1.57.2-2.11.59c-.52.41-.78.98-.77 1.77l.01.03h1.93c.01-.3.1-.53.28-.69a1 1 0 0 1 .66-.23c.31 0 .57.1.75.28c.18.19.26.45.26.75c0 .32-.07.59-.23.82c-.14.23-.35.43-.61.59c-.51.34-.86.64-1.05.91C7.11 9.08 7 9.5 7 10h2c0-.31.04-.56.13-.74s.26-.36.51-.52c.45-.24.82-.53 1.11-.93s.44-.81.44-1.31c0-.76-.27-1.37-.81-1.82C9.85 4.23 9.12 4 8.19 4M7 11v2h2v-2zm6 2h2v-2h-2zm0-9v6h2V4z"/></symbol><symbol id="hd-icon-mdi-fridge" viewBox="0 0 24 24"><path fill="currentColor" d="M7 2h10a2 2 0 0 1 2 2v5H5V4a2 2 0 0 1 2-2m12 17a2 2 0 0 1-2 2v1h-2v-1H9v1H7v-1a2 2 0 0 1-2-2v-9h14zM8 5v2h2V5zm0 7v3h2v-3z"/></symbol><symbol id="hd-icon-mdi-fridge-alert" viewBox="0 0 24 24"><path fill="currentColor" d="M5 2h10a2 2 0 0 1 2 2v5H3V4c0-1.1.9-2 2-2m12 17c0 1.11-.89 2-2 2v1h-2v-1H7v1H5v-1a2 2 0 0 1-2-2v-9h14zM6 5v2h2V5zm0 7v3h2v-3zm13 3h2v2h-2zm0-8h2v6h-2z"/></symbol><symbol id="hd-icon-mdi-fridge-alert-outline" viewBox="0 0 24 24"><path fill="currentColor" d="M7 21v1H5v-1a2 2 0 0 1-2-2V4c0-1.1.9-2 2-2h10a2 2 0 0 1 2 2v15c0 1.11-.89 2-2 2v1h-2v-1zM5 4v5h10V4zm0 15h10v-8H5zm1-7h2v3H6zm0-6h2v2H6zm13 9h2v2h-2zm0-8h2v6h-2z"/></symbol><symbol id="hd-icon-mdi-fridge-bottom" viewBox="0 0 24 24"><path fill="currentColor" d="M7 2a2 2 0 0 0-2 2v15a2 2 0 0 0 2 2v1h2v-1h6v1h2v-1a2 2 0 0 0 2-2V4a2 2 0 0 0-2-2zm1 4h2v2H8zm-1 5h10v8H7zm1 1v3h2v-3z"/></symbol><symbol id="hd-icon-mdi-fridge-industrial" viewBox="0 0 24 24"><path fill="currentColor" d="M17 2H7c-1.1 0-2 .9-2 2v15a2 2 0 0 0 2 2v1h2v-1h6v1h2v-1c1.11 0 2-.89 2-2V4a2 2 0 0 0-2-2m-7 13H8v-5h2z"/></symbol><symbol id="hd-icon-mdi-fridge-industrial-alert" viewBox="0 0 24 24"><path fill="currentColor" d="M15 2H5c-1.1 0-2 .9-2 2v15a2 2 0 0 0 2 2v1h2v-1h6v1h2v-1c1.11 0 2-.89 2-2V4a2 2 0 0 0-2-2M8 15H6v-5h2zm13-8v6h-2V7zm-2 8h2v2h-2z"/></symbol><symbol id="hd-icon-mdi-fridge-industrial-alert-outline" viewBox="0 0 24 24"><path fill="currentColor" d="M8 15H6v-5h2zm9-11v15c0 1.11-.89 2-2 2v1h-2v-1H7v1H5v-1a2 2 0 0 1-2-2V4c0-1.1.9-2 2-2h10a2 2 0 0 1 2 2m-2 0H5v15h10zm4 13h2v-2h-2zm0-10v6h2V7z"/></symbol><symbol id="hd-icon-mdi-fridge-industrial-off" viewBox="0 0 24 24"><path fill="currentColor" d="M19 15.8L5.7 2.5c.35-.31.8-.5 1.3-.5h10a2 2 0 0 1 2 2zm3.11 5.66l-1.27 1.27l-2.38-2.38c-.36.4-.88.65-1.46.65v1h-2v-1H9v1H7v-1a2 2 0 0 1-2-2V6.89L1.11 3l1.28-1.27zM10 11.89L8.11 10H8v5h2z"/></symbol><symbol id="hd-icon-mdi-fridge-industrial-off-outline" viewBox="0 0 24 24"><path fill="currentColor" d="M7.2 4L5.7 2.5c.35-.31.8-.5 1.3-.5h10a2 2 0 0 1 2 2v11.8l-2-2V4zm14.91 17.46l-1.27 1.27l-2.38-2.38c-.36.4-.88.65-1.46.65v1h-2v-1H9v1H7v-1a2 2 0 0 1-2-2V6.89L1.11 3l1.28-1.27zM17 18.89l-7-7V15H8v-5h.11L7 8.89V19h10z"/></symbol><symbol id="hd-icon-mdi-fridge-industrial-outline" viewBox="0 0 24 24"><path fill="currentColor" d="M17 2H7c-1.1 0-2 .9-2 2v15a2 2 0 0 0 2 2v1h2v-1h6v1h2v-1c1.11 0 2-.89 2-2V4a2 2 0 0 0-2-2m0 17H7V4h10zm-7-4H8v-5h2z"/></symbol><symbol id="hd-icon-mdi-fridge-off" viewBox="0 0 24 24"><path fill="currentColor" d="M22.11 21.46L2.39 1.73L1.11 3L5 6.89V9h2.11l1 1H5v9a2 2 0 0 0 2 2v1h2v-1h6v1h2v-1c.58 0 1.1-.25 1.46-.65l2.38 2.38zM10 15H8v-3h2zm9 .8L13.2 10H19zM8.2 5L5.7 2.5c.35-.31.8-.5 1.3-.5h10a2 2 0 0 1 2 2v5h-6.8L10 6.8V5z"/></symbol><symbol id="hd-icon-mdi-fridge-off-outline" viewBox="0 0 24 24"><path fill="currentColor" d="M22.11 21.46L2.39 1.73L1.11 3L5 6.89V19a2 2 0 0 0 2 2v1h2v-1h6v1h2v-1c.58 0 1.1-.25 1.46-.65l2.38 2.38zM17 19H7v-8h2.11L17 18.89zM7.2 4L5.7 2.5c.35-.31.8-.5 1.3-.5h10a2 2 0 0 1 2 2v11.8l-2-2V11h-2.8l-2-2H17V4zm.8 8h2v3H8z"/></symbol><symbol id="hd-icon-mdi-fridge-outline" viewBox="0 0 24 24"><path fill="currentColor" d="M9 21v1H7v-1a2 2 0 0 1-2-2V4a2 2 0 0 1 2-2h10a2 2 0 0 1 2 2v15a2 2 0 0 1-2 2v1h-2v-1zM7 4v5h10V4zm0 15h10v-8H7zm1-7h2v3H8zm0-6h2v2H8z"/></symbol><symbol id="hd-icon-mdi-fridge-top" viewBox="0 0 24 24"><path fill="currentColor" d="M8 8V6h2v2zM7 2h10a2 2 0 0 1 2 2v15a2 2 0 0 1-2 2v1h-2v-1H9v1H7v-1a2 2 0 0 1-2-2V4a2 2 0 0 1 2-2m0 2v5h10V4zm1 8v3h2v-3z"/></symbol><symbol id="hd-icon-mdi-fridge-variant" viewBox="0 0 24 24"><path fill="currentColor" d="M19 4v15c0 1.11-.89 2-2 2v1h-2v-1h-2.5V2H17a2 2 0 0 1 2 2M7 2h4.5v19H9v1H7v-1a2 2 0 0 1-2-2V4c0-1.1.9-2 2-2m3 8H7v4h3z"/></symbol><symbol id="hd-icon-mdi-fridge-variant-alert" viewBox="0 0 24 24"><path fill="currentColor" d="M17 4v15c0 1.11-.89 2-2 2v1h-2v-1h-2.5V2H15a2 2 0 0 1 2 2M5 2h4.5v19H7v1H5v-1a2 2 0 0 1-2-2V4c0-1.1.9-2 2-2m3 8H5v4h3zm11-3v6h2V7zm0 10h2v-2h-2z"/></symbol><symbol id="hd-icon-mdi-fridge-variant-alert-outline" viewBox="0 0 24 24"><path fill="currentColor" d="M15 2H5c-1.1 0-2 .9-2 2v15a2 2 0 0 0 2 2v1h2v-1h6v1h2v-1c1.11 0 2-.89 2-2V4a2 2 0 0 0-2-2M9 19H5v-5h3v-4H5V4h4zm6 0h-4V4h4zm4-4h2v2h-2zm2-8v6h-2V7z"/></symbol><symbol id="hd-icon-mdi-fridge-variant-off" viewBox="0 0 24 24"><path fill="currentColor" d="M2.39 1.73L1.11 3L5 6.89V19a2 2 0 0 0 2 2v1h2v-1h2.5v-7.61l1 1V21H15v1h2v-1c.58 0 1.1-.25 1.46-.65l2.38 2.38l1.27-1.27zM10 14H7v-4h1.11L10 11.89zm9 1.8l-6.5-6.5V2H17a2 2 0 0 1 2 2zm-7.5-7.5L5.7 2.5c.35-.31.8-.5 1.3-.5h4.5z"/></symbol><symbol id="hd-icon-mdi-fridge-variant-off-outline" viewBox="0 0 24 24"><path fill="currentColor" d="M7.2 4L5.7 2.5c.35-.31.8-.5 1.3-.5h10a2 2 0 0 1 2 2v11.8l-2-2V4h-4v5.8l-2-2V4zm14.91 17.46l-1.27 1.27l-2.38-2.38c-.36.4-.88.65-1.46.65v1h-2v-1H9v1H7v-1a2 2 0 0 1-2-2V6.89L1.11 3l1.28-1.27zM7 10h1.11L7 8.89zm4 2.89l-1-1V14H7v5h4zm6 6l-4-4V19h4z"/></symbol><symbol id="hd-icon-mdi-fridge-variant-outline" viewBox="0 0 24 24"><path fill="currentColor" d="M17 2H7c-1.1 0-2 .9-2 2v15a2 2 0 0 0 2 2v1h2v-1h6v1h2v-1c1.11 0 2-.89 2-2V4a2 2 0 0 0-2-2M7 19v-5h3v-4H7V4h4v15zm10 0h-4V4h4z"/></symbol><symbol id="hd-icon-mdi-fruit-cherries" viewBox="0 0 24 24"><path fill="currentColor" d="M16 13h-.5c-.7-1.3-1.2-3-1.7-4.7l.9.9c2.7 2.1 5.1 1.7 5.1 1.7s.7-3.8-2-5.8c-2.3-1.8-4.4-1.8-5-1.7c-.1-.6-.1-1.1-.2-1.5l-1.4.1c0 3.2-2.7 9.1-3.6 11c-2 .2-3.6 1.9-3.6 4c0 2.2 1.8 4 4 4c1.1 0 2-.4 2.7-1.1c-.4-.9-.7-1.9-.7-2.9s.3-2 .7-2.9c-.4-.4-1-.7-1.5-.9c.7-1.5 1.9-4.2 2.7-6.8c.4 2.3 1.2 5 2.2 7.1c-1.2.7-2.1 2-2.1 3.5c0 2.2 1.8 4 4 4s4-1.8 4-4s-1.8-4-4-4m-8 2.5c-.8 0-1.5.7-1.5 1.5h-1c0-1.4 1.1-2.5 2.5-2.5zm8 0c-.8 0-1.5.7-1.5 1.5h-1c0-1.4 1.1-2.5 2.5-2.5z"/></symbol><symbol id="hd-icon-mdi-fruit-cherries-off" viewBox="0 0 24 24"><path fill="currentColor" d="M22.1 21.5L2.4 1.7L1.1 3l7.6 7.6c-.4 1-.8 1.9-1.1 2.4c-2 .2-3.6 1.9-3.6 4c0 2.2 1.8 4 4 4c1.1 0 2-.4 2.7-1.1c-.4-.9-.7-1.9-.7-2.9s.3-2 .7-2.9c-.4-.4-1-.7-1.5-.9c.2-.4.4-.9.7-1.5l2.9 2.9c-.5.7-.8 1.5-.8 2.4c0 2.2 1.8 4 4 4c.9 0 1.7-.3 2.3-.8l2.5 2.5zM8 15.5c-.8 0-1.5.7-1.5 1.5h-1c0-1.4 1.1-2.5 2.5-2.5zm6.5 1.5h-1c0-.5.1-.9.3-1.3l.8.8c-.1.2-.1.3-.1.5m5.5-.2L16.2 13c2 .1 3.7 1.8 3.8 3.8m-8.7-8.7l-1.2-1.2c.6-1.8 1.1-3.6 1.1-4.9l1.4-.1c.1.4.1.9.2 1.5c.6-.1 2.7-.1 5 1.7c2.7 2 2 5.8 2 5.8s-2.4.4-5.1-1.7l-.9-.9c.3 1.2.7 2.4 1.1 3.4l-2.3-2.3c-.3-1-.5-2-.7-3c-.2.6-.4 1.2-.6 1.7"/></symbol><symbol id="hd-icon-mdi-fruit-citrus" viewBox="0 0 24 24"><path fill="currentColor" d="M9 15.9c-2.1-.2-3.9-1-5-2.3c-.8 0-1.6-.5-1.9-1.3s0-1.6.7-2.1c.1-3 2.8-6.1 6.9-7.5S18 2.1 20 4.4c.8 0 1.6.5 1.9 1.3s0 1.6-.7 2.1q0 1.2-.6 2.4C19.4 9.5 18 9 16.5 9c-3.9 0-7.2 3-7.5 6.9m13 .6c0 3-2.5 5.5-5.5 5.5S11 19.5 11 16.5s2.5-5.5 5.5-5.5s5.5 2.5 5.5 5.5M13.3 18l2.3-1.5l-2.3-1.5q-.3.75-.3 1.5c0 .75.1 1 .3 1.5m2.7-.6l-2.1 1.4c.5.6 1.3 1 2.1 1.2zm0-4.3c-.8.1-1.6.5-2.1 1.2l2.1 1.4zm1 2.5l2.1-1.4c-.5-.6-1.3-1-2.1-1.2zm2.1 3.2L17 17.4v2.5c.8-.1 1.6-.5 2.1-1.1m.9-2.3q0-.75-.3-1.5l-2.3 1.5l2.3 1.5q.3-.75.3-1.5"/></symbol><symbol id="hd-icon-mdi-fruit-citrus-off" viewBox="0 0 24 24"><path fill="currentColor" d="M22.1 21.5L2.4 1.7L1.1 3l3.3 3.3c-1 1.2-1.5 2.6-1.6 3.9c-.7.5-1 1.3-.7 2.1s1.1 1.3 1.9 1.3c1.1 1.3 2.9 2.1 5 2.3c.1-1.4.6-2.6 1.3-3.7l1.5 1.5c-.5.8-.8 1.8-.8 2.8c0 3 2.5 5.5 5.5 5.5c1 0 2-.3 2.8-.8l1.5 1.5zm-9.1-5c0-.5.1-.9.3-1.4l1.7 1.7l-1.7 1.2q-.3-.75-.3-1.5m.9 2.3l1.8-1.2l.3.3V20c-.8-.2-1.6-.6-2.1-1.2m3.1 1.1v-1l.8.8c-.3.1-.5.2-.8.2m3-3.1v-.3q0-.75-.3-1.5l-.9.6l-.7-.7l1-.7c-.5-.6-1.3-1-2.1-1.2v.8l-2.4-2.4c.6-.2 1.3-.4 1.9-.4c3 0 5.5 2.5 5.5 5.5c0 .7-.1 1.3-.4 1.9zm-7-7L7.1 3.9c.8-.5 1.7-.9 2.6-1.2C13.8 1.3 18 2.1 20 4.4c.8 0 1.6.5 1.9 1.3s0 1.6-.7 2.1q0 1.2-.6 2.4C19.4 9.5 18 9 16.5 9c-1.2 0-2.4.3-3.5.8"/></symbol><symbol id="hd-icon-mdi-fruit-grapes" viewBox="0 0 24 24"><path fill="currentColor" d="M14 12c0 1.1-.9 2-2 2s-2-.9-2-2s.9-2 2-2s2 .9 2 2m-7-2c-1.1 0-2 .9-2 2s.9 2 2 2s2-.9 2-2s-.9-2-2-2m10 0c-1.1 0-2 .9-2 2s.9 2 2 2s2-.9 2-2s-.9-2-2-2m-2.5-4c-1.1 0-2 .9-2 2s.9 2 2 2s2-.9 2-2s-.9-2-2-2m-5 0c-1.1 0-2 .9-2 2s.9 2 2 2s2-.9 2-2s-.9-2-2-2m5 8c-1.1 0-2 .9-2 2s.9 2 2 2s2-.9 2-2s-.9-2-2-2m-5 0c-1.1 0-2 .9-2 2s.9 2 2 2s2-.9 2-2s-.9-2-2-2m2.5 4c-1.1 0-2 .9-2 2s.9 2 2 2s2-.9 2-2s-.9-2-2-2m2.4-15.8L13.6 1c-2.2 1-2.4 4.6-2.4 5h1.5c.1-.8.4-3.3 1.7-3.8"/></symbol><symbol id="hd-icon-mdi-fruit-grapes-outline" viewBox="0 0 24 24"><path fill="currentColor" d="M19 12c0-1.39-.95-2.53-2.22-2.88A2.996 2.996 0 0 0 14 5c-.43 0-.83.1-1.19.26c.19-1.07.58-2.67 1.59-3.06L13.6 1c-1.7.77-2.2 3.09-2.34 4.29C10.87 5.11 10.45 5 10 5a2.996 2.996 0 0 0-2.78 4.12C5.94 9.46 5 10.62 5 12c0 1.39.95 2.54 2.23 2.88c-.14.34-.23.72-.23 1.12c0 1.39.94 2.54 2.22 2.88A2.996 2.996 0 0 0 12 23a2.996 2.996 0 0 0 2.78-4.12A2.974 2.974 0 0 0 17 16c0-.4-.08-.77-.23-1.12A2.98 2.98 0 0 0 19 12m-2.69-2.12v.02h-.01zM14 6.5c.83 0 1.5.67 1.5 1.5s-.67 1.5-1.5 1.5s-1.5-.67-1.5-1.5s.67-1.5 1.5-1.5m-.5 5.5c0 .83-.67 1.5-1.5 1.5s-1.5-.67-1.5-1.5s.67-1.5 1.5-1.5s1.5.67 1.5 1.5M10 6.5c.83 0 1.5.67 1.5 1.5s-.67 1.5-1.5 1.5S8.5 8.83 8.5 8s.67-1.5 1.5-1.5M6.5 12c0-.83.67-1.5 1.5-1.5s1.5.67 1.5 1.5s-.67 1.5-1.5 1.5s-1.5-.67-1.5-1.5m2 4c0-.83.67-1.5 1.5-1.5s1.5.67 1.5 1.5s-.67 1.5-1.5 1.5s-1.5-.67-1.5-1.5m3.5 5.5c-.83 0-1.5-.67-1.5-1.5s.67-1.5 1.5-1.5s1.5.67 1.5 1.5s-.67 1.5-1.5 1.5m2-4c-.83 0-1.5-.67-1.5-1.5s.67-1.5 1.5-1.5s1.5.67 1.5 1.5s-.67 1.5-1.5 1.5m2-4c-.83 0-1.5-.67-1.5-1.5s.67-1.5 1.5-1.5s1.5.67 1.5 1.5s-.67 1.5-1.5 1.5"/></symbol><symbol id="hd-icon-mdi-fruit-pear" viewBox="0 0 24 24"><path fill="currentColor" d="M18 16c0 3.31-2.69 6-6 6s-6-2.69-6-6c0-3 2-3 2-6c0-1.44.75-2.78 2-3.5c.4-.23.82-.38 1.25-.46V5c0-.37-.08-.58-.22-.72C10.9 4.14 10.63 4 10 4V2.5c.88 0 1.6.23 2.09.72s.66 1.16.66 1.78v1.04c.43.08.86.23 1.25.46c1.25.72 2 2.06 2 3.5c0 3 2 3 2 6"/></symbol><symbol id="hd-icon-mdi-fruit-pineapple" viewBox="0 0 24 24"><path fill="currentColor" d="M14.4 7.7C16.4 6.4 19 7 19 7c-1.8-2.4-3.9-2.3-5.4-1.8V5c1.1-1.6 3.3-1.5 3.3-1.5c-1.6-1.4-3-1-3.9-.5c-.5-1.2-1-2-1-2c-.4.7-.7 1.4-1 2.1c-.9-.6-2.4-1-4 .4c0 0 2.3 0 3.4 1.7C8.9 4.7 6.8 4.6 5 7c0 0 2.6-.6 4.6.7C7.5 8.9 6 11.7 6 15c0 4.4 2.7 8 6 8s6-3.6 6-8c0-3.3-1.5-6.1-3.6-7.3m1.4 9.1c-.1.4-.2.8-.4 1.2L14 16l-1.5 2l1.6 2.1c-.3.2-.5.4-.8.6L12 19l-1.3 1.7c-.3-.1-.6-.3-.8-.6l1.6-2.1l-1.5-2l-1.5 1.9c-.1-.4-.3-.8-.4-1.2L9.5 15l-1.3-1.8c.1-.4.2-.8.4-1.2l1.4 2l1.5-2l-1.6-2.1c.3-.2.5-.4.8-.6L12 11l1.3-1.7c.3.1.6.3.8.6L12.5 12l1.5 2l1.5-1.9c.1.4.3.8.4 1.2L14.5 15zM12 13l1.5 2l-1.5 2l-1.5-2z"/></symbol><symbol id="hd-icon-mdi-fruit-watermelon" viewBox="0 0 24 24"><path fill="currentColor" d="M16.4 16.4c3.4-3.4 3.4-8.9 0-12.2L4.2 16.4c3.3 3.4 8.8 3.4 12.2 0M16 7c.6 0 1 .4 1 1s-.4 1-1 1s-1-.4-1-1s.4-1 1-1m0 4c.6 0 1 .4 1 1s-.4 1-1 1s-1-.4-1-1s.4-1 1-1m-4 0c.6 0 1 .4 1 1s-.4 1-1 1s-1-.4-1-1s.4-1 1-1m0 4c.6 0 1 .4 1 1s-.4 1-1 1s-1-.4-1-1s.4-1 1-1m-4 2c-.6 0-1-.4-1-1s.4-1 1-1s1 .4 1 1s-.4 1-1 1m10.6 1.6c-4.6 4.6-12 4.6-16.6 0l1.4-1.4c3.8 3.8 9.9 3.8 13.7 0s3.8-9.9 0-13.7L18.6 2c4.5 4.6 4.5 12 0 16.6"/></symbol><symbol id="hd-icon-mdi-fuel" viewBox="0 0 24 24"><path fill="currentColor" d="M3 2h3c.28 0 .53.11.71.29l2.08 2.09l.8-.79C10 3.2 10.5 3 11 3h6c.5 0 1 .2 1.41.59l1 1C19.8 5 20 5.5 20 6v13a2 2 0 0 1-2 2H8a2 2 0 0 1-2-2V8c0-.5.2-1 .59-1.41l.79-.8L5.59 4H3zm8 3v2h6V5zm.41 6l-2-2H8v1.41l2 2v3.18l-2 2V19h1.41l2-2h3.18l2 2H18v-1.41l-2-2v-3.18l2-2V9h-1.41l-2 2zm.59 2h2v2h-2z"/></symbol><symbol id="hd-icon-mdi-fuel-cell" viewBox="0 0 24 24"><path fill="currentColor" d="M6 3v2H4c-1.1 0-2 .9-2 2v10c0 1.1.9 2 2 2v1c0 1.1.9 2 2 2h1c1.1 0 2-.9 2-2v-1h6v1c0 1.1.9 2 2 2h1c1.1 0 2-.9 2-2v-1c1.1 0 2-.9 2-2H11V5H8V3zm10 0v2h-3v2h9c0-1.1-.9-2-2-2h-2V3zM7 7v4h2l-3 6v-4H4zm6 2v2h9V9zm0 4v2h9v-2z"/></symbol><symbol id="hd-icon-mdi-fullscreen" viewBox="0 0 24 24"><path fill="currentColor" d="M5 5h5v2H7v3H5zm9 0h5v5h-2V7h-3zm3 9h2v5h-5v-2h3zm-7 3v2H5v-5h2v3z"/></symbol><symbol id="hd-icon-mdi-fullscreen-exit" viewBox="0 0 24 24"><path fill="currentColor" d="M14 14h5v2h-3v3h-2zm-9 0h5v5H8v-3H5zm3-9h2v5H5V8h3zm11 3v2h-5V5h2v3z"/></symbol><symbol id="hd-icon-mdi-function" viewBox="0 0 24 24"><path fill="currentColor" d="M15.6 5.29c-1.1-.1-2.07.71-2.17 1.82L13.18 10H16v2h-3l-.44 5.07a3.986 3.986 0 0 1-4.33 3.63a4 4 0 0 1-3.06-1.87l1.5-1.5c.24.74.9 1.31 1.73 1.38c1.1.1 2.07-.71 2.17-1.82L11 12H8v-2h3.17l.27-3.07c.19-2.2 2.13-3.83 4.33-3.63c1.31.11 2.41.84 3.06 1.87l-1.5 1.5c-.24-.74-.9-1.31-1.73-1.38"/></symbol><symbol id="hd-icon-mdi-function-variant" viewBox="0 0 24 24"><path fill="currentColor" d="M12.42 5.29c-1.1-.1-2.07.71-2.17 1.82L10 10h2.82v2h-3l-.44 5.07A4.001 4.001 0 0 1 2 18.83l1.5-1.5c.33 1.05 1.46 1.64 2.5 1.3c.78-.24 1.33-.93 1.4-1.74L7.82 12h-3v-2H8l.27-3.07a4.01 4.01 0 0 1 4.33-3.65c1.26.11 2.4.81 3.06 1.89l-1.5 1.5c-.25-.77-.93-1.31-1.74-1.38M22 13.65l-1.41-1.41l-2.83 2.83l-2.83-2.83l-1.43 1.41l2.85 2.85l-2.85 2.81l1.43 1.41l2.83-2.83l2.83 2.83L22 19.31l-2.83-2.81z"/></symbol><symbol id="hd-icon-mdi-furigana-horizontal" viewBox="0 0 24 24"><path fill="currentColor" d="M8.5 2a2.5 2.5 0 0 0 0 5a2.5 2.5 0 0 0 0-5m7 0a2.5 2.5 0 0 0 0 5a2.5 2.5 0 0 0 0-5M11 8v2H5v2h9.95c-.42 1.13-1.45 2.5-2.79 3.67c-1.04-.93-1.81-1.85-2.34-2.67H7.5c.58 1.25 1.63 2.62 3.12 3.96l-4.07 3.26l-.79.62L7 22.41l.8-.63l4.37-3.5l4.38 3.5l.78.63l1.25-1.57l-.78-.62l-4.07-3.25c1.61-1.47 2.97-3.12 3.34-4.97H19v-2h-6V8z"/></symbol><symbol id="hd-icon-mdi-furigana-vertical" viewBox="0 0 24 24"><path fill="currentColor" d="M8 5v2H2v2h9.95c-.42 1.13-1.45 2.5-2.79 3.67c-1.04-.93-1.81-1.85-2.34-2.67H4.5c.58 1.25 1.63 2.62 3.12 3.96l-4.07 3.26l-.79.62L4 19.41l.8-.63l4.37-3.5l4.38 3.5l.78.63l1.25-1.57l-.78-.62l-4.07-3.25c1.61-1.47 2.97-3.12 3.34-4.97H16V7h-6V5zm11.5 1a2.5 2.5 0 0 0 0 5a2.5 2.5 0 0 0 0-5m-.03 7a2.5 2.5 0 0 0 0 5a2.5 2.5 0 0 0 0-5"/></symbol><symbol id="hd-icon-mdi-fuse" viewBox="0 0 24 24"><path fill="currentColor" d="M8 7v10h7V7zm3.16 9v-3.13H9.41L11.91 8v3.14h1.68zM16 2v4H7V2a1 1 0 0 1 1-1h7a1 1 0 0 1 1 1m0 16v4a1 1 0 0 1-1 1H8a1 1 0 0 1-1-1v-4z"/></symbol><symbol id="hd-icon-mdi-fuse-alert" viewBox="0 0 24 24"><path fill="currentColor" d="M6 7v10h7V7zm3.16 9v-3.13H7.41L9.91 8v3.14h1.68zM14 2v4H5V2c0-.55.45-1 1-1h7c.55 0 1 .45 1 1m0 16v4c0 .55-.45 1-1 1H6c-.55 0-1-.45-1-1v-4zm5-5h-2V7h2zm0 4h-2v-2h2z"/></symbol><symbol id="hd-icon-mdi-fuse-blade" viewBox="0 0 24 24"><path fill="currentColor" d="M10 21H8l-2-2v-3h4zm8-5h-4v5h2l2-2zM3 3v1a1 1 0 0 0 1 1v9a1 1 0 0 0 1 1h14a1 1 0 0 0 1-1V5a1 1 0 0 0 1-1V3zm8.83 10V9.73H10l2.61-5.07v3.27h1.75z"/></symbol><symbol id="hd-icon-mdi-fuse-off" viewBox="0 0 24 24"><path fill="currentColor" d="M15 11.8L10.2 7H15zM16 6V2c0-.55-.45-1-1-1H8c-.55 0-1 .45-1 1v1.8L9.2 6zM2.39 1.73L1.11 3L8 9.89V17h7.11l5.73 5.73l1.27-1.27zM7 22c0 .55.45 1 1 1h7c.55 0 1-.45 1-1v-4H7z"/></symbol><symbol id="hd-icon-mdi-gamepad" viewBox="0 0 24 24"><path fill="currentColor" d="m16.5 9l-3 3l3 3H22V9M9 16.5V22h6v-5.5l-3-3M7.5 9H2v6h5.5l3-3M15 7.5V2H9v5.5l3 3z"/></symbol><symbol id="hd-icon-mdi-gamepad-circle" viewBox="0 0 24 24"><path fill="currentColor" d="M5 8a4 4 0 0 1 4 4a4 4 0 0 1-4 4a4 4 0 0 1-4-4a4 4 0 0 1 4-4m7-7a4 4 0 0 1 4 4a4 4 0 0 1-4 4a4 4 0 0 1-4-4a4 4 0 0 1 4-4m0 14a4 4 0 0 1 4 4a4 4 0 0 1-4 4a4 4 0 0 1-4-4a4 4 0 0 1 4-4m7-7a4 4 0 0 1 4 4a4 4 0 0 1-4 4a4 4 0 0 1-4-4a4 4 0 0 1 4-4"/></symbol><symbol id="hd-icon-mdi-gamepad-circle-down" viewBox="0 0 24 24"><path fill="currentColor" d="M5 8a4 4 0 0 1 4 4a4 4 0 0 1-4 4a4 4 0 0 1-4-4a4 4 0 0 1 4-4m7-7a4 4 0 0 1 4 4a4 4 0 0 1-4 4a4 4 0 0 1-4-4a4 4 0 0 1 4-4m0 14a4 4 0 0 1 4 4a4 4 0 0 1-4 4a4 4 0 0 1-4-4a4 4 0 0 1 4-4m7-7a4 4 0 0 1 4 4a4 4 0 0 1-4 4a4 4 0 0 1-4-4a4 4 0 0 1 4-4m-7-5a2 2 0 0 0-2 2a2 2 0 0 0 2 2a2 2 0 0 0 2-2a2 2 0 0 0-2-2m-7 7a2 2 0 0 0-2 2a2 2 0 0 0 2 2a2 2 0 0 0 2-2a2 2 0 0 0-2-2m14 0a2 2 0 0 0-2 2a2 2 0 0 0 2 2a2 2 0 0 0 2-2a2 2 0 0 0-2-2"/></symbol><symbol id="hd-icon-mdi-gamepad-circle-left" viewBox="0 0 24 24"><path fill="currentColor" d="M5 8a4 4 0 0 1 4 4a4 4 0 0 1-4 4a4 4 0 0 1-4-4a4 4 0 0 1 4-4m7-7a4 4 0 0 1 4 4a4 4 0 0 1-4 4a4 4 0 0 1-4-4a4 4 0 0 1 4-4m0 14a4 4 0 0 1 4 4a4 4 0 0 1-4 4a4 4 0 0 1-4-4a4 4 0 0 1 4-4m7-7a4 4 0 0 1 4 4a4 4 0 0 1-4 4a4 4 0 0 1-4-4a4 4 0 0 1 4-4m0 2a2 2 0 0 0-2 2a2 2 0 0 0 2 2a2 2 0 0 0 2-2a2 2 0 0 0-2-2m-7 7a2 2 0 0 0-2 2a2 2 0 0 0 2 2a2 2 0 0 0 2-2a2 2 0 0 0-2-2m0-14a2 2 0 0 0-2 2a2 2 0 0 0 2 2a2 2 0 0 0 2-2a2 2 0 0 0-2-2"/></symbol><symbol id="hd-icon-mdi-gamepad-circle-outline" viewBox="0 0 24 24"><path fill="currentColor" d="M5 8a4 4 0 0 1 4 4a4 4 0 0 1-4 4a4 4 0 0 1-4-4a4 4 0 0 1 4-4m0 2a2 2 0 0 0-2 2a2 2 0 0 0 2 2a2 2 0 0 0 2-2a2 2 0 0 0-2-2m7-9a4 4 0 0 1 4 4a4 4 0 0 1-4 4a4 4 0 0 1-4-4a4 4 0 0 1 4-4m0 2a2 2 0 0 0-2 2a2 2 0 0 0 2 2a2 2 0 0 0 2-2a2 2 0 0 0-2-2m0 12a4 4 0 0 1 4 4a4 4 0 0 1-4 4a4 4 0 0 1-4-4a4 4 0 0 1 4-4m0 2a2 2 0 0 0-2 2a2 2 0 0 0 2 2a2 2 0 0 0 2-2a2 2 0 0 0-2-2m7-9a4 4 0 0 1 4 4a4 4 0 0 1-4 4a4 4 0 0 1-4-4a4 4 0 0 1 4-4m0 2a2 2 0 0 0-2 2a2 2 0 0 0 2 2a2 2 0 0 0 2-2a2 2 0 0 0-2-2"/></symbol><symbol id="hd-icon-mdi-gamepad-circle-right" viewBox="0 0 24 24"><path fill="currentColor" d="M5 8a4 4 0 0 1 4 4a4 4 0 0 1-4 4a4 4 0 0 1-4-4a4 4 0 0 1 4-4m7-7a4 4 0 0 1 4 4a4 4 0 0 1-4 4a4 4 0 0 1-4-4a4 4 0 0 1 4-4m0 14a4 4 0 0 1 4 4a4 4 0 0 1-4 4a4 4 0 0 1-4-4a4 4 0 0 1 4-4m7-7a4 4 0 0 1 4 4a4 4 0 0 1-4 4a4 4 0 0 1-4-4a4 4 0 0 1 4-4m-7-5a2 2 0 0 0-2 2a2 2 0 0 0 2 2a2 2 0 0 0 2-2a2 2 0 0 0-2-2m-7 7a2 2 0 0 0-2 2a2 2 0 0 0 2 2a2 2 0 0 0 2-2a2 2 0 0 0-2-2m7 7a2 2 0 0 0-2 2a2 2 0 0 0 2 2a2 2 0 0 0 2-2a2 2 0 0 0-2-2"/></symbol><symbol id="hd-icon-mdi-gamepad-circle-up" viewBox="0 0 24 24"><path fill="currentColor" d="M5 8a4 4 0 0 1 4 4a4 4 0 0 1-4 4a4 4 0 0 1-4-4a4 4 0 0 1 4-4m7-7a4 4 0 0 1 4 4a4 4 0 0 1-4 4a4 4 0 0 1-4-4a4 4 0 0 1 4-4m0 14a4 4 0 0 1 4 4a4 4 0 0 1-4 4a4 4 0 0 1-4-4a4 4 0 0 1 4-4m7-7a4 4 0 0 1 4 4a4 4 0 0 1-4 4a4 4 0 0 1-4-4a4 4 0 0 1 4-4M5 10a2 2 0 0 0-2 2a2 2 0 0 0 2 2a2 2 0 0 0 2-2a2 2 0 0 0-2-2m14 0a2 2 0 0 0-2 2a2 2 0 0 0 2 2a2 2 0 0 0 2-2a2 2 0 0 0-2-2m-7 7a2 2 0 0 0-2 2a2 2 0 0 0 2 2a2 2 0 0 0 2-2a2 2 0 0 0-2-2"/></symbol><symbol id="hd-icon-mdi-gamepad-down" viewBox="0 0 24 24"><path fill="currentColor" d="M9 2v5.5l3 3l3-3V2zM2 9v6h5.5l3-3l-3-3zm14.5 0l-3 3l3 3H22V9zM12 13.5l-3 3V22h6v-5.5zM11 18h2v2h-2z"/></symbol><symbol id="hd-icon-mdi-gamepad-left" viewBox="0 0 24 24"><path fill="currentColor" d="M9 2v5.5l3 3l3-3V2zM2 9v6h5.5l3-3l-3-3zm14.5 0l-3 3l3 3H22V9zM4 11h2v2H4zm8 2.5l-3 3V22h6v-5.5z"/></symbol><symbol id="hd-icon-mdi-gamepad-outline" viewBox="0 0 24 24"><path fill="currentColor" d="M7.5 9H2v6h5.5l3-3zM6 13H4v-2h2zm9-5.5V2H9v5.5l3 3zM11 4h2v2h-2zM9 16.5V22h6v-5.5l-3-3zm4 3.5h-2v-2h2zm3.5-11l-3 3l3 3H22V9zm3.5 4h-2v-2h2z"/></symbol><symbol id="hd-icon-mdi-gamepad-right" viewBox="0 0 24 24"><path fill="currentColor" d="M9 2v5.5l3 3l3-3V2zM2 9v6h5.5l3-3l-3-3zm14.5 0l-3 3l3 3H22V9zm1.5 2h2v2h-2zm-6 2.5l-3 3V22h6v-5.5z"/></symbol><symbol id="hd-icon-mdi-gamepad-round" viewBox="0 0 24 24"><path fill="currentColor" d="M4 8h4V4a2 2 0 0 1 2-2h4a2 2 0 0 1 2 2v4h4a2 2 0 0 1 2 2v4a2 2 0 0 1-2 2h-4v4a2 2 0 0 1-2 2h-4a2 2 0 0 1-2-2v-4H4a2 2 0 0 1-2-2v-4a2 2 0 0 1 2-2"/></symbol><symbol id="hd-icon-mdi-gamepad-round-down" viewBox="0 0 24 24"><path fill="currentColor" d="M4 8h4V4a2 2 0 0 1 2-2h4a2 2 0 0 1 2 2v4h4a2 2 0 0 1 2 2v4a2 2 0 0 1-2 2h-4v4a2 2 0 0 1-2 2h-4a2 2 0 0 1-2-2v-4H4a2 2 0 0 1-2-2v-4a2 2 0 0 1 2-2m6 8v4h4v-4z"/></symbol><symbol id="hd-icon-mdi-gamepad-round-left" viewBox="0 0 24 24"><path fill="currentColor" d="M4 8h4V4a2 2 0 0 1 2-2h4a2 2 0 0 1 2 2v4h4a2 2 0 0 1 2 2v4a2 2 0 0 1-2 2h-4v4a2 2 0 0 1-2 2h-4a2 2 0 0 1-2-2v-4H4a2 2 0 0 1-2-2v-4a2 2 0 0 1 2-2m0 2v4h4v-4z"/></symbol><symbol id="hd-icon-mdi-gamepad-round-outline" viewBox="0 0 24 24"><path fill="currentColor" d="M4 8h4V4a2 2 0 0 1 2-2h4a2 2 0 0 1 2 2v4h4a2 2 0 0 1 2 2v4a2 2 0 0 1-2 2h-4v4a2 2 0 0 1-2 2h-4a2 2 0 0 1-2-2v-4H4a2 2 0 0 1-2-2v-4a2 2 0 0 1 2-2m0 2v4h6v6h4v-6h6v-4h-6V4h-4v6z"/></symbol><symbol id="hd-icon-mdi-gamepad-round-right" viewBox="0 0 24 24"><path fill="currentColor" d="M4 8h4V4a2 2 0 0 1 2-2h4a2 2 0 0 1 2 2v4h4a2 2 0 0 1 2 2v4a2 2 0 0 1-2 2h-4v4a2 2 0 0 1-2 2h-4a2 2 0 0 1-2-2v-4H4a2 2 0 0 1-2-2v-4a2 2 0 0 1 2-2m12 2v4h4v-4z"/></symbol><symbol id="hd-icon-mdi-gamepad-round-up" viewBox="0 0 24 24"><path fill="currentColor" d="M4 8h4V4a2 2 0 0 1 2-2h4a2 2 0 0 1 2 2v4h4a2 2 0 0 1 2 2v4a2 2 0 0 1-2 2h-4v4a2 2 0 0 1-2 2h-4a2 2 0 0 1-2-2v-4H4a2 2 0 0 1-2-2v-4a2 2 0 0 1 2-2m6-4v4h4V4z"/></symbol><symbol id="hd-icon-mdi-gamepad-square" viewBox="0 0 24 24"><path fill="currentColor" d="M21 6H3a2 2 0 0 0-2 2v8a2 2 0 0 0 2 2h18a2 2 0 0 0 2-2V8a2 2 0 0 0-2-2m-10 7H8v3H6v-3H3v-2h3V8h2v3h3m4.5 4a1.5 1.5 0 0 1-1.5-1.5a1.5 1.5 0 0 1 1.5-1.5a1.5 1.5 0 0 1 1.5 1.5a1.5 1.5 0 0 1-1.5 1.5m4-3a1.5 1.5 0 0 1-1.5-1.5A1.5 1.5 0 0 1 19.5 9a1.5 1.5 0 0 1 1.5 1.5a1.5 1.5 0 0 1-1.5 1.5"/></symbol><symbol id="hd-icon-mdi-gamepad-square-outline" viewBox="0 0 24 24"><path fill="currentColor" d="M21 6H3a2 2 0 0 0-2 2v8a2 2 0 0 0 2 2h18a2 2 0 0 0 2-2V8a2 2 0 0 0-2-2m0 10H3V8h18M6 15h2v-2h2v-2H8V9H6v2H4v2h2m8.5-1a1.5 1.5 0 0 1 1.5 1.5a1.5 1.5 0 0 1-1.5 1.5a1.5 1.5 0 0 1-1.5-1.5a1.5 1.5 0 0 1 1.5-1.5m4-3a1.5 1.5 0 0 1 1.5 1.5a1.5 1.5 0 0 1-1.5 1.5a1.5 1.5 0 0 1-1.5-1.5A1.5 1.5 0 0 1 18.5 9"/></symbol><symbol id="hd-icon-mdi-gamepad-up" viewBox="0 0 24 24"><path fill="currentColor" d="M9 2v5.5l3 3l3-3V2zm2 2h2v2h-2zM2 9v6h5.5l3-3l-3-3zm14.5 0l-3 3l3 3H22V9zM12 13.5l-3 3V22h6v-5.5z"/></symbol><symbol id="hd-icon-mdi-gamepad-variant" viewBox="0 0 24 24"><path fill="currentColor" d="M7 6h10a6 6 0 0 1 6 6a6 6 0 0 1-6 6c-1.78 0-3.37-.77-4.47-2h-1.06c-1.1 1.23-2.69 2-4.47 2a6 6 0 0 1-6-6a6 6 0 0 1 6-6M6 9v2H4v2h2v2h2v-2h2v-2H8V9zm9.5 3a1.5 1.5 0 0 0-1.5 1.5a1.5 1.5 0 0 0 1.5 1.5a1.5 1.5 0 0 0 1.5-1.5a1.5 1.5 0 0 0-1.5-1.5m3-3a1.5 1.5 0 0 0-1.5 1.5a1.5 1.5 0 0 0 1.5 1.5a1.5 1.5 0 0 0 1.5-1.5A1.5 1.5 0 0 0 18.5 9"/></symbol><symbol id="hd-icon-mdi-gamepad-variant-outline" viewBox="0 0 24 24"><path fill="currentColor" d="M6 9h2v2h2v2H8v2H6v-2H4v-2h2zm12.5 0a1.5 1.5 0 0 1 1.5 1.5a1.5 1.5 0 0 1-1.5 1.5a1.5 1.5 0 0 1-1.5-1.5A1.5 1.5 0 0 1 18.5 9m-3 3a1.5 1.5 0 0 1 1.5 1.5a1.5 1.5 0 0 1-1.5 1.5a1.5 1.5 0 0 1-1.5-1.5a1.5 1.5 0 0 1 1.5-1.5M17 5a7 7 0 0 1 7 7a7 7 0 0 1-7 7c-1.96 0-3.73-.8-5-2.1A6.96 6.96 0 0 1 7 19a7 7 0 0 1-7-7a7 7 0 0 1 7-7zM7 7a5 5 0 0 0-5 5a5 5 0 0 0 5 5c1.64 0 3.09-.79 4-2h2c.91 1.21 2.36 2 4 2a5 5 0 0 0 5-5a5 5 0 0 0-5-5z"/></symbol><symbol id="hd-icon-mdi-gamma" viewBox="0 0 24 24"><path fill="currentColor" d="M11.76 19c1.16 0 1.82-1 1.82-2.71c0-1.09-.08-2.41-.28-3.62L18 5h-2.72l-2.57 4.82l-.16-.49C11.83 7.19 10.82 5 8.68 5C8 5 7.45 5.18 7 5.54C6 6.39 6 8 6 8.5h.91c.06-.44.3-1.67 1.34-1.67c1.75 0 2.55 3.17 3.15 5.59c-.9 2.16-1.4 3.72-1.4 4.55c0 .98.56 2.03 1.76 2.03"/></symbol><symbol id="hd-icon-mdi-gantry-crane" viewBox="0 0 24 24"><path fill="currentColor" d="M21 6h1V4h-1V3h-3v1H6V3H3v1H2v2h1v14H2v2h5v-2H6V6h5v1h.5v3.62c-.5.17-.81.63-.81 1.14c0 .44.23.84.61 1.06V14h.62c.34 0 .62.27.63.61c0 .35-.27.63-.62.63a.63.63 0 0 1-.54-.31a.618.618 0 0 0-1.07.62c.33.57.94.92 1.6.92c1.02-.01 1.84-.85 1.83-1.87c-.01-.77-.49-1.46-1.22-1.72v-.06c.59-.32.81-1.04.5-1.62c-.11-.2-.29-.39-.5-.5V7H13V6h5v14h-1v2h5v-2h-1zM5 15.29v1.42l-1 1v-1.42zM4 20v-.76l1-1v1.42l-.34.34zM4 7.29l1-1v1.42l-1 1zm0 3l1-1v1.42l-1 1zm0 3l1-1v1.42l-1 1v-1.47zm16 2v1.42l-1 1v-1.42zM19 20v-.76l1-1v1.42l-.34.34zm0-12.71l1-1v1.42l-1 1zm0 3l1-1v1.42l-1 1zm0 3l1-1v1.42l-1 1v-1.47z"/></symbol><symbol id="hd-icon-mdi-garage" viewBox="0 0 24 24"><path fill="currentColor" d="M19 20h-2v-9H7v9H5V9l7-4l7 4zM8 12h8v2H8zm0 3h8v2H8zm8 3v2H8v-2z"/></symbol><symbol id="hd-icon-mdi-garage-alert" viewBox="0 0 24 24"><path fill="currentColor" d="M17 20h-2v-9H5v9H3V9l7-4l7 4zM6 12h8v2H6zm0 3h8v2H6zm13 0v-5h2v5zm0 4v-2h2v2z"/></symbol><symbol id="hd-icon-mdi-garage-alert-variant" viewBox="0 0 24 24"><path fill="currentColor" d="M20 9v11h-2v-9H2v9H0V9l10-4zm-3 3H3v2h14zm0 3H3v2h14zm5 0v-5h2v5zm0 4v-2h2v2z"/></symbol><symbol id="hd-icon-mdi-garage-lock" viewBox="0 0 24 24"><path fill="currentColor" d="M20.8 16v-1.5c0-1.4-1.4-2.5-2.8-2.5s-2.8 1.1-2.8 2.5V16c-.6 0-1.2.6-1.2 1.2v3.5c0 .7.6 1.3 1.2 1.3h5.5c.7 0 1.3-.6 1.3-1.2v-3.5c0-.7-.6-1.3-1.2-1.3m-1.3 0h-3v-1.5c0-.8.7-1.3 1.5-1.3s1.5.5 1.5 1.3zM5 12h8v2H5zm0 3h7.95c-.53.54-.87 1.24-.95 2H5zm7 5H5v-2h7zm2-9H4v9H2V9l7-4l7 4v1.44c-.81.36-1.5.92-2 1.62z"/></symbol><symbol id="hd-icon-mdi-garage-open" viewBox="0 0 24 24"><path fill="currentColor" d="M19 20h-2v-9H7v9H5V9l7-4l7 4zM8 12h8v2H8z"/></symbol><symbol id="hd-icon-mdi-garage-open-variant" viewBox="0 0 24 24"><path fill="currentColor" d="M22 9v11h-2v-9H4v9H2V9l10-4zm-3 3H5v2h14z"/></symbol><symbol id="hd-icon-mdi-garage-variant" viewBox="0 0 24 24"><path fill="currentColor" d="M22 9v11h-2v-9H4v9H2V9l10-4zm-3 3H5v2h14zm0 6H5v2h14zm0-3H5v2h14z"/></symbol><symbol id="hd-icon-mdi-garage-variant-lock" viewBox="0 0 24 24"><path fill="currentColor" d="M21.8 16v-1.5c0-1.4-1.4-2.5-2.8-2.5s-2.8 1.1-2.8 2.5V16c-.6 0-1.2.6-1.2 1.2v3.5c0 .7.6 1.3 1.2 1.3h5.5c.7 0 1.3-.6 1.3-1.2v-3.5c0-.7-.6-1.3-1.2-1.3m-1.3 0h-3v-1.5c0-.8.7-1.3 1.5-1.3s1.5.5 1.5 1.3zM5 12h10.04c-.43.59-.69 1.27-.78 2H5zm11.06-1H4v9H2V9l10-4l10 4v2.04A4.9 4.9 0 0 0 19 10c-1.1 0-2.12.39-2.94 1M13 20H5v-2h8zm-8-5h8.95c-.53.54-.87 1.24-.95 2H5z"/></symbol><symbol id="hd-icon-mdi-gas-burner" viewBox="0 0 24 24"><path fill="currentColor" d="m16.14 8.79l-.02.01c.23.27.43.59.58.92l.09.19c.71 1.69.21 3.64-1.1 4.86c-1.19 1.09-2.85 1.38-4.39 1.18c-1.46-.18-2.8-1.1-3.57-2.37c-.23-.39-.43-.83-.53-1.28c-.13-.37-.17-.73-.2-1.1c-.09-1.6.55-3.3 1.76-4.3c-.55 1.21-.42 2.72.39 3.77l.11.13c.14.12.31.16.47.09c.15-.06.27-.21.27-.39l-.07-.22c-.88-2.32-.14-5.03 1.73-6.56c.51-.42 1.14-.8 1.8-.97c-.68 1.36-.46 3.14.63 4.21c.46.47 1.01.78 1.49 1.22zm-2.28 4.64l-.01-.01c.45-.39.7-1.06.68-1.66l-.03-.32c-.2-1-1.07-1.33-1.63-2.06c-.17-.22-.32-.5-.43-.78c-.22.5-.24.97-.15 1.51c.1.57.33 1.06.21 1.65c-.16.65-.67 1.3-1.56 1.51c.5.49 1.31.88 2.12.6c.26-.07.59-.26.8-.44M11 18v1c0 .55.45 1 1 1s1-.45 1-1v-1h2v1c0 .55.45 1 1 1s1-.45 1-1v-1c1.11 0 3 .9 3 2v2H4v-2c0-1.1 1.9-2 3-2v1c0 .55.45 1 1 1s1-.45 1-1v-1z"/></symbol><symbol id="hd-icon-mdi-gas-cylinder" viewBox="0 0 24 24"><path fill="currentColor" d="M16 9v11a2 2 0 0 1-2 2h-4a2 2 0 0 1-2-2V9c0-1.86 1.27-3.43 3-3.87V4H9V2h6v2h-2v1.13c1.73.44 3 2.01 3 3.87"/></symbol><symbol id="hd-icon-mdi-gas-station" viewBox="0 0 24 24"><path fill="currentColor" d="M18 10a1 1 0 0 1-1-1a1 1 0 0 1 1-1a1 1 0 0 1 1 1a1 1 0 0 1-1 1m-6 0H6V5h6m7.77 2.23l.01-.01l-3.72-3.72L15 4.56l2.11 2.11C16.17 7 15.5 7.93 15.5 9a2.5 2.5 0 0 0 2.5 2.5c.36 0 .69-.08 1-.21v7.21a1 1 0 0 1-1 1a1 1 0 0 1-1-1V14a2 2 0 0 0-2-2h-1V5a2 2 0 0 0-2-2H6c-1.11 0-2 .89-2 2v16h10v-7.5h1.5v5A2.5 2.5 0 0 0 18 21a2.5 2.5 0 0 0 2.5-2.5V9c0-.69-.28-1.32-.73-1.77"/></symbol><symbol id="hd-icon-mdi-gas-station-in-use" viewBox="0 0 24 24"><path fill="currentColor" d="M17 18.5v-10c0-.69.28-1.32.73-1.77l-.01-.01L21.44 3l1.06 1.06l-2.11 2.11C21.33 6.5 22 7.43 22 8.5c0 .33-.06.65-.19.96c-.13.3-.31.58-.54.81a2.505 2.505 0 0 1-2.77.52v7.71c0 .33-.07.65-.19.96c-.13.3-.31.58-.54.81s-.51.42-.81.54a2.505 2.505 0 0 1-2.73-.54c-.47-.47-.73-1.11-.73-1.77v-5H12V21H2V5c0-1.11.89-2 2-2h6a2 2 0 0 1 2 2v7h1a2 2 0 0 1 2 2v4.5c0 .27.11.5.29.71c.21.19.45.29.71.29c.27 0 .5-.1.71-.29c.19-.21.29-.44.29-.71M10 10V5H4v5zm9.5-.5c.27 0 .5-.1.71-.29c.19-.21.29-.44.29-.71c0-.26-.1-.5-.29-.71c-.21-.18-.44-.29-.71-.29c-.26 0-.5.11-.71.29c-.18.21-.29.45-.29.71c0 .27.11.5.29.71c.21.19.45.29.71.29"/></symbol><symbol id="hd-icon-mdi-gas-station-in-use-outline" viewBox="0 0 24 24"><path fill="currentColor" d="M17.73 6.73c-.45.45-.73 1.08-.73 1.77v10a1 1 0 0 1-2 0V14a2 2 0 0 0-2-2h-1V5a2 2 0 0 0-2-2H4c-1.11 0-2 .89-2 2v16h10v-7.5h1.5v5a2.5 2.5 0 0 0 5 0v-7.71c.31.13.64.21 1 .21A2.5 2.5 0 0 0 22 8.5c0-1.07-.67-2-1.61-2.33l2.11-2.11L21.44 3l-3.72 3.72zM4 10V5h6v5zm16.207-.793a1 1 0 1 1-1.414-1.414a1 1 0 0 1 1.414 1.414M10 12v7H4v-7z"/></symbol><symbol id="hd-icon-mdi-gas-station-off" viewBox="0 0 24 24"><path fill="currentColor" d="M1 4.27L2.28 3L21 21.72L19.73 23l-2.02-2a2.57 2.57 0 0 1-2.21-2.22L14 17.27V21H4V7.27zM18 10c.55 0 1-.45 1-1s-.45-1-1-1s-1 .45-1 1s.45 1 1 1m-6 0V5H6.82L5.06 3.23c.28-.15.6-.23.94-.23h6a2 2 0 0 1 2 2v7h1a2 2 0 0 1 2 2v1.18L11.82 10zm-6 0h.73L6 9.27zm13.77-2.77c.45.45.73 1.08.73 1.77v9.67L19 17.18v-5.89c-.31.13-.64.21-1 .21A2.5 2.5 0 0 1 15.5 9c0-1.07.67-1.97 1.61-2.33L15 4.56l1.06-1.06l3.72 3.72z"/></symbol><symbol id="hd-icon-mdi-gas-station-off-outline" viewBox="0 0 24 24"><path fill="currentColor" d="M1 4.27L2.28 3L6 6.72l15 15L19.73 23l-2.01-2a2.57 2.57 0 0 1-2.22-2.22L14 17.27V21H4V7.27zm18.77 2.96c.45.45.73 1.08.73 1.77v9.67L19 17.18v-5.89c-.31.13-.64.21-1 .21A2.5 2.5 0 0 1 15.5 9c0-1.07.67-1.97 1.61-2.33L15 4.56l1.06-1.06l3.72 3.72zM11.82 10H12V5H6.82L5.06 3.24c.28-.15.6-.24.94-.24h6c1.1 0 2 .9 2 2v7h1c1.1 0 2 .9 2 2v1.18zM6 10h.73L6 9.27zm0 2v7h6v-3.73L8.73 12zm12-2c.55 0 1-.45 1-1s-.45-1-1-1s-1 .45-1 1s.45 1 1 1"/></symbol><symbol id="hd-icon-mdi-gas-station-outline" viewBox="0 0 24 24"><path fill="currentColor" d="m19.77 7.23l.01-.01l-3.72-3.72L15 4.56l2.11 2.11c-.94.36-1.61 1.26-1.61 2.33a2.5 2.5 0 0 0 2.5 2.5c.36 0 .69-.08 1-.21v7.21a1 1 0 0 1-1 1a1 1 0 0 1-1-1V14a2 2 0 0 0-2-2h-1V5a2 2 0 0 0-2-2H6a2 2 0 0 0-2 2v16h10v-7.5h1.5v5A2.5 2.5 0 0 0 18 21a2.5 2.5 0 0 0 2.5-2.5V9c0-.69-.28-1.32-.73-1.77M12 13.5V19H6v-7h6zm0-3.5H6V5h6zm6 0a1 1 0 0 1-1-1a1 1 0 0 1 1-1a1 1 0 0 1 1 1a1 1 0 0 1-1 1"/></symbol><symbol id="hd-icon-mdi-gate" viewBox="0 0 24 24"><path fill="currentColor" d="M9 6v5H7V7H5v4H3V9H1v12h2v-2h2v2h2v-2h2v2h2v-2h2v2h2v-2h2v2h2v-2h2v2h2V9h-2v2h-2V7h-2v4h-2V6h-2v5h-2V6zm-6 7h2v4H3zm4 0h2v4H7zm4 0h2v4h-2zm4 0h2v4h-2zm4 0h2v4h-2z"/></symbol><symbol id="hd-icon-mdi-gate-alert" viewBox="0 0 24 24"><path fill="currentColor" d="M21 17h-2v2h2zm0-8h-2v6h2zm-4 4v-2h-2V6h-2v5h-2V6H9v5H7V7H5v4H3V9H1v12h2v-2h2v2h2v-2h2v2h2v-2h2v2h2v-2h2v-2h-2v-4zM5 17H3v-4h2zm4 0H7v-4h2zm4 0h-2v-4h2z"/></symbol><symbol id="hd-icon-mdi-gate-and" viewBox="0 0 24 24"><path fill="currentColor" d="M2 4v16h12a8 8 0 0 0 8-8a8 8 0 0 0-8-8zm2 2h10a6 6 0 0 1 6 6a6 6 0 0 1-6 6H4z"/></symbol><symbol id="hd-icon-mdi-gate-arrow-left" viewBox="0 0 24 24"><path fill="currentColor" d="M9 6H7v5H5V6H3v5H2v2h1v1.81c.62-.36 1.3-.6 2-.72V13h2v1.09c.7.12 1.38.36 2 .72V13h2v3.69c.65.98 1 2.13 1 3.31c0 .34-.03.67-.09 1H13v-2h2v2h2V9h-2v2h-2V7h-2v4H9zm6 7v4h-2v-4zM2 20l3 3v-2h4v-2H5v-2z"/></symbol><symbol id="hd-icon-mdi-gate-arrow-right" viewBox="0 0 24 24"><path fill="currentColor" d="M15 6v5h-2V7h-2v4H9V9H7v12h2v-2h2v2h1.09c-.06-.33-.09-.66-.09-1c0-1.18.35-2.33 1-3.31V13h2v1.81c.62-.36 1.3-.6 2-.72V13h2v1.09c.7.12 1.38.36 2 .72V13h1v-2h-1V6h-2v5h-2V6zm-6 7h2v4H9zm10 4v2h-4v2h4v2l3-3z"/></symbol><symbol id="hd-icon-mdi-gate-buffer" viewBox="0 0 24 24"><path fill="currentColor" d="M6 7.24L15.53 12L6 16.76zM4 4v16l16-8z"/></symbol><symbol id="hd-icon-mdi-gate-nand" viewBox="0 0 24 24"><path fill="currentColor" d="M2 4v16h8c3.43 0 6.5-2.16 7.6-5.4c.4.2.9.4 1.4.4a3 3 0 0 0 3-3a3 3 0 0 0-3-3c-.5 0-.97.15-1.4.4C16.5 6.16 13.43 4 10 4zm2 2h6a6 6 0 0 1 6 6a6 6 0 0 1-6 6H4zm15 5c.5 0 1 .5 1 1s-.5 1-1 1a1 1 0 0 1-1-1c0-.5.5-1 1-1"/></symbol><symbol id="hd-icon-mdi-gate-nor" viewBox="0 0 24 24"><path fill="currentColor" d="M2 4c3 6 3 10 0 16h3c4.4 0 8-2.3 11.6-6.3c.55.8 1.44 1.3 2.4 1.3a3 3 0 0 0 3-3a3 3 0 0 0-3-3c-.96 0-1.85.5-2.4 1.3C13 6.3 9.4 4 5 4zm3 2c3.8 0 7 2.1 10.3 6C12 15.9 8.8 18 5 18q2.25-6 0-12m14 5c.5 0 1 .5 1 1s-.5 1-1 1a1 1 0 0 1-1-1c0-.5.5-1 1-1"/></symbol><symbol id="hd-icon-mdi-gate-not" viewBox="0 0 24 24"><path fill="currentColor" d="M2 4v16l14.2-7c.42 1.19 1.54 2 2.8 2a3 3 0 0 0 3-3a3 3 0 0 0-3-3c-1.26 0-2.38.81-2.8 2zm2 3.3l9.7 4.7L4 16.7zM19 11c.5 0 1 .5 1 1s-.5 1-1 1a1 1 0 0 1-1-1c0-.5.5-1 1-1"/></symbol><symbol id="hd-icon-mdi-gate-open" viewBox="0 0 24 24"><path fill="currentColor" d="M7 21V7H5v4H3V9H1v12h2v-2h2v2zm-4-4v-4h2v4zm18-8v2h-2V7h-2v14h2v-2h2v2h2V9zm0 8h-2v-4h2z"/></symbol><symbol id="hd-icon-mdi-gate-or" viewBox="0 0 24 24"><path fill="currentColor" d="M2 4c3 6 3 10 0 16h6c5 0 11-4 14-8c-3-4-9-8-14-8zm3 2h3c3.5 0 8.3 3 11.3 6c-3 3-7.8 6-11.3 6H5c1.4-4.1 1.4-7.9 0-12"/></symbol><symbol id="hd-icon-mdi-gate-xnor" viewBox="0 0 24 24"><path fill="currentColor" d="M2 4c3 6 3 10 0 16h2c3-6 3-10 .1-16zm4 0c3 6 3 10 0 16h3c3.2 0 5.8-3.2 7.7-6c.58.65 1.42 1 2.3 1a3 3 0 0 0 3-3a3 3 0 0 0-3-3c-.88 0-1.72.35-2.3 1c-2-2.8-4.5-6-7.7-6zm3 2c3 0 5 4 6.5 6C14 14 12 18 9 18q2.4-6 0-12m10 5c.5 0 1 .5 1 1s-.5 1-1 1a1 1 0 0 1-1-1c0-.5.5-1 1-1"/></symbol><symbol id="hd-icon-mdi-gate-xor" viewBox="0 0 24 24"><path fill="currentColor" d="M2 4c3 6 3 10 0 16h2c3-6 3-10 .1-16zm4 0c3 6 3 10 0 16h3c5 0 9-3 13-8c-4-5-8-8-13-8zm3 2c3.8 0 7 2.1 10.3 6c-3.4 3.9-6.5 6-10.3 6q2.25-6 0-12"/></symbol><symbol id="hd-icon-mdi-gatsby" viewBox="0 0 24 24"><path fill="currentColor" d="M12 2a10 10 0 0 1 10 10a10 10 0 0 1-10 10A10 10 0 0 1 2 12A10 10 0 0 1 12 2m0 2c-3.73 0-6.86 2.55-7.75 6L14 19.75c3.45-.89 6-4.02 6-7.75h-5.25v1.5h3.45a6.37 6.37 0 0 1-3.89 4.44L6.06 9.69C7 7.31 9.3 5.63 12 5.63c2.13 0 4 1.04 5.18 2.65l1.23-1.06A7.96 7.96 0 0 0 12 4m-8 8a8 8 0 0 0 8 8c.04 0 .09 0-8-8"/></symbol><symbol id="hd-icon-mdi-gauge" viewBox="0 0 24 24"><path fill="currentColor" d="M12 2A10 10 0 0 0 2 12a10 10 0 0 0 10 10a10 10 0 0 0 10-10A10 10 0 0 0 12 2m0 2a8 8 0 0 1 8 8c0 2.4-1 4.5-2.7 6c-1.4-1.3-3.3-2-5.3-2s-3.8.7-5.3 2C5 16.5 4 14.4 4 12a8 8 0 0 1 8-8m2 1.89c-.38.01-.74.26-.9.65l-1.29 3.23l-.1.23c-.71.13-1.3.6-1.57 1.26c-.41 1.03.09 2.19 1.12 2.6s2.19-.09 2.6-1.12c.26-.66.14-1.42-.29-1.98l.1-.26l1.29-3.21l.01-.03c.2-.51-.05-1.09-.56-1.3c-.13-.05-.26-.07-.41-.07M10 6a1 1 0 0 0-1 1a1 1 0 0 0 1 1a1 1 0 0 0 1-1a1 1 0 0 0-1-1M7 9a1 1 0 0 0-1 1a1 1 0 0 0 1 1a1 1 0 0 0 1-1a1 1 0 0 0-1-1m10 0a1 1 0 0 0-1 1a1 1 0 0 0 1 1a1 1 0 0 0 1-1a1 1 0 0 0-1-1"/></symbol><symbol id="hd-icon-mdi-gauge-empty" viewBox="0 0 24 24"><path fill="currentColor" d="M12 2a10 10 0 0 1 10 10a10 10 0 0 1-10 10A10 10 0 0 1 2 12A10 10 0 0 1 12 2m0 2a8 8 0 0 0-8 8c0 2.4 1 4.5 2.7 6c1.4-1.3 3.3-2 5.3-2s3.8.7 5.3 2c1.7-1.5 2.7-3.6 2.7-6a8 8 0 0 0-8-8m2 2a1 1 0 0 1 1 1a1 1 0 0 1-1 1a1 1 0 0 1-1-1a1 1 0 0 1 1-1m-4 0a1 1 0 0 1 1 1a1 1 0 0 1-1 1a1 1 0 0 1-1-1a1 1 0 0 1 1-1M6.91 8.94c.13 0 .25.03.39.06l3.2 1.32l.27.11c.56-.43 1.32-.55 1.98-.28c1.02.41 1.52 1.58 1.1 2.6a1.99 1.99 0 0 1-2.6 1.1c-.66-.26-1.13-.85-1.25-1.57l-.23-.1l-3.22-1.3l-.02-.01c-.53-.21-.76-.79-.56-1.31a1 1 0 0 1 .94-.62M17 9a1 1 0 0 1 1 1a1 1 0 0 1-1 1a1 1 0 0 1-1-1a1 1 0 0 1 1-1"/></symbol><symbol id="hd-icon-mdi-gauge-full" viewBox="0 0 24 24"><path fill="currentColor" d="M12 2A10 10 0 0 0 2 12a10 10 0 0 0 10 10a10 10 0 0 0 10-10A10 10 0 0 0 12 2m0 2a8 8 0 0 1 8 8c0 2.4-1 4.5-2.7 6c-1.4-1.3-3.3-2-5.3-2s-3.8.7-5.3 2C5 16.5 4 14.4 4 12a8 8 0 0 1 8-8m-2 2a1 1 0 0 0-1 1a1 1 0 0 0 1 1a1 1 0 0 0 1-1a1 1 0 0 0-1-1m4 0a1 1 0 0 0-1 1a1 1 0 0 0 1 1a1 1 0 0 0 1-1a1 1 0 0 0-1-1m3.09 2.94c-.13 0-.25.03-.39.06l-3.2 1.32l-.27.11c-.56-.43-1.32-.55-1.98-.28a1.99 1.99 0 0 0-1.1 2.6a1.99 1.99 0 0 0 2.6 1.1c.66-.26 1.13-.85 1.25-1.57l.23-.1l3.22-1.3l.02-.01c.53-.21.76-.79.56-1.31a1 1 0 0 0-.94-.62M7 9a1 1 0 0 0-1 1a1 1 0 0 0 1 1a1 1 0 0 0 1-1a1 1 0 0 0-1-1"/></symbol><symbol id="hd-icon-mdi-gauge-low" viewBox="0 0 24 24"><path fill="currentColor" d="M12 2a10 10 0 0 1 10 10a10 10 0 0 1-10 10A10 10 0 0 1 2 12A10 10 0 0 1 12 2m0 2a8 8 0 0 0-8 8c0 2.4 1 4.5 2.7 6c1.4-1.3 3.3-2 5.3-2s3.8.7 5.3 2c1.7-1.5 2.7-3.6 2.7-6a8 8 0 0 0-8-8m-2 1.89c.38.01.74.26.9.65l1.29 3.23l.1.23c.71.13 1.3.6 1.57 1.26c.41 1.03-.09 2.19-1.12 2.6s-2.19-.09-2.6-1.12c-.26-.66-.14-1.42.29-1.98l-.1-.26l-1.29-3.21l-.01-.03c-.2-.51.05-1.09.56-1.3c.13-.05.26-.07.41-.07M14 6a1 1 0 0 1 1 1a1 1 0 0 1-1 1a1 1 0 0 1-1-1a1 1 0 0 1 1-1m3 3a1 1 0 0 1 1 1a1 1 0 0 1-1 1a1 1 0 0 1-1-1a1 1 0 0 1 1-1M7 9a1 1 0 0 1 1 1a1 1 0 0 1-1 1a1 1 0 0 1-1-1a1 1 0 0 1 1-1"/></symbol><symbol id="hd-icon-mdi-gavel" viewBox="0 0 24 24"><path fill="currentColor" d="m2.3 20.28l9.6-9.6l-1.4-1.42l-.72.71a.996.996 0 0 1-1.41 0l-.71-.71a.996.996 0 0 1 0-1.41l5.66-5.66a.996.996 0 0 1 1.41 0l.71.71c.39.39.39 1.02 0 1.41l-.71.69l1.42 1.43a.996.996 0 0 1 1.41 0c.39.39.39 1.03 0 1.42l1.41 1.41l.71-.71c.39-.39 1.03-.39 1.42 0l.7.71c.39.39.39 1.03 0 1.42l-5.65 5.65c-.39.39-1.03.39-1.42 0l-.7-.7a.99.99 0 0 1 0-1.42l.7-.71l-1.41-1.41l-9.61 9.61a.996.996 0 0 1-1.41 0c-.39-.39-.39-1.03 0-1.42M20 19a2 2 0 0 1 2 2v1H12v-1a2 2 0 0 1 2-2z"/></symbol><symbol id="hd-icon-mdi-gender-female" viewBox="0 0 24 24"><path fill="currentColor" d="M12 4a6 6 0 0 1 6 6c0 2.97-2.16 5.44-5 5.92V18h2v2h-2v2h-2v-2H9v-2h2v-2.08c-2.84-.48-5-2.95-5-5.92a6 6 0 0 1 6-6m0 2a4 4 0 0 0-4 4a4 4 0 0 0 4 4a4 4 0 0 0 4-4a4 4 0 0 0-4-4"/></symbol><symbol id="hd-icon-mdi-gender-male" viewBox="0 0 24 24"><path fill="currentColor" d="M9 9c1.29 0 2.5.41 3.47 1.11L17.58 5H13V3h8v8h-2V6.41l-5.11 5.09c.7 1 1.11 2.2 1.11 3.5a6 6 0 0 1-6 6a6 6 0 0 1-6-6a6 6 0 0 1 6-6m0 2a4 4 0 0 0-4 4a4 4 0 0 0 4 4a4 4 0 0 0 4-4a4 4 0 0 0-4-4"/></symbol><symbol id="hd-icon-mdi-gender-male-female" viewBox="0 0 24 24"><path fill="currentColor" d="M17.58 4H14V2h7v7h-2V5.41l-3.83 3.83A5 5 0 0 1 12 16.9V19h2v2h-2v2h-2v-2H8v-2h2v-2.1A5 5 0 0 1 6 12a5 5 0 0 1 5-5c1 0 1.96.3 2.75.83zM11 9a3 3 0 0 0-3 3a3 3 0 0 0 3 3a3 3 0 0 0 3-3a3 3 0 0 0-3-3"/></symbol><symbol id="hd-icon-mdi-gender-male-female-variant" viewBox="0 0 24 24"><path fill="currentColor" d="M7 3a5 5 0 0 0 2 4a5 5 0 0 0-2 4a5 5 0 0 0 4 4.9V18H9v2h2v2h2v-2h2v-2h-2v-2.1a5 5 0 0 0 4-4.9a5 5 0 0 0-2-4a5 5 0 0 0 2-4h-2a3 3 0 0 1-3 3a3 3 0 0 1-3-3m3 5a3 3 0 0 1 3 3a3 3 0 0 1-3 3a3 3 0 0 1-3-3a3 3 0 0 1 3-3"/></symbol><symbol id="hd-icon-mdi-gender-non-binary" viewBox="0 0 24 24"><path fill="currentColor" d="M13 3h-2v2.27L9.04 4.13l-1 1.74L10 7L8.04 8.13l1 1.74L11 8.73v3.37a5 5 0 1 0 2 0V8.73l1.96 1.14l1-1.74L14 7l1.96-1.13l-1-1.74L13 5.27zm-1 17c-1.65 0-3-1.35-3-3s1.35-3 3-3s3 1.35 3 3s-1.35 3-3 3"/></symbol><symbol id="hd-icon-mdi-gender-transgender" viewBox="0 0 24 24"><path fill="currentColor" d="M19.58 3H15V1h8v8h-2V4.41l-4.83 4.83A5 5 0 0 1 13 16.9V19h2v2h-2v2h-2v-2H9v-2h2v-2.1a5 5 0 0 1-3.18-7.64L6.64 8.07l-1.4 1.39l-1.41-1.42l1.4-1.39L3 4.42V8H1V1h7v2H4.41l2.23 2.24l1.44-1.43L9.5 5.23L8.06 6.66l1.17 1.18C10 7.31 11 7 12 7s1.96.3 2.75.83zM12 9a3 3 0 0 0-3 3a3 3 0 0 0 3 3a3 3 0 0 0 3-3a3 3 0 0 0-3-3"/></symbol><symbol id="hd-icon-mdi-generator-mobile" viewBox="0 0 24 24"><path fill="currentColor" d="M4 2H2v17a2 2 0 0 0 2 2h8.1c-.07-.32-.1-.66-.1-1s.03-.68.1-1H4zm9 15c.91-1.21 2.36-2 4-2s3.09.79 4 2h1V6c0-1.11-.89-2-2-2H8a2 2 0 0 0-2 2v11zm7-11v2h-6V6zm-6 4h6v2h-6zm-7 1l3-6v4h2l-3 6v-4zm7.17 8a3 3 0 0 0-.17 1a3 3 0 0 0 3 3c1.66 0 3-1.34 3-3s-1.34-3-3-3c-1.31 0-2.42.84-2.83 2"/></symbol><symbol id="hd-icon-mdi-generator-portable" viewBox="0 0 24 24"><path fill="currentColor" d="M7 2c-1.1 0-2 .9-2 2v2H4c-1.1 0-2 .9-2 2v12h2v1c0 .55.45 1 1 1h1c.55 0 1-.45 1-1v-1h10v1c0 .55.45 1 1 1h1c.55 0 1-.45 1-1v-1h2V8a2 2 0 0 0-2-2h-1V4a2 2 0 0 0-2-2zm7 8V8h6v2zm0 4v-2h6v2zM7 4h10v2H7zm0 4v4h2l-3 6v-4H4z"/></symbol><symbol id="hd-icon-mdi-generator-stationary" viewBox="0 0 24 24"><path fill="currentColor" d="M6 3a2 2 0 0 0-2 2v11h2v1c0 .55.45 1 1 1h1c.55 0 1-.45 1-1v-1h6v1c0 .55.45 1 1 1h1c.55 0 1-.45 1-1v-1h2V5a2 2 0 0 0-2-2zm6 4V5h6v2zm0 2h6v2h-6zM8 5v4h2l-3 6v-4H5zm14 15v2H2v-2z"/></symbol><symbol id="hd-icon-mdi-gentoo" viewBox="0 0 24 24"><path fill="currentColor" d="M10.28 2c-.35 0-.71.03-1.05.1c-3.62.66-6.17 3.79-6.38 5.86c-.11 1.01.44 1.77.74 2.1c.81.91 2.44 1.6 3.48 2.17c-1.51 1.27-2.2 1.91-2.88 2.63c-1.02 1.07-1.74 2.24-1.74 3.09c0 .27-.05 1.14.31 1.82c.13.26.51 1.12 1.65 1.76c.73.41 1.76.56 2.78.42c3.14-.45 7.35-3.12 10.36-5.6c1.91-1.58 3.31-3.12 3.71-3.85c.33-.63.37-1.72.18-2.41c-.54-1.95-4.91-5.94-8.48-7.54c-.82-.37-1.76-.55-2.68-.55m1.06 2.91q.375 0 .66.09c1.15.3 3.08 1.68 2.91 2.94c-.23 1.66-1.68 2.33-3.35 2.09c-.98-.13-2.93-1.23-2.78-3.14c.11-1.49 1.52-1.99 2.56-1.98m-.02 1.74c-.27 0-.48.06-.58.22c-.47.72-.24 1.22.18 1.55c.15-.38 1.79.03 1.83.37c1.42-1.07-.39-2.13-1.43-2.14"/></symbol><symbol id="hd-icon-mdi-gesture" viewBox="0 0 24 24"><path fill="currentColor" d="M4.59 6.89C5.29 6.18 6 5.54 6.3 5.67c.5.2 0 1.03-.3 1.52c-.25.42-2.86 3.89-2.86 6.31c0 1.28.48 2.34 1.36 3a3 3 0 0 0 2.62.44c1.07-.31 1.95-1.4 3.06-2.77c1.21-1.49 2.82-3.44 4.08-3.44c1.63 0 1.65 1.01 1.74 1.77c-3.76.66-5.36 3.69-5.36 5.39S12.08 21 13.85 21c1.65 0 4.29-1.35 4.69-6.12H21v-2.5h-2.47c-.15-1.65-1.09-4.2-4.03-4.2c-2.25 0-4.18 1.91-4.94 2.82c-.56.75-2.06 2.5-2.29 2.74c-.27.3-.68.84-1.11.84c-.45 0-.72-.83-.36-1.92c.35-1.09 1.4-2.86 1.85-3.52c.78-1.14 1.3-1.92 1.3-3.28C8.95 3.69 7.31 3 6.44 3C5.12 3 3.97 4 3.72 4.25c-.36.36-.66.66-.88.93zm9.29 11.66c-.31 0-.74-.26-.74-.72c0-.6.73-2.2 2.86-2.76c-.29 2.69-1.42 3.48-2.12 3.48"/></symbol><symbol id="hd-icon-mdi-gesture-double-tap" viewBox="0 0 24 24"><path fill="currentColor" d="M10 9a1 1 0 0 1 1-1a1 1 0 0 1 1 1v4.47l1.21.13l4.94 2.19c.53.24.85.77.85 1.35v4.36c-.03.82-.68 1.47-1.5 1.5H11c-.38 0-.74-.15-1-.43l-4.9-4.2l.74-.77c.19-.21.46-.32.74-.32h.22L10 19zm1-4a4 4 0 0 1 4 4c0 1.5-.8 2.77-2 3.46v-1.22c.61-.55 1-1.35 1-2.24a3 3 0 0 0-3-3a3 3 0 0 0-3 3c0 .89.39 1.69 1 2.24v1.22C7.8 11.77 7 10.5 7 9a4 4 0 0 1 4-4m0-2a6 6 0 0 1 6 6c0 1.7-.71 3.23-1.84 4.33l-1-.45A5.02 5.02 0 0 0 16 9a5 5 0 0 0-5-5a5 5 0 0 0-5 5c0 2.05 1.23 3.81 3 4.58v1.08C6.67 13.83 5 11.61 5 9a6 6 0 0 1 6-6"/></symbol><symbol id="hd-icon-mdi-gesture-pinch" viewBox="0 0 24 24"><path fill="currentColor" d="M13 9a1 1 0 0 1 1-1a1 1 0 0 1 1 1v4.47l1.21.13l4.94 2.2c.52.24.85.76.85 1.34v4.36c-.03.82-.68 1.47-1.5 1.5H14c-.38 0-.74-.15-1-.43l-4.9-4.2l.74-.77c.19-.21.46-.32.74-.32h.22L13 19zm1-4c1.42 0 2.74.76 3.45 2c1.11 1.9.46 4.35-1.45 5.46v-1.23c.64-.56 1-1.38 1-2.23a3 3 0 0 0-3-3a3 3 0 0 0-3 3c0 .85.36 1.67 1 2.23v1.23c-1.23-.71-2-2.03-2-3.46a4 4 0 0 1 4-4M4 9l3 3H5v3H3v-3H1zm0-2L1 4h2V1h2v3h2zm5 7c.73 0 1.41.19 2 .54v1.22c-.53-.47-1.23-.76-2-.76a3 3 0 0 0-3 3c0 1 .5 1.87 1.22 2.42L9.31 22H9a4 4 0 0 1-4-4a4 4 0 0 1 4-4"/></symbol><symbol id="hd-icon-mdi-gesture-spread" viewBox="0 0 24 24"><path fill="currentColor" d="m4 1l3 3H5v3H3V4H1zm0 14l-3-3h2V9h2v3h2zm9-6a1 1 0 0 1 1-1a1 1 0 0 1 1 1v4.47l1.21.13l4.94 2.2c.52.24.85.76.85 1.34v4.36c-.03.82-.68 1.47-1.5 1.5H14c-.38 0-.74-.15-1-.43l-4.9-4.2l.74-.77c.19-.21.46-.32.74-.32h.22L13 19zm1-4c1.42 0 2.74.76 3.45 2c1.11 1.9.46 4.35-1.45 5.46v-1.23c.64-.56 1-1.38 1-2.23a3 3 0 0 0-3-3a3 3 0 0 0-3 3c0 .85.36 1.67 1 2.23v1.23c-1.23-.71-2-2.03-2-3.46a4 4 0 0 1 4-4m-5 9c.73 0 1.41.19 2 .54v1.22c-.53-.47-1.23-.76-2-.76a3 3 0 0 0-3 3c0 1 .5 1.87 1.22 2.42L9.31 22H9a4 4 0 0 1-4-4a4 4 0 0 1 4-4"/></symbol><symbol id="hd-icon-mdi-gesture-swipe" viewBox="0 0 24 24"><path fill="currentColor" d="M20.11 3.89L22 2v5h-5l2.08-2.08c-.53-.69-1.44-1.26-2.72-1.73S13.63 2.5 12 2.5c-1.62 0-3.08.22-4.36.69S5.45 4.23 4.92 4.92L7 7H2V2l1.89 1.89C4.64 3 5.74 2.31 7.2 1.78C8.65 1.25 10.25 1 12 1s3.35.25 4.8.78c1.46.53 2.56 1.22 3.31 2.11m-.38 12.38v.18L19 21.7c-.08.38-.24.69-.5.94c-.27.25-.59.36-.97.36h-6.8c-.37 0-.73-.14-1.03-.45l-4.97-4.92l.8-.8c.22-.22.47-.33.8-.33h.23l3.44.75V6.5c0-.39.13-.74.43-1.04S11.08 5 11.5 5c.39 0 .74.16 1.04.46s.46.65.46 1.04v6h.78c.1 0 .27.05.52.11l4.54 2.25c.6.28.89.75.89 1.41"/></symbol><symbol id="hd-icon-mdi-gesture-swipe-down" viewBox="0 0 24 24"><path fill="currentColor" d="M10 9a1 1 0 0 1 1-1a1 1 0 0 1 1 1v4.47l1.21.13l4.94 2.19c.53.24.85.77.85 1.35v4.36c-.03.82-.68 1.47-1.5 1.5H11c-.38 0-.74-.15-1-.43l-4.9-4.2l.74-.77c.19-.21.46-.32.74-.32h.22L10 19zM1 9l3 3l3-3H5V3H3v6z"/></symbol><symbol id="hd-icon-mdi-gesture-swipe-horizontal" viewBox="0 0 24 24"><path fill="currentColor" d="M6 1L3 4l3 3V5h3v2l3-3l-3-3v2H6zm5 7a1 1 0 0 0-1 1v10l-3.2-1.72h-.22c-.28 0-.55.11-.74.32l-.74.77l4.9 4.2c.26.28.62.43 1 .43h6.5a1.5 1.5 0 0 0 1.5-1.5v-4.36c0-.58-.32-1.11-.85-1.35l-4.94-2.19l-1.21-.13V9a1 1 0 0 0-1-1"/></symbol><symbol id="hd-icon-mdi-gesture-swipe-left" viewBox="0 0 24 24"><path fill="currentColor" d="M10 9a1 1 0 0 1 1-1a1 1 0 0 1 1 1v4.47l1.21.13l4.94 2.19c.53.24.85.77.85 1.35v4.36c-.03.82-.68 1.47-1.5 1.5H11c-.38 0-.74-.15-1-.43l-4.9-4.2l.74-.77c.19-.21.46-.32.74-.32h.22L10 19zM3 4l3 3V5h6V3H6V1z"/></symbol><symbol id="hd-icon-mdi-gesture-swipe-right" viewBox="0 0 24 24"><path fill="currentColor" d="M10 9a1 1 0 0 1 1-1a1 1 0 0 1 1 1v4.47l1.21.13l4.94 2.19c.53.24.85.77.85 1.35v4.36c-.03.82-.68 1.47-1.5 1.5H11c-.38 0-.74-.15-1-.43l-4.9-4.2l.74-.77c.19-.21.46-.32.74-.32h.22L10 19zm2-5L9 1v2H3v2h6v2z"/></symbol><symbol id="hd-icon-mdi-gesture-swipe-up" viewBox="0 0 24 24"><path fill="currentColor" d="M10 9a1 1 0 0 1 1-1a1 1 0 0 1 1 1v4.47l1.21.13l4.94 2.19c.53.24.85.77.85 1.35v4.36c-.03.82-.68 1.47-1.5 1.5H11c-.38 0-.74-.15-1-.43l-4.9-4.2l.74-.77c.19-.21.46-.32.74-.32h.22L10 19zM7 6L4 3L1 6h2v6h2V6z"/></symbol><symbol id="hd-icon-mdi-gesture-swipe-vertical" viewBox="0 0 24 24"><path fill="currentColor" d="M4 3L1 6h2v3H1l3 3l3-3H5V6h2zm7 5a1 1 0 0 0-1 1v10l-3.2-1.72h-.22c-.28 0-.55.11-.74.32l-.74.77l4.9 4.2c.26.28.62.43 1 .43h6.5a1.5 1.5 0 0 0 1.5-1.5v-4.36c0-.58-.32-1.11-.85-1.35l-4.94-2.19l-1.21-.13V9a1 1 0 0 0-1-1"/></symbol><symbol id="hd-icon-mdi-gesture-tap" viewBox="0 0 24 24"><path fill="currentColor" d="M10 9a1 1 0 0 1 1-1a1 1 0 0 1 1 1v4.47l1.21.13l4.94 2.19c.53.24.85.77.85 1.35v4.36c-.03.82-.68 1.47-1.5 1.5H11c-.38 0-.74-.15-1-.43l-4.9-4.2l.74-.77c.19-.21.46-.32.74-.32h.22L10 19zm1-4a4 4 0 0 1 4 4c0 1.5-.8 2.77-2 3.46v-1.22c.61-.55 1-1.35 1-2.24a3 3 0 0 0-3-3a3 3 0 0 0-3 3c0 .89.39 1.69 1 2.24v1.22C7.8 11.77 7 10.5 7 9a4 4 0 0 1 4-4"/></symbol><symbol id="hd-icon-mdi-gesture-tap-box" viewBox="0 0 24 24"><path fill="currentColor" d="M20 2H4c-1.11 0-2 .89-2 2v16c0 1.11.89 2 2 2h16c1.11 0 2-.89 2-2V4c0-1.11-.89-2-2-2m-9 2c2.21 0 4 1.79 4 4c0 1.5-.8 2.77-2 3.46v-1.22c.61-.55 1-1.35 1-2.24c0-1.66-1.34-3-3-3S8 6.34 8 8c0 .89.39 1.69 1 2.24v1.22C7.8 10.77 7 9.5 7 8c0-2.21 1.79-4 4-4m7 14.5c-.03.82-.68 1.47-1.5 1.5H11c-.38 0-.74-.15-1-.43l-4-4.2l.74-.77c.19-.21.46-.32.76-.32h.2L10 16V8c0-.55.45-1 1-1s1 .45 1 1v4.47l1.21.13l3.94 2.19c.53.24.85.77.85 1.35z"/></symbol><symbol id="hd-icon-mdi-gesture-tap-button" viewBox="0 0 24 24"><path fill="currentColor" d="M13 5c2.21 0 4 1.79 4 4c0 1.5-.8 2.77-2 3.46v-1.22c.61-.55 1-1.35 1-2.24c0-1.66-1.34-3-3-3s-3 1.34-3 3c0 .89.39 1.69 1 2.24v1.22C9.8 11.77 9 10.5 9 9c0-2.21 1.79-4 4-4m7 15.5c-.03.82-.68 1.47-1.5 1.5H13c-.38 0-.74-.15-1-.43l-4-4.2l.74-.77c.19-.21.46-.32.76-.32h.2L12 18V9c0-.55.45-1 1-1s1 .45 1 1v4.47l1.21.13l3.94 2.19c.53.24.85.77.85 1.35zM20 2H4c-1.1 0-2 .9-2 2v8a2 2 0 0 0 2 2h4v-2H4V4h16v8h-2v2h2v-.04l.04.04c1.09 0 1.96-.91 1.96-2V4a2 2 0 0 0-2-2"/></symbol><symbol id="hd-icon-mdi-gesture-tap-hold" viewBox="0 0 24 24"><path fill="currentColor" d="M10 9a1 1 0 0 1 1-1a1 1 0 0 1 1 1v4.47l1.21.13l4.94 2.19c.53.24.85.77.85 1.35v4.36c-.03.82-.68 1.47-1.5 1.5H11c-.38 0-.74-.15-1-.43l-4.9-4.2l.74-.77c.19-.21.46-.32.74-.32h.22L10 19zm-1 3.44V9a2 2 0 0 1 2-2a2 2 0 0 1 2 2v3.44c1.19-.69 2-1.97 2-3.44a4 4 0 0 0-4-4a4 4 0 0 0-4 4c0 1.47.81 2.75 2 3.44"/></symbol><symbol id="hd-icon-mdi-gesture-two-double-tap" viewBox="0 0 24 24"><path fill="currentColor" d="M19 15.14v6.36c-.03.82-.68 1.47-1.5 1.5H11c-.38 0-.74-.15-1-.43l-4.9-4.2l.74-.77c.19-.21.46-.32.74-.32h.22L10 19V9a1 1 0 0 1 1-1a1 1 0 0 1 1 1V7a1 1 0 0 1 1-1a1 1 0 0 1 1 1v5l4.15 1.84c.51.23.85.74.85 1.3M13 3a4 4 0 0 1 4 4c0 1.5-.8 2.77-2 3.46V9.24c.61-.55 1-1.35 1-2.24a3 3 0 0 0-3-3c-1.35 0-2.5.9-2.87 2.13A3.003 3.003 0 0 0 9 11.24v1.22C7.8 11.77 7 10.5 7 9c0-1.62.97-3 2.35-3.65C10 3.97 11.38 3 13 3m0-2a6 6 0 0 1 6 6c0 2.06-1.04 3.88-2.62 4.96l-1.12-.5A4.98 4.98 0 0 0 18 7a5 5 0 0 0-5-5c-1.89 0-3.54 1.05-4.39 2.61C7.05 5.46 6 7.11 6 9c0 2.05 1.23 3.81 3 4.58v1.08C6.67 13.83 5 11.61 5 9c0-2.17 1.15-4.07 2.88-5.12A5.98 5.98 0 0 1 13 1"/></symbol><symbol id="hd-icon-mdi-gesture-two-tap" viewBox="0 0 24 24"><path fill="currentColor" d="M19 15.14v6.36c-.03.82-.68 1.47-1.5 1.5H11c-.38 0-.74-.15-1-.43l-4.9-4.2l.74-.77c.19-.21.46-.32.74-.32h.22L10 19V9a1 1 0 0 1 1-1a1 1 0 0 1 1 1V7a1 1 0 0 1 1-1a1 1 0 0 1 1 1v5l4.15 1.84c.51.23.85.74.85 1.3m-4-4.69V9.23c.23-.2.42-.44.57-.69c.27-.45.43-.98.43-1.54a3 3 0 0 0-3-3c-.79 0-1.5.31-2.05.81l-.14.14c-.13.14-.25.29-.35.45s-.19.34-.26.52c-.03.08-.05.14-.07.21A3 3 0 0 0 8 9c0 .7.24 1.34.64 1.85c.1.15.23.26.36.38v1.23C7.8 11.77 7 10.5 7 9c0-1.62.97-3 2.35-3.65C10 3.97 11.38 3 13 3a4 4 0 0 1 4 4c0 1.5-.8 2.77-2 3.46z"/></symbol><symbol id="hd-icon-mdi-ghost" viewBox="0 0 24 24"><path fill="currentColor" d="M12 2a9 9 0 0 0-9 9v11l3-3l3 3l3-3l3 3l3-3l3 3V11a9 9 0 0 0-9-9M9 8a2 2 0 0 1 2 2a2 2 0 0 1-2 2a2 2 0 0 1-2-2a2 2 0 0 1 2-2m6 0a2 2 0 0 1 2 2a2 2 0 0 1-2 2a2 2 0 0 1-2-2a2 2 0 0 1 2-2"/></symbol><symbol id="hd-icon-mdi-ghost-off" viewBox="0 0 24 24"><path fill="currentColor" d="M2 3.27L3.28 2L22 20.72L20.73 22l-2.86-2.87L15 22l-3-3l-3 3l-3-3l-3 3V11c0-1.91.59-3.67 1.6-5.13zM12 2a9 9 0 0 1 9 9v6.18l-5.3-5.3c.76-.29 1.3-1.02 1.3-1.88a2 2 0 0 0-2-2c-.86 0-1.59.54-1.87 1.3L7.2 3.38A8.95 8.95 0 0 1 12 2m-5 8a2 2 0 0 0 2 2c.5 0 .93-.17 1.27-.46L7.46 8.73C7.17 9.07 7 9.5 7 10"/></symbol><symbol id="hd-icon-mdi-ghost-off-outline" viewBox="0 0 24 24"><path fill="currentColor" d="M8.29 5.09L6.84 3.64A8.93 8.93 0 0 1 12 2a9 9 0 0 1 9 9v6.8l-2-2V11c0-3.86-3.14-7-7-7c-1.37 0-2.64.4-3.71 1.09m13.82 16.37l-1.27 1.27l-3.28-3.28L15 22l-3-3l-3 3l-3-3l-3 3V11c0-1.74.5-3.37 1.36-4.75L1.11 3l1.28-1.27l4.5 4.5l1.8 1.8l2.28 2.28l6.44 6.45h.01L21 20.34v.01zm-5.97-3.43l-6.25-6.25c-.27.14-.57.22-.89.22a2 2 0 0 1-2-2c0-.32.08-.62.22-.89l-1.4-1.4C5.3 8.69 5 9.81 5 11v6.17l1-1l1.41 1.42L9 19.17l1.59-1.58L12 16.17l1.41 1.42L15 19.17zM15 8c-1.04 0-1.89.8-2 1.82L15.18 12c1.02-.11 1.82-.96 1.82-2a2 2 0 0 0-2-2"/></symbol><symbol id="hd-icon-mdi-ghost-outline" viewBox="0 0 24 24"><path fill="currentColor" d="M12 2a9 9 0 0 0-9 9v11l3-3l3 3l3-3l3 3l3-3l3 3V11a9 9 0 0 0-9-9m7 15.17l-1-1l-1.41 1.42L15 19.17l-1.59-1.58L12 16.17l-1.41 1.42L9 19.17l-1.59-1.58L6 16.17l-1 1V11c0-3.86 3.14-7 7-7s7 3.14 7 7zM11 10c0 1.11-.89 2-2 2s-2-.89-2-2s.9-2 2-2s2 .9 2 2m6 0c0 1.11-.89 2-2 2s-2-.89-2-2s.9-2 2-2s2 .9 2 2"/></symbol></svg>