<svg xmlns="http://www.w3.org/2000/svg" xmlns:xlink="http://www.w3.org/1999/xlink"><symbol id="hd-icon-mdi-basket-unfill" viewBox="0 0 24 24"><path fill="currentColor" d="M3 10h3V7H3zm2-5h3V2H5zm3 5h3V7H8zm9-9l-5 5h3v4h4V6h3zM7.5 22c-.78 0-1.46-.45-1.79-1.1L3.1 13.44L3 13a1 1 0 0 1 1-1h16a1 1 0 0 1 1 1l-.04.29l-2.67 7.61c-.33.65-1.01 1.1-1.79 1.1zm.11-2h8.78l2.18-6H5.42z"/></symbol><symbol id="hd-icon-mdi-basketball" viewBox="0 0 24 24"><path fill="currentColor" d="M2.34 14.63c.6-.22 1.22-.33 1.88-.33q2.01 0 3.51 1.26L4.59 18.7a10.6 10.6 0 0 1-2.25-4.07M15.56 9.8c1.97 1.47 4.1 1.83 6.38 1.08c.03.21.06.59.06 1.12c0 1.03-.25 2.18-.72 3.45c-.47 1.26-1.05 2.28-1.73 3.05l-6.33-6.31zm-6.79 6.84c1.06 1.53 1.28 3.2.65 5.02c-1.42-.41-2.69-1.05-3.75-1.93zm3.42-3.42l6.31 6.33c-2.17 1.9-4.72 2.7-7.62 2.39c.21-.66.32-1.38.32-2.16c0-.62-.14-1.35-.42-2.18s-.61-1.51-.98-2.04zM8.81 14.5a6.7 6.7 0 0 0-3.23-1.59c-1.22-.23-2.39-.16-3.52.22c-.03-.22-.06-.6-.06-1.13c0-1.03.25-2.18.72-3.45c.47-1.26 1.05-2.28 1.73-3.05l6.66 6.69zm6.75-6.77c-1.34-1.65-1.65-3.45-.93-5.39c.62.16 1.33.46 2.13.92c.79.45 1.44.9 1.94 1.33zm6.1 1.65c-.6.21-1.22.32-1.88.32c-1.09 0-2.14-.32-3.14-.98l3.09-3.05c.88 1.1 1.52 2.33 1.93 3.71m-9.47 1.73L5.5 4.45c2.17-1.9 4.72-2.7 7.63-2.39q-.33.99-.33 2.16c0 .72.16 1.53.49 2.44c.33.9.71 1.62 1.21 2.15z"/></symbol><symbol id="hd-icon-mdi-basketball-hoop" viewBox="0 0 24 24"><path fill="currentColor" d="M21 2H3a2 2 0 0 0-2 2v12a2 2 0 0 0 2 2h2v-4h14v4h2a2 2 0 0 0 2-2V4a2 2 0 0 0-2-2m-4 10h-2V9H9v3H7V9a2 2 0 0 1 2-2h6a2 2 0 0 1 2 2zM7 16v3.5L8 23l2-2l2 2l2-2l2 2l1-3.5V16z"/></symbol><symbol id="hd-icon-mdi-basketball-hoop-outline" viewBox="0 0 24 24"><path fill="currentColor" d="M21 2H3a2 2 0 0 0-2 2v12a2 2 0 0 0 2 2h3.57L8 23l2-2l2 2l2-2l2 2l1.43-5H21a2 2 0 0 0 2-2V4a2 2 0 0 0-2-2m0 14h-3v-2h-1V9a2 2 0 0 0-2-2H9a2 2 0 0 0-2 2v5H6v2H3V4h18zM9 14V9h6v5z"/></symbol><symbol id="hd-icon-mdi-bat" viewBox="0 0 24 24"><path fill="currentColor" d="M.75 8S5 7 8 9c0 0 .5 3.75 2.5 3.75V11s.5 1 1.5 1s1.5-1 1.5-1v1.75C15.5 12.75 16 9 16 9c3-2 7.25-1 7.25-1c-2 1-2.25 4.5-2.25 4.5c-4 0-4 3.25-4 3.25c-5-1-5 2.75-5 2.75s0-3.75-5-2.75c0 0 0-3.25-4-3.25C3 12.5 2.75 9 .75 8"/></symbol><symbol id="hd-icon-mdi-bathtub" viewBox="0 0 24 24"><path fill="currentColor" d="M7 5a2 2 0 1 1 0 4c-1.11 0-2-.89-2-2s.9-2 2-2m13 8V4.83C20 3.27 18.73 2 17.17 2c-.75 0-1.47.3-2 .83l-1.25 1.25c-.16-.05-.33-.08-.51-.08c-.41 0-.77.12-1.08.32l2.76 2.76c.2-.31.32-.68.32-1.08c0-.18-.03-.34-.07-.5l1.25-1.26a.828.828 0 0 1 1.41.59V13h-6.85c-.3-.21-.57-.45-.82-.72l-1.4-1.55c-.19-.23-.43-.38-.69-.5c-.31-.15-.65-.23-1-.23C6 10 5 11 5 12.25V13H2v6c0 1.1.9 2 2 2c0 .55.45 1 1 1h14c.55 0 1-.45 1-1c1.1 0 2-.9 2-2v-6z"/></symbol><symbol id="hd-icon-mdi-bathtub-outline" viewBox="0 0 24 24"><path fill="currentColor" d="M7 5a2 2 0 1 1 0 4c-1.11 0-2-.89-2-2s.9-2 2-2m13 8V4.83C20 3.27 18.73 2 17.17 2c-.75 0-1.47.3-2 .83l-1.25 1.25c-.16-.05-.33-.08-.51-.08c-.41 0-.77.12-1.08.32l2.76 2.76c.2-.31.32-.68.32-1.08c0-.18-.03-.34-.07-.5l1.25-1.26a.828.828 0 0 1 1.41.59V13h-6.85c-.3-.21-.57-.45-.82-.72l-1.4-1.55c-.19-.23-.43-.38-.69-.5c-.31-.15-.65-.23-1-.23C6 10 5 11 5 12.25V13H2v6c0 1.1.9 2 2 2c0 .55.45 1 1 1h14c.55 0 1-.45 1-1c1.1 0 2-.9 2-2v-6zm0 6H4v-4h16z"/></symbol><symbol id="hd-icon-mdi-battery" viewBox="0 0 24 24"><path fill="currentColor" d="M16.67 4H15V2H9v2H7.33A1.33 1.33 0 0 0 6 5.33v15.34C6 21.4 6.6 22 7.33 22h9.34A1.33 1.33 0 0 0 18 20.67V5.33C18 4.6 17.4 4 16.67 4"/></symbol><symbol id="hd-icon-mdi-battery-10" viewBox="0 0 24 24"><path fill="currentColor" d="M16 18H8V6h8m.67-2H15V2H9v2H7.33A1.33 1.33 0 0 0 6 5.33v15.34C6 21.4 6.6 22 7.33 22h9.34A1.33 1.33 0 0 0 18 20.67V5.33C18 4.6 17.4 4 16.67 4"/></symbol><symbol id="hd-icon-mdi-battery-10-bluetooth" viewBox="0 0 24 24"><path fill="currentColor" d="M5 2v2H3.33A1.33 1.33 0 0 0 2 5.33v15.34C2 21.4 2.6 22 3.33 22h9.34c.73 0 1.33-.6 1.33-1.33V5.33A1.33 1.33 0 0 0 12.67 4H11V2zM4 6h8v12H4zm15 2v3.79L16.71 9.5l-.71.71L18.79 13L16 15.79l.71.71L19 14.21V18h.5l2.85-2.86L20.21 13l2.14-2.15L19.5 8zm1 1.91l.94.94l-.94.94zm0 4.3l.94.93l-.94.94z"/></symbol><symbol id="hd-icon-mdi-battery-20" viewBox="0 0 24 24"><path fill="currentColor" d="M16 17H8V6h8m.67-2H15V2H9v2H7.33A1.33 1.33 0 0 0 6 5.33v15.34C6 21.4 6.6 22 7.33 22h9.34A1.33 1.33 0 0 0 18 20.67V5.33C18 4.6 17.4 4 16.67 4"/></symbol><symbol id="hd-icon-mdi-battery-20-bluetooth" viewBox="0 0 24 24"><path fill="currentColor" d="M5 2v2H3.33A1.33 1.33 0 0 0 2 5.33v15.34C2 21.4 2.6 22 3.33 22h9.34c.73 0 1.33-.6 1.33-1.33V5.33A1.33 1.33 0 0 0 12.67 4H11V2zM4 6h8v11H4zm15 2v3.79L16.71 9.5l-.71.71L18.79 13L16 15.79l.71.71L19 14.21V18h.5l2.85-2.86L20.21 13l2.14-2.15L19.5 8zm1 1.91l.94.94l-.94.94zm0 4.3l.94.93l-.94.94z"/></symbol><symbol id="hd-icon-mdi-battery-30" viewBox="0 0 24 24"><path fill="currentColor" d="M16 15H8V6h8m.67-2H15V2H9v2H7.33A1.33 1.33 0 0 0 6 5.33v15.34C6 21.4 6.6 22 7.33 22h9.34A1.33 1.33 0 0 0 18 20.67V5.33C18 4.6 17.4 4 16.67 4"/></symbol><symbol id="hd-icon-mdi-battery-30-bluetooth" viewBox="0 0 24 24"><path fill="currentColor" d="M5 2v2H3.33A1.33 1.33 0 0 0 2 5.33v15.34C2 21.4 2.6 22 3.33 22h9.34c.73 0 1.33-.6 1.33-1.33V5.33A1.33 1.33 0 0 0 12.67 4H11V2zM4 6h8v9H4zm15 2v3.79L16.71 9.5l-.71.71L18.79 13L16 15.79l.71.71L19 14.21V18h.5l2.85-2.86L20.21 13l2.14-2.15L19.5 8zm1 1.91l.94.94l-.94.94zm0 4.3l.94.93l-.94.94z"/></symbol><symbol id="hd-icon-mdi-battery-40" viewBox="0 0 24 24"><path fill="currentColor" d="M16 14H8V6h8m.67-2H15V2H9v2H7.33A1.33 1.33 0 0 0 6 5.33v15.34C6 21.4 6.6 22 7.33 22h9.34A1.33 1.33 0 0 0 18 20.67V5.33C18 4.6 17.4 4 16.67 4"/></symbol><symbol id="hd-icon-mdi-battery-40-bluetooth" viewBox="0 0 24 24"><path fill="currentColor" d="M5 2v2H3.33A1.33 1.33 0 0 0 2 5.33v15.34C2 21.4 2.6 22 3.33 22h9.34c.73 0 1.33-.6 1.33-1.33V5.33A1.33 1.33 0 0 0 12.67 4H11V2zM4 6h8v8H4zm15 2v3.79L16.71 9.5l-.71.71L18.79 13L16 15.79l.71.71L19 14.21V18h.5l2.85-2.86L20.21 13l2.14-2.15L19.5 8zm1 1.91l.94.94l-.94.94zm0 4.3l.94.93l-.94.94z"/></symbol><symbol id="hd-icon-mdi-battery-50" viewBox="0 0 24 24"><path fill="currentColor" d="M16 13H8V6h8m.67-2H15V2H9v2H7.33A1.33 1.33 0 0 0 6 5.33v15.34C6 21.4 6.6 22 7.33 22h9.34A1.33 1.33 0 0 0 18 20.67V5.33C18 4.6 17.4 4 16.67 4"/></symbol><symbol id="hd-icon-mdi-battery-50-bluetooth" viewBox="0 0 24 24"><path fill="currentColor" d="M5 2v2H3.33A1.33 1.33 0 0 0 2 5.33v15.34C2 21.4 2.6 22 3.33 22h9.34c.73 0 1.33-.6 1.33-1.33V5.33A1.33 1.33 0 0 0 12.67 4H11V2zM4 6h8v7H4zm15 2v3.79L16.71 9.5l-.71.71L18.79 13L16 15.79l.71.71L19 14.21V18h.5l2.85-2.86L20.21 13l2.14-2.15L19.5 8zm1 1.91l.94.94l-.94.94zm0 4.3l.94.93l-.94.94z"/></symbol><symbol id="hd-icon-mdi-battery-60" viewBox="0 0 24 24"><path fill="currentColor" d="M16 12H8V6h8m.67-2H15V2H9v2H7.33A1.33 1.33 0 0 0 6 5.33v15.34C6 21.4 6.6 22 7.33 22h9.34A1.33 1.33 0 0 0 18 20.67V5.33C18 4.6 17.4 4 16.67 4"/></symbol><symbol id="hd-icon-mdi-battery-60-bluetooth" viewBox="0 0 24 24"><path fill="currentColor" d="M5 2v2H3.33A1.33 1.33 0 0 0 2 5.33v15.34C2 21.4 2.6 22 3.33 22h9.34c.73 0 1.33-.6 1.33-1.33V5.33A1.33 1.33 0 0 0 12.67 4H11V2zM4 6h8v6H4zm15 2v3.79L16.71 9.5l-.71.71L18.79 13L16 15.79l.71.71L19 14.21V18h.5l2.85-2.86L20.21 13l2.14-2.15L19.5 8zm1 1.91l.94.94l-.94.94zm0 4.3l.94.93l-.94.94z"/></symbol><symbol id="hd-icon-mdi-battery-70" viewBox="0 0 24 24"><path fill="currentColor" d="M16 10H8V6h8m.67-2H15V2H9v2H7.33A1.33 1.33 0 0 0 6 5.33v15.34C6 21.4 6.6 22 7.33 22h9.34A1.33 1.33 0 0 0 18 20.67V5.33C18 4.6 17.4 4 16.67 4"/></symbol><symbol id="hd-icon-mdi-battery-70-bluetooth" viewBox="0 0 24 24"><path fill="currentColor" d="M5 2v2H3.33A1.33 1.33 0 0 0 2 5.33v15.34C2 21.4 2.6 22 3.33 22h9.34c.73 0 1.33-.6 1.33-1.33V5.33A1.33 1.33 0 0 0 12.67 4H11V2zM4 6h8v4H4zm15 2v3.79L16.71 9.5l-.71.71L18.79 13L16 15.79l.71.71L19 14.21V18h.5l2.85-2.86L20.21 13l2.14-2.15L19.5 8zm1 1.91l.94.94l-.94.94zm0 4.3l.94.93l-.94.94z"/></symbol><symbol id="hd-icon-mdi-battery-80" viewBox="0 0 24 24"><path fill="currentColor" d="M16 9H8V6h8m.67-2H15V2H9v2H7.33A1.33 1.33 0 0 0 6 5.33v15.34C6 21.4 6.6 22 7.33 22h9.34A1.33 1.33 0 0 0 18 20.67V5.33C18 4.6 17.4 4 16.67 4"/></symbol><symbol id="hd-icon-mdi-battery-80-bluetooth" viewBox="0 0 24 24"><path fill="currentColor" d="M5 2v2H3.33A1.33 1.33 0 0 0 2 5.33v15.34C2 21.4 2.6 22 3.33 22h9.34c.73 0 1.33-.6 1.33-1.33V5.33A1.33 1.33 0 0 0 12.67 4H11V2zM4 6h8v3H4zm15 2v3.79L16.71 9.5l-.71.71L18.79 13L16 15.79l.71.71L19 14.21V18h.5l2.85-2.86L20.21 13l2.14-2.15L19.5 8zm1 1.91l.94.94l-.94.94zm0 4.3l.94.93l-.94.94z"/></symbol><symbol id="hd-icon-mdi-battery-90" viewBox="0 0 24 24"><path fill="currentColor" d="M16 8H8V6h8m.67-2H15V2H9v2H7.33A1.33 1.33 0 0 0 6 5.33v15.34C6 21.4 6.6 22 7.33 22h9.34A1.33 1.33 0 0 0 18 20.67V5.33C18 4.6 17.4 4 16.67 4"/></symbol><symbol id="hd-icon-mdi-battery-90-bluetooth" viewBox="0 0 24 24"><path fill="currentColor" d="M5 2v2H3.33A1.33 1.33 0 0 0 2 5.33v15.34C2 21.4 2.6 22 3.33 22h9.34c.73 0 1.33-.6 1.33-1.33V5.33A1.33 1.33 0 0 0 12.67 4H11V2zM4 6h8v2H4zm15 2v3.79L16.71 9.5l-.71.71L18.79 13L16 15.79l.71.71L19 14.21V18h.5l2.85-2.86L20.21 13l2.14-2.15L19.5 8zm1 1.91l.94.94l-.94.94zm0 4.3l.94.93l-.94.94z"/></symbol><symbol id="hd-icon-mdi-battery-alert" viewBox="0 0 24 24"><path fill="currentColor" d="M13 14h-2V8h2m0 10h-2v-2h2m3.7-12H15V2H9v2H7.3C6.6 4 6 4.6 6 5.3v15.3c0 .8.6 1.4 1.3 1.4h9.3c.7 0 1.3-.6 1.3-1.3V5.3c.1-.7-.5-1.3-1.2-1.3"/></symbol><symbol id="hd-icon-mdi-battery-alert-bluetooth" viewBox="0 0 24 24"><path fill="currentColor" d="M5 2v2H3.3C2.6 4 2 4.6 2 5.3v15.3c0 .8.6 1.4 1.3 1.4h9.3c.7 0 1.3-.6 1.3-1.3V5.3c.1-.7-.5-1.3-1.2-1.3H11V2zm14 6v3.8l-2.3-2.3l-.7.7l2.8 2.8l-2.8 2.8l.7.7l2.3-2.3V18h.5l2.9-2.9l-2.2-2.1l2.1-2.1L19.5 8zM7 8h2v6H7m13-4.1l.9.9l-.9 1zm0 4.3l.9.9l-.9 1zM7 16h2v2H7z"/></symbol><symbol id="hd-icon-mdi-battery-alert-variant" viewBox="0 0 24 24"><path fill="currentColor" d="M14.67 4H13V2H7v2H5.33C4.6 4 4 4.6 4 5.33v15.34C4 21.4 4.6 22 5.33 22h9.34c.73 0 1.33-.6 1.33-1.33V5.33C16 4.6 15.4 4 14.67 4M21 13h-2V7h2zm0 4h-2v-2h2z"/></symbol><symbol id="hd-icon-mdi-battery-alert-variant-outline" viewBox="0 0 24 24"><path fill="currentColor" d="M14 20H6V6h8m.67-2H13V2H7v2H5.33C4.6 4 4 4.6 4 5.33v15.34C4 21.4 4.6 22 5.33 22h9.34c.73 0 1.33-.6 1.33-1.33V5.33C16 4.6 15.4 4 14.67 4M21 7h-2v6h2V8m0 7h-2v2h2z"/></symbol><symbol id="hd-icon-mdi-battery-arrow-down" viewBox="0 0 24 24"><path fill="currentColor" d="M13.54 22H7.33C6.6 22 6 21.4 6 20.67V5.33C6 4.6 6.6 4 7.33 4H9V2h6v2h1.67C17.4 4 18 4.6 18 5.33V12c-3.31 0-6 2.69-6 6c0 1.54.58 2.94 1.54 4m1.4-3.5l3 3l3-3h-2v-4h-2v4z"/></symbol><symbol id="hd-icon-mdi-battery-arrow-down-outline" viewBox="0 0 24 24"><path fill="currentColor" d="M13.54 22H7.33C6.6 22 6 21.4 6 20.67V5.33C6 4.6 6.6 4 7.33 4H9V2h6v2h1.67C17.4 4 18 4.6 18 5.33V12c-.7 0-1.37.13-2 .35V6H8v14h4.35c.26.75.65 1.42 1.19 2m1.4-3.5l3 3l3-3h-2v-4h-2v4z"/></symbol><symbol id="hd-icon-mdi-battery-arrow-up" viewBox="0 0 24 24"><path fill="currentColor" d="M13.54 22H7.33C6.6 22 6 21.4 6 20.67V5.33C6 4.6 6.6 4 7.33 4H9V2h6v2h1.67C17.4 4 18 4.6 18 5.33V12c-3.31 0-6 2.69-6 6c0 1.54.58 2.94 1.54 4m7.4-4.5l-3-3l-3 3h2v4h2v-4z"/></symbol><symbol id="hd-icon-mdi-battery-arrow-up-outline" viewBox="0 0 24 24"><path fill="currentColor" d="M13.54 22H7.33C6.6 22 6 21.4 6 20.67V5.33C6 4.6 6.6 4 7.33 4H9V2h6v2h1.67C17.4 4 18 4.6 18 5.33V12c-.7 0-1.37.13-2 .35V6H8v14h4.35c.26.75.65 1.42 1.19 2m7.4-4.5l-3-3l-3 3h2v4h2v-4z"/></symbol><symbol id="hd-icon-mdi-battery-bluetooth" viewBox="0 0 24 24"><path fill="currentColor" d="M5 2v2H3.33A1.33 1.33 0 0 0 2 5.33v15.34C2 21.4 2.6 22 3.33 22h9.34c.73 0 1.33-.6 1.33-1.33V5.33A1.33 1.33 0 0 0 12.67 4H11V2zm14 6v3.79L16.71 9.5l-.71.71L18.79 13L16 15.79l.71.71L19 14.21V18h.5l2.85-2.86L20.21 13l2.14-2.15L19.5 8zm1 1.91l.94.94l-.94.94zm0 4.3l.94.93l-.94.94z"/></symbol><symbol id="hd-icon-mdi-battery-bluetooth-variant" viewBox="0 0 24 24"><path fill="currentColor" d="M9 2v2H7.33A1.33 1.33 0 0 0 6 5.33v15.34C6 21.4 6.6 22 7.33 22h9.34A1.33 1.33 0 0 0 18 20.67V5.33C18 4.6 17.4 4 16.67 4H15V2zm2.83 6h.5l2.85 2.85L13.04 13l2.13 2.14L12.33 18h-.5v-3.79L9.54 16.5l-.71-.71L11.62 13l-2.79-2.79l.71-.71l2.29 2.29zm1 1.91v1.88l.94-.94zm0 4.3v1.87l.94-.94z"/></symbol><symbol id="hd-icon-mdi-battery-charging" viewBox="0 0 24 24"><path fill="currentColor" d="M16.67 4H15V2H9v2H7.33A1.33 1.33 0 0 0 6 5.33v15.33C6 21.4 6.6 22 7.33 22h9.33c.74 0 1.34-.6 1.34-1.33V5.33C18 4.6 17.4 4 16.67 4M11 20v-5.5H9L13 7v5.5h2"/></symbol><symbol id="hd-icon-mdi-battery-charging-10" viewBox="0 0 24 24"><path fill="currentColor" d="M23.05 11h-3V4l-5 10h3v8M12 18H4l.05-12h8m.67-2h-1.67V2h-6v2H3.38a1.33 1.33 0 0 0-1.33 1.33v15.34c0 .73.6 1.33 1.33 1.33h9.34c.73 0 1.33-.6 1.33-1.33V5.33A1.33 1.33 0 0 0 12.72 4"/></symbol><symbol id="hd-icon-mdi-battery-charging-100" viewBox="0 0 24 24"><path fill="currentColor" d="M23 11h-3V4l-5 10h3v8M12.67 4H11V2H5v2H3.33A1.33 1.33 0 0 0 2 5.33v15.34C2 21.4 2.6 22 3.33 22h9.34c.73 0 1.33-.6 1.33-1.33V5.33A1.33 1.33 0 0 0 12.67 4"/></symbol><symbol id="hd-icon-mdi-battery-charging-20" viewBox="0 0 24 24"><path fill="currentColor" d="M23.05 11h-3V4l-5 10h3v8m-6-5h-8V6h8m.67-2h-1.67V2h-6v2H3.38a1.33 1.33 0 0 0-1.33 1.33v15.34c0 .73.6 1.33 1.33 1.33h9.34c.73 0 1.33-.6 1.33-1.33V5.33A1.33 1.33 0 0 0 12.72 4"/></symbol><symbol id="hd-icon-mdi-battery-charging-30" viewBox="0 0 24 24"><path fill="currentColor" d="M12 15H4V6h8m.67-2H11V2H5v2H3.33A1.33 1.33 0 0 0 2 5.33v15.34C2 21.4 2.6 22 3.33 22h9.34c.73 0 1.33-.6 1.33-1.33V5.33A1.33 1.33 0 0 0 12.67 4M23 11h-3V4l-5 10h3v8z"/></symbol><symbol id="hd-icon-mdi-battery-charging-40" viewBox="0 0 24 24"><path fill="currentColor" d="M13 4h-2V2H5v2H3c-.6 0-1 .4-1 1v16c0 .6.4 1 1 1h10c.6 0 1-.4 1-1V5c0-.6-.4-1-1-1m-1 10.5H4V6h8zM23 11h-3V4l-5 10h3v8"/></symbol><symbol id="hd-icon-mdi-battery-charging-50" viewBox="0 0 24 24"><path fill="currentColor" d="M23 11h-3V4l-5 10h3v8m-6-9H4V6h8m.67-2H11V2H5v2H3.33A1.33 1.33 0 0 0 2 5.33v15.34C2 21.4 2.6 22 3.33 22h9.34c.73 0 1.33-.6 1.33-1.33V5.33A1.33 1.33 0 0 0 12.67 4"/></symbol><symbol id="hd-icon-mdi-battery-charging-60" viewBox="0 0 24 24"><path fill="currentColor" d="M12 11H4V6h8m.67-2H11V2H5v2H3.33A1.33 1.33 0 0 0 2 5.33v15.34C2 21.4 2.6 22 3.33 22h9.34c.73 0 1.33-.6 1.33-1.33V5.33A1.33 1.33 0 0 0 12.67 4M23 11h-3V4l-5 10h3v8z"/></symbol><symbol id="hd-icon-mdi-battery-charging-70" viewBox="0 0 24 24"><path fill="currentColor" d="M12 10H4V6h8m.67-2H11V2H5v2H3.33A1.33 1.33 0 0 0 2 5.33v15.34C2 21.4 2.6 22 3.33 22h9.34c.73 0 1.33-.6 1.33-1.33V5.33A1.33 1.33 0 0 0 12.67 4M23 11h-3V4l-5 10h3v8z"/></symbol><symbol id="hd-icon-mdi-battery-charging-80" viewBox="0 0 24 24"><path fill="currentColor" d="M23 11h-3V4l-5 10h3v8M12 9H4V6h8m.67-2H11V2H5v2H3.33A1.33 1.33 0 0 0 2 5.33v15.34C2 21.4 2.6 22 3.33 22h9.34c.73 0 1.33-.6 1.33-1.33V5.33A1.33 1.33 0 0 0 12.67 4"/></symbol><symbol id="hd-icon-mdi-battery-charging-90" viewBox="0 0 24 24"><path fill="currentColor" d="M23 11h-3V4l-5 10h3v8M12 8H4V6h8m.67-2H11V2H5v2H3.33A1.33 1.33 0 0 0 2 5.33v15.34C2 21.4 2.6 22 3.33 22h9.34c.73 0 1.33-.6 1.33-1.33V5.33A1.33 1.33 0 0 0 12.67 4"/></symbol><symbol id="hd-icon-mdi-battery-charging-high" viewBox="0 0 24 24"><path fill="currentColor" d="M12 20H4V6h8m.67-2H11V2H5v2H3.33C2.6 4 2 4.6 2 5.33v15.34C2 21.4 2.6 22 3.33 22h9.34c.74 0 1.33-.59 1.33-1.33V5.33C14 4.6 13.4 4 12.67 4M11 16H5v3h6zm0-9H5v3h6zm0 4.5H5v3h6zM23 10h-3V3l-5 10h3v8"/></symbol><symbol id="hd-icon-mdi-battery-charging-low" viewBox="0 0 24 24"><path fill="currentColor" d="M12 20H4V6h8m.67-2H11V2H5v2H3.33C2.6 4 2 4.6 2 5.33v15.34C2 21.4 2.6 22 3.33 22h9.34c.74 0 1.33-.59 1.33-1.33V5.33C14 4.6 13.4 4 12.67 4M11 16H5v3h6zm12-6h-3V3l-5 10h3v8"/></symbol><symbol id="hd-icon-mdi-battery-charging-medium" viewBox="0 0 24 24"><path fill="currentColor" d="M12 20H4V6h8m.67-2H11V2H5v2H3.33C2.6 4 2 4.6 2 5.33v15.34C2 21.4 2.6 22 3.33 22h9.34c.74 0 1.33-.59 1.33-1.33V5.33C14 4.6 13.4 4 12.67 4M11 16H5v3h6zm0-4.5H5v3h6zM23 10h-3V3l-5 10h3v8"/></symbol><symbol id="hd-icon-mdi-battery-charging-outline" viewBox="0 0 24 24"><path fill="currentColor" d="M23.05 11h-3V4l-5 10h3v8M12 20H4l.05-14h8m.67-2h-1.67V2h-6v2H3.38a1.33 1.33 0 0 0-1.33 1.33v15.34c0 .73.6 1.33 1.33 1.33h9.34c.73 0 1.33-.6 1.33-1.33V5.33A1.33 1.33 0 0 0 12.72 4"/></symbol><symbol id="hd-icon-mdi-battery-charging-wireless" viewBox="0 0 24 24"><path fill="currentColor" d="M13 4h-2V2H5v2H3a1 1 0 0 0-1 1v16a1 1 0 0 0 1 1h10a1 1 0 0 0 1-1V5a1 1 0 0 0-1-1m7.07.93l-1.41 1.41c3.13 3.12 3.13 8.19 0 11.32l1.41 1.41c3.9-3.9 3.9-10.23 0-14.14m-2.83 2.83l-1.41 1.41a4.01 4.01 0 0 1 0 5.66l1.41 1.41a6 6 0 0 0 0-8.48"/></symbol><symbol id="hd-icon-mdi-battery-charging-wireless-10" viewBox="0 0 24 24"><path fill="currentColor" d="m20.07 4.93l-1.41 1.41c3.13 3.12 3.13 8.19 0 11.32l1.41 1.41c3.9-3.9 3.9-10.23 0-14.14m-2.83 2.83l-1.41 1.41a4.01 4.01 0 0 1 0 5.66l1.41 1.41a6 6 0 0 0 0-8.48M13 4h-2V2H5v2H3a1 1 0 0 0-1 1v16a1 1 0 0 0 1 1h10a1 1 0 0 0 1-1V5a1 1 0 0 0-1-1m-1 14.5H4V6h8z"/></symbol><symbol id="hd-icon-mdi-battery-charging-wireless-20" viewBox="0 0 24 24"><path fill="currentColor" d="m20.07 4.93l-1.41 1.41c3.13 3.12 3.13 8.19 0 11.32l1.41 1.41c3.9-3.9 3.9-10.23 0-14.14m-2.83 2.83l-1.41 1.41a4.01 4.01 0 0 1 0 5.66l1.41 1.41a6 6 0 0 0 0-8.48M13 4h-2V2H5v2H3a1 1 0 0 0-1 1v16a1 1 0 0 0 1 1h10a1 1 0 0 0 1-1V5a1 1 0 0 0-1-1m-1 13H4V6h8z"/></symbol><symbol id="hd-icon-mdi-battery-charging-wireless-30" viewBox="0 0 24 24"><path fill="currentColor" d="m20.07 4.93l-1.41 1.41c3.13 3.12 3.13 8.19 0 11.32l1.41 1.41c3.9-3.9 3.9-10.23 0-14.14m-2.83 2.83l-1.41 1.41a4.01 4.01 0 0 1 0 5.66l1.41 1.41a6 6 0 0 0 0-8.48M13 4h-2V2H5v2H3a1 1 0 0 0-1 1v16a1 1 0 0 0 1 1h10a1 1 0 0 0 1-1V5a1 1 0 0 0-1-1m-1 12H4V6h8z"/></symbol><symbol id="hd-icon-mdi-battery-charging-wireless-40" viewBox="0 0 24 24"><path fill="currentColor" d="m20.07 4.93l-1.41 1.41c3.13 3.12 3.13 8.19 0 11.32l1.41 1.41c3.9-3.9 3.9-10.23 0-14.14m-2.83 2.83l-1.41 1.41a4.01 4.01 0 0 1 0 5.66l1.41 1.41a6 6 0 0 0 0-8.48M13 4h-2V2H5v2H3a1 1 0 0 0-1 1v16a1 1 0 0 0 1 1h10a1 1 0 0 0 1-1V5a1 1 0 0 0-1-1m-1 10.5H4V6h8z"/></symbol><symbol id="hd-icon-mdi-battery-charging-wireless-50" viewBox="0 0 24 24"><path fill="currentColor" d="m20.07 4.93l-1.41 1.41c3.13 3.12 3.13 8.19 0 11.32l1.41 1.41c3.9-3.9 3.9-10.23 0-14.14m-2.83 2.83l-1.41 1.41a4.01 4.01 0 0 1 0 5.66l1.41 1.41a6 6 0 0 0 0-8.48M13 4h-2V2H5v2H3a1 1 0 0 0-1 1v16a1 1 0 0 0 1 1h10a1 1 0 0 0 1-1V5a1 1 0 0 0-1-1m-1 9H4V6h8z"/></symbol><symbol id="hd-icon-mdi-battery-charging-wireless-60" viewBox="0 0 24 24"><path fill="currentColor" d="m20.07 4.93l-1.41 1.41c3.13 3.12 3.13 8.19 0 11.32l1.41 1.41c3.9-3.9 3.9-10.23 0-14.14m-2.83 2.83l-1.41 1.41a4.01 4.01 0 0 1 0 5.66l1.41 1.41a6 6 0 0 0 0-8.48M13 4h-2V2H5v2H3a1 1 0 0 0-1 1v16a1 1 0 0 0 1 1h10a1 1 0 0 0 1-1V5a1 1 0 0 0-1-1m-1 7.6H4V6h8z"/></symbol><symbol id="hd-icon-mdi-battery-charging-wireless-70" viewBox="0 0 24 24"><path fill="currentColor" d="m20.07 4.93l-1.41 1.41c3.13 3.12 3.13 8.19 0 11.32l1.41 1.41c3.9-3.9 3.9-10.23 0-14.14m-2.83 2.83l-1.41 1.41a4.01 4.01 0 0 1 0 5.66l1.41 1.41a6 6 0 0 0 0-8.48M13 4h-2V2H5v2H3a1 1 0 0 0-1 1v16a1 1 0 0 0 1 1h10a1 1 0 0 0 1-1V5a1 1 0 0 0-1-1m-1 6H4V6h8z"/></symbol><symbol id="hd-icon-mdi-battery-charging-wireless-80" viewBox="0 0 24 24"><path fill="currentColor" d="m20.07 4.93l-1.41 1.41c3.13 3.12 3.13 8.19 0 11.32l1.41 1.41c3.9-3.9 3.9-10.23 0-14.14m-2.83 2.83l-1.41 1.41a4.01 4.01 0 0 1 0 5.66l1.41 1.41a6 6 0 0 0 0-8.48M13 4h-2V2H5v2H3a1 1 0 0 0-1 1v16a1 1 0 0 0 1 1h10a1 1 0 0 0 1-1V5a1 1 0 0 0-1-1m-1 5H4V6h8z"/></symbol><symbol id="hd-icon-mdi-battery-charging-wireless-90" viewBox="0 0 24 24"><path fill="currentColor" d="m20.07 4.93l-1.41 1.41c3.13 3.12 3.13 8.19 0 11.32l1.41 1.41c3.9-3.9 3.9-10.23 0-14.14m-2.83 2.83l-1.41 1.41a4.01 4.01 0 0 1 0 5.66l1.41 1.41a6 6 0 0 0 0-8.48M13 4h-2V2H5v2H3a1 1 0 0 0-1 1v16a1 1 0 0 0 1 1h10a1 1 0 0 0 1-1V5a1 1 0 0 0-1-1m-1 3.5H4V6h8z"/></symbol><symbol id="hd-icon-mdi-battery-charging-wireless-alert" viewBox="0 0 24 24"><path fill="currentColor" d="M13 4h-2V2H5v2H3c-.6 0-1 .4-1 1v16c0 .6.4 1 1 1h10c.6 0 1-.4 1-1V5c0-.6-.4-1-1-1M9 18H7v-2h2zm0-4H7V8h2zm11.1-9.1l-1.4 1.4c3.1 3.1 3.1 8.2 0 11.3l1.4 1.4c3.9-3.8 3.9-10.2 0-14.1m-2.9 2.9l-1.4 1.4c1.6 1.6 1.6 4.1 0 5.7l1.4 1.4c2.4-2.4 2.4-6.2 0-8.5"/></symbol><symbol id="hd-icon-mdi-battery-charging-wireless-outline" viewBox="0 0 24 24"><path fill="currentColor" d="m20.07 4.93l-1.41 1.41c3.13 3.12 3.13 8.19 0 11.32l1.41 1.41c3.9-3.9 3.9-10.23 0-14.14m-2.83 2.83l-1.41 1.41a4.01 4.01 0 0 1 0 5.66l1.41 1.41a6 6 0 0 0 0-8.48M13 4h-2V2H5v2H3a1 1 0 0 0-1 1v16a1 1 0 0 0 1 1h10a1 1 0 0 0 1-1V5a1 1 0 0 0-1-1m-1 16H4V6h8z"/></symbol><symbol id="hd-icon-mdi-battery-check" viewBox="0 0 24 24"><path fill="currentColor" d="m16.75 21.16l-2.75-3L15.16 17l1.59 1.59L20.34 15l1.16 1.41zM12 18c0-3.31 2.69-6 6-6V5.33C18 4.6 17.4 4 16.67 4H15V2H9v2H7.33C6.6 4 6 4.6 6 5.33v15.34C6 21.4 6.6 22 7.33 22h6.21A5.93 5.93 0 0 1 12 18"/></symbol><symbol id="hd-icon-mdi-battery-check-outline" viewBox="0 0 24 24"><path fill="currentColor" d="m16.75 21.16l-2.75-3L15.16 17l1.59 1.59L20.34 15l1.16 1.41zM12.35 20H8V6h8v6.35c.63-.22 1.3-.35 2-.35V5.33C18 4.6 17.4 4 16.67 4H15V2H9v2H7.33C6.6 4 6 4.6 6 5.33v15.34C6 21.4 6.6 22 7.33 22h6.21c-.54-.58-.93-1.25-1.19-2"/></symbol><symbol id="hd-icon-mdi-battery-clock" viewBox="0 0 24 24"><path fill="currentColor" d="m16.5 16.25l2.86 1.69l-.75 1.22L15 17v-5h1.5zM23 16c0 3.87-3.13 7-7 7c-1.31 0-2.54-.37-3.59-1H7.33C6.6 22 6 21.4 6 20.67V5.33C6 4.6 6.6 4 7.33 4H9V2h6v2h1.67C17.4 4 18 4.6 18 5.33v3.96c2.89.86 5 3.54 5 6.71m-2 0c0-2.76-2.24-5-5-5s-5 2.24-5 5s2.24 5 5 5s5-2.24 5-5"/></symbol><symbol id="hd-icon-mdi-battery-clock-outline" viewBox="0 0 24 24"><path fill="currentColor" d="M18 9.29V5.33C18 4.6 17.4 4 16.67 4H15V2H9v2H7.33C6.6 4 6 4.6 6 5.33v15.34C6 21.4 6.6 22 7.33 22h5.08c1.05.63 2.28 1 3.59 1c3.87 0 7-3.13 7-7c0-3.17-2.11-5.85-5-6.71M8 6h8v3c-3.87 0-7 3.13-7 7c0 1.5.47 2.87 1.26 4H8zm8 15c-2.76 0-5-2.24-5-5s2.24-5 5-5s5 2.24 5 5s-2.24 5-5 5m.5-4.75l2.86 1.69l-.75 1.22L15 17v-5h1.5z"/></symbol><symbol id="hd-icon-mdi-battery-heart" viewBox="0 0 24 24"><path fill="currentColor" d="M12.67 4H11V2H5v2H3.33A1.34 1.34 0 0 0 2 5.33v15.34A1.34 1.34 0 0 0 3.33 22h9.34A1.34 1.34 0 0 0 14 20.67V5.33A1.34 1.34 0 0 0 12.67 4M19 16.17l-.58-.53C16.36 13.77 15 12.54 15 11a2.18 2.18 0 0 1 2.2-2.2a2.4 2.4 0 0 1 1.8.83a2.4 2.4 0 0 1 1.8-.83A2.18 2.18 0 0 1 23 11c0 1.5-1.36 2.74-3.42 4.61Z"/></symbol><symbol id="hd-icon-mdi-battery-heart-outline" viewBox="0 0 24 24"><path fill="currentColor" d="m19 16.2l-.6-.5c-2-1.9-3.4-3.2-3.4-4.7c0-1.2 1-2.2 2.2-2.2c.7 0 1.3.3 1.8.8c.5-.5 1.1-.8 1.8-.8c1.2 0 2.2 1 2.2 2.2c0 1.5-1.4 2.7-3.4 4.6zM12.7 4H11V2H5v2H3.3C2.6 4 2 4.6 2 5.3v15.3c0 .8.6 1.4 1.3 1.4h9.3c.7 0 1.3-.6 1.3-1.3V5.3c.1-.7-.5-1.3-1.2-1.3M12 20H4V6h8z"/></symbol><symbol id="hd-icon-mdi-battery-heart-variant" viewBox="0 0 24 24"><path fill="currentColor" d="M16.67 4H15V2H9v2H7.33A1.34 1.34 0 0 0 6 5.33v15.34A1.34 1.34 0 0 0 7.33 22h9.34A1.34 1.34 0 0 0 18 20.67V5.33A1.34 1.34 0 0 0 16.67 4m-4.09 11.64l-.58.53l-.58-.53C9.36 13.77 8 12.54 8 11a2.18 2.18 0 0 1 2.2-2.2a2.4 2.4 0 0 1 1.8.83a2.4 2.4 0 0 1 1.8-.83A2.18 2.18 0 0 1 16 11c0 1.54-1.36 2.77-3.42 4.64"/></symbol><symbol id="hd-icon-mdi-battery-high" viewBox="0 0 24 24"><path fill="currentColor" d="M16 20H8V6h8m.67-2H15V2H9v2H7.33C6.6 4 6 4.6 6 5.33v15.34C6 21.4 6.6 22 7.33 22h9.34c.74 0 1.33-.59 1.33-1.33V5.33C18 4.6 17.4 4 16.67 4M15 16H9v3h6zm0-9H9v3h6zm0 4.5H9v3h6z"/></symbol><symbol id="hd-icon-mdi-battery-lock" viewBox="0 0 24 24"><path fill="currentColor" d="M19.8 16v-1.5c0-1.4-1.4-2.5-2.8-2.5s-2.8 1.1-2.8 2.5V16c-.6 0-1.2.6-1.2 1.2v3.5c0 .7.6 1.3 1.2 1.3h5.5c.7 0 1.3-.6 1.3-1.2v-3.5c0-.7-.6-1.3-1.2-1.3m-1.3 0h-3v-1.5c0-.8.7-1.3 1.5-1.3s1.5.5 1.5 1.3zm-7.23 6H5.33C4.6 22 4 21.4 4 20.67V5.33C4 4.6 4.6 4 5.33 4H7V2h6v2h1.67C15.4 4 16 4.6 16 5.33v4.78c-2.14.44-3.8 2.27-3.8 4.39v.24c-.7.6-1.2 1.5-1.2 2.46v3.5c0 .46.1.9.27 1.3"/></symbol><symbol id="hd-icon-mdi-battery-lock-open" viewBox="0 0 24 24"><path fill="currentColor" d="M19.8 16h-4.3v-2.5c0-.8.7-1.3 1.5-1.3s1.5.5 1.5 1.3v.5h1.3v-.5c0-1.4-1.4-2.5-2.8-2.5s-2.8 1.1-2.8 2.5V16c-.6 0-1.2.6-1.2 1.2v3.5c0 .7.6 1.3 1.2 1.3h5.5c.7 0 1.3-.6 1.3-1.2v-3.5c0-.7-.6-1.3-1.2-1.3m-8.53 6H5.33C4.6 22 4 21.4 4 20.67V5.33C4 4.6 4.6 4 5.33 4H7V2h6v2h1.67C15.4 4 16 4.6 16 5.33v3.78c-2.14.44-3.8 2.27-3.8 4.39v1.24c-.7.6-1.2 1.5-1.2 2.46v3.5c0 .23.03.45.07.67l.01.02c.04.21.11.41.19.61"/></symbol><symbol id="hd-icon-mdi-battery-low" viewBox="0 0 24 24"><path fill="currentColor" d="M16 20H8V6h8m.67-2H15V2H9v2H7.33C6.6 4 6 4.6 6 5.33v15.34C6 21.4 6.6 22 7.33 22h9.34c.74 0 1.33-.59 1.33-1.33V5.33C18 4.6 17.4 4 16.67 4M15 16H9v3h6z"/></symbol><symbol id="hd-icon-mdi-battery-medium" viewBox="0 0 24 24"><path fill="currentColor" d="M16 20H8V6h8m.67-2H15V2H9v2H7.33C6.6 4 6 4.6 6 5.33v15.34C6 21.4 6.6 22 7.33 22h9.34c.74 0 1.33-.59 1.33-1.33V5.33C18 4.6 17.4 4 16.67 4M15 16H9v3h6zm0-4.5H9v3h6z"/></symbol><symbol id="hd-icon-mdi-battery-minus" viewBox="0 0 24 24"><path fill="currentColor" d="M13.54 22H7.33C6.6 22 6 21.4 6 20.67V5.33C6 4.6 6.6 4 7.33 4H9V2h6v2h1.67C17.4 4 18 4.6 18 5.33V12c-3.31 0-6 2.69-6 6c0 1.54.58 2.94 1.54 4M22 17v2h-8v-2z"/></symbol><symbol id="hd-icon-mdi-battery-minus-outline" viewBox="0 0 24 24"><path fill="currentColor" d="M13.54 22H7.33C6.6 22 6 21.4 6 20.67V5.33C6 4.6 6.6 4 7.33 4H9V2h6v2h1.67C17.4 4 18 4.6 18 5.33V12c-.7 0-1.37.13-2 .35V6H8v14h4.35c.26.75.65 1.42 1.19 2M22 17v2h-8v-2z"/></symbol><symbol id="hd-icon-mdi-battery-minus-variant" viewBox="0 0 24 24"><path fill="currentColor" d="M16.67 4C17.4 4 18 4.6 18 5.33v15.34A1.33 1.33 0 0 1 16.67 22H7.33C6.6 22 6 21.4 6 20.67V5.33A1.33 1.33 0 0 1 7.33 4H9V2h6v2zM8 12v2h8v-2"/></symbol><symbol id="hd-icon-mdi-battery-negative" viewBox="0 0 24 24"><path fill="currentColor" d="M11.67 4A1.33 1.33 0 0 1 13 5.33v15.34c0 .73-.6 1.33-1.33 1.33H2.33C1.6 22 1 21.4 1 20.67V5.33A1.33 1.33 0 0 1 2.33 4H4V2h6v2zM15 12h8v2h-8zM3 13h8V6H3z"/></symbol><symbol id="hd-icon-mdi-battery-off" viewBox="0 0 24 24"><path fill="currentColor" d="M18 14.8L7.21 4H9V2h6v2h1.67A1.34 1.34 0 0 1 18 5.33m0 12.02L3.38 2.73L2.11 4L6 7.89v12.78A1.34 1.34 0 0 0 7.33 22h9.34A1.34 1.34 0 0 0 18 20.67v-.78l2.84 2.84l1.27-1.27Z"/></symbol><symbol id="hd-icon-mdi-battery-off-outline" viewBox="0 0 24 24"><path fill="currentColor" d="M18 17.35L3.38 2.73L2.11 4L6 7.89v12.78A1.34 1.34 0 0 0 7.33 22h9.34A1.34 1.34 0 0 0 18 20.67v-.78l2.84 2.84l1.27-1.27M16 20H8V9.89l8 8M16 6v6.8l2 2V5.33A1.34 1.34 0 0 0 16.67 4H15V2H9v2H7.21l2 2Z"/></symbol><symbol id="hd-icon-mdi-battery-outline" viewBox="0 0 24 24"><path fill="currentColor" d="M16 20H8V6h8m.67-2H15V2H9v2H7.33A1.33 1.33 0 0 0 6 5.33v15.34C6 21.4 6.6 22 7.33 22h9.34A1.33 1.33 0 0 0 18 20.67V5.33C18 4.6 17.4 4 16.67 4"/></symbol><symbol id="hd-icon-mdi-battery-plus" viewBox="0 0 24 24"><path fill="currentColor" d="M13.54 22H7.33C6.6 22 6 21.4 6 20.67V5.33C6 4.6 6.6 4 7.33 4H9V2h6v2h1.67C17.4 4 18 4.6 18 5.33V12c-3.31 0-6 2.69-6 6c0 1.54.58 2.94 1.54 4M22 17v2h-3v3h-2v-3h-3v-2h3v-3h2v3z"/></symbol><symbol id="hd-icon-mdi-battery-plus-outline" viewBox="0 0 24 24"><path fill="currentColor" d="M13.54 22H7.33C6.6 22 6 21.4 6 20.67V5.33C6 4.6 6.6 4 7.33 4H9V2h6v2h1.67C17.4 4 18 4.6 18 5.33V12c-.7 0-1.37.13-2 .35V6H8v14h4.35c.26.75.65 1.42 1.19 2M22 17v2h-3v3h-2v-3h-3v-2h3v-3h2v3z"/></symbol><symbol id="hd-icon-mdi-battery-plus-variant" viewBox="0 0 24 24"><path fill="currentColor" d="M16.67 4C17.4 4 18 4.6 18 5.33v15.34A1.33 1.33 0 0 1 16.67 22H7.33C6.6 22 6 21.4 6 20.67V5.33A1.33 1.33 0 0 1 7.33 4H9V2h6v2zM16 14v-2h-3V9h-2v3H8v2h3v3h2v-3z"/></symbol><symbol id="hd-icon-mdi-battery-positive" viewBox="0 0 24 24"><path fill="currentColor" d="M11.67 4A1.33 1.33 0 0 1 13 5.33v15.34c0 .73-.6 1.33-1.33 1.33H2.33C1.6 22 1 21.4 1 20.67V5.33A1.33 1.33 0 0 1 2.33 4H4V2h6v2zM23 14h-3v3h-2v-3h-3v-2h3V9h2v3h3zM3 13h8V6H3z"/></symbol><symbol id="hd-icon-mdi-battery-remove" viewBox="0 0 24 24"><path fill="currentColor" d="M13.54 22H7.33C6.6 22 6 21.4 6 20.67V5.33C6 4.6 6.6 4 7.33 4H9V2h6v2h1.67C17.4 4 18 4.6 18 5.33V12c-3.31 0-6 2.69-6 6c0 1.54.58 2.94 1.54 4m8-1.88l-1.42 1.42L18 19.41l-2.12 2.13l-1.41-1.42L16.59 18l-2.12-2.12l1.41-1.41L18 16.59l2.12-2.12l1.42 1.41L19.41 18z"/></symbol><symbol id="hd-icon-mdi-battery-remove-outline" viewBox="0 0 24 24"><path fill="currentColor" d="M13.54 22H7.33C6.6 22 6 21.4 6 20.67V5.33C6 4.6 6.6 4 7.33 4H9V2h6v2h1.67C17.4 4 18 4.6 18 5.33V12c-.7 0-1.37.13-2 .35V6H8v14h4.35c.26.75.65 1.42 1.19 2m8-1.88l-1.42 1.42L18 19.41l-2.12 2.13l-1.41-1.42L16.59 18l-2.12-2.12l1.41-1.41L18 16.59l2.12-2.12l1.42 1.41L19.41 18z"/></symbol><symbol id="hd-icon-mdi-battery-standard" viewBox="0 0 24 24"><path d="M16 11.998H8v-6h8m.666-2H15v-2H9v2H7.332C6.596 3.998 6 4.595 6 5.331v15.334c0 .736.597 1.333 1.333 1.333h9.334c.737 0 1.333-.597 1.333-1.333V5.331c0-.736-.596-1.333-1.333-1.333z" fill="currentColor"/></symbol><symbol id="hd-icon-mdi-battery-sync" viewBox="0 0 24 24"><path fill="currentColor" d="M13.54 22H7.33C6.6 22 6 21.4 6 20.67V5.33C6 4.6 6.6 4 7.33 4H9V2h6v2h1.67C17.4 4 18 4.6 18 5.33V12c-3.31 0-6 2.69-6 6c0 1.54.58 2.94 1.54 4M18 13l2.25 2.25L18 17.5V16c-1.85 0-3.06 1.96-2.24 3.62l-1.09 1.09c-1.76-2.66.14-6.21 3.33-6.21zm0 11l-2.25-2.25L18 19.5V21c1.85 0 3.06-1.96 2.24-3.62l1.09-1.09c1.76 2.66-.14 6.21-3.33 6.21z"/></symbol><symbol id="hd-icon-mdi-battery-sync-outline" viewBox="0 0 24 24"><path fill="currentColor" d="M13.54 22H7.33C6.6 22 6 21.4 6 20.67V5.33C6 4.6 6.6 4 7.33 4H9V2h6v2h1.67C17.4 4 18 4.6 18 5.33V12c-.7 0-1.37.13-2 .35V6H8v14h4.35c.26.75.65 1.42 1.19 2M18 13l2.25 2.25L18 17.5V16c-1.85 0-3.06 1.96-2.24 3.62l-1.09 1.09c-1.76-2.66.14-6.21 3.33-6.21zm0 11l-2.25-2.25L18 19.5V21c1.85 0 3.06-1.96 2.24-3.62l1.09-1.09c1.76 2.66-.14 6.21-3.33 6.21z"/></symbol><symbol id="hd-icon-mdi-battery-unknown" viewBox="0 0 24 24"><path fill="currentColor" d="m15.07 12.25l-.9.92c-.54.54-.92 1.01-1.08 1.83h-2.04c.11-.9.51-1.72 1.12-2.33l1.24-1.26c.37-.36.59-.86.59-1.41a2 2 0 0 0-2-2a2 2 0 0 0-2 2H8a4 4 0 0 1 4-4a4 4 0 0 1 4 4c0 .88-.36 1.68-.93 2.25M13 19h-2v-2h2m3.67-13H15V2H9v2H7.33A1.33 1.33 0 0 0 6 5.33v15.33C6 21.4 6.6 22 7.33 22h9.34c.73 0 1.33-.6 1.33-1.34V5.33C18 4.59 17.4 4 16.67 4"/></symbol><symbol id="hd-icon-mdi-battery-unknown-bluetooth" viewBox="0 0 24 24"><path fill="currentColor" d="M5 2v2H3.33A1.33 1.33 0 0 0 2 5.33v15.33C2 21.4 2.6 22 3.33 22h9.34c.73 0 1.33-.6 1.33-1.34V5.33C14 4.59 13.4 4 12.67 4H11V2zm3 4a4 4 0 0 1 4 4c0 .88-.36 1.68-.93 2.25l-.9.92c-.54.54-.92 1.01-1.08 1.83H7.05c.11-.9.51-1.72 1.12-2.33l1.24-1.26c.37-.36.59-.86.59-1.41a2 2 0 0 0-2-2a2 2 0 0 0-2 2H4a4 4 0 0 1 4-4m11 2v3.79L16.71 9.5l-.71.71L18.79 13L16 15.79l.71.71L19 14.21V18h.5l2.85-2.86L20.21 13l2.14-2.15L19.5 8zm1 1.91l.94.94l-.94.94zm0 4.3l.94.93l-.94.94zM7 17h2v2H7z"/></symbol><symbol id="hd-icon-mdi-battlenet" viewBox="0 0 24 24"><path d="M19.92 10.76s2.58 1.48 2.58 3.13c0 1.61-3 2.17-6.32 2.01c0 0-1.41 1.97-2.76 2.8c1.46 2.74 2.58 3.8 2.55 3.8c0 0-.74.19-2.97-3.46c-1.34.85-2.83 1.19-3.44.66c-.62-.53-.14-1.42.12-1.85c-.27.15-1.68.98-2.93.98c-1.49 0-1.7-1.11-1.7-1.68C5.05 15 7.12 12 7.12 12s-.96-2.12-1.07-3.78c-1.88-.16-4.05.17-4.52.32c-.13 0 .31-.32.47-.36c.15-.05 1.91-.51 4-.51c0-1.74.35-3.34 1.41-3.34c.72 0 1.3 1.12 1.3 1.12S8.7 1.5 10.74 1.5C12.8 1.5 15 6.11 15 6.11s2.22.21 3.85.98c.65-1.36 1.24-1.98 1.96-4.09c.19.7-.61 2.5-1.46 4.3c0 0 2.3 1.2 2.3 2.53c0 1.01-1.73.93-1.73.93m-9.24 7.82c.68.11 1.73-.48 1.72-.48l-.82-1.53l-1.18.83c-.01.01-.76.98.28 1.18m9.47-8.82c0-.66-1.2-1.41-1.34-1.49l-.92 1.48l1.28.62c.42-.03.98-.02.98-.61M8 5.63c-.3 0-.91.44-.91 2.01l1.74.06l-.11-1.4C8.6 6 8.3 5.63 8 5.63m2.18 10.15c-1.26-.65-2.02-1.72-2.64-2.88c0 0-1.58 2.65-.57 3.32c1.03.67 2.67-.06 3.21-.44m2.79 1.98c1.14-.87 4.22-3.03 4.48-6.68c-2.88-1.64-6.83-2.37-6.83-2.37s-.01-.5.08-.85c.94.11 3.89.61 6.33 1.57c-.68-1.15-1.19-1.58-1.66-1.93c1.16.26 1.99 1.76 1.99 1.76l.92-1.3s-4.37-2.35-8.09-.54c-.08 2.88 1.4 7.14 1.4 7.14l-.77.33c-.52-1.05-1.19-2.8-1.82-6.22c-.3.41-.83.88-.84 2.42c-.46-1.29.5-2.66.51-2.67l-1.6-.16c.1 1.66.98 5.94 3.61 7.27c2.32-1.32 4.82-3.99 5.45-4.76l.69.51l-4.47 4.69c1.24.03 1.97-.25 2.47-.47c-.72.75-1.96.82-2.55.82c.01.02.3.75.7 1.44m1.06-11.71c-.03-.08-1.37-2.36-2.56-2.19c-.78.25-1.23 1.57-1.24 3.01c.53-.31 1.77-.87 3.8-.82m2.68 9.02S20 15 19.9 13.76c0-1.2-1.98-2.43-1.98-2.41c.01 2.12-1.21 3.72-1.21 3.72z" fill="currentColor"/></symbol><symbol id="hd-icon-mdi-beach" viewBox="0 0 24 24"><path fill="currentColor" d="M15 18.54c2.13-.33 4.5-.54 7-.54v4H5c0-.65 3.2-2.14 8-3.1v-6.5c-.84.25-1.55.81-2 1.55a3.495 3.495 0 0 0-6 0c.03-3.58 3.5-6.52 8-6.91V7a1 1 0 0 1 1-1a1 1 0 0 1 1 1v.04c4.5.39 7.96 3.33 8 6.91a3.495 3.495 0 0 0-6 0c-.45-.74-1.16-1.3-2-1.56zM7 2a5 5 0 0 1-5 5V2z"/></symbol><symbol id="hd-icon-mdi-beaker" viewBox="0 0 24 24"><path fill="currentColor" d="M3 3v2a2 2 0 0 1 2 2v12a2 2 0 0 0 2 2h10a2 2 0 0 0 2-2V7a2 2 0 0 1 2-2V3zm4 6h3v1H7zm0 2h3v1H7zm3 5H7v-1h3zm2-2H7v-1h5zm0-6H7V7h5z"/></symbol><symbol id="hd-icon-mdi-beaker-alert" viewBox="0 0 24 24"><path fill="currentColor" d="M3 3h18v2c-1.1 0-2 .9-2 2v12c0 1.1-.9 2-2 2H7c-1.1 0-2-.9-2-2V7c0-1.1-.9-2-2-2zm4 6v1h3V9zm0 2v1h3v-1zm3 5v-1H7v1zm2-2v-1H7v1zm0-6V7H7v1zm9 5V7h2v6zm0 4v-2h2v2z"/></symbol><symbol id="hd-icon-mdi-beaker-alert-outline" viewBox="0 0 24 24"><path fill="currentColor" d="M3 3h18v2c-1.1 0-2 .9-2 2v12c0 1.11-.89 2-2 2H7a2 2 0 0 1-2-2V7a2 2 0 0 0-2-2zm4 2v2h5v1H7v1h3v1H7v1h3v1H7v1h5v1H7v1h3v1H7v3h10V5zm14 8V7h2v6zm0 4v-2h2v2z"/></symbol><symbol id="hd-icon-mdi-beaker-check" viewBox="0 0 24 24"><path fill="currentColor" d="m17.75 21.16l-2.75-3L16.16 17l1.59 1.59L21.34 15l1.16 1.41zM3 3h18v2c-1.1 0-2 .9-2 2v5a6.005 6.005 0 0 0-5.2 9H7c-1.1 0-2-.9-2-2V7c0-1.1-.9-2-2-2zm4 6v1h3V9zm0 2v1h3v-1zm3 5v-1H7v1zm2-2v-1H7v1zm0-6V7H7v1z"/></symbol><symbol id="hd-icon-mdi-beaker-check-outline" viewBox="0 0 24 24"><path fill="currentColor" d="m17.75 21.16l-2.75-3L16.16 17l1.59 1.59L21.34 15l1.16 1.41zM3 3h18v2c-1.1 0-2 .9-2 2v5c-.7 0-1.37.12-2 .34V5H7v2h5v1H7v1h3v1H7v1h3v1H7v1h5v1H7v1h3v1H7v3h6.08c.12.72.37 1.39.72 2H7a2 2 0 0 1-2-2V7a2 2 0 0 0-2-2z"/></symbol><symbol id="hd-icon-mdi-beaker-minus" viewBox="0 0 24 24"><path fill="currentColor" d="M23 17v2h-8v-2zM3 3h18v2c-1.1 0-2 .9-2 2v5a6.005 6.005 0 0 0-5.2 9H7c-1.1 0-2-.9-2-2V7c0-1.1-.9-2-2-2zm4 6v1h3V9zm0 2v1h3v-1zm3 5v-1H7v1zm2-2v-1H7v1zm0-6V7H7v1z"/></symbol><symbol id="hd-icon-mdi-beaker-minus-outline" viewBox="0 0 24 24"><path fill="currentColor" d="M23 17v2h-8v-2M3 3h18v2c-1.1 0-2 .9-2 2v5c-.7 0-1.37.12-2 .34V5H7v2h5v1H7v1h3v1H7v1h3v1H7v1h5v1H7v1h3v1H7v3h6.08c.12.72.37 1.39.72 2H7a2 2 0 0 1-2-2V7a2 2 0 0 0-2-2z"/></symbol><symbol id="hd-icon-mdi-beaker-outline" viewBox="0 0 24 24"><path fill="currentColor" d="M3 3h18v2a2 2 0 0 0-2 2v12a2 2 0 0 1-2 2H7a2 2 0 0 1-2-2V7a2 2 0 0 0-2-2zm4 2v2h5v1H7v1h3v1H7v1h3v1H7v1h5v1H7v1h3v1H7v3h10V5z"/></symbol><symbol id="hd-icon-mdi-beaker-plus" viewBox="0 0 24 24"><path fill="currentColor" d="M18 14h2v3h3v2h-3v3h-2v-3h-3v-2h3zM3 3h18v2c-1.1 0-2 .9-2 2v5a6.005 6.005 0 0 0-5.2 9H7c-1.1 0-2-.9-2-2V7c0-1.1-.9-2-2-2zm4 6v1h3V9zm0 2v1h3v-1zm3 5v-1H7v1zm2-2v-1H7v1zm0-6V7H7v1z"/></symbol><symbol id="hd-icon-mdi-beaker-plus-outline" viewBox="0 0 24 24"><path fill="currentColor" d="M18 14h2v3h3v2h-3v3h-2v-3h-3v-2h3zM3 3h18v2c-1.1 0-2 .9-2 2v5c-.7 0-1.37.12-2 .34V5H7v2h5v1H7v1h3v1H7v1h3v1H7v1h5v1H7v1h3v1H7v3h6.08c.12.72.37 1.39.72 2H7a2 2 0 0 1-2-2V7a2 2 0 0 0-2-2z"/></symbol><symbol id="hd-icon-mdi-beaker-question" viewBox="0 0 24 24"><path fill="currentColor" d="M0 3h18v2c-1.1 0-2 .9-2 2v12c0 1.1-.9 2-2 2H4c-1.1 0-2-.9-2-2V7c0-1.1-.9-2-2-2zm4 6v1h3V9zm0 2v1h3v-1zm3 5v-1H4v1zm2-2v-1H4v1zm0-6V7H4v1zm12.5 7.5V17H20v-1.5zm-2-5H18V10c0-1.66 1.34-3 3-3s3 1.34 3 3c0 .97-.5 1.88-1.29 2.41l-.3.19c-.57.4-.91 1.02-.91 1.7v.2H20v-.2c0-1.19.6-2.3 1.59-2.95l.29-.19c.39-.26.62-.69.62-1.16c0-.82-.67-1.5-1.5-1.5s-1.5.67-1.5 1.5z"/></symbol><symbol id="hd-icon-mdi-beaker-question-outline" viewBox="0 0 24 24"><path fill="currentColor" d="M0 3h18v2c-1.1 0-2 .9-2 2v12c0 1.11-.89 2-2 2H4a2 2 0 0 1-2-2V7a2 2 0 0 0-2-2zm4 2v2h5v1H4v1h3v1H4v1h3v1H4v1h5v1H4v1h3v1H4v3h10V5zm17.5 10.5V17H20v-1.5zm-2-5H18V10c0-1.66 1.34-3 3-3s3 1.34 3 3c0 .97-.5 1.88-1.29 2.41l-.3.19c-.57.4-.91 1.02-.91 1.7v.2H20v-.2c0-1.19.6-2.3 1.59-2.95l.29-.19c.39-.26.62-.69.62-1.16c0-.82-.67-1.5-1.5-1.5s-1.5.67-1.5 1.5z"/></symbol><symbol id="hd-icon-mdi-beaker-remove" viewBox="0 0 24 24"><path fill="currentColor" d="m15.46 15.88l1.42-1.42L19 16.59l2.12-2.12l1.41 1.41L20.41 18l2.13 2.12l-1.42 1.42L19 19.41l-2.12 2.12l-1.41-1.41L17.59 18zM3 3h18v2c-1.1 0-2 .9-2 2v5a6.005 6.005 0 0 0-5.2 9H7c-1.1 0-2-.9-2-2V7c0-1.1-.9-2-2-2zm4 6v1h3V9zm0 2v1h3v-1zm3 5v-1H7v1zm2-2v-1H7v1zm0-6V7H7v1z"/></symbol><symbol id="hd-icon-mdi-beaker-remove-outline" viewBox="0 0 24 24"><path fill="currentColor" d="m15.46 15.88l1.42-1.42L19 16.59l2.12-2.12l1.41 1.41L20.41 18l2.13 2.12l-1.42 1.42L19 19.41l-2.12 2.12l-1.41-1.41L17.59 18zM3 3h18v2c-1.1 0-2 .9-2 2v5c-.7 0-1.37.12-2 .34V5H7v2h5v1H7v1h3v1H7v1h3v1H7v1h5v1H7v1h3v1H7v3h6.08c.12.72.37 1.39.72 2H7a2 2 0 0 1-2-2V7a2 2 0 0 0-2-2z"/></symbol><symbol id="hd-icon-mdi-beam" viewBox="0 0 24 24"><path d="M12 2C6.477 2 2 6.477 2 12s4.477 10 10 10s10-4.477 10-10S17.523 2 12 2zm9.365 10.817A16.655 16.655 0 0 1 11.183 2.635c5.823-.501 10.684 4.355 10.182 10.182zM9.172 9.172a4 4 0 1 1 5.656 5.656a4 4 0 0 1-5.656-5.656zm-6.537 2.01a16.655 16.655 0 0 1 10.182 10.183c-5.83.502-10.683-4.362-10.182-10.182z" fill="currentColor"/></symbol><symbol id="hd-icon-mdi-beats" viewBox="0 0 24 24"><path d="M7 12a5 5 0 0 0 5 5a5 5 0 0 0 5-5a5 5 0 0 0-5-5c-1.13 0-2.16.37-3 1V2.46c.95-.3 1.95-.46 3-.46a10 10 0 0 1 10 10a10 10 0 0 1-10 10A10 10 0 0 1 2 12c0-3.7 2-6.93 5-8.66V12m5-3a3 3 0 0 1 3 3a3 3 0 0 1-3 3a3 3 0 0 1-3-3a3 3 0 0 1 3-3z" fill="currentColor"/></symbol><symbol id="hd-icon-mdi-bed" viewBox="0 0 24 24"><path fill="currentColor" d="M19 7h-8v7H3V5H1v15h2v-3h18v3h2v-9a4 4 0 0 0-4-4M7 13a3 3 0 0 0 3-3a3 3 0 0 0-3-3a3 3 0 0 0-3 3a3 3 0 0 0 3 3"/></symbol><symbol id="hd-icon-mdi-bed-clock" viewBox="0 0 24 24"><path fill="currentColor" d="M19.2 9.5L16 7.7V4h1.5v2.8l2.4 1.4zm3 2.2c.5.7.8 1.5.8 2.3v9h-2v-3H3v3H1V8h2v9h8v-6.4c-.6-1.1-1-2.3-1-3.6c0-3.9 3.1-7 7-7s7 3.1 7 7c0 1.8-.7 3.4-1.8 4.7M12 7c0 2.8 2.2 5 5 5s5-2.2 5-5s-2.2-5-5-5s-5 2.2-5 5m-5 9c1.7 0 3-1.3 3-3s-1.3-3-3-3s-3 1.3-3 3s1.3 3 3 3"/></symbol><symbol id="hd-icon-mdi-bed-double" viewBox="0 0 24 24"><path fill="currentColor" d="M18 10V7a2 2 0 0 0-2-2H8a2 2 0 0 0-2 2v3a2 2 0 0 0-2 2v5h1.33L6 19h1l.67-2h8.66l.67 2h1l.67-2H20v-5a2 2 0 0 0-2-2m-7 0H8V7h3m5 3h-3V7h3Z"/></symbol><symbol id="hd-icon-mdi-bed-double-outline" viewBox="0 0 24 24"><path fill="currentColor" d="M8 5c-.5 0-1 .21-1.39.6S6 6.45 6 7v3c-.53 0-1 .19-1.41.59S4 11.47 4 12v5h1.34L6 19h1l.69-2h8.67l.64 2h1l.66-2H20v-5c0-.53-.19-1-.59-1.41S18.53 10 18 10V7c0-.55-.2-1-.61-1.4S16.5 5 16 5M8 7h3v3H8m5-3h3v3h-3m-7 2h12v3H6Z"/></symbol><symbol id="hd-icon-mdi-bed-empty" viewBox="0 0 24 24"><path fill="currentColor" d="M19 7H5v7H3V5H1v15h2v-3h18v3h2v-9a4 4 0 0 0-4-4"/></symbol><symbol id="hd-icon-mdi-bed-king" viewBox="0 0 24 24"><path fill="currentColor" d="M6 5c-.53 0-1 .21-1.41.6S4 6.45 4 7v3c-.55 0-1 .19-1.4.59S2 11.47 2 12v5h1.33L4 19h1l.67-2h12.66l.67 2h1l.67-2H22v-5c0-.53-.21-1-.6-1.41c-.4-.4-.85-.59-1.4-.59V7c0-.55-.19-1-.59-1.4S18.53 5 18 5M6 7h5v3H6m7-3h5v3h-5Z"/></symbol><symbol id="hd-icon-mdi-bed-king-outline" viewBox="0 0 24 24"><path fill="currentColor" d="M20 10V7a2 2 0 0 0-2-2H6a2 2 0 0 0-2 2v3a2 2 0 0 0-2 2v5h1.33L4 19h1l.67-2h12.66l.67 2h1l.67-2H22v-5a2 2 0 0 0-2-2m-7-3h5v3h-5M6 7h5v3H6m14 5H4v-3h16Z"/></symbol><symbol id="hd-icon-mdi-bed-outline" viewBox="0 0 24 24"><path fill="currentColor" d="M7 14c1.66 0 3-1.34 3-3S8.66 8 7 8s-3 1.34-3 3s1.34 3 3 3m0-4c.55 0 1 .45 1 1s-.45 1-1 1s-1-.45-1-1s.45-1 1-1m12-3h-8v8H3V5H1v15h2v-3h18v3h2v-9c0-2.21-1.79-4-4-4m2 8h-8V9h6c1.1 0 2 .9 2 2Z"/></symbol><symbol id="hd-icon-mdi-bed-queen" viewBox="0 0 24 24"><path fill="currentColor" d="M19 10V7a2 2 0 0 0-2-2H7a2 2 0 0 0-2 2v3a2 2 0 0 0-2 2v5h1.33L5 19h1l.67-2h10.66l.67 2h1l.67-2H21v-5a2 2 0 0 0-2-2m-2 0H7V7h10Z"/></symbol><symbol id="hd-icon-mdi-bed-queen-outline" viewBox="0 0 24 24"><path fill="currentColor" d="M19 10V7a2 2 0 0 0-2-2H7a2 2 0 0 0-2 2v3a2 2 0 0 0-2 2v5h1.33L5 19h1l.67-2h10.66l.67 2h1l.67-2H21v-5a2 2 0 0 0-2-2M7 7h10v3H7m12 5H5v-3h14Z"/></symbol><symbol id="hd-icon-mdi-bed-single" viewBox="0 0 24 24"><path fill="currentColor" d="M17 10V7a2 2 0 0 0-2-2H9c-1.1 0-2 .9-2 2v3c-1.1 0-2.11.9-2 2v5h1.33L7 19h1l.67-2h6.66l.67 2h1l.67-2H19v-5a2 2 0 0 0-2-2m-2 0H9V7h6Z"/></symbol><symbol id="hd-icon-mdi-bed-single-outline" viewBox="0 0 24 24"><path fill="currentColor" d="M17 10V7a2 2 0 0 0-2-2H9c-1.1 0-2 .9-2 2v3c-1.1 0-2 .9-2 2v5h1.33L7 19h1l.67-2h6.66l.67 2h1l.67-2H19v-5a2 2 0 0 0-2-2M9 7h6v3H9m8 5H7v-3h10Z"/></symbol><symbol id="hd-icon-mdi-bee" viewBox="0 0 24 24"><path fill="currentColor" d="M17.4 9C17 7.8 16.2 7 15 6.5V5h-1v1.4h-.4c-1.1 0-2 .4-2.8 1.2l-.4.4L9 7.5c-.3-.1-.6-.2-1-.2c-.6 0-1.2.2-1.7.6c-.6.4-.9.9-1.1 1.4c-.2.7-.2 1.3 0 2c.3.7.6 1.2 1.1 1.5c-.4 1.5-.1 2.8 1 3.9c.8.8 1.7 1.2 2.8 1.2c.5 0 .8 0 1.1-.1c.6.8 1.4 1.3 2.4 1.3c.3 0 .7 0 1-.1c.6-.2 1-.6 1.4-1.1c.4-.6.6-1.1.6-1.7c0-.4 0-.7-.1-1l-.5-1.6l.6-.4c.8-.8 1.2-1.9 1.1-3.1H19V9zm-9.7 2.3c-.6-.3-.8-.7-.6-1.3q.3-.9 1.2-.6l3.2 1.2c-1.6.8-2.8 1-3.8.7m6.3 5.6c-.6.2-1 0-1.3-.6c-.3-1-.1-2.2.7-3.8l1.2 3.1c.2.7 0 1.1-.6 1.3m1.2-5.3l-.6-1.6v-.1l-.3-.3h-.1L12.6 9c.4-.3.8-.5 1.3-.5s1 .2 1.4.6s.6.8.6 1.3c-.2.3-.4.8-.7 1.2"/></symbol><symbol id="hd-icon-mdi-bee-flower" viewBox="0 0 24 24"><path fill="currentColor" d="M11.6 13v-.1l-.3-.3h-.1L9.6 12c.4-.3.8-.5 1.3-.5s1 .2 1.4.6s.6.8.6 1.3s-.1.9-.5 1.3zm-1.9 6.3c-.3-1-.1-2.2.7-3.8l1.2 3.1c.2.6 0 1-.6 1.3s-1 .1-1.3-.6m-5.6-6.2q.3-.9 1.2-.6l3.2 1.2c-1.6.8-2.8 1-3.8.7c-.6-.3-.8-.7-.6-1.3m7.9-5h-1v1.4h-.4c-1.1 0-2 .4-2.8 1.2l-.4.6l-1.4-.8c-.3-.1-.6-.1-1-.1c-.6 0-1.2.2-1.7.6s-.9.8-1.1 1.4c-.2.7-.2 1.3 0 2c.3.7.6 1.2 1.1 1.5c-.4 1.5-.1 2.8 1 3.9c.8.8 1.7 1.2 2.8 1.2c.5 0 .8 0 1.1-.1c.6.8 1.4 1.3 2.4 1.3c.3 0 .7 0 1-.1c.6-.2 1-.6 1.4-1.1c.4-.6.6-1.1.6-1.7c0-.4 0-.7-.1-1l-.6-1.4l.6-.4c.8-.8 1.2-1.9 1.1-3.1H16v-1h-1.6q-.6-1.8-2.4-2.4zm5.3-1.3c-.2-.2-.3-.5-.3-.7c0-.3.1-.5.3-.7s.4-.3.7-.3s.5.1.7.3c.2.1.3.4.3.7s-.1.5-.3.7s-.4.2-.7.2s-.5 0-.7-.2m3.4-2.7h-1.1l-.3-.9c-.2-.7-.6-1-1.3-1s-1.2.3-1.3 1l-.3.9h-1.1c-.6 0-1 .3-1.3.9q-.3.9.6 1.5l.9.5l-.4 1.2c-.2.4-.1.8.1 1.2c.3.4.6.6 1.1.6q.6 0 .9-.3l.8-.6l.8.7c.2.1.5.2.9.2c.5 0 .8-.2 1.1-.6c.2-.4.3-.8.1-1.2L20.5 7l.8-.5q.9-.6.6-1.5c-.2-.7-.6-.9-1.2-.9"/></symbol><symbol id="hd-icon-mdi-beehive-off-outline" viewBox="0 0 24 24"><path fill="currentColor" d="m1.1 3l3.6 3.5c-1 .7-1.7 1.7-1.7 3c0 .6.2 1.2.5 1.7C2 11.6 1 12.9 1 14.5c0 1.3.7 2.3 1.7 3c-.5.5-.7 1.2-.7 2C2 21.4 3.6 23 5.5 23h13c.8 0 1.5-.3 2.1-.7l.7.7l1.3-1.3l-20.2-20zm8.1 8H6.5C5.7 11 5 10.3 5 9.5c0-.7.5-1.3 1.2-1.5zM9 21H5.5c-.8 0-1.5-.7-1.5-1.5S4.7 18 5.5 18H9zm.2-5H4.5c-.8 0-1.5-.7-1.5-1.5S3.7 13 4.5 13h6.7l1 1H12c-1.3 0-2.4.8-2.8 2m9.3 5H15v-3h1.2l2.9 2.9c-.2.1-.4.1-.6.1M7.1 3.9L5.7 2.5C6.3 1.6 7.3 1 8.5 1h7C17.4 1 19 2.6 19 4.5c0 .6-.2 1.2-.5 1.7C20 6.6 21 7.9 21 9.5c0 .6-.2 1.2-.5 1.7c1.4.5 2.5 1.8 2.5 3.3c0 1.3-.7 2.3-1.7 3q.45.6.6 1.2L19.2 16h.3c.8 0 1.5-.7 1.5-1.5s-.7-1.5-1.5-1.5h-3.3l-2-2h3.3c.8 0 1.5-.7 1.5-1.5S18.3 8 17.5 8h-6.3l-2-2h6.3c.8 0 1.5-.7 1.5-1.5S16.3 3 15.5 3h-7c-.6 0-1.2.4-1.4.9"/></symbol><symbol id="hd-icon-mdi-beehive-outline" viewBox="0 0 24 24"><path fill="currentColor" d="M23 14.5c0-1.56-1.03-2.87-2.45-3.32c.28-.5.45-1.07.45-1.68c0-1.56-1.03-2.87-2.45-3.32c.28-.5.45-1.07.45-1.68C19 2.57 17.43 1 15.5 1h-7C6.57 1 5 2.57 5 4.5c0 .61.17 1.18.45 1.68C4.04 6.63 3 7.94 3 9.5c0 .61.17 1.18.45 1.68C2.04 11.63 1 12.94 1 14.5c0 1.26.67 2.34 1.67 2.96c-.42.57-.67 1.28-.67 2.04C2 21.43 3.57 23 5.5 23h13c1.93 0 3.5-1.57 3.5-3.5c0-.76-.25-1.47-.67-2.04c1-.62 1.67-1.7 1.67-2.96M8.5 3h7c.83 0 1.5.67 1.5 1.5S16.33 6 15.5 6h-7C7.67 6 7 5.33 7 4.5S7.67 3 8.5 3m-2 5h11c.83 0 1.5.67 1.5 1.5s-.67 1.5-1.5 1.5h-11C5.67 11 5 10.33 5 9.5S5.67 8 6.5 8M4 19.5c0-.83.67-1.5 1.5-1.5H9v3H5.5c-.83 0-1.5-.67-1.5-1.5M18.5 21H15v-3h3.5c.83 0 1.5.67 1.5 1.5s-.67 1.5-1.5 1.5m1-5h-4.68c-.42-1.16-1.52-2-2.82-2s-2.4.84-2.82 2H4.5c-.83 0-1.5-.67-1.5-1.5S3.67 13 4.5 13h15c.83 0 1.5.67 1.5 1.5s-.67 1.5-1.5 1.5"/></symbol><symbol id="hd-icon-mdi-beekeeper" viewBox="0 0 24 24"><path fill="currentColor" d="M19 5h-3c0-1.66-1.79-3-4-3S8 3.34 8 5H5c-.55 0-1 .45-1 1s.45 1 1 1v7a2 2 0 0 0 2 2h10c1.11 0 2-.89 2-2V7c.55 0 1-.45 1-1s-.45-1-1-1m-2 9H7V7h10zm-1.14-6c.08.32.14.65.14 1c0 2.21-1.79 4-4 4s-4-1.79-4-4c0-.35.06-.68.14-1h2.14c-.17.3-.28.63-.28 1c0 1.1.9 2 2 2s2-.9 2-2c0-.37-.11-.7-.28-1zM20 19v3H4v-3c0-.78.47-1.45 1.18-2H12c-2.72 0-5.81 1.29-6 2v1h12v-1c-.19-.71-3.28-2-6-2h6.82c.71.55 1.18 1.22 1.18 2"/></symbol><symbol id="hd-icon-mdi-beer" viewBox="0 0 24 24"><path fill="currentColor" d="M4 2h15l-2 20H6zm2.2 2l1.6 16h1L7.43 6.34C8.5 6 9.89 5.89 11 7c1.56 1.56 4.33.69 5.5.23L16.8 4z"/></symbol><symbol id="hd-icon-mdi-beer-outline" viewBox="0 0 24 24"><path fill="currentColor" d="m4 2l2 20h11l2-20zm2.2 2h10.6l-.3 3.23c-3.32 1.27-4.65.44-5.12.08c-.25-.19-.61-.62-1.27-.92c-.66-.31-1.56-.39-2.61-.07c-.41.11-.73.29-1 .47zm2.66 4.11c.19 0 .3.04.41.09c.23.1.44.35.9.7c.86.66 2.86 1.46 6.09.51L15.2 20H7.8L6.71 9.06c.05-.06.2-.17.46-.35c.33-.21.74-.43.83-.46h.03c.38-.11.64-.15.83-.14"/></symbol><symbol id="hd-icon-mdi-behance" viewBox="0 0 24 24"><path d="M19.58 12.27c-.04-.62-.25-1.09-.62-1.41c-.37-.32-.83-.48-1.38-.48c-.58 0-1.08.17-1.39.51c-.33.34-.54.8-.62 1.38m6.35-.23c.08.41.08 1 .08 1.77h-6.5c.05.9.35 1.52.94 1.88c.35.23.78.34 1.29.34c.53 0 .96-.14 1.27-.41c.2-.15.36-.35.5-.62h2.38c-.06.54-.35 1.07-.88 1.62c-.78.88-1.9 1.3-3.34 1.3c-1.19 0-2.23-.37-3.16-1.1c-.88-.73-1.34-1.92-1.34-3.57c0-1.55.41-2.75 1.23-3.55c.82-.83 1.88-1.24 3.19-1.24c.77 0 1.47.14 2.09.42c.62.28 1.14.71 1.54 1.32c.37.53.6 1.14.71 1.84M9.58 14.07c0-.65-.27-1.1-.79-1.34c-.29-.13-.71-.2-1.25-.23H4.87v3.34H7.5c.54 0 .96-.07 1.26-.22c.55-.27.82-.79.82-1.55m-4.71-3.61H7.5c.54 0 1-.1 1.32-.31c.34-.2.5-.57.5-1.09c0-.56-.22-.96-.66-1.15c-.39-.13-.88-.19-1.47-.19H4.87m6.85 4.7c.32.5.48 1.11.48 1.82c0 .76-.2 1.4-.55 1.99a3.6 3.6 0 0 1-.88.98c-.4.29-.87.51-1.41.62c-.54.11-1.12.17-1.75.17H2V5.55h6c1.53.03 2.6.45 3.23 1.33c.38.53.57 1.16.57 1.9c0 .76-.19 1.37-.57 1.83c-.23.26-.53.5-.95.71c.63.23 1.11.6 1.44 1.1m8.34-5.1h-5.01V6.07h5.01v1.25z" fill="currentColor"/></symbol><symbol id="hd-icon-mdi-bell" viewBox="0 0 24 24"><path fill="currentColor" d="M21 19v1H3v-1l2-2v-6c0-3.1 2.03-5.83 5-6.71V4a2 2 0 0 1 2-2a2 2 0 0 1 2 2v.29c2.97.88 5 3.61 5 6.71v6zm-7 2a2 2 0 0 1-2 2a2 2 0 0 1-2-2"/></symbol><symbol id="hd-icon-mdi-bell-alert" viewBox="0 0 24 24"><path fill="currentColor" d="M23 7v6h-2V7m0 8h2v2h-2M12 2a2 2 0 0 0-2 2a2 2 0 0 0 0 .29C7.12 5.14 5 7.82 5 11v6l-2 2v1h18v-1l-2-2v-6c0-3.18-2.12-5.86-5-6.71A2 2 0 0 0 14 4a2 2 0 0 0-2-2m-2 19a2 2 0 0 0 2 2a2 2 0 0 0 2-2Z"/></symbol><symbol id="hd-icon-mdi-bell-alert-outline" viewBox="0 0 24 24"><path fill="currentColor" d="M12 2a2 2 0 0 0-2 2a2 2 0 0 0 0 .29C7.12 5.14 5 7.82 5 11v6l-2 2v1h18v-1l-2-2v-6c0-3.18-2.12-5.86-5-6.71A2 2 0 0 0 14 4a2 2 0 0 0-2-2m0 4a5 5 0 0 1 5 5v7H7v-7a5 5 0 0 1 5-5m9 1v6h2V7zm0 8v2h2v-2zm-11 6a2 2 0 0 0 2 2a2 2 0 0 0 2-2z"/></symbol><symbol id="hd-icon-mdi-bell-badge" viewBox="0 0 24 24"><path fill="currentColor" d="M21 6.5c0 1.93-1.57 3.5-3.5 3.5S14 8.43 14 6.5S15.57 3 17.5 3S21 4.57 21 6.5m-2 5.29c-.5.13-1 .21-1.5.21A5.51 5.51 0 0 1 12 6.5c0-1.47.58-2.8 1.5-3.79A1.93 1.93 0 0 0 12 2c-1.1 0-2 .9-2 2v.29C7.03 5.17 5 7.9 5 11v6l-2 2v1h18v-1l-2-2zM12 23c1.11 0 2-.89 2-2h-4a2 2 0 0 0 2 2"/></symbol><symbol id="hd-icon-mdi-bell-badge-outline" viewBox="0 0 24 24"><path fill="currentColor" d="M19 17v-5.2c-.5.1-1 .2-1.5.2H17v6H7v-7c0-2.8 2.2-5 5-5c.1-1.3.7-2.4 1.5-3.3c-.3-.4-.9-.7-1.5-.7c-1.1 0-2 .9-2 2v.3C7 5.2 5 7.9 5 11v6l-2 2v1h18v-1zm-9 4c0 1.1.9 2 2 2s2-.9 2-2zM21 6.5c0 1.9-1.6 3.5-3.5 3.5S14 8.4 14 6.5S15.6 3 17.5 3S21 4.6 21 6.5"/></symbol><symbol id="hd-icon-mdi-bell-cancel" viewBox="0 0 24 24"><path fill="currentColor" d="M17.5 13a4.5 4.5 0 0 0-4.5 4.5a4.5 4.5 0 0 0 4.5 4.5a4.5 4.5 0 0 0 4.5-4.5a4.5 4.5 0 0 0-4.5-4.5m0 1.5a3 3 0 0 1 3 3a3 3 0 0 1-.42 1.5L16 14.92a3 3 0 0 1 1.5-.42M14.92 16L19 20.08a3 3 0 0 1-1.5.42a3 3 0 0 1-3-3a3 3 0 0 1 .42-1.5M12 2c-1.1 0-2 .9-2 2v.29C7.12 5.14 5 7.82 5 11v6l-2 2v1h8.5a6.5 6.5 0 0 1-.5-2.5a6.5 6.5 0 0 1 6.5-6.5a6.5 6.5 0 0 1 1.5.18V11c0-3.18-2.12-5.86-5-6.71V4a2 2 0 0 0-2-2m-2 19a2 2 0 0 0 2 2c.5 0 .97-.19 1.33-.5a6.5 6.5 0 0 1-1.3-1.5Z"/></symbol><symbol id="hd-icon-mdi-bell-cancel-outline" viewBox="0 0 24 24"><path fill="currentColor" d="M17.5 13a4.5 4.5 0 0 0-4.5 4.5a4.5 4.5 0 0 0 4.5 4.5a4.5 4.5 0 0 0 4.5-4.5a4.5 4.5 0 0 0-4.5-4.5m0 1.5a3 3 0 0 1 3 3a3 3 0 0 1-.42 1.5L16 14.92a3 3 0 0 1 1.5-.42M14.92 16L19 20.08a3 3 0 0 1-1.5.42a3 3 0 0 1-3-3a3 3 0 0 1 .42-1.5M12 2c-1.1 0-2 .9-2 2v.29C7.12 5.14 5 7.82 5 11v6l-2 2v1h8.5a6.5 6.5 0 0 1-.47-2H7v-7a5 5 0 0 1 5-5a5 5 0 0 1 5 5a7 7 0 0 1 .5 0a6.5 6.5 0 0 1 1.5.18V11c0-3.18-2.12-5.86-5-6.71V4a2 2 0 0 0-2-2m-2 19a2 2 0 0 0 2 2c.5 0 .97-.19 1.33-.5a6.5 6.5 0 0 1-1.3-1.5Z"/></symbol><symbol id="hd-icon-mdi-bell-check" viewBox="0 0 24 24"><path fill="currentColor" d="m17.75 21.16l-2.75-3L16.16 17l1.59 1.59L21.34 15l1.16 1.41zM3 20v-1l2-2v-6a7 7 0 0 1 5-6.71V4a2 2 0 1 1 4 0v.29A7 7 0 0 1 19 11v1.08L18 12a6.005 6.005 0 0 0-5.66 8zm9 3a2 2 0 0 1-2-2h2.8c.24.41.53.79.85 1.13c-.36.53-.96.87-1.65.87"/></symbol><symbol id="hd-icon-mdi-bell-check-outline" viewBox="0 0 24 24"><path fill="currentColor" d="m17.75 21.16l-2.75-3L16.16 17l1.59 1.59L21.34 15l1.16 1.41zM10 21h2.8c.24.41.53.79.85 1.13c-.36.53-.96.87-1.65.87a2 2 0 0 1-2-2m-7-1v-1l2-2v-6a7 7 0 0 1 5-6.71V4a2 2 0 1 1 4 0v.29A7 7 0 0 1 19 11v1.08L18 12l-1 .08V11c0-2.76-2.24-5-5-5s-5 2.24-5 5v7h5c0 .7.12 1.37.34 2z"/></symbol><symbol id="hd-icon-mdi-bell-circle" viewBox="0 0 24 24"><path fill="currentColor" d="M12 2a10 10 0 0 1 10 10a10 10 0 0 1-10 10A10 10 0 0 1 2 12A10 10 0 0 1 12 2m5 14v-1l-1-1v-2.61c0-1.09-.27-2.05-.79-2.86C14.7 7.72 13.96 7.21 13 7v-.5a1 1 0 0 0-1-1a1 1 0 0 0-1 1V7c-.96.21-1.7.72-2.21 1.53c-.52.81-.79 1.77-.79 2.86V14l-1 1v1zm-3.5 1h-3a1.5 1.5 0 0 0 1.5 1.5a1.5 1.5 0 0 0 1.5-1.5"/></symbol><symbol id="hd-icon-mdi-bell-circle-outline" viewBox="0 0 24 24"><path fill="currentColor" d="M17 16H7v-1l1-1v-2.61c0-1.09.27-2.05.79-2.86C9.3 7.72 10.04 7.21 11 7v-.5a1 1 0 0 1 1-1a1 1 0 0 1 1 1V7c.96.21 1.7.72 2.21 1.53c.52.81.79 1.77.79 2.86V14l1 1zm-3.5 1a1.5 1.5 0 0 1-1.5 1.5a1.5 1.5 0 0 1-1.5-1.5zM12 2a10 10 0 0 1 10 10a10 10 0 0 1-10 10A10 10 0 0 1 2 12A10 10 0 0 1 12 2m0 2a8 8 0 0 0-8 8a8 8 0 0 0 8 8a8 8 0 0 0 8-8a8 8 0 0 0-8-8"/></symbol><symbol id="hd-icon-mdi-bell-cog" viewBox="0 0 24 24"><path fill="currentColor" d="M19 12c-3.87 0-7 3.13-7 7c0 .34.03.67.08 1H3v-1l2-2v-6c0-3.1 2.03-5.83 5-6.71V4c0-1.1.9-2 2-2s2 .9 2 2v.29c2.97.88 5 3.61 5 6.71zm-9 9a2 2 0 0 0 2 2c.39 0 .75-.12 1.06-.31c-.32-.52-.56-1.09-.76-1.69zm13.77-.68c.1.07.12.21.06.32l-1 1.73c-.06.13-.19.13-.3.13l-1.25-.53c-.28.2-.53.37-.84.5l-.19 1.32c-.02.12-.12.21-.25.21h-2c-.12 0-.23-.09-.25-.21l-.18-1.32c-.32-.13-.57-.3-.85-.5l-1.22.53c-.13 0-.27 0-.33-.13l-1-1.73a.26.26 0 0 1 .06-.32l1.06-.82c-.02-.17-.04-.33-.04-.5s.02-.33.04-.5l-1.06-.82c-.09-.07-.12-.18-.06-.32l1-1.72c.06-.11.2-.14.33-.11l1.22.47c.28-.17.53-.34.85-.46l.18-1.33c.02-.12.13-.21.25-.21h2c.13 0 .23.09.25.21l.19 1.33c.31.12.56.29.84.46l1.25-.47c.11-.03.24 0 .3.11l1 1.72c.06.14.04.25-.06.32l-1.05.82a4.3 4.3 0 0 1 0 1zM20.75 19c0-.97-.78-1.75-1.75-1.75s-1.75.78-1.75 1.75s.79 1.75 1.75 1.75s1.75-.78 1.75-1.75"/></symbol><symbol id="hd-icon-mdi-bell-cog-outline" viewBox="0 0 24 24"><path fill="currentColor" d="M22.72 19.5a4.2 4.2 0 0 0 0-1l1.05-.82c.1-.07.12-.18.06-.32l-1-1.72c-.06-.11-.19-.14-.3-.11l-1.25.47c-.28-.17-.53-.34-.84-.46l-.19-1.33A.25.25 0 0 0 20 14h-2c-.12 0-.23.09-.25.21l-.18 1.33c-.32.12-.57.29-.85.46l-1.22-.47c-.13-.03-.27 0-.33.11l-1 1.72c-.06.14-.03.25.06.32l1.06.82c-.02.17-.04.34-.04.5s.02.33.04.5l-1.06.82c-.09.07-.12.21-.06.32l1 1.73c.06.13.2.13.33.13l1.22-.53c.28.2.53.37.85.5l.18 1.32c.02.12.13.21.25.21h2c.13 0 .23-.09.25-.21l.19-1.32c.31-.13.56-.3.84-.5l1.25.53c.11 0 .24 0 .3-.13l1-1.73c.06-.11.04-.25-.06-.32zM19 20.75c-.96 0-1.75-.78-1.75-1.75s.79-1.75 1.75-1.75s1.75.78 1.75 1.75s-.78 1.75-1.75 1.75M12.08 20H3v-1l2-2v-6c0-3.1 2-5.8 5-6.7V4c0-1.1.9-2 2-2s2 .9 2 2v.3c3 .9 5 3.6 5 6.7v1c-.69 0-1.37.11-2 .29V11c0-2.8-2.2-5-5-5s-5 2.2-5 5v7h5.08c-.05.33-.08.66-.08 1s.03.67.08 1m.22 1c.2.6.44 1.17.76 1.69c-.31.19-.67.31-1.06.31c-1.1 0-2-.9-2-2z"/></symbol><symbol id="hd-icon-mdi-bell-minus" viewBox="0 0 24 24"><path fill="currentColor" d="M22 19v-2h-8v2zM12 2c-1.1 0-2 .9-2 2v.29C7.12 5.14 5 7.82 5 11v6l-2 2v1h9.35a5.9 5.9 0 0 1-.35-2c0-3.31 2.69-6 6-6c.34 0 .67.03 1 .09V11c0-3.18-2.12-5.86-5-6.71V4a2 2 0 0 0-2-2m-2 19a2 2 0 0 0 3.65 1.13c-.32-.34-.6-.72-.84-1.13z"/></symbol><symbol id="hd-icon-mdi-bell-minus-outline" viewBox="0 0 24 24"><path fill="currentColor" d="M12 2c-1.1 0-2 .9-2 2v.29C7.12 5.14 5 7.82 5 11v6l-2 2v1h9.35a5.9 5.9 0 0 1-.35-2H7v-7c0-2.76 2.24-5 5-5s5 2.24 5 5v1.09a5.6 5.6 0 0 1 2 0V11c0-3.18-2.12-5.86-5-6.71V4a2 2 0 0 0-2-2m2 15v2h8v-2m-12 4a2 2 0 0 0 3.65 1.13c-.32-.34-.6-.72-.84-1.13z"/></symbol><symbol id="hd-icon-mdi-bell-off" viewBox="0 0 24 24"><path fill="currentColor" d="M20.84 22.73L18.11 20H3v-1l2-2v-6c0-1.14.29-2.27.83-3.28L1.11 3l1.28-1.27l19.72 19.73zM19 15.8V11c0-3.1-2.03-5.83-5-6.71V4a2 2 0 0 0-2-2a2 2 0 0 0-2 2v.29c-.61.18-1.2.45-1.74.8zM12 23a2 2 0 0 0 2-2h-4a2 2 0 0 0 2 2"/></symbol><symbol id="hd-icon-mdi-bell-off-outline" viewBox="0 0 24 24"><path fill="currentColor" d="M22.11 21.46L2.39 1.73L1.11 3l4.72 4.72A7 7 0 0 0 5 11v6l-2 2v1h15.11l2.73 2.73zM7 18v-7c0-.61.11-1.21.34-1.77L16.11 18zm3 3h4a2 2 0 0 1-2 2a2 2 0 0 1-2-2M8.29 5.09c.53-.34 1.11-.59 1.71-.8V4a2 2 0 0 1 2-2a2 2 0 0 1 2 2v.29c2.97.88 5 3.61 5 6.71v4.8l-2-2V11a5 5 0 0 0-5-5c-.78 0-1.55.2-2.24.56z"/></symbol><symbol id="hd-icon-mdi-bell-outline" viewBox="0 0 24 24"><path fill="currentColor" d="M10 21h4c0 1.1-.9 2-2 2s-2-.9-2-2m11-2v1H3v-1l2-2v-6c0-3.1 2-5.8 5-6.7V4c0-1.1.9-2 2-2s2 .9 2 2v.3c3 .9 5 3.6 5 6.7v6zm-4-8c0-2.8-2.2-5-5-5s-5 2.2-5 5v7h10z"/></symbol><symbol id="hd-icon-mdi-bell-plus" viewBox="0 0 24 24"><path fill="currentColor" d="M17 14v3h-3v2h3v3h2v-3h3v-2h-3v-3M12 2a2 2 0 0 0-2 2a2 2 0 0 0 0 .29C7.12 5.14 5 7.82 5 11v6l-2 2v1h9.35a6 6 0 0 1-.35-2a6 6 0 0 1 6-6a6 6 0 0 1 1 .09V11c0-3.18-2.12-5.86-5-6.71A2 2 0 0 0 14 4a2 2 0 0 0-2-2m-2 19a2 2 0 0 0 2 2a2 2 0 0 0 1.65-.87a6 6 0 0 1-.84-1.13Z"/></symbol><symbol id="hd-icon-mdi-bell-plus-outline" viewBox="0 0 24 24"><path fill="currentColor" d="M12 2c-1.1 0-2 .9-2 2v.29C7.12 5.14 5 7.82 5 11v6l-2 2v1h9.35a5.9 5.9 0 0 1-.35-2H7v-7c0-2.76 2.24-5 5-5s5 2.24 5 5v1.09a5.6 5.6 0 0 1 2 0V11c0-3.18-2.12-5.86-5-6.71V4a2 2 0 0 0-2-2m5 12v3h-3v2h3v3h2v-3h3v-2h-3v-3m-9 7a2 2 0 0 0 3.65 1.13c-.32-.34-.6-.72-.84-1.13Z"/></symbol><symbol id="hd-icon-mdi-bell-remove" viewBox="0 0 24 24"><path fill="currentColor" d="M20.12 14.46L18 16.59l-2.12-2.13l-1.42 1.42L16.59 18l-2.13 2.12l1.42 1.42L18 19.41l2.12 2.13l1.42-1.42L19.41 18l2.13-2.12M12 2c-1.1 0-2 .9-2 2v.29C7.12 5.14 5 7.82 5 11v6l-2 2v1h9.35a5.9 5.9 0 0 1-.35-2c0-3.31 2.69-6 6-6c.34 0 .67.03 1 .09V11c0-3.18-2.12-5.86-5-6.71V4a2 2 0 0 0-2-2m-2 19a2 2 0 0 0 3.65 1.13c-.32-.34-.6-.72-.84-1.13Z"/></symbol><symbol id="hd-icon-mdi-bell-remove-outline" viewBox="0 0 24 24"><path fill="currentColor" d="M20.12 14.46L18 16.59l-2.12-2.13l-1.42 1.42L16.59 18l-2.13 2.12l1.42 1.42L18 19.41l2.12 2.13l1.42-1.42L19.41 18l2.13-2.12M12 2c-1.1 0-2 .9-2 2v.29C7.12 5.14 5 7.82 5 11v6l-2 2v1h9.35a5.9 5.9 0 0 1-.35-2H7v-7a5 5 0 0 1 5-5a5 5 0 0 1 5 5v1.09c.33-.05.66-.09 1-.09s.67.03 1 .09V11c0-3.18-2.12-5.86-5-6.71V4a2 2 0 0 0-2-2m-2 19a2 2 0 0 0 3.65 1.13c-.32-.34-.6-.72-.84-1.13Z"/></symbol><symbol id="hd-icon-mdi-bell-ring" viewBox="0 0 24 24"><path fill="currentColor" d="M21 19v1H3v-1l2-2v-6c0-3.1 2.03-5.83 5-6.71V4a2 2 0 0 1 2-2a2 2 0 0 1 2 2v.29c2.97.88 5 3.61 5 6.71v6zm-7 2a2 2 0 0 1-2 2a2 2 0 0 1-2-2m9.75-17.81l-1.42 1.42A8.98 8.98 0 0 1 21 11h2c0-2.93-1.16-5.75-3.25-7.81M1 11h2c0-2.4.96-4.7 2.67-6.39L4.25 3.19A10.96 10.96 0 0 0 1 11"/></symbol><symbol id="hd-icon-mdi-bell-ring-outline" viewBox="0 0 24 24"><path fill="currentColor" d="M10 21h4a2 2 0 0 1-2 2a2 2 0 0 1-2-2m11-2v1H3v-1l2-2v-6c0-3.1 2.03-5.83 5-6.71V4a2 2 0 0 1 2-2a2 2 0 0 1 2 2v.29c2.97.88 5 3.61 5 6.71v6zm-4-8a5 5 0 0 0-5-5a5 5 0 0 0-5 5v7h10zm2.75-7.81l-1.42 1.42A8.98 8.98 0 0 1 21 11h2c0-2.93-1.16-5.75-3.25-7.81M1 11h2c0-2.4.96-4.7 2.67-6.39L4.25 3.19A10.96 10.96 0 0 0 1 11"/></symbol><symbol id="hd-icon-mdi-bell-sleep" viewBox="0 0 24 24"><path fill="currentColor" d="M10 21h4a2 2 0 0 1-2 2a2 2 0 0 1-2-2m11-2v1H3v-1l2-2v-6c0-3.1 2.03-5.83 5-6.71V4a2 2 0 0 1 2-2a2 2 0 0 1 2 2v.29c2.97.88 5 3.61 5 6.71v6zM15 9H9v2h3.24L9 13.7V16h6v-2h-3.24L15 11.3z"/></symbol><symbol id="hd-icon-mdi-bell-sleep-outline" viewBox="0 0 24 24"><path fill="currentColor" d="M10 21h4a2 2 0 0 1-2 2a2 2 0 0 1-2-2m11-2v1H3v-1l2-2v-6c0-3.1 2.03-5.83 5-6.71V4a2 2 0 0 1 2-2a2 2 0 0 1 2 2v.29c2.97.88 5 3.61 5 6.71v6zm-4-8a5 5 0 0 0-5-5a5 5 0 0 0-5 5v7h10zM9 9v2h3.24L9 13.7V16h6v-2h-3.24L15 11.3V9z"/></symbol><symbol id="hd-icon-mdi-bench" viewBox="0 0 24 24"><path fill="currentColor" d="M23 13H1v2h2v4h2v-4h14v4h2v-4h2z"/></symbol><symbol id="hd-icon-mdi-bench-back" viewBox="0 0 24 24"><path fill="currentColor" d="M4 5c-.55 0-1 .45-1 1v4c0 .55.45 1 1 1h1v2H1v2h2v4h2v-4h14v4h2v-4h2v-2h-4v-2h1c.55 0 1-.45 1-1V6c0-.55-.45-1-1-1zm13 6v2H7v-2z"/></symbol><symbol id="hd-icon-mdi-beta" viewBox="0 0 24 24"><path fill="currentColor" d="M9.23 17.59v5.53H6.88V6.72c0-1.45.43-2.59 1.28-3.44C9 2.43 10.17 2 11.61 2c1.39 0 2.46.34 3.26 1c.79.68 1.18 1.62 1.18 2.81c0 .82-.26 1.59-.78 2.3s-1.19 1.2-2.02 1.47v.04c1.25.2 2.22.65 2.88 1.38c.66.71.99 1.62.99 2.74c0 1.32-.46 2.4-1.37 3.23c-.92.83-2.12 1.24-3.62 1.24c-1.06 0-2.03-.21-2.9-.62m1.49-6.84V8.83c.87-.11 1.58-.43 2.15-.97c.56-.55.84-1.16.84-1.86c0-1.38-.71-2.08-2.11-2.08c-.76 0-1.35.24-1.76.73s-.61 1.17-.61 2.06v8.79c.91.53 1.8.79 2.66.79c.84 0 1.5-.22 1.97-.65c.47-.44.7-1.06.7-1.85c0-1.79-1.28-2.79-3.84-3.04"/></symbol><symbol id="hd-icon-mdi-betamax" viewBox="0 0 24 24"><path fill="currentColor" d="M4 5a2 2 0 0 0-2 2v10a2 2 0 0 0 2 2h16a2 2 0 0 0 2-2V7a2 2 0 0 0-2-2zm4 4a4 4 0 0 1 4 4a4 4 0 0 1-4 4a4 4 0 0 1-4-4a4 4 0 0 1 4-4m5 0h7v8h-7zm-5 2a2 2 0 0 0-2 2a2 2 0 0 0 2 2a2 2 0 0 0 2-2a2 2 0 0 0-2-2"/></symbol><symbol id="hd-icon-mdi-biathlon" viewBox="0 0 24 24"><path fill="currentColor" d="M12.88 3.64c.77 0 1.4.63 1.4 1.4s-.63 1.4-1.4 1.4s-1.38-.63-1.38-1.4s.61-1.4 1.38-1.4M15 13h1.5v6H15zm0-4.5h1.5V10H15zm-4.96-5.9L8 2.04L6.06 8.58L3.9 11.42l3.27.95zm9.63 15.95c-.36.38-.79.95-1.27 1.15c-.49.22-.86.3-1.4.3h-3.5l-.07-3c-.01-.17-.06-.33-.15-.5l-2.4-4.26l.88-2.74a246 246 0 0 0 1.3 2.33c.15.17.39.3.63.3h2.21a.81.81 0 0 0 .81-.81c0-.42-.33-.76-.75-.79l-1.67-.13L12.4 7s-.4-.58-1.26-.58c-.87 0-1.14.42-1.31 1L6 20H3v2h14c1.37 0 2.53-.66 3.5-1.63zm-9.92-4.16l1.87 3l.13 2.61h-4z"/></symbol><symbol id="hd-icon-mdi-bicycle" viewBox="0 0 24 24"><path fill="currentColor" d="M19 10c-.56 0-1.09.11-1.59.28L14.46 4.5H11V6h2.54l.88 1.72L12 13.13l-1.77-4.18c.27-.1.51-.37.51-.7c0-.41-.33-.75-.74-.75H8c-.42 0-.76.34-.76.75S7.58 9 8 9h.61l2.25 5.25h-.94C9.56 11.85 7.5 10 5 10c-2.76 0-5 2.24-5 5s2.24 5 5 5c2.5 0 4.56-1.85 4.92-4.25h2.58l2.79-6.32l.79 1.53A4.98 4.98 0 0 0 14 15c0 2.76 2.24 5 5 5s5-2.24 5-5s-2.24-5-5-5M5 18.5c-1.93 0-3.5-1.57-3.5-3.5s1.57-3.5 3.5-3.5c1.67 0 3.07 1.18 3.41 2.75H4v1.5h4.41A3.495 3.495 0 0 1 5 18.5m14 0c-1.93 0-3.5-1.57-3.5-3.5c0-1.08.5-2.03 1.27-2.67l1.8 3.52l1.32-.72l-1.79-3.5c.29-.07.59-.13.9-.13c1.93 0 3.5 1.57 3.5 3.5s-1.57 3.5-3.5 3.5"/></symbol><symbol id="hd-icon-mdi-bicycle-basket" viewBox="0 0 24 24"><path fill="currentColor" d="m11.74 13.36l2.4-5.65l-1.08-2.21H10.5V4H14l.73 1.5h7.02l-1 3.5h-4.31l.67 1.37A5.002 5.002 0 0 1 24 15c0 2.76-2.24 5-5 5s-5-2.24-5-5c0-1.55.71-2.94 1.82-3.85L15 9.5L12.25 16H9.9A5 5 0 1 1 5 10c2.59 0 4.72 1.97 5 4.5h.58L8.3 9h-.8c-.41 0-.75-.34-.75-.75s.34-.75.75-.75h2.75c.41 0 .75.34.75.75s-.34.75-.75.75h-.28zM5 11.5c-1.93 0-3.5 1.57-3.5 3.5a3.504 3.504 0 0 0 6.86 1H4v-1.5h4.47c-.25-1.7-1.71-3-3.47-3m14 0c-.43 0-.85.08-1.23.22l1.93 3.96l-1.35.66l-1.85-3.79c-.62.63-1 1.5-1 2.45c0 1.93 1.57 3.5 3.5 3.5s3.5-1.57 3.5-3.5s-1.57-3.5-3.5-3.5"/></symbol><symbol id="hd-icon-mdi-bicycle-cargo" viewBox="0 0 24 24"><path fill="currentColor" d="M21 11.5V10l-7.5-1V5H9v1.5h3v7.8h-1L9 10c.3-.1.5-.4.5-.7c0-.4-.3-.8-.7-.8h-2c-.5 0-.8.3-.8.7s.3.8.8.8h.6l2 4.2H7.9C7.6 12.4 6 11 4 11c-2.2 0-4 1.8-4 4s1.8 4 4 4c2 0 3.6-1.4 3.9-3.2h8.6c.2-2.4 2.1-4.3 4.5-4.3M6.4 15.8c-.3 1-1.3 1.8-2.4 1.8c-1.4 0-2.5-1.1-2.5-2.5s1.1-2.5 2.5-2.5c1.1 0 2.1.7 2.4 1.8H4v1.5h2.4M21 13c-1.7 0-3 1.3-3 3s1.3 3 3 3s3-1.3 3-3s-1.3-3-3-3m0 4.5c-.8 0-1.5-.7-1.5-1.5s.7-1.5 1.5-1.5s1.5.7 1.5 1.5s-.7 1.5-1.5 1.5"/></symbol><symbol id="hd-icon-mdi-bicycle-electric" viewBox="0 0 24 24"><path fill="currentColor" d="M19 7c-.56 0-1.09.11-1.59.28L14.46 1.5H11V3h2.54l.88 1.72L12 10.13l-1.77-4.18c.27-.1.51-.37.51-.7c0-.41-.33-.75-.74-.75H8c-.42 0-.76.34-.76.75S7.58 6 8 6h.61l2.25 5.25h-.94C9.56 8.85 7.5 7 5 7c-2.76 0-5 2.24-5 5s2.24 5 5 5c2.5 0 4.56-1.85 4.92-4.25h2.58l2.79-6.32l.79 1.53A4.98 4.98 0 0 0 14 12c0 2.76 2.24 5 5 5s5-2.24 5-5s-2.24-5-5-5M5 15.5c-1.93 0-3.5-1.57-3.5-3.5S3.07 8.5 5 8.5c1.67 0 3.07 1.18 3.41 2.75H4v1.5h4.41A3.495 3.495 0 0 1 5 15.5m14 0c-1.93 0-3.5-1.57-3.5-3.5c0-1.08.5-2.03 1.27-2.67l1.8 3.52l1.32-.72l-1.79-3.5c.29-.07.59-.13.9-.13c1.93 0 3.5 1.57 3.5 3.5s-1.57 3.5-3.5 3.5M11 20H7l6 3v-2h4l-6-3z"/></symbol><symbol id="hd-icon-mdi-bicycle-penny-farthing" viewBox="0 0 24 24"><path fill="currentColor" d="M15.5 5.06V2H12v2h1.5v1.04c-.79.07-1.56.23-2.3.46c-.17-.3-.48-.5-.84-.5H7c-.55 0-1 .45-1 1s.45 1 1 1h1.05A11.5 11.5 0 0 0 3 16.18c-1.15.41-2 1.51-2 2.82c0 1.66 1.34 3 3 3s3-1.34 3-3c0-1.3-.83-2.39-2-2.81c.07-1.52.46-2.94 1.14-4.19c-.09.5-.14 1-.14 1.5c0 4.69 3.81 8.5 8.5 8.5s8.5-3.81 8.5-8.5c0-4.36-3.28-7.94-7.5-8.44M4 20c-.55 0-1-.45-1-1s.45-1 1-1s1 .45 1 1s-.45 1-1 1m10.5 0C10.92 20 8 17.08 8 13.5c0-3.24 2.39-5.93 5.5-6.41V15h2V7.09c3.11.48 5.5 3.17 5.5 6.41c0 3.58-2.92 6.5-6.5 6.5"/></symbol><symbol id="hd-icon-mdi-bike" viewBox="0 0 24 24"><path fill="currentColor" d="M5 20.5A3.5 3.5 0 0 1 1.5 17A3.5 3.5 0 0 1 5 13.5A3.5 3.5 0 0 1 8.5 17A3.5 3.5 0 0 1 5 20.5M5 12a5 5 0 0 0-5 5a5 5 0 0 0 5 5a5 5 0 0 0 5-5a5 5 0 0 0-5-5m9.8-2H19V8.2h-3.2l-1.94-3.27c-.29-.5-.86-.83-1.46-.83c-.47 0-.9.19-1.2.5L7.5 8.29C7.19 8.6 7 9 7 9.5c0 .63.33 1.16.85 1.47L11.2 13v5H13v-6.5l-2.25-1.65l2.32-2.35m5.93 13a3.5 3.5 0 0 1-3.5-3.5a3.5 3.5 0 0 1 3.5-3.5a3.5 3.5 0 0 1 3.5 3.5a3.5 3.5 0 0 1-3.5 3.5m0-8.5a5 5 0 0 0-5 5a5 5 0 0 0 5 5a5 5 0 0 0 5-5a5 5 0 0 0-5-5m-3-7.2c1 0 1.8-.8 1.8-1.8S17 1.2 16 1.2S14.2 2 14.2 3S15 4.8 16 4.8"/></symbol><symbol id="hd-icon-mdi-bike-fast" viewBox="0 0 24 24"><path fill="currentColor" d="M16 1.2c-1 0-1.8.8-1.8 1.8S15 4.8 16 4.8S17.8 4 17.8 3S17 1.2 16 1.2m-3.6 2.9c-.47 0-.9.19-1.2.5L7.5 8.29C7.19 8.6 7 9 7 9.5c0 .63.33 1.16.85 1.47L11.2 13v5H13v-6.5l-2.25-1.65l2.32-2.35L14.8 10H19V8.2h-3.2l-1.94-3.27c-.29-.5-.86-.83-1.46-.83M10 3H3c-.55 0-1-.45-1-1s.45-1 1-1h9.79c-.21.34-.38.71-.47 1.11c-.86.02-1.67.34-2.32.89m-5 9c-2.76 0-5 2.24-5 5s2.24 5 5 5s5-2.24 5-5s-2.24-5-5-5m0 8.5c-1.93 0-3.5-1.57-3.5-3.5s1.57-3.5 3.5-3.5s3.5 1.57 3.5 3.5s-1.57 3.5-3.5 3.5M19 12c-2.76 0-5 2.24-5 5s2.24 5 5 5s5-2.24 5-5s-2.24-5-5-5m0 8.5c-1.93 0-3.5-1.57-3.5-3.5s1.57-3.5 3.5-3.5s3.5 1.57 3.5 3.5s-1.57 3.5-3.5 3.5M5.32 11H1c-.552 0-1-.45-1-1s.448-1 1-1h4.05c-.02.16-.05.33-.05.5c0 .53.12 1.04.32 1.5M6 7H2c-.55 0-1-.45-1-1s.45-1 1-1h5.97L6.09 6.87C6.05 6.91 6 6.96 6 7"/></symbol><symbol id="hd-icon-mdi-bike-pedal" viewBox="0 0 24 24"><path fill="currentColor" d="M6.85 5c-.98 0-1.81.71-1.98 1.67L4 12l.87 5.33c.17.96 1 1.67 1.98 1.67h7.3c.98 0 1.82-.71 1.98-1.67l.55-3.33H18v-1h2v-2h-2v-1h-1.32l-.55-3.33c-.16-.96-1-1.67-1.98-1.67zm0 2h7.3l.67 4H6.18zm-.67 6h8.64l-.67 4h-7.3z"/></symbol><symbol id="hd-icon-mdi-bike-pedal-clipless" viewBox="0 0 24 24"><path fill="currentColor" d="m14.43 16.11l.85-2.11H16v-1h4v-2h-4v-1h-.72l-.85-2.11C14 6.75 12.87 6 11.65 6h-2.3C8.13 6 7 6.75 6.57 7.89l-1.2 3c-.29.71-.29 1.51 0 2.22l1.2 3C7 17.25 8.13 18 9.35 18h2.3c1.22 0 2.35-.75 2.78-1.89M9.35 8h2.3c.41 0 .77.25.92.63l.55 1.37H7.88l.55-1.37c.15-.38.52-.63.92-.63m-.92 7.37L7.88 14h5.24l-.55 1.37c-.15.38-.52.63-.92.63h-2.3c-.4 0-.77-.25-.92-.63"/></symbol><symbol id="hd-icon-mdi-bike-pedal-mountain" viewBox="0 0 24 24"><path fill="currentColor" d="M6.82 5a2 2 0 0 0-1.96 1.61l-.82 4.1c-.04.13-.04.26-.04.39v1.8c0 .13 0 .26.04.39l.82 4.1A2 2 0 0 0 6.82 19h6.56a2 2 0 0 0 1.79-1.11l1.62-3.23q.15-.315.21-.66h1v-1h2v-2h-2v-1h-1a2.5 2.5 0 0 0-.21-.66l-1.62-3.23A2 2 0 0 0 13.38 5zm0 2h.56l2.5 5l-2.5 5h-.56L6 12.9v-1.8zm4.8 4l-2-4h3.76L15 10.24V11zm0 2H15v.76L13.38 17H9.62z"/></symbol><symbol id="hd-icon-mdi-billboard" viewBox="0 0 24 24"><path fill="currentColor" d="M20 22h-2v-5h2M6 22H4v-5h2M23 4v9a2 2 0 0 1-2 2H3a2 2 0 0 1-2-2V4a2 2 0 0 1 2-2h18a2 2 0 0 1 2 2m-2 0H3v9h18m-1-7h-5v2h5m-2 1h-3v2h3m-4 0H4l2.73-3.64l2 2.73l.73-.54L8.2 7.82l1.71-2.27Z"/></symbol><symbol id="hd-icon-mdi-billiards" viewBox="0 0 24 24"><path fill="currentColor" d="M11 13h2v2h-2m0-6h2v2h-2m0 6h2a2 2 0 0 0 2-2v-1.5a1.5 1.5 0 0 0-1.5-1.5a1.5 1.5 0 0 0 1.5-1.5V9a2 2 0 0 0-2-2h-2a2 2 0 0 0-2 2v1.5a1.5 1.5 0 0 0 1.5 1.5A1.5 1.5 0 0 0 9 13.5V15a2 2 0 0 0 2 2m1-16C5.92 1 1 5.92 1 12s4.92 11 11 11s11-4.92 11-11S18.08 1 12 1m0 18a7 7 0 0 1-7-7a7 7 0 0 1 7-7a7 7 0 0 1 7 7a7 7 0 0 1-7 7"/></symbol><symbol id="hd-icon-mdi-billiards-rack" viewBox="0 0 24 24"><path fill="currentColor" d="m20.31 16.44l-5.77-9.97a2.98 2.98 0 0 0-4.08-1.09c-.46.26-.83.62-1.1 1.09L3.6 16.44a2.953 2.953 0 0 0 1.09 4.06c.45.28.96.42 1.49.42h11.55a2.99 2.99 0 0 0 2.98-3c0-.52-.14-1.03-.4-1.48m-14.94.99l5.74-9.96c.27-.47.89-.65 1.35-.37c.16.08.29.21.38.37l5.74 9.96c.27.48.11 1.07-.37 1.36c-.15.09-.32.14-.49.14H6.21c-.55-.01-1-.46-.99-1.01c0-.17.04-.34.13-.49zm6.6-3.98c-1.1 0-1.97-.89-1.97-1.99c0-1.11.87-2 1.97-2a2 2 0 0 1 2 2c0 1.1-.9 1.99-2.02 1.99zm-2.51 4.48c-1.1 0-1.99-.89-1.99-1.99s.89-1.99 1.99-1.99s2 .89 2 1.99s-.9 1.99-2 1.99m4.98 0a2 2 0 0 1-1.99-1.99a2 2 0 0 1 1.99-1.99c1.1 0 2 .89 2 1.99s-.9 1.99-2 1.99"/></symbol><symbol id="hd-icon-mdi-binoculars" viewBox="0 0 24 24"><path fill="currentColor" d="M11 6h2v7h-2zM9 20a1 1 0 0 1-1 1H5a1 1 0 0 1-1-1v-5l2-9h4v7a1 1 0 0 1-1 1zm1-15H7V3h3zm5 15v-6a1 1 0 0 1-1-1V6h4l2 9v5a1 1 0 0 1-1 1h-3a1 1 0 0 1-1-1M14 5V3h3v2z"/></symbol><symbol id="hd-icon-mdi-bio" viewBox="0 0 24 24"><path fill="currentColor" d="M17 12h3a2 2 0 0 1 2 2v3a2 2 0 0 1-2 2h-3a2 2 0 0 1-2-2v-3a2 2 0 0 1 2-2m0 2v3h3v-3zM2 7h5a2 2 0 0 1 2 2v2a2 2 0 0 1-2 2a2 2 0 0 1 2 2v2a2 2 0 0 1-2 2H2zm2 2v3h3V9zm0 8h3v-3H4zm7-4h2v6h-2zm0-4h2v2h-2z"/></symbol><symbol id="hd-icon-mdi-biohazard" viewBox="0 0 24 24"><path fill="currentColor" d="M23 16.06c0 .23 0 .44-.04.64c-.18-2.56-2.32-4.59-4.96-4.59c-.37 0-.73.05-1.08.12c.04.27.08.5.08.77c0 2.35-1.69 4.32-3.93 4.81c.35 2.24 2.24 3.98 4.58 4.15c-.22.04-.43.04-.65.04c-2.08 0-3.93-1.06-5-2.66A6 6 0 0 1 7 22c-.22 0-.43 0-.65-.04c2.34-.17 4.22-1.9 4.58-4.15C8.68 17.32 7 15.35 7 13c0-.27.04-.5.07-.77c-.34-.07-.7-.12-1.07-.12a4.97 4.97 0 0 0-4.97 4.59C1 16.5 1 16.29 1 16.06c0-3.21 2.59-5.82 5.81-5.92A5.877 5.877 0 0 1 9.06 2C7.81 2.9 7 4.34 7 6c0 1.35.56 2.59 1.47 3.5c.91-.91 2.15-1.46 3.53-1.46c1.37 0 2.62.55 3.5 1.46c.93-.91 1.5-2.15 1.5-3.5c0-1.66-.82-3.1-2.06-4a5.877 5.877 0 0 1 2.25 8.14c3.23.1 5.81 2.71 5.81 5.92M9.27 10.11a5 5 0 0 0 5.46 0C14 9.45 13.06 9.03 12 9.03s-2 .42-2.73 1.08M12 14.47c.82 0 1.5-.67 1.5-1.47a1.5 1.5 0 0 0-1.5-1.5a1.5 1.5 0 0 0-1.5 1.5c0 .8.67 1.47 1.5 1.47m-1.03 2.32c-.1-1.89-1.26-3.5-2.92-4.24c-.02.15-.05.29-.05.45c0 1.82 1.27 3.34 2.97 3.79m4.99-4.24A4.98 4.98 0 0 0 13 16.79c1.73-.45 3-1.97 3-3.79c0-.16-.03-.3-.04-.45"/></symbol><symbol id="hd-icon-mdi-bird" viewBox="0 0 24 24"><path fill="currentColor" d="m23 11.5l-3.05-1.13c-.26-1.15-.91-1.81-.91-1.81a4.19 4.19 0 0 0-5.93 0l-1.48 1.48L5 3c-1 4 0 8 2.45 11.22L2 19.5s8.89 2 14.07-2.05c2.76-2.16 3.38-3.42 3.77-4.75zm-5.29.22c-.39.39-1.03.39-1.42 0a.996.996 0 0 1 0-1.41c.39-.39 1.03-.39 1.42 0s.39 1.02 0 1.41"/></symbol><symbol id="hd-icon-mdi-bitbucket" viewBox="0 0 24 24"><path fill="currentColor" d="M2.65 3C2.3 3 2 3.3 2 3.65v.12l2.73 16.5c.07.42.43.73.85.73h13.05c.31 0 .59-.22.64-.54L22 3.77a.643.643 0 0 0-.54-.73c-.03-.01-.07-.01-.11-.01zM14.1 14.95H9.94L8.81 9.07h6.3z"/></symbol><symbol id="hd-icon-mdi-bitcoin" viewBox="0 0 24 24"><path fill="currentColor" d="M14.24 10.56c-.31 1.24-2.24.61-2.84.44l.55-2.18c.62.18 2.61.44 2.29 1.74m-3.11 1.56l-.6 2.41c.74.19 3.03.92 3.37-.44c.36-1.42-2.03-1.79-2.77-1.97m10.57 2.3c-1.34 5.36-6.76 8.62-12.12 7.28S.963 14.94 2.3 9.58A9.996 9.996 0 0 1 14.42 2.3c5.35 1.34 8.61 6.76 7.28 12.12m-7.49-6.37l.45-1.8l-1.1-.25l-.44 1.73c-.29-.07-.58-.14-.88-.2l.44-1.77l-1.09-.26l-.45 1.79c-.24-.06-.48-.11-.7-.17l-1.51-.38l-.3 1.17s.82.19.8.2c.45.11.53.39.51.64l-1.23 4.93c-.05.14-.21.32-.5.27c.01.01-.8-.2-.8-.2L6.87 15l1.42.36c.27.07.53.14.79.2l-.46 1.82l1.1.28l.45-1.81c.3.08.59.15.87.23l-.45 1.79l1.1.28l.46-1.82c1.85.35 3.27.21 3.85-1.48c.5-1.35 0-2.15-1-2.66c.72-.19 1.26-.64 1.41-1.62c.2-1.33-.82-2.04-2.2-2.52"/></symbol><symbol id="hd-icon-mdi-black-mesa" viewBox="0 0 24 24"><path fill="currentColor" d="M12 2a10 10 0 0 1 10 10a10 10 0 0 1-10 10A10 10 0 0 1 2 12A10 10 0 0 1 12 2m0 2a8 8 0 0 0-8 8a8 8 0 0 0 2.71 6H9v-6h8l2.15 3.59c.54-1.09.85-2.3.85-3.59a8 8 0 0 0-8-8"/></symbol><symbol id="hd-icon-mdi-blackberry" viewBox="0 0 24 24"><path d="M5.45 10.28c.95 0 2.05.77 2.05 1.72s-1.1 1.72-2.05 1.72H2l.69-3.44h2.76m.69-5.52c.95 0 2.07.77 2.07 1.74c0 .93-1.12 1.71-2.07 1.71H2.69l.69-3.45h2.76m6.89 0c.97 0 2.07.77 2.07 1.74c0 .93-1.1 1.71-2.07 1.71H9.41l.69-3.45h2.93m-.69 5.52c.96 0 2.07.77 2.07 1.72s-1.11 1.72-2.07 1.72H8.72l.69-3.44h2.93m-1.37 5.51c.95 0 2.06.78 2.06 1.71c0 .97-1.11 1.74-2.06 1.74H7.5l.71-3.45h2.76m7.58-2.07c.95 0 2.07.78 2.07 1.73s-1.12 1.72-2.07 1.72H15.1l.69-3.45h2.76m1.38-5.51c.95 0 2.07.79 2.07 1.72c0 .95-1.12 1.73-2.07 1.73H16.5l.67-3.45h2.76z" fill="currentColor"/></symbol><symbol id="hd-icon-mdi-blender" viewBox="0 0 24 24"><path fill="currentColor" d="M16.13 15.13L18 3h-4V2h-4v1H5c-1.1 0-2 .9-2 2v4c0 1.1.9 2 2 2h2.23l.64 4.13C6.74 16.05 6 17.43 6 19v1c0 1.1.9 2 2 2h8c1.1 0 2-.9 2-2v-1c0-1.57-.74-2.95-1.87-3.87M5 9V5h1.31l.62 4zm7 10c-.55 0-1-.45-1-1s.45-1 1-1s1 .45 1 1s-.45 1-1 1m2.29-5H9.72L8.33 5h7.34z"/></symbol><symbol id="hd-icon-mdi-blender-outline" viewBox="0 0 24 24"><path fill="currentColor" d="M16.13 15.13L18 3h-4V2h-4v1H5c-1.1 0-2 .9-2 2v4c0 1.1.9 2 2 2h2.23l.64 4.13C6.74 16.05 6 17.43 6 19v1c0 1.1.9 2 2 2h8c1.1 0 2-.9 2-2v-1c0-1.57-.74-2.95-1.87-3.87M5 9V5h1.31l.62 4zm10.67-4l-1.38 9H9.72L8.33 5zM16 20H8v-1c0-1.65 1.35-3 3-3h2c1.65 0 3 1.35 3 3zm-4-3c.55 0 1 .45 1 1s-.45 1-1 1s-1-.45-1-1s.45-1 1-1"/></symbol><symbol id="hd-icon-mdi-blender-software" viewBox="0 0 24 24"><path fill="currentColor" d="M12.58 3.12v.01c-.31 0-.62.09-.87.26c-.5.35-.56.93-.11 1.3L14.46 7l-8.73.03h-.01C5 7.03 4.3 7.5 4.16 8.1c-.16.61.34 1.12 1.1 1.12l4.43-.01l-7.93 6.09c-.76.57-.99 1.52-.52 2.12c.48.61 1.49.61 2.26 0l4.3-3.53s-.07.48-.06.76c0 .29.1.85.23 1.28c.29.93.78 1.78 1.46 2.53c.7.77 1.57 1.39 2.57 1.83c1.03.47 2.17.71 3.34.71c1.16 0 2.31-.25 3.35-.72c1-.44 1.86-1.07 2.56-1.84c.68-.75 1.17-1.61 1.46-2.53c.14-.47.23-.94.29-1.41c0-.47 0-.94-.06-1.41c-.13-.91-.44-1.77-.94-2.55c-.44-.71-1-1.34-1.69-1.87l-6.89-5.29a1.42 1.42 0 0 0-.84-.26m2.76 6.09c1.16 0 2.25.38 3.12 1.08c.44.36.79.78 1.04 1.25c.27.46.44 1.01.5 1.57c.04.56-.04 1.12-.23 1.66c-.2.54-.52 1.04-.95 1.49c-.89.9-2.13 1.42-3.48 1.42c-1.34 0-2.59-.51-3.48-1.41c-.43-.44-.75-.95-.95-1.49a3.9 3.9 0 0 1-.22-1.66c.05-.56.22-1.09.48-1.57c.26-.47.62-.89 1.06-1.25c.86-.71 1.96-1.09 3.11-1.09m.1 1.4c-.78 0-1.5.28-2.03.73c-.54.46-.91 1.1-.94 1.84c-.04.75.26 1.45.79 1.97c.54.53 1.32.85 2.18.85s1.63-.32 2.18-.85c.53-.52.83-1.22.79-1.97c-.04-.74-.41-1.38-.94-1.84c-.53-.45-1.25-.73-2.03-.73"/></symbol><symbol id="hd-icon-mdi-blinds" viewBox="0 0 24 24"><path fill="currentColor" d="M3 2h18a1 1 0 0 1 1 1v2a1 1 0 0 1-1 1h-1v7a1 1 0 0 1-1 1h-6v2.17c1.17.41 2 1.52 2 2.83a3 3 0 0 1-3 3a3 3 0 0 1-3-3c0-1.31.83-2.42 2-2.83V14H5a1 1 0 0 1-1-1V6H3a1 1 0 0 1-1-1V3a1 1 0 0 1 1-1m9 16a1 1 0 0 0-1 1a1 1 0 0 0 1 1a1 1 0 0 0 1-1a1 1 0 0 0-1-1"/></symbol><symbol id="hd-icon-mdi-blinds-horizontal" viewBox="0 0 24 24"><path fill="currentColor" d="M20 19V3H4v16H2v2h20v-2zM16 9h2v2h-2zm-2 2H6V9h8zm4-4h-2V5h2zm-4-2v2H6V5zM6 19v-6h8v1.82A1.746 1.746 0 0 0 15 18a1.746 1.746 0 0 0 1-3.18V13h2v6z"/></symbol><symbol id="hd-icon-mdi-blinds-horizontal-closed" viewBox="0 0 24 24"><path fill="currentColor" d="M20 19V3H4v16H2v2h11.25c0 .97.78 1.75 1.75 1.75s1.75-.78 1.75-1.75H22v-2zm-2-8h-2V9h2zm-4 0H6V9h8zm0 2v2H6v-2zm2 0h2v2h-2zm2-6h-2V5h2zm-4-2v2H6V5zM6 19v-2h8v2zm10 0v-2h2v2z"/></symbol><symbol id="hd-icon-mdi-blinds-open" viewBox="0 0 24 24"><path fill="currentColor" d="M3 2h18c.55 0 1 .45 1 1v2c0 .55-.45 1-1 1h-1v1c0 .55-.45 1-1 1h-6v2.17A3 3 0 0 1 15 13c0 1.66-1.34 3-3 3s-3-1.34-3-3c0-1.31.84-2.42 2-2.83V8H5c-.55 0-1-.45-1-1V6H3c-.55 0-1-.45-1-1V3c0-.55.45-1 1-1m9 10c-.55 0-1 .45-1 1s.45 1 1 1s1-.45 1-1s-.45-1-1-1"/></symbol><symbol id="hd-icon-mdi-blinds-vertical" viewBox="0 0 24 24"><path fill="currentColor" d="M20 19V3H4v16H2v2h20v-2zm-10 0V5h4v14z"/></symbol><symbol id="hd-icon-mdi-blinds-vertical-closed" viewBox="0 0 24 24"><path fill="currentColor" d="M20 19V3H4v16H2v2h20v-2zM13 5h1.5v14H13zm-2 14H9.5V5H11zM6 5h1.5v14H6zm10.5 14V5H18v14z"/></symbol><symbol id="hd-icon-mdi-block-helper" viewBox="0 0 24 24"><path fill="currentColor" d="M12 0a12 12 0 0 1 12 12a12 12 0 0 1-12 12A12 12 0 0 1 0 12A12 12 0 0 1 12 0m0 2A10 10 0 0 0 2 12c0 2.4.85 4.6 2.26 6.33L18.33 4.26A10 10 0 0 0 12 2m0 20a10 10 0 0 0 10-10c0-2.4-.85-4.6-2.26-6.33L5.67 19.74A10 10 0 0 0 12 22"/></symbol><symbol id="hd-icon-mdi-blogger" viewBox="0 0 24 24"><path d="M12.5 10H10c-.55 0-1-.45-1-1s.45-1 1-1h2.5c.55 0 1 .45 1 1s-.45 1-1 1m2.5 4c0-.55-.45-1-1-1h-4c-.55 0-1 .45-1 1s.45 1 1 1h4c.55 0 1-.45 1-1m7-10v16c0 1.11-.89 2-2 2H4c-1.11 0-2-.89-2-2V4c0-1.11.89-2 2-2h16c1.11 0 2 .89 2 2m-4 8s0-1-1-1c-.95.03-1-1-1-1V8c0-1.66-1.34-3-3-3H9C7.34 5 6 6.34 6 8v7c0 1.66 1.34 3 3 3h6c1.66 0 3-1.34 3-3v-3z" fill="currentColor"/></symbol><symbol id="hd-icon-mdi-blood-bag" viewBox="0 0 24 24"><path fill="currentColor" d="M21 7c-1 0-1-1-1-1V5h-2v2h-2V6c0-1.73-1.25-5-6-5S4 4.27 4 6v13c0 .33-.1 2-2 2v2c2.93 0 4-2.39 4-4V6c0-.12.05-3 4-3c3.83 0 4 2.7 4 3v1h-2V5h-2v1s0 1-1 1s-1 1-1 1v12s0 2 5 2h4c5 0 5-2 5-2V8s0-1-1-1m-6 12.4a3 3 0 0 1-3-3c0-2 3-5.4 3-5.4s3 3.4 3 5.4a3 3 0 0 1-3 3"/></symbol><symbol id="hd-icon-mdi-bluetooth" viewBox="0 0 24 24"><path fill="currentColor" d="M14.88 16.29L13 18.17v-3.76m0-8.58l1.88 1.88L13 9.58m4.71-1.87L12 2h-1v7.58L6.41 5L5 6.41L10.59 12L5 17.58L6.41 19L11 14.41V22h1l5.71-5.71l-4.3-4.29z"/></symbol><symbol id="hd-icon-mdi-bluetooth-audio" viewBox="0 0 24 24"><path fill="currentColor" d="M12.88 16.29L11 18.17v-3.76m0-8.58l1.88 1.88L11 9.58m4.71-1.87L10 2H9v7.58L4.41 5L3 6.41L8.59 12L3 17.58L4.41 19L9 14.41V22h1l5.71-5.71l-4.3-4.29m8.12-5.29L18.26 8c.63 1.18.99 2.55.99 4s-.36 2.82-.99 4l1.2 1.22A9.9 9.9 0 0 0 21 11.91c0-1.91-.54-3.68-1.47-5.2M14.24 12l2.32 2.33c.28-.73.44-1.51.44-2.33s-.16-1.6-.43-2.32z"/></symbol><symbol id="hd-icon-mdi-bluetooth-connect" viewBox="0 0 24 24"><path fill="currentColor" d="m19 10l-2 2l2 2l2-2m-6.12 4.29L13 18.17v-3.76m0-8.58l1.88 1.88L13 9.58m4.71-1.87L12 2h-1v7.58L6.41 5L5 6.41L10.59 12L5 17.58L6.41 19L11 14.41V22h1l5.71-5.71l-4.3-4.29M7 12l-2-2l-2 2l2 2z"/></symbol><symbol id="hd-icon-mdi-bluetooth-off" viewBox="0 0 24 24"><path fill="currentColor" d="m13 5.83l1.88 1.88l-1.6 1.6l1.41 1.41l3.02-3.02L12 2h-1v5.03l2 2M5.41 4L4 5.41L10.59 12L5 17.59L6.41 19L11 14.41V22h1l4.29-4.29l2.3 2.29L20 18.59m-7-.42v-3.76l1.88 1.88"/></symbol><symbol id="hd-icon-mdi-bluetooth-settings" viewBox="0 0 24 24"><path fill="currentColor" d="M14.88 14.29L13 16.17v-3.76zM13 3.83l1.88 1.88L13 7.59m4.71-1.88L12 0h-1v7.59L6.41 3L5 4.41L10.59 10L5 15.59L6.41 17L11 12.41V20h1l5.71-5.71l-4.3-4.29zM15 24h2v-2h-2m-8 2h2v-2H7m4 2h2v-2h-2z"/></symbol></svg>