<svg xmlns="http://www.w3.org/2000/svg" xmlns:xlink="http://www.w3.org/1999/xlink"><symbol id="hd-icon-ci-sort-descending" viewBox="0 0 24 24"><path fill="none" stroke="currentColor" stroke-linecap="round" stroke-linejoin="round" stroke-width="2" d="M4 17h12M4 12h9M4 7h6m8 6V5m0 0l3 3m-3-3l-3 3"/></symbol><symbol id="hd-icon-ci-spectrum" viewBox="0 0 24 24"><path fill="currentColor" d="m12 22.001l-1.2-.006c-3.725-.04-5.982-.3-7.238-1.556c-1.256-1.256-1.515-3.515-1.556-7.238L2 11.691l.006-.89c-.028-1.568.09-3.135.35-4.681a4.715 4.715 0 0 1 1.3-2.648c1.317-1.218 3.637-1.451 7.732-1.471l1.812.005c3.961.043 6.2.325 7.415 1.748C21.793 5.128 22 7.508 22 12.001l-.005 1.2c-.043 3.961-.325 6.2-1.749 7.415c-1.374 1.177-3.754 1.385-8.246 1.385Zm-4.333-15a.669.669 0 0 0-.661.569L7 7.667v3.666a.67.67 0 0 0 .568.66l.1.007h.582A3.752 3.752 0 0 1 12 15.55v.782c.002.33.242.61.568.661l.1.007h3.667a.67.67 0 0 0 .66-.569l.007-.1v-.582a8.749 8.749 0 0 0-8.494-8.748h-.841Z"/></symbol><symbol id="hd-icon-ci-spotify" viewBox="0 0 24 24"><path fill="currentColor" d="M12.01 22A9.978 9.978 0 0 1 4.954 4.954a9.978 9.978 0 1 1 14.111 14.111A9.919 9.919 0 0 1 12.01 22Zm-1.482-6.728a9.794 9.794 0 0 1 5.227 1.384a.59.59 0 0 0 .33.1a.632.632 0 0 0 .521-.3a.7.7 0 0 0 .042-.545a.519.519 0 0 0-.293-.3a11.039 11.039 0 0 0-5.88-1.549c-1.283.01-2.56.16-3.81.449a.628.628 0 0 0-.45.749a.656.656 0 0 0 .591.472a.56.56 0 0 0 .157-.023a16.12 16.12 0 0 1 3.565-.437Zm-.19-2.976a12.648 12.648 0 0 1 6.416 1.661c.111.08.245.124.383.124c.27-.01.518-.15.668-.373a.71.71 0 0 0 .1-.586a.622.622 0 0 0-.3-.412a14.262 14.262 0 0 0-7.268-1.911a13.768 13.768 0 0 0-3.972.56a.773.773 0 0 0-.5.952a.738.738 0 0 0 .741.523a.85.85 0 0 0 .213-.025a11.66 11.66 0 0 1 3.52-.513Zm.19-3.088a14.987 14.987 0 0 1 7.376 1.7c.153.084.326.127.5.125a1 1 0 0 0 .8-.373a.985.985 0 0 0 .088-.724a.91.91 0 0 0-.436-.574a16.838 16.838 0 0 0-8.337-1.964a17.36 17.36 0 0 0-4.758.614a.915.915 0 0 0 .287 1.789a.916.916 0 0 0 .262-.038a14.7 14.7 0 0 1 4.217-.556v.001Z"/></symbol><symbol id="hd-icon-ci-square" viewBox="0 0 24 24"><path fill="none" stroke="currentColor" stroke-linecap="round" stroke-linejoin="round" stroke-width="2" d="M3 6.2v11.6c0 1.12 0 1.68.218 2.107c.192.377.497.683.874.875c.427.218.987.218 2.105.218h11.606c1.118 0 1.677 0 2.104-.218a2 2 0 0 0 .875-.875c.218-.427.218-.986.218-2.104V6.197c0-1.118 0-1.678-.218-2.105a2 2 0 0 0-.875-.874C19.48 3 18.92 3 17.8 3H6.2c-1.12 0-1.68 0-2.108.218a2 2 0 0 0-.874.874C3 4.52 3 5.08 3 6.2"/></symbol><symbol id="hd-icon-ci-square-check" viewBox="0 0 24 24"><path fill="none" stroke="currentColor" stroke-linecap="round" stroke-linejoin="round" stroke-width="2" d="m16 9l-5.333 6L8 12m-5 5.8V6.2c0-1.12 0-1.68.218-2.108c.192-.377.497-.682.874-.874C4.52 3 5.08 3 6.2 3h11.6c1.12 0 1.68 0 2.107.218c.377.192.683.497.875.874c.218.427.218.987.218 2.105v11.607c0 1.118 0 1.677-.218 2.104a2 2 0 0 1-.875.874c-.427.218-.986.218-2.104.218H6.197c-1.118 0-1.678 0-2.105-.218a2 2 0 0 1-.874-.874C3 19.48 3 18.92 3 17.8"/></symbol><symbol id="hd-icon-ci-square-help" viewBox="0 0 24 24"><path fill="none" stroke="currentColor" stroke-linecap="round" stroke-linejoin="round" stroke-width="2" d="M9.146 9.074a2.998 2.998 0 0 1 5.28-.838A3 3 0 0 1 12 13v1m.05 3v.1h-.1V17zM3 17.8V6.2c0-1.12 0-1.68.218-2.108c.192-.377.497-.682.874-.874C4.52 3 5.08 3 6.2 3h11.6c1.12 0 1.68 0 2.107.218c.377.192.683.497.875.874c.218.427.218.987.218 2.105v11.607c0 1.118 0 1.677-.218 2.104a2 2 0 0 1-.875.874c-.427.218-.986.218-2.104.218H6.197c-1.118 0-1.678 0-2.105-.218a2 2 0 0 1-.874-.874C3 19.48 3 18.92 3 17.8"/></symbol><symbol id="hd-icon-ci-square-warning" viewBox="0 0 24 24"><path fill="none" stroke="currentColor" stroke-linecap="round" stroke-linejoin="round" stroke-width="2" d="M12 8.45v4m.05 3v.1h-.1v-.1zM3 17.8V6.2c0-1.12 0-1.68.218-2.108c.192-.377.497-.682.874-.874C4.52 3 5.08 3 6.2 3h11.6c1.12 0 1.68 0 2.107.218c.377.192.683.497.875.874c.218.427.218.987.218 2.105v11.607c0 1.118 0 1.677-.218 2.104a2 2 0 0 1-.875.874c-.427.218-.986.218-2.104.218H6.197c-1.118 0-1.678 0-2.105-.218a2 2 0 0 1-.874-.874C3 19.48 3 18.92 3 17.8"/></symbol><symbol id="hd-icon-ci-stack-overflow" viewBox="0 0 24 24"><path fill="currentColor" d="M18.84 20.999H4.381v-6.4h1.6v4.8h11.26v-4.8h1.6v6.4Zm-3.2-3.2H7.581v-1.6h8.055v1.6h.004Zm0-2L7.781 14.16l.338-1.552l7.861 1.642l-.343 1.549h.003Zm.44-2.037l-7.28-3.4v-.006l.673-1.457l7.281 3.4l-.673 1.464l-.002-.001Zm.922-1.845l-6.17-5.14h.01l1.012-1.214l6.162 5.136L17 11.918l.003-.001Zm1.308-1.5l-4.807-6.449l1.31-.969L19.62 9.45l-1.312.971l.003-.004Z"/></symbol><symbol id="hd-icon-ci-star" viewBox="0 0 24 24"><path fill="none" stroke="currentColor" stroke-linecap="round" stroke-linejoin="round" stroke-width="2" d="M2.335 10.337a.5.5 0 0 1 .28-.864l6.004-.712a.5.5 0 0 0 .396-.287l2.532-5.49a.5.5 0 0 1 .908 0l2.532 5.49a.5.5 0 0 0 .395.287l6.004.712a.5.5 0 0 1 .28.864l-4.438 4.105a.5.5 0 0 0-.15.464l1.177 5.93a.5.5 0 0 1-.735.534l-5.275-2.953a.5.5 0 0 0-.488 0l-5.276 2.952a.5.5 0 0 1-.735-.533l1.178-5.93a.5.5 0 0 0-.15-.464z"/></symbol><symbol id="hd-icon-ci-stop" viewBox="0 0 24 24"><path fill="none" stroke="currentColor" stroke-linecap="round" stroke-linejoin="round" stroke-width="2" d="M5 8.2v7.6c0 1.12 0 1.68.218 2.107c.192.377.497.683.874.875c.427.218.987.218 2.105.218h7.607c1.118 0 1.676 0 2.104-.218c.376-.192.682-.498.874-.875c.218-.427.218-.986.218-2.104V8.197c0-1.118 0-1.678-.218-2.105a2 2 0 0 0-.874-.874C17.48 5 16.92 5 15.8 5H8.2c-1.12 0-1.68 0-2.108.218a2 2 0 0 0-.874.874C5 6.52 5 7.08 5 8.2"/></symbol><symbol id="hd-icon-ci-stop-circle" viewBox="0 0 24 24"><g fill="none" stroke="currentColor" stroke-linecap="round" stroke-linejoin="round" stroke-width="2"><path d="M3 12a9 9 0 1 0 18 0a9 9 0 0 0-18 0"/><path d="M15 13.4v-2.8c0-.56 0-.84-.11-1.054a1 1 0 0 0-.436-.437C14.24 9 13.96 9 13.4 9h-2.8c-.56 0-.84 0-1.054.109a1 1 0 0 0-.437.437C9 9.76 9 10.04 9 10.6v2.8c0 .56 0 .84.109 1.054c.096.188.249.34.437.437C9.76 15 10.04 15 10.6 15h2.8c.56 0 .84 0 1.054-.11a1 1 0 0 0 .437-.436C15 14.24 15 13.96 15 13.4"/></g></symbol><symbol id="hd-icon-ci-stop-sign" viewBox="0 0 24 24"><path fill="none" stroke="currentColor" stroke-linecap="round" stroke-linejoin="round" stroke-width="2" d="m5.75 5.75l12.5 12.5M12 21a9 9 0 1 1 0-18a9 9 0 0 1 0 18"/></symbol><symbol id="hd-icon-ci-stopwatch" viewBox="0 0 24 24"><path fill="currentColor" d="M12 21a8 8 0 1 1 8-8a8.01 8.01 0 0 1-8 8Zm0-14a6 6 0 1 0 6 6a6.007 6.007 0 0 0-6-6Zm1 7h-2V9h2v5Zm6.293-6.293l-2-2l1.414-1.414l2 2l-1.413 1.413l-.001.001ZM15 4H9V2h6v2Z"/></symbol><symbol id="hd-icon-ci-strikethrough" viewBox="0 0 24 24"><path fill="none" stroke="currentColor" stroke-linecap="round" stroke-linejoin="round" stroke-width="2" d="M12 12c.896 0 1.775.193 2.546.557q.524.248.955.587c.347.272.645.585.881.93c.432.627.644 1.336.616 2.052s-.296 1.412-.776 2.017s-1.154 1.096-1.952 1.42a6.1 6.1 0 0 1-2.583.43a5.9 5.9 0 0 1-2.497-.685c-.74-.402-1.332-.957-1.713-1.605M12 12H4m8 0h8m-3.476-5.703c-.381-.648-.973-1.202-1.714-1.605a5.9 5.9 0 0 0-2.496-.684a6.1 6.1 0 0 0-2.584.428c-.798.325-1.472.816-1.952 1.42c-.48.606-.747 1.303-.776 2.019q-.011.315.037.625"/></symbol><symbol id="hd-icon-ci-sub-left" viewBox="0 0 24 24"><path fill="currentColor" d="M18 5v8H7.83l2.58-2.59L9 9l-5 5l5 5l1.41-1.41L7.83 15H20V5h-2Z"/></symbol><symbol id="hd-icon-ci-sub-right" viewBox="0 0 24 24"><path fill="currentColor" d="M6 5v8h10.17l-2.58-2.59L15 9l5 5l-5 5l-1.41-1.41L16.17 15H4V5h2Z"/></symbol><symbol id="hd-icon-ci-suitcase" viewBox="0 0 24 24"><path fill="none" stroke="currentColor" stroke-linecap="round" stroke-linejoin="round" stroke-width="2" d="M8 8H6.2c-1.12 0-1.68 0-2.108.218a2 2 0 0 0-.874.874C3 9.52 3 10.08 3 11.2v5.6c0 1.12 0 1.68.218 2.108a2 2 0 0 0 .874.874c.427.218.987.218 2.105.218h11.606c1.118 0 1.677 0 2.104-.218c.377-.192.683-.498.875-.874c.218-.428.218-.986.218-2.104v-5.607c0-1.118 0-1.678-.218-2.105a2 2 0 0 0-.875-.874C19.48 8 18.92 8 17.8 8H16M8 8h8M8 8a4 4 0 1 1 8 0"/></symbol><symbol id="hd-icon-ci-sun" viewBox="0 0 24 24"><path fill="none" stroke="currentColor" stroke-linecap="round" stroke-linejoin="round" stroke-width="2" d="M12 4V2m0 18v2M6.414 6.414L5 5m12.728 12.728l1.414 1.414M4 12H2m18 0h2m-4.271-5.586L19.143 5M6.415 17.728L5 19.142M12 17a5 5 0 1 1 0-10a5 5 0 0 1 0 10"/></symbol><symbol id="hd-icon-ci-swatches-palette" viewBox="0 0 24 24"><path fill="none" stroke="currentColor" stroke-linecap="round" stroke-linejoin="round" stroke-width="2" d="M6.5 21h13.97a.53.53 0 0 0 .53-.53v-5.94M7.98 20.67l12.662-5.904a.53.53 0 0 0 .256-.703l-2.51-5.385a.53.53 0 0 0-.704-.256l-5.654 2.636m-2.148 7.346a3.5 3.5 0 0 1-6.762-1.812L6.736 3.1a.53.53 0 0 1 .648-.375l5.74 1.538a.53.53 0 0 1 .373.648zM6.5 17.6h.002v.002H6.5z"/></symbol><symbol id="hd-icon-ci-swicht-left" viewBox="0 0 24 24"><g fill="none" stroke="currentColor" stroke-linecap="round" stroke-linejoin="round" stroke-width="2"><path d="M8 18h8a6 6 0 0 0 0-12H8a6 6 0 1 0 0 12"/><path d="M8 9a3 3 0 1 0 0 6a3 3 0 0 0 0-6"/></g></symbol><symbol id="hd-icon-ci-swicht-right" viewBox="0 0 24 24"><g fill="none" stroke="currentColor" stroke-linecap="round" stroke-linejoin="round" stroke-width="2"><path d="M8 18h8a6 6 0 0 0 0-12H8a6 6 0 1 0 0 12"/><path d="M16 9a3 3 0 1 0 0 6a3 3 0 0 0 0-6"/></g></symbol><symbol id="hd-icon-ci-table" viewBox="0 0 24 24"><path fill="none" stroke="currentColor" stroke-linecap="round" stroke-linejoin="round" stroke-width="2" d="M4 15v1.8c0 1.12 0 1.68.218 2.108a2 2 0 0 0 .874.874c.427.218.987.218 2.105.218H12m-8-5V9m0 6h8M4 9V7.2c0-1.12 0-1.68.218-2.108c.192-.377.497-.682.874-.874C5.52 4 6.08 4 7.2 4H12M4 9h8m0-5h4.8c1.12 0 1.68 0 2.108.218a2 2 0 0 1 .874.874c.218.427.218.987.218 2.105V9m-8-5v5m0 0v6m0-6h8m-8 6v5m0-5h8m-8 5h4.804c1.118 0 1.677 0 2.104-.218c.376-.192.682-.498.874-.874c.218-.428.218-.986.218-2.104V15m0 0V9"/></symbol><symbol id="hd-icon-ci-table-add" viewBox="0 0 24 24"><path fill="none" stroke="currentColor" stroke-linecap="round" stroke-linejoin="round" stroke-width="2" d="M11 4h4.8c1.12 0 1.68 0 2.108.218a2 2 0 0 1 .874.874c.218.427.218.987.218 2.105V9h-8m0-5H6.2c-1.12 0-1.68 0-2.108.218a2 2 0 0 0-.874.874C3 5.52 3 6.08 3 7.2V9m8-5v5M3 9v6m0-6h8m-8 6v1.8c0 1.12 0 1.68.218 2.108a2 2 0 0 0 .874.874c.427.218.987.218 2.105.218H11V9m-8 6h8m4 1h3m0 0h3m-3 0v3m0-3v-3"/></symbol><symbol id="hd-icon-ci-table-delete" viewBox="0 0 24 24"><path fill="currentColor" d="M19 10h-6v11H5a2 2 0 0 1-2-2V5a2 2 0 0 1 2-2h14a2 2 0 0 1 2 2v8h-2v-3Zm-8 0H5v4h6v-4Zm0 9v-3H5v3h6Zm2-14v3h6V5h-6Zm-2 0H5v3h6V5Z"/><path fill="currentColor" d="M16 18v-2h8v2h-8Z"/></symbol><symbol id="hd-icon-ci-table-remove" viewBox="0 0 24 24"><path fill="none" stroke="currentColor" stroke-linecap="round" stroke-linejoin="round" stroke-width="2" d="M11 4h4.8c1.12 0 1.68 0 2.108.218a2 2 0 0 1 .874.874c.218.427.218.987.218 2.105V9h-8m0-5H6.2c-1.12 0-1.68 0-2.108.218a2 2 0 0 0-.874.874C3 5.52 3 6.08 3 7.2V9m8-5v5M3 9v6m0-6h8m-8 6v1.8c0 1.12 0 1.68.218 2.108a2 2 0 0 0 .874.874c.427.218.987.218 2.105.218H11V9m-8 6h8m4 1h6"/></symbol><symbol id="hd-icon-ci-tablet" viewBox="0 0 24 24"><path fill="none" stroke="currentColor" stroke-linecap="round" stroke-linejoin="round" stroke-width="2" d="M4 6.2v11.6c0 1.12 0 1.68.218 2.108a2 2 0 0 0 .874.874c.427.218.987.218 2.105.218h9.606c1.118 0 1.677 0 2.104-.218c.377-.192.683-.498.875-.874c.218-.428.218-.986.218-2.104V6.197c0-1.118 0-1.678-.218-2.105a2 2 0 0 0-.875-.874C18.48 3 17.92 3 16.8 3H7.2c-1.12 0-1.68 0-2.108.218a2 2 0 0 0-.874.874C4 4.52 4 5.08 4 6.2"/></symbol><symbol id="hd-icon-ci-tablet-button" viewBox="0 0 24 24"><path fill="none" stroke="currentColor" stroke-linecap="round" stroke-linejoin="round" stroke-width="2" d="M3 6.2v11.6c0 1.12 0 1.68.218 2.108a2 2 0 0 0 .874.874c.427.218.987.218 2.105.218h11.606c1.118 0 1.677 0 2.104-.218c.377-.192.683-.498.875-.874c.218-.428.218-.986.218-2.104V6.197c0-1.118 0-1.678-.218-2.105a2 2 0 0 0-.875-.874C19.48 3 18.92 3 17.8 3H6.2c-1.12 0-1.68 0-2.108.218a2 2 0 0 0-.874.874C3 4.52 3 5.08 3 6.2"/></symbol><symbol id="hd-icon-ci-tag" viewBox="0 0 24 24"><g fill="none" stroke="currentColor" stroke-linecap="round" stroke-linejoin="round" stroke-width="2"><path d="m4.748 7.645l-.331 3.644c-.05.54-.074.811-.03 1.07a2 2 0 0 0 .238.655c.131.228.325.422.711.808l5.176 5.176c.787.787 1.18 1.18 1.636 1.328c.402.131.835.131 1.237 0c.456-.148.853-.544 1.645-1.336l3.96-3.96c.792-.792 1.187-1.188 1.336-1.644a2 2 0 0 0-.001-1.236c-.148-.457-.543-.853-1.335-1.645l-5.163-5.163c-.39-.39-.584-.584-.813-.716a2 2 0 0 0-.656-.238c-.26-.045-.535-.02-1.084.03l-3.63.33c-.944.086-1.417.129-1.787.335a2 2 0 0 0-.775.775c-.205.368-.248.838-.333 1.773z"/><path d="M9.713 9.713a1 1 0 1 0-1.415-1.414a1 1 0 0 0 1.415 1.414"/></g></symbol><symbol id="hd-icon-ci-tag-outline" viewBox="0 0 24 24"><path fill="currentColor" d="M12.897 21.968a1.987 1.987 0 0 1-1.415-.586l-7.834-7.835a1.994 1.994 0 0 1-.58-1.567l.5-6.566a1.989 1.989 0 0 1 1.846-1.841l6.566-.5c.051-.011.103-.011.154-.011a2.01 2.01 0 0 1 1.413.586l7.835 7.834a2 2 0 0 1 0 2.829l-7.07 7.071a1.987 1.987 0 0 1-1.415.586Zm-.764-16.906l-6.57.5l-.5 6.571l7.834 7.835l7.07-7.07l-7.834-7.836Zm-3.479 5.592a2 2 0 1 1 0-4a2 2 0 0 1 0 4Z"/></symbol><symbol id="hd-icon-ci-tennis" viewBox="0 0 24 24"><path fill="currentColor" d="M9.847 15.827c2.643 1.113 6.116-.372 7.98-3.505c1.974-3.317 1.397-7.226-1.29-8.731c-2.685-1.505-6.463-.036-8.437 3.282c-1.636 2.749-1.52 5.905.098 7.762L5 20.009l1.769.99l3.078-5.172Zm6.236-4.482a6.647 6.647 0 0 1-1.346 1.633V5.04c.288.051.55.142.778.27c1.375.77 2.205 3.284.568 6.035ZM11.674 14.2V5.84c.678-.47 1.386-.732 2.042-.817v8.657c-.7.37-1.41.532-2.042.52Zm-1.021-.2a2.203 2.203 0 0 1-.24-.116c-1.376-.77-2.205-3.284-.568-6.035c.248-.418.52-.785.808-1.104V14Z"/></symbol><symbol id="hd-icon-ci-tennis-match" viewBox="0 0 24 24"><path fill="currentColor" d="M10.85 6.594c.107-.226.224-.45.353-.672l.027-.046l.015-.026c.227-.384.478-.742.748-1.075c1.05-1.29 2.395-2.18 3.77-2.562a8.06 8.06 0 0 1 .014-.005c1.304-.36 2.634-.265 3.77.371l.03.018c2.646 1.51 3.212 5.417 1.265 8.733c-1.721 2.93-4.83 4.419-7.361 3.694L17 21.01l-1.744.99L12 16.462L8.748 22L7 21.008l4.326-7.364c-.894-1.04-1.324-2.486-1.246-4.04a8.05 8.05 0 0 1 .77-3.01Zm6.938-2.545v7.916a6.662 6.662 0 0 0 1.314-1.622c1.623-2.763.79-5.268-.548-6.027a2.388 2.388 0 0 0-.766-.267Zm-1.009 8.625V4.036c-.647.087-1.347.35-2.018.825v8.34c.623.01 1.324-.153 2.018-.527Zm-4.018-.477c.15.205.318.38.5.52a2.135 2.135 0 0 0 .479.282l.012.005v-7.23a7.03 7.03 0 0 0-.783 1.089l-.015.026l-.023.039c-.06.104-.117.209-.17.313c-1.044 2.038-.775 3.895 0 4.956Z"/><path fill="currentColor" d="M9.422 5.006c-.728-.567-1.502-.876-2.211-.97v8.607c.5.269 1.003.429 1.477.493a7.1 7.1 0 0 0 .277.579l-.799 1.36c-1.9-.362-3.799-1.709-5.01-3.769C1.21 7.995 1.78 4.092 4.428 2.59c1.842-1.045 4.205-.654 6.128.795a10.51 10.51 0 0 0-1.134 1.62ZM4.896 10.32a6.636 6.636 0 0 0 1.308 1.614V4.048c-.283.05-.54.14-.762.266c-1.334.756-2.165 3.251-.546 6.006Z"/></symbol><symbol id="hd-icon-ci-tennis-match-alt" viewBox="0 0 24 24"><path fill="currentColor" d="M14.828 11.322c-1.865 3.133-5.338 4.618-7.981 3.505L3.769 20L2 19.01l3.198-5.375C3.58 11.778 3.464 8.622 5.1 5.873c1.974-3.318 5.752-4.787 8.438-3.282a4.551 4.551 0 0 1 1.742 1.748a5.55 5.55 0 0 1 .64 1.87c.254 1.596-.091 3.43-1.092 5.113Zm-.841-4.003a4.64 4.64 0 0 0-.01-.31c-.083-1.274-.686-2.265-1.462-2.7a2.466 2.466 0 0 0-.778-.269v7.938c.07-.06.137-.122.205-.186c.41-.392.798-.872 1.14-1.447c.64-1.075.903-2.113.904-3.026Zm-3.98 5.667c.222-.075.445-.168.667-.283l.042-.022V4.024c-.655.085-1.364.346-2.042.816v8.36a3.97 3.97 0 0 0 1.334-.214Zm-2.594-.1c.076.042.156.08.24.115V5.746a6.93 6.93 0 0 0-.808 1.104c-1.637 2.751-.808 5.265.568 6.035Z"/><path fill="currentColor" d="M16.716 14.681c-.91.48-1.837.61-2.586.462c-1.122.912-2.412 1.57-3.754 1.873L8 21.01l1.769.99l3.078-5.172c2.643 1.113 6.116-.372 7.98-3.505c1.974-3.317 1.397-7.226-1.29-8.731a4.693 4.693 0 0 0-2.175-.589c.283.654.467 1.354.56 2.077c.215.053.415.13.593.23c1.375.77 2.205 3.285.568 6.035a6.646 6.646 0 0 1-1.346 1.634v-4.6a10.402 10.402 0 0 1-1.02 2.67v2.633Z"/></symbol><symbol id="hd-icon-ci-terminal" viewBox="0 0 24 24"><path fill="none" stroke="currentColor" stroke-linecap="round" stroke-linejoin="round" stroke-width="2" d="M17 15h-5m-5-5l3 2.5L7 15m-4 .8V8.2c0-1.12 0-1.68.218-2.108c.192-.377.497-.682.874-.874C4.52 5 5.08 5 6.2 5h11.6c1.12 0 1.68 0 2.107.218c.377.192.683.497.875.874c.218.427.218.987.218 2.105v7.606c0 1.118 0 1.677-.218 2.104a2 2 0 0 1-.875.875c-.427.218-.986.218-2.104.218H6.197c-1.118 0-1.678 0-2.105-.218a2 2 0 0 1-.874-.875C3 17.48 3 16.92 3 15.8"/></symbol><symbol id="hd-icon-ci-text" viewBox="0 0 24 24"><path fill="none" stroke="currentColor" stroke-linecap="round" stroke-linejoin="round" stroke-width="2" d="M10 19h2m0 0h2m-2 0V5m0 0H6v1m6-1h6v1"/></symbol><symbol id="hd-icon-ci-text-align-center" viewBox="0 0 24 24"><path fill="none" stroke="currentColor" stroke-linecap="round" stroke-linejoin="round" stroke-width="2" d="M17 18H7m13-4H4m13-4H7m13-4H4"/></symbol><symbol id="hd-icon-ci-text-align-justify" viewBox="0 0 24 24"><path fill="none" stroke="currentColor" stroke-linecap="round" stroke-linejoin="round" stroke-width="2" d="M20 18H4m16-4H4m16-4H4m16-4H4"/></symbol><symbol id="hd-icon-ci-text-align-left" viewBox="0 0 24 24"><path fill="none" stroke="currentColor" stroke-linecap="round" stroke-linejoin="round" stroke-width="2" d="M4 18h10M4 14h16M4 10h10M4 6h16"/></symbol><symbol id="hd-icon-ci-text-align-right" viewBox="0 0 24 24"><path fill="none" stroke="currentColor" stroke-linecap="round" stroke-linejoin="round" stroke-width="2" d="M20 18H10m10-4H4m16-4H10m10-4H4"/></symbol><symbol id="hd-icon-ci-thin-big-down" viewBox="0 0 24 24"><path fill="currentColor" d="M6.5 17.5L13 24l6.5-6.5l-.707-.707l-5.293 5.293V0h-1v22.086l-5.293-5.293l-.707.707Z"/></symbol><symbol id="hd-icon-ci-thin-big-left" viewBox="0 0 24 24"><path fill="currentColor" d="M6.5 5.5L0 12l6.5 6.5l.707-.707L1.914 12.5H24v-1H1.914l5.293-5.293L6.5 5.5Z"/></symbol><symbol id="hd-icon-ci-thin-big-right" viewBox="0 0 24 24"><path fill="currentColor" d="M17.5 18.5L24 12l-6.5-6.5l-.707.707l5.293 5.293H0v1h22.086l-5.293 5.293l.707.707Z"/></symbol><symbol id="hd-icon-ci-thin-big-up" viewBox="0 0 24 24"><g fill="none"><g clip-path="url(#hd-icon-ci-thin-big-up-671)"><path fill="currentColor" d="M19.5 6.5L13 0L6.5 6.5l.707.707L12.5 1.914V24h1V1.914l5.293 5.293l.707-.707Z"/></g><defs><clipPath id="hd-icon-ci-thin-big-up-671"><path fill="#fff" d="M0 0h24v24H0z"/></clipPath></defs></g></symbol><symbol id="hd-icon-ci-thin-long-02-down" viewBox="0 0 24 24"><path fill="currentColor" d="m9 16l3 3l3-3l-.707-.707l-1.793 1.793V5h-1v12.086l-1.793-1.793L9 16Z"/></symbol><symbol id="hd-icon-ci-thin-long-02-left" viewBox="0 0 24 24"><path fill="currentColor" d="m8 9l-3 3l3 3l.707-.707L6.914 12.5H19v-1H6.914l1.793-1.793L8 9Z"/></symbol><symbol id="hd-icon-ci-thin-long-02-right" viewBox="0 0 24 24"><path fill="currentColor" d="m16 15l3-3l-3-3l-.707.707l1.793 1.793H5v1h12.086l-1.793 1.793L16 15Z"/></symbol><symbol id="hd-icon-ci-thin-long-02-up" viewBox="0 0 24 24"><path fill="currentColor" d="m15 8l-3-3l-3 3l.707.707L11.5 6.914V19h1V6.914l1.793 1.793L15 8Z"/></symbol><symbol id="hd-icon-ci-thin-long-down" viewBox="0 0 24 24"><path fill="currentColor" d="M8.5 18.5L12 22l3.5-3.5l-.707-.707l-2.293 2.293V2h-1v18.086l-2.293-2.293l-.707.707Z"/></symbol><symbol id="hd-icon-ci-thin-long-left" viewBox="0 0 24 24"><path fill="currentColor" d="M5.5 8.5L2 12l3.5 3.5l.707-.707L3.914 12.5H22v-1H3.914l2.293-2.293L5.5 8.5Z"/></symbol><symbol id="hd-icon-ci-thin-long-right" viewBox="0 0 24 24"><path fill="currentColor" d="M18.5 15.5L22 12l-3.5-3.5l-.707.707l2.293 2.293H2v1h18.086l-2.293 2.293l.707.707Z"/></symbol><symbol id="hd-icon-ci-thin-long-up" viewBox="0 0 24 24"><path fill="currentColor" d="M15.5 5.5L12 2L8.5 5.5l.707.707L11.5 3.914V22h1V3.914l2.293 2.293l.707-.707Z"/></symbol><symbol id="hd-icon-ci-ticket-voucher" viewBox="0 0 24 24"><path fill="none" stroke="currentColor" stroke-linecap="round" stroke-linejoin="round" stroke-width="2" d="M14 6H6c-.932 0-1.398 0-1.766.152a2 2 0 0 0-1.082 1.083C3 7.602 3 8.068 3 9a3 3 0 1 1 0 6c0 .932 0 1.398.152 1.765a2 2 0 0 0 1.082 1.083C4.602 18 5.068 18 6 18h8m0-12h4c.932 0 1.398 0 1.765.152a2 2 0 0 1 1.083 1.083C21 7.602 21 8.068 21 9a3 3 0 1 0 0 6c0 .932 0 1.398-.152 1.765a2 2 0 0 1-1.083 1.083C19.398 18 18.932 18 18 18h-4m0-12v12"/></symbol><symbol id="hd-icon-ci-timer" viewBox="0 0 24 24"><path fill="none" stroke="currentColor" stroke-linecap="round" stroke-linejoin="round" stroke-width="2" d="M12 13V9m9-3l-2-2m-9-2h4m-2 19a8 8 0 1 1 0-16a8 8 0 0 1 0 16"/></symbol><symbol id="hd-icon-ci-timer-add" viewBox="0 0 24 24"><path fill="none" stroke="currentColor" stroke-linecap="round" stroke-linejoin="round" stroke-width="2" d="M12 16v-3m0 0v-3m0 3H9m3 0h3m6-7l-2-2m-9-2h4m-2 19a8 8 0 1 1 0-16a8 8 0 0 1 0 16"/></symbol><symbol id="hd-icon-ci-timer-close" viewBox="0 0 24 24"><path fill="none" stroke="currentColor" stroke-linecap="round" stroke-linejoin="round" stroke-width="2" d="m10 15l2-2m0 0l2-2m-2 2l-2-2m2 2l2 2m7-9l-2-2m-9-2h4m-2 19a8 8 0 1 1 0-16a8 8 0 0 1 0 16"/></symbol><symbol id="hd-icon-ci-timer-remove" viewBox="0 0 24 24"><path fill="none" stroke="currentColor" stroke-linecap="round" stroke-linejoin="round" stroke-width="2" d="M9 13h6m6-7l-2-2m-9-2h4m-2 19a8 8 0 1 1 0-16a8 8 0 0 1 0 16"/></symbol><symbol id="hd-icon-ci-transfer" viewBox="0 0 24 24"><path fill="currentColor" d="m9 20l-5-4l5-4v3h13v2H9v3Zm6-8V9H2V7h13V4l5 4l-5 4Z"/></symbol><symbol id="hd-icon-ci-trash-empty" viewBox="0 0 24 24"><path fill="none" stroke="currentColor" stroke-linecap="round" stroke-linejoin="round" stroke-width="2" d="M6 6v11.8c0 1.12 0 1.68.218 2.108a2 2 0 0 0 .874.874c.427.218.987.218 2.105.218h5.606c1.118 0 1.677 0 2.104-.218c.377-.192.683-.498.875-.874c.218-.428.218-.987.218-2.105V6M6 6h2M6 6H4m4 0h8M8 6c0-.932 0-1.398.152-1.765a2 2 0 0 1 1.082-1.083C9.602 3 10.068 3 11 3h2c.932 0 1.398 0 1.765.152a2 2 0 0 1 1.083 1.083C16 4.602 16 5.068 16 6m0 0h2m0 0h2"/></symbol><symbol id="hd-icon-ci-trash-full" viewBox="0 0 24 24"><path fill="none" stroke="currentColor" stroke-linecap="round" stroke-linejoin="round" stroke-width="2" d="M14 10v7m-4-7v7M6 6v11.8c0 1.12 0 1.68.218 2.108a2 2 0 0 0 .874.874c.427.218.987.218 2.105.218h5.606c1.118 0 1.677 0 2.104-.218c.377-.192.683-.498.875-.874c.218-.428.218-.987.218-2.105V6M6 6h2M6 6H4m4 0h8M8 6c0-.932 0-1.398.152-1.765a2 2 0 0 1 1.082-1.083C9.602 3 10.068 3 11 3h2c.932 0 1.398 0 1.765.152a2 2 0 0 1 1.083 1.083C16 4.602 16 5.068 16 6m0 0h2m0 0h2"/></symbol><symbol id="hd-icon-ci-trello" viewBox="0 0 24 24"><path fill="currentColor" d="M18.75 21H5.25A2.253 2.253 0 0 1 3 18.75V5.25A2.253 2.253 0 0 1 5.25 3h13.5A2.253 2.253 0 0 1 21 5.25v13.5A2.253 2.253 0 0 1 18.75 21ZM6.42 5.34a1.08 1.08 0 0 0-1.08 1.08v10.215c0 .596.484 1.08 1.08 1.08h3.33a1.08 1.08 0 0 0 1.08-1.08V6.42a1.08 1.08 0 0 0-1.08-1.08H6.42Zm7.83 0a1.08 1.08 0 0 0-1.08 1.08v5.715c0 .596.484 1.08 1.08 1.08h3.33a1.08 1.08 0 0 0 1.08-1.08V6.42a1.08 1.08 0 0 0-1.08-1.08h-3.33Z"/></symbol><symbol id="hd-icon-ci-trending-down" viewBox="0 0 24 24"><path fill="none" stroke="currentColor" stroke-linecap="round" stroke-linejoin="round" stroke-width="2" d="m20 17l-5.846-5.937a5 5 0 0 0-.205-.203a2 2 0 0 0-2.667 0c-.047.042-.1.096-.205.203c-.105.106-.158.16-.205.202a2 2 0 0 1-2.667 0A5 5 0 0 1 8 11.062L4 7m16 10v-6m0 6h-6"/></symbol><symbol id="hd-icon-ci-trending-up" viewBox="0 0 24 24"><path fill="none" stroke="currentColor" stroke-linecap="round" stroke-linejoin="round" stroke-width="2" d="m20 7l-5.846 5.938c-.105.106-.158.16-.205.202c-.76.68-1.907.68-2.667 0a5 5 0 0 1-.205-.203c-.105-.106-.158-.16-.205-.202a2 2 0 0 0-2.667 0a5 5 0 0 0-.204.202L4 17M20 7v6m0-6h-6"/></symbol><symbol id="hd-icon-ci-triangle" viewBox="0 0 24 24"><path fill="none" stroke="currentColor" stroke-linecap="round" stroke-linejoin="round" stroke-width="2" d="M4.379 15.2c-.91 1.575-1.364 2.363-1.296 3.01a2 2 0 0 0 .813 1.408C4.422 20 5.331 20 7.15 20h9.703c1.817 0 2.726 0 3.251-.382a2 2 0 0 0 .814-1.408c.068-.647-.386-1.435-1.296-3.01l-4.85-8.4c-.909-1.575-1.364-2.363-1.958-2.627a2 2 0 0 0-1.627 0c-.593.264-1.048 1.052-1.957 2.625z"/></symbol><symbol id="hd-icon-ci-triangle-check" viewBox="0 0 24 24"><path fill="none" stroke="currentColor" stroke-linecap="round" stroke-linejoin="round" stroke-width="2" d="m15 13l-4 4l-2-2m-4.621.2c-.91 1.575-1.364 2.363-1.296 3.01a2 2 0 0 0 .813 1.408C4.422 20 5.331 20 7.15 20h9.703c1.817 0 2.726 0 3.251-.382a2 2 0 0 0 .814-1.409c.068-.646-.386-1.434-1.296-3.01l-4.85-8.4c-.909-1.574-1.364-2.362-1.958-2.626a2 2 0 0 0-1.627 0c-.593.264-1.048 1.052-1.957 2.625z"/></symbol><symbol id="hd-icon-ci-triangle-warning" viewBox="0 0 24 24"><path fill="none" stroke="currentColor" stroke-linecap="round" stroke-linejoin="round" stroke-width="2" d="M12 9v4m-7.621 2.2c-.91 1.575-1.364 2.363-1.296 3.01a2 2 0 0 0 .813 1.408C4.422 20 5.331 20 7.15 20h9.703c1.817 0 2.726 0 3.251-.382a2 2 0 0 0 .814-1.409c.068-.646-.386-1.434-1.296-3.01l-4.85-8.4c-.909-1.574-1.364-2.362-1.958-2.626a2 2 0 0 0-1.627 0c-.593.264-1.048 1.052-1.957 2.625zm7.672.8v.1h-.1V16z"/></symbol><symbol id="hd-icon-ci-twitter" viewBox="0 0 24 24"><path fill="currentColor" d="M19.995 6.688a4.3 4.3 0 0 0 1.887-2.374a8.59 8.59 0 0 1-2.725 1.041a4.3 4.3 0 0 0-7.316 3.915a12.184 12.184 0 0 1-8.844-4.484a4.3 4.3 0 0 0 1.328 5.73a4.276 4.276 0 0 1-1.943-.538v.054a4.294 4.294 0 0 0 3.443 4.208a4.3 4.3 0 0 1-1.938.074a4.3 4.3 0 0 0 4.009 2.98a8.61 8.61 0 0 1-5.33 1.837c-.343 0-.685-.02-1.025-.059A12.148 12.148 0 0 0 8.12 21A12.127 12.127 0 0 0 20.33 8.789c0-.186-.004-.371-.013-.555a8.718 8.718 0 0 0 2.142-2.222a8.58 8.58 0 0 1-2.464.676Z"/></symbol><symbol id="hd-icon-ci-underline" viewBox="0 0 24 24"><path fill="none" stroke="currentColor" stroke-linecap="round" stroke-linejoin="round" stroke-width="2" d="M6 19h12M8 5v6a4 4 0 0 0 8 0V5"/></symbol><symbol id="hd-icon-ci-undo" viewBox="0 0 24 24"><path fill="none" stroke="currentColor" stroke-linecap="round" stroke-linejoin="round" stroke-width="2" d="M10 8H5V3m.291 13.357a8 8 0 1 0 .188-8.991"/></symbol><symbol id="hd-icon-ci-unfold-less" viewBox="0 0 24 24"><path fill="none" stroke="currentColor" stroke-linecap="round" stroke-linejoin="round" stroke-width="2" d="m8 19l4-4l4 4m0-14l-4 4l-4-4"/></symbol><symbol id="hd-icon-ci-unfold-more" viewBox="0 0 24 24"><path fill="none" stroke="currentColor" stroke-linecap="round" stroke-linejoin="round" stroke-width="2" d="m16 15l-4 4l-4-4m0-6l4-4l4 4"/></symbol><symbol id="hd-icon-ci-unlink" viewBox="0 0 24 24"><path fill="currentColor" d="M20.292 21.707L11.586 13H7v-2h2.586l-2-2H7a3 3 0 1 0 0 6h3v2H7a5 5 0 0 1-1.255-9.841L2.292 3.707l1.415-1.414l18 18l-1.414 1.413v.001Zm-.156-5.814l-1.428-1.427A3 3 0 0 0 17 9h-3V7h3a5 5 0 0 1 3.137 8.893Z"/></symbol><symbol id="hd-icon-ci-unsplash" viewBox="0 0 24 24"><path fill="currentColor" d="M21 21H3V10.875h5.625v5.063h6.75v-5.063H21V21ZM15.375 8.063h-6.75V3h6.75v5.063Z"/></symbol><symbol id="hd-icon-ci-user" viewBox="0 0 24 24"><path fill="currentColor" d="M7 8a5 5 0 1 1 10 0A5 5 0 0 1 7 8Zm5 3a3 3 0 1 0 0-6a3 3 0 0 0 0 6Zm-5.657 5.343A8 8 0 0 0 4 22h2a6 6 0 1 1 12 0h2a8 8 0 0 0-13.657-5.657Z"/></symbol><symbol id="hd-icon-ci-user-01" viewBox="0 0 24 24"><path fill="none" stroke="currentColor" stroke-linecap="round" stroke-linejoin="round" stroke-width="2" d="M19 21a7 7 0 1 0-14 0m7-10a4 4 0 1 1 0-8a4 4 0 0 1 0 8"/></symbol><symbol id="hd-icon-ci-user-02" viewBox="0 0 24 24"><path fill="none" stroke="currentColor" stroke-linecap="round" stroke-linejoin="round" stroke-width="2" d="M20 21c0-2.761-3.582-5-8-5s-8 2.239-8 5m8-8a5 5 0 1 1 0-10a5 5 0 0 1 0 10"/></symbol><symbol id="hd-icon-ci-user-03" viewBox="0 0 24 24"><path fill="none" stroke="currentColor" stroke-linecap="round" stroke-linejoin="round" stroke-width="2" d="M18 19c0-2.21-2.686-4-6-4s-6 1.79-6 4m6-7a4 4 0 1 1 0-8a4 4 0 0 1 0 8"/></symbol><symbol id="hd-icon-ci-user-add" viewBox="0 0 24 24"><path fill="none" stroke="currentColor" stroke-linecap="round" stroke-linejoin="round" stroke-width="2" d="M15 19c0-2.21-2.686-4-6-4s-6 1.79-6 4m16-3v-3m0 0v-3m0 3h-3m3 0h3M9 12a4 4 0 1 1 0-8a4 4 0 0 1 0 8"/></symbol><symbol id="hd-icon-ci-user-card-id" viewBox="0 0 24 24"><path fill="none" stroke="currentColor" stroke-linecap="round" stroke-linejoin="round" stroke-width="2" d="M6 18h6m-6 0c-.988 0-1.507-.013-1.908-.218a2 2 0 0 1-.874-.875C3 16.48 3 15.92 3 14.8V9.2c0-1.12 0-1.68.218-2.108c.192-.377.497-.682.874-.874C4.52 6 5.08 6 6.2 6h11.6c1.12 0 1.68 0 2.107.218c.377.192.683.497.875.874c.218.427.218.987.218 2.105v5.606c0 1.118 0 1.677-.218 2.104a2 2 0 0 1-.875.875c-.427.218-.986.218-2.104.218H12m-6 0c0-1.105 1.343-2 3-2s3 .895 3 2m-6 0q0 0 0 0m12-4h-4m4-3h-3m-6 2a2 2 0 1 1 0-4a2 2 0 0 1 0 4"/></symbol><symbol id="hd-icon-ci-user-check" viewBox="0 0 24 24"><path fill="none" stroke="currentColor" stroke-linecap="round" stroke-linejoin="round" stroke-width="2" d="M15 19c0-2.21-2.686-4-6-4s-6 1.79-6 4m18-9l-4 4l-2-2m-6 0a4 4 0 1 1 0-8a4 4 0 0 1 0 8"/></symbol><symbol id="hd-icon-ci-user-circle" viewBox="0 0 24 24"><path fill="none" stroke="currentColor" stroke-linecap="round" stroke-linejoin="round" stroke-width="2" d="M17.217 19.332A6.98 6.98 0 0 0 12 17c-2.073 0-3.935.9-5.217 2.332M12 21a9 9 0 1 1 0-18a9 9 0 0 1 0 18m0-7a3 3 0 1 1 0-6a3 3 0 0 1 0 6"/></symbol><symbol id="hd-icon-ci-user-close" viewBox="0 0 24 24"><path fill="none" stroke="currentColor" stroke-linecap="round" stroke-linejoin="round" stroke-width="2" d="M15 19c0-2.21-2.686-4-6-4s-6 1.79-6 4m14-5l2-2m0 0l2-2m-2 2l-2-2m2 2l2 2M9 12a4 4 0 1 1 0-8a4 4 0 0 1 0 8"/></symbol><symbol id="hd-icon-ci-user-heart" viewBox="0 0 24 24"><path fill="currentColor" d="M2 19h2a4 4 0 0 1 8 0h2a6 6 0 0 0-12 0ZM4 8a4 4 0 1 1 8 0a4 4 0 0 1-8 0Zm2.002-.029A2 2 0 0 0 10 8.09V8a2 2 0 0 0-3.998-.029ZM18.339 15a22.972 22.972 0 0 0-.692-.583l-.047-.038l-.006-.004C16.438 13.432 15 12.258 15 10.799A1.8 1.8 0 0 1 16.839 9a2.008 2.008 0 0 1 1.5.667a2.009 2.009 0 0 1 1.5-.667a1.8 1.8 0 0 1 1.835 1.8c0 1.465-1.45 2.647-2.615 3.598l-.003.002l-.057.047l-.018.015c-.23.189-.448.367-.643.54l.001-.003Z"/></symbol><symbol id="hd-icon-ci-user-minus" viewBox="0 0 24 24"><path fill="currentColor" d="M4 19H2a6 6 0 0 1 12 0h-2a4 4 0 0 0-8 0Zm18-6h-8v-2h8v2ZM8 12a4 4 0 1 1 0-8a4 4 0 0 1 0 8Zm0-6a2 2 0 1 0 2 2.09v.4V8a2 2 0 0 0-2-2Z"/></symbol><symbol id="hd-icon-ci-user-pin" viewBox="0 0 24 24"><path fill="currentColor" d="m12 22l-3-3H5a2 2 0 0 1-2-2V4a2 2 0 0 1 2-2h14a2 2 0 0 1 2 2v13a2 2 0 0 1-2 2h-4l-3 3ZM5 4v13h5l2 2l2-2h5V4H5Zm11 10.986H8V14.6a3.82 3.82 0 0 1 4-3.6a3.82 3.82 0 0 1 4 3.6v.386ZM12 10a1.934 1.934 0 0 1-2-2a1.935 1.935 0 0 1 2-2a1.935 1.935 0 0 1 2 2a1.934 1.934 0 0 1-2 2Z"/></symbol><symbol id="hd-icon-ci-user-plus" viewBox="0 0 24 24"><path fill="currentColor" d="M4 19H2a6 6 0 0 1 12 0h-2a4 4 0 0 0-8 0Zm15-3h-2v-3h-3v-2h3V8h2v3h3v2h-3v3ZM8 12a4 4 0 1 1 0-8a4 4 0 0 1 0 8Zm0-6a2 2 0 1 0 2 2.09v.4V8a2 2 0 0 0-2-2Z"/></symbol><symbol id="hd-icon-ci-user-remove" viewBox="0 0 24 24"><path fill="none" stroke="currentColor" stroke-linecap="round" stroke-linejoin="round" stroke-width="2" d="M15 19c0-2.21-2.686-4-6-4s-6 1.79-6 4m12-6h6M9 12a4 4 0 1 1 0-8a4 4 0 0 1 0 8"/></symbol><symbol id="hd-icon-ci-user-square" viewBox="0 0 24 24"><path fill="none" stroke="currentColor" stroke-linecap="round" stroke-linejoin="round" stroke-width="2" d="M17 21a5 5 0 0 0-10 0m10 0h.803c1.118 0 1.677 0 2.104-.218a2 2 0 0 0 .875-.875c.218-.427.218-.986.218-2.104V6.197c0-1.118 0-1.678-.218-2.105a2 2 0 0 0-.875-.874C19.48 3 18.92 3 17.8 3H6.2c-1.12 0-1.68 0-2.108.218a2 2 0 0 0-.874.874C3 4.52 3 5.08 3 6.2v11.6c0 1.12 0 1.68.218 2.107c.192.377.497.683.874.875c.427.218.987.218 2.105.218H7m10 0H7m5-8a3 3 0 1 1 0-6a3 3 0 0 1 0 6"/></symbol><symbol id="hd-icon-ci-user-voice" viewBox="0 0 24 24"><path fill="none" stroke="currentColor" stroke-linecap="round" stroke-linejoin="round" stroke-width="2" d="M15 19c0-2.21-2.686-4-6-4s-6 1.79-6 4M16.828 5.172a4 4 0 0 1 0 5.657M19 3a7.07 7.07 0 0 1 0 10M9 12a4 4 0 1 1 0-8a4 4 0 0 1 0 8"/></symbol><symbol id="hd-icon-ci-users" viewBox="0 0 24 24"><path fill="none" stroke="currentColor" stroke-linecap="round" stroke-linejoin="round" stroke-width="2" d="M21 20c0-1.742-1.67-3.223-4-3.773M15 20c0-2.21-2.686-4-6-4s-6 1.79-6 4m12-7a4 4 0 0 0 0-8m-6 8a4 4 0 1 1 0-8a4 4 0 0 1 0 8"/></symbol><symbol id="hd-icon-ci-users-group" viewBox="0 0 24 24"><path fill="none" stroke="currentColor" stroke-linecap="round" stroke-linejoin="round" stroke-width="2" d="M17 20c0-1.657-2.239-3-5-3s-5 1.343-5 3m14-3c0-1.23-1.234-2.287-3-2.75M3 17c0-1.23 1.234-2.287 3-2.75m12-4.014a3 3 0 1 0-4-4.472m-8 4.472a3 3 0 0 1 4-4.472M12 14a3 3 0 1 1 0-6a3 3 0 0 1 0 6"/></symbol><symbol id="hd-icon-ci-volume-max" viewBox="0 0 24 24"><path fill="none" stroke="currentColor" stroke-linecap="round" stroke-linejoin="round" stroke-width="2" d="M18.82 4.687a10 10 0 0 1 .05 14.579M16.093 7.612a6 6 0 0 1 .03 8.748m-8.642-.953l1.676 2.073c.873 1.08 1.31 1.621 1.692 1.68a1 1 0 0 0 .891-.315c.261-.286.261-.981.261-2.37v-8.95c0-1.389 0-2.083-.26-2.37a1 1 0 0 0-.892-.315c-.383.059-.82.6-1.692 1.68L7.48 8.593c-.176.219-.264.328-.373.406a1 1 0 0 1-.32.153c-.13.036-.27.036-.551.036H4.813c-.757 0-1.135 0-1.44.1A2 2 0 0 0 2.1 10.56c-.1.306-.1.684-.1 1.44s0 1.134.1 1.44a2 2 0 0 0 1.273 1.272c.305.1.683.1 1.44.1h1.423c.28 0 .42 0 .55.036a1 1 0 0 1 .32.153c.11.078.198.188.374.406"/></symbol><symbol id="hd-icon-ci-volume-min" viewBox="0 0 24 24"><path fill="none" stroke="currentColor" stroke-linecap="round" stroke-linejoin="round" stroke-width="2" d="M16.41 8.343a5 5 0 0 1 .025 7.29m-8.955-.226l1.676 2.073c.873 1.08 1.31 1.62 1.692 1.68a1 1 0 0 0 .891-.316c.261-.286.261-.98.261-2.37V7.525c0-1.39 0-2.084-.26-2.37a1 1 0 0 0-.892-.315c-.383.059-.82.599-1.692 1.68L7.48 8.593c-.176.218-.264.327-.373.406a1 1 0 0 1-.32.153c-.13.035-.27.035-.551.035H4.813c-.757 0-1.135 0-1.44.101A2 2 0 0 0 2.1 10.56c-.1.305-.1.683-.1 1.44s0 1.134.1 1.44a2 2 0 0 0 1.273 1.271c.305.101.683.101 1.44.101h1.423c.28 0 .42 0 .55.036a1 1 0 0 1 .32.152c.11.079.198.188.374.406"/></symbol><symbol id="hd-icon-ci-volume-minus" viewBox="0 0 24 24"><path fill="none" stroke="currentColor" stroke-linecap="round" stroke-linejoin="round" stroke-width="2" d="M16 12h6M7.48 15.406l1.676 2.074c.873 1.08 1.31 1.62 1.692 1.68a1 1 0 0 0 .891-.316c.261-.286.261-.98.261-2.37V7.525c0-1.39 0-2.084-.26-2.37a1 1 0 0 0-.892-.315c-.383.059-.82.599-1.692 1.68L7.48 8.593c-.176.218-.264.327-.373.406a1 1 0 0 1-.32.153c-.13.035-.27.035-.551.035H4.813c-.757 0-1.135 0-1.44.101A2 2 0 0 0 2.1 10.56c-.1.305-.1.683-.1 1.44s0 1.134.1 1.44a2 2 0 0 0 1.273 1.271c.305.101.683.101 1.44.101h1.423c.28 0 .42 0 .55.036a1 1 0 0 1 .32.152c.11.079.198.188.374.406"/></symbol><symbol id="hd-icon-ci-volume-off" viewBox="0 0 24 24"><path fill="none" stroke="currentColor" stroke-linecap="round" stroke-linejoin="round" stroke-width="2" d="m16.172 9.171l5.656 5.657m-5.656 0l5.656-5.657M7.48 15.407l1.676 2.073c.873 1.08 1.31 1.62 1.692 1.68a1 1 0 0 0 .891-.316c.261-.286.261-.98.261-2.37V7.525c0-1.39 0-2.084-.26-2.37a1 1 0 0 0-.892-.315c-.383.059-.82.599-1.692 1.68L7.48 8.593c-.176.218-.264.327-.373.406a1 1 0 0 1-.32.153c-.13.035-.27.035-.551.035H4.813c-.757 0-1.135 0-1.44.101A2 2 0 0 0 2.1 10.56c-.1.305-.1.683-.1 1.44s0 1.134.1 1.44a2 2 0 0 0 1.273 1.271c.305.101.683.101 1.44.101h1.423c.28 0 .42 0 .55.036a1 1 0 0 1 .32.152c.11.079.198.188.374.406"/></symbol><symbol id="hd-icon-ci-volume-off-02" viewBox="0 0 24 24"><path fill="none" stroke="currentColor" stroke-linecap="round" stroke-linejoin="round" stroke-width="2" d="M10 9.187H8.813c-.757 0-1.135 0-1.44.101A2 2 0 0 0 6.1 10.56c-.1.305-.1.683-.1 1.44s0 1.134.1 1.44a2 2 0 0 0 1.273 1.271c.305.101.683.101 1.44.101h1.423c.28 0 .42 0 .55.036a1 1 0 0 1 .32.153c.11.078.198.187.374.406l1.675 2.073c.874 1.08 1.31 1.62 1.693 1.68a1 1 0 0 0 .891-.316c.261-.286.261-.98.261-2.37V15m0-4.5V6.977c0-.936 0-1.404-.122-1.628a1 1 0 0 0-1.26-.445c-.235.097-.53.461-1.118 1.19l-.625.773M6 5l14 14"/></symbol><symbol id="hd-icon-ci-volume-plus" viewBox="0 0 24 24"><path fill="none" stroke="currentColor" stroke-linecap="round" stroke-linejoin="round" stroke-width="2" d="M16 12h6m-3 3V9M7.48 15.406l1.676 2.074c.873 1.08 1.31 1.62 1.692 1.68a1 1 0 0 0 .891-.316c.261-.286.261-.98.261-2.37V7.525c0-1.39 0-2.084-.26-2.37a1 1 0 0 0-.892-.315c-.383.059-.82.599-1.692 1.68L7.48 8.593c-.176.218-.264.327-.373.406a1 1 0 0 1-.32.153c-.13.035-.27.035-.551.035H4.813c-.757 0-1.135 0-1.44.101A2 2 0 0 0 2.1 10.56c-.1.305-.1.683-.1 1.44s0 1.134.1 1.44a2 2 0 0 0 1.273 1.271c.305.101.683.101 1.44.101h1.423c.28 0 .42 0 .55.036a1 1 0 0 1 .32.152c.11.079.198.188.374.406"/></symbol><symbol id="hd-icon-ci-warning" viewBox="0 0 24 24"><path fill="none" stroke="currentColor" stroke-linecap="round" stroke-linejoin="round" stroke-width="2" d="M12 6v8m.05 4v.1h-.1V18z"/></symbol><symbol id="hd-icon-ci-warning-outline" viewBox="0 0 24 24"><path fill="currentColor" d="M21.266 20.998H2.733a1 1 0 0 1-.866-1.5l9.266-16a1 1 0 0 1 1.73 0l9.267 16a1 1 0 0 1-.865 1.5ZM12 5.998l-7.531 13h15.064L12 5.998Zm.995 9.001h-2V9.998h2v5.001Z"/><path fill="currentColor" d="M11 16h2v2h-2v-2Z"/></symbol><symbol id="hd-icon-ci-water-drop" viewBox="0 0 24 24"><path fill="none" stroke="currentColor" stroke-linecap="round" stroke-linejoin="round" stroke-width="2" d="M16 13.385a4.68 4.68 0 0 1-1.318 3.263A4.5 4.5 0 0 1 13 17.736m6-4.044C19 7.115 12 2 12 2S5 7.115 5 13.692c0 1.938.737 3.797 2.05 5.168S10.144 21 12 21s3.637-.77 4.95-2.14S19 15.63 19 13.691"/></symbol><symbol id="hd-icon-ci-wavy" viewBox="0 0 24 24"><path fill="none" stroke="currentColor" stroke-linecap="round" stroke-linejoin="round" stroke-width="2" d="m18.92 17.158l.128-1.599a1.92 1.92 0 0 1 .453-1.092l1.04-1.222a1.92 1.92 0 0 0 0-2.491L19.5 9.533a1.92 1.92 0 0 1-.454-1.093l-.127-1.6a1.92 1.92 0 0 0-1.762-1.761l-1.599-.128a1.9 1.9 0 0 1-1.092-.452l-1.221-1.04a1.92 1.92 0 0 0-2.492 0l-1.221 1.04c-.308.262-.69.42-1.093.453l-1.6.128m12.08 12.079a1.92 1.92 0 0 1-1.76 1.762m-.001-.001l-1.6.127a1.92 1.92 0 0 0-1.092.453l-1.221 1.04a1.92 1.92 0 0 1-2.492 0l-1.22-1.04a1.92 1.92 0 0 0-1.094-.452l-1.6-.128m.002 0a1.92 1.92 0 0 1-1.761-1.76l-.128-1.6a1.92 1.92 0 0 0-.453-1.092l-1.04-1.221a1.92 1.92 0 0 1 0-2.492l1.04-1.221c.263-.308.42-.69.452-1.093l.128-1.6m.001.002A1.92 1.92 0 0 1 6.842 5.08"/></symbol><symbol id="hd-icon-ci-wavy-check" viewBox="0 0 24 24"><path fill="none" stroke="currentColor" stroke-linecap="round" stroke-linejoin="round" stroke-width="2" d="m15 10l-4 4l-2-2m4.246-8.541l1.221 1.04c.308.262.69.42 1.092.453l1.6.128a1.92 1.92 0 0 1 1.761 1.76l.127 1.6c.033.403.192.786.454 1.093l1.04 1.22a1.92 1.92 0 0 1 0 2.492l-1.04 1.221c-.262.308-.421.69-.453 1.093l-.128 1.6a1.92 1.92 0 0 1-1.76 1.761l-1.6.128a1.92 1.92 0 0 0-1.093.452l-1.221 1.04a1.92 1.92 0 0 1-2.492 0l-1.22-1.04a1.92 1.92 0 0 0-1.094-.452l-1.6-.128a1.92 1.92 0 0 1-1.76-1.762l-.128-1.599a1.92 1.92 0 0 0-.453-1.092l-1.04-1.222a1.92 1.92 0 0 1 0-2.49l1.04-1.222c.263-.308.42-.69.452-1.093l.128-1.599A1.92 1.92 0 0 1 6.842 5.08l1.598-.127A1.92 1.92 0 0 0 9.533 4.5l1.221-1.04a1.92 1.92 0 0 1 2.492 0"/></symbol><symbol id="hd-icon-ci-wavy-help" viewBox="0 0 24 24"><path fill="none" stroke="currentColor" stroke-linecap="round" stroke-linejoin="round" stroke-width="2" d="M9.146 9.073a2.999 2.999 0 0 1 5.844.691A3 3 0 0 1 12 13v1m.05 3v.1h-.1V17zm1.196-13.541l1.221 1.04c.308.262.69.42 1.092.453l1.6.128a1.92 1.92 0 0 1 1.761 1.76l.127 1.6c.033.403.192.786.454 1.093l1.04 1.22a1.92 1.92 0 0 1 0 2.492l-1.04 1.221c-.262.308-.421.69-.453 1.093l-.128 1.6a1.92 1.92 0 0 1-1.76 1.761l-1.6.128a1.92 1.92 0 0 0-1.093.452l-1.221 1.04a1.92 1.92 0 0 1-2.492 0l-1.22-1.04a1.92 1.92 0 0 0-1.094-.452l-1.6-.128a1.92 1.92 0 0 1-1.76-1.762l-.128-1.599a1.92 1.92 0 0 0-.453-1.092l-1.04-1.222a1.92 1.92 0 0 1 0-2.49l1.04-1.222c.263-.308.42-.69.452-1.093l.128-1.599A1.92 1.92 0 0 1 6.842 5.08l1.598-.127A1.92 1.92 0 0 0 9.533 4.5l1.221-1.04a1.92 1.92 0 0 1 2.492 0"/></symbol><symbol id="hd-icon-ci-wavy-warning" viewBox="0 0 24 24"><path fill="none" stroke="currentColor" stroke-linecap="round" stroke-linejoin="round" stroke-width="2" d="M12 8.45v4m1.246-8.991l1.221 1.04c.308.262.69.42 1.092.453l1.6.128a1.92 1.92 0 0 1 1.761 1.76l.127 1.6c.033.403.192.786.454 1.093l1.04 1.22a1.92 1.92 0 0 1 0 2.492l-1.04 1.221c-.262.308-.421.69-.453 1.093l-.128 1.6a1.92 1.92 0 0 1-1.76 1.761l-1.6.128a1.92 1.92 0 0 0-1.093.452l-1.221 1.04a1.92 1.92 0 0 1-2.492 0l-1.22-1.04a1.92 1.92 0 0 0-1.094-.452l-1.6-.128a1.92 1.92 0 0 1-1.76-1.762l-.128-1.599a1.92 1.92 0 0 0-.453-1.092l-1.04-1.222a1.92 1.92 0 0 1 0-2.49l1.04-1.222c.263-.308.42-.69.452-1.093l.128-1.599A1.92 1.92 0 0 1 6.842 5.08l1.598-.127A1.92 1.92 0 0 0 9.533 4.5l1.221-1.04a1.92 1.92 0 0 1 2.492 0M12.05 15.45v.1h-.1v-.1z"/></symbol><symbol id="hd-icon-ci-wifi-high" viewBox="0 0 24 24"><path fill="none" stroke="currentColor" stroke-linecap="round" stroke-linejoin="round" stroke-width="2" d="M8.343 14.59a5 5 0 0 1 7.29-.025m-9.484-3.021a8 8 0 0 1 11.664-.04M3.223 8.816a12 12 0 0 1 17.497-.06M12 19a1 1 0 1 1 0-2a1 1 0 0 1 0 2"/></symbol><symbol id="hd-icon-ci-wifi-low" viewBox="0 0 24 24"><path fill="none" stroke="currentColor" stroke-linecap="round" stroke-linejoin="round" stroke-width="2" d="M8.343 14.59a5 5 0 0 1 7.29-.025M12 19a1 1 0 1 1 0-2a1 1 0 0 1 0 2"/></symbol><symbol id="hd-icon-ci-wifi-medium" viewBox="0 0 24 24"><path fill="none" stroke="currentColor" stroke-linecap="round" stroke-linejoin="round" stroke-width="2" d="M8.344 14.59a5 5 0 0 1 7.289-.025m-9.484-3.021a8 8 0 0 1 11.664-.042M12 19a1 1 0 1 1 0-2a1 1 0 0 1 0 2"/></symbol><symbol id="hd-icon-ci-wifi-none" viewBox="0 0 24 24"><path fill="none" stroke="currentColor" stroke-linecap="round" stroke-linejoin="round" stroke-width="2" d="M11 18a1 1 0 1 0 2 0a1 1 0 0 0-2 0"/></symbol><symbol id="hd-icon-ci-wifi-off" viewBox="0 0 24 24"><path fill="none" stroke="currentColor" stroke-linecap="round" stroke-linejoin="round" stroke-width="2" d="M17.85 11.544a8 8 0 0 0-2.88-1.972m5.806-.756a12 12 0 0 0-9.488-3.795m-2.945 9.57a5 5 0 0 1 4.902-1.434m-7.096-1.613A8 8 0 0 1 9.623 9.36m-6.4-.545a12 12 0 0 1 3.11-2.393M4.413 4l14.142 14.142M12 19a1 1 0 1 1 0-2a1 1 0 0 1 0 2"/></symbol><symbol id="hd-icon-ci-wifi-problem" viewBox="0 0 24 24"><path fill="none" stroke="currentColor" stroke-linecap="round" stroke-linejoin="round" stroke-width="2" d="M8.343 14.59a5 5 0 0 1 7.29-.025m-9.484-3.021A8 8 0 0 1 11.96 9m-8.735-.184A12 12 0 0 1 11.959 5M16 9l2-2m0 0l2-2m-2 2l-2-2m2 2l2 2m-8 10a1 1 0 1 1 0-2a1 1 0 0 1 0 2"/></symbol><symbol id="hd-icon-ci-window" viewBox="0 0 24 24"><path fill="none" stroke="currentColor" stroke-linecap="round" stroke-linejoin="round" stroke-width="2" d="M3 6h.02m0 0h17.96M3.02 6C3 6.314 3 6.702 3 7.2v9.6c0 1.12 0 1.68.218 2.107c.192.377.497.683.874.875c.427.218.987.218 2.105.218h11.606c1.118 0 1.677 0 2.104-.218a2 2 0 0 0 .875-.875c.218-.427.218-.986.218-2.104V7.197c0-.497 0-.883-.02-1.197M3.02 6c.023-.392.077-.67.198-.908c.192-.377.497-.682.874-.874C4.52 4 5.08 4 6.2 4h11.6c1.12 0 1.68 0 2.107.218c.377.192.683.497.875.874c.121.237.175.516.199.908m0 0H21"/></symbol><symbol id="hd-icon-ci-window-check" viewBox="0 0 24 24"><path fill="none" stroke="currentColor" stroke-linecap="round" stroke-linejoin="round" stroke-width="2" d="M3 6h.02m0 0h17.96M3.02 6C3 6.314 3 6.702 3 7.2v9.6c0 1.12 0 1.68.218 2.107c.192.377.497.683.874.875c.427.218.987.218 2.105.218h11.606c1.118 0 1.677 0 2.104-.218a2 2 0 0 0 .875-.875c.218-.427.218-.986.218-2.104V7.197c0-.497 0-.883-.02-1.197M3.02 6c.023-.392.077-.67.198-.908c.192-.377.497-.682.874-.874C4.52 4 5.08 4 6.2 4h11.6c1.12 0 1.68 0 2.107.218c.377.192.683.497.875.874c.121.237.175.516.199.908m0 0H21m-6 5l-4 4l-2-2"/></symbol><symbol id="hd-icon-ci-window-close" viewBox="0 0 24 24"><path fill="none" stroke="currentColor" stroke-linecap="round" stroke-linejoin="round" stroke-width="2" d="M3 6h.02m0 0h17.96M3.02 6C3 6.314 3 6.702 3 7.2v9.6c0 1.12 0 1.68.218 2.107c.192.377.497.683.874.875c.427.218.987.218 2.105.218h11.606c1.118 0 1.677 0 2.104-.218a2 2 0 0 0 .875-.875c.218-.427.218-.986.218-2.104V7.197c0-.497 0-.883-.02-1.197M3.02 6c.023-.392.077-.67.198-.908c.192-.377.497-.682.874-.874C4.52 4 5.08 4 6.2 4h11.6c1.12 0 1.68 0 2.107.218c.377.192.683.497.875.874c.121.237.175.516.199.908m0 0H21m-11 9l2-2m0 0l2-2m-2 2l-2-2m2 2l2 2"/></symbol><symbol id="hd-icon-ci-window-code-block" viewBox="0 0 24 24"><path fill="none" stroke="currentColor" stroke-linecap="round" stroke-linejoin="round" stroke-width="2" d="M3 6h.02m0 0h17.96M3.02 6C3 6.314 3 6.702 3 7.2v9.6c0 1.12 0 1.68.218 2.107c.192.377.497.683.874.875c.427.218.987.218 2.105.218h11.606c1.118 0 1.677 0 2.104-.218a2 2 0 0 0 .875-.875c.218-.427.218-.986.218-2.104V7.197c0-.497 0-.883-.02-1.197M3.02 6c.023-.392.077-.67.198-.908c.192-.377.497-.682.874-.874C4.52 4 5.08 4 6.2 4h11.6c1.12 0 1.68 0 2.107.218c.377.192.683.497.875.874c.121.237.175.516.199.908m0 0H21m-7 5l2 2l-2 2m-4 0l-2-2l2-2"/></symbol><symbol id="hd-icon-ci-window-sidebar" viewBox="0 0 24 24"><path fill="none" stroke="currentColor" stroke-linecap="round" stroke-linejoin="round" stroke-width="2" d="M3 6h.02m0 0H9M3.02 6C3 6.314 3 6.702 3 7.2v9.6c0 1.12 0 1.68.218 2.107c.192.377.497.683.874.875c.427.218.987.218 2.105.218H9M3.02 6c.023-.392.077-.67.198-.908c.192-.377.497-.682.874-.874C4.52 4 5.08 4 6.2 4h11.6c1.12 0 1.68 0 2.107.218c.377.192.683.497.875.874c.121.237.175.516.199.908M9 6h11.98M9 6v14M20.98 6H21m-.02 0c.02.314.02.7.02 1.197v9.606c0 1.118 0 1.677-.218 2.104a2 2 0 0 1-.875.875c-.427.218-.986.218-2.104.218H9"/></symbol><symbol id="hd-icon-ci-window-terminal" viewBox="0 0 24 24"><path fill="none" stroke="currentColor" stroke-linecap="round" stroke-linejoin="round" stroke-width="2" d="M4 6h16m-4 10h-3m-5-4l2 2l-2 2m-5 .8V7.2c0-1.12 0-1.68.218-2.108c.192-.377.497-.682.874-.874C4.52 4 5.08 4 6.2 4h11.6c1.12 0 1.68 0 2.107.218c.377.192.683.497.875.874c.218.427.218.987.218 2.105v9.606c0 1.118 0 1.677-.218 2.104a2 2 0 0 1-.875.875c-.427.218-.986.218-2.104.218H6.197c-1.118 0-1.678 0-2.105-.218a2 2 0 0 1-.874-.875C3 18.48 3 17.92 3 16.8"/></symbol><symbol id="hd-icon-ci-youtube" viewBox="0 0 24 24"><path fill="currentColor" d="M12.006 19.012h-.02c-.062 0-6.265-.012-7.83-.437a2.5 2.5 0 0 1-1.764-1.765A26.494 26.494 0 0 1 1.986 12a26.646 26.646 0 0 1 .417-4.817A2.564 2.564 0 0 1 4.169 5.4c1.522-.4 7.554-.4 7.81-.4H12c.063 0 6.282.012 7.831.437c.859.233 1.53.904 1.762 1.763c.29 1.594.427 3.211.407 4.831a26.568 26.568 0 0 1-.418 4.811a2.51 2.51 0 0 1-1.767 1.763c-1.52.403-7.553.407-7.809.407Zm-2-10.007l-.005 6l5.212-3l-5.207-3Z"/></symbol></svg>