<svg xmlns="http://www.w3.org/2000/svg" xmlns:xlink="http://www.w3.org/1999/xlink"><symbol id="hd-icon-streamline-sharp-double-bookmark-solid" viewBox="0 0 24 24"><path fill="currentColor" fill-rule="evenodd" d="M8 3h10v15h2V1H8zM3.5 4.5V23l6.5-5.5l6.5 5.5V4.5z" clip-rule="evenodd"/></symbol><symbol id="hd-icon-streamline-sharp-double-heart" viewBox="0 0 24 24"><g fill="none" stroke="currentColor" stroke-width="1.5"><path d="M11.786 20.891L3.305 12.41a4.798 4.798 0 0 1 6.785-6.785l1.696 1.696l1.696-1.696a4.798 4.798 0 0 1 8.168 3.862"/><path d="m15.875 12.597l.922.922l.921-.922a2.606 2.606 0 1 1 3.686 3.686l-4.607 4.608l-4.608-4.608a2.606 2.606 0 1 1 3.686-3.686Z"/></g></symbol><symbol id="hd-icon-streamline-sharp-double-heart-remix" viewBox="0 0 24 24"><path fill="currentColor" fill-rule="evenodd" d="M.001 8.73A6.73 6.73 0 0 1 11.49 3.971l.51.511l.512-.51A6.73 6.73 0 0 1 24.001 8.73v.15a6.88 6.88 0 0 1-2.073 4.92L20.5 15.197a5.8 5.8 0 0 0-.761-2.751l.443-.433A4.38 4.38 0 0 0 21.5 8.88v-.15a4.23 4.23 0 0 0-7.22-2.99l-1.395 1.395l-.884.884l-.884-.884L9.722 5.74a4.23 4.23 0 0 0-7.221 2.99v.15a4.38 4.38 0 0 0 1.32 3.132l.442.433a5.8 5.8 0 0 0-.76 2.752L2.072 13.8A6.88 6.88 0 0 1 .001 8.879zm5.5 6.598a3.828 3.828 0 0 1 6.5-2.742a3.828 3.828 0 0 1 5.379 5.45l-4.672 4.671l-.707.707l-.707-.707l-4.672-4.672a3.83 3.83 0 0 1-1.121-2.707" clip-rule="evenodd"/></symbol><symbol id="hd-icon-streamline-sharp-double-heart-solid" viewBox="0 0 24 24"><path fill="currentColor" fill-rule="evenodd" d="M21.236 4.911a5.67 5.67 0 0 0-8.02 0l-1.21 1.21l-1.21-1.21a5.671 5.671 0 1 0-8.02 8.02l9.23 9.23l1.48-1.479l-2.126-2.125a4.173 4.173 0 0 1 5.787-6.013a4.18 4.18 0 0 1 4.869-.584a5.67 5.67 0 0 0-.78-7.049m-4.09 9.75l-.944-.946a2.674 2.674 0 0 0-3.781 3.781l4.726 4.726l4.726-4.726a2.674 2.674 0 0 0-3.78-3.78z" clip-rule="evenodd"/></symbol><symbol id="hd-icon-streamline-sharp-download-box-1" viewBox="0 0 24 24"><path fill="none" stroke="currentColor" stroke-width="1.5" d="M12 22V11m-3.5 4.5H5v-9h14v9h-3.5M5 6.5v-1L7.5 2h9L19 5.5v1m-7 0V2M8 18l4 4l4-4"/></symbol><symbol id="hd-icon-streamline-sharp-download-box-1-remix" viewBox="0 0 24 24"><path fill="currentColor" fill-rule="evenodd" d="M10.751 0h-5.35l-.376.47l-3 3.75l-.274.342V20.5h3.75V18h-1.25V6.5h6.5zm2.5 6.5h6.5V18h-1.25v2.5h3.75V4.562l-.274-.343l-3-3.75L18.602 0H13.25zM12.001 24l4.5-4.5V18h-3.25v-8h-2.5v8h-3.25v1.5z" clip-rule="evenodd"/></symbol><symbol id="hd-icon-streamline-sharp-download-box-1-solid" viewBox="0 0 24 24"><path fill="currentColor" fill-rule="evenodd" d="M7 1h4.25v3.75H4V4.5zm13 3.75h-7.25V1H17l3 3.5zM4 6.25V16h5V9h6v7h5V6.25zm9.5 4.25v7H16v1l-4 4l-4-4v-1h2.5v-7z" clip-rule="evenodd"/></symbol><symbol id="hd-icon-streamline-sharp-download-square" viewBox="0 0 24 24"><g fill="none" stroke="currentColor" stroke-width="1.5"><path d="m8 12.5l4 4l4-4m-4 4v-10"/><path d="M2 2h20v20H2z"/></g></symbol><symbol id="hd-icon-streamline-sharp-download-square-remix" viewBox="0 0 24 24"><path fill="currentColor" fill-rule="evenodd" d="M.751.75h22.5v22.5H.751zm2.5 2.5v17.5h17.5V3.25zm8.75 15.25l-4.5-4.5v-1.5h3.25V6h2.5v6.5h3.25V14z" clip-rule="evenodd"/></symbol><symbol id="hd-icon-streamline-sharp-download-square-solid" viewBox="0 0 24 24"><path fill="currentColor" fill-rule="evenodd" d="M1 1h22v22H1zm11 17l-4.5-4.5v-1h3v-6h3v6h3v1z" clip-rule="evenodd"/></symbol><symbol id="hd-icon-streamline-sharp-download-stack" viewBox="0 0 24 24"><path fill="none" stroke="currentColor" stroke-width="1.5" d="m7 5.5l5 5l5-5m-5 5V1m9 21H3m18-4H3m18-4H3"/></symbol><symbol id="hd-icon-streamline-sharp-download-stack-remix" viewBox="0 0 24 24"><path fill="currentColor" fill-rule="evenodd" d="M10.75 5H6.5v1.5L12 12l5.5-5.5V5h-4.25V0h-2.5zM2 16v-2.5h20V16zm0 4v-2.5h20V20zm0 4v-2.5h20V24z" clip-rule="evenodd"/></symbol><symbol id="hd-icon-streamline-sharp-download-stack-solid" viewBox="0 0 24 24"><path fill="currentColor" fill-rule="evenodd" d="M13.5 5.5V1h-3v4.5H7v1l5 5l5-5v-1zM3 13v2h18v-2zm18 4v2H3v-2zm0 4v2H3v-2z" clip-rule="evenodd"/></symbol><symbol id="hd-icon-streamline-sharp-drawing-compass" viewBox="0 0 24 24"><g fill="none" stroke="currentColor" stroke-width="1.5"><path stroke-linecap="square" d="M12 1.5v2.553M9.447 6.606a2.553 2.553 0 1 0 5.106 0a2.553 2.553 0 1 0-5.106 0"/><path d="M9.543 7.305L4.478 22.5m9.979-15.195L19.522 22.5"/><path stroke-linecap="square" d="M5.192 15.116h13.616M12 13.414v3.404"/></g></symbol><symbol id="hd-icon-streamline-sharp-drawing-compass-remix" viewBox="0 0 24 24"><path fill="currentColor" fill-rule="evenodd" d="M13.25 2.2a4 4 0 0 1 2.533 5.104l3.12 6.946h2.098v2.5h-.974l2.614 5.818l-2.28 1.024l-3.075-6.842h-4.035v1.75h-2.5v-1.75H6.715l-3.074 6.842l-2.28-1.024l2.613-5.818h-.973v-2.5h2.097l3.12-6.946A4 4 0 0 1 10.75 2.2V0h2.5zm0 12.05V12.5h-2.5v1.75H7.839l2.153-4.79c.59.343 1.277.54 2.01.54s1.42-.197 2.01-.54l2.152 4.79z" clip-rule="evenodd"/></symbol><symbol id="hd-icon-streamline-sharp-drawing-compass-solid" viewBox="0 0 24 24"><path fill="currentColor" fill-rule="evenodd" d="M13 .5v2.957a3.304 3.304 0 0 1 2.139 4.18l2.375 6.479h2.294v2h-1.561l2.214 6.04l.344.939l-1.878.688l-.344-.939l-2.466-6.728H13v1.702h-2v-1.702H7.883l-2.466 6.728l-.344.94l-1.878-.69l.344-.938l2.214-6.04H4.192v-2h2.294l2.375-6.48A3.304 3.304 0 0 1 11 3.457V.501zm0 13.616v-1.702h-2v1.702H8.617l1.709-4.663c.49.29 1.063.456 1.674.456s1.184-.166 1.674-.455l1.71 4.662z" clip-rule="evenodd"/></symbol><symbol id="hd-icon-streamline-sharp-drone" viewBox="0 0 24 24"><g fill="none" stroke="currentColor" stroke-width="1.5"><path d="M1 2h9m4 0h9M2 7h20v5H2zm16 5a6 6 0 0 1-12 0m.5 3L3 18.5V23"/><path d="m17.5 15l3.5 3.5V23M5.5 2v5m13-5v5"/></g></symbol><symbol id="hd-icon-streamline-sharp-drone-remix" viewBox="0 0 24 24"><path fill="currentColor" fill-rule="evenodd" d="M4.25 3.25H.75V.75h9.5v2.5h-3.5v2.5h10.5v-2.5h-3.5V.75h9.5v2.5h-3.5v2.5h3.5v7.5h-4.361a7 7 0 0 1-.289 1.088l3.283 3.277l.367.367V23h-2.5v-3.982l-2.45-2.445A6.98 6.98 0 0 1 12 19a6.98 6.98 0 0 1-5.3-2.427l-2.45 2.445V23h-2.5v-5.018l.367-.367L5.4 14.338a7 7 0 0 1-.289-1.088H.75v-7.5h3.5zm-1 7.5v-2.5h17.5v2.5z" clip-rule="evenodd"/></symbol><symbol id="hd-icon-streamline-sharp-drone-solid" viewBox="0 0 24 24"><path fill="currentColor" fill-rule="evenodd" d="M1 3h3.5v3.5H1v4h22v-4h-3.5V3H23V1h-9v2h3.5v3.5h-11V3H10V1H1zm16.463 13.377A6.99 6.99 0 0 1 12 19a6.99 6.99 0 0 1-5.463-2.623L4 18.914V23H2v-4.914l.293-.293l3.202-3.202A7 7 0 0 1 5 12h14a7 7 0 0 1-.495 2.59l3.202 3.203l.293.293V23h-2v-4.086z" clip-rule="evenodd"/></symbol><symbol id="hd-icon-streamline-sharp-drop-down-menu" viewBox="0 0 24 24"><g fill="none" stroke="currentColor" stroke-width="1.5"><path d="M22 6H2v12h20zM12 6v12"/><path d="m14.5 11l2.5 2.5l2.5-2.5"/></g></symbol><symbol id="hd-icon-streamline-sharp-drop-down-menu-remix" viewBox="0 0 24 24"><path fill="currentColor" fill-rule="evenodd" d="M1.25 4.75H0v14.5h24V4.75zM12 7.25H2.5v9.5H12zm6 7.25l-3-3V10h6v1.5z" clip-rule="evenodd"/></symbol><symbol id="hd-icon-streamline-sharp-drop-down-menu-solid" viewBox="0 0 24 24"><path fill="currentColor" fill-rule="evenodd" d="M2 5H1v14h22V5zm1 12V7h8.5v10zm11.5-5.5L17 14l2.5-2.5v-1h-5z" clip-rule="evenodd"/></symbol><symbol id="hd-icon-streamline-sharp-drum-stick" viewBox="0 0 24 24"><g fill="none" stroke="currentColor" stroke-width="1.5"><path d="m12.732 15.232l2.5 2.5A2.5 2.5 0 1 0 19.5 19.5a2.5 2.5 0 1 0-1.768-4.268l-2.5-2.5"/><path d="m7 16l-3.5-3.5a6.364 6.364 0 0 1 9-9L16 7l-.5 6l-2.5 2.5z"/></g></symbol><symbol id="hd-icon-streamline-sharp-drum-stick-remix" viewBox="0 0 24 24"><path fill="currentColor" fill-rule="evenodd" d="M11.002 2.23A7.614 7.614 0 1 1 21.77 12.998l-3.636 3.636l-.366.366h-6.5l-1.634 1.634A3.75 3.75 0 1 1 2.66 21.34a3.752 3.752 0 1 1 2.707-6.974L7 12.732v-6.5l.366-.366zM8.25 15.018l.732.732l-1.848 1.848l-.884.884l.884.884A1.25 1.25 0 1 1 5 20.25V19H3.75a1.25 1.25 0 1 1 .884-2.134l.884.884l.884-.884z" clip-rule="evenodd"/></symbol><symbol id="hd-icon-streamline-sharp-drum-stick-solid" viewBox="0 0 24 24"><path fill="currentColor" fill-rule="evenodd" d="m3 13l4 4l7.09-.788l2.137 2.136A2.499 2.499 0 0 0 17.5 23a2.5 2.5 0 0 0 2.436-3.064q.272.064.564.064a2.5 2.5 0 1 0-2.152-3.773l-2.136-2.136L17 7l-4-4A7.071 7.071 0 1 0 3 13" clip-rule="evenodd"/></symbol><symbol id="hd-icon-streamline-sharp-earth-2" viewBox="0 0 24 24"><g fill="none" stroke="currentColor" stroke-width="1.5"><path d="M12 22.25c5.66 0 10.25-4.59 10.25-10.25S17.66 1.75 12 1.75S1.75 6.34 1.75 12S6.34 22.25 12 22.25Z"/><path d="M20.058 5.664h-8.944v5.39l4.154 3.749v6.92m-5.849.194v-6.672H2.275"/></g></symbol><symbol id="hd-icon-streamline-sharp-earth-2-remix" viewBox="0 0 24 24"><path fill="currentColor" fill-rule="evenodd" d="M2.5 12A9.5 9.5 0 0 1 12 2.5c2.477 0 4.732.948 6.423 2.5h-2.875a4.548 4.548 0 0 0-3.244 7.736L15 15.48v5.537a9.5 9.5 0 0 1-3 .483a9.5 9.5 0 0 1-2-.21V18a4 4 0 0 0-4-4H2.71a9.5 9.5 0 0 1-.21-2M12 0C5.373 0 0 5.373 0 12s5.373 12 12 12s12-5.373 12-12S18.627 0 12 0" clip-rule="evenodd"/></symbol><symbol id="hd-icon-streamline-sharp-earth-2-solid" viewBox="0 0 24 24"><path fill="currentColor" fill-rule="evenodd" d="M17.99 4.95h-6.876v5.39l4.155 3.749v6.567a9.254 9.254 0 0 0 2.72-15.705M9.42 20.886v-5.64H3.334a9.27 9.27 0 0 0 6.084 5.64M12 .75C5.787.75.75 5.787.75 12S5.787 23.25 12 23.25S23.25 18.213 23.25 12S18.213.75 12 .75" clip-rule="evenodd"/></symbol><symbol id="hd-icon-streamline-sharp-eco-house" viewBox="0 0 24 24"><g fill="none" stroke="currentColor" stroke-width="1.5"><path d="M22 22H2V11l10-9l10 9z"/><path d="m12.75 8.766l-3.5 4.735h5l-3.5 4.765"/></g></symbol><symbol id="hd-icon-streamline-sharp-eco-house-remix" viewBox="0 0 24 24"><path fill="currentColor" fill-rule="evenodd" d="M12.836 1.07L12 .319l-.836.753l-10 9l-.414.372V23.25h22.5V10.443l-.414-.372zM3.25 20.75v-9.193L12 3.682l8.75 7.875v9.193zm8.726-12.967l-3.5 5.001l-1.377 1.967h5l-2.123 3.033l2.048 1.434l3.5-5l1.377-1.967h-5l2.123-3.034z" clip-rule="evenodd"/></symbol><symbol id="hd-icon-streamline-sharp-eco-house-solid" viewBox="0 0 24 24"><path fill="currentColor" fill-rule="evenodd" d="m12 .999l10.828 9.745V23H1.172V10.744zm1.541 8.59l-1.608-1.19l-4.619 6.249h4.922l-2.27 3.09l1.611 1.184l4.61-6.274H11.28z" clip-rule="evenodd"/></symbol><symbol id="hd-icon-streamline-sharp-edit-pdf" viewBox="0 0 24 24"><path fill="none" stroke="currentColor" stroke-width="1.5" d="M20 10.5V7l-5-5H2v20h8m11.5-6.5L15 22h-2.5v-2.5L19 13zM5 18h5m-5-6h5m-2.5 0v6"/></symbol><symbol id="hd-icon-streamline-sharp-edit-pdf-remix" viewBox="0 0 24 24"><path fill="currentColor" fill-rule="evenodd" d="M1.25 0H0v24h10v-2.5H2.5v-19h10.733l4.268 4.268v3.99l.086-.086L20 8.257V5.732l-.366-.366l-5-5L14.268 0zm4 13.75H4v-2.5h5v2.5H7.75v3.5H9v2.5H4v-2.5h1.25zM19 12.086l.708.707l3.5 3.5l.707.707l-.707.707l-6 6l-.293.293H12v-4.914l.293-.293l6-6z" clip-rule="evenodd"/></symbol><symbol id="hd-icon-streamline-sharp-edit-pdf-solid" viewBox="0 0 24 24"><path fill="currentColor" fill-rule="evenodd" d="M1 1h12.414L20 7.586v3.626l-8.5 8.5V23H1zm3 19h5v-2H7.5v-4H9v-2H4v2h1.5v4H4zm11.667 3L23 15.667L20.333 13L13 20.333V23z" clip-rule="evenodd"/></symbol><symbol id="hd-icon-streamline-sharp-eject-square" viewBox="0 0 24 24"><g fill="none" stroke="currentColor" stroke-width="1.5"><path d="M2 2h20v20H2zm4.5 14h11"/><path d="M16 12.5H8l4-5z"/></g></symbol><symbol id="hd-icon-streamline-sharp-eject-square-remix" viewBox="0 0 24 24"><path fill="currentColor" fill-rule="evenodd" d="M.75.75h22.5v22.5H.75zm2.5 2.5v17.5h17.5V3.25zM18 17.75H6v-2.5h12zM12 5.9l.78.975l4 5l1.3 1.625H5.92l1.3-1.625l4-5z" clip-rule="evenodd"/></symbol><symbol id="hd-icon-streamline-sharp-eject-square-solid" viewBox="0 0 24 24"><path fill="currentColor" fill-rule="evenodd" d="M1 1h22v22H1zm17 14.5v2H6v-2zm-12-2L12 6l6 7.5z" clip-rule="evenodd"/></symbol><symbol id="hd-icon-streamline-sharp-electric-cord-3" viewBox="0 0 24 24"><g fill="none" stroke="currentColor" stroke-width="1.5"><path d="M7 20.645a10 10 0 0 1-5-8.662c0-5.523 4.477-10 10-10s10 4.477 10 10s-4.477 10-10 10v-4.387"/><path d="M6.91 10.02h10.023v2.506a5.012 5.012 0 1 1-10.023 0zm2.506 0V6.888m5.011 3.132V6.888"/></g></symbol><symbol id="hd-icon-streamline-sharp-electric-cord-3-remix" viewBox="0 0 24 24"><path fill="currentColor" fill-rule="evenodd" d="M2.5 12a9.5 9.5 0 1 1 19 0c0 4.823-3.594 8.807-8.25 9.419v-2.794c2.853-.58 5-3.101 5-6.125V8.75h-2.5V6h-2.5v2.75h-2.5V6h-2.5v2.75h-2.5v3.75a6.25 6.25 0 0 0 5 6.125V24H12c6.627 0 12-5.373 12-12S18.627 0 12 0S0 5.373 0 12c0 4.385 2.353 8.22 5.86 10.312l1.28-2.147A9.5 9.5 0 0 1 2.5 12m5.75.5v-1.25h7.5v1.25a3.75 3.75 0 1 1-7.5 0" clip-rule="evenodd"/></symbol><symbol id="hd-icon-streamline-sharp-electric-cord-3-solid" viewBox="0 0 24 24"><path fill="currentColor" fill-rule="evenodd" d="M3 11.983a9 9 0 1 1 10 8.945v-2.996a5.514 5.514 0 0 0 4.433-5.406V9.52h-2.006V5.888h-2V9.52h-3.012V5.888h-2V9.52H6.41v3.006A5.51 5.51 0 0 0 11 17.96v5.022h1c6.075 0 11-4.925 11-11s-4.925-11-11-11s-11 4.925-11 11c0 4.073 2.214 7.627 5.5 9.528l.865.5l1.001-1.73l-.865-.502A9 9 0 0 1 3 11.984" clip-rule="evenodd"/></symbol><symbol id="hd-icon-streamline-sharp-elipse-frame" viewBox="0 0 24 24"><path fill="none" stroke="currentColor" stroke-width="1.5" d="M2 12a10 10 0 1 0 20 0a10 10 0 1 0-20 0m3-7l14 14M5 19L19 5"/></symbol><symbol id="hd-icon-streamline-sharp-elipse-frame-remix" viewBox="0 0 24 24"><path fill="currentColor" fill-rule="evenodd" d="M12 0a12 12 0 1 0 0 24a12 12 0 0 0 0-24M6.637 4.16a9.5 9.5 0 0 1 10.73 0L12 9.525zM4.16 6.635a9.5 9.5 0 0 0 0 10.73L9.526 12zM6.636 19.84a9.5 9.5 0 0 0 10.73 0L12 14.475zm13.205-2.475a9.5 9.5 0 0 0 0-10.73L14.476 12z" clip-rule="evenodd"/></symbol><symbol id="hd-icon-streamline-sharp-elipse-frame-solid" viewBox="0 0 24 24"><path fill="currentColor" fill-rule="evenodd" d="M19.04 3.547C17.131 1.957 14.677 1 12 1s-5.132.957-7.04 2.547L12 10.586zM10.585 12l-7.04-7.04C1.957 6.869 1 9.324 1 12s.957 5.132 2.547 7.04zM4.96 20.453L12 13.414l7.04 7.04C17.131 22.043 14.677 23 12 23s-5.132-.957-7.04-2.547M13.414 12l7.04-7.04C22.043 6.869 23 9.324 23 12s-.957 5.132-2.547 7.04z" clip-rule="evenodd"/></symbol><symbol id="hd-icon-streamline-sharp-email-attachment-image" viewBox="0 0 24 24"><g fill="none" stroke="currentColor" stroke-width="1.5"><path d="M22 23.25V16.5a3.5 3.5 0 1 0-7 0v6h3.5V17"/><path d="M12.5 20H2V2h18v9"/><path d="M12 7.5a2.5 2.5 0 1 0 5 0a2.5 2.5 0 1 0-5 0M2 11h1.169c3.618 0 6.97 1.898 8.831 5"/></g></symbol><symbol id="hd-icon-streamline-sharp-email-attachment-image-remix" viewBox="0 0 24 24"><path fill="currentColor" fill-rule="evenodd" d="M4 0h20v20H12.5v-3.25a7.22 7.22 0 0 0-1.428-4.322L17.25 6.25l4.25 4.25v-8h-15v7.107a7.3 7.3 0 0 0-2.5 0zm8.25 5.75a2 2 0 1 1-4 0a2 2 0 0 1 4 0m-7 5.75A5.25 5.25 0 0 0 0 16.75v4a3.25 3.25 0 0 0 6.5 0v-5H4v5a.75.75 0 0 1-1.5 0v-4a2.75 2.75 0 1 1 5.5 0v7h2.5v-7c0-2.9-2.35-5.25-5.25-5.25" clip-rule="evenodd"/></symbol><symbol id="hd-icon-streamline-sharp-email-attachment-image-solid" viewBox="0 0 24 24"><path fill="currentColor" fill-rule="evenodd" d="M1 1h20v10.044a6.002 6.002 0 0 0-8.383 4.274A15.85 15.85 0 0 0 1 10.25zm11.5 16.48V21H1v-9.25c4.194 0 8.215 1.847 10.921 5.045zM16 8.5a2.5 2.5 0 1 0 0-5a2.5 2.5 0 0 0 0 5m2.5 3.5a4.5 4.5 0 0 0-4.5 4.5v7h5.5V17h-2v4.5H16v-5a2.5 2.5 0 0 1 5 0v6.75h2V16.5a4.5 4.5 0 0 0-4.5-4.5" clip-rule="evenodd"/></symbol><symbol id="hd-icon-streamline-sharp-emergency-call" viewBox="0 0 24 24"><g fill="none" stroke="currentColor" stroke-width="1.5"><path d="M19 5V2h-4v3h-3v4h3v3h4V9h3V5zM4.018 14.36A15.2 15.2 0 0 1 2.07 7.709l4.07-.489l1.433 5.017zm0 0a15.2 15.2 0 0 0 2.48 3.253c.993.992 2.089 1.82 3.254 2.48m0 0a15.2 15.2 0 0 0 6.65 1.949l.488-4.071l-5.017-1.433z"/><path d="M4.018 14.36A15.2 15.2 0 0 1 2.07 7.709l4.07-.489l1.433 5.017zm0 0a15.2 15.2 0 0 0 2.48 3.253c.993.992 2.089 1.82 3.254 2.48m0 0a15.2 15.2 0 0 0 6.65 1.949l.488-4.071l-5.017-1.433z"/></g></symbol><symbol id="hd-icon-streamline-sharp-emergency-call-remix" viewBox="0 0 24 24"><path fill="currentColor" fill-rule="evenodd" d="M20.75 0v3.25H24v4h-3.25v3.25h-4V7.25H13.5v-4h3.25V0zM7.86 5.255l-.293-1.024l-1.058.126l-4.579.549l-1.164.14l.065 1.17c.154 2.78.938 5.534 2.353 8.028a18.4 18.4 0 0 0 2.993 3.926a18.4 18.4 0 0 0 3.926 2.993a18.3 18.3 0 0 0 8.028 2.353l1.17.065l.14-1.164l.549-4.579l.126-1.058l-1.024-.293l-5.642-1.612l-.925-.264l-.492.826l-1.736 2.908a16 16 0 0 1-2.352-1.942a16 16 0 0 1-1.942-2.353l2.907-1.736l.826-.492l-.264-.924zm9.244 15.658a15.8 15.8 0 0 1-4.63-1.338l1.213-2.032l3.694 1.056zM6.804 10.66l-2.032 1.213a15.8 15.8 0 0 1-1.337-4.63l2.313-.277z" clip-rule="evenodd"/></symbol><symbol id="hd-icon-streamline-sharp-emergency-call-solid" viewBox="0 0 24 24"><path fill="currentColor" fill-rule="evenodd" d="M19 2v3h3v4h-3v3h-4V9h-3V5h3V2zm-7.59 13.22l-1.442 2.416a14.3 14.3 0 0 1-3.637-3.637l2.416-1.442l-1.879-6.575l-5.848.7l.051.937a16.2 16.2 0 0 0 2.078 7.089a16.2 16.2 0 0 0 2.643 3.467a16.2 16.2 0 0 0 3.467 2.642a16.2 16.2 0 0 0 7.089 2.078l.936.052l.701-5.848l-6.575-1.88Z" clip-rule="evenodd"/></symbol><symbol id="hd-icon-streamline-sharp-empty-clipboard" viewBox="0 0 24 24"><g fill="none" stroke="currentColor" stroke-width="1.5"><path d="M8 3H3.5v19h17V3H16"/><path d="M8 2h8v4H8z"/></g></symbol><symbol id="hd-icon-streamline-sharp-empty-clipboard-remix" viewBox="0 0 24 24"><path fill="currentColor" fill-rule="evenodd" d="M17 0H7v1.5H2V24h20V1.5h-5zM7 4v1.5h10V4h2.5v17.5h-15V4z" clip-rule="evenodd"/></symbol><symbol id="hd-icon-streamline-sharp-empty-clipboard-solid" viewBox="0 0 24 24"><path fill="currentColor" fill-rule="evenodd" d="M16 1H8v4h8zM6.5 6.5V2.25H2.75v20.5h18.5V2.25H17.5V6.5z" clip-rule="evenodd"/></symbol><symbol id="hd-icon-streamline-sharp-empty-recycle-bin-1" viewBox="0 0 24 24"><g fill="none" stroke="currentColor" stroke-width="1.5"><path d="M1 6h22m-9.5 16H4V6h16v7M8 6a4 4 0 0 1 8 0"/><path d="m16 13l-3 3l3 3"/><path d="M13 16h9v6h-6"/></g></symbol><symbol id="hd-icon-streamline-sharp-empty-recycle-bin-1-remix" viewBox="0 0 24 24"><path fill="currentColor" fill-rule="evenodd" d="M9.879 5a2.25 2.25 0 0 1 4.244 0zm-3.58 0a5.751 5.751 0 0 1 11.404 0H24v3.5h-2.25v2h-2.5v-2H4.75v13h14.5v-5.75H14v2.75h-1.5l-4-4l4-4H14v2.75h7.75V24H2.25V8.5H.001V5z" clip-rule="evenodd"/></symbol><symbol id="hd-icon-streamline-sharp-empty-recycle-bin-1-solid" viewBox="0 0 24 24"><path fill="currentColor" fill-rule="evenodd" d="M12 3a3 3 0 0 0-2.83 2h5.66A3 3 0 0 0 12 3m0-2a5 5 0 0 0-4.9 4H1v2h2v16h11.5v-2.379L9.879 16l5-5H18v2.5h3V7h2V5h-6.1A5 5 0 0 0 12 1m1 14l2.5-2.5h1V15H23v8h-7v-2h5v-4h-4.5v2.5h-1L13 17l-1-1z" clip-rule="evenodd"/></symbol><symbol id="hd-icon-streamline-sharp-end-point-arrow" viewBox="0 0 24 24"><path fill="none" stroke="currentColor" stroke-linecap="square" stroke-width="1.5" d="M2 12h13.622m-1.566 5.296L22 12l-7.944-5.296L15.822 12z"/></symbol><symbol id="hd-icon-streamline-sharp-end-point-arrow-solid" viewBox="0 0 24 24"><path fill="currentColor" fill-rule="evenodd" d="m14.472 17.92l-1.819 1.212l.692-2.073L14.697 13H1v-2h13.698l-1.353-4.059l-.692-2.073l1.82 1.212l7.943 5.296l.936.624l-.936.624z" clip-rule="evenodd"/></symbol><symbol id="hd-icon-streamline-sharp-facebook-1" viewBox="0 0 24 24"><g fill="none" stroke="currentColor" stroke-width="1.5"><path d="M2 2h20v20H2z"/><path d="M17.5 9H15a2 2 0 0 0-2 2v11m-2.5-7.5h6"/></g></symbol><symbol id="hd-icon-streamline-sharp-facebook-1-solid" viewBox="0 0 24 24"><path fill="currentColor" fill-rule="evenodd" d="M1 1h22v22h-8v-6.5h2.5v-3H15V10h4V6h-4a4 4 0 0 0-4 4v3.5H8.5v3H11V23H1z" clip-rule="evenodd"/></symbol><symbol id="hd-icon-streamline-sharp-facebook-logo-1-remix" viewBox="0 0 24 24"><path fill="currentColor" fill-rule="evenodd" d="M.75.75h22.5v22.5H.75zm2.5 2.5v17.5h8v-5H9.5v-3.5h1.75V10A3.75 3.75 0 0 1 15 6.25h3v3.5h-3a.25.25 0 0 0-.25.25v2.25h1.75v3.5h-1.75v5h6V3.25z" clip-rule="evenodd"/></symbol><symbol id="hd-icon-streamline-sharp-feather-pen" viewBox="0 0 24 24"><path fill="none" stroke="currentColor" stroke-width="1.5" d="M2 22L17 7M5.5 11.5v7h7l8-8a4.95 4.95 0 1 0-7-7zm6.5.5h7"/></symbol><symbol id="hd-icon-streamline-sharp-feather-pen-remix" viewBox="0 0 24 24"><path fill="currentColor" fill-rule="evenodd" d="M17.094 2.5c-1.169 0-2.29.464-3.116 1.29L6.25 11.519v4.464L17.117 5.116l1.768 1.768L13.768 12h4.465l1.977-1.977A4.407 4.407 0 0 0 17.094 2.5M3.751 11v7.482L.007 22.226l1.768 1.768l3.743-3.744h8l.367-.366l8.093-8.093a6.907 6.907 0 1 0-9.768-9.768l-8.093 8.093l-.366.366z" clip-rule="evenodd"/></symbol><symbol id="hd-icon-streamline-sharp-feather-pen-solid" viewBox="0 0 24 24"><path fill="currentColor" fill-rule="evenodd" d="M5.5 17.44V11l7.586-7.916a5.538 5.538 0 1 1 7.83 7.83l-.35.336h-4.63l3.72-3.72l-1.061-1.06l-4.78 4.78h-.004l-1.5 1.5h.003l-5.75 5.75h-.003l-4.03 4.03l-1.061-1.06zm3.186 1.06l5.75-5.75H19l-6 5.75z" clip-rule="evenodd"/></symbol><symbol id="hd-icon-streamline-sharp-file-bookmark" viewBox="0 0 24 24"><g fill="none" stroke="currentColor" stroke-width="1.5"><path d="M16 2H3v20h18V7z"/><path d="M7 2v10l3-3l3 3V2"/></g></symbol><symbol id="hd-icon-streamline-sharp-file-bookmark-remix" viewBox="0 0 24 24"><path fill="currentColor" fill-rule="evenodd" d="M3.251 0h-1.25v24h20V5.732l-.366-.366l-5-5L16.269 0zm1.25 21.5v-19h2V12l3.5-3.5l3.5 3.5V2.5h1.732l4.268 4.268V21.5z" clip-rule="evenodd"/></symbol><symbol id="hd-icon-streamline-sharp-file-bookmark-solid" viewBox="0 0 24 24"><path fill="currentColor" fill-rule="evenodd" d="M2 1h14.5L22 6.5V23H2zm3 2v9l3-3l3 3V3z" clip-rule="evenodd"/></symbol><symbol id="hd-icon-streamline-sharp-filter-2" viewBox="0 0 24 24"><path fill="none" stroke="currentColor" stroke-width="1.5" d="M14.5 13.5L22 6V2H2v4l7.5 7.5v8l5-3z"/></symbol><symbol id="hd-icon-streamline-sharp-filter-2-remix" viewBox="0 0 24 24"><path fill="currentColor" fill-rule="evenodd" d="M.751.25h22.5v5.768l-7.5 7.5v5.668l-7.5 4.77V13.518l-7.5-7.5zm2.5 2.5v2.232l7.5 7.5v6.922l2.5-1.59v-5.332l7.5-7.5V2.75z" clip-rule="evenodd"/></symbol><symbol id="hd-icon-streamline-sharp-filter-2-solid" viewBox="0 0 24 24"><path fill="currentColor" fill-rule="evenodd" d="M23 1H1v4.914l8 8v9.39l6-3.75v-5.64l8-8z" clip-rule="evenodd"/></symbol><symbol id="hd-icon-streamline-sharp-fingerprint-2" viewBox="0 0 24 24"><g fill="none" stroke="currentColor" stroke-width="1.5"><path d="M3 11a9 9 0 0 1 15-6.708M3.223 15a9.02 9.02 0 0 0 5.812 6.5M12 22a9 9 0 0 0 9-9v-2a9 9 0 0 0-.706-3.5"/><path d="M9.818 17.5A5 5 0 0 1 7 13v-2a5 5 0 0 1 2.818-4.5M17 13v-2a5 5 0 0 0-5-5m0 12a5 5 0 0 0 4.331-2.5M12 10v4"/></g></symbol><symbol id="hd-icon-streamline-sharp-fingerprint-2-remix" viewBox="0 0 24 24"><path fill="currentColor" fill-rule="evenodd" d="M19.751 10.25a7.75 7.75 0 0 0-7.75-7.75V0c5.66 0 10.25 4.59 10.25 10.25v3.5h-2.5zm-15.5 2v1.5a7.75 7.75 0 0 0 15.308 1.723l2.438.554C20.961 20.59 16.881 24 12.001 24c-5.66 0-10.25-4.59-10.25-10.25v-1.5zM9.724.254C5.16 1.29 1.751 5.37 1.751 10.25h2.5a7.75 7.75 0 0 1 6.027-7.558zM6.85 7.444A5.75 5.75 0 0 1 17.751 10h-2.5a3.25 3.25 0 0 0-6.163-1.444zM15.251 12v2a3.25 3.25 0 0 1-3.25 3.25v2.5a5.75 5.75 0 0 0 5.75-5.75v-2zm-6.5-2v4a3.25 3.25 0 0 0 1.806 2.913l-1.112 2.239A5.75 5.75 0 0 1 6.25 14v-4zm2-1v6h2.5V9z" clip-rule="evenodd"/></symbol><symbol id="hd-icon-streamline-sharp-fingerprint-2-solid" viewBox="0 0 24 24"><path fill="currentColor" fill-rule="evenodd" d="M2 11C2 5.477 6.477 1 12 1c2.56 0 4.898.964 6.667 2.547l-1.334 1.49A8 8 0 0 0 4 11zm2.198 3.779a8.02 8.02 0 0 0 5.166 5.777l-.659 1.888a10.02 10.02 0 0 1-6.457-7.223zm15.175-6.89C19.776 8.844 20 9.895 20 11v2a8 8 0 0 1-8 8v2c5.523 0 10-4.477 10-10v-2c0-1.377-.28-2.692-.785-3.89zM6 11a6 6 0 0 1 3.381-5.4l.874 1.8A4 4 0 0 0 8 11v2a4 4 0 0 0 2.255 3.6l-.874 1.8A6 6 0 0 1 6 13zm6-4a4 4 0 0 1 4 4v2h2v-2a6 6 0 0 0-6-6zm0 10c1.48 0 2.772-.802 3.466-2l1.73 1A6 6 0 0 1 12 19zm-1-7v4h2v-4z" clip-rule="evenodd"/></symbol><symbol id="hd-icon-streamline-sharp-fire-alarm-1" viewBox="0 0 24 24"><g fill="none" stroke="currentColor" stroke-width="1.5"><path d="M10 16a7 7 0 1 1 0-14a7 7 0 0 1 0 14Zm-8 0h16v6.115H2z"/><path d="M8.5 7.5h3v3h-3zM18 18.99h4V6h-3.023"/></g></symbol><symbol id="hd-icon-streamline-sharp-fire-alarm-1-remix" viewBox="0 0 24 24"><path fill="currentColor" fill-rule="evenodd" d="M15.75 9a5.75 5.75 0 1 0-11.5 0a5.75 5.75 0 0 0 11.5 0M10 .75A8.25 8.25 0 0 1 15.662 15H19v2.74h1.75V6.25h-1.773v-2.5h4.273v16.49H19v2.875H1V15h3.338A8.25 8.25 0 0 1 10 .75m-1.75 6.5h3.5v3.5h-3.5z" clip-rule="evenodd"/></symbol><symbol id="hd-icon-streamline-sharp-fire-alarm-1-solid" viewBox="0 0 24 24"><path fill="currentColor" fill-rule="evenodd" d="M10 1a7 7 0 1 1 0 14a7 7 0 0 1 0-14m7.946 16H2.054v6.115h15.892V21H23V5h-4.023v2H21v12h-3.054zM11.5 6.5h-3v3h3z" clip-rule="evenodd"/></symbol><symbol id="hd-icon-streamline-sharp-fire-wall" viewBox="0 0 24 24"><g fill="none" stroke="currentColor" stroke-width="1.5"><path d="m12 2.757l-3 3a4.243 4.243 0 1 0 6.976 1.518A2.5 2.5 0 0 1 12 5.257z"/><path d="M2 13h20v9H2zm13 0v4.5m-6 0V22m-7-4.5h20"/></g></symbol><symbol id="hd-icon-streamline-sharp-fire-wall-remix" viewBox="0 0 24 24"><path fill="currentColor" fill-rule="evenodd" d="M11.357 0h1.894v3.787c0 .786.633 1.413 1.402 1.413c.35 0 .666-.127.912-.34l1.17-1.012l.744 1.356a6.3 6.3 0 0 1-.307 6.546h6.079v4.5h-7v-4.5h-2.5v4.5h-13v-4.5h6.08a6.29 6.29 0 0 1 .749-7.957L10.99.368zM.751 18.75v4.5h7v-4.5zm22.5 4.5h-13v-4.5h13zm-8.6-12.356a3.7 3.7 0 0 1-1.315.856h-2.67a3.7 3.7 0 0 1-1.315-.856a3.785 3.785 0 0 1 0-5.337l1.416-1.421a3.906 3.906 0 0 0 4.926 3.424a3.78 3.78 0 0 1-1.042 3.334" clip-rule="evenodd"/></symbol><symbol id="hd-icon-streamline-sharp-fire-wall-solid" viewBox="0 0 24 24"><path fill="currentColor" fill-rule="evenodd" d="M12.75 5.26V.95L8.47 5.23A4.993 4.993 0 0 0 8.2 12h7.6a5 5 0 0 0 .88-4.984l-.346-.93l-.8.587A1.75 1.75 0 0 1 12.75 5.26M16 13.5h7v4h-7zM1 19h7v4H1zm22 0H9.5v4H23zM1 13.5h13.5v4H1z" clip-rule="evenodd"/></symbol><symbol id="hd-icon-streamline-sharp-flash-timer" viewBox="0 0 24 24"><g fill="none" stroke="currentColor" stroke-width="1.5"><path d="M22.232 18.021a4.188 4.188 0 1 1-8.376 0a4.188 4.188 0 0 1 8.376 0Z"/><path d="M18.045 15.927v2.094h2.094M2.044 13.668l7.16-10.292v4.922h7.16L9.203 18.59v-4.922h-7.16Z"/></g></symbol><symbol id="hd-icon-streamline-sharp-flash-timer-remix" viewBox="0 0 24 24"><path fill="currentColor" fill-rule="evenodd" d="M8.745 0h10.852L18.12 1.994l-2.544 3.435h6.14L19.857 7.51l-3.355 3.758a7.5 7.5 0 0 0-3.305 1.928a7.5 7.5 0 0 0-2.106 4.134l-2.543 2.85l-.373.417H3.28l1.032-1.857l2.99-5.38H.086l1.25-1.93L8.377.57zm1.36 2.5l-5.419 8.36h6.863l-1.031 1.856l-2.212 3.98l7.827-8.767h-5.52l1.477-1.995L14.634 2.5zM24 18.5a5.48 5.48 0 0 1-1.61 3.89A5.5 5.5 0 1 1 24 18.5m-6.5 0v-3h2v2.434l2.015 1.209l-1.03 1.715l-2.5-1.5l-.485-.292z" clip-rule="evenodd"/></symbol><symbol id="hd-icon-streamline-sharp-flash-timer-solid" viewBox="0 0 24 24"><path fill="currentColor" fill-rule="evenodd" d="M18.262 22.999a4.738 4.738 0 1 0 0-9.476a4.738 4.738 0 0 0 0 9.476m.91-7.5h-1.817v3.672h3.277v-1.817h-1.46zm-9.19-8.151v-6.24L1.109 13.863h7.373v6.24l8.873-12.755z" clip-rule="evenodd"/></symbol><symbol id="hd-icon-streamline-sharp-flashlight" viewBox="0 0 24 24"><path fill="none" stroke="currentColor" stroke-width="1.5" d="m6 22l-4-4l7.5-7.5v-4L14 2l8 8l-4.5 4.5h-4zm5.5-17.5l8 8"/></symbol><symbol id="hd-icon-streamline-sharp-flashlight-remix" viewBox="0 0 24 24"><path fill="currentColor" fill-rule="evenodd" d="M14.885 1.116L14 .232l-.884.884l-4.5 4.5l-.366.366v3.5l-7.134 7.134l-.884.884l.884.884l4.5 4.5l.884.884l.884-.884l7.133-7.134h3.5l.367-.366l4.5-4.5l.883-.884l-.883-.884zm3.232 11L20.233 10L14 3.768l-2.116 2.116z" clip-rule="evenodd"/></symbol><symbol id="hd-icon-streamline-sharp-flashlight-solid" viewBox="0 0 24 24"><path fill="currentColor" fill-rule="evenodd" d="M10.47 4.53L9 6v4l-8 8l5 5l8-8h4l1.47-1.47zm1.06-1.06l9 9L23 10l-9-9z" clip-rule="evenodd"/></symbol><symbol id="hd-icon-streamline-sharp-flip-vertical-arrow-2" viewBox="0 0 24 24"><path fill="none" stroke="currentColor" stroke-width="1.5" d="M22.5 12h-3m-3 0h-3m-3 0h-3m-3 0h-3M17 21l-5-5l-5 5zm0-18l-5 5l-5-5z"/></symbol><symbol id="hd-icon-streamline-sharp-flip-vertical-arrow-2-remix" viewBox="0 0 24 24"><path fill="currentColor" fill-rule="evenodd" d="M24 13.25h-4v-2.5h4zM19.916 23l-1.707-1.707l-5.5-5.5l-.707-.707l-.707.707l-5.5 5.5L4.086 23h15.829m0-22l-1.707 1.707l-5.5 5.5l-.707.707l-.707-.707l-5.5-5.5L4.086 1zM0 13.25h4v-2.5H0zm10.667 0h-4v-2.5h4zm2.667 0h4v-2.5h-4z" clip-rule="evenodd"/></symbol><symbol id="hd-icon-streamline-sharp-flip-vertical-arrow-2-solid" viewBox="0 0 24 24"><path fill="currentColor" fill-rule="evenodd" d="m19 2l-7 7l-7-7zm0 20l-7-7l-7 7zm.5-11h3v2h-3zm-3 0h-3v2h3zm-9 0h3v2h-3zm-3 0h-3v2h3z" clip-rule="evenodd"/></symbol><symbol id="hd-icon-streamline-sharp-flip-vertical-square-1" viewBox="0 0 24 24"><path fill="none" stroke="currentColor" stroke-width="1.5" d="M2 10.95h20V2H2zM2 17v-3m8.5 8h-3m6 0h3m5.5-5v-3m0 5v3h-3M2 19v3h3"/></symbol><symbol id="hd-icon-streamline-sharp-flip-vertical-square-1-remix" viewBox="0 0 24 24"><path fill="currentColor" fill-rule="evenodd" d="M.75.75h22.5v12.5H.75zM.75 15v3h2.5v-3zm2.5 5.75H4.5v2.5H.75V19.5h2.5zM6 23.25h3v-2.5H6zm7.5 0h-3v-2.5h3zm1.5 0h3v-2.5h-3zM20.75 18v-3h2.5v3zm2.5 5.25V19.5h-2.5v1.25H19.5v2.5z" clip-rule="evenodd"/></symbol><symbol id="hd-icon-streamline-sharp-flip-vertical-square-1-solid" viewBox="0 0 24 24"><path fill="currentColor" fill-rule="evenodd" d="M23 12V1H1v11zM1 14v3h2v-3zm9.5 7h-3v2h3zm6 0h-3v2h3zm4.5-4v-3h2v3zm0 4h-2v2h4v-4h-2zM1 22v1h4v-2H3v-2H1z" clip-rule="evenodd"/></symbol><symbol id="hd-icon-streamline-sharp-floppy-disk" viewBox="0 0 24 24"><g fill="none" stroke="currentColor" stroke-width="1.5"><path d="M2 2v20h20V8.25L15.75 2z"/><path d="M7 7V2h7v5zm10 7v8H7v-8z"/></g></symbol><symbol id="hd-icon-streamline-sharp-floppy-disk-remix" viewBox="0 0 24 24"><path fill="currentColor" fill-rule="evenodd" d="M.75.75v22.5h22.5V7.732l-.366-.366l-6.25-6.25l-.366-.366zm2.5 2.5H6V8h9V3.25h.232l5.518 5.518V20.75H18V13H6v7.75H3.25z" clip-rule="evenodd"/></symbol><symbol id="hd-icon-streamline-sharp-floppy-disk-solid" viewBox="0 0 24 24"><path fill="currentColor" fill-rule="evenodd" d="M1 23V1h4.75v5.25h8.5V1h1.914L23 7.836V23h-4.75v-8.75H5.75V23zm6.25 0h9.5v-7.25h-9.5zm0-18.25V1h5.5v3.75z" clip-rule="evenodd"/></symbol><symbol id="hd-icon-streamline-sharp-flu-mask" viewBox="0 0 24 24"><g fill="none" stroke="currentColor" stroke-width="1.5"><path d="m6.416 16.297l-4.47-4.245V8.66h4.47m11.169 7.653l4.47-4.261V8.66h-4.47"/><path d="M6.416 16.327a7.894 7.894 0 0 0 11.17 0V8.66H6.415zm3.383-3.83H14.2"/></g></symbol><symbol id="hd-icon-streamline-sharp-flu-mask-remix" viewBox="0 0 24 24"><path fill="currentColor" fill-rule="evenodd" d="M4.626 4.75H0v7.58l.36.365l4.265 4.323v.005l.366.366a9.91 9.91 0 0 0 14.018 0l.366-.366v-.005l4.265-4.323l.36-.365V4.75zm0 2.5v6.209L2.5 11.304V7.25zM21.5 11.304l-2.125 2.154V7.25H21.5zM7.125 7.25v8.715a7.41 7.41 0 0 0 9.75 0V7.25zm2.46 5.305h4.828v-2.5H9.586z" clip-rule="evenodd"/></symbol><symbol id="hd-icon-streamline-sharp-flu-mask-solid" viewBox="0 0 24 24"><path fill="currentColor" fill-rule="evenodd" d="M5.416 7.66H.946v4.819l.31.296l3.735 3.57l.628.6l.09.089a8.894 8.894 0 0 0 12.583 0l.076-.076l.642-.613l3.735-3.57l.31-.296V7.66zm0 2h-2.47v1.964l2.47 2.36zm13.169 0v4.325l2.47-2.36V9.66zM14.2 13.247H9.799v-1.5H14.2z" clip-rule="evenodd"/></symbol><symbol id="hd-icon-streamline-sharp-folder-block" viewBox="0 0 24 24"><g fill="none" stroke="currentColor" stroke-width="1.5"><path d="M22 12V7H12L8 3H2v19h10"/><path d="M22 17.5a4.5 4.5 0 1 1-9 0a4.5 4.5 0 0 1 9 0Zm-1.318 3.182l-6.364-6.364"/></g></symbol><symbol id="hd-icon-streamline-sharp-folder-block-remix" viewBox="0 0 24 24"><path fill="currentColor" fill-rule="evenodd" d="M1.25 0H0v22.5h11.768a7.7 7.7 0 0 1-1.07-2.5H2.5V2.5h4.232l2.634 2.634l.366.366H20v5.198a7.7 7.7 0 0 1 2.5 1.07V3H10.768L8.134.366L7.768 0zm15.762 15.244l4.244 4.245a3.25 3.25 0 0 0-4.244-4.244m2.476 6.012l-4.244-4.244a3.25 3.25 0 0 0 4.244 4.244m-5.304-7.072a5.75 5.75 0 1 1 8.132 8.132a5.75 5.75 0 0 1-8.132-8.132" clip-rule="evenodd"/></symbol><symbol id="hd-icon-streamline-sharp-folder-block-solid" viewBox="0 0 24 24"><path fill="currentColor" fill-rule="evenodd" d="M1.25 2.25h7.06l4 4h10.44v6.62a7 7 0 1 0-9.88 9.88H1.25zM17.5 14c-.603 0-1.17.152-1.665.42l4.744 4.745A3.5 3.5 0 0 0 17.5 14M14 17.5c0-.603.152-1.17.42-1.665l4.745 4.744A3.5 3.5 0 0 1 14 17.5m-2 0a5.5 5.5 0 1 1 11 0a5.5 5.5 0 0 1-11 0" clip-rule="evenodd"/></symbol><symbol id="hd-icon-streamline-sharp-following" viewBox="0 0 24 24"><path fill="none" stroke="currentColor" stroke-width="1.5" d="M10.063 18.5H2v-2.8a17.4 17.4 0 0 1 8.5-2.2c1.556 0 3.064.203 4.5.584M6.5 6.25a4.25 4.25 0 1 0 8.5 0a4.25 4.25 0 1 0-8.5 0M22 18.5h-9m5-4l4 4l-4 4"/></symbol><symbol id="hd-icon-streamline-sharp-following-remix" viewBox="0 0 24 24"><path fill="currentColor" fill-rule="evenodd" d="M9.002 2.5a2.25 2.25 0 1 0 0 4.5a2.25 2.25 0 0 0 0-4.5m-4.75 2.25a4.75 4.75 0 1 1 9.5 0a4.75 4.75 0 0 1-9.5 0M11.5 19.998V16.75h5v-3.486c-.308-.17-.676-.356-1.106-.54c-1.447-.62-3.58-1.224-6.394-1.224s-4.947.604-6.394 1.224a11 11 0 0 0-1.647.863a7 7 0 0 0-.59.423l-.012.01l-.005.004l-.001.001H.35c0 .001-.001.001.65.76l-.651-.758l-.35.299v5.672zM20 16l4 4l-4 4h-1.5v-2.75h-5v-2.5h5V16z" clip-rule="evenodd"/></symbol><symbol id="hd-icon-streamline-sharp-following-solid" viewBox="0 0 24 24"><path fill="currentColor" fill-rule="evenodd" d="M10.75 1.5a4.75 4.75 0 1 0 0 9.5a4.75 4.75 0 0 0 0-9.5M1.514 14.826A18.4 18.4 0 0 1 10.5 12.5c1.914 0 3.762.291 5.5.832V16h-4.5v3.5H1v-4.389zM23 18.5l-4 4h-1.5v-3H13v-2h4.5v-3H19l3 3z" clip-rule="evenodd"/></symbol><symbol id="hd-icon-streamline-sharp-fork-plate" viewBox="0 0 24 24"><g fill="none" stroke="currentColor" stroke-width="1.5"><path d="M6 10.5V22M6 2v5.5M2.5 2v5a3.5 3.5 0 0 0 7 0V2M22 22c-5.523 0-10-4.477-10-10S16.477 2 22 2"/><path d="M22 17a5 5 0 0 1 0-10"/></g></symbol><symbol id="hd-icon-streamline-sharp-fork-plate-remix" viewBox="0 0 24 24"><path fill="currentColor" fill-rule="evenodd" d="M.75 6V0h2.5v6a2.75 2.75 0 0 0 5.5 0V0h2.5v6a5.25 5.25 0 0 1-4 5.1V24h-2.5V11.1a5.25 5.25 0 0 1-4-5.1m13.75 6A9.5 9.5 0 0 1 24 2.5V0c-6.627 0-12 5.373-12 12s5.373 12 12 12v-2.5a9.5 9.5 0 0 1-9.5-9.5M24 6.75a5.25 5.25 0 1 0 0 10.5v2.5a7.75 7.75 0 0 1 0-15.5zM4.75 0v4h2.5V0z" clip-rule="evenodd"/></symbol><symbol id="hd-icon-streamline-sharp-fork-plate-solid" viewBox="0 0 24 24"><path fill="currentColor" fill-rule="evenodd" d="M11 12c0 6.075 4.925 11 11 11v-4.25a6.75 6.75 0 0 1 0-13.5V1c-6.075 0-11 4.925-11 11m5.75 0c0-2.9 2.35-5.25 5.25-5.25v10.5A5.25 5.25 0 0 1 16.75 12M1 2v5.5a4.5 4.5 0 0 0 3.25 4.324V22h2.5V11.824A4.5 4.5 0 0 0 10 7.5V2H8v4.5H6.5V2h-2v4.5H3V2z" clip-rule="evenodd"/></symbol><symbol id="hd-icon-streamline-sharp-fortune-telling-sphere" viewBox="0 0 24 24"><g fill="none" stroke="currentColor" stroke-width="1.5"><path d="m21 22l-1.906-5H4.906L3 22zM7.248 16.622A8.13 8.13 0 0 1 4 10.102C4 5.628 7.582 2 12 2s8 3.628 8 8.102a8.13 8.13 0 0 1-3.284 6.546M12 10.75v-1.5"/><path d="M12 6.506c-2.22 0-3.333 1.75-5 3.5c1.667 1.75 2.78 3.5 5 3.5s3.333-1.75 5-3.5c-1.667-1.75-2.78-3.5-5-3.5Z"/></g></symbol><symbol id="hd-icon-streamline-sharp-fortune-telling-sphere-remix" viewBox="0 0 24 24"><path fill="currentColor" fill-rule="evenodd" d="M12 3.25c-3.82 0-6.942 3.14-6.942 7.047c0 2.2.991 4.161 2.544 5.453h8.796a7.07 7.07 0 0 0 2.544-5.453C18.942 6.39 15.82 3.25 12 3.25m-9.442 7.047a9.6 9.6 0 0 0 1.69 5.453h-.204l-.307.805l-1.905 5l-.646 1.695h21.628l-.646-1.695l-1.906-5l-.306-.805h-.204a9.6 9.6 0 0 0 1.69-5.453C21.442 5.04 17.23.75 12 .75s-9.442 4.29-9.442 9.547m9.45-4.296c-1.268 0-2.213.508-3.038 1.216c-.407.35-.79.752-1.166 1.166l-.364.404c-.26.288-.521.58-.802.874l-.329.345l.329.345c.28.295.542.586.801.875l.365.404c.377.414.759.816 1.166 1.165c.825.709 1.77 1.216 3.037 1.216s2.213-.507 3.038-1.216c.407-.35.789-.751 1.165-1.165q.184-.201.365-.404c.26-.289.52-.58.802-.875l.328-.345l-.328-.345a40 40 0 0 1-.802-.874l-.364-.404a14 14 0 0 0-1.166-1.166c-.825-.708-1.771-1.216-3.038-1.216M13.25 8.75v2.5h-2.5v-2.5z" clip-rule="evenodd"/></symbol><symbol id="hd-icon-streamline-sharp-fortune-telling-sphere-solid" viewBox="0 0 24 24"><path fill="currentColor" d="m22 22.997l-1.906-5H3.906l-1.906 5z"/><path fill="currentColor" fill-rule="evenodd" d="M3.25 10.103c0-4.88 3.909-8.853 8.75-8.853s8.75 3.972 8.75 8.853a8.88 8.88 0 0 1-2.699 6.394H5.95a8.88 8.88 0 0 1-2.699-6.395M12 5.872c-1.299 0-2.265.563-3.114 1.356c-.42.394-.817.848-1.213 1.321l-.381.46c-.274.332-.552.67-.85 1.01l-.217.247l.217.248c.298.34.576.678.85 1.01l.381.46c.396.473.793.927 1.213 1.32c.849.794 1.815 1.358 3.114 1.358s2.265-.564 3.114-1.358c.42-.393.817-.847 1.213-1.32q.19-.228.38-.46h.001c.274-.332.552-.67.85-1.01l.217-.248l-.217-.248c-.298-.34-.576-.677-.85-1.009l-.381-.46a15 15 0 0 0-1.213-1.32c-.849-.794-1.815-1.358-3.114-1.358m1.25 3.144h-2.5v2.5h2.5z" clip-rule="evenodd"/></symbol><symbol id="hd-icon-streamline-sharp-forward-email" viewBox="0 0 24 24"><path fill="none" stroke="currentColor" stroke-width="1.5" d="M14 8.5h-4a8 8 0 0 0-8 8v4a6 6 0 0 1 6-6h6V19h.5l7.5-7.5L14.5 4H14z"/></symbol><symbol id="hd-icon-streamline-sharp-forward-email-remix" viewBox="0 0 24 24"><path fill="currentColor" fill-rule="evenodd" d="M11.5 1.75h2.769l.366.367l8.48 8.5l.88.883l-.88.883l-8.48 8.5l-.366.367H11.5v-5H7.25A4.75 4.75 0 0 0 2.5 21v1H0v-6a9.25 9.25 0 0 1 9.25-9.25h2.25zM2.518 15.507A7.22 7.22 0 0 1 7.25 13.75H14v4.23l6.464-6.48L14 5.02v4.23H9.25a6.75 6.75 0 0 0-6.732 6.257" clip-rule="evenodd"/></symbol><symbol id="hd-icon-streamline-sharp-forward-email-solid" viewBox="0 0 24 24"><path fill="currentColor" fill-rule="evenodd" d="M14.81 3.25h-1.56v4H10A8.75 8.75 0 0 0 1.25 16v4.5h1.5c0-2.9 2.35-5.25 5.25-5.25h5.25v4.5h1.56l8.25-8.25z" clip-rule="evenodd"/></symbol><symbol id="hd-icon-streamline-sharp-fragile" viewBox="0 0 24 24"><g fill="none" stroke="currentColor" stroke-width="1.5"><path d="M12 14.773V22m-5 0h10M5 8V2h14v6A7 7 0 1 1 5 8Z"/><path d="M13 2v4h2v3.5"/></g></symbol><symbol id="hd-icon-streamline-sharp-fragile-remix" viewBox="0 0 24 24"><path fill="currentColor" fill-rule="evenodd" d="M2.75 0h18.5v7.25c0 4.685-3.483 8.556-8 9.166V21.5H18V24H6v-2.5h4.75v-5.084c-4.517-.61-8-4.481-8-9.166zm2.5 2.5v4.75a6.75 6.75 0 0 0 13.5 0V2.5h-4.5V4h2v4.75h-2.5V6.5h-2v-4z" clip-rule="evenodd"/></symbol><symbol id="hd-icon-streamline-sharp-fragile-solid" viewBox="0 0 24 24"><path fill="currentColor" fill-rule="evenodd" d="M12 1v5.5h2.5V10h2V4.5H14V1h6v7a8 8 0 0 1-7 7.938V21h4v2H7v-2h4v-5.062A8 8 0 0 1 4 8V1z" clip-rule="evenodd"/></symbol><symbol id="hd-icon-streamline-sharp-gameboy" viewBox="0 0 24 24"><g fill="none" stroke="currentColor" stroke-width="1.5"><path d="M4 2h16v20H4z"/><path d="M7 5h10v7H7zm2 10v4m2-2H7m10.5-1H16m-.5 2H14"/></g></symbol><symbol id="hd-icon-streamline-sharp-gameboy-remix" viewBox="0 0 24 24"><path fill="currentColor" fill-rule="evenodd" d="M3 0H1.75v24h20.5V0zm1.25 21.5v-19h15.5v19zm13.25-17h-11V12h11zM7.5 16v-1.5H10V16h1.5v2.5H10V20H7.5v-1.5H6V16zm5.5 1.75h2.5v2.5H13zm5-3h-2.5v2.5H18z" clip-rule="evenodd"/></symbol><symbol id="hd-icon-streamline-sharp-gameboy-solid" viewBox="0 0 24 24"><path fill="currentColor" fill-rule="evenodd" d="M20.75 1.25H3.25v21.5h17.5zm-3 3H6.25v8.5h11.5zm-9.625 11v1.625H6.5v1.75h1.625v1.625h1.75v-1.625H11.5v-1.75H9.875V15.25zM18 15h-2v2h2zm-2 3.5h-2v2h2z" clip-rule="evenodd"/></symbol><symbol id="hd-icon-streamline-sharp-gas-station-fuel-petroleum" viewBox="0 0 24 24"><g fill="none" stroke="currentColor" stroke-width="1.5"><path d="M2 4.5h12V22H2zM2 8h12M2 13h12m-3.5 3v3m3.5 1h5a3 3 0 1 0 0-6h-2V8l5-5"/><path d="M20 5v5.5h-3"/></g></symbol><symbol id="hd-icon-streamline-sharp-gas-station-fuel-petroleum-remix" viewBox="0 0 24 24"><path fill="currentColor" fill-rule="evenodd" d="M2 .75H.75v22.5h14.5v-4.006a5.25 5.25 0 0 0 5-5.244V7.25H23v-2.5h-2.45A2.75 2.75 0 0 1 23 3.25V.75A5.25 5.25 0 0 0 17.75 6v8a2.75 2.75 0 0 1-2.5 2.739V.75zM3.25 8.5V3.25h9.5V8.5z" clip-rule="evenodd"/></symbol><symbol id="hd-icon-streamline-sharp-gas-station-fuel-petroleum-solid" viewBox="0 0 24 24"><path fill="currentColor" fill-rule="evenodd" d="M23.207 3.707L21 5.914V11h-2.5v2h.5a4 4 0 1 1 0 8h-4v2H1V3.5h14V19h4a2 2 0 0 0 0-4h-2.5V7.586l.293-.293l5-5zM3 7.5h10V12H3zM9.5 16v3h2v-3z" clip-rule="evenodd"/></symbol><symbol id="hd-icon-streamline-sharp-gender-lesbian-2" viewBox="0 0 24 24"><path fill="none" stroke="currentColor" stroke-width="1.5" d="M6 11a5 5 0 1 0 10 0a5 5 0 1 0-10 0m5 5v7m3.528-15.534l4.95-4.95M8.5 20h5m5.624-13.595L15.59 2.87"/></symbol><symbol id="hd-icon-streamline-sharp-gender-lesbian-2-remix" viewBox="0 0 24 24"><path fill="currentColor" fill-rule="evenodd" d="m17.232 3l-1.116-1.116L17.884.116L19 1.232L20.116.116l1.768 1.768L20.768 3l1.116 1.116l-1.768 1.768L19 4.768l-2.066 2.066a7.252 7.252 0 0 1-4.684 11.309v1.607H14v2.5h-1.75V24h-2.5v-1.75H8v-2.5h1.75v-1.607a7.25 7.25 0 1 1 5.416-13.077zM11 6.25a4.75 4.75 0 1 0 0 9.5a4.75 4.75 0 0 0 0-9.5" clip-rule="evenodd"/></symbol><symbol id="hd-icon-streamline-sharp-gender-lesbian-2-solid" viewBox="0 0 24 24"><path fill="currentColor" fill-rule="evenodd" d="M17.554 3.02L16.31 1.775l-1.414 1.414l1.245 1.246l-1.67 1.67A6 6 0 1 0 10 16.917v2.369H8.238v2H10V23h2v-1.714h1.762v-2H12v-2.369a6.002 6.002 0 0 0 3.886-9.4l1.668-1.668L18.8 7.095l1.415-1.414l-1.246-1.246l1.212-1.213l-1.414-1.414zM11 7a4 4 0 1 0 0 8a4 4 0 0 0 0-8" clip-rule="evenodd"/></symbol><symbol id="hd-icon-streamline-sharp-gift-2" viewBox="0 0 24 24"><path fill="none" stroke="currentColor" stroke-width="1.5" d="M3 12V8h18v4zm1 10V12h16v10zm8-14v14m0-16.5a3 3 0 1 0-6 0m12 0a3 3 0 1 0-6 0"/></symbol><symbol id="hd-icon-streamline-sharp-gift-2-remix" viewBox="0 0 24 24"><path fill="currentColor" fill-rule="evenodd" d="M9 3.75c-.69 0-1.25.56-1.25 1.25h-3.5A4.75 4.75 0 0 1 12 1.317A4.75 4.75 0 0 1 19.75 5h-3.5a1.25 1.25 0 1 0-2.5 0h-3.5c0-.69-.56-1.25-1.25-1.25m-8.25 3h22.5v7.5h-1v9H1.75v-9h-1zm12.5 7.5h6.5v6.5h-6.5zm0-2.5h7.5v-2.5h-7.5zm-2.5-2.5v2.5h-7.5v-2.5zm0 5v6.5h-6.5v-6.5z" clip-rule="evenodd"/></symbol><symbol id="hd-icon-streamline-sharp-gift-2-solid" viewBox="0 0 24 24"><path fill="currentColor" fill-rule="evenodd" d="M9 3.5a2 2 0 0 0-2 2H5a4 4 0 0 1 7-2.646A4 4 0 0 1 19 5.5h-2a2 2 0 1 0-4 0h-2a2 2 0 0 0-2-2M22 7H2v6h20zM3 14.5V23h8.25v-8.5zm9.75 0V23H21v-8.5z" clip-rule="evenodd"/></symbol><symbol id="hd-icon-streamline-sharp-give-gift" viewBox="0 0 24 24"><path fill="none" stroke="currentColor" stroke-width="1.5" d="M13 4h9v7h-9zm2-3l2.5 2.5L20 1m-2.5 3v7M1 22h10.5l9.5-3v-.392a2.61 2.61 0 0 0-3.375-2.493L11.5 18m-5 0h5m0 0v-3l-6.29-.968A3.003 3.003 0 0 0 1.75 17"/></symbol><symbol id="hd-icon-streamline-sharp-give-gift-remix" viewBox="0 0 24 24"><path fill="currentColor" fill-rule="evenodd" d="m16.232 3.5l-1.616-1.616L16.384.116L18.5 2.232L20.616.116l1.768 1.768L20.768 3.5H24V12H13V3.5zM17.25 12V3.5h2.5V12zM4.415 15.5A1.915 1.915 0 0 0 2.5 17.415v.335H0v-.335a4.415 4.415 0 0 1 5.34-4.317l6.672 1.43l.988.212v2.318l4.508-1.387a3.858 3.858 0 0 1 4.992 3.687v1.308l-.874.276l-9.5 3l-.183.058H0v-2.5h11.557l8.35-2.637a1.36 1.36 0 0 0-1.664-.803l-5.953 1.832a2.5 2.5 0 0 1-.72.108H6.75v-2.5h3.75v-.74l-5.684-1.218a2 2 0 0 0-.401-.042" clip-rule="evenodd"/></symbol><symbol id="hd-icon-streamline-sharp-give-gift-solid" viewBox="0 0 24 24"><path fill="currentColor" fill-rule="evenodd" d="m15.586 4l-1.793-1.793L15.207.793L17.5 3.086L19.793.793l1.414 1.414L19.414 4H23v8H12V4zm1.164 8V5h1.5v7zM6.113 13.71A4.356 4.356 0 0 0 1 18v5h9.604L21 20.812V20a2.5 2.5 0 0 0-2.5-2.5h-.76q-.347 0-.684.073l-5.556 1.19v-.013H7v-1.5h4.5v-2.589z" clip-rule="evenodd"/></symbol><symbol id="hd-icon-streamline-sharp-glasses" viewBox="0 0 24 24"><path fill="none" stroke="currentColor" stroke-width="1.5" d="M2 15h8v6H2zm12 0h8v6h-8zm-4 0h4M2 15V2h3m17 13V2h-3"/></symbol><symbol id="hd-icon-streamline-sharp-glasses-remix" viewBox="0 0 24 24"><path fill="currentColor" fill-rule="evenodd" d="M.75.75H7.5v3.5H4.25v9.5h15.5v-9.5H16.5V.75h6.75v22.5h-10.5v-7h-1.5v7H.75zm2.5 15.5v4.5h5.5v-4.5zm12 0v4.5h5.5v-4.5z" clip-rule="evenodd"/></symbol><symbol id="hd-icon-streamline-sharp-glasses-solid" viewBox="0 0 24 24"><path fill="currentColor" fill-rule="evenodd" d="M1 1h4v2H3v11h18V3h-2V1h4v21H13v-6h-2v6H1z" clip-rule="evenodd"/></symbol><symbol id="hd-icon-streamline-sharp-global-learning" viewBox="0 0 24 24"><g fill="none" stroke="currentColor" stroke-width="1.5"><path d="M1.827 10.532a8.765 8.765 0 0 1 17.53 0zm0 0a8.77 8.77 0 0 0 4.967 7.902"/><path d="m9.497 1.767l-2.74 8.765l.97 3.1m3.687-11.865l3.013 8.765m1.441 2.375l-6.39 2.769v.441l6.39 2.77l6.391-2.77v-.441z"/><path d="m12.099 17.625l.006 2.888l3.763 1.764l3.768-1.764v-2.889"/><path stroke-linejoin="round" d="M9.478 20.177v-4.244"/></g></symbol><symbol id="hd-icon-streamline-sharp-global-learning-remix" viewBox="0 0 24 24"><path fill="currentColor" fill-rule="evenodd" d="M9.553 0A9.553 9.553 0 0 0 0 9.553a9.56 9.56 0 0 0 5.718 8.751v-2.831a7.06 7.06 0 0 1-3.108-4.67h2.205l.915 2.515l2.321-.933l-.575-1.582h4.513l3.87-1.556l3.197 1.285q.049-.483.05-.98A9.553 9.553 0 0 0 9.552 0M6.708 3.097A7.06 7.06 0 0 0 2.61 8.303h2.205zm9.787 5.206a7.06 7.06 0 0 0-4.098-5.206l1.893 5.206zm-9.02 0L9.554 2.59l2.077 5.712zm8.384 3.1l.466.187l6.891 2.769l.784.315v1.881l-.784.315l-2.34.94v3.046l.001.795l-.72.337l-3.769 1.764l-.53.248l-.53-.248l-3.763-1.764l-.718-.337l-.001-.793l-.006-3.048l-.622-.25v2.46h-2.5v-5.346l.784-.315l6.891-2.77zm-2.517 7.412l.002 1.246l2.515 1.178l2.518-1.178v-1.246l-2.052.824l-.466.187l-.466-.187z" clip-rule="evenodd"/></symbol><symbol id="hd-icon-streamline-sharp-global-learning-solid" viewBox="0 0 24 24"><g fill="currentColor" fill-rule="evenodd" clip-rule="evenodd"><path d="m23.09 13.924l-6.82-2.956l-6.822 2.956v5.486h1.433v-3.503l5.389 2.335l6.82-2.956zm-11.136 3.983l.006 2.49l4.309 2.02l4.316-2.02v-2.49l-4.039 1.69l-.276.116l-.277-.115l-4.04-1.69Z"/><path d="M6.765 10.561h6.239l-.092.3l-4.897 2.122v1.67zm4.116 6.948l-.368 1.205a9 9 0 0 1-1.065.012v-4.802l2.914-1.262l-1.049 3.433l-.432-.187zm1.9.745a9 9 0 0 1-.693.207l.135-.44zm1.69-.79l-1.835-.796l1.453-4.755l2.18-.944l2.257.977a8.9 8.9 0 0 1-4.054 5.517ZM12.088 1.227a8.9 8.9 0 0 1 6.66 7.9h-4.246zm.916 7.9L10.513.975a9 9 0 0 0-1.257 0L6.765 9.128zm-11.983 0a8.9 8.9 0 0 1 6.66-7.9l-2.414 7.9H1.02Zm6.66 9.333a8.9 8.9 0 0 1-6.66-7.9h4.246z"/></g></symbol><symbol id="hd-icon-streamline-sharp-gold" viewBox="0 0 24 24"><path fill="none" stroke="currentColor" stroke-width="1.5" d="M10.5 20.5H2l2-7h4.5zm11.5 0h-8.5l2-7H20zm-5.75-10h-8.5l2-7h4.5z"/></symbol><symbol id="hd-icon-streamline-sharp-gold-remix" viewBox="0 0 24 24"><path fill="currentColor" fill-rule="evenodd" d="M9.75 1.75h-.943l-.259.907l-2 7l-.455 1.593h11.814l-.455-1.593l-2-7l-.26-.907zm-.343 7l1.286-4.5h2.614l1.286 4.5zm-6.6 4h6.386l.259.907l2 7l.455 1.593H.093l.455-1.593l2-7zm12 0h6.386l.259.907l2 7l.455 1.593H12.093l.455-1.593l2-7z" clip-rule="evenodd"/></symbol><symbol id="hd-icon-streamline-sharp-gold-solid" viewBox="0 0 24 24"><path fill="currentColor" fill-rule="evenodd" d="M14.816 2.75H9.184l-2.428 8.5h10.488zm-5.75 10H3.434l-2.428 8.5h10.489zm11.5 0h-5.632l-2.428 8.5h10.489z" clip-rule="evenodd"/></symbol><symbol id="hd-icon-streamline-sharp-google-drive" viewBox="0 0 24 24"><path fill="none" stroke="currentColor" stroke-width="1.5" d="M16 3H8L1.5 15l4 6H19l3.5-6zm6.5 12H8.688M9 3l7 12M5.5 21l6.563-12.25"/></symbol><symbol id="hd-icon-streamline-sharp-google-drive-logo-remix" viewBox="0 0 24 24"><path fill="currentColor" fill-rule="evenodd" d="M8 1.75h-.745l-.354.655l-6.5 12l-.359.662l.418.626l4 6l.371.557h14.887l.362-.62l3.5-6l.354-.607l-.335-.618l-6.5-12l-.355-.655zM2.958 14.933L8.522 4.661l2.248 3.854l-5.387 10.056zm4.63 4.817h10.694l2.042-3.5H9.463zm3.214-6h3.022l-1.575-2.7zm5.916 0l-5.542-9.5h4.08l5.145 9.5z" clip-rule="evenodd"/></symbol><symbol id="hd-icon-streamline-sharp-google-drive-solid" viewBox="0 0 24 24"><path fill="currentColor" fill-rule="evenodd" d="M22.73 14.5h-6.407l.032-.019L8.777 2H16zM1 15L7.265 3.364l3.517 5.792l-6.154 11.487zm13-.5h.027L14 14.456zm-4.883 2L6.17 22H19l3.143-5.5z" clip-rule="evenodd"/></symbol><symbol id="hd-icon-streamline-sharp-graduation-cap" viewBox="0 0 24 24"><g fill="none" stroke="currentColor" stroke-width="1.5"><path d="M12.955 4.88L3.909 8.8v.625l9.046 3.919L22 9.424V8.8z"/><path d="m7.62 11.592l.009 3.912L12.954 18l5.334-2.496l-.001-3.912"/><path stroke-linejoin="round" d="M3.91 15.335V10"/><path d="m2 17.763l1.91-1.909l1.908 1.91v1.43l-1.909 1.91L2 19.194z"/></g></symbol><symbol id="hd-icon-streamline-sharp-graduation-cap-remix" viewBox="0 0 24 24"><path fill="currentColor" fill-rule="evenodd" d="M13.385 2.077L13 1.917l-.385.16l-10 4.168L2 6.5v9.318L.304 17.464L0 17.758v1.983l.304.295l2.25 2.182l.696.675l.696-.675l2.25-2.182l.304-.295v-1.983l-.304-.294L4.5 15.819V9.541l1.251.521l.01 4.824l.001.757l.672.35l5.99 3.116l.576.3l.577-.3l6-3.116l.673-.35v-5.581l3.135-1.307L24 8.5v-2l-.615-.256zM8.259 14.124l-.006-3.02l4.362 1.819l.385.16l.385-.16l4.364-1.82v3.021l-4.748 2.467z" clip-rule="evenodd"/></symbol><symbol id="hd-icon-streamline-sharp-graduation-cap-solid" viewBox="0 0 24 24"><path fill="currentColor" fill-rule="evenodd" d="m22.75 8.308l-9.795-4.245l-9.796 4.245v7.235l-1.909 1.91v2.053l2.66 2.659l2.658-2.66v-2.052l-1.909-1.91v-4.976l8.296 3.594l9.795-4.244zM6.873 13.157l.007 2.824l6.073 2.847l6.084-2.847v-2.824l-5.784 2.506l-.298.129l-.299-.13z" clip-rule="evenodd"/></symbol><symbol id="hd-icon-streamline-sharp-graph-arrow-user-increase" viewBox="0 0 24 24"><path fill="none" stroke="currentColor" stroke-width="1.5" d="m1 13l7-7l1.5 1.5M22 2l-3.5 3.5m-2-3.5H22v5.5m-10.5 3a3.5 3.5 0 1 0 7 0a3.5 3.5 0 1 0-7 0M22 18.873A13.94 13.94 0 0 0 15 17c-2.55 0-4.94.682-7 1.873V22h14z"/></symbol><symbol id="hd-icon-streamline-sharp-graph-arrow-user-increase-remix" viewBox="0 0 24 24"><path fill="currentColor" fill-rule="evenodd" d="M17.5-.003h6v6l-1 1l-2.116-2.116l-2.656 2.658a6.5 6.5 0 0 0-2.065-1.47l2.953-2.955L16.5.997zM8.509 6.01l.714.7a6.5 6.5 0 0 1 2.472-1.078l-2.32-2.274l-.884-.866l-.875.875l-7.5 7.5l1.768 1.768zM20.65 20.028l-.65.759zh-.002l-.002-.002l-.004-.004l-.01-.009l-.034-.027l-.108-.084a7 7 0 0 0-.386-.267a10 10 0 0 0-1.456-.763c-1.276-.547-3.155-1.078-5.628-1.078s-4.352.53-5.628 1.078a10 10 0 0 0-1.456.763a7 7 0 0 0-.527.378l-.011.01l-.005.003l-.001.001l-.001.001l.65.76l-.651-.76l-.35.3v3.635H21v-3.635zM11 12a2 2 0 1 1 4 0a2 2 0 0 1-4 0m2-4.5a4.5 4.5 0 1 0 0 9a4.5 4.5 0 0 0 0-9" clip-rule="evenodd"/></symbol><symbol id="hd-icon-streamline-sharp-graph-arrow-user-increase-solid" viewBox="0 0 24 24"><path fill="currentColor" fill-rule="evenodd" d="M23.013.991v5.657l-.707.707l-1.947-1.947l-.975.976l-1.768-1.768l.976-.975l-1.943-1.943l.707-.707zM.116 12.116l7-7L8 4.232l.884.884l1.5 1.5l-1.768 1.768L8 7.768l-6.116 6.116zM10.5 10.5a4.5 4.5 0 1 1 9 0a4.5 4.5 0 0 1-9 0m-3 8.007C9.706 17.23 12.27 16.5 15 16.5s5.294.73 7.5 2.007l.5.29V23H7v-4.204z" clip-rule="evenodd"/></symbol><symbol id="hd-icon-streamline-sharp-graph-dot" viewBox="0 0 24 24"><g fill="none" stroke="currentColor" stroke-width="1.5"><path d="M7.97 7.5a2.692 2.692 0 1 1 0 5.383a2.692 2.692 0 0 1 0-5.384ZM18.58 3a2.692 2.692 0 1 1 0 5.383a2.692 2.692 0 0 1 0-5.383Zm-3.742 9.883a2.692 2.692 0 1 1 0 5.384a2.692 2.692 0 0 1 0-5.384ZM2 15.941l3.841-4.102m4.476-.306l2.463 2.298m3.245-.688L17.8 8.265"/><path d="M2 2v20h20"/></g></symbol><symbol id="hd-icon-streamline-sharp-graph-dot-remix" viewBox="0 0 24 24"><path fill="currentColor" fill-rule="evenodd" d="M.75 1v22.25H23v-2.5H3.25v-4.216l3.062-2.935A3.7 3.7 0 0 0 8 14c.745 0 1.44-.217 2.024-.592l1.167.907a3.75 3.75 0 1 0 6.058-1.612l1.316-3.207q.092.004.185.004a3.75 3.75 0 1 0-2.498-.953l-1.316 3.207a3.73 3.73 0 0 0-2.21.588l-1.167-.907a3.75 3.75 0 1 0-6.977.36L3.25 13.07V1zM17 5.75a1.75 1.75 0 1 1 3.5 0a1.75 1.75 0 0 1-3.5 0M8 8.5A1.75 1.75 0 1 0 8 12a1.75 1.75 0 0 0 0-3.5" clip-rule="evenodd"/></symbol><symbol id="hd-icon-streamline-sharp-graph-dot-solid" viewBox="0 0 24 24"><path fill="currentColor" fill-rule="evenodd" d="M3 16.359V21h20v2H1V1h2v12.545l2.287-2.263a3 3 0 1 1 5.592-.437l2.757 2.482a3 3 0 0 1 2.256-.192l2.86-5.148a3 3 0 1 1 1.748.972l-2.995 5.39a3 3 0 1 1-5.246.43l-2.561-2.305A3 3 0 0 1 8 13c-.467 0-.91-.107-1.304-.298z" clip-rule="evenodd"/></symbol><symbol id="hd-icon-streamline-sharp-graphic-template-website-ui" viewBox="0 0 24 24"><g fill="none" stroke="currentColor" stroke-width="1.5"><path d="M21 2H3v20h18z"/><path d="M16.655 14.157a1.655 1.655 0 1 1 0 3.31a1.655 1.655 0 0 1 0-3.31ZM3 19.944l5.383-4.256L17.343 22M12.269 5h-6.27M18 8.344H6m15 3.219H3"/></g></symbol><symbol id="hd-icon-streamline-sharp-graphic-template-website-ui-remix" viewBox="0 0 24 24"><path fill="currentColor" fill-rule="evenodd" d="M20.75 0H22v24H2V0zM8.5 13l-4 4v-7h15v11.5h-2.075zm9.5 1a2 2 0 1 0-4 0a2 2 0 0 0 4 0M10.5 3.75h-5v2.5h5zm3 0h5v2.5h-5z" clip-rule="evenodd"/></symbol><symbol id="hd-icon-streamline-sharp-graphic-template-website-ui-solid" viewBox="0 0 24 24"><path fill="currentColor" fill-rule="evenodd" d="M22 1H2v10h20zm0 12H2v10h20zm-3.5 3.25a1.75 1.75 0 1 0-3.5 0a1.75 1.75 0 0 0 3.5 0M6 3.343h6.269v2h-6.27zm12 3.969H6v2h12zM16.79 21H4v-1.936l4.725-3.72z" clip-rule="evenodd"/></symbol><symbol id="hd-icon-streamline-sharp-hand-held-tablet-drawing" viewBox="0 0 24 24"><g fill="none" stroke="currentColor" stroke-width="1.5"><path d="M6.857 6.857c1.003-1.418 2.93-3.07 4.286-1.714c1.714 1.714-3.78 6.417-1.715 7.714c2.257 1.418 5.595-5.698 7.715-4.285s-2.572 4.285 0 6"/><path d="M3.5 2h18v20h-18zm0 16h18"/></g></symbol><symbol id="hd-icon-streamline-sharp-hand-held-tablet-drawing-remix" viewBox="0 0 24 24"><path fill="currentColor" fill-rule="evenodd" d="M3 0H1.75v24h20.5V0zm1.25 21.5v-19h15.5v19z" clip-rule="evenodd"/></symbol><symbol id="hd-icon-streamline-sharp-hand-held-tablet-drawing-solid" viewBox="0 0 24 24"><path fill="currentColor" fill-rule="evenodd" d="M22 1H2v17.25h20zM2 23v-3.25h20V23zM7.315 8.08c.41-.575.975-1.137 1.504-1.416c.258-.136.448-.174.573-.169c.098.004.21.035.352.176c.003 0 .011.003.014.057c.006.086-.013.247-.102.504c-.184.53-.549 1.158-.982 1.898l-.02.034c-.391.67-.855 1.464-1.075 2.182c-.114.373-.197.827-.104 1.292c.102.511.399.942.865 1.232c1.043.651 2.1.203 2.798-.264c.71-.474 1.421-1.203 2.033-1.83l.015-.015c.663-.679 1.219-1.247 1.715-1.587c.242-.166.398-.226.48-.241c.04-.008.041-.004.043-.001l.001.001c.06.04.091.07.107.088a.1.1 0 0 1 .018.025q.002.002.006.024a.4.4 0 0 1-.001.099c-.025.246-.148.544-.36 1.058l-.037.088c-.195.472-.476 1.161-.464 1.877c.013.835.409 1.582 1.254 2.142l1.104-1.668c-.34-.225-.357-.383-.359-.505c-.004-.242.099-.563.314-1.083l.06-.144c.176-.42.421-1.005.478-1.566a2.2 2.2 0 0 0-.169-1.137a2.27 2.27 0 0 0-.847-.965c-1.034-.685-2.094-.198-2.76.259c-.667.457-1.346 1.154-1.94 1.763l-.074.076c-.658.674-1.222 1.241-1.728 1.579c-.246.164-.413.228-.512.246a.2.2 0 0 1-.079.002l.002-.02a1.3 1.3 0 0 1 .053-.24c.141-.46.475-1.048.91-1.792l.049-.083c.388-.663.844-1.444 1.096-2.169c.251-.726.436-1.812-.392-2.635c-.483-.479-1.061-.729-1.676-.755c-.588-.025-1.134.156-1.592.397c-.902.476-1.686 1.304-2.2 2.026z" clip-rule="evenodd"/></symbol><symbol id="hd-icon-streamline-sharp-hand-washing" viewBox="0 0 24 24"><g fill="none" stroke="currentColor" stroke-width="1.5"><path d="M10.716 19.217h4.608a2 2 0 0 0 2-2v-.966h-7.017"/><path d="m9.273 16.248l4.416.002a2 2 0 0 0 2-2v-.965H9.064v-.163l1.524-1.383a1.388 1.388 0 0 0 0-2.098l-.641-.64l-5.32 2.868A5 5 0 0 0 2 16.269v5.914h12.055c.903 0 1.635-.732 1.635-1.635v-1.331l-6.538-.004m7.318-14.87L18.815 2l2.343 2.343a3.314 3.314 0 1 1-4.686 0Z"/></g></symbol><symbol id="hd-icon-streamline-sharp-hand-washing-remix" viewBox="0 0 24 24"><path fill="currentColor" fill-rule="evenodd" d="m19 2l.613-.79L19 .734l-.613.476zm0 0l-.613-.79l-.002.002l-.004.002l-.01.01l-.04.03l-.14.113a18 18 0 0 0-1.938 1.863c-.529.594-1.08 1.303-1.503 2.069c-.42.759-.75 1.64-.75 2.563C14 10.667 16.207 13 19 13s5-2.332 5-5.138c0-.922-.33-1.804-.75-2.563c-.423-.767-.974-1.475-1.504-2.068a18 18 0 0 0-2.077-1.977l-.04-.03l-.01-.01l-.004-.002l-.001-.001S19.612 1.21 19 2m-1.492 13.67a3.858 3.858 0 0 1 4.992 3.688v1.308l-.874.276l-9.5 3l-.183.058H0v-2.5h11.557l8.35-2.637a1.36 1.36 0 0 0-1.664-.803l-5.953 1.832a2.5 2.5 0 0 1-.72.108H6.75v-2.5h3.75v-.74l-5.684-1.218A1.915 1.915 0 0 0 2.5 17.415v.336H0v-.335a4.415 4.415 0 0 1 5.34-4.317l6.672 1.43l.988.212v2.318z" clip-rule="evenodd"/></symbol><symbol id="hd-icon-streamline-sharp-hand-washing-solid" viewBox="0 0 24 24"><path fill="currentColor" fill-rule="evenodd" d="m18.814.94l.53.53l2.343 2.343a4.064 4.064 0 1 1-5.747 0l2.343-2.343zM13.76 15.144l-3.917.008l-.003 1.18l7.69-.016l-.001.557a2.21 2.21 0 0 1-2.204 2.204l-5.492.012l-.002 1.18l6.115-.013l-.001.558a2.21 2.21 0 0 1-2.204 2.204L1 23.049v-6.936a5 5 0 0 1 2.87-4.524L9.368 9l.381.666a2 2 0 0 1-.674 2.688l-.079.05l6.97-.02l-.001.557a2.21 2.21 0 0 1-2.204 2.204" clip-rule="evenodd"/></symbol><symbol id="hd-icon-streamline-sharp-hanger" viewBox="0 0 24 24"><path fill="none" stroke="currentColor" stroke-width="1.5" d="m2 18.5l10-7l10 7V22H2zm10-7V9L8.5 7V5.5a3.5 3.5 0 1 1 7 0V6"/></symbol><symbol id="hd-icon-streamline-sharp-hanger-remix" viewBox="0 0 24 24"><path fill="currentColor" fill-rule="evenodd" d="M10.75 5a1.25 1.25 0 1 1 2.5 0v1.063l-2.22 1.48l-.78.52v2.482L.64 15.91l-.64.357v5.984h24v-5.984l-.64-.357l-9.61-5.364v-.608l2.22-1.48l.78-.52V5a4.75 4.75 0 1 0-9.5 0v1h3.5zM21.5 19.75v-2.016L12 12.43l-9.5 5.303v2.016z" clip-rule="evenodd"/></symbol><symbol id="hd-icon-streamline-sharp-hanger-solid" viewBox="0 0 24 24"><path fill="currentColor" fill-rule="evenodd" d="M10 5.5a2 2 0 1 1 4 0V6h3v-.5a5 5 0 0 0-10 0v2.37l.756.432L10.5 9.87v.849l-9.36 6.552l-.64.448V23.5h23v-5.781l-.64-.448l-9.36-6.552v-2.59l-.756-.431L10 6.13zm-6.5 15v-1.219l8.5-5.95l8.5 5.95V20.5z" clip-rule="evenodd"/></symbol><symbol id="hd-icon-streamline-sharp-happy-face" viewBox="0 0 24 24"><g fill="none" stroke="currentColor" stroke-width="1.5"><path d="M2 12a10 10 0 1 0 20 0a10 10 0 1 0-20 0m6.5-4v2.5m7-2.5v2.5"/><path d="M15.5 13a3.5 3.5 0 1 1-7 0"/></g></symbol><symbol id="hd-icon-streamline-sharp-happy-face-remix" viewBox="0 0 24 24"><path fill="currentColor" fill-rule="evenodd" d="M2.5 12a9.5 9.5 0 1 1 19 0a9.5 9.5 0 0 1-19 0M12 0C5.373 0 0 5.373 0 12s5.373 12 12 12s12-5.373 12-12S18.627 0 12 0M7.75 7v2.5h2.5V7zm6 0v2.5h2.5V7zm-5.5 5a3.75 3.75 0 1 0 7.5 0h2.5a6.25 6.25 0 1 1-12.5 0z" clip-rule="evenodd"/></symbol><symbol id="hd-icon-streamline-sharp-happy-face-solid" viewBox="0 0 24 24"><path fill="currentColor" fill-rule="evenodd" d="M12 23c6.075 0 11-4.925 11-11S18.075 1 12 1S1 5.925 1 12s4.925 11 11 11M7.5 8v2.5h2V8zm7 0v2.5h2V8zm-5 5a2.5 2.5 0 0 0 5 0h2a4.5 4.5 0 1 1-9 0z" clip-rule="evenodd"/></symbol><symbol id="hd-icon-streamline-sharp-health-care-2" viewBox="0 0 24 24"><path fill="none" stroke="currentColor" stroke-width="1.5" d="M18.152 11.355a3.176 3.176 0 0 1 0 4.492l-.01.01L12 22l-6.144-6.144l-.009-.009a3.173 3.173 0 1 1 4.648-4.314L12 13.039l1.45-1.45a3.176 3.176 0 0 1 4.703-.233ZM8.999 5a3 3 0 1 0 6 0a3 3 0 1 0-6 0"/></symbol><symbol id="hd-icon-streamline-sharp-health-care-2-remix" viewBox="0 0 24 24"><path fill="currentColor" fill-rule="evenodd" d="M10 4.5a2 2 0 1 1 4 0a2 2 0 0 1-4 0M12 0a4.5 4.5 0 1 0 0 9a4.5 4.5 0 0 0 0-9m1.082 10.399a4.422 4.422 0 1 1 6.253 6.253l-.001.002l-.01.009v.001l-6.618 6.618l-.707.707l-.707-.707l-6.619-6.619l-.001-.001l-.008-.008l-.002-.002a4.418 4.418 0 1 1 6.446-6.037l.89.89l.823-.823a4 4 0 0 1 .26-.283" clip-rule="evenodd"/></symbol><symbol id="hd-icon-streamline-sharp-health-care-2-solid" viewBox="0 0 24 24"><path fill="currentColor" fill-rule="evenodd" d="M11.999 1.5a3.5 3.5 0 1 0 0 7a3.5 3.5 0 0 0 0-7m6.683 9.325a3.926 3.926 0 0 0-5.788.258l-.895.895l-.956-.956a3.923 3.923 0 1 0-5.727 5.356l.01.01l1.132 1.131l5.015 5.016l.523.53l5.544-5.546l1.131-1.13l.002-.002l.008-.008l.001-.002a3.926 3.926 0 0 0 0-5.552" clip-rule="evenodd"/></symbol><symbol id="hd-icon-streamline-sharp-hearing-deaf-1" viewBox="0 0 24 24"><g fill="none" stroke="currentColor" stroke-width="1.5"><path d="m1 1l22 22M5.916 5.85A6.73 6.73 0 0 1 18.73 8.73c0 2.105-.96 3.937-3.018 5.951l-.552.539m-9.89 2.512c0 1.884.916 4.268 3.548 4.268s3.674-2.571 3.674-4.268c0 0 .34-.303.978-.899"/><path d="M15.09 8.761a3.09 3.09 0 1 0-6.18 0"/></g></symbol><symbol id="hd-icon-streamline-sharp-hearing-deaf-1-remix" viewBox="0 0 24 24"><path fill="currentColor" fill-rule="evenodd" d="M12 0a8.25 8.25 0 0 0-8.25 8.25h2.5a5.75 5.75 0 0 1 11.5 0a8.4 8.4 0 0 1-2.462 5.945l-3.172 3.171l-.366.366v1.018a2.75 2.75 0 0 1-4.695 1.945l-1.767 1.767a5.25 5.25 0 0 0 8.962-3.695l2.805-2.805A10.9 10.9 0 0 0 20.25 8.25c0-.814-.12-1.616-.351-2.381l3.985-3.985L22.116.116L18.74 3.492A8.25 8.25 0 0 0 12 0m0 4a4.25 4.25 0 0 0-4.25 4.25h2.5a1.75 1.75 0 1 1 3.5 0h2.5A4.25 4.25 0 0 0 12 4M1.884 23.884l11-11l-1.768-1.768l-11 11z" clip-rule="evenodd"/></symbol><symbol id="hd-icon-streamline-sharp-hearing-deaf-1-solid" viewBox="0 0 24 24"><path fill="currentColor" fill-rule="evenodd" d="m15.797 17.211l6.496 6.496l1.414-1.414l-6.466-6.466l.442-.43C19.849 13.277 21 11.203 21 8.731A7.73 7.73 0 0 0 6.468 5.054L1.708.293L.292 1.707l5.414 5.414l-.005.02l10.082 10.083zm-5.661-8.49L8.478 7.065a5.142 5.142 0 0 1 9.932 1.864h-2a3.14 3.14 0 0 0-6.274-.206Zm3.724 12.325c.564-.872.807-1.88.878-2.747l-9.199-9.2v8.633c0 1.021.165 2.31.832 3.372C7.084 22.241 8.3 23 10.088 23c1.814 0 3.042-.826 3.772-1.954" clip-rule="evenodd"/></symbol><symbol id="hd-icon-streamline-sharp-heart-rate-clipboard" viewBox="0 0 24 24"><g fill="none" stroke="currentColor" stroke-width="1.5"><path d="M8 3H3.5v19h17V3H16"/><path d="M8 2h8v4H8zM3.5 14H9l2-3l2.5 6l1.5-3h5.5"/></g></symbol><symbol id="hd-icon-streamline-sharp-heart-rate-clipboard-remix" viewBox="0 0 24 24"><path fill="currentColor" fill-rule="evenodd" d="M7 0h10v1.5h5V24H2V1.5h5zm12.5 4H17v1.5H7V4H4.5v17.5h15zm-8 6.25l-1-1.333l-1 1.333l-1.125 1.5H6.5v2.5h3.125l.375-.5l.5-.667l2 2.667l1 1.333l1-1.333l1.125-1.5H17.5v-2.5h-3.125l-.375.5l-.5.667z" clip-rule="evenodd"/></symbol><symbol id="hd-icon-streamline-sharp-heart-rate-clipboard-solid" viewBox="0 0 24 24"><path fill="currentColor" d="M8 1h8v4H8z"/><path fill="currentColor" fill-rule="evenodd" d="M2.75 2.25H6.5V6.5h11V2.25h3.75v20.5H2.75zm8.942 7.905l-.539-1.294l-.777 1.166l-1.777 2.666H5v1.5h4.401l.223-.334l1.223-1.834l1.96 4.707l.631 1.513l.733-1.466l1.292-2.586H19v-1.5h-4.463l-.208.415l-.767 1.534z" clip-rule="evenodd"/></symbol><symbol id="hd-icon-streamline-sharp-help-chat-2" viewBox="0 0 24 24"><g fill="none" stroke="currentColor" stroke-width="1.5"><path d="M12 22c5.523 0 10-4.477 10-10S17.523 2 12 2S2 6.477 2 12c0 2.413.855 4.627 2.278 6.355L2 22z"/><path d="M8.938 10.056V9.5a3 3 0 1 1 6 0v.556l-3 2.666V14.5m0 2V18"/></g></symbol><symbol id="hd-icon-streamline-sharp-help-chat-2-remix" viewBox="0 0 24 24"><path fill="currentColor" fill-rule="evenodd" d="M12 0A12 12 0 0 0 1.22 17.272l-.707 4.796l-.244 1.656l1.657-.237l4.839-.69A12 12 0 0 0 24 12A12 12 0 0 0 12 0M5.282 5.282A9.5 9.5 0 1 1 7.562 20.4l-.359-.19l-.402.057l-3.57.51l.52-3.536l.06-.407l-.193-.363A9.5 9.5 0 0 1 5.282 5.282M12 7.25A2.25 2.25 0 0 0 9.75 9.5v.5h-2.5v-.5a4.75 4.75 0 0 1 9.5 0v1.075l-.436.374l-3.064 2.626v.925h-2.5v-2.075l.437-.374l3.062-2.625A2.25 2.25 0 0 0 12 7.25M10.75 19v-2.5h2.5V19z" clip-rule="evenodd"/></symbol><symbol id="hd-icon-streamline-sharp-help-chat-2-solid" viewBox="0 0 24 24"><path fill="currentColor" fill-rule="evenodd" d="M1 12C1 5.925 5.925 1 12 1s11 4.925 11 11s-4.925 11-11 11H.196l2.866-4.586A10.95 10.95 0 0 1 1 12m10.938-4.5a2 2 0 0 0-2 2v.556h-2V9.5a4 4 0 1 1 8 0v1.005l-.336.298l-2.664 2.368V14.5h-2v-2.227l.335-.298l2.665-2.369V9.5a2 2 0 0 0-2-2m-1 10.5v-2h2v2z" clip-rule="evenodd"/></symbol><symbol id="hd-icon-streamline-sharp-hide-layer" viewBox="0 0 24 24"><g fill="none" stroke="currentColor" stroke-width="1.5"><path d="M18 18h2V2H10v4"/><path d="M6 6h8v8M1 1l22 22M4 8v14h10v-4"/></g></symbol><symbol id="hd-icon-streamline-sharp-hide-layer-remix" viewBox="0 0 24 24"><path fill="currentColor" fill-rule="evenodd" d="M9.25 0H8v5.75h-.482L1.884.116L.116 1.884L3.982 5.75l2.134 2.134l8 8l2.134 2.134l5.866 5.866l1.768-1.768L19.768 18H22V0zm8.018 15.5H19.5v-13h-9v3.25h5.75v8.732zM2 22.75V6.596l2.5 2.5V21.5h9v-3.404l2.5 2.5V24H2z" clip-rule="evenodd"/></symbol><symbol id="hd-icon-streamline-sharp-hide-layer-solid" viewBox="0 0 24 24"><path fill="currentColor" fill-rule="evenodd" d="m22.293 23.707l-22-22L1.707.293L7.414 6H14.5v7.086l1.5 1.5V4.5H9.5V1h11v17h-1.086l4.293 4.293zM14.5 18L3.5 7v16h11z" clip-rule="evenodd"/></symbol><symbol id="hd-icon-streamline-sharp-hierarchy-16" viewBox="0 0 24 24"><path fill="none" stroke="currentColor" stroke-width="1.5" d="M10.5 7H2V2h8.5zM22 22H11v-4.5h11zm0-7.5H11V10h11zM6 7v12.75h5m-5-7.5h5"/></symbol><symbol id="hd-icon-streamline-sharp-hierarchy-16-remix" viewBox="0 0 24 24"><path fill="currentColor" fill-rule="evenodd" d="M.75.75v6.5h4v14h8v2h10.5v-6.5h-10.5v2h-5.5v-5.5h5.5v2h10.5v-6.5h-10.5v2h-5.5v-3.5h4V.75zm14.5 10.5v1.5h5.5v-1.5zm0 9.5v-1.5h5.5v1.5z" clip-rule="evenodd"/></symbol><symbol id="hd-icon-streamline-sharp-hierarchy-16-solid" viewBox="0 0 24 24"><path fill="currentColor" fill-rule="evenodd" d="M7 7h4V1.5H1V7h4v13.75h6v1.75h12V17H11v1.75H7v-5.5h4V15h12V9.5H11v1.75H7z" clip-rule="evenodd"/></symbol><symbol id="hd-icon-streamline-sharp-hierarchy-2" viewBox="0 0 24 24"><g fill="none" stroke="currentColor" stroke-width="1.5"><path d="M10 3h4v4h-4zm0 14h4v4h-4zm-8 0h4v4H2zm16 0h4v4h-4zM12 7v10"/><path d="M4 17v-5h16v5"/></g></symbol><symbol id="hd-icon-streamline-sharp-hierarchy-2-remix" viewBox="0 0 24 24"><path fill="currentColor" fill-rule="evenodd" d="M8.501 6.998V0H15.5v6.998h-2.25v3.752h8.5v6.252H24V24h-6.998v-6.998h2.248V13.25h-6v3.752h2.249V24H8.5v-6.998h2.249V13.25h-6v3.752h2.248V24H0v-6.998h2.25V10.75h8.5V6.998zm2.5 14.502v-1.998H13V21.5zM2.5 19.502V21.5h1.998v-1.998zM19.502 21.5v-1.998H21.5V21.5z" clip-rule="evenodd"/></symbol><symbol id="hd-icon-streamline-sharp-hierarchy-2-solid" viewBox="0 0 24 24"><path fill="currentColor" fill-rule="evenodd" d="M15 2H9v6h2v3H3v5H1v6h6v-6H5v-3h6v3H9v6h6v-6h-2v-3h6v3h-2v6h6v-6h-2v-5h-8V8h2z" clip-rule="evenodd"/></symbol><symbol id="hd-icon-streamline-sharp-hierarchy-8" viewBox="0 0 24 24"><g fill="none" stroke="currentColor" stroke-width="1.5"><path d="M8 8H2V2h6zm11 8V5h-6.5"/><path d="m15 2l-3 3l3 3M9 22l3-3l-3-3"/><path d="M5 8v11h6.5M22 22h-6v-6h6z"/></g></symbol><symbol id="hd-icon-streamline-sharp-hierarchy-8-remix" viewBox="0 0 24 24"><path fill="currentColor" fill-rule="evenodd" d="M10.5 5L15 .5h1.5v3.25h3.75v11h3v8.5h-8.5v-8.5h3v-8.5H16.5V9.5H15zM8 9.25h1.25V.75H.75v8.5h3v11H7.5v3.25H9l4.5-4.5L9 14.5H7.5v3.25H6.25v-8.5zm-1.25-6v3.5h-3.5v-3.5zm10.5 17.5v-3.5h3.5v3.5z" clip-rule="evenodd"/></symbol><symbol id="hd-icon-streamline-sharp-hierarchy-8-solid" viewBox="0 0 24 24"><path fill="currentColor" fill-rule="evenodd" d="M9 1H2v7h2.5v12.5h4V23h1l3.5-3.5L9.5 16h-1v2.5h-2V8H9zm5.5 7L11 4.5L14.5 1h1v2.5h4V16H22v7h-7v-7h2.5V5.5h-2V8z" clip-rule="evenodd"/></symbol><symbol id="hd-icon-streamline-sharp-hierarchy-line-1" viewBox="0 0 24 24"><path fill="none" stroke="currentColor" stroke-width="1.5" d="M1 12h11m11-9h-7a4 4 0 0 0-4 4v10a4 4 0 0 0 4 4h7"/></symbol><symbol id="hd-icon-streamline-sharp-hierarchy-line-1-remix" viewBox="0 0 24 24"><path fill="currentColor" fill-rule="evenodd" d="M16 .75A5.25 5.25 0 0 0 10.75 6v4.75H1v2.5h9.75V18c0 2.9 2.35 5.25 5.25 5.25h7v-2.5h-7A2.75 2.75 0 0 1 13.25 18V6A2.75 2.75 0 0 1 16 3.25h7V.75z" clip-rule="evenodd"/></symbol><symbol id="hd-icon-streamline-sharp-hierarchy-line-1-solid" viewBox="0 0 24 24"><path fill="currentColor" fill-rule="evenodd" d="M16 1.5A5.5 5.5 0 0 0 10.5 7v3.5H1v3h9.5V17a5.5 5.5 0 0 0 5.5 5.5h7v-3h-7a2.5 2.5 0 0 1-2.5-2.5V7A2.5 2.5 0 0 1 16 4.5h7v-3z" clip-rule="evenodd"/></symbol><symbol id="hd-icon-streamline-sharp-home-1" viewBox="0 0 24 24"><path fill="none" stroke="currentColor" stroke-width="1.5" d="M22 22H2V11l10-9l10 9z"/></symbol><symbol id="hd-icon-streamline-sharp-home-1-remix" viewBox="0 0 24 24"><path fill="currentColor" fill-rule="evenodd" d="m12 .318l11.25 10.125V23.25H.75V10.443zM3.25 11.557v9.193h17.5v-9.193L12 3.682z" clip-rule="evenodd"/></symbol><symbol id="hd-icon-streamline-sharp-home-1-solid" viewBox="0 0 24 24"><path fill="currentColor" fill-rule="evenodd" d="m23 10.555l-11-9.9l-11 9.9V23h22z" clip-rule="evenodd"/></symbol><symbol id="hd-icon-streamline-sharp-horizontal-menu-square" viewBox="0 0 24 24"><g fill="none" stroke="currentColor" stroke-width="1.5"><path d="M2 2h20v20H2z"/><path d="M7.25 11.75h-.5v.5h.5zm5 0h-.5v.5h.5zm5 0h-.5v.5h.5z"/></g></symbol><symbol id="hd-icon-streamline-sharp-horizontal-menu-square-remix" viewBox="0 0 24 24"><path fill="currentColor" fill-rule="evenodd" d="M2 .75H.75v22.5h22.5V.75zm1.25 20V3.25h17.5v17.5zm10.5-10.5h-3.5v3.5h3.5zm1.5 0h3.5v3.5h-3.5zm-6.5 0h-3.5v3.5h3.5z" clip-rule="evenodd"/></symbol><symbol id="hd-icon-streamline-sharp-horizontal-menu-square-solid" viewBox="0 0 24 24"><path fill="currentColor" fill-rule="evenodd" d="M23 1H1v22h22zM8 11H6v2h2zm3 0h2v2h-2zm7 0h-2v2h2z" clip-rule="evenodd"/></symbol><symbol id="hd-icon-streamline-sharp-horizontal-slider-2" viewBox="0 0 24 24"><path fill="none" stroke="currentColor" stroke-width="1.5" d="M1 12h6.5m9 0H23m-13 0a2 2 0 1 0 4 0a2 2 0 1 0-4 0M8.5 4H23M2 4a2 2 0 1 0 4 0a2 2 0 1 0-4 0M1 20h14.5m2.5 0a2 2 0 1 0 4 0a2 2 0 1 0-4 0"/></symbol><symbol id="hd-icon-streamline-sharp-horizontal-slider-2-remix" viewBox="0 0 24 24"><path fill="currentColor" fill-rule="evenodd" d="M3.25 4a1.25 1.25 0 1 1 2.5 0a1.25 1.25 0 0 1-2.5 0M4.5.25a3.75 3.75 0 1 0 3.317 5.5H23v-3.5H7.817A3.75 3.75 0 0 0 4.5.25M10.75 12a1.25 1.25 0 1 1 2.5 0a1.25 1.25 0 0 1-2.5 0m-2.067 1.75H1v-3.5h7.683a3.75 3.75 0 0 1 6.634 0H23v3.5h-7.682a3.75 3.75 0 0 1-6.635 0m7.5 8H1v-3.5h15.183A3.75 3.75 0 0 1 23.25 20a3.75 3.75 0 0 1-7.068 1.75M18.25 20a1.25 1.25 0 1 1 2.5 0a1.25 1.25 0 0 1-2.5 0" clip-rule="evenodd"/></symbol></svg>