<svg xmlns="http://www.w3.org/2000/svg" xmlns:xlink="http://www.w3.org/1999/xlink"><symbol id="hd-icon-catppuccin-java-exception" viewBox="0 0 16 16"><path fill="none" stroke="#ed8796" stroke-linecap="round" stroke-linejoin="round" d="M4 2h8L9 7h3l-6 7V9H4z"/></symbol><symbol id="hd-icon-catppuccin-java-interface" viewBox="0 0 16 16"><path fill="none" stroke="#a6da95" stroke-linecap="round" stroke-linejoin="round" d="M1.5 9.604H8v3.21h3.25v-3.21h3.25V6.396H8v-3.21H4.75v3.21H1.5Z"/><path fill="none" stroke="#a6da95" stroke-linecap="round" stroke-linejoin="round" d="M4.75 9.604V6.396H8v3.208h3.25V6.396"/></symbol><symbol id="hd-icon-catppuccin-java-jar" viewBox="0 0 16 16"><g fill="none" stroke-linecap="round" stroke-linejoin="round"><path stroke="#cad3f5" d="M10.73 8.41c.57 3 1.59 5.83 2.77 7.09c-6.63-3.45-9.76-1.75-10.5 0c-.66-3.4-.54-5.74.09-7.78"/><path stroke="#8087a2" d="M8.5 7c.63.34 1.82 1.07 2.24 1.41c-.54-2.9-.64-5.96-.74-7.91c-2.13.58-5.73 1.98-6.9 7.22c.52-.69 1.72-1.05 2.4-1.22"/><path stroke="#8087a2" d="M5.5 7A1.5 1.5 0 0 0 7 8.5A1.5 1.5 0 0 0 8.5 7A1.5 1.5 0 0 0 7 5.5A1.5 1.5 0 0 0 5.5 7"/></g></symbol><symbol id="hd-icon-catppuccin-java-record" viewBox="0 0 16 16"><path fill="none" stroke="#eed49f" stroke-linecap="round" stroke-linejoin="round" d="M8 14.5a6.5 6.5 0 1 0 0-13a6.5 6.5 0 0 0 0 13"/><path fill="none" stroke="#eed49f" stroke-linecap="round" stroke-linejoin="round" d="M8 10a2 2 0 1 0 0-4a2 2 0 0 0 0 4"/></symbol><symbol id="hd-icon-catppuccin-javascript" viewBox="0 0 16 16"><g fill="none" stroke="#eed49f" stroke-linecap="round" stroke-linejoin="round"><path d="M4.5 11a1.5 1.5 0 0 0 3 0V7.5m5 1.25c0-.69-.537-1.25-1.2-1.25h-.6c-.663 0-1.2.56-1.2 1.25S10.037 10 10.7 10h.6c.663 0 1.2.56 1.2 1.25s-.537 1.25-1.2 1.25h-.6c-.663 0-1.2-.56-1.2-1.25"/><path d="M4 1.5h8c1.385 0 2.5 1.115 2.5 2.5v8c0 1.385-1.115 2.5-2.5 2.5H4A2.495 2.495 0 0 1 1.5 12V4c0-1.385 1.115-2.5 2.5-2.5"/></g></symbol><symbol id="hd-icon-catppuccin-javascript-config" viewBox="0 0 16 16"><g fill="none" stroke-linecap="round" stroke-linejoin="round"><path stroke="#eed49f" d="M9.5 5c-.33-.33-.83-.5-1.5-.5c-1 0-1.5.5-1.5 1s.5 1 1.5 1s1.5.5 1.5 1s-.5 1-1.5 1c-.67 0-1.17-.17-1.5-.5m-2-3.5v3a1 1 0 1 1-2 0"/><path stroke="#eed49f" d="M6.5 11.5h-4a2 2 0 0 1-2-2v-7c0-1.1.9-2 2-2h7a2 2 0 0 1 2 2V7"/><path stroke="#8087a2" d="M11.5 13.5a1 1 0 1 0 0-2a1 1 0 0 0 0 2m1.75-4l1.75 3l-1.75 3h-3.5L8 12.5l1.75-3z"/></g></symbol><symbol id="hd-icon-catppuccin-javascript-map" viewBox="0 0 16 16"><g fill="none" stroke-linecap="round" stroke-linejoin="round"><path stroke="#ed8796" d="M.5 4.06c0 .77.24 1.52.7 2.13l2.24 3.96l.04.08h0c.13.17.32.27.52.27s.36-.09.48-.23h0l.03-.03l.08-.15l2.2-3.88c.46-.61.71-1.37.71-2.15A3.63 3.63 0 0 0 3.88.5C1.95.5.5 2.1.5 4.06"/><path stroke="#ed8796" d="M5.5 4A1.5 1.5 0 0 1 4 5.5A1.5 1.5 0 0 1 2.5 4A1.5 1.5 0 0 1 4 2.5A1.5 1.5 0 0 1 5.5 4"/><path stroke="#eed49f" d="M10 4.5h3.5a2 2 0 0 1 2 2v7a2 2 0 0 1-2 2h-7a2 2 0 0 1-2-2V13"/><path stroke="#eed49f" d="M13.5 9c-.33-.33-.83-.5-1.5-.5c-1 0-1.5.5-1.5 1s.5 1 1.5 1s1.5.5 1.5 1s-.5 1-1.5 1c-.67 0-1.17-.17-1.5-.5m-2-3.5v3a1 1 0 1 1-2 0"/></g></symbol><symbol id="hd-icon-catppuccin-javascript-react" viewBox="0 0 16 16"><g fill="none" stroke="#91d7e3" stroke-linecap="round" stroke-linejoin="round"><path d="M8 10.8c4.14 0 7.5-1.25 7.5-2.8S12.14 5.2 8 5.2S.5 6.45.5 8s3.36 2.8 7.5 2.8"/><path d="M5.52 9.4c2.07 3.5 4.86 5.72 6.23 4.95c1.37-.78.8-4.24-1.27-7.75C8.41 3.1 5.62.88 4.25 1.65c-1.37.78-.8 4.24 1.27 7.75"/><path d="M5.52 6.6c-2.07 3.5-2.64 6.97-1.27 7.75c1.37.77 4.16-1.45 6.23-4.95s2.64-6.97 1.27-7.75C10.38.88 7.59 3.1 5.52 6.6"/><path d="M8.5 8a.5.5 0 0 1-.5.5a.5.5 0 0 1-.5-.5a.5.5 0 0 1 .5-.5a.5.5 0 0 1 .5.5"/></g></symbol><symbol id="hd-icon-catppuccin-javascript-test" viewBox="0 0 16 16"><path fill="none" stroke="#eed49f" stroke-linecap="round" stroke-linejoin="round" d="M12 7.5H4.98M9.5.5l6 6m-4.78-4.75l-8.49 8.48a2.5 2.5 0 1 0 3.54 3.54l8.48-8.49M15.5 12c-.33-.33-.83-.5-1.5-.5c-1 0-1.5.5-1.5 1s.5 1 1.5 1s1.5.5 1.5 1s-.5 1-1.5 1c-.67 0-1.17-.17-1.5-.5m-2-3.5v3a1 1 0 1 1-2 0"/></symbol><symbol id="hd-icon-catppuccin-jest" viewBox="0 0 16 16"><g fill="none" stroke="#ed8796" stroke-linecap="round" stroke-linejoin="round"><path d="M7.5 6L5.56 1.5h9.94l-2 4.5"/><path d="m12.5 6l-2-2.5l-2 2.5m1 1.5h2m2 1.5c1 1-.5 2.75-3 4s-4.5 1.5-6 1.5c-2 0-3-1-3-2.9q0-1.35 1.5-2.1"/><path d="M7.5 9c0 1.5-2 2.5-3 2.5S3 11.25 3 9.5"/><path d="M4.5 8.5a1 1 0 0 1-1 1a1 1 0 0 1-1-1a1 1 0 0 1 1-1a1 1 0 0 1 1 1m5-1A1.5 1.5 0 0 1 8 9a1.5 1.5 0 0 1-1.5-1.5A1.5 1.5 0 0 1 8 6a1.5 1.5 0 0 1 1.5 1.5m5 0A1.5 1.5 0 0 1 13 9a1.5 1.5 0 0 1-1.5-1.5A1.5 1.5 0 0 1 13 6a1.5 1.5 0 0 1 1.5 1.5"/></g></symbol><symbol id="hd-icon-catppuccin-jinja" viewBox="0 0 16 16"><path fill="none" stroke="#ed8796" stroke-linecap="round" stroke-linejoin="round" d="M1.5 1.5c3.78 1.03 8.02 1.54 13 0L13 5c-3.5.75-6.5.75-10 0zm0 6.09C6 8.75 10 8.75 14.5 7.5m-9-1.52v8.52m-3 0h4m3 0h4m-3-8.52v8.52M3.5 8v6.5m9-6.5v6.5"/></symbol><symbol id="hd-icon-catppuccin-json" viewBox="0 0 16 16"><path fill="none" stroke="#eed49f" stroke-linecap="round" stroke-linejoin="round" d="M4.5 2.5H4c-.75 0-1.5.75-1.5 1.5v2c0 1.1-1 2-1.83 2c.83 0 1.83.9 1.83 2v2c0 .75.75 1.5 1.5 1.5h.5m7-11h.5c.75 0 1.5.75 1.5 1.5v2c0 1.1 1 2 1.83 2c-.83 0-1.83.9-1.83 2v2c0 .74-.75 1.5-1.5 1.5h-.5m-6.5-3a.5.5 0 1 0 0-1a.5.5 0 0 0 0 1m3 0a.5.5 0 1 0 0-1a.5.5 0 0 0 0 1m3 0a.5.5 0 1 0 0-1a.5.5 0 0 0 0 1"/></symbol><symbol id="hd-icon-catppuccin-json-schema" viewBox="0 0 16 16"><path fill="none" stroke="#8aadf4" stroke-linecap="round" stroke-linejoin="round" d="M4 15c-2.4-.6-1.6-2.2-1.6-3.8S2.6 8 1 8c1.6 0 1.4-1.6 1.4-3.2S1.6 1.6 4 1m8 0c2.4.6 1.6 2.2 1.6 3.8S13.4 8 15 8c-1.6 0-1.4 1.6-1.4 3.2s.8 3.2-1.6 3.8M4 5.5C5 5.6 5.8 7 5.8 7s1-3 3.2-4m-.4 6c0 .7.5 1.5.9 2m0 0a11 11 0 0 0 1.5 1.8m-1.5-1.7c.8-.8 1.6-1.5 2.5-2.1m-2.5 2L7 14"/></symbol><symbol id="hd-icon-catppuccin-juce" viewBox="0 0 16 16"><g fill="none"><path stroke="#c6a0f6" stroke-linecap="round" stroke-linejoin="round" d="M9 3c-.5-.5-1.5-.5-2 0s.5 1.5 1 2.5c.5-1 1.5-2 1-2.5"/><path stroke="#eed49f" stroke-linecap="round" stroke-linejoin="round" d="M9 13c-.5.5-1.5.5-2 0s.5-1.5 1-2.5c.5 1 1.5 2 1 2.5"/><path stroke="#8bd5ca" stroke-linecap="round" stroke-linejoin="round" d="M3 7c-.5.5-.5 1.5 0 2s1.5-.5 2.5-1c-1-.5-2-1.5-2.5-1"/><path stroke="#f5a97f" stroke-linecap="round" stroke-linejoin="round" d="M13 7c.5.5.5 1.5 0 2s-1.5-.5-2.5-1c1-.5 2-1.5 2.5-1"/><path stroke="#8aadf4" stroke-linecap="round" stroke-linejoin="round" d="M5.2 3.8c-.7 0-1.4.7-1.4 1.4s1.4.7 2.4 1c-.3-1-.3-2.4-1-2.4"/><path stroke="#f5a97f" stroke-linecap="round" stroke-linejoin="round" d="M12.2 10.8c0 .7-.7 1.4-1.4 1.4s-.7-1.4-1-2.4c1 .3 2.4.3 2.4 1"/><path stroke="#ed8796" stroke-linecap="round" stroke-linejoin="round" d="M12.2 5.2c0-.7-.7-1.4-1.4-1.4s-.7 1.4-1 2.4c1-.3 2.4-.3 2.4-1"/><path stroke="#a6da95" stroke-linecap="round" stroke-linejoin="round" d="M5.2 12.2c-.7 0-1.4-.7-1.4-1.4s1.4-.7 2.4-1c-.3 1-.3 2.4-1 2.4"/><circle cx="8" cy="8" r="7" stroke="#a6da95"/><path stroke="#cad3f5" stroke-linejoin="round" d="M7.9 7.9h.2v.2h-.2z"/></g></symbol><symbol id="hd-icon-catppuccin-jule" viewBox="0 0 16 16"><path fill="none" stroke="#8087a2" stroke-linecap="round" stroke-linejoin="round" d="m14 10.74l-6 4.74l-6-4.74V5.26L8 .52l6 4.74Z"/><path fill="none" stroke="#8087a2" stroke-linecap="round" stroke-linejoin="round" d="m2.027 5.31l5.971 5.01l5.971-5.01"/><path fill="none" stroke="#8087a2" stroke-linecap="round" stroke-linejoin="round" d="m2.062 10.46l5.942-5.185l5.941 5.184M8 .75v4.599m0 4.918v4.598"/></symbol><symbol id="hd-icon-catppuccin-julia" viewBox="0 0 16 16"><g fill="none" stroke-linecap="round" stroke-linejoin="round"><path stroke="#a6da95" d="M10.5 5a2.5 2.5 0 1 1-5 0a2.5 2.5 0 0 1 5 0"/><path stroke="#ed8796" d="M6.5 11a2.5 2.5 0 1 1-5 0a2.5 2.5 0 0 1 5 0"/><path stroke="#c6a0f6" d="M14.5 11a2.5 2.5 0 1 1-5 0a2.5 2.5 0 0 1 5 0"/></g></symbol><symbol id="hd-icon-catppuccin-jupyter" viewBox="0 0 16 16"><g fill="none" stroke-linecap="round" stroke-linejoin="round"><path stroke="#8087a2" d="M2.5 2a.5.5 0 0 1-.5.5a.5.5 0 0 1-.5-.5a.5.5 0 0 1 .5-.5a.5.5 0 0 1 .5.5m12 0a.5.5 0 0 1-.5.5a.5.5 0 0 1-.5-.5a.5.5 0 0 1 .5-.5a.5.5 0 0 1 .5.5m-12 12a.5.5 0 0 1-.5.5a.5.5 0 0 1-.5-.5a.5.5 0 0 1 .5-.5a.5.5 0 0 1 .5.5"/><path stroke="#f5a97f" d="M1.5 9.5c1.67 2 3.83 3 6.5 3s4.83-1 6.5-3m-13-3c1.67-2 3.83-3 6.5-3s4.83 1 6.5 3"/></g></symbol><symbol id="hd-icon-catppuccin-just" viewBox="0 0 16 16"><circle cx="8" cy="8" r="6.5" fill="none" stroke="#cad3f5" stroke-linecap="round" stroke-linejoin="round"/><circle cx="8" cy="5" r="1.5" fill="none" stroke="#cad3f5" stroke-linecap="round" stroke-linejoin="round"/><circle cx="8" cy="11" r="1.5" fill="none" stroke="#cad3f5" stroke-linecap="round" stroke-linejoin="round"/></symbol><symbol id="hd-icon-catppuccin-kdl" viewBox="0 0 16 16"><path fill="none" stroke="#91d7e3" stroke-linecap="round" stroke-linejoin="round" d="m6.74 4.996l-1 5.367l2.48.4s2.16.2 2.6-2.262c.44-2.464-1.58-3.184-1.58-3.184z"/><path fill="none" stroke="#f4dbd6" stroke-linecap="round" stroke-linejoin="round" d="M5.54 4.916L2.04 8.06l3.86 2.483M1.5 5.076l.58 6.008"/><path fill="none" stroke="#c6a0f6" stroke-linecap="round" stroke-linejoin="round" d="m11.28 5.357l.32 5.206l2.9-.26"/></symbol><symbol id="hd-icon-catppuccin-key" viewBox="0 0 16 16"><g fill="none" stroke="#cad3f5" stroke-linecap="round" stroke-linejoin="round"><path d="M10 10.5a4.5 4.5 0 1 0-4.02-2.48L1.5 12.5v2h2v-2h2v-2h2l.48-.48c.6.3 1.3.48 2.02.48"/><path d="M12 5a1 1 0 0 1-1 1a1 1 0 0 1-1-1a1 1 0 0 1 1-1a1 1 0 0 1 1 1"/></g></symbol><symbol id="hd-icon-catppuccin-knip" viewBox="0 0 16 16"><path fill="none" stroke="#f5a97f" stroke-linecap="round" stroke-linejoin="round" d="M10.959 1C9.455 3.733 8.516 5.643 7.617 7.97m7.883.673c-2.343-.075-4.137-.184-5.925-.398m-4.76-.792A2.208 2.274 88.787 1 0 .793 5.395a2.208 2.274 88.787 0 0 4.02 2.058m0 0a65.473 67.433 88.787 0 0 2.803.517m-.941 2.617a2.207 2.273 88.787 1 0-.176 4.411a2.207 2.273 88.787 0 0 .176-4.41zm0 0a65.473 67.433 88.787 0 1 .941-2.617"/></symbol><symbol id="hd-icon-catppuccin-kotlin" viewBox="0 0 16 16"><g fill="none" stroke-linecap="round" stroke-linejoin="round"><path stroke="#c6a0f6" d="M2.5 13.5h11L8 8"/><path stroke="#f5a97f" d="M8.03 2.5h5.47l-8 8"/><path stroke="#ed8796" d="M2.5 13.5V8"/><path stroke="#7dc4e4" d="M8 2.5H2.5V8l3-2.5"/></g></symbol><symbol id="hd-icon-catppuccin-laravel" viewBox="0 0 16 16"><g fill="none" stroke="#ed8796" stroke-linecap="round" stroke-linejoin="round"><path d="M12.51 5.49v3.29M9.64 3.89l2.86 1.6l2.74-1.53M6.5 12v3.5m-3-12l3-1.5"/><path d="m3.5 10.5l6-3.5V3.5L12.51 2l2.99 1.5V7l-3.06 1.5L9.5 7"/><path d="m.5 2l3-1.5l3 1.5v6.5"/><path d="M.5 2v10.17l6 3.33l6.02-3.41V8.5L6.5 12.04l-3-1.54v-7z"/></g></symbol><symbol id="hd-icon-catppuccin-latex" viewBox="0 0 16 16"><path fill="none" stroke="#cad3f5" stroke-linecap="round" stroke-linejoin="round" d="M13 12.5h1.5m-.5-4l-3 4m0-4l3 4m-3.5 0h1m2-4l1.1.01m-4.1-.01h1.42m-4.42 4H9m-1.5-2v4m-.86 0h3.66l.2-.5m-3.75-3.5H10l.5.5M2 13.5h3m-1.5-5v5m-2-3.5l.25-1.5h3.5L5.5 10m4-3.5l2-5l2 5m-3-2h2M9 6.5h1m3 0h1m-9.5-5v5m-1-5h2m-2 5H7l.54-.99"/></symbol><symbol id="hd-icon-catppuccin-latte" viewBox="0 0 16 16"><g fill="none" stroke-linecap="round"><path stroke="#eed49f" d="M10.2 4s-1.3-.7-2.5-.7c-1.3 0-1.9.7-1.9 2c0 1.4 2.5 2 2.5 2s1.9.7 1.9 2c0 1.4-.6 2-1.9 2c-1.2 0-2.5-.6-2.5-.6M8.3 2v11.3"/><path stroke="#f5a97f" d="M4 2s-.7 0-1.3.7C2 3.3 2 6 2 6.7C2 7.3.8 7.3.8 8s1.3.7 1.3 1.3c0 .7 0 3.4.6 4c.6.7 1.2.7 1.2.7m8.1 0s.7 0 1.3-.7c.6-.6.6-3.3.6-4c0-.6 1.3-.6 1.3-1.3s-1.3-.7-1.3-1.3c0-.7 0-3.4-.6-4c-.6-.7-1.2-.7-1.2-.7"/></g></symbol><symbol id="hd-icon-catppuccin-lerna" viewBox="0 0 16 16"><g fill="none" stroke="#c6a0f6" stroke-linecap="round" stroke-linejoin="round"><path d="m1 10.3l.6.15l.78.17c.01.01-.14.25-.32.52c-.7 1-.83 1.5-.44 1.5c.12 0 .38-.06.6-.14c.24-.07.67-.11 1.15-.11c.97 0 1.95.24 3.18.8c1.17.53 1.56.65 2.9.93a9 9 0 0 1 1.2.3c.04.04-.05.16-.2.28s.74.17 1.08.13c1.05-.13 1.79-.6 1.8-1.16c.03-.7-.09-1.8-.22-1.88c-.58.6-1.12.59-1.75.63a3.7 3.7 0 0 1-2.05-.48c-.5-.29-1.21-.55-1.6-1.14c-.3-.49-.62-1.28-.56-1.4c.02-.02.13-.02.23.02c.29.11.7.28 2 .11a5.7 5.7 0 0 1 2.46.12c.73.18.62.34 1 .56c.64-1.45.61-1 1.35-1.49c.45-.32.82-.61.81-.67c0-.04-.26-.35-.56-.68c-.47-.52-.6-.6-1.03-.76a8.97 8.97 0 0 1-3.9-2.63C8.58 2.81 8.33 2.54 7.67 2.1a7.3 7.3 0 0 0-2.4-1.06c-.73-.14-.52.1-.21.6c1.11 1.3 1.08 1.34 1.08 2.2c-.11.67-.72.77-1.4.92c-.3.06-.71.05-.91.05c-.3 0-.93-.36-1.27-.73c-.19-.2-.52-.61-.74-.93c-.23-.32-.45-.58-.52-.58"/><path d="M8 5.79c1.27.43 1.34.63 1.76 1.37c.1.17.16.3.15.31l-.25.07c-.33.07-.85.07-1.15 0c-.56-.12-.58-.22-.81-.42a1 1 0 0 1-.3-.42c-.08-.21.04-.47-.04-.68c-.07-.18-.4-.25-.35-.44c.3-.1.78.13 1 .2Z"/></g></symbol><symbol id="hd-icon-catppuccin-less" viewBox="0 0 16 16"><path fill="none" stroke="#8aadf4" stroke-linecap="round" stroke-linejoin="round" d="M4 2.5c-.74 0-1.5.76-1.5 1.5v2c0 1.1-1.1 2-1.83 2c.74 0 1.83.9 1.83 2v2c0 .74.76 1.5 1.5 1.5m1.5-8v5a1 1 0 0 0 1 1H7m4.5-4c0-.69-.59-1-1.25-1h-.5c-.66 0-1.25.56-1.25 1.25S9.09 9 9.75 9h.5c.66 0 1.25.56 1.25 1.25s-.59 1.25-1.25 1.25h-.5c-.66 0-1.25-.31-1.25-1m3.5-8c.74 0 1.5.76 1.5 1.5v2c0 1.1 1.1 2 1.83 2c-.74 0-1.83.9-1.83 2v2c0 .74-.76 1.5-1.5 1.5"/></symbol><symbol id="hd-icon-catppuccin-lib" viewBox="0 0 16 16"><path fill="none" stroke="#cad3f5" stroke-linecap="round" stroke-linejoin="round" d="M2.5 1.5h2a1 1 0 0 1 1 1v11a1 1 0 0 1-1 1h-2a1 1 0 0 1-1-1v-11a1 1 0 0 1 1-1m4 3h1a1 1 0 0 1 1 1v8a1 1 0 0 1-1 1h-1a1 1 0 0 1-1-1v-8a1 1 0 0 1 1-1m3.48.4l1.93-.52a.5.5 0 0 1 .62.35l2.33 8.7a.5.5 0 0 1-.36.6l-1.93.53a.5.5 0 0 1-.61-.36L9.63 5.5a.5.5 0 0 1 .35-.6"/></symbol><symbol id="hd-icon-catppuccin-license" viewBox="0 0 16 16"><path fill="none" stroke="#f5a97f" stroke-linecap="round" stroke-linejoin="round" d="M4.5 13.5h7M8.01 1v12.06M1.5 3.5h3l1.5-1h4l1.5 1h3M.5 10L3 4.48L5.5 10C4 11 2 11 .5 10m10 0L13 4.48L15.5 10c-1.5 1-3.5 1-5 0"/></symbol><symbol id="hd-icon-catppuccin-lint-staged" viewBox="0 0 16 16"><g fill="none" stroke-linecap="round" stroke-linejoin="round"><path stroke="#f5a97f" d="M4.28 8.2c-.01.02.13.2.38.36c.14.08.3.14.45.16m.45-2.92c-.03.02.56.77 1.42.45"/><path stroke="#f5a97f" d="M3.6 10.45a2 2 0 0 1-.05-.2C3.4 9.69 3.5 9 4.4 8.45c-.67-1.23.66-2.56 1.13-2.6c.24 0-.17-2.8 2.84-2.35m.35 1.51c-.16-.14-.97-.54-.35-1.4m2.56 4.72s.1-.33 0-.74a.9.9 0 0 0-.1-.32"/><path stroke="#f5a97f" d="M6.42 11.5h4.96c.6.07 2.03-1.64-.42-3.21c-.56.63-1.12 1.2-2.09 1.05"/><path stroke="#ed8796" d="M14.5 8A6.5 6.5 0 0 1 8 14.5A6.5 6.5 0 0 1 1.5 8A6.5 6.5 0 0 1 8 1.5A6.5 6.5 0 0 1 14.5 8m-11 4.5l9-9"/></g></symbol><symbol id="hd-icon-catppuccin-liquid" viewBox="0 0 16 16"><path fill="none" stroke="#8aadf4" stroke-linecap="round" stroke-linejoin="round" d="M15.5 4.49c-.594 0-1.183-.084-1.7-.365a4.6 4.6 0 0 0-4.434 0c-.93.52-2.08.522-3.013.005a4.2 4.2 0 0 0-2.21-.576a4.2 4.2 0 0 0-2.24.578A2.8 2.8 0 0 1 .5 4.514m15 3.942c-.594 0-1.183-.085-1.7-.366a4.6 4.6 0 0 0-4.434 0c-.93.52-2.08.522-3.013.005a4.2 4.2 0 0 0-2.21-.576a4.2 4.2 0 0 0-2.24.578A2.8 2.8 0 0 1 .5 8.479m15 3.984c-.594 0-1.183-.084-1.7-.366a4.6 4.6 0 0 0-4.434 0c-.93.52-2.08.522-3.013.005a4.2 4.2 0 0 0-2.21-.575a4.2 4.2 0 0 0-2.24.577a2.8 2.8 0 0 1-1.403.382"/></symbol><symbol id="hd-icon-catppuccin-lisp" viewBox="0 0 16 16"><g fill="none" stroke="#ed8796" stroke-linecap="round" stroke-linejoin="round"><path d="M.5 5.06v6.07C.5 12.41.82 13 2.27 13h5.6c1.04 0 1.63-.51 1.63-1.62c0-.85-.2-1.88-1.5-1.88h-.36C6.4 9.5 6 8.77 6 7.75C6 6.81 6.8 6 7.49 6h2.68"/><path d="M3.5 10.5V4.99C3.5 3.89 3.62 3 5 3h9c.97 0 1.5.99 1.5 1.63c.12 1.55-.98 1.62-2.1 2.16c-.58.26-1.4.52-1.4.98V11"/></g></symbol><symbol id="hd-icon-catppuccin-lock" viewBox="0 0 16 16"><path fill="none" stroke="#8087a2" stroke-linecap="round" stroke-linejoin="round" stroke-width="1.744" d="M12.36 7.104c.482 0 .872.39.872.872v5.23c0 .481-.39.871-.872.871H3.639a.87.87 0 0 1-.872-.871v-5.23c0-.482.39-.872.872-.872zm-6.977 0V4.488a2.617 2.617 0 0 1 5.234 0v2.616"/></symbol><symbol id="hd-icon-catppuccin-log" viewBox="0 0 16 16"><g fill="none" stroke="#cad3f5" stroke-linecap="round" stroke-linejoin="round"><path d="M4.5 3.5h9v11h-9z"/><path d="M11.5 3.45V1.5h-9v11h1.95m3.05-5h3m-3 3h3"/></g></symbol><symbol id="hd-icon-catppuccin-lua" viewBox="0 0 16 16"><g fill="none" stroke-linecap="round" stroke-linejoin="round"><path stroke="#cad3f5" d="M10.5 7A1.5 1.5 0 0 1 9 8.5A1.5 1.5 0 0 1 7.5 7A1.5 1.5 0 0 1 9 5.5A1.5 1.5 0 0 1 10.5 7"/><path stroke="#8aadf4" d="M7 2.5a6.5 6.5 0 1 0 0 13a6.5 6.5 0 0 0 0-13m7-2a1.5 1.5 0 1 0 0 3a1.5 1.5 0 0 0 0-3"/></g></symbol><symbol id="hd-icon-catppuccin-lua-check" viewBox="0 0 16 16"><g fill="none" stroke-linecap="round" stroke-linejoin="round"><path stroke="#a6da95" d="m8.25 11.9l2.5 3.6l4.5-6"/><path stroke="#cad3f5" d="M9.417 6.134a1.3 1.3 0 0 1-1.3 1.3a1.3 1.3 0 0 1-1.3-1.3a1.3 1.3 0 0 1 1.3-1.3a1.3 1.3 0 0 1 1.3 1.3"/><path stroke="#8aadf4" d="M6.384 2.234A5.633 5.633 0 1 0 6.5 13.499m5.482-5q.035-.312.035-.632a5.633 5.633 0 0 0-5.633-5.633M12.45.5c-1.733 0-1.733 2.6 0 2.6s1.734-2.6 0-2.6"/></g></symbol><symbol id="hd-icon-catppuccin-lua-client" viewBox="0 0 16 16"><path fill="none" stroke="#8aadf4" stroke-linecap="round" stroke-linejoin="round" d="M15.5 15.5h-7m.8-7h5.4a.8.8 0 0 1 .8.8v3.4a.8.8 0 0 1-.8.8H9.3a.8.8 0 0 1-.8-.8V9.3a.8.8 0 0 1 .8-.8"/><g fill="none" stroke-linecap="round" stroke-linejoin="round" stroke-width="1.001"><path stroke="#cad3f5" d="M9 5.7a1.2 1.2 0 0 1-1.2 1.2a1.2 1.2 0 0 1-1.2-1.2a1.2 1.2 0 0 1 1.2-1.2A1.2 1.2 0 0 1 9 5.7"/><path stroke="#8aadf4" d="M6.2 2.1a5.2 5.2 0 1 0 0 10.4h.3m4.838-6a5.2 5.2 0 0 0-5.139-4.4M11.8.5c-1.6 0-1.6 2.4 0 2.4s1.6-2.4 0-2.4"/></g></symbol><symbol id="hd-icon-catppuccin-lua-rocks" viewBox="0 0 16 16"><g fill="none" stroke-linecap="round" stroke-linejoin="round"><path stroke="#cad3f5" d="M9.868 6.378a.97.97 0 0 1-.97.971a.97.97 0 0 1-.972-.97a.97.97 0 0 1 .971-.972a.97.97 0 0 1 .971.971"/><path stroke="#8aadf4" d="M7.602 3.465a4.208 4.208 0 1 0 0 8.417a4.208 4.208 0 0 0 0-8.417m4.532-1.295a.971.971 0 1 0 0 1.942a.971.971 0 0 0 0-1.942"/></g><path fill="none" stroke="#cad3f5" stroke-linecap="round" stroke-linejoin="round" d="M10.256 1.663L9.046.529L.806 3.312v6.902l5.274 5.275l8.42-2.881V5.845l-.682-.665M8.934.584v1.754M.863 10.13l1.558-.585m11.996 2.867l-1.976-2.032"/></symbol><symbol id="hd-icon-catppuccin-lua-server" viewBox="0 0 16 16"><path fill="none" stroke="#eed49f" stroke-linecap="round" stroke-linejoin="round" d="M8.5 9.5h7v2h-7zm2 0v2m-2 2h7v2h-7zm2 0v2"/><g fill="none" stroke-linecap="round" stroke-linejoin="round" stroke-width="1.001"><path stroke="#cad3f5" d="M9 5.7a1.2 1.2 0 0 1-1.2 1.2a1.2 1.2 0 0 1-1.2-1.2a1.2 1.2 0 0 1 1.2-1.2A1.2 1.2 0 0 1 9 5.7"/><path stroke="#8aadf4" d="M6.2 2.1a5.2 5.2 0 1 0 0 10.4h.3m4.838-6a5.2 5.2 0 0 0-5.139-4.4M11.8.5c-1.6 0-1.6 2.4 0 2.4s1.6-2.4 0-2.4"/></g></symbol><symbol id="hd-icon-catppuccin-lua-test" viewBox="0 0 16 16"><g fill="none" stroke-linecap="round"><path stroke="#8aadf4" d="m10.244 1.75l-8.49 8.48c-2.36 2.36 1.18 5.9 3.54 3.54l.738-.738m5.996-6.004l1.746-1.748M9.024.5l6 6M8.5 7.5H4.504"/><g stroke-linejoin="round"><path stroke="#cad3f5" d="M12.874 11.036a.79.79 0 0 1-.787.788a.79.79 0 0 1-.788-.788a.79.79 0 0 1 .788-.787a.79.79 0 0 1 .787.787"/><path stroke="#8aadf4" d="M11.036 8.674a3.413 3.413 0 1 0 0 6.826a3.413 3.413 0 0 0 0-6.826m3.676-1.05a.788.788 0 1 0 0 1.575a.788.788 0 0 0 0-1.575"/></g></g></symbol><symbol id="hd-icon-catppuccin-luau" viewBox="0 0 16 16"><path fill="none" stroke="#91d7e3" stroke-linejoin="round" d="M4.289 1.5L14.5 4.245L11.777 14.5L1.5 11.711Z"/><path fill="none" stroke="#cad3f5" stroke-linejoin="round" d="m9.2 5l-.7 2.8l2.8.7l.7-2.8z"/></symbol><symbol id="hd-icon-catppuccin-luau-check" viewBox="0 0 16 16"><g fill="none" stroke-linejoin="round"><path stroke="#a6da95" stroke-linecap="round" d="m8.25 11.9l2.5 3.6l4.5-6"/><path stroke="#91d7e3" stroke-linecap="round" d="M6.508 12.274L.75 10.71L3.539.5L13.75 3.245l-1.396 5.257"/><path stroke="#cad3f5" d="m8.45 4l-.7 2.8l2.8.7l.7-2.8z"/></g></symbol><symbol id="hd-icon-catppuccin-luau-client" viewBox="0 0 16 16"><path fill="none" stroke="#8aadf4" stroke-linecap="round" stroke-linejoin="round" d="M15.5 15.5h-7m.8-7h5.4a.8.8 0 0 1 .8.8v3.4a.8.8 0 0 1-.8.8H9.3a.8.8 0 0 1-.8-.8V9.3a.8.8 0 0 1 .8-.8"/><g fill="none" stroke-linejoin="round"><path stroke="#91d7e3" stroke-linecap="round" d="M6.5 11.418L1 9.925L3.574.5L13 3.033L12.08 6.5"/><path stroke="#cad3f5" d="m8.107 3.73l-.646 2.585l2.585.646l.646-2.584Z"/></g></symbol><symbol id="hd-icon-catppuccin-luau-config" viewBox="0 0 16 16"><g fill="none" stroke-linejoin="round"><path stroke="#8087a2" stroke-linecap="round" d="M11.75 13.5a1 1 0 1 0 0-2a1 1 0 0 0 0 2m1.75-4l1.75 3l-1.75 3H10l-1.75-3l1.75-3z"/><path stroke="#91d7e3" stroke-linecap="round" d="M6.5 11.486L.75 9.926L3.324.5l9.426 2.533L11.564 7.5"/><path stroke="#cad3f5" d="m7.857 3.73l-.646 2.585l2.585.646l.646-2.584z"/></g></symbol><symbol id="hd-icon-catppuccin-luau-server" viewBox="0 0 16 16"><path fill="none" stroke="#eed49f" stroke-linecap="round" stroke-linejoin="round" d="M8.5 9.5h7v2h-7zm2 0v2m-2 2h7v2h-7zm2 0v2"/><g fill="none" stroke-linejoin="round"><path stroke="#91d7e3" stroke-linecap="round" d="M6.5 11.418L1 9.925L3.574.5L13 3.033L12.08 6.5"/><path stroke="#cad3f5" d="m8.107 3.73l-.646 2.585l2.585.646l.646-2.584Z"/></g></symbol><symbol id="hd-icon-catppuccin-luau-test" viewBox="0 0 16 16"><path fill="none" stroke="#91d7e3" stroke-linecap="round" d="m10.244 1.75l-8.49 8.48c-2.36 2.36 1.18 5.9 3.54 3.54L6 13.063m6.494-6.502l1.28-1.281M9.024.5l6 6M7.5 7.5H4.504"/><path fill="none" stroke="#91d7e3" stroke-linejoin="round" d="M9.314 7.624L15.5 9.287L13.85 15.5l-6.226-1.69Z"/><path fill="none" stroke="#cad3f5" stroke-linejoin="round" d="m11.482 9.98l-.463 1.854l1.853.464l.464-1.854z"/></symbol><symbol id="hd-icon-catppuccin-macos" viewBox="0 0 16 16"><path fill="none" stroke="#8aadf4" stroke-linecap="round" stroke-linejoin="round" d="M4.656 4.222v1.026"/><path fill="none" stroke="#91d7e3" stroke-linecap="round" stroke-linejoin="round" d="M9.463 14.258H.522V1.785H9.15"/><path fill="none" stroke="#cad3f5" stroke-linecap="round" stroke-linejoin="round" d="M10.952 4.222v1.026"/><path fill="none" stroke="#8aadf4" stroke-linecap="round" stroke-linejoin="round" d="M3.038 10.4c2.568 1.23 5.46 1.078 6.018 1.035"/><path fill="none" stroke="#cad3f5" stroke-linecap="round" stroke-linejoin="round" d="M9.056 11.435a11.1 11.1 0 0 0 3.91-1.035"/><path fill="none" stroke="#8aadf4" stroke-linecap="round" stroke-linejoin="round" d="M9.15 1.785h6.372v12.473H9.463"/><path fill="none" stroke="#cad3f5" stroke-linecap="round" stroke-linejoin="round" d="M10.045.531S7.242 3.354 6.65 8.861h2.585s-.829 3.71.671 6.67"/></symbol><symbol id="hd-icon-catppuccin-makefile" viewBox="0 0 16 16"><g fill="none" stroke-linecap="round" stroke-linejoin="round"><path stroke="#f5a97f" d="m9.24 8.47l-5.28 5.58c-.56.6-1.47.6-2.04 0a1.57 1.57 0 0 1 0-2.14L7.2 6.32"/><path stroke="#cad3f5" d="m13.74 8.03l-.86-.93a2.46 2.46 0 0 1-.64-1.68v-.65l-1.89-2.04A3.7 3.7 0 0 0 7.63 1.5H5.5l.64.61A4.72 4.72 0 0 1 7.5 5.57v1.16l1.46 1.5h1.71l1.57 1.42m-.74.85l3-3"/></g></symbol><symbol id="hd-icon-catppuccin-mantle" viewBox="0 0 16 16"><path fill="none" stroke="#f5a97f" stroke-linecap="round" stroke-linejoin="round" d="M7.013 9.08V4.814q0-.361-.152-.595q-.13-.255-.456-.573q-.326-.32-.521-.32q-.434 0-1.151.85q.065.532.065 1.126v4.78H1.802V6.534q0-1.807-.26-2.529Q1.303 3.283.5 2.285L3.105.5q.695.489.999 1.168Q5.666.5 6.318.5t2.453 1.636Q10.573.5 11.31.5q.543 0 1.845 1.126q1.325 1.104 1.65 1.572q.326.446.326 1.19v5.693h-2.996V4.813q0-.404-.152-.616q-.152-.234-.521-.552q-.347-.32-.63-.32q-.26 0-.847.702q.022.105.022.361v4.693Zm-5.21 2.918h2.995l.317.929c.12.352.03.74-.23 1.006l-1.492 1.532a.13.13 0 0 1-.185 0l-1.492-1.532a.98.98 0 0 1-.23-1.006zm5.21-1h2.995l.317.93c.119.351.03.74-.23 1.005l-1.492 1.532a.13.13 0 0 1-.185 0l-1.492-1.532a.98.98 0 0 1-.23-1.006Zm5.123 1h2.996l.316.929c.12.352.03.74-.23 1.006l-1.492 1.532a.13.13 0 0 1-.184 0l-1.493-1.532a.98.98 0 0 1-.23-1.006z"/></symbol><symbol id="hd-icon-catppuccin-markdown" viewBox="0 0 16 16"><path fill="none" stroke="#7dc4e4" stroke-linecap="round" stroke-linejoin="round" d="m9.25 8.25l2.25 2.25l2.25-2.25M3.5 11V5.5l2.04 3l1.96-3V11m4-.5V5M1.65 2.5h12.7c.59 0 1.15.49 1.15 1v9c0 .51-.56 1-1.15 1H1.65c-.59 0-1.15-.49-1.15-1V3.58c0-.5.56-1.08 1.15-1.08"/></symbol><symbol id="hd-icon-catppuccin-markdown-mdx" viewBox="0 0 16 16"><path fill="none" stroke="#f5a97f" stroke-linecap="round" stroke-linejoin="round" d="m9.25 8.25l2.25 2.25l2.25-2.25M3.5 11V5.5l2.04 3l1.96-3V11m4-.5V5M1.65 2.5h12.7c.59 0 1.15.49 1.15 1v9c0 .51-.56 1-1.15 1H1.65c-.59 0-1.15-.49-1.15-1V3.58c0-.5.56-1.08 1.15-1.08"/></symbol><symbol id="hd-icon-catppuccin-marko" viewBox="0 0 16 16"><g fill="none" stroke-linecap="round" stroke-linejoin="round"><path stroke="#ed8796" d="m12 13.5l3.5-5l-3.5-6"/><path stroke="#8aadf4" d="m4 2.5l-3.47 6l3.47 5"/><path stroke="#8bd5ca" d="M6.43 8.5L4 2.5"/><path stroke="#a6da95" d="m9 2.5l-2.57 6"/><path stroke="#eed49f" d="m9 13.5l3.51-5L9 2.5"/></g></symbol><symbol id="hd-icon-catppuccin-matlab" viewBox="0 0 16 16"><g fill="none" stroke-linecap="round" stroke-linejoin="round"><path stroke="#7dc4e4" d="M4 11L.5 8.5L5 7q.78-1.77 1.89-1.89c.74-.07 1.94-1.28 3.61-3.61M5 7l1.5 1.5"/><path stroke="#f5a97f" d="m15.5 12.5l-5-11C8.5 6.83 6.33 10 4 11c1.67-.33 2.67.83 3 3.5c3.5-1.5 3.5-3.5 5-4s1.5 1.5 3.5 2"/></g></symbol><symbol id="hd-icon-catppuccin-mdbook" viewBox="0 0 16 16"><path fill="none" stroke="#cad3f5" stroke-linecap="round" stroke-linejoin="round" d="m15.5 4.39l-2.794 8.978s-.399 1.464-1.596 1.464H2.33S.5 14.233.5 13.002c0-1.23 4.024-11.207 4.024-11.207s.177-.627 1.087-.627s7.095.029 7.095.029s1.597-.067 1.098 1.097c-.5 1.164-2.76 9.212-2.76 9.212s-.2 1.13-1.331 1.13s-9.02-.107-9.02-.107"/><path fill="none" stroke="#cad3f5" stroke-linecap="round" stroke-linejoin="round" d="m5.977 5.964l1.166-3.316l.714 2.85l2.49-2.693l-.943 3.402M5.538 7.712l-1.035 3.08s3.55.687 4.098-1.125s-3.063-1.955-3.063-1.955"/></symbol><symbol id="hd-icon-catppuccin-mermaid" viewBox="0 0 16 16"><path fill="none" stroke="#c6a0f6" stroke-linecap="round" stroke-linejoin="round" d="M1.5 2.5c0 6 2.25 5.75 4 7c.83.67 1.17 2 1 4h3c-.17-2 .17-3.33 1-4c1.75-1.25 4-1 4-7C12 2.5 10 3 8 7C6 3 4 2.5 1.5 2.5"/></symbol><symbol id="hd-icon-catppuccin-meson" viewBox="0 0 16 16"><g fill="none" stroke="#c6a0f6" stroke-linecap="round" stroke-linejoin="round"><path d="M8 1.5C4 3.75 1.5 8 1.5 12.74C5 15 11 15 14.5 12.75C14.5 8 12 3.75 8 1.5"/><path d="M10.43 8.55c-.11.74-.8 1.95-1.67 2.74c.12.18.18.39.18.6c-.55.3-1.09-.03-1.74-.62a5.77 5.77 0 0 1-1.6-2.96a.9.9 0 0 1-.6-.14c.05-.68.73-1.08 1.34-1.32a5.8 5.8 0 0 1 3.29.1c.08-.2.23-.35.4-.45c.58.4.5 1.38.4 2.05"/></g></symbol><symbol id="hd-icon-catppuccin-midi" viewBox="0 0 16 17"><g fill="none" stroke="#cad3f5"><path d="M5.1 1.3a7.5 7.5 0 1 0 5.8 0c-.7-.3-1.4.3-1.4 1c0 .2-.2.4-.5.4H7a.5.5 0 0 1-.5-.5c0-.6-.7-1.2-1.4-.9Z"/><path d="M5.5 11.7a.5.5 0 1 1-1 0a.5.5 0 0 1 1 0Zm6 0a.5.5 0 1 1-1 0a.5.5 0 0 1 1 0ZM4 9.2a.5.5 0 1 1-1 0a.5.5 0 0 1 1 0Zm9 0a.5.5 0 1 1-1 0a.5.5 0 0 1 1 0Zm-4.5 4a.5.5 0 1 1-1 0a.5.5 0 0 1 1 0Z"/></g></symbol><symbol id="hd-icon-catppuccin-mjml" viewBox="0 0 16 16"><path fill="none" stroke="#f5a97f" stroke-linecap="round" stroke-linejoin="round" d="M13.5 4.5a1 1 0 1 0 0-2a1 1 0 0 0 0 2m-11-2h7a1 1 0 0 1 0 2h-7a1 1 0 1 1 0-2m11 12a1 1 0 1 0 0-2a1 1 0 0 0 0 2m-11-2h7a1 1 0 0 1 0 2h-7a1 1 0 0 1 0-2m0-3a1 1 0 1 0 0-2a1 1 0 0 0 0 2m4-2h7a1 1 0 0 1 0 2h-7a1 1 0 1 1 0-2"/></symbol><symbol id="hd-icon-catppuccin-modernizr" viewBox="0 0 16 16"><path fill="none" stroke="#f5bde6" stroke-linecap="round" stroke-linejoin="round" d="M1.5 14.5h12v-12h-4v4h-4v4h-4zm8 0v-8m-4 8v-4"/></symbol><symbol id="hd-icon-catppuccin-moonrepo" viewBox="0 0 16 16"><path fill="none" stroke="#c6a0f6" stroke-linecap="round" stroke-linejoin="round" d="M9.192 2.649A6.587 6.587 0 0 0 .5 8.889a6.59 6.59 0 0 0 6.585 6.584a6.59 6.59 0 0 0 6.302-8.498"/><circle cx="12.509" cy="3.519" r="2.991" fill="none" stroke="#b7bdf8" stroke-linecap="round" stroke-linejoin="round"/></symbol><symbol id="hd-icon-catppuccin-moonwave" viewBox="0 0 16 16"><path fill="none" stroke="#91d7e3" stroke-linejoin="round" d="M6 7.2c-.9 1.6-1.4 3.5-5.3 3.2c4 2 6.2-.4 7.3-1.7c.6 1.5 2 1 2.6.9c1 1.7 2.4 1.5 4.7.9c-1.8.2-3.1-.6-3.2-1.4c-.2-.7.2-1.5 1.3-2.2c-1.3-.3-2 .2-3 1.2c-.9-1.2.5-2.5 1.7-3c-2-.4-4.5-.8-6.1 2.1Z"/></symbol><symbol id="hd-icon-catppuccin-ms-excel" viewBox="0 0 16 16"><g fill="none" stroke="#a6da95" stroke-linecap="round" stroke-linejoin="round"><path d="M2.5 3.13c0-.77.86-1.63 1.62-1.63h9.76c.76 0 1.62.86 1.62 1.63v9.75c0 .76-.86 1.62-1.62 1.62H4.13c-.77 0-1.63-.86-1.63-1.62M.5 5.5l4 5m0-5l-4 5"/><path d="M7.5 5.5h5v5h-5zm2 0v5m-2-3h5"/></g></symbol><symbol id="hd-icon-catppuccin-ms-powerpoint" viewBox="0 0 16 16"><g fill="none" stroke="#f5a97f" stroke-linecap="round" stroke-linejoin="round"><path d="M2.5 3.13c0-.77.86-1.63 1.62-1.63h9.76c.76 0 1.62.86 1.62 1.63v9.75c0 .76-.86 1.62-1.62 1.62H4.13c-.77 0-1.63-.86-1.63-1.62"/><path d="M7.5 5.8L11.88 8L7.5 10.2zm-7-.3v5m0-2H2a1.5 1.5 0 0 0 0-3H.5"/></g></symbol><symbol id="hd-icon-catppuccin-ms-word" viewBox="0 0 16 16"><g fill="none" stroke="#8aadf4" stroke-linecap="round" stroke-linejoin="round"><path d="M2.5 3.13c0-.77.86-1.63 1.62-1.63h9.76c.76 0 1.62.86 1.62 1.63v9.75c0 .76-.86 1.62-1.62 1.62H4.13c-.77 0-1.63-.86-1.63-1.62"/><path d="m.5 5.5l1 5l1-5l1 5l.97-5m3.03 1h4m-4 3h4"/></g></symbol><symbol id="hd-icon-catppuccin-msbuild" viewBox="0 0 16 16"><g fill="none" stroke-linecap="round" stroke-linejoin="round"><path stroke="#b7bdf8" d="M8.995 7.427a2 2 0 0 1-1.99 0l-1.659-.954l-.663-.38l-.664-.384l-2.388-1.375c-.17.294-.266.638-.266.995v5.342c0 .704.372 1.356.982 1.71l.013.01l1.66.955V9.338a.33.33 0 0 1 .497-.286l.166.095l.663.38l1.658.955a2 2 0 0 0 1.991 0l1.161-.668a.99.99 0 0 0 .498-.86v-2.48z"/><path stroke="#b7bdf8" d="m10.654 6.473l-1.659.954a2 2 0 0 1-1.99 0l-1.659-.954l-.663-.38l-.664-.384l-2.388-1.375a2 2 0 0 1 .73-.724L7.003.939a2 2 0 0 1 1.99 0l1.656.952l-3.48 2.005a.33.33 0 0 0 0 .572z"/><path stroke="#c6a0f6" d="m14.37 4.334l-2.39 1.375l-2.156-1.241a.33.33 0 0 1 0-.572l.827-.477l1.33-.764l1.659.955q.006.006.013.01a2 2 0 0 1 .716.714z"/><path stroke="#c6a0f6" d="m14.37 4.334l-2.39 1.375v4.01a.99.99 0 0 1-.495.859l-2.49 1.431a2 2 0 0 1-1.99 0l-1.161-.668a.332.332 0 0 0-.498.286v2.482l1.659.953c.308.178.65.264.995.264s.687-.086.995-.264l4.645-2.672a1.97 1.97 0 0 0 .995-1.72V5.33c0-.357-.097-.7-.266-.995"/></g></symbol><symbol id="hd-icon-catppuccin-nativescript" viewBox="0 0 16 16"><path fill="none" stroke="#91d7e3" stroke-linecap="round" stroke-linejoin="round" d="M4.5 10.75q0 .75.75.75H6.5V8l3 3.5h1.25q.75 0 .75-.75v-1.5c0-.5.42-.92 1.25-1.25c-.83-.33-1.25-.75-1.25-1.25v-1.5q0-.75-.75-.75H9.5V8l-3-3.5H5.25q-.75 0-.75.75v1.5c0 .5-.42.92-1.25 1.25c.83.33 1.25.75 1.25 1.25zM4 1.5h8A2.5 2.5 0 0 1 14.5 4v8a2.5 2.5 0 0 1-2.5 2.5H4A2.5 2.5 0 0 1 1.5 12V4A2.5 2.5 0 0 1 4 1.5"/></symbol><symbol id="hd-icon-catppuccin-nest" viewBox="0 0 16 16"><path fill="none" stroke="#ed8796" stroke-linecap="round" stroke-linejoin="round" d="m11.5 15.5l.5-3.47C10.5 16 8.34 15.28 7.52 15.5c-.23.06 1.67-.48 2.48-2c-.9.33-1.56.5-1.98.5c1.42-1.23 1.91-2.4 1.5-3.5c-.34 2.33-4.61 4.11-5.53 2.06c-.6-1.37-.28-2.23.97-2.57c0 1.06.51 1.59 1.54 1.59V10.5l1.97.91C8.16 8.14 6 6.83 2 7.5C1 6.35.5 5.52.5 5c0-.78.25-1 1-1s1-.02 2.03-1.05C5.09 1.46 7.1 1.1 9.5 2.57Q9.17 1.625 10.55.5c1.48.73 2.13 1.73 1.94 3s-1.02 1.94-2.5 2c.49.37 1.15.37 2 0a2.41 2.41 0 0 0 1.48-2c1.35 1.67 2.02 3.33 2.02 5s-.35 3.02-1.04 4.06l-.5-2.06c-.98 3.5-1.56 4.3-2.47 5Z"/></symbol><symbol id="hd-icon-catppuccin-nest-controller" viewBox="0 0 16 16"><path fill="none" stroke="#8aadf4" stroke-linecap="round" stroke-linejoin="round" d="m11.5 15.5l.5-3.47C10.5 16 8.34 15.28 7.52 15.5c-.23.06 1.67-.48 2.48-2c-.9.33-1.56.5-1.98.5c1.42-1.23 1.91-2.4 1.5-3.5c-.34 2.33-4.61 4.11-5.53 2.06c-.6-1.37-.28-2.23.97-2.57c0 1.06.51 1.59 1.54 1.59V10.5l1.97.91C8.16 8.14 6 6.83 2 7.5C1 6.35.5 5.52.5 5c0-.78.25-1 1-1s1-.02 2.03-1.05C5.09 1.46 7.1 1.1 9.5 2.57Q9.17 1.625 10.55.5c1.48.73 2.13 1.73 1.94 3s-1.02 1.94-2.5 2c.49.37 1.15.37 2 0a2.41 2.41 0 0 0 1.48-2c1.35 1.67 2.02 3.33 2.02 5s-.35 3.02-1.04 4.06l-.5-2.06c-.98 3.5-1.56 4.3-2.47 5Z"/></symbol><symbol id="hd-icon-catppuccin-nest-decorator" viewBox="0 0 16 16"><path fill="none" stroke="#c6a0f6" stroke-linecap="round" stroke-linejoin="round" d="m11.5 15.5l.5-3.47C10.5 16 8.34 15.28 7.52 15.5c-.23.06 1.67-.48 2.48-2c-.9.33-1.56.5-1.98.5c1.42-1.23 1.91-2.4 1.5-3.5c-.34 2.33-4.61 4.11-5.53 2.06c-.6-1.37-.28-2.23.97-2.57c0 1.06.51 1.59 1.54 1.59V10.5l1.97.91C8.16 8.14 6 6.83 2 7.5C1 6.35.5 5.52.5 5c0-.78.25-1 1-1s1-.02 2.03-1.05C5.09 1.46 7.1 1.1 9.5 2.57Q9.17 1.625 10.55.5c1.48.73 2.13 1.73 1.94 3s-1.02 1.94-2.5 2c.49.37 1.15.37 2 0a2.41 2.41 0 0 0 1.48-2c1.35 1.67 2.02 3.33 2.02 5s-.35 3.02-1.04 4.06l-.5-2.06c-.98 3.5-1.56 4.3-2.47 5Z"/></symbol><symbol id="hd-icon-catppuccin-nest-filter" viewBox="0 0 16 16"><path fill="none" stroke="#f5a97f" stroke-linecap="round" stroke-linejoin="round" d="m11.5 15.5l.5-3.47C10.5 16 8.34 15.28 7.52 15.5c-.23.06 1.67-.48 2.48-2c-.9.33-1.56.5-1.98.5c1.42-1.23 1.91-2.4 1.5-3.5c-.34 2.33-4.61 4.11-5.53 2.06c-.6-1.37-.28-2.23.97-2.57c0 1.06.51 1.59 1.54 1.59V10.5l1.97.91C8.16 8.14 6 6.83 2 7.5C1 6.35.5 5.52.5 5c0-.78.25-1 1-1s1-.02 2.03-1.05C5.09 1.46 7.1 1.1 9.5 2.57Q9.17 1.625 10.55.5c1.48.73 2.13 1.73 1.94 3s-1.02 1.94-2.5 2c.49.37 1.15.37 2 0a2.41 2.41 0 0 0 1.48-2c1.35 1.67 2.02 3.33 2.02 5s-.35 3.02-1.04 4.06l-.5-2.06c-.98 3.5-1.56 4.3-2.47 5Z"/></symbol><symbol id="hd-icon-catppuccin-nest-gateway" viewBox="0 0 16 16"><path fill="none" stroke="#7dc4e4" stroke-linecap="round" stroke-linejoin="round" d="m11.5 15.5l.5-3.47C10.5 16 8.34 15.28 7.52 15.5c-.23.06 1.67-.48 2.48-2c-.9.33-1.56.5-1.98.5c1.42-1.23 1.91-2.4 1.5-3.5c-.34 2.33-4.61 4.11-5.53 2.06c-.6-1.37-.28-2.23.97-2.57c0 1.06.51 1.59 1.54 1.59V10.5l1.97.91C8.16 8.14 6 6.83 2 7.5C1 6.35.5 5.52.5 5c0-.78.25-1 1-1s1-.02 2.03-1.05C5.09 1.46 7.1 1.1 9.5 2.57Q9.17 1.625 10.55.5c1.48.73 2.13 1.73 1.94 3s-1.02 1.94-2.5 2c.49.37 1.15.37 2 0a2.41 2.41 0 0 0 1.48-2c1.35 1.67 2.02 3.33 2.02 5s-.35 3.02-1.04 4.06l-.5-2.06c-.98 3.5-1.56 4.3-2.47 5Z"/></symbol><symbol id="hd-icon-catppuccin-nest-guard" viewBox="0 0 16 16"><path fill="none" stroke="#a6da95" stroke-linecap="round" stroke-linejoin="round" d="m11.5 15.5l.5-3.47C10.5 16 8.34 15.28 7.52 15.5c-.23.06 1.67-.48 2.48-2c-.9.33-1.56.5-1.98.5c1.42-1.23 1.91-2.4 1.5-3.5c-.34 2.33-4.61 4.11-5.53 2.06c-.6-1.37-.28-2.23.97-2.57c0 1.06.51 1.59 1.54 1.59V10.5l1.97.91C8.16 8.14 6 6.83 2 7.5C1 6.35.5 5.52.5 5c0-.78.25-1 1-1s1-.02 2.03-1.05C5.09 1.46 7.1 1.1 9.5 2.57Q9.17 1.625 10.55.5c1.48.73 2.13 1.73 1.94 3s-1.02 1.94-2.5 2c.49.37 1.15.37 2 0a2.41 2.41 0 0 0 1.48-2c1.35 1.67 2.02 3.33 2.02 5s-.35 3.02-1.04 4.06l-.5-2.06c-.98 3.5-1.56 4.3-2.47 5Z"/></symbol><symbol id="hd-icon-catppuccin-nest-middleware" viewBox="0 0 16 16"><path fill="none" stroke="#b7bdf8" stroke-linecap="round" stroke-linejoin="round" d="m11.5 15.5l.5-3.47C10.5 16 8.34 15.28 7.52 15.5c-.23.06 1.67-.48 2.48-2c-.9.33-1.56.5-1.98.5c1.42-1.23 1.91-2.4 1.5-3.5c-.34 2.33-4.61 4.11-5.53 2.06c-.6-1.37-.28-2.23.97-2.57c0 1.06.51 1.59 1.54 1.59V10.5l1.97.91C8.16 8.14 6 6.83 2 7.5C1 6.35.5 5.52.5 5c0-.78.25-1 1-1s1-.02 2.03-1.05C5.09 1.46 7.1 1.1 9.5 2.57Q9.17 1.625 10.55.5c1.48.73 2.13 1.73 1.94 3s-1.02 1.94-2.5 2c.49.37 1.15.37 2 0a2.41 2.41 0 0 0 1.48-2c1.35 1.67 2.02 3.33 2.02 5s-.35 3.02-1.04 4.06l-.5-2.06c-.98 3.5-1.56 4.3-2.47 5Z"/></symbol><symbol id="hd-icon-catppuccin-nest-pipe" viewBox="0 0 16 16"><path fill="none" stroke="#8bd5ca" stroke-linecap="round" stroke-linejoin="round" d="m11.5 15.5l.5-3.47C10.5 16 8.34 15.28 7.52 15.5c-.23.06 1.67-.48 2.48-2c-.9.33-1.56.5-1.98.5c1.42-1.23 1.91-2.4 1.5-3.5c-.34 2.33-4.61 4.11-5.53 2.06c-.6-1.37-.28-2.23.97-2.57c0 1.06.51 1.59 1.54 1.59V10.5l1.97.91C8.16 8.14 6 6.83 2 7.5C1 6.35.5 5.52.5 5c0-.78.25-1 1-1s1-.02 2.03-1.05C5.09 1.46 7.1 1.1 9.5 2.57Q9.17 1.625 10.55.5c1.48.73 2.13 1.73 1.94 3s-1.02 1.94-2.5 2c.49.37 1.15.37 2 0a2.41 2.41 0 0 0 1.48-2c1.35 1.67 2.02 3.33 2.02 5s-.35 3.02-1.04 4.06l-.5-2.06c-.98 3.5-1.56 4.3-2.47 5Z"/></symbol><symbol id="hd-icon-catppuccin-nest-service" viewBox="0 0 16 16"><path fill="none" stroke="#eed49f" stroke-linecap="round" stroke-linejoin="round" d="m11.5 15.5l.5-3.47C10.5 16 8.34 15.28 7.52 15.5c-.23.06 1.67-.48 2.48-2c-.9.33-1.56.5-1.98.5c1.42-1.23 1.91-2.4 1.5-3.5c-.34 2.33-4.61 4.11-5.53 2.06c-.6-1.37-.28-2.23.97-2.57c0 1.06.51 1.59 1.54 1.59V10.5l1.97.91C8.16 8.14 6 6.83 2 7.5C1 6.35.5 5.52.5 5c0-.78.25-1 1-1s1-.02 2.03-1.05C5.09 1.46 7.1 1.1 9.5 2.57Q9.17 1.625 10.55.5c1.48.73 2.13 1.73 1.94 3s-1.02 1.94-2.5 2c.49.37 1.15.37 2 0a2.41 2.41 0 0 0 1.48-2c1.35 1.67 2.02 3.33 2.02 5s-.35 3.02-1.04 4.06l-.5-2.06c-.98 3.5-1.56 4.3-2.47 5Z"/></symbol><symbol id="hd-icon-catppuccin-netlify" viewBox="0 0 16 16"><g fill="none" stroke-linecap="round" stroke-linejoin="round"><path stroke="#8bd5ca" d="m3.5 3.5l1 1m-1 8l1-1M1.5 8h3m7 0h3M8 1.5v3m0 7v3"/><path stroke="#cad3f5" d="M6.5 9.5v-3h2c.68 0 .97.57 1 1v2"/></g></symbol><symbol id="hd-icon-catppuccin-next" viewBox="0 0 16 16"><g fill="none" stroke="#cad3f5" stroke-linecap="round" stroke-linejoin="round"><path d="M12.33 12.85a6.5 6.5 0 1 1 1.55-2.08"/><path d="M12.33 12.85L5.5 4.5v7m5-7v3"/></g></symbol><symbol id="hd-icon-catppuccin-nextflow" viewBox="0 0 16 16"><path fill="none" stroke="#a6da95" stroke-linecap="round" stroke-linejoin="round" d="M14.5 2.36c-2.4.52-4.2 1.62-6.46 3.79C4.7 2.23 1.89 2 1.5 2v2.47c.16.02 2.2.33 4.82 3.48a14.5 14.5 0 0 1-4.82 3.02v2.58a16.4 16.4 0 0 0 6.33-3.62A11.38 11.38 0 0 0 14.5 14v-2.55a9.04 9.04 0 0 1-4.93-3.32c1.81-2.02 3.2-2.93 4.93-3.34z"/></symbol><symbol id="hd-icon-catppuccin-nginx" viewBox="0 0 16 16"><g fill="none" stroke="#a6da95" stroke-linecap="round" stroke-linejoin="round"><path d="M5.5 10.5v-5l5 5v-5"/><path d="M1.5 11.5v-7L8 .5l6.5 4v7l-6.5 4z"/></g></symbol><symbol id="hd-icon-catppuccin-nim" viewBox="0 0 16 16"><path fill="none" stroke="#eed49f" stroke-linecap="round" stroke-linejoin="round" d="M1 7L.5 4.5l1.01.67c.28-.27.47-.48 1.18-.85l.56-1.82L4.5 3.84c.77-.18 1.53-.36 2.4-.33L8 1.5l1.1 2.01c.87-.03 1.63.15 2.4.33l1.25-1.34l.56 1.82c.7.37.9.58 1.18.85l1.01-.67L15 7m-1.5 1C13 6.5 11 5.5 8 5.5S3 6.5 2.5 8m11.5.75L13.5 8l-1 1.5l-1.5.5l-3-1.5L5 10l-1.5-.5l-1-1.5l-.5.75L1 7l1.25 3.75C3 12.75 6 13.5 8 13.5s5-.75 5.75-2.75L15 7z"/></symbol><symbol id="hd-icon-catppuccin-ninja" viewBox="0 0 16 16"><g fill="none" stroke="#cad3f5" stroke-linecap="round" stroke-linejoin="round"><path d="M14.5 8A6.5 6.5 0 0 1 8 14.5A6.5 6.5 0 0 1 1.5 8A6.5 6.5 0 0 1 8 1.5A6.5 6.5 0 0 1 14.5 8M2.68 4.5H13.4m-11.65 5h12.5"/><path d="M6.5 7a.5.5 0 0 1-.5.5a.5.5 0 0 1-.5-.5a.5.5 0 0 1 .5-.5a.5.5 0 0 1 .5.5m4 0a.5.5 0 0 1-.5.5a.5.5 0 0 1-.5-.5a.5.5 0 0 1 .5-.5a.5.5 0 0 1 .5.5"/></g></symbol><symbol id="hd-icon-catppuccin-nix" viewBox="0 0 16 16"><g fill="none" stroke-linecap="round" stroke-linejoin="round"><path stroke="#7dc4e4" d="M.5 7.5H4m1.39-2L2.05 11"/><path stroke="#8aadf4" d="M4 1.5L5.5 4m3.5.5H2.55"/><path stroke="#7dc4e4" d="m12 1.5l-1.5 3m1.01 2.6L8.5 1.5"/><path stroke="#8aadf4" d="M15.5 8.52L12 8.5m-1.38 2L14 5"/><path stroke="#7dc4e4" d="m12.5 14.5l-2.5-3m-2.97.02l6.48-.02"/><path stroke="#8aadf4" d="m4 14.5l1.5-3M4.53 9l2.97 5.5"/></g></symbol><symbol id="hd-icon-catppuccin-nix-lock" viewBox="0 0 16 16"><g fill="none" stroke-linecap="round" stroke-linejoin="round"><path stroke="#7dc4e4" d="M.5 7.5H4m1.39-2L2.05 11"/><path stroke="#8aadf4" d="M4 1.5L5.5 4m3.5.5H2.55"/><path stroke="#7dc4e4" d="m12 1.5l-1.5 3m1.01 2.6L8.5 1.5"/><path stroke="#8aadf4" d="m12.733 7.063l.422-.688L14 5"/><path stroke="#7dc4e4" d="m7.03 11.52l.81-.002"/><path stroke="#8aadf4" d="m4 14.5l1.5-3M4.53 9l2.97 5.5"/></g><path fill="none" stroke="#8087a2" d="M15 11.5c.27 0 .5.22.5.5v3a.5.5 0 0 1-.5.5h-5a.5.5 0 0 1-.5-.5v-3c0-.28.22-.5.5-.5zm-4 0V10a1.5 1.5 0 0 1 3 0v1.5"/></symbol><symbol id="hd-icon-catppuccin-nodemon" viewBox="0 0 16 16"><path fill="none" stroke="#a6da95" stroke-linecap="round" stroke-linejoin="round" d="m14.17 5.79l-.67-.29c.64-.84.98-2.12.5-4c0 0-.94 2.79-3.11 2.7L8.35 2.57a.7.7 0 0 0-.32-.08h-.05a.74.74 0 0 0-.32.08L5.12 4.2c-2.17.09-3.08-2.7-3.08-2.7c-.48 1.88-.18 3.15.46 3.99l-.66.29a.6.6 0 0 0-.34.53l.01 7.88c0 .1.07.2.18.26c.1.05.23.05.33 0l3.64-1.82a.6.6 0 0 0 .34-.52V8.34a.6.6 0 0 1 .34-.53l1.32-.73a.74.74 0 0 1 .69 0l1.3.73c.22.11.35.31.35.53v3.78c0 .21.13.41.34.52L14 14.46c.11.05.24.05.35 0a.3.3 0 0 0 .17-.26V6.32a.6.6 0 0 0-.34-.53"/></symbol><symbol id="hd-icon-catppuccin-npm" viewBox="0 0 16 16"><g fill="none" stroke-linecap="round" stroke-linejoin="round"><path stroke="#ed8796" d="M2.45 1.5a.95.95 0 0 0-.95.95v11.1a.95.95 0 0 0 .95.95h11.1a.95.95 0 0 0 .95-.95V2.45a.95.95 0 0 0-.95-.95z"/><path stroke="#cad3f5" d="M4.5 4.5h7v7h-2v-5h-2v5h-3z"/></g></symbol><symbol id="hd-icon-catppuccin-npm-ignore" viewBox="0 0 16 16"><g fill="none" stroke="#8087a2" stroke-linecap="round" stroke-linejoin="round"><path d="M2.45 1.5a.95.95 0 0 0-.95.95v11.1a.95.95 0 0 0 .95.95h11.1a.95.95 0 0 0 .95-.95V2.45a.95.95 0 0 0-.95-.95z"/><path d="M4.5 4.5h7v7h-2v-5h-2v5h-3z"/></g></symbol><symbol id="hd-icon-catppuccin-npm-lock" viewBox="0 0 16 16"><g fill="none" stroke-linecap="round" stroke-linejoin="round"><path stroke="#8087a2" d="M15 11.5c.27 0 .5.22.5.5v3a.5.5 0 0 1-.5.5h-5a.5.5 0 0 1-.5-.5v-3c0-.28.22-.5.5-.5zm-4 0V10a1.5 1.5 0 0 1 3 0v1.5"/><path stroke="#cad3f5" d="M9.5 9V5.5h-2v6h-4v-8h8v3"/><path stroke="#ed8796" d="M7.54 13.5H3A1.5 1.5 0 0 1 1.5 12V3c0-.83.67-1.5 1.5-1.5h9c.83 0 1.5.67 1.5 1.5v3.5"/></g></symbol><symbol id="hd-icon-catppuccin-nuget" viewBox="0 0 16 16"><path fill="none" stroke="#8aadf4" stroke-linecap="round" stroke-linejoin="round" d="M5.5 3.5h7a2 2 0 0 1 2 2v7a2 2 0 0 1-2 2h-7a2 2 0 0 1-2-2v-7c0-1.1.9-2 2-2M2 2.5a.5.5 0 1 0 0-1a.5.5 0 0 0 0 1m4.5 5a1 1 0 1 0 0-2a1 1 0 0 0 0 2m4 5a2 2 0 1 0 0-4a2 2 0 0 0 0 4"/></symbol><symbol id="hd-icon-catppuccin-nunjucks" viewBox="0 0 16 16"><path fill="none" stroke="#a6da95" stroke-linecap="round" stroke-linejoin="round" d="M14 14.5h-4c-.75 0-1-.25-1-1v-3l2-.5v2.5h2v-8h2v9c0 .75-.25 1-1 1m-13 0v-13h1.5l2.5 6v-6h2v13H5.5L3 8.5v6z"/></symbol><symbol id="hd-icon-catppuccin-nuxt" viewBox="0 0 16 16"><path fill="none" stroke="#a6da95" stroke-linecap="round" stroke-linejoin="round" d="M9.5 12.5h6l-5-7L7.44 11c-.67.98-1.32 1.48-1.94 1.5h-5l5-9l3 5"/></symbol><symbol id="hd-icon-catppuccin-nuxt-ignore" viewBox="0 0 16 16"><path fill="none" stroke="#8087a2" stroke-linecap="round" stroke-linejoin="round" d="M9.5 12.5h6l-5-7L7.44 11c-.67.98-1.32 1.48-1.94 1.5h-5l5-9l3 5"/></symbol><symbol id="hd-icon-catppuccin-nx" viewBox="0 0 16 16"><path fill="none" stroke="#91d7e3" stroke-linecap="round" stroke-linejoin="round" d="M.5 3.5v10h2V7.594l4 5.906h2L9.55 12l.95 1.5h2l-2-3.5s-.061-1.01.837-1.544c.898-.533 1.567 0 1.567 0s.402.328.497.615c.096.287.478.349.708.472s.42.225.477.595c.058.369.497.635.841.225s-.535-3.445-2.618-3.814c-2.084-.37-3.488 1.312-3.488 1.312L8.5 6.323V3.5h-2v6l-4-6zm6.167 2.036L8.5 5.5"/><path fill="none" stroke="#91d7e3" stroke-linecap="round" stroke-linejoin="round" d="m6.5 13.5l2-3.5l-2-3.5"/></symbol><symbol id="hd-icon-catppuccin-nx-ignore" viewBox="0 0 16 16"><path fill="none" stroke="#8087a2" stroke-linecap="round" stroke-linejoin="round" d="M.5 3.5v10h2V7.594l4 5.906h2L9.55 12l.95 1.5h2l-2-3.5s-.061-1.01.837-1.544c.898-.533 1.567 0 1.567 0s.402.328.497.615c.096.287.478.349.708.472s.42.225.477.595c.058.369.497.635.841.225s-.535-3.445-2.618-3.814c-2.084-.37-3.488 1.312-3.488 1.312L8.5 6.323V3.5h-2v6l-4-6zm6.167 2.036L8.5 5.5"/><path fill="none" stroke="#8087a2" stroke-linecap="round" stroke-linejoin="round" d="m6.5 13.5l2-3.5l-2-3.5"/></symbol><symbol id="hd-icon-catppuccin-ocaml" viewBox="0 0 16 16"><g fill="none" stroke="#f5a97f" stroke-linecap="round" stroke-linejoin="round"><path d="M1.5 8V3c0-.83.67-1.5 1.5-1.5h10c.83 0 1.5.67 1.5 1.5v10c0 .83-.67 1.5-1.5 1.5H9"/><path d="m1.5 8l1.14-2.3q.09-.21.36-.24a.8.8 0 0 1 .44.13c.18.12.23.53.28.64c.06.1.64 1.23.85 1.23c.2 0 .71-1.47.71-1.47s.37-.49.72-.49s.55.32.67.49c.12.16.24 1.76.46 2.01s1.32.87 1.67.73c.34-.13.53-.4.63-.73c.1-.34-.14-.75 0-1a1.1 1.1 0 0 1 1.02-.55c.56.03 2.05.56 2.05 1.05q0 .75-1.5.75c-.48 1.33.28 2.22-3 2.25l1 4"/><path d="m4.5 14.5l1.5-4l1 4zm-2 0l1.5-4l-1.5-.5l-1 1.54V14l1 .49Z"/></g></symbol><symbol id="hd-icon-catppuccin-odin" viewBox="0 0 16 16"><path fill="none" stroke="#91d7e3" stroke-linecap="round" stroke-linejoin="round" d="M8.194.502C4.8.416.5 3.047.5 8a7.5 7.5 0 0 0 1.182 4.042zM3.658 14.116A7.5 7.5 0 0 0 8 15.5a7.5 7.5 0 0 0 3.087-14.337Z"/></symbol><symbol id="hd-icon-catppuccin-opentofu" viewBox="0 0 16 16"><path fill="none" stroke="#eed49f" stroke-linecap="round" stroke-linejoin="round" d="M14.982 11.759L8 15.517l-6.982-3.758V4.24L8 .483l6.982 3.758Z"/><path fill="none" stroke="#eed49f" stroke-linecap="round" stroke-linejoin="round" d="M1.018 4.241L8 8.062l6.982-3.821M8 8.078v7.235m-2.975-4.63l.498.26m-2.56-1.349l.497.26"/></symbol><symbol id="hd-icon-catppuccin-org" viewBox="0 0 16 16"><path fill="none" stroke="#8bd5ca" stroke-linecap="round" stroke-linejoin="round" stroke-miterlimit="10" d="M2.287 10.409C1.95 11.15.888 12.95 2 15.48M9.56 9.5s-1.911 2.816 1.085 5.55m-.372-11.662L13.5.5l-1.96 3.986"/><path fill="none" stroke="#8bd5ca" stroke-linecap="round" stroke-linejoin="round" stroke-miterlimit="10" d="M8 7.467c.344 2.288 2.827 1.646 3.575 1.66c.094.003.346.157.425.208l.994.47c.116.073.264.124.389.069l.467-.207a.77.77 0 0 0 .603-.673l.049-.461a.77.77 0 0 0-.206-.612L11.5 4.5l-1.5-1v-2s-2.19.261-2 1.925c0 0-4.434 1.764-1.513 5.867c0 0 .79 1.51.018 3.16"/><path fill="none" stroke="#8bd5ca" stroke-linecap="round" stroke-linejoin="round" stroke-miterlimit="10" d="M8 3s-6.4.163-4 6"/><path fill="none" stroke="#8bd5ca" stroke-linecap="round" stroke-linejoin="round" stroke-miterlimit="10" d="M3.526 6s-3.462 2.329-.025 6c0 0 .979 1.518.499 3.497"/></symbol><symbol id="hd-icon-catppuccin-package-json" viewBox="0 0 16 16"><path fill="none" stroke="#a6da95" stroke-linecap="round" stroke-linejoin="round" d="M11.5 6.5v-.17c0-.73-.6-1.33-1.33-1.33H9a1.5 1.5 0 1 0 0 3h1a1.5 1.5 0 0 1 0 3H9a1.5 1.5 0 0 1-1.5-1.5M5.5 5v4.5c0 1.5-.08 1.87-.71 2.5c-.5.5-1.5.5-1.5.5c-.96-.4-1.2-.66-1.79-1v-7L8 .5l6.5 4v7l-6.5 4l-2.49-1.53"/></symbol><symbol id="hd-icon-catppuccin-panda-css" viewBox="0 0 16 16"><path fill="none" stroke="#eed49f" stroke-linecap="round" stroke-linejoin="round" d="M7.18 1.55c-.7.08-1.36.22-2 .47a5.27 5.27 0 0 0-3.05 2.84c-.45 1-.61 2.05-.63 3.14c-.02 1.15.12 2.28.35 3.4c.2 1.02.47 2.02.86 2.98c.03.09.08.12.18.12h4.74a2 2 0 0 0 .14 0l-.02-.06l-.3-.66c-.2-.41-.4-.83-.57-1.25A13.6 13.6 0 0 1 5.8 8.5a5.1 5.1 0 0 1 .12-1.84c.2-.69.6-1.17 1.29-1.38a3.1 3.1 0 0 1 1.89.02c.55.19.92.58 1.07 1.16c.12.45.12.9.03 1.35c-.07.35-.2.66-.46.92c-.45.45-1 .56-1.61.52l-.33-.03l-.15-.02v.13c.04.1.06.21.08.32c.06.25.12.5.2.76c.15.48.32.96.52 1.43a8.74 8.74 0 0 0 4.05-1.3l.06-.04a3.87 3.87 0 0 0 1.39-1.48c.53-1.02.63-2.1.47-3.22a4.54 4.54 0 0 0-1.54-2.88a5.4 5.4 0 0 0-2.06-1.1c-1.2-.34-2.41-.39-3.65-.28Z"/></symbol><symbol id="hd-icon-catppuccin-pdf" viewBox="0 0 16 16"><path fill="none" stroke="#ed8796" stroke-linecap="round" stroke-linejoin="round" d="M2.8 14.34c1.81-1.25 3.02-3.16 3.91-5.5c.9-2.33 1.86-4.33 1.44-6.63c-.06-.36-.57-.73-.83-.7c-1.02.06-.95 1.21-.85 1.9c.24 1.71 1.56 3.7 2.84 5.56c1.27 1.87 2.32 2.16 3.78 2.26c.5.03 1.25-.14 1.37-.58c.77-2.8-9.02-.54-12.28 2.08c-.4.33-.86 1-.6 1.46c.2.36.87.4 1.23.15h0Z"/></symbol><symbol id="hd-icon-catppuccin-perl" viewBox="0 0 16 16"><path fill="none" stroke="#8aadf4" stroke-linecap="round" stroke-linejoin="round" d="M12.5 14.5v-3.34c-1-.66-1-1.35-1-2.66m-3 1l.02 2.53l.98 2.47m-4-5v5m9 0V9.23s.17-1.73-1-1.73c0-1.5-.5-6-2.5-6S8.75 4.25 8.75 4.25A3.67 3.67 0 0 0 6.5 7.12v-3.5c0-.63-.85-1.32-1.5-1.32c-.92 0-1.33.59-1.5 1.2H2.25c-.42.11-.75.59-.75 1c0 .5.28 1 .75 1h1.22l.02 3c.01.75.51 1 1.51 1h4.5"/></symbol><symbol id="hd-icon-catppuccin-pesde" viewBox="0 0 16 16"><path fill="none" stroke="#eed49f" stroke-linecap="round" stroke-linejoin="round" stroke-width="1.449" d="M40.649-15.108v10.85l-9.397 5.425l-9.396-5.425v-10.85l9.396-5.425z" transform="matrix(.68907 0 0 .69117 -13.535 14.692)"/><path fill="none" stroke="#eed49f" stroke-linecap="round" stroke-linejoin="round" d="M4.568 13.236V6.893H3.224"/><ellipse cx="6.724" cy="9.07" fill="none" stroke="#eed49f" stroke-linecap="round" stroke-linejoin="round" rx="2.142" ry="2.147"/><path fill="none" stroke="#eed49f" stroke-linecap="round" stroke-linejoin="round" d="M12.427 8.34c-.733.74-2.345.733-3.221.17a2.22 2.22 0 0 1-.878-2.639a2.21 2.21 0 0 1 2.389-1.416c1.03.151 1.814 1.152 1.883 2.193H8.388"/></symbol><symbol id="hd-icon-catppuccin-pesde-lock" viewBox="0 0 16 16"><path fill="none" stroke="#eed49f" stroke-linecap="round" stroke-linejoin="round" stroke-width="1.449" d="m32.427.49l-1.175.677l-9.396-5.425v-10.85l9.396-5.425l9.397 5.425v4.069" transform="matrix(.68907 0 0 .69117 -14.561 14.692)"/><path fill="none" stroke="#eed49f" stroke-linecap="round" stroke-linejoin="round" d="M3.542 13.236V6.893H2.198"/><ellipse cx="5.698" cy="9.07" fill="none" stroke="#eed49f" stroke-linecap="round" stroke-linejoin="round" rx="2.142" ry="2.147"/><path fill="none" stroke="#eed49f" stroke-linecap="round" stroke-linejoin="round" d="M9.391 8.899c-.387-.039-.843-.153-1.211-.389a2.22 2.22 0 0 1-.878-2.639A2.21 2.21 0 0 1 9.69 4.455c1.03.151 1.814 1.152 1.884 2.193H7.362"/><path fill="none" stroke="#8087a2" d="M15 11.501a.5.5 0 0 1 .5.5v3a.5.5 0 0 1-.5.499h-4.998a.5.5 0 0 1-.5-.5v-2.999a.5.5 0 0 1 .5-.5zm-3.999 0v-1.5a1.5 1.5 0 0 1 3 0v1.5"/></symbol><symbol id="hd-icon-catppuccin-php" viewBox="0 0 16 16"><path fill="none" stroke="#8aadf4" stroke-linecap="round" stroke-linejoin="round" d="M.5 12.5v.74c0 .76.774 1.26 1.5 1.26c.938 0 1.5-.5 1.5-1.255V6c0-1.715 1.494-3.478 3.65-3.501c2.344 0 3.85 1.558 3.85 3c.166 2.99-1.422 4.137-3.504 5v4h8.002V9c.041-.635-.56-1.844-1.367-2.5c-.937-.692-2.073-.997-3.131-1m.5 9v-3M6 6.5a.5.5 0 1 0 0-1a.5.5 0 0 0 0 1"/></symbol><symbol id="hd-icon-catppuccin-phrase" viewBox="0 0 16 16"><g fill="none" stroke-linecap="round" stroke-linejoin="round"><path stroke="#cad3f5" d="M3.5 1.5H10c1.385 0 2.5 1.115 2.5 2.5v5c0 1.385-1.115 2.5-2.5 2.5H9"/><path stroke="#8bd5ca" d="M3.5 1.5v10l4 3v-10z"/></g></symbol><symbol id="hd-icon-catppuccin-phtml" viewBox="0 0 16 18"><g fill="none" stroke="#8aadf4"><path d="M1 2.7c0-.7.5-1.4 1.2-1.4h11.6c.7 0 1.3.7 1.2 1.4l-1.3 10.4c0 .4-.3.8-.6 1l-4.5 2.4q-.6.45-1.2 0l-4.5-2.4c-.3-.2-.5-.6-.6-1z"/><path stroke-linecap="round" d="m4 9l.2-1.4m0 0S4.4 6 4.7 6h.6c.3 0 .7.3.7.8c0 .6-.4.8-.7.8zM7.3 9l.4-1.5M8 6l-.3 1.5m0 0s.5-.5.8-.5c.4 0 .8 0 .8.3L9 9m1.6 0l.2-1.4m0 0S11 6 11.3 6h.6c.3 0 .7.3.7.8c0 .6-.4.8-.7.8z"/></g></symbol><symbol id="hd-icon-catppuccin-pixi" viewBox="0 0 16 16"><path fill="none" stroke="#cad3f5" stroke-linecap="round" stroke-linejoin="round" d="m6.702 5.889l5.046 6.426"/><path fill="none" stroke="#eed49f" stroke-linecap="round" stroke-linejoin="round" d="m3.71 3.786l-.396-2.149l2.03.843L7.39 1.5l-.275 2.149l1.772 1.667l-2.392.24l-.808 2.132L4.569 5.78l-2.288-.24Zm4.995 6.005s-.656.559-1.192.073s.145-1.474.633-1.945s1.54-1.07 2.015-.594c.696.7-.268 1.382-.268 1.382"/><path fill="none" stroke="#eed49f" stroke-linecap="round" stroke-linejoin="round" d="M10.31 11.076s-1.132 1.025-1.817.447c-.684-.578.185-1.752.81-2.312c.623-.56 1.928-1.272 2.487-.665s-.806 1.956-.806 1.956"/><path fill="none" stroke="#eed49f" stroke-linecap="round" stroke-linejoin="round" d="M11.93 13.037s-1.508 1.326-2.33.621s.221-2.136.971-2.818c.75-.683 2.318-1.55 2.991-.81s-.979 2.331-.979 2.331"/><path fill="none" stroke="#cad3f5" stroke-linecap="round" stroke-linejoin="round" d="m11.785 12.358l1.682 2.142"/></symbol><symbol id="hd-icon-catppuccin-pixi-lock" viewBox="0 0 16 16"><path fill="none" stroke="#8087a2" d="M15 11.5c.27 0 .5.22.5.5v3a.5.5 0 0 1-.5.5h-5a.5.5 0 0 1-.5-.5v-3c0-.28.22-.5.5-.5zm-4 0V10a1.5 1.5 0 0 1 3 0v1.5"/><path fill="none" stroke="#cad3f5" stroke-linecap="round" stroke-linejoin="round" d="M5.043 4.989L9.146 9.94"/><path fill="none" stroke="#eed49f" stroke-linecap="round" stroke-linejoin="round" d="m2.39 3.123l-.35-1.907l1.799.747l1.814-.87l-.244 1.908l1.57 1.48l-2.119.213l-.716 1.892l-.991-1.694l-2.028-.213Zm4.428 5.33s-.582.495-1.057.064c-.474-.432.128-1.308.56-1.726s1.366-.95 1.787-.527c.616.62-.238 1.226-.238 1.226"/><path fill="none" stroke="#eed49f" stroke-linecap="round" stroke-linejoin="round" d="M8.59 9.358s-1.354 1.145-1.96.632c-.607-.513.164-1.555.716-2.052c.553-.498 1.71-1.129 2.205-.59c.497.538-.965 2.003-.965 2.003"/></symbol><symbol id="hd-icon-catppuccin-plantuml" viewBox="0 0 16 16"><path fill="none" stroke="#a6da95" stroke-linecap="round" stroke-linejoin="round" d="M4.389 10.167h7.222v2.889a1.444 1.444 0 0 1-1.444 1.444H5.833a1.444 1.444 0 0 1-1.444-1.444ZM8 5.833A4.333 4.333 0 0 0 3.667 1.5H1.5v1.444a4.333 4.333 0 0 0 4.333 4.334H8m0 0a4.333 4.333 0 0 1 4.333-4.334H14.5v.723A4.333 4.333 0 0 1 10.167 8H8m0 2.167V5.833"/></symbol><symbol id="hd-icon-catppuccin-playwright" viewBox="0 0 16 16"><g fill="none" stroke-linecap="round" stroke-linejoin="round"><path stroke="#ed8796" d="M5 9.5c-1.02.35-1.5 1-1.5 1"/><path stroke="#ed8796" d="m5.97 12.36l-.1.03c-2.98.8-4.55-2.64-5.03-4.43C.62 7.13.53 6.28.5 5.88c-.03-.46.29-.33.89-.23a6.5 6.5 0 0 0 2.7-.17c.52-.14 1.26-.4 1.74-.65"/><path stroke="#ed8796" d="M2.5 7.5s.36.56 1.18.31C4.5 7.57 4.5 7 4.5 7"/><path stroke="#a6da95" d="M15.05 7.57c-.62 2.33-2.67 6.81-6.52 5.78C4.68 12.3 5.14 7.4 5.77 5.08c.28-1.07.58-1.84.81-2.31c.27-.54.53-.18 1.14.32a8.4 8.4 0 0 0 3.14 1.56a8.4 8.4 0 0 0 3.49.22c.78-.13 1.19-.3 1.15.29c-.04.52-.16 1.33-.45 2.4Z"/><path stroke="#a6da95" d="M9.5 7.5s0-.82-.72-1.08s-1.28.08-1.28.08m0 3S8 11 9.21 11.33c1.21.34 2.29-.83 2.29-.83M13 9s.18-.87-.58-1.23C11.66 7.4 11 8 11 8"/></g></symbol><symbol id="hd-icon-catppuccin-plop" viewBox="0 0 16 16"><path fill="none" stroke="#8bd5ca" stroke-linecap="round" stroke-linejoin="round" d="M3.5 10.62c.2 2.6 1.94 4.88 4.54 4.88h.05c2.6 0 4.33-2.29 4.53-4.88l.01-.23h0c0-1.15-.61-2.74-1.8-4.62A391 391 0 0 0 8.31 1.9l-.17-.27l-.05-.07l-.03-.05l-.04.05l-.05.07l-.17.27l-2.5 3.88C4.1 7.66 3.5 9.25 3.5 10.4v.23h0Z"/></symbol><symbol id="hd-icon-catppuccin-pnpm" viewBox="0 0 16 16"><g fill="none" stroke-linecap="round" stroke-linejoin="round"><path stroke="#f5a97f" d="M6 2v4"/><path stroke="#cad3f5" d="M10 9.5V14M6 6v8"/><path stroke="#f5a97f" d="M10 2v7.5m4 .5V2H2v4h12"/><path stroke="#cad3f5" d="M2 10v4h12v-4z"/></g></symbol><symbol id="hd-icon-catppuccin-pnpm-lock" viewBox="0 0 16 16"><g fill="none" stroke-linecap="round" stroke-linejoin="round"><path stroke="#8087a2" d="M15 11.5c.27 0 .5.22.5.5v3a.5.5 0 0 1-.5.5h-5a.5.5 0 0 1-.5-.5v-3c0-.28.22-.5.5-.5zm-4 0V10a1.5 1.5 0 0 1 3 0v1.5"/><path stroke="#f5a97f" d="M4.5 1.5v3"/><path stroke="#cad3f5" d="M7.5 7.5v3m-3-6v6"/><path stroke="#f5a97f" d="M7.5 1.5v6m3 0v-6h-9v3h9"/><path stroke="#cad3f5" d="M10.5 7.5h-9v3h7"/></g></symbol><symbol id="hd-icon-catppuccin-poetry-lock" viewBox="0 0 16 16"><defs><radialGradient id="hd-icon-catppuccin-poetry-lock-11106" cx="0" cy="0" r="1" gradientTransform="matrix(10.5875 0 0 10.784 4.993 -.868)" gradientUnits="userSpaceOnUse"><stop offset="0" stop-color="#fff"/><stop offset="1"/></radialGradient></defs><path fill="none" stroke="#8087a2" stroke-linecap="round" stroke-linejoin="round" d="M15 11.5c.27 0 .5.22.5.5v3a.5.5 0 0 1-.5.5h-5a.5.5 0 0 1-.5-.5v-3c0-.28.22-.5.5-.5zm-4 0V10a1.5 1.5 0 0 1 3 0v1.5"/><path fill="url(#hd-icon-catppuccin-poetry-lock-11106)" d="m0 0l7.778 7.923q.104-.107.205-.215Z"/><path fill="none" stroke="#91d7e3" stroke-linecap="round" stroke-linejoin="round" d="M.5.5h10a10 10 0 0 1-3.306 7.43"/><path fill="none" stroke="#c6a0f6" stroke-linecap="round" stroke-linejoin="round" d="m7.25 7.835l1.058 1.16l.529.58m-1.408 2.094A12.9 12.9 0 0 1 2.69 13.51L.501 10.5"/><path fill="none" stroke="#8aadf4" stroke-linecap="round" stroke-linejoin="round" d="M7.32 7.814A10 10 0 0 1 .5 10.5V.5z"/></symbol><symbol id="hd-icon-catppuccin-postcss" viewBox="0 0 16 16"><g fill="none" stroke="#ed8796" stroke-linecap="round" stroke-linejoin="round"><path d="M14.5 8A6.5 6.5 0 0 1 8 14.5A6.5 6.5 0 0 1 1.5 8A6.5 6.5 0 0 1 8 1.5A6.5 6.5 0 0 1 14.5 8"/><path d="m8 1.5l6 9H2z"/><path d="M5.5 5.5h5v5h-5z"/><path d="M9.5 8A1.5 1.5 0 0 1 8 9.5A1.5 1.5 0 0 1 6.5 8A1.5 1.5 0 0 1 8 6.5A1.5 1.5 0 0 1 9.5 8"/></g></symbol><symbol id="hd-icon-catppuccin-powershell" viewBox="0 0 16 16"><g fill="none" stroke="#8aadf4" stroke-linecap="round" stroke-linejoin="round"><path d="M2 15.5c-.7 0-1.5-.8-1.5-1.5V5c0-.7.8-1.5 1.5-1.5h9c.7 0 1.5.8 1.5 1.5v9c0 .7-.8 1.5-1.5 1.5z"/><path d="m1.2 3.8l3.04-2.5S5.17.5 5.7.5h8.4c.66 0 1.4.73 1.4 1.4v7.73a2.7 2.7 0 0 1-.7 1.75l-2.68 3.51M3 8.5l3 2l-3 2m4 0h2"/></g></symbol><symbol id="hd-icon-catppuccin-pre-commit" viewBox="0 0 16 16"><rect width="9.801" height="9.801" x="-4.901" y="6.413" fill="none" stroke="#eed49f" stroke-linecap="round" stroke-linejoin="round" rx="1.032" ry="1.032" transform="rotate(-45)"/><path fill="none" stroke="#eed49f" stroke-linecap="round" stroke-linejoin="round" d="M6.569 10.628V5.43h2.619s1.076.157 1.076 1.38c0 1.224-1.076 1.462-1.076 1.462H6.663"/></symbol><symbol id="hd-icon-catppuccin-premake" viewBox="0 0 16 16"><g fill="none" stroke-linecap="round" stroke-linejoin="round"><path stroke="#a6da95" d="m11.05 4.4l-.72-.2l-.06-.9l-.8-.1l-.17.96l-.7.17l-.45-.93l-1.05.32l.39.96l-.37.47l-.9-.38l-.5.6l1.2 1.54m4.62-3.13s-1 1.74-1.77 2.27c-.76.53-1.42 1.14-3.9.84c-2.5-.3-3.9.04-4.2.38s-.25 1.07.58 1.51c.82.44 1.94.8 1.94.8"/><path stroke="#eed49f" d="m11.86 10.7l.54-.52l.78.42l.5-.65l-.7-.65l.22-.7l1 .1l.3-1.08l-1.01-.17l-.2-.56l.8-.59l-.23-.74l-1.92.22m.17 5.67s-.92-1.8-.96-2.73c-.03-.94-.2-1.83 1.36-3.84c1.55-2 2-3.4 1.89-3.85c-.12-.44-.76-.78-1.56-.3c-.8.5-1.55 1.45-1.55 1.45"/><path stroke="#8aadf4" d="m6.12 8.41l.18.74l-.75.5l.29.76l.9-.3l.49.54l-.58.84l.77.8l.64-.82l.58.12l.1 1l.74.16l.77-1.82m-4.9-2.67s1.99.08 2.8.51c.8.44 1.66.74 2.58 3.12c.93 2.37 1.89 3.47 2.32 3.6c.44.11 1.04-.3 1.03-1.25c0-.95-.35-2.1-.35-2.1"/></g></symbol><symbol id="hd-icon-catppuccin-prettier" viewBox="0 0 16 16"><g fill="none" stroke-linecap="round" stroke-linejoin="round"><path stroke="#7dc4e4" d="M1.5 2.5h11m-11 6h5"/><path stroke="#eed49f" d="M1.5 4.5h5m3 4h5"/><path stroke="#c6a0f6" d="M9.5 4.5h5m-13 2h5m-5 6h5"/><path stroke="#ed8796" d="M9.5 6.5h5m-13 4h11m-11 4h5"/></g></symbol><symbol id="hd-icon-catppuccin-prettier-ignore" viewBox="0 0 16 16"><path fill="none" stroke="#8087a2" stroke-linecap="round" stroke-linejoin="round" d="M1.5 2.5h11m-11 6h5m-5-4h5m3 4h5m-5-4h5m-13 2h5m-5 6h5m3-6h5m-13 4h11m-11 4h5"/></symbol><symbol id="hd-icon-catppuccin-prisma" viewBox="0 0 16 16"><path fill="none" stroke="#8bd5ca" stroke-linecap="round" stroke-linejoin="round" d="m8 .5l6.5 12.05l-10 2.95l-3-5zm-3.5 15L8 .5"/></symbol><symbol id="hd-icon-catppuccin-prolog" viewBox="0 0 16 16"><path fill="none" stroke="#f5a97f" stroke-linecap="round" stroke-linejoin="round" d="M4.5 13.5c-.33.33-.5.67-.5 1s.17.67.5 1c.17-.67.5-1 1-1s.83.33 1 1c.33-.33.5-.83.5-1.5h2c0 .67.17 1.17.5 1.5c.17-.67.5-1 1-1s.83.33 1 1c.33-.33.5-.67.5-1s-.17-.67-.5-1l1-1l1.25 1.25c0-2.75 1-2.75 1-5.75a7.1 7.1 0 0 0-2-5.25A3.64 3.64 0 0 1 13 .5c-1.17 0-2 .42-2.5 1.25A3.08 3.08 0 0 0 8 .5c-1 0-1.83.42-2.5 1.25C5 .92 4.17.5 3 .5c.5.83.58 1.58.25 2.25a7.1 7.1 0 0 0-2 5.25c0 3 1 3 1 5.75L3.5 12.5zm6-5a2 2 0 1 0 0-4a2 2 0 0 0 0 4m-5 0a2 2 0 1 0 0-4a2 2 0 0 0 0 4M7 8l1 2.5L9 8m1.5-1.5"/></symbol><symbol id="hd-icon-catppuccin-properties" viewBox="0 0 16 16"><path fill="none" stroke="#cad3f5" stroke-linecap="round" stroke-linejoin="round" d="M8 1.5c-.87 0-1.17 1.32-2.03 1.63c-.86.3-2.17-.68-2.84 0c-.68.67.3 1.98 0 2.84S1.5 7.13 1.5 8s1.32 1.17 1.63 2.03c.3.86-.68 2.17 0 2.85c.67.67 1.98-.3 2.84 0c.85.3 1.16 1.62 2.03 1.62s1.17-1.32 2.03-1.63c.86-.3 2.17.68 2.85 0c.67-.67-.3-1.98 0-2.84c.3-.85 1.62-1.16 1.62-2.03s-1.32-1.17-1.63-2.03c-.3-.86.68-2.17 0-2.84c-.67-.68-1.98.3-2.84 0S8.87 1.5 8 1.5m0 9a2.5 2.5 0 1 0 0-5a2.5 2.5 0 0 0 0 5"/></symbol><symbol id="hd-icon-catppuccin-proto" viewBox="0 0 16 16"><g fill="none" stroke-linecap="round" stroke-linejoin="round"><path stroke="#ed8796" d="m.5 8.5l3-6h3l-3 6"/><path stroke="#8aadf4" d="M6.5 13.5h-3l-3-5l1.36-2.73z"/><path stroke="#eed49f" d="m15.5 7.5l-3 6h-3l3-6"/><path stroke="#a6da95" d="M9.5 2.5h3l3 5l-1.36 2.73z"/></g></symbol><symbol id="hd-icon-catppuccin-prototools" viewBox="0 0 16 16"><path fill="none" stroke="#f5bde6" stroke-linecap="round" stroke-linejoin="round" d="m15.448 11.026l-1.031-3.29a4.9 4.9 0 0 1 0-2.925l1.051-3.35a.74.74 0 0 0-.927-.929L11.2 1.586a4.84 4.84 0 0 1-2.918 0L5 .552a.741.741 0 0 0-.92.955l.6 1.698a4.9 4.9 0 0 1-.276 3.886L.582 14.417c-.34.651.37 1.347 1.013.993l6.955-3.838a4.86 4.86 0 0 1 3.969-.325l1.98.702a.741.741 0 0 0 .949-.924z"/></symbol><symbol id="hd-icon-catppuccin-pug" viewBox="0 0 16 16"><path fill="none" stroke="#f4dbd6" stroke-linecap="round" stroke-linejoin="round" d="M3.56 3.68c.66-.5 1.15-.83 1.48-1c.5-.24 5.43-.24 5.92 0c.33.17.82.5 1.48 1m-8.88 0C1.75 4 .76 4.34.6 4.67c-.25.5 0 3.08.49 3.58c.33.33.82.33 1.48 0l1.48-3.58Zm8.88 0c1.81.33 2.8.66 2.96.99c.25.5 0 3.1-.49 3.6c-.33.33-.82.33-1.48 0l-1.48-3.6ZM2.57 8.14c-.33 1.65-.33 2.53 0 2.86s1.15.76 2.47 1.1m8.39-3.84c.33 1.66.33 2.41 0 2.74s-1.15.76-2.47 1.1M9 8.45c-.74-.49-1.24-.49-1.98 0c-.5.33-1.15 1.65-1.97 3.63c-.5.5-.58.91-.25 1.24c.5.5 2.22-.33 3.21-.33s2.71.82 3.2.33c.34-.33.25-.74-.24-1.24c-.82-1.98-1.48-3.3-1.97-3.63m-2.22.41C6.93 9.7 7.34 10 8 10s1.07-.3 1.23-1.13M5.5 6.5"/></symbol><symbol id="hd-icon-catppuccin-puppet" viewBox="0 0 16 16"><path fill="none" stroke="#eed49f" stroke-linecap="round" stroke-linejoin="round" d="M3.311.5H7.04v3.729H3.311zm0 11.271H7.04V15.5H3.311zm5.648-5.636h3.729v3.729H8.959zm-2.02-2.018l2.056 2.056m-2.057 5.734L8.995 9.85"/></symbol><symbol id="hd-icon-catppuccin-puppeteer" viewBox="0 0 16 16"><path fill="none" stroke="#8087a2" stroke-linecap="round" stroke-linejoin="round" d="m12 2l.5 6M4 2l-.5 6"/><path fill="none" stroke="#cad3f5" stroke-linecap="round" stroke-linejoin="round" d="M3 10h10M4 8h8c.554 0 1 .446 1 1v5.5c0 .554-.446 1-1 1H4c-.554 0-1-.446-1-1V9c0-.554.446-1 1-1"/><path fill="none" stroke="#8bd5ca" stroke-linecap="round" stroke-linejoin="round" d="M6.5 3L3 4.5V5l1.5.5L8 4l3.5 1.5L13 5v-.5L9.5 3L13 1.5V1L11.5.5L8 2L4.5.5L3 1v.5Z"/></symbol><symbol id="hd-icon-catppuccin-python" viewBox="0 0 16 16"><g fill="none" stroke-linecap="round" stroke-linejoin="round"><path stroke="#8aadf4" d="M8.5 5.5h-3m6 0V3c0-.8-.7-1.5-1.5-1.5H7c-.8 0-1.5.7-1.5 1.5v2.5H3c-.8 0-1.5.7-1.5 1.5v2c0 .8.7 1.5 1.48 1.5"/><path stroke="#eed49f" d="M10.5 10.5h-3m-3 0V13c0 .8.7 1.5 1.5 1.5h3c.8 0 1.5-.7 1.5-1.5v-2.5H13c.8 0 1.5-.7 1.5-1.5V7c0-.8-.7-1.5-1.48-1.5H11.5c0 1.5 0 2-1 2h-2"/><path stroke="#8aadf4" d="M2.98 10.5H4.5c0-1.5 0-2 1-2h2m0-5"/></g></symbol><symbol id="hd-icon-catppuccin-python-compiled" viewBox="0 0 16 16"><g fill="none" stroke-linecap="round" stroke-linejoin="round"><path stroke="#cad3f5" d="M8.5 5.5h-3m6 0V3c0-.8-.7-1.5-1.5-1.5H7c-.8 0-1.5.7-1.5 1.5v2.5H3c-.8 0-1.5.7-1.5 1.5v2c0 .8.7 1.5 1.48 1.5"/><path stroke="#8087a2" d="M10.5 10.5h-3m-3 0V13c0 .8.7 1.5 1.5 1.5h3c.8 0 1.5-.7 1.5-1.5v-2.5H13c.8 0 1.5-.7 1.5-1.5V7c0-.8-.7-1.5-1.48-1.5H11.5c0 1.5 0 2-1 2h-2"/><path stroke="#cad3f5" d="M2.98 10.5H4.5c0-1.5 0-2 1-2h2m0-5"/></g></symbol><symbol id="hd-icon-catppuccin-python-config" viewBox="0 0 16 16"><path fill="none" stroke="#8087a2" stroke-linecap="round" stroke-linejoin="round" d="M11.5 13.5a1 1 0 1 0 0-2a1 1 0 0 0 0 2m1.75-4l1.75 3l-1.75 3h-3.5L8 12.5l1.75-3z"/><g fill="none" stroke-linecap="round" stroke-linejoin="round"><path stroke="#8aadf4" d="M6.961 4.192h-2.77m5.54 0V1.884C9.73 1.146 9.083.5 8.345.5h-2.77c-.738 0-1.384.646-1.384 1.384v2.308H1.884C1.146 4.192.5 4.838.5 5.577v1.846c0 .738.646 1.384 1.366 1.384"/><path stroke="#eed49f" d="M8.115 8.807H6.038m-2.77 0v2.308c0 .739.647 1.385 1.385 1.385h1.385m6.35-4.55c.071-.164.112-.343.112-.527V5.577c0-.739-.646-1.385-1.366-1.385H9.73c0 1.385 0 1.846-.923 1.846H6.961"/><path stroke="#8aadf4" d="M1.866 8.807h1.403c0-1.384 0-1.846.923-1.846h1.846m0-4.615"/></g></symbol><symbol id="hd-icon-catppuccin-qwik" viewBox="0 0 16 16"><g fill="none" stroke-linejoin="round"><path stroke="#c6a0f6" d="M4.16 2.1a72 72 0 0 0-2.2 4.12L5.8 1.55l5.22 5.49l-1.1.82l.55 4.12l2.47 2.47l-1.1-2.74s1.65-2.75 1.92-3.57c.28-.83.28-2.2.28-2.75s-1.65-2.74-2.2-3.57C11.3 1 11.02 1 10.74 1H6.09c-.55 0-1.37.27-1.92 1.1Z"/><path stroke="#91d7e3" d="M2.41 6.49c.44-.66 2.56-3.2 3.57-4.4l.55 4.13l-1.1 1.37L13.12 15c-1.37-.37-4.94-1.65-6.04-1.65s-1.89.07-2.2-.55c-.27-.55-2.47-3.56-2.74-4.39c-.16-.47-.4-.9.27-1.92Z"/></g></symbol><symbol id="hd-icon-catppuccin-r" viewBox="0 0 16 16"><g fill="none" stroke-linecap="round" stroke-linejoin="round"><path stroke="#8087a2" d="M13.5 9.5c.63-.7 1-1.54 1-2.43c0-2.52-2.91-4.57-6.5-4.57S1.5 4.55 1.5 7.07c0 1.9 1.65 3.53 4 4.22"/><path stroke="#8aadf4" d="M10.5 9.5c.4 0 .86.34 1 .7l1 3.3m-5 0v-8h3.05c.95 0 1.95 1 1.95 2s-1 2-1.95 2H7.5Z"/></g></symbol><symbol id="hd-icon-catppuccin-racket" viewBox="0 0 16 16"><g fill="none" stroke-linecap="round" stroke-linejoin="round"><path stroke="#8aadf4" d="M13.11 12.01A6.5 6.5 0 0 0 5.77 1.9c2.65 1.38 6.14 5.9 7.34 10.12h0Z"/><path stroke="#ed8796" d="M7.07 5.65A11.3 11.3 0 0 0 3.72 3.1a6.48 6.48 0 0 0-.61 9.17c.88-2.65 2.54-5.2 3.96-6.63Zm1.2 1.47a15.15 15.15 0 0 0-3.32 6.62a6.47 6.47 0 0 0 6.18-.04a17.9 17.9 0 0 0-2.86-6.58"/></g></symbol><symbol id="hd-icon-catppuccin-razor" viewBox="0 0 16 16"><path fill="none" stroke="#c6a0f6" stroke-linecap="round" stroke-linejoin="round" d="M10.5 8v1c0 .67.4 1.21.97 1.55c.58.34 1.53.34 2.1 0c.58-.34.94-.95.93-1.62V8a6.5 6.5 0 1 0-2.79 5.33M10.5 8a2.5 2.5 0 1 1-5 0a2.5 2.5 0 0 1 5 0"/></symbol><symbol id="hd-icon-catppuccin-rdata" viewBox="0 0 16 16"><path fill="none" stroke="#8aadf4" stroke-linecap="round" stroke-linejoin="round" stroke-width=".79" d="M10.5 9.5c.4 0 .86.34 1 .7l1 3.3m-5 0v-8h3.05c.95 0 1.95 1 1.95 2s-1 2-1.95 2H7.5Z" transform="matrix(1.26652 0 0 1.26466 -1.313 -1.572)"/><path fill="none" stroke="#8087a2" stroke-linecap="round" stroke-linejoin="round" d="M5.65 4.133c2.303 0 4.17-1.017 4.17-1.947S7.953.5 5.65.5s-4.169.756-4.169 1.686s1.867 1.947 4.17 1.947m.538 2.898q-.269.014-.539.014c-.72 0-1.44-.074-2.084-.223c-1.29-.298-2.085-.996-2.085-1.599M6.19 9.928q-.269.015-.539.015a9.2 9.2 0 0 1-2.084-.23c-1.29-.29-2.085-.85-2.085-1.453m0-6.03v6.03M9.82 2.23v1.507"/></symbol><symbol id="hd-icon-catppuccin-readme" viewBox="0 0 16 16"><g fill="none" stroke="#8bd5ca" stroke-linecap="round" stroke-linejoin="round"><path d="M8 14.5a6.5 6.5 0 1 0 0-13a6.5 6.5 0 0 0 0 13"/><path d="M7 7.5h2v5H7Zm2-3a1 1 0 0 1-1 1a1 1 0 0 1-1-1a1 1 0 0 1 1-1a1 1 0 0 1 1 1"/></g></symbol><symbol id="hd-icon-catppuccin-reason" viewBox="0 0 16 16"><g fill="none" stroke="#ed8796" stroke-linecap="round" stroke-linejoin="round"><path d="M3.5 1.5h9a2 2 0 0 1 2 2v9a2 2 0 0 1-2 2h-9a2 2 0 0 1-2-2v-9c0-1.1.9-2 2-2m7 9h2"/><path d="M13 7.5h-2.5v5H13m-6-2l1.5 2m-3 0l-.02-5H7c.75 0 1.5.5 1.5 1.5s-.75 1.5-1.5 1.5H5.5"/></g></symbol><symbol id="hd-icon-catppuccin-redwood" viewBox="0 0 16 16"><path fill="none" stroke="#f5a97f" stroke-linecap="round" stroke-linejoin="round" d="M4.74 3.19v-.65L8 1l3.26 1.54v.65m-6.52 0L8 5.56M4.74 3.19L2.19 5.56m5.81 0L4.74 7.77M8 5.56l3.26-2.37M8 5.56l3.26 2.21m-6.52 0l3.26 3m-3.26-3L2.19 5.56m2.55 2.21L1.99 9.45M8 10.76L4.74 12.5M8 10.76l3.26-2.99m-3.26 3l3.26 1.72m-6.52 0L8 15l3.26-2.51m-6.52 0H3.5L2 9.45m.2-3.9l-.7 2.92l.5 1m9.26-6.27l2.55 2.37m-2.55 2.21l2.55-2.21m-2.55 2.21l2.75 1.68m-2.75 3.04h1.23L14 9.45m-.2-3.9l.69 2.91l-.5 1"/></symbol><symbol id="hd-icon-catppuccin-release" viewBox="0 0 16 16"><path fill="none" stroke="#ed8796" stroke-linecap="round" stroke-linejoin="round" d="M6.047 5.892C2.637 5.334 1.5 8.682 1.5 8.682l2.842.557m5.928.798c.568 3.347-2.842 4.463-2.842 4.463l-.568-2.79"/><path fill="none" stroke="#7dc4e4" stroke-linecap="round" stroke-linejoin="round" d="M8.888 7.008a1.607 1.578 0 1 1 2.274-2.231a1.607 1.578 0 0 1-2.274 2.23"/><path fill="none" stroke="#eed49f" stroke-linecap="round" stroke-linejoin="round" d="M2.637 10.913c-1.137 1.115-.569 2.789-.569 2.789s1.705.558 2.842-.558"/><path fill="none" stroke="#cad3f5" stroke-linecap="round" stroke-linejoin="round" d="m11.535 8.94l-4.92 2.53l-2.273-2.23l2.577-4.83a4.82 4.82 0 0 1 3.684-2.502l3.356-.405a.478.478 0 0 1 .538.528l-.413 3.294a4.74 4.74 0 0 1-2.549 3.616"/></symbol><symbol id="hd-icon-catppuccin-remix" viewBox="0 0 16 16"><path fill="none" stroke="#cad3f5" stroke-linecap="round" stroke-linejoin="round" d="M10.5 14.5c0-1.67 0-3-2-3h-6v-3h6.63c.97 0 1.37-.67 1.37-1.5s-.32-1.5-1.38-1.5H2.5v-3h8c2.4 0 3 2.33 3 4s-.67 2.5-2 3.5c1.33.66 2 2.17 2 4.5m-11 0H8"/></symbol><symbol id="hd-icon-catppuccin-renovate" viewBox="0 0 16 16"><g fill="none" stroke-linecap="round" stroke-linejoin="round"><path stroke="#cad3f5" d="M11.28 11.04c-.2-.3-.33-.53-.25-.85c.05-.2.17-.38.31-.52C12.62 8.41 13.76 7.32 14.8 6c.09-.12.13-.27.17-.41c.03-.12.03-.25.03-.38c0-.12-.01-.24-.05-.35a6.9 6.9 0 0 0-1.4-2.18c-.14-.1-.28-.2-.44-.27a1.1 1.1 0 0 0-.36-.09c-.16 0-.33.01-.48.05c-.17.05-.29.13-.46.23m.31 12.15l-1.34-2.26a.7.7 0 0 1-.08-.56a.73.73 0 0 1 .35-.44l.77-.43a.77.77 0 0 1 1.02.27l1.34 2.26"/><path stroke="#8bd5ca" d="m2.63 5.4l6.41-3.6c.91-.52 2.06-.2 2.59.69A1.83 1.83 0 0 1 10.95 5L4.54 8.62c-.9.51-2.06.2-2.59-.7a1.83 1.83 0 0 1 .68-2.52"/></g></symbol><symbol id="hd-icon-catppuccin-rescript" viewBox="0 0 16 16"><g fill="none" stroke="#ed8796" stroke-linecap="round" stroke-linejoin="round"><path d="M3.5 1.5h9a2 2 0 0 1 2 2v9a2 2 0 0 1-2 2h-9a2 2 0 0 1-2-2v-9c0-1.1.9-2 2-2"/><path d="M5.5 4.55c.83 0 1.5.67 1.5 1.5v4a1.5 1.5 0 1 1-3 0v-4c0-.83.67-1.5 1.5-1.5M12 6a1.5 1.5 0 0 1-1.5 1.5A1.5 1.5 0 0 1 9 6a1.5 1.5 0 0 1 1.5-1.5A1.5 1.5 0 0 1 12 6"/></g></symbol><symbol id="hd-icon-catppuccin-rmd" viewBox="0 0 16 16"><path fill="none" stroke="#8aadf4" stroke-linecap="round" stroke-linejoin="round" d="M7.008 15.04s.816-6.045 3.515-8.38c2.83-2.446 4.302-.674 4.302-.674s2.896 2.756-5.399 5.68c0 0 1.912 4.218 6.074 2.98"/><path fill="none" stroke="#8aadf4" stroke-linecap="round" stroke-linejoin="round" d="M.5 15.048a6.5 6.5 0 0 1 1.616-2.932S4.253.84 13.897.952l-1.153 2.812S8.02 4.411 5.8 11.807c0 0-1.855.534-3.683.309"/></symbol><symbol id="hd-icon-catppuccin-roblox" viewBox="0 0 16 16"><path fill="none" stroke="#cad3f5" stroke-linecap="round" stroke-linejoin="round" d="M11.752 14.5L1.5 11.734L4.249 1.5L14.5 4.266ZM9.814 6.965l-2.862-.787l-.766 2.857l2.862.787Z"/></symbol><symbol id="hd-icon-catppuccin-robots" viewBox="0 0 16 16"><g fill="none" stroke="#c6a0f6" stroke-linecap="round" stroke-linejoin="round"><path d="M3.5 5.5h9a1 1 0 0 1 1 1v7a1 1 0 0 1-1 1h-9a1 1 0 0 1-1-1v-7a1 1 0 0 1 1-1"/><path d="M6.5 9a.5.5 0 0 1-.5.5a.5.5 0 0 1-.5-.5a.5.5 0 0 1 .5-.5a.5.5 0 0 1 .5.5m4 0a.5.5 0 0 1-.5.5a.5.5 0 0 1-.5-.5a.5.5 0 0 1 .5-.5a.5.5 0 0 1 .5.5M8 5.5v-2m-7.5 5v3m15-3v3M9 2.5a1 1 0 0 1-1 1a1 1 0 0 1-1-1a1 1 0 0 1 1-1a1 1 0 0 1 1 1m-2.5 10h3"/></g></symbol><symbol id="hd-icon-catppuccin-rocket" viewBox="0 0 16 16"><path fill="none" stroke="#ed8796" stroke-linecap="round" stroke-linejoin="round" d="M3.168 9.715c.025.52.327 1.171.605 1.58l-.862.837c-.091.096-.017.176.09.29l.747.788c.103.115.173.187.268.093l.935-.904c.225.103.98.43 1.774.388m1.088-.899l-.421.413c-.04.039-.11.096-.154.127l-.51.355l1.024 2.595a.2.2 0 0 0 .119.114a.2.2 0 0 0 .078.006a.13.13 0 0 0 .066-.033l2.019-1.843a.14.14 0 0 0 .043-.085l.345-2.65a15 15 0 0 0 1.653-1.589c3.135-3.467 3.487-6.379 3.418-7.805c-.023-.47-.092-.735-.094-.746a.2.2 0 0 0-.136-.136c-.166-.045-4.129-1.04-8.996 3.665c-.006.007-.637.64-1.306 1.547l-2.592.49a.13.13 0 0 0-.078.045L.531 8.46a.14.14 0 0 0-.03.068a.2.2 0 0 0 .009.08a.2.2 0 0 0 .113.119l2.548.984l.399-.454q.067-.073.142-.136l.453-.365m4.433-3.861c.79-.765 1.966-.817 2.626-.116c.661.7.556 1.888-.234 2.652s-1.966.816-2.626.116c-.661-.7-.556-1.888.234-2.652" clip-rule="evenodd"/></symbol><symbol id="hd-icon-catppuccin-rojo" viewBox="0 0 16 16"><path fill="none" stroke="#ed8796" stroke-linecap="round" stroke-linejoin="round" d="m2.438 12.065l4.12-10.127m-2.581.897s4.842-2.752 6.86-.352c1.539 2.275-6.443 5.255-6.443 5.255S3.96 9.79 13.562 14.5"/></symbol><symbol id="hd-icon-catppuccin-rokit" viewBox="0 0 16 16"><path fill="none" stroke="#ed8796" stroke-linecap="round" stroke-linejoin="round" d="M2.148 11.38C.912 12.417.5 15.5.5 15.5s3.082-.412 4.12-1.648c.586-.693.578-1.756-.073-2.399a1.797 1.797 0 0 0-2.399-.074m5.11-.165L4.786 8.742c.438-1.138.99-2.229 1.648-3.256A10.62 10.62 0 0 1 15.5.5c0 2.242-.643 6.181-4.945 9.066a18.5 18.5 0 0 1-3.297 1.648"/><path fill="none" stroke="#ed8796" stroke-linecap="round" stroke-linejoin="round" d="M4.786 8.742H.665s.453-2.497 1.648-3.297c1.335-.89 4.121 0 4.121 0m.824 5.77v4.12s2.498-.453 3.297-1.648c.89-1.335 0-4.121 0-4.121"/></symbol><symbol id="hd-icon-catppuccin-rollup" viewBox="0 0 16 16"><g fill="none" stroke-linecap="round" stroke-linejoin="round"><path stroke="#ed8796" d="M4.37 14.5h9.13l-2-5c1.36-1.08 2-2.13 2-4c0-2.4-2.25-3.97-4-4h-7v11.3"/><path stroke="#eed49f" d="M11.46 6.2c-3.25 3.32-4.37 4.25-7.2 8.3c-1.03-.13-1.67-.61-1.74-1.55c-.36-.35 4.87-8.22 5.42-9.16c.6-1 2.55-2.22 3.78-1.4c-1.18-.38-2.58.56-2.41 1.5l.47 1.89c.34.58.66.8 1.18.73c.56-.16.67-.53.63-1l-.36-.99"/></g></symbol><symbol id="hd-icon-catppuccin-root" viewBox="0 0 16 16"><g fill="none" stroke="#cad3f5" stroke-linecap="round" stroke-linejoin="round"><path d="M4.5 4.5H12A1.5 1.5 0 0 1 13.5 6v.5m-7.5 7H2A1.5 1.5 0 0 1 .5 12V3.5a1 1 0 0 1 1-1h5a1 1 0 0 1 1 1v1"/><circle cx="11.5" cy="12" r="3"/><circle cx="11.5" cy="12" r=".5"/></g></symbol><symbol id="hd-icon-catppuccin-root-open" viewBox="0 0 16 16"><path fill="none" stroke="#cad3f5" stroke-linecap="round" stroke-linejoin="round" d="m1.875 8l.686-2.743a1 1 0 0 1 .97-.757h10.938a1 1 0 0 1 .97 1.243l-.315 1.26M6 13.5H2.004A1.5 1.5 0 0 1 .5 12V3.5a1 1 0 0 1 1-1h5a1 1 0 0 1 1 1v1"/><circle cx="11.5" cy="12" r="3" fill="none" stroke="#cad3f5" stroke-linecap="round" stroke-linejoin="round"/><circle cx="11.5" cy="12" r=".5" fill="none" stroke="#cad3f5" stroke-linecap="round" stroke-linejoin="round"/></symbol><symbol id="hd-icon-catppuccin-rproj" viewBox="0 0 16 16"><path fill="none" stroke="#8aadf4" stroke-linecap="round" stroke-linejoin="round" stroke-width=".79" d="M5.651 10.337V4.801h2.06c.642 0 1.317.692 1.317 1.384S8.353 7.57 7.711 7.57h-2.06Zm2.026-2.768c.27 0 .581.235.676.485l.675 2.283h.85" transform="matrix(1.26652 0 0 1.26466 -1.313 -1.572)"/><circle cx="8" cy="8" r="7.5" fill="none" stroke="#8aadf4" stroke-linecap="round" stroke-linejoin="round"/><path fill="none" stroke="#8aadf4" stroke-linecap="round" stroke-linejoin="round" d="M6.958 11.5H4.802m1.96-7h-1.96"/></symbol><symbol id="hd-icon-catppuccin-rsml" viewBox="0 0 16 16"><g fill="none" stroke-linecap="round" stroke-linejoin="round"><path stroke="#91d7e3" d="m6.785 9.2l-.599-.165l.383-1.429l-3.695-.99L1.5 11.735l2.152.58Z"/><path stroke="#a6da95" d="m3.652 12.315l3.133-3.116l1.653.455l1.137 4.259Z"/><path stroke="#eed49f" d="M9.575 13.913L8.438 9.654l.61.168l.383-1.428l3.695.99l-1.374 5.116Z"/><path stroke="#ed8796" d="m9.43 8.394l.384-1.429L9.21 6.8l3.084-3.128l2.206.595l-1.374 5.117z"/><path stroke="#f5bde6" d="m9.21 6.8l3.084-3.13l-5.875-1.585l1.136 4.259Z"/><path stroke="#8aadf4" d="m6.57 7.606l.382-1.428l.603.166L6.42 2.085L4.249 1.5L2.874 6.617Z"/></g></symbol><symbol id="hd-icon-catppuccin-ruby" viewBox="0 0 16 16"><path fill="none" stroke="#ed8796" stroke-linecap="round" stroke-linejoin="round" d="M1.5 9.06v2.5c.02.86.36 1.61.9 2.15c1.76 1.76 5.71.65 8.84-2.47c3.12-3.13 4.23-7.08 2.47-8.84a3.1 3.1 0 0 0-2.15-.9h-2.5M14.5 4l-.25 10.25L4 14.5m4.39-6.11c2.34-2.35 3.29-5.2 2.12-6.37S6.49 1.8 4.14 4.14C1.8 6.5.85 9.34 2.02 10.51s4.02.22 6.37-2.12M5.5 14.5l.25-3.75L11 11l-.25-5.25l3.75-.25"/></symbol><symbol id="hd-icon-catppuccin-ruby-gem" viewBox="0 0 16 16"><g fill="none" stroke="#ed8796" stroke-linecap="round" stroke-linejoin="round"><path d="m8 12.5l4.5-5l-2-2h-5l-2 2z"/><path d="M14.5 12L8 15.5L1.5 12V4L8 .5L14.5 4z"/></g></symbol><symbol id="hd-icon-catppuccin-ruby-gem-lock" viewBox="0 0 16 16"><g fill="none" stroke-linecap="round" stroke-linejoin="round"><path stroke="#ed8796" d="m6 10.5l3.5-4l-1.5-2H4l-1.5 2z"/><path stroke="#ed8796" d="M7.5 12.68L6 13.5l-5.5-3v-7L6 .5l5.5 3v3"/><path stroke="#8087a2" d="M15 11.5c.27 0 .5.22.5.5v3a.5.5 0 0 1-.5.5h-5a.5.5 0 0 1-.5-.5v-3c0-.28.22-.5.5-.5zm-4 0V10a1.5 1.5 0 0 1 3 0v1.5"/></g></symbol><symbol id="hd-icon-catppuccin-ruff" viewBox="0 0 16 16"><path fill="none" stroke="#a6da95" stroke-linecap="round" stroke-linejoin="round" d="M6.958 1.5a.22.22 0 0 0-.224.217v.65c0 .12-.1.216-.224.216h-.627a.22.22 0 0 0-.224.217v1.733c0 .12-.1.217-.224.217h-.627a.22.22 0 0 0-.225.217v1.191c0 .12-.1.217-.224.217h-.627a.22.22 0 0 0-.224.217v1.191c0 .12-.1.217-.224.217h-.56a.22.22 0 0 0-.224.217v.65c0 .12.1.216.224.216h2.912a.22.22 0 0 1 .224.217v1.192c0 .12-.1.216-.224.216H5.01a.22.22 0 0 0-.224.217v1.192c0 .12-.1.216-.224.216h-.627a.22.22 0 0 0-.224.217v1.733c0 .12.1.217.224.217h1.792a.22.22 0 0 0 .224-.217v-.866h.896a.22.22 0 0 0 .224-.217v-.65c0-.12.1-.217.224-.217h.628a.22.22 0 0 0 .224-.216v-.65c0-.12.1-.217.224-.217h.627a.22.22 0 0 0 .224-.217v-.65c0-.12.1-.216.224-.216h.627a.22.22 0 0 0 .224-.217V9.3c0-.12.1-.217.224-.217h.628a.22.22 0 0 0 .224-.216v-.65c0-.12.1-.217.224-.217h.627a.22.22 0 0 0 .224-.217V6.05a.22.22 0 0 0-.224-.217h-.65a.22.22 0 0 1-.224-.216v-.65c0-.12.1-.217.224-.217h.628a.22.22 0 0 0 .224-.217v-.65c0-.12.1-.216.224-.216h.627a.22.22 0 0 0 .224-.217V1.717a.22.22 0 0 0-.224-.217Z" clip-rule="evenodd"/></symbol><symbol id="hd-icon-catppuccin-rust" viewBox="0 0 16 16"><g fill="none" stroke="#f5a97f" stroke-linecap="round" stroke-linejoin="round"><path d="M15.5 9.5Q8 13.505.5 9.5l1-1l-1-2l2-.5V4.5h2l.5-2l1.5 1l1.5-2l1.5 2l1.5-1l.5 2h2V6l2 .5l-1 2z"/><path d="M6.5 7.5a1 1 0 0 1-1 1a1 1 0 0 1-1-1a1 1 0 0 1 1-1a1 1 0 0 1 1 1m5 0a1 1 0 0 1-1 1a1 1 0 0 1-1-1a1 1 0 0 1 1-1a1 1 0 0 1 1 1M4 11.02c-.67.37-1.5.98-1.5 2.23s1.22 1.22 2 1.25v-2M12 11c.67.37 1.5 1 1.5 2.25s-1.22 1.22-2 1.25v-2"/></g></symbol><symbol id="hd-icon-catppuccin-rust-alt" viewBox="0 0 16 16"><path fill="none" stroke="#f5a97f" stroke-linecap="round" stroke-linejoin="round" d="M2.165 11.219h4.158M2.505 4.788h7.143c2.2-.001 2.2 3.214 0 3.215H4.703m0-3.215v6.431M8 8.003h1.099c1.214 0 2.198.96 2.198 2.144c0 .592.492 1.072 1.099 1.072h1.217M8 .5l1.477 1.19l1.86-.447l.803 1.698l1.874.385l-.033 1.868l1.519 1.14l-.863 1.67l.862 1.67l-1.519 1.139l.033 1.868l-1.876.385l-.8 1.698l-1.861-.448L8 15.506l-1.477-1.19l-1.86.448l-.803-1.698l-1.874-.385l.033-1.868L.5 9.673l.863-1.67L.5 6.333l1.519-1.138l-.033-1.868l1.874-.385l.803-1.698l1.86.447Z"/></symbol><symbol id="hd-icon-catppuccin-rust-alt-config" viewBox="0 0 16 16"><path fill="none" stroke="#8087a2" stroke-linecap="round" stroke-linejoin="round" d="M11.5 13.5a1 1 0 1 0 0-2a1 1 0 0 0 0 2m1.75-4l1.75 3l-1.75 3h-3.5L8 12.5l1.75-3z"/><path fill="none" stroke="#f5a97f" stroke-linecap="round" stroke-linejoin="round" d="M1.82 8.998h3.297M2.09 3.899h5.663c1.743 0 1.743 2.549 0 2.55h-3.92m0-2.55v5.099m2.613-2.55h.871c.962 0 1.742.761 1.742 1.7m-2.613 4.25l-1.171-.944l-1.475.354l-.636-1.346l-1.486-.305l.026-1.481L.5 7.773l.684-1.324L.5 5.125l1.204-.903l-.026-1.481l1.486-.305L3.8 1.09l1.475.354L6.445.5l1.172.943l1.475-.354l.636 1.346l1.486.305l-.026 1.481l1.204.904l-.684 1.324l.683 1.324"/></symbol><symbol id="hd-icon-catppuccin-rust-config" viewBox="0 0 16 16"><path fill="none" stroke="#8087a2" stroke-linecap="round" stroke-linejoin="round" d="M11.5 13.5a1 1 0 1 0 0-2a1 1 0 0 0 0 2m1.75-4l1.75 3l-1.75 3h-3.5L8 12.5l1.75-3z"/><g fill="none" stroke="#f5a97f" stroke-linecap="round" stroke-linejoin="round" stroke-width="1.252"><path d="M15.5 9.5Q8 13.505.5 9.5l1-1l-1-2l2-.5V4.5h2l.5-2l1.5 1l1.5-2l1.5 2l1.5-1l.5 2h2V6l2 .5l-1 2z" transform="matrix(.79989 0 0 .79796 .1 -.697)"/><path d="M6.5 7.5a1 1 0 1 1-2 0a1 1 0 0 1 2 0m5 0a1 1 0 1 1-2 0a1 1 0 0 1 2 0M4 11.02c-.67.37-1.5.98-1.5 2.23s1.22 1.22 2 1.25v-2M12 11c.168.093.345.201.517.332" transform="matrix(.79989 0 0 .79796 .1 -.697)"/></g></symbol><symbol id="hd-icon-catppuccin-salesforce" viewBox="0 0 16 16"><path fill="none" stroke="#91d7e3" stroke-linecap="round" stroke-linejoin="round" d="M12.058 4.418c-.445 0-.833.133-1.215.26c-.445-.77-1.279-1.278-2.176-1.278c-.7 0-1.336.318-1.788.763C6.37 3.527 5.6 3.075 4.71 3.075c-1.482 0-2.755 1.216-2.755 2.698c0 .375.134.757.261 1.139A2.34 2.34 0 0 0 1 8.954c0 1.273 1.024 2.367 2.303 2.367c.191 0 .382 0 .51-.063c.254.96 1.215 1.667 2.366 1.667c1.082 0 1.979-.643 2.297-1.54c.325.134.643.26.96.26c.834 0 1.598-.464 1.98-1.15c.197.05.4.05.579.05c1.66 0 3.003-1.33 3.003-3.054a2.93 2.93 0 0 0-2.94-3.073"/></symbol><symbol id="hd-icon-catppuccin-sass" viewBox="0 0 16 16"><path fill="none" stroke="#f5bde6" stroke-linecap="round" stroke-linejoin="round" d="M6.75 6.38c1.85 1.07 3.35.74 4.83-.2c1.5-.95 2.7-2.78 1.3-4.15c-.7-.68-3.25-.8-5.62.19c-2.36.99-4.59 3.02-4.74 4.11c-.31 2.19 3.15 2.88 3.64 4.23s.28 1.98-.2 2.83c-.5.85-1.96 1.62-2.8.68c-.83-.95 1.67-2.75 2.98-3.25c1.3-.5 3.1-.4 3.69.25c.58.64-.07 1.79-.03 1.79"/></symbol><symbol id="hd-icon-catppuccin-scala" viewBox="0 0 16 16"><path fill="none" stroke="#ed8796" stroke-linecap="round" stroke-linejoin="round" d="m2.5 2.48l11-.98v3.04l-11 1zm0 5l11-.98v3.04l-11 1zm0 5l11-.98v3.04l-11 1z"/></symbol><symbol id="hd-icon-catppuccin-scheme" viewBox="0 0 16 16"><path fill="none" stroke="#cad3f5" stroke-linecap="round" stroke-linejoin="round" d="M1.933 15.5L8 7.063m6.067 8.437c-5.6 0-5.6-15-11.2-15"/></symbol><symbol id="hd-icon-catppuccin-search" viewBox="0 0 16 16"><path fill="none" stroke="#cad3f5" stroke-linecap="round" stroke-linejoin="round" d="M12.5 6.5a6 6 0 0 1-6 6a6 6 0 0 1-6-6a6 6 0 0 1 6-6a6 6 0 0 1 6 6m3 9L11 11"/></symbol><symbol id="hd-icon-catppuccin-security" viewBox="0 0 16 16"><path fill="none" stroke="#f0c6c6" stroke-linecap="round" stroke-linejoin="round" d="M4.75 5.738h.007m6.33 1.941H14.5l-2.275 4.53l-2.008-2.796"/><path fill="none" stroke="#f0c6c6" stroke-linecap="round" stroke-linejoin="round" d="m11.9 6.061l-2.6 5.177l-6.753-3.365a1.898 1.89 0 0 1-.845-2.53l.897-1.805a1.898 1.89 0 0 1 2.548-.842ZM1.5 12.21h2.444a1.3 1.294 0 0 0 1.17-.712L6.05 9.62M1.5 13.503v-2.588"/></symbol><symbol id="hd-icon-catppuccin-semantic-release" viewBox="0 0 16 16"><path fill="none" stroke="#cad3f5" stroke-linecap="round" stroke-linejoin="round" d="M1.5 11.5v-7L8 .5l6.5 4v7l-6.5 4zm6.5-2a1.5 1.5 0 1 0 0-3a1.5 1.5 0 0 0 0 3M1.75 7Q2.5 8.5 4 8.5m0 4.41c1.13.07 1.93-.33 2.43-1.2m3.83 2.2c.62-.93.67-1.83.17-2.7M14.25 9Q13.5 7.5 12 7.5m0-4.41c-1.13-.07-1.93.33-2.43 1.2m-3.83-2.2c-.62.93-.67 1.83-.17 2.7"/></symbol><symbol id="hd-icon-catppuccin-semgrep" viewBox="0 0 16 16"><path fill="none" stroke="#8bd5ca" stroke-linecap="round" stroke-linejoin="round" d="M3 10.5a2.5 2.5 0 1 0 0-5a2.5 2.5 0 0 0 0 5m5 0a2.5 2.5 0 1 0 0-5a2.5 2.5 0 0 0 0 5m5 0a2.5 2.5 0 1 0 0-5a2.5 2.5 0 0 0 0 5"/></symbol><symbol id="hd-icon-catppuccin-semgrep-ignore" viewBox="0 0 16 16"><path fill="none" stroke="#8087a2" stroke-linecap="round" stroke-linejoin="round" d="M3 10.5a2.5 2.5 0 1 0 0-5a2.5 2.5 0 0 0 0 5m5 0a2.5 2.5 0 1 0 0-5a2.5 2.5 0 0 0 0 5m5 0a2.5 2.5 0 1 0 0-5a2.5 2.5 0 0 0 0 5"/></symbol><symbol id="hd-icon-catppuccin-sentry" viewBox="0 0 16 16"><path fill="none" stroke="#c6a0f6" stroke-linecap="round" stroke-linejoin="round" d="M1.5 12.12c0 .26.07.52.22.74c.25.37.68.62 1.15.64H5.1c0-1.54-1.08-2.9-2.64-3.3l1.47-2.43A6.2 6.2 0 0 1 8 13.5h5.06c.48 0 .93-.24 1.2-.62c.26-.38.31-.85.13-1.28L9.26 3.2c-.25-.43-.74-.7-1.26-.7c-.53 0-1.01.27-1.27.7L5.4 5.39a8.91 8.91 0 0 1 5.5 8.12"/></symbol><symbol id="hd-icon-catppuccin-serverless" viewBox="0 0 16 16"><path fill="none" stroke="#ed8796" stroke-linecap="round" stroke-linejoin="round" d="m6.5 11.5l-1 2h9v-2zm2-4l-1 2h7v-2zm2-4l-1 2h5v-2zm-8 10l1-2h-2v2zm2-4l1-2h-4v2zm2-4l1-2h-6v2z"/></symbol><symbol id="hd-icon-catppuccin-shader" viewBox="0 0 16 16"><path fill="none" stroke="#c6a0f6" stroke-linecap="round" stroke-linejoin="round" d="M6.41 12c0 .9-.47 1.72-1.23 2.17c-.76.44-1.7.44-2.45 0A2.5 2.5 0 0 1 1.5 12c0-1.38 1.1-2.5 2.46-2.5A2.48 2.48 0 0 1 6.4 12h0Zm3.78-7.23A2.85 2.85 0 0 0 4.6 3.6a2.9 2.9 0 0 0 1.77 3.5c2.19.88 2.7 1.75 2.43 4.13a2.85 2.85 0 0 0 5.58 1.17a2.9 2.9 0 0 0-1.77-3.5c-2.19-.88-2.7-1.76-2.43-4.13h0Z"/></symbol><symbol id="hd-icon-catppuccin-sketch" viewBox="0 0 16 16"><path fill="none" stroke="#f5a97f" stroke-linecap="round" stroke-linejoin="round" d="m.7 6.9l6.67 7.32c.34.37.91.37 1.24 0l6.67-7.32c.26-.29.3-.72.07-1.04l-2.94-4a.83.83 0 0 0-.69-.36H4.28a.83.83 0 0 0-.68.36l-2.95 4A.84.84 0 0 0 .72 6.9zm1.8-.4h11m-1.5 0L9 3M4 6.5L7 3m0 8.5l-3-5m8 0l-3 5m3-5l-.5-3M4 6.5l.5-3"/></symbol><symbol id="hd-icon-catppuccin-slidesk" viewBox="0 0 16 16"><ellipse cx="9.785" cy="3.453" fill="none" stroke="#8087a2" rx="2.945" ry="2.953"/><ellipse cx="8" cy="10.895" fill="none" stroke="#8087a2" rx="7.177" ry="4.605"/><path fill="none" stroke="#cad3f5" d="M8 6.29c3.964 0 7.177 2.062 7.177 4.605S11.964 15.5 8 15.5c-2.742 0-5.125-.987-6.333-2.437"/><path fill="none" stroke="#cad3f5" stroke-linecap="round" d="M9.31 6.368C5.933 5.98 3.936 7.1 3.76 7.914c-.305 1.422 1.527 1.906 3.08 2.454c2.155.76 2.316 2.167 1.703 3.245c-.93 1.64-5.342 1.68-7.15-.915"/><path fill="none" stroke="#8087a2" stroke-linecap="round" stroke-linejoin="round" d="m12.73 3.24l1.085.01m-3.534-.281"/></symbol><symbol id="hd-icon-catppuccin-snowpack" viewBox="0 0 16 16"><g fill="none" stroke="#7dc4e4" stroke-linecap="round" stroke-linejoin="round"><path d="M1.5 13.5h13L8 2z"/><path d="m5 8l1.5 1.5l1.5-2h3"/></g></symbol><symbol id="hd-icon-catppuccin-solid" viewBox="0 0 16 16"><path fill="none" stroke="#8aadf4" stroke-linecap="round" stroke-linejoin="round" d="M1.5 11.575Q6.05 14.5 8 14.5c1.625 0 2.6-.975 2.6-2.275S9.625 9.95 8 9.95q-1.95 0-6.5 1.625"/><path fill="none" stroke="#8aadf4" stroke-linecap="round" stroke-linejoin="round" d="M3.45 8.975Q8 7.35 9.95 7.35c1.625 0 2.6.975 2.6 2.275c0 .48-.133.915-.382 1.274l-1.874 2.486m4.206-8.96C11.9 2.475 9.3 1.5 8 1.5c-1.326 0-1.702.301-2.222 1.004M1.5 11.575l1.95-2.6m11.05-4.55l-1.95 2.6m-6.772-4.52l-1.92 2.411"/><path fill="none" stroke="#8aadf4" stroke-linecap="round" stroke-linejoin="round" d="M5.02 8.43c-.981-.31-1.57-.961-1.57-2.055c0-1.625.975-2.275 2.6-2.275c1.097 0 3.307.694 5.329 2.083a75 75 0 0 1 1.171.842l-1.496.51"/></symbol><symbol id="hd-icon-catppuccin-solidity" viewBox="0 0 16 16"><path fill="none" stroke="#c6a0f6" stroke-linecap="round" stroke-linejoin="round" d="m3 11.5l2.5 4l2.5-4l2.5 4l2.5-4l-2.5-4l-2.5 4m2.5 4h-5m7.5-4H3m10-7l-2.5-4l-2.5 4l-2.5-4l-2.5 4l2.5 4l2.5-4M5.5.5h5M3 4.5h10"/></symbol><symbol id="hd-icon-catppuccin-sonar-cloud" viewBox="0 0 16 16"><g fill="none" stroke="#f5a97f" stroke-linecap="round" stroke-linejoin="round"><path d="M8 7.38a4 4 0 1 0 0 6.24"/><path d="M6.5 10.5a4 4 0 1 0 5.49-3.71"/><path d="M9.5 10.21A4 4 0 1 0 4 6.8"/></g></symbol><symbol id="hd-icon-catppuccin-spwn" viewBox="0 0 16 16"><g fill="none"><path stroke="#a6da95" d="M5.5 6a4.5 4.5 0 1 0 4.5 4.5"/><path stroke="#f5bde6" d="M10 11a5 5 0 1 0-5-5"/><path stroke="#cad3f5" d="m8.803 10.096l-.353-.353l-.354.353l-1.914 1.914a.5.5 0 0 1-.707 0L4.06 10.596a.5.5 0 0 1 0-.707l1.914-1.914l.353-.354l-.353-.353l-.914-.914a.5.5 0 0 1 .353-.854H10a.5.5 0 0 1 .5.5v4.586a.5.5 0 0 1-.854.353z"/></g></symbol><symbol id="hd-icon-catppuccin-squirrel" viewBox="0 0 16 16"><path fill="none" stroke="#f4dbd6" stroke-linecap="round" stroke-linejoin="round" d="M2.284 8.457h11.381s1.086-5.521-5.47-5.521c-6.555 0-5.911 5.52-5.911 5.52"/><path fill="none" stroke="#f4dbd6" stroke-linecap="round" stroke-linejoin="round" d="M7.331.5s1.166 1.279.704 3.268M3.26 8.518s.351 6.941 4.634 6.982c4.283.04 4.838-6.881 4.838-6.881"/></symbol><symbol id="hd-icon-catppuccin-stackblitz" viewBox="0 0 16 16"><path fill="none" stroke="#8aadf4" stroke-linecap="round" stroke-linejoin="round" d="m3.5 9.5l7.04-9l-2.04 6h4l-7.04 9l2.04-6z"/></symbol><symbol id="hd-icon-catppuccin-stata" viewBox="0 0 16 16"><rect width="13" height="13" x="1.5" y="1.5" fill="none" stroke="#7dc4e4" rx=".722" ry=".722"/><path fill="none" stroke="#cad3f5" stroke-linecap="round" stroke-linejoin="round" d="M3.5 12.5h6v-9h3v6h-9v-3h9v-3h-6v9zv-3"/></symbol><symbol id="hd-icon-catppuccin-stencil" viewBox="0 0 16 16"><path fill="none" stroke="#b7bdf8" stroke-linecap="round" stroke-linejoin="round" d="M14.5 6.5H4l-2.5 3H12zm-8 5h5l-2.5 3H4zM8 1.5h5l-2.5 3h-5z"/></symbol><symbol id="hd-icon-catppuccin-stitches" viewBox="0 0 16 16"><g fill="none" stroke="#cad3f5" stroke-linecap="round" stroke-linejoin="round"><path d="m6.23 14.25l8.08-4.66M4.09 13.18l6.9-3.99L8.59 5"/><path d="M7.54 11.2L5.1 6.96l6.96-4.01"/><path d="M14.5 8A6.5 6.5 0 0 1 8 14.5A6.5 6.5 0 0 1 1.5 8A6.5 6.5 0 0 1 8 1.5A6.5 6.5 0 0 1 14.5 8M1.66 6.64L10 1.83M6.85 6.01l2.4 4.14"/></g></symbol><symbol id="hd-icon-catppuccin-storybook" viewBox="0 0 16 16"><g fill="none" stroke-linecap="round" stroke-linejoin="round"><path stroke="#cad3f5" d="M6.5 10.1c.45 1.05 1.23 1.4 2.46 1.4h-.21c1.35 0 2.25-.68 2.25-1.7c0-.84-.62-1.26-1.61-1.64L7.91 7.6c-.86-.33-1.41-1-1.41-1.73c0-.68.78-1.26 1.67-1.33l.36-.03c1.14-.1 2.24.53 2.47 1.39"/><path stroke="#f5bde6" d="M3.5 2.5L4 14l9.5.5v-13zm8-.75v1.5"/></g></symbol><symbol id="hd-icon-catppuccin-storybook-svelte" viewBox="0 0 16 16"><g fill="none" stroke-linecap="round" stroke-linejoin="round"><path stroke="#cad3f5" d="M6.5 10.1c.45 1.05 1.23 1.4 2.46 1.4h-.21c1.35 0 2.25-.68 2.25-1.7c0-.84-.62-1.26-1.61-1.64L7.91 7.6c-.86-.33-1.41-1-1.41-1.73c0-.68.78-1.26 1.67-1.33l.36-.03c1.14-.1 2.24.53 2.47 1.39"/><path stroke="#f5a97f" d="M3.5 2.5L4 14l9.5.5v-13zm8-.75v1.5"/></g></symbol><symbol id="hd-icon-catppuccin-storybook-vue" viewBox="0 0 16 16"><g fill="none" stroke-linecap="round" stroke-linejoin="round"><path stroke="#cad3f5" d="M6.5 10.1c.45 1.05 1.23 1.4 2.46 1.4h-.21c1.35 0 2.25-.68 2.25-1.7c0-.84-.62-1.26-1.61-1.64L7.91 7.6c-.86-.33-1.41-1-1.41-1.73c0-.68.78-1.26 1.67-1.33l.36-.03c1.14-.1 2.24.53 2.47 1.39"/><path stroke="#a6da95" d="M3.5 2.5L4 14l9.5.5v-13zm8-.75v1.5"/></g></symbol><symbol id="hd-icon-catppuccin-stylelint" viewBox="0 0 16 16"><g fill="none" stroke="#cad3f5" stroke-linecap="round" stroke-linejoin="round"><path d="M11.5 3.48L12 1.5h1.5l2 2l-1.5 1L15 6l-7 9.5l2.72-9.32M6.5 3.5l-2-1v4l2-1"/><path d="m9.5 3.5l2-1v4l-2-1m-5-2.02L4 1.5H2.5l-2 2l1.5 1L1 6l7 9.5l-2.72-9.33M8.5 8a.5.5 0 0 1-.5.5a.5.5 0 0 1-.5-.5a.5.5 0 0 1 .5-.5a.5.5 0 0 1 .5.5"/><path d="M6.5 3.5h3v2h-3z"/></g></symbol><symbol id="hd-icon-catppuccin-stylelint-ignore" viewBox="0 0 16 16"><g fill="none" stroke="#8087a2" stroke-linecap="round" stroke-linejoin="round"><path d="M11.5 3.48L12 1.5h1.5l2 2l-1.5 1L15 6l-7 9.5l2.72-9.32M6.5 3.5l-2-1v4l2-1"/><path d="m9.5 3.5l2-1v4l-2-1m-5-2.02L4 1.5H2.5l-2 2l1.5 1L1 6l7 9.5l-2.72-9.33M8.5 8a.5.5 0 0 1-.5.5a.5.5 0 0 1-.5-.5a.5.5 0 0 1 .5-.5a.5.5 0 0 1 .5.5"/><path d="M6.5 3.5h3v2h-3z"/></g></symbol><symbol id="hd-icon-catppuccin-stylua" viewBox="0 0 16 16"><path fill="none" stroke="#f5bde6" stroke-linecap="round" stroke-linejoin="round" d="M5.67 2.5s-.298-.014-.741 0c-.502-.008-1.061.38-1.065 1.002c-.004.66.798.838 1.056.967c.257.128 1.054.248 1.092 1.009c.024.472-.342 1.02-1.264 1.03c-.71.009-1.077.001-1.077.001M8.5 2.5v4.009"/><path fill="none" stroke="#cad3f5" stroke-linecap="round" stroke-linejoin="round" d="M7.533 9.482v3.376H9.08m1.378-2.799v2.118s.093.68.918.68s.817-.68.817-.68v-2.118m1.661-.005h.665s.98-.102.98.778v1.948"/><path fill="none" stroke="#cad3f5" stroke-linecap="round" stroke-linejoin="round" d="M15.495 11.392h-1.258s-.595.1-.595.733c0 .701.631.733.631.733h1.222"/><path fill="none" stroke="#8087a2" stroke-linecap="round" stroke-linejoin="round" d="M5.432 8.525v4.81M.5 2.687V6.55m0 2.456v3.862"/><path fill="none" stroke="#f5bde6" stroke-linecap="round" stroke-linejoin="round" d="M7 3.5h3m1.5 0l1.5 3l1.5-3m-1.5 3L12.21 8"/></symbol><symbol id="hd-icon-catppuccin-stylua-ignore" viewBox="0 0 16 16"><path fill="none" stroke="#8087a2" stroke-linecap="round" stroke-linejoin="round" d="M5.67 2.671s-.298-.014-.741 0c-.502-.007-1.061.21-1.065.831c-.004.66.798.838 1.056.967c.257.128 1.054.248 1.092 1.009c.024.472-.342 1.02-1.264 1.03c-.71.009-1.077.001-1.077.001m4.467-3.838v2.96s.097.878.842.878m6.515 4.883h-1.258s-.595.1-.595.733c0 .701.631.733.631.733h1.222M5.432 8.525v4.81M.5 2.687V6.55m0 2.456v3.862"/></symbol><symbol id="hd-icon-catppuccin-sublime" viewBox="0 0 16 16"><path fill="none" stroke="#f5a97f" stroke-linecap="round" stroke-linejoin="round" d="m13.5 11.5l-11 3v-3l6.29-1.71M2.5 4.5l11-3v3L7.21 6.21m6.29 5.29v-3l-11-4v3z"/></symbol><symbol id="hd-icon-catppuccin-super-collider" viewBox="0 0 16 16"><path fill="none" stroke="#cad3f5" stroke-linecap="round" stroke-linejoin="round" d="M1.5 4.616v6.952l5.116 2.781V7.481L3.138 5.638V9.91l1.89.971V9.122l-.455-.217m3.85 5.595V7.698L14.5 5.822v6.785l-4.086 1.24V9.524l2.161-.57v1.76l-.574.1m2.195-6.55L8.794 1.5L2.496 3.31l4.998 2.646l4.423-1.223l-3.275-1.759l-2.28.704l1.25.754l.692-.218"/></symbol><symbol id="hd-icon-catppuccin-svelte" viewBox="0 0 16 16"><g fill="none" stroke="#f5a97f" stroke-linecap="round" stroke-linejoin="round"><path d="M12.86 6.72s1.39-1.98.08-3.87C11.286.763 9.44 1.6 9.44 1.6S6.15 3.35 4.33 4.59c-1.4 1-2.24 2.26-1.03 4.37c1.22 2.1 4.58 1.21 4.58 1.21"/><path d="M3.14 9.28s-1.39 1.98-.08 3.87c1.31 1.9 3.5 1.24 3.5 1.24s3.29-1.74 5.11-2.98c1.4-1 2.24-2.26 1.03-4.37c-1.22-2.1-4.58-1.21-4.58-1.21M6.3 6.96l4.14-2.56m-4.92 7.25L9.66 9.1"/></g></symbol><symbol id="hd-icon-catppuccin-svelte-config" viewBox="0 0 16 16"><g fill="none" stroke-linecap="round" stroke-linejoin="round"><path stroke="#f5a97f" d="M9.92 5.32s1.26-1.83.07-3.58C8.79 0 6.8.6 6.8.6s-3 1.6-4.65 2.75C.88 4.28.13 5.44 1.23 7.39C2.33 9.33 5.39 8.5 5.39 8.5m-4.3-.82S-.19 9.51 1 11.26C2.21 13 4.2 12.4 4.2 12.4s1.76-.94 3.32-1.9m2.79-3a3.36 3.36 0 0 0-.53-1.89C8.67 3.67 5.61 4.5 5.61 4.5M3.96 5.54l3.76-2.36M3.25 9.87L7 7.5"/><path stroke="#8087a2" d="M11.5 13.5a1 1 0 1 0 0-2a1 1 0 0 0 0 2m1.75-4l1.75 3l-1.75 3h-3.5L8 12.5l1.75-3z"/></g></symbol><symbol id="hd-icon-catppuccin-svg" viewBox="0 0 16 16"><path fill="none" stroke="#f5a97f" stroke-linecap="round" stroke-linejoin="round" d="m4.54 10l6.92-4m-6.92 4a1.5 1.5 0 1 0-2.6 1.5a1.5 1.5 0 0 0 2.6-1.5M8 4v8m0-8a1.5 1.5 0 1 0 0-3a1.5 1.5 0 0 0 0 3M4.54 6l6.92 4M4.54 6a1.5 1.5 0 1 0-2.6-1.5A1.5 1.5 0 0 0 4.54 6M8 12a1.5 1.5 0 1 0 0 3a1.5 1.5 0 0 0 0-3m3.46-2a1.5 1.5 0 1 0 2.6 1.5a1.5 1.5 0 0 0-2.6-1.5m0-4a1.5 1.5 0 1 0 2.6-1.5a1.5 1.5 0 0 0-2.6 1.5"/></symbol><symbol id="hd-icon-catppuccin-swift" viewBox="0 0 16 16"><path fill="none" stroke="#f5a97f" stroke-linecap="round" stroke-linejoin="round" d="M14.34 10.2c.34-1.08 1.1-5.07-4.45-8.62a.48.48 0 0 0-.6.07a.44.44 0 0 0-.02.6c.03.02 2.07 2.5 1.34 5.34c-1.26-.86-6.24-4.81-6.24-4.81L7.25 7.5L1.9 4.05S5.68 8.7 8 10.45c-1.12.4-3.56.82-6.78-1.18a.48.48 0 0 0-.58.06a.44.44 0 0 0-.08.56c.11.18 2.7 4.36 8.14 4.36c1.5 0 2.37-.42 3.08-.77c.43-.2.77-.37 1.14-.37c.93 0 1.54.92 1.54.93c.1.14.27.22.44.21a.46.46 0 0 0 .4-.28c.67-1.55-.49-3.2-.96-3.78h0Z"/></symbol><symbol id="hd-icon-catppuccin-swiftformat" viewBox="0 0 16 16"><path fill="none" stroke="#c6a0f6" stroke-linecap="round" stroke-linejoin="bevel" d="m2.431 1.545l7.441 4.053M.5 5.362l7.441 4.053"/><path fill="none" stroke="#cad3f5" stroke-linecap="round" stroke-linejoin="round" d="M13.404.65s3.038 1.06 1.72 3.605c-1.32 2.545-1.531 2.969-1.531 2.969S12.51 8.802 15.5 11.017c0 0-3.202-.99-3.956.283c-.753 1.272-1.742 3.157-1.742 3.157s-.778 1.838-3.533.26"/></symbol></svg>