<svg xmlns="http://www.w3.org/2000/svg" xmlns:xlink="http://www.w3.org/1999/xlink"><symbol id="hd-icon-streamline-cyber-3d-glasses" viewBox="0 0 24 24"><g fill="none" stroke="currentColor" stroke-linecap="round" stroke-linejoin="round" stroke-miterlimit="10"><path d="m22.5 10.5l-5.75-5H14.5m-14 5l5.75-5H8.5m-8 5l2 9H8l3.5-3.5l3.5 3.5h5.5l2-9m-22 0h22"/><path d="M3.25 12.5h7.25V14L7 17.5H4.5zm16.5 0H12.5V14l3.5 3.5h2.5z"/></g></symbol><symbol id="hd-icon-streamline-cyber-3d-sync" viewBox="0 0 24 24"><g fill="none" stroke="currentColor" stroke-linecap="round" stroke-linejoin="round" stroke-miterlimit="10"><path d="M15 15.5h-2.5v-6H15l1 3zm-9.5 0H10l.5-1.5l-1-1.5l1-1.5l-.5-1.5H5.5m1 3h3"/><path d="m2.5 6.5l9-5l9 4.5v7.5"/><path d="m22.5 11.5l-2 2l-2-2m2 7l-9 5l-9-4.5v-7.5"/><path d="m.5 13.5l2-2l2 2"/></g></symbol><symbol id="hd-icon-streamline-cyber-account" viewBox="0 0 24 24"><path fill="none" stroke="currentColor" stroke-linecap="round" stroke-linejoin="round" stroke-miterlimit="10" d="M14.5 23.5v-3h4v-5h3l-3-6v-3l-8-5l-9 5V16l4 3.5v4"/></symbol><symbol id="hd-icon-streamline-cyber-account-group-1" viewBox="0 0 24 24"><g fill="none" stroke="currentColor" stroke-linecap="round" stroke-linejoin="round" stroke-miterlimit="10"><path d="m20.5 17l-3 1.5l-3-1.5v-3.5l3-1.5l3 1.5z"/><path d="m14.5 13.5l2.5 1h3.5m2 9V21l-5-1.5l-5 1.5v2.5m5-2v2m-9-6.5l-3 1.5l-3-1.5v-3.5l3-1.5l3 1.5z"/><path d="m2.5 13.5l2.5 1h3.5m2 9V21l-5-1.5l-5 1.5v2.5m5-2v2m9-18l-3 1.5l-3-1.5V2l3-1.5l3 1.5z"/><path d="M8.5 2L11 3.5h3.5m-8 7v-1l5-1.5l5 1.5v1m-5-.5v1.5"/></g></symbol><symbol id="hd-icon-streamline-cyber-account-hexagon" viewBox="0 0 24 24"><g fill="none" stroke="currentColor" stroke-linecap="round" stroke-linejoin="round" stroke-miterlimit="10"><path d="m21.5 18l-10 5.5l-10-5.5V7l10-5.5l10 5.5z"/><path d="m14.5 11l-3 1.5l-3-1.5V7.5l3-1.5l3 1.5z"/><path d="m8.5 7.5l2.5 1h3.5m2 9V15l-5-1.5l-5 1.5v2.5m5-2v2"/></g></symbol><symbol id="hd-icon-streamline-cyber-account-lock" viewBox="0 0 24 24"><g fill="none" stroke="currentColor" stroke-linecap="round" stroke-linejoin="round" stroke-miterlimit="10"><path d="M14.5 23.5v-3h4v-5h3l-3-6v-3l-8-5l-9 5V16l4 3.5v4"/><path d="M14.5 9.5h-8v6h8zm-7 0V8l3-1.5l3 1.5v1.5m-3 4v-2"/></g></symbol><symbol id="hd-icon-streamline-cyber-account-target" viewBox="0 0 24 24"><g fill="none" stroke="currentColor" stroke-linecap="round" stroke-linejoin="round" stroke-miterlimit="10"><path d="M11.5 19.5v4m0-22v4m11 7h-4m-14 0h-4m2-5l9-5l9 5v10l-9 5l-9-5z"/><path d="m14.5 13.5l-3 1.5l-3-1.5V10l3-1.5l3 1.5z"/><path d="m8.5 10l2.5 1.5h3.5m2 8.173V17.5l-5-1.5l-5 1.5v2.173"/></g></symbol><symbol id="hd-icon-streamline-cyber-add-double" viewBox="0 0 24 24"><g fill="none" stroke="currentColor" stroke-linecap="round" stroke-linejoin="round" stroke-miterlimit="10"><path d="M14.5 7.5v10m5-5h-10M6.5 8l8-4.5l8 4.5v9l-8 4.5l-8-4.5z"/><path d="M8.5 21.5L.5 17V8l8-4.5"/></g></symbol><symbol id="hd-icon-streamline-cyber-add-hexagon-1" viewBox="0 0 24 24"><path fill="none" stroke="currentColor" stroke-linecap="round" stroke-linejoin="round" stroke-miterlimit="10" d="M11.5 6.5v12m6-6h-12m16 5.5l-10 5.5l-10-5.5V7l10-5.5l10 5.5z"/></symbol><symbol id="hd-icon-streamline-cyber-add-hexagon-2" viewBox="0 0 24 24"><g fill="none" stroke="currentColor" stroke-linecap="round" stroke-linejoin="round" stroke-miterlimit="10"><path d="M17.5 10.5h-4v-4h-4v4h-4v4h4v4h4v-4h4z"/><path d="m21.5 18l-10 5.5l-10-5.5V7l10-5.5l10 5.5z"/></g></symbol><symbol id="hd-icon-streamline-cyber-adjust-brightness" viewBox="0 0 24 24"><path fill="none" stroke="currentColor" stroke-linecap="round" stroke-linejoin="round" stroke-miterlimit="10" d="M11.5 1.5v3m0 16v3m-11-11h3m16 0h3M3.722 20.278l2.121-2.121M17.157 6.843l2.121-2.121m-15.556 0l2.121 2.121m11.314 11.314l2.121 2.121M6.5 9.65l5-2.65l5 2.65v5.7l-5 2.65l-5-2.65z"/></symbol><symbol id="hd-icon-streamline-cyber-airplane" viewBox="0 0 24 24"><path fill="none" stroke="currentColor" stroke-linecap="round" stroke-linejoin="round" stroke-miterlimit="10" d="M5.747 18.239L7.132 22.5l2.142-2.101l-.374-2.495l6.312-5.594L18.428 22l1.072-1.674V7.5l3-3.109V1.5h-3l-3 3H3.884L2.165 5.559l9.512 3.215l-5.605 6.301l-2.455-.333L1.5 16.843z"/></symbol><symbol id="hd-icon-streamline-cyber-airplane-arrival" viewBox="0 0 24 24"><g fill="none" stroke="currentColor" stroke-linecap="round" stroke-linejoin="round" stroke-miterlimit="10"><path d="M.5 23.5h1m21 0h1m-20 0h17m-1.583-9.181L3.842 8.436L2.734 5.914L.5 5v5.5l6.17 2.886L.5 16.789l4 1l7.12-2.282L17.5 17.5l2.5-.568z"/><path d="M12.399 11.767L9.055 6.995L6.226 5.581l2.505 4.742"/></g></symbol><symbol id="hd-icon-streamline-cyber-airplane-departure" viewBox="0 0 24 24"><g fill="none" stroke="currentColor" stroke-linecap="round" stroke-linejoin="round" stroke-miterlimit="10"><path d="m20.887.75l-14.82 6.5l-2.567-1l-3 1l4.5 4l6.567-2.5l-2.067 7l4-2l3.067-7L22 4.5l1.5-2.668z"/><path d="M14.567 3.522L8.761 2.5l-3 1l5.198 1.604M.5 23.5h1m21 0h1m-20 0h17"/></g></symbol><symbol id="hd-icon-streamline-cyber-airplane-departure-cancel" viewBox="0 0 24 24"><g fill="none" stroke="currentColor" stroke-linecap="round" stroke-linejoin="round" stroke-miterlimit="10"><path d="m22.5 20.75l-4 2.25l-4-2.25v-4.5l4-2.25l4 2.25zm0-4.5l-8 4.5M20.887.5L6.067 7L3.5 6l-3 1L5 11l6.567-2.5l-2.067 7l4-2l3.067-7L22 4.25l1.5-2.668z"/><path d="M14.567 3.272L8.761 2.25l-3 1l5.198 1.604"/></g></symbol><symbol id="hd-icon-streamline-cyber-alarm" viewBox="0 0 24 24"><g fill="none" stroke="currentColor" stroke-linecap="round" stroke-linejoin="round" stroke-miterlimit="10"><path d="M11.5 1.5V4m-2-2.5h4m-2 7V13l2.5 1.5"/><path d="m3.5 9l8-5l8 5v8l-8 5l-8-5zm3-7l-4-.5L.5 4v3L8 3.5zm10 0l4-.5l2 2.5v3L15 3.5zM7.81 19.69L4 23.5m11.19-3.81L19 23.5"/></g></symbol><symbol id="hd-icon-streamline-cyber-alarm-snooze" viewBox="0 0 24 24"><path fill="none" stroke="currentColor" stroke-linecap="round" stroke-linejoin="round" stroke-miterlimit="10" d="M11.5 5V3.5m6 5.5v8.5l3 3h-18l3-3V9l6-4zm-8 11.5v2l2 1l2-1v-2m-13-18h4l-4 5h4m13-6h3l-3 4h3m0 5h2l-2 3h2"/></symbol><symbol id="hd-icon-streamline-cyber-ambulance" viewBox="0 0 24 24"><g fill="none" stroke="currentColor" stroke-linecap="round" stroke-linejoin="round" stroke-miterlimit="10"><path d="M2.5 21.5h-2v-8l5.5-6h15.5l2 14h-3m-14 0h10m-16-8h8m4-8l-2-1l-2 1v2h4z"/><path d="M16.5 14.5v2h-3v-2h-2v-3h2v-2h3v2h2v3zm-8-7v14m-4-6h2m4-13v-2M7.5 3L6 1.5m-1.5 4h2m7-2.5L15 1.5m1.5 4h-2m-8 16.75l-2 1.25l-2-1.25v-2l2-1.25l2 1.25zm14 0l-2 1.25l-2-1.25v-2l2-1.25l2 1.25z"/></g></symbol><symbol id="hd-icon-streamline-cyber-android" viewBox="0 0 24 24"><path fill="none" stroke="currentColor" stroke-linecap="round" stroke-linejoin="round" stroke-miterlimit="10" d="M11.5 7.5h7l-1.5-4l-5.5-2l-5.5 2l-1.5 4zm-2-2v-1m4 1v-1m5 5h-14v11h14zm-16 0v7m18-7v7M7.843 2.843L5.5.5m9.657 2.343L17.5.5m-9 20v3m6-3v3"/></symbol><symbol id="hd-icon-streamline-cyber-apple-2" viewBox="0 0 24 24"><path fill="none" stroke="currentColor" stroke-linecap="round" stroke-linejoin="round" stroke-miterlimit="10" d="m19.5 20.5l-4.5 3l-3.5-2l-3.5 2l-4.5-3l-2-10l6-3.5l4 2.5l4-2.5l6 3.5zM11.5 6l3.975-1.161L17.5.5l-4.339 2.025zm0 .5v-5"/></symbol><symbol id="hd-icon-streamline-cyber-arrange-letter" viewBox="0 0 24 24"><path fill="none" stroke="currentColor" stroke-linecap="round" stroke-linejoin="round" stroke-miterlimit="10" d="M5.5 4.5v15m-3-3l3 3l3-3m7-1v-1h6l-6 9h6v-1m-6-11v-8l3-3l3 3v8m-6-5h6"/></symbol><symbol id="hd-icon-streamline-cyber-at-sign" viewBox="0 0 24 24"><g fill="none" stroke="currentColor" stroke-linecap="round" stroke-linejoin="round" stroke-miterlimit="10"><path d="M15.5 23.5H7L.5 17V8L7 1.5h9L20.5 6v9L17 18.5H8.5l-2-2v-3l8-2v7"/><path d="M6.5 7.5h6l2 2v2"/></g></symbol><symbol id="hd-icon-streamline-cyber-atom-1" viewBox="0 0 24 24"><g fill="none" stroke="currentColor" stroke-linecap="round" stroke-linejoin="round" stroke-miterlimit="10"><path d="m13.5 13l-2 1.25l-2-1.25v-2l2-1.25l2 1.25z"/><path d="M14 3L11.5.5L9 3L6.5 9.5v5L9 21l2.5 2.5L14 21l2.5-6.5v-5z"/><path d="m6.5 14.5l5 3l6.573 1.584l3.643-1.409l-.972-3.399L16.5 9.5l-5-3l-6.574-1.584l-3.642 1.409l.971 3.399z"/><path d="m16.5 14.5l-5 3l-6.574 1.584l-3.642-1.409l.971-3.399L6.5 9.5l5-3l6.573-1.584l3.643 1.409l-.972 3.399z"/></g></symbol><symbol id="hd-icon-streamline-cyber-baby-face" viewBox="0 0 24 24"><g fill="none" stroke="currentColor" stroke-linecap="round" stroke-linejoin="round"><path stroke-miterlimit="10" d="m19.5 17.25l-8 5.25l-8-5.25V6.75l8-5.25l8 5.25zm-11-6.75v1m6-1v1"/><path stroke-miterlimit="10" d="m11.5 6.5l1-1l2 1.5l-3 2.5l-3-2.5l3-3V1.5M3.5 9l-2-.5V13l2 2m16-6l2-.5V13l-2 2m-5 3l-3 2l-3-2v-3l3-2l3 2z"/><path d="m11.495 16l.505.504l-.505.505m0-1.009l-.504.504l.504.505"/></g></symbol><symbol id="hd-icon-streamline-cyber-baby-milk-bottle" viewBox="0 0 24 24"><g fill="none" stroke="currentColor" stroke-linecap="round" stroke-linejoin="round" stroke-miterlimit="10"><path d="m19 14l-9-9l4.5-1.5l6 6zm-6.656-9.769l7.425 7.425"/><path d="m19 14l-7 4l-2 4.5l-2.5 1l-7-7l1-2.5L6 12l4-7m10.5 4.5l2-2l-1-2l1-1.5V1.5H20l-1.5 1l-2-1l-2 2m0 9l-1-1m-1 3l-1-1m-1 3l-1-1"/></g></symbol><symbol id="hd-icon-streamline-cyber-baby-stroller-1" viewBox="0 0 24 24"><path fill="none" stroke="currentColor" stroke-linecap="round" stroke-linejoin="round" stroke-miterlimit="10" d="M23.5 4.5h-3l-5 16H4.75L.5 14v-2.5l1.5-7l9.5-3l-3 10m-8 0h17.812M5.5 20.5v2l1.5 1l1.5-1v-2m3 0v2l1.5 1l1.5-1v-2"/></symbol><symbol id="hd-icon-streamline-cyber-bacteria" viewBox="0 0 24 24"><g fill="none" stroke="currentColor" stroke-linecap="round" stroke-linejoin="round" stroke-miterlimit="10"><path d="m16 5.5l4.5 7l-4.5 7H8l-4.5-7l4.5-7zm4.5 7h3m-23 0h3m12.5-7l2.5-3M8 5.5l-2.5-3m10.5 17l2.5 3M8 19.5l-2.5 3"/><path d="m11.5 16.5l-1.5 1l-1.5-1V15l1.5-1l1.5 1zm4-4.5L13 13.5L10.5 12V9L13 7.5L15.5 9z"/></g></symbol><symbol id="hd-icon-streamline-cyber-badge-1" viewBox="0 0 24 24"><g fill="none" stroke="currentColor" stroke-linecap="round" stroke-linejoin="round" stroke-miterlimit="10"><path d="m8.5 14.5l-2 8.5l5.5-3.5l5.5 3.5l-2-8.5m-3.5-7L10.5 9l1.5 1.5L13.498 9l-1.5-1.5z"/><path d="M17.5 11.278L20 9l-2.5-2.278V3.5h-3.222L12 1L9.722 3.5H6.5v3.222L4 9l2.5 2.278V14.5h3.222L12 17l2.278-2.5H17.5z"/><path d="M8.5 7L12 5l3.5 2v4L12 13l-3.5-2z"/></g></symbol><symbol id="hd-icon-streamline-cyber-badge-favorite-heart-2" viewBox="0 0 24 24"><g fill="none" stroke="currentColor" stroke-linecap="round" stroke-linejoin="round" stroke-miterlimit="10"><path d="m11.5 14.5l4-4l-2-2.5l-2 1.5l-2-1.5l-2 2.5zm-1.562 3.125L7.5 23.5l-2.5-3H.5l5-4m7.562 1.125L15.5 23.5l2.5-3h4.5l-5-4"/><path d="M9 16.5H5.5V13l-3-2.5l3-2.5V4.5h3l3-3l3 3h3v3l3 3l-3 2.5v3.5H14l-2.5 3z"/></g></symbol><symbol id="hd-icon-streamline-cyber-badge-star-2" viewBox="0 0 24 24"><g fill="none" stroke="currentColor" stroke-linecap="round" stroke-linejoin="round" stroke-miterlimit="10"><path d="m11.505 5l.995 2.5H15l-1.944 1.778l.777 2.722l-2.333-1.748L9.167 12l.777-2.722L8 7.5h2.5zm5.866 15.112l-5.87-1.612l-5.873 1.612"/><path d="M18.454 17.766L22.5 19.5l-2.667 1.167L21 23.5L16.5 22l3-6.5l-8-2l-8 2l3 6.5L2 23.5l1.167-2.833L.5 19.5l4.051-1.722"/><path d="M5.5 15.004V13.5l-3-3l3-3v-3h3l3-3l3.5 3h2.5v3l3 3l-3 3v1.517"/></g></symbol><symbol id="hd-icon-streamline-cyber-bank-1" viewBox="0 0 24 24"><path fill="none" stroke="currentColor" stroke-linecap="round" stroke-linejoin="round" stroke-miterlimit="10" d="M20.5 9.5h-17v10h17zm3 14H.5m21-2h-19l1-2h17zm-16-12v10m5-10v10m-2-10v10m5-10v10m2-10v10m3-10v10m2.5-12l-2.5-5l-6.5-2l-6.5 2l-2.5 5zm1.5 0h-21l1 2h19zm-21 14h21m-19-4h2m3 0h2m3 0h2m3 0h2"/></symbol><symbol id="hd-icon-streamline-cyber-bank-note-1" viewBox="0 0 24 24"><g fill="none" stroke="currentColor" stroke-linecap="round" stroke-linejoin="round" stroke-miterlimit="10"><path d="m21.5 15.5l-14 4l-2 2l-5-10l2-2l14-4l2-2l5 10z"/><path d="m12.764 10.09l-1.906.604l-.175 1.105l.779.802l1.907-.605l.779.803l-.175 1.104l-1.906.604m-.256-4.115l-.302-.953m1.813 5.719l-.302-.953M7.5 19.5l-2.108-4.217M4.5 13.5l-.5-1m16 0l-.5-1m-.892-1.783L16.5 5.5"/></g></symbol><symbol id="hd-icon-streamline-cyber-bank-note-2" viewBox="0 0 24 24"><g fill="none" stroke="currentColor" stroke-linecap="round" stroke-linejoin="round" stroke-miterlimit="10"><path d="M22.5 5.5H.5v13h22zm-22 4l4.123-3.994M22.5 9.5l-4.129-4M.5 14.5l4.129 4m17.871-4l-4.129 4"/><path d="M13.5 9.5H10L9 11l1 1.5h3l1 1.5l-1 1.5H9.5m2-6v-1m0 8v-1"/></g></symbol><symbol id="hd-icon-streamline-cyber-bank-notes-1" viewBox="0 0 24 24"><g fill="none" stroke="currentColor" stroke-linecap="round" stroke-linejoin="round" stroke-miterlimit="10"><path d="M.5 8L4 4.5M.5 12L4 15.5m14.5-11H.5v11h18zm0 3.5L15 4.5m3.5 7.5L15 15.5"/><path d="M20.5 6.5v11h-18"/><path d="M22.5 8.5v11h-18m7-11H8.25l-.75 1l.75 1h2.5l.75 1l-.75 1H7.5m2-4v-1m0 6v-1"/></g></symbol><symbol id="hd-icon-streamline-cyber-bank-notes-stack" viewBox="0 0 24 24"><g fill="none" stroke="currentColor" stroke-linecap="round" stroke-linejoin="round" stroke-miterlimit="10"><path d="m23.5 16.5l-18 4l-5-4m5-4l-5-4l18-4l5 4zm2-3l-1.125.25m11.25-2.5L16.5 7.5m-4 3.444L7.745 6.888m8.755 3.168l-4.947-4.012M5.5 12.5v8m18-12v8m-23-8v8m12 2.444v-8m4-.888v8m0-2l7-1.556"/><path d="m12.5 16.944l-7 1.556l-5-4m16-.444l7-1.556"/><path d="m12.5 14.944l-7 1.556l-5-4"/><path d="m12.5 12.944l-7 1.556l-5-4m23 0l-7 1.556"/></g></symbol><symbol id="hd-icon-streamline-cyber-barcode-1" viewBox="0 0 24 24"><path fill="none" stroke="currentColor" stroke-linecap="round" stroke-linejoin="round" stroke-miterlimit="10" d="M3.5 15.5v2m0-10v6m2 4v-2m0-5v-3m0 6v-1m2-5v10m2 0v-2m0-2v-6m8 10v-10m-2 8v2m0-10v6m-2 4v-10m-2 0v6m0 3v1m8 0v-2m0-2v-6m3-5H.5v19h22z"/></symbol><symbol id="hd-icon-streamline-cyber-barrel" viewBox="0 0 24 24"><g fill="none" stroke="currentColor" stroke-linecap="round" stroke-linejoin="round" stroke-miterlimit="10"><path d="m15.5 7.5l4-3l-3-3h-9l-3 3l4 3z"/><path d="m19.5 4.5l1 5.5v7l-1 3l-4 2.5h-7l-4-2.5l-1-3v-7l1-5.5"/><path d="m20.5 16l-5 3.5h-7l-5-3.5"/><path d="M20.452 13L15.5 16.5h-7L3.548 13"/><path d="m20.5 10l-5 3.5h-7l-5-3.5"/><path d="m20.071 7.5l-4.571 3h-7l-4.571-3m5.571-4L8 4.5l1.5 1l1.5-1z"/></g></symbol><symbol id="hd-icon-streamline-cyber-basketball" viewBox="0 0 24 24"><g fill="none" stroke="currentColor" stroke-linecap="round" stroke-linejoin="round" stroke-miterlimit="10"><path d="M18.571 19.572L4.429 5.43m14.889-.747L3.683 20.318m7.818-17.905V7l-5.5 5.5H1.413m20.174 0h-4.586l-5.5 5.5v4.588"/><path d="m14.643 23.5l-10.96-3.182L.501 9.358l7.857-7.857l10.96 3.182l3.182 10.96z"/></g></symbol><symbol id="hd-icon-streamline-cyber-batman" viewBox="0 0 24 24"><g fill="none" stroke="currentColor" stroke-linecap="round" stroke-linejoin="round" stroke-miterlimit="10"><path d="M22.5 19.234L12 23.5L1.5 19.234V.5l4 6l6.5-3l6.5 3l4-6z"/><path d="m10.5 20l1.5-1l1.5 1m-7-9l3 1.5"/><path d="M18.459 20.876L16.5 15L12 17l-4.5-2l-1.959 5.876M17.5 11l-3 1.5"/></g></symbol><symbol id="hd-icon-streamline-cyber-beach" viewBox="0 0 24 24"><path fill="none" stroke="currentColor" stroke-linecap="round" stroke-linejoin="round" stroke-miterlimit="10" d="m1.5 22l2-1.5l2 1.5l2-1.5l2 1.5l2-1.5l2 1.5l2-1.5l2 1.5l2-1.5l2 1.5M5.37 11.18l-.574-1.385L11.102 1.5l10.324 1.406L22 4.292zm8.467-3.523L17.5 16.5m-4.554 2.386L17.5 16.5h5"/></symbol><symbol id="hd-icon-streamline-cyber-beaker-test-tube" viewBox="0 0 24 24"><g fill="none" stroke="currentColor" stroke-linecap="round" stroke-linejoin="round" stroke-miterlimit="10"><path d="m11.5 9.5l6 6l-4.25 8h-8.5l-4.25-8l6-6v-5l-2-4h9l-2 4z"/><path d="M16.5 11.5v-4l-1-4h8l-1 4v14l-3 2l-3-2m-12-3h9m6 0h3m-3-3h3m-3-3h3"/></g></symbol><symbol id="hd-icon-streamline-cyber-bicycle-1" viewBox="0 0 24 24"><g fill="none" stroke="currentColor" stroke-linecap="round" stroke-linejoin="round" stroke-miterlimit="10"><path d="m7.5 21.5l-3.5 2l-3.5-2V18L4 16l3.5 2zm16 0l-3.5 2l-3.5-2V18l3.5-2l3.5 2z"/><path d="m4 19.5l3.5-11h3m5.15 4l4.35 7h-7.5m3-10h3"/><path d="M15.65 12.5H6.227c.273 0 6.273 7 6.273 7l4.5-10"/></g></symbol><symbol id="hd-icon-streamline-cyber-bin" viewBox="0 0 24 24"><g fill="none" stroke="currentColor" stroke-linecap="round" stroke-linejoin="round"><path stroke-miterlimit="10" d="M21 23.5h-5l-1.5-7h8zm-17.5-12v12L7 17l3.5 6.5v-12L16 9L7 7.5l-4.5 1l-2 6.5l3-2.5m6-7.5L7 6.5L4.5 5V2L7 .5L9.5 2z"/><path d="m17 11.995l.505.505l-.505.505m0-1.01l-.505.505l.505.505m3.5-3.01l.505.504l-.505.505m0-1.009l-.505.504l.505.505"/></g></symbol><symbol id="hd-icon-streamline-cyber-bin-2" viewBox="0 0 24 24"><path fill="none" stroke="currentColor" stroke-linecap="round" stroke-linejoin="round" stroke-miterlimit="10" d="m19.75 12.25l.75-6.75h-1.75m-15.4 7.65l.775 6.975M8.5 23.5h10l1.25-11.25M11 5.5H2.5l.85 7.65M11 5.5h7.75M4.125 20.125L4.5 23.5h4m11.25-11.25L8.5 23.5m10.25-18L4.125 20.125M3.35 13.15L11 5.5m-7.75 6.75L14.5 23.5M4.25 5.5l14.625 14.625m.775-6.975L12 5.5M.5 5.5h22"/></symbol><symbol id="hd-icon-streamline-cyber-binocular-1" viewBox="0 0 24 24"><path fill="none" stroke="currentColor" stroke-linecap="round" stroke-linejoin="round" stroke-miterlimit="10" d="m9.5 13.5l.52-3.64m4.48 3.64l-.52-3.64m9.52 3.64L17 3.5h-2l-1.5 2v1M5 20.5L.5 18v-4.5L5 11l4.5 2.5V18zm-4.5-7L7 3.5h2l1.5 2v1m-6.5 7L2.5 15m16-1.5L17 15m-6.5-4.5L9 8.5l1.5-2h3l1.5 2l-1.5 2zm8.5 10L14.5 18v-4.5L19 11l4.5 2.5V18z"/></symbol><symbol id="hd-icon-streamline-cyber-block-hexagon" viewBox="0 0 24 24"><g fill="none" stroke="currentColor" stroke-linecap="round" stroke-linejoin="round" stroke-miterlimit="10"><path d="m11.565 21l-4.869-2.435L5.5 9.522h1.293l1.476 3.842L7.837 6.5h1.391l1.222 6.864l.42-8.864h1.391l.371 8.864l1.27-6.864h1.391l-.25 8.935l2.68-2.321l.701 1.527L15.739 19z"/><path d="m21.5 18l-10 5.5l-10-5.5V7l10-5.5l10 5.5z"/></g></symbol><symbol id="hd-icon-streamline-cyber-blood-drop" viewBox="0 0 24 24"><g fill="none" stroke="currentColor" stroke-linecap="round" stroke-linejoin="round" stroke-miterlimit="10"><path d="m11.5 23.484l6-2.484l2-5.5l-8-15l-8 15l2 5.5z"/><path d="M11.5 19L9 18l-1-2.5"/></g></symbol><symbol id="hd-icon-streamline-cyber-bluetooth-searching" viewBox="0 0 24 24"><g fill="none" stroke="currentColor" stroke-linecap="round" stroke-linejoin="round" stroke-miterlimit="10"><path d="m5.5 5.5l13.053 12l-6.053 6V.5l6.053 6l-13.079 12"/><path d="m6 10l-2 2l2 2l2-2zm13 0l-2 2l2 2l2-2z"/></g></symbol><symbol id="hd-icon-streamline-cyber-bomb" viewBox="0 0 24 24"><g fill="none" stroke="currentColor" stroke-linecap="round" stroke-linejoin="round" stroke-miterlimit="10"><path d="M13.5 8.5v-2h-4v2m2-2v-2m-4.5 9L9.5 12"/><path d="m18.5 19.5l-7 4l-7-4v-8l5-3h4l5 3zm-7-18v-1m-3.613 3L7 3.038m8.113.462L16 3.038M9.383 2.25L9 1.326m4.617.848L14 1.25"/></g></symbol><symbol id="hd-icon-streamline-cyber-book-album-picture" viewBox="0 0 24 24"><g fill="none" stroke="currentColor" stroke-linecap="round" stroke-linejoin="round" stroke-miterlimit="10"><path d="M21.5 5.5h-17v18h17zm-1-2h-15m16-2h-17l-3 2l3 2m-3-2v18l3 2"/><path d="M11.5 12.75L9.5 14l-2-1.25v-2l2-1.25l2 1.25zm4.5-.25l-3 5l-2.5-1l-2 3h10z"/></g></symbol><symbol id="hd-icon-streamline-cyber-book-encyclopedia-1" viewBox="0 0 24 24"><g fill="none" stroke="currentColor" stroke-linecap="round" stroke-linejoin="round" stroke-miterlimit="10"><path d="M2.5 1.5V8l3 1.5l3-1.5V1.5"/><path d="M2.5 8v14l3 1.5l3-1.5V8m-3-5.5V7m-1 12.5h2m-2-7h2m2-11V8l3 1.5l3-1.5V1.5"/><path d="M8.5 8v14l3 1.5l3-1.5V8m-3-5.5V7m-1 12.5h2m-2-7h2m2-11V8l3 1.5l3-1.5V1.5"/><path d="M14.5 8v14l3 1.5l3-1.5V8m-3-5.5V7m-1 12.5h2m-2-7h2"/></g></symbol><symbol id="hd-icon-streamline-cyber-book-open-1" viewBox="0 0 24 24"><g fill="none" stroke="currentColor" stroke-linecap="round" stroke-linejoin="round" stroke-miterlimit="10"><path d="M2.5 3.5h-2v17H8l3.5 3l3.5-3h7.5v-17h-2"/><path d="M20.5 18.5h-6l-3 2.5l-3-2.5h-6v-17h6l3 2.5l3-2.5h6zM11.5 4v17"/></g></symbol><symbol id="hd-icon-streamline-cyber-book-open-3" viewBox="0 0 24 24"><g fill="none" stroke="currentColor" stroke-linecap="round" stroke-linejoin="round" stroke-miterlimit="10"><path d="m11.5 23.5l-9-5v-17l9 5l9-5v17z"/><path d="M2.5 4.227L.5 3.5v17l11 3l11-3v-17l-2 .727m-9 2.273v17"/></g></symbol><symbol id="hd-icon-streamline-cyber-book-open-bookmark-1" viewBox="0 0 24 24"><g fill="none" stroke="currentColor" stroke-linecap="round" stroke-linejoin="round" stroke-miterlimit="10"><path d="M2.5 4.5h-2v17h8l3 2l3-2h8v-17h-2m-9 0V21"/><path d="M14.5 2.5v6l2-2l2 2v-6"/><path d="m11.5 21l2.25-1.5h6.75v-17h-6l-3 2l-3-2h-6v17h6.75z"/></g></symbol><symbol id="hd-icon-streamline-cyber-book-open-bookmark-3" viewBox="0 0 24 24"><g fill="none" stroke="currentColor" stroke-linecap="round" stroke-linejoin="round" stroke-miterlimit="10"><path d="M17.5 3.125V9.5l1.5-2L20.5 9V2.75"/><path d="m22.5 20.5l-8 1l-3 2l-3-2l-8-1v-18l8 1l3 2.5l3-2.5l8-1zM11.5 6v17.5M9 8l-6.5-.772M9 10.229l-6.5-.772m6.5 3l-6.5-.771M5.75 14.3l-3.25-.386M14 12.457l6.5-.771M14 15l3.25-.386M14 8l1.5-.178M14 10.235l1.5-.178"/></g></symbol><symbol id="hd-icon-streamline-cyber-book-pencil" viewBox="0 0 24 24"><path fill="none" stroke="currentColor" stroke-linecap="round" stroke-linejoin="round" stroke-miterlimit="10" d="M17.5 3.5h-13m14-2h-15l-3 2l3 2m-3-2v16l3 2m15-9v-7h-15v16h7m2.611-.732l7.268-7.268l2.121 2.122l-7.268 7.267l-2.732.611z"/></symbol><symbol id="hd-icon-streamline-cyber-bookmark-favorite-star" viewBox="0 0 24 24"><g fill="none" stroke="currentColor" stroke-linecap="round" stroke-linejoin="round" stroke-miterlimit="10"><path d="m19.5 23.5l-8-5l-8 5V.5h16z"/><path d="M17 8.5h-4.045l-1.455-4l-1.455 4H6l3.118 2.551L7.5 15.5l4-2.5l4 2.5l-1.618-4.449z"/></g></symbol><symbol id="hd-icon-streamline-cyber-bow-tie" viewBox="0 0 24 24"><path fill="none" stroke="currentColor" stroke-linecap="round" stroke-linejoin="round" stroke-miterlimit="10" d="M21.5 6.5H19l-5.5 3v6l5.5 3h2.5l2-6zm-19 0H5l5.5 3v6l-5.5 3H2.5l-2-6zm11 3h-3v6h3zm0 2.5l3-1m-3 2l3 1m-6-2l-3-1m3 2l-3 1"/></symbol><symbol id="hd-icon-streamline-cyber-box-1" viewBox="0 0 24 24"><g fill="none" stroke="currentColor" stroke-linecap="round" stroke-linejoin="round" stroke-miterlimit="10"><path d="M23.5 3.5H.5v6h23zm-2 6h-19v14h19z"/><path d="M9 16.5L7.5 15L9 13.5h6l1.5 1.5l-1.5 1.5z"/></g></symbol><symbol id="hd-icon-streamline-cyber-boxing-glove-2" viewBox="0 0 24 24"><path fill="none" stroke="currentColor" stroke-linecap="round" stroke-linejoin="round" stroke-miterlimit="10" d="M7.556 6.803L12.86 1.5L20 4.387l2.5 6.805l-8.58 8.308H9.692l-2.828 3L.5 15.803l2.828-2.828l.958-7.144l2.475-2.475l3.977.265m-7.41 9.354L9.692 19.5m-5.671-3.004l2.121 2.121"/></symbol><symbol id="hd-icon-streamline-cyber-bubble-chat-2" viewBox="0 0 24 24"><path fill="none" stroke="currentColor" stroke-linecap="round" stroke-linejoin="round" stroke-miterlimit="10" d="M22.5 5.326L11.5 1.5L.5 5.326v11.478l9 2.696v4l13-6.696z"/></symbol><symbol id="hd-icon-streamline-cyber-bubble-chat-check-1" viewBox="0 0 24 24"><g fill="none" stroke="currentColor" stroke-linecap="round" stroke-linejoin="round" stroke-miterlimit="10"><path d="M23.5 16.5h-18l-5 5V.5h23z"/><path d="m8.5 8.5l3 3.5L17 5.5"/></g></symbol><symbol id="hd-icon-streamline-cyber-bubble-chat-double-text-1" viewBox="0 0 24 24"><g fill="none" stroke="currentColor" stroke-linecap="round" stroke-linejoin="round" stroke-miterlimit="10"><path d="M18.5 9.5V5.413L9.5 1.5l-9 3.913v7.826l6 2.348V19.5l2-1.5"/><path d="m10.5 13.9l6-2.4l6 2.4V19l-5 1.5v3l-7-4zm3 1.6h6m-6 2h3m-12-9h10m-10-2h10m-10 4h5"/></g></symbol><symbol id="hd-icon-streamline-cyber-bubble-chat-double-typing-smiley-face-1" viewBox="0 0 24 24"><g fill="none" stroke="currentColor" stroke-linecap="round" stroke-linejoin="round"><path stroke-miterlimit="10" d="m6 9l1.5 1.5h4L13 9M7.5 5.5v.878m4-.878v.878"/><path stroke-miterlimit="10" d="M18.5 9.5V5.413L9.5 1.5l-9 3.913v7.826l6 2.348V19.5l2-1.5"/><path stroke-miterlimit="10" d="m10.5 13.9l6-2.4l6 2.4V19l-5 1.5v3l-7-4z"/><path d="m13.5 16l-.5.5l.5.5m0-1l.5.5l-.5.5m3-1l-.5.5l.5.5m3-1l-.5.5l.5.5m-3-1l.5.5l-.5.5m3-1l.5.5l-.5.5"/></g></symbol><symbol id="hd-icon-streamline-cyber-bubble-chat-like" viewBox="0 0 24 24"><g fill="none" stroke="currentColor" stroke-linecap="round" stroke-linejoin="round" stroke-miterlimit="10"><path d="M23.5 17.5h-13l-7 5v-5h-3V.5h23z"/><path d="M7.5 8.5h2l2.5-6h1.5L14 4l-.5 2.5H18l1 1l-1 1l1 1.25l-1 .75l.5 1l-1 1l.5 1l-1 1h-6.5l-1.5-1H7.5m0-6h-3v7h3z"/></g></symbol><symbol id="hd-icon-streamline-cyber-bubble-chat-quote-1" viewBox="0 0 24 24"><g fill="none" stroke="currentColor" stroke-linecap="round" stroke-linejoin="round" stroke-miterlimit="10"><path d="M23.5 16.5h-18l-5 5V.5h23z"/><path d="M11.5 4.5h-4v4h4zm0 4v2l-3 2m10-8h-4v4h4zm0 4v2l-3 2"/></g></symbol><symbol id="hd-icon-streamline-cyber-bubble-chat-smiley-face-2" viewBox="0 0 24 24"><g fill="none" stroke="currentColor" stroke-linecap="round" stroke-linejoin="round"><path stroke-miterlimit="10" d="m8.5 10l1.5 1.5h6l1.5-1.5m-7-3.5v.878m5-.878v.878"/><path stroke-miterlimit="10" d="M7.75 16.5L3.5 9l4.25-7.5h10.5L22.5 9l-4.25 7.5zM5 17.501l-1.5 1.5l1.5 1.5L6.5 19z"/><path d="m2 21.5l-.5.5l.5.5m0-1l.5.5l-.5.5"/></g></symbol><symbol id="hd-icon-streamline-cyber-bubble-chat-text-forward" viewBox="0 0 24 24"><path fill="none" stroke="currentColor" stroke-linecap="round" stroke-linejoin="round" stroke-miterlimit="10" d="M15.5 15.5h-10l-5 5v-19h20v12m-16-8h12m-12 3h12m-12 3h6m3 8h9m-4-4l4 4l-4 4"/></symbol><symbol id="hd-icon-streamline-cyber-bubble-chat-text-setting" viewBox="0 0 24 24"><g fill="none" stroke="currentColor" stroke-linecap="round" stroke-linejoin="round" stroke-miterlimit="10"><path d="M10.5 15.5h-5l-5 5v-19h20v11m-16-7h12m-12 3h12m-12 3h6m5 5.882l2-1.132l2 1.132v2.236l-2 1.132l-2-1.132z"/><path d="m21.5 17.513l1-1.096l-.762-1.292l-1.478.353l-1.678-.899l-.332-1.079h-1.5l-.332 1.079l-1.678.899l-1.478-.353l-.762 1.292l1 1.096v1.974l-1 1.096l.762 1.292l1.478-.353l1.678.899l.332 1.079h1.5l.332-1.079l1.678-.899l1.478.353l.762-1.292l-1-1.096z"/></g></symbol><symbol id="hd-icon-streamline-cyber-bubble-chat-typing-2" viewBox="0 0 24 24"><g fill="none" stroke="currentColor" stroke-linecap="round" stroke-linejoin="round"><path stroke-miterlimit="10" d="M7.75 16.5L3.5 9l4.25-7.5h10.5L22.5 9l-4.25 7.5zM5 17.501l-1.5 1.5l1.5 1.5L6.5 19z"/><path stroke-miterlimit="10" d="M8 7.5L6.5 9.002l1.5 1.5L9.5 9zm5 0l-1.5 1.501l1.5 1.5L14.5 9zm5 0l-1.5 1.501l1.5 1.5l1.5-1.5z"/><path d="m2 21.5l-.5.5l.5.5m0-1l.5.5l-.5.5"/></g></symbol><symbol id="hd-icon-streamline-cyber-building-13" viewBox="0 0 24 24"><g fill="none" stroke="currentColor" stroke-linecap="round" stroke-linejoin="round" stroke-miterlimit="10"><path d="m18.5 13.5l4 1v7h-4m-14 0h-4v-7l4-1"/><path d="M19.5 23.5h-16l1-2v-9l7-3l7 3v9z"/><path d="M5.5 12.1V8.5h12v3.6m-12-3.6L7 5l4.5-2L16 5l1.5 3.5m-6-5.5V.5m-5 21v-7m-2 0h14m-14 7h15m-15-2h2m4 2v-7m-2 7v-7m0 5h2m4 2v-7m-2 7v-7m0 5h2m2 2v-7m0 5h2"/></g></symbol><symbol id="hd-icon-streamline-cyber-bus-2" viewBox="0 0 24 24"><g fill="none" stroke="currentColor" stroke-linecap="round" stroke-linejoin="round" stroke-miterlimit="10"><path d="M20.5.5h-17v20h17z"/><path d="m3.5 11.5l8.5 3l8.5-3m-19-1v-7h19"/><path d="M22.5 10.5v-7h-19m15 14l-1.5 1l-1.5-1V16l1.5-1l1.5 1zm-10 0l-1.5 1l-1.5-1V16L7 15l1.5 1zm0 3v2.001l-2 .999l-2-.999V20.5m15 0v2.001l-2 .999l-2-.999V20.5"/></g></symbol><symbol id="hd-icon-streamline-cyber-business-chart-4" viewBox="0 0 24 24"><path fill="none" stroke="currentColor" stroke-linecap="round" stroke-linejoin="round" stroke-miterlimit="10" d="M.5 23.5h23M5.061 8.875l2.878-2.879m2.622-.5l2.378 2.379m2.108-.014l3.906-3.665M4.5 18.5l-3 1v4h3zm6-6l-3 1v10h3zm6 3l-3 1v7h3zm6-6.436l-3 1V23.5h3zM20 1l-2.122 2.12L20 5.242l2.121-2.12zm-6 5.815l-2.121 2.12L14 11.058l2.121-2.121zm-5-4l-2.12 2.12L9 7.058l2.121-2.121l-2.12-2.121zm-5 5l-2.12 2.12L4 12.058l2.122-2.121z"/></symbol><symbol id="hd-icon-streamline-cyber-business-chat-4" viewBox="0 0 24 24"><g fill="none" stroke="currentColor" stroke-miterlimit="10"><path stroke-linejoin="round" d="m8.5 18.5l-3 1.5l-3-1.5v-4l3-1.5l3 1.5z"/><path d="M3.2 14.13L5 15.5h3.5"/><path stroke-linecap="round" stroke-linejoin="round" d="M10.5 23.5V22l-5-1l-5 1v1.5m12-3h2v2l2.5-2h4.5v-6h-9zm2-4h4m-4 2h3m-6-11h-2v2L7 7.5H2.5v-6h9zm-7-4h4m-4 2h3"/><path stroke-linejoin="round" d="m21.5 6.5l-3 1.5l-3-1.5v-4l3-1.5l3 1.5z"/><path d="M16.2 2.13L18 3.5h3.5"/><path stroke-linecap="round" stroke-linejoin="round" d="M23.5 11.5V10l-5-1l-5 1v1.5"/></g></symbol><symbol id="hd-icon-streamline-cyber-business-dual-screen-window" viewBox="0 0 24 24"><g fill="none" stroke="currentColor" stroke-linecap="round" stroke-linejoin="round" stroke-miterlimit="10"><path d="M7.5 11.5V8l1-1.5l1 1.5v3.5m-2-2h2m5 12v-5m0 0h2V18l-2 1m0 2.5h2V20l-2-1"/><path d="M16.5.5H.5v13h16zm-16 4h16m-14-2h1m2 0h1m2 0h1"/><path d="M18.5 10.5h5v13h-16v-8m11-1h5"/></g></symbol><symbol id="hd-icon-streamline-cyber-business-female-heart" viewBox="0 0 24 24"><g fill="none" stroke="currentColor" stroke-linecap="round" stroke-linejoin="round" stroke-miterlimit="10"><path d="m18.5 9.5l5-5l-2.5-3l-2.5 2l-2.5-2l-2.5 3zm-9-4L6.5 7l-3-1.5V2l3-1.5l3 1.5z"/><path d="m3.5 4l3-1.5l3 1.5m-6 1.5L2 6.5m7.5-1l1.5 1m-2.5 17h-4l-1.5-5h2L6.5 17L8 18.5h2zm1.057-9.934L12.5 17L11 10L6.5 8L2 10L.5 17l2.943-3.434M3 18.5l.5-5.5m6.5 5.5L9.5 13"/><path d="M4.963 8.683L4.5 11l2 3.5m1.537-5.817L8.5 11l-2 3.5m0 2.5v-2.5"/></g></symbol><symbol id="hd-icon-streamline-cyber-business-handshake-deal" viewBox="0 0 24 24"><g fill="none" stroke="currentColor" stroke-linejoin="round" stroke-miterlimit="10"><path stroke-linecap="round" d="M14.5 10.5L9.934 12L9 11.066L13.132 7.5H15L18 9l2.5.5V16l-2 .5h-4.626"/><path d="m3.5 15l2.597.5l3.952 3.951l1.709-.294l.294-1.709l1.709-.295l.295-1.709l1.708-.294l.295-1.709l-2.599-2.599m-1.946-1.946L9.618 7L6 8.5L3.5 9m0-1.5h-3v9h3zm20 1h-3v9h3z"/></g></symbol><symbol id="hd-icon-streamline-cyber-business-hierarchy" viewBox="0 0 24 24"><path fill="none" stroke="currentColor" stroke-linecap="round" stroke-linejoin="round" stroke-miterlimit="10" d="M3.5 12.5v-1h16v1m-8-1v1m-5 11V21l-3-1l-3 1v2.5zm8 0V21l-3-1l-3 1v2.5zm8 0V21l-3-1l-3 1v2.5zm-1-5.75l-2 1.25l-2-1.25v-2l2-1.25l2 1.25zm-8 0l-2 1.25l-2-1.25v-2l2-1.25l2 1.25zm-8 0L3.5 19l-2-1.25v-2l2-1.25l2 1.25zm8-15.25H10L9 4l1 1.5h3L14 7l-1 1.5H9.5m2-6v-1m0 8v-1"/></symbol><symbol id="hd-icon-streamline-cyber-business-idea-light-bulb" viewBox="0 0 24 24"><g fill="none" stroke="currentColor" stroke-linecap="round" stroke-linejoin="round" stroke-miterlimit="10"><path d="M12.5 18.5v-7H16l-.5 3h-8l-.5-3h3.5v7"/><path d="M11.5 18.5h-4l-3-3.25V9l7-4.5m0 14h4l3-3.25V9l-7-4.5m0-4v2m11 9h-2m.25-8.25L19 5m1.75 15.25L19 18.5m-18.5-7h2m-.25-8.25L4 5M2.25 20.25L4 18.5m4.5 0v2h3m3-2v2h-3m-2 0v2h2m2-2v2h-2m0 1v-1"/></g></symbol><symbol id="hd-icon-streamline-cyber-business-idea-user-3" viewBox="0 0 24 24"><g fill="none" stroke="currentColor" stroke-linejoin="round" stroke-miterlimit="10"><path d="m16.5 4.5l-4 2.25v4.5L14 12.5h5l1.5-1.25v-4.5z"/><path stroke-linecap="round" d="M14.5 12.5v2h4v-2m-2 0V10L18 8.5M16.5 10L15 8.5m1.5-6v-2m-3 2.5l-1-1.5m-1 3l-1.5-1m9.5-.5l1-1.5m1 3l1.5-1m-6.5 11v1"/><path d="m9.5 17.5l-3 1.5l-3-1.5v-4l3-1.5l3 1.5z"/><path d="m3.5 13.5l2 1h4"/><path stroke-linecap="round" d="M11.5 23.5v-2l-5-1.5l-5 1.5v2m5-1.5v1.5"/></g></symbol><symbol id="hd-icon-streamline-cyber-business-laptop-1" viewBox="0 0 24 24"><g fill="none" stroke="currentColor" stroke-linejoin="round" stroke-miterlimit="10"><path stroke-linecap="round" d="M11.5 16.5L10 18l1.5 1.5l1.499-1.5z"/><path stroke-linecap="round" d="M18 22.5H5l-2-8h17zm-17.5 0h22"/><path d="m14.5 8l-3 1.5l-3-1.5V4l3-1.5l3 1.5z"/><path d="M8.5 4L11 5.5h3.5"/><path stroke-linecap="round" d="M16.5 14.5V12l-5-1.5l-5 1.5v2.5m5-2v2"/></g></symbol><symbol id="hd-icon-streamline-cyber-business-magic-rabbit" viewBox="0 0 24 24"><g fill="none" stroke="currentColor" stroke-linecap="round" stroke-linejoin="round" stroke-miterlimit="10"><path d="M17 23.5H6l1.5-10h8zm-13.5-10h16m-12.9 6h9.8M4.5 5l1 1.936M18.5 5l-1 1.936"/><path d="M15 13.5L21 6l-1-3.5l-4 .5l-2.5 8.5l-2-.5l-2 .5L7 3l-4-.5L2 6l6 7.5"/></g></symbol><symbol id="hd-icon-streamline-cyber-business-male-megaphone" viewBox="0 0 24 24"><g fill="none" stroke="currentColor" stroke-linecap="round" stroke-linejoin="round" stroke-miterlimit="10"><path d="m23.5 8.938l-8-2.5v-2l8-3zm-8-4.5l-2-1v4l2-1"/><path d="M16.5 6.75v2l4 1.25V8m-13 2.5v3m3-8L7.5 7l-3-1.5V2l3-1.5l3 1.5zm1 8.5l3 2.5L13 10L7.5 8L2 10L.5 16.5l3-2.5"/><path d="M11.5 12.5v11l-4-6l-4 6v-11M4.5 2l2 1.5h4m-7 12h8"/></g></symbol><symbol id="hd-icon-streamline-cyber-business-network" viewBox="0 0 24 24"><g fill="none" stroke="currentColor" stroke-miterlimit="10"><path stroke-linejoin="round" d="m21.5 15.5l-3 1.5l-3-1.5v-4l3-1.5l3 1.5z"/><path d="M16.2 11.13L18 12.5h3.5"/><path stroke-linecap="round" stroke-linejoin="round" d="M23.5 23.5v-4l-5-1.5l-5 1.5v4m5-3v2"/><path stroke-linejoin="round" d="M5.5 17.462V3.539m8 13.923V3.539"/><path stroke-linecap="round" stroke-linejoin="round" d="M16.461 6.5H2.538m10.962 8H2.538m10.962-4H1"/><path stroke-linejoin="round" d="M9.5 19V2"/><path stroke-linecap="round" stroke-linejoin="round" d="m17.268 8.597l-1.629-4.236L9.5 2L3.361 4.361L1 10.5l2.361 6.139L9.5 19l4.855-1.867"/></g></symbol><symbol id="hd-icon-streamline-cyber-business-pick-user" viewBox="0 0 24 24"><path fill="none" stroke="currentColor" stroke-linecap="round" stroke-linejoin="round" stroke-miterlimit="10" d="M9.5 20.5v-8l1.5-1l1.5 1V18l2-1l1.5 1l1.5-1l2 1.5v5H8L6.5 21L8 17.5h1.5m5-8V7l-3-1l-3 1v2.5zm-1-5.5l-2 1l-2-1V1.5l2-1l2 1zm9 8.5V10l-3-1l-3 1v2.5zm-1-5.5l-2 1l-2-1V4.5l2-1l2 1zm-15 5.5V10l-3-1l-3 1v2.5zM5.5 7l-2 1l-2-1V4.5l2-1l2 1zm2-3.5h-1m1-2l-.924-.383M15.5 3.5h1m-1-2l.924-.383"/></symbol><symbol id="hd-icon-streamline-cyber-business-question" viewBox="0 0 24 24"><g fill="none" stroke="currentColor" stroke-linecap="round" stroke-linejoin="round"><path stroke-miterlimit="10" d="M6.5 23.5v-6h2v-5l-4-1.5l-4 1.5v5h2v6zm-2-10v3m3-8l-3 1.5l-3-1.5v-4l3-1.5l3 1.5z"/><path stroke-miterlimit="10" d="M7.5 5.5h-4l-2-1m11-.85l5-2.65l5 2.65v5.7l-5 2.65l-5-2.65z"/><path stroke-miterlimit="10" d="M15.5 5.5v-1l2-1l2 1v2l-2 1V8"/><path d="m17.5 9.625l-.25.25l.25.25m0-.5l.25.25l-.25.25"/></g></symbol><symbol id="hd-icon-streamline-cyber-business-scale-4" viewBox="0 0 24 24"><g fill="none" stroke="currentColor" stroke-linejoin="round" stroke-miterlimit="10"><path stroke-linecap="round" d="m2.07 10.955l19.86-8.363M12 3.637v17.771m-3.136 0h6.272"/><path d="M4.683 9.805v5.331M19.317 3.742v6.167M4.683 19.317L.5 15.136h8.363zm14.634-5.227l-4.181-4.18h8.363z"/></g></symbol><symbol id="hd-icon-streamline-cyber-business-startup-mobile" viewBox="0 0 24 24"><g fill="none" stroke="currentColor" stroke-linejoin="round" stroke-miterlimit="10"><path stroke-linecap="round" d="M.5 19.5h13m0-3v7H.5v-21h12m-6 19h1"/><path stroke-linecap="round" d="m11.508 12.667l-1.414-1.414l5.656-8.485L21.761 1l-1.768 6.01z"/><path d="M11.834 8.642L9.74 8.071L7 11.518l3.095-.266m4.024-.325l.571 2.094l-3.182 2.475v-2.829"/><path stroke-linecap="round" d="m11.225 9.556l1.932 1.932m5.422-7.306l-1.768.354l-.353 1.767l1.767-.353zM9.5 13.5h-2l-2 4l4-2z"/></g></symbol><symbol id="hd-icon-streamline-cyber-business-suitcase-2" viewBox="0 0 24 24"><g fill="none" stroke="currentColor" stroke-linecap="round" stroke-linejoin="round" stroke-miterlimit="10"><path d="m13.5 15.5l-2 2l-2-2v-4h4zM.5 11l9 2.647M16 6.5H7l1-3h7zm-4.5 8v-1"/><path d="M.5 11V6.5h22V11l-9 2.647"/><path d="M1.5 11.294V22.5h20V11.294"/></g></symbol><symbol id="hd-icon-streamline-cyber-business-target" viewBox="0 0 24 24"><g fill="none" stroke="currentColor" stroke-linejoin="round" stroke-miterlimit="10"><path stroke-linecap="round" d="m10.5 13.5l5-5m0-4v4h4l4-4h-4v-4z"/><path stroke-linecap="round" d="M19.5 12.5v6l-9 5l-9-5V9l9-5.5L13 5"/><path d="m15.5 16l-5 3l-5-3v-5l5-3l5 3z"/><path stroke-linecap="round" d="M3.726 19.737L.5 23.5m16.774-3.763L20.5 23.5"/></g></symbol><symbol id="hd-icon-streamline-cyber-business-work-station-1" viewBox="0 0 24 24"><g fill="none" stroke="currentColor" stroke-linecap="round" stroke-linejoin="round" stroke-miterlimit="10"><path d="M21 18.5H1.5l-1-3H22zm-20.5-7h13m-2 4v3m-9.5 5l3.5-5h-3l-.476 5zm18.5 0l-3.5-5h3l.476 5zm-7-20H.5v10h13zm-5 10v2m-3-2v2m-.5 0h4m8.75-9L16 3.5l1.75-3h3.5l1.75 3l-1.75 3z"/><path d="M19.5 2.557v1.309l1 .634m1 8h-3v3h3zm-2 0v-2m1 2l1.5-2"/></g></symbol><symbol id="hd-icon-streamline-cyber-businessman" viewBox="0 0 24 24"><g fill="none" stroke="currentColor" stroke-linecap="round" stroke-linejoin="round" stroke-miterlimit="10"><path d="M17.5 8.5h2V11l-2 1m-6 9.5l-1.5-2l1.5-2l1.5 2zm1.5 2l-1.5-2l-1.5 2m5.5-1h3m-1-15V14l-6 2.5l-6-2.5V8.5"/><path d="m8 6.5l-2.5 2V3.062L11.5.5l6 2.5v4.5H11zm-2.5 2h-2V11l2 1m4-2.5v1m4-1v1M10 13l1.5.5L13 13m9.5 10.5l-1-4l-10-2l-10 2l-1 4"/></g></symbol><symbol id="hd-icon-streamline-cyber-businessman-speech" viewBox="0 0 24 24"><g fill="none" stroke="currentColor" stroke-linecap="round" stroke-linejoin="round" stroke-miterlimit="10"><path d="M18.5 12.5h-14l1.5 11h11zm-17 0h20m-19 0V7l3-1.5m9 .5l-3 1.5l-3-1.5V2.5l3-1.5l3 1.5z"/><path d="m8.5 2.5l2.5 1h3.5m2 9V10l-5-1.5l-5 1.5v2.5m5-2v2"/></g></symbol><symbol id="hd-icon-streamline-cyber-camera-4" viewBox="0 0 24 24"><g fill="none" stroke="currentColor" stroke-linejoin="round" stroke-miterlimit="10"><path stroke-linecap="round" d="M22.5 10.5H.5v13h22zm-18-9v1m0 4v1m-3-3h1m4 0h1"/><path d="M14.5 10.5h-8l1-3h6z"/><path stroke-linecap="round" d="M18.5 8.5h2m-6 10.75l-4 2.25l-4-2.25v-4.5l4-2.25l4 2.25z"/><path stroke-linecap="round" d="m12.5 18l-2 1.25l-2-1.25v-2l2-1.25l2 1.25z"/></g></symbol><symbol id="hd-icon-streamline-cyber-camera-7" viewBox="0 0 24 24"><g fill="none" stroke="currentColor" stroke-linejoin="round" stroke-miterlimit="10"><path d="M22.5 14.5h-4M3 10.5l4 4h3.5"/><path stroke-linecap="round" d="M18.5 12.5h2"/><path d="m.5 17.5l6 6"/><path stroke-linecap="round" d="M20.5 10.5h-7l1-3h5z"/><path d="M22.5 10.5H.5v13h22z"/><path stroke-linecap="round" d="m18.5 19l-4 2.25l-4-2.25v-4.5l4-2.25l4 2.25z"/><path stroke-linecap="round" d="M12.5 17.75v-2l2-1.25"/></g></symbol><symbol id="hd-icon-streamline-cyber-camera-8" viewBox="0 0 24 24"><g fill="none" stroke="currentColor" stroke-linejoin="round" stroke-miterlimit="10"><path stroke-linecap="round" d="M22.5 23.5H.5v-15h13l2-3h7z"/><path stroke-linecap="round" d="M1.5 8.5v-2h6v2m-4-2v2m2-2v2m15-1h-4v2h4zm-18 9h1"/><path d="M.5 20.5h6.714m8.572 0H22.5m-22-7h5m12 0h5"/><path stroke-linecap="round" d="M7.5 16.5V14l2.517-1.416"/><path stroke-linecap="round" d="m17.5 19.5l-6 3.5l-6-3.5V13l6-3.5l6 3.5z"/></g></symbol><symbol id="hd-icon-streamline-cyber-camera-9" viewBox="0 0 24 24"><g fill="none" stroke="currentColor" stroke-linecap="round" stroke-linejoin="round" stroke-miterlimit="10"><path d="m21 10.5l-9.5-9l-9.5 9"/><path d="m14 10.5l-1-3H8l-1 3H.5v13h22v-13zm-4.5-1h2"/><path d="M4.5 13.5L3 15l1.5 1.5L6 15zm15 5.75l-4 2.25l-4-2.25v-4.5l4-2.25l4 2.25z"/><path d="m17.5 18l-2 1.25l-2-1.25v-2l2-1.25l2 1.25z"/></g></symbol><symbol id="hd-icon-streamline-cyber-camera-film-roll-2" viewBox="0 0 24 24"><g fill="none" stroke="currentColor" stroke-linecap="round" stroke-linejoin="round" stroke-miterlimit="10"><path d="M19.5 9.5h-1m-3 0h-1m-3 0h-1m5 8h-1m-3 0h-1m7 2h-10v-12h15z"/><path d="M14.5 19.5v2h-13v-16h13v2m1-4H.5v2h15zm0 18H.5v2h15zm-8-14v-2m0 14v2m-2-18v-2h4v2m-4 18v-16"/></g></symbol><symbol id="hd-icon-streamline-cyber-camera-flash-off" viewBox="0 0 24 24"><g fill="none" stroke="currentColor" stroke-linejoin="round" stroke-miterlimit="10"><path d="M17.25 10.5h-5l4-5h-5.5l-3.5 7h4l-3 6.5z"/><path d="m22.5 18l-10 5.5l-10-5.5V7l10-5.5l10 5.5z"/><path stroke-linecap="round" d="m15.053 16.803l2.32 4.017M7.728 4.125L8.522 5.5"/></g></symbol><symbol id="hd-icon-streamline-cyber-camera-lens-3" viewBox="0 0 24 24"><path fill="none" stroke="currentColor" stroke-linecap="round" stroke-linejoin="round" stroke-miterlimit="10" d="M16.5 5.5h-10v13h10zm1 0h-12l-1-5h14zm-9 7v4m2-4v4m2-4v4m2-4v4m.5 4H8l-.5-2h8zm-1.5 0h-4v2h4zm-7-10h10m-11.6-8h13.2"/></symbol><symbol id="hd-icon-streamline-cyber-camera-night" viewBox="0 0 24 24"><g fill="none" stroke="currentColor" stroke-linecap="round" stroke-linejoin="round" stroke-miterlimit="10"><path d="m14.5 14.5l-3.429 3H16l2.5-2v-6l-2.5-2h-5l3.5 3z"/><path d="m20.5 15.848l3-3.348l-3-3.348V4.5h-4.652l-3.348-3l-3.348 3H4.5v4.652l-3 3.348l3 3.348V20.5h4.652l3.348 3l3.348-3H20.5z"/></g></symbol><symbol id="hd-icon-streamline-cyber-camera-polaroid" viewBox="0 0 24 24"><g fill="none" stroke="currentColor" stroke-linejoin="round" stroke-miterlimit="10"><path d="M19.5 12.5h-16v-10l1-1h14l1 1zm3 3H.5l3-3h16z"/><path stroke-linecap="round" d="M3.5 20.5H2l-1.5-5h22l-1.5 5h-1.5"/><path d="M9.5 4.667V1.5m0 11V9.333m4-4.666V1.5m0 11V9.333"/><path stroke-linecap="round" d="M16.5 3.5h1m-13 14h14m0 6h-14l2-6h10zm-13.333-2h12.666M10 7V6l1-.5"/><path stroke-linecap="round" d="m8.5 5.25l3-1.75l3 1.75v3.5l-3 1.75l-3-1.75z"/></g></symbol><symbol id="hd-icon-streamline-cyber-camera-user" viewBox="0 0 24 24"><g fill="none" stroke="currentColor" stroke-linejoin="round" stroke-miterlimit="10"><path stroke-linecap="round" d="M9.5 17.25L12 18.5l6.5-3v-7m4 15l-2-3l-8.5-1l-8.5 1l-2 3m17-14h2V12l-2 1m-4-2.5v1M6 4.5l6-3L18.5 4v4.5l-3.5-2h-2.5"/><path stroke-linecap="round" d="m8 20l4 3.5l4-3.5"/><path d="M5.5 10.25L7.5 9l2 1.25v2l-2 1.25l-2-1.25z"/><path stroke-linecap="round" d="M2.5 8.5v-1m7.5 1l-1-2H6l-1 2H.5v7h12v-7z"/></g></symbol><symbol id="hd-icon-streamline-cyber-camera-video-off-2" viewBox="0 0 24 24"><path fill="none" stroke="currentColor" stroke-linecap="round" stroke-linejoin="round" stroke-miterlimit="10" d="M17.5 15v-.5l5 2v-10l-5 2v-4h-10m-6 0h-1v14h14m8 4L.5.5"/></symbol><symbol id="hd-icon-streamline-cyber-campfire" viewBox="0 0 24 24"><path fill="none" stroke="currentColor" stroke-linecap="round" stroke-linejoin="round" stroke-miterlimit="10" d="M4.5 15.5V10l2-2V3.5l2 4.5v4l3-4V.5l7 7.5v7.5l-7 3.5zm.5 8l13-4m0 4l-13-4"/></symbol><symbol id="hd-icon-streamline-cyber-cannabis-leaf" viewBox="0 0 24 24"><path fill="none" stroke="currentColor" stroke-linecap="round" stroke-linejoin="round" stroke-miterlimit="10" d="M11.5 23.5v-4m5.5 3l-3.5-4l4.5.5l4.5-1.5L18 16l-4.5.521l5-3.469l2.899-5.451l-5.021 2.92l-3.879 5l1.5-8L11.5.5L9 7.522l1.5 8l-3.879-5l-5.02-2.92L4.5 13.053l5 3.469L5 16L.5 17.5L5 19l4.5-.5l-3.5 4l5.5-3z"/></symbol><symbol id="hd-icon-streamline-cyber-car-4" viewBox="0 0 24 24"><g fill="none" stroke="currentColor" stroke-linecap="round" stroke-linejoin="round" stroke-miterlimit="10"><path d="M4.5 21.5h-4l1.5-7h3.5l3-5h13l2 12h-3m-12 0h8"/><path d="m5.5 14.5l-1 2H1.571m8.429 3h4.5m-9-5h16.833m-10.833 0v-5m6 5v-5m3 12.75l-2 1.25l-2-1.25v-2l2-1.25l2 1.25zm-12 0l-2 1.25l-2-1.25v-2l2-1.25l2 1.25z"/></g></symbol><symbol id="hd-icon-streamline-cyber-cards-2" viewBox="0 0 24 24"><g fill="none" stroke="currentColor" stroke-linecap="round" stroke-linejoin="round" stroke-miterlimit="10"><path d="m14.4 15.243l-.7-3.537L16.696 9.7l.701 3.537z"/><path d="m13.337 3.438l-5.74 13.86l10.163 4.209l5.74-13.86z"/><path d="M7.936 17.438H6.5V2.5h11v2.662"/><path d="M11.747 19.016L6.24 21.297L.5 7.437L6.505 4.95"/></g></symbol><symbol id="hd-icon-streamline-cyber-cash-bag-give" viewBox="0 0 24 24"><g fill="none" stroke="currentColor" stroke-linejoin="round" stroke-miterlimit="10"><path stroke-linecap="round" d="M16.5 13.5h-6l-7-1m8.5-8h5L18 6l-1 1.5L18 9l-1 1.5l.5 1.5l-1 1.5m-13-6l3.5-1l1.5-3l2.4-1.2m3.6 14.2h-2l-.5 1l.5 1h2l.5 1l-.5 1h-2m1-4v-1m0 6v-1"/><path d="m16 13.5l3.5 3v5l-6 2l-6-2v-5l3-3"/><path stroke-linecap="round" d="m10 .5l2 4h3l2-4zm-6.5 6h-3v7h3z"/></g></symbol><symbol id="hd-icon-streamline-cyber-cash-hand-1" viewBox="0 0 24 24"><g fill="none" stroke="currentColor" stroke-linecap="round" stroke-linejoin="round" stroke-miterlimit="10"><path d="M10.5 10.5L9 .5h7.5"/><path d="m13 12.5l-1-10h8l-1.5 10m-.5 10h-8l-2.5 1m3-11H19l1 1.5l-1 1.5l1 2l-1 2l.5 1.5l-1.5 1.5m-17.5-5l4-1.5l4-6.5l1.682-1.121"/><path d="m16 6l-1.5 1.5L16 9l1.499-1.5l-1.5-1.5z"/></g></symbol><symbol id="hd-icon-streamline-cyber-cash-hand-4" viewBox="0 0 24 24"><g fill="none" stroke="currentColor" stroke-linecap="round" stroke-linejoin="round" stroke-miterlimit="10"><path d="M3.5 6L7 2.5M3.5 9L7 12.5m0 0H3.5v-10h18v10h-8m8-6.5L18 2.5M21.5 9L18 12.5m-15 11l5.5-3h7l5.5-3l-.5-1.5l-5 1l-6.5-.5l2-2.5l-.5-1.5l-5 3l-2.5 3l-2.5 1"/><path d="M13.5 5.5h-2l-.5 1l.5 1h2l.5 1l-.5 1h-2m1-4v-1m0 6v-1"/></g></symbol><symbol id="hd-icon-streamline-cyber-cassette-tape-1" viewBox="0 0 24 24"><g fill="none" stroke="currentColor" stroke-linecap="round" stroke-linejoin="round"><path stroke-miterlimit="10" d="M8.5 7.5h6m8-3H.5v16h22z"/><path stroke-miterlimit="10" d="m8.5 7.5l1.5 3l-1.5 3h-4l-1.5-3l1.5-3zm0 6h6m-8 7l2-3h6l2 3m2-13l1.5 3l-1.5 3h-4l-1.5-3l1.5-3z"/><path d="m6.505 10l.505.504l-.505.505m0-1.009L6 10.504l.505.505m10-1.009l.505.504l-.505.505m0-1.009l-.505.504l.505.505"/></g></symbol><symbol id="hd-icon-streamline-cyber-castle-2" viewBox="0 0 24 24"><g fill="none" stroke="currentColor" stroke-linecap="round" stroke-linejoin="round" stroke-miterlimit="10"><path d="M1.5 23.5H22M7 8.5h9m-6.5 15V20l2-1.5l2 1.5v3.5"/><path d="M16.5.5v2h-2v-2h-2v2h-2v-2h-2v2h-2v-2h-2V6L7 8.5l-2 15h13l-2-15L18.5 6V.5zm-5 14v-2m-1 1h2"/></g></symbol><symbol id="hd-icon-streamline-cyber-cat-2" viewBox="0 0 24 24"><g fill="none" stroke="currentColor" stroke-linecap="round" stroke-linejoin="round" stroke-miterlimit="10"><path d="m22 6.5l-1.5 2l2 2L21 15l-5 1.5M9.5 14l7-3.5V.5l-4.5 3H7L2.5.5v10z"/><path d="m11.5 9l-2 1.5l-2-1.5m0-2.5v-1m4 1v-1m1.762 6.619L16 16.5l1 7l-5-3H7.5l-5 3l1-7l2.619-4.191M4.5 8.5h-4m4 2l-4 1m14-3h4m-4 2l4 1m-9-1V14"/></g></symbol><symbol id="hd-icon-streamline-cyber-caution-fence" viewBox="0 0 24 24"><path fill="none" stroke="currentColor" stroke-linecap="round" stroke-linejoin="round" stroke-miterlimit="10" d="M23.5 6.5H.5v7h23zm-20 7v10m17-10v10m-15-19v2m13-2v2M1 13.5l7-7m-2 7l7-7m-2 7l7-7m-2 7l7-7M5.5.5l-2 2l2 2l2-2zm13 0l-2 2l2 2l2-2zm-17 23h4m13 0h4"/></symbol><symbol id="hd-icon-streamline-cyber-charlie-chaplin" viewBox="0 0 24 24"><g fill="none" stroke="currentColor" stroke-linecap="round" stroke-linejoin="round" stroke-miterlimit="10"><path d="M10.5 16.5h2l1.5 3H9zm-4-6h3m3.5.5l1.5-1l1.5 1m-12.5.5h-2v4l2 1m16-5h2v4l-2 1m-5-4v1m-6-1v1m-8-5h22"/><path d="m19.5 20l-8 3.5l-8-3.5V3.5l8-3l8 3z"/></g></symbol><symbol id="hd-icon-streamline-cyber-check-double" viewBox="0 0 24 24"><path fill="none" stroke="currentColor" stroke-linecap="round" stroke-linejoin="round" stroke-miterlimit="10" d="M1.806 14L.5 16L7 23.5l10.5-20L5.5 17zM11 20.5l2.5 2l9-18l-7.974 8.734"/></symbol><symbol id="hd-icon-streamline-cyber-check-shield" viewBox="0 0 24 24"><g fill="none" stroke="currentColor" stroke-linecap="round" stroke-linejoin="round" stroke-miterlimit="10"><path d="m5.5 10l4.5 5.5L23.5 2"/><path d="M19.641 3.09L11.5.5L.5 4L3 19.5l8.5 4l8.5-4l2.022-12.538"/></g></symbol><symbol id="hd-icon-streamline-cyber-cheese" viewBox="0 0 24 24"><g fill="none" stroke="currentColor" stroke-linecap="round" stroke-linejoin="round"><path stroke-miterlimit="10" d="m23.5 7.5l-7-7l-16 9"/><path stroke-miterlimit="10" d="M.5 9.5v3l4 3l-4 3v5l23-3v-13z"/><path stroke-miterlimit="10" d="m8 16.5l-1.5 1V19L8 20l1.5-1v-1.5zm13.5-2.75l-2 1.25l-2-1.25v-2l2-1.25l2 1.25z"/><path d="m9.995 11.5l.505.505l-.505.504m0-1.009l-.504.505l.504.504m6.01 4.986l.505.505l-.505.505m0-1.01L15.5 18l.505.505"/></g></symbol><symbol id="hd-icon-streamline-cyber-clapboard-play-open" viewBox="0 0 24 24"><g fill="none" stroke="currentColor" stroke-linejoin="round" stroke-miterlimit="10"><path stroke-linecap="round" d="M2.5 9.5h20v14H.5v-11m22 0H.5"/><path stroke-linecap="round" d="M5.5 12.5h-5v-5zm-5 0h22M8 9.5l3 3m2-3l3 3m2-3l3 3M3.075 8.524L5.393 4.97m2.575 2.523l2.317-3.553m2.576 2.523l2.317-3.554m2.575 2.524l2.318-3.554"/><path stroke-linecap="round" d="m1.793 8.793l20.698-4.357l-.618-2.936L.5 6l.4 1.9z"/><path d="M9.5 20.5v-5l4 2.5z"/></g></symbol><symbol id="hd-icon-streamline-cyber-clock-1" viewBox="0 0 24 24"><g fill="none" stroke="currentColor" stroke-linecap="round" stroke-linejoin="round" stroke-miterlimit="10"><path d="M10.5 20.5v-2M5 7l1.5 1.5M16 7l-1.5 1.5M5 18l1.5-1.5M16 18l-1.5-1.5m-12-4h2m14 0h-2m-6-7v7h4"/><path d="m20.5 18l-10 5.5L.5 18V7l10-5.5l10 5.5z"/></g></symbol><symbol id="hd-icon-streamline-cyber-cloud" viewBox="0 0 24 24"><path fill="none" stroke="currentColor" stroke-linecap="round" stroke-linejoin="round" stroke-miterlimit="10" d="M21 11.5h-3l-2.5-6h-5L8 9.5H4L.5 15L4 19.5h16l2.5-3.5zm-6.5 0H18"/></symbol><symbol id="hd-icon-streamline-cyber-cloud-disable" viewBox="0 0 24 24"><path fill="none" stroke="currentColor" stroke-linecap="round" stroke-linejoin="round" stroke-miterlimit="10" d="M14.5 10.5H18M.5 1.5l22 22m-5-5H20l2.5-3.5l-1.5-4.5h-3l-2.5-6h-5L8 8.5h-.5m-3 0H4L.5 14L4 18.5h10.5"/></symbol><symbol id="hd-icon-streamline-cyber-cloud-flash" viewBox="0 0 24 24"><g fill="none" stroke="currentColor" stroke-linecap="round" stroke-linejoin="round" stroke-miterlimit="10"><path d="M18.5 16.5H20l2.5-3.5L21 8.5h-3l-2.5-5h-5L8 6.5H4L.5 12L4 16.5h1.5m9-8H18"/><path d="M16.5 16.5h-4v-6l-5 7h4v6z"/></g></symbol><symbol id="hd-icon-streamline-cyber-cloud-rain-1" viewBox="0 0 24 24"><g fill="none" stroke="currentColor" stroke-linejoin="round" stroke-miterlimit="10"><path stroke-linecap="round" d="m3.5 18.5l-3 3m8-3l-3 3m8-3l-3 3m8-3l-3 3"/><path d="M21 8.5h-3l-2.5-5h-5L8 6.5H4L.5 12L4 16.5h16l2.5-3.5z"/><path stroke-linecap="round" d="M14.5 8.5H18"/></g></symbol><symbol id="hd-icon-streamline-cyber-cloud-refresh" viewBox="0 0 24 24"><g fill="none" stroke="currentColor" stroke-linecap="round" stroke-linejoin="round" stroke-miterlimit="10"><path d="m8.5 15.5l2-2H13l3.5 4"/><path d="M16.5 14.5v3h-3m1 2l-2 2H10l-3.5-4"/><path d="M6.5 20.5v-3h3m9-1H20l2.5-3.5L21 8.5h-3l-2.5-5h-5L8 6.5H4L.5 12L4 16.5h.5m10-8H18"/></g></symbol><symbol id="hd-icon-streamline-cyber-cloud-smart-mobile-phone" viewBox="0 0 24 24"><g fill="none" stroke="currentColor" stroke-linecap="round" stroke-linejoin="round" stroke-miterlimit="10"><path d="M8.5 19.5h7m2-3H20l2.5-3.5L21 8.5h-3l-2.5-5h-5L8 6.5H4L.5 12L4 16.5h2.5m8-8H18"/><path d="M15.5 11.5h-7v10h7z"/></g></symbol><symbol id="hd-icon-streamline-cyber-cloud-storm-1" viewBox="0 0 24 24"><g fill="none" stroke="currentColor" stroke-linejoin="round" stroke-miterlimit="10"><path d="M15 17.5h-2.5v-5l-4.5 6h2.5v5z"/><path stroke-linecap="round" d="M17.5 16.5H20l2.5-3.5L21 8.5h-3l-2.5-5h-5L8 6.5H4L.5 12L4 16.5h1.5m9-8H18"/></g></symbol><symbol id="hd-icon-streamline-cyber-cloud-transfer-half" viewBox="0 0 24 24"><path fill="none" stroke="currentColor" stroke-linecap="round" stroke-linejoin="round" stroke-miterlimit="10" d="M21 6.5h-3l-2.5-6h-5L8 4.5H4L.5 10L4 14.5h16l2.5-3.5zm-6.5 0H18m-10.5 12l-3.5 5m7-5l-3.5 5m11.5 0l3.5-5H4l-3.5 5z"/></symbol><symbol id="hd-icon-streamline-cyber-cloud-upload-download-data-transfer" viewBox="0 0 24 24"><g fill="none" stroke="currentColor" stroke-linecap="round" stroke-linejoin="round" stroke-miterlimit="10"><path d="M8.5 14.5v9m-3-3l3 3l3-3m3-1v-9m3 3l-3-3l-3 3"/><path d="M19.5 14.5h.5l2.5-3.5L21 6.5h-3l-2.5-5h-5L8 4.5H4L.5 10L4 14.5h1.5m9-8H18"/></g></symbol><symbol id="hd-icon-streamline-cyber-cloud-wifi-network" viewBox="0 0 24 24"><g fill="none" stroke="currentColor" stroke-linecap="round" stroke-linejoin="round" stroke-miterlimit="10"><path d="M21 15.5h-3l-2.5-5h-5l-2.5 3H4L.5 19L4 23.5h16l2.5-3.5zm-6.5 0H18M5.5 4.5l4-4h7l4 4"/><path d="M7.25 6.25L10 3.5h6l2.75 2.75m-9.5 2L11 6.5h4l1.75 1.75"/></g></symbol><symbol id="hd-icon-streamline-cyber-coffee-cup-hot-2" viewBox="0 0 24 24"><g fill="none" stroke="currentColor" stroke-linecap="round" stroke-linejoin="round" stroke-miterlimit="10"><path d="M17.5 10.5h-15l3 13h9z"/><path d="M15.423 19.5H19.5l2-7h-4.462M6.5 7l1-1l-2-2l1-1M10 7l1-1l-2-2l1-1m3.5 4l1-1l-2-2l1-1"/></g></symbol><symbol id="hd-icon-streamline-cyber-cog" viewBox="0 0 24 24"><g fill="none" stroke="currentColor" stroke-linecap="round" stroke-linejoin="round" stroke-miterlimit="10"><path d="m16.5 14.5l-4.5 3l-4.5-3v-4l4.5-3l4.5 3z"/><path d="M19.5 10.799L22 8.127l-1.544-2.573l-3.578.96l-2.321-1.315L13.5 1.5h-3L9.443 5.199L7.122 6.514l-3.579-.96L2 8.127l2.5 2.672v3.402L2 16.873l1.543 2.573l3.579-.96l2.321 1.315L10.5 23.5h3l1.057-3.699l2.321-1.315l3.578.96L22 16.873l-2.5-2.672z"/><path d="m12 11l-1.5 1.5L12 14l1.499-1.5z"/></g></symbol><symbol id="hd-icon-streamline-cyber-coin-hand-1" viewBox="0 0 24 24"><g fill="none" stroke="currentColor" stroke-linecap="round" stroke-linejoin="round" stroke-miterlimit="10"><path d="M4.923 11.225L9 8.5h5.5l1.511 2.5l-1.5 3l-5-1l-1.5 1l.5 1.5l6.5 2.5l8-2.5"/><path d="m23.011 9l-6.5-4l-8.5.5l-4.5 4l-.844 2.531m2.844 1.445h-2l-.5 1l.5 1h2l.5 1l-.5 1h-2m1-4v-.5m0 5v-.5"/><path d="M8.511 17.476v.25l-4 2.25l-4-2.25L.5 13.25l4-2.25l2.717 1.448"/></g></symbol><symbol id="hd-icon-streamline-cyber-coin-stack" viewBox="0 0 24 24"><g fill="none" stroke="currentColor" stroke-linecap="round" stroke-linejoin="round" stroke-miterlimit="10"><path d="M12.5 8.5v-3L9 7.5H4l-3.5-2v15"/><path d="m12.5 8.5l-3.5 2H4l-3.5-2m8.975 4.729L9 13.5H4l-3.5-2m8.975 4.729L9 16.5H4l-3.5-2m8.975 4.729L9 19.5H4l-3.5-2m8.975 4.729L9 22.5H4l-3.5-2m0-15l3.5-2h5l3.5 2m11 15v-9l-3.5 2h-5l-3.5-2v9"/><path d="m23.5 14.5l-3.5 2h-5l-3.5-2m12 3l-3.5 2h-5l-3.5-2m12 3l-3.5 2h-5l-3.5-2m0-9l3.5-2h5l3.5 2m-5-10v1m0 4v1m3-3h-1m-4 0h-1"/></g></symbol><symbol id="hd-icon-streamline-cyber-command-2" viewBox="0 0 24 24"><path fill="none" stroke="currentColor" stroke-linecap="round" stroke-linejoin="round" stroke-miterlimit="10" d="M3.5 17.5h-3v6h6v-15m11 12v3h6v-6h-15m12-11h3v-6h-6v15m-11-12v-3h-6v6h15"/></symbol><symbol id="hd-icon-streamline-cyber-compass-2" viewBox="0 0 24 24"><g fill="none" stroke="currentColor" stroke-linecap="round" stroke-linejoin="round" stroke-miterlimit="10"><path d="M10.5 19.5v-6h-6l13-6.225z"/><path d="M22.5 17.75L12 23.5L1.5 17.75V6.25L12 .5l10.5 5.75z"/></g></symbol><symbol id="hd-icon-streamline-cyber-compasses" viewBox="0 0 24 24"><g fill="none" stroke="currentColor" stroke-linecap="round" stroke-linejoin="round" stroke-miterlimit="10"><path d="m14.5 7.278l-2 2.222l-2-2.222V3.5h4zm-2-3.778v-2m8.608 18.386L23.5 23.5m-18-3.323L4 23.5l-1.5-3.323V17.5h3zM5.5 4.5h-3v9h3zm-3 3h3m7 2l-4.5 8"/><path d="M10.5 7.278L7 13.5H1.5v4H8l4.5-8m9.719 9.406L14.5 7.278l-2 2.222l7.538 11.33zM2.5 19.5h3"/></g></symbol><symbol id="hd-icon-streamline-cyber-computer-chips-32-bit" viewBox="0 0 24 24"><g fill="none" stroke="currentColor" stroke-linecap="round" stroke-linejoin="round" stroke-miterlimit="10"><path d="M20.5 3.5h-18v18h18zm-18 14l4 4m14-4l-4 4m-14-14l4-4m14 4l-4-4m-5-2v2m3-2v2m-6-2v2m3 18v2m3-2v2m-6-2v2m14-11h-2m2 3h-2m2-6h-2m-18 3h-2m2 3h-2m2-6h-2"/><path d="M15.5 15.5h-3V14l3-1.5v-2l-1.5-1l-1.5 1v1m-5 4H10l.5-1.625l-1-1.562l1-1.407L10 9.5H7.5m.5 3h1.5"/></g></symbol><symbol id="hd-icon-streamline-cyber-computer-device-connection" viewBox="0 0 24 24"><g fill="none" stroke="currentColor" stroke-linecap="round" stroke-linejoin="round" stroke-miterlimit="10"><path d="M14.5 11.5H.5v10h14zm-14 7h14m9-18h-7v11h7zm-7 8h7m-10-4h-7v5"/><path d="m11.5 2.5l2 2l-2 2m-3 1l-2 2l-2-2m3 14v2m-4 0h8"/></g></symbol><symbol id="hd-icon-streamline-cyber-computer-imac-check" viewBox="0 0 24 24"><g fill="none" stroke="currentColor" stroke-linecap="round" stroke-linejoin="round" stroke-miterlimit="10"><path d="M18.5 12.5v6H.5v-14h12m3 18v1h-12v-1l4-1.5v-2.5h4V21zm-15-7h18"/><path d="m22.5 7.75l-4 2.25l-4-2.25v-4.5l4-2.25l4 2.25z"/><path d="M16.5 5.5L18 7l2.5-3"/></g></symbol><symbol id="hd-icon-streamline-cyber-computer-imac-smiley-face" viewBox="0 0 24 24"><g fill="none" stroke="currentColor" stroke-linecap="round" stroke-linejoin="round" stroke-miterlimit="10"><path d="M22.5 1.5H.5v17h22zm-22 14h22m-5 7v1h-12v-1l4-1.5v-2.5h4V21z"/><path d="m8 9l1.5 1.5h4L15 9M9.5 5.5v1m4-1v1"/></g></symbol><symbol id="hd-icon-streamline-cyber-computer-pc-4" viewBox="0 0 24 24"><g fill="none" stroke="currentColor" stroke-linecap="round" stroke-linejoin="round" stroke-miterlimit="10"><path d="M6.5 21.5h1m2 0h1m2 0h1m2 0h1m4 2h-18l2.5-4h13zm-1-23h-16v15h16z"/><path d="M17.5 2.5h-12v9h12zm-1 11h-3m-8.5 2l.5 2h12l.5-2"/></g></symbol><symbol id="hd-icon-streamline-cyber-computer-ram" viewBox="0 0 24 24"><g fill="none" stroke="currentColor" stroke-linecap="round" stroke-linejoin="round" stroke-miterlimit="10"><path d="M18.5 1.5h-14v22h14z"/><path d="M6.5 3.5H10L11.5 5L13 3.5h3.5v18H13L11.5 20L10 21.5H6.5zm12 0h2m-2 2.999h2m-2 3h2m-2 2.999h2m-2 3h2m-2 2.999h2m-2 3h2M2.5 3.5h2m-2 2.999h2m-2 3h2m-2 2.999h2m-2 3h2m-2 2.999h2m-2 3h2"/></g></symbol><symbol id="hd-icon-streamline-cyber-computer-screen-imac-download" viewBox="0 0 24 24"><g fill="none" stroke="currentColor" stroke-linecap="round" stroke-linejoin="round" stroke-miterlimit="10"><path d="m15 8l-3.5 3.5L8 8m3.5 3.5V.5m0 20v3m-4 0h8"/><path d="M6.5 6.5h-6v14h22v-14h-6m-16 11h22"/></g></symbol><symbol id="hd-icon-streamline-cyber-confetti-popper" viewBox="0 0 24 24"><g fill="none" stroke="currentColor" stroke-linecap="round" stroke-linejoin="round"><path stroke-miterlimit="10" d="M7.386 9.142L.5 23.5l14.445-6.918"/><path stroke-miterlimit="10" d="M14.945 16.582L9.43 14.626L7.386 9.142l5.516 1.956zM12.5 8l-1-1.5l1-1.5l-1-1.5l1-1.5l-1-1.5m4 11.5l2-1l1.5 1l1.5-1l1.5 1l1.5-1m-5.275-2.354l1.003-1.498l1.769.35L22 6m-7.276-.32l.493-1.734l1.79-.212L17.5 2"/><path d="m8.004 4.49l.505.505l-.505.505m0-1.01l-.505.505l.505.505m7.501 2.49l.505.505l-.505.505m0-1.01L15 8.496l.505.505m4.5-5.52l.505.505l-.505.505m0-1.01l-.505.505l.505.505M19.494 14l.505.505l-.505.505m0-1.01l-.505.505l.505.505"/></g></symbol><symbol id="hd-icon-streamline-cyber-contact-list-1" viewBox="0 0 24 24"><g fill="none" stroke="currentColor" stroke-linecap="round" stroke-linejoin="round" stroke-miterlimit="10"><path d="M16 20.5h3.5V17L18 15.5h-2.5l-3-3V10L11 8.5H7.5V12z"/><path d="M22.5 5.5h-18v18h18zm-18 0l-3-2l3-2h18m-18 22l-3-2v-18m20 0H5"/></g></symbol><symbol id="hd-icon-streamline-cyber-control-next" viewBox="0 0 24 24"><g fill="none" stroke="currentColor" stroke-linejoin="round" stroke-miterlimit="10"><path d="M7.5 15.5v-6l5 3z"/><path stroke-linecap="round" d="M14.5 9.5v6"/><path d="m1.5 18l10 5.5l10-5.5V7l-10-5.5L1.5 7z"/></g></symbol><symbol id="hd-icon-streamline-cyber-control-play" viewBox="0 0 24 24"><g fill="none" stroke="currentColor" stroke-linejoin="round" stroke-miterlimit="10"><path d="M9.5 15.5v-6l5 3z"/><path d="m21.5 18l-10 5.5l-10-5.5V7l10-5.5l10 5.5z"/></g></symbol><symbol id="hd-icon-streamline-cyber-controller-wireless" viewBox="0 0 24 24"><g fill="none" stroke="currentColor" stroke-linecap="round" stroke-linejoin="round"><path stroke-miterlimit="10" d="M5.5 7.206L9.308 3.5h5.384L18.5 7.257"/><path stroke-miterlimit="10" d="M7.5 8.188L10.136 5.5h3.728L16.5 8.162"/><path stroke-miterlimit="10" d="M9.5 9.034L10.964 7.5h2.071L14.5 8.999M15 22.5l3.5 1L22 22l1.5-3.5L22 15l-3.5-1.5l-3.5 1H9l-3.5-1L2 15L.5 18.5L2 22l3.5 1.5l3.5-1zm-9.5-6v4m2-2h-4m6 2h1m3 0h1"/><path d="m12.004 10.491l.505.505l-.505.505m0-1.01l-.505.505l.505.505m6.5 4.501l.505.504l-.505.505m0-1.009l-.505.504l.505.505m-2.009.979l.505.505l-.505.505m0-1.01l-.504.505l.504.505m2.009 1l.505.505l-.505.504m0-1.009l-.505.505l.505.504m2-3.009l.505.504l-.505.505m0-1.009l-.505.504l.505.505"/></g></symbol><symbol id="hd-icon-streamline-cyber-credit-card-1" viewBox="0 0 24 24"><g fill="none" stroke="currentColor" stroke-linecap="round" stroke-linejoin="round" stroke-miterlimit="10"><path d="M22.5 4.5H.5v16h22z"/><path d="M6.5 7.5h-3v4h3zm-3 8h2m2 0h4m-7 2h-1m6 0h-3m14-1l-2-2L17 16l-1.5-1.5l-2 2l2 2L17 17l1.5 1.5z"/></g></symbol><symbol id="hd-icon-streamline-cyber-credit-card-add" viewBox="0 0 24 24"><path fill="none" stroke="currentColor" stroke-linecap="round" stroke-linejoin="round" stroke-miterlimit="10" d="M13.5 17.5H.5v-15h20v9m-20-6h20m-20 3h20m-17 4h2m2 0h5m-8 2h-1m7 0h-4m17 6.25l-4 2.25l-4-2.25v-4.5l4-2.25l4 2.25zm-4-4.25v4m2-2h-4"/></symbol><symbol id="hd-icon-streamline-cyber-credit-card-edit" viewBox="0 0 24 24"><path fill="none" stroke="currentColor" stroke-linecap="round" stroke-linejoin="round" stroke-miterlimit="10" d="M12.5 17.5H.5v-15h20v8m-20-5h20m-20 3h20m-17 4h2m2 0h5m-8 2h-1m7 0h-4m7.611 5.268l7.268-7.268l2.121 2.122l-7.268 7.267l-2.732.611z"/></symbol><symbol id="hd-icon-streamline-cyber-credit-card-payment-machine" viewBox="0 0 24 24"><g fill="none" stroke="currentColor" stroke-linecap="round" stroke-linejoin="round" stroke-miterlimit="10"><path d="M15.5.5v11h8V.5z"/><path d="M17.5.5v11h2V.5zm4 9v-1m0-2v-2m-9 0h1v19H.5v-19h1"/><path d="M3.5 7.5v-7l2 1L7 .5l1.5 1l2-1v7m-5-4h3m-3 2h1m-6 2h13m-13 7l13-2.5m-10 4.5H4m2 0h.5m2 0H9m2 .5l.5-.5m-8 2H4m2 0h.5m2 0H9m2.5 0v2m-8 0H4m2 0h.5m2 0H9m10.5-6v5m-2-2l2 2l2-2"/></g></symbol><symbol id="hd-icon-streamline-cyber-credit-card-visa" viewBox="0 0 24 24"><g fill="none" stroke="currentColor" stroke-linecap="round" stroke-linejoin="round" stroke-miterlimit="10"><path d="M4.5 10.5h1L6 15l2-4.5m2.5 0L9 15m6-4.5h-1.5l-.516.504l-.484.496L14 14l-1 1h-1.5m4 0l2-4.5h1V15m-2.333-1.5H18.5"/><path d="M22.5 4.5H.5v16h22z"/></g></symbol><symbol id="hd-icon-streamline-cyber-croissant" viewBox="0 0 24 24"><g fill="none" stroke="currentColor" stroke-linecap="round" stroke-linejoin="round" stroke-miterlimit="10"><path d="M19 4.5L12 14L5 4.5l2-2h10zm0 0l4.5 5.5l-6 4l-4.309-1.616"/><path d="M23.5 10v6.5h-4l-2-2.5m6 2.5l-3 5l-1-5zM5 4.5L.5 10l6 4l4.309-1.616"/><path d="M.5 10v6.5h4l2-2.5m-6 2.5l3 5l1-5z"/></g></symbol><symbol id="hd-icon-streamline-cyber-crosshair-1" viewBox="0 0 24 24"><g fill="none" stroke="currentColor" stroke-linecap="round" stroke-linejoin="round" stroke-miterlimit="10"><path d="M11.5 23.5v-22m-11 11h22m-11-9L3.5 8v9l8 4.5l8-4.5V8z"/><path d="m6.5 9.65l5-2.65l5 2.65v5.7l-5 2.65l-5-2.65z"/></g></symbol><symbol id="hd-icon-streamline-cyber-crown-2" viewBox="0 0 24 24"><path fill="none" stroke="currentColor" stroke-linecap="round" stroke-linejoin="round" stroke-miterlimit="10" d="m11.5 11l3-3.5l4 6L17 15l-1.5-1.5l3.5-4l3.5 4.5l-4 5.5l1.5 4H3l1.5-4l-4-5.5L4 9.5l3.5 4L6 15l-1.5-1.5l4-6zm0 0V.5m-3 3h6m-10 16h14"/></symbol><symbol id="hd-icon-streamline-cyber-cursor-1" viewBox="0 0 24 24"><path fill="none" stroke="currentColor" stroke-linecap="round" stroke-linejoin="round" stroke-miterlimit="10" d="M20.5 21v-9.5L19 10.065l-1.5.957L15.5 9L14 10l-2-2l-1.5 1V1.457L8.5.5l-2 .957V11l-3 1.5V19l4.283 4.5h9.087zm-14-9.978V13.5"/></symbol><symbol id="hd-icon-streamline-cyber-cursor-arrow-1" viewBox="0 0 24 24"><path fill="none" stroke="currentColor" stroke-linecap="round" stroke-linejoin="round" stroke-miterlimit="10" d="m.5 1.5l3.745 17.787l4.681-4.681L20.628 23.5l1.872-1.873l-8.894-11.702l4.681-4.681z"/></symbol><symbol id="hd-icon-streamline-cyber-cursor-arrow-double" viewBox="0 0 24 24"><g fill="none" stroke="currentColor" stroke-linecap="round" stroke-linejoin="round" stroke-miterlimit="10"><path d="M7.308 14.478L3.715 22.5L.5 2.5l15.444 12.828zm.336-8.32L7.056 2.5L22.5 15.328l-4.414-.434"/><path d="M12.583 17.337L10.271 22.5l-.946-5.827"/></g></symbol><symbol id="hd-icon-streamline-cyber-cursor-arrow-target" viewBox="0 0 24 24"><g fill="none" stroke="currentColor" stroke-linecap="round" stroke-linejoin="round"><path stroke-miterlimit="10" d="m20.303 17.768l-3.535 3.535L15 16zm-1.767 1.768L22.5 23.5M6.5 9.75L9.5 8l3 1.75v3.5L9.5 15l-3-1.75z"/><path stroke-miterlimit="10" d="M15.5 13.5V8l-6-3.5l-6 3.5v7l6 3.5l3-1.75"/><path stroke-miterlimit="10" d="M18.5 14.5v-8l-9-5l-9 5v10l9 5l4-2.222"/><path d="m9.5 11l-.5.5l.5.5m0-1l.5.5l-.5.5"/></g></symbol><symbol id="hd-icon-streamline-cyber-cursor-choose" viewBox="0 0 24 24"><path fill="none" stroke="currentColor" stroke-linecap="round" stroke-linejoin="round" stroke-miterlimit="10" d="M9.5 18.5v-14l2-1l2 1V13l2.25-1L18 13l2.25-1l2.25 1v10.5H8L5.5 18L7 13.5h2.5M.5.5l6 6m0-6l-6 6M16 3l3 4L23.5.5"/></symbol><symbol id="hd-icon-streamline-cyber-cursor-move" viewBox="0 0 24 24"><path fill="none" stroke="currentColor" stroke-linecap="round" stroke-linejoin="round" stroke-miterlimit="10" d="m15 5l-3.5-3.5L8 5m7 15l-3.5 3.5L8 20m11-4l3.5-3.5L19 9M4 16L.5 12.5L4 9m18.5 3.5H.5m11 11v-22"/></symbol><symbol id="hd-icon-streamline-cyber-cursor-question-hexagon" viewBox="0 0 24 24"><g fill="none" stroke="currentColor" stroke-linecap="round" stroke-linejoin="round"><path stroke-miterlimit="10" d="M11.5 12.5v-1.755L14.5 9l3 1.745v2.5l-3 1.255v2M5 6l-.5 4.5l-4-9l9 4z"/><path stroke-miterlimit="10" d="m14.5 5.5l-8 4.5v9l8 4.5l8-4.5v-9z"/><path d="m14.5 18.5l-.5.5l.5.5m0-1l.5.5l-.5.5"/></g></symbol><symbol id="hd-icon-streamline-cyber-cursor-scroll-2" viewBox="0 0 24 24"><g fill="none" stroke="currentColor" stroke-linecap="round" stroke-linejoin="round" stroke-miterlimit="10"><path d="m22.5 12.5l-3.5-4h-3.5V5l-4-3.5l-4 3.5v3.5H4l-3.5 4l3.5 4h3.5V20l4 3.5l4-3.5v-3.5H19z"/><path d="M10 6.5L11.5 5L13 6.5m-3 12l1.5 1.5l1.5-1.5m4.5-7.5l1.5 1.5l-1.5 1.5m-12-3L4 12.5L5.5 14"/></g></symbol><symbol id="hd-icon-streamline-cyber-cursor-scroll-vertical-1" viewBox="0 0 24 24"><path fill="none" stroke="currentColor" stroke-linecap="round" stroke-linejoin="round" stroke-miterlimit="10" d="m11.5 10.5l-2 2l2 2l2-2zm-6 7l6 6l6-6m-12-10l6-6l6 6"/></symbol><symbol id="hd-icon-streamline-cyber-cursor-select-area" viewBox="0 0 24 24"><path fill="none" stroke="currentColor" stroke-linecap="round" stroke-linejoin="round" stroke-miterlimit="10" d="M2.5 1.5h-2v2m4-2h2m2 0h2m-10 4v2m0 2v2m14-6v2m0 2v1m-5 5h-1m-2 0h-2m-2 0h-2v-2m12-12h2v2m1 20L11 12l11.5 4.5l-5 2z"/></symbol><symbol id="hd-icon-streamline-cyber-database" viewBox="0 0 24 24"><g fill="none" stroke="currentColor" stroke-linecap="round" stroke-linejoin="round" stroke-miterlimit="10"><path d="M20.5 21.5v-18l-4.5 2H7l-4.5-2v18"/><path d="m20.5 9.5l-4.5 2H7l-4.5-2m18 6l-4.5 2H7l-4.5-2m18 6l-4.5 2H7l-4.5-2m0-18l4.5-2h9l4.5 2"/></g></symbol><symbol id="hd-icon-streamline-cyber-database-data-transfer-computer-imac-2" viewBox="0 0 24 24"><g fill="none" stroke="currentColor" stroke-linecap="round" stroke-linejoin="round" stroke-miterlimit="10"><path d="M15.5 9V3L13 4.5h-3L7.5 3v6"/><path d="M15.5 6L13 7.5h-3L7.5 6m8 3L13 10.5h-3L7.5 9m0-6L10 1.5h3L15.5 3m-13 9.5v-4h3m15 4v-4h-3m-7 6H.5v7h10zm-10 5h10m-5 2v2m-2 0h4m15-9h-10v7h10zm-10 5h10m-5 2v2m-2 0h4"/></g></symbol><symbol id="hd-icon-streamline-cyber-database-network-1" viewBox="0 0 24 24"><g fill="none" stroke="currentColor" stroke-linecap="round" stroke-linejoin="round" stroke-miterlimit="10"><path d="M19.5 15.5v-12l-4 2h-8l-4-2v12"/><path d="m19.5 7.5l-4 2h-8l-4-2m16 4l-4 2h-8l-4-2m16 4l-4 2h-8l-4-2m0-12l4-2h8l4 2m-10 20h1m-7 0h1m5 0h1m-7 0h1m2 0h1m4-3v1m0-4v1m-10 5h-1m15 0h1m-1 0h1m2 0h1m2 0h1m-9 0h-1"/></g></symbol><symbol id="hd-icon-streamline-cyber-database-share-2" viewBox="0 0 24 24"><g fill="none" stroke="currentColor" stroke-linecap="round" stroke-linejoin="round" stroke-miterlimit="10"><path d="M3.5 22.5H9l8-2l1.5-2h-10v-4h-1l-2.5 4H4m-.5-1h-3v6h3zm19-5v-9l-3.5 2h-5l-3.5-2v9"/><path d="m22.5 6.5l-3.5 2h-5l-3.5-2m12 3l-3.5 2h-5l-3.5-2m12 3l-3.5 2h-5l-3.5-2m0-9l3.5-2h5l3.5 2"/></g></symbol><symbol id="hd-icon-streamline-cyber-day-cloud-1" viewBox="0 0 24 24"><g fill="none" stroke="currentColor" stroke-linejoin="round" stroke-miterlimit="10"><path d="M13 18.5h-2l-1.5-3H7l-1.5 2H3L.5 21L3 23.5h9.5L14 21z"/><path stroke-linecap="round" d="M8.5 18.5H11m-10.5-6h4m14 0h4m-11-11v4M3 4l2.829 2.828M20 4l-2.828 2.828M20 21l-2.828-2.828M7.5 13.5v-3.25l4-2.25l4 2.25v4.5l-3.132 1.762"/></g></symbol><symbol id="hd-icon-streamline-cyber-day-snow" viewBox="0 0 24 24"><g fill="none" stroke="currentColor" stroke-linejoin="round"><path stroke-linecap="round" stroke-miterlimit="10" d="M5.5 1.5v-1m-5 6h1m0 4l.818-.818M9.5 2.5l-.818.818M1.5 2.5l.818.818m1.694 4.323L3.5 7.345v-2.19L5.5 4l2 1.155V6.5"/><path stroke-miterlimit="10" d="M21 10.5h-2.5l-2.5-5h-4l-2.5 3H6L2.5 13L6 16.5h14l2.5-2.5z"/><path stroke-linecap="round" stroke-miterlimit="10" d="M15.5 10.5h3"/><path stroke-linecap="round" d="m7.003 18.491l.505.505l-.505.504m0-1.009l-.505.505l.505.504m5.003-1.009l.505.505l-.505.504m0-1.009l-.505.505l.505.504m5.004-1.009l.504.505l-.505.504m.001-1.009l-.506.505l.505.504m-12.005 2l.505.505l-.505.505m0-1.01l-.505.505l.505.505m5.003-1.01l.505.505l-.505.505m0-1.01l-.505.505l.505.505m5.003-1.01l.505.505l-.505.505m0-1.01l-.505.505l.505.505"/></g></symbol><symbol id="hd-icon-streamline-cyber-day-storm-1" viewBox="0 0 24 24"><g fill="none" stroke="currentColor" stroke-linejoin="round" stroke-miterlimit="10"><path d="M16 16.5h-2.5v-5l-4.5 6h2.5v5z"/><path stroke-linecap="round" d="M5.5 1.5v-1m-5 6h1m0 4l.818-.818M9.5 2.5l-.818.818M1.5 2.5l.818.818m1.694 4.323L3.5 7.345v-2.19L5.5 4l2 1.155V6.5m11 10H20l2.5-2.5l-1.5-3.5h-2.5l-2.5-5h-4l-2.5 3H6L2.5 13L6 16.5h1m8.5-6h3"/></g></symbol><symbol id="hd-icon-streamline-cyber-delete-circle-1" viewBox="0 0 24 24"><path fill="none" stroke="currentColor" stroke-linecap="round" stroke-linejoin="round" stroke-miterlimit="10" d="m21.5 18l-10 5.5l-10-5.5V7l10-5.5l10 5.5zM19.494 5.897L3.506 19.104m0-13.207l15.987 13.206"/></symbol><symbol id="hd-icon-streamline-cyber-delivery-package-2" viewBox="0 0 24 24"><g fill="none" stroke="currentColor" stroke-linecap="round" stroke-linejoin="round" stroke-miterlimit="10"><path d="M7.5 7.5v10l8 3.5l8-3.5v-10"/><path d="m7.5 7.5l8 3.5l8-3.5"/><path d="m11.5 5.75l8 3.531V12.5"/><path d="m7.5 7.5l8-3.5l8 3.5m-22 6.152l.047.022L5.5 15.5m-3.294-5.022L5.5 12M2.865 7.283L5.5 8.5m10 2.5v10"/></g></symbol><symbol id="hd-icon-streamline-cyber-delivery-package-open" viewBox="0 0 24 24"><g fill="none" stroke="currentColor" stroke-linecap="round" stroke-linejoin="round" stroke-miterlimit="10"><path d="M20.5 13.25v6.25l-9 4l-9-4v-6.111m9-.389v10.5m9-14.5l-9 4l-9-4m18 0l-9-4l-9 4"/><path d="m2.5 9l-2-3.5l9-4l2 3.5m9 4l2-3.5l-8.5-4L11.5 5m0 8l-2 3.5l-9-4l2-3.5m9 4l2.5 3.5l9-4.5l-2.5-3"/></g></symbol><symbol id="hd-icon-streamline-cyber-delivery-truck-5" viewBox="0 0 24 24"><g fill="none" stroke="currentColor" stroke-linejoin="round" stroke-miterlimit="10"><path stroke-linecap="round" d="M12.5 7.5v8m-3-8v8m-3-8v8m-3-8v8"/><path d="M4.5 21L6 22l1.5-1v-1.5l-1.5-1l-1.5 1zm13 0l1.5 1l1.5-1v-1.5l-1.5-1l-1.5 1z"/><path stroke-linecap="round" d="M.5 17.5h15v-12H.5zm23 0v-2L21 9l-5.5-1m7 11.5h1v-2h-8m-6 2h6"/><path stroke-linecap="round" d="M21.577 10.5H17.5v3l5.624 1.023M.5 17.5v2h2"/></g></symbol><symbol id="hd-icon-streamline-cyber-design-mug" viewBox="0 0 24 24"><g fill="none" stroke="currentColor" stroke-linecap="round" stroke-linejoin="round" stroke-miterlimit="10"><path d="M17 11.5H3l2 12h10z"/><path d="M16.667 13.5H19l2 3.5l-2 3.5h-3.5m-10-9L2 8L.5 4l4 1.5l6 6M3 9l2.5-2.5m17-2.5L20 1.5h-3.5l-2 2V6l2 1.5h2L20 4z"/><path d="m14.5 11.5l2-4l-2-1.5l-4 5.5"/><path d="M12.5 8.75V1.5h-5v7m5-5h-2m2 2h-2"/></g></symbol><symbol id="hd-icon-streamline-cyber-dna-strand" viewBox="0 0 24 24"><path fill="none" stroke="currentColor" stroke-linecap="round" stroke-linejoin="round" stroke-miterlimit="10" d="M8.5 23.5L11 21l.5-16.5l4-4m-2 12h6l4-4m-23 7l3-3h5m.75 10.25l-8-8M11 21l-8-8m8.103 4.603L8.5 15m12.75-4.25l-8-8m6.25 9.75l-8-8M23 9l-8-8"/></symbol><symbol id="hd-icon-streamline-cyber-doctor" viewBox="0 0 24 24"><g fill="none" stroke="currentColor" stroke-linecap="round" stroke-linejoin="round" stroke-miterlimit="10"><path d="M3.5 11.5h-2v4l2 1m16-5h2v4l-2 1m-11-4v1m6-1v1m-11-6h5m6 0h5M3.5 17l8-2l8 2"/><path d="m19.5 20l-8 3.5l-8-3.5V4l8-3.5l8 3.5z"/><path d="m14.5 9.5l-3 1.5l-3-1.5v-4l3-1.5l3 1.5z"/><path d="M11.5 6L10 7.5L11.5 9l1.499-1.5z"/></g></symbol><symbol id="hd-icon-streamline-cyber-document-bookmark-2" viewBox="0 0 24 24"><g fill="none" stroke="currentColor" stroke-linecap="round" stroke-linejoin="round" stroke-miterlimit="10"><path d="M5.5 1.5h-3v20h16v-20h-8"/><path d="M4.5 21.5v2h16v-20h-2M5.5 9L8 6.5L10.5 9V.5h-5z"/></g></symbol><symbol id="hd-icon-streamline-cyber-dog-1" viewBox="0 0 24 24"><g fill="none" stroke="currentColor" stroke-linecap="round" stroke-linejoin="round" stroke-miterlimit="10"><path d="M18.5 6.5V14L16 20l-2 1l-2.5-1L9 21l-2-1l-2.5-6V6.5"/><path d="M18.5 11.5L21 14l1.5-7.5l-2-5l-2 1.5L12 .5L5.5 3L3 1.5l-2.5 5L2 14l2.5-2.5m7 8.5v-2.5m-3-9v1m6-1v1m-5 8h4m.059 3.323l-.56 1.677l-1.5 1l-1.5-1l-.558-1.677"/></g></symbol><symbol id="hd-icon-streamline-cyber-door-exit" viewBox="0 0 24 24"><g fill="none" stroke="currentColor" stroke-linecap="round" stroke-linejoin="round" stroke-miterlimit="10"><path d="M13.5 12.5h10m-4-4l4 4l-4 4M7 11l-1.5 1.5L7 14l1.499-1.5zm9.5 4.5v6h-6m0-18h6v6"/><path d="m10.5 23.5l-10-2v-18l10-2z"/></g></symbol><symbol id="hd-icon-streamline-cyber-download-2" viewBox="0 0 24 24"><g fill="none" stroke="currentColor" stroke-linecap="round" stroke-linejoin="round" stroke-miterlimit="10"><path d="m13.5 1.5l1.594 11H18.5l-7 8l-7-8h3.406L9.5 1.5z"/><path d="M22.5 18.5v5H.5v-5"/></g></symbol><symbol id="hd-icon-streamline-cyber-drawer-4" viewBox="0 0 24 24"><path fill="none" stroke="currentColor" stroke-linecap="round" stroke-linejoin="round" stroke-miterlimit="10" d="M23.5 15.5H17l-2 3H9l-2-3H.5v8h23zm0-8H17l-2 3H9l-2-3H.5v8h23zm0 0H.5l5-6h13z"/></symbol><symbol id="hd-icon-streamline-cyber-dress" viewBox="0 0 24 24"><g fill="none" stroke="currentColor" stroke-linecap="round" stroke-linejoin="round" stroke-miterlimit="10"><path d="m11.5 5.5l-3-2l-3 2l2.5 6l-6.5 10l4 2h12l4-2l-6.5-10l2.5-6l-3-2zm3-2v-3m-6 3v-3"/><path d="m15 11.5l-3.5.5l-3.5-.5"/></g></symbol><symbol id="hd-icon-streamline-cyber-drum-2" viewBox="0 0 24 24"><g fill="none" stroke="currentColor" stroke-linecap="round" stroke-linejoin="round" stroke-miterlimit="10"><path d="M20.5 10.5h-18v11h18zm2 11H.5v2h22zm0-13H.5v2h22z"/><path d="m2.5 10.5l3 11l3-11m0 0l3 11l3-11m0 0l3 11l3-11M.5.5l6 2.5m16-2.5l-6 2.5m-6 1.75L8.5 6l-2-1.25v-2l2-1.25l2 1.25zm6 0L14.5 6l-2-1.25v-2l2-1.25l2 1.25z"/></g></symbol><symbol id="hd-icon-streamline-cyber-eiffel-tower" viewBox="0 0 24 24"><path fill="none" stroke="currentColor" stroke-linecap="round" stroke-linejoin="round" stroke-miterlimit="10" d="m3.5 23.5l4-6l2-5l1.412-8m8.588 19l-4-6l-2-5l-1.402-7.944M10 2.5h3l-.5 2h-2zm1.5 0v-2m-4 12h8m-10 5h12M7 23.5l1-2l3.5-1.5m4.5 3.5l-1-2l-3.5-1.5m-1-4.5l1-1l1 1"/></symbol><symbol id="hd-icon-streamline-cyber-elephant" viewBox="0 0 24 24"><g fill="none" stroke="currentColor" stroke-linecap="round" stroke-linejoin="round" stroke-miterlimit="10"><path d="M8.5 9.5L12 13l5-6l-3-5l-8.5 2l-2 5l-.5 2.5m5 1l-4.5 1l-3-1m3 3l1.5 7h1.5l.5-8"/><path d="M15.362 8.965L19.5 10l4 4l-2.5 9.5l-2-4.5l-5.5-.5l-3 5l-1.5-8m-2.5-8v1"/></g></symbol><symbol id="hd-icon-streamline-cyber-email-2" viewBox="0 0 24 24"><g fill="none" stroke="currentColor" stroke-linecap="round" stroke-linejoin="round" stroke-miterlimit="10"><path d="m22.5 4.5l-11 11.25L.5 4.5m0 16L8.605 13m5.79 0l8.105 7.5"/><path d="M22.5 4.5H.5v16h22z"/></g></symbol><symbol id="hd-icon-streamline-cyber-email-laptop" viewBox="0 0 24 24"><g fill="none" stroke="currentColor" stroke-linecap="round" stroke-linejoin="round" stroke-miterlimit="10"><path d="M19.5 2.5h-16v13h16zm0 13l3 5H.5l3-5m-3 5l1.5 2h19l1.5-2"/><path d="m8.5 20.5l1-2h4l1 2m2-15h-10v7h10zm-10 7l3.676-3.692M16.5 12.5l-3.676-3.692"/><path d="m6.5 5.5l5 4.5l5-4.5"/></g></symbol><symbol id="hd-icon-streamline-cyber-eye-dropper-3" viewBox="0 0 24 24"><path fill="none" stroke="currentColor" stroke-linecap="round" stroke-linejoin="round" stroke-miterlimit="10" d="M12.5 1.5L8.5 4v14.5l3 2.5v2.5h2V21l3-2.5V4zm-6 6h12m-2 3h-2m2 3h-2m2 3h-2"/></symbol><symbol id="hd-icon-streamline-cyber-facebook-like" viewBox="0 0 24 24"><path fill="none" stroke="currentColor" stroke-linecap="round" stroke-linejoin="round" stroke-miterlimit="10" d="M5.5 12h1L12 1.5h1.5l1.5 2l-1 4h6.5l2 2l-2 2l1.5 2.25l-2 1.75l1.5 2l-2 1.5l1.5 2l-2 1.5h-8.5l-3-1h-2m0-11h-5v13h5zm-3 11v-1"/></symbol><symbol id="hd-icon-streamline-cyber-factory" viewBox="0 0 24 24"><g fill="none" stroke="currentColor" stroke-linecap="round" stroke-linejoin="round" stroke-miterlimit="10"><path d="M11.5 18.5h12m-12 2h12m-23 3v-12h6v3l5-3.18v3.411l6.018-3.387v3.41L23.5 11.32V23.5z"/><path d="M6 11.5L5 .5H2l-1 11m.727-8h3.546m-3.727 2h3.909"/></g></symbol><symbol id="hd-icon-streamline-cyber-female" viewBox="0 0 24 24"><g fill="none" stroke="currentColor" stroke-linecap="round" stroke-linejoin="round" stroke-miterlimit="10"><path d="m14.5 5.5l-3 1.5l-3-1.5V2l3-1.5l3 1.5z"/><path d="m8.5 4l3-1.5l3 1.5m-6 1.5L7 6.5m7.5-1l1.5 1m.5 17h-10l2-7h6zm-2-10l3.5 3l-2-7L11.5 8L7 9.5l-2 7l3.5-3m0 3v-4m6 4v-4"/></g></symbol><symbol id="hd-icon-streamline-cyber-ferris-wheel-1" viewBox="0 0 24 24"><path fill="none" stroke="currentColor" stroke-linecap="round" stroke-linejoin="round" stroke-miterlimit="10" d="M11.5 10L10 11.5l1.5 1.5l1.499-1.5zm0 9.5V13m0-3V3.5m7.5 8h-6m-3 0H4m13.5 5l-5.196-4.304m-1.512-1.488L6.194 6.11m10.639.057L12.25 10.75m-1.544 1.456L5.73 16.5m1.847 2.923L3.5 23.5m11.923-4.077L19.5 23.5m-19 0h22M10.07 2.64L5.728 4.5m11.544 0L12.93 2.64m7.213 7.86l-1.429-4m0 10l1.43-4m-7.036 7.785l4.164-1.785m-11.544 0l4.164 1.785M2.857 12.5l1.429 4m0-10l-1.43 4m.644 2h-2l-1-2h4zm16 0h2l1-2h-4zm-9-9h2l1-2h-4zm0 18h2l1-2h-4zM4 6.5h2l1-2H3zm0 12h2l1-2H3zm15 0h-2l-1-2h4zm-2-12h2l1-2h-4z"/></symbol><symbol id="hd-icon-streamline-cyber-filter-1" viewBox="0 0 24 24"><g fill="none" stroke="currentColor" stroke-linecap="round" stroke-linejoin="round" stroke-miterlimit="10"><path d="M6 6.5L.5 4L6 1.5h10L21.5 4L16 6.5z"/><path d="M.5 4v3l9 9.5V22l3 1.5v-7l9-9.5V4"/><path d="M14.56 14.326L18.5 15.5l4-4.5l-2.175-2.759"/></g></symbol><symbol id="hd-icon-streamline-cyber-filter-10" viewBox="0 0 24 24"><g fill="none" stroke="currentColor" stroke-linecap="round" stroke-linejoin="round" stroke-miterlimit="10"><path d="M3.5 5.5h-3v18h18v-3"/><path d="M22.5 1.5h-19v19h19z"/><path d="m13.5 7.5l2.5-2l2.5 2v6.001L16 15.5l-2.5-1.999zm-6 8h4m-2 0v-10L6.5 8"/></g></symbol></svg>