<svg xmlns="http://www.w3.org/2000/svg" xmlns:xlink="http://www.w3.org/1999/xlink"><symbol id="hd-icon-fa7-regular-life-ring" viewBox="0 0 640 640"><path fill="currentColor" d="M449.1 483.1C413.7 511.2 368.8 528 320 528s-93.7-16.8-129.1-44.9l80.4-80.4c14.3 8.4 31 13.3 48.8 13.3s34.5-4.8 48.8-13.3l80.4 80.4zm68.1.2C553.9 438.9 576 382.1 576 320s-22.1-118.9-58.8-163.3L529 145c9.4-9.4 9.4-24.6 0-33.9s-24.6-9.4-33.9 0l-11.8 11.7C438.9 86.1 382.1 64 320 64s-118.9 22.1-163.3 58.8L145 111c-9.4-9.4-24.6-9.4-33.9 0s-9.4 24.6-.1 34l11.8 11.7C86.1 201.1 64 257.9 64 320s22.1 118.9 58.8 163.3L111 495c-9.4 9.4-9.4 24.6 0 33.9s24.6 9.4 33.9 0l11.8-11.8C201.1 553.9 257.9 576 320 576s118.9-22.1 163.3-58.8L495 529c9.4 9.4 24.6 9.4 33.9 0s9.4-24.6 0-33.9l-11.8-11.8zm-34.1-34.1l-80.4-80.4c8.4-14.3 13.3-31 13.3-48.8s-4.8-34.5-13.3-48.8l80.4-80.4C511.2 226.3 528 271.2 528 320s-16.8 93.7-44.9 129.1zm-34-292.3l-80.4 80.4c-14.3-8.4-31-13.3-48.8-13.3s-34.5 4.8-48.8 13.3l-80.2-80.4C226.3 128.8 271.2 112 320 112s93.7 16.8 129.1 44.9M237.3 368.8l-80.4 80.3C128.8 413.7 112 368.8 112 320s16.8-93.7 44.9-129.1l80.4 80.4c-8.4 14.3-13.3 31-13.3 48.8s4.8 34.5 13.3 48.8zM272 320c0-26.5 21.5-48 48-48s48 21.5 48 48s-21.5 48-48 48s-48-21.5-48-48"/></symbol><symbol id="hd-icon-fa7-regular-lightbulb" viewBox="0 0 640 640"><path fill="currentColor" d="M424.5 355.1C449 329.2 464 294.4 464 256c0-79.5-64.5-144-144-144s-144 64.5-144 144c0 38.4 15 73.2 39.5 99.1c21.3 22.4 44.9 54 53.3 92.9h102.4c8.4-39 32-70.5 53.3-92.9m34.8 33C435.7 413 416 443.4 416 477.7V496c0 44.2-35.8 80-80 80h-32c-44.2 0-80-35.8-80-80v-18.3c0-34.3-19.7-64.7-43.3-89.6C148 353.7 128 307.2 128 256c0-106 86-192 192-192s192 86 192 192c0 51.2-20 97.7-52.7 132.1M272 248c0 13.3-10.7 24-24 24s-24-10.7-24-24c0-48.6 39.4-88 88-88c13.3 0 24 10.7 24 24s-10.7 24-24 24c-22.1 0-40 17.9-40 40"/></symbol><symbol id="hd-icon-fa7-regular-list-alt" viewBox="0 0 640 640"><path fill="currentColor" d="M128 176c-8.8 0-16 7.2-16 16v256c0 8.8 7.2 16 16 16h384c8.8 0 16-7.2 16-16V192c0-8.8-7.2-16-16-16zm-64 16c0-35.3 28.7-64 64-64h384c35.3 0 64 28.7 64 64v256c0 35.3-28.7 64-64 64H128c-35.3 0-64-28.7-64-64zm160 192c0 17.7-14.3 32-32 32s-32-14.3-32-32s14.3-32 32-32s32 14.3 32 32m-32-96c-17.7 0-32-14.3-32-32s14.3-32 32-32s32 14.3 32 32s-14.3 32-32 32m104-56h160c13.3 0 24 10.7 24 24s-10.7 24-24 24H296c-13.3 0-24-10.7-24-24s10.7-24 24-24m0 128h160c13.3 0 24 10.7 24 24s-10.7 24-24 24H296c-13.3 0-24-10.7-24-24s10.7-24 24-24"/></symbol><symbol id="hd-icon-fa7-regular-map" viewBox="0 0 640 640"><path fill="currentColor" d="M576 112c0-8.3-4.3-16-11.3-20.4s-15.9-4.8-23.3-1.1l-124.9 61.6L244 93.4c-13.7-4.7-28.7-3.8-41.9 2.3L77.8 154.3C69.4 158.2 64 166.7 64 176v352c0 8.2 4.2 15.9 11.1 20.3s15.6 4.9 23.1 1.4l127.3-59.9l170.7 56.9c13.7 4.6 28.5 3.7 41.6-2.5l124.4-58.5c8.4-4 13.8-12.4 13.8-21.7zm-368 34.1v299l-96 45.2v-299zm48 303.3V148.3l128 43.5v300.3zM432 198l96-47.4v298.2L432 494z"/></symbol><symbol id="hd-icon-fa7-regular-meh" viewBox="0 0 640 640"><path fill="currentColor" d="M528 320c0 114.9-93.1 208-208 208s-208-93.1-208-208s93.1-208 208-208s208 93.1 208 208M320 64C178.6 64 64 178.6 64 320s114.6 256 256 256s256-114.6 256-256S461.4 64 320 64m-80 240c17.7 0 32-14.3 32-32s-14.3-32-32-32s-32 14.3-32 32s14.3 32 32 32m192-32c0-17.7-14.3-32-32-32s-32 14.3-32 32s14.3 32 32 32s32-14.3 32-32M248 384c-13.3 0-24 10.7-24 24s10.7 24 24 24h144c13.3 0 24-10.7 24-24s-10.7-24-24-24z"/></symbol><symbol id="hd-icon-fa7-regular-meh-blank" viewBox="0 0 640 640"><path fill="currentColor" d="M320 112c-114.9 0-208 93.1-208 208s93.1 208 208 208s208-93.1 208-208s-93.1-208-208-208m256 208c0 141.4-114.6 256-256 256S64 461.4 64 320S178.6 64 320 64s256 114.6 256 256m-368-48c0-17.7 14.3-32 32-32s32 14.3 32 32s-14.3 32-32 32s-32-14.3-32-32m192-32c17.7 0 32 14.3 32 32s-14.3 32-32 32s-32-14.3-32-32s14.3-32 32-32"/></symbol><symbol id="hd-icon-fa7-regular-meh-rolling-eyes" viewBox="0 0 640 640"><path fill="currentColor" d="M320 112c114.9 0 208 93.1 208 208s-93.1 208-208 208s-208-93.1-208-208s93.1-208 208-208m0 464c141.4 0 256-114.6 256-256S461.4 64 320 64S64 178.6 64 320s114.6 256 256 256m-80-136c0 13.3 10.7 24 24 24h112c13.3 0 24-10.7 24-24s-10.7-24-24-24H264c-13.3 0-24 10.7-24 24m-16-112c-22.1 0-40-17.9-40-40c0-9.5 3.3-18.1 8.8-25c3.2 14.3 16 25 31.2 25s28-10.7 31.2-25c5.5 6.8 8.8 15.5 8.8 25c0 22.1-17.9 40-40 40m0 40c44.2 0 80-35.8 80-80s-35.8-80-80-80s-80 35.8-80 80s35.8 80 80 80m192-40c-22.1 0-40-17.9-40-40c0-9.5 3.3-18.1 8.8-25c3.2 14.3 16 25 31.2 25s28-10.7 31.2-25c5.5 6.8 8.8 15.5 8.8 25c0 22.1-17.9 40-40 40m0 40c44.2 0 80-35.8 80-80s-35.8-80-80-80s-80 35.8-80 80s35.8 80 80 80"/></symbol><symbol id="hd-icon-fa7-regular-message" viewBox="0 0 640 640"><path fill="currentColor" d="m267.7 576.9l-37.8 26.7c-7.3 5.2-16.9 5.8-24.9 1.7S192 593 192 584v-72h-32c-53 0-96-43-96-96V192c0-53 43-96 96-96h320c53 0 96 43 96 96v224c0 53-43 96-96 96H359.6zM332 472.8c8.1-5.7 17.8-8.8 27.7-8.8H480c26.5 0 48-21.5 48-48V192c0-26.5-21.5-48-48-48H160c-26.5 0-48 21.5-48 48v224c0 26.5 21.5 48 48 48h56c10.4 0 19.3 6.6 22.6 15.9c.9 2.5 1.4 5.2 1.4 8.1v49.7c32.7-23.1 63.3-44.7 91.9-64.9z"/></symbol><symbol id="hd-icon-fa7-regular-minus-square" viewBox="0 0 640 640"><path fill="currentColor" d="M160 144c-8.8 0-16 7.2-16 16v320c0 8.8 7.2 16 16 16h320c8.8 0 16-7.2 16-16V160c0-8.8-7.2-16-16-16zm-64 16c0-35.3 28.7-64 64-64h320c35.3 0 64 28.7 64 64v320c0 35.3-28.7 64-64 64H160c-35.3 0-64-28.7-64-64zm136 136h176c13.3 0 24 10.7 24 24s-10.7 24-24 24H232c-13.3 0-24-10.7-24-24s10.7-24 24-24"/></symbol><symbol id="hd-icon-fa7-regular-money-bill-1" viewBox="0 0 640 640"><path fill="currentColor" d="M176 176c0 35.3-28.7 64-64 64v160c35.3 0 64 28.7 64 64h288c0-35.3 28.7-64 64-64V240c-35.3 0-64-28.7-64-64zM64 192c0-35.3 28.7-64 64-64h384c35.3 0 64 28.7 64 64v256c0 35.3-28.7 64-64 64H128c-35.3 0-64-28.7-64-64zm256 16c61.9 0 112 50.1 112 112s-50.1 112-112 112s-112-50.1-112-112s50.1-112 112-112m-16 44c-11 0-20 9-20 20c0 9.7 6.9 17.7 16 19.6V340h-4c-11 0-20 9-20 20s9 20 20 20h48c11 0 20-9 20-20s-9-20-20-20h-4v-68c0-11-9-20-20-20z"/></symbol><symbol id="hd-icon-fa7-regular-money-bill-alt" viewBox="0 0 640 640"><path fill="currentColor" d="M176 176c0 35.3-28.7 64-64 64v160c35.3 0 64 28.7 64 64h288c0-35.3 28.7-64 64-64V240c-35.3 0-64-28.7-64-64zM64 192c0-35.3 28.7-64 64-64h384c35.3 0 64 28.7 64 64v256c0 35.3-28.7 64-64 64H128c-35.3 0-64-28.7-64-64zm256 16c61.9 0 112 50.1 112 112s-50.1 112-112 112s-112-50.1-112-112s50.1-112 112-112m-16 44c-11 0-20 9-20 20c0 9.7 6.9 17.7 16 19.6V340h-4c-11 0-20 9-20 20s9 20 20 20h48c11 0 20-9 20-20s-9-20-20-20h-4v-68c0-11-9-20-20-20z"/></symbol><symbol id="hd-icon-fa7-regular-moon" viewBox="0 0 640 640"><path fill="currentColor" d="M303.3 112.7C196.2 121.2 112 210.8 112 320c0 114.9 93.1 208 208 208c33.3 0 64.7-7.8 92.6-21.7C309.2 482.9 232 390.5 232 280c0-65.8 27.4-125.1 71.3-167.3M64 320C64 178.6 178.6 64 320 64c19.4 0 38.4 2.2 56.7 6.3c9.9 2.2 17.3 10.5 18.5 20.5s-4 19.8-13.1 24.4C321.5 145.4 280 207.9 280 280c0 101.6 82.4 184 184 184c5 0 9.9-.2 14.8-.6c10.1-.8 19.6 4.8 23.8 14.1s2 20.1-5.3 27.1C451.3 548.8 388.8 576 320 576C178.6 576 64 461.4 64 320"/></symbol><symbol id="hd-icon-fa7-regular-newspaper" viewBox="0 0 640 640"><path fill="currentColor" d="M232 144c-13.3 0-24 10.7-24 24v304c0 8.4-1.4 16.5-4.1 24H504c13.3 0 24-10.7 24-24V168c0-13.3-10.7-24-24-24zm-96 400c-39.8 0-72-32.2-72-72V176c0-13.3 10.7-24 24-24s24 10.7 24 24v296c0 13.3 10.7 24 24 24s24-10.7 24-24V168c0-39.8 32.2-72 72-72h272c39.8 0 72 32.2 72 72v304c0 39.8-32.2 72-72 72zm120-328c0-13.3 10.7-24 24-24h48c13.3 0 24 10.7 24 24v48c0 13.3-10.7 24-24 24h-48c-13.3 0-24-10.7-24-24zm152 24h48c13.3 0 24 10.7 24 24s-10.7 24-24 24h-48c-13.3 0-24-10.7-24-24s10.7-24 24-24m-128 80h176c13.3 0 24 10.7 24 24s-10.7 24-24 24H280c-13.3 0-24-10.7-24-24s10.7-24 24-24m0 80h176c13.3 0 24 10.7 24 24s-10.7 24-24 24H280c-13.3 0-24-10.7-24-24s10.7-24 24-24"/></symbol><symbol id="hd-icon-fa7-regular-note-sticky" viewBox="0 0 640 640"><path fill="currentColor" d="M336 496H160c-8.8 0-16-7.2-16-16V160c0-8.8 7.2-16 16-16h320c8.8 0 16 7.2 16 16v176h-88c-39.8 0-72 32.2-72 72zm140.1-112L384 476.1V408c0-13.3 10.7-24 24-24zM96 480c0 35.3 28.7 64 64 64h197.5c17 0 33.3-6.7 45.3-18.7l122.5-122.6c12-12 18.7-28.3 18.7-45.3V160c0-35.3-28.7-64-64-64H160c-35.3 0-64 28.7-64 64z"/></symbol><symbol id="hd-icon-fa7-regular-object-group" viewBox="0 0 640 640"><path fill="currentColor" d="M72 128c0-13.3 10.7-24 24-24s24 10.7 24 24s-10.7 24-24 24s-24-10.7-24-24m48 59.3c16-6.5 28.9-19.3 35.3-35.3h329.3c6.5 16 19.3 28.9 35.3 35.3v265.3c-16 6.5-28.9 19.3-35.3 35.3H155.3c-6.5-16-19.3-28.9-35.3-35.3zM544 64c-26.9 0-49.9 16.5-59.3 40H155.3c-9.4-23.5-32.4-40-59.3-40c-35.3 0-64 28.7-64 64c0 26.9 16.5 49.9 40 59.3v265.3c-23.5 9.5-40 32.5-40 59.3c0 35.3 28.7 64 64 64c26.9 0 49.9-16.5 59.3-40h329.3c9.5 23.5 32.5 40 59.3 40c35.3 0 64-28.7 64-64c0-26.9-16.5-49.9-40-59.3V187.3c23.5-9.5 40-32.5 40-59.3c0-35.3-28.7-64-64-64zm-24 64c0-13.3 10.7-24 24-24s24 10.7 24 24s-10.7 24-24 24s-24-10.7-24-24M96 488c13.3 0 24 10.7 24 24s-10.7 24-24 24s-24-10.7-24-24s10.7-24 24-24m424 24c0-13.3 10.7-24 24-24s24 10.7 24 24s-10.7 24-24 24s-24-10.7-24-24M224 240h88v56h-88zm-8-40c-17.7 0-32 14.3-32 32v72c0 17.7 14.3 32 32 32h104c17.7 0 32-14.3 32-32v-72c0-17.7-14.3-32-32-32zm72 184v24c0 17.7 14.3 32 32 32h104c17.7 0 32-14.3 32-32v-72c0-17.7-14.3-32-32-32h-24c0 14.6-3.9 28.2-10.7 40H416v56h-88v-16.4c-2.6.3-5.3.4-8 .4z"/></symbol><symbol id="hd-icon-fa7-regular-object-ungroup" viewBox="0 0 640 640"><path fill="currentColor" d="M48.2 130.8c-.1-.8-.2-1.7-.2-2.5v-.2c0-8.8 7.2-16 16-16c.9 0 1.9.1 2.8.2c7.5 1.3 13.2 7.9 13.2 15.8c0 8.8-7.2 16-16 16c-7.9 0-14.5-5.7-15.8-13.2zM0 128c0 26.9 16.5 49.9 40 59.3v105.3c-23.5 9.5-40 32.5-40 59.3c0 35.3 28.7 64 64 64c26.9 0 49.9-16.5 59.3-40h201.3c9.5 23.5 32.5 40 59.3 40c35.3 0 64-28.7 64-64c0-26.9-16.5-49.9-40-59.3V187.3c23.5-9.5 40-32.5 40-59.3c0-35.3-28.7-64-64-64c-26.9 0-49.9 16.5-59.3 40H123.3C113.9 80.5 90.9 64 64 64C28.7 64 0 92.7 0 128m368 0c0-8.8 7.2-16 16-16s16 7.2 16 16s-7.2 16-16 16s-16-7.2-16-16m-43.3 24c6.5 16 19.3 28.9 35.3 35.3v105.3c-16 6.5-28.9 19.3-35.3 35.3H123.4c-6.5-16-19.3-28.9-35.3-35.3V187.3c16-6.5 28.9-19.3 35.3-35.3zM384 336c8.8 0 16 7.2 16 16s-7.2 16-16 16s-16-7.2-16-16s7.2-16 16-16M80 352c0 7.9-5.7 14.5-13.2 15.8c-.8.1-1.7.2-2.5.2h-.2c-8.8 0-16-7.2-16-16c0-.9.1-1.9.2-2.8c1.3-7.5 7.9-13.2 15.8-13.2c8.8 0 16 7.2 16 16zm436.7-40c6.5 16 19.3 28.9 35.3 35.3v105.3c-16 6.5-28.9 19.3-35.3 35.3H315.4c-6.5-16-19.3-28.9-35.3-35.3v-20.7h-48v20.7c-23.5 9.5-40 32.5-40 59.3c0 35.3 28.7 64 64 64c26.9 0 49.9-16.5 59.3-40h201.3c9.5 23.5 32.5 40 59.3 40c35.3 0 64-28.7 64-64c0-26.9-16.5-49.9-40-59.3V347.3c23.5-9.5 40-32.5 40-59.3c0-35.3-28.7-64-64-64c-26.9 0-49.9 16.5-59.3 40H464v9.6c10.7 10.9 19.1 23.9 24.6 38.4h28zm59.3-8c-8.8 0-16-7.2-16-16s7.2-16 16-16s16 7.2 16 16s-7.2 16-16 16M271.8 514.7c-.8 5.8-4.7 10.7-10.2 12.8c-5.4 2.1-11.6 1-16.1-2.8c-4.4-3.8-6.4-9.8-5.2-15.5c.8-5.8 4.7-10.7 10.2-12.8c5.4-2.1 11.6-1 16.1 2.8c4.4 3.8 6.4 9.8 5.2 15.5m301.5 13c-7.5-1.3-13.2-7.9-13.2-15.8c0-8.8 7.2-16 16-16c7.9 0 14.5 5.7 15.8 13.2v.1c.1.9.2 1.8.2 2.7c0 8.8-7.2 16-16 16c-.9 0-1.9-.1-2.8-.2"/></symbol><symbol id="hd-icon-fa7-regular-paper-plane" viewBox="0 0 640 640"><path fill="currentColor" d="m322.5 351.7l200.9-200.8L391 520.3zM489.4 117L288.6 317.8L120 249.3zM70.1 280.8l205.8 83.6l83.6 205.8c5.3 13.1 18.1 21.7 32.3 21.7c14.7 0 27.8-9.2 32.8-23.1L602.6 72c3.5-9.8 1-20.6-6.3-28s-18.2-9.8-28-6.3l-496.9 178c-13.9 5-23.1 18.1-23.1 32.8c0 14.2 8.6 27 21.7 32.3z"/></symbol><symbol id="hd-icon-fa7-regular-paste" viewBox="0 0 640 640"><path fill="currentColor" d="M128 112h224c8.8 0 16 7.2 16 16v48h48v-48c0-35.3-28.7-64-64-64H128c-35.3 0-64 28.7-64 64v320c0 35.3 28.7 64 64 64h112v-48H128c-8.8 0-16-7.2-16-16V128c0-8.8 7.2-16 16-16m176 72c0-13.3-10.7-24-24-24H168c-13.3 0-24 10.7-24 24s10.7 24 24 24h105.6c8.8-8.6 19-15.8 30.2-21.1c.1-.9.2-1.9.2-2.9m208 344H352c-8.8 0-16-7.2-16-16V288c0-8.8 7.2-16 16-16h101.5c4.2 0 8.3 1.7 11.3 4.7l58.5 58.5c3 3 4.7 7.1 4.7 11.3V512c0 8.8-7.2 16-16 16M288 288v224c0 35.3 28.7 64 64 64h160c35.3 0 64-28.7 64-64V346.5c0-17-6.7-33.3-18.7-45.3l-58.5-58.5c-12-12-28.3-18.7-45.3-18.7H352c-35.3 0-64 28.7-64 64"/></symbol><symbol id="hd-icon-fa7-regular-pause-circle" viewBox="0 0 640 640"><path fill="currentColor" d="M320 112c114.9 0 208 93.1 208 208s-93.1 208-208 208s-208-93.1-208-208s93.1-208 208-208m0 464c141.4 0 256-114.6 256-256S461.4 64 320 64S64 178.6 64 320s114.6 256 256 256m-32-328c0-13.3-10.7-24-24-24s-24 10.7-24 24v144c0 13.3 10.7 24 24 24s24-10.7 24-24zm112 0c0-13.3-10.7-24-24-24s-24 10.7-24 24v144c0 13.3 10.7 24 24 24s24-10.7 24-24z"/></symbol><symbol id="hd-icon-fa7-regular-pen-to-square" viewBox="0 0 640 640"><path fill="currentColor" d="m505 122.9l12.1 12.1c9.4 9.4 9.4 24.6 0 33.9L488 198.1L441.9 152l29.1-29.1c9.4-9.4 24.6-9.4 33.9 0zM273.8 320.2L408 185.9l46.1 46.1l-134.3 134.2c-2.9 2.9-6.5 5-10.4 6.1L250.9 389l16.7-58.5c1.1-3.9 3.2-7.5 6.1-10.4zM437.1 89L239.8 286.2c-8.7 8.7-15 19.4-18.3 31.1l-28.6 100c-2.4 8.4-.1 17.4 6.1 23.6s15.2 8.5 23.6 6.1l100-28.6c11.8-3.4 22.5-9.7 31.1-18.3L551 202.9c28.1-28.1 28.1-73.7 0-101.8L538.9 89c-28.1-28.1-73.7-28.1-101.8 0M152 128c-48.6 0-88 39.4-88 88v272c0 48.6 39.4 88 88 88h272c48.6 0 88-39.4 88-88V376c0-13.3-10.7-24-24-24s-24 10.7-24 24v112c0 22.1-17.9 40-40 40H152c-22.1 0-40-17.9-40-40V216c0-22.1 17.9-40 40-40h112c13.3 0 24-10.7 24-24s-10.7-24-24-24z"/></symbol><symbol id="hd-icon-fa7-regular-play-circle" viewBox="0 0 640 640"><path fill="currentColor" d="M320 112c114.9 0 208 93.1 208 208s-93.1 208-208 208s-208-93.1-208-208s93.1-208 208-208m0 464c141.4 0 256-114.6 256-256S461.4 64 320 64S64 178.6 64 320s114.6 256 256 256m-43.5-364.5c-7.4-4.5-16.7-4.7-24.3-.5S240 223.3 240 232v176c0 8.7 4.7 16.7 12.3 20.9s16.8 4.1 24.3-.5l144-88c7.1-4.4 11.5-12.1 11.5-20.5s-4.4-16.1-11.5-20.5l-144-88zM362 320l-74 45.2v-90.4z"/></symbol><symbol id="hd-icon-fa7-regular-plus-square" viewBox="0 0 640 640"><path fill="currentColor" d="M160 144c-8.8 0-16 7.2-16 16v320c0 8.8 7.2 16 16 16h320c8.8 0 16-7.2 16-16V160c0-8.8-7.2-16-16-16zm-64 16c0-35.3 28.7-64 64-64h320c35.3 0 64 28.7 64 64v320c0 35.3-28.7 64-64 64H160c-35.3 0-64-28.7-64-64zm200 248v-64h-64c-13.3 0-24-10.7-24-24s10.7-24 24-24h64v-64c0-13.3 10.7-24 24-24s24 10.7 24 24v64h64c13.3 0 24 10.7 24 24s-10.7 24-24 24h-64v64c0 13.3-10.7 24-24 24s-24-10.7-24-24"/></symbol><symbol id="hd-icon-fa7-regular-question-circle" viewBox="0 0 640 640"><path fill="currentColor" d="M528 320c0-114.9-93.1-208-208-208s-208 93.1-208 208s93.1 208 208 208s208-93.1 208-208m-464 0C64 178.6 178.6 64 320 64s256 114.6 256 256s-114.6 256-256 256S64 461.4 64 320m256-80c-17.7 0-32 14.3-32 32c0 13.3-10.7 24-24 24s-24-10.7-24-24c0-44.2 35.8-80 80-80s80 35.8 80 80c0 47.2-36 67.2-56 74.5v3.8c0 13.3-10.7 24-24 24s-24-10.7-24-24v-8.1c0-20.5 14.8-35.2 30.1-40.2c6.4-2.1 13.2-5.5 18.2-10.3c4.3-4.2 7.7-10 7.7-19.6c0-17.7-14.3-32-32-32zm-32 192c0-17.7 14.3-32 32-32s32 14.3 32 32s-14.3 32-32 32s-32-14.3-32-32"/></symbol><symbol id="hd-icon-fa7-regular-rectangle-list" viewBox="0 0 640 640"><path fill="currentColor" d="M128 176c-8.8 0-16 7.2-16 16v256c0 8.8 7.2 16 16 16h384c8.8 0 16-7.2 16-16V192c0-8.8-7.2-16-16-16zm-64 16c0-35.3 28.7-64 64-64h384c35.3 0 64 28.7 64 64v256c0 35.3-28.7 64-64 64H128c-35.3 0-64-28.7-64-64zm160 192c0 17.7-14.3 32-32 32s-32-14.3-32-32s14.3-32 32-32s32 14.3 32 32m-32-96c-17.7 0-32-14.3-32-32s14.3-32 32-32s32 14.3 32 32s-14.3 32-32 32m104-56h160c13.3 0 24 10.7 24 24s-10.7 24-24 24H296c-13.3 0-24-10.7-24-24s10.7-24 24-24m0 128h160c13.3 0 24 10.7 24 24s-10.7 24-24 24H296c-13.3 0-24-10.7-24-24s10.7-24 24-24"/></symbol><symbol id="hd-icon-fa7-regular-rectangle-times" viewBox="0 0 640 640"><path fill="currentColor" d="M128 176c-8.8 0-16 7.2-16 16v256c0 8.8 7.2 16 16 16h384c8.8 0 16-7.2 16-16V192c0-8.8-7.2-16-16-16zm-64 16c0-35.3 28.7-64 64-64h384c35.3 0 64 28.7 64 64v256c0 35.3-28.7 64-64 64H128c-35.3 0-64-28.7-64-64zm334.1 49.9c9.4 9.4 9.4 24.6 0 33.9L354 319.9l44.1 44.1c9.4 9.4 9.4 24.6 0 33.9s-24.6 9.4-33.9 0l-44.1-44.1l-44.1 44.1c-9.4 9.4-24.6 9.4-33.9 0s-9.4-24.6 0-33.9l44.1-44.1l-44.1-44.1c-9.4-9.4-9.4-24.6 0-33.9s24.6-9.4 33.9 0l44.1 44.1l44.1-44.1c9.4-9.4 24.6-9.4 33.9 0"/></symbol><symbol id="hd-icon-fa7-regular-rectangle-xmark" viewBox="0 0 640 640"><path fill="currentColor" d="M128 176c-8.8 0-16 7.2-16 16v256c0 8.8 7.2 16 16 16h384c8.8 0 16-7.2 16-16V192c0-8.8-7.2-16-16-16zm-64 16c0-35.3 28.7-64 64-64h384c35.3 0 64 28.7 64 64v256c0 35.3-28.7 64-64 64H128c-35.3 0-64-28.7-64-64zm334.1 49.9c9.4 9.4 9.4 24.6 0 33.9L354 319.9l44.1 44.1c9.4 9.4 9.4 24.6 0 33.9s-24.6 9.4-33.9 0l-44.1-44.1l-44.1 44.1c-9.4 9.4-24.6 9.4-33.9 0s-9.4-24.6 0-33.9l44.1-44.1l-44.1-44.1c-9.4-9.4-9.4-24.6 0-33.9s24.6-9.4 33.9 0l44.1 44.1l44.1-44.1c9.4-9.4 24.6-9.4 33.9 0"/></symbol><symbol id="hd-icon-fa7-regular-registered" viewBox="0 0 640 640"><path fill="currentColor" d="M320 112c114.9 0 208 93.1 208 208s-93.1 208-208 208s-208-93.1-208-208s93.1-208 208-208m0 464c141.4 0 256-114.6 256-256S461.4 64 320 64S64 178.6 64 320s114.6 256 256 256m-56-368c-13.3 0-24 10.7-24 24v176c0 13.3 10.7 24 24 24s24-10.7 24-24v-56h34.4l41 68.3c6.8 11.4 21.6 15 32.9 8.2s15-21.6 8.2-32.9l-30.2-50.3c24.6-11.5 41.6-36.4 41.6-65.3c0-39.8-32.2-72-72-72h-80zm72 96h-48v-48h56c13.3 0 24 10.7 24 24s-10.7 24-24 24z"/></symbol><symbol id="hd-icon-fa7-regular-sad-cry" viewBox="0 0 640 640"><path fill="currentColor" d="M464 470.1V352c0-13.3-10.7-24-24-24s-24 10.7-24 24v152.6c-28.7 15-61.4 23.4-96 23.4s-67.3-8.5-96-23.4V352c0-13.3-10.7-24-24-24s-24 10.7-24 24v118.1c-39.4-37.9-64-91.1-64-150.1c0-114.9 93.1-208 208-208s208 93.1 208 208c0 59-24.6 112.2-64 150.1M320 576c141.4 0 256-114.6 256-256S461.4 64 320 64S64 178.6 64 320s114.6 256 256 256M216 260h16c11 0 20 9 20 20s9 20 20 20s20-9 20-20c0-33.1-26.9-60-60-60h-16c-33.1 0-60 26.9-60 60c0 11 9 20 20 20s20-9 20-20s9-20 20-20m172 20c0-11 9-20 20-20h16c11 0 20 9 20 20s9 20 20 20s20-9 20-20c0-33.1-26.9-60-60-60h-16c-33.1 0-60 26.9-60 60c0 11 9 20 20 20s20-9 20-20M272 400v32c0 26.5 21.5 48 48 48s48-21.5 48-48v-32c0-26.5-21.5-48-48-48s-48 21.5-48 48"/></symbol><symbol id="hd-icon-fa7-regular-sad-tear" viewBox="0 0 640 640"><path fill="currentColor" d="M528 320c0-114.9-93.1-208-208-208s-208 93.1-208 208c0 41.8 12.3 80.7 33.6 113.3c8.2 44.7 47.3 78.6 94.3 78.7c24.7 10.3 51.7 16 80.1 16c114.9 0 208-93.1 208-208m-176 96c-5.5 0-10.9.6-16 1.8V416c0-16.2-4-31.5-11.1-44.9c8.7-2 17.8-3.1 27.1-3.1c40.2 0 75.7 19.8 97.5 50c7.7 10.8 5.3 25.8-5.5 33.5s-25.8 5.3-33.5-5.5c-13.1-18.2-34.4-30-58.5-30M64 320C64 178.6 178.6 64 320 64s256 114.6 256 256s-114.6 256-256 256S64 461.4 64 320m176-80c17.7 0 32 14.3 32 32s-14.3 32-32 32s-32-14.3-32-32s14.3-32 32-32m128 32c0-17.7 14.3-32 32-32s32 14.3 32 32s-14.3 32-32 32s-32-14.3-32-32m-118.6 68.8c6.5 7.8 12.6 16.1 18.3 24.6c9 13.4 20.3 30.2 20.3 47.4c0 28.3-21.5 51.2-48 51.2s-48-22.9-48-51.2c0-17.2 11.2-34 20.3-47.4c5.7-8.5 11.9-16.7 18.3-24.6c2.4-2.9 5.7-4.8 9.4-4.8s7 1.9 9.4 4.8"/></symbol><symbol id="hd-icon-fa7-regular-save" viewBox="0 0 640 640"><path fill="currentColor" d="M160 144c-8.8 0-16 7.2-16 16v320c0 8.8 7.2 16 16 16h320c8.8 0 16-7.2 16-16V237.3c0-4.2-1.7-8.3-4.7-11.3L416 150.6V240c0 17.7-14.3 32-32 32H224c-17.7 0-32-14.3-32-32v-96zm80 0v80h128v-80zM96 160c0-35.3 28.7-64 64-64h242.7c17 0 33.3 6.7 45.3 18.7l77.3 77.3c12 12 18.7 28.3 18.7 45.3V480c0 35.3-28.7 64-64 64H160c-35.3 0-64-28.7-64-64zm160 224c0-35.3 28.7-64 64-64s64 28.7 64 64s-28.7 64-64 64s-64-28.7-64-64"/></symbol><symbol id="hd-icon-fa7-regular-share-from-square" viewBox="0 0 640 640"><path fill="currentColor" d="M457.5 71c-6.9-6.9-17.2-8.9-26.2-5.2S416.5 78.3 416.5 88v56h-48c-88.4 0-160 71.6-160 160c0 46.7 20.7 80.4 43.6 103.4c8.1 8.2 16.5 14.9 24.3 20.4c9.2 6.5 21.7 5.7 30.1-1.9s10.2-20 4.5-29.8c-3.6-6.3-6.5-14.9-6.5-26.7c0-36.2 29.3-65.5 65.5-65.5h46.5v56c0 9.7 5.8 18.5 14.8 22.2s19.3 1.7 26.2-5.2l136-136c9.4-9.4 9.4-24.6 0-33.9zm7 97v-22.1l78.1 78.1l-78.1 78.1V280c0-13.3-10.7-24-24-24H370c-50.9 0-93.9 33.5-108.3 79.6c-3.3-9.4-5.2-19.8-5.2-31.6c0-61.9 50.1-112 112-112h72c13.3 0 24-10.7 24-24m-320-8c-44.2 0-80 35.8-80 80v256c0 44.2 35.8 80 80 80h256c44.2 0 80-35.8 80-80v-24c0-13.3-10.7-24-24-24s-24 10.7-24 24v24c0 17.7-14.3 32-32 32h-256c-17.7 0-32-14.3-32-32V240c0-17.7 14.3-32 32-32h24c13.3 0 24-10.7 24-24s-10.7-24-24-24z"/></symbol><symbol id="hd-icon-fa7-regular-share-square" viewBox="0 0 640 640"><path fill="currentColor" d="M457.5 71c-6.9-6.9-17.2-8.9-26.2-5.2S416.5 78.3 416.5 88v56h-48c-88.4 0-160 71.6-160 160c0 46.7 20.7 80.4 43.6 103.4c8.1 8.2 16.5 14.9 24.3 20.4c9.2 6.5 21.7 5.7 30.1-1.9s10.2-20 4.5-29.8c-3.6-6.3-6.5-14.9-6.5-26.7c0-36.2 29.3-65.5 65.5-65.5h46.5v56c0 9.7 5.8 18.5 14.8 22.2s19.3 1.7 26.2-5.2l136-136c9.4-9.4 9.4-24.6 0-33.9zm7 97v-22.1l78.1 78.1l-78.1 78.1V280c0-13.3-10.7-24-24-24H370c-50.9 0-93.9 33.5-108.3 79.6c-3.3-9.4-5.2-19.8-5.2-31.6c0-61.9 50.1-112 112-112h72c13.3 0 24-10.7 24-24m-320-8c-44.2 0-80 35.8-80 80v256c0 44.2 35.8 80 80 80h256c44.2 0 80-35.8 80-80v-24c0-13.3-10.7-24-24-24s-24 10.7-24 24v24c0 17.7-14.3 32-32 32h-256c-17.7 0-32-14.3-32-32V240c0-17.7 14.3-32 32-32h24c13.3 0 24-10.7 24-24s-10.7-24-24-24z"/></symbol><symbol id="hd-icon-fa7-regular-smile" viewBox="0 0 640 640"><path fill="currentColor" d="M528 320c0-114.9-93.1-208-208-208s-208 93.1-208 208s93.1 208 208 208s208-93.1 208-208m-464 0C64 178.6 178.6 64 320 64s256 114.6 256 256s-114.6 256-256 256S64 461.4 64 320m177.3 63.4c15 15.6 41.1 32.6 78.7 32.6s63.7-17 78.7-32.6c9.2-9.6 24.4-9.9 33.9-.7s9.9 24.4.7 33.9c-22.1 23-60 47.4-113.3 47.4s-91.2-24.4-113.3-47.4c-9.2-9.6-8.9-24.8.7-33.9s24.8-8.9 33.9.7M208 272c0-17.7 14.3-32 32-32s32 14.3 32 32s-14.3 32-32 32s-32-14.3-32-32m192-32c17.7 0 32 14.3 32 32s-14.3 32-32 32s-32-14.3-32-32s14.3-32 32-32"/></symbol><symbol id="hd-icon-fa7-regular-smile-beam" viewBox="0 0 640 640"><path fill="currentColor" d="M528 320c0-114.9-93.1-208-208-208s-208 93.1-208 208s93.1 208 208 208s208-93.1 208-208m-464 0C64 178.6 178.6 64 320 64s256 114.6 256 256s-114.6 256-256 256S64 461.4 64 320m177.3 63.4c15 15.6 41.1 32.6 78.7 32.6s63.7-17 78.7-32.6c9.2-9.6 24.4-9.9 33.9-.7s9.9 24.4.7 33.9c-22.1 23-60 47.4-113.3 47.4s-91.2-24.4-113.3-47.4c-9.2-9.6-8.9-24.8.7-33.9s24.8-8.9 33.9.7M240 244c-15.5 0-28 12.5-28 28v8c0 11-9 20-20 20s-20-9-20-20v-8c0-37.6 30.4-68 68-68s68 30.4 68 68v8c0 11-9 20-20 20s-20-9-20-20v-8c0-15.5-12.5-28-28-28m132 28v8c0 11-9 20-20 20s-20-9-20-20v-8c0-37.6 30.4-68 68-68s68 30.4 68 68v8c0 11-9 20-20 20s-20-9-20-20v-8c0-15.5-12.5-28-28-28s-28 12.5-28 28"/></symbol><symbol id="hd-icon-fa7-regular-smile-wink" viewBox="0 0 640 640"><path fill="currentColor" d="M528 320c0-114.9-93.1-208-208-208s-208 93.1-208 208s93.1 208 208 208s208-93.1 208-208m-464 0C64 178.6 178.6 64 320 64s256 114.6 256 256s-114.6 256-256 256S64 461.4 64 320m177.3 63.4c15 15.6 41.1 32.6 78.7 32.6s63.7-17 78.7-32.6c9.2-9.6 24.4-9.9 33.9-.7s9.9 24.4.7 33.9c-22.1 23-60 47.4-113.3 47.4s-91.2-24.4-113.3-47.4c-9.2-9.6-8.9-24.8.7-33.9s24.8-8.9 33.9.7M208 272c0-17.7 14.3-32 32-32s32 14.3 32 32s-14.3 32-32 32s-32-14.3-32-32m164 8c0 11-9 20-20 20s-20-9-20-20c0-33.1 26.9-60 60-60h16c33.1 0 60 26.9 60 60c0 11-9 20-20 20s-20-9-20-20s-9-20-20-20h-16c-11 0-20 9-20 20"/></symbol><symbol id="hd-icon-fa7-regular-snowflake" viewBox="0 0 640 640"><path fill="currentColor" d="M344.1 56c0-13.3-10.7-24-24-24s-24 10.7-24 24v78.1l-23-23c-9.4-9.4-24.6-9.4-33.9 0s-9.4 24.6 0 33.9l57 57v76.5L230 240.3l-20.9-77.8c-3.4-12.8-16.6-20.4-29.4-17s-20.5 16.5-17 29.3l8.4 31.5l-67.6-39c-11.5-6.7-26.2-2.8-32.8 8.7s-2.7 26.2 8.8 32.8l67.6 39l-31.5 8.4c-12.8 3.4-20.4 16.6-17 29.4s16.6 20.4 29.4 17l77.8-20.9l66.2 38.2l-66.2 38.2l-77.8-20.9c-12.8-3.4-26 4.2-29.4 17s4.2 26 17 29.4l31.5 8.4l-67.6 39c-11.5 6.8-15.4 21.5-8.8 33s21.3 15.4 32.8 8.8l67.6-39l-8.4 31.5c-3.4 12.8 4.2 26 17 29.4s26-4.2 29.4-17l20.9-77.8l66.2-38.2v76.5l-57 57c-9.4 9.4-9.4 24.6 0 33.9s24.6 9.4 33.9 0l23-23v78.1c0 13.3 10.7 24 24 24s24-10.7 24-24v-78.1l23 23c9.4 9.4 24.6 9.4 33.9 0s9.4-24.6 0-33.9l-57-57v-76.5l66.2 38.2l20.9 77.8c3.4 12.8 16.6 20.4 29.4 17s20.4-16.6 17-29.4l-8.4-31.5l67.6 39c11.5 6.6 26.2 2.7 32.8-8.8s2.7-26.2-8.8-32.8l-67.6-39l31.5-8.4c12.8-3.4 20.4-16.6 17-29.4s-16.6-20.4-29.4-17l-77.8 20.9l-66.2-38.2l66.2-38.2l77.8 20.9c12.8 3.4 26-4.2 29.4-17s-4.2-26-17-29.4l-31.5-8.4l67.6-39c11.5-6.6 15.4-21.3 8.8-32.8s-21.3-15.4-32.8-8.8l-67.6 39l8.4-31.5c3.4-12.8-4.2-26-17-29.4s-26 4.2-29.4 17l-20.9 77.8l-66.2 38.2V202l57-57c9.4-9.4 9.4-24.6 0-33.9s-24.6-9.4-33.9 0l-23 23z"/></symbol><symbol id="hd-icon-fa7-regular-soccer-ball" viewBox="0 0 640 640"><path fill="currentColor" d="M451 292.3c-4.4-2.8-7.6-7-9.2-11.9s-1.4-10.2.5-15l33.3-83.4c-19.9-22.4-44.6-40.5-72.4-52.7l-69.1 57.6c-4 3.3-9 5.1-14.1 5.1s-10.2-1.8-14.1-5.1l-69.1-57.6c-27.8 12.2-52.5 30.3-72.4 52.7l33.4 83.4c1.9 4.8 2.1 10.1.5 15s-4.9 9.1-9.2 11.9L113 340.2c3 30.9 12.7 59.7 27.6 85.2l89.7-6c5.2-.3 10.3 1.1 14.5 4.2s7.2 7.4 8.4 12.5l22 87.2c14.4 3.2 29.4 4.8 44.8 4.8s30.3-1.7 44.8-4.8l22-87.2c1.3-5 4.2-9.4 8.4-12.5s9.3-4.5 14.5-4.2l89.7 6c15-25.4 24.7-54.3 27.6-85.1zM320 64c141.4 0 256 114.6 256 256S461.4 576 320 576S64 461.4 64 320S178.6 64 320 64m62 221c8.4 6.1 11.9 16.9 8.7 26.8l-18.3 56.3c-3.2 9.9-12.4 16.6-22.8 16.6h-59.2c-10.4 0-19.6-6.7-22.8-16.6l-18.3-56.3c-3.2-9.9.3-20.7 8.7-26.8l47.9-34.8c8.4-6.1 19.8-6.1 28.2 0z"/></symbol><symbol id="hd-icon-fa7-regular-square" viewBox="0 0 640 640"><path fill="currentColor" d="M480 144c8.8 0 16 7.2 16 16v320c0 8.8-7.2 16-16 16H160c-8.8 0-16-7.2-16-16V160c0-8.8 7.2-16 16-16zM160 96c-35.3 0-64 28.7-64 64v320c0 35.3 28.7 64 64 64h320c35.3 0 64-28.7 64-64V160c0-35.3-28.7-64-64-64z"/></symbol><symbol id="hd-icon-fa7-regular-square-caret-down" viewBox="0 0 640 640"><path fill="currentColor" d="M480 496c8.8 0 16-7.2 16-16V160c0-8.8-7.2-16-16-16H160c-8.8 0-16 7.2-16 16v320c0 8.8 7.2 16 16 16zm64-16c0 35.3-28.7 64-64 64H160c-35.3 0-64-28.7-64-64V160c0-35.3 28.7-64 64-64h320c35.3 0 64 28.7 64 64zm-224-64c-6.7 0-13-2.8-17.6-7.7l-104-112c-6.5-7-8.2-17.2-4.4-25.9s12.5-14.4 22-14.4h208c9.5 0 18.2 5.7 22 14.4s2.1 18.9-4.4 25.9l-104 112c-4.5 4.9-10.9 7.7-17.6 7.7"/></symbol><symbol id="hd-icon-fa7-regular-square-caret-left" viewBox="0 0 640 640"><path fill="currentColor" d="M144 480c0 8.8 7.2 16 16 16h320c8.8 0 16-7.2 16-16V160c0-8.8-7.2-16-16-16H160c-8.8 0-16 7.2-16 16zm16 64c-35.3 0-64-28.7-64-64V160c0-35.3 28.7-64 64-64h320c35.3 0 64 28.7 64 64v320c0 35.3-28.7 64-64 64zm64-224c0-6.7 2.8-13 7.7-17.6l112-104c7-6.5 17.2-8.2 25.9-4.4s14.4 12.5 14.4 22v208c0 9.5-5.7 18.2-14.4 22s-18.9 2.1-25.9-4.4l-112-104c-4.9-4.5-7.7-10.9-7.7-17.6"/></symbol><symbol id="hd-icon-fa7-regular-square-caret-right" viewBox="0 0 640 640"><path fill="currentColor" d="M496 160c0-8.8-7.2-16-16-16H160c-8.8 0-16 7.2-16 16v320c0 8.8 7.2 16 16 16h320c8.8 0 16-7.2 16-16zm-16-64c35.3 0 64 28.7 64 64v320c0 35.3-28.7 64-64 64H160c-35.3 0-64-28.7-64-64V160c0-35.3 28.7-64 64-64zm-64 224c0 6.7-2.8 13-7.7 17.6l-112 104c-7 6.5-17.2 8.2-25.9 4.4S256 433.5 256 424V216c0-9.5 5.7-18.2 14.4-22s18.9-2.1 25.9 4.4l112 104c4.9 4.5 7.7 10.9 7.7 17.6"/></symbol><symbol id="hd-icon-fa7-regular-square-caret-up" viewBox="0 0 640 640"><path fill="currentColor" d="M160 144c-8.8 0-16 7.2-16 16v320c0 8.8 7.2 16 16 16h320c8.8 0 16-7.2 16-16V160c0-8.8-7.2-16-16-16zm-64 16c0-35.3 28.7-64 64-64h320c35.3 0 64 28.7 64 64v320c0 35.3-28.7 64-64 64H160c-35.3 0-64-28.7-64-64zm224 64c6.7 0 13 2.8 17.6 7.7l104 112c6.5 7 8.2 17.2 4.4 25.9S433.5 384 424 384H216c-9.5 0-18.2-5.7-22-14.4s-2.1-18.9 4.4-25.9l104-112c4.5-4.9 10.9-7.7 17.6-7.7"/></symbol><symbol id="hd-icon-fa7-regular-square-check" viewBox="0 0 640 640"><path fill="currentColor" d="M480 96c35.3 0 64 28.7 64 64v320c0 35.3-28.7 64-64 64H160c-35.3 0-64-28.7-64-64V160c0-35.3 28.7-64 64-64zm-320 48c-8.8 0-16 7.2-16 16v320c0 8.8 7.2 16 16 16h320c8.8 0 16-7.2 16-16V160c0-8.8-7.2-16-16-16zm230.7 89.9c7.8-10.7 22.8-13.1 33.5-5.3s13.1 22.8 5.3 33.5l-122.1 168c-4.1 5.7-10.5 9.3-17.5 9.8s-13.9-2-18.8-6.9l-55.9-55.9c-9.4-9.4-9.4-24.6 0-33.9s24.6-9.4 33.9 0l36 36L390.7 234z"/></symbol><symbol id="hd-icon-fa7-regular-square-full" viewBox="0 0 640 640"><path fill="currentColor" d="M512 112c8.8 0 16 7.2 16 16v384c0 8.8-7.2 16-16 16H128c-8.8 0-16-7.2-16-16V128c0-8.8 7.2-16 16-16zM128 64c-35.3 0-64 28.7-64 64v384c0 35.3 28.7 64 64 64h384c35.3 0 64-28.7 64-64V128c0-35.3-28.7-64-64-64z"/></symbol><symbol id="hd-icon-fa7-regular-square-minus" viewBox="0 0 640 640"><path fill="currentColor" d="M160 144c-8.8 0-16 7.2-16 16v320c0 8.8 7.2 16 16 16h320c8.8 0 16-7.2 16-16V160c0-8.8-7.2-16-16-16zm-64 16c0-35.3 28.7-64 64-64h320c35.3 0 64 28.7 64 64v320c0 35.3-28.7 64-64 64H160c-35.3 0-64-28.7-64-64zm136 136h176c13.3 0 24 10.7 24 24s-10.7 24-24 24H232c-13.3 0-24-10.7-24-24s10.7-24 24-24"/></symbol><symbol id="hd-icon-fa7-regular-square-plus" viewBox="0 0 640 640"><path fill="currentColor" d="M160 144c-8.8 0-16 7.2-16 16v320c0 8.8 7.2 16 16 16h320c8.8 0 16-7.2 16-16V160c0-8.8-7.2-16-16-16zm-64 16c0-35.3 28.7-64 64-64h320c35.3 0 64 28.7 64 64v320c0 35.3-28.7 64-64 64H160c-35.3 0-64-28.7-64-64zm200 248v-64h-64c-13.3 0-24-10.7-24-24s10.7-24 24-24h64v-64c0-13.3 10.7-24 24-24s24 10.7 24 24v64h64c13.3 0 24 10.7 24 24s-10.7 24-24 24h-64v64c0 13.3-10.7 24-24 24s-24-10.7-24-24"/></symbol><symbol id="hd-icon-fa7-regular-star" viewBox="0 0 640 640"><path fill="currentColor" d="M320.1 32c9 0 17.3 5.1 21.4 13.1L415 189.3l159.9 25.4c8.9 1.4 16.3 7.7 19.1 16.3s.5 18-5.8 24.4L473.7 369.9L499 529.8c1.4 8.9-2.3 17.9-9.6 23.2s-17 6.1-25 2l-144.3-73.4L175.8 555c-8 4.1-17.7 3.3-25-2s-11-14.2-9.6-23.2l25.2-159.9L52 255.4c-6.4-6.4-8.6-15.8-5.8-24.4s10.1-14.9 19.1-16.3l159.9-25.4l73.6-144.2c4.1-8 12.4-13.1 21.4-13.1zm0 76.8L262.3 222c-3.5 6.8-10 11.6-17.6 12.8l-125.5 20l89.8 89.9c5.4 5.4 7.9 13.1 6.7 20.7l-19.8 125.5l113.3-57.6c6.8-3.5 14.9-3.5 21.8 0l113.3 57.6l-19.8-125.5c-1.2-7.6 1.3-15.3 6.7-20.7l89.8-89.9l-125.5-20c-7.6-1.2-14.1-6-17.6-12.8z"/></symbol><symbol id="hd-icon-fa7-regular-star-half" viewBox="0 0 640 640"><path fill="currentColor" d="M317.7 48.2c10.8 2.6 18.4 12.2 18.4 23.3v387.1c0 9-5.1 17.3-13.1 21.4l-147.2 75c-8 4.1-17.7 3.3-25-2s-11-14.2-9.6-23.2l25.2-159.9L52 255.4c-6.4-6.4-8.6-15.8-5.8-24.4s10.1-14.9 19.1-16.3l159.8-25.4l65.7-128.6c5-9.9 16.2-15 27-12.4zm-29.6 123.2L262.3 222c-3.5 6.8-10 11.6-17.6 12.8l-125.5 20l89.8 89.9c5.4 5.4 7.9 13.1 6.7 20.7l-19.8 125.5l92.2-46.9z"/></symbol><symbol id="hd-icon-fa7-regular-star-half-alt" viewBox="0 0 640 640"><path fill="currentColor" d="M341.5 45.1c-4.1-8-12.4-13.1-21.4-13.1s-17.3 5.1-21.4 13.1l-73.6 144.2l-159.9 25.4c-8.9 1.4-16.3 7.7-19.1 16.3s-.5 18 5.8 24.4l114.4 114.5l-25.2 159.9c-1.4 8.9 2.3 17.9 9.6 23.2s16.9 6.1 25 2l144.4-73.4L464.4 555c8 4.1 17.7 3.3 25-2s11-14.2 9.6-23.2l-25.3-159.9l114.4-114.5c6.4-6.4 8.6-15.8 5.8-24.4s-10.1-14.9-19.1-16.3L415 189.3zm-45.4 110.7v284.1L196 490.8l19.8-125.5c1.2-7.6-1.3-15.3-6.7-20.7l-89.8-89.9l125.5-20c7.6-1.2 14.1-6 17.6-12.8l33.8-66.2zm48 284.1V155.8l33.8 66.2c3.5 6.8 10 11.6 17.6 12.8l125.5 20l-89.8 89.9c-5.4 5.4-7.9 13.1-6.7 20.7l19.8 125.5L344.2 440z"/></symbol><symbol id="hd-icon-fa7-regular-star-half-stroke" viewBox="0 0 640 640"><path fill="currentColor" d="M341.5 45.1c-4.1-8-12.4-13.1-21.4-13.1s-17.3 5.1-21.4 13.1l-73.6 144.2l-159.9 25.4c-8.9 1.4-16.3 7.7-19.1 16.3s-.5 18 5.8 24.4l114.4 114.5l-25.2 159.9c-1.4 8.9 2.3 17.9 9.6 23.2s16.9 6.1 25 2l144.4-73.4L464.4 555c8 4.1 17.7 3.3 25-2s11-14.2 9.6-23.2l-25.3-159.9l114.4-114.5c6.4-6.4 8.6-15.8 5.8-24.4s-10.1-14.9-19.1-16.3L415 189.3zm-45.4 110.7v284.1L196 490.8l19.8-125.5c1.2-7.6-1.3-15.3-6.7-20.7l-89.8-89.9l125.5-20c7.6-1.2 14.1-6 17.6-12.8l33.8-66.2zm48 284.1V155.8l33.8 66.2c3.5 6.8 10 11.6 17.6 12.8l125.5 20l-89.8 89.9c-5.4 5.4-7.9 13.1-6.7 20.7l19.8 125.5L344.2 440z"/></symbol><symbol id="hd-icon-fa7-regular-sticky-note" viewBox="0 0 640 640"><path fill="currentColor" d="M336 496H160c-8.8 0-16-7.2-16-16V160c0-8.8 7.2-16 16-16h320c8.8 0 16 7.2 16 16v176h-88c-39.8 0-72 32.2-72 72zm140.1-112L384 476.1V408c0-13.3 10.7-24 24-24zM96 480c0 35.3 28.7 64 64 64h197.5c17 0 33.3-6.7 45.3-18.7l122.5-122.6c12-12 18.7-28.3 18.7-45.3V160c0-35.3-28.7-64-64-64H160c-35.3 0-64 28.7-64 64z"/></symbol><symbol id="hd-icon-fa7-regular-stop-circle" viewBox="0 0 640 640"><path fill="currentColor" d="M320 112c114.9 0 208 93.1 208 208s-93.1 208-208 208s-208-93.1-208-208s93.1-208 208-208m0 464c141.4 0 256-114.6 256-256S461.4 64 320 64S64 178.6 64 320s114.6 256 256 256m-96-320v128c0 17.7 14.3 32 32 32h128c17.7 0 32-14.3 32-32V256c0-17.7-14.3-32-32-32H256c-17.7 0-32 14.3-32 32m48 112v-96h96v96z"/></symbol><symbol id="hd-icon-fa7-regular-sun" viewBox="0 0 640 640"><path fill="currentColor" d="M232.6 56.1c-6.7-4.4-15.1-5.2-22.5-2.2s-12.7 9.6-14.2 17.4L175 174.6L71.7 195.4c-7.8 1.6-14.4 7-17.4 14.3s-2.2 15.8 2.2 22.5l58.2 87.8l-58.2 87.8c-4.4 6.7-5.2 15.1-2.2 22.5s9.6 12.8 17.4 14.3L175 465.4l20.9 103.3c1.6 7.8 7 14.4 14.3 17.4s15.8 2.2 22.5-2.2l87.8-58.2l87.8 58.2c6.7 4.4 15.1 5.2 22.5 2.2s12.8-9.6 14.3-17.4L466 465.5l103.2-20.9c7.8-1.6 14.4-7 17.4-14.3s2.2-15.8-2.2-22.5L526.2 320l58.2-87.8c4.4-6.7 5.2-15.1 2.2-22.5s-9.6-12.8-17.4-14.3l-103.4-20.8L445 71.3c-1.6-7.8-7-14.3-14.4-17.4s-15.8-2.2-22.5 2.2l-87.7 58.2zm-13.7 143.6l17-83.9l71.3 47.3c8 5.3 18.5 5.3 26.5 0l71.3-47.3l17 83.9c1.9 9.5 9.3 16.8 18.8 18.8l83.9 17l-47.3 71.3c-5.3 8-5.3 18.5 0 26.5l47.3 71.3l-83.9 17c-9.5 1.9-16.9 9.3-18.8 18.8l-17 83.9l-71.3-47.3c-8-5.3-18.5-5.3-26.5 0l-71.3 47.3l-17-83.9c-1.9-9.5-9.3-16.9-18.8-18.8l-83.9-17l47.3-71.3c5.3-8 5.3-18.5 0-26.5l-47.3-71.3l83.9-17c9.5-1.9 16.8-9.3 18.8-18.8M271.6 320c0-26.7 21.7-48.4 48.4-48.4s48.4 21.7 48.4 48.4s-21.7 48.4-48.4 48.4s-48.4-21.7-48.4-48.4m144.8 0c0-53.2-43.2-96.4-96.4-96.4s-96.4 43.2-96.4 96.4s43.2 96.4 96.4 96.4s96.4-43.2 96.4-96.4"/></symbol><symbol id="hd-icon-fa7-regular-surprise" viewBox="0 0 640 640"><path fill="currentColor" d="M528 320c0-114.9-93.1-208-208-208s-208 93.1-208 208s93.1 208 208 208s208-93.1 208-208m-464 0C64 178.6 178.6 64 320 64s256 114.6 256 256s-114.6 256-256 256S64 461.4 64 320m176-80c17.7 0 32 14.3 32 32s-14.3 32-32 32s-32-14.3-32-32s14.3-32 32-32m128 32c0-17.7 14.3-32 32-32s32 14.3 32 32s-14.3 32-32 32s-32-14.3-32-32m-48 80c35.3 0 64 28.7 64 64s-28.7 64-64 64s-64-28.7-64-64s28.7-64 64-64"/></symbol><symbol id="hd-icon-fa7-regular-thumbs-down" viewBox="0 0 640 640"><path fill="currentColor" d="m424 96l7.4.4c35 3.6 62.5 32.2 64.4 67.7c17.8 11.8 30.1 31.4 32 53.9l.2 6c0 5.7-.7 11.2-2 16.5c10.2 11.5 16.8 26.3 17.8 42.7l.2 4.8c0 13.2-3.6 25.4-9.8 36c4.9 8.4 8.2 17.9 9.3 28l.4 8c0 37.3-28.3 67.9-64.6 71.6l-7.4.4H362.2l14.1 30l3.1 7.6c12.5 35.7-1.8 75.5-34.2 95l-7.2 3.9c-37.5 17.6-81.7 3.6-102.6-31.2l-.6-.9l-2.7-5l-.6-1.2l-30.1-64c-9.4 17.8-28 29.9-49.5 29.9h-32c-30.9 0-56-25.1-56-56L64 216c0-30.9 25.1-56 56-56h32c12.4 0 23.9 4.1 33.2 11c13.2-21.4 32-39.4 55-51.6l12.2-6.5l.7-.3l6.6-3.2l.7-.3l7.1-3c16.7-6.6 34.5-9.9 52.6-9.9zm-104.1 48c-12 0-23.9 2.3-35.1 6.6l-4.7 2l-5.3 2.6l-12.2 6.5c-29.2 15.5-48.3 44.9-50.7 77.6l-.2 8v112.9l.1 4.1c.5 8.2 2.5 16.2 6 23.7l56.8 120.9l2.1 3.8c8.4 13.7 26 19.1 40.8 12.2l2.9-1.6c13-7.8 18.7-23.7 13.7-38l-1.2-3l-30.2-64.2c-3.5-7.4-2.9-16.1 1.5-23.1s12-11.1 20.2-11.1h147.5l2.4-.1c11.3-1.1 20.3-10.1 21.4-21.4l.1-2.5c0-7.1-3.1-13.5-8.2-18c-5.2-4.6-8.2-11.1-8.2-18s3-13.4 8.2-18c4.4-3.9 7.4-9.3 8-15.3l.2-2.7c0-8.4-4.4-15.9-11.2-20.2c-10.7-6.9-14.2-20.9-8-32c1.5-2.6 2.5-5.6 2.9-8.6l.2-3.2c0-10.6-6.9-19.6-16.6-22.8c-11.7-3.8-18.7-15.9-16-28c.2-.9.3-1.8.4-2.6l.2-2.6c0-12.4-9.5-22.6-21.6-23.8l-2.1-.1zM120 208c-4.4 0-8 3.6-8 8v224c0 4.4 3.6 8 8 8h32c4.4 0 8-3.6 8-8V216c0-4.4-3.6-8-8-8z"/></symbol><symbol id="hd-icon-fa7-regular-thumbs-up" viewBox="0 0 640 640"><path fill="currentColor" d="M235.5 102.8C256.3 68 300.5 54 338 71.6l7.2 3.8C380 96.3 394 140.5 376.4 178l-14.1 30H472l7.4.4c36.3 3.7 64.6 34.4 64.6 71.6c0 13.2-3.6 25.4-9.8 36c6.1 10.6 9.7 22.8 9.8 36c0 18.3-6.9 34.8-18 47.5c1.3 5.3 2 10.8 2 16.5c0 25.1-12.9 47-32.2 59.9c-1.9 35.5-29.4 64.2-64.4 67.7l-7.4.4H319.9c-18 0-35.9-3.4-52.6-9.9l-7.1-3l-.7-.3l-6.6-3.2l-.7-.3l-12.2-6.5c-12.3-6.5-23.3-14.7-32.9-24.1c-4.1 26.9-27.3 47.4-55.3 47.4h-32c-30.9 0-56-25.1-56-56L64 264c0-30.9 25.1-56 56-56h32c10.8 0 20.9 3.1 29.5 8.5L231.6 110l.6-1.2l2.7-5l.6-.9zM120 256c-4.4 0-8 3.6-8 8v224c0 4.4 3.6 8 8 8h32c4.4 0 8-3.6 8-8V264c0-4.4-3.6-8-8-8zm197.6-141c-14.8-6.9-32.3-1.6-40.7 12l-2.2 4l-56.8 120.9c-3.5 7.5-5.5 15.5-6 23.7l-.1 4.2v112.9l.2 7.9c2.4 32.7 21.4 62.1 50.7 77.7l11.5 6.1l6.3 3.1c12.4 5.6 25.8 8.5 39.4 8.5H424l2.4-.1c12.1-1.2 21.6-11.5 21.6-23.9l-.2-2.6c-.1-.9-.2-1.7-.4-2.6c-2.7-12.1 4.3-24.2 16-28c9.7-3.1 16.6-12.2 16.6-22.8c0-4.3-1.1-8.2-3.1-11.8c-6.3-11.1-2.8-25.2 8-32c6.8-4.3 11.2-11.8 11.2-20.2c0-7.1-3.1-13.5-8.2-18c-5.2-4.6-8.2-11.1-8.2-18s3-13.4 8.2-18c5.1-4.5 8.2-10.9 8.2-18l-.1-2.4c-1.1-11.3-10.1-20.3-21.4-21.4l-2.4-.1H324.7c-8.2 0-15.8-4.2-20.2-11.1s-5-15.7-1.5-23.1l30-64.3c7-15 1.4-32.7-12.5-41z"/></symbol><symbol id="hd-icon-fa7-regular-times-circle" viewBox="0 0 640 640"><path fill="currentColor" d="M320 112c114.9 0 208 93.1 208 208s-93.1 208-208 208s-208-93.1-208-208s93.1-208 208-208m0 464c141.4 0 256-114.6 256-256S461.4 64 320 64S64 178.6 64 320s114.6 256 256 256m-89-345c-9.4 9.4-9.4 24.6 0 33.9l55 55l-55 55c-9.4 9.4-9.4 24.6 0 33.9s24.6 9.4 33.9 0l55-55l55 55c9.4 9.4 24.6 9.4 33.9 0s9.4-24.6 0-33.9l-55-55l55-55c9.4-9.4 9.4-24.6 0-33.9s-24.6-9.4-33.9 0l-55 55l-55-55c-9.4-9.4-24.6-9.4-33.9 0"/></symbol><symbol id="hd-icon-fa7-regular-times-rectangle" viewBox="0 0 640 640"><path fill="currentColor" d="M128 176c-8.8 0-16 7.2-16 16v256c0 8.8 7.2 16 16 16h384c8.8 0 16-7.2 16-16V192c0-8.8-7.2-16-16-16zm-64 16c0-35.3 28.7-64 64-64h384c35.3 0 64 28.7 64 64v256c0 35.3-28.7 64-64 64H128c-35.3 0-64-28.7-64-64zm334.1 49.9c9.4 9.4 9.4 24.6 0 33.9L354 319.9l44.1 44.1c9.4 9.4 9.4 24.6 0 33.9s-24.6 9.4-33.9 0l-44.1-44.1l-44.1 44.1c-9.4 9.4-24.6 9.4-33.9 0s-9.4-24.6 0-33.9l44.1-44.1l-44.1-44.1c-9.4-9.4-9.4-24.6 0-33.9s24.6-9.4 33.9 0l44.1 44.1l44.1-44.1c9.4-9.4 24.6-9.4 33.9 0"/></symbol><symbol id="hd-icon-fa7-regular-tired" viewBox="0 0 640 640"><path fill="currentColor" d="M528 320c0-114.9-93.1-208-208-208s-208 93.1-208 208s93.1 208 208 208s208-93.1 208-208m-464 0C64 178.6 178.6 64 320 64s256 114.6 256 256s-114.6 256-256 256S64 461.4 64 320m176.5 64.3c19.6-18.2 47.3-32.3 79.5-32.3s59.9 14.1 79.5 32.3c19 17.8 32.5 41.7 32.5 63.7c0 5.4-2.7 10.4-7.2 13.4s-10.2 3.4-15.2 1.3l-17.2-7.5c-22.8-10-47.5-15.1-72.4-15.1s-49.6 5.2-72.4 15.1l-17.2 7.5c-4.9 2.2-10.7 1.7-15.2-1.3s-7.2-8-7.2-13.4c0-22 13.5-45.9 32.5-63.7m-53.9-161.1c4.5-6.8 13.3-9.2 20.6-5.5l79.6 40c5.4 2.7 8.8 8.2 8.8 14.3s-3.4 11.6-8.8 14.3l-79.6 40c-7.3 3.6-16.1 1.3-20.6-5.5s-3.1-15.9 3.1-21.1L223 272l-33.2-27.7c-6.2-5.2-7.6-14.3-3.1-21.1zm263.6 21.1L417 272l33.2 27.7c6.2 5.2 7.6 14.3 3.1 21.1s-13.3 9.2-20.6 5.5l-79.6-40c-5.4-2.7-8.8-8.2-8.8-14.3s3.4-11.6 8.8-14.3l79.6-40c7.3-3.6 16.1-1.3 20.6 5.5s3.1 15.9-3.1 21.1"/></symbol><symbol id="hd-icon-fa7-regular-trash-alt" viewBox="0 0 640 640"><path fill="currentColor" d="M262.2 48c-13.3 0-25.3 8.3-30 20.8L216 112h-96c-13.3 0-24 10.7-24 24s10.7 24 24 24h400c13.3 0 24-10.7 24-24s-10.7-24-24-24h-96l-16.2-43.2c-4.7-12.5-16.6-20.8-30-20.8zM128 208v304c0 35.3 28.7 64 64 64h256c35.3 0 64-28.7 64-64V208h-48v304c0 8.8-7.2 16-16 16H192c-8.8 0-16-7.2-16-16V208zm160 72c0-13.3-10.7-24-24-24s-24 10.7-24 24v176c0 13.3 10.7 24 24 24s24-10.7 24-24zm112 0c0-13.3-10.7-24-24-24s-24 10.7-24 24v176c0 13.3 10.7 24 24 24s24-10.7 24-24z"/></symbol><symbol id="hd-icon-fa7-regular-trash-can" viewBox="0 0 640 640"><path fill="currentColor" d="M262.2 48c-13.3 0-25.3 8.3-30 20.8L216 112h-96c-13.3 0-24 10.7-24 24s10.7 24 24 24h400c13.3 0 24-10.7 24-24s-10.7-24-24-24h-96l-16.2-43.2c-4.7-12.5-16.6-20.8-30-20.8zM128 208v304c0 35.3 28.7 64 64 64h256c35.3 0 64-28.7 64-64V208h-48v304c0 8.8-7.2 16-16 16H192c-8.8 0-16-7.2-16-16V208zm160 72c0-13.3-10.7-24-24-24s-24 10.7-24 24v176c0 13.3 10.7 24 24 24s24-10.7 24-24zm112 0c0-13.3-10.7-24-24-24s-24 10.7-24 24v176c0 13.3 10.7 24 24 24s24-10.7 24-24z"/></symbol><symbol id="hd-icon-fa7-regular-truck" viewBox="0 0 640 640"><path fill="currentColor" d="M96 144c-8.8 0-16 7.2-16 16v288c0 8.8 7.2 16 16 16h3.3c10.4-36.9 44.4-64 84.7-64s74.2 27.1 84.7 64h102.6c4.9-17.4 15.1-32.7 28.7-43.9V160c0-8.8-7.2-16-16-16zm3.3 368H96c-35.3 0-64-28.7-64-64V160c0-35.3 28.7-64 64-64h288c35.3 0 64 28.7 64 64v32h55.4c17 0 33.3 6.7 45.3 18.7l40.6 40.6c12 12 18.7 28.3 18.7 45.3V448c0 35.3-28.7 64-64 64h-3.3c-10.4 36.9-44.4 64-84.7 64s-74.2-27.1-84.7-64H268.7c-10.4 36.9-44.4 64-84.7 64s-74.2-27.1-84.7-64M448 320h112v-23.4c0-4.2-1.7-8.3-4.7-11.3l-40.6-40.6c-3-3-7.1-4.7-11.3-4.7H448zm0 48v32.4c2.6-.2 5.3-.4 8-.4c40.3 0 74.2 27.1 84.7 64h3.3c8.8 0 16-7.2 16-16v-80zM184 528c22.1 0 40-17.9 40-40s-17.9-40-40-40s-40 17.9-40 40s17.9 40 40 40m272 0c22.1 0 40-17.9 40-40s-17.9-40-40-40s-40 17.9-40 40s17.9 40 40 40"/></symbol><symbol id="hd-icon-fa7-regular-user" viewBox="0 0 640 640"><path fill="currentColor" d="M240 192c0-44.2 35.8-80 80-80s80 35.8 80 80s-35.8 80-80 80s-80-35.8-80-80m208 0c0-70.7-57.3-128-128-128s-128 57.3-128 128s57.3 128 128 128s128-57.3 128-128M144 544c0-70.7 57.3-128 128-128h96c70.7 0 128 57.3 128 128v8c0 13.3 10.7 24 24 24s24-10.7 24-24v-8c0-97.2-78.8-176-176-176h-96c-97.2 0-176 78.8-176 176v8c0 13.3 10.7 24 24 24s24-10.7 24-24z"/></symbol><symbol id="hd-icon-fa7-regular-user-alt" viewBox="0 0 640 640"><path fill="currentColor" d="M240 192c0-44.2 35.8-80 80-80s80 35.8 80 80s-35.8 80-80 80s-80-35.8-80-80m208 0c0-70.7-57.3-128-128-128s-128 57.3-128 128s57.3 128 128 128s128-57.3 128-128M144 544c0-70.7 57.3-128 128-128h96c70.7 0 128 57.3 128 128v8c0 13.3 10.7 24 24 24s24-10.7 24-24v-8c0-97.2-78.8-176-176-176h-96c-97.2 0-176 78.8-176 176v8c0 13.3 10.7 24 24 24s24-10.7 24-24z"/></symbol><symbol id="hd-icon-fa7-regular-user-circle" viewBox="0 0 640 640"><path fill="currentColor" d="M470.5 463.6c-19.1-46.7-65-79.6-118.5-79.6h-64c-53.5 0-99.4 32.9-118.5 79.6C133.9 426.3 112 375.7 112 320c0-114.9 93.1-208 208-208s208 93.1 208 208c0 55.7-21.9 106.2-57.5 143.6m-40.1 32.7c-32 20.1-69.8 31.7-110.4 31.7s-78.4-11.6-110.5-31.7c7.3-36.7 39.7-64.3 78.5-64.3h64c38.8 0 71.2 27.6 78.5 64.3zM320 576c141.4 0 256-114.6 256-256S461.4 64 320 64S64 178.6 64 320s114.6 256 256 256m0-272c-22.1 0-40-17.9-40-40s17.9-40 40-40s40 17.9 40 40s-17.9 40-40 40m-88-40c0 48.6 39.4 88 88 88s88-39.4 88-88s-39.4-88-88-88s-88 39.4-88 88"/></symbol><symbol id="hd-icon-fa7-regular-user-large" viewBox="0 0 640 640"><path fill="currentColor" d="M240 192c0-44.2 35.8-80 80-80s80 35.8 80 80s-35.8 80-80 80s-80-35.8-80-80m208 0c0-70.7-57.3-128-128-128s-128 57.3-128 128s57.3 128 128 128s128-57.3 128-128M144 544c0-70.7 57.3-128 128-128h96c70.7 0 128 57.3 128 128v8c0 13.3 10.7 24 24 24s24-10.7 24-24v-8c0-97.2-78.8-176-176-176h-96c-97.2 0-176 78.8-176 176v8c0 13.3 10.7 24 24 24s24-10.7 24-24z"/></symbol><symbol id="hd-icon-fa7-regular-vcard" viewBox="0 0 640 640"><path fill="currentColor" d="M544 144c8.8 0 16 7.2 16 16v320c0 8.8-7.2 16-16 16H96c-8.8 0-16-7.2-16-16V160c0-8.8 7.2-16 16-16zM96 96c-35.3 0-64 28.7-64 64v320c0 35.3 28.7 64 64 64h448c35.3 0 64-28.7 64-64V160c0-35.3-28.7-64-64-64zm144 216c30.9 0 56-25.1 56-56s-25.1-56-56-56s-56 25.1-56 56s25.1 56 56 56m-32 40c-44.2 0-80 35.8-80 80c0 8.8 7.2 16 16 16h192c8.8 0 16-7.2 16-16c0-44.2-35.8-80-80-80zm200-144c-13.3 0-24 10.7-24 24s10.7 24 24 24h80c13.3 0 24-10.7 24-24s-10.7-24-24-24zm0 96c-13.3 0-24 10.7-24 24s10.7 24 24 24h80c13.3 0 24-10.7 24-24s-10.7-24-24-24z"/></symbol><symbol id="hd-icon-fa7-regular-window-close" viewBox="0 0 640 640"><path fill="currentColor" d="M128 176c-8.8 0-16 7.2-16 16v256c0 8.8 7.2 16 16 16h384c8.8 0 16-7.2 16-16V192c0-8.8-7.2-16-16-16zm-64 16c0-35.3 28.7-64 64-64h384c35.3 0 64 28.7 64 64v256c0 35.3-28.7 64-64 64H128c-35.3 0-64-28.7-64-64zm334.1 49.9c9.4 9.4 9.4 24.6 0 33.9L354 319.9l44.1 44.1c9.4 9.4 9.4 24.6 0 33.9s-24.6 9.4-33.9 0l-44.1-44.1l-44.1 44.1c-9.4 9.4-24.6 9.4-33.9 0s-9.4-24.6 0-33.9l44.1-44.1l-44.1-44.1c-9.4-9.4-9.4-24.6 0-33.9s24.6-9.4 33.9 0l44.1 44.1l44.1-44.1c9.4-9.4 24.6-9.4 33.9 0"/></symbol><symbol id="hd-icon-fa7-regular-window-maximize" viewBox="0 0 640 640"><path fill="currentColor" d="M112 288v160c0 8.8 7.2 16 16 16h384c8.8 0 16-7.2 16-16V288zm-48-96c0-35.3 28.7-64 64-64h384c35.3 0 64 28.7 64 64v256c0 35.3-28.7 64-64 64H128c-35.3 0-64-28.7-64-64z"/></symbol><symbol id="hd-icon-fa7-regular-window-minimize" viewBox="0 0 640 640"><path fill="currentColor" d="M64 488c0-13.3 10.7-24 24-24h464c13.3 0 24 10.7 24 24s-10.7 24-24 24H88c-13.3 0-24-10.7-24-24"/></symbol><symbol id="hd-icon-fa7-regular-window-restore" viewBox="0 0 640 640"><path fill="currentColor" d="M544 144H256c-8.8 0-16 7.2-16 16v16h-48v-16c0-35.3 28.7-64 64-64h288c35.3 0 64 28.7 64 64v192c0 35.3-28.7 64-64 64h-48v-48h48c8.8 0 16-7.2 16-16V160c0-8.8-7.2-16-16-16M400 352H80v128c0 8.8 7.2 16 16 16h288c8.8 0 16-7.2 16-16zM96 224h288c35.3 0 64 28.7 64 64v192c0 35.3-28.7 64-64 64H96c-35.3 0-64-28.7-64-64V288c0-35.3 28.7-64 64-64"/></symbol><symbol id="hd-icon-fa7-regular-xmark-circle" viewBox="0 0 640 640"><path fill="currentColor" d="M320 112c114.9 0 208 93.1 208 208s-93.1 208-208 208s-208-93.1-208-208s93.1-208 208-208m0 464c141.4 0 256-114.6 256-256S461.4 64 320 64S64 178.6 64 320s114.6 256 256 256m-89-345c-9.4 9.4-9.4 24.6 0 33.9l55 55l-55 55c-9.4 9.4-9.4 24.6 0 33.9s24.6 9.4 33.9 0l55-55l55 55c9.4 9.4 24.6 9.4 33.9 0s9.4-24.6 0-33.9l-55-55l55-55c9.4-9.4 9.4-24.6 0-33.9s-24.6-9.4-33.9 0l-55 55l-55-55c-9.4-9.4-24.6-9.4-33.9 0"/></symbol></svg>