<svg xmlns="http://www.w3.org/2000/svg" xmlns:xlink="http://www.w3.org/1999/xlink"><symbol id="hd-icon-tabler-brand-amigo" viewBox="0 0 24 24"><g fill="none" stroke="currentColor" stroke-linecap="round" stroke-linejoin="round" stroke-width="2"><path d="M10 12a2 2 0 1 0 4 0a2 2 0 1 0-4 0"/><path d="m9.591 3.635l-7.13 14.082c-1.712 3.38 1.759 5.45 3.69 3.573l1.86-1.81c3.142-3.054 4.959-2.99 8.039.11l1.329 1.337c2.372 2.387 5.865.078 4.176-3.225L14.36 3.635c-1.114-2.18-3.666-2.18-4.77 0"/></g></symbol><symbol id="hd-icon-tabler-brand-among-us" viewBox="0 0 24 24"><g fill="none" stroke="currentColor" stroke-linecap="round" stroke-linejoin="round" stroke-width="2"><path d="M10.646 12.774c-1.939.396-4.467.317-6.234-.601c-2.454-1.263-1.537-4.66 1.423-4.982c2.254-.224 3.814-.354 5.65.214c.835.256 1.93.569 1.355 3.281c-.191 1.067-1.07 1.904-2.194 2.088"/><path d="M5.84 7.132q.125-.848.392-1.661c.456-.936 1.095-2.068 3.985-2.456a23 23 0 0 1 2.867.08c1.776.14 2.643 1.234 3.287 3.368c.339 1.157.46 2.342.629 3.537v11l-12.704-.019c-.552-2.386-.262-5.894.204-8.481M17 10c.991.163 2.105.383 3.069.67c.255.13.52.275.534.505c.264 3.434.57 7.448.278 9.825H17"/></g></symbol><symbol id="hd-icon-tabler-brand-android" viewBox="0 0 24 24"><path fill="none" stroke="currentColor" stroke-linecap="round" stroke-linejoin="round" stroke-width="2" d="M4 10v6m16-6v6M7 9h10v8a1 1 0 0 1-1 1H8a1 1 0 0 1-1-1za5 5 0 0 1 10 0M8 3l1 2m7-2l-1 2M9 18v3m6-3v3"/></symbol><symbol id="hd-icon-tabler-brand-angular" viewBox="0 0 24 24"><g fill="none" stroke="currentColor" stroke-linecap="round" stroke-linejoin="round" stroke-width="2"><path d="m5.428 17.245l6.076 3.471a1 1 0 0 0 .992 0l6.076-3.471a1 1 0 0 0 .495-.734l1.323-9.704a1 1 0 0 0-.658-1.078l-7.4-2.612a1 1 0 0 0-.665 0L4.268 5.73a1 1 0 0 0-.658 1.078l1.323 9.704a1 1 0 0 0 .495.734z"/><path d="m9 15l3-8l3 8m-5-2h4"/></g></symbol><symbol id="hd-icon-tabler-brand-angular-filled" viewBox="0 0 24 24"><path fill="currentColor" d="m12.665 2.174l7.4 2.612a2 2 0 0 1 1.316 2.156l-1.323 9.703a2 2 0 0 1-.99 1.468l-6.076 3.471a2 2 0 0 1-1.984 0l-6.076-3.47a2 2 0 0 1-.96-1.3l-.03-.167L2.62 6.943a2 2 0 0 1 1.316-2.156l7.4-2.613a2 2 0 0 1 1.33 0m.271 4.475c-.324-.865-1.548-.865-1.872 0l-3 8a1 1 0 0 0 .585 1.287l.111.035a1 1 0 0 0 1.176-.62L10.443 14h3.113l.508 1.352a1 1 0 0 0 1.176.62l.111-.035a1 1 0 0 0 .585-1.287zM12 9.848l.807 2.151h-1.614z"/></symbol><symbol id="hd-icon-tabler-brand-ansible" viewBox="0 0 24 24"><g fill="none" stroke="currentColor" stroke-linecap="round" stroke-linejoin="round" stroke-width="2"><path d="M3 12a9 9 0 1 0 18 0a9 9 0 1 0-18 0"/><path d="M9.647 12.294L16 16l-4-9l-4 9"/></g></symbol><symbol id="hd-icon-tabler-brand-ao3" viewBox="0 0 24 24"><g fill="none" stroke="currentColor" stroke-linecap="round" stroke-linejoin="round" stroke-width="2"><path d="M2 5c7.109 4.1 10.956 10.131 12 14c1.074-4.67 4.49-8.94 8-11"/><path d="M12 8a2 2 0 1 0 4 0a2 2 0 1 0-4 0M7 9c-.278 5.494-2.337 7.33-4 10c4.013-2 6.02-5 15.05-5c4.012 0 3.51 2.5 1 3c2 .5 2.508 5-2.007 2"/></g></symbol><symbol id="hd-icon-tabler-brand-appgallery" viewBox="0 0 24 24"><g fill="none" stroke="currentColor" stroke-linecap="round" stroke-linejoin="round" stroke-width="2"><path d="M4 8a4 4 0 0 1 4-4h8a4 4 0 0 1 4 4v8a4 4 0 0 1-4 4H8a4 4 0 0 1-4-4z"/><path d="M9 8a3 3 0 0 0 6 0"/></g></symbol><symbol id="hd-icon-tabler-brand-apple" viewBox="0 0 24 24"><path fill="none" stroke="currentColor" stroke-linecap="round" stroke-linejoin="round" stroke-width="2" d="M8.286 7.008C5.07 7.008 4 10.238 4 12.928C4 16.157 6.143 21 8.286 21c1.165-.05 1.799-.538 3.214-.538c1.406 0 1.607.538 3.214.538S19 17.771 19 15.619c-.03-.011-2.649-.434-2.679-3.23c-.02-2.335 2.589-3.179 2.679-3.228c-1.096-1.606-3.162-2.113-3.75-2.153c-1.535-.12-3.032 1.077-3.75 1.077c-.729 0-2.036-1.077-3.214-1.077M12 4a2 2 0 0 0 2-2a2 2 0 0 0-2 2"/></symbol><symbol id="hd-icon-tabler-brand-apple-arcade" viewBox="0 0 24 24"><g fill="none" stroke="currentColor" stroke-linecap="round" stroke-linejoin="round" stroke-width="2"><path d="M10 5a2 2 0 1 0 4 0a2 2 0 1 0-4 0m10 7.5v4.75a.7.7 0 0 1-.055.325a.7.7 0 0 1-.348.366l-5.462 2.58a5 5 0 0 1-4.27 0l-5.462-2.58a.705.705 0 0 1-.401-.691V12.5"/><path d="m4.431 12.216l5.634-2.332a5.07 5.07 0 0 1 3.87 0l5.634 2.332a.692.692 0 0 1 .028 1.269l-5.462 2.543a5.06 5.06 0 0 1-4.27 0l-5.462-2.543a.691.691 0 0 1 .028-1.27M12 7v6"/></g></symbol><symbol id="hd-icon-tabler-brand-apple-filled" viewBox="0 0 24 24"><path fill="currentColor" d="m15.079 5.999l.239.012c1.43.097 3.434 1.013 4.508 2.586a1 1 0 0 1-.344 1.44c-.05.028-.372.158-.497.217a4 4 0 0 0-.722.431c-.614.461-.948 1.009-.942 1.694c.01.885.339 1.454.907 1.846c.208.143.436.253.666.33c.126.043.426.116.444.122a1 1 0 0 1 .662.942C20 18.24 16.96 22 14.714 22c-.79 0-1.272-.091-1.983-.315l-.098-.031c-.463-.146-.702-.192-1.133-.192c-.52 0-.863.06-1.518.237l-.197.053c-.575.153-.964.226-1.5.248C5.536 22 3 16.907 3 12.928c0-3.87 1.786-6.92 5.286-6.92q.444.002.909.128c.403.107.774.26 1.296.508c.787.374.948.44 1.009.44h.016c.03-.003.128-.047 1.056-.457c1.061-.467 1.864-.685 2.746-.616l-.24-.012zM14 1a1 1 0 0 1 1 1a3 3 0 0 1-3 3a1 1 0 0 1-1-1a3 3 0 0 1 3-3"/></symbol><symbol id="hd-icon-tabler-brand-apple-news" viewBox="0 0 24 24"><path fill="none" stroke="currentColor" stroke-linecap="round" stroke-linejoin="round" stroke-width="2" d="m4 14l6 6H4zm16-4l-6-6h6zM4 4v4l12 12h4v-4L8 4z"/></symbol><symbol id="hd-icon-tabler-brand-apple-podcast" viewBox="0 0 24 24"><g fill="none" stroke="currentColor" stroke-linecap="round" stroke-linejoin="round" stroke-width="2"><path d="M18.364 18.364a9 9 0 1 0-12.728 0"/><path d="M11.766 22h.468a2 2 0 0 0 1.985-1.752l.5-4A2 2 0 0 0 12.734 14h-1.468a2 2 0 0 0-1.985 2.248l.5 4A2 2 0 0 0 11.766 22M10 9a2 2 0 1 0 4 0a2 2 0 1 0-4 0"/></g></symbol><symbol id="hd-icon-tabler-brand-appstore" viewBox="0 0 24 24"><path fill="none" stroke="currentColor" stroke-linecap="round" stroke-linejoin="round" stroke-width="2" d="M3 12a9 9 0 1 0 18 0a9 9 0 1 0-18 0m5 4l1.106-1.99m1.4-2.522L13 7m-6 7h5m2.9 0H17m-1 2l-2.51-4.518m-1.487-2.677l-1-1.805"/></symbol><symbol id="hd-icon-tabler-brand-arc" viewBox="0 0 24 24"><g fill="none" stroke="currentColor" stroke-linecap="round" stroke-linejoin="round" stroke-width="2"><path d="M4.687 14.694L3.7 16.797c-.502 1.07-.125 2.387.908 2.945c1.096.59 2.444.13 2.972-.995l.9-1.92m9.837-2.251c1.818-1.6 3.16-3.78 3.64-6.217c.235-1.194-.525-2.351-1.695-2.586a2.14 2.14 0 0 0-1.625.326c-.478.323-.81.826-.922 1.398c-.208 1.054-.695 2.037-1.366 2.872"/><path d="M12.68 12.759a5.4 5.4 0 0 1-1.283.157c-.336 0-.683-.04-1.03-.115c-1.44-.31-2.89-1.215-3.709-2.315a3.7 3.7 0 0 1-.487-.853A2.157 2.157 0 0 0 3.353 8.42c-1.107.455-1.641 1.736-1.196 2.86c.508 1.278 1.404 2.45 2.53 3.415a11.2 11.2 0 0 0 3.791 2.133c.953.31 1.942.483 2.916.483a9.8 9.8 0 0 0 3.162-.537"/><path d="m10.37 12.801l.943-2.013c.09-.19.357-.19.446 0l.923 1.97h.006h-.006l1.88 4.015l.923 1.971a2.16 2.16 0 0 0 1.957 1.254q.29 0 .576-.081c1.303-.365 1.92-1.887 1.339-3.129l-1.04-2.218l-1.968-4.204l-.003.003l.003-.003l-2.862-6.112A2.16 2.16 0 0 0 11.533 3C10.7 3 9.94 3.488 9.58 4.254l-2.92 6.232"/></g></symbol><symbol id="hd-icon-tabler-brand-asana" viewBox="0 0 24 24"><path fill="none" stroke="currentColor" stroke-linecap="round" stroke-linejoin="round" stroke-width="2" d="M9 7a3 3 0 1 0 6 0a3 3 0 1 0-6 0m5 9a3 3 0 1 0 6 0a3 3 0 1 0-6 0M4 16a3 3 0 1 0 6 0a3 3 0 1 0-6 0"/></symbol><symbol id="hd-icon-tabler-brand-astro" viewBox="0 0 24 24"><path fill="none" stroke="currentColor" stroke-linecap="round" stroke-linejoin="round" stroke-width="2" d="M14.972 3.483c.163.196.247.46.413.987L19.025 16a15.5 15.5 0 0 0-4.352-1.42l-2.37-7.723a.31.31 0 0 0-.296-.213a.31.31 0 0 0-.295.214L9.37 14.576A15.5 15.5 0 0 0 5 15.998l3.657-11.53c.168-.527.251-.79.415-.986c.144-.172.331-.306.544-.388C9.858 3 10.143 3 10.715 3h2.612c.572 0 .858 0 1.1.094c.213.082.4.217.545.39M9 18c0 1.5 2 3 3 4c1-1 3-3 3-4q-3 1.5-6 0"/></symbol><symbol id="hd-icon-tabler-brand-auth0" viewBox="0 0 24 24"><g fill="none" stroke="currentColor" stroke-linecap="round" stroke-linejoin="round" stroke-width="2"><path d="M12 14.5L6.5 18l2-6L4 8h6l2-5l2 5h6l-4.5 4l2 6z"/><path d="M20.507 8.872L18.497 3H5.503L3.494 8.872c-1.242 3.593-.135 7.094 3.249 9.407L12 22l5.257-3.721c3.385-2.313 4.49-5.814 3.25-9.407"/></g></symbol><symbol id="hd-icon-tabler-brand-aws" viewBox="0 0 24 24"><path fill="none" stroke="currentColor" stroke-linecap="round" stroke-linejoin="round" stroke-width="2" d="M17 18.5a15.2 15.2 0 0 1-7.37 1.44A14.6 14.6 0 0 1 3 17m16.5 4c.907-1.411 1.451-3.323 1.5-5c-1.197-.773-2.577-.935-4-1M3 11V6.5a1.5 1.5 0 0 1 3 0V11M3 9h3m3-4l1.2 6L12 7l1.8 4L15 5m3 5.25c0 .414.336.75.75.75H20a1 1 0 0 0 1-1V9a1 1 0 0 0-1-1h-1a1 1 0 0 1-1-1V6a1 1 0 0 1 1-1h1.25a.75.75 0 0 1 .75.75"/></symbol><symbol id="hd-icon-tabler-brand-azure" viewBox="0 0 24 24"><path fill="none" stroke="currentColor" stroke-linecap="round" stroke-linejoin="round" stroke-width="2" d="M6 7.5L2 17h4l6-15zM22 20L15 5l-3 7l4 5l-8 3z"/></symbol><symbol id="hd-icon-tabler-brand-backbone" viewBox="0 0 24 24"><g fill="none" stroke="currentColor" stroke-linecap="round" stroke-linejoin="round" stroke-width="2"><path d="m5 20l14-8L5 4z"/><path d="M19 20L5 12l14-8z"/></g></symbol><symbol id="hd-icon-tabler-brand-badoo" viewBox="0 0 24 24"><g fill="none" stroke="currentColor" stroke-linecap="round" stroke-linejoin="round" stroke-width="2"><path d="M22 9.43C22 15.268 17.523 20 12 20S2 15.338 2 9.5c0-2.667 1.83-5.01 4.322-5.429C8.814 3.653 11.222 5.463 12 8c.768-2.54 3.177-4.354 5.668-3.931C20.163 4.486 22 6.759 22 9.429"/><path d="M7.5 10c0 2.761 2.015 5 4.5 5s4.5-2.239 4.5-5"/></g></symbol><symbol id="hd-icon-tabler-brand-baidu" viewBox="0 0 24 24"><path fill="none" stroke="currentColor" stroke-linecap="round" stroke-linejoin="round" stroke-width="2" d="M4 9.5a1 1.5 0 1 0 2 0a1 1.5 0 1 0-2 0m10.463 2.096c1.282 1.774 3.476 3.416 3.476 3.416s1.921 1.574.593 3.636S13.64 19.8 13.64 19.8s-1.416-.44-3.06-.088c-1.644.356-3.06.22-3.06.22s-2.055-.22-2.47-2.304s1.918-3.638 2.102-3.858c.182-.222 1.409-.966 2.284-2.394s3.337-2.287 5.027.221M8 4.5a1 1.5 0 1 0 2 0a1 1.5 0 1 0-2 0m6 0a1 1.5 0 1 0 2 0a1 1.5 0 1 0-2 0m4 5a1 1.5 0 1 0 2 0a1 1.5 0 1 0-2 0"/></symbol><symbol id="hd-icon-tabler-brand-bandcamp" viewBox="0 0 24 24"><path fill="none" stroke="currentColor" stroke-linecap="round" stroke-linejoin="round" stroke-width="2" d="M8.5 6H22l-7 12H2z"/></symbol><symbol id="hd-icon-tabler-brand-bandlab" viewBox="0 0 24 24"><g fill="none" stroke="currentColor" stroke-linecap="round" stroke-linejoin="round" stroke-width="2"><path d="m6.885 7l-2.536 4.907C2.328 15.752 1.85 20.682 8.17 21h6.808c4.86-.207 7.989-2.975 4.607-9.093L16.597 7"/><path d="M15.078 4H9.942l3.678 8.768c.547 1.14.847 1.822.162 2.676c-.053.093-1.332 1.907-3.053 1.495c-.825-.187-1.384-.926-1.32-1.74c.04-.91.62-1.717 1.488-2.074a4.46 4.46 0 0 1 2.723-.358"/></g></symbol><symbol id="hd-icon-tabler-brand-beats" viewBox="0 0 24 24"><g fill="none" stroke="currentColor" stroke-linecap="round" stroke-linejoin="round" stroke-width="2"><path d="M3 12a9 9 0 1 0 18 0a9 9 0 1 0-18 0"/><path d="M9 12.5a3.5 3.5 0 1 0 7 0a3.5 3.5 0 1 0-7 0m0-.5V4"/></g></symbol><symbol id="hd-icon-tabler-brand-bebo" viewBox="0 0 24 24"><path fill="none" stroke="currentColor" stroke-linecap="round" stroke-linejoin="round" stroke-width="2" d="M12 17.5a3.5 3.5 0 0 0 3.5-3.5c0-1.838-1.159-3.002-3.005-3.372c-.746-.15-1.37-.745-1.37-1.506c0-1.142.934-2.095 2.058-1.894C16.793 7.873 19 10.286 19 14a7 7 0 1 1-14 0V4.75a1.75 1.75 0 1 1 3.5 0V14a3.5 3.5 0 0 0 3.5 3.5"/></symbol><symbol id="hd-icon-tabler-brand-behance" viewBox="0 0 24 24"><path fill="none" stroke="currentColor" stroke-linecap="round" stroke-linejoin="round" stroke-width="2" d="M3 18V6h4.5a3 3 0 0 1 0 6a3 3 0 0 1 0 6zm0-6h4.5m6.5 1h7a3.5 3.5 0 0 0-7 0v2a3.5 3.5 0 0 0 6.64 1M16 6h3"/></symbol><symbol id="hd-icon-tabler-brand-bilibili" viewBox="0 0 24 24"><path fill="none" stroke="currentColor" stroke-linecap="round" stroke-linejoin="round" stroke-width="2" d="M3 10a4 4 0 0 1 4-4h10a4 4 0 0 1 4 4v6a4 4 0 0 1-4 4H7a4 4 0 0 1-4-4zm5-7l2 3m6-3l-2 3m-5 7v-2m6 0v2"/></symbol><symbol id="hd-icon-tabler-brand-binance" viewBox="0 0 24 24"><path fill="none" stroke="currentColor" stroke-linecap="round" stroke-linejoin="round" stroke-width="2" d="m6 8l2 2l4-4l4 4l2-2l-6-6zm0 8l2-2l4 4l3.5-3.5l2 2L12 22zm14-6l2 2l-2 2l-2-2zM4 10l2 2l-2 2l-2-2zm8 0l2 2l-2 2l-2-2z"/></symbol><symbol id="hd-icon-tabler-brand-bing" viewBox="0 0 24 24"><path fill="none" stroke="currentColor" stroke-linecap="round" stroke-linejoin="round" stroke-width="2" d="m5 3l4 1.5v12l6-2.5l-2-1l-1-4l7 2.5V16L9 21l-4-2z"/></symbol><symbol id="hd-icon-tabler-brand-bitbucket" viewBox="0 0 24 24"><g fill="none" stroke="currentColor" stroke-linecap="round" stroke-linejoin="round" stroke-width="2"><path d="M3.648 4a.64.64 0 0 0-.64.744l3.14 14.528c.07.417.43.724.852.728h10a.644.644 0 0 0 .642-.539l3.35-14.71a.64.64 0 0 0-.64-.744z"/><path d="M14 15h-4L9 9h6z"/></g></symbol><symbol id="hd-icon-tabler-brand-bitbucket-filled" viewBox="0 0 24 24"><path fill="currentColor" d="m3.661 3l16.68.007c.484-.005.946.203 1.262.57c.316.368.454.856.364 1.396l-3.338 14.651A1.64 1.64 0 0 1 17 21H6.99c-.906-.009-1.678-.668-1.82-1.517L2.022 4.907A1.64 1.64 0 0 1 3.661 3M15 8H9a1 1 0 0 0-.986 1.164l1 6A1 1 0 0 0 10 16h4a1 1 0 0 0 .986-.836l1-6A1 1 0 0 0 15 8"/></symbol><symbol id="hd-icon-tabler-brand-blackberry" viewBox="0 0 24 24"><path fill="none" stroke="currentColor" stroke-linecap="round" stroke-linejoin="round" stroke-width="2" d="M7 6a1 1 0 0 0-1-1H4l-.5 2H6a1 1 0 0 0 1-1m-1 6a1 1 0 0 0-1-1H3l-.5 2H5a1 1 0 0 0 1-1m7 0a1 1 0 0 0-1-1h-2l-.5 2H12a1 1 0 0 0 1-1m1-6a1 1 0 0 0-1-1h-2l-.5 2H13a1 1 0 0 0 1-1m-2 12a1 1 0 0 0-1-1H9l-.5 2H11a1 1 0 0 0 1-1m8-3a1 1 0 0 0-1-1h-2l-.5 2H19a1 1 0 0 0 1-1m1-6a1 1 0 0 0-1-1h-2l-.5 2H20a1 1 0 0 0 1-1"/></symbol><symbol id="hd-icon-tabler-brand-blender" viewBox="0 0 24 24"><g fill="none" stroke="currentColor" stroke-linecap="round" stroke-linejoin="round" stroke-width="2"><path d="M9 14a6 5 0 1 0 12 0a6 5 0 1 0-12 0"/><path d="M14 14a1 1 0 1 0 2 0a1 1 0 1 0-2 0M3 16l9-6.5M6 9h9m-2-4l5.65 5"/></g></symbol><symbol id="hd-icon-tabler-brand-blogger" viewBox="0 0 24 24"><g fill="none" stroke="currentColor" stroke-linecap="round" stroke-linejoin="round" stroke-width="2"><path d="M8 21h8a5 5 0 0 0 5-5v-3a3 3 0 0 0-3-3h-1V8a5 5 0 0 0-5-5H8a5 5 0 0 0-5 5v8a5 5 0 0 0 5 5"/><path d="M7 8.5A1.5 1.5 0 0 1 8.5 7h3A1.5 1.5 0 0 1 13 8.5a1.5 1.5 0 0 1-1.5 1.5h-3A1.5 1.5 0 0 1 7 8.5m0 7A1.5 1.5 0 0 1 8.5 14h7a1.5 1.5 0 0 1 1.5 1.5a1.5 1.5 0 0 1-1.5 1.5h-7A1.5 1.5 0 0 1 7 15.5"/></g></symbol><symbol id="hd-icon-tabler-brand-bluesky" viewBox="0 0 24 24"><path fill="none" stroke="currentColor" stroke-linecap="round" stroke-linejoin="round" stroke-width="2" d="M6.335 5.144C4.681 3.945 2 3.017 2 5.97c0 .59.35 4.953.556 5.661C3.269 14.094 5.686 14.381 8 14c-4.045.665-4.889 3.208-2.667 5.41C6.363 20.428 7.246 21 8 21c2 0 3.134-2.769 3.5-3.5q.5-1 .5-1.5q0 .5.5 1.5c.366.731 1.5 3.5 3.5 3.5c.754 0 1.637-.571 2.667-1.59C20.889 17.207 20.045 14.664 16 14c2.314.38 4.73.094 5.444-2.369c.206-.708.556-5.072.556-5.661c0-2.953-2.68-2.025-4.335-.826C15.372 6.806 12.905 10.192 12 12c-.905-1.808-3.372-5.194-5.665-6.856"/></symbol><symbol id="hd-icon-tabler-brand-booking" viewBox="0 0 24 24"><g fill="none" stroke="currentColor" stroke-linecap="round" stroke-linejoin="round" stroke-width="2"><path d="M4 18V8.5A4.5 4.5 0 0 1 8.5 4h7A4.5 4.5 0 0 1 20 8.5v7a4.5 4.5 0 0 1-4.5 4.5H6a2 2 0 0 1-2-2"/><path d="M8 12h3.5a2 2 0 1 1 0 4H8V9a1 1 0 0 1 1-1h1.5a2 2 0 1 1 0 4H9m7 4h.01"/></g></symbol><symbol id="hd-icon-tabler-brand-bootstrap" viewBox="0 0 24 24"><g fill="none" stroke="currentColor" stroke-linecap="round" stroke-linejoin="round" stroke-width="2"><path d="M2 12a2 2 0 0 0 2-2V6a2 2 0 0 1 2-2h12a2 2 0 0 1 2 2v4a2 2 0 0 0 2 2M2 12a2 2 0 0 1 2 2v4a2 2 0 0 0 2 2h12a2 2 0 0 0 2-2v-4a2 2 0 0 1 2-2"/><path d="M9 16V8h3.5a2 2 0 1 1 0 4H9h4a2 2 0 1 1 0 4z"/></g></symbol><symbol id="hd-icon-tabler-brand-bulma" viewBox="0 0 24 24"><path fill="none" stroke="currentColor" stroke-linecap="round" stroke-linejoin="round" stroke-width="2" d="m5 16l1-9l5-5l6.5 6l-3.5 4l5 5l-8 5z"/></symbol><symbol id="hd-icon-tabler-brand-bumble" viewBox="0 0 24 24"><path fill="none" stroke="currentColor" stroke-linecap="round" stroke-linejoin="round" stroke-width="2" d="M7 12h10M9 8h6m-5 8h4m2.268-13H7.732a1.46 1.46 0 0 0-1.268.748l-4.268 7.509a1.51 1.51 0 0 0 0 1.486l4.268 7.509c.26.462.744.747 1.268.748h8.536a1.46 1.46 0 0 0 1.268-.748l4.268-7.509a1.51 1.51 0 0 0 0-1.486l-4.268-7.509A1.46 1.46 0 0 0 16.268 3"/></symbol><symbol id="hd-icon-tabler-brand-bunpo" viewBox="0 0 24 24"><path fill="none" stroke="currentColor" stroke-linecap="round" stroke-linejoin="round" stroke-width="2" d="M3.9 7.205a17.8 17.8 0 0 0 4.008 2.753a7.9 7.9 0 0 0 4.57.567c1.5-.33 2.907-1 4.121-1.956a12.1 12.1 0 0 0 2.892-2.903c.603-.94.745-1.766.484-2.231s-.927-.568-1.72-.257a7.6 7.6 0 0 0-2.608 2.034a18.4 18.4 0 0 0-2.588 3.884a35 35 0 0 0-2.093 5.073a13 13 0 0 0-.677 3.515c-.07.752.07 1.51.405 2.184c.323.562 1.06 1.132 2.343 1.132c3.474 0 5.093-3.53 5.463-5.62c.24-1.365-.085-3.197-1.182-4.01"/></symbol><symbol id="hd-icon-tabler-brand-c-sharp" viewBox="0 0 24 24"><path fill="none" stroke="currentColor" stroke-linecap="round" stroke-linejoin="round" stroke-width="2" d="M10 9a3 3 0 0 0-3-3h-.5A3.5 3.5 0 0 0 3 9.5v5A3.5 3.5 0 0 0 6.5 18H7a3 3 0 0 0 3-3m6-8l-1 10m5-10l-1 10m-5-7h7.5m-.5 4h-7.5"/></symbol><symbol id="hd-icon-tabler-brand-cake" viewBox="0 0 24 24"><path fill="none" stroke="currentColor" stroke-linecap="round" stroke-linejoin="round" stroke-width="2" d="M20.84 12c0 2.05.985 3.225-.04 5c-1.026 1.775-2.537 1.51-4.314 2.534C14.71 20.56 14.184 22 12.133 22s-2.576-1.441-4.353-2.466C6.004 18.51 4.492 18.775 3.466 17c-1.025-1.775-.04-2.95-.04-5s-.985-3.225.04-5C4.492 5.225 6.003 5.49 7.78 4.466C9.556 3.44 10.082 2 12.133 2s2.577 1.441 4.353 2.466c1.776 1.024 3.288.759 4.313 2.534c1.026 1.775.04 2.95.04 5z"/></symbol><symbol id="hd-icon-tabler-brand-cakephp" viewBox="0 0 24 24"><path fill="none" stroke="currentColor" stroke-linecap="round" stroke-linejoin="round" stroke-width="2" d="m12 11l8 2c1.361-.545 2-1.248 2-2V7.2C22 5.435 17.521 4 11.998 4C6.476 4 2 5.435 2 7.2V10c0 1.766 4.478 4 10 4zm0 3v3l8 2c1.362-.547 2-1.246 2-2v-3c0 .754-.638 1.453-2 2zM2 17c0 1.766 4.476 3 9.998 3L12 17c-5.522 0-10-1.734-10-3.5zm0-7v4m20-4v4"/></symbol><symbol id="hd-icon-tabler-brand-campaignmonitor" viewBox="0 0 24 24"><path fill="none" stroke="currentColor" stroke-linecap="round" stroke-linejoin="round" stroke-width="2" d="m3 18l9-6.462L3 6zh18V6l-9 5.538"/></symbol><symbol id="hd-icon-tabler-brand-carbon" viewBox="0 0 24 24"><g fill="none" stroke="currentColor" stroke-linecap="round" stroke-linejoin="round" stroke-width="2"><path d="M14 10v-.2A1.8 1.8 0 0 0 12.2 8h-.4A1.8 1.8 0 0 0 10 9.8v4.4a1.8 1.8 0 0 0 1.8 1.8h.4a1.8 1.8 0 0 0 1.8-1.8V14"/><path d="M3 6a3 3 0 0 1 3-3h12a3 3 0 0 1 3 3v12a3 3 0 0 1-3 3H6a3 3 0 0 1-3-3z"/></g></symbol><symbol id="hd-icon-tabler-brand-cashapp" viewBox="0 0 24 24"><path fill="none" stroke="currentColor" stroke-linecap="round" stroke-linejoin="round" stroke-width="2" d="M17.1 8.648a.57.57 0 0 1-.761.011a5.68 5.68 0 0 0-3.659-1.34c-1.102 0-2.205.363-2.205 1.374c0 1.023 1.182 1.364 2.546 1.875c2.386.796 4.363 1.796 4.363 4.137c0 2.545-1.977 4.295-5.204 4.488l-.295 1.364a.56.56 0 0 1-.546.443H9.305l-.102-.011a.57.57 0 0 1-.432-.67l.318-1.444a7.4 7.4 0 0 1-3.273-1.784v-.011a.545.545 0 0 1 0-.773l1.137-1.102c.214-.2.547-.2.761 0a5.5 5.5 0 0 0 3.852 1.5c1.478 0 2.466-.625 2.466-1.614s-1-1.25-2.886-1.954c-2-.716-3.898-1.728-3.898-4.091c0-2.75 2.284-4.091 4.989-4.216l.284-1.398A.545.545 0 0 1 13.066 3h2.023l.114.012a.544.544 0 0 1 .42.647l-.307 1.557a8.5 8.5 0 0 1 2.818 1.58l.023.022c.216.228.216.569 0 .773z"/></symbol><symbol id="hd-icon-tabler-brand-chrome" viewBox="0 0 24 24"><g fill="none" stroke="currentColor" stroke-linecap="round" stroke-linejoin="round" stroke-width="2"><path d="M3 12a9 9 0 1 0 18 0a9 9 0 1 0-18 0"/><path d="M9 12a3 3 0 1 0 6 0a3 3 0 1 0-6 0m3-3h8.4m-5.802 4.5l-4.2 7.275M9.402 13.5l-4.2-7.275"/></g></symbol><symbol id="hd-icon-tabler-brand-cinema-4d" viewBox="0 0 24 24"><g fill="none" stroke="currentColor" stroke-linecap="round" stroke-linejoin="round" stroke-width="2"><path d="M9.65 6.956a5.39 5.39 0 0 0 7.494 7.495"/><path d="M3 12a9 9 0 1 0 18 0a9 9 0 1 0-18 0"/><path d="M17.7 12.137A5.738 5.738 0 1 1 11.963 6.4"/><path d="M17.7 12.338v-1.175c0-.47.171-.92.476-1.253a1.56 1.56 0 0 1 1.149-.52c.827 0 1.523.676 1.62 1.573Q21 11.479 21 12m-9.338-5.6h1.175c.47 0 .92-.176 1.253-.49s.52-.74.52-1.184c0-.852-.676-1.57-1.573-1.67A10 10 0 0 0 12 3"/></g></symbol><symbol id="hd-icon-tabler-brand-citymapper" viewBox="0 0 24 24"><path fill="none" stroke="currentColor" stroke-linecap="round" stroke-linejoin="round" stroke-width="2" d="M3 11a1 1 0 1 1-1 1.013a1 1 0 0 1 1-1zm18 0a1 1 0 1 1-1 1.013a1 1 0 0 1 1-1zM8 12h8m-3-3l3 3l-3 3"/></symbol><symbol id="hd-icon-tabler-brand-cloudflare" viewBox="0 0 24 24"><path fill="none" stroke="currentColor" stroke-linecap="round" stroke-linejoin="round" stroke-width="2" d="M13.031 7.007C15.5 7 16.326 8.3 17 10c4 0 4.994 3.825 5 6H2c-.001-1.64 1.36-2.954 3-3c0-1.5 1-3 3-3c.66-1.942 2.562-2.986 5.031-2.993M12 13h6m-1-3l-2.5 6"/></symbol><symbol id="hd-icon-tabler-brand-codecov" viewBox="0 0 24 24"><path fill="none" stroke="currentColor" stroke-linecap="round" stroke-linejoin="round" stroke-width="2" d="M9.695 12.985A5.97 5.97 0 0 0 6.4 12c-1.257 0-2.436.339-3.4 1a9 9 0 1 1 18 0c-.966-.664-2.14-1-3.4-1a6 6 0 0 0-5.605 8.144"/></symbol><symbol id="hd-icon-tabler-brand-codepen" viewBox="0 0 24 24"><g fill="none" stroke="currentColor" stroke-linecap="round" stroke-linejoin="round" stroke-width="2"><path d="m3 15l9 6l9-6l-9-6z"/><path d="m3 9l9 6l9-6l-9-6zm0 0v6m18-6v6M12 3v6m0 6v6"/></g></symbol><symbol id="hd-icon-tabler-brand-codesandbox" viewBox="0 0 24 24"><g fill="none" stroke="currentColor" stroke-linecap="round" stroke-linejoin="round" stroke-width="2"><path d="M20 7.5v9l-4 2.25L12 21l-4-2.25l-4-2.25v-9l4-2.25L12 3l4 2.25zM12 12l4-2.25l4-2.25M12 12v9m0-9L8 9.75L4 7.5"/><path d="m20 12l-4 2v4.75M4 12l4 2v4.75m0-13.5l4 2.25l4-2.25"/></g></symbol><symbol id="hd-icon-tabler-brand-cohost" viewBox="0 0 24 24"><g fill="none" stroke="currentColor" stroke-linecap="round" stroke-linejoin="round" stroke-width="2"><path d="M14 14a3 2 0 1 0 6 0a3 2 0 1 0-6 0"/><path d="M4.526 17.666q-1.7-1.158-2.291-3.456q-.596-2.31.32-4.19q.915-1.883 2.938-3.254q2.021-1.371 4.749-2.132q2.715-.756 5.12-.61q2.412.15 4.112 1.31c1.7 1.16 1.897 1.924 2.291 3.456q.596 2.311-.32 4.192q-.916 1.88-2.938 3.252q-2.021 1.372-4.749 2.133q-2.715.755-5.12.61q-2.412-.153-4.112-1.31"/><path d="M11 12.508C10.47 12.192 9.77 12 9 12c-1.657 0-3 .895-3 2s1.343 2 3 2c.767 0 1.467-.192 2-.508"/></g></symbol><symbol id="hd-icon-tabler-brand-coinbase" viewBox="0 0 24 24"><path fill="none" stroke="currentColor" stroke-linecap="round" stroke-linejoin="round" stroke-width="2" d="M12.95 22c-4.503 0-8.445-3.04-9.61-7.413s.737-8.988 4.638-11.25a9.906 9.906 0 0 1 12.008 1.598l-3.335 3.367a5.185 5.185 0 0 0-7.354.013a5.25 5.25 0 0 0 0 7.393a5.185 5.185 0 0 0 7.354.013L20 19.088A9.9 9.9 0 0 1 12.95 22"/></symbol><symbol id="hd-icon-tabler-brand-comedy-central" viewBox="0 0 24 24"><g fill="none" stroke="currentColor" stroke-linecap="round" stroke-linejoin="round" stroke-width="2"><path d="M5.343 17.657a8 8 0 1 0 0-11.314"/><path d="M13.828 9.172a4 4 0 1 0 0 5.656"/></g></symbol><symbol id="hd-icon-tabler-brand-coreos" viewBox="0 0 24 24"><g fill="none" stroke="currentColor" stroke-linecap="round" stroke-linejoin="round" stroke-width="2"><path d="M21 12a9 9 0 1 1-18 0a9 9 0 0 1 18 0"/><path d="M12 3c-3.263 3.212-3 7.654-3 12c4.59.244 8.814-.282 12-3"/><path d="M9.5 9a4.494 4.494 0 0 1 5.5 5.5"/></g></symbol><symbol id="hd-icon-tabler-brand-couchdb" viewBox="0 0 24 24"><path fill="none" stroke="currentColor" stroke-linecap="round" stroke-linejoin="round" stroke-width="2" d="M6 12h12v-2a2 2 0 0 1 2-2a2 2 0 0 0-2-2H6a2 2 0 0 0-2 2a2 2 0 0 1 2 2zm0 3h12M6 18h12m3-7v7M3 11v7"/></symbol><symbol id="hd-icon-tabler-brand-couchsurfing" viewBox="0 0 24 24"><g fill="none" stroke="currentColor" stroke-linecap="round" stroke-linejoin="round" stroke-width="2"><path d="M3.1 13q4.9 0 7.9-.5c3-.5 4-2 4-3.5a3 3 0 1 0-6 0c0 1.554 1.807 3 3 4s2 2.5 2 3.5a1.5 1.5 0 1 1-3 0c0-2 4-3.5 7-3.5h2.9"/><path d="M3 12a9 9 0 1 0 18 0a9 9 0 1 0-18 0"/></g></symbol><symbol id="hd-icon-tabler-brand-cpp" viewBox="0 0 24 24"><path fill="none" stroke="currentColor" stroke-linecap="round" stroke-linejoin="round" stroke-width="2" d="M18 12h4m-2-2v4m-9-2h4m-2-2v4M9 9a3 3 0 0 0-3-3h-.5A3.5 3.5 0 0 0 2 9.5v5A3.5 3.5 0 0 0 5.5 18H6a3 3 0 0 0 3-3"/></symbol><symbol id="hd-icon-tabler-brand-craft" viewBox="0 0 24 24"><path fill="none" stroke="currentColor" stroke-linecap="round" stroke-linejoin="round" stroke-width="2" d="M20 4h-8a8 8 0 1 0 0 16h8a8 8 0 0 0-8-8a8 8 0 0 0 8-8M4 12h8m0-8v16"/></symbol><symbol id="hd-icon-tabler-brand-crunchbase" viewBox="0 0 24 24"><g fill="none" stroke="currentColor" stroke-linecap="round" stroke-linejoin="round" stroke-width="2"><path d="M3 19V5a2 2 0 0 1 2-2h14a2 2 0 0 1 2 2v14a2 2 0 0 1-2 2H5a2 2 0 0 1-2-2"/><path d="M10.414 11.586a2 2 0 1 0 0 2.828M13 13a2 2 0 1 0 4 0a2 2 0 1 0-4 0m0-6v6"/></g></symbol><symbol id="hd-icon-tabler-brand-css3" viewBox="0 0 24 24"><g fill="none" stroke="currentColor" stroke-linecap="round" stroke-linejoin="round" stroke-width="2"><path d="m20 4l-2 14.5l-6 2l-6-2L4 4z"/><path d="M8.5 8h7L11 12h4l-.5 3.5l-2.5.75l-2.5-.75l-.1-.5"/></g></symbol><symbol id="hd-icon-tabler-brand-ctemplar" viewBox="0 0 24 24"><g fill="none" stroke="currentColor" stroke-linecap="round" stroke-linejoin="round" stroke-width="2"><path d="M6.04 14.831L10.5 10.5m2.055 10.32c4.55-3.456 7.582-8.639 8.426-14.405a1.67 1.67 0 0 0-.934-1.767A19.65 19.65 0 0 0 12 3a19.65 19.65 0 0 0-8.047 1.647a1.67 1.67 0 0 0-.934 1.767c.844 5.766 3.875 10.95 8.426 14.406a.95.95 0 0 0 1.11 0"/><path d="M20 5c-2 0-4.37 3.304-8 6.644C8.37 8.304 6 5 4 5m13.738 10L13.5 10.5"/></g></symbol><symbol id="hd-icon-tabler-brand-cucumber" viewBox="0 0 24 24"><path fill="none" stroke="currentColor" stroke-linecap="round" stroke-linejoin="round" stroke-width="2" d="M20 10.99c-.01 5.52-4.48 10-10 10.01v-2.26l-.01-.01c-4.28-1.11-6.86-5.47-5.76-9.75a8 8 0 0 1 9.74-5.76C17.5 4.13 20 7.35 20 11zM10.5 8L10 7m3.5 7l.5 1m-5-2.5L8 13m3 1l-.5 1M13 8l.5-1m2.5 5.5l-1-.5m-6-2l-1-.5"/></symbol><symbol id="hd-icon-tabler-brand-cupra" viewBox="0 0 24 24"><g fill="none" stroke="currentColor" stroke-linecap="round" stroke-linejoin="round" stroke-width="2"><path d="M4.5 10L2 6l15.298 6.909a.2.2 0 0 1 .09.283L14 19"/><path d="m10 19l-3.388-5.808a.2.2 0 0 1 .09-.283L22 6l-2.5 4"/></g></symbol><symbol id="hd-icon-tabler-brand-cypress" viewBox="0 0 24 24"><g fill="none" stroke="currentColor" stroke-linecap="round" stroke-linejoin="round" stroke-width="2"><path d="M19.48 17.007A9 9 0 1 0 12 21a2.08 2.08 0 0 0 1.974-1.423L17.5 9m-4 0l2 6"/><path d="M10.764 9.411a3 3 0 1 0-.023 5.19"/></g></symbol><symbol id="hd-icon-tabler-brand-d3" viewBox="0 0 24 24"><path fill="none" stroke="currentColor" stroke-linecap="round" stroke-linejoin="round" stroke-width="2" d="M3 4h1.8C8.776 4 12 7.582 12 12s-3.224 8-7.2 8H3m9-16h5.472C19.42 4 21 5.79 21 8s-1.58 4-3.528 4m0 0H15m2.472 0H15.12m2.352 0C19.42 12 21 13.79 21 16s-1.58 4-3.528 4H12"/></symbol><symbol id="hd-icon-tabler-brand-databricks" viewBox="0 0 24 24"><path fill="none" stroke="currentColor" stroke-linecap="round" stroke-linejoin="round" stroke-width="2" d="m3 17l9 5l9-5v-3l-9 5l-9-5v-3l9 5l9-5V8l-9 5l-9-5l9-5l5.418 3.01"/></symbol><symbol id="hd-icon-tabler-brand-days-counter" viewBox="0 0 24 24"><g fill="none" stroke="currentColor" stroke-linecap="round" stroke-linejoin="round" stroke-width="2"><path d="M20.779 10.007a9 9 0 1 0-10.77 10.772M13 21h8v-7"/><path d="M12 8v4l3 3"/></g></symbol><symbol id="hd-icon-tabler-brand-dcos" viewBox="0 0 24 24"><path fill="none" stroke="currentColor" stroke-linecap="round" stroke-linejoin="round" stroke-width="2" d="M3 18L21 6H3l9 14l9-14v10L3 6z"/></symbol><symbol id="hd-icon-tabler-brand-debian" viewBox="0 0 24 24"><g fill="none" stroke="currentColor" stroke-linecap="round" stroke-linejoin="round" stroke-width="2"><path d="M12 17c-2.397-.943-4-3.153-4-5.635c0-2.19 1.039-3.14 1.604-3.595C12.25 5.637 16 7.5 16 11c0 2.5-2.905 2.121-3.5 1.5s-1-1.5-.5-2.5"/><path d="M3 12a9 9 0 1 0 18 0a9 9 0 1 0-18 0"/></g></symbol><symbol id="hd-icon-tabler-brand-deezer" viewBox="0 0 24 24"><path fill="none" stroke="currentColor" stroke-linecap="round" stroke-linejoin="round" stroke-width="2" d="M3 16.5h2v.5H3zm5 0h2.5v.5H8zm8 .5h-2.5v-.5H16zm5.5 0H19v-.5h2.5zm0-4H19v.5h2.5zm0-3.5H19v.5h2.5zm0-3.5H19v.5h2.5zM16 13h-2.5v.5H16zm-8 .5h2.5V13H8zm0-4h2.5v.5H8z"/></symbol><symbol id="hd-icon-tabler-brand-deliveroo" viewBox="0 0 24 24"><g fill="none" stroke="currentColor" stroke-linecap="round" stroke-linejoin="round" stroke-width="2"><path d="m15 11l1-9l5 .5L20 16l-3 6l-12.5-2.5l-1.5-6l7-1.5l-1.5-7.5l4.5-1z"/><path fill="currentColor" d="M14.5 15.5a1 1 0 1 0 2 0a1 1 0 1 0-2 0m-4-1a1 1 0 1 0 2 0a1 1 0 1 0-2 0"/></g></symbol><symbol id="hd-icon-tabler-brand-deno" viewBox="0 0 24 24"><g fill="none" stroke="currentColor" stroke-linecap="round" stroke-linejoin="round" stroke-width="2"><path d="M3 12a9 9 0 1 0 18 0a9 9 0 1 0-18 0"/><path d="M13.47 20.882L12 15c-2.649-.088-5-1.624-5-3.5C7 9.567 9.239 8 12 8s4 1 5 3q.036.072 2 6.5M12 11h.01"/></g></symbol><symbol id="hd-icon-tabler-brand-denodo" viewBox="0 0 24 24"><path fill="none" stroke="currentColor" stroke-linecap="round" stroke-linejoin="round" stroke-width="2" d="M11 11h2v2h-2zm-7.366 4.634l1.732-1l1 1.732l-1.732 1zM11 19h2v2h-2zm7.634-4.366l1.732 1l-1 1.732l-1.732-1zm-1-7l1.732-1l1 1.732l-1.732 1zM11 3h2v2h-2zM3.634 8.366l1-1.732l1.732 1l-1 1.732z"/></symbol><symbol id="hd-icon-tabler-brand-deviantart" viewBox="0 0 24 24"><path fill="none" stroke="currentColor" stroke-linecap="round" stroke-linejoin="round" stroke-width="2" d="M18 3v4l-3.857 6H18v4h-6.429L9 21H6v-4l3.857-6H6V7h6.429L15 3z"/></symbol><symbol id="hd-icon-tabler-brand-digg" viewBox="0 0 24 24"><g fill="none" stroke="currentColor" stroke-linecap="round" stroke-linejoin="round" stroke-width="2"><path d="M6 15H3v-4h3m9 4h-3v-4h3m-6 4v-4"/><path d="M15 11v7h-3M6 7v8m15 0h-3v-4h3"/><path d="M21 11v7h-3"/></g></symbol><symbol id="hd-icon-tabler-brand-dingtalk" viewBox="0 0 24 24"><g fill="none" stroke="currentColor" stroke-linecap="round" stroke-linejoin="round" stroke-width="2"><path d="M21 12a9 9 0 1 1-18 0a9 9 0 0 1 18 0"/><path d="m8 7.5l7.02 2.632a1 1 0 0 1 .567 1.33L14.5 14H16l-5 4l1-4c-3.1.03-3.114-3.139-4-6.5"/></g></symbol><symbol id="hd-icon-tabler-brand-discord" viewBox="0 0 24 24"><g fill="none" stroke="currentColor" stroke-linecap="round" stroke-linejoin="round" stroke-width="2"><path d="M8 12a1 1 0 1 0 2 0a1 1 0 0 0-2 0m6 0a1 1 0 1 0 2 0a1 1 0 0 0-2 0"/><path d="M15.5 17c0 1 1.5 3 2 3c1.5 0 2.833-1.667 3.5-3c.667-1.667.5-5.833-1.5-11.5c-1.457-1.015-3-1.34-4.5-1.5l-.972 1.923a11.9 11.9 0 0 0-4.053 0L9 4c-1.5.16-3.043.485-4.5 1.5c-2 5.667-2.167 9.833-1.5 11.5c.667 1.333 2 3 3.5 3c.5 0 2-2 2-3"/><path d="M7 16.5c3.5 1 6.5 1 10 0"/></g></symbol><symbol id="hd-icon-tabler-brand-discord-filled" viewBox="0 0 24 24"><path fill="currentColor" d="m14.983 3l.123.006c2.014.214 3.527.672 4.966 1.673a1 1 0 0 1 .371.488c1.876 5.315 2.373 9.987 1.451 12.28C20.891 19.452 19.288 21 17.5 21c-.732 0-1.693-.968-2.328-2.045a22 22 0 0 0 2.103-.493a1 1 0 1 0-.55-1.924c-3.32.95-6.13.95-9.45 0a1 1 0 0 0-.55 1.924q1.074.307 2.103.494C8.193 20.031 7.232 21 6.5 21c-1.788 0-3.391-1.548-4.428-3.629c-.888-2.217-.39-6.89 1.485-12.204a1 1 0 0 1 .371-.488C5.367 3.678 6.88 3.22 8.894 3.006a1 1 0 0 1 .935.435l.063.107l.651 1.285l.137-.016a13 13 0 0 1 2.643 0l.134.016l.65-1.284a1 1 0 0 1 .754-.54zM9 10a2 2 0 0 0-1.977 1.697l-.018.154L7 12l.005.15A2 2 0 1 0 9 10m6 0a2 2 0 0 0-1.977 1.697l-.018.154L13 12l.005.15A2 2 0 1 0 15 10"/></symbol><symbol id="hd-icon-tabler-brand-disney" viewBox="0 0 24 24"><g fill="none" stroke="currentColor" stroke-linecap="round" stroke-linejoin="round" stroke-width="2"><path d="M3.22 5.838C1.913 5.688 2 5.26 2 5.044S2.424 4 6.34 4C11.034 4 21 7.645 21 14.042s-8.71 4.931-10.435 4.52S5 16.306 5 14.388C5 12.993 8.08 12 11.715 12S17 13.041 17 14c0 .5-.074 1.229-1 1.5"/><path d="M10.02 8a505 505 0 0 0 0 13"/></g></symbol><symbol id="hd-icon-tabler-brand-disqus" viewBox="0 0 24 24"><g fill="none" stroke="currentColor" stroke-linecap="round" stroke-linejoin="round" stroke-width="2"><path d="M11.847 21c-2.259 0-4.323-.667-5.919-2H2l1.708-3.266C3.163 14.56 2.949 13.288 2.95 12c0-4.97 3.84-9 8.898-9C16.9 3 21 7.03 21 12c0 4.972-4.098 9-9.153 9"/><path d="M11.485 15H10V9h1.485C13.597 9 15 9.823 15 11.981v.035C15 14.196 13.597 15 11.485 15"/></g></symbol><symbol id="hd-icon-tabler-brand-django" viewBox="0 0 24 24"><g fill="none" stroke="currentColor" stroke-linecap="round" stroke-linejoin="round" stroke-width="2"><path d="M3 6a3 3 0 0 1 3-3h12a3 3 0 0 1 3 3v12a3 3 0 0 1-3 3H6a3 3 0 0 1-3-3z"/><path d="M12 7v8.5l-2.015.201a2.715 2.715 0 1 1 0-5.402L12 10.5M16 7v.01M16 10v5.586c0 .905-.36 1.774-1 2.414"/></g></symbol><symbol id="hd-icon-tabler-brand-docker" viewBox="0 0 24 24"><g fill="none" stroke="currentColor" stroke-linecap="round" stroke-linejoin="round" stroke-width="2"><path d="M22 12.54c-1.804-.345-2.701-1.08-3.523-2.94c-.487.696-1.102 1.568-.92 2.4c.028.238-.32 1-.557 1H3c0 5.208 3.164 7 6.196 7c4.124.022 7.828-1.376 9.854-5c1.146-.101 2.296-1.505 2.95-2.46"/><path d="M5 10h3v3H5zm3 0h3v3H8zm3 0h3v3h-3zM8 7h3v3H8zm3 0h3v3h-3zm0-3h3v3h-3zM4.571 18c1.5 0 2.047-.074 2.958-.78M10 16v.01"/></g></symbol><symbol id="hd-icon-tabler-brand-doctrine" viewBox="0 0 24 24"><g fill="none" stroke="currentColor" stroke-linecap="round" stroke-linejoin="round" stroke-width="2"><path d="M5 14a7 7 0 1 0 14 0a7 7 0 1 0-14 0m4 0h6"/><path d="m12 11l3 3l-3 3M10 3l6.9 6"/></g></symbol><symbol id="hd-icon-tabler-brand-dolby-digital" viewBox="0 0 24 24"><path fill="none" stroke="currentColor" stroke-linecap="round" stroke-linejoin="round" stroke-width="2" d="M21 6v12h-.89c-3.34 0-6.047-2.686-6.047-6s2.707-6 6.046-6zM3.063 6v12h.891C7.294 18 10 15.314 10 12S7.293 6 3.954 6z"/></symbol><symbol id="hd-icon-tabler-brand-douban" viewBox="0 0 24 24"><path fill="none" stroke="currentColor" stroke-linecap="round" stroke-linejoin="round" stroke-width="2" d="M4 20h16M5 4h14M8 8h8a2 2 0 0 1 2 2v2a2 2 0 0 1-2 2H8a2 2 0 0 1-2-2v-2a2 2 0 0 1 2-2m8 6l-2 6m-6-3l1 3"/></symbol><symbol id="hd-icon-tabler-brand-dribbble" viewBox="0 0 24 24"><g fill="none" stroke="currentColor" stroke-linecap="round" stroke-linejoin="round" stroke-width="2"><path d="M3 12a9 9 0 1 0 18 0a9 9 0 1 0-18 0"/><path d="M9 3.6c5 6 7 10.5 7.5 16.2"/><path d="M6.4 19c3.5-3.5 6-6.5 14.5-6.4M3.1 10.75c5 0 9.814-.38 15.314-5"/></g></symbol><symbol id="hd-icon-tabler-brand-dribbble-filled" viewBox="0 0 24 24"><path fill="currentColor" d="M14.384 14.38a23 23 0 0 1 1.056 4.863l.064.644l.126 1.431a10 10 0 0 1-9.15-.98l2.08-2.087l.246-.24c1.793-1.728 3.41-2.875 5.387-3.566zm6.09-.783l.414.003l.981.014a10 10 0 0 1-4.319 6.704l-.054-.605c-.18-2.057-.55-3.958-1.163-5.814c1.044-.182 2.203-.278 3.529-.298zm-7.869-3.181a25 25 0 0 1 1.052 2.098c-2.276.77-4.142 2.053-6.144 3.967l-.355.344l-2.236 2.24a10 10 0 0 1-2.917-6.741L2 12l.004-.25H3.1l.467-.002c3.547-.026 6.356-.367 8.938-1.295zm9.388 1.202l-1.515-.02c-1.86-.003-3.45.124-4.865.402a26 26 0 0 0-1.163-2.38c1.393-.695 2.757-1.597 4.179-2.75l.428-.354l.816-.682a10 10 0 0 1 2.098 5.409zM7.33 3.158L8.596 4.68c1.145 1.398 2.121 2.713 2.949 3.985c-2.26.766-4.739 1.052-7.883 1.081L3.1 9.75h-.844A10 10 0 0 1 7.33 3.157zM17 3.34q.796.46 1.483 1.046l-1.025.857c-1.379 1.128-2.688 1.993-4.034 2.649c-.89-1.398-1.943-2.836-3.182-4.358l-.474-.574l-.485-.584A10 10 0 0 1 17 3.34"/></symbol><symbol id="hd-icon-tabler-brand-dropbox" viewBox="0 0 24 24"><path fill="none" stroke="currentColor" stroke-linecap="round" stroke-linejoin="round" stroke-width="2" d="M7.5 10.625L3 7.812L7.5 5L12 7.813m-4.5 2.812L12 7.812m-4.5 2.813L3 13.448l4.5 2.802m0-5.625l4.5 2.823m0-5.636l4.5 2.791L21 7.791L16.5 5zM7.5 16.25l4.5-2.802M7.5 16.25v1.123L12 20l4.5-2.627V16.25M12 13.449l4.5-2.823l4.5 2.823l-4.5 2.802M12 13.449l4.5 2.802"/></symbol><symbol id="hd-icon-tabler-brand-drops" viewBox="0 0 24 24"><g fill="none" stroke="currentColor" stroke-linecap="round" stroke-linejoin="round" stroke-width="2"><path d="M17.637 7.416a7.91 7.91 0 0 1 1.76 8.666A8 8 0 0 1 12 21a8 8 0 0 1-7.396-4.918a7.91 7.91 0 0 1 1.759-8.666L12 2z"/><path d="M14.466 10.923a3.6 3.6 0 0 1 .77 3.877A3.5 3.5 0 0 1 12 17a3.5 3.5 0 0 1-3.236-2.2a3.6 3.6 0 0 1 .77-3.877L12 8.5z"/></g></symbol><symbol id="hd-icon-tabler-brand-drupal" viewBox="0 0 24 24"><g fill="none" stroke="currentColor" stroke-linecap="round" stroke-linejoin="round" stroke-width="2"><path d="M12 2c0 4.308-7 6-7 12a7 7 0 0 0 14 0c0-6-7-7.697-7-12"/><path d="M12 11.33a66 66 0 0 1-2.012 2.023C8.988 14.31 8 15.32 8 17c0 2.17 1.79 4 4 4s4-1.827 4-4c0-1.676-.989-2.685-1.983-3.642q-.63-.606-5.517-5.858z"/></g></symbol><symbol id="hd-icon-tabler-brand-edge" viewBox="0 0 24 24"><g fill="none" stroke="currentColor" stroke-linecap="round" stroke-linejoin="round" stroke-width="2"><path d="M20.978 11.372a9 9 0 1 0-1.593 5.773"/><path d="M20.978 11.372c.21 2.993-5.034 2.413-6.913 1.486c1.392-1.6.402-4.038-2.274-3.851c-1.745.122-2.927 1.157-2.784 3.202c.28 3.99 4.444 6.205 10.36 4.79"/><path d="M3.022 12.628C2.739 8.585 11.739 5.4 14.27 9.94m-1.642 11.038c-2.993.21-5.162-4.725-3.567-9.748"/></g></symbol><symbol id="hd-icon-tabler-brand-elastic" viewBox="0 0 24 24"><g fill="none" stroke="currentColor" stroke-linecap="round" stroke-linejoin="round" stroke-width="2"><path d="M14 2a5 5 0 0 1 5 5c0 .712-.232 1.387-.5 2c1.894.042 3.5 1.595 3.5 3.5c0 1.869-1.656 3.4-3.5 3.5q.5.938.5 1.5a2.5 2.5 0 0 1-2.5 2.5c-.787 0-1.542-.432-2-1c-.786 1.73-2.476 3-4.5 3a5 5 0 0 1-4.583-7a3.5 3.5 0 0 1-.11-6.992h.195a2.5 2.5 0 0 1 2-4c.787 0 1.542.432 2 1c.786-1.73 2.476-3 4.5-3zM8.5 9l-3-1"/><path d="m9.5 5l-1 4l1 2l5 2l4-4m-.001 7l-3-.5l-1-2.5m.001 6l1-3.5M5.417 15L9.5 11"/></g></symbol><symbol id="hd-icon-tabler-brand-electronic-arts" viewBox="0 0 24 24"><g fill="none" stroke="currentColor" stroke-linecap="round" stroke-linejoin="round" stroke-width="2"><path d="M3 12a9 9 0 1 0 18 0a9 9 0 1 0-18 0"/><path d="m17.5 15l-3-6l-3 6h-5L8 12m9 2h-2m-8.5-2H10M8 9h3"/></g></symbol><symbol id="hd-icon-tabler-brand-ember" viewBox="0 0 24 24"><path fill="none" stroke="currentColor" stroke-linecap="round" stroke-linejoin="round" stroke-width="2" d="M3 12.958c8.466 1.647 11.112-1.196 12.17-2.294c2.116-2.196 0-6.589-2.646-5.49C9.88 6.27 6.174 12.86 9.35 17.252Q12.525 21.645 21 15"/></symbol><symbol id="hd-icon-tabler-brand-envato" viewBox="0 0 24 24"><path fill="none" stroke="currentColor" stroke-linecap="round" stroke-linejoin="round" stroke-width="2" d="M4.711 17.875c-.534-1.339-1.35-4.178.129-6.47c1.415-2.193 3.769-3.608 5.099-4.278L4.71 17.875zm15.004-5.367c-.54 3.409-2.094 6.156-4.155 7.348c-4.069 2.353-8.144.45-9.297-.188c.877-1.436 4.433-7.22 6.882-10.591C15.859 5.34 19.009 3.099 19.71 3c0 .201.03.55.071 1.03c.144 1.709.443 5.264-.066 8.478"/></symbol><symbol id="hd-icon-tabler-brand-etsy" viewBox="0 0 24 24"><g fill="none" stroke="currentColor" stroke-linecap="round" stroke-linejoin="round" stroke-width="2"><path d="M14 12H9M3 8a5 5 0 0 1 5-5h8a5 5 0 0 1 5 5v8a5 5 0 0 1-5 5H8a5 5 0 0 1-5-5z"/><path d="M15 16h-5a1 1 0 0 1-1-1V9a1 1 0 0 1 1-1h5"/></g></symbol><symbol id="hd-icon-tabler-brand-evernote" viewBox="0 0 24 24"><g fill="none" stroke="currentColor" stroke-linecap="round" stroke-linejoin="round" stroke-width="2"><path d="M4 8h5V3"/><path d="M17.9 19c.6-2.5 1.1-5.471 1.1-9c0-4.5-2-5-3-5c-1.906 0-3-.5-3.5-1c-.354-.354-.5-1-1.5-1H9L4 8c0 6 2.5 8 5 8c1 0 1.5-.5 2-1.5s1.414-.326 2.5 0c1.044.313 2.01.255 2.5.5c1 .5 2 1.5 2 3c0 .5 0 3-3 3s-3-3-1-3m1-8h1"/></g></symbol><symbol id="hd-icon-tabler-brand-facebook" viewBox="0 0 24 24"><path fill="none" stroke="currentColor" stroke-linecap="round" stroke-linejoin="round" stroke-width="2" d="M7 10v4h3v7h4v-7h3l1-4h-4V8a1 1 0 0 1 1-1h3V3h-3a5 5 0 0 0-5 5v2z"/></symbol><symbol id="hd-icon-tabler-brand-facebook-filled" viewBox="0 0 24 24"><path fill="currentColor" d="M18 2a1 1 0 0 1 .993.883L19 3v4a1 1 0 0 1-.883.993L18 8h-3v1h3a1 1 0 0 1 .991 1.131l-.02.112l-1 4a1 1 0 0 1-.858.75L17 15h-2v6a1 1 0 0 1-.883.993L14 22h-4a1 1 0 0 1-.993-.883L9 21v-6H7a1 1 0 0 1-.993-.883L6 14v-4a1 1 0 0 1 .883-.993L7 9h2V8a6 6 0 0 1 5.775-5.996L15 2z"/></symbol><symbol id="hd-icon-tabler-brand-feedly" viewBox="0 0 24 24"><path fill="none" stroke="currentColor" stroke-linecap="round" stroke-linejoin="round" stroke-width="2" d="m7.833 12.278l4.445-4.445M10.055 14.5l2.223-2.222m0 4.444l.555-.555m6.995-1.339a4 4 0 0 0 0-5.656l-5-5a4 4 0 0 0-5.656 0l-5 5a4 4 0 0 0 0 5.656L10.343 21h3.314z"/></symbol><symbol id="hd-icon-tabler-brand-figma" viewBox="0 0 24 24"><g fill="none" stroke="currentColor" stroke-linecap="round" stroke-linejoin="round" stroke-width="2"><path d="M12 12a3 3 0 1 0 6 0a3 3 0 1 0-6 0"/><path d="M6 6a3 3 0 0 1 3-3h6a3 3 0 0 1 3 3a3 3 0 0 1-3 3H9a3 3 0 0 1-3-3"/><path d="M9 9a3 3 0 0 0 0 6h3m-3 0a3 3 0 1 0 3 3V3"/></g></symbol><symbol id="hd-icon-tabler-brand-filezilla" viewBox="0 0 24 24"><g fill="none" stroke="currentColor" stroke-linecap="round" stroke-linejoin="round" stroke-width="2"><path d="M16 15.824a4.06 4.06 0 0 1-2.25.033c-.738-.201-2.018-.08-2.75.143l4.583-5H9"/><path d="M3 12a9 9 0 1 0 18 0a9 9 0 1 0-18 0"/><path d="m8 15l2-8h5"/></g></symbol><symbol id="hd-icon-tabler-brand-finder" viewBox="0 0 24 24"><g fill="none" stroke="currentColor" stroke-linecap="round" stroke-linejoin="round" stroke-width="2"><path d="M3 5a1 1 0 0 1 1-1h16a1 1 0 0 1 1 1v14a1 1 0 0 1-1 1H4a1 1 0 0 1-1-1zm4 3v1m10-1v1"/><path d="M12.5 4c-.654 1.486-1.26 3.443-1.5 9h2.5c-.19 2.867.094 5.024.5 7"/><path d="M7 15.5c3.667 2 6.333 2 10 0"/></g></symbol><symbol id="hd-icon-tabler-brand-firebase" viewBox="0 0 24 24"><g fill="none" stroke="currentColor" stroke-linecap="round" stroke-linejoin="round" stroke-width="2"><path d="m4.53 17.05l6.15-11.72h-.02c.38-.74 1.28-1.02 2.01-.63c.26.14.48.36.62.62l1.06 2.01"/><path d="M15.47 6.45c.58-.59 1.53-.59 2.11-.01c.22.22.36.5.41.81l1.5 9.11c.1.62-.2 1.24-.76 1.54l-6.07 2.9c-.46.25-1.01.26-1.46 0l-6.02-2.92c-.55-.31-.85-.92-.75-1.54L6.39 4.3c.12-.82.89-1.38 1.7-1.25c.46.07.87.36 1.09.77l1.24 1.76m-5.85 11.6L15.5 6.5"/></g></symbol><symbol id="hd-icon-tabler-brand-firefox" viewBox="0 0 24 24"><g fill="none" stroke="currentColor" stroke-linecap="round" stroke-linejoin="round" stroke-width="2"><path d="M4.028 7.82a9 9 0 1 0 12.823-3.4C15.215 3.4 13.787 3.4 12 3.4h-1.647"/><path d="M4.914 9.485c-1.756-1.569-.805-5.38.109-6.17c.086.896.585 1.208 1.111 1.685c.88-.275 1.313-.282 1.867 0c.82-.91 1.694-2.354 2.628-2.093C9.547 4.648 10.559 6.64 12 7.08c-.17.975-1.484 1.913-2.76 2.686c-1.296.938-.722 1.85 0 2.234c.949.506 3.611-1 4.545.354c-1.698.102-1.536 3.107-3.983 2.727c2.523.957 4.345.462 5.458-.34c1.965-1.52 2.879-3.542 2.879-5.557c-.014-1.398.194-2.695-1.26-4.75"/></g></symbol><symbol id="hd-icon-tabler-brand-fiverr" viewBox="0 0 24 24"><path fill="none" stroke="currentColor" stroke-linecap="round" stroke-linejoin="round" stroke-width="2" d="M15 3h-2a6 6 0 0 0-6 6H4v4h3v8h4v-7h4v7h4V10h-8V8.967A1.967 1.967 0 0 1 13 7h2z"/></symbol><symbol id="hd-icon-tabler-brand-flickr" viewBox="0 0 24 24"><path fill="none" stroke="currentColor" stroke-linecap="round" stroke-linejoin="round" stroke-width="2" d="M4 12a3 3 0 1 0 6 0a3 3 0 1 0-6 0m10 0a3 3 0 1 0 6 0a3 3 0 1 0-6 0"/></symbol><symbol id="hd-icon-tabler-brand-flightradar24" viewBox="0 0 24 24"><g fill="none" stroke="currentColor" stroke-linecap="round" stroke-linejoin="round" stroke-width="2"><path d="M3 12a9 9 0 1 0 18 0a9 9 0 1 0-18 0"/><path d="M7 12a5 5 0 1 0 10 0a5 5 0 1 0-10 0"/><path d="m8.5 20l3.5-8l-6.5 6"/><path d="M11 12a1 1 0 1 0 2 0a1 1 0 1 0-2 0"/></g></symbol><symbol id="hd-icon-tabler-brand-flipboard" viewBox="0 0 24 24"><path fill="none" stroke="currentColor" stroke-linecap="round" stroke-linejoin="round" stroke-width="2" d="M3.973 3h16.054c.537 0 .973.436.973.973v4.052a.973.973 0 0 1-.973.973h-5.025v4.831c0 .648-.525 1.173-1.173 1.173H9v5.025a.973.973 0 0 1-.974.973H3.973A.973.973 0 0 1 3 20.027V3.973C3 3.436 3.436 3 3.973 3"/></symbol><symbol id="hd-icon-tabler-brand-flutter" viewBox="0 0 24 24"><path fill="none" stroke="currentColor" stroke-linecap="round" stroke-linejoin="round" stroke-width="2" d="m7 14l-3-3l8-8h6zm7 7l-5-5l5-5h5l-5 5l5 5z"/></symbol><symbol id="hd-icon-tabler-brand-fortnite" viewBox="0 0 24 24"><path fill="none" stroke="currentColor" stroke-linecap="round" stroke-linejoin="round" stroke-width="2" d="M8 3h7.5L15 7h-3v3h3v3.5h-3V20l-4 1z"/></symbol><symbol id="hd-icon-tabler-brand-foursquare" viewBox="0 0 24 24"><path fill="none" stroke="currentColor" stroke-linecap="round" stroke-linejoin="round" stroke-width="2" d="M7 3h10c.644 0 1.11.696.978 1.33l-1.984 9.859a1.014 1.014 0 0 1-1 .811H12.74c-.308 0-.6.141-.793.382l-4.144 5.25c-.599.752-1.809.331-1.809-.632V4c0-.564.44-1 1-1zm5 6h5"/></symbol><symbol id="hd-icon-tabler-brand-framer" viewBox="0 0 24 24"><path fill="none" stroke="currentColor" stroke-linecap="round" stroke-linejoin="round" stroke-width="2" d="M6 15h12L6 3h12v6H6zl6 6v-6"/></symbol><symbol id="hd-icon-tabler-brand-framer-motion" viewBox="0 0 24 24"><g fill="none" stroke="currentColor" stroke-linecap="round" stroke-linejoin="round" stroke-width="2"><path d="M12 12L4 4v16L20 4v16l-4-4"/><path d="m20 12l-8 8l-4-4"/></g></symbol><symbol id="hd-icon-tabler-brand-funimation" viewBox="0 0 24 24"><g fill="none" stroke="currentColor" stroke-linecap="round" stroke-linejoin="round" stroke-width="2"><path d="M3 12a9 9 0 1 0 18 0a9 9 0 1 0-18 0"/><path d="M8 13h8a4 4 0 1 1-8 0"/></g></symbol><symbol id="hd-icon-tabler-brand-gatsby" viewBox="0 0 24 24"><path fill="none" stroke="currentColor" stroke-linecap="round" stroke-linejoin="round" stroke-width="2" d="m3.296 14.297l6.407 6.407a9.02 9.02 0 0 1-6.325-6.116zM16 13h5c-.41 3.603-3.007 6.59-6.386 7.614L3.386 9.385A9 9 0 0 1 19.046 6.4"/></symbol><symbol id="hd-icon-tabler-brand-git" viewBox="0 0 24 24"><g fill="none" stroke="currentColor" stroke-linecap="round" stroke-linejoin="round" stroke-width="2"><path d="M15 12a1 1 0 1 0 2 0a1 1 0 1 0-2 0m-4-4a1 1 0 1 0 2 0a1 1 0 1 0-2 0m0 8a1 1 0 1 0 2 0a1 1 0 1 0-2 0m1-1V9m3 2l-2-2m-2-2L9.1 5.1"/><path d="m13.446 2.6l7.955 7.954a2.045 2.045 0 0 1 0 2.892l-7.955 7.955a2.045 2.045 0 0 1-2.892 0l-7.955-7.955a2.045 2.045 0 0 1 0-2.892l7.955-7.955a2.045 2.045 0 0 1 2.892 0"/></g></symbol><symbol id="hd-icon-tabler-brand-github" viewBox="0 0 24 24"><path fill="none" stroke="currentColor" stroke-linecap="round" stroke-linejoin="round" stroke-width="2" d="M9 19c-4.3 1.4-4.3-2.5-6-3m12 5v-3.5c0-1 .1-1.4-.5-2c2.8-.3 5.5-1.4 5.5-6a4.6 4.6 0 0 0-1.3-3.2a4.2 4.2 0 0 0-.1-3.2s-1.1-.3-3.5 1.3a12.3 12.3 0 0 0-6.2 0C6.5 2.8 5.4 3.1 5.4 3.1a4.2 4.2 0 0 0-.1 3.2A4.6 4.6 0 0 0 4 9.5c0 4.6 2.7 5.7 5.5 6c-.6.6-.6 1.2-.5 2V21"/></symbol><symbol id="hd-icon-tabler-brand-github-copilot" viewBox="0 0 24 24"><g fill="none" stroke="currentColor" stroke-linecap="round" stroke-linejoin="round" stroke-width="2"><path d="M4 18v-5.5q0-1 .5-2"/><path d="M12 7.5c0-1-.01-4.07-4-3.5c-3.5.5-4 2.5-4 3.5c0 1.5 0 4 3 4c4 0 5-2.5 5-4M4 12q-2 1-2 2c0 1 0 3 1.5 4c3 2 6.5 3 8.5 3s5.499-1 8.5-3c1.5-1 1.5-3 1.5-4q0-1-2-2"/><path d="M20 18v-5.5q0-1-.5-2"/><path d="M12 7.5v-.297l.01-.269l.027-.298l.013-.105l.033-.215q.02-.11.046-.22l.06-.223c.336-1.118 1.262-2.237 3.808-1.873c2.838.405 3.703 1.797 3.93 2.842l.036.204c0 .033.01.066.013.098l.016.185v.661l-.015.394l-.02.271c-.122 1.366-.655 2.845-2.962 2.845c-3.256 0-4.524-1.656-4.883-3.081l-.053-.242a4 4 0 0 1-.036-.235l-.021-.227a4 4 0 0 1-.007-.215zM10 15v2m4-2v2"/></g></symbol><symbol id="hd-icon-tabler-brand-github-filled" viewBox="0 0 24 24"><path fill="currentColor" d="M5.315 2.1c.791-.113 1.9.145 3.333.966l.272.161l.16.1l.397-.083a13.3 13.3 0 0 1 4.59-.08l.456.08l.396.083l.161-.1c1.385-.84 2.487-1.17 3.322-1.148l.164.008l.147.017l.076.014l.05.011l.144.047a1 1 0 0 1 .53.514a5.2 5.2 0 0 1 .397 2.91l-.047.267l-.046.196l.123.163c.574.795.93 1.728 1.03 2.707l.023.295L21 9.5c0 3.855-1.659 5.883-4.644 6.68l-.245.061l-.132.029l.014.161l.008.157l.004.365l-.002.213L16 21a1 1 0 0 1-.883.993L15 22H9a1 1 0 0 1-.993-.883L8 21v-.734c-1.818.26-3.03-.424-4.11-1.878l-.535-.766c-.28-.396-.455-.579-.589-.644l-.048-.019a1 1 0 0 1 .564-1.918c.642.188 1.074.568 1.57 1.239l.538.769c.76 1.079 1.36 1.459 2.609 1.191L8 17.562l-.018-.168a5 5 0 0 1-.021-.824l.017-.185l.019-.12l-.108-.024c-2.976-.71-4.703-2.573-4.875-6.139l-.01-.31L3 9.5a5.6 5.6 0 0 1 .908-3.051l.152-.222l.122-.163l-.045-.196a5.2 5.2 0 0 1 .145-2.642l.1-.282l.106-.253a1 1 0 0 1 .529-.514l.144-.047z"/></symbol><symbol id="hd-icon-tabler-brand-gitlab" viewBox="0 0 24 24"><path fill="none" stroke="currentColor" stroke-linecap="round" stroke-linejoin="round" stroke-width="2" d="m21 14l-9 7l-9-7L6 3l3 7h6l3-7z"/></symbol><symbol id="hd-icon-tabler-brand-gmail" viewBox="0 0 24 24"><g fill="none" stroke="currentColor" stroke-linecap="round" stroke-linejoin="round" stroke-width="2"><path d="M16 20h3a1 1 0 0 0 1-1V5a1 1 0 0 0-1-1h-3zM5 20h3V4H5a1 1 0 0 0-1 1v14a1 1 0 0 0 1 1M16 4l-4 4l-4-4"/><path d="m4 6.5l8 7.5l8-7.5"/></g></symbol><symbol id="hd-icon-tabler-brand-golang" viewBox="0 0 24 24"><path fill="none" stroke="currentColor" stroke-linecap="round" stroke-linejoin="round" stroke-width="2" d="M15.695 14.305c1.061 1.06 2.953.888 4.226-.384c1.272-1.273 1.444-3.165.384-4.226s-2.953-.888-4.226.384c-1.272 1.273-1.444 3.165-.384 4.226M12.68 9.233c-1.084-.497-2.545-.191-3.591.846c-1.284 1.273-1.457 3.165-.388 4.226c1.07 1.06 2.978.888 4.261-.384A3.67 3.67 0 0 0 14 12h-2.427M5.5 15H4m2-6H4m1 3H2"/></symbol><symbol id="hd-icon-tabler-brand-google" viewBox="0 0 24 24"><path fill="none" stroke="currentColor" stroke-linecap="round" stroke-linejoin="round" stroke-width="2" d="M20.945 11a9 9 0 1 1-3.284-5.997l-2.655 2.392A5.5 5.5 0 1 0 17.125 14H13v-3z"/></symbol><symbol id="hd-icon-tabler-brand-google-analytics" viewBox="0 0 24 24"><path fill="none" stroke="currentColor" stroke-linecap="round" stroke-linejoin="round" stroke-width="2" d="M10 10.105A1.105 1.105 0 0 1 11.105 9h1.79A1.105 1.105 0 0 1 14 10.105v9.79A1.105 1.105 0 0 1 12.895 21h-1.79A1.105 1.105 0 0 1 10 19.895zm7-6A1.105 1.105 0 0 1 18.105 3h1.79A1.105 1.105 0 0 1 21 4.105v15.79A1.105 1.105 0 0 1 19.895 21h-1.79A1.105 1.105 0 0 1 17 19.895zM3 19a2 2 0 1 0 4 0a2 2 0 1 0-4 0"/></symbol><symbol id="hd-icon-tabler-brand-google-big-query" viewBox="0 0 24 24"><g fill="none" stroke="currentColor" stroke-linecap="round" stroke-linejoin="round" stroke-width="2"><path d="M17.73 19.875A2.23 2.23 0 0 1 15.782 21H8.499a2.22 2.22 0 0 1-1.947-1.158l-4.272-6.75a2.27 2.27 0 0 1 0-2.184l4.272-6.75A2.23 2.23 0 0 1 8.498 3h7.285c.809 0 1.554.443 1.947 1.158l3.98 6.75a2.33 2.33 0 0 1 0 2.25l-3.98 6.75z"/><path d="M8 11.5a3.5 3.5 0 1 0 7 0a3.5 3.5 0 1 0-7 0m6 2.5l2 2"/></g></symbol><symbol id="hd-icon-tabler-brand-google-drive" viewBox="0 0 24 24"><g fill="none" stroke="currentColor" stroke-linecap="round" stroke-linejoin="round" stroke-width="2"><path d="M12 10L6 20l-3-5L9 5z"/><path d="M9 15h12l-3 5H6m9-5L9 5h6l6 10z"/></g></symbol><symbol id="hd-icon-tabler-brand-google-filled" viewBox="0 0 24 24"><path fill="currentColor" d="M12 2a9.96 9.96 0 0 1 6.29 2.226a1 1 0 0 1 .04 1.52l-1.51 1.362a1 1 0 0 1-1.265.06a6 6 0 1 0 2.103 6.836l.001-.004h-3.66a1 1 0 0 1-.992-.883L13 13v-2a1 1 0 0 1 1-1h6.945a1 1 0 0 1 .994.89q.06.55.061 1.11c0 5.523-4.477 10-10 10S2 17.523 2 12S6.477 2 12 2"/></symbol><symbol id="hd-icon-tabler-brand-google-fit" viewBox="0 0 24 24"><path fill="none" stroke="currentColor" stroke-linecap="round" stroke-linejoin="round" stroke-width="2" d="M12 8.866L9.267 6.132A3.866 3.866 0 0 0 3.8 11.599l2.733 2.734L12 19.8l8.202-8.201a3.866 3.866 0 0 0-5.469-5.466l-8.201 8.2"/></symbol><symbol id="hd-icon-tabler-brand-google-home" viewBox="0 0 24 24"><g fill="none" stroke="currentColor" stroke-linecap="round" stroke-linejoin="round" stroke-width="2"><path d="M19.072 21H4.928A1.93 1.93 0 0 1 3 19.072v-6.857c0-.512.203-1 .566-1.365l7.07-7.063a1.93 1.93 0 0 1 2.727 0l7.071 7.063c.363.362.566.853.566 1.365v6.857A1.93 1.93 0 0 1 19.072 21"/><path d="M7 13v4h10v-4l-5-5m2.8-2.8L3 17m4 0v4m10-4v4"/></g></symbol><symbol id="hd-icon-tabler-brand-google-maps" viewBox="0 0 24 24"><g fill="none" stroke="currentColor" stroke-linecap="round" stroke-linejoin="round" stroke-width="2"><path d="M9.5 9.5a2.5 2.5 0 1 0 5 0a2.5 2.5 0 1 0-5 0m-3.072 2.994l7.314-9.252m-3.74 4.693L7.065 5.39m10.628 1.203l-8.336 9.979"/><path d="M17.591 6.376c.472.907.715 1.914.709 2.935a7.3 7.3 0 0 1-.72 3.18a19 19 0 0 1-2.089 3c-.784.933-1.49 1.93-2.11 2.98c-.314.62-.568 1.27-.757 1.938c-.121.36-.277.591-.622.591c-.315 0-.463-.136-.626-.593a10.6 10.6 0 0 0-.779-1.978a18 18 0 0 0-1.423-2.091c-.877-1.184-2.179-2.535-2.853-4.071A7.1 7.1 0 0 1 5.7 9.3a6.23 6.23 0 0 1 1.476-4.055A6.25 6.25 0 0 1 11.987 3a6.5 6.5 0 0 1 1.918.284a6.26 6.26 0 0 1 3.686 3.092"/></g></symbol><symbol id="hd-icon-tabler-brand-google-one" viewBox="0 0 24 24"><g fill="none" stroke="currentColor" stroke-linecap="round" stroke-linejoin="round" stroke-width="2"><path d="M11 5v13.982a2 2 0 0 0 4 0V5a2 2 0 1 0-4 0"/><path d="M6.63 8.407a2.125 2.125 0 0 0-.074 2.944c.77.834 2.051.869 2.862.077l4.95-4.834c.812-.792.846-2.11.076-2.945a1.984 1.984 0 0 0-2.861-.077z"/></g></symbol><symbol id="hd-icon-tabler-brand-google-photos" viewBox="0 0 24 24"><g fill="none" stroke="currentColor" stroke-linecap="round" stroke-linejoin="round" stroke-width="2"><path d="M7.5 7C9.985 7 12 8.974 12 11.409V12H3.603a.6.6 0 0 1-.426-.173a.6.6 0 0 1-.177-.418C3 8.974 5.015 7 7.5 7m9 10c-2.485 0-4.5-1.974-4.5-4.409V12h8.397c.333 0 .603.265.603.591C21 15.026 18.985 17 16.5 17"/><path d="M7 16.5c0-2.485 1.972-4.5 4.405-4.5H12v8.392a.6.6 0 0 1-.173.431a.58.58 0 0 1-.422.177C8.972 21 7 18.985 7 16.5m10-9c0 2.485-1.972 4.5-4.405 4.5H12V3.603a.6.6 0 0 1 .175-.428a.58.58 0 0 1 .42-.175C15.028 3 17 5.015 17 7.5"/></g></symbol><symbol id="hd-icon-tabler-brand-google-play" viewBox="0 0 24 24"><path fill="none" stroke="currentColor" stroke-linecap="round" stroke-linejoin="round" stroke-width="2" d="M4 3.71v16.58a.7.7 0 0 0 1.05.606l14.622-8.42a.55.55 0 0 0 0-.953L5.05 3.104A.7.7 0 0 0 4 3.711zM15 9L4.5 20.5m0-17L15 15"/></symbol><symbol id="hd-icon-tabler-brand-google-podcasts" viewBox="0 0 24 24"><path fill="none" stroke="currentColor" stroke-linecap="round" stroke-linejoin="round" stroke-width="2" d="M12 3v2m0 14v2m0-13v8m-4 1v2m-4-8v2m16-2v2M8 5v8m8-6V5m0 14v-8"/></symbol><symbol id="hd-icon-tabler-brand-grammarly" viewBox="0 0 24 24"><g fill="none" stroke="currentColor" stroke-linecap="round" stroke-linejoin="round" stroke-width="2"><path d="M3 12a9 9 0 1 0 18 0a9 9 0 1 0-18 0"/><path d="M15.697 9.434a4.5 4.5 0 1 0 .217 4.788"/><path d="M13.5 14H16v2.5"/></g></symbol><symbol id="hd-icon-tabler-brand-graphql" viewBox="0 0 24 24"><g fill="none" stroke="currentColor" stroke-linecap="round" stroke-linejoin="round" stroke-width="2"><path d="m4 8l8-5l8 5v8l-8 5l-8-5z"/><path d="m12 4l7.5 12h-15z"/><path d="M11 3a1 1 0 1 0 2 0a1 1 0 0 0-2 0m0 18a1 1 0 1 0 2 0a1 1 0 0 0-2 0M3 8a1 1 0 1 0 2 0a1 1 0 0 0-2 0m0 8a1 1 0 1 0 2 0a1 1 0 0 0-2 0m16 0a1 1 0 1 0 2 0a1 1 0 0 0-2 0m0-8a1 1 0 1 0 2 0a1 1 0 0 0-2 0"/></g></symbol><symbol id="hd-icon-tabler-brand-gravatar" viewBox="0 0 24 24"><path fill="none" stroke="currentColor" stroke-linecap="round" stroke-linejoin="round" stroke-width="2" d="M5.64 5.632A9 9 0 1 0 12 3v7.714"/></symbol><symbol id="hd-icon-tabler-brand-grindr" viewBox="0 0 24 24"><g fill="none" stroke="currentColor" stroke-linecap="round" stroke-linejoin="round" stroke-width="2"><path d="M13 13.282c0 .492.784 1.718 2.102 1.718S18 14.034 18 12.938c0-.817-.932-.938-1.409-.938c-.228 0-3.591.111-3.591 1.282"/><path d="M12 21c-2.984 0-6.471-2.721-6.63-2.982C3.24 14.528 3 4.315 3 4.315L4.446 3c2.499.39 5.023.617 7.554.68A59 59 0 0 0 19.554 3L21 4.315s-.24 10.213-2.37 13.704C18.47 18.279 14.984 21 12 21"/><path d="M11 13.282C11 13.774 10.216 15 8.898 15S6 14.034 6 12.938c0-.817.932-.938 1.409-.938c.228 0 3.591.111 3.591 1.282"/></g></symbol><symbol id="hd-icon-tabler-brand-guardian" viewBox="0 0 24 24"><path fill="none" stroke="currentColor" stroke-linecap="round" stroke-linejoin="round" stroke-width="2" d="M14 13h6M4 12c0-9.296 9.5-9 9.5-9C10.692 3 9 7.373 9 12s1.763 8.976 4.572 8.976C13.572 20.999 4 22.068 4 12m10.5-9c1.416 0 3.853 1.16 4.5 2v3.5M15 13v8s2.77-.37 4-2v-6m-5.5 8H15M13.5 3h1"/></symbol><symbol id="hd-icon-tabler-brand-gumroad" viewBox="0 0 24 24"><g fill="none" stroke="currentColor" stroke-linecap="round" stroke-linejoin="round" stroke-width="2"><path d="M21 12a9 9 0 1 1-18 0a9 9 0 0 1 18 0"/><path d="M13.5 13H16v3"/><path d="M15.024 9.382A4 4 0 1 0 12 16c1.862 0 2.554-1.278 3-3"/></g></symbol><symbol id="hd-icon-tabler-brand-hackerrank" viewBox="0 0 24 24"><g fill="none" stroke="currentColor" stroke-linecap="round" stroke-linejoin="round" stroke-width="2"><path d="M19.484 5.667c-1.146-.904-3.35-2.394-6.497-3.429c-.484-.159-.725-.238-1.04-.238c-.314 0-.556.08-1.04.238c-3.147 1.035-5.35 2.525-6.496 3.43c-.402.317-.604.476-.797.816c-.194.341-.233.62-.309 1.178A33 33 0 0 0 3 12c0 1.742.165 3.317.305 4.338c.076.558.115.837.309 1.178c.193.34.395.5.797.817c1.146.904 3.35 2.394 6.497 3.429c.483.159.725.238 1.04.238c.314 0 .555-.08 1.04-.238c3.146-1.035 5.35-2.525 6.496-3.43c.402-.317.603-.476.797-.816c.194-.341.232-.62.309-1.178c.14-1.021.305-2.596.305-4.338s-.165-3.317-.305-4.338c-.077-.558-.115-.837-.309-1.178s-.395-.5-.797-.817M9 8v7m0-3h6"/><path d="M16 16h-2l1 1zM8 8h2L9 7zm7 1v7"/></g></symbol><symbol id="hd-icon-tabler-brand-hbo" viewBox="0 0 24 24"><g fill="none" stroke="currentColor" stroke-linecap="round" stroke-linejoin="round" stroke-width="2"><path d="M2 16V8m4 0v8m-4-4h4m3 4h2a2 2 0 1 0 0-4H9h2a2 2 0 1 0 0-4H9zm10-8a4 4 0 1 1 0 8a4 4 0 0 1 0-8"/><path d="M18 12a1 1 0 1 0 2 0a1 1 0 1 0-2 0"/></g></symbol><symbol id="hd-icon-tabler-brand-headlessui" viewBox="0 0 24 24"><g fill="none" stroke="currentColor" stroke-linecap="round" stroke-linejoin="round" stroke-width="2"><path d="m6.744 4.325l7.82-1.267a4.456 4.456 0 0 1 5.111 3.686l1.267 7.82a4.456 4.456 0 0 1-3.686 5.111l-7.82 1.267a4.456 4.456 0 0 1-5.111-3.686l-1.267-7.82a4.456 4.456 0 0 1 3.686-5.111"/><path d="m7.252 7.704l7.897-1.28a1 1 0 0 1 1.147.828l.36 2.223l-9.562 3.51l-.67-4.134a1 1 0 0 1 .828-1.147"/></g></symbol><symbol id="hd-icon-tabler-brand-hexo" viewBox="0 0 24 24"><path fill="none" stroke="currentColor" stroke-linecap="round" stroke-linejoin="round" stroke-width="2" d="M19.875 6.27c.7.398 1.13 1.143 1.125 1.948v7.284c0 .809-.443 1.555-1.158 1.948l-6.75 4.27a2.27 2.27 0 0 1-2.184 0l-6.75-4.27A2.23 2.23 0 0 1 3 15.502V8.217c0-.809.443-1.554 1.158-1.947l6.75-3.98a2.33 2.33 0 0 1 2.25 0l6.75 3.98zM9 8v8m6-8v8m-6-4h6"/></symbol><symbol id="hd-icon-tabler-brand-hipchat" viewBox="0 0 24 24"><g fill="none" stroke="currentColor" stroke-linecap="round" stroke-linejoin="round" stroke-width="2"><path d="M17.802 17.292s.077-.055.2-.149c1.843-1.425 3-3.49 3-5.789c0-4.286-4.03-7.764-9-7.764s-9 3.478-9 7.764c0 4.288 4.03 7.646 9 7.646q.636 0 2.088-.084c1.262.82 3.104 1.493 4.716 1.493c.499 0 .734-.41.414-.828c-.486-.596-1.156-1.551-1.416-2.29z"/><path d="M7.5 13.5c2.5 2.5 6.5 2.5 9 0"/></g></symbol><symbol id="hd-icon-tabler-brand-html5" viewBox="0 0 24 24"><g fill="none" stroke="currentColor" stroke-linecap="round" stroke-linejoin="round" stroke-width="2"><path d="m20 4l-2 14.5l-6 2l-6-2L4 4z"/><path d="M15.5 8h-7l.5 4h6l-.5 3.5l-2.5.75l-2.5-.75l-.1-.5"/></g></symbol><symbol id="hd-icon-tabler-brand-inertia" viewBox="0 0 24 24"><path fill="none" stroke="currentColor" stroke-linecap="round" stroke-linejoin="round" stroke-width="2" d="m12.5 8l4 4l-4 4H17l4-4l-4-4zm-9 0l4 4l-4 4H8l4-4l-4-4z"/></symbol><symbol id="hd-icon-tabler-brand-instagram" viewBox="0 0 24 24"><g fill="none" stroke="currentColor" stroke-linecap="round" stroke-linejoin="round" stroke-width="2"><path d="M4 8a4 4 0 0 1 4-4h8a4 4 0 0 1 4 4v8a4 4 0 0 1-4 4H8a4 4 0 0 1-4-4z"/><path d="M9 12a3 3 0 1 0 6 0a3 3 0 0 0-6 0m7.5-4.5v.01"/></g></symbol><symbol id="hd-icon-tabler-brand-instagram-filled" viewBox="0 0 24 24"><path fill="currentColor" d="M16 3a5 5 0 0 1 5 5v8a5 5 0 0 1-5 5H8a5 5 0 0 1-5-5V8a5 5 0 0 1 5-5zm-4 5a4 4 0 0 0-3.995 3.8L8 12a4 4 0 1 0 4-4m4.5-1.5a1 1 0 0 0-.993.883l-.007.127a1 1 0 0 0 1.993.117L17.5 7.5a1 1 0 0 0-1-1"/></symbol><symbol id="hd-icon-tabler-brand-intercom" viewBox="0 0 24 24"><g fill="none" stroke="currentColor" stroke-linecap="round" stroke-linejoin="round" stroke-width="2"><path d="M4 6a2 2 0 0 1 2-2h12a2 2 0 0 1 2 2v12a2 2 0 0 1-2 2H6a2 2 0 0 1-2-2zm3 2v3m3-4v6m4-6v6m3-5v3"/><path d="M7 15c4 2.667 6 2.667 10 0"/></g></symbol><symbol id="hd-icon-tabler-brand-itch" viewBox="0 0 24 24"><g fill="none" stroke="currentColor" stroke-linecap="round" stroke-linejoin="round" stroke-width="2"><path d="M2 7v1c0 1.087 1.078 2 2 2c1.107 0 2-.91 2-2c0 1.09.893 2 2 2s2-.91 2-2c0 1.09.893 2 2 2s2-.91 2-2c0 1.09.893 2 2 2s2-.91 2-2c0 1.09.893 2 2 2c.922 0 2-.913 2-2V7q-.013-.412-1.588-2.068A3 3 0 0 0 18.238 4H5.762a3 3 0 0 0-2.174.932Q2.012 6.588 2 7m2 3q-.176 9.42.814 10.456c1.534.367 4.355.535 7.186.536c2.83-.001 5.652-.169 7.186-.536c.99-1.037.898-9.559.814-10.456"/><path d="m10 16l2-2l2 2m-2-2v4"/></g></symbol><symbol id="hd-icon-tabler-brand-javascript" viewBox="0 0 24 24"><g fill="none" stroke="currentColor" stroke-linecap="round" stroke-linejoin="round" stroke-width="2"><path d="m20 4l-2 14.5l-6 2l-6-2L4 4z"/><path d="M7.5 8h3v8l-2-1m8-7H14a.5.5 0 0 0-.5.5v3a.5.5 0 0 0 .5.5h1.423a.5.5 0 0 1 .495.57L15.5 15.5l-2 .5"/></g></symbol><symbol id="hd-icon-tabler-brand-juejin" viewBox="0 0 24 24"><g fill="none" stroke="currentColor" stroke-linecap="round" stroke-linejoin="round" stroke-width="2"><path d="m2 12l10 7.422L22 12"/><path d="m7 9l5 4l5-4m-6-3l1 .8l1-.8l-1-.8z"/></g></symbol><symbol id="hd-icon-tabler-brand-kako-talk" viewBox="0 0 24 24"><g fill="none" stroke="currentColor" stroke-linecap="round" stroke-linejoin="round" stroke-width="2"><path d="M10 8v7m4-5l-2 2.5l2 2.5"/><path d="M12 4c4.97 0 9 3.358 9 7.5S16.97 19 12 19c-.67 0-1.323-.061-1.95-.177L7 21l.592-2.962C4.851 16.754 3 14.308 3 11.5C3 7.358 7.03 4 12 4"/></g></symbol><symbol id="hd-icon-tabler-brand-kbin" viewBox="0 0 24 24"><g fill="none" stroke="currentColor" stroke-linecap="round" stroke-linejoin="round" stroke-width="1.838"><path d="M10.586 9.506h-2.43C7.722 8.574 7.456 8 6.56 8l-2.404.019c-.662 0-1.353.592-1.103 1.487l2.216 9.436C5.755 20.685 6.08 21 6.414 21h.64"/><path d="M14.275 3h5.645c.84 0 1.24.714 1.02 1.287l-4.687 15.109c-.42 1.133-1.159 1.603-2.354 1.603H6.414c.39 0 .76-.618 1.296-2.061l4.457-14.49c.326-.83.76-1.448 2.108-1.448"/></g></symbol><symbol id="hd-icon-tabler-brand-kick" viewBox="0 0 24 24"><path fill="none" stroke="currentColor" stroke-linecap="round" stroke-linejoin="round" stroke-width="2" d="M4 4h5v4h3V6h2V4h6v4h-2v2h-2v4h2v2h2v4h-6v-2h-2v-2H9v4H4z"/></symbol><symbol id="hd-icon-tabler-brand-kick-filled" viewBox="0 0 24 24"><path fill="currentColor" d="M9 3a1 1 0 0 1 1 1v3h1V6a1 1 0 0 1 .883-.993L12 5h1V4a1 1 0 0 1 .883-.993L14 3h6a1 1 0 0 1 1 1v4a1 1 0 0 1-1 1h-1v1a1 1 0 0 1-.883.993L18 11h-1v2h1a1 1 0 0 1 .993.883L19 14v1h1a1 1 0 0 1 .993.883L21 16v4a1 1 0 0 1-1 1h-6a1 1 0 0 1-1-1v-1h-1a1 1 0 0 1-.993-.883L11 18v-1h-1v3a1 1 0 0 1-.883.993L9 21H4a1 1 0 0 1-1-1V4a1 1 0 0 1 1-1z"/></symbol><symbol id="hd-icon-tabler-brand-kickstarter" viewBox="0 0 24 24"><path fill="none" stroke="currentColor" stroke-linecap="round" stroke-linejoin="round" stroke-width="2" d="m11 9l2.975-4.65Q14.895 3 16.352 3q1.185 0 2.054.858q.865.859.866 2.054q0 .883-.46 1.559L16 11.5l3.465 4.912q.535.692.535 1.613a2.92 2.92 0 0 1-.843 2.098q-.842.877-2.04.877q-1.316 0-2-.87l-4.112-5.697V17.5c0 .876-.313 1.69-.611 2.175C9.851 20.558 9.044 21 8.005 21c-.944 0-1.753-.327-2.271-.974q-.729-.899-.729-2.38V6.275q0-1.402.74-2.313C6.257 3.321 7.092 3 8.005 3c.868 0 1.821.321 2.4.962c.323.356.515.714.6 1.08c.052.224 0 .643 0 1.26V9z"/></symbol><symbol id="hd-icon-tabler-brand-kotlin" viewBox="0 0 24 24"><path fill="none" stroke="currentColor" stroke-linecap="round" stroke-linejoin="round" stroke-width="2" d="M20 20H4V4h16M4 20L20 4M4 12l8-8m0 8l8 8"/></symbol><symbol id="hd-icon-tabler-brand-laravel" viewBox="0 0 24 24"><g fill="none" stroke="currentColor" stroke-linecap="round" stroke-linejoin="round" stroke-width="2"><path d="m3 17l8 5l7-4v-8l-4-2.5L18 5l4 2.5v4L11 18l-4-2.5V8L3 5.5zm8 1v4m-4-6.5l7-4m0-4v4m0 0l4 2.5"/><path d="M11 13V5.5L7 3L3 5.5M7 8l4-2.5m7 4.5l4-2.5"/></g></symbol><symbol id="hd-icon-tabler-brand-lastfm" viewBox="0 0 24 24"><path fill="none" stroke="currentColor" stroke-linecap="round" stroke-linejoin="round" stroke-width="2" d="M20 8c-.83-1-1.388-1-2-1s-2 .271-2 2s1.384 2.233 3 3s2.125 1.812 2 3s-1 2-3 2s-3-1-3.5-2s-1.585-4.78-2.497-6a5 5 0 1 0-1 7"/></symbol><symbol id="hd-icon-tabler-brand-leetcode" viewBox="0 0 24 24"><path fill="none" stroke="currentColor" stroke-linecap="round" stroke-linejoin="round" stroke-width="2" d="M12 13h7.5M9.424 7.268l4.999-4.999m2.21 14.375l-2.402 2.415a3.19 3.19 0 0 1-4.524 0l-3.77-3.787a3.223 3.223 0 0 1 0-4.544l3.77-3.787a3.19 3.19 0 0 1 4.524 0l2.302 2.313"/></symbol><symbol id="hd-icon-tabler-brand-letterboxd" viewBox="0 0 24 24"><g fill="none" stroke="currentColor" stroke-linecap="round" stroke-linejoin="round" stroke-width="2"><path d="M3 12a9 9 0 1 0 18 0a9 9 0 1 0-18 0"/><path d="M6 12a2 2 0 1 0 4 0a2 2 0 1 0-4 0m4 0a2 2 0 1 0 4 0a2 2 0 1 0-4 0m4 0a2 2 0 1 0 4 0a2 2 0 1 0-4 0"/></g></symbol><symbol id="hd-icon-tabler-brand-line" viewBox="0 0 24 24"><path fill="none" stroke="currentColor" stroke-linecap="round" stroke-linejoin="round" stroke-width="2" d="M21 10.663C21 6.439 16.959 3 12 3s-9 3.439-9 7.663c0 3.783 3.201 6.958 7.527 7.56c1.053.239.932.644.696 2.133c-.039.238-.184.932.777.512c.96-.42 5.18-3.201 7.073-5.48C20.377 13.884 21 12.359 21 10.673z"/></symbol><symbol id="hd-icon-tabler-brand-linkedin" viewBox="0 0 24 24"><g fill="none" stroke="currentColor" stroke-linecap="round" stroke-linejoin="round" stroke-width="2"><path d="M8 11v5m0-8v.01M12 16v-5m4 5v-3a2 2 0 1 0-4 0"/><path d="M3 7a4 4 0 0 1 4-4h10a4 4 0 0 1 4 4v10a4 4 0 0 1-4 4H7a4 4 0 0 1-4-4z"/></g></symbol><symbol id="hd-icon-tabler-brand-linkedin-filled" viewBox="0 0 24 24"><path fill="currentColor" d="M17 2a5 5 0 0 1 5 5v10a5 5 0 0 1-5 5H7a5 5 0 0 1-5-5V7a5 5 0 0 1 5-5zm-9 8a1 1 0 0 0-1 1v5a1 1 0 0 0 2 0v-5a1 1 0 0 0-1-1m6 0a3 3 0 0 0-1.168.236l-.125.057A1 1 0 0 0 11 11v5a1 1 0 0 0 2 0v-3a1 1 0 0 1 2 0v3a1 1 0 0 0 2 0v-3a3 3 0 0 0-3-3M8 7a1 1 0 0 0-.993.883L7 8.01a1 1 0 0 0 1.993.117L9 8a1 1 0 0 0-1-1"/></symbol><symbol id="hd-icon-tabler-brand-linktree" viewBox="0 0 24 24"><path fill="none" stroke="currentColor" stroke-linecap="round" stroke-linejoin="round" stroke-width="2" d="M4 10h16M6.5 4.5l11 11m-11 0l11-11M12 10V2m0 13v7"/></symbol><symbol id="hd-icon-tabler-brand-linqpad" viewBox="0 0 24 24"><path fill="none" stroke="currentColor" stroke-linecap="round" stroke-linejoin="round" stroke-width="2" d="M5 21h3.5l2.5-6l2.5-1l2.5 7h4l1-4.5l-2-1l-7-12L6 3l1.5 4l2.5.5l1 2.5l-7 8z"/></symbol><symbol id="hd-icon-tabler-brand-livewire" viewBox="0 0 24 24"><defs><path id="hd-icon-tabler-brand-livewire-547" d="M20.982 18.777C20.61 19.325 20.33 20 19.576 20c-1.269 0-1.337-1.913-2.607-1.913S15.769 20 14.499 20c-1.268 0-1.337-1.913-2.607-1.913c-1.269 0-1.2 1.913-2.47 1.913c-1.268 0-1.337-1.913-2.607-1.913S5.615 20 4.345 20c-.398 0-.679-.189-.915-.448A10.4 10.4 0 0 1 2 14.262C2 8.593 6.477 4 12 4c5.524 0 10 4.594 10 10.261c0 1.62-.366 3.152-1.018 4.516"/></defs><g fill="none" stroke="currentColor" stroke-linecap="round" stroke-linejoin="round" stroke-width="2"><use href="#hd-icon-tabler-brand-livewire-547"/><use href="#hd-icon-tabler-brand-livewire-547"/><path d="M11.5 16c3.167 0 4.5-1.748 4.5-4.231C16 9.285 13.986 7 11.5 7C9.015 7 7 9.286 7 11.769S8.333 16 11.5 16"/><path d="M10 11a1 1 0 1 0 0-2a1 1 0 0 0 0 2"/></g></symbol><symbol id="hd-icon-tabler-brand-loom" viewBox="0 0 24 24"><g fill="none" stroke="currentColor" stroke-linecap="round" stroke-linejoin="round" stroke-width="2"><path d="M17.464 6.518a6 6 0 1 0-3.023 7.965"/><path d="M17.482 17.464a6 6 0 1 0-7.965-3.023"/><path d="M6.54 17.482a6 6 0 1 0 3.024-7.965"/><path d="M6.518 6.54a6 6 0 1 0 7.965 3.024"/></g></symbol><symbol id="hd-icon-tabler-brand-mailgun" viewBox="0 0 24 24"><defs><path id="hd-icon-tabler-brand-mailgun-548" d="M11 12a1 1 0 1 0 2 0a1 1 0 1 0-2 0"/></defs><g fill="none" stroke="currentColor" stroke-linecap="round" stroke-linejoin="round" stroke-width="2"><path d="M17 12a2 2 0 1 0 4 0a9 9 0 1 0-2.987 6.697"/><path d="M7 12a5 5 0 1 0 10 0a5 5 0 1 0-10 0"/><use href="#hd-icon-tabler-brand-mailgun-548"/><use href="#hd-icon-tabler-brand-mailgun-548"/></g></symbol><symbol id="hd-icon-tabler-brand-mantine" viewBox="0 0 24 24"><g fill="none" stroke="currentColor" stroke-linecap="round" stroke-linejoin="round" stroke-width="2"><path d="M3 12a9 9 0 1 0 18 0a9 9 0 1 0-18 0"/><path d="M11 16a4.97 4.97 0 0 0 2-4a5.01 5.01 0 0 0-2-4m3 1h-2m2 6h-2m-2-3h.01"/></g></symbol><symbol id="hd-icon-tabler-brand-mastercard" viewBox="0 0 24 24"><g fill="none" stroke="currentColor" stroke-linecap="round" stroke-linejoin="round" stroke-width="2"><path d="M11 12a3 3 0 1 0 6 0a3 3 0 1 0-6 0"/><path d="M12 9.765a3 3 0 1 0 0 4.47"/><path d="M3 7a2 2 0 0 1 2-2h14a2 2 0 0 1 2 2v10a2 2 0 0 1-2 2H5a2 2 0 0 1-2-2z"/></g></symbol><symbol id="hd-icon-tabler-brand-mastodon" viewBox="0 0 24 24"><g fill="none" stroke="currentColor" stroke-linecap="round" stroke-linejoin="round" stroke-width="2"><path d="M18.648 15.254C16.832 17.017 12 16.88 12 16.88a18.3 18.3 0 0 1-3.288-.256q1.69 2.977 8.982 2.475c-1.945 2.013-13.598 5.257-13.668-7.636L4 10.309c0-3.036.023-4.115 1.352-5.633C7.023 2.766 12 3.01 12 3.01s4.977-.243 6.648 1.667C19.977 6.195 20 7.274 20 10.31s-.456 4.074-1.352 4.944"/><path d="M12 11.204V8.278C12 7.02 11.105 6 10 6S8 7.02 8 8.278V13m4-4.722C12 7.02 12.895 6 14 6s2 1.02 2 2.278V13"/></g></symbol><symbol id="hd-icon-tabler-brand-matrix" viewBox="0 0 24 24"><path fill="none" stroke="currentColor" stroke-linecap="round" stroke-linejoin="round" stroke-width="2" d="M4 3H3v18h1m16 0h1V3h-1M7 9v6m5 0v-3.5a2.5 2.5 0 1 0-5 0v.5m10 3v-3.5a2.5 2.5 0 1 0-5 0v.5"/></symbol><symbol id="hd-icon-tabler-brand-mcdonalds" viewBox="0 0 24 24"><path fill="none" stroke="currentColor" stroke-linecap="round" stroke-linejoin="round" stroke-width="2" d="M20 20c0-3.952-.966-16-4.038-16S12 13.087 12 18.756C12 13.087 11.104 4 8.038 4C4.973 4 4 16.048 4 20"/></symbol><symbol id="hd-icon-tabler-brand-medium" viewBox="0 0 24 24"><g fill="none" stroke="currentColor" stroke-linecap="round" stroke-linejoin="round" stroke-width="2"><path d="M4 6a2 2 0 0 1 2-2h12a2 2 0 0 1 2 2v12a2 2 0 0 1-2 2H6a2 2 0 0 1-2-2z"/><path d="M8 9h1l3 3l3-3h1m-8 6h2m4 0h2M9 9v6m6-6v6"/></g></symbol><symbol id="hd-icon-tabler-brand-meetup" viewBox="0 0 24 24"><g fill="none" stroke="currentColor" stroke-linecap="round" stroke-linejoin="round" stroke-width="2"><path d="M5.455 10.82C6.39 8.657 8.5 7 11 7c2.104 0 2.844 1.915 2 4l-2 6M6.981 7L3 16.914"/><path d="M13 11c.937-2.16 3.071-3.802 5.42-3.972c2.104 0 3.128 1.706 2.284 3.792l-2.454 6.094C17.397 18.59 19 19.5 21 19"/></g></symbol><symbol id="hd-icon-tabler-brand-mercedes" viewBox="0 0 24 24"><path fill="none" stroke="currentColor" stroke-linecap="round" stroke-linejoin="round" stroke-width="2" d="M3 12a9 9 0 1 0 18 0a9 9 0 1 0-18 0m9-9v9m0 0l7 5m-7-5l-7 5"/></symbol><symbol id="hd-icon-tabler-brand-messenger" viewBox="0 0 24 24"><g fill="none" stroke="currentColor" stroke-linecap="round" stroke-linejoin="round" stroke-width="2"><path d="m3 20l1.3-3.9A9 8 0 1 1 7.7 19z"/><path d="m8 13l3-2l2 2l3-2"/></g></symbol><symbol id="hd-icon-tabler-brand-messenger-filled" viewBox="0 0 24 24"><path fill="currentColor" d="M18.894 5.446c3.667 3.127 4.168 8.238 1.152 11.897c-2.842 3.447-7.965 4.583-12.231 2.805l-.233-.101l-4.374.931l-.033.005l-.042.008l-.031.002l-.01.003h-.018L3.022 21l-.024-.001l-.02.001l-.033-.003H2.91l-.022-.004l-.022-.002l-.035-.007l-.034-.005l-.016-.004l-.024-.005l-.049-.016l-.024-.005l-.011-.005l-.022-.007l-.045-.02l-.03-.012l-.011-.006l-.014-.006l-.031-.018l-.045-.024l-.016-.011l-.037-.026l-.04-.027l-.015-.013l-.043-.04l-.025-.02l-.062-.07l-.013-.013l-.011-.014l-.027-.04l-.026-.035a1 1 0 0 1-.054-.095l-.006-.013l-.019-.045l-.02-.042l-.004-.016l-.004-.01l-.011-.04l-.013-.04l-.002-.014l-.005-.019l-.005-.033l-.008-.042l-.002-.031l-.003-.026L2 20.022l.001-.036l.001-.023l.002-.053l.004-.025v-.019l.008-.036l.005-.033l.004-.017l.005-.023l.018-.06l.003-.013l1.15-3.45l-.022-.037C.969 12.45 1.97 7.805 5.59 5.079l.23-.168c3.898-2.766 9.469-2.54 13.073.535m-2.062 5a1 1 0 0 0-1.387-.278l-2.318 1.544l-1.42-1.42a1 1 0 0 0-1.262-.124l-3 2a1 1 0 0 0-.277 1.387l.07.093a1 1 0 0 0 1.317.184l2.317-1.545l1.42 1.42a1 1 0 0 0 1.263.125l3-2a1 1 0 0 0 .277-1.387"/></symbol><symbol id="hd-icon-tabler-brand-meta" viewBox="0 0 24 24"><path fill="none" stroke="currentColor" stroke-linecap="round" stroke-linejoin="round" stroke-width="2" d="M12 10.174Q14.649 5.999 16.648 6c2 0 3.263 2.213 4 5.217c.704 2.869.5 6.783-2 6.783c-1.114 0-2.648-1.565-4.148-3.652a27.6 27.6 0 0 1-2.5-4.174m0 0Q9.351 5.999 7.352 6c-2 0-3.263 2.213-4 5.217c-.704 2.869-.5 6.783 2 6.783C6.466 18 8 16.435 9.5 14.348q1.5-2.087 2.5-4.174"/></symbol><symbol id="hd-icon-tabler-brand-metabrainz" viewBox="0 0 24 24"><path fill="none" stroke="currentColor" stroke-linecap="round" stroke-linejoin="round" stroke-width="2" d="M3 7v10l7 4V3zm18 0v10l-7 4V3z"/></symbol><symbol id="hd-icon-tabler-brand-minecraft" viewBox="0 0 24 24"><g fill="none" stroke="currentColor" stroke-linecap="round" stroke-linejoin="round" stroke-width="2"><path d="M21 16.008V7.99a1.98 1.98 0 0 0-1-1.717l-7-4.008a2.02 2.02 0 0 0-2 0L4 6.273c-.619.355-1 1.01-1 1.718v8.018c0 .709.381 1.363 1 1.717l7 4.008c.62.354 1.38.354 2 0l7-4.008c.619-.355 1-1.01 1-1.718M12 22V12m0 0l8.73-5.04m-17.46 0L12 12m0 5l3.003-1.668m3-1.667L21 12m-9 5l-9-5"/><path d="m15 17l3-1.67v-3L15 14z"/></g></symbol><symbol id="hd-icon-tabler-brand-miniprogram" viewBox="0 0 24 24"><g fill="none" stroke="currentColor" stroke-linecap="round" stroke-linejoin="round" stroke-width="2"><path d="M21 12a9 9 0 1 1-18 0a9 9 0 0 1 18 0"/><path d="M8 11.503a2.5 2.5 0 1 0 4 2v-3a2.5 2.5 0 1 1 4 2"/></g></symbol><symbol id="hd-icon-tabler-brand-mixpanel" viewBox="0 0 24 24"><path fill="none" stroke="currentColor" stroke-linecap="round" stroke-linejoin="round" stroke-width="2" d="M2 12a2.5 2.5 0 1 0 5 0a2.5 2.5 0 1 0-5 0m17 0a1.5 1.5 0 1 0 3 0a1.5 1.5 0 1 0-3 0m-8 0a2 2 0 1 0 4 0a2 2 0 1 0-4 0"/></symbol><symbol id="hd-icon-tabler-brand-monday" viewBox="0 0 24 24"><path fill="none" stroke="currentColor" stroke-linecap="round" stroke-linejoin="round" stroke-width="2" d="M18 15.5a1.5 1.5 0 1 0 3 0a1.5 1.5 0 1 0-3 0M9.5 7a1.5 1.5 0 0 1 1.339 2.177l-4.034 7.074c-.264.447-.75.749-1.305.749a1.5 1.5 0 0 1-1.271-2.297l3.906-6.827A1.5 1.5 0 0 1 9.5 7m7 0a1.5 1.5 0 0 1 1.339 2.177l-4.034 7.074c-.264.447-.75.749-1.305.749a1.5 1.5 0 0 1-1.271-2.297l3.906-6.827A1.5 1.5 0 0 1 16.5 7"/></symbol><symbol id="hd-icon-tabler-brand-mongodb" viewBox="0 0 24 24"><path fill="none" stroke="currentColor" stroke-linecap="round" stroke-linejoin="round" stroke-width="2" d="M12 3v19m6-10.773c0 3.273-1.812 4.77-6 9.273c-4.188-4.503-6-6-6-9.273C6 6.773 9.071 4.3 12 2c2.929 2.3 6 4.773 6 9.227"/></symbol><symbol id="hd-icon-tabler-brand-my-oppo" viewBox="0 0 24 24"><g fill="none" stroke="currentColor" stroke-linecap="round" stroke-linejoin="round" stroke-width="2"><path d="M18.316 5H5.684L2.266 9.019a1.09 1.09 0 0 0 .019 1.447L11.999 21l9.715-10.49a1.09 1.09 0 0 0 .024-1.444z"/><path d="m9 11l3 3l3-3"/></g></symbol><symbol id="hd-icon-tabler-brand-mysql" viewBox="0 0 24 24"><path fill="none" stroke="currentColor" stroke-linecap="round" stroke-linejoin="round" stroke-width="2" d="M13 21c-1.427-1.026-3.59-3.854-4-6c-.486.77-1.501 2-2 2c-1.499-.888-.574-3.973 0-6c-1.596-1.433-2.468-2.458-2.5-4C1.15 3.56 4.056 1.73 7 4h1c8.482.5 6.421 8.07 9 11.5c2.295.522 3.665 2.254 5 3.5c-2.086-.2-2.784-.344-3.5 0c.478 1.64 2.123 2.2 3.5 3M9 7h.01"/></symbol><symbol id="hd-icon-tabler-brand-national-geographic" viewBox="0 0 24 24"><path fill="none" stroke="currentColor" stroke-linecap="round" stroke-linejoin="round" stroke-width="2" d="M7 3h10v18H7z"/></symbol><symbol id="hd-icon-tabler-brand-nem" viewBox="0 0 24 24"><g fill="none" stroke="currentColor" stroke-linecap="round" stroke-linejoin="round" stroke-width="2"><path d="M12.182 2q2.91.033 5.818 1.08l.364.135A23 23 0 0 1 22 5q0 8.427-5.87 13.92q-1.86 1.858-3.78 2.898L12 22q-2.1-1.054-4.13-3.079Q2.001 13.427 2 5q3.817-2.29 7.636-2.832L10 2.12A17 17 0 0 1 11.818 2z"/><path d="M2.1 7.07Q5.21 17.15 12 10q0-6 4.07-7.06l.59-.11m-.31 15.68S19 13 12 10"/></g></symbol><symbol id="hd-icon-tabler-brand-netbeans" viewBox="0 0 24 24"><g fill="none" stroke="currentColor" stroke-linecap="round" stroke-linejoin="round" stroke-width="2"><path d="M19.875 6.27A2.23 2.23 0 0 1 21 8.218v7.284c0 .809-.443 1.555-1.158 1.948l-6.75 4.27a2.27 2.27 0 0 1-2.184 0l-6.75-4.27A2.23 2.23 0 0 1 3 15.502V8.217c0-.809.443-1.554 1.158-1.947l6.75-3.98a2.33 2.33 0 0 1 2.25 0l6.75 3.98z"/><path d="M15.5 9.43a1 1 0 0 1 .5.874v3.268a1 1 0 0 1-.515.874l-3 1.917a1 1 0 0 1-.97 0l-3-1.917A1 1 0 0 1 8 13.573v-3.269a1 1 0 0 1 .514-.874l3-1.786c.311-.173.69-.173 1 0l3 1.787H15.5z"/><path d="M12 21v-9L4.5 7.5M12 12l7.5-4.5M12 3v4.5m7.5 8.5L16 14m-8 0l-3.5 2"/></g></symbol><symbol id="hd-icon-tabler-brand-netease-music" viewBox="0 0 24 24"><path fill="none" stroke="currentColor" stroke-linecap="round" stroke-linejoin="round" stroke-width="2" d="M9 4c-2.93 1.346-5 5.046-5 8.492C4 17 8 20 12 20s8-3 8-7c0-3.513-3.5-5.513-6-5.513S9 9 9 12c0 2 1.5 3 3 3s3-1 3-3c0-3.513-2-4.508-2-6.515c0-3.504 3.5-2.603 4-1.502"/></symbol></svg>