<svg xmlns="http://www.w3.org/2000/svg" xmlns:xlink="http://www.w3.org/1999/xlink"><symbol id="hd-icon-tabler-database-star" viewBox="0 0 24 24"><g fill="none" stroke="currentColor" stroke-linecap="round" stroke-linejoin="round" stroke-width="2"><path d="M4 6c0 1.657 3.582 3 8 3s8-1.343 8-3s-3.582-3-8-3s-8 1.343-8 3"/><path d="M4 6v6c0 1.43 2.67 2.627 6.243 2.927M20 10.5V6"/><path d="M4 12v6c0 1.546 3.12 2.82 7.128 2.982m6.672-.165l-2.172 1.138a.392.392 0 0 1-.568-.41l.415-2.411l-1.757-1.707a.389.389 0 0 1 .217-.665l2.428-.352l1.086-2.193a.392.392 0 0 1 .702 0l1.086 2.193l2.428.352a.39.39 0 0 1 .217.665l-1.757 1.707l.414 2.41a.39.39 0 0 1-.567.411z"/></g></symbol><symbol id="hd-icon-tabler-database-x" viewBox="0 0 24 24"><g fill="none" stroke="currentColor" stroke-linecap="round" stroke-linejoin="round" stroke-width="2"><path d="M4 6c0 1.657 3.582 3 8 3s8-1.343 8-3s-3.582-3-8-3s-8 1.343-8 3"/><path d="M4 6v6c0 1.657 3.582 3 8 3q.807 0 1.57-.058M20 13.5V6"/><path d="M4 12v6c0 1.657 3.582 3 8 3q.577 0 1.132-.03M22 22l-5-5m0 5l5-5"/></g></symbol><symbol id="hd-icon-tabler-deaf" viewBox="0 0 24 24"><g fill="none" stroke="currentColor" stroke-linecap="round" stroke-linejoin="round" stroke-width="2"><path d="M6 10a7 7 0 1 1 13 3.6a10 10 0 0 1-2 2a8 8 0 0 0-2 3A4.5 4.5 0 0 1 8.2 20"/><path d="M10 10a3 3 0 1 1 5 2.2M5 13l4 4m0-4l-4 4"/></g></symbol><symbol id="hd-icon-tabler-decimal" viewBox="0 0 24 24"><path fill="none" stroke="currentColor" stroke-linecap="round" stroke-linejoin="round" stroke-width="2" d="M17 8a2 2 0 0 1 2 2v4a2 2 0 1 1-4 0v-4a2 2 0 0 1 2-2m-7 0a2 2 0 0 1 2 2v4a2 2 0 1 1-4 0v-4a2 2 0 0 1 2-2m-5 8h.01"/></symbol><symbol id="hd-icon-tabler-deer" viewBox="0 0 24 24"><g fill="none" stroke="currentColor" stroke-linecap="round" stroke-linejoin="round" stroke-width="2"><path d="M3 3c0 2 1 3 4 3q3 0 3 3m11-6c0 2-1 3-4 3c-2 0-3 .333-3 3m-2 9c-1 0-4-3-4-6q0-3 4-3c4 0 4 1 4 3c0 3-3 6-4 6"/><path d="m15.185 14.889l.095-.18a4 4 0 1 1-6.56 0M17 3q0 2-1 3M7 3q0 2 1 3M7 6Q3 7 2 9m15-3q4 1 5 3M8.5 10L7 9m8.5 1L17 9m-5 6h.01"/></g></symbol><symbol id="hd-icon-tabler-delta" viewBox="0 0 24 24"><path fill="none" stroke="currentColor" stroke-linecap="round" stroke-linejoin="round" stroke-width="2" d="M4 20h16L12 4z"/></symbol><symbol id="hd-icon-tabler-dental" viewBox="0 0 24 24"><path fill="none" stroke="currentColor" stroke-linecap="round" stroke-linejoin="round" stroke-width="2" d="M12 5.5C10.926 4.914 9.417 4 8 4C5.9 4 4 5.247 4 9c0 4.899 1.056 8.41 2.671 10.537c.573.756 1.97.521 2.567-.236q.597-.758 1.262-2.801c.292-.771.892-1.504 1.5-1.5c.602 0 1.21.737 1.5 1.5q.665 2.043 1.262 2.8c.597.759 2 .993 2.567.237C18.944 17.41 20 13.9 20 9c0-3.74-1.908-5-4-5c-1.423 0-2.92.911-4 1.5m0 0L15 7"/></symbol><symbol id="hd-icon-tabler-dental-broken" viewBox="0 0 24 24"><g fill="none" stroke="currentColor" stroke-linecap="round" stroke-linejoin="round" stroke-width="2"><path d="M12 5.5C10.926 4.914 9.417 4 8 4C5.9 4 4 5.247 4 9c0 4.899 1.056 8.41 2.671 10.537c.573.756 1.97.521 2.567-.236q.597-.758 1.262-2.801c.292-.771.892-1.504 1.5-1.5c.602 0 1.21.737 1.5 1.5q.665 2.043 1.262 2.8c.597.759 2 .993 2.567.237C18.944 17.41 20 13.9 20 9c0-3.74-1.908-5-4-5c-1.423 0-2.92.911-4 1.5"/><path d="M12 5.5L13 8l-2 2l2 2"/></g></symbol><symbol id="hd-icon-tabler-dental-off" viewBox="0 0 24 24"><path fill="none" stroke="currentColor" stroke-linecap="round" stroke-linejoin="round" stroke-width="2" d="M19.277 15.281C19.74 13.531 20 11.437 20 9c0-3.74-1.908-5-4-5c-1.423 0-2.92.911-4 1.5C10.926 4.914 9.417 4 8 4M5.157 5.153C4.45 5.937 4 7.17 4 9c0 4.899 1.056 8.41 2.671 10.537c.573.756 1.97.521 2.567-.236q.597-.758 1.262-2.801c.292-.771.892-1.504 1.5-1.5c.602 0 1.21.737 1.5 1.5q.665 2.043 1.262 2.8c.597.759 2 .993 2.567.237q.458-.603.852-1.353M12 5.5L15 7M3 3l18 18"/></symbol><symbol id="hd-icon-tabler-deselect" viewBox="0 0 24 24"><path fill="none" stroke="currentColor" stroke-linecap="round" stroke-linejoin="round" stroke-width="2" d="M12 8h3a1 1 0 0 1 1 1v3m0 4H9a1 1 0 0 1-1-1V8m4 12v.01m4-.01v.01M8 20v.01M4 20v.01M4 16v.01M4 12v.01M4 8v.01M8 4v.01M12 4v.01M16 4v.01M20 4v.01M20 8v.01M20 12v.01M20 16v.01M3 3l18 18"/></symbol><symbol id="hd-icon-tabler-desk" viewBox="0 0 24 24"><path fill="none" stroke="currentColor" stroke-linecap="round" stroke-linejoin="round" stroke-width="2" d="M3 6h18M4 6v13m16 0V6M4 10h16m-5-4v8a2 2 0 0 0 2 2h3"/></symbol><symbol id="hd-icon-tabler-details" viewBox="0 0 24 24"><path fill="none" stroke="currentColor" stroke-linecap="round" stroke-linejoin="round" stroke-width="2" d="M11.999 3L12 20M10.363 3.591L2.257 17.125a1.914 1.914 0 0 0 1.636 2.871h16.214a1.914 1.914 0 0 0 1.636-2.87L13.637 3.59a1.914 1.914 0 0 0-3.274 0"/></symbol><symbol id="hd-icon-tabler-details-off" viewBox="0 0 24 24"><path fill="none" stroke="currentColor" stroke-linecap="round" stroke-linejoin="round" stroke-width="2" d="M5 19h14m1.986-2.016a2 2 0 0 0-.146-.734L13.74 4a2 2 0 0 0-3.5 0l-.821 1.417M7.95 7.951L3.14 16.25A2 2 0 0 0 4.89 19M12 3v5m0 4v7M3 3l18 18"/></symbol><symbol id="hd-icon-tabler-device-airpods" viewBox="0 0 24 24"><path fill="none" stroke="currentColor" stroke-linecap="round" stroke-linejoin="round" stroke-width="2" d="M6 4a4 4 0 0 1 4 3.8v10.7a1.5 1.5 0 0 1-3 0V12H6a4 4 0 0 1-4-3.8V8a4 4 0 0 1 4-4m12 0a4 4 0 0 0-4 3.8v10.7a1.5 1.5 0 0 0 3 0V12h1a4 4 0 0 0 4-3.8V8a4 4 0 0 0-4-4"/></symbol><symbol id="hd-icon-tabler-device-airpods-case" viewBox="0 0 24 24"><g fill="none" stroke="currentColor" stroke-linecap="round" stroke-linejoin="round" stroke-width="2"><path d="M21 10H3m0-2a4 4 0 0 1 4-4h10a4 4 0 0 1 4 4v8a4 4 0 0 1-4 4H7a4 4 0 0 1-4-4z"/><path d="M7 10v1.5A1.5 1.5 0 0 0 8.5 13h7a1.5 1.5 0 0 0 1.5-1.5V10"/></g></symbol><symbol id="hd-icon-tabler-device-airtag" viewBox="0 0 24 24"><g fill="none" stroke="currentColor" stroke-linecap="round" stroke-linejoin="round" stroke-width="2"><path d="M4 12a8 8 0 1 0 16 0a8 8 0 0 0-16 0m5 3v.01"/><path d="M15 15a6 6 0 0 0-6-6m3 6a3 3 0 0 0-3-3"/></g></symbol><symbol id="hd-icon-tabler-device-analytics" viewBox="0 0 24 24"><g fill="none" stroke="currentColor" stroke-linecap="round" stroke-linejoin="round" stroke-width="2"><path d="M3 5a1 1 0 0 1 1-1h16a1 1 0 0 1 1 1v10a1 1 0 0 1-1 1H4a1 1 0 0 1-1-1zm4 15h10m-8-4v4m6-4v4"/><path d="m8 12l3-3l2 2l3-3"/></g></symbol><symbol id="hd-icon-tabler-device-audio-tape" viewBox="0 0 24 24"><g fill="none" stroke="currentColor" stroke-linecap="round" stroke-linejoin="round" stroke-width="2"><path d="M3 7a2 2 0 0 1 2-2h14a2 2 0 0 1 2 2v10a2 2 0 0 1-2 2H5a2 2 0 0 1-2-2z"/><path d="m3 17l4-3h10l4 3"/><path fill="currentColor" d="M7 9.5a.5.5 0 1 0 1 0a.5.5 0 1 0-1 0m9 0a.5.5 0 1 0 1 0a.5.5 0 1 0-1 0"/></g></symbol><symbol id="hd-icon-tabler-device-camera-phone" viewBox="0 0 24 24"><path fill="none" stroke="currentColor" stroke-linecap="round" stroke-linejoin="round" stroke-width="2" d="M16 8.5a2.5 2.5 0 1 0 5 0a2.5 2.5 0 1 0-5 0M13 7H5a2 2 0 0 0-2 2v7a2 2 0 0 0 2 2h13a2 2 0 0 0 2-2v-2m-3 1v-1"/></symbol><symbol id="hd-icon-tabler-device-cctv" viewBox="0 0 24 24"><g fill="none" stroke="currentColor" stroke-linecap="round" stroke-linejoin="round" stroke-width="2"><path d="M3 4a1 1 0 0 1 1-1h16a1 1 0 0 1 1 1v2a1 1 0 0 1-1 1H4a1 1 0 0 1-1-1zm5 10a4 4 0 1 0 8 0a4 4 0 1 0-8 0"/><path d="M19 7v7a7 7 0 0 1-14 0V7m7 7h.01"/></g></symbol><symbol id="hd-icon-tabler-device-cctv-filled" viewBox="0 0 24 24"><path fill="currentColor" d="M20 8v6a8 8 0 1 1-16 0V8zm-8 2a4 4 0 0 0-3.996 3.826L8 14a4 4 0 1 0 4-4m.01 3a1 1 0 0 1 .117 1.993L12 15a1 1 0 0 1-.117-1.993zM2 5V4a2 2 0 0 1 2-2h16a2 2 0 0 1 2 2v1a2 2 0 0 1-2 2H4a2 2 0 0 1-2-2"/></symbol><symbol id="hd-icon-tabler-device-cctv-off" viewBox="0 0 24 24"><g fill="none" stroke="currentColor" stroke-linecap="round" stroke-linejoin="round" stroke-width="2"><path d="M7 7H4a1 1 0 0 1-1-1V4c0-.275.11-.523.29-.704M7 3h13a1 1 0 0 1 1 1v2a1 1 0 0 1-1 1h-9m-.64 3.35a4 4 0 1 0 5.285 5.3"/><path d="M19 7v7q0 .482-.064.947m-1.095 2.913A7 7 0 0 1 5 14V7m7 7h.01M3 3l18 18"/></g></symbol><symbol id="hd-icon-tabler-device-computer-camera" viewBox="0 0 24 24"><g fill="none" stroke="currentColor" stroke-linecap="round" stroke-linejoin="round" stroke-width="2"><path d="M5 10a7 7 0 1 0 14 0a7 7 0 1 0-14 0"/><path d="M9 10a3 3 0 1 0 6 0a3 3 0 1 0-6 0m-1 6l-2.091 3.486A1 1 0 0 0 6.766 21h10.468a1 1 0 0 0 .857-1.514L16 16"/></g></symbol><symbol id="hd-icon-tabler-device-computer-camera-off" viewBox="0 0 24 24"><g fill="none" stroke="currentColor" stroke-linecap="round" stroke-linejoin="round" stroke-width="2"><path d="M6.15 6.153a7 7 0 0 0 9.696 9.696m2-2a7 7 0 0 0-9.699-9.695"/><path d="M9.13 9.122a3 3 0 0 0 3.743 3.749m2-2a3 3 0 0 0-3.737-3.736M8 16l-2.091 3.486A1 1 0 0 0 6.766 21h10.468a1 1 0 0 0 .857-1.514L16 16M3 3l18 18"/></g></symbol><symbol id="hd-icon-tabler-device-desktop" viewBox="0 0 24 24"><path fill="none" stroke="currentColor" stroke-linecap="round" stroke-linejoin="round" stroke-width="2" d="M3 5a1 1 0 0 1 1-1h16a1 1 0 0 1 1 1v10a1 1 0 0 1-1 1H4a1 1 0 0 1-1-1zm4 15h10m-8-4v4m6-4v4"/></symbol><symbol id="hd-icon-tabler-device-desktop-analytics" viewBox="0 0 24 24"><path fill="none" stroke="currentColor" stroke-linecap="round" stroke-linejoin="round" stroke-width="2" d="M3 5a1 1 0 0 1 1-1h16a1 1 0 0 1 1 1v10a1 1 0 0 1-1 1H4a1 1 0 0 1-1-1zm4 15h10m-8-4v4m6-4v4m-6-8V8m3 4v-1m3 1v-2m-3 2v-1"/></symbol><symbol id="hd-icon-tabler-device-desktop-bolt" viewBox="0 0 24 24"><path fill="none" stroke="currentColor" stroke-linecap="round" stroke-linejoin="round" stroke-width="2" d="M14.5 16H4a1 1 0 0 1-1-1V5a1 1 0 0 1 1-1h16a1 1 0 0 1 1 1v7.5M7 20h6m-4-4v4m10-4l-2 3h4l-2 3"/></symbol><symbol id="hd-icon-tabler-device-desktop-cancel" viewBox="0 0 24 24"><path fill="none" stroke="currentColor" stroke-linecap="round" stroke-linejoin="round" stroke-width="2" d="M12.5 16H4a1 1 0 0 1-1-1V5a1 1 0 0 1 1-1h16a1 1 0 0 1 1 1v7.5M7 20h5m-3-4v4m7-1a3 3 0 1 0 6 0a3 3 0 1 0-6 0m1 2l4-4"/></symbol><symbol id="hd-icon-tabler-device-desktop-check" viewBox="0 0 24 24"><path fill="none" stroke="currentColor" stroke-linecap="round" stroke-linejoin="round" stroke-width="2" d="M12 16H4a1 1 0 0 1-1-1V5a1 1 0 0 1 1-1h16a1 1 0 0 1 1 1v8m-6 6l2 2l4-4M7 20h4m-2-4v4"/></symbol><symbol id="hd-icon-tabler-device-desktop-code" viewBox="0 0 24 24"><path fill="none" stroke="currentColor" stroke-linecap="round" stroke-linejoin="round" stroke-width="2" d="M12.5 16H4a1 1 0 0 1-1-1V5a1 1 0 0 1 1-1h16a1 1 0 0 1 1 1v8M7 20h4m-2-4v4m11 1l2-2l-2-2m-3 0l-2 2l2 2"/></symbol><symbol id="hd-icon-tabler-device-desktop-cog" viewBox="0 0 24 24"><path fill="none" stroke="currentColor" stroke-linecap="round" stroke-linejoin="round" stroke-width="2" d="M12 16H4a1 1 0 0 1-1-1V5a1 1 0 0 1 1-1h16a1 1 0 0 1 1 1v7M7 20h5m-3-4v4m8.001-1a2 2 0 1 0 4 0a2 2 0 1 0-4 0m2-3.5V17m0 4v1.5m3.031-5.25l-1.299.75m-3.463 2l-1.3.75m0-3.5l1.3.75m3.463 2l1.3.75"/></symbol><symbol id="hd-icon-tabler-device-desktop-dollar" viewBox="0 0 24 24"><path fill="none" stroke="currentColor" stroke-linecap="round" stroke-linejoin="round" stroke-width="2" d="M13 16H4a1 1 0 0 1-1-1V5a1 1 0 0 1 1-1h16a1 1 0 0 1 1 1v5.5M7 20h6.5M9 16v4m12-5h-2.5a1.5 1.5 0 0 0 0 3h1a1.5 1.5 0 0 1 0 3H17m2 0v1m0-8v1"/></symbol><symbol id="hd-icon-tabler-device-desktop-down" viewBox="0 0 24 24"><path fill="none" stroke="currentColor" stroke-linecap="round" stroke-linejoin="round" stroke-width="2" d="M13.5 16H4a1 1 0 0 1-1-1V5a1 1 0 0 1 1-1h16a1 1 0 0 1 1 1v7.5M7 20h5m-3-4v4m10-4v6m3-3l-3 3l-3-3"/></symbol><symbol id="hd-icon-tabler-device-desktop-exclamation" viewBox="0 0 24 24"><path fill="none" stroke="currentColor" stroke-linecap="round" stroke-linejoin="round" stroke-width="2" d="M15 16H4a1 1 0 0 1-1-1V5a1 1 0 0 1 1-1h16a1 1 0 0 1 1 1v7M7 20h8m-6-4v4m6-4v4m4-4v3m0 3v.01"/></symbol><symbol id="hd-icon-tabler-device-desktop-filled" viewBox="0 0 24 24"><path fill="currentColor" d="M7 21a1 1 0 0 1 0-2h1v-2H4a2 2 0 0 1-2-2V5a2 2 0 0 1 2-2h16a2 2 0 0 1 2 2v10a2 2 0 0 1-2 2h-4v2h1a1 1 0 0 1 0 2zm7-4h-4v2h4z"/></symbol><symbol id="hd-icon-tabler-device-desktop-heart" viewBox="0 0 24 24"><path fill="none" stroke="currentColor" stroke-linecap="round" stroke-linejoin="round" stroke-width="2" d="M10 16H4a1 1 0 0 1-1-1V5a1 1 0 0 1 1-1h16a1 1 0 0 1 1 1v6M7 20h3.5M9 16v4m9 2l3.35-3.284a2.143 2.143 0 0 0 .005-3.071a2.24 2.24 0 0 0-3.129-.006l-.224.22l-.223-.22a2.24 2.24 0 0 0-3.128-.006a2.143 2.143 0 0 0-.006 3.071z"/></symbol><symbol id="hd-icon-tabler-device-desktop-minus" viewBox="0 0 24 24"><path fill="none" stroke="currentColor" stroke-linecap="round" stroke-linejoin="round" stroke-width="2" d="M13.5 16H4a1 1 0 0 1-1-1V5a1 1 0 0 1 1-1h16a1 1 0 0 1 1 1v10M7 20h5m-3-4v4m7-1h6"/></symbol><symbol id="hd-icon-tabler-device-desktop-off" viewBox="0 0 24 24"><path fill="none" stroke="currentColor" stroke-linecap="round" stroke-linejoin="round" stroke-width="2" d="M8 4h12a1 1 0 0 1 1 1v10a1 1 0 0 1-1 1m-4 0H4a1 1 0 0 1-1-1V5a1 1 0 0 1 1-1m3 16h10m-8-4v4m6-4v4M3 3l18 18"/></symbol><symbol id="hd-icon-tabler-device-desktop-pause" viewBox="0 0 24 24"><path fill="none" stroke="currentColor" stroke-linecap="round" stroke-linejoin="round" stroke-width="2" d="M13 16H4a1 1 0 0 1-1-1V5a1 1 0 0 1 1-1h16a1 1 0 0 1 1 1v8m-4 4v5m4-5v5M7 20h6m-4-4v4"/></symbol><symbol id="hd-icon-tabler-device-desktop-pin" viewBox="0 0 24 24"><path fill="none" stroke="currentColor" stroke-linecap="round" stroke-linejoin="round" stroke-width="2" d="M12.5 16H4a1 1 0 0 1-1-1V5a1 1 0 0 1 1-1h16a1 1 0 0 1 1 1v6m.121 9.121a3 3 0 1 0-4.242 0Q17.506 20.749 19 22q1.577-1.335 2.121-1.879M19 18v.01M7 20h5m-3-4v4"/></symbol><symbol id="hd-icon-tabler-device-desktop-plus" viewBox="0 0 24 24"><path fill="none" stroke="currentColor" stroke-linecap="round" stroke-linejoin="round" stroke-width="2" d="M13.5 16H4a1 1 0 0 1-1-1V5a1 1 0 0 1 1-1h16a1 1 0 0 1 1 1v7.5M7 20h5m-3-4v4m7-1h6m-3-3v6"/></symbol><symbol id="hd-icon-tabler-device-desktop-question" viewBox="0 0 24 24"><path fill="none" stroke="currentColor" stroke-linecap="round" stroke-linejoin="round" stroke-width="2" d="M13.5 16H4a1 1 0 0 1-1-1V5a1 1 0 0 1 1-1h16a1 1 0 0 1 1 1v6.5M7 20h8m-6-4v4m10 2v.01M19 19a2.003 2.003 0 0 0 .914-3.782a1.98 1.98 0 0 0-2.414.483"/></symbol><symbol id="hd-icon-tabler-device-desktop-search" viewBox="0 0 24 24"><path fill="none" stroke="currentColor" stroke-linecap="round" stroke-linejoin="round" stroke-width="2" d="M11.5 16H4a1 1 0 0 1-1-1V5a1 1 0 0 1 1-1h16a1 1 0 0 1 1 1v6.5M7 20h4m-2-4v4m6-2a3 3 0 1 0 6 0a3 3 0 1 0-6 0m5.2 2.2L22 22"/></symbol><symbol id="hd-icon-tabler-device-desktop-share" viewBox="0 0 24 24"><path fill="none" stroke="currentColor" stroke-linecap="round" stroke-linejoin="round" stroke-width="2" d="M12.5 16H4a1 1 0 0 1-1-1V5a1 1 0 0 1 1-1h16a1 1 0 0 1 1 1v8M7 20h5.5M9 16v4m7 2l5-5m0 4.5V17h-4.5"/></symbol><symbol id="hd-icon-tabler-device-desktop-star" viewBox="0 0 24 24"><path fill="none" stroke="currentColor" stroke-linecap="round" stroke-linejoin="round" stroke-width="2" d="M10 16H4a1 1 0 0 1-1-1V5a1 1 0 0 1 1-1h16a1 1 0 0 1 1 1v6.5M7 20h3.5M9 16v4m8.8.817l-2.172 1.138a.392.392 0 0 1-.568-.41l.415-2.411l-1.757-1.707a.389.389 0 0 1 .217-.665l2.428-.352l1.086-2.193a.392.392 0 0 1 .702 0l1.086 2.193l2.428.352a.39.39 0 0 1 .217.665l-1.757 1.707l.414 2.41a.39.39 0 0 1-.567.411z"/></symbol><symbol id="hd-icon-tabler-device-desktop-up" viewBox="0 0 24 24"><path fill="none" stroke="currentColor" stroke-linecap="round" stroke-linejoin="round" stroke-width="2" d="M13.5 16H4a1 1 0 0 1-1-1V5a1 1 0 0 1 1-1h16a1 1 0 0 1 1 1v7.5M19 22v-6m3 3l-3-3l-3 3m-9 1h5m-3-4v4"/></symbol><symbol id="hd-icon-tabler-device-desktop-x" viewBox="0 0 24 24"><path fill="none" stroke="currentColor" stroke-linecap="round" stroke-linejoin="round" stroke-width="2" d="M13 16H4a1 1 0 0 1-1-1V5a1 1 0 0 1 1-1h16a1 1 0 0 1 1 1v8M7 20h6.5M9 16v4m13 2l-5-5m0 5l5-5"/></symbol><symbol id="hd-icon-tabler-device-floppy" viewBox="0 0 24 24"><g fill="none" stroke="currentColor" stroke-linecap="round" stroke-linejoin="round" stroke-width="2"><path d="M6 4h10l4 4v10a2 2 0 0 1-2 2H6a2 2 0 0 1-2-2V6a2 2 0 0 1 2-2"/><path d="M10 14a2 2 0 1 0 4 0a2 2 0 1 0-4 0m4-10v4H8V4"/></g></symbol><symbol id="hd-icon-tabler-device-gamepad" viewBox="0 0 24 24"><path fill="none" stroke="currentColor" stroke-linecap="round" stroke-linejoin="round" stroke-width="2" d="M2 8a2 2 0 0 1 2-2h16a2 2 0 0 1 2 2v8a2 2 0 0 1-2 2H4a2 2 0 0 1-2-2zm4 4h4m-2-2v4m7-3v.01M18 13v.01"/></symbol><symbol id="hd-icon-tabler-device-gamepad-2" viewBox="0 0 24 24"><g fill="none" stroke="currentColor" stroke-linecap="round" stroke-linejoin="round" stroke-width="2"><path d="M12 5h3.5a5 5 0 0 1 0 10H10l-4.015 4.227a2.3 2.3 0 0 1-3.923-2.035l1.634-8.173A5 5 0 0 1 8.6 5z"/><path d="m14 15l4.07 4.284a2.3 2.3 0 0 0 3.925-2.023l-1.6-8.232M8 9v2m-1-1h2m5 0h2"/></g></symbol><symbol id="hd-icon-tabler-device-gamepad-3" viewBox="0 0 24 24"><path fill="none" stroke="currentColor" stroke-linecap="round" stroke-linejoin="round" stroke-width="2" d="M9 12L6 9H4a1 1 0 0 0-1 1v4a1 1 0 0 0 1 1h2zm6 0l3-3h2a1 1 0 0 1 1 1v4a1 1 0 0 1-1 1h-2zm-3 3l-3 3v2a1 1 0 0 0 1 1h4a1 1 0 0 0 1-1v-2zm0-6L9 6V4a1 1 0 0 1 1-1h4a1 1 0 0 1 1 1v2z"/></symbol><symbol id="hd-icon-tabler-device-gamepad-3-filled" viewBox="0 0 24 24"><path fill="currentColor" d="m12.707 14.293l3 3A1 1 0 0 1 16 18v2a2 2 0 0 1-2 2h-4a2 2 0 0 1-2-2v-2a1 1 0 0 1 .293-.707l3-3a1 1 0 0 1 1.414 0M6 8a1 1 0 0 1 .707.293l3 3a1 1 0 0 1 0 1.414l-3 3A1 1 0 0 1 6 16H4a2 2 0 0 1-2-2v-4a2 2 0 0 1 2-2zm14 0a2 2 0 0 1 2 2v4a2 2 0 0 1-2 2h-2a1 1 0 0 1-.707-.293l-3-3a1 1 0 0 1 0-1.414l3-3A1 1 0 0 1 18 8zm-6-6a2 2 0 0 1 2 2v2a1 1 0 0 1-.293.707l-3 3a1 1 0 0 1-1.414 0l-3-3A1 1 0 0 1 8 6V4a2 2 0 0 1 2-2z"/></symbol><symbol id="hd-icon-tabler-device-gamepad-filled" viewBox="0 0 24 24"><path fill="currentColor" d="M20 5a3 3 0 0 1 3 3v8a3 3 0 0 1-3 3H4a3 3 0 0 1-3-3V8a3 3 0 0 1 3-3zM8 9l-.117.007A1 1 0 0 0 7 10v1H6a1 1 0 0 0-1 1l.007.117A1 1 0 0 0 6 13h1v1a1 1 0 0 0 1 1l.117-.007A1 1 0 0 0 9 14v-1h1a1 1 0 0 0 1-1l-.007-.117A1 1 0 0 0 10 11H9v-1a1 1 0 0 0-1-1m10 3a1 1 0 0 0-1 1v.01a1 1 0 0 0 2 0V13a1 1 0 0 0-1-1m-3-2a1 1 0 0 0-1 1v.01a1 1 0 0 0 2 0V11a1 1 0 0 0-1-1"/></symbol><symbol id="hd-icon-tabler-device-heart-monitor" viewBox="0 0 24 24"><g fill="none" stroke="currentColor" stroke-linecap="round" stroke-linejoin="round" stroke-width="2"><path d="M4 6a2 2 0 0 1 2-2h12a2 2 0 0 1 2 2v12a2 2 0 0 1-2 2H6a2 2 0 0 1-2-2z"/><path d="M4 9h6l1-2l2 4l1-2h6M4 14h16m-6 3v.01m3-.01v.01"/></g></symbol><symbol id="hd-icon-tabler-device-heart-monitor-filled" viewBox="0 0 24 24"><path fill="currentColor" d="M18 3a3 3 0 0 1 2.995 2.824L21 6v12a3 3 0 0 1-2.824 2.995L18 21H6a3 3 0 0 1-2.995-2.824L3 18V6a3 3 0 0 1 2.824-2.995L6 3zm-4 13a1 1 0 0 0-.993.883L13 17l.007.127a1 1 0 0 0 1.986 0L15 17.01l-.007-.127A1 1 0 0 0 14 16m3 0a1 1 0 0 0-.993.883L16 17l.007.127a1 1 0 0 0 1.986 0L18 17.01l-.007-.127A1 1 0 0 0 17 16m-6-6.764l-.106.211a1 1 0 0 1-.77.545L10 10l-5-.001V13h14V9.999L14.618 10l-.724 1.447a1 1 0 0 1-1.725.11l-.063-.11zM18 5H6a1 1 0 0 0-.993.883L5 6v1.999L9.381 8l.725-1.447a1 1 0 0 1 1.725-.11l.063.11L13 8.763l.106-.21a1 1 0 0 1 .77-.545L14 8l5-.001V6a1 1 0 0 0-.883-.993z"/></symbol><symbol id="hd-icon-tabler-device-imac" viewBox="0 0 24 24"><path fill="none" stroke="currentColor" stroke-linecap="round" stroke-linejoin="round" stroke-width="2" d="M3 4a1 1 0 0 1 1-1h16a1 1 0 0 1 1 1v12a1 1 0 0 1-1 1H4a1 1 0 0 1-1-1zm0 9h18M8 21h8m-6-4l-.5 4m4.5-4l.5 4"/></symbol><symbol id="hd-icon-tabler-device-imac-bolt" viewBox="0 0 24 24"><path fill="none" stroke="currentColor" stroke-linecap="round" stroke-linejoin="round" stroke-width="2" d="M13.5 17H4a1 1 0 0 1-1-1V4a1 1 0 0 1 1-1h16a1 1 0 0 1 1 1v8.5M3 13h13m-8 8h5.5M10 17l-.5 4m9.5-5l-2 3h4l-2 3"/></symbol><symbol id="hd-icon-tabler-device-imac-cancel" viewBox="0 0 24 24"><path fill="none" stroke="currentColor" stroke-linecap="round" stroke-linejoin="round" stroke-width="2" d="M12.5 17H4a1 1 0 0 1-1-1V4a1 1 0 0 1 1-1h16a1 1 0 0 1 1 1v8M3 13h12.5M8 21h4.5M10 17l-.5 4m6.5-2a3 3 0 1 0 6 0a3 3 0 1 0-6 0m1 2l4-4"/></symbol><symbol id="hd-icon-tabler-device-imac-check" viewBox="0 0 24 24"><path fill="none" stroke="currentColor" stroke-linecap="round" stroke-linejoin="round" stroke-width="2" d="M11.5 17H4a1 1 0 0 1-1-1V4a1 1 0 0 1 1-1h16a1 1 0 0 1 1 1v9M3 13h18M8 21h3.5M10 17l-.5 4m5.5-2l2 2l4-4"/></symbol><symbol id="hd-icon-tabler-device-imac-code" viewBox="0 0 24 24"><path fill="none" stroke="currentColor" stroke-linecap="round" stroke-linejoin="round" stroke-width="2" d="M11.5 17H4a1 1 0 0 1-1-1V4a1 1 0 0 1 1-1h16a1 1 0 0 1 1 1v9M3 13h18M8 21h3.5M10 17l-.5 4M20 21l2-2l-2-2m-3 0l-2 2l2 2"/></symbol><symbol id="hd-icon-tabler-device-imac-cog" viewBox="0 0 24 24"><path fill="none" stroke="currentColor" stroke-linecap="round" stroke-linejoin="round" stroke-width="2" d="M12 17H4a1 1 0 0 1-1-1V4a1 1 0 0 1 1-1h16a1 1 0 0 1 1 1v8M3 13h13m-8 8h4m-2-4l-.5 4m7.501-2a2 2 0 1 0 4 0a2 2 0 1 0-4 0m2-3.5V17m0 4v1.5m3.031-5.25l-1.299.75m-3.463 2l-1.3.75m0-3.5l1.3.75m3.463 2l1.3.75"/></symbol><symbol id="hd-icon-tabler-device-imac-dollar" viewBox="0 0 24 24"><path fill="none" stroke="currentColor" stroke-linecap="round" stroke-linejoin="round" stroke-width="2" d="M13 17H4a1 1 0 0 1-1-1V4a1 1 0 0 1 1-1h16a1 1 0 0 1 1 1v6.5M3 13h11m-6 8h5m-3-4l-.5 4M21 15h-2.5a1.5 1.5 0 0 0 0 3h1a1.5 1.5 0 0 1 0 3H17m2 0v1m0-8v1"/></symbol><symbol id="hd-icon-tabler-device-imac-down" viewBox="0 0 24 24"><path fill="none" stroke="currentColor" stroke-linecap="round" stroke-linejoin="round" stroke-width="2" d="M12.5 17H4a1 1 0 0 1-1-1V4a1 1 0 0 1 1-1h16a1 1 0 0 1 1 1v8.5M3 13h13m-8 8h4.5M10 17l-.5 4m9.5-5v6m3-3l-3 3l-3-3"/></symbol><symbol id="hd-icon-tabler-device-imac-exclamation" viewBox="0 0 24 24"><path fill="none" stroke="currentColor" stroke-linecap="round" stroke-linejoin="round" stroke-width="2" d="M15 17H4a1 1 0 0 1-1-1V4a1 1 0 0 1 1-1h16a1 1 0 0 1 1 1v8.5M3 13h13m-8 8h7m-5-4l-.5 4m4.5-4l.5 4m4.5-5v3m0 3v.01"/></symbol><symbol id="hd-icon-tabler-device-imac-filled" viewBox="0 0 24 24"><path fill="currentColor" d="M8 22a1 1 0 0 1 0-2h.616l.25-2H4a2 2 0 0 1-2-2V4a2 2 0 0 1 2-2h16a2 2 0 0 1 2 2v12a2 2 0 0 1-2 2h-4.867l.25 2H16a1 1 0 0 1 0 2zm5.116-4h-2.233l-.25 2h2.733z"/></symbol><symbol id="hd-icon-tabler-device-imac-heart" viewBox="0 0 24 24"><path fill="none" stroke="currentColor" stroke-linecap="round" stroke-linejoin="round" stroke-width="2" d="M10 17H4a1 1 0 0 1-1-1V4a1 1 0 0 1 1-1h16a1 1 0 0 1 1 1v7M3 13h9m-4 8h3.5M10 17l-.5 4m8.5 1l3.35-3.284a2.143 2.143 0 0 0 .005-3.071a2.24 2.24 0 0 0-3.129-.006l-.224.22l-.223-.22a2.24 2.24 0 0 0-3.128-.006a2.143 2.143 0 0 0-.006 3.071z"/></symbol><symbol id="hd-icon-tabler-device-imac-minus" viewBox="0 0 24 24"><path fill="none" stroke="currentColor" stroke-linecap="round" stroke-linejoin="round" stroke-width="2" d="M12.5 17H4a1 1 0 0 1-1-1V4a1 1 0 0 1 1-1h16a1 1 0 0 1 1 1v11M3 13h18M8 21h4.5M10 17l-.5 4m6.5-2h6"/></symbol><symbol id="hd-icon-tabler-device-imac-off" viewBox="0 0 24 24"><path fill="none" stroke="currentColor" stroke-linecap="round" stroke-linejoin="round" stroke-width="2" d="M7 3h13a1 1 0 0 1 1 1v12c0 .28-.115.532-.3.713M17 17H4a1 1 0 0 1-1-1V4c0-.276.112-.526.293-.707M3 13h10m4 0h4M8 21h8m-6-4l-.5 4m4.5-4l.5 4M3 3l18 18"/></symbol><symbol id="hd-icon-tabler-device-imac-pause" viewBox="0 0 24 24"><path fill="none" stroke="currentColor" stroke-linecap="round" stroke-linejoin="round" stroke-width="2" d="M13 17H4a1 1 0 0 1-1-1V4a1 1 0 0 1 1-1h16a1 1 0 0 1 1 1v9M3 13h18M8 21h5m-3-4l-.5 4m7.5-4v5m4-5v5"/></symbol><symbol id="hd-icon-tabler-device-imac-pin" viewBox="0 0 24 24"><path fill="none" stroke="currentColor" stroke-linecap="round" stroke-linejoin="round" stroke-width="2" d="M12 17H4a1 1 0 0 1-1-1V4a1 1 0 0 1 1-1h16a1 1 0 0 1 1 1v7.5m.121 8.621a3 3 0 1 0-4.242 0Q17.506 20.749 19 22q1.577-1.335 2.121-1.879M19 18v.01M3 13h11m-6 8h4.5M10 17l-.5 4"/></symbol><symbol id="hd-icon-tabler-device-imac-plus" viewBox="0 0 24 24"><path fill="none" stroke="currentColor" stroke-linecap="round" stroke-linejoin="round" stroke-width="2" d="M12.5 17H4a1 1 0 0 1-1-1V4a1 1 0 0 1 1-1h16a1 1 0 0 1 1 1v8.5M3 13h13.5M8 21h4.5M10 17l-.5 4m6.5-2h6m-3-3v6"/></symbol><symbol id="hd-icon-tabler-device-imac-question" viewBox="0 0 24 24"><path fill="none" stroke="currentColor" stroke-linecap="round" stroke-linejoin="round" stroke-width="2" d="M14 17H4a1 1 0 0 1-1-1V4a1 1 0 0 1 1-1h16a1 1 0 0 1 1 1v7.5M3 13h11.5M8 21h7m-5-4l-.5 4m4.5-4l.5 4m4.5 1v.01M19 19a2.003 2.003 0 0 0 .914-3.782a1.98 1.98 0 0 0-2.414.483"/></symbol><symbol id="hd-icon-tabler-device-imac-search" viewBox="0 0 24 24"><path fill="none" stroke="currentColor" stroke-linecap="round" stroke-linejoin="round" stroke-width="2" d="M11 17H4a1 1 0 0 1-1-1V4a1 1 0 0 1 1-1h16a1 1 0 0 1 1 1v8M3 13h10m-5 8h4m-2-4l-.5 4m5.5-3a3 3 0 1 0 6 0a3 3 0 1 0-6 0m5.2 2.2L22 22"/></symbol><symbol id="hd-icon-tabler-device-imac-share" viewBox="0 0 24 24"><path fill="none" stroke="currentColor" stroke-linecap="round" stroke-linejoin="round" stroke-width="2" d="M12.5 17H4a1 1 0 0 1-1-1V4a1 1 0 0 1 1-1h16a1 1 0 0 1 1 1v9M3 13h18M8 21h4m-2-4l-.5 4m6.5 1l5-5m0 4.5V17h-4.5"/></symbol><symbol id="hd-icon-tabler-device-imac-star" viewBox="0 0 24 24"><path fill="none" stroke="currentColor" stroke-linecap="round" stroke-linejoin="round" stroke-width="2" d="M10 17H4a1 1 0 0 1-1-1V4a1 1 0 0 1 1-1h16a1 1 0 0 1 1 1v7.5M3 13h10m-5 8h3m-1-4l-.5 4m8.3-.183l-2.172 1.138a.392.392 0 0 1-.568-.41l.415-2.411l-1.757-1.707a.389.389 0 0 1 .217-.665l2.428-.352l1.086-2.193a.392.392 0 0 1 .702 0l1.086 2.193l2.428.352a.39.39 0 0 1 .217.665l-1.757 1.707l.414 2.41a.39.39 0 0 1-.567.411z"/></symbol><symbol id="hd-icon-tabler-device-imac-up" viewBox="0 0 24 24"><path fill="none" stroke="currentColor" stroke-linecap="round" stroke-linejoin="round" stroke-width="2" d="M12.5 17H4a1 1 0 0 1-1-1V4a1 1 0 0 1 1-1h16a1 1 0 0 1 1 1v8.5M3 13h13m-8 8h4.5M10 17l-.5 4m9.5 1v-6m3 3l-3-3l-3 3"/></symbol><symbol id="hd-icon-tabler-device-imac-x" viewBox="0 0 24 24"><path fill="none" stroke="currentColor" stroke-linecap="round" stroke-linejoin="round" stroke-width="2" d="M13 17H4a1 1 0 0 1-1-1V4a1 1 0 0 1 1-1h16a1 1 0 0 1 1 1v9M3 13h18M8 21h5m-3-4l-.5 4M22 22l-5-5m0 5l5-5"/></symbol><symbol id="hd-icon-tabler-device-ipad" viewBox="0 0 24 24"><path fill="none" stroke="currentColor" stroke-linecap="round" stroke-linejoin="round" stroke-width="2" d="M18 3a2 2 0 0 1 2 2v14a2 2 0 0 1-2 2H6a2 2 0 0 1-2-2V5a2 2 0 0 1 2-2zM9 18h6"/></symbol><symbol id="hd-icon-tabler-device-ipad-bolt" viewBox="0 0 24 24"><path fill="none" stroke="currentColor" stroke-linecap="round" stroke-linejoin="round" stroke-width="2" d="M13.5 21H6a2 2 0 0 1-2-2V5a2 2 0 0 1 2-2h12a2 2 0 0 1 2 2v7M9 18h4m6-2l-2 3h4l-2 3"/></symbol><symbol id="hd-icon-tabler-device-ipad-cancel" viewBox="0 0 24 24"><path fill="none" stroke="currentColor" stroke-linecap="round" stroke-linejoin="round" stroke-width="2" d="M12.5 21H6a2 2 0 0 1-2-2V5a2 2 0 0 1 2-2h12a2 2 0 0 1 2 2v7M9 18h3m4 1a3 3 0 1 0 6 0a3 3 0 1 0-6 0m1 2l4-4"/></symbol><symbol id="hd-icon-tabler-device-ipad-check" viewBox="0 0 24 24"><path fill="none" stroke="currentColor" stroke-linecap="round" stroke-linejoin="round" stroke-width="2" d="M11.5 21H6a2 2 0 0 1-2-2V5a2 2 0 0 1 2-2h12a2 2 0 0 1 2 2v8M9 18h2m4 1l2 2l4-4"/></symbol><symbol id="hd-icon-tabler-device-ipad-code" viewBox="0 0 24 24"><path fill="none" stroke="currentColor" stroke-linecap="round" stroke-linejoin="round" stroke-width="2" d="M11.5 21H6a2 2 0 0 1-2-2V5a2 2 0 0 1 2-2h12a2 2 0 0 1 2 2v8M9 18h2m9 3l2-2l-2-2m-3 0l-2 2l2 2"/></symbol><symbol id="hd-icon-tabler-device-ipad-cog" viewBox="0 0 24 24"><path fill="none" stroke="currentColor" stroke-linecap="round" stroke-linejoin="round" stroke-width="2" d="M12 21H6a2 2 0 0 1-2-2V5a2 2 0 0 1 2-2h12a2 2 0 0 1 2 2v6.5M9 18h3m5.001 1a2 2 0 1 0 4 0a2 2 0 1 0-4 0m2-3.5V17m0 4v1.5m3.031-5.25l-1.299.75m-3.463 2l-1.3.75m0-3.5l1.3.75m3.463 2l1.3.75"/></symbol><symbol id="hd-icon-tabler-device-ipad-dollar" viewBox="0 0 24 24"><path fill="none" stroke="currentColor" stroke-linecap="round" stroke-linejoin="round" stroke-width="2" d="M13 21H6a2 2 0 0 1-2-2V5a2 2 0 0 1 2-2h12a2 2 0 0 1 2 2v5M9 18h4m8-3h-2.5a1.5 1.5 0 0 0 0 3h1a1.5 1.5 0 0 1 0 3H17m2 0v1m0-8v1"/></symbol><symbol id="hd-icon-tabler-device-ipad-down" viewBox="0 0 24 24"><path fill="none" stroke="currentColor" stroke-linecap="round" stroke-linejoin="round" stroke-width="2" d="M12.5 21H6a2 2 0 0 1-2-2V5a2 2 0 0 1 2-2h12a2 2 0 0 1 2 2v7M9 18h3m7-2v6m3-3l-3 3l-3-3"/></symbol><symbol id="hd-icon-tabler-device-ipad-exclamation" viewBox="0 0 24 24"><path fill="none" stroke="currentColor" stroke-linecap="round" stroke-linejoin="round" stroke-width="2" d="M15 21H6a2 2 0 0 1-2-2V5a2 2 0 0 1 2-2h12a2 2 0 0 1 2 2v7M9 18h6m4-2v3m0 3v.01"/></symbol><symbol id="hd-icon-tabler-device-ipad-filled" viewBox="0 0 24 24"><path fill="currentColor" d="M18 2a3 3 0 0 1 3 3v14a3 3 0 0 1-3 3H6a3 3 0 0 1-3-3V5a3 3 0 0 1 3-3zm-3 16H9a1 1 0 0 0 0 2h6a1 1 0 0 0 0-2"/></symbol><symbol id="hd-icon-tabler-device-ipad-heart" viewBox="0 0 24 24"><g fill="none" stroke="currentColor" stroke-linecap="round" stroke-linejoin="round" stroke-width="2"><path d="M11.5 21H6a2 2 0 0 1-2-2V5a2 2 0 0 1 2-2h12a2 2 0 0 1 2 2v6M9 18h1"/><path d="m18 22l3.35-3.284a2.143 2.143 0 0 0 .005-3.071a2.24 2.24 0 0 0-3.129-.006l-.224.22l-.223-.22a2.24 2.24 0 0 0-3.128-.006a2.143 2.143 0 0 0-.006 3.071z"/></g></symbol><symbol id="hd-icon-tabler-device-ipad-horizontal" viewBox="0 0 24 24"><path fill="none" stroke="currentColor" stroke-linecap="round" stroke-linejoin="round" stroke-width="2" d="M3 6a2 2 0 0 1 2-2h14a2 2 0 0 1 2 2v12a2 2 0 0 1-2 2H5a2 2 0 0 1-2-2zm6 11h6"/></symbol><symbol id="hd-icon-tabler-device-ipad-horizontal-bolt" viewBox="0 0 24 24"><path fill="none" stroke="currentColor" stroke-linecap="round" stroke-linejoin="round" stroke-width="2" d="M13 20H5a2 2 0 0 1-2-2V6a2 2 0 0 1 2-2h14a2 2 0 0 1 2 2v6.5M9 17h4.5m5.5-1l-2 3h4l-2 3"/></symbol><symbol id="hd-icon-tabler-device-ipad-horizontal-cancel" viewBox="0 0 24 24"><path fill="none" stroke="currentColor" stroke-linecap="round" stroke-linejoin="round" stroke-width="2" d="M12 20H5a2 2 0 0 1-2-2V6a2 2 0 0 1 2-2h14a2 2 0 0 1 2 2v6.5M9 17h3.5m3.5 2a3 3 0 1 0 6 0a3 3 0 1 0-6 0m1 2l4-4"/></symbol><symbol id="hd-icon-tabler-device-ipad-horizontal-check" viewBox="0 0 24 24"><path fill="none" stroke="currentColor" stroke-linecap="round" stroke-linejoin="round" stroke-width="2" d="M11 20H5a2 2 0 0 1-2-2V6a2 2 0 0 1 2-2h14a2 2 0 0 1 2 2v7m-6 6l2 2l4-4M9 17h2.5"/></symbol><symbol id="hd-icon-tabler-device-ipad-horizontal-code" viewBox="0 0 24 24"><path fill="none" stroke="currentColor" stroke-linecap="round" stroke-linejoin="round" stroke-width="2" d="M11 20H5a2 2 0 0 1-2-2V6a2 2 0 0 1 2-2h14a2 2 0 0 1 2 2v7M9 17h2.5m8.5 4l2-2l-2-2m-3 0l-2 2l2 2"/></symbol><symbol id="hd-icon-tabler-device-ipad-horizontal-cog" viewBox="0 0 24 24"><path fill="none" stroke="currentColor" stroke-linecap="round" stroke-linejoin="round" stroke-width="2" d="M12 20H5a2 2 0 0 1-2-2V6a2 2 0 0 1 2-2h14a2 2 0 0 1 2 2v6M9 17h3m5.001 2a2 2 0 1 0 4 0a2 2 0 1 0-4 0m2-3.5V17m0 4v1.5m3.031-5.25l-1.299.75m-3.463 2l-1.3.75m0-3.5l1.3.75m3.463 2l1.3.75"/></symbol><symbol id="hd-icon-tabler-device-ipad-horizontal-dollar" viewBox="0 0 24 24"><path fill="none" stroke="currentColor" stroke-linecap="round" stroke-linejoin="round" stroke-width="2" d="M13 20H5a2 2 0 0 1-2-2V6a2 2 0 0 1 2-2h14a2 2 0 0 1 2 2v4.5M9 17h4m8-2h-2.5a1.5 1.5 0 0 0 0 3h1a1.5 1.5 0 0 1 0 3H17m2 0v1m0-8v1"/></symbol><symbol id="hd-icon-tabler-device-ipad-horizontal-down" viewBox="0 0 24 24"><path fill="none" stroke="currentColor" stroke-linecap="round" stroke-linejoin="round" stroke-width="2" d="M12 20H5a2 2 0 0 1-2-2V6a2 2 0 0 1 2-2h14a2 2 0 0 1 2 2v6.5M9 17h3.5m6.5-1v6m3-3l-3 3l-3-3"/></symbol><symbol id="hd-icon-tabler-device-ipad-horizontal-exclamation" viewBox="0 0 24 24"><path fill="none" stroke="currentColor" stroke-linecap="round" stroke-linejoin="round" stroke-width="2" d="M15 20H5a2 2 0 0 1-2-2V6a2 2 0 0 1 2-2h14a2 2 0 0 1 2 2v6M9 17h6m4-1v3m0 3v.01"/></symbol><symbol id="hd-icon-tabler-device-ipad-horizontal-heart" viewBox="0 0 24 24"><g fill="none" stroke="currentColor" stroke-linecap="round" stroke-linejoin="round" stroke-width="2"><path d="M10.5 20H5a2 2 0 0 1-2-2V6a2 2 0 0 1 2-2h14a2 2 0 0 1 2 2v5M9 17h1"/><path d="m18 22l3.35-3.284a2.143 2.143 0 0 0 .005-3.071a2.24 2.24 0 0 0-3.129-.006l-.224.22l-.223-.22a2.24 2.24 0 0 0-3.128-.006a2.143 2.143 0 0 0-.006 3.071z"/></g></symbol><symbol id="hd-icon-tabler-device-ipad-horizontal-minus" viewBox="0 0 24 24"><path fill="none" stroke="currentColor" stroke-linecap="round" stroke-linejoin="round" stroke-width="2" d="M12 20H5a2 2 0 0 1-2-2V6a2 2 0 0 1 2-2h14a2 2 0 0 1 2 2v9M9 17h3.5m3.5 2h6"/></symbol><symbol id="hd-icon-tabler-device-ipad-horizontal-off" viewBox="0 0 24 24"><path fill="none" stroke="currentColor" stroke-linecap="round" stroke-linejoin="round" stroke-width="2" d="M8 4h12a2 2 0 0 1 2 2v12m-2 2H4a2 2 0 0 1-2-2V6a2 2 0 0 1 2-2m5 13h6M3 3l18 18"/></symbol><symbol id="hd-icon-tabler-device-ipad-horizontal-pause" viewBox="0 0 24 24"><path fill="none" stroke="currentColor" stroke-linecap="round" stroke-linejoin="round" stroke-width="2" d="M13 20H5a2 2 0 0 1-2-2V6a2 2 0 0 1 2-2h14a2 2 0 0 1 2 2v7M9 17h4m4 0v5m4-5v5"/></symbol><symbol id="hd-icon-tabler-device-ipad-horizontal-pin" viewBox="0 0 24 24"><path fill="none" stroke="currentColor" stroke-linecap="round" stroke-linejoin="round" stroke-width="2" d="M12 20H5a2 2 0 0 1-2-2V6a2 2 0 0 1 2-2h14a2 2 0 0 1 2 2v5M9 17h3m9.121 3.121a3 3 0 1 0-4.242 0Q17.506 20.749 19 22q1.577-1.335 2.121-1.879M19 18v.01"/></symbol><symbol id="hd-icon-tabler-device-ipad-horizontal-plus" viewBox="0 0 24 24"><path fill="none" stroke="currentColor" stroke-linecap="round" stroke-linejoin="round" stroke-width="2" d="M12 20H5a2 2 0 0 1-2-2V6a2 2 0 0 1 2-2h14a2 2 0 0 1 2 2v6.5M9 17h3.5m3.5 2h6m-3-3v6"/></symbol><symbol id="hd-icon-tabler-device-ipad-horizontal-question" viewBox="0 0 24 24"><g fill="none" stroke="currentColor" stroke-linecap="round" stroke-linejoin="round" stroke-width="2"><path d="M15 20H5a2 2 0 0 1-2-2V6a2 2 0 0 1 2-2h14a2 2 0 0 1 2 2v5M9 17h4.5m5.5 5v.01"/><path d="M19 19a2.003 2.003 0 0 0 .914-3.782a1.98 1.98 0 0 0-2.414.483"/></g></symbol><symbol id="hd-icon-tabler-device-ipad-horizontal-search" viewBox="0 0 24 24"><g fill="none" stroke="currentColor" stroke-linecap="round" stroke-linejoin="round" stroke-width="2"><path d="M11.5 20H5a2 2 0 0 1-2-2V6a2 2 0 0 1 2-2h14a2 2 0 0 1 2 2v5.5M9 17h2"/><path d="M15 18a3 3 0 1 0 6 0a3 3 0 1 0-6 0m5.2 2.2L22 22"/></g></symbol><symbol id="hd-icon-tabler-device-ipad-horizontal-share" viewBox="0 0 24 24"><path fill="none" stroke="currentColor" stroke-linecap="round" stroke-linejoin="round" stroke-width="2" d="M12.5 20H5a2 2 0 0 1-2-2V6a2 2 0 0 1 2-2h14a2 2 0 0 1 2 2v7M9 17h3m4 5l5-5m0 4.5V17h-4.5"/></symbol><symbol id="hd-icon-tabler-device-ipad-horizontal-star" viewBox="0 0 24 24"><g fill="none" stroke="currentColor" stroke-linecap="round" stroke-linejoin="round" stroke-width="2"><path d="M10.5 20H5a2 2 0 0 1-2-2V6a2 2 0 0 1 2-2h14a2 2 0 0 1 2 2v5.5M9 17h1"/><path d="m17.8 20.817l-2.172 1.138a.392.392 0 0 1-.568-.41l.415-2.411l-1.757-1.707a.389.389 0 0 1 .217-.665l2.428-.352l1.086-2.193a.392.392 0 0 1 .702 0l1.086 2.193l2.428.352a.39.39 0 0 1 .217.665l-1.757 1.707l.414 2.41a.39.39 0 0 1-.567.411z"/></g></symbol><symbol id="hd-icon-tabler-device-ipad-horizontal-up" viewBox="0 0 24 24"><path fill="none" stroke="currentColor" stroke-linecap="round" stroke-linejoin="round" stroke-width="2" d="M12 20H5a2 2 0 0 1-2-2V6a2 2 0 0 1 2-2h14a2 2 0 0 1 2 2v6.5M9 17h3.5m6.5 5v-6m3 3l-3-3l-3 3"/></symbol><symbol id="hd-icon-tabler-device-ipad-horizontal-x" viewBox="0 0 24 24"><path fill="none" stroke="currentColor" stroke-linecap="round" stroke-linejoin="round" stroke-width="2" d="M13.5 20H5a2 2 0 0 1-2-2V6a2 2 0 0 1 2-2h14a2 2 0 0 1 2 2v7m1 9l-5-5m0 5l5-5M9 17h4"/></symbol><symbol id="hd-icon-tabler-device-ipad-minus" viewBox="0 0 24 24"><path fill="none" stroke="currentColor" stroke-linecap="round" stroke-linejoin="round" stroke-width="2" d="M12.5 21H6a2 2 0 0 1-2-2V5a2 2 0 0 1 2-2h12a2 2 0 0 1 2 2v10M9 18h3m4 1h6"/></symbol><symbol id="hd-icon-tabler-device-ipad-off" viewBox="0 0 24 24"><path fill="none" stroke="currentColor" stroke-linecap="round" stroke-linejoin="round" stroke-width="2" d="M6 2h12a2 2 0 0 1 2 2v12m0 4a2 2 0 0 1-2 2H6a2 2 0 0 1-2-2V4m5 15h6M3 3l18 18"/></symbol><symbol id="hd-icon-tabler-device-ipad-pause" viewBox="0 0 24 24"><path fill="none" stroke="currentColor" stroke-linecap="round" stroke-linejoin="round" stroke-width="2" d="M13 21H6a2 2 0 0 1-2-2V5a2 2 0 0 1 2-2h12a2 2 0 0 1 2 2v8M9 18h4m4-1v5m4-5v5"/></symbol><symbol id="hd-icon-tabler-device-ipad-pin" viewBox="0 0 24 24"><g fill="none" stroke="currentColor" stroke-linecap="round" stroke-linejoin="round" stroke-width="2"><path d="M12.5 21H6a2 2 0 0 1-2-2V5a2 2 0 0 1 2-2h12a2 2 0 0 1 2 2v6M9 18h3"/><path d="M21.121 20.121a3 3 0 1 0-4.242 0Q17.506 20.749 19 22q1.577-1.335 2.121-1.879M19 18v.01"/></g></symbol><symbol id="hd-icon-tabler-device-ipad-plus" viewBox="0 0 24 24"><path fill="none" stroke="currentColor" stroke-linecap="round" stroke-linejoin="round" stroke-width="2" d="M12.5 21H6a2 2 0 0 1-2-2V5a2 2 0 0 1 2-2h12a2 2 0 0 1 2 2v7M9 18h3m4 1h6m-3-3v6"/></symbol><symbol id="hd-icon-tabler-device-ipad-question" viewBox="0 0 24 24"><g fill="none" stroke="currentColor" stroke-linecap="round" stroke-linejoin="round" stroke-width="2"><path d="M15 21H6a2 2 0 0 1-2-2V5a2 2 0 0 1 2-2h12a2 2 0 0 1 2 2v6M9 18h5m5 4v.01"/><path d="M19 19a2.003 2.003 0 0 0 .914-3.782a1.98 1.98 0 0 0-2.414.483"/></g></symbol><symbol id="hd-icon-tabler-device-ipad-search" viewBox="0 0 24 24"><g fill="none" stroke="currentColor" stroke-linecap="round" stroke-linejoin="round" stroke-width="2"><path d="M11.5 21H6a2 2 0 0 1-2-2V5a2 2 0 0 1 2-2h12a2 2 0 0 1 2 2v6M9 18h2"/><path d="M15 18a3 3 0 1 0 6 0a3 3 0 1 0-6 0m5.2 2.2L22 22"/></g></symbol><symbol id="hd-icon-tabler-device-ipad-share" viewBox="0 0 24 24"><path fill="none" stroke="currentColor" stroke-linecap="round" stroke-linejoin="round" stroke-width="2" d="M12 21H6a2 2 0 0 1-2-2V5a2 2 0 0 1 2-2h12a2 2 0 0 1 2 2v8M9 18h3.5m3.5 4l5-5m0 4.5V17h-4.5"/></symbol><symbol id="hd-icon-tabler-device-ipad-star" viewBox="0 0 24 24"><g fill="none" stroke="currentColor" stroke-linecap="round" stroke-linejoin="round" stroke-width="2"><path d="M11 21H6a2 2 0 0 1-2-2V5a2 2 0 0 1 2-2h12a2 2 0 0 1 2 2v5.5M9 18h1"/><path d="m17.8 20.817l-2.172 1.138a.392.392 0 0 1-.568-.41l.415-2.411l-1.757-1.707a.389.389 0 0 1 .217-.665l2.428-.352l1.086-2.193a.392.392 0 0 1 .702 0l1.086 2.193l2.428.352a.39.39 0 0 1 .217.665l-1.757 1.707l.414 2.41a.39.39 0 0 1-.567.411z"/></g></symbol><symbol id="hd-icon-tabler-device-ipad-up" viewBox="0 0 24 24"><path fill="none" stroke="currentColor" stroke-linecap="round" stroke-linejoin="round" stroke-width="2" d="M9 18h3m7 4v-6m3 3l-3-3l-3 3m-2.5 2H7a2 2 0 0 1-2-2V5a2 2 0 0 1 2-2h12a2 2 0 0 1 2 2v7"/></symbol><symbol id="hd-icon-tabler-device-ipad-x" viewBox="0 0 24 24"><path fill="none" stroke="currentColor" stroke-linecap="round" stroke-linejoin="round" stroke-width="2" d="m22 22l-5-5m0 5l5-5m-9 4H6a2 2 0 0 1-2-2V5a2 2 0 0 1 2-2h12a2 2 0 0 1 2 2v9M9 18h4"/></symbol><symbol id="hd-icon-tabler-device-landline-phone" viewBox="0 0 24 24"><g fill="none" stroke="currentColor" stroke-linecap="round" stroke-linejoin="round" stroke-width="2"><path d="M20 3h-2a2 2 0 0 0-2 2v14a2 2 0 0 0 2 2h2a2 2 0 0 0 2-2V5a2 2 0 0 0-2-2m-4 1H5a3 3 0 0 0-3 3v10a3 3 0 0 0 3 3h11"/><path d="M12 8H6v3h6zm0 6v.01M9 14v.01M6 14v.01M12 17v.01M9 17v.01M6 17v.01"/></g></symbol><symbol id="hd-icon-tabler-device-laptop" viewBox="0 0 24 24"><path fill="none" stroke="currentColor" stroke-linecap="round" stroke-linejoin="round" stroke-width="2" d="M3 19h18M5 7a1 1 0 0 1 1-1h12a1 1 0 0 1 1 1v8a1 1 0 0 1-1 1H6a1 1 0 0 1-1-1z"/></symbol><symbol id="hd-icon-tabler-device-laptop-off" viewBox="0 0 24 24"><path fill="none" stroke="currentColor" stroke-linecap="round" stroke-linejoin="round" stroke-width="2" d="M3 19h16M10 6h8a1 1 0 0 1 1 1v8m-3 1H6a1 1 0 0 1-1-1V7a1 1 0 0 1 1-1M3 3l18 18"/></symbol><symbol id="hd-icon-tabler-device-mobile" viewBox="0 0 24 24"><path fill="none" stroke="currentColor" stroke-linecap="round" stroke-linejoin="round" stroke-width="2" d="M6 5a2 2 0 0 1 2-2h8a2 2 0 0 1 2 2v14a2 2 0 0 1-2 2H8a2 2 0 0 1-2-2zm5-1h2m-1 13v.01"/></symbol><symbol id="hd-icon-tabler-device-mobile-bolt" viewBox="0 0 24 24"><path fill="none" stroke="currentColor" stroke-linecap="round" stroke-linejoin="round" stroke-width="2" d="M13.5 21H8a2 2 0 0 1-2-2V5a2 2 0 0 1 2-2h8a2 2 0 0 1 2 2v7m1 4l-2 3h4l-2 3M11 4h2m-1 13v.01"/></symbol><symbol id="hd-icon-tabler-device-mobile-cancel" viewBox="0 0 24 24"><path fill="none" stroke="currentColor" stroke-linecap="round" stroke-linejoin="round" stroke-width="2" d="M12 21H8a2 2 0 0 1-2-2V5a2 2 0 0 1 2-2h8a2 2 0 0 1 2 2v7m-2 7a3 3 0 1 0 6 0a3 3 0 1 0-6 0m1 2l4-4M11 4h2m-1 13v.01"/></symbol><symbol id="hd-icon-tabler-device-mobile-charging" viewBox="0 0 24 24"><g fill="none" stroke="currentColor" stroke-linecap="round" stroke-linejoin="round" stroke-width="2"><path d="M6 5a2 2 0 0 1 2-2h8a2 2 0 0 1 2 2v14a2 2 0 0 1-2 2H8a2 2 0 0 1-2-2zm5-1h2"/><path d="M12 9.5L11 12h2l-1 2.5"/></g></symbol><symbol id="hd-icon-tabler-device-mobile-check" viewBox="0 0 24 24"><path fill="none" stroke="currentColor" stroke-linecap="round" stroke-linejoin="round" stroke-width="2" d="M11.5 21H8a2 2 0 0 1-2-2V5a2 2 0 0 1 2-2h8a2 2 0 0 1 2 2v9.5M11 4h2m-1 13v.01M15 19l2 2l4-4"/></symbol><symbol id="hd-icon-tabler-device-mobile-code" viewBox="0 0 24 24"><path fill="none" stroke="currentColor" stroke-linecap="round" stroke-linejoin="round" stroke-width="2" d="M11.5 21H8a2 2 0 0 1-2-2V5a2 2 0 0 1 2-2h8a2 2 0 0 1 2 2v8m2 8l2-2l-2-2m-3 0l-2 2l2 2M11 4h2m-1 13v.01"/></symbol><symbol id="hd-icon-tabler-device-mobile-cog" viewBox="0 0 24 24"><path fill="none" stroke="currentColor" stroke-linecap="round" stroke-linejoin="round" stroke-width="2" d="M12 21H8a2 2 0 0 1-2-2V5a2 2 0 0 1 2-2h8a2 2 0 0 1 2 2v6.5M11 4h2m-1 13v.01M17.001 19a2 2 0 1 0 4 0a2 2 0 1 0-4 0m2-3.5V17m0 4v1.5m3.031-5.25l-1.299.75m-3.463 2l-1.3.75m0-3.5l1.3.75m3.463 2l1.3.75"/></symbol><symbol id="hd-icon-tabler-device-mobile-dollar" viewBox="0 0 24 24"><path fill="none" stroke="currentColor" stroke-linecap="round" stroke-linejoin="round" stroke-width="2" d="M13 21H8a2 2 0 0 1-2-2V5a2 2 0 0 1 2-2h8a2 2 0 0 1 2 2v5m-7-6h2m-1 13v.01M21 15h-2.5a1.5 1.5 0 0 0 0 3h1a1.5 1.5 0 0 1 0 3H17m2 0v1m0-8v1"/></symbol><symbol id="hd-icon-tabler-device-mobile-down" viewBox="0 0 24 24"><path fill="none" stroke="currentColor" stroke-linecap="round" stroke-linejoin="round" stroke-width="2" d="M12.5 21H8a2 2 0 0 1-2-2V5a2 2 0 0 1 2-2h8a2 2 0 0 1 2 2v7m-7-8h2m-1 13v.01M19 16v6m3-3l-3 3l-3-3"/></symbol><symbol id="hd-icon-tabler-device-mobile-exclamation" viewBox="0 0 24 24"><path fill="none" stroke="currentColor" stroke-linecap="round" stroke-linejoin="round" stroke-width="2" d="M15 21H8a2 2 0 0 1-2-2V5a2 2 0 0 1 2-2h8a2 2 0 0 1 2 2v7m-7-8h2m-1 13v.01M19 16v3m0 3v.01"/></symbol><symbol id="hd-icon-tabler-device-mobile-filled" viewBox="0 0 24 24"><path fill="currentColor" d="M16 2a3 3 0 0 1 2.995 2.824L19 5v14a3 3 0 0 1-2.824 2.995L16 22H8a3 3 0 0 1-2.995-2.824L5 19V5a3 3 0 0 1 2.824-2.995L8 2zm-4 14a1 1 0 0 0-.993.883L11 17l.007.127a1 1 0 0 0 1.986 0L13 17.01l-.007-.127A1 1 0 0 0 12 16m1-12h-2l-.117.007a1 1 0 0 0 0 1.986L11 6h2l.117-.007a1 1 0 0 0 0-1.986z"/></symbol><symbol id="hd-icon-tabler-device-mobile-heart" viewBox="0 0 24 24"><g fill="none" stroke="currentColor" stroke-linecap="round" stroke-linejoin="round" stroke-width="2"><path d="M11.5 21H8a2 2 0 0 1-2-2V5a2 2 0 0 1 2-2h8a2 2 0 0 1 2 2v6m-7-7h2"/><path d="m18 22l3.35-3.284a2.143 2.143 0 0 0 .005-3.071a2.24 2.24 0 0 0-3.129-.006l-.224.22l-.223-.22a2.24 2.24 0 0 0-3.128-.006a2.143 2.143 0 0 0-.006 3.071z"/></g></symbol><symbol id="hd-icon-tabler-device-mobile-message" viewBox="0 0 24 24"><g fill="none" stroke="currentColor" stroke-linecap="round" stroke-linejoin="round" stroke-width="2"><path d="M11 3h10v8h-3l-4 2v-2h-3z"/><path d="M15 16v4a1 1 0 0 1-1 1H6a1 1 0 0 1-1-1V6a1 1 0 0 1 1-1h2m2 13v.01"/></g></symbol><symbol id="hd-icon-tabler-device-mobile-minus" viewBox="0 0 24 24"><path fill="none" stroke="currentColor" stroke-linecap="round" stroke-linejoin="round" stroke-width="2" d="M12.5 21H8a2 2 0 0 1-2-2V5a2 2 0 0 1 2-2h8a2 2 0 0 1 2 2v10M11 4h2m-1 13v.01M16 19h6"/></symbol><symbol id="hd-icon-tabler-device-mobile-off" viewBox="0 0 24 24"><path fill="none" stroke="currentColor" stroke-linecap="round" stroke-linejoin="round" stroke-width="2" d="M7.159 3.185C7.415 3.066 7.699 3 8 3h8a2 2 0 0 1 2 2v9m0 4v1a2 2 0 0 1-2 2H8a2 2 0 0 1-2-2V6m5-2h2M3 3l18 18m-9-4v.01"/></symbol><symbol id="hd-icon-tabler-device-mobile-pause" viewBox="0 0 24 24"><path fill="none" stroke="currentColor" stroke-linecap="round" stroke-linejoin="round" stroke-width="2" d="M13 21H8a2 2 0 0 1-2-2V5a2 2 0 0 1 2-2h8a2 2 0 0 1 2 2v8m-1 4v5m4-5v5M11 4h2m-1 13v.01"/></symbol><symbol id="hd-icon-tabler-device-mobile-pin" viewBox="0 0 24 24"><path fill="none" stroke="currentColor" stroke-linecap="round" stroke-linejoin="round" stroke-width="2" d="M12.5 21H8a2 2 0 0 1-2-2V5a2 2 0 0 1 2-2h8a2 2 0 0 1 2 2v6m-7-7h2m8.121 16.121a3 3 0 1 0-4.242 0Q17.506 20.749 19 22q1.577-1.335 2.121-1.879M19 18v.01M12 17v.01"/></symbol><symbol id="hd-icon-tabler-device-mobile-plus" viewBox="0 0 24 24"><path fill="none" stroke="currentColor" stroke-linecap="round" stroke-linejoin="round" stroke-width="2" d="M12.5 21H8a2 2 0 0 1-2-2V5a2 2 0 0 1 2-2h8a2 2 0 0 1 2 2v7m-2 7h6m-3-3v6M11 4h2m-1 13v.01"/></symbol><symbol id="hd-icon-tabler-device-mobile-question" viewBox="0 0 24 24"><path fill="none" stroke="currentColor" stroke-linecap="round" stroke-linejoin="round" stroke-width="2" d="M15 21H8a2 2 0 0 1-2-2V5a2 2 0 0 1 2-2h8a2 2 0 0 1 2 2v6m1 11v.01M19 19a2.003 2.003 0 0 0 .914-3.782a1.98 1.98 0 0 0-2.414.483M11 4h2m-1 13v.01"/></symbol><symbol id="hd-icon-tabler-device-mobile-rotated" viewBox="0 0 24 24"><path fill="none" stroke="currentColor" stroke-linecap="round" stroke-linejoin="round" stroke-width="2" d="M3 8a2 2 0 0 1 2-2h14a2 2 0 0 1 2 2v8a2 2 0 0 1-2 2H5a2 2 0 0 1-2-2zm17 3v2M7 12h-.01"/></symbol><symbol id="hd-icon-tabler-device-mobile-search" viewBox="0 0 24 24"><path fill="none" stroke="currentColor" stroke-linecap="round" stroke-linejoin="round" stroke-width="2" d="M12 21H8a2 2 0 0 1-2-2V5a2 2 0 0 1 2-2h8a2 2 0 0 1 2 2v6m-3 7a3 3 0 1 0 6 0a3 3 0 1 0-6 0m5.2 2.2L22 22M11 4h2m-1 13v.01"/></symbol><symbol id="hd-icon-tabler-device-mobile-share" viewBox="0 0 24 24"><path fill="none" stroke="currentColor" stroke-linecap="round" stroke-linejoin="round" stroke-width="2" d="M12 21H8a2 2 0 0 1-2-2V5a2 2 0 0 1 2-2h8a2 2 0 0 1 2 2v8m-7-9h2m3 18l5-5m0 4.5V17h-4.5M12 17v.01"/></symbol><symbol id="hd-icon-tabler-device-mobile-star" viewBox="0 0 24 24"><path fill="none" stroke="currentColor" stroke-linecap="round" stroke-linejoin="round" stroke-width="2" d="M11 21H8a2 2 0 0 1-2-2V5a2 2 0 0 1 2-2h8a2 2 0 0 1 2 2v5m-7-6h2m4.8 16.817l-2.172 1.138a.392.392 0 0 1-.568-.41l.415-2.411l-1.757-1.707a.389.389 0 0 1 .217-.665l2.428-.352l1.086-2.193a.392.392 0 0 1 .702 0l1.086 2.193l2.428.352a.39.39 0 0 1 .217.665l-1.757 1.707l.414 2.41a.39.39 0 0 1-.567.411z"/></symbol><symbol id="hd-icon-tabler-device-mobile-up" viewBox="0 0 24 24"><path fill="none" stroke="currentColor" stroke-linecap="round" stroke-linejoin="round" stroke-width="2" d="M12.5 21H8a2 2 0 0 1-2-2V5a2 2 0 0 1 2-2h8a2 2 0 0 1 2 2v7m1 10v-6m3 3l-3-3l-3 3M11 4h2m-1 13v.01"/></symbol><symbol id="hd-icon-tabler-device-mobile-vibration" viewBox="0 0 24 24"><path fill="none" stroke="currentColor" stroke-linecap="round" stroke-linejoin="round" stroke-width="2" d="M3 5a2 2 0 0 1 2-2h8a2 2 0 0 1 2 2v14a2 2 0 0 1-2 2H5a2 2 0 0 1-2-2zm5-1h2M9 17v.01M21 6l-2 3l2 3l-2 3l2 3"/></symbol><symbol id="hd-icon-tabler-device-mobile-x" viewBox="0 0 24 24"><path fill="none" stroke="currentColor" stroke-linecap="round" stroke-linejoin="round" stroke-width="2" d="M13 21H8a2 2 0 0 1-2-2V5a2 2 0 0 1 2-2h8a2 2 0 0 1 2 2v8m4 9l-5-5m0 5l5-5M11 4h2m-1 13v.01"/></symbol><symbol id="hd-icon-tabler-device-nintendo" viewBox="0 0 24 24"><g fill="none" stroke="currentColor" stroke-linecap="round" stroke-linejoin="round" stroke-width="2"><path d="M10 20V4H7a4 4 0 0 0-4 4v8a4 4 0 0 0 4 4zm4 0V4h3a4 4 0 0 1 4 4v8a4 4 0 0 1-4 4z"/><path fill="currentColor" d="M16.5 15.5a1 1 0 1 0 2 0a1 1 0 1 0-2 0m-11-7a1 1 0 1 0 2 0a1 1 0 1 0-2 0"/></g></symbol><symbol id="hd-icon-tabler-device-nintendo-off" viewBox="0 0 24 24"><g fill="none" stroke="currentColor" stroke-linecap="round" stroke-linejoin="round" stroke-width="2"><path d="M4.713 4.718A4 4 0 0 0 3 8v8a4 4 0 0 0 4 4h3V10m0-4V4H8m6 6V4h3a4 4 0 0 1 4 4v8q-.001.463-.1.896m-1.62 2.39A4 4 0 0 1 17 20h-3v-6"/><path d="M5.5 8.5a1 1 0 1 0 2 0a1 1 0 1 0-2 0M3 3l18 18"/></g></symbol><symbol id="hd-icon-tabler-device-projector" viewBox="0 0 24 24"><g fill="none" stroke="currentColor" stroke-linecap="round" stroke-linejoin="round" stroke-width="2"><path d="M8 9a5 5 0 1 0 10 0A5 5 0 0 0 8 9"/><path d="M9 6H5a2 2 0 0 0-2 2v8a2 2 0 0 0 2 2h14a2 2 0 0 0 2-2V8a2 2 0 0 0-2-2h-2M6 15h1m0 3l-1 2m12-2l1 2"/></g></symbol><symbol id="hd-icon-tabler-device-remote" viewBox="0 0 24 24"><g fill="none" stroke="currentColor" stroke-linecap="round" stroke-linejoin="round" stroke-width="2"><path d="M10 10a2 2 0 1 0 4 0a2 2 0 1 0-4 0"/><path d="M7 5a2 2 0 0 1 2-2h6a2 2 0 0 1 2 2v14a2 2 0 0 1-2 2H9a2 2 0 0 1-2-2zm5-2v2m-2 10v.01M10 18v.01m4-.01v.01M14 15v.01"/></g></symbol><symbol id="hd-icon-tabler-device-remote-filled" viewBox="0 0 24 24"><path fill="currentColor" d="M15 2a3 3 0 0 1 3 3v14a3 3 0 0 1-3 3H9a3 3 0 0 1-3-3V5a3 3 0 0 1 3-3h2v1a1 1 0 0 0 .883.993L12 4a1 1 0 0 0 1-1V2zm-5 15a1 1 0 0 0-1 1l.007.127A1 1 0 0 0 11 18.01l-.007-.127A1 1 0 0 0 10 17m4 0a1 1 0 0 0-1 1l.007.127A1 1 0 0 0 15 18.01l-.007-.127A1 1 0 0 0 14 17m-4-3a1 1 0 0 0-1 1l.007.127A1 1 0 0 0 11 15.01l-.007-.127A1 1 0 0 0 10 14m4 0a1 1 0 0 0-1 1l.007.127A1 1 0 0 0 15 15.01l-.007-.127A1 1 0 0 0 14 14m-2-7a3 3 0 0 0-2.995 2.824L9 10a3 3 0 1 0 3-3"/></symbol><symbol id="hd-icon-tabler-device-sd-card" viewBox="0 0 24 24"><path fill="none" stroke="currentColor" stroke-linecap="round" stroke-linejoin="round" stroke-width="2" d="M7 21h10a2 2 0 0 0 2-2V5a2 2 0 0 0-2-2h-6.172a2 2 0 0 0-1.414.586L5.586 7.414A2 2 0 0 0 5 8.828V19a2 2 0 0 0 2 2m6-15v2m3-2v2m-6-1v1"/></symbol><symbol id="hd-icon-tabler-device-sim" viewBox="0 0 24 24"><g fill="none" stroke="currentColor" stroke-linecap="round" stroke-linejoin="round" stroke-width="2"><path d="M6 3h8.5L19 7.5V20a1 1 0 0 1-1 1H6a1 1 0 0 1-1-1V4a1 1 0 0 1 1-1"/><path d="M9 11h3v6m3 0v.01M15 14v.01M15 11v.01M9 14v.01M9 17v.01"/></g></symbol><symbol id="hd-icon-tabler-device-sim-1" viewBox="0 0 24 24"><g fill="none" stroke="currentColor" stroke-linecap="round" stroke-linejoin="round" stroke-width="2"><path d="M6 3h8.5L19 7.5V20a1 1 0 0 1-1 1H6a1 1 0 0 1-1-1V4a1 1 0 0 1 1-1"/><path d="m10 11l2-2v8"/></g></symbol><symbol id="hd-icon-tabler-device-sim-2" viewBox="0 0 24 24"><g fill="none" stroke="currentColor" stroke-linecap="round" stroke-linejoin="round" stroke-width="2"><path d="M6 3h8.5L19 7.5V20a1 1 0 0 1-1 1H6a1 1 0 0 1-1-1V4a1 1 0 0 1 1-1"/><path d="M10 9h3a1 1 0 0 1 1 1v2a1 1 0 0 1-1 1h-2a1 1 0 0 0-1 1v2a1 1 0 0 0 1 1h3"/></g></symbol><symbol id="hd-icon-tabler-device-sim-3" viewBox="0 0 24 24"><g fill="none" stroke="currentColor" stroke-linecap="round" stroke-linejoin="round" stroke-width="2"><path d="M6 3h8.5L19 7.5V20a1 1 0 0 1-1 1H6a1 1 0 0 1-1-1V4a1 1 0 0 1 1-1"/><path d="M10 9h2.5a1.5 1.5 0 0 1 1.5 1.5v1a1.5 1.5 0 0 1-1.5 1.5H11h1.5a1.5 1.5 0 0 1 1.5 1.5v1a1.5 1.5 0 0 1-1.5 1.5H10"/></g></symbol><symbol id="hd-icon-tabler-device-speaker" viewBox="0 0 24 24"><g fill="none" stroke="currentColor" stroke-linecap="round" stroke-linejoin="round" stroke-width="2"><path d="M5 5a2 2 0 0 1 2-2h10a2 2 0 0 1 2 2v14a2 2 0 0 1-2 2H7a2 2 0 0 1-2-2z"/><path d="M9 14a3 3 0 1 0 6 0a3 3 0 1 0-6 0m3-7v.01"/></g></symbol><symbol id="hd-icon-tabler-device-speaker-filled" viewBox="0 0 24 24"><path fill="currentColor" d="M17 2a3 3 0 0 1 3 3v14a3 3 0 0 1-3 3H7a3 3 0 0 1-3-3V5a3 3 0 0 1 3-3zm-5 9a4 4 0 0 0-3.995 3.8L8 15a4 4 0 1 0 4-4m0-5a1 1 0 0 0-1 1v.01a1 1 0 0 0 2 0V7a1 1 0 0 0-1-1"/></symbol><symbol id="hd-icon-tabler-device-speaker-off" viewBox="0 0 24 24"><g fill="none" stroke="currentColor" stroke-linecap="round" stroke-linejoin="round" stroke-width="2"><path d="M7 3h10a2 2 0 0 1 2 2v10m0 4a2 2 0 0 1-2 2H7a2 2 0 0 1-2-2V5"/><path d="M11.114 11.133a3 3 0 1 0 3.754 3.751M12 7v.01M3 3l18 18"/></g></symbol><symbol id="hd-icon-tabler-device-tablet" viewBox="0 0 24 24"><g fill="none" stroke="currentColor" stroke-linecap="round" stroke-linejoin="round" stroke-width="2"><path d="M5 4a1 1 0 0 1 1-1h12a1 1 0 0 1 1 1v16a1 1 0 0 1-1 1H6a1 1 0 0 1-1-1z"/><path d="M11 17a1 1 0 1 0 2 0a1 1 0 0 0-2 0"/></g></symbol><symbol id="hd-icon-tabler-device-tablet-bolt" viewBox="0 0 24 24"><g fill="none" stroke="currentColor" stroke-linecap="round" stroke-linejoin="round" stroke-width="2"><path d="M13.5 21H6a1 1 0 0 1-1-1V4a1 1 0 0 1 1-1h12a1 1 0 0 1 1 1v8m0 4l-2 3h4l-2 3"/><path d="M11 17a1 1 0 1 0 2 0a1 1 0 0 0-2 0"/></g></symbol><symbol id="hd-icon-tabler-device-tablet-cancel" viewBox="0 0 24 24"><g fill="none" stroke="currentColor" stroke-linecap="round" stroke-linejoin="round" stroke-width="2"><path d="M12.5 21H6a1 1 0 0 1-1-1V4a1 1 0 0 1 1-1h12a1 1 0 0 1 1 1v8m-3 7a3 3 0 1 0 6 0a3 3 0 1 0-6 0m1 2l4-4"/><path d="M11 17a1 1 0 1 0 2 0a1 1 0 0 0-2 0"/></g></symbol><symbol id="hd-icon-tabler-device-tablet-check" viewBox="0 0 24 24"><g fill="none" stroke="currentColor" stroke-linecap="round" stroke-linejoin="round" stroke-width="2"><path d="M11.5 21H6a1 1 0 0 1-1-1V4a1 1 0 0 1 1-1h12a1 1 0 0 1 1 1v9.5"/><path d="M12.314 16.05a1 1 0 0 0-1.042 1.635M15 19l2 2l4-4"/></g></symbol><symbol id="hd-icon-tabler-device-tablet-code" viewBox="0 0 24 24"><g fill="none" stroke="currentColor" stroke-linecap="round" stroke-linejoin="round" stroke-width="2"><path d="M11.5 21H6a1 1 0 0 1-1-1V4a1 1 0 0 1 1-1h12a1 1 0 0 1 1 1v9"/><path d="M12.344 16.06a1 1 0 0 0-1.07 1.627M20 21l2-2l-2-2m-3 0l-2 2l2 2"/></g></symbol><symbol id="hd-icon-tabler-device-tablet-cog" viewBox="0 0 24 24"><g fill="none" stroke="currentColor" stroke-linecap="round" stroke-linejoin="round" stroke-width="2"><path d="M12 21H6a1 1 0 0 1-1-1V4a1 1 0 0 1 1-1h12a1 1 0 0 1 1 1v7.5"/><path d="M12 16a1 1 0 0 0 0 2m5.001 1a2 2 0 1 0 4 0a2 2 0 1 0-4 0m2-3.5V17m0 4v1.5m3.031-5.25l-1.299.75m-3.463 2l-1.3.75m0-3.5l1.3.75m3.463 2l1.3.75"/></g></symbol><symbol id="hd-icon-tabler-device-tablet-dollar" viewBox="0 0 24 24"><g fill="none" stroke="currentColor" stroke-linecap="round" stroke-linejoin="round" stroke-width="2"><path d="M13 21H6a1 1 0 0 1-1-1V4a1 1 0 0 1 1-1h12a1 1 0 0 1 1 1v6"/><path d="M11 17a1 1 0 1 0 2 0a1 1 0 0 0-2 0m10-2h-2.5a1.5 1.5 0 0 0 0 3h1a1.5 1.5 0 0 1 0 3H17m2 0v1m0-8v1"/></g></symbol><symbol id="hd-icon-tabler-device-tablet-down" viewBox="0 0 24 24"><g fill="none" stroke="currentColor" stroke-linecap="round" stroke-linejoin="round" stroke-width="2"><path d="M12.5 21H6a1 1 0 0 1-1-1V4a1 1 0 0 1 1-1h12a1 1 0 0 1 1 1v8m0 4v6m3-3l-3 3l-3-3"/><path d="M11 17a1 1 0 1 0 2 0a1 1 0 0 0-2 0"/></g></symbol><symbol id="hd-icon-tabler-device-tablet-exclamation" viewBox="0 0 24 24"><g fill="none" stroke="currentColor" stroke-linecap="round" stroke-linejoin="round" stroke-width="2"><path d="M15 21H6a1 1 0 0 1-1-1V4a1 1 0 0 1 1-1h12a1 1 0 0 1 1 1v8"/><path d="M11 17a1 1 0 1 0 2 0a1 1 0 0 0-2 0m8-1v3m0 3v.01"/></g></symbol><symbol id="hd-icon-tabler-device-tablet-filled" viewBox="0 0 24 24"><path fill="currentColor" d="M18 2a2 2 0 0 1 1.995 1.85L20 4v16a2 2 0 0 1-1.85 1.995L18 22H6a2 2 0 0 1-1.995-1.85L4 20V4a2 2 0 0 1 1.85-1.995L6 2zm-6 13a2 2 0 0 0-1.977 1.697l-.018.154L10 17l.005.15A2 2 0 1 0 12 15"/></symbol><symbol id="hd-icon-tabler-device-tablet-heart" viewBox="0 0 24 24"><g fill="none" stroke="currentColor" stroke-linecap="round" stroke-linejoin="round" stroke-width="2"><path d="M11.5 21H6a1 1 0 0 1-1-1V4a1 1 0 0 1 1-1h12a1 1 0 0 1 1 1v7"/><path d="m18 22l3.35-3.284a2.143 2.143 0 0 0 .005-3.071a2.24 2.24 0 0 0-3.129-.006l-.224.22l-.223-.22a2.24 2.24 0 0 0-3.128-.006a2.143 2.143 0 0 0-.006 3.071z"/></g></symbol><symbol id="hd-icon-tabler-device-tablet-minus" viewBox="0 0 24 24"><g fill="none" stroke="currentColor" stroke-linecap="round" stroke-linejoin="round" stroke-width="2"><path d="M12.5 21H6a1 1 0 0 1-1-1V4a1 1 0 0 1 1-1h12a1 1 0 0 1 1 1v11"/><path d="M12.872 16.51A1 1 0 1 0 12 18m4 1h6"/></g></symbol><symbol id="hd-icon-tabler-device-tablet-off" viewBox="0 0 24 24"><g fill="none" stroke="currentColor" stroke-linecap="round" stroke-linejoin="round" stroke-width="2"><path d="M7 3h11a1 1 0 0 1 1 1v11m0 4v1a1 1 0 0 1-1 1H6a1 1 0 0 1-1-1V5"/><path d="M11 17a1 1 0 1 0 2 0a1 1 0 0 0-2 0M3 3l18 18"/></g></symbol><symbol id="hd-icon-tabler-device-tablet-pause" viewBox="0 0 24 24"><g fill="none" stroke="currentColor" stroke-linecap="round" stroke-linejoin="round" stroke-width="2"><path d="M13 21H6a1 1 0 0 1-1-1V4a1 1 0 0 1 1-1h12a1 1 0 0 1 1 1v9.5M17 17v5m4-5v5"/><path d="M11 17a1 1 0 1 0 2 0a1 1 0 0 0-2 0"/></g></symbol><symbol id="hd-icon-tabler-device-tablet-pin" viewBox="0 0 24 24"><g fill="none" stroke="currentColor" stroke-linecap="round" stroke-linejoin="round" stroke-width="2"><path d="M12.5 21H6a1 1 0 0 1-1-1V4a1 1 0 0 1 1-1h12a1 1 0 0 1 1 1v7"/><path d="M12 16a1 1 0 0 0 0 2m9.121 2.121a3 3 0 1 0-4.242 0Q17.506 20.749 19 22q1.577-1.335 2.121-1.879M19 18v.01"/></g></symbol><symbol id="hd-icon-tabler-device-tablet-plus" viewBox="0 0 24 24"><g fill="none" stroke="currentColor" stroke-linecap="round" stroke-linejoin="round" stroke-width="2"><path d="M12.5 21H6a1 1 0 0 1-1-1V4a1 1 0 0 1 1-1h12a1 1 0 0 1 1 1v8m-3 7h6m-3-3v6"/><path d="M11 17a1 1 0 1 0 2 0a1 1 0 0 0-2 0"/></g></symbol><symbol id="hd-icon-tabler-device-tablet-question" viewBox="0 0 24 24"><g fill="none" stroke="currentColor" stroke-linecap="round" stroke-linejoin="round" stroke-width="2"><path d="M15 21H6a1 1 0 0 1-1-1V4a1 1 0 0 1 1-1h12a1 1 0 0 1 1 1v7m0 11v.01M19 19a2.003 2.003 0 0 0 .914-3.782a1.98 1.98 0 0 0-2.414.483"/><path d="M11 17a1 1 0 1 0 2 0a1 1 0 0 0-2 0"/></g></symbol><symbol id="hd-icon-tabler-device-tablet-search" viewBox="0 0 24 24"><path fill="none" stroke="currentColor" stroke-linecap="round" stroke-linejoin="round" stroke-width="2" d="M11.5 21H6a1 1 0 0 1-1-1V4a1 1 0 0 1 1-1h12a1 1 0 0 1 1 1v7m-4 7a3 3 0 1 0 6 0a3 3 0 1 0-6 0m5.2 2.2L22 22"/></symbol><symbol id="hd-icon-tabler-device-tablet-share" viewBox="0 0 24 24"><g fill="none" stroke="currentColor" stroke-linecap="round" stroke-linejoin="round" stroke-width="2"><path d="M12 21H6a1 1 0 0 1-1-1V4a1 1 0 0 1 1-1h12a1 1 0 0 1 1 1v9"/><path d="M12.57 16.178a1 1 0 1 0 .016 1.633M16 22l5-5m0 4.5V17h-4.5"/></g></symbol><symbol id="hd-icon-tabler-device-tablet-star" viewBox="0 0 24 24"><g fill="none" stroke="currentColor" stroke-linecap="round" stroke-linejoin="round" stroke-width="2"><path d="M11 21H6a1 1 0 0 1-1-1V4a1 1 0 0 1 1-1h12a1 1 0 0 1 1 1v6"/><path d="m17.8 20.817l-2.172 1.138a.392.392 0 0 1-.568-.41l.415-2.411l-1.757-1.707a.389.389 0 0 1 .217-.665l2.428-.352l1.086-2.193a.392.392 0 0 1 .702 0l1.086 2.193l2.428.352a.39.39 0 0 1 .217.665l-1.757 1.707l.414 2.41a.39.39 0 0 1-.567.411z"/></g></symbol><symbol id="hd-icon-tabler-device-tablet-up" viewBox="0 0 24 24"><g fill="none" stroke="currentColor" stroke-linecap="round" stroke-linejoin="round" stroke-width="2"><path d="M12.5 21H6a1 1 0 0 1-1-1V4a1 1 0 0 1 1-1h12a1 1 0 0 1 1 1v8"/><path d="M12.906 16.576A1 1 0 1 0 12 18m7 4v-6m3 3l-3-3l-3 3"/></g></symbol><symbol id="hd-icon-tabler-device-tablet-x" viewBox="0 0 24 24"><g fill="none" stroke="currentColor" stroke-linecap="round" stroke-linejoin="round" stroke-width="2"><path d="M13 21H6a1 1 0 0 1-1-1V4a1 1 0 0 1 1-1h12a1 1 0 0 1 1 1v9.5m3 8.5l-5-5m0 5l5-5"/><path d="M11 17a1 1 0 1 0 2 0a1 1 0 0 0-2 0"/></g></symbol><symbol id="hd-icon-tabler-device-tv" viewBox="0 0 24 24"><path fill="none" stroke="currentColor" stroke-linecap="round" stroke-linejoin="round" stroke-width="2" d="M3 9a2 2 0 0 1 2-2h14a2 2 0 0 1 2 2v9a2 2 0 0 1-2 2H5a2 2 0 0 1-2-2zm13-6l-4 4l-4-4"/></symbol><symbol id="hd-icon-tabler-device-tv-filled" viewBox="0 0 24 24"><path fill="currentColor" d="M8.707 2.293L12 5.585l3.293-3.292a1 1 0 0 1 1.32-.083l.094.083a1 1 0 0 1 0 1.414L14.414 6H19a3 3 0 0 1 3 3v9a3 3 0 0 1-3 3H5a3 3 0 0 1-3-3V9a3 3 0 0 1 3-3h4.585L7.293 3.707a1 1 0 0 1 1.414-1.414"/></symbol><symbol id="hd-icon-tabler-device-tv-off" viewBox="0 0 24 24"><path fill="none" stroke="currentColor" stroke-linecap="round" stroke-linejoin="round" stroke-width="2" d="M11 7h8a2 2 0 0 1 2 2v8m-1.178 2.824c-.25.113-.529.176-.822.176H5a2 2 0 0 1-2-2V9a2 2 0 0 1 2-2h2m9-4l-4 4l-4-4M3 3l18 18"/></symbol><symbol id="hd-icon-tabler-device-tv-old" viewBox="0 0 24 24"><path fill="none" stroke="currentColor" stroke-linecap="round" stroke-linejoin="round" stroke-width="2" d="M3 9a2 2 0 0 1 2-2h14a2 2 0 0 1 2 2v9a2 2 0 0 1-2 2H5a2 2 0 0 1-2-2zm13-6l-4 4l-4-4m7 4v13m3-5v.01M18 12v.01"/></symbol><symbol id="hd-icon-tabler-device-tv-old-filled" viewBox="0 0 24 24"><g fill="currentColor"><path d="M8.707 2.293L12 5.585l3.293-3.292a1 1 0 0 1 1.32-.083l.094.083a1 1 0 0 1 0 1.414L14.414 6H19a3 3 0 0 1 3 3v9a3 3 0 0 1-3 3H5a3 3 0 0 1-3-3V9a3 3 0 0 1 3-3h4.585L7.293 3.707a1 1 0 0 1 1.414-1.414M19 8h-2a1 1 0 0 0-1 1v9a1 1 0 0 0 1 1h2a1 1 0 0 0 1-1V9a1 1 0 0 0-1-1"/><path d="M18 14a1 1 0 0 1 .993.883l.007.127a1 1 0 0 1-1.993.117L17 15a1 1 0 0 1 1-1m0-3a1 1 0 0 1 .993.883l.007.127a1 1 0 0 1-1.993.117L17 12a1 1 0 0 1 1-1"/></g></symbol><symbol id="hd-icon-tabler-device-unknown" viewBox="0 0 24 24"><g fill="none" stroke="currentColor" stroke-linecap="round" stroke-linejoin="round" stroke-width="2"><path d="M5 5a2 2 0 0 1 2-2h10a2 2 0 0 1 2 2v14a2 2 0 0 1-2 2H7a2 2 0 0 1-2-2zm7 11v.01"/><path d="M12 13a2 2 0 0 0 .914-3.782a1.98 1.98 0 0 0-2.414.483"/></g></symbol><symbol id="hd-icon-tabler-device-unknown-filled" viewBox="0 0 24 24"><path fill="currentColor" d="M17 2a3 3 0 0 1 3 3v14a3 3 0 0 1-3 3H7a3 3 0 0 1-3-3V5a3 3 0 0 1 3-3zm-5 13a1 1 0 0 0-1 1v.01a1 1 0 0 0 2 0V16a1 1 0 0 0-1-1m1.368-6.673a2.98 2.98 0 0 0-3.631.728a1 1 0 0 0 1.526 1.292a.98.98 0 0 1 1.195-.239A1 1 0 0 1 12.003 12a1 1 0 0 0-.006 2a3 3 0 0 0 1.371-5.673"/></symbol><symbol id="hd-icon-tabler-device-usb" viewBox="0 0 24 24"><path fill="none" stroke="currentColor" stroke-linecap="round" stroke-linejoin="round" stroke-width="2" d="M7 8h10v8a5 5 0 0 1-10 0zm2 0V3h6v5"/></symbol><symbol id="hd-icon-tabler-device-usb-filled" viewBox="0 0 24 24"><path fill="currentColor" d="M15 2a1 1 0 0 1 1 1v4h1a1 1 0 0 1 1 1v8a6 6 0 1 1-12 0V8a1 1 0 0 1 1-1h1V3a1 1 0 0 1 1-1zm-1 2h-4v3h4z"/></symbol><symbol id="hd-icon-tabler-device-vision-pro" viewBox="0 0 24 24"><path fill="none" stroke="currentColor" stroke-linecap="round" stroke-linejoin="round" stroke-width="2" d="M12 7q1.715 0 3.275.104q1.526.101 2.798.42q1.22.304 2.119.909a3.9 3.9 0 0 1 1.328 1.531c.326.657.48 1.48.48 2.466q.002 1.51-.574 2.707q-.562 1.17-1.537 1.848a3.7 3.7 0 0 1-2.16.66q-.764.002-1.382-.21a6 6 0 0 1-1.17-.548a19 19 0 0 1-1.045-.695a9 9 0 0 0-1.001-.63a2.4 2.4 0 0 0-1.13-.301c-.373 0-.75.097-1.132.3q-.475.255-1 .63q-.482.345-1.047.695a5.8 5.8 0 0 1-1.168.548q-.62.212-1.378.21a3.7 3.7 0 0 1-2.165-.659q-.976-.68-1.537-1.848q-.576-1.196-.574-2.709c-.004-.98.15-1.802.477-2.46a3.9 3.9 0 0 1 1.33-1.531q.9-.604 2.12-.907a16 16 0 0 1 2.8-.423Q10.287 7 12 7"/></symbol><symbol id="hd-icon-tabler-device-vision-pro-filled" viewBox="0 0 24 24"><path fill="currentColor" d="M12 6q1.74 0 3.342.106q1.619.107 2.973.448q1.388.345 2.436 1.05a4.9 4.9 0 0 1 1.665 1.916c.397.801.584 1.769.584 2.91c0 1.156-.222 2.208-.673 3.14c-.45.934-1.073 1.685-1.868 2.236a4.7 4.7 0 0 1-2.73.839q-.932.001-1.703-.263a7 7 0 0 1-1.374-.644a20 20 0 0 1-1.107-.736a8 8 0 0 0-.901-.567a1.4 1.4 0 0 0-.643-.174c-.209 0-.426.057-.658.18q-.42.226-.893.564a20 20 0 0 1-1.105.733a6.8 6.8 0 0 1-1.366.642a5.2 5.2 0 0 1-1.688.264a4.7 4.7 0 0 1-2.75-.838c-.794-.55-1.418-1.302-1.868-2.234Q.998 14.165 1 12.432c-.005-1.135.182-2.105.577-2.9A4.9 4.9 0 0 1 3.25 7.606c.699-.47 1.511-.816 2.442-1.049A17 17 0 0 1 8.66 6.11Q10.259 6 12 6"/></symbol><symbol id="hd-icon-tabler-device-watch" viewBox="0 0 24 24"><path fill="none" stroke="currentColor" stroke-linecap="round" stroke-linejoin="round" stroke-width="2" d="M6 9a3 3 0 0 1 3-3h6a3 3 0 0 1 3 3v6a3 3 0 0 1-3 3H9a3 3 0 0 1-3-3zm3 9v3h6v-3M9 6V3h6v3"/></symbol><symbol id="hd-icon-tabler-device-watch-bolt" viewBox="0 0 24 24"><path fill="none" stroke="currentColor" stroke-linecap="round" stroke-linejoin="round" stroke-width="2" d="M13 18H9a3 3 0 0 1-3-3V9a3 3 0 0 1 3-3h6a3 3 0 0 1 3 3v3m-9 6v3h4.5M9 6V3h6v3m4 10l-2 3h4l-2 3"/></symbol><symbol id="hd-icon-tabler-device-watch-cancel" viewBox="0 0 24 24"><path fill="none" stroke="currentColor" stroke-linecap="round" stroke-linejoin="round" stroke-width="2" d="M12 18H9a3 3 0 0 1-3-3V9a3 3 0 0 1 3-3h6a3 3 0 0 1 3 3v3m-9 6v3h3M9 6V3h6v3m1 13a3 3 0 1 0 6 0a3 3 0 1 0-6 0m1 2l4-4"/></symbol><symbol id="hd-icon-tabler-device-watch-check" viewBox="0 0 24 24"><path fill="none" stroke="currentColor" stroke-linecap="round" stroke-linejoin="round" stroke-width="2" d="M11 18H9a3 3 0 0 1-3-3V9a3 3 0 0 1 3-3h6a3 3 0 0 1 3 3v5.5M9 18v3h2.5M9 6V3h6v3m0 13l2 2l4-4"/></symbol><symbol id="hd-icon-tabler-device-watch-code" viewBox="0 0 24 24"><path fill="none" stroke="currentColor" stroke-linecap="round" stroke-linejoin="round" stroke-width="2" d="M11 18H9a3 3 0 0 1-3-3V9a3 3 0 0 1 3-3h6a3 3 0 0 1 3 3v4m2 8l2-2l-2-2m-3 0l-2 2l2 2m-8-3v3h3M9 6V3h6v3"/></symbol></svg>