<svg xmlns="http://www.w3.org/2000/svg" xmlns:xlink="http://www.w3.org/1999/xlink"><symbol id="hd-icon-tabler-exclamation-circle-filled" viewBox="0 0 24 24"><path fill="currentColor" d="M17 3.34A10 10 0 1 1 2 12l.005-.324A10 10 0 0 1 17 3.34M12 15a1 1 0 0 0-1 1v.01a1 1 0 0 0 2 0V16a1 1 0 0 0-1-1m0-7a1 1 0 0 0-1 1v4a1 1 0 0 0 2 0V9a1 1 0 0 0-1-1"/></symbol><symbol id="hd-icon-tabler-exclamation-mark" viewBox="0 0 24 24"><path fill="none" stroke="currentColor" stroke-linecap="round" stroke-linejoin="round" stroke-width="2" d="M12 19v.01M12 15V5"/></symbol><symbol id="hd-icon-tabler-exclamation-mark-off" viewBox="0 0 24 24"><path fill="none" stroke="currentColor" stroke-linecap="round" stroke-linejoin="round" stroke-width="2" d="M12 19v.01M12 15v-3m0-4V5M3 3l18 18"/></symbol><symbol id="hd-icon-tabler-explicit" viewBox="0 0 24 24"><g fill="none" stroke="currentColor" stroke-linecap="round" stroke-linejoin="round" stroke-width="2"><path d="M4 5a1 1 0 0 1 1-1h14a1 1 0 0 1 1 1v14a1 1 0 0 1-1 1H5a1 1 0 0 1-1-1z"/><path d="M14 8h-4v8h4m0-4h-4"/></g></symbol><symbol id="hd-icon-tabler-explicit-filled" viewBox="0 0 24 24"><path fill="currentColor" d="M19 3a2 2 0 0 1 2 2v14a2 2 0 0 1-2 2H5a2 2 0 0 1-2-2V5a2 2 0 0 1 2-2zm-5 4h-4a1 1 0 0 0-1 1v8a1 1 0 0 0 1 1h4a1 1 0 0 0 1-1l-.007-.117A1 1 0 0 0 14 15h-3v-2h3a1 1 0 0 0 0-2h-3V9h3a1 1 0 0 0 0-2"/></symbol><symbol id="hd-icon-tabler-explicit-off" viewBox="0 0 24 24"><g fill="none" stroke="currentColor" stroke-linecap="round" stroke-linejoin="round" stroke-width="2"><path d="M14 8h-2m-2 2v6h4"/><path d="M8 4h10a2 2 0 0 1 2 2v10m-.586 3.414A2 2 0 0 1 18 20H6a2 2 0 0 1-2-2V6c0-.547.22-1.043.576-1.405M12 12h-2M3 3l18 18"/></g></symbol><symbol id="hd-icon-tabler-exposure" viewBox="0 0 24 24"><path fill="none" stroke="currentColor" stroke-linecap="round" stroke-linejoin="round" stroke-width="2" d="M3.6 20.4L20.4 3.6M6 8h4M8 6v4m6 6h4M3 5a2 2 0 0 1 2-2h14a2 2 0 0 1 2 2v14a2 2 0 0 1-2 2H5a2 2 0 0 1-2-2z"/></symbol><symbol id="hd-icon-tabler-exposure-0" viewBox="0 0 24 24"><path fill="none" stroke="currentColor" stroke-linecap="round" stroke-linejoin="round" stroke-width="2" d="M12 19a4 4 0 0 0 4-4V9a4 4 0 1 0-8 0v6a4 4 0 0 0 4 4"/></symbol><symbol id="hd-icon-tabler-exposure-filled" viewBox="0 0 24 24"><path fill="currentColor" d="M19 2a3 3 0 0 1 3 3v14a3 3 0 0 1-3 3H5a3 3 0 0 1-3-3V5a3 3 0 0 1 3-3zm0 2H5a1 1 0 0 0-1 1v14c0 .29.123.55.321.732l1.61-1.584a973 973 0 0 0 6.69-6.675L19.715 4.3A1 1 0 0 0 19 4m-1 11h-4a1 1 0 0 0 0 2h4a1 1 0 0 0 0-2M8 5a1 1 0 0 1 1 1v1h1a1 1 0 0 1 .993.883L11 8a1 1 0 0 1-1 1H9v1a1 1 0 0 1-.883.993L8 11a1 1 0 0 1-1-1V9H6a1 1 0 0 1-.993-.883L5 8a1 1 0 0 1 1-1h1V6a1 1 0 0 1 .883-.993z"/></symbol><symbol id="hd-icon-tabler-exposure-minus-1" viewBox="0 0 24 24"><path fill="none" stroke="currentColor" stroke-linecap="round" stroke-linejoin="round" stroke-width="2" d="M3 12h6m9 7V5l-4 4"/></symbol><symbol id="hd-icon-tabler-exposure-minus-2" viewBox="0 0 24 24"><path fill="none" stroke="currentColor" stroke-linecap="round" stroke-linejoin="round" stroke-width="2" d="M12 9a4 4 0 1 1 8 0c0 1.098-.564 2.025-1.159 2.815L12 19h8M3 12h6"/></symbol><symbol id="hd-icon-tabler-exposure-off" viewBox="0 0 24 24"><path fill="none" stroke="currentColor" stroke-linecap="round" stroke-linejoin="round" stroke-width="2" d="m3.6 20.4l8.371-8.371m2.04-2.04L20.4 3.6M6 8h2m0 0v2m6 6h2M7 3h12a2 2 0 0 1 2 2v12m-.5 3.5c-.362.36-.95.5-1.5.5H5a2 2 0 0 1-2-2V5c0-.541.215-1.033.565-1.393M3 3l18 18"/></symbol><symbol id="hd-icon-tabler-exposure-plus-1" viewBox="0 0 24 24"><path fill="none" stroke="currentColor" stroke-linecap="round" stroke-linejoin="round" stroke-width="2" d="M3 12h6M6 9v6m12 4V5l-4 4"/></symbol><symbol id="hd-icon-tabler-exposure-plus-2" viewBox="0 0 24 24"><path fill="none" stroke="currentColor" stroke-linecap="round" stroke-linejoin="round" stroke-width="2" d="M12 9a4 4 0 1 1 8 0c0 1.098-.564 2.025-1.159 2.815L12 19h8M3 12h6M6 9v6"/></symbol><symbol id="hd-icon-tabler-external-link" viewBox="0 0 24 24"><path fill="none" stroke="currentColor" stroke-linecap="round" stroke-linejoin="round" stroke-width="2" d="M12 6H6a2 2 0 0 0-2 2v10a2 2 0 0 0 2 2h10a2 2 0 0 0 2-2v-6m-7 1l9-9m-5 0h5v5"/></symbol><symbol id="hd-icon-tabler-external-link-off" viewBox="0 0 24 24"><path fill="none" stroke="currentColor" stroke-linecap="round" stroke-linejoin="round" stroke-width="2" d="M7 7H6a2 2 0 0 0-2 2v9a2 2 0 0 0 2 2h9a2 2 0 0 0 2-2v-1m-7-3l2-2m2.007-2.007l6-6M15 4h5v5M3 3l18 18"/></symbol><symbol id="hd-icon-tabler-eye" viewBox="0 0 24 24"><g fill="none" stroke="currentColor" stroke-linecap="round" stroke-linejoin="round" stroke-width="2"><path d="M10 12a2 2 0 1 0 4 0a2 2 0 0 0-4 0"/><path d="M21 12q-3.6 6-9 6t-9-6q3.6-6 9-6t9 6"/></g></symbol><symbol id="hd-icon-tabler-eye-bitcoin" viewBox="0 0 24 24"><g fill="none" stroke="currentColor" stroke-linecap="round" stroke-linejoin="round" stroke-width="2"><path d="M10 12a2 2 0 1 0 4 0a2 2 0 0 0-4 0"/><path d="M13.193 17.924q-.585.075-1.193.076q-5.4 0-9-6q3.6-6 9-6q4.508 0 7.761 4.181M17 21v-6m2 0v-1.5m0 9V21m-2-3h3m-1 0h.5a1.5 1.5 0 0 1 0 3H16m3-3h.5a1.5 1.5 0 0 0 0-3H16"/></g></symbol><symbol id="hd-icon-tabler-eye-bolt" viewBox="0 0 24 24"><g fill="none" stroke="currentColor" stroke-linecap="round" stroke-linejoin="round" stroke-width="2"><path d="M10 12a2 2 0 1 0 4 0a2 2 0 0 0-4 0"/><path d="M13.1 17.936A9 9 0 0 1 12 18q-5.4 0-9-6q3.6-6 9-6t9 6m-2 4l-2 3h4l-2 3"/></g></symbol><symbol id="hd-icon-tabler-eye-cancel" viewBox="0 0 24 24"><g fill="none" stroke="currentColor" stroke-linecap="round" stroke-linejoin="round" stroke-width="2"><path d="M10 12a2 2 0 1 0 4 0a2 2 0 0 0-4 0"/><path d="M12 18q-5.4 0-9-6q3.6-6 9-6t9 6m-5 7a3 3 0 1 0 6 0a3 3 0 1 0-6 0m1 2l4-4"/></g></symbol><symbol id="hd-icon-tabler-eye-check" viewBox="0 0 24 24"><g fill="none" stroke="currentColor" stroke-linecap="round" stroke-linejoin="round" stroke-width="2"><path d="M10 12a2 2 0 1 0 4 0a2 2 0 0 0-4 0"/><path d="M11.102 17.957Q6.297 17.495 3 12q3.6-6 9-6t9 6a20 20 0 0 1-.663 1.032M15 19l2 2l4-4"/></g></symbol><symbol id="hd-icon-tabler-eye-closed" viewBox="0 0 24 24"><path fill="none" stroke="currentColor" stroke-linecap="round" stroke-linejoin="round" stroke-width="2" d="M21 9q-3.6 4-9 4T3 9m0 6l2.5-3.8M21 14.976L18.508 11.2M9 17l.5-4m5.5 4l-.5-4"/></symbol><symbol id="hd-icon-tabler-eye-code" viewBox="0 0 24 24"><g fill="none" stroke="currentColor" stroke-linecap="round" stroke-linejoin="round" stroke-width="2"><path d="M10 12a2 2 0 1 0 4 0a2 2 0 0 0-4 0"/><path d="M11.11 17.958Q6.298 17.498 3 12q3.6-6 9-6t9 6q-.316.528-.647 1.008M20 21l2-2l-2-2m-3 0l-2 2l2 2"/></g></symbol><symbol id="hd-icon-tabler-eye-cog" viewBox="0 0 24 24"><g fill="none" stroke="currentColor" stroke-linecap="round" stroke-linejoin="round" stroke-width="2"><path d="M10 12a2 2 0 1 0 4 0a2 2 0 0 0-4 0"/><path d="M12 18q-5.4 0-9-6q3.6-6 9-6t9 6m-3.999 7a2 2 0 1 0 4 0a2 2 0 1 0-4 0m2-3.5V17m0 4v1.5m3.031-5.25l-1.299.75m-3.463 2l-1.3.75m0-3.5l1.3.75m3.463 2l1.3.75"/></g></symbol><symbol id="hd-icon-tabler-eye-discount" viewBox="0 0 24 24"><g fill="none" stroke="currentColor" stroke-linecap="round" stroke-linejoin="round" stroke-width="2"><path d="M10 12a2 2 0 1 0 4 0a2 2 0 0 0-4 0"/><path d="M12 18q-5.4 0-9-6q3.6-6 9-6t9 6m-5 9l5-5m0 5v.01M16 16v.01"/></g></symbol><symbol id="hd-icon-tabler-eye-dollar" viewBox="0 0 24 24"><g fill="none" stroke="currentColor" stroke-linecap="round" stroke-linejoin="round" stroke-width="2"><path d="M10 12a2 2 0 1 0 4 0a2 2 0 0 0-4 0"/><path d="M13.193 17.924q-.585.075-1.193.076q-5.4 0-9-6q3.6-6 9-6q4.508 0 7.761 4.181M21 15h-2.5a1.5 1.5 0 0 0 0 3h1a1.5 1.5 0 0 1 0 3H17m2 0v1m0-8v1"/></g></symbol><symbol id="hd-icon-tabler-eye-dotted" viewBox="0 0 24 24"><path fill="none" stroke="currentColor" stroke-linecap="round" stroke-linejoin="round" stroke-width="2" d="M10 12a2 2 0 1 0 4 0a2 2 0 0 0-4 0m11 0h.01M3 12h.01M5 15h.01M5 9h.01M19 15h.01M12 18h.01M12 6h.01M8 17h.01M8 7h.01M16 17h.01M16 7h.01M19 9h.01"/></symbol><symbol id="hd-icon-tabler-eye-down" viewBox="0 0 24 24"><g fill="none" stroke="currentColor" stroke-linecap="round" stroke-linejoin="round" stroke-width="2"><path d="M10 12a2 2 0 1 0 4 0a2 2 0 0 0-4 0"/><path d="M12 18q-5.4 0-9-6q3.6-6 9-6t9 6m-2 4v6m3-3l-3 3l-3-3"/></g></symbol><symbol id="hd-icon-tabler-eye-edit" viewBox="0 0 24 24"><g fill="none" stroke="currentColor" stroke-linecap="round" stroke-linejoin="round" stroke-width="2"><path d="M10 12a2 2 0 1 0 4 0a2 2 0 0 0-4 0"/><path d="M11.192 17.966Q6.33 17.546 3 12q3.6-6 9-6q4.989 0 8.442 5.122M18.42 15.61a2.1 2.1 0 0 1 2.97 2.97L18 22h-3v-3z"/></g></symbol><symbol id="hd-icon-tabler-eye-exclamation" viewBox="0 0 24 24"><g fill="none" stroke="currentColor" stroke-linecap="round" stroke-linejoin="round" stroke-width="2"><path d="M10 12a2 2 0 1 0 4 0a2 2 0 0 0-4 0"/><path d="M15.03 17.478A8.8 8.8 0 0 1 12 18q-5.4 0-9-6q3.6-6 9-6t9 6a21 21 0 0 1-.258.419M19 16v3m0 3v.01"/></g></symbol><symbol id="hd-icon-tabler-eye-filled" viewBox="0 0 24 24"><path fill="currentColor" d="M12 4c4.29 0 7.863 2.429 10.665 7.154l.22.379l.045.1l.03.083l.014.055l.014.082l.011.1v.11l-.014.111a1 1 0 0 1-.026.11l-.039.108l-.036.075l-.016.03c-2.764 4.836-6.3 7.38-10.555 7.499L12 20c-4.396 0-8.037-2.549-10.868-7.504a1 1 0 0 1 0-.992C3.963 6.549 7.604 4 12 4m0 5a3 3 0 1 0 0 6a3 3 0 0 0 0-6"/></symbol><symbol id="hd-icon-tabler-eye-heart" viewBox="0 0 24 24"><g fill="none" stroke="currentColor" stroke-linecap="round" stroke-linejoin="round" stroke-width="2"><path d="M13.905 11.39a2 2 0 1 0-2.855 2.37"/><path d="M9.992 17.779Q5.909 16.848 3 12q3.6-6 9-6q4.998 0 8.454 5.14M18 22l3.35-3.284a2.143 2.143 0 0 0 .005-3.071a2.24 2.24 0 0 0-3.129-.006l-.224.22l-.223-.22a2.24 2.24 0 0 0-3.128-.006a2.143 2.143 0 0 0-.006 3.071z"/></g></symbol><symbol id="hd-icon-tabler-eye-minus" viewBox="0 0 24 24"><g fill="none" stroke="currentColor" stroke-linecap="round" stroke-linejoin="round" stroke-width="2"><path d="M10 12a2 2 0 1 0 4 0a2 2 0 0 0-4 0"/><path d="M12 18q-5.4 0-9-6q3.6-6 9-6t9 6q-1.07 1.782-2.296 3.034M16 19h6"/></g></symbol><symbol id="hd-icon-tabler-eye-off" viewBox="0 0 24 24"><g fill="none" stroke="currentColor" stroke-linecap="round" stroke-linejoin="round" stroke-width="2"><path d="M10.585 10.587a2 2 0 0 0 2.829 2.828"/><path d="M16.681 16.673A8.7 8.7 0 0 1 12 18q-5.4 0-9-6q1.908-3.18 4.32-4.674m2.86-1.146A9 9 0 0 1 12 6q5.4 0 9 6q-1 1.665-2.138 2.87M3 3l18 18"/></g></symbol><symbol id="hd-icon-tabler-eye-pause" viewBox="0 0 24 24"><g fill="none" stroke="currentColor" stroke-linecap="round" stroke-linejoin="round" stroke-width="2"><path d="M10 12a2 2 0 1 0 4 0a2 2 0 0 0-4 0"/><path d="M13.022 17.945A9 9 0 0 1 12 18q-5.4 0-9-6q3.6-6 9-6t9 6q-.293.487-.596.935M17 17v5m4-5v5"/></g></symbol><symbol id="hd-icon-tabler-eye-pin" viewBox="0 0 24 24"><g fill="none" stroke="currentColor" stroke-linecap="round" stroke-linejoin="round" stroke-width="2"><path d="M10 12a2 2 0 1 0 4 0a2 2 0 0 0-4 0"/><path d="M12 18q-5.4 0-9-6q3.6-6 9-6q5.044 0 8.517 5.234m.604 8.887a3 3 0 1 0-4.242 0Q17.506 20.749 19 22q1.577-1.335 2.121-1.879M19 18v.01"/></g></symbol><symbol id="hd-icon-tabler-eye-plus" viewBox="0 0 24 24"><g fill="none" stroke="currentColor" stroke-linecap="round" stroke-linejoin="round" stroke-width="2"><path d="M10 12a2 2 0 1 0 4 0a2 2 0 0 0-4 0"/><path d="M12 18q-5.4 0-9-6q3.6-6 9-6t9 6m-5 7h6m-3-3v6"/></g></symbol><symbol id="hd-icon-tabler-eye-question" viewBox="0 0 24 24"><g fill="none" stroke="currentColor" stroke-linecap="round" stroke-linejoin="round" stroke-width="2"><path d="M10 12a2 2 0 1 0 4 0a2 2 0 0 0-4 0"/><path d="M14.071 17.764A9 9 0 0 1 12 18q-5.4 0-9-6q3.6-6 9-6q5.019 0 8.482 5.182M19 22v.01M19 19a2.003 2.003 0 0 0 .914-3.782a1.98 1.98 0 0 0-2.414.483"/></g></symbol><symbol id="hd-icon-tabler-eye-search" viewBox="0 0 24 24"><g fill="none" stroke="currentColor" stroke-linecap="round" stroke-linejoin="round" stroke-width="2"><path d="M10 12a2 2 0 1 0 4 0a2 2 0 0 0-4 0"/><path d="M12 18q-.492 0-.97-.05Q6.271 17.452 3 12q3.6-6 9-6q5.197 0 8.727 5.558M15 18a3 3 0 1 0 6 0a3 3 0 1 0-6 0m5.2 2.2L22 22"/></g></symbol><symbol id="hd-icon-tabler-eye-share" viewBox="0 0 24 24"><g fill="none" stroke="currentColor" stroke-linecap="round" stroke-linejoin="round" stroke-width="2"><path d="M10 12a2 2 0 1 0 4 0a2 2 0 0 0-4 0"/><path d="M12.597 17.981A10 10 0 0 1 12 18q-5.4 0-9-6q3.6-6 9-6t9 6q-.307.513-.63.983M16 22l5-5m0 4.5V17h-4.5"/></g></symbol><symbol id="hd-icon-tabler-eye-spark" viewBox="0 0 24 24"><g fill="none" stroke="currentColor" stroke-linecap="round" stroke-linejoin="round" stroke-width="2"><path d="M10 12a2 2 0 1 0 4 0a2 2 0 0 0-4 0"/><path d="M11.669 17.994Q6.489 17.814 3 12q3.6-6 9-6t9 6m-2 10.5a4.75 4.75 0 0 1 3.5-3.5a4.75 4.75 0 0 1-3.5-3.5a4.75 4.75 0 0 1-3.5 3.5a4.75 4.75 0 0 1 3.5 3.5"/></g></symbol><symbol id="hd-icon-tabler-eye-star" viewBox="0 0 24 24"><g fill="none" stroke="currentColor" stroke-linecap="round" stroke-linejoin="round" stroke-width="2"><path d="M10 12a2 2 0 1 0 4 0a2 2 0 0 0-4 0"/><path d="M9.608 17.682Q5.772 16.618 3 12q3.6-6 9-6t9 6m-3.2 8.817l-2.172 1.138a.392.392 0 0 1-.568-.41l.415-2.411l-1.757-1.707a.389.389 0 0 1 .217-.665l2.428-.352l1.086-2.193a.392.392 0 0 1 .702 0l1.086 2.193l2.428.352a.39.39 0 0 1 .217.665l-1.757 1.707l.414 2.41a.39.39 0 0 1-.567.411z"/></g></symbol><symbol id="hd-icon-tabler-eye-table" viewBox="0 0 24 24"><path fill="none" stroke="currentColor" stroke-linecap="round" stroke-linejoin="round" stroke-width="2" d="M8 18h-.011M12 18h-.011M16 18h-.011M4 3h16M5 3v17a1 1 0 0 0 1 1h12a1 1 0 0 0 1-1V3m-5 4h-4m-1 8h1m4 0h1m-3-4V7"/></symbol><symbol id="hd-icon-tabler-eye-table-filled" viewBox="0 0 24 24"><path fill="currentColor" d="M20 2a1 1 0 0 1 0 2v16a2 2 0 0 1-2 2H6a2 2 0 0 1-2-2V4a1 1 0 1 1 0-2zM8 17l-.128.007A1 1 0 0 0 7.99 19l.128-.007A1 1 0 0 0 8 17m4 0l-.128.007A1 1 0 0 0 11.99 19l.128-.007A1 1 0 0 0 12 17m4 0l-.128.007A1 1 0 0 0 15.99 19l.128-.007A1 1 0 0 0 16 17m-6-3H9a1 1 0 0 0 0 2h1a1 1 0 0 0 0-2m5 0h-1a1 1 0 0 0 0 2h1a1 1 0 0 0 0-2m-1-8h-4a1 1 0 1 0 0 2h1v3a1 1 0 0 0 2 0V8h1a1 1 0 0 0 0-2"/></symbol><symbol id="hd-icon-tabler-eye-up" viewBox="0 0 24 24"><g fill="none" stroke="currentColor" stroke-linecap="round" stroke-linejoin="round" stroke-width="2"><path d="M10 12a2 2 0 1 0 4 0a2 2 0 0 0-4 0"/><path d="M12 18q-5.4 0-9-6q3.6-6 9-6t9 6q-.135.224-.27.439M19 22v-6m3 3l-3-3l-3 3"/></g></symbol><symbol id="hd-icon-tabler-eye-x" viewBox="0 0 24 24"><g fill="none" stroke="currentColor" stroke-linecap="round" stroke-linejoin="round" stroke-width="2"><path d="M10 12a2 2 0 1 0 4 0a2 2 0 0 0-4 0"/><path d="M13.048 17.942A9 9 0 0 1 12 18q-5.4 0-9-6q3.6-6 9-6t9 6a18 18 0 0 1-1.362 1.975M22 22l-5-5m0 5l5-5"/></g></symbol><symbol id="hd-icon-tabler-eyeglass" viewBox="0 0 24 24"><path fill="none" stroke="currentColor" stroke-linecap="round" stroke-linejoin="round" stroke-width="2" d="M8 4H6L3 14M16 4h2l3 10m-11 2h4m7 .5a3.5 3.5 0 0 1-7 0V14h7zm-11 0a3.5 3.5 0 0 1-7 0V14h7z"/></symbol><symbol id="hd-icon-tabler-eyeglass-2" viewBox="0 0 24 24"><g fill="none" stroke="currentColor" stroke-linecap="round" stroke-linejoin="round" stroke-width="2"><path d="M8 4H6L3 14v2.5M16 4h2l3 10v2.5M10 16h4"/><path d="M14 16.5a3.5 3.5 0 1 0 7 0a3.5 3.5 0 1 0-7 0m-11 0a3.5 3.5 0 1 0 7 0a3.5 3.5 0 1 0-7 0"/></g></symbol><symbol id="hd-icon-tabler-eyeglass-2-filled" viewBox="0 0 24 24"><path fill="currentColor" d="M8 3a1 1 0 1 1 0 2H6.743l-2.24 7.467A4.5 4.5 0 0 1 10.743 15h2.513a4.502 4.502 0 0 1 6.241-2.534L17.256 5H16a1 1 0 0 1-.993-.883L15 4a1 1 0 0 1 1-1h2a1 1 0 0 1 .958.713l3 10A1 1 0 0 1 22 14v2.5a4.5 4.5 0 0 1-8.972.5h-2.056A4.5 4.5 0 0 1 2 16.5V14a1 1 0 0 1 .042-.287l3-10A1 1 0 0 1 6 3z"/></symbol><symbol id="hd-icon-tabler-eyeglass-filled" viewBox="0 0 24 24"><path fill="currentColor" d="M6.5 21A4.5 4.5 0 0 1 2 16.5v-2.518l.004-.071l.014-.103l.018-.076l3.006-10.02A1 1 0 0 1 6 3h2a1 1 0 1 1 0 2H6.743l-2.4 8H10a1 1 0 0 1 1 1v1h2v-1a1 1 0 0 1 1-1h5.656l-2.4-8H16a1 1 0 0 1-.993-.883L15 4a1 1 0 0 1 1-1h2a1 1 0 0 1 .958.713l3.01 10.036l.022.112l.008.08L22 16.5a4.5 4.5 0 0 1-8.972.5h-2.056A4.5 4.5 0 0 1 6.5 21"/></symbol><symbol id="hd-icon-tabler-eyeglass-off" viewBox="0 0 24 24"><path fill="none" stroke="currentColor" stroke-linecap="round" stroke-linejoin="round" stroke-width="2" d="M5.536 5.546L3 14M16 4h2l3 10m-11 2h4m5.426 3.423A3.5 3.5 0 0 1 14 16.5V14m4 0h3v2.5q0 .236-.03.463M10 16.5a3.5 3.5 0 0 1-7 0V14h7zM3 3l18 18"/></symbol><symbol id="hd-icon-tabler-face-id" viewBox="0 0 24 24"><path fill="none" stroke="currentColor" stroke-linecap="round" stroke-linejoin="round" stroke-width="2" d="M4 8V6a2 2 0 0 1 2-2h2M4 16v2a2 2 0 0 0 2 2h2m8-16h2a2 2 0 0 1 2 2v2m-4 12h2a2 2 0 0 0 2-2v-2M9 10h.01M15 10h.01M9.5 15a3.5 3.5 0 0 0 5 0"/></symbol><symbol id="hd-icon-tabler-face-id-error" viewBox="0 0 24 24"><path fill="none" stroke="currentColor" stroke-linecap="round" stroke-linejoin="round" stroke-width="2" d="M4 8V6a2 2 0 0 1 2-2h2M4 16v2a2 2 0 0 0 2 2h2m8-16h2a2 2 0 0 1 2 2v2m-4 12h2a2 2 0 0 0 2-2v-2M9 10h.01M15 10h.01M9.5 15.05a3.5 3.5 0 0 1 5 0"/></symbol><symbol id="hd-icon-tabler-face-mask" viewBox="0 0 24 24"><g fill="none" stroke="currentColor" stroke-linecap="round" stroke-linejoin="round" stroke-width="2"><path d="M5 14.5h-.222C3.243 14.5 2 13.38 2 12s1.243-2.5 2.778-2.5H5m14 5h.222C20.756 14.5 22 13.38 22 12s-1.244-2.5-2.778-2.5H19M9 10h6m-6 4h6"/><path d="m12.55 18.843l5-1.429A2 2 0 0 0 19 15.491V8.51a2 2 0 0 0-1.45-1.923l-5-1.429a2 2 0 0 0-1.1 0l-5 1.429A2 2 0 0 0 5 8.509v6.982a2 2 0 0 0 1.45 1.923l5 1.429a2 2 0 0 0 1.1 0"/></g></symbol><symbol id="hd-icon-tabler-face-mask-filled" viewBox="0 0 24 24"><path fill="currentColor" d="m12.825 4.196l5 1.43A3 3 0 0 1 20 8.51v.065c1.7.33 3 1.72 3 3.425s-1.3 3.095-3 3.425v.066a3 3 0 0 1-2.175 2.885l-5 1.428a3 3 0 0 1-1.65 0l-5-1.429a3 3 0 0 1-2.17-2.702L4 15.426c-1.7-.33-3-1.72-3-3.426c0-1.705 1.3-3.096 3-3.426V8.51a3 3 0 0 1 2.175-2.884l5-1.428a3 3 0 0 1 1.65 0M15 13H9a1 1 0 0 0 0 2h6a1 1 0 0 0 0-2M4 10.651c-.6.248-1 .77-1 1.349c0 .578.4 1.101 1 1.349zm16.001 0v2.697C20.6 13.1 21 12.578 21 12s-.4-1.1-.999-1.348M15 9H9a1 1 0 1 0 0 2h6a1 1 0 0 0 0-2"/></symbol><symbol id="hd-icon-tabler-face-mask-off" viewBox="0 0 24 24"><g fill="none" stroke="currentColor" stroke-linecap="round" stroke-linejoin="round" stroke-width="2"><path d="M5 14.5h-.222C3.243 14.5 2 13.38 2 12s1.243-2.5 2.778-2.5H5m14 5h.222C20.756 14.5 22 13.38 22 12s-1.244-2.5-2.778-2.5H19M9 10h1m4 0h1m-6 4h5"/><path d="M19 15V8.51a2 2 0 0 0-1.45-1.923l-5-1.429a2 2 0 0 0-1.1 0l-1.788.511m-3.118.891l-.094.027A2 2 0 0 0 5 8.509v6.982a2 2 0 0 0 1.45 1.923l5 1.429a2 2 0 0 0 1.1 0l4.899-1.4M3 3l18 18"/></g></symbol><symbol id="hd-icon-tabler-fall" viewBox="0 0 24 24"><path fill="none" stroke="currentColor" stroke-linecap="round" stroke-linejoin="round" stroke-width="2" d="m11 21l1-5l-1-4l-3-4h4l3-3M6 16l-1-4l3-4M5 5a1 1 0 1 0 2 0a1 1 0 1 0-2 0m8.5 7H16l4 2"/></symbol><symbol id="hd-icon-tabler-favicon" viewBox="0 0 24 24"><g fill="none" stroke="currentColor" stroke-linecap="round" stroke-linejoin="round" stroke-width="2"><path d="M2 8a3 3 0 0 1 3-3h14a3 3 0 0 1 3 3v8a3 3 0 0 1-3 3H5a3 3 0 0 1-3-3zm4 2v4"/><path d="M11 10a2 2 0 1 0 0 4m3-2a2 2 0 1 0 4 0a2 2 0 1 0-4 0"/></g></symbol><symbol id="hd-icon-tabler-favicon-filled" viewBox="0 0 24 24"><g fill="currentColor"><path d="M19 4a4 4 0 0 1 4 4v8a4 4 0 0 1-4 4H5a4 4 0 0 1-4-4V8a4 4 0 0 1 4-4zM6 9a1 1 0 0 0-1 1v4a1 1 0 0 0 2 0v-4a1 1 0 0 0-1-1m5 0a3 3 0 0 0 0 6a1 1 0 0 0 .117-1.993L11 13a1 1 0 0 1-.117-1.993L11 11a1 1 0 0 0 0-2m5 0a3 3 0 0 0-2.995 2.824L13 12a3 3 0 1 0 3-3"/><path d="M16 11a1 1 0 1 0 0 2a1 1 0 0 0 0-2"/></g></symbol><symbol id="hd-icon-tabler-feather" viewBox="0 0 24 24"><g fill="none" stroke="currentColor" stroke-linecap="round" stroke-linejoin="round" stroke-width="2"><path d="m4 20l10-10m0-5v5h5m-9-1v5h5m-9-1v5h5m-5-5l4-4l4-4"/><path d="M19 10c.638-.636 1-1.515 1-2.486A3.515 3.515 0 0 0 16.483 4c-.97 0-1.847.367-2.483 1m-3 13l4-4l4-4"/></g></symbol><symbol id="hd-icon-tabler-feather-filled" viewBox="0 0 24 24"><g fill="currentColor"><path d="M8 9.585V16h6.414l-2.707 2.707a1 1 0 0 1-.112.097l-.11.071l-.114.054l-.105.035l-.149.03L11 19H6.414l-1.707 1.707a1 1 0 1 1-1.414-1.414L5 17.584V13l.003-.075l.017-.126l.03-.111l.044-.111l.052-.098l.067-.096l.08-.09z"/><path d="m19.414 11l-3 3H11.5l2.914-3zM13 4.586v4.998l-3 3V7.585zM16.482 3A4.515 4.515 0 0 1 21 7.514a4.7 4.7 0 0 1-.239 1.487L15 9V3.24c.469-.158.968-.24 1.482-.24"/></g></symbol><symbol id="hd-icon-tabler-feather-off" viewBox="0 0 24 24"><g fill="none" stroke="currentColor" stroke-linecap="round" stroke-linejoin="round" stroke-width="2"><path d="m4 20l8-8m2-7v5h5M9 11v4h4m-7-2v5h5m-5-5l3.502-3.502m2.023-2.023L14 5"/><path d="M19 10c.638-.636 1-1.515 1-2.486A3.515 3.515 0 0 0 16.483 4c-.97 0-1.847.367-2.483 1m-3 13l3.499-3.499m2.008-2.008L19 10M3 3l18 18"/></g></symbol><symbol id="hd-icon-tabler-fence" viewBox="0 0 24 24"><path fill="none" stroke="currentColor" stroke-linecap="round" stroke-linejoin="round" stroke-width="2" d="M4 12v4h16v-4zm2 4v4h4v-4m0-4V6L8 4L6 6v6m8 4v4h4v-4m0-4V6l-2-2l-2 2v6"/></symbol><symbol id="hd-icon-tabler-fence-filled" viewBox="0 0 24 24"><path fill="currentColor" d="M19 17v3a1 1 0 0 1-1 1h-4a1 1 0 0 1-1-1v-3zm-8 0v3a1 1 0 0 1-1 1H6a1 1 0 0 1-1-1v-3zm9-5a1 1 0 0 1 1 1v2a1 1 0 0 1-1 1H4a1 1 0 0 1-1-1v-2a1 1 0 0 1 1-1zM8.707 3.293l2 2A1 1 0 0 1 11 6v5H5V6a1 1 0 0 1 .293-.707l2-2a1 1 0 0 1 1.414 0m8 0l2 2A1 1 0 0 1 19 6v5h-6V6a1 1 0 0 1 .293-.707l2-2a1 1 0 0 1 1.414 0"/></symbol><symbol id="hd-icon-tabler-fence-off" viewBox="0 0 24 24"><path fill="none" stroke="currentColor" stroke-linecap="round" stroke-linejoin="round" stroke-width="2" d="M12 12H4v4h12m4 0v-4h-4M6 16v4h4v-4m0-4v-2m0-4L8 4M6 6v6m8 4v4h4v-2m0-6V6l-2-2l-2 2v4M3 3l18 18"/></symbol><symbol id="hd-icon-tabler-ferry" viewBox="0 0 24 24"><path fill="none" stroke="currentColor" stroke-linecap="round" stroke-linejoin="round" stroke-width="2" d="M2 18h15.293c1.02 0 1.972-.503 2.536-1.34L22 13H3.521zM14 8l-1-2m-6.893 6.675L7.491 8h8l2.675 4.598"/></symbol><symbol id="hd-icon-tabler-ferry-filled" viewBox="0 0 24 24"><path fill="currentColor" d="M22 12a1 1 0 0 1 .86 1.51l-2.202 3.709A4.06 4.06 0 0 1 17.293 19H2a1 1 0 0 1-.957-1.291l1.521-5A1 1 0 0 1 3.521 12zm-3 1a1 1 0 1 0 0 2a1 1 0 0 0 0-2m-5.106-7.447L14.617 7h.874a1 1 0 0 1 .864.497L18.392 11H5.56l.973-3.284A1 1 0 0 1 7.491 7h4.89l-.275-.553a1 1 0 0 1 1.788-.894"/></symbol><symbol id="hd-icon-tabler-fidget-spinner" viewBox="0 0 24 24"><path fill="none" stroke="currentColor" stroke-linecap="round" stroke-linejoin="round" stroke-width="2" d="M18 16v.01M6 16v.01M12 5v.01M12 12v.01M12 1a4 4 0 0 1 2.001 7.464l.001.072a4 4 0 0 1 1.987 3.758l.22.128a4 4 0 0 1 1.591-.417L18 12a4 4 0 1 1-3.994 3.77l-.28-.16c-.522.25-1.108.39-1.726.39c-.619 0-1.205-.14-1.728-.391l-.279.16L10 16a4 4 0 1 1-2.212-3.579l.222-.129a4 4 0 0 1 1.988-3.756L10 8.465A4 4 0 0 1 8.005 5.2L8 5a4 4 0 0 1 4-4"/></symbol><symbol id="hd-icon-tabler-fidget-spinner-filled" viewBox="0 0 24 24"><path fill="currentColor" d="M12 0a5 5 0 0 1 3.584 8.488l-.012.012a5 5 0 0 1 1.33 2.517l.018.101l.251-.048q.15-.025.3-.041l.304-.024L18 11a5 5 0 1 1-4.89 6.046l-.032-.164l-.24.048a5 5 0 0 1-.556.062L12 17q-.427 0-.84-.07l-.239-.048l-.004.025a5 5 0 0 1-3.331 3.834l-.22.068a5 5 0 1 1-.461-9.728l.173.036l.019-.102c.19-.95.653-1.824 1.331-2.516l-.05-.052a5.02 5.02 0 0 1-1.355-2.978l-.018-.244L7 5a5 5 0 0 1 5-5m6 15a1 1 0 0 0-1 1v.01a1 1 0 0 0 2 0V16a1 1 0 0 0-1-1M6 15a1 1 0 0 0-1 1v.01a1 1 0 0 0 2 0V16a1 1 0 0 0-1-1m6-4.995c-1.1 0-1.99.891-1.99 1.99v.02a1.99 1.99 0 0 0 3.98 0v-.02a1.99 1.99 0 0 0-1.99-1.99M12 4a1 1 0 0 0-1 1v.01a1 1 0 0 0 2 0V5a1 1 0 0 0-1-1"/></symbol><symbol id="hd-icon-tabler-file" viewBox="0 0 24 24"><g fill="none" stroke="currentColor" stroke-linecap="round" stroke-linejoin="round" stroke-width="2"><path d="M14 3v4a1 1 0 0 0 1 1h4"/><path d="M17 21H7a2 2 0 0 1-2-2V5a2 2 0 0 1 2-2h7l5 5v11a2 2 0 0 1-2 2"/></g></symbol><symbol id="hd-icon-tabler-file-3d" viewBox="0 0 24 24"><g fill="none" stroke="currentColor" stroke-linecap="round" stroke-linejoin="round" stroke-width="2"><path d="M14 3v4a1 1 0 0 0 1 1h4"/><path d="M17 21H7a2 2 0 0 1-2-2V5a2 2 0 0 1 2-2h7l5 5v11a2 2 0 0 1-2 2m-5-7.5l4-1.5"/><path d="m8 11.846l4 1.654V18l4-1.846v-4.308L12 10zM8 12v4.2l4 1.8"/></g></symbol><symbol id="hd-icon-tabler-file-ai" viewBox="0 0 24 24"><g fill="none" stroke="currentColor" stroke-linecap="round" stroke-linejoin="round" stroke-width="2"><path d="M14 3v4a1 1 0 0 0 1 1h4"/><path d="M10 21H7a2 2 0 0 1-2-2V5a2 2 0 0 1 2-2h7l5 5v4"/><path d="M14 21v-4a2 2 0 1 1 4 0v4m-4-2h4m3-4v6"/></g></symbol><symbol id="hd-icon-tabler-file-alert" viewBox="0 0 24 24"><g fill="none" stroke="currentColor" stroke-linecap="round" stroke-linejoin="round" stroke-width="2"><path d="M14 3v4a1 1 0 0 0 1 1h4"/><path d="M17 21H7a2 2 0 0 1-2-2V5a2 2 0 0 1 2-2h7l5 5v11a2 2 0 0 1-2 2m-5-4h.01M12 11v3"/></g></symbol><symbol id="hd-icon-tabler-file-analytics" viewBox="0 0 24 24"><g fill="none" stroke="currentColor" stroke-linecap="round" stroke-linejoin="round" stroke-width="2"><path d="M14 3v4a1 1 0 0 0 1 1h4"/><path d="M17 21H7a2 2 0 0 1-2-2V5a2 2 0 0 1 2-2h7l5 5v11a2 2 0 0 1-2 2m-8-4v-5m3 5v-1m3 1v-3"/></g></symbol><symbol id="hd-icon-tabler-file-analytics-filled" viewBox="0 0 24 24"><g fill="currentColor"><path d="m12 2l.117.007a1 1 0 0 1 .876.876L13 3v4l.005.15a2 2 0 0 0 1.838 1.844L15 9h4l.117.007a1 1 0 0 1 .876.876L20 10v9a3 3 0 0 1-2.824 2.995L17 22H7a3 3 0 0 1-2.995-2.824L4 19V5a3 3 0 0 1 2.824-2.995L7 2zM9 12a1 1 0 0 0-1 1v5a1 1 0 0 0 2 0v-5a1 1 0 0 0-1-1m3 4a1 1 0 0 0-1 1v1a1 1 0 0 0 2 0v-1a1 1 0 0 0-1-1m3-2a1 1 0 0 0-1 1v3a1 1 0 0 0 2 0v-3a1 1 0 0 0-1-1"/><path d="M19 7h-4l-.001-4.001z"/></g></symbol><symbol id="hd-icon-tabler-file-arrow-left" viewBox="0 0 24 24"><g fill="none" stroke="currentColor" stroke-linecap="round" stroke-linejoin="round" stroke-width="2"><path d="M14 3v4a1 1 0 0 0 1 1h4"/><path d="M17 21H7a2 2 0 0 1-2-2V5a2 2 0 0 1 2-2h7l5 5v11a2 2 0 0 1-2 2m-2-6H9"/><path d="M11.5 17.5L9 15l2.5-2.5"/></g></symbol><symbol id="hd-icon-tabler-file-arrow-right" viewBox="0 0 24 24"><g fill="none" stroke="currentColor" stroke-linecap="round" stroke-linejoin="round" stroke-width="2"><path d="M14 3v4a1 1 0 0 0 1 1h4"/><path d="M17 21H7a2 2 0 0 1-2-2V5a2 2 0 0 1 2-2h7l5 5v11a2 2 0 0 1-2 2m-8-6h6"/><path d="M12.5 17.5L15 15l-2.5-2.5"/></g></symbol><symbol id="hd-icon-tabler-file-barcode" viewBox="0 0 24 24"><g fill="none" stroke="currentColor" stroke-linecap="round" stroke-linejoin="round" stroke-width="2"><path d="M14 3v4a1 1 0 0 0 1 1h4"/><path d="M17 21H7a2 2 0 0 1-2-2V5a2 2 0 0 1 2-2h7l5 5v11a2 2 0 0 1-2 2"/><path d="M8 13h1v3H8zm4 0v3m3-3h1v3h-1z"/></g></symbol><symbol id="hd-icon-tabler-file-bitcoin" viewBox="0 0 24 24"><g fill="none" stroke="currentColor" stroke-linecap="round" stroke-linejoin="round" stroke-width="2"><path d="M14 3v4a1 1 0 0 0 1 1h4"/><path d="M12 21H7a2 2 0 0 1-2-2V5a2 2 0 0 1 2-2h7l5 5v2m-2 11v-6m2 0v-1.5m0 9V21m-2-3h3m-1 0h.5a1.5 1.5 0 0 1 0 3H16m3-3h.5a1.5 1.5 0 0 0 0-3H16"/></g></symbol><symbol id="hd-icon-tabler-file-broken" viewBox="0 0 24 24"><g fill="none" stroke="currentColor" stroke-linecap="round" stroke-linejoin="round" stroke-width="2"><path d="M14 3v4a1 1 0 0 0 1 1h4"/><path d="M5 7V5a2 2 0 0 1 2-2h7l5 5v2m0 9a2 2 0 0 1-2 2H7a2 2 0 0 1-2-2m0-3h.01M5 13h.01M5 10h.01M19 13h.01M19 16h.01"/></g></symbol><symbol id="hd-icon-tabler-file-certificate" viewBox="0 0 24 24"><g fill="none" stroke="currentColor" stroke-linecap="round" stroke-linejoin="round" stroke-width="2"><path d="M14 3v4a1 1 0 0 0 1 1h4"/><path d="M5 8V5a2 2 0 0 1 2-2h7l5 5v11a2 2 0 0 1-2 2h-5"/><path d="M3 14a3 3 0 1 0 6 0a3 3 0 1 0-6 0"/><path d="M4.5 17L3 22l3-1.5L9 22l-1.5-5"/></g></symbol><symbol id="hd-icon-tabler-file-chart" viewBox="0 0 24 24"><g fill="none" stroke="currentColor" stroke-linecap="round" stroke-linejoin="round" stroke-width="2"><path d="M14 3v4a1 1 0 0 0 1 1h4"/><path d="M17 21H7a2 2 0 0 1-2-2V5a2 2 0 0 1 2-2h7l5 5v11a2 2 0 0 1-2 2"/><path d="M12 10v4h4"/><path d="M8 14a4 4 0 1 0 8 0a4 4 0 1 0-8 0"/></g></symbol><symbol id="hd-icon-tabler-file-check" viewBox="0 0 24 24"><g fill="none" stroke="currentColor" stroke-linecap="round" stroke-linejoin="round" stroke-width="2"><path d="M14 3v4a1 1 0 0 0 1 1h4"/><path d="M17 21H7a2 2 0 0 1-2-2V5a2 2 0 0 1 2-2h7l5 5v11a2 2 0 0 1-2 2"/><path d="m9 15l2 2l4-4"/></g></symbol><symbol id="hd-icon-tabler-file-check-filled" viewBox="0 0 24 24"><path fill="currentColor" d="m12 2l.117.007a1 1 0 0 1 .876.876L13 3v4l.005.15a2 2 0 0 0 1.838 1.844L15 9h4l.117.007a1 1 0 0 1 .876.876L20 10v9a3 3 0 0 1-2.824 2.995L17 22H7a3 3 0 0 1-2.995-2.824L4 19V5a3 3 0 0 1 2.824-2.995L7 2zm3.707 10.293a1 1 0 0 0-1.414 0L11 15.585l-1.293-1.292a1 1 0 1 0-1.414 1.414l2 2a1 1 0 0 0 1.414 0l4-4a1 1 0 0 0 0-1.414M15 2.999L19 7h-4z"/></symbol><symbol id="hd-icon-tabler-file-code" viewBox="0 0 24 24"><g fill="none" stroke="currentColor" stroke-linecap="round" stroke-linejoin="round" stroke-width="2"><path d="M14 3v4a1 1 0 0 0 1 1h4"/><path d="M17 21H7a2 2 0 0 1-2-2V5a2 2 0 0 1 2-2h7l5 5v11a2 2 0 0 1-2 2"/><path d="m10 13l-1 2l1 2m4-4l1 2l-1 2"/></g></symbol><symbol id="hd-icon-tabler-file-code-2" viewBox="0 0 24 24"><g fill="none" stroke="currentColor" stroke-linecap="round" stroke-linejoin="round" stroke-width="2"><path d="M10 12H9v5h1m4-5h1v5h-1m0-14v4a1 1 0 0 0 1 1h4"/><path d="M17 21H7a2 2 0 0 1-2-2V5a2 2 0 0 1 2-2h7l5 5v11a2 2 0 0 1-2 2"/></g></symbol><symbol id="hd-icon-tabler-file-code-2-filled" viewBox="0 0 24 24"><path fill="currentColor" d="m12 2l.117.007a1 1 0 0 1 .876.876L13 3v4l.005.15a2 2 0 0 0 1.838 1.844L15 9h4l.117.007a1 1 0 0 1 .876.876L20 10v9a3 3 0 0 1-2.824 2.995L17 22H7a3 3 0 0 1-2.995-2.824L4 19V5a3 3 0 0 1 2.824-2.995L7 2zm-2 9H9a1 1 0 0 0-1 1v5a1 1 0 0 0 1 1h1a1 1 0 0 0 1-1l-.007-.117a1 1 0 0 0-.876-.876L10 16v-3a1 1 0 0 0 0-2m5 0h-1a1 1 0 0 0 0 2v3a1 1 0 0 0 0 2h1a1 1 0 0 0 1-1v-5a1 1 0 0 0-1-1m-.001-8.001L19 7h-4z"/></symbol><symbol id="hd-icon-tabler-file-code-filled" viewBox="0 0 24 24"><g fill="currentColor"><path d="m12 2l.117.007a1 1 0 0 1 .876.876L13 3v4l.005.15a2 2 0 0 0 1.838 1.844L15 9h4l.117.007a1 1 0 0 1 .876.876L20 10v9a3 3 0 0 1-2.824 2.995L17 22H7a3 3 0 0 1-2.995-2.824L4 19V5a3 3 0 0 1 2.824-2.995L7 2zm-1.553 11.106a1 1 0 0 0-1.341.447l-1 2a1 1 0 0 0 0 .894l1 2a1 1 0 0 0 1.341.447l.102-.058a1 1 0 0 0 .345-1.283L10.118 16l.776-1.553a1 1 0 0 0-.447-1.341m4.447.447a1 1 0 0 0-1.341-.447l-.102.058a1 1 0 0 0-.345 1.283L13.88 16l-.775 1.553a1 1 0 0 0 1.788.894l1-2a1 1 0 0 0 0-.894z"/><path d="M19 7h-4l-.001-4.001z"/></g></symbol><symbol id="hd-icon-tabler-file-cv" viewBox="0 0 24 24"><g fill="none" stroke="currentColor" stroke-linecap="round" stroke-linejoin="round" stroke-width="2"><path d="M14 3v4a1 1 0 0 0 1 1h4"/><path d="M17 21H7a2 2 0 0 1-2-2V5a2 2 0 0 1 2-2h7l5 5v11a2 2 0 0 1-2 2"/><path d="M11 12.5a1.5 1.5 0 0 0-3 0v3a1.5 1.5 0 0 0 3 0m2-4.5l1.5 6l1.5-6"/></g></symbol><symbol id="hd-icon-tabler-file-cv-filled" viewBox="0 0 24 24"><path fill="currentColor" d="m12 2l.117.007a1 1 0 0 1 .876.876L13 3v4l.005.15a2 2 0 0 0 1.838 1.844L15 9h4l.117.007a1 1 0 0 1 .876.876L20 10v9a3 3 0 0 1-2.824 2.995L17 22H7a3 3 0 0 1-2.995-2.824L4 19V5a3 3 0 0 1 2.824-2.995L7 2zm-2.5 8A2.5 2.5 0 0 0 7 12.5v3a2.5 2.5 0 1 0 5 0a1 1 0 0 0-2 0a.5.5 0 1 1-1 0v-3a.5.5 0 1 1 1 0a1 1 0 0 0 2 0A2.5 2.5 0 0 0 9.5 10m6.743.03a1 1 0 0 0-1.213.727l-.53 2.119l-.53-2.119a1 1 0 1 0-1.94.486l1.5 6c.252 1.01 1.688 1.01 1.94 0l1.5-6a1 1 0 0 0-.727-1.213m-1.244-7.031L19 7h-4z"/></symbol><symbol id="hd-icon-tabler-file-database" viewBox="0 0 24 24"><g fill="none" stroke="currentColor" stroke-linecap="round" stroke-linejoin="round" stroke-width="2"><path d="M8 12.75a4 1.75 0 1 0 8 0a4 1.75 0 1 0-8 0"/><path d="M8 12.5v3.75C8 17.216 9.79 18 12 18s4-.784 4-1.75V12.5M14 3v4a1 1 0 0 0 1 1h4"/><path d="M17 21H7a2 2 0 0 1-2-2V5a2 2 0 0 1 2-2h7l5 5v11a2 2 0 0 1-2 2"/></g></symbol><symbol id="hd-icon-tabler-file-delta" viewBox="0 0 24 24"><g fill="none" stroke="currentColor" stroke-linecap="round" stroke-linejoin="round" stroke-width="2"><path d="M14 3v4a1 1 0 0 0 1 1h4"/><path d="M17 21H7a2 2 0 0 1-2-2V5a2 2 0 0 1 2-2h7l5 5v11a2 2 0 0 1-2 2"/><path d="M9 17h6l-3-6z"/></g></symbol><symbol id="hd-icon-tabler-file-delta-filled" viewBox="0 0 24 24"><path fill="currentColor" d="m12 2l.117.007a1 1 0 0 1 .876.876L13 3v4l.005.15a2 2 0 0 0 1.838 1.844L15 9h4l.117.007a1 1 0 0 1 .876.876L20 10v9a3 3 0 0 1-2.824 2.995L17 22H7a3 3 0 0 1-2.995-2.824L4 19V5a3 3 0 0 1 2.824-2.995L7 2zm.894 8.553a1 1 0 0 0-1.788 0l-3 6A1 1 0 0 0 9 18h6a1 1 0 0 0 .894-1.447zM12 13.236L13.381 16h-2.763zm2.999-10.237L19 7h-4z"/></symbol><symbol id="hd-icon-tabler-file-description" viewBox="0 0 24 24"><g fill="none" stroke="currentColor" stroke-linecap="round" stroke-linejoin="round" stroke-width="2"><path d="M14 3v4a1 1 0 0 0 1 1h4"/><path d="M17 21H7a2 2 0 0 1-2-2V5a2 2 0 0 1 2-2h7l5 5v11a2 2 0 0 1-2 2m-8-4h6m-6-4h6"/></g></symbol><symbol id="hd-icon-tabler-file-description-filled" viewBox="0 0 24 24"><g fill="currentColor"><path d="m12 2l.117.007a1 1 0 0 1 .876.876L13 3v4l.005.15a2 2 0 0 0 1.838 1.844L15 9h4l.117.007a1 1 0 0 1 .876.876L20 10v9a3 3 0 0 1-2.824 2.995L17 22H7a3 3 0 0 1-2.995-2.824L4 19V5a3 3 0 0 1 2.824-2.995L7 2zm3 14H9a1 1 0 0 0 0 2h6a1 1 0 0 0 0-2m0-4H9a1 1 0 0 0 0 2h6a1 1 0 0 0 0-2"/><path d="M19 7h-4l-.001-4.001z"/></g></symbol><symbol id="hd-icon-tabler-file-diff" viewBox="0 0 24 24"><g fill="none" stroke="currentColor" stroke-linecap="round" stroke-linejoin="round" stroke-width="2"><path d="M14 3v4a1 1 0 0 0 1 1h4"/><path d="M17 21H7a2 2 0 0 1-2-2V5a2 2 0 0 1 2-2h7l5 5v11a2 2 0 0 1-2 2m-5-11v4m-2-2h4m-4 5h4"/></g></symbol><symbol id="hd-icon-tabler-file-diff-filled" viewBox="0 0 24 24"><g fill="currentColor"><path d="m12 2l.117.007a1 1 0 0 1 .876.876L13 3v4l.005.15a2 2 0 0 0 1.838 1.844L15 9h4l.117.007a1 1 0 0 1 .876.876L20 10v9a3 3 0 0 1-2.824 2.995L17 22H7a3 3 0 0 1-2.995-2.824L4 19V5a3 3 0 0 1 2.824-2.995L7 2zm2 15h-4a1 1 0 0 0 0 2h4a1 1 0 0 0 0-2m-2-7a1 1 0 0 0-1 1v1h-1a1 1 0 0 0 0 2h1v1a1 1 0 0 0 2 0v-1h1a1 1 0 0 0 0-2h-1v-1a1 1 0 0 0-1-1"/><path d="M19 7h-4l-.001-4.001z"/></g></symbol><symbol id="hd-icon-tabler-file-digit" viewBox="0 0 24 24"><g fill="none" stroke="currentColor" stroke-linecap="round" stroke-linejoin="round" stroke-width="2"><path d="M14 3v4a1 1 0 0 0 1 1h4M9 13a1 1 0 0 1 1-1h1a1 1 0 0 1 1 1v3a1 1 0 0 1-1 1h-1a1 1 0 0 1-1-1z"/><path d="M17 21H7a2 2 0 0 1-2-2V5a2 2 0 0 1 2-2h7l5 5v11a2 2 0 0 1-2 2m-2-9v5"/></g></symbol><symbol id="hd-icon-tabler-file-digit-filled" viewBox="0 0 24 24"><g fill="currentColor"><path d="m12 2l.117.007a1 1 0 0 1 .876.876L13 3v4l.005.15a2 2 0 0 0 1.838 1.844L15 9h4l.117.007a1 1 0 0 1 .876.876L20 10v9a3 3 0 0 1-2.824 2.995L17 22H7a3 3 0 0 1-2.995-2.824L4 19V5a3 3 0 0 1 2.824-2.995L7 2zm-1 9h-1a2 2 0 0 0-2 2v3a2 2 0 0 0 2 2h1a2 2 0 0 0 2-2v-3a2 2 0 0 0-2-2m4 0a1 1 0 0 0-1 1v5a1 1 0 0 0 2 0v-5a1 1 0 0 0-1-1m-4 2v3h-1v-3z"/><path d="M19 7h-4l-.001-4.001z"/></g></symbol><symbol id="hd-icon-tabler-file-dislike" viewBox="0 0 24 24"><g fill="none" stroke="currentColor" stroke-linecap="round" stroke-linejoin="round" stroke-width="2"><path d="M3 15a1 1 0 0 1 1-1h1a1 1 0 0 1 1 1v3a1 1 0 0 1-1 1H4a1 1 0 0 1-1-1zm3 0a1 1 0 0 1 1-1h3.756a1 1 0 0 1 .958.713l1.2 3c.09.303.133.63-.056.884c-.188.254-.542.403-.858.403h-2v2.467a1.1 1.1 0 0 1-2.015.61L6 19zm8-12v4a1 1 0 0 0 1 1h4"/><path d="M5 11V5a2 2 0 0 1 2-2h7l5 5v11a2 2 0 0 1-2 2h-2.5"/></g></symbol><symbol id="hd-icon-tabler-file-dollar" viewBox="0 0 24 24"><g fill="none" stroke="currentColor" stroke-linecap="round" stroke-linejoin="round" stroke-width="2"><path d="M14 3v4a1 1 0 0 0 1 1h4"/><path d="M17 21H7a2 2 0 0 1-2-2V5a2 2 0 0 1 2-2h7l5 5v11a2 2 0 0 1-2 2"/><path d="M14 11h-2.5a1.5 1.5 0 0 0 0 3h1a1.5 1.5 0 0 1 0 3H10m2 0v1m0-8v1"/></g></symbol><symbol id="hd-icon-tabler-file-dollar-filled" viewBox="0 0 24 24"><g fill="currentColor"><path d="m12 2l.117.007a1 1 0 0 1 .876.876L13 3v4l.005.15a2 2 0 0 0 1.838 1.844L15 9h4l.117.007a1 1 0 0 1 .876.876L20 10v9a3 3 0 0 1-2.824 2.995L17 22H7a3 3 0 0 1-2.995-2.824L4 19V5a3 3 0 0 1 2.824-2.995L7 2zm0 8a1 1 0 0 0-1 1v.05a2.5 2.5 0 0 0 .5 4.95h1a.5.5 0 1 1 0 1H10a1 1 0 0 0 0 2h1a1 1 0 0 0 2 0v-.05a2.5 2.5 0 0 0-.5-4.95h-1a.5.5 0 1 1 0-1H14a1 1 0 0 0 0-2h-1a1 1 0 0 0-1-1"/><path d="M19 7h-4l-.001-4.001z"/></g></symbol><symbol id="hd-icon-tabler-file-dots" viewBox="0 0 24 24"><g fill="none" stroke="currentColor" stroke-linecap="round" stroke-linejoin="round" stroke-width="2"><path d="M14 3v4a1 1 0 0 0 1 1h4"/><path d="M17 21H7a2 2 0 0 1-2-2V5a2 2 0 0 1 2-2h7l5 5v11a2 2 0 0 1-2 2m-8-7v.01m3-.01v.01m3-.01v.01"/></g></symbol><symbol id="hd-icon-tabler-file-dots-filled" viewBox="0 0 24 24"><g fill="currentColor"><path d="m12 2l.117.007a1 1 0 0 1 .876.876L13 3v4l.005.15a2 2 0 0 0 1.838 1.844L15 9h4l.117.007a1 1 0 0 1 .876.876L20 10v9a3 3 0 0 1-2.824 2.995L17 22H7a3 3 0 0 1-2.995-2.824L4 19V5a3 3 0 0 1 2.824-2.995L7 2zM9 14a1 1 0 0 0-.993.883L8 15.01a1 1 0 0 0 1.993.117L10 15a1 1 0 0 0-1-1m3 0a1 1 0 0 0-.993.883L11 15.01a1 1 0 0 0 1.993.117L13 15a1 1 0 0 0-1-1m3 0a1 1 0 0 0-.993.883L14 15.01a1 1 0 0 0 1.993.117L16 15a1 1 0 0 0-1-1"/><path d="M19 7h-4l-.001-4.001z"/></g></symbol><symbol id="hd-icon-tabler-file-download" viewBox="0 0 24 24"><g fill="none" stroke="currentColor" stroke-linecap="round" stroke-linejoin="round" stroke-width="2"><path d="M14 3v4a1 1 0 0 0 1 1h4"/><path d="M17 21H7a2 2 0 0 1-2-2V5a2 2 0 0 1 2-2h7l5 5v11a2 2 0 0 1-2 2m-5-4v-6"/><path d="M9.5 14.5L12 17l2.5-2.5"/></g></symbol><symbol id="hd-icon-tabler-file-download-filled" viewBox="0 0 24 24"><path fill="currentColor" d="m12 2l.117.007a1 1 0 0 1 .876.876L13 3v4l.005.15a2 2 0 0 0 1.838 1.844L15 9h4l.117.007a1 1 0 0 1 .876.876L20 10v9a3 3 0 0 1-2.824 2.995L17 22H7a3 3 0 0 1-2.995-2.824L4 19V5a3 3 0 0 1 2.824-2.995L7 2zm0 8a1 1 0 0 0-1 1v3.585l-.793-.792a1 1 0 0 0-1.32-.083l-.094.083a1 1 0 0 0 0 1.414l2.5 2.5l.044.042l.068.055l.11.071l.114.054l.105.035l.15.03L12 18l.117-.007l.117-.02l.108-.033l.081-.034l.098-.052l.092-.064l.094-.083l2.5-2.5a1 1 0 0 0 0-1.414l-.094-.083a1 1 0 0 0-1.32.083l-.793.791V11a1 1 0 0 0-.883-.993zm2.999-7.001L19 7h-4z"/></symbol><symbol id="hd-icon-tabler-file-euro" viewBox="0 0 24 24"><g fill="none" stroke="currentColor" stroke-linecap="round" stroke-linejoin="round" stroke-width="2"><path d="M14 3v4a1 1 0 0 0 1 1h4"/><path d="M17 21H7a2 2 0 0 1-2-2V5a2 2 0 0 1 2-2h7l5 5v11a2 2 0 0 1-2 2m-5-7H9"/><path d="M14 11.172a3 3 0 1 0 0 5.656"/></g></symbol><symbol id="hd-icon-tabler-file-euro-filled" viewBox="0 0 24 24"><g fill="currentColor"><path d="m12 2l.117.007a1 1 0 0 1 .876.876L13 3v4l.005.15a2 2 0 0 0 1.838 1.844L15 9h4l.117.007a1 1 0 0 1 .876.876L20 10v9a3 3 0 0 1-2.824 2.995L17 22H7a3 3 0 0 1-2.995-2.824L4 19V5a3 3 0 0 1 2.824-2.995L7 2zm2.334 9.23A4 4 0 0 0 9.126 14H9a1 1 0 0 0 0 2h.126a4 4 0 0 0 5.208 2.77a1 1 0 0 0-.668-1.885l-.156.049A2 2 0 0 1 11.267 16H12a1 1 0 0 0 0-2h-.733q.056-.097.124-.19a2 2 0 0 1 2.275-.695l.112.032a1 1 0 0 0 .556-1.918"/><path d="M19 7h-4l-.001-4.001z"/></g></symbol><symbol id="hd-icon-tabler-file-excel" viewBox="0 0 24 24"><g fill="none" stroke="currentColor" stroke-linecap="round" stroke-linejoin="round" stroke-width="2"><path d="M14 3v4a1 1 0 0 0 1 1h4"/><path d="M17 21H7a2 2 0 0 1-2-2V5a2 2 0 0 1 2-2h7l5 5v11a2 2 0 0 1-2 2m-7-9l4 5m-4 0l4-5"/></g></symbol><symbol id="hd-icon-tabler-file-export" viewBox="0 0 24 24"><g fill="none" stroke="currentColor" stroke-linecap="round" stroke-linejoin="round" stroke-width="2"><path d="M14 3v4a1 1 0 0 0 1 1h4"/><path d="M11.5 21H7a2 2 0 0 1-2-2V5a2 2 0 0 1 2-2h7l5 5v5m-5 6h7m-3-3l3 3l-3 3"/></g></symbol><symbol id="hd-icon-tabler-file-filled" viewBox="0 0 24 24"><g fill="currentColor"><path d="m12 2l.117.007a1 1 0 0 1 .876.876L13 3v4l.005.15a2 2 0 0 0 1.838 1.844L15 9h4l.117.007a1 1 0 0 1 .876.876L20 10v9a3 3 0 0 1-2.824 2.995L17 22H7a3 3 0 0 1-2.995-2.824L4 19V5a3 3 0 0 1 2.824-2.995L7 2z"/><path d="M19 7h-4l-.001-4.001z"/></g></symbol><symbol id="hd-icon-tabler-file-function" viewBox="0 0 24 24"><g fill="none" stroke="currentColor" stroke-linecap="round" stroke-linejoin="round" stroke-width="2"><path d="M14 3v4a1 1 0 0 0 1 1h4"/><path d="M17 21H7a2 2 0 0 1-2-2V5a2 2 0 0 1 2-2h7l5 5v11a2 2 0 0 1-2 2"/><path d="M10.5 17h.333c.474 0 .87-.323.916-.746l.502-4.508c.047-.423.443-.746.916-.746h.333m-3 3h3"/></g></symbol><symbol id="hd-icon-tabler-file-function-filled" viewBox="0 0 24 24"><g fill="currentColor"><path d="m12 2l.117.007a1 1 0 0 1 .876.876L13 3v4l.005.15a2 2 0 0 0 1.838 1.844L15 9h4l.117.007a1 1 0 0 1 .876.876L20 10v9a3 3 0 0 1-2.824 2.995L17 22H7a3 3 0 0 1-2.995-2.824L4 19V5a3 3 0 0 1 2.824-2.995L7 2zm1.5 9h-.333l-.16.006c-.895.07-1.65.732-1.75 1.63L11.105 14H10.5a1 1 0 0 0 0 2h.382l-.111 1H10.5a1 1 0 0 0 0 2h.333l.16-.006c.896-.071 1.652-.733 1.75-1.632L12.894 16h.606a1 1 0 0 0 0-2h-.383l.111-1h.272a1 1 0 0 0 0-2"/><path d="M19 7h-4l-.001-4.001z"/></g></symbol><symbol id="hd-icon-tabler-file-horizontal" viewBox="0 0 24 24"><g fill="none" stroke="currentColor" stroke-linecap="round" stroke-linejoin="round" stroke-width="2"><path d="M16 5v4a1 1 0 0 0 1 1h4"/><path d="M3 7v10a2 2 0 0 0 2 2h14a2 2 0 0 0 2-2v-7l-5-5H5a2 2 0 0 0-2 2"/></g></symbol><symbol id="hd-icon-tabler-file-horizontal-filled" viewBox="0 0 24 24"><g fill="currentColor"><path d="m22 12l-.007-.117a1 1 0 0 0-.876-.876L21 11h-4l-.15-.005a2 2 0 0 1-1.844-1.838L15 9V5l-.007-.117a1 1 0 0 0-.876-.876L14 4H5a3 3 0 0 0-2.995 2.824L2 7v10a3 3 0 0 0 2.824 2.995L5 20h14a3 3 0 0 0 2.995-2.824L22 17z"/><path d="M17 5v4l4.001.001z"/></g></symbol><symbol id="hd-icon-tabler-file-import" viewBox="0 0 24 24"><g fill="none" stroke="currentColor" stroke-linecap="round" stroke-linejoin="round" stroke-width="2"><path d="M14 3v4a1 1 0 0 0 1 1h4"/><path d="M5 13V5a2 2 0 0 1 2-2h7l5 5v11a2 2 0 0 1-2 2h-5.5M2 19h7m-3-3l3 3l-3 3"/></g></symbol><symbol id="hd-icon-tabler-file-infinity" viewBox="0 0 24 24"><g fill="none" stroke="currentColor" stroke-linecap="round" stroke-linejoin="round" stroke-width="2"><path d="M15.536 17.586a2.123 2.123 0 0 0-2.929 0a1.95 1.95 0 0 0 0 2.828c.809.781 2.12.781 2.929 0s-.805.778 0 0l1.46-1.41l1.46-1.419"/><path d="m15.54 17.582l1.46 1.42l1.46 1.41c.809.78-.805-.779 0 0s2.12.781 2.929 0a1.95 1.95 0 0 0 0-2.828a2.123 2.123 0 0 0-2.929 0M14 3v4a1 1 0 0 0 1 1h4"/><path d="M9.5 21H7a2 2 0 0 1-2-2V5a2 2 0 0 1 2-2h7l5 5v6"/></g></symbol><symbol id="hd-icon-tabler-file-info" viewBox="0 0 24 24"><g fill="none" stroke="currentColor" stroke-linecap="round" stroke-linejoin="round" stroke-width="2"><path d="M14 3v4a1 1 0 0 0 1 1h4"/><path d="M17 21H7a2 2 0 0 1-2-2V5a2 2 0 0 1 2-2h7l5 5v11a2 2 0 0 1-2 2"/><path d="M11 14h1v4h1m-1-7h.01"/></g></symbol><symbol id="hd-icon-tabler-file-info-filled" viewBox="0 0 24 24"><g fill="currentColor"><path d="m12 2l.117.007a1 1 0 0 1 .876.876L13 3v4l.005.15a2 2 0 0 0 1.838 1.844L15 9h4l.117.007a1 1 0 0 1 .876.876L20 10v9a3 3 0 0 1-2.824 2.995L17 22H7a3 3 0 0 1-2.995-2.824L4 19V5a3 3 0 0 1 2.824-2.995L7 2zm0 12h-1a1 1 0 0 0 0 2v3a1 1 0 0 0 1 1h1a1 1 0 0 0 1-1l-.007-.117a1 1 0 0 0-.876-.876L13 18v-3a1 1 0 0 0-1-1m.01-3H12a1 1 0 0 0-.117 1.993l.127.007a1 1 0 0 0 0-2"/><path d="M19 7h-4l-.001-4.001z"/></g></symbol><symbol id="hd-icon-tabler-file-invoice" viewBox="0 0 24 24"><g fill="none" stroke="currentColor" stroke-linecap="round" stroke-linejoin="round" stroke-width="2"><path d="M14 3v4a1 1 0 0 0 1 1h4"/><path d="M17 21H7a2 2 0 0 1-2-2V5a2 2 0 0 1 2-2h7l5 5v11a2 2 0 0 1-2 2M9 7h1m-1 6h6m-2 4h2"/></g></symbol><symbol id="hd-icon-tabler-file-invoice-filled" viewBox="0 0 24 24"><g fill="currentColor"><path d="m12 2l.117.007a1 1 0 0 1 .876.876L13 3v4l.005.15a2 2 0 0 0 1.838 1.844L15 9h4l.117.007a1 1 0 0 1 .876.876L20 10v9a3 3 0 0 1-2.824 2.995L17 22H7a3 3 0 0 1-2.995-2.824L4 19V5a3 3 0 0 1 2.824-2.995L7 2zm4 15h-2a1 1 0 0 0 0 2h2a1 1 0 0 0 0-2m0-4H8a1 1 0 0 0 0 2h8a1 1 0 0 0 0-2M9 6H8a1 1 0 1 0 0 2h1a1 1 0 1 0 0-2"/><path d="M19 7h-4l-.001-4.001z"/></g></symbol><symbol id="hd-icon-tabler-file-isr" viewBox="0 0 24 24"><defs><path id="hd-icon-tabler-file-isr-549" d="M15 3v4a1 1 0 0 0 1 1h4"/></defs><g fill="none" stroke="currentColor" stroke-linecap="round" stroke-linejoin="round" stroke-width="2"><use href="#hd-icon-tabler-file-isr-549"/><use href="#hd-icon-tabler-file-isr-549"/><path d="M6 8V5a2 2 0 0 1 2-2h7l5 5v11a2 2 0 0 1-2 2H8a2 2 0 0 1-2-2v-7"/><path d="m3 15l3-3l3 3"/></g></symbol><symbol id="hd-icon-tabler-file-lambda" viewBox="0 0 24 24"><g fill="none" stroke="currentColor" stroke-linecap="round" stroke-linejoin="round" stroke-width="2"><path d="M14 3v4a1 1 0 0 0 1 1h4"/><path d="M17 21H7a2 2 0 0 1-2-2V5a2 2 0 0 1 2-2h7l5 5v11a2 2 0 0 1-2 2m-7-4l2-3"/><path d="M15 17c-2.5 0-2.5-6-5-6"/></g></symbol><symbol id="hd-icon-tabler-file-lambda-filled" viewBox="0 0 24 24"><path fill="currentColor" d="m12 2l.117.007a1 1 0 0 1 .876.876L13 3v4l.005.15a2 2 0 0 0 1.838 1.844L15 9h4l.117.007a1 1 0 0 1 .876.876L20 10v9a3 3 0 0 1-2.824 2.995L17 22H7a3 3 0 0 1-2.995-2.824L4 19V5a3 3 0 0 1 2.824-2.995L7 2zm-2 8a1 1 0 0 0-.117 1.993L10 12c.342 0 .662.362 1.166 1.445l-1.998 3a1 1 0 0 0 1.664 1.11l1.29-1.934C12.947 17.359 13.63 18 15 18a1 1 0 0 0 .117-1.993L15 16c-.39 0-.75-.47-1.387-1.938l-.415-.976C12.213 10.812 11.542 10 10 10m4.999-7.001L19 7h-4z"/></symbol><symbol id="hd-icon-tabler-file-like" viewBox="0 0 24 24"><g fill="none" stroke="currentColor" stroke-linecap="round" stroke-linejoin="round" stroke-width="2"><path d="M3 17a1 1 0 0 1 1-1h1a1 1 0 0 1 1 1v3a1 1 0 0 1-1 1H4a1 1 0 0 1-1-1zm3 3a1 1 0 0 0 1 1h3.756a1 1 0 0 0 .958-.713l1.2-3c.09-.303.133-.63-.056-.884C12.67 16.149 12.316 16 12 16h-2v-2.467a1.1 1.1 0 0 0-2.015-.61L6 16zm8-17v4a1 1 0 0 0 1 1h4"/><path d="M5 12.1V5a2 2 0 0 1 2-2h7l5 5v11a2 2 0 0 1-2 2h-2.3"/></g></symbol><symbol id="hd-icon-tabler-file-minus" viewBox="0 0 24 24"><g fill="none" stroke="currentColor" stroke-linecap="round" stroke-linejoin="round" stroke-width="2"><path d="M14 3v4a1 1 0 0 0 1 1h4"/><path d="M17 21H7a2 2 0 0 1-2-2V5a2 2 0 0 1 2-2h7l5 5v11a2 2 0 0 1-2 2m-8-7h6"/></g></symbol><symbol id="hd-icon-tabler-file-minus-filled" viewBox="0 0 24 24"><g fill="currentColor"><path d="m12 2l.117.007a1 1 0 0 1 .876.876L13 3v4l.005.15a2 2 0 0 0 1.838 1.844L15 9h4l.117.007a1 1 0 0 1 .876.876L20 10v9a3 3 0 0 1-2.824 2.995L17 22H7a3 3 0 0 1-2.995-2.824L4 19V5a3 3 0 0 1 2.824-2.995L7 2zm3 11H9a1 1 0 0 0 0 2h6a1 1 0 0 0 0-2"/><path d="M19 7h-4l-.001-4.001z"/></g></symbol><symbol id="hd-icon-tabler-file-music" viewBox="0 0 24 24"><g fill="none" stroke="currentColor" stroke-linecap="round" stroke-linejoin="round" stroke-width="2"><path d="M14 3v4a1 1 0 0 0 1 1h4"/><path d="M17 21H7a2 2 0 0 1-2-2V5a2 2 0 0 1 2-2h7l5 5v11a2 2 0 0 1-2 2"/><path d="M10 16a1 1 0 1 0 2 0a1 1 0 1 0-2 0m2 0v-5l2 1"/></g></symbol><symbol id="hd-icon-tabler-file-music-filled" viewBox="0 0 24 24"><g fill="currentColor"><path d="m12 2l.117.007a1 1 0 0 1 .876.876L13 3v4l.005.15a2 2 0 0 0 1.838 1.844L15 9h4l.117.007a1 1 0 0 1 .876.876L20 10v9a3 3 0 0 1-2.824 2.995L17 22H7a3 3 0 0 1-2.995-2.824L4 19V5a3 3 0 0 1 2.824-2.995L7 2zm.447 9.106A1 1 0 0 0 11 12v3a2 2 0 0 0-1.995 1.85L9 17a2 2 0 1 0 4 0v-3.382l.553.276a1 1 0 0 0 .894-1.788z"/><path d="M19 7h-4l-.001-4.001z"/></g></symbol><symbol id="hd-icon-tabler-file-neutral" viewBox="0 0 24 24"><g fill="none" stroke="currentColor" stroke-linecap="round" stroke-linejoin="round" stroke-width="2"><path d="M14 3v4a1 1 0 0 0 1 1h4"/><path d="M17 21H7a2 2 0 0 1-2-2V5a2 2 0 0 1 2-2h7l5 5v11a2 2 0 0 1-2 2m-7-7h.01M14 14h.01M10 17h4"/></g></symbol><symbol id="hd-icon-tabler-file-neutral-filled" viewBox="0 0 24 24"><g fill="currentColor"><path d="m12 2l.117.007a1 1 0 0 1 .876.876L13 3v4l.005.15a2 2 0 0 0 1.838 1.844L15 9h4l.117.007a1 1 0 0 1 .876.876L20 10v9a3 3 0 0 1-2.824 2.995L17 22H7a3 3 0 0 1-2.995-2.824L4 19V5a3 3 0 0 1 2.824-2.995L7 2zm2 14h-4a1 1 0 0 0 0 2h4a1 1 0 0 0 0-2m-3.995-4h-.01a1 1 0 0 0 0 2h.01a1 1 0 0 0 0-2m4 0h-.01a1 1 0 0 0 0 2h.01a1 1 0 0 0 0-2"/><path d="M19 7h-4l-.001-4.001z"/></g></symbol><symbol id="hd-icon-tabler-file-off" viewBox="0 0 24 24"><path fill="none" stroke="currentColor" stroke-linecap="round" stroke-linejoin="round" stroke-width="2" d="m3 3l18 18M7 3h7l5 5v7m0 4a2 2 0 0 1-2 2H7a2 2 0 0 1-2-2V5"/></symbol><symbol id="hd-icon-tabler-file-orientation" viewBox="0 0 24 24"><g fill="none" stroke="currentColor" stroke-linecap="round" stroke-linejoin="round" stroke-width="2"><path d="M14 3v4a1 1 0 0 0 1 1h4"/><path d="M10 21H7a2 2 0 0 1-2-2V5a2 2 0 0 1 2-2h7l5 5v2m-6 10h5a2 2 0 0 0 2-2v-5"/><path d="m15 22l-2-2l2-2m3-3l2-2l2 2"/></g></symbol><symbol id="hd-icon-tabler-file-pencil" viewBox="0 0 24 24"><g fill="none" stroke="currentColor" stroke-linecap="round" stroke-linejoin="round" stroke-width="2"><path d="M14 3v4a1 1 0 0 0 1 1h4"/><path d="M17 21H7a2 2 0 0 1-2-2V5a2 2 0 0 1 2-2h7l5 5v11a2 2 0 0 1-2 2"/><path d="m10 18l5-5a1.414 1.414 0 0 0-2-2l-5 5v2z"/></g></symbol><symbol id="hd-icon-tabler-file-pencil-filled" viewBox="0 0 24 24"><g fill="currentColor"><path d="m12 2l.117.007a1 1 0 0 1 .876.876L13 3v4l.005.15a2 2 0 0 0 1.838 1.844L15 9h4l.117.007a1 1 0 0 1 .876.876L20 10v9a3 3 0 0 1-2.824 2.995L17 22H7a3 3 0 0 1-2.995-2.824L4 19V5a3 3 0 0 1 2.824-2.995L7 2zm1 10l-5 5v2h2l5-5a1.414 1.414 0 0 0-2-2"/><path d="M19 7h-4l-.001-4.001z"/></g></symbol><symbol id="hd-icon-tabler-file-percent" viewBox="0 0 24 24"><g fill="none" stroke="currentColor" stroke-linecap="round" stroke-linejoin="round" stroke-width="2"><path d="m10 17l4-4m0-10v4a1 1 0 0 0 1 1h4"/><path d="M17 21H7a2 2 0 0 1-2-2V5a2 2 0 0 1 2-2h7l5 5v11a2 2 0 0 1-2 2m-7-8h.01M14 17h.01"/></g></symbol><symbol id="hd-icon-tabler-file-percent-filled" viewBox="0 0 24 24"><path fill="currentColor" d="m12 2l.117.007a1 1 0 0 1 .876.876L13 3v4l.005.15a2 2 0 0 0 1.838 1.844L15 9h4l.117.007a1 1 0 0 1 .876.876L20 10v9a3 3 0 0 1-2.824 2.995L17 22H7a3 3 0 0 1-2.995-2.824L4 19V5a3 3 0 0 1 2.824-2.995L7 2zm2.01 14H14a1 1 0 0 0-.117 1.993l.127.007a1 1 0 0 0 0-2m.697-3.707a1 1 0 0 0-1.414 0l-4 4a1 1 0 0 0 1.414 1.414l4-4a1 1 0 0 0 0-1.414M10.01 12H10a1 1 0 0 0-.117 1.993l.127.007a1 1 0 0 0 0-2m4.989-9.001L19 7h-4z"/></symbol><symbol id="hd-icon-tabler-file-phone" viewBox="0 0 24 24"><g fill="none" stroke="currentColor" stroke-linecap="round" stroke-linejoin="round" stroke-width="2"><path d="M14 3v4a1 1 0 0 0 1 1h4"/><path d="M17 21H7a2 2 0 0 1-2-2V5a2 2 0 0 1 2-2h7l5 5v11a2 2 0 0 1-2 2"/><path d="M9 12a.5.5 0 0 0 1 0v-1a.5.5 0 0 0-1 0za5 5 0 0 0 5 5h1a.5.5 0 0 0 0-1h-1a.5.5 0 0 0 0 1"/></g></symbol><symbol id="hd-icon-tabler-file-phone-filled" viewBox="0 0 24 24"><path fill="currentColor" d="m12 2l.117.007a1 1 0 0 1 .876.876L13 3v4l.005.15a2 2 0 0 0 1.838 1.844L15 9h4l.117.007a1 1 0 0 1 .876.876L20 10v9a3 3 0 0 1-2.824 2.995L17 22H7a3 3 0 0 1-2.995-2.824L4 19V5a3 3 0 0 1 2.824-2.995L7 2zM9.5 9.5A1.5 1.5 0 0 0 8 11v1a6 6 0 0 0 6 6h1a1.5 1.5 0 0 0 0-3h-1l-.144.007a1.5 1.5 0 0 0-1.128.697l-.042.074l-.022-.007a4.01 4.01 0 0 1-2.435-2.435l-.008-.023l.075-.041A1.5 1.5 0 0 0 11 12v-1a1.5 1.5 0 0 0-1.5-1.5m5.499-6.501L19 7h-4z"/></symbol><symbol id="hd-icon-tabler-file-plus" viewBox="0 0 24 24"><g fill="none" stroke="currentColor" stroke-linecap="round" stroke-linejoin="round" stroke-width="2"><path d="M14 3v4a1 1 0 0 0 1 1h4"/><path d="M17 21H7a2 2 0 0 1-2-2V5a2 2 0 0 1 2-2h7l5 5v11a2 2 0 0 1-2 2m-5-10v6m-3-3h6"/></g></symbol><symbol id="hd-icon-tabler-file-power" viewBox="0 0 24 24"><g fill="none" stroke="currentColor" stroke-linecap="round" stroke-linejoin="round" stroke-width="2"><path d="M14 3v4a1 1 0 0 0 1 1h4"/><path d="M17 21H7a2 2 0 0 1-2-2V5a2 2 0 0 1 2-2h7l5 5v11a2 2 0 0 1-2 2"/><path d="m12 11l-2 3h4l-2 3"/></g></symbol><symbol id="hd-icon-tabler-file-power-filled" viewBox="0 0 24 24"><g fill="currentColor"><path d="m12 2l.117.007a1 1 0 0 1 .876.876L13 3v4l.005.15a2 2 0 0 0 1.838 1.844L15 9h4l.117.007a1 1 0 0 1 .876.876L20 10v9a3 3 0 0 1-2.824 2.995L17 22H7a3 3 0 0 1-2.995-2.824L4 19V5a3 3 0 0 1 2.824-2.995L7 2zm.555 9.168a1 1 0 0 0-1.387.277l-2 3l-.057.097A1 1 0 0 0 10 16h2.13l-.962 1.445a1 1 0 1 0 1.664 1.11l2-3l.057-.097A1 1 0 0 0 14 14h-2.132l.964-1.445a1 1 0 0 0-.277-1.387"/><path d="M19 7h-4l-.001-4.001z"/></g></symbol><symbol id="hd-icon-tabler-file-report" viewBox="0 0 24 24"><g fill="none" stroke="currentColor" stroke-linecap="round" stroke-linejoin="round" stroke-width="2"><path d="M13 17a4 4 0 1 0 8 0a4 4 0 1 0-8 0"/><path d="M17 13v4h4M12 3v4a1 1 0 0 0 1 1h4"/><path d="M11.5 21H5a2 2 0 0 1-2-2V5a2 2 0 0 1 2-2h7l5 5v2m0 3v4"/></g></symbol><symbol id="hd-icon-tabler-file-rss" viewBox="0 0 24 24"><g fill="none" stroke="currentColor" stroke-linecap="round" stroke-linejoin="round" stroke-width="2"><path d="M14 3v4a1 1 0 0 0 1 1h4"/><path d="M17 21H7a2 2 0 0 1-2-2V5a2 2 0 0 1 2-2h7l5 5v11a2 2 0 0 1-2 2"/><path d="M12 17a3 3 0 0 0-3-3m6 3a6 6 0 0 0-6-6m0 6h.01"/></g></symbol><symbol id="hd-icon-tabler-file-rss-filled" viewBox="0 0 24 24"><path fill="currentColor" d="m12 2l.117.007a1 1 0 0 1 .876.876L13 3v4l.005.15a2 2 0 0 0 1.838 1.844L15 9h4l.117.007a1 1 0 0 1 .876.876L20 10v9a3 3 0 0 1-2.824 2.995L17 22H7a3 3 0 0 1-2.995-2.824L4 19V5a3 3 0 0 1 2.824-2.995L7 2zM9 13a1 1 0 0 0 0 2a2 2 0 0 1 1.995 1.85L11 17a1 1 0 0 0 2 0a4 4 0 0 0-4-4m0-3a1 1 0 0 0 0 2a5 5 0 0 1 5 5a1 1 0 0 0 2 0a7 7 0 0 0-7-7m.01 6H9a1 1 0 0 0-.117 1.993L9.01 18a1 1 0 0 0 0-2m5.989-13.001L19 7h-4z"/></symbol><symbol id="hd-icon-tabler-file-sad" viewBox="0 0 24 24"><g fill="none" stroke="currentColor" stroke-linecap="round" stroke-linejoin="round" stroke-width="2"><path d="M14 3v4a1 1 0 0 0 1 1h4"/><path d="M17 21H7a2 2 0 0 1-2-2V5a2 2 0 0 1 2-2h7l5 5v11a2 2 0 0 1-2 2m-7-7h.01M14 14h.01"/><path d="M10 18a3.5 3.5 0 0 1 4 0"/></g></symbol><symbol id="hd-icon-tabler-file-sad-filled" viewBox="0 0 24 24"><g fill="currentColor"><path d="m12 2l.117.007a1 1 0 0 1 .876.876L13 3v4l.005.15a2 2 0 0 0 1.838 1.844L15 9h4l.117.007a1 1 0 0 1 .876.876L20 10v9a3 3 0 0 1-2.824 2.995L17 22H7a3 3 0 0 1-2.995-2.824L4 19V5a3 3 0 0 1 2.824-2.995L7 2zm2.571 15.18a4.5 4.5 0 0 0-5.142 0a1 1 0 1 0 1.142 1.64a2.5 2.5 0 0 1 2.858 0a1 1 0 0 0 1.142-1.64M10.006 12h-.011a1 1 0 0 0 0 2h.01a1 1 0 0 0 0-2m4 0h-.011a1 1 0 0 0 0 2h.01a1 1 0 0 0 0-2"/><path d="M19 7h-4l-.001-4.001z"/></g></symbol><symbol id="hd-icon-tabler-file-scissors" viewBox="0 0 24 24"><g fill="none" stroke="currentColor" stroke-linecap="round" stroke-linejoin="round" stroke-width="2"><path d="M14 3v4a1 1 0 0 0 1 1h4"/><path d="M17 21H7a2 2 0 0 1-2-2V5a2 2 0 0 1 2-2h7l5 5v11a2 2 0 0 1-2 2"/><path d="M14 17a1 1 0 1 0 2 0a1 1 0 1 0-2 0m-6 0a1 1 0 1 0 2 0a1 1 0 1 0-2 0m1 0l6-6m0 6l-6-6"/></g></symbol><symbol id="hd-icon-tabler-file-scissors-filled" viewBox="0 0 24 24"><g fill="currentColor"><path d="m12 2l.117.007a1 1 0 0 1 .876.876L13 3v4l.005.15a2 2 0 0 0 1.838 1.844L15 9h4l.117.007a1 1 0 0 1 .876.876L20 10v9a3 3 0 0 1-2.824 2.995L17 22H7a3 3 0 0 1-2.995-2.824L4 19V5a3 3 0 0 1 2.824-2.995L7 2zm-2.293 9.293a1 1 0 1 0-1.414 1.414L10.585 15l-1.068 1.067a2.003 2.003 0 0 0-2.512 1.784L7 18a2 2 0 1 0 3.933-.516L12 16.415l1.067 1.068a2 2 0 0 0-.062.368L13 18a2 2 0 1 0 1.484-1.933L13.415 15l2.292-2.293a1 1 0 0 0-1.414-1.414L12 13.585z"/><path d="M19 7h-4l-.001-4.001z"/></g></symbol><symbol id="hd-icon-tabler-file-search" viewBox="0 0 24 24"><g fill="none" stroke="currentColor" stroke-linecap="round" stroke-linejoin="round" stroke-width="2"><path d="M14 3v4a1 1 0 0 0 1 1h4"/><path d="M12 21H7a2 2 0 0 1-2-2V5a2 2 0 0 1 2-2h7l5 5v4.5"/><path d="M14 17.5a2.5 2.5 0 1 0 5 0a2.5 2.5 0 1 0-5 0m4.5 2L21 22"/></g></symbol><symbol id="hd-icon-tabler-file-settings" viewBox="0 0 24 24"><g fill="none" stroke="currentColor" stroke-linecap="round" stroke-linejoin="round" stroke-width="2"><path d="M10 14a2 2 0 1 0 4 0a2 2 0 1 0-4 0m2-3.5V12m0 4v1.5m3.031-5.25l-1.299.75m-3.464 2l-1.3.75m6.032.053l-1.285-.773m-3.43-2.06L9 12.197M14 3v4a1 1 0 0 0 1 1h4"/><path d="M17 21H7a2 2 0 0 1-2-2V5a2 2 0 0 1 2-2h7l5 5v11a2 2 0 0 1-2 2"/></g></symbol><symbol id="hd-icon-tabler-file-settings-filled" viewBox="0 0 24 24"><g fill="currentColor"><path d="m12 2l.117.007a1 1 0 0 1 .876.876L13 3v4l.005.15a2 2 0 0 0 1.838 1.844L15 9h4l.117.007a1 1 0 0 1 .876.876L20 10v9a3 3 0 0 1-2.824 2.995L17 22H7a3 3 0 0 1-2.995-2.824L4 19V5a3 3 0 0 1 2.824-2.995L7 2zm0 8.5a1 1 0 0 0-1 1v.67a3 3 0 0 0-.909.516l-.576-.346a1 1 0 0 0-1.03 1.714l.575.346q-.043.207-.055.424L9 15q0 .28.05.548l-.582.336a1 1 0 0 0 1 1.732l.583-.336c.277.238.598.425.95.55L11 18.5a1 1 0 0 0 2 0v-.671c.335-.118.641-.294.909-.514l.576.345a1 1 0 0 0 1.03-1.714l-.575-.346a3 3 0 0 0 .01-1.148l.581-.336a1 1 0 0 0-1-1.732l-.582.335a3 3 0 0 0-.948-.548L13 11.5a1 1 0 0 0-1-1m0 3.5a1 1 0 1 1 0 2a1 1 0 0 1 0-2"/><path d="M19 7h-4l-.001-4.001z"/></g></symbol><symbol id="hd-icon-tabler-file-shredder" viewBox="0 0 24 24"><g fill="none" stroke="currentColor" stroke-linecap="round" stroke-linejoin="round" stroke-width="2"><path d="M14 3v4a1 1 0 0 0 1 1h4"/><path d="M5 12V5a2 2 0 0 1 2-2h7l5 5v4M3 12h18M6 16v2m4-2v6m4-6v2m4-2v4"/></g></symbol><symbol id="hd-icon-tabler-file-signal" viewBox="0 0 24 24"><g fill="none" stroke="currentColor" stroke-linecap="round" stroke-linejoin="round" stroke-width="2"><path d="M14 3v4a1 1 0 0 0 1 1h4"/><path d="M17 21H7a2 2 0 0 1-2-2V5a2 2 0 0 1 2-2h7l5 5v11a2 2 0 0 1-2 2m-5-7v.01"/><path d="M9.525 11.525a3.5 3.5 0 0 0 0 4.95m4.95 0a3.5 3.5 0 0 0 0-4.95"/></g></symbol><symbol id="hd-icon-tabler-file-signal-filled" viewBox="0 0 24 24"><g fill="currentColor"><path d="m12 2l.117.007a1 1 0 0 1 .876.876L13 3v4l.005.15a2 2 0 0 0 1.838 1.844L15 9h4l.117.007a1 1 0 0 1 .876.876L20 10v9a3 3 0 0 1-2.824 2.995L17 22H7a3 3 0 0 1-2.995-2.824L4 19V5a3 3 0 0 1 2.824-2.995L7 2zm-1.768 9.818a1 1 0 0 0-1.414 0a4.5 4.5 0 0 0 0 6.364a1 1 0 0 0 1.414-1.414a2.5 2.5 0 0 1 0-3.536a1 1 0 0 0 0-1.414m4.95 0a1 1 0 0 0-1.414 1.414a2.5 2.5 0 0 1 0 3.536a1 1 0 0 0 1.414 1.414a4.5 4.5 0 0 0 0-6.364M12 14a1 1 0 0 0-1 1l.007.127A1 1 0 0 0 13 15.01l-.007-.127A1 1 0 0 0 12 14"/><path d="M19 7h-4l-.001-4.001z"/></g></symbol><symbol id="hd-icon-tabler-file-smile" viewBox="0 0 24 24"><g fill="none" stroke="currentColor" stroke-linecap="round" stroke-linejoin="round" stroke-width="2"><path d="M14 3v4a1 1 0 0 0 1 1h4"/><path d="M17 21H7a2 2 0 0 1-2-2V5a2 2 0 0 1 2-2h7l5 5v11a2 2 0 0 1-2 2m-7-7h.01M14 14h.01"/><path d="M10 17a3.5 3.5 0 0 0 4 0"/></g></symbol><symbol id="hd-icon-tabler-file-smile-filled" viewBox="0 0 24 24"><g fill="currentColor"><path d="m12 2l.117.007a1 1 0 0 1 .876.876L13 3v4l.005.15a2 2 0 0 0 1.838 1.844L15 9h4l.117.007a1 1 0 0 1 .876.876L20 10v9a3 3 0 0 1-2.824 2.995L17 22H7a3 3 0 0 1-2.995-2.824L4 19V5a3 3 0 0 1 2.824-2.995L7 2zm2.82 14.429a1 1 0 0 0-1.391-.25a2.5 2.5 0 0 1-2.858 0a1 1 0 0 0-1.142 1.642a4.5 4.5 0 0 0 5.142 0a1 1 0 0 0 .25-1.392M10.006 12h-.01a1 1 0 0 0 0 2h.01a1 1 0 0 0 0-2m4 0h-.01a1 1 0 0 0 0 2h.01a1 1 0 0 0 0-2"/><path d="M19 7h-4l-.001-4.001z"/></g></symbol><symbol id="hd-icon-tabler-file-spark" viewBox="0 0 24 24"><g fill="none" stroke="currentColor" stroke-linecap="round" stroke-linejoin="round" stroke-width="2"><path d="M19 22.5a4.75 4.75 0 0 1 3.5-3.5a4.75 4.75 0 0 1-3.5-3.5a4.75 4.75 0 0 1-3.5 3.5a4.75 4.75 0 0 1 3.5 3.5M14 3v4a1 1 0 0 0 1 1h4"/><path d="M12 21H7a2 2 0 0 1-2-2V5a2 2 0 0 1 2-2h7l5 5v3.5"/></g></symbol><symbol id="hd-icon-tabler-file-spreadsheet" viewBox="0 0 24 24"><g fill="none" stroke="currentColor" stroke-linecap="round" stroke-linejoin="round" stroke-width="2"><path d="M14 3v4a1 1 0 0 0 1 1h4"/><path d="M17 21H7a2 2 0 0 1-2-2V5a2 2 0 0 1 2-2h7l5 5v11a2 2 0 0 1-2 2"/><path d="M8 11h8v7H8zm0 4h8m-5-4v7"/></g></symbol><symbol id="hd-icon-tabler-file-stack" viewBox="0 0 24 24"><g fill="none" stroke="currentColor" stroke-linecap="round" stroke-linejoin="round" stroke-width="2"><path d="M14 3v4a1 1 0 0 0 1 1h4"/><path d="M5 12V5a2 2 0 0 1 2-2h7l5 5v4M5 21h14M5 18h14M5 15h14"/></g></symbol><symbol id="hd-icon-tabler-file-star" viewBox="0 0 24 24"><g fill="none" stroke="currentColor" stroke-linecap="round" stroke-linejoin="round" stroke-width="2"><path d="M14 3v4a1 1 0 0 0 1 1h4"/><path d="M17 21H7a2 2 0 0 1-2-2V5a2 2 0 0 1 2-2h7l5 5v11a2 2 0 0 1-2 2"/><path d="m11.8 16.817l-2.172 1.138a.392.392 0 0 1-.568-.41l.415-2.411l-1.757-1.707a.389.389 0 0 1 .217-.665l2.428-.352l1.086-2.193a.392.392 0 0 1 .702 0l1.086 2.193l2.428.352a.39.39 0 0 1 .217.665l-1.757 1.707l.414 2.41a.39.39 0 0 1-.567.411z"/></g></symbol><symbol id="hd-icon-tabler-file-star-filled" viewBox="0 0 24 24"><g fill="currentColor"><path d="m12 2l.117.007a1 1 0 0 1 .876.876L13 3v4l.005.15a2 2 0 0 0 1.838 1.844L15 9h4l.117.007a1 1 0 0 1 .876.876L20 10v9a3 3 0 0 1-2.824 2.995L17 22H7a3 3 0 0 1-2.995-2.824L4 19V5a3 3 0 0 1 2.824-2.995L7 2zm-.2 9a.39.39 0 0 0-.351.217l-1.086 2.193l-2.428.352a.389.389 0 0 0-.217.665l1.757 1.707l-.415 2.411a.392.392 0 0 0 .568.41l2.172-1.138l2.172 1.138a.39.39 0 0 0 .567-.411l-.414-2.41l1.757-1.707a.39.39 0 0 0-.217-.665l-2.428-.352l-1.086-2.193A.39.39 0 0 0 11.8 11"/><path d="M19 7h-4l-.001-4.001z"/></g></symbol><symbol id="hd-icon-tabler-file-symlink" viewBox="0 0 24 24"><g fill="none" stroke="currentColor" stroke-linecap="round" stroke-linejoin="round" stroke-width="2"><path d="M4 21v-4a3 3 0 0 1 3-3h5"/><path d="m9 17l3-3l-3-3m5-8v4a1 1 0 0 0 1 1h4"/><path d="M5 11V5a2 2 0 0 1 2-2h7l5 5v11a2 2 0 0 1-2 2H7.5"/></g></symbol><symbol id="hd-icon-tabler-file-text" viewBox="0 0 24 24"><g fill="none" stroke="currentColor" stroke-linecap="round" stroke-linejoin="round" stroke-width="2"><path d="M14 3v4a1 1 0 0 0 1 1h4"/><path d="M17 21H7a2 2 0 0 1-2-2V5a2 2 0 0 1 2-2h7l5 5v11a2 2 0 0 1-2 2M9 9h1m-1 4h6m-6 4h6"/></g></symbol><symbol id="hd-icon-tabler-file-text-ai" viewBox="0 0 24 24"><g fill="none" stroke="currentColor" stroke-linecap="round" stroke-linejoin="round" stroke-width="2"><path d="M14 3v4a1 1 0 0 0 1 1h4"/><path d="M10 21H7a2 2 0 0 1-2-2V5a2 2 0 0 1 2-2h7l5 5v3.5M9 9h1m-1 4h2.5M9 17h1"/><path d="M14 21v-4a2 2 0 1 1 4 0v4m-4-2h4m3-4v6"/></g></symbol><symbol id="hd-icon-tabler-file-text-filled" viewBox="0 0 24 24"><g fill="currentColor"><path d="m12 2l.117.007a1 1 0 0 1 .876.876L13 3v4l.005.15a2 2 0 0 0 1.838 1.844L15 9h4l.117.007a1 1 0 0 1 .876.876L20 10v9a3 3 0 0 1-2.824 2.995L17 22H7a3 3 0 0 1-2.995-2.824L4 19V5a3 3 0 0 1 2.824-2.995L7 2zm3 14H9a1 1 0 0 0 0 2h6a1 1 0 0 0 0-2m0-4H9a1 1 0 0 0 0 2h6a1 1 0 0 0 0-2m-5-4H9a1 1 0 1 0 0 2h1a1 1 0 0 0 0-2"/><path d="M19 7h-4l-.001-4.001z"/></g></symbol><symbol id="hd-icon-tabler-file-text-shield" viewBox="0 0 24 24"><g fill="none" stroke="currentColor" stroke-linecap="round" stroke-linejoin="round" stroke-width="2"><path d="M13 3v4a.997.997 0 0 0 1 1h4"/><path d="M11 21H6a2 2 0 0 1-2-2V5a2 2 0 0 1 2-2h7l5 5v3.5M8 9h1m-1 3.994h3m-3 4.003h2"/><path d="M21 15.994c0 4-2.5 6-3.5 6s-3.5-2-3.5-6c1 0 2.5-.5 3.5-1.5c1 1 2.5 1.5 3.5 1.5"/></g></symbol><symbol id="hd-icon-tabler-file-text-spark" viewBox="0 0 24 24"><g fill="none" stroke="currentColor" stroke-linecap="round" stroke-linejoin="round" stroke-width="2"><path d="M14 3v4a1 1 0 0 0 1 1h4"/><path d="M12 21H7a2 2 0 0 1-2-2V5a2 2 0 0 1 2-2h7l5 5v3.5M9 9h1m-1 4h6m-6 4h3m7 5.5a4.75 4.75 0 0 1 3.5-3.5a4.75 4.75 0 0 1-3.5-3.5a4.75 4.75 0 0 1-3.5 3.5a4.75 4.75 0 0 1 3.5 3.5"/></g></symbol><symbol id="hd-icon-tabler-file-time" viewBox="0 0 24 24"><g fill="none" stroke="currentColor" stroke-linecap="round" stroke-linejoin="round" stroke-width="2"><path d="M14 3v4a1 1 0 0 0 1 1h4"/><path d="M17 21H7a2 2 0 0 1-2-2V5a2 2 0 0 1 2-2h7l5 5v11a2 2 0 0 1-2 2"/><path d="M8 14a4 4 0 1 0 8 0a4 4 0 1 0-8 0"/><path d="M12 12.496V14l1 1"/></g></symbol><symbol id="hd-icon-tabler-file-time-filled" viewBox="0 0 24 24"><g fill="currentColor"><path d="m12 2l.117.007a1 1 0 0 1 .876.876L13 3v4l.005.15a2 2 0 0 0 1.838 1.844L15 9h4l.117.007a1 1 0 0 1 .876.876L20 10v9a3 3 0 0 1-2.824 2.995L17 22H7a3 3 0 0 1-2.995-2.824L4 19V5a3 3 0 0 1 2.824-2.995L7 2zm0 8a5 5 0 0 0-4.995 4.783L7 15a5 5 0 1 0 5-5m0 2a3 3 0 1 1 0 6a3 3 0 0 1 0-6m0 .496a1 1 0 0 0-1 1V15a1 1 0 0 0 .293.707l1 1a1 1 0 0 0 1.414 0l.083-.094a1 1 0 0 0-.083-1.32L13 14.585v-1.089a1 1 0 0 0-1-1"/><path d="M19 7h-4l-.001-4.001z"/></g></symbol><symbol id="hd-icon-tabler-file-type-bmp" viewBox="0 0 24 24"><g fill="none" stroke="currentColor" stroke-linecap="round" stroke-linejoin="round" stroke-width="2"><path d="M14 3v4a1 1 0 0 0 1 1h4"/><path d="M5 12V5a2 2 0 0 1 2-2h7l5 5v4m-1 6h1.5a1.5 1.5 0 0 0 0-3H18v6M4 21h1.5a1.5 1.5 0 0 0 0-3H4h1.5a1.5 1.5 0 0 0 0-3H4zm6 0v-6l2.5 3l2.5-3v6"/></g></symbol><symbol id="hd-icon-tabler-file-type-css" viewBox="0 0 24 24"><g fill="none" stroke="currentColor" stroke-linecap="round" stroke-linejoin="round" stroke-width="2"><path d="M14 3v4a1 1 0 0 0 1 1h4"/><path d="M5 12V5a2 2 0 0 1 2-2h7l5 5v4M8 16.5a1.5 1.5 0 0 0-3 0v3a1.5 1.5 0 0 0 3 0m3 .75c0 .414.336.75.75.75H13a1 1 0 0 0 1-1v-1a1 1 0 0 0-1-1h-1a1 1 0 0 1-1-1v-1a1 1 0 0 1 1-1h1.25a.75.75 0 0 1 .75.75m3 4.5c0 .414.336.75.75.75H19a1 1 0 0 0 1-1v-1a1 1 0 0 0-1-1h-1a1 1 0 0 1-1-1v-1a1 1 0 0 1 1-1h1.25a.75.75 0 0 1 .75.75"/></g></symbol><symbol id="hd-icon-tabler-file-type-csv" viewBox="0 0 24 24"><g fill="none" stroke="currentColor" stroke-linecap="round" stroke-linejoin="round" stroke-width="2"><path d="M14 3v4a1 1 0 0 0 1 1h4"/><path d="M5 12V5a2 2 0 0 1 2-2h7l5 5v4M7 16.5a1.5 1.5 0 0 0-3 0v3a1.5 1.5 0 0 0 3 0m3 .75c0 .414.336.75.75.75H12a1 1 0 0 0 1-1v-1a1 1 0 0 0-1-1h-1a1 1 0 0 1-1-1v-1a1 1 0 0 1 1-1h1.25a.75.75 0 0 1 .75.75m3-.75l2 6l2-6"/></g></symbol><symbol id="hd-icon-tabler-file-type-doc" viewBox="0 0 24 24"><g fill="none" stroke="currentColor" stroke-linecap="round" stroke-linejoin="round" stroke-width="2"><path d="M14 3v4a1 1 0 0 0 1 1h4"/><path d="M5 12V5a2 2 0 0 1 2-2h7l5 5v4M5 15v6h1a2 2 0 0 0 2-2v-2a2 2 0 0 0-2-2zm15 1.5a1.5 1.5 0 0 0-3 0v3a1.5 1.5 0 0 0 3 0M12.5 15a1.5 1.5 0 0 1 1.5 1.5v3a1.5 1.5 0 0 1-3 0v-3a1.5 1.5 0 0 1 1.5-1.5"/></g></symbol><symbol id="hd-icon-tabler-file-type-docx" viewBox="0 0 24 24"><g fill="none" stroke="currentColor" stroke-linecap="round" stroke-linejoin="round" stroke-width="2"><path d="M14 3v4a1 1 0 0 0 1 1h4"/><path d="M5 12V5a2 2 0 0 1 2-2h7l5 5v4M2 15v6h1a2 2 0 0 0 2-2v-2a2 2 0 0 0-2-2zm15 1.5a1.5 1.5 0 0 0-3 0v3a1.5 1.5 0 0 0 3 0M9.5 15a1.5 1.5 0 0 1 1.5 1.5v3a1.5 1.5 0 0 1-3 0v-3A1.5 1.5 0 0 1 9.5 15m10 0l3 6m-3 0l3-6"/></g></symbol><symbol id="hd-icon-tabler-file-type-html" viewBox="0 0 24 24"><g fill="none" stroke="currentColor" stroke-linecap="round" stroke-linejoin="round" stroke-width="2"><path d="M14 3v4a1 1 0 0 0 1 1h4"/><path d="M5 12V5a2 2 0 0 1 2-2h7l5 5v4M2 21v-6m3 0v6m-3-3h3m15-3v6h2m-9 0v-6l2 3l2-3v6m-9.5-6h3M9 15v6"/></g></symbol><symbol id="hd-icon-tabler-file-type-jpg" viewBox="0 0 24 24"><g fill="none" stroke="currentColor" stroke-linecap="round" stroke-linejoin="round" stroke-width="2"><path d="M14 3v4a1 1 0 0 0 1 1h4"/><path d="M5 12V5a2 2 0 0 1 2-2h7l5 5v4m-8 6h1.5a1.5 1.5 0 0 0 0-3H11v6m9-6h-1a2 2 0 0 0-2 2v2a2 2 0 0 0 2 2h1v-3M5 15h3v4.5a1.5 1.5 0 0 1-3 0"/></g></symbol><symbol id="hd-icon-tabler-file-type-js" viewBox="0 0 24 24"><g fill="none" stroke="currentColor" stroke-linecap="round" stroke-linejoin="round" stroke-width="2"><path d="M14 3v4a1 1 0 0 0 1 1h4M3 15h3v4.5a1.5 1.5 0 0 1-3 0m6 .75c0 .414.336.75.75.75H11a1 1 0 0 0 1-1v-1a1 1 0 0 0-1-1h-1a1 1 0 0 1-1-1v-1a1 1 0 0 1 1-1h1.25a.75.75 0 0 1 .75.75"/><path d="M5 12V5a2 2 0 0 1 2-2h7l5 5v11a2 2 0 0 1-2 2h-1"/></g></symbol><symbol id="hd-icon-tabler-file-type-jsx" viewBox="0 0 24 24"><g fill="none" stroke="currentColor" stroke-linecap="round" stroke-linejoin="round" stroke-width="2"><path d="M14 3v4a1 1 0 0 0 1 1h4"/><path d="M5 12V5a2 2 0 0 1 2-2h7l5 5v4M4 15h3v4.5a1.5 1.5 0 0 1-3 0m6 .75c0 .414.336.75.75.75H12a1 1 0 0 0 1-1v-1a1 1 0 0 0-1-1h-1a1 1 0 0 1-1-1v-1a1 1 0 0 1 1-1h1.25a.75.75 0 0 1 .75.75m3-.75l4 6m-4 0l4-6"/></g></symbol><symbol id="hd-icon-tabler-file-type-pdf" viewBox="0 0 24 24"><g fill="none" stroke="currentColor" stroke-linecap="round" stroke-linejoin="round" stroke-width="2"><path d="M14 3v4a1 1 0 0 0 1 1h4"/><path d="M5 12V5a2 2 0 0 1 2-2h7l5 5v4M5 18h1.5a1.5 1.5 0 0 0 0-3H5v6m12-3h2m1-3h-3v6m-6-6v6h1a2 2 0 0 0 2-2v-2a2 2 0 0 0-2-2z"/></g></symbol><symbol id="hd-icon-tabler-file-type-php" viewBox="0 0 24 24"><g fill="none" stroke="currentColor" stroke-linecap="round" stroke-linejoin="round" stroke-width="2"><path d="M14 3v4a1 1 0 0 0 1 1h4"/><path d="M5 12V5a2 2 0 0 1 2-2h7l5 5v4M5 18h1.5a1.5 1.5 0 0 0 0-3H5v6m12-3h1.5a1.5 1.5 0 0 0 0-3H17v6m-6 0v-6m3 0v6m-3-3h3"/></g></symbol><symbol id="hd-icon-tabler-file-type-png" viewBox="0 0 24 24"><g fill="none" stroke="currentColor" stroke-linecap="round" stroke-linejoin="round" stroke-width="2"><path d="M14 3v4a1 1 0 0 0 1 1h4"/><path d="M5 12V5a2 2 0 0 1 2-2h7l5 5v4m1 3h-1a2 2 0 0 0-2 2v2a2 2 0 0 0 2 2h1v-3M5 18h1.5a1.5 1.5 0 0 0 0-3H5v6m6 0v-6l3 6v-6"/></g></symbol><symbol id="hd-icon-tabler-file-type-ppt" viewBox="0 0 24 24"><g fill="none" stroke="currentColor" stroke-linecap="round" stroke-linejoin="round" stroke-width="2"><path d="M14 3v4a1 1 0 0 0 1 1h4"/><path d="M14 3v4a1 1 0 0 0 1 1h4M5 18h1.5a1.5 1.5 0 0 0 0-3H5v6m6-3h1.5a1.5 1.5 0 0 0 0-3H11v6m5.5-6h3M18 15v6"/><path d="M5 12V5a2 2 0 0 1 2-2h7l5 5v4"/></g></symbol><symbol id="hd-icon-tabler-file-type-rs" viewBox="0 0 24 24"><g fill="none" stroke="currentColor" stroke-linecap="round" stroke-linejoin="round" stroke-width="2"><path d="M14 3v4a1 1 0 0 0 1 1h4"/><path d="M14 3v4a1 1 0 0 0 1 1h4M9 20.25c0 .414.336.75.75.75H11a1 1 0 0 0 1-1v-1a1 1 0 0 0-1-1h-1a1 1 0 0 1-1-1v-1a1 1 0 0 1 1-1h1.25a.75.75 0 0 1 .75.75"/><path d="M5 12V5a2 2 0 0 1 2-2h7l5 5v11a2 2 0 0 1-2 2h-1M3 18h1.5a1.5 1.5 0 0 0 0-3H3v6m3 0l-2-3"/></g></symbol><symbol id="hd-icon-tabler-file-type-sql" viewBox="0 0 24 24"><g fill="none" stroke="currentColor" stroke-linecap="round" stroke-linejoin="round" stroke-width="2"><path d="M14 3v4a1 1 0 0 0 1 1h4"/><path d="M14 3v4a1 1 0 0 0 1 1h4M5 20.25c0 .414.336.75.75.75H7a1 1 0 0 0 1-1v-1a1 1 0 0 0-1-1H6a1 1 0 0 1-1-1v-1a1 1 0 0 1 1-1h1.25a.75.75 0 0 1 .75.75"/><path d="M5 12V5a2 2 0 0 1 2-2h7l5 5v4m-1 3v6h2m-7-6a2 2 0 0 1 2 2v2a2 2 0 1 1-4 0v-2a2 2 0 0 1 2-2m1 5l1.5 1.5"/></g></symbol><symbol id="hd-icon-tabler-file-type-svg" viewBox="0 0 24 24"><g fill="none" stroke="currentColor" stroke-linecap="round" stroke-linejoin="round" stroke-width="2"><path d="M14 3v4a1 1 0 0 0 1 1h4"/><path d="M5 12V5a2 2 0 0 1 2-2h7l5 5v4M4 20.25c0 .414.336.75.75.75H6a1 1 0 0 0 1-1v-1a1 1 0 0 0-1-1H5a1 1 0 0 1-1-1v-1a1 1 0 0 1 1-1h1.25a.75.75 0 0 1 .75.75m3-.75l2 6l2-6m6 0h-1a2 2 0 0 0-2 2v2a2 2 0 0 0 2 2h1v-3"/></g></symbol><symbol id="hd-icon-tabler-file-type-ts" viewBox="0 0 24 24"><g fill="none" stroke="currentColor" stroke-linecap="round" stroke-linejoin="round" stroke-width="2"><path d="M14 3v4a1 1 0 0 0 1 1h4"/><path d="M5 12V5a2 2 0 0 1 2-2h7l5 5v11a2 2 0 0 1-2 2h-1"/><path d="M14 3v4a1 1 0 0 0 1 1h4M9 20.25c0 .414.336.75.75.75H11a1 1 0 0 0 1-1v-1a1 1 0 0 0-1-1h-1a1 1 0 0 1-1-1v-1a1 1 0 0 1 1-1h1.25a.75.75 0 0 1 .75.75M3.5 15h3M5 15v6"/></g></symbol><symbol id="hd-icon-tabler-file-type-tsx" viewBox="0 0 24 24"><g fill="none" stroke="currentColor" stroke-linecap="round" stroke-linejoin="round" stroke-width="2"><path d="M5 12V5a2 2 0 0 1 2-2h7l5 5v4"/><path d="M14 3v4a1 1 0 0 0 1 1h4m-3 7l4 6m-4 0l4-6m-10 5.25c0 .414.336.75.75.75H12a1 1 0 0 0 1-1v-1a1 1 0 0 0-1-1h-1a1 1 0 0 1-1-1v-1a1 1 0 0 1 1-1h1.25a.75.75 0 0 1 .75.75M4.5 15h3M6 15v6"/></g></symbol><symbol id="hd-icon-tabler-file-type-txt" viewBox="0 0 24 24"><g fill="none" stroke="currentColor" stroke-linecap="round" stroke-linejoin="round" stroke-width="2"><path d="M14 3v4a1 1 0 0 0 1 1h4"/><path d="M14 3v4a1 1 0 0 0 1 1h4m-2.5 7h3"/><path d="M5 12V5a2 2 0 0 1 2-2h7l5 5v4M4.5 15h3M6 15v6m12-6v6m-8-6l4 6m-4 0l4-6"/></g></symbol><symbol id="hd-icon-tabler-file-type-vue" viewBox="0 0 24 24"><g fill="none" stroke="currentColor" stroke-linecap="round" stroke-linejoin="round" stroke-width="2"><path d="M14 3v4a1 1 0 0 0 1 1h4"/><path d="M5 12V5a2 2 0 0 1 2-2h7l5 5v4M4 15l2 6l2-6m3 0v4.5a1.5 1.5 0 0 0 3 0V15m6 0h-3v6h3m-3-3h2"/></g></symbol><symbol id="hd-icon-tabler-file-type-xls" viewBox="0 0 24 24"><g fill="none" stroke="currentColor" stroke-linecap="round" stroke-linejoin="round" stroke-width="2"><path d="M14 3v4a1 1 0 0 0 1 1h4"/><path d="M5 12V5a2 2 0 0 1 2-2h7l5 5v4M4 15l4 6m-4 0l4-6m9 5.25c0 .414.336.75.75.75H19a1 1 0 0 0 1-1v-1a1 1 0 0 0-1-1h-1a1 1 0 0 1-1-1v-1a1 1 0 0 1 1-1h1.25a.75.75 0 0 1 .75.75M11 15v6h3"/></g></symbol><symbol id="hd-icon-tabler-file-type-xml" viewBox="0 0 24 24"><g fill="none" stroke="currentColor" stroke-linecap="round" stroke-linejoin="round" stroke-width="2"><path d="M14 3v4a1 1 0 0 0 1 1h4"/><path d="M5 12V5a2 2 0 0 1 2-2h7l5 5v4M4 15l4 6m-4 0l4-6m11 0v6h3m-11 0v-6l2.5 3l2.5-3v6"/></g></symbol><symbol id="hd-icon-tabler-file-type-zip" viewBox="0 0 24 24"><g fill="none" stroke="currentColor" stroke-linecap="round" stroke-linejoin="round" stroke-width="2"><path d="M14 3v4a1 1 0 0 0 1 1h4"/><path d="M5 12V5a2 2 0 0 1 2-2h7l5 5v4m-3 6h1.5a1.5 1.5 0 0 0 0-3H16v6m-4-6v6m-7-6h3l-3 6h3"/></g></symbol><symbol id="hd-icon-tabler-file-typography" viewBox="0 0 24 24"><g fill="none" stroke="currentColor" stroke-linecap="round" stroke-linejoin="round" stroke-width="2"><path d="M14 3v4a1 1 0 0 0 1 1h4"/><path d="M17 21H7a2 2 0 0 1-2-2V5a2 2 0 0 1 2-2h7l5 5v11a2 2 0 0 1-2 2m-6-3h2m-1 0v-7"/><path d="M9 12v-1h6v1"/></g></symbol><symbol id="hd-icon-tabler-file-typography-filled" viewBox="0 0 24 24"><g fill="currentColor"><path d="m12 2l.117.007a1 1 0 0 1 .876.876L13 3v4l.005.15a2 2 0 0 0 1.838 1.844L15 9h4l.117.007a1 1 0 0 1 .876.876L20 10v9a3 3 0 0 1-2.824 2.995L17 22H7a3 3 0 0 1-2.995-2.824L4 19V5a3 3 0 0 1 2.824-2.995L7 2zm3 9H9a1 1 0 0 0-1 1v1a1 1 0 0 0 2 0h1v5a1 1 0 0 0 0 2h2a1 1 0 0 0 0-2v-5h1a1 1 0 0 0 2 0v-1a1 1 0 0 0-1-1"/><path d="M19 7h-4l-.001-4.001z"/></g></symbol><symbol id="hd-icon-tabler-file-unknown" viewBox="0 0 24 24"><g fill="none" stroke="currentColor" stroke-linecap="round" stroke-linejoin="round" stroke-width="2"><path d="M14 3v4a1 1 0 0 0 1 1h4"/><path d="M17 21H7a2 2 0 0 1-2-2V5a2 2 0 0 1 2-2h7l5 5v11a2 2 0 0 1-2 2m-5-4v.01"/><path d="M12 14a1.5 1.5 0 1 0-1.14-2.474"/></g></symbol><symbol id="hd-icon-tabler-file-unknown-filled" viewBox="0 0 24 24"><g fill="currentColor"><path d="m12 2l.117.007a1 1 0 0 1 .876.876L13 3v4l.005.15a2 2 0 0 0 1.838 1.844L15 9h4l.117.007a1 1 0 0 1 .876.876L20 10v9a3 3 0 0 1-2.824 2.995L17 22H7a3 3 0 0 1-2.995-2.824L4 19V5a3 3 0 0 1 2.824-2.995L7 2zm0 15a1 1 0 0 0-.993.883L11 18.01a1 1 0 0 0 1.993.117L13 18a1 1 0 0 0-1-1m1.136-5.727a2.5 2.5 0 0 0-3.037.604a1 1 0 0 0 1.434 1.389l.088-.09A.5.5 0 1 1 12 14a1 1 0 0 0-.002 2a2.5 2.5 0 0 0 1.137-4.727"/><path d="M19 7h-4l-.001-4.001z"/></g></symbol><symbol id="hd-icon-tabler-file-upload" viewBox="0 0 24 24"><g fill="none" stroke="currentColor" stroke-linecap="round" stroke-linejoin="round" stroke-width="2"><path d="M14 3v4a1 1 0 0 0 1 1h4"/><path d="M17 21H7a2 2 0 0 1-2-2V5a2 2 0 0 1 2-2h7l5 5v11a2 2 0 0 1-2 2m-5-10v6"/><path d="M9.5 13.5L12 11l2.5 2.5"/></g></symbol><symbol id="hd-icon-tabler-file-upload-filled" viewBox="0 0 24 24"><g fill="currentColor"><path d="m12 2l.117.007a1 1 0 0 1 .876.876L13 3v4l.005.15a2 2 0 0 0 1.838 1.844L15 9h4l.117.007a1 1 0 0 1 .876.876L20 10v9a3 3 0 0 1-2.824 2.995L17 22H7a3 3 0 0 1-2.995-2.824L4 19V5a3 3 0 0 1 2.824-2.995L7 2zm0 9l-.09.004l-.058.007l-.118.025l-.105.035l-.113.054l-.111.071a1 1 0 0 0-.112.097l-2.5 2.5a1 1 0 0 0 0 1.414l.094.083a1 1 0 0 0 1.32-.083l.793-.793V18a1 1 0 0 0 2 0v-3.585l.793.792a1 1 0 0 0 1.414-1.414l-2.5-2.5l-.082-.073l-.104-.074l-.098-.052l-.11-.044l-.112-.03l-.126-.017z"/><path d="M19 7h-4l-.001-4.001z"/></g></symbol><symbol id="hd-icon-tabler-file-vector" viewBox="0 0 24 24"><g fill="none" stroke="currentColor" stroke-linecap="round" stroke-linejoin="round" stroke-width="2"><path d="M14 3v4a1 1 0 0 0 1 1h4M8 16.5a1.5 1.5 0 1 0 3 0a1.5 1.5 0 1 0-3 0m5-4a1.5 1.5 0 1 0 3 0a1.5 1.5 0 1 0-3 0"/><path d="M17 21H7a2 2 0 0 1-2-2V5a2 2 0 0 1 2-2h7l5 5v11a2 2 0 0 1-2 2"/><path d="M9.5 15a2.5 2.5 0 0 1 2.5-2.5h1"/></g></symbol></svg>