<svg xmlns="http://www.w3.org/2000/svg" xmlns:xlink="http://www.w3.org/1999/xlink"><symbol id="hd-icon-tabler-gender-epicene" viewBox="0 0 24 24"><path fill="none" stroke="currentColor" stroke-linecap="round" stroke-linejoin="round" stroke-width="2" d="M15.536 15.536a5 5 0 1 0-7.072-7.072a5 5 0 0 0 7.072 7.072m0-.001L21 10M3 14l5.464-5.535M12 12h.01"/></symbol><symbol id="hd-icon-tabler-gender-female" viewBox="0 0 24 24"><path fill="none" stroke="currentColor" stroke-linecap="round" stroke-linejoin="round" stroke-width="2" d="M7 9a5 5 0 1 0 10 0A5 5 0 1 0 7 9m5 5v7m-3-3h6"/></symbol><symbol id="hd-icon-tabler-gender-femme" viewBox="0 0 24 24"><path fill="none" stroke="currentColor" stroke-linecap="round" stroke-linejoin="round" stroke-width="2" d="M7 9a5 5 0 1 0 10 0A5 5 0 1 0 7 9m5 5v7m-5-3h10"/></symbol><symbol id="hd-icon-tabler-gender-genderfluid" viewBox="0 0 24 24"><path fill="none" stroke="currentColor" stroke-linecap="round" stroke-linejoin="round" stroke-width="2" d="M10 15.464a4 4 0 1 0 4-6.928a4 4 0 0 0-4 6.928M15.464 14l3-5.196M5.536 15.195l3-5.196M12 12h.01M9 9L3 3m2.5 5.5l3-3M21 21l-6-6m2 5l3-3M3 7V3h4"/></symbol><symbol id="hd-icon-tabler-gender-genderless" viewBox="0 0 24 24"><path fill="none" stroke="currentColor" stroke-linecap="round" stroke-linejoin="round" stroke-width="2" d="M12 10a5 5 0 1 1 0 10a5 5 0 0 1 0-10m0 0V3M7 15h10"/></symbol><symbol id="hd-icon-tabler-gender-genderqueer" viewBox="0 0 24 24"><path fill="none" stroke="currentColor" stroke-linecap="round" stroke-linejoin="round" stroke-width="2" d="M12 11a5 5 0 1 1 0 10a5 5 0 0 1 0-10m0 0V3m2.5 1.5l-5 3m0-3l5 3"/></symbol><symbol id="hd-icon-tabler-gender-hermaphrodite" viewBox="0 0 24 24"><g fill="none" stroke="currentColor" stroke-linecap="round" stroke-linejoin="round" stroke-width="2"><path d="M12 14v7m-3-3h6M12 6a4 4 0 1 1 0 8a4 4 0 0 1 0-8"/><path d="M15 3a3 3 0 1 1-6 0"/></g></symbol><symbol id="hd-icon-tabler-gender-intergender" viewBox="0 0 24 24"><path fill="none" stroke="currentColor" stroke-linecap="round" stroke-linejoin="round" stroke-width="2" d="M13.5 11.5L20 18v-4m-8.5-.5L18 20M9 4a5 5 0 1 1 0 10A5 5 0 0 1 9 4m5 16l2-2"/></symbol><symbol id="hd-icon-tabler-gender-male" viewBox="0 0 24 24"><path fill="none" stroke="currentColor" stroke-linecap="round" stroke-linejoin="round" stroke-width="2" d="M5 14a5 5 0 1 0 10 0a5 5 0 1 0-10 0m14-9l-5.4 5.4M19 5h-5m5 0v5"/></symbol><symbol id="hd-icon-tabler-gender-neutrois" viewBox="0 0 24 24"><path fill="none" stroke="currentColor" stroke-linecap="round" stroke-linejoin="round" stroke-width="2" d="M12 10a5 5 0 1 1 0 10a5 5 0 0 1 0-10m0 0V3"/></symbol><symbol id="hd-icon-tabler-gender-third" viewBox="0 0 24 24"><path fill="none" stroke="currentColor" stroke-linecap="round" stroke-linejoin="round" stroke-width="2" d="M11 12a5 5 0 1 0 10 0a5 5 0 0 0-10 0m0 0H8m0 0L3 8v8z"/></symbol><symbol id="hd-icon-tabler-gender-transgender" viewBox="0 0 24 24"><path fill="none" stroke="currentColor" stroke-linecap="round" stroke-linejoin="round" stroke-width="2" d="M8 12a4 4 0 1 0 8 0a4 4 0 1 0-8 0m7-3l6-6m0 4V3h-4M9 9L3 3m0 4V3h4M5.5 8.5l3-3M12 16v5m-2.5-2h5"/></symbol><symbol id="hd-icon-tabler-gender-trasvesti" viewBox="0 0 24 24"><path fill="none" stroke="currentColor" stroke-linecap="round" stroke-linejoin="round" stroke-width="2" d="M15 20a5 5 0 1 1 0-10a5 5 0 0 1 0 10M6 6l5.4 5.4M4 8l4-4"/></symbol><symbol id="hd-icon-tabler-geometry" viewBox="0 0 24 24"><path fill="none" stroke="currentColor" stroke-linecap="round" stroke-linejoin="round" stroke-width="2" d="m7 21l4-12m2 0l1.48 4.439m.949 2.847L17 21M10 7a2 2 0 1 0 4 0a2 2 0 1 0-4 0m-6 5c1.526 2.955 4.588 5 8 5c3.41 0 6.473-2.048 8-5m-8-7V3"/></symbol><symbol id="hd-icon-tabler-ghost" viewBox="0 0 24 24"><g fill="none" stroke="currentColor" stroke-linecap="round" stroke-linejoin="round" stroke-width="2"><path d="M5 11a7 7 0 0 1 14 0v7a1.78 1.78 0 0 1-3.1 1.4a1.65 1.65 0 0 0-2.6 0a1.65 1.65 0 0 1-2.6 0a1.65 1.65 0 0 0-2.6 0A1.78 1.78 0 0 1 5 18zm5-1h.01M14 10h.01"/><path d="M10 14a3.5 3.5 0 0 0 4 0"/></g></symbol><symbol id="hd-icon-tabler-ghost-2" viewBox="0 0 24 24"><g fill="none" stroke="currentColor" stroke-linecap="round" stroke-linejoin="round" stroke-width="2"><path d="M10 9h.01M14 9h.01M12 3a7 7 0 0 1 7 7v1h1a2 2 0 1 1 0 4h-1v3l2 3H11a6 6 0 0 1-6-5.775v-.226H4a2 2 0 0 1 0-4h1v-1a7 7 0 0 1 7-7z"/><path d="M11 14h2a1 1 0 0 0-2 0"/></g></symbol><symbol id="hd-icon-tabler-ghost-2-filled" viewBox="0 0 24 24"><path fill="currentColor" d="m12 1.999l.041.002l.208.003a8 8 0 0 1 7.747 7.747l.003.248l.177.006a3 3 0 0 1 2.819 2.819L23 13a3 3 0 0 1-3 3l-.001 1.696l1.833 2.75a1 1 0 0 1-.72 1.548L21 22H11c-3.445.002-6.327-2.49-6.901-5.824l-.028-.178l-.071.001a3 3 0 0 1-2.995-2.824L1 13a3 3 0 0 1 3-3l.004-.25A8 8 0 0 1 12 2zM12 12a2 2 0 0 0-2 2a1 1 0 0 0 1 1h2a1 1 0 0 0 1-1a2 2 0 0 0-2-2m-1.99-4l-.127.007A1 1 0 0 0 10 10l.127-.007A1 1 0 0 0 10.01 8m4 0l-.127.007A1 1 0 0 0 14 10l.127-.007A1 1 0 0 0 14.01 8"/></symbol><symbol id="hd-icon-tabler-ghost-3" viewBox="0 0 24 24"><path fill="none" stroke="currentColor" stroke-linecap="round" stroke-linejoin="round" stroke-width="2" d="M5 11a7 7 0 0 1 14 0v7a1.78 1.78 0 0 1-3.1 1.4a1.65 1.65 0 0 0-2.6 0a1.65 1.65 0 0 1-2.6 0a1.65 1.65 0 0 0-2.6 0A1.78 1.78 0 0 1 5 18zm5-1h.01M14 10h.01"/></symbol><symbol id="hd-icon-tabler-ghost-3-filled" viewBox="0 0 24 24"><path fill="currentColor" d="M12 3a8 8 0 0 1 8 8v6.954l.009.103a2.78 2.78 0 0 1-1.468 2.618l-.163.08c-1.111.502-2.42.22-3.266-.74a.65.65 0 0 0-1.024 0a2.65 2.65 0 0 1-4.176 0a.65.65 0 0 0-.512-.249c-.2 0-.389.092-.55.296a2.78 2.78 0 0 1-4.859-2.005l.01-.104l.007-.077L4 17.95V11l.004-.25a8 8 0 0 1 7.747-7.746zm-1.99 6H10a1 1 0 1 0 0 2h.01a1 1 0 0 0 0-2m4 0H14a1 1 0 0 0 0 2h.01a1 1 0 0 0 0-2"/></symbol><symbol id="hd-icon-tabler-ghost-filled" viewBox="0 0 24 24"><path fill="currentColor" d="M12 3a8 8 0 0 1 7.996 7.75L20 11l-.001 6.954l.01.103a2.78 2.78 0 0 1-1.468 2.618l-.163.08c-1.053.475-2.283.248-3.129-.593l-.137-.146a.65.65 0 0 0-1.024 0a2.65 2.65 0 0 1-4.176 0a.65.65 0 0 0-.512-.25c-.2 0-.389.092-.55.296a2.78 2.78 0 0 1-4.859-2.005l.008-.091L4 11l.004-.25A8 8 0 0 1 12 3m2.82 10.429a1 1 0 0 0-1.391-.25a2.5 2.5 0 0 1-2.858 0a1 1 0 0 0-1.142 1.642a4.5 4.5 0 0 0 5.142 0a1 1 0 0 0 .25-1.392zM10.01 9l-.127.007A1 1 0 0 0 10 11l.127-.007A1 1 0 0 0 10.01 9m4 0l-.127.007A1 1 0 0 0 14 11l.127-.007A1 1 0 0 0 14.01 9"/></symbol><symbol id="hd-icon-tabler-ghost-off" viewBox="0 0 24 24"><g fill="none" stroke="currentColor" stroke-linecap="round" stroke-linejoin="round" stroke-width="2"><path d="M8.794 4.776A7 7 0 0 1 19 11v4m-.12 3.898a1.78 1.78 0 0 1-2.98.502a1.65 1.65 0 0 0-2.6 0a1.65 1.65 0 0 1-2.6 0a1.65 1.65 0 0 0-2.6 0A1.78 1.78 0 0 1 5 18v-7c0-1.683.594-3.227 1.583-4.434M14 10h.01"/><path d="M10 14a3.5 3.5 0 0 0 4 0M3 3l18 18"/></g></symbol><symbol id="hd-icon-tabler-gif" viewBox="0 0 24 24"><path fill="none" stroke="currentColor" stroke-linecap="round" stroke-linejoin="round" stroke-width="2" d="M8 8H6a2 2 0 0 0-2 2v4a2 2 0 0 0 2 2h2v-4H7m5-4v8m4-4h3m1-4h-4v8"/></symbol><symbol id="hd-icon-tabler-gift" viewBox="0 0 24 24"><g fill="none" stroke="currentColor" stroke-linecap="round" stroke-linejoin="round" stroke-width="2"><path d="M3 9a1 1 0 0 1 1-1h16a1 1 0 0 1 1 1v2a1 1 0 0 1-1 1H4a1 1 0 0 1-1-1zm9-1v13"/><path d="M19 12v7a2 2 0 0 1-2 2H7a2 2 0 0 1-2-2v-7m2.5-4a2.5 2.5 0 0 1 0-5A4.8 8 0 0 1 12 8a4.8 8 0 0 1 4.5-5a2.5 2.5 0 0 1 0 5"/></g></symbol><symbol id="hd-icon-tabler-gift-card" viewBox="0 0 24 24"><g fill="none" stroke="currentColor" stroke-linecap="round" stroke-linejoin="round" stroke-width="2"><path d="M3 8a3 3 0 0 1 3-3h12a3 3 0 0 1 3 3v8a3 3 0 0 1-3 3H6a3 3 0 0 1-3-3z"/><path d="m7 16l3-3l3 3m-5-3c-.789 0-2-.672-2-1.5S6.711 10 7.5 10c1.128-.02 2.077 1.17 2.5 3c.423-1.83 1.372-3.02 2.5-3c.789 0 1.5.672 1.5 1.5S12.789 13 12 13z"/></g></symbol><symbol id="hd-icon-tabler-gift-card-filled" viewBox="0 0 24 24"><path fill="currentColor" d="M18 4a4 4 0 0 1 3.995 3.8L22 8v8a4 4 0 0 1-3.8 3.995L18 20H6a4 4 0 0 1-3.995-3.8L2 16V8a4 4 0 0 1 3.8-3.995L6 4zm-5.493 5l-.19.004c-.928.052-1.719.583-2.317 1.444c-.56-.805-1.288-1.322-2.139-1.428l-.198-.017L7.499 9l-.16.005C6.059 9.091 5 10.184 5 11.5c0 1.226 1.222 2.211 2.453 2.447l.16.026l-1.32 1.32l-.083.094a1 1 0 0 0 0 1.226l.083.094l.094.083a1 1 0 0 0 1.226 0l.094-.083L10 14.415l2.293 2.292l.094.083a1 1 0 0 0 1.403-1.403l-.083-.094l-1.32-1.32c1.229-.169 2.502-1.11 2.606-2.315L15 11.5l-.005-.163c-.08-1.189-1.02-2.162-2.175-2.316l-.159-.016zm-.025 2l.102.009c.194.04.367.21.407.406L13 11.5l-.012.031l-.034.04c-.13.135-.513.369-.836.42L12 12h-.602l.052-.1l.088-.156c.27-.444.574-.696.852-.738zm-4.964 0l.084.005l.094.02c.254.077.523.32.765.718l.09.157l.05.1H8l-.106-.008c-.398-.057-.894-.4-.894-.492c0-.23.194-.446.416-.491z"/></symbol><symbol id="hd-icon-tabler-gift-filled" viewBox="0 0 24 24"><path fill="currentColor" d="M11 14v8H7a3 3 0 0 1-3-3v-4a1 1 0 0 1 1-1zm8 0a1 1 0 0 1 1 1v4a3 3 0 0 1-3 3h-4v-8zM16.5 2a3.5 3.5 0 0 1 3.163 5H20a2 2 0 0 1 2 2v1a2 2 0 0 1-2 2h-7V7h-2v5H4a2 2 0 0 1-2-2V9a2 2 0 0 1 2-2h.337A3.5 3.5 0 0 1 4 5.5C4 3.567 5.567 2 7.483 2c1.755-.03 3.312 1.092 4.381 2.934l.136.243c1.033-1.914 2.56-3.114 4.291-3.175zm-9 2a1.5 1.5 0 0 0 0 3h3.143C9.902 5.095 8.694 3.98 7.5 4m8.983 0c-1.18-.02-2.385 1.096-3.126 3H16.5a1.5 1.5 0 1 0-.017-3"/></symbol><symbol id="hd-icon-tabler-gift-off" viewBox="0 0 24 24"><g fill="none" stroke="currentColor" stroke-linecap="round" stroke-linejoin="round" stroke-width="2"><path d="M12 8h8a1 1 0 0 1 1 1v2a1 1 0 0 1-1 1h-4m-4 0H4a1 1 0 0 1-1-1V9a1 1 0 0 1 1-1h4m4 4v9"/><path d="M19 12v3m0 4a2 2 0 0 1-2 2H7a2 2 0 0 1-2-2v-7m2.5-4a2.5 2.5 0 0 1-2.457-2.963m2.023-2Q7.277 3.001 7.5 3c1.974-.034 3.76 1.95 4.5 5c.74-3.05 2.526-5.034 4.5-5a2.5 2.5 0 1 1 0 5M3 3l18 18"/></g></symbol><symbol id="hd-icon-tabler-git-branch" viewBox="0 0 24 24"><g fill="none" stroke="currentColor" stroke-linecap="round" stroke-linejoin="round" stroke-width="2"><path d="M5 18a2 2 0 1 0 4 0a2 2 0 1 0-4 0M5 6a2 2 0 1 0 4 0a2 2 0 1 0-4 0m10 0a2 2 0 1 0 4 0a2 2 0 1 0-4 0M7 8v8m2 2h6a2 2 0 0 0 2-2v-5"/><path d="m14 14l3-3l3 3"/></g></symbol><symbol id="hd-icon-tabler-git-branch-deleted" viewBox="0 0 24 24"><g fill="none" stroke="currentColor" stroke-linecap="round" stroke-linejoin="round" stroke-width="2"><path d="M5 18a2 2 0 1 0 4 0a2 2 0 1 0-4 0M5 6a2 2 0 1 0 4 0a2 2 0 1 0-4 0m2 2v8m2 2h6a2 2 0 0 0 2-2v-5"/><path d="m14 14l3-3l3 3M15 4l4 4m-4 0l4-4"/></g></symbol><symbol id="hd-icon-tabler-git-cherry-pick" viewBox="0 0 24 24"><path fill="none" stroke="currentColor" stroke-linecap="round" stroke-linejoin="round" stroke-width="2" d="M4 12a3 3 0 1 0 6 0a3 3 0 1 0-6 0m3-9v6m0 6v6m6-14h2.5l1.5 5l-1.5 5H13m4-5h3"/></symbol><symbol id="hd-icon-tabler-git-commit" viewBox="0 0 24 24"><path fill="none" stroke="currentColor" stroke-linecap="round" stroke-linejoin="round" stroke-width="2" d="M9 12a3 3 0 1 0 6 0a3 3 0 1 0-6 0m3-9v6m0 6v6"/></symbol><symbol id="hd-icon-tabler-git-compare" viewBox="0 0 24 24"><g fill="none" stroke="currentColor" stroke-linecap="round" stroke-linejoin="round" stroke-width="2"><path d="M4 6a2 2 0 1 0 4 0a2 2 0 1 0-4 0m12 12a2 2 0 1 0 4 0a2 2 0 1 0-4 0"/><path d="M11 6h5a2 2 0 0 1 2 2v8"/><path d="m14 9l-3-3l3-3m-1 15H8a2 2 0 0 1-2-2V8"/><path d="m10 15l3 3l-3 3"/></g></symbol><symbol id="hd-icon-tabler-git-fork" viewBox="0 0 24 24"><g fill="none" stroke="currentColor" stroke-linecap="round" stroke-linejoin="round" stroke-width="2"><path d="M10 18a2 2 0 1 0 4 0a2 2 0 1 0-4 0M5 6a2 2 0 1 0 4 0a2 2 0 1 0-4 0m10 0a2 2 0 1 0 4 0a2 2 0 1 0-4 0"/><path d="M7 8v2a2 2 0 0 0 2 2h6a2 2 0 0 0 2-2V8m-5 4v4"/></g></symbol><symbol id="hd-icon-tabler-git-merge" viewBox="0 0 24 24"><g fill="none" stroke="currentColor" stroke-linecap="round" stroke-linejoin="round" stroke-width="2"><path d="M5 18a2 2 0 1 0 4 0a2 2 0 1 0-4 0M5 6a2 2 0 1 0 4 0a2 2 0 1 0-4 0m10 6a2 2 0 1 0 4 0a2 2 0 1 0-4 0M7 8v8"/><path d="M7 8a4 4 0 0 0 4 4h4"/></g></symbol><symbol id="hd-icon-tabler-git-pull-request" viewBox="0 0 24 24"><g fill="none" stroke="currentColor" stroke-linecap="round" stroke-linejoin="round" stroke-width="2"><path d="M4 18a2 2 0 1 0 4 0a2 2 0 1 0-4 0M4 6a2 2 0 1 0 4 0a2 2 0 1 0-4 0m12 12a2 2 0 1 0 4 0a2 2 0 1 0-4 0M6 8v8"/><path d="M11 6h5a2 2 0 0 1 2 2v8"/><path d="m14 9l-3-3l3-3"/></g></symbol><symbol id="hd-icon-tabler-git-pull-request-closed" viewBox="0 0 24 24"><path fill="none" stroke="currentColor" stroke-linecap="round" stroke-linejoin="round" stroke-width="2" d="M4 18a2 2 0 1 0 4 0a2 2 0 1 0-4 0M4 6a2 2 0 1 0 4 0a2 2 0 1 0-4 0m12 12a2 2 0 1 0 4 0a2 2 0 1 0-4 0M6 8v8m12-5v5M16 4l4 4m0-4l-4 4"/></symbol><symbol id="hd-icon-tabler-git-pull-request-draft" viewBox="0 0 24 24"><path fill="none" stroke="currentColor" stroke-linecap="round" stroke-linejoin="round" stroke-width="2" d="M4 18a2 2 0 1 0 4 0a2 2 0 1 0-4 0M4 6a2 2 0 1 0 4 0a2 2 0 1 0-4 0m12 12a2 2 0 1 0 4 0a2 2 0 1 0-4 0M6 8v8m12-5h.01M18 6h.01"/></symbol><symbol id="hd-icon-tabler-gizmo" viewBox="0 0 24 24"><g fill="none" stroke="currentColor" stroke-linecap="round" stroke-linejoin="round" stroke-width="2"><path d="m20 19l-8-5.5L4 19m8-15v9.5M11 4a1 1 0 1 0 2 0a1 1 0 1 0-2 0"/><path d="M3 19a1 1 0 1 0 2 0a1 1 0 1 0-2 0m16 0a1 1 0 1 0 2 0a1 1 0 1 0-2 0"/></g></symbol><symbol id="hd-icon-tabler-glass" viewBox="0 0 24 24"><g fill="none" stroke="currentColor" stroke-linecap="round" stroke-linejoin="round" stroke-width="2"><path d="M8 21h8m-4-5v5m5-16l1 6c0 3.012-2.686 5-6 5s-6-1.988-6-5l1-6"/><path d="M7 5a5 2 0 1 0 10 0A5 2 0 1 0 7 5"/></g></symbol><symbol id="hd-icon-tabler-glass-champagne" viewBox="0 0 24 24"><g fill="none" stroke="currentColor" stroke-linecap="round" stroke-linejoin="round" stroke-width="2"><path d="M9 21h6m-3-5v5M8 5a4 2 0 1 0 8 0a4 2 0 1 0-8 0"/><path d="M8 5c0 6.075 1.79 11 4 11s4-4.925 4-11"/></g></symbol><symbol id="hd-icon-tabler-glass-cocktail" viewBox="0 0 24 24"><g fill="none" stroke="currentColor" stroke-linecap="round" stroke-linejoin="round" stroke-width="2"><path d="M8 21h8m-4-6v6M5 5a7 2 0 1 0 14 0A7 2 0 1 0 5 5"/><path d="M5 5v.388c0 .432.126.853.362 1.206l5 7.509c.633.951 1.88 1.183 2.785.517c.191-.141.358-.316.491-.517l5-7.509c.236-.353.362-.774.362-1.206V5"/></g></symbol><symbol id="hd-icon-tabler-glass-filled" viewBox="0 0 24 24"><path fill="currentColor" d="M12 2c3.205 0 5.894 1.05 5.997 2.89l.99 5.946L19 11c0 3.226-2.56 5.564-6 5.945V20h3a1 1 0 0 1 0 2H8a1 1 0 0 1 0-2h3v-3.055c-3.44-.38-6-2.719-6-5.945l.014-.164l.991-5.955l.001-.038C6.152 3.033 8.823 2 12 2m0 2c-1.224 0-2.359.192-3.164.514C8.242 4.752 8 4.981 8 5c0 .02.242.248.836.486C9.64 5.808 10.776 6 12 6s2.359-.192 3.164-.514C15.758 5.248 16 5.019 16 5l-.02-.026c-.07-.07-.321-.262-.816-.46C14.36 4.192 13.224 4 12 4"/></symbol><symbol id="hd-icon-tabler-glass-full" viewBox="0 0 24 24"><g fill="none" stroke="currentColor" stroke-linecap="round" stroke-linejoin="round" stroke-width="2"><path d="M8 21h8m-4-6v6m5-18l1 7c0 3.012-2.686 5-6 5s-6-1.988-6-5l1-7z"/><path d="M6 10a5 5 0 0 1 6 0a5 5 0 0 0 6 0"/></g></symbol><symbol id="hd-icon-tabler-glass-full-filled" viewBox="0 0 24 24"><path fill="currentColor" d="m5.004 10.229l-.003-.186l.001-.113l.008-.071l1-7a1 1 0 0 1 .877-.853L7 2h10a1 1 0 0 1 .968.747l.022.112l1.006 7.05L19 10c0 3.226-2.56 5.564-6 5.945V20h3a1 1 0 0 1 .117 1.993L16 22H8a1 1 0 0 1-.117-1.993L8 20h3v-4.055c-3.358-.371-5.878-2.609-5.996-5.716M16.133 4H7.866l-.607 4.258a6 6 0 0 1 5.125.787l.216.155a4 4 0 0 0 4.32.31z"/></symbol><symbol id="hd-icon-tabler-glass-gin" viewBox="0 0 24 24"><g fill="none" stroke="currentColor" stroke-linecap="round" stroke-linejoin="round" stroke-width="2"><path d="M8 21h8m-4-6v6M5.5 5a6.5 2 0 1 0 13 0a6.5 2 0 1 0-13 0"/><path d="M5.75 4.5C5.138 5.25 5 6.5 5 8a7 7 0 0 0 14 0c0-1.5-.094-2.75-.75-3.5"/></g></symbol><symbol id="hd-icon-tabler-glass-off" viewBox="0 0 24 24"><g fill="none" stroke="currentColor" stroke-linecap="round" stroke-linejoin="round" stroke-width="2"><path d="M8 21h8m-4-5v5m5-16l1 6c0 .887-.233 1.685-.646 2.37m-2.083 1.886c-.941.48-2.064.744-3.271.744c-3.314 0-6-1.988-6-5l.711-4.268"/><path d="M10.983 6.959q.494.04 1.017.041c2.761 0 5-.895 5-2s-2.239-2-5-2c-1.716 0-3.23.346-4.13.872M3 3l18 18"/></g></symbol><symbol id="hd-icon-tabler-globe" viewBox="0 0 24 24"><g fill="none" stroke="currentColor" stroke-linecap="round" stroke-linejoin="round" stroke-width="2"><path d="M7 9a4 4 0 1 0 8 0a4 4 0 0 0-8 0"/><path d="M5.75 15A8.015 8.015 0 1 0 15 2m-4 15v4m-4 0h8"/></g></symbol><symbol id="hd-icon-tabler-globe-filled" viewBox="0 0 24 24"><g fill="currentColor"><path d="M11 4a5 5 0 1 1-4.995 5.217L6 9l.005-.217A5 5 0 0 1 11 4"/><path d="M14.133 1.502a1 1 0 0 1 1.365-.369A9.015 9.015 0 1 1 5.094 15.755a1 1 0 1 1 1.312-1.51a7.015 7.015 0 1 0 8.096-11.378a1 1 0 0 1-.369-1.365"/><path d="M11 16a1 1 0 0 1 .993.883L12 17v4a1 1 0 0 1-1.993.117L10 21v-4a1 1 0 0 1 1-1"/><path d="M15 20a1 1 0 0 1 .117 1.993L15 22H7a1 1 0 0 1-.117-1.993L7 20z"/></g></symbol><symbol id="hd-icon-tabler-globe-off" viewBox="0 0 24 24"><path fill="none" stroke="currentColor" stroke-linecap="round" stroke-linejoin="round" stroke-width="2" d="M7.353 7.355a4 4 0 0 0 5.29 5.293m2.007-2.009a4 4 0 0 0-5.3-5.284M5.75 15a8.015 8.015 0 0 0 9.792.557m2.02-1.998A8.015 8.015 0 0 0 15 2m-4 15v4m-4 0h8M3 3l18 18"/></symbol><symbol id="hd-icon-tabler-go-game" viewBox="0 0 24 24"><path fill="none" stroke="currentColor" stroke-linecap="round" stroke-linejoin="round" stroke-width="2" d="M4 6a2 2 0 1 0 4 0a2 2 0 1 0-4 0m6 6a2 2 0 1 0 4 0a2 2 0 1 0-4 0m-6 6a2 2 0 1 0 4 0a2 2 0 1 0-4 0m12 0a2 2 0 1 0 4 0a2 2 0 1 0-4 0M3 12h7m4 0h7M3 6h1m4 0h13M3 18h1m4 0h8m4 0h1M6 3v1m0 4v8m0 4v1m6-18v7m0 4v7m6-18v13m0 4v1"/></symbol><symbol id="hd-icon-tabler-golf" viewBox="0 0 24 24"><g fill="none" stroke="currentColor" stroke-linecap="round" stroke-linejoin="round" stroke-width="2"><path d="M12 18V3l7 4l-7 4"/><path d="M9 17.67c-.62.36-1 .82-1 1.33c0 1.1 1.8 2 4 2s4-.9 4-2c0-.5-.38-.97-1-1.33"/></g></symbol><symbol id="hd-icon-tabler-golf-filled" viewBox="0 0 24 24"><g fill="currentColor"><path d="M11 3a1 1 0 0 1 1.496-.868l7 4a1 1 0 0 1 0 1.736L13 11.58V18a1 1 0 0 1-.883.993L12 19a1 1 0 0 1-1-1z"/><path d="M14.135 17.168a1 1 0 0 1 1.367-.363C16.418 17.337 17 18.096 17 19c0 1.84-2.319 3-5 3s-5-1.16-5-3c0-.911.577-1.66 1.498-2.195a1 1 0 1 1 1.004 1.73c-.365.212-.502.39-.502.465c0 .086.179.296.622.518c.6.3 1.456.482 2.378.482s1.777-.182 2.378-.482c.443-.222.622-.432.622-.518c0-.07-.142-.256-.502-.465a1 1 0 0 1-.363-1.367"/></g></symbol><symbol id="hd-icon-tabler-golf-off" viewBox="0 0 24 24"><path fill="none" stroke="currentColor" stroke-linecap="round" stroke-linejoin="round" stroke-width="2" d="M12 18v-6m0-4V3l7 4l-5.07 2.897M9 17.67c-.62.36-1 .82-1 1.33c0 1.1 1.8 2 4 2s4-.9 4-2c0-.5-.38-.97-1-1.33M3 3l18 18"/></symbol><symbol id="hd-icon-tabler-gps" viewBox="0 0 24 24"><g fill="none" stroke="currentColor" stroke-linecap="round" stroke-linejoin="round" stroke-width="2"><path d="M3 12a9 9 0 1 0 18 0a9 9 0 1 0-18 0"/><path d="m12 17l-1-4l-4-1l9-4z"/></g></symbol><symbol id="hd-icon-tabler-gps-filled" viewBox="0 0 24 24"><path fill="currentColor" d="M17 3.34A10 10 0 1 1 2 12l.005-.324A10 10 0 0 1 17 3.34m-.086 5.066c.372-.837-.483-1.692-1.32-1.32l-9 4l-.108.055c-.75.44-.611 1.609.271 1.83l3.418.853l.855 3.419c.23.922 1.498 1.032 1.884.163z"/></symbol><symbol id="hd-icon-tabler-gradienter" viewBox="0 0 24 24"><g fill="none" stroke="currentColor" stroke-linecap="round" stroke-linejoin="round" stroke-width="2"><path d="M3.227 14c.917 4 4.497 7 8.773 7c4.277 0 7.858-3 8.773-7m.007-4A9 9 0 0 0 12 3a8.985 8.985 0 0 0-8.782 7"/><path d="M10 12a2 2 0 1 0 4 0a2 2 0 1 0-4 0"/></g></symbol><symbol id="hd-icon-tabler-grain" viewBox="0 0 24 24"><path fill="none" stroke="currentColor" stroke-linecap="round" stroke-linejoin="round" stroke-width="2" d="M3.5 9.5a1 1 0 1 0 2 0a1 1 0 1 0-2 0m5-5a1 1 0 1 0 2 0a1 1 0 1 0-2 0m0 10a1 1 0 1 0 2 0a1 1 0 1 0-2 0m-5 5a1 1 0 1 0 2 0a1 1 0 1 0-2 0m10-10a1 1 0 1 0 2 0a1 1 0 1 0-2 0m5-5a1 1 0 1 0 2 0a1 1 0 1 0-2 0m-5 15a1 1 0 1 0 2 0a1 1 0 1 0-2 0m5-5a1 1 0 1 0 2 0a1 1 0 1 0-2 0"/></symbol><symbol id="hd-icon-tabler-graph" viewBox="0 0 24 24"><g fill="none" stroke="currentColor" stroke-linecap="round" stroke-linejoin="round" stroke-width="2"><path d="M4 18V6a2 2 0 0 1 2-2h12a2 2 0 0 1 2 2v12a2 2 0 0 1-2 2H6a2 2 0 0 1-2-2"/><path d="m7 14l3-3l2 2l3-3l2 2"/></g></symbol><symbol id="hd-icon-tabler-graph-filled" viewBox="0 0 24 24"><path fill="currentColor" d="M18 3a3 3 0 0 1 3 3v12a3 3 0 0 1-3 3H6a3 3 0 0 1-3-3V6a3 3 0 0 1 3-3zm-2.293 6.293a1 1 0 0 0-1.414 0L12 11.585l-1.293-1.292a1 1 0 0 0-1.414 0l-3 3a1 1 0 0 0 0 1.414l.094.083a1 1 0 0 0 1.32-.083L10 12.415l1.293 1.292l.094.083a1 1 0 0 0 1.32-.083L15 11.415l1.293 1.292a1 1 0 0 0 1.414-1.414z"/></symbol><symbol id="hd-icon-tabler-graph-off" viewBox="0 0 24 24"><g fill="none" stroke="currentColor" stroke-linecap="round" stroke-linejoin="round" stroke-width="2"><path d="M8 4h10a2 2 0 0 1 2 2v10m-.586 3.414A2 2 0 0 1 18 20H6a2 2 0 0 1-2-2V6c0-.547.22-1.043.576-1.405"/><path d="m7 14l3-3l2 2l.5-.5m2-2l.5-.5l2 2M3 3l18 18"/></g></symbol><symbol id="hd-icon-tabler-grave" viewBox="0 0 24 24"><path fill="none" stroke="currentColor" stroke-linecap="round" stroke-linejoin="round" stroke-width="2" d="M5 21v-2a3 3 0 0 1 3-3h8a3 3 0 0 1 3 3v2zm5-5v-5H6V7h4V3h4v4h4v4h-4v5"/></symbol><symbol id="hd-icon-tabler-grave-2" viewBox="0 0 24 24"><g fill="none" stroke="currentColor" stroke-linecap="round" stroke-linejoin="round" stroke-width="2"><path d="M7 16.17V7a3 3 0 0 1 3-3h4a3 3 0 0 1 3 3v9.171M12 7v5m-2-3h4"/><path d="M5 21v-2a3 3 0 0 1 3-3h8a3 3 0 0 1 3 3v2z"/></g></symbol><symbol id="hd-icon-tabler-grid-3x3" viewBox="0 0 24 24"><path fill="none" stroke="currentColor" stroke-linecap="round" stroke-linejoin="round" stroke-width="2" d="M3 8h18M3 16h18M8 3v18m8-18v18"/></symbol><symbol id="hd-icon-tabler-grid-4x4" viewBox="0 0 24 24"><path fill="none" stroke="currentColor" stroke-linecap="round" stroke-linejoin="round" stroke-width="2" d="M3 6h18M3 12h18M3 18h18M6 3v18m6-18v18m6-18v18"/></symbol><symbol id="hd-icon-tabler-grid-dots" viewBox="0 0 24 24"><path fill="none" stroke="currentColor" stroke-linecap="round" stroke-linejoin="round" stroke-width="2" d="M4 5a1 1 0 1 0 2 0a1 1 0 1 0-2 0m7 0a1 1 0 1 0 2 0a1 1 0 1 0-2 0m7 0a1 1 0 1 0 2 0a1 1 0 1 0-2 0M4 12a1 1 0 1 0 2 0a1 1 0 1 0-2 0m7 0a1 1 0 1 0 2 0a1 1 0 1 0-2 0m7 0a1 1 0 1 0 2 0a1 1 0 1 0-2 0M4 19a1 1 0 1 0 2 0a1 1 0 1 0-2 0m7 0a1 1 0 1 0 2 0a1 1 0 1 0-2 0m7 0a1 1 0 1 0 2 0a1 1 0 1 0-2 0"/></symbol><symbol id="hd-icon-tabler-grid-goldenratio" viewBox="0 0 24 24"><path fill="none" stroke="currentColor" stroke-linecap="round" stroke-linejoin="round" stroke-width="2" d="M3 10h18M3 14h18M10 3v18m4-18v18"/></symbol><symbol id="hd-icon-tabler-grid-pattern" viewBox="0 0 24 24"><path fill="none" stroke="currentColor" stroke-linecap="round" stroke-linejoin="round" stroke-width="2" d="M4 6a2 2 0 0 1 2-2h12a2 2 0 0 1 2 2v12a2 2 0 0 1-2 2H6a2 2 0 0 1-2-2zm6 2v8m4-8v8m-6-6h8m-8 4h8"/></symbol><symbol id="hd-icon-tabler-grid-pattern-filled" viewBox="0 0 24 24"><path fill="currentColor" d="M18 3a3 3 0 0 1 3 3v12a3 3 0 0 1-3 3H6a3 3 0 0 1-3-3V6a3 3 0 0 1 3-3zm-4 4a1 1 0 0 0-1 1v1h-2V8a1 1 0 0 0-.883-.993L10 7a1 1 0 0 0-1 1v1H8a1 1 0 0 0-.993.883L7 10a1 1 0 0 0 1 1h1v2H8a1 1 0 0 0-.993.883L7 14a1 1 0 0 0 1 1h1v1a1 1 0 0 0 .883.993L10 17a1 1 0 0 0 1-1v-1h2v1a1 1 0 0 0 .883.993L14 17a1 1 0 0 0 1-1v-1h1a1 1 0 0 0 .993-.883L17 14a1 1 0 0 0-1-1h-1v-2h1a1 1 0 0 0 .993-.883L17 10a1 1 0 0 0-1-1h-1V8a1 1 0 0 0-.883-.993zm-1 4v2h-2v-2z"/></symbol><symbol id="hd-icon-tabler-grid-scan" viewBox="0 0 24 24"><path fill="none" stroke="currentColor" stroke-linecap="round" stroke-linejoin="round" stroke-width="2" d="M10 8v8m4-8v8m-6-6h8m-8 4h8M4 8V6a2 2 0 0 1 2-2h2M4 16v2a2 2 0 0 0 2 2h2m8-16h2a2 2 0 0 1 2 2v2m-4 12h2a2 2 0 0 0 2-2v-2"/></symbol><symbol id="hd-icon-tabler-grill" viewBox="0 0 24 24"><path fill="none" stroke="currentColor" stroke-linecap="round" stroke-linejoin="round" stroke-width="2" d="M19 8H5a6 6 0 0 0 6 6h2a6 6 0 0 0 6-5.775zm-2 12a2 2 0 1 1 0-4a2 2 0 0 1 0 4m-2-6l1 2m-7-2l-3 6m9-2H7m8-13V4m-3 1V4M9 5V4"/></symbol><symbol id="hd-icon-tabler-grill-fork" viewBox="0 0 24 24"><path fill="none" stroke="currentColor" stroke-linecap="round" stroke-linejoin="round" stroke-width="2" d="m5 5l11.5 11.5m2.847.075l1.08 1.079a1.96 1.96 0 0 1-2.773 2.772l-1.08-1.079a1.96 1.96 0 0 1 2.773-2.772M3 7l3.05 3.15a2.9 2.9 0 0 0 4.1-4.1L7 3"/></symbol><symbol id="hd-icon-tabler-grill-off" viewBox="0 0 24 24"><path fill="none" stroke="currentColor" stroke-linecap="round" stroke-linejoin="round" stroke-width="2" d="M8 8H5a6 6 0 0 0 6 6h2q.473 0 .926-.071m2.786-1.214a5.99 5.99 0 0 0 2.284-4.49V8h-7m6.831 10.815a2 2 0 1 1-2.663-2.633M9 14l-3 6m9-2H7m8-13V4m-3 1V4M9 5V4M3 3l18 18"/></symbol><symbol id="hd-icon-tabler-grill-spatula" viewBox="0 0 24 24"><path fill="none" stroke="currentColor" stroke-linecap="round" stroke-linejoin="round" stroke-width="2" d="m10.2 10.2l6.3 6.3m2.847.075l1.08 1.079a1.96 1.96 0 0 1-2.773 2.772l-1.08-1.079a1.96 1.96 0 0 1 2.773-2.772M3 7l3.05 3.15a2.9 2.9 0 0 0 4.1-4.1L7 3z"/></symbol><symbol id="hd-icon-tabler-grip-horizontal" viewBox="0 0 24 24"><path fill="none" stroke="currentColor" stroke-linecap="round" stroke-linejoin="round" stroke-width="2" d="M4 9a1 1 0 1 0 2 0a1 1 0 1 0-2 0m0 6a1 1 0 1 0 2 0a1 1 0 1 0-2 0m7-6a1 1 0 1 0 2 0a1 1 0 1 0-2 0m0 6a1 1 0 1 0 2 0a1 1 0 1 0-2 0m7-6a1 1 0 1 0 2 0a1 1 0 1 0-2 0m0 6a1 1 0 1 0 2 0a1 1 0 1 0-2 0"/></symbol><symbol id="hd-icon-tabler-grip-vertical" viewBox="0 0 24 24"><path fill="none" stroke="currentColor" stroke-linecap="round" stroke-linejoin="round" stroke-width="2" d="M8 5a1 1 0 1 0 2 0a1 1 0 1 0-2 0m0 7a1 1 0 1 0 2 0a1 1 0 1 0-2 0m0 7a1 1 0 1 0 2 0a1 1 0 1 0-2 0m6-14a1 1 0 1 0 2 0a1 1 0 1 0-2 0m0 7a1 1 0 1 0 2 0a1 1 0 1 0-2 0m0 7a1 1 0 1 0 2 0a1 1 0 1 0-2 0"/></symbol><symbol id="hd-icon-tabler-growth" viewBox="0 0 24 24"><path fill="none" stroke="currentColor" stroke-linecap="round" stroke-linejoin="round" stroke-width="2" d="M16.5 15a4.5 4.5 0 0 0-4.5 4.5m4.5-8.5a4.5 4.5 0 0 0-4.5 4.5M16.5 7a4.5 4.5 0 0 0-4.5 4.5M8 15c2.21 0 4 2.015 4 4.5M8 11c2.21 0 4 2.015 4 4.5M8 7c2.21 0 4 2.015 4 4.5M12 4v6"/></symbol><symbol id="hd-icon-tabler-guitar-pick" viewBox="0 0 24 24"><path fill="none" stroke="currentColor" stroke-linecap="round" stroke-linejoin="round" stroke-width="2" d="M16 18.5C18 16 20 12 20 8c0-2.946-2.084-4.157-4.204-4.654Q14.5 3.001 12 3q-2.5 0-3.796.346C6.084 3.843 4 5.054 4 8c0 3.312 2 8 4 10.5q.445.556.963 1.081l.354.347a3.9 3.9 0 0 0 5.364 0A14 14 0 0 0 16 18.5"/></symbol><symbol id="hd-icon-tabler-guitar-pick-filled" viewBox="0 0 24 24"><path fill="currentColor" d="M12 2c-1.613 0-2.882.104-3.825.323l-.23.057C4.926 3.088 3 4.883 3 8c0 3.367 1.939 8.274 4.22 11.125q.48.6 1.03 1.158l.367.36a4.904 4.904 0 0 0 6.752.011a15 15 0 0 0 1.41-1.528C19.27 16.013 21 11.832 21 8c0-3.025-1.813-4.806-4.71-5.562l-.266-.066C15.088 2.122 13.743 2 12 2"/></symbol><symbol id="hd-icon-tabler-gymnastics" viewBox="0 0 24 24"><path fill="none" stroke="currentColor" stroke-linecap="round" stroke-linejoin="round" stroke-width="2" d="M7 7a1 1 0 1 0 2 0a1 1 0 0 0-2 0m6 14l1-9l7-6M3 11h6l5 1m-2.5-3.5L16 5"/></symbol><symbol id="hd-icon-tabler-h-1" viewBox="0 0 24 24"><path fill="none" stroke="currentColor" stroke-linecap="round" stroke-linejoin="round" stroke-width="2" d="M19 18v-8l-2 2M4 6v12m8-12v12m-1 0h2M3 18h2m-1-6h8M3 6h2m6 0h2"/></symbol><symbol id="hd-icon-tabler-h-2" viewBox="0 0 24 24"><path fill="none" stroke="currentColor" stroke-linecap="round" stroke-linejoin="round" stroke-width="2" d="M17 12a2 2 0 1 1 4 0c0 .591-.417 1.318-.816 1.858L17 18.001h4M4 6v12m8-12v12m-1 0h2M3 18h2m-1-6h8M3 6h2m6 0h2"/></symbol><symbol id="hd-icon-tabler-h-3" viewBox="0 0 24 24"><path fill="none" stroke="currentColor" stroke-linecap="round" stroke-linejoin="round" stroke-width="2" d="M19 14a2 2 0 1 0-2-2m0 4a2 2 0 1 0 2-2M4 6v12m8-12v12m-1 0h2M3 18h2m-1-6h8M3 6h2m6 0h2"/></symbol><symbol id="hd-icon-tabler-h-4" viewBox="0 0 24 24"><path fill="none" stroke="currentColor" stroke-linecap="round" stroke-linejoin="round" stroke-width="2" d="M20 18v-8l-4 6h5M4 6v12m8-12v12m-1 0h2M3 18h2m-1-6h8M3 6h2m6 0h2"/></symbol><symbol id="hd-icon-tabler-h-5" viewBox="0 0 24 24"><path fill="none" stroke="currentColor" stroke-linecap="round" stroke-linejoin="round" stroke-width="2" d="M17 18h2a2 2 0 1 0 0-4h-2v-4h4M4 6v12m8-12v12m-1 0h2M3 18h2m-1-6h8M3 6h2m6 0h2"/></symbol><symbol id="hd-icon-tabler-h-6" viewBox="0 0 24 24"><g fill="none" stroke="currentColor" stroke-linecap="round" stroke-linejoin="round" stroke-width="2"><path d="M19 14a2 2 0 1 0 0 4a2 2 0 0 0 0-4"/><path d="M21 12a2 2 0 1 0-4 0v4M4 6v12m8-12v12m-1 0h2M3 18h2m-1-6h8M3 6h2m6 0h2"/></g></symbol><symbol id="hd-icon-tabler-hammer" viewBox="0 0 24 24"><path fill="none" stroke="currentColor" stroke-linecap="round" stroke-linejoin="round" stroke-width="2" d="m11.414 10l-7.383 7.418a2.09 2.09 0 0 0 0 2.967a2.11 2.11 0 0 0 2.976 0L14.414 13m3.707 2.293l2.586-2.586a1 1 0 0 0 0-1.414l-7.586-7.586a1 1 0 0 0-1.414 0L9.121 6.293a1 1 0 0 0 0 1.414l7.586 7.586a1 1 0 0 0 1.414 0"/></symbol><symbol id="hd-icon-tabler-hammer-off" viewBox="0 0 24 24"><path fill="none" stroke="currentColor" stroke-linecap="round" stroke-linejoin="round" stroke-width="2" d="M10.698 10.72L4.03 17.418a2.09 2.09 0 0 0 0 2.967a2.11 2.11 0 0 0 2.976 0l6.696-6.676m5.011.993l2-2a1 1 0 0 0 0-1.414l-7.586-7.586a1 1 0 0 0-1.414 0l-2 2M3 3l18 18"/></symbol><symbol id="hd-icon-tabler-hand-click" viewBox="0 0 24 24"><g fill="none" stroke="currentColor" stroke-linecap="round" stroke-linejoin="round" stroke-width="2"><path d="M8 13V4.5a1.5 1.5 0 0 1 3 0V12m0-.5v-2a1.5 1.5 0 0 1 3 0V12m0-1.5a1.5 1.5 0 0 1 3 0V12"/><path d="M17 11.5a1.5 1.5 0 0 1 3 0V16a6 6 0 0 1-6 6h-2h.208a6 6 0 0 1-5.012-2.7L7 19q-.468-.718-3.286-5.728a1.5 1.5 0 0 1 .536-2.022a1.87 1.87 0 0 1 2.28.28L8 13M5 3L4 2m0 5H3m11-4l1-1m0 4h1"/></g></symbol><symbol id="hd-icon-tabler-hand-click-off" viewBox="0 0 24 24"><g fill="none" stroke="currentColor" stroke-linecap="round" stroke-linejoin="round" stroke-width="2"><path d="M8 13V8m.06-3.923A1.5 1.5 0 0 1 11 4.5V7m0 4v1m1.063-3.935A1.5 1.5 0 0 1 14 9.5v.5m.06.082A1.5 1.5 0 0 1 17 10.5V12"/><path d="M17 11.5a1.5 1.5 0 0 1 3 0V16m-.88 3.129A6 6 0 0 1 14 22h-2h.208a6 6 0 0 1-5.012-2.7L7 19q-.468-.718-3.286-5.728a1.5 1.5 0 0 1 .536-2.022a1.87 1.87 0 0 1 2.28.28L8 13M3 3l18 18M4 7H3m11-4l1-1m0 4h1"/></g></symbol><symbol id="hd-icon-tabler-hand-finger" viewBox="0 0 24 24"><g fill="none" stroke="currentColor" stroke-linecap="round" stroke-linejoin="round" stroke-width="2"><path d="M8 13V4.5a1.5 1.5 0 0 1 3 0V12m0-.5v-2a1.5 1.5 0 1 1 3 0V12m0-1.5a1.5 1.5 0 0 1 3 0V12"/><path d="M17 11.5a1.5 1.5 0 0 1 3 0V16a6 6 0 0 1-6 6h-2h.208a6 6 0 0 1-5.012-2.7L7 19q-.468-.718-3.286-5.728a1.5 1.5 0 0 1 .536-2.022a1.87 1.87 0 0 1 2.28.28L8 13"/></g></symbol><symbol id="hd-icon-tabler-hand-finger-down" viewBox="0 0 24 24"><g fill="none" stroke="currentColor" stroke-linecap="round" stroke-linejoin="round" stroke-width="2"><path d="M8 12v8.5a1.5 1.5 0 0 0 3 0V13m0 .5v2a1.5 1.5 0 0 0 3 0V13m0 1.5a1.5 1.5 0 0 0 3 0V13"/><path d="M17 13.5a1.5 1.5 0 0 0 3 0V9a6 6 0 0 0-6-6h-2h.208a6 6 0 0 0-5.012 2.7L7 6q-.468.718-3.286 5.728a1.5 1.5 0 0 0 .536 2.022c.734.44 1.674.325 2.28-.28L8 12"/></g></symbol><symbol id="hd-icon-tabler-hand-finger-left" viewBox="0 0 24 24"><g fill="none" stroke="currentColor" stroke-linecap="round" stroke-linejoin="round" stroke-width="2"><path d="M12 8H3.5a1.5 1.5 0 0 0 0 3H11m-.5 0h-2a1.5 1.5 0 1 0 0 3H11m-1.5 0a1.5 1.5 0 0 0 0 3H11"/><path d="M10.5 17a1.5 1.5 0 0 0 0 3H15a6 6 0 0 0 6-6v-2v.208a6 6 0 0 0-2.7-5.012L18 7q-.718-.468-5.728-3.286a1.5 1.5 0 0 0-2.022.536a1.87 1.87 0 0 0 .28 2.28L12 8"/></g></symbol><symbol id="hd-icon-tabler-hand-finger-off" viewBox="0 0 24 24"><g fill="none" stroke="currentColor" stroke-linecap="round" stroke-linejoin="round" stroke-width="2"><path d="M8 13V8m.06-3.923A1.5 1.5 0 0 1 11 4.5V7m0 4v1m1.063-3.935A1.5 1.5 0 0 1 14 9.5v.5m.06.082A1.5 1.5 0 0 1 17 10.5V12"/><path d="M17 11.5a1.5 1.5 0 0 1 3 0V16m-.88 3.129A6 6 0 0 1 14 22h-2h.208a6 6 0 0 1-5.012-2.7L7 19q-.468-.718-3.286-5.728a1.5 1.5 0 0 1 .536-2.022a1.87 1.87 0 0 1 2.28.28L8 13M3 3l18 18"/></g></symbol><symbol id="hd-icon-tabler-hand-finger-right" viewBox="0 0 24 24"><g fill="none" stroke="currentColor" stroke-linecap="round" stroke-linejoin="round" stroke-width="2"><path d="M12 8h8.5a1.5 1.5 0 0 1 0 3H13m.5 0h2a1.5 1.5 0 0 1 0 3H13m1.5 0a1.5 1.5 0 0 1 0 3H13"/><path d="M13.5 17a1.5 1.5 0 1 1 0 3H9a6 6 0 0 1-6-6v-2v.208a6 6 0 0 1 2.7-5.012L6 7q.718-.468 5.728-3.286a1.5 1.5 0 0 1 2.022.536c.44.734.325 1.674-.28 2.28L12 8"/></g></symbol><symbol id="hd-icon-tabler-hand-grab" viewBox="0 0 24 24"><g fill="none" stroke="currentColor" stroke-linecap="round" stroke-linejoin="round" stroke-width="2"><path d="M8 11V7.5a1.5 1.5 0 0 1 3 0V10m0-.5v-3a1.5 1.5 0 0 1 3 0V10m0-2.5a1.5 1.5 0 0 1 3 0V10"/><path d="M17 9.5a1.5 1.5 0 0 1 3 0V14a6 6 0 0 1-6 6h-2h.208a6 6 0 0 1-5.012-2.7L7 17q-.468-.718-3.286-5.728A1.5 1.5 0 0 1 4.25 9.25a1.87 1.87 0 0 1 2.28.28L8 11"/></g></symbol><symbol id="hd-icon-tabler-hand-little-finger" viewBox="0 0 24 24"><g fill="none" stroke="currentColor" stroke-linecap="round" stroke-linejoin="round" stroke-width="2"><path d="M8 13v-2.5a1.5 1.5 0 0 1 3 0V12m0-.5v-1a1.5 1.5 0 0 1 3 0V12"/><path d="M17 12V6.5a1.5 1.5 0 0 1 3 0V16a6 6 0 0 1-6 6h-2h.208a6 6 0 0 1-5.012-2.7L7 19q-.468-.718-3.286-5.728a1.5 1.5 0 0 1 .536-2.022a1.87 1.87 0 0 1 2.28.28L8 13"/><path d="M14 10.5a1.5 1.5 0 0 1 3 0V12"/></g></symbol><symbol id="hd-icon-tabler-hand-love-you" viewBox="0 0 24 24"><g fill="none" stroke="currentColor" stroke-linecap="round" stroke-linejoin="round" stroke-width="2"><path d="M11 11.5v-1a1.5 1.5 0 0 1 3 0V12"/><path d="M17 12V5.5a1.5 1.5 0 0 1 3 0V16a6 6 0 0 1-6 6h-2h.208a6 6 0 0 1-5.012-2.7L7 19q-.468-.718-3.286-5.728a1.5 1.5 0 0 1 .536-2.022a1.87 1.87 0 0 1 2.28.28L8 13"/><path d="M14 10.5a1.5 1.5 0 0 1 3 0V12m-9 1V4.5a1.5 1.5 0 0 1 3 0V12"/></g></symbol><symbol id="hd-icon-tabler-hand-middle-finger" viewBox="0 0 24 24"><g fill="none" stroke="currentColor" stroke-linecap="round" stroke-linejoin="round" stroke-width="2"><path d="M8 13v-2.5a1.5 1.5 0 0 1 3 0V12m3-1.5a1.5 1.5 0 0 1 3 0V12"/><path d="M17 11.5a1.5 1.5 0 0 1 3 0V16a6 6 0 0 1-6 6h-2h.208a6 6 0 0 1-5.012-2.7L7 19q-.468-.718-3.286-5.728a1.5 1.5 0 0 1 .536-2.022a1.87 1.87 0 0 1 2.28.28L8 13"/><path d="M11 11.5v-8a1.5 1.5 0 1 1 3 0V12"/></g></symbol><symbol id="hd-icon-tabler-hand-move" viewBox="0 0 24 24"><g fill="none" stroke="currentColor" stroke-linecap="round" stroke-linejoin="round" stroke-width="2"><path d="M8 13V4.5a1.5 1.5 0 0 1 3 0V12m0-.5v-2a1.5 1.5 0 0 1 3 0V12m0-1.5a1.5 1.5 0 0 1 3 0V12"/><path d="M17 11.5a1.5 1.5 0 0 1 3 0V16a6 6 0 0 1-6 6h-2h.208a6 6 0 0 1-5.012-2.7L7 19q-.468-.718-3.286-5.728a1.5 1.5 0 0 1 .536-2.022a1.87 1.87 0 0 1 2.28.28L8 13M2.541 5.594a13.5 13.5 0 0 1 2.46-1.427M14 3.458a13.4 13.4 0 0 1 3.685 1.612"/></g></symbol><symbol id="hd-icon-tabler-hand-off" viewBox="0 0 24 24"><path fill="none" stroke="currentColor" stroke-linecap="round" stroke-linejoin="round" stroke-width="2" d="m3 3l18 18M8 13.5V8m.44-3.562A1.5 1.5 0 0 1 11 5.5V7m0 4.008V12m0-6.5v-2a1.5 1.5 0 1 1 3 0V10m0-4.5a1.5 1.5 0 0 1 3 0V12m0-4.5a1.5 1.5 0 0 1 3 0V16a6 6 0 0 1-6 6h-2c-2.114-.292-3.956-1.397-5-3l-2.7-5.25a1.7 1.7 0 0 1 2.75-2l.9 1.75"/></symbol><symbol id="hd-icon-tabler-hand-ring-finger" viewBox="0 0 24 24"><g fill="none" stroke="currentColor" stroke-linecap="round" stroke-linejoin="round" stroke-width="2"><path d="M8 13v-2.5a1.5 1.5 0 0 1 3 0V12"/><path d="M17 11.5a1.5 1.5 0 0 1 3 0V16a6 6 0 0 1-6 6h-2h.208a6 6 0 0 1-5.012-2.7L7 19q-.468-.718-3.286-5.728a1.5 1.5 0 0 1 .536-2.022a1.87 1.87 0 0 1 2.28.28L8 13"/><path d="M11 11.5v-2a1.5 1.5 0 1 1 3 0V12m0 0V5.5a1.5 1.5 0 0 1 3 0V12"/></g></symbol><symbol id="hd-icon-tabler-hand-sanitizer" viewBox="0 0 24 24"><path fill="none" stroke="currentColor" stroke-linecap="round" stroke-linejoin="round" stroke-width="2" d="M7 21h10V11a3 3 0 0 0-3-3h-4a3 3 0 0 0-3 3zm8-18H9a2 2 0 0 0-2 2m5-2v5m0 3v4m-2-2h4"/></symbol><symbol id="hd-icon-tabler-hand-stop" viewBox="0 0 24 24"><g fill="none" stroke="currentColor" stroke-linecap="round" stroke-linejoin="round" stroke-width="2"><path d="M8 13V5.5a1.5 1.5 0 0 1 3 0V12m0-6.5v-2a1.5 1.5 0 1 1 3 0V12m0-6.5a1.5 1.5 0 0 1 3 0V12"/><path d="M17 7.5a1.5 1.5 0 0 1 3 0V16a6 6 0 0 1-6 6h-2h.208a6 6 0 0 1-5.012-2.7L7 19q-.468-.718-3.286-5.728a1.5 1.5 0 0 1 .536-2.022a1.87 1.87 0 0 1 2.28.28L8 13"/></g></symbol><symbol id="hd-icon-tabler-hand-three-fingers" viewBox="0 0 24 24"><g fill="none" stroke="currentColor" stroke-linecap="round" stroke-linejoin="round" stroke-width="2"><path d="M8 13V4.5a1.5 1.5 0 0 1 3 0V12"/><path d="M17 11.5a1.5 1.5 0 0 1 3 0V16a6 6 0 0 1-6 6h-2h.208a6 6 0 0 1-5.012-2.7L7 19q-.468-.718-3.286-5.728a1.5 1.5 0 0 1 .536-2.022a1.87 1.87 0 0 1 2.28.28L8 13"/><path d="M11 5.5v-2a1.5 1.5 0 1 1 3 0V12m0-6.5a1.5 1.5 0 0 1 3 0V12"/></g></symbol><symbol id="hd-icon-tabler-hand-two-fingers" viewBox="0 0 24 24"><g fill="none" stroke="currentColor" stroke-linecap="round" stroke-linejoin="round" stroke-width="2"><path d="M8 13V4.5a1.5 1.5 0 0 1 3 0V12"/><path d="M17 11.5a1.5 1.5 0 0 1 3 0V16a6 6 0 0 1-6 6h-2h.208a6 6 0 0 1-5.012-2.7L7 19q-.468-.718-3.286-5.728a1.5 1.5 0 0 1 .536-2.022a1.87 1.87 0 0 1 2.28.28L8 13"/><path d="M14 10.5a1.5 1.5 0 0 1 3 0V12m-6-6.5v-2a1.5 1.5 0 1 1 3 0V12"/></g></symbol><symbol id="hd-icon-tabler-hanger" viewBox="0 0 24 24"><path fill="none" stroke="currentColor" stroke-linecap="round" stroke-linejoin="round" stroke-width="2" d="M14 6a2 2 0 1 0-4 0c0 1.667.67 3 2 4h-.008l7.971 4.428a2 2 0 0 1 1.029 1.749V17a2 2 0 0 1-2 2h-14a2 2 0 0 1-2-2v-.823a2 2 0 0 1 1.029-1.749L11.992 10"/></symbol><symbol id="hd-icon-tabler-hanger-2" viewBox="0 0 24 24"><g fill="none" stroke="currentColor" stroke-linecap="round" stroke-linejoin="round" stroke-width="2"><path d="m12 9l-7.971 4.428A2 2 0 0 0 3 15.177V16a2 2 0 0 0 2 2h1"/><path d="M18 18h1a2 2 0 0 0 2-2v-.823a2 2 0 0 0-1.029-1.749L12 9c-1.457-.81-1.993-2.333-2-4a2 2 0 1 1 4 0"/><path d="M6 18a2 2 0 0 1 2-2h8a2 2 0 0 1 2 2v1a2 2 0 0 1-2 2H8a2 2 0 0 1-2-2z"/></g></symbol><symbol id="hd-icon-tabler-hanger-2-filled" viewBox="0 0 24 24"><path fill="currentColor" d="M12 2a3 3 0 0 1 3 3a1 1 0 0 1-1.993.117L13 5a1 1 0 0 0-2-.004c.006 1.516.495 2.579 1.486 3.13l7.97 4.428A3 3 0 0 1 22 15.177V16a3 3 0 0 1-2.824 2.995L19 19a3 3 0 0 1-3 3H8a3 3 0 0 1-3-3a3 3 0 0 1-3-3v-.823a3 3 0 0 1 1.543-2.623l6.695-3.72C9.406 7.858 9.006 6.538 9 5a3 3 0 0 1 3-3m0 8.144l-7.486 4.158a1 1 0 0 0-.514.875V16a1 1 0 0 0 1 1h.17A3 3 0 0 1 8 15h8c1.306 0 2.418.835 2.83 2H19a1 1 0 0 0 1-1v-.823a1 1 0 0 0-.515-.875z"/></symbol><symbol id="hd-icon-tabler-hanger-off" viewBox="0 0 24 24"><path fill="none" stroke="currentColor" stroke-linecap="round" stroke-linejoin="round" stroke-width="2" d="M14 6a2 2 0 1 0-4 0m6.506 6.506l3.461 1.922a2 2 0 0 1 1.029 1.749V17m-2 2h-14a2 2 0 0 1-2-2v-.823a2 2 0 0 1 1.029-1.749l6.673-3.707M3 3l18 18"/></symbol><symbol id="hd-icon-tabler-hash" viewBox="0 0 24 24"><path fill="none" stroke="currentColor" stroke-linecap="round" stroke-linejoin="round" stroke-width="2" d="M5 9h14M5 15h14M11 4L7 20M17 4l-4 16"/></symbol><symbol id="hd-icon-tabler-haze" viewBox="0 0 24 24"><path fill="none" stroke="currentColor" stroke-linecap="round" stroke-linejoin="round" stroke-width="2" d="M3 12h1m8-9v1m8 8h1M5.6 5.6l.7.7m12.1-.7l-.7.7M8 12a4 4 0 1 1 8 0M3 16h18M3 20h18"/></symbol><symbol id="hd-icon-tabler-haze-moon" viewBox="0 0 24 24"><path fill="none" stroke="currentColor" stroke-linecap="round" stroke-linejoin="round" stroke-width="2" d="M3 16h18M3 20h18M8.296 16c-2.268-1.4-3.598-4.087-3.237-6.916c.443-3.48 3.308-6.083 6.698-6.084v.006h.296c-1.991 1.916-2.377 5.03-.918 7.405s4.346 3.33 6.865 2.275A6.9 6.9 0 0 1 15.223 16"/></symbol><symbol id="hd-icon-tabler-hdr" viewBox="0 0 24 24"><path fill="none" stroke="currentColor" stroke-linecap="round" stroke-linejoin="round" stroke-width="2" d="M3 16V8m4 0v8m-4-4h4m3-4v8h2a2 2 0 0 0 2-2v-4a2 2 0 0 0-2-2zm7 4h2a2 2 0 1 0 0-4h-2v8m4 0l-3-4"/></symbol><symbol id="hd-icon-tabler-heading" viewBox="0 0 24 24"><path fill="none" stroke="currentColor" stroke-linecap="round" stroke-linejoin="round" stroke-width="2" d="M7 12h10M7 5v14M17 5v14m-2 0h4M15 5h4M5 19h4M5 5h4"/></symbol><symbol id="hd-icon-tabler-heading-off" viewBox="0 0 24 24"><path fill="none" stroke="currentColor" stroke-linecap="round" stroke-linejoin="round" stroke-width="2" d="M7 12h5m4 0h1M7 7v12M17 5v8m0 4v2m-2 0h4M15 5h4M5 19h4M3 3l18 18"/></symbol><symbol id="hd-icon-tabler-headphones" viewBox="0 0 24 24"><g fill="none" stroke="currentColor" stroke-linecap="round" stroke-linejoin="round" stroke-width="2"><path d="M4 15a2 2 0 0 1 2-2h1a2 2 0 0 1 2 2v3a2 2 0 0 1-2 2H6a2 2 0 0 1-2-2zm11 0a2 2 0 0 1 2-2h1a2 2 0 0 1 2 2v3a2 2 0 0 1-2 2h-1a2 2 0 0 1-2-2z"/><path d="M4 15v-3a8 8 0 0 1 16 0v3"/></g></symbol><symbol id="hd-icon-tabler-headphones-filled" viewBox="0 0 24 24"><path fill="currentColor" d="M21 18a3 3 0 0 1-2.824 2.995L18 21h-1a3 3 0 0 1-2.995-2.824L14 18v-3a3 3 0 0 1 2.824-2.995L17 12h1c.351 0 .688.06 1 .171V12a7 7 0 0 0-13.996-.24L5 12v.17q.377-.133.791-.163L6 12h1a3 3 0 0 1 2.995 2.824L10 15v3a3 3 0 0 1-2.824 2.995L7 21H6a3 3 0 0 1-2.995-2.824L3 18v-6a9 9 0 0 1 17.996-.265L21 12z"/></symbol><symbol id="hd-icon-tabler-headphones-off" viewBox="0 0 24 24"><g fill="none" stroke="currentColor" stroke-linecap="round" stroke-linejoin="round" stroke-width="2"><path d="m3 3l18 18M4 15a2 2 0 0 1 2-2h1a2 2 0 0 1 2 2v3a2 2 0 0 1-2 2H6a2 2 0 0 1-2-2zm13-2h1a2 2 0 0 1 2 2v1m-.589 3.417c-.361.36-.86.583-1.411.583h-1a2 2 0 0 1-2-2v-3"/><path d="M4 15v-3c0-2.21.896-4.21 2.344-5.658m2.369-1.638A8 8 0 0 1 20 12v3"/></g></symbol><symbol id="hd-icon-tabler-headset" viewBox="0 0 24 24"><g fill="none" stroke="currentColor" stroke-linecap="round" stroke-linejoin="round" stroke-width="2"><path d="M4 14v-3a8 8 0 1 1 16 0v3m-2 5c0 1.657-2.686 3-6 3"/><path d="M4 14a2 2 0 0 1 2-2h1a2 2 0 0 1 2 2v3a2 2 0 0 1-2 2H6a2 2 0 0 1-2-2zm11 0a2 2 0 0 1 2-2h1a2 2 0 0 1 2 2v3a2 2 0 0 1-2 2h-1a2 2 0 0 1-2-2z"/></g></symbol><symbol id="hd-icon-tabler-headset-off" viewBox="0 0 24 24"><g fill="none" stroke="currentColor" stroke-linecap="round" stroke-linejoin="round" stroke-width="2"><path d="M4 14v-3c0-1.953.7-3.742 1.862-5.13m2.182-1.825A8 8 0 0 1 20 11v3m-2 5c0 1.657-2.686 3-6 3"/><path d="M4 14a2 2 0 0 1 2-2h1a2 2 0 0 1 2 2v3a2 2 0 0 1-2 2H6a2 2 0 0 1-2-2zm12.169-1.82c.253-.115.534-.18.831-.18h1a2 2 0 0 1 2 2v2m-1.183 2.826c-.25.112-.526.174-.817.174h-1a2 2 0 0 1-2-2v-2M3 3l18 18"/></g></symbol><symbol id="hd-icon-tabler-health-recognition" viewBox="0 0 24 24"><path fill="none" stroke="currentColor" stroke-linecap="round" stroke-linejoin="round" stroke-width="2" d="M4 8V6a2 2 0 0 1 2-2h2M4 16v2a2 2 0 0 0 2 2h2m8-16h2a2 2 0 0 1 2 2v2m-4 12h2a2 2 0 0 0 2-2v-2M8.603 9.61a2.04 2.04 0 0 1 2.912 0L12 10l.5-.396a2.035 2.035 0 0 1 2.897.007a2.104 2.104 0 0 1 0 2.949L12 16l-3.397-3.44a2.104 2.104 0 0 1 0-2.95"/></symbol><symbol id="hd-icon-tabler-heart" viewBox="0 0 24 24"><path fill="none" stroke="currentColor" stroke-linecap="round" stroke-linejoin="round" stroke-width="2" d="M19.5 12.572L12 20l-7.5-7.428A5 5 0 1 1 12 6.006a5 5 0 1 1 7.5 6.572"/></symbol><symbol id="hd-icon-tabler-heart-bitcoin" viewBox="0 0 24 24"><g fill="none" stroke="currentColor" stroke-linecap="round" stroke-linejoin="round" stroke-width="2"><path d="M17 21v-6m2 0v-1.5m0 9V21m-2-3h3m-1 0h.5a1.5 1.5 0 0 1 0 3H16m3-3h.5a1.5 1.5 0 0 0 0-3H16"/><path d="m13 19l-1 1l-7.5-7.428A5 5 0 1 1 12 6.006a5 5 0 0 1 8.785 4.444"/></g></symbol><symbol id="hd-icon-tabler-heart-bolt" viewBox="0 0 24 24"><path fill="none" stroke="currentColor" stroke-linecap="round" stroke-linejoin="round" stroke-width="2" d="m13 19l-1 1l-7.5-7.428A5 5 0 1 1 12 6.006a5 5 0 0 1 8.003 5.997M19 16l-2 3h4l-2 3"/></symbol><symbol id="hd-icon-tabler-heart-broken" viewBox="0 0 24 24"><g fill="none" stroke="currentColor" stroke-linecap="round" stroke-linejoin="round" stroke-width="2"><path d="M19.5 12.572L12 20l-7.5-7.428A5 5 0 1 1 12 6.006a5 5 0 1 1 7.5 6.572"/><path d="m12 6l-2 4l4 3l-2 4v3"/></g></symbol><symbol id="hd-icon-tabler-heart-broken-filled" viewBox="0 0 24 24"><path fill="currentColor" d="M11.001 3.8L11 5.763l-1.894 3.79l-.047.11A1 1 0 0 0 9.4 10.8l3.332 2.499l-1.626 3.254A1 1 0 0 0 11 17v3.417L3.803 13.29a6 6 0 0 1 6.956-9.621zm5.77-.739l.246.037a6 6 0 0 1 3.184 10.193l-.044.037L13 20.416v-3.181l1.894-3.788l.047-.11A1 1 0 0 0 14.6 12.2l-3.333-2.5l1.627-3.253A1 1 0 0 0 13 6V3.813a6 6 0 0 1 3.77-.752"/></symbol><symbol id="hd-icon-tabler-heart-cancel" viewBox="0 0 24 24"><path fill="none" stroke="currentColor" stroke-linecap="round" stroke-linejoin="round" stroke-width="2" d="m12 20l-7.5-7.428A5 5 0 1 1 12 6.006a5 5 0 0 1 7.993 6.01M16 19a3 3 0 1 0 6 0a3 3 0 1 0-6 0m1 2l4-4"/></symbol><symbol id="hd-icon-tabler-heart-check" viewBox="0 0 24 24"><path fill="none" stroke="currentColor" stroke-linecap="round" stroke-linejoin="round" stroke-width="2" d="m19.5 12.572l-3 2.928M11 19a8917 8917 0 0 0-6.5-6.428A5 5 0 1 1 12 6.006a5 5 0 1 1 7.5 6.572M15 19l2 2l4-4"/></symbol><symbol id="hd-icon-tabler-heart-code" viewBox="0 0 24 24"><path fill="none" stroke="currentColor" stroke-linecap="round" stroke-linejoin="round" stroke-width="2" d="m19.5 12.572l-.536.53m-7.91 5.96L4.5 12.573A5 5 0 1 1 12 6.006a5 5 0 1 1 7.5 6.572M20 21l2-2l-2-2m-3 0l-2 2l2 2"/></symbol><symbol id="hd-icon-tabler-heart-cog" viewBox="0 0 24 24"><path fill="none" stroke="currentColor" stroke-linecap="round" stroke-linejoin="round" stroke-width="2" d="m12 20l-7.5-7.428A5 5 0 1 1 12 6.006a5 5 0 0 1 8.21 5.697M17.001 19a2 2 0 1 0 4 0a2 2 0 1 0-4 0m2-3.5V17m0 4v1.5m3.031-5.25l-1.299.75m-3.463 2l-1.3.75m0-3.5l1.3.75m3.463 2l1.3.75"/></symbol><symbol id="hd-icon-tabler-heart-discount" viewBox="0 0 24 24"><path fill="none" stroke="currentColor" stroke-linecap="round" stroke-linejoin="round" stroke-width="2" d="m13 19l-1 1l-7.5-7.428A5 5 0 1 1 12 6.006a5 5 0 1 1 7.5 6.572M16 21l5-5m0 5v.01M16 16v.01"/></symbol><symbol id="hd-icon-tabler-heart-dollar" viewBox="0 0 24 24"><path fill="none" stroke="currentColor" stroke-linecap="round" stroke-linejoin="round" stroke-width="2" d="m13 19l-1 1l-7.5-7.428A5 5 0 1 1 12 6.006a5 5 0 0 1 8.785 4.444M21 15h-2.5a1.5 1.5 0 0 0 0 3h1a1.5 1.5 0 0 1 0 3H17m2 0v1m0-8v1"/></symbol><symbol id="hd-icon-tabler-heart-down" viewBox="0 0 24 24"><path fill="none" stroke="currentColor" stroke-linecap="round" stroke-linejoin="round" stroke-width="2" d="m12 20l-7.5-7.428A5 5 0 1 1 12 6.006a5 5 0 1 1 7.907 6.12M19 16v6m3-3l-3 3l-3-3"/></symbol><symbol id="hd-icon-tabler-heart-exclamation" viewBox="0 0 24 24"><path fill="none" stroke="currentColor" stroke-linecap="round" stroke-linejoin="round" stroke-width="2" d="M15.03 17L12 20l-7.5-7.428A5 5 0 1 1 12 6.006a5 5 0 1 1 7.922 6.102M19 16v3m0 3v.01"/></symbol><symbol id="hd-icon-tabler-heart-filled" viewBox="0 0 24 24"><path fill="currentColor" d="M6.979 3.074a6 6 0 0 1 4.988 1.425l.037.033l.034-.03a6 6 0 0 1 4.733-1.44l.246.036a6 6 0 0 1 3.364 10.008l-.18.185l-.048.041l-7.45 7.379a1 1 0 0 1-1.313.082l-.094-.082l-7.493-7.422A6 6 0 0 1 6.979 3.074"/></symbol><symbol id="hd-icon-tabler-heart-handshake" viewBox="0 0 24 24"><g fill="none" stroke="currentColor" stroke-linecap="round" stroke-linejoin="round" stroke-width="2"><path d="M19.5 12.572L12 20l-7.5-7.428A5 5 0 1 1 12 6.006a5 5 0 1 1 7.5 6.572"/><path d="M12 6L8.707 9.293a1 1 0 0 0 0 1.414l.543.543c.69.69 1.81.69 2.5 0l1-1a3.18 3.18 0 0 1 4.5 0l2.25 2.25m-7 3l2 2M15 13l2 2"/></g></symbol><symbol id="hd-icon-tabler-heart-minus" viewBox="0 0 24 24"><path fill="none" stroke="currentColor" stroke-linecap="round" stroke-linejoin="round" stroke-width="2" d="m19.5 12.572l-2.494 2.47M12 20l-7.5-7.428A5 5 0 1 1 12 6.006a5 5 0 1 1 7.5 6.572M16 19h6"/></symbol><symbol id="hd-icon-tabler-heart-off" viewBox="0 0 24 24"><path fill="none" stroke="currentColor" stroke-linecap="round" stroke-linejoin="round" stroke-width="2" d="m3 3l18 18m-1.5-8.428L18 14m-2 2l-4 4l-7.5-7.428a5 5 0 0 1-1.288-5.068A4.98 4.98 0 0 1 5 5m3-1c1.56 0 3.05.727 4 2a5 5 0 1 1 7.5 6.572"/></symbol><symbol id="hd-icon-tabler-heart-pause" viewBox="0 0 24 24"><path fill="none" stroke="currentColor" stroke-linecap="round" stroke-linejoin="round" stroke-width="2" d="m19.5 12.572l-.784.777m-5.725 5.67L12 20l-7.5-7.428A5 5 0 1 1 12 6.006a5 5 0 1 1 7.5 6.572M17 17v5m4-5v5"/></symbol><symbol id="hd-icon-tabler-heart-pin" viewBox="0 0 24 24"><path fill="none" stroke="currentColor" stroke-linecap="round" stroke-linejoin="round" stroke-width="2" d="m12 20l-7.5-7.428A5 5 0 1 1 12 6.006a5 5 0 0 1 8.5 5.179m.621 8.936a3 3 0 1 0-4.242 0Q17.506 20.749 19 22q1.577-1.335 2.121-1.879M19 18v.01"/></symbol><symbol id="hd-icon-tabler-heart-plus" viewBox="0 0 24 24"><path fill="none" stroke="currentColor" stroke-linecap="round" stroke-linejoin="round" stroke-width="2" d="m12 20l-7.5-7.428A5 5 0 1 1 12 6.006a5 5 0 1 1 7.96 6.053M16 19h6m-3-3v6"/></symbol><symbol id="hd-icon-tabler-heart-question" viewBox="0 0 24 24"><path fill="none" stroke="currentColor" stroke-linecap="round" stroke-linejoin="round" stroke-width="2" d="M14.105 17.915L12 20l-7.5-7.428A5 5 0 1 1 12 6.006a5 5 0 0 1 8.524 5.127M19 22v.01M19 19a2.003 2.003 0 0 0 .914-3.782a1.98 1.98 0 0 0-2.414.483"/></symbol><symbol id="hd-icon-tabler-heart-rate-monitor" viewBox="0 0 24 24"><g fill="none" stroke="currentColor" stroke-linecap="round" stroke-linejoin="round" stroke-width="2"><path d="M3 5a1 1 0 0 1 1-1h16a1 1 0 0 1 1 1v10a1 1 0 0 1-1 1H4a1 1 0 0 1-1-1zm4 15h10m-8-4v4m6-4v4"/><path d="M7 10h2l2 3l2-6l1 3h3"/></g></symbol><symbol id="hd-icon-tabler-heart-search" viewBox="0 0 24 24"><g fill="none" stroke="currentColor" stroke-linecap="round" stroke-linejoin="round" stroke-width="2"><path d="m12 20l-.975-.966L4.5 12.572A5 5 0 1 1 12 6.006a5 5 0 0 1 8.37 5.428"/><path d="M15 18a3 3 0 1 0 6 0a3 3 0 1 0-6 0m5.2 2.2L22 22"/></g></symbol><symbol id="hd-icon-tabler-heart-share" viewBox="0 0 24 24"><path fill="none" stroke="currentColor" stroke-linecap="round" stroke-linejoin="round" stroke-width="2" d="m19.5 12.572l-.468.464m-6.077 6.019L12 20l-7.5-7.428A5 5 0 1 1 12 6.006a5 5 0 1 1 7.5 6.572M16 22l5-5m0 4.5V17h-4.5"/></symbol><symbol id="hd-icon-tabler-heart-spark" viewBox="0 0 24 24"><path fill="none" stroke="currentColor" stroke-linecap="round" stroke-linejoin="round" stroke-width="2" d="M11.537 19.542L4.5 12.572A5 5 0 1 1 12 6.006a5 5 0 0 1 8.212 5.693M19 22.5a4.75 4.75 0 0 1 3.5-3.5a4.75 4.75 0 0 1-3.5-3.5a4.75 4.75 0 0 1-3.5 3.5a4.75 4.75 0 0 1 3.5 3.5"/></symbol><symbol id="hd-icon-tabler-heart-star" viewBox="0 0 24 24"><path fill="none" stroke="currentColor" stroke-linecap="round" stroke-linejoin="round" stroke-width="2" d="M9.73 17.753L4.5 12.572A5 5 0 1 1 12 6.006a5 5 0 0 1 8.563 5.041m-2.763 9.77l-2.172 1.138a.392.392 0 0 1-.568-.41l.415-2.411l-1.757-1.707a.389.389 0 0 1 .217-.665l2.428-.352l1.086-2.193a.392.392 0 0 1 .702 0l1.086 2.193l2.428.352a.39.39 0 0 1 .217.665l-1.757 1.707l.414 2.41a.39.39 0 0 1-.567.411z"/></symbol><symbol id="hd-icon-tabler-heart-up" viewBox="0 0 24 24"><path fill="none" stroke="currentColor" stroke-linecap="round" stroke-linejoin="round" stroke-width="2" d="m12 20l-7.5-7.428A5 5 0 1 1 12 6.006a5 5 0 1 1 7.893 6.139M19 22v-6m3 3l-3-3l-3 3"/></symbol><symbol id="hd-icon-tabler-heart-x" viewBox="0 0 24 24"><path fill="none" stroke="currentColor" stroke-linecap="round" stroke-linejoin="round" stroke-width="2" d="M19.5 12.572L19 13m-6 6l-1 1l-7.5-7.428A5 5 0 1 1 12 6.006a5 5 0 1 1 7.5 6.572M22 22l-5-5m0 5l5-5"/></symbol><symbol id="hd-icon-tabler-heartbeat" viewBox="0 0 24 24"><g fill="none" stroke="currentColor" stroke-linecap="round" stroke-linejoin="round" stroke-width="2"><path d="M19.5 13.572L12 21l-2.896-2.868m-6.117-8.104A5 5 0 0 1 12 7.006a5 5 0 1 1 7.5 6.572"/><path d="M3 13h2l2 3l2-6l1 3h3"/></g></symbol><symbol id="hd-icon-tabler-hearts" viewBox="0 0 24 24"><g fill="none" stroke="currentColor" stroke-linecap="round" stroke-linejoin="round" stroke-width="2"><path d="M14.017 18L12 20l-7.5-7.428A5 5 0 1 1 12 6.006a5 5 0 0 1 8.153 5.784"/><path d="m15.99 20l4.197-4.223a2.81 2.81 0 0 0 0-3.948a2.747 2.747 0 0 0-3.91-.007l-.28.282l-.279-.283a2.747 2.747 0 0 0-3.91-.007a2.81 2.81 0 0 0-.007 3.948L15.983 20z"/></g></symbol><symbol id="hd-icon-tabler-hearts-off" viewBox="0 0 24 24"><g fill="none" stroke="currentColor" stroke-linecap="round" stroke-linejoin="round" stroke-width="2"><path d="M14.017 18L12 20l-7.5-7.428a5 5 0 0 1 .49-7.586m3.01-1a5 5 0 0 1 4 2.018a5 5 0 0 1 8.153 5.784"/><path d="M11.814 11.814a2.81 2.81 0 0 0-.007 3.948L15.989 20l2.01-2.021m1.977-1.99l.211-.212a2.81 2.81 0 0 0 0-3.948a2.747 2.747 0 0 0-3.91-.007l-.283.178M3 3l18 18"/></g></symbol><symbol id="hd-icon-tabler-helicopter" viewBox="0 0 24 24"><g fill="none" stroke="currentColor" stroke-linecap="round" stroke-linejoin="round" stroke-width="2"><path d="m3 10l1 2h6m2-3a2 2 0 0 0-2 2v3c0 1.1.9 2 2 2h7a2 2 0 0 0 2-2c0-3.31-3.13-5-7-5zm1 0V6M5 6h15"/><path d="M15 9.1V13h5.5M15 19v-3m4 3h-8"/></g></symbol><symbol id="hd-icon-tabler-helicopter-filled" viewBox="0 0 24 24"><path fill="currentColor" d="M20 5a1 1 0 0 1 0 2h-6v1c4.642 0 8 2.218 8 6a3 3 0 0 1-3 3h-3v1h3a1 1 0 0 1 0 2h-8a1 1 0 0 1 0-2h3v-1h-2c-1.652 0-3-1.348-3-3v-1.001L3 13a1 1 0 0 1-.894-.553l-1-2a1 1 0 0 1 1.788-.894L3.618 11L9 10.999l.005-.175A3 3 0 0 1 12 8V7H5a1 1 0 1 1 0-2zm-3.999 5.174L16 12h3.36c-.665-.906-1.825-1.539-3.359-1.826"/></symbol><symbol id="hd-icon-tabler-helicopter-landing" viewBox="0 0 24 24"><path fill="none" stroke="currentColor" stroke-linecap="round" stroke-linejoin="round" stroke-width="2" d="M3 5a2 2 0 0 1 2-2h14a2 2 0 0 1 2 2v14a2 2 0 0 1-2 2H5a2 2 0 0 1-2-2zm6 3v8m0-4h6m0-4v8"/></symbol><symbol id="hd-icon-tabler-helicopter-landing-filled" viewBox="0 0 24 24"><path fill="currentColor" d="M19 2a3 3 0 0 1 3 3v14a3 3 0 0 1-3 3H5a3 3 0 0 1-3-3V5a3 3 0 0 1 3-3zm-4 5a1 1 0 0 0-1 1v3h-4V8a1 1 0 0 0-.883-.993L9 7a1 1 0 0 0-1 1v8a1 1 0 0 0 2 0v-3h4v3a1 1 0 0 0 .883.993L15 17a1 1 0 0 0 1-1V8a1 1 0 0 0-1-1"/></symbol><symbol id="hd-icon-tabler-helmet" viewBox="0 0 24 24"><g fill="none" stroke="currentColor" stroke-linecap="round" stroke-linejoin="round" stroke-width="2"><path d="M12 4a9 9 0 0 1 5.656 16H6.344A9 9 0 0 1 12 4"/><path d="M20 9h-8.8a1 1 0 0 0-.968 1.246q.76 3 3.268 4.254q3 1.5 7 1.5"/></g></symbol><symbol id="hd-icon-tabler-helmet-off" viewBox="0 0 24 24"><g fill="none" stroke="currentColor" stroke-linecap="round" stroke-linejoin="round" stroke-width="2"><path d="M8.633 4.654a9 9 0 0 1 11.718 11.7m-1.503 2.486A9 9 0 0 1 17.656 20H6.344a9 9 0 0 1-.185-13.847"/><path d="M20 9h-7m-2.768 1.246q.76 3 3.268 4.254q.786.393 1.64.683M3 3l18 18"/></g></symbol><symbol id="hd-icon-tabler-help" viewBox="0 0 24 24"><g fill="none" stroke="currentColor" stroke-linecap="round" stroke-linejoin="round" stroke-width="2"><path d="M3 12a9 9 0 1 0 18 0a9 9 0 1 0-18 0m9 5v.01"/><path d="M12 13.5a1.5 1.5 0 0 1 1-1.5a2.6 2.6 0 1 0-3-4"/></g></symbol><symbol id="hd-icon-tabler-help-circle" viewBox="0 0 24 24"><g fill="none" stroke="currentColor" stroke-linecap="round" stroke-linejoin="round" stroke-width="2"><path d="M3 12a9 9 0 1 0 18 0a9 9 0 0 0-18 0m9 4v.01"/><path d="M12 13a2 2 0 0 0 .914-3.782a1.98 1.98 0 0 0-2.414.483"/></g></symbol><symbol id="hd-icon-tabler-help-circle-filled" viewBox="0 0 24 24"><path fill="currentColor" d="M12 2c5.523 0 10 4.477 10 10a10 10 0 0 1-19.995.324L2 12l.004-.28C2.152 6.327 6.57 2 12 2m0 13a1 1 0 0 0-.993.883L11 16l.007.127a1 1 0 0 0 1.986 0L13 16.01l-.007-.127A1 1 0 0 0 12 15m1.368-6.673a2.98 2.98 0 0 0-3.631.728a1 1 0 0 0 1.44 1.383l.171-.18a.98.98 0 0 1 1.11-.15a1 1 0 0 1-.34 1.886l-.232.012A1 1 0 0 0 11.997 14a3 3 0 0 0 1.371-5.673"/></symbol><symbol id="hd-icon-tabler-help-hexagon" viewBox="0 0 24 24"><g fill="none" stroke="currentColor" stroke-linecap="round" stroke-linejoin="round" stroke-width="2"><path d="M19.875 6.27c.7.398 1.13 1.143 1.125 1.948v7.284c0 .809-.443 1.555-1.158 1.948l-6.75 4.27a2.27 2.27 0 0 1-2.184 0l-6.75-4.27A2.23 2.23 0 0 1 3 15.502V8.217c0-.809.443-1.554 1.158-1.947l6.75-3.98a2.33 2.33 0 0 1 2.25 0l6.75 3.98zM12 16v.01"/><path d="M12 13a2 2 0 0 0 .914-3.782a1.98 1.98 0 0 0-2.414.483"/></g></symbol><symbol id="hd-icon-tabler-help-hexagon-filled" viewBox="0 0 24 24"><path fill="currentColor" d="M10.425 1.414a3.33 3.33 0 0 1 3.026-.097l.19.097l6.775 3.995l.096.063l.092.077l.107.075a3.22 3.22 0 0 1 1.266 2.188l.018.202l.005.204v7.284c0 1.106-.57 2.129-1.454 2.693l-.17.1l-6.803 4.302c-.918.504-2.019.535-3.004.068l-.196-.1l-6.695-4.237a3.23 3.23 0 0 1-1.671-2.619L2 15.502V8.217c0-1.106.57-2.128 1.476-2.705zM12 15a1 1 0 0 0-.993.883L11 16l.007.127a1 1 0 0 0 1.986 0L13 16.01l-.007-.127A1 1 0 0 0 12 15m1.368-6.673a2.98 2.98 0 0 0-3.631.728a1 1 0 0 0 1.44 1.383l.171-.18a.98.98 0 0 1 1.11-.15a1 1 0 0 1-.34 1.886l-.232.012A1 1 0 0 0 11.997 14a3 3 0 0 0 1.371-5.673"/></symbol><symbol id="hd-icon-tabler-help-octagon" viewBox="0 0 24 24"><g fill="none" stroke="currentColor" stroke-linecap="round" stroke-linejoin="round" stroke-width="2"><path d="m12.802 2.165l5.575 2.389c.48.206.863.589 1.07 1.07l2.388 5.574c.22.512.22 1.092 0 1.604l-2.389 5.575c-.206.48-.589.863-1.07 1.07l-5.574 2.388c-.512.22-1.092.22-1.604 0l-5.575-2.389a2.04 2.04 0 0 1-1.07-1.07l-2.388-5.574a2.04 2.04 0 0 1 0-1.604l2.389-5.575c.206-.48.589-.863 1.07-1.07l5.574-2.388a2.04 2.04 0 0 1 1.604 0M12 16v.01"/><path d="M12 13a2 2 0 0 0 .914-3.782a1.98 1.98 0 0 0-2.414.483"/></g></symbol><symbol id="hd-icon-tabler-help-octagon-filled" viewBox="0 0 24 24"><path fill="currentColor" d="M14.897 1a4 4 0 0 1 2.664 1.016l.165.156l4.1 4.1a4 4 0 0 1 1.168 2.605l.006.227v5.794a4 4 0 0 1-1.016 2.664l-.156.165l-4.1 4.1a4 4 0 0 1-2.603 1.168l-.227.006H9.103a4 4 0 0 1-2.664-1.017l-.165-.156l-4.1-4.1a4 4 0 0 1-1.168-2.604L1 14.897V9.103a4 4 0 0 1 1.016-2.664l.156-.165l4.1-4.1a4 4 0 0 1 2.605-1.168L9.104 1zM12 15a1 1 0 0 0-.993.883L11 16l.007.127a1 1 0 0 0 1.986 0L13 16.01l-.007-.127A1 1 0 0 0 12 15m1.368-6.673a2.98 2.98 0 0 0-3.631.728a1 1 0 0 0 1.44 1.383l.171-.18a.98.98 0 0 1 1.11-.15a1 1 0 0 1-.34 1.886l-.232.012A1 1 0 0 0 11.997 14a3 3 0 0 0 1.371-5.673"/></symbol><symbol id="hd-icon-tabler-help-off" viewBox="0 0 24 24"><g fill="none" stroke="currentColor" stroke-linecap="round" stroke-linejoin="round" stroke-width="2"><path d="M5.641 5.631A9 9 0 1 0 18.36 18.369m1.68-2.318A9 9 0 0 0 7.966 3.953M12 17v.01"/><path d="M12 13.5a1.5 1.5 0 0 1 .394-1.1m2.106-1.9a2.6 2.6 0 0 0-3.347-3.361M3 3l18 18"/></g></symbol><symbol id="hd-icon-tabler-help-small" viewBox="0 0 24 24"><path fill="none" stroke="currentColor" stroke-linecap="round" stroke-linejoin="round" stroke-width="2" d="M12 16v.01M12 13a2 2 0 0 0 .914-3.782a1.98 1.98 0 0 0-2.414.483"/></symbol><symbol id="hd-icon-tabler-help-square" viewBox="0 0 24 24"><g fill="none" stroke="currentColor" stroke-linecap="round" stroke-linejoin="round" stroke-width="2"><path d="M3 5a2 2 0 0 1 2-2h14a2 2 0 0 1 2 2v14a2 2 0 0 1-2 2H5a2 2 0 0 1-2-2zm9 11v.01"/><path d="M12 13a2 2 0 0 0 .914-3.782a1.98 1.98 0 0 0-2.414.483"/></g></symbol><symbol id="hd-icon-tabler-help-square-filled" viewBox="0 0 24 24"><path fill="currentColor" d="M19 2a3 3 0 0 1 2.995 2.824L22 5v14a3 3 0 0 1-2.824 2.995L19 22H5a3 3 0 0 1-2.995-2.824L2 19V5a3 3 0 0 1 2.824-2.995L5 2zm-7 13a1 1 0 0 0-.993.883L11 16l.007.127a1 1 0 0 0 1.986 0L13 16.01l-.007-.127A1 1 0 0 0 12 15m1.368-6.673a2.98 2.98 0 0 0-3.631.728a1 1 0 0 0 1.44 1.383l.171-.18a.98.98 0 0 1 1.11-.15a1 1 0 0 1-.34 1.886l-.232.012A1 1 0 0 0 11.997 14a3 3 0 0 0 1.371-5.673"/></symbol><symbol id="hd-icon-tabler-help-square-rounded" viewBox="0 0 24 24"><g fill="none" stroke="currentColor" stroke-linecap="round" stroke-linejoin="round" stroke-width="2"><path d="M12 3c7.2 0 9 1.8 9 9s-1.8 9-9 9s-9-1.8-9-9s1.8-9 9-9m0 13v.01"/><path d="M12 13a2 2 0 0 0 .914-3.782a1.98 1.98 0 0 0-2.414.483"/></g></symbol><symbol id="hd-icon-tabler-help-square-rounded-filled" viewBox="0 0 24 24"><path fill="currentColor" d="m12 2l.642.005l.616.017l.299.013l.579.034l.553.046c4.687.455 6.65 2.333 7.166 6.906l.03.29l.046.553l.041.727l.006.15l.017.617L22 12l-.005.642l-.017.616l-.013.299l-.034.579l-.046.553c-.455 4.687-2.333 6.65-6.906 7.166l-.29.03l-.553.046l-.727.041l-.15.006l-.617.017L12 22l-.642-.005l-.616-.017l-.299-.013l-.579-.034l-.553-.046c-4.687-.455-6.65-2.333-7.166-6.906l-.03-.29l-.046-.553l-.041-.727l-.006-.15l-.017-.617l-.004-.318v-.648l.004-.318l.017-.616l.013-.299l.034-.579l.046-.553c.455-4.687 2.333-6.65 6.906-7.166l.29-.03l.553-.046l.727-.041l.15-.006l.617-.017Q11.673 2 12 2m0 13a1 1 0 0 0-.993.883L11 16l.007.127a1 1 0 0 0 1.986 0L13 16.01l-.007-.127A1 1 0 0 0 12 15m1.368-6.673a2.98 2.98 0 0 0-3.631.728a1 1 0 0 0 1.44 1.383l.171-.18a.98.98 0 0 1 1.11-.15a1 1 0 0 1-.34 1.886l-.232.012A1 1 0 0 0 11.997 14a3 3 0 0 0 1.371-5.673"/></symbol><symbol id="hd-icon-tabler-help-triangle" viewBox="0 0 24 24"><g fill="none" stroke="currentColor" stroke-linecap="round" stroke-linejoin="round" stroke-width="2"><path d="M12 16v.01M10.363 3.591L2.257 17.125a1.914 1.914 0 0 0 1.636 2.871h16.214a1.914 1.914 0 0 0 1.636-2.87L13.637 3.59a1.914 1.914 0 0 0-3.274 0"/><path d="M12 13a2 2 0 0 0 .914-3.782a1.98 1.98 0 0 0-2.414.483"/></g></symbol><symbol id="hd-icon-tabler-help-triangle-filled" viewBox="0 0 24 24"><path fill="currentColor" d="M12 1.67c.955 0 1.845.467 2.39 1.247l.105.16l8.114 13.548a2.914 2.914 0 0 1-2.307 4.363l-.195.008H3.882a2.914 2.914 0 0 1-2.582-4.2l.099-.185l8.11-13.538A2.91 2.91 0 0 1 12 1.67M12 15a1 1 0 0 0-.993.883L11 16l.007.127a1 1 0 0 0 1.986 0L13 16.01l-.007-.127A1 1 0 0 0 12 15m1.368-6.673a2.98 2.98 0 0 0-3.631.728a1 1 0 0 0 1.44 1.383l.171-.18a.98.98 0 0 1 1.11-.15a1 1 0 0 1-.34 1.886l-.232.012A1 1 0 0 0 11.997 14a3 3 0 0 0 1.371-5.673"/></symbol><symbol id="hd-icon-tabler-hemisphere" viewBox="0 0 24 24"><g fill="none" stroke="currentColor" stroke-linecap="round" stroke-linejoin="round" stroke-width="2"><path d="M3 9a9 3 0 1 0 18 0A9 3 0 1 0 3 9"/><path d="M3 9a9 9 0 0 0 18 0"/></g></symbol><symbol id="hd-icon-tabler-hemisphere-off" viewBox="0 0 24 24"><g fill="none" stroke="currentColor" stroke-linecap="round" stroke-linejoin="round" stroke-width="2"><path d="M6.588 6.603C4.41 7.15 3 8.02 3 9c0 1.657 4.03 3 9 3m3.72-.267C18.834 11.26 21 10.215 21 9c0-1.657-4.03-3-9-3q-.995 0-1.93.07"/><path d="M3 9a9 9 0 0 0 13.677 7.69m2.165-1.843A8.97 8.97 0 0 0 21 9M3 3l18 18"/></g></symbol><symbol id="hd-icon-tabler-hemisphere-plus" viewBox="0 0 24 24"><g fill="none" stroke="currentColor" stroke-linecap="round" stroke-linejoin="round" stroke-width="2"><path d="M3 9a9 3 0 1 0 18 0A9 3 0 1 0 3 9"/><path d="M3 9a9 9 0 0 0 9 9m8.396-5.752A9 9 0 0 0 21 9m-5 10h6m-3-3v6"/></g></symbol><symbol id="hd-icon-tabler-hexagon" viewBox="0 0 24 24"><path fill="none" stroke="currentColor" stroke-linecap="round" stroke-linejoin="round" stroke-width="2" d="M19.875 6.27A2.23 2.23 0 0 1 21 8.218v7.284c0 .809-.443 1.555-1.158 1.948l-6.75 4.27a2.27 2.27 0 0 1-2.184 0l-6.75-4.27A2.23 2.23 0 0 1 3 15.502V8.217c0-.809.443-1.554 1.158-1.947l6.75-3.98a2.33 2.33 0 0 1 2.25 0l6.75 3.98z"/></symbol><symbol id="hd-icon-tabler-hexagon-0-filled" viewBox="0 0 24 24"><g fill="none" stroke-linecap="round" stroke-linejoin="round" stroke-width="2"><path d="M0 0h24v24H0z"/><path fill="currentColor" d="M10.425 1.414a3.33 3.33 0 0 1 3.216 0l6.775 3.995c.067.04.127.084.18.133l.008.007l.107.076a3.223 3.223 0 0 1 1.284 2.39l.005.203v7.284c0 1.175-.643 2.256-1.623 2.793l-6.804 4.302c-.98.538-2.166.538-3.2-.032l-6.695-4.237A3.226 3.226 0 0 1 2 15.502V8.217a3.21 3.21 0 0 1 1.65-2.808zM12 7a3 3 0 0 0-2.995 2.824L9 10v4l.005.176a3 3 0 0 0 5.99 0L15 14v-4l-.005-.176A3 3 0 0 0 12 7m0 2a1 1 0 0 1 .993.883L13 10v4l-.007.117a1 1 0 0 1-1.986 0L11 14v-4l.007-.117A1 1 0 0 1 12 9"/></g></symbol><symbol id="hd-icon-tabler-hexagon-1-filled" viewBox="0 0 24 24"><g fill="none" stroke-linecap="round" stroke-linejoin="round" stroke-width="2"><path d="M0 0h24v24H0z"/><path fill="currentColor" d="M10.425 1.414a3.33 3.33 0 0 1 3.216 0l6.775 3.995c.067.04.127.084.18.133l.008.007l.107.076a3.223 3.223 0 0 1 1.284 2.39l.005.203v7.284c0 1.175-.643 2.256-1.623 2.793l-6.804 4.302c-.98.538-2.166.538-3.2-.032l-6.695-4.237A3.226 3.226 0 0 1 2 15.502V8.217a3.21 3.21 0 0 1 1.65-2.808zm.952 5.803l-.084.076l-2 2l-.083.094a1 1 0 0 0 0 1.226l.083.094l.094.083a1 1 0 0 0 1.226 0l.094-.083l.293-.293V16l.007.117a1 1 0 0 0 1.986 0L13 16V8l-.006-.114c-.083-.777-1.008-1.16-1.617-.67z"/></g></symbol><symbol id="hd-icon-tabler-hexagon-2-filled" viewBox="0 0 24 24"><g fill="none" stroke-linecap="round" stroke-linejoin="round" stroke-width="2"><path d="M0 0h24v24H0z"/><path fill="currentColor" d="M10.425 1.414a3.33 3.33 0 0 1 3.216 0l6.775 3.995c.067.04.127.084.18.133l.008.007l.107.076a3.223 3.223 0 0 1 1.284 2.39l.005.203v7.284c0 1.175-.643 2.256-1.623 2.793l-6.804 4.302c-.98.538-2.166.538-3.2-.032l-6.695-4.237A3.226 3.226 0 0 1 2 15.502V8.217a3.21 3.21 0 0 1 1.65-2.808zM13 7h-3l-.117.007a1 1 0 0 0 0 1.986L10 9h3v2h-2l-.15.005a2 2 0 0 0-1.844 1.838L9 13v2l.005.15a2 2 0 0 0 1.838 1.844L11 17h3l.117-.007a1 1 0 0 0 0-1.986L14 15h-3v-2h2l.15-.005a2 2 0 0 0 1.844-1.838L15 11V9l-.005-.15a2 2 0 0 0-1.838-1.844z"/></g></symbol><symbol id="hd-icon-tabler-hexagon-3-filled" viewBox="0 0 24 24"><g fill="none" stroke-linecap="round" stroke-linejoin="round" stroke-width="2"><path d="M0 0h24v24H0z"/><path fill="currentColor" d="M10.425 1.414a3.33 3.33 0 0 1 3.216 0l6.775 3.995c.067.04.127.084.18.133l.008.007l.107.076a3.223 3.223 0 0 1 1.284 2.39l.005.203v7.284c0 1.175-.643 2.256-1.623 2.793l-6.804 4.302c-.98.538-2.166.538-3.2-.032l-6.695-4.237A3.226 3.226 0 0 1 2 15.502V8.217a3.21 3.21 0 0 1 1.65-2.808zM13 7h-2l-.15.005A2 2 0 0 0 9 9a1 1 0 0 0 1.974.23l.02-.113L11 9h2v2h-2l-.133.007c-1.111.12-1.154 1.73-.128 1.965l.128.021L11 13h2v2h-2l-.007-.117A1 1 0 0 0 9 15a2 2 0 0 0 1.85 1.995L11 17h2l.15-.005a2 2 0 0 0 1.844-1.838L15 15v-2l-.005-.15a1.988 1.988 0 0 0-.17-.667l-.075-.152l-.019-.032l.02-.03a2.01 2.01 0 0 0 .242-.795L15 11V9l-.005-.15a2 2 0 0 0-1.838-1.844z"/></g></symbol><symbol id="hd-icon-tabler-hexagon-3d" viewBox="0 0 24 24"><g fill="none" stroke="currentColor" stroke-linecap="round" stroke-linejoin="round" stroke-width="2"><path d="M19 6.844a2.01 2.01 0 0 1 1 1.752v6.555c0 .728-.394 1.399-1.03 1.753l-6 3.844a2 2 0 0 1-1.942 0l-6-3.844a2.01 2.01 0 0 1-1.029-1.752V8.596c0-.729.394-1.4 1.029-1.753l6-3.583a2.05 2.05 0 0 1 2 0l6 3.584h-.03zM12 16.5V21M4.5 7.5L8 10m8 0l4-2.5"/><path d="M12 7.5V12l-4 2m4-2l4 2"/><path d="m12 16.5l4-2.5v-4l-4-2.5L8 10v4z"/></g></symbol><symbol id="hd-icon-tabler-hexagon-4-filled" viewBox="0 0 24 24"><g fill="none" stroke-linecap="round" stroke-linejoin="round" stroke-width="2"><path d="M0 0h24v24H0z"/><path fill="currentColor" d="M10.425 1.414a3.33 3.33 0 0 1 3.216 0l6.775 3.995c.067.04.127.084.18.133l.008.007l.107.076a3.223 3.223 0 0 1 1.284 2.39l.005.203v7.284c0 1.175-.643 2.256-1.623 2.793l-6.804 4.302c-.98.538-2.166.538-3.2-.032l-6.695-4.237A3.226 3.226 0 0 1 2 15.502V8.217a3.21 3.21 0 0 1 1.65-2.808zM14 7a1 1 0 0 0-.993.883L13 8v3h-2V8l-.007-.117a1 1 0 0 0-1.986 0L9 8v3l.005.15a2 2 0 0 0 1.838 1.844L11 13h2v3l.007.117a1 1 0 0 0 1.986 0L15 16V8l-.007-.117A1 1 0 0 0 14 7"/></g></symbol><symbol id="hd-icon-tabler-hexagon-5-filled" viewBox="0 0 24 24"><g fill="none" stroke-linecap="round" stroke-linejoin="round" stroke-width="2"><path d="M0 0h24v24H0z"/><path fill="currentColor" d="M10.425 1.414a3.33 3.33 0 0 1 3.216 0l6.775 3.995c.067.04.127.084.18.133l.008.007l.107.076a3.223 3.223 0 0 1 1.284 2.39l.005.203v7.284c0 1.175-.643 2.256-1.623 2.793l-6.804 4.302c-.98.538-2.166.538-3.2-.032l-6.695-4.237A3.226 3.226 0 0 1 2 15.502V8.217a3.21 3.21 0 0 1 1.65-2.808zM14 7h-4a1 1 0 0 0-.993.883L9 8v4a1 1 0 0 0 .883.993L10 13h3v2h-2l-.007-.117A1 1 0 0 0 9 15a2 2 0 0 0 1.85 1.995L11 17h2a2 2 0 0 0 1.995-1.85L15 15v-2a2 2 0 0 0-1.85-1.995L13 11h-2V9h3a1 1 0 0 0 .993-.883L15 8a1 1 0 0 0-.883-.993z"/></g></symbol><symbol id="hd-icon-tabler-hexagon-6-filled" viewBox="0 0 24 24"><g fill="none" stroke-linecap="round" stroke-linejoin="round" stroke-width="2"><path d="M0 0h24v24H0z"/><path fill="currentColor" d="M10.425 1.414a3.33 3.33 0 0 1 3.216 0l6.775 3.995c.067.04.127.084.18.133l.008.007l.107.076a3.223 3.223 0 0 1 1.284 2.39l.005.203v7.284c0 1.175-.643 2.256-1.623 2.793l-6.804 4.302c-.98.538-2.166.538-3.2-.032l-6.695-4.237A3.226 3.226 0 0 1 2 15.502V8.217a3.21 3.21 0 0 1 1.65-2.808zM13 7h-2l-.15.005a2 2 0 0 0-1.844 1.838L9 9v6l.005.15a2 2 0 0 0 1.838 1.844L11 17h2l.15-.005a2 2 0 0 0 1.844-1.838L15 15v-2l-.005-.15a2 2 0 0 0-1.838-1.844L13 11h-2V9h2l.007.117A1 1 0 0 0 15 9a2 2 0 0 0-1.85-1.995zm0 6v2h-2v-2z"/></g></symbol><symbol id="hd-icon-tabler-hexagon-7-filled" viewBox="0 0 24 24"><g fill="none" stroke-linecap="round" stroke-linejoin="round" stroke-width="2"><path d="M0 0h24v24H0z"/><path fill="currentColor" d="M10.425 1.414a3.33 3.33 0 0 1 3.216 0l6.775 3.995c.067.04.127.084.18.133l.008.007l.107.076a3.223 3.223 0 0 1 1.284 2.39l.005.203v7.284c0 1.175-.643 2.256-1.623 2.793l-6.804 4.302c-.98.538-2.166.538-3.2-.032l-6.695-4.237A3.226 3.226 0 0 1 2 15.502V8.217a3.21 3.21 0 0 1 1.65-2.808zM14 7h-4l-.117.007a1 1 0 0 0-.876.876L9 8l.007.117a1 1 0 0 0 .876.876L10 9h2.718l-1.688 6.757l-.022.115a1 1 0 0 0 1.927.482l.035-.111l2-8l.021-.112a1 1 0 0 0-.878-1.125z"/></g></symbol><symbol id="hd-icon-tabler-hexagon-8-filled" viewBox="0 0 24 24"><g fill="none" stroke-linecap="round" stroke-linejoin="round" stroke-width="2"><path d="M0 0h24v24H0z"/><path fill="currentColor" d="M10.425 1.414a3.33 3.33 0 0 1 3.216 0l6.775 3.995c.067.04.127.084.18.133l.008.007l.107.076a3.223 3.223 0 0 1 1.284 2.39l.005.203v7.284c0 1.175-.643 2.256-1.623 2.793l-6.804 4.302c-.98.538-2.166.538-3.2-.032l-6.695-4.237A3.226 3.226 0 0 1 2 15.502V8.217a3.21 3.21 0 0 1 1.65-2.808zM13 7h-2l-.15.005a2 2 0 0 0-1.844 1.838L9 9v2l.005.15c.018.236.077.46.17.667l.075.152l.018.03l-.018.032c-.133.24-.218.509-.243.795L9 13v2l.005.15a2 2 0 0 0 1.838 1.844L11 17h2l.15-.005a2 2 0 0 0 1.844-1.838L15 15v-2l-.005-.15a1.988 1.988 0 0 0-.17-.667l-.075-.152l-.019-.032l.02-.03a2.01 2.01 0 0 0 .242-.795L15 11V9l-.005-.15a2 2 0 0 0-1.838-1.844zm0 6v2h-2v-2zm0-4v2h-2V9z"/></g></symbol><symbol id="hd-icon-tabler-hexagon-9-filled" viewBox="0 0 24 24"><g fill="none" stroke-linecap="round" stroke-linejoin="round" stroke-width="2"><path d="M0 0h24v24H0z"/><path fill="currentColor" d="M10.425 1.414a3.33 3.33 0 0 1 3.216 0l6.775 3.995c.067.04.127.084.18.133l.008.007l.107.076a3.223 3.223 0 0 1 1.284 2.39l.005.203v7.284c0 1.175-.643 2.256-1.623 2.793l-6.804 4.302c-.98.538-2.166.538-3.2-.032l-6.695-4.237A3.226 3.226 0 0 1 2 15.502V8.217a3.21 3.21 0 0 1 1.65-2.808zM13 7h-2l-.15.005a2 2 0 0 0-1.844 1.838L9 9v2l.005.15a2 2 0 0 0 1.838 1.844L11 13h2v2h-2l-.007-.117A1 1 0 0 0 9 15a2 2 0 0 0 1.85 1.995L11 17h2l.15-.005a2 2 0 0 0 1.844-1.838L15 15V9l-.005-.15a2 2 0 0 0-1.838-1.844zm0 2v2h-2V9z"/></g></symbol><symbol id="hd-icon-tabler-hexagon-asterisk" viewBox="0 0 24 24"><path fill="none" stroke="currentColor" stroke-linecap="round" stroke-linejoin="round" stroke-width="2" d="M19.875 6.27c.7.398 1.13 1.143 1.125 1.948v7.284c0 .809-.443 1.555-1.158 1.948l-6.75 4.27a2.27 2.27 0 0 1-2.184 0l-6.75-4.27A2.23 2.23 0 0 1 3 15.502V8.217c0-.809.443-1.554 1.158-1.947l6.75-3.98a2.33 2.33 0 0 1 2.25 0l6.75 3.98zM12 8.5v7M9 10l6 4m-6 0l6-4"/></symbol><symbol id="hd-icon-tabler-hexagon-filled" viewBox="0 0 24 24"><path fill="currentColor" d="M10.425 1.414L3.65 5.41A3.21 3.21 0 0 0 2 8.217v7.285a3.23 3.23 0 0 0 1.678 2.826l6.695 4.237c1.034.57 2.22.57 3.2.032l6.804-4.302c.98-.537 1.623-1.618 1.623-2.793V8.218l-.005-.204a3.22 3.22 0 0 0-1.284-2.39l-.107-.075l-.007-.007a1 1 0 0 0-.181-.133L13.64 1.414a3.33 3.33 0 0 0-3.216 0z"/></symbol><symbol id="hd-icon-tabler-hexagon-letter-a" viewBox="0 0 24 24"><g fill="none" stroke="currentColor" stroke-linecap="round" stroke-linejoin="round" stroke-width="2"><path d="M19.875 6.27A2.23 2.23 0 0 1 21 8.218v7.284c0 .809-.443 1.555-1.158 1.948l-6.75 4.27a2.27 2.27 0 0 1-2.184 0l-6.75-4.27A2.23 2.23 0 0 1 3 15.502V8.217c0-.809.443-1.554 1.158-1.947l6.75-3.98a2.33 2.33 0 0 1 2.25 0l6.75 3.98z"/><path d="M10 16v-6a2 2 0 1 1 4 0v6m-4-3h4"/></g></symbol><symbol id="hd-icon-tabler-hexagon-letter-a-filled" viewBox="0 0 24 24"><path fill="currentColor" d="m13.666 1.429l6.75 3.98l.096.063l.093.078l.106.074a3.22 3.22 0 0 1 1.284 2.39l.005.204v7.284c0 1.175-.643 2.256-1.623 2.793l-6.804 4.302c-.98.538-2.166.538-3.2-.032l-6.695-4.237A3.23 3.23 0 0 1 2 15.502V8.217c0-1.106.57-2.128 1.476-2.705l6.95-4.098c1-.552 2.214-.552 3.24.015M12 7a3 3 0 0 0-3 3v6a1 1 0 0 0 2 0v-2h2v2a1 1 0 0 0 .883.993L14 17a1 1 0 0 0 1-1v-6a3 3 0 0 0-3-3m0 2a1 1 0 0 1 1 1v2h-2v-2a1 1 0 0 1 .883-.993z"/></symbol><symbol id="hd-icon-tabler-hexagon-letter-b" viewBox="0 0 24 24"><g fill="none" stroke="currentColor" stroke-linecap="round" stroke-linejoin="round" stroke-width="2"><path d="M19.875 6.27A2.23 2.23 0 0 1 21 8.218v7.284c0 .809-.443 1.555-1.158 1.948l-6.75 4.27a2.27 2.27 0 0 1-2.184 0l-6.75-4.27A2.23 2.23 0 0 1 3 15.502V8.217c0-.809.443-1.554 1.158-1.947l6.75-3.98a2.33 2.33 0 0 1 2.25 0l6.75 3.98z"/><path d="M10 16h2a2 2 0 1 0 0-4h-2h2a2 2 0 1 0 0-4h-2z"/></g></symbol><symbol id="hd-icon-tabler-hexagon-letter-b-filled" viewBox="0 0 24 24"><path fill="currentColor" d="m13.666 1.429l6.75 3.98l.096.063l.093.078l.106.074a3.22 3.22 0 0 1 1.284 2.39l.005.204v7.284c0 1.175-.643 2.256-1.623 2.793l-6.804 4.302c-.98.538-2.166.538-3.2-.032l-6.695-4.237A3.23 3.23 0 0 1 2 15.502V8.217c0-1.106.57-2.128 1.476-2.705l6.95-4.098c1-.552 2.214-.552 3.24.015M12 7h-2a1 1 0 0 0-1 1v8a1 1 0 0 0 1 1h2a3 3 0 0 0 3-3l-.005-.176a3 3 0 0 0-.654-1.7L14.235 12l.106-.124A3 3 0 0 0 12 7m0 6a1 1 0 0 1 0 2h-1v-2zm0-4a1 1 0 0 1 0 2h-1V9z"/></symbol><symbol id="hd-icon-tabler-hexagon-letter-c" viewBox="0 0 24 24"><g fill="none" stroke="currentColor" stroke-linecap="round" stroke-linejoin="round" stroke-width="2"><path d="M19.875 6.27A2.23 2.23 0 0 1 21 8.218v7.284c0 .809-.443 1.555-1.158 1.948l-6.75 4.27a2.27 2.27 0 0 1-2.184 0l-6.75-4.27A2.23 2.23 0 0 1 3 15.502V8.217c0-.809.443-1.554 1.158-1.947l6.75-3.98a2.33 2.33 0 0 1 2.25 0l6.75 3.98z"/><path d="M14 10a2 2 0 1 0-4 0v4a2 2 0 1 0 4 0"/></g></symbol><symbol id="hd-icon-tabler-hexagon-letter-c-filled" viewBox="0 0 24 24"><path fill="currentColor" d="m13.666 1.429l6.75 3.98l.096.063l.093.078l.106.074a3.22 3.22 0 0 1 1.284 2.39l.005.204v7.284c0 1.175-.643 2.256-1.623 2.793l-6.804 4.302c-.98.538-2.166.538-3.2-.032l-6.695-4.237A3.23 3.23 0 0 1 2 15.502V8.217c0-1.106.57-2.128 1.476-2.705l6.95-4.098c1-.552 2.214-.552 3.24.015M12 7a3 3 0 0 0-3 3v4a3 3 0 0 0 6 0a1 1 0 0 0-1.993-.117L13 14a1 1 0 0 1-2 0v-4a1 1 0 0 1 1.993-.117L13 10a1 1 0 0 0 2 0a3 3 0 0 0-3-3"/></symbol><symbol id="hd-icon-tabler-hexagon-letter-d" viewBox="0 0 24 24"><g fill="none" stroke="currentColor" stroke-linecap="round" stroke-linejoin="round" stroke-width="2"><path d="M19.875 6.27A2.23 2.23 0 0 1 21 8.218v7.284c0 .809-.443 1.555-1.158 1.948l-6.75 4.27a2.27 2.27 0 0 1-2.184 0l-6.75-4.27A2.23 2.23 0 0 1 3 15.502V8.217c0-.809.443-1.554 1.158-1.947l6.75-3.98a2.33 2.33 0 0 1 2.25 0l6.75 3.98z"/><path d="M10 8v8h2a2 2 0 0 0 2-2v-4a2 2 0 0 0-2-2z"/></g></symbol><symbol id="hd-icon-tabler-hexagon-letter-d-filled" viewBox="0 0 24 24"><path fill="currentColor" d="m13.666 1.429l6.75 3.98l.096.063l.093.078l.106.074a3.22 3.22 0 0 1 1.284 2.39l.005.204v7.284c0 1.175-.643 2.256-1.623 2.793l-6.804 4.302c-.98.538-2.166.538-3.2-.032l-6.695-4.237A3.23 3.23 0 0 1 2 15.502V8.217c0-1.106.57-2.128 1.476-2.705l6.95-4.098c1-.552 2.214-.552 3.24.015M12 7h-2a1 1 0 0 0-1 1v8a1 1 0 0 0 1 1h2a3 3 0 0 0 3-3v-4a3 3 0 0 0-3-3m0 2a1 1 0 0 1 1 1v4a1 1 0 0 1-1 1h-1V9z"/></symbol><symbol id="hd-icon-tabler-hexagon-letter-e" viewBox="0 0 24 24"><g fill="none" stroke="currentColor" stroke-linecap="round" stroke-linejoin="round" stroke-width="2"><path d="M19.875 6.27A2.23 2.23 0 0 1 21 8.218v7.284c0 .809-.443 1.555-1.158 1.948l-6.75 4.27a2.27 2.27 0 0 1-2.184 0l-6.75-4.27A2.23 2.23 0 0 1 3 15.502V8.217c0-.809.443-1.554 1.158-1.947l6.75-3.98a2.33 2.33 0 0 1 2.25 0l6.75 3.98z"/><path d="M14 8h-4v8h4m-4-4h2.5"/></g></symbol><symbol id="hd-icon-tabler-hexagon-letter-e-filled" viewBox="0 0 24 24"><path fill="currentColor" d="m13.666 1.429l6.75 3.98l.096.063l.093.078l.106.074a3.22 3.22 0 0 1 1.284 2.39l.005.204v7.284c0 1.175-.643 2.256-1.623 2.793l-6.804 4.302c-.98.538-2.166.538-3.2-.032l-6.695-4.237A3.23 3.23 0 0 1 2 15.502V8.217c0-1.106.57-2.128 1.476-2.705l6.95-4.098c1-.552 2.214-.552 3.24.015M14 7h-4a1 1 0 0 0-1 1v8a1 1 0 0 0 1 1h4a1 1 0 0 0 1-1l-.007-.117A1 1 0 0 0 14 15h-3v-2h1.5a1 1 0 0 0 .993-.883L13.5 12a1 1 0 0 0-1-1H11V9h3a1 1 0 0 0 0-2"/></symbol></svg>