<svg xmlns="http://www.w3.org/2000/svg" xmlns:xlink="http://www.w3.org/1999/xlink"><symbol id="hd-icon-tabler-rewind-forward-40" viewBox="0 0 24 24"><g fill="none" stroke="currentColor" stroke-linecap="round" stroke-linejoin="round" stroke-width="2"><path d="M5.007 16.478A6 6 0 0 1 9 6h11m-5 9.5v3a1.5 1.5 0 0 0 3 0v-3a1.5 1.5 0 0 0-3 0"/><path d="m17 9l3-3l-3-3M9 14v2a1 1 0 0 0 1 1h1m1-3v6"/></g></symbol><symbol id="hd-icon-tabler-rewind-forward-5" viewBox="0 0 24 24"><g fill="none" stroke="currentColor" stroke-linecap="round" stroke-linejoin="round" stroke-width="2"><path d="M9 18A6 6 0 1 1 9 6h11m-7 14h2a1 1 0 0 0 1-1v-1a1 1 0 0 0-1-1h-2v-3h3"/><path d="m17 9l3-3l-3-3"/></g></symbol><symbol id="hd-icon-tabler-rewind-forward-50" viewBox="0 0 24 24"><g fill="none" stroke="currentColor" stroke-linecap="round" stroke-linejoin="round" stroke-width="2"><path d="M5.007 16.478A6 6 0 0 1 9 6h11m-5 9.5v3a1.5 1.5 0 0 0 3 0v-3a1.5 1.5 0 0 0-3 0"/><path d="m17 9l3-3l-3-3M9 20h1.5a1.5 1.5 0 0 0 0-3H9v-3h3"/></g></symbol><symbol id="hd-icon-tabler-rewind-forward-60" viewBox="0 0 24 24"><g fill="none" stroke="currentColor" stroke-linecap="round" stroke-linejoin="round" stroke-width="2"><path d="M5.007 16.478A6 6 0 0 1 9 6h11m-5 9.5v3a1.5 1.5 0 0 0 3 0v-3a1.5 1.5 0 0 0-3 0"/><path d="m17 9l3-3l-3-3m-5 11h-2a1 1 0 0 0-1 1v4a1 1 0 0 0 1 1h1a1 1 0 0 0 1-1v-1a1 1 0 0 0-1-1H9"/></g></symbol><symbol id="hd-icon-tabler-ribbon-health" viewBox="0 0 24 24"><path fill="none" stroke="currentColor" stroke-linecap="round" stroke-linejoin="round" stroke-width="2" d="M7 21s9.286-9.841 9.286-13.841a3.86 3.86 0 0 0-1.182-3.008A4.13 4.13 0 0 0 12 3.007A4.13 4.13 0 0 0 8.896 4.15a3.86 3.86 0 0 0-1.182 3.01C7.714 11.16 17 21 17 21"/></symbol><symbol id="hd-icon-tabler-rings" viewBox="0 0 24 24"><path fill="none" stroke="currentColor" stroke-linecap="round" stroke-linejoin="round" stroke-width="2" d="M4 17a3 3 0 1 0 6 0a3 3 0 1 0-6 0m10 0a3 3 0 1 0 6 0a3 3 0 1 0-6 0m-7-2V4m10 11V4M3 4h18"/></symbol><symbol id="hd-icon-tabler-ripple" viewBox="0 0 24 24"><path fill="none" stroke="currentColor" stroke-linecap="round" stroke-linejoin="round" stroke-width="2" d="M3 7q4.5-3 9 0c4.5 3 6 2 9 0M3 17q4.5-3 9 0c4.5 3 6 2 9 0M3 12q4.5-3 9 0c4.5 3 6 2 9 0"/></symbol><symbol id="hd-icon-tabler-ripple-down" viewBox="0 0 24 24"><path fill="none" stroke="currentColor" stroke-linecap="round" stroke-linejoin="round" stroke-width="2" d="M3 7q4.5-3 9 0t9 0M3 17q4.5-3 9 0q.213.142.427.27M3 12q4.5-3 9 0q2.006 1.338 4.012 1.482M19 16v6m3-3l-3 3l-3-3"/></symbol><symbol id="hd-icon-tabler-ripple-off" viewBox="0 0 24 24"><path fill="none" stroke="currentColor" stroke-linecap="round" stroke-linejoin="round" stroke-width="2" d="M3 7q1.372-.915 2.746-1.272m4.212.22Q10.978 6.318 12 7q4.5 3 9 0M3 17q4.5-3 9 0q3.138 2.093 6.276 1.266M3 12q4.5-3 9 0m5.482 1.429Q19.241 13.173 21 12M3 3l18 18"/></symbol><symbol id="hd-icon-tabler-ripple-up" viewBox="0 0 24 24"><path fill="none" stroke="currentColor" stroke-linecap="round" stroke-linejoin="round" stroke-width="2" d="M3 7q4.5-3 9 0t9 0M3 17q4.5-3 9 0q.218.144.434.275M3 12q4.5-3 9 0q1.941 1.294 3.882 1.472M19 22v-6m3 3l-3-3l-3 3"/></symbol><symbol id="hd-icon-tabler-road" viewBox="0 0 24 24"><path fill="none" stroke="currentColor" stroke-linecap="round" stroke-linejoin="round" stroke-width="2" d="M4 19L8 5m8 0l4 14M12 8V6m0 7v-2m0 7v-2"/></symbol><symbol id="hd-icon-tabler-road-off" viewBox="0 0 24 24"><path fill="none" stroke="currentColor" stroke-linecap="round" stroke-linejoin="round" stroke-width="2" d="M4 19L7.332 7.339M16 5l2.806 9.823M12 8V6m0 7v-1m0 6v-2M3 3l18 18"/></symbol><symbol id="hd-icon-tabler-road-sign" viewBox="0 0 24 24"><g fill="none" stroke="currentColor" stroke-linecap="round" stroke-linejoin="round" stroke-width="2"><path d="m13.446 2.6l7.955 7.954a2.045 2.045 0 0 1 0 2.892l-7.955 7.955a2.045 2.045 0 0 1-2.892 0l-7.955-7.955a2.045 2.045 0 0 1 0-2.892l7.955-7.955a2.045 2.045 0 0 1 2.892 0"/><path d="M9 14v-2c0-.59.414-1 1-1h5"/><path d="m13 9l2 2l-2 2"/></g></symbol><symbol id="hd-icon-tabler-robot" viewBox="0 0 24 24"><path fill="none" stroke="currentColor" stroke-linecap="round" stroke-linejoin="round" stroke-width="2" d="M6 6a2 2 0 0 1 2-2h8a2 2 0 0 1 2 2v4a2 2 0 0 1-2 2H8a2 2 0 0 1-2-2zm6-4v2m-3 8v9m6-9v9M5 16l4-2m6 0l4 2M9 18h6M10 8v.01M14 8v.01"/></symbol><symbol id="hd-icon-tabler-robot-face" viewBox="0 0 24 24"><g fill="none" stroke="currentColor" stroke-linecap="round" stroke-linejoin="round" stroke-width="2"><path d="M6 5h12a2 2 0 0 1 2 2v12a2 2 0 0 1-2 2H6a2 2 0 0 1-2-2V7a2 2 0 0 1 2-2"/><path d="M9 16q1.5 1 3 1c1.5 0 2-.333 3-1M9 7L8 3m7 4l1-4m-7 9v-1m6 1v-1"/></g></symbol><symbol id="hd-icon-tabler-robot-off" viewBox="0 0 24 24"><path fill="none" stroke="currentColor" stroke-linecap="round" stroke-linejoin="round" stroke-width="2" d="M8 4h8a2 2 0 0 1 2 2v4a2 2 0 0 1-2 2m-4 0H8a2 2 0 0 1-2-2V6m6-4v2m-3 8v9m6-6v6M5 16l4-2m0 4h6M14 8v.01M3 3l18 18"/></symbol><symbol id="hd-icon-tabler-rocket" viewBox="0 0 24 24"><g fill="none" stroke="currentColor" stroke-linecap="round" stroke-linejoin="round" stroke-width="2"><path d="M4 13a8 8 0 0 1 7 7a6 6 0 0 0 3-5a9 9 0 0 0 6-8a3 3 0 0 0-3-3a9 9 0 0 0-8 6a6 6 0 0 0-5 3"/><path d="M7 14a6 6 0 0 0-3 6a6 6 0 0 0 6-3m4-8a1 1 0 1 0 2 0a1 1 0 1 0-2 0"/></g></symbol><symbol id="hd-icon-tabler-rocket-off" viewBox="0 0 24 24"><g fill="none" stroke="currentColor" stroke-linecap="round" stroke-linejoin="round" stroke-width="2"><path d="M9.29 9.275A9 9 0 0 0 9 10a6 6 0 0 0-5 3a8 8 0 0 1 7 7a6 6 0 0 0 3-5q.362-.128.708-.283m2.428-1.61A9 9 0 0 0 20 7a3 3 0 0 0-3-3a9 9 0 0 0-6.107 2.864"/><path d="M7 14a6 6 0 0 0-3 6a6 6 0 0 0 6-3m4-8a1 1 0 1 0 2 0a1 1 0 1 0-2 0M3 3l18 18"/></g></symbol><symbol id="hd-icon-tabler-roller-skating" viewBox="0 0 24 24"><g fill="none" stroke="currentColor" stroke-linecap="round" stroke-linejoin="round" stroke-width="2"><path d="M5.905 5h3.418a1 1 0 0 1 .928.629l1.143 2.856a3 3 0 0 0 2.207 1.83l4.717.926A2.084 2.084 0 0 1 20 13.286V14a1 1 0 0 1-1 1H5.105a1 1 0 0 1-1-1.1l.8-8a1 1 0 0 1 1-.9"/><path d="M6 17a2 2 0 1 0 4 0a2 2 0 1 0-4 0m8 0a2 2 0 1 0 4 0a2 2 0 1 0-4 0"/></g></symbol><symbol id="hd-icon-tabler-rollercoaster" viewBox="0 0 24 24"><path fill="none" stroke="currentColor" stroke-linecap="round" stroke-linejoin="round" stroke-width="2" d="M3 21a5.55 5.55 0 0 0 5.265-3.795L9 15a8.775 8.775 0 0 1 8.325-6H21m-1 0v12M8 21v-3m4 3V11m4-1.5V21M15 3h5v3h-5zM6 8l4-3l2 2.5l-4 3l-1.8-.5z"/></symbol><symbol id="hd-icon-tabler-rollercoaster-filled" viewBox="0 0 24 24"><path fill="currentColor" d="M21 8a1 1 0 0 1 0 2v11a1 1 0 0 1-2 0V10h-1.675q-.163 0-.325.007V21a1 1 0 0 1-2 0V10.355a7.8 7.8 0 0 0-2 .959V21a1 1 0 0 1-2 0v-7.748a7.8 7.8 0 0 0-1.051 2.064l-.735 2.205a7 7 0 0 1-.213.553L9 21a1 1 0 0 1-2 0l.001-.364A6.54 6.54 0 0 1 3 22a1 1 0 0 1 0-2a4.55 4.55 0 0 0 4.316-3.111l.735-2.205A9.775 9.775 0 0 1 17.325 8zM10.78 4.375l2 2.5A1 1 0 0 1 12.6 8.3l-4 3a1 1 0 0 1-.868.164l-1.8-.5a1 1 0 0 1-.727-.864l-.2-2a1 1 0 0 1 .395-.9l4-3a1 1 0 0 1 1.38.175M20 2a1 1 0 0 1 1 1v3a1 1 0 0 1-1 1h-5a1 1 0 0 1-1-1V3a1 1 0 0 1 1-1z"/></symbol><symbol id="hd-icon-tabler-rollercoaster-off" viewBox="0 0 24 24"><path fill="none" stroke="currentColor" stroke-linecap="round" stroke-linejoin="round" stroke-width="2" d="M3 21a5.55 5.55 0 0 0 5.265-3.795L9 15a8.76 8.76 0 0 1 2.35-3.652m2.403-1.589A8.8 8.8 0 0 1 17.325 9H21m-1 0v7m0 4v1M8 21v-3m4 3v-9m4-2.5V12m0 4v5M15 3h5v3h-5zM9.446 5.415L10 5l2 2.5l-.285.213M9.447 9.415L8 10.5L6.2 10L6 8l1.139-.854M3 3l18 18"/></symbol><symbol id="hd-icon-tabler-rosette" viewBox="0 0 24 24"><path fill="none" stroke="currentColor" stroke-linecap="round" stroke-linejoin="round" stroke-width="2" d="M5 7.2A2.2 2.2 0 0 1 7.2 5h1a2.2 2.2 0 0 0 1.55-.64l.7-.7a2.2 2.2 0 0 1 3.12 0l.7.7c.412.41.97.64 1.55.64h1a2.2 2.2 0 0 1 2.2 2.2v1c0 .58.23 1.138.64 1.55l.7.7a2.2 2.2 0 0 1 0 3.12l-.7.7a2.2 2.2 0 0 0-.64 1.55v1a2.2 2.2 0 0 1-2.2 2.2h-1a2.2 2.2 0 0 0-1.55.64l-.7.7a2.2 2.2 0 0 1-3.12 0l-.7-.7a2.2 2.2 0 0 0-1.55-.64h-1a2.2 2.2 0 0 1-2.2-2.2v-1a2.2 2.2 0 0 0-.64-1.55l-.7-.7a2.2 2.2 0 0 1 0-3.12l.7-.7A2.2 2.2 0 0 0 5 8.2z"/></symbol><symbol id="hd-icon-tabler-rosette-asterisk" viewBox="0 0 24 24"><path fill="none" stroke="currentColor" stroke-linecap="round" stroke-linejoin="round" stroke-width="2" d="M5 7.2A2.2 2.2 0 0 1 7.2 5h1a2.2 2.2 0 0 0 1.55-.64l.7-.7a2.2 2.2 0 0 1 3.12 0l.7.7c.412.41.97.64 1.55.64h1a2.2 2.2 0 0 1 2.2 2.2v1c0 .58.23 1.138.64 1.55l.7.7a2.2 2.2 0 0 1 0 3.12l-.7.7a2.2 2.2 0 0 0-.64 1.55v1a2.2 2.2 0 0 1-2.2 2.2h-1a2.2 2.2 0 0 0-1.55.64l-.7.7a2.2 2.2 0 0 1-3.12 0l-.7-.7a2.2 2.2 0 0 0-1.55-.64h-1a2.2 2.2 0 0 1-2.2-2.2v-1a2.2 2.2 0 0 0-.64-1.55l-.7-.7a2.2 2.2 0 0 1 0-3.12l.7-.7A2.2 2.2 0 0 0 5 8.2zm7 1.3v7M9 10l6 4m-6 0l6-4"/></symbol><symbol id="hd-icon-tabler-rosette-discount" viewBox="0 0 24 24"><g fill="none" stroke="currentColor" stroke-linecap="round" stroke-linejoin="round" stroke-width="2"><path d="m9 15l6-6"/><path fill="currentColor" d="M9 9.5a.5.5 0 1 0 1 0a.5.5 0 1 0-1 0m5 5a.5.5 0 1 0 1 0a.5.5 0 1 0-1 0"/><path d="M5 7.2A2.2 2.2 0 0 1 7.2 5h1a2.2 2.2 0 0 0 1.55-.64l.7-.7a2.2 2.2 0 0 1 3.12 0l.7.7a2.2 2.2 0 0 0 1.55.64h1a2.2 2.2 0 0 1 2.2 2.2v1a2.2 2.2 0 0 0 .64 1.55l.7.7a2.2 2.2 0 0 1 0 3.12l-.7.7a2.2 2.2 0 0 0-.64 1.55v1a2.2 2.2 0 0 1-2.2 2.2h-1a2.2 2.2 0 0 0-1.55.64l-.7.7a2.2 2.2 0 0 1-3.12 0l-.7-.7a2.2 2.2 0 0 0-1.55-.64h-1a2.2 2.2 0 0 1-2.2-2.2v-1a2.2 2.2 0 0 0-.64-1.55l-.7-.7a2.2 2.2 0 0 1 0-3.12l.7-.7A2.2 2.2 0 0 0 5 8.2z"/></g></symbol><symbol id="hd-icon-tabler-rosette-discount-check" viewBox="0 0 24 24"><g fill="none" stroke="currentColor" stroke-linecap="round" stroke-linejoin="round" stroke-width="2"><path d="M5 7.2A2.2 2.2 0 0 1 7.2 5h1a2.2 2.2 0 0 0 1.55-.64l.7-.7a2.2 2.2 0 0 1 3.12 0l.7.7c.412.41.97.64 1.55.64h1a2.2 2.2 0 0 1 2.2 2.2v1c0 .58.23 1.138.64 1.55l.7.7a2.2 2.2 0 0 1 0 3.12l-.7.7a2.2 2.2 0 0 0-.64 1.55v1a2.2 2.2 0 0 1-2.2 2.2h-1a2.2 2.2 0 0 0-1.55.64l-.7.7a2.2 2.2 0 0 1-3.12 0l-.7-.7a2.2 2.2 0 0 0-1.55-.64h-1a2.2 2.2 0 0 1-2.2-2.2v-1a2.2 2.2 0 0 0-.64-1.55l-.7-.7a2.2 2.2 0 0 1 0-3.12l.7-.7A2.2 2.2 0 0 0 5 8.2z"/><path d="m9 12l2 2l4-4"/></g></symbol><symbol id="hd-icon-tabler-rosette-discount-check-filled" viewBox="0 0 24 24"><path fill="currentColor" d="M12.01 2.011a3.2 3.2 0 0 1 2.113.797l.154.145l.698.698a1.2 1.2 0 0 0 .71.341L15.82 4h1a3.2 3.2 0 0 1 3.195 3.018l.005.182v1c0 .27.092.533.258.743l.09.1l.697.698a3.2 3.2 0 0 1 .147 4.382l-.145.154l-.698.698a1.2 1.2 0 0 0-.341.71l-.008.135v1a3.2 3.2 0 0 1-3.018 3.195l-.182.005h-1a1.2 1.2 0 0 0-.743.258l-.1.09l-.698.697a3.2 3.2 0 0 1-4.382.147l-.154-.145l-.698-.698a1.2 1.2 0 0 0-.71-.341L8.2 20.02h-1a3.2 3.2 0 0 1-3.195-3.018L4 16.82v-1a1.2 1.2 0 0 0-.258-.743l-.09-.1l-.697-.698a3.2 3.2 0 0 1-.147-4.382l.145-.154l.698-.698a1.2 1.2 0 0 0 .341-.71L4 8.2v-1l.005-.182a3.2 3.2 0 0 1 3.013-3.013L7.2 4h1a1.2 1.2 0 0 0 .743-.258l.1-.09l.698-.697a3.2 3.2 0 0 1 2.269-.944m3.697 7.282a1 1 0 0 0-1.414 0L11 12.585l-1.293-1.292l-.094-.083a1 1 0 0 0-1.32 1.497l2 2l.094.083a1 1 0 0 0 1.32-.083l4-4l.083-.094a1 1 0 0 0-.083-1.32"/></symbol><symbol id="hd-icon-tabler-rosette-discount-check-off" viewBox="0 0 24 24"><g fill="none" stroke="currentColor" stroke-linecap="round" stroke-linejoin="round" stroke-width="2"><path d="m9 12l2 2l1.5-1.5m2-2l.5-.5"/><path d="M8.887 4.89a2.2 2.2 0 0 0 .863-.53l.7-.7a2.2 2.2 0 0 1 3.12 0l.7.7c.412.41.97.64 1.55.64h1a2.2 2.2 0 0 1 2.2 2.2v1c0 .58.23 1.138.64 1.55l.7.7a2.2 2.2 0 0 1 0 3.12l-.7.7a2.2 2.2 0 0 0-.528.858m-.757 3.248a2.2 2.2 0 0 1-1.555.644h-1a2.2 2.2 0 0 0-1.55.64l-.7.7a2.2 2.2 0 0 1-3.12 0l-.7-.7a2.2 2.2 0 0 0-1.55-.64h-1a2.2 2.2 0 0 1-2.2-2.2v-1a2.2 2.2 0 0 0-.64-1.55l-.7-.7a2.2 2.2 0 0 1 0-3.12l.7-.7A2.2 2.2 0 0 0 5 8.2v-1c0-.604.244-1.152.638-1.55M3 3l18 18"/></g></symbol><symbol id="hd-icon-tabler-rosette-discount-filled" viewBox="0 0 24 24"><path fill="currentColor" d="M12.01 2.011c.852 0 1.668.34 2.267.942l.698.698A1.2 1.2 0 0 0 15.82 4h1a3.2 3.2 0 0 1 3.2 3.2v1c0 .316.126.62.347.843l.698.698a3.2 3.2 0 0 1 .002 4.536l-.698.698a1.2 1.2 0 0 0-.349.845v1a3.2 3.2 0 0 1-3.2 3.2h-1a1.2 1.2 0 0 0-.843.347l-.698.698a3.2 3.2 0 0 1-4.536.002l-.698-.698a1.2 1.2 0 0 0-.845-.349h-1a3.2 3.2 0 0 1-3.2-3.2v-1a1.2 1.2 0 0 0-.347-.843l-.698-.698a3.2 3.2 0 0 1-.002-4.536l.698-.698A1.2 1.2 0 0 0 4 8.2v-1l.005-.182A3.2 3.2 0 0 1 7.2 4h1a1.2 1.2 0 0 0 .843-.347l.698-.698a3.2 3.2 0 0 1 2.269-.944M14.5 13a1.5 1.5 0 1 0 0 3a1.5 1.5 0 0 0 0-3m1.207-4.707a1 1 0 0 0-1.414 0l-6 6a1 1 0 0 0 1.414 1.414l6-6a1 1 0 0 0 0-1.414M9.5 8a1.5 1.5 0 1 0 0 3a1.5 1.5 0 0 0 0-3"/></symbol><symbol id="hd-icon-tabler-rosette-discount-off" viewBox="0 0 24 24"><g fill="none" stroke="currentColor" stroke-linecap="round" stroke-linejoin="round" stroke-width="2"><path d="m9 15l3-3m2-2l1-1m-5.852.145A.498.498 0 0 0 9.5 10a.5.5 0 0 0 .35-.142m4.298 4.287A.498.498 0 0 0 14.5 15a.5.5 0 0 0 .35-.142"/><path d="M8.887 4.89a2.2 2.2 0 0 0 .863-.53l.7-.7a2.2 2.2 0 0 1 3.12 0l.7.7c.412.41.97.64 1.55.64h1a2.2 2.2 0 0 1 2.2 2.2v1c0 .58.23 1.138.64 1.55l.7.7a2.2 2.2 0 0 1 0 3.12l-.7.7a2.2 2.2 0 0 0-.528.858m-.757 3.248a2.2 2.2 0 0 1-1.555.644h-1a2.2 2.2 0 0 0-1.55.64l-.7.7a2.2 2.2 0 0 1-3.12 0l-.7-.7a2.2 2.2 0 0 0-1.55-.64h-1a2.2 2.2 0 0 1-2.2-2.2v-1a2.2 2.2 0 0 0-.64-1.55l-.7-.7a2.2 2.2 0 0 1 0-3.12l.7-.7A2.2 2.2 0 0 0 5 8.2v-1c0-.604.244-1.152.638-1.55M3 3l18 18"/></g></symbol><symbol id="hd-icon-tabler-rosette-filled" viewBox="0 0 24 24"><path fill="currentColor" d="M12.01 2.011a3.2 3.2 0 0 1 2.113.797l.154.145l.698.698a1.2 1.2 0 0 0 .71.341L15.82 4h1a3.2 3.2 0 0 1 3.195 3.018l.005.182v1c0 .27.092.533.258.743l.09.1l.697.698a3.2 3.2 0 0 1 .147 4.382l-.145.154l-.698.698a1.2 1.2 0 0 0-.341.71l-.008.135v1a3.2 3.2 0 0 1-3.018 3.195l-.182.005h-1a1.2 1.2 0 0 0-.743.258l-.1.09l-.698.697a3.2 3.2 0 0 1-4.382.147l-.154-.145l-.698-.698a1.2 1.2 0 0 0-.71-.341L8.2 20.02h-1a3.2 3.2 0 0 1-3.195-3.018L4 16.82v-1a1.2 1.2 0 0 0-.258-.743l-.09-.1l-.697-.698a3.2 3.2 0 0 1-.147-4.382l.145-.154l.698-.698a1.2 1.2 0 0 0 .341-.71L4 8.2v-1l.005-.182a3.2 3.2 0 0 1 3.013-3.013L7.2 4h1a1.2 1.2 0 0 0 .743-.258l.1-.09l.698-.697a3.2 3.2 0 0 1 2.269-.944"/></symbol><symbol id="hd-icon-tabler-rosette-number-0" viewBox="0 0 24 24"><g fill="none" stroke="currentColor" stroke-linecap="round" stroke-linejoin="round" stroke-width="2"><path d="M10 10v4a2 2 0 1 0 4 0v-4a2 2 0 1 0-4 0"/><path d="M5 7.2A2.2 2.2 0 0 1 7.2 5h1a2.2 2.2 0 0 0 1.55-.64l.7-.7a2.2 2.2 0 0 1 3.12 0l.7.7c.412.41.97.64 1.55.64h1a2.2 2.2 0 0 1 2.2 2.2v1c0 .58.23 1.138.64 1.55l.7.7a2.2 2.2 0 0 1 0 3.12l-.7.7a2.2 2.2 0 0 0-.64 1.55v1a2.2 2.2 0 0 1-2.2 2.2h-1a2.2 2.2 0 0 0-1.55.64l-.7.7a2.2 2.2 0 0 1-3.12 0l-.7-.7a2.2 2.2 0 0 0-1.55-.64h-1a2.2 2.2 0 0 1-2.2-2.2v-1a2.2 2.2 0 0 0-.64-1.55l-.7-.7a2.2 2.2 0 0 1 0-3.12l.7-.7A2.2 2.2 0 0 0 5 8.2z"/></g></symbol><symbol id="hd-icon-tabler-rosette-number-1" viewBox="0 0 24 24"><g fill="none" stroke="currentColor" stroke-linecap="round" stroke-linejoin="round" stroke-width="2"><path d="m10 10l2-2v8"/><path d="M5 7.2A2.2 2.2 0 0 1 7.2 5h1a2.2 2.2 0 0 0 1.55-.64l.7-.7a2.2 2.2 0 0 1 3.12 0l.7.7c.412.41.97.64 1.55.64h1a2.2 2.2 0 0 1 2.2 2.2v1c0 .58.23 1.138.64 1.55l.7.7a2.2 2.2 0 0 1 0 3.12l-.7.7a2.2 2.2 0 0 0-.64 1.55v1a2.2 2.2 0 0 1-2.2 2.2h-1a2.2 2.2 0 0 0-1.55.64l-.7.7a2.2 2.2 0 0 1-3.12 0l-.7-.7a2.2 2.2 0 0 0-1.55-.64h-1a2.2 2.2 0 0 1-2.2-2.2v-1a2.2 2.2 0 0 0-.64-1.55l-.7-.7a2.2 2.2 0 0 1 0-3.12l.7-.7A2.2 2.2 0 0 0 5 8.2z"/></g></symbol><symbol id="hd-icon-tabler-rosette-number-2" viewBox="0 0 24 24"><g fill="none" stroke="currentColor" stroke-linecap="round" stroke-linejoin="round" stroke-width="2"><path d="M10 8h3a1 1 0 0 1 1 1v2a1 1 0 0 1-1 1h-2a1 1 0 0 0-1 1v2a1 1 0 0 0 1 1h3"/><path d="M5 7.2A2.2 2.2 0 0 1 7.2 5h1a2.2 2.2 0 0 0 1.55-.64l.7-.7a2.2 2.2 0 0 1 3.12 0l.7.7c.412.41.97.64 1.55.64h1a2.2 2.2 0 0 1 2.2 2.2v1c0 .58.23 1.138.64 1.55l.7.7a2.2 2.2 0 0 1 0 3.12l-.7.7a2.2 2.2 0 0 0-.64 1.55v1a2.2 2.2 0 0 1-2.2 2.2h-1a2.2 2.2 0 0 0-1.55.64l-.7.7a2.2 2.2 0 0 1-3.12 0l-.7-.7a2.2 2.2 0 0 0-1.55-.64h-1a2.2 2.2 0 0 1-2.2-2.2v-1a2.2 2.2 0 0 0-.64-1.55l-.7-.7a2.2 2.2 0 0 1 0-3.12l.7-.7A2.2 2.2 0 0 0 5 8.2z"/></g></symbol><symbol id="hd-icon-tabler-rosette-number-3" viewBox="0 0 24 24"><g fill="none" stroke="currentColor" stroke-linecap="round" stroke-linejoin="round" stroke-width="2"><path d="M10 9a1 1 0 0 1 1-1h2a1 1 0 0 1 1 1v2a1 1 0 0 1-1 1h-2h2a1 1 0 0 1 1 1v2a1 1 0 0 1-1 1h-2a1 1 0 0 1-1-1"/><path d="M5 7.2A2.2 2.2 0 0 1 7.2 5h1a2.2 2.2 0 0 0 1.55-.64l.7-.7a2.2 2.2 0 0 1 3.12 0l.7.7c.412.41.97.64 1.55.64h1a2.2 2.2 0 0 1 2.2 2.2v1c0 .58.23 1.138.64 1.55l.7.7a2.2 2.2 0 0 1 0 3.12l-.7.7a2.2 2.2 0 0 0-.64 1.55v1a2.2 2.2 0 0 1-2.2 2.2h-1a2.2 2.2 0 0 0-1.55.64l-.7.7a2.2 2.2 0 0 1-3.12 0l-.7-.7a2.2 2.2 0 0 0-1.55-.64h-1a2.2 2.2 0 0 1-2.2-2.2v-1a2.2 2.2 0 0 0-.64-1.55l-.7-.7a2.2 2.2 0 0 1 0-3.12l.7-.7A2.2 2.2 0 0 0 5 8.2z"/></g></symbol><symbol id="hd-icon-tabler-rosette-number-4" viewBox="0 0 24 24"><g fill="none" stroke="currentColor" stroke-linecap="round" stroke-linejoin="round" stroke-width="2"><path d="M10 8v3a1 1 0 0 0 1 1h3m0-4v8"/><path d="M5 7.2A2.2 2.2 0 0 1 7.2 5h1a2.2 2.2 0 0 0 1.55-.64l.7-.7a2.2 2.2 0 0 1 3.12 0l.7.7c.412.41.97.64 1.55.64h1a2.2 2.2 0 0 1 2.2 2.2v1c0 .58.23 1.138.64 1.55l.7.7a2.2 2.2 0 0 1 0 3.12l-.7.7a2.2 2.2 0 0 0-.64 1.55v1a2.2 2.2 0 0 1-2.2 2.2h-1a2.2 2.2 0 0 0-1.55.64l-.7.7a2.2 2.2 0 0 1-3.12 0l-.7-.7a2.2 2.2 0 0 0-1.55-.64h-1a2.2 2.2 0 0 1-2.2-2.2v-1a2.2 2.2 0 0 0-.64-1.55l-.7-.7a2.2 2.2 0 0 1 0-3.12l.7-.7A2.2 2.2 0 0 0 5 8.2z"/></g></symbol><symbol id="hd-icon-tabler-rosette-number-5" viewBox="0 0 24 24"><g fill="none" stroke="currentColor" stroke-linecap="round" stroke-linejoin="round" stroke-width="2"><path d="M10 15a1 1 0 0 0 1 1h2a1 1 0 0 0 1-1v-2a1 1 0 0 0-1-1h-3V8h4"/><path d="M5 7.2A2.2 2.2 0 0 1 7.2 5h1a2.2 2.2 0 0 0 1.55-.64l.7-.7a2.2 2.2 0 0 1 3.12 0l.7.7c.412.41.97.64 1.55.64h1a2.2 2.2 0 0 1 2.2 2.2v1c0 .58.23 1.138.64 1.55l.7.7a2.2 2.2 0 0 1 0 3.12l-.7.7a2.2 2.2 0 0 0-.64 1.55v1a2.2 2.2 0 0 1-2.2 2.2h-1a2.2 2.2 0 0 0-1.55.64l-.7.7a2.2 2.2 0 0 1-3.12 0l-.7-.7a2.2 2.2 0 0 0-1.55-.64h-1a2.2 2.2 0 0 1-2.2-2.2v-1a2.2 2.2 0 0 0-.64-1.55l-.7-.7a2.2 2.2 0 0 1 0-3.12l.7-.7A2.2 2.2 0 0 0 5 8.2z"/></g></symbol><symbol id="hd-icon-tabler-rosette-number-6" viewBox="0 0 24 24"><g fill="none" stroke="currentColor" stroke-linecap="round" stroke-linejoin="round" stroke-width="2"><path d="M14 9a1 1 0 0 0-1-1h-2a1 1 0 0 0-1 1v6a1 1 0 0 0 1 1h2a1 1 0 0 0 1-1v-2a1 1 0 0 0-1-1h-3"/><path d="M5 7.2A2.2 2.2 0 0 1 7.2 5h1a2.2 2.2 0 0 0 1.55-.64l.7-.7a2.2 2.2 0 0 1 3.12 0l.7.7c.412.41.97.64 1.55.64h1a2.2 2.2 0 0 1 2.2 2.2v1c0 .58.23 1.138.64 1.55l.7.7a2.2 2.2 0 0 1 0 3.12l-.7.7a2.2 2.2 0 0 0-.64 1.55v1a2.2 2.2 0 0 1-2.2 2.2h-1a2.2 2.2 0 0 0-1.55.64l-.7.7a2.2 2.2 0 0 1-3.12 0l-.7-.7a2.2 2.2 0 0 0-1.55-.64h-1a2.2 2.2 0 0 1-2.2-2.2v-1a2.2 2.2 0 0 0-.64-1.55l-.7-.7a2.2 2.2 0 0 1 0-3.12l.7-.7A2.2 2.2 0 0 0 5 8.2z"/></g></symbol><symbol id="hd-icon-tabler-rosette-number-7" viewBox="0 0 24 24"><g fill="none" stroke="currentColor" stroke-linecap="round" stroke-linejoin="round" stroke-width="2"><path d="M10 8h4l-2 8"/><path d="M5 7.2A2.2 2.2 0 0 1 7.2 5h1a2.2 2.2 0 0 0 1.55-.64l.7-.7a2.2 2.2 0 0 1 3.12 0l.7.7c.412.41.97.64 1.55.64h1a2.2 2.2 0 0 1 2.2 2.2v1c0 .58.23 1.138.64 1.55l.7.7a2.2 2.2 0 0 1 0 3.12l-.7.7a2.2 2.2 0 0 0-.64 1.55v1a2.2 2.2 0 0 1-2.2 2.2h-1a2.2 2.2 0 0 0-1.55.64l-.7.7a2.2 2.2 0 0 1-3.12 0l-.7-.7a2.2 2.2 0 0 0-1.55-.64h-1a2.2 2.2 0 0 1-2.2-2.2v-1a2.2 2.2 0 0 0-.64-1.55l-.7-.7a2.2 2.2 0 0 1 0-3.12l.7-.7A2.2 2.2 0 0 0 5 8.2z"/></g></symbol><symbol id="hd-icon-tabler-rosette-number-8" viewBox="0 0 24 24"><g fill="none" stroke="currentColor" stroke-linecap="round" stroke-linejoin="round" stroke-width="2"><path d="M12 12h-1a1 1 0 0 1-1-1V9a1 1 0 0 1 1-1h2a1 1 0 0 1 1 1v2a1 1 0 0 1-1 1h-2a1 1 0 0 0-1 1v2a1 1 0 0 0 1 1h2a1 1 0 0 0 1-1v-2a1 1 0 0 0-1-1"/><path d="M5 7.2A2.2 2.2 0 0 1 7.2 5h1a2.2 2.2 0 0 0 1.55-.64l.7-.7a2.2 2.2 0 0 1 3.12 0l.7.7c.412.41.97.64 1.55.64h1a2.2 2.2 0 0 1 2.2 2.2v1c0 .58.23 1.138.64 1.55l.7.7a2.2 2.2 0 0 1 0 3.12l-.7.7a2.2 2.2 0 0 0-.64 1.55v1a2.2 2.2 0 0 1-2.2 2.2h-1a2.2 2.2 0 0 0-1.55.64l-.7.7a2.2 2.2 0 0 1-3.12 0l-.7-.7a2.2 2.2 0 0 0-1.55-.64h-1a2.2 2.2 0 0 1-2.2-2.2v-1a2.2 2.2 0 0 0-.64-1.55l-.7-.7a2.2 2.2 0 0 1 0-3.12l.7-.7A2.2 2.2 0 0 0 5 8.2z"/></g></symbol><symbol id="hd-icon-tabler-rosette-number-9" viewBox="0 0 24 24"><g fill="none" stroke="currentColor" stroke-linecap="round" stroke-linejoin="round" stroke-width="2"><path d="M10 15a1 1 0 0 0 1 1h2a1 1 0 0 0 1-1V9a1 1 0 0 0-1-1h-2a1 1 0 0 0-1 1v2a1 1 0 0 0 1 1h3"/><path d="M5 7.2A2.2 2.2 0 0 1 7.2 5h1a2.2 2.2 0 0 0 1.55-.64l.7-.7a2.2 2.2 0 0 1 3.12 0l.7.7c.412.41.97.64 1.55.64h1a2.2 2.2 0 0 1 2.2 2.2v1c0 .58.23 1.138.64 1.55l.7.7a2.2 2.2 0 0 1 0 3.12l-.7.7a2.2 2.2 0 0 0-.64 1.55v1a2.2 2.2 0 0 1-2.2 2.2h-1a2.2 2.2 0 0 0-1.55.64l-.7.7a2.2 2.2 0 0 1-3.12 0l-.7-.7a2.2 2.2 0 0 0-1.55-.64h-1a2.2 2.2 0 0 1-2.2-2.2v-1a2.2 2.2 0 0 0-.64-1.55l-.7-.7a2.2 2.2 0 0 1 0-3.12l.7-.7A2.2 2.2 0 0 0 5 8.2z"/></g></symbol><symbol id="hd-icon-tabler-rotate" viewBox="0 0 24 24"><path fill="none" stroke="currentColor" stroke-linecap="round" stroke-linejoin="round" stroke-width="2" d="M19.95 11a8 8 0 1 0-.5 4m.5 5v-5h-5"/></symbol><symbol id="hd-icon-tabler-rotate-2" viewBox="0 0 24 24"><path fill="none" stroke="currentColor" stroke-linecap="round" stroke-linejoin="round" stroke-width="2" d="M15 4.55a8 8 0 0 0-6 14.9M9 15v5H4M18.37 7.16v.01M13 19.94v.01m3.84-1.58v.01m2.53-3.28v.01m.57-4.11v.01"/></symbol><symbol id="hd-icon-tabler-rotate-360" viewBox="0 0 24 24"><g fill="none" stroke="currentColor" stroke-linecap="round" stroke-linejoin="round" stroke-width="2"><path d="M12 16h4v4"/><path d="M19.458 11.042c.86-2.366.722-4.58-.6-5.9c-2.272-2.274-7.185-1.045-10.973 2.743s-5.017 8.701-2.744 10.974c2.227 2.226 6.987 1.093 10.74-2.515"/></g></symbol><symbol id="hd-icon-tabler-rotate-3d" viewBox="0 0 24 24"><g fill="none" stroke="currentColor" stroke-linecap="round" stroke-linejoin="round" stroke-width="2"><path d="M12 3a7 7 0 0 1 7 7v4l-3-3m6 0l-3 3M8 15.5l-5-3l5-3l5 3V18l-5 3z"/><path d="M3 12.5V18l5 3m0-5.455l5-3.03"/></g></symbol><symbol id="hd-icon-tabler-rotate-clockwise" viewBox="0 0 24 24"><path fill="none" stroke="currentColor" stroke-linecap="round" stroke-linejoin="round" stroke-width="2" d="M4.05 11a8 8 0 1 1 .5 4m-.5 5v-5h5"/></symbol><symbol id="hd-icon-tabler-rotate-clockwise-2" viewBox="0 0 24 24"><path fill="none" stroke="currentColor" stroke-linecap="round" stroke-linejoin="round" stroke-width="2" d="M9 4.55a8 8 0 0 1 6 14.9M15 15v5h5M5.63 7.16v.01M4.06 11v.01m.57 4.09v.01m2.53 3.26v.01M11 19.94v.01"/></symbol><symbol id="hd-icon-tabler-rotate-dot" viewBox="0 0 24 24"><g fill="none" stroke="currentColor" stroke-linecap="round" stroke-linejoin="round" stroke-width="2"><path d="M19.95 11a8 8 0 1 0-.5 4m.5 5v-5h-5"/><path d="M11 12a1 1 0 1 0 2 0a1 1 0 1 0-2 0"/></g></symbol><symbol id="hd-icon-tabler-rotate-rectangle" viewBox="0 0 24 24"><path fill="none" stroke="currentColor" stroke-linecap="round" stroke-linejoin="round" stroke-width="2" d="m10.09 4.01l.496-.495a2 2 0 0 1 2.828 0l7.071 7.07a2 2 0 0 1 0 2.83l-7.07 7.07a2 2 0 0 1-2.83 0l-7.07-7.07a2 2 0 0 1 0-2.83L7.05 7.05H3.062m3.988 3.988V7.05"/></symbol><symbol id="hd-icon-tabler-route" viewBox="0 0 24 24"><path fill="none" stroke="currentColor" stroke-linecap="round" stroke-linejoin="round" stroke-width="2" d="M3 19a2 2 0 1 0 4 0a2 2 0 0 0-4 0M19 7a2 2 0 1 0 0-4a2 2 0 0 0 0 4m-8 12h5.5a3.5 3.5 0 0 0 0-7h-8a3.5 3.5 0 0 1 0-7H13"/></symbol><symbol id="hd-icon-tabler-route-2" viewBox="0 0 24 24"><path fill="none" stroke="currentColor" stroke-linecap="round" stroke-linejoin="round" stroke-width="2" d="M3 19a2 2 0 1 0 4 0a2 2 0 0 0-4 0M19 7a2 2 0 1 0 0-4a2 2 0 0 0 0 4m-5-2a2 2 0 0 0-2 2v10a2 2 0 0 1-2 2"/></symbol><symbol id="hd-icon-tabler-route-alt-left" viewBox="0 0 24 24"><g fill="none" stroke="currentColor" stroke-linecap="round" stroke-linejoin="round" stroke-width="2"><path d="M8 3H3v5m13-5h5v5"/><path d="m3 3l7.536 7.536A5 5 0 0 1 12 14.07V21m6-14.99V6m-2 2.02v-.01M14 10v.01"/></g></symbol><symbol id="hd-icon-tabler-route-alt-right" viewBox="0 0 24 24"><g fill="none" stroke="currentColor" stroke-linecap="round" stroke-linejoin="round" stroke-width="2"><path d="M16 3h5v5M8 3H3v5"/><path d="m21 3l-7.536 7.536A5 5 0 0 0 12 14.07V21M6 6.01V6m2 2.02v-.01M10 10v.01"/></g></symbol><symbol id="hd-icon-tabler-route-off" viewBox="0 0 24 24"><path fill="none" stroke="currentColor" stroke-linecap="round" stroke-linejoin="round" stroke-width="2" d="M4 19a2 2 0 1 0 4 0a2 2 0 1 0-4 0M16 5a2 2 0 1 0 4 0a2 2 0 1 0-4 0m-4 14h4.5c.71 0 1.372-.212 1.924-.576m1.545-2.459A3.5 3.5 0 0 0 16.5 12h-.499m-4 0H8.5a3.5 3.5 0 0 1-2.477-5.972M8.5 5H12M3 3l18 18"/></symbol><symbol id="hd-icon-tabler-route-scan" viewBox="0 0 24 24"><g fill="none" stroke="currentColor" stroke-linecap="round" stroke-linejoin="round" stroke-width="2"><path d="M4 8V6a2 2 0 0 1 2-2h2M4 16v2a2 2 0 0 0 2 2h2m8-16h2a2 2 0 0 1 2 2v2m-4 12h2a2 2 0 0 0 2-2v-2M7 12V9h3m4 0h3v3"/><path d="m7 9l4.414 4.414A2 2 0 0 1 12 14.828V17m5-8l-4.414 4.414A2 2 0 0 0 12 14.828V17"/></g></symbol><symbol id="hd-icon-tabler-route-square" viewBox="0 0 24 24"><path fill="none" stroke="currentColor" stroke-linecap="round" stroke-linejoin="round" stroke-width="2" d="M3 17h4v4H3zM17 3h4v4h-4zm-6 16h5.5a3.5 3.5 0 0 0 0-7h-8a3.5 3.5 0 0 1 0-7H13"/></symbol><symbol id="hd-icon-tabler-route-square-2" viewBox="0 0 24 24"><path fill="none" stroke="currentColor" stroke-linecap="round" stroke-linejoin="round" stroke-width="2" d="M14 5a2 2 0 0 0-2 2v10a2 2 0 0 1-2 2m-7-2h4v4H3zM17 3h4v4h-4z"/></symbol><symbol id="hd-icon-tabler-route-x" viewBox="0 0 24 24"><path fill="none" stroke="currentColor" stroke-linecap="round" stroke-linejoin="round" stroke-width="2" d="m3 17l4 4m0-4l-4 4M17 3l4 4m0-4l-4 4m-6 12h5.5a3.5 3.5 0 0 0 0-7h-8a3.5 3.5 0 0 1 0-7H13"/></symbol><symbol id="hd-icon-tabler-route-x-2" viewBox="0 0 24 24"><path fill="none" stroke="currentColor" stroke-linecap="round" stroke-linejoin="round" stroke-width="2" d="m3 17l4 4m0-4l-4 4M17 3l4 4m0-4l-4 4m-3-2a2 2 0 0 0-2 2v10a2 2 0 0 1-2 2"/></symbol><symbol id="hd-icon-tabler-router" viewBox="0 0 24 24"><path fill="none" stroke="currentColor" stroke-linecap="round" stroke-linejoin="round" stroke-width="2" d="M3 15a2 2 0 0 1 2-2h14a2 2 0 0 1 2 2v4a2 2 0 0 1-2 2H5a2 2 0 0 1-2-2zm14 2v.01M13 17v.01M15 13v-2m-3.25-2.25a4 4 0 0 1 6.5 0M8.5 6.5a8 8 0 0 1 13 0"/></symbol><symbol id="hd-icon-tabler-router-off" viewBox="0 0 24 24"><path fill="none" stroke="currentColor" stroke-linecap="round" stroke-linejoin="round" stroke-width="2" d="M17 13h2a2 2 0 0 1 2 2v2m-.588 3.417c-.362.36-.861.583-1.412.583H5a2 2 0 0 1-2-2v-4a2 2 0 0 1 2-2h8m4 4v.01M13 17v.01m-.774-8.81a4 4 0 0 1 6.024.55M9.445 5.407A8 8 0 0 1 21.5 6.5M3 3l18 18"/></symbol><symbol id="hd-icon-tabler-row-insert-bottom" viewBox="0 0 24 24"><path fill="none" stroke="currentColor" stroke-linecap="round" stroke-linejoin="round" stroke-width="2" d="M20 6v4a1 1 0 0 1-1 1H5a1 1 0 0 1-1-1V6a1 1 0 0 1 1-1h14a1 1 0 0 1 1 1m-8 9v4m2-2h-4"/></symbol><symbol id="hd-icon-tabler-row-insert-top" viewBox="0 0 24 24"><path fill="none" stroke="currentColor" stroke-linecap="round" stroke-linejoin="round" stroke-width="2" d="M4 18v-4a1 1 0 0 1 1-1h14a1 1 0 0 1 1 1v4a1 1 0 0 1-1 1H5a1 1 0 0 1-1-1m8-9V5m-2 2h4"/></symbol><symbol id="hd-icon-tabler-row-remove" viewBox="0 0 24 24"><path fill="none" stroke="currentColor" stroke-linecap="round" stroke-linejoin="round" stroke-width="2" d="M20 6v4a1 1 0 0 1-1 1H5a1 1 0 0 1-1-1V6a1 1 0 0 1 1-1h14a1 1 0 0 1 1 1M10 16l4 4m-4 0l4-4"/></symbol><symbol id="hd-icon-tabler-rss" viewBox="0 0 24 24"><path fill="none" stroke="currentColor" stroke-linecap="round" stroke-linejoin="round" stroke-width="2" d="M4 19a1 1 0 1 0 2 0a1 1 0 1 0-2 0M4 4a16 16 0 0 1 16 16M4 11a9 9 0 0 1 9 9"/></symbol><symbol id="hd-icon-tabler-rubber-stamp" viewBox="0 0 24 24"><path fill="none" stroke="currentColor" stroke-linecap="round" stroke-linejoin="round" stroke-width="2" d="M21 17.85H3c0-4.05 1.421-4.05 3.79-4.05C12 13.8 8 9.21 8 7a4 4 0 1 1 8 0c0 2.21-4 6.8 1.21 6.8c2.369 0 3.79 0 3.79 4.05M5 21h14"/></symbol><symbol id="hd-icon-tabler-rubber-stamp-off" viewBox="0 0 24 24"><path fill="none" stroke="currentColor" stroke-linecap="round" stroke-linejoin="round" stroke-width="2" d="M8.273 8.273c.805 2.341 2.857 5.527-1.484 5.527C4.421 13.8 3 13.8 3 17.85h14.85M5 21h14M3 3l18 18M8.712 4.722A3.99 3.99 0 0 1 12 3a4 4 0 0 1 4 4c0 .992-.806 2.464-1.223 3.785m6.198 6.196c-.182-2.883-1.332-3.153-3.172-3.178"/></symbol><symbol id="hd-icon-tabler-ruler" viewBox="0 0 24 24"><path fill="none" stroke="currentColor" stroke-linecap="round" stroke-linejoin="round" stroke-width="2" d="M5 4h14a1 1 0 0 1 1 1v5a1 1 0 0 1-1 1h-7a1 1 0 0 0-1 1v7a1 1 0 0 1-1 1H5a1 1 0 0 1-1-1V5a1 1 0 0 1 1-1M4 8h2m-2 4h3m-3 4h2M8 4v2m4-2v3m4-3v2"/></symbol><symbol id="hd-icon-tabler-ruler-2" viewBox="0 0 24 24"><path fill="none" stroke="currentColor" stroke-linecap="round" stroke-linejoin="round" stroke-width="2" d="m17 3l4 4L7 21l-4-4zm-1 4l-1.5-1.5M13 10l-1.5-1.5M10 13l-1.5-1.5M7 16l-1.5-1.5"/></symbol><symbol id="hd-icon-tabler-ruler-2-off" viewBox="0 0 24 24"><path fill="none" stroke="currentColor" stroke-linecap="round" stroke-linejoin="round" stroke-width="2" d="M12.03 7.97L17 3l4 4l-5 5m-2 2l-7 7l-4-4l7-7m6-3l-1.5-1.5M10 13l-1.5-1.5M7 16l-1.5-1.5M3 3l18 18"/></symbol><symbol id="hd-icon-tabler-ruler-3" viewBox="0 0 24 24"><path fill="none" stroke="currentColor" stroke-linecap="round" stroke-linejoin="round" stroke-width="2" d="M19.875 8C20.496 8 21 8.512 21 9.143v5.714c0 .631-.504 1.143-1.125 1.143H4a1 1 0 0 1-1-1V9.143C3 8.512 3.504 8 4.125 8zM9 8v2M6 8v3m6-3v3m6-3v3m-3-3v2"/></symbol><symbol id="hd-icon-tabler-ruler-measure" viewBox="0 0 24 24"><path fill="none" stroke="currentColor" stroke-linecap="round" stroke-linejoin="round" stroke-width="2" d="M19.875 12c.621 0 1.125.512 1.125 1.143v5.714c0 .631-.504 1.143-1.125 1.143H4a1 1 0 0 1-1-1v-5.857C3 12.512 3.504 12 4.125 12zM9 12v2m-3-2v3m6-3v3m6-3v3m-3-3v2M3 3v4m0-2h18m0-2v4"/></symbol><symbol id="hd-icon-tabler-ruler-measure-2" viewBox="0 0 24 24"><path fill="none" stroke="currentColor" stroke-linecap="round" stroke-linejoin="round" stroke-width="2" d="M12 19.875c0 .621-.512 1.125-1.143 1.125H5.143A1.134 1.134 0 0 1 4 19.875V4a1 1 0 0 1 1-1h5.857C11.488 3 12 3.504 12 4.125zM12 9h-2m2-3H9m3 6H9m3 6H9m3-3h-2M21 3h-4m2 0v18m2 0h-4"/></symbol><symbol id="hd-icon-tabler-ruler-off" viewBox="0 0 24 24"><path fill="none" stroke="currentColor" stroke-linecap="round" stroke-linejoin="round" stroke-width="2" d="M8 4h11a1 1 0 0 1 1 1v5a1 1 0 0 1-1 1h-4m-3.713.299A1 1 0 0 0 11 12v7a1 1 0 0 1-1 1H5a1 1 0 0 1-1-1V5c0-.284.118-.54.308-.722M4 8h2m-2 4h3m-3 4h2m6-12v3m4-3v2M3 3l18 18"/></symbol><symbol id="hd-icon-tabler-run" viewBox="0 0 24 24"><g fill="none" stroke="currentColor" stroke-linecap="round" stroke-linejoin="round" stroke-width="2"><path d="M12 4a1 1 0 1 0 2 0a1 1 0 1 0-2 0M4 17l5 1l.75-1.5M15 21v-4l-4-3l1-6"/><path d="M7 12V9l5-1l3 3l3 1"/></g></symbol><symbol id="hd-icon-tabler-rv-truck" viewBox="0 0 24 24"><g fill="none" stroke="currentColor" stroke-linecap="round" stroke-linejoin="round" stroke-width="2"><path d="M5 17a2 2 0 1 0 4 0a2 2 0 1 0-4 0m10 0a2 2 0 1 0 4 0a2 2 0 1 0-4 0m-6 0h6"/><path d="M19 17h1a1 1 0 0 0 1-1v-4.528a2 2 0 0 0-.211-.894l-.96-1.92A3 3 0 0 0 17.146 7H6a3 3 0 0 0-3 3v6a1 1 0 0 0 1 1h1m-2-5h18m-6 0V7M6 5.5A1.5 1.5 0 0 1 7.5 4h7A1.5 1.5 0 0 1 16 5.5A1.5 1.5 0 0 1 14.5 7h-7A1.5 1.5 0 0 1 6 5.5"/></g></symbol><symbol id="hd-icon-tabler-s-turn-down" viewBox="0 0 24 24"><g fill="none" stroke="currentColor" stroke-linecap="round" stroke-linejoin="round" stroke-width="2"><path d="M7 5a2 2 0 1 1-4 0a2 2 0 0 1 4 0"/><path d="M5 7v9.5a3.5 3.5 0 0 0 7 0v-9a3.5 3.5 0 0 1 7 0V21"/><path d="m16 18l3 3l3-3"/></g></symbol><symbol id="hd-icon-tabler-s-turn-left" viewBox="0 0 24 24"><g fill="none" stroke="currentColor" stroke-linecap="round" stroke-linejoin="round" stroke-width="2"><path d="M19 7a2 2 0 1 1 0-4a2 2 0 0 1 0 4"/><path d="M17 5H7.5a3.5 3.5 0 0 0 0 7h9a3.5 3.5 0 0 1 0 7H3"/><path d="m6 16l-3 3l3 3"/></g></symbol><symbol id="hd-icon-tabler-s-turn-right" viewBox="0 0 24 24"><g fill="none" stroke="currentColor" stroke-linecap="round" stroke-linejoin="round" stroke-width="2"><path d="M3 5a2 2 0 1 0 4 0a2 2 0 1 0-4 0"/><path d="M7 5h9.5a3.5 3.5 0 0 1 0 7h-9a3.5 3.5 0 0 0 0 7H21"/><path d="m18 16l3 3l-3 3"/></g></symbol><symbol id="hd-icon-tabler-s-turn-up" viewBox="0 0 24 24"><g fill="none" stroke="currentColor" stroke-linecap="round" stroke-linejoin="round" stroke-width="2"><path d="M7 19a2 2 0 1 0-4 0a2 2 0 0 0 4 0"/><path d="M5 17V7.5a3.5 3.5 0 0 1 7 0v9a3.5 3.5 0 0 0 7 0V3"/><path d="m16 6l3-3l3 3"/></g></symbol><symbol id="hd-icon-tabler-sailboat" viewBox="0 0 24 24"><path fill="none" stroke="currentColor" stroke-linecap="round" stroke-linejoin="round" stroke-width="2" d="M2 20a2.4 2.4 0 0 0 2 1a2.4 2.4 0 0 0 2-1a2.4 2.4 0 0 1 2-1a2.4 2.4 0 0 1 2 1a2.4 2.4 0 0 0 2 1a2.4 2.4 0 0 0 2-1a2.4 2.4 0 0 1 2-1a2.4 2.4 0 0 1 2 1a2.4 2.4 0 0 0 2 1a2.4 2.4 0 0 0 2-1M4 18l-1-3h18l-1 3m-9-6h7l-7-9zM8 7l-2 5"/></symbol><symbol id="hd-icon-tabler-sailboat-2" viewBox="0 0 24 24"><path fill="none" stroke="currentColor" stroke-linecap="round" stroke-linejoin="round" stroke-width="2" d="M2 20a2.4 2.4 0 0 0 2 1a2.4 2.4 0 0 0 2-1a2.4 2.4 0 0 1 2-1a2.4 2.4 0 0 1 2 1a2.4 2.4 0 0 0 2 1a2.4 2.4 0 0 0 2-1a2.4 2.4 0 0 1 2-1a2.4 2.4 0 0 1 2 1a2.4 2.4 0 0 0 2 1a2.4 2.4 0 0 0 2-1M4 18l-1-3h18l-1 3m-8-7v4M7 3q2 4 0 8h10q2-4 0-8M6 3h12"/></symbol><symbol id="hd-icon-tabler-sailboat-off" viewBox="0 0 24 24"><path fill="none" stroke="currentColor" stroke-linecap="round" stroke-linejoin="round" stroke-width="2" d="M2 20a2.4 2.4 0 0 0 2 1a2.4 2.4 0 0 0 2-1a2.4 2.4 0 0 1 2-1a2.4 2.4 0 0 1 2 1a2.4 2.4 0 0 0 2 1a2.4 2.4 0 0 0 2-1a2.4 2.4 0 0 1 2-1a2.4 2.4 0 0 1 2 1a2.4 2.4 0 0 0 2 1a2.4 2.4 0 0 0 2-1M4 18l-1-3h12m4 0h2l-.506 1.517M11 11v1h1m4 0h2l-7-9v4m-3.287.718L6 12M3 3l18 18"/></symbol><symbol id="hd-icon-tabler-salad" viewBox="0 0 24 24"><g fill="none" stroke="currentColor" stroke-linecap="round" stroke-linejoin="round" stroke-width="2"><path d="M4 11h16a1 1 0 0 1 1 1v.5c0 1.5-2.517 5.573-4 6.5v1a1 1 0 0 1-1 1H8a1 1 0 0 1-1-1v-1c-1.687-1.054-4-5-4-6.5V12a1 1 0 0 1 1-1m14.5 0c.351-1.017.426-2.236.5-3.714V6h-2.256c-2.83 0-4.616.804-5.64 2.076"/><path d="M5.255 11.008A12 12 0 0 1 5 9V8h1.755c.98 0 1.801.124 2.479.35M8 8l1-4l4 2.5"/><path d="M13 11v-.5a2.5 2.5 0 1 0-5 0v.5"/></g></symbol><symbol id="hd-icon-tabler-salad-filled" viewBox="0 0 24 24"><path fill="currentColor" d="m9.53 3.152l3.742 2.339Q14.764 5 16.744 5H19a1 1 0 0 1 1 1l-.001 1.336l-.05.895l-.042.585c-.037.457-.08.84-.134 1.185L20 10a2 2 0 0 1 2 2v.5c0 1.694-2.247 5.49-3.983 6.983l-.017.013V20a2 2 0 0 1-1.85 1.995L16 22H8a2 2 0 0 1-2-2v-.496l-.065-.053c-1.76-1.496-3.794-4.965-3.928-6.77L2 12.5V12a2 2 0 0 1 2-2h.078A14 14 0 0 1 4 9V8a1 1 0 0 1 1-1h1.755c.138 0 .287.034.44.092l.835-3.335a1 1 0 0 1 1.5-.605M7.337 8.999L6.002 9l.027.42q.025.292.064.58h.942q.078-.533.302-1.001M18 7h-1.256c-1.712 0-3.003.31-3.922.88A3.5 3.5 0 0 1 13.965 10h3.774c.127-.615.194-1.4.261-2.714zm-7.5 2a1.5 1.5 0 0 0-1.414 1h2.828a1.5 1.5 0 0 0-.845-.888l-.166-.056A1.5 1.5 0 0 0 10.5 9m-.864-3.424l-.415 1.665a3.5 3.5 0 0 1 1.502-.234a6 6 0 0 1 .497-.442z"/></symbol><symbol id="hd-icon-tabler-salt" viewBox="0 0 24 24"><g fill="none" stroke="currentColor" stroke-linecap="round" stroke-linejoin="round" stroke-width="2"><path d="M12 13v.01M10 16v.01m4-.01v.01M7.5 8h9l-.281-2.248A2 2 0 0 0 14.234 4H9.766A2 2 0 0 0 7.78 5.752z"/><path d="m7.5 8l-1.612 9.671A2 2 0 0 0 7.861 20h8.278a2 2 0 0 0 1.973-2.329L16.5 8"/></g></symbol><symbol id="hd-icon-tabler-sandbox" viewBox="0 0 24 24"><g fill="none" stroke="currentColor" stroke-linecap="round" stroke-linejoin="round" stroke-width="2"><path d="M19.953 8.017L21 15v2a3 3 0 0 1-3 3H6a3 3 0 0 1-3-3v-2l1.245-8.297A2 2 0 0 1 6.222 5H10M3 15h18M13 3l5.5 1.5m-2.75-.75l-2 7"/><path d="M7 10.5q2.5-1 5 0t5 0"/></g></symbol><symbol id="hd-icon-tabler-satellite" viewBox="0 0 24 24"><g fill="none" stroke="currentColor" stroke-linecap="round" stroke-linejoin="round" stroke-width="2"><path d="m3.707 6.293l2.586-2.586a1 1 0 0 1 1.414 0l5.586 5.586a1 1 0 0 1 0 1.414l-2.586 2.586a1 1 0 0 1-1.414 0L3.707 7.707a1 1 0 0 1 0-1.414"/><path d="m6 10l-3 3l3 3l3-3m1-7l3-3l3 3l-3 3m-1 3l1.5 1.5m1 3.5a2.5 2.5 0 0 0 2.5-2.5M15 21a6 6 0 0 0 6-6"/></g></symbol><symbol id="hd-icon-tabler-satellite-off" viewBox="0 0 24 24"><path fill="none" stroke="currentColor" stroke-linecap="round" stroke-linejoin="round" stroke-width="2" d="m7.707 3.707l5.586 5.586M12 12l-1.293 1.293a1 1 0 0 1-1.414 0L3.707 7.707a1 1 0 0 1 0-1.414L5 5m1 5l-3 3l3 3l3-3m1-7l3-3l3 3l-3 3m-1 3l1.5 1.5m1 3.5c.69 0 1.316-.28 1.769-.733M15 21c1.654 0 3.151-.67 4.237-1.752m1.507-2.507A6 6 0 0 0 21 15M3 3l18 18"/></symbol><symbol id="hd-icon-tabler-sausage" viewBox="0 0 24 24"><g fill="none" stroke="currentColor" stroke-linecap="round" stroke-linejoin="round" stroke-width="2"><path d="M5.5 5.5A2.5 2.5 0 0 0 3 8c0 7.18 5.82 13 13 13a2.5 2.5 0 1 0 0-5a8 8 0 0 1-8-8a2.5 2.5 0 0 0-2.5-2.5"/><path d="M5.195 5.519L3.952 3.53A1 1 0 0 1 4.8 2h1.392a1 1 0 0 1 .848 1.53L5.795 5.52m12.687 12.705l1.989-1.243a1 1 0 0 1 1.53.848v1.392a1 1 0 0 1-1.53.848l-1.991-1.245"/></g></symbol><symbol id="hd-icon-tabler-scale" viewBox="0 0 24 24"><path fill="none" stroke="currentColor" stroke-linecap="round" stroke-linejoin="round" stroke-width="2" d="M7 20h10M6 6l6-1l6 1m-6-3v17m-3-8L6 6l-3 6a3 3 0 0 0 6 0m12 0l-3-6l-3 6a3 3 0 0 0 6 0"/></symbol><symbol id="hd-icon-tabler-scale-off" viewBox="0 0 24 24"><path fill="none" stroke="currentColor" stroke-linecap="round" stroke-linejoin="round" stroke-width="2" d="M7 20h10M9.452 5.425L12 5l6 1m-6-3v5m0 4v8m-3-8L6 6l-3 6a3 3 0 0 0 6 0m9.873 2.871A3 3 0 0 0 21 12l-3-6l-2.677 5.355M3 3l18 18"/></symbol><symbol id="hd-icon-tabler-scale-outline" viewBox="0 0 24 24"><g fill="none" stroke="currentColor" stroke-linecap="round" stroke-linejoin="round" stroke-width="2"><path d="M3 7a4 4 0 0 1 4-4h10a4 4 0 0 1 4 4v10a4 4 0 0 1-4 4H7a4 4 0 0 1-4-4z"/><path d="M12 7c1.956 0 3.724.802 5 2.095l-2.956 2.904a3 3 0 0 0-2.038-.799a3 3 0 0 0-2.038.798L7.012 9.095a6.98 6.98 0 0 1 5-2.095"/></g></symbol><symbol id="hd-icon-tabler-scale-outline-off" viewBox="0 0 24 24"><g fill="none" stroke="currentColor" stroke-linecap="round" stroke-linejoin="round" stroke-width="2"><path d="M7 3h10a4 4 0 0 1 4 4v10m-1.173 2.83A4 4 0 0 1 17 21H7a4 4 0 0 1-4-4V7c0-1.104.447-2.103 1.17-2.827"/><path d="M11.062 7.062Q11.527 7 12 7c1.956 0 3.724.802 5 2.095A143 143 0 0 0 15 11m-3.723.288a3 3 0 0 0-1.315.71L7.006 9.095a7 7 0 0 1 1.142-.942M3 3l18 18"/></g></symbol><symbol id="hd-icon-tabler-scan" viewBox="0 0 24 24"><path fill="none" stroke="currentColor" stroke-linecap="round" stroke-linejoin="round" stroke-width="2" d="M4 7V6a2 2 0 0 1 2-2h2M4 17v1a2 2 0 0 0 2 2h2m8-16h2a2 2 0 0 1 2 2v1m-4 13h2a2 2 0 0 0 2-2v-1M5 12h14"/></symbol><symbol id="hd-icon-tabler-scan-eye" viewBox="0 0 24 24"><path fill="none" stroke="currentColor" stroke-linecap="round" stroke-linejoin="round" stroke-width="2" d="M4 8V6a2 2 0 0 1 2-2h2M4 16v2a2 2 0 0 0 2 2h2m8-16h2a2 2 0 0 1 2 2v2m-4 12h2a2 2 0 0 0 2-2v-2M7 12q5-7 10 0M7 12q5 7 10 0m-5 0h-.01"/></symbol><symbol id="hd-icon-tabler-scan-position" viewBox="0 0 24 24"><path fill="none" stroke="currentColor" stroke-linecap="round" stroke-linejoin="round" stroke-width="2" d="M4 7V6a2 2 0 0 1 2-2h2M4 17v1a2 2 0 0 0 2 2h2m8-16h2a2 2 0 0 1 2 2v1m-4 13h2a2 2 0 0 0 2-2v-1m-8 0l3-8l-8 3l3.5 1.5z"/></symbol><symbol id="hd-icon-tabler-schema" viewBox="0 0 24 24"><path fill="none" stroke="currentColor" stroke-linecap="round" stroke-linejoin="round" stroke-width="2" d="M5 2h5v4H5zm10 8h5v4h-5zM5 18h5v4H5zm0-8h5v4H5zm5 2h5M7.5 6v4m0 4v4"/></symbol><symbol id="hd-icon-tabler-schema-off" viewBox="0 0 24 24"><path fill="none" stroke="currentColor" stroke-linecap="round" stroke-linejoin="round" stroke-width="2" d="M6 2h4v4M6 6H5V5m10 6v-1h5v4h-2M5 18h5v4H5zm0-8h5v4H5zm5 2h2M7.5 7.5V10m0 4v4M3 3l18 18"/></symbol><symbol id="hd-icon-tabler-school" viewBox="0 0 24 24"><g fill="none" stroke="currentColor" stroke-linecap="round" stroke-linejoin="round" stroke-width="2"><path d="M22 9L12 5L2 9l10 4zv6"/><path d="M6 10.6V16a6 3 0 0 0 12 0v-5.4"/></g></symbol><symbol id="hd-icon-tabler-school-bell" viewBox="0 0 24 24"><g fill="none" stroke="currentColor" stroke-linecap="round" stroke-linejoin="round" stroke-width="2"><path d="M4 17a3 3 0 0 0 3 3m7.805-13.63l2.783-2.784a2 2 0 1 1 2.829 2.828L17.633 9.2"/><path d="M16.505 7.495a5.105 5.105 0 0 1 .176 7.035l-.176.184l-1.867 1.867a3.48 3.48 0 0 0-1.013 2.234l-.008.23v.934c0 .327-.13.64-.36.871a.51.51 0 0 1-.652.06l-.07-.06l-9.385-9.384a.51.51 0 0 1 0-.722c.198-.198.456-.322.732-.353l.139-.008h.933c.848 0 1.663-.309 2.297-.864l.168-.157l1.867-1.867l.16-.153a5.105 5.105 0 0 1 7.059.153"/></g></symbol><symbol id="hd-icon-tabler-school-off" viewBox="0 0 24 24"><g fill="none" stroke="currentColor" stroke-linecap="round" stroke-linejoin="round" stroke-width="2"><path d="M22 9L12 5l-2.136.854M7 7L2 9l10 4l.697-.279m2.878-1.151L22 9v6"/><path d="M6 10.6V16c0 1.657 2.686 3 6 3c2.334 0 4.357-.666 5.35-1.64M18 14v-3.4M3 3l18 18"/></g></symbol><symbol id="hd-icon-tabler-scissors" viewBox="0 0 24 24"><path fill="none" stroke="currentColor" stroke-linecap="round" stroke-linejoin="round" stroke-width="2" d="M3 7a3 3 0 1 0 6 0a3 3 0 1 0-6 0m0 10a3 3 0 1 0 6 0a3 3 0 1 0-6 0m5.6-8.4L19 19M8.6 15.4L19 5"/></symbol><symbol id="hd-icon-tabler-scissors-off" viewBox="0 0 24 24"><path fill="none" stroke="currentColor" stroke-linecap="round" stroke-linejoin="round" stroke-width="2" d="M4.432 4.442a3 3 0 1 0 4.114 4.146M3 17a3 3 0 1 0 6 0a3 3 0 1 0-6 0m5.6-1.6L12 12m2-2l5-5M3 3l18 18"/></symbol><symbol id="hd-icon-tabler-scooter" viewBox="0 0 24 24"><g fill="none" stroke="currentColor" stroke-linecap="round" stroke-linejoin="round" stroke-width="2"><path d="M16 17a2 2 0 1 0 4 0a2 2 0 1 0-4 0M4 17a2 2 0 1 0 4 0a2 2 0 1 0-4 0"/><path d="M8 17h5a6 6 0 0 1 5-5V7a2 2 0 0 0-2-2h-1"/></g></symbol><symbol id="hd-icon-tabler-scooter-electric" viewBox="0 0 24 24"><g fill="none" stroke="currentColor" stroke-linecap="round" stroke-linejoin="round" stroke-width="2"><path d="M16 17a2 2 0 1 0 4 0a2 2 0 1 0-4 0M4 17a2 2 0 1 0 4 0a2 2 0 1 0-4 0"/><path d="M8 17h5a6 6 0 0 1 5-5V7a2 2 0 0 0-2-2h-1m-5-1L8 8h3l-2 4"/></g></symbol><symbol id="hd-icon-tabler-scoreboard" viewBox="0 0 24 24"><g fill="none" stroke="currentColor" stroke-linecap="round" stroke-linejoin="round" stroke-width="2"><path d="M3 7a2 2 0 0 1 2-2h14a2 2 0 0 1 2 2v10a2 2 0 0 1-2 2H5a2 2 0 0 1-2-2zm9-2v2m0 3v1m0 3v1m0 3v1M7 3v2m10-2v2"/><path d="M15 10.5v3a1.5 1.5 0 0 0 3 0v-3a1.5 1.5 0 0 0-3 0M6 9h1.5a1.5 1.5 0 0 1 0 3H7h.5a1.5 1.5 0 0 1 0 3H6"/></g></symbol><symbol id="hd-icon-tabler-screen-share" viewBox="0 0 24 24"><path fill="none" stroke="currentColor" stroke-linecap="round" stroke-linejoin="round" stroke-width="2" d="M21 12v3a1 1 0 0 1-1 1H4a1 1 0 0 1-1-1V5a1 1 0 0 1 1-1h9M7 20h10m-8-4v4m6-4v4m2-16h4v4m-5 1l5-5"/></symbol><symbol id="hd-icon-tabler-screen-share-off" viewBox="0 0 24 24"><path fill="none" stroke="currentColor" stroke-linecap="round" stroke-linejoin="round" stroke-width="2" d="M21 12v3a1 1 0 0 1-1 1H4a1 1 0 0 1-1-1V5a1 1 0 0 1 1-1h9M7 20h10m-8-4v4m6-4v4m2-12l4-4m-4 0l4 4"/></symbol><symbol id="hd-icon-tabler-screenshot" viewBox="0 0 24 24"><path fill="none" stroke="currentColor" stroke-linecap="round" stroke-linejoin="round" stroke-width="2" d="M7 19a2 2 0 0 1-2-2m0-4v-2m0-4a2 2 0 0 1 2-2m4 0h2m4 0a2 2 0 0 1 2 2m0 4v2m0 4v4m2-2h-4m-4 0h-2"/></symbol><symbol id="hd-icon-tabler-scribble" viewBox="0 0 24 24"><path fill="none" stroke="currentColor" stroke-linecap="round" stroke-linejoin="round" stroke-width="2" d="M3 15c2 3 4 4 7 4s7-3 7-7s-3-7-6-7s-5 1.5-5 4s2 5 6 5s8.408-2.453 10-5"/></symbol><symbol id="hd-icon-tabler-scribble-off" viewBox="0 0 24 24"><path fill="none" stroke="currentColor" stroke-linecap="round" stroke-linejoin="round" stroke-width="2" d="M3 15c2 3 4 4 7 4c1.95 0 4.324-1.268 5.746-3.256m1.181-2.812A6 6 0 0 0 17 12c0-4-3-7-6-7c-.642 0-1.239.069-1.78.201M6.728 6.716C6.258 7.333 6 8.102 6 9c0 2.5 2 5 6 5c.597 0 1.203-.055 1.808-.156m3.102-.921C19.145 11.97 21.062 10.5 22 9M3 3l18 18"/></symbol><symbol id="hd-icon-tabler-script" viewBox="0 0 24 24"><path fill="none" stroke="currentColor" stroke-linecap="round" stroke-linejoin="round" stroke-width="2" d="M17 20H6a3 3 0 0 1 0-6h11a3 3 0 0 0 0 6h1a3 3 0 0 0 3-3V6a2 2 0 0 0-2-2H9a2 2 0 0 0-2 2v8"/></symbol><symbol id="hd-icon-tabler-script-minus" viewBox="0 0 24 24"><path fill="none" stroke="currentColor" stroke-linecap="round" stroke-linejoin="round" stroke-width="2" d="M17 19h4m-7 1H6a3 3 0 0 1 0-6h11a3 3 0 0 0-3 3m7-2V6a2 2 0 0 0-2-2H9a2 2 0 0 0-2 2v8"/></symbol><symbol id="hd-icon-tabler-script-plus" viewBox="0 0 24 24"><path fill="none" stroke="currentColor" stroke-linecap="round" stroke-linejoin="round" stroke-width="2" d="M17 19h4m-7 1H6a3 3 0 0 1 0-6h11a3 3 0 0 0-3 3m7-3V6a2 2 0 0 0-2-2H9a2 2 0 0 0-2 2v8m12 3v4"/></symbol><symbol id="hd-icon-tabler-script-x" viewBox="0 0 24 24"><path fill="none" stroke="currentColor" stroke-linecap="round" stroke-linejoin="round" stroke-width="2" d="M14 20H6a3 3 0 0 1 0-6h11a3 3 0 0 0-3 3m7-3V6a2 2 0 0 0-2-2H9a2 2 0 0 0-2 2v8m10 3l4 4m0-4l-4 4"/></symbol><symbol id="hd-icon-tabler-scuba-diving" viewBox="0 0 24 24"><path fill="none" stroke="currentColor" stroke-linecap="round" stroke-linejoin="round" stroke-width="2" d="M19 12a1 1 0 1 0 2 0a1 1 0 0 0-2 0M2 2l3 3l1.5 4l3.5 2l6 2l1 4l2.5 3M11 8l4.5 1.5"/></symbol><symbol id="hd-icon-tabler-scuba-diving-tank" viewBox="0 0 24 24"><g fill="none" stroke="currentColor" stroke-linecap="round" stroke-linejoin="round" stroke-width="2"><path d="M8 11a4 4 0 1 1 8 0v5H8zm0 5v3a2 2 0 0 0 2 2h4a2 2 0 0 0 2-2v-3M9 4h6m-3 3V4M7 4a1 1 0 1 0 2 0a1 1 0 1 0-2 0"/><path fill="currentColor" d="M11.5 4a.5.5 0 1 0 1 0a.5.5 0 1 0-1 0"/></g></symbol><symbol id="hd-icon-tabler-scuba-diving-tank-filled" viewBox="0 0 24 24"><path fill="currentColor" d="M17 17v2a3 3 0 0 1-3 3h-4a3 3 0 0 1-3-3v-2zM8 2a2 2 0 0 1 1.732 1h1.15a1.496 1.496 0 0 1 2.236 0H15a1 1 0 0 1 0 2l-1.883.001a2 2 0 0 1-.115.116V6.1A5 5 0 0 1 17 11v4H7v-4a5 5 0 0 1 4-4.9v-.983a2 2 0 0 1-.117-.116H9.732A2 2 0 1 1 8 2"/></symbol><symbol id="hd-icon-tabler-scuba-mask" viewBox="0 0 24 24"><g fill="none" stroke="currentColor" stroke-linecap="round" stroke-linejoin="round" stroke-width="2"><path d="M4 7h12a1 1 0 0 1 1 1v4.5a2.5 2.5 0 0 1-2.5 2.5H14a2 2 0 0 1-2-2a2 2 0 1 0-4 0a2 2 0 0 1-2 2h-.5A2.5 2.5 0 0 1 3 12.5V8a1 1 0 0 1 1-1"/><path d="M10 17a2 2 0 0 0 2 2h3.5a5.5 5.5 0 0 0 5.5-5.5V4"/></g></symbol><symbol id="hd-icon-tabler-scuba-mask-off" viewBox="0 0 24 24"><path fill="none" stroke="currentColor" stroke-linecap="round" stroke-linejoin="round" stroke-width="2" d="M11 7h5a1 1 0 0 1 1 1v4.5q0 .231-.04.45m-2 2.007q-.226.042-.463.043h-.5a2 2 0 0 1-2-2a2 2 0 1 0-4 0a2 2 0 0 1-2 2h-.5a2.5 2.5 0 0 1-2.5-2.5V8a1 1 0 0 1 1-1h3M10 17a2 2 0 0 0 2 2h3.5a5.5 5.5 0 0 0 2.765-.744m2-2c.47-.81.739-1.752.739-2.756V4M3 3l18 18"/></symbol><symbol id="hd-icon-tabler-sdk" viewBox="0 0 24 24"><path fill="none" stroke="currentColor" stroke-linecap="round" stroke-linejoin="round" stroke-width="2" d="M7 8H4a1 1 0 0 0-1 1v2a1 1 0 0 0 1 1h2a1 1 0 0 1 1 1v2a1 1 0 0 1-1 1H3m14-8v8m4-8l-3 4l3 4m-4-4h1m-8-4v8h2a2 2 0 0 0 2-2v-4a2 2 0 0 0-2-2z"/></symbol><symbol id="hd-icon-tabler-search" viewBox="0 0 24 24"><path fill="none" stroke="currentColor" stroke-linecap="round" stroke-linejoin="round" stroke-width="2" d="M3 10a7 7 0 1 0 14 0a7 7 0 1 0-14 0m18 11l-6-6"/></symbol><symbol id="hd-icon-tabler-search-off" viewBox="0 0 24 24"><path fill="none" stroke="currentColor" stroke-linecap="round" stroke-linejoin="round" stroke-width="2" d="M5.039 5.062a7 7 0 0 0 9.91 9.89m1.584-2.434a7 7 0 0 0-9.038-9.057M3 3l18 18"/></symbol><symbol id="hd-icon-tabler-section" viewBox="0 0 24 24"><path fill="none" stroke="currentColor" stroke-linecap="round" stroke-linejoin="round" stroke-width="2" d="M20 20h.01M4 20h.01M8 20h.01M12 20h.01M16 20h.01M20 4h.01M4 4h.01M8 4h.01M12 4h.01M16 4v.01M4 9a1 1 0 0 1 1-1h14a1 1 0 0 1 1 1v6a1 1 0 0 1-1 1H5a1 1 0 0 1-1-1z"/></symbol><symbol id="hd-icon-tabler-section-filled" viewBox="0 0 24 24"><path fill="currentColor" d="M20.01 19a1 1 0 0 1 .117 1.993L20 21a1 1 0 0 1-.117-1.993zm-16 0a1 1 0 0 1 0 2a1 1 0 0 1-.127-1.993m4 0a1 1 0 0 1 0 2a1 1 0 0 1-.127-1.993m4 0a1 1 0 0 1 .117 1.993l-.127.007a1 1 0 0 1-.117-1.993zm4 0a1 1 0 0 1 .117 1.993l-.127.007a1 1 0 0 1-.117-1.993zm4-16a1 1 0 0 1 .117 1.993l-.127.007a1 1 0 0 1-.117-1.993zm-16 0a1 1 0 1 1 0 2a1 1 0 0 1-.127-1.993m4 0a1 1 0 1 1 0 2a1 1 0 0 1-.127-1.993m4 0a1 1 0 0 1 .117 1.993l-.127.007a1 1 0 0 1-.117-1.993zm3.99 0a1 1 0 0 1 1 1a1 1 0 1 1-2 .01c0-.562.448-1.01 1-1.01m3 4a2 2 0 0 1 2 2v6a2 2 0 0 1-2 2h-14a2 2 0 0 1-2-2v-6a2 2 0 0 1 2-2z"/></symbol><symbol id="hd-icon-tabler-section-sign" viewBox="0 0 24 24"><g fill="none" stroke="currentColor" stroke-linecap="round" stroke-linejoin="round" stroke-width="2"><path d="M9.172 19A3 3 0 1 0 12 15m2.83-10A3 3 0 1 0 12 9"/><path d="M9 12a3 3 0 1 0 6 0a3 3 0 1 0-6 0"/></g></symbol><symbol id="hd-icon-tabler-seedling" viewBox="0 0 24 24"><path fill="none" stroke="currentColor" stroke-linecap="round" stroke-linejoin="round" stroke-width="2" d="M12 10a6 6 0 0 0-6-6H3v2a6 6 0 0 0 6 6h3m0 2a6 6 0 0 1 6-6h3v1a6 6 0 0 1-6 6h-3m0 5V10"/></symbol><symbol id="hd-icon-tabler-seedling-filled" viewBox="0 0 24 24"><path fill="currentColor" d="M6 3a7 7 0 0 1 6.95 6.155A6.97 6.97 0 0 1 18 7h3a1 1 0 0 1 1 1v1a7 7 0 0 1-7 7h-2v4a1 1 0 0 1-2 0v-7H9a7 7 0 0 1-7-7V4a1 1 0 0 1 1-1z"/></symbol><symbol id="hd-icon-tabler-seedling-off" viewBox="0 0 24 24"><path fill="none" stroke="currentColor" stroke-linecap="round" stroke-linejoin="round" stroke-width="2" d="M11.412 7.407a6.03 6.03 0 0 0-2.82-2.82M4 4H3v2a6 6 0 0 0 6 6h3m0 2a6 6 0 0 1 .255-1.736m1.51-2.514A5.98 5.98 0 0 1 18 8h3v1c0 2.158-1.14 4.05-2.85 5.107M15 15h-3m0 5v-8M3 3l18 18"/></symbol><symbol id="hd-icon-tabler-select" viewBox="0 0 24 24"><g fill="none" stroke="currentColor" stroke-linecap="round" stroke-linejoin="round" stroke-width="2"><path d="M3 5a2 2 0 0 1 2-2h14a2 2 0 0 1 2 2v14a2 2 0 0 1-2 2H5a2 2 0 0 1-2-2z"/><path d="m9 11l3 3l3-3"/></g></symbol><symbol id="hd-icon-tabler-select-all" viewBox="0 0 24 24"><path fill="none" stroke="currentColor" stroke-linecap="round" stroke-linejoin="round" stroke-width="2" d="M8 9a1 1 0 0 1 1-1h6a1 1 0 0 1 1 1v6a1 1 0 0 1-1 1H9a1 1 0 0 1-1-1zm4 11v.01m4-.01v.01M8 20v.01M4 20v.01M4 16v.01M4 12v.01M4 8v.01M4 4v.01M8 4v.01M12 4v.01M16 4v.01M20 4v.01M20 8v.01M20 12v.01M20 16v.01M20 20v.01"/></symbol><symbol id="hd-icon-tabler-selector" viewBox="0 0 24 24"><path fill="none" stroke="currentColor" stroke-linecap="round" stroke-linejoin="round" stroke-width="2" d="m8 9l4-4l4 4m0 6l-4 4l-4-4"/></symbol><symbol id="hd-icon-tabler-send" viewBox="0 0 24 24"><path fill="none" stroke="currentColor" stroke-linecap="round" stroke-linejoin="round" stroke-width="2" d="M10 14L21 3m0 0l-6.5 18a.55.55 0 0 1-1 0L10 14l-7-3.5a.55.55 0 0 1 0-1z"/></symbol><symbol id="hd-icon-tabler-send-2" viewBox="0 0 24 24"><path fill="none" stroke="currentColor" stroke-linecap="round" stroke-linejoin="round" stroke-width="2" d="M4.698 4.034L21 12L4.698 19.966a.5.5 0 0 1-.546-.124a.56.56 0 0 1-.12-.568L6.5 12L4.032 4.726a.56.56 0 0 1 .12-.568a.5.5 0 0 1 .546-.124M6.5 12H21"/></symbol><symbol id="hd-icon-tabler-send-off" viewBox="0 0 24 24"><path fill="none" stroke="currentColor" stroke-linecap="round" stroke-linejoin="round" stroke-width="2" d="m10 14l2-2m2-2l7-7M10.718 6.713L21 3l-3.715 10.289m-1.063 2.941L14.5 21a.55.55 0 0 1-1 0L10 14l-7-3.5a.55.55 0 0 1 0-1l4.772-1.723M3 3l18 18"/></symbol><symbol id="hd-icon-tabler-seo" viewBox="0 0 24 24"><path fill="none" stroke="currentColor" stroke-linecap="round" stroke-linejoin="round" stroke-width="2" d="M7 8H4a1 1 0 0 0-1 1v2a1 1 0 0 0 1 1h2a1 1 0 0 1 1 1v2a1 1 0 0 1-1 1H3m11 0h-4V8h4m-3 4h2m4-3a1 1 0 0 1 1-1h2a1 1 0 0 1 1 1v6a1 1 0 0 1-1 1h-2a1 1 0 0 1-1-1z"/></symbol><symbol id="hd-icon-tabler-separator" viewBox="0 0 24 24"><path fill="none" stroke="currentColor" stroke-linecap="round" stroke-linejoin="round" stroke-width="2" d="M3 12v.01M7 12h10m4 0v.01"/></symbol><symbol id="hd-icon-tabler-separator-horizontal" viewBox="0 0 24 24"><path fill="none" stroke="currentColor" stroke-linecap="round" stroke-linejoin="round" stroke-width="2" d="M4 12h16M8 8l4-4l4 4m0 8l-4 4l-4-4"/></symbol><symbol id="hd-icon-tabler-separator-vertical" viewBox="0 0 24 24"><path fill="none" stroke="currentColor" stroke-linecap="round" stroke-linejoin="round" stroke-width="2" d="M12 4v16M8 8l-4 4l4 4m8 0l4-4l-4-4"/></symbol><symbol id="hd-icon-tabler-server" viewBox="0 0 24 24"><path fill="none" stroke="currentColor" stroke-linecap="round" stroke-linejoin="round" stroke-width="2" d="M3 7a3 3 0 0 1 3-3h12a3 3 0 0 1 3 3v2a3 3 0 0 1-3 3H6a3 3 0 0 1-3-3m0 6a3 3 0 0 1 3-3h12a3 3 0 0 1 3 3v2a3 3 0 0 1-3 3H6a3 3 0 0 1-3-3zm4-7v.01M7 16v.01"/></symbol><symbol id="hd-icon-tabler-server-2" viewBox="0 0 24 24"><path fill="none" stroke="currentColor" stroke-linecap="round" stroke-linejoin="round" stroke-width="2" d="M3 7a3 3 0 0 1 3-3h12a3 3 0 0 1 3 3v2a3 3 0 0 1-3 3H6a3 3 0 0 1-3-3zm0 8a3 3 0 0 1 3-3h12a3 3 0 0 1 3 3v2a3 3 0 0 1-3 3H6a3 3 0 0 1-3-3zm4-7v.01M7 16v.01M11 8h6m-6 8h6"/></symbol><symbol id="hd-icon-tabler-server-bolt" viewBox="0 0 24 24"><path fill="none" stroke="currentColor" stroke-linecap="round" stroke-linejoin="round" stroke-width="2" d="M3 7a3 3 0 0 1 3-3h12a3 3 0 0 1 3 3v2a3 3 0 0 1-3 3H6a3 3 0 0 1-3-3m12 11H6a3 3 0 0 1-3-3v-2a3 3 0 0 1 3-3h12M7 8v.01M7 16v.01M20 15l-2 3h3l-2 3"/></symbol><symbol id="hd-icon-tabler-server-cog" viewBox="0 0 24 24"><path fill="none" stroke="currentColor" stroke-linecap="round" stroke-linejoin="round" stroke-width="2" d="M3 7a3 3 0 0 1 3-3h12a3 3 0 0 1 3 3v2a3 3 0 0 1-3 3H6a3 3 0 0 1-3-3zm9 13H6a3 3 0 0 1-3-3v-2a3 3 0 0 1 3-3h10.5m-.5 6a2 2 0 1 0 4 0a2 2 0 1 0-4 0m2-3.5V16m0 4v1.5m3.032-5.25l-1.299.75m-3.463 2l-1.3.75m0-3.5l1.3.75m3.463 2l1.3.75M7 8v.01M7 16v.01"/></symbol><symbol id="hd-icon-tabler-server-off" viewBox="0 0 24 24"><path fill="none" stroke="currentColor" stroke-linecap="round" stroke-linejoin="round" stroke-width="2" d="M12 12H6a3 3 0 0 1-3-3V7c0-1.083.574-2.033 1.435-2.56M8 4h10a3 3 0 0 1 3 3v2a3 3 0 0 1-3 3h-2m0 0h2a3 3 0 0 1 3 3v2m-1.448 2.568A3 3 0 0 1 18 20H6a3 3 0 0 1-3-3v-2a3 3 0 0 1 3-3h6M7 8v.01M7 16v.01M3 3l18 18"/></symbol><symbol id="hd-icon-tabler-server-spark" viewBox="0 0 24 24"><g fill="none" stroke="currentColor" stroke-linecap="round" stroke-linejoin="round" stroke-width="2"><path d="M19 22.5a4.75 4.75 0 0 1 3.5-3.5a4.75 4.75 0 0 1-3.5-3.5a4.75 4.75 0 0 1-3.5 3.5a4.75 4.75 0 0 1 3.5 3.5M3 7a3 3 0 0 1 3-3h12a3 3 0 0 1 3 3v2a3 3 0 0 1-3 3H6a3 3 0 0 1-3-3z"/><path d="M12 20H6a3 3 0 0 1-3-3v-2a3 3 0 0 1 3-3h10.5M7 8v.01M7 16v.01"/></g></symbol><symbol id="hd-icon-tabler-servicemark" viewBox="0 0 24 24"><path fill="none" stroke="currentColor" stroke-linecap="round" stroke-linejoin="round" stroke-width="2" d="M9 9H6.5a1.5 1.5 0 0 0 0 3h1a1.5 1.5 0 0 1 0 3H5m8 0V9l3 4l3-4v6"/></symbol><symbol id="hd-icon-tabler-settings" viewBox="0 0 24 24"><g fill="none" stroke="currentColor" stroke-linecap="round" stroke-linejoin="round" stroke-width="2"><path d="M10.325 4.317c.426-1.756 2.924-1.756 3.35 0a1.724 1.724 0 0 0 2.573 1.066c1.543-.94 3.31.826 2.37 2.37a1.724 1.724 0 0 0 1.065 2.572c1.756.426 1.756 2.924 0 3.35a1.724 1.724 0 0 0-1.066 2.573c.94 1.543-.826 3.31-2.37 2.37a1.724 1.724 0 0 0-2.572 1.065c-.426 1.756-2.924 1.756-3.35 0a1.724 1.724 0 0 0-2.573-1.066c-1.543.94-3.31-.826-2.37-2.37a1.724 1.724 0 0 0-1.065-2.572c-1.756-.426-1.756-2.924 0-3.35a1.724 1.724 0 0 0 1.066-2.573c-.94-1.543.826-3.31 2.37-2.37c1 .608 2.296.07 2.572-1.065"/><path d="M9 12a3 3 0 1 0 6 0a3 3 0 0 0-6 0"/></g></symbol><symbol id="hd-icon-tabler-settings-2" viewBox="0 0 24 24"><g fill="none" stroke="currentColor" stroke-linecap="round" stroke-linejoin="round" stroke-width="2"><path d="M19.875 6.27A2.23 2.23 0 0 1 21 8.218v7.284c0 .809-.443 1.555-1.158 1.948l-6.75 4.27a2.27 2.27 0 0 1-2.184 0l-6.75-4.27A2.23 2.23 0 0 1 3 15.502V8.217c0-.809.443-1.554 1.158-1.947l6.75-3.98a2.33 2.33 0 0 1 2.25 0l6.75 3.98z"/><path d="M9 12a3 3 0 1 0 6 0a3 3 0 1 0-6 0"/></g></symbol><symbol id="hd-icon-tabler-settings-ai" viewBox="0 0 24 24"><g fill="none" stroke="currentColor" stroke-linecap="round" stroke-linejoin="round" stroke-width="2"><path d="M10.325 4.317c.426-1.756 2.924-1.756 3.35 0a1.724 1.724 0 0 0 2.573 1.066c1.543-.94 3.31.826 2.37 2.37a1.724 1.724 0 0 0 1.065 2.572c1.756.426 1.756 2.924 0 3.35a1.724 1.724 0 0 0-1.066 2.573c.94 1.543-.826 3.31-2.37 2.37a1.724 1.724 0 0 0-2.572 1.065c-.426 1.756-2.924 1.756-3.35 0a1.724 1.724 0 0 0-2.573-1.066c-1.543.94-3.31-.826-2.37-2.37a1.724 1.724 0 0 0-1.065-2.572c-1.756-.426-1.756-2.924 0-3.35a1.724 1.724 0 0 0 1.066-2.573c-.94-1.543.826-3.31 2.37-2.37c1 .608 2.296.07 2.572-1.065"/><path d="M9 14v-2.5a1.5 1.5 0 0 1 3 0V14m-3-1h3m3-3v4"/></g></symbol><symbol id="hd-icon-tabler-settings-automation" viewBox="0 0 24 24"><g fill="none" stroke="currentColor" stroke-linecap="round" stroke-linejoin="round" stroke-width="2"><path d="M10.325 4.317c.426-1.756 2.924-1.756 3.35 0a1.724 1.724 0 0 0 2.573 1.066c1.543-.94 3.31.826 2.37 2.37a1.724 1.724 0 0 0 1.065 2.572c1.756.426 1.756 2.924 0 3.35a1.724 1.724 0 0 0-1.066 2.573c.94 1.543-.826 3.31-2.37 2.37a1.724 1.724 0 0 0-2.572 1.065c-.426 1.756-2.924 1.756-3.35 0a1.724 1.724 0 0 0-2.573-1.066c-1.543.94-3.31-.826-2.37-2.37a1.724 1.724 0 0 0-1.065-2.572c-1.756-.426-1.756-2.924 0-3.35a1.724 1.724 0 0 0 1.066-2.573c-.94-1.543.826-3.31 2.37-2.37c1 .608 2.296.07 2.572-1.065"/><path d="M10 9v6l5-3z"/></g></symbol><symbol id="hd-icon-tabler-settings-bolt" viewBox="0 0 24 24"><g fill="none" stroke="currentColor" stroke-linecap="round" stroke-linejoin="round" stroke-width="2"><path d="M13.256 20.473c-.855.907-2.583.643-2.931-.79a1.724 1.724 0 0 0-2.573-1.066c-1.543.94-3.31-.826-2.37-2.37a1.724 1.724 0 0 0-1.065-2.572c-1.756-.426-1.756-2.924 0-3.35a1.724 1.724 0 0 0 1.066-2.573c-.94-1.543.826-3.31 2.37-2.37c1 .608 2.296.07 2.572-1.065c.426-1.756 2.924-1.756 3.35 0a1.724 1.724 0 0 0 2.573 1.066c1.543-.94 3.31.826 2.37 2.37a1.724 1.724 0 0 0 1.065 2.572c1.07.26 1.488 1.29 1.254 2.15M19 16l-2 3h4l-2 3"/><path d="M9 12a3 3 0 1 0 6 0a3 3 0 0 0-6 0"/></g></symbol><symbol id="hd-icon-tabler-settings-cancel" viewBox="0 0 24 24"><g fill="none" stroke="currentColor" stroke-linecap="round" stroke-linejoin="round" stroke-width="2"><path d="M12.29 20.977c-.818.132-1.724-.3-1.965-1.294a1.724 1.724 0 0 0-2.573-1.066c-1.543.94-3.31-.826-2.37-2.37a1.724 1.724 0 0 0-1.065-2.572c-1.756-.426-1.756-2.924 0-3.35a1.724 1.724 0 0 0 1.066-2.573c-.94-1.543.826-3.31 2.37-2.37c1 .608 2.296.07 2.572-1.065c.426-1.756 2.924-1.756 3.35 0a1.724 1.724 0 0 0 2.573 1.066c1.543-.94 3.31.826 2.37 2.37a1.724 1.724 0 0 0 1.065 2.572c.983.238 1.416 1.126 1.298 1.937M16 19a3 3 0 1 0 6 0a3 3 0 1 0-6 0m1 2l4-4"/><path d="M9 12a3 3 0 1 0 6 0a3 3 0 0 0-6 0"/></g></symbol><symbol id="hd-icon-tabler-settings-check" viewBox="0 0 24 24"><g fill="none" stroke="currentColor" stroke-linecap="round" stroke-linejoin="round" stroke-width="2"><path d="M11.445 20.913a1.67 1.67 0 0 1-1.12-1.23a1.724 1.724 0 0 0-2.573-1.066c-1.543.94-3.31-.826-2.37-2.37a1.724 1.724 0 0 0-1.065-2.572c-1.756-.426-1.756-2.924 0-3.35a1.724 1.724 0 0 0 1.066-2.573c-.94-1.543.826-3.31 2.37-2.37c1 .608 2.296.07 2.572-1.065c.426-1.756 2.924-1.756 3.35 0a1.724 1.724 0 0 0 2.573 1.066c1.543-.94 3.31.826 2.37 2.37a1.724 1.724 0 0 0 1.065 2.572c1.31.318 1.643 1.79.997 2.694M15 19l2 2l4-4"/><path d="M9 12a3 3 0 1 0 6 0a3 3 0 0 0-6 0"/></g></symbol><symbol id="hd-icon-tabler-settings-code" viewBox="0 0 24 24"><g fill="none" stroke="currentColor" stroke-linecap="round" stroke-linejoin="round" stroke-width="2"><path d="M11.482 20.924a1.67 1.67 0 0 1-1.157-1.241a1.724 1.724 0 0 0-2.573-1.066c-1.543.94-3.31-.826-2.37-2.37a1.724 1.724 0 0 0-1.065-2.572c-1.756-.426-1.756-2.924 0-3.35a1.724 1.724 0 0 0 1.066-2.573c-.94-1.543.826-3.31 2.37-2.37c1 .608 2.296.07 2.572-1.065c.426-1.756 2.924-1.756 3.35 0a1.724 1.724 0 0 0 2.573 1.066c1.543-.94 3.31.826 2.37 2.37a1.724 1.724 0 0 0 1.065 2.572c1.312.318 1.644 1.794.995 2.697"/><path d="M9 12a3 3 0 1 0 6 0a3 3 0 0 0-6 0m11 9l2-2l-2-2m-3 0l-2 2l2 2"/></g></symbol><symbol id="hd-icon-tabler-settings-cog" viewBox="0 0 24 24"><g fill="none" stroke="currentColor" stroke-linecap="round" stroke-linejoin="round" stroke-width="2"><path d="M12.003 21c-.732.001-1.465-.438-1.678-1.317a1.724 1.724 0 0 0-2.573-1.066c-1.543.94-3.31-.826-2.37-2.37a1.724 1.724 0 0 0-1.065-2.572c-1.756-.426-1.756-2.924 0-3.35a1.724 1.724 0 0 0 1.066-2.573c-.94-1.543.826-3.31 2.37-2.37c1 .608 2.296.07 2.572-1.065c.426-1.756 2.924-1.756 3.35 0a1.724 1.724 0 0 0 2.573 1.066c1.543-.94 3.31.826 2.37 2.37a1.724 1.724 0 0 0 1.065 2.572c.886.215 1.325.957 1.318 1.694"/><path d="M9 12a3 3 0 1 0 6 0a3 3 0 0 0-6 0m8.001 7a2 2 0 1 0 4 0a2 2 0 1 0-4 0m2-3.5V17m0 4v1.5m3.031-5.25l-1.299.75m-3.463 2l-1.3.75m0-3.5l1.3.75m3.463 2l1.3.75"/></g></symbol><symbol id="hd-icon-tabler-settings-dollar" viewBox="0 0 24 24"><g fill="none" stroke="currentColor" stroke-linecap="round" stroke-linejoin="round" stroke-width="2"><path d="M13.038 20.666c-.902.665-2.393.337-2.713-.983a1.724 1.724 0 0 0-2.573-1.066c-1.543.94-3.31-.826-2.37-2.37a1.724 1.724 0 0 0-1.065-2.572c-1.756-.426-1.756-2.924 0-3.35a1.724 1.724 0 0 0 1.066-2.573c-.94-1.543.826-3.31 2.37-2.37c1 .608 2.296.07 2.572-1.065c.426-1.756 2.924-1.756 3.35 0a1.724 1.724 0 0 0 2.573 1.066c1.543-.94 3.31.826 2.37 2.37a1.724 1.724 0 0 0 .402 2.248"/><path d="M15 12a3 3 0 1 0-1.724 2.716M21 15h-2.5a1.5 1.5 0 0 0 0 3h1a1.5 1.5 0 0 1 0 3H17m2 0v1m0-8v1"/></g></symbol><symbol id="hd-icon-tabler-settings-down" viewBox="0 0 24 24"><g fill="none" stroke="currentColor" stroke-linecap="round" stroke-linejoin="round" stroke-width="2"><path d="M12.52 20.924c-.87.262-1.93-.152-2.195-1.241a1.724 1.724 0 0 0-2.573-1.066c-1.543.94-3.31-.826-2.37-2.37a1.724 1.724 0 0 0-1.065-2.572c-1.756-.426-1.756-2.924 0-3.35a1.724 1.724 0 0 0 1.066-2.573c-.94-1.543.826-3.31 2.37-2.37c1 .608 2.296.07 2.572-1.065c.426-1.756 2.924-1.756 3.35 0a1.724 1.724 0 0 0 2.573 1.066c1.543-.94 3.31.826 2.37 2.37a1.724 1.724 0 0 0 1.065 2.572c1.088.264 1.502 1.323 1.242 2.192M19 16v6m3-3l-3 3l-3-3"/><path d="M9 12a3 3 0 1 0 6 0a3 3 0 0 0-6 0"/></g></symbol><symbol id="hd-icon-tabler-settings-exclamation" viewBox="0 0 24 24"><g fill="none" stroke="currentColor" stroke-linecap="round" stroke-linejoin="round" stroke-width="2"><path d="M15.004 18.401a1.72 1.72 0 0 0-1.329 1.282c-.426 1.756-2.924 1.756-3.35 0a1.724 1.724 0 0 0-2.573-1.066c-1.543.94-3.31-.826-2.37-2.37a1.724 1.724 0 0 0-1.065-2.572c-1.756-.426-1.756-2.924 0-3.35a1.724 1.724 0 0 0 1.066-2.573c-.94-1.543.826-3.31 2.37-2.37c1 .608 2.296.07 2.572-1.065c.426-1.756 2.924-1.756 3.35 0a1.724 1.724 0 0 0 2.573 1.066c1.543-.94 3.31.826 2.37 2.37a1.724 1.724 0 0 0 1.065 2.572c1.079.262 1.495 1.305 1.248 2.17"/><path d="M9 12a3 3 0 1 0 6 0a3 3 0 0 0-6 0m10 4v3m0 3v.01"/></g></symbol><symbol id="hd-icon-tabler-settings-filled" viewBox="0 0 24 24"><path fill="currentColor" d="M14.647 4.081a.724.724 0 0 0 1.08.448c2.439-1.485 5.23 1.305 3.745 3.744a.724.724 0 0 0 .447 1.08c2.775.673 2.775 4.62 0 5.294a.724.724 0 0 0-.448 1.08c1.485 2.439-1.305 5.23-3.744 3.745a.724.724 0 0 0-1.08.447c-.673 2.775-4.62 2.775-5.294 0a.724.724 0 0 0-1.08-.448c-2.439 1.485-5.23-1.305-3.745-3.744a.724.724 0 0 0-.447-1.08c-2.775-.673-2.775-4.62 0-5.294a.724.724 0 0 0 .448-1.08c-1.485-2.439 1.305-5.23 3.744-3.745a.722.722 0 0 0 1.08-.447c.673-2.775 4.62-2.775 5.294 0M12 9a3 3 0 1 0 0 6a3 3 0 0 0 0-6"/></symbol><symbol id="hd-icon-tabler-settings-heart" viewBox="0 0 24 24"><g fill="none" stroke="currentColor" stroke-linecap="round" stroke-linejoin="round" stroke-width="2"><path d="M11.231 20.828a1.67 1.67 0 0 1-.906-1.145a1.724 1.724 0 0 0-2.573-1.066c-1.543.94-3.31-.826-2.37-2.37a1.724 1.724 0 0 0-1.065-2.572c-1.756-.426-1.756-2.924 0-3.35a1.724 1.724 0 0 0 1.066-2.573c-.94-1.543.826-3.31 2.37-2.37c1 .608 2.296.07 2.572-1.065c.426-1.756 2.924-1.756 3.35 0a1.724 1.724 0 0 0 2.573 1.066c1.543-.94 3.31.826 2.37 2.37a1.724 1.724 0 0 0 1.065 2.572c.509.123.87.421 1.084.792"/><path d="M14.882 11.165a3.001 3.001 0 1 0-4.31 3.474M18 22l3.35-3.284a2.143 2.143 0 0 0 .005-3.071a2.24 2.24 0 0 0-3.129-.006l-.224.22l-.223-.22a2.24 2.24 0 0 0-3.128-.006a2.143 2.143 0 0 0-.006 3.071z"/></g></symbol><symbol id="hd-icon-tabler-settings-minus" viewBox="0 0 24 24"><g fill="none" stroke="currentColor" stroke-linecap="round" stroke-linejoin="round" stroke-width="2"><path d="M12.488 20.933c-.863.243-1.902-.174-2.163-1.25a1.724 1.724 0 0 0-2.573-1.066c-1.543.94-3.31-.826-2.37-2.37a1.724 1.724 0 0 0-1.065-2.572c-1.756-.426-1.756-2.924 0-3.35a1.724 1.724 0 0 0 1.066-2.573c-.94-1.543.826-3.31 2.37-2.37c1 .608 2.296.07 2.572-1.065c.426-1.756 2.924-1.756 3.35 0a1.724 1.724 0 0 0 2.573 1.066c1.543-.94 3.31.826 2.37 2.37a1.724 1.724 0 0 0 1.065 2.572c1.756.426 1.756 2.924 0 3.35c-.535.13-.976.507-1.187 1.016c-.049.118-.084.185-.106.309M16 19h6"/><path d="M9 12a3 3 0 1 0 6 0a3 3 0 0 0-6 0"/></g></symbol><symbol id="hd-icon-tabler-settings-off" viewBox="0 0 24 24"><g fill="none" stroke="currentColor" stroke-linecap="round" stroke-linejoin="round" stroke-width="2"><path d="M9.451 5.437c.418-.218.75-.609.874-1.12c.426-1.756 2.924-1.756 3.35 0a1.724 1.724 0 0 0 2.573 1.066c1.543-.94 3.31.826 2.37 2.37a1.724 1.724 0 0 0 1.065 2.572c1.756.426 1.756 2.924 0 3.35c-.486.118-.894.44-1.123.878m-.188 3.803c-.517.523-1.349.734-2.125.262a1.724 1.724 0 0 0-2.572 1.065c-.426 1.756-2.924 1.756-3.35 0a1.724 1.724 0 0 0-2.573-1.066c-1.543.94-3.31-.826-2.37-2.37a1.724 1.724 0 0 0-1.065-2.572c-1.756-.426-1.756-2.924 0-3.35a1.724 1.724 0 0 0 1.066-2.573c-.472-.774-.262-1.604.259-2.121"/><path d="M9.889 9.869a3 3 0 1 0 4.226 4.26m.592-3.424a3 3 0 0 0-1.419-1.415M3 3l18 18"/></g></symbol><symbol id="hd-icon-tabler-settings-pause" viewBox="0 0 24 24"><g fill="none" stroke="currentColor" stroke-linecap="round" stroke-linejoin="round" stroke-width="2"><path d="M13.004 20.69c-.905.632-2.363.296-2.679-1.007a1.724 1.724 0 0 0-2.573-1.066c-1.543.94-3.31-.826-2.37-2.37a1.724 1.724 0 0 0-1.065-2.572c-1.756-.426-1.756-2.924 0-3.35a1.724 1.724 0 0 0 1.066-2.573c-.94-1.543.826-3.31 2.37-2.37c1 .608 2.296.07 2.572-1.065c.426-1.756 2.924-1.756 3.35 0a1.724 1.724 0 0 0 2.573 1.066c1.543-.94 3.31.826 2.37 2.37a1.724 1.724 0 0 0 1.065 2.572c1.314.319 1.645 1.798.992 2.701"/><path d="M9 12a3 3 0 1 0 6 0a3 3 0 0 0-6 0m8 5v5m4-5v5"/></g></symbol><symbol id="hd-icon-tabler-settings-pin" viewBox="0 0 24 24"><g fill="none" stroke="currentColor" stroke-linecap="round" stroke-linejoin="round" stroke-width="2"><path d="M12.578 20.905c-.88.299-1.983-.109-2.253-1.222a1.724 1.724 0 0 0-2.573-1.066c-1.543.94-3.31-.826-2.37-2.37a1.724 1.724 0 0 0-1.065-2.572c-1.756-.426-1.756-2.924 0-3.35a1.724 1.724 0 0 0 1.066-2.573c-.94-1.543.826-3.31 2.37-2.37c1 .608 2.296.07 2.572-1.065c.426-1.756 2.924-1.756 3.35 0a1.724 1.724 0 0 0 2.573 1.066c1.543-.94 3.31.826 2.37 2.37a1.724 1.724 0 0 0 1.065 2.572c.574.14.96.5 1.16.937"/><path d="M14.99 12.256a3 3 0 1 0-2.33 2.671m8.461 5.194a3 3 0 1 0-4.242 0Q17.506 20.749 19 22q1.577-1.335 2.121-1.879M19 18v.01"/></g></symbol><symbol id="hd-icon-tabler-settings-plus" viewBox="0 0 24 24"><g fill="none" stroke="currentColor" stroke-linecap="round" stroke-linejoin="round" stroke-width="2"><path d="M12.483 20.935c-.862.239-1.898-.178-2.158-1.252a1.724 1.724 0 0 0-2.573-1.066c-1.543.94-3.31-.826-2.37-2.37a1.724 1.724 0 0 0-1.065-2.572c-1.756-.426-1.756-2.924 0-3.35a1.724 1.724 0 0 0 1.066-2.573c-.94-1.543.826-3.31 2.37-2.37c1 .608 2.296.07 2.572-1.065c.426-1.756 2.924-1.756 3.35 0a1.724 1.724 0 0 0 2.573 1.066c1.543-.94 3.31.826 2.37 2.37a1.724 1.724 0 0 0 1.065 2.572c1.08.262 1.496 1.308 1.247 2.173M16 19h6m-3-3v6"/><path d="M9 12a3 3 0 1 0 6 0a3 3 0 0 0-6 0"/></g></symbol><symbol id="hd-icon-tabler-settings-question" viewBox="0 0 24 24"><g fill="none" stroke="currentColor" stroke-linecap="round" stroke-linejoin="round" stroke-width="2"><path d="M14.69 18.498c-.508.21-.885.65-1.015 1.185c-.426 1.756-2.924 1.756-3.35 0a1.724 1.724 0 0 0-2.573-1.066c-1.543.94-3.31-.826-2.37-2.37a1.724 1.724 0 0 0-1.065-2.572c-1.756-.426-1.756-2.924 0-3.35a1.724 1.724 0 0 0 1.066-2.573c-.94-1.543.826-3.31 2.37-2.37c1 .608 2.296.07 2.572-1.065c.426-1.756 2.924-1.756 3.35 0a1.724 1.724 0 0 0 2.573 1.066c1.543-.94 3.31.826 2.37 2.37a1.724 1.724 0 0 0 1.065 2.572a1.67 1.67 0 0 1 1.179.982"/><path d="M14.95 12.553a3 3 0 1 0-1.211 1.892M19 22v.01M19 19a2.003 2.003 0 0 0 .914-3.782a1.98 1.98 0 0 0-2.414.483"/></g></symbol><symbol id="hd-icon-tabler-settings-search" viewBox="0 0 24 24"><g fill="none" stroke="currentColor" stroke-linecap="round" stroke-linejoin="round" stroke-width="2"><path d="M11.646 20.965a1.67 1.67 0 0 1-1.321-1.282a1.724 1.724 0 0 0-2.573-1.066c-1.543.94-3.31-.826-2.37-2.37a1.724 1.724 0 0 0-1.065-2.572c-1.756-.426-1.756-2.924 0-3.35a1.724 1.724 0 0 0 1.066-2.573c-.94-1.543.826-3.31 2.37-2.37c1 .608 2.296.07 2.572-1.065c.426-1.756 2.924-1.756 3.35 0a1.724 1.724 0 0 0 2.573 1.066c1.543-.94 3.31.826 2.37 2.37a1.724 1.724 0 0 0 1.065 2.572c.728.177 1.154.71 1.279 1.303"/><path d="M14.985 11.694a3 3 0 1 0-3.29 3.29M15 18a3 3 0 1 0 6 0a3 3 0 1 0-6 0m5.2 2.2L22 22"/></g></symbol><symbol id="hd-icon-tabler-settings-share" viewBox="0 0 24 24"><g fill="none" stroke="currentColor" stroke-linecap="round" stroke-linejoin="round" stroke-width="2"><path d="M12.004 21c-.732.002-1.466-.437-1.679-1.317a1.724 1.724 0 0 0-2.573-1.066c-1.543.94-3.31-.826-2.37-2.37a1.724 1.724 0 0 0-1.065-2.572c-1.756-.426-1.756-2.924 0-3.35a1.724 1.724 0 0 0 1.066-2.573c-.94-1.543.826-3.31 2.37-2.37c1 .608 2.296.07 2.572-1.065c.426-1.756 2.924-1.756 3.35 0a1.724 1.724 0 0 0 2.573 1.066c1.543-.94 3.31.826 2.37 2.37a1.724 1.724 0 0 0 1.065 2.572c1.306.317 1.64 1.78 1.004 2.684"/><path d="M12 15a3 3 0 1 0 0-6a3 3 0 0 0 0 6m4 7l5-5m0 4.5V17h-4.5"/></g></symbol><symbol id="hd-icon-tabler-settings-spark" viewBox="0 0 24 24"><g fill="none" stroke="currentColor" stroke-linecap="round" stroke-linejoin="round" stroke-width="2"><path d="M11.992 21c-.728-.003-1.455-.442-1.667-1.317a1.724 1.724 0 0 0-2.573-1.066c-1.543.94-3.31-.826-2.37-2.37a1.724 1.724 0 0 0-1.065-2.572c-1.756-.426-1.756-2.924 0-3.35a1.724 1.724 0 0 0 1.066-2.573c-.94-1.543.826-3.31 2.37-2.37c1 .608 2.296.07 2.572-1.065c.426-1.756 2.924-1.756 3.35 0a1.724 1.724 0 0 0 2.573 1.066c1.543-.94 3.31.826 2.37 2.37a1.724 1.724 0 0 0 1.065 2.572c.882.214 1.32.95 1.317 1.684"/><path d="M9 12a3 3 0 1 0 6 0a3 3 0 0 0-6 0m10 10.5a4.75 4.75 0 0 1 3.5-3.5a4.75 4.75 0 0 1-3.5-3.5a4.75 4.75 0 0 1-3.5 3.5a4.75 4.75 0 0 1 3.5 3.5"/></g></symbol><symbol id="hd-icon-tabler-settings-star" viewBox="0 0 24 24"><g fill="none" stroke="currentColor" stroke-linecap="round" stroke-linejoin="round" stroke-width="2"><path d="M10.325 19.683a1.723 1.723 0 0 0-2.573-1.066c-1.543.94-3.31-.826-2.37-2.37a1.724 1.724 0 0 0-1.065-2.572c-1.756-.426-1.756-2.924 0-3.35a1.724 1.724 0 0 0 1.066-2.573c-.94-1.543.826-3.31 2.37-2.37c1 .608 2.296.07 2.572-1.065c.426-1.756 2.924-1.756 3.35 0a1.724 1.724 0 0 0 2.573 1.066c1.543-.94 3.31.826 2.37 2.37a1.724 1.724 0 0 0 1.065 2.572a1.67 1.67 0 0 1 1.106.831"/><path d="M14.89 11.195a3.001 3.001 0 1 0-4.457 3.364m7.367 6.258l-2.172 1.138a.392.392 0 0 1-.568-.41l.415-2.411l-1.757-1.707a.389.389 0 0 1 .217-.665l2.428-.352l1.086-2.193a.392.392 0 0 1 .702 0l1.086 2.193l2.428.352a.39.39 0 0 1 .217.665l-1.757 1.707l.414 2.41a.39.39 0 0 1-.567.411z"/></g></symbol><symbol id="hd-icon-tabler-settings-up" viewBox="0 0 24 24"><g fill="none" stroke="currentColor" stroke-linecap="round" stroke-linejoin="round" stroke-width="2"><path d="M12.501 20.93c-.866.25-1.914-.166-2.176-1.247a1.724 1.724 0 0 0-2.573-1.066c-1.543.94-3.31-.826-2.37-2.37a1.724 1.724 0 0 0-1.065-2.572c-1.756-.426-1.756-2.924 0-3.35a1.724 1.724 0 0 0 1.066-2.573c-.94-1.543.826-3.31 2.37-2.37c1 .608 2.296.07 2.572-1.065c.426-1.756 2.924-1.756 3.35 0a1.724 1.724 0 0 0 2.573 1.066c1.543-.94 3.31.826 2.37 2.37a1.724 1.724 0 0 0 1.065 2.572c1.074.26 1.49 1.296 1.252 2.158M19 22v-6m3 3l-3-3l-3 3"/><path d="M9 12a3 3 0 1 0 6 0a3 3 0 0 0-6 0"/></g></symbol><symbol id="hd-icon-tabler-settings-x" viewBox="0 0 24 24"><g fill="none" stroke="currentColor" stroke-linecap="round" stroke-linejoin="round" stroke-width="2"><path d="M13.675 19.683c-.426 1.756-2.924 1.756-3.35 0a1.724 1.724 0 0 0-2.573-1.066c-1.543.94-3.31-.826-2.37-2.37a1.724 1.724 0 0 0-1.065-2.572c-1.756-.426-1.756-2.924 0-3.35a1.724 1.724 0 0 0 1.066-2.573c-.94-1.543.826-3.31 2.37-2.37c1 .608 2.296.07 2.572-1.065c.426-1.756 2.924-1.756 3.35 0a1.724 1.724 0 0 0 2.573 1.066c1.543-.94 3.31.826 2.37 2.37a1.724 1.724 0 0 0 1.065 2.572c1.756.426 1.756 2.924 0 3.35a1.7 1.7 0 0 0-.324.114"/><path d="M9 12a3 3 0 1 0 6 0a3 3 0 0 0-6 0m13 10l-5-5m0 5l5-5"/></g></symbol><symbol id="hd-icon-tabler-shadow" viewBox="0 0 24 24"><path fill="none" stroke="currentColor" stroke-linecap="round" stroke-linejoin="round" stroke-width="2" d="M3 12a9 9 0 1 0 18 0a9 9 0 1 0-18 0m10 0h5m-5 3h4m-4 3h1m-1-9h4m-4-3h1"/></symbol><symbol id="hd-icon-tabler-shadow-off" viewBox="0 0 24 24"><path fill="none" stroke="currentColor" stroke-linecap="round" stroke-linejoin="round" stroke-width="2" d="M5.634 5.638a9 9 0 0 0 12.728 12.727m1.68-2.32A9 9 0 0 0 7.956 3.957M16 12h2m-5 3h2m-2 3h1m-1-9h4m-4-3h1M3 3l18 18"/></symbol><symbol id="hd-icon-tabler-shape" viewBox="0 0 24 24"><path fill="none" stroke="currentColor" stroke-linecap="round" stroke-linejoin="round" stroke-width="2" d="M3 5a2 2 0 1 0 4 0a2 2 0 1 0-4 0m14 0a2 2 0 1 0 4 0a2 2 0 1 0-4 0M3 19a2 2 0 1 0 4 0a2 2 0 1 0-4 0m14 0a2 2 0 1 0 4 0a2 2 0 1 0-4 0M5 7v10M7 5h10M7 19h10m2-12v10"/></symbol><symbol id="hd-icon-tabler-shape-2" viewBox="0 0 24 24"><path fill="none" stroke="currentColor" stroke-linecap="round" stroke-linejoin="round" stroke-width="2" d="M3 5a2 2 0 1 0 4 0a2 2 0 1 0-4 0m14 14a2 2 0 1 0 4 0a2 2 0 1 0-4 0m0-14a2 2 0 1 0 4 0a2 2 0 1 0-4 0M3 19a2 2 0 1 0 4 0a2 2 0 1 0-4 0m3.5-1.5l11-11M5 7v10M19 7v10"/></symbol><symbol id="hd-icon-tabler-shape-3" viewBox="0 0 24 24"><path fill="none" stroke="currentColor" stroke-linecap="round" stroke-linejoin="round" stroke-width="2" d="M3 5a2 2 0 1 0 4 0a2 2 0 1 0-4 0m14 14a2 2 0 1 0 4 0a2 2 0 1 0-4 0m0-14a2 2 0 1 0 4 0a2 2 0 1 0-4 0M3 19a2 2 0 1 0 4 0a2 2 0 1 0-4 0M7 5h10M5 7v10M19 7v10"/></symbol><symbol id="hd-icon-tabler-shape-off" viewBox="0 0 24 24"><path fill="none" stroke="currentColor" stroke-linecap="round" stroke-linejoin="round" stroke-width="2" d="M3.575 3.597a2 2 0 0 0 2.849 2.808M17 5a2 2 0 1 0 4 0a2 2 0 1 0-4 0M3 19a2 2 0 1 0 4 0a2 2 0 1 0-4 0m14.574-1.402a2 2 0 0 0 2.826 2.83M5 7v10M9 5h8M7 19h10m2-12v8M3 3l18 18"/></symbol><symbol id="hd-icon-tabler-share" viewBox="0 0 24 24"><path fill="none" stroke="currentColor" stroke-linecap="round" stroke-linejoin="round" stroke-width="2" d="M3 12a3 3 0 1 0 6 0a3 3 0 1 0-6 0m12-6a3 3 0 1 0 6 0a3 3 0 1 0-6 0m0 12a3 3 0 1 0 6 0a3 3 0 1 0-6 0m-6.3-7.3l6.6-3.4m-6.6 6l6.6 3.4"/></symbol><symbol id="hd-icon-tabler-share-2" viewBox="0 0 24 24"><path fill="none" stroke="currentColor" stroke-linecap="round" stroke-linejoin="round" stroke-width="2" d="M8 9H7a2 2 0 0 0-2 2v8a2 2 0 0 0 2 2h10a2 2 0 0 0 2-2v-8a2 2 0 0 0-2-2h-1m-4 5V3M9 6l3-3l3 3"/></symbol><symbol id="hd-icon-tabler-share-3" viewBox="0 0 24 24"><path fill="none" stroke="currentColor" stroke-linecap="round" stroke-linejoin="round" stroke-width="2" d="M13 4v4C6.425 9.028 3.98 14.788 3 20c-.037.206 5.384-5.962 10-6v4l8-7z"/></symbol><symbol id="hd-icon-tabler-share-off" viewBox="0 0 24 24"><path fill="none" stroke="currentColor" stroke-linecap="round" stroke-linejoin="round" stroke-width="2" d="M3 12a3 3 0 1 0 6 0a3 3 0 1 0-6 0m12-6a3 3 0 1 0 6 0a3 3 0 1 0-6 0m.861 9.896a3 3 0 0 0 4.265 4.22m.578-3.417a3 3 0 0 0-1.507-1.45M8.7 10.7l1.336-.688M12.66 8.66L15.3 7.3m-6.6 6l6.6 3.4M3 3l18 18"/></symbol><symbol id="hd-icon-tabler-shareplay" viewBox="0 0 24 24"><g fill="none" stroke="currentColor" stroke-linecap="round" stroke-linejoin="round" stroke-width="2"><path d="M18 18a3 3 0 0 0 3-3V7a3 3 0 0 0-3-3H6a3 3 0 0 0-3 3v8a3 3 0 0 0 3 3"/><path d="M9 20h6l-3-5z"/></g></symbol><symbol id="hd-icon-tabler-shield" viewBox="0 0 24 24"><path fill="none" stroke="currentColor" stroke-linecap="round" stroke-linejoin="round" stroke-width="2" d="M12 3a12 12 0 0 0 8.5 3A12 12 0 0 1 12 21A12 12 0 0 1 3.5 6A12 12 0 0 0 12 3"/></symbol><symbol id="hd-icon-tabler-shield-bolt" viewBox="0 0 24 24"><path fill="none" stroke="currentColor" stroke-linecap="round" stroke-linejoin="round" stroke-width="2" d="M13.342 20.566q-.654.255-1.342.434A12 12 0 0 1 3.5 6A12 12 0 0 0 12 3a12 12 0 0 0 8.5 3a12 12 0 0 1 .117 6.34M19 16l-2 3h4l-2 3"/></symbol><symbol id="hd-icon-tabler-shield-cancel" viewBox="0 0 24 24"><path fill="none" stroke="currentColor" stroke-linecap="round" stroke-linejoin="round" stroke-width="2" d="M12.277 20.925q-.138.039-.277.075A12 12 0 0 1 3.5 6A12 12 0 0 0 12 3a12 12 0 0 0 8.5 3a12 12 0 0 1 .145 6.232M16 19a3 3 0 1 0 6 0a3 3 0 1 0-6 0m1 2l4-4"/></symbol><symbol id="hd-icon-tabler-shield-check" viewBox="0 0 24 24"><path fill="none" stroke="currentColor" stroke-linecap="round" stroke-linejoin="round" stroke-width="2" d="M11.46 20.846A12 12 0 0 1 3.5 6A12 12 0 0 0 12 3a12 12 0 0 0 8.5 3a12 12 0 0 1-.09 7.06M15 19l2 2l4-4"/></symbol><symbol id="hd-icon-tabler-shield-check-filled" viewBox="0 0 24 24"><path fill="currentColor" d="m11.998 2l.118.007l.059.008l.061.013l.111.034a1 1 0 0 1 .217.112l.104.082l.255.218a11 11 0 0 0 7.189 2.537l.342-.01a1 1 0 0 1 1.005.717a13 13 0 0 1-9.208 16.25a1 1 0 0 1-.502 0A13 13 0 0 1 2.54 5.718a1 1 0 0 1 1.005-.717a11 11 0 0 0 7.531-2.527l.263-.225l.096-.075a1 1 0 0 1 .217-.112l.112-.034a1 1 0 0 1 .119-.021zm3.71 7.293a1 1 0 0 0-1.415 0L11 12.585l-1.293-1.292l-.094-.083a1 1 0 0 0-1.32 1.497l2 2l.094.083a1 1 0 0 0 1.32-.083l4-4l.083-.094a1 1 0 0 0-.083-1.32z"/></symbol><symbol id="hd-icon-tabler-shield-checkered" viewBox="0 0 24 24"><path fill="none" stroke="currentColor" stroke-linecap="round" stroke-linejoin="round" stroke-width="2" d="M12 3a12 12 0 0 0 8.5 3A12 12 0 0 1 12 21A12 12 0 0 1 3.5 6A12 12 0 0 0 12 3m0 0v18m-8.5-9h17"/></symbol><symbol id="hd-icon-tabler-shield-checkered-filled" viewBox="0 0 24 24"><path fill="currentColor" d="M11.013 12v9.754A13 13 0 0 1 2.28 12zm9.284 3.794a13 13 0 0 1-7.283 5.951L13.013 12h8.708a13 13 0 0 1-1.424 3.794M11.014 2.526L11.013 10H2.027c-.068-1.432.101-2.88.514-4.282a1 1 0 0 1 1.005-.717a11 11 0 0 0 7.192-2.256zM13.013 10V2.547l-.09-.073a11 11 0 0 0 7.189 2.537l.342-.01a1 1 0 0 1 1.005.717c.413 1.403.582 2.85.514 4.282z"/></symbol><symbol id="hd-icon-tabler-shield-chevron" viewBox="0 0 24 24"><g fill="none" stroke="currentColor" stroke-linecap="round" stroke-linejoin="round" stroke-width="2"><path d="M12 3a12 12 0 0 0 8.5 3A12 12 0 0 1 12 21A12 12 0 0 1 3.5 6A12 12 0 0 0 12 3"/><path d="m4 14l8-3l8 3"/></g></symbol><symbol id="hd-icon-tabler-shield-code" viewBox="0 0 24 24"><path fill="none" stroke="currentColor" stroke-linecap="round" stroke-linejoin="round" stroke-width="2" d="M12 21A12 12 0 0 1 3.5 6A12 12 0 0 0 12 3a12 12 0 0 0 8.5 3a12 12 0 0 1-.078 7.024M20 21l2-2l-2-2m-3 0l-2 2l2 2"/></symbol><symbol id="hd-icon-tabler-shield-cog" viewBox="0 0 24 24"><path fill="none" stroke="currentColor" stroke-linecap="round" stroke-linejoin="round" stroke-width="2" d="M12 21A12 12 0 0 1 3.5 6A12 12 0 0 0 12 3a12 12 0 0 0 8.5 3c.568 1.933.635 3.957.223 5.89M17.001 19a2 2 0 1 0 4 0a2 2 0 1 0-4 0m2-3.5V17m0 4v1.5m3.031-5.25l-1.299.75m-3.463 2l-1.3.75m0-3.5l1.3.75m3.463 2l1.3.75"/></symbol><symbol id="hd-icon-tabler-shield-dollar" viewBox="0 0 24 24"><path fill="none" stroke="currentColor" stroke-linecap="round" stroke-linejoin="round" stroke-width="2" d="M13.018 20.687q-.5.178-1.018.313A12 12 0 0 1 3.5 6A12 12 0 0 0 12 3a12 12 0 0 0 8.5 3c.433 1.472.575 2.998.436 4.495M21 15h-2.5a1.5 1.5 0 0 0 0 3h1a1.5 1.5 0 0 1 0 3H17m2 0v1m0-8v1"/></symbol><symbol id="hd-icon-tabler-shield-down" viewBox="0 0 24 24"><path fill="none" stroke="currentColor" stroke-linecap="round" stroke-linejoin="round" stroke-width="2" d="M12.444 20.876q-.22.066-.444.124A12 12 0 0 1 3.5 6A12 12 0 0 0 12 3a12 12 0 0 0 8.5 3a12 12 0 0 1 .117 6.343M19 16v6m3-3l-3 3l-3-3"/></symbol><symbol id="hd-icon-tabler-shield-exclamation" viewBox="0 0 24 24"><path fill="none" stroke="currentColor" stroke-linecap="round" stroke-linejoin="round" stroke-width="2" d="M15.04 19.745c-.942.551-1.964.976-3.04 1.255A12 12 0 0 1 3.5 6A12 12 0 0 0 12 3a12 12 0 0 0 8.5 3a12 12 0 0 1 .195 6.015M19 16v3m0 3v.01"/></symbol><symbol id="hd-icon-tabler-shield-filled" viewBox="0 0 24 24"><path fill="currentColor" d="M11.884 2.007L11.998 2l.118.007l.059.008l.061.013l.111.034a1 1 0 0 1 .217.112l.104.082l.255.218a11 11 0 0 0 7.189 2.537l.342-.01a1 1 0 0 1 1.005.717a13 13 0 0 1-9.208 16.25a1 1 0 0 1-.502 0A13 13 0 0 1 2.54 5.718a1 1 0 0 1 1.005-.717a11 11 0 0 0 7.531-2.527l.263-.225l.096-.075a1 1 0 0 1 .217-.112l.112-.034a1 1 0 0 1 .119-.021z"/></symbol><symbol id="hd-icon-tabler-shield-half" viewBox="0 0 24 24"><path fill="none" stroke="currentColor" stroke-linecap="round" stroke-linejoin="round" stroke-width="2" d="M12 3a12 12 0 0 0 8.5 3A12 12 0 0 1 12 21A12 12 0 0 1 3.5 6A12 12 0 0 0 12 3m0 0v18"/></symbol><symbol id="hd-icon-tabler-shield-half-filled" viewBox="0 0 24 24"><path fill="currentColor" d="m11.998 2l.032.002l.086.005a1 1 0 0 1 .342.104l.105.062l.097.076l.016.015l.247.21a11 11 0 0 0 7.189 2.537l.342-.01a1 1 0 0 1 1.005.717a13 13 0 0 1-9.208 16.25a1 1 0 0 1-.502 0A13 13 0 0 1 2.54 5.718a1 1 0 0 1 1.005-.717a11 11 0 0 0 7.791-2.75l.046-.036l.053-.041a1 1 0 0 1 .217-.112l.075-.023l.036-.01a1 1 0 0 1 .12-.022l.086-.005zM12 4.296l-.176.135a13 13 0 0 1-7.288 2.572l-.264.006l-.064.31a11 11 0 0 0 1.064 7.175l.17.314a11 11 0 0 0 6.49 5.136l.068.019z"/></symbol></svg>