<svg xmlns="http://www.w3.org/2000/svg" xmlns:xlink="http://www.w3.org/1999/xlink"><symbol id="hd-icon-roentgen-gazette" viewBox="0 0 16 16"><path fill="currentColor" d="M2.5 2a.5.5 0 0 0-.5.5v9.999A1.5 1.5 0 0 0 3.498 14H11.5a1.5 1.5 0 0 0 1.5-1.499v-4A.5.5 0 0 0 12.501 8H12v4.5a.5.5 0 0 1-1 0V2.501A.5.5 0 0 0 10.501 2zm.999 1H6.5a.5.5 0 0 1 .5.5v2a.5.5 0 0 1-.499.5H3.5a.5.5 0 0 1-.5-.5V3.501A.5.5 0 0 1 3.499 3m0 4H7.5a.5.5 0 0 1 .001 1H3.5a.5.5 0 0 1-.001-1m0 2H6.5a.5.5 0 0 1 .001 1H3.5a.5.5 0 0 1-.001-1M3 11.5a.5.5 0 0 1 .499-.5H7.5a.5.5 0 0 1 .001 1H3.5a.5.5 0 0 1-.5-.5"/></symbol><symbol id="hd-icon-roentgen-gift" viewBox="0 0 16 16"><path fill="currentColor" d="M4.885 1.041c-.463.07-.898.265-1.238.606a1.735 1.735 0 0 0-.157 2.28C3.99 4.586 4.89 5 6 5h3c1.11 0 2.011-.415 2.51-1.072a1.735 1.735 0 0 0-.156-2.281a2.2 2.2 0 0 0-1.239-.606a3 3 0 0 0-1.404.139c-.46.159-.895.452-1.211.857a2.64 2.64 0 0 0-1.21-.857a2.9 2.9 0 0 0-1.405-.139m.388.982a2 2 0 0 1 .688.102C6.557 2.331 7 2.752 7 3.5V4H6c-.855 0-1.452-.335-1.713-.678c-.26-.343-.284-.618.067-.969c.199-.199.543-.318.92-.33m4.337 0c.42-.011.816.111 1.035.33c.351.351.327.626.067.97C10.453 3.664 9.855 4 9 4H8v-.5c0-.748.443-1.17 1.04-1.375a2 2 0 0 1 .571-.102M3.5 6a.5.5 0 0 0-.5.5V10h4V6zM8 6v4h4V6.5a.5.5 0 0 0-.5-.5zm-5 5v3.5a.5.5 0 0 0 .5.5H7v-4zm5 0v4h3.5a.5.5 0 0 0 .5-.5V11z"/></symbol><symbol id="hd-icon-roentgen-glasses" viewBox="0 0 16 16"><path fill="currentColor" d="M3.3 2.068c-.661.107-1.177.65-1.294 1.35v.012l-1 7A.4.4 0 0 0 1 10.5v.5a2.995 2.995 0 0 0 3 3c1.657 0 3-1.32 3-3v-.5c0-.282.218-.5.5-.5s.5.218.5.5v.5c0 1.65 1.35 3 3 3c1.646 0 3-1.348 3-3v-.5l-.006-.07l-1-7q0-.014-.004-.028c-.137-.686-.64-1.23-1.3-1.332c-.33-.05-.7.034-.997.258c-.296.225-.52.57-.668 1.014a.5.5 0 1 0 .95.316c.101-.305.228-.46.322-.53c.094-.072.157-.082.24-.07c.165.026.411.232.473.54l.705 4.945A3 3 0 0 0 11 8a3 3 0 0 0-2.518 1.371a1.49 1.49 0 0 0-1.964 0A3 3 0 0 0 4 8c-.637 0-1.228.202-1.715.543l.71-4.973v.012c.05-.3.284-.5.454-.525c.085-.013.153-.002.25.07s.225.227.326.531a.5.5 0 1 0 .95-.316c-.15-.446-.375-.792-.674-1.016c-.302-.226-.616-.32-1-.258M4 9c1.11 0 2 .89 2 2s-.89 2-2 2s-2-.89-2-2s.89-2 2-2m7 0c1.11 0 2 .89 2 2s-.89 2-2 2s-2-.89-2-2s.89-2 2-2"/></symbol><symbol id="hd-icon-roentgen-glider" viewBox="0 0 16 16"><path fill="currentColor" d="M6.5 2a.5.5 0 0 0-.5.5v2a.5.5 0 0 0 .499.5H8.5a.5.5 0 0 0 .5-.5V2.501A.5.5 0 0 0 8.501 2zm4 4a.5.5 0 0 0-.5.5v2a.5.5 0 0 0 .499.5H12.5a.5.5 0 0 0 .5-.5V6.501A.5.5 0 0 0 12.501 6zm-8 4a.5.5 0 0 0-.5.5v2a.5.5 0 0 0 .499.5H4.5a.5.5 0 0 0 .5-.5v-1.999A.5.5 0 0 0 4.501 10zm4 0a.5.5 0 0 0-.5.5v2a.5.5 0 0 0 .499.5H8.5a.5.5 0 0 0 .5-.5v-1.999A.5.5 0 0 0 8.501 10zm4 0a.5.5 0 0 0-.5.5v2a.5.5 0 0 0 .499.5H12.5a.5.5 0 0 0 .5-.5v-1.999a.5.5 0 0 0-.499-.501z"/></symbol><symbol id="hd-icon-roentgen-globe" viewBox="0 0 16 16"><path fill="currentColor" d="M9.566 1.92a.5.5 0 0 0 .184.684a4.49 4.49 0 0 1 1.646 6.146A4.49 4.49 0 0 1 7.5 11l-.02.002a4.5 4.5 0 0 1-2.23-.606a.5.5 0 1 0-.5.868c.713.411 1.48.644 2.25.713v.523c0 .5-.5.5-1 .5H4.5a.5.5 0 0 0 0 1h6a.5.5 0 1 0 0-1H9c-.5 0-1 0-1-.5v-.527a5.5 5.5 0 0 0 4.264-2.723a5.51 5.51 0 0 0-2.014-7.514a.5.5 0 0 0-.684.184M7.5 3a3.5 3.5 0 1 0 0 7a3.5 3.5 0 0 0 0-7"/></symbol><symbol id="hd-icon-roentgen-golf-club-and-ball" viewBox="0 0 16 16"><path fill="currentColor" d="M13.5 2a.5.5 0 0 0-.5.5V7a1 1 135 0 1-1 1H8.5a1.5 1.5 0 0 0-1.455 1.863l.5 2a1.5 1.5 0 0 0 1.867 1.078l3.5-1A1.5 1.5 0 0 0 14 10.5v-8a.5.5 0 0 0-.5-.5M4 6a2 2 0 1 0 0 4a2 2 0 0 0 0-4m-1.5 5a.5.5 0 0 0 0 1c.333 0 .533.076.693.264c.16.187.307.557.307 1.236c.009.657.99.657 1 0c0-.694.127-1.077.266-1.25c.138-.173.317-.25.734-.25a.5.5 0 0 0 0-1z"/></symbol><symbol id="hd-icon-roentgen-golf-pin" viewBox="0 0 16 16"><path fill="currentColor" d="M3 2.5v11a.5.5 0 0 0 1 0V6.84l4.686-1.875a.5.5 0 0 0 0-.93l-5-2A.5.5 0 0 0 3 2.5M9.5 11c-.873 0-1.664.113-2.28.318c-.307.103-.573.226-.794.4S6 12.16 6 12.5s.204.607.426.781c.221.175.487.298.795.4c.615.206 1.406.319 2.279.319c.874 0 1.664-.113 2.28-.318c.307-.103.573-.226.794-.4S13 12.84 13 12.5s-.204-.607-.426-.781c-.221-.175-.487-.298-.795-.4C11.164 11.112 10.374 11 9.5 11"/></symbol><symbol id="hd-icon-roentgen-golf-tee" viewBox="0 0 16 16"><path fill="currentColor" d="M8 2.022a2.979 2.979 0 1 0 0 5.957a2.979 2.979 0 0 0 0-5.958M5.5 9c-.568 0-.697.796-.158.975l1.451.482v.002q.01.01.025.031c.04.061.098.178.153.325c.108.293.21.706.29 1.115c.161.818.241 1.62.241 1.62c.054.608.942.608.996 0c0 0 .08-.802.24-1.62c.08-.41.183-.822.291-1.115c.055-.147.112-.264.153-.325l.025-.031v-.002l1.451-.482c.54-.18.41-.976-.158-.975z"/></symbol><symbol id="hd-icon-roentgen-government" viewBox="0 0 16 16"><path fill="currentColor" d="M7.5 1a.5.5 0 0 0-.5.5v2.535A3.5 3.5 0 0 0 4.035 7H3.5a.499.499 0 1 0 0 1h8a.499.499 0 1 0 0-1h-.535A3.5 3.5 0 0 0 8 4.035V3h2a.5.5 0 0 0 .447-.277l.5-1A.5.5 0 0 0 10.5 1zM4 9v4h-.5a.499.499 0 1 0 0 1h8a.499.499 0 1 0 0-1h-.55V9zm1.5 1c.277 0 .5.223.5.5V13H5v-2.5c0-.277.223-.5.5-.5m1.992 0h.016c.272 0 .492.223.492.5V13H7v-2.5c0-.277.22-.5.492-.5M9.5 10c.277 0 .5.223.5.5V13H9v-2.5c0-.277.223-.5.5-.5"/></symbol><symbol id="hd-icon-roentgen-grapes" viewBox="0 0 16 16"><path fill="currentColor" d="M7.5 3c-.277 0-.5.223-.5.5v3a.499.499 0 1 0 1 0v-3c0-.277-.223-.5-.5-.5m-2 4A1.5 1.5 0 0 0 4 8.5A1.5 1.5 0 0 0 5.5 10A1.5 1.5 0 0 0 7 8.5A1.5 1.5 0 0 0 5.5 7m4 0A1.5 1.5 0 0 0 8 8.5A1.5 1.5 0 0 0 9.5 10A1.5 1.5 0 0 0 11 8.5A1.5 1.5 0 0 0 9.5 7m-2 3A1.5 1.5 0 0 0 6 11.5A1.5 1.5 0 0 0 7.5 13A1.5 1.5 0 0 0 9 11.5A1.5 1.5 0 0 0 7.5 10"/></symbol><symbol id="hd-icon-roentgen-grapes-2" viewBox="0 0 16 16"><path fill="currentColor" d="M7.5 1c-.277 0-.5.223-.5.5v1a.499.499 0 1 0 1 0v-1c0-.277-.223-.5-.5-.5m-2 2A1.5 1.5 0 0 0 4 4.5A1.5 1.5 0 0 0 5.5 6A1.5 1.5 0 0 0 7 4.5A1.5 1.5 0 0 0 5.5 3m4 0A1.5 1.5 0 0 0 8 4.5A1.5 1.5 0 0 0 9.5 6A1.5 1.5 0 0 0 11 4.5A1.5 1.5 0 0 0 9.5 3m-6 3A1.5 1.5 0 0 0 2 7.5A1.5 1.5 0 0 0 3.5 9A1.5 1.5 0 0 0 5 7.5A1.5 1.5 0 0 0 3.5 6m4 0A1.5 1.5 0 0 0 6 7.5A1.5 1.5 0 0 0 7.5 9A1.5 1.5 0 0 0 9 7.5A1.5 1.5 0 0 0 7.5 6m4 0A1.5 1.5 0 0 0 10 7.5A1.5 1.5 0 0 0 11.5 9A1.5 1.5 0 0 0 13 7.5A1.5 1.5 0 0 0 11.5 6m-6 3A1.5 1.5 0 0 0 4 10.5A1.5 1.5 0 0 0 5.5 12A1.5 1.5 0 0 0 7 10.5A1.5 1.5 0 0 0 5.5 9m4 0A1.5 1.5 0 0 0 8 10.5A1.5 1.5 0 0 0 9.5 12a1.5 1.5 0 0 0 1.5-1.5A1.5 1.5 0 0 0 9.5 9m-2 3A1.5 1.5 0 0 0 6 13.5A1.5 1.5 0 0 0 7.5 15A1.5 1.5 0 0 0 9 13.5A1.5 1.5 0 0 0 7.5 12"/></symbol><symbol id="hd-icon-roentgen-grapes-3" viewBox="0 0 16 16"><path fill="currentColor" d="M7 2v2.055A2.5 2.5 0 0 1 7.5 4a2.5 2.5 0 0 1 .5.05V2zM3.5 5A1.5 1.5 0 0 0 2 6.5A1.5 1.5 0 0 0 3.5 8A1.5 1.5 0 0 0 5 6.5A1.5 1.5 0 0 0 3.5 5m4 0A1.5 1.5 0 0 0 6 6.5A1.5 1.5 0 0 0 7.5 8A1.5 1.5 0 0 0 9 6.5A1.5 1.5 0 0 0 7.5 5m4 0A1.5 1.5 0 0 0 10 6.5A1.5 1.5 0 0 0 11.5 8A1.5 1.5 0 0 0 13 6.5A1.5 1.5 0 0 0 11.5 5m-6 3A1.5 1.5 0 0 0 4 9.5A1.5 1.5 0 0 0 5.5 11A1.5 1.5 0 0 0 7 9.5A1.5 1.5 0 0 0 5.5 8m4 0A1.5 1.5 0 0 0 8 9.5A1.5 1.5 0 0 0 9.5 11A1.5 1.5 0 0 0 11 9.5A1.5 1.5 0 0 0 9.5 8m-2 3A1.5 1.5 0 0 0 6 12.5A1.5 1.5 0 0 0 7.5 14A1.5 1.5 0 0 0 9 12.5A1.5 1.5 0 0 0 7.5 11"/></symbol><symbol id="hd-icon-roentgen-greek-cross" viewBox="0 0 16 16"><path fill="currentColor" d="M6.5 3a.5.5 0 0 0-.5.5V6H3.5a.5.5 0 0 0-.5.5v3a.5.5 0 0 0 .499.5H6v2.5a.5.5 0 0 0 .499.5H9.5a.5.5 0 0 0 .5-.5V10h2.5a.5.5 0 0 0 .5-.5V6.501A.5.5 0 0 0 12.501 6H10V3.501A.5.5 0 0 0 9.501 3z"/></symbol><symbol id="hd-icon-roentgen-greek-cross-in-box" viewBox="0 0 16 16"><path fill="currentColor" d="M2.5 2a.5.5 0 0 0-.5.5v10a.5.5 0 0 0 .499.5H12.5a.5.5 0 0 0 .5-.5V2.501A.5.5 0 0 0 12.501 2zM6 4.5a.5.5 0 0 1 .499-.5H8.5a.5.5 0 0 1 .5.5V6h1.5a.5.5 0 0 1 .5.5v2a.5.5 0 0 1-.499.5H9v1.5a.5.5 0 0 1-.499.5H6.5a.5.5 0 0 1-.5-.5V9H4.5a.5.5 0 0 1-.5-.5V6.501A.5.5 0 0 1 4.499 6H6z"/></symbol><symbol id="hd-icon-roentgen-guidepost" viewBox="0 0 16 16"><path fill="currentColor" d="M7.5 2c-.277 0-.5.223-.5.5V3h2v-.5c0-.277-.223-.5-.5-.5zm-3 2a.5.5 0 0 0-.5.5v2a.5.5 0 0 0 .5.5h7a.5.5 0 0 0 .277-.084l1.5-1a.5.5 0 0 0 0-.832l-1.5-1A.5.5 0 0 0 11.5 4zM7 8v5.5c0 .277.223.5.5.5h1c.277 0 .5-.223.5-.5V8z"/></symbol><symbol id="hd-icon-roentgen-h" viewBox="0 0 16 16"><path fill="currentColor" d="M4.5 3c-.277 0-.5.223-.5.5v9c0 .277.223.5.5.5h1c.277 0 .5-.223.5-.5V9h4v3.5c0 .277.223.5.5.5h1c.277 0 .5-.223.5-.5v-9c0-.277-.223-.5-.5-.5h-1c-.277 0-.5.223-.5.5V7H6V3.5c0-.277-.223-.5-.5-.5z"/></symbol><symbol id="hd-icon-roentgen-hanger" viewBox="0 0 16 16"><path fill="currentColor" d="M7.975 1C6.985 1.012 6 1.816 6 3a.5.5 0 0 0 1 0c0-.455.3-.849.74-.967a.996.996 0 0 1 1.125.467a.996.996 0 0 1-.152 1.201l-.006.006c-.316.305-.586.539-.809.803a1.65 1.65 0 0 0-.378.754c-.861.772-2.056 1.012-3.178 1.386c-.59.197-1.166.436-1.617.887C2.273 7.99 2 8.653 2 9.5v1a.5.5 0 0 0 1 0V10h2v3.5a.5.5 0 0 0 .5.5h5a.5.5 0 0 0 .5-.5V10h2v.5a.5.5 0 0 0 1 0v-1c0-.847-.273-1.511-.725-1.963s-1.028-.69-1.617-.887c-1.096-.365-2.261-.602-3.117-1.332c.024-.043.062-.093.121-.164c.145-.172.41-.41.746-.734l.026-.027c.62-.64.745-1.62.298-2.393a2.01 2.01 0 0 0-1.757-1M8 6.074c1.08.883 2.37 1.202 3.342 1.526c.536.178.96.377 1.226.644c.188.188.324.413.389.756H11v-.5a.5.5 0 0 0-.5-.5h-5a.5.5 0 0 0-.5.5V9H3.043c.065-.343.2-.568.389-.756c.267-.267.69-.466 1.226-.644C5.63 7.276 6.92 6.957 8 6.074"/></symbol><symbol id="hd-icon-roentgen-hi-fi" viewBox="0 0 16 16"><path fill="currentColor" d="M5 1a1 1 0 0 0-1 1v11a1 1 0 0 0 .998 1H11a1 1 0 0 0 1-1V2a1 1 0 0 0-.998-1zm2 3a1 1 0 1 1 2 0a1 1 0 0 1-2 0m-2 6a3 3 0 1 1 6 0a3 3 0 0 1-6 0m3-1a1 1 0 1 0 0 2a1 1 0 0 0 0-2"/></symbol><symbol id="hd-icon-roentgen-historic" viewBox="0 0 16 16"><path fill="currentColor" d="M2.586 2.586A2 2 0 0 0 4 6h1v4H4a2 2 0 1 0 2 2v-1h4v1a2 2 0 1 0 2-2h-1V6h1a2 2 0 1 0-2-2v1H6V4a2 2 0 0 0-3.414-1.414M4 3a1 1 0 0 1 1 1v1H4a1 1 0 1 1 0-2m8 0a1 1 0 1 1 0 2h-1V4a1 1 0 0 1 1-1M6 6h4v4H6zm-2 5h1v1a1 1 0 1 1-1-1m7 0h1a1 1 0 1 1-1 1z"/></symbol><symbol id="hd-icon-roentgen-hopscotch" viewBox="0 0 16 16"><path fill="currentColor" d="M5.5 1a.5.5 0 0 0-.5.5V5H3.5a.5.5 0 0 0-.5.5v4a.5.5 0 0 0 .5.5H5v3.5a.5.5 0 0 0 .5.5h4a.5.5 0 0 0 .5-.5V10h1.5a.5.5 0 0 0 .5-.5v-4a.5.5 0 0 0-.5-.5H10V1.5a.5.5 0 0 0-.5-.5zM6 2h3v3H6zM4 6h3v3H4zm4 0h3v3H8zm-2 4h3v3H6z"/></symbol><symbol id="hd-icon-roentgen-horizontal-bar" viewBox="0 0 16 16"><path fill="currentColor" d="M3.5 2c-.277 0-.5.223-.5.5v11c0 .277.223.5.5.5h1c.277 0 .5-.223.5-.5V4h6v9.5c0 .277.223.5.5.5h1c.277 0 .5-.223.5-.5v-11c0-.277-.223-.5-.5-.5h-1c-.277 0-.5.223-.5.5V3H5v-.5c0-.277-.223-.5-.5-.5z"/></symbol><symbol id="hd-icon-roentgen-horizontal-ladder" viewBox="0 0 16 16"><path fill="currentColor" d="M3.5 4c-.667 0-1.275.318-1.728.771C1.318 5.225 1 5.834 1 6.5a.5.5 0 0 0 .5.5a.5.5 0 0 0 .5-.5c0-.333.182-.725.478-1.021C2.776 5.182 3.168 5 3.5 5H4v4h-.5c-.667 0-1.275.318-1.728.771C1.318 10.226 1 10.833 1 11.5a.5.5 0 0 0 .5.5a.5.5 0 0 0 .5-.5c0-.333.182-.725.478-1.021c.297-.297.689-.479 1.022-.479h8c.333 0 .725.182 1.021.479c.297.296.479.688.479 1.021a.5.5 0 0 0 .5.5a.5.5 0 0 0 .5-.5c0-.667-.318-1.275-.771-1.729C12.775 9.319 12.167 9 11.5 9H11V5h.5c.333 0 .725.182 1.021.479c.297.296.479.688.479 1.021a.5.5 0 0 0 .5.5a.5.5 0 0 0 .5-.5c0-.667-.318-1.275-.771-1.729C12.775 4.318 12.167 4 11.5 4zM5 5h2v4H5zm3 0h2v4H8z"/></symbol><symbol id="hd-icon-roentgen-houseboat" viewBox="0 0 16 16"><path fill="currentColor" d="M1.5 3a.499.499 0 1 0 0 1H2v5h-.5a.499.499 0 1 0 0 1h12a.499.499 0 1 0 0-1H11V4h2.5a.499.499 0 1 0 0-1zm2 2h2c.277 0 .5.223.5.5v1c0 .277-.223.5-.5.5h-2a.5.5 0 0 1-.5-.5v-1c0-.277.223-.5.5-.5m4 0h2c.277 0 .5.223.5.5v1c0 .277-.223.5-.5.5h-2a.5.5 0 0 1-.5-.5v-1c0-.277.223-.5.5-.5m-4.853 6.397c-.442.44-.814.603-1.147.603a.5.5 0 0 0 0 1c.54 0 1.027-.344 1.5-.725c.47.379.956.725 1.5.725c.54 0 1.027-.344 1.5-.725c.473.38.96.725 1.5.725s1.027-.344 1.5-.725c.47.379.956.725 1.5.725c.54 0 1.027-.344 1.5-.725c.473.38.96.725 1.5.725a.5.5 0 0 0 0-1c-.333 0-.705-.162-1.146-.604a.5.5 0 0 0-.707 0c-.442.442-.814.604-1.147.604c-.328 0-.714-.171-1.146-.604a.5.5 0 0 0-.707 0c-.442.442-.814.604-1.147.604s-.705-.162-1.146-.604a.5.5 0 0 0-.708 0c-.44.442-.813.604-1.146.604c-.328 0-.714-.171-1.146-.604a.5.5 0 0 0-.707 0"/></symbol><symbol id="hd-icon-roentgen-human" viewBox="0 0 16 16"><path fill="currentColor" d="M8 2c-.554 0-1 .446-1 1s.446 1 1 1s1-.446 1-1s-.446-1-1-1M6.5 5c-.277 0-.5.223-.5.5v2c0 .277.223.5.5.5H7v4.5c0 .277.223.5.5.5h1c.277 0 .5-.223.5-.5V8h.5c.277 0 .5-.223.5-.5v-2c0-.277-.223-.5-.5-.5z"/></symbol><symbol id="hd-icon-roentgen-human-on-ferry" viewBox="0 0 16 16"><path fill="currentColor" d="M5 1a1 1 0 1 0 0 2a1 1 0 0 0 0-2m5 0a1 1 0 1 0 0 2a1 1 0 0 0 0-2M3.5 4c-.277 0-.5.223-.5.5v2c0 .277.223.5.5.5H4v2H1.5c-.527.001-.694.711-.223.947l2 1A.5.5 0 0 0 3.5 11h8a.5.5 0 0 0 .223-.053l2-1c.471-.236.304-.946-.223-.947H11V7h.5c.277 0 .5-.223.5-.5v-2c0-.277-.223-.5-.5-.5h-3c-.277 0-.5.223-.5.5v2c0 .277.223.5.5.5H9v2H6V7h.5c.277 0 .5-.223.5-.5v-2c0-.277-.223-.5-.5-.5zm-.853 8.397c-.442.44-.814.603-1.147.603a.5.5 0 0 0 0 1c.54 0 1.027-.344 1.5-.725c.47.379.956.725 1.5.725c.54 0 1.027-.344 1.5-.725c.473.38.96.725 1.5.725s1.027-.344 1.5-.725c.47.379.956.725 1.5.725c.54 0 1.027-.344 1.5-.725c.473.38.96.725 1.5.725a.5.5 0 0 0 0-1c-.333 0-.705-.162-1.146-.604a.5.5 0 0 0-.707 0c-.442.442-.814.604-1.147.604c-.328 0-.714-.171-1.146-.604a.5.5 0 0 0-.707 0c-.442.442-.814.604-1.147.604s-.705-.162-1.146-.604a.5.5 0 0 0-.708 0c-.44.442-.813.604-1.146.604c-.328 0-.714-.171-1.146-.604a.5.5 0 0 0-.707 0"/></symbol><symbol id="hd-icon-roentgen-hump" viewBox="0 0 16 16"><path fill="currentColor" d="M8 6c-1.611 0-2.521.58-3.324 1.074S3.155 8 1.5 8a.5.5 0 0 0 0 1h13a.5.5 0 0 0 0-1c-1.655 0-2.373-.432-3.176-.926S9.611 6 8 6"/></symbol><symbol id="hd-icon-roentgen-hunting-stand" viewBox="0 0 16 16"><path fill="currentColor" d="M12.5 1a.5.5 0 0 0-.119.014L3.401 3.01a.5.5 0 1 0 .218.976L4 3.901V9a1 1 0 0 0 .891.994l-.879 4.398a.5.5 0 1 0 .98.197l.041-.206L8 12.593l2.967 1.79l.041.206a.5.5 0 1 0 .98-.197l-.879-4.398A1 1 0 0 0 12 9V2.123l.599-.133A.5.5 0 0 0 12.5 1M5 7V5h6v2zm.881 3.146L5.91 10h4.18l.029.146L8 11.425zm3.087 1.863l1.36-.821l.373 1.867zm-3.669 1.046l.373-1.867l1.36.821z"/></symbol><symbol id="hd-icon-roentgen-i" viewBox="0 0 16 16"><path fill="currentColor" d="M6.5 2a.5.5 0 0 0-.5.5v2a.5.5 0 0 0 .499.5H8.5a.5.5 0 0 0 .5-.5V2.501A.5.5 0 0 0 8.501 2zm-1 5a.5.5 0 0 0-.001 1H6v5h-.5a.5.5 0 0 0-.001 1H9.5a.5.5 0 0 0 .001-1H9V7.501A.5.5 0 0 0 8.501 7z"/></symbol><symbol id="hd-icon-roentgen-i-in-square" viewBox="0 0 16 16"><path fill="currentColor" d="M3.5 3a.5.5 0 0 0-.5.5v8a.5.5 0 0 0 .499.5H12.5a.5.5 0 0 0 .5-.5V3.501A.5.5 0 0 0 12.501 3zm3.999 1H8.5a.5.5 0 0 1 .5.5v1a.5.5 0 0 1-.499.5H7.5a.5.5 0 0 1-.5-.5v-.999A.5.5 0 0 1 7.499 4m-.5 3H8.5a.5.5 0 0 1 .5.5V10a.5.5 0 1 1 0 1H7a.5.5 0 0 1-.001-1L7 8a.5.5 0 0 1-.001-1"/></symbol><symbol id="hd-icon-roentgen-i-in-square-support-column" viewBox="0 0 16 16"><path fill="currentColor" d="M4.5 3a.5.5 0 0 0-.5.5v8a.5.5 0 0 0 .499.5H13.5a.5.5 0 0 0 .5-.5V3.501A.5.5 0 0 0 13.501 3zm3.999 1H9.5a.5.5 0 0 1 .5.5v1a.5.5 0 0 1-.499.5H8.5a.5.5 0 0 1-.5-.5v-.999A.5.5 0 0 1 8.499 4m-.5 3H9.5a.5.5 0 0 1 .5.5V10a.5.5 0 1 1 0 1H8a.5.5 0 0 1-.001-1L8 8a.5.5 0 0 1-.001-1"/><path fill="currentColor" d="M1.5 5c-.277 0-.5.223-.5.5v9c0 .277.223.5.5.5h1c.277 0 .5-.223.5-.5V10h1.5a.499.499 0 1 0 0-1H3V6h1.5a.499.499 0 1 0 0-1z"/></symbol><symbol id="hd-icon-roentgen-i-in-square-support-pole" viewBox="0 0 16 16"><path fill="currentColor" d="M4.5 3a.5.5 0 0 0-.5.5v8a.5.5 0 0 0 .499.5H13.5a.5.5 0 0 0 .5-.5V3.501A.5.5 0 0 0 13.501 3zm3.999 1H9.5a.5.5 0 0 1 .5.5v1a.5.5 0 0 1-.499.5H8.5a.5.5 0 0 1-.5-.5v-.999A.5.5 0 0 1 8.499 4m-.5 3H9.5a.5.5 0 0 1 .5.5V10a.5.5 0 1 1 0 1H8a.5.5 0 0 1-.001-1L8 8a.5.5 0 0 1-.001-1"/><path fill="currentColor" d="M2.5 5c-.277 0-.5.223-.5.5v9a.499.499 0 1 0 1 0V10h1.5a.499.499 0 1 0 0-1H3V6h1.5a.499.499 0 1 0 0-1z"/></symbol><symbol id="hd-icon-roentgen-i-in-square-support-wall" viewBox="0 0 16 16"><path fill="currentColor" d="M4.5 3a.5.5 0 0 0-.5.5v8a.5.5 0 0 0 .499.5H13.5a.5.5 0 0 0 .5-.5V3.501A.5.5 0 0 0 13.501 3zm3.999 1H9.5a.5.5 0 0 1 .5.5v1a.5.5 0 0 1-.499.5H8.5a.5.5 0 0 1-.5-.5v-.999A.5.5 0 0 1 8.499 4m-.5 3H9.5a.5.5 0 0 1 .5.5V10a.5.5 0 1 1 0 1H8a.5.5 0 0 1-.001-1L8 8a.5.5 0 0 1-.001-1"/><path fill="currentColor" d="M2.5 3c-.277 0-.5.223-.5.5v8a.499.499 0 1 0 1 0V10h1.5a.499.499 0 1 0 0-1H3V6h1.5a.499.499 0 1 0 0-1H3V3.5c0-.277-.223-.5-.5-.5"/></symbol><symbol id="hd-icon-roentgen-ice-cream" viewBox="0 0 16 16"><path fill="currentColor" d="M8 1a3 3 0 0 0-3 3v6.5a.5.5 0 0 0 .499.5H7v3a1 1 0 0 0 2 0v-3h1.5a.5.5 0 0 0 .5-.5V4.002A3 3 0 0 0 8 1M6 6a1 1 0 0 1 2 0v2.5a.5.5 0 0 0 1 0v-.999a.5.5 0 1 1 1-.001V10H6z"/></symbol><symbol id="hd-icon-roentgen-ice-cream-2" viewBox="0 0 16 16"><path fill="currentColor" d="M8 1a2 2 0 0 0-2 2a2 2 0 0 0-1.732 3h7.464A2 2 0 0 0 10 3a2 2 0 0 0-2-2M4.67 7l2.871 6.697a.5.5 0 0 0 .918 0L11.33 7z"/></symbol><symbol id="hd-icon-roentgen-japan-castle" viewBox="0 0 16 16"><path fill="currentColor" d="M5.5 3c-.277 0-.5.223-.5.5V7H2.5c-.277 0-.5.223-.5.5v5c0 .277.223.5.5.5h1c.277 0 .5-.223.5-.5V9h2.5c.277 0 .5-.223.5-.5V5h2v3.5c0 .277.223.5.5.5H12v3.5c0 .277.223.5.5.5h1c.277 0 .5-.223.5-.5v-5c0-.277-.223-.5-.5-.5H11V3.5c0-.277-.223-.5-.5-.5z"/></symbol><symbol id="hd-icon-roentgen-japan-court" viewBox="0 0 16 16"><path fill="currentColor" d="M7.566 2.09L1.701 12.25a.5.5 0 0 0 .434.75H7v1.5c0 .277.223.5.5.5h1c.277 0 .5-.223.5-.5V13h4.865a.5.5 0 0 0 .434-.75L8.434 2.09a.502.502 0 0 0-.868 0M8 5.34L11.268 11H4.732z"/></symbol><symbol id="hd-icon-roentgen-japan-elementary-school" viewBox="0 0 16 16"><path fill="currentColor" d="M7.5 2c-.277 0-.5.223-.5.5V4H2.5c-.277 0-.5.223-.5.5v1c0 .277.223.5.5.5h.92a21 21 0 0 0 3.103 4.082a23 23 0 0 1-3 2.04l-.023.013a.497.497 0 0 0-.184.681l.5.868a.5.5 0 0 0 .684.181l.023-.013A24.6 24.6 0 0 0 8 11.443a24.6 24.6 0 0 0 3.477 2.409l.023.013a.5.5 0 0 0 .684-.181l.5-.868a.497.497 0 0 0-.184-.681a23 23 0 0 1-3.023-2.053A21 21 0 0 0 12.58 6h.92c.277 0 .5-.223.5-.5v-1c0-.277-.223-.5-.5-.5H9V2.5c0-.277-.223-.5-.5-.5zM5.777 6h4.446C9.56 7 8.835 7.907 8 8.75A18 18 0 0 1 5.777 6"/></symbol><symbol id="hd-icon-roentgen-japan-fire-station" viewBox="0 0 16 16"><path fill="currentColor" d="M2.5 2.5c-.277 0-.5.223-.5.5a6.04 6.04 0 0 0 3 5.195a6 6 0 0 0 2 .72V13.5c0 .277.223.5.5.5h1c.277 0 .5-.223.5-.5V8.914a6 6 0 0 0 2-.719A6.02 6.02 0 0 0 14 3c0-.277-.223-.5-.5-.5h-1c-.277 0-.5.223-.5.5c0 1.43-.761 2.75-2 3.465a4 4 0 0 1-4 0A4 4 0 0 1 4 3c0-.277-.223-.5-.5-.5z"/></symbol><symbol id="hd-icon-roentgen-japan-forest-service" viewBox="0 0 16 16"><path fill="currentColor" d="M2.5 1.5c-.277 0-.5.223-.5.5a5.96 5.96 0 0 0 3.602 5.498A7 7 0 0 0 5 7.803C3.124 8.85 2 10.799 2 13c0 .277.223.5.5.5h1c.277 0 .5-.223.5-.5a4 4 0 0 1 3-3.875V13c0 .277.223.5.5.5h1c.277 0 .5-.223.5-.5V9.125A4.005 4.005 0 0 1 12 13c0 .277.223.5.5.5h1c.277 0 .5-.223.5-.5c0-2.201-1.144-4.14-3-5.197a6 6 0 0 0-.602-.305q.307-.134.602-.303c1.88-1.07 3-3.067 3-5.195c0-.277-.223-.5-.5-.5h-1c-.277 0-.5.223-.5.5a4 4 0 0 1-3 3.875V2c0-.277-.223-.5-.5-.5h-1c-.277 0-.5.223-.5.5v3.875A4.005 4.005 0 0 1 4 2c0-.277-.223-.5-.5-.5z"/></symbol><symbol id="hd-icon-roentgen-japan-historic" viewBox="0 0 16 16"><path fill="currentColor" d="M7.5 3A1.5 1.5 0 0 0 6 4.5A1.5 1.5 0 0 0 7.5 6A1.5 1.5 0 0 0 9 4.5A1.5 1.5 0 0 0 7.5 3m-4 7A1.5 1.5 0 0 0 2 11.5A1.5 1.5 0 0 0 3.5 13A1.5 1.5 0 0 0 5 11.5A1.5 1.5 0 0 0 3.5 10m8 0a1.5 1.5 0 0 0-1.5 1.5a1.5 1.5 0 0 0 1.5 1.5a1.5 1.5 0 0 0 1.5-1.5a1.5 1.5 0 0 0-1.5-1.5"/></symbol><symbol id="hd-icon-roentgen-japan-koban" viewBox="0 0 16 16"><path fill="currentColor" d="m11.615 12.926l.787-.617a.5.5 0 0 0 .086-.704L9.271 7.5l3.217-4.108a.5.5 0 0 0-.086-.7l-.787-.618a.5.5 0 0 0-.7.086L8 5.877L5.088 2.16a.5.5 0 0 0-.703-.086l-.787.617a.5.5 0 0 0-.086.704L6.729 7.5l-3.217 4.105a.5.5 0 0 0 .086.704l.787.617a.5.5 0 0 0 .703-.086L8 9.12l2.914 3.719c.178.227.492.25.701.086"/></symbol><symbol id="hd-icon-roentgen-japan-police-station" viewBox="0 0 16 16"><path fill="currentColor" d="M8 2C4.698 2 2 4.698 2 8s2.698 6 6 6s6-2.698 6-6s-2.698-6-6-6m0 2c.744 0 1.43.214 2.023.563L8 6.586L5.977 4.562A4 4 0 0 1 8 4M4.563 5.977L6.586 8l-2.024 2.023A4 4 0 0 1 4 8c0-.744.214-1.43.563-2.023m6.875 0A4 4 0 0 1 12 8a4 4 0 0 1-.562 2.023L9.414 8zM8 9.414l2.023 2.024A4 4 0 0 1 8 12a4 4 0 0 1-2.023-.562z"/></symbol><symbol id="hd-icon-roentgen-japan-post" viewBox="0 0 16 16"><path fill="currentColor" d="M3.5 3c-.277 0-.5.223-.5.5v1c0 .277.223.5.5.5h9c.277 0 .5-.223.5-.5v-1c0-.277-.223-.5-.5-.5zm0 4c-.277 0-.5.223-.5.5v1c0 .277.223.5.5.5H7v3.5c0 .277.223.5.5.5h1c.277 0 .5-.223.5-.5V9h3.5c.277 0 .5-.223.5-.5v-1c0-.277-.223-.5-.5-.5z"/></symbol><symbol id="hd-icon-roentgen-japan-public-health-center" viewBox="0 0 16 16"><path fill="currentColor" d="M13.993 8.002a5.98 5.98 0 0 0-1.75-4.244c-2.335-2.334-6.152-2.334-8.487 0s-2.334 6.152 0 8.487s6.152 2.334 8.487 0a5.98 5.98 0 0 0 1.75-4.242m-1.987 0a4 4 0 0 1-1.177 2.828a3.986 3.986 0 0 1-5.659 0a3.984 3.984 0 0 1 0-5.657a3.986 3.986 0 0 1 5.659 0a4 4 0 0 1 1.177 2.828m-1.005-.5a.5.5 0 0 0-.5-.5H9v-1.5a.5.5 0 0 0-.5-.5h-1c-.278 0-.5.224-.5.5v1.5H5.5c-.278 0-.5.224-.5.5v1c0 .277.222.5.5.5H7v1.5c0 .277.222.5.5.5h1c.277 0 .5-.223.5-.5v-1.5h1.5c.277 0 .5-.223.5-.5z"/></symbol><symbol id="hd-icon-roentgen-japan-shinto-shrine" viewBox="0 0 16 16"><path fill="currentColor" d="M2.5 2c-.277 0-.5.223-.5.5v1c0 .277.223.5.5.5H3v8.5c0 .277.223.5.5.5h1c.277 0 .5-.223.5-.5V7h6v5.5c0 .277.223.5.5.5h1c.277 0 .5-.223.5-.5V4h.5c.277 0 .5-.223.5-.5v-1c0-.277-.223-.5-.5-.5zM5 4h6v1H5z"/></symbol><symbol id="hd-icon-roentgen-japan-tv-tower" viewBox="0 0 16 16"><path fill="currentColor" d="m13.768 2.94l-.708-.708a.5.5 0 0 0-.707 0L10.587 4H5.414L3.647 2.232a.5.5 0 0 0-.707 0l-.708.707a.5.5 0 0 0 0 .708L4 5.414v5.172l-1.768 1.768a.5.5 0 0 0 0 .707l.707.707a.5.5 0 0 0 .708 0L5.414 12h5.172l1.768 1.768a.5.5 0 0 0 .707 0l.707-.708a.5.5 0 0 0 0-.707L12 10.587V5.414l1.768-1.767a.5.5 0 0 0 0-.707M10 6v4H6V6z"/></symbol><symbol id="hd-icon-roentgen-japan-weather-station" viewBox="0 0 16 16"><path fill="currentColor" d="M2.5 3c-.277 0-.5.223-.5.5v3c0 .277.223.5.5.5h1c.277 0 .5-.223.5-.5V6h3v7.5c0 .277.223.5.5.5h1c.277 0 .5-.223.5-.5V6h3v.5c0 .277.223.5.5.5h1c.277 0 .5-.223.5-.5v-3c0-.277-.223-.5-.5-.5h-1c-.277 0-.5.223-.5.5V4H4v-.5c0-.277-.223-.5-.5-.5z"/></symbol><symbol id="hd-icon-roentgen-japan-well" viewBox="0 0 16 16"><path fill="currentColor" d="M3.5 2c-.277 0-.5.223-.5.5V3h-.5c-.277 0-.5.223-.5.5v1c0 .277.223.5.5.5H3v5h-.5c-.277 0-.5.223-.5.5v1c0 .277.223.5.5.5H3v.5c0 .277.223.5.5.5h1c.277 0 .5-.223.5-.5V12h5v.5c0 .277.223.5.5.5h1c.277 0 .5-.223.5-.5V12h.5c.277 0 .5-.223.5-.5v-1c0-.277-.223-.5-.5-.5H12V5h.5c.277 0 .5-.223.5-.5v-1c0-.277-.223-.5-.5-.5H12v-.5c0-.277-.223-.5-.5-.5h-1c-.277 0-.5.223-.5.5V3H5v-.5c0-.277-.223-.5-.5-.5zM5 5h5v5H5z"/></symbol><symbol id="hd-icon-roentgen-kerb" viewBox="0 0 16 16"><path fill="currentColor" d="M1.424 6C1.189 6 1 6.223 1 6.5v2c0 .277.189.5.424.5h13.092A.49.49 0 0 0 15 8.5c0-.277-.216-.5-.484-.5H8V6.5c0-.277-.189-.5-.424-.5z"/></symbol><symbol id="hd-icon-roentgen-kiosk" viewBox="0 0 16 16"><path fill="currentColor" d="M4.5 1a.5.5 0 0 0-.354.147l-3 3A.5.5 0 0 0 1.5 5h12a.5.5 0 0 0 .354-.854l-3-3A.5.5 0 0 0 10.5 1H9.107l1.928 3H8.678l-.643-3h-1.07l-.643 3H3.965l1.928-3zM2 6v8c0 .554.446 1 1 1h9c.554 0 1-.446 1-1V6zm1.75 2h1.5c.415 0 .75.335.75.75v4.5c0 .415-.335.75-.75.75h-1.5a.75.75 0 0 1-.75-.75v-4.5c0-.415.334-.75.75-.75M9 8h2c.554 0 1 .446 1 1v2c0 .554-.446 1-1 1H9c-.554 0-1-.446-1-1V9c0-.554.446-1 1-1"/></symbol><symbol id="hd-icon-roentgen-knives" viewBox="0 0 16 16"><path fill="currentColor" d="M3.523 1A.497.497 0 0 0 3 1.5v12a.5.5 0 0 0 .5.5h1a.5.5 0 0 0 .5-.5v-1c0-1.743-.396-2.814-.717-3.5H6.5a.5.5 0 0 0 .5-.5c0-2.306-.386-3.894-.996-5.047S4.559 1.605 3.777 1.084A.5.5 0 0 0 3.523 1M10.5 1c-.417 0-.775.193-1.041.459S9 2.083 9 2.5v6a.5.5 0 0 0 .5.5h2.217c-.321.686-.717 1.757-.717 3.5v1a.5.5 0 0 0 .5.5h1a.5.5 0 0 0 .5-.5v-12a.5.5 0 0 0-.5-.5zm1 .793a.707.707 0 0 1 .707.707a.707.707 0 0 1-.707.707a.707.707 0 0 1-.707-.707a.707.707 0 0 1 .707-.707"/></symbol><symbol id="hd-icon-roentgen-lander" viewBox="0 0 16 16"><path fill="currentColor" d="M7.5 2a.5.5 0 0 0-.354.146l-1.999 2A.5.5 0 0 0 5 4.5v1a.5.5 0 0 0 .499.5H7v1H3.5a.5.5 0 0 0-.492.411L2.09 12H1.5a.5.5 0 0 0-.001 1H3.5a.5.5 0 0 0 .001-1H3.11l.8-4H5v2a1 1 0 0 0 .998 1H10a1 1 0 0 0 1-1V8h1.09l.8 4h-.39a.5.5 0 0 0-.001 1H14.5a.5.5 0 0 0 .001-1h-.591l-.918-4.589A.5.5 0 0 0 12.501 7H9V6h1.5a.5.5 0 0 0 .5-.5v-.999a.5.5 0 0 0-.146-.355l-2-1.999A.5.5 0 0 0 8.501 2z"/></symbol><symbol id="hd-icon-roentgen-latin-cross" viewBox="0 0 16 16"><path fill="currentColor" d="M7.5 1a.5.5 0 0 0-.5.5V5H3.5a.5.5 0 0 0-.5.5v1a.5.5 0 0 0 .499.5H7v7.5a.5.5 0 0 0 .499.5H8.5a.5.5 0 0 0 .5-.5V7h3.5a.5.5 0 0 0 .5-.5v-.999A.5.5 0 0 0 12.501 5H9V1.501A.5.5 0 0 0 8.501 1z"/></symbol><symbol id="hd-icon-roentgen-lattice" viewBox="0 0 16 16"><path fill="currentColor" d="M6 2.569V13.43c0 .476.532.748.896.383L8 12.707v.793c-.01.676 1.01.676 1 0v-11a.5.5 0 1 0-1 0v.793L6.898 2.191C6.536 1.83 6 2.051 6 2.57m1 1.138l1 1v.586l-1 1zm1 3v2.586l-1-1v-.586zm-1 3l1 1v.586l-1 1z"/></symbol><symbol id="hd-icon-roentgen-lattice-dish-antenna-left-dish-antenna-right" viewBox="0 0 16 16"><path fill="currentColor" d="M6 2.569V13.43c0 .476.532.748.896.383L8 12.707v.793c-.01.676 1.01.676 1 0v-11a.5.5 0 1 0-1 0v.793L6.898 2.191C6.536 1.83 6 2.051 6 2.57m1 1.138l1 1v.586l-1 1zm1 3v2.586l-1-1v-.586zm-1 3l1 1v.586l-1 1z"/><path fill="currentColor" d="M3.445 1.217c.89.414 1.302 1.447 1.225 2.576c-.01.26-.073.514-.154.756c.364.281 1.547 1.196 2.195 1.498c.578.29.172 1.161-.422.906c-.647-.301-2.106-.618-2.558-.717c-.153.21-.298.43-.479.604c-.815.786-1.872 1.136-2.762.723a.5.5 0 0 1-.242-.664l1.266-2.721L2.78 1.459a.5.5 0 0 1 .664-.242m8.111 0c-.89.414-1.302 1.447-1.225 2.576c.01.26.064.516.154.756c-.364.281-1.546 1.196-2.195 1.498c-.578.29-.172 1.161.422.906c.647-.301 2.106-.618 2.559-.717c.152.21.297.43.478.604c.815.786 1.872 1.136 2.762.723a.5.5 0 0 0 .242-.664l-1.266-2.721l-1.267-2.719a.5.5 0 0 0-.664-.242"/></symbol><symbol id="hd-icon-roentgen-lattice-guyed" viewBox="0 0 16 16"><path fill="currentColor" d="M6.5 2a.49.49 0 0 0-.5.5v5.825l-3.89 4.863c-.417.52.364 1.146.78.625L6 9.923v3.507c0 .57.5.754.884.382A150 150 0 0 0 8 12.707v.793c-.01.676 1.01.676 1 0V9.926l3.11 3.887c.416.52 1.197-.105.78-.626L9 8.325V2.5a.5.5 0 1 0-1 0v.793L6.898 2.191C6.786 2.08 6.663 2 6.5 2M7 3.707l1 1v.586l-1 1zm1 3v2.586l-1-1v-.586zm-1 3l1 1v.586l-1 1z"/></symbol><symbol id="hd-icon-roentgen-lattice-guyed-dish-antenna-left-dish-antenna-right" viewBox="0 0 16 16"><path fill="currentColor" d="M6.5 2a.49.49 0 0 0-.5.5v5.825l-3.89 4.863c-.417.52.364 1.146.78.625L6 9.923v3.507c0 .57.5.754.884.382A150 150 0 0 0 8 12.707v.793c-.01.676 1.01.676 1 0V9.926l3.11 3.887c.416.52 1.197-.105.78-.626L9 8.325V2.5a.5.5 0 1 0-1 0v.793L6.898 2.191C6.786 2.08 6.663 2 6.5 2M7 3.707l1 1v.586l-1 1zm1 3v2.586l-1-1v-.586zm-1 3l1 1v.586l-1 1z"/><path fill="currentColor" d="M3.445 1.217c.89.414 1.302 1.447 1.225 2.576c-.01.26-.073.514-.154.756c.364.281 1.547 1.196 2.195 1.498c.578.29.172 1.161-.422.906c-.647-.301-2.106-.618-2.558-.717c-.153.21-.298.43-.479.604c-.815.786-1.872 1.136-2.762.723a.5.5 0 0 1-.242-.664l1.266-2.721L2.78 1.459a.5.5 0 0 1 .664-.242m8.111 0c-.89.414-1.302 1.447-1.225 2.576c.01.26.064.516.154.756c-.364.281-1.546 1.196-2.195 1.498c-.578.29-.172 1.161.422.906c.647-.301 2.106-.618 2.559-.717c.152.21.297.43.478.604c.815.786 1.872 1.136 2.762.723a.5.5 0 0 0 .242-.664l-1.266-2.721l-1.267-2.719a.5.5 0 0 0-.664-.242"/></symbol><symbol id="hd-icon-roentgen-lattice-guyed-light-left-light-right" viewBox="0 0 16 16"><path fill="currentColor" d="M6.5 2a.49.49 0 0 0-.5.5v5.825l-3.89 4.863c-.417.52.364 1.146.78.625L6 9.923v3.507c0 .57.5.754.884.382A150 150 0 0 0 8 12.707v.793c-.01.676 1.01.676 1 0V9.926l3.11 3.887c.416.52 1.197-.105.78-.626L9 8.325V2.5a.5.5 0 1 0-1 0v.793L6.898 2.191C6.786 2.08 6.663 2 6.5 2M7 3.707l1 1v.586l-1 1zm1 3v2.586l-1-1v-.586zm-1 3l1 1v.586l-1 1z"/><path fill="currentColor" d="m2.277 2.947l2 1c.609.335 1.08-.61.446-.894l-2-1c-.57-.298-1.07.596-.446.894m2 2.106l-2 1c-.634.284-.163 1.23.446.894l2-1c.625-.299.123-1.19-.446-.894m8-3l-2 1c-.634.284-.163 1.23.446.894l2-1c.625-.299.123-1.19-.446-.894m-2 3.894l2 1c.609.335 1.08-.61.446-.894l-2-1c-.57-.298-1.07.596-.446.894"/></symbol><symbol id="hd-icon-roentgen-lattice-guyed-siren-left-siren-right" viewBox="0 0 16 16"><path fill="currentColor" d="M6.5 2a.49.49 0 0 0-.5.5v5.825l-3.89 4.863c-.417.52.364 1.146.78.625L6 9.923v3.507c0 .57.5.754.884.382A150 150 0 0 0 8 12.707v.793c-.01.676 1.01.676 1 0V9.926l3.11 3.887c.416.52 1.197-.105.78-.626L9 8.325V2.5a.5.5 0 1 0-1 0v.793L6.898 2.191C6.786 2.08 6.663 2 6.5 2M7 3.707l1 1v.586l-1 1zm1 3v2.586l-1-1v-.586zm-1 3l1 1v.586l-1 1z"/><path fill="currentColor" d="M2.025 2.658c.48 1.437.48 2.247 0 3.684c-.167.5.455.885.829.512C4.313 5.393 5.11 5 6.5 5a.5.5 0 0 0 0-1c-1.389 0-2.186-.393-3.646-1.853c-.37-.37-.995.014-.829.511m10.122-.511C10.707 3.585 9.868 4 8.5 4a.5.5 0 1 0 0 1c1.389 0 2.186.393 3.646 1.854c.374.373.996-.011.829-.512c-.48-1.437-.48-2.247 0-3.684c.166-.502-.465-.873-.828-.511"/></symbol><symbol id="hd-icon-roentgen-lattice-guyed-wave-left-wave-right" viewBox="0 0 16 16"><path fill="currentColor" d="M6.5 2a.49.49 0 0 0-.5.5v5.825l-3.89 4.863c-.417.52.364 1.146.78.625L6 9.923v3.507c0 .57.5.754.884.382A150 150 0 0 0 8 12.707v.793c-.01.676 1.01.676 1 0V9.926l3.11 3.887c.416.52 1.197-.105.78-.626L9 8.325V2.5a.5.5 0 1 0-1 0v.793L6.898 2.191C6.786 2.08 6.663 2 6.5 2M7 3.707l1 1v.586l-1 1zm1 3v2.586l-1-1v-.586zm-1 3l1 1v.586l-1 1z"/><path fill="currentColor" d="M3.025 2.025a3.5 3.5 0 0 0 0 4.95c.472.49 1.198-.236.707-.707a2.5 2.5 0 0 1 0-3.536c.488-.472-.253-1.175-.707-.707M4.44 3.44a1.5 1.5 0 0 0 0 2.122c.472.49 1.198-.236.707-.707a.5.5 0 0 1 0-.708c.488-.471-.253-1.175-.707-.707m6.828-.708a2.5 2.5 0 0 1 0 3.536c-.491.47.235 1.197.707.707a3.5 3.5 0 0 0 0-4.95c-.454-.468-1.195.236-.707.707M9.853 4.146a.5.5 0 0 1 0 .708c-.49.47.236 1.197.708.707a1.5 1.5 0 0 0 0-2.121c-.454-.469-1.195.235-.707.706"/></symbol><symbol id="hd-icon-roentgen-lattice-light-left-light-right" viewBox="0 0 16 16"><path fill="currentColor" d="M6 2.569V13.43c0 .476.532.748.896.383L8 12.707v.793c-.01.676 1.01.676 1 0v-11a.5.5 0 1 0-1 0v.793L6.898 2.191C6.536 1.83 6 2.051 6 2.57m1 1.138l1 1v.586l-1 1zm1 3v2.586l-1-1v-.586zm-1 3l1 1v.586l-1 1zM2.277 2.947l2 1c.609.335 1.08-.61.446-.894l-2-1c-.57-.298-1.07.596-.446.894m2 2.106l-2 1c-.634.284-.163 1.23.446.894l2-1c.625-.299.123-1.19-.446-.894m8-3l-2 1c-.634.284-.163 1.23.446.894l2-1c.625-.299.123-1.19-.446-.894m-2 3.894l2 1c.609.335 1.08-.61.446-.894l-2-1c-.57-.298-1.07.596-.446.894"/></symbol><symbol id="hd-icon-roentgen-lattice-siren-left-siren-right" viewBox="0 0 16 16"><path fill="currentColor" d="M6 2.569V13.43c0 .476.532.748.896.383L8 12.707v.793c-.01.676 1.01.676 1 0v-11a.5.5 0 1 0-1 0v.793L6.898 2.191C6.536 1.83 6 2.051 6 2.57m1 1.138l1 1v.586l-1 1zm1 3v2.586l-1-1v-.586zm-1 3l1 1v.586l-1 1z"/><path fill="currentColor" d="M2.025 2.658c.48 1.437.48 2.247 0 3.684c-.167.5.455.885.829.512C4.313 5.393 5.11 5 6.5 5a.5.5 0 0 0 0-1c-1.389 0-2.186-.393-3.646-1.853c-.37-.37-.995.014-.829.511m10.122-.511C10.707 3.585 9.868 4 8.5 4a.5.5 0 1 0 0 1c1.389 0 2.186.393 3.646 1.854c.374.373.996-.011.829-.512c-.48-1.437-.48-2.247 0-3.684c.166-.502-.465-.873-.828-.511"/></symbol><symbol id="hd-icon-roentgen-lattice-wave-left-wave-right" viewBox="0 0 16 16"><path fill="currentColor" d="M6 2.569V13.43c0 .476.532.748.896.383L8 12.707v.793c-.01.676 1.01.676 1 0v-11a.5.5 0 1 0-1 0v.793L6.898 2.191C6.536 1.83 6 2.051 6 2.57m1 1.138l1 1v.586l-1 1zm1 3v2.586l-1-1v-.586zm-1 3l1 1v.586l-1 1zM3.025 2.025a3.5 3.5 0 0 0 0 4.95c.472.49 1.198-.236.707-.707a2.5 2.5 0 0 1 0-3.536c.488-.472-.253-1.175-.707-.707M4.44 3.44a1.5 1.5 0 0 0 0 2.122c.472.49 1.198-.236.707-.707a.5.5 0 0 1 0-.708c.488-.471-.253-1.175-.707-.707m6.828-.708a2.5 2.5 0 0 1 0 3.536c-.491.47.235 1.197.707.707a3.5 3.5 0 0 0 0-4.95c-.454-.468-1.195.236-.707.707M9.853 4.146a.5.5 0 0 1 0 .708c-.49.47.236 1.197.708.707a1.5 1.5 0 0 0 0-2.121c-.454-.469-1.195.235-.707.706"/></symbol><symbol id="hd-icon-roentgen-leaf-maple" viewBox="0 0 16 16"><path fill="currentColor" d="M8 1a.5.5 0 0 0-.39.188l-2 2.5A.5.5 0 0 0 5.5 4v1.793l-.146-.147a.5.5 0 0 0-.256-.136l-2.5-.5a.5.5 0 0 0-.588.588l.5 2.5a.5.5 0 0 0 .137.255L3.893 9.6l-.84 1.677a.5.5 0 0 0 .556.711l3.75-.834l-.35 1.748a.5.5 0 0 0 .491.598h1a.5.5 0 0 0 .49-.598l-.35-1.748l3.75.834a.5.5 0 0 0 .557-.71l-.84-1.678l1.247-1.246a.5.5 0 0 0 .136-.256l.5-2.5a.5.5 0 0 0-.588-.588l-2.5.5a.5.5 0 0 0-.255.136l-.147.147V4a.5.5 0 0 0-.11-.312l-2-2.5A.5.5 0 0 0 8 1"/></symbol><symbol id="hd-icon-roentgen-life-ring" viewBox="0 0 16 16"><path fill="currentColor" d="M8 2a6 6 0 0 0-6 6a6 6 0 0 0 6 6a6 6 0 0 0 6-6a6 6 0 0 0-6-6m0 1a5 5 0 0 1 5 5h-2a3 3 0 0 0-3-3zm0 3a2 2 0 0 1 2 2a2 2 0 0 1-2 2a2 2 0 0 1-2-2a2 2 0 0 1 2-2M3 8h2a3 3 0 0 0 3 3v2a5 5 0 0 1-5-5"/></symbol><symbol id="hd-icon-roentgen-lift-gate" viewBox="0 0 16 16"><path fill="currentColor" d="M3.5 5c-.277 0-.5.223-.5.5V6h-.5a.499.499 0 1 0 0 1H3v3.5c0 .277.223.5.5.5h1c.277 0 .5-.223.5-.5V7h8.5a.499.499 0 1 0 0-1H5v-.5c0-.277-.223-.5-.5-.5z"/></symbol><symbol id="hd-icon-roentgen-lock" viewBox="0 0 16 16"><path fill="currentColor" d="M8 2a3 3 0 0 0-3 3v2c-.554 0-1 .446-1 1v4c0 .554.446 1 1 1h6c.554 0 1-.446 1-1V8c0-.554-.446-1-1-1V5a3 3 0 0 0-3-3m0 1a2 2 0 0 1 2 2v2H6V5a2 2 0 0 1 2-2"/></symbol><symbol id="hd-icon-roentgen-lock-unlocked" viewBox="0 0 16 16"><path fill="currentColor" d="M12 2c-1.099 0-2 .901-2 2v3H5c-.554 0-1 .446-1 1v4c0 .554.446 1 1 1h6c.554 0 1-.446 1-1V8c0-.554-.446-1-1-1V4c0-.558.442-1 1-1s1 .442 1 1v.5a.5.5 0 0 0 .5.5a.5.5 0 0 0 .5-.5v-.531A2.01 2.01 0 0 0 12 2M8 8.5a1 1 0 0 1 1 1a1 1 0 0 1-.5.863V11.5a.499.499 0 1 1-1 0v-1.137A1 1 0 0 1 7 9.5a1 1 0 0 1 1-1"/></symbol><symbol id="hd-icon-roentgen-lock-with-keyhole" viewBox="0 0 16 16"><path fill="currentColor" d="M8 2a3 3 0 0 0-3 3v2c-.554 0-1 .446-1 1v4c0 .554.446 1 1 1h6c.554 0 1-.446 1-1V8c0-.554-.446-1-1-1V5a3 3 0 0 0-3-3m0 1a2 2 0 0 1 2 2v2H6V5a2 2 0 0 1 2-2m0 5.5a1 1 0 0 1 1 1a1 1 0 0 1-.5.865V11.5a.499.499 0 1 1-1 0v-1.137A1 1 0 0 1 7 9.5a1 1 0 0 1 1-1"/></symbol><symbol id="hd-icon-roentgen-low-horizontal-bars" viewBox="0 0 16 16"><path fill="currentColor" d="M1.5 5c-.277 0-.5.223-.5.5v5c0 .277.223.5.5.5h1c.277 0 .5-.223.5-.5V7h4v3.5c0 .277.223.5.5.5h1c.277 0 .5-.223.5-.5V9h4v1.5c0 .277.223.5.5.5h1c.277 0 .5-.223.5-.5v-3c0-.277-.223-.5-.5-.5h-1c-.277 0-.5.223-.5.5V8H9V5.5c0-.277-.223-.5-.5-.5h-1c-.277 0-.5.223-.5.5V6H3v-.5c0-.277-.223-.5-.5-.5z"/></symbol><symbol id="hd-icon-roentgen-lowered-kerb" viewBox="0 0 16 16"><path fill="currentColor" d="M1.5 6c-.277 0-.5.223-.5.5v2c0 .277.223.5.5.5h13c.277 0 .5-.223.5-.5v-2c0-.277-.223-.5-.5-.5h-1C10 6 12 8 8 8S6 6 2.5 6z"/></symbol><symbol id="hd-icon-roentgen-lunokhod" viewBox="0 0 16 16"><path fill="currentColor" d="M7.5 3c-2.567 0-4.627.515-6.158 1.025c-.54.18-.41.976.158.975h.691l1.862 3.723A.5.5 0 0 0 4.5 9h6a.5.5 0 0 0 .447-.277L12.81 5h.691c.568 0 .697-.796.158-.975C12.127 3.515 10.067 3 7.5 3M3 10a1 1 0 1 0 0 2a1 1 0 0 0 0-2m3 0a1 1 0 1 0 0 2a1 1 0 0 0 0-2m3 0a1 1 0 1 0 0 2a1 1 0 0 0 0-2m3 0a1 1 0 1 0 0 2a1 1 0 0 0 0-2"/></symbol><symbol id="hd-icon-roentgen-maglev" viewBox="0 0 16 16"><path fill="currentColor" d="M4 3c-.554 0-1 .446-1 1v9c0 .554.446 1 1 1v-.5c0-.831.649-1.5 1.455-1.5h5.09c.806 0 1.455.669 1.455 1.5v.5c.554 0 1-.446 1-1V4c0-.554-.446-1-1-1zm.75 1h6.5c.415 0 .75.335.75.75v3.5c0 .415-.335.75-.75.75h-6.5A.75.75 0 0 1 4 8.25v-3.5c0-.415.335-.75.75-.75m-.25 6h2a.499.499 0 1 1 0 1h-2a.499.499 0 1 1 0-1m5 0h2a.499.499 0 1 1 0 1h-2a.499.499 0 1 1 0-1m-4 3c-.277 0-.5.223-.5.5V15h6v-1.5c0-.277-.223-.5-.5-.5z"/></symbol><symbol id="hd-icon-roentgen-main-entrance" viewBox="0 0 16 16"><path fill="currentColor" d="M6.5 1c-.277 0-.5.223-.5.5a.5.5 0 0 1-.5.5h-1a.499.499 0 1 0 0 1h7a.499.499 0 1 0 0-1h-1a.5.5 0 0 1-.5-.5c0-.277-.223-.5-.5-.5zm-1 3c-.277 0-.5.223-.5.5v9c0 .277.223.5.5.5h5c.277 0 .5-.223.5-.5v-9c0-.277-.223-.5-.5-.5zm1 4h2a.499.499 0 1 1 0 1H7v.5a.499.499 0 1 1-1 0v-1c0-.277.223-.5.5-.5"/></symbol><symbol id="hd-icon-roentgen-manhole-drain" viewBox="0 0 16 16"><path fill="currentColor" d="M7.5 2A5.5 5.5 0 0 0 2 7.5A5.5 5.5 0 0 0 7.5 13A5.5 5.5 0 0 0 13 7.5A5.5 5.5 0 0 0 7.5 2m-1 1c.277 0 .5.223.5.5v3a.499.499 0 1 1-1 0v-3c0-.277.223-.5.5-.5m2 0c.277 0 .5.223.5.5v3a.499.499 0 1 1-1 0v-3c0-.277.223-.5.5-.5m-4 2c.277 0 .5.223.5.5v1a.499.499 0 1 1-1 0v-1c0-.277.223-.5.5-.5m6 0c.277 0 .5.223.5.5v1a.499.499 0 1 1-1 0v-1c0-.277.223-.5.5-.5m-6 3c.277 0 .5.223.5.5v1a.499.499 0 1 1-1 0v-1c0-.277.223-.5.5-.5m2 0c.277 0 .5.223.5.5v3a.499.499 0 1 1-1 0v-3c0-.277.223-.5.5-.5m2 0c.277 0 .5.223.5.5v3a.499.499 0 1 1-1 0v-3c0-.277.223-.5.5-.5m2 0c.277 0 .5.223.5.5v1a.499.499 0 1 1-1 0v-1c0-.277.223-.5.5-.5"/></symbol><symbol id="hd-icon-roentgen-marketplace" viewBox="0 0 16 16"><path fill="currentColor" d="M4.5 1a.5.5 0 0 0-.354.147l-3 3A.5.5 0 0 0 1.5 5H2v8h-.5a.5.5 0 0 0 0 1H2v.5a.5.5 0 0 0 .5.5h10q.032.001.065-.004A.5.5 0 0 0 13 14.5V14h.5a.5.5 0 1 0 0-1H13V5h.5a.5.5 0 0 0 .354-.854l-3-3A.5.5 0 0 0 10.5 1H9.107l1.928 3H8.678l-.643-3h-1.07l-.643 3H3.965l1.928-3zM3 5h9v8H3zm3.5 2a.5.5 0 0 0-.447.277l-2 4A.5.5 0 0 0 4.5 12h6a.5.5 0 0 0 .447-.723l-2-4A.5.5 0 0 0 8.5 7z"/></symbol><symbol id="hd-icon-roentgen-massage" viewBox="0 0 16 16"><path fill="currentColor" d="M6 2c.554 0 1 .446 1 1s-.446 1-1 1s-1-.446-1-1s.446-1 1-1m-.994 2.5a.5.5 0 0 1 .217.053l.976.488a.5.5 0 0 1 .201.158L7.75 7h.75c.676-.01.676 1.01 0 1h-1a.5.5 0 0 1-.4-.2c-.263-.329-.508-.618-.727-.892l-.14 1.549l-2.047.291l.316-3.789a.5.5 0 0 1 .504-.459m4.517 4.494a.5.5 0 0 1 .424.283l.5 1L11.31 12h1.19c.676-.01.676 1.01 0 1H11a.5.5 0 0 1-.447-.277L9.69 11H3V9.924l6.43-.918q.027-.004.054-.004c.014 0 .025-.01.04-.008M12 9c.554 0 1 .446 1 1s-.446 1-1 1s-1-.446-1-1s.446-1 1-1m-3.5 3a.499.499 0 1 1 0 1H3v-1z"/></symbol><symbol id="hd-icon-roentgen-mausoleum" viewBox="0 0 16 16"><path fill="currentColor" d="M3.5 2a.499.499 0 1 0 0 1h8a.499.499 0 1 0 0-1zm-1 2a.499.499 0 1 0 0 1H3v4H1.5c-.277 0-.5.223-.5.5v4c0 .277.223.5.5.5H5v-2.5c0-.277.223-.5.5-.5h4c.277 0 .5.223.5.5V14h3.5c.277 0 .5-.223.5-.5v-4c0-.277-.223-.5-.5-.5H12V5h.5a.499.499 0 1 0 0-1zM4 5h7v4h-1V6H9v3H8V6H7v3H6V6H5v3H4zm2 7v2h3v-2z"/></symbol><symbol id="hd-icon-roentgen-maze" viewBox="0 0 16 16"><path fill="currentColor" d="M3.5 3a.5.5 0 0 0-.5.5v8a.5.5 0 0 0 .5.5h8a.5.5 0 0 0 .5-.5v-4a.5.5 0 0 0-1 0V11H8v-1h1.5a.5.5 0 0 0 0-1h-2a.5.5 0 0 0-.5.5V11H4V8h1v1.5a.5.5 0 0 0 1 0v-4a.5.5 0 0 0-1 0V7H4V4h7v1H9.5a.5.5 0 0 0-.5.5V7H8V5.5a.5.5 0 0 0-1 0v2a.5.5 0 0 0 .5.5h2a.5.5 0 0 0 .5-.5V6h1.5a.5.5 0 0 0 .5-.5v-2a.5.5 0 0 0-.5-.5z"/></symbol><symbol id="hd-icon-roentgen-maze-arrow-right-short" viewBox="0 0 16 16"><path fill="currentColor" d="M1.5 3a.5.5 0 0 0-.5.5v8a.5.5 0 0 0 .5.5h8a.5.5 0 0 0 .5-.5v-4a.5.5 0 0 0-1 0V11H6v-1h1.5a.5.5 0 0 0 0-1h-2a.5.5 0 0 0-.5.5V11H2V8h1v1.5a.5.5 0 0 0 1 0v-4a.5.5 0 0 0-1 0V7H2V4h7v1H7.5a.5.5 0 0 0-.5.5V7H6V5.5a.5.5 0 0 0-1 0v2a.5.5 0 0 0 .5.5h2a.5.5 0 0 0 .5-.5V6h1.5a.5.5 0 0 0 .5-.5v-2a.5.5 0 0 0-.5-.5zm10.647 1.147a.5.5 0 0 0 0 .707L13.293 6H11.5a.5.5 0 0 0 0 1h1.793l-1.146 1.146a.5.5 0 0 0 .707.707l2-2a.5.5 0 0 0 0-.707l-2-2a.5.5 0 0 0-.707 0"/></symbol><symbol id="hd-icon-roentgen-medicine-bottle" viewBox="0 0 16 16"><path fill="currentColor" d="M4.5 2a.5.5 0 0 0-.5.5V4h8V2.501A.5.5 0 0 0 11.501 2zM4 5v8.5a.5.5 0 0 0 .499.5H11.5a.5.5 0 0 0 .5-.5V5zm3 1.5a.5.5 0 0 1 .499-.5H8.5a.5.5 0 0 1 .5.5V8h1.5a.5.5 0 0 1 .5.5v1a.5.5 0 0 1-.499.5H9v1.5a.5.5 0 0 1-.499.5H7.5a.5.5 0 0 1-.5-.5V10H5.5a.5.5 0 0 1-.5-.5v-.999A.5.5 0 0 1 5.499 8H7z"/></symbol><symbol id="hd-icon-roentgen-memorial" viewBox="0 0 16 16"><path fill="currentColor" d="M8 2.5a.5.5 0 0 0-.354.147l-1.5 1.5A.5.5 0 0 0 6 4.5v6a.5.5 0 0 0 .5.5h3a.5.5 0 0 0 .5-.5v-6a.5.5 0 0 0-.146-.354l-1.5-1.5A.5.5 0 0 0 8 2.5M4.5 12a.5.5 0 0 0-.354.146l-1 1A.5.5 0 0 0 3.5 14h9a.5.5 0 0 0 .354-.854l-1-1A.5.5 0 0 0 11.5 12z"/></symbol><symbol id="hd-icon-roentgen-microphone" viewBox="0 0 16 16"><path fill="currentColor" d="M7.5 1c-1.517 0-3 1.25-3 3.166c0 .859.383 1.426.73 1.834h4.54c.347-.408.73-.975.73-1.834C10.5 2.249 9.017 1 7.5 1M5.94 7c.039.139.06.3.06.5v4q0 .096.035.186L7 13.098V14.5a.5.5 0 0 0 1 0v-1.402l.965-1.413A.5.5 0 0 0 9 11.5v-4c0-.2.021-.361.06-.5z"/></symbol><symbol id="hd-icon-roentgen-milestone" viewBox="0 0 16 16"><path fill="currentColor" d="M7 2c-.583 0-1.11.154-1.479.522C5.155 2.889 5 3.417 5 4v9h-.5a.5.5 0 0 0 0 1h7a.5.5 0 0 0 0-1H11V4c0-.583-.154-1.11-.521-1.478C10.11 2.154 9.583 2 9 2zm-.5 3h3a.5.5 0 0 1 .5.5v1a.5.5 0 0 1-.5.5h-3a.5.5 0 0 1-.5-.5v-1a.5.5 0 0 1 .5-.5m0 4h3a.5.5 0 0 1 .5.5v1a.5.5 0 0 1-.5.5h-3a.5.5 0 0 1-.5-.5v-1a.5.5 0 0 1 .5-.5"/></symbol><symbol id="hd-icon-roentgen-minaret" viewBox="0 0 16 16"><path fill="currentColor" d="M6.203 1.797A.203.203 0 0 0 6 2a2 2 0 1 0 4 0a.203.203 0 0 0-.39-.078h-.003a1.738 1.738 0 0 1-3.214 0H6.39a.2.2 0 0 0-.188-.125M8 5c-.667 0-1.194.349-1.516.75C6.164 6.151 6 6.583 6 7h-.5a.5.5 0 0 0-.5.5v2a.5.5 0 0 0 .277.447c.381.19.512.394.614.8c.1.404.109 1.003.109 1.753v2a.5.5 0 0 0 .5.5h3a.5.5 0 0 0 .5-.5v-2c0-.75.008-1.349.11-1.754c.1-.405.232-.608.613-.799A.5.5 0 0 0 11 9.5v-2a.5.5 0 0 0-.5-.5H10c0-.417-.163-.849-.484-1.25C9.194 5.349 8.666 5 8 5m0 5c.655 0 1 .566 1 1v1.5c0 .277-.223.5-.5.5h-1a.5.5 0 0 1-.5-.5V11c0-.422.338-.999 1-1"/></symbol><symbol id="hd-icon-roentgen-mini-bumps" viewBox="0 0 16 16"><path fill="currentColor" d="M4.5 6c-.486 0-.901.18-1.203.422s-.51.527-.697.777c-.188.25-.355.465-.522.598A.82.82 0 0 1 1.5 8a.5.5 0 0 0 0 1h13a.5.5 0 0 0 0-1a.82.82 0 0 1-.578-.203c-.167-.133-.334-.348-.522-.598c-.187-.25-.395-.535-.697-.777a1.924 1.924 0 0 0-2.406 0c-.302.242-.51.527-.697.777c-.188.25-.355.465-.522.598A.82.82 0 0 1 8.5 8h-1a.82.82 0 0 1-.578-.203c-.167-.133-.334-.348-.522-.598c-.187-.25-.395-.535-.697-.777A1.92 1.92 0 0 0 4.5 6"/></symbol><symbol id="hd-icon-roentgen-money" viewBox="0 0 16 16"><path fill="currentColor" d="M3 4c-.554 0-1 .446-1 1v4c0 .554.446 1 1 1h10c.554 0 1-.446 1-1V5c0-.554-.446-1-1-1zm0 1h1c0 .554-.446 1-1 1zm5 0a2 2 0 0 1 2 2a2 2 0 0 1-2 2a2 2 0 0 1-2-2a2 2 0 0 1 2-2m4 0h1v1c-.554 0-1-.446-1-1M3 8c.554 0 1 .446 1 1H3zm10 0v1h-1c0-.554.446-1 1-1M2.5 11a.499.499 0 1 0 0 1h11a.499.499 0 1 0 0-1z"/></symbol><symbol id="hd-icon-roentgen-monorail" viewBox="0 0 16 16"><path fill="currentColor" d="M5 3c-.554 0-1 .446-1 1v6h1.5a.499.499 0 1 1 0 1H4v2c0 .554.446 1 1 1h1v-.5c0-.831.649-1.5 1.455-1.5h1.09C9.35 12 10 12.669 10 13.5v.5h1c.554 0 1-.446 1-1v-2h-1.5a.499.499 0 1 1 0-1H12V4c0-.554-.446-1-1-1zm.75 1h4.5c.415 0 .75.335.75.75v3.5c0 .415-.335.75-.75.75h-4.5A.75.75 0 0 1 5 8.25v-3.5c0-.415.335-.75.75-.75m1.75 9c-.277 0-.5.223-.5.5V15h2v-1.5c0-.277-.223-.5-.5-.5z"/></symbol><symbol id="hd-icon-roentgen-monument" viewBox="0 0 16 16"><path fill="currentColor" d="M8 1a1 1 0 1 0 0 2a1 1 0 0 0 0-2m-.5 3a.5.5 0 0 0-.5.5V5h-.5a.5.5 0 0 0-.5.5V6a.5.5 0 0 0 .286.452l.682.341L6.548 11H6a.5.5 0 0 0-.001 1L6 14h-.5a.5.5 0 0 0-.001 1H10.5a.5.5 0 0 0 .001-1H10v-2a.5.5 0 1 0 0-1h-.548l-.42-4.207l.682-.341A.5.5 0 0 0 10 6v-.499A.5.5 0 0 0 9.501 5H9v-.499A.5.5 0 0 0 8.501 4z"/></symbol><symbol id="hd-icon-roentgen-needleleaved-tree" viewBox="0 0 16 16"><path fill="currentColor" d="M7.5 2.008A.5.5 0 0 0 7 2.5c0 .583-.307 1.225-.791 1.709S5.083 5 4.5 5c-.657.009-.657.99 0 1h1.27c-.12.424-.219.867-.561 1.209C4.725 7.693 4.083 8 3.5 8c-.657.009-.657.99 0 1h1.27c-.12.424-.219.867-.561 1.209c-.484.484-1.126.791-1.709.791a.5.5 0 0 0 0 1H6v1.5a.5.5 0 0 0 .5.5h2a.5.5 0 0 0 .5-.5V12h3.5a.5.5 0 0 0 0-1c-.583 0-1.225-.307-1.709-.791c-.342-.342-.441-.785-.56-1.209H11.5a.5.5 0 0 0 0-1c-.583 0-1.225-.307-1.709-.791c-.342-.342-.441-.785-.56-1.209H10.5c.657-.009.657-.99 0-1c-.583 0-1.225-.307-1.709-.791S8 3.083 8 2.5a.5.5 0 0 0-.5-.492"/></symbol><symbol id="hd-icon-roentgen-needleleaved-tree-bottom-right-horizontal-line" viewBox="0 0 16 16"><path fill="currentColor" d="M7.5 2.008A.5.5 0 0 0 7 2.5c0 .583-.307 1.225-.791 1.709S5.083 5 4.5 5c-.657.009-.657.99 0 1h1.27c-.12.424-.219.867-.561 1.209C4.725 7.693 4.083 8 3.5 8c-.657.009-.657.99 0 1h1.27c-.12.424-.219.867-.561 1.209c-.484.484-1.126.791-1.709.791a.5.5 0 0 0 0 1H6v1.5a.5.5 0 0 0 .5.5h2a.5.5 0 0 0 .5-.5V12h3.5a.5.5 0 0 0 0-1c-.583 0-1.225-.307-1.709-.791c-.342-.342-.441-.785-.56-1.209H11.5a.5.5 0 0 0 0-1c-.583 0-1.225-.307-1.709-.791c-.342-.342-.441-.785-.56-1.209H10.5c.657-.009.657-.99 0-1c-.583 0-1.225-.307-1.709-.791S8 3.083 8 2.5a.5.5 0 0 0-.5-.492"/><path fill="currentColor" d="M10 13.5a.5.5 45 0 0 .5.5h4a.5.5 135 0 0 .5-.5a.5.5 45 0 0-.5-.5h-4a.5.5 135 0 0-.5.5"/></symbol><symbol id="hd-icon-roentgen-needleleaved-tree-urban-tree-pot" viewBox="0 0 16 16"><path fill="currentColor" d="M7.5 2.008A.5.5 0 0 0 7 2.5c0 .583-.307 1.225-.791 1.709S5.083 5 4.5 5c-.657.009-.657.99 0 1h1.27c-.12.424-.219.867-.561 1.209C4.725 7.693 4.083 8 3.5 8c-.657.009-.657.99 0 1h1.27c-.12.424-.219.867-.561 1.209c-.484.484-1.126.791-1.709.791a.5.5 0 0 0 0 1H6v1.5a.5.5 0 0 0 .5.5h2a.5.5 0 0 0 .5-.5V12h3.5a.5.5 0 0 0 0-1c-.583 0-1.225-.307-1.709-.791c-.342-.342-.441-.785-.56-1.209H11.5a.5.5 0 0 0 0-1c-.583 0-1.225-.307-1.709-.791c-.342-.342-.441-.785-.56-1.209H10.5c.657-.009.657-.99 0-1c-.583 0-1.225-.307-1.709-.791S8 3.083 8 2.5a.5.5 0 0 0-.5-.492"/><path fill="currentColor" d="M3 13a.5.5 0 0 0-.353.854l1 1A.5.5 0 0 0 4 15h7a.5.5 0 0 0 .354-.146l1-1A.5.5 0 0 0 12 13z"/></symbol><symbol id="hd-icon-roentgen-no-door" viewBox="0 0 16 16"><path fill="currentColor" d="M4.5 3c-.277 0-.5.223-.5.5v9c0 .277.223.5.5.5h1c.277 0 .5-.223.5-.5V5h4v7.5c0 .277.223.5.5.5h1c.277 0 .5-.223.5-.5v-9c0-.277-.223-.5-.5-.5z"/></symbol><symbol id="hd-icon-roentgen-no-foot" viewBox="0 0 16 16"><path fill="currentColor" d="M5.5 3c-.277 0-.5.223-.5.5v1a.499.499 0 1 0 1 0v-1c0-.277-.223-.5-.5-.5m2 0c-.277 0-.5.223-.5.5v1a.499.499 0 1 0 1 0v-1c0-.277-.223-.5-.5-.5m2 0c-.277 0-.5.223-.5.5v1a.499.499 0 1 0 1 0v-1c0-.277-.223-.5-.5-.5m2.146 1.146L9.593 6.201A1 1 0 0 0 9 6H6c-.554 0-1 .446-1 1s.446 1 1 1c.493 0 .881.36.965.828l-3.318 3.319c-.492.47.235 1.198.707.707l8-8c.483-.473-.255-1.171-.707-.708M10 8.622l-4 4V13c0 .554.446 1 1 1h2c.554 0 1-.446 1-1z"/></symbol><symbol id="hd-icon-roentgen-no-traffic-signals" viewBox="0 0 16 16"><path fill="currentColor" d="M6.5 1c-.277 0-.5.223-.5.5V3H4v1a2 2 0 0 1 2 2v.9l1.1.3a.5.5 0 0 1 .4-.2h1c.277 0 .5.223.5.5v.219l2.006.547C11.299 8.097 11.638 8 12 8V7h-2V6a2 2 0 0 1 2-2V3h-2V1.5c0-.277-.223-.5-.5-.5zm1 2h1c.277 0 .5.223.5.5v1c0 .277-.223.5-.5.5h-1a.5.5 0 0 1-.5-.5v-1c0-.277.223-.5.5-.5M2.018 7.37a.5.5 0 0 0 .351.612l3.287.897C5.873 9.199 6 9.585 6 10v1H4v1a2 2 0 0 1 2 2v.5c0 .277.223.5.5.5h3c.277 0 .5-.223.5-.5V14a2 2 0 0 1 2-2v-1h-2v-.935l3.37.917a.5.5 0 0 0 .26-.964l-11-3a.5.5 0 0 0-.612.351M7.5 11h1c.277 0 .5.223.5.5v1c0 .277-.223.5-.5.5h-1a.5.5 0 0 1-.5-.5v-1c0-.277.223-.5.5-.5"/></symbol><symbol id="hd-icon-roentgen-no-wheelchair" viewBox="0 0 16 16"><path fill="currentColor" d="M10.5 1a.5.5 0 0 0-.354.853L11.294 3l-1.146 1.146a.5.5 0 0 0 .707.708L12 3.707l1.146 1.147a.5.5 0 0 0 .707-.708L12.708 3l1.146-1.146a.5.5 0 0 0-.707-.707L12 2.293l-1.146-1.146A.5.5 0 0 0 10.5 1m-8 0a.5.5 0 0 0 0 1c.505 0 .89.081 1.129.2c.239.117.337.238.389.429l.248.992l.008.03l.375 1.497l.01.041l.203.813A4.01 4.01 0 0 0 1 10c0 2.203 1.797 4 4 4s4-1.797 4-4h1.69l.224 1.121c-.536.23-.914.764-.914 1.379c0 .822.678 1.5 1.5 1.5s1.5-.678 1.5-1.5a1.51 1.51 0 0 0-1.078-1.44l-.932-4.658A.5.5 0 0 0 10.5 6H5.89l-.208-.836C5.995 4.807 6.88 4 8.5 4c.657-.009.657-.99 0-1H5.14l-.156-.621l-.002-.008c-.126-.472-.471-.852-.91-1.068C3.634 1.087 3.107.999 2.5 1M5 7q.056 0 .111.002a3.01 3.01 0 0 1 2.873 3.305v.002q-.015.15-.045.295v.002q-.03.145-.074.285A2.99 2.99 0 0 1 5 13a3 3 0 0 1-.604-.06h-.002a2.99 2.99 0 0 1-2.334-2.334v-.002a3 3 0 0 1-.044-.295v-.002a3 3 0 0 1 0-.614v-.002q.015-.149.045-.295v-.002q.03-.145.074-.285A2.99 2.99 0 0 1 5 7m.377 1.035l.41 1.59a.5.5 0 0 0 .484.375H7c0-.981-.695-1.79-1.623-1.965M11.5 12c.282 0 .5.218.5.5s-.218.5-.5.5a.493.493 0 0 1-.5-.5c0-.282.218-.5.5-.5"/></symbol><symbol id="hd-icon-roentgen-oat" viewBox="0 0 16 16"><path fill="currentColor" d="M8.5 2a3.51 3.51 0 0 0-3.473 3.064c-.484.133-.9.462-1.23.874c-.433.54-.76 1.243-1.022 2.029C2.267 9.492 2 11.5 2 13c0 .575.812.694.978.145c.575-1.916 1.066-2.513 1.55-2.98l.497 1.493a.5.5 0 0 0 .95 0l.498-1.494c.483.468.974 1.065 1.548 2.98c.167.55.979.43.979-.144c0-1.5-.302-3.386-.775-5.033c-.262-.786-.59-1.489-1.022-2.03c-.315-.394-.71-.712-1.168-.855A2.49 2.49 0 0 1 8.5 3C9.887 3 11 4.113 11 5.5a.5.5 0 0 0 1 0C12 3.573 10.427 2 8.5 2"/></symbol><symbol id="hd-icon-roentgen-oat-2" viewBox="0 0 16 16"><path fill="currentColor" d="M4.053 1.277a.5.5 0 0 0 .224.67l10 5a.5.5 0 0 0 .446-.894l-10-5a.5.5 0 0 0-.67.224M4.5 3c-.687 0-1.24.398-1.572.895c-.345.516-.538 1.166-.67 1.89C1.994 7.234 2 9 2 10.5c.001.603.871.688.99.098c.238-1.192.446-1.842.612-2.211l.423 1.271a.5.5 0 0 0 .95 0l.423-1.271c.166.37.373 1.02.612 2.21c.119.592.989.506.99-.097c0-1.5.006-3.266-.258-4.715c-.131-.724-.325-1.374-.67-1.89C5.728 3.378 5.187 3 4.5 3m6 3c-.642 0-1.212.346-1.572.895c-.34.519-.539 1.166-.67 1.89C7.995 10.234 8 12 8 13.5c.001.603.871.688.99.098c.239-1.192.446-1.842.612-2.211l.423 1.271a.5.5 0 0 0 .95 0l.423-1.271c.166.37.373 1.02.612 2.21c.119.592.989.506.99-.097c0-1.5.006-3.266-.258-4.715c-.132-.724-.325-1.374-.67-1.89C11.728 6.377 11.167 6 10.5 6"/></symbol><symbol id="hd-icon-roentgen-obelisk" viewBox="0 0 16 16"><path fill="currentColor" d="M7.5 2a.5.5 0 0 0-.452.286l-.991 1.981a.5.5 0 0 0-.055.184L5.052 13H4.5a.5.5 0 0 0-.001 1H10.5a.5.5 0 0 0 .001-1h-.553l-.95-8.549a.5.5 0 0 0-.055-.184l-.991-1.981A.5.5 0 0 0 7.5 2"/></symbol><symbol id="hd-icon-roentgen-observatory" viewBox="0 0 16 16"><path fill="currentColor" d="m13.647 2.647l-1.063 1.062a7 7 0 0 0-1.084-.772l-.5.868A6 6 0 0 1 13.195 6l.867-.5a7 7 0 0 0-.771-1.084l1.063-1.063zM8 4a5 5 0 0 0-5 5h10a5 5 0 0 0-5-5m-5 6v3h10v-3z"/></symbol><symbol id="hd-icon-roentgen-onion-roof-shape" viewBox="0 0 16 16"><path fill="currentColor" d="M7.5 2.5A.5.5 0 0 0 7 3c0 4-8 5-3 11h7c5-6-3-7-3-11a.5.5 0 0 0-.5-.5"/></symbol><symbol id="hd-icon-roentgen-orbiter" viewBox="0 0 16 16"><path fill="currentColor" d="M8 1a5 5 0 0 0-4.33 2.5a.5.5 0 0 0 .865.5a4 4 0 0 1 6.93 0a.5.5 0 0 0 .865-.5A5 5 0 0 0 8 1m0 2a3 3 0 0 0-2.598 1.5a.5.5 0 1 0 .866.5a1.999 1.999 0 0 1 3.464 0a.5.5 0 1 0 .866-.5A3 3 0 0 0 8 3m0 2a1 1 0 0 0-1 1h-.5a.5.5 0 0 0-.5.5V8H5v-.5a.5.5 0 0 0-.5-.5h-3a.5.5 0 0 0-.5.5v4a.5.5 0 0 0 .5.5h3a.5.5 0 0 0 .5-.5V11h1v1.5a.5.5 0 0 0 .5.5H7a1 1 0 1 0 2 0h.5a.5.5 0 0 0 .5-.5V11h1v.5a.5.5 0 0 0 .5.5h3a.5.5 0 0 0 .5-.5v-4a.5.5 0 0 0-.5-.5h-3a.5.5 0 0 0-.5.5V8h-1V6.5a.5.5 0 0 0-.5-.5H9a1 1 0 0 0-1-1M5 9h1v1H5zm5 0h1v1h-1z"/></symbol><symbol id="hd-icon-roentgen-orthodox" viewBox="0 0 16 16"><path fill="currentColor" d="M8 1a1 1 0 0 0-1 1a1 1 0 0 0-.002 2L7 5H6a1 1 0 0 0-2 0a1 1 0 0 0-.002 2A1 1 0 0 0 6 7h1v5a1 1 0 0 0-.002 2A1 1 0 0 0 9 14a1 1 0 0 0 .002-2L9 7h1a1 1 0 0 0 2 0a1 1 0 0 0 .002-2A1 1 0 0 0 10 5H9V4a1 1 0 0 0 .002-2C9 1.448 8.552 1 8 1"/></symbol><symbol id="hd-icon-roentgen-p" viewBox="0 0 16 16"><path fill="currentColor" d="M4.5 3c-.277 0-.5.223-.5.5v8c0 .277.223.5.5.5h1c.277 0 .5-.223.5-.5V9h3c1.645 0 3-1.355 3-3s-1.355-3-3-3zM6 5h3c.564 0 1 .436 1 1s-.436 1-1 1H6z"/></symbol><symbol id="hd-icon-roentgen-p-arrow-down" viewBox="0 0 16 16"><path fill="currentColor" d="M5.5 3c-.277 0-.5.223-.5.5v8c0 .277.223.5.5.5h1c.277 0 .5-.223.5-.5V9h3c1.645 0 3-1.355 3-3s-1.355-3-3-3zM7 5h3c.564 0 1 .436 1 1s-.436 1-1 1H7zm4.492 5a.5.5 0 0 0-.492.508V13.3l-1.146-1.147c-.454-.468-1.195.236-.707.707l2 2a.5.5 0 0 0 .707 0l2-2c.49-.47-.236-1.197-.707-.707L12 13.301v-2.793a.5.5 0 0 0-.508-.508"/></symbol><symbol id="hd-icon-roentgen-p-arrow-right" viewBox="0 0 16 16"><path fill="currentColor" d="M5.5 3c-.277 0-.5.223-.5.5v8c0 .277.223.5.5.5h1c.277 0 .5-.223.5-.5V9h3c1.645 0 3-1.355 3-3s-1.355-3-3-3zM7 5h3c.564 0 1 .436 1 1s-.436 1-1 1H7zm4.15 5.857l1.147 1.147H9.504c-.676-.01-.676 1.01 0 1h2.793L11.15 14.15c-.49.472.236 1.198.707.707l2-2a.5.5 0 0 0 0-.707l-2-2c-.453-.468-1.194.236-.707.707"/></symbol><symbol id="hd-icon-roentgen-p-arrow-up" viewBox="0 0 16 16"><path fill="currentColor" d="M5.5 3c-.277 0-.5.223-.5.5v8c0 .277.223.5.5.5h1c.277 0 .5-.223.5-.5V9h3c1.645 0 3-1.355 3-3s-1.355-3-3-3zM7 5h3c.564 0 1 .436 1 1s-.436 1-1 1H7zm4.147 5.147l-2 2c-.49.47.235 1.197.707.707L11 11.707V14.5c-.01.676 1.01.676 1 0v-2.793l1.146 1.146c.472.49 1.198-.235.707-.707l-2-2a.5.5 0 0 0-.707 0"/></symbol><symbol id="hd-icon-roentgen-p-small" viewBox="0 0 16 16"><path fill="currentColor" d="M7.5 5c-.277 0-.5.203-.5.455V9.5a.499.499 0 1 0 1 0V8h1.5a1.5 1.5 0 1 0 0-3zM8 6h1.5a.5.5 0 0 1 0 1H8z"/></symbol><symbol id="hd-icon-roentgen-p-small-bicycle-parking-rack" viewBox="0 0 16 16"><path fill="currentColor" d="M2.5 2c-.277 0-.5.203-.5.455V6.5a.499.499 0 1 0 1 0V5h1.5a1.5 1.5 0 1 0 0-3zM3 3h1.5a.5.5 0 0 1 0 1H3zm4.5 2a.5.5 0 0 0-.416.223l-2 3A.5.5 0 0 0 5.5 9h4a.5.5 0 0 0 .416-.777L8.434 6h.687l3.44 3.44A1.498 1.498 0 0 1 11.5 12h-6a.5.5 0 0 0-.5.5a.5.5 0 0 0 .5.5h6c1.01 0 1.924-.61 2.31-1.543a2.5 2.5 0 0 0-.542-2.725L9.682 5.147A.5.5 0 0 0 9.328 5zm0 1.402L8.566 8H6.434z"/></symbol><symbol id="hd-icon-roentgen-p-small-bicycle-parking-stand" viewBox="0 0 16 16"><path fill="currentColor" d="M2.5 2c-.277 0-.5.203-.5.455V6.5a.499.499 0 1 0 1 0V5h1.5a1.5 1.5 0 1 0 0-3zM3 3h1.5a.5.5 0 0 1 0 1H3zm4 3c-.861 0-1.628.295-2.166.834S4 8.139 4 9v4.5a.5.5 0 0 0 .5.5a.5.5 0 0 0 .5-.5V9c0-.639.205-1.122.541-1.459S6.361 7 7 7h4c.639 0 1.123.205 1.459.541S13 8.361 13 9v4.5a.5.5 0 0 0 .5.5a.5.5 0 0 0 .5-.5V9c0-.861-.296-1.628-.834-2.166C12.627 6.296 11.861 6 11 6z"/></symbol><symbol id="hd-icon-roentgen-p-small-bicycle-parking-wall-loops" viewBox="0 0 16 16"><path fill="currentColor" d="M3.5 2c-.277 0-.5.203-.5.455V6.5a.499.499 0 1 0 1 0V5h1.5a1.5 1.5 0 1 0 0-3zM4 3h1.5a.5.5 0 0 1 0 1H4zm6.5-1a.5.5 0 0 0-.5.5V5c-.861 0-1.627.295-2.166.834S7 7.139 7 8s.295 1.627.834 2.166S9.139 11 10 11v2.5a.5.5 0 0 0 .5.5h1a.5.5 0 0 0 .5-.5v-11a.5.5 0 0 0-.5-.5zM10 6v4c-.639 0-1.123-.204-1.459-.541C8.204 9.123 8 8.639 8 8s.204-1.122.541-1.459C8.877 6.205 9.361 6 10 6"/></symbol><symbol id="hd-icon-roentgen-pac-man" viewBox="0 0 16 16"><path fill="currentColor" d="M6 3.004a5 5 0 0 0-3.535 1.46a5.007 5.007 0 0 0 0 7.071a5.007 5.007 0 0 0 7.07 0a.5.5 0 0 0 0-.707L6.707 8l2.828-2.828a.5.5 0 0 0 0-.707A4.98 4.98 0 0 0 6 3.004M11 7a1 1 0 0 0-1 1a1 1 0 0 0 1 1a1 1 0 0 0 1-1a1 1 0 0 0-1-1m3 0a1 1 0 0 0-1 1a1 1 0 0 0 1 1a1 1 0 0 0 1-1a1 1 0 0 0-1-1"/></symbol><symbol id="hd-icon-roentgen-pagoda" viewBox="0 0 16 16"><path fill="currentColor" d="M7.5 2a.5.5 0 0 0-.354.147l-1 1c-.5.5-.813.853-1.646.853c-.43 0-.687.02-.994-.219c-.044-.042-.114-.096-.152-.135a.5.5 0 0 0-.707.708C3.147 4.854 4.167 6 5.5 6h4c1.333 0 2.354-1.146 2.854-1.646a.5.5 0 0 0-.707-.707c-.04.038-.109.092-.153.134c-.307.239-.563.219-.994.219c-.833 0-1.146-.353-1.646-.853l-1-1A.5.5 0 0 0 7.5 2m-2 5a.5.5 0 0 0 0 1h4a.5.5 0 0 0 0-1zm0 2a.5.5 0 0 0-.354.146c-.5.5-.813.854-1.646.854c-.43 0-.686.019-.992-.219c-.045-.043-.115-.095-.155-.135a.5.5 0 0 0-.707.707c.5.5 1.52 1.647 2.854 1.647h6c1.333 0 2.354-1.146 2.854-1.646a.5.5 0 0 0-.707-.707c-.04.039-.11.091-.155.134c-.306.238-.562.219-.992.219c-.833 0-1.146-.354-1.646-.854A.5.5 0 0 0 9.5 9zm-1 4a.5.5 0 0 0 0 1h6a.5.5 0 0 0 0-1z"/></symbol><symbol id="hd-icon-roentgen-palm" viewBox="0 0 16 16"><path fill="currentColor" d="M4.465 1.465c-.528-.001-.697.71-.225.947c.78.39 1.588 1.043 2.248 1.783A3.7 3.7 0 0 0 5 3.875c-1.018 0-2.025.443-2.853 1.271c-.374.374.01.996.511.829c1-.334 2.3-.424 3.463-.272a3.74 3.74 0 0 0-1.537.916c-.72.72-1.12 1.744-1.12 2.916c0 .528.712.697.948.225C4.94 8.705 5.945 7.6 7 6.877V13.5a.5.5 0 0 0 .5.5h1a.5.5 0 0 0 .5-.5V6.877c1.055.723 2.06 1.828 2.588 2.883c.236.472.948.303.947-.225c0-1.172-.4-2.196-1.119-2.916a3.74 3.74 0 0 0-1.537-.916c1.163-.152 2.462-.062 3.463.272c.5.167.885-.455.511-.828c-.828-.83-1.835-1.272-2.853-1.272a3.7 3.7 0 0 0-1.488.32c.66-.74 1.467-1.393 2.248-1.783c.472-.236.303-.948-.225-.947c-1.172 0-2.196.4-2.916 1.119A3.6 3.6 0 0 0 8 3.42a3.6 3.6 0 0 0-.62-.836c-.719-.72-1.743-1.12-2.915-1.12"/></symbol><symbol id="hd-icon-roentgen-palm-bottom-right-horizontal-line" viewBox="0 0 16 16"><path fill="currentColor" d="M4.465 1.465c-.528-.001-.697.71-.225.947c.78.39 1.588 1.043 2.248 1.783A3.7 3.7 0 0 0 5 3.875c-1.018 0-2.025.443-2.853 1.271c-.374.374.01.996.511.829c1-.334 2.3-.424 3.463-.272a3.74 3.74 0 0 0-1.537.916c-.72.72-1.12 1.744-1.12 2.916c0 .528.712.697.948.225C4.94 8.705 5.945 7.6 7 6.877V13.5a.5.5 0 0 0 .5.5h1a.5.5 0 0 0 .5-.5V6.877c1.055.723 2.06 1.828 2.588 2.883c.236.472.948.303.947-.225c0-1.172-.4-2.196-1.119-2.916a3.74 3.74 0 0 0-1.537-.916c1.163-.152 2.462-.062 3.463.272c.5.167.885-.455.511-.828c-.828-.83-1.835-1.272-2.853-1.272a3.7 3.7 0 0 0-1.488.32c.66-.74 1.467-1.393 2.248-1.783c.472-.236.303-.948-.225-.947c-1.172 0-2.196.4-2.916 1.119A3.6 3.6 0 0 0 8 3.42a3.6 3.6 0 0 0-.62-.836c-.719-.72-1.743-1.12-2.915-1.12M10 13.5a.5.5 45 0 0 .5.5h4a.5.5 135 0 0 .5-.5a.5.5 45 0 0-.5-.5h-4a.5.5 135 0 0-.5.5"/></symbol><symbol id="hd-icon-roentgen-palm-urban-tree-pot" viewBox="0 0 16 16"><path fill="currentColor" d="M4.465 1.465c-.528-.001-.697.71-.225.947c.78.39 1.588 1.043 2.248 1.783A3.7 3.7 0 0 0 5 3.875c-1.018 0-2.025.443-2.853 1.271c-.374.374.01.996.511.829c1-.334 2.3-.424 3.463-.272a3.74 3.74 0 0 0-1.537.916c-.72.72-1.12 1.744-1.12 2.916c0 .528.712.697.948.225C4.94 8.705 5.945 7.6 7 6.877V13.5a.5.5 0 0 0 .5.5h1a.5.5 0 0 0 .5-.5V6.877c1.055.723 2.06 1.828 2.588 2.883c.236.472.948.303.947-.225c0-1.172-.4-2.196-1.119-2.916a3.74 3.74 0 0 0-1.537-.916c1.163-.152 2.462-.062 3.463.272c.5.167.885-.455.511-.828c-.828-.83-1.835-1.272-2.853-1.272a3.7 3.7 0 0 0-1.488.32c.66-.74 1.467-1.393 2.248-1.783c.472-.236.303-.948-.225-.947c-1.172 0-2.196.4-2.916 1.119A3.6 3.6 0 0 0 8 3.42a3.6 3.6 0 0 0-.62-.836c-.719-.72-1.743-1.12-2.915-1.12"/><path fill="currentColor" d="M3.5 13a.5.5 0 0 0-.353.854l1 1A.5.5 0 0 0 4.5 15h7a.5.5 0 0 0 .354-.146l1-1A.5.5 0 0 0 12.5 13z"/></symbol><symbol id="hd-icon-roentgen-pan" viewBox="0 0 16 16"><path fill="currentColor" d="M7.5 3c-.277 0-.5.223-.5.5V4H2.5a.499.499 0 1 0 0 1h11a.499.499 0 1 0 0-1H9v-.5c0-.277-.223-.5-.5-.5zM3 6v5.5c0 .831.669 1.5 1.5 1.5h7c.831 0 1.5-.669 1.5-1.5V6z"/></symbol><symbol id="hd-icon-roentgen-peach" viewBox="0 0 16 16"><path fill="currentColor" d="M5.568 3.113c.435.07.852.239 1.21.496c-1.068 1.199-1.529 2.53-1.59 3.76a6 6 0 0 0 .89 3.477a.5.5 0 0 0 .844-.536c-.444-.7-.791-1.755-.734-2.89c.056-1.135.496-2.355 1.66-3.482l.011-.014l.024-.024c.844-.855 2.221-1.08 3.326-.51c1.115.576 2.03 1.953 1.793 4.565c-.168 1.851-1.098 3.366-2.229 4.424C9.643 13.437 8.29 14 7.5 14s-2.143-.563-3.274-1.621c-1.13-1.058-2.06-2.573-2.228-4.424c-.238-2.612.678-3.989 1.793-4.564a2.9 2.9 0 0 1 1.777-.278"/></symbol><symbol id="hd-icon-roentgen-pear" viewBox="0 0 16 16"><path fill="currentColor" d="M8.277 1.053c-.787.393-1.315 1.08-1.58 1.972c-.53.091-.967.416-1.238.823C5.138 4.329 5 4.917 5 5.5c0 1.117-.39 1.563-.89 2.188S3 9.117 3 10.5c0 1.125.448 2.05 1.188 2.64c.739.592 1.729.86 2.812.86s2.073-.268 2.813-.86C10.552 12.55 11 11.626 11 10.5c0-1.383-.61-2.187-1.11-2.812S9 6.617 9 5.5c0-.583-.138-1.17-.459-1.652a1.93 1.93 0 0 0-.854-.71a1.98 1.98 0 0 1 1.036-1.19a.5.5 0 0 0-.446-.895"/></symbol><symbol id="hd-icon-roentgen-phone" viewBox="0 0 16 16"><path fill="currentColor" d="M5 2c-.554 0-1 .446-1 1v10c0 .554.446 1 1 1h6c.554 0 1-.446 1-1V3c0-.554-.446-1-1-1zm.5 1h5c.277 0 .5.223.5.5v7c0 .277-.223.5-.5.5h-5a.5.5 0 0 1-.5-.5v-7c0-.277.223-.5.5-.5m2 9h1a.499.499 0 1 1 0 1h-1a.499.499 0 1 1 0-1"/></symbol><symbol id="hd-icon-roentgen-photo-camera" viewBox="0 0 16 16"><path fill="currentColor" d="M3.5 3a.5.5 0 0 0-.001 1H4.5a.5.5 0 0 0 .001-1zM7 3c-.4 0-.744.234-.904.572L5.382 5H4a1 1 0 0 0-1 1v5a1 1 0 0 0 .998 1H12a1 1 0 0 0 1-1V6.001A1 1 0 0 0 12.002 5h-1.384l-.714-1.428A1 1 0 0 0 9.002 3zM6 8a2 2 0 1 1 3.999-.001A2 2 0 0 1 6 8"/></symbol><symbol id="hd-icon-roentgen-picture" viewBox="0 0 16 16"><path fill="currentColor" d="M2.5 3c-.277 0-.5.223-.5.5V5h.5c.277 0 .5.223.5.5v1c0 .277-.223.5-.5.5H2v2h.5c.277 0 .5.223.5.5v1c0 .277-.223.5-.5.5H2v1.5c0 .277.223.5.5.5H4v-.5a.499.499 0 1 1 1 0v.5h2v-.5c0-.277.223-.5.5-.5h1c.277 0 .5.223.5.5v.5h2v-.5a.499.499 0 1 1 1 0v.5h1.5c.277 0 .5-.223.5-.5V11h-.5a.5.5 0 0 1-.5-.5v-1c0-.277.223-.5.5-.5h.5V7h-.5a.5.5 0 0 1-.5-.5v-1c0-.277.223-.5.5-.5h.5V3.5c0-.277-.223-.5-.5-.5H12v.5a.499.499 0 1 1-1 0V3H9v.5c0 .277-.223.5-.5.5h-1a.5.5 0 0 1-.5-.5V3H5v.5c0 .277-.22.5-.492.5h-.016A.495.495 0 0 1 4 3.5V3zm2 2h7c.277 0 .5.223.5.5v5c0 .277-.223.5-.5.5h-7a.5.5 0 0 1-.5-.5v-5c0-.277.223-.5.5-.5m1 1c-.277 0-.5.223-.5.5v3c0 .277.223.5.5.5h5c.277 0 .5-.223.5-.5v-3c0-.277-.223-.5-.5-.5z"/></symbol><symbol id="hd-icon-roentgen-pillar" viewBox="0 0 16 16"><path fill="currentColor" d="M5.5 2a.5.5 0 0 0-.5.5a.5.5 0 0 0 .5.5H6v.5a.5.5 0 0 0 .5.5H7v8h-.5a.5.5 0 0 0-.5.5v.5h-.5a.5.5 0 0 0-.5.5a.5.5 0 0 0 .5.5h5a.5.5 0 0 0 .5-.5a.5.5 0 0 0-.5-.5H10v-.5a.5.5 0 0 0-.5-.5H9V4h.5a.5.5 0 0 0 .5-.5V3h.5a.5.5 0 0 0 .5-.5a.5.5 0 0 0-.5-.5z"/></symbol><symbol id="hd-icon-roentgen-pipeline" viewBox="0 0 16 16"><path fill="currentColor" d="M7.5 2.5A.5.5 0 0 0 7 3H5.5a.5.5 0 0 0-.001 1H7v1h1V4h1.5a.5.5 0 0 0 .001-1H8a.5.5 0 0 0-.5-.5M2.5 6a.5.5 0 0 0-.5.5v4a.5.5 0 0 0 1 0V10h2v.5a.5.5 0 0 0 .499.5H9.5a.5.5 0 0 0 .5-.5V10h2v.5a.5.5 0 0 0 1 0V6.501a.5.5 0 1 0-1-.001V7h-2v-.499A.5.5 0 0 0 9.501 6H5.5a.5.5 0 0 0-.5.5V7H3v-.499A.5.5 0 0 0 2.5 6"/></symbol><symbol id="hd-icon-roentgen-plane" viewBox="0 0 16 16"><path fill="currentColor" d="M8 1.5c-.5 0-1 .5-1.002 1v2.717L2.242 8.07a.5.5 0 0 0-.244.43V10a.5.5 0 0 0 .687.465L6.998 8.74v3.992l-1.275.852a.5.5 0 0 0-.225.416v.5a.5.5 0 0 0 .623.486L8 14.516l1.879.47c.316.08.623-.16.623-.486V14a.5.5 0 0 0-.225-.416l-1.275-.852V8.74l4.312 1.725c.33.132.688-.11.688-.465V8.5a.5.5 0 0 0-.244-.43L9.002 5.217V2.5C9 2 8.5 1.5 8 1.5"/></symbol><symbol id="hd-icon-roentgen-plaque" viewBox="0 0 16 16"><path fill="currentColor" d="M4.5 3a.5.5 0 0 0-.5.5v9a.5.5 0 0 0 .499.5H11.5a.5.5 0 0 0 .5-.5V3.501A.5.5 0 0 0 11.501 3zm.999 2H10.5a.5.5 0 0 1 .001 1H5.5a.5.5 0 0 1-.001-1m0 2H10.5a.5.5 0 0 1 .001 1H5.5a.5.5 0 0 1-.001-1M5 9.5a.5.5 0 0 1 .499-.5H10.5a.5.5 0 0 1 .001 1H5.5a.5.5 0 0 1-.5-.5"/></symbol><symbol id="hd-icon-roentgen-pole" viewBox="0 0 16 16"><path fill="currentColor" d="M2.5 3a.499.499 0 1 0 0 1h.813l3 3H4.5a.499.499 0 1 0 0 1H7v5.5a.499.499 0 1 0 1 0V8h2.5a.499.499 0 1 0 0-1H8.688l3-3h.812a.499.499 0 1 0 0-1zm2.188 1H7v2.313zM8 4h2.313L8 6.313z"/></symbol><symbol id="hd-icon-roentgen-pole-dancer" viewBox="0 0 16 16"><path fill="currentColor" d="M7.492.992A.5.5 0 0 0 7 1.5v5.36l-.312.25A.5.5 0 0 0 7 8v2.016L5.242 11.07c-.573.344-.057 1.203.516.86L7 11.184V14H4.5c-.676-.01-.676 1.01 0 1h6c.676.01.676-1.01 0-1H8v-3.418l.184-.11l2.51-.51l.001-.002c.144-.038.305-.159.305-.576V5.5a.5.5 0 0 0-.5-.5l-1.004-.004a.45.45 0 0 0-.319.121L8 6.06V1.5a.5.5 0 0 0-.508-.508M10 2c-.554 0-1 .446-1 1s.446 1 1 1s1-.446 1-1s-.446-1-1-1M9 6.541v2.75l-1 .2V7.34z"/></symbol><symbol id="hd-icon-roentgen-pole-lamp" viewBox="0 0 16 16"><path fill="currentColor" d="M10 1.25c-1.003 0-2.014.19-2.695.754c-.997.032-1.828.312-2.408.893C4.278 3.514 4 4.417 4 5.5v3.883l-.947 1.894A.5.5 0 0 0 3 11.5v2a.5.5 0 0 0 .5.5h2a.5.5 0 0 0 .5-.5v-2a.5.5 0 0 0-.053-.223L5 9.383V5.5c0-.917.221-1.514.604-1.896c.324-.325.804-.533 1.502-.588C7.53 4.456 8.77 5.25 10 5.25c1.347 0 2.709-.955 2.994-2.668a.5.5 0 0 0-.14-.435c-.677-.677-1.77-.897-2.854-.897M8.27 3h3.46c-.354.817-1.006 1.25-1.73 1.25S8.624 3.817 8.27 3"/></symbol><symbol id="hd-icon-roentgen-pound" viewBox="0 0 16 16"><path fill="currentColor" d="M7.5 4C6.678 4 6 4.678 6 5.5V7h-.5a.5.5 0 0 0-.5.5a.5.5 0 0 0 .5.5h.451c-.066.29-.197.467-.367.723C5.334 9.098 5 9.639 5 10.5a.5.5 0 0 0 .5.5h3a.5.5 0 0 0 .5-.5a.5.5 0 0 0-.5-.5H6.17c.072-.229.098-.501.246-.723c.198-.296.447-.697.543-1.277H7.5a.5.5 0 0 0 .5-.5a.5.5 0 0 0-.5-.5H7V5.5c0-.282.218-.5.5-.5s.5.218.5.5a.5.5 0 0 0 .5.5a.5.5 0 0 0 .5-.5C9 4.678 8.322 4 7.5 4"/></symbol><symbol id="hd-icon-roentgen-power-generator" viewBox="0 0 16 16"><path fill="currentColor" d="M2.5 2c-.277 0-.5.223-.5.5V11a2 2 0 1 0 4 0h5.191l.862 1.723A.5.5 0 0 0 12.5 13h1a.5.5 0 0 0 .5-.5v-10c0-.277-.223-.5-.5-.5zm1 1h2a.499.499 0 1 1 0 1h-2a.499.499 0 1 1 0-1m7.5.5v2.191l1.277-.638c.459-.227.922.298.639.724l-2 3A.5.5 0 0 1 10 8.5V6.309l-1.277.638c-.459.227-.922-.298-.639-.724l2-3c.272-.409.916-.214.916.277M3.5 5h2a.499.499 0 1 1 0 1h-2a.499.499 0 1 1 0-1m0 2h2a.499.499 0 1 1 0 1h-2a.499.499 0 1 1 0-1m.5 3a1 1 0 1 1 0 2a1 1 0 0 1 0-2"/></symbol><symbol id="hd-icon-roentgen-power-pole-1-level" viewBox="0 0 16 16"><path fill="currentColor" d="M7.5 2a.5.5 0 0 0-.5.5V3H2.5a.5.5 0 0 0-.001 1H7v10.5a.5.5 0 0 0 .499.5H8.5a.5.5 0 0 0 .5-.5V4h4.5a.5.5 0 0 0 .001-1H9v-.499A.5.5 0 0 0 8.501 2zm-5 2.5A.5.5 0 0 0 2 5v1a.5.5 0 0 0 1 0v-.999a.5.5 0 0 0-.5-.501m11 0a.5.5 0 0 0-.5.5v1a.5.5 0 0 0 1 0v-.999a.5.5 0 0 0-.5-.501"/></symbol><symbol id="hd-icon-roentgen-power-pole-2-level" viewBox="0 0 16 16"><path fill="currentColor" d="M7.5 2a.5.5 0 0 0-.5.5V3H2.5a.5.5 0 0 0-.001 1H7v1H2.5a.5.5 0 0 0-.001 1H7v8.5a.5.5 0 0 0 .499.5H8.5a.5.5 0 0 0 .5-.5V6h4.5a.5.5 0 0 0 .001-1H9V4h4.5a.5.5 0 0 0 .001-1H9v-.499A.5.5 0 0 0 8.501 2zm-5 4.5A.5.5 0 0 0 2 7v1a.5.5 0 0 0 1 0v-.999a.5.5 0 0 0-.5-.501m11 0a.5.5 0 0 0-.5.5v1a.5.5 0 0 0 1 0v-.999a.5.5 0 0 0-.5-.501"/></symbol><symbol id="hd-icon-roentgen-power-pole-3-level" viewBox="0 0 16 16"><path fill="currentColor" d="M7.5 2a.5.5 0 0 0-.5.5V3H2.5a.5.5 0 0 0-.001 1H7v1H2.5a.5.5 0 0 0-.001 1H7v1H2.5a.5.5 0 0 0-.001 1H7v6.5a.5.5 0 0 0 .499.5H8.5a.5.5 0 0 0 .5-.5V8h4.5a.5.5 0 0 0 .001-1H9V6h4.5a.5.5 0 0 0 .001-1H9V4h4.5a.5.5 0 0 0 .001-1H9v-.499A.5.5 0 0 0 8.501 2zm-5 6.5A.5.5 0 0 0 2 9v1a.5.5 0 0 0 1 0V9a.5.5 0 0 0-.5-.5m11 0a.5.5 0 0 0-.5.5v1a.5.5 0 0 0 1 0V9a.5.5 0 0 0-.5-.5"/></symbol><symbol id="hd-icon-roentgen-power-pole-4-level" viewBox="0 0 16 16"><path fill="currentColor" d="M7.5 2a.5.5 0 0 0-.5.5V3H2.5a.5.5 0 0 0-.001 1H7v1H2.5a.5.5 0 0 0-.001 1H7v1H2.5a.5.5 0 0 0-.001 1H7v1H2.5a.5.5 0 0 0-.001 1H7v4.5a.5.5 0 0 0 .499.5H8.5a.5.5 0 0 0 .5-.5V10h4.5a.5.5 0 0 0 .001-1H9V8h4.5a.5.5 0 0 0 .001-1H9V6h4.5a.5.5 0 0 0 .001-1H9V4h4.5a.5.5 0 0 0 .001-1H9v-.499A.5.5 0 0 0 8.501 2zm-5 8.5a.5.5 0 0 0-.5.5v1a.5.5 0 0 0 1 0v-1a.5.5 0 0 0-.5-.5m11 0a.5.5 0 0 0-.5.5v1a.5.5 0 0 0 1 0v-1a.5.5 0 0 0-.5-.5"/></symbol><symbol id="hd-icon-roentgen-power-pole-asymmetric" viewBox="0 0 16 16"><path fill="currentColor" d="M7.5 2a.5.5 0 0 0-.5.5V3H2.5a.5.5 0 0 0-.001 1H7v1H2.5a.5.5 0 0 0-.001 1H7v8.5a.5.5 0 0 0 .499.5H8.5a.5.5 0 0 0 .5-.5V6h4.5a.5.5 0 0 0 .001-1H9V2.501A.5.5 0 0 0 8.501 2zm-5 4.5A.5.5 0 0 0 2 7v1a.5.5 0 0 0 1 0v-.999a.5.5 0 0 0-.5-.501m11 0a.5.5 0 0 0-.5.5v1a.5.5 0 0 0 1 0v-.999a.5.5 0 0 0-.5-.501"/></symbol><symbol id="hd-icon-roentgen-power-pole-asymmetric-armless" viewBox="0 0 16 16"><path fill="currentColor" d="M7.5 2a.5.5 0 0 0-.5.5V3H5.5a.5.5 0 0 0-.001 1H7v1H5.5a.5.5 0 0 0-.001 1H7v8.5a.5.5 0 0 0 .499.5H8.5a.5.5 0 0 0 .5-.5V6h1.5a.5.5 0 0 0 .001-1H9V2.501A.5.5 0 0 0 8.501 2zm-2 4.5A.5.5 0 0 0 5 7v1a.5.5 0 0 0 1 0v-.999a.5.5 0 0 0-.5-.501m5 0a.5.5 0 0 0-.5.5v1a.5.5 0 0 0 1 0v-.999a.5.5 0 0 0-.5-.501"/></symbol><symbol id="hd-icon-roentgen-power-pole-delta" viewBox="0 0 16 16"><path fill="currentColor" d="M8 1.5a.5.5 0 0 0-.5.5v1a.5.5 0 0 0 1 0V2a.5.5 0 0 0-.5-.5m-5.5 1A.5.5 0 0 0 2 3v1a.5.5 0 0 0 1 0V3a.5.5 0 0 0-.5-.5m11 0a.5.5 0 0 0-.5.5v1a.5.5 0 0 0 1 0V3a.5.5 0 0 0-.5-.5M7.5 4a.5.5 0 0 0-.5.5V5H2.5a.5.5 0 0 0-.001 1H7v8.5a.5.5 0 0 0 .499.5H8.5a.5.5 0 0 0 .5-.5V6h4.5a.5.5 0 0 0 .001-1H9v-.499A.5.5 0 0 0 8.501 4z"/></symbol><symbol id="hd-icon-roentgen-power-pole-flag" viewBox="0 0 16 16"><path fill="currentColor" d="M7.5 2a.5.5 0 0 0-.5.5V3H2.5a.5.5 0 0 0-.001 1H7v1H2.5a.5.5 0 0 0-.001 1H7v1H2.5a.5.5 0 0 0-.001 1H7v6.5a.5.5 0 0 0 .499.5H8.5a.5.5 0 0 0 .5-.5V2.501A.5.5 0 0 0 8.501 2zm-5 6.5A.5.5 0 0 0 2 9v1a.5.5 0 0 0 1 0V9a.5.5 0 0 0-.5-.5"/></symbol><symbol id="hd-icon-roentgen-power-pole-flag-armless" viewBox="0 0 16 16"><path fill="currentColor" d="M7.5 2a.5.5 0 0 0-.5.5V3H5.5a.5.5 0 0 0-.001 1H7v1H5.5a.5.5 0 0 0-.001 1H7v1H5.5a.5.5 0 0 0-.001 1H7v6.5a.5.5 0 0 0 .499.5H8.5a.5.5 0 0 0 .5-.5V2.501A.5.5 0 0 0 8.501 2zm-2 6.5A.5.5 0 0 0 5 9v1a.5.5 0 0 0 1 0V9a.5.5 0 0 0-.5-.5"/></symbol><symbol id="hd-icon-roentgen-power-pole-triangle" viewBox="0 0 16 16"><path fill="currentColor" d="M7.5 2a.5.5 0 0 0-.5.5V3H2.5a.5.5 0 0 0-.001 1H7v3H2.5a.5.5 0 0 0-.001 1H7v6.5a.5.5 0 0 0 .499.5H8.5a.5.5 0 0 0 .5-.5V6h4.5a.5.5 0 0 0 .001-1H9V2.501A.5.5 0 0 0 8.501 2zm6 4.5a.5.5 0 0 0-.5.5v1a.5.5 0 0 0 1 0v-.999a.5.5 0 0 0-.5-.501m-11 2A.5.5 0 0 0 2 9v1a.5.5 0 0 0 1 0V9a.5.5 0 0 0-.5-.5"/></symbol><symbol id="hd-icon-roentgen-power-pole-triangle-armless" viewBox="0 0 16 16"><path fill="currentColor" d="M7.5 2a.5.5 0 0 0-.5.5V3H5.5a.5.5 0 0 0-.001 1H7v3H5.5a.5.5 0 0 0-.001 1H7v6.5a.5.5 0 0 0 .499.5H8.5a.5.5 0 0 0 .5-.5V6h1.5a.5.5 0 0 0 .001-1H9V2.501A.5.5 0 0 0 8.501 2zm3 4.5a.5.5 0 0 0-.5.5v1a.5.5 0 0 0 1 0v-.999a.5.5 0 0 0-.5-.501m-5 2A.5.5 0 0 0 5 9v1a.5.5 0 0 0 1 0V9a.5.5 0 0 0-.5-.5"/></symbol><symbol id="hd-icon-roentgen-power-tower-1-level" viewBox="0 0 16 16"><path fill="currentColor" d="M7.5 1a.5.5 0 0 0-.478.353l-.953 2.858l-3.392 2.907A.5.5 0 0 0 3 8h3v2.382l-1.943 3.885a.5.5 0 1 0 .895.447L5.309 14h4.382l.357.714a.5.5 0 1 0 .895-.447L9 10.382V8h3a.5.5 0 0 0 .323-.882L8.931 4.211l-.953-2.858A.5.5 0 0 0 7.5 1m-.306 3l.306-.919l.306.919zM7 7V5h1v2zM4.352 7L6 5.587V7zM9 7V5.587L10.648 7zm-2 3V8h1v2zm-1.191 3l1-2h1.382l1 2z"/></symbol><symbol id="hd-icon-roentgen-power-tower-2-level" viewBox="0 0 16 16"><path fill="currentColor" d="M6.5 2a.5.5 0 0 0-.327.122L2.677 5.118A.5.5 0 0 0 3 6h3v1.27l-3.323 2.848A.5.5 0 0 0 3 11h2.691l-1.634 3.267a.5.5 0 1 0 .895.447L5.309 14h4.382l.357.714a.5.5 0 1 0 .895-.447L9.309 11H12a.5.5 0 0 0 .323-.882L9 7.27V6h3a.5.5 0 0 0 .323-.882L8.828 2.122A.5.5 0 0 0 8.501 2zM7 5V3h1v2zM4.352 5L6 3.587V5zM9 5V3.587L10.648 5zM7 7V6h1v1zm0 3V8h1v2zm-2.648 0L6 8.587V10zM9 10V8.587L10.648 10zm-3.191 3l1-2h1.382l1 2z"/></symbol><symbol id="hd-icon-roentgen-power-tower-3-level" viewBox="0 0 16 16"><path fill="currentColor" d="M6.5 1a.5.5 0 0 0-.327.122L2.677 4.118A.5.5 0 0 0 3 5h2.148L2.677 7.118A.5.5 0 0 0 3 8h2.148l-2.471 2.118A.5.5 0 0 0 3 11h2.691l-1.634 3.267a.5.5 0 1 0 .895.447L5.309 14h4.382l.357.714a.5.5 0 1 0 .895-.447L9.309 11H12a.5.5 0 0 0 .323-.882L9.852 8H12a.5.5 0 0 0 .323-.882L9.852 5H12a.5.5 0 0 0 .323-.882L8.828 1.122A.5.5 0 0 0 8.501 1zM7 4V2h1v2zM4.352 4L6 2.587V4zM9 4V2.587L10.648 4zM7 7V5h1v2zM4.352 7L6 5.587V7zM9 7V5.587L10.648 7zm-2 3V8h1v2zm2 0V8.587L10.648 10zm-4.648 0L6 8.587V10zm1.457 3l1-2h1.382l1 2z"/></symbol><symbol id="hd-icon-roentgen-power-tower-4-level" viewBox="0 0 16 16"><path fill="currentColor" d="M7.5 1a.5.5 0 0 0-.478.353L6.14 4H3.5a.5.5 0 0 0-.001 1H6v1H3.5a.5.5 0 0 0-.001 1H6v1H3.5a.5.5 0 0 0-.001 1H6v1H3.5a.5.5 0 0 0-.001 1h2.192l-1.634 3.267a.5.5 0 1 0 .895.447L5.309 14h4.382l.357.714a.5.5 0 1 0 .895-.447L9.309 11H11.5a.5.5 0 0 0 .001-1H9V9h2.5a.5.5 0 0 0 .001-1H9V7h2.5a.5.5 0 0 0 .001-1H9V5h2.5a.5.5 0 0 0 .001-1H8.86l-.882-2.647A.5.5 0 0 0 7.5 1m-.306 3l.306-.919l.306.919zM7 6V5h1v1zm0 2V7h1v1zm0 2V9h1v1zm-1.191 3l1-2h1.382l1 2z"/></symbol><symbol id="hd-icon-roentgen-power-tower-asymmetric" viewBox="0 0 16 16"><path fill="currentColor" d="M6.5 2a.5.5 0 0 0-.327.122L2.677 5.118A.5.5 0 0 0 3 6h3v1.27l-3.323 2.848A.5.5 0 0 0 3 11h2.691l-1.634 3.267a.5.5 0 1 0 .895.447L5.309 14h4.382l.357.714a.5.5 0 1 0 .895-.447L9.309 11H12a.5.5 0 0 0 .323-.882L9 7.27V2.501A.5.5 0 0 0 8.501 2zM7 5V3h1v2zM4.352 5L6 3.587V5zM7 7V6h1v1zm0 3V8h1v2zm-2.648 0L6 8.587V10zM9 10V8.587L10.648 10zm-3.191 3l1-2h1.382l1 2z"/></symbol><symbol id="hd-icon-roentgen-power-tower-barrel" viewBox="0 0 16 16"><path fill="currentColor" d="M6.5 1a.5.5 0 0 0-.354.146l-2.999 3A.499.499 0 0 0 3.499 5H5L2.205 7.096A.502.502 0 0 0 2.499 8h2.794l-2.147 2.146a.502.502 0 0 0 .353.854h2.192l-1.634 3.267a.5.5 0 1 0 .895.447L5.309 14h4.382l.357.714a.5.5 0 1 0 .895-.447L9.309 11H11.5a.5.5 0 0 0 .354-.854L9.707 8H12.5a.5.5 0 0 0 .295-.903L10 5h1.5a.5.5 0 0 0 .354-.854l-3-2.999A.5.5 0 0 0 8.501 1zM7 4V2h1v2zm2 0V2.707L10.293 4zM4.707 4L6 2.707V4zM7 7V5h1v2zM4 7l2-1.5V7zm5 0V5.5L11 7zm-2 3V8h1v2zm2 0V8.707L10.293 10zm-4.293 0L6 8.707V10zm1.102 3l1-2h1.382l1 2z"/></symbol><symbol id="hd-icon-roentgen-power-tower-barrel-1-level" viewBox="0 0 16 16"><path fill="currentColor" d="M7.5 1a.5.5 0 0 0-.478.353L6.14 4H4.5a.5.5 0 0 0-.001 1H6v1H3.5a.5.5 0 0 0-.001 1H6v1H4.5a.5.5 0 0 0-.001 1H6v1H3.5a.5.5 0 0 0-.001 1h2.192l-1.634 3.267a.5.5 0 1 0 .895.447L5.309 14h4.382l.357.714a.5.5 0 1 0 .895-.447L9.309 11H11.5a.5.5 0 0 0 .001-1H9V9h1.5a.5.5 0 0 0 .001-1H9V7h2.5a.5.5 0 0 0 .001-1H9V5h1.5a.5.5 0 0 0 .001-1H8.86l-.882-2.647A.5.5 0 0 0 7.5 1m-.306 3l.306-.919l.306.919zM7 6V5h1v1zm0 2V7h1v1zm0 2V9h1v1zm-1.191 3l1-2h1.382l1 2z"/></symbol><symbol id="hd-icon-roentgen-power-tower-delta" viewBox="0 0 16 16"><path fill="currentColor" d="M3.5 3a.5.5 0 0 0-.5.5V4H2a.5.5 0 0 0 0 1h1v1.5c0 .097.028.188.075.264L6 11.638V14.5a.5.5 0 0 0 1 0V14h1v.5a.5.5 0 0 0 1 0v-2.862l2.924-4.874A.5.5 0 0 0 12 6.5V5h1a.5.5 0 0 0 0-1h-1v-.499a.5.5 0 1 0-1-.001V4H4v-.499A.5.5 0 0 0 3.5 3M4 6.25V5h7v1.25L7.5 8.875zm2.46 4.212L5.242 8.431L6.866 9.65zm1.674-.812l1.624-1.219l-1.218 2.031zM7 11.618l.5-1l.5 1V13H7z"/></symbol><symbol id="hd-icon-roentgen-power-tower-delta-2-level" viewBox="0 0 16 16"><path fill="currentColor" d="M3.5 2a.5.5 0 0 0-.5.5V3H2a.5.5 0 1 0 0 1h1v1H2a.5.5 0 0 0 0 1h1v.5c0 .097.028.188.075.264L6 11.638V14.5a.5.5 0 0 0 1 0V14h1v.5a.5.5 0 0 0 1 0v-2.862l2.924-4.874A.5.5 0 0 0 12 6.5V6h1a.5.5 0 0 0 0-1h-1V4h1a.5.5 0 1 0 0-1h-1v-.499a.5.5 0 1 0-1-.001V3H4v-.499A.5.5 0 0 0 3.5 2M4 5V4h7v1zm0 1.25V6h7v.25L7.5 8.875zm2.46 4.212L5.242 8.431L6.866 9.65zm1.674-.812l1.624-1.219l-1.218 2.031zM7 11.618l.5-1l.5 1V13H7z"/></symbol><symbol id="hd-icon-roentgen-power-tower-delta-3-level" viewBox="0 0 16 16"><path fill="currentColor" d="M3.5 1a.5.5 0 0 0-.5.5V2H2a.5.5 0 1 0 0 1h1v1H2a.5.5 0 0 0 0 1h1v1H2a.5.5 0 0 0 0 1h1.217L6 11.638V14.5a.5.5 0 0 0 1 0V14h1v.5a.5.5 0 0 0 1 0v-2.862L11.783 7H13a.5.5 0 0 0 0-1h-1V5h1a.5.5 0 0 0 0-1h-1V3h1a.5.5 0 1 0 0-1h-1v-.499a.5.5 0 1 0-1-.001V2H4v-.499A.5.5 0 0 0 3.5 1M4 4V3h7v1zm0 2V5h7v1zm3.5 2.875L5 7h5zm-1.04 1.587L5.242 8.431L6.866 9.65zm1.674-.812l1.624-1.219l-1.218 2.031zM7 11.618l.5-1l.5 1V13H7z"/></symbol><symbol id="hd-icon-roentgen-power-tower-donau" viewBox="0 0 16 16"><path fill="currentColor" d="M6.5 2a.5.5 0 0 0-.354.147l-3 3A.5.5 0 0 0 3.5 6H6v1.25L2.2 10.1a.5.5 0 0 0 .3.9h3.191l-1.638 3.277a.5.5 0 1 0 .894.446L5.31 14h4.38l.362.723a.5.5 0 1 0 .894-.446L9.31 11h3.19a.5.5 0 0 0 .3-.9L9 7.25V6h2.5a.5.5 0 0 0 .354-.854l-3-3A.5.5 0 0 0 8.5 2zM7 3h1v2H7zm-1 .707V5H4.707zm3 0L10.293 5H9zM7 6h1v1H7zm0 2h1v2H7zm2 .5l2 1.5H9zm-3 .002V10H4.002zM6.809 11H8.19l1 2H5.81z"/></symbol><symbol id="hd-icon-roentgen-power-tower-donau-1-level" viewBox="0 0 16 16"><path fill="currentColor" d="M6.5 1a.5.5 0 0 0-.354.146l-2.999 3A.499.499 0 0 0 3.499 5H5L2.205 7.096A.502.502 0 0 0 2.499 8H5l-2.795 2.097a.498.498 0 0 0 .294.903h3.192l-1.634 3.267a.5.5 0 1 0 .895.447L5.309 14h4.382l.357.714a.5.5 0 1 0 .895-.447L9.309 11H12.5a.5.5 0 0 0 .295-.903L10 8h2.5a.5.5 0 0 0 .295-.903L10 5h1.5a.5.5 0 0 0 .354-.854l-3-2.999A.5.5 0 0 0 8.501 1zM7 4V2h1v2zm2 0V2.707L10.293 4zM4.707 4L6 2.707V4zM7 7V5h1v2zM4 7l2-1.5V7zm5 0V5.5L11 7zm-2 3V8h1v2zm-3 0l2-1.5V10zm5 0V8.5l2 1.5zm-3.191 3l1-2h1.382l1 2z"/></symbol><symbol id="hd-icon-roentgen-power-tower-donau-inverse" viewBox="0 0 16 16"><path fill="currentColor" d="M6.5 2a.5.5 0 0 0-.304.103L2.205 5.096A.502.502 0 0 0 2.499 6H6v1.293l-2.854 2.853a.502.502 0 0 0 .353.854h2.192l-1.634 3.267a.5.5 0 1 0 .895.447L5.309 14h4.382l.357.714a.5.5 0 1 0 .895-.447L9.309 11H11.5a.5.5 0 0 0 .354-.854L9 7.293V6h3.5a.5.5 0 0 0 .295-.903L8.804 2.103A.5.5 0 0 0 8.501 2zM7 5V3h1v2zm2 0V3.5L11 5zM4 5l2-1.5V5zm3 2V6h1v1zm0 3V8h1v2zm2 0V8.707L10.293 10zm-4.293 0L6 8.707V10zm1.102 3l1-2h1.382l1 2z"/></symbol><symbol id="hd-icon-roentgen-power-tower-flag" viewBox="0 0 16 16"><path fill="currentColor" d="M7.5 1a.5.5 0 0 0-.478.353L6.14 4H3.5a.5.5 0 0 0-.001 1H6v2H3.5a.5.5 0 0 0-.001 1H6v2H3.5a.5.5 0 0 0-.001 1h2.192l-1.634 3.267a.5.5 0 1 0 .895.447L5.309 14h4.382l.357.714a.5.5 0 1 0 .895-.447L9 10.382V4.501q0-.09-.029-.17l-.993-2.978A.5.5 0 0 0 7.5 1m-.306 3l.306-.919l.306.919zM7 7V5h1v2zm0 3V8h1v2zm-1.191 3l1-2h1.382l1 2z"/></symbol><symbol id="hd-icon-roentgen-power-tower-guyed-h-frame" viewBox="0 0 16 16"><path fill="currentColor" d="M4.5 2a.5.5 0 0 0-.499.463L3.957 3H2.5a.5.5 0 0 0-.001 1h1.374l-.871 10.453Q3 14.476 3 14.5a.5.5 0 0 0 1 .037L4.877 4h5.246L11 14.537a.502.502 0 0 0 1-.037q0-.024-.002-.047L11.127 4H12.5a.5.5 0 0 0 .001-1h-1.458L11 2.463a.502.502 0 1 0-.998.084L10.04 3H4.96l.038-.453L5 2.5a.5.5 0 0 0-.5-.5m-2 2.5A.5.5 0 0 0 2 5v1a.5.5 0 0 0 1 0v-.999a.5.5 0 0 0-.5-.501m5 0A.5.5 0 0 0 7 5v1a.5.5 0 0 0 1 0v-.999a.5.5 0 0 0-.5-.501m5 0a.5.5 0 0 0-.5.5v1a.5.5 0 0 0 1 0v-.999a.5.5 0 0 0-.5-.501"/></symbol><symbol id="hd-icon-roentgen-power-tower-guyed-v-frame" viewBox="0 0 16 16"><path fill="currentColor" d="M3.5 2a.5.5 0 0 0-.482.632L3.11 3H2.5a.5.5 0 0 0-.001 1h.861l2.652 10.611a.5.5 0 1 0 .97-.243L4.39 4h6.22L8.018 14.368a.5.5 0 1 0 .97.243L11.64 4h.86a.5.5 0 0 0 .001-1h-.611l.092-.368a.5.5 0 1 0-.97-.243L10.86 3H4.14l-.152-.611A.5.5 0 0 0 3.5 2m-1 2.5A.5.5 0 0 0 2 5v1a.5.5 0 0 0 1 0v-.999a.5.5 0 0 0-.5-.501m5 0A.5.5 0 0 0 7 5v1a.5.5 0 0 0 1 0v-.999a.5.5 0 0 0-.5-.501m5 0a.5.5 0 0 0-.5.5v1a.5.5 0 0 0 1 0v-.999a.5.5 0 0 0-.5-.501"/></symbol><symbol id="hd-icon-roentgen-power-tower-h-frame" viewBox="0 0 16 16"><path fill="currentColor" d="M4.5 2a.5.5 0 0 0-.5.5V3H2.5a.5.5 0 0 0-.001 1H4v10.5a.5.5 0 0 0 1 0V12h5v2.5a.5.5 0 0 0 1 0V4h1.5a.5.5 0 0 0 .001-1H11v-.499a.5.5 0 1 0-1-.001V3H5v-.499A.5.5 0 0 0 4.5 2m.5 9V4h5v7zm2.5-6.5A.5.5 0 0 0 7 5v1a.5.5 0 0 0 1 0v-.999a.5.5 0 0 0-.5-.501m-5 0A.5.5 0 0 0 2 5v1a.5.5 0 0 0 1 0v-.999a.5.5 0 0 0-.5-.501m10 0a.5.5 0 0 0-.5.5v1a.5.5 0 0 0 1 0v-.999a.5.5 0 0 0-.5-.501"/></symbol><symbol id="hd-icon-roentgen-power-tower-h-frame-2-level" viewBox="0 0 16 16"><path fill="currentColor" d="M4.5 2a.5.5 0 0 0-.5.5V3H2.5a.5.5 0 0 0-.001 1H4v1H2.5a.5.5 0 0 0-.001 1H4v8.5a.5.5 0 0 0 1 0V12h5v2.5a.5.5 0 0 0 1 0V6h1.5a.5.5 0 0 0 .001-1H11V4h1.5a.5.5 0 0 0 .001-1H11v-.499a.5.5 0 1 0-1-.001V3H5v-.499A.5.5 0 0 0 4.5 2M5 5V4h5v1zm0 6V6h5v5zm2.5-4.5A.5.5 0 0 0 7 7v1a.5.5 0 0 0 1 0v-.999a.5.5 0 0 0-.5-.501m-5 0A.5.5 0 0 0 2 7v1a.5.5 0 0 0 1 0v-.999a.5.5 0 0 0-.5-.501m10 0a.5.5 0 0 0-.5.5v1a.5.5 0 0 0 1 0v-.999a.5.5 0 0 0-.5-.501"/></symbol><symbol id="hd-icon-roentgen-power-tower-h-frame-3-level" viewBox="0 0 16 16"><path fill="currentColor" d="M4.5 2a.5.5 0 0 0-.5.5V3H2.5a.5.5 0 0 0-.001 1H4v1H2.5a.5.5 0 0 0-.001 1H4v1H2.5a.5.5 0 0 0-.001 1H4v6.5a.5.5 0 0 0 1 0V13h5v1.5a.5.5 0 0 0 1 0V8h1.5a.5.5 0 0 0 .001-1H11V6h1.5a.5.5 0 0 0 .001-1H11V4h1.5a.5.5 0 0 0 .001-1H11v-.499a.5.5 0 1 0-1-.001V3H5v-.499A.5.5 0 0 0 4.5 2M5 5V4h5v1zm0 2V6h5v1zm0 5V8h5v4zm2.5-3.5A.5.5 0 0 0 7 9v1a.5.5 0 0 0 1 0V9a.5.5 0 0 0-.5-.5m-5 0A.5.5 0 0 0 2 9v1a.5.5 0 0 0 1 0V9a.5.5 0 0 0-.5-.5m10 0a.5.5 0 0 0-.5.5v1a.5.5 0 0 0 1 0V9a.5.5 0 0 0-.5-.5"/></symbol><symbol id="hd-icon-roentgen-power-tower-monopolar" viewBox="0 0 16 16"><path fill="currentColor" d="M7.5 1a.5.5 0 0 0-.452.286l-.991 1.981A.5.5 0 0 0 6 3.5V4H4.5a.5.5 0 0 0-.001 1H6v5.382l-1.943 3.885a.5.5 0 1 0 .895.447L5.309 14h4.382l.357.714a.5.5 0 1 0 .895-.447L9 10.382V5h1.5a.5.5 0 0 0 .001-1H9v-.499a.5.5 0 0 0-.057-.234l-.991-1.981A.5.5 0 0 0 7.5 1M7 3.618l.5-1l.5 1V4H7zM7 7V5h1v2zm0 3V8h1v2zm-1.191 3l1-2h1.382l1 2zM4.5 5.5A.5.5 0 0 0 4 6v1a.5.5 0 0 0 1 0v-.999a.5.5 0 0 0-.5-.501m6 0a.5.5 0 0 0-.5.5v1a.5.5 0 0 0 1 0v-.999a.5.5 0 0 0-.5-.501"/></symbol><symbol id="hd-icon-roentgen-power-tower-portal" viewBox="0 0 16 16"><path fill="currentColor" d="M3.5 2a.5.5 0 0 0-.5.463L2.957 3H2.5a.5.5 0 0 0-.001 1h.374l-.871 10.453q-.003.023-.002.047a.5.5 0 0 0 1 .037L3.877 4h7.246L12 14.537a.502.502 0 0 0 1-.037q0-.024-.002-.047L12.127 4h.373a.5.5 0 0 0 .001-1h-.458L12 2.463a.502.502 0 1 0-.998.084L11.04 3H3.96l.038-.453Q4 2.524 4 2.5a.5.5 0 0 0-.5-.5m2 2.5A.5.5 0 0 0 5 5v1a.5.5 0 0 0 1 0v-.999a.5.5 0 0 0-.5-.501m4 0A.5.5 0 0 0 9 5v1a.5.5 0 0 0 1 0v-.999a.5.5 0 0 0-.5-.501"/></symbol><symbol id="hd-icon-roentgen-power-tower-portal-2-level" viewBox="0 0 16 16"><path fill="currentColor" d="M3.5 2a.5.5 0 0 0-.5.463L2.957 3H2.5a.5.5 0 0 0-.001 1h.374L2.79 5H2.5a.5.5 0 0 0-.001 1h.208l-.705 8.453q-.003.023-.002.047a.5.5 0 0 0 1 .037L3.71 6h7.58l.71 8.537a.502.502 0 0 0 1-.037q0-.024-.002-.047L12.293 6h.207a.5.5 0 0 0 .001-1h-.291l-.083-1h.373a.5.5 0 0 0 .001-1h-.458L12 2.463a.502.502 0 1 0-.998.084L11.04 3H3.96l.038-.453Q4 2.524 4 2.5a.5.5 0 0 0-.5-.5m.293 3l.084-1h7.246l.084 1zM5.5 6.5A.5.5 0 0 0 5 7v1a.5.5 0 0 0 1 0v-.999a.5.5 0 0 0-.5-.501m4 0A.5.5 0 0 0 9 7v1a.5.5 0 0 0 1 0v-.999a.5.5 0 0 0-.5-.501"/></symbol><symbol id="hd-icon-roentgen-power-tower-portal-3-level" viewBox="0 0 16 16"><path fill="currentColor" d="M3.5 2a.5.5 0 0 0-.5.463L2.957 3H2.5a.5.5 0 0 0-.001 1h.374L2.79 5H2.5a.5.5 0 0 0-.001 1h.208l-.084 1H2.5a.5.5 0 0 0-.001 1h.041l-.538 6.453q-.003.023-.002.047a.5.5 0 0 0 1 .037L3.543 8h7.914L12 14.537a.502.502 0 0 0 1-.037q0-.024-.002-.047L12.46 8h.04a.5.5 0 0 0 .001-1h-.124l-.084-1h.207a.5.5 0 0 0 .001-1h-.291l-.083-1h.373a.5.5 0 0 0 .001-1h-.458L12 2.463a.502.502 0 1 0-.998.084L11.04 3H3.96l.038-.453Q4 2.524 4 2.5a.5.5 0 0 0-.5-.5m.293 3l.084-1h7.246l.084 1zm-.166 2l.083-1h7.58l.083 1zM5.5 8.5A.5.5 0 0 0 5 9v1a.5.5 0 0 0 1 0V9a.5.5 0 0 0-.5-.5m4 0A.5.5 0 0 0 9 9v1a.5.5 0 0 0 1 0V9a.5.5 0 0 0-.5-.5"/></symbol><symbol id="hd-icon-roentgen-power-tower-triangle" viewBox="0 0 16 16"><path fill="currentColor" d="M6.5 1a.5.5 0 0 0-.327.122L2.677 4.118A.5.5 0 0 0 3 5h3v2.27l-3.323 2.848A.5.5 0 0 0 3 11h2.691l-1.634 3.267a.5.5 0 1 0 .895.447L5.309 14h4.382l.357.714a.5.5 0 1 0 .895-.447L9 10.382V8h3a.5.5 0 0 0 .323-.882L9 4.27V1.501A.5.5 0 0 0 8.501 1zM7 4V2h1v2zM4.352 4L6 2.587V4zM7 7V5h1v2zm2 0V5.587L10.648 7zm-2 3V8h1v2zm-2.648 0L6 8.587V10zM8 11a.5.5 0 0 0 .175-.032L9.191 13H5.809l1-2z"/></symbol><symbol id="hd-icon-roentgen-power-tower-x-frame" viewBox="0 0 16 16"><path fill="currentColor" d="M2.5 3a.5.5 0 0 0-.388.815L6 8.675v.729l-1.96 4.9a.5.5 0 0 0 .77.588L7.5 12.8l2.69 2.092a.5.5 0 0 0 .77-.588L9 9.404v-.729l3.888-4.859a.5.5 0 0 0-.652-.741L7.5 5.917L2.764 3.075A.5.5 0 0 0 2.5 3m5.654 3.691l2.218-1.331l-1.774 2.217zm-1.752.886L4.628 5.36l2.218 1.331zM7 8.618l.5-1l.5 1V9H7zm-.472 2.159L6.839 10h1.322l.311.777l-.972.756zm1.786 1.39l.545-.424l.491 1.23zm-2.664.806l.491-1.23l.545.424z"/></symbol><symbol id="hd-icon-roentgen-power-tower-y-frame" viewBox="0 0 16 16"><path fill="currentColor" d="M2.5 3a.5.5 0 0 0-.412.783L6 9.651v.787l-.982 3.93a.5.5 0 1 0 .97.243L6.14 14h2.72l.152.611a.5.5 0 1 0 .97-.243L9 10.438v-.787l3.912-5.868a.5.5 0 0 0-.727-.671L7.5 6.86L2.816 3.112A.5.5 0 0 0 2.5 3m5.628 4.638l2.17-1.736l-1.736 2.604zm-1.69.868L4.702 5.902l2.17 1.736zM7 9.618l.5-1l.5 1V10H7zM6.39 13l.5-2h1.22l.5 2z"/></symbol><symbol id="hd-icon-roentgen-prison" viewBox="0 0 16 16"><path fill="currentColor" d="M2.5 1a.499.499 0 1 0 0 1H3v3h-.5c-.277 0-.5.223-.5.5v4c0 .277.223.5.5.5H3v3h-.5a.499.499 0 1 0 0 1h11a.499.499 0 1 0 0-1H13V2h.5a.499.499 0 1 0 0-1zM4 2h2v3H4zm3 0h2v11H7v-3h.5c.277 0 .5-.223.5-.5v-4c0-.277-.223-.5-.5-.5H7zm3 0h2v11h-2zM5 6a1 1 0 0 1 .477 1.879c.01.04.023.078.023.121v1a.499.499 0 1 1-1 0V8c0-.043.013-.081.023-.121A1 1 0 0 1 5 6m-1 4h2v3H4z"/></symbol><symbol id="hd-icon-roentgen-probe" viewBox="0 0 16 16"><path fill="currentColor" d="m6.3 1.498l5.026 3.02A3.5 3.5 0 0 1 13 7.5a3.5 3.5 0 0 1-1.674 2.982l-5.025 3.02a.5.5 0 0 1-.514-.857l2.91-1.747A3.5 3.5 0 0 1 6.035 8H2a.5.5 0 0 1 0-1h4.035A3.5 3.5 0 0 1 8.69 4.096l-2.902-1.74a.5.5 0 0 1 .514-.858"/></symbol><symbol id="hd-icon-roentgen-pyramid" viewBox="0 0 16 16"><path fill="currentColor" d="M7.5 3a.5.5 0 0 0-.382.177l-5.996 6.995a.5.5 0 0 0 .377.828H13.5a.5.5 0 0 0 .378-.827L7.882 3.177A.5.5 0 0 0 7.5 3"/></symbol><symbol id="hd-icon-roentgen-rape" viewBox="0 0 16 16"><path fill="currentColor" d="M4 3a1 1 0 0 0-1 1a1 1 0 1 0 0 2a1 1 0 1 0 2 0a1 1 0 1 0 0-2a1 1 0 0 0-1-1m3.5 1c-.277 0-.5.223-.5.5v1.793l-.146-.147a.5.5 0 1 0-.708.708L7 7.707v4.586l-.146-.146a.5.5 0 1 0-.708.707l1 1A.5.5 0 0 0 8 13.426v-2.719l.854-.854a.5.5 0 1 0-.707-.707L8 9.294V4.5c0-.277-.223-.5-.5-.5M11 6a1 1 0 0 0-1 1a1 1 0 1 0 0 2a1 1 0 1 0 2 0a1 1 0 1 0 0-2a1 1 0 0 0-1-1M4 9a1 1 0 0 0-1 1a1 1 0 1 0 0 2a1 1 0 1 0 2 0a1 1 0 1 0 0-2a1 1 0 0 0-1-1"/></symbol><symbol id="hd-icon-roentgen-rape-2" viewBox="0 0 16 16"><path fill="currentColor" d="M3.272 2.49a.84.84 0 0 0-.094.6l-.002-.002a.842.842 0 1 0-.508 1.566A.842.842 0 1 0 4 5.62a.842.842 0 1 0 1.33-.967a.842.842 0 0 0 .336-1.564a.84.84 0 0 0-.844.002a.842.842 0 0 0-1.55-.6M7.5 4c-.277 0-.5.223-.5.5v1.793l-.146-.147c-.454-.468-1.195.236-.708.708L7 7.707v4.586l-.146-.146c-.454-.469-1.195.235-.708.707l1 1A.5.5 0 0 0 8 13.426v-2.719l.854-.854c.483-.473-.255-1.17-.707-.707L8 9.294V4.5c0-.277-.223-.5-.5-.5m2.771 1.49a.84.84 0 0 0-.093.6l-.002-.002a.842.842 0 1 0-.508 1.566A.842.842 0 1 0 11 8.62a.842.842 0 1 0 1.33-.967a.842.842 0 0 0 .336-1.564a.84.84 0 0 0-.844.002a.842.842 0 0 0-1.55-.6m-7 3a.84.84 0 0 0-.094.6l-.002-.002a.842.842 0 1 0-.508 1.566A.842.842 0 1 0 4 11.62a.842.842 0 1 0 1.33-.967a.842.842 0 0 0 .336-1.564a.84.84 0 0 0-.844.002a.842.842 0 0 0-1.55-.6"/></symbol><symbol id="hd-icon-roentgen-rectangle-vertical-rounded" viewBox="0 0 16 16"><path fill="currentColor" d="M7.5 3A1.5 1.5 0 0 0 6 4.5v7a1.5 1.5 0 0 0 3 0V4.502C9 3.672 8.328 3 7.5 3"/></symbol><symbol id="hd-icon-roentgen-rectangle-vertical-rounded-crossed" viewBox="0 0 16 16"><path fill="currentColor" d="M7.5 3C6.669 3 6 3.669 6 4.5v3.793l-2.353 2.354a.5.5 0 0 0 0 .707a.5.5 0 0 0 .707 0l7-7a.5.5 0 0 0 0-.707a.5.5 0 0 0-.707 0L9 5.293V4.5C9 3.669 8.331 3 7.5 3M9 8.121l-3 3v.379c0 .831.669 1.5 1.5 1.5S9 12.331 9 11.5z"/></symbol><symbol id="hd-icon-roentgen-recycling-container" viewBox="0 0 16 16"><path fill="currentColor" d="M7.5 2c-.277 0-.5.223-.5.5V3H4.5c-.277 0-.5.223-.5.5V4h8v-.5c0-.277-.223-.5-.5-.5H9v-.5c0-.277-.223-.5-.5-.5zM4 5q0 .062.008.125l1 8A1 1 0 0 0 6 14h2.578a2.5 2.5 0 0 1-.508-1.5a2.5 2.5 0 0 1 2.5-2.5a2.5 2.5 0 0 1 .797.13l.625-5.005Q12 5.062 12 5zm6.57 6a1.5 1.5 0 0 0-1.5 1.5a1.5 1.5 0 0 0 1.5 1.5a1.5 1.5 0 0 0 1.5-1.5a1.5 1.5 0 0 0-1.5-1.5"/></symbol><symbol id="hd-icon-roentgen-rings" viewBox="0 0 16 16"><path fill="currentColor" d="M4.5 2.5c-.277 0-.5.223-.5.5H2v1h2v3.05A2.51 2.51 0 0 0 2 9.5C2 10.875 3.125 12 4.5 12S7 10.875 7 9.5a2.51 2.51 0 0 0-2-2.45V4h6v3.05h-.002A2.51 2.51 0 0 0 9 9.5c0 1.375 1.125 2.5 2.5 2.5S14 10.875 14 9.5a2.51 2.51 0 0 0-2-2.45V4h2V3h-2a.499.499 0 1 0-1 0H5c0-.277-.223-.5-.5-.5m-.482 5.586A.49.49 0 0 0 4.5 8.5a.49.49 0 0 0 .482-.414C5.575 8.286 6 8.836 6 9.5c0 .834-.666 1.5-1.5 1.5S3 10.334 3 9.5c0-.664.425-1.214 1.018-1.414m7 0a.49.49 0 0 0 .482.414c.246 0 .44-.18.482-.414c.593.2 1.018.75 1.018 1.414c0 .834-.666 1.5-1.5 1.5S10 10.334 10 9.5c0-.664.425-1.214 1.018-1.414"/></symbol><symbol id="hd-icon-roentgen-rocket-flying" viewBox="0 0 16 16"><path fill="currentColor" d="M11 1a.5.5 0 0 0-.447.277l-.463.926l-.944.944A.5.5 0 0 0 9 3.5V5a.5.5 0 0 0 .723.447L10 5.31v1.984l-.854.853A.5.5 0 0 0 9 8.5V10a.5.5 0 0 0 .723.447l.894-.447h.766l.894.447A.5.5 0 0 0 13 10V8.5a.5.5 0 0 0-.146-.354L12 7.294V5.309l.277.138A.5.5 0 0 0 13 5V3.5a.5.5 0 0 0-.146-.353l-.944-.944l-.463-.926A.5.5 0 0 0 11 1M3.5 3a.5.5 0 0 0-.5.5v11a.5.5 0 0 0 1 0v-.793l1-1V14.5a.5.5 0 0 0 1 0V5h1.5a.5.5 0 0 0 0-1H6v-.5a.5.5 0 0 0-1 0V4H4v-.5a.5.5 0 0 0-.5-.5M4 5h1v.293l-1 1zm1 1.707v2.586l-1-1v-.586zm-1 3l1 1v.586l-1 1zm7 1.295a1.5 1.5 0 0 0-.965.35a1.504 1.504 0 0 0-.334 1.898l.865 1.5a.5.5 0 0 0 .868 0l.865-1.5a1.504 1.504 0 0 0-.334-1.898a1.5 1.5 0 0 0-.965-.35"/></symbol><symbol id="hd-icon-roentgen-rocket-on-launch-pad" viewBox="0 0 16 16"><path fill="currentColor" d="M3.5 2a.5.5 0 0 0-.5.5v11a.5.5 0 0 0 1 0v-.793l1-1V13.5a.5.5 0 0 0 1 0V4h1.5a.5.5 0 0 0 0-1H6v-.5a.5.5 0 0 0-1 0V3H4v-.5a.5.5 0 0 0-.5-.5M11 2a.5.5 0 0 0-.447.277l-.463.926l-.944.943A.5.5 0 0 0 9 4.5V6a.5.5 0 0 0 .723.447L10 6.31v4.484l-.854.854A.5.5 0 0 0 9 12v1.5a.5.5 0 0 0 .723.447l.894-.447h.766l.894.447A.5.5 0 0 0 13 13.5V12a.5.5 0 0 0-.146-.354L12 10.794V6.309l.277.138A.5.5 0 0 0 13 6V4.5a.5.5 0 0 0-.146-.354l-.944-.943l-.463-.926A.5.5 0 0 0 11 2M4 4h1v.293l-1 1zm1 1.707v2.586l-1-1v-.586zm-1 3l1 1v.586l-1 1z"/></symbol><symbol id="hd-icon-roentgen-roundabout" viewBox="0 0 16 16"><path fill="currentColor" d="M4.5 4c-.667 0-1.275.318-1.728.771C2.318 5.225 2 5.834 2 6.5V9h-.5a.499.499 0 1 0 0 1H6v1.5c0 .277.223.5.5.5h2c.277 0 .5-.223.5-.5V10h4.5a.499.499 0 1 0 0-1H13V6.5c0-.667-.318-1.275-.771-1.729C11.775 4.318 11.167 4 10.5 4zm0 1H7v4H3V6.5c0-.333.182-.725.478-1.021C3.776 5.182 4.167 5 4.5 5M8 5h2.5c.333 0 .725.182 1.021.479c.297.296.479.688.479 1.021V9H8z"/></symbol><symbol id="hd-icon-roentgen-rumble-strip" viewBox="0 0 16 16"><path fill="currentColor" d="M3.5 7c-.667 0-1.103.396-1.353.646S1.833 8 1.5 8a.5.5 0 0 0 0 1h12a.5.5 0 0 0 0-1c-.333 0-.396-.104-.646-.354S12.167 7 11.5 7s-1.104.396-1.354.646S9.833 8 9.5 8s-.396-.104-.646-.354S8.167 7 7.5 7s-1.104.396-1.354.646S5.834 8 5.5 8s-.396-.104-.646-.354S4.167 7 3.5 7"/></symbol><symbol id="hd-icon-roentgen-russian-orthodox-cross" viewBox="0 0 16 16"><path fill="currentColor" d="M7.5 1c-.277 0-.5.223-.5.5V3H5.5c-.277 0-.5.223-.5.5v1c0 .277.223.5.5.5H7v1H3.5c-.277 0-.5.223-.5.5v1c0 .277.223.5.5.5H7v2.188l-1.156-.313a.525.525 0 0 0-.625.375l-.25.969a.474.474 0 0 0 .343.594L7 12.28v2.22c0 .277.223.5.5.5h1c.277 0 .5-.223.5-.5v-1.687l1.156.312a.525.525 0 0 0 .625-.375l.25-.969a.474.474 0 0 0-.344-.594L9 10.72V8h3.5c.277 0 .5-.223.5-.5v-1c0-.277-.223-.5-.5-.5H9V5h1.5c.277 0 .5-.223.5-.5v-1c0-.277-.223-.5-.5-.5H9V1.5c0-.277-.223-.5-.5-.5z"/></symbol><symbol id="hd-icon-roentgen-saddle" viewBox="0 0 16 16"><path fill="currentColor" d="M4.016 5.379c-.49 1.962-.928 2.826-1.87 3.768A.5.5 0 0 0 2.5 10h11a.5.5 0 0 0 .354-.854c-.942-.94-1.38-1.805-1.87-3.767c-.128-.501-.84-.501-.968 0C10.563 7.189 9.278 8 8 8s-2.563-.811-3.016-2.621c-.125-.5-.843-.5-.968 0"/></symbol><symbol id="hd-icon-roentgen-sandpit" viewBox="0 0 16 16"><path fill="currentColor" d="M6.147 4.147L3.292 7h9.414l-1.854-1.854a.5.5 0 0 0-.707 0L9 6.294L6.854 4.146a.5.5 0 0 0-.708 0M2.5 8a.499.499 0 1 0 0 1H3v2h10V9h.5a.499.499 0 1 0 0-1z"/></symbol><symbol id="hd-icon-roentgen-sauna" viewBox="0 0 16 16"><path fill="currentColor" d="M4.046 3c.554 0 1 .446 1 1s-.446 1-1 1s-1-.446-1-1s.446-1 1-1m8.916 2.777L12.148 7l.814 1.223a.5.5 0 0 1 0 .554l-1 1.5c-.367.57-1.216.003-.832-.554l.814-1.223l-.814-1.223a.5.5 0 0 1 0-.554l1-1.5c.355-.55 1.212 0 .832.554m-2 0L10.148 7l.814 1.223a.5.5 0 0 1 0 .554l-1 1.5c-.367.57-1.216.003-.832-.554L9.944 8.5L9.13 7.277a.5.5 0 0 1 0-.554l1-1.5c.355-.55 1.212 0 .832.554m-6.056.376L6.753 8h.793c.676-.01.676 1.01 0 1h-1a.5.5 0 0 1-.353-.146L5.046 7.707V10h1.5a.5.5 0 0 1 .475.342l1 3c.21.633-.739.949-.95.316L6.186 11h-2.64a.5.5 0 0 1-.5-.5v-4a.5.5 0 0 1 .5-.5h.93c.189 0 .327.053.43.153M5.046 12a.499.499 0 1 1 0 1h-2.5a.499.499 0 1 1 0-1z"/></symbol><symbol id="hd-icon-roentgen-seesaw" viewBox="0 0 16 16"><path fill="currentColor" d="M12.072 4.352a.5.5 0 0 0-.418.57l.227 1.482L9 6.842V6.5a.5.5 0 0 0-.5-.5h-1a.5.5 0 0 0-.5.5q0 .327-.004.646l-3.027.461l-.225-1.482a.5.5 0 0 0-.988.148l.226 1.485l-1.558.236a.5.5 0 1 0 .15.988l5.377-.818a5.7 5.7 0 0 1-.182 1.074c-.222.779-.611 1.374-1.492 1.815c-.471.236-.304.946.223.947h5c.527-.001.694-.711.223-.947c-.881-.44-1.27-1.037-1.493-1.815c-.119-.418-.177-.888-.205-1.388l5.551-.844a.5.5 0 1 0-.15-.989l-1.557.237l-.226-1.483a.503.503 0 0 0-.57-.42"/></symbol><symbol id="hd-icon-roentgen-sharing" viewBox="0 0 16 16"><path fill="currentColor" d="M10 4.865A1.134 1.134 0 0 0 8.865 6a1 1 0 0 0 .016.17L6.81 7.205a1.13 1.13 0 0 0-.81-.34A1.134 1.134 0 0 0 4.865 8A1.134 1.134 0 0 0 6 9.135a1.13 1.13 0 0 0 .809-.34L8.88 9.83a1 1 0 0 0-.016.17A1.134 1.134 0 0 0 10 11.135A1.134 1.134 0 0 0 11.135 10A1.134 1.134 0 0 0 10 8.865a1.13 1.13 0 0 0-.809.34L7.12 8.17A1 1 0 0 0 7.135 8a1 1 0 0 0-.016-.17l2.07-1.035a1.13 1.13 0 0 0 .811.34A1.134 1.134 0 0 0 11.135 6A1.134 1.134 0 0 0 10 4.865"/></symbol><symbol id="hd-icon-roentgen-sheets" viewBox="0 0 16 16"><path fill="currentColor" d="M3.5 2a.5.5 0 0 0-.5.5v9a.5.5 0 0 0 .499.5H5V5.502A1.5 1.5 0 0 1 6.498 4H10V2.501A.5.5 0 0 0 9.501 2zm3 3a.5.5 0 0 0-.5.5v8a.5.5 0 0 0 .499.5H12.5a.5.5 0 0 0 .5-.5V5.501A.5.5 0 0 0 12.501 5zm.999 2H11.5a.5.5 0 0 1 .001 1H7.5a.5.5 0 0 1-.001-1M7 9.5a.5.5 0 0 1 .499-.5H10.5a.5.5 0 0 1 .001 1H7.5a.5.5 0 0 1-.5-.5"/></symbol><symbol id="hd-icon-roentgen-shelter" viewBox="0 0 16 16"><path fill="currentColor" d="M7.5 2a.5.5 0 0 0-.169.029L1.353 4.022A.5.5 0 0 0 1.499 5H2v9h1V5h9v9h1V5h.5a.5.5 0 0 0 .147-.978L7.669 2.029A.5.5 0 0 0 7.5 2"/></symbol><symbol id="hd-icon-roentgen-shield-volcano" viewBox="0 0 16 16"><path fill="currentColor" d="M7.5 9a.5.5 0 0 0-.354.146c-.94.942-2.374 1.906-4.832 2.89c-.513.203-.366.965.186.964h11c.552.001.699-.761.186-.965c-2.458-.983-3.891-1.947-4.832-2.889A.5.5 0 0 0 8.5 9z"/></symbol><symbol id="hd-icon-roentgen-shield-volcano-lava" viewBox="0 0 16 16"><path fill="currentColor" d="M7.5 9a.5.5 0 0 0-.354.146c-.94.942-2.374 1.906-4.832 2.89c-.513.203-.366.965.186.964h11c.552.001.699-.761.186-.965c-2.458-.983-3.891-1.947-4.832-2.889A.5.5 0 0 0 8.5 9zM6 4.5c-1.951 0-3 1.314-3 3a.51.51 0 0 0 .5.5a.51.51 0 0 0 .5-.5C4 6.706 4.52 6 5.5 6C6.334 6 7 6.666 7 7.5a.504.504 0 0 0 .5.5h1a.505.505 0 0 0 .5-.5c0-.834.666-1.5 1.5-1.5s1.5.666 1.5 1.5v1a.5.5 0 0 0 1 0v-1c0-1.683-1.318-3-3-3c-.766 0-1.469.29-2 .768A3 3 0 0 0 6 4.5M14.5 8a.5.5 0 1 0 0 1a.5.5 0 0 0 0-1m-10 1a.5.5 0 1 0 0 1a.5.5 0 0 0 0-1m-2 1a.5.5 0 1 0 0 1a.5.5 0 0 0 0-1m11 0a.5.5 0 1 0 0 1a.5.5 0 0 0 0-1"/></symbol><symbol id="hd-icon-roentgen-shield-volcano-smoke" viewBox="0 0 16 16"><path fill="currentColor" d="M7.5 9a.5.5 0 0 0-.354.146c-.94.942-2.374 1.906-4.832 2.89c-.513.203-.366.965.186.964h11c.552.001.699-.761.186-.965c-2.458-.983-3.891-1.947-4.832-2.889A.5.5 0 0 0 8.5 9zm0-4a.499.499 0 1 0 0 1h1a.499.499 0 1 1 0 1a.499.499 0 1 0 0 1h1c.277 0 .5-.223.5-.5s.223-.5.5-.5h2c.277 0 .5-.223.5-.5s.223-.5.5-.5h1a.499.499 0 1 0 0-1z"/></symbol><symbol id="hd-icon-roentgen-shield-volcano-smoke-2" viewBox="0 0 16 16"><path fill="currentColor" d="M7.5 9a.5.5 0 0 0-.354.146c-.94.942-2.374 1.906-4.832 2.89c-.513.203-.366.965.186.964h11c.552.001.699-.761.186-.965c-2.458-.983-3.891-1.947-4.832-2.889A.5.5 0 0 0 8.5 9zm-1-4a.499.499 0 1 0 0 1h4.95a.499.499 0 1 0 0-1zm1 2a.499.499 0 1 0 0 1h1a.499.499 0 1 0 0-1z"/></symbol><symbol id="hd-icon-roentgen-shoe" viewBox="0 0 16 16"><path fill="currentColor" d="M7.031 3a.5.5 0 0 1 .469.5c0 1.607.664 2.692 1.564 3.424S11.125 8 12 8c.583 0 1.11.154 1.479.521c.367.368.521.896.521 1.479v1.5a.5.5 0 0 1-.5.5h-4c-1.5 0-1.5-1-3-1h-1a.5.5 0 0 0-.5.5a.5.5 0 0 1-.5.5h-3a.5.5 0 0 1-.5-.5v-7a.5.5 0 0 1 .5-.5c3.405 0 5.277-.947 5.277-.947A.5.5 0 0 1 7.031 3M6.5 5a.5.5 0 1 0 0 1a.5.5 0 0 0 0-1m1 2a.5.5 0 1 0 0 1a.5.5 0 0 0 0-1"/></symbol><symbol id="hd-icon-roentgen-shop-convenience" viewBox="0 0 16 16"><path fill="currentColor" d="M4.5 1a.5.5 0 0 0-.354.147l-3 3A.5.5 0 0 0 1.5 5h12a.5.5 0 0 0 .354-.854l-3-3A.5.5 0 0 0 10.5 1H9.107l1.928 3H8.678l-.643-3h-1.07l-.643 3H3.965l1.928-3zM2 6v8c0 .554.446 1 1 1h9c.554 0 1-.446 1-1V6zm4 2h3c.554 0 1 .446 1 1v2c0 .554-.446 1-1 1H6c-.554 0-1-.446-1-1V9c0-.554.446-1 1-1"/></symbol><symbol id="hd-icon-roentgen-shower" viewBox="0 0 16 16"><path fill="currentColor" d="M14.5 2a1.51 1.51 0 0 0-1.414 1H10.5c-1.011 0-1.903.345-2.53.97c-.527.528-.854 1.244-.945 2.061A3.51 3.51 0 0 0 4 9.5a.5.5 0 0 0 .5.5h6a.5.5 0 0 0 .5-.5a3.51 3.51 0 0 0-2.969-3.459c.08-.57.31-1.026.647-1.363C9.102 4.254 9.71 4 10.5 4h2.586c.208.58.766 1 1.414 1a.5.5 0 0 0 .5-.5v-2a.5.5 0 0 0-.5-.5m-8 9a.5.5 0 0 0-.5.5v1a.5.5 0 0 0 1 0v-1a.5.5 0 0 0-.5-.5m4 0a.5.5 0 0 0-.5.5v1a.5.5 0 0 0 1 0v-1a.5.5 0 0 0-.5-.5m-6 1a.5.5 0 0 0-.5.5v1a.5.5 0 0 0 1 0v-1a.5.5 0 0 0-.5-.5m4 0a.5.5 0 0 0-.5.5v1a.5.5 0 0 0 1 0v-1a.5.5 0 0 0-.5-.5"/></symbol><symbol id="hd-icon-roentgen-side-mirror" viewBox="0 0 16 16"><path fill="currentColor" d="M9.5 2a5.49 5.49 0 0 0-5.475 5.002L4 7H3V5.5a.5.5 0 1 0-1 0v4a.5.5 0 0 0 1 0V8h1l.025-.002A5.49 5.49 0 0 0 9.5 13h1a.5.5 0 0 0 0-1h-1a4.498 4.498 0 1 1 0-9h1a.5.5 0 0 0 0-1zm0 2a3.5 3.5 0 1 0 0 7a3.5 3.5 0 0 0 0-7m0 1a.5.5 0 0 1 0 1C8.666 6 8 6.666 8 7.5a.5.5 0 0 1-1 0C7 6.125 8.125 5 9.5 5"/></symbol><symbol id="hd-icon-roentgen-signal" viewBox="0 0 16 16"><path fill="currentColor" d="M6 3c-.554 0-1 .446-1 1v8c0 .554.446 1 1 1h4c.554 0 1-.446 1-1V4c0-.554-.446-1-1-1zm1.5 2h1c.277 0 .5.223.5.5v1c0 .277-.223.5-.5.5h-1a.5.5 0 0 1-.5-.5v-1c0-.277.223-.5.5-.5m0 4h1c.277 0 .5.223.5.5v1c0 .277-.223.5-.5.5h-1a.5.5 0 0 1-.5-.5v-1c0-.277.223-.5.5-.5"/></symbol><symbol id="hd-icon-roentgen-sit-up" viewBox="0 0 16 16"><path fill="currentColor" d="M2.5 3.5c-.277 0-.5.223-.5.5v.49l-.037-.01a.5.5 0 0 0-.611.354l-.26.967a.5.5 0 0 0 .353.61l.555.15V10.5a.499.499 0 1 0 1 0V6.828l9 2.414V10.5c0 .277.202.5.453.5h.094c.25 0 .453-.223.453-.5v-.99l.037.01a.5.5 0 0 0 .611-.354l.26-.966a.5.5 0 0 0-.353-.612L13 7.44V6.5c0-.277-.202-.5-.453-.5h-.094c-.25 0-.453.223-.453.5v.672L3 4.758V4c0-.277-.223-.5-.5-.5"/></symbol><symbol id="hd-icon-roentgen-skateboard" viewBox="0 0 16 16"><path fill="currentColor" d="m13.647 4.647l-1.022 1.087c-.196.21-.43.266-1.125.266h-7c-.694 0-.929-.057-1.125-.266L2.353 4.646c-.453-.468-1.194.236-.707.708c0 0 .703.84 1.104 1.162c.401.32.944.484 1.75.484h7c.806 0 1.349-.163 1.75-.484c.401-.322 1.104-1.162 1.104-1.162c.494-.473-.255-1.181-.707-.708M4 8a1 1 0 1 0 0 2a1 1 0 0 0 0-2m8 0a1 1 0 1 0 0 2a1 1 0 0 0 0-2"/></symbol></svg>