<svg xmlns="http://www.w3.org/2000/svg" xmlns:xlink="http://www.w3.org/1999/xlink"><symbol id="hd-icon-cryptocurrency-tbx" viewBox="0 0 32 32"><path fill="currentColor" d="M16 32C7.163 32 0 24.837 0 16S7.163 0 16 0s16 7.163 16 16s-7.163 16-16 16m-.3-4.6c6.462 0 11.7-5.238 11.7-11.7S22.162 4 15.7 4S4 9.238 4 15.7s5.238 11.7 11.7 11.7m2.89-7.7l2.35-4l-2.62-4.48h-5.24l-2.62 4.48l2.35 4l2.89-4zm.86-10.4l3.74 6.4l-3.74 6.4h-7.49l-3.75-6.4l3.74-6.4z"/></symbol><symbol id="hd-icon-cryptocurrency-tel" viewBox="0 0 32 32"><path fill="currentColor" fill-rule="evenodd" d="M16 32C7.163 32 0 24.837 0 16S7.163 0 16 0s16 7.163 16 16s-7.163 16-16 16m9.08-20.522L19.026 6.56c-.633-.512-1.78-.71-2.553-.438l-7.42 2.606c-.772.27-1.522 1.134-1.664 1.918l-1.36 7.524c-.143.784.257 1.84.89 2.353l6.058 4.917c.632.513 1.78.71 2.552.438l7.419-2.605c.772-.27 1.522-1.134 1.664-1.918l1.36-7.524c.14-.779-.26-1.84-.892-2.353m-6.311 3.378l-2.83-.004l-.526 2.662c-.165.825-.21 1.29.64 1.29h1.914l-.4 1.69h-2.288c-1.353 0-2.233-1.263-1.881-3.042c.14-.699.56-2.593.56-2.593h-1.239l.257-1.319a5.76 5.76 0 0 0 2.748-2.225h.915l-.4 2.016l2.832-.004z"/></symbol><symbol id="hd-icon-cryptocurrency-ten" viewBox="0 0 32 32"><path fill="currentColor" d="M26.998 16.205L27 16q0-4.56-3.225-7.785Q20.56 5 16 5c-4.56 0-5.635 1.072-7.785 3.215Q5 11.44 5 16a13 13 0 0 0 .03-.848a1 1 0 0 1 .121.015l4.691-8.136a1 1 0 0 1-.082-.116q.71-.5 1.476-.868q.04.067.068.142h9.392a1 1 0 0 1 .068-.142a10.5 10.5 0 0 1 1.477.872a1 1 0 0 1-.078.108l4.686 8.14a1 1 0 0 1 .122-.015a12 12 0 0 1 .027 1.053m-.028.662a1 1 0 0 1-.121-.014l-4.691 8.125q.042.05.078.102a12 12 0 0 0 1.54-1.305q2.913-2.906 3.194-6.908m-4.857 8.299q-.654.448-1.354.787a1 1 0 0 1-.063-.132h-9.392a1 1 0 0 1-.064.132a10 10 0 0 1-.751-.4Q12.944 26.999 16 27q3.439 0 6.113-1.834m-12.348-.081a1 1 0 0 1 .077-.107l-4.691-8.125a1 1 0 0 1-.121.014q.28 4.003 3.185 6.908q.74.74 1.55 1.31M16 32C7.163 32 0 24.837 0 16S7.163 0 16 0s16 7.163 16 16s-7.163 16-16 16m10.347-16.54l-4.55-7.888v7.629q.171.063.312.205a.9.9 0 0 1 .205.311h3.877a.8.8 0 0 1 .156-.258zm-.156.842h-3.877a.9.9 0 0 1-.205.312a.9.9 0 0 1-.312.205v7.619l4.55-7.878a.8.8 0 0 1-.156-.258M5.81 15.717h3.877a.9.9 0 0 1 .205-.311a.9.9 0 0 1 .312-.205V7.572l-4.55 7.887q.104.12.156.258m5.485-8.924l6.114 5.295a.82.82 0 0 1 .575-.097l2.87-4.96a.9.9 0 0 1-.157-.258h-9.392zm.01 8.924h3.887a.9.9 0 0 1 .151-.268l-4.555-7.877v7.629q.171.063.312.205a.9.9 0 0 1 .205.311m7.332-2.577l2.45 2.12a1 1 0 0 1 .127-.059V7.572l-2.724 4.711a.83.83 0 0 1 .2.55a.9.9 0 0 1-.053.307m-1.603-.613L11.616 7.84l4.233 7.317a.8.8 0 0 1 .302 0l1.028-1.773a.8.8 0 0 1-.205-.55q0-.166.059-.307zm-.22 3.19h3.883l.01-.019l-2.45-2.12a.82.82 0 0 1-.575.098l-1.023 1.774a.9.9 0 0 1 .155.267m4.088.897a.9.9 0 0 1-.205-.312h-3.892a.8.8 0 0 1-.146.244l4.555 7.891V16.82a.9.9 0 0 1-.312-.205zm-5.042.234l-1.033 1.788q.2.237.2.55q0 .164-.054.307l5.412 4.681l-4.233-7.331a1 1 0 0 1-.292.005m4.847 8.369l-6.114-5.286a.82.82 0 0 1-.575.098l-2.864 4.95a.8.8 0 0 1 .15.257h9.393zm-6.387-6.874l1.028-1.788a.8.8 0 0 1-.15-.253h-3.893l-.01.02l2.45 2.119a.82.82 0 0 1 .575-.098m-.95.536l-2.455-2.119a1 1 0 0 1-.127.058v7.624l2.729-4.706a.8.8 0 0 1-.205-.55q0-.165.058-.307m-3.478-2.265a.9.9 0 0 1-.205-.312H5.81a.8.8 0 0 1-.156.258l4.55 7.877V16.82a.9.9 0 0 1-.312-.205z"/></symbol><symbol id="hd-icon-cryptocurrency-tern" viewBox="0 0 32 32"><path fill="currentColor" d="M16 32C7.163 32 0 24.837 0 16S7.163 0 16 0s16 7.163 16 16s-7.163 16-16 16m10.983-16.226v-.23l-4.52 2.628v-1.31l4.52-2.627V9.387L15.99 3l-5.495 3.194l-.198.115l4.52 2.627l-1.126.654l-4.52-2.627L5 9.387v12.774l5.495 3.194l.199.115v-5.254l1.126.654v5.255l4.172 2.423l10.991-6.387zm-5.695-2.424l-4.55 2.646v5.502l-.746.433l-.563-.327v-5.29l-4.735-2.752v-.866l.563-.328l4.552 2.645l4.735-2.75l.745.433v.655zM14.83 6.27l1.161-.674l8.758 5.09v2.175l-1.16.674v-2.176L20.542 9.59l-4.734 2.751l-1.127-.654l4.735-2.752zM8.395 21.54l-1.162-.675v-10.18l1.872-1.088l1.162.674l-1.872 1.089v3.538l4.734 2.752v1.309l-4.734-2.751v5.33zm16.355-2.025v1.35l-8.758 5.09l-1.872-1.089v-1.35l1.872 1.088l3.045-1.769v-5.502l1.126-.655v5.503z"/></symbol><symbol id="hd-icon-cryptocurrency-tgch" viewBox="0 0 32 32"><path fill="currentColor" d="M16 32C7.163 32 0 24.837 0 16S7.163 0 16 0s16 7.163 16 16s-7.163 16-16 16m0-28a11.911 11.911 0 1 0 0 23.823c6.579 0 11.911-5.333 11.911-11.912C27.911 9.333 22.58 4 16 4m0 23.341c-6.318 0-11.44-5.122-11.44-11.44C4.56 9.585 9.683 4.463 16 4.463s11.44 5.122 11.44 11.44S22.318 27.342 16 27.342zm1.308-10.259h3.02v4.456c0 .442-.453.678-.885.905c-.423.226-1.112.177-2.273.177h-1.416c-2.174.049-2.784-.118-3.305-.345c-.521-.236-.787-.57-.787-1.003v-4.19h-1.564v4.721c0 .256.128.551.325.817c.226.305.197.393.688.639c.443.226.886.403 1.682.502c.62.078.512.059 1.614.078h2.616c1.967-.039 2.37.099 3.54-.491c.955-.473 1.28-1.023 1.348-1.378v-6.422h-4.593v1.534zm-4.072-9.089c-.797.05-1.456.296-1.967.492c-.521.197-.63.433-.846.689c-.2.232-.312.529-.315.836v5.233h1.574V10.51c0-.403.246-.727.728-.963c.492-.246 1.21-.364 1.879-.364h3.068c1.17 0 1.8-.02 2.164.196c.374.236.817.443.817.886v1.249h1.573V9.833c-.029-.217-.265-.836-1.377-1.358c-1.003-.472-1.327-.501-2.901-.501z"/></symbol><symbol id="hd-icon-cryptocurrency-theta" viewBox="0 0 32 32"><path fill="currentColor" fill-rule="evenodd" d="M16 32C7.163 32 0 24.837 0 16S7.163 0 16 0s16 7.163 16 16s-7.163 16-16 16M10.96 6l-.96.993v18.014l.96.993h10.08l.96-.993V6.993L21.04 6zm.96 18.013V7.987h8.16v16.026zm7.134-5.17v-1.948h-6.058v1.949h2.087v2.262h1.884v-2.262zm0-5.582h-2.087v-2.263h-1.884v2.263h-2.087v1.948h6.058z"/></symbol><symbol id="hd-icon-cryptocurrency-tix" viewBox="0 0 32 32"><path fill="currentColor" d="M16 32C7.163 32 0 24.837 0 16S7.163 0 16 0s16 7.163 16 16s-7.163 16-16 16M6 11.386v1.15c0 .214.173.387.386.387H11.7q1.16 0 1.16 1.058q0 .77-1.16.961H6.386A.386.386 0 0 0 6 15.33v1.15c0 .213.173.386.386.386H11.7q1.643.097 1.643 1.154c0 1.057-.548 1.058-1.643 1.058H6.386a.386.386 0 0 0-.386.386v1.15c0 .214.173.387.386.387H11.7c1.546 0 3.865-.48 3.865-2.885q0-1.538-1.352-2.307q.966-.865.966-1.923c0-1.69-1.45-2.885-3.768-2.885H6.387a.387.387 0 0 0-.387.386zm10.435 0v1.15c0 .214.173.387.386.387h2.899c.213 0 .386.173.386.387v7.304c0 .213.173.386.387.386h1.449a.386.386 0 0 0 .387-.386v-9.228a.386.386 0 0 0-.387-.386h-5.12a.386.386 0 0 0-.387.386M23.68 11a.386.386 0 0 0-.386.386v1.15c0 .214.173.387.386.387h1.933a.386.386 0 0 0 .386-.386v-1.15a.386.386 0 0 0-.386-.387z"/></symbol><symbol id="hd-icon-cryptocurrency-tkn" viewBox="0 0 32 32"><path fill="currentColor" d="M16 32C7.163 32 0 24.837 0 16S7.163 0 16 0s16 7.163 16 16s-7.163 16-16 16M13.092 7.913h-.037v12.74c0 5.737 7.12 6.098 9.725 4.583l-1.064-3.176c-1.175.613-4.294.397-4.294-1.444v-6.063H23v-3.5h-5.541L17.495 6zm-4.11 7.578c1.094 0 1.981-1.066 1.981-2.381c0-1.316-.887-2.382-1.981-2.382S7 11.794 7 13.11c0 1.315.887 2.381 1.982 2.381"/></symbol><symbol id="hd-icon-cryptocurrency-tks" viewBox="0 0 32 32"><path fill="currentColor" d="M16 32C7.163 32 0 24.837 0 16S7.163 0 16 0s16 7.163 16 16s-7.163 16-16 16m1.77-17.75a4 4 0 0 1 .48 0c1.48.1 2.16 2.11 3.1 2a8.2 8.2 0 0 1-3 1.55a2 2 0 0 1-2.17-1.3v4L22 17.18V12zm-2.89-.01a2.05 2.05 0 0 1-.74-1.49v-.08c0-1.16 1.87-3 1.93-3c.06.06 1.93 1.85 1.93 3v.09a2 2 0 0 1-.6 1.36l4.6-2.47l-6-2.94l-6 2.91zm.98 2.3a2 2 0 0 1-2.17 1.31a8.2 8.2 0 0 1-3-1.55c.94.07 1.61-1.95 3.1-2a4 4 0 0 1 .48 0L10 12v5.19l5.87 3.39zM16 4C9.373 4 4 9.373 4 16s5.373 12 12 12s12-5.373 12-12A12 12 0 0 0 16 4m-6.7 7.19L16 7.94l6.71 3.25v6.39L16 21.45l-6.7-3.87zm13.43 9l-6.68 3.86l-6.76-3.9v-.37l6.76 3.9l6.68-3.86zm0-.75l-6.68 3.86l-6.76-3.9V19l6.76 3.91l6.68-3.86zm0-.75l-6.68 3.86l-6.76-3.9v-.37l6.76 3.91l6.68-3.86z"/></symbol><symbol id="hd-icon-cryptocurrency-tnb" viewBox="0 0 32 32"><path fill="currentColor" fill-rule="evenodd" d="M16 32C7.163 32 0 24.837 0 16S7.163 0 16 0s16 7.163 16 16s-7.163 16-16 16m-.402-20.143l.075-.357H8.34l-2.178 9h2.396l1.646-7.286h2.932L11.389 20.5h2.179l1.713-7.286h.03l.26-1.228l.03-.129zm4.141-.357l-2.178 8.929h4.567a5.4 5.4 0 0 0 1.621-.243c.867-.275 1.922-.852 2.09-2.043h.653l.218-.857h-.8s.073-1.286-1.596-1.5c0 0 1.452-.429 1.67-1.215h.726l.29-.857h-.799s.29-2.071-2.831-2.214zM7.323 13.214L7.76 11.5H5.436L5 13.214zm9.948 6.286l.798-3.643l-1.887-4.214l-.8 3.428zm5.554-4.429h-1.851l.435-1.928h1.416c.26 0 .51.101.693.282s.287.426.287.682s-.103.501-.287.682s-.433.283-.693.282m-.489 3.715H20.11l.524-2.215h1.702c.654 0 1.179.496 1.179 1.108c0 .611-.528 1.107-1.179 1.107"/></symbol><symbol id="hd-icon-cryptocurrency-tnc" viewBox="0 0 32 32"><path fill="currentColor" d="M16 32C7.163 32 0 24.837 0 16S7.163 0 16 0s16 7.163 16 16s-7.163 16-16 16m2.226-18.196l-1.83 3.114l2.132 3.481l-8.412-.002l-1.87 3.103h15.613zm-5.75 2.256h3.659l2.001-3.555l4.12 7.16H26L18.203 6.542zm4.885 3.619l-1.83-3.115h-4.167l4.303-6.918l-1.86-3.146L6 19.625z"/></symbol><symbol id="hd-icon-cryptocurrency-tnt" viewBox="0 0 32 32"><path fill="currentColor" d="M16 32C7.163 32 0 24.837 0 16S7.163 0 16 0s16 7.163 16 16s-7.163 16-16 16m-2.11-10.497L14.048 25s1.875-.318 3.828 0l.156-3.497zM11.626 18.8s5.469-.477 8.672 0l.312-3.815a59 59 0 0 0-9.14 0zM26 8.944S15.531 6.718 6 9.103l.703 4.371l.86-1.669s8.984-1.351 17.03 0l.782 1.67z"/></symbol><symbol id="hd-icon-cryptocurrency-tomo" viewBox="0 0 32 32"><path fill="currentColor" d="M16 32C7.163 32 0 24.837 0 16S7.163 0 16 0s16 7.163 16 16s-7.163 16-16 16m2.525-17.536a.548.548 0 0 0 .048-1.094h-3.84v-.96a.634.634 0 0 0-1.22 0v.96h-1.027a.547.547 0 0 0 0 1.094h1.028v3.34a3.187 3.187 0 0 0 3.177 3.169a3.1 3.1 0 0 0 1.92-.701l.23-.192a.643.643 0 1 0-.844-.96l-.173.144a1.84 1.84 0 0 1-1.997.23a1.92 1.92 0 0 1-1.094-1.728v-3.302zm6.24 3.725a.48.48 0 0 0-.375-.567h-.24a.47.47 0 0 0-.46.365a7.488 7.488 0 1 1-14.132-4.733a6.85 6.85 0 0 1 3.706-3.705a7.546 7.546 0 0 1 9.331 2.669a.48.48 0 0 0 .653.134l.086-.058a.52.52 0 0 0 .164-.71A8.64 8.64 0 0 0 13.37 8.33a8.1 8.1 0 0 0-4.992 4.924a8.582 8.582 0 1 0 16.387 4.935M16.874 4.95h-.96A11.443 11.443 0 0 0 5.41 19.59a.547.547 0 0 0 .682.365h.077a.55.55 0 0 0 .288-.643a10.349 10.349 0 1 1 7.68 7.2a.52.52 0 0 0-.519.192a.557.557 0 0 0 .317.893A11.434 11.434 0 1 0 16.874 4.95"/></symbol><symbol id="hd-icon-cryptocurrency-tpay" viewBox="0 0 32 32"><path fill="currentColor" d="M16 32C7.163 32 0 24.837 0 16S7.163 0 16 0s16 7.163 16 16s-7.163 16-16 16m-.005-4.772c-6.198 0-11.223-5.025-11.223-11.223S9.797 4.782 15.995 4.782s11.223 5.025 11.223 11.223s-5.025 11.223-11.223 11.223m0-23.161c-6.583 0-11.938 5.355-11.938 11.938s5.355 11.938 11.938 11.938s11.938-5.355 11.938-11.938S22.578 4.067 15.995 4.067m4.204 16.208l-.623 2.699l-.15.653h-.67l-3.445-.002h-.014c-1.381-.023-2.465-.39-3.176-1.038c.614 1.083 1.918 1.71 3.738 1.74h.014l3.444.002h.67l.151-.653l.623-2.699l-.486-1.031zM19.116 8.704l-.492-1.023l-.07.32l-.467 2.127h.716zm2.487 2.46l-.62 2.626l-.154.648h-3.733l-.948 4.328c-.02.124-.032.25-.032.32q.002.091.013.119a.6.6 0 0 0 .223.038h.408l.898-4.102h3.733l.153-.649l.62-2.625l-.482-1.036l-.08.334zm-9.262 3.274H9.74l.896.703h1.552zm4.093 5.648h-.095c-.724-.019-1.066-.396-1.066-1c0-.144.024-.335.048-.478l1.098-5.012h3.744l.62-2.625h-3.744l.692-3.15h-3.054l-.693 3.15H10.67l-.596 2.625h3.314l-1.29 5.895c-.07.286-.095.62-.095.787c0 1.682 1.327 2.472 3.308 2.505l3.444.001l.623-2.698z"/></symbol><symbol id="hd-icon-cryptocurrency-trig" viewBox="0 0 32 32"><path fill="currentColor" fill-rule="evenodd" d="M16 32C7.163 32 0 24.837 0 16S7.163 0 16 0s16 7.163 16 16s-7.163 16-16 16M10.123 7c-.312 1.658-2.188 1.762-2.188 1.762C3.56 23.062 15.958 27 15.958 27c13.44-5.492 7.918-18.342 7.918-18.342C22.21 8.554 21.896 7 21.896 7zm11.15 1.023l.012.259a1.4 1.4 0 0 0 .185.559c.19.318.5.516.986.548l.17.011l.065.158a10 10 0 0 1 .15.41c.11.325.22.696.322 1.105c.619 2.48.692 5.099-.137 7.56c-1.004 2.98-3.246 5.375-6.952 6.96l-.095.04l-.098-.031a6 6 0 0 1-.335-.125a11 11 0 0 1-.859-.39a12.5 12.5 0 0 1-2.595-1.752c-1.493-1.311-2.626-2.95-3.252-4.95c-.763-2.44-.73-5.302.239-8.611l.052-.178l.184-.018a2 2 0 0 0 .22-.046a1.9 1.9 0 0 0 .512-.226c.36-.23.604-.57.692-1.059l.014-.224zm-10.045.545a2.03 2.03 0 0 1-.885 1.197a2.4 2.4 0 0 1-.785.324c-.893 3.14-.912 5.84-.194 8.134c.594 1.899 1.67 3.455 3.09 4.703c.79.693 1.636 1.247 2.482 1.675a10 10 0 0 0 1.019.448c3.505-1.523 5.606-3.783 6.551-6.59c.791-2.348.72-4.866.125-7.254a14 14 0 0 0-.39-1.29c-.576-.082-.987-.37-1.242-.794a1.9 1.9 0 0 1-.22-.55zm7.36 5.582a.86.86 0 0 1 .86.855v3.575a.86.86 0 0 1-.86.855h-5.157a.86.86 0 0 1-.86-.855v-3.575a.86.86 0 0 1 .86-.855h.223c.029-1.433.795-2.006 1.437-2.234c.466-.157.966-.18 1.444-.066c1.645.368 1.78 1.692 1.75 2.3zm-2.005 4.042l-.303-1.507a.673.673 0 0 0-.27-1.291a.673.673 0 1 0-.27 1.291l-.303 1.507zm-2.188-4.042h3.056c.03-1.747-1.597-1.658-1.597-1.658c-1.233.082-1.43 1.19-1.459 1.658"/></symbol><symbol id="hd-icon-cryptocurrency-trtl" viewBox="0 0 32 32"><path fill="currentColor" d="M16 32C7.163 32 0 24.837 0 16S7.163 0 16 0s16 7.163 16 16s-7.163 16-16 16m.006-26.4c.394 0 .781.103 1.122.3l7.16 4.134a2.25 2.25 0 0 1 1.122 1.945v8.434c0 .802-.427 1.543-1.122 1.944l-7.161 4.135a2.25 2.25 0 0 1-2.245 0L7.72 22.357a2.25 2.25 0 0 1-1.123-1.944v-8.434c0-.802.428-1.543 1.123-1.945L14.88 5.9c.342-.197.73-.301 1.123-.301h.002zm-.002-1.561a3.8 3.8 0 0 0-1.902.51L6.94 8.682a3.82 3.82 0 0 0-1.903 3.296v8.434a3.82 3.82 0 0 0 1.903 3.296l7.16 4.134c1.178.68 2.629.68 3.806 0l7.161-4.134a3.82 3.82 0 0 0 1.903-3.296v-8.434a3.82 3.82 0 0 0-1.903-3.296l-7.16-4.135a3.8 3.8 0 0 0-1.904-.51zm4.89 11.91h-1.662a.47.47 0 0 0-.405.234l-.863 1.493a.47.47 0 0 0 0 .468L19 19.936a13.1 13.1 0 0 0 1.895-3.987zm-5.767 1.57h1.758a.47.47 0 0 0 .405-.233l.862-1.493a.47.47 0 0 0 0-.468l-.862-1.493a.47.47 0 0 0-.405-.234h-1.758a.47.47 0 0 0-.406.234l-.861 1.493a.47.47 0 0 0 0 .468l.861 1.493a.47.47 0 0 0 .406.234zm-2.349-2.35a.47.47 0 0 0 .406-.234l.861-1.493a.47.47 0 0 0 0-.468l-1.074-1.861l-2.097 1.144a.47.47 0 0 0-.243.421c.017.838.115 1.672.291 2.491zm6.455 0h1.856c.176-.82.274-1.653.291-2.491a.47.47 0 0 0-.244-.421l-2.096-1.144l-1.074 1.861a.47.47 0 0 0 0 .468l.862 1.493a.47.47 0 0 0 .405.234m-3.003-5.59a.47.47 0 0 0-.448 0l-2.126 1.16l1.066 1.845a.47.47 0 0 0 .405.234h1.758a.47.47 0 0 0 .405-.234l1.066-1.845zM15.127 18.3a.47.47 0 0 0-.406.234l-1.2 2.08a13.2 13.2 0 0 0 2.199 2.159a.47.47 0 0 0 .573 0a13.2 13.2 0 0 0 2.198-2.16l-1.2-2.079a.47.47 0 0 0-.405-.234h-1.76zm-4.011-2.351a13.1 13.1 0 0 0 1.895 3.987l1.035-1.792a.47.47 0 0 0 0-.468l-.862-1.493a.47.47 0 0 0-.405-.234z"/></symbol><symbol id="hd-icon-cryptocurrency-trx" viewBox="0 0 32 32"><path fill="currentColor" d="M16 0c8.837 0 16 7.163 16 16s-7.163 16-16 16S0 24.837 0 16S7.163 0 16 0M7.5 7.257l7.595 19.112l10.583-12.894l-3.746-3.562zm16.252 6.977l-7.67 9.344l.983-8.133zM9.472 9.488l6.633 5.502l-1.038 8.58zM21.7 11.083l2.208 2.099l-6.038 1.093zM10.194 8.778l10.402 1.914l-4.038 3.364z"/></symbol><symbol id="hd-icon-cryptocurrency-tusd" viewBox="0 0 32 32"><path fill="currentColor" d="M16 32C7.163 32 0 24.837 0 16S7.163 0 16 0s16 7.163 16 16s-7.163 16-16 16m1.057-12.972v-5.86h.77c2.545 0 3.172-2.373 3.172-2.373h-6.683c-3.172 0-3.71 2.374-3.71 2.374h3.943v8.817s2.508-.753 2.508-2.958m7.338 4.566c2.248-2.336 3.11-5.58 2.301-8.683a9.34 9.34 0 0 0-2.48-4.28c-.108-.106-.216-.214-.342-.32l-.108-.107a2 2 0 0 0-.234-.196l-.144-.107l-.215-.16l-.127-.09a4 4 0 0 1-.251-.178l-.163-.106a1.4 1.4 0 0 0-.215-.125l-.162-.107c-.072-.036-.144-.09-.216-.125l-.162-.09a3 3 0 0 0-.234-.106l-.055-.018c.198.16.395.339.575.517a8.75 8.75 0 0 1 0 12.427c-4.386 4.35-11.505 4.35-15.893 0c-.162-.16-.306-.32-.467-.48l-.126-.143a6 6 0 0 1-.27-.339a11.9 11.9 0 0 0 2.176 2.995c4.584 4.546 12.026 4.546 16.61 0a.6.6 0 0 0 .202-.18zM10.4 22.386a8 8 0 0 1-.576-.517a8.76 8.76 0 0 1 0-12.439c4.391-4.354 11.516-4.354 15.907 0q.459.456.863.964a11.8 11.8 0 0 0-2.177-2.98c-4.588-4.551-12.038-4.551-16.626 0c-.054.053-.108.125-.18.178c-3.041 3.177-3.455 7.924-1.025 11.529c.954 1.39 2.284 2.55 3.814 3.265"/></symbol><symbol id="hd-icon-cryptocurrency-tzc" viewBox="0 0 32 32"><path fill="currentColor" fill-rule="evenodd" d="M16 32C7.163 32 0 24.837 0 16S7.163 0 16 0s16 7.163 16 16s-7.163 16-16 16m1.7-16.6h3.5v-2.8H10.8v2.8h3.5v10.456a10.1 10.1 0 0 0 4-.122v-2.91a7 7 0 0 1-.6.174zm1.4 10.11C23.105 24.205 26 20.44 26 16c0-5.523-4.477-10-10-10S6 10.477 6 16c0 4.44 2.895 8.205 6.9 9.51V22.5a7.2 7.2 0 1 1 6.2 0z"/></symbol><symbol id="hd-icon-cryptocurrency-ubq" viewBox="0 0 32 32"><g fill="currentColor" fill-rule="evenodd"><path d="m13.503 15.844l3.318-2.01V5L6.008 11.278v9.103l7.777 4.068zm4.994.275l-3.318 2.012V27l10.813-6.321v-9.103l-7.777-4.068zM16 32C7.163 32 0 24.837 0 16S7.163 0 16 0s16 7.163 16 16s-7.163 16-16 16"/><path fill-opacity=".305" fill-rule="nonzero" d="m18.215 7.508l7.777 4.068l-7.493 4.593zm-4.43 16.941l-7.777-4.068l7.493-4.594z"/></g></symbol><symbol id="hd-icon-cryptocurrency-uma" viewBox="0 0 32 32"><path fill="currentColor" d="M16 0c8.837 0 16 7.163 16 16s-7.163 16-16 16S0 24.837 0 16S7.163 0 16 0m-3.29 13.037a.46.46 0 0 0-.46.46v5.137l.007.072c.033.16.176.275.34.275H13.6c.197 0 .347-.16.347-.347v-2.662l1.762 1.106c.15.094.338.094.488 0l1.772-1.106v2.662c0 .197.16.347.347.347h1.012a.33.33 0 0 0 .328-.347v-5.137a.464.464 0 0 0-.722-.375l-2.793 1.922a.32.32 0 0 1-.385 0l-2.793-1.922a.4.4 0 0 0-.254-.085zM5.368 13H4.356a.354.354 0 0 0-.356.347v5.165l.007.083a.46.46 0 0 0 .452.377h6.282a.46.46 0 0 0 .459-.46v-5.165a.346.346 0 0 0-.347-.347H9.87a.346.346 0 0 0-.347.347v3.928H5.716v-3.928l-.008-.072a.346.346 0 0 0-.34-.275m22.097 0h-6.282a.46.46 0 0 0-.459.46v5.165l.007.071a.35.35 0 0 0 .34.276h1.012c.197 0 .347-.16.347-.347v-3.703l.008-.06a.23.23 0 0 1 .217-.165h3.347l.06.008a.23.23 0 0 1 .165.217v3.703l.007.071a.35.35 0 0 0 .34.276h1.012l.069-.007a.35.35 0 0 0 .269-.34v-5.166a.46.46 0 0 0-.46-.459zm-2.644 2.784h-1.003a.344.344 0 0 0-.347.338v1.031c0 .197.16.347.347.347h1.003c.197 0 .347-.16.347-.347v-1.022a.346.346 0 0 0-.347-.347"/></symbol><symbol id="hd-icon-cryptocurrency-uni" viewBox="0 0 32 32"><path fill="currentColor" d="M16 0c8.837 0 16 7.163 16 16s-7.163 16-16 16S0 24.837 0 16A15.97 15.97 0 0 1 6.199 3.353l.093.114l.25.306q5.316 6.51 5.496 6.758c.2.278.125.527-.219.723c-.191.109-.585.219-.781.219c-.223 0-.474-.107-.657-.28a2 2 0 0 1-.134-.167l-.086-.119c-.27-.384-.78-1.16-1.633-2.482a189 189 0 0 0-1.712-2.633l-.012-.01q-.003-.001.004.016l.032.064c.103.198.469.852 1.594 2.866c1.046 1.872 1.4 2.533 1.4 2.622c0 .18-.05.274-.272.522c-.37.413-.535.877-.655 1.837c-.134 1.077-.51 1.837-1.554 3.138c-.61.762-.71.902-.865 1.209c-.194.386-.247.603-.269 1.091c-.023.516.022.85.18 1.343c.138.432.282.718.65 1.288c.318.493.501.859.501 1.002c0 .114.022.114.515.003c1.179-.266 2.136-.735 2.675-1.309c.333-.355.411-.551.414-1.038c.001-.318-.01-.385-.096-.568c-.14-.298-.395-.546-.957-.93c-.737-.504-1.051-.91-1.138-1.467c-.072-.457.011-.78.419-1.634c.421-.884.526-1.26.597-2.151c.045-.576.108-.803.274-.985c.172-.19.328-.255.755-.313c.696-.095 1.139-.275 1.503-.61c.316-.292.448-.573.468-.995l.016-.32l-.177-.206l-.02-.024q-.498-.57-6.284-6.932l-.102-.111A15.93 15.93 0 0 1 16 0m.048 20.72c-.454-.116-1.271-.148-1.762-.068c-1.139.185-2.388.787-3.393 1.635l-.299.253l.263.04c1.371.215 1.74.405 2.692 1.385c.547.564.732.69 1.186.805c.667.17 1.325-.142 1.55-.737c.101-.266.088-.707-.028-.928c-.275-.526-1.076-.696-1.463-.31c-.323.32-.229.804.172.888c.092.019.09.015-.023-.036c-.176-.08-.252-.19-.253-.365c-.002-.41.468-.641.905-.444c.32.144.448.333.448.664a.83.83 0 0 1-.939.831a1.38 1.38 0 0 1-.777-.406c-.445-.504-.272-1.298.35-1.603c.473-.232 1.102-.175 1.59.145c.56.367.799.702 1.282 1.803c.157.359.36.762.45.897c.456.685 1.004 1.02 1.664 1.02c.364 0 .638-.066.983-.238c.256-.128.618-.37.592-.397a1 1 0 0 0-.236.073c-.72.281-1.453.262-1.878-.05c-.268-.195-.484-.586-.595-1.074a23 23 0 0 1-.141-.83c-.148-.942-.29-1.366-.621-1.852c-.34-.497-.99-.915-1.719-1.101m4.842-4.955c-.02 0-.054.061-.075.135c-.197.697-.115 1.443.245 2.216l.065.135c.166.333.382.676 1.03 1.647c.631.947.944 1.507 1.097 1.966c.25.75.213 1.424-.118 2.116c-.079.164-.131.297-.117.297s.143-.064.288-.143c.984-.534 1.675-1.45 1.972-2.616c.094-.37.131-1.253.068-1.62c-.112-.648-.344-1.18-.72-1.647c-.428-.533-1.058-1-2.163-1.602c-.885-.482-1.217-.67-1.383-.782a.7.7 0 0 0-.189-.102M7.152 19.103c0-.198.355-.27.583-.118c.242.16.319.49.174.746c-.138.245-.403.326-.59.18c-.115-.091-.123-.225-.022-.377c.1-.15.09-.223-.037-.288c-.075-.039-.108-.083-.108-.143m12.468-3.97l.069.207a5 5 0 0 1 .13.572c.217 1.29-.46 2.333-1.778 2.737c-.14.043-.689.15-1.22.239c-1.078.18-1.558.306-2.041.539c-.343.165-.757.412-.733.437a.5.5 0 0 0 .174-.042c.609-.214 1.287-.324 2.316-.378c.409-.021.874-.055 1.033-.075c.918-.116 1.553-.394 2.048-.898c.275-.28.439-.54.57-.908c.085-.234.096-.32.097-.734c0-.421-.01-.498-.1-.757c-.12-.34-.26-.595-.437-.794zm-1.543-3.732c-.01 0-.018.192-.018.427c0 1.596.954 2.542 3.66 3.632c1.803.725 2.54 1.1 3.09 1.572c.482.415.77.969.797 1.537c.005.107.025.184.045.178c.074-.024.35-.643.441-.987c.115-.435.156-1.26.086-1.7c-.244-1.514-1.266-2.626-2.918-3.174c-.52-.172-1.084-.29-2.085-.437c-1.701-.248-2.316-.436-2.865-.876a2 2 0 0 0-.233-.172m-3.804 1.235c-.202-.103-.631-.144-.839-.08c-.327.1-.644.447-.743.81c-.06.221-.026.61.064.73c.145.194.286.245.666.242c.744-.005 1.39-.324 1.466-.723c.062-.327-.223-.78-.614-.98zm-1.033.454c0-.351.562-.54.933-.312c.195.119.246.295.13.458c-.078.112-.323.22-.502.22c-.268 0-.561-.192-.561-.366m.142-7.279c-.419-.1-1.027-.153-1.284-.114c-.134.02-.122.026.163.07c1.04.162 1.851.574 2.678 1.36c.363.345.729.774 1.32 1.55c1.332 1.747 1.897 2.234 3.018 2.6c.658.214 1.323.314 2.497.376c1.3.069 1.79.173 2.255.48c.257.17.458.382.658.692l.117.18l-.025-.198c-.093-.76-.636-1.83-1.328-2.613l-.126-.143l-.064.287c-.16.723-.506 1.242-.828 1.243a.42.42 0 0 1-.372-.236c-.071-.17-.065-.232.04-.43c.195-.365.243-.853.147-1.49c-.027-.184-.068-.357-.09-.383c-.07-.085-.632-.412-.988-.576c-1.293-.598-2.84-.792-4.36-.547l-.36.058l-.252-.281c-.95-1.057-1.839-1.652-2.816-1.885m9.399.287c-.008 0-.061.102-.117.226c-.142.313-.212.656-.242 1.176c-.019.335-.038.45-.077.464c-.059.023-.138-.001-.62-.186c-.323-.125-1.127-.36-1.15-.336c-.006.006.162.088.374.182s.556.272.764.396c.825.488.965.772.966 1.956c0 .59-.007.667-.08.845c-.098.239-.08.284.027.073c.2-.39.284-.782.296-1.39c.007-.39.019-.473.074-.528c.06-.06.075-.06.172-.01c.145.074.8.596 1.086.863l.233.219l-.233-.306c-.128-.169-.482-.56-.787-.872c-.648-.663-.7-.751-.79-1.365c-.07-.484-.054-.9.05-1.203a.8.8 0 0 0 .054-.204m-10.802.21l-.024.283c-.077.914.281 2.137.86 2.934c.45.618 1.145 1.098 1.66 1.145c.336.03.437-.075.285-.297c-.212-.309-.472-.784-.54-.988a11 11 0 0 1-.207-.83c-.241-1.125-.479-1.564-1.027-1.897a3.3 3.3 0 0 0-.875-.326z"/></symbol><symbol id="hd-icon-cryptocurrency-unity" viewBox="0 0 32 32"><g fill="currentColor" fill-rule="evenodd"><path d="M16 32C7.163 32 0 24.837 0 16S7.163 0 16 0s16 7.163 16 16s-7.163 16-16 16m-2.712-9.268q1.3.198 2.617.197c2.976 0 5.677-.743 7.66-1.948c-2.434-3.414-6.087-8.182-9.913-9.546a8.3 8.3 0 0 0-2.78-.48c-1.002 0-1.826.19-2.478.562s-.977.847-.977 1.408c-.001.212.052.422.157.61c.12.203.284.381.48.522q.816.583 3.536.748c.832.047 1.48.09 1.937.149q2.017.217 3.198 1.242c.785.685 1.178 1.522 1.178 2.522q0 1.779-1.612 2.934q-1.215.864-3 1.08zM9.009 20.79a8.9 8.9 0 0 0 3.011.545q1.84 0 2.987-.747c1.147-.747 1.149-1.139 1.149-1.922q0-.934-.825-1.534c-1.63-1.19-5.594-.591-7.749-1.527c-.616-.287-1.088-.652-1.407-1.1a2.55 2.55 0 0 1-.463-1.201c-1.725 3.06-.196 6.21 3.297 7.486m16.903-1.915c.657-.89 1.024-1.881 1.024-2.927c0-1.045-.367-2.038-1.024-2.927zm-1.649-7.46C22.24 9.936 19.244 9 15.905 9a17 17 0 0 0-4.077.49c.78.074 1.55.234 2.293.477c4.303 1.398 7.804 5.583 10.147 8.91z"/><path fill-rule="nonzero" d="M25.912 18.875v-5.854c.657.889 1.024 1.882 1.024 2.927s-.367 2.037-1.024 2.927m-1.649-7.46l.005 7.461c-2.343-3.326-5.844-7.511-10.147-8.909a10.6 10.6 0 0 0-2.293-.477A17 17 0 0 1 15.905 9c3.34 0 6.335.936 8.358 2.415" opacity=".5"/></g></symbol><symbol id="hd-icon-cryptocurrency-usd" viewBox="0 0 32 32"><path fill="currentColor" fill-rule="evenodd" d="M16 32C7.163 32 0 24.837 0 16S7.163 0 16 0s16 7.163 16 16s-7.163 16-16 16m6.5-12.846c0-2.523-1.576-3.948-5.263-4.836v-4.44c1.14.234 2.231.725 3.298 1.496l1.359-2.196a9.5 9.5 0 0 0-4.56-1.776V6h-2.11v1.355c-3.032.234-5.093 1.963-5.093 4.486c0 2.64 1.649 3.925 5.19 4.813v4.58c-1.577-.234-2.886-.935-4.269-2.01L9.5 21.35a11.5 11.5 0 0 0 5.724 2.314V26h2.11v-2.313c3.08-.257 5.166-1.963 5.166-4.533m-7.18-5.327c-1.867-.537-2.327-1.168-2.327-2.15c0-1.027.8-1.845 2.328-1.962zm4.318 5.49c0 1.122-.873 1.893-2.401 2.01v-4.229c1.892.538 2.401 1.168 2.401 2.22z"/></symbol><symbol id="hd-icon-cryptocurrency-usdc" viewBox="0 0 32 32"><path fill="currentColor" d="M16 0c8.837 0 16 7.163 16 16s-7.163 16-16 16S0 24.837 0 16S7.163 0 16 0m3.352 5.56c-.244-.12-.488 0-.548.243c-.061.061-.061.122-.061.243v.85l.01.104a.86.86 0 0 0 .355.503c4.754 1.7 7.192 6.98 5.424 11.653c-.914 2.55-2.925 4.491-5.424 5.402c-.244.121-.365.303-.365.607v.85l.005.088a.45.45 0 0 0 .36.397c.061 0 .183 0 .244-.06a10.895 10.895 0 0 0 7.13-13.717c-1.096-3.46-3.778-6.07-7.13-7.162zm-6.46-.06c-.061 0-.183 0-.244.06a10.895 10.895 0 0 0-7.13 13.717c1.096 3.4 3.717 6.01 7.13 7.102c.244.121.488 0 .548-.243c.061-.06.061-.122.061-.243v-.85l-.01-.08c-.042-.169-.199-.362-.355-.466c-4.754-1.7-7.192-6.98-5.424-11.653c.914-2.55 2.925-4.491 5.424-5.402c.244-.121.365-.303.365-.607v-.85l-.005-.088a.45.45 0 0 0-.36-.397m3.535 3.156h-.915l-.088.008c-.2.04-.346.212-.4.478v1.396l-.207.032c-1.708.304-2.778 1.483-2.778 2.942c0 2.002 1.218 2.791 3.778 3.095c1.707.303 2.255.668 2.255 1.639c0 .97-.853 1.638-2.011 1.638c-1.585 0-2.133-.667-2.316-1.578c-.06-.242-.244-.364-.427-.364h-1.036l-.079.007a.41.41 0 0 0-.347.418v.06l.033.18c.29 1.424 1.266 2.443 3.197 2.734v1.457l.008.088c.04.198.213.344.48.397h.914l.088-.008c.2-.04.346-.212.4-.477V21.34l.207-.04c1.713-.362 2.84-1.601 2.84-3.177c0-2.124-1.28-2.852-3.84-3.156c-1.829-.243-2.194-.728-2.194-1.578s.61-1.396 1.828-1.396c1.097 0 1.707.364 2.011 1.275a.46.46 0 0 0 .427.303h.975l.079-.006a.413.413 0 0 0 .348-.419v-.06l-.037-.173a3.04 3.04 0 0 0-2.706-2.316V9.142l-.008-.088c-.04-.199-.213-.345-.48-.398z"/></symbol><symbol id="hd-icon-cryptocurrency-usdt" viewBox="0 0 32 32"><path fill="currentColor" fill-rule="evenodd" d="M16 32C7.163 32 0 24.837 0 16S7.163 0 16 0s16 7.163 16 16s-7.163 16-16 16m1.922-18.207v-2.366h5.414V7.819H8.595v3.608h5.414v2.365c-4.4.202-7.709 1.074-7.709 2.118s3.309 1.915 7.709 2.118v7.582h3.913v-7.584c4.393-.202 7.694-1.073 7.694-2.116s-3.301-1.914-7.694-2.117m0 3.59v-.002c-.11.008-.677.042-1.942.042c-1.01 0-1.721-.03-1.971-.042v.003c-3.888-.171-6.79-.848-6.79-1.658s2.902-1.486 6.79-1.66v2.644c.254.018.982.061 1.988.061c1.207 0 1.812-.05 1.925-.06v-2.643c3.88.173 6.775.85 6.775 1.658c0 .81-2.895 1.485-6.775 1.657"/></symbol><symbol id="hd-icon-cryptocurrency-utk" viewBox="0 0 32 32"><path fill="currentColor" fill-rule="evenodd" d="M16 32C7.163 32 0 24.837 0 16S7.163 0 16 0s16 7.163 16 16s-7.163 16-16 16m-1.647-9.702h3.294V9.028H21.5V6h-11v3.028h3.853zM13.466 26h5.104c1.988 0 2.93-.956 2.93-2.978V9.896h-2.893v12.992c0 .32-.105.426-.419.426h-4.34c-.313 0-.418-.107-.418-.426V9.896h-2.893v13.126c0 2.022.94 2.978 2.93 2.978z"/></symbol><symbol id="hd-icon-cryptocurrency-veri" viewBox="0 0 32 32"><path fill="currentColor" d="M16 32C7.163 32 0 24.837 0 16S7.163 0 16 0s16 7.163 16 16s-7.163 16-16 16M6 8v.01q1.762 7.845 3.527 15.688h3.977L17.031 8h-3.204l-1.904 9.7c-.137.655-.24 1.32-.404 1.97a8 8 0 0 1-.116-.491L9.313 8Q7.655 8.005 6 8m12.314 4.932c-.793.968-1.014 2.262-1.107 3.484c-.07 1.253-.061 2.515.087 3.762c.148 1.083.521 2.213 1.376 2.926c.92.777 2.173.934 3.327.89c1.062-.043 2.184-.397 2.88-1.263c.694-.833.89-1.953.95-3.013h-2.664c-.096.639-.188 1.337-.628 1.835c-.33.364-.874.46-1.326.313c-.424-.152-.69-.565-.834-.982c-.296-.845-.24-1.756-.244-2.638H26c.001-1.195-.012-2.4-.263-3.57c-.207-.936-.643-1.876-1.438-2.432c-.898-.632-2.04-.728-3.1-.654c-1.074.07-2.188.467-2.885 1.343m2.274 1.245h.001c.495-.742 1.791-.74 2.2.089c.331.67.326 1.445.373 2.178H20.13c-.008-.771.004-1.613.458-2.267"/></symbol><symbol id="hd-icon-cryptocurrency-vet" viewBox="0 0 32 32"><path fill="currentColor" fill-rule="evenodd" d="M16 32C7.163 32 0 24.837 0 16S7.163 0 16 0s16 7.163 16 16s-7.163 16-16 16m-1.262-7.266c.502 1.021 1.952 1.021 2.453 0l7.78-15.849a.258.258 0 0 0-.233-.376h-.331a.38.38 0 0 0-.34.206l-5.605 11.372c-.5 1.02-1.951 1.02-2.452 0L10.388 8.706a.38.38 0 0 0-.34-.206H7.38a.38.38 0 0 0-.34.546z"/></symbol><symbol id="hd-icon-cryptocurrency-via" viewBox="0 0 32 32"><path fill="currentColor" fill-rule="evenodd" d="m11.133 14.296l.751 1.96l-3.874-.025L8 17.95l4.544.029L16 27l3.44-8.978l4.55.029l.01-1.719l-3.904-.024l.77-2.012h3.129v-1.719h-2.47l1.896-4.95L21.856 7l-3.56 9.296l-4.602-.029L10.144 7l-1.565.627l1.896 4.95h-2.47v1.72zm3.22 3.694l3.285.02L16 22.289zM16 32C7.163 32 0 24.837 0 16S7.163 0 16 0s16 7.163 16 16s-7.163 16-16 16"/></symbol><symbol id="hd-icon-cryptocurrency-vib" viewBox="0 0 32 32"><path fill="currentColor" d="M16 32C7.163 32 0 24.837 0 16S7.163 0 16 0s16 7.163 16 16s-7.163 16-16 16M7 7l10.2 18H22V7h-3.6v12.775L11.2 7z"/></symbol><symbol id="hd-icon-cryptocurrency-vibe" viewBox="0 0 32 32"><path fill="currentColor" d="M16 32C7.163 32 0 24.837 0 16S7.163 0 16 0s16 7.163 16 16s-7.163 16-16 16m6.63-15.082c-.36-.094-.72-.173-1.096-.267c1.497-2.247 2.977-4.471 4.466-6.719a1 1 0 0 0-.136-.008q-1.429.002-2.857-.008c-.144 0-.192.07-.256.165q-2.64 3.982-5.282 7.972c-.48.729-.968 1.457-1.472 2.217a1 1 0 0 1-.112-.157A6534 6534 0 0 0 9.322 10.09a.33.33 0 0 0-.312-.18c-.904.007-1.808 0-2.713.007c-.056 0-.12.008-.208.016c1.465 2.224 2.897 4.417 4.346 6.633c-.056.016-.088.016-.12.024c-.673.172-1.345.32-2.009.525s-1.304.47-1.825.94c-.656.587-.64 1.198.04 1.77c.024.023.056.038.08.062c.465.368 1 .61 1.561.807c1.769.634 3.617.877 5.49 1.01a.33.33 0 0 1 .28.164A272 272 0 0 0 15.989 25q.064-.107.144-.204c.656-.979 1.304-1.958 1.96-2.936a.34.34 0 0 1 .216-.15c.937-.117 1.881-.195 2.81-.336c1.144-.172 2.264-.462 3.32-.971c.417-.196.809-.43 1.097-.799c.328-.423.352-.846-.008-1.245a4.7 4.7 0 0 0-.8-.619c-.649-.4-1.369-.626-2.097-.822zm-13.732 1.88a.517.517 0 0 1 .008-.729c.173-.202.382-.372.616-.501q.54-.26 1.113-.447a.23.23 0 0 1 .2.063c.648.979 1.288 1.966 1.937 2.945c.008.015.008.039.024.094c-1.145-.173-2.25-.368-3.25-.9a2.6 2.6 0 0 1-.648-.526zm12.604.845c-.696.196-1.408.353-2.112.525a.8.8 0 0 1-.192 0c.248-.376.488-.744.728-1.104c.384-.572.768-1.144 1.144-1.723c.072-.11.144-.157.264-.094c.353.172.713.336 1.057.509q.151.09.272.219c.32.329.32.69 0 1.01c-.323.313-.723.54-1.16.658zM21.51 9H10.475l5.554 8.732z"/></symbol><symbol id="hd-icon-cryptocurrency-vivo" viewBox="0 0 32 32"><path fill="currentColor" fill-rule="evenodd" d="M16 32C7.163 32 0 24.837 0 16S7.163 0 16 0s16 7.163 16 16s-7.163 16-16 16m7.049-21.723c-1.664 2.772-6.527 9.835-7.036 10.44c-.488-.596-5.058-7.27-7.081-10.472A1.573 1.573 0 0 0 6.73 9.76a1.647 1.647 0 0 0-.475 2.248c2.047 3.241 3.84 5.985 5.27 8.036C13.932 23.497 14.312 24.5 16 24.5s2.194-1.136 4.535-4.447c1.603-2.268 3.526-5.238 5.23-8.076a1.646 1.646 0 0 0-.526-2.237c-.75-.47-1.73-.23-2.19.537"/></symbol><symbol id="hd-icon-cryptocurrency-vrc" viewBox="0 0 32 32"><path fill="currentColor" fill-rule="evenodd" d="M16 32C7.163 32 0 24.837 0 16S7.163 0 16 0s16 7.163 16 16s-7.163 16-16 16m4.265-24l-4.234 9.113L11.704 8H7l9 18l9-18zM16 12.959c.788 0 1.427-.656 1.427-1.465s-.64-1.466-1.427-1.466c-.788 0-1.427.657-1.427 1.466s.639 1.465 1.427 1.465m6.465 4.04c-.788 0-1.427.657-1.427 1.466c0 .81.64 1.465 1.427 1.465c.788 0 1.426-.656 1.426-1.465S23.253 17 22.465 17z"/></symbol><symbol id="hd-icon-cryptocurrency-vrsc" viewBox="0 0 32 32"><path fill="currentColor" d="M16 0c8.837 0 16 7.163 16 16s-7.163 16-16 16S0 24.837 0 16S7.163 0 16 0m-5.158 6.84c-.672-.273-1.445.115-1.996.588c-1.453 1.229-2.631 2.609-2.285 4.64c.167.978 1.673 4.137 3.284 7.276l.334.649c1.786 3.448 3.595 6.687 3.767 6.757c0 0 11.283-14.33 11.505-15.073c.176-.592-.035-2.724-2.077-4.252c-.582-.436-1.345-.79-1.902-.588c-1.631.589-6.174 7.048-6.174 7.048l-.02-.04l-.098-.195a77 77 0 0 0-1.788-3.335l-.269-.463c-.857-1.457-1.759-2.8-2.28-3.011z"/></symbol><symbol id="hd-icon-cryptocurrency-vtc" viewBox="0 0 32 32"><path fill="currentColor" fill-rule="evenodd" d="M27.25 4.624a13 13 0 0 0-.312-.29L15.783 19.787l-4.263-5.438H4.582l-1.95 2.22H6.26l8.661 11.194q.434.408.862.408q.427 0 .816-.408L30.294 8.82a15 15 0 0 0-.295-.574A15.9 15.9 0 0 1 32 16c0 8.837-7.163 16-16 16S0 24.837 0 16S7.163 0 16 0c4.386 0 8.36 1.765 11.25 4.624"/></symbol><symbol id="hd-icon-cryptocurrency-vtho" viewBox="0 0 32 32"><path fill="currentColor" d="M16 32C7.163 32 0 24.837 0 16S7.163 0 16 0s16 7.163 16 16s-7.163 16-16 16m4.272-26.942h-5.763l-4.487 11.78h4.45l-3.94 10.104l12.18-14.3h-5.1l5.683-7.584z"/></symbol><symbol id="hd-icon-cryptocurrency-wabi" viewBox="0 0 32 32"><path fill="currentColor" fill-rule="evenodd" d="M16 32C7.163 32 0 24.837 0 16S7.163 0 16 0s16 7.163 16 16s-7.163 16-16 16m5.89-24.532c.056-.217.056-.3-.007-.377c-.107-.127-.208-.121-.334.02c-.082.089-.107.242-.107.6c0 .784-.1.874-.435.401c-.12-.172-.252-.287-.328-.287c-.063 0-.12.013-.12.026a1 1 0 0 1-.037.121c-.019.051.05.185.164.306c.309.339.397.562.428 1.08c.026.465.02.503-.227.995q-.491.996-.642 1.608c-.082.358-.101.377-.284.25c-.24-.167-.756-.307-1.273-.345c-.29-.02-.523-.026-.523-.007c0 .064.132.792.17.9c.025.109.082.115.542.077c.983-.077 1.45-.173 1.588-.326c.17-.191.429-.683.7-1.353c.315-.772.58-1.296.73-1.462c.077-.083.398-.249.726-.376c.46-.179.586-.256.586-.351c0-.205-.19-.217-.53-.039c-.27.147-.327.16-.403.083c-.126-.127-.031-.274.441-.683c.568-.491.612-.587.334-.695c-.208-.077-.359.012-.53.312c-.176.326-.478.613-.598.562s-.139-.606-.031-1.04m-5.011 2.674c-.044-.498-.12-.644-.385-.76c-.227-.095-.53-.102-.945-.025c-1.002.179-1.305.275-1.98.62c-.661.338-.737.395-.869.663c-.24.46-.22.626.07.792c.44.248.541.389.541.74c0 .172-.031.37-.075.434c-.145.236.598 1.551 1.304 2.285c.227.243.429.498.448.58c.044.167-.006.843-.1 1.29a3.15 3.15 0 0 0 .49 2.406c.65.97 1.482 1.283 2.289.856c.403-.217.598-.466.775-1.015c.347-1.066.372-2.126.076-3.038c-.196-.6-.24-.875-.448-2.815c-.195-1.787-.246-2.062-.429-2.138c-.075-.026-.233-.09-.346-.134c-.284-.103-.372-.268-.416-.74zm-5.963 2.381c0-.326-.113-.677-.246-.785c-.113-.09-.277-.109-.34-.038c-.094.095-.031.427.145.785c.202.402.233.632.114.753c-.17.172-.353.096-1.003-.44c-.195-.16-.435-.115-.435.076c0 .147.284.338.725.479c.177.057.366.16.429.236c.107.128.113.14.006.217c-.07.051-.202.064-.378.038a1.4 1.4 0 0 0-.435.007c-.132.032-.164.076-.145.217c.019.16.044.172.271.166a3.5 3.5 0 0 0 .549-.058l.296-.05l.485.452c.265.25.58.594.693.773c.29.434.63.772.782.772c.132 0 .485-.434.8-.99c.284-.49.316-.644.246-1.148l-.07-.447l-.44.747c-.347.593-.473.746-.58.753c-.177 0-.58-.421-.775-.804c-.196-.396-.196-.99-.007-1.303c.139-.23.177-.6.07-.67c-.126-.083-.31.109-.41.428c-.063.185-.132.364-.164.396c-.076.083-.183-.237-.183-.562m11.528 5.75c.391-.414.643-.81.624-.97c-.012-.101-.07-.127-.27-.14c-.303-.006-.347 0-1.072.25c-1.4.478-2.603 1.244-3.02 1.927c-.113.179-.113.185 0 .14c.89-.37 2.118-.81 2.15-.778c.057.05-1.16 2.317-1.317 2.45c-.196.173-.221.281-.082.396c.069.064.252.058.882-.025c1.33-.173 1.532-.147 2.641.37c.548.255.7.28.756.128c.05-.134-.044-.25-.296-.351c-.555-.217-.504-.44.107-.44c.34 0 1.28.171 1.557.286c.063.026.17-.025.284-.12c.176-.16.182-.167.063-.263c-.095-.07-.303-.095-.864-.095c-.624 0-.756-.02-.882-.122l-.145-.12l.208-.129c.113-.07.479-.191.813-.268c1.21-.268 1.519-.414 1.393-.65c-.151-.288-.41-.262-1.355.165c-.555.25-1.078.377-1.135.281c-.1-.166.076-.39.643-.817c.328-.249.618-.498.637-.549c.044-.127-.158-.344-.328-.344c-.202 0-.429.204-.763.676c-.17.243-.397.479-.554.568c-.271.16-.505.204-.568.109c-.012-.026.095-.262.253-.524q.185-.294.315-.619c.05-.191-.007-.338-.133-.338c-.189 0-.397.293-.472.676c-.045.205-.108.44-.152.517c-.094.186-.611.734-.895.958c-.227.172-1.222.613-1.273.562s.07-.205 1.242-1.622c.397-.478.85-1.008 1.008-1.174zM7.992 20.528a11 11 0 0 1-.448-.734c-.233-.408-.277-.447-.473-.466a.6.6 0 0 0-.346.077c-.114.083-.114.102-.032.261c.05.096.29.345.536.55c.674.561 1.103 1.397.744 1.448c-.196.032-.555-.179-1.072-.619c-.245-.217-.498-.39-.554-.39c-.17 0-.347.128-.347.25c0 .153.082.217.555.408c.502.201.967.488 1.374.849c.372.351.327.428-.227.37c-.303-.025-.441-.019-.473.039c-.094.153.158.274.94.453c.434.102.913.242 1.058.319c.34.179.927.74 1.298 1.25c.297.416.48.505.643.307c.038-.05.108-.293.133-.536c.025-.242.208-.919.403-1.5c.372-1.136.416-1.455.259-1.972c-.05-.166-.076-.313-.05-.326c.024-.012.258.02.516.07c.788.154 1.424.077 2.73-.325c.598-.191.66-.268.358-.485c-.283-.204-2.401-.51-3.542-.51c-.693 0-.731.025-.907.574c-.095.3-.108.619-.114 2.215c-.006 1.02-.025 1.883-.057 1.908c-.145.147-.435-.542-.554-1.315c-.082-.568-.05-.99.132-1.57c.158-.498.139-.76-.07-.823c-.27-.09-.422.191-.44.823c-.007.236-.05.472-.089.53c-.075.102-.088.102-.246-.007c-.245-.16-.296-.344-.365-1.346c-.038-.55-.088-.913-.132-.939c-.114-.076-.391-.057-.473.026c-.107.108-.095.364.044.893c.151.581.22 1.137.139 1.137c-.082 0-.618-.562-.851-.894m9.038-10.96s-.07.556.063.869c0 0 .17.28.397.325c0 0 .101-.549-.07-.989c0 .006-.068-.255-.39-.204zm-4.544 1.82c-.22.236-.057.447-.057.44c.252.396.756.632.756.632c.095-.217-.031-.517-.031-.517c-.183-.287-.668-.555-.668-.555"/></symbol><symbol id="hd-icon-cryptocurrency-wan" viewBox="0 0 32 32"><path fill="currentColor" fill-rule="evenodd" d="M16 32C7.163 32 0 24.837 0 16S7.163 0 16 0s16 7.163 16 16s-7.163 16-16 16M7 11.09v11.974l9-5.315l9 5.315V11.09l-2.606 1.13v6.353L16 14.786l-6.333 3.787V12.22zm.303-.489l2.364.978L16 7.883l6.394 3.696l2.364-.978L16 5.5zm1.879 11.821L16.03 26.5l6.849-4.078l-2.03-1.13l-4.819 2.825l-4.878-2.825z"/></symbol><symbol id="hd-icon-cryptocurrency-waves" viewBox="0 0 32 32"><path fill="currentColor" fill-rule="evenodd" d="M16 32C7.163 32 0 24.837 0 16S7.163 0 16 0s16 7.163 16 16s-7.163 16-16 16m0-26L6 16l10 10l10-10z"/></symbol><symbol id="hd-icon-cryptocurrency-wax" viewBox="0 0 32 32"><path fill="currentColor" fill-rule="evenodd" d="M16 32C7.163 32 0 24.837 0 16S7.163 0 16 0s16 7.163 16 16s-7.163 16-16 16m12-13.038L20.516 12.5h-2.375l4.625 3.998l-1.461 1.257l-3.039-3.708h-2.01l-3.652 4.445l-.398.486l1.788-4.923H12.37l-1.184 3.325L10 14.056H8l-1.188 3.332l-1.192-3.346H4l1.773 4.911h2.112L9 15.823l1.124 3.155h2.08L10.96 20.5h1.997l4.305-5.241l1.233 1.508h-1.619l-.833 1.029h3.292l.955 1.16h1.998l1.671-1.43l1.677 1.436zm-2.345-2.972l2.249-1.902l-2.251-.002l-1.113.948z"/></symbol><symbol id="hd-icon-cryptocurrency-wbtc" viewBox="0 0 32 32"><path fill="currentColor" d="M16 0c8.837 0 16 7.163 16 16s-7.163 16-16 16S0 24.837 0 16S7.163 0 16 0m-.075 5C9.892 5 5 9.892 5 15.925s4.89 10.926 10.924 10.927a10.926 10.926 0 0 0 10.928-10.928C26.851 9.89 21.959 5 15.925 5m-.001.852A10.07 10.07 0 0 1 26 15.924c-.002 5.559-4.51 10.064-10.068 10.064c-5.559 0-10.066-4.505-10.068-10.064s4.501-10.068 10.06-10.072m5.732 16.358a8.494 8.494 0 0 1-11.464 0l-.6.6l.222.198a9.35 9.35 0 0 0 12.456-.198zM9.038 9.598a9.35 9.35 0 0 0 0 12.678l.6-.62l-.19-.214a8.494 8.494 0 0 1 .19-11.244zm13.78-.026v.014l-.6.6l.19.214a8.494 8.494 0 0 1-.19 11.25l.6.6l.198-.222a9.35 9.35 0 0 0-.198-12.456m-7.57.828H14.2v1.736h-2.142v1.13h.022c.126-.003.757-.013.746 0a.546.546 0 0 1 .6.464v4.752l-.012.073a.37.37 0 0 1-.116.185a.37.37 0 0 1-.272.092c.014.012-.768 0-.768 0l-.2 1.262h2.122v1.764h1.056V20.12h.844v1.73h1.058v-1.744l.196-.013c1.679-.13 2.838-.597 2.988-2.205c.126-1.344-.506-1.944-1.516-2.186c.614-.302.994-.862.908-1.778c-.12-1.252-1.2-1.672-2.566-1.8V10.4h-1.056v1.692h-.844zm.104 6.113c.792-.01 2.882-.154 2.882 1.167c0 1.312-2.248 1.162-2.964 1.162v-2.328zm-.006-3.176c.664-.011 2.398-.139 2.398 1.063c0 1.2-1.876 1.054-2.472 1.054v-2.116zm6.696-4.497a9.35 9.35 0 0 0-12.456.198l.614.6l.214-.19a8.494 8.494 0 0 1 11.25.19l.6-.6z"/></symbol><symbol id="hd-icon-cryptocurrency-wgr" viewBox="0 0 32 32"><path fill="currentColor" fill-rule="evenodd" d="M16 32C7.163 32 0 24.837 0 16S7.163 0 16 0s16 7.163 16 16s-7.163 16-16 16m9.893-20.613c-.152-.261-.397-.387-.718-.387c-1.969.007-3.937.02-5.906.003c-.497-.003-.794.187-1.025.601c-.498.883-1.023 1.752-1.537 2.629c-.218.37-.428.743-.643 1.113a.3.3 0 0 1-.069.071c-.024-.023-.052-.044-.069-.07c-.217-.371-.428-.744-.642-1.114c-.511-.877-1.04-1.742-1.537-2.629c-.232-.414-.529-.604-1.026-.6c-1.968.016-3.937.003-5.905-.004c-.315 0-.56.126-.712.387c-.155.265-.131.543.035.815c.228.37.445.747.666 1.12q.912 1.554 1.82 3.108q.959 1.635 1.924 3.265c.573.975 1.143 1.946 1.72 2.917c.159.265.397.4.711.387c.308-.014.525-.166.67-.431q.225-.398.46-.791l1.533-2.611c.114-.197.235-.39.363-.608c.13.217.248.41.362.608l1.534 2.61q.234.396.459.792c.145.265.363.417.67.431a.74.74 0 0 0 .711-.387a3375 3375 0 0 0 5.464-9.29c.221-.373.435-.75.666-1.12c.156-.272.177-.55.021-.815M15.05 17.142q-.865 1.493-1.744 2.978c-.11.19-.228.374-.366.604l-4.797-8.186c.09-.007.152-.017.214-.017c1.312-.003 2.625-.003 3.937-.01c.145 0 .228.044.3.167c.701 1.205 1.406 2.403 2.11 3.605c.117.2.249.394.349.598a.31.31 0 0 1-.003.261m4.01 3.582c-.138-.227-.256-.414-.366-.604a774 774 0 0 1-1.744-2.978a.31.31 0 0 1 0-.261c.103-.207.231-.4.349-.598l2.11-3.606c.072-.122.155-.166.3-.166c1.312.007 2.624.007 3.937.01c.062 0 .12.01.214.017c-1.606 2.733-3.195 5.446-4.8 8.186"/></symbol><symbol id="hd-icon-cryptocurrency-wicc" viewBox="0 0 32 32"><path fill="currentColor" d="M16 32C7.163 32 0 24.837 0 16S7.163 0 16 0s16 7.163 16 16s-7.163 16-16 16m-.76-28A12.06 12.06 0 0 0 4 15.44v1.12A12.02 12.02 0 0 0 15.4 28h1.18a11.92 11.92 0 0 0 7.8-3.44a11.66 11.66 0 0 0 3.44-7.66l.04-1.24a.422.422 0 0 0-.84-.08c-.05.748-.164 1.491-.34 2.22a10.8 10.8 0 0 1-7.04 8A10.5 10.5 0 0 1 8.04 9.26a10.74 10.74 0 0 1 14.8-1.72c.26.18.52.48.86.4c.4-.14.4-.68.06-.9A11.58 11.58 0 0 0 16.48 4zM25 10.22h.02c-.54.48-.42 1.24-.32 1.88c-.9 1.94-2.24 3.64-3.7 5.18l-.6.04a8.4 8.4 0 0 1-1.46-2.16c.24-.58.38-1.3-.04-1.84c-.56-.88-2-.86-2.54.02c-.36.5-.26 1.12-.1 1.66a17 17 0 0 1-3.46 4.94a19.1 19.1 0 0 1-3.14-5.28c.46-.82.2-2.02-.74-2.36c-1.06-.5-2.34.58-2.08 1.7c.1.82.92 1.28 1.7 1.32a18.8 18.8 0 0 1 2.92 5.2c-.24.62-.3 1.36.16 1.88c.62.76 1.94.68 2.44-.14c.38-.48.28-1.12.14-1.66a19.3 19.3 0 0 1 3.22-4.86l.6-.02a8.1 8.1 0 0 1 1.5 2.14c-.26.62-.4 1.4.1 1.96c.68.88 2.24.66 2.6-.4c.3-.54-.18-1.22.2-1.74c.94-1.74 2.04-3.4 3.42-4.8c1.04.08 2.06-.82 1.8-1.88c-.18-1.18-1.84-1.66-2.64-.78"/></symbol><symbol id="hd-icon-cryptocurrency-wings" viewBox="0 0 32 32"><g fill="currentColor" fill-rule="evenodd"><path d="M16.895 17.299L8.27 23.993L22 18.118l.796-.338l-.001-.003l1.285-.55l.065-3.264l1.855.513l-1.414-3.146l-3.818 2.963l-2.719-4.674L6 9l9.183 2.461l.233.795l-8.028-.413l7.224 1.935l1.247 4.325zM16 32C7.163 32 0 24.837 0 16S7.163 0 16 0s16 7.163 16 16s-7.163 16-16 16"/><g fill-rule="nonzero"><path fill-opacity=".7" d="m16.895 17.299l-1.036.804l-1.247-4.325l-7.224-1.935l8.028.413z"/><path fill-opacity=".3" d="m16.895 17.299l.778 2.652L22 18.118L8.27 23.993zm3.873-3.006l3.818-2.963L26 14.476l-1.855-.513l-.065 3.264l-1.285.55z"/></g></g></symbol><symbol id="hd-icon-cryptocurrency-wpr" viewBox="0 0 32 32"><path fill="currentColor" fill-rule="evenodd" d="m3.993 5.425l4.854 17.382l.035.15h4.186l1.87-6.932l1.87 6.932h4.185l.036-.15l1.96-7.078l3.435 12.41A15.94 15.94 0 0 1 16 32C7.163 32 0 24.837 0 16A15.94 15.94 0 0 1 3.993 5.425m2.65-2.405A15.93 15.93 0 0 1 16 0c8.837 0 16 7.163 16 16a15.93 15.93 0 0 1-3.025 9.364L24.901 10.65l-.035-.15h-3.75l-2.336 8.438l-1.973-8.438h-3.739l-1.973 8.438z"/></symbol><symbol id="hd-icon-cryptocurrency-wtc" viewBox="0 0 32 32"><g fill="currentColor" fill-rule="evenodd"><path fill-rule="nonzero" d="M16 32C7.163 32 0 24.837 0 16S7.163 0 16 0s16 7.163 16 16s-7.163 16-16 16m2.414-18.834v-2.49a.7.7 0 0 0-.02-.164a.69.69 0 0 0-.837-.492l-3.448.844a.68.68 0 0 0-.523.656v7.555q0 .083.02.164a.69.69 0 0 0 .837.492l2.247-.55v-4.538c0-.62.43-1.16 1.044-1.31zm-7.586-.042v-2.449a.7.7 0 0 0-.021-.163a.69.69 0 0 0-.836-.492l-3.449.844A.68.68 0 0 0 6 11.52v7.555q0 .083.02.164a.69.69 0 0 0 .837.492l2.074-.508v-4.58c0-.62.43-1.16 1.045-1.31zm10.867-2.239a.68.68 0 0 0-.523.655v7.556a.69.69 0 0 0 .857.655l3.449-.844a.68.68 0 0 0 .522-.655v-7.556a.7.7 0 0 0-.02-.164a.69.69 0 0 0-.837-.491zm-8.798 2.429l-2.754.674a.68.68 0 0 0-.522.655v7.556q0 .083.02.164a.69.69 0 0 0 .837.491l3.448-.844a.68.68 0 0 0 .522-.655v-.94a1.38 1.38 0 0 1-1.51-1.012a1.3 1.3 0 0 1-.041-.328zm7.586.042l-2.581.632a.68.68 0 0 0-.523.655v7.556q0 .083.02.164a.69.69 0 0 0 .837.491l3.449-.844a.68.68 0 0 0 .522-.655v-.951l-.01.002c-.74.181-1.488-.259-1.673-.982a1.3 1.3 0 0 1-.041-.328z"/><path d="M12.897 13.314v5.761q0 .165.04.328a1.38 1.38 0 0 0 1.511 1.013v.939c0 .31-.215.58-.522.655l-3.448.844a.69.69 0 0 1-.837-.491a.7.7 0 0 1-.02-.164v-7.556c0-.31.215-.58.522-.655zm7.586.042v5.74q0 .165.04.328c.186.723.935 1.163 1.674.982l.01-.002v.95a.68.68 0 0 1-.522.656l-3.449.844a.69.69 0 0 1-.836-.491a.7.7 0 0 1-.02-.164v-7.556c0-.31.215-.58.522-.655z" opacity=".504"/></g></symbol><symbol id="hd-icon-cryptocurrency-x" viewBox="0 0 32 32"><path fill="currentColor" d="M16 32C7.163 32 0 24.837 0 16S7.163 0 16 0s16 7.163 16 16s-7.163 16-16 16M14.116 6.01v3.919l1.88 1.963V6.009zM6.01 7.992l7.638 7.723q-.182.193-.37.381l-7.268 7.35h3.67c.155-.003.312.01.467-.01c.272-.003.543.005.814-.003c.314-.32.622-.646.934-.97l2.677-2.795c.473-.5.955-.993 1.425-1.493c.22.218.432.448.648.672c.973 1.014 1.942 2.032 2.915 3.044c.495.513.984 1.03 1.48 1.542c.272.01.546-.002.82.006c.096.013.195.007.294.007h3.83l-.69-.696l-6.772-6.846c-.052-.066-.114-.127-.172-.189q.357-.37.723-.734l6.91-6.99h-4.938q-1.069 1.117-2.14 2.23c-.967 1.012-1.935 2.028-2.906 3.037c-1.677-1.76-3.361-3.511-5.038-5.266zM16 19.53h.002q-.005 2.95-.004 5.9h1.89c0-1.308.004-2.613 0-3.92c-.627-.661-1.262-1.317-1.888-1.98"/></symbol><symbol id="hd-icon-cryptocurrency-xas" viewBox="0 0 32 32"><path fill="currentColor" fill-rule="evenodd" d="M16 32C7.163 32 0 24.837 0 16S7.163 0 16 0s16 7.163 16 16s-7.163 16-16 16m9.992-17.529L26 14.47l-3.826-6.462l.002-.007H9.922l.002.008l-.002-.002L6 14.563l.039.006l-.032.013L16.097 26l.426-.52zm-13.136.459l6.423-.011l2.122 3.635l-5.363 6.162l-5.353-6.112zm-2.778 2.98l-2.602-2.972l4.361-.007zm9.723-3.846l-3.038-5.205l4.883-.01l3.11 5.207zm4.771.846l-2.56 2.942l-1.713-2.935zm-5.791-.844l-5.42.009l2.729-4.62zm-8.399-5.194l5.04-.01l-3.08 5.214l-5.06.009z"/></symbol><symbol id="hd-icon-cryptocurrency-xbc" viewBox="0 0 32 32"><path fill="currentColor" fill-rule="evenodd" d="m25.977 19.754l2.183.545l.363-1.456l-2.183-.544l.544-2.183l-1.456-.363l-.544 2.183l-2.183-.544l-.363 1.455l2.183.545l-.544 2.183l1.455.363zM16 32C7.163 32 0 24.837 0 16S7.163 0 16 0s16 7.163 16 16s-7.163 16-16 16m4.611-18.24c.28-1.844-1.09-2.826-2.965-3.477l.623-2.499l-1.487-.37l-.606 2.433a53 53 0 0 0-1.191-.28l.61-2.45l-1.485-.37l-.624 2.498a49 49 0 0 1-.949-.223l.002-.007l-2.05-.512l-.405 1.624s1.103.253 1.08.269c.602.15.709.557.689.88l-.71 2.846q.064.014.154.05l-.157-.039l-.994 3.988c-.075.187-.264.469-.684.365c.014.021-1.08-.27-1.08-.27l-.75 1.743l1.935.482c.36.09.713.185 1.06.274l-.63 2.527l1.485.37l.624-2.5q.608.165 1.184.308l-.62 2.489l1.486.37l.63-2.523c2.535.477 4.445.269 5.26-2.079c.658-1.89-.016-2.974-1.348-3.676c.974-.234 1.71-.891 1.913-2.24zm-3.427 4.886c-.47 1.888-3.577.886-4.585.635l.836-3.348c1.007.251 4.24.743 3.749 2.713m.487-4.897c-.43 1.718-3.015.86-3.854.651l.757-3.037c.84.21 3.543.594 3.097 2.386"/></symbol><symbol id="hd-icon-cryptocurrency-xbp" viewBox="0 0 32 32"><path fill="currentColor" d="M16 32C7.163 32 0 24.837 0 16S7.163 0 16 0s16 7.163 16 16s-7.163 16-16 16m0-4c6.627 0 12-5.373 12-12S22.627 4 16 4S4 9.373 4 16s5.373 12 12 12m4.613-16.349c.178.236.268.527.256.822a3 3 0 0 1-.186.917c-.099.275-.24.532-.418.763a4.1 4.1 0 0 1-1.186 1.027a3 3 0 0 1-.56.25l.01.004l-6.268.617l3.142-8.634a10 10 0 0 0-.63.068c-4.165.598-7.377 4.187-7.377 8.515c0 2.161.816 4.243 2.285 5.829l-.852 2.345A10.86 10.86 0 0 1 5.118 16c0-5.877 4.683-10.677 10.512-10.873c.122-.004.245-.01.369-.01c.08 0 .159.007.238.007c.813.017 1.622.124 2.411.321l-.785 2.157l-1.177 3.235h1.45q1.03 0 1.62.227q.592.227.857.587m-2.674 2.105a1.16 1.16 0 0 0 .087-.52a.52.52 0 0 0-.151-.33a.74.74 0 0 0-.32-.17a1.6 1.6 0 0 0-.4-.05h-1.13l-.758 2.083h1.13c.313-.002.62-.08.897-.228q.441-.227.645-.785M19.2 5.598c4.444 1.37 7.682 5.515 7.682 10.402c0 6-4.881 10.882-10.882 10.882a10.82 10.82 0 0 1-6.706-2.32l.831-2.285l2.035-5.581l6.326-.624q.241.096.46.237c.185.122.342.282.46.47c.13.215.213.455.242.705q.056.41-.141.954q-.535 1.468-1.798 2.134q-1.261.669-3.229.668h-1.448l-.892 2.445q.254.13.519.243a8.603 8.603 0 1 0 5.76-16.183zm-4.64 11.475l-.845 2.316h1.323q.25 0 .498-.036q.28-.038.54-.154c.185-.086.353-.205.495-.352a1.7 1.7 0 0 0 .376-.631q.132-.368.069-.594a.6.6 0 0 0-.242-.343a1.1 1.1 0 0 0-.424-.161a2.7 2.7 0 0 0-.47-.045z"/></symbol><symbol id="hd-icon-cryptocurrency-xby" viewBox="0 0 32 32"><path fill="currentColor" fill-rule="evenodd" d="M16 32C7.163 32 0 24.837 0 16S7.163 0 16 0s16 7.163 16 16s-7.163 16-16 16M6 9.016c0 .01 1.467 2.51 3.26 5.557c2.312 3.929 3.265 5.539 3.276 5.537c.015-.003 6.53-11.08 6.53-11.1c0-.006-1.366-.01-3.072-.01c-2.634 0-3.073.002-3.073.014c0 .008.633 1.08 1.406 2.381s1.408 2.374 1.41 2.38s-.116.213-.26.46l-.264.45l-.028-.046l-1.688-2.84l-1.66-2.794l-2.919-.003C6.21 9 6 9.001 6 9.016m14.14-.009c-.108.177-7.057 12.017-7.062 12.028c-.006.024 2.904 4.969 2.923 4.965c.012-.003 2.94-4.963 2.949-4.998c.003-.01-.564-.974-1.33-2.265a592 592 0 0 1-1.339-2.256c-.004-.012.52-.903.53-.898c.003.002.604 1.011 1.336 2.242c1.026 1.727 1.332 2.236 1.346 2.234c.013-.002 1.1-1.841 3.259-5.508a1647 1647 0 0 0 3.244-5.529L26 9h-2.928c-1.61 0-2.93.003-2.933.007z"/></symbol><symbol id="hd-icon-cryptocurrency-xcp" viewBox="0 0 32 32"><path fill="currentColor" fill-rule="evenodd" d="M16 32C7.163 32 0 24.837 0 16S7.163 0 16 0s16 7.163 16 16s-7.163 16-16 16m7.48-22h-4.044a.62.62 0 0 0-.44.186l-7.375 7.529a.62.62 0 0 1-.44.186H9.829a.62.62 0 0 1-.44-.186l-.956-.974a.64.64 0 0 1-.183-.447v-1.377a.64.64 0 0 1 .183-.448l.956-.974a.62.62 0 0 1 .44-.186h1.352c.165 0 .323.067.44.186l.587.598a.614.614 0 0 0 .88 0l1.419-1.444a.64.64 0 0 0 0-.896l-1.54-1.567a.62.62 0 0 0-.44-.186H8.483a.62.62 0 0 0-.44.186l-2.86 2.912a.64.64 0 0 0-.182.448v4.118c0 .168.066.33.182.448l2.86 2.913a.62.62 0 0 0 .44.185h4.045a.62.62 0 0 0 .44-.186l7.375-7.528a.62.62 0 0 1 .44-.187h1.352c.165 0 .323.067.44.186l.956.974a.64.64 0 0 1 .183.448v1.377a.64.64 0 0 1-.183.447l-.956.974a.62.62 0 0 1-.44.186h-1.352a.62.62 0 0 1-.44-.186l-.592-.603a.614.614 0 0 0-.875-.005l-1.75 1.742a.64.64 0 0 0-.187.453v4.04c0 .35.279.634.622.634h2.04a.63.63 0 0 0 .623-.633v-1.5c0-.35.279-.633.622-.633h2.635a.62.62 0 0 0 .44-.185l2.86-2.913a.64.64 0 0 0 .183-.448v-4.118a.64.64 0 0 0-.182-.448l-2.86-2.912a.62.62 0 0 0-.44-.186z"/></symbol><symbol id="hd-icon-cryptocurrency-xdn" viewBox="0 0 32 32"><path fill="currentColor" fill-rule="evenodd" d="M16 32C7.163 32 0 24.837 0 16S7.163 0 16 0s16 7.163 16 16s-7.163 16-16 16m-2.691-20v8h2.738c1.322 0 3.683-.803 3.683-4s-2.36-4-3.683-4zm1.51 6.38v-4.76h1.134c.944 0 2.077.578 2.077 2.38s-1.133 2.38-2.077 2.38zM20.77 12v8h.566v-6.872L26.433 20H27v-8h-.567v7.026L21.335 12zM5 12v2h1.888v-2zm2.833 0v2H9.72v-2zm2.832 0v2h1.889v-2zm0 3v2h1.889v-2zm0 3v2h1.889v-2zm-2.832-3v2H9.72v-2z"/></symbol><symbol id="hd-icon-cryptocurrency-xem" viewBox="0 0 32 32"><path fill="currentColor" fill-rule="evenodd" d="M16 32C7.163 32 0 24.837 0 16S7.163 0 16 0s16 7.163 16 16s-7.163 16-16 16M6.145 11.954q.126 1.05.365 2.093q.037.165.1.3a4.53 4.53 0 0 0 8.47-.671c.11-.395.163-.817.18-1.353a6 6 0 0 1 3.169-5.178a26 26 0 0 0-2.015-.14a20.2 20.2 0 0 0-6.262.852A20 20 0 0 0 6 9.637q.003 1.137.145 2.317m16.613 8.56a20.15 20.15 0 0 0 3.164-9.215q.075-.854.078-1.664a20 20 0 0 0-1.356-.704c-.763-.357-1.389-.612-2.008-.807a4.47 4.47 0 0 0-2.437-.083a4.52 4.52 0 0 0-3.382 5.219q.367 1.958 2.074 3.04a7 7 0 0 0 .239.146a5.93 5.93 0 0 1 2.147 2.262a5.9 5.9 0 0 1 .729 2.89q.395-.53.752-1.084m-3.037 3.673a.6.6 0 0 0 .118-.162l.044-.087c.09-.177.128-.251.172-.343c.52-1.085.618-2.186.283-3.307a4.52 4.52 0 0 0-4.902-3.206a4.6 4.6 0 0 0-1.706.57a6.03 6.03 0 0 1-6.034-.013a20.4 20.4 0 0 0 4.063 6.031a20.4 20.4 0 0 0 3.225 2.691c.409.275.809.524 1.018.639a20.5 20.5 0 0 0 3.72-2.813z"/></symbol><symbol id="hd-icon-cryptocurrency-xin" viewBox="0 0 32 32"><path fill="currentColor" d="M16 32C7.163 32 0 24.837 0 16S7.163 0 16 0s16 7.163 16 16s-7.163 16-16 16M26.405 7.151l-3.63 1.61a.67.67 0 0 0-.35.59v12.98a.66.66 0 0 0 .36.59l3.63 1.57a.338.338 0 0 0 .5-.3V7.451a.35.35 0 0 0-.51-.3M9.02 8.741l-3.52-1.6a.338.338 0 0 0-.5.3v16.74a.341.341 0 0 0 .52.29l3.54-1.87a.67.67 0 0 0 .32-.57v-12.7a.7.7 0 0 0-.36-.59m11.04 4.43l-3.79-2.17a.67.67 0 0 0-.67 0l-3.86 2.15a.68.68 0 0 0-.34.59v4.4c0 .243.13.468.34.59l3.86 2.22c.207.12.463.12.67 0l3.79-2.2a.68.68 0 0 0 .34-.59v-4.4a.67.67 0 0 0-.34-.59"/></symbol><symbol id="hd-icon-cryptocurrency-xlm" viewBox="0 0 32 32"><path fill="currentColor" d="M16 32C7.163 32 0 24.837 0 16S7.163 0 16 0s16 7.163 16 16s-7.163 16-16 16m7.13-22.708l-2.4 1.224l-11.598 5.907A6.909 6.909 0 0 1 19.35 9.498l1.374-.7l.205-.105a8.439 8.439 0 0 0-13.371 7.472a1.535 1.535 0 0 1-.834 1.484l-.725.37v1.724l2.134-1.088l.691-.353l.681-.347l12.226-6.23l1.374-.699l2.84-1.447V7.856zm2.816 2.012L10.201 19.32l-1.374.7L6 21.463v1.723l2.808-1.43l2.401-1.224l11.61-5.916a6.909 6.909 0 0 1-10.229 6.93l-.085.045l-1.49.76a8.439 8.439 0 0 0 13.372-7.475a1.54 1.54 0 0 1 .833-1.483l.726-.37v-1.718z"/></symbol><symbol id="hd-icon-cryptocurrency-xmcc" viewBox="0 0 32 32"><path fill="currentColor" d="M16 32C7.163 32 0 24.837 0 16S7.163 0 16 0s16 7.163 16 16s-7.163 16-16 16m6.682-25h-5.16l-1.534 2.652L14.459 7H9.297L4 16.175l5.129 8.88l3.477-6.019L16 24.896l3.384-5.86l3.485 6.06L28 16.216zM9.122 21.544L6.02 16.178l2.467-4.272l3.1 5.37l-2.466 4.273v-.005zm.384-11.402l.818-1.421h3.091l1.555 2.693l-2.364 4.099zm6.48 11.232l-2.362-4.102l2.364-4.097L17.044 15l1.31 2.273l-2.366 4.097l-.002.005zm1.017-9.96l1.558-2.693h3.091l.828 1.42l-3.12 5.372zm7.968 6.537l-2.093 3.631l-2.488-4.32l3.1-5.359l.836 1.44l1.653 2.863z"/></symbol><symbol id="hd-icon-cryptocurrency-xmg" viewBox="0 0 32 32"><path fill="currentColor" fill-rule="evenodd" d="M16 32C7.163 32 0 24.837 0 16S7.163 0 16 0s16 7.163 16 16s-7.163 16-16 16m7-12.46l-.741-.226a8 8 0 0 1-.498 1.022a5.6 5.6 0 0 1-.615.873a2.9 2.9 0 0 1-.785.654q-.453.26-1 .26h-7.405l6.488-7.365v-.314l-5.249-6.54h3.503q.74 0 1.273.063q.531.064.834.211q.429.177.975.899q.547.721 1.327 2.175h.79L21.469 7H9.137v.992l6.653 8.376L9 24.087V25h12.517z"/></symbol><symbol id="hd-icon-cryptocurrency-xmo" viewBox="0 0 32 32"><path fill="currentColor" d="M16 32C7.163 32 0 24.837 0 16S7.163 0 16 0s16 7.163 16 16s-7.163 16-16 16m12-16a11.86 11.86 0 0 0-2.381-7.153l-1.96 1.96A9.27 9.27 0 0 1 25.253 16c0 5.11-4.153 9.262-9.262 9.262S6.728 21.109 6.728 16a9.2 9.2 0 0 1 1.594-5.194l-1.96-1.96A11.97 11.97 0 0 0 4 16c0 6.628 5.372 12 12 12s12-5.372 12-12m-5.363 0a6.65 6.65 0 0 0-.871-3.29L16 18.474l-5.766-5.766A6.64 6.64 0 0 0 9.363 16A6.644 6.644 0 0 0 16 22.637A6.644 6.644 0 0 0 22.637 16m1.21-9.075A11.93 11.93 0 0 0 16 4c-3 0-5.747 1.097-7.847 2.925l1.866 1.866L16 14.762z"/></symbol><symbol id="hd-icon-cryptocurrency-xmr" viewBox="0 0 32 32"><path fill="currentColor" fill-rule="evenodd" d="M16 32C7.163 32 0 24.837 0 16S7.163 0 16 0s16 7.163 16 16s-7.163 16-16 16m-.03-26.765A10.816 10.816 0 0 0 5.148 16.059c0 1.202.205 2.346.557 3.432h3.227v-9.094l7.04 7.04l7.04-7.04v9.094h3.226a11 11 0 0 0 .558-3.432c0-5.984-4.84-10.824-10.824-10.824zM14.358 19.02l-3.08-3.08v5.72H6.731c1.906 3.11 5.338 5.192 9.24 5.192c3.901 0 7.362-2.082 9.24-5.192h-4.547v-5.72l-3.05 3.08L16 20.635l-1.643-1.614z"/></symbol><symbol id="hd-icon-cryptocurrency-xmy" viewBox="0 0 32 32"><path fill="currentColor" d="M16 32C7.163 32 0 24.837 0 16S7.163 0 16 0s16 7.163 16 16s-7.163 16-16 16m5.05-11h4.567c.764 0 1.383-.642 1.383-1.433s-.619-1.433-1.39-1.433l-2.637.018q1.021-3.273 1.022-4.304c0-1.818-1.263-2.848-2.765-2.848c-1.623 0-2.766.848-3.427 1.576C17.323 11.485 16.24 11 15.4 11s-1.803.242-2.525 1.152q-.24-1.03-1.322-1.03h-5.14a1.425 1.425 0 0 0 .031 2.848h3.065l-1.382 5.757Q8.187 21 9.329 21q1.261 0 1.623-1.455q.66-2.665 1.022-4c.36-1.333 1.142-1.939 1.983-1.939s1.202.606 1.202 1.091q0 .485-.337 1.55q-.865 3.191-.865 3.48c0 .485.18 1.273 1.263 1.273q1.081 0 1.502-1.09q1.082-4.183 1.383-5.152c.3-.97 1.29-1.152 1.743-1.152c.781 0 1.202.546 1.202 1.091q0 .425-.214.96q-1.048 3.46-1.048 4.13c0 .91.661 1.213 1.262 1.213"/></symbol><symbol id="hd-icon-cryptocurrency-xp" viewBox="0 0 32 32"><path fill="currentColor" fill-rule="evenodd" d="M16.526 23h1.414l.977-4.923l2.306.01q2.415 0 3.973-1.236q1.56-1.236 1.779-3.293q.133-1.412-.434-2.455l-2.73 1.427q.03.166.035.335q.033 1.308-.615 2.083q-.648.774-1.822.793l-2.031-.02l.194-.975l-3.515 1.837l-.64 3.245l-.862-2.46l-2.645 1.383L12.992 23zm-1.315-10.99h1.75l-.532 2.693l3.516-1.838l.3-1.51l2.295.02q.105.006.208.026l2.8-1.464q-1.119-.879-2.866-.927L17.556 9h-2.215l-1.88 3.01zh-1.75l-1.051 1.779L11.18 9H7.7l2.372 6.827l-2.467 3.49l6.659-3.482l2.697-3.826zM16 32C7.163 32 0 24.837 0 16S7.163 0 16 0s16 7.163 16 16s-7.163 16-16 16M5.786 21.952l-.02-.037L5 23h3.765l2.348-3.833z"/></symbol><symbol id="hd-icon-cryptocurrency-xpa" viewBox="0 0 32 32"><path fill="currentColor" fill-rule="evenodd" d="M16 32C7.163 32 0 24.837 0 16S7.163 0 16 0s16 7.163 16 16s-7.163 16-16 16m9.575-19.154l-8.11-2.324l-2.774 4.725l-3.222-3.737l1.46-.188l1.505 1.768l1.67-2.959l-7.35-2.107a.586.586 0 0 0-.736.7L11.274 21.8l3.497-5.888l3.222 3.737l-1.46.188l-1.504-1.768l-3.31 5.517l.49 1.97a.59.59 0 0 0 .98.28l12.63-12.01a.58.58 0 0 0-.244-.98"/></symbol><symbol id="hd-icon-cryptocurrency-xpm" viewBox="0 0 32 32"><path fill="currentColor" fill-rule="evenodd" d="M16 32C7.163 32 0 24.837 0 16S7.163 0 16 0s16 7.163 16 16s-7.163 16-16 16m8-16.438V8h-3.455v7.475c0 3.313-2.854 3.153-2.854 3.153V8h-3.47v10.628s-2.766.029-2.766-3.11V8H8v7.24c0 6.015 5.284 6.234 6.207 6.234v1.168h-2.123v1.562h2.127V26h3.48v-1.796h2.224v-1.562h-2.224V21.49c2.883 0 6.309-1.504 6.309-5.927z"/></symbol><symbol id="hd-icon-cryptocurrency-xpr" viewBox="0 0 32 32"><path fill="currentColor" d="M16 0c8.837 0 16 7.163 16 16s-7.163 16-16 16S0 24.837 0 16S7.163 0 16 0m-.008 5c-1.974 0-3.56 3.076-4.096 7.56q-.037.306-.067.627l-.025.32q-.603.436-1.146.878l-.356.296q-.24.203-.468.41l-.223.21c-1.657-1.749-2.398-3.328-2.029-4.19l.048-.097c.398-.711 1.692-.936 3.52-.603l.252.049q.076-.35.16-.68l.087-.326c-2.288-.477-4.053-.19-4.792.918l-.08.132a2.1 2.1 0 0 0-.268.88l-.007.191v.037c.013 1.668 1.545 3.88 4.12 5.992l.28.226q.282.225.588.452l.307.226q.064.797.171 1.535l.076.484l.075.42l.08.41c-2.288.612-3.975.485-4.519-.273l-.057-.09c-.398-.712.062-1.99 1.25-3.459l.167-.201l-.684-.744c-1.562 1.826-2.22 3.563-1.657 4.783l.07.138c.452.81 1.397 1.219 2.67 1.264l.243.004c1.31 0 2.932-.362 4.713-1.068l.384-.156l.075-.033l.08-.033q.339-.145.68-.303l.343-.163l.021-.011l.021-.011q.69.328 1.368.603l.451.177l.39.144l.386.133c-.632 2.358-1.583 3.811-2.49 3.915l-.105.006c-.796 0-1.637-1.053-2.27-2.867l-.085-.252q-.324.116-.641.213l-.318.093C13.461 25.542 14.638 27 16 27c1.934 0 3.485-2.931 4.063-7.242l.04-.317l.05-.468l.042-.473q.627-.452 1.194-.923l.372-.316l.042-.034l.042-.039l.27-.241l.266-.247c1.664 1.74 2.405 3.326 2.036 4.19l-.048.096c-.369.66-1.544.903-3.166.666l-.246-.039l-.176-.033l-.177-.033q-.076.342-.159.668l-.087.324l.22.043l.217.037q.668.115 1.255.14l.289.006c1.334 0 2.305-.381 2.803-1.119l.088-.142c.594-1.062.205-2.586-1.101-4.302l-.176-.225c-.664-.836-1.506-1.678-2.478-2.49l-.37-.302l-.442-.345l-.453-.34a23 23 0 0 0-.175-1.539l-.08-.488l-.074-.42l-.08-.41q.401-.11.785-.19l.378-.073c1.665-.285 2.902-.087 3.351.53l.062.097c.39.697-.05 1.948-1.2 3.388l-.161.198q.246.248.467.494l.217.242l.132-.156l.121-.157c1.379-1.733 1.857-3.284 1.349-4.386l-.072-.14c-.596-1.065-2.069-1.477-4.163-1.166l-.265.042c-.907.154-1.89.435-2.91.816l-.44.169l-.07.029l-.07.029q-.396.16-.79.34l-.395.185l-.053.025l-.053.026a25 25 0 0 0-1.378-.617l-.448-.178l-.39-.144l-.385-.133c.631-2.351 1.583-3.804 2.49-3.908l.104-.006c.796 0 1.644 1.06 2.277 2.875l.085.252l.482-.159l.477-.147c-.767-2.268-1.887-3.71-3.19-3.814L15.991 5zm3.124 14.251q-.043.33-.087.65l-.047.312l-.079.44l-.084.428q-.38-.14-.782-.292l-.445-.177l-.45-.187l.063-.033l.063-.033l.435-.245l.44-.25l.126-.077l.12-.077l.366-.23l.36-.229zm-6.247-.007l.456.29l.467.286l.025.017l.025.012l.498.29l.503.278l-.004.001l-.003.007q-.352.152-.696.289l-.34.134l-.149.058l-.243.086l-.243.082a20 20 0 0 1-.254-1.49zm3.123-7.115q.61.305 1.237.666l.42.245l.354.215l.344.216q.31.195.604.395l.292.202q.047.698.059 1.44l.004.5l-.005.519l-.016.508l-.022.458l-.028.453q-.5.351-1.038.69l-.548.338l-.219.13l-.218.125q-.375.218-.745.413l-.37.192l-.052.026l-.053.025a27 27 0 0 1-1.657-.91l-.354-.213l-.344-.218a23 23 0 0 1-.604-.396l-.291-.202a28 28 0 0 1-.06-1.44l-.004-.499l.006-.52l.015-.508l.022-.46l.028-.45q.5-.351 1.039-.69l.547-.339l.321-.19l.32-.181l.508-.276zm0 2.566l-.13.007c-.637.067-1.139.629-1.139 1.305l.007.134c.065.66.608 1.178 1.262 1.178l.13-.006c.637-.068 1.14-.63 1.14-1.306l-.007-.133c-.066-.66-.608-1.179-1.263-1.179m4.28.139q.303.234.588.472l.28.235l.262.233l.252.233l-.28.255l-.291.256l-.043.036l-.042.036q-.233.199-.482.4l-.251.198c.014-.291.028-.59.028-.89v-.29q0-.401-.01-.787zm-8.553 0l-.016.442l-.005.447v.284q0 .4.01.787l.011.387a15 15 0 0 1-.867-.707l-.266-.233l-.256-.234q.232-.212.477-.428l.25-.213q.21-.177.434-.355zm7.108-3.893l.08.406l.075.418q.055.327.098.666l.043.34a40 40 0 0 0-.924-.583l-.025-.018l-.024-.012l-.5-.29l-.494-.278l.042-.021l.042-.016q.403-.175.8-.328l.392-.145l.2-.072zm-5.662 0q.26.086.524.181l.265.103q.29.11.588.236l.3.129l-.5.279l-.5.29l-.022.011l-.02.018l-.471.288l-.46.295a19 19 0 0 1 .237-1.55z"/></symbol><symbol id="hd-icon-cryptocurrency-xrp" viewBox="0 0 32 32"><path fill="currentColor" d="M16 32C7.163 32 0 24.837 0 16S7.163 0 16 0s16 7.163 16 16s-7.163 16-16 16m7.07-24l-4.574 4.523a3.556 3.556 0 0 1-4.996 0L8.93 8H6.035l6.02 5.957a5.62 5.62 0 0 0 7.89 0L25.961 8zM8.895 24.563L13.504 20a3.556 3.556 0 0 1 4.996 0l4.605 4.563H26l-6.055-5.993a5.62 5.62 0 0 0-7.89 0L6 24.562z"/></symbol><symbol id="hd-icon-cryptocurrency-xsg" viewBox="0 0 32 32"><path fill="currentColor" d="M16 32C7.163 32 0 24.837 0 16S7.163 0 16 0s16 7.163 16 16s-7.163 16-16 16m.14-26.145l8.169 4.705l2.457-1.428L16.14 3zm8.332 14.417l2.481 1.428V9.436l-2.48 1.428v9.408zm-8.332 5.009v2.855l10.626-6.132l-2.457-1.427zM5.164 22.004l10.625 6.132v-2.855l-8.144-4.704zM5 9.436V21.7l2.457-1.428v-9.408zm.164-.304l2.48 1.428l8.145-4.705V3zm10.824-3.008L7.797 10.83v9.455l8.191 4.728l8.168-4.728V10.83l-8.168-4.705zm6.577 8.45l-.351.608l-2.34-1.31l-2.996 1.684l2.995 1.685l2.34-1.31l.352.608l-1.966 1.1l1.966 1.1l-.351.609l-1.966-1.1v2.2h-.726V17.85l-2.995-1.685v3.37l2.317 1.287l-.351.597l-1.966-1.1v2.2H15.8v-2.2l-1.966 1.1l-.374-.608l2.34-1.288v-3.358l-2.996 1.685v2.598h-.749v-2.2l-1.942 1.1l-.375-.609l1.966-1.1l-1.966-1.1l.375-.608l2.317 1.31l3.019-1.685l-3.02-1.685l-2.316 1.31l-.375-.608l1.966-1.1l-1.966-1.1l.375-.608l1.942 1.1v-2.212h.75v2.598l2.995 1.685v-3.358l-2.317-1.288l.351-.608l1.966 1.1v-2.2h.726v2.2l1.966-1.1l.35.608l-2.316 1.288v3.37l2.995-1.685v-2.61h.726v2.2l1.966-1.1l.35.609l-1.965 1.1l1.966 1.111z"/></symbol><symbol id="hd-icon-cryptocurrency-xtz" viewBox="0 0 32 32"><path fill="currentColor" fill-rule="evenodd" d="M16 32C7.163 32 0 24.837 0 16S7.163 0 16 0s16 7.163 16 16s-7.163 16-16 16m2.19-6q1.49 0 2.771-.619a4.04 4.04 0 0 0 1.91-1.878a6 6 0 0 0 .629-2.726a7 7 0 0 0-.175-1.466q-.162-.825-.734-1.719q-.57-.905-1.63-1.42q-1.049-.527-1.887-.527a3.5 3.5 0 0 0-.978.229l5.171-5.086l-.839-.825l-8.431.023V6.412L13.182 6h-2.166v.595l.745.734v2.657H8.5v1.169h3.26v6.277q0 1.375.793 2.176q.792.802 2.865.802q.838 0 1.537-.458q.698-.458 1.095-1.329a3 3 0 0 0 .058-.32a.62.62 0 0 0-.163-.425q-.175-.125-.303-.125a.24.24 0 0 0-.151.057a.34.34 0 0 0-.117.149a3.8 3.8 0 0 1-.885.893q-.512.367-1.071.367q-.723 0-1.072-.504t-.35-1.283v-6.277h6.383l-4.612 6.048v.504l1.025-.504q.84-.459 1.397-.458a3 3 0 0 1 1.584.446q.734.447 1.107 1.375q.384.916.384 2.21q0 1.192-.35 2.131q-.348.94-1.082 1.42a2.93 2.93 0 0 1-1.643.482q-.652 0-1.304-.184q-.652-.171-.955-.584q.35-.103.606-.435q.256-.333.256-.86q0-.435-.175-.732a1.27 1.27 0 0 0-.477-.47a1.5 1.5 0 0 0-.746-.172q-.442 0-.745.172a1.27 1.27 0 0 0-.477.47q-.175.298-.175.733q0 1.191 1.001 2.222Q16 25.999 18.189 26z"/></symbol><symbol id="hd-icon-cryptocurrency-xuc" viewBox="0 0 32 32"><path fill="currentColor" d="M16 32C7.163 32 0 24.837 0 16S7.163 0 16 0s16 7.163 16 16s-7.163 16-16 16m11-16c0-6.075-4.925-11-11-11S5 9.924 5 16s4.925 11 11 11s11-4.925 11-11m-3.77.346l-12.318.017a5.094 5.094 0 0 0 5.077 4.726a5.08 5.08 0 0 0 4.48-2.686h2.322a7.23 7.23 0 0 1-5.44 4.681v1.446l-2.24.698V23.16c-3.574-.435-6.345-3.474-6.345-7.165c0-3.605 2.647-6.587 6.103-7.125V7.467l2.239-.697v2.1c3.457.538 6.122 3.742 6.122 7.35c0 .126.007 0 0 .126M11.25 14.13h9.477a5.095 5.095 0 0 0-4.738-3.229a5.09 5.09 0 0 0-4.738 3.23z"/></symbol><symbol id="hd-icon-cryptocurrency-xvc" viewBox="0 0 32 32"><path fill="currentColor" fill-rule="evenodd" d="M16 32C7.163 32 0 24.837 0 16S7.163 0 16 0s16 7.163 16 16s-7.163 16-16 16m-5.882-21.257V24h4.74L26 8h-4.286l-7.916 10.717V8H9.664L8 10.743z"/></symbol><symbol id="hd-icon-cryptocurrency-xvg" viewBox="0 0 32 32"><path fill="currentColor" d="M9.61 10.335H8L15.951 27L24 10.335h-1.59l-6.36 13.33l-6.438-13.33zM16 32C7.163 32 0 24.837 0 16S7.163 0 16 0s16 7.163 16 16s-7.163 16-16 16M9.61 10.335h12.798L24 7H8z"/></symbol><symbol id="hd-icon-cryptocurrency-xzc" viewBox="0 0 32 32"><path fill="currentColor" fill-rule="evenodd" d="M16 32C7.163 32 0 24.837 0 16S7.163 0 16 0s16 7.163 16 16s-7.163 16-16 16m2.725-12.852h3.39v2.964H11.93L24.573 9.46a1.47 1.47 0 0 0 .32-1.574A1.45 1.45 0 0 0 23.55 7H8.45A1.44 1.44 0 0 0 7 8.452v10.696l6.275-6.28h-3.39v-2.98h10.168L7.427 22.54a1.47 1.47 0 0 0-.32 1.574c.229.535.748.886 1.343.886h15.1A1.45 1.45 0 0 0 25 23.548v-10.68z"/></symbol><symbol id="hd-icon-cryptocurrency-yfi" viewBox="0 0 32 32"><path fill="currentColor" d="M16 0c8.837 0 16 7.163 16 16s-7.163 16-16 16S0 24.837 0 16S7.163 0 16 0m1.342 16.075l-.157 1.67c1.957 1.558 2.221 2.715 1.921 4.258c-.679 2.39-2.751 2.64-3.633 2.488c-1.01-.185-1.434-.237-2.306-1.261a3.44 3.44 0 0 1-.291-3.813l.012-.02l.442 2.1l1.27-.252l-.83-4.424l-4.27 1.012l.342 1.379l1.749-.34l-.017.041c-.075.184-.38.958-.471 1.562c-.588 3.688 2.533 5.358 3.83 5.446c2.573.188 4.067-.924 4.843-2.103c1.44-2.36.721-4.106.303-4.994c-.546-1.118-2.737-2.749-2.737-2.749m-.76-6.32h-1.373V22.36h1.373V9.754zm-.03-3.746c-2.58-.121-4.043 1.03-4.785 2.23c-1.38 2.4-.615 4.124-.17 4.997c.576 1.103 2.81 2.676 2.81 2.676l.111-1.673c-2-1.503-2.294-2.651-2.033-4.203c.615-2.409 2.679-2.709 3.567-2.582c1.009.158 1.436.2 2.336 1.2a3.44 3.44 0 0 1 .393 3.804l-.011.02l-.497-2.084l-1.26.284l.945 4.4l4.239-1.124l-.379-1.372l-1.74.387s.361-.924.446-1.618c.491-3.703-2.676-5.288-3.972-5.342"/></symbol><symbol id="hd-icon-cryptocurrency-yoyow" viewBox="0 0 32 32"><path fill="currentColor" d="M21.49 16.575A.743.743 0 0 0 22.687 16a.72.72 0 0 0-.157-.45c.369.334.86.538 1.4.538c1.144 0 2.071-.915 2.071-2.044S25.073 12 23.929 12s-2.071.915-2.071 2.044c0 .532.206 1.017.545 1.381a.743.743 0 0 0-1.196.575c0 .17.059.326.157.45a2.08 2.08 0 0 0-1.4-.538c-.54 0-1.03.204-1.4.538a.72.72 0 0 0 .158-.45a.743.743 0 1 0-1.196-.575a2.02 2.02 0 0 0 .545-1.381C18.071 12.915 17.144 12 16 12s-2.071.915-2.071 2.044c0 .532.206 1.017.545 1.381a.743.743 0 0 0-1.196.575c0 .17.059.326.157.45a2.08 2.08 0 0 0-1.4-.538c-.54 0-1.03.204-1.4.538a.72.72 0 0 0 .158-.45a.743.743 0 1 0-1.196-.575a2.02 2.02 0 0 0 .545-1.381c0-1.129-.927-2.044-2.071-2.044S6 12.915 6 14.044s.927 2.044 2.071 2.044c.54 0 1.031-.204 1.4-.538a.72.72 0 0 0-.157.45c0 .403.33.73.74.73c.171 0 .33-.058.455-.155a2.02 2.02 0 0 0-.545 1.381c0 1.129.928 2.044 2.072 2.044c1.143 0 2.07-.915 2.07-2.044c0-.532-.206-1.017-.544-1.381A.743.743 0 0 0 14.757 16a.72.72 0 0 0-.157-.45c.369.334.86.538 1.4.538s1.031-.204 1.4-.538a.72.72 0 0 0-.157.45c0 .403.33.73.74.73c.171 0 .33-.058.455-.155a2.02 2.02 0 0 0-.545 1.381c0 1.129.928 2.044 2.071 2.044s2.072-.915 2.072-2.044c0-.532-.207-1.017-.545-1.381zM16 32C7.163 32 0 24.837 0 16S7.163 0 16 0s16 7.163 16 16s-7.163 16-16 16"/></symbol><symbol id="hd-icon-cryptocurrency-zcl" viewBox="0 0 32 32"><path fill="currentColor" fill-rule="evenodd" d="M16 32C7.163 32 0 24.837 0 16S7.163 0 16 0s16 7.163 16 16s-7.163 16-16 16m-.008-5c6.172-.008 10.996-4.996 11.008-10.998C27.008 9.934 22.08 5.004 16.015 5C9.932 4.996 5 9.915 5 15.986C5 22.07 9.917 26.996 15.992 27m-4.483-5.97q5.578.003 11.151-.008c-1.933 2.698-6.056 4.313-9.988 2.558c-4.06-1.81-5.68-6.328-4.534-9.93h.136q3.39-.002 6.784.003a.2.2 0 0 0 .202-.116c.434-.777.876-1.55 1.313-2.326c.031-.05.059-.104.097-.178H9.49c-.003-.012-.011-.02-.015-.031c.159-.187.31-.38.477-.56c1.27-1.374 2.82-2.243 4.66-2.57c1.85-.325 3.612-.054 5.286.8a7.7 7.7 0 0 1 1.84 1.297c1.217 1.165 2.042 2.558 2.418 4.208a8.3 8.3 0 0 1-.105 4.127c-.019.074-.046.105-.131.105q-3.774-.004-7.552-.004c-.027 0-.054 0-.105-.004c1.395-2.457 2.779-4.9 4.173-7.36h-.143q-1.506.001-3.014-.004a.15.15 0 0 0-.151.089q-1.289 2.28-2.585 4.558q-1.48 2.598-2.956 5.202q-.033.056-.078.143zm12.643 1.898l-1.441-1.468c2.642-3.269 2.534-7.822-.027-10.9c.488-.494.98-.987 1.484-1.495c1.615 1.96 2.48 4.177 2.541 6.7c.078 3.063-1.162 5.614-2.557 7.163"/></symbol><symbol id="hd-icon-cryptocurrency-zec" viewBox="0 0 32 32"><path fill="currentColor" fill-rule="evenodd" d="M16 32C7.163 32 0 24.837 0 16S7.163 0 16 0s16 7.163 16 16s-7.163 16-16 16m-.904-12.154a37 37 0 0 0 1.518-1.778a462 462 0 0 0 3.714-4.58c.387-.48.968-.958 1.065-1.505c.194-1.026.065-2.12.065-3.248H17.55V6h-3.132v2.803h-3.585v3.35h6.039c-.55.65-1.033 1.197-1.518 1.779a462 462 0 0 0-3.714 4.58c-.355.48-.936.958-1.033 1.505c-.194 1.026-.065 2.12-.065 3.214h3.876V26h3.261c-.064-.957-.097-1.846-.161-2.803h3.875v-3.35z"/></symbol><symbol id="hd-icon-cryptocurrency-zel" viewBox="0 0 32 32"><path fill="currentColor" d="M16 32C7.163 32 0 24.837 0 16S7.163 0 16 0s16 7.163 16 16s-7.163 16-16 16M5 15.615v4.847L9.495 23l4.494-2.538v-4.847l-4.494-2.538zm13.01 0v4.847L22.506 23L27 20.462v-4.847l-4.495-2.538zm-.472 4.21v-4.594l4.021-2.271v-1.73L15.961 8l-5.599 3.23v1.685l4.1 2.316v4.638l1.499.823l1.577-.866z"/></symbol><symbol id="hd-icon-cryptocurrency-zen" viewBox="0 0 32 32"><path fill="currentColor" d="M16 0c8.837 0 16 7.163 16 16s-7.163 16-16 16S0 24.837 0 16S7.163 0 16 0m8.8 9.568l-1.78 2.77a7.84 7.84 0 0 1 .856 3.595c0 4.4-3.56 7.943-7.943 7.943a7.76 7.76 0 0 1-3.577-.856l-2.788 1.797c1.797 1.276 3.98 2.049 6.348 2.049c6.029 0 10.933-4.887 10.933-10.933a10.8 10.8 0 0 0-1.838-6.062zM15.933 5A10.923 10.923 0 0 0 5 15.933c0 2.435.79 4.669 2.133 6.482q.78-1.41 1.864-2.57s1.075-1.124 1.898-1.695a13.04 13.04 0 0 1 7.725-2.52c.798 0 1.572.07 2.333.21l.455.093a5.494 5.494 0 0 0-5.492-5.492a5.48 5.48 0 0 0-5.452 5.983l.028.248c-1.377 1.058-2.032 1.88-2.066 1.914a8 8 0 0 1-.453-2.636c0-4.4 3.56-7.944 7.943-7.944c1.293 0 2.502.302 3.577.857l2.771-1.797A10.66 10.66 0 0 0 15.933 5m2.754 11.621c-2.72 0-5.256.874-7.305 2.352a5.46 5.46 0 0 0 4.55 2.418a5.48 5.48 0 0 0 5.392-4.484a12.4 12.4 0 0 0-2.637-.286"/></symbol><symbol id="hd-icon-cryptocurrency-zest" viewBox="0 0 32 32"><path fill="currentColor" d="M16 32C7.163 32 0 24.837 0 16S7.163 0 16 0s16 7.163 16 16s-7.163 16-16 16m2.266-23.363a1.82 1.82 0 0 0-1.266.16c-.847.385-1.738.665-2.653.835a9 9 0 0 0-1.193.37a7 7 0 0 1-1.014.463c-.872.123-2.482-.947-2.33.71c0 .304.312.465.217.853c-.094.389-.511.73-.71 1.033a9.3 9.3 0 0 0-.948 2.188a7.58 7.58 0 0 0 .294 5.277c.35.82.817 1.586 1.383 2.274q.415.486.73 1.042q.24.659.597 1.26a1.78 1.78 0 0 0 1.752.635a5 5 0 0 0 .948-.445a6.5 6.5 0 0 1 1.591-.408a8.53 8.53 0 0 0 5.125-2.842a8.2 8.2 0 0 0 1.431-2.539a8.5 8.5 0 0 0 .407-1.591c.048-.341-.056-1.204.19-1.43c.16-.153.54-.19.654-.333a3 3 0 0 0 .198-.587c.18-.559-.871-1.004-1.278-1.194c-.531-.322-.72-1.27-1.052-1.79c-.455-.73-1.118-1.326-1.516-2.084s-.445-1.336-1.127-1.696a2 2 0 0 0-.266-.114c-.17-.407.578-.568.806-.54c.407.12.78.334 1.09.625c.596.446 1.77 1.763 2.633 1.45c.862-.313-.161-1.838-.635-2.236a3.42 3.42 0 0 0-2.937-.88c-.478.143-.87.49-1.07.946c-.045.167-.187.471-.05.588zm5.63-1.942c-.568-.142-1.894-.123-2.301.436c.407.227.691.577 1.108.587s.9-.389 1.43-.161c-.227 0-1.25.19-1.316.502q.216.354.511.644c.266.218.294.294.692.076a2.53 2.53 0 0 0 1.042-1.317c0-.284.085-.095-.123-.331a2.3 2.3 0 0 0-1.042-.436zm-5.342.502a3.53 3.53 0 0 1 2.51-.313a3.6 3.6 0 0 0-1.193-2.368c.82.51 1.397 1.33 1.6 2.273c.465-.075.948-.255 1.393-.322a3.85 3.85 0 0 0-1.127-2.396C21.424 3.777 20.543 3 20.04 3s-1.156 1.137-1.345 1.601a4.15 4.15 0 0 0-.142 2.596zm4.557 8.526c-.143.322-.702.512-.948.853a5.8 5.8 0 0 1-1.392 1.667a2.76 2.76 0 0 1-3.44-.739a2.94 2.94 0 0 1-.644-1.847c0-.521.569-1.829 0-2.113c-.568-.284-.833.635-1.051.948a3.35 3.35 0 0 1-1.649 1.392a3.12 3.12 0 0 1-3.135-.682a3.17 3.17 0 0 1-.446-2.728a6 6 0 0 0-.123-1.393c0-.682.597-.436 1.08-.341a8.5 8.5 0 0 1 3.335 1.374a7.03 7.03 0 0 0 3.268 1.515q1.209.114 2.388.408c.388.114.748.303 1.127.436q.602.195 1.156.502c.256.113.625.34.483.71l-.01.038z"/></symbol><symbol id="hd-icon-cryptocurrency-zil" viewBox="0 0 32 32"><path fill="currentColor" d="M16 32C7.163 32 0 24.837 0 16S7.163 0 16 0s16 7.163 16 16s-7.163 16-16 16M11.89 6L9 7.284v2.897l7.693 3.737L9 17.728v2.856l11.114 5.351l2.845-1.281v-8.951l-2.845 1.295v6.085l-7.548-3.67l7.548-3.897l2.845-1.281l-.013-2.86z"/><path fill="currentColor" fill-opacity=".65" d="m9 7.281l11.114 5.383l2.845-1.282L11.891 6z"/><path fill="currentColor" fill-opacity=".3" d="m20.114 12.651l2.845-1.281v2.865l-2.845 1.281zm0 13.284v-8.937l2.845-1.295v8.951z"/></symbol><symbol id="hd-icon-cryptocurrency-zilla" viewBox="0 0 32 32"><path fill="currentColor" d="M16 32C7.163 32 0 24.837 0 16S7.163 0 16 0s16 7.163 16 16s-7.163 16-16 16m-.495-25.726c-.092.39-.368 1.62-.494 2.444c-.05.338-.26.789.326 1.032c-.134.026-.175.043-.217.034c-.418-.052-.845-.112-1.263-.164c-.092-.009-.209-.026-.293.017c-.56.295-.81.997-.527 1.595c.16.338.21.65.143 1.006a.5.5 0 0 0 .05.268c.326.798.385 1.595.125 2.427c-.042.13-.016.287-.008.425c.017.269.033.538.058.806c-.41-.329-.86-.624-1.204-1.023a2 2 0 0 1-.468-1.464c.008-.104-.075-.226-.142-.321c-.193-.286-.418-.546-.577-.85c-.226-.433-.502-.615-.954-.476c-.225.069-.435.216-.627.364c-.167.12-.31.277-.46.416c-.017-.018-.042-.035-.058-.052c.025-.061.033-.13.067-.191c.234-.433.225-.425-.1-.789c-.628-.702-1.172-1.456-1.406-2.41c-.117-.476-.26-.945-.384-1.413c-.628.78-.711 3.59-.092 4.699c-.193-.98-.385-1.907-.168-2.861c.042.217.067.425.076.642c.033.771.217 1.5.543 2.184c.067.147.26.234.402.338c.05.035.117.052.175.078c-.008.035-.008.07-.017.095c-.309-.017-.61-.052-.92-.06c-.2-.009-.434-.061-.593.026c-.21.112-.377.33-.494.546c-.033.06.134.303.26.399c.334.251.56.528.51.996c-.009.113.117.313.226.356c.3.113.384.338.434.624c.034.182.059.416.176.52c.376.347.493.763.502 1.266c.008.32.175.65.134.962c-.034.269.016.468.125.624h-.008l.025.026c.067.104.159.19.267.269l.218.208s.376.407.384.806s-.025.45.092.806c.118.347.276.624.327.919s-.059.381.117.572c.175.19.368.32.568.538c.193.225.469.303.653.494c.184.19.476.546.702.771c.117.122.276.217.393.286c.034.035.05.052.042.07c-.159.346.167.338.293.45c.217.191.527.312.685.546c.285.425.653.642 1.113.772c.042.009.092.017.108.043c.059.07.1.156.151.234c-.017.026-.042.052-.059.078c.46.165.92.338 1.38.494c.092.035.21.035.293.01c.385-.13.77-.27 1.154-.408c.075-.026.192-.104.184-.139c-.058-.277.167-.234.293-.303c.3-.165.652-.286.878-.52c.276-.295.527-.599.895-.798c.15-.087.451-.121.3-.45c-.008-.018.076-.087.118-.13c.058-.053.125-.096.209-.165c.058-.026.125-.07.234-.148a8 8 0 0 0 .945-.919c.2-.251.527-.563.527-.563s-.21-.494-.075-.928l.71-.528c.151-.321.193-.443.36-.772c.159-.33.2-.962.427-1.214c.2-.216.443-.39.434-.528a1 1 0 0 0 .05-.46c-.024-.225.05-.46.076-.685c.017-.19 0-.381.05-.563c.084-.295.142-.641.326-.85c.2-.225.335-.424.36-.728c.025-.26.125-.468.385-.59c.125-.06.25-.268.25-.407c-.008-.39.117-.667.435-.875c.092-.06.16-.165.251-.234c.15-.113.126-.243.042-.39c-.217-.39-.544-.529-.978-.45c-.327.06-.82.094-.996.094c-.175 0-.05-.13-.05-.13c.619-.017.694-.528.836-.944c.118-.347.184-.711.243-1.075c.059-.347.059-.512.125-1.05c.067-.537.226 1.041-.025 2.333c.502-.763.343-3.529-.217-4.343c-.017.017-.034.026-.034.043c-.025.104-.041.208-.066.312c-.243 1.326-.745 2.514-1.673 3.485c-.343.355-.326.364-.092.823c.025.044.025.104.033.165c-.2-.095-.35-.234-.501-.364a1.36 1.36 0 0 0-.996-.381c-.4 0-.51.294-.627.58c-.217.52-.727.841-.744 1.535c-.025 1.014-.928 1.525-1.514 2.201c-.008.01-.033-.008-.067-.008c-.008-.035-.033-.078-.025-.113c0-.624.168-1.257-.108-1.855c-.017-.035-.009-.087 0-.121c.108-.876.209-1.743.326-2.61c.016-.112.075-.216.125-.32c.293-.624.075-1.335-.518-1.647a.43.43 0 0 0-.234-.035c-.327.043-.644.104-.962.147c-.16.026-.326.026-.485.035q-.013-.041-.025-.07c.267-.086.401-.25.343-.545l-.603-3c-.016-.078-.033-.468.059-.268c.092.208.385 1.1.552 1.664c.159.546.284 1.11.426 1.664c-.234-1.551-.593-3.06-1.48-4.438a3.7 3.7 0 0 0-.56.98a44 44 0 0 0-.602 1.907c-.142.494-.51 1.465-.351 1.49c.158.027.936-2.886.986-3.094s.143-.2.05.19z"/></symbol><symbol id="hd-icon-cryptocurrency-zrx" viewBox="0 0 32 32"><path fill="currentColor" d="M16 32C7.163 32 0 24.837 0 16S7.163 0 16 0s16 7.163 16 16s-7.163 16-16 16m-.504-5h1.025q.066-.015.134-.026c.339-.037.68-.057 1.017-.11c2.67-.428 4.886-1.676 6.67-3.702c.07-.08.078-.132.011-.22q-1.154-1.53-2.303-3.063c-.024-.032-.053-.06-.084-.097l-.107.158a7.15 7.15 0 0 1-2.728 2.39c-.105.054-.17.055-.26-.035c-.363-.368-.736-.725-1.105-1.087l-.665-.647c-2.208 1.65-4.404 3.29-6.61 4.94c.037.025.054.04.073.05a10.9 10.9 0 0 0 4.122 1.364c.27.032.54.057.81.085m.97-22h-.943q-.072.015-.146.026c-.435.051-.875.077-1.304.155c-2.234.405-4.16 1.412-5.783 2.995c-.25.243-.48.506-.728.77l2.467 3.287l.102-.15A7.15 7.15 0 0 1 12.9 9.66c.093-.047.15-.039.225.035q.705.695 1.415 1.383q.127.123.26.247c2.244-1.61 4.476-3.21 6.718-4.82c-.033-.023-.05-.037-.07-.048a10.9 10.9 0 0 0-4.422-1.4L16.464 5zM6.458 10.534c-1.335 2.42-1.776 4.958-1.232 7.644c.508 2.51 1.774 4.578 3.724 6.257l3.26-2.446c-.017-.034-.02-.044-.026-.049l-.103-.07A7.13 7.13 0 0 1 9.66 19.1c-.044-.087-.041-.142.031-.214c.256-.253.505-.513.756-.77l1.008-1.034l-4.995-6.548zm14.175 4.37l4.923 6.503c1.224-2.056 1.854-4.976 1.147-7.928c-.566-2.365-1.799-4.324-3.656-5.915l-3.279 2.46c.063.045.099.072.136.097a7.14 7.14 0 0 1 2.45 2.798c.048.096.05.157-.032.238c-.263.26-.515.528-.771.794z"/></symbol></svg>