<svg xmlns="http://www.w3.org/2000/svg" xmlns:xlink="http://www.w3.org/1999/xlink"><symbol id="hd-icon-material-symbols-magnification-large-outline-rounded" viewBox="0 0 24 24"><path fill="currentColor" d="M6 15h10q.425 0 .713-.288T17 14V8q0-.425-.288-.712T16 7H6q-.425 0-.712.288T5 8v6q0 .425.288.713T6 15m-2 5q-.825 0-1.412-.587T2 18V6q0-.825.588-1.412T4 4h16q.825 0 1.413.588T22 6v12q0 .825-.587 1.413T20 20zm0-2h16V6H4zm0 0V6z"/></symbol><symbol id="hd-icon-material-symbols-magnification-large-outline-sharp" viewBox="0 0 24 24"><path fill="currentColor" d="M5 15h12V7H5zm-3 5V4h20v16zm2-2h16V6H4zm0 0V6z"/></symbol><symbol id="hd-icon-material-symbols-magnification-large-rounded" viewBox="0 0 24 24"><path fill="currentColor" d="M6 15h10q.425 0 .713-.288T17 14V8q0-.425-.288-.712T16 7H6q-.425 0-.712.288T5 8v6q0 .425.288.713T6 15m-2 5q-.825 0-1.412-.587T2 18V6q0-.825.588-1.412T4 4h16q.825 0 1.413.588T22 6v12q0 .825-.587 1.413T20 20z"/></symbol><symbol id="hd-icon-material-symbols-magnification-large-sharp" viewBox="0 0 24 24"><path fill="currentColor" d="M5 15h12V7H5zm-3 5V4h20v16z"/></symbol><symbol id="hd-icon-material-symbols-magnification-small" viewBox="0 0 24 24"><path fill="currentColor" d="M5 11h4V7H5zm-1 9q-.825 0-1.412-.587T2 18V6q0-.825.588-1.412T4 4h16q.825 0 1.413.588T22 6v12q0 .825-.587 1.413T20 20z"/></symbol><symbol id="hd-icon-material-symbols-magnification-small-outline" viewBox="0 0 24 24"><path fill="currentColor" d="M5 11h4V7H5zm-1 9q-.825 0-1.412-.587T2 18V6q0-.825.588-1.412T4 4h16q.825 0 1.413.588T22 6v12q0 .825-.587 1.413T20 20zm0-2h16V6H4zm0 0V6z"/></symbol><symbol id="hd-icon-material-symbols-magnification-small-outline-rounded" viewBox="0 0 24 24"><path fill="currentColor" d="M4 20q-.825 0-1.412-.587T2 18V6q0-.825.588-1.412T4 4h16q.825 0 1.413.588T22 6v12q0 .825-.587 1.413T20 20zm0-2h16V6H4zm0 0V6zm3-7q.825 0 1.413-.587T9 9t-.587-1.412T7 7t-1.412.588T5 9t.588 1.413T7 11"/></symbol><symbol id="hd-icon-material-symbols-magnification-small-outline-sharp" viewBox="0 0 24 24"><path fill="currentColor" d="M5 11h4V7H5zm-3 9V4h20v16zm2-2h16V6H4zm0 0V6z"/></symbol><symbol id="hd-icon-material-symbols-magnification-small-rounded" viewBox="0 0 24 24"><path fill="currentColor" d="M4 20q-.825 0-1.412-.587T2 18V6q0-.825.588-1.412T4 4h16q.825 0 1.413.588T22 6v12q0 .825-.587 1.413T20 20zm3-9q.825 0 1.413-.587T9 9t-.587-1.412T7 7t-1.412.588T5 9t.588 1.413T7 11"/></symbol><symbol id="hd-icon-material-symbols-magnification-small-sharp" viewBox="0 0 24 24"><path fill="currentColor" d="M5 11h4V7H5zm-3 9V4h20v16z"/></symbol><symbol id="hd-icon-material-symbols-magnify-docked" viewBox="0 0 24 24"><path fill="currentColor" d="M4 20q-.825 0-1.412-.587T2 18V6q0-.825.588-1.412T4 4h16q.825 0 1.413.588T22 6v12q0 .825-.587 1.413T20 20zm10-6.5h2v-2h2v-2h-2v-2h-2v2h-2v2h2zM4 15h16V6H4z"/></symbol><symbol id="hd-icon-material-symbols-magnify-docked-outline" viewBox="0 0 24 24"><path fill="currentColor" d="M4 20q-.825 0-1.412-.587T2 18V6q0-.825.588-1.412T4 4h16q.825 0 1.413.588T22 6v12q0 .825-.587 1.413T20 20zm0-3v1h16v-1zm0 0v1zm0-2h16V6H4zm10-1.5h2v-2h2v-2h-2v-2h-2v2h-2v2h2z"/></symbol><symbol id="hd-icon-material-symbols-magnify-docked-outline-rounded" viewBox="0 0 24 24"><path fill="currentColor" d="M4 20q-.825 0-1.412-.587T2 18V6q0-.825.588-1.412T4 4h16q.825 0 1.413.588T22 6v12q0 .825-.587 1.413T20 20zm0-3v1h16v-1zm0 0v1zm10-5.5v1q0 .425.288.713T15 13.5t.713-.288T16 12.5v-1h1q.425 0 .713-.288T18 10.5t-.288-.712T17 9.5h-1v-1q0-.425-.288-.712T15 7.5t-.712.288T14 8.5v1h-1q-.425 0-.712.288T12 10.5t.288.713t.712.287zM4 15h16V6H4z"/></symbol><symbol id="hd-icon-material-symbols-magnify-docked-outline-sharp" viewBox="0 0 24 24"><path fill="currentColor" d="M2 20V4h20v16zm2-3v1h16v-1zm0-2h16V6H4zm10-1.5h2v-2h2v-2h-2v-2h-2v2h-2v2h2zM4 17v1z"/></symbol><symbol id="hd-icon-material-symbols-magnify-docked-rounded" viewBox="0 0 24 24"><path fill="currentColor" d="M4 20q-.825 0-1.412-.587T2 18V6q0-.825.588-1.412T4 4h16q.825 0 1.413.588T22 6v12q0 .825-.587 1.413T20 20zm10-8.5v1q0 .425.288.713T15 13.5t.713-.288T16 12.5v-1h1q.425 0 .713-.288T18 10.5t-.288-.712T17 9.5h-1v-1q0-.425-.288-.712T15 7.5t-.712.288T14 8.5v1h-1q-.425 0-.712.288T12 10.5t.288.713t.712.287zM4 15h16V6H4z"/></symbol><symbol id="hd-icon-material-symbols-magnify-docked-sharp" viewBox="0 0 24 24"><path fill="currentColor" d="M2 20V4h20v16zm2-5h16V6H4zm10-1.5h2v-2h2v-2h-2v-2h-2v2h-2v2h2z"/></symbol><symbol id="hd-icon-material-symbols-magnify-fullscreen" viewBox="0 0 24 24"><path fill="currentColor" d="M4 20q-.825 0-1.412-.587T2 18V6q0-.825.588-1.412T4 4h16q.825 0 1.413.588T22 6v12q0 .825-.587 1.413T20 20zm10-6h2v-2h2v-2h-2V8h-2v2h-2v2h2z"/></symbol><symbol id="hd-icon-material-symbols-magnify-fullscreen-outline" viewBox="0 0 24 24"><path fill="currentColor" d="M14 14h2v-2h2v-2h-2V8h-2v2h-2v2h2zM4 20q-.825 0-1.412-.587T2 18V6q0-.825.588-1.412T4 4h16q.825 0 1.413.588T22 6v12q0 .825-.587 1.413T20 20zm0-2h16V6H4zm0 0V6z"/></symbol><symbol id="hd-icon-material-symbols-magnify-fullscreen-outline-rounded" viewBox="0 0 24 24"><path fill="currentColor" d="M4 20q-.825 0-1.412-.587T2 18V6q0-.825.588-1.412T4 4h16q.825 0 1.413.588T22 6v12q0 .825-.587 1.413T20 20zm0-2h16V6H4zm0 0V6zm10-6v1q0 .425.288.713T15 14t.713-.288T16 13v-1h1q.425 0 .713-.288T18 11t-.288-.712T17 10h-1V9q0-.425-.288-.712T15 8t-.712.288T14 9v1h-1q-.425 0-.712.288T12 11t.288.713T13 12z"/></symbol><symbol id="hd-icon-material-symbols-magnify-fullscreen-outline-sharp" viewBox="0 0 24 24"><path fill="currentColor" d="M2 20V4h20v16zm2-2h16V6H4zm0 0V6zm10-4h2v-2h2v-2h-2V8h-2v2h-2v2h2z"/></symbol><symbol id="hd-icon-material-symbols-magnify-fullscreen-rounded" viewBox="0 0 24 24"><path fill="currentColor" d="M4 20q-.825 0-1.412-.587T2 18V6q0-.825.588-1.412T4 4h16q.825 0 1.413.588T22 6v12q0 .825-.587 1.413T20 20zm10-8v1q0 .425.288.713T15 14t.713-.288T16 13v-1h1q.425 0 .713-.288T18 11t-.288-.712T17 10h-1V9q0-.425-.288-.712T15 8t-.712.288T14 9v1h-1q-.425 0-.712.288T12 11t.288.713T13 12z"/></symbol><symbol id="hd-icon-material-symbols-magnify-fullscreen-sharp" viewBox="0 0 24 24"><path fill="currentColor" d="M2 20V4h20v16zm12-6h2v-2h2v-2h-2V8h-2v2h-2v2h2z"/></symbol><symbol id="hd-icon-material-symbols-mail" viewBox="0 0 24 24"><path fill="currentColor" d="M4 20q-.825 0-1.412-.587T2 18V6q0-.825.588-1.412T4 4h16q.825 0 1.413.588T22 6v12q0 .825-.587 1.413T20 20zm8-7l8-5V6l-8 5l-8-5v2z"/></symbol><symbol id="hd-icon-material-symbols-mail-asterisk" viewBox="0 0 24 24"><path fill="currentColor" d="m17.875 22.95l-1.75-1l1.15-1.95H15v-2h2.275l-1.15-1.95l1.75-1L19 17l1.125-1.95l1.75 1l-1.15 1.95H23v2h-2.275l1.15 1.95l-1.75 1L19 21zM4 20q-.825 0-1.412-.587T2 18V6q0-.825.588-1.412T4 4h16q.825 0 1.413.588T22 6v7.775q-.65-.375-1.412-.587T19 12.975q-2.5 0-4.262 1.763T12.975 19q0 .275.013.513t.062.487zm8-7l8-5V6l-8 5l-8-5v2z"/></symbol><symbol id="hd-icon-material-symbols-mail-asterisk-outline" viewBox="0 0 24 24"><path fill="currentColor" d="m12 11l8-5H4zm-8 9q-.825 0-1.412-.587T2 18V6q0-.825.588-1.412T4 4h16q.825 0 1.413.588T22 6v7h-2V8l-8 5l-8-5v10h9v2zm13.875 2.95l-1.75-1l1.15-1.95H15v-2h2.275l-1.15-1.95l1.75-1L19 17l1.125-1.95l1.75 1l-1.15 1.95H23v2h-2.275l1.15 1.95l-1.75 1L19 21z"/></symbol><symbol id="hd-icon-material-symbols-mail-asterisk-outline-rounded" viewBox="0 0 24 24"><path fill="currentColor" d="m12 11l8-5H4zm-8 9q-.825 0-1.412-.587T2 18V6q0-.825.588-1.412T4 4h16q.825 0 1.413.588T22 6v6q0 .425-.288.713T21 13t-.712-.288T20 12V8l-6.95 4.35q-.5.3-1.05.3t-1.05-.3L4 8v10h8q.425 0 .713.288T13 19t-.288.713T12 20zm15 1l-.625 1.1q-.2.35-.612.45t-.763-.1t-.462-.6t.087-.75l.65-1.1H16q-.425 0-.713-.288T15 19t.288-.712T16 18h1.275l-.65-1.1q-.2-.35-.088-.75t.463-.6t.763-.1t.612.45L19 17l.625-1.1q.2-.35.613-.45t.762.1t.463.6t-.088.75l-.65 1.1H22q.425 0 .713.288T23 19t-.288.713T22 20h-1.275l.65 1.1q.2.35.088.75t-.463.6t-.763.1t-.612-.45z"/></symbol><symbol id="hd-icon-material-symbols-mail-asterisk-outline-sharp" viewBox="0 0 24 24"><path fill="currentColor" d="m12 11l8-5H4zM2 20V4h20v9h-2V8l-8 5l-8-5v10h9v2zm15.875 2.95l-1.75-1l1.15-1.95H15v-2h2.275l-1.15-1.95l1.75-1L19 17l1.125-1.95l1.75 1l-1.15 1.95H23v2h-2.275l1.15 1.95l-1.75 1L19 21z"/></symbol><symbol id="hd-icon-material-symbols-mail-asterisk-rounded" viewBox="0 0 24 24"><path fill="currentColor" d="m19 21l-.625 1.1q-.2.35-.612.45t-.763-.1t-.462-.6t.087-.75l.65-1.1H16q-.425 0-.713-.288T15 19t.288-.712T16 18h1.275l-.65-1.1q-.2-.35-.088-.75t.463-.6t.763-.1t.612.45L19 17l.625-1.1q.2-.35.613-.45t.762.1t.463.6t-.088.75l-.65 1.1H22q.425 0 .713.288T23 19t-.288.713T22 20h-1.275l.65 1.1q.2.35.088.75t-.463.6t-.763.1t-.612-.45zm-7-10L5.3 6.8q-.425-.275-.862-.025T4 7.525q0 .225.1.413t.3.312l6.55 4.1q.5.3 1.05.3t1.05-.3l6.55-4.1q.2-.125.3-.312t.1-.413q0-.5-.437-.75T18.7 6.8zm-8 9q-.825 0-1.412-.587T2 18V6q0-.825.588-1.412T4 4h16q.825 0 1.413.588T22 6v6.9q0 .3-.262.463t-.538.037q-1.65-.65-3.412-.288T14.75 14.75q-.9.9-1.362 2.075t-.413 2.45q.025.3-.175.513t-.475.212z"/></symbol><symbol id="hd-icon-material-symbols-mail-asterisk-sharp" viewBox="0 0 24 24"><path fill="currentColor" d="m17.875 22.95l-1.75-1l1.15-1.95H15v-2h2.275l-1.15-1.95l1.75-1L19 17l1.125-1.95l1.75 1l-1.15 1.95H23v2h-2.275l1.15 1.95l-1.75 1L19 21zM2 20V4h20v9.775q-.65-.375-1.412-.587T19 12.975q-2.5 0-4.262 1.763T12.975 19q0 .275.013.513t.062.487zm10-7l8-5V6l-8 5l-8-5v2z"/></symbol><symbol id="hd-icon-material-symbols-mail-lock" viewBox="0 0 24 24"><path fill="currentColor" d="m12 13l8-5V6l-8 5l-8-5v2zm7 7q-.425 0-.712-.288T18 19v-3q0-.425.288-.712T19 15v-1q0-.825.588-1.412T21 12t1.413.588T23 14v1q.425 0 .713.288T24 16v3q0 .425-.288.713T23 20zm1-5h2v-1q0-.425-.288-.712T21 13t-.712.288T20 14zM4 20q-.825 0-1.412-.587T2 18V6q0-.825.588-1.412T4 4h16q.825 0 1.413.588T22 6v4h-1q-2.075 0-3.537 1.463T16 15v5z"/></symbol><symbol id="hd-icon-material-symbols-mail-lock-outline" viewBox="0 0 24 24"><path fill="currentColor" d="M4 20q-.825 0-1.412-.587T2 18V6q0-.825.588-1.412T4 4h16q.825 0 1.413.588T22 6v3.975h-2V8l-8 5l-8-5v10h12v2zm8-9l8-5H4zm-8 7V6zm15 2q-.425 0-.712-.288T18 19v-3q0-.425.288-.712T19 15v-1q0-.825.588-1.412T21 12t1.413.588T23 14v1q.425 0 .713.288T24 16v3q0 .425-.288.713T23 20zm1-5h2v-1q0-.425-.288-.712T21 13t-.712.288T20 14z"/></symbol><symbol id="hd-icon-material-symbols-mail-lock-outline-rounded" viewBox="0 0 24 24"><path fill="currentColor" d="M4 20q-.825 0-1.412-.587T2 18V6q0-.825.588-1.412T4 4h16q.825 0 1.413.588T22 6v3q0 .425-.288.713T21 10t-.712-.288T20 9V8l-7.475 4.675q-.125.075-.262.113t-.263.037t-.262-.037t-.263-.113L4 8v10h11q.425 0 .713.288T16 19t-.288.713T15 20zm8-9l8-5H4zm-8 7V8v.25v-1.475v.025V6v.8v-.012V8.25V8zm15 2q-.425 0-.712-.288T18 19v-3q0-.425.288-.712T19 15v-1q0-.825.588-1.412T21 12t1.413.588T23 14v1q.425 0 .713.288T24 16v3q0 .425-.288.713T23 20zm1-5h2v-1q0-.425-.288-.712T21 13t-.712.288T20 14z"/></symbol><symbol id="hd-icon-material-symbols-mail-lock-outline-sharp" viewBox="0 0 24 24"><path fill="currentColor" d="M2 20V4h20v5.975h-2V8l-8 5l-8-5v10h12v2zm10-9l8-5H4zm-8 7V6zm14 2v-5h1v-1q0-.825.588-1.412T21 12t1.413.588T23 14v1h1v5zm2-5h2v-1q0-.425-.288-.712T21 13t-.712.288T20 14z"/></symbol><symbol id="hd-icon-material-symbols-mail-lock-rounded" viewBox="0 0 24 24"><path fill="currentColor" d="M12 11L5.3 6.8q-.425-.275-.862-.025T4 7.525q0 .225.1.413t.3.312l7.075 4.425q.25.15.525.15t.525-.15L19.6 8.25q.2-.125.3-.312t.1-.413q0-.5-.437-.75T18.7 6.8zm7 9q-.425 0-.712-.288T18 19v-3q0-.425.288-.712T19 15v-1q0-.825.588-1.412T21 12t1.413.588T23 14v1q.425 0 .713.288T24 16v3q0 .425-.288.713T23 20zm1-5h2v-1q0-.425-.288-.712T21 13t-.712.288T20 14zM4 20q-.825 0-1.412-.587T2 18V6q0-.825.588-1.412T4 4h16q.825 0 1.413.588T22 6v3q0 .425-.288.713T21 10q-2.075 0-3.537 1.463T16 15v4q0 .425-.288.713T15 20z"/></symbol><symbol id="hd-icon-material-symbols-mail-lock-sharp" viewBox="0 0 24 24"><path fill="currentColor" d="m12 13l8-5V6l-8 5l-8-5v2zM2 20V4h20v6h-1q-2.075 0-3.537 1.463T16 15v5zm16 0v-5h1v-1q0-.825.588-1.412T21 12t1.413.588T23 14v1h1v5zm2-5h2v-1q0-.425-.288-.712T21 13t-.712.288T20 14z"/></symbol><symbol id="hd-icon-material-symbols-mail-off" viewBox="0 0 24 24"><path fill="currentColor" d="M19.775 22.625L17.15 20H4q-.825 0-1.412-.587T2 18V6q0-.825.588-1.412T4 4l2 2H3.15L1.375 4.225L2.8 2.8l18.4 18.4zm2-3.7l-7.4-7.4L20 8V6l-6.85 4.3L6.85 4H20q.825 0 1.413.588T22 6v12q0 .25-.05.488t-.175.437"/></symbol><symbol id="hd-icon-material-symbols-mail-off-outline" viewBox="0 0 24 24"><path fill="currentColor" d="M19.775 22.625L17.15 20H4q-.825 0-1.412-.587T2 18V6q0-.825.588-1.412T4 4l2 2H4v12h11.15L1.375 4.225L2.8 2.8l18.4 18.4zm2-3.7L20 17.15V8l-5.625 3.525L13.15 10.3L20 6H8.85l-2-2H20q.825 0 1.413.588T22 6v12q0 .25-.05.488t-.175.437"/></symbol><symbol id="hd-icon-material-symbols-mail-off-outline-rounded" viewBox="0 0 24 24"><path fill="currentColor" d="M19.075 21.9L17.15 20H4q-.825 0-1.412-.587T2 18V6q0-.825.588-1.412T4 4l2 2H4v12h11.15L2.075 4.925q-.3-.3-.3-.712t.3-.713t.713-.3t.712.3l17 17q.3.3.3.7t-.3.7t-.712.3t-.713-.3M22 6v10.75q0 .5-.312.75t-.688.25t-.687-.262t-.313-.763V8l-5.05 3.175q-.35.225-.675.113t-.5-.388t-.125-.612t.4-.563L20 6H9.275q-.5 0-.75-.312T8.275 5t.25-.687t.75-.313H20q.825 0 1.413.588T22 6"/></symbol><symbol id="hd-icon-material-symbols-mail-off-outline-sharp" viewBox="0 0 24 24"><path fill="currentColor" d="M19.775 22.625L17.15 20H2V4h2l2 2H4v12h11.15L1.375 4.225L2.8 2.8l18.4 18.4zM22 19.15l-2-2V8l-5.625 3.525L13.15 10.3L20 6H8.85l-2-2H22z"/></symbol><symbol id="hd-icon-material-symbols-mail-off-rounded" viewBox="0 0 24 24"><path fill="currentColor" d="M19.075 21.9L17.15 20H4q-.825 0-1.412-.587T2 18V6q0-.825.588-1.412T4 4l2 2H3.15L2.075 4.925q-.3-.3-.3-.712t.3-.713t.713-.3t.712.3l17 17q.3.3.3.7t-.3.7t-.712.3t-.713-.3m2.3-4.25q-.275.125-.55.088t-.525-.288l-5.925-5.925L19.6 8.25q.35-.225.4-.562t-.125-.613t-.5-.375t-.675.125L13.15 10.3l-4.6-4.6q-.25-.25-.288-.525t.088-.55t.35-.45T9.275 4H20q.825 0 1.413.588T22 6v10.725q0 .35-.175.575t-.45.35"/></symbol><symbol id="hd-icon-material-symbols-mail-off-sharp" viewBox="0 0 24 24"><path fill="currentColor" d="M19.775 22.625L17.15 20H2V4h2l2 2H3.15L1.375 4.225L2.8 2.8l18.4 18.4zM22 19.15l-7.625-7.625L20 8V6l-6.85 4.3L6.85 4H22z"/></symbol><symbol id="hd-icon-material-symbols-mail-outline" viewBox="0 0 24 24"><path fill="currentColor" d="M4 20q-.825 0-1.412-.587T2 18V6q0-.825.588-1.412T4 4h16q.825 0 1.413.588T22 6v12q0 .825-.587 1.413T20 20zm8-7L4 8v10h16V8zm0-2l8-5H4zM4 8V6v12z"/></symbol><symbol id="hd-icon-material-symbols-mail-outline-rounded" viewBox="0 0 24 24"><path fill="currentColor" d="M4 20q-.825 0-1.412-.587T2 18V6q0-.825.588-1.412T4 4h16q.825 0 1.413.588T22 6v12q0 .825-.587 1.413T20 20zM20 8l-7.475 4.675q-.125.075-.262.113t-.263.037t-.262-.037t-.263-.113L4 8v10h16zm-8 3l8-5H4zM4 8v.25v-1.475v.025V6v.8v-.012V8.25zv10z"/></symbol><symbol id="hd-icon-material-symbols-mail-outline-sharp" viewBox="0 0 24 24"><path fill="currentColor" d="M2 20V4h20v16zm10-7L4 8v10h16V8zm0-2l8-5H4zM4 8V6v12z"/></symbol><symbol id="hd-icon-material-symbols-mail-rounded" viewBox="0 0 24 24"><path fill="currentColor" d="M4 20q-.825 0-1.412-.587T2 18V6q0-.825.588-1.412T4 4h16q.825 0 1.413.588T22 6v12q0 .825-.587 1.413T20 20zm8-7.175q.125 0 .263-.038t.262-.112L19.6 8.25q.2-.125.3-.312t.1-.413q0-.5-.425-.75T18.7 6.8L12 11L5.3 6.8q-.45-.275-.875-.012T4 7.525q0 .25.1.438t.3.287l7.075 4.425q.125.075.263.113t.262.037"/></symbol><symbol id="hd-icon-material-symbols-mail-sharp" viewBox="0 0 24 24"><path fill="currentColor" d="M2 20V4h20v16zm10-7l8-5V6l-8 5l-8-5v2z"/></symbol><symbol id="hd-icon-material-symbols-mail-shield" viewBox="0 0 24 24"><path fill="currentColor" d="M4 20q-.825 0-1.412-.587T2 18V6q0-.825.588-1.412T4 4h16q.825 0 1.413.588T22 6v6.275l-3-1.5l-6 3v3.775q0 .65.1 1.263T13.4 20zm15 3q-1.725-.425-2.863-1.987T15 17.55V15l4-2l4 2v2.55q0 1.9-1.137 3.463T19 23m0-2.1q.875-.425 1.438-1.35t.562-2v-1.3l-2-1zM12 13l8-5V6l-8 5l-8-5v2z"/></symbol><symbol id="hd-icon-material-symbols-mail-shield-outline" viewBox="0 0 24 24"><path fill="currentColor" d="M4 18v-7.225v.5V6zm8-7l8-5H4zM2 18V6q0-.825.588-1.412T4 4h16q.825 0 1.413.588T22 6v6.275l-2-1V8l-8 5l-8-5v10h9.025q.05.5.125 1t.25 1H4q-.825 0-1.412-.587T2 18m17 5q-1.725-.425-2.863-1.987T15 17.55V15l4-2l4 2v2.55q0 1.9-1.137 3.463T19 23m0-2.1q.875-.425 1.438-1.35t.562-2v-1.3l-2-1z"/></symbol><symbol id="hd-icon-material-symbols-mail-shield-outline-rounded" viewBox="0 0 24 24"><path fill="currentColor" d="M19 22.9q-.175 0-.337-.025t-.338-.1q-.65-.275-1.2-.737T16.15 21q-.55-.725-.85-1.612T15 17.55v-1.925q0-.275.138-.525t.412-.375l2.55-1.275q.425-.2.9-.2t.9.2l2.55 1.275q.275.125.412.375t.138.525v1.925q0 .95-.3 1.838T21.85 21q-.425.575-.975 1.038t-1.2.737q-.15.075-.325.1T19 22.9m0-2q.875-.425 1.438-1.35t.562-2v-1.3l-2-1zM12 11l8-5H4zM4 7.525v.7V8v10v-7v.275V8v.225V6.8q0-.275 0 0V6v.8v-.012zM2 18V6q0-.825.588-1.412T4 4h16q.825 0 1.413.588T22 6v4.65q0 .575-.475.863t-.975.037q-.275-.125-.413-.375T20 10.65V8l-7.475 4.675q-.25.15-.525.15t-.525-.15L4 8v10h8.025q.425 0 .713.288t.287.712t-.288.713t-.712.287H4q-.825 0-1.412-.587T2 18"/></symbol><symbol id="hd-icon-material-symbols-mail-shield-outline-sharp" viewBox="0 0 24 24"><path fill="currentColor" d="m12 11l8-5H4zm1.4 9H2V4h20v8.275l-2-1V8l-8 5l-8-5v10h9.025q.05.525.125 1.013t.25.987m5.6 3q-1.725-.425-2.863-1.987T15 17.55V15l4-2l4 2v2.55q0 1.9-1.137 3.463T19 23m0-2.1q.875-.425 1.438-1.35t.562-2v-1.3l-2-1zM4 18v-7.225v.5V6z"/></symbol><symbol id="hd-icon-material-symbols-mail-shield-rounded" viewBox="0 0 24 24"><path fill="currentColor" d="M4 20q-.825 0-1.412-.587T2 18V6q0-.825.588-1.412T4 4h16q.825 0 1.413.588T22 6v4.65q0 .575-.475.863t-.975.037l-.65-.35q-.425-.2-.9-.2t-.9.2l-4 2q-.5.275-.8.75T13 15v2.55q0 .35.038.663t.087.637q.075.45-.2.8t-.7.35zm15 2.9q-.175 0-.337-.025t-.338-.1q-.65-.275-1.2-.737T16.15 21q-.55-.725-.85-1.612T15 17.55v-1.925q0-.275.138-.525t.412-.375l2.55-1.275q.425-.2.9-.2t.9.2l2.55 1.275q.275.125.412.375t.138.525v1.925q0 .95-.3 1.838T21.85 21q-.425.575-.975 1.038t-1.2.737q-.15.075-.325.1T19 22.9m0-2q.875-.425 1.438-1.35t.562-2v-1.3l-2-1zM12 11L5.3 6.8q-.425-.275-.862-.025T4 7.525q0 .225.1.413t.3.312l7.075 4.425q.25.15.525.15t.525-.15L19.6 8.25q.2-.125.3-.312t.1-.413q0-.5-.437-.75T18.7 6.8z"/></symbol><symbol id="hd-icon-material-symbols-mail-shield-sharp" viewBox="0 0 24 24"><path fill="currentColor" d="M2 20V4h20v8.275l-3-1.5l-6 3v3.775q0 .65.1 1.263T13.4 20zm17 3q-1.725-.425-2.863-1.987T15 17.55V15l4-2l4 2v2.55q0 1.9-1.137 3.463T19 23m0-2.1q.875-.425 1.438-1.35t.562-2v-1.3l-2-1zM12 13l8-5V6l-8 5l-8-5v2z"/></symbol><symbol id="hd-icon-material-symbols-male" viewBox="0 0 24 24"><path fill="currentColor" d="M20 4v6h-2V7.425l-3.975 3.95q.475.7.725 1.488T15 14.5q0 2.3-1.6 3.9T9.5 20t-3.9-1.6T4 14.5t1.6-3.9T9.5 9q.825 0 1.625.237t1.475.738L16.575 6H14V4zM9.5 11q-1.45 0-2.475 1.025T6 14.5t1.025 2.475T9.5 18t2.475-1.025T13 14.5t-1.025-2.475T9.5 11"/></symbol><symbol id="hd-icon-material-symbols-male-rounded" viewBox="0 0 24 24"><path fill="currentColor" d="M20 5v4q0 .425-.288.713T19 10t-.712-.288T18 9V7.425l-3.975 3.95q.475.7.725 1.488T15 14.5q0 2.3-1.6 3.9T9.5 20t-3.9-1.6T4 14.5t1.6-3.9T9.5 9q.825 0 1.625.237t1.475.738L16.575 6H15q-.425 0-.712-.288T14 5t.288-.712T15 4h4q.425 0 .713.288T20 5M9.5 11q-1.45 0-2.475 1.025T6 14.5t1.025 2.475T9.5 18t2.475-1.025T13 14.5t-1.025-2.475T9.5 11"/></symbol><symbol id="hd-icon-material-symbols-man" viewBox="0 0 24 24"><path fill="currentColor" d="M10 22v-7H8V9q0-.825.588-1.412T10 7h4q.825 0 1.413.588T16 9v6h-2v7zm2-16q-.825 0-1.412-.587T10 4t.588-1.412T12 2t1.413.588T14 4t-.587 1.413T12 6"/></symbol><symbol id="hd-icon-material-symbols-man-2" viewBox="0 0 24 24"><path fill="currentColor" d="M10.5 22v-7H8V9q0-.825.588-1.412T10 7h4q.825 0 1.413.588T16 9v6h-2.5v7zM12 6q-.825 0-1.412-.587T10 4t.588-1.412T12 2t1.413.588T14 4t-.587 1.413T12 6"/></symbol><symbol id="hd-icon-material-symbols-man-2-rounded" viewBox="0 0 24 24"><path fill="currentColor" d="M10.5 21v-6H9q-.425 0-.712-.288T8 14V9q0-.825.588-1.412T10 7h4q.825 0 1.413.588T16 9v5q0 .425-.288.713T15 15h-1.5v6q0 .425-.288.713T12.5 22h-1q-.425 0-.712-.288T10.5 21M12 6q-.825 0-1.412-.587T10 4t.588-1.412T12 2t1.413.588T14 4t-.587 1.413T12 6"/></symbol><symbol id="hd-icon-material-symbols-man-2-sharp" viewBox="0 0 24 24"><path fill="currentColor" d="M10.5 22v-7H8V7h8v8h-2.5v7zM12 6q-.825 0-1.412-.587T10 4t.588-1.412T12 2t1.413.588T14 4t-.587 1.413T12 6"/></symbol><symbol id="hd-icon-material-symbols-man-3" viewBox="0 0 24 24"><path fill="currentColor" d="M10 22.25v-7H8v-6q0-.825.588-1.412T10 7.25h4q.825 0 1.413.588T16 9.25v6h-2v7zM12 6.5L9.75 4.25L12 2l2.25 2.25z"/></symbol><symbol id="hd-icon-material-symbols-man-3-rounded" viewBox="0 0 24 24"><path fill="currentColor" d="M10 21.25v-6H9q-.425 0-.712-.288T8 14.25v-5q0-.825.588-1.412T10 7.25h4q.825 0 1.413.588T16 9.25v5q0 .425-.288.713T15 15.25h-1v6q0 .425-.288.713T13 22.25h-2q-.425 0-.712-.288T10 21.25M11.3 5.8l-.85-.85q-.3-.3-.3-.7t.3-.7l.85-.85q.3-.3.7-.3t.7.3l.85.85q.3.3.3.7t-.3.7l-.85.85q-.3.3-.7.3t-.7-.3"/></symbol><symbol id="hd-icon-material-symbols-man-3-sharp" viewBox="0 0 24 24"><path fill="currentColor" d="M10 22.25v-7H8v-8h8v8h-2v7zM12 6.5L9.75 4.25L12 2l2.25 2.25z"/></symbol><symbol id="hd-icon-material-symbols-man-4" viewBox="0 0 24 24"><path fill="currentColor" d="M10 22L8.3 9.275q-.125-.9.475-1.588t1.5-.687h3.45q.9 0 1.5.687t.475 1.588L14 22zm2-16q-.825 0-1.412-.587T10 4t.588-1.412T12 2t1.413.588T14 4t-.587 1.413T12 6"/></symbol><symbol id="hd-icon-material-symbols-man-4-rounded" viewBox="0 0 24 24"><path fill="currentColor" d="M9.875 21.125L8.3 9.275q-.125-.9.475-1.588t1.5-.687h3.45q.9 0 1.5.687t.475 1.588l-1.575 11.85q-.05.375-.337.625t-.663.25h-2.25q-.375 0-.663-.25t-.337-.625M12 6q-.825 0-1.412-.587T10 4t.588-1.412T12 2t1.413.588T14 4t-.587 1.413T12 6"/></symbol><symbol id="hd-icon-material-symbols-man-4-sharp" viewBox="0 0 24 24"><path fill="currentColor" d="M10 22L8 7h8l-2 15zm2-16q-.825 0-1.412-.587T10 4t.588-1.412T12 2t1.413.588T14 4t-.587 1.413T12 6"/></symbol><symbol id="hd-icon-material-symbols-man-rounded" viewBox="0 0 24 24"><path fill="currentColor" d="M10 21v-6H9q-.425 0-.712-.288T8 14V9q0-.825.588-1.412T10 7h4q.825 0 1.413.588T16 9v5q0 .425-.288.713T15 15h-1v6q0 .425-.288.713T13 22h-2q-.425 0-.712-.288T10 21m2-15q-.825 0-1.412-.587T10 4t.588-1.412T12 2t1.413.588T14 4t-.587 1.413T12 6"/></symbol><symbol id="hd-icon-material-symbols-man-sharp" viewBox="0 0 24 24"><path fill="currentColor" d="M10 22v-7H8V7h8v8h-2v7zm2-16q-.825 0-1.412-.587T10 4t.588-1.412T12 2t1.413.588T14 4t-.587 1.413T12 6"/></symbol><symbol id="hd-icon-material-symbols-manage-accounts" viewBox="0 0 24 24"><path fill="currentColor" d="m16 21l-.3-1.5q-.3-.125-.562-.262T14.6 18.9l-1.45.45l-1-1.7l1.15-1q-.05-.35-.05-.65t.05-.65l-1.15-1l1-1.7l1.45.45q.275-.2.538-.337t.562-.263L16 11h2l.3 1.5q.3.125.563.275t.537.375l1.45-.5l1 1.75l-1.15 1q.05.3.05.625t-.05.625l1.15 1l-1 1.7l-1.45-.45q-.275.2-.537.338t-.563.262L18 21zM2 20v-2.8q0-.825.425-1.55t1.175-1.1q1.275-.65 2.875-1.1T10 13h.35q.15 0 .3.05q-.725 1.8-.6 3.575T11.25 20zm15-2q.825 0 1.413-.587T19 16t-.587-1.412T17 14t-1.412.588T15 16t.588 1.413T17 18m-7-6q-1.65 0-2.825-1.175T6 8t1.175-2.825T10 4t2.825 1.175T14 8t-1.175 2.825T10 12"/></symbol><symbol id="hd-icon-material-symbols-manage-accounts-outline" viewBox="0 0 24 24"><path fill="currentColor" d="M10 12q-1.65 0-2.825-1.175T6 8t1.175-2.825T10 4t2.825 1.175T14 8t-1.175 2.825T10 12m-8 8v-2.8q0-.825.425-1.55t1.175-1.1q1.275-.65 2.875-1.1T10 13h.35q.15 0 .3.05q-.2.45-.337.938T10.1 15H10q-1.775 0-3.187.45t-2.313.9q-.225.125-.363.35T4 17.2v.8h6.3q.15.525.4 1.038t.55.962zm14 1l-.3-1.5q-.3-.125-.562-.262T14.6 18.9l-1.45.45l-1-1.7l1.15-1q-.05-.35-.05-.65t.05-.65l-1.15-1l1-1.7l1.45.45q.275-.2.538-.337t.562-.263L16 11h2l.3 1.5q.3.125.563.275t.537.375l1.45-.5l1 1.75l-1.15 1q.05.3.05.625t-.05.625l1.15 1l-1 1.7l-1.45-.45q-.275.2-.537.338t-.563.262L18 21zm1-3q.825 0 1.413-.587T19 16t-.587-1.412T17 14t-1.412.588T15 16t.588 1.413T17 18m-7-8q.825 0 1.413-.587T12 8t-.587-1.412T10 6t-1.412.588T8 8t.588 1.413T10 10m.3 8"/></symbol><symbol id="hd-icon-material-symbols-manage-accounts-outline-rounded" viewBox="0 0 24 24"><path fill="currentColor" d="M10 12q-1.65 0-2.825-1.175T6 8t1.175-2.825T10 4t2.825 1.175T14 8t-1.175 2.825T10 12m-8 6v-.8q0-.825.425-1.55t1.175-1.1q1.45-.725 3-1.138T9.775 13q.425 0 .713.3t.287.725t-.288.713t-.712.287q-1.4 0-2.713.35T4.5 16.35q-.25.125-.375.35T4 17.2v.8h5.775q.425 0 .713.288t.287.712t-.288.713t-.712.287H4q-.825 0-1.412-.587T2 18m13.85 2.2l-.15-.7q-.3-.125-.562-.262T14.6 18.9l-.725.225q-.325.1-.637-.025t-.488-.4l-.2-.35q-.175-.3-.125-.65t.325-.575l.55-.475q-.05-.35-.05-.65t.05-.65l-.55-.475q-.275-.225-.325-.563t.125-.637l.225-.375q.175-.275.475-.4t.625-.025l.725.225q.275-.2.538-.338t.562-.262l.15-.725q.075-.35.338-.562T16.8 11h.4q.35 0 .613.225t.337.575l.15.7q.3.125.562.275t.538.375l.675-.225q.35-.125.675 0t.5.425l.2.35q.175.3.125.65t-.325.575l-.55.475q.05.3.05.625t-.05.625l.55.475q.275.225.325.563t-.125.637l-.225.375q-.175.275-.475.4t-.625.025L19.4 18.9q-.275.2-.538.337t-.562.263l-.15.725q-.075.35-.337.563T17.2 21h-.4q-.35 0-.612-.225t-.338-.575M17 18q.825 0 1.413-.587T19 16t-.587-1.412T17 14t-1.412.588T15 16t.588 1.413T17 18m-7-8q.825 0 1.413-.587T12 8t-.587-1.412T10 6t-1.412.588T8 8t.588 1.413T10 10m.3 8"/></symbol><symbol id="hd-icon-material-symbols-manage-accounts-rounded" viewBox="0 0 24 24"><path fill="currentColor" d="M2 18v-.8q0-.85.425-1.562T3.6 14.55q1.425-.725 2.963-1.15t3.137-.425q.35 0 .55.313t.075.662q-.15.525-.225 1.05t-.075 1.075q0 .725.15 1.4T10.6 18.8q.2.425-.037.813T9.9 20H4q-.825 0-1.412-.587T2 18m15 0q.825 0 1.413-.587T19 16t-.587-1.412T17 14t-1.412.588T15 16t.588 1.413T17 18m-7-6q-1.65 0-2.825-1.175T6 8t1.175-2.825T10 4t2.825 1.175T14 8t-1.175 2.825T10 12m5.85 8.2l-.15-.7q-.3-.125-.562-.262T14.6 18.9l-.725.225q-.325.1-.637-.025t-.488-.4l-.2-.35q-.175-.3-.125-.65t.325-.575l.55-.475q-.05-.35-.05-.65t.05-.65l-.55-.475q-.275-.225-.325-.563t.125-.637l.225-.375q.175-.275.475-.4t.625-.025l.725.225q.275-.2.538-.338t.562-.262l.15-.725q.075-.35.338-.562T16.8 11h.4q.35 0 .613.225t.337.575l.15.7q.3.125.562.275t.538.375l.675-.225q.35-.125.675 0t.5.425l.2.35q.175.3.125.65t-.325.575l-.55.475q.05.3.05.625t-.05.625l.55.475q.275.225.325.563t-.125.637l-.225.375q-.175.275-.475.4t-.625.025L19.4 18.9q-.275.2-.538.337t-.562.263l-.15.725q-.075.35-.337.563T17.2 21h-.4q-.35 0-.612-.225t-.338-.575"/></symbol><symbol id="hd-icon-material-symbols-manage-history" viewBox="0 0 24 24"><path fill="currentColor" d="M3 10V4h2v2.35q1.275-1.6 3.113-2.475T12 3q3.75 0 6.375 2.625T21 12h-2q0-2.925-2.037-4.962T12 5q-1.725 0-3.225.8T6.25 8H9v2zm.05 3H5.1q.3 2.325 1.913 3.938t3.862 1.962l1.2 2.1q-3.45 0-6.05-2.287T3.05 13m10.3 1.75L11 12.4V7h2v4.6l1.4 1.4zM17.975 24l-.3-1.5q-.3-.125-.562-.262t-.538-.338l-1.45.45l-1-1.7l1.15-1q-.05-.325-.05-.65t.05-.65l-1.15-1l1-1.7l1.45.45q.275-.2.538-.337t.562-.263l.3-1.5h2l.3 1.5q.3.125.575.288t.525.362l1.45-.5l1 1.75l-1.15 1q.05.325.05.625t-.05.625l1.15 1l-1 1.7l-1.45-.45q-.275.2-.537.338t-.563.262l-.3 1.5zm1-3q.825 0 1.413-.587T20.975 19t-.587-1.412T18.975 17t-1.412.588T16.975 19t.588 1.413t1.412.587"/></symbol><symbol id="hd-icon-material-symbols-manage-history-rounded" viewBox="0 0 24 24"><path fill="currentColor" d="M12 5q-1.725 0-3.225.8T6.25 8H8q.425 0 .713.288T9 9t-.288.713T8 10H4q-.425 0-.712-.288T3 9V5q0-.425.288-.712T4 4t.713.288T5 5v1.35q1.275-1.6 3.113-2.475T12 3q1.875 0 3.513.7t2.862 1.925q1.05 1.05 1.725 2.425t.85 2.95q.05.425-.25.7t-.725.275t-.712-.275t-.338-.7q-.175-1.15-.675-2.15t-1.3-1.8q-.95-.95-2.212-1.5T12 5m-7.9 8.15q.4-.05.725.15t.45.6q.55 2.025 2.125 3.375t3.65 1.625q.525.075.75.388t.225.662q0 .4-.262.725t-.738.275q-2.775-.325-4.887-2.137T3.3 14.325q-.125-.425.125-.775t.675-.4M13 11.6l1.2 1.2q.35.35.313.738t-.313.662t-.662.313t-.738-.313l-1.5-1.5q-.15-.15-.225-.337T11 11.975V8q0-.425.288-.712T12 7t.713.288T13 8zM18.775 24q-.35 0-.612-.225t-.338-.575l-.15-.7q-.3-.125-.562-.262t-.538-.338l-.725.225q-.325.1-.638-.025t-.487-.4l-.2-.35q-.175-.3-.125-.65t.325-.575l.55-.475q-.05-.325-.05-.65t.05-.65l-.55-.475q-.275-.225-.325-.562t.125-.638l.225-.375q.175-.275.475-.4t.625-.025l.725.225q.275-.2.538-.337t.562-.263l.15-.725q.075-.35.338-.562t.612-.213h.4q.35 0 .613.225t.337.575l.15.7q.3.125.575.287t.525.363l.675-.225q.35-.125.675 0t.5.425l.2.35q.175.3.125.65t-.325.575l-.55.475q.05.325.05.625t-.05.625l.55.475q.275.225.325.563t-.125.637l-.225.375q-.175.275-.475.4t-.625.025l-.725-.225q-.275.2-.538.337t-.562.263l-.15.725q-.075.35-.337.563t-.613.212zm.2-3q.825 0 1.412-.587T20.976 19t-.587-1.412T18.975 17t-1.412.588T16.975 19t.588 1.413t1.412.587"/></symbol><symbol id="hd-icon-material-symbols-manage-search" viewBox="0 0 24 24"><path fill="currentColor" d="M2 19v-2h10v2zm0-5v-2h5v2zm0-5V7h5v2zm18.6 10l-3.85-3.85q-.6.425-1.312.638T14 16q-2.075 0-3.537-1.463T9 11t1.463-3.537T14 6t3.538 1.463T19 11q0 .725-.213 1.438t-.637 1.312L22 17.6zM14 14q1.25 0 2.125-.875T17 11t-.875-2.125T14 8t-2.125.875T11 11t.875 2.125T14 14"/></symbol><symbol id="hd-icon-material-symbols-manage-search-rounded" viewBox="0 0 24 24"><path fill="currentColor" d="M3 19q-.425 0-.712-.288T2 18t.288-.712T3 17h8q.425 0 .713.288T12 18t-.288.713T11 19zm0-5q-.425 0-.712-.288T2 13t.288-.712T3 12h3q.425 0 .713.288T7 13t-.288.713T6 14zm0-5q-.425 0-.712-.288T2 8t.288-.712T3 7h3q.425 0 .713.288T7 8t-.288.713T6 9zm11 7q-2.075 0-3.537-1.463T9 11t1.463-3.537T14 6t3.538 1.463T19 11q0 .725-.213 1.438t-.637 1.312l3.15 3.15q.275.275.275.7t-.275.7t-.7.275t-.7-.275l-3.15-3.15q-.6.425-1.312.638T14 16m0-2q1.25 0 2.125-.875T17 11t-.875-2.125T14 8t-2.125.875T11 11t.875 2.125T14 14"/></symbol><symbol id="hd-icon-material-symbols-manga" viewBox="0 0 24 24"><path fill="currentColor" d="M4 20q-.825 0-1.412-.587T2 18V6q0-.825.588-1.412T4 4h16q.825 0 1.413.588T22 6v12q0 .825-.587 1.413T20 20zm4.1-2H20V7.025L17 8l-3.075-1L12 9.625l-3.075 1v3.25l-1.9 2.625z"/></symbol><symbol id="hd-icon-material-symbols-manga-outline" viewBox="0 0 24 24"><path fill="currentColor" d="M4 20q-.825 0-1.412-.587T2 18V6q0-.825.588-1.412T4 4h16q.825 0 1.413.588T22 6v12q0 .825-.587 1.413T20 20zm6.575-2H20v-7.725l-.675-.925L17 10.1l-2.3-.75l-1.45 1.975l-2.325.75v2.45L9.5 16.5zM8.1 18l-1.075-1.5l1.9-2.625v-3.25l3.075-1L13.925 7L17 8l3-.975V6H4v12zm2.825-5.925"/></symbol><symbol id="hd-icon-material-symbols-manga-outline-rounded" viewBox="0 0 24 24"><path fill="currentColor" d="M4 20q-.825 0-1.412-.587T2 18V6q0-.825.588-1.412T4 4h16q.825 0 1.413.588T22 6v12q0 .825-.587 1.413T20 20zm4.1-2l-.65-.925q-.2-.275-.2-.587t.2-.588l1.475-2.025V11.35q0-.325.175-.587t.5-.363l2.4-.775l1.5-2.05q.2-.275.5-.363t.6.013L17 8l3-.975V6H4v12zm2.475 0H20v-7.725l-.675-.925L17 10.1l-2.3-.75l-1.45 1.975l-2.325.75v2.45L9.5 16.5zm.35-5.925"/></symbol><symbol id="hd-icon-material-symbols-manga-outline-sharp" viewBox="0 0 24 24"><path fill="currentColor" d="M2 20V4h20v16zm6.1-2l-1.075-1.5l1.9-2.625v-3.25l3.075-1L13.925 7L17 8l3-.975V6H4v12zm2.475 0H20v-7.725l-.675-.925L17 10.1l-2.3-.75l-1.45 1.975l-2.325.75v2.45L9.5 16.5z"/></symbol><symbol id="hd-icon-material-symbols-manga-rounded" viewBox="0 0 24 24"><path fill="currentColor" d="M4 20q-.825 0-1.412-.587T2 18V6q0-.825.588-1.412T4 4h16q.825 0 1.413.588T22 6v12q0 .825-.587 1.413T20 20zm4.1-2H20V7.025L17 8l-2.4-.775q-.3-.1-.6-.012t-.5.362L12 9.625l-2.4.775q-.325.1-.5.363t-.175.587v2.525L7.45 15.9q-.2.275-.2.588t.2.587z"/></symbol><symbol id="hd-icon-material-symbols-manga-sharp" viewBox="0 0 24 24"><path fill="currentColor" d="M2 20V4h20v16zm6.1-2H20V7.025L17 8l-3.075-1L12 9.625l-3.075 1v3.25l-1.9 2.625z"/></symbol><symbol id="hd-icon-material-symbols-manufacturing" viewBox="0 0 24 24"><path fill="currentColor" d="m5.85 12l-.3-1.5q-.3-.125-.562-.262T4.45 9.9L3 10.35l-1-1.7l1.15-1Q3.1 7.325 3.1 7t.05-.65L2 5.35l1-1.7l1.45.45q.275-.2.538-.338T5.55 3.5l.3-1.5h2l.3 1.5q.3.125.563.263t.537.337l1.45-.45l1 1.7l-1.15 1q.05.325.05.65t-.05.65l1.15 1l-1 1.7l-1.45-.45q-.275.2-.537.338t-.563.262l-.3 1.5zm1-3q.825 0 1.413-.587T8.85 7t-.587-1.412T6.85 5t-1.412.588T4.85 7t.588 1.413T6.85 9m7.95 14l-.45-2.1q-.425-.15-.787-.363t-.713-.487l-2 .65l-1.4-2.4l1.6-1.4Q11 16.45 11 16t.05-.9l-1.6-1.4l1.4-2.4l2 .65q.35-.275.713-.488t.787-.362L14.8 9h2.8l.45 2.1q.425.15.788.363t.712.487l2-.65l1.4 2.4l-1.6 1.4q.05.45.05.9t-.05.9l1.6 1.4l-1.4 2.4l-2-.65q-.35.275-.712.487t-.788.363L17.6 23zm1.4-4q1.25 0 2.125-.875T19.2 16t-.875-2.125T16.2 13t-2.125.875T13.2 16t.875 2.125T16.2 19"/></symbol><symbol id="hd-icon-material-symbols-manufacturing-rounded" viewBox="0 0 24 24"><path fill="currentColor" d="M5.55 10.5q-.3-.125-.562-.262T4.45 9.9l-.725.225q-.325.1-.638-.025T2.6 9.7l-.2-.35q-.175-.3-.125-.65t.325-.575l.55-.475Q3.1 7.325 3.1 7t.05-.65l-.55-.475q-.275-.225-.325-.562t.125-.638l.225-.375q.175-.275.475-.4t.625-.025l.725.225q.275-.2.538-.337T5.55 3.5l.15-.725q.075-.35.338-.562T6.65 2h.4q.35 0 .613.225T8 2.8l.15.7q.3.125.563.263t.537.337l.725-.225q.325-.1.638.025t.487.4l.2.35q.175.3.125.65t-.325.575l-.55.475q.05.325.05.65t-.05.65l.55.475q.275.225.325.563t-.125.637l-.225.375q-.175.275-.475.4t-.625.025L9.25 9.9q-.275.2-.537.338t-.563.262l-.15.725q-.075.35-.337.563T7.05 12h-.4q-.35 0-.612-.225T5.7 11.2zM6.85 9q.825 0 1.413-.587T8.85 7t-.587-1.412T6.85 5t-1.412.588T4.85 7t.588 1.413T6.85 9m7.5 11.9q-.425-.15-.787-.363t-.713-.487l-.95.3q-.45.15-.9-.012t-.7-.588l-.275-.475q-.25-.425-.175-.913t.45-.812l.75-.65Q11 16.45 11 16t.05-.9l-.75-.675q-.375-.325-.45-.8t.175-.9l.275-.475q.25-.425.7-.588t.9-.012l.95.3q.35-.275.713-.488t.787-.362l.225-1.025q.1-.475.463-.775T15.9 9h.6q.5 0 .863.3t.462.775l.225 1.025q.425.15.788.363t.712.487l.95-.3q.45-.15.9.013t.7.587l.275.475q.25.425.175.913t-.45.812l-.75.65q.05.45.05.9t-.05.9l.75.675q.375.325.45.8t-.175.9l-.275.475q-.25.425-.7.588t-.9.012l-.95-.3q-.35.275-.712.487t-.788.363l-.225 1.025q-.1.475-.462.775t-.863.3h-.6q-.5 0-.862-.3t-.463-.775zM16.2 19q1.25 0 2.125-.875T19.2 16t-.875-2.125T16.2 13t-2.125.875T13.2 16t.875 2.125T16.2 19"/></symbol><symbol id="hd-icon-material-symbols-map" viewBox="0 0 24 24"><path fill="currentColor" d="m15 21l-6-2.1l-4.65 1.8q-.5.2-.925-.112T3 19.75v-14q0-.325.188-.575T3.7 4.8L9 3l6 2.1l4.65-1.8q.5-.2.925.113T21 4.25v14q0 .325-.187.575t-.513.375zm-1-2.45V6.85l-4-1.4v11.7z"/></symbol><symbol id="hd-icon-material-symbols-map-outline" viewBox="0 0 24 24"><path fill="currentColor" d="m15 21l-6-2.1l-4.65 1.8q-.5.2-.925-.112T3 19.75v-14q0-.325.188-.575T3.7 4.8L9 3l6 2.1l4.65-1.8q.5-.2.925.113T21 4.25v14q0 .325-.187.575t-.513.375zm-1-2.45V6.85l-4-1.4v11.7zm2 0l3-1V5.7l-3 1.15zM5 18.3l3-1.15V5.45l-3 1zM16 6.85v11.7zm-8-1.4v11.7z"/></symbol><symbol id="hd-icon-material-symbols-map-outline-rounded" viewBox="0 0 24 24"><path fill="currentColor" d="M14.35 20.775L9 18.9l-4.65 1.8q-.25.1-.488.063t-.437-.163t-.312-.337T3 19.775V5.75q0-.325.188-.575T3.7 4.8l4.65-1.575q.15-.05.313-.075T9 3.125t.338.025t.312.075L15 5.1l4.65-1.8q.25-.1.488-.062t.437.162t.313.338t.112.487V18.25q0 .325-.187.575t-.513.375l-4.65 1.575q-.15.05-.312.075t-.338.025t-.337-.025t-.313-.075M14 18.55V6.85l-4-1.4v11.7zm2 0l3-1V5.7l-3 1.15zM5 18.3l3-1.15V5.45l-3 1zM16 6.85v11.7zm-8-1.4v11.7z"/></symbol><symbol id="hd-icon-material-symbols-map-outline-sharp" viewBox="0 0 24 24"><path fill="currentColor" d="m15 21l-6-2.1l-6 2.325V5.05L9 3l6 2.1l6-2.325V18.95zm-1-2.45V6.85l-4-1.4v11.7zm2 0l3-1V5.7l-3 1.15zM5 18.3l3-1.15V5.45l-3 1zM16 6.85v11.7zm-8-1.4v11.7z"/></symbol><symbol id="hd-icon-material-symbols-map-pin-heart" viewBox="0 0 24 24"><path fill="currentColor" d="M12 14.3q1.35-1.25 2.1-2t1.175-1.25q.4-.5.563-.925T16 9.2q0-.9-.65-1.55T13.8 7q-.525 0-1.013.212T12 7.8q-.3-.375-.775-.587T10.2 7q-.9 0-1.55.65T8 9.2q0 .525.15.925t.55.9q.425.5 1.15 1.25T12 14.3m0 7.7q-4.025-3.425-6.012-6.362T4 10.2q0-3.75 2.413-5.975T12 2t5.588 2.225T20 10.2q0 2.5-1.987 5.438T12 22"/></symbol><symbol id="hd-icon-material-symbols-map-pin-heart-outline" viewBox="0 0 24 24"><path fill="currentColor" d="M12 14.3q1.35-1.25 2.1-2t1.175-1.25q.4-.5.563-.925T16 9.2q0-.9-.65-1.55T13.8 7q-.525 0-1.013.212T12 7.8q-.3-.375-.775-.587T10.2 7q-.9 0-1.55.65T8 9.2q0 .525.15.925t.55.9q.425.5 1.15 1.25T12 14.3m0 5.05q3.05-2.8 4.525-5.087T18 10.2q0-2.725-1.737-4.462T12 4T7.738 5.738T6 10.2q0 1.775 1.475 4.063T12 19.35M12 22q-4.025-3.425-6.012-6.362T4 10.2q0-3.75 2.413-5.975T12 2t5.588 2.225T20 10.2q0 2.5-1.987 5.438T12 22m0-12"/></symbol><symbol id="hd-icon-material-symbols-map-pin-heart-outline-rounded" viewBox="0 0 24 24"><path fill="currentColor" d="M12 19.35q3.05-2.8 4.525-5.087T18 10.2q0-2.725-1.737-4.462T12 4T7.738 5.738T6 10.2q0 1.775 1.475 4.063T12 19.35m0 1.975q-.35 0-.7-.125t-.625-.375Q9.05 19.325 7.8 17.9t-2.087-2.762t-1.275-2.575T4 10.2q0-3.75 2.413-5.975T12 2t5.588 2.225T20 10.2q0 1.125-.437 2.363t-1.275 2.575T16.2 17.9t-2.875 2.925q-.275.25-.625.375t-.7.125m0-7.025q1.35-1.25 2.1-2t1.175-1.25q.4-.5.563-.925T16 9.2q0-.9-.65-1.55T13.8 7q-.525 0-1.012.213T12 7.8q-.3-.375-.775-.587T10.2 7q-.9 0-1.55.65T8 9.2q0 .525.15.925t.55.9q.425.5 1.15 1.25T12 14.3"/></symbol><symbol id="hd-icon-material-symbols-map-pin-heart-outline-sharp" viewBox="0 0 24 24"><path fill="currentColor" d="M12 19.35q3.05-2.8 4.525-5.087T18 10.2q0-2.725-1.737-4.462T12 4T7.738 5.738T6 10.2q0 1.775 1.475 4.063T12 19.35M12 22q-4.025-3.425-6.012-6.362T4 10.2q0-3.75 2.413-5.975T12 2t5.588 2.225T20 10.2q0 2.5-1.987 5.438T12 22m0-7.7q1.35-1.25 2.1-2t1.175-1.25q.4-.5.563-.925T16 9.2q0-.9-.65-1.55T13.8 7q-.525 0-1.013.212T12 7.8q-.3-.375-.775-.587T10.2 7q-.9 0-1.55.65T8 9.2q0 .525.15.925t.55.9q.425.5 1.15 1.25T12 14.3"/></symbol><symbol id="hd-icon-material-symbols-map-pin-heart-rounded" viewBox="0 0 24 24"><path fill="currentColor" d="M12 21.325q-.35 0-.7-.125t-.625-.375Q9.05 19.325 7.8 17.9t-2.087-2.762t-1.275-2.575T4 10.2q0-3.75 2.413-5.975T12 2t5.588 2.225T20 10.2q0 1.125-.437 2.363t-1.275 2.575T16.2 17.9t-2.875 2.925q-.275.25-.625.375t-.7.125m0-7.025q1.35-1.25 2.1-2t1.175-1.25q.4-.5.563-.925T16 9.2q0-.9-.65-1.55T13.8 7q-.525 0-1.012.213T12 7.8q-.3-.375-.775-.587T10.2 7q-.9 0-1.55.65T8 9.2q0 .525.15.925t.55.9q.425.5 1.15 1.25T12 14.3"/></symbol><symbol id="hd-icon-material-symbols-map-pin-heart-sharp" viewBox="0 0 24 24"><path fill="currentColor" d="M12 22q-4.025-3.425-6.012-6.362T4 10.2q0-3.75 2.413-5.975T12 2t5.588 2.225T20 10.2q0 2.5-1.987 5.438T12 22m0-7.7q1.35-1.25 2.1-2t1.175-1.25q.4-.5.563-.925T16 9.2q0-.9-.65-1.55T13.8 7q-.525 0-1.013.212T12 7.8q-.3-.375-.775-.587T10.2 7q-.9 0-1.55.65T8 9.2q0 .525.15.925t.55.9q.425.5 1.15 1.25T12 14.3"/></symbol><symbol id="hd-icon-material-symbols-map-pin-review" viewBox="0 0 24 24"><path fill="currentColor" d="M2 22v-2h3.45q-.7-.65-1.475-1.475T2.55 16.75t-1.1-1.95T1 12.75q0-2.45 1.6-4.1T6.6 7t4 1.65t1.6 4.1q0 1.05-.45 2.05t-1.1 1.95t-1.425 1.775T7.75 20H22v2zm4.6-8q.625 0 1.063-.437T8.1 12.5t-.437-1.062T6.6 11t-1.062.438T5.1 12.5t.438 1.063T6.6 14m8.4 4l-1.45-2.325q.3-.725.475-1.463t.175-1.462q0-.575-.075-1.15t-.225-1.1l1.2-.725L17.125 11L16.6 8.7l1.8-1.575l-2.375-.2L15.1 4.75l-.925 2.175l-2.275.2q-.8-.775-1.775-1.288T8 5.125V4q0-.825.588-1.412T10 2h10q.825 0 1.413.588T22 4v9q0 .825-.587 1.413T20 15h-3.125z"/></symbol><symbol id="hd-icon-material-symbols-map-pin-review-outline" viewBox="0 0 24 24"><path fill="currentColor" d="M6.6 18.325q.475-.45 1.088-1.112T8.875 15.8t.95-1.537t.375-1.513q0-1.625-1.012-2.687T6.6 9t-2.587 1.063T3 12.75q0 .725.375 1.513t.95 1.537t1.188 1.412T6.6 18.325M2 22v-2h3.45q-.7-.65-1.475-1.475T2.55 16.75t-1.1-1.95T1 12.75q0-2.45 1.6-4.1T6.6 7t4 1.65t1.6 4.1q0 1.05-.45 2.05t-1.1 1.95t-1.425 1.775T7.75 20H22v2zm13-4l-1.875-3.025L14.25 13l.75 1.225l.75-1.225H20V4H10v1H8V4q0-.825.588-1.412T10 2h10q.825 0 1.413.588T22 4v9q0 .825-.587 1.413T20 15h-3.125zm-1.925-7L15.1 9.775L17.125 11L16.6 8.7l1.8-1.575l-2.375-.2L15.1 4.75l-.925 2.175l-2.375.2L13.6 8.7zM6.6 14q.625 0 1.063-.437T8.1 12.5t-.437-1.062T6.6 11t-1.062.438T5.1 12.5t.438 1.063T6.6 14m0-1.5"/></symbol><symbol id="hd-icon-material-symbols-map-pin-review-outline-rounded" viewBox="0 0 24 24"><path fill="currentColor" d="M6.6 18.325q.475-.45 1.088-1.112T8.875 15.8t.95-1.537t.375-1.513q0-1.625-1.012-2.687T6.6 9t-2.587 1.063T3 12.75q0 .725.375 1.513t.95 1.537t1.188 1.412T6.6 18.325M3 22q-.425 0-.712-.288T2 21t.288-.712T3 20h2.45q-.7-.65-1.475-1.475T2.55 16.75t-1.1-1.95T1 12.75q0-2.45 1.6-4.1T6.6 7t4 1.65t1.6 4.1q0 1.05-.45 2.05t-1.1 1.95t-1.425 1.775T7.75 20H21q.425 0 .713.288T22 21t-.288.713T21 22zm12-4.9q-.25 0-.475-.112t-.375-.363l-.725-1.15q-.225-.35-.1-.75t.4-.675t.638-.263t.637.438l.475-.75q.125-.225.35-.35t.5-.125H20V4H10q0 .425-.288.713T9 5q-.4 0-.7-.312T8 4q0-.825.588-1.412T10 2h10q.825 0 1.413.588T22 4v9q0 .825-.587 1.413T20 15h-3.125l-1.025 1.65q-.15.25-.375.35t-.475.1M6.6 14q.625 0 1.063-.437T8.1 12.5t-.437-1.062T6.6 11t-1.062.438T5.1 12.5t.438 1.063T6.6 14m8.5-4.225l1.525.925q.15.1.288 0t.087-.275L16.6 8.7l1.35-1.175q.125-.125.075-.275t-.225-.175l-1.775-.15l-.7-1.625q-.05-.15-.225-.15t-.225.15l-.7 1.625l-1.775.15q-.175.025-.225.175t.075.275L13.6 8.7l-.4 1.725q-.05.175.088.275t.287 0z"/></symbol><symbol id="hd-icon-material-symbols-map-pin-review-outline-sharp" viewBox="0 0 24 24"><path fill="currentColor" d="M6.6 18.325q.475-.45 1.088-1.112T8.875 15.8t.95-1.537t.375-1.513q0-1.625-1.012-2.687T6.6 9t-2.587 1.063T3 12.75q0 .725.375 1.513t.95 1.537t1.188 1.412T6.6 18.325M2 22v-2h3.45q-.7-.65-1.475-1.475T2.55 16.75t-1.1-1.95T1 12.75q0-2.45 1.6-4.1T6.6 7t4 1.65t1.6 4.1q0 1.05-.45 2.05t-1.1 1.95t-1.425 1.775T7.75 20H22v2zm13-4l-1.875-3.025L14.25 13l.75 1.225l.75-1.225H20V4H10v1H8V2h14v13h-5.125zm-1.925-7L15.1 9.775L17.125 11L16.6 8.7l1.8-1.575l-2.375-.2L15.1 4.75l-.925 2.175l-2.375.2L13.6 8.7zM6.6 14q.625 0 1.063-.437T8.1 12.5t-.437-1.062T6.6 11t-1.062.438T5.1 12.5t.438 1.063T6.6 14m0-1.5"/></symbol><symbol id="hd-icon-material-symbols-map-pin-review-rounded" viewBox="0 0 24 24"><path fill="currentColor" d="M3 22q-.425 0-.712-.288T2 21t.288-.712T3 20h2.45q-.7-.65-1.475-1.475T2.55 16.75t-1.1-1.95T1 12.75q0-2.45 1.6-4.1T6.6 7t4 1.65t1.6 4.1q0 1.05-.45 2.05t-1.1 1.95t-1.425 1.775T7.75 20H21q.425 0 .713.288T22 21t-.288.713T21 22zm3.6-8q.625 0 1.063-.437T8.1 12.5t-.437-1.062T6.6 11t-1.062.438T5.1 12.5t.438 1.063T6.6 14m8.4 3.1q-.25 0-.475-.1t-.375-.35l-.6-.975q.3-.725.475-1.463t.175-1.462q0-.575-.075-1.15t-.225-1.1l1.2-.725l1.525.925q.15.1.288 0t.087-.275L16.6 8.7l1.35-1.175q.125-.125.075-.275t-.225-.175l-1.775-.15l-.7-1.625q-.05-.15-.225-.15t-.225.15l-.7 1.625l-2.275.2q-.675-.65-1.512-1.138T8.6 5.25q-.275-.075-.437-.275T8 4.5V4q0-.825.588-1.412T10 2h10q.825 0 1.413.588T22 4v9q0 .825-.587 1.413T20 15h-3.125l-1.025 1.65q-.15.25-.375.35t-.475.1"/></symbol><symbol id="hd-icon-material-symbols-map-pin-review-sharp" viewBox="0 0 24 24"><path fill="currentColor" d="M2 22v-2h3.45q-.7-.65-1.475-1.475T2.55 16.75t-1.1-1.95T1 12.75q0-2.45 1.6-4.1T6.6 7t4 1.65t1.6 4.1q0 1.05-.45 2.05t-1.1 1.95t-1.425 1.775T7.75 20H22v2zm4.6-8q.625 0 1.063-.437T8.1 12.5t-.437-1.062T6.6 11t-1.062.438T5.1 12.5t.438 1.063T6.6 14m8.4 4l-1.45-2.325q.3-.725.475-1.463t.175-1.462q0-.575-.075-1.15t-.225-1.1l1.2-.725L17.125 11L16.6 8.7l1.8-1.575l-2.375-.2L15.1 4.75l-.925 2.175l-2.275.2q-.8-.775-1.775-1.288T8 5.125V2h14v13h-5.125z"/></symbol><symbol id="hd-icon-material-symbols-map-rounded" viewBox="0 0 24 24"><path fill="currentColor" d="M14.35 20.775L9 18.9l-4.65 1.8q-.25.1-.488.063t-.437-.163t-.312-.337T3 19.775V5.75q0-.325.188-.575T3.7 4.8l4.65-1.575q.15-.05.313-.075T9 3.125t.338.025t.312.075L15 5.1l4.65-1.8q.25-.1.488-.062t.437.162t.313.338t.112.487V18.25q0 .325-.187.575t-.513.375l-4.65 1.575q-.15.05-.312.075t-.338.025t-.337-.025t-.313-.075M14 18.55V6.85l-4-1.4v11.7z"/></symbol><symbol id="hd-icon-material-symbols-map-search" viewBox="0 0 24 24"><path fill="currentColor" d="M4.35 20.7q-.5.2-.925-.112T3 19.75v-14q0-.325.188-.575T3.7 4.8L9 3l6 2.1l4.65-1.8q.5-.2.925.113T21 4.25v8.425q-.875-1.275-2.187-1.975T16 10q-.5 0-1 .088t-1 .262v-3.5l-4-1.4v13.075zM20.6 22l-2.55-2.55q-.45.275-.962.413T16 20q-1.65 0-2.825-1.175T12 16t1.175-2.825T16 12t2.825 1.175T20 16q0 .575-.137 1.088t-.413.962L22 20.6zM16 18q.85 0 1.413-.5T18 16q.025-.85-.562-1.425T16 14t-1.425.575T14 16t.575 1.425T16 18"/></symbol><symbol id="hd-icon-material-symbols-map-search-outline" viewBox="0 0 24 24"><path fill="currentColor" d="M16 10V6.85zM4.35 20.7q-.5.2-.925-.112T3 19.75v-14q0-.325.188-.575T3.7 4.8L9 3l6 2.1l4.65-1.8q.5-.2.925.113T21 4.25v8.425q-.375-.575-.888-1.05T19 10.8V5.7l-3 1.15V10q-.525 0-1.025.088T14 10.35v-3.5l-4-1.4v13.075zM5 18.3l3-1.15V5.45l-3 1zm11-.3q.85 0 1.413-.5T18 16q.025-.85-.562-1.425T16 14t-1.425.575T14 16t.575 1.425T16 18m0 2q-1.65 0-2.825-1.175T12 16t1.175-2.825T16 12t2.825 1.175T20 16q0 .575-.137 1.088t-.413.962L22 20.6L20.6 22l-2.55-2.55q-.45.275-.962.413T16 20M8 5.45v11.7z"/></symbol><symbol id="hd-icon-material-symbols-map-search-outline-rounded" viewBox="0 0 24 24"><path fill="currentColor" d="M16 10V6.85zM4.35 20.7q-.5.2-.925-.112T3 19.75v-14q0-.325.188-.575T3.7 4.8l4.65-1.575Q8.675 3.1 9 3.1t.65.125L15 5.1l4.65-1.8q.5-.2.925.113T21 4.25v7.425q0 .425-.287.713t-.713.287t-.712-.288t-.288-.712V5.7l-3 1.15v2.5q0 .425-.288.713T15 10.35t-.712-.287T14 9.35v-2.5l-4-1.4v12.025q0 .475-.262.85t-.688.55zM5 18.3l3-1.15V5.45l-3 1zm11-.3q.85 0 1.413-.5T18 16q.025-.85-.562-1.425T16 14t-1.425.575T14 16t.575 1.425T16 18m0 2q-1.65 0-2.825-1.175T12 16t1.175-2.825T16 12t2.825 1.175T20 16q0 .575-.137 1.088t-.413.962l1.85 1.85q.275.275.275.7t-.275.7t-.7.275t-.7-.275l-1.85-1.85q-.45.275-.962.413T16 20M8 5.45v11.7z"/></symbol><symbol id="hd-icon-material-symbols-map-search-outline-sharp" viewBox="0 0 24 24"><path fill="currentColor" d="M16 10V6.85zM3 21.225V5.05L9 3l6 2.1l6-2.325v9.9q-.375-.575-.888-1.05T19 10.8V5.7l-3 1.15V10q-.525 0-1.025.088T14 10.35v-3.5l-4-1.4v13.075zM5 18.3l3-1.15V5.45l-3 1zm11-.3q.85 0 1.413-.5T18 16q.025-.85-.562-1.425T16 14t-1.425.575T14 16t.575 1.425T16 18m0 2q-1.65 0-2.825-1.175T12 16t1.175-2.825T16 12t2.825 1.175T20 16q0 .575-.137 1.088t-.413.962L22 20.6L20.6 22l-2.55-2.55q-.45.275-.962.413T16 20M8 5.45v11.7z"/></symbol><symbol id="hd-icon-material-symbols-map-search-rounded" viewBox="0 0 24 24"><path fill="currentColor" d="M16 18q.85 0 1.413-.5T18 16q.025-.85-.562-1.425T16 14t-1.425.575T14 16t.575 1.425T16 18m0 2q-1.65 0-2.825-1.175T12 16t1.175-2.825T16 12t2.825 1.175T20 16q0 .575-.137 1.088t-.413.962l1.85 1.85q.275.275.275.7t-.275.7t-.7.275t-.7-.275l-1.85-1.85q-.45.275-.962.413T16 20m-11.65.7q-.5.2-.925-.112T3 19.75v-14q0-.325.188-.575T3.7 4.8l4.65-1.575Q8.675 3.1 9 3.1t.65.125L15 5.1l4.65-1.8q.5-.2.925.113T21 4.25V11q0 .425-.4.575t-.725-.15q-.825-.7-1.812-1.063T16 10h-.425q-.225 0-.425.05q-.45.05-.8-.213T14 9.15v-2.3l-4-1.4v12.025q0 .475-.262.85t-.688.55z"/></symbol><symbol id="hd-icon-material-symbols-map-search-sharp" viewBox="0 0 24 24"><path fill="currentColor" d="M16 18q.85 0 1.413-.5T18 16q.025-.85-.562-1.425T16 14t-1.425.575T14 16t.575 1.425T16 18m0 2q-1.65 0-2.825-1.175T12 16t1.175-2.825T16 12t2.825 1.175T20 16q0 .575-.137 1.088t-.413.962L22 20.6L20.6 22l-2.55-2.55q-.45.275-.962.413T16 20M3 21.225V5.05L9 3l6 2.1l6-2.325v9.9q-.875-1.275-2.187-1.975T16 10q-.5 0-1 .088t-1 .262v-3.5l-4-1.4v13.075z"/></symbol><symbol id="hd-icon-material-symbols-map-sharp" viewBox="0 0 24 24"><path fill="currentColor" d="m15 21l-6-2.1l-6 2.325V5.05L9 3l6 2.1l6-2.325V18.95zm-1-2.45V6.85l-4-1.4v11.7z"/></symbol><symbol id="hd-icon-material-symbols-maps-ugc" viewBox="0 0 24 24"><path fill="currentColor" d="m1 23l1.95-6.7q-.475-1.025-.712-2.1T2 12q0-2.075.788-3.9t2.137-3.175T8.1 2.788T12 2t3.9.788t3.175 2.137T21.213 8.1T22 12t-.788 3.9t-2.137 3.175t-3.175 2.138T12 22q-1.125 0-2.2-.238t-2.1-.712zm10-7h2v-3h3v-2h-3V8h-2v3H8v2h3z"/></symbol><symbol id="hd-icon-material-symbols-maps-ugc-outline" viewBox="0 0 24 24"><path fill="currentColor" d="m1 23l1.95-6.7q-.475-1.025-.712-2.1T2 12q0-2.075.788-3.9t2.137-3.175T8.1 2.788T12 2t3.9.788t3.175 2.137T21.213 8.1T22 12t-.788 3.9t-2.137 3.175t-3.175 2.138T12 22q-1.125 0-2.2-.238t-2.1-.712zm2.95-2.95l3.2-.95q.35-.1.713-.075t.687.175q.8.4 1.675.6T12 20q3.35 0 5.675-2.325T20 12t-2.325-5.675T12 4T6.325 6.325T4 12q0 .9.2 1.775t.6 1.675q.175.325.188.688t-.088.712zM11 16h2v-3h3v-2h-3V8h-2v3H8v2h3zm.975-3.975"/></symbol><symbol id="hd-icon-material-symbols-maps-ugc-outline-rounded" viewBox="0 0 24 24"><path fill="currentColor" d="M2.95 16.3q-.475-1.025-.712-2.1T2 12q0-2.075.788-3.9t2.137-3.175T8.1 2.788T12 2t3.9.788t3.175 2.137T21.213 8.1T22 12t-.788 3.9t-2.137 3.175t-3.175 2.138T12 22q-1.125 0-2.2-.238t-2.1-.712L2.75 22.5q-.575.175-1-.25t-.25-1zm1 3.75l3.2-.95q.35-.1.713-.075t.687.175q.8.4 1.675.6T12 20q3.35 0 5.675-2.325T20 12t-2.325-5.675T12 4T6.325 6.325T4 12q0 .9.2 1.775t.6 1.675q.175.325.188.688t-.088.712zM11 13v2q0 .425.288.713T12 16t.713-.288T13 15v-2h2q.425 0 .713-.288T16 12t-.288-.712T15 11h-2V9q0-.425-.288-.712T12 8t-.712.288T11 9v2H9q-.425 0-.712.288T8 12t.288.713T9 13zm.975-.975"/></symbol><symbol id="hd-icon-material-symbols-maps-ugc-rounded" viewBox="0 0 24 24"><path fill="currentColor" d="M2.95 16.3q-.475-1.025-.712-2.1T2 12q0-2.075.788-3.9t2.137-3.175T8.1 2.788T12 2t3.9.788t3.175 2.137T21.213 8.1T22 12t-.788 3.9t-2.137 3.175t-3.175 2.138T12 22q-1.125 0-2.2-.238t-2.1-.712L2.75 22.5q-.575.175-1-.25t-.25-1zM11 13v2q0 .425.288.713T12 16t.713-.288T13 15v-2h2q.425 0 .713-.288T16 12t-.288-.712T15 11h-2V9q0-.425-.288-.712T12 8t-.712.288T11 9v2H9q-.425 0-.712.288T8 12t.288.713T9 13z"/></symbol><symbol id="hd-icon-material-symbols-margin" viewBox="0 0 24 24"><path fill="currentColor" d="M5 21q-.825 0-1.412-.587T3 19V5q0-.825.588-1.412T5 3h14q.825 0 1.413.588T21 5v14q0 .825-.587 1.413T19 21zM8 9q.425 0 .713-.288T9 8t-.288-.712T8 7t-.712.288T7 8t.288.713T8 9m4 0q.425 0 .713-.288T13 8t-.288-.712T12 7t-.712.288T11 8t.288.713T12 9m4 0q.425 0 .713-.288T17 8t-.288-.712T16 7t-.712.288T15 8t.288.713T16 9m0 4q.425 0 .713-.288T17 12t-.288-.712T16 11t-.712.288T15 12t.288.713T16 13m-4 0q.425 0 .713-.288T13 12t-.288-.712T12 11t-.712.288T11 12t.288.713T12 13m-4 0q.425 0 .713-.288T9 12t-.288-.712T8 11t-.712.288T7 12t.288.713T8 13"/></symbol><symbol id="hd-icon-material-symbols-margin-outline" viewBox="0 0 24 24"><path fill="currentColor" d="M5 21q-.825 0-1.412-.587T3 19V5q0-.825.588-1.412T5 3h14q.825 0 1.413.588T21 5v14q0 .825-.587 1.413T19 21zm0-2h14V5H5zM5 5v14zm3 4q.425 0 .713-.288T9 8t-.288-.712T8 7t-.712.288T7 8t.288.713T8 9m4 0q.425 0 .713-.288T13 8t-.288-.712T12 7t-.712.288T11 8t.288.713T12 9m4 0q.425 0 .713-.288T17 8t-.288-.712T16 7t-.712.288T15 8t.288.713T16 9m0 4q.425 0 .713-.288T17 12t-.288-.712T16 11t-.712.288T15 12t.288.713T16 13m-4 0q.425 0 .713-.288T13 12t-.288-.712T12 11t-.712.288T11 12t.288.713T12 13m-4 0q.425 0 .713-.288T9 12t-.288-.712T8 11t-.712.288T7 12t.288.713T8 13"/></symbol><symbol id="hd-icon-material-symbols-margin-outline-sharp" viewBox="0 0 24 24"><path fill="currentColor" d="M3 21V3h18v18zm2-2h14V5H5zm0 0V5zM7 9V7h2v2zm4 0V7h2v2zm4 0V7h2v2zm-8 4v-2h2v2zm4 0v-2h2v2zm4 0v-2h2v2z"/></symbol><symbol id="hd-icon-material-symbols-margin-sharp" viewBox="0 0 24 24"><path fill="currentColor" d="M3 21V3h18v18zM7 9h2V7H7zm4 0h2V7h-2zm4 0h2V7h-2zm-8 4h2v-2H7zm4 0h2v-2h-2zm4 0h2v-2h-2z"/></symbol><symbol id="hd-icon-material-symbols-mark-as-unread" viewBox="0 0 24 24"><path fill="currentColor" d="M4 17q-.825 0-1.412-.587T2 15V7.15q0-.375.213-.737T2.8 5.85L10.5 2l7.55 3.85q.3.15.513.475T18.85 7h-2.925L10.5 4.25L4 7.475zm3 4q-.825 0-1.412-.587T5 19v-9q0-.825.588-1.412T7 8h13q.825 0 1.413.588T22 10v9q0 .825-.587 1.413T20 21zm6.5-5.65L20 12v-2l-6.5 3.35L7 10v2z"/></symbol><symbol id="hd-icon-material-symbols-mark-as-unread-outline" viewBox="0 0 24 24"><path fill="currentColor" d="M4 17q-.825 0-1.412-.587T2 15V7.15q0-.375.213-.737T2.8 5.85L10.5 2l7.55 3.85q.3.15.513.475T18.85 7h-2.925L10.5 4.25L4 7.475zm3 4q-.825 0-1.412-.587T5 19v-9q0-.825.588-1.412T7 8h13q.825 0 1.413.588T22 10v9q0 .825-.587 1.413T20 21zm6.5-5.65L7 12v7h13v-7zm0-2L20 10H7zM20 10H7z"/></symbol><symbol id="hd-icon-material-symbols-mark-as-unread-outline-rounded" viewBox="0 0 24 24"><path fill="currentColor" d="M4 17q-.825 0-1.412-.587T2 15V7.15q0-.375.213-.737T2.8 5.85l6.8-3.4q.425-.2.9-.213t.9.213l6.65 3.4q.3.15.513.475T18.85 7h-2.925L10.5 4.25L4 7.475zm3 4q-.825 0-1.412-.587T5 19v-9q0-.825.588-1.412T7 8h13q.825 0 1.413.588T22 10v9q0 .825-.587 1.413T20 21zm5.575-6.125L7 12v7h13v-7l-5.575 2.875Q14 15.1 13.5 15.1t-.925-.225m.925-1.525L20 10H7zM20 10H7z"/></symbol><symbol id="hd-icon-material-symbols-mark-as-unread-outline-sharp" viewBox="0 0 24 24"><path fill="currentColor" d="M2 17V6.25L10.5 2l9.8 5h-4.375L10.5 4.25L4 7.475V17zm3 4V8h17v13zm8.5-5.65L7 12v7h13v-7zm0-2L20 10H7zM20 10H7z"/></symbol><symbol id="hd-icon-material-symbols-mark-as-unread-rounded" viewBox="0 0 24 24"><path fill="currentColor" d="M4 17q-.825 0-1.412-.587T2 15V7.15q0-.375.213-.737T2.8 5.85l6.8-3.4q.425-.2.9-.213t.9.213l6.65 3.4q.3.15.513.475T18.85 7h-2.925L10.5 4.25L4 7.475zm3 4q-.825 0-1.412-.587T5 19v-9q0-.825.588-1.412T7 8h13q.825 0 1.413.588T22 10v9q0 .825-.587 1.413T20 21zm6.5-5.9q.25 0 .488-.05t.437-.175l5.1-2.625q.225-.125.35-.338T20 11.45q0-.5-.425-.75t-.875-.025l-5.2 2.675l-5.2-2.675q-.45-.225-.875.025T7 11.45q0 .25.125.463t.35.337l5.1 2.625q.2.125.438.175t.487.05"/></symbol><symbol id="hd-icon-material-symbols-mark-as-unread-sharp" viewBox="0 0 24 24"><path fill="currentColor" d="M2 17V6.25L10.5 2l9.8 5h-4.375L10.5 4.25L4 7.475V17zm3 4V8h17v13zm8.5-5.65L20 12v-2l-6.5 3.35L7 10v2z"/></symbol><symbol id="hd-icon-material-symbols-mark-chat-read" viewBox="0 0 24 24"><path fill="currentColor" d="m17.35 20l-3.525-3.55l1.4-1.4l2.125 2.125l4.25-4.25L23 14.35zM2 22V4q0-.825.588-1.412T4 2h16q.825 0 1.413.588T22 4v7H12v7H6z"/></symbol><symbol id="hd-icon-material-symbols-mark-chat-read-outline" viewBox="0 0 24 24"><path fill="currentColor" d="m17.35 20l-3.525-3.55l1.4-1.4l2.125 2.125l4.25-4.25L23 14.35zM2 22V4q0-.825.588-1.412T4 2h16q.825 0 1.413.588T22 4v7h-2V4H4v13.125L5.15 16H12v2H6zm2-6V4z"/></symbol><symbol id="hd-icon-material-symbols-mark-chat-read-outline-rounded" viewBox="0 0 24 24"><path fill="currentColor" d="m17.35 17.175l3.55-3.55q.3-.3.7-.288t.7.313q.275.3.288.7t-.288.7l-4.25 4.25q-.3.3-.7.3t-.7-.3l-2.125-2.15q-.275-.275-.287-.687t.287-.713q.275-.275.7-.275t.7.275zM6 18l-2.3 2.3q-.475.475-1.088.213T2 19.575V4q0-.825.588-1.412T4 2h16q.825 0 1.413.588T22 4v6q0 .425-.288.713T21 11t-.712-.288T20 10V4H4v13.125L5.15 16H11q.425 0 .713.288T12 17t-.288.713T11 18zm-2-2V4z"/></symbol><symbol id="hd-icon-material-symbols-mark-chat-read-outline-sharp" viewBox="0 0 24 24"><path fill="currentColor" d="m17.35 20l-3.525-3.55l1.4-1.4l2.125 2.125l4.25-4.25L23 14.35zM2 22V2h20v9h-2V4H4v13.125L5.15 16H12v2H6zm2-6V4z"/></symbol><symbol id="hd-icon-material-symbols-mark-chat-read-rounded" viewBox="0 0 24 24"><path fill="currentColor" d="m17.35 17.175l3.55-3.55q.3-.3.7-.288t.7.313q.275.3.288.7t-.288.7l-4.25 4.25q-.3.3-.7.3t-.7-.3l-2.125-2.15q-.275-.275-.287-.687t.287-.713q.275-.275.7-.275t.7.275zM6 18l-2.3 2.3q-.475.475-1.088.213T2 19.575V4q0-.825.588-1.412T4 2h16q.825 0 1.413.588T22 4v6q0 .425-.288.713T21 11h-7q-.825 0-1.412.588T12 13v4q0 .425-.288.713T11 18z"/></symbol><symbol id="hd-icon-material-symbols-mark-chat-read-sharp" viewBox="0 0 24 24"><path fill="currentColor" d="m17.35 20l-3.525-3.55l1.4-1.4l2.125 2.125l4.25-4.25L23 14.35zM2 22V2h20v9H12v7H6z"/></symbol><symbol id="hd-icon-material-symbols-mark-chat-unread" viewBox="0 0 24 24"><path fill="currentColor" d="M19 6q-1.25 0-2.125-.875T16 3t.875-2.125T19 0t2.125.875T22 3t-.875 2.125T19 6M2 22V4q0-.825.588-1.412T4 2h10.1q-.1.5-.1 1t.1 1q.35 1.75 1.725 2.875T19 8q.8 0 1.575-.25T22 7v9q0 .825-.587 1.413T20 18H6z"/></symbol><symbol id="hd-icon-material-symbols-mark-chat-unread-outline" viewBox="0 0 24 24"><path fill="currentColor" d="M2 22V4q0-.825.588-1.412T4 2h10.1q-.1.5-.1 1t.1 1H4v13.125L5.15 16H20V7.9q.575-.125 1.075-.337T22 7v9q0 .825-.587 1.413T20 18H6zM4 4v12zm15 2q-1.25 0-2.125-.875T16 3t.875-2.125T19 0t2.125.875T22 3t-.875 2.125T19 6"/></symbol><symbol id="hd-icon-material-symbols-mark-chat-unread-outline-rounded" viewBox="0 0 24 24"><path fill="currentColor" d="m6 18l-2.3 2.3q-.475.475-1.088.213T2 19.575V4q0-.825.588-1.412T4 2h9q.425 0 .713.288T14 3t-.288.713T13 4H4v13.125L5.15 16H20V9q0-.425.288-.712T21 8t.713.288T22 9v7q0 .825-.587 1.413T20 18zM19 6q-1.25 0-2.125-.875T16 3t.875-2.125T19 0t2.125.875T22 3t-.875 2.125T19 6M4 4v12z"/></symbol><symbol id="hd-icon-material-symbols-mark-chat-unread-outline-sharp" viewBox="0 0 24 24"><path fill="currentColor" d="M2 22V2h12.1q-.1.5-.1 1t.1 1H4v13.125L5.15 16H20V7.9q.575-.125 1.075-.337T22 7v11H6zM4 4v12zm15 2q-1.25 0-2.125-.875T16 3t.875-2.125T19 0t2.125.875T22 3t-.875 2.125T19 6"/></symbol><symbol id="hd-icon-material-symbols-mark-chat-unread-rounded" viewBox="0 0 24 24"><path fill="currentColor" d="M19 6q-1.25 0-2.125-.875T16 3t.875-2.125T19 0t2.125.875T22 3t-.875 2.125T19 6M6 18l-2.3 2.3q-.475.475-1.088.213T2 19.575V4q0-.825.588-1.412T4 2h9.1q.4 0 .663.3T14 3q0 1.125.488 2.125T15.85 6.85q.65.525 1.463.838T19 8q.45 0 .9-.075t.875-.25t.825.05t.4.65V16q0 .825-.588 1.413T20 18z"/></symbol><symbol id="hd-icon-material-symbols-mark-chat-unread-sharp" viewBox="0 0 24 24"><path fill="currentColor" d="M19 6q-1.25 0-2.125-.875T16 3t.875-2.125T19 0t2.125.875T22 3t-.875 2.125T19 6M2 22V2h12.1q-.1.5-.1 1t.1 1q.35 1.725 1.725 2.863T19 8q.8 0 1.575-.25T22 7v11H6z"/></symbol><symbol id="hd-icon-material-symbols-mark-email-read" viewBox="0 0 24 24"><path fill="currentColor" d="m15.95 22l-4.25-4.25l1.4-1.4l2.85 2.85l5.65-5.65l1.4 1.4zM4 20q-.825 0-1.412-.587T2 18V6q0-.825.588-1.412T4 4h16q.825 0 1.413.588T22 6v4.35l-6.025 6.025L13.1 13.5l-4.225 4.225L11.15 20zm8-7l8-5V6l-8 5l-8-5v2z"/></symbol><symbol id="hd-icon-material-symbols-mark-email-read-outline" viewBox="0 0 24 24"><path fill="currentColor" d="m15.95 22l-4.25-4.25l1.4-1.4l2.85 2.85l5.65-5.65l1.4 1.4zM12 11l8-5H4zm0 2L4 8v10h5.15l2 2H4q-.825 0-1.412-.587T2 18V6q0-.825.588-1.412T4 4h16q.825 0 1.413.588T22 6v4.35l-2 2V8zm0 0"/></symbol><symbol id="hd-icon-material-symbols-mark-email-read-outline-rounded" viewBox="0 0 24 24"><path fill="currentColor" d="m4 6l8 5l8-5zm0 14q-.825 0-1.412-.587T2 18V6q0-.825.588-1.412T4 4h16q.825 0 1.413.588T22 6v5q0 .425-.288.713T21 12t-.712-.288T20 11V8l-7.475 4.675q-.075.05-.525.15q-.125 0-.262-.037t-.263-.113L4 8v10h5.5q.425 0 .713.288T10.5 19t-.288.713T9.5 20zm11.95-.8l4.95-4.95q.275-.275.7-.275t.7.275t.275.7t-.275.7l-5.65 5.65q-.3.3-.7.3t-.7-.3l-2.85-2.85q-.275-.275-.275-.7t.275-.7t.7-.275t.7.275z"/></symbol><symbol id="hd-icon-material-symbols-mark-email-read-outline-sharp" viewBox="0 0 24 24"><path fill="currentColor" d="m15.95 22l-4.25-4.25l1.4-1.4l2.85 2.85l5.65-5.65l1.4 1.4zM12 11l8-5H4zm0 2L4 8v10h5.15l2 2H2V4h20v6.35l-2 2V8zm0 0"/></symbol><symbol id="hd-icon-material-symbols-mark-email-read-rounded" viewBox="0 0 24 24"><path fill="currentColor" d="M4 20q-.825 0-1.412-.587T2 18V6q0-.825.588-1.412T4 4h16q.825 0 1.413.588T22 6v3.525q0 .4-.15.763t-.425.637l-5.45 5.45l-1.45-1.45q-.575-.575-1.425-.575t-1.425.575L10.3 16.3q-.6.6-.488 1.475t.688 1.55q.175.2.075.438T10.2 20zm8-9L5.3 6.8q-.425-.275-.862-.025T4 7.525q0 .225.1.413t.3.312l7.075 4.425q.25.15.525.15t.525-.15L19.6 8.25q.2-.125.3-.312t.1-.413q0-.5-.437-.75T18.7 6.8zm3.95 8.2l4.95-4.95q.275-.275.7-.275t.7.275t.275.7t-.275.7l-5.65 5.65q-.15.15-.325.225t-.375.075t-.375-.075t-.325-.225l-2.85-2.85q-.275-.275-.275-.7t.275-.7t.7-.275t.7.275z"/></symbol><symbol id="hd-icon-material-symbols-mark-email-read-sharp" viewBox="0 0 24 24"><path fill="currentColor" d="m15.95 22l-4.25-4.25l1.4-1.4l2.85 2.85l5.65-5.65l1.4 1.4zM2 20V4h20v6.35l-6.025 6.025L13.1 13.5l-4.225 4.225L11.15 20zm10-7l8-5V6l-8 5l-8-5v2z"/></symbol><symbol id="hd-icon-material-symbols-mark-email-unread" viewBox="0 0 24 24"><path fill="currentColor" d="M19 8q-1.25 0-2.125-.875T16 5t.875-2.125T19 2t2.125.875T22 5t-.875 2.125T19 8M4 20q-.825 0-1.412-.587T2 18V6q0-.825.588-1.412T4 4h10.1q-.1.5-.1 1t.1 1q.175.8.575 1.488T15.65 8.7L12 11L4 6v2l8 5l5.275-3.3q.425.15.85.225T19 10q.8 0 1.575-.25T22 9v9q0 .825-.587 1.413T20 20z"/></symbol><symbol id="hd-icon-material-symbols-mark-email-unread-outline" viewBox="0 0 24 24"><path fill="currentColor" d="M4 20q-.825 0-1.412-.587T2 18V6q0-.825.588-1.412T4 4h10.1q-.1.5-.1 1t.1 1H4l8 5l3.65-2.275q.35.325.763.563t.862.412L12 13L4 8v10h16V9.9q.575-.125 1.075-.35T22 9v9q0 .825-.587 1.413T20 20zM4 6v12zm15 2q-1.25 0-2.125-.875T16 5t.875-2.125T19 2t2.125.875T22 5t-.875 2.125T19 8"/></symbol><symbol id="hd-icon-material-symbols-mark-email-unread-outline-rounded" viewBox="0 0 24 24"><path fill="currentColor" d="M4 20q-.825 0-1.412-.587T2 18V6q0-.825.588-1.412T4 4h9q.425 0 .713.288T14 5t-.288.713T13 6H4v12h16v-7q0-.425.288-.712T21 10t.713.288T22 11v7q0 .825-.587 1.413T20 20zM4 6v12zm8 5l3.225-2q.35-.225.663-.112t.487.387t.125.6t-.4.55l-3.575 2.25q-.25.15-.525.15t-.525-.15L4 8V6zm7-3q-1.25 0-2.125-.875T16 5t.875-2.125T19 2t2.125.875T22 5t-.875 2.125T19 8"/></symbol><symbol id="hd-icon-material-symbols-mark-email-unread-outline-sharp" viewBox="0 0 24 24"><path fill="currentColor" d="M2 20V4h12.1q-.1.5-.1 1t.1 1H4l8 5l3.65-2.275q.35.325.763.563t.862.412L12 13L4 8v10h16V9.9q.575-.125 1.075-.35T22 9v11zM4 6v12zm15 2q-1.25 0-2.125-.875T16 5t.875-2.125T19 2t2.125.875T22 5t-.875 2.125T19 8"/></symbol><symbol id="hd-icon-material-symbols-mark-email-unread-rounded" viewBox="0 0 24 24"><path fill="currentColor" d="M19 8q-1.25 0-2.125-.875T16 5t.875-2.125T19 2t2.125.875T22 5t-.875 2.125T19 8M4 20q-.825 0-1.412-.587T2 18V6q0-.825.588-1.412T4 4h9.1q.4 0 .663.3T14 5q0 .275.025.513T14.1 6q.175.8.575 1.488T15.65 8.7L12 11L5.3 6.8q-.425-.275-.863-.025T4 7.525q0 .225.1.413t.3.312l7.075 4.425q.25.15.525.15t.525-.15l4.75-2.975q.425.15.85.225T19 10t.9-.075t.875-.25t.825.05t.4.65V18q0 .825-.588 1.413T20 20z"/></symbol><symbol id="hd-icon-material-symbols-mark-email-unread-sharp" viewBox="0 0 24 24"><path fill="currentColor" d="M19 8q-1.25 0-2.125-.875T16 5t.875-2.125T19 2t2.125.875T22 5t-.875 2.125T19 8M2 20V4h12.1q-.1.5-.1 1t.1 1q.175.8.575 1.488T15.65 8.7L12 11L4 6v2l8 5l5.275-3.3q.425.15.85.225T19 10q.8 0 1.575-.25T22 9v11z"/></symbol><symbol id="hd-icon-material-symbols-mark-unread-chat-alt" viewBox="0 0 24 24"><path fill="currentColor" d="M19 6q-1.25 0-2.125-.875T16 3t.875-2.125T19 0t2.125.875T22 3t-.875 2.125T19 6M2 22V4q0-.825.588-1.412T4 2h10.1q-.1.5-.1 1t.1 1q.125.575.35 1.075T15 6H6v2h13q.8 0 1.575-.25T22 7v9q0 .825-.587 1.413T20 18H6zm4-11h12V9H6zm0 3h8v-2H6z"/></symbol><symbol id="hd-icon-material-symbols-mark-unread-chat-alt-outline" viewBox="0 0 24 24"><path fill="currentColor" d="M6 14h8v-2H6zm0-3h12V9H6zm0-3h12v-.1q-.925-.2-1.687-.687T15 6H6zM2 22V4q0-.825.588-1.412T4 2h10.1q-.1.5-.1 1t.1 1H4v13.125L5.15 16H20V7.9q.575-.125 1.075-.337T22 7v9q0 .825-.587 1.413T20 18H6zM4 4v12zm15 2q-1.25 0-2.125-.875T16 3t.875-2.125T19 0t2.125.875T22 3t-.875 2.125T19 6"/></symbol><symbol id="hd-icon-material-symbols-mark-unread-chat-alt-outline-rounded" viewBox="0 0 24 24"><path fill="currentColor" d="M7 14h6q.425 0 .713-.288T14 13t-.288-.712T13 12H7q-.425 0-.712.288T6 13t.288.713T7 14m0-3h10q.425 0 .713-.288T18 10t-.288-.712T17 9H7q-.425 0-.712.288T6 10t.288.713T7 11m0-3h8q.425 0 .713-.288T16 7t-.288-.712T15 6H7q-.425 0-.712.288T6 7t.288.713T7 8M6 18l-2.3 2.3q-.475.475-1.088.213T2 19.575V4q0-.825.588-1.412T4 2h9q.425 0 .713.288T14 3t-.288.713T13 4H4v13.125L5.15 16H20V9q0-.425.288-.712T21 8t.713.288T22 9v7q0 .825-.587 1.413T20 18zM19 6q-1.25 0-2.125-.875T16 3t.875-2.125T19 0t2.125.875T22 3t-.875 2.125T19 6M4 4v12z"/></symbol><symbol id="hd-icon-material-symbols-mark-unread-chat-alt-outline-sharp" viewBox="0 0 24 24"><path fill="currentColor" d="M6 14h8v-2H6zm0-3h12V9H6zm0-3h12v-.1q-.925-.2-1.687-.687T15 6H6zM2 22V2h12.1q-.1.5-.1 1t.1 1H4v13.125L5.15 16H20V7.9q.575-.125 1.075-.337T22 7v11H6zM4 4v12zm15 2q-1.25 0-2.125-.875T16 3t.875-2.125T19 0t2.125.875T22 3t-.875 2.125T19 6"/></symbol><symbol id="hd-icon-material-symbols-mark-unread-chat-alt-rounded" viewBox="0 0 24 24"><path fill="currentColor" d="M19 6q-1.25 0-2.125-.875T16 3t.875-2.125T19 0t2.125.875T22 3t-.875 2.125T19 6M6 18l-2.3 2.3q-.475.475-1.088.213T2 19.575V4q0-.825.588-1.412T4 2h10.1q-.1.5-.1 1t.1 1q.125.575.35 1.075T15 6H7q-.425 0-.712.288T6 7t.288.713T7 8h12q.8 0 1.575-.25T22 7v9q0 .825-.587 1.413T20 18zm1-7h10q.425 0 .713-.288T18 10t-.288-.712T17 9H7q-.425 0-.712.288T6 10t.288.713T7 11m0 3h6q.425 0 .713-.288T14 13t-.288-.712T13 12H7q-.425 0-.712.288T6 13t.288.713T7 14"/></symbol><symbol id="hd-icon-material-symbols-mark-unread-chat-alt-sharp" viewBox="0 0 24 24"><path fill="currentColor" d="M19 6q-1.25 0-2.125-.875T16 3t.875-2.125T19 0t2.125.875T22 3t-.875 2.125T19 6M2 22V2h12.1q-.1.5-.1 1t.1 1q.125.575.35 1.075T15 6H6v2h13q.8 0 1.575-.25T22 7v11H6zm4-11h12V9H6zm0 3h8v-2H6z"/></symbol><symbol id="hd-icon-material-symbols-markdown" viewBox="0 0 24 24"><path fill="currentColor" d="m16 15l3-3l-1.05-1.075l-1.2 1.2V9h-1.5v3.125l-1.2-1.2L13 12zM4 20q-.825 0-1.412-.587T2 18V6q0-.825.588-1.412T4 4h16q.825 0 1.413.588T22 6v12q0 .825-.587 1.413T20 20zm1.5-5H7v-4.5h1v3h1.5v-3h1V15H12v-5q0-.425-.288-.712T11 9H6.5q-.425 0-.712.288T5.5 10z"/></symbol><symbol id="hd-icon-material-symbols-markdown-copy" viewBox="0 0 24 24"><path fill="currentColor" d="M9 18q-.825 0-1.412-.587T7 16V4q0-.825.588-1.412T9 2h9q.825 0 1.413.588T20 4v12q0 .825-.587 1.413T18 18zm-4 4q-.825 0-1.412-.587T3 20V6h2v14h11v2zm5.25-9h1.5V8.5h1v3h1.5v-3h1V13h1.5V8q0-.425-.288-.712T15.75 7h-4.5q-.425 0-.712.288T10.25 8z"/></symbol><symbol id="hd-icon-material-symbols-markdown-copy-outline" viewBox="0 0 24 24"><path fill="currentColor" d="M9 18q-.825 0-1.412-.587T7 16V4q0-.825.588-1.412T9 2h9q.825 0 1.413.588T20 4v12q0 .825-.587 1.413T18 18zm0-2h9V4H9zm-4 6q-.825 0-1.412-.587T3 20V6h2v14h11v2zm5.25-9h1.5V8.5h1v3h1.5v-3h1V13h1.5V8q0-.425-.288-.712T15.75 7h-4.5q-.425 0-.712.288T10.25 8zM9 16V4z"/></symbol><symbol id="hd-icon-material-symbols-markdown-copy-outline-rounded" viewBox="0 0 24 24"><path fill="currentColor" d="M9 18q-.825 0-1.412-.587T7 16V4q0-.825.588-1.412T9 2h9q.825 0 1.413.588T20 4v12q0 .825-.587 1.413T18 18zm0-2h9V4H9zm-4 6q-.825 0-1.412-.587T3 20V7q0-.425.288-.712T4 6t.713.288T5 7v13h10q.425 0 .713.288T16 21t-.288.713T15 22zm6.75-13.5h1v2.25q0 .325.213.538t.537.212t.538-.213t.212-.537V8.5h1v3.75q0 .325.213.538T16 13t.538-.213t.212-.537V8q0-.425-.288-.712T15.75 7h-4.5q-.425 0-.712.288T10.25 8v4.25q0 .325.213.538T11 13t.538-.213t.212-.537zM9 16V4z"/></symbol><symbol id="hd-icon-material-symbols-markdown-copy-outline-sharp" viewBox="0 0 24 24"><path fill="currentColor" d="M7 18V2h13v16zm2-2h9V4H9zm-6 6V6h2v14h11v2zm7.25-9h1.5V8.5h1v3h1.5v-3h1V13h1.5V7h-6.5zM9 16V4z"/></symbol><symbol id="hd-icon-material-symbols-markdown-copy-rounded" viewBox="0 0 24 24"><path fill="currentColor" d="M9 18q-.825 0-1.412-.587T7 16V4q0-.825.588-1.412T9 2h9q.825 0 1.413.588T20 4v12q0 .825-.587 1.413T18 18zm-4 4q-.825 0-1.412-.587T3 20V7q0-.425.288-.712T4 6t.713.288T5 7v13h10q.425 0 .713.288T16 21t-.288.713T15 22zm6.75-13.5h1v2.25q0 .325.213.538t.537.212t.538-.213t.212-.537V8.5h1v3.75q0 .325.213.538T16 13t.538-.213t.212-.537V8q0-.425-.288-.712T15.75 7h-4.5q-.425 0-.712.288T10.25 8v4.25q0 .325.213.538T11 13t.538-.213t.212-.537z"/></symbol><symbol id="hd-icon-material-symbols-markdown-copy-sharp" viewBox="0 0 24 24"><path fill="currentColor" d="M7 18V2h13v16zm-4 4V6h2v14h11v2zm7.25-9h1.5V8.5h1v3h1.5v-3h1V13h1.5V7h-6.5z"/></symbol><symbol id="hd-icon-material-symbols-markdown-outline" viewBox="0 0 24 24"><path fill="currentColor" d="m16 15l3-3l-1.05-1.075l-1.2 1.2V9h-1.5v3.125l-1.2-1.2L13 12zM4 20q-.825 0-1.412-.587T2 18V6q0-.825.588-1.412T4 4h16q.825 0 1.413.588T22 6v12q0 .825-.587 1.413T20 20zm0-2h16V6H4zm0 0V6zm1.5-3H7v-4.5h1v3h1.5v-3h1V15H12v-5q0-.425-.288-.712T11 9H6.5q-.425 0-.712.288T5.5 10z"/></symbol><symbol id="hd-icon-material-symbols-markdown-outline-rounded" viewBox="0 0 24 24"><path fill="currentColor" d="m15.25 12.125l-.675-.675q-.225-.225-.525-.213t-.525.238T13.3 12t.225.525L15.3 14.3q.3.3.7.3t.7-.3l1.775-1.775Q18.7 12.3 18.7 12t-.225-.525t-.538-.225t-.537.225l-.65.65V9.75q0-.325-.213-.537T16 9t-.537.213t-.213.537zM4 20q-.825 0-1.412-.587T2 18V6q0-.825.588-1.412T4 4h16q.825 0 1.413.588T22 6v12q0 .825-.587 1.413T20 20zm0-2h16V6H4zm0 0V6zm3-7.5h1v2.25q0 .325.213.538t.537.212t.538-.213t.212-.537V10.5h1v3.75q0 .325.213.538t.537.212t.538-.213t.212-.537V10q0-.425-.288-.712T11 9H6.5q-.425 0-.712.288T5.5 10v4.25q0 .325.213.538T6.25 15t.538-.213T7 14.25z"/></symbol><symbol id="hd-icon-material-symbols-markdown-outline-sharp" viewBox="0 0 24 24"><path fill="currentColor" d="m16 15l3-3l-1.05-1.075l-1.2 1.2V9h-1.5v3.125l-1.2-1.2L13 12zM2 20V4h20v16zm2-2h16V6H4zm0 0V6zm1.5-3H7v-4.5h1v3h1.5v-3h1V15H12V9H5.5z"/></symbol><symbol id="hd-icon-material-symbols-markdown-paste" viewBox="0 0 24 24"><path fill="currentColor" d="M12 21v-7q0-.825.588-1.412T14 12h6q.825 0 1.413.588T22 14v7h-2v-7h-2v5h-2v-5h-2v7zm-7 0q-.825 0-1.412-.587T3 19V5q0-.825.588-1.412T5 3h4.175q.275-.875 1.075-1.437T12 1q1 0 1.788.563T14.85 3H19q.825 0 1.413.588T21 5v5h-2V5h-2v3H7V5H5v14h5v2zm7-16q.425 0 .713-.288T13 4t-.288-.712T12 3t-.712.288T11 4t.288.713T12 5"/></symbol><symbol id="hd-icon-material-symbols-markdown-paste-rounded" viewBox="0 0 24 24"><path fill="currentColor" d="M13 21q-.425 0-.712-.288T12 20v-6q0-.825.588-1.412T14 12h6q.825 0 1.413.588T22 14v6q0 .425-.288.713T21 21t-.712-.288T20 20v-6h-2v4q0 .425-.288.713T17 19t-.712-.288T16 18v-4h-2v6q0 .425-.288.713T13 21m-8 0q-.825 0-1.412-.587T3 19V5q0-.825.588-1.412T5 3h4.175q.275-.875 1.075-1.437T12 1q1 0 1.788.563T14.85 3H19q.825 0 1.413.588T21 5v4q0 .425-.288.713T20 10t-.712-.288T19 9V5h-2v2q0 .425-.288.713T16 8H8q-.425 0-.712-.288T7 7V5H5v14h4q.425 0 .713.288T10 20t-.288.713T9 21zm7-16q.425 0 .713-.288T13 4t-.288-.712T12 3t-.712.288T11 4t.288.713T12 5"/></symbol><symbol id="hd-icon-material-symbols-markdown-paste-sharp" viewBox="0 0 24 24"><path fill="currentColor" d="M12 21v-9h10v9h-2v-7h-2v5h-2v-5h-2v7zm-9 0V3h6.175q.275-.875 1.075-1.437T12 1q1 0 1.788.563T14.85 3H21v7h-2V5h-2v3H7V5H5v14h5v2zm9-16q.425 0 .713-.288T13 4t-.288-.712T12 3t-.712.288T11 4t.288.713T12 5"/></symbol><symbol id="hd-icon-material-symbols-markdown-rounded" viewBox="0 0 24 24"><path fill="currentColor" d="m15.25 12.125l-.675-.675q-.225-.225-.525-.213t-.525.238T13.3 12t.225.525L15.3 14.3q.3.3.7.3t.7-.3l1.775-1.775Q18.7 12.3 18.7 12t-.225-.525t-.538-.225t-.537.225l-.65.65V9.75q0-.325-.213-.537T16 9t-.537.213t-.213.537zM4 20q-.825 0-1.412-.587T2 18V6q0-.825.588-1.412T4 4h16q.825 0 1.413.588T22 6v12q0 .825-.587 1.413T20 20zm3-9.5h1v2.25q0 .325.213.538t.537.212t.538-.213t.212-.537V10.5h1v3.75q0 .325.213.538t.537.212t.538-.213t.212-.537V10q0-.425-.288-.712T11 9H6.5q-.425 0-.712.288T5.5 10v4.25q0 .325.213.538T6.25 15t.538-.213T7 14.25z"/></symbol><symbol id="hd-icon-material-symbols-markdown-sharp" viewBox="0 0 24 24"><path fill="currentColor" d="m16 15l3-3l-1.05-1.075l-1.2 1.2V9h-1.5v3.125l-1.2-1.2L13 12zM2 20V4h20v16zm3.5-5H7v-4.5h1v3h1.5v-3h1V15H12V9H5.5z"/></symbol><symbol id="hd-icon-material-symbols-markunread-mailbox" viewBox="0 0 24 24"><path fill="currentColor" d="M4 22q-.825 0-1.412-.587T2 20V10q0-.825.588-1.412T4 8h2V2h8v4H8v8h2V8h10q.825 0 1.413.588T22 10v10q0 .825-.587 1.413T20 22z"/></symbol><symbol id="hd-icon-material-symbols-markunread-mailbox-outline" viewBox="0 0 24 24"><path fill="currentColor" d="M6 14v-4H4v10h16V10H10V8h10q.825 0 1.413.588T22 10v10q0 .825-.587 1.413T20 22H4q-.825 0-1.412-.587T2 20V10q0-.825.588-1.412T4 8h2V2h8v4H8v8zm-2-4v4zv10z"/></symbol><symbol id="hd-icon-material-symbols-markunread-mailbox-outline-rounded" viewBox="0 0 24 24"><path fill="currentColor" d="M6 10H4v10h16V10h-9q-.425 0-.712-.288T10 9t.288-.712T11 8h9q.825 0 1.413.588T22 10v10q0 .825-.587 1.413T20 22H4q-.825 0-1.412-.587T2 20V10q0-.825.588-1.412T4 8h2V3q0-.425.288-.712T7 2h6q.425 0 .713.288T14 3v2q0 .425-.288.713T13 6H8v7q0 .425-.288.713T7 14t-.712-.288T6 13zm-2 0v10zv4z"/></symbol><symbol id="hd-icon-material-symbols-markunread-mailbox-outline-sharp" viewBox="0 0 24 24"><path fill="currentColor" d="M6 14v-4H4v10h16V10H10V8h12v14H2V8h4V2h8v4H8v8zm-2-4v4zv10z"/></symbol><symbol id="hd-icon-material-symbols-markunread-mailbox-rounded" viewBox="0 0 24 24"><path fill="currentColor" d="M4 22q-.825 0-1.412-.587T2 20V10q0-.825.588-1.412T4 8h2V3q0-.425.288-.712T7 2h6q.425 0 .713.288T14 3v2q0 .425-.288.713T13 6H8v7q0 .425.288.713T9 14t.713-.288T10 13V8h10q.825 0 1.413.588T22 10v10q0 .825-.587 1.413T20 22z"/></symbol><symbol id="hd-icon-material-symbols-markunread-mailbox-sharp" viewBox="0 0 24 24"><path fill="currentColor" d="M2 22V8h4V2h8v4H8v8h2V8h12v14z"/></symbol><symbol id="hd-icon-material-symbols-masked-transitions" viewBox="0 0 24 24"><path fill="currentColor" d="M9 22q-2.9 0-4.95-2.05T2 15t2.05-4.95T9 8t4.95 2.05T16 15t-2.05 4.95T9 22m0-2q2.075 0 3.538-1.463T14 15t-1.463-3.537T9 10t-3.537 1.463T4 15t1.463 3.538T9 20m7.95-4.3q.05-.15.05-.325V15q0-3.325-2.337-5.663T9 7h-.375q-.175 0-.325.05q.65-2.2 2.463-3.625T15 2q2.9 0 4.95 2.05T22 9q0 2.425-1.425 4.238T16.95 15.7"/></symbol><symbol id="hd-icon-material-symbols-masked-transitions-add" viewBox="0 0 24 24"><path fill="currentColor" d="M8 18v-2H6v-2h2v-2h2v2h2v2h-2v2zm1 4q-2.9 0-4.95-2.05T2 15t2.05-4.95T9 8t4.95 2.05T16 15t-2.05 4.95T9 22m0-2q2.075 0 3.538-1.463T14 15t-1.463-3.537T9 10t-3.537 1.463T4 15t1.463 3.538T9 20m7.95-4.3q.05-.15.05-.325V15q0-3.325-2.337-5.663T9 7h-.375q-.175 0-.325.05q.65-2.2 2.463-3.625T15 2q2.9 0 4.95 2.05T22 9q0 2.425-1.425 4.238T16.95 15.7"/></symbol><symbol id="hd-icon-material-symbols-masks" viewBox="0 0 24 24"><path fill="currentColor" d="M12 18q-.95 0-1.838-.262t-1.637-.763q-1.1-.075-2.25-.475t-2.1-1.325t-1.562-2.425T2 9v-.5q0-1.05.725-1.775T4.5 6q.975 0 1.688.675T6.975 8.3q.7-.2 1.25-.5t1.125-.575q.575-.3 1.2-.512T12 6.5q.85 0 1.463.213t1.187.512q.55.275 1.113.575t1.262.5q.075-.975.788-1.638T19.5 6q1.05 0 1.775.725T22 8.5V9q0 2.25-.612 3.75t-1.563 2.425t-2.1 1.325t-2.25.475q-.75.5-1.637.763T12 18m-5.5-3.025q-.475-.75-.737-1.637T5.5 11.5v-3q0-.425-.288-.712T4.5 7.5t-.712.288T3.5 8.5V9q0 2.75.925 4.1T6.5 14.975M9 11.25q.55-.15.95-.362t.75-.413t.638-.337T12 10t.663.138t.637.337t.738.413t.962.362V10.2q-.375-.125-.65-.275l-.55-.3q-.4-.25-.813-.438T12 9t-.987.188t-.838.437l-.55.3q-.275.15-.625.275zm8.5 3.725q1.15-.525 2.075-1.875T20.5 9v-.5q0-.425-.288-.712T19.5 7.5t-.712.288t-.288.712v3q0 .95-.25 1.838t-.75 1.637"/></symbol><symbol id="hd-icon-material-symbols-masks-outline" viewBox="0 0 24 24"><path fill="currentColor" d="M12 18q-.95 0-1.838-.262t-1.637-.763q-1.1-.075-2.25-.475t-2.1-1.325t-1.562-2.425T2 9v-.5q0-1.05.725-1.775T4.5 6q.975 0 1.688.675T6.975 8.3q.7-.2 1.25-.5t1.125-.575q.575-.3 1.2-.512T12 6.5q.85 0 1.463.213t1.187.512q.55.275 1.113.575t1.262.5q.075-.975.788-1.638T19.5 6q1.05 0 1.775.725T22 8.5V9q0 2.25-.612 3.75t-1.563 2.425t-2.1 1.325t-2.25.475q-.75.5-1.637.763T12 18m-5.5-3.025q-.475-.75-.737-1.637T5.5 11.5v-3q0-.425-.288-.712T4.5 7.5t-.712.288T3.5 8.5V9q0 2.75.925 4.1T6.5 14.975M12 16.5q2.075 0 3.538-1.463T17 11.5V9.85q-.85-.2-1.487-.475t-1.163-.6q-.7-.425-1.237-.6T12 8t-1.112.175t-1.238.6q-.525.3-1.163.6T7 9.85v1.65q0 2.075 1.463 3.538T12 16.5m-3-5.25q.55-.15.95-.363t.75-.412t.638-.337T12 10t.663.138t.637.337t.738.413t.962.362V10.2q-.375-.125-.65-.275l-.55-.3q-.4-.25-.813-.438T12 9t-.987.188t-.838.437l-.55.3q-.275.15-.625.275zm8.5 3.725q1.15-.525 2.075-1.875T20.5 9v-.5q0-.425-.288-.712T19.5 7.5t-.712.288t-.288.712v3q0 .95-.25 1.838t-.75 1.637M12 12.25"/></symbol><symbol id="hd-icon-material-symbols-masks-outline-rounded" viewBox="0 0 24 24"><path fill="currentColor" d="M12 18q-.95 0-1.838-.262t-1.637-.763q-1.1-.075-2.25-.475t-2.1-1.325t-1.562-2.425T2 9v-.5q0-1.05.725-1.775T4.5 6q.975 0 1.688.675T6.975 8.3q.7-.2 1.25-.5t1.125-.575q.575-.3 1.2-.512T12 6.5q.85 0 1.463.213t1.187.512q.55.275 1.113.575t1.262.5q.075-.975.788-1.638T19.5 6q1.05 0 1.775.725T22 8.5V9q0 2.25-.612 3.75t-1.563 2.425t-2.1 1.325t-2.25.475q-.75.5-1.637.763T12 18m-5.5-3.025q-.475-.75-.737-1.637T5.5 11.5v-3q0-.425-.288-.712T4.5 7.5t-.712.288T3.5 8.5V9q0 2.75.925 4.1T6.5 14.975M12 16.5q2.075 0 3.538-1.463T17 11.5V9.85q-.85-.2-1.487-.475t-1.163-.6q-.7-.425-1.237-.6T12 8t-1.112.175t-1.238.6q-.525.3-1.163.6T7 9.85v1.65q0 2.075 1.463 3.538T12 16.5m0-6.5q.375 0 .663.138t.637.337q.2.125.388.225t.412.225q.2.1.4.013t.3-.288t0-.375t-.3-.275t-.363-.187t-.337-.188q-.4-.25-.812-.437T12 9t-.987.188t-.838.437q-.175.1-.337.188T9.475 10t-.288.275t.013.375t.3.275t.4-.025q.225-.125.413-.225t.387-.2q.35-.2.638-.337T12 10m5.5 4.975q1.15-.525 2.075-1.875T20.5 9v-.5q0-.425-.288-.712T19.5 7.5t-.712.288t-.288.712v3q0 .95-.25 1.838t-.75 1.637M12 12.25"/></symbol><symbol id="hd-icon-material-symbols-masks-rounded" viewBox="0 0 24 24"><path fill="currentColor" d="M12 18q-.95 0-1.838-.262t-1.637-.763q-1.1-.075-2.25-.475t-2.1-1.325t-1.562-2.425T2 9v-.5q0-1.05.725-1.775T4.5 6q.975 0 1.688.675T6.975 8.3q.7-.2 1.25-.5t1.125-.575q.575-.3 1.2-.512T12 6.5q.85 0 1.463.213t1.187.512q.55.275 1.113.575t1.262.5q.075-.975.788-1.638T19.5 6q1.05 0 1.775.725T22 8.5V9q0 2.25-.612 3.75t-1.563 2.425t-2.1 1.325t-2.25.475q-.75.5-1.637.763T12 18m-5.5-3.025q-.475-.75-.737-1.637T5.5 11.5v-3q0-.425-.288-.712T4.5 7.5t-.712.288T3.5 8.5V9q0 2.75.925 4.1T6.5 14.975M12 10q.375 0 .663.138t.637.337q.2.125.388.225t.412.225q.2.1.4.013t.3-.288t0-.375t-.3-.275t-.363-.187t-.337-.188q-.4-.25-.812-.437T12 9t-.987.188t-.838.437q-.175.1-.337.188T9.475 10t-.288.275t.013.375t.3.275t.4-.025q.225-.125.413-.225t.387-.2q.35-.2.638-.337T12 10m5.5 4.975q1.15-.525 2.075-1.875T20.5 9v-.5q0-.425-.288-.712T19.5 7.5t-.712.288t-.288.712v3q0 .95-.25 1.838t-.75 1.637"/></symbol><symbol id="hd-icon-material-symbols-massage" viewBox="0 0 24 24"><path fill="currentColor" d="M7.85 13.775Q6.75 13.65 5.888 13T4.6 11.325L2 5l6-3l2 3h5.2q.4 0 .775.163t.65.437L23 12l-1.275.9q-.5.35-1.125.338t-1.175-.313L12.75 9.2L10 9l-.1 1.5l2.4.175l2.175 1.25q.475.25.588.688t-.038.862t-.562.7t-1.013.225zm-4.6 7.2L2.7 19.05l4.75-1.25q1.8-.475 3.825-.888t3.7-.412q1.875 0 3.488.75t3.187 2.025L20.3 20.75q-1.275-1.075-2.637-1.662t-2.688-.588q-1.6 0-3.525.413t-3.475.812z"/></symbol><symbol id="hd-icon-material-symbols-massage-outline" viewBox="0 0 24 24"><path fill="currentColor" d="m8.075 11.8l5.25.575l.4-.85L12.2 10.7l-2.325-.2l.15-1.975l2.775.2l5.525 3.075q.425.25.888.313t.837-.213L15.15 7H8.925L7.3 4.6L4.55 5.975l1.9 4.575q.2.525.638.85t.987.4m-.225 1.975Q6.75 13.65 5.888 13T4.6 11.325L2 5l6-3l2 3h5.2q.4 0 .775.163t.65.437L23 12l-.85.85q-.95.95-2.275 1.138t-2.5-.463l-1.9-1.025l-.325.725q-.275.575-.825.888t-1.2.237zm-4.6 7.2L2.7 19.05l4.75-1.25q1.8-.475 3.825-.888t3.7-.412q1.875 0 3.488.75t3.187 2.025L20.3 20.75q-1.275-1.075-2.637-1.662t-2.688-.588q-1.6 0-3.525.413t-3.475.812z"/></symbol><symbol id="hd-icon-material-symbols-massage-outline-rounded" viewBox="0 0 24 24"><path fill="currentColor" d="m8.075 11.8l5.25.575l.4-.85L12.2 10.7l-1.35-.125q-.425-.05-.687-.337t-.213-.713t.338-.7T11 8.6l1.8.125l5.525 3.075q.425.25.888.313t.837-.213L15.15 7H8.925L7.3 4.6L4.55 5.975l1.9 4.575q.2.525.638.85t.987.4m-.225 1.975Q6.75 13.65 5.888 13T4.6 11.325l-1.9-4.6Q2.4 6 2.675 5.263t.975-1.088L6.425 2.8q.675-.35 1.4-.162t1.15.837L10 5h5.2q.4 0 .775.163t.65.437l5.675 5.7q.3.3.3.7t-.3.7l-.15.15q-.95.95-2.275 1.138t-2.5-.463l-1.9-1.025l-.325.725q-.275.575-.825.888t-1.2.237zm-3.65 6.95q-.4.125-.75-.088t-.475-.612q-.125-.425.088-.762T3.7 18.8l3.75-1q1.8-.475 3.825-.888t3.7-.412q1.65 0 3.1.588T20.9 18.7q.325.225.338.613t-.263.687t-.675.363t-.75-.188q-1.125-.8-2.287-1.237t-2.288-.438q-1.6 0-3.525.413t-3.475.812z"/></symbol><symbol id="hd-icon-material-symbols-massage-outline-sharp" viewBox="0 0 24 24"><path fill="currentColor" d="m4.55 5.975l2.375 5.7l6.4.7l.4-.85L12.2 10.7l-2.325-.2l.15-1.975l2.775.2l6.7 3.725l.55-.55l-4.9-4.9H8.925L7.3 4.6zM2 5l6-3l2 3h6.025L23 12l-2.95 2.95l-4.575-2.45l-.9 2l-9.075-.975zm1.25 15.975L2.7 19.05l4.75-1.25q1.8-.475 3.825-.888t3.7-.412q1.875 0 3.488.75t3.187 2.025L20.3 20.75q-1.275-1.075-2.637-1.662t-2.688-.588q-1.6 0-3.525.413t-3.475.812z"/></symbol><symbol id="hd-icon-material-symbols-massage-rounded" viewBox="0 0 24 24"><path fill="currentColor" d="M7.85 13.775Q6.75 13.65 5.888 13T4.6 11.325L2 5l6-3l2 3h5.2q.4 0 .775.163t.65.437l5.55 5.55q.325.35.275.8t-.425.725l-.3.225q-.5.35-1.125.338t-1.175-.313L12.75 9.2l-2-.15q-.325-.025-.55.175t-.25.525q-.025.3.188.538t.512.262l1.65.125l2.175 1.25q.475.25.588.688t-.038.862t-.562.7t-1.013.225zm-3.65 6.95q-.4.125-.75-.088t-.475-.612q-.125-.425.088-.762T3.7 18.8l3.75-1q1.8-.475 3.825-.888t3.7-.412q1.65 0 3.1.588T20.9 18.7q.325.225.338.613t-.263.687t-.675.363t-.75-.188q-1.125-.8-2.287-1.237t-2.288-.438q-1.6 0-3.525.413t-3.475.812z"/></symbol><symbol id="hd-icon-material-symbols-massage-sharp" viewBox="0 0 24 24"><path fill="currentColor" d="M5.5 13.525L2 5l6-3l2 3h6.025L23 12l-1.925 1.925L12.75 9.2L10 9l-.1 1.5l2.325.175l3.25 1.825l-.975 2zm-2.25 7.45L2.7 19.05l4.75-1.25q1.8-.475 3.825-.888t3.7-.412q1.875 0 3.488.75t3.187 2.025L20.3 20.75q-1.275-1.075-2.637-1.662t-2.688-.588q-1.6 0-3.525.413t-3.475.812z"/></symbol><symbol id="hd-icon-material-symbols-match-case" viewBox="0 0 24 24"><path fill="currentColor" d="M3.275 17.7L7.4 6.7h1.975l4.125 11h-1.9l-.975-2.8h-4.45l-1 2.8zm3.475-4.4h3.275l-1.6-4.55h-.1zm9.875 4.65q-1.275 0-2.025-.687t-.75-1.813q0-1.1.863-1.812t2.212-.713q.575 0 1.125.1t.95.275V13q0-.725-.513-1.175t-1.362-.45q-.575 0-1.05.238t-.825.687l-1.175-.875q.6-.725 1.363-1.075T17.15 10q1.725 0 2.575.813t.85 2.437v4.45H19v-.925h-.1q-.35.575-.95.875t-1.325.3m.3-1.35q.875 0 1.488-.6t.612-1.4q-.35-.2-.837-.312t-.963-.113q-.8 0-1.25.35t-.45.925q0 .5.4.825t1 .325"/></symbol><symbol id="hd-icon-material-symbols-match-case-off" viewBox="0 0 24 24"><path fill="currentColor" d="M3.275 17.7L6.45 9.25L1.4 4.2l1.4-1.4l18.4 18.4l-1.4 1.4l-7.15-7.15l.85 2.25h-1.9l-.975-2.8h-4.45l-1 2.8zm4.45-7.175L6.75 13.3h3.275l-.25-.725zm10.9 5.25q.2-.25.3-.55t.1-.625q-.35-.2-.837-.313t-.963-.112h-.2L15.9 13.05q.25-.05.5-.088t.525-.037q.575 0 1.125.1t.95.275V13q0-.725-.513-1.175t-1.362-.45q-.575 0-1.05.238t-.825.687l-1.075-.975q.575-.675 1.313-1T17.15 10q1.725 0 2.575.813t.85 2.437v4.475z"/></symbol><symbol id="hd-icon-material-symbols-match-case-off-rounded" viewBox="0 0 24 24"><path fill="currentColor" d="M4.55 17.7q-.475 0-.737-.387t-.088-.813L6.45 9.25L2.1 4.9q-.275-.275-.275-.7t.275-.7t.7-.275t.7.275l17 17q.275.275.275.7t-.275.7t-.7.275t-.7-.275l-6.45-6.45l.4 1.075q.175.425-.088.8t-.712.375q-.275 0-.513-.162T11.4 17.1l-.775-2.2h-4.45l-.8 2.225q-.1.275-.325.425t-.5.15m3.175-7.175L6.75 13.3h3.275l-.25-.725zm10.9 5.25q.2-.25.3-.55t.1-.625q-.35-.2-.837-.313t-.963-.112h-.2L15.9 13.05q.25-.05.5-.088t.525-.037q.575 0 1.125.1t.95.275V13q0-.725-.513-1.175t-1.362-.45q-.4 0-.737.125t-.638.325q-.225.175-.513.175t-.512-.2t-.25-.487t.175-.463q.525-.425 1.15-.637T17.15 10q1.725 0 2.575.813t.85 2.437v3.275q0 .35-.3.475t-.55-.125z"/></symbol><symbol id="hd-icon-material-symbols-match-case-rounded" viewBox="0 0 24 24"><path fill="currentColor" d="m6.175 14.9l-.8 2.225q-.1.275-.325.425t-.5.15q-.475 0-.737-.387t-.088-.813l3.45-9.2q.1-.275.338-.438t.512-.162h.7q.275 0 .525.163t.35.437l3.45 9.225q.175.425-.1.8t-.725.375q-.275 0-.5-.162T11.4 17.1l-.775-2.2zm.575-1.6h3.275l-1.6-4.55h-.1zm9.875 4.65q-1.275 0-2.025-.687t-.75-1.813q0-1.1.863-1.812t2.212-.713q.575 0 1.125.1t.95.275V13q0-.725-.513-1.175t-1.362-.45q-.375 0-.737.113t-.663.337q-.325.25-.612.175t-.463-.275t-.175-.475t.275-.475q.5-.4 1.125-.587T17.15 10q1.725 0 2.575.813t.85 2.437v3.675q0 .325-.238.55t-.562.225t-.55-.237T19 16.9v-.125h-.1q-.35.575-.95.875t-1.325.3m.3-1.35q.875 0 1.487-.6t.613-1.4q-.35-.2-.837-.312t-.963-.113q-.8 0-1.25.35t-.45.925q0 .5.4.825t1 .325"/></symbol><symbol id="hd-icon-material-symbols-match-word" viewBox="0 0 24 24"><path fill="currentColor" d="M1 19.025v-5h2v3h18v-3h2v5zM9.55 15v-.85h-.075q-.325.5-.875.788t-1.25.287q-1.225 0-1.925-.637t-.7-1.738q0-1.05.813-1.712t2.087-.663q.575 0 1.063.088t.837.287v-.35q0-.675-.462-1.075t-1.263-.4q-.525 0-.987.225t-.788.65L4.95 9.1q.475-.675 1.2-1.025t1.675-.35q1.55 0 2.375.738t.825 2.137V15zM7.9 11.65q-.8 0-1.225.313t-.425.887q0 .5.375.813t.975.312q.8 0 1.363-.562t.562-1.363q-.35-.2-.8-.3t-.825-.1M12.525 15V4.975h1.55V7.8L14 8.8h.075q.075-.125.6-.638t1.65-.512q1.6 0 2.525 1.15t.925 2.65t-.912 2.638t-2.538 1.137q-1.025 0-1.562-.45t-.688-.7H14V15zM16.1 9.05q-1 0-1.55.738T14 11.425q0 .925.55 1.65t1.55.725t1.563-.725t.562-1.65t-.562-1.65T16.1 9.05"/></symbol><symbol id="hd-icon-material-symbols-match-word-rounded" viewBox="0 0 24 24"><path fill="currentColor" d="M3 19.025q-.825 0-1.412-.587T1 17.025v-2q0-.425.288-.712T2 14.025t.713.288t.287.712v2h18v-2q0-.425.288-.713t.712-.287t.713.288t.287.712v2q0 .825-.587 1.413T21 19.025zm4.35-3.8q-1.225 0-1.925-.637t-.7-1.738q0-1.05.813-1.712t2.087-.663q.575 0 1.063.088t.837.287v-.35q0-.675-.462-1.075t-1.263-.4q-.375 0-.712.113t-.613.312q-.225.175-.487.2T5.5 9.5t-.275-.437t.15-.463q.45-.425 1.063-.65t1.387-.225q1.55 0 2.375.738t.825 2.137v3.675q0 .3-.213.513T10.3 15q-.325 0-.537-.213t-.213-.537v-.1h-.075q-.325.5-.875.788t-1.25.287m.55-3.575q-.8 0-1.225.313t-.425.887q0 .5.375.813t.975.312q.8 0 1.363-.562t.562-1.363q-.35-.2-.8-.3t-.825-.1m8.425 3.575q-1.025 0-1.562-.45t-.688-.7H14v.325q0 .3-.212.513t-.513.212t-.525-.225t-.225-.525V5.75q0-.325.225-.55t.55-.225t.55.225t.225.55V7.8L14 8.8h.075q.075-.125.6-.638t1.65-.512q1.6 0 2.525 1.15t.925 2.65t-.912 2.638t-2.538 1.137M16.1 9.05q-1 0-1.55.738T14 11.425q0 .925.55 1.65t1.55.725t1.563-.725t.562-1.65t-.562-1.65T16.1 9.05"/></symbol><symbol id="hd-icon-material-symbols-matter" viewBox="0 0 24 24"><path fill="currentColor" d="M12 10.5q-1.65 0-3.075-.612T6.4 8.2l1.8-1.075q.6.5 1.3.825t1.5.45V3.1l1-.6l1 .6v5.3q.8-.125 1.5-.45t1.3-.825L17.6 8.2q-1.1 1.075-2.525 1.688T12 10.5m-1.225 9.375l-1.85-.975q.05-.225.063-.45T9 18q0-.575-.1-1.137T8.6 15.8l-4.575 2.75L3 18v-1.175L7.55 14.1q-.5-.575-1.15-1.025T5 12.35v-2.1q2.6.675 4.3 2.813T11 18q0 .5-.05.963t-.175.912m2.45 0q-.125-.45-.175-.913T13 18q0-2.8 1.7-4.937T19 10.25v2.1q-.75.275-1.4.725T16.45 14.1L21 16.825V18l-1.025.55L15.4 15.8q-.2.5-.3 1.063T15 18q0 .225.013.45t.062.45z"/></symbol><symbol id="hd-icon-material-symbols-maximize" viewBox="0 0 24 24"><path fill="currentColor" d="M4 5V3h16v2z"/></symbol><symbol id="hd-icon-material-symbols-maximize-rounded" viewBox="0 0 24 24"><path fill="currentColor" d="M5 5q-.425 0-.712-.288T4 4t.288-.712T5 3h14q.425 0 .713.288T20 4t-.288.713T19 5z"/></symbol><symbol id="hd-icon-material-symbols-meal-dinner" viewBox="0 0 24 24"><path fill="currentColor" d="M8.05 14q-2.5 0-4.275-1.75T2 8t1.775-4.25T8.075 2h.4q-.55.625-.85 1.4t-.3 1.6q0 1.875 1.313 3.188T11.824 9.5q.575 0 1.125-.137T14 8.95q-.35 2.2-2.025 3.625T8.05 14M18 11h2V8h-2zM1 22v-2h2q-.025-.075-.038-.137t-.037-.138L2 16h12l-.925 3.725q-.025.075-.038.138T13 20h5v-3.175q-.9-.325-1.45-1.1T16 14V6h6v8q0 .95-.55 1.725t-1.45 1.1V20h3v2z"/></symbol><symbol id="hd-icon-material-symbols-meal-dinner-outline" viewBox="0 0 24 24"><path fill="currentColor" d="M8.05 14q-2.5 0-4.275-1.75T2 8t1.775-4.25T8.075 2h.4q-.55.625-.85 1.4t-.3 1.6q0 1.875 1.313 3.188T11.824 9.5q.575 0 1.125-.137T14 8.95q-.35 2.2-2.025 3.625T8.05 14m-.025-2q.6 0 1.188-.162t1.087-.513Q8.125 10.8 6.75 9.063T5.325 5.1q-.65.575-.987 1.325T4 8q0 1.65 1.175 2.825T8.025 12M18 11h2V8h-2zm1 4q.425 0 .713-.288T20 14v-1h-2v1q0 .425.288.713T19 15M5.85 20h4.3q.35 0 .625-.2t.35-.55L11.45 18h-6.9l.325 1.25q.075.35.35.55t.625.2M1 22v-2h2q-.025-.075-.038-.137t-.037-.138L2 16h12l-.925 3.725q-.025.075-.038.138T13 20h5v-3.175q-.9-.325-1.45-1.1T16 14V6h6v8q0 .95-.55 1.725t-1.45 1.1V20h3v2zm18-9"/></symbol><symbol id="hd-icon-material-symbols-meal-dinner-outline-rounded" viewBox="0 0 24 24"><path fill="currentColor" d="M8.05 14q-2.5 0-4.275-1.75T2 8q0-2.35 1.563-4.025T7.374 2.05q.325-.05.5.25t-.025.6q-.275.5-.4 1.013T7.325 5q0 1.875 1.312 3.188T11.826 9.5q.3 0 .6-.038T13 9.35q.35-.1.588.125t.137.525q-.65 1.775-2.187 2.888T8.05 14m-.025-2q.6 0 1.188-.162t1.087-.513Q8.125 10.8 6.75 9.063T5.325 5.1q-.65.575-.987 1.325T4 8q0 1.65 1.175 2.825T8.025 12M18 11h2V8h-2zm1 4q.425 0 .713-.288T20 14v-1h-2v1q0 .425.288.713T19 15M5.85 20h4.3q.35 0 .625-.2t.35-.55L11.45 18h-6.9l.325 1.25q.075.35.35.55t.625.2M2 22q-.425 0-.712-.288T1 21t.288-.712T2 20h1q-.025-.075-.038-.137t-.037-.138L2.3 17.25q-.125-.475.175-.862t.8-.388h9.45q.5 0 .8.388t.175.862l-.625 2.475q-.025.075-.037.138T13 20h5v-3.175q-.9-.325-1.45-1.1T16 14V7q0-.425.288-.712T17 6h4q.425 0 .713.288T22 7v7q0 .95-.55 1.725t-1.45 1.1V20h2q.425 0 .713.288T23 21t-.288.713T22 22zm17-9"/></symbol><symbol id="hd-icon-material-symbols-meal-dinner-outline-sharp" viewBox="0 0 24 24"><path fill="currentColor" d="M8.05 14q-2.5 0-4.275-1.75T2 8t1.775-4.25T8.075 2h.4q-.55.625-.85 1.4t-.3 1.6q0 1.875 1.313 3.188T11.824 9.5q.575 0 1.125-.137T14 8.95q-.35 2.2-2.025 3.625T8.05 14m-.025-2q.6 0 1.188-.162t1.087-.513Q8.125 10.8 6.75 9.063T5.325 5.1q-.65.575-.987 1.325T4 8q0 1.65 1.175 2.825T8.025 12M18 11h2V8h-2zm1 4q.425 0 .713-.288T20 14v-1h-2v1q0 .425.288.713T19 15m-7.55 3h-6.9l.5 2h5.9zM1 22v-2h2l-1-4h12l-1 4h5v-3.175q-.9-.325-1.45-1.1T16 14V6h6v8q0 .95-.55 1.725t-1.45 1.1V20h3v2zm7-2"/></symbol><symbol id="hd-icon-material-symbols-meal-dinner-rounded" viewBox="0 0 24 24"><path fill="currentColor" d="M8.05 14q-2.5 0-4.275-1.75T2 8q0-2.35 1.563-4.025T7.374 2.05q.325-.05.5.25t-.025.6q-.275.5-.4 1.013T7.325 5q0 1.875 1.312 3.188T11.826 9.5q.3 0 .6-.038T13 9.35q.35-.1.588.125t.137.525q-.65 1.775-2.187 2.888T8.05 14M18 11h2V8h-2zM2 22q-.425 0-.712-.288T1 21t.288-.712T2 20h1q-.025-.075-.038-.137t-.037-.138L2.3 17.25q-.125-.475.175-.862t.8-.388h9.45q.5 0 .8.388t.175.862l-.625 2.475q-.025.075-.037.138T13 20h5v-3.175q-.9-.325-1.45-1.1T16 14V7q0-.425.288-.712T17 6h4q.425 0 .713.288T22 7v7q0 .95-.55 1.725t-1.45 1.1V20h2q.425 0 .713.288T23 21t-.288.713T22 22z"/></symbol><symbol id="hd-icon-material-symbols-meal-dinner-sharp" viewBox="0 0 24 24"><path fill="currentColor" d="M8.05 14q-2.5 0-4.275-1.75T2 8t1.775-4.25T8.075 2h.4q-.55.625-.85 1.4t-.3 1.6q0 1.875 1.313 3.188T11.824 9.5q.575 0 1.125-.137T14 8.95q-.35 2.2-2.025 3.625T8.05 14M18 11h2V8h-2zM1 22v-2h2l-1-4h12l-1 4h5v-3.175q-.9-.325-1.45-1.1T16 14V6h6v8q0 .95-.55 1.725t-1.45 1.1V20h3v2z"/></symbol><symbol id="hd-icon-material-symbols-meal-lunch" viewBox="0 0 24 24"><path fill="currentColor" d="M2 13v-3h2v3zm7.375-2.225L7.25 8.65l1.4-1.4l2.125 2.125zM2 8V2h6v1q0 2.075-1.463 3.538T3 8zm8-4V2h3v2zM1 22v-2h2q-.025-.075-.038-.137t-.037-.138L2 16h12l-.925 3.725q-.025.075-.038.138T13 20h2.075l1.5-6h-4.25L12 10h10l-.825 10H23v2z"/></symbol><symbol id="hd-icon-material-symbols-meal-lunch-outline" viewBox="0 0 24 24"><path fill="currentColor" d="M5.85 20h4.3q.35 0 .625-.2t.35-.55L11.45 18h-6.9l.325 1.25q.075.35.35.55t.625.2M4 13H2v-3h2zm5.375-2.225L7.25 8.65l1.4-1.4l2.125 2.125zM3 8H2V6h1q1.25 0 2.125-.875T6 3V2h2v1q0 2.075-1.463 3.538T3 8m10-4h-3V2h3zM1 22v-2h2q-.025-.075-.038-.137t-.037-.138L2 16h12l-.925 3.725q-.025.075-.038.138T13 20h6.15l.675-8h-5.65l.175 2h-2.025L12 10h10l-.825 10H23v2zm7-2"/></symbol></svg>