<svg xmlns="http://www.w3.org/2000/svg" xmlns:xlink="http://www.w3.org/1999/xlink"><symbol id="hd-icon-material-symbols-chess-bishop-2" viewBox="0 0 24 24"><path fill="currentColor" d="M6 18q-1.025-1.275-1.513-2.95T4 11.175q0-1.85 1.625-3.738t4.6-3.537q-.125-.2-.175-.437T10 3q0-.825.588-1.412T12 1t1.413.588T14 3q0 .2-.05.413t-.15.412q3.125 1.65 4.662 3.488T20 11.175q0 2.425-.462 4.025T18 18zm-.5 4q-.625 0-1.062-.437T4 20.5t.438-1.062T5.5 19h13q.625 0 1.063.438T20 20.5t-.437 1.063T18.5 22zm5.5-8h2v-2h2v-2h-2V8h-2v2H9v2h2z"/></symbol><symbol id="hd-icon-material-symbols-chess-bishop-2-outline" viewBox="0 0 24 24"><path fill="currentColor" d="M6 18q-1.025-1.275-1.513-2.95T4 11.175q0-1.85 1.625-3.738t4.6-3.537q-.125-.2-.175-.437T10 3q0-.825.588-1.412T12 1t1.413.588T14 3q0 .2-.05.413t-.15.412q3.125 1.65 4.662 3.488T20 11.175q0 2.425-.462 4.025T18 18zm1.025-2h10q.5-.875.738-2.037T18 11.175q0-.75-.387-1.525t-1.138-1.537t-1.862-1.5t-2.563-1.438q-1.4.675-2.512 1.438t-1.9 1.537T6.425 9.7T6 11.175q0 1.5.25 2.688T7.025 16M5.5 22q-.625 0-1.062-.437T4 20.5t.438-1.062T5.5 19h13q.625 0 1.063.438T20 20.5t-.437 1.063T18.5 22zm5.5-8h2v-2h2v-2h-2V8h-2v2H9v2h2zm1 2"/></symbol><symbol id="hd-icon-material-symbols-chess-bishop-2-outline-rounded" viewBox="0 0 24 24"><path fill="currentColor" d="M6 18q-1.025-1.275-1.513-2.95T4 11.175q0-1.85 1.625-3.738t4.6-3.537q-.125-.2-.175-.437T10 3q0-.825.588-1.412T12 1t1.413.588T14 3q0 .2-.05.413t-.15.412q3.125 1.65 4.662 3.488T20 11.175q0 2.425-.462 4.025T18 18zm1.025-2h10q.5-.875.738-2.037T18 11.175q0-.75-.387-1.525t-1.138-1.537t-1.862-1.5t-2.563-1.438q-1.4.675-2.512 1.438t-1.9 1.537T6.425 9.7T6 11.175q0 1.5.25 2.688T7.025 16M5.5 22q-.625 0-1.062-.437T4 20.5t.438-1.062T5.5 19h13q.625 0 1.063.438T20 20.5t-.437 1.063T18.5 22zM11 12v1q0 .425.288.713T12 14t.713-.288T13 13v-1h1q.425 0 .713-.288T15 11t-.288-.712T14 10h-1V9q0-.425-.288-.712T12 8t-.712.288T11 9v1h-1q-.425 0-.712.288T9 11t.288.713T10 12zm1 4"/></symbol><symbol id="hd-icon-material-symbols-chess-bishop-2-outline-sharp" viewBox="0 0 24 24"><path fill="currentColor" d="M6 18q-1.025-1.275-1.513-2.95T4 11.175q0-1.85 1.625-3.738t4.6-3.537q-.125-.2-.175-.437T10 3q0-.825.588-1.412T12 1t1.413.588T14 3q0 .2-.05.413t-.15.412q3.125 1.65 4.662 3.488T20 11.175q0 2.425-.462 4.025T18 18zm1.025-2h10q.5-.875.738-2.037T18 11.175q0-.75-.387-1.525t-1.138-1.537t-1.862-1.5t-2.563-1.438q-1.4.675-2.512 1.438t-1.9 1.537T6.425 9.7T6 11.175q0 1.5.25 2.688T7.025 16M4 22v-3h16v3zm7-8h2v-2h2v-2h-2V8h-2v2H9v2h2zm1 2"/></symbol><symbol id="hd-icon-material-symbols-chess-bishop-2-rounded" viewBox="0 0 24 24"><path fill="currentColor" d="M6 18q-1.025-1.275-1.513-2.95T4 11.175q0-1.85 1.625-3.738t4.6-3.537q-.125-.2-.175-.437T10 3q0-.825.588-1.412T12 1t1.413.588T14 3q0 .2-.05.413t-.15.412q3.125 1.65 4.662 3.488T20 11.175q0 2.425-.462 4.025T18 18zm-.5 4q-.625 0-1.062-.437T4 20.5t.438-1.062T5.5 19h13q.625 0 1.063.438T20 20.5t-.437 1.063T18.5 22zM11 12v1q0 .425.288.713T12 14t.713-.288T13 13v-1h1q.425 0 .713-.288T15 11t-.288-.712T14 10h-1V9q0-.425-.288-.712T12 8t-.712.288T11 9v1h-1q-.425 0-.712.288T9 11t.288.713T10 12z"/></symbol><symbol id="hd-icon-material-symbols-chess-bishop-2-sharp" viewBox="0 0 24 24"><path fill="currentColor" d="M6 18q-1.025-1.275-1.513-2.95T4 11.175q0-1.85 1.625-3.738t4.6-3.537q-.125-.2-.175-.437T10 3q0-.825.588-1.412T12 1t1.413.588T14 3q0 .2-.05.413t-.15.412q3.125 1.65 4.662 3.488T20 11.175q0 2.425-.462 4.025T18 18zm-2 4v-3h16v3zm7-8h2v-2h2v-2h-2V8h-2v2H9v2h2z"/></symbol><symbol id="hd-icon-material-symbols-chess-bishop-outline" viewBox="0 0 24 24"><path fill="currentColor" d="M4 22v-5q1.375-.95 2.488-2.2T8.25 12H6v-2h1.8l-1-1.65q-.35-.575-.275-1.263T7.1 5.9L12 1l4.9 4.9q.5.5.575 1.188T17.2 8.35l-1 1.65H18v2h-2.25q.65 1.55 1.763 2.8T20 17v5zm2-2h12v-2q-1.5-1.2-2.613-2.7T13.625 12H10.4q-.65 1.8-1.775 3.3T6 18zm4.125-10h3.75l1.6-2.7L12 3.825L8.525 7.3zM12 8q.425 0 .713-.288T13 7t-.288-.712T12 6t-.712.288T11 7t.288.713T12 8m0-4.175"/></symbol><symbol id="hd-icon-material-symbols-chess-bishop-outline-rounded" viewBox="0 0 24 24"><path fill="currentColor" d="M6 22q-.825 0-1.412-.587T4 20v-1.9q0-.525.225-.987t.65-.788q1.075-.875 1.938-1.963T8.25 12H7q-.425 0-.712-.288T6 11t.288-.712T7 10h.8l-1-1.65q-.35-.575-.275-1.263T7.1 5.9l4.2-4.2q.3-.3.7-.3t.7.3l4.2 4.2q.5.5.575 1.188T17.2 8.35l-1 1.65h.8q.425 0 .713.288T18 11t-.288.713T17 12h-1.25q.575 1.275 1.438 2.363t1.937 1.962q.4.35.638.8T20 18.1V20q0 .825-.587 1.413T18 22zm0-2h12v-2q-1.5-1.2-2.613-2.7T13.625 12H10.4q-.65 1.8-1.775 3.3T6 18zm4.125-10h3.75l1.6-2.7L12 3.825L8.525 7.3zM12 8q.425 0 .713-.288T13 7t-.288-.712T12 6t-.712.288T11 7t.288.713T12 8m0 12"/></symbol><symbol id="hd-icon-material-symbols-chess-bishop-outline-sharp" viewBox="0 0 24 24"><path fill="currentColor" d="M4 22v-5q1.375-.95 2.488-2.2T8.25 12H6v-2h1.8L6 7l6-6l6 6l-1.8 3H18v2h-2.25q.65 1.55 1.763 2.8T20 17v5zm2-2h12v-2q-1.5-1.2-2.613-2.7T13.625 12H10.4q-.65 1.8-1.775 3.3T6 18zm4.125-10h3.75l1.6-2.7L12 3.825L8.525 7.3zM12 8q.425 0 .713-.288T13 7t-.288-.712T12 6t-.712.288T11 7t.288.713T12 8m0-4.175"/></symbol><symbol id="hd-icon-material-symbols-chess-bishop-rounded" viewBox="0 0 24 24"><path fill="currentColor" d="M6 22q-.825 0-1.412-.587T4 20v-1.9q0-.525.225-.987t.65-.788q1.075-.875 1.938-1.963T8.25 12H7q-.425 0-.712-.288T6 11t.288-.712T7 10h.8l-1-1.65q-.35-.575-.275-1.263T7.1 5.9l4.2-4.2q.3-.3.7-.3t.7.3l4.2 4.2q.5.5.575 1.188T17.2 8.35l-1 1.65h.8q.425 0 .713.288T18 11t-.288.713T17 12h-1.25q.575 1.275 1.438 2.363t1.937 1.962q.4.35.638.8T20 18.1V20q0 .825-.587 1.413T18 22zm6-14q.425 0 .713-.288T13 7t-.288-.712T12 6t-.712.288T11 7t.288.713T12 8"/></symbol><symbol id="hd-icon-material-symbols-chess-bishop-sharp" viewBox="0 0 24 24"><path fill="currentColor" d="M4 22v-5q1.375-.95 2.488-2.2T8.25 12H6v-2h1.8L6 7l6-6l6 6l-1.8 3H18v2h-2.25q.65 1.55 1.763 2.8T20 17v5zm8-14q.425 0 .713-.288T13 7t-.288-.712T12 6t-.712.288T11 7t.288.713T12 8"/></symbol><symbol id="hd-icon-material-symbols-chess-king" viewBox="0 0 24 24"><path fill="currentColor" d="M5.25 10q-.35-.55-.55-1.175T4.5 7.5q0-1.875 1.313-3.188T9 3q.525 0 1.025.113t.975.362V1h2v2.475q.475-.225.975-.35T15 3q1.875 0 3.188 1.313T19.5 7.5q0 .7-.2 1.325T18.75 10zM3 22v-4q0-.825.588-1.412T5 16h1.25l.25-2H3v-2h18v2h-3.5l.25 2H19q.825 0 1.413.588T21 18v4z"/></symbol><symbol id="hd-icon-material-symbols-chess-king-2" viewBox="0 0 24 24"><path fill="currentColor" d="M13 22v-8.875q0-.5.038-1.012t.412-.863q1.1-1.05 2.513-1.65T19 9q1.65 0 2.825 1.175T23 13v5q0 1.65-1.175 2.825T19 22zm-8 0q-1.65 0-2.825-1.175T1 18v-5q0-1.65 1.175-2.825T5 9t3.088.625t2.537 1.7q.35.35.363.825t.012.975V22zm7-12.125q-.575-.575-1.237-1.05T9.375 8q.35-.3.763-.513T11 7.15V6H8V4h3V1h2v3h3v2h-3v1.125q.475.125.875.35t.75.525q-.725.35-1.388.825T12 9.875"/></symbol><symbol id="hd-icon-material-symbols-chess-king-2-outline" viewBox="0 0 24 24"><path fill="currentColor" d="M12 22v-8.875q.3-.525.663-.987t.787-.888q1.1-1.05 2.513-1.65T19 9q1.65 0 2.825 1.175T23 13v5q0 1.65-1.175 2.825T19 22zm-7 0q-1.65 0-2.825-1.175T1 18v-5q0-1.65 1.175-2.825T5 9t3.088.625t2.537 1.7q.425.4.763.85t.612.95V22zm0-2h6v-3q0-2.5-1.763-4.25T5 11q-.825 0-1.412.588T3 13v5q0 .825.588 1.413T5 20m8 0h6q.825 0 1.413-.587T21 18v-5q0-.825-.587-1.412T19 11q-2.475 0-4.237 1.75T13 17zM11 7.15V6H8V4h3V1h2v3h3v2h-3v1.125q.975.25 1.7.938T15.75 9.7q-.5.2-.925.475t-.85.6q-.075-.75-.638-1.263T12 9t-1.338.513t-.637 1.262q-.4-.325-.85-.6T8.25 9.7q.325-.95 1.063-1.612T11 7.15"/></symbol><symbol id="hd-icon-material-symbols-chess-king-2-outline-rounded" viewBox="0 0 24 24"><path fill="currentColor" d="M12 22v-8.875q.3-.525.663-.987t.787-.888q1.1-1.05 2.513-1.65T19 9q1.65 0 2.825 1.175T23 13v5q0 1.65-1.175 2.825T19 22zm-7 0q-1.65 0-2.825-1.175T1 18v-5q0-1.65 1.175-2.825T5 9t3.088.625t2.537 1.7q.425.4.763.85t.612.95V22zm0-2h6v-3q0-2.5-1.763-4.25T5 11q-.825 0-1.412.588T3 13v5q0 .825.588 1.413T5 20m8 0h6q.825 0 1.413-.587T21 18v-5q0-.825-.587-1.412T19 11q-2.475 0-4.237 1.75T13 17zM11 7.15V6H9q-.425 0-.712-.288T8 5t.288-.712T9 4h2V2q0-.425.288-.712T12 1t.713.288T13 2v2h2q.425 0 .713.288T16 5t-.288.713T15 6h-2v1.125q.975.25 1.7.938T15.75 9.7q-.5.2-.925.475t-.85.6q-.075-.75-.638-1.263T12 9t-1.338.513t-.637 1.262q-.4-.325-.85-.6T8.25 9.7q.325-.95 1.063-1.612T11 7.15"/></symbol><symbol id="hd-icon-material-symbols-chess-king-2-outline-sharp" viewBox="0 0 24 24"><path fill="currentColor" d="M12 22v-8.875q.3-.525.663-.987t.787-.888q1.1-1.05 2.513-1.65T19 9q1.65 0 2.825 1.175T23 13v9zM1 22v-9q0-1.65 1.175-2.825T5 9t3.088.625t2.537 1.7q.425.4.763.85t.612.95V22zm2-2h8v-3q0-2.5-1.763-4.25T5 11q-.825 0-1.412.588T3 13zm10 0h8v-7q0-.825-.587-1.412T19 11q-2.475 0-4.237 1.75T13 17zM11 7.15V6H8V4h3V1h2v3h3v2h-3v1.125q.975.25 1.7.938T15.75 9.7q-.5.2-.925.475t-.85.6q-.075-.75-.638-1.263T12 9t-1.338.513t-.637 1.262q-.4-.325-.85-.6T8.25 9.7q.325-.95 1.063-1.612T11 7.15"/></symbol><symbol id="hd-icon-material-symbols-chess-king-2-rounded" viewBox="0 0 24 24"><path fill="currentColor" d="M13 22v-8.875q0-.5.038-1.012t.412-.863q1.1-1.05 2.513-1.65T19 9q1.65 0 2.825 1.175T23 13v5q0 1.65-1.175 2.825T19 22zm-8 0q-1.65 0-2.825-1.175T1 18v-5q0-1.65 1.175-2.825T5 9t3.088.625t2.537 1.7q.35.35.363.825t.012.975V22zm6-14.85V6H9q-.425 0-.712-.288T8 5t.288-.712T9 4h2V2q0-.425.288-.712T12 1t.713.288T13 2v2h2q.425 0 .713.288T16 5t-.288.713T15 6h-2v1.125q.475.125.875.35t.75.525q-.725.35-1.388.825T12 9.875q-.575-.575-1.237-1.05T9.375 8q.35-.3.763-.513T11 7.15"/></symbol><symbol id="hd-icon-material-symbols-chess-king-2-sharp" viewBox="0 0 24 24"><path fill="currentColor" d="M13 22v-8.875q0-.5.038-1.012t.412-.863q1.1-1.05 2.513-1.65T19 9q1.65 0 2.825 1.175T23 13v9zM1 22v-9q0-1.65 1.175-2.825T5 9t3.088.625t2.537 1.7q.35.35.363.825t.012.975V22zM11 7.15V6H8V4h3V1h2v3h3v2h-3v1.125q.475.125.875.35t.75.525q-.725.35-1.388.825T12 9.875q-.575-.575-1.237-1.05T9.375 8q.35-.3.763-.513T11 7.15"/></symbol><symbol id="hd-icon-material-symbols-chess-king-outline" viewBox="0 0 24 24"><path fill="currentColor" d="m12 6.85l-1.35-1.2q-.35-.3-.763-.475T9 5q-1.05 0-1.775.725T6.5 7.5t.725 1.775T9 10H5.25q-.35-.55-.55-1.175T4.5 7.5q0-1.875 1.313-3.188T9 3q.525 0 1.025.113t.975.362V1h2v2.475q.475-.225.975-.35T15 3q1.875 0 3.188 1.313T19.5 7.5q0 .7-.2 1.325T18.75 10H15q1.05 0 1.775-.725T17.5 7.5t-.725-1.775T15 5q-.475 0-.888.163t-.762.487zM3 22v-4q0-.825.588-1.412T5 16h1.25l.5-4H3v-2h18v2h-3.75l.5 4H19q.825 0 1.413.588T21 18v4zm2-2h14v-2H5zm3.25-4h7.475l-.5-4H8.75zM12 12"/></symbol><symbol id="hd-icon-material-symbols-chess-king-outline-rounded" viewBox="0 0 24 24"><path fill="currentColor" d="M9 10H5.25q-.35-.55-.55-1.175T4.5 7.5q0-1.875 1.313-3.188T9 3q.525 0 1.025.113t.975.362V2q0-.425.288-.712T12 1t.713.288T13 2v1.475q.475-.225.975-.35T15 3q1.875 0 3.188 1.313T19.5 7.5q0 .7-.2 1.325T18.75 10H15q1.05 0 1.775-.725T17.5 7.5t-.725-1.775T15 5q-.475 0-.888.163t-.762.487l-.675.6q-.275.275-.675.275t-.675-.275l-.675-.6q-.35-.3-.763-.475T9 5q-1.05 0-1.775.725T6.5 7.5t.725 1.775T9 10M5 22q-.825 0-1.412-.587T3 20v-2q0-.825.588-1.412T5 16h1.25l.5-4H4q-.425 0-.712-.288T3 11t.288-.712T4 10h16q.425 0 .713.288T21 11t-.288.713T20 12h-2.75l.5 4H19q.825 0 1.413.588T21 18v2q0 .825-.587 1.413T19 22zm0-2h14v-2H5zm3.25-4h7.475l-.5-4H8.75zM12 12"/></symbol><symbol id="hd-icon-material-symbols-chess-king-outline-sharp" viewBox="0 0 24 24"><path fill="currentColor" d="m12 6.85l-1.35-1.2q-.35-.3-.763-.475T9 5q-1.05 0-1.775.725T6.5 7.5t.725 1.775T9 10H5.25q-.35-.55-.55-1.175T4.5 7.5q0-1.875 1.313-3.188T9 3q.525 0 1.025.113t.975.362V1h2v2.475q.475-.225.975-.35T15 3q1.875 0 3.188 1.313T19.5 7.5q0 .7-.2 1.325T18.75 10H15q1.05 0 1.775-.725T17.5 7.5t-.725-1.775T15 5q-.475 0-.888.163t-.762.487zM3 22v-6h3.25l.5-4H3v-2h18v2h-3.75l.5 4H21v6zm2-2h14v-2H5zm3.25-4h7.475l-.5-4H8.75zM12 12"/></symbol><symbol id="hd-icon-material-symbols-chess-king-rounded" viewBox="0 0 24 24"><path fill="currentColor" d="M5.25 10q-.35-.55-.55-1.175T4.5 7.5q0-1.875 1.313-3.188T9 3q.525 0 1.025.113t.975.362V2q0-.425.288-.712T12 1t.713.288T13 2v1.475q.475-.225.975-.35T15 3q1.875 0 3.188 1.313T19.5 7.5q0 .7-.2 1.325T18.75 10zM5 22q-.825 0-1.412-.587T3 20v-2q0-.825.588-1.412T5 16h1.25l.25-2H4q-.425 0-.712-.288T3 13t.288-.712T4 12h16q.425 0 .713.288T21 13t-.288.713T20 14h-2.5l.25 2H19q.825 0 1.413.588T21 18v2q0 .825-.587 1.413T19 22z"/></symbol><symbol id="hd-icon-material-symbols-chess-king-sharp" viewBox="0 0 24 24"><path fill="currentColor" d="M5.25 10q-.35-.55-.55-1.175T4.5 7.5q0-1.875 1.313-3.188T9 3q.525 0 1.025.113t.975.362V1h2v2.475q.475-.225.975-.35T15 3q1.875 0 3.188 1.313T19.5 7.5q0 .7-.2 1.325T18.75 10zM3 22v-6h3.25l.25-2H3v-2h18v2h-3.5l.25 2H21v6z"/></symbol><symbol id="hd-icon-material-symbols-chess-knight" viewBox="0 0 24 24"><path fill="currentColor" d="M5 22v-4q0-.575.3-1.037t.8-.738L11 13.75V12l-3.475 1.725q-.3.15-.625.225t-.65.075q-.775 0-1.463-.4t-1.062-1.15q-.35-.675-.3-1.437T3.9 9.625L7 5L5 2h6q3.325 0 5.663 2.325T19 10v12z"/></symbol><symbol id="hd-icon-material-symbols-chess-knight-outline" viewBox="0 0 24 24"><path fill="currentColor" d="M5 22v-4q0-.575.3-1.037t.8-.738L11 13.75V12l-3.475 1.725q-.3.15-.625.225t-.65.075q-.775 0-1.463-.4t-1.062-1.15q-.35-.675-.3-1.437T3.9 9.625L7 5L5 2h6q3.325 0 5.663 2.325T19 10v12zm2-2h10V10q0-2.5-1.75-4.25T11 4H8.75l.65 1l-3.825 5.75q-.125.2-.137.413t.087.412q.125.275.338.363t.412.087q.075 0 .375-.075L13 8.75V15l-6 3zm4-8"/></symbol><symbol id="hd-icon-material-symbols-chess-knight-outline-rounded" viewBox="0 0 24 24"><path fill="currentColor" d="M7 22q-.825 0-1.412-.587T5 20v-2q0-.575.3-1.037t.8-.738L11 13.75V12l-3.475 1.725q-.3.15-.625.225t-.65.075q-.775 0-1.463-.4t-1.062-1.15q-.35-.675-.3-1.437T3.9 9.625L7 5l-.975-1.45q-.35-.5-.05-1.025t.9-.525H11q3.325 0 5.663 2.325T19 10v10q0 .825-.587 1.413T17 22zm0-2h10V10q0-2.5-1.75-4.25T11 4H8.75l.3.45q.175.25.175.55t-.175.55l-3.475 5.2q-.125.2-.137.413t.087.412q.125.275.338.363t.412.087q.075 0 .375-.075l4.9-2.475q.5-.25.975.038t.475.862v3.4q0 .575-.3 1.038t-.8.737L7 18zm4-8"/></symbol><symbol id="hd-icon-material-symbols-chess-knight-outline-sharp" viewBox="0 0 24 24"><path fill="currentColor" d="M5 22v-5.225l6-3.025V12l-3.475 1.725q-.3.15-.625.225t-.65.075q-.775 0-1.463-.4t-1.062-1.15q-.35-.675-.3-1.437T3.9 9.625L7 5L5 2h6q3.325 0 5.663 2.325T19 10v12zm2-2h10V10q0-2.5-1.75-4.25T11 4H8.75l.65 1l-3.825 5.75q-.125.2-.137.413t.087.412q.125.275.338.363t.412.087q.075 0 .375-.075L13 8.75V15l-6 3zm4-8"/></symbol><symbol id="hd-icon-material-symbols-chess-knight-rounded" viewBox="0 0 24 24"><path fill="currentColor" d="M7 22q-.825 0-1.412-.587T5 20v-2q0-.575.3-1.037t.8-.738L11 13.75V12l-3.475 1.725q-.3.15-.625.225t-.65.075q-.775 0-1.463-.4t-1.062-1.15q-.35-.675-.3-1.437T3.9 9.625L7 5l-.975-1.45q-.35-.5-.05-1.025t.9-.525H11q3.325 0 5.663 2.325T19 10v10q0 .825-.587 1.413T17 22z"/></symbol><symbol id="hd-icon-material-symbols-chess-knight-sharp" viewBox="0 0 24 24"><path fill="currentColor" d="M5 22v-5.225l6-3.025V12l-3.475 1.725q-.3.15-.625.225t-.65.075q-.775 0-1.463-.4t-1.062-1.15q-.35-.675-.3-1.437T3.9 9.625L7 5L5 2h6q3.325 0 5.663 2.325T19 10v12z"/></symbol><symbol id="hd-icon-material-symbols-chess-outline" viewBox="0 0 24 24"><path fill="currentColor" d="M5 20h14v-2H5zm3.3-4h7.4l-.575-4h-6.25zM3 22v-4q0-.825.588-1.412T5 16h1.3l.55-4H4v-2h16v2h-2.85l.55 4H19q.825 0 1.413.588T21 18v4zm3.775-12L5 2q.825.625 1.7 1.175t1.925.55q1 0 1.838-.513T12 2q.7.7 1.538 1.213t1.837.512q1.05 0 1.925-.55T19 2l-1.775 8h-2.05l.975-4.325l-.187.025q-.188.025-.588.025q-.9 0-1.762-.275T12 4.675q-.725.5-1.562.775t-1.713.275q-.45 0-.663-.025l-.212-.025L8.825 10zM12 20"/></symbol><symbol id="hd-icon-material-symbols-chess-outline-rounded" viewBox="0 0 24 24"><path fill="currentColor" d="M5 20h14v-2H5zm3.3-4h7.4l-.575-4h-6.25zM4 22q-.425 0-.712-.288T3 21v-3q0-.825.588-1.412T5 16h1.3l.55-4H5q-.425 0-.712-.288T4 11t.288-.712T5 10h14q.425 0 .713.288T20 11t-.288.713T19 12h-1.85l.55 4H19q.825 0 1.413.588T21 18v3q0 .425-.288.713T20 22zm8-19.575q.2 0 .4.063t.375.187q.575.45 1.225.75t1.375.3q.525 0 1-.15t.925-.4q.25-.125.488-.112t.437.137t.288.338t.037.462l-1.325 6h-2.05l.975-4.325l-.187.025q-.188.025-.588.025q-.9 0-1.762-.275T12 4.675q-.725.5-1.562.775t-1.713.275q-.45 0-.663-.025l-.212-.025L8.825 10h-2.05L5.45 4q-.05-.275.037-.488t.288-.337t.45-.137t.475.137q.45.25.925.4t1 .15q.725 0 1.375-.3t1.225-.75q.175-.125.375-.187t.4-.063M12 20"/></symbol><symbol id="hd-icon-material-symbols-chess-outline-sharp" viewBox="0 0 24 24"><path fill="currentColor" d="M5 20h14v-2H5zm3.3-4h7.4l-.575-4h-6.25zM3 22v-6h3.3l.55-4H4v-2h16v2h-2.85l.55 4H21v6zm3.775-12L5 2q.825.625 1.7 1.175t1.925.55q1 0 1.838-.513T12 2q.7.7 1.538 1.213t1.837.512q1.05 0 1.925-.55T19 2l-1.775 8h-2.05l.975-4.325l-.187.025q-.188.025-.588.025q-.9 0-1.762-.275T12 4.675q-.725.5-1.562.775t-1.713.275q-.45 0-.663-.025l-.212-.025L8.825 10zM12 20"/></symbol><symbol id="hd-icon-material-symbols-chess-pawn" viewBox="0 0 24 24"><path fill="currentColor" d="M4 22v-5q2.2-1.5 3.225-3.125T8.625 11H6V9h2.25q-.35-.55-.55-1.175T7.5 6.5q0-1.875 1.313-3.187T12 2t3.188 1.313T16.5 6.5q0 .7-.2 1.325T15.75 9H18v2h-2.625q.375 1.25 1.4 2.875T20 17v5z"/></symbol><symbol id="hd-icon-material-symbols-chess-pawn-2" viewBox="0 0 24 24"><path fill="currentColor" d="M4 22q0-2.35 1.25-4.325t3.4-2.95q-.8-.725-1.225-1.687T7 11q0-1.35.663-2.5T9.5 6.675q-.25-.375-.375-.8T9 5q0-1.25.875-2.125T12 2t2.125.875T15 5q0 .45-.125.875t-.375.8q1.175.675 1.838 1.825T17 11q0 1.075-.437 2.038t-1.238 1.687q2.15.975 3.413 2.95T20 22z"/></symbol><symbol id="hd-icon-material-symbols-chess-pawn-2-outline" viewBox="0 0 24 24"><path fill="currentColor" d="M4 22q0-2.35 1.25-4.325t3.4-2.95q-.8-.725-1.225-1.687T7 11q0-1.35.663-2.5T9.5 6.675q-.25-.375-.375-.8T9 5q0-1.25.875-2.125T12 2t2.125.875T15 5q0 .45-.125.875t-.375.8q1.175.675 1.838 1.825T17 11q0 1.075-.437 2.038t-1.238 1.687q2.15.975 3.413 2.95T20 22zm8-6q-1.925 0-3.475 1.1t-2.2 2.9H17.65q-.65-1.8-2.187-2.9T12 16m0-2q1.25 0 2.125-.875T15 11t-.875-2.125T12 8t-2.125.875T9 11t.875 2.125T12 14m0-8q.425 0 .713-.288T13 5t-.288-.712T12 4t-.712.288T11 5t.288.713T12 6m0 5"/></symbol><symbol id="hd-icon-material-symbols-chess-pawn-2-outline-rounded" viewBox="0 0 24 24"><path fill="currentColor" d="M5.825 22q-.75 0-1.25-.55T4.2 20.175q.425-1.8 1.575-3.225t2.875-2.225q-.8-.725-1.225-1.687T7 11q0-1.35.663-2.5T9.5 6.675q-.25-.375-.375-.8T9 5q0-1.25.875-2.125T12 2t2.125.875T15 5q0 .45-.125.875t-.375.8q1.175.675 1.838 1.825T17 11q0 1.075-.437 2.038t-1.238 1.687q1.725.8 2.875 2.225t1.575 3.225q.175.725-.325 1.275t-1.275.55zM12 16q-1.925 0-3.475 1.1t-2.2 2.9H17.65q-.65-1.8-2.187-2.9T12 16m0-2q1.25 0 2.125-.875T15 11t-.875-2.125T12 8t-2.125.875T9 11t.875 2.125T12 14m0-8q.425 0 .713-.288T13 5t-.288-.712T12 4t-.712.288T11 5t.288.713T12 6m0 5"/></symbol><symbol id="hd-icon-material-symbols-chess-pawn-2-rounded" viewBox="0 0 24 24"><path fill="currentColor" d="M5.825 22q-.75 0-1.25-.55T4.2 20.175q.425-1.8 1.575-3.225t2.875-2.225q-.8-.725-1.225-1.687T7 11q0-1.35.663-2.5T9.5 6.675q-.25-.375-.375-.8T9 5q0-1.25.875-2.125T12 2t2.125.875T15 5q0 .45-.125.875t-.375.8q1.175.675 1.838 1.825T17 11q0 1.075-.437 2.038t-1.238 1.687q1.725.8 2.875 2.225t1.575 3.225q.175.725-.325 1.275t-1.275.55z"/></symbol><symbol id="hd-icon-material-symbols-chess-pawn-outline" viewBox="0 0 24 24"><path fill="currentColor" d="M4 22v-5q2.2-1.5 3.225-3.125T8.625 11H6V9h2.25q-.35-.55-.55-1.175T7.5 6.5q0-1.875 1.313-3.187T12 2t3.188 1.313T16.5 6.5q0 .7-.2 1.325T15.75 9H18v2h-2.625q.375 1.25 1.4 2.875T20 17v5zm2-2h12v-2q-2.3-1.8-3.325-3.713T13.3 11h-2.6q-.35 1.375-1.375 3.288T6 18zm6-11q1.05 0 1.775-.725T14.5 6.5t-.725-1.775T12 4t-1.775.725T9.5 6.5t.725 1.775T12 9m0-2.5"/></symbol><symbol id="hd-icon-material-symbols-chess-pawn-outline-rounded" viewBox="0 0 24 24"><path fill="currentColor" d="M6 22q-.825 0-1.412-.587T4 20v-1.975q0-.5.225-.925t.6-.725q1.725-1.4 2.587-2.825T8.625 11H7q-.425 0-.712-.288T6 10t.288-.712T7 9h1.25q-.35-.55-.55-1.175T7.5 6.5q0-1.875 1.313-3.187T12 2t3.188 1.313T16.5 6.5q0 .7-.2 1.325T15.75 9H17q.425 0 .713.288T18 10t-.288.713T17 11h-1.625q.35 1.125 1.213 2.55t2.587 2.825q.375.3.6.725t.225.925V20q0 .825-.587 1.413T18 22zm0-2h12v-2q-2.3-1.8-3.325-3.713T13.3 11h-2.6q-.35 1.375-1.375 3.288T6 18zm6-11q1.05 0 1.775-.725T14.5 6.5t-.725-1.775T12 4t-1.775.725T9.5 6.5t.725 1.775T12 9m0 11"/></symbol><symbol id="hd-icon-material-symbols-chess-pawn-rounded" viewBox="0 0 24 24"><path fill="currentColor" d="M6 22q-.825 0-1.412-.587T4 20v-1.975q0-.5.225-.925t.6-.725q1.725-1.4 2.587-2.825T8.625 11H7q-.425 0-.712-.288T6 10t.288-.712T7 9h1.25q-.35-.55-.55-1.175T7.5 6.5q0-1.875 1.313-3.187T12 2t3.188 1.313T16.5 6.5q0 .7-.2 1.325T15.75 9H17q.425 0 .713.288T18 10t-.288.713T17 11h-1.625q.35 1.125 1.213 2.55t2.587 2.825q.375.3.6.725t.225.925V20q0 .825-.587 1.413T18 22z"/></symbol><symbol id="hd-icon-material-symbols-chess-queen" viewBox="0 0 24 24"><path fill="currentColor" d="M5.575 21L3.35 8.975q-.925.175-1.638-.425T1 7q0-.825.588-1.412T3 5t1.413.588T5 7q0 .35-.1.65t-.3.55q.55.325 1.113.538T6.9 8.95q1.1 0 2.038-.55T10.4 6.9l.625-1.15q-.475-.275-.75-.725T10 4q0-.825.588-1.412T12 2t1.413.588T14 4q0 .575-.275 1.025t-.75.725L13.6 6.9q.525.95 1.463 1.5t2.037.55q.625 0 1.188-.2t1.112-.525q-.2-.25-.3-.562T19 7q0-.825.588-1.412T21 5t1.413.588T23 7q0 .95-.712 1.55t-1.638.425L18.425 21z"/></symbol><symbol id="hd-icon-material-symbols-chess-queen-outline" viewBox="0 0 24 24"><path fill="currentColor" d="M5.575 21L3.35 8.975q-.925.175-1.638-.425T1 7q0-.825.588-1.412T3 5t1.413.588T5 7q0 .35-.1.65t-.3.55q.55.325 1.113.538T6.9 8.95q1.1 0 2.038-.55T10.4 6.9l.625-1.15q-.475-.275-.75-.725T10 4q0-.825.588-1.412T12 2t1.413.588T14 4q0 .575-.275 1.025t-.75.725L13.6 6.9q.525.95 1.463 1.5t2.037.55q.625 0 1.188-.2t1.112-.525q-.2-.25-.3-.562T19 7q0-.825.588-1.412T21 5t1.413.588T23 7q0 .95-.712 1.55t-1.638.425L18.425 21zm1.675-2h9.5l1.5-8.15q-.275.05-.575.088t-.575.037q-1.575 0-2.925-.75T12 8.125q-.825 1.35-2.175 2.1t-2.925.75q-.275 0-.575-.038t-.575-.087zM12 19"/></symbol><symbol id="hd-icon-material-symbols-chess-queen-outline-rounded" viewBox="0 0 24 24"><path fill="currentColor" d="M7.225 21q-.725 0-1.275-.462t-.675-1.188L3.35 8.975q-.925.175-1.637-.425T1 7q0-.825.588-1.412T3 5t1.413.588T5 7q0 .35-.1.65t-.3.55q.55.325 1.113.538T6.9 8.95q1.1 0 2.038-.55T10.4 6.9l.625-1.15q-.475-.275-.75-.725T10 4q0-.825.588-1.412T12 2t1.413.588T14 4q0 .575-.275 1.025t-.75.725L13.6 6.9q.525.95 1.463 1.5t2.037.55q.625 0 1.188-.2t1.112-.525q-.2-.25-.3-.562T19 7q0-.825.588-1.412T21 5t1.413.588T23 7q0 .95-.712 1.55t-1.638.425L18.725 19.35q-.125.725-.675 1.188T16.775 21zm.025-2h9.5l1.5-8.15q-.275.05-.575.088t-.575.037q-1.575 0-2.925-.75T12 8.125q-.825 1.35-2.175 2.1t-2.925.75q-.275 0-.575-.038t-.575-.087zM12 19"/></symbol><symbol id="hd-icon-material-symbols-chess-queen-rounded" viewBox="0 0 24 24"><path fill="currentColor" d="M7.225 21q-.725 0-1.275-.462t-.675-1.188L3.35 8.975q-.925.175-1.637-.425T1 7q0-.825.588-1.412T3 5t1.413.588T5 7q0 .35-.1.65t-.3.55q.55.325 1.113.538T6.9 8.95q1.1 0 2.038-.55T10.4 6.9l.625-1.15q-.475-.275-.75-.725T10 4q0-.825.588-1.412T12 2t1.413.588T14 4q0 .575-.275 1.025t-.75.725L13.6 6.9q.525.95 1.463 1.5t2.037.55q.625 0 1.188-.2t1.112-.525q-.2-.25-.3-.562T19 7q0-.825.588-1.412T21 5t1.413.588T23 7q0 .95-.712 1.55t-1.638.425L18.725 19.35q-.125.725-.675 1.188T16.775 21z"/></symbol><symbol id="hd-icon-material-symbols-chess-rook" viewBox="0 0 24 24"><path fill="currentColor" d="M4 22v-5q2.025-1.625 3.05-3.525T8.5 10H8q-.825 0-1.412-.587T6 8V2h5v3h2V2h5v6q0 .825-.587 1.413T16 10h-.525q.425 1.575 1.45 3.475T20 17v5z"/></symbol><symbol id="hd-icon-material-symbols-chess-rook-outline" viewBox="0 0 24 24"><path fill="currentColor" d="M4 22v-5q2.025-1.625 3.05-3.525T8.5 10H8q-.825 0-1.412-.587T6 8V2h5v3h2V2h5v6q0 .825-.587 1.413T16 10h-.525q.425 1.575 1.45 3.475T20 17v5zm2-2h12v-2.075q-2.15-1.95-3.162-4.088T13.4 10h-2.825q-.4 1.7-1.425 3.838T6 17.925zM8 8h8V4h-1v3H9V4H8zm0 0h8z"/></symbol><symbol id="hd-icon-material-symbols-chess-rook-outline-rounded" viewBox="0 0 24 24"><path fill="currentColor" d="M6 22q-.825 0-1.412-.587T4 20v-2.125q0-.425.175-.8t.5-.65q1.7-1.55 2.575-3.275T8.5 10H8q-.825 0-1.412-.587T6 8V3q0-.425.288-.712T7 2h3q.425 0 .713.288T11 3v2h2V3q0-.425.288-.712T14 2h3q.425 0 .713.288T18 3v5q0 .825-.587 1.413T16 10h-.525q.4 1.425 1.275 3.15t2.575 3.275q.325.275.5.663T20 17.9V20q0 .825-.587 1.413T18 22zm0-2h12v-2.075q-2.15-1.95-3.162-4.088T13.4 10h-2.825q-.4 1.7-1.425 3.838T6 17.925zM8 8h8V4h-1v3H9V4H8zm0 0h8zm4 12"/></symbol><symbol id="hd-icon-material-symbols-chess-rook-outline-sharp" viewBox="0 0 24 24"><path fill="currentColor" d="M4 22v-5q2.025-1.625 3.05-3.525T8.5 10H6V2h5v3h2V2h5v8h-2.525q.425 1.575 1.45 3.475T20 17v5zm2-2h12v-2.075q-2.15-1.95-3.162-4.088T13.4 10h-2.825q-.4 1.7-1.425 3.838T6 17.925zM8 8h8V4h-1v3H9V4H8zm0 0h8z"/></symbol><symbol id="hd-icon-material-symbols-chess-rook-rounded" viewBox="0 0 24 24"><path fill="currentColor" d="M6 22q-.825 0-1.412-.587T4 20v-2.125q0-.425.175-.8t.5-.65q1.7-1.55 2.575-3.275T8.5 10H8q-.825 0-1.412-.587T6 8V3q0-.425.288-.712T7 2h3q.425 0 .713.288T11 3v2h2V3q0-.425.288-.712T14 2h3q.425 0 .713.288T18 3v5q0 .825-.587 1.413T16 10h-.525q.4 1.425 1.275 3.15t2.575 3.275q.325.275.5.663T20 17.9V20q0 .825-.587 1.413T18 22z"/></symbol><symbol id="hd-icon-material-symbols-chess-rook-sharp" viewBox="0 0 24 24"><path fill="currentColor" d="M4 22v-5q2.025-1.625 3.05-3.525T8.5 10H6V2h5v3h2V2h5v8h-2.525q.425 1.575 1.45 3.475T20 17v5z"/></symbol><symbol id="hd-icon-material-symbols-chess-rounded" viewBox="0 0 24 24"><path fill="currentColor" d="M4 22q-.425 0-.712-.288T3 21v-3q0-.825.588-1.412T5 16h1.3l.55-4H5q-.425 0-.712-.288T4 11t.288-.712T5 10h14q.425 0 .713.288T20 11t-.288.713T19 12h-1.85l.55 4H19q.825 0 1.413.588T21 18v3q0 .425-.288.713T20 22zM7.25 8.5q-.35 0-.625-.213t-.35-.562L5.45 4q-.05-.275.038-.488t.287-.337t.45-.137t.475.137q.45.25.925.4t1 .15q.725 0 1.375-.3t1.225-.75q.175-.125.375-.187t.4-.063t.4.063t.375.187q.575.45 1.225.75t1.375.3q.525 0 1-.163t.925-.412q.25-.125.488-.1t.437.15t.3.337t.05.463l-.825 3.725q-.075.35-.35.563t-.625.212z"/></symbol><symbol id="hd-icon-material-symbols-chess-sharp" viewBox="0 0 24 24"><path fill="currentColor" d="M3 22v-6h3.3l.55-4H4v-2h16v2h-2.85l.55 4H21v6zM6.45 8.5L5 2q.825.625 1.7 1.175t1.925.55q1 0 1.838-.513T12 2q.7.7 1.538 1.213t1.837.512q1.05 0 1.925-.55T19 2l-1.425 6.5z"/></symbol><symbol id="hd-icon-material-symbols-chevron-left" viewBox="0 0 24 24"><path fill="currentColor" d="m14 18l-6-6l6-6l1.4 1.4l-4.6 4.6l4.6 4.6z"/></symbol><symbol id="hd-icon-material-symbols-chevron-left-rounded" viewBox="0 0 24 24"><path fill="currentColor" d="m10.8 12l3.9 3.9q.275.275.275.7t-.275.7t-.7.275t-.7-.275l-4.6-4.6q-.15-.15-.212-.325T8.425 12t.063-.375t.212-.325l4.6-4.6q.275-.275.7-.275t.7.275t.275.7t-.275.7z"/></symbol><symbol id="hd-icon-material-symbols-chevron-line-up" viewBox="0 0 24 24"><path fill="currentColor" d="M6 8V6h12v2zm1.4 10.4L6 17l6-6l6 6l-1.4 1.4l-4.6-4.6z"/></symbol><symbol id="hd-icon-material-symbols-chevron-line-up-rounded" viewBox="0 0 24 24"><path fill="currentColor" d="M7 8q-.425 0-.712-.288T6 7t.288-.712T7 6h10q.425 0 .713.288T18 7t-.288.713T17 8zm5 5.8l-3.9 3.9q-.275.275-.7.275t-.7-.275t-.275-.7t.275-.7l4.6-4.6q.3-.3.7-.3t.7.3l4.6 4.6q.275.275.275.7t-.275.7t-.7.275t-.7-.275z"/></symbol><symbol id="hd-icon-material-symbols-chevron-right" viewBox="0 0 24 24"><path fill="currentColor" d="M12.6 12L8 7.4L9.4 6l6 6l-6 6L8 16.6z"/></symbol><symbol id="hd-icon-material-symbols-chevron-right-rounded" viewBox="0 0 24 24"><path fill="currentColor" d="M12.6 12L8.7 8.1q-.275-.275-.275-.7t.275-.7t.7-.275t.7.275l4.6 4.6q.15.15.213.325t.062.375t-.062.375t-.213.325l-4.6 4.6q-.275.275-.7.275t-.7-.275t-.275-.7t.275-.7z"/></symbol><symbol id="hd-icon-material-symbols-child-care" viewBox="0 0 24 24"><path fill="currentColor" d="M14.5 11.75q.525 0 .888-.363t.362-.887t-.363-.888t-.887-.362t-.888.363t-.362.887t.363.888t.887.362m-5 0q.525 0 .888-.363t.362-.887t-.363-.888T9.5 9.25t-.888.363t-.362.887t.363.888t.887.362M12 17q1.5 0 2.713-.825T16.5 14h-9q.575 1.35 1.788 2.175T12 17m0 4q-1.875 0-3.512-.712t-2.85-1.925t-1.925-2.85T3 12t.713-3.512t1.924-2.85t2.85-1.925T12 3t3.513.713t2.85 1.924t1.925 2.85T21 12t-.712 3.513t-1.925 2.85t-2.85 1.925T12 21m.4-12.5q.425 0 .963-.162T13.9 7.6q0-.3-.2-.525t-.5-.225q-.2 0-.387.075T12.4 7q-.525 0-.887-.362t-.363-.888q0-.275.088-.462t.262-.263q-.475.05-.925.125T9.7 5.4q-.025.075-.038.175t-.012.175q0 1.125.813 1.938T12.4 8.5"/></symbol><symbol id="hd-icon-material-symbols-child-care-outline" viewBox="0 0 24 24"><path fill="currentColor" d="M14.5 11.75q-.525 0-.888-.363t-.362-.887t.363-.888t.887-.362t.888.363t.362.887t-.363.888t-.887.362m-5 0q-.525 0-.888-.363T8.25 10.5t.363-.888t.887-.362t.888.363t.362.887t-.363.888t-.887.362M12 17q-1.5 0-2.713-.825T7.5 14h9q-.575 1.35-1.787 2.175T12 17m0 4q-1.875 0-3.512-.712t-2.85-1.925t-1.925-2.85T3 12t.713-3.512t1.924-2.85t2.85-1.925T12 3t3.513.713t2.85 1.924t1.925 2.85T21 12t-.712 3.513t-1.925 2.85t-2.85 1.925T12 21m0-2q2.9 0 4.95-2.05T19 12t-2.05-4.95T12 5h-.3q-.15 0-.3.05q-.15.15-.2.325t-.05.375q0 .525.362.888T12.4 7q.225 0 .413-.075t.387-.075q.3 0 .5.225t.2.525q0 .575-.538.738T12.4 8.5q-1.125 0-1.937-.812T9.65 5.75V5.6q0-.075.025-.2Q7.6 6.15 6.3 7.925T5 12q0 2.9 2.05 4.95T12 19m0-7"/></symbol><symbol id="hd-icon-material-symbols-child-friendly" viewBox="0 0 24 24"><path fill="currentColor" d="M8.5 22q-.65 0-1.075-.425T7 20.5t.425-1.075T8.5 19t1.075.425T10 20.5t-.425 1.075T8.5 22m11 0q-.65 0-1.075-.425T18 20.5t.425-1.075T19.5 19t1.075.425T21 20.5t-.425 1.075T19.5 22m-6-14.4L9.6 2.9q.9-.45 1.95-.675T13.8 2q1.275 0 2.438.363T18.3 3.4zM12 18q-2.075 0-3.537-1.463T7 13V5.3l-.5-.6q-.35-.425-.587-.562T5.4 4q-.6 0-1 .45T4 5.5H2q0-1.425.988-2.463T5.4 2q.75 0 1.375.35t1.275 1.1l10.7 12.9q.425.5.163 1.075T18 18z"/></symbol><symbol id="hd-icon-material-symbols-child-friendly-outline" viewBox="0 0 24 24"><path fill="currentColor" d="M8.5 22q-.65 0-1.075-.425T7 20.5t.425-1.075T8.5 19t1.075.425T10 20.5t-.425 1.075T8.5 22m11 0q-.65 0-1.075-.425T18 20.5t.425-1.075T19.5 19t1.075.425T21 20.5t-.425 1.075T19.5 22m-6-14.4L9.6 2.9q.9-.45 1.95-.675T13.8 2q1.275 0 2.438.363T18.3 3.4zM12 18q-2.075 0-3.537-1.463T7 13V5.3l-.5-.6q-.35-.425-.587-.562T5.4 4q-.6 0-1 .45T4 5.5H2q0-1.425.988-2.463T5.4 2q.75 0 1.375.35t1.275 1.1l10.7 12.9q.425.5.163 1.075T18 18zm0-2h3.85L9 7.7V13q0 1.25.875 2.125T12 16m.425-4.15"/></symbol><symbol id="hd-icon-material-symbols-child-friendly-outline-rounded" viewBox="0 0 24 24"><path fill="currentColor" d="M8.5 22q-.65 0-1.075-.425T7 20.5t.425-1.075T8.5 19t1.075.425T10 20.5t-.425 1.075T8.5 22m11 0q-.65 0-1.075-.425T18 20.5t.425-1.075T19.5 19t1.075.425T21 20.5t-.425 1.075T19.5 22m-6-14.4L9.6 2.9q.9-.45 1.95-.675T13.8 2q1.025 0 1.975.225t1.75.675q.275.2.325.538T17.625 4zM12 16h3.85L9 7.7V13q0 1.25.875 2.125T12 16M3 6.5q-.425 0-.712-.288T2 5.5q0-1.425.988-2.463T5.4 2q.75 0 1.375.35t1.275 1.1l10.7 12.9q.425.5.163 1.075T18 18h-6q-2.075 0-3.537-1.463T7 13V5.3l-.5-.6q-.35-.425-.587-.562T5.4 4q-.6 0-1 .45T4 5.5q0 .425-.288.713T3 6.5"/></symbol><symbol id="hd-icon-material-symbols-child-friendly-outline-sharp" viewBox="0 0 24 24"><path fill="currentColor" d="M8.5 22q-.65 0-1.075-.425T7 20.5t.425-1.075T8.5 19t1.075.425T10 20.5t-.425 1.075T8.5 22m11 0q-.65 0-1.075-.425T18 20.5t.425-1.075T19.5 19t1.075.425T21 20.5t-.425 1.075T19.5 22m-6-14.4L9.6 2.9q.9-.45 1.95-.675T13.8 2q1.275 0 2.438.363T18.3 3.4zM7 18V5.3l-.5-.6q-.35-.425-.587-.562T5.4 4q-.6 0-1 .45T4 5.5H2q0-1.425.988-2.463T5.4 2q.75 0 1.375.35t1.275 1.1L20.125 18zm2-2h6.85L9 7.7zm3.425-4.15"/></symbol><symbol id="hd-icon-material-symbols-child-friendly-rounded" viewBox="0 0 24 24"><path fill="currentColor" d="M8.5 22q-.65 0-1.075-.425T7 20.5t.425-1.075T8.5 19t1.075.425T10 20.5t-.425 1.075T8.5 22m11 0q-.65 0-1.075-.425T18 20.5t.425-1.075T19.5 19t1.075.425T21 20.5t-.425 1.075T19.5 22m-6-14.4L9.6 2.9q.9-.45 1.95-.675T13.8 2q1.025 0 1.975.225t1.75.675q.275.2.325.538T17.625 4zM3 6.5q-.425 0-.712-.287T2 5.5q0-1.425.988-2.463T5.4 2q.75 0 1.375.35t1.275 1.1l10.7 12.9q.425.5.163 1.075T18 18h-6q-2.075 0-3.537-1.463T7 13V5.3l-.5-.6q-.35-.425-.587-.562T5.4 4q-.6 0-1 .45T4 5.5q0 .425-.288.713T3 6.5"/></symbol><symbol id="hd-icon-material-symbols-child-friendly-sharp" viewBox="0 0 24 24"><path fill="currentColor" d="M8.5 22q-.65 0-1.075-.425T7 20.5t.425-1.075T8.5 19t1.075.425T10 20.5t-.425 1.075T8.5 22m11 0q-.65 0-1.075-.425T18 20.5t.425-1.075T19.5 19t1.075.425T21 20.5t-.425 1.075T19.5 22m-6-14.4L9.6 2.9q.9-.45 1.95-.675T13.8 2q1.275 0 2.438.363T18.3 3.4zM7 18V5.3l-.5-.6q-.35-.425-.587-.562T5.4 4q-.6 0-1 .45T4 5.5H2q0-1.425.988-2.463T5.4 2q.75 0 1.375.35t1.275 1.1L20.125 18z"/></symbol><symbol id="hd-icon-material-symbols-child-hat" viewBox="0 0 24 24"><path fill="currentColor" d="M12 18q-1.5 0-2.713-.825T7.5 15h9q-.575 1.35-1.787 2.175T12 18m-2.5-4.5q-.525 0-.888-.363t-.362-.887t.363-.888T9.5 11t.888.363t.362.887t-.363.888t-.887.362m5 0q-.525 0-.888-.363t-.362-.887t.363-.888T14.5 11t.888.363t.362.887t-.363.888t-.887.362M12 22q-3.725 0-6.337-2.588T3 13.1l2.025-.75Q5 12.525 5 12.675V13q0 2.925 2.038 4.963T12 20t4.963-2.037T19 13q0-.4-.038-.788t-.137-.762q-1.5-.175-2.838-.762T13.526 9.15l5.325-2q1.025 1.2 1.588 2.688T21 13q0 1.875-.712 3.513t-1.925 2.85t-2.85 1.925T12 22M3.4 11.375q-.175-.5-.287-1.025T3 9.275Q3 7 4.275 5.2T7.5 2.4q-.05-.1-.062-.187T7.425 2q0-.425.288-.712T8.425 1q.35 0 .6.2t.35.5q.55-.125 1.088-.2t1.112-.075q1.675 0 3.188.65t2.662 1.875l3.05-1.15l.7 1.875z"/></symbol><symbol id="hd-icon-material-symbols-child-hat-outline" viewBox="0 0 24 24"><path fill="currentColor" d="M12 18q-1.5 0-2.713-.825T7.5 15h9q-.575 1.35-1.787 2.175T12 18m-2.5-4.5q-.525 0-.888-.363t-.362-.887t.363-.888T9.5 11t.888.363t.362.887t-.363.888t-.887.362m5 0q-.525 0-.888-.363t-.362-.887t.363-.888T14.5 11t.888.363t.362.887t-.363.888t-.887.362M12 22q-1.875 0-3.512-.712t-2.85-1.925t-1.925-2.85T3 13q0-.8.125-1.55t.4-1.475l2 .35q-.275.625-.4 1.288T5 13q0 2.925 2.038 4.963T12 20t4.963-2.037T19 13q0-.4-.05-.788t-.125-.762q-2.025-.225-3.75-1.2t-2.95-2.525l1.75-1.025q.8.925 1.813 1.575t2.212.975q-.625-.975-1.537-1.713T14.324 6.4l2.1-1.25Q18.5 6.325 19.75 8.388T21 13q0 1.875-.712 3.513t-1.925 2.85t-2.85 1.925T12 22M5 8.625L15.325 4.75q-.8-.65-1.75-.987t-2-.338q-2.375 0-4.237 1.438T5 8.625m-1.6 2.75q-.175-.5-.288-1.025T3 9.275Q3 7 4.275 5.2T7.5 2.4q-.05-.1-.062-.187T7.425 2q0-.425.288-.712T8.425 1q.35 0 .6.2t.35.5q.55-.125 1.088-.2t1.112-.075q1.675 0 3.188.65t2.662 1.875l3.05-1.15l.7 1.875zm6.775-4.7"/></symbol><symbol id="hd-icon-material-symbols-child-hat-outline-rounded" viewBox="0 0 24 24"><path fill="currentColor" d="M12 18q-1.3 0-2.375-.6T7.9 15.75q-.15-.25-.012-.5t.437-.25h7.35q.275 0 .425.25t0 .5q-.65 1.05-1.725 1.65T12 18m-2.5-4.5q-.525 0-.888-.363t-.362-.887t.363-.888T9.5 11t.888.363t.362.887t-.363.888t-.887.362m5 0q-.525 0-.888-.363t-.362-.887t.363-.888T14.5 11t.888.363t.362.887t-.363.888t-.887.362M12 22q-1.875 0-3.512-.712t-2.85-1.925t-1.925-2.85T3 13q0-.8.125-1.55t.4-1.475l2 .35q-.275.625-.4 1.288T5 13q0 2.925 2.038 4.963T12 20t4.963-2.037T19 13q0-.4-.05-.788t-.125-.762q-2.025-.225-3.75-1.2t-2.95-2.525l1.75-1.025q.8.925 1.813 1.575t2.212.975q-.625-.975-1.537-1.713T14.324 6.4l2.1-1.25Q18.5 6.325 19.75 8.388T21 13q0 1.875-.712 3.513t-1.925 2.85t-2.85 1.925T12 22M5 8.625L15.325 4.75q-.8-.65-1.75-.987t-2-.338q-2.375 0-4.237 1.438T5 8.625m-1.6 2.75q-.175-.5-.288-1.025T3 9.275Q3 7 4.275 5.2T7.5 2.4q-.05-.1-.062-.187T7.425 2q0-.425.288-.712T8.425 1q.35 0 .6.2t.35.5q.55-.125 1.088-.2t1.112-.075q1.675 0 3.188.65t2.662 1.875l2.125-.8q.4-.15.763.025t.512.575t-.012.763t-.563.512zm6.775-4.7"/></symbol><symbol id="hd-icon-material-symbols-child-hat-rounded" viewBox="0 0 24 24"><path fill="currentColor" d="M12 18q-1.3 0-2.375-.6T7.9 15.75q-.15-.25-.012-.5t.437-.25h7.35q.275 0 .425.25t0 .5q-.65 1.05-1.725 1.65T12 18m-2.5-4.5q-.525 0-.888-.363t-.362-.887t.363-.888T9.5 11t.888.363t.362.887t-.363.888t-.887.362m5 0q-.525 0-.888-.363t-.362-.887t.363-.888T14.5 11t.888.363t.362.887t-.363.888t-.887.362M12 22q-3.725 0-6.337-2.588T3 13.1l2.025-.75Q5 12.525 5 12.675V13q0 2.925 2.038 4.963T12 20t4.963-2.037T19 13q0-.4-.038-.788t-.137-.762q-1.5-.175-2.838-.762T13.526 9.15l5.325-2q1.025 1.2 1.588 2.688T21 13q0 1.875-.712 3.513t-1.925 2.85t-2.85 1.925T12 22M3.4 11.375q-.175-.5-.287-1.025T3 9.275Q3 7 4.275 5.2T7.5 2.4q-.05-.1-.062-.187T7.425 2q0-.425.288-.712T8.425 1q.35 0 .6.2t.35.5q.55-.125 1.088-.2t1.112-.075q1.675 0 3.188.65t2.662 1.875l2.125-.8q.4-.15.763.025t.512.575t-.012.763t-.563.512z"/></symbol><symbol id="hd-icon-material-symbols-chip-extraction" viewBox="0 0 24 24"><path fill="currentColor" d="M12 21q-1.875 0-3.512-.712t-2.85-1.925t-1.925-2.85T3 12t.713-3.512t1.924-2.85t2.85-1.925T12 3v2Q9.075 5 7.038 7.038T5 12t2.038 4.963T12 19zm4-4l-1.4-1.425L17.175 13H9v-2h8.175L14.6 8.4L16 7l5 5z"/></symbol><symbol id="hd-icon-material-symbols-chip-extraction-rounded" viewBox="0 0 24 24"><path fill="currentColor" d="M5 12q0 2.65 1.725 4.625t4.35 2.325q.4.05.663.35T12 20q0 .425-.363.7t-.812.225q-3.375-.425-5.6-2.963T3 12q0-3.4 2.213-5.937T10.8 3.075q.475-.05.838.213T12 4q0 .4-.262.7t-.663.35q-2.625.35-4.35 2.325T5 12m12.175 1H10q-.425 0-.712-.288T9 12t.288-.712T10 11h7.175L15.3 9.125q-.3-.3-.3-.712t.3-.713t.7-.3t.7.3l3.6 3.6q.3.3.3.7t-.3.7l-3.6 3.6q-.3.3-.7.288t-.7-.313t-.3-.7t.3-.7z"/></symbol><symbol id="hd-icon-material-symbols-chips" viewBox="0 0 24 24"><path fill="currentColor" d="M8 13h8q.425 0 .713-.288T17 12t-.288-.712T16 11H8q-.425 0-.712.288T7 12t.288.713T8 13m-3 8q-.825 0-1.412-.587T3 19V5q0-.825.588-1.412T5 3h14q.825 0 1.413.588T21 5v14q0 .825-.587 1.413T19 21z"/></symbol><symbol id="hd-icon-material-symbols-chips-outline" viewBox="0 0 24 24"><path fill="currentColor" d="M8 13h8q.425 0 .713-.288T17 12t-.288-.712T16 11H8q-.425 0-.712.288T7 12t.288.713T8 13m-3 8q-.825 0-1.412-.587T3 19V5q0-.825.588-1.412T5 3h14q.825 0 1.413.588T21 5v14q0 .825-.587 1.413T19 21zm0-2h14V5H5zM5 5v14z"/></symbol><symbol id="hd-icon-material-symbols-chips-outline-sharp" viewBox="0 0 24 24"><path fill="currentColor" d="M7 13h10v-2H7zm-4 8V3h18v18zm2-2h14V5H5zm0 0V5z"/></symbol><symbol id="hd-icon-material-symbols-chips-sharp" viewBox="0 0 24 24"><path fill="currentColor" d="M7 13h10v-2H7zm-4 8V3h18v18z"/></symbol><symbol id="hd-icon-material-symbols-chrome-maximize" viewBox="0 0 24 24"><path fill="currentColor" d="M6 20q-.825 0-1.413-.588T4 18V6q0-.825.588-1.413T6 4h12q.825 0 1.413.588T20 6v12q0 .825-.588 1.413T18 20H6Z"/></symbol><symbol id="hd-icon-material-symbols-chrome-maximize-outline" viewBox="0 0 24 24"><path fill="currentColor" d="M6 20q-.825 0-1.413-.588T4 18V6q0-.825.588-1.413T6 4h12q.825 0 1.413.588T20 6v12q0 .825-.588 1.413T18 20H6Zm0-2h12V6H6v12ZM6 6v12V6Z"/></symbol><symbol id="hd-icon-material-symbols-chrome-maximize-outline-sharp" viewBox="0 0 24 24"><path fill="currentColor" d="M4 20V4h16v16Zm2-2h12V6H6ZM6 6v12Z"/></symbol><symbol id="hd-icon-material-symbols-chrome-maximize-sharp" viewBox="0 0 24 24"><path fill="currentColor" d="M4 20V4h16v16Z"/></symbol><symbol id="hd-icon-material-symbols-chrome-minimize" viewBox="0 0 24 24"><path fill="currentColor" d="M4 20v-2h16v2H4Z"/></symbol><symbol id="hd-icon-material-symbols-chrome-minimize-rounded" viewBox="0 0 24 24"><path fill="currentColor" d="M5 20q-.425 0-.713-.288T4 19q0-.425.288-.713T5 18h14q.425 0 .713.288T20 19q0 .425-.288.713T19 20H5Z"/></symbol><symbol id="hd-icon-material-symbols-chrome-minimize-sharp" viewBox="0 0 24 24"><path fill="currentColor" d="M4 20v-2h16v2Z"/></symbol><symbol id="hd-icon-material-symbols-chrome-reader-mode" viewBox="0 0 24 24"><path fill="currentColor" d="M4 20q-.825 0-1.412-.587T2 18V6q0-.825.588-1.412T4 4h16q.825 0 1.413.588T22 6v12q0 .825-.587 1.413T20 20zm9-2h7V6h-7zm1-3h5v-1.5h-5zm0-2.5h5V11h-5zm0-2.5h5V8.5h-5z"/></symbol><symbol id="hd-icon-material-symbols-chrome-reader-mode-outline" viewBox="0 0 24 24"><path fill="currentColor" d="M4 20q-.825 0-1.412-.587T2 18V6q0-.825.588-1.412T4 4h16q.825 0 1.413.588T22 6v12q0 .825-.587 1.413T20 20zm0-2h7V6H4zm9 0h7V6h-7zm1-3h5v-1.5h-5zm0-2.5h5V11h-5zm0-2.5h5V8.5h-5zM4 18V6z"/></symbol><symbol id="hd-icon-material-symbols-chrome-reader-mode-outline-rounded" viewBox="0 0 24 24"><path fill="currentColor" d="M4 20q-.825 0-1.412-.587T2 18V6q0-.825.588-1.412T4 4h16q.825 0 1.413.588T22 6v12q0 .825-.587 1.413T20 20zm0-2h7V6H4zm9 0h7V6h-7zm5.25-3q.325 0 .538-.213T19 14.25t-.213-.537t-.537-.213h-3.5q-.325 0-.537.213T14 14.25t.213.538t.537.212zm0-2.5q.325 0 .538-.213T19 11.75t-.213-.537T18.25 11h-3.5q-.325 0-.537.213T14 11.75t.213.538t.537.212zm0-2.5q.325 0 .538-.213T19 9.25t-.213-.537t-.537-.213h-3.5q-.325 0-.537.213T14 9.25t.213.538t.537.212zM4 18V6z"/></symbol><symbol id="hd-icon-material-symbols-chrome-reader-mode-outline-sharp" viewBox="0 0 24 24"><path fill="currentColor" d="M2 20V4h20v16zm2-2h7V6H4zm9 0h7V6h-7zm1-8h5V8.5h-5zm0 2.5h5V11h-5zm0 2.5h5v-1.5h-5zM4 6v12z"/></symbol><symbol id="hd-icon-material-symbols-chrome-reader-mode-rounded" viewBox="0 0 24 24"><path fill="currentColor" d="M4 20q-.825 0-1.412-.587T2 18V6q0-.825.588-1.412T4 4h16q.825 0 1.413.588T22 6v12q0 .825-.587 1.413T20 20zm9-2h7V6h-7zm5.25-3q.325 0 .538-.213T19 14.25t-.213-.537t-.537-.213h-3.5q-.325 0-.537.213T14 14.25t.213.538t.537.212zm0-2.5q.325 0 .538-.213T19 11.75t-.213-.537T18.25 11h-3.5q-.325 0-.537.213T14 11.75t.213.538t.537.212zm0-2.5q.325 0 .538-.213T19 9.25t-.213-.537t-.537-.213h-3.5q-.325 0-.537.213T14 9.25t.213.538t.537.212z"/></symbol><symbol id="hd-icon-material-symbols-chrome-reader-mode-sharp" viewBox="0 0 24 24"><path fill="currentColor" d="M2 20V4h20v16zm11-2h7V6h-7zm1-8h5V8.5h-5zm0 2.5h5V11h-5zm0 2.5h5v-1.5h-5z"/></symbol><symbol id="hd-icon-material-symbols-chrome-restore" viewBox="0 0 24 24"><path fill="currentColor" d="M10 16q-.825 0-1.413-.588T8 14V6q0-.825.588-1.413T10 4h8q.825 0 1.413.588T20 6v8q0 .825-.588 1.413T18 16h-8Zm-4 4q-.825 0-1.413-.588T4 18V8.525h2V18h9.475v2H6Z"/></symbol><symbol id="hd-icon-material-symbols-chrome-restore-outline" viewBox="0 0 24 24"><path fill="currentColor" d="M10 16q-.825 0-1.413-.588T8 14V6q0-.825.588-1.413T10 4h8q.825 0 1.413.588T20 6v8q0 .825-.588 1.413T18 16h-8Zm0-10v8h8V6h-8ZM6 20q-.825 0-1.413-.588T4 18V8.525h2V18h9.475v2H6Zm4-14v8v-8Z"/></symbol><symbol id="hd-icon-material-symbols-chrome-restore-outline-rounded" viewBox="0 0 24 24"><path fill="currentColor" d="M10 16q-.825 0-1.413-.588T8 14V6q0-.825.588-1.413T10 4h8q.825 0 1.413.588T20 6v8q0 .825-.588 1.413T18 16h-8Zm0-10v8h8V6h-8ZM6 20q-.825 0-1.413-.588T4 18V9.525q0-.425.288-.713T5 8.525q.425 0 .713.288T6 9.524V18h8.475q.425 0 .713.288t.287.712q0 .425-.287.713t-.713.287H6Zm4-14v8v-8Z"/></symbol><symbol id="hd-icon-material-symbols-chrome-restore-outline-sharp" viewBox="0 0 24 24"><path fill="currentColor" d="M8 16V4h12v12Zm2-2h8V6h-8Zm-6 6V8.525h2V18h9.475v2Zm6-6V6v8Z"/></symbol><symbol id="hd-icon-material-symbols-chrome-restore-rounded" viewBox="0 0 24 24"><path fill="currentColor" d="M10 16q-.825 0-1.413-.588T8 14V6q0-.825.588-1.413T10 4h8q.825 0 1.413.588T20 6v8q0 .825-.588 1.413T18 16h-8Zm-4 4q-.825 0-1.413-.588T4 18V9.525q0-.425.288-.713T5 8.525q.425 0 .713.288T6 9.524V18h8.475q.425 0 .713.288t.287.712q0 .425-.287.713t-.713.287H6Z"/></symbol><symbol id="hd-icon-material-symbols-chrome-restore-sharp" viewBox="0 0 24 24"><path fill="currentColor" d="M8 16V4h12v12Zm-4 4V8.525h2V18h9.475v2Z"/></symbol><symbol id="hd-icon-material-symbols-chrome-tote" viewBox="0 0 24 24"><path fill="currentColor" d="m14.525 13.5l4-4l-1.4-1.425l-1.6 1.575V5.5h-2v4.15l-1.6-1.575l-1.4 1.425l4 4Zm-5.5 3.5q-.825 0-1.413-.588T7.026 15V4q0-.825.588-1.413T9.024 2h11q.825 0 1.413.588T22.024 4v11q0 .825-.587 1.413T20.025 17h-11Zm-3.3 4.875q-.825.125-1.475-.4t-.75-1.35L2.15 9.2q-.1-.825.413-1.475t1.337-.75l1.125-.125V16q0 1.25.875 2.125T8.025 19h10.45q0 .65-.537 1.025t-1.213.475l-11 1.375Z"/></symbol><symbol id="hd-icon-material-symbols-chrome-tote-outline" viewBox="0 0 24 24"><path fill="currentColor" d="m14.525 13.5l4-4l-1.4-1.425l-1.6 1.575V5.5h-2v4.15l-1.6-1.575l-1.4 1.425l4 4Zm-1.7 5.5h5.65q0 .65-.537 1.025t-1.213.475l-11 1.375q-.825.125-1.475-.4t-.75-1.35L2.15 9.2q-.1-.825.413-1.475t1.337-.75l1.125-.125v2l-.9.1l1.35 10.95l7.35-.9Zm-3.8-2q-.825 0-1.413-.588T7.025 15V4q0-.825.588-1.413T9.024 2h11q.825 0 1.413.588T22.024 4v11q0 .825-.587 1.413T20.025 17h-11Zm0-2h11V4h-11v11Zm-3.55 4.9Zm3.55-4.9V4v11Z"/></symbol><symbol id="hd-icon-material-symbols-chrome-tote-outline-rounded" viewBox="0 0 24 24"><path fill="currentColor" d="m13.525 9.65l-.9-.875q-.3-.275-.7-.275t-.7.3q-.275.3-.287.7t.287.7l2.6 2.6q.3.3.7.3t.7-.3l2.6-2.6q.275-.275.288-.688t-.288-.712q-.275-.3-.7-.3t-.725.275l-.875.875V6.5q0-.425-.288-.713t-.712-.287q-.425 0-.713.288t-.287.712v3.15Zm-.7 9.35h5.65q0 .65-.537 1.025t-1.213.475l-11 1.375q-.825.125-1.475-.4t-.75-1.35L2.15 9.2q-.1-.825.413-1.475t1.337-.75l1.125-.125v2l-.9.1l1.35 10.95l7.35-.9Zm-3.8-2q-.825 0-1.413-.588T7.026 15V4q0-.825.588-1.413T9.024 2h11q.825 0 1.413.588T22.024 4v11q0 .825-.587 1.413T20.025 17h-11Zm0-2h11V4h-11v11Zm-3.55 4.9Zm3.55-4.9V4v11Z"/></symbol><symbol id="hd-icon-material-symbols-chrome-tote-outline-sharp" viewBox="0 0 24 24"><path fill="currentColor" d="M12.825 19h5.65v1.275L3.75 22.125L1.9 7.2l3.125-.35v2l-.9.1l1.35 10.95Zm-5.8-2V2h15v15Zm2-2h11V4h-11Zm-3.55 4.9Zm3.55-4.9V4v11Zm5.5-1.5l4-4l-1.4-1.425l-1.6 1.575V5.5h-2v4.15l-1.6-1.575l-1.4 1.425Z"/></symbol><symbol id="hd-icon-material-symbols-chrome-tote-rounded" viewBox="0 0 24 24"><path fill="currentColor" d="m13.525 9.65l-.9-.875q-.3-.275-.7-.275t-.7.3q-.275.3-.287.7t.287.7l2.6 2.6q.3.3.7.3t.7-.3l2.6-2.6q.275-.275.288-.688t-.288-.712q-.275-.3-.7-.3t-.725.275l-.875.875V6.5q0-.425-.288-.713t-.712-.287q-.425 0-.713.288t-.287.712v3.15ZM9.025 17q-.825 0-1.413-.588T7.026 15V4q0-.825.588-1.413T9.024 2h11q.825 0 1.413.588T22.024 4v11q0 .825-.587 1.413T20.025 17h-11Zm-3.3 4.875q-.825.125-1.475-.4t-.75-1.35L2.15 9.2q-.1-.825.413-1.475t1.337-.75l1.125-.125V16q0 1.25.875 2.125T8.025 19h10.45q0 .65-.537 1.025t-1.213.475l-11 1.375Z"/></symbol><symbol id="hd-icon-material-symbols-chrome-tote-sharp" viewBox="0 0 24 24"><path fill="currentColor" d="m14.525 13.5l4-4l-1.4-1.425l-1.6 1.575V5.5h-2v4.15l-1.6-1.575l-1.4 1.425ZM3.75 22.125L1.9 7.2l3.125-.35V19h13.45v1.275ZM7.025 17V2h15v15Z"/></symbol><symbol id="hd-icon-material-symbols-chromecast-2" viewBox="0 0 24 24"><path fill="currentColor" d="M9 21q-2.925 0-4.962-2.037T2 14q0-2.65 1.713-4.612T8 7.074V5.7q0-1.55 1.075-2.625T11.7 2q.85 0 1.613.375T14.6 3.4l5.15 6.5l.575-.475L23.1 12.9l-2.75 2.175L17.6 11.6l.575-.475l-5.15-6.5q-.25-.3-.587-.462T11.7 4q-.725 0-1.212.488T10 5.7v1.375q2.575.35 4.288 2.313T16 14q0 2.925-2.037 4.963T9 21m0-2q2.075 0 3.538-1.463T14 14t-1.463-3.537T9 9t-3.537 1.463T4 14t1.463 3.538T9 19"/></symbol><symbol id="hd-icon-material-symbols-chromecast-2-rounded" viewBox="0 0 24 24"><path fill="currentColor" d="M9 21q-2.925 0-4.962-2.037T2 14q0-2.65 1.713-4.612T8 7.074V5.7q0-1.55 1.075-2.625T11.7 2q.85 0 1.613.375T14.6 3.4l5.175 6.525q.3-.125.625-.062t.55.337l1.525 1.925q.275.325.212.725t-.387.675l-1.175.925q-.325.275-.725.225t-.675-.375l-1.5-1.925Q18 12.1 18 11.763t.2-.613l-5.175-6.525q-.25-.3-.587-.462T11.7 4q-.725 0-1.212.488T10 5.7v1.375q2.575.35 4.288 2.313T16 14q0 2.925-2.037 4.963T9 21m0-2q2.075 0 3.538-1.463T14 14t-1.463-3.537T9 9t-3.537 1.463T4 14t1.463 3.538T9 19"/></symbol><symbol id="hd-icon-material-symbols-chromecast-device" viewBox="0 0 24 24"><path fill="currentColor" d="M20 14.5v-5h3v5zM6 17.25q-1.95 0-3.475-1.15T1 13.5v-3q0-1.475 1.525-2.613T6 6.75q.775 0 1.475.163T9.15 7.5q.3.15.563.238t.475.15t.412.087T11 8h8v8h-8q-.2 0-.4.025t-.413.088t-.474.15t-.563.237q-.975.425-1.675.588T6 17.25M2.5 12.5h1q.2 0 .35-.15T4 12t-.15-.35t-.35-.15h-1q-.2 0-.35.15T2 12t.15.35t.35.15"/></symbol><symbol id="hd-icon-material-symbols-chromecast-device-outline" viewBox="0 0 24 24"><path fill="currentColor" d="M20 14.5v-5h3v5zM19 16h-8q-.4 0-.812.113T9.15 16.5q-.975.425-1.675.588T6 17.25q-1.95 0-3.475-1.15T1 13.5v-3q0-1.475 1.525-2.613T6 6.75q.775 0 1.475.163T9.15 7.5q.625.275 1.038.388T11 8h8zm-13-.75q.55 0 1.075-.125t1.275-.45q.875-.375 1.475-.525T11 14h6v-4h-6q-.575 0-1.175-.15T8.35 9.325Q7.6 9 7.075 8.875T6 8.75q-1.175 0-2.088.538T3 10.5v1h.5q.2 0 .35.15T4 12t-.15.35t-.35.15H3v1q0 .675.913 1.213T6 15.25M3 12"/></symbol><symbol id="hd-icon-material-symbols-chromecast-device-outline-rounded" viewBox="0 0 24 24"><path fill="currentColor" d="M21 14.5q-.425 0-.712-.288T20 13.5v-3q0-.425.288-.712T21 9.5h1q.425 0 .713.288T23 10.5v3q0 .425-.288.713T22 14.5zM17 16h-6q-.4 0-.812.113T9.15 16.5q-.975.425-1.675.588T6 17.25q-1.95 0-3.475-1.15T1 13.5v-3q0-1.475 1.525-2.613T6 6.75q.775 0 1.475.163T9.15 7.5q.625.275 1.038.388T11 8h6q.825 0 1.413.588T19 10v4q0 .825-.587 1.413T17 16m-11-.75q.55 0 1.075-.125t1.275-.45q.875-.375 1.475-.525T11 14h6v-4h-6q-.575 0-1.175-.15T8.35 9.325Q7.6 9 7.075 8.875T6 8.75q-1.175 0-2.088.538T3 10.5v1h.5q.2 0 .35.15T4 12t-.15.35t-.35.15H3v1q0 .675.913 1.213T6 15.25M3 12"/></symbol><symbol id="hd-icon-material-symbols-chromecast-device-rounded" viewBox="0 0 24 24"><path fill="currentColor" d="M21 14.5q-.425 0-.712-.288T20 13.5v-3q0-.425.288-.712T21 9.5h1q.425 0 .713.288T23 10.5v3q0 .425-.288.713T22 14.5zM17 16h-6q-.4 0-.812.113T9.15 16.5q-.975.425-1.675.588T6 17.25q-1.95 0-3.475-1.15T1 13.5v-3q0-1.475 1.525-2.613T6 6.75q.775 0 1.475.163T9.15 7.5q.625.275 1.038.388T11 8h6q.825 0 1.413.588T19 10v4q0 .825-.587 1.413T17 16M2.5 12.5h1q.2 0 .35-.15T4 12t-.15-.35t-.35-.15h-1q-.2 0-.35.15T2 12t.15.35t.35.15"/></symbol><symbol id="hd-icon-material-symbols-chronic" viewBox="0 0 24 24"><path fill="currentColor" d="M9.075 19.8q-3.05-.65-5.062-3.1T2 11q0-3.75 2.625-6.375T11 2t6.375 2.625T20 11q0 1.075-.25 2.088T19.05 15h-6.1q-1.65 0-2.8 1.175T9 19q0 .2.013.4t.062.4M13 14.4l1.4-1.4l-2.4-2.4V6h-2v5.4zm0 6.6h6q.825 0 1.413-.588T21 19t-.587-1.412T19 17h-6q-.825 0-1.412.588T11 19t.588 1.413T13 21m0-1q-.425 0-.712-.288T12 19t.288-.712T13 18t.713.288T14 19t-.288.713T13 20m3 0q-.425 0-.712-.288T15 19t.288-.712T16 18t.713.288T17 19t-.288.713T16 20m3 0q-.425 0-.712-.288T18 19t.288-.712T19 18t.713.288T20 19t-.288.713T19 20"/></symbol><symbol id="hd-icon-material-symbols-chronic-outline" viewBox="0 0 24 24"><path fill="currentColor" d="m13 14.4l1.4-1.4l-2.4-2.4V6h-2v5.4zm-3.8 3.375q.4-1.2 1.413-1.987T12.95 15h3.8q.6-.85.925-1.862T18 11q0-2.925-2.037-4.962T11 4T6.038 6.038T4 11q0 2.45 1.463 4.313T9.2 17.775M13 23q-1.45 0-2.55-.912T9.075 19.8q-3.05-.65-5.062-3.1T2 11q0-3.75 2.625-6.375T11 2t6.375 2.625T20 11q0 1.075-.238 2.088T19.075 15q1.65 0 2.788 1.175T23 19t-1.175 2.825T19 23zm0-2h6q.825 0 1.413-.587T21 19t-.587-1.412T19 17h-6q-.825 0-1.412.588T11 19t.588 1.413T13 21m0-1q-.425 0-.712-.288T12 19t.288-.712T13 18t.713.288T14 19t-.288.713T13 20m3 0q-.425 0-.712-.288T15 19t.288-.712T16 18t.713.288T17 19t-.288.713T16 20m3 0q-.425 0-.712-.288T18 19t.288-.712T19 18t.713.288T20 19t-.288.713T19 20"/></symbol><symbol id="hd-icon-material-symbols-chronic-outline-rounded" viewBox="0 0 24 24"><path fill="currentColor" d="M12 10.6V7q0-.425-.288-.712T11 6t-.712.288T10 7v4q0 .2.075.375t.225.325l2 2q.3.3.7.3t.7-.3t.3-.7t-.3-.7zm-2.8 7.175q.4-1.2 1.413-1.987T12.95 15h3.8q.6-.85.925-1.862T18 11q0-2.925-2.037-4.962T11 4T6.038 6.038T4 11q0 2.45 1.463 4.313T9.2 17.775M13 23q-1.45 0-2.55-.912T9.075 19.8q-3.05-.65-5.062-3.1T2 11q0-3.75 2.625-6.375T11 2t6.375 2.625T20 11q0 1.075-.238 2.088T19.075 15q1.65 0 2.788 1.175T23 19t-1.175 2.825T19 23zm0-2h6q.825 0 1.413-.587T21 19t-.587-1.412T19 17h-6q-.825 0-1.412.588T11 19t.588 1.413T13 21m0-1q-.425 0-.712-.288T12 19t.288-.712T13 18t.713.288T14 19t-.288.713T13 20m3 0q-.425 0-.712-.288T15 19t.288-.712T16 18t.713.288T17 19t-.288.713T16 20m3 0q-.425 0-.712-.288T18 19t.288-.712T19 18t.713.288T20 19t-.288.713T19 20"/></symbol><symbol id="hd-icon-material-symbols-chronic-rounded" viewBox="0 0 24 24"><path fill="currentColor" d="M12 10.6V7q0-.425-.288-.712T11 6t-.712.288T10 7v4q0 .2.075.375t.225.325l2 2q.3.3.7.3t.7-.3t.3-.7t-.3-.7zm-2.925 9.2q-3.05-.65-5.062-3.1T2 11q0-3.75 2.625-6.375T11 2t6.375 2.625T20 11q0 1.075-.25 2.088T19.05 15h-6.1q-1.65 0-2.8 1.175T9 19q0 .2.013.4t.062.4M13 21h6q.825 0 1.413-.588T21 19t-.587-1.412T19 17h-6q-.825 0-1.412.588T11 19t.588 1.413T13 21m0-1q-.425 0-.712-.288T12 19t.288-.712T13 18t.713.288T14 19t-.288.713T13 20m3 0q-.425 0-.712-.288T15 19t.288-.712T16 18t.713.288T17 19t-.288.713T16 20m3 0q-.425 0-.712-.288T18 19t.288-.712T19 18t.713.288T20 19t-.288.713T19 20"/></symbol><symbol id="hd-icon-material-symbols-church" viewBox="0 0 24 24"><path fill="currentColor" d="M2 22v-8l4-1.775V9l5-2.5V5H9V3h2V1h2v2h2v2h-2v1.5L18 9v3.225L22 14v8h-8v-3q0-.825-.587-1.412T12 17t-1.412.588T10 19v3zm10-8.5q.625 0 1.063-.437T13.5 12t-.437-1.062T12 10.5t-1.062.438T10.5 12t.438 1.063T12 13.5"/></symbol><symbol id="hd-icon-material-symbols-church-outline" viewBox="0 0 24 24"><path fill="currentColor" d="M2 22v-8l4-1.775V9l5-2.5V5H9V3h2V1h2v2h2v2h-2v1.5L18 9v3.225L22 14v8h-9v-4q0-.425-.288-.712T12 17t-.712.288T11 18v4zm2-2h5v-2.05q0-1.275.875-2.162T12 14.9t2.125.888T15 17.95V20h5v-4.8l-4-1.8v-3.35L12 8l-4 2.05v3.35l-4 1.8zm8-6.5q.625 0 1.063-.437T13.5 12t-.437-1.062T12 10.5t-1.062.438T10.5 12t.438 1.063T12 13.5m0 .5"/></symbol><symbol id="hd-icon-material-symbols-church-outline-rounded" viewBox="0 0 24 24"><path fill="currentColor" d="M2 20v-4.7q0-.6.325-1.088t.875-.737l2.8-1.25v-2q0-.575.3-1.037t.8-.738L11 6.5V5h-1q-.425 0-.712-.288T9 4t.288-.712T10 3h1V2q0-.425.288-.712T12 1t.713.288T13 2v1h1q.425 0 .713.288T15 4t-.288.713T14 5h-1v1.5l3.9 1.95q.5.275.8.738t.3 1.037v2l2.8 1.25q.55.25.875.738T22 15.3V20q0 .825-.587 1.413T20 22h-6q-.425 0-.712-.288T13 21v-3q0-.425-.288-.712T12 17t-.712.288T11 18v3q0 .425-.288.713T10 22H4q-.825 0-1.412-.587T2 20m2 0h5v-2.05q0-1.275.875-2.162T12 14.9t2.125.888T15 17.95V20h5v-4.8l-4-1.8v-3.35L12 8l-4 2.05v3.35l-4 1.8zm8-6.5q.625 0 1.063-.437T13.5 12t-.437-1.062T12 10.5t-1.062.438T10.5 12t.438 1.063T12 13.5m0 .5"/></symbol><symbol id="hd-icon-material-symbols-church-outline-sharp" viewBox="0 0 24 24"><path fill="currentColor" d="M2 22v-8l4-1.775V9l5-2.5V5H9V3h2V1h2v2h2v2h-2v1.5L18 9v3.225L22 14v8h-9v-5h-2v5zm2-2h5v-5.1h6V20h5v-4.8l-4-1.8v-3.35L12 8l-4 2.05v3.35l-4 1.8zm8-6.5q.625 0 1.063-.437T13.5 12t-.437-1.062T12 10.5t-1.062.438T10.5 12t.438 1.063T12 13.5m0 .5"/></symbol><symbol id="hd-icon-material-symbols-church-rounded" viewBox="0 0 24 24"><path fill="currentColor" d="M2 20v-4.7q0-.6.325-1.088t.875-.737l2.8-1.25v-2q0-.575.3-1.037t.8-.738L11 6.5V5h-1q-.425 0-.712-.288T9 4t.288-.712T10 3h1V2q0-.425.288-.712T12 1t.713.288T13 2v1h1q.425 0 .713.288T15 4t-.288.713T14 5h-1v1.5l3.9 1.95q.5.275.8.738t.3 1.037v2l2.8 1.25q.55.25.875.738T22 15.3V20q0 .825-.587 1.413T20 22h-5q-.425 0-.712-.288T14 21v-2q0-.825-.587-1.412T12 17t-1.412.588T10 19v2q0 .425-.288.713T9 22H4q-.825 0-1.412-.587T2 20m10-6.5q.625 0 1.063-.437T13.5 12t-.437-1.062T12 10.5t-1.062.438T10.5 12t.438 1.063T12 13.5"/></symbol><symbol id="hd-icon-material-symbols-church-sharp" viewBox="0 0 24 24"><path fill="currentColor" d="M2 22v-8l4-1.775V9l5-2.5V5H9V3h2V1h2v2h2v2h-2v1.5L18 9v3.225L22 14v8h-8v-5h-4v5zm10-8.5q.625 0 1.063-.437T13.5 12t-.437-1.062T12 10.5t-1.062.438T10.5 12t.438 1.063T12 13.5"/></symbol><symbol id="hd-icon-material-symbols-cinematic-blur" viewBox="0 0 24 24"><path fill="currentColor" d="m4 3l2 4h3L7 3h2l2 4h3l-2-4h2l2 4h3l-2-4h3q.825 0 1.413.588T22 5v14q0 .825-.587 1.413T20 21H4q-.825 0-1.412-.587T2 19V5q0-.825.588-1.412T4 3m4 15h8v-.55q0-1.1-1.1-1.775T12 15t-2.9.675T8 17.45zm4-4q.825 0 1.413-.587T14 12t-.587-1.412T12 10t-1.412.588T10 12t.588 1.413T12 14"/></symbol><symbol id="hd-icon-material-symbols-cinematic-blur-outline" viewBox="0 0 24 24"><path fill="currentColor" d="m4 3l2 4h3L7 3h2l2 4h3l-2-4h2l2 4h3l-2-4h3q.825 0 1.413.588T22 5v14q0 .825-.587 1.413T20 21H4q-.825 0-1.412-.587T2 19V5q0-.825.588-1.412T4 3m0 6v10h16V9zm0 0v10zm4 9h8v-.55q0-1.1-1.1-1.775T12 15t-2.9.675T8 17.45zm4-4q.825 0 1.413-.587T14 12t-.587-1.412T12 10t-1.412.588T10 12t.588 1.413T12 14"/></symbol><symbol id="hd-icon-material-symbols-cinematic-blur-outline-rounded" viewBox="0 0 24 24"><path fill="currentColor" d="m4 3l1.625 3.25q.175.35.5.55t.7.2q.75 0 1.15-.638t.05-1.312L7 3h2l1.625 3.25q.175.35.5.55t.7.2q.75 0 1.15-.638t.05-1.312L12 3h2l1.625 3.25q.175.35.5.55t.7.2q.75 0 1.15-.638t.05-1.312L17 3h3q.825 0 1.413.587T22 5v14q0 .825-.587 1.413T20 21H4q-.825 0-1.412-.587T2 19V5q0-.825.588-1.412T4 3m0 6v10h16V9zm0 0v10zm4.8 9h6.4q.3 0 .513-.225t.212-.575q0-.425-.262-.825t-.763-.7q-.55-.35-1.275-.513T12 15t-1.625.163t-1.275.512q-.5.3-.775.7t-.275.825q0 .35.225.575T8.8 18m3.2-4q.825 0 1.413-.587T14 12t-.587-1.412T12 10t-1.412.588T10 12t.588 1.413T12 14"/></symbol><symbol id="hd-icon-material-symbols-cinematic-blur-outline-sharp" viewBox="0 0 24 24"><path fill="currentColor" d="m4 3l2 4h3L7 3h2l2 4h3l-2-4h2l2 4h3l-2-4h5v18H2V3zm0 6v10h16V9zm0 0v10zm4 9h8v-.55q0-1.1-1.1-1.775T12 15t-2.9.675T8 17.45zm4-4q.825 0 1.413-.587T14 12t-.587-1.412T12 10t-1.412.588T10 12t.588 1.413T12 14"/></symbol><symbol id="hd-icon-material-symbols-cinematic-blur-rounded" viewBox="0 0 24 24"><path fill="currentColor" d="m4 3l1.625 3.25q.175.35.5.55t.7.2q.75 0 1.15-.638t.05-1.312L7 3h2l1.625 3.25q.175.35.5.55t.7.2q.75 0 1.15-.638t.05-1.312L12 3h2l1.625 3.25q.175.35.5.55t.7.2q.75 0 1.15-.638t.05-1.312L17 3h3q.825 0 1.413.587T22 5v14q0 .825-.587 1.413T20 21H4q-.825 0-1.412-.587T2 19V5q0-.825.588-1.412T4 3m4.8 15h6.4q.325 0 .55-.225t.2-.575q-.05-.45-.325-.85t-.725-.675q-.55-.35-1.275-.513T12 15t-1.625.162t-1.275.513q-.45.275-.725.675t-.325.85q-.05.325.175.563T8.8 18m3.2-4q.825 0 1.413-.587T14 12t-.587-1.412T12 10t-1.412.588T10 12t.588 1.413T12 14"/></symbol><symbol id="hd-icon-material-symbols-cinematic-blur-sharp" viewBox="0 0 24 24"><path fill="currentColor" d="m4 3l2 4h3L7 3h2l2 4h3l-2-4h2l2 4h3l-2-4h5v18H2V3zm4 15h8v-.55q0-1.1-1.1-1.775T12 15t-2.9.675T8 17.45zm4-4q.825 0 1.413-.587T14 12t-.587-1.412T12 10t-1.412.588T10 12t.588 1.413T12 14"/></symbol><symbol id="hd-icon-material-symbols-circle" viewBox="0 0 24 24"><path fill="currentColor" d="M12 22q-2.075 0-3.9-.788t-3.175-2.137T2.788 15.9T2 12t.788-3.9t2.137-3.175T8.1 2.788T12 2t3.9.788t3.175 2.137T21.213 8.1T22 12t-.788 3.9t-2.137 3.175t-3.175 2.138T12 22"/></symbol><symbol id="hd-icon-material-symbols-circle-circle" viewBox="0 0 24 24"><path fill="currentColor" d="M12 22q-2.075 0-3.9-.788t-3.175-2.137T2.788 15.9T2 12t.788-3.9t2.137-3.175T8.1 2.788T12 2t3.9.788t3.175 2.137T21.213 8.1T22 12t-.788 3.9t-2.137 3.175t-3.175 2.138T12 22m0-5q2.075 0 3.538-1.463T17 12t-1.463-3.537T12 7T8.463 8.463T7 12t1.463 3.538T12 17"/></symbol><symbol id="hd-icon-material-symbols-circle-circle-outline" viewBox="0 0 24 24"><path fill="currentColor" d="M12 15q-1.25 0-2.125-.875T9 12t.875-2.125T12 9t2.125.875T15 12t-.875 2.125T12 15m0 7q-2.075 0-3.9-.788t-3.175-2.137T2.788 15.9T2 12t.788-3.9t2.137-3.175T8.1 2.788T12 2t3.9.788t3.175 2.137T21.213 8.1T22 12t-.788 3.9t-2.137 3.175t-3.175 2.138T12 22m0-2q3.325 0 5.663-2.337T20 12t-2.337-5.663T12 4T6.337 6.338T4 12t2.338 5.663T12 20m0-3q2.075 0 3.538-1.463T17 12t-1.463-3.537T12 7T8.463 8.463T7 12t1.463 3.538T12 17"/></symbol><symbol id="hd-icon-material-symbols-circle-notifications" viewBox="0 0 24 24"><path fill="currentColor" d="M12 18.5q.625 0 1.063-.437T13.5 17h-3q0 .625.438 1.063T12 18.5M7 16h10v-2h-1v-2.6q0-1.525-.788-2.787T13 7v-.5q0-.425-.288-.712T12 5.5t-.712.288T11 6.5V7q-1.425.35-2.212 1.613T8 11.4V14H7zm5 6q-2.075 0-3.9-.788t-3.175-2.137T2.788 15.9T2 12t.788-3.9t2.137-3.175T8.1 2.788T12 2t3.9.788t3.175 2.137T21.213 8.1T22 12t-.788 3.9t-2.137 3.175t-3.175 2.138T12 22"/></symbol><symbol id="hd-icon-material-symbols-circle-notifications-outline" viewBox="0 0 24 24"><path fill="currentColor" d="M12 18.5q.625 0 1.063-.437T13.5 17h-3q0 .625.438 1.063T12 18.5M7 16h10v-2h-1v-2.6q0-1.525-.788-2.787T13 7v-.5q0-.425-.288-.712T12 5.5t-.712.288T11 6.5V7q-1.425.35-2.212 1.613T8 11.4V14H7zm3-2v-3q0-.825.588-1.412T12 9t1.413.588T14 11v3zm2 8q-2.075 0-3.9-.788t-3.175-2.137T2.788 15.9T2 12t.788-3.9t2.137-3.175T8.1 2.788T12 2t3.9.788t3.175 2.137T21.213 8.1T22 12t-.788 3.9t-2.137 3.175t-3.175 2.138T12 22m0-2q3.35 0 5.675-2.325T20 12t-2.325-5.675T12 4T6.325 6.325T4 12t2.325 5.675T12 20m0-8"/></symbol><symbol id="hd-icon-material-symbols-circle-notifications-outline-rounded" viewBox="0 0 24 24"><path fill="currentColor" d="M12 18.5q.625 0 1.063-.437T13.5 17h-3q0 .625.438 1.063T12 18.5M10 14v-3q0-.825.588-1.412T12 9t1.413.588T14 11v3zm2 8q-2.075 0-3.9-.788t-3.175-2.137T2.788 15.9T2 12t.788-3.9t2.137-3.175T8.1 2.788T12 2t3.9.788t3.175 2.137T21.213 8.1T22 12t-.788 3.9t-2.137 3.175t-3.175 2.138T12 22m0-2q3.35 0 5.675-2.325T20 12t-2.325-5.675T12 4T6.325 6.325T4 12t2.325 5.675T12 20m-4-4h8q.425 0 .713-.288T17 15t-.288-.712T16 14v-2.6q0-1.525-.788-2.787T13 7v-.5q0-.425-.288-.712T12 5.5t-.712.288T11 6.5V7q-1.425.35-2.212 1.613T8 11.4V14q-.425 0-.712.288T7 15t.288.713T8 16"/></symbol><symbol id="hd-icon-material-symbols-circle-notifications-outline-sharp" viewBox="0 0 24 24"><path fill="currentColor" d="M12 18.5q.625 0 1.063-.437T13.5 17h-3q0 .625.438 1.063T12 18.5M7 16h10v-2h-1v-2.6q0-1.525-.788-2.787T13 7V5.5h-2V7q-1.425.35-2.212 1.613T8 11.4V14H7zm3-2v-3q0-.825.588-1.412T12 9t1.413.588T14 11v3zm2 8q-2.075 0-3.9-.788t-3.175-2.137T2.788 15.9T2 12t.788-3.9t2.137-3.175T8.1 2.788T12 2t3.9.788t3.175 2.137T21.213 8.1T22 12t-.788 3.9t-2.137 3.175t-3.175 2.138T12 22m0-2q3.35 0 5.675-2.325T20 12t-2.325-5.675T12 4T6.325 6.325T4 12t2.325 5.675T12 20m0-8"/></symbol><symbol id="hd-icon-material-symbols-circle-notifications-rounded" viewBox="0 0 24 24"><path fill="currentColor" d="M12 18.5q.625 0 1.063-.437T13.5 17h-3q0 .625.438 1.063T12 18.5m0 3.5q-2.075 0-3.9-.788t-3.175-2.137T2.788 15.9T2 12t.788-3.9t2.137-3.175T8.1 2.788T12 2t3.9.788t3.175 2.137T21.213 8.1T22 12t-.788 3.9t-2.137 3.175t-3.175 2.138T12 22m-4-6h8q.425 0 .713-.288T17 15t-.288-.712T16 14v-2.6q0-1.525-.788-2.787T13 7v-.5q0-.425-.288-.712T12 5.5t-.712.288T11 6.5V7q-1.425.35-2.212 1.613T8 11.4V14q-.425 0-.712.288T7 15t.288.713T8 16"/></symbol><symbol id="hd-icon-material-symbols-circle-notifications-sharp" viewBox="0 0 24 24"><path fill="currentColor" d="M12 18.5q.625 0 1.063-.437T13.5 17h-3q0 .625.438 1.063T12 18.5M7 16h10v-2h-1v-2.6q0-1.525-.788-2.787T13 7V5.5h-2V7q-1.425.35-2.212 1.613T8 11.4V14H7zm5 6q-2.075 0-3.9-.788t-3.175-2.137T2.788 15.9T2 12t.788-3.9t2.137-3.175T8.1 2.788T12 2t3.9.788t3.175 2.137T21.213 8.1T22 12t-.788 3.9t-2.137 3.175t-3.175 2.138T12 22"/></symbol><symbol id="hd-icon-material-symbols-circle-outline" viewBox="0 0 24 24"><path fill="currentColor" d="M12 22q-2.075 0-3.9-.788t-3.175-2.137T2.788 15.9T2 12t.788-3.9t2.137-3.175T8.1 2.788T12 2t3.9.788t3.175 2.137T21.213 8.1T22 12t-.788 3.9t-2.137 3.175t-3.175 2.138T12 22m0-2q3.35 0 5.675-2.325T20 12t-2.325-5.675T12 4T6.325 6.325T4 12t2.325 5.675T12 20m0-8"/></symbol><symbol id="hd-icon-material-symbols-circles" viewBox="0 0 24 24"><path fill="currentColor" d="M17 1q2.5 0 4.25 1.75T23 7t-1.75 4.25T17 13t-4.25-1.75T11 7t1.75-4.25T17 1m.1 14.025q.725 0 1.413-.15t1.337-.425q-.525 3.275-3.025 5.413T11 22q-1.875 0-3.512-.712t-2.85-1.925t-1.926-2.85T2 13q0-3.325 2.138-5.825T9.55 4.15q-.275.675-.413 1.4T9 7q.05 3.35 2.4 5.688t5.7 2.337"/></symbol><symbol id="hd-icon-material-symbols-circles-ext" viewBox="0 0 24 24"><path fill="currentColor" d="M6 21q-1.65 0-2.825-1.175T2 17t1.175-2.825T6 13t2.825 1.175T10 17t-1.175 2.825T6 21m12 0q-1.65 0-2.825-1.175T14 17t1.175-2.825T18 13t2.825 1.175T22 17t-1.175 2.825T18 21m-6-6.1q-.8 0-1.35-.55T10.1 13t.55-1.35T12 11.1t1.35.55t.55 1.35t-.55 1.35t-1.35.55m0-4.9q-1.65 0-2.825-1.175T8 6t1.175-2.825T12 2t2.825 1.175T16 6t-1.175 2.825T12 10"/></symbol><symbol id="hd-icon-material-symbols-circles-ext-outline" viewBox="0 0 24 24"><path fill="currentColor" d="M6 21q-1.65 0-2.825-1.175T2 17t1.175-2.825T6 13t2.825 1.175T10 17t-1.175 2.825T6 21m12 0q-1.65 0-2.825-1.175T14 17t1.175-2.825T18 13t2.825 1.175T22 17t-1.175 2.825T18 21M6 19q.825 0 1.413-.587T8 17t-.587-1.412T6 15t-1.412.588T4 17t.588 1.413T6 19m12 0q.825 0 1.413-.587T20 17t-.587-1.412T18 15t-1.412.588T16 17t.588 1.413T18 19m-6-4.1q-.8 0-1.35-.55T10.1 13t.55-1.35T12 11.1t1.35.55t.55 1.35t-.55 1.35t-1.35.55m0-4.9q-1.65 0-2.825-1.175T8 6t1.175-2.825T12 2t2.825 1.175T16 6t-1.175 2.825T12 10m0-2q.825 0 1.413-.587T14 6t-.587-1.412T12 4t-1.412.588T10 6t.588 1.413T12 8m6 9"/></symbol><symbol id="hd-icon-material-symbols-circles-outline" viewBox="0 0 24 24"><path fill="currentColor" d="M16.65 15q.825.05 1.638-.088t1.562-.462q-.525 3.275-3.025 5.413T11 22q-1.875 0-3.512-.712t-2.85-1.925t-1.926-2.85T2 13q0-3.325 2.138-5.825T9.55 4.15q-.325.75-.462 1.563T9 7.35q-1.8.625-2.9 2.175T5 13q0 2.5 1.75 4.25T11 19q1.925 0 3.475-1.1T16.65 15M17 1q2.5 0 4.25 1.75T23 7t-1.75 4.25T17 13t-4.25-1.75T11 7t1.75-4.25T17 1m0 9q1.25 0 2.125-.875T20 7t-.875-2.125T17 4t-2.125.875T14 7t.875 2.125T17 10m-6.175 3.175"/></symbol><symbol id="hd-icon-material-symbols-circles-outline-rounded" viewBox="0 0 24 24"><path fill="currentColor" d="M11 22q-1.875 0-3.512-.712t-2.85-1.925t-1.926-2.85T2 13q0-2.425 1.175-4.5T6.45 5.275q.55-.3 1.125-.062t.85.837q.25.55 0 1.1t-.775.875q-1.3.775-1.975 2.125T5 13q0 2.5 1.75 4.25T11 19q1.5 0 2.875-.663t2.1-1.987q.3-.55.838-.85t1.112-.1q.65.225.925.8t0 1.15q-1.125 2.2-3.25 3.425T11 22m6-21q2.5 0 4.25 1.75T23 7t-1.75 4.25T17 13t-4.25-1.75T11 7t1.75-4.25T17 1m0 9q1.25 0 2.125-.875T20 7t-.875-2.125T17 4t-2.125.875T14 7t.875 2.125T17 10m-6.175 3.175"/></symbol><symbol id="hd-icon-material-symbols-circles-rounded" viewBox="0 0 24 24"><path fill="currentColor" d="M17 1q2.5 0 4.25 1.75T23 7t-1.75 4.25T17 13t-4.25-1.75T11 7t1.75-4.25T17 1M4.625 19.375Q3.35 18.1 2.675 16.45T2 13q0-2.65 1.4-4.825t3.8-3.3q.725-.3 1.35.125t.5 1.125q-.2 1.825.425 3.538t1.925 3.012q1.275 1.275 2.975 1.888t3.5.412q.7-.075 1.125.475t.175 1.225q-1.1 2.425-3.3 3.875T11 22q-1.8 0-3.45-.675t-2.925-1.95"/></symbol><symbol id="hd-icon-material-symbols-clarify" viewBox="0 0 24 24"><path fill="currentColor" d="M6 17h7v-2H6zm10 0h2V7h-2zM6 13h7v-2H6zm0-4h7V7H6zM4 21q-.825 0-1.412-.587T2 19V5q0-.825.588-1.412T4 3h16q.825 0 1.413.588T22 5v14q0 .825-.587 1.413T20 21z"/></symbol><symbol id="hd-icon-material-symbols-clarify-outline" viewBox="0 0 24 24"><path fill="currentColor" d="M6 17h7v-2H6zm10 0h2V7h-2zM6 13h7v-2H6zm0-4h7V7H6zM4 21q-.825 0-1.412-.587T2 19V5q0-.825.588-1.412T4 3h16q.825 0 1.413.588T22 5v14q0 .825-.587 1.413T20 21zm0-2h16V5H4zm0 0V5z"/></symbol><symbol id="hd-icon-material-symbols-clarify-outline-rounded" viewBox="0 0 24 24"><path fill="currentColor" d="M7 17h5q.425 0 .713-.288T13 16t-.288-.712T12 15H7q-.425 0-.712.288T6 16t.288.713T7 17M17 7q-.425 0-.712.288T16 8v8q0 .425.288.713T17 17t.713-.288T18 16V8q0-.425-.288-.712T17 7M7 13h5q.425 0 .713-.288T13 12t-.288-.712T12 11H7q-.425 0-.712.288T6 12t.288.713T7 13m0-4h5q.425 0 .713-.288T13 8t-.288-.712T12 7H7q-.425 0-.712.288T6 8t.288.713T7 9M4 21q-.825 0-1.412-.587T2 19V5q0-.825.588-1.412T4 3h16q.825 0 1.413.588T22 5v14q0 .825-.587 1.413T20 21zm0-2h16V5H4zm0 0V5z"/></symbol><symbol id="hd-icon-material-symbols-clarify-outline-sharp" viewBox="0 0 24 24"><path fill="currentColor" d="M6 17h7v-2H6zm10 0h2V7h-2zM6 13h7v-2H6zm0-4h7V7H6zM2 21V3h20v18zm2-2h16V5H4zm0 0V5z"/></symbol><symbol id="hd-icon-material-symbols-clarify-rounded" viewBox="0 0 24 24"><path fill="currentColor" d="M7 17h5q.425 0 .713-.288T13 16t-.288-.712T12 15H7q-.425 0-.712.288T6 16t.288.713T7 17M17 7q-.425 0-.712.288T16 8v8q0 .425.288.713T17 17t.713-.288T18 16V8q0-.425-.288-.712T17 7M7 13h5q.425 0 .713-.288T13 12t-.288-.712T12 11H7q-.425 0-.712.288T6 12t.288.713T7 13m0-4h5q.425 0 .713-.288T13 8t-.288-.712T12 7H7q-.425 0-.712.288T6 8t.288.713T7 9M4 21q-.825 0-1.412-.587T2 19V5q0-.825.588-1.412T4 3h16q.825 0 1.413.588T22 5v14q0 .825-.587 1.413T20 21z"/></symbol><symbol id="hd-icon-material-symbols-clarify-sharp" viewBox="0 0 24 24"><path fill="currentColor" d="M6 17h7v-2H6zm10 0h2V7h-2zM6 13h7v-2H6zm0-4h7V7H6zM2 21V3h20v18z"/></symbol><symbol id="hd-icon-material-symbols-clean-hands" viewBox="0 0 24 24"><path fill="currentColor" d="M7 20.025V11h1.6q.175 0 .35.038t.35.087l6.925 2.575q.35.125.563.45t.212.675q0 .525-.363.85T15.8 16h-2.625q-.125 0-.187-.012t-.163-.063l-1.6-.625l-.325.975l1.925.675q.05.025.15.038t.175.012H20q.8 0 1.4.575T22 19l-7.975 3zM1 22V11h4v11zm14-10.35L9.25 9.5h-4q.425-1.275 1.413-2.2T9 6.1V4H7.5V2H13q.85 0 1.6.275t1.375.75L14.55 4.45q-.35-.2-.738-.325T13 4h-2v2.1q1.725.35 2.862 1.713T15 11zM19 10q-.825 0-1.412-.588T17 8q0-.575.425-1.425T19 4q1.15 1.725 1.575 2.575T21 8q0 .825-.587 1.413T19 10"/></symbol><symbol id="hd-icon-material-symbols-clean-hands-outline" viewBox="0 0 24 24"><path fill="currentColor" d="m7 18.5l6.95 1.9l5.95-1.85q-.125-.225-.363-.388T19 18h-5.05q-.675 0-1.075-.05t-.825-.2l-2.325-.775l.55-1.95l2.025.675q.425.125 1 .2t1.7.1q0-.275-.162-.525t-.388-.325L8.6 13H7zM1 22V11h7.6q.175 0 .35.038t.325.087L15.15 13.3q.825.3 1.338 1.05T17 16h2q1.25 0 2.125.825T22 19v1l-8 2.5l-7-1.95V22zm2-2h2v-7H3zm12-8.35l-2-.75q-.05-1.2-.913-2.05T10 8q-.825 0-1.513.413T7.4 9.5H5.25q.425-1.275 1.413-2.2T9 6.1V4H7.5V2H13q.85 0 1.6.275t1.375.75L14.55 4.45q-.35-.2-.738-.325T13 4h-2v2.1q1.725.35 2.862 1.713T15 11zM19 10q-.825 0-1.412-.587T17 8q0-.575.425-1.425T19 4q1.15 1.725 1.575 2.575T21 8q0 .825-.587 1.413T19 10"/></symbol><symbol id="hd-icon-material-symbols-clean-hands-outline-rounded" viewBox="0 0 24 24"><path fill="currentColor" d="m13.95 20.4l5.95-1.85q-.125-.225-.362-.387T19 18h-5.05q-.675 0-1.075-.05t-.825-.2l-1.425-.475q-.4-.125-.575-.5T10 16t.488-.588t.762-.062l1.05.35q.425.125.963.2t1.462.1H15q0-.275-.162-.525t-.388-.325L8.6 13H7v5.5zm-.525 1.95L7 20.55q-.2.65-.788 1.05T5 22H3q-.825 0-1.412-.587T1 20v-7q0-.825.588-1.412T3 11h5.6q.175 0 .35.038t.325.087L15.15 13.3q.825.3 1.338 1.05T17 16h2q1.25 0 2.125.825T22 19q0 .55-.288.863t-.887.512l-6.25 1.95q-.275.1-.575.1t-.575-.075M3 20h2v-7H3zm12-8.35l-2-.75q-.05-1.2-.912-2.05T10 8q-.825 0-1.513.413T7.4 9.5H5.25q.425-1.275 1.413-2.2T9 6.1V4h-.5q-.425 0-.712-.288T7.5 3t.288-.712T8.5 2H13q.65 0 1.563.263t1.412.762q.125.125.213.313t.087.387q0 .425-.287.725t-.713.3q-.2 0-.375-.088t-.35-.212q-.325-.225-.725-.338T13 4h-2v2.1q1.725.35 2.863 1.713T15 11zM19 10q-.825 0-1.412-.587T17 8q0-.525.35-1.263t1.275-2.162q.05-.05.375-.2q.075 0 .375.2q.9 1.4 1.263 2.15T21 8q0 .825-.587 1.413T19 10"/></symbol><symbol id="hd-icon-material-symbols-clean-hands-outline-sharp" viewBox="0 0 24 24"><path fill="currentColor" d="m14 22.5l-7-1.95V22H1V11h7.95L17 14v2h5v4zM3 20h2v-7H3zm10.95.4l5.95-1.85V18h-7.075L9.7 16.95l.6-1.9l2.925.95H15v-.65L8.6 13H7v5.5zM15 11.65l-2-.75q-.05-1.2-.912-2.05T10 8q-.825 0-1.513.413T7.4 9.5H5.25q.425-1.275 1.413-2.2T9 6.1V4H7.5V2H13q.85 0 1.6.275t1.375.75L14.55 4.45q-.35-.2-.738-.325T13 4h-2v2.1q1.725.35 2.862 1.713T15 11zM19 10q-.825 0-1.412-.588T17 8q0-.575.425-1.425T19 4q1.15 1.725 1.575 2.575T21 8q0 .825-.587 1.413T19 10"/></symbol><symbol id="hd-icon-material-symbols-clean-hands-rounded" viewBox="0 0 24 24"><path fill="currentColor" d="M13.375 21.825L7 20.025V11h1.6q.175 0 .35.038t.35.087l6.925 2.575q.35.125.563.45t.212.675q0 .525-.363.85T15.8 16h-2.625q-.125 0-.187-.012t-.163-.063L11.7 15.5q-.2-.075-.4.025t-.25.275q-.05.2.025.375t.275.25l1.475.525q.05.025.15.038t.175.012H20q.8 0 1.4.575T22 19l-7.375 2.775q-.25.1-.612.113t-.638-.063M1 20v-7q0-.825.588-1.412T3 11t1.413.588T5 13v7q0 .825-.587 1.413T3 22t-1.412-.587T1 20m14-8.35L9.65 9.625q-.175-.05-.35-.088T8.925 9.5H5.25q.425-1.275 1.413-2.2T9 6.1V4h-.5q-.425 0-.712-.288T7.5 3t.288-.712T8.5 2H13q.65 0 1.563.263t1.412.762q.125.125.213.313t.087.387q0 .425-.287.725t-.713.3q-.2 0-.375-.088t-.35-.212q-.325-.225-.725-.338T13 4h-2v2.1q1.725.35 2.863 1.713T15 11zM19 10q-.825 0-1.412-.587T17 8q0-.525.35-1.263t1.275-2.162q.05-.05.375-.2q.075 0 .375.2q.9 1.4 1.263 2.15T21 8q0 .825-.587 1.413T19 10"/></symbol><symbol id="hd-icon-material-symbols-clean-hands-sharp" viewBox="0 0 24 24"><path fill="currentColor" d="M1 22V11h4v11zm13 0l-7-1.975V11h1.975L17 14v2h-4l-1.75-.675l-.35.925L13 17h9v2zm1-10.35L9.25 9.5h-4q.425-1.275 1.413-2.2T9 6.1V4H7.5V2H13q.85 0 1.6.275t1.375.75L14.55 4.45q-.35-.2-.738-.325T13 4h-2v2.1q1.725.35 2.862 1.713T15 11zM19 10q-.825 0-1.412-.588T17 8q0-.575.425-1.425T19 4q1.15 1.725 1.575 2.575T21 8q0 .825-.587 1.413T19 10"/></symbol><symbol id="hd-icon-material-symbols-cleaning" viewBox="0 0 24 24"><path fill="currentColor" d="m9 7l1-2V4H9V2h6q.425 0 .713.288T16 3v1l-1 2h-3V5l-2 2zM8 22v-6.85q0-.275.088-.587T8.3 14L12 7h3q.35.35.675.938T16 9v13z"/></symbol><symbol id="hd-icon-material-symbols-cleaning-bucket" viewBox="0 0 24 24"><path fill="currentColor" d="M8.75 23q-.75 0-1.312-.488t-.663-1.237L5 8h14l-1.775 13.275q-.1.75-.663 1.238T15.25 23zM12 16q1.25 0 2.125-.875T15 13v-2h-2v2q0 .425-.288.713T12 14t-.712-.288T11 13v-2H9v2q0 1.25.875 2.125T12 16m3-9q-.625 0-1.062-.437T13.5 5.5t.438-1.062T15 4t1.063.438T16.5 5.5t-.437 1.063T15 7m-5-1q-1.05 0-1.775-.725T7.5 3.5t.725-1.775T10 1t1.775.725T12.5 3.5t-.725 1.775T10 6"/></symbol><symbol id="hd-icon-material-symbols-cleaning-bucket-outline" viewBox="0 0 24 24"><path fill="currentColor" d="M8.75 23q-.75 0-1.312-.488t-.663-1.237L5 8h14l-1.775 13.275q-.1.75-.663 1.238T15.25 23zm0-2h6.5l1.45-11H7.275zM12 16q1.25 0 2.125-.875T15 13v-2h-2v2q0 .425-.288.713T12 14t-.712-.288T11 13v-2H9v2q0 1.25.875 2.125T12 16m3-9q-.625 0-1.062-.437T13.5 5.5t.438-1.062T15 4t1.063.438T16.5 5.5t-.437 1.063T15 7m-5-1q-1.05 0-1.775-.725T7.5 3.5t.725-1.775T10 1t1.775.725T12.5 3.5t-.725 1.775T10 6m5.25 15h-6.5z"/></symbol><symbol id="hd-icon-material-symbols-cleaning-bucket-outline-rounded" viewBox="0 0 24 24"><path fill="currentColor" d="M8.75 23q-.75 0-1.312-.488t-.663-1.237L5.15 9.125q-.05-.45.25-.787T6.15 8h11.7q.45 0 .75.338t.25.787l-1.625 12.15q-.1.75-.663 1.238T15.25 23zm0-2h6.5l1.45-11H7.275zM12 16q1.25 0 2.125-.875T15 13v-1q0-.425-.288-.712T14 11t-.712.288T13 12v1q0 .425-.288.713T12 14t-.712-.288T11 13v-1q0-.425-.288-.712T10 11t-.712.288T9 12v1q0 1.25.875 2.125T12 16m3-9q-.625 0-1.062-.437T13.5 5.5t.438-1.062T15 4t1.063.438T16.5 5.5t-.437 1.063T15 7m-5-1q-1.05 0-1.775-.725T7.5 3.5t.725-1.775T10 1t1.775.725T12.5 3.5t-.725 1.775T10 6m5.25 15h-6.5z"/></symbol><symbol id="hd-icon-material-symbols-cleaning-bucket-outline-sharp" viewBox="0 0 24 24"><path fill="currentColor" d="M7 23L5 8h14l-2 15zm1.75-2h6.5l1.45-11H7.275zM12 16q1.25 0 2.125-.875T15 13v-2h-2v2q0 .425-.288.713T12 14t-.712-.288T11 13v-2H9v2q0 1.25.875 2.125T12 16m3-9q-.625 0-1.062-.437T13.5 5.5t.438-1.062T15 4t1.063.438T16.5 5.5t-.437 1.063T15 7m-5-1q-1.05 0-1.775-.725T7.5 3.5t.725-1.775T10 1t1.775.725T12.5 3.5t-.725 1.775T10 6m5.25 15h-6.5z"/></symbol><symbol id="hd-icon-material-symbols-cleaning-bucket-rounded" viewBox="0 0 24 24"><path fill="currentColor" d="M8.75 23q-.75 0-1.312-.488t-.663-1.237L5.15 9.125q-.05-.45.25-.787T6.15 8h11.7q.45 0 .75.338t.25.787l-1.625 12.15q-.1.75-.663 1.238T15.25 23zM12 16q1.25 0 2.125-.875T15 13v-1q0-.425-.288-.712T14 11t-.712.288T13 12v1q0 .425-.288.713T12 14t-.712-.288T11 13v-1q0-.425-.288-.712T10 11t-.712.288T9 12v1q0 1.25.875 2.125T12 16m3-9q-.625 0-1.062-.437T13.5 5.5t.438-1.062T15 4t1.063.438T16.5 5.5t-.437 1.063T15 7m-5-1q-1.05 0-1.775-.725T7.5 3.5t.725-1.775T10 1t1.775.725T12.5 3.5t-.725 1.775T10 6"/></symbol><symbol id="hd-icon-material-symbols-cleaning-bucket-sharp" viewBox="0 0 24 24"><path fill="currentColor" d="M7 23L5 8h14l-2 15zm5-7q1.25 0 2.125-.875T15 13v-2h-2v2q0 .425-.288.713T12 14t-.712-.288T11 13v-2H9v2q0 1.25.875 2.125T12 16m3-9q-.625 0-1.062-.437T13.5 5.5t.438-1.062T15 4t1.063.438T16.5 5.5t-.437 1.063T15 7m-5-1q-1.05 0-1.775-.725T7.5 3.5t.725-1.775T10 1t1.775.725T12.5 3.5t-.725 1.775T10 6"/></symbol><symbol id="hd-icon-material-symbols-cleaning-outline" viewBox="0 0 24 24"><path fill="currentColor" d="m9 7l1-2V4H9V2h6q.425 0 .713.288T16 3v1l-1 2h-3V5l-2 2zM8 22v-6.85q0-.275.088-.587T8.3 14L12 7h3q.35.35.675.938T16 9v13zm2-2h4V9h-.8L10 15.1zm0 0h4z"/></symbol><symbol id="hd-icon-material-symbols-cleaning-outline-rounded" viewBox="0 0 24 24"><path fill="currentColor" d="M10 5V4q-.425 0-.712-.288T9 3t.288-.712T10 2h5q.425 0 .713.288T16 3v.775q0 .125-.025.213T15.9 4.2L15 6h-3V5l-1.875 1.875q-.025.025-.4.125q-.25 0-.387-.213t-.013-.437zm0 17q-.825 0-1.412-.587T8 20v-4.925q0-.25.05-.487t.175-.463l3.2-6.05q.275-.5.738-.788T13.2 7H15q.425 0 .713.288T16 8v12q0 .825-.587 1.413T14 22zm0-2h4V9h-.8L10 15.1zm0 0h4z"/></symbol><symbol id="hd-icon-material-symbols-cleaning-outline-sharp" viewBox="0 0 24 24"><path fill="currentColor" d="m9 7l1-2V4H9V2h7v2l-1 2h-3V5l-2 2zM8 22v-7.425L12 7h4v15zm2-2h4V9h-.8L10 15.1zm0 0h4z"/></symbol><symbol id="hd-icon-material-symbols-cleaning-rounded" viewBox="0 0 24 24"><path fill="currentColor" d="M12 6V5l-1.875 1.875q-.025.025-.4.125q-.25 0-.387-.213t-.013-.437L10 5V4q-.425 0-.712-.288T9 3t.288-.712T10 2h5q.425 0 .713.288T16 3v.775q0 .125-.025.213T15.9 4.2L15 6zm-2 16q-.825 0-1.412-.587T8 20v-4.925q0-.25.05-.487t.175-.463l3.2-6.05q.275-.5.738-.788T13.2 7H15q.425 0 .713.288T16 8v12q0 .825-.587 1.413T14 22z"/></symbol><symbol id="hd-icon-material-symbols-cleaning-services" viewBox="0 0 24 24"><path fill="currentColor" d="M3 23v-7q0-2.075 1.463-3.537T8 11h1V3q0-.825.588-1.412T11 1h2q.825 0 1.413.588T15 3v8h1q2.075 0 3.538 1.463T21 16v7zm2-2h2v-3q0-.425.288-.712T8 17t.713.288T9 18v3h2v-3q0-.425.288-.712T12 17t.713.288T13 18v3h2v-3q0-.425.288-.712T16 17t.713.288T17 18v3h2v-5q0-1.25-.875-2.125T16 13H8q-1.25 0-2.125.875T5 16z"/></symbol><symbol id="hd-icon-material-symbols-cleaning-services-outline" viewBox="0 0 24 24"><path fill="currentColor" d="M3 23v-7q0-2.075 1.463-3.537T8 11h1V3q0-.825.588-1.412T11 1h2q.825 0 1.413.588T15 3v8h1q2.075 0 3.538 1.463T21 16v7zm2-2h2v-3q0-.425.288-.712T8 17t.713.288T9 18v3h2v-3q0-.425.288-.712T12 17t.713.288T13 18v3h2v-3q0-.425.288-.712T16 17t.713.288T17 18v3h2v-5q0-1.25-.875-2.125T16 13H8q-1.25 0-2.125.875T5 16zm8-10V3h-2v8zm0 0h-2z"/></symbol><symbol id="hd-icon-material-symbols-cleaning-services-outline-rounded" viewBox="0 0 24 24"><path fill="currentColor" d="M5 23q-.825 0-1.412-.587T3 21v-5q0-2.075 1.463-3.537T8 11h1V3q0-.825.588-1.412T11 1h2q.825 0 1.413.588T15 3v8h1q2.075 0 3.538 1.463T21 16v5q0 .825-.587 1.413T19 23zm0-2h2v-3q0-.425.288-.712T8 17t.713.288T9 18v3h2v-3q0-.425.288-.712T12 17t.713.288T13 18v3h2v-3q0-.425.288-.712T16 17t.713.288T17 18v3h2v-5q0-1.25-.875-2.125T16 13H8q-1.25 0-2.125.875T5 16zm8-10V3h-2v8zm0 0h-2z"/></symbol><symbol id="hd-icon-material-symbols-cleaning-services-outline-sharp" viewBox="0 0 24 24"><path fill="currentColor" d="M3 23V11h6V1h6v10h6v12zm2-2h2v-4h2v4h2v-4h2v4h2v-4h2v4h2v-8H5zm8-10V3h-2v8zm0 0h-2z"/></symbol><symbol id="hd-icon-material-symbols-cleaning-services-rounded" viewBox="0 0 24 24"><path fill="currentColor" d="M5 23q-.825 0-1.412-.587T3 21v-5q0-2.075 1.463-3.537T8 11h1V3q0-.825.588-1.412T11 1h2q.825 0 1.413.588T15 3v8h1q2.075 0 3.538 1.463T21 16v5q0 .825-.587 1.413T19 23zm0-2h2v-3q0-.425.288-.712T8 17t.713.288T9 18v3h2v-3q0-.425.288-.712T12 17t.713.288T13 18v3h2v-3q0-.425.288-.712T16 17t.713.288T17 18v3h2v-5q0-1.25-.875-2.125T16 13H8q-1.25 0-2.125.875T5 16z"/></symbol><symbol id="hd-icon-material-symbols-cleaning-services-sharp" viewBox="0 0 24 24"><path fill="currentColor" d="M3 23V11h6V1h6v10h6v12zm2-2h2v-4h2v4h2v-4h2v4h2v-4h2v4h2v-8H5z"/></symbol><symbol id="hd-icon-material-symbols-cleaning-sharp" viewBox="0 0 24 24"><path fill="currentColor" d="m9 7l1-2V4H9V2h7v2l-1 2h-3V5l-2 2zM8 22v-7.425L12 7h4v15z"/></symbol><symbol id="hd-icon-material-symbols-clear-all" viewBox="0 0 24 24"><path fill="currentColor" d="M3 17v-2h14v2zm2-4v-2h14v2zm2-4V7h14v2z"/></symbol><symbol id="hd-icon-material-symbols-clear-all-rounded" viewBox="0 0 24 24"><path fill="currentColor" d="M4 17q-.425 0-.712-.288T3 16t.288-.712T4 15h12q.425 0 .713.288T17 16t-.288.713T16 17zm2-4q-.425 0-.712-.288T5 12t.288-.712T6 11h12q.425 0 .713.288T19 12t-.288.713T18 13zm2-4q-.425 0-.712-.288T7 8t.288-.712T8 7h12q.425 0 .713.288T21 8t-.288.713T20 9z"/></symbol><symbol id="hd-icon-material-symbols-clear-day-rounded" viewBox="0 0 24 24"><path fill="currentColor" d="M12 5q-.425 0-.712-.288Q11 4.425 11 4V2q0-.425.288-.713Q11.575 1 12 1t.713.287Q13 1.575 13 2v2q0 .425-.287.712Q12.425 5 12 5Zm4.95 2.05q-.275-.275-.275-.688q0-.412.275-.712l1.4-1.425q.3-.3.712-.3q.413 0 .713.3q.275.275.275.7q0 .425-.275.7L18.35 7.05q-.275.275-.7.275q-.425 0-.7-.275ZM20 13q-.425 0-.712-.288Q19 12.425 19 12t.288-.713Q19.575 11 20 11h2q.425 0 .712.287q.288.288.288.713t-.288.712Q22.425 13 22 13Zm-8 10q-.425 0-.712-.288Q11 22.425 11 22v-2q0-.425.288-.712Q11.575 19 12 19t.713.288Q13 19.575 13 20v2q0 .425-.287.712Q12.425 23 12 23ZM5.65 7.05l-1.425-1.4q-.3-.3-.3-.725t.3-.7q.275-.275.7-.275q.425 0 .7.275L7.05 5.65q.275.275.275.7q0 .425-.275.7q-.3.275-.7.275q-.4 0-.7-.275Zm12.7 12.725l-1.4-1.425q-.275-.3-.275-.712q0-.413.275-.688q.275-.275.688-.275q.412 0 .712.275l1.425 1.4q.3.275.287.7q-.012.425-.287.725q-.3.3-.725.3t-.7-.3ZM2 13q-.425 0-.712-.288Q1 12.425 1 12t.288-.713Q1.575 11 2 11h2q.425 0 .713.287Q5 11.575 5 12t-.287.712Q4.425 13 4 13Zm2.225 6.775q-.275-.275-.275-.7q0-.425.275-.7L5.65 16.95q.275-.275.688-.275q.412 0 .712.275q.3.3.3.713q0 .412-.3.712l-1.4 1.4q-.3.3-.725.3t-.7-.3ZM12 18q-2.5 0-4.25-1.75T6 12q0-2.5 1.75-4.25T12 6q2.5 0 4.25 1.75T18 12q0 2.5-1.75 4.25T12 18Zm0-2q1.65 0 2.825-1.175Q16 13.65 16 12q0-1.65-1.175-2.825Q13.65 8 12 8q-1.65 0-2.825 1.175Q8 10.35 8 12q0 1.65 1.175 2.825Q10.35 16 12 16Zm0 0q-1.65 0-2.825-1.175Q8 13.65 8 12q0-1.65 1.175-2.825Q10.35 8 12 8q1.65 0 2.825 1.175Q16 10.35 16 12q0 1.65-1.175 2.825Q13.65 16 12 16Z"/></symbol><symbol id="hd-icon-material-symbols-climate-mini-split" viewBox="0 0 24 24"><path fill="currentColor" d="M4 12q-.825 0-1.412-.587T2 10V4q0-.825.588-1.412T4 2h16q.825 0 1.413.588T22 4v6q0 .825-.587 1.413T20 12h-2V8q0-.825-.587-1.412T16 6H8q-.825 0-1.412.588T6 8v4zm3 2h2q0 2.075-1.463 3.538T4 19v-2q1.25 0 2.125-.875T7 14m1-2V8h8v4zm3 8v-6h2v6zm4-6h2q0 1.25.875 2.125T20 17v2q-2.075 0-3.537-1.463T15 14"/></symbol><symbol id="hd-icon-material-symbols-climate-mini-split-outline" viewBox="0 0 24 24"><path fill="currentColor" d="M20 12H4q-.825 0-1.412-.587T2 10V4q0-.825.588-1.412T4 2h16q.825 0 1.413.588T22 4v6q0 .825-.587 1.413T20 12M4 19v-2q1.25 0 2.125-.875T7 14h2q0 2.075-1.463 3.538T4 19m16 0q-2.075 0-3.537-1.463T15 14h2q0 1.25.875 2.125T20 17zm-9 1v-6h2v6zm9-10H4zM6 10V8q0-.825.588-1.412T8 6h8q.825 0 1.413.588T18 8v2h-2V8H8v2zm-2 0h16V4H4z"/></symbol><symbol id="hd-icon-material-symbols-climate-mini-split-outline-rounded" viewBox="0 0 24 24"><path fill="currentColor" d="M20 12H4q-.825 0-1.412-.587T2 10V4q0-.825.588-1.412T4 2h16q.825 0 1.413.588T22 4v6q0 .825-.587 1.413T20 12m-9 7v-4q0-.425.288-.712T12 14t.713.288T13 15v4q0 .425-.288.713T12 20t-.712-.288T11 19m9-9H4zM6 10V8q0-.825.588-1.412T8 6h8q.825 0 1.413.588T18 8v2h-2V8H8v2zm-2 0h16V4H4zm0 9q-.425 0-.712-.288T3 18t.288-.712T4 17q.6 0 1.15-.225t.975-.65q.25-.25.425-.537t.3-.638q.125-.4.425-.675T8 14q.375 0 .65.25t.275.575q0 .65-.475 1.45t-.925 1.25q-.7.7-1.612 1.088T4 19m15.925 0q.425 0 .713-.288t.287-.712t-.288-.712t-.712-.288q-.6 0-1.15-.225t-.975-.65q-.25-.25-.425-.537t-.3-.638q-.125-.4-.425-.675T15.925 14q-.375 0-.65.25t-.275.575q0 .65.475 1.45t.925 1.25q.7.7 1.613 1.088t1.912.387"/></symbol><symbol id="hd-icon-material-symbols-climate-mini-split-outline-sharp" viewBox="0 0 24 24"><path fill="currentColor" d="M22 12H2V2h20zM4 19v-2q1.25 0 2.125-.875T7 14h2q0 2.075-1.463 3.538T4 19m16 0q-2.075 0-3.537-1.463T15 14h2q0 1.25.875 2.125T20 17zm-9 1v-6h2v6zm9-10H4zM6 10V6h12v4h-2V8H8v2zm-2 0h16V4H4z"/></symbol><symbol id="hd-icon-material-symbols-climate-mini-split-rounded" viewBox="0 0 24 24"><path fill="currentColor" d="M4 12q-.825 0-1.412-.587T2 10V4q0-.825.588-1.412T4 2h16q.825 0 1.413.588T22 4v6q0 .825-.587 1.413T20 12h-2V8q0-.825-.587-1.412T16 6H8q-.825 0-1.412.588T6 8v4zm4 0V8h8v4zm3 7v-4q0-.425.288-.712T12 14t.713.288T13 15v4q0 .425-.288.713T12 20t-.712-.288T11 19m-7 0q-.425 0-.712-.288T3 18t.288-.712T4 17q.6 0 1.15-.225t.975-.65q.25-.25.425-.537t.3-.638q.125-.4.425-.675T8 14q.375 0 .65.25t.275.575q0 .65-.475 1.45t-.925 1.25q-.7.7-1.612 1.088T4 19m15.925 0q.425 0 .713-.288t.287-.712t-.288-.712t-.712-.288q-.6 0-1.15-.225t-.975-.65q-.25-.25-.425-.537t-.3-.638q-.125-.4-.425-.675T15.925 14q-.375 0-.65.25t-.275.575q0 .65.475 1.45t.925 1.25q.7.7 1.613 1.088t1.912.387"/></symbol><symbol id="hd-icon-material-symbols-climate-mini-split-sharp" viewBox="0 0 24 24"><path fill="currentColor" d="M2 12V2h20v10h-4V6H6v6zm5 2h2q0 2.075-1.463 3.538T4 19v-2q1.25 0 2.125-.875T7 14m1-2V8h8v4zm3 8v-6h2v6zm4-6h2q0 1.25.875 2.125T20 17v2q-2.075 0-3.537-1.463T15 14"/></symbol><symbol id="hd-icon-material-symbols-clinical-notes" viewBox="0 0 24 24"><path fill="currentColor" d="M17 16q-1.25 0-2.125-.875T14 13t.875-2.125T17 10t2.125.875T20 13t-.875 2.125T17 16m-6 7v-2.9q0-.525.25-.987t.7-.738q.8-.475 1.688-.788t1.812-.462L17 19l1.55-1.875q.925.15 1.8.463t1.675.787q.45.275.713.738T23 20.1V23zm-2-2.9v.9H5q-.825 0-1.412-.587T3 19V5q0-.825.588-1.412T5 3h14q.825 0 1.413.588T21 5v5q-.775-.975-1.75-1.487T17 8V7H7v2h7q-.5.4-.9.9t-.675 1.1H7v2h5q0 .525.113 1.025t.312.975H7v2h3.45q-.675.575-1.062 1.388T9 20.1"/></symbol><symbol id="hd-icon-material-symbols-clinical-notes-outline" viewBox="0 0 24 24"><path fill="currentColor" d="M17 16q-1.25 0-2.125-.875T14 13t.875-2.125T17 10t2.125.875T20 13t-.875 2.125T17 16m0-2q.425 0 .713-.288T18 13t-.288-.712T17 12t-.712.288T16 13t.288.713T17 14m-6 9v-2.9q0-.525.25-.987t.7-.738q.8-.475 1.688-.788t1.812-.462L17 19l1.55-1.875q.925.15 1.8.463t1.675.787q.45.275.713.738T23 20.1V23zm1.975-2h3.075l-1.35-1.65q-.45.125-.875.325t-.85.425zm4.975 0H21v-.9q-.4-.25-.825-.437t-.875-.313zM5 21q-.825 0-1.413-.587T3 19V5q0-.825.588-1.412T5 3h14q.825 0 1.413.588T21 5v5q-.4-.5-.875-.95T19 8.45V5H5v14h4.15q-.075.275-.112.55T9 20.1v.9zM7 9h7q.65-.5 1.425-.75T17 8V7H7zm0 4h5q0-.525.112-1.025t.313-.975H7zm0 4h3.45q.275-.225.588-.4t.637-.325V15H7zm-2 2V5v3.425V8zm12-6"/></symbol><symbol id="hd-icon-material-symbols-clinical-notes-outline-rounded" viewBox="0 0 24 24"><path fill="currentColor" d="M17 16q-1.25 0-2.125-.875T14 13t.875-2.125T17 10t2.125.875T20 13t-.875 2.125T17 16m0-2q.425 0 .713-.288T18 13t-.288-.712T17 12t-.712.288T16 13t.288.713T17 14m-5 9q-.425 0-.712-.288T11 22v-1.9q0-.525.25-.987t.7-.738q.8-.475 1.35-.663t1.475-.337q.3-.05.6.013t.5.287L17 19l1.1-1.325q.2-.25.5-.3t.6 0q.925.15 1.475.338t1.35.662q.45.275.713.738T23 20.1V22q0 .425-.288.713T22 23zm.975-2h3.075l-1.35-1.65q-.45.125-.875.325t-.85.425zm4.975 0H21v-.9q-.4-.25-.825-.437t-.875-.313zM5 19V5v3.425V8zm0 2q-.825 0-1.413-.587T3 19V5q0-.825.588-1.412T5 3h14q.825 0 1.413.588T21 5v5q-.4-.5-.875-.95T19 8.45V5H5v14h4.15q-.075.275-.112.55T9 20.1v.9zM8 9h6q.65-.5 1.425-.75T17 8q0-.425-.288-.712T16 7H8q-.425 0-.712.288T7 8t.288.713T8 9m0 4h4q0-.525.113-1.025t.312-.975H8q-.425 0-.712.288T7 12t.288.713T8 13m0 4h2.45q.275-.225.588-.4t.637-.325V16q0-.4-.213-.7t-.787-.3H8q-.425 0-.712.288T7 16t.288.713T8 17"/></symbol><symbol id="hd-icon-material-symbols-clinical-notes-outline-sharp" viewBox="0 0 24 24"><path fill="currentColor" d="M17 16q-1.25 0-2.125-.875T14 13t.875-2.125T17 10t2.125.875T20 13t-.875 2.125T17 16m0-2q.425 0 .713-.288T18 13t-.288-.712T17 12t-.712.288T16 13t.288.713T17 14m-6 9v-4.275q1.05-.6 2.15-1t2.3-.6L17 19l1.55-1.875q1.2.15 2.3.575t2.15 1V23zm1.975-2h3.075l-1.35-1.65q-.45.125-.875.325t-.85.425zm4.975 0H21v-.9q-.4-.25-.825-.437t-.875-.313zM9 21H3V3h18v7q-.4-.5-.875-.95T19 8.45V5H5v14h4zM7 9h7q.65-.5 1.425-.75T17 8V7H7zm0 4h5q0-.525.112-1.025t.313-.975H7zm0 4h3.15l1.525-.675V15H7zm2 2H5V5h14v3.425q-.45-.2-.962-.312T17 8q-2.075 0-3.537 1.463T12 13q0 .775.213 1.488t.637 1.312L9 17.525zm8-6"/></symbol><symbol id="hd-icon-material-symbols-clinical-notes-rounded" viewBox="0 0 24 24"><path fill="currentColor" d="M17 16q-1.25 0-2.125-.875T14 13t.875-2.125T17 10t2.125.875T20 13t-.875 2.125T17 16m-8 4.1v.9H5q-.825 0-1.412-.587T3 19V5q0-.825.588-1.412T5 3h14q.825 0 1.413.588T21 5v5q-.775-.975-1.75-1.487T17 8q0-.425-.288-.712T16 7H8q-.425 0-.712.288T7 8t.288.713T8 9h6q-.5.4-.9.9t-.675 1.1H8q-.425 0-.712.288T7 12t.288.713T8 13h4q0 .525.113 1.025t.312.975H8q-.425 0-.712.288T7 16t.288.713T8 17h2.45q-.675.575-1.062 1.388T9 20.1m3 2.9q-.425 0-.712-.288T11 22v-1.9q0-.525.25-.987t.7-.738q.8-.475 1.35-.663t1.475-.337q.3-.05.6.013t.5.287L17 19l1.1-1.325q.2-.25.5-.3t.6 0q.925.15 1.475.338t1.35.662q.45.275.713.738T23 20.1V22q0 .425-.288.713T22 23z"/></symbol><symbol id="hd-icon-material-symbols-clinical-notes-sharp" viewBox="0 0 24 24"><path fill="currentColor" d="M17 16q-1.25 0-2.125-.875T14 13t.875-2.125T17 10t2.125.875T20 13t-.875 2.125T17 16m-6 7v-4.275q1.05-.6 2.15-1t2.3-.6L17 19l1.55-1.875q1.2.15 2.3.575t2.15 1V23zm-2-2H3V3h18v7q-.775-.975-1.75-1.487T17 8V7H7v2h7q-.5.4-.9.9t-.675 1.1H7v2h5q0 .525.113 1.025t.312.975H7v2h2z"/></symbol><symbol id="hd-icon-material-symbols-clock-arrow-down" viewBox="0 0 24 24"><path fill="currentColor" d="M8.5 19.5q-3.125 0-5.312-2.187T1 12t2.188-5.312T8.5 4.5t5.313 2.188T16 12t-2.187 5.313T8.5 19.5m11 .5L16 16.5l1.425-1.4l1.075 1.075V4h2v12.2l1.1-1.1l1.4 1.4zm-9-4.5l1.4-1.4l-2.4-2.425V8h-2v4.5z"/></symbol><symbol id="hd-icon-material-symbols-clock-arrow-down-outline" viewBox="0 0 24 24"><path fill="currentColor" d="M8.5 19.5q-3.125 0-5.312-2.187T1 12t2.188-5.312T8.5 4.5t5.313 2.188T16 12t-2.187 5.313T8.5 19.5m11 .5L16 16.5l1.425-1.4l1.075 1.075V4h2v12.2l1.1-1.1l1.4 1.4zm-11-2.5q2.3 0 3.9-1.6T14 12t-1.6-3.9t-3.9-1.6t-3.9 1.6T3 12t1.6 3.9t3.9 1.6m2-2l1.4-1.4l-2.4-2.425V8h-2v4.5zm-2-3.5"/></symbol><symbol id="hd-icon-material-symbols-clock-arrow-down-outline-rounded" viewBox="0 0 24 24"><path fill="currentColor" d="M8.5 19.5q-3.125 0-5.312-2.187T1 12t2.188-5.312T8.5 4.5t5.313 2.188T16 12t-2.187 5.313T8.5 19.5m0-2q2.3 0 3.9-1.6T14 12t-1.6-3.9t-3.9-1.6t-3.9 1.6T3 12t1.6 3.9t3.9 1.6m1-5.825V9q0-.425-.288-.712T8.5 8t-.712.288T7.5 9v3.075q0 .2.075.388t.225.337l2 2q.275.275.7.275t.7-.275t.275-.7t-.275-.7zm9.3 7.625L16.5 17q-.275-.3-.275-.712t.3-.688t.713-.287t.687.287l.575.575V5q0-.425.288-.712T19.5 4t.713.288T20.5 5v11.2l.6-.6q.275-.275.7-.275t.7.275t.275.7t-.275.7l-2.3 2.3q-.3.3-.7.3t-.7-.3"/></symbol><symbol id="hd-icon-material-symbols-clock-arrow-down-rounded" viewBox="0 0 24 24"><path fill="currentColor" d="M8.5 19.5q-3.125 0-5.312-2.187T1 12t2.188-5.312T8.5 4.5t5.313 2.188T16 12t-2.187 5.313T8.5 19.5m1-7.825V9q0-.425-.288-.712T8.5 8t-.712.288T7.5 9v3.075q0 .2.075.388t.225.337l2 2q.275.275.7.275t.7-.275t.275-.7t-.275-.7zm9.3 7.625L16.5 17q-.275-.3-.275-.712t.3-.688t.713-.287t.687.287l.575.575V5q0-.425.288-.712T19.5 4t.713.288T20.5 5v11.2l.6-.6q.275-.275.7-.275t.7.275t.275.7t-.275.7l-2.3 2.3q-.3.3-.7.3t-.7-.3"/></symbol><symbol id="hd-icon-material-symbols-clock-arrow-up" viewBox="0 0 24 24"><path fill="currentColor" d="M8.5 19.5q-3.125 0-5.312-2.187T1 12t2.188-5.312T8.5 4.5t5.313 2.188T16 12t-2.187 5.313T8.5 19.5m10 .5V7.8l-1.1 1.1L16 7.5L19.5 4L23 7.5l-1.425 1.4L20.5 7.825V20zm-8-4.5l1.4-1.4l-2.4-2.425V8h-2v4.5z"/></symbol><symbol id="hd-icon-material-symbols-clock-arrow-up-outline" viewBox="0 0 24 24"><path fill="currentColor" d="M8.5 19.5q-3.125 0-5.312-2.187T1 12t2.188-5.312T8.5 4.5t5.313 2.188T16 12t-2.187 5.313T8.5 19.5m10 .5V7.8l-1.1 1.1L16 7.5L19.5 4L23 7.5l-1.425 1.4L20.5 7.825V20zm-10-2.5q2.3 0 3.9-1.6T14 12t-1.6-3.9t-3.9-1.6t-3.9 1.6T3 12t1.6 3.9t3.9 1.6m2-2l1.4-1.4l-2.4-2.425V8h-2v4.5zm-2-3.5"/></symbol><symbol id="hd-icon-material-symbols-clock-arrow-up-outline-rounded" viewBox="0 0 24 24"><path fill="currentColor" d="M8.5 19.5q-3.125 0-5.312-2.187T1 12t2.188-5.312T8.5 4.5t5.313 2.188T16 12t-2.187 5.313T8.5 19.5m0-2q2.3 0 3.9-1.6T14 12t-1.6-3.9t-3.9-1.6t-3.9 1.6T3 12t1.6 3.9t3.9 1.6m1-5.825V9q0-.425-.288-.712T8.5 8t-.712.288T7.5 9v3.075q0 .2.075.388t.225.337l2 2q.275.275.7.275t.7-.275t.275-.7t-.275-.7zm9-3.875l-.6.6q-.275.275-.7.275t-.7-.275t-.275-.7t.275-.7l2.3-2.3q.3-.3.7-.3t.7.3L22.5 7q.275.3.275.713t-.3.687t-.712.288t-.688-.288l-.575-.575V19q0 .425-.287.713T19.5 20t-.712-.288T18.5 19z"/></symbol><symbol id="hd-icon-material-symbols-clock-arrow-up-rounded" viewBox="0 0 24 24"><path fill="currentColor" d="M8.5 19.5q-3.125 0-5.312-2.187T1 12t2.188-5.312T8.5 4.5t5.313 2.188T16 12t-2.187 5.313T8.5 19.5m1-7.825V9q0-.425-.288-.712T8.5 8t-.712.288T7.5 9v3.075q0 .2.075.388t.225.337l2 2q.275.275.7.275t.7-.275t.275-.7t-.275-.7zm9-3.875l-.6.6q-.275.275-.7.275t-.7-.275t-.275-.7t.275-.7l2.3-2.3q.3-.3.7-.3t.7.3L22.5 7q.275.3.275.713t-.3.687t-.712.288t-.688-.288l-.575-.575V19q0 .425-.287.713T19.5 20t-.712-.288T18.5 19z"/></symbol><symbol id="hd-icon-material-symbols-clock-loader-10" viewBox="0 0 24 24"><path fill="currentColor" d="M12 22q-2.075 0-3.9-.788t-3.175-2.137T2.788 15.9T2 12t.788-3.9t2.137-3.175T8.1 2.788T12 2t3.9.788t3.175 2.137T21.213 8.1T22 12t-.788 3.9t-2.137 3.175t-3.175 2.138T12 22m0-2q3.35 0 5.675-2.325T20 12q0-1.6-.6-3.075t-1.725-2.6L12 12V4Q8.65 4 6.325 6.325T4 12t2.325 5.675T12 20"/></symbol><symbol id="hd-icon-material-symbols-clock-loader-20" viewBox="0 0 24 24"><path fill="currentColor" d="M12 22q-2.075 0-3.9-.788t-3.175-2.137T2.788 15.9T2 12t.788-3.9t2.137-3.175T8.1 2.788T12 2t3.9.788t3.175 2.137T21.213 8.1T22 12t-.788 3.9t-2.137 3.175t-3.175 2.138T12 22m0-2q3.35 0 5.675-2.325T20 12h-8V4Q8.65 4 6.325 6.325T4 12t2.325 5.675T12 20"/></symbol><symbol id="hd-icon-material-symbols-clock-loader-40" viewBox="0 0 24 24"><path fill="currentColor" d="M12 22q-2.075 0-3.9-.788t-3.175-2.137T2.788 15.9T2 12t.788-3.9t2.137-3.175T8.1 2.788T12 2t3.9.788t3.175 2.137T21.213 8.1T22 12t-.788 3.9t-2.137 3.175t-3.175 2.138T12 22m0-2q1.6 0 3.075-.6t2.6-1.725L12 12V4Q8.65 4 6.325 6.325T4 12t2.325 5.675T12 20"/></symbol><symbol id="hd-icon-material-symbols-clock-loader-60" viewBox="0 0 24 24"><path fill="currentColor" d="M12 22q-2.075 0-3.9-.788t-3.175-2.137T2.788 15.9T2 12t.788-3.9t2.137-3.175T8.1 2.788T12 2t3.9.788t3.175 2.137T21.213 8.1T22 12t-.788 3.9t-2.137 3.175t-3.175 2.138T12 22m-5.675-4.325L12 12V4Q8.65 4 6.325 6.325T4 12q0 1.6.6 3.075t1.725 2.6"/></symbol><symbol id="hd-icon-material-symbols-clock-loader-80" viewBox="0 0 24 24"><path fill="currentColor" d="M12 22q-2.075 0-3.9-.788t-3.175-2.137T2.788 15.9T2 12t.788-3.9t2.137-3.175T8.1 2.788T12 2t3.9.788t3.175 2.137T21.213 8.1T22 12t-.788 3.9t-2.137 3.175t-3.175 2.138T12 22M4 12h8V4Q8.65 4 6.325 6.325T4 12"/></symbol><symbol id="hd-icon-material-symbols-clock-loader-90" viewBox="0 0 24 24"><path fill="currentColor" d="M12 22q-2.075 0-3.9-.788t-3.175-2.137T2.788 15.9T2 12t.788-3.9t2.137-3.175T8.1 2.788T12 2t3.9.788t3.175 2.137T21.213 8.1T22 12t-.788 3.9t-2.137 3.175t-3.175 2.138T12 22M6.325 6.325L12 12V4q-1.6 0-3.075.6t-2.6 1.725"/></symbol><symbol id="hd-icon-material-symbols-close" viewBox="0 0 24 24"><path fill="currentColor" d="M6.4 19L5 17.6l5.6-5.6L5 6.4L6.4 5l5.6 5.6L17.6 5L19 6.4L13.4 12l5.6 5.6l-1.4 1.4l-5.6-5.6z"/></symbol><symbol id="hd-icon-material-symbols-close-fullscreen" viewBox="0 0 24 24"><path fill="currentColor" d="M3.4 22L2 20.6L8.6 14H4v-2h8v8h-2v-4.6zM12 12V4h2v4.6L20.6 2L22 3.4L15.4 10H20v2z"/></symbol></svg>