<svg xmlns="http://www.w3.org/2000/svg" xmlns:xlink="http://www.w3.org/1999/xlink"><symbol id="hd-icon-material-symbols-stairs-outline" viewBox="0 0 24 24"><path fill="currentColor" d="M6 18h4.425v-3.325H13V11.35h2.575V8H18V6h-4.425v3.325H11v3.325H8.425V16H6zm-1 3q-.825 0-1.412-.587T3 19V5q0-.825.588-1.412T5 3h14q.825 0 1.413.588T21 5v14q0 .825-.587 1.413T19 21zm0-2h14V5H5zM5 5v14z"/></symbol><symbol id="hd-icon-material-symbols-stairs-outline-rounded" viewBox="0 0 24 24"><path fill="currentColor" d="M10.425 14.675H12q.425 0 .713-.288t.287-.712V11.35h1.575q.425 0 .713-.287t.287-.713V8H17q.425 0 .713-.287T18 7t-.288-.712T17 6h-2.425q-.425 0-.712.288T13.574 7v2.325H12q-.425 0-.712.288t-.288.712v2.325H9.425q-.425 0-.712.288t-.288.712V16H7q-.425 0-.712.288T6 17t.288.713T7 18h2.425q.425 0 .713-.288t.287-.712zM5 21q-.825 0-1.412-.587T3 19V5q0-.825.588-1.412T5 3h14q.825 0 1.413.588T21 5v14q0 .825-.587 1.413T19 21zm0-2h14V5H5zM5 5v14z"/></symbol><symbol id="hd-icon-material-symbols-stairs-outline-sharp" viewBox="0 0 24 24"><path fill="currentColor" d="M6 18h4.425v-3.325H13V11.35h2.575V8H18V6h-4.425v3.325H11v3.325H8.425V16H6zm-3 3V3h18v18zm2-2h14V5H5zm0 0V5z"/></symbol><symbol id="hd-icon-material-symbols-stairs-rounded" viewBox="0 0 24 24"><path fill="currentColor" d="M10.425 14.675H12q.425 0 .713-.288t.287-.712V11.35h1.575q.425 0 .713-.287t.287-.713V8H17q.425 0 .713-.287T18 7t-.288-.712T17 6h-2.425q-.425 0-.712.288T13.574 7v2.325H12q-.425 0-.712.288t-.288.712v2.325H9.425q-.425 0-.712.288t-.288.712V16H7q-.425 0-.712.288T6 17t.288.713T7 18h2.425q.425 0 .713-.288t.287-.712zM5 21q-.825 0-1.412-.587T3 19V5q0-.825.588-1.412T5 3h14q.825 0 1.413.588T21 5v14q0 .825-.587 1.413T19 21z"/></symbol><symbol id="hd-icon-material-symbols-stairs-sharp" viewBox="0 0 24 24"><path fill="currentColor" d="M6 18h4.425v-3.325H13V11.35h2.575V8H18V6h-4.425v3.325H11v3.325H8.425V16H6zm-3 3V3h18v18z"/></symbol><symbol id="hd-icon-material-symbols-star" viewBox="0 0 24 24"><path fill="currentColor" d="m5.825 21l1.625-7.025L2 9.25l7.2-.625L12 2l2.8 6.625l7.2.625l-5.45 4.725L18.175 21L12 17.275z"/></symbol><symbol id="hd-icon-material-symbols-star-half" viewBox="0 0 24 24"><path fill="currentColor" d="m15.15 16.85l-.825-3.6l2.775-2.4l-3.65-.325l-1.45-3.4v7.8zM5.825 21l1.625-7.025L2 9.25l7.2-.625L12 2l2.8 6.625l7.2.625l-5.45 4.725L18.175 21L12 17.275z"/></symbol><symbol id="hd-icon-material-symbols-star-half-outline" viewBox="0 0 24 24"><path fill="currentColor" d="m12 14.925l3.15 1.925l-.825-3.6l2.775-2.4l-3.65-.325l-1.45-3.4zM5.825 21l1.625-7.025L2 9.25l7.2-.625L12 2l2.8 6.625l7.2.625l-5.45 4.725L18.175 21L12 17.275z"/></symbol><symbol id="hd-icon-material-symbols-star-half-rounded" viewBox="0 0 24 24"><path fill="currentColor" d="M12 7.125v7.8l3.15 1.925l-.825-3.6l2.775-2.4l-3.65-.325zm0 10.15l-4.15 2.5q-.275.175-.575.15t-.525-.2t-.35-.437t-.05-.588l1.1-4.725L3.775 10.8q-.25-.225-.312-.513t.037-.562t.3-.45t.55-.225l4.85-.425l1.875-4.45q.125-.3.388-.45t.537-.15t.537.15t.388.45l1.875 4.45l4.85.425q.35.05.55.225t.3.45t.038.563t-.313.512l-3.675 3.175l1.1 4.725q.075.325-.05.588t-.35.437t-.525.2t-.575-.15z"/></symbol><symbol id="hd-icon-material-symbols-star-outline" viewBox="0 0 24 24"><path fill="currentColor" d="m8.85 16.825l3.15-1.9l3.15 1.925l-.825-3.6l2.775-2.4l-3.65-.325l-1.45-3.4l-1.45 3.375l-3.65.325l2.775 2.425zM5.825 21l1.625-7.025L2 9.25l7.2-.625L12 2l2.8 6.625l7.2.625l-5.45 4.725L18.175 21L12 17.275zM12 12.25"/></symbol><symbol id="hd-icon-material-symbols-star-outline-rounded" viewBox="0 0 24 24"><path fill="currentColor" d="m8.85 16.825l3.15-1.9l3.15 1.925l-.825-3.6l2.775-2.4l-3.65-.325l-1.45-3.4l-1.45 3.375l-3.65.325l2.775 2.425zm3.15.45l-4.15 2.5q-.275.175-.575.15t-.525-.2t-.35-.437t-.05-.588l1.1-4.725L3.775 10.8q-.25-.225-.312-.513t.037-.562t.3-.45t.55-.225l4.85-.425l1.875-4.45q.125-.3.388-.45t.537-.15t.537.15t.388.45l1.875 4.45l4.85.425q.35.05.55.225t.3.45t.038.563t-.313.512l-3.675 3.175l1.1 4.725q.075.325-.05.588t-.35.437t-.525.2t-.575-.15zm0-5.025"/></symbol><symbol id="hd-icon-material-symbols-star-rate" viewBox="0 0 24 24"><path fill="currentColor" d="m5.825 21l2.325-7.6L2 9h7.6L12 1l2.4 8H22l-6.15 4.4l2.325 7.6L12 16.3z"/></symbol><symbol id="hd-icon-material-symbols-star-rate-half" viewBox="0 0 24 24"><path fill="currentColor" d="M12 7.9v5.9l2.4 1.85l-.9-3.05l2.25-1.6h-2.8zM5.825 21l2.325-7.6L2 9h7.6L12 1l2.4 8H22l-6.15 4.4l2.325 7.6L12 16.3z"/></symbol><symbol id="hd-icon-material-symbols-star-rate-half-rounded" viewBox="0 0 24 24"><path fill="currentColor" d="M12 7.9v5.9l2.4 1.85l-.9-3.05l2.25-1.6h-2.8zm0 8.4l-3.7 2.825q-.275.225-.6.213t-.575-.188t-.387-.475t-.013-.65L8.15 13.4l-3.625-2.575q-.3-.2-.375-.525t.025-.6t.35-.488t.6-.212H9.6l1.45-4.8q.125-.35.388-.538T12 3.475t.563.188t.387.537L14.4 9h4.475q.35 0 .6.213t.35.487t.025.6t-.375.525L15.85 13.4l1.425 4.625q.125.35-.012.65t-.388.475t-.575.188t-.6-.213z"/></symbol><symbol id="hd-icon-material-symbols-star-rate-outline" viewBox="0 0 24 24"><path fill="currentColor" d="M9.6 15.65L12 13.8l2.4 1.85l-.9-3.05l2.25-1.6h-2.8L12 7.9l-.95 3.1h-2.8l2.25 1.6zM5.825 21l2.325-7.6L2 9h7.6L12 1l2.4 8H22l-6.15 4.4l2.325 7.6L12 16.3zM12 11.775"/></symbol><symbol id="hd-icon-material-symbols-star-rate-outline-rounded" viewBox="0 0 24 24"><path fill="currentColor" d="M9.6 15.65L12 13.8l2.4 1.85l-.9-3.05l2.25-1.6h-2.8L12 7.9l-.95 3.1h-2.8l2.25 1.6zm2.4.65l-3.7 2.825q-.275.225-.6.213t-.575-.188t-.387-.475t-.013-.65L8.15 13.4l-3.625-2.575q-.3-.2-.375-.525t.025-.6t.35-.488t.6-.212H9.6l1.45-4.8q.125-.35.388-.538T12 3.475t.563.188t.387.537L14.4 9h4.475q.35 0 .6.213t.35.487t.025.6t-.375.525L15.85 13.4l1.425 4.625q.125.35-.012.65t-.388.475t-.575.188t-.6-.213zm0-4.525"/></symbol><symbol id="hd-icon-material-symbols-star-rate-rounded" viewBox="0 0 24 24"><path fill="currentColor" d="m12 16.3l-3.7 2.825q-.275.225-.6.213t-.575-.188t-.387-.475t-.013-.65L8.15 13.4l-3.625-2.575q-.3-.2-.375-.525t.025-.6t.35-.488t.6-.212H9.6l1.45-4.8q.125-.35.388-.538T12 3.475t.563.188t.387.537L14.4 9h4.475q.35 0 .6.213t.35.487t.025.6t-.375.525L15.85 13.4l1.425 4.625q.125.35-.012.65t-.388.475t-.575.188t-.6-.213z"/></symbol><symbol id="hd-icon-material-symbols-star-rounded" viewBox="0 0 24 24"><path fill="currentColor" d="m12 17.275l-4.15 2.5q-.275.175-.575.15t-.525-.2t-.35-.437t-.05-.588l1.1-4.725L3.775 10.8q-.25-.225-.312-.513t.037-.562t.3-.45t.55-.225l4.85-.425l1.875-4.45q.125-.3.388-.45t.537-.15t.537.15t.388.45l1.875 4.45l4.85.425q.35.05.55.225t.3.45t.038.563t-.313.512l-3.675 3.175l1.1 4.725q.075.325-.05.588t-.35.437t-.525.2t-.575-.15z"/></symbol><symbol id="hd-icon-material-symbols-star-shine" viewBox="0 0 24 24"><path fill="currentColor" d="m21.3 18.7l-3-3l1.4-1.4l3 3zm-3.6-12l-1.4-1.4l3-3l1.4 1.4zm-11.4 0l-3-3l1.4-1.4l3 3zm-3.6 12l-1.4-1.4l3-3l1.4 1.4zM5.825 21l1.625-7.025L2 9.25l7.2-.625L12 2l2.8 6.625l7.2.625l-5.45 4.725L18.175 21L12 17.275z"/></symbol><symbol id="hd-icon-material-symbols-star-shine-outline" viewBox="0 0 24 24"><path fill="currentColor" d="m21.3 18.7l-3-3l1.4-1.4l3 3zm-3.6-12l-1.4-1.4l3-3l1.4 1.4zm-11.4 0l-3-3l1.4-1.4l3 3zm-3.6 12l-1.4-1.4l3-3l1.4 1.4zm6.15-1.875l3.15-1.9l3.15 1.925l-.825-3.6l2.775-2.4l-3.65-.325l-1.45-3.4l-1.45 3.375l-3.65.325l2.775 2.425zM5.825 21l1.625-7.025L2 9.25l7.2-.625L12 2l2.8 6.625l7.2.625l-5.45 4.725L18.175 21L12 17.275zM12 11.975"/></symbol><symbol id="hd-icon-material-symbols-star-shine-outline-rounded" viewBox="0 0 24 24"><path fill="currentColor" d="M19 15q.3-.3.713-.3t.712.3L22 16.6q.3.3.3.7t-.3.7t-.7.3t-.7-.3L19 16.425q-.3-.3-.3-.712T19 15m1-12q.3.3.3.713t-.3.712L18.425 6q-.3.3-.712.3T17 6t-.3-.712t.3-.713L18.6 3q.3-.3.7-.3t.7.3M4 3q.3-.3.713-.3t.712.3L7 4.6q.3.3.3.7T7 6t-.712.3t-.713-.3L4 4.425q-.3-.3-.3-.712T4 3m1 12q.3.3.3.713t-.3.712L3.425 18q-.3.3-.712.3T2 18t-.3-.712t.3-.713L3.6 15q.3-.3.7-.3t.7.3m3.85 1.825l3.15-1.9l3.15 1.925l-.825-3.6l2.775-2.4l-3.65-.325l-1.45-3.4l-1.45 3.375l-3.65.325l2.775 2.425zm3.15.45l-4.15 2.5q-.275.175-.575.15t-.525-.2t-.35-.437t-.05-.588l1.1-4.725L3.775 10.8q-.25-.225-.312-.513t.037-.562t.3-.45t.55-.225l4.85-.425l1.875-4.45q.125-.3.388-.45t.537-.15t.537.15t.388.45l1.875 4.45l4.85.425q.35.05.55.225t.3.45t.038.563t-.313.512l-3.675 3.175l1.1 4.725q.075.325-.05.588t-.35.437t-.525.2t-.575-.15z"/></symbol><symbol id="hd-icon-material-symbols-star-shine-rounded" viewBox="0 0 24 24"><path fill="currentColor" d="M19 15q.3-.3.713-.3t.712.3L22 16.6q.3.3.3.7t-.3.7t-.7.3t-.7-.3L19 16.425q-.3-.3-.3-.712T19 15m1-12q.3.3.3.713t-.3.712L18.425 6q-.3.3-.712.3T17 6t-.3-.712t.3-.713L18.6 3q.3-.3.7-.3t.7.3M4 3q.3-.3.713-.3t.712.3L7 4.6q.3.3.3.7T7 6t-.712.3t-.713-.3L4 4.425q-.3-.3-.3-.712T4 3m1 12q.3.3.3.713t-.3.712L3.425 18q-.3.3-.712.3T2 18t-.3-.712t.3-.713L3.6 15q.3-.3.7-.3t.7.3m7 2.275l-4.15 2.5q-.275.175-.575.15t-.525-.2t-.35-.437t-.05-.588l1.1-4.725L3.775 10.8q-.25-.225-.312-.513t.037-.562t.3-.45t.55-.225l4.85-.425l1.875-4.45q.125-.3.388-.45t.537-.15t.537.15t.388.45l1.875 4.45l4.85.425q.35.05.55.225t.3.45t.038.563t-.313.512l-3.675 3.175l1.1 4.725q.075.325-.05.588t-.35.437t-.525.2t-.575-.15z"/></symbol><symbol id="hd-icon-material-symbols-stars" viewBox="0 0 24 24"><path fill="currentColor" d="m8 18l4-3.05L16 18l-1.5-4.95l4-2.85h-4.9L12 5l-1.6 5.2H5.5l4 2.85zm4 4q-2.075 0-3.9-.788t-3.175-2.137T2.788 15.9T2 12t.788-3.9t2.137-3.175T8.1 2.788T12 2t3.9.788t3.175 2.137T21.213 8.1T22 12t-.788 3.9t-2.137 3.175t-3.175 2.138T12 22"/></symbol><symbol id="hd-icon-material-symbols-stars-2" viewBox="0 0 24 24"><path fill="currentColor" d="m5.825 21l1.625-7.025L2 9.25l7.2-.625L12 2l2.8 6.625l7.2.625l-5.45 4.725L18.175 21L12 17.275zM17.25 7l.525-2.225L16 3.3l2.35-.2l.9-2.1l.9 2.1l2.35.2l-1.775 1.475L21.25 7l-2-1.175z"/></symbol><symbol id="hd-icon-material-symbols-stars-2-outline" viewBox="0 0 24 24"><path fill="currentColor" d="m8.85 16.825l3.15-1.9l3.15 1.925l-.825-3.6l2.775-2.4l-3.65-.325l-1.45-3.4l-1.45 3.375l-3.65.325l2.775 2.425zM5.825 21l1.625-7.025L2 9.25l7.2-.625L12 2l2.8 6.625l7.2.625l-5.45 4.725L18.175 21L12 17.275zM17.25 7l.525-2.225L16 3.3l2.35-.2l.9-2.1l.9 2.1l2.35.2l-1.775 1.475L21.25 7l-2-1.175zM12 11.975"/></symbol><symbol id="hd-icon-material-symbols-stars-2-outline-rounded" viewBox="0 0 24 24"><path fill="currentColor" d="m8.85 16.825l3.15-1.9l3.15 1.925l-.825-3.6l2.775-2.4l-3.65-.325l-1.45-3.4l-1.45 3.375l-3.65.325l2.775 2.425zm3.15.45l-4.15 2.5q-.275.175-.575.15t-.525-.2t-.35-.437t-.05-.588l1.1-4.725L3.775 10.8q-.25-.225-.312-.513t.037-.562t.3-.45t.55-.225l4.85-.425l1.875-4.45q.125-.3.388-.45t.537-.15t.537.15t.388.45l1.875 4.45l4.85.425q.35.05.55.225t.3.45t.038.563t-.313.512l-3.675 3.175l1.1 4.725q.075.325-.05.588t-.35.437t-.525.2t-.575-.15zm7.25-11.45l-1.5.875q-.15.075-.288-.013t-.087-.262l.4-1.65l-1.325-1.1q-.125-.125-.075-.262t.225-.163l1.75-.15l.675-1.575q.05-.15.225-.15t.225.15L20.15 3.1l1.75.15q.175.025.225.163t-.075.262l-1.325 1.1l.4 1.65q.05.175-.087.263t-.288.012zM12 11.975"/></symbol><symbol id="hd-icon-material-symbols-stars-2-rounded" viewBox="0 0 24 24"><path fill="currentColor" d="m12 17.275l-4.15 2.5q-.275.175-.575.15t-.525-.2t-.35-.437t-.05-.588l1.1-4.725L3.775 10.8q-.25-.225-.312-.513t.037-.562t.3-.45t.55-.225l4.85-.425l1.875-4.45q.125-.3.388-.45t.537-.15t.537.15t.388.45l1.875 4.45l4.85.425q.35.05.55.225t.3.45t.038.563t-.313.512l-3.675 3.175l1.1 4.725q.075.325-.05.588t-.35.437t-.525.2t-.575-.15zm7.25-11.45l-1.5.875q-.15.075-.288-.012t-.087-.263l.4-1.65l-1.325-1.1q-.125-.125-.075-.262t.225-.163l1.75-.15l.675-1.575q.05-.15.225-.15t.225.15L20.15 3.1l1.75.15q.175.025.225.163t-.075.262l-1.325 1.1l.4 1.65q.05.175-.087.263t-.288.012z"/></symbol><symbol id="hd-icon-material-symbols-stars-outline" viewBox="0 0 24 24"><path fill="currentColor" d="m8 18l4-3.05L16 18l-1.5-4.95l4-2.85h-4.9L12 5l-1.6 5.2H5.5l4 2.85zm4 4q-2.075 0-3.9-.788t-3.175-2.137T2.788 15.9T2 12t.788-3.9t2.137-3.175T8.1 2.788T12 2t3.9.788t3.175 2.137T21.213 8.1T22 12t-.788 3.9t-2.137 3.175t-3.175 2.138T12 22m0-2q3.35 0 5.675-2.325T20 12t-2.325-5.675T12 4T6.325 6.325T4 12t2.325 5.675T12 20m0-8"/></symbol><symbol id="hd-icon-material-symbols-stars-outline-rounded" viewBox="0 0 24 24"><path fill="currentColor" d="m12 14.95l2.775 2.1q.3.2.6.013t.175-.538L14.5 13.05l2.725-1.95q.3-.225.175-.563t-.475-.337H13.6l-1.125-3.65Q12.35 6.2 12 6.2t-.475.35L10.4 10.2H7.075q-.35 0-.475.338t.175.562L9.5 13.05l-1.05 3.475q-.125.35.175.538t.6-.013zM12 22q-2.075 0-3.9-.788t-3.175-2.137T2.788 15.9T2 12t.788-3.9t2.137-3.175T8.1 2.788T12 2t3.9.788t3.175 2.137T21.213 8.1T22 12t-.788 3.9t-2.137 3.175t-3.175 2.138T12 22m0-2q3.325 0 5.663-2.337T20 12t-2.337-5.663T12 4T6.337 6.338T4 12t2.338 5.663T12 20"/></symbol><symbol id="hd-icon-material-symbols-stars-rounded" viewBox="0 0 24 24"><path fill="currentColor" d="m12 14.95l2.775 2.1q.3.2.6.013t.175-.538L14.5 13.05l2.725-1.95q.3-.225.175-.563t-.475-.337H13.6l-1.125-3.65Q12.35 6.2 12 6.2t-.475.35L10.4 10.2H7.075q-.35 0-.475.338t.175.562L9.5 13.05l-1.05 3.475q-.125.35.175.538t.6-.013zM12 22q-2.075 0-3.9-.788t-3.175-2.137T2.788 15.9T2 12t.788-3.9t2.137-3.175T8.1 2.788T12 2t3.9.788t3.175 2.137T21.213 8.1T22 12t-.788 3.9t-2.137 3.175t-3.175 2.138T12 22"/></symbol><symbol id="hd-icon-material-symbols-start" viewBox="0 0 24 24"><path fill="currentColor" d="M2 18V6h2v12zm14 0l-1.425-1.4l3.6-3.6H6v-2h12.175L14.6 7.4L16 6l6 6z"/></symbol><symbol id="hd-icon-material-symbols-start-rounded" viewBox="0 0 24 24"><path fill="currentColor" d="M3 18q-.425 0-.712-.288T2 17V7q0-.425.288-.712T3 6t.713.288T4 7v10q0 .425-.288.713T3 18m15.175-5H7q-.425 0-.712-.288T6 12t.288-.712T7 11h11.175L15.3 8.1q-.275-.275-.288-.687T15.3 6.7q.275-.275.7-.275t.7.275l4.6 4.6q.15.15.213.325t.062.375t-.062.375t-.213.325l-4.6 4.6q-.275.275-.687.275T15.3 17.3q-.3-.3-.3-.712t.3-.713z"/></symbol><symbol id="hd-icon-material-symbols-stat-0" viewBox="0 0 24 24"><path fill="currentColor" d="m12 19l-7-7l7-7l7 7z"/></symbol><symbol id="hd-icon-material-symbols-stat-0-outline" viewBox="0 0 24 24"><path fill="currentColor" d="m12 19l-7-7l7-7l7 7zm0-2.85L16.15 12L12 7.85L7.85 12zM12 12"/></symbol><symbol id="hd-icon-material-symbols-stat-0-outline-rounded" viewBox="0 0 24 24"><path fill="currentColor" d="m10.575 17.575l-4.15-4.15q-.3-.3-.45-.675t-.15-.75t.15-.75t.45-.675l4.15-4.15q.3-.3.675-.45t.75-.15t.75.15t.675.45l4.15 4.15q.3.3.45.675t.15.75t-.15.75t-.45.675l-4.15 4.15q-.3.3-.675.45t-.75.15t-.75-.15t-.675-.45M12 16.15L16.15 12L12 7.85L7.85 12zM12 12"/></symbol><symbol id="hd-icon-material-symbols-stat-0-rounded" viewBox="0 0 24 24"><path fill="currentColor" d="m10.575 17.575l-4.15-4.15q-.3-.3-.45-.675t-.15-.75t.15-.75t.45-.675l4.15-4.15q.3-.3.675-.45t.75-.15t.75.15t.675.45l4.15 4.15q.3.3.45.675t.15.75t-.15.75t-.45.675l-4.15 4.15q-.3.3-.675.45t-.75.15t-.75-.15t-.675-.45"/></symbol><symbol id="hd-icon-material-symbols-stat-1" viewBox="0 0 24 24"><path fill="currentColor" d="m7.4 15.375l-1.4-1.4l6-6l6 6l-1.4 1.4L12 10.8z"/></symbol><symbol id="hd-icon-material-symbols-stat-1-rounded" viewBox="0 0 24 24"><path fill="currentColor" d="m12 10.8l-3.9 3.875q-.275.275-.687.288t-.713-.288q-.275-.275-.275-.7t.275-.7l4.6-4.6q.15-.15.325-.213T12 8.4t.375.063t.325.212l4.6 4.6q.275.275.288.688t-.288.712q-.275.275-.7.275t-.7-.275z"/></symbol><symbol id="hd-icon-material-symbols-stat-2" viewBox="0 0 24 24"><path fill="currentColor" d="M7.4 18.4L6 17l6-6l6 6l-1.4 1.4l-4.6-4.575zm0-6L6 11l6-6l6 6l-1.4 1.4L12 7.825z"/></symbol><symbol id="hd-icon-material-symbols-stat-2-rounded" viewBox="0 0 24 24"><path fill="currentColor" d="M12 13.825L8.1 17.7q-.275.275-.687.288T6.7 17.7q-.275-.275-.275-.7t.275-.7l3.875-3.875q.575-.575 1.425-.575t1.425.575L17.3 16.3q.275.275.288.688t-.288.712q-.275.275-.7.275t-.7-.275zm0-6L8.1 11.7q-.275.275-.687.288T6.7 11.7q-.275-.275-.275-.7t.275-.7l3.875-3.875Q11.15 5.85 12 5.85t1.425.575L17.3 10.3q.275.275.288.688t-.288.712q-.275.275-.7.275t-.7-.275z"/></symbol><symbol id="hd-icon-material-symbols-stat-3" viewBox="0 0 24 24"><path fill="currentColor" d="m7.4 21.375l-1.4-1.4l6-6l6 6l-1.4 1.4L12 16.8zm0-6l-1.4-1.4l6-6l6 6l-1.4 1.4L12 10.8zm0-6L6 7.975l6-6l6 6l-1.4 1.4L12 4.8z"/></symbol><symbol id="hd-icon-material-symbols-stat-3-rounded" viewBox="0 0 24 24"><path fill="currentColor" d="m12 16.8l-3.9 3.875q-.275.275-.687.288t-.713-.288q-.275-.275-.275-.7t.275-.7l3.875-3.875q.575-.575 1.425-.575t1.425.575l3.875 3.875q.275.275.288.688t-.288.712q-.275.275-.7.275t-.7-.275zm0-6l-3.9 3.875q-.275.275-.687.288t-.713-.288q-.275-.275-.275-.7t.275-.7L10.575 9.4q.575-.575 1.425-.575t1.425.575l3.875 3.875q.275.275.288.688t-.288.712q-.275.275-.7.275t-.7-.275zm0-6L8.1 8.675q-.275.275-.687.288T6.7 8.675q-.275-.275-.275-.7t.275-.7L10.575 3.4q.575-.575 1.425-.575t1.425.575L17.3 7.275q.275.275.288.688t-.288.712q-.275.275-.7.275t-.7-.275z"/></symbol><symbol id="hd-icon-material-symbols-stat-minus-1" viewBox="0 0 24 24"><path fill="currentColor" d="m12 15.375l-6-6l1.4-1.4L12 12.55l4.6-4.575l1.4 1.4z"/></symbol><symbol id="hd-icon-material-symbols-stat-minus-1-rounded" viewBox="0 0 24 24"><path fill="currentColor" d="M12 14.95q-.2 0-.375-.062t-.325-.213l-4.6-4.6q-.275-.275-.288-.687t.288-.713q.275-.275.7-.275t.7.275L12 12.55l3.9-3.875q.275-.275.688-.288t.712.288q.275.275.275.7t-.275.7l-4.6 4.6q-.15.15-.325.213T12 14.95"/></symbol><symbol id="hd-icon-material-symbols-stat-minus-2" viewBox="0 0 24 24"><path fill="currentColor" d="m12 19l-6-6l1.4-1.4l4.6 4.575l4.6-4.575L18 13zm0-6L6 7l1.4-1.4l4.6 4.575L16.6 5.6L18 7z"/></symbol><symbol id="hd-icon-material-symbols-stat-minus-2-rounded" viewBox="0 0 24 24"><path fill="currentColor" d="m12 16.175l3.9-3.875q.275-.275.688-.288t.712.288q.275.275.275.7t-.275.7l-3.875 3.875q-.575.575-1.425.575t-1.425-.575L6.7 13.7q-.275-.275-.288-.687T6.7 12.3q.275-.275.7-.275t.7.275zm0-6L15.9 6.3q.275-.275.688-.287t.712.287q.275.275.275.7t-.275.7l-3.875 3.875q-.575.575-1.425.575t-1.425-.575L6.7 7.7q-.275-.275-.288-.687T6.7 6.3q.275-.275.7-.275t.7.275z"/></symbol><symbol id="hd-icon-material-symbols-stat-minus-3" viewBox="0 0 24 24"><path fill="currentColor" d="m12 21.925l-6-6l1.4-1.4L12 19.1l4.6-4.575l1.4 1.4zm0-5.95l-6-6l1.4-1.4L12 13.15l4.6-4.575l1.4 1.4zm0-5.95l-6-6l1.4-1.4L12 7.2l4.6-4.575l1.4 1.4z"/></symbol><symbol id="hd-icon-material-symbols-stat-minus-3-rounded" viewBox="0 0 24 24"><path fill="currentColor" d="m12 19.1l3.9-3.875q.275-.275.688-.287t.712.287q.275.275.275.7t-.275.7L13.425 20.5q-.575.575-1.425.575t-1.425-.575L6.7 16.625q-.275-.275-.288-.687t.288-.713q.275-.275.7-.275t.7.275zm0-5.95l3.9-3.875q.275-.275.688-.287t.712.287q.275.275.275.7t-.275.7l-3.875 3.875q-.575.575-1.425.575t-1.425-.575L6.7 10.675q-.275-.275-.288-.687t.288-.713Q6.975 9 7.4 9t.7.275zm0-5.95l3.9-3.875q.275-.275.688-.287t.712.287q.275.275.275.7t-.275.7L13.425 8.6q-.575.575-1.425.575T10.575 8.6L6.7 4.725q-.275-.275-.288-.687t.288-.713q.275-.275.7-.275t.7.275z"/></symbol><symbol id="hd-icon-material-symbols-stateful" viewBox="0 0 24 24"><path fill="currentColor" d="M2 22v-6q0-.825.588-1.413Q3.175 14 4 14h3q.825 0 1.412.587Q9 15.175 9 16v6H8l-1-1H4l-1 1Zm2.75-2h1.5v-1.75H8v-1.5H6.25V15h-1.5v1.75H3v1.5h1.75ZM15 22v-6q0-.825.588-1.413Q16.175 14 17 14h3q.825 0 1.413.587Q22 15.175 22 16v6h-1l-1-1h-3l-1 1Zm2.75-2h1.5v-1.75H21v-1.5h-1.75V15h-1.5v1.75H16v1.5h1.75ZM8.5 10V4q0-.825.588-1.413Q9.675 2 10.5 2h3q.825 0 1.413.587q.587.588.587 1.413v6h-1l-1-1h-3l-1 1Zm2.75-2h1.5V6.25h1.75v-1.5h-1.75V3h-1.5v1.75H9.5v1.5h1.75ZM11 19q-.2 0-.35-.15q-.15-.15-.15-.35q0-.2.15-.35q.15-.15.35-.15h2q.2 0 .35.15q.15.15.15.35q0 .2-.15.35q-.15.15-.35.15Zm-3.85-5.95Q7 12.9 7 12.7q0-.2.15-.35l1.4-1.4q.15-.15.363-.15q.212 0 .362.15t.15.35q0 .2-.15.35l-1.425 1.4q-.15.15-.35.15q-.2 0-.35-.15Zm9 0l-1.425-1.4q-.15-.15-.15-.35q0-.2.15-.35q.15-.15.363-.15q.212 0 .362.15l1.4 1.4q.15.15.15.35q0 .2-.15.35q-.15.15-.35.15q-.2 0-.35-.15Z"/></symbol><symbol id="hd-icon-material-symbols-stay-current-landscape-outline" viewBox="0 0 24 24"><path fill="currentColor" d="M3 19q-.825 0-1.412-.587T1 17V7q0-.825.588-1.412T3 5h18q.825 0 1.413.588T23 7v10q0 .825-.587 1.413T21 19zm1-2V7H3v10zm2 0h12V7H6zm14 0h1V7h-1zM4 7H3zm16 0h1z"/></symbol><symbol id="hd-icon-material-symbols-stay-current-landscape-outline-sharp" viewBox="0 0 24 24"><path fill="currentColor" d="M1 19V5h22v14zm3-2V7H3v10zm2 0h12V7H6zm14 0h1V7h-1zM4 7H3zm16 0h1z"/></symbol><symbol id="hd-icon-material-symbols-stay-current-landscape-sharp" viewBox="0 0 24 24"><path fill="currentColor" d="M1 19V5h22v14zm5-2h12V7H6z"/></symbol><symbol id="hd-icon-material-symbols-stay-current-portrait-outline-sharp" viewBox="0 0 24 24"><path fill="currentColor" d="M5 23V1h14v22H5Zm2-5h10V6H7v12Zm0 3h10v-1H7v1ZM7 4h10V3H7v1Zm0 0V3v1Zm0 17v-1v1Z"/></symbol><symbol id="hd-icon-material-symbols-stay-primary-landscape-sharp" viewBox="0 0 24 24"><path fill="currentColor" d="M1 19V5h22v14Zm5-2h12V7H6Zm-3 0h1V7H3Zm17 0h1V7h-1ZM3 17V7h1v10Zm17 0V7h1v10Z"/></symbol><symbol id="hd-icon-material-symbols-steering-wheel-heat" viewBox="0 0 24 24"><path fill="currentColor" d="m22.025 9.55l-1.65-1.1l.325-.525q.15-.225.225-.462T21 6.95q0-.35-.125-.675T20.5 5.7q-.525-.525-.812-1.213T19.4 3.05q0-.575.163-1.1t.462-1l.325-.5l1.675 1.1l-.35.525q-.15.225-.213.463t-.062.512q0 .35.125.675t.375.575q.525.525.813 1.213T23 6.95q0 .575-.162 1.1t-.463 1zm-4.2 0l-1.65-1.1l.325-.525q.15-.225.225-.462t.075-.513q0-.35-.125-.675T16.3 5.7q-.525-.525-.812-1.213T15.2 3.05q0-.575.163-1.1t.462-1l.325-.5l1.675 1.1l-.35.525q-.15.225-.213.463t-.062.512q0 .35.125.675t.375.575q.525.525.813 1.213T18.8 6.95q0 .575-.162 1.1t-.463 1zM13 19.925q2.725-.35 4.65-2.275T19.925 13H16l-3 3.75zm.65-10.375l-1.675-1.1l.35-.525q.15-.225.225-.462t.075-.513q0-.35-.138-.675T12.1 5.7q-.525-.525-.812-1.213T11 3.05q0-.575.15-1.1t.475-1l.35-.5l1.675 1.1l-.35.525q-.15.2-.225.45T13 3.05q0 .35.125.675t.375.575q.525.525.813 1.213T14.6 6.95q0 .575-.162 1.1t-.463 1zM4.075 13q.35 2.725 2.275 4.65T11 19.925V16.75L8 13zm0-2H21.95q.025.25.038.5T22 12q0 2.075-.787 3.9t-2.138 3.175t-3.175 2.138T12 22t-3.9-.788t-3.175-2.137T2.788 15.9T2 12q0-3.375 1.975-5.988T9 2.45V4.6q-1.975.8-3.312 2.488T4.075 11"/></symbol><symbol id="hd-icon-material-symbols-steering-wheel-heat-rounded" viewBox="0 0 24 24"><path fill="currentColor" d="M21 6.95q0-.35-.125-.675T20.5 5.7q-.525-.525-.812-1.213T19.4 3.05q0-.575.163-1.1t.462-1l.325-.5q.225-.35.638-.425t.762.15t.425.625t-.15.75l-.35.525q-.15.225-.213.463t-.062.512q0 .35.125.675t.375.575q.525.525.813 1.213T23 6.95q0 .575-.162 1.1t-.463 1l-.35.5q-.225.35-.625.425t-.75-.15t-.425-.625t.15-.75l.325-.525q.15-.225.225-.462T21 6.95m-4.2 0q0-.35-.125-.675T16.3 5.7q-.525-.525-.813-1.213T15.2 3.05q0-.575.163-1.1t.462-1l.325-.5q.225-.35.638-.425t.762.15t.425.625t-.15.75l-.35.525q-.15.225-.213.463t-.062.512q0 .35.125.675t.375.575q.525.525.813 1.213T18.8 6.95q0 .575-.162 1.1t-.463 1q-.275.4-.175.25t-.175.25q-.225.35-.625.425t-.75-.15t-.425-.625t.15-.75l.325-.525q.15-.225.225-.462t.075-.513M13 19.925q2.725-.35 4.65-2.275T19.925 13H16l-3 3.75zM12.625 6.95q0-.35-.137-.675T12.1 5.7q-.525-.525-.812-1.213T11 3.05q0-.575.15-1.1t.475-1l.35-.5q.225-.35.638-.425t.762.15T13.8.8t-.15.75l-.35.525q-.15.2-.225.45T13 3.05q0 .35.125.675t.375.575q.525.525.813 1.213T14.6 6.95q0 .575-.162 1.1t-.463 1l-.325.5q-.225.35-.637.425t-.763-.15t-.425-.625t.15-.75l.35-.525q.15-.225.225-.462t.075-.513M4.075 13q.35 2.725 2.275 4.65T11 19.925V16.75L8 13zM2 12q0-2.925 1.513-5.288T7.45 3.1q.4-.2.738-.038t.512.513t.088.738t-.588.662q-1.65.9-2.762 2.463T4.075 11h16.75q.5 0 .838.325t.337.825q-.025 2.025-.813 3.812t-2.137 3.125t-3.163 2.125T12 22t-3.9-.788t-3.175-2.137T2.788 15.9T2 12"/></symbol><symbol id="hd-icon-material-symbols-step" viewBox="0 0 24 24"><path fill="currentColor" d="M19 15q-1.275 0-2.137-.862T16 12t.863-2.137T19 9t2.138.863T22 12t-.862 2.138T19 15M9 17l-1.4-1.425L10.175 13H2v-2h8.175L7.6 8.4L9 7l5 5z"/></symbol><symbol id="hd-icon-material-symbols-step-into" viewBox="0 0 24 24"><path fill="currentColor" d="M12 22q-1.25 0-2.125-.875T9 19t.875-2.125T12 16t2.125.875T15 19t-.875 2.125T12 22m0-8L7 9l1.4-1.4l2.6 2.575V2h2v8.175L15.575 7.6L17 9z"/></symbol><symbol id="hd-icon-material-symbols-step-into-rounded" viewBox="0 0 24 24"><path fill="currentColor" d="M12 22q-1.25 0-2.125-.875T9 19t.875-2.125T12 16t2.125.875T15 19t-.875 2.125T12 22m-1-11.825V3q0-.425.288-.712T12 2t.713.288T13 3v7.175L14.875 8.3q.275-.275.688-.275t.712.275q.3.3.3.713t-.3.712L12.7 13.3q-.3.3-.7.3t-.7-.3L7.7 9.7q-.275-.275-.288-.687T7.7 8.3q.275-.275.7-.275t.7.275z"/></symbol><symbol id="hd-icon-material-symbols-step-out" viewBox="0 0 24 24"><path fill="currentColor" d="M12 22q-1.25 0-2.125-.875T9 19t.875-2.125T12 16t2.125.875T15 19t-.875 2.125T12 22m-1-8V5.825L8.4 8.4L7 7l5-5l5 5l-1.425 1.4L13 5.825V14z"/></symbol><symbol id="hd-icon-material-symbols-step-out-rounded" viewBox="0 0 24 24"><path fill="currentColor" d="M12 22q-1.25 0-2.125-.875T9 19t.875-2.125T12 16t2.125.875T15 19t-.875 2.125T12 22M11 5.825L9.1 7.7q-.275.275-.687.287T7.7 7.7q-.275-.275-.275-.7t.275-.7l3.6-3.6q.3-.3.7-.3t.7.3l3.6 3.6q.3.3.288.7t-.313.7q-.3.275-.7.288t-.7-.288L13 5.825V13q0 .425-.288.713T12 14t-.712-.288T11 13z"/></symbol><symbol id="hd-icon-material-symbols-step-over" viewBox="0 0 24 24"><path fill="currentColor" d="M12 19q-1.25 0-2.125-.875T9 16t.875-2.125T12 13t2.125.875T15 16t-.875 2.125T12 19m-7.925-7q.35-2.975 2.6-4.988T11.975 5q1.825 0 3.375.738T18 7.75V5h2v7h-7v-2h4.2q-.8-1.35-2.162-2.175T12 7Q9.8 7 8.125 8.425T6.1 12z"/></symbol><symbol id="hd-icon-material-symbols-step-over-rounded" viewBox="0 0 24 24"><path fill="currentColor" d="M12 19q-1.25 0-2.125-.875T9 16t.875-2.125T12 13t2.125.875T15 16t-.875 2.125T12 19m5.2-9q-.8-1.35-2.162-2.175T12 7q-1.925 0-3.45 1.1t-2.175 2.825q-.15.425-.462.75T5.175 12q-.45 0-.725-.363t-.15-.787Q5 8.3 7.113 6.65T11.975 5q1.825 0 3.375.738T18 7.75V6q0-.425.288-.712T19 5t.713.288T20 6v5q0 .425-.288.713T19 12h-5q-.425 0-.712-.288T13 11t.288-.712T14 10z"/></symbol><symbol id="hd-icon-material-symbols-step-rounded" viewBox="0 0 24 24"><path fill="currentColor" d="M19 15q-1.275 0-2.137-.862T16 12t.863-2.137T19 9t2.138.863T22 12t-.862 2.138T19 15m-8.825-2H3q-.425 0-.712-.288T2 12t.288-.712T3 11h7.175L8.3 9.1q-.275-.275-.288-.687T8.3 7.7q.275-.275.7-.275t.7.275l3.6 3.6q.3.3.3.7t-.3.7l-3.6 3.6q-.3.3-.7.288t-.7-.313q-.275-.3-.288-.7t.288-.7z"/></symbol><symbol id="hd-icon-material-symbols-steppers" viewBox="0 0 24 24"><path fill="currentColor" d="M5 15q-1.25 0-2.125-.875T2 12t.875-2.125T5 9t2.125.875T8 12t-.875 2.125T5 15m0-2q.425 0 .713-.288T6 12t-.288-.712T5 11t-.712.288T4 12t.288.713T5 13m7 2q-1.25 0-2.125-.875T9 12t.875-2.125T12 9t2.125.875T15 12t-.875 2.125T12 15m0-2q.425 0 .713-.288T13 12t-.288-.712T12 11t-.712.288T11 12t.288.713T12 13m7 2q-1.25 0-2.125-.875T16 12t.875-2.125T19 9t2.125.875T22 12t-.875 2.125T19 15"/></symbol><symbol id="hd-icon-material-symbols-steps" viewBox="0 0 24 24"><path fill="currentColor" d="M5.4 9.5H2.2q.1-.35.263-.663t.387-.612l3.85-5.15q.425-.575 1.138-.763t1.362.163l.7.35q.525.275.813.75T11 4.625v2.1l1.85-.475q.75-.2 1.45.188t.95 1.112l1.625 4.9l4.25 4.25q.5.5.688 1.075T22 19q0 .925-.5 1.65t-1.3 1.075L8.85 10.875q-.725-.675-1.6-1.025T5.4 9.5M14.15 22q-.75 0-1.425-.275t-1.25-.775L3.35 13.575q-.475-.425-.775-.962T2.15 11.5H5.4q.575 0 1.113.2t.962.625L17.575 22z"/></symbol><symbol id="hd-icon-material-symbols-steps-outline" viewBox="0 0 24 24"><path fill="currentColor" d="M5.4 9.5q.975 0 1.85.35t1.6 1.025L18.4 20h.6q.425 0 .713-.288T20 19q0-.2-.038-.425t-.262-.45l-4.575-4.575L13.35 8.2l-1.85.45q-.95.25-1.725-.35T9 6.725v-2.1l-.7-.35l-3.85 5.15q-.025.025-.025.037T4.4 9.5zm0 2H4.25q.075.175.188.325t.262.275l8.1 7.375q.275.275.625.4t.725.125h1.35l-8.025-7.675q-.425-.425-.962-.625T5.4 11.5M14.15 22q-.75 0-1.425-.275t-1.25-.775L3.35 13.575Q2.2 12.525 2.062 11t.788-2.775l3.85-5.15q.425-.575 1.138-.763t1.362.163l.7.35q.525.275.813.75T11 4.625v2.1l1.85-.475q.75-.2 1.45.188t.95 1.112l1.625 4.9l4.25 4.25q.5.5.688 1.075T22 19q0 1.25-.875 2.125T19 22z"/></symbol><symbol id="hd-icon-material-symbols-steps-outline-sharp" viewBox="0 0 24 24"><path fill="currentColor" d="M18.4 20h1.325L20 18.425l-4.875-4.875L13.35 8.2l-3.325.75L9 7.975v-3.35l-.7-.35L4.4 9.5h3zm-5.025 0H15.5l-8.9-8.5H4.05zm-.75 2L.675 11.15L7.7 1.725l3.3 1.65v3.35l3.675-.95l2.2 6.675L22 17.575L21.25 22z"/></symbol><symbol id="hd-icon-material-symbols-steps-sharp" viewBox="0 0 24 24"><path fill="currentColor" d="M20.5 22L7.4 9.5H1.9l5.8-7.775l3.3 1.65V6.65l3.675-.875l2.2 6.675L22 17.575L21.25 22zm-7.875 0L1.075 11.5h5.55L17.575 22z"/></symbol><symbol id="hd-icon-material-symbols-stethoscope" viewBox="0 0 24 24"><path fill="currentColor" d="M13.5 22q-2.7 0-4.6-1.9T7 15.5v-.575q-2.15-.35-3.575-2.013T2 9V3h3V2h2v4H5V5H4v4q0 1.65 1.175 2.825T8 13t2.825-1.175T12 9V5h-1v1H9V2h2v1h3v6q0 2.25-1.425 3.913T9 14.925v.575q0 1.875 1.313 3.188T13.5 20t3.188-1.312T18 15.5v-1.675q-.875-.3-1.437-1.075T16 11q0-1.25.875-2.125T19 8t2.125.875T22 11q0 .975-.562 1.75T20 13.825V15.5q0 2.7-1.9 4.6T13.5 22"/></symbol><symbol id="hd-icon-material-symbols-stethoscope-arrow" viewBox="0 0 24 24"><path fill="currentColor" d="m18 21l-1.4-1.4l1.575-1.6H14v-2h4.175L16.6 14.4L18 13l4 4zm-4.5 1q-2.7 0-4.6-1.9T7 15.5v-.575q-2.15-.35-3.575-2.013T2 9V3h3V2h2v4H5V5H4v4q0 1.65 1.175 2.825T8 13t2.825-1.175T12 9V5h-1v1H9V2h2v1h3v6q0 2.25-1.425 3.913T9 14.925v.575q0 1.875 1.313 3.188T13.5 20z"/></symbol><symbol id="hd-icon-material-symbols-stethoscope-arrow-rounded" viewBox="0 0 24 24"><path fill="currentColor" d="M15 18q-.425 0-.712-.288T14 17t.288-.712T15 16h3.175l-.875-.875q-.275-.3-.288-.712t.288-.713t.7-.3t.7.3l2.6 2.6q.3.3.3.7t-.3.7l-2.6 2.6q-.3.3-.7.3t-.7-.3t-.288-.712t.288-.713l.875-.875zm-2 4q-2.575 0-4.288-1.925T7 15.5v-.575q-2.15-.35-3.575-2.013T2 9V4q0-.425.288-.712T3 3h2q0-.425.288-.712T6 2t.713.288T7 3v2q0 .425-.288.713T6 6t-.712-.288T5 5H4v4q0 1.65 1.175 2.825T8 13t2.825-1.175T12 9V5h-1q0 .425-.288.713T10 6t-.712-.288T9 5V3q0-.425.288-.712T10 2t.713.288T11 3h2q.425 0 .713.288T14 4v5q0 2.25-1.425 3.913T9 14.925v.575q0 1.8 1.138 3.15T13 20q.425 0 .713.288T14 21t-.288.713T13 22"/></symbol><symbol id="hd-icon-material-symbols-stethoscope-check" viewBox="0 0 24 24"><path fill="currentColor" d="m17.35 21l-3.55-3.55l1.425-1.4l2.125 2.125l4.25-4.25L23 15.35zm-3.85 1q-2.7 0-4.6-1.9T7 15.5v-.575q-2.15-.35-3.575-2.013T2 9V3h3V2h2v4H5V5H4v4q0 1.65 1.175 2.825T8 13t2.825-1.175T12 9V5h-1v1H9V2h2v1h3v6q0 2.25-1.425 3.913T9 14.925v.575q0 1.875 1.313 3.188T13.5 20z"/></symbol><symbol id="hd-icon-material-symbols-stethoscope-check-rounded" viewBox="0 0 24 24"><path fill="currentColor" d="M16.625 20.3L14.5 18.175q-.275-.3-.275-.712t.3-.713t.7-.3t.7.3l1.425 1.425l3.525-3.55q.3-.3.713-.3t.712.3t.3.713t-.3.712l-4.25 4.25q-.3.3-.712.3t-.713-.3M13 22q-2.575 0-4.288-1.925T7 15.5v-.575q-2.15-.35-3.575-2.013T2 9V4q0-.425.288-.712T3 3h2q0-.425.288-.712T6 2t.713.288T7 3v2q0 .425-.288.713T6 6t-.712-.288T5 5H4v4q0 1.65 1.175 2.825T8 13t2.825-1.175T12 9V5h-1q0 .425-.288.713T10 6t-.712-.288T9 5V3q0-.425.288-.712T10 2t.713.288T11 3h2q.425 0 .713.288T14 4v5q0 2.25-1.425 3.913T9 14.925v.575q0 1.8 1.138 3.15T13 20q.425 0 .713.288T14 21t-.288.713T13 22"/></symbol><symbol id="hd-icon-material-symbols-stethoscope-outline" viewBox="0 0 24 24"><path fill="currentColor" d="M13.5 22q-2.7 0-4.6-1.9T7 15.5v-.575q-2.15-.35-3.575-2.013T2 9V3h3V2h2v4H5V5H4v4q0 1.65 1.175 2.825T8 13t2.825-1.175T12 9V5h-1v1H9V2h2v1h3v6q0 2.25-1.425 3.913T9 14.925v.575q0 1.875 1.313 3.188T13.5 20t3.188-1.312T18 15.5v-1.675q-.875-.3-1.437-1.075T16 11q0-1.25.875-2.125T19 8t2.125.875T22 11q0 .975-.562 1.75T20 13.825V15.5q0 2.7-1.9 4.6T13.5 22M19 12q.425 0 .713-.288T20 11t-.288-.712T19 10t-.712.288T18 11t.288.713T19 12m0-1"/></symbol><symbol id="hd-icon-material-symbols-stethoscope-outline-rounded" viewBox="0 0 24 24"><path fill="currentColor" d="M13.5 22q-2.7 0-4.6-1.9T7 15.5v-.575q-2.15-.35-3.575-2.013T2 9V4q0-.425.288-.712T3 3h2q0-.425.288-.712T6 2t.713.288T7 3v2q0 .425-.288.713T6 6t-.712-.288T5 5H4v4q0 1.65 1.175 2.825T8 13t2.825-1.175T12 9V5h-1q0 .425-.288.713T10 6t-.712-.288T9 5V3q0-.425.288-.712T10 2t.713.288T11 3h2q.425 0 .713.288T14 4v5q0 2.25-1.425 3.913T9 14.925v.575q0 1.875 1.313 3.188T13.5 20t3.188-1.312T18 15.5v-1.675q-.875-.325-1.437-1.088T16 11q0-1.25.875-2.125T19 8t2.125.875T22 11q0 .975-.562 1.738T20 13.825V15.5q0 2.7-1.9 4.6T13.5 22M19 12q.425 0 .713-.288T20 11t-.288-.712T19 10t-.712.288T18 11t.288.713T19 12m0-1"/></symbol><symbol id="hd-icon-material-symbols-stethoscope-rounded" viewBox="0 0 24 24"><path fill="currentColor" d="M13.5 22q-2.7 0-4.6-1.9T7 15.5v-.575q-2.15-.35-3.575-2.013T2 9V4q0-.425.288-.712T3 3h2q0-.425.288-.712T6 2t.713.288T7 3v2q0 .425-.288.713T6 6t-.712-.288T5 5H4v4q0 1.65 1.175 2.825T8 13t2.825-1.175T12 9V5h-1q0 .425-.288.713T10 6t-.712-.288T9 5V3q0-.425.288-.712T10 2t.713.288T11 3h2q.425 0 .713.288T14 4v5q0 2.25-1.425 3.913T9 14.925v.575q0 1.875 1.313 3.188T13.5 20t3.188-1.312T18 15.5v-1.675q-.875-.325-1.437-1.088T16 11q0-1.25.875-2.125T19 8t2.125.875T22 11q0 .975-.562 1.738T20 13.825V15.5q0 2.7-1.9 4.6T13.5 22"/></symbol><symbol id="hd-icon-material-symbols-sticker" viewBox="0 0 24 24"><path fill="currentColor" d="M5 21q-.825 0-1.412-.587T3 19V5q0-.825.588-1.412T5 3h14q.825 0 1.413.588T21 5v11l-5 5zm8.35-11.5L16 8.75q.125-.7-.337-1.225T14.5 7q-.625 0-1.062.438T13 8.5q0 .275.1.525t.25.475m-6 1.75L10 10.5q.1-.7-.35-1.225T8.5 8.75q-.625 0-1.062.438T7 10.25q0 .275.1.525t.25.475M11.5 15q1.725 0 3-1.125T16 11.05L8 13.3q.65.8 1.55 1.25t1.95.45m3.5 4l4-4h-2q-.825 0-1.412.588T15 17z"/></symbol><symbol id="hd-icon-material-symbols-sticker-add" viewBox="0 0 24 24"><path fill="currentColor" d="M19 7V5h-2V3h2V1h2v2h2v2h-2v2zm-5.65 2.5L16 8.75q.125-.7-.337-1.225T14.5 7q-.625 0-1.062.438T13 8.5q0 .275.1.525t.25.475m-6 1.75L10 10.5q.1-.7-.35-1.225T8.5 8.75q-.625 0-1.062.438T7 10.25q0 .275.1.525t.25.475M11.5 15q1.725 0 3-1.125T16 11.05L8 13.3q.65.8 1.55 1.25t1.95.45m3.5 4l4-4h-2q-.825 0-1.412.588T15 17zm1 2H5q-.825 0-1.412-.587T3 19V5q0-.825.588-1.412T5 3h10.1q-.05.25-.075.488T15 4q0 2.075 1.463 3.538T20 9q.275 0 .513-.025T21 8.9V16z"/></symbol><symbol id="hd-icon-material-symbols-sticker-add-outline" viewBox="0 0 24 24"><path fill="currentColor" d="M11.5 15q1.725 0 3-1.125T16 11.05L8 13.3q.65.8 1.55 1.25t1.95.45m-4.15-3.75L10 10.5q.1-.7-.35-1.225T8.5 8.75q-.625 0-1.062.438T7 10.25q0 .275.1.525t.25.475m6-1.75L16 8.75q.125-.7-.337-1.225T14.5 7q-.625 0-1.062.438T13 8.5q0 .275.1.525t.25.475M5 21q-.825 0-1.412-.587T3 19V5q0-.825.588-1.412T5 3h10v2H5v14h10v-2q0-.825.588-1.412T17 15h2V9h2v7l-5 5zM19 7V5h-2V3h2V1h2v2h2v2h-2v2z"/></symbol><symbol id="hd-icon-material-symbols-sticker-add-outline-rounded" viewBox="0 0 24 24"><path fill="currentColor" d="M7.35 11.25L10 10.5q.1-.7-.35-1.225T8.5 8.75q-.625 0-1.062.438T7 10.25q0 .275.1.525t.25.475m6-1.75L16 8.75q.125-.7-.337-1.225T14.5 7q-.625 0-1.062.438T13 8.5q0 .275.1.525t.25.475M5 21q-.825 0-1.412-.587T3 19V5q0-.825.588-1.412T5 3h9q.425 0 .713.288T15 4t-.288.713T14 5H5v14h10v-2q0-.825.588-1.412T17 15h2v-5q0-.425.288-.712T20 9t.713.288T21 10v5.175q0 .4-.15.763t-.425.637l-3.85 3.85q-.275.275-.638.425t-.762.15zm6.5-6q1.6 0 2.838-.987t1.587-2.513q.05-.15-.075-.262t-.275-.063l-7.05 1.975q-.2.05-.238.238t.088.312q.625.6 1.425.95t1.7.35M19 5h-1q-.425 0-.712-.288T17 4t.288-.712T18 3h1V2q0-.425.288-.712T20 1t.713.288T21 2v1h1q.425 0 .713.288T23 4t-.288.713T22 5h-1v1q0 .425-.288.713T20 7t-.712-.288T19 6z"/></symbol><symbol id="hd-icon-material-symbols-sticker-add-outline-sharp" viewBox="0 0 24 24"><path fill="currentColor" d="M11.5 15q1.725 0 3-1.125T16 11.05L8 13.3q.65.8 1.55 1.25t1.95.45m-4.15-3.75L10 10.5q.1-.7-.35-1.225T8.5 8.75q-.625 0-1.062.438T7 10.25q0 .275.1.525t.25.475m6-1.75L16 8.75q.125-.7-.337-1.225T14.5 7q-.625 0-1.062.438T13 8.5q0 .275.1.525t.25.475M3 21V3h12v2H5v14h10v-4h4V9h2v7l-5 5zM19 7V5h-2V3h2V1h2v2h2v2h-2v2z"/></symbol><symbol id="hd-icon-material-symbols-sticker-add-rounded" viewBox="0 0 24 24"><path fill="currentColor" d="M19 5h-1q-.425 0-.712-.288T17 4t.288-.712T18 3h1V2q0-.425.288-.712T20 1t.713.288T21 2v1h1q.425 0 .713.288T23 4t-.288.713T22 5h-1v1q0 .425-.288.713T20 7t-.712-.288T19 6zm-5.65 4.5L16 8.75q.125-.7-.337-1.225T14.5 7q-.625 0-1.062.438T13 8.5q0 .275.1.525t.25.475m-6 1.75L10 10.5q.1-.7-.35-1.225T8.5 8.75q-.625 0-1.062.438T7 10.25q0 .275.1.525t.25.475M11.5 15q1.725 0 3-1.125T16 11.05L8 13.3q.65.8 1.55 1.25t1.95.45m3.5 4l4-4h-2q-.825 0-1.412.588T15 17zM5 21q-.825 0-1.412-.587T3 19V5q0-.825.588-1.412T5 3h9.2q.3 0 .513.225t.212.525q0 1.075.4 2.05t1.15 1.725t1.725 1.15t2.05.4q.3 0 .525.213T21 9.8v5.375q0 .4-.15.763t-.425.637l-3.85 3.85q-.275.275-.638.425t-.762.15z"/></symbol><symbol id="hd-icon-material-symbols-sticker-add-sharp" viewBox="0 0 24 24"><path fill="currentColor" d="M19 7V5h-2V3h2V1h2v2h2v2h-2v2zm-5.65 2.5L16 8.75q.125-.7-.337-1.225T14.5 7q-.625 0-1.062.438T13 8.5q0 .275.1.525t.25.475m-6 1.75L10 10.5q.1-.7-.35-1.225T8.5 8.75q-.625 0-1.062.438T7 10.25q0 .275.1.525t.25.475M11.5 15q1.725 0 3-1.125T16 11.05L8 13.3q.65.8 1.55 1.25t1.95.45m3.5 4l4-4h-2q-.825 0-1.412.588T15 17zm1 2H3V3h12.1q-.05.25-.075.488T15 4q0 2.075 1.463 3.538T20 9q.275 0 .513-.025T21 8.9V16z"/></symbol><symbol id="hd-icon-material-symbols-sticker-outline" viewBox="0 0 24 24"><path fill="currentColor" d="M11.5 15q1.725 0 3-1.125T16 11.05L8 13.3q.65.8 1.55 1.25t1.95.45m-4.15-3.75L10 10.5q.1-.7-.35-1.225T8.5 8.75q-.625 0-1.062.438T7 10.25q0 .275.1.525t.25.475m6-1.75L16 8.75q.125-.7-.337-1.225T14.5 7q-.625 0-1.062.438T13 8.5q0 .275.1.525t.25.475M16 21H5q-.825 0-1.412-.587T3 19V5q0-.825.588-1.412T5 3h14q.825 0 1.413.588T21 5v11zm-1-2v-2q0-.825.588-1.412T17 15h2V5H5v14zM5 19V5z"/></symbol><symbol id="hd-icon-material-symbols-sticker-outline-rounded" viewBox="0 0 24 24"><path fill="currentColor" d="M11.5 15q1.6 0 2.838-.987t1.587-2.513q.05-.15-.075-.262t-.275-.063l-7.05 1.975q-.2.05-.238.238t.088.312q.625.6 1.425.95t1.7.35m-4.15-3.75L10 10.5q.1-.7-.35-1.225T8.5 8.75q-.625 0-1.062.438T7 10.25q0 .275.1.525t.25.475m6-1.75L16 8.75q.125-.7-.337-1.225T14.5 7q-.625 0-1.062.438T13 8.5q0 .275.1.525t.25.475M5 21q-.825 0-1.412-.587T3 19V5q0-.825.588-1.412T5 3h14q.825 0 1.413.588T21 5v10.175q0 .4-.15.763t-.425.637l-3.85 3.85q-.275.275-.638.425t-.762.15zm10-2v-2q0-.825.588-1.412T17 15h2V5H5v14zM5 19V5z"/></symbol><symbol id="hd-icon-material-symbols-sticker-outline-sharp" viewBox="0 0 24 24"><path fill="currentColor" d="M11.5 15q1.725 0 3-1.125T16 11.05L8 13.3q.65.8 1.55 1.25t1.95.45m-4.15-3.75L10 10.5q.1-.7-.35-1.225T8.5 8.75q-.625 0-1.062.438T7 10.25q0 .275.1.525t.25.475m6-1.75L16 8.75q.125-.7-.337-1.225T14.5 7q-.625 0-1.062.438T13 8.5q0 .275.1.525t.25.475M16 21H3V3h18v13zm-1-2v-4h4V5H5v14zM5 19V5z"/></symbol><symbol id="hd-icon-material-symbols-sticker-rounded" viewBox="0 0 24 24"><path fill="currentColor" d="M11.5 15q1.6 0 2.838-.987t1.587-2.513q.05-.15-.075-.262t-.275-.063l-7.05 1.975q-.2.05-.238.238t.088.312q.625.6 1.425.95t1.7.35m-4.15-3.75L10 10.5q.1-.7-.35-1.225T8.5 8.75q-.625 0-1.062.438T7 10.25q0 .275.1.525t.25.475m6-1.75L16 8.75q.125-.7-.337-1.225T14.5 7q-.625 0-1.062.438T13 8.5q0 .275.1.525t.25.475M5 21q-.825 0-1.412-.587T3 19V5q0-.825.588-1.412T5 3h14q.825 0 1.413.588T21 5v10.175q0 .4-.15.763t-.425.637l-3.85 3.85q-.275.275-.638.425t-.762.15zm10-2l4-4h-2q-.825 0-1.412.588T15 17z"/></symbol><symbol id="hd-icon-material-symbols-sticker-sharp" viewBox="0 0 24 24"><path fill="currentColor" d="M11.5 15q1.725 0 3-1.125T16 11.05L8 13.3q.65.8 1.55 1.25t1.95.45m-4.15-3.75L10 10.5q.1-.7-.35-1.225T8.5 8.75q-.625 0-1.062.438T7 10.25q0 .275.1.525t.25.475m6-1.75L16 8.75q.125-.7-.337-1.225T14.5 7q-.625 0-1.062.438T13 8.5q0 .275.1.525t.25.475M16 21H3V3h18v13zm-1-2l4-4h-4z"/></symbol><symbol id="hd-icon-material-symbols-sticky-note" viewBox="0 0 24 24"><path fill="currentColor" d="M5 21q-.825 0-1.412-.587T3 19V5q0-.825.588-1.412T5 3h14q.825 0 1.413.588T21 5v11l-5 5zm6-5h2v-6h3V8H8v2h3zm4 3l4-4h-2q-.825 0-1.412.588T15 17z"/></symbol><symbol id="hd-icon-material-symbols-sticky-note-2" viewBox="0 0 24 24"><path fill="currentColor" d="M5 21q-.825 0-1.412-.587T3 19V5q0-.825.588-1.412T5 3h14q.825 0 1.413.588T21 5v10l-6 6zm9-2l5-5h-5zm-7-5h5v-2H7zm0-4h10V8H7z"/></symbol><symbol id="hd-icon-material-symbols-sticky-note-2-outline" viewBox="0 0 24 24"><path fill="currentColor" d="M5 19h9v-5h5V5H5zm0 2q-.825 0-1.412-.587T3 19V5q0-.825.588-1.412T5 3h14q.825 0 1.413.588T21 5v10l-6 6zm2-7v-2h5v2zm0-4V8h10v2zm-2 9V5z"/></symbol><symbol id="hd-icon-material-symbols-sticky-note-2-outline-rounded" viewBox="0 0 24 24"><path fill="currentColor" d="M5 19h9v-4q0-.425.288-.712T15 14h4V5H5zm0 2q-.825 0-1.412-.587T3 19V5q0-.825.588-1.412T5 3h14q.825 0 1.413.588T21 5v9.175q0 .4-.15.763t-.425.637l-4.85 4.85q-.275.275-.637.425t-.763.15zm6-7H8q-.425 0-.712-.288T7 13t.288-.712T8 12h3q.425 0 .713.288T12 13t-.288.713T11 14m5-4H8q-.425 0-.712-.288T7 9t.288-.712T8 8h8q.425 0 .713.288T17 9t-.288.713T16 10M5 19V5z"/></symbol><symbol id="hd-icon-material-symbols-sticky-note-2-outline-sharp" viewBox="0 0 24 24"><path fill="currentColor" d="M5 19h9v-5h5V5H5zm-2 2V3h18v12l-6 6zm4-7v-2h5v2zm0-4V8h10v2zm-2 9V5z"/></symbol><symbol id="hd-icon-material-symbols-sticky-note-2-rounded" viewBox="0 0 24 24"><path fill="currentColor" d="m14 19l5-5h-4q-.425 0-.712.288T14 15zm-9 2q-.825 0-1.412-.587T3 19V5q0-.825.588-1.412T5 3h14q.825 0 1.413.588T21 5v9.175q0 .4-.15.763t-.425.637l-4.85 4.85q-.275.275-.637.425t-.763.15zm3-7h3q.425 0 .713-.288T12 13t-.288-.712T11 12H8q-.425 0-.712.288T7 13t.288.713T8 14m0-4h8q.425 0 .713-.288T17 9t-.288-.712T16 8H8q-.425 0-.712.288T7 9t.288.713T8 10"/></symbol><symbol id="hd-icon-material-symbols-sticky-note-2-sharp" viewBox="0 0 24 24"><path fill="currentColor" d="M19 14h-5v5zM3 21V3h18v12l-6 6zm4-7h5v-2H7zm0-4h10V8H7z"/></symbol><symbol id="hd-icon-material-symbols-sticky-note-outline" viewBox="0 0 24 24"><path fill="currentColor" d="M16 21H5q-.825 0-1.412-.587T3 19V5q0-.825.588-1.412T5 3h14q.825 0 1.413.588T21 5v11zm-1-2v-2q0-.825.588-1.412T17 15h2V5H5v14zm-4-3h2v-6h3V8H8v2h3zm-6 3V5z"/></symbol><symbol id="hd-icon-material-symbols-sticky-note-outline-rounded" viewBox="0 0 24 24"><path fill="currentColor" d="M5 21q-.825 0-1.412-.587T3 19V5q0-.825.588-1.412T5 3h14q.825 0 1.413.588T21 5v10.175q0 .4-.15.763t-.425.637l-3.85 3.85q-.275.275-.638.425t-.762.15zm10-2v-2q0-.825.588-1.412T17 15h2V5H5v14zm-4-9v5q0 .425.288.713T12 16t.713-.288T13 15v-5h2q.425 0 .713-.288T16 9t-.288-.712T15 8H9q-.425 0-.712.288T8 9t.288.713T9 10zm-6 9V5z"/></symbol><symbol id="hd-icon-material-symbols-sticky-note-outline-sharp" viewBox="0 0 24 24"><path fill="currentColor" d="M16 21H3V3h18v13zm-1-2v-4h4V5H5v14zm-4-3h2v-6h3V8H8v2h3zm-6 3V5z"/></symbol><symbol id="hd-icon-material-symbols-sticky-note-rounded" viewBox="0 0 24 24"><path fill="currentColor" d="M5 21q-.825 0-1.412-.587T3 19V5q0-.825.588-1.412T5 3h14q.825 0 1.413.588T21 5v10.175q0 .4-.15.763t-.425.637l-3.85 3.85q-.275.275-.638.425t-.762.15zm10-2l4-4h-2q-.825 0-1.412.588T15 17zm-3-3q.425 0 .713-.288T13 15v-5h2q.425 0 .713-.288T16 9t-.288-.712T15 8H9q-.425 0-.712.288T8 9t.288.713T9 10h2v5q0 .425.288.713T12 16"/></symbol><symbol id="hd-icon-material-symbols-sticky-note-sharp" viewBox="0 0 24 24"><path fill="currentColor" d="M16 21H3V3h18v13zm-1-2l4-4h-4zm-4-3h2v-6h3V8H8v2h3z"/></symbol><symbol id="hd-icon-material-symbols-stock-media" viewBox="0 0 24 24"><path fill="currentColor" d="M4 15q-.825 0-1.412-.587T2 13V4q0-.825.588-1.412T4 2h9q.825 0 1.413.588T15 4v9q0 .825-.587 1.413T13 15zm4-3.75L6.8 9.6L5 12h7L9.7 9zM17 22q-1.25 0-2.125-.875T14 19t.875-2.125T17 16q.275 0 .513.05t.487.125V11h4v2h-2v6q0 1.25-.875 2.125T17 22"/></symbol><symbol id="hd-icon-material-symbols-stock-media-outline" viewBox="0 0 24 24"><path fill="currentColor" d="M4 15q-.825 0-1.412-.587T2 13V4q0-.825.588-1.412T4 2h9q.825 0 1.413.588T15 4v9q0 .825-.587 1.413T13 15zm0-2h9V4H4zm4-1.75L6.8 9.6L5 12h7L9.7 9zM17 22q-1.25 0-2.125-.875T14 19t.875-2.125T17 16q.275 0 .513.05t.487.125V11h4v2h-2v6q0 1.25-.875 2.125T17 22M4 13V4z"/></symbol><symbol id="hd-icon-material-symbols-stock-media-outline-rounded" viewBox="0 0 24 24"><path fill="currentColor" d="M4 15q-.825 0-1.412-.587T2 13V4q0-.825.588-1.412T4 2h9q.825 0 1.413.588T15 4v9q0 .825-.587 1.413T13 15zm0-2h9V4H4zm4-1.75L7 9.875q-.075-.1-.2-.1t-.2.1L5.3 11.6q-.1.125-.025.263T5.5 12h6q.15 0 .225-.138T11.7 11.6L9.9 9.25q-.075-.1-.2-.1t-.2.1zM17 22q-1.25 0-2.125-.875T14 19t.875-2.125T17 16q.275 0 .513.05t.487.125V12q0-.425.288-.712T19 11h2q.425 0 .713.288T22 12t-.288.713T21 13h-1v6q0 1.25-.875 2.125T17 22M4 13V4z"/></symbol><symbol id="hd-icon-material-symbols-stock-media-outline-sharp" viewBox="0 0 24 24"><path fill="currentColor" d="M2 15V2h13v13zm2-2h9V4H4zm4-1.75L6.8 9.6L5 12h7L9.7 9zM17 22q-1.25 0-2.125-.875T14 19t.875-2.125T17 16q.275 0 .513.05t.487.125V11h4v2h-2v6q0 1.25-.875 2.125T17 22M4 13V4z"/></symbol><symbol id="hd-icon-material-symbols-stock-media-rounded" viewBox="0 0 24 24"><path fill="currentColor" d="M4 15q-.825 0-1.412-.587T2 13V4q0-.825.588-1.412T4 2h9q.825 0 1.413.588T15 4v9q0 .825-.587 1.413T13 15zm4-3.75L7 9.875q-.075-.1-.2-.1t-.2.1L5.3 11.6q-.1.125-.025.263T5.5 12h6q.15 0 .225-.138T11.7 11.6L9.9 9.25q-.075-.1-.2-.1t-.2.1zM17 22q-1.25 0-2.125-.875T14 19t.875-2.125T17 16q.275 0 .513.05t.487.125V12q0-.425.288-.712T19 11h2q.425 0 .713.288T22 12t-.288.713T21 13h-1v6q0 1.25-.875 2.125T17 22"/></symbol><symbol id="hd-icon-material-symbols-stock-media-sharp" viewBox="0 0 24 24"><path fill="currentColor" d="M2 15V2h13v13zm6-3.75L6.8 9.6L5 12h7L9.7 9zM17 22q-1.25 0-2.125-.875T14 19t.875-2.125T17 16q.275 0 .513.05t.487.125V11h4v2h-2v6q0 1.25-.875 2.125T17 22"/></symbol><symbol id="hd-icon-material-symbols-stockpot" viewBox="0 0 24 24"><path fill="currentColor" d="M6 20q-1.25 0-2.125-.875T3 17V8h18v9q0 1.25-.875 2.125T18 20zM3 7V5h6V4q0-.425.288-.712T10 3h4q.425 0 .713.288T15 4v1h6v2z"/></symbol><symbol id="hd-icon-material-symbols-stockpot-outline" viewBox="0 0 24 24"><path fill="currentColor" d="M3 8h18v9q0 1.25-.875 2.125T18 20H6q-1.25 0-2.125-.875T3 17zm2 2v7q0 .425.288.713T6 18h12q.425 0 .713-.288T19 17v-7zM3 7V5h6V4q0-.425.288-.712T10 3h4q.425 0 .713.288T15 4v1h6v2zm9 7"/></symbol><symbol id="hd-icon-material-symbols-stockpot-outline-rounded" viewBox="0 0 24 24"><path fill="currentColor" d="M6 20q-1.25 0-2.125-.875T3 17V9q0-.425.288-.712T4 8h16q.425 0 .713.288T21 9v8q0 1.25-.875 2.125T18 20zM5 10v7q0 .425.288.713T6 18h12q.425 0 .713-.288T19 17v-7zm4-5V4q0-.425.288-.712T10 3h4q.425 0 .713.288T15 4v1h5q.425 0 .713.288T21 6t-.288.713T20 7H4q-.425 0-.712-.288T3 6t.288-.712T4 5zm3 9"/></symbol><symbol id="hd-icon-material-symbols-stockpot-outline-sharp" viewBox="0 0 24 24"><path fill="currentColor" d="M3 20V8h18v12zm2-2h14v-8H5zM3 7V5h6V3h6v2h6v2zm9 7"/></symbol><symbol id="hd-icon-material-symbols-stockpot-rounded" viewBox="0 0 24 24"><path fill="currentColor" d="M6 20q-1.25 0-2.125-.875T3 17V9q0-.425.288-.712T4 8h16q.425 0 .713.288T21 9v8q0 1.25-.875 2.125T18 20zM9 5V4q0-.425.288-.712T10 3h4q.425 0 .713.288T15 4v1h5q.425 0 .713.288T21 6t-.288.713T20 7H4q-.425 0-.712-.288T3 6t.288-.712T4 5z"/></symbol><symbol id="hd-icon-material-symbols-stockpot-sharp" viewBox="0 0 24 24"><path fill="currentColor" d="M3 20V8h18v12zM3 7V5h6V3h6v2h6v2z"/></symbol><symbol id="hd-icon-material-symbols-stop" viewBox="0 0 24 24"><path fill="currentColor" d="M6 18V6h12v12z"/></symbol><symbol id="hd-icon-material-symbols-stop-circle" viewBox="0 0 24 24"><path fill="currentColor" d="M8 16h8V8H8zm4 6q-2.075 0-3.9-.788t-3.175-2.137T2.788 15.9T2 12t.788-3.9t2.137-3.175T8.1 2.788T12 2t3.9.788t3.175 2.137T21.213 8.1T22 12t-.788 3.9t-2.137 3.175t-3.175 2.138T12 22"/></symbol><symbol id="hd-icon-material-symbols-stop-circle-outline" viewBox="0 0 24 24"><path fill="currentColor" d="M8 16h8V8H8zm4 6q-2.075 0-3.9-.788t-3.175-2.137T2.788 15.9T2 12t.788-3.9t2.137-3.175T8.1 2.788T12 2t3.9.788t3.175 2.137T21.213 8.1T22 12t-.788 3.9t-2.137 3.175t-3.175 2.138T12 22m0-2q3.35 0 5.675-2.325T20 12t-2.325-5.675T12 4T6.325 6.325T4 12t2.325 5.675T12 20m0-8"/></symbol><symbol id="hd-icon-material-symbols-stop-circle-outline-rounded" viewBox="0 0 24 24"><path fill="currentColor" d="M9 16h6q.425 0 .713-.288T16 15V9q0-.425-.288-.712T15 8H9q-.425 0-.712.288T8 9v6q0 .425.288.713T9 16m3 6q-2.075 0-3.9-.788t-3.175-2.137T2.788 15.9T2 12t.788-3.9t2.137-3.175T8.1 2.788T12 2t3.9.788t3.175 2.137T21.213 8.1T22 12t-.788 3.9t-2.137 3.175t-3.175 2.138T12 22m0-2q3.35 0 5.675-2.325T20 12t-2.325-5.675T12 4T6.325 6.325T4 12t2.325 5.675T12 20m0-8"/></symbol><symbol id="hd-icon-material-symbols-stop-circle-rounded" viewBox="0 0 24 24"><path fill="currentColor" d="M9 16h6q.425 0 .713-.288T16 15V9q0-.425-.288-.712T15 8H9q-.425 0-.712.288T8 9v6q0 .425.288.713T9 16m3 6q-2.075 0-3.9-.788t-3.175-2.137T2.788 15.9T2 12t.788-3.9t2.137-3.175T8.1 2.788T12 2t3.9.788t3.175 2.137T21.213 8.1T22 12t-.788 3.9t-2.137 3.175t-3.175 2.138T12 22"/></symbol><symbol id="hd-icon-material-symbols-stop-outline" viewBox="0 0 24 24"><path fill="currentColor" d="M8 8v8zM6 18V6h12v12zm2-2h8V8H8z"/></symbol><symbol id="hd-icon-material-symbols-stop-outline-rounded" viewBox="0 0 24 24"><path fill="currentColor" d="M6 16V8q0-.825.588-1.412T8 6h8q.825 0 1.413.588T18 8v8q0 .825-.587 1.413T16 18H8q-.825 0-1.412-.587T6 16m2 0h8V8H8zm4-4"/></symbol><symbol id="hd-icon-material-symbols-stop-rounded" viewBox="0 0 24 24"><path fill="currentColor" d="M6 16V8q0-.825.588-1.412T8 6h8q.825 0 1.413.588T18 8v8q0 .825-.587 1.413T16 18H8q-.825 0-1.412-.587T6 16"/></symbol><symbol id="hd-icon-material-symbols-stop-screen-share" viewBox="0 0 24 24"><path fill="currentColor" d="M20.5 23.3L18.2 21H1v-2h15.175l-1-1H4q-.825 0-1.412-.587T2 16V4.85L.7 3.5l1.4-1.4l19.8 19.8zM10 12.85L8.175 11q-.125.225-.15.475T8 12v2h2zm10.7 5l-6.275-6.275L16 10l-3-3v2h-1.15l-6-6H20q.825 0 1.413.588T22 5v11q0 .65-.363 1.138t-.937.712"/></symbol><symbol id="hd-icon-material-symbols-stop-screen-share-outline" viewBox="0 0 24 24"><path fill="currentColor" d="M14.425 11.575L11.85 9H13V7l3 3zM20.7 17.85L18.85 16H20V5H7.85l-2-2H20q.825 0 1.413.588T22 5v11q0 .65-.363 1.138t-.937.712m-.2 5.45L18.2 21H1v-2h15.175l-1-1H4q-.825 0-1.412-.587T2 16V4.85L.7 3.5l1.4-1.4l19.8 19.8zM10 12.85V14H8v-2q0-.275.025-.525t.15-.475L4 6.825V16h9.15zM8.575 11.4"/></symbol><symbol id="hd-icon-material-symbols-stop-screen-share-outline-rounded" viewBox="0 0 24 24"><path fill="currentColor" d="M14.425 11.575L11.85 9H13V7.6q0-.175.15-.238t.275.063L15.65 9.65q.15.15.15.35t-.15.35zM20.7 17.85L18.85 16H20V5H7.85l-2-2H20q.825 0 1.413.588T22 5v11q0 .65-.363 1.138t-.937.712M18.2 21H2q-.425 0-.712-.288T1 20t.288-.712T2 19h14.175l-1-1H4q-.825 0-1.412-.587T2 16V4.85l-.625-.65Q1.1 3.9 1.1 3.5t.3-.7q.275-.275.7-.275t.7.275l18.4 18.4q.275.275.275.7t-.275.7t-.7.275t-.7-.275zM10 12.85V13q0 .425-.288.713T9 14t-.712-.288T8 13v-1q0-.275.025-.525t.15-.475L4 6.825V16h9.15zM8.575 11.4"/></symbol><symbol id="hd-icon-material-symbols-stop-screen-share-outline-sharp" viewBox="0 0 24 24"><path fill="currentColor" d="M14.425 11.575L11.85 9H13V7l3 3zM20.7 17.85L18.85 16H20V5H7.85l-2-2H22v14.85zm-.2 5.45L18.2 21H1v-2h15.175l-1-1H2V4.85L.7 3.5l1.4-1.4l19.8 19.8zM10 12.85V14H8v-2q0-.275.025-.525t.15-.475L4 6.825V16h9.15zM8.575 11.4"/></symbol><symbol id="hd-icon-material-symbols-stop-screen-share-rounded" viewBox="0 0 24 24"><path fill="currentColor" d="M18.2 21H2q-.425 0-.712-.288T1 20t.288-.712T2 19h14.175l-1-1H4q-.825 0-1.412-.587T2 16V4.85l-.625-.65Q1.1 3.9 1.1 3.5t.3-.7q.275-.275.7-.275t.7.275l18.4 18.4q.275.275.275.7t-.275.7t-.7.275t-.7-.275zM10 12.85L8.175 11q-.125.225-.15.475T8 12v1q0 .425.288.713T9 14t.713-.288T10 13zm10.7 5l-6.275-6.275l1.225-1.225q.15-.15.15-.35t-.15-.35l-2.225-2.225q-.125-.125-.275-.062T13 7.6V9h-1.15l-6-6H20q.825 0 1.413.588T22 5v11q0 .65-.363 1.138t-.937.712"/></symbol><symbol id="hd-icon-material-symbols-stop-screen-share-sharp" viewBox="0 0 24 24"><path fill="currentColor" d="M20.5 23.3L18.2 21H1v-2h15.175l-1-1H2V4.85L.7 3.5l1.4-1.4l19.8 19.8zM10 12.85L8.175 11q-.125.225-.15.475T8 12v2h2zm10.7 5l-6.275-6.275L16 10l-3-3v2h-1.15l-6-6H22v14.85z"/></symbol><symbol id="hd-icon-material-symbols-storage" viewBox="0 0 24 24"><path fill="currentColor" d="M3 20v-4h18v4zm2-1h2v-2H5zM3 8V4h18v4zm2-1h2V5H5zm-2 7v-4h18v4zm2-1h2v-2H5z"/></symbol><symbol id="hd-icon-material-symbols-storage-rounded" viewBox="0 0 24 24"><path fill="currentColor" d="M5 20q-.825 0-1.412-.587T3 18t.588-1.412T5 16h14q.825 0 1.413.588T21 18t-.587 1.413T19 20zM5 8q-.825 0-1.412-.587T3 6t.588-1.412T5 4h14q.825 0 1.413.588T21 6t-.587 1.413T19 8zm0 6q-.825 0-1.412-.587T3 12t.588-1.412T5 10h14q.825 0 1.413.588T21 12t-.587 1.413T19 14zm1-7q.425 0 .713-.288T7 6t-.288-.712T6 5t-.712.288T5 6t.288.713T6 7m0 6q.425 0 .713-.288T7 12t-.288-.712T6 11t-.712.288T5 12t.288.713T6 13m0 6q.425 0 .713-.288T7 18t-.288-.712T6 17t-.712.288T5 18t.288.713T6 19"/></symbol><symbol id="hd-icon-material-symbols-store" viewBox="0 0 24 24"><path fill="currentColor" d="M4 6V4h16v2zm0 14v-6H3v-2l1-5h16l1 5v2h-1v6h-2v-6h-4v6zm2-2h6v-4H6z"/></symbol><symbol id="hd-icon-material-symbols-store-outline" viewBox="0 0 24 24"><path fill="currentColor" d="M4 6V4h16v2zm0 14v-6H3v-2l1-5h16l1 5v2h-1v6h-2v-6h-4v6zm2-2h6v-4H6zm-.95-6h13.9zm0 0h13.9l-.6-3H5.65z"/></symbol><symbol id="hd-icon-material-symbols-store-outline-rounded" viewBox="0 0 24 24"><path fill="currentColor" d="M5 4h14q.425 0 .713.288T20 5t-.288.713T19 6H5q-.425 0-.712-.288T4 5t.288-.712T5 4m0 16q-.425 0-.712-.288T4 19v-5h-.175q-.475 0-.775-.363t-.2-.837l1-5q.075-.35.35-.575T4.825 7h14.35q.35 0 .625.225t.35.575l1 5q.1.475-.2.837t-.775.363H20v5q0 .425-.288.713T19 20t-.712-.288T18 19v-5h-4v5q0 .425-.288.713T13 20zm1-2h6v-4H6zm-.95-6h13.9zm0 0h13.9l-.6-3H5.65z"/></symbol><symbol id="hd-icon-material-symbols-store-rounded" viewBox="0 0 24 24"><path fill="currentColor" d="M5 4h14q.425 0 .713.288T20 5t-.288.713T19 6H5q-.425 0-.712-.288T4 5t.288-.712T5 4m0 16q-.425 0-.712-.288T4 19v-5h-.175q-.475 0-.775-.363t-.2-.837l1-5q.075-.35.35-.575T4.825 7h14.35q.35 0 .625.225t.35.575l1 5q.1.475-.2.837t-.775.363H20v5q0 .425-.288.713T19 20t-.712-.288T18 19v-5h-4v5q0 .425-.288.713T13 20zm1-2h6v-4H6z"/></symbol><symbol id="hd-icon-material-symbols-storefront" viewBox="0 0 24 24"><path fill="currentColor" d="M21.025 11.05V19q0 .825-.587 1.413T19.025 21h-14q-.825 0-1.412-.587T3.025 19v-7.95q-.575-.525-.887-1.35t-.013-1.8l1.05-3.4q.2-.65.713-1.075T5.075 3h13.9q.675 0 1.175.413t.725 1.087l1.05 3.4q.3.975-.012 1.775t-.888 1.375m-6.8-1.05q.675 0 1.025-.462t.275-1.038l-.55-3.5h-1.95v3.7q0 .525.35.913t.85.387m-4.5 0q.575 0 .938-.388t.362-.912V5h-1.95l-.55 3.5q-.1.6.262 1.05t.938.45m-4.45 0q.45 0 .787-.325t.413-.825L7.025 5h-1.95l-1 3.35q-.15.5.162 1.075T5.275 10m13.5 0q.725 0 1.05-.575t.15-1.075L18.925 5h-1.9l.55 3.85q.075.5.413.825t.787.325"/></symbol><symbol id="hd-icon-material-symbols-storefront-outline" viewBox="0 0 24 24"><path fill="currentColor" d="M21.025 11.05V19q0 .825-.587 1.413T19.025 21h-14q-.825 0-1.412-.587T3.025 19v-7.95q-.575-.525-.887-1.35t-.013-1.8l1.05-3.4q.2-.65.713-1.075T5.075 3h13.9q.675 0 1.175.413t.725 1.087l1.05 3.4q.3.975-.012 1.775t-.888 1.375m-6.8-1.05q.675 0 1.025-.462t.275-1.038l-.55-3.5h-1.95v3.7q0 .525.35.913t.85.387m-4.5 0q.575 0 .938-.388t.362-.912V5h-1.95l-.55 3.5q-.1.6.262 1.05t.938.45m-4.45 0q.45 0 .787-.325t.413-.825L7.025 5h-1.95l-1 3.35q-.15.5.162 1.075T5.275 10m13.5 0q.725 0 1.05-.575t.15-1.075L18.925 5h-1.9l.55 3.85q.075.5.413.825t.787.325m-13.75 9h14v-7.05q-.125.05-.162.05h-.088q-.675 0-1.187-.225t-1.013-.725q-.45.45-1.025.7t-1.225.25q-.675 0-1.263-.25t-1.037-.7q-.425.45-.987.7T9.825 12q-.725 0-1.312-.25t-1.038-.7q-.525.525-1.037.738T5.275 12h-.112q-.063 0-.138-.05zm14 0h-14z"/></symbol><symbol id="hd-icon-material-symbols-storefront-outline-rounded" viewBox="0 0 24 24"><path fill="currentColor" d="M5.025 21q-.825 0-1.412-.587T3.025 19v-7.95q-.575-.525-.887-1.35t-.013-1.8l1.05-3.4q.2-.65.713-1.075T5.075 3h13.9q.675 0 1.175.413t.725 1.087l1.05 3.4q.3.975-.012 1.775t-.888 1.375V19q0 .825-.587 1.413T19.025 21zm9.2-11q.675 0 1.025-.462t.275-1.038l-.55-3.5h-1.95v3.7q0 .525.35.913t.85.387m-4.5 0q.575 0 .938-.388t.362-.912V5h-1.95l-.55 3.5q-.1.6.262 1.05t.938.45m-4.45 0q.45 0 .787-.325t.413-.825L7.025 5h-1.95l-1 3.35q-.15.5.162 1.075T5.275 10m13.5 0q.725 0 1.05-.575t.15-1.075L18.925 5h-1.9l.55 3.85q.075.5.413.825t.787.325m-13.75 9h14v-7.05q-.125.05-.162.05h-.088q-.675 0-1.187-.225t-1.013-.725q-.45.45-1.025.7t-1.225.25q-.675 0-1.263-.25t-1.037-.7q-.425.45-.987.7T9.825 12q-.725 0-1.312-.25t-1.038-.7q-.525.525-1.037.738T5.275 12h-.112q-.063 0-.138-.05zm14 0h-14z"/></symbol><symbol id="hd-icon-material-symbols-storefront-outline-sharp" viewBox="0 0 24 24"><path fill="currentColor" d="M21.025 11.05V21h-18v-9.95q-.575-.525-.887-1.35t-.013-1.8L3.65 3H20.4l1.525 4.9q.3.975-.013 1.775t-.887 1.375m-6.8-1.05q.675 0 1.025-.462t.275-1.038l-.55-3.5h-1.95v3.7q0 .525.35.913t.85.387m-4.5 0q.575 0 .938-.388t.362-.912V5h-1.95l-.55 3.5q-.1.6.262 1.05t.938.45m-4.45 0q.45 0 .787-.325t.413-.825L7.025 5h-1.95l-1 3.35q-.15.5.162 1.075T5.275 10m13.5 0q.725 0 1.05-.575t.15-1.075L18.925 5h-1.9l.55 3.85q.075.5.413.825t.787.325m-13.75 9h14v-7.05q-.125.05-.162.05h-.088q-.675 0-1.187-.225t-1.013-.725q-.45.45-1.025.7t-1.225.25q-.675 0-1.263-.25t-1.037-.7q-.425.45-.987.7T9.825 12q-.725 0-1.312-.25t-1.038-.7q-.525.525-1.037.738T5.275 12h-.112q-.063 0-.138-.05zm14 0h-14z"/></symbol><symbol id="hd-icon-material-symbols-storefront-rounded" viewBox="0 0 24 24"><path fill="currentColor" d="M5.025 21q-.825 0-1.412-.587T3.025 19v-7.95q-.575-.525-.887-1.35t-.013-1.8l1.05-3.4q.2-.65.713-1.075T5.075 3h13.9q.675 0 1.175.413t.725 1.087l1.05 3.4q.3.975-.012 1.775t-.888 1.375V19q0 .825-.587 1.413T19.025 21zm9.2-11q.675 0 1.025-.462t.275-1.038l-.55-3.5h-1.95v3.7q0 .525.35.913t.85.387m-4.5 0q.575 0 .938-.388t.362-.912V5h-1.95l-.55 3.5q-.1.6.262 1.05t.938.45m-4.45 0q.45 0 .787-.325t.413-.825L7.025 5h-1.95l-1 3.35q-.15.5.162 1.075T5.275 10m13.5 0q.725 0 1.05-.575t.15-1.075L18.925 5h-1.9l.55 3.85q.075.5.413.825t.787.325"/></symbol><symbol id="hd-icon-material-symbols-storefront-sharp" viewBox="0 0 24 24"><path fill="currentColor" d="M21.025 11.05V21h-18v-9.95q-.575-.525-.887-1.35t-.013-1.8L3.65 3H20.4l1.525 4.9q.3.975-.013 1.775t-.887 1.375m-6.8-1.05q.675 0 1.025-.462t.275-1.038l-.55-3.5h-1.95v3.7q0 .525.35.913t.85.387m-4.5 0q.575 0 .938-.388t.362-.912V5h-1.95l-.55 3.5q-.1.6.262 1.05t.938.45m-4.45 0q.45 0 .787-.325t.413-.825L7.025 5h-1.95l-1 3.35q-.15.5.162 1.075T5.275 10m13.5 0q.725 0 1.05-.575t.15-1.075L18.925 5h-1.9l.55 3.85q.075.5.413.825t.787.325"/></symbol><symbol id="hd-icon-material-symbols-storm" viewBox="0 0 24 24"><path fill="currentColor" d="M18.15 22q.625-1.55.875-3.175t.125-3.275q-.975 2.075-2.912 3.262T12 20q-2.1 0-3.8-.987t-2.9-2.638t-1.85-3.787T2.8 8.15q0-1.575.213-3.113T3.75 2h2.1q-.6 1.55-.862 3.175T4.85 8.45q.975-2.075 2.913-3.262T12 4q2.1 0 3.8.988t2.9 2.637t1.85 3.788t.65 4.437q0 1.575-.212 3.113T20.25 22zM12 16q1.65 0 2.825-1.175T16 12t-1.175-2.825T12 8T9.175 9.175T8 12t1.175 2.825T12 16m0-2q-.825 0-1.412-.587T10 12t.588-1.412T12 10t1.413.588T14 12t-.587 1.413T12 14"/></symbol><symbol id="hd-icon-material-symbols-storm-outline" viewBox="0 0 24 24"><path fill="currentColor" d="M18.15 22q.625-1.55.875-3.175t.125-3.275q-.975 2.075-2.912 3.262T12 20q-2.1 0-3.8-.987t-2.9-2.638t-1.85-3.787T2.8 8.15q0-1.575.213-3.113T3.75 2h2.1q-.6 1.55-.862 3.175T4.85 8.45q.975-2.075 2.913-3.262T12 4q2.1 0 3.8.988t2.9 2.637t1.85 3.788t.65 4.437q0 1.575-.212 3.113T20.25 22zM12 18q2.5 0 4.25-1.75T18 12t-1.75-4.25T12 6T7.75 7.75T6 12t1.75 4.25T12 18m0-2q1.65 0 2.825-1.175T16 12t-1.175-2.825T12 8T9.175 9.175T8 12t1.175 2.825T12 16m0-2q-.825 0-1.412-.587T10 12t.588-1.412T12 10t1.413.588T14 12t-.587 1.413T12 14m0-2"/></symbol><symbol id="hd-icon-material-symbols-storm-outline-rounded" viewBox="0 0 24 24"><path fill="currentColor" d="M19.2 22q-.375 0-.587-.325t-.088-.725q.425-1.325.575-2.675t.05-2.725q-.975 2.075-2.912 3.262T12 20q-2.1 0-3.8-.987t-2.9-2.638t-1.85-3.787T2.8 8.15q0-1.3.138-2.562t.487-2.513q.125-.475.5-.775T4.8 2q.375 0 .588.325t.087.725q-.4 1.325-.562 2.675T4.85 8.45q.975-2.075 2.913-3.262T12 4q2.1 0 3.8.988t2.9 2.637t1.85 3.788t.65 4.437q0 1.3-.137 2.563t-.488 2.512q-.125.475-.5.775t-.875.3M12 18q2.5 0 4.25-1.75T18 12t-1.75-4.25T12 6T7.75 7.75T6 12t1.75 4.25T12 18m0-2q1.65 0 2.825-1.175T16 12t-1.175-2.825T12 8T9.175 9.175T8 12t1.175 2.825T12 16m0-2q-.825 0-1.412-.587T10 12t.588-1.412T12 10t1.413.588T14 12t-.587 1.413T12 14m0-2"/></symbol><symbol id="hd-icon-material-symbols-storm-rounded" viewBox="0 0 24 24"><path fill="currentColor" d="M19.2 22q-.375 0-.587-.325t-.088-.725q.425-1.325.575-2.675t.05-2.725q-.975 2.075-2.912 3.262T12 20q-2.1 0-3.8-.987t-2.9-2.638t-1.85-3.787T2.8 8.15q0-1.3.138-2.562t.487-2.513q.125-.475.5-.775T4.8 2q.375 0 .588.325t.087.725q-.4 1.325-.562 2.675T4.85 8.45q.975-2.075 2.913-3.262T12 4q2.1 0 3.8.988t2.9 2.637t1.85 3.788t.65 4.437q0 1.3-.137 2.563t-.488 2.512q-.125.475-.5.775t-.875.3M12 16q1.65 0 2.825-1.175T16 12t-1.175-2.825T12 8T9.175 9.175T8 12t1.175 2.825T12 16m0-2q-.825 0-1.412-.587T10 12t.588-1.412T12 10t1.413.588T14 12t-.587 1.413T12 14"/></symbol><symbol id="hd-icon-material-symbols-straight" viewBox="0 0 24 24"><path fill="currentColor" d="M11 21V6.825L9.4 8.4L8 7l4-4l4 4l-1.4 1.4L13 6.825V21z"/></symbol><symbol id="hd-icon-material-symbols-straight-rounded" viewBox="0 0 24 24"><path fill="currentColor" d="m11 6.825l-.9.9Q9.825 8 9.413 8T8.7 7.7q-.275-.275-.275-.7t.275-.7l2.6-2.6q.3-.3.7-.3t.7.3l2.6 2.6q.275.275.287.687T15.3 7.7q-.275.275-.7.275t-.7-.275l-.9-.875V20q0 .425-.287.713T12 21t-.712-.288T11 20z"/></symbol><symbol id="hd-icon-material-symbols-straighten" viewBox="0 0 24 24"><path fill="currentColor" d="M4 18q-.825 0-1.412-.587T2 16V8q0-.825.588-1.412T4 6h3v6h2V6h2v6h2V6h2v6h2V6h3q.825 0 1.413.588T22 8v8q0 .825-.587 1.413T20 18z"/></symbol><symbol id="hd-icon-material-symbols-straighten-outline" viewBox="0 0 24 24"><path fill="currentColor" d="M4 18q-.825 0-1.412-.587T2 16V8q0-.825.588-1.412T4 6h16q.825 0 1.413.588T22 8v8q0 .825-.587 1.413T20 18zm0-2h16V8h-3v4h-2V8h-2v4h-2V8H9v4H7V8H4zm3-4h2zm4 0h2zm4 0h2zm-3 0"/></symbol><symbol id="hd-icon-material-symbols-straighten-outline-rounded" viewBox="0 0 24 24"><path fill="currentColor" d="M4 18q-.825 0-1.412-.587T2 16V8q0-.825.588-1.412T4 6h16q.825 0 1.413.588T22 8v8q0 .825-.587 1.413T20 18zm0-2h16V8h-3v3q0 .425-.288.713T16 12t-.712-.288T15 11V8h-2v3q0 .425-.288.713T12 12t-.712-.288T11 11V8H9v3q0 .425-.288.713T8 12t-.712-.288T7 11V8H4zm8-4"/></symbol><symbol id="hd-icon-material-symbols-straighten-outline-sharp" viewBox="0 0 24 24"><path fill="currentColor" d="M2 18V6h20v12zm2-2h16V8h-3v4h-2V8h-2v4h-2V8H9v4H7V8H4zm3-4h2zm4 0h2zm4 0h2zm-3 0"/></symbol><symbol id="hd-icon-material-symbols-straighten-rounded" viewBox="0 0 24 24"><path fill="currentColor" d="M4 18q-.825 0-1.412-.587T2 16V8q0-.825.588-1.412T4 6h3v5q0 .425.288.713T8 12t.713-.288T9 11V6h2v5q0 .425.288.713T12 12t.713-.288T13 11V6h2v5q0 .425.288.713T16 12t.713-.288T17 11V6h3q.825 0 1.413.588T22 8v8q0 .825-.587 1.413T20 18z"/></symbol><symbol id="hd-icon-material-symbols-straighten-sharp" viewBox="0 0 24 24"><path fill="currentColor" d="M2 18V6h5v6h2V6h2v6h2V6h2v6h2V6h5v12z"/></symbol><symbol id="hd-icon-material-symbols-strategy" viewBox="0 0 24 24"><path fill="currentColor" d="m14 22l-6-3.5v-7l3.5-2.05v6.05h5V9.45L20 11.5v7zM5.5 11L2 9V5l3.5-2L9 5v4zm7.5 3V2h9l-2 3l2 3h-7v6z"/></symbol><symbol id="hd-icon-material-symbols-strategy-outline" viewBox="0 0 24 24"><path fill="currentColor" d="M5.5 11L2 9V5l3.5-2L9 5v4zm0-2.3L7 7.85v-1.7L5.5 5.3L4 6.15v1.7zm11 3.075V9.45L20 11.5v7L14 22l-6-3.5v-7l3.5-2.05v2.325l-1.5.875v4.7l4 2.325l4-2.325v-4.7zM13 14V2h9l-2 3l2 3h-7v6zM5.5 7"/></symbol><symbol id="hd-icon-material-symbols-strategy-outline-rounded" viewBox="0 0 24 24"><path fill="currentColor" d="M5 10.725L2.5 9.3q-.225-.125-.363-.363T2 8.426v-2.85q0-.275.138-.513T2.5 4.7L5 3.275q.225-.125.5-.125t.5.125L8.5 4.7q.225.125.363.363T9 5.575v2.85q0 .275-.137.513T8.5 9.3L6 10.725q-.225.125-.5.125t-.5-.125M5.5 8.7L7 7.85v-1.7L5.5 5.3L4 6.15v1.7zm11 3.075V9.45l2.5 1.475q.475.275.738.738t.262.987v4.7q0 .525-.262.988t-.738.737L15 21.4q-.475.275-1 .275t-1-.275l-4-2.325q-.475-.275-.737-.737T8 17.35v-4.7q0-.525.263-.987T9 10.925l2.5-1.475v2.325l-1.5.875v4.7l4 2.325l4-2.325v-4.7zM15 8v5q0 .425-.288.713T14 14t-.712-.288T13 13V3q0-.425.288-.712T14 2h6.125q.6 0 .9.525t-.05 1.025l-.6.9Q20.2 4.7 20.2 5t.175.55l.6.9q.35.5.05 1.025t-.9.525zM5.5 7"/></symbol><symbol id="hd-icon-material-symbols-strategy-rounded" viewBox="0 0 24 24"><path fill="currentColor" d="M5 10.725L2.5 9.3q-.225-.125-.363-.363T2 8.426v-2.85q0-.275.138-.513T2.5 4.7L5 3.275q.225-.125.5-.125t.5.125L8.5 4.7q.225.125.363.363T9 5.575v2.85q0 .275-.137.513T8.5 9.3L6 10.725q-.225.125-.5.125t-.5-.125M16.5 13V9.45l2.5 1.475q.475.275.738.725t.262 1v4.7q0 .55-.262 1t-.738.725L15 21.4q-.475.275-1 .275t-1-.275l-4-2.325q-.475-.275-.737-.725t-.263-1v-4.7q0-.55.263-1T9 10.925l2.5-1.475V13q0 1.05.725 1.775T14 15.5t1.775-.725T16.5 13M15 8v5q0 .425-.288.713T14 14t-.712-.288T13 13V3q0-.425.288-.712T14 2h6.125q.6 0 .9.525t-.05 1.025l-.6.9Q20.2 4.7 20.2 5t.175.55l.6.9q.35.5.05 1.025t-.9.525z"/></symbol><symbol id="hd-icon-material-symbols-stream" viewBox="0 0 24 24"><path fill="currentColor" d="M4 14q-.825 0-1.412-.587T2 12t.588-1.412T4 10t1.413.588T6 12t-.587 1.413T4 14m1.65 5.7l-1.4-1.4l4.35-4.35l1.4 1.4zm3-9.7L4.3 5.65l1.4-1.4l4.35 4.35zM12 22q-.825 0-1.412-.587T10 20t.588-1.412T12 18t1.413.588T14 20t-.587 1.413T12 22m0-16q-.825 0-1.412-.587T10 4t.588-1.412T12 2t1.413.588T14 4t-.587 1.413T12 6m3.35 4.05l-1.4-1.45l4.4-4.35l1.4 1.4zm3 9.65L14 15.35l1.4-1.4l4.35 4.35zM20 14q-.825 0-1.412-.587T18 12t.588-1.412T20 10t1.413.588T22 12t-.587 1.413T20 14"/></symbol><symbol id="hd-icon-material-symbols-stream-apps-outline" viewBox="0 0 24 24"><path fill="currentColor" d="M16 13h5v-3h-5zm-2 4V9q0-.425.288-.712T15 8h7q.425 0 .713.288T23 9v5q0 .425-.288.713T22 15h-6zm-7 6q-.825 0-1.412-.587T5 21V3q0-.825.588-1.412T7 1h10q.825 0 1.413.588T19 3v4h-2V6H7v12h10v-1h2v4q0 .825-.587 1.413T17 23zm0-3v1h10v-1zM7 4h10V3H7zm0 0V3zm0 16v1zm9-7v-3z"/></symbol><symbol id="hd-icon-material-symbols-stream-apps-outline-rounded" viewBox="0 0 24 24"><path fill="currentColor" d="M16 13h5v-3h-5zm0 2l-1.15 1.15q-.25.25-.55.125T14 15.8V9q0-.425.288-.712T15 8h7q.425 0 .713.288T23 9v5q0 .425-.288.713T22 15zm-9 5v1h10v-1zM7 4h10V3H7zm0 0V3zm0 16v1zm9-7v-3zM7 23q-.825 0-1.412-.587T5 21V3q0-.825.588-1.412T7 1h10q.825 0 1.413.588T19 3v3q0 .425-.288.713T18 7t-.712-.288T17 6H7v12h10q0-.425.288-.712T18 17t.713.288T19 18v3q0 .825-.587 1.413T17 23z"/></symbol><symbol id="hd-icon-material-symbols-stream-apps-outline-sharp" viewBox="0 0 24 24"><path fill="currentColor" d="M16 13h5v-3h-5zm-2 4V8h9v7h-7zm-9 6V1h14v6h-2V6H7v12h10v-1h2v6zm2-3v1h10v-1zM7 4h10V3H7zm0 0V3zm0 16v1zm9-7v-3z"/></symbol><symbol id="hd-icon-material-symbols-stream-apps-rounded" viewBox="0 0 24 24"><path fill="currentColor" d="m16 15l-1.15 1.15q-.25.25-.55.125T14 15.8V9q0-.425.288-.712T15 8h7q.425 0 .713.288T23 9v5q0 .425-.288.713T22 15zm-9 8q-.825 0-1.412-.587T5 21V3q0-.825.588-1.412T7 1h10q.825 0 1.413.588T19 3v3q0 .425-.288.713T18 7t-.712-.288T17 6H7v12h10q0-.425.288-.712T18 17t.713.288T19 18v3q0 .825-.587 1.413T17 23z"/></symbol><symbol id="hd-icon-material-symbols-stream-apps-sharp" viewBox="0 0 24 24"><path fill="currentColor" d="M14 17V8h9v7h-7zm-9 6V1h14v6h-2V6H7v12h10v-1h2v6z"/></symbol><symbol id="hd-icon-material-symbols-stream-rounded" viewBox="0 0 24 24"><path fill="currentColor" d="M4 14q-.825 0-1.412-.587T2 12t.588-1.412T4 10t1.413.588T6 12t-.587 1.413T4 14m.95 3.6l2.95-2.95q.275-.275.7-.275t.7.275t.275.7t-.275.7L6.35 19q-.275.275-.7.275T4.95 19t-.275-.7t.275-.7m3-8.3L5 6.35q-.275-.275-.275-.7T5 4.95t.7-.275t.7.275L9.35 7.9q.275.275.275.7t-.275.7t-.7.275t-.7-.275M12 22q-.825 0-1.412-.587T10 20t.588-1.412T12 18t1.413.588T14 20t-.587 1.413T12 22m0-16q-.825 0-1.412-.587T10 4t.588-1.412T12 2t1.413.588T14 4t-.587 1.413T12 6m2.65 1.9l3-2.95q.275-.275.688-.288t.712.288q.275.275.275.7t-.275.7l-2.975 2.975q-.3.3-.712.3t-.713-.3q-.275-.3-.288-.712t.288-.713m3 11.1l-2.95-2.95q-.275-.275-.275-.7t.275-.7t.7-.275t.7.275l2.95 2.95q.275.275.275.7t-.275.7t-.7.275t-.7-.275M20 14q-.825 0-1.412-.587T18 12t.588-1.412T20 10t1.413.588T22 12t-.587 1.413T20 14"/></symbol><symbol id="hd-icon-material-symbols-streetview" viewBox="0 0 24 24"><path fill="currentColor" d="M18 11q-2.075 0-3.537-1.463T13 6t1.463-3.537T18 1t3.538 1.463T23 6t-1.463 3.538T18 11M3.6 20.4q-.275-.275-.438-.625T3 19V5q0-.825.588-1.412T5 3h6.7q-.35.675-.525 1.438T11 6q0 1.475.55 2.738t1.5 2.212zm8.4.6v-5.4q0-1.05.638-1.887T14.3 12.65q.875-.2 1.8-.3t1.9-.1q.8 0 1.538.063T21 12.5V19q0 .825-.587 1.413T19 21z"/></symbol><symbol id="hd-icon-material-symbols-stress-management" viewBox="0 0 24 24"><path fill="currentColor" d="M12 16q1.7 0 3.775-.675T22 12.95v-.375q0-1.275-1.025-2.05t-2.25-.425q-.425.125-.862.3t-1.163.45q-1.525.65-2.575.9T12 12q-1.125 0-2.175-.262t-2.65-.913q-.6-.25-1.037-.412t-.838-.288q-1.225-.4-2.262.375T2 12.575v.325q3.275 1.5 5.75 2.3T12 16m0 6q3.45 0 6.063-1.888t3.537-4.837q-3.275 1.4-5.5 2.063T12 18q-1.9 0-4.337-.712T2.35 15.25q.85 3.075 3.425 4.913T12 22m0-12q-1.65 0-2.825-1.175T8 6t1.175-2.825T12 2t2.825 1.175T16 6t-1.175 2.825T12 10"/></symbol><symbol id="hd-icon-material-symbols-stress-management-outline" viewBox="0 0 24 24"><path fill="currentColor" d="M12 16q1.475 0 3.188-.513t4.737-1.837q.05-.275.063-.537t.012-.538t-.213-.45t-.487-.1q-.35.125-.775.263t-1.075.412q-1.725.725-2.95 1.013T12 14q-1.3 0-2.55-.3T6.4 12.675q-.65-.275-1-.4l-.7-.25q-.275-.1-.488.087T4 12.575t.013.538t.062.537q2.525 1.2 4.488 1.775T12 16m0 4q2.35 0 4.175-1.025t2.85-2.75q-2.2.925-3.875 1.35T12 18q-1.45 0-3.225-.437T4.95 16.25q1 1.725 2.838 2.738T12 20m0-10q-1.65 0-2.825-1.175T8 6t1.175-2.825T12 2t2.825 1.175T16 6t-1.175 2.825T12 10m0-2q.825 0 1.413-.587T14 6t-.587-1.412T12 4t-1.412.588T10 6t.588 1.413T12 8m0 14q-4.425 0-7.212-2.625T2 12.575q0-1.3 1.038-2.075t2.262-.375q.4.125.838.288t1.037.412q1.6.65 2.65.913T12 12q1.075 0 2.125-.25t2.575-.9q.725-.275 1.163-.45t.862-.3q1.225-.35 2.25.425T22 12.575q0 1.975-.775 3.688T19.1 19.25t-3.175 2.013T12 22"/></symbol><symbol id="hd-icon-material-symbols-strikethrough-s" viewBox="0 0 24 24"><path fill="currentColor" d="M12.15 20q-1.9 0-3.375-1.125T6.65 15.8l2.2-.95q.35 1.2 1.213 1.975t2.137.775q1.05 0 1.9-.5t.85-1.6q0-.45-.175-.825T14.3 14h2.8q.125.35.188.713t.062.787q0 2.15-1.537 3.325T12.15 20M2 12v-2h20v2zm10.05-8.15q1.65 0 2.888.812T16.85 7.15l-2.2.975q-.225-.725-.837-1.3T12.1 6.25q-1.025 0-1.7.463T9.65 8h-2.4q.05-1.725 1.363-2.937T12.05 3.85"/></symbol><symbol id="hd-icon-material-symbols-strikethrough-s-rounded" viewBox="0 0 24 24"><path fill="currentColor" d="M12.15 20q-1.575 0-2.912-.837t-2.113-2.238q-.225-.4-.062-.837t.587-.663q.45-.25.938-.088t.762.613q.45.75 1.213 1.2t1.637.45q1.1 0 1.913-.675t.812-1.725q0-.5.35-.85t.85-.35t.863.35t.362.85v.3q0 1.975-1.562 3.238T12.15 20M3 12q-.425 0-.712-.288T2 11t.288-.712T3 10h18q.425 0 .713.288T22 11t-.288.713T21 12zm5.2-4.125q-.425-.25-.575-.737t.1-.913q.625-1.175 1.8-1.775t2.525-.6q1.2 0 2.262.5T16.1 5.8q.275.35.175.8t-.475.725q-.425.3-.912.225t-.838-.475q-.375-.425-.875-.625t-1.075-.2q-.675 0-1.3.275t-.95.85q-.25.45-.737.6t-.913-.1"/></symbol><symbol id="hd-icon-material-symbols-stroke-full" viewBox="0 0 24 24"><path fill="currentColor" d="M11.925 22q-2.075 0-3.9-.788T4.85 19.075T2.713 15.9T1.925 12t.788-3.9T4.85 4.925t3.175-2.137t3.9-.788t3.9.788T19 4.925T21.138 8.1t.787 3.9t-.788 3.9T19 19.075t-3.175 2.138t-3.9.787m2.275-2.325q1.95-.575 3.388-2.013t2.012-3.387zM4.275 9.65l5.3-5.3Q7.65 4.925 6.25 6.325T4.275 9.65m-.1 4.4l9.8-9.775q-.3-.075-.6-.125t-.625-.1l-8.775 8.775q.05.325.087.625t.113.6M5.6 16.9L16.825 5.65q-.2-.15-.412-.3t-.438-.275L5 16.05q.125.225.275.438t.325.412m2.275 2.025L18.825 7.95q-.125-.225-.275-.438t-.3-.412L7.025 18.35q.2.15.413.3t.437.275M11.1 19.95l8.775-8.775q-.05-.325-.1-.625t-.125-.6l-9.775 9.775q.3.075.6.125t.625.1"/></symbol><symbol id="hd-icon-material-symbols-stroke-partial" viewBox="0 0 24 24"><path fill="currentColor" d="M11.925 22q-2.075 0-3.9-.788T4.85 19.075T2.713 15.9T1.925 12t.788-3.9T4.85 4.925t3.175-2.137t3.9-.788t3.9.788T19 4.925T21.138 8.1t.787 3.9t-.788 3.9T19 19.075t-3.175 2.138t-3.9.787m6.95-6H9.3l-1 1h9.9q.2-.25.363-.488t.312-.512m1-3h-7.55l-1 1h8.35q.05-.25.1-.488t.1-.512m-.2-3h-4.35l-1 1h5.55q-.05-.275-.1-.513t-.1-.487M18.25 7.1l-.9.9h1.525q-.125-.25-.288-.462T18.25 7.1M5.6 16.9L16.875 5.675q-1.025-.8-2.275-1.237T11.925 4Q8.575 4 6.25 6.325T3.925 12q0 1.4.438 2.638T5.6 16.9m6.325 3.1q1.075 0 2.05-.25t1.85-.75h-7.8q.875.5 1.85.75t2.05.25"/></symbol><symbol id="hd-icon-material-symbols-stroller" viewBox="0 0 24 24"><path fill="currentColor" d="M16 22q-.825 0-1.412-.587T14 20t.588-1.412T16 18t1.413.588T18 20t-.587 1.413T16 22M6 22q-.825 0-1.412-.587T4 20t.588-1.412T6 18t1.413.588T8 20t-.587 1.413T6 22m1.425-5q-.65 0-.913-.575t.163-1.075L16.2 4.175q.5-.575 1.113-.875T18.65 3q1.4 0 2.375.975T22 6.35V7h-2v-.65q0-.575-.387-.962T18.65 5q-.275 0-.487.1t-.388.3L17 6.275V15q0 .825-.587 1.413T15 17zM9.6 9.6L4.725 4.725q1.2-.85 2.525-1.287T10 3q1.125 0 2.213.275T14.3 4.1z"/></symbol><symbol id="hd-icon-material-symbols-stroller-outline" viewBox="0 0 24 24"><path fill="currentColor" d="M16 22q-.825 0-1.412-.587T14 20t.588-1.412T16 18t1.413.588T18 20t-.587 1.413T16 22M6 22q-.825 0-1.412-.587T4 20t.588-1.412T6 18t1.413.588T8 20t-.587 1.413T6 22m3.6-7H15V8.675zm-2.175 2q-.65 0-.913-.575t.163-1.075L16.2 4.175q.5-.575 1.113-.875T18.65 3q1.4 0 2.375.975T22 6.35V7h-2v-.65q0-.575-.387-.962T18.65 5q-.275 0-.487.1t-.388.3L17 6.275V15q0 .825-.587 1.413T15 17zM9.6 9.6L4.725 4.725q1.2-.85 2.525-1.287T10 3q1.125 0 2.213.275T14.3 4.1zm-.125-2.95l1.375-1.6q-.2-.025-.425-.038T10 5q-.5 0-.963.075t-.937.2zm0 0"/></symbol><symbol id="hd-icon-material-symbols-stroller-outline-rounded" viewBox="0 0 24 24"><path fill="currentColor" d="M16 22q-.825 0-1.412-.587T14 20t.588-1.412T16 18t1.413.588T18 20t-.587 1.413T16 22M6 22q-.825 0-1.412-.587T4 20t.588-1.412T6 18t1.413.588T8 20t-.587 1.413T6 22m3.6-7H15V8.675zm-2.175 2q-.65 0-.913-.575t.163-1.075L16.2 4.175q.5-.575 1.113-.875T18.65 3q1.4 0 2.375.975T22 6.35v.025q0 .425-.288.713T21 7.375t-.712-.288T20 6.376V6.35q0-.575-.387-.962T18.65 5q-.275 0-.487.1t-.388.3L17 6.275V15q0 .825-.587 1.413T15 17zM9.6 9.6L5.525 5.525q-.325-.325-.262-.75t.437-.65q1-.55 2.088-.837T10 3t2.213.275T14.3 4.1zm-.125-2.95l1.375-1.6q-.2-.025-.425-.038T10 5q-.5 0-.963.075t-.937.2zm0 0"/></symbol><symbol id="hd-icon-material-symbols-stroller-outline-sharp" viewBox="0 0 24 24"><path fill="currentColor" d="M16 22q-.825 0-1.412-.587T14 20t.588-1.412T16 18t1.413.588T18 20t-.587 1.413T16 22M6 22q-.825 0-1.412-.587T4 20t.588-1.412T6 18t1.413.588T8 20t-.587 1.413T6 22m3.6-7H15V8.675zm-4.325 2L16.2 4.175q.5-.575 1.113-.875T18.65 3q1.4 0 2.375.975T22 6.35V7h-2v-.65q0-.575-.387-.962T18.65 5q-.275 0-.487.1t-.388.3L17 6.275V17zM9.6 9.6L4.725 4.725q1.2-.85 2.525-1.287T10 3q1.125 0 2.213.275T14.3 4.1zm-.125-2.95l1.375-1.6q-.2-.025-.425-.038T10 5q-.5 0-.963.075t-.937.2zm2.825 5.175"/></symbol><symbol id="hd-icon-material-symbols-stroller-rounded" viewBox="0 0 24 24"><path fill="currentColor" d="M16 22q-.825 0-1.412-.587T14 20t.588-1.412T16 18t1.413.588T18 20t-.587 1.413T16 22M6 22q-.825 0-1.412-.587T4 20t.588-1.412T6 18t1.413.588T8 20t-.587 1.413T6 22m1.425-5q-.65 0-.913-.575t.163-1.075L16.2 4.175q.5-.575 1.113-.875T18.65 3q1.4 0 2.375.975T22 6.35v.025q0 .425-.288.713T21 7.375t-.712-.288T20 6.376V6.35q0-.575-.387-.962T18.65 5q-.275 0-.487.1t-.388.3L17 6.275V15q0 .825-.587 1.413T15 17zM9.6 9.6L5.525 5.525q-.325-.325-.262-.75t.437-.65q1-.55 2.088-.837T10 3t2.213.275T14.3 4.1z"/></symbol><symbol id="hd-icon-material-symbols-stroller-sharp" viewBox="0 0 24 24"><path fill="currentColor" d="M16 22q-.825 0-1.412-.587T14 20t.588-1.412T16 18t1.413.588T18 20t-.587 1.413T16 22M6 22q-.825 0-1.412-.587T4 20t.588-1.412T6 18t1.413.588T8 20t-.587 1.413T6 22m-.725-5L16.2 4.175q.5-.575 1.113-.875T18.65 3q1.4 0 2.375.975T22 6.35V7h-2v-.65q0-.575-.387-.962T18.65 5q-.275 0-.487.1t-.388.3L17 6.275V17zM9.6 9.6L4.725 4.725q1.2-.85 2.525-1.287T10 3q1.125 0 2.213.275T14.3 4.1z"/></symbol><symbol id="hd-icon-material-symbols-style" viewBox="0 0 24 24"><path fill="currentColor" d="m3.975 19.8l-.85-.35q-.775-.325-1.037-1.125t.087-1.575l1.8-3.9zm4 2.2q-.825 0-1.412-.587T5.975 20v-6l2.65 7.35q.075.175.15.338t.2.312zm5.15-.1q-.8.3-1.55-.075t-1.05-1.175l-4.45-12.2q-.3-.8.05-1.562t1.15-1.038l7.55-2.75q.8-.3 1.55.075t1.05 1.175l4.45 12.2q.3.8-.05 1.563t-1.15 1.037zM10.975 10q.425 0 .713-.288T11.975 9t-.287-.712T10.975 8t-.712.288T9.975 9t.288.713t.712.287"/></symbol><symbol id="hd-icon-material-symbols-style-outline" viewBox="0 0 24 24"><path fill="currentColor" d="m3.975 19.8l-.85-.35q-.775-.325-1.037-1.125t.087-1.575l1.8-3.9zm4 2.2q-.825 0-1.412-.587T5.975 20v-6l2.65 7.35q.075.175.15.338t.2.312zm5.15-.1q-.8.3-1.55-.075t-1.05-1.175l-4.45-12.2q-.3-.8.05-1.562t1.15-1.038l7.55-2.75q.8-.3 1.55.075t1.05 1.175l4.45 12.2q.3.8-.05 1.563t-1.15 1.037zM10.975 10q.425 0 .713-.288T11.975 9t-.287-.712T10.975 8t-.712.288T9.975 9t.288.713t.712.287m1.45 10l7.55-2.75L15.525 5l-7.55 2.75zM7.975 7.75L15.525 5z"/></symbol><symbol id="hd-icon-material-symbols-style-outline-sharp" viewBox="0 0 24 24"><path fill="currentColor" d="m3.975 19.8l-2.7-1.1l2.7-5.85zm2-5.8l2.875 8H5.975zm5.25 8.6L5.375 6.55l11.35-4.15l5.85 16.05zm-.25-12.6q.425 0 .713-.288T11.975 9t-.287-.712T10.975 8t-.712.288T9.975 9t.288.713t.712.287m1.45 10l7.55-2.75L15.525 5l-7.55 2.75zM7.975 7.75L15.525 5z"/></symbol><symbol id="hd-icon-material-symbols-style-sharp" viewBox="0 0 24 24"><path fill="currentColor" d="m3.975 19.8l-2.7-1.1l2.7-5.85zm2-5.8l2.875 8H5.975zm5.25 8.6L5.375 6.55l11.35-4.15l5.85 16.05zm-.25-12.6q.425 0 .713-.288T11.975 9t-.287-.712T10.975 8t-.712.288T9.975 9t.288.713t.712.287"/></symbol><symbol id="hd-icon-material-symbols-styler" viewBox="0 0 24 24"><path fill="currentColor" d="M7 22v-6H5.4q-1 0-1.7-.7T3 13.6q0-.725.4-1.337t1.05-.913L11 8.45V7.8q-.9-.325-1.45-1.087T9 5q0-1.25.875-2.125T12 2t2.125.875T15 5h-2q0-.425-.288-.712T12 4t-.712.288T11 5t.288.713T12 6t.713.288T13 7v1.45l6.55 2.9q.65.3 1.05.913T21 13.6q0 1-.7 1.7t-1.7.7H17v6zm-1.6-8H7v-1h10v1h1.6q.175 0 .288-.125T19 13.55q0-.125-.062-.213t-.188-.137l-6.75-3l-6.75 3q-.125.05-.187.138T5 13.55q0 .2.113.325T5.4 14"/></symbol><symbol id="hd-icon-material-symbols-styler-outline" viewBox="0 0 24 24"><path fill="currentColor" d="M7 22v-6H5.4q-1 0-1.7-.7T3 13.6q0-.725.4-1.337t1.05-.913L11 8.45V7.8q-.9-.325-1.45-1.087T9 5q0-1.25.875-2.125T12 2t2.125.875T15 5h-2q0-.425-.288-.712T12 4t-.712.288T11 5t.288.713T12 6t.713.288T13 7v1.45l6.55 2.9q.65.3 1.05.913T21 13.6q0 1-.7 1.7t-1.7.7H17v6zm-1.6-8H7v-1h10v1h1.6q.175 0 .288-.125T19 13.55q0-.125-.062-.213t-.188-.137l-6.75-3l-6.75 3q-.125.05-.187.138T5 13.55q0 .2.113.325T5.4 14M9 20h6v-5H9zm0-5h6z"/></symbol><symbol id="hd-icon-material-symbols-styler-outline-rounded" viewBox="0 0 24 24"><path fill="currentColor" d="M5.4 14H7q0-.425.288-.712T8 13h8q.425 0 .713.288T17 14h1.6q.175 0 .288-.125T19 13.55q0-.125-.062-.213t-.188-.137l-6.75-3l-6.75 3q-.125.05-.187.138T5 13.55q0 .2.113.325T5.4 14M9 20h6v-5H9zm5.225-14.85q-.375.175-.75.012t-.55-.537q-.125-.275-.363-.45T12 4q-.425 0-.712.288T11 5t.288.713T12 6t.713.288T13 7v1.45l6.55 2.9q.65.3 1.05.913T21 13.6q0 1-.7 1.7t-1.7.7H17v5q0 .425-.288.713T16 22H8q-.425 0-.712-.288T7 21v-5H5.4q-1 0-1.7-.7T3 13.6q0-.725.4-1.337t1.05-.913L11 8.45V7.8q-.9-.325-1.45-1.087T9 5q0-1.25.875-2.125T12 2q.95 0 1.688.525t1.087 1.325q.175.375 0 .75t-.55.55M9 15h6z"/></symbol><symbol id="hd-icon-material-symbols-styler-rounded" viewBox="0 0 24 24"><path fill="currentColor" d="M5.4 14H7q0-.425.288-.712T8 13h8q.425 0 .713.288T17 14h1.6q.175 0 .288-.125T19 13.55q0-.125-.062-.213t-.188-.137l-6.75-3l-6.75 3q-.125.05-.187.138T5 13.55q0 .2.113.325T5.4 14M8 22q-.425 0-.712-.288T7 21v-5H5.4q-1 0-1.7-.7T3 13.6q0-.725.4-1.337t1.05-.913L11 8.45V7.8q-.9-.325-1.45-1.087T9 5q0-1.25.875-2.125T12 2q.95 0 1.688.525t1.087 1.325q.175.375 0 .75t-.55.55t-.75.012t-.55-.537q-.125-.275-.363-.45T12 4q-.425 0-.713.288T11 5t.288.713T12 6t.713.288T13 7v1.45l6.55 2.9q.65.3 1.05.913T21 13.6q0 1-.7 1.7t-1.7.7H17v5q0 .425-.288.713T16 22z"/></symbol><symbol id="hd-icon-material-symbols-stylus" viewBox="0 0 24 24"><path fill="currentColor" d="M4.2 20.975q-.525.125-.913-.262t-.262-.913l.875-4.25l4.55 4.55zm5.875-2.1l-4.95-4.95L15.45 3.6q.575-.575 1.425-.575T18.3 3.6l2.1 2.1q.575.575.575 1.425T20.4 8.55z"/></symbol><symbol id="hd-icon-material-symbols-stylus-brush" viewBox="0 0 24 24"><path fill="currentColor" d="M12 16q-2.5 0-4.25-1.737T6 9.95Q6 8.1 7.1 6.475t2.413-2.85t2.4-1.925L13 1q0 1.425.513 2.4t1.937 2.075q1.475 1.15 2.013 2.138T18 9.95q0 2.575-1.75 4.313T12 16m-8 5l.55-1.625q.2-.625.725-1T6.45 18h11.1q.65 0 1.175.375t.725 1L20 21z"/></symbol><symbol id="hd-icon-material-symbols-stylus-brush-outline" viewBox="0 0 24 24"><path fill="currentColor" d="M12 16q-2.5 0-4.25-1.737T6 9.95Q6 8.1 7.1 6.475t2.413-2.85t2.4-1.925L13 1q0 1.425.513 2.4t1.937 2.075q1.475 1.15 2.013 2.138T18 9.95q0 2.575-1.75 4.313T12 16m0-2q1.65 0 2.825-1.162T16 9.95q0-.875-.425-1.537T14.175 7q-.775-.575-1.388-1.237T11.75 4.3q-1.975 1.625-2.863 3T8 9.95q0 1.725 1.175 2.888T12 14m-8 7l.55-1.625q.2-.625.725-1T6.45 18h11.1q.65 0 1.175.375t.725 1L20 21z"/></symbol><symbol id="hd-icon-material-symbols-stylus-brush-outline-rounded" viewBox="0 0 24 24"><path fill="currentColor" d="M12 16q-2.5 0-4.25-1.737T6 9.95q0-2.2 1.525-4.137t3.55-3.538q.225-.175.475-.262t.5-.088q.4 0 .725.212t.45.613q.225.725.763 1.363t1.462 1.362q1.475 1.15 2.013 2.138T18 9.95q0 2.575-1.75 4.313T12 16m0-2q1.65 0 2.825-1.162T16 9.95q0-.875-.425-1.537T14.175 7q-.775-.575-1.388-1.237T11.75 4.3q-1.975 1.625-2.863 3T8 9.95q0 1.725 1.175 2.888T12 14m-6.625 7q-.5 0-.812-.413t-.138-.912l.125-.3q.2-.625.725-1T6.45 18h11.1q.65 0 1.175.375t.725 1l.125.3q.175.5-.137.913t-.813.412z"/></symbol><symbol id="hd-icon-material-symbols-stylus-brush-outline-sharp" viewBox="0 0 24 24"><path fill="currentColor" d="M12 16q-2.5 0-4.25-1.737T6 9.95Q6 8.1 7.1 6.475t2.413-2.85t2.4-1.925L13 1q0 1.425.513 2.4t1.937 2.075q1.475 1.15 2.013 2.138T18 9.95q0 2.575-1.75 4.313T12 16m0-2q1.65 0 2.825-1.162T16 9.95q0-.875-.425-1.537T14.175 7q-.775-.575-1.388-1.237T11.75 4.3q-1.975 1.625-2.863 3T8 9.95q0 1.725 1.175 2.888T12 14m-8 7l1-3h14l1 3z"/></symbol><symbol id="hd-icon-material-symbols-stylus-brush-rounded" viewBox="0 0 24 24"><path fill="currentColor" d="M12 16q-2.5 0-4.25-1.737T6 9.95t1.738-4.625T11.7 1.8q.125-.075.238-.113t.237-.037q.35 0 .625.225t.375.625q.2.8.738 1.5t1.537 1.475q1.475 1.15 2.013 2.138T18 9.95q0 2.575-1.75 4.313T12 16m-6.625 5q-.5 0-.812-.413t-.138-.912l.125-.3q.2-.625.725-1T6.45 18h11.1q.65 0 1.175.375t.725 1l.125.3q.175.5-.137.913t-.813.412z"/></symbol><symbol id="hd-icon-material-symbols-stylus-brush-sharp" viewBox="0 0 24 24"><path fill="currentColor" d="M12 16q-2.5 0-4.25-1.737T6 9.95Q6 8.1 7.1 6.475t2.413-2.85t2.4-1.925L13 1q0 1.425.513 2.4t1.937 2.075q1.475 1.15 2.013 2.138T18 9.95q0 2.575-1.75 4.313T12 16m-8 5l1-3h14l1 3z"/></symbol><symbol id="hd-icon-material-symbols-stylus-fountain-pen" viewBox="0 0 24 24"><path fill="currentColor" d="M7.675 16h8.65L18.5 7L13 1.925V7.3q.35.25.55.625t.2.825q0 .725-.513 1.238T12 10.5t-1.237-.513t-.513-1.237q0-.45.2-.825T11 7.3V1.925L5.5 7zM4 21l.55-1.625q.2-.625.725-1T6.45 18h11.1q.65 0 1.175.375t.725 1L20 21z"/></symbol><symbol id="hd-icon-material-symbols-stylus-fountain-pen-outline" viewBox="0 0 24 24"><path fill="currentColor" d="M7.675 16L5.5 7L12 1l6.5 6l-2.175 9zm1.575-2h5.5l1.525-6.325L13 4.65V7.3q.35.25.55.625t.2.825q0 .725-.513 1.238T12 10.5t-1.237-.513t-.513-1.237q0-.45.2-.825T11 7.3V4.65L7.725 7.675zM4 21l.55-1.625q.2-.625.725-1T6.45 18h11.1q.65 0 1.175.375t.725 1L20 21z"/></symbol><symbol id="hd-icon-material-symbols-stylus-fountain-pen-outline-rounded" viewBox="0 0 24 24"><path fill="currentColor" d="M8.45 16q-.35 0-.625-.213t-.35-.562L5.65 7.575q-.05-.275.013-.525t.262-.45l5.4-4.975Q11.6 1.35 12 1.35t.675.275l5.4 4.975q.2.2.263.45t.012.525l-1.825 7.65q-.075.35-.35.563T15.55 16zm.8-2h5.5l1.525-6.325L13 4.65V7.3q.35.25.55.625t.2.825q0 .725-.512 1.238T12 10.5t-1.237-.513t-.513-1.237q0-.45.2-.825T11 7.3V4.65L7.725 7.675zm-3.875 7q-.5 0-.812-.413t-.138-.912l.125-.3q.2-.625.725-1T6.45 18h11.1q.65 0 1.175.375t.725 1l.125.3q.175.5-.137.913t-.813.412z"/></symbol><symbol id="hd-icon-material-symbols-stylus-fountain-pen-outline-sharp" viewBox="0 0 24 24"><path fill="currentColor" d="M7.675 16L5.5 7L12 1l6.5 6l-2.175 9zm1.575-2h5.5l1.525-6.325L13 4.65V7.3q.35.25.55.625t.2.825q0 .725-.513 1.238T12 10.5t-1.237-.513t-.513-1.237q0-.45.2-.825T11 7.3V4.65L7.725 7.675zM4 21l1-3h14l1 3z"/></symbol><symbol id="hd-icon-material-symbols-stylus-fountain-pen-rounded" viewBox="0 0 24 24"><path fill="currentColor" d="M8.45 16h7.1q.35 0 .625-.213t.35-.562l1.825-7.65q.05-.275-.012-.525t-.263-.45L13.85 2.7q-.25-.225-.55-.088t-.3.463V7.3q.35.25.55.625t.2.825q0 .725-.513 1.238T12 10.5t-1.237-.513t-.513-1.237q0-.45.2-.825T11 7.3V3.075q0-.325-.3-.462t-.55.087L5.925 6.6q-.2.2-.262.45t-.013.525l1.825 7.65q.075.35.35.563T8.45 16m-3.075 5q-.5 0-.812-.413t-.138-.912l.125-.3q.2-.625.725-1T6.45 18h11.1q.65 0 1.175.375t.725 1l.125.3q.175.5-.137.913t-.813.412z"/></symbol><symbol id="hd-icon-material-symbols-stylus-fountain-pen-sharp" viewBox="0 0 24 24"><path fill="currentColor" d="M7.675 16h8.65L18.5 7L13 1.925V7.3q.35.25.55.625t.2.825q0 .725-.513 1.238T12 10.5t-1.237-.513t-.513-1.237q0-.45.2-.825T11 7.3V1.925L5.5 7zM4 21l1-3h14l1 3z"/></symbol><symbol id="hd-icon-material-symbols-stylus-highlighter" viewBox="0 0 24 24"><path fill="currentColor" d="M7 16V5q0-.825.588-1.412T9 3q.225 0 .45.05t.425.15l6 2.975q.5.25.813.738T17 7.975V16zm-3 5l.55-1.625q.2-.625.725-1T6.45 18h11.1q.65 0 1.175.375t.725 1L20 21z"/></symbol><symbol id="hd-icon-material-symbols-stylus-highlighter-outline" viewBox="0 0 24 24"><path fill="currentColor" d="M7 16V5q0-.825.588-1.412T9 3q.225 0 .45.05t.425.15l6 2.975q.5.25.813.738T17 7.975V16zm2-2h6V7.975L9 5zm-5 7l.55-1.625q.2-.625.725-1T6.45 18h11.1q.65 0 1.175.375t.725 1L20 21zm5-7h6z"/></symbol><symbol id="hd-icon-material-symbols-stylus-highlighter-outline-rounded" viewBox="0 0 24 24"><path fill="currentColor" d="M8 16q-.425 0-.712-.288T7 15V5q0-.825.588-1.412T9 3q.225 0 .45.05t.425.15l6 2.975q.5.25.813.738T17 7.975V15q0 .425-.288.713T16 16zm1-2h6V7.975L9 5zm0 0h6zm-3.625 7q-.5 0-.812-.413t-.138-.912l.125-.3q.2-.625.725-1T6.45 18h11.1q.65 0 1.175.375t.725 1l.125.3q.175.5-.137.913t-.813.412z"/></symbol><symbol id="hd-icon-material-symbols-stylus-highlighter-outline-sharp" viewBox="0 0 24 24"><path fill="currentColor" d="M7 16V3h2.475L17 6.725V16zm2-2h6V7.975L9 5zm-5 7l1-3h14l1 3zm5-7h6z"/></symbol></svg>