<svg xmlns="http://www.w3.org/2000/svg" xmlns:xlink="http://www.w3.org/1999/xlink"><symbol id="hd-icon-material-symbols-hexagon-outline-rounded" viewBox="0 0 24 24"><path fill="currentColor" d="M7.95 21q-.55 0-1-.262T6.225 20l-4.05-7q-.275-.475-.275-1t.275-1l4.05-7q.275-.475.725-.737t1-.263h8.1q.55 0 1 .263t.725.737l4.05 7q.275.475.275 1t-.275 1l-4.05 7q-.275.475-.725.738t-1 .262zm0-2h8.1l4.025-7l-4.025-7h-8.1L3.9 12zM12 12"/></symbol><symbol id="hd-icon-material-symbols-hexagon-rounded" viewBox="0 0 24 24"><path fill="currentColor" d="M7.95 21q-.55 0-1-.262T6.225 20l-4.05-7q-.275-.475-.275-1t.275-1l4.05-7q.275-.475.725-.737t1-.263h8.1q.55 0 1 .263t.725.737l4.05 7q.275.475.275 1t-.275 1l-4.05 7q-.275.475-.725.738t-1 .262z"/></symbol><symbol id="hd-icon-material-symbols-hide" viewBox="0 0 24 24"><path fill="currentColor" d="M4.425 21L3 19.575L7.6 15H5v-2h6v6H9v-2.6zM13 11V5h2v2.6L19.575 3L21 4.425L16.4 9H19v2z"/></symbol><symbol id="hd-icon-material-symbols-hide-image" viewBox="0 0 24 24"><path fill="currentColor" d="M21 18.15L5.85 3H19q.825 0 1.413.588T21 5zm-1.2 4.45L18.2 21H5q-.825 0-1.412-.587T3 19V5.8L1.4 4.2l1.4-1.4l18.4 18.4zM6 17h8.175l-2.1-2.1l-.825 1.1L9 13z"/></symbol><symbol id="hd-icon-material-symbols-hide-image-outline" viewBox="0 0 24 24"><path fill="currentColor" d="m21 18.15l-2-2V5H7.85l-2-2H19q.825 0 1.413.588T21 5zm-1.2 4.45L18.2 21H5q-.825 0-1.412-.587T3 19V5.8L1.4 4.2l1.4-1.4l18.4 18.4zM6 17l3-4l2.25 3l.825-1.1L5 7.825V19h11.175l-2-2zm4.6-3.6"/></symbol><symbol id="hd-icon-material-symbols-hide-image-outline-rounded" viewBox="0 0 24 24"><path fill="currentColor" d="M21 5v11q0 .5-.312.75T20 17t-.687-.262t-.313-.763V5H8q-.5 0-.75-.312T7 4t.25-.687T8 3h11q.825 0 1.413.588T21 5M5 21q-.825 0-1.412-.587T3 19V5.8l-.9-.9q-.275-.275-.275-.7t.275-.7t.7-.275t.7.275l17 17q.275.275.275.7t-.275.7t-.7.275t-.7-.275l-.9-.9zm9.175-4H7q-.3 0-.45-.275t.05-.525l2-2.675q.15-.2.4-.2t.4.2L11.25 16l.825-1.1L5 7.825V19h11.175zM10.6 13.4"/></symbol><symbol id="hd-icon-material-symbols-hide-image-outline-sharp" viewBox="0 0 24 24"><path fill="currentColor" d="m21 18.15l-2-2V5H7.85l-2-2H21zm-1.2 4.45L18.2 21H3V5.8L1.4 4.2l1.4-1.4l18.4 18.4zM6 17l3-4l2.25 3l.825-1.1L5 7.825V19h11.175l-2-2zm4.6-3.6"/></symbol><symbol id="hd-icon-material-symbols-hide-image-rounded" viewBox="0 0 24 24"><path fill="currentColor" d="M21 5v10.725q0 .35-.175.575t-.45.35t-.55.088t-.525-.288L7.55 4.7q-.25-.25-.287-.525t.087-.55t.35-.45T8.275 3H19q.825 0 1.413.587T21 5M5 21q-.825 0-1.412-.587T3 19V5.8l-.9-.9q-.275-.275-.275-.7t.275-.7t.7-.275t.7.275l17 17q.275.275.275.7t-.275.7t-.7.275t-.7-.275l-.9-.9zm9.175-4l-2.1-2.1l-.825 1.1l-1.85-2.475q-.15-.2-.4-.2t-.4.2l-2 2.675q-.2.25-.05.525T7 17z"/></symbol><symbol id="hd-icon-material-symbols-hide-image-sharp" viewBox="0 0 24 24"><path fill="currentColor" d="M21 18.15L5.85 3H21zm-1.2 4.45L18.2 21H3V5.8L1.4 4.2l1.4-1.4l18.4 18.4zM6 17h8.175l-2.1-2.1l-.825 1.1L9 13z"/></symbol><symbol id="hd-icon-material-symbols-hide-rounded" viewBox="0 0 24 24"><path fill="currentColor" d="m9 16.4l-3.875 3.9q-.3.3-.7.3t-.7-.3t-.3-.712t.3-.713L7.6 15H6q-.425 0-.712-.287T5 14t.288-.712T6 13h4q.425 0 .713.288T11 14v4q0 .425-.288.713T10 19t-.712-.288T9 18zM16.4 9H18q.425 0 .713.288T19 10t-.288.713T18 11h-4q-.425 0-.712-.288T13 10V6q0-.425.288-.712T14 5t.713.288T15 6v1.6l3.875-3.9q.3-.3.7-.3t.7.3t.3.712t-.3.713z"/></symbol><symbol id="hd-icon-material-symbols-hide-source" viewBox="0 0 24 24"><path fill="currentColor" d="M19.775 22.625L17.5 20.35q-1.225.8-2.612 1.225T12 22q-2.075 0-3.9-.788t-3.175-2.137T2.788 15.9T2 12q0-1.5.425-2.887T3.65 6.5L1.375 4.225L2.8 2.8l18.4 18.4zm.575-5.125L6.5 3.65q1.225-.8 2.613-1.225T12 2q2.075 0 3.9.788t3.175 2.137T21.213 8.1T22 12q0 1.5-.425 2.888T20.35 17.5"/></symbol><symbol id="hd-icon-material-symbols-hide-source-outline" viewBox="0 0 24 24"><path fill="currentColor" d="M19.775 22.625L17.5 20.35q-1.225.8-2.612 1.225T12 22q-2.075 0-3.9-.788t-3.175-2.137T2.788 15.9T2 12q0-1.5.425-2.887T3.65 6.5L1.375 4.225L2.8 2.8l18.4 18.4zM12 20q1.075 0 2.088-.275t1.962-.825L5.1 7.95q-.55.95-.825 1.962T4 12q0 3.325 2.338 5.663T12 20m8.35-2.5l-1.45-1.45q.55-.95.825-1.963T20 12q0-3.325-2.337-5.663T12 4q-1.075 0-2.087.275T7.95 5.1L6.5 3.65q1.225-.8 2.613-1.225T12 2q2.075 0 3.9.788t3.175 2.137T21.213 8.1T22 12q0 1.5-.425 2.888T20.35 17.5m-9.775-4.075"/></symbol><symbol id="hd-icon-material-symbols-hide-source-outline-rounded" viewBox="0 0 24 24"><path fill="currentColor" d="M19.075 21.9L17.5 20.35q-1.225.8-2.613 1.225T12 22q-2.075 0-3.9-.788t-3.175-2.137T2.788 15.9T2 12q0-1.5.425-2.887T3.65 6.5L2.075 4.925q-.3-.3-.3-.712t.3-.713t.713-.3t.712.3l17 17q.3.3.3.7t-.3.7t-.712.3t-.713-.3M12 20q1.075 0 2.088-.275t1.962-.825L5.1 7.95q-.55.95-.825 1.962T4 12q0 3.325 2.338 5.663T12 20m0-16q-.825 0-1.612.163T8.85 4.65q-.4.175-.8.05t-.6-.475t-.088-.75t.488-.575q.975-.45 2.012-.675T12 2q2.075 0 3.9.788t3.175 2.137T21.213 8.1T22 12q0 1.1-.225 2.138T21.1 16.15q-.175.375-.575.488t-.75-.088t-.475-.6t.05-.8q.325-.75.488-1.537T20 12q0-3.325-2.337-5.663T12 4m-1.425 9.425"/></symbol><symbol id="hd-icon-material-symbols-hide-source-rounded" viewBox="0 0 24 24"><path fill="currentColor" d="M19.075 21.9L17.5 20.35q-1.225.8-2.613 1.225T12 22q-2.075 0-3.9-.788t-3.175-2.137T2.788 15.9T2 12q0-1.5.425-2.887T3.65 6.5L2.075 4.925q-.3-.3-.3-.712t.3-.713t.713-.3t.712.3l17 17q.3.3.3.7t-.3.7t-.712.3t-.713-.3m.1-5.575l-11.5-11.5q-.45-.45-.362-1.075t.662-.9q.95-.425 1.963-.638T12 2q2.075 0 3.9.788t3.175 2.137T21.213 8.1T22 12q0 1.05-.213 2.063t-.637 1.962q-.275.575-.887.675t-1.088-.375"/></symbol><symbol id="hd-icon-material-symbols-high-chair" viewBox="0 0 24 24"><path fill="currentColor" d="m6 21l1-10.95l-.8-4.725q-.125-.65.313-1.488T8.45 3q1.475 0 2.588.95t1.362 2.4L12.85 9H17q.425 0 .713.288T18 10t-.288.713T17 11h-.9l.9 10h-2l-.175-2h-6.65L8 21zm2.35-4h6.275l-.175-2h-5.9zm.375-4h5.55l-.2-2H8.9z"/></symbol><symbol id="hd-icon-material-symbols-high-chair-outline" viewBox="0 0 24 24"><path fill="currentColor" d="m6 21l1-10.95l-.8-4.725q-.125-.65.313-1.488T8.45 3q1.475 0 2.588.95t1.362 2.4L12.85 9H17q.425 0 .713.288T18 10t-.288.713T17 11h-.9l.9 10h-2l-.175-2h-6.65L8 21zm2.35-4h6.275l-.175-2h-5.9zm.375-4h5.55l-.2-2H8.9zm.125-4h1.975l-.4-2.325q-.125-.725-.688-1.2T8.45 5h-.275zm-.4 0h2.375z"/></symbol><symbol id="hd-icon-material-symbols-high-chair-outline-rounded" viewBox="0 0 24 24"><path fill="currentColor" d="M7.1 21q-.425 0-.737-.325t-.263-.75L7 10.05l-.8-4.725q-.125-.65.313-1.487T8.45 3q1.475 0 2.588.95t1.362 2.4L12.85 9H17q.425 0 .713.288T18 10t-.288.713T17 11h-.9l.8 8.925q.05.425-.25.75T15.9 21q-.4 0-.662-.262t-.313-.638l-.1-1.1h-6.65l-.1 1.1q-.05.375-.312.638T7.1 21M8.45 9h2.375l-.4-2.325q-.125-.725-.687-1.2T8.45 5h-.275zm0 0h2.375zm-.1 8h6.275l-.175-2h-5.9zm.375-4h5.55l-.2-2H8.9z"/></symbol><symbol id="hd-icon-material-symbols-high-chair-outline-sharp" viewBox="0 0 24 24"><path fill="currentColor" d="m6 21l1-10.95L5.825 3H8.45q1.475 0 2.588.95t1.362 2.4L12.85 9H18v2h-1.9l.9 10h-2l-.175-2h-6.65L8 21zM8.85 9h1.975l-.4-2.325q-.125-.725-.688-1.2T8.45 5h-.275zm0 0h1.975zm-.5 8h6.275l-.175-2h-5.9zm.375-4h5.55l-.2-2H8.9z"/></symbol><symbol id="hd-icon-material-symbols-high-chair-rounded" viewBox="0 0 24 24"><path fill="currentColor" d="M7.1 21q-.425 0-.737-.325t-.263-.75L7 10.05l-.8-4.725q-.125-.65.313-1.487T8.45 3q1.475 0 2.588.95t1.362 2.4L12.85 9H17q.425 0 .713.288T18 10t-.288.713T17 11h-.9l.8 8.925q.05.425-.25.75T15.9 21q-.4 0-.662-.262t-.313-.638l-.1-1.1h-6.65l-.1 1.1q-.05.375-.312.638T7.1 21m1.25-4h6.275l-.175-2h-5.9zm.375-4h5.55l-.2-2H8.9z"/></symbol><symbol id="hd-icon-material-symbols-high-chair-sharp" viewBox="0 0 24 24"><path fill="currentColor" d="m6 21l1-10.95L5.825 3H8.45q1.475 0 2.588.95t1.362 2.4L12.85 9H18v2h-1.9l.9 10h-2l-.175-2h-6.65L8 21zm2.35-4h6.275l-.175-2h-5.9zm.375-4h5.55l-.2-2H8.9z"/></symbol><symbol id="hd-icon-material-symbols-high-density" viewBox="0 0 24 24"><path fill="currentColor" d="M3 17V3h14v14zm0 4v-2h2v2zm4 0v-2h2v2zm4 0v-2h2v2zm4 0v-2h2v2zm4 0v-2h2v2zm0-4v-2h2v2zm0-4v-2h2v2zm0-4V7h2v2zm0-4V3h2v2z"/></symbol><symbol id="hd-icon-material-symbols-high-density-outline" viewBox="0 0 24 24"><path fill="currentColor" d="M3 17V3h14v14zm2-2h10V5H5zm-2 6v-2h2v2zm4 0v-2h2v2zm4 0v-2h2v2zm4 0v-2h2v2zm4 0v-2h2v2zm0-4v-2h2v2zm0-4v-2h2v2zm0-4V7h2v2zm0-4V3h2v2zm-9 5"/></symbol><symbol id="hd-icon-material-symbols-high-density-outline-rounded" viewBox="0 0 24 24"><path fill="currentColor" d="M3 15V5q0-.825.588-1.412T5 3h10q.825 0 1.413.588T17 5v10q0 .825-.587 1.413T15 17H5q-.825 0-1.412-.587T3 15m2 0h10V5H5zM20 5q-.425 0-.712-.288T19 4t.288-.712T20 3t.713.288T21 4t-.288.713T20 5m0 4q-.425 0-.712-.288T19 8t.288-.712T20 7t.713.288T21 8t-.288.713T20 9m0 4q-.425 0-.712-.288T19 12t.288-.712T20 11t.713.288T21 12t-.288.713T20 13m0 4q-.425 0-.712-.288T19 16t.288-.712T20 15t.713.288T21 16t-.288.713T20 17M4 21q-.425 0-.712-.288T3 20t.288-.712T4 19t.713.288T5 20t-.288.713T4 21m4 0q-.425 0-.712-.288T7 20t.288-.712T8 19t.713.288T9 20t-.288.713T8 21m4 0q-.425 0-.712-.288T11 20t.288-.712T12 19t.713.288T13 20t-.288.713T12 21m4 0q-.425 0-.712-.288T15 20t.288-.712T16 19t.713.288T17 20t-.288.713T16 21m4 0q-.425 0-.712-.288T19 20t.288-.712T20 19t.713.288T21 20t-.288.713T20 21M10 10"/></symbol><symbol id="hd-icon-material-symbols-high-density-rounded" viewBox="0 0 24 24"><path fill="currentColor" d="M20 5q-.425 0-.712-.288T19 4t.288-.712T20 3t.713.288T21 4t-.288.713T20 5m0 4q-.425 0-.712-.288T19 8t.288-.712T20 7t.713.288T21 8t-.288.713T20 9m0 4q-.425 0-.712-.288T19 12t.288-.712T20 11t.713.288T21 12t-.288.713T20 13m0 4q-.425 0-.712-.288T19 16t.288-.712T20 15t.713.288T21 16t-.288.713T20 17M4 21q-.425 0-.712-.288T3 20t.288-.712T4 19t.713.288T5 20t-.288.713T4 21m4 0q-.425 0-.712-.288T7 20t.288-.712T8 19t.713.288T9 20t-.288.713T8 21m4 0q-.425 0-.712-.288T11 20t.288-.712T12 19t.713.288T13 20t-.288.713T12 21m4 0q-.425 0-.712-.288T15 20t.288-.712T16 19t.713.288T17 20t-.288.713T16 21m4 0q-.425 0-.712-.288T19 20t.288-.712T20 19t.713.288T21 20t-.288.713T20 21M3 15V5q0-.825.588-1.412T5 3h10q.825 0 1.413.588T17 5v10q0 .825-.587 1.413T15 17H5q-.825 0-1.412-.587T3 15"/></symbol><symbol id="hd-icon-material-symbols-high-quality" viewBox="0 0 24 24"><path fill="currentColor" d="M14.75 16.5h1.5V15H17q.425 0 .713-.288T18 14v-4q0-.425-.288-.712T17 9h-3q-.425 0-.712.288T13 10v4q0 .425.288.713T14 15h.75zM6 15h1.5v-2h2v2H11V9H9.5v2.5h-2V9H6zm8.5-1.5v-3h2v3zM4 20q-.825 0-1.412-.587T2 18V6q0-.825.588-1.412T4 4h16q.825 0 1.413.588T22 6v12q0 .825-.587 1.413T20 20z"/></symbol><symbol id="hd-icon-material-symbols-high-quality-outline" viewBox="0 0 24 24"><path fill="currentColor" d="M14.75 16.5h1.5V15H17q.425 0 .713-.288T18 14v-4q0-.425-.288-.712T17 9h-3q-.425 0-.712.288T13 10v4q0 .425.288.713T14 15h.75zM6 15h1.5v-2h2v2H11V9H9.5v2.5h-2V9H6zm8.5-1.5v-3h2v3zM4 20q-.825 0-1.412-.587T2 18V6q0-.825.588-1.412T4 4h16q.825 0 1.413.588T22 6v12q0 .825-.587 1.413T20 20zm0-2h16V6H4zm0 0V6z"/></symbol><symbol id="hd-icon-material-symbols-high-quality-outline-rounded" viewBox="0 0 24 24"><path fill="currentColor" d="M14.75 15v.75q0 .325.213.538t.537.212t.538-.213t.212-.537V15H17q.425 0 .713-.288T18 14v-4q0-.425-.288-.712T17 9h-3q-.425 0-.712.288T13 10v4q0 .425.288.713T14 15zM7.5 13h2v1.25q0 .325.213.538t.537.212t.538-.213t.212-.537v-4.5q0-.325-.213-.537T10.25 9t-.537.213t-.213.537v1.75h-2V9.75q0-.325-.213-.537T6.75 9t-.537.213T6 9.75v4.5q0 .325.213.538T6.75 15t.538-.213t.212-.537zm7 .5v-3h2v3zM4 20q-.825 0-1.412-.587T2 18V6q0-.825.588-1.412T4 4h16q.825 0 1.413.588T22 6v12q0 .825-.587 1.413T20 20zm0-2h16V6H4zm0 0V6z"/></symbol><symbol id="hd-icon-material-symbols-high-quality-outline-sharp" viewBox="0 0 24 24"><path fill="currentColor" d="M14.75 16.5h1.5V15H18V9h-5v6h1.75zM6 15h1.5v-2h2v2H11V9H9.5v2.5h-2V9H6zm8.5-1.5v-3h2v3zM2 20V4h20v16zm2-2h16V6H4zm0 0V6z"/></symbol><symbol id="hd-icon-material-symbols-high-quality-rounded" viewBox="0 0 24 24"><path fill="currentColor" d="M14.75 15v.75q0 .325.213.538t.537.212t.538-.213t.212-.537V15H17q.425 0 .713-.288T18 14v-4q0-.425-.288-.712T17 9h-3q-.425 0-.712.288T13 10v4q0 .425.288.713T14 15zM7.5 13h2v1.25q0 .325.213.538t.537.212t.538-.213t.212-.537v-4.5q0-.325-.213-.537T10.25 9t-.537.213t-.213.537v1.75h-2V9.75q0-.325-.213-.537T6.75 9t-.537.213T6 9.75v4.5q0 .325.213.538T6.75 15t.538-.213t.212-.537zm7 .5v-3h2v3zM4 20q-.825 0-1.412-.587T2 18V6q0-.825.588-1.412T4 4h16q.825 0 1.413.588T22 6v12q0 .825-.587 1.413T20 20z"/></symbol><symbol id="hd-icon-material-symbols-high-quality-sharp" viewBox="0 0 24 24"><path fill="currentColor" d="M14.75 16.5h1.5V15H18V9h-5v6h1.75zM6 15h1.5v-2h2v2H11V9H9.5v2.5h-2V9H6zm8.5-1.5v-3h2v3zM2 20V4h20v16z"/></symbol><symbol id="hd-icon-material-symbols-high-res" viewBox="0 0 24 24"><path fill="currentColor" d="M4.5 18.5H6v-2h.6l.9 2H9l-.9-2.1q.375-.225.638-.587T9 15v-1q0-.625-.437-1.062T7.5 12.5h-3zm5.5 0h4V17h-2.5v-.75h2v-1.5h-2V14H14v-1.5h-4zm5 0h3.5q.425 0 .713-.288t.287-.712V16q0-.425-.288-.712T18.5 15h-2v-1h3v-1.5H16q-.425 0-.712.288T15 13.5V15q0 .425.288.713T16 16h2v1h-3zM6 15v-1h1.5v1zm1.5-3.5H9V9.25h1.5v2.25H12v-6h-1.5v2.25H9V5.5H7.5zm7 0H16v-6h-1.5zM3 21q-.825 0-1.412-.587T1 19V5q0-.825.588-1.412T3 3h18q.825 0 1.413.588T23 5v14q0 .825-.587 1.413T21 21z"/></symbol><symbol id="hd-icon-material-symbols-high-res-outline" viewBox="0 0 24 24"><path fill="currentColor" d="M4.5 18.5H6v-2h.6l.9 2H9l-.9-2.1q.375-.225.638-.587T9 15v-1q0-.625-.437-1.062T7.5 12.5h-3zm5.5 0h4V17h-2.5v-.75h2v-1.5h-2V14H14v-1.5h-4zm5 0h3.5q.425 0 .713-.288t.287-.712V16q0-.425-.288-.712T18.5 15h-2v-1h3v-1.5H16q-.425 0-.712.288T15 13.5V15q0 .425.288.713T16 16h2v1h-3zM6 15v-1h1.5v1zm1.5-3.5H9V9.25h1.5v2.25H12v-6h-1.5v2.25H9V5.5H7.5zm7 0H16v-6h-1.5zM3 21q-.825 0-1.412-.587T1 19V5q0-.825.588-1.412T3 3h18q.825 0 1.413.588T23 5v14q0 .825-.587 1.413T21 21zm0-2h18V5H3zm0 0V5z"/></symbol><symbol id="hd-icon-material-symbols-high-res-outline-rounded" viewBox="0 0 24 24"><path fill="currentColor" d="M6 16.5h.6l.725 1.6q.075.2.25.3t.375.1q.375 0 .587-.3t.063-.65l-.5-1.15q.375-.225.638-.587T9 15v-1q0-.625-.437-1.062T7.5 12.5h-2q-.425 0-.712.288T4.5 13.5v4.25q0 .325.213.538t.537.212t.538-.213T6 17.75zm7.25 2q.325 0 .538-.213T14 17.75t-.213-.537T13.25 17H11.5v-.75h1.25q.325 0 .538-.213t.212-.537t-.213-.537t-.537-.213H11.5V14h1.75q.325 0 .538-.213T14 13.25t-.213-.537t-.537-.213H11q-.425 0-.712.288T10 13.5v4q0 .425.288.713T11 18.5zM18 17h-2.25q-.325 0-.537.213T15 17.75t.213.538t.537.212h2.75q.425 0 .713-.288t.287-.712V16q0-.425-.288-.712T18.5 15h-2v-1h2.25q.325 0 .538-.213t.212-.537t-.213-.537t-.537-.213H16q-.425 0-.712.288T15 13.5V15q0 .425.288.713T16 16h2zM6 15v-1h1.5v1zm3-5.75h1.5v1.5q0 .325.213.538t.537.212t.538-.213t.212-.537v-4.5q0-.325-.213-.537T11.25 5.5t-.537.213t-.213.537v1.5H9v-1.5q0-.325-.213-.537T8.25 5.5t-.537.213t-.213.537v4.5q0 .325.213.538t.537.212t.538-.213T9 10.75zm5.5-3v4.5q0 .325.213.538t.537.212t.538-.213t.212-.537v-4.5q0-.325-.213-.537T15.25 5.5t-.537.213t-.213.537M3 21q-.825 0-1.412-.587T1 19V5q0-.825.588-1.412T3 3h18q.825 0 1.413.588T23 5v14q0 .825-.587 1.413T21 21zm0-2h18V5H3zm0 0V5z"/></symbol><symbol id="hd-icon-material-symbols-high-res-outline-sharp" viewBox="0 0 24 24"><path fill="currentColor" d="M10 18.5h4V17h-2.5v-.75h2v-1.5h-2V14H14v-1.5h-4zm5 0h4.5V15h-3v-1h3v-1.5H15V16h3v1h-3zm-7.5-7H9V9.25h1.5v2.25H12v-6h-1.5v2.25H9V5.5H7.5zm7 0H16v-6h-1.5zM1 21V3h22v18zm2-2h18V5H3zm0 0V5zm1.5-.5H6v-2h.6l.9 2H9l-.9-2.1q.375-.225.638-.587T9 15v-1q0-.625-.437-1.062T7.5 12.5h-3zM6 15v-1h1.5v1z"/></symbol><symbol id="hd-icon-material-symbols-high-res-rounded" viewBox="0 0 24 24"><path fill="currentColor" d="M6 16.5h.6l.725 1.6q.075.2.25.3t.375.1q.375 0 .587-.3t.063-.65l-.5-1.15q.375-.225.638-.587T9 15v-1q0-.625-.437-1.062T7.5 12.5h-2q-.425 0-.712.288T4.5 13.5v4.25q0 .325.213.538t.537.212t.538-.213T6 17.75zm7.25 2q.325 0 .538-.213T14 17.75t-.213-.537T13.25 17H11.5v-.75h1.25q.325 0 .538-.213t.212-.537t-.213-.537t-.537-.213H11.5V14h1.75q.325 0 .538-.213T14 13.25t-.213-.537t-.537-.213H11q-.425 0-.712.288T10 13.5v4q0 .425.288.713T11 18.5zM18 17h-2.25q-.325 0-.537.213T15 17.75t.213.538t.537.212h2.75q.425 0 .713-.288t.287-.712V16q0-.425-.288-.712T18.5 15h-2v-1h2.25q.325 0 .538-.213t.212-.537t-.213-.537t-.537-.213H16q-.425 0-.712.288T15 13.5V15q0 .425.288.713T16 16h2zM6 15v-1h1.5v1zm3-5.75h1.5v1.5q0 .325.213.538t.537.212t.538-.213t.212-.537v-4.5q0-.325-.213-.537T11.25 5.5t-.537.213t-.213.537v1.5H9v-1.5q0-.325-.213-.537T8.25 5.5t-.537.213t-.213.537v4.5q0 .325.213.538t.537.212t.538-.213T9 10.75zm5.5-3v4.5q0 .325.213.538t.537.212t.538-.213t.212-.537v-4.5q0-.325-.213-.537T15.25 5.5t-.537.213t-.213.537M3 21q-.825 0-1.412-.587T1 19V5q0-.825.588-1.412T3 3h18q.825 0 1.413.588T23 5v14q0 .825-.587 1.413T21 21z"/></symbol><symbol id="hd-icon-material-symbols-high-res-sharp" viewBox="0 0 24 24"><path fill="currentColor" d="M10 18.5h4V17h-2.5v-.75h2v-1.5h-2V14H14v-1.5h-4zm5 0h4.5V15h-3v-1h3v-1.5H15V16h3v1h-3zm-7.5-7H9V9.25h1.5v2.25H12v-6h-1.5v2.25H9V5.5H7.5zm7 0H16v-6h-1.5zM1 21V3h22v18zm3.5-2.5H6v-2h.6l.9 2H9l-.9-2.1q.375-.225.638-.587T9 15v-1q0-.625-.437-1.062T7.5 12.5h-3zM6 15v-1h1.5v1z"/></symbol><symbol id="hd-icon-material-symbols-highlight" viewBox="0 0 24 24"><path fill="currentColor" d="M5.65 8L3.5 5.9l1.4-1.45L7.05 6.6zM11 5V2h2v3zm7.4 3l-1.45-1.4l2.15-2.1l1.4 1.4zM9 22v-5l-3-3V9h12v5l-3 3v5z"/></symbol><symbol id="hd-icon-material-symbols-highlight-keyboard-focus" viewBox="0 0 24 24"><path fill="currentColor" d="M11 17h2V7h-2zm1 5q-2.075 0-3.9-.788t-3.175-2.137T2.788 15.9T2 12t.788-3.9t2.137-3.175T8.1 2.788T12 2t3.9.788t3.175 2.137T21.213 8.1T22 12t-.788 3.9t-2.137 3.175t-3.175 2.138T12 22"/></symbol><symbol id="hd-icon-material-symbols-highlight-keyboard-focus-outline" viewBox="0 0 24 24"><path fill="currentColor" d="M11 17h2V7h-2zm1 5q-2.075 0-3.9-.788t-3.175-2.137T2.788 15.9T2 12t.788-3.9t2.137-3.175T8.1 2.788T12 2t3.9.788t3.175 2.137T21.213 8.1T22 12t-.788 3.9t-2.137 3.175t-3.175 2.138T12 22m0-2q3.35 0 5.675-2.325T20 12t-2.325-5.675T12 4T6.325 6.325T4 12t2.325 5.675T12 20m0-8"/></symbol><symbol id="hd-icon-material-symbols-highlight-keyboard-focus-outline-rounded" viewBox="0 0 24 24"><path fill="currentColor" d="M12 17q.425 0 .713-.288T13 16V8q0-.425-.288-.712T12 7t-.712.288T11 8v8q0 .425.288.713T12 17m0 5q-2.075 0-3.9-.788t-3.175-2.137T2.788 15.9T2 12t.788-3.9t2.137-3.175T8.1 2.788T12 2t3.9.788t3.175 2.137T21.213 8.1T22 12t-.788 3.9t-2.137 3.175t-3.175 2.138T12 22m0-2q3.35 0 5.675-2.325T20 12t-2.325-5.675T12 4T6.325 6.325T4 12t2.325 5.675T12 20m0-8"/></symbol><symbol id="hd-icon-material-symbols-highlight-keyboard-focus-rounded" viewBox="0 0 24 24"><path fill="currentColor" d="M12 17q.425 0 .713-.288T13 16V8q0-.425-.288-.712T12 7t-.712.288T11 8v8q0 .425.288.713T12 17m0 5q-2.075 0-3.9-.788t-3.175-2.137T2.788 15.9T2 12t.788-3.9t2.137-3.175T8.1 2.788T12 2t3.9.788t3.175 2.137T21.213 8.1T22 12t-.788 3.9t-2.137 3.175t-3.175 2.138T12 22"/></symbol><symbol id="hd-icon-material-symbols-highlight-mouse-cursor" viewBox="0 0 24 24"><path fill="currentColor" d="M12.9 21.95q-.225.05-.45.05H12q-2.075 0-3.9-.787t-3.175-2.138T2.788 15.9T2 12t.788-3.9t2.137-3.175T8.1 2.788T12 2t3.9.788t3.175 2.137T21.213 8.1T22 12v.45q0 .225-.05.45L20 12.3V12q0-3.35-2.325-5.675T12 4T6.325 6.325T4 12t2.325 5.675T12 20h.3zm7.625.55l-4.275-4.275L15 22l-3-10l10 3l-3.775 1.25l4.275 4.275z"/></symbol><symbol id="hd-icon-material-symbols-highlight-mouse-cursor-rounded" viewBox="0 0 24 24"><path fill="currentColor" d="m19.55 21.5l-3.3-3.275l-.75 2.275q-.125.35-.475.338t-.475-.363L12.275 12.9q-.1-.275.125-.5t.5-.125l7.575 2.275q.35.125.363.475t-.338.475l-2.275.75l3.3 3.3q.425.425.425.975t-.425.975t-.987.425t-.988-.425M12 4Q8.65 4 6.325 6.325T4 12q0 3.15 2.075 5.4t5.2 2.55q.425.05.737.375t.288.75t-.313.7t-.712.25q-1.95-.125-3.638-.975t-2.95-2.213t-1.975-3.125T2 12q0-2.075.788-3.9t2.137-3.175T8.1 2.788T12 2q3.925 0 6.838 2.675t3.187 6.6q.05.4-.237.688t-.713.312t-.762-.275t-.388-.725q-.375-3-2.612-5.137T12 4"/></symbol><symbol id="hd-icon-material-symbols-highlight-outline" viewBox="0 0 24 24"><path fill="currentColor" d="M5.65 8L3.5 5.9l1.4-1.45L7.05 6.6zM11 5V2h2v3zm7.4 3l-1.45-1.4l2.15-2.1l1.4 1.4zM9 22v-5l-3-3V9h12v5l-3 3v5zm2-2h2v-3.825l3-3V11H8v2.175l3 3zm1-4.5"/></symbol><symbol id="hd-icon-material-symbols-highlight-outline-rounded" viewBox="0 0 24 24"><path fill="currentColor" d="M4.95 7.325L4.2 6.6q-.3-.275-.288-.687T4.2 5.2q.3-.3.713-.312t.712.287l.725.725q.275.275.288.688T6.35 7.3q-.275.275-.687.288t-.713-.263M11 4V3q0-.425.288-.712T12 2t.713.288T13 3v1q0 .425-.288.713T12 5t-.712-.288T11 4m6.7 1.875l.7-.7q.275-.275.688-.275t.712.3q.275.275.275.7t-.275.7l-.7.7q-.275.275-.688.288t-.712-.263q-.3-.3-.3-.725t.3-.725M9 20v-3l-2.425-2.425q-.275-.275-.425-.638T6 13.176V11q0-.825.587-1.412T8 9h8q.825 0 1.413.588T18 11v2.175q0 .4-.15.763t-.425.637L15 17v3q0 .825-.587 1.413T13 22h-2q-.825 0-1.412-.587T9 20m2 0h2v-3.825l3-3V11H8v2.175l3 3zm1-4.5"/></symbol><symbol id="hd-icon-material-symbols-highlight-rounded" viewBox="0 0 24 24"><path fill="currentColor" d="M4.95 7.325L4.2 6.6q-.3-.275-.288-.687T4.2 5.2q.3-.3.713-.312t.712.287l.725.725q.275.275.288.688T6.35 7.3q-.275.275-.687.288t-.713-.263M11 4V3q0-.425.288-.712T12 2t.713.288T13 3v1q0 .425-.288.713T12 5t-.712-.288T11 4m6.7 1.875l.7-.7q.275-.275.688-.275t.712.3q.275.275.275.7t-.275.7l-.7.7q-.275.275-.688.288t-.712-.263q-.3-.3-.3-.725t.3-.725M9 20v-3l-2.425-2.425q-.275-.275-.425-.638T6 13.176V11q0-.825.587-1.412T8 9h8q.825 0 1.413.588T18 11v2.175q0 .4-.15.763t-.425.637L15 17v3q0 .825-.587 1.413T13 22h-2q-.825 0-1.412-.587T9 20"/></symbol><symbol id="hd-icon-material-symbols-highlight-text-cursor" viewBox="0 0 24 24"><path fill="currentColor" d="M12 22q-2.075 0-3.9-.788t-3.175-2.137T2.788 15.9T2 12t.788-3.9t2.137-3.175T8.1 2.788T12 2t3.9.788t3.175 2.137T21.213 8.1T22 12t-.788 3.9t-2.137 3.175t-3.175 2.138T12 22m-3-5h6v-2h-2V9h2V7H9v2h2v6H9z"/></symbol><symbol id="hd-icon-material-symbols-highlight-text-cursor-outline" viewBox="0 0 24 24"><path fill="currentColor" d="M12 22q-2.075 0-3.9-.788t-3.175-2.137T2.788 15.9T2 12t.788-3.9t2.137-3.175T8.1 2.788T12 2t3.9.788t3.175 2.137T21.213 8.1T22 12t-.788 3.9t-2.137 3.175t-3.175 2.138T12 22m0-2q3.35 0 5.675-2.325T20 12t-2.325-5.675T12 4T6.325 6.325T4 12t2.325 5.675T12 20m-3-3h6v-2h-2V9h2V7H9v2h2v6H9z"/></symbol><symbol id="hd-icon-material-symbols-highlight-text-cursor-outline-rounded" viewBox="0 0 24 24"><path fill="currentColor" d="M12 22q-2.075 0-3.9-.788t-3.175-2.137T2.788 15.9T2 12t.788-3.9t2.137-3.175T8.1 2.788T12 2t3.9.788t3.175 2.137T21.213 8.1T22 12t-.788 3.9t-2.137 3.175t-3.175 2.138T12 22m0-2q3.35 0 5.675-2.325T20 12t-2.325-5.675T12 4T6.325 6.325T4 12t2.325 5.675T12 20m-2-3h4q.425 0 .713-.288T15 16t-.288-.712T14 15h-1V9h1q.425 0 .713-.288T15 8t-.288-.712T14 7h-4q-.425 0-.712.288T9 8t.288.713T10 9h1v6h-1q-.425 0-.712.288T9 16t.288.713T10 17"/></symbol><symbol id="hd-icon-material-symbols-highlight-text-cursor-rounded" viewBox="0 0 24 24"><path fill="currentColor" d="M12 22q-2.075 0-3.9-.788t-3.175-2.137T2.788 15.9T2 12t.788-3.9t2.137-3.175T8.1 2.788T12 2t3.9.788t3.175 2.137T21.213 8.1T22 12t-.788 3.9t-2.137 3.175t-3.175 2.138T12 22m-2-5h4q.425 0 .713-.288T15 16t-.288-.712T14 15h-1V9h1q.425 0 .713-.288T15 8t-.288-.712T14 7h-4q-.425 0-.712.288T9 8t.288.713T10 9h1v6h-1q-.425 0-.712.288T9 16t.288.713T10 17"/></symbol><symbol id="hd-icon-material-symbols-highlighter-size-1" viewBox="0 0 24 24"><path fill="currentColor" d="m6.7 18.7l-1.4-1.4Q5 17 5 16.588t.3-.713L15.875 5.3q.3-.3.713-.3t.712.3l1.4 1.4q.3.3.3.713t-.3.712L8.1 18.7q-.275.275-.7.275t-.7-.275"/></symbol><symbol id="hd-icon-material-symbols-highlighter-size-2" viewBox="0 0 24 24"><path fill="currentColor" d="m7.05 19.05l-2.1-2.1q-.3-.3-.3-.712t.3-.713L15.525 4.95q.3-.3.713-.3t.712.3l2.1 2.125q.275.275.275.7t-.275.7L8.475 19.05q-.3.3-.712.3t-.713-.3"/></symbol><symbol id="hd-icon-material-symbols-highlighter-size-3" viewBox="0 0 24 24"><path fill="currentColor" d="m7.75 19.75l-3.525-3.525q-.275-.275-.275-.7t.275-.7L14.8 4.225q.3-.3.725-.3t.7.3l3.525 3.55q.275.275.275.7t-.275.7L9.175 19.75q-.3.3-.712.3t-.713-.3"/></symbol><symbol id="hd-icon-material-symbols-highlighter-size-4" viewBox="0 0 24 24"><path fill="currentColor" d="m8.825 20.825l-5.65-5.65q-.3-.3-.3-.712t.3-.713L13.75 3.175q.3-.3.713-.3t.687.3l5.675 5.65q.3.3.3.713t-.3.712L10.25 20.825q-.3.3-.712.3t-.713-.3"/></symbol><symbol id="hd-icon-material-symbols-highlighter-size-5" viewBox="0 0 24 24"><path fill="currentColor" d="m10.25 22.25l-8.5-8.5q-.275-.275-.275-.7t.275-.7l10.6-10.6q.275-.275.688-.275t.712.3l8.5 8.475q.275.275.275.7t-.275.7l-10.6 10.6q-.275.275-.7.275t-.7-.275"/></symbol><symbol id="hd-icon-material-symbols-hiking" viewBox="0 0 24 24"><path fill="currentColor" d="m7 23l3.075-15.55q.15-.725.675-1.088T11.85 6t1.063.25t.787.75l1 1.6q.45.725 1.163 1.313t1.637.862V9H19v14h-1.5V12.85q-1.2-.275-2.225-.875T13.5 10.5l-.6 3l2.1 2V23h-2v-6l-2.1-2l-1.8 8zm.425-9.875l-2.125-.4q-.4-.075-.625-.413t-.15-.762l.75-3.925q.15-.8.85-1.263t1.5-.312l1.15.225zM13.5 5.5q-.825 0-1.412-.587T11.5 3.5t.588-1.412T13.5 1.5t1.413.588T15.5 3.5t-.587 1.413T13.5 5.5"/></symbol><symbol id="hd-icon-material-symbols-hiking-rounded" viewBox="0 0 24 24"><path fill="currentColor" d="m10.9 15l-1.625 7.2q-.075.35-.363.575T8.25 23q-.5 0-.8-.375t-.2-.85L10.075 7.45q.15-.725.675-1.088T11.85 6t1.063.25t.787.75l1 1.6q.45.725 1.163 1.312t1.637.863V9.75q0-.325.213-.537T18.25 9t.538.213t.212.537v12.5q0 .325-.213.538T18.25 23t-.537-.213t-.213-.537v-9.4q-1.2-.275-2.225-.875T13.5 10.5l-.6 3l1.8 1.7q.15.15.225.338t.075.387V22q0 .425-.288.713T14 23t-.712-.288T13 22v-5zm-4.45-2.05l-1.15-.225q-.4-.075-.625-.413t-.15-.762l.75-3.925q.15-.85.9-1.287T7.8 6.075q.425.075.638.413t.137.762l-.95 4.9q-.075.425-.412.65t-.763.15M13.5 5.5q-.825 0-1.412-.587T11.5 3.5t.588-1.412T13.5 1.5t1.413.588T15.5 3.5t-.587 1.413T13.5 5.5"/></symbol><symbol id="hd-icon-material-symbols-hiking-sharp" viewBox="0 0 24 24"><path fill="currentColor" d="m7 23l3.075-15.55q.15-.725.675-1.088T11.85 6t1.063.25t.787.75l1 1.6q.45.725 1.163 1.313t1.637.862V9H19v14h-1.5V12.85q-1.2-.275-2.225-.875T13.5 10.5l-.6 3l2.1 2V23h-2v-6l-2.1-2l-1.8 8zm.425-9.875l-3.1-.575L5.65 5.675l3.125.6zM13.5 5.5q-.825 0-1.412-.587T11.5 3.5t.588-1.412T13.5 1.5t1.413.588T15.5 3.5t-.587 1.413T13.5 5.5"/></symbol><symbol id="hd-icon-material-symbols-history" viewBox="0 0 24 24"><path fill="currentColor" d="M12 21q-3.45 0-6.012-2.287T3.05 13H5.1q.35 2.6 2.313 4.3T12 19q2.925 0 4.963-2.037T19 12t-2.037-4.962T12 5q-1.725 0-3.225.8T6.25 8H9v2H3V4h2v2.35q1.275-1.6 3.113-2.475T12 3q1.875 0 3.513.713t2.85 1.924t1.925 2.85T21 12t-.712 3.513t-1.925 2.85t-2.85 1.925T12 21m2.8-4.8L11 12.4V7h2v4.6l3.2 3.2z"/></symbol><symbol id="hd-icon-material-symbols-history-2" viewBox="0 0 24 24"><path fill="currentColor" d="M12 22q-3.875 0-6.725-2.575T2.05 13h2.025q.375 3.025 2.638 5.013T12 20q3.35 0 5.675-2.325T20 12t-2.325-5.675T12 4Q9.85 4 8.012 5.062T5.1 8H8v2H2.2q.725-3.5 3.475-5.75T12 2q2.075 0 3.9.788t3.175 2.137T21.213 8.1T22 12t-.788 3.9t-2.137 3.175t-3.175 2.138T12 22m2.8-5.8L11 12.4V7h2v4.6l3.2 3.2z"/></symbol><symbol id="hd-icon-material-symbols-history-2-rounded" viewBox="0 0 24 24"><path fill="currentColor" d="M12 22q-3.55 0-6.262-2.175t-3.488-5.55q-.1-.425.15-.763t.675-.387t.75.2t.45.675q.675 2.625 2.813 4.313T12 20q3.35 0 5.675-2.325T20 12t-2.325-5.675T12 4Q9.85 4 8.012 5.062T5.1 8H7q.425 0 .713.288T8 9t-.288.713T7 10H3.6q-.55 0-.875-.437t-.15-.938q1.05-2.95 3.625-4.788T12 2q2.075 0 3.9.788t3.175 2.137T21.213 8.1T22 12t-.788 3.9t-2.137 3.175t-3.175 2.138T12 22m1-10.4l2.5 2.5q.275.275.275.7t-.275.7t-.7.275t-.7-.275l-2.8-2.8q-.15-.15-.225-.337T11 11.975V8q0-.425.288-.712T12 7t.713.288T13 8z"/></symbol><symbol id="hd-icon-material-symbols-history-edu" viewBox="0 0 24 24"><path fill="currentColor" d="M8 20q-.825 0-1.412-.587T6 18v-3h3v-2.25q-.875-.05-1.662-.387T5.9 11.35v-1.1H4.75L1.5 7q.9-1.15 2.225-1.625T6.4 4.9q.675 0 1.313.1T9 5.375V4h12v13q0 1.25-.875 2.125T18 20zm3-5h6v2q0 .425.288.713T18 18t.713-.288T19 17V6h-8v.6l6 6V14h-1.4l-2.85-2.85l-.2.2q-.35.35-.737.625T11 12.4zM5.6 8.25h2.3v2.15q.3.2.625.275t.675.075q.575 0 1.038-.175t.912-.625l.2-.2l-1.4-1.4q-.725-.725-1.625-1.088T6.4 6.9q-.5 0-.95.075t-.9.225z"/></symbol><symbol id="hd-icon-material-symbols-history-edu-outline" viewBox="0 0 24 24"><path fill="currentColor" d="M8 20q-.825 0-1.412-.587T6 18v-3h3v-2.25q-.875-.05-1.662-.387T5.9 11.35v-1.1H4.75L1.5 7q.9-1.15 2.225-1.625T6.4 4.9q.675 0 1.313.1T9 5.375V4h12v13q0 1.25-.875 2.125T18 20zm3-5h6v2q0 .425.288.713T18 18t.713-.288T19 17V6h-8v.6l6 6V14h-1.4l-2.85-2.85l-.2.2q-.35.35-.737.625T11 12.4zM5.6 8.25h2.3v2.15q.3.2.625.275t.675.075q.575 0 1.038-.175t.912-.625l.2-.2l-1.4-1.4q-.725-.725-1.625-1.088T6.4 6.9q-.5 0-.95.075t-.9.225zM15 17H8v1h7.15q-.075-.225-.112-.475T15 17m-7 1v-1z"/></symbol><symbol id="hd-icon-material-symbols-history-edu-outline-rounded" viewBox="0 0 24 24"><path fill="currentColor" d="M8 20q-.825 0-1.412-.587T6 18v-2q0-.425.288-.712T7 15h2v-2.25q-.75-.05-1.487-.312t-1.288-.788q-.15-.15-.237-.337t-.088-.388v-.675h-.725q-.2 0-.387-.075T4.45 9.95L2.2 7.7q-.3-.3-.3-.7t.3-.7q.725-.725 1.95-1.062T6.4 4.9q.675 0 1.313.1T9 5.375q0-.575.4-.975t.975-.4H19q.825 0 1.413.588T21 6v11q0 1.25-.875 2.125T18 20zm3-5h5q.425 0 .713.288T17 16v1q0 .425.288.713T18 18t.713-.288T19 17V6h-8v.6l5.725 5.725q.225.225.275.513t-.075.562t-.35.437T16 14q-.2 0-.387-.088T15.3 13.7l-2.55-2.55l-.2.2q-.35.35-.737.625T11 12.4zM5.6 8.25h1.3q.425 0 .713.288t.287.712v1.15q.3.2.625.275t.675.075q.575 0 1.038-.175t.912-.625l.2-.2l-1.4-1.4q-.725-.725-1.625-1.088T6.4 6.9q-.5 0-.95.075t-.9.225zM15 17H8v1h7.15q-.075-.225-.112-.475T15 17m-7 1v-1z"/></symbol><symbol id="hd-icon-material-symbols-history-edu-rounded" viewBox="0 0 24 24"><path fill="currentColor" d="M8 20q-.825 0-1.412-.587T6 18v-2q0-.425.288-.712T7 15h2v-2.25q-.75-.05-1.487-.312t-1.288-.788q-.15-.15-.237-.337t-.088-.388v-.675h-.725q-.2 0-.387-.075T4.45 9.95L2.2 7.7q-.3-.3-.3-.7t.3-.7q.725-.725 1.95-1.062T6.4 4.9q.675 0 1.313.1T9 5.375q0-.575.4-.975t.975-.4H19q.825 0 1.413.588T21 6v11q0 1.25-.875 2.125T18 20zm3-5h5q.425 0 .713.288T17 16v1q0 .425.288.713T18 18t.713-.288T19 17V6h-8v.6l5.725 5.725q.225.225.275.513t-.075.562t-.35.437T16 14q-.2 0-.387-.088T15.3 13.7l-2.55-2.55l-.2.2q-.35.35-.737.625T11 12.4zM5.6 8.25h1.3q.425 0 .713.288t.287.712v1.15q.3.2.625.275t.675.075q.575 0 1.038-.175t.912-.625l.2-.2l-1.4-1.4q-.725-.725-1.625-1.088T6.4 6.9q-.5 0-.95.075t-.9.225z"/></symbol><symbol id="hd-icon-material-symbols-history-off" viewBox="0 0 24 24"><path fill="currentColor" d="m19.625 16.775l-1.45-1.45q.4-.725.613-1.575T19 12q0-2.925-2.037-4.962T12 5q-.875 0-1.713.213T8.7 5.85L7.225 4.375q1.075-.65 2.288-1.012T12 3q1.875 0 3.513.713t2.85 1.924t1.925 2.85T21 12q0 1.325-.363 2.525t-1.012 2.25M13 10.15l-2-2V7h2zm6.8 12.45l-3-3q-1.05.65-2.25 1.025T12 21q-3.45 0-6.012-2.287T3.05 13H5.1q.35 2.6 2.313 4.3T12 19q.925 0 1.763-.213t1.587-.637L7.2 10H3V5.8L1.4 4.2l1.4-1.4l18.4 18.4z"/></symbol><symbol id="hd-icon-material-symbols-history-off-rounded" viewBox="0 0 24 24"><path fill="currentColor" d="M12 5q-.625 0-1.362.15t-1.313.425q-.375.2-.775.025t-.6-.525q-.2-.375-.075-.737t.475-.563q.8-.4 1.788-.587T12 3q1.875 0 3.513.713t2.85 1.924t1.925 2.85T21 12q0 .9-.2 1.863t-.55 1.762q-.175.35-.562.488t-.738-.063t-.5-.6t.025-.775q.25-.575.387-1.3T19 12q0-2.925-2.038-4.962T12 5m0 2q.425 0 .713.288T13 8v.1q0 .425-.288.713T12 9.1t-.712-.288T11 8.1V8q0-.425.288-.712T12 7m0 14q-1.725 0-3.262-.612T6 18.7q-.975-.875-1.687-2.037T3.25 14.174q-.125-.4.138-.75t.687-.4t.75.2t.45.675q.275.975.838 1.863T7.425 17.3q.925.8 2.1 1.25T12 19q.925 0 1.763-.213t1.587-.637L7.2 10H4q-.425 0-.712-.288T3 9V5.8l-.9-.9q-.275-.275-.275-.7t.275-.7t.7-.275t.7.275l17 17q.275.275.275.7t-.275.7t-.7.275t-.7-.275l-2.3-2.3q-1.05.65-2.25 1.025T12 21"/></symbol><symbol id="hd-icon-material-symbols-history-rounded" viewBox="0 0 24 24"><path fill="currentColor" d="M12 21q-3.15 0-5.575-1.912T3.275 14.2q-.1-.375.15-.687t.675-.363q.4-.05.725.15t.45.6q.6 2.25 2.475 3.675T12 19q2.925 0 4.963-2.037T19 12t-2.037-4.962T12 5q-1.725 0-3.225.8T6.25 8H8q.425 0 .713.288T9 9t-.288.713T8 10H4q-.425 0-.712-.288T3 9V5q0-.425.288-.712T4 4t.713.288T5 5v1.35q1.275-1.6 3.113-2.475T12 3q1.875 0 3.513.713t2.85 1.924t1.925 2.85T21 12t-.712 3.513t-1.925 2.85t-2.85 1.925T12 21m1-9.4l2.5 2.5q.275.275.275.7t-.275.7t-.7.275t-.7-.275l-2.8-2.8q-.15-.15-.225-.337T11 11.975V8q0-.425.288-.712T12 7t.713.288T13 8z"/></symbol><symbol id="hd-icon-material-symbols-history-toggle-off" viewBox="0 0 24 24"><path fill="currentColor" d="M15.3 16.7L11 12.4V7h2v4.6l3.7 3.7zm-12.45-.625q-.325-.725-.525-1.5T2.05 13h2.025q.075.525.212 1.05t.338 1.025zM2.05 11q.075-.8.275-1.588t.55-1.512l1.75 1q-.2.5-.337 1.025T4.074 11zm4.125 9.15q-.675-.5-1.25-1.088T3.85 17.8l1.75-1q.35.45.738.838t.837.737zm-.55-12.975l-1.775-1q.5-.675 1.075-1.25t1.25-1.075l1 1.775q-.425.35-.812.737t-.738.813M11 21.95q-.8-.075-1.588-.275t-1.512-.55l1-1.75q.5.2 1.025.338t1.075.212zM8.9 4.625l-1-1.75q.725-.35 1.513-.55T11 2.05v2.025q-.55.075-1.075.213T8.9 4.625M13 21.95v-2.025q.55-.075 1.075-.213t1.025-.337l1 1.75q-.725.35-1.513.55T13 21.95m2.1-17.325q-.5-.2-1.025-.337T13 4.075V2.05q.8.075 1.588.275t1.512.55zm2.725 15.525l-1-1.775q.425-.35.813-.737t.737-.813l1.775 1q-.5.675-1.075 1.263t-1.25 1.062m.55-12.975q-.35-.425-.737-.812t-.813-.738l1-1.775q.675.475 1.25 1.05t1.05 1.25zM19.925 11q-.075-.55-.213-1.075T19.376 8.9l1.75-1.025q.325.75.538 1.538T21.95 11zm1.2 5.1l-1.75-1q.2-.5.338-1.025T19.925 13h2.025q-.075.8-.275 1.588t-.55 1.512"/></symbol><symbol id="hd-icon-material-symbols-history-toggle-off-rounded" viewBox="0 0 24 24"><path fill="currentColor" d="M5.625 6.65q-.425 0-.712-.3t-.288-.725t.288-.712t.712-.288t.725.288t.3.712t-.3.725t-.725.3m4.05-2.325q-.425 0-.725-.3t-.3-.725t.3-.713t.725-.287t.713.288t.287.712t-.288.725t-.712.3m4.65 0q-.425 0-.712-.3t-.288-.725t.288-.712t.712-.288t.725.288t.3.712t-.3.725t-.725.3m4.05 2.325q-.425 0-.725-.3t-.3-.725t.3-.725t.725-.3t.713.3t.287.725t-.288.725t-.712.3m2.325 4.025q-.425 0-.725-.288t-.3-.712t.3-.712t.725-.288t.713.288t.287.712t-.287.713t-.713.287m0 4.675q-.425 0-.725-.3t-.3-.725t.3-.712t.725-.288t.713.288t.287.712t-.287.725t-.713.3m-2.325 4.025q-.425 0-.725-.288t-.3-.712t.3-.725t.725-.3t.713.3t.287.725t-.287.713t-.713.287m-4.05 2.325q-.425 0-.712-.288t-.288-.712t.288-.725t.712-.3t.725.3t.3.725t-.3.713t-.725.287m-4.65 0q-.425 0-.725-.287t-.3-.713t.3-.725t.725-.3t.713.3t.287.725t-.288.713t-.712.287m-4.05-2.35q-.425 0-.712-.288t-.288-.712t.288-.712t.712-.288t.713.288t.287.712t-.288.713t-.712.287M3.3 15.325q-.425 0-.712-.3T2.3 14.3t.288-.712t.712-.288t.725.288t.3.712t-.3.725t-.725.3m0-4.65q-.425 0-.712-.288T2.3 9.676t.288-.725t.712-.3t.725.3t.3.725t-.3.713t-.725.287m9.7.925l3 3q.275.275.275.7T16 16t-.7.275t-.7-.275l-3.3-3.3q-.15-.15-.225-.337T11 11.975V8q0-.425.288-.712T12 7t.713.288T13 8z"/></symbol><symbol id="hd-icon-material-symbols-hive" viewBox="0 0 24 24"><path fill="currentColor" d="m16.275 11.5l-1.7-3l1.7-3h3.35l1.7 3l-1.7 3zm-5.95 3.5l-1.7-3l1.7-3h3.35l1.7 3l-1.7 3zm0-7l-1.7-3l1.7-3h3.35l1.7 3l-1.7 3zm-5.95 3.5l-1.7-3l1.7-3h3.35l1.625 3l-1.625 3zm0 7l-1.7-3l1.7-3h3.35l1.625 3l-1.625 3zm6.05 3.5l-1.8-3l1.7-3h3.35l1.7 3l-1.7 3zm5.85-3.5l-1.7-3l1.7-3h3.35l1.7 3l-1.7 3z"/></symbol><symbol id="hd-icon-material-symbols-hive-outline" viewBox="0 0 24 24"><path fill="currentColor" d="m9.75 22l-1.7-3h-3.3L2.5 15l1.7-3l-1.7-3l2.25-4h3.3l1.7-3h4.5l1.7 3h3.3l2.25 4l-1.7 3l1.7 3l-2.25 4h-3.3l-1.7 3zm6.2-11h2.15l1.1-2l-1.1-2h-2.15l-1.125 2zm-5 3h2.1l1.125-2l-1.125-2h-2.1l-1.125 2zm0-6h2.1l1.15-2.025L13.075 4h-2.15L9.8 5.975zm-5.025 3H8.05l1.125-2L8.05 7H5.925L4.8 9zm0 6H8.05l1.125-2l-1.125-2H5.9l-1.1 2zm5 3h2.15l1.125-1.975L13.05 16h-2.1L9.8 18.025zm5.025-3h2.125l1.125-2l-1.125-2H15.95l-1.125 2z"/></symbol><symbol id="hd-icon-material-symbols-hive-outline-rounded" viewBox="0 0 24 24"><path fill="currentColor" d="M8.05 19H5.925q-.55 0-1.012-.275t-.738-.75l-1.125-2q-.275-.45-.275-.975t.275-.975L4.2 12L3.05 9.975q-.275-.45-.275-.975t.275-.975l1.125-2q.275-.475.738-.75T5.925 5H8.05l1.125-1.975q.275-.475.738-.75T10.925 2h2.15q.55 0 1.013.275t.737.75L15.95 5h2.125q.55 0 1.013.275t.737.75l1.125 2q.275.45.275.975t-.275.975L19.8 12l1.15 2.025q.275.45.275.975t-.275.975l-1.125 2q-.275.475-.737.75T18.075 19H15.95l-1.125 1.975q-.275.475-.737.75T13.074 22h-2.15q-.55 0-1.012-.275t-.738-.75zm7.9-8h2.15l1.1-2l-1.1-2h-2.15l-1.125 2zm-5 3h2.1l1.125-2l-1.125-2h-2.1l-1.125 2zm0-6h2.1l1.15-2.025L13.075 4h-2.15L9.8 5.975zM9.175 9L8.05 7H5.925L4.8 9l1.125 2H8.05zm0 6L8.05 13H5.9l-1.1 2l1.125 2H8.05zm1.775 1L9.8 18.025L10.925 20h2.15l1.125-1.975L13.05 16zm5 1h2.125l1.125-2l-1.125-2H15.95l-1.125 2z"/></symbol><symbol id="hd-icon-material-symbols-hive-rounded" viewBox="0 0 24 24"><path fill="currentColor" d="M16.275 11.5h3.35l1.15-2.025q.275-.45.275-.975t-.275-.975l-.575-1q-.275-.475-.737-.75T18.45 5.5h-2.175l-1.7 3zm-5.95 3.5h3.35l1.7-3l-1.7-3h-3.35l-1.7 3zm0-7h3.35l1.7-3l-1.125-1.975q-.275-.475-.737-.75T12.5 2h-1q-.55 0-1.012.275t-.738.75L8.625 5zm-.975.5l-1.625-3H5.55q-.55 0-1.012.275t-.738.75l-.575 1q-.275.45-.275.975t.275.975l1.15 2.025h3.35zm0 7l-1.625-3h-3.35l-1.15 2.025q-.275.45-.275.975t.275.975l.575 1q.275.475.738.75t1.012.275h2.175zm.975.5l-1.7 3l1.225 2.025q.275.45.725.713t.975.262h.95q.55 0 1.012-.275t.738-.75L15.375 19l-1.7-3zm5.95 2.5h2.175q.55 0 1.013-.275t.737-.75l.575-1q.275-.45.275-.975t-.275-.975l-1.15-2.025h-3.35l-1.7 3z"/></symbol><symbol id="hd-icon-material-symbols-hls" viewBox="0 0 24 24"><path fill="currentColor" d="M3 15V9h1.5v2h2V9H8v6H6.5v-2.5h-2V15zm7 0V9h1.5v4.5H14V15zm6.5 0q-.425 0-.712-.288T15.5 14v-1H17v.5h2v-1h-2.5q-.425 0-.712-.288T15.5 11.5V10q0-.425.288-.712T16.5 9h3q.425 0 .713.288T20.5 10v1H19v-.5h-2v1h2.5q.425 0 .713.288t.287.712V14q0 .425-.288.713T19.5 15z"/></symbol><symbol id="hd-icon-material-symbols-hls-off" viewBox="0 0 24 24"><path fill="currentColor" d="m17.825 15l-2-2H17v.5h2v-1h-2.5q-.425 0-.712-.288T15.5 11.5V10q0-.425.288-.712T16.5 9h3q.425 0 .713.288T20.5 10v1H19v-.5h-2v1h2.5q.425 0 .713.288t.287.712V14q0 .425-.288.713T19.5 15zM3 15V9h1.5v2h2V9H8v6H6.5v-2.5h-2V15zm16.775 7.6L1.4 4.225L2.8 2.8l18.375 18.4zM10 15v-3.575l1.5 1.5v.575h.6l1.5 1.5z"/></symbol><symbol id="hd-icon-material-symbols-hls-off-rounded" viewBox="0 0 24 24"><path fill="currentColor" d="M19.5 9q.425 0 .713.288T20.5 10v.5q0 .2-.15.35T20 11h-.5q-.2 0-.35-.15T19 10.5h-2v1h2.5q.425 0 .713.288t.287.712V14q0 .425-.288.713T19.5 15h-1.675l-1.5-1.5H19v-1h-2.5q-.425 0-.712-.288T15.5 11.5V10q0-.425.288-.712T16.5 9zM3 14.25v-4.5q0-.325.213-.537T3.75 9t.538.213t.212.537V11h2V9.75q0-.325.213-.537T7.25 9t.538.213T8 9.75v4.5q0 .325-.213.538T7.25 15t-.537-.213t-.213-.537V12.5h-2v1.75q0 .325-.213.538T3.75 15t-.537-.213T3 14.25m16.075 7.65L2.1 4.925q-.275-.275-.275-.687t.275-.713q.3-.3.713-.3t.712.3L20.475 20.5q.275.275.287.688t-.287.712q-.275.275-.7.275t-.7-.275M10 14.25v-2.825l1.5 1.5v.575h.6l1.5 1.5h-2.85q-.325 0-.537-.213T10 14.25"/></symbol><symbol id="hd-icon-material-symbols-hls-off-sharp" viewBox="0 0 24 24"><path fill="currentColor" d="m17.825 15l-2-2H17v.5h2v-1h-3.5V9h5v2H19v-.5h-2v1h3.5V15zM3 15V9h1.5v2h2V9H8v6H6.5v-2.5h-2V15zm16.775 7.6L1.4 4.225L2.8 2.8l18.375 18.4zM10 15v-3.575l1.5 1.5v.575h.6l1.5 1.5z"/></symbol><symbol id="hd-icon-material-symbols-hls-rounded" viewBox="0 0 24 24"><path fill="currentColor" d="M3 14.25v-4.5q0-.325.213-.537T3.75 9t.538.213t.212.537V11h2V9.75q0-.325.213-.537T7.25 9t.538.213T8 9.75v4.5q0 .325-.213.538T7.25 15t-.537-.213t-.213-.537V12.5h-2v1.75q0 .325-.213.538T3.75 15t-.537-.213T3 14.25m7 0v-4.5q0-.325.213-.537T10.75 9t.538.213t.212.537v3.75h1.75q.325 0 .538.213t.212.537t-.213.538t-.537.212h-2.5q-.325 0-.537-.213T10 14.25m6.5.75q-.425 0-.712-.288T15.5 14v-.5q0-.2.15-.35T16 13h.5q.2 0 .35.15t.15.35h2v-1h-2.5q-.425 0-.712-.288T15.5 11.5V10q0-.425.288-.712T16.5 9h3q.425 0 .713.288T20.5 10v.5q0 .2-.15.35T20 11h-.5q-.2 0-.35-.15T19 10.5h-2v1h2.5q.425 0 .713.288t.287.712V14q0 .425-.288.713T19.5 15z"/></symbol><symbol id="hd-icon-material-symbols-hls-sharp" viewBox="0 0 24 24"><path fill="currentColor" d="M3 15V9h1.5v2h2V9H8v6H6.5v-2.5h-2V15zm7 0V9h1.5v4.5H14V15zm5.5 0v-2H17v.5h2v-1h-3.5V9h5v2H19v-.5h-2v1h3.5V15z"/></symbol><symbol id="hd-icon-material-symbols-holiday-village" viewBox="0 0 24 24"><path fill="currentColor" d="M2 20V10l6-6l6 6v10H9v-5H7v5zm5-7h2v-2H7zm9 7V9.175L10.825 4h2.825L18 8.35V20zm4 0V7.525L16.475 4H19.3L22 6.7V20z"/></symbol><symbol id="hd-icon-material-symbols-holiday-village-outline" viewBox="0 0 24 24"><path fill="currentColor" d="M2 20V10l6-6l6 6v10zm2-2h3v-3h2v3h3v-7.175l-4-4l-4 4zm3-5v-2h2v2zm9 7V9.175L10.825 4h2.825L18 8.35V20zm4 0V7.525L16.475 4H19.3L22 6.7V20zM4 18h8z"/></symbol><symbol id="hd-icon-material-symbols-holiday-village-outline-rounded" viewBox="0 0 24 24"><path fill="currentColor" d="M2 18v-7.175q0-.4.15-.762t.425-.638l4-4q.3-.3.675-.45t.75-.15t.75.15t.675.45l4 4q.275.275.425.638t.15.762V18q0 .825-.587 1.413T12 20H4q-.825 0-1.412-.587T2 18m2 0h3v-2q0-.425.288-.712T8 15t.713.288T9 16v2h3v-7.175l-4-4l-4 4zm12 1V9.175L12.525 5.7q-.475-.475-.225-1.088T13.225 4q.2 0 .4.088t.325.212l3.475 3.475q.275.275.425.638t.15.762V19q0 .425-.288.713T17 20t-.712-.288T16 19m4 0V7.525L18.175 5.7q-.475-.475-.225-1.088T18.875 4q.2 0 .4.088t.325.212l1.825 1.825q.275.275.425.638t.15.762V19q0 .425-.288.713T21 20t-.712-.288T20 19M4 18h8zm4-5q-.425 0-.712-.288T7 12t.288-.712T8 11t.713.288T9 12t-.288.713T8 13"/></symbol><symbol id="hd-icon-material-symbols-holiday-village-rounded" viewBox="0 0 24 24"><path fill="currentColor" d="M4 20q-.825 0-1.412-.587T2 18v-7.175q0-.4.15-.762t.425-.638l4-4q.3-.3.675-.45t.75-.15t.75.15t.675.45l4 4q.275.275.425.638t.15.762V18q0 .825-.587 1.413T12 20H9.5q-.2 0-.35-.15T9 19.5V16q0-.425-.288-.712T8 15t-.712.288T7 16v3.5q0 .2-.15.35T6.5 20zm12-1V9.175L12.525 5.7q-.475-.475-.225-1.088T13.225 4q.2 0 .4.088t.325.212l3.475 3.475q.275.275.425.638t.15.762V19q0 .425-.288.713T17 20t-.712-.288T16 19m4 0V7.525L18.175 5.7q-.475-.475-.225-1.088T18.875 4q.2 0 .4.088t.325.212l1.825 1.825q.275.275.425.638t.15.762V19q0 .425-.288.713T21 20t-.712-.288T20 19M8 13q.425 0 .713-.288T9 12t-.288-.712T8 11t-.712.288T7 12t.288.713T8 13"/></symbol><symbol id="hd-icon-material-symbols-home" viewBox="0 0 24 24"><path fill="currentColor" d="M4 21V9l8-6l8 6v12h-6v-7h-4v7z"/></symbol><symbol id="hd-icon-material-symbols-home-and-garden" viewBox="0 0 24 24"><path fill="currentColor" d="M4 20v-9.375L2.2 12l-1.175-1.575l11-8.425L23 10.425l-.4.525q-1.125-.775-2.475-.925t-2.625.35q-1.5-.575-3.088-.262t-2.787 1.512t-1.513 2.788t.263 3.087q-.25.6-.325 1.225T10.025 20zm13.5 2.375q-1.05.725-2.312.613t-2.163-1.013t-1.012-2.162t.612-2.313q-.725-1.05-.612-2.312t1.012-2.163t2.163-1.012t2.312.612q1.05-.725 2.313-.612t2.162 1.012t1.013 2.163t-.613 2.312q.725 1.05.613 2.313t-1.013 2.162t-2.162 1.013t-2.313-.613m0-3.625q.525 0 .888-.363t.362-.887t-.363-.888t-.887-.362t-.888.363t-.362.887t.363.888t.887.362"/></symbol><symbol id="hd-icon-material-symbols-home-and-garden-outline" viewBox="0 0 24 24"><path fill="currentColor" d="M4 20v-9.375L2.2 12l-1.175-1.575L12 2l11 8.4l-1.2 1.6L12 4.5L6 9.1V18h4v2zm13.5 2.375q-1.05.725-2.312.613t-2.163-1.013t-1.012-2.162t.612-2.313q-.725-1.05-.612-2.312t1.012-2.163t2.163-1.012t2.312.612q1.05-.725 2.313-.612t2.162 1.012t1.013 2.163t-.613 2.312q.725 1.05.613 2.313t-1.013 2.162t-2.162 1.013t-2.313-.613m0-2.45l1.15.8q.45.325.975.275t.925-.45t.45-.925t-.275-.975l-.8-1.15l.8-1.15q.325-.45.275-.975t-.45-.925t-.925-.45t-.975.275l-1.15.8l-1.15-.8q-.45-.325-.975-.275t-.925.45t-.45.925t.275.975l.8 1.15l-.8 1.15q-.325.45-.275.975t.45.925t.925.45t.975-.275zm0-1.175q.525 0 .888-.363t.362-.887t-.363-.888t-.887-.362t-.888.363t-.362.887t.363.888t.887.362m0-1.25"/></symbol><symbol id="hd-icon-material-symbols-home-and-garden-outline-rounded" viewBox="0 0 24 24"><path fill="currentColor" d="M12 2.525q.325 0 .638.1t.587.3l9 6.875q.325.25.375.65t-.2.75t-.65.4t-.75-.225L12 4.5L6 9.1V18h3q.425 0 .713.288T10 19t-.288.713T9 20H6q-.825 0-1.412-.587T4 18v-7.375L3 11.4q-.325.25-.737.2t-.663-.4q-.25-.325-.187-.725t.387-.65l8.975-6.9q.275-.2.588-.3t.637-.1m5.5 19.85q-1.05.725-2.312.613t-2.163-1.013t-1.012-2.162t.612-2.313q-.725-1.05-.612-2.312t1.012-2.163t2.163-1.012t2.312.612q1.05-.725 2.313-.612t2.162 1.012t1.013 2.163t-.613 2.312q.725 1.05.613 2.313t-1.013 2.162t-2.162 1.013t-2.313-.613m0-2.45l1.15.8q.45.325.975.275t.925-.45t.45-.925t-.275-.975l-.8-1.15l.8-1.15q.325-.45.275-.975t-.45-.925t-.925-.45t-.975.275l-1.15.8l-1.15-.8q-.45-.325-.975-.275t-.925.45t-.45.925t.275.975l.8 1.15l-.8 1.15q-.325.45-.275.975t.45.925t.925.45t.975-.275zm0-1.175q.525 0 .888-.363t.362-.887t-.363-.888t-.887-.362t-.888.363t-.362.887t.363.888t.887.362m0-1.25"/></symbol><symbol id="hd-icon-material-symbols-home-and-garden-rounded" viewBox="0 0 24 24"><path fill="currentColor" d="M6 20q-.825 0-1.412-.587T4 18v-7.375L3 11.4q-.325.25-.737.2t-.663-.4q-.25-.325-.187-.725t.387-.65l9-6.9q.275-.2.588-.3t.637-.1t.625.1t.575.3L20.7 8.65q.475.35.238.9t-.813.475q-.65-.075-1.312.013t-1.313.337q-1.5-.575-3.088-.262t-2.787 1.512t-1.513 2.788t.263 3.087q-.15.4-.25.8t-.125.825q-.025.35-.262.613T9.15 20zm11.5 2.375q-1.05.725-2.312.613t-2.163-1.013t-1.012-2.162t.612-2.313q-.725-1.05-.612-2.312t1.012-2.163t2.163-1.012t2.312.612q1.05-.725 2.313-.612t2.162 1.012t1.013 2.163t-.613 2.312q.725 1.05.613 2.313t-1.013 2.162t-2.162 1.013t-2.313-.613m0-3.625q.525 0 .888-.363t.362-.887t-.363-.888t-.887-.362t-.888.363t-.362.887t.363.888t.887.362"/></symbol><symbol id="hd-icon-material-symbols-home-app-logo" viewBox="0 0 24 24"><path fill="currentColor" d="M6 21q-1.25 0-2.125-.875T3 18v-6q0-.6.225-1.15t.65-.975l6-6q.425-.45.988-.663T12 3t1.125.213t1 .662l.75.75L7 12.5V17h10v-4.5l-3.6-3.6l2.875-2.85l3.85 3.825q.425.425.65.975T21 12v6q0 1.25-.875 2.125T18 21z"/></symbol><symbol id="hd-icon-material-symbols-home-app-logo-outline" viewBox="0 0 24 24"><path fill="currentColor" d="M6 21q-1.25 0-2.125-.875T3 18v-6q0-.6.225-1.15t.65-.975l6-6q.425-.45.988-.663T12 3t1.125.213t1 .662l6 6q.425.425.65.975T21 12v6q0 1.25-.875 2.125T18 21zm0-2h12q.425 0 .713-.288T19 18v-6q0-.2-.075-.375T18.7 11.3l-3.825-3.85L13.4 8.9l3.6 3.6V17H7v-4.5l6.45-6.45l-.75-.75q-.2-.2-.387-.25T12 5t-.312.05t-.388.25l-6 6q-.15.15-.225.325T5 12v6q0 .425.288.713T6 19m3-4h6v-1.675l-3-3l-3 3z"/></symbol><symbol id="hd-icon-material-symbols-home-health" viewBox="0 0 24 24"><path fill="currentColor" d="M10.5 17h3v-2.5H16v-3h-2.5V9h-3v2.5H8v3h2.5zM4 21V9l8-6l8 6v12z"/></symbol><symbol id="hd-icon-material-symbols-home-health-outline" viewBox="0 0 24 24"><path fill="currentColor" d="M10.5 17h3v-2.5H16v-3h-2.5V9h-3v2.5H8v3h2.5zM4 21V9l8-6l8 6v12zm2-2h12v-9l-6-4.5L6 10zm6-6.75"/></symbol><symbol id="hd-icon-material-symbols-home-health-outline-rounded" viewBox="0 0 24 24"><path fill="currentColor" d="M10.5 14.5v1q0 .625.438 1.063T12 17t1.063-.437t.437-1.063v-1h1q.625 0 1.063-.437T16 13t-.437-1.062T14.5 11.5h-1v-1q0-.625-.437-1.062T12 9t-1.062.438T10.5 10.5v1h-1q-.625 0-1.062.438T8 13t.438 1.063T9.5 14.5zM6 21q-.825 0-1.412-.587T4 19v-9q0-.475.213-.9t.587-.7l6-4.5q.525-.4 1.2-.4t1.2.4l6 4.5q.375.275.588.7T20 10v9q0 .825-.588 1.413T18 21zm0-2h12v-9l-6-4.5L6 10zm6-6.75"/></symbol><symbol id="hd-icon-material-symbols-home-health-rounded" viewBox="0 0 24 24"><path fill="currentColor" d="M10.5 14.5v1q0 .625.438 1.063T12 17t1.063-.437t.437-1.063v-1h1q.625 0 1.063-.437T16 13t-.437-1.062T14.5 11.5h-1v-1q0-.625-.437-1.062T12 9t-1.062.438T10.5 10.5v1h-1q-.625 0-1.062.438T8 13t.438 1.063T9.5 14.5zM6 21q-.825 0-1.412-.587T4 19v-9q0-.475.213-.9t.587-.7l6-4.5q.525-.4 1.2-.4t1.2.4l6 4.5q.375.275.588.7T20 10v9q0 .825-.588 1.413T18 21z"/></symbol><symbol id="hd-icon-material-symbols-home-improvement-and-tools" viewBox="0 0 24 24"><path fill="currentColor" d="M6 2h12l-3 4.2V10H9V6.2zm3 10h6v2H9zm0 4h6v3l-3 3l-3-3z"/></symbol><symbol id="hd-icon-material-symbols-home-improvement-and-tools-outline" viewBox="0 0 24 24"><path fill="currentColor" d="M6 2h12l-3 4.2V19l-3 3l-3-3V6.2zm5 8h2V5.6L14 4h-4l1 1.6zm2 2h-2v2h2zm0 6v-2h-2v2l1 1zm-1-2"/></symbol><symbol id="hd-icon-material-symbols-home-improvement-and-tools-outline-rounded" viewBox="0 0 24 24"><path fill="currentColor" d="M12 21.575q-.2 0-.375-.062T11.3 21.3l-1.725-1.725q-.275-.275-.425-.637T9 18.175V6.2L7.125 3.575q-.35-.5-.075-1.038T7.95 2h8.1q.625 0 .9.538t-.075 1.037L15 6.2v11.975q0 .4-.15.763t-.425.637L12.7 21.3q-.15.15-.325.213t-.375.062M11 10h2V5.6L14 4h-4l1 1.6zm2 2h-2v2h2zm0 6v-2h-2v2l1 1zm-1-2"/></symbol><symbol id="hd-icon-material-symbols-home-improvement-and-tools-rounded" viewBox="0 0 24 24"><path fill="currentColor" d="M7.95 2h8.1q.625 0 .9.538t-.075 1.037L15 6.2V10H9V6.2L7.125 3.575q-.35-.5-.075-1.037T7.95 2M9 12h6v2H9zm0 4h6v2.175q0 .4-.15.763t-.425.637L12.7 21.3q-.15.15-.325.213t-.375.062t-.375-.062t-.325-.213l-1.725-1.725q-.275-.275-.425-.637T9 18.175z"/></symbol><symbol id="hd-icon-material-symbols-home-iot-device" viewBox="0 0 24 24"><path fill="currentColor" d="M5.025 10h1V6.5q0-.225-.137-.363T5.525 6t-.363.138t-.137.362zm.5 10q-1.875 0-3.187-1.3t-1.313-3.2q0-1.2.55-2.15t1.45-1.55V6.5q0-1.05.725-1.775T5.525 4t1.775.725t.725 1.775v5.3q.9.6 1.45 1.55t.55 2.15q0 1.875-1.312 3.188T5.525 20m8.175-5q-1.2-.825-1.95-2.125T11 10q0-2.5 1.75-4.25T17 4t4.25 1.75T23 10q0 1.575-.75 2.875T20.3 15zm3.3 5q-.6 0-1.05-.45t-.45-1.05h3q0 .6-.45 1.05T17 20m-3-2v-2h6v2z"/></symbol><symbol id="hd-icon-material-symbols-home-iot-device-outline" viewBox="0 0 24 24"><path fill="currentColor" d="M5.525 18q1.05 0 1.775-.725t.725-1.775q0-.6-.275-1.175t-.825-.925l-.9-.6V6.5q0-.225-.137-.363T5.525 6t-.363.138t-.137.362v6.3l-.9.6q-.55.375-.825.925T3.025 15.5q0 1.05.725 1.775T5.525 18m0 2q-1.875 0-3.187-1.3t-1.313-3.2q0-1.2.55-2.15t1.45-1.55V6.5q0-1.05.725-1.775T5.525 4t1.775.725t.725 1.775v5.3q.9.6 1.45 1.55t.55 2.15q0 1.875-1.312 3.188T5.525 20m8.175-5q-1.2-.825-1.95-2.125T11 10q0-2.5 1.75-4.25T17 4t4.25 1.75T23 10q0 1.575-.75 2.875T20.3 15zm.7-2h5.3q.675-.6.988-1.35T21 10q0-1.65-1.175-2.825T17 6t-2.825 1.175T13 10q0 .9.363 1.65T14.4 13m2.6 7q-.6 0-1.05-.45t-.45-1.05h3q0 .6-.45 1.05T17 20m-3-2v-2h6v2zm3-8.5"/></symbol><symbol id="hd-icon-material-symbols-home-iot-device-outline-rounded" viewBox="0 0 24 24"><path fill="currentColor" d="M5.525 18q1.05 0 1.775-.725t.725-1.775q0-.6-.275-1.175t-.825-.925l-.9-.6V6.5q0-.225-.137-.363T5.525 6t-.363.138t-.137.362v6.3l-.9.6q-.55.375-.825.925T3.025 15.5q0 1.05.725 1.775T5.525 18m0 2q-1.875 0-3.187-1.3t-1.313-3.2q0-1.2.55-2.15t1.45-1.55V6.5q0-1.05.725-1.775T5.525 4t1.775.725t.725 1.775v5.3q.9.6 1.45 1.55t.55 2.15q0 1.875-1.312 3.188T5.525 20m8.175-5q-1.2-.825-1.95-2.125T11 10q0-2.5 1.75-4.25T17 4t4.25 1.75T23 10q0 1.575-.75 2.875T20.3 15zm.7-2h5.3q.675-.6.988-1.35T21 10q0-1.65-1.175-2.825T17 6t-2.825 1.175T13 10q0 .9.363 1.65T14.4 13m2.6 7q-.6 0-1.05-.45t-.45-1.05h3q0 .6-.45 1.05T17 20m-2-2q-.425 0-.712-.288T14 17t.288-.712T15 16h4q.425 0 .713.288T20 17t-.288.713T19 18zm2-8.5"/></symbol><symbol id="hd-icon-material-symbols-home-iot-device-rounded" viewBox="0 0 24 24"><path fill="currentColor" d="M5.025 10h1V6.5q0-.225-.137-.363T5.525 6t-.363.138t-.137.362zm.5 10q-1.875 0-3.187-1.3t-1.313-3.2q0-1.2.55-2.15t1.45-1.55V6.5q0-1.05.725-1.775T5.525 4t1.775.725t.725 1.775v5.3q.9.6 1.45 1.55t.55 2.15q0 1.875-1.312 3.188T5.525 20m8.175-5q-1.2-.825-1.95-2.125T11 10q0-2.5 1.75-4.25T17 4t4.25 1.75T23 10q0 1.575-.75 2.875T20.3 15zm3.3 5q-.6 0-1.05-.45t-.45-1.05h3q0 .6-.45 1.05T17 20m-2-2q-.425 0-.712-.288T14 17t.288-.712T15 16h4q.425 0 .713.288T20 17t-.288.713T19 18z"/></symbol><symbol id="hd-icon-material-symbols-home-max" viewBox="0 0 24 24"><path fill="currentColor" d="M7 20v-1H5q-1.65 0-2.825-1.175T1 15V9q0-1.65 1.175-2.825T5 5h14q1.65 0 2.825 1.175T23 9v6q0 1.65-1.175 2.825T19 19h-2v1z"/></symbol><symbol id="hd-icon-material-symbols-home-max-dots" viewBox="0 0 24 24"><path fill="currentColor" d="M7 20v-1H5q-1.65 0-2.825-1.175T1 15V9q0-1.65 1.175-2.825T5 5h14q1.65 0 2.825 1.175T23 9v6q0 1.65-1.175 2.825T19 19h-2v1zm3.5-7q.425 0 .713-.288T11.5 12t-.288-.712T10.5 11t-.712.288T9.5 12t.288.713t.712.287m-3 0q.425 0 .713-.288T8.5 12t-.288-.712T7.5 11t-.712.288T6.5 12t.288.713T7.5 13m6 0q.425 0 .713-.288T14.5 12t-.288-.712T13.5 11t-.712.288T12.5 12t.288.713t.712.287m3 0q.425 0 .713-.288T17.5 12t-.288-.712T16.5 11t-.712.288T15.5 12t.288.713t.712.287"/></symbol><symbol id="hd-icon-material-symbols-home-max-dots-outline" viewBox="0 0 24 24"><path fill="currentColor" d="M5 17h14q.825 0 1.413-.587T21 15V9q0-.825-.587-1.412T19 7H5q-.825 0-1.412.588T3 9v6q0 .825.588 1.413T5 17m2 3v-1H5q-1.65 0-2.825-1.175T1 15V9q0-1.65 1.175-2.825T5 5h14q1.65 0 2.825 1.175T23 9v6q0 1.65-1.175 2.825T19 19h-2v1zm3.5-7q.425 0 .713-.288T11.5 12t-.288-.712T10.5 11t-.712.288T9.5 12t.288.713t.712.287m-3 0q.425 0 .713-.288T8.5 12t-.288-.712T7.5 11t-.712.288T6.5 12t.288.713T7.5 13m6 0q.425 0 .713-.288T14.5 12t-.288-.712T13.5 11t-.712.288T12.5 12t.288.713t.712.287m3 0q.425 0 .713-.288T17.5 12t-.288-.712T16.5 11t-.712.288T15.5 12t.288.713t.712.287M12 12"/></symbol><symbol id="hd-icon-material-symbols-home-max-dots-outline-rounded" viewBox="0 0 24 24"><path fill="currentColor" d="M10.5 13q.425 0 .713-.288T11.5 12t-.288-.712T10.5 11t-.712.288T9.5 12t.288.713t.712.287m-3 0q.425 0 .713-.288T8.5 12t-.288-.712T7.5 11t-.712.288T6.5 12t.288.713T7.5 13m6 0q.425 0 .713-.288T14.5 12t-.288-.712T13.5 11t-.712.288T12.5 12t.288.713t.712.287m3 0q.425 0 .713-.288T17.5 12t-.288-.712T16.5 11t-.712.288T15.5 12t.288.713t.712.287M5 17h14q.825 0 1.413-.587T21 15V9q0-.825-.587-1.412T19 7H5q-.825 0-1.412.588T3 9v6q0 .825.588 1.413T5 17m2 2H5q-1.65 0-2.825-1.175T1 15V9q0-1.65 1.175-2.825T5 5h14q1.65 0 2.825 1.175T23 9v6q0 1.65-1.175 2.825T19 19h-2q0 .425-.288.713T16 20H8q-.425 0-.712-.288T7 19m5-7"/></symbol><symbol id="hd-icon-material-symbols-home-max-dots-rounded" viewBox="0 0 24 24"><path fill="currentColor" d="M10.5 13q.425 0 .713-.288T11.5 12t-.288-.712T10.5 11t-.712.288T9.5 12t.288.713t.712.287m-3 0q.425 0 .713-.288T8.5 12t-.288-.712T7.5 11t-.712.288T6.5 12t.288.713T7.5 13m6 0q.425 0 .713-.288T14.5 12t-.288-.712T13.5 11t-.712.288T12.5 12t.288.713t.712.287m3 0q.425 0 .713-.288T17.5 12t-.288-.712T16.5 11t-.712.288T15.5 12t.288.713t.712.287M7 19H5q-1.65 0-2.825-1.175T1 15V9q0-1.65 1.175-2.825T5 5h14q1.65 0 2.825 1.175T23 9v6q0 1.65-1.175 2.825T19 19h-2q0 .425-.288.713T16 20H8q-.425 0-.712-.288T7 19"/></symbol><symbol id="hd-icon-material-symbols-home-max-outline" viewBox="0 0 24 24"><path fill="currentColor" d="M5 17h14q.825 0 1.413-.587T21 15V9q0-.825-.587-1.412T19 7H5q-.825 0-1.412.588T3 9v6q0 .825.588 1.413T5 17m2 3v-1H5q-1.65 0-2.825-1.175T1 15V9q0-1.65 1.175-2.825T5 5h14q1.65 0 2.825 1.175T23 9v6q0 1.65-1.175 2.825T19 19h-2v1zm5-8"/></symbol><symbol id="hd-icon-material-symbols-home-max-outline-rounded" viewBox="0 0 24 24"><path fill="currentColor" d="M5 17h14q.825 0 1.413-.587T21 15V9q0-.825-.587-1.412T19 7H5q-.825 0-1.412.588T3 9v6q0 .825.588 1.413T5 17m2 2H5q-1.65 0-2.825-1.175T1 15V9q0-1.65 1.175-2.825T5 5h14q1.65 0 2.825 1.175T23 9v6q0 1.65-1.175 2.825T19 19h-2q0 .425-.288.713T16 20H8q-.425 0-.712-.288T7 19m5-7"/></symbol><symbol id="hd-icon-material-symbols-home-max-rounded" viewBox="0 0 24 24"><path fill="currentColor" d="M7 19H5q-1.65 0-2.825-1.175T1 15V9q0-1.65 1.175-2.825T5 5h14q1.65 0 2.825 1.175T23 9v6q0 1.65-1.175 2.825T19 19h-2q0 .425-.288.713T16 20H8q-.425 0-.712-.288T7 19"/></symbol><symbol id="hd-icon-material-symbols-home-mini" viewBox="0 0 24 24"><path fill="currentColor" d="M12 5q1.9 0 3.7.463t3.2 1.35T21.15 9t.85 3H2q0-1.7.85-3T5.1 6.813t3.2-1.35T12 5M9 19q-2.35 0-4.187-1.388T2.3 14h19.4q-.675 2.225-2.512 3.613T15 19z"/></symbol><symbol id="hd-icon-material-symbols-home-mini-outline" viewBox="0 0 24 24"><path fill="currentColor" d="M9 19q-2.9 0-4.95-2.05T2 12q0-.95.463-2.15t1.612-2.287T7.15 5.738T12 5t4.85.738t3.075 1.824t1.613 2.288T22 12q0 2.9-2.05 4.95T15 19zm.15-2h5.7q1.575 0 2.863-.837T19.6 14H4.4q.6 1.325 1.888 2.163T9.15 17M4 12h16q0-.75-.4-1.625T18.262 8.75T15.789 7.5T12 7t-3.775.5t-2.463 1.25t-1.35 1.625T4 12m8 0"/></symbol><symbol id="hd-icon-material-symbols-home-outline" viewBox="0 0 24 24"><path fill="currentColor" d="M6 19h3v-6h6v6h3v-9l-6-4.5L6 10zm-2 2V9l8-6l8 6v12h-7v-6h-2v6zm8-8.75"/></symbol><symbol id="hd-icon-material-symbols-home-outline-rounded" viewBox="0 0 24 24"><path fill="currentColor" d="M6 19h3v-5q0-.425.288-.712T10 13h4q.425 0 .713.288T15 14v5h3v-9l-6-4.5L6 10zm-2 0v-9q0-.475.213-.9t.587-.7l6-4.5q.525-.4 1.2-.4t1.2.4l6 4.5q.375.275.588.7T20 10v9q0 .825-.588 1.413T18 21h-4q-.425 0-.712-.288T13 20v-5h-2v5q0 .425-.288.713T10 21H6q-.825 0-1.412-.587T4 19m8-6.75"/></symbol><symbol id="hd-icon-material-symbols-home-pin" viewBox="0 0 24 24"><path fill="currentColor" d="M9 13h2v-2.75h2V13h2V8.25l-3-2l-3 2zm3 9q-4.025-3.425-6.012-6.362T4 10.2q0-3.75 2.413-5.975T12 2t5.588 2.225T20 10.2q0 2.5-1.987 5.438T12 22"/></symbol><symbol id="hd-icon-material-symbols-home-pin-outline" viewBox="0 0 24 24"><path fill="currentColor" d="M9 13h2v-2.75h2V13h2V8.25l-3-2l-3 2zm3 6.35q3.05-2.8 4.525-5.087T18 10.2q0-2.725-1.737-4.462T12 4T7.738 5.738T6 10.2q0 1.775 1.475 4.063T12 19.35M12 22q-4.025-3.425-6.012-6.362T4 10.2q0-3.75 2.413-5.975T12 2t5.588 2.225T20 10.2q0 2.5-1.987 5.438T12 22m0-12"/></symbol><symbol id="hd-icon-material-symbols-home-pin-outline-rounded" viewBox="0 0 24 24"><path fill="currentColor" d="M9 13h2v-2.75h2V13h2V8.25l-3-2l-3 2zm3 6.35q3.05-2.8 4.525-5.087T18 10.2q0-2.725-1.737-4.462T12 4T7.738 5.738T6 10.2q0 1.775 1.475 4.063T12 19.35m0 1.975q-.35 0-.7-.125t-.625-.375Q9.05 19.325 7.8 17.9t-2.087-2.762t-1.275-2.575T4 10.2q0-3.75 2.413-5.975T12 2t5.588 2.225T20 10.2q0 1.125-.437 2.363t-1.275 2.575T16.2 17.9t-2.875 2.925q-.275.25-.625.375t-.7.125M12 10"/></symbol><symbol id="hd-icon-material-symbols-home-pin-rounded" viewBox="0 0 24 24"><path fill="currentColor" d="M9 13h2v-2.75h2V13h2V8.25l-3-2l-3 2zm3 8.325q-.35 0-.7-.125t-.625-.375Q9.05 19.325 7.8 17.9t-2.087-2.762t-1.275-2.575T4 10.2q0-3.75 2.413-5.975T12 2t5.588 2.225T20 10.2q0 1.125-.437 2.363t-1.275 2.575T16.2 17.9t-2.875 2.925q-.275.25-.625.375t-.7.125"/></symbol><symbol id="hd-icon-material-symbols-home-pin-sharp" viewBox="0 0 24 24"><path fill="currentColor" d="M9 13V8l3-2l3 2v5h-2v-3h-2v3Zm3 6.35q3.05-2.8 4.525-5.088Q18 11.975 18 10.2q0-2.725-1.738-4.463Q14.525 4 12 4Q9.475 4 7.737 5.737Q6 7.475 6 10.2q0 1.775 1.475 4.062Q8.95 16.55 12 19.35ZM12 22q-4.025-3.425-6.012-6.363Q4 12.7 4 10.2q0-3.75 2.413-5.975Q8.825 2 12 2t5.587 2.225Q20 6.45 20 10.2q0 2.5-1.987 5.437Q16.025 18.575 12 22Z"/></symbol><symbol id="hd-icon-material-symbols-home-repair-service" viewBox="0 0 24 24"><path fill="currentColor" d="M9 8h6V6H9zM2 20v-5h4v1h2v-1h8v1h2v-1h4v5zm0-6v-4q0-.825.588-1.412T4 8h3V6q0-.825.588-1.412T9 4h6q.825 0 1.413.588T17 6v2h3q.825 0 1.413.588T22 10v4h-4v-2h-2v2H8v-2H6v2z"/></symbol><symbol id="hd-icon-material-symbols-home-repair-service-outline" viewBox="0 0 24 24"><path fill="currentColor" d="M2 20V10q0-.825.588-1.412T4 8h3V6q0-.825.588-1.412T9 4h6q.825 0 1.413.588T17 6v2h3q.825 0 1.413.588T22 10v10zm6-5v1H6v-1H4v3h16v-3h-2v1h-2v-1zm-4-5v3h2v-1h2v1h8v-1h2v1h2v-3zm5-2h6V6H9z"/></symbol><symbol id="hd-icon-material-symbols-home-repair-service-outline-rounded" viewBox="0 0 24 24"><path fill="currentColor" d="M2 19v-9q0-.825.588-1.412T4 8h3V6q0-.825.588-1.412T9 4h6q.825 0 1.413.588T17 6v2h3q.825 0 1.413.588T22 10v9q0 .425-.288.713T21 20H3q-.425 0-.712-.288T2 19m6-4q0 .425-.288.713T7 16t-.712-.288T6 15H4v3h16v-3h-2q0 .425-.288.713T17 16t-.712-.288T16 15zm-4-5v3h2q0-.425.288-.712T7 12t.713.288T8 13h8q0-.425.288-.712T17 12t.713.288T18 13h2v-3zm5-2h6V6H9z"/></symbol><symbol id="hd-icon-material-symbols-home-repair-service-outline-sharp" viewBox="0 0 24 24"><path fill="currentColor" d="M2 20V8h5V4h10v4h5v12zm6-5v1H6v-1H4v3h16v-3h-2v1h-2v-1zm-4-5v3h2v-1h2v1h8v-1h2v1h2v-3zm5-2h6V6H9z"/></symbol><symbol id="hd-icon-material-symbols-home-repair-service-rounded" viewBox="0 0 24 24"><path fill="currentColor" d="M9 8h6V6H9zM3 20q-.425 0-.712-.288T2 19v-4h4q0 .425.288.713T7 16t.713-.288T8 15h8q0 .425.288.713T17 16t.713-.288T18 15h4v4q0 .425-.288.713T21 20zm-1-6v-4q0-.825.588-1.412T4 8h3V6q0-.825.588-1.412T9 4h6q.825 0 1.413.588T17 6v2h3q.825 0 1.413.588T22 10v4h-4v-1q0-.425-.288-.712T17 12t-.712.288T16 13v1H8v-1q0-.425-.288-.712T7 12t-.712.288T6 13v1z"/></symbol><symbol id="hd-icon-material-symbols-home-repair-service-sharp" viewBox="0 0 24 24"><path fill="currentColor" d="M9 8h6V6H9zM2 20v-5h4v1h2v-1h8v1h2v-1h4v5zm0-6V8h5V4h10v4h5v6h-4v-2h-2v2H8v-2H6v2z"/></symbol><symbol id="hd-icon-material-symbols-home-rounded" viewBox="0 0 24 24"><path fill="currentColor" d="M4 19v-9q0-.475.213-.9t.587-.7l6-4.5q.525-.4 1.2-.4t1.2.4l6 4.5q.375.275.588.7T20 10v9q0 .825-.588 1.413T18 21h-3q-.425 0-.712-.288T14 20v-5q0-.425-.288-.712T13 14h-2q-.425 0-.712.288T10 15v5q0 .425-.288.713T9 21H6q-.825 0-1.412-.587T4 19"/></symbol><symbol id="hd-icon-material-symbols-home-speaker" viewBox="0 0 24 24"><path fill="currentColor" d="m6.2 12l.775-5.825q.05-.275.213-.488t.412-.312l7.9-3.15q.45-.2.875.063t.475.762L17.925 12zm3.375 9Q7.75 21 6.55 19.638t-.95-3.163L5.925 14H18.15l.3 2.525q.2 1.8-.975 3.138T14.5 21z"/></symbol><symbol id="hd-icon-material-symbols-home-speaker-outline" viewBox="0 0 24 24"><path fill="currentColor" d="M9.575 21Q7.75 21 6.55 19.638t-.95-3.163l1.375-10.3q.05-.275.213-.487t.412-.313l7.9-3.15q.45-.2.875.063t.475.762l1.6 13.475q.2 1.8-.975 3.138T14.5 21zm0-2H14.5q.9 0 1.5-.675t.475-1.575L16.15 14H7.975L7.6 16.725q-.125.9.475 1.588t1.5.687M8.9 7.025L8.225 12H15.9l-.875-7.45zM12.05 14v-2z"/></symbol><symbol id="hd-icon-material-symbols-home-storage" viewBox="0 0 24 24"><path fill="currentColor" d="M5 21L3 9h18l-2 12zm5-6h4q.425 0 .713-.288T15 14t-.288-.712T14 13h-4q-.425 0-.712.288T9 14t.288.713T10 15M6 8q-.425 0-.712-.288T5 7t.288-.712T6 6h12q.425 0 .713.288T19 7t-.288.713T18 8zm2-3q-.425 0-.712-.288T7 4t.288-.712T8 3h8q.425 0 .713.288T17 4t-.288.713T16 5z"/></symbol><symbol id="hd-icon-material-symbols-home-storage-outline" viewBox="0 0 24 24"><path fill="currentColor" d="M5 21L3 9h18l-2 12zm1.675-2h10.65l1.275-8H5.4zM10 15h4q.425 0 .713-.288T15 14t-.288-.712T14 13h-4q-.425 0-.712.288T9 14t.288.713T10 15M6 8q-.425 0-.712-.288T5 7t.288-.712T6 6h12q.425 0 .713.288T19 7t-.288.713T18 8zm2-3q-.425 0-.712-.288T7 4t.288-.712T8 3h8q.425 0 .713.288T17 4t-.288.713T16 5zM6.675 19h10.65z"/></symbol><symbol id="hd-icon-material-symbols-home-storage-outline-rounded" viewBox="0 0 24 24"><path fill="currentColor" d="M6.7 21q-.725 0-1.287-.475t-.688-1.2L3.2 10.175q-.075-.45.213-.812T4.175 9h15.65q.475 0 .763.363t.212.812l-1.525 9.15q-.125.725-.687 1.2T17.3 21zM5.4 11l1.275 8h10.65l1.275-8zm4.6 4h4q.425 0 .713-.288T15 14t-.288-.712T14 13h-4q-.425 0-.712.288T9 14t.288.713T10 15M6 8q-.425 0-.712-.288T5 7t.288-.712T6 6h12q.425 0 .713.288T19 7t-.288.713T18 8zm2-3q-.425 0-.712-.288T7 4t.288-.712T8 3h8q.425 0 .713.288T17 4t-.288.713T16 5zM6.675 19h10.65z"/></symbol><symbol id="hd-icon-material-symbols-home-storage-outline-sharp" viewBox="0 0 24 24"><path fill="currentColor" d="M5 21L3 9h18l-2 12zm1.675-2h10.65l1.275-8H5.4zM9 15h6v-2H9zM5 8V6h14v2zm2-3V3h10v2zm-.325 14h10.65z"/></symbol><symbol id="hd-icon-material-symbols-home-storage-rounded" viewBox="0 0 24 24"><path fill="currentColor" d="M6.7 21q-.725 0-1.287-.475t-.688-1.2L3.2 10.175q-.075-.45.213-.812T4.175 9h15.65q.475 0 .763.363t.212.812l-1.525 9.15q-.125.725-.687 1.2T17.3 21zm3.3-6h4q.425 0 .713-.288T15 14t-.288-.712T14 13h-4q-.425 0-.712.288T9 14t.288.713T10 15M6 8q-.425 0-.712-.288T5 7t.288-.712T6 6h12q.425 0 .713.288T19 7t-.288.713T18 8zm2-3q-.425 0-.712-.288T7 4t.288-.712T8 3h8q.425 0 .713.288T17 4t-.288.713T16 5z"/></symbol><symbol id="hd-icon-material-symbols-home-storage-sharp" viewBox="0 0 24 24"><path fill="currentColor" d="M5 21L3 9h18l-2 12zm4-6h6v-2H9zM5 8V6h14v2zm2-3V3h10v2z"/></symbol><symbol id="hd-icon-material-symbols-home-work" viewBox="0 0 24 24"><path fill="currentColor" d="M17 9h2V7h-2zm0 4h2v-2h-2zm0 4h2v-2h-2zM1 21V11l7-5l7 5v10h-5v-6H6v6zm16 0V10l-7-5.05V3h13v18z"/></symbol><symbol id="hd-icon-material-symbols-home-work-outline" viewBox="0 0 24 24"><path fill="currentColor" d="M17 9h2V7h-2zm0 4h2v-2h-2zm0 4h2v-2h-2zm0 4v-2h4V5h-9v1.4l-2-1.45V3h13v18zM1 21V11l7-5l7 5v10H9v-5H7v5zm2-2h2v-5h6v5h2v-7L8 8.45L3 12zm8 0v-5H5v5v-5h6z"/></symbol><symbol id="hd-icon-material-symbols-home-work-outline-rounded" viewBox="0 0 24 24"><path fill="currentColor" d="M23 5v14q0 .825-.587 1.413T21 21h-3q-.425 0-.712-.288T17 20t.288-.712T18 19h3V5h-9v.5q0 .425-.288.713T11 6.5t-.712-.288T10 5.5v-.55q0-.8.575-1.375T11.95 3H21q.825 0 1.413.588T23 5M1 12.025q0-.5.225-.925t.625-.7l5-3.575q.275-.2.563-.288T8 6.45t.588.088t.562.287l5 3.575q.4.275.625.7t.225.925V19q0 .825-.587 1.413T13 21h-2q-.825 0-1.412-.587T9 19v-3H7v3q0 .825-.587 1.413T5 21H3q-.825 0-1.412-.587T1 19zM3 12v7h2v-3q0-.825.588-1.412T7 14h2q.825 0 1.413.588T11 16v3h2v-7L8 8.45zm8 7v-5H5v5v-5h6zm6.5-10h1q.2 0 .35-.15T19 8.5v-1q0-.2-.15-.35T18.5 7h-1q-.2 0-.35.15T17 7.5v1q0 .2.15.35t.35.15m0 4h1q.2 0 .35-.15t.15-.35v-1q0-.2-.15-.35T18.5 11h-1q-.2 0-.35.15t-.15.35v1q0 .2.15.35t.35.15m0 4h1q.2 0 .35-.15t.15-.35v-1q0-.2-.15-.35T18.5 15h-1q-.2 0-.35.15t-.15.35v1q0 .2.15.35t.35.15"/></symbol><symbol id="hd-icon-material-symbols-home-work-rounded" viewBox="0 0 24 24"><path fill="currentColor" d="M1 12.025q0-.5.225-.925t.625-.7l5-3.575q.275-.2.563-.288T8 6.45t.588.088t.562.287l5 3.575q.4.275.625.7t.225.925V19q0 .825-.587 1.413T13 21h-1q-.825 0-1.412-.587T10 19v-2.5q0-.625-.437-1.062T8.5 15h-1q-.625 0-1.062.438T6 16.5V19q0 .825-.587 1.413T4 21H3q-.825 0-1.412-.587T1 19zM23 5v14q0 .825-.587 1.413T21 21h-3q-.425 0-.712-.288T17 20v-8.975q0-.5-.213-.925t-.612-.7L10.95 5.65q-.325-.25-.525-.6t-.2-.7q0-.625.4-.987T11.7 3H21q.825 0 1.413.588T23 5m-5.5 4h1q.2 0 .35-.15T19 8.5v-1q0-.2-.15-.35T18.5 7h-1q-.2 0-.35.15T17 7.5v1q0 .2.15.35t.35.15m0 4h1q.2 0 .35-.15t.15-.35v-1q0-.2-.15-.35T18.5 11h-1q-.2 0-.35.15t-.15.35v1q0 .2.15.35t.35.15m0 4h1q.2 0 .35-.15t.15-.35v-1q0-.2-.15-.35T18.5 15h-1q-.2 0-.35.15t-.15.35v1q0 .2.15.35t.35.15"/></symbol><symbol id="hd-icon-material-symbols-horizontal-distribute" viewBox="0 0 24 24"><path fill="currentColor" d="M2 22V2h2v20zm8.5-5V7h3v10zm9.5 5V2h2v20z"/></symbol><symbol id="hd-icon-material-symbols-horizontal-distribute-rounded" viewBox="0 0 24 24"><path fill="currentColor" d="M3 22q-.425 0-.712-.288T2 21V3q0-.425.288-.712T3 2t.713.288T4 3v18q0 .425-.288.713T3 22m9-5q-.625 0-1.062-.437T10.5 15.5v-7q0-.625.438-1.062T12 7t1.063.438T13.5 8.5v7q0 .625-.437 1.063T12 17m9 5q-.425 0-.712-.288T20 21V3q0-.425.288-.712T21 2t.713.288T22 3v18q0 .425-.288.713T21 22"/></symbol><symbol id="hd-icon-material-symbols-horizontal-rule" viewBox="0 0 24 24"><path fill="currentColor" d="M4 13v-2h16v2z"/></symbol><symbol id="hd-icon-material-symbols-horizontal-rule-rounded" viewBox="0 0 24 24"><path fill="currentColor" d="M5 13q-.425 0-.712-.288T4 12t.288-.712T5 11h14q.425 0 .713.288T20 12t-.288.713T19 13z"/></symbol><symbol id="hd-icon-material-symbols-horizontal-split" viewBox="0 0 24 24"><path fill="currentColor" d="M3 19v-6h18v6zm0-8V9h18v2zm0-4V5h18v2z"/></symbol><symbol id="hd-icon-material-symbols-horizontal-split-outline" viewBox="0 0 24 24"><path fill="currentColor" d="M3 7V5h18v2Zm0 4V9h18v2Zm0 8v-6h18v6Zm2-2h14v-2H5Zm0 0v-2v2Z"/></symbol><symbol id="hd-icon-material-symbols-horizontal-split-outline-rounded" viewBox="0 0 24 24"><path fill="currentColor" d="M3.975 7q-.425 0-.7-.287Q3 6.425 3 6t.288-.713Q3.575 5 4 5h16.025q.425 0 .7.287Q21 5.575 21 6t-.288.713Q20.425 7 20 7Zm0 4q-.425 0-.7-.288Q3 10.425 3 10t.288-.713Q3.575 9 4 9h16.025q.425 0 .7.287Q21 9.575 21 10t-.288.712Q20.425 11 20 11ZM4 19q-.425 0-.712-.288Q3 18.425 3 18v-4q0-.425.288-.713Q3.575 13 4 13h16q.425 0 .712.287q.288.288.288.713v4q0 .425-.288.712Q20.425 19 20 19Zm1-2h14v-2H5Zm0 0v-2v2Z"/></symbol><symbol id="hd-icon-material-symbols-horizontal-split-rounded" viewBox="0 0 24 24"><path fill="currentColor" d="M4 19q-.425 0-.712-.288T3 18v-4q0-.425.288-.712T4 13h16q.425 0 .713.288T21 14v4q0 .425-.288.713T20 19zm0-8q-.425 0-.712-.288T3 10t.288-.712T4 9h16q.425 0 .713.288T21 10t-.288.713T20 11zm0-4q-.425 0-.712-.288T3 6t.288-.712T4 5h16q.425 0 .713.288T21 6t-.288.713T20 7z"/></symbol><symbol id="hd-icon-material-symbols-host" viewBox="0 0 24 24"><path fill="currentColor" d="M4 21q-.825 0-1.412-.587T2 19V5q0-.825.588-1.412T4 3h5q.825 0 1.413.588T11 5v14q0 .825-.587 1.413T9 21zm11 0q-.825 0-1.412-.587T13 19V5q0-.825.588-1.412T15 3h5q.825 0 1.413.588T22 5v14q0 .825-.587 1.413T20 21zM5 15h3v-2H5zm11 0h3v-2h-3zM5 12h3v-2H5zm11 0h3v-2h-3zM5 9h3V7H5zm11 0h3V7h-3z"/></symbol><symbol id="hd-icon-material-symbols-host-outline" viewBox="0 0 24 24"><path fill="currentColor" d="M4 21q-.825 0-1.412-.587T2 19V5q0-.825.588-1.412T4 3h5q.825 0 1.413.588T11 5v14q0 .825-.587 1.413T9 21zm11 0q-.825 0-1.412-.587T13 19V5q0-.825.588-1.412T15 3h5q.825 0 1.413.588T22 5v14q0 .825-.587 1.413T20 21zM4 19h5V5H4zm11 0h5V5h-5zM5 15h3v-2H5zm11 0h3v-2h-3zM5 12h3v-2H5zm11 0h3v-2h-3zM5 9h3V7H5zm11 0h3V7h-3zM4 19h5zm11 0h5z"/></symbol><symbol id="hd-icon-material-symbols-host-outline-rounded" viewBox="0 0 24 24"><path fill="currentColor" d="M4 21q-.825 0-1.412-.587T2 19V5q0-.825.588-1.412T4 3h5q.825 0 1.413.588T11 5v14q0 .825-.587 1.413T9 21zm11 0q-.825 0-1.412-.587T13 19V5q0-.825.588-1.412T15 3h5q.825 0 1.413.588T22 5v14q0 .825-.587 1.413T20 21zM4 19h5V5H4zm11 0h5V5h-5zm-7-5q0-.425-.288-.712T7 13H6q-.425 0-.712.288T5 14t.288.713T6 15h1q.425 0 .713-.288T8 14m11 0q0-.425-.288-.712T18 13h-1q-.425 0-.712.288T16 14t.288.713T17 15h1q.425 0 .713-.288T19 14M8 11q0-.425-.288-.712T7 10H6q-.425 0-.712.288T5 11t.288.713T6 12h1q.425 0 .713-.288T8 11m11 0q0-.425-.288-.712T18 10h-1q-.425 0-.712.288T16 11t.288.713T17 12h1q.425 0 .713-.288T19 11M8 8q0-.425-.288-.712T7 7H6q-.425 0-.712.288T5 8t.288.713T6 9h1q.425 0 .713-.288T8 8m11 0q0-.425-.288-.712T18 7h-1q-.425 0-.712.288T16 8t.288.713T17 9h1q.425 0 .713-.288T19 8M4 19h5zm11 0h5z"/></symbol><symbol id="hd-icon-material-symbols-host-outline-sharp" viewBox="0 0 24 24"><path fill="currentColor" d="M2 21V3h9v18zm11 0V3h9v18zm-9-2h5V5H4zm11 0h5V5h-5zM5 15h3v-2H5zm11 0h3v-2h-3zM5 12h3v-2H5zm11 0h3v-2h-3zM5 9h3V7H5zm11 0h3V7h-3zM4 19h5zm11 0h5z"/></symbol><symbol id="hd-icon-material-symbols-host-rounded" viewBox="0 0 24 24"><path fill="currentColor" d="M4 21q-.825 0-1.412-.587T2 19V5q0-.825.588-1.412T4 3h5q.825 0 1.413.588T11 5v14q0 .825-.587 1.413T9 21zm11 0q-.825 0-1.412-.587T13 19V5q0-.825.588-1.412T15 3h5q.825 0 1.413.588T22 5v14q0 .825-.587 1.413T20 21zm-7-7q0-.425-.288-.712T7 13H6q-.425 0-.712.288T5 14t.288.713T6 15h1q.425 0 .713-.288T8 14m11 0q0-.425-.288-.712T18 13h-1q-.425 0-.712.288T16 14t.288.713T17 15h1q.425 0 .713-.288T19 14M8 11q0-.425-.288-.712T7 10H6q-.425 0-.712.288T5 11t.288.713T6 12h1q.425 0 .713-.288T8 11m11 0q0-.425-.288-.712T18 10h-1q-.425 0-.712.288T16 11t.288.713T17 12h1q.425 0 .713-.288T19 11M8 8q0-.425-.288-.712T7 7H6q-.425 0-.712.288T5 8t.288.713T6 9h1q.425 0 .713-.288T8 8m11 0q0-.425-.288-.712T18 7h-1q-.425 0-.712.288T16 8t.288.713T17 9h1q.425 0 .713-.288T19 8"/></symbol><symbol id="hd-icon-material-symbols-host-sharp" viewBox="0 0 24 24"><path fill="currentColor" d="M2 21V3h9v18zm11 0V3h9v18zm-8-6h3v-2H5zm11 0h3v-2h-3zM5 12h3v-2H5zm11 0h3v-2h-3zM5 9h3V7H5zm11 0h3V7h-3z"/></symbol><symbol id="hd-icon-material-symbols-hot-tub" viewBox="0 0 24 24"><path fill="currentColor" d="M7 8q-.825 0-1.412-.587T5 6t.588-1.412T7 4t1.413.588T9 6t-.587 1.413T7 8M4 22q-.825 0-1.412-.587T2 20v-8h3v-.75q0-.95.65-1.6T7.25 9q.5 0 .925.2t.775.55l1.4 1.55q.175.2.375.375t.425.325H22v8q0 .825-.587 1.413T20 22zm14-12l.1-.6q.125-.625-.088-1.213T17.35 7.15q-.725-.725-1.075-1.687T16.05 3.45L16.1 3H18l-.1.6q-.1.6.088 1.188T18.6 5.8q.75.75 1.113 1.725t.237 2.025l-.05.45zm-4 0l.1-.6q.125-.625-.088-1.213T13.35 7.15q-.725-.725-1.075-1.687T12.05 3.45L12.1 3H14l-.1.6q-.125.6.075 1.188T14.6 5.8q.75.75 1.113 1.725t.237 2.025l-.05.45zm3 10h2v-6h-2zm-4 0h2v-6h-2zm-4 0h2v-6H9zm-4 0h2v-6H5z"/></symbol><symbol id="hd-icon-material-symbols-hot-tub-outline" viewBox="0 0 24 24"><path fill="currentColor" d="M7 8q-.825 0-1.413-.588T5 6q0-.825.588-1.413T7 4q.825 0 1.413.588T9 6q0 .825-.588 1.413T7 8ZM4 22q-.825 0-1.413-.588T2 20v-8h3v-.75q0-.95.65-1.6T7.25 9q.5 0 .925.2t.775.55l1.4 1.55q.15.2.363.375t.437.325H22v8q0 .825-.587 1.413T20 22H4Zm14-12l.1-.6q.125-.6-.063-1.175T17.35 7.15q-.8-.8-1.113-1.738T16.05 3.45L16.1 3H18l-.1.6q-.1.6.05 1.15t.65 1.05q.8.8 1.137 1.763t.213 1.987l-.05.45H18Zm-4 0l.1-.6q.125-.6-.063-1.175T13.35 7.15q-.8-.8-1.112-1.738T12.05 3.45L12.1 3H14l-.1.6q-.125.6.038 1.15T14.6 5.8q.8.8 1.138 1.763t.212 1.987l-.05.45H14Zm3 10h2v-6h-2v6Zm-4 0h2v-6h-2v6Zm-4 0h2v-6H9v6Zm-4 0h2v-6H5v6Z"/></symbol><symbol id="hd-icon-material-symbols-hot-tub-outline-sharp" viewBox="0 0 24 24"><path fill="currentColor" d="M7 8q-.825 0-1.413-.588T5 6q0-.825.588-1.413T7 4q.825 0 1.413.588T9 6q0 .825-.588 1.413T7 8ZM2 22V12h3v-.75q0-.95.65-1.6T7.25 9q.5 0 .925.2t.775.55l1.4 1.55q.15.2.363.375t.437.325H22v10H2Zm16-12l.1-.6q.125-.6-.063-1.175T17.35 7.15q-.8-.8-1.113-1.738T16.05 3.45L16.1 3H18l-.1.6q-.1.6.05 1.15t.65 1.05q.8.8 1.137 1.763t.213 1.987l-.05.45H18Zm-4 0l.1-.6q.125-.6-.063-1.175T13.35 7.15q-.8-.8-1.112-1.738T12.05 3.45L12.1 3H14l-.1.6q-.125.6.038 1.15T14.6 5.8q.8.8 1.138 1.763t.212 1.987l-.05.45H14Zm3 10h2v-6h-2v6Zm-4 0h2v-6h-2v6Zm-4 0h2v-6H9v6Zm-4 0h2v-6H5v6Z"/></symbol><symbol id="hd-icon-material-symbols-hot-tub-rounded" viewBox="0 0 24 24"><path fill="currentColor" d="M7 8q-.825 0-1.412-.587T5 6t.588-1.412T7 4t1.413.588T9 6t-.587 1.413T7 8M4 22q-.825 0-1.412-.587T2 20v-7q0-.425.288-.712T3 12h2v-.75q0-.95.65-1.6T7.25 9q.5 0 .925.2t.775.55l1.4 1.55q.175.2.375.375t.425.325H21q.425 0 .713.288T22 13v7q0 .825-.587 1.413T20 22zm15.025-12q-.4 0-.663-.275t-.237-.675q.025-.55-.188-1.038t-.587-.862q-.65-.65-.962-1.475t-.338-1.7q0-.4.263-.687T16.975 3t.675.288t.25.687q-.025.5.163.988t.537.837q.65.65.988 1.475T19.95 9q0 .425-.262.713t-.663.287m-4 0q-.4 0-.662-.275t-.238-.675q.025-.55-.187-1.038t-.588-.862q-.65-.65-.962-1.475t-.338-1.7q0-.4.263-.687T12.975 3t.663.275t.237.675q-.025.525.163 1t.562.85q.65.65.988 1.475T15.95 9q0 .425-.262.713t-.663.287M17 20h2v-6h-2zm-4 0h2v-6h-2zm-4 0h2v-6H9zm-4 0h2v-6H5z"/></symbol><symbol id="hd-icon-material-symbols-hot-tub-sharp" viewBox="0 0 24 24"><path fill="currentColor" d="M7 8q-.825 0-1.412-.587T5 6t.588-1.412T7 4t1.413.588T9 6t-.587 1.413T7 8M2 22V12h3v-.75q0-.95.65-1.6T7.25 9q.5 0 .925.2t.775.55l1.4 1.55q.175.2.375.375t.425.325H22v10zm16-12l.1-.6q.125-.625-.088-1.213T17.35 7.15q-.725-.725-1.075-1.687T16.05 3.45L16.1 3H18l-.1.6q-.1.6.088 1.188T18.6 5.8q.75.75 1.113 1.725t.237 2.025l-.05.45zm-4 0l.1-.6q.125-.625-.088-1.213T13.35 7.15q-.725-.725-1.075-1.687T12.05 3.45L12.1 3H14l-.1.6q-.125.6.075 1.188T14.6 5.8q.75.75 1.113 1.725t.237 2.025l-.05.45zm3 10h2v-6h-2zm-4 0h2v-6h-2zm-4 0h2v-6H9zm-4 0h2v-6H5z"/></symbol><symbol id="hd-icon-material-symbols-hotel" viewBox="0 0 24 24"><path fill="currentColor" d="M1 19V4h2v10h8V6h8q1.65 0 2.825 1.175T23 10v9h-2v-3H3v3zm6-6q-1.25 0-2.125-.875T4 10t.875-2.125T7 7t2.125.875T10 10t-.875 2.125T7 13"/></symbol><symbol id="hd-icon-material-symbols-hotel-class" viewBox="0 0 24 24"><path fill="currentColor" d="m16.7 14.5l3.8-3.25l3 .25l-4.4 3.825L20.4 21l-2.55-1.55zm-2.35-7.3L13.3 4.75L14.45 2l2.3 5.425zM4.325 21l1.625-7.025L.5 9.25l7.2-.625L10.5 2l2.8 6.625l7.2.625l-5.45 4.725L16.675 21L10.5 17.275z"/></symbol><symbol id="hd-icon-material-symbols-hotel-class-outline" viewBox="0 0 24 24"><path fill="currentColor" d="m16.7 14.5l3.8-3.25l3 .25l-4.4 3.825L20.4 21l-2.55-1.55zm-2.35-7.3L13.3 4.75L14.45 2l2.3 5.425zm-7 9.625l3.15-1.9l3.15 1.925l-.825-3.6l2.775-2.4l-3.65-.325l-1.45-3.4L9.05 10.5l-3.65.325l2.775 2.425zM4.325 21l1.625-7.025L.5 9.25l7.2-.625L10.5 2l2.8 6.625l7.2.625l-5.45 4.725L16.675 21L10.5 17.275zm6.175-8.5"/></symbol><symbol id="hd-icon-material-symbols-hotel-class-outline-rounded" viewBox="0 0 24 24"><path fill="currentColor" d="m16.7 14.5l3.8-3.25l.65.05q.425.05.663.35t.237.65q0 .2-.075.4t-.275.35l-2.6 2.275l.775 3.375q.025.05.025.113v.112q0 .425-.3.713t-.7.287q-.125 0-.262-.038t-.263-.112l-.525-.325zm-2.35-7.3L13.3 4.75l.225-.55q.125-.3.387-.463t.538-.162t.538.15t.387.45l1.375 3.25zm-7 9.625l3.15-1.9l3.15 1.925l-.825-3.6l2.775-2.4l-3.65-.325l-1.45-3.4L9.05 10.5l-3.65.325l2.775 2.425zM4.85 18.7l1.1-4.725L2.275 10.8q-.2-.15-.262-.35t-.063-.4q0-.35.238-.65t.662-.35l4.85-.425l1.875-4.45q.125-.3.388-.45t.537-.15t.538.15t.387.45l1.875 4.45l4.85.425q.425.05.663.35t.237.65q0 .2-.062.4t-.263.35l-3.675 3.175l1.1 4.725q.025.075.025.225q0 .425-.3.713t-.7.287q-.075 0-.525-.15l-4.15-2.5l-4.15 2.5q-.125.075-.262.113t-.263.037q-.45 0-.775-.363t-.2-.862m5.65-6.2"/></symbol><symbol id="hd-icon-material-symbols-hotel-class-rounded" viewBox="0 0 24 24"><path fill="currentColor" d="m16.7 14.5l3.8-3.25l.65.05q.425.05.663.35t.237.65q0 .2-.075.4t-.275.35l-2.6 2.275l.775 3.375q.025.05.025.113v.112q0 .425-.3.713t-.7.287q-.125 0-.262-.038t-.263-.112l-.525-.325zm-2.35-7.3L13.3 4.75l.225-.55q.125-.3.387-.463t.538-.162t.538.15t.387.45l1.375 3.25zm-9.5 11.5l1.1-4.725L2.275 10.8q-.2-.15-.262-.35t-.063-.4q0-.35.238-.65t.662-.35l4.85-.425l1.875-4.45q.125-.3.388-.45t.537-.15t.538.15t.387.45l1.875 4.45l4.85.425q.425.05.663.35t.237.65q0 .2-.062.4t-.263.35l-3.675 3.175l1.1 4.725q.025.075.025.225q0 .425-.3.713t-.7.287q-.075 0-.525-.15l-4.15-2.5l-4.15 2.5q-.125.075-.262.113t-.263.037q-.45 0-.775-.363t-.2-.862"/></symbol><symbol id="hd-icon-material-symbols-hotel-outline" viewBox="0 0 24 24"><path fill="currentColor" d="M1 19V4h2v10h8V6h8q1.65 0 2.825 1.175T23 10v9h-2v-3H3v3zm6-6q-1.25 0-2.125-.875T4 10t.875-2.125T7 7t2.125.875T10 10t-.875 2.125T7 13m6 1h8v-4q0-.825-.587-1.412T19 8h-6zm-6-3q.425 0 .713-.288T8 10t-.288-.712T7 9t-.712.288T6 10t.288.713T7 11m6-3v6z"/></symbol><symbol id="hd-icon-material-symbols-hotel-outline-rounded" viewBox="0 0 24 24"><path fill="currentColor" d="M2 19q-.425 0-.712-.288T1 18V5q0-.425.288-.712T2 4t.713.288T3 5v9h8V8q0-.825.588-1.412T13 6h6q1.65 0 2.825 1.175T23 10v8q0 .425-.288.713T22 19t-.712-.288T21 18v-2H3v2q0 .425-.288.713T2 19m5-6q-1.25 0-2.125-.875T4 10t.875-2.125T7 7t2.125.875T10 10t-.875 2.125T7 13m6 1h8v-4q0-.825-.587-1.412T19 8h-6zm-6-3q.425 0 .713-.288T8 10t-.288-.712T7 9t-.712.288T6 10t.288.713T7 11m6-3v6z"/></symbol><symbol id="hd-icon-material-symbols-hotel-outline-sharp" viewBox="0 0 24 24"><path fill="currentColor" d="M1 19V4h2v10h8V6h12v13h-2v-3H3v3zm6-6q-1.25 0-2.125-.875T4 10t.875-2.125T7 7t2.125.875T10 10t-.875 2.125T7 13m6 1h8V8h-8zm-6-3q.425 0 .713-.288T8 10t-.288-.712T7 9t-.712.288T6 10t.288.713T7 11m6-3v6z"/></symbol><symbol id="hd-icon-material-symbols-hotel-rounded" viewBox="0 0 24 24"><path fill="currentColor" d="M2 19q-.425 0-.712-.288T1 18V5q0-.425.288-.712T2 4t.713.288T3 5v9h8V8q0-.825.588-1.412T13 6h6q1.65 0 2.825 1.175T23 10v8q0 .425-.288.713T22 19t-.712-.288T21 18v-2H3v2q0 .425-.288.713T2 19m5-6q-1.25 0-2.125-.875T4 10t.875-2.125T7 7t2.125.875T10 10t-.875 2.125T7 13"/></symbol><symbol id="hd-icon-material-symbols-hotel-sharp" viewBox="0 0 24 24"><path fill="currentColor" d="M1 19V4h2v10h8V6h12v13h-2v-3H3v3zm6-6q-1.25 0-2.125-.875T4 10t.875-2.125T7 7t2.125.875T10 10t-.875 2.125T7 13m0-2q.425 0 .713-.288T8 10t-.288-.712T7 9t-.712.288T6 10t.288.713T7 11m0 0q-.425 0-.712-.288T6 10t.288-.712T7 9t.713.288T8 10t-.288.713T7 11"/></symbol><symbol id="hd-icon-material-symbols-hourglass" viewBox="0 0 24 24"><path fill="currentColor" d="M4 22v-2h2v-3q0-1.525.713-2.863T8.7 12q-1.275-.8-1.987-2.137T6 7V4H4V2h16v2h-2v3q0 1.525-.712 2.863T15.3 12q1.275.8 1.988 2.138T18 17v3h2v2z"/></symbol><symbol id="hd-icon-material-symbols-hourglass-arrow-down" viewBox="0 0 24 24"><path fill="currentColor" d="M2.5 20v-2H4v-2.5q0-1.05.45-1.95T5.7 12q-.8-.65-1.25-1.55T4 8.5V6H2.5V4h12v2H13v2.5q0 1.05-.45 1.95T11.3 12q.8.65 1.25 1.55T13 15.5V18h1.5v2zm17 0L16 16.5l1.425-1.4l1.075 1.075V4h2v12.2l1.1-1.1l1.4 1.4z"/></symbol><symbol id="hd-icon-material-symbols-hourglass-arrow-down-outline" viewBox="0 0 24 24"><path fill="currentColor" d="M8.5 11q1.05 0 1.775-.725T11 8.5V6H6v2.5q0 1.05.725 1.775T8.5 11M6 18h5v-2.5q0-1.05-.725-1.775T8.5 13t-1.775.725T6 15.5zm-3.5 2v-2H4v-2.5q0-1.05.45-1.95T5.7 12q-.8-.65-1.25-1.55T4 8.5V6H2.5V4h12v2H13v2.5q0 1.05-.45 1.95T11.3 12q.8.65 1.25 1.55T13 15.5V18h1.5v2zm17 0L16 16.5l1.425-1.4l1.075 1.075V4h2v12.2l1.1-1.1l1.4 1.4zm-11-2"/></symbol><symbol id="hd-icon-material-symbols-hourglass-arrow-down-outline-rounded" viewBox="0 0 24 24"><path fill="currentColor" d="M18.8 19.3L16.5 17q-.275-.3-.275-.712t.3-.688t.713-.287t.687.287l.575.575V5q0-.425.288-.712T19.5 4t.713.288T20.5 5v11.2l.6-.6q.275-.275.7-.275t.7.275t.275.7t-.275.7l-2.3 2.3q-.3.3-.7.3t-.7-.3M8.5 11q1.05 0 1.775-.725T11 8.5V6H6v2.5q0 1.05.725 1.775T8.5 11M6 18h5v-2.5q0-1.05-.725-1.775T8.5 13t-1.775.725T6 15.5zm-2 0v-2.5q0-1.05.45-1.95T5.7 12q-.8-.65-1.25-1.55T4 8.5V6h-.5q-.425 0-.712-.288T2.5 5t.288-.712T3.5 4h10q.425 0 .713.288T14.5 5t-.288.713T13.5 6H13v2.5q0 1.05-.45 1.95T11.3 12q.8.65 1.25 1.55T13 15.5V18h.5q.425 0 .713.288T14.5 19t-.288.713T13.5 20h-10q-.425 0-.712-.288T2.5 19t.288-.712T3.5 18zm4.5 0"/></symbol><symbol id="hd-icon-material-symbols-hourglass-arrow-down-rounded" viewBox="0 0 24 24"><path fill="currentColor" d="M18.8 19.3L16.5 17q-.275-.3-.275-.712t.3-.688t.713-.287t.687.287l.575.575V5q0-.425.288-.712T19.5 4t.713.288T20.5 5v11.2l.6-.6q.275-.275.7-.275t.7.275t.275.7t-.275.7l-2.3 2.3q-.3.3-.7.3t-.7-.3M4 18v-2.5q0-1.05.45-1.95T5.7 12q-.8-.65-1.25-1.55T4 8.5V6h-.5q-.425 0-.712-.288T2.5 5t.288-.712T3.5 4h10q.425 0 .713.288T14.5 5t-.288.713T13.5 6H13v2.5q0 1.05-.45 1.95T11.3 12q.8.65 1.25 1.55T13 15.5V18h.5q.425 0 .713.288T14.5 19t-.288.713T13.5 20h-10q-.425 0-.712-.288T2.5 19t.288-.712T3.5 18z"/></symbol><symbol id="hd-icon-material-symbols-hourglass-arrow-up" viewBox="0 0 24 24"><path fill="currentColor" d="M2.5 20v-2H4v-2.5q0-1.05.45-1.95T5.7 12q-.8-.65-1.25-1.55T4 8.5V6H2.5V4h12v2H13v2.5q0 1.05-.45 1.95T11.3 12q.8.65 1.25 1.55T13 15.5V18h1.5v2zm16 0V7.8l-1.1 1.1L16 7.5L19.5 4L23 7.5l-1.425 1.4L20.5 7.825V20z"/></symbol><symbol id="hd-icon-material-symbols-hourglass-arrow-up-outline" viewBox="0 0 24 24"><path fill="currentColor" d="M8.5 11q1.05 0 1.775-.725T11 8.5V6H6v2.5q0 1.05.725 1.775T8.5 11M6 18h5v-2.5q0-1.05-.725-1.775T8.5 13t-1.775.725T6 15.5zm-3.5 2v-2H4v-2.5q0-1.05.45-1.95T5.7 12q-.8-.65-1.25-1.55T4 8.5V6H2.5V4h12v2H13v2.5q0 1.05-.45 1.95T11.3 12q.8.65 1.25 1.55T13 15.5V18h1.5v2zm16 0V7.8l-1.1 1.1L16 7.5L19.5 4L23 7.5l-1.425 1.4L20.5 7.825V20zm-10-2"/></symbol><symbol id="hd-icon-material-symbols-hourglass-arrow-up-outline-rounded" viewBox="0 0 24 24"><path fill="currentColor" d="M8.5 11q1.05 0 1.775-.725T11 8.5V6H6v2.5q0 1.05.725 1.775T8.5 11M6 18h5v-2.5q0-1.05-.725-1.775T8.5 13t-1.775.725T6 15.5zm-2 0v-2.5q0-1.05.45-1.95T5.7 12q-.8-.65-1.25-1.55T4 8.5V6h-.5q-.425 0-.712-.288T2.5 5t.288-.712T3.5 4h10q.425 0 .713.288T14.5 5t-.288.713T13.5 6H13v2.5q0 1.05-.45 1.95T11.3 12q.8.65 1.25 1.55T13 15.5V18h.5q.425 0 .713.288T14.5 19t-.288.713T13.5 20h-10q-.425 0-.712-.288T2.5 19t.288-.712T3.5 18zM18.5 7.8l-.6.6q-.275.275-.7.275t-.7-.275t-.275-.7t.275-.7l2.3-2.3q.3-.3.7-.3t.7.3L22.5 7q.275.3.275.712t-.3.688t-.712.288t-.688-.288l-.575-.575V19q0 .425-.287.713T19.5 20t-.712-.288T18.5 19z"/></symbol><symbol id="hd-icon-material-symbols-hourglass-arrow-up-rounded" viewBox="0 0 24 24"><path fill="currentColor" d="M4 18v-2.5q0-1.05.45-1.95T5.7 12q-.8-.65-1.25-1.55T4 8.5V6h-.5q-.425 0-.712-.288T2.5 5t.288-.712T3.5 4h10q.425 0 .713.288T14.5 5t-.288.713T13.5 6H13v2.5q0 1.05-.45 1.95T11.3 12q.8.65 1.25 1.55T13 15.5V18h.5q.425 0 .713.288T14.5 19t-.288.713T13.5 20h-10q-.425 0-.712-.288T2.5 19t.288-.712T3.5 18zM18.5 7.8l-.6.6q-.275.275-.7.275t-.7-.275t-.275-.7t.275-.7l2.3-2.3q.3-.3.7-.3t.7.3L22.5 7q.275.3.275.712t-.3.688t-.712.288t-.688-.288l-.575-.575V19q0 .425-.287.713T19.5 20t-.712-.288T18.5 19z"/></symbol><symbol id="hd-icon-material-symbols-hourglass-bottom" viewBox="0 0 24 24"><path fill="currentColor" d="M12 11q1.65 0 2.825-1.175T16 7V4H8v3q0 1.65 1.175 2.825T12 11M4 22v-2h2v-3q0-1.525.713-2.863T8.7 12q-1.275-.8-1.987-2.137T6 7V4H4V2h16v2h-2v3q0 1.525-.712 2.863T15.3 12q1.275.8 1.988 2.138T18 17v3h2v2z"/></symbol><symbol id="hd-icon-material-symbols-hourglass-bottom-rounded" viewBox="0 0 24 24"><path fill="currentColor" d="M12 11q1.65 0 2.825-1.175T16 7V4H8v3q0 1.65 1.175 2.825T12 11M5 22q-.425 0-.712-.288T4 21t.288-.712T5 20h1v-3q0-1.525.713-2.863T8.7 12q-1.275-.8-1.987-2.137T6 7V4H5q-.425 0-.712-.288T4 3t.288-.712T5 2h14q.425 0 .713.288T20 3t-.288.713T19 4h-1v3q0 1.525-.712 2.863T15.3 12q1.275.8 1.988 2.138T18 17v3h1q.425 0 .713.288T20 21t-.288.713T19 22z"/></symbol><symbol id="hd-icon-material-symbols-hourglass-check" viewBox="0 0 24 24"><path fill="currentColor" d="M4 22v-2h2v-3q0-1.525.713-2.863T8.7 12q-1.275-.8-1.987-2.137T6 7V4H4V2h16v2h-2v3q0 1.2-.45 2.3t-1.275 1.925q-1.175.3-2.137.938T12.475 13.7t-1.087 2T11 18q0 1.075.325 2.1t.95 1.9zm14 1q-2.075 0-3.537-1.463T13 18t1.463-3.537T18 13t3.538 1.463T23 18t-1.463 3.538T18 23m-.7-2.75l3.55-3.55l-.75-.75l-2.8 2.8l-1.4-1.4l-.75.75z"/></symbol><symbol id="hd-icon-material-symbols-hourglass-check-outline" viewBox="0 0 24 24"><path fill="currentColor" d="M4 22v-2h2v-3q0-1.525.713-2.863T8.7 12q-1.275-.8-1.987-2.137T6 7V4H4V2h16v2h-2v3q0 1.2-.45 2.3t-1.275 1.925q-.95.25-1.775.725T13 13.125q-.25-.05-.487-.087T12 13q-1.65 0-2.825 1.175T8 17v3h3.3q.175.55.413 1.05t.562.95zm8-11q1.65 0 2.825-1.175T16 7V4H8v3q0 1.65 1.175 2.825T12 11m6 12q-2.075 0-3.537-1.463T13 18t1.463-3.537T18 13t3.538 1.463T23 18t-1.463 3.538T18 23m-.7-2.75l3.55-3.55l-.75-.75l-2.8 2.8l-1.4-1.4l-.75.75z"/></symbol><symbol id="hd-icon-material-symbols-hourglass-check-outline-rounded" viewBox="0 0 24 24"><path fill="currentColor" d="M6 20v-3q0-1.525.713-2.863T8.7 12q-1.275-.8-1.987-2.137T6 7V4H5q-.425 0-.712-.288T4 3t.288-.712T5 2h14q.425 0 .713.288T20 3t-.288.713T19 4h-1v3q0 1.2-.45 2.3t-1.275 1.925q-.95.25-1.775.725T13 13.125q-.25-.05-.487-.087T12 13q-1.65 0-2.825 1.175T8 17v3h3.3q.175.55.413 1.05t.562.95H5q-.425 0-.712-.288T4 21t.288-.712T5 20zm6-9q1.65 0 2.825-1.175T16 7V4H8v3q0 1.65 1.175 2.825T12 11m6 12q-2.075 0-3.537-1.463T13 18t1.463-3.537T18 13t3.538 1.463T23 18t-1.463 3.538T18 23m-.7-4.25l-1.025-1.025q-.15-.15-.375-.15t-.375.15t-.15.375t.15.375L16.6 19.55q.3.3.7.3t.7-.3l2.475-2.475q.15-.15.15-.375t-.15-.375t-.375-.15t-.375.15z"/></symbol><symbol id="hd-icon-material-symbols-hourglass-check-rounded" viewBox="0 0 24 24"><path fill="currentColor" d="M5 22q-.425 0-.712-.288T4 21t.288-.712T5 20h1v-3q0-1.525.713-2.863T8.7 12q-1.275-.8-1.987-2.137T6 7V4H5q-.425 0-.712-.288T4 3t.288-.712T5 2h14q.425 0 .713.288T20 3t-.288.713T19 4h-1v3q0 1.2-.45 2.3t-1.275 1.925q-1.175.3-2.137.938T12.475 13.7t-1.087 2T11 18q0 1.075.325 2.1t.95 1.9zm13 1q-2.075 0-3.537-1.463T13 18t1.463-3.537T18 13t3.538 1.463T23 18t-1.463 3.538T18 23m-.7-4.25l-1.025-1.025q-.15-.15-.375-.15t-.375.15t-.15.375t.15.375L16.6 19.55q.3.3.7.3t.7-.3l2.475-2.475q.15-.15.15-.375t-.15-.375t-.375-.15t-.375.15z"/></symbol><symbol id="hd-icon-material-symbols-hourglass-disabled" viewBox="0 0 24 24"><path fill="currentColor" d="m20.475 23.3l-1.3-1.3H4v-2h2v-3q0-1.525.713-2.863T8.7 12q-.8-.5-1.362-1.2t-.913-1.55L.675 3.5L2.1 2.075l19.8 19.8zM15.05 12.15l-1.5-1.475q1.125-.475 1.788-1.475T16 7V4H8v1.125L6.875 4l-2-2H20v2h-2v3q0 1.6-.775 2.975T15.05 12.15M8 20h8v-1.175L10.475 13.3q-1.125.475-1.8 1.475T8 17zm10 0"/></symbol><symbol id="hd-icon-material-symbols-hourglass-disabled-rounded" viewBox="0 0 24 24"><path fill="currentColor" d="m19.775 22.575l-.6-.575H5q-.425 0-.712-.288T4 21t.288-.712T5 20h1v-3q0-1.525.713-2.863T8.7 12q-.8-.5-1.362-1.2t-.913-1.55L1.375 4.2q-.3-.3-.3-.712t.3-.713t.713-.3t.712.3l18.4 18.4q.3.3.3.7t-.3.7t-.712.3t-.713-.3M16 4H7.3q-.5 0-.75-.312T6.3 3t.25-.687T7.3 2H19q.425 0 .713.288T20 3t-.288.713T19 4h-1v3q0 1.375-.575 2.613t-1.65 2.062q-.275.225-.65.088t-.575-.488t-.137-.725t.337-.65q.575-.575.913-1.325T16 7zM8 20h8v-1.175L10.475 13.3q-1.125.475-1.8 1.475T8 17zm10 0"/></symbol><symbol id="hd-icon-material-symbols-hourglass-empty" viewBox="0 0 24 24"><path fill="currentColor" d="M8 20h8v-3q0-1.65-1.175-2.825T12 13t-2.825 1.175T8 17zm4-9q1.65 0 2.825-1.175T16 7V4H8v3q0 1.65 1.175 2.825T12 11M4 22v-2h2v-3q0-1.525.713-2.863T8.7 12q-1.275-.8-1.987-2.137T6 7V4H4V2h16v2h-2v3q0 1.525-.712 2.863T15.3 12q1.275.8 1.988 2.138T18 17v3h2v2z"/></symbol><symbol id="hd-icon-material-symbols-hourglass-empty-rounded" viewBox="0 0 24 24"><path fill="currentColor" d="M8 20h8v-3q0-1.65-1.175-2.825T12 13t-2.825 1.175T8 17zm4-9q1.65 0 2.825-1.175T16 7V4H8v3q0 1.65 1.175 2.825T12 11M5 22q-.425 0-.712-.288T4 21t.288-.712T5 20h1v-3q0-1.525.713-2.863T8.7 12q-1.275-.8-1.987-2.137T6 7V4H5q-.425 0-.712-.288T4 3t.288-.712T5 2h14q.425 0 .713.288T20 3t-.288.713T19 4h-1v3q0 1.525-.712 2.863T15.3 12q1.275.8 1.988 2.138T18 17v3h1q.425 0 .713.288T20 21t-.288.713T19 22z"/></symbol><symbol id="hd-icon-material-symbols-hourglass-outline" viewBox="0 0 24 24"><path fill="currentColor" d="M8 20h8v-3q0-1.65-1.175-2.825T12 13t-2.825 1.175T8 17zm4-9q1.65 0 2.825-1.175T16 7V4H8v3q0 1.65 1.175 2.825T12 11M4 22v-2h2v-3q0-1.525.713-2.863T8.7 12q-1.275-.8-1.987-2.137T6 7V4H4V2h16v2h-2v3q0 1.525-.712 2.863T15.3 12q1.275.8 1.988 2.138T18 17v3h2v2zm8-18"/></symbol><symbol id="hd-icon-material-symbols-hourglass-outline-rounded" viewBox="0 0 24 24"><path fill="currentColor" d="M8 20h8v-3q0-1.65-1.175-2.825T12 13t-2.825 1.175T8 17zm4-9q1.65 0 2.825-1.175T16 7V4H8v3q0 1.65 1.175 2.825T12 11M5 22q-.425 0-.712-.288T4 21t.288-.712T5 20h1v-3q0-1.525.713-2.863T8.7 12q-1.275-.8-1.987-2.137T6 7V4H5q-.425 0-.712-.288T4 3t.288-.712T5 2h14q.425 0 .713.288T20 3t-.288.713T19 4h-1v3q0 1.525-.712 2.863T15.3 12q1.275.8 1.988 2.138T18 17v3h1q.425 0 .713.288T20 21t-.288.713T19 22zm7-18"/></symbol><symbol id="hd-icon-material-symbols-hourglass-pause" viewBox="0 0 24 24"><path fill="currentColor" d="M4 22v-2h2v-3q0-1.525.713-2.863T8.7 12q-1.275-.8-1.987-2.137T6 7V4H4V2h16v2h-2v3q0 1.2-.45 2.3t-1.275 1.925q-1.175.3-2.137.938T12.475 13.7t-1.087 2T11 18q0 1.075.325 2.1t.95 1.9zm14 1q-2.075 0-3.537-1.463T13 18t1.463-3.537T18 13t3.538 1.463T23 18t-1.463 3.538T18 23m-1.75-3h1v-4h-1zm2.5 0h1v-4h-1z"/></symbol><symbol id="hd-icon-material-symbols-hourglass-pause-outline" viewBox="0 0 24 24"><path fill="currentColor" d="M4 22v-2h2v-3q0-1.525.713-2.863T8.7 12q-1.275-.8-1.987-2.137T6 7V4H4V2h16v2h-2v3q0 1.2-.45 2.3t-1.275 1.925q-.95.25-1.775.725T13 13.125q-.25-.05-.487-.087T12 13q-1.65 0-2.825 1.175T8 17v3h3.3q.175.55.413 1.05t.562.95zm8-11q1.65 0 2.825-1.175T16 7V4H8v3q0 1.65 1.175 2.825T12 11m6.75 9h1v-4h-1zm-2.5 0h1v-4h-1zM18 23q-2.075 0-3.537-1.463T13 18t1.463-3.537T18 13t3.538 1.463T23 18t-1.463 3.538T18 23M12 4"/></symbol><symbol id="hd-icon-material-symbols-hourglass-pause-outline-rounded" viewBox="0 0 24 24"><path fill="currentColor" d="M6 20v-3q0-1.525.713-2.863T8.7 12q-1.275-.8-1.987-2.137T6 7V4H5q-.425 0-.712-.288T4 3t.288-.712T5 2h14q.425 0 .713.288T20 3t-.288.713T19 4h-1v3q0 1.2-.45 2.3t-1.275 1.925q-.95.25-1.775.725T13 13.125q-.25-.05-.487-.087T12 13q-1.65 0-2.825 1.175T8 17v3h3.3q.175.55.413 1.05t.562.95H5q-.425 0-.712-.288T4 21t.288-.712T5 20zm6-9q1.65 0 2.825-1.175T16 7V4H8v3q0 1.65 1.175 2.825T12 11m7.25 5q-.2 0-.35.15t-.15.35v3q0 .2.15.35t.35.15t.35-.15t.15-.35v-3q0-.2-.15-.35t-.35-.15m-2.5 4q.2 0 .35-.15t.15-.35v-3q0-.2-.15-.35t-.35-.15t-.35.15t-.15.35v3q0 .2.15.35t.35.15M18 23q-2.075 0-3.537-1.463T13 18t1.463-3.537T18 13t3.538 1.463T23 18t-1.463 3.538T18 23M12 4"/></symbol><symbol id="hd-icon-material-symbols-hourglass-pause-rounded" viewBox="0 0 24 24"><path fill="currentColor" d="M19.25 16q-.2 0-.35.15t-.15.35v3q0 .2.15.35t.35.15t.35-.15t.15-.35v-3q0-.2-.15-.35t-.35-.15m-2.5 4q.2 0 .35-.15t.15-.35v-3q0-.2-.15-.35t-.35-.15t-.35.15t-.15.35v3q0 .2.15.35t.35.15M5 22q-.425 0-.712-.288T4 21t.288-.712T5 20h1v-3q0-1.525.713-2.863T8.7 12q-1.275-.8-1.987-2.137T6 7V4H5q-.425 0-.712-.288T4 3t.288-.712T5 2h14q.425 0 .713.288T20 3t-.288.713T19 4h-1v3q0 1.2-.45 2.3t-1.275 1.925q-1.175.3-2.137.938T12.475 13.7t-1.087 2T11 18q0 1.075.325 2.1t.95 1.9zm13 1q-2.075 0-3.537-1.463T13 18t1.463-3.537T18 13t3.538 1.463T23 18t-1.463 3.538T18 23"/></symbol><symbol id="hd-icon-material-symbols-hourglass-rounded" viewBox="0 0 24 24"><path fill="currentColor" d="M5 22q-.425 0-.712-.288T4 21t.288-.712T5 20h1v-3q0-1.525.713-2.863T8.7 12q-1.275-.8-1.987-2.137T6 7V4H5q-.425 0-.712-.288T4 3t.288-.712T5 2h14q.425 0 .713.288T20 3t-.288.713T19 4h-1v3q0 1.525-.712 2.863T15.3 12q1.275.8 1.988 2.138T18 17v3h1q.425 0 .713.288T20 21t-.288.713T19 22z"/></symbol><symbol id="hd-icon-material-symbols-hourglass-top" viewBox="0 0 24 24"><path fill="currentColor" d="M8 20h8v-3q0-1.65-1.175-2.825T12 13t-2.825 1.175T8 17zm-4 2v-2h2v-3q0-1.525.713-2.863T8.7 12q-1.275-.8-1.987-2.137T6 7V4H4V2h16v2h-2v3q0 1.525-.712 2.863T15.3 12q1.275.8 1.988 2.138T18 17v3h2v2z"/></symbol><symbol id="hd-icon-material-symbols-hourglass-top-rounded" viewBox="0 0 24 24"><path fill="currentColor" d="M8 20h8v-3q0-1.65-1.175-2.825T12 13t-2.825 1.175T8 17zm-3 2q-.425 0-.712-.288T4 21t.288-.712T5 20h1v-3q0-1.525.713-2.863T8.7 12q-1.275-.8-1.987-2.137T6 7V4H5q-.425 0-.712-.288T4 3t.288-.712T5 2h14q.425 0 .713.288T20 3t-.288.713T19 4h-1v3q0 1.525-.712 2.863T15.3 12q1.275.8 1.988 2.138T18 17v3h1q.425 0 .713.288T20 21t-.288.713T19 22z"/></symbol><symbol id="hd-icon-material-symbols-house" viewBox="0 0 24 24"><path fill="currentColor" d="M5 20v-9.15L2.2 13L1 11.4L12 3l4 3.05V4h3v4.35l4 3.05l-1.2 1.6l-2.8-2.15V20h-5v-6h-4v6zm5-9.975h4q0-.8-.6-1.313T12 8.2t-1.4.513t-.6 1.312"/></symbol><symbol id="hd-icon-material-symbols-house-outline" viewBox="0 0 24 24"><path fill="currentColor" d="M5 20v-9.15L2.2 13L1 11.4L12 3l4 3.05V4h3v4.35l4 3.05l-1.2 1.6l-2.8-2.15V20h-6v-6h-2v6zm2-2h2v-6h6v6h2V9.325l-5-3.8l-5 3.8zm3-7.975h4q0-.8-.6-1.313T12 8.2t-1.4.513t-.6 1.312M9 18v-6h6v6v-6H9z"/></symbol><symbol id="hd-icon-material-symbols-house-outline-rounded" viewBox="0 0 24 24"><path fill="currentColor" d="M7 20q-.825 0-1.412-.587T5 18v-7.15l-2 1.525q-.35.25-.75.213T1.6 12.2t-.2-.75t.4-.65l8.975-6.875q.275-.2.588-.3t.637-.1t.638.1t.587.3L16 6.05V5.5q0-.625.438-1.062T17.5 4t1.063.438T19 5.5v2.85l3.2 2.45q.325.25.388.65t-.188.75t-.65.388t-.75-.213l-2-1.525V18q0 .825-.587 1.413T17 20h-2q-.825 0-1.412-.587T13 18v-4h-2v4q0 .825-.587 1.413T9 20zm0-2h2v-4q0-.825.588-1.412T11 12h2q.825 0 1.413.588T15 14v4h2V9.325l-5-3.8l-5 3.8zm3-7.975h4q0-.8-.6-1.313T12 8.2t-1.4.513t-.6 1.312M9 18v-4q0-.825.588-1.412T11 12h2q.825 0 1.413.588T15 14v4v-4q0-.825-.587-1.412T13 12h-2q-.825 0-1.412.588T9 14z"/></symbol><symbol id="hd-icon-material-symbols-house-rounded" viewBox="0 0 24 24"><path fill="currentColor" d="M7 20q-.825 0-1.412-.587T5 18v-7.15l-2 1.525q-.35.25-.75.213T1.6 12.2t-.2-.75t.4-.65l8.975-6.875q.275-.2.588-.3t.637-.1t.638.1t.587.3L16 6.05V5.5q0-.625.438-1.062T17.5 4t1.063.438T19 5.5v2.85l3.2 2.45q.325.25.388.65t-.188.75t-.65.388t-.75-.213l-2-1.525V18q0 .825-.587 1.413T17 20h-1q-.825 0-1.412-.587T14 18v-2q0-.825-.587-1.412T12 14t-1.412.588T10 16v2q0 .825-.587 1.413T8 20zm3-9.975h4q0-.8-.6-1.313T12 8.2t-1.4.513t-.6 1.312"/></symbol></svg>