<svg xmlns="http://www.w3.org/2000/svg" xmlns:xlink="http://www.w3.org/1999/xlink"><symbol id="hd-icon-material-symbols-close-fullscreen-rounded" viewBox="0 0 24 24"><path fill="currentColor" d="m10 15.4l-5.9 5.9q-.275.275-.7.275t-.7-.275t-.275-.7t.275-.7L8.6 14H5q-.425 0-.712-.288T4 13t.288-.712T5 12h6q.425 0 .713.288T12 13v6q0 .425-.288.713T11 20t-.712-.288T10 19zm5.4-5.4H19q.425 0 .713.288T20 11t-.288.713T19 12h-6q-.425 0-.712-.288T12 11V5q0-.425.288-.712T13 4t.713.288T14 5v3.6l5.9-5.9q.275-.275.7-.275t.7.275t.275.7t-.275.7z"/></symbol><symbol id="hd-icon-material-symbols-close-rounded" viewBox="0 0 24 24"><path fill="currentColor" d="m12 13.4l-4.9 4.9q-.275.275-.7.275t-.7-.275t-.275-.7t.275-.7l4.9-4.9l-4.9-4.9q-.275-.275-.275-.7t.275-.7t.7-.275t.7.275l4.9 4.9l4.9-4.9q.275-.275.7-.275t.7.275t.275.7t-.275.7L13.4 12l4.9 4.9q.275.275.275.7t-.275.7t-.7.275t-.7-.275z"/></symbol><symbol id="hd-icon-material-symbols-close-small" viewBox="0 0 24 24"><path fill="currentColor" d="m8.382 17.025l-1.407-1.4L10.593 12L6.975 8.4L8.382 7L12 10.615L15.593 7L17 8.4L13.382 12L17 15.625l-1.407 1.4L12 13.41z"/></symbol><symbol id="hd-icon-material-symbols-close-small-outline" viewBox="0 0 24 24"><path fill="currentColor" d="M8.4 17L7 15.6l3.6-3.6L7 8.425l1.4-1.4l3.6 3.6l3.575-3.6l1.4 1.4l-3.6 3.575l3.6 3.6l-1.4 1.4L12 13.4z"/></symbol><symbol id="hd-icon-material-symbols-close-small-outline-rounded" viewBox="0 0 24 24"><path fill="currentColor" d="m12 13.4l-2.9 2.9q-.275.275-.7.275t-.7-.275t-.275-.7t.275-.7l2.9-2.9l-2.9-2.875q-.275-.275-.275-.7t.275-.7t.7-.275t.7.275l2.9 2.9l2.875-2.9q.275-.275.7-.275t.7.275q.3.3.3.713t-.3.687L13.375 12l2.9 2.9q.275.275.275.7t-.275.7q-.3.3-.712.3t-.688-.3z"/></symbol><symbol id="hd-icon-material-symbols-close-small-rounded" viewBox="0 0 24 24"><path fill="currentColor" d="m12 13.4l-2.917 2.925q-.277.275-.704.275t-.704-.275q-.275-.275-.275-.7t.275-.7L10.6 12L7.675 9.108Q7.4 8.831 7.4 8.404t.275-.704q.275-.275.7-.275t.7.275L12 10.625L14.892 7.7q.277-.275.704-.275t.704.275q.3.3.3.713t-.3.687L13.375 12l2.925 2.917q.275.277.275.704t-.275.704q-.3.3-.712.3t-.688-.3z"/></symbol><symbol id="hd-icon-material-symbols-closed-caption" viewBox="0 0 24 24"><path fill="currentColor" d="M5 20q-.825 0-1.412-.587T3 18V6q0-.825.588-1.412T5 4h14q.825 0 1.413.588T21 6v12q0 .825-.587 1.413T19 20zm2-5h3q.425 0 .713-.288T11 14v-1H9.5v.5h-2v-3h2v.5H11v-1q0-.425-.288-.712T10 9H7q-.425 0-.712.288T6 10v4q0 .425.288.713T7 15m7 0h3q.425 0 .713-.288T18 14v-1h-1.5v.5h-2v-3h2v.5H18v-1q0-.425-.288-.712T17 9h-3q-.425 0-.712.288T13 10v4q0 .425.288.713T14 15"/></symbol><symbol id="hd-icon-material-symbols-closed-caption-add" viewBox="0 0 24 24"><path fill="currentColor" d="M5 20q-.825 0-1.412-.587T3 18V6q0-.825.588-1.412T5 4h14q.825 0 1.413.588T21 6v8.1q-.5-.125-1-.125t-1 .125q-.725.15-1.375.513t-1.15.862t-.862 1.15T15.1 18q-.1.5-.1 1t.1 1zm14 2v-2h-2v-2h2v-2h2v2h2v2h-2v2zM7 15h3q.425 0 .713-.288T11 14v-1H9.5v.5h-2v-3h2v.5H11v-1q0-.425-.288-.712T10 9H7q-.425 0-.712.288T6 10v4q0 .425.288.713T7 15m7 0h3.025q.125-.1.238-.175t.212-.125t.2-.112t.2-.113q.05-.125.087-.238T18 14v-1h-1.5v.5h-2v-3h2v.5H18v-1q0-.425-.288-.712T17 9h-3q-.425 0-.712.288T13 10v4q0 .425.288.713T14 15"/></symbol><symbol id="hd-icon-material-symbols-closed-caption-add-outline" viewBox="0 0 24 24"><path fill="currentColor" d="M15 20H5q-.825 0-1.412-.587T3 18V6q0-.825.588-1.412T5 4h14q.825 0 1.413.588T21 6v8h-2V6H5v12h10zm4 2v-2h-2v-2h2v-2h2v2h2v2h-2v2zM7 15h3q.425 0 .713-.288T11 14v-1H9.5v.5h-2v-3h2v.5H11v-1q0-.425-.288-.712T10 9H7q-.425 0-.712.288T6 10v4q0 .425.288.713T7 15m7 0h3q.425 0 .713-.288T18 14v-1h-1.5v.5h-2v-3h2v.5H18v-1q0-.425-.288-.712T17 9h-3q-.425 0-.712.288T13 10v4q0 .425.288.713T14 15"/></symbol><symbol id="hd-icon-material-symbols-closed-caption-add-outline-rounded" viewBox="0 0 24 24"><path fill="currentColor" d="M5 20q-.825 0-1.412-.587T3 18V6q0-.825.588-1.412T5 4h14q.825 0 1.413.588T21 6v7q0 .425-.288.713T20 14t-.712-.288T19 13V6H5v12h9q.425 0 .713.288T15 19t-.288.713T14 20zm14 0h-1q-.425 0-.712-.288T17 19t.288-.712T18 18h1v-1q0-.425.288-.712T20 16t.713.288T21 17v1h1q.425 0 .713.288T23 19t-.288.713T22 20h-1v1q0 .425-.288.713T20 22t-.712-.288T19 21zm-5-5h3q.425 0 .713-.288T18 14v-.55q0-.325-.213-.537t-.537-.213t-.537.213t-.213.537v.05h-2v-3h2v.05q0 .325.213.538t.537.212t.538-.213t.212-.537V10q0-.425-.288-.712T17 9h-3q-.425 0-.712.288T13 10v4q0 .425.288.713T14 15m-7 0h3q.425 0 .713-.288T11 14v-.55q0-.325-.213-.537t-.537-.213t-.537.213t-.213.537v.05h-2v-3h2v.05q0 .325.213.538t.537.212t.538-.213t.212-.537V10q0-.425-.288-.712T10 9H7q-.425 0-.712.288T6 10v4q0 .425.288.713T7 15"/></symbol><symbol id="hd-icon-material-symbols-closed-caption-add-outline-sharp" viewBox="0 0 24 24"><path fill="currentColor" d="M15 20H3V4h18v10h-2V6H5v12h10zm4 2v-2h-2v-2h2v-2h2v2h2v2h-2v2zM6 15h5v-2H9.5v.5h-2v-3h2v.5H11V9H6zm7 0h5v-2h-1.5v.5h-2v-3h2v.5H18V9h-5z"/></symbol><symbol id="hd-icon-material-symbols-closed-caption-add-rounded" viewBox="0 0 24 24"><path fill="currentColor" d="M14 15h3q.125-.1.238-.175t.212-.125t.2-.112t.2-.113q.05-.125.087-.238t.038-.237l.025-.55q0-.325-.213-.538t-.537-.212t-.537.213t-.213.537v.05h-2v-3h2v.05q0 .325.213.538t.537.212t.538-.213t.212-.537V10q0-.425-.288-.712T17 9h-3q-.425 0-.712.288T13 10v4q0 .425.288.713T14 15m-9 5q-.825 0-1.412-.587T3 18V6q0-.825.588-1.412T5 4h14q.825 0 1.413.588T21 6v7.35q0 .275-.225.488T20.25 14q-1.05-.05-2.05.35t-1.725 1.125q-.775.775-1.15 1.75T15 19.25q.025.3-.175.525T14.35 20zm14 0h-1q-.425 0-.712-.288T17 19t.288-.712T18 18h1v-1q0-.425.288-.712T20 16t.713.288T21 17v1h1q.425 0 .713.288T23 19t-.288.713T22 20h-1v1q0 .425-.288.713T20 22t-.712-.288T19 21zM7 15h3q.425 0 .713-.288T11 14v-.55q0-.325-.213-.537t-.537-.213t-.537.213t-.213.537v.05h-2v-3h2v.05q0 .325.213.538t.537.212t.538-.213t.212-.537V10q0-.425-.288-.712T10 9H7q-.425 0-.712.288T6 10v4q0 .425.288.713T7 15"/></symbol><symbol id="hd-icon-material-symbols-closed-caption-add-sharp" viewBox="0 0 24 24"><path fill="currentColor" d="M13 15h4q.225-.175.475-.312t.525-.263V13h-1.5v.5h-2v-3h2v.5H18V9h-5zm-7 0h5v-2H9.5v.5h-2v-3h2v.5H11V9H6zm-1 5q-.825 0-1.412-.587T3 18V6q0-.825.588-1.412T5 4h14q.825 0 1.413.588T21 6v8.1q-1.225-.275-2.437.113t-2.088 1.262q-.9.9-1.263 2.088T15.1 20zm14 2v-2h-2v-2h2v-2h2v2h2v2h-2v2z"/></symbol><symbol id="hd-icon-material-symbols-closed-caption-disabled" viewBox="0 0 24 24"><path fill="currentColor" d="m20.475 23.3l-3.3-3.3H5q-.825 0-1.412-.587T3 18V5.825L.675 3.5L2.1 2.075l19.8 19.8zM21 18.125l-3.35-3.35q.175-.125.263-.337T18 14v-1h-1.5v.5h-.125L14.5 11.625V10.5h2v.5H18v-1q0-.425-.288-.712T17 9h-3q-.425 0-.712.288T13 10v.125L6.875 4H19q.825 0 1.413.588T21 6zM7 15h3q.425 0 .713-.288T11 14v-.175L10.175 13H9.5v.5h-2v-3.175L6.375 9.2q-.175.125-.275.338T6 10v4q0 .425.288.713T7 15"/></symbol><symbol id="hd-icon-material-symbols-closed-caption-disabled-outline" viewBox="0 0 24 24"><path fill="currentColor" d="m9.025 9l1.5 1.5H7.5v3h2V13H11v1q0 .425-.288.713T10 15H7q-.425 0-.712-.288T6 14v-4q0-.425.288-.712T7 9zm-2.15-5H19q.825 0 1.413.588T21 6v12.125l-2-2V6H8.875zM18 13v1q0 .225-.088.438t-.262.337L16.375 13.5h.125V13zm-1.5-2v-.5h-2v1.125l-1.5-1.5V10q0-.425.288-.712T14 9h3q.425 0 .713.288T18 10v1zM4.2 4.175L6.025 6H5v12h10.175L.675 3.5L2.1 2.075l19.8 19.8l-1.425 1.425l-3.3-3.3H5q-.825 0-1.412-.587T3 18V6q0-.625.338-1.112t.862-.713"/></symbol><symbol id="hd-icon-material-symbols-closed-caption-disabled-outline-rounded" viewBox="0 0 24 24"><path fill="currentColor" d="m9.025 9l1.5 1.5H7.5v3h2q0-.225.15-.375t.375-.15h.45q.225 0 .375.15t.15.375v.5q0 .425-.288.713T10 15H7q-.425 0-.712-.288T6 14v-4q0-.425.288-.712T7 9zM21 6v10q0 .5-.325.763t-.7.262t-.675-.262T19 16V6H8.975q-.5 0-.75-.312T7.975 5t.25-.687t.75-.313H19q.825 0 1.413.588T21 6m-3 8q0 .225-.088.438t-.262.337L16.375 13.5h.125q0-.225.15-.375t.375-.15h.45q.225 0 .375.15t.15.375zm-1-5q.425 0 .713.288T18 10v.5q0 .225-.15.375t-.375.15h-.45q-.225 0-.375-.15t-.15-.375h-2v1.125l-1.5-1.5V10q0-.425.288-.712T14 9zM5 20q-.825 0-1.412-.587T3 18V6q0-.625.338-1.112t.862-.713L6.025 6H5v12h10.175L1.375 4.225q-.3-.3-.3-.712t.3-.713t.713-.3t.712.3l18.375 18.375q.3.3.3.713t-.3.712t-.712.3t-.713-.3L17.175 20z"/></symbol><symbol id="hd-icon-material-symbols-closed-caption-disabled-outline-sharp" viewBox="0 0 24 24"><path fill="currentColor" d="m9.025 9l1.5 1.5H7.5v3h2V13H11v2H6V9zm-2.15-5H21v14.125l-2-2V6H8.875zM18 13v2h-.125l-1.5-1.5h.125V13zm-1.5-2v-.5h-2v1.125l-1.5-1.5V9h5v2zm-6.4 1.925V12.9zm-5.9-8.75L6.025 6H5v12h10.175L.675 3.5L2.1 2.075l19.8 19.8l-1.425 1.425l-3.3-3.3H3V4.175z"/></symbol><symbol id="hd-icon-material-symbols-closed-caption-disabled-rounded" viewBox="0 0 24 24"><path fill="currentColor" d="M19.775 22.575L17.175 20H5q-.825 0-1.412-.587T3 18V5.825L1.375 4.2q-.3-.3-.3-.713t.3-.712t.713-.3t.712.3l18.4 18.4q.3.3.3.7t-.3.7t-.712.3t-.713-.3M7 15h3q.425 0 .713-.288T11 14v-.625q0-.2-.15-.35t-.35-.15H10q-.2 0-.35.15t-.15.35v.125h-2v-3.175L6.375 9.2v.025Q6.2 9.35 6.1 9.55T6 10v4q0 .425.288.713T7 15m14-9v9.7q0 .675-.612.938t-1.088-.213l-1.65-1.65q.175-.125.263-.337T18 14v-.5q0-.2-.15-.35T17.5 13H17q-.2 0-.35.15t-.15.35h-.125L14.5 11.625V10.5h2v.125q0 .2.15.35t.35.15h.5q.2 0 .35-.15t.15-.35V10q0-.425-.288-.712T17 9h-3q-.425 0-.712.288T13 10v.125L8.575 5.7q-.475-.475-.212-1.088T9.3 4H19q.825 0 1.413.588T21 6"/></symbol><symbol id="hd-icon-material-symbols-closed-caption-disabled-sharp" viewBox="0 0 24 24"><path fill="currentColor" d="M3 20V5.825L.675 3.5L2.1 2.075l19.8 19.8l-1.425 1.425l-3.3-3.3zm18-1.875L17.875 15H18v-2h-1.5v.5h-.125L14.5 11.625V10.5h2v.5H18V9h-5v1.125L6.875 4H21zM6 15h5v-1.175L10.175 13H9.5v.5h-2v-3.175L6.375 9.2H6z"/></symbol><symbol id="hd-icon-material-symbols-closed-caption-outline" viewBox="0 0 24 24"><path fill="currentColor" d="M5 20q-.825 0-1.412-.587T3 18V6q0-.825.588-1.412T5 4h14q.825 0 1.413.588T21 6v12q0 .825-.587 1.413T19 20zm0-2h14V6H5zm2-3h3q.425 0 .713-.288T11 14v-1H9.5v.5h-2v-3h2v.5H11v-1q0-.425-.288-.712T10 9H7q-.425 0-.712.288T6 10v4q0 .425.288.713T7 15m7 0h3q.425 0 .713-.288T18 14v-1h-1.5v.5h-2v-3h2v.5H18v-1q0-.425-.288-.712T17 9h-3q-.425 0-.712.288T13 10v4q0 .425.288.713T14 15m-9 3V6z"/></symbol><symbol id="hd-icon-material-symbols-closed-caption-outline-rounded" viewBox="0 0 24 24"><path fill="currentColor" d="M5 20q-.825 0-1.412-.587T3 18V6q0-.825.588-1.412T5 4h14q.825 0 1.413.588T21 6v12q0 .825-.587 1.413T19 20zm0-2h14V6H5zm2-3h3q.425 0 .713-.288T11 14v-.5q0-.225-.15-.375t-.375-.15h-.45q-.225 0-.375.15t-.15.375h-2v-3h2q0 .225.15.375t.375.15h.45q.225 0 .375-.15T11 10.5V10q0-.425-.288-.712T10 9H7q-.425 0-.712.288T6 10v4q0 .425.288.713T7 15m10-6h-3q-.425 0-.712.288T13 10v4q0 .425.288.713T14 15h3q.425 0 .713-.288T18 14v-.5q0-.225-.15-.375t-.375-.15h-.45q-.225 0-.375.15t-.15.375h-2v-3h2q0 .225.15.375t.375.15h.45q.225 0 .375-.15T18 10.5V10q0-.425-.288-.712T17 9M5 18V6z"/></symbol><symbol id="hd-icon-material-symbols-closed-caption-outline-sharp" viewBox="0 0 24 24"><path fill="currentColor" d="M3 20V4h18v16zm2-2h14V6H5zm1-3h5v-2H9.5v.5h-2v-3h2v.5H11V9H6zm7 0h5v-2h-1.5v.5h-2v-3h2v.5H18V9h-5zm-8 3V6z"/></symbol><symbol id="hd-icon-material-symbols-closed-caption-rounded" viewBox="0 0 24 24"><path fill="currentColor" d="M5 20q-.825 0-1.412-.587T3 18V6q0-.825.588-1.412T5 4h14q.825 0 1.413.588T21 6v12q0 .825-.587 1.413T19 20zm2-5h3q.425 0 .713-.288T11 14v-.5q0-.225-.15-.375t-.375-.15h-.45q-.225 0-.375.15t-.15.375h-2v-3h2q0 .225.15.375t.375.15h.45q.225 0 .375-.15T11 10.5V10q0-.425-.288-.712T10 9H7q-.425 0-.712.288T6 10v4q0 .425.288.713T7 15m10-6h-3q-.425 0-.712.288T13 10v4q0 .425.288.713T14 15h3q.425 0 .713-.288T18 14v-.5q0-.225-.15-.375t-.375-.15h-.45q-.225 0-.375.15t-.15.375h-2v-3h2q0 .225.15.375t.375.15h.45q.225 0 .375-.15T18 10.5V10q0-.425-.288-.712T17 9"/></symbol><symbol id="hd-icon-material-symbols-closed-caption-sharp" viewBox="0 0 24 24"><path fill="currentColor" d="M3 20V4h18v16zm3-5h5v-2H9.5v.5h-2v-3h2v.5H11V9H6zm7 0h5v-2h-1.5v.5h-2v-3h2v.5H18V9h-5z"/></symbol><symbol id="hd-icon-material-symbols-cloud" viewBox="0 0 24 24"><path fill="currentColor" d="M6.5 20q-2.275 0-3.887-1.575T1 14.575q0-1.95 1.175-3.475T5.25 9.15q.625-2.3 2.5-3.725T12 4q2.925 0 4.963 2.038T19 11q1.725.2 2.863 1.488T23 15.5q0 1.875-1.312 3.188T18.5 20z"/></symbol><symbol id="hd-icon-material-symbols-cloud-alert" viewBox="0 0 24 24"><path fill="currentColor" d="M6.5 20q-2.275 0-3.887-1.575T1 14.575q0-1.95 1.175-3.475T5.25 9.15q.625-2.3 2.5-3.725T12 4q2.925 0 4.963 2.038T19 11q1.725.2 2.863 1.488T23 15.5q0 1.875-1.312 3.188T18.5 20zm5.5-4q.425 0 .713-.288T13 15t-.288-.712T12 14t-.712.288T11 15t.288.713T12 16m-1-3.5h2V8h-2z"/></symbol><symbol id="hd-icon-material-symbols-cloud-alert-outline" viewBox="0 0 24 24"><path fill="currentColor" d="M6.5 20q-2.275 0-3.887-1.575T1 14.575q0-1.95 1.175-3.475T5.25 9.15q.625-2.3 2.5-3.725T12 4q2.925 0 4.963 2.038T19 11q1.725.2 2.863 1.488T23 15.5q0 1.875-1.312 3.188T18.5 20zm0-2h12q1.05 0 1.775-.725T21 15.5t-.725-1.775T18.5 13H17v-2q0-2.075-1.463-3.538T12 6T8.463 7.463T7 11h-.5q-1.45 0-2.475 1.025T3 14.5t1.025 2.475T6.5 18m5.5-2q.425 0 .713-.288T13 15t-.288-.712T12 14t-.712.288T11 15t.288.713T12 16m-1-3.5h2V8h-2z"/></symbol><symbol id="hd-icon-material-symbols-cloud-alert-outline-rounded" viewBox="0 0 24 24"><path fill="currentColor" d="M6.5 20q-2.275 0-3.887-1.575T1 14.575q0-1.95 1.175-3.475T5.25 9.15q.625-2.3 2.5-3.725T12 4q2.925 0 4.963 2.038T19 11q1.725.2 2.863 1.488T23 15.5q0 1.875-1.312 3.188T18.5 20zm0-2h12q1.05 0 1.775-.725T21 15.5t-.725-1.775T18.5 13H17v-2q0-2.075-1.463-3.538T12 6T8.463 7.463T7 11h-.5q-1.45 0-2.475 1.025T3 14.5t1.025 2.475T6.5 18m5.5-2q.425 0 .713-.288T13 15t-.288-.712T12 14t-.712.288T11 15t.288.713T12 16m0-3.5q.425 0 .713-.288T13 11.5V9q0-.425-.288-.712T12 8t-.712.288T11 9v2.5q0 .425.288.713T12 12.5"/></symbol><symbol id="hd-icon-material-symbols-cloud-alert-outline-sharp" viewBox="0 0 24 24"><path fill="currentColor" d="M6.5 20q-2.275 0-3.887-1.575T1 14.575q0-1.95 1.175-3.475T5.25 9.15q.625-2.3 2.5-3.725T12 4q2.925 0 4.963 2.038T19 11q1.725.2 2.863 1.488T23 15.5q0 1.875-1.312 3.188T18.5 20zm0-2h12q1.05 0 1.775-.725T21 15.5t-.725-1.775T18.5 13H17v-2q0-2.075-1.463-3.538T12 6T8.463 7.463T7 11h-.5q-1.45 0-2.475 1.025T3 14.5t1.025 2.475T6.5 18m4.5-5.5h2V8h-2zm0 3.5h2v-2h-2z"/></symbol><symbol id="hd-icon-material-symbols-cloud-alert-rounded" viewBox="0 0 24 24"><path fill="currentColor" d="M6.5 20q-2.275 0-3.887-1.575T1 14.575q0-1.95 1.175-3.475T5.25 9.15q.625-2.3 2.5-3.725T12 4q2.925 0 4.963 2.038T19 11q1.725.2 2.863 1.488T23 15.5q0 1.875-1.312 3.188T18.5 20zm5.5-4q.425 0 .713-.288T13 15t-.288-.712T12 14t-.712.288T11 15t.288.713T12 16m0-3.5q.425 0 .713-.288T13 11.5V9q0-.425-.288-.712T12 8t-.712.288T11 9v2.5q0 .425.288.713T12 12.5"/></symbol><symbol id="hd-icon-material-symbols-cloud-alert-sharp" viewBox="0 0 24 24"><path fill="currentColor" d="M6.5 20q-2.275 0-3.887-1.575T1 14.575q0-1.95 1.175-3.475T5.25 9.15q.625-2.3 2.5-3.725T12 4q2.925 0 4.963 2.038T19 11q1.725.2 2.863 1.488T23 15.5q0 1.875-1.312 3.188T18.5 20zm4.5-7.5h2V8h-2zm0 3.5h2v-2h-2z"/></symbol><symbol id="hd-icon-material-symbols-cloud-circle" viewBox="0 0 24 24"><path fill="currentColor" d="M8.5 16H16q1.25 0 2.125-.875T19 13t-.875-2.125T16 10q-.2-1.45-1.325-2.475T12.15 6.5q-1.275 0-2.312.65T8.3 9q-1.425.125-2.363 1.088T5 12.5t1.025 2.475T8.5 16m3.5 6q-2.075 0-3.9-.788t-3.175-2.137T2.788 15.9T2 12t.788-3.9t2.137-3.175T8.1 2.788T12 2t3.9.788t3.175 2.137T21.213 8.1T22 12t-.788 3.9t-2.137 3.175t-3.175 2.138T12 22"/></symbol><symbol id="hd-icon-material-symbols-cloud-circle-outline" viewBox="0 0 24 24"><path fill="currentColor" d="M8.5 16H16q1.25 0 2.125-.875T19 13t-.875-2.125T16 10q-.2-1.45-1.325-2.475T12.15 6.5q-1.275 0-2.312.65T8.3 9q-1.425.125-2.363 1.088T5 12.5t1.025 2.475T8.5 16m0-2q-.625 0-1.062-.437T7 12.5t.438-1.062T8.5 11H10v-.5q0-.825.588-1.412T12 8.5t1.413.588T14 10.5V12h2q.425 0 .713.288T17 13t-.288.713T16 14zm3.5 8q-2.075 0-3.9-.788t-3.175-2.137T2.788 15.9T2 12t.788-3.9t2.137-3.175T8.1 2.788T12 2t3.9.788t3.175 2.137T21.213 8.1T22 12t-.788 3.9t-2.137 3.175t-3.175 2.138T12 22m0-2q3.35 0 5.675-2.325T20 12t-2.325-5.675T12 4T6.325 6.325T4 12t2.325 5.675T12 20m0-8"/></symbol><symbol id="hd-icon-material-symbols-cloud-domains" viewBox="0 0 24 24"><path fill="currentColor" d="M14.1 18q-.275 0-.425-.225q-.15-.225-.05-.475l4.425-11q.05-.15.188-.225q.137-.075.287-.075H22q.275 0 .425.225q.15.225.025.475l-4.425 11q-.05.15-.188.225Q17.7 18 17.55 18Zm-6.725 0q-.275 0-.425-.225q-.15-.225-.025-.475l4.425-11q.05-.15.188-.225q.137-.075.287-.075H15.3q.275 0 .413.225q.137.225.037.475l-4.45 11q-.05.15-.175.225Q11 18 10.85 18Zm-3.15-5.5q-.275 0-.425-.225q-.15-.225-.05-.475l1.025-2.5q.05-.15.175-.225Q5.075 9 5.225 9H7.65q.275 0 .438.225q.162.225.037.475L7.1 12.2q-.05.15-.175.225q-.125.075-.275.075ZM2 18q-.275 0-.425-.225q-.15-.225-.025-.475l1-2.5q.05-.15.175-.225Q2.85 14.5 3 14.5h2.45q.275 0 .413.225q.137.225.037.475l-1 2.5q-.05.15-.187.225q-.138.075-.288.075Z"/></symbol><symbol id="hd-icon-material-symbols-cloud-done" viewBox="0 0 24 24"><path fill="currentColor" d="M10.35 17L16 11.35L14.55 9.9l-4.225 4.225l-2.1-2.1L6.8 13.45zM6.5 20q-2.275 0-3.887-1.575T1 14.575q0-1.95 1.175-3.475T5.25 9.15q.625-2.3 2.5-3.725T12 4q2.925 0 4.963 2.038T19 11q1.725.2 2.863 1.488T23 15.5q0 1.875-1.312 3.188T18.5 20z"/></symbol><symbol id="hd-icon-material-symbols-cloud-done-outline" viewBox="0 0 24 24"><path fill="currentColor" d="M10.35 17L16 11.35L14.55 9.9l-4.225 4.225l-2.1-2.1L6.8 13.45zM6.5 20q-2.275 0-3.887-1.575T1 14.575q0-1.95 1.175-3.475T5.25 9.15q.625-2.3 2.5-3.725T12 4q2.925 0 4.963 2.038T19 11q1.725.2 2.863 1.488T23 15.5q0 1.875-1.312 3.188T18.5 20zm0-2h12q1.05 0 1.775-.725T21 15.5t-.725-1.775T18.5 13H17v-2q0-2.075-1.463-3.538T12 6T8.463 7.463T7 11h-.5q-1.45 0-2.475 1.025T3 14.5t1.025 2.475T6.5 18m5.5-6"/></symbol><symbol id="hd-icon-material-symbols-cloud-done-outline-rounded" viewBox="0 0 24 24"><path fill="currentColor" d="m10.325 14.125l-1.4-1.4q-.3-.3-.7-.3t-.7.3t-.3.713t.3.712L9.65 16.3q.3.3.7.3t.7-.3l4.225-4.225q.3-.3.3-.725t-.3-.725t-.725-.3t-.725.3zM6.5 20q-2.275 0-3.887-1.575T1 14.575q0-1.95 1.175-3.475T5.25 9.15q.625-2.3 2.5-3.725T12 4q2.925 0 4.963 2.038T19 11q1.725.2 2.863 1.488T23 15.5q0 1.875-1.312 3.188T18.5 20zm0-2h12q1.05 0 1.775-.725T21 15.5t-.725-1.775T18.5 13H17v-2q0-2.075-1.463-3.538T12 6T8.463 7.463T7 11h-.5q-1.45 0-2.475 1.025T3 14.5t1.025 2.475T6.5 18m5.5-6"/></symbol><symbol id="hd-icon-material-symbols-cloud-done-rounded" viewBox="0 0 24 24"><path fill="currentColor" d="m10.325 14.125l-1.4-1.4q-.3-.3-.7-.3t-.7.3t-.3.713t.3.712L9.65 16.3q.3.3.7.3t.7-.3l4.225-4.225q.3-.3.3-.725t-.3-.725t-.725-.3t-.725.3zM6.5 20q-2.275 0-3.887-1.575T1 14.575q0-1.95 1.175-3.475T5.25 9.15q.625-2.3 2.5-3.725T12 4q2.925 0 4.963 2.038T19 11q1.725.2 2.863 1.488T23 15.5q0 1.875-1.312 3.188T18.5 20z"/></symbol><symbol id="hd-icon-material-symbols-cloud-download" viewBox="0 0 24 24"><path fill="currentColor" d="M6.5 20q-2.275 0-3.887-1.575T1 14.575q0-1.95 1.175-3.475T5.25 9.15q.575-2.025 2.138-3.4T11 4.075v8.075L9.4 10.6L8 12l4 4l4-4l-1.4-1.4l-1.6 1.55V4.075q2.575.35 4.288 2.313T19 11q1.725.2 2.863 1.488T23 15.5q0 1.875-1.312 3.188T18.5 20z"/></symbol><symbol id="hd-icon-material-symbols-cloud-download-outline" viewBox="0 0 24 24"><path fill="currentColor" d="M6.5 20q-2.275 0-3.887-1.575T1 14.575q0-1.95 1.175-3.475T5.25 9.15q.425-1.8 2.125-3.425T11 4.1q.825 0 1.413.588T13 6.1v6.05l1.6-1.55L16 12l-4 4l-4-4l1.4-1.4l1.6 1.55V6.1q-1.9.35-2.95 1.838T7 11h-.5q-1.45 0-2.475 1.025T3 14.5t1.025 2.475T6.5 18h12q1.05 0 1.775-.725T21 15.5t-.725-1.775T18.5 13H17v-2q0-1.2-.55-2.238T15 7V4.675q1.85.875 2.925 2.588T19 11q1.725.2 2.863 1.488T23 15.5q0 1.875-1.312 3.188T18.5 20zm5.5-8.95"/></symbol><symbol id="hd-icon-material-symbols-cloud-download-outline-rounded" viewBox="0 0 24 24"><path fill="currentColor" d="M11 12.15V6.1q-1.9.35-2.95 1.838T7 11h-.5q-1.45 0-2.475 1.025T3 14.5t1.025 2.475T6.5 18h12q1.05 0 1.775-.725T21 15.5t-.725-1.775T18.5 13H17v-2q0-1.2-.55-2.238T15 7V4.675q1.85.875 2.925 2.588T19 11q1.725.2 2.863 1.488T23 15.5q0 1.875-1.312 3.188T18.5 20h-12q-2.275 0-3.887-1.575T1 14.575q0-1.95 1.175-3.475T5.25 9.15q.425-1.8 2.125-3.425T11 4.1q.825 0 1.413.588T13 6.1v6.05l.9-.875q.275-.275.688-.275t.712.3q.275.275.275.7t-.275.7l-2.6 2.6q-.3.3-.7.3t-.7-.3l-2.6-2.6q-.275-.275-.287-.687T8.7 11.3q.275-.275.688-.288t.712.263zm1-1.1"/></symbol><symbol id="hd-icon-material-symbols-cloud-download-rounded" viewBox="0 0 24 24"><path fill="currentColor" d="M6.5 20q-2.275 0-3.887-1.575T1 14.575q0-1.95 1.175-3.475T5.25 9.15q.575-2.025 2.138-3.4T11 4.075v8.075l-.9-.875Q9.825 11 9.413 11t-.713.3q-.275.275-.275.7t.275.7l2.6 2.6q.3.3.7.3t.7-.3l2.6-2.6q.275-.275.287-.687T15.3 11.3q-.275-.275-.687-.288t-.713.263l-.9.875V4.075q2.575.35 4.288 2.313T19 11q1.725.2 2.863 1.488T23 15.5q0 1.875-1.312 3.188T18.5 20z"/></symbol><symbol id="hd-icon-material-symbols-cloud-lock" viewBox="0 0 24 24"><path fill="currentColor" d="M6.5 20q-2.275 0-3.887-1.575T1 14.575q0-1.95 1.175-3.475T5.25 9.15q.625-2.3 2.5-3.725T12 4q2.65 0 4.613 1.713T18.925 10q-2.05.05-3.488 1.488T14 15v5zM17 20q-.425 0-.712-.288T16 19v-3q0-.425.288-.712T17 15v-1q0-.825.588-1.412T19 12t1.413.588T21 14v1q.425 0 .713.288T22 16v3q0 .425-.288.713T21 20zm1-5h2v-1q0-.425-.288-.712T19 13t-.712.288T18 14z"/></symbol><symbol id="hd-icon-material-symbols-cloud-lock-outline" viewBox="0 0 24 24"><path fill="currentColor" d="M14 20H6.5q-2.275 0-3.887-1.575T1 14.575q0-1.95 1.175-3.475T5.25 9.15q.625-2.3 2.5-3.725T12 4q2.65 0 4.613 1.713T18.925 10q-.525 0-1.012.113t-.938.312q-.2-1.875-1.625-3.15T12 6Q9.925 6 8.463 7.463T7 11h-.5q-1.45 0-2.475 1.025T3 14.5t1.025 2.475T6.5 18H14zm3 0q-.425 0-.712-.288T16 19v-3q0-.425.288-.712T17 15v-1q0-.825.588-1.412T19 12t1.413.588T21 14v1q.425 0 .713.288T22 16v3q0 .425-.288.713T21 20zm1-5h2v-1q0-.425-.288-.712T19 13t-.712.288T18 14z"/></symbol><symbol id="hd-icon-material-symbols-cloud-lock-outline-rounded" viewBox="0 0 24 24"><path fill="currentColor" d="M6.5 20q-2.275 0-3.887-1.575T1 14.575q0-1.95 1.175-3.475T5.25 9.15q.625-2.3 2.5-3.725T12 4q2.4 0 4.238 1.4T18.725 9q.125.425-.112.75t-.588.425t-.725-.075t-.55-.675q-.5-1.5-1.8-2.463T12 6Q9.925 6 8.463 7.463T7 11h-.5q-1.45 0-2.475 1.025T3 14.5t1.025 2.475T6.5 18H13q.425 0 .713.288T14 19t-.288.713T13 20zM17 20q-.425 0-.712-.288T16 19v-3q0-.425.288-.712T17 15v-1q0-.825.588-1.412T19 12t1.413.588T21 14v1q.425 0 .713.288T22 16v3q0 .425-.288.713T21 20zm1-5h2v-1q0-.425-.288-.712T19 13t-.712.288T18 14z"/></symbol><symbol id="hd-icon-material-symbols-cloud-lock-rounded" viewBox="0 0 24 24"><path fill="currentColor" d="M6.5 20q-2.275 0-3.887-1.575T1 14.575q0-1.95 1.175-3.475T5.25 9.15q.625-2.3 2.5-3.725T12 4q2.45 0 4.313 1.463T18.775 9.2q.075.325-.112.575t-.538.3q-1.8.325-2.963 1.713T14 15v4q0 .425-.288.713T13 20zM17 20q-.425 0-.712-.288T16 19v-3q0-.425.288-.712T17 15v-1q0-.825.588-1.412T19 12t1.413.588T21 14v1q.425 0 .713.288T22 16v3q0 .425-.288.713T21 20zm1-5h2v-1q0-.425-.288-.712T19 13t-.712.288T18 14z"/></symbol><symbol id="hd-icon-material-symbols-cloud-off" viewBox="0 0 24 24"><path fill="currentColor" d="M19.8 22.6L17.15 20H6.5q-2.3 0-3.9-1.6T1 14.5q0-1.925 1.188-3.425T5.25 9.15q.075-.2.15-.387t.15-.413L1.4 4.2l1.4-1.4l18.4 18.4zm1.8-3.85L8.05 5.225q.875-.6 1.863-.912T12 4q2.925 0 4.963 2.038T19 11q1.725.2 2.863 1.488T23 15.5q0 .975-.375 1.813T21.6 18.75"/></symbol><symbol id="hd-icon-material-symbols-cloud-off-outline" viewBox="0 0 24 24"><path fill="currentColor" d="M19.8 22.6L17.15 20H6.5q-2.3 0-3.9-1.6T1 14.5q0-1.925 1.188-3.425T5.25 9.15q.075-.2.15-.387t.15-.413L1.4 4.2l1.4-1.4l18.4 18.4zM6.5 18h8.65L7.1 9.95q-.05.275-.075.525T7 11h-.5q-1.45 0-2.475 1.025T3 14.5t1.025 2.475T6.5 18m15.1.75l-1.45-1.4q.425-.35.638-.812T21 15.5q0-1.05-.725-1.775T18.5 13H17v-2q0-2.075-1.463-3.537T12 6q-.675 0-1.3.163t-1.2.512l-1.45-1.45q.875-.6 1.863-.912T12 4q2.925 0 4.963 2.038T19 11q1.725.2 2.863 1.488T23 15.5q0 .975-.375 1.813T21.6 18.75m-6.775-6.725"/></symbol><symbol id="hd-icon-material-symbols-cloud-off-outline-rounded" viewBox="0 0 24 24"><path fill="currentColor" d="M6.5 20q-2.3 0-3.9-1.6T1 14.5q0-1.925 1.188-3.425T5.25 9.15q.075-.2.15-.387t.15-.413L2.1 4.9q-.275-.275-.275-.7t.275-.7t.7-.275t.7.275l17 17q.275.275.288.688t-.288.712q-.275.275-.687.288t-.713-.263L17.15 20zm0-2h8.65L7.1 9.95q-.05.275-.075.525T7 11h-.5q-1.45 0-2.475 1.025T3 14.5t1.025 2.475T6.5 18m15.1.75l-1.45-1.4q.425-.35.638-.812T21 15.5q0-1.05-.725-1.775T18.5 13H17v-2q0-2.075-1.463-3.537T12 6q-.675 0-1.3.163t-1.2.512l-1.45-1.45q.875-.6 1.863-.912T12 4q2.925 0 4.963 2.038T19 11q1.725.2 2.863 1.488T23 15.5q0 .975-.375 1.813T21.6 18.75m-6.775-6.725"/></symbol><symbol id="hd-icon-material-symbols-cloud-off-rounded" viewBox="0 0 24 24"><path fill="currentColor" d="M6.5 20q-2.3 0-3.9-1.6T1 14.5q0-1.925 1.188-3.425T5.25 9.15q.075-.2.15-.387t.15-.413L2.1 4.9q-.275-.275-.275-.7t.275-.7t.7-.275t.7.275l17 17q.275.275.288.688t-.288.712q-.275.275-.687.288t-.713-.263L17.15 20zm15.1-1.25L8.05 5.225q.875-.6 1.863-.912T12 4q2.925 0 4.963 2.038T19 11q1.725.2 2.863 1.488T23 15.5q0 .975-.375 1.813T21.6 18.75"/></symbol><symbol id="hd-icon-material-symbols-cloud-outline" viewBox="0 0 24 24"><path fill="currentColor" d="M6.5 20q-2.275 0-3.887-1.575T1 14.575q0-1.95 1.175-3.475T5.25 9.15q.625-2.3 2.5-3.725T12 4q2.925 0 4.963 2.038T19 11q1.725.2 2.863 1.488T23 15.5q0 1.875-1.312 3.188T18.5 20zm0-2h12q1.05 0 1.775-.725T21 15.5t-.725-1.775T18.5 13H17v-2q0-2.075-1.463-3.538T12 6T8.463 7.463T7 11h-.5q-1.45 0-2.475 1.025T3 14.5t1.025 2.475T6.5 18m5.5-6"/></symbol><symbol id="hd-icon-material-symbols-cloud-sync" viewBox="0 0 24 24"><path fill="currentColor" d="M4 20v-2h2.725q-1.275-1.1-2-2.65T4 12q0-2.8 1.7-4.937T10 4.25v2.1q-1.75.625-2.875 2.163T6 12q0 1.35.538 2.488T8 16.45V14h2v6zm11 0q-1.25 0-2.125-.875T12 17q0-1.2.825-2.062t2.025-.913q.425-.9 1.263-1.463T18 12q1.325 0 2.288.863T21.45 15q1.05 0 1.8.725t.75 1.75q0 1.05-.725 1.788T21.5 20zm2.9-9q-.175-1.025-.675-1.9T16 7.55V10h-2V4h6v2h-2.725q1.075.95 1.763 2.225T19.925 11z"/></symbol><symbol id="hd-icon-material-symbols-cloud-sync-outline" viewBox="0 0 24 24"><path fill="currentColor" d="M4 20v-2h2.725q-1.275-1.1-2-2.65T4 12q0-2.8 1.7-4.937T10 4.25v2.1q-1.75.625-2.875 2.163T6 12q0 1.35.538 2.488T8 16.45V14h2v6zm11 0q-1.25 0-2.125-.875T12 17q0-1.2.825-2.062t2.025-.913q.425-.9 1.263-1.463T18 12q1.325 0 2.288.863T21.45 15q1.05 0 1.8.725t.75 1.75q0 1.05-.725 1.788T21.5 20zm2.9-9q-.175-1.025-.675-1.9T16 7.55V10h-2V4h6v2h-2.725q1.075.95 1.763 2.225T19.925 11zM15 18h6.5q.2 0 .35-.15t.15-.35t-.15-.35t-.35-.15h-1.75v-1.25q0-.725-.513-1.237T18 14t-1.237.513t-.513 1.237V16H15q-.425 0-.712.288T14 17t.288.713T15 18m3-2"/></symbol><symbol id="hd-icon-material-symbols-cloud-sync-outline-rounded" viewBox="0 0 24 24"><path fill="currentColor" d="M6 12q0 1.35.538 2.488T8 16.45V15q0-.425.288-.712T9 14t.713.288T10 15v4q0 .425-.288.713T9 20H5q-.425 0-.712-.288T4 19t.288-.712T5 18h1.725q-1.275-1.1-2-2.65T4 12q0-2.375 1.237-4.275t3.213-2.9q.35-.2.725-.012t.5.587t-.038.775t-.512.575q-1.4.775-2.262 2.163T6 12m9 8q-1.25 0-2.125-.875T12 17q0-1.2.825-2.062t2.025-.913q.425-.9 1.263-1.463T18 12q1.325 0 2.288.863T21.45 15q1.05 0 1.8.725t.75 1.75q0 1.05-.725 1.788T21.5 20zm1-12.45V9q0 .425-.288.713T15 10t-.712-.288T14 9V5q0-.425.288-.712T15 4h4q.425 0 .713.288T20 5t-.288.713T19 6h-1.725q.825.725 1.438 1.663T19.65 9.7q.125.4-.1.725t-.65.4t-.762-.162t-.488-.638q-.25-.725-.675-1.35T16 7.55M15 18h6.5q.2 0 .35-.15t.15-.35t-.15-.35t-.35-.15h-1.75v-1.25q0-.725-.513-1.237T18 14t-1.237.513t-.513 1.237V16H15q-.425 0-.712.288T14 17t.288.713T15 18m3-2"/></symbol><symbol id="hd-icon-material-symbols-cloud-sync-rounded" viewBox="0 0 24 24"><path fill="currentColor" d="M6 12q0 1.35.538 2.488T8 16.45V15q0-.425.288-.712T9 14t.713.288T10 15v4q0 .425-.288.713T9 20H5q-.425 0-.712-.288T4 19t.288-.712T5 18h1.725q-1.275-1.1-2-2.65T4 12q0-2.375 1.237-4.275t3.213-2.9q.35-.2.725-.012t.5.587t-.038.775t-.512.575q-1.4.775-2.262 2.163T6 12m9 8q-1.25 0-2.125-.875T12 17q0-1.2.825-2.062t2.025-.913q.425-.9 1.263-1.463T18 12q1.325 0 2.288.863T21.45 15q1.05 0 1.8.725t.75 1.75q0 1.05-.725 1.788T21.5 20zm1-12.45V9q0 .425-.288.713T15 10t-.712-.288T14 9V5q0-.425.288-.712T15 4h4q.425 0 .713.288T20 5t-.288.713T19 6h-1.725q.825.725 1.438 1.663T19.65 9.7q.125.4-.1.725t-.65.4t-.762-.162t-.488-.638q-.25-.725-.675-1.35T16 7.55"/></symbol><symbol id="hd-icon-material-symbols-cloudbuild" viewBox="0 0 24 24"><path fill="currentColor" d="M9.375 15.025L8 14.25v-4.5l4-2.25l1.35.675ZM12 16.5l-1.3-.75l4-6.9l1.3.65v4.75Zm5.25-8.05L12 5.575L6.775 8.45L2.75 6.075L12 1l9.25 5.075ZM11 23l-9-5V7.375l4 2.35v5.925l5 2.75Zm2 0v-4.575l5-2.775v-5.9l4-2.375V18Z"/></symbol><symbol id="hd-icon-material-symbols-cloudy-snowing" viewBox="0 0 24 24"><path fill="currentColor" d="M6 19q-.425 0-.712-.288T5 18t.288-.712T6 17t.713.288T7 18t-.288.713T6 19m12 0q-.425 0-.712-.288T17 18t.288-.712T18 17t.713.288T19 18t-.288.713T18 19m-9 4q-.425 0-.712-.288T8 22t.288-.712T9 21t.713.288T10 22t-.288.713T9 23m3-4q-.425 0-.712-.288T11 18t.288-.712T12 17t.713.288T13 18t-.288.713T12 19m3 4q-.425 0-.712-.288T14 22t.288-.712T15 21t.713.288T16 22t-.288.713T15 23m-7.5-7q-2.275 0-3.887-1.612T2 10.5q0-2.075 1.375-3.625t3.4-1.825q.8-1.425 2.188-2.238T12 2q2.25 0 3.913 1.438t2.012 3.587q1.725.15 2.9 1.425T22 11.5q0 1.875-1.312 3.188T17.5 16z"/></symbol><symbol id="hd-icon-material-symbols-cloudy-snowing-outline" viewBox="0 0 24 24"><path fill="currentColor" d="M6 19q-.425 0-.712-.288T5 18t.288-.712T6 17t.713.288T7 18t-.288.713T6 19m12 0q-.425 0-.712-.288T17 18t.288-.712T18 17t.713.288T19 18t-.288.713T18 19m-9 4q-.425 0-.712-.288T8 22t.288-.712T9 21t.713.288T10 22t-.288.713T9 23m3-4q-.425 0-.712-.288T11 18t.288-.712T12 17t.713.288T13 18t-.288.713T12 19m3 4q-.425 0-.712-.288T14 22t.288-.712T15 21t.713.288T16 22t-.288.713T15 23m-7.5-7q-2.275 0-3.887-1.612T2 10.5q0-2.075 1.375-3.625t3.4-1.825q.8-1.425 2.188-2.238T12 2q2.25 0 3.913 1.438t2.012 3.587q1.725.15 2.9 1.425T22 11.5q0 1.875-1.312 3.188T17.5 16zm0-2h10q1.05 0 1.775-.725T20 11.5t-.725-1.775T17.5 9H16V8q0-1.65-1.175-2.825T12 4q-1.2 0-2.187.65T8.325 6.4l-.25.6H7.45q-1.425.05-2.437 1.063T4 10.5q0 1.45 1.025 2.475T7.5 14M12 9"/></symbol><symbol id="hd-icon-material-symbols-co-present" viewBox="0 0 24 24"><path fill="currentColor" d="M21 21V5H3v8H1V5q0-.825.588-1.412T3 3h18q.825 0 1.413.588T23 5v14q0 .825-.587 1.413T21 21M9 14q-1.65 0-2.825-1.175T5 10t1.175-2.825T9 6t2.825 1.175T13 10t-1.175 2.825T9 14m-8 8v-2.8q0-.85.438-1.562T2.6 16.55q1.55-.775 3.15-1.162T9 15t3.25.388t3.15 1.162q.725.375 1.163 1.088T17 19.2V22z"/></symbol><symbol id="hd-icon-material-symbols-co-present-outline" viewBox="0 0 24 24"><path fill="currentColor" d="M21 21V5H3v8H1V5q0-.825.588-1.412T3 3h18q.825 0 1.413.588T23 5v14q0 .825-.587 1.413T21 21M9 14q-1.65 0-2.825-1.175T5 10t1.175-2.825T9 6t2.825 1.175T13 10t-1.175 2.825T9 14m0-2q.825 0 1.413-.587T11 10t-.587-1.412T9 8t-1.412.588T7 10t.588 1.413T9 12M1 22v-2.8q0-.85.438-1.562T2.6 16.55q1.55-.775 3.15-1.162T9 15t3.25.388t3.15 1.162q.725.375 1.163 1.088T17 19.2V22zm2-2h12v-.8q0-.275-.137-.5t-.363-.35q-1.35-.675-2.725-1.012T9 17t-2.775.338T3.5 18.35q-.225.125-.363.35T3 19.2zm6 0"/></symbol><symbol id="hd-icon-material-symbols-co-present-outline-rounded" viewBox="0 0 24 24"><path fill="currentColor" d="M21 21V5H3v7q0 .425-.288.713T2 13t-.712-.288T1 12V5q0-.825.588-1.412T3 3h18q.825 0 1.413.588T23 5v14q0 .825-.587 1.413T21 21M9 14q-1.65 0-2.825-1.175T5 10t1.175-2.825T9 6t2.825 1.175T13 10t-1.175 2.825T9 14m0-2q.825 0 1.413-.587T11 10t-.587-1.412T9 8t-1.412.588T7 10t.588 1.413T9 12M3 22q-.825 0-1.412-.587T1 20v-.8q0-.85.438-1.562T2.6 16.55q1.55-.775 3.15-1.162T9 15t3.25.388t3.15 1.162q.725.375 1.163 1.088T17 19.2v.8q0 .825-.587 1.413T15 22zm0-2h12v-.8q0-.275-.137-.5t-.363-.35q-1.35-.675-2.725-1.012T9 17t-2.775.338T3.5 18.35q-.225.125-.363.35T3 19.2zm6 0"/></symbol><symbol id="hd-icon-material-symbols-co-present-outline-sharp" viewBox="0 0 24 24"><path fill="currentColor" d="M21 21V5H3v8H1V3h22v18zM9 14q-1.65 0-2.825-1.175T5 10t1.175-2.825T9 6t2.825 1.175T13 10t-1.175 2.825T9 14m0-2q.825 0 1.413-.587T11 10t-.587-1.412T9 8t-1.412.588T7 10t.588 1.413T9 12M1 22v-2.8q0-.85.438-1.562T2.6 16.55q1.55-.775 3.15-1.162T9 15t3.25.388t3.15 1.162q.725.375 1.163 1.088T17 19.2V22zm2-2h12v-.8q0-.275-.137-.5t-.363-.35q-1.35-.675-2.725-1.012T9 17t-2.775.338T3.5 18.35q-.225.125-.363.35T3 19.2zm6 0"/></symbol><symbol id="hd-icon-material-symbols-co-present-rounded" viewBox="0 0 24 24"><path fill="currentColor" d="M21 21V5H3v7q0 .425-.288.713T2 13t-.712-.288T1 12V5q0-.825.588-1.412T3 3h18q.825 0 1.413.588T23 5v14q0 .825-.587 1.413T21 21M9 14q-1.65 0-2.825-1.175T5 10t1.175-2.825T9 6t2.825 1.175T13 10t-1.175 2.825T9 14m-6 8q-.825 0-1.412-.587T1 20v-.8q0-.85.438-1.562T2.6 16.55q1.55-.775 3.15-1.162T9 15t3.25.388t3.15 1.162q.725.375 1.163 1.088T17 19.2v.8q0 .825-.587 1.413T15 22z"/></symbol><symbol id="hd-icon-material-symbols-co-present-sharp" viewBox="0 0 24 24"><path fill="currentColor" d="M21 21V5H3v8H1V3h22v18zM9 14q-1.65 0-2.825-1.175T5 10t1.175-2.825T9 6t2.825 1.175T13 10t-1.175 2.825T9 14m-8 8v-2.8q0-.85.438-1.562T2.6 16.55q1.55-.775 3.15-1.162T9 15t3.25.388t3.15 1.162q.725.375 1.163 1.088T17 19.2V22z"/></symbol><symbol id="hd-icon-material-symbols-co2" viewBox="0 0 24 24"><path fill="currentColor" d="M11 15q-.425 0-.712-.288T10 14v-4q0-.425.288-.712T11 9h3q.425 0 .713.288T15 10v4q0 .425-.288.713T14 15zm.5-1.5h2v-3h-2zM4 15q-.425 0-.712-.288T3 14v-4q0-.425.288-.712T4 9h3q.425 0 .713.288T8 10v1H6.5v-.5h-2v3h2V13H8v1q0 .425-.288.713T7 15zm13 3v-2.5q0-.425.288-.712T18 14.5h2v-1h-3V12h3.5q.425 0 .713.288T21.5 13v1.5q0 .425-.288.713t-.712.287h-2v1h3V18z"/></symbol><symbol id="hd-icon-material-symbols-co2-rounded" viewBox="0 0 24 24"><path fill="currentColor" d="M11 15q-.425 0-.712-.288T10 14v-4q0-.425.288-.712T11 9h3q.425 0 .713.288T15 10v4q0 .425-.288.713T14 15zm.5-1.5h2v-3h-2zm5.5 3.75V15.5q0-.425.288-.712T18 14.5h2v-1h-2.275q-.3 0-.513-.213T17 12.75q0-.3.213-.525T17.75 12h2.75q.425 0 .713.288T21.5 13v1.5q0 .425-.288.713t-.712.287h-2v1h2.25q.3 0 .525.225t.225.525q0 .325-.225.538T20.75 18h-3q-.325 0-.537-.213T17 17.25M4 15q-.425 0-.712-.288T3 14v-4q0-.425.288-.712T4 9h3q.425 0 .713.288T8 10v.525q0 .3-.225.513t-.525.212q-.325 0-.537-.213T6.5 10.5h-2v3h2q0-.3.213-.525t.537-.225q.3 0 .525.225T8 13.5v.5q0 .425-.288.713T7 15z"/></symbol><symbol id="hd-icon-material-symbols-co2-sharp" viewBox="0 0 24 24"><path fill="currentColor" d="M10 15V9h5v6zm1.5-1.5h2v-3h-2zM3 15V9h5v2H6.5v-.5h-2v3h2V13H8v2zm14 3v-3.5h3v-1h-3V12h4.5v3.5h-3v1h3V18z"/></symbol><symbol id="hd-icon-material-symbols-code" viewBox="0 0 24 24"><path fill="currentColor" d="m8 18l-6-6l6-6l1.425 1.425l-4.6 4.6L9.4 16.6zm8 0l-1.425-1.425l4.6-4.6L14.6 7.4L16 6l6 6z"/></symbol><symbol id="hd-icon-material-symbols-code-blocks" viewBox="0 0 24 24"><path fill="currentColor" d="m9.6 15.6l1.4-1.425L8.825 12L11 9.825L9.6 8.4L6 12zm4.8 0L18 12l-3.6-3.6L13 9.825L15.175 12L13 14.175zM5 21q-.825 0-1.412-.587T3 19V5q0-.825.588-1.412T5 3h14q.825 0 1.413.588T21 5v14q0 .825-.587 1.413T19 21z"/></symbol><symbol id="hd-icon-material-symbols-code-blocks-outline" viewBox="0 0 24 24"><path fill="currentColor" d="m9.6 15.6l1.4-1.425L8.825 12L11 9.825L9.6 8.4L6 12zm4.8 0L18 12l-3.6-3.6L13 9.825L15.175 12L13 14.175zM5 21q-.825 0-1.412-.587T3 19V5q0-.825.588-1.412T5 3h14q.825 0 1.413.588T21 5v14q0 .825-.587 1.413T19 21zm0-2h14V5H5zM5 5v14z"/></symbol><symbol id="hd-icon-material-symbols-code-blocks-outline-rounded" viewBox="0 0 24 24"><path fill="currentColor" d="m8.825 12l1.475-1.475q.3-.3.3-.7t-.3-.7t-.712-.3t-.713.3L6.7 11.3q-.15.15-.213.325T6.425 12t.062.375t.213.325l2.175 2.175q.3.3.713.3t.712-.3t.3-.7t-.3-.7zm6.35 0L13.7 13.475q-.3.3-.3.7t.3.7t.713.3t.712-.3L17.3 12.7q.15-.15.213-.325t.062-.375t-.062-.375t-.213-.325l-2.175-2.175q-.15-.15-.337-.225t-.376-.075t-.375.075t-.337.225q-.3.3-.3.7t.3.7zM5 21q-.825 0-1.412-.587T3 19V5q0-.825.588-1.412T5 3h14q.825 0 1.413.588T21 5v14q0 .825-.587 1.413T19 21zm0-2h14V5H5zM5 5v14z"/></symbol><symbol id="hd-icon-material-symbols-code-blocks-outline-sharp" viewBox="0 0 24 24"><path fill="currentColor" d="m9.6 15.6l1.4-1.425L8.825 12L11 9.825L9.6 8.4L6 12zm4.8 0L18 12l-3.6-3.6L13 9.825L15.175 12L13 14.175zM3 21V3h18v18zm2-2h14V5H5zm0 0V5z"/></symbol><symbol id="hd-icon-material-symbols-code-blocks-rounded" viewBox="0 0 24 24"><path fill="currentColor" d="m8.825 12l1.475-1.475q.3-.3.3-.7t-.3-.7t-.712-.3t-.713.3L6.7 11.3q-.15.15-.213.325T6.425 12t.062.375t.213.325l2.175 2.175q.3.3.713.3t.712-.3t.3-.7t-.3-.7zm6.35 0L13.7 13.475q-.3.3-.3.7t.3.7t.713.3t.712-.3L17.3 12.7q.15-.15.213-.325t.062-.375t-.062-.375t-.213-.325l-2.175-2.175q-.15-.15-.337-.225t-.376-.075t-.375.075t-.337.225q-.3.3-.3.7t.3.7zM5 21q-.825 0-1.412-.587T3 19V5q0-.825.588-1.412T5 3h14q.825 0 1.413.588T21 5v14q0 .825-.587 1.413T19 21z"/></symbol><symbol id="hd-icon-material-symbols-code-blocks-sharp" viewBox="0 0 24 24"><path fill="currentColor" d="m9.6 15.6l1.4-1.425L8.825 12L11 9.825L9.6 8.4L6 12zm4.8 0L18 12l-3.6-3.6L13 9.825L15.175 12L13 14.175zM3 21V3h18v18z"/></symbol><symbol id="hd-icon-material-symbols-code-off" viewBox="0 0 24 24"><path fill="currentColor" d="M19.775 22.625L7 9.85l-2.175 2.175L9.4 16.6L8 18l-6-6l3.575-3.575l-4.2-4.2L2.8 2.8l18.4 18.4zm-1.35-7.05L17 14.15l2.175-2.175L14.6 7.4L16 6l6 6z"/></symbol><symbol id="hd-icon-material-symbols-code-off-rounded" viewBox="0 0 24 24"><path fill="currentColor" d="M4.825 12.025L8.7 15.9q.275.275.275.7t-.275.7t-.7.275t-.7-.275l-4.6-4.6q-.15-.15-.213-.325T2.426 12t.063-.375t.212-.325l2.875-2.875l-3.5-3.5q-.3-.3-.3-.712t.3-.713t.713-.3t.712.3l17 17q.3.3.3.7t-.3.7t-.712.3t-.713-.3L7 9.85zm12.9 2.825q-.3-.3-.3-.712t.3-.713l1.45-1.45L15.3 8.1q-.275-.275-.275-.7t.275-.7t.7-.275t.7.275l4.6 4.6q.15.15.213.325t.062.375t-.062.375t-.213.325l-2.175 2.175q-.3.3-.7.288t-.7-.313"/></symbol><symbol id="hd-icon-material-symbols-code-rounded" viewBox="0 0 24 24"><path fill="currentColor" d="M4.825 12.025L8.7 15.9q.275.275.275.7t-.275.7t-.7.275t-.7-.275l-4.6-4.6q-.15-.15-.213-.325T2.426 12t.063-.375t.212-.325l4.6-4.6q.3-.3.713-.3t.712.3t.3.713t-.3.712zm14.35-.05L15.3 8.1q-.275-.275-.275-.7t.275-.7t.7-.275t.7.275l4.6 4.6q.15.15.213.325t.062.375t-.062.375t-.213.325l-4.6 4.6q-.3.3-.7.288t-.7-.313t-.3-.712t.3-.713z"/></symbol><symbol id="hd-icon-material-symbols-coffee" viewBox="0 0 24 24"><path fill="currentColor" d="M11 18q-2.925 0-4.962-2.037T4 11V5q0-.825.588-1.412T6 3h12.5q1.45 0 2.475 1.025T22 6.5t-1.025 2.475T18.5 10H18v1q0 2.925-2.037 4.963T11 18M6 8h10V5H6zm12 0h.5q.625 0 1.063-.437T20 6.5t-.437-1.062T18.5 5H18zM4 21v-2h16v2z"/></symbol><symbol id="hd-icon-material-symbols-coffee-maker" viewBox="0 0 24 24"><path fill="currentColor" d="M6 22q-.825 0-1.412-.587T4 20V4q0-.825.588-1.412T6 2h14v2h-2v2q0 .425-.288.713T17 7H9q-.425 0-.712-.288T8 6V4H6v16h4.05q-.95-.675-1.5-1.713T8 16v-5h10v5q0 1.25-.55 2.288T15.95 20H20v2zm7-12q.425 0 .713-.288T14 9t-.288-.712T13 8t-.712.288T12 9t.288.713T13 10"/></symbol><symbol id="hd-icon-material-symbols-coffee-maker-outline" viewBox="0 0 24 24"><path fill="currentColor" d="M6 22q-.825 0-1.412-.587T4 20V4q0-.825.588-1.412T6 2h14v2h-2v2q0 .425-.288.713T17 7H9q-.425 0-.712-.288T8 6V4H6v16h4.05q-.95-.675-1.5-1.713T8 16v-5h10v5q0 1.25-.55 2.288T15.95 20H20v2zm7-3q1.25 0 2.125-.875T16 16v-3h-6v3q0 1.25.875 2.125T13 19m0-9q.425 0 .713-.288T14 9t-.288-.712T13 8t-.712.288T12 9t.288.713T13 10m0 3"/></symbol><symbol id="hd-icon-material-symbols-coffee-maker-outline-rounded" viewBox="0 0 24 24"><path fill="currentColor" d="M6 22q-.825 0-1.412-.587T4 20V4q0-.825.588-1.412T6 2h13q.425 0 .713.288T20 3t-.288.713T19 4h-1v2q0 .425-.288.713T17 7H9q-.425 0-.712-.288T8 6V4H6v16h4.05q-.95-.675-1.5-1.713T8 16v-3q0-.825.588-1.412T10 11h6q.825 0 1.413.588T18 13v3q0 1.25-.55 2.288T15.95 20H19q.425 0 .713.288T20 21t-.288.713T19 22zm7-3q1.25 0 2.125-.875T16 16v-3h-6v3q0 1.25.875 2.125T13 19m0-9q.425 0 .713-.288T14 9t-.288-.712T13 8t-.712.288T12 9t.288.713T13 10m0 3"/></symbol><symbol id="hd-icon-material-symbols-coffee-maker-outline-sharp" viewBox="0 0 24 24"><path fill="currentColor" d="M4 22V2h16v2h-2v3H8V4H6v16h4.05q-.95-.675-1.5-1.713T8 16v-5h10v5q0 1.25-.55 2.288T15.95 20H20v2zm9-3q1.25 0 2.125-.875T16 16v-3h-6v3q0 1.25.875 2.125T13 19m0-9q.425 0 .713-.288T14 9t-.288-.712T13 8t-.712.288T12 9t.288.713T13 10m0 3"/></symbol><symbol id="hd-icon-material-symbols-coffee-maker-rounded" viewBox="0 0 24 24"><path fill="currentColor" d="M6 22q-.825 0-1.412-.587T4 20V4q0-.825.588-1.412T6 2h13q.425 0 .713.288T20 3t-.288.713T19 4h-1v2q0 .425-.288.713T17 7H9q-.425 0-.712-.288T8 6V4H6v16h4.05q-.95-.675-1.5-1.713T8 16v-3q0-.825.588-1.412T10 11h6q.825 0 1.413.588T18 13v3q0 1.25-.55 2.288T15.95 20H19q.425 0 .713.288T20 21t-.288.713T19 22zm7-12q.425 0 .713-.288T14 9t-.288-.712T13 8t-.712.288T12 9t.288.713T13 10"/></symbol><symbol id="hd-icon-material-symbols-coffee-maker-sharp" viewBox="0 0 24 24"><path fill="currentColor" d="M4 22V2h16v2h-2v3H8V4H6v16h4.05q-.95-.675-1.5-1.713T8 16v-5h10v5q0 1.25-.55 2.288T15.95 20H20v2zm9-12q.425 0 .713-.288T14 9t-.288-.712T13 8t-.712.288T12 9t.288.713T13 10"/></symbol><symbol id="hd-icon-material-symbols-coffee-outline" viewBox="0 0 24 24"><path fill="currentColor" d="M11 18q-2.925 0-4.962-2.037T4 11V5q0-.825.588-1.412T6 3h12.5q1.45 0 2.475 1.025T22 6.5t-1.025 2.475T18.5 10H18v1q0 2.925-2.037 4.963T11 18M6 8h10V5H6zm5 8q2.075 0 3.538-1.463T16 11v-1H6v1q0 2.075 1.463 3.538T11 16m7-8h.5q.625 0 1.063-.437T20 6.5t-.437-1.062T18.5 5H18zM4 21v-2h16v2zm7-11"/></symbol><symbol id="hd-icon-material-symbols-coffee-outline-rounded" viewBox="0 0 24 24"><path fill="currentColor" d="M11 18q-2.925 0-4.962-2.037T4 11V5q0-.825.588-1.412T6 3h12.5q1.45 0 2.475 1.025T22 6.5t-1.025 2.475T18.5 10H18v1q0 2.925-2.037 4.963T11 18M6 8h10V5H6zm5 8q2.075 0 3.538-1.463T16 11v-1H6v1q0 2.075 1.463 3.538T11 16m7-8h.5q.625 0 1.063-.437T20 6.5t-.437-1.062T18.5 5H18zM5 21q-.425 0-.712-.288T4 20t.288-.712T5 19h14q.425 0 .713.288T20 20t-.288.713T19 21zm6-11"/></symbol><symbol id="hd-icon-material-symbols-coffee-outline-sharp" viewBox="0 0 24 24"><path fill="currentColor" d="M11 18q-2.925 0-4.962-2.037T4 11V3h14.5q1.45 0 2.475 1.025T22 6.5t-1.025 2.475T18.5 10H18v1q0 2.925-2.037 4.963T11 18M6 8h10V5H6zm5 8q2.075 0 3.538-1.463T16 11v-1H6v1q0 2.075 1.463 3.538T11 16m7-8h.5q.625 0 1.063-.437T20 6.5t-.437-1.062T18.5 5H18zM4 21v-2h16v2zm7-11"/></symbol><symbol id="hd-icon-material-symbols-coffee-rounded" viewBox="0 0 24 24"><path fill="currentColor" d="M11 18q-2.925 0-4.962-2.037T4 11V5q0-.825.588-1.412T6 3h12.5q1.45 0 2.475 1.025T22 6.5t-1.025 2.475T18.5 10H18v1q0 2.925-2.037 4.963T11 18M6 8h10V5H6zm12 0h.5q.625 0 1.063-.437T20 6.5t-.437-1.062T18.5 5H18zM5 21q-.425 0-.712-.288T4 20t.288-.712T5 19h14q.425 0 .713.288T20 20t-.288.713T19 21z"/></symbol><symbol id="hd-icon-material-symbols-coffee-sharp" viewBox="0 0 24 24"><path fill="currentColor" d="M11 18q-2.925 0-4.962-2.037T4 11V3h14.5q1.45 0 2.475 1.025T22 6.5t-1.025 2.475T18.5 10H18v1q0 2.925-2.037 4.963T11 18M6 8h10V5H6zm12 0h.5q.625 0 1.063-.437T20 6.5t-.437-1.062T18.5 5H18zM4 21v-2h16v2z"/></symbol><symbol id="hd-icon-material-symbols-cognition" viewBox="0 0 24 24"><path fill="currentColor" d="M12.275 15.525q1.75 0 2.975-1.125t1.225-2.725q0-1.425-.913-2.412t-2.212-.988q-1.175 0-1.987.75t-.813 1.85q0 .475.188.925t.537.825L12.7 11.2q-.075-.05-.112-.125t-.038-.175q0-.275.225-.438t.575-.162q.5 0 .825.412t.325.988q0 .775-.638 1.313t-1.562.537q-1.175 0-1.987-.95T9.5 10.275q0-.725.275-1.388t.775-1.162L9.125 6.3q-.8.775-1.225 1.8t-.425 2.15q0 2.2 1.4 3.738t3.4 1.537M6 22v-4.3q-1.425-1.3-2.212-3.037T3 11q0-3.75 2.625-6.375T12 2q3.125 0 5.538 1.838t3.137 4.787l1.3 5.125q.125.475-.175.863T21 15h-2v3q0 .825-.587 1.413T17 20h-2v2z"/></symbol><symbol id="hd-icon-material-symbols-cognition-2" viewBox="0 0 24 24"><path fill="currentColor" d="M6 22v-4.3q-1.425-1.3-2.212-3.037T3 11q0-3.75 2.625-6.375T12 2q3.125 0 5.538 1.838t3.137 4.787l1.3 5.125q.125.475-.175.863T21 15h-2v3q0 .825-.587 1.413T17 20h-2v2zm1.725-7.725Q8.45 15 9.5 15t1.775-.725l4-4Q16 9.55 16 8.5t-.725-1.775T13.5 6t-1.775.725Q10.8 6.4 9.9 6.575t-1.525.8t-.8 1.525t.15 1.825Q7 11.45 7 12.5t.725 1.775"/></symbol><symbol id="hd-icon-material-symbols-cognition-2-outline" viewBox="0 0 24 24"><path fill="currentColor" d="M7.725 14.275Q8.45 15 9.5 15t1.775-.725l4-4Q16 9.55 16 8.5t-.725-1.775T13.5 6t-1.775.725Q10.8 6.4 9.9 6.575t-1.525.8t-.8 1.525t.15 1.825Q7 11.45 7 12.5t.725 1.775M6 22v-4.3q-1.425-1.3-2.212-3.037T3 11q0-3.75 2.625-6.375T12 2q3.125 0 5.538 1.838t3.137 4.787l1.3 5.125q.125.475-.175.863T21 15h-2v3q0 .825-.587 1.413T17 20h-2v2h-2v-4h4v-5h2.7l-.95-3.875q-.575-2.275-2.45-3.7T12 4Q9.1 4 7.05 6.025T5 10.95q0 1.5.613 2.85t1.737 2.4l.65.6V22zm6.35-9"/></symbol><symbol id="hd-icon-material-symbols-cognition-2-outline-rounded" viewBox="0 0 24 24"><path fill="currentColor" d="M7.725 14.275Q8.45 15 9.5 15t1.775-.725l4-4Q16 9.55 16 8.5t-.725-1.775T13.5 6t-1.775.725Q10.8 6.4 9.9 6.575t-1.525.8t-.8 1.525t.15 1.825Q7 11.45 7 12.5t.725 1.775M6 17.7q-1.425-1.3-2.213-3.037T3 11q0-3.75 2.625-6.375T12 2q3.125 0 5.538 1.838t3.137 4.787l1.3 5.125q.125.475-.175.863T21 15h-2v3q0 .825-.587 1.413T17 20h-2v1q0 .425-.288.713T14 22t-.712-.288T13 21v-2q0-.425.288-.712T14 18h3v-4q0-.425.288-.712T18 13h1.7l-.95-3.875q-.575-2.275-2.45-3.7T12 4Q9.1 4 7.05 6.025T5 10.95q0 1.5.613 2.85t1.737 2.4l.65.6V21q0 .425-.288.713T7 22t-.712-.288T6 21zm6.35-4.7"/></symbol><symbol id="hd-icon-material-symbols-cognition-2-outline-sharp" viewBox="0 0 24 24"><path fill="currentColor" d="M6 22v-4.3q-1.425-1.3-2.212-3.037T3 11q0-3.75 2.625-6.375T12 2q3.125 0 5.538 1.838t3.137 4.787l1.6 6.375H19v5h-4v2h-2v-4h4v-5h2.7l-.95-3.875q-.575-2.275-2.45-3.7T12 4Q9.1 4 7.05 6.025T5 10.95q0 1.5.613 2.85t1.737 2.4l.65.6V22zm1.725-7.725Q8.45 15 9.5 15t1.775-.725l4-4Q16 9.55 16 8.5t-.725-1.775T13.5 6t-1.775.725Q10.8 6.4 9.9 6.575t-1.525.8t-.8 1.525t.15 1.825Q7 11.45 7 12.5t.725 1.775"/></symbol><symbol id="hd-icon-material-symbols-cognition-2-rounded" viewBox="0 0 24 24"><path fill="currentColor" d="M7 22q-.425 0-.712-.288T6 21v-3.3q-1.425-1.3-2.212-3.037T3 11q0-3.75 2.625-6.375T12 2q3.125 0 5.538 1.838t3.137 4.787l1.3 5.125q.125.475-.175.863T21 15h-2v3q0 .825-.587 1.413T17 20h-2v1q0 .425-.288.713T14 22zm.725-7.725Q8.45 15 9.5 15t1.775-.725l4-4Q16 9.55 16 8.5t-.725-1.775T13.5 6t-1.775.725Q10.8 6.4 9.9 6.575t-1.525.8t-.8 1.525t.15 1.825Q7 11.45 7 12.5t.725 1.775"/></symbol><symbol id="hd-icon-material-symbols-cognition-2-sharp" viewBox="0 0 24 24"><path fill="currentColor" d="M6 22v-4.3q-1.425-1.3-2.212-3.037T3 11q0-3.75 2.625-6.375T12 2q3.125 0 5.538 1.838t3.137 4.787l1.6 6.375H19v5h-4v2zm1.725-7.725Q8.45 15 9.5 15t1.775-.725l4-4Q16 9.55 16 8.5t-.725-1.775T13.5 6t-1.775.725Q10.8 6.4 9.9 6.575t-1.525.8t-.8 1.525t.15 1.825Q7 11.45 7 12.5t.725 1.775"/></symbol><symbol id="hd-icon-material-symbols-cognition-outline" viewBox="0 0 24 24"><path fill="currentColor" d="M12.275 15.525q1.75 0 2.975-1.125t1.225-2.725q0-1.425-.913-2.412t-2.212-.988q-1.175 0-1.987.75t-.813 1.85q0 .475.188.925t.537.825L12.7 11.2q-.075-.05-.112-.125t-.038-.175q0-.275.225-.438t.575-.162q.5 0 .825.412t.325.988q0 .775-.638 1.313t-1.562.537q-1.175 0-1.987-.95T9.5 10.275q0-.725.275-1.388t.775-1.162L9.125 6.3q-.8.775-1.225 1.8t-.425 2.15q0 2.2 1.4 3.738t3.4 1.537M6 22v-4.3q-1.425-1.3-2.212-3.037T3 11q0-3.75 2.625-6.375T12 2q3.125 0 5.538 1.838t3.137 4.787l1.3 5.125q.125.475-.175.863T21 15h-2v3q0 .825-.587 1.413T17 20h-2v2h-2v-4h4v-5h2.7l-.95-3.875q-.575-2.275-2.45-3.7T12 4Q9.1 4 7.05 6.025T5 10.95q0 1.5.613 2.85t1.737 2.4l.65.6V22zm6.35-9"/></symbol><symbol id="hd-icon-material-symbols-cognition-outline-rounded" viewBox="0 0 24 24"><path fill="currentColor" d="M12.275 15.525q1.75 0 2.975-1.125t1.225-2.725q0-1.425-.913-2.412t-2.212-.988q-1.175 0-1.987.75t-.813 1.85q0 .475.163.938t.562.812t.8.288t.65-.338t.288-.663t-.313-.712q-.05-.05-.1-.125t-.05-.175q0-.275.225-.437t.575-.163q.5 0 .825.413t.325.987q0 .775-.638 1.313t-1.562.537q-1.175 0-1.987-.95T9.5 10.275q0-.475.113-.925t.337-.85q.2-.375.2-.788T9.85 7t-.725-.288t-.65.363q-.5.7-.75 1.5t-.25 1.675q0 2.2 1.4 3.738t3.4 1.537M6 17.7q-1.425-1.3-2.212-3.037T3 11q0-3.75 2.625-6.375T12 2q3.125 0 5.538 1.838t3.137 4.787l1.3 5.125q.125.475-.175.863T21 15h-2v3q0 .825-.587 1.413T17 20h-2v1q0 .425-.288.713T14 22t-.712-.288T13 21v-2q0-.425.288-.712T14 18h3v-4q0-.425.288-.712T18 13h1.7l-.95-3.875q-.575-2.275-2.45-3.7T12 4Q9.1 4 7.05 6.025T5 10.95q0 1.5.613 2.85t1.737 2.4l.65.6V21q0 .425-.288.713T7 22t-.712-.288T6 21zm6.35-4.7"/></symbol><symbol id="hd-icon-material-symbols-cognition-outline-sharp" viewBox="0 0 24 24"><path fill="currentColor" d="M12.275 15.525q1.75 0 2.975-1.125t1.225-2.725q0-1.425-.913-2.412t-2.212-.988q-1.175 0-1.987.75t-.813 1.85q0 .475.188.925t.537.825L12.7 11.2q-.075-.05-.112-.125t-.038-.175q0-.275.225-.438t.575-.162q.5 0 .825.412t.325.988q0 .775-.638 1.313t-1.562.537q-1.175 0-1.987-.95T9.5 10.275q0-.725.275-1.388t.775-1.162L9.125 6.3q-.8.775-1.225 1.8t-.425 2.15q0 2.2 1.4 3.738t3.4 1.537M6 22v-4.3q-1.425-1.3-2.212-3.037T3 11q0-3.75 2.625-6.375T12 2q3.125 0 5.538 1.838t3.137 4.787l1.6 6.375H19v5h-4v2h-2v-4h4v-5h2.7l-.95-3.875q-.575-2.275-2.45-3.7T12 4Q9.1 4 7.05 6.025T5 10.95q0 1.5.613 2.85t1.737 2.4l.65.6V22zm6.35-9"/></symbol><symbol id="hd-icon-material-symbols-cognition-rounded" viewBox="0 0 24 24"><path fill="currentColor" d="M12.275 15.525q1.75 0 2.975-1.125t1.225-2.725q0-1.425-.913-2.412t-2.212-.988q-1.175 0-1.987.75t-.813 1.85q0 .475.163.938t.562.812t.8.288t.65-.338t.288-.663t-.313-.712q-.05-.05-.1-.125t-.05-.175q0-.275.225-.437t.575-.163q.5 0 .825.413t.325.987q0 .775-.638 1.313t-1.562.537q-1.175 0-1.987-.95T9.5 10.275q0-.475.113-.925t.337-.85q.2-.375.2-.788T9.85 7t-.725-.288t-.65.363q-.5.7-.75 1.5t-.25 1.675q0 2.2 1.4 3.738t3.4 1.537M7 22q-.425 0-.712-.288T6 21v-3.3q-1.425-1.3-2.212-3.037T3 11q0-3.75 2.625-6.375T12 2q3.125 0 5.538 1.838t3.137 4.787l1.3 5.125q.125.475-.175.863T21 15h-2v3q0 .825-.587 1.413T17 20h-2v1q0 .425-.288.713T14 22z"/></symbol><symbol id="hd-icon-material-symbols-cognition-sharp" viewBox="0 0 24 24"><path fill="currentColor" d="M12.275 15.525q1.75 0 2.975-1.125t1.225-2.725q0-1.425-.913-2.412t-2.212-.988q-1.175 0-1.987.75t-.813 1.85q0 .475.188.925t.537.825L12.7 11.2q-.075-.05-.112-.125t-.038-.175q0-.275.225-.438t.575-.162q.5 0 .825.412t.325.988q0 .775-.638 1.313t-1.562.537q-1.175 0-1.987-.95T9.5 10.275q0-.725.275-1.388t.775-1.162L9.125 6.3q-.8.775-1.225 1.8t-.425 2.15q0 2.2 1.4 3.738t3.4 1.537M6 22v-4.3q-1.425-1.3-2.212-3.037T3 11q0-3.75 2.625-6.375T12 2q3.125 0 5.538 1.838t3.137 4.787l1.6 6.375H19v5h-4v2z"/></symbol><symbol id="hd-icon-material-symbols-collapse-all" viewBox="0 0 24 24"><path fill="currentColor" d="M7.4 22L6 20.6l6-6l6 6l-1.4 1.4l-4.6-4.6zM12 9.4l-6-6L7.4 2L12 6.6L16.6 2L18 3.4z"/></symbol><symbol id="hd-icon-material-symbols-collapse-all-rounded" viewBox="0 0 24 24"><path fill="currentColor" d="m12 17.4l-3.9 3.9q-.275.275-.7.275t-.7-.275t-.275-.7t.275-.7l3.875-3.875q.575-.575 1.425-.575t1.425.575L17.3 19.9q.275.275.275.7t-.275.7t-.7.275t-.7-.275zm0-10.8l3.9-3.9q.275-.275.7-.275t.7.275t.275.7t-.275.7l-3.875 3.875Q12.85 8.55 12 8.55t-1.425-.575L6.7 4.1q-.275-.275-.275-.7t.275-.7t.7-.275t.7.275z"/></symbol><symbol id="hd-icon-material-symbols-collapse-content" viewBox="0 0 24 24"><path fill="currentColor" d="M11 13v6H9v-4H5v-2zm4-8v4h4v2h-6V5z"/></symbol><symbol id="hd-icon-material-symbols-collapse-content-rounded" viewBox="0 0 24 24"><path fill="currentColor" d="M9 15H6q-.425 0-.712-.288T5 14t.288-.712T6 13h4q.425 0 .713.288T11 14v4q0 .425-.288.713T10 19t-.712-.288T9 18zm6-6h3q.425 0 .713.288T19 10t-.288.713T18 11h-4q-.425 0-.712-.288T13 10V6q0-.425.288-.712T14 5t.713.288T15 6z"/></symbol><symbol id="hd-icon-material-symbols-collections-bookmark" viewBox="0 0 24 24"><path fill="currentColor" d="M4 22q-.825 0-1.412-.587T2 20V6h2v14h14v2zm4-4q-.825 0-1.412-.587T6 16V4q0-.825.588-1.412T8 2h12q.825 0 1.413.588T22 4v12q0 .825-.587 1.413T20 18zm5-7l2.5-1.5L18 11V4h-5z"/></symbol><symbol id="hd-icon-material-symbols-collections-bookmark-outline" viewBox="0 0 24 24"><path fill="currentColor" d="M8 16h12V4h-2v7l-2.5-1.5L13 11V4H8zm0 2q-.825 0-1.412-.587T6 16V4q0-.825.588-1.412T8 2h12q.825 0 1.413.588T22 4v12q0 .825-.587 1.413T20 18zm-4 4q-.825 0-1.412-.587T2 20V6h2v14h14v2zm9-18h5zM8 4h12z"/></symbol><symbol id="hd-icon-material-symbols-collections-bookmark-outline-rounded" viewBox="0 0 24 24"><path fill="currentColor" d="M8 16h12V4h-2v6.125q0 .3-.25.45t-.5-.025l-1.225-.725q-.25-.15-.537-.15t-.513.15l-1.225.725q-.275.175-.513.025t-.237-.45V4H8zm0 2q-.825 0-1.412-.587T6 16V4q0-.825.588-1.412T8 2h12q.825 0 1.413.588T22 4v12q0 .825-.587 1.413T20 18zm-4 4q-.825 0-1.412-.587T2 20V7q0-.425.288-.712T3 6t.713.288T4 7v13h13q.425 0 .713.288T18 21t-.288.713T17 22zM8 4v12zm5 6.125q0 .3.238.45t.512-.025l1.225-.725q.225-.15.513-.15t.537.15l1.225.725q.25.175.5.025t.25-.45q0 .3-.25.45t-.5-.025l-1.225-.725q-.25-.15-.537-.15t-.513.15l-1.225.725q-.275.175-.513.025t-.237-.45"/></symbol><symbol id="hd-icon-material-symbols-collections-bookmark-outline-sharp" viewBox="0 0 24 24"><path fill="currentColor" d="M8 16h12V4h-2v7l-2.5-1.5L13 11V4H8zm-2 2V2h16v16zm-4 4V6h2v14h14v2zM8 4v12zm5 7l2.5-1.5L18 11l-2.5-1.5z"/></symbol><symbol id="hd-icon-material-symbols-collections-bookmark-rounded" viewBox="0 0 24 24"><path fill="currentColor" d="M8 18q-.825 0-1.412-.587T6 16V4q0-.825.588-1.412T8 2h12q.825 0 1.413.588T22 4v12q0 .825-.587 1.413T20 18zm-4 4q-.825 0-1.412-.587T2 20V7q0-.425.288-.712T3 6t.713.288T4 7v13h13q.425 0 .713.288T18 21t-.288.713T17 22zm9-11.875q0 .3.25.438t.5-.013l1.225-.75q.25-.15.525-.15t.525.15l1.225.75q.25.15.5.013t.25-.438V4h-5z"/></symbol><symbol id="hd-icon-material-symbols-collections-bookmark-sharp" viewBox="0 0 24 24"><path fill="currentColor" d="M6 18V2h16v16zm-4 4V6h2v14h14v2zM13 4v7l2.5-1.5L18 11V4z"/></symbol><symbol id="hd-icon-material-symbols-colorize" viewBox="0 0 24 24"><path fill="currentColor" d="M3 21v-4.75l8.95-8.95l-1.45-1.4l1.45-1.4l1.9 1.9l3.1-3.1q.125-.125.313-.2t.387-.075t.375.075t.325.2l2.35 2.35q.125.15.2.325t.075.375t-.075.387t-.2.313l-3.075 3.075l1.9 1.95L18.1 13.5l-1.4-1.45L7.75 21zm2-2h1.95l8.3-8.35l-1.9-1.9L5 17.05z"/></symbol><symbol id="hd-icon-material-symbols-colorize-outline" viewBox="0 0 24 24"><path fill="currentColor" d="M3 21v-4.75l8.95-8.95l-1.45-1.4l1.45-1.4l1.9 1.9l3.1-3.1q.125-.125.313-.2t.387-.075t.375.075t.325.2l2.35 2.35q.125.15.2.325t.075.375t-.075.387t-.2.313l-3.075 3.075l1.9 1.95L18.1 13.5l-1.4-1.45L7.75 21zm2-2h1.95l8.3-8.35l-1.9-1.9L5 17.05zM16.175 8.75l2.4-2.4l-.925-.925l-2.4 2.4zm0 0l-.925-.925z"/></symbol><symbol id="hd-icon-material-symbols-colorize-outline-rounded" viewBox="0 0 24 24"><path fill="currentColor" d="M3 20v-2.925q0-.4.15-.763t.425-.637L11.95 7.3L10.5 5.9l1.45-1.4l1.9 1.9l3.1-3.1q.125-.125.313-.2t.387-.075t.375.075t.325.2l2.35 2.35q.125.15.2.325t.075.375t-.075.388t-.2.312l-3.075 3.075l1.9 1.95L18.1 13.5l-1.4-1.45l-8.375 8.375q-.275.275-.638.425t-.762.15H4q-.425 0-.712-.288T3 20m2-1h1.95l8.3-8.35l-1.9-1.9L5 17.05zM16.175 8.75l2.4-2.4l-.925-.925l-2.4 2.4zm0 0l-.925-.925z"/></symbol><symbol id="hd-icon-material-symbols-colorize-outline-sharp" viewBox="0 0 24 24"><path fill="currentColor" d="M3 21v-4.75l8.95-8.95l-1.45-1.4l1.45-1.4l1.9 1.9l3.8-3.8l3.75 3.75l-3.775 3.775l1.9 1.95L18.1 13.5l-1.4-1.45L7.75 21zm2-2h1.95l8.3-8.35l-1.9-1.9L5 17.05zM16.175 8.75l2.4-2.4l-.925-.925l-2.4 2.4zm0 0l-.925-.925z"/></symbol><symbol id="hd-icon-material-symbols-colorize-rounded" viewBox="0 0 24 24"><path fill="currentColor" d="M3 20v-2.925q0-.4.15-.763t.425-.637L11.95 7.3L10.5 5.9l1.45-1.4l1.9 1.9l3.1-3.1q.125-.125.313-.2t.387-.075t.375.075t.325.2l2.35 2.35q.125.15.2.325t.075.375t-.075.388t-.2.312l-3.075 3.075l1.9 1.95L18.1 13.5l-1.4-1.45l-8.375 8.375q-.275.275-.638.425t-.762.15H4q-.425 0-.712-.288T3 20m2-1h1.95l8.3-8.35l-1.9-1.9L5 17.05z"/></symbol><symbol id="hd-icon-material-symbols-colorize-sharp" viewBox="0 0 24 24"><path fill="currentColor" d="M3 21v-4.75l8.95-8.95l-1.45-1.4l1.45-1.4l1.9 1.9l3.8-3.8l3.75 3.75l-3.775 3.775l1.9 1.95L18.1 13.5l-1.4-1.45L7.75 21zm2-2h1.95l8.3-8.35l-1.9-1.9L5 17.05z"/></symbol><symbol id="hd-icon-material-symbols-colors" viewBox="0 0 24 24"><path fill="currentColor" d="M8.65 20.5L2.5 14.35q-.25-.25-.375-.55T2 13.175t.125-.625T2.5 12l5.75-5.725l-2.65-2.65L7.15 2l10 10q.25.25.363.55t.112.625t-.112.625t-.363.55L11 20.5q-.25.25-.55.375T9.825 21t-.625-.125t-.55-.375M9.825 7.85l-5.35 5.35h10.7zM19.8 21q-.9 0-1.525-.638T17.65 18.8q0-.675.338-1.275t.762-1.175L19.8 15l1.1 1.35q.4.575.75 1.175T22 18.8q0 .925-.65 1.563T19.8 21"/></symbol><symbol id="hd-icon-material-symbols-colors-rounded" viewBox="0 0 24 24"><path fill="currentColor" d="M8.65 20.5L2.5 14.35q-.25-.25-.375-.55T2 13.175t.125-.625T2.5 12l5.75-5.725L6.375 4.4q-.325-.325-.337-.775t.312-.8t.8-.35t.825.35L17.15 12q.25.25.363.55t.112.625t-.112.625t-.363.55L11 20.5q-.25.25-.55.375T9.825 21t-.625-.125t-.55-.375M9.825 7.85l-5.35 5.35h10.7zM19.8 21q-.9 0-1.525-.638T17.65 18.8q0-.675.338-1.275t.762-1.175l.475-.6q.225-.275.588-.287t.587.262l.5.625q.4.575.75 1.175T22 18.8q0 .925-.65 1.563T19.8 21"/></symbol><symbol id="hd-icon-material-symbols-colors-sharp" viewBox="0 0 24 24"><path fill="currentColor" d="m9.825 21.675l-8.5-8.5l6.925-6.9l-2.65-2.65L7.15 2l11.175 11.175zm0-13.825l-5.35 5.35h10.7zM19.8 21q-.9 0-1.525-.638T17.65 18.8q0-.675.338-1.275t.762-1.175L19.8 15l1.1 1.35q.4.575.75 1.175T22 18.8q0 .925-.65 1.563T19.8 21"/></symbol><symbol id="hd-icon-material-symbols-combine-columns" viewBox="0 0 24 24"><path fill="currentColor" d="M5 21q-.825 0-1.412-.587T3 19V5q0-.825.588-1.412T5 3h4q.825 0 1.413.588T11 5v2.1q-1.75.35-2.875 1.725T7 12t1.125 3.175T11 16.9V19q0 .825-.587 1.413T9 21zm10 0q-.825 0-1.412-.587T13 19v-2.1q1.75-.35 2.875-1.725T17 12t-1.125-3.175T13 7.1V5q0-.825.588-1.413T15 3h4q.825 0 1.413.588T21 5v14q0 .825-.587 1.413T19 21zm-4-6v-2H9v-2h2V9h2v2h2v2h-2v2z"/></symbol><symbol id="hd-icon-material-symbols-combine-columns-outline" viewBox="0 0 24 24"><path fill="currentColor" d="M11 15v-2H9v-2h2V9h2v2h2v2h-2v2zm-6 6q-.825 0-1.412-.587T3 19V5q0-.825.588-1.412T5 3h4q.825 0 1.413.588T11 5v2H9V5H5v14h4v-2h2v2q0 .825-.587 1.413T9 21zm10 0q-.825 0-1.412-.587T13 19v-2h2v2h4V5h-4v2h-2V5q0-.825.588-1.412T15 3h4q.825 0 1.413.588T21 5v14q0 .825-.587 1.413T19 21z"/></symbol><symbol id="hd-icon-material-symbols-combine-columns-outline-rounded" viewBox="0 0 24 24"><path fill="currentColor" d="M5 21q-.825 0-1.412-.587T3 19V5q0-.825.588-1.412T5 3h4q.825 0 1.413.588T11 5v1q0 .425-.288.713T10 7t-.712-.288T9 6V5H5v14h4v-1q0-.425.288-.712T10 17t.713.288T11 18v1q0 .825-.587 1.413T9 21zm10 0q-.825 0-1.412-.587T13 19v-1q0-.425.288-.712T14 17t.713.288T15 18v1h4V5h-4v1q0 .425-.288.713T14 7t-.712-.288T13 6V5q0-.825.588-1.412T15 3h4q.825 0 1.413.588T21 5v14q0 .825-.587 1.413T19 21zm-4-8h-1q-.425 0-.712-.288T9 12t.288-.712T10 11h1v-1q0-.425.288-.712T12 9t.713.288T13 10v1h1q.425 0 .713.288T15 12t-.288.713T14 13h-1v1q0 .425-.288.713T12 15t-.712-.288T11 14z"/></symbol><symbol id="hd-icon-material-symbols-combine-columns-outline-sharp" viewBox="0 0 24 24"><path fill="currentColor" d="M3 21V3h8v4H9V5H5v14h4v-2h2v4zm10 0v-4h2v2h4V5h-4v2h-2V3h8v18zm-2-6v-2H9v-2h2V9h2v2h2v2h-2v2z"/></symbol><symbol id="hd-icon-material-symbols-combine-columns-rounded" viewBox="0 0 24 24"><path fill="currentColor" d="M15 21q-.825 0-1.412-.587T13 19v-1.45q0-.275.175-.513t.45-.312q1.5-.525 2.438-1.812T17 12t-.937-2.912t-2.438-1.813q-.275-.1-.45-.325T13 6.45V5q0-.825.588-1.412T15 3h4q.825 0 1.413.588T21 5v14q0 .825-.587 1.413T19 21zM5 21q-.825 0-1.412-.587T3 19V5q0-.825.588-1.412T5 3h4q.825 0 1.413.588T11 5v1.45q0 .275-.175.5t-.45.325q-1.5.525-2.437 1.813T7 12t.938 2.913t2.437 1.812q.275.1.45.325t.175.5V19q0 .825-.587 1.413T9 21zm7-6q-.425 0-.712-.288T11 14v-1h-1q-.425 0-.712-.288T9 12t.288-.712T10 11h1v-1q0-.425.288-.712T12 9t.713.288T13 10v1h1q.425 0 .713.288T15 12t-.288.713T14 13h-1v1q0 .425-.288.713T12 15"/></symbol><symbol id="hd-icon-material-symbols-combine-columns-sharp" viewBox="0 0 24 24"><path fill="currentColor" d="M3 21V3h8v4.1q-1.75.35-2.875 1.725T7 12t1.125 3.175T11 16.9V21zm10 0v-4.1q1.75-.35 2.875-1.725T17 12t-1.125-3.175T13 7.1V3h8v18zm-2-6v-2H9v-2h2V9h2v2h2v2h-2v2z"/></symbol><symbol id="hd-icon-material-symbols-comedy-mask" viewBox="0 0 24 24"><path fill="currentColor" d="M12 17q1.65 0 2.825-1.175T16 13H8q0 1.65 1.175 2.825T12 17m0 5q-1.875 0-3.512-.712t-2.85-1.925t-1.925-2.85T3 13V2h18v11q0 1.875-.712 3.513t-1.925 2.85t-2.85 1.925T12 22M7 9h4q0-.825-.587-1.412T9 7t-1.412.588T7 9m6 0h4q0-.825-.587-1.412T15 7t-1.412.588T13 9"/></symbol><symbol id="hd-icon-material-symbols-comedy-mask-outline" viewBox="0 0 24 24"><path fill="currentColor" d="M12 17q1.65 0 2.825-1.175T16 13H8q0 1.65 1.175 2.825T12 17M7 9h4q0-.825-.587-1.412T9 7t-1.412.588T7 9m6 0h4q0-.825-.587-1.412T15 7t-1.412.588T13 9m-1 13q-1.875 0-3.512-.712t-2.85-1.925t-1.925-2.85T3 13V2h18v11q0 1.875-.712 3.513t-1.925 2.85t-2.85 1.925T12 22m0-2q2.9 0 4.95-2.05T19 13V4H5v9q0 2.9 2.05 4.95T12 20m0-8"/></symbol><symbol id="hd-icon-material-symbols-comedy-mask-outline-rounded" viewBox="0 0 24 24"><path fill="currentColor" d="M12 17q1.5 0 2.613-.975T15.95 13.6q.05-.25-.112-.425T15.4 13H8.6q-.25 0-.425.175t-.125.425q.225 1.45 1.337 2.425T12 17m0 5q-1.875 0-3.512-.712t-2.85-1.925t-1.925-2.85T3 13V4q0-.825.588-1.412T5 2h14q.825 0 1.413.588T21 4v9q0 1.875-.712 3.513t-1.925 2.85t-2.85 1.925T12 22m0-2q2.9 0 4.95-2.05T19 13V4H5v9q0 2.9 2.05 4.95T12 20M9 7q-.675 0-1.187.4t-.713 1q-.075.225.075.413T7.6 9h2.8q.25 0 .4-.187t.1-.413q-.2-.6-.712-1T9 7m6 0q-.675 0-1.187.4t-.713 1q-.075.225.075.413T13.6 9h2.8q.25 0 .4-.187t.1-.413q-.2-.6-.712-1T15 7"/></symbol><symbol id="hd-icon-material-symbols-comedy-mask-rounded" viewBox="0 0 24 24"><path fill="currentColor" d="M12 17q1.5 0 2.613-.975T15.95 13.6q.05-.25-.112-.425T15.4 13H8.6q-.25 0-.425.175t-.125.425q.225 1.45 1.337 2.425T12 17m0 5q-1.875 0-3.512-.712t-2.85-1.925t-1.925-2.85T3 13V4q0-.825.588-1.412T5 2h14q.825 0 1.413.588T21 4v9q0 1.875-.712 3.513t-1.925 2.85t-2.85 1.925T12 22m0-2q2.9 0 4.95-2.05T19 13V4H5v9q0 2.9 2.05 4.95T12 20m0 0q-2.9 0-4.95-2.05T5 13V4h14v9q0 2.9-2.05 4.95T12 20M9 7q-.675 0-1.187.4t-.713 1q-.075.225.075.413T7.6 9h2.8q.25 0 .4-.187t.1-.413q-.2-.6-.712-1T9 7m6 0q-.675 0-1.187.4t-.713 1q-.075.225.075.413T13.6 9h2.8q.25 0 .4-.187t.1-.413q-.2-.6-.712-1T15 7"/></symbol><symbol id="hd-icon-material-symbols-comic-bubble" viewBox="0 0 24 24"><path fill="currentColor" d="M11 20.9L8.1 18H4v-4.1L1.1 11L4 8.1V4h4.1L11 1.1L13.9 4H18v4.1l2.9 2.9l-2.9 2.9l2.875 5.65q.175.325.1.638t-.275.512t-.512.275t-.638-.1L13.9 18z"/></symbol><symbol id="hd-icon-material-symbols-comic-bubble-outline" viewBox="0 0 24 24"><path fill="currentColor" d="M11 3.925L8.925 6H6v2.925L3.925 11L6 13.075V16h2.925L11 18.075l2.5-2.5l4.2 2.125l-2.15-4.175L18.075 11L16 8.925V6h-2.925zM11 1.1L13.9 4H18v4.1l2.9 2.9l-2.9 2.9l2.875 5.65q.175.325.1.638t-.275.512t-.512.275t-.638-.1L13.9 18L11 20.9L8.1 18H4v-4.1L1.1 11L4 8.1V4h4.1zm0 9.9"/></symbol><symbol id="hd-icon-material-symbols-comic-bubble-outline-rounded" viewBox="0 0 24 24"><path fill="currentColor" d="m17.7 17.7l-2.15-4.175L18.075 11L16 8.925V6h-2.925L11 3.925L8.925 6H6v2.925L3.925 11L6 13.075V16h2.925L11 18.075l2.5-2.5zm3 3q-.2.2-.513.275t-.637-.1L13.9 18l-2.2 2.2q-.3.3-.7.3t-.7-.3L8.1 18H5q-.425 0-.712-.288T4 17v-3.1l-2.2-2.2q-.3-.3-.3-.7t.3-.7L4 8.1V5q0-.425.288-.712T5 4h3.1l2.2-2.2q.3-.3.7-.3t.7.3L13.9 4H17q.425 0 .713.288T18 5v3.1l2.2 2.2q.3.3.3.7t-.3.7L18 13.9l2.875 5.65q.175.325.1.637t-.275.513M11 11"/></symbol><symbol id="hd-icon-material-symbols-comic-bubble-outline-sharp" viewBox="0 0 24 24"><path fill="currentColor" d="M11 3.925L8.925 6H6v2.925L3.925 11L6 13.075V16h2.925L11 18.075l2.5-2.5l4.2 2.125l-2.15-4.175L18.075 11L16 8.925V6h-2.925zM11 1.1L13.9 4H18v4.1l2.9 2.9l-2.9 2.9l2.875 5.65l-1.325 1.325L13.9 18L11 20.9L8.1 18H4v-4.1L1.1 11L4 8.1V4h4.1zm0 9.9"/></symbol><symbol id="hd-icon-material-symbols-comic-bubble-rounded" viewBox="0 0 24 24"><path fill="currentColor" d="M20.7 20.7q-.2.2-.512.275t-.638-.1L13.9 18l-2.2 2.2q-.3.3-.7.3t-.7-.3L8.1 18H5q-.425 0-.712-.288T4 17v-3.1l-2.2-2.2q-.3-.3-.3-.7t.3-.7L4 8.1V5q0-.425.288-.712T5 4h3.1l2.2-2.2q.3-.3.7-.3t.7.3L13.9 4H17q.425 0 .713.288T18 5v3.1l2.2 2.2q.3.3.3.7t-.3.7L18 13.9l2.875 5.65q.175.325.1.637t-.275.513"/></symbol><symbol id="hd-icon-material-symbols-comic-bubble-sharp" viewBox="0 0 24 24"><path fill="currentColor" d="M11 1.1L13.9 4H18v4.1l2.9 2.9l-2.9 2.9l2.875 5.65l-1.325 1.325L13.9 18L11 20.9L8.1 18H4v-4.1L1.1 11L4 8.1V4h4.1z"/></symbol><symbol id="hd-icon-material-symbols-comment" viewBox="0 0 24 24"><path fill="currentColor" d="M6 14h12v-2H6zm0-3h12V9H6zm0-3h12V6H6zM4 18q-.825 0-1.412-.587T2 16V4q0-.825.588-1.412T4 2h16q.825 0 1.413.588T22 4v18l-4-4z"/></symbol><symbol id="hd-icon-material-symbols-comment-bank" viewBox="0 0 24 24"><path fill="currentColor" d="M2 22V4q0-.825.588-1.412T4 2h16q.825 0 1.413.588T22 4v12q0 .825-.587 1.413T20 18H6zm10.5-11L15 9.5l2.5 1.5V4h-5z"/></symbol><symbol id="hd-icon-material-symbols-comment-bank-outline" viewBox="0 0 24 24"><path fill="currentColor" d="M12.5 11V4H4v13.125L5.15 16H20V4h-2.5v7L15 9.5zM2 22V4q0-.825.588-1.412T4 2h16q.825 0 1.413.588T22 4v12q0 .825-.587 1.413T20 18H6zM4 4v12z"/></symbol><symbol id="hd-icon-material-symbols-comment-bank-outline-rounded" viewBox="0 0 24 24"><path fill="currentColor" d="m6 18l-2.3 2.3q-.475.475-1.088.213T2 19.575V4q0-.825.588-1.412T4 2h16q.825 0 1.413.588T22 4v12q0 .825-.587 1.413T20 18zm14-2V4h-2.5v6.125q0 .3-.25.438t-.5-.013l-1.375-.825Q15.175 9.6 15 9.6t-.375.125l-1.375.825q-.25.15-.5.013t-.25-.438V4H4v13.125L5.15 16zM4 16V4z"/></symbol><symbol id="hd-icon-material-symbols-comment-bank-outline-sharp" viewBox="0 0 24 24"><path fill="currentColor" d="M12.5 11V4H4v13.125L5.15 16H20V4h-2.5v7L15 9.5zM2 22V2h20v16H6zM4 4v12z"/></symbol><symbol id="hd-icon-material-symbols-comment-bank-rounded" viewBox="0 0 24 24"><path fill="currentColor" d="m6 18l-2.3 2.3q-.475.475-1.088.213T2 19.575V4q0-.825.588-1.412T4 2h16q.825 0 1.413.588T22 4v12q0 .825-.587 1.413T20 18zm6.5-14v6.125q0 .3.25.438t.5-.013l1.375-.825q.2-.125.375-.125t.375.125l1.375.825q.25.15.5.013t.25-.438V4z"/></symbol><symbol id="hd-icon-material-symbols-comment-bank-sharp" viewBox="0 0 24 24"><path fill="currentColor" d="M12.5 11L15 9.5l2.5 1.5V4h-5zM2 22V2h20v16H6z"/></symbol><symbol id="hd-icon-material-symbols-comment-outline" viewBox="0 0 24 24"><path fill="currentColor" d="M6 14h12v-2H6zm0-3h12V9H6zm0-3h12V6H6zm16 14l-4-4H4q-.825 0-1.412-.587T2 16V4q0-.825.588-1.412T4 2h16q.825 0 1.413.588T22 4zM4 16h14.85L20 17.125V4H4zm0 0V4z"/></symbol><symbol id="hd-icon-material-symbols-comment-outline-rounded" viewBox="0 0 24 24"><path fill="currentColor" d="M7 14h10q.425 0 .713-.288T18 13t-.288-.712T17 12H7q-.425 0-.712.288T6 13t.288.713T7 14m0-3h10q.425 0 .713-.288T18 10t-.288-.712T17 9H7q-.425 0-.712.288T6 10t.288.713T7 11m0-3h10q.425 0 .713-.288T18 7t-.288-.712T17 6H7q-.425 0-.712.288T6 7t.288.713T7 8M4 18q-.825 0-1.412-.587T2 16V4q0-.825.588-1.412T4 2h16q.825 0 1.413.588T22 4v15.575q0 .675-.612.938T20.3 20.3L18 18zm14.85-2L20 17.125V4H4v12zM4 16V4z"/></symbol><symbol id="hd-icon-material-symbols-comment-outline-sharp" viewBox="0 0 24 24"><path fill="currentColor" d="M6 14h12v-2H6zm0-3h12V9H6zm0-3h12V6H6zM2 18V2h20v20l-4-4zm2-2h14.85L20 17.125V4H4zm0 0V4z"/></symbol><symbol id="hd-icon-material-symbols-comment-rounded" viewBox="0 0 24 24"><path fill="currentColor" d="M7 14h10q.425 0 .713-.288T18 13t-.288-.712T17 12H7q-.425 0-.712.288T6 13t.288.713T7 14m0-3h10q.425 0 .713-.288T18 10t-.288-.712T17 9H7q-.425 0-.712.288T6 10t.288.713T7 11m0-3h10q.425 0 .713-.288T18 7t-.288-.712T17 6H7q-.425 0-.712.288T6 7t.288.713T7 8M4 18q-.825 0-1.412-.587T2 16V4q0-.825.588-1.412T4 2h16q.825 0 1.413.588T22 4v15.575q0 .675-.612.938T20.3 20.3L18 18z"/></symbol><symbol id="hd-icon-material-symbols-comment-sharp" viewBox="0 0 24 24"><path fill="currentColor" d="M6 14h12v-2H6zm0-3h12V9H6zm0-3h12V6H6zM2 18V2h20v20l-4-4z"/></symbol><symbol id="hd-icon-material-symbols-comments-disabled" viewBox="0 0 24 24"><path fill="currentColor" d="m20.475 23.3l-5.3-5.3H4q-.825 0-1.412-.587T2 16V4.825L.675 3.5L2.1 2.075l19.8 19.8zM22 19.125L16.875 14H18v-2h-3.125l-1-1H18V9h-6.125l-1-1H18V6H8.875l-4-4H20q.825 0 1.413.588T22 4zM6 14h5.175l-2-2H6zm0-3h2.175l-2-2H6z"/></symbol><symbol id="hd-icon-material-symbols-comments-disabled-outline" viewBox="0 0 24 24"><path fill="currentColor" d="M4 18q-.825 0-1.412-.587T2 16V4.825L.675 3.5L2.1 2.075l19.8 19.8l-1.425 1.425l-5.3-5.3zm18 1.125L18.875 16H20V4H6.875l-2-2H20q.825 0 1.413.588T22 4zM4 16h9.175l-2-2H6v-2h3.175l-1-1H6V9h.175L4 6.825zm12.875-2l-2-2H18v2zm-3-3l-2-2H18v2zm-3-3l-2-2H18v2zm2 2"/></symbol><symbol id="hd-icon-material-symbols-comments-disabled-outline-rounded" viewBox="0 0 24 24"><path fill="currentColor" d="M4 18q-.825 0-1.412-.587T2 16V4.825L1.375 4.2q-.3-.3-.3-.713t.3-.712t.713-.3t.712.3l18.4 18.4q.3.3.3.7t-.3.7t-.712.3t-.713-.3L15.175 18zM22 4v13.925q0 .35-.3.475t-.55-.125L18.875 16H20V4H7q-.5 0-.75-.312T6 3t.25-.687T7 2h13q.825 0 1.413.588T22 4M4 16h9.175l-2-2H7q-.425 0-.712-.288T6 13t.288-.712T7 12h2.175l-1-1H7q-.425 0-.712-.288T6 10t.288-.712T7 9h.625v1.45L4 6.825zm14-3q0 .425-.288.713T17 14t-.712-.288T16 13t.288-.712T17 12t.713.288T18 13m-1-2h-2.7q-.5 0-.75-.312T13.3 10t.25-.687T14.3 9H17q.425 0 .713.288T18 10t-.288.713T17 11m0-3h-5.7q-.5 0-.75-.312T10.3 7t.25-.687T11.3 6H17q.425 0 .713.288T18 7t-.288.713T17 8m-4.125 2"/></symbol><symbol id="hd-icon-material-symbols-comments-disabled-outline-sharp" viewBox="0 0 24 24"><path fill="currentColor" d="M2 18V4.825L.675 3.5L2.1 2.075l19.8 19.8l-1.425 1.425l-5.3-5.3zm20 1.125L18.875 16H20V4H6.875l-2-2H22zM4 16h9.175l-2-2H6v-2h3.175l-1-1H6V9h.175L4 6.825zm12.875-2l-2-2H18v2zm-3-3l-2-2H18v2zm-3-3l-2-2H18v2zm2 2"/></symbol><symbol id="hd-icon-material-symbols-comments-disabled-rounded" viewBox="0 0 24 24"><path fill="currentColor" d="M15.175 18H4q-.825 0-1.412-.587T2 16V4.825L1.375 4.2q-.3-.3-.3-.713t.3-.712t.713-.3t.712.3l18.4 18.4q.3.3.3.7t-.3.7t-.712.3t-.713-.3zM22 4v13.925q0 .35-.3.475t-.55-.125L16.875 14H17q.425 0 .713-.288T18 13t-.288-.712T17 12h-2.125l-1-1H17q.425 0 .713-.288T18 10t-.288-.712T17 9h-5.125l-1-1H17q.425 0 .713-.288T18 7t-.288-.712T17 6H8.875l-2.3-2.3q-.25-.25-.288-.525t.088-.55t.35-.45T7.3 2H20q.825 0 1.413.587T22 4M11.175 14l-2-2H7q-.425 0-.712.288T6 13t.288.713T7 14zm-3-3l-1.8-1.8q-.175.125-.275.338T6 10q0 .425.288.713T7 11z"/></symbol><symbol id="hd-icon-material-symbols-comments-disabled-sharp" viewBox="0 0 24 24"><path fill="currentColor" d="m20.475 23.3l-5.3-5.3H2V4.825L.675 3.5L2.1 2.075l19.8 19.8zM22 19.125L16.875 14H18v-2h-3.125l-1-1H18V9h-6.125l-1-1H18V6H8.875l-4-4H22zM6 14h5.175l-2-2H6zm0-3h2.175l-2-2H6z"/></symbol><symbol id="hd-icon-material-symbols-commit" viewBox="0 0 24 24"><path fill="currentColor" d="M12 17q-1.825 0-3.187-1.137T7.1 13H2v-2h5.1q.35-1.725 1.713-2.863T12 7t3.188 1.138T16.9 11H22v2h-5.1q-.35 1.725-1.712 2.863T12 17m0-2q1.25 0 2.125-.875T15 12t-.875-2.125T12 9t-2.125.875T9 12t.875 2.125T12 15"/></symbol><symbol id="hd-icon-material-symbols-commit-rounded" viewBox="0 0 24 24"><path fill="currentColor" d="M12 17q-1.825 0-3.187-1.137T7.1 13H3q-.425 0-.712-.288T2 12t.288-.712T3 11h4.1q.35-1.725 1.713-2.863T12 7t3.188 1.138T16.9 11H21q.425 0 .713.288T22 12t-.288.713T21 13h-4.1q-.35 1.725-1.712 2.863T12 17m0-2q1.25 0 2.125-.875T15 12t-.875-2.125T12 9t-2.125.875T9 12t.875 2.125T12 15"/></symbol><symbol id="hd-icon-material-symbols-communication" viewBox="0 0 24 24"><path fill="currentColor" d="m10.2 13.2l-1.05-1.05q.2-.275.275-.562T9.5 11t-.075-.587t-.275-.538L10.2 8.8q.4.475.6 1.05T11 11t-.2 1.138t-.6 1.062m2.125 2.15l-1.075-1.075q.625-.7.938-1.55T12.5 11t-.312-1.712t-.938-1.538l1.075-1.075q.85.925 1.263 2.038T14 11t-.413 2.3t-1.262 2.05M5 12q-.825 0-1.412-.587T3 10t.588-1.412T5 8t1.413.588T7 10t-.587 1.413T5 12m-4 4v-.575q0-.6.325-1.1t.9-.75q.65-.275 1.338-.425T5 13t1.438.15t1.337.425q.575.25.9.75t.325 1.1V16zm18-4q-.825 0-1.412-.587T17 10t.588-1.412T19 8t1.413.588T21 10t-.587 1.413T19 12m-4 4v-.575q0-.6.325-1.1t.9-.75q.65-.275 1.337-.425T19 13t1.437.15t1.338.425q.575.25.9.75t.325 1.1V16z"/></symbol><symbol id="hd-icon-material-symbols-communication-rounded" viewBox="0 0 24 24"><path fill="currentColor" d="M1 16v-.575q0-1.475 1.425-1.95T5 13t2.575.475T9 15.425V16zm4-4q-.825 0-1.412-.587T3 10t.588-1.412T5 8t1.413.588T7 10t-.587 1.413T5 12m4.675 1.425q-.3 0-.525-.225t-.225-.525q0-.15.225-.525q.2-.25.275-.55T9.5 11t-.075-.587t-.275-.538q-.1-.125-.162-.262t-.063-.288q0-.325.213-.537t.537-.213q.2 0 .363.113t.287.262q.325.45.5.975T11 11t-.175 1.063t-.5.987q-.125.15-.287.263t-.363.112m2.125 2.15q-.325 0-.55-.212t-.225-.538q0-.15.063-.287t.162-.263q.625-.7.938-1.55T12.5 11t-.312-1.713t-.938-1.537q-.1-.125-.162-.25t-.063-.275q0-.325.213-.55t.537-.225q.175 0 .325.075t.275.2Q13.2 7.65 13.6 8.75T14 11t-.413 2.263t-1.212 2.037q-.125.125-.262.2t-.313.075M15 16v-.575q0-1.475 1.425-1.95T19 13t2.575.475T23 15.425V16zm4-4q-.825 0-1.412-.587T17 10t.588-1.412T19 8t1.413.588T21 10t-.587 1.413T19 12"/></symbol><symbol id="hd-icon-material-symbols-communities" viewBox="0 0 24 24"><path fill="currentColor" d="M9 16q.825 0 1.413-.587T11 14t-.587-1.412T9 12t-1.412.588T7 14t.588 1.413T9 16m6 0q.825 0 1.413-.587T17 14t-.587-1.412T15 12t-1.412.588T13 14t.588 1.413T15 16m-3-5q.825 0 1.413-.587T14 9t-.587-1.412T12 7t-1.412.588T10 9t.588 1.413T12 11m0 11q-2.075 0-3.9-.788t-3.175-2.137T2.788 15.9T2 12t.788-3.9t2.137-3.175T8.1 2.788T12 2t3.9.788t3.175 2.137T21.213 8.1T22 12t-.788 3.9t-2.137 3.175t-3.175 2.138T12 22"/></symbol><symbol id="hd-icon-material-symbols-communities-outline" viewBox="0 0 24 24"><path fill="currentColor" d="M9 16q.825 0 1.413-.587T11 14t-.587-1.412T9 12t-1.412.588T7 14t.588 1.413T9 16m6 0q.825 0 1.413-.587T17 14t-.587-1.412T15 12t-1.412.588T13 14t.588 1.413T15 16m-3-5q.825 0 1.413-.587T14 9t-.587-1.412T12 7t-1.412.588T10 9t.588 1.413T12 11m0 11q-2.075 0-3.9-.788t-3.175-2.137T2.788 15.9T2 12t.788-3.9t2.137-3.175T8.1 2.788T12 2t3.9.788t3.175 2.137T21.213 8.1T22 12t-.788 3.9t-2.137 3.175t-3.175 2.138T12 22m0-2q3.35 0 5.675-2.325T20 12t-2.325-5.675T12 4T6.325 6.325T4 12t2.325 5.675T12 20m0-8"/></symbol><symbol id="hd-icon-material-symbols-commute" viewBox="0 0 24 24"><path fill="currentColor" d="M10 19.35v-5.7l1.4-4q.125-.275.363-.462T12.35 9h7.3q.35 0 .588.188t.362.462l1.4 4v5.7q0 .275-.187.463T21.35 20h-.7q-.275 0-.462-.187T20 19.35v-.85h-8v.85q0 .275-.187.463T11.35 20h-.7q-.275 0-.462-.187T10 19.35m2-6.85h8l-.7-2h-6.6zm1 4q.425 0 .713-.288T14 15.5t-.288-.712T13 14.5t-.712.288T12 15.5t.288.713t.712.287m6 0q.425 0 .713-.288T20 15.5t-.288-.712T19 14.5t-.712.288T18 15.5t.288.713t.712.287M4 20v-1l1-1q-1.25 0-2.125-.875T2 15V7q0-1.65 1.475-2.325T8.5 4q3.7 0 5.1.65T15 7v1h-2V7H4v6h5v7zm1-4q.425 0 .713-.288T6 15t-.288-.712T5 14t-.712.288T4 15t.288.713T5 16"/></symbol><symbol id="hd-icon-material-symbols-commute-outline" viewBox="0 0 24 24"><path fill="currentColor" d="M10 19.35v-5.7l1.4-4q.125-.275.363-.462T12.35 9h7.3q.35 0 .6.188t.35.462l1.4 4v5.7q0 .275-.187.463T21.35 20h-.7q-.275 0-.462-.187T20 19.35v-.85h-8v.85q0 .275-.187.463T11.35 20h-.7q-.275 0-.462-.187T10 19.35m2-6.85h8l-.7-2h-6.6zm-.5 1.5v3zm1.5 2.5q.425 0 .713-.288T14 15.5t-.288-.712T13 14.5t-.712.288T12 15.5t.288.713t.712.287m6 0q.425 0 .713-.288T20 15.5t-.288-.712T19 14.5t-.712.288T18 15.5t.288.713t.712.287M4 20v-1l1-1q-1.25 0-2.125-.875T2 15V7q0-1.65 1.475-2.325T8.5 4q3.7 0 5.1.65T15 7v1h-2V7H4v6h5v7zm1-4q.425 0 .713-.288T6 15t-.288-.712T5 14t-.712.288T4 15t.288.713T5 16m6.5 1h9v-3h-9z"/></symbol><symbol id="hd-icon-material-symbols-commute-outline-rounded" viewBox="0 0 24 24"><path fill="currentColor" d="M12 18.5v.5q0 .425-.288.713T11 20t-.712-.288T10 19v-5q0-.175.025-.35t.075-.325l1.05-2.975q.2-.6.725-.975T13.05 9h5.9q.65 0 1.175.375t.725.975l1.05 2.975q.05.15.075.325T22 14v5q0 .425-.287.713T21 20t-.712-.288T20 19v-.5zm0-6h8l-.7-2h-6.6zm-.5 1.5v3zm1.5 2.5q.425 0 .713-.288T14 15.5t-.288-.712T13 14.5t-.712.288T12 15.5t.288.713t.712.287m6 0q.425 0 .713-.288T20 15.5t-.288-.712T19 14.5t-.712.288T18 15.5t.288.713t.712.287M4.2 20q-.35 0-.475-.3t.125-.55L5 18q-1.25 0-2.125-.875T2 15V7q0-1.65 1.475-2.325T8.5 4q3.7 0 5.1.65T15 7q0 .425-.287.713T14 8t-.712-.288T13 7H4v6h4q.425 0 .713.288T9 14v5q0 .425-.288.713T8 20zm.8-4q.425 0 .712-.288T6 15t-.288-.712T5 14t-.712.288T4 15t.288.713T5 16m6.5 1h9v-3h-9z"/></symbol><symbol id="hd-icon-material-symbols-commute-outline-sharp" viewBox="0 0 24 24"><path fill="currentColor" d="M12 18.5V20h-2v-6.35L11.625 9h8.75L22 13.65V20h-2v-1.5zm0-6h8l-.7-2h-6.6zm-.5 1.5v3zm1.5 2.5q.425 0 .713-.288T14 15.5t-.288-.712T13 14.5t-.712.288T12 15.5t.288.713t.712.287m6 0q.425 0 .713-.288T20 15.5t-.288-.712T19 14.5t-.712.288T18 15.5t.288.713t.712.287M4 20v-1l1-1q-1.25 0-2.125-.875T2 15V7q0-1.65 1.475-2.325T8.5 4q3.7 0 5.1.65T15 7v1h-2V7H4v6h5v7zm1-4q.425 0 .713-.288T6 15t-.288-.712T5 14t-.712.288T4 15t.288.713T5 16m6.5 1h9v-3h-9z"/></symbol><symbol id="hd-icon-material-symbols-commute-rounded" viewBox="0 0 24 24"><path fill="currentColor" d="M12 18.5v.5q0 .425-.288.713T11 20t-.712-.288T10 19v-5q0-.175.025-.35t.075-.325l1.05-2.975q.2-.6.725-.975T13.05 9h5.9q.65 0 1.175.375t.725.975l1.05 2.975q.05.15.075.325T22 14v5q0 .425-.287.713T21 20t-.712-.288T20 19v-.5zm0-6h8l-.7-2h-6.6zm1 4q.425 0 .713-.288T14 15.5t-.288-.712T13 14.5t-.712.288T12 15.5t.288.713t.712.287m6 0q.425 0 .713-.288T20 15.5t-.288-.712T19 14.5t-.712.288T18 15.5t.288.713t.712.287M4.2 20q-.35 0-.475-.3t.125-.55L5 18q-1.25 0-2.125-.875T2 15V7q0-1.65 1.475-2.325T8.5 4q3.7 0 5.1.65T15 7q0 .425-.287.713T14 8t-.712-.288T13 7H4v6h4q.425 0 .713.288T9 14v5q0 .425-.288.713T8 20zm.8-4q.425 0 .712-.288T6 15t-.288-.712T5 14t-.712.288T4 15t.288.713T5 16"/></symbol><symbol id="hd-icon-material-symbols-commute-sharp" viewBox="0 0 24 24"><path fill="currentColor" d="M12 18.5V20h-2v-6.35L11.625 9h8.75L22 13.65V20h-2v-1.5zm0-6h8l-.7-2h-6.6zm1 4q.425 0 .713-.288T14 15.5t-.288-.712T13 14.5t-.712.288T12 15.5t.288.713t.712.287m6 0q.425 0 .713-.288T20 15.5t-.288-.712T19 14.5t-.712.288T18 15.5t.288.713t.712.287M4 20v-1l1-1q-1.25 0-2.125-.875T2 15V7q0-1.65 1.475-2.325T8.5 4q3.7 0 5.1.65T15 7v1h-2V7H4v6h5v7zm1-4q.425 0 .713-.288T6 15t-.288-.712T5 14t-.712.288T4 15t.288.713T5 16"/></symbol><symbol id="hd-icon-material-symbols-compare" viewBox="0 0 24 24"><path fill="currentColor" d="M10 23v-2H5q-.825 0-1.412-.587T3 19V5q0-.825.588-1.412T5 3h5V1h2v22zm-5-5h5v-6zm9 3v-9l5 6V5h-5V3h5q.825 0 1.413.588T21 5v14q0 .825-.587 1.413T19 21z"/></symbol><symbol id="hd-icon-material-symbols-compare-arrows" viewBox="0 0 24 24"><path fill="currentColor" d="m8 20l-1.4-1.425L9.175 16H2v-2h7.175L6.6 11.425L8 10l5 5zm8-6l-5-5l5-5l1.4 1.425L14.825 8H22v2h-7.175l2.575 2.575z"/></symbol><symbol id="hd-icon-material-symbols-compare-arrows-rounded" viewBox="0 0 24 24"><path fill="currentColor" d="M9.175 16H3q-.425 0-.712-.288T2 15t.288-.712T3 14h6.175L7.3 12.125q-.275-.275-.275-.687t.275-.713q.3-.3.713-.3t.712.3L12.3 14.3q.15.15.213.325t.062.375t-.062.375t-.213.325l-3.6 3.6q-.3.3-.7.288t-.7-.313q-.275-.3-.287-.7t.287-.7zm5.65-6l1.875 1.875q.275.275.275.688t-.275.712q-.3.3-.712.3t-.713-.3L11.7 9.7q-.15-.15-.212-.325T11.425 9t.063-.375t.212-.325l3.6-3.6q.3-.3.7-.287t.7.312q.275.3.288.7t-.288.7L14.825 8H21q.425 0 .713.288T22 9t-.288.713T21 10z"/></symbol><symbol id="hd-icon-material-symbols-compare-rounded" viewBox="0 0 24 24"><path fill="currentColor" d="M10 21H5q-.825 0-1.412-.587T3 19V5q0-.825.588-1.412T5 3h5V2q0-.425.288-.712T11 1t.713.288T12 2v20q0 .425-.288.713T11 23t-.712-.288T10 22zm-5-3h5v-6zm9 3v-9l5 6V5h-5V3h5q.825 0 1.413.588T21 5v14q0 .825-.587 1.413T19 21z"/></symbol><symbol id="hd-icon-material-symbols-compare-sharp" viewBox="0 0 24 24"><path fill="currentColor" d="M10 23v-2H3V3h7V1h2v22zm-5-5h5v-6zm9 3v-9l5 6V5h-5V3h7v18z"/></symbol><symbol id="hd-icon-material-symbols-compass-calibration" viewBox="0 0 24 24"><path fill="currentColor" d="M12 22q-2.075 0-3.537-1.463T7 17t1.463-3.537T12 12t3.538 1.463T17 17t-1.463 3.538T12 22m-5-9.85l-5-5q2-2 4.588-3.075T12 3t5.413 1.075T22 7.15l-5 5q-1.025-1.025-2.3-1.588T12 10t-2.7.563T7 12.15"/></symbol><symbol id="hd-icon-material-symbols-compass-calibration-outline" viewBox="0 0 24 24"><path fill="currentColor" d="M12 22q-2.075 0-3.537-1.463T7 17t1.463-3.537T12 12t3.538 1.463T17 17t-1.463 3.538T12 22m0-2q1.25 0 2.125-.875T15 17t-.875-2.125T12 14t-2.125.875T9 17t.875 2.125T12 20m-5-7.85l-5-5q2-2 4.588-3.075T12 3t5.413 1.075T22 7.15l-5 5q-1.025-1.025-2.3-1.588T12 10t-2.7.563T7 12.15m.15-2.65q1.05-.75 2.288-1.125T12 8t2.538.363T16.85 9.45l2.2-2.2q-1.55-1.1-3.338-1.675T12 5t-3.713.575T4.95 7.25zM12 17"/></symbol><symbol id="hd-icon-material-symbols-compass-calibration-outline-rounded" viewBox="0 0 24 24"><path fill="currentColor" d="M12 22q-2.075 0-3.537-1.463T7 17t1.463-3.537T12 12t3.538 1.463T17 17t-1.463 3.538T12 22m0-2q1.25 0 2.125-.875T15 17t-.875-2.125T12 14t-2.125.875T9 17t.875 2.125T12 20m0-10q-1.2 0-2.312.388T7.7 11.55q-.3.275-.687.25t-.663-.3L2.775 7.925q-.3-.3-.3-.75t.35-.725Q4.775 4.8 7.113 3.9T12 3t4.888.9t4.287 2.55q.35.275.35.725t-.3.75L17.65 11.5q-.275.275-.662.3t-.688-.25q-.875-.775-1.987-1.162T12 10m-4.85-.5q1.05-.75 2.287-1.125T12 8t2.538.363T16.85 9.45l2.2-2.2q-1.55-1.1-3.338-1.675T12 5t-3.713.575T4.95 7.25zM12 17"/></symbol><symbol id="hd-icon-material-symbols-compass-calibration-rounded" viewBox="0 0 24 24"><path fill="currentColor" d="M12 22q-2.075 0-3.537-1.463T7 17t1.463-3.537T12 12t3.538 1.463T17 17t-1.463 3.538T12 22m0-12q-1.2 0-2.312.388T7.7 11.55q-.3.275-.687.25t-.663-.3L2.775 7.925q-.3-.3-.3-.75t.35-.725Q4.775 4.8 7.113 3.9T12 3t4.888.9t4.287 2.55q.35.275.35.725t-.3.75L17.65 11.5q-.275.275-.662.3t-.688-.25q-.875-.775-1.987-1.162T12 10"/></symbol><symbol id="hd-icon-material-symbols-component-exchange" viewBox="0 0 24 24"><path fill="currentColor" d="m4.9 21l-.15-1.275l-.2-.1q-.1-.05-.275-.175l-1.2.5l-1.1-1.9L3 17.275v-.525l-1.025-.8l1.1-1.9l1.2.5q.125-.075.237-.15t.238-.125L4.9 13h2.2l.15 1.275l.1.05l.1.05q.05.025.125.075l.15.1l1.2-.5l1.1 1.9L9 16.725v.55l5.475-3.175l-1.125 1.975l.3.225l-3.95 2.3l-.775 1.35l-1.2-.5q-.125.075-.237.15t-.238.125L7.1 21zM6 15.5q-.625 0-1.062.438T4.5 17t.438 1.063T6 18.5t1.063-.437T7.5 17t-.437-1.062T6 15.5M9.9 10l-.15-1.275q-.05-.05-.125-.075T9.5 8.575v5.5l-.375-.65L8 13.9V8.8L7 7.05l1-.775V5.75l-1.025-.8l1.1-1.9l1.2.5q.125-.075.237-.15t.238-.125L9.9 2h2.2l.15 1.275l.2.1q.1.05.275.175l1.2-.5l1.1 1.9L14 5.725v.525l1.025.8l-1.1 1.9l-1.2-.5q-.125.075-.237.15t-.238.125L12.1 10zM11 4.5q-.625 0-1.062.438T9.5 6t.438 1.063T11 7.5t1.063-.437T12.5 6t-.437-1.062T11 4.5M16.9 21l-.15-1.275l-.2-.1q-.1-.05-.275-.175l-1.2.5l-1.1-1.9L15 17.275v-.525l-1.025-.775l1.1-1.925l1.2.5q.075-.05.1-.062l.375-.188l-5.4-3.8h1.2l.1-.9l4.875 3.4H19.1l.15 1.275l.1.05l.1.05q.05.025.125.075l.15.1l1.2-.5l1.1 1.9l-1.025.775v.525l1.025.8l-1.1 1.9l-1.2-.5q-.125.075-.237.15t-.238.125L19.1 21zm1.1-5.5q-.625 0-1.062.438T16.5 17t.438 1.063T18 18.5t1.063-.437T19.5 17t-.437-1.062T18 15.5"/></symbol><symbol id="hd-icon-material-symbols-component-exchange-sharp" viewBox="0 0 24 24"><path fill="currentColor" d="M9.9 2h2.2l.15 1.275q.125.05.238.125q.112.075.237.15l1.2-.5l1.1 1.9L14 5.725v.525l1.025.8l-1.1 1.9l-1.2-.5q-.125.075-.237.15q-.113.075-.238.125L12.1 10H9.9l-.15-1.275q-.05-.05-.125-.075q-.075-.025-.125-.075v5.5l-.375-.65L8 13.9V8.8L7 7.05l1-.775V5.75l-1.025-.8l1.1-1.9l1.2.5q.125-.075.237-.15q.113-.075.238-.125ZM11 7.5q.625 0 1.062-.438Q12.5 6.625 12.5 6t-.438-1.062Q11.625 4.5 11 4.5t-1.062.438Q9.5 5.375 9.5 6t.438 1.062Q10.375 7.5 11 7.5ZM16.9 21l-.15-1.275q-.125-.05-.237-.125q-.113-.075-.238-.15l-1.2.5l-1.1-1.9L15 17.275v-.525l-1.025-.775l1.1-1.925l1.2.5q.125-.075.238-.138q.112-.062.237-.112l-5.4-3.8h1.2l.1-.9l4.875 3.4H19.1l.15 1.275q.125.05.238.125q.112.075.237.15l1.2-.5l1.1 1.9l-1.025.775v.525l1.025.8l-1.1 1.9l-1.2-.5q-.125.075-.237.15q-.113.075-.238.125L19.1 21Zm1.1-2.5q.625 0 1.062-.438q.438-.437.438-1.062t-.438-1.062Q18.625 15.5 18 15.5t-1.062.438Q16.5 16.375 16.5 17t.438 1.062q.437.438 1.062.438ZM4.9 21l-.15-1.275q-.125-.05-.237-.125q-.113-.075-.238-.15l-1.2.5l-1.1-1.9L3 17.275v-.525l-1.025-.8l1.1-1.9l1.2.5q.125-.075.238-.15q.112-.075.237-.125L4.9 13h2.2l.15 1.275q.125.05.238.125q.112.075.237.15l1.2-.5l1.1 1.9L9 16.725v.55l5.475-3.175l-1.125 1.975l.3.225l-3.95 2.3l-.775 1.35l-1.2-.5q-.125.075-.237.15q-.113.075-.238.125L7.1 21ZM6 18.5q.625 0 1.062-.438Q7.5 17.625 7.5 17t-.438-1.062Q6.625 15.5 6 15.5t-1.062.438Q4.5 16.375 4.5 17t.438 1.062Q5.375 18.5 6 18.5Z"/></symbol><symbol id="hd-icon-material-symbols-compost" viewBox="0 0 24 24"><path fill="currentColor" d="M12 21.5q-1.975 0-3.7-.75t-3.012-2.037T3.25 15.7T2.5 12t.75-3.7t2.038-3.012T8.3 3.25T12 2.5V0l4 4l-4 4V5.5q-2.7 0-4.6 1.9T5.5 12q0 1.65.762 3.063T8.3 17.35q.4-.7 1.188-1.187t1.812-.613q-.075-.525-.2-1.05t-.3-.975q-.275.225-.6.35T9.5 14q-.825 0-1.412-.587T7.5 12v-1q0-.425-.137-.8T7 9.5q1.25-.025 2.225.225q.85.225 1.55.738T11.5 12q0 .225-.038.413t-.137.387q-.325-.25-.65-.45T10 12q.425.325.975 1T12 14.6q.5-1.225 1.25-2.412T15 10q-.575.4-1.1.85t-1.025.95q-.175-.275-.275-.612t-.1-.688q0-1.05.725-1.775T15 8h1q.575 0 .95-.15t.625-.35q.275-.225.425-.5q.1 1.675-.175 3q-.225 1.125-.85 2.063T15 13q-.375 0-.712-.1t-.613-.275q-.175.475-.4 1.263t-.35 1.687q.95.175 1.675.65t1.1 1.125q1.275-.875 2.038-2.275T18.5 12h3q0 1.975-.75 3.7t-2.037 3.013T15.7 20.75t-3.7.75"/></symbol><symbol id="hd-icon-material-symbols-compost-rounded" viewBox="0 0 24 24"><path fill="currentColor" d="M12 21.5q-1.975 0-3.7-.75t-3.012-2.037T3.25 15.7T2.5 12t.75-3.7t2.038-3.012T8.3 3.25T12 2.5V1.2q0-.35.3-.475t.55.125L15.3 3.3q.3.3.3.7t-.3.7l-2.45 2.45q-.25.25-.55.125T12 6.8V5.5q-2.7 0-4.6 1.9T5.5 12q0 1.65.762 3.063T8.3 17.35q.4-.7 1.188-1.187t1.812-.613q-.075-.525-.2-1.05t-.3-.975q-.275.225-.6.35T9.5 14q-.825 0-1.412-.587T7.5 12v-1q0-.2-.038-.387t-.087-.363q-.125-.275.038-.513t.437-.212q1.125.05 2.375.55T11.5 12q0 .225-.037.413t-.138.387q-.325-.25-.65-.45T10 12q.425.325.975 1T12 14.6q.5-1.225 1.25-2.412T15 10q-.575.4-1.1.85t-1.025.95q-.175-.275-.275-.612t-.1-.688q0-1.05.725-1.775T15 8h1q.35 0 .738-.088t.662-.337q.175-.175.4-.088t.225.338q0 .625-.087 1.513t-.4 1.7t-.913 1.387T15 13q-.375 0-.712-.1t-.613-.275q-.175.475-.4 1.263t-.35 1.687q.95.175 1.675.65t1.1 1.125q1.05-.725 1.75-1.8t.95-2.375q.125-.625.563-1.05T20 11.7q.65 0 1.088.463t.337 1.087q-.45 3.525-3.113 5.888T12 21.5"/></symbol><symbol id="hd-icon-material-symbols-compress" viewBox="0 0 24 24"><path fill="currentColor" d="M4 14v-2h16v2zm0-3V9h16v2zm7 11v-3.2l-1.6 1.6L8 19l4-4l4 4l-1.4 1.4l-1.6-1.55V22zm1-14L8 4l1.4-1.4L11 4.2V1h2v3.2l1.6-1.6L16 4z"/></symbol><symbol id="hd-icon-material-symbols-compress-rounded" viewBox="0 0 24 24"><path fill="currentColor" d="M5 14q-.425 0-.712-.288T4 13t.288-.712T5 12h14q.425 0 .713.288T20 13t-.288.713T19 14zm0-3q-.425 0-.712-.288T4 10t.288-.712T5 9h14q.425 0 .713.288T20 10t-.288.713T19 11zm7 11q-.425 0-.712-.288T11 21v-2.2l-.9.9q-.275.275-.7.275t-.7-.275t-.275-.7t.275-.7l2.6-2.6q.15-.15.325-.212t.375-.063t.375.063t.325.212l2.6 2.6q.275.275.287.688t-.287.712q-.275.275-.687.288t-.713-.263l-.9-.875V21q0 .425-.288.713T12 22m0-14.425q-.2 0-.375-.063T11.3 7.3L8.7 4.7q-.275-.275-.275-.7t.275-.7t.7-.275t.7.275l.9.9V2q0-.425.288-.712T12 1t.713.288T13 2v2.2l.9-.9q.275-.275.7-.275t.7.275t.275.7t-.275.7l-2.6 2.6q-.15.15-.325.213T12 7.575"/></symbol><symbol id="hd-icon-material-symbols-computer" viewBox="0 0 24 24"><path fill="currentColor" d="M4 18q-.825 0-1.412-.587T2 16V5q0-.825.588-1.412T4 3h16q.825 0 1.413.588T22 5v11q0 .825-.587 1.413T20 18zm-3 3v-2h22v2z"/></symbol><symbol id="hd-icon-material-symbols-computer-arrow-up" viewBox="0 0 24 24"><path fill="currentColor" d="M1 21v-2h22v2zm3-3q-.825 0-1.412-.587T2 16V5q0-.825.588-1.412T4 3h16q.825 0 1.413.588T22 5v11q0 .825-.587 1.413T20 18zm7-3.5h2v-4.175l1.6 1.575l1.4-1.4l-4-4l-4 4l1.4 1.425l1.6-1.6z"/></symbol><symbol id="hd-icon-material-symbols-computer-arrow-up-outline" viewBox="0 0 24 24"><path fill="currentColor" d="M1 21v-2h22v2zm3-3q-.825 0-1.412-.587T2 16V5q0-.825.588-1.412T4 3h16q.825 0 1.413.588T22 5v11q0 .825-.587 1.413T20 18zm0-2h16V5H4zm0 0V5zm7-1.5h2v-4.175l1.6 1.575l1.4-1.4l-4-4l-4 4l1.4 1.425l1.6-1.6z"/></symbol><symbol id="hd-icon-material-symbols-computer-arrow-up-outline-rounded" viewBox="0 0 24 24"><path fill="currentColor" d="M11 10.325V13.5q0 .425.288.713T12 14.5t.713-.288T13 13.5v-3.175l.875.875q.3.275.713.288t.712-.288t.3-.7t-.3-.7L12 6.5L8.7 9.8q-.3.3-.3.7t.3.7t.713.3t.712-.3zM2 21q-.425 0-.712-.288T1 20t.288-.712T2 19h20q.425 0 .713.288T23 20t-.288.713T22 21zm2-3q-.825 0-1.412-.587T2 16V5q0-.825.588-1.412T4 3h16q.825 0 1.413.588T22 5v11q0 .825-.587 1.413T20 18zm0-2h16V5H4zm0 0V5z"/></symbol><symbol id="hd-icon-material-symbols-computer-arrow-up-outline-sharp" viewBox="0 0 24 24"><path fill="currentColor" d="M11 14.5h2v-4.175l1.6 1.575l1.4-1.4l-4-4l-4 4l1.4 1.425l1.6-1.6zM1 21v-2h22v2zm1-3V3h20v15zm2-2h16V5H4zm0 0V5z"/></symbol><symbol id="hd-icon-material-symbols-computer-arrow-up-rounded" viewBox="0 0 24 24"><path fill="currentColor" d="M11 10.325V13.5q0 .425.288.713T12 14.5t.713-.288T13 13.5v-3.175l.875.875q.3.275.713.288t.712-.288t.3-.7t-.3-.7L12 6.5L8.7 9.8q-.3.3-.3.7t.3.7t.713.3t.712-.3zM2 21q-.425 0-.712-.288T1 20t.288-.712T2 19h20q.425 0 .713.288T23 20t-.288.713T22 21zm2-3q-.825 0-1.412-.587T2 16V5q0-.825.588-1.412T4 3h16q.825 0 1.413.588T22 5v11q0 .825-.587 1.413T20 18z"/></symbol><symbol id="hd-icon-material-symbols-computer-arrow-up-sharp" viewBox="0 0 24 24"><path fill="currentColor" d="M11 14.5h2v-4.175l1.6 1.575l1.4-1.4l-4-4l-4 4l1.4 1.425l1.6-1.6zM1 21v-2h22v2zm1-3V3h20v15z"/></symbol><symbol id="hd-icon-material-symbols-computer-cancel" viewBox="0 0 24 24"><path fill="currentColor" d="M1 21v-2h22v2zm3-3q-.825 0-1.412-.587T2 16V5q0-.825.588-1.412T4 3h16q.825 0 1.413.588T22 5v11q0 .825-.587 1.413T20 18zm5.4-3.5l2.6-2.6l2.6 2.6l1.4-1.4l-2.6-2.6L16 7.9l-1.4-1.4L12 9.1L9.4 6.5L8 7.9l2.6 2.6L8 13.1z"/></symbol><symbol id="hd-icon-material-symbols-computer-cancel-outline" viewBox="0 0 24 24"><path fill="currentColor" d="M1 21v-2h22v2zm3-3q-.825 0-1.412-.587T2 16V5q0-.825.588-1.412T4 3h16q.825 0 1.413.588T22 5v11q0 .825-.587 1.413T20 18zm0-2h16V5H4zm0 0V5zm5.4-1.5l2.6-2.6l2.6 2.6l1.4-1.4l-2.6-2.6L16 7.9l-1.4-1.4L12 9.1L9.4 6.5L8 7.9l2.6 2.6L8 13.1z"/></symbol><symbol id="hd-icon-material-symbols-computer-cancel-outline-rounded" viewBox="0 0 24 24"><path fill="currentColor" d="m12 11.9l1.875 1.9q.3.3.713.3t.712-.3t.3-.712t-.3-.713L13.4 10.5l1.9-1.875q.3-.3.3-.712t-.3-.713t-.712-.3t-.713.3L12 9.1l-1.875-1.9q-.3-.3-.712-.3t-.713.3t-.3.713t.3.712l1.9 1.875l-1.9 1.875q-.3.3-.3.713t.3.712t.713.3t.712-.3zM2 21q-.425 0-.712-.288T1 20t.288-.712T2 19h20q.425 0 .713.288T23 20t-.288.713T22 21zm2-3q-.825 0-1.412-.587T2 16V5q0-.825.588-1.412T4 3h16q.825 0 1.413.588T22 5v11q0 .825-.587 1.413T20 18zm0-2h16V5H4zm0 0V5z"/></symbol><symbol id="hd-icon-material-symbols-computer-cancel-outline-sharp" viewBox="0 0 24 24"><path fill="currentColor" d="m9.4 14.5l2.6-2.6l2.6 2.6l1.4-1.4l-2.6-2.6L16 7.9l-1.4-1.4L12 9.1L9.4 6.5L8 7.9l2.6 2.6L8 13.1zM1 21v-2h22v2zm1-3V3h20v15zm2-2h16V5H4zm0 0V5z"/></symbol><symbol id="hd-icon-material-symbols-computer-cancel-rounded" viewBox="0 0 24 24"><path fill="currentColor" d="m12 11.9l1.875 1.9q.3.3.713.3t.712-.3t.3-.712t-.3-.713L13.4 10.5l1.9-1.875q.3-.3.3-.712t-.3-.713t-.712-.3t-.713.3L12 9.1l-1.875-1.9q-.3-.3-.712-.3t-.713.3t-.3.713t.3.712l1.9 1.875l-1.9 1.875q-.3.3-.3.713t.3.712t.713.3t.712-.3zM2 21q-.425 0-.712-.288T1 20t.288-.712T2 19h20q.425 0 .713.288T23 20t-.288.713T22 21zm2-3q-.825 0-1.412-.587T2 16V5q0-.825.588-1.412T4 3h16q.825 0 1.413.588T22 5v11q0 .825-.587 1.413T20 18z"/></symbol><symbol id="hd-icon-material-symbols-computer-cancel-sharp" viewBox="0 0 24 24"><path fill="currentColor" d="m9.4 14.5l2.6-2.6l2.6 2.6l1.4-1.4l-2.6-2.6L16 7.9l-1.4-1.4L12 9.1L9.4 6.5L8 7.9l2.6 2.6L8 13.1zM1 21v-2h22v2zm1-3V3h20v15z"/></symbol><symbol id="hd-icon-material-symbols-computer-outline" viewBox="0 0 24 24"><path fill="currentColor" d="M1 21v-2h22v2zm3-3q-.825 0-1.412-.587T2 16V5q0-.825.588-1.412T4 3h16q.825 0 1.413.588T22 5v11q0 .825-.587 1.413T20 18zm0-2h16V5H4zm0 0V5z"/></symbol><symbol id="hd-icon-material-symbols-computer-outline-rounded" viewBox="0 0 24 24"><path fill="currentColor" d="M2 21q-.425 0-.712-.288T1 20t.288-.712T2 19h20q.425 0 .713.288T23 20t-.288.713T22 21zm2-3q-.825 0-1.412-.587T2 16V5q0-.825.588-1.412T4 3h16q.825 0 1.413.588T22 5v11q0 .825-.587 1.413T20 18zm0-2h16V5H4zm0 0V5z"/></symbol><symbol id="hd-icon-material-symbols-computer-outline-sharp" viewBox="0 0 24 24"><path fill="currentColor" d="M1 21v-2h22v2zm1-3V3h20v15zm2-2h16V5H4zm0 0V5z"/></symbol><symbol id="hd-icon-material-symbols-computer-rounded" viewBox="0 0 24 24"><path fill="currentColor" d="M2 21q-.425 0-.712-.288T1 20t.288-.712T2 19h20q.425 0 .713.288T23 20t-.288.713T22 21zm2-3q-.825 0-1.412-.587T2 16V5q0-.825.588-1.412T4 3h16q.825 0 1.413.588T22 5v11q0 .825-.587 1.413T20 18z"/></symbol><symbol id="hd-icon-material-symbols-computer-sharp" viewBox="0 0 24 24"><path fill="currentColor" d="M1 21v-2h22v2zm1-3V3h20v15z"/></symbol><symbol id="hd-icon-material-symbols-computer-sound" viewBox="0 0 24 24"><path fill="currentColor" d="M4 18q-.825 0-1.412-.587T2 16V5q0-.825.588-1.412T4 3h16.175L15 8.175V12.8l5.175 5.2zm-3 3v-2h22v2zm19.775-5.2l-1.4-1.4q.8-.8 1.213-1.8T21 10.5t-.412-2.1t-1.213-1.8l1.4-1.4q1.075 1.05 1.65 2.425T23 10.5t-.575 2.875t-1.65 2.425m-2.45-2.45l-1.45-1.45q.3-.275.463-.637t.162-.763t-.162-.763t-.463-.637l1.45-1.45q.575.575.875 1.312t.3 1.538t-.3 1.537t-.875 1.313"/></symbol></svg>