<svg xmlns="http://www.w3.org/2000/svg" xmlns:xlink="http://www.w3.org/1999/xlink"><symbol id="hd-icon-fluent-checkmark-circle-warning-20-regular" viewBox="0 0 20 20"><path fill="currentColor" d="M10 2a8 8 0 0 1 7.745 10.012l-.453-.906a2 2 0 0 0-.32-.468q.027-.315.028-.638a7 7 0 1 0-6.209 6.956l-.52 1.04Q10.137 18 10 18a8 8 0 1 1 0-16m3.358 5.646a.5.5 0 0 1 .058.638l-.058.07l-4.004 4.004a.5.5 0 0 1-.638.058l-.07-.058l-2-2a.5.5 0 0 1 .638-.765l.07.058L9 11.298l3.651-3.652a.5.5 0 0 1 .707 0m1.245 3.908a1 1 0 0 1 1.79 0l3.5 6.998A1 1 0 0 1 18.998 20h-6.996a1 1 0 0 1-.895-1.448zm1.395 1.941a.5.5 0 1 0-1 0v3.002a.5.5 0 1 0 1 0zm-.5 5.504a.5.5 0 1 0 0-1a.5.5 0 0 0 0 1"/></symbol><symbol id="hd-icon-fluent-checkmark-circle-warning-24-filled" viewBox="0 0 24 24"><path fill="currentColor" d="M12 2c5.523 0 10 4.477 10 10c0 1.042-.16 2.047-.455 2.992l-.804-1.609c-.921-1.844-3.553-1.844-4.474 0l-3.996 7.998a2.5 2.5 0 0 0-.216.619H12C6.477 22 2 17.523 2 12S6.477 2 12 2m3.22 6.97l-4.47 4.47l-1.97-1.97a.75.75 0 0 0-1.06 1.06l2.5 2.5a.75.75 0 0 0 1.06 0l5-5a.75.75 0 1 0-1.06-1.06m1.941 4.86c.553-1.107 2.133-1.107 2.686 0l3.997 7.998A1.5 1.5 0 0 1 22.5 24h-7.994a1.5 1.5 0 0 1-1.343-2.172zm1.843 2.666a.5.5 0 0 0-1 0v3.001a.5.5 0 0 0 1 0zm-.5 5.503a.5.5 0 1 0 0-1a.5.5 0 0 0 0 1"/></symbol><symbol id="hd-icon-fluent-checkmark-circle-warning-24-regular" viewBox="0 0 24 24"><path fill="currentColor" d="M12 2c5.523 0 10 4.477 10 10c0 1.042-.16 2.047-.455 2.992l-.804-1.609a2.6 2.6 0 0 0-.29-.457a8.5 8.5 0 1 0-7.724 7.544l-.456.91a2.5 2.5 0 0 0-.216.62H12C6.477 22 2 17.523 2 12S6.477 2 12 2m-1.25 11.44l4.47-4.47a.75.75 0 0 1 1.133.976l-.073.084l-5 5a.75.75 0 0 1-.976.073l-.084-.073l-2.5-2.5a.75.75 0 0 1 .976-1.133l.084.073zm6.411.39c.553-1.107 2.133-1.107 2.686 0l3.997 7.998A1.5 1.5 0 0 1 22.5 24h-7.994a1.5 1.5 0 0 1-1.343-2.172zm1.843 2.666a.5.5 0 0 0-1 0v3.001a.5.5 0 0 0 1 0zm-.5 5.503a.5.5 0 1 0 0-1a.5.5 0 0 0 0 1"/></symbol><symbol id="hd-icon-fluent-checkmark-lock-16-filled" viewBox="0 0 16 16"><path fill="currentColor" d="M0 7a7 7 0 0 1 13.974-.614A3 3 0 0 0 9.5 9v.063A2 2 0 0 0 7.999 11v2.93Q7.51 14 7 14a7 7 0 0 1-7-7m9.854-1.146a.5.5 0 0 0-.708-.708L6.25 8.043L4.854 6.646a.5.5 0 1 0-.708.708l1.75 1.75a.5.5 0 0 0 .708 0zM10.5 9v1H10a1 1 0 0 0-1 1v4a1 1 0 0 0 1 1h5a1 1 0 0 0 1-1v-4a1 1 0 0 0-1-1h-.5V9a2 2 0 1 0-4 0m1 1V9a1 1 0 1 1 2 0v1zm1 2.25a.75.75 0 1 1 0 1.5a.75.75 0 0 1 0-1.5"/></symbol><symbol id="hd-icon-fluent-checkmark-lock-16-regular" viewBox="0 0 16 16"><path fill="currentColor" d="M1 7a6 6 0 0 1 11.922-.97a3 3 0 0 1 1.051.356A7 7 0 1 0 8 13.93v-1.012Q7.511 13 7 13a6 6 0 0 1-6-6m8.854-1.146a.5.5 0 0 0-.708-.708L6.25 8.043L4.854 6.646a.5.5 0 1 0-.708.708l1.75 1.75a.5.5 0 0 0 .708 0zM10.5 9v1H10a1 1 0 0 0-1 1v4a1 1 0 0 0 1 1h5a1 1 0 0 0 1-1v-4a1 1 0 0 0-1-1h-.5V9a2 2 0 1 0-4 0m1 1V9a1 1 0 1 1 2 0v1zm1 2.25a.75.75 0 1 1 0 1.5a.75.75 0 0 1 0-1.5"/></symbol><symbol id="hd-icon-fluent-checkmark-lock-20-filled" viewBox="0 0 20 20"><path fill="currentColor" d="M10 2a8 8 0 0 1 7.993 8.331A3 3 0 0 0 12.5 12v.063A2 2 0 0 0 11 14v3.938Q10.508 18 10 18a8 8 0 1 1 0-16m3.358 5.646a.5.5 0 0 0-.637-.057l-.07.057L9 11.298L7.354 9.651l-.07-.058a.5.5 0 0 0-.695.696l.057.07l2 2l.07.057a.5.5 0 0 0 .568 0l.07-.058l4.004-4.004l.058-.07a.5.5 0 0 0-.058-.638M15.5 10a2 2 0 0 1 2 2v1h.5a1 1 0 0 1 1 1v4a1 1 0 0 1-1 1h-5a1 1 0 0 1-1-1v-4a1 1 0 0 1 1-1h.5v-1a2 2 0 0 1 2-2m-.655 6.366a.75.75 0 1 0 1.31-.732a.75.75 0 0 0-1.31.732M15.5 11a1 1 0 0 0-1 1v1h2v-1a1 1 0 0 0-1-1"/></symbol><symbol id="hd-icon-fluent-checkmark-lock-20-regular" viewBox="0 0 20 20"><path fill="currentColor" d="M10 2a8 8 0 0 1 7.993 8.331a3 3 0 0 0-1.02-.945A7 7 0 1 0 11 16.93v1.01q-.492.06-1 .061a8 8 0 1 1 0-16m6.97 8.645c.33.356.53.832.53 1.355v1h.5a1 1 0 0 1 1 1v4a1 1 0 0 1-1 1h-5a1 1 0 0 1-1-1v-4a1 1 0 0 1 1-1h.5v-1a2 2 0 0 1 3.47-1.355M14.5 13h2v-1a1 1 0 1 0-2 0zm.345 3.366a.75.75 0 1 0 1.31-.732a.75.75 0 0 0-1.31.732m-1.487-8.72a.5.5 0 0 1 .058.638l-.058.07l-4.004 4.004a.5.5 0 0 1-.638.058l-.07-.058l-2-2a.5.5 0 0 1 .638-.765l.07.058L9 11.298l3.651-3.652a.5.5 0 0 1 .707 0"/></symbol><symbol id="hd-icon-fluent-checkmark-lock-24-filled" viewBox="0 0 24 24"><path fill="currentColor" d="M12 2c5.523 0 10 4.477 10 10q0 .64-.078 1.26A3.501 3.501 0 0 0 15 14v.05a2.5 2.5 0 0 0-2 2.45v5q0 .229.04.447A10 10 0 0 1 12 22C6.477 22 2 17.523 2 12S6.477 2 12 2m3.22 6.97l-4.47 4.47l-1.97-1.97a.75.75 0 0 0-1.06 1.06l2.5 2.5a.75.75 0 0 0 1.06 0l5-5a.75.75 0 1 0-1.06-1.06m3.28 2.53A2.5 2.5 0 0 1 21 14v1h.542A1.5 1.5 0 0 1 23 16.5v5a1.5 1.5 0 0 1-1.5 1.5h-6a1.5 1.5 0 0 1-1.5-1.5v-5a1.5 1.5 0 0 1 1.5-1.5h.5v-1a2.5 2.5 0 0 1 2.5-2.5m-.393 8.42q.182.078.393.08a1 1 0 1 0-.393-.08M17.5 14v1h2v-1a1 1 0 1 0-2 0"/></symbol><symbol id="hd-icon-fluent-checkmark-lock-24-regular" viewBox="0 0 24 24"><path fill="currentColor" d="M12 2c5.523 0 10 4.477 10 10q0 .64-.078 1.26a3.5 3.5 0 0 0-1.47-2.165A8.501 8.501 0 0 0 3.5 12a8.5 8.5 0 0 0 9.5 8.442V21.5q0 .229.04.447A10 10 0 0 1 12 22C6.477 22 2 17.523 2 12S6.477 2 12 2m8.487 10.482A2.5 2.5 0 0 0 16 14v1h-.5a1.5 1.5 0 0 0-1.5 1.5v5q0 .15.029.294A1.5 1.5 0 0 0 15.5 23h6a1.5 1.5 0 0 0 1.5-1.5v-5a1.5 1.5 0 0 0-1.5-1.5H21v-1a2.5 2.5 0 0 0-.513-1.518m-2.38 7.438a1 1 0 1 1 .787-1.84a1 1 0 0 1-.787 1.84M17.5 14a1 1 0 1 1 2 0v1h-2zm-6.75-.56l4.47-4.47a.75.75 0 0 1 1.133.976l-.073.084l-5 5a.75.75 0 0 1-.976.073l-.084-.073l-2.5-2.5a.75.75 0 0 1 .976-1.133l.084.073z"/></symbol><symbol id="hd-icon-fluent-checkmark-note-20-filled" viewBox="0 0 20 20"><path fill="currentColor" d="M6.032 12.907L2.561 9.002a.75.75 0 1 0-1.122.996l4 4.5a.75.75 0 0 0 1.091.032l10.5-10.5a.75.75 0 0 0-1.06-1.06zM11 13a2 2 0 0 1 2-2h5a2 2 0 0 1 2 2v4a2 2 0 0 1-2 2h-5a2 2 0 0 1-2-2zm6.5 3h-4a.5.5 0 1 0 0 1h4a.5.5 0 1 0 0-1m-4-3a.5.5 0 1 0 0 1h4a.5.5 0 1 0 0-1z"/></symbol><symbol id="hd-icon-fluent-checkmark-note-20-regular" viewBox="0 0 20 20"><path fill="currentColor" d="M1.668 9.126a.5.5 0 0 1 .706.042l3.647 4.104L16.147 3.146a.5.5 0 1 1 .707.708l-10.5 10.5a.5.5 0 0 1-.728-.022l-4-4.5a.5.5 0 0 1 .042-.706M11 13a2 2 0 0 1 2-2h5a2 2 0 0 1 2 2v4a2 2 0 0 1-2 2h-5a2 2 0 0 1-2-2zm6.5 3h-4a.5.5 0 1 0 0 1h4a.5.5 0 1 0 0-1m-4-3a.5.5 0 1 0 0 1h4a.5.5 0 1 0 0-1z"/></symbol><symbol id="hd-icon-fluent-checkmark-square-20-filled" viewBox="0 0 20 20"><path fill="currentColor" d="M6 3a3 3 0 0 0-3 3v8a3 3 0 0 0 3 3h8a3 3 0 0 0 3-3V6a3 3 0 0 0-3-3zm7.354 5.354l-4 4a.5.5 0 0 1-.708 0l-2-2a.5.5 0 0 1 .708-.708L9 11.293l3.646-3.647a.5.5 0 0 1 .708.708"/></symbol><symbol id="hd-icon-fluent-checkmark-square-20-regular" viewBox="0 0 20 20"><path fill="currentColor" d="M6 3a3 3 0 0 0-3 3v8a3 3 0 0 0 3 3h8a3 3 0 0 0 3-3V6a3 3 0 0 0-3-3zM4 6a2 2 0 0 1 2-2h8a2 2 0 0 1 2 2v8a2 2 0 0 1-2 2H6a2 2 0 0 1-2-2zm9.354 2.354a.5.5 0 0 0-.708-.708L9 11.293L7.354 9.646a.5.5 0 1 0-.708.708l2 2a.5.5 0 0 0 .708 0z"/></symbol><symbol id="hd-icon-fluent-checkmark-square-24-filled" viewBox="0 0 24 24"><path fill="currentColor" d="M6.25 3A3.25 3.25 0 0 0 3 6.25v11.5A3.25 3.25 0 0 0 6.25 21h11.5A3.25 3.25 0 0 0 21 17.75V6.25A3.25 3.25 0 0 0 17.75 3zm10.03 6.78l-5 5a.75.75 0 0 1-1.06 0l-2.004-2.004a.75.75 0 1 1 1.06-1.06l1.474 1.473l4.47-4.47a.75.75 0 1 1 1.06 1.061"/></symbol><symbol id="hd-icon-fluent-checkmark-square-24-regular" viewBox="0 0 24 24"><path fill="currentColor" d="M16.28 9.78a.75.75 0 0 0-1.06-1.06l-4.47 4.47l-1.474-1.474a.75.75 0 0 0-1.06 1.06l2.004 2.004a.75.75 0 0 0 1.06 0zM6.25 3A3.25 3.25 0 0 0 3 6.25v11.5A3.25 3.25 0 0 0 6.25 21h11.5A3.25 3.25 0 0 0 21 17.75V6.25A3.25 3.25 0 0 0 17.75 3zM4.5 6.25c0-.966.784-1.75 1.75-1.75h11.5c.966 0 1.75.784 1.75 1.75v11.5a1.75 1.75 0 0 1-1.75 1.75H6.25a1.75 1.75 0 0 1-1.75-1.75z"/></symbol><symbol id="hd-icon-fluent-checkmark-starburst-16-filled" viewBox="0 0 16 16"><path fill="currentColor" d="m11.334 2.064l.077.153l.576 1.533c.045.12.14.216.261.261l1.48.556c.65.243.999.937.826 1.594l-.042.13l-.688 1.523a.45.45 0 0 0 0 .37l.654 1.44a1.34 1.34 0 0 1-.544 1.71l-.153.077l-1.533.576a.45.45 0 0 0-.26.261l-.556 1.48a1.34 1.34 0 0 1-1.595.826l-.13-.042l-1.523-.688a.45.45 0 0 0-.37 0l-1.439.654a1.34 1.34 0 0 1-1.71-.544l-.077-.153l-.577-1.533a.45.45 0 0 0-.261-.26l-1.48-.556a1.34 1.34 0 0 1-.826-1.595l.042-.13l.689-1.523a.45.45 0 0 0 0-.37L1.52 6.375a1.34 1.34 0 0 1 .543-1.71l.153-.077L3.75 4.01a.45.45 0 0 0 .261-.261l.556-1.48a1.34 1.34 0 0 1 1.594-.826l.13.042l1.523.689a.45.45 0 0 0 .37 0l1.44-.654a1.34 1.34 0 0 1 1.71.543m-1.17 3.641l-3.187 3.64l-1.162-1.162a.447.447 0 0 0-.632.632l1.5 1.5a.447.447 0 0 0 .652-.022l3.5-4a.447.447 0 0 0-.672-.588"/></symbol><symbol id="hd-icon-fluent-checkmark-starburst-16-regular" viewBox="0 0 16 16"><path fill="currentColor" d="m11.334 2.064l.077.153l.576 1.533c.045.12.14.216.261.261l1.48.556c.65.243.999.937.826 1.594l-.042.13l-.688 1.523a.45.45 0 0 0 0 .37l.654 1.44a1.34 1.34 0 0 1-.544 1.71l-.153.077l-1.533.576a.45.45 0 0 0-.26.261l-.556 1.48a1.34 1.34 0 0 1-1.595.826l-.13-.042l-1.523-.688a.45.45 0 0 0-.37 0l-1.439.654a1.34 1.34 0 0 1-1.71-.544l-.077-.153l-.577-1.533a.45.45 0 0 0-.261-.26l-1.48-.556a1.34 1.34 0 0 1-.826-1.595l.042-.13l.689-1.523a.45.45 0 0 0 0-.37L1.52 6.375a1.34 1.34 0 0 1 .543-1.71l.153-.077L3.75 4.01a.45.45 0 0 0 .261-.261l.556-1.48a1.34 1.34 0 0 1 1.594-.826l.13.042l1.523.689a.45.45 0 0 0 .37 0l1.44-.654a1.34 1.34 0 0 1 1.71.543m-5.931.52l-.555 1.48a1.34 1.34 0 0 1-.784.784l-1.48.555l-.098.051a.45.45 0 0 0-.152.552l.654 1.439c.16.352.16.756 0 1.108l-.66 1.454l-.027.091a.45.45 0 0 0 .283.497l1.48.556c.362.136.648.421.784.784l.555 1.48l.051.098c.12.174.352.242.552.151l1.439-.653a1.34 1.34 0 0 1 1.108 0l1.454.66l.091.026a.45.45 0 0 0 .497-.282l.556-1.48a1.34 1.34 0 0 1 .784-.784l1.48-.556l.098-.05a.45.45 0 0 0 .151-.552l-.653-1.44a1.34 1.34 0 0 1 0-1.108l.66-1.453l.026-.092a.45.45 0 0 0-.282-.497l-1.48-.555a1.34 1.34 0 0 1-.784-.784l-.556-1.48l-.05-.098a.45.45 0 0 0-.552-.152l-1.44.654a1.34 1.34 0 0 1-1.108 0l-1.44-.654l-.027-.012a.447.447 0 0 0-.575.262m1.574 6.762l3.186-3.64a.447.447 0 0 1 .725.514l-.053.073l-3.5 4a.45.45 0 0 1-.578.082l-.074-.06l-1.5-1.5a.447.447 0 0 1 .562-.689l.07.057zl3.186-3.64z"/></symbol><symbol id="hd-icon-fluent-checkmark-starburst-20-filled" viewBox="0 0 20 20"><path fill="currentColor" d="m8.46 1.897l.99.39a1.5 1.5 0 0 0 1.099 0l.99-.39a2.42 2.42 0 0 1 3.102 1.285l.424.975a1.5 1.5 0 0 0 .777.777l.975.424a2.42 2.42 0 0 1 1.285 3.103l-.39.99a1.5 1.5 0 0 0 0 1.098l.39.99a2.42 2.42 0 0 1-1.285 3.102l-.975.424a1.5 1.5 0 0 0-.777.777l-.424.975a2.42 2.42 0 0 1-3.103 1.285l-.99-.39a1.5 1.5 0 0 0-1.098 0l-.99.39a2.42 2.42 0 0 1-3.102-1.285l-.424-.975a1.5 1.5 0 0 0-.777-.777l-.975-.424a2.42 2.42 0 0 1-1.285-3.103l.39-.99a1.5 1.5 0 0 0 0-1.098l-.39-.99a2.42 2.42 0 0 1 1.285-3.102l.975-.424a1.5 1.5 0 0 0 .777-.777l.424-.975a2.42 2.42 0 0 1 3.103-1.285m4.166 5.77l-3.648 4.104l-1.625-1.625a.5.5 0 0 0-.707.707l2 2a.5.5 0 0 0 .727-.021l4-4.5a.5.5 0 0 0-.747-.665"/></symbol><symbol id="hd-icon-fluent-checkmark-starburst-20-regular" viewBox="0 0 20 20"><path fill="currentColor" d="m8.46 1.897l.99.39a1.5 1.5 0 0 0 1.099 0l.99-.39a2.42 2.42 0 0 1 3.102 1.285l.424.975a1.5 1.5 0 0 0 .777.777l.975.424a2.42 2.42 0 0 1 1.285 3.103l-.39.99a1.5 1.5 0 0 0 0 1.098l.39.99a2.42 2.42 0 0 1-1.285 3.102l-.975.424a1.5 1.5 0 0 0-.777.777l-.424.975a2.42 2.42 0 0 1-3.103 1.285l-.99-.39a1.5 1.5 0 0 0-1.098 0l-.99.39a2.42 2.42 0 0 1-3.102-1.285l-.424-.975a1.5 1.5 0 0 0-.777-.777l-.975-.424a2.42 2.42 0 0 1-1.285-3.103l.39-.99a1.5 1.5 0 0 0 0-1.098l-.39-.99a2.42 2.42 0 0 1 1.285-3.102l.975-.424a1.5 1.5 0 0 0 .777-.777l.424-.975a2.42 2.42 0 0 1 3.103-1.285m3.445.93l-.99.39a2.5 2.5 0 0 1-1.831 0l-.99-.39a1.42 1.42 0 0 0-1.819.754l-.424.975a2.5 2.5 0 0 1-1.295 1.295l-.975.424a1.42 1.42 0 0 0-.753 1.82l.389.989a2.5 2.5 0 0 1 0 1.831l-.39.99c-.279.71.054 1.514.754 1.819l.975.424a2.5 2.5 0 0 1 1.295 1.295l.424.975a1.42 1.42 0 0 0 1.82.753l.989-.39a2.5 2.5 0 0 1 1.831 0l.99.39c.71.28 1.514-.053 1.819-.753l.424-.975a2.5 2.5 0 0 1 1.295-1.295l.975-.424a1.42 1.42 0 0 0 .753-1.82l-.39-.989a2.5 2.5 0 0 1 0-1.831l.39-.99a1.42 1.42 0 0 0-.753-1.819l-.975-.424a2.5 2.5 0 0 1-1.295-1.295l-.424-.975a1.42 1.42 0 0 0-1.82-.753m-2.927 8.944l3.648-4.104a.5.5 0 0 1 .8.592l-.053.073l-4 4.5a.5.5 0 0 1-.655.081l-.072-.06l-2-2a.5.5 0 0 1 .638-.765l.069.058zl3.648-4.104z"/></symbol><symbol id="hd-icon-fluent-checkmark-starburst-24-filled" viewBox="0 0 24 24"><path fill="currentColor" d="M9.836 2.034q.168.058.329.136l1.283.632a1.25 1.25 0 0 0 1.104 0l1.283-.632a2.75 2.75 0 0 1 3.682 1.253l.073.162l.063.167l.46 1.353c.125.368.414.656.781.781l1.354.46a2.75 2.75 0 0 1 1.581 3.819l-.631 1.283a1.25 1.25 0 0 0 0 1.104l.631 1.283a2.75 2.75 0 0 1-1.581 3.818l-1.354.46a1.25 1.25 0 0 0-.78.781l-.461 1.354a2.75 2.75 0 0 1-3.818 1.581l-1.283-.631a1.25 1.25 0 0 0-1.104 0l-1.283.631a2.75 2.75 0 0 1-3.818-1.581l-.46-1.354a1.25 1.25 0 0 0-.782-.78l-1.353-.461a2.75 2.75 0 0 1-1.582-3.818l.632-1.283a1.25 1.25 0 0 0 0-1.104l-.632-1.283a2.75 2.75 0 0 1 1.582-3.818l1.353-.46a1.25 1.25 0 0 0 .781-.782l.46-1.353a2.75 2.75 0 0 1 3.49-1.718m5.634 6.935l-5.42 5.42l-1.974-2.37a.75.75 0 1 0-1.152.96l2.5 3a.75.75 0 0 0 1.106.051l6-6a.75.75 0 1 0-1.06-1.06"/></symbol><symbol id="hd-icon-fluent-checkmark-starburst-24-regular" viewBox="0 0 24 24"><path fill="currentColor" d="M9.836 2.034q.168.058.329.136l1.283.632a1.25 1.25 0 0 0 1.104 0l1.283-.632a2.75 2.75 0 0 1 3.682 1.253l.073.162l.063.167l.46 1.353c.125.368.414.656.781.781l1.354.46a2.75 2.75 0 0 1 1.581 3.819l-.631 1.283a1.25 1.25 0 0 0 0 1.104l.631 1.283a2.75 2.75 0 0 1-1.581 3.818l-1.354.46a1.25 1.25 0 0 0-.78.781l-.461 1.354a2.75 2.75 0 0 1-3.818 1.581l-1.283-.631a1.25 1.25 0 0 0-1.104 0l-1.283.631a2.75 2.75 0 0 1-3.818-1.581l-.46-1.354a1.25 1.25 0 0 0-.782-.78l-1.353-.461a2.75 2.75 0 0 1-1.582-3.818l.632-1.283a1.25 1.25 0 0 0 0-1.104l-.632-1.283a2.75 2.75 0 0 1 1.582-3.818l1.353-.46a1.25 1.25 0 0 0 .781-.782l.46-1.353a2.75 2.75 0 0 1 3.49-1.718m-2.07 2.2l-.46 1.354a2.75 2.75 0 0 1-1.718 1.718l-1.353.46a1.25 1.25 0 0 0-.719 1.736l.632 1.283a2.75 2.75 0 0 1 0 2.43l-.632 1.282a1.25 1.25 0 0 0 .719 1.736l1.353.46a2.75 2.75 0 0 1 1.718 1.718l.46 1.354a1.248 1.248 0 0 0 1.736.719l1.283-.632a2.75 2.75 0 0 1 2.43 0l1.282.632q.074.035.15.061a1.25 1.25 0 0 0 1.586-.78l.46-1.354a2.75 2.75 0 0 1 1.718-1.718l1.354-.46q.075-.026.15-.062a1.25 1.25 0 0 0 .569-1.674l-.632-1.283a2.75 2.75 0 0 1 0-2.429l.632-1.283a1.25 1.25 0 0 0-.719-1.736l-1.354-.46a2.75 2.75 0 0 1-1.718-1.718l-.46-1.353l-.029-.076l-.033-.074l-.062-.111a1.25 1.25 0 0 0-1.612-.458l-1.283.632a2.75 2.75 0 0 1-2.429 0l-1.283-.632a1.25 1.25 0 0 0-1.735.719M10.05 14.39l5.42-5.42a.75.75 0 0 1 1.133.977l-.073.084l-6 6a.75.75 0 0 1-1.031.028l-.075-.078l-2.5-3a.75.75 0 0 1 1.075-1.04l.077.08zl5.42-5.42z"/></symbol><symbol id="hd-icon-fluent-checkmark-underline-circle-16-filled" viewBox="0 0 16 16"><path fill="currentColor" d="M8 14A6 6 0 1 0 8 2a6 6 0 0 0 0 12m2.856-8.85a.52.52 0 0 1 0 .719L7.972 8.85a.484.484 0 0 1-.696 0L6.144 7.68a.52.52 0 0 1 0-.72a.48.48 0 0 1 .696 0l.784.81l2.536-2.62a.48.48 0 0 1 .696 0M6.5 10h2.998a.5.5 0 0 1 0 1H6.5a.5.5 0 0 1 0-1"/></symbol><symbol id="hd-icon-fluent-checkmark-underline-circle-16-regular" viewBox="0 0 16 16"><path fill="currentColor" d="M8 13A5 5 0 1 1 8 3a5 5 0 0 1 0 10m0 1A6 6 0 1 0 8 2a6 6 0 0 0 0 12m2.856-8.85a.52.52 0 0 1 0 .719L7.972 8.85a.484.484 0 0 1-.696 0L6.144 7.68a.52.52 0 0 1 0-.72a.48.48 0 0 1 .696 0l.784.81l2.536-2.62a.48.48 0 0 1 .696 0M6 10.5a.5.5 0 0 1 .5-.5h2.998a.5.5 0 0 1 0 1H6.5a.5.5 0 0 1-.5-.5"/></symbol><symbol id="hd-icon-fluent-checkmark-underline-circle-20-filled" viewBox="0 0 20 20"><path fill="currentColor" d="M10 18a8 8 0 1 0 0-16a8 8 0 0 0 0 16m3.854-11.854a.5.5 0 0 1 0 .708l-4 4a.5.5 0 0 1-.708 0l-2-2a.5.5 0 1 1 .708-.708L9.5 9.793l3.646-3.647a.5.5 0 0 1 .708 0M7.5 13h4.998a.5.5 0 0 1 0 1H7.5a.5.5 0 0 1 0-1"/></symbol><symbol id="hd-icon-fluent-checkmark-underline-circle-20-regular" viewBox="0 0 20 20"><path fill="currentColor" d="M10 17a7 7 0 1 1 0-14a7 7 0 0 1 0 14m0 1a8 8 0 1 0 0-16a8 8 0 0 0 0 16m3.854-11.854a.5.5 0 0 1 0 .708l-4 4a.5.5 0 0 1-.708 0l-2-2a.5.5 0 1 1 .708-.708L9.5 9.793l3.646-3.647a.5.5 0 0 1 .708 0M7 13.5a.5.5 0 0 0 .5.5h4.998a.5.5 0 0 0 0-1H7.5a.5.5 0 0 0-.5.5"/></symbol><symbol id="hd-icon-fluent-checkmark-underline-circle-24-filled" viewBox="0 0 24 24"><path fill="currentColor" d="M12 2C6.477 2 2 6.477 2 12s4.477 10 10 10s10-4.477 10-10S17.523 2 12 2m-1.25 9.44l4.47-4.47a.75.75 0 0 1 1.133.976l-.073.084l-5 5a.75.75 0 0 1-.976.073l-.084-.073l-2.5-2.5a.75.75 0 0 1 .976-1.133l.084.073zM8.5 15h6.75a.75.75 0 0 1 0 1.5H8.5a.75.75 0 0 1 0-1.5"/></symbol><symbol id="hd-icon-fluent-checkmark-underline-circle-24-regular" viewBox="0 0 24 24"><path fill="currentColor" d="m10.75 11.44l4.47-4.47a.75.75 0 0 1 1.133.976l-.073.084l-5 5a.75.75 0 0 1-.976.073l-.084-.073l-2.5-2.5a.75.75 0 0 1 .976-1.133l.084.073zM8.5 15a.75.75 0 0 0 0 1.5h6.75a.75.75 0 0 0 0-1.5zM2 12C2 6.477 6.477 2 12 2s10 4.477 10 10s-4.477 10-10 10S2 17.523 2 12m10-8.5a8.5 8.5 0 1 0 0 17a8.5 8.5 0 0 0 0-17"/></symbol><symbol id="hd-icon-fluent-chess-16-filled" viewBox="0 0 16 16"><path fill="currentColor" d="M5 4a2.5 2.5 0 0 1 2.5 2.5A2.5 2.5 0 0 1 6.996 8H7a1 1 0 0 1 0 2h-.458c.199 1.19 1.08 1.923 1.685 2.293c.428.262.773.738.773 1.313C9 14.375 8.376 15 7.605 15h-5.21C1.625 15 1 14.376 1 13.605c0-.574.345-1.05.773-1.312c.605-.37 1.486-1.103 1.685-2.293H3a1 1 0 0 1 0-2h.004A2.5 2.5 0 0 1 2.5 6.5A2.5 2.5 0 0 1 5 4m4-3a.5.5 0 0 1 .5.5v1a.5.5 0 0 0 1 0v-1A.5.5 0 0 1 11 1h1a.5.5 0 0 1 .5.5v1a.5.5 0 0 0 1 0v-1A.5.5 0 0 1 14 1h.25a.75.75 0 0 1 .75.75V4a2 2 0 0 1-1.994 1.999c.069 4.142.99 5.75 1.452 6.298c.252.298.542.747.542 1.276c0 .788-.639 1.427-1.427 1.427h-4.04c.292-.4.467-.893.467-1.427c0-.897-.483-1.596-.992-2.02c.443-.906.936-2.573.985-5.554A2 2 0 0 1 8 4V1.75A.75.75 0 0 1 8.75 1z"/></symbol><symbol id="hd-icon-fluent-chess-16-regular" viewBox="0 0 16 16"><path fill="currentColor" d="M5 4a2.5 2.5 0 0 1 2.434 3.063a1.5 1.5 0 0 1-.402 2.935a3.45 3.45 0 0 0 1.302 2.292c.36.285.666.74.666 1.283l-.008.147a1.43 1.43 0 0 1-1.272 1.272L7.573 15H2.427a1.427 1.427 0 0 1-1.42-1.28L1 13.573c0-.544.306-.998.666-1.283a3.45 3.45 0 0 0 1.3-2.292a1.499 1.499 0 0 1-.4-2.935A2.5 2.5 0 0 1 5 4m4.493-3c.387 0 .738.148 1.004.389a1.487 1.487 0 0 1 2.005 0A1.5 1.5 0 0 1 13.507 1H14a1 1 0 0 1 1 1v2a2 2 0 0 1-1.994 1.999c.069 4.141.99 5.75 1.452 6.298c.252.298.542.747.542 1.276c0 .788-.639 1.427-1.427 1.427h-4.04a2.4 2.4 0 0 0 .427-1h3.613a.427.427 0 0 0 .427-.427c0-.173-.104-.393-.306-.632C13.001 12.121 12 10.136 12 5.5a.5.5 0 0 1 .5-.5h.5a1 1 0 0 0 1-1V2h-.493a.5.5 0 0 0-.5.493L13 3.007a.5.5 0 0 1-1 0l-.007-.52a.493.493 0 0 0-.975-.1l-.011.1l-.007.52a.5.5 0 0 1-1 0l-.007-.514a.5.5 0 0 0-.5-.493H9v2a1 1 0 0 0 1 1h.5a.5.5 0 0 1 .5.5c0 3.813-.679 5.832-1.305 6.886a2.9 2.9 0 0 0-.687-.833c.443-.906.936-2.573.985-5.554A2 2 0 0 1 8 4V2a1 1 0 0 1 1-1zM5 5a1.5 1.5 0 0 0-1.298 2.249A.5.5 0 0 1 3.27 8H3a.5.5 0 0 0 0 1h.5a.5.5 0 0 1 .5.5a4.47 4.47 0 0 1-1.715 3.575c-.19.15-.285.34-.285.498l.009.086c.04.195.212.34.418.341h5.146l.086-.009a.43.43 0 0 0 .332-.332L8 13.573c0-.158-.095-.347-.285-.498A4.47 4.47 0 0 1 6 9.5a.5.5 0 0 1 .5-.5H7l.1-.01a.5.5 0 0 0 0-.98L7 8h-.27a.5.5 0 0 1-.432-.751A1.5 1.5 0 0 0 5 5"/></symbol><symbol id="hd-icon-fluent-chess-20-filled" viewBox="0 0 20 20"><path fill="currentColor" d="M10.5 2a.5.5 0 0 0-.5.5v2.6c0 1.377.927 2.536 2.19 2.89c-.22 2.74-1.012 4.785-1.661 6.046c.184.216.357.377.492.49c.519.434.979 1.141.979 2.023A2.44 2.44 0 0 1 11.524 18H17a1.5 1.5 0 0 0 1.5-1.5v-.307c0-.348-.119-.669-.302-.932c-.54-.777-2.069-3.29-2.389-7.272A3 3 0 0 0 18 5.1V2.5a.5.5 0 0 0-.5-.5h-.75a.75.75 0 0 0-.75.75v.75a.5.5 0 0 1-1 .002V3.5l-.004-.754a.75.75 0 0 0-.75-.746h-.492a.75.75 0 0 0-.75.746L13 3.503a.5.5 0 0 1-1-.003v-.75a.75.75 0 0 0-.75-.75zm-4 3a3 3 0 0 0-2.236 5H4a1 1 0 1 0 0 2h.52c-.372 1.798-1.353 2.836-1.9 3.293c-.346.29-.62.736-.62 1.256C2 17.35 2.65 18 3.451 18H9.55c.8 0 1.45-.65 1.45-1.451c0-.52-.274-.966-.62-1.256c-.547-.457-1.528-1.495-1.9-3.293H9a1 1 0 1 0 0-2h-.264A3 3 0 0 0 6.5 5"/></symbol><symbol id="hd-icon-fluent-chess-20-regular" viewBox="0 0 20 20"><path fill="currentColor" d="M10 3a1 1 0 0 1 1-1h.5c.385 0 .737.145 1.002.384A1.5 1.5 0 0 1 13.506 2h.99c.385 0 .737.145 1.003.384A1.5 1.5 0 0 1 16.5 2h.5a1 1 0 0 1 1 1v2.5a2.5 2.5 0 0 1-1.95 2.44c.284 4.043 1.7 6.585 2.187 7.35c.16.252.263.553.263.877v.333A1.5 1.5 0 0 1 17 18h-5.476a2.44 2.44 0 0 0 .435-1H17a.5.5 0 0 0 .5-.5v-.333a.64.64 0 0 0-.107-.34c-.573-.9-2.155-3.774-2.369-8.304A.5.5 0 0 1 15.518 7A1.5 1.5 0 0 0 17 5.5V3h-.5a.5.5 0 0 0-.5.5v1a.5.5 0 0 1-1 .003V4.5l-.005-1.002a.5.5 0 0 0-.5-.498h-.99a.5.5 0 0 0-.5.498L13 4.502a.5.5 0 0 1-1-.003v-1a.5.5 0 0 0-.5-.5H11v2.5A1.5 1.5 0 0 0 12.482 7a.5.5 0 0 1 .494.523c-.158 3.34-1.06 5.779-1.752 7.191a3 3 0 0 0-.203-.188a4 4 0 0 1-.55-.558c.588-1.278 1.288-3.315 1.479-6.029A2.505 2.505 0 0 1 10 5.5zM4.5 8a2 2 0 1 1 3.6 1.2a.5.5 0 0 0 .4.8H9a.5.5 0 0 1 0 1H7.893a.5.5 0 0 0-.496.56c.302 2.47 1.609 3.888 2.34 4.5c.175.146.263.33.263.489a.45.45 0 0 1-.451.451H3.45a.45.45 0 0 1-.45-.451c0-.16.088-.343.262-.489c.732-.612 2.04-2.03 2.341-4.5a.5.5 0 0 0-.496-.56H4a.5.5 0 0 1 0-1h.5a.5.5 0 0 0 .4-.8A2 2 0 0 1 4.5 8m2-3a3 3 0 0 0-2.817 4.034A1.5 1.5 0 0 0 4 12h.52c-.372 1.798-1.353 2.836-1.9 3.293c-.346.29-.62.736-.62 1.256C2 17.35 2.65 18 3.451 18H9.55c.8 0 1.45-.65 1.45-1.451c0-.52-.274-.966-.62-1.256c-.547-.457-1.528-1.495-1.9-3.293H9a1.5 1.5 0 0 0 .317-2.966A3 3 0 0 0 6.5 5"/></symbol><symbol id="hd-icon-fluent-chess-24-filled" viewBox="0 0 24 24"><path fill="currentColor" d="M7.5 6a3.5 3.5 0 0 1 2.448 6h.552a1.5 1.5 0 0 1 0 3h-.37c.38 1.791 1.498 2.996 2.138 3.558c.417.366.732.917.732 1.552A1.89 1.89 0 0 1 11.11 22H3.89A1.89 1.89 0 0 1 2 20.11c0-.635.315-1.186.732-1.552c.64-.562 1.758-1.767 2.137-3.558H4.5a1.5 1.5 0 0 1 0-3h.552A3.5 3.5 0 0 1 7.5 6M13 2a1 1 0 0 1 1 1v1.25a.75.75 0 0 0 1.5 0V3a1 1 0 1 1 2 0v1.25a.75.75 0 0 0 1.5 0V3a1 1 0 0 1 1-1h.25a.75.75 0 0 1 .75.75V7a2 2 0 0 1-2 2h-.22c.26 5.454 2.163 8.726 2.826 9.712c.236.35.394.78.394 1.247c0 1.127-.914 2.04-2.041 2.041h-6.666c.44-.507.707-1.166.707-1.89c0-.973-.48-1.783-1.073-2.303a6 6 0 0 1-.647-.665c.797-1.651 1.76-4.377 1.94-8.142H14a2 2 0 0 1-2-2V2.75a.75.75 0 0 1 .75-.75z"/></symbol><symbol id="hd-icon-fluent-chess-24-regular" viewBox="0 0 24 24"><path fill="currentColor" d="M7.5 6A3.5 3.5 0 0 1 11 9.5c0 .376-.064.737-.174 1.077A2.249 2.249 0 0 1 10.25 15h-.121c.379 1.79 1.5 2.997 2.139 3.558c.417.366.732.918.732 1.552l-.01.194a1.89 1.89 0 0 1-1.686 1.686l-.194.01H3.89a1.89 1.89 0 0 1-1.88-1.696L2 20.11c0-.634.315-1.186.732-1.552c.64-.561 1.76-1.768 2.14-3.558H4.75a2.25 2.25 0 0 1-.577-4.423A3.5 3.5 0 0 1 4 9.5A3.5 3.5 0 0 1 7.5 6m6.23-4a2.24 2.24 0 0 1 1.432.517a1.99 1.99 0 0 1 2.675 0A2.24 2.24 0 0 1 19.27 2h.23l.153.008A1.5 1.5 0 0 1 21 3.5v3.25a2.75 2.75 0 0 1-2.194 2.693c.338 5.188 2.155 8.31 2.8 9.269c.236.35.394.78.394 1.247l-.01.209a2.04 2.04 0 0 1-1.822 1.821l-.209.011h-6.666c.359-.414.6-.93.678-1.5h5.988l.108-.01a.54.54 0 0 0 .422-.423l.011-.108a.74.74 0 0 0-.138-.41c-.794-1.18-2.872-4.813-3.091-10.772A.75.75 0 0 1 18.02 8h.23c.69 0 1.25-.56 1.25-1.25V3.5h-.23a.75.75 0 0 0-.75.734l-.02 1.03A.75.75 0 0 1 17 5.25V4a.5.5 0 0 0-1 0v1.25l-.004.076a.75.75 0 0 1-1.496-.061l-.02-1.03a.75.75 0 0 0-.75-.735h-.23v3.25c0 .69.56 1.25 1.25 1.25h.23a.75.75 0 0 1 .75.777c-.168 4.543-1.417 7.734-2.352 9.517a3.3 3.3 0 0 0-.451-.487a6 6 0 0 1-.648-.666c.765-1.586 1.684-4.162 1.914-7.698A2.75 2.75 0 0 1 12 6.75V3.5A1.5 1.5 0 0 1 13.5 2zM7.5 7.5a2 2 0 0 0-1.543 3.273A.75.75 0 0 1 5.379 12H4.75a.75.75 0 0 0 0 1.5h.982a.75.75 0 0 1 .748.804c-.203 2.805-1.897 4.626-2.757 5.38c-.155.137-.223.299-.223.426l.008.079a.39.39 0 0 0 .382.311h7.22l.079-.008a.39.39 0 0 0 .303-.303l.008-.079c0-.127-.068-.29-.223-.425c-.86-.755-2.554-2.576-2.757-5.381a.75.75 0 0 1 .748-.804h.982l.077-.004A.75.75 0 0 0 10.25 12h-.629a.75.75 0 0 1-.578-1.227A2 2 0 0 0 7.5 7.5"/></symbol><symbol id="hd-icon-fluent-chevron-circle-down-12-filled" viewBox="0 0 12 12"><path fill="currentColor" d="M6 1a5 5 0 1 1 0 10A5 5 0 0 1 6 1m1.854 4.854a.5.5 0 1 0-.708-.708L6 6.293L4.854 5.146a.5.5 0 1 0-.708.708l1.5 1.5a.5.5 0 0 0 .708 0z"/></symbol><symbol id="hd-icon-fluent-chevron-circle-down-12-regular" viewBox="0 0 12 12"><path fill="currentColor" d="M7.854 5.854a.5.5 0 1 0-.708-.708L6 6.293L4.854 5.146a.5.5 0 1 0-.708.708l1.5 1.5a.5.5 0 0 0 .708 0zM11 6A5 5 0 1 0 1 6a5 5 0 0 0 10 0M6 2a4 4 0 1 1 0 8a4 4 0 0 1 0-8"/></symbol><symbol id="hd-icon-fluent-chevron-circle-down-16-filled" viewBox="0 0 16 16"><path fill="currentColor" d="M8 1a7 7 0 1 1 0 14A7 7 0 0 1 8 1m3.354 5.646a.5.5 0 0 0-.707 0L8 9.293L5.354 6.646a.5.5 0 1 0-.708.708l3 3a.5.5 0 0 0 .708 0l3-3a.5.5 0 0 0 0-.708"/></symbol><symbol id="hd-icon-fluent-chevron-circle-down-16-regular" viewBox="0 0 16 16"><path fill="currentColor" d="M8 1a7 7 0 1 1 0 14A7 7 0 0 1 8 1m0 1a6 6 0 1 0 0 12A6 6 0 0 0 8 2m2.646 4.646a.5.5 0 1 1 .707.708l-3 3a.5.5 0 0 1-.707 0l-3-3a.5.5 0 1 1 .708-.708L8 9.293z"/></symbol><symbol id="hd-icon-fluent-chevron-circle-down-20-filled" viewBox="0 0 20 20"><path fill="currentColor" d="M2 10a8 8 0 1 1 16 0a8 8 0 0 1-16 0m4.854-1.854a.5.5 0 1 0-.708.708l3.5 3.5a.5.5 0 0 0 .708 0l3.5-3.5a.5.5 0 0 0-.708-.708L10 11.293z"/></symbol><symbol id="hd-icon-fluent-chevron-circle-down-20-regular" viewBox="0 0 20 20"><path fill="currentColor" d="M3 10a7 7 0 1 1 14 0a7 7 0 0 1-14 0m7-8a8 8 0 1 0 0 16a8 8 0 0 0 0-16M6.854 8.146a.5.5 0 1 0-.708.708l3.5 3.5a.5.5 0 0 0 .708 0l3.5-3.5a.5.5 0 0 0-.708-.708L10 11.293z"/></symbol><symbol id="hd-icon-fluent-chevron-circle-down-24-filled" viewBox="0 0 24 24"><path fill="currentColor" d="M12 2c5.523 0 10 4.477 10 10s-4.477 10-10 10S2 17.523 2 12S6.477 2 12 2M7.47 9.97a.75.75 0 0 0 0 1.06l4 4a.75.75 0 0 0 1.06 0l4-4a.75.75 0 1 0-1.06-1.06L12 13.44L8.53 9.97a.75.75 0 0 0-1.06 0"/></symbol><symbol id="hd-icon-fluent-chevron-circle-down-24-regular" viewBox="0 0 24 24"><path fill="currentColor" d="M12 2c5.523 0 10 4.477 10 10s-4.477 10-10 10S2 17.523 2 12S6.477 2 12 2m0 1.5a8.5 8.5 0 1 0 0 17a8.5 8.5 0 0 0 0-17M7.47 9.97a.75.75 0 0 1 1.06 0L12 13.44l3.47-3.47a.75.75 0 1 1 1.06 1.06l-4 4a.75.75 0 0 1-1.06 0l-4-4a.75.75 0 0 1 0-1.06"/></symbol><symbol id="hd-icon-fluent-chevron-circle-down-28-filled" viewBox="0 0 28 28"><path fill="currentColor" d="M2 14C2 7.373 7.373 2 14 2s12 5.373 12 12s-5.373 12-12 12S2 20.627 2 14m7.03-2.78a.75.75 0 0 0-1.06 1.06l5.5 5.5a.75.75 0 0 0 1.06 0l5.5-5.5a.75.75 0 1 0-1.06-1.06L14 16.19z"/></symbol><symbol id="hd-icon-fluent-chevron-circle-down-28-regular" viewBox="0 0 28 28"><path fill="currentColor" d="M3.5 14C3.5 8.201 8.201 3.5 14 3.5S24.5 8.201 24.5 14S19.799 24.5 14 24.5S3.5 19.799 3.5 14M14 2C7.373 2 2 7.373 2 14s5.373 12 12 12s12-5.373 12-12S20.627 2 14 2m-4.97 9.22a.75.75 0 0 0-1.06 1.06l5.5 5.5a.75.75 0 0 0 1.06 0l5.5-5.5a.75.75 0 1 0-1.06-1.06L14 16.19z"/></symbol><symbol id="hd-icon-fluent-chevron-circle-down-32-filled" viewBox="0 0 32 32"><path fill="currentColor" d="M16 2c7.732 0 14 6.268 14 14s-6.268 14-14 14S2 23.732 2 16S8.268 2 16 2m6.707 12.707a1 1 0 0 0-1.414-1.414L16 18.586l-5.293-5.293a1 1 0 0 0-1.414 1.414l5.878 5.879l.033.028q.04.035.08.073a1 1 0 0 0 .716.293c.26.003.484-.097.718-.293c.05-.041.06-.05.11-.1v-.002z"/></symbol><symbol id="hd-icon-fluent-chevron-circle-down-32-regular" viewBox="0 0 32 32"><path fill="currentColor" d="M22.707 14.707a1 1 0 0 0-1.414-1.414L16 18.586l-5.293-5.293a1 1 0 0 0-1.414 1.414l5.878 5.879l.033.028q.04.035.08.073a1 1 0 0 0 .716.293c.26.003.484-.097.718-.293c.05-.041.06-.05.11-.1v-.002zM30 16c0-7.732-6.268-14-14-14S2 8.268 2 16s6.268 14 14 14s14-6.268 14-14M16 4c6.627 0 12 5.373 12 12s-5.373 12-12 12S4 22.627 4 16S9.373 4 16 4"/></symbol><symbol id="hd-icon-fluent-chevron-circle-down-48-filled" viewBox="0 0 48 48"><path fill="currentColor" d="M24 44c11.046 0 20-8.954 20-20S35.046 4 24 4S4 12.954 4 24s8.954 20 20 20m-8.616-23.634L24 28.982l8.616-8.616a1.25 1.25 0 0 1 1.768 1.768l-9.5 9.5a1.25 1.25 0 0 1-1.768 0l-9.5-9.5a1.25 1.25 0 0 1 1.768-1.768"/></symbol><symbol id="hd-icon-fluent-chevron-circle-down-48-regular" viewBox="0 0 48 48"><path fill="currentColor" d="M6.5 24c0-9.665 7.835-17.5 17.5-17.5S41.5 14.335 41.5 24S33.665 41.5 24 41.5S6.5 33.665 6.5 24M24 4C12.954 4 4 12.954 4 24s8.954 20 20 20s20-8.954 20-20S35.046 4 24 4m-8.616 16.366a1.25 1.25 0 0 0-1.768 1.768l9.5 9.5a1.25 1.25 0 0 0 1.768 0l9.5-9.5a1.25 1.25 0 0 0-1.768-1.768L24 28.982z"/></symbol><symbol id="hd-icon-fluent-chevron-circle-left-12-filled" viewBox="0 0 12 12"><path fill="currentColor" d="M11 6A5 5 0 1 1 1 6a5 5 0 0 1 10 0M6.146 7.854a.5.5 0 1 0 .708-.708L5.707 6l1.147-1.146a.5.5 0 1 0-.708-.708l-1.5 1.5a.5.5 0 0 0 0 .708z"/></symbol><symbol id="hd-icon-fluent-chevron-circle-left-12-regular" viewBox="0 0 12 12"><path fill="currentColor" d="M6.146 7.854a.5.5 0 1 0 .708-.708L5.707 6l1.147-1.146a.5.5 0 1 0-.708-.708l-1.5 1.5a.5.5 0 0 0 0 .708zM6 11A5 5 0 1 0 6 1a5 5 0 0 0 0 10m4-5a4 4 0 1 1-8 0a4 4 0 0 1 8 0"/></symbol><symbol id="hd-icon-fluent-chevron-circle-left-16-filled" viewBox="0 0 16 16"><path fill="currentColor" d="M8 1a7 7 0 1 1 0 14A7 7 0 0 1 8 1m1.354 3.646a.5.5 0 0 0-.708 0l-3 3a.5.5 0 0 0 0 .708l3 3a.5.5 0 1 0 .708-.707L6.707 8l2.647-2.646a.5.5 0 0 0 0-.708"/></symbol><symbol id="hd-icon-fluent-chevron-circle-left-16-regular" viewBox="0 0 16 16"><path fill="currentColor" d="M8 1a7 7 0 1 1 0 14A7 7 0 0 1 8 1m0 1a6 6 0 1 0 0 12A6 6 0 0 0 8 2m.646 2.646a.5.5 0 1 1 .708.708L6.707 8l2.647 2.646a.5.5 0 1 1-.708.707l-3-3a.5.5 0 0 1 0-.707z"/></symbol><symbol id="hd-icon-fluent-chevron-circle-left-20-filled" viewBox="0 0 20 20"><path fill="currentColor" d="M10 2a8 8 0 1 1 0 16a8 8 0 0 1 0-16m1.854 4.854a.5.5 0 0 0-.708-.708l-3.5 3.5a.5.5 0 0 0 0 .708l3.5 3.5a.5.5 0 0 0 .708-.708L8.707 10z"/></symbol><symbol id="hd-icon-fluent-chevron-circle-left-20-regular" viewBox="0 0 20 20"><path fill="currentColor" d="M10 3a7 7 0 1 1 0 14a7 7 0 0 1 0-14m8 7a8 8 0 1 0-16 0a8 8 0 0 0 16 0m-6.146-3.146a.5.5 0 0 0-.708-.708l-3.5 3.5a.5.5 0 0 0 0 .708l3.5 3.5a.5.5 0 0 0 .708-.708L8.707 10z"/></symbol><symbol id="hd-icon-fluent-chevron-circle-left-24-filled" viewBox="0 0 24 24"><path fill="currentColor" d="M22 12c0 5.523-4.477 10-10 10S2 17.523 2 12S6.477 2 12 2s10 4.477 10 10m-7.97-4.53a.75.75 0 0 0-1.06 0l-4 4a.75.75 0 0 0 0 1.06l4 4a.75.75 0 1 0 1.06-1.06L10.56 12l3.47-3.47a.75.75 0 0 0 0-1.06"/></symbol><symbol id="hd-icon-fluent-chevron-circle-left-24-regular" viewBox="0 0 24 24"><path fill="currentColor" d="M22 12c0-5.523-4.477-10-10-10S2 6.477 2 12s4.477 10 10 10s10-4.477 10-10m-1.5 0a8.5 8.5 0 1 1-17 0a8.5 8.5 0 0 1 17 0m-6.47 4.53a.75.75 0 0 0 0-1.06L10.56 12l3.47-3.47a.75.75 0 0 0-1.06-1.06l-4 4a.75.75 0 0 0 0 1.06l4 4a.75.75 0 0 0 1.06 0"/></symbol><symbol id="hd-icon-fluent-chevron-circle-left-28-filled" viewBox="0 0 28 28"><path fill="currentColor" d="M14 2c6.627 0 12 5.373 12 12s-5.373 12-12 12S2 20.627 2 14S7.373 2 14 2m2.78 7.03a.75.75 0 0 0-1.06-1.06l-5.5 5.5a.75.75 0 0 0 0 1.06l5.5 5.5a.75.75 0 1 0 1.06-1.06L11.81 14z"/></symbol><symbol id="hd-icon-fluent-chevron-circle-left-28-regular" viewBox="0 0 28 28"><path fill="currentColor" d="M14 3.5c5.799 0 10.5 4.701 10.5 10.5S19.799 24.5 14 24.5S3.5 19.799 3.5 14S8.201 3.5 14 3.5M26 14c0-6.627-5.373-12-12-12S2 7.373 2 14s5.373 12 12 12s12-5.373 12-12m-9.22-4.97a.75.75 0 0 0-1.06-1.06l-5.5 5.5a.75.75 0 0 0 0 1.06l5.5 5.5a.75.75 0 1 0 1.06-1.06L11.81 14z"/></symbol><symbol id="hd-icon-fluent-chevron-circle-left-32-filled" viewBox="0 0 32 32"><path fill="currentColor" d="M30 16c0 7.732-6.268 14-14 14S2 23.732 2 16S8.268 2 16 2s14 6.268 14 14m-12.707 6.707a1 1 0 0 0 1.414-1.414L13.414 16l5.293-5.293a1 1 0 0 0-1.414-1.414l-5.879 5.878l-.028.033l-.073.08a1 1 0 0 0-.293.716c-.003.26.097.484.293.718c.041.05.05.06.1.11h.002z"/></symbol><symbol id="hd-icon-fluent-chevron-circle-left-32-regular" viewBox="0 0 32 32"><path fill="currentColor" d="M17.293 22.707a1 1 0 0 0 1.414-1.414L13.414 16l5.293-5.293a1 1 0 0 0-1.414-1.414l-5.879 5.878l-.028.033l-.073.08a1 1 0 0 0-.293.716c-.003.26.097.484.293.718c.041.05.05.06.1.11h.002zM16 30c7.732 0 14-6.268 14-14S23.732 2 16 2S2 8.268 2 16s6.268 14 14 14m12-14c0 6.627-5.373 12-12 12S4 22.627 4 16S9.373 4 16 4s12 5.373 12 12"/></symbol><symbol id="hd-icon-fluent-chevron-circle-left-48-filled" viewBox="0 0 48 48"><path fill="currentColor" d="M24 4C12.954 4 4 12.954 4 24s8.954 20 20 20s20-8.954 20-20S35.046 4 24 4m3.634 28.616a1.25 1.25 0 0 1-1.768 1.768l-9.5-9.5a1.25 1.25 0 0 1 0-1.768l9.5-9.5a1.25 1.25 0 0 1 1.768 1.768L19.018 24z"/></symbol><symbol id="hd-icon-fluent-chevron-circle-left-48-regular" viewBox="0 0 48 48"><path fill="currentColor" d="M24 41.5c9.665 0 17.5-7.835 17.5-17.5S33.665 6.5 24 6.5S6.5 14.335 6.5 24S14.335 41.5 24 41.5M44 24c0 11.046-8.954 20-20 20S4 35.046 4 24S12.954 4 24 4s20 8.954 20 20m-16.366 8.616a1.25 1.25 0 0 1-1.768 1.768l-9.5-9.5a1.25 1.25 0 0 1 0-1.768l9.5-9.5a1.25 1.25 0 0 1 1.768 1.768L19.018 24z"/></symbol><symbol id="hd-icon-fluent-chevron-circle-right-12-filled" viewBox="0 0 12 12"><path fill="currentColor" d="M1 6a5 5 0 1 1 10 0A5 5 0 0 1 1 6m4.854-1.854a.5.5 0 1 0-.708.708L6.293 6L5.146 7.146a.5.5 0 1 0 .708.708l1.5-1.5a.5.5 0 0 0 0-.708z"/></symbol><symbol id="hd-icon-fluent-chevron-circle-right-12-regular" viewBox="0 0 12 12"><path fill="currentColor" d="M5.854 4.146a.5.5 0 1 0-.708.708L6.293 6L5.146 7.146a.5.5 0 1 0 .708.708l1.5-1.5a.5.5 0 0 0 0-.708zM6 1a5 5 0 1 0 0 10A5 5 0 0 0 6 1M2 6a4 4 0 1 1 8 0a4 4 0 0 1-8 0"/></symbol><symbol id="hd-icon-fluent-chevron-circle-right-16-filled" viewBox="0 0 16 16"><path fill="currentColor" d="M8 1a7 7 0 1 1 0 14A7 7 0 0 1 8 1m-.646 3.646a.5.5 0 1 0-.708.708L9.293 8l-2.647 2.646a.5.5 0 1 0 .708.707l3-3a.5.5 0 0 0 0-.707z"/></symbol><symbol id="hd-icon-fluent-chevron-circle-right-16-regular" viewBox="0 0 16 16"><path fill="currentColor" d="M8 1a7 7 0 1 1 0 14A7 7 0 0 1 8 1m0 1a6 6 0 1 0 0 12A6 6 0 0 0 8 2M6.646 4.646a.5.5 0 0 1 .708 0l3 3a.5.5 0 0 1 0 .708l-3 3a.5.5 0 1 1-.708-.707L9.293 8L6.646 5.354a.5.5 0 0 1 0-.708"/></symbol><symbol id="hd-icon-fluent-chevron-circle-right-20-filled" viewBox="0 0 20 20"><path fill="currentColor" d="M10 18a8 8 0 1 1 0-16a8 8 0 0 1 0 16m-1.854-4.854a.5.5 0 0 0 .708.708l3.5-3.5a.5.5 0 0 0 0-.708l-3.5-3.5a.5.5 0 1 0-.708.708L11.293 10z"/></symbol><symbol id="hd-icon-fluent-chevron-circle-right-20-regular" viewBox="0 0 20 20"><path fill="currentColor" d="M10 17a7 7 0 1 1 0-14a7 7 0 0 1 0 14m-8-7a8 8 0 1 0 16 0a8 8 0 0 0-16 0m6.146 3.146a.5.5 0 0 0 .708.708l3.5-3.5a.5.5 0 0 0 0-.708l-3.5-3.5a.5.5 0 1 0-.708.708L11.293 10z"/></symbol><symbol id="hd-icon-fluent-chevron-circle-right-24-filled" viewBox="0 0 24 24"><path fill="currentColor" d="M2 12C2 6.477 6.477 2 12 2s10 4.477 10 10s-4.477 10-10 10S2 17.523 2 12m7.97 4.53a.75.75 0 0 0 1.06 0l4-4a.75.75 0 0 0 0-1.06l-4-4a.75.75 0 1 0-1.06 1.06L13.44 12l-3.47 3.47a.75.75 0 0 0 0 1.06"/></symbol><symbol id="hd-icon-fluent-chevron-circle-right-24-regular" viewBox="0 0 24 24"><path fill="currentColor" d="M2 12C2 6.477 6.477 2 12 2s10 4.477 10 10s-4.477 10-10 10S2 17.523 2 12m1.5 0a8.5 8.5 0 1 0 17 0a8.5 8.5 0 0 0-17 0m6.47 4.53a.75.75 0 0 1 0-1.06L13.44 12L9.97 8.53a.75.75 0 0 1 1.06-1.06l4 4a.75.75 0 0 1 0 1.06l-4 4a.75.75 0 0 1-1.06 0"/></symbol><symbol id="hd-icon-fluent-chevron-circle-right-28-filled" viewBox="0 0 28 28"><path fill="currentColor" d="M14 26C7.373 26 2 20.627 2 14S7.373 2 14 2s12 5.373 12 12s-5.373 12-12 12m-2.78-7.03a.75.75 0 1 0 1.06 1.06l5.5-5.5a.75.75 0 0 0 0-1.06l-5.5-5.5a.75.75 0 1 0-1.06 1.06L16.19 14z"/></symbol><symbol id="hd-icon-fluent-chevron-circle-right-28-regular" viewBox="0 0 28 28"><path fill="currentColor" d="M14 24.5C8.201 24.5 3.5 19.799 3.5 14S8.201 3.5 14 3.5S24.5 8.201 24.5 14S19.799 24.5 14 24.5M2 14c0 6.627 5.373 12 12 12s12-5.373 12-12S20.627 2 14 2S2 7.373 2 14m9.22 4.97a.75.75 0 1 0 1.06 1.06l5.5-5.5a.75.75 0 0 0 0-1.06l-5.5-5.5a.75.75 0 1 0-1.06 1.06L16.19 14z"/></symbol><symbol id="hd-icon-fluent-chevron-circle-right-32-filled" viewBox="0 0 32 32"><path fill="currentColor" d="M2 16C2 8.268 8.268 2 16 2s14 6.268 14 14s-6.268 14-14 14S2 23.732 2 16m12.707-6.707a1 1 0 1 0-1.414 1.414L18.586 16l-5.293 5.293a1 1 0 0 0 1.414 1.414l5.879-5.878l.028-.033q.035-.04.073-.08A1 1 0 0 0 20.98 16c.003-.26-.097-.484-.293-.718a1 1 0 0 0-.1-.11h-.002z"/></symbol><symbol id="hd-icon-fluent-chevron-circle-right-32-regular" viewBox="0 0 32 32"><path fill="currentColor" d="M14.707 9.293a1 1 0 1 0-1.414 1.414L18.586 16l-5.293 5.293a1 1 0 0 0 1.414 1.414l5.879-5.878l.028-.033q.035-.04.073-.08A1 1 0 0 0 20.98 16c.003-.26-.097-.484-.293-.718a1 1 0 0 0-.1-.11h-.002zM16 2C8.268 2 2 8.268 2 16s6.268 14 14 14s14-6.268 14-14S23.732 2 16 2M4 16C4 9.373 9.373 4 16 4s12 5.373 12 12s-5.373 12-12 12S4 22.627 4 16"/></symbol><symbol id="hd-icon-fluent-chevron-circle-right-48-filled" viewBox="0 0 48 48"><path fill="currentColor" d="M24 4c11.046 0 20 8.954 20 20s-8.954 20-20 20S4 35.046 4 24S12.954 4 24 4m-3.634 28.616a1.25 1.25 0 0 0 1.768 1.768l9.5-9.5a1.25 1.25 0 0 0 0-1.768l-9.5-9.5a1.25 1.25 0 0 0-1.768 1.768L28.982 24z"/></symbol><symbol id="hd-icon-fluent-chevron-circle-right-48-regular" viewBox="0 0 48 48"><path fill="currentColor" d="M24 41.5c-9.665 0-17.5-7.835-17.5-17.5S14.335 6.5 24 6.5S41.5 14.335 41.5 24S33.665 41.5 24 41.5M4 24c0 11.046 8.954 20 20 20s20-8.954 20-20S35.046 4 24 4S4 12.954 4 24m16.366 8.616a1.25 1.25 0 0 0 1.768 1.768l9.5-9.5a1.25 1.25 0 0 0 0-1.768l-9.5-9.5a1.25 1.25 0 0 0-1.768 1.768L28.982 24z"/></symbol><symbol id="hd-icon-fluent-chevron-circle-up-12-filled" viewBox="0 0 12 12"><path fill="currentColor" d="M6 11A5 5 0 1 1 6 1a5 5 0 0 1 0 10M4.146 6.146a.5.5 0 1 0 .708.708L6 5.707l1.146 1.147a.5.5 0 1 0 .708-.708l-1.5-1.5a.5.5 0 0 0-.708 0z"/></symbol><symbol id="hd-icon-fluent-chevron-circle-up-12-regular" viewBox="0 0 12 12"><path fill="currentColor" d="M4.146 6.146a.5.5 0 1 0 .708.708L6 5.707l1.146 1.147a.5.5 0 1 0 .708-.708l-1.5-1.5a.5.5 0 0 0-.708 0zM1 6a5 5 0 1 0 10 0A5 5 0 0 0 1 6m5 4a4 4 0 1 1 0-8a4 4 0 0 1 0 8"/></symbol><symbol id="hd-icon-fluent-chevron-circle-up-16-filled" viewBox="0 0 16 16"><path fill="currentColor" d="M8 1a7 7 0 1 1 0 14A7 7 0 0 1 8 1m.354 4.646a.5.5 0 0 0-.708 0l-3 3a.5.5 0 1 0 .708.708L8 6.707l2.646 2.647a.5.5 0 1 0 .707-.708z"/></symbol><symbol id="hd-icon-fluent-chevron-circle-up-16-regular" viewBox="0 0 16 16"><path fill="currentColor" d="M8 1a7 7 0 1 1 0 14A7 7 0 0 1 8 1m0 1a6 6 0 1 0 0 12A6 6 0 0 0 8 2m-.354 3.646a.5.5 0 0 1 .708 0l3 3a.5.5 0 1 1-.707.708L8 6.707L5.354 9.354a.5.5 0 1 1-.708-.708z"/></symbol><symbol id="hd-icon-fluent-chevron-circle-up-20-filled" viewBox="0 0 20 20"><path fill="currentColor" d="M2 10a8 8 0 1 0 16 0a8 8 0 0 0-16 0m4.854 1.854a.5.5 0 0 1-.708-.708l3.5-3.5a.5.5 0 0 1 .708 0l3.5 3.5a.5.5 0 0 1-.708.708L10 8.707z"/></symbol><symbol id="hd-icon-fluent-chevron-circle-up-20-regular" viewBox="0 0 20 20"><path fill="currentColor" d="M3 10a7 7 0 1 0 14 0a7 7 0 0 0-14 0m7 8a8 8 0 1 1 0-16a8 8 0 0 1 0 16m-3.146-6.146a.5.5 0 0 1-.708-.708l3.5-3.5a.5.5 0 0 1 .708 0l3.5 3.5a.5.5 0 0 1-.708.708L10 8.707z"/></symbol><symbol id="hd-icon-fluent-chevron-circle-up-24-filled" viewBox="0 0 24 24"><path fill="currentColor" d="M12 22c5.523 0 10-4.477 10-10S17.523 2 12 2S2 6.477 2 12s4.477 10 10 10m-4.53-7.97a.75.75 0 0 1 0-1.06l4-4a.75.75 0 0 1 1.06 0l4 4a.75.75 0 1 1-1.06 1.06L12 10.56l-3.47 3.47a.75.75 0 0 1-1.06 0"/></symbol><symbol id="hd-icon-fluent-chevron-circle-up-24-regular" viewBox="0 0 24 24"><path fill="currentColor" d="M12 22c5.523 0 10-4.477 10-10S17.523 2 12 2S2 6.477 2 12s4.477 10 10 10m0-1.5a8.5 8.5 0 1 1 0-17a8.5 8.5 0 0 1 0 17m-4.53-6.47a.75.75 0 0 0 1.06 0L12 10.56l3.47 3.47a.75.75 0 1 0 1.06-1.06l-4-4a.75.75 0 0 0-1.06 0l-4 4a.75.75 0 0 0 0 1.06"/></symbol><symbol id="hd-icon-fluent-chevron-circle-up-28-filled" viewBox="0 0 28 28"><path fill="currentColor" d="M2 14c0 6.627 5.373 12 12 12s12-5.373 12-12S20.627 2 14 2S2 7.373 2 14m7.03 2.78a.75.75 0 0 1-1.06-1.06l5.5-5.5a.75.75 0 0 1 1.06 0l5.5 5.5a.75.75 0 1 1-1.06 1.06L14 11.81z"/></symbol><symbol id="hd-icon-fluent-chevron-circle-up-28-regular" viewBox="0 0 28 28"><path fill="currentColor" d="M3.5 14c0 5.799 4.701 10.5 10.5 10.5S24.5 19.799 24.5 14S19.799 3.5 14 3.5S3.5 8.201 3.5 14M14 26C7.373 26 2 20.627 2 14S7.373 2 14 2s12 5.373 12 12s-5.373 12-12 12m-4.97-9.22a.75.75 0 0 1-1.06-1.06l5.5-5.5a.75.75 0 0 1 1.06 0l5.5 5.5a.75.75 0 1 1-1.06 1.06L14 11.81z"/></symbol><symbol id="hd-icon-fluent-chevron-circle-up-32-filled" viewBox="0 0 32 32"><path fill="currentColor" d="M16 30C8.268 30 2 23.732 2 16S8.268 2 16 2s14 6.268 14 14s-6.268 14-14 14M9.293 17.293a1 1 0 1 0 1.414 1.414L16 13.414l5.293 5.293a1 1 0 0 0 1.414-1.414l-5.878-5.879l-.033-.028l-.08-.073A1 1 0 0 0 16 11.02c-.26-.003-.484.097-.718.293c-.05.041-.06.05-.11.1v.002z"/></symbol><symbol id="hd-icon-fluent-chevron-circle-up-32-regular" viewBox="0 0 32 32"><path fill="currentColor" d="M4 16c0 6.627 5.373 12 12 12s12-5.373 12-12S22.627 4 16 4S4 9.373 4 16m12 14C8.268 30 2 23.732 2 16S8.268 2 16 2s14 6.268 14 14s-6.268 14-14 14M9.293 18.707a1 1 0 0 1 0-1.414l5.878-5.878c.052-.052.06-.06.11-.102c.235-.196.46-.296.719-.293a1 1 0 0 1 .717.293c.036.036.072.066.112.101l5.878 5.879a1 1 0 0 1-1.414 1.414L16 13.414l-5.293 5.293a1 1 0 0 1-1.414 0"/></symbol><symbol id="hd-icon-fluent-chevron-circle-up-48-filled" viewBox="0 0 48 48"><path fill="currentColor" d="M24 4c11.046 0 20 8.954 20 20s-8.954 20-20 20S4 35.046 4 24S12.954 4 24 4m-8.616 23.634L24 19.018l8.616 8.616a1.25 1.25 0 0 0 1.768-1.768l-9.5-9.5a1.25 1.25 0 0 0-1.768 0l-9.5 9.5a1.25 1.25 0 0 0 1.768 1.768"/></symbol><symbol id="hd-icon-fluent-chevron-circle-up-48-regular" viewBox="0 0 48 48"><path fill="currentColor" d="M6.5 24c0 9.665 7.835 17.5 17.5 17.5S41.5 33.665 41.5 24S33.665 6.5 24 6.5S6.5 14.335 6.5 24M24 44C12.954 44 4 35.046 4 24S12.954 4 24 4s20 8.954 20 20s-8.954 20-20 20m-8.616-16.366a1.25 1.25 0 0 1-1.768-1.768l9.5-9.5a1.25 1.25 0 0 1 1.768 0l9.5 9.5a1.25 1.25 0 0 1-1.768 1.768L24 19.018z"/></symbol><symbol id="hd-icon-fluent-chevron-double-down-16-filled" viewBox="0 0 16 16"><path fill="currentColor" d="M11.72 7.97a.75.75 0 1 1 1.06 1.06l-4.25 4.25a.75.75 0 0 1-1.06 0L3.22 9.03a.75.75 0 1 1 1.06-1.06L8 11.69zm0-4.5a.75.75 0 1 1 1.06 1.06L8.53 8.78a.75.75 0 0 1-1.06 0L3.22 4.53a.75.75 0 1 1 1.06-1.06L8 7.19z"/></symbol><symbol id="hd-icon-fluent-chevron-double-down-16-regular" viewBox="0 0 16 16"><path fill="currentColor" d="M3.146 7.646a.5.5 0 0 1 .707 0L8 11.793l4.147-4.147a.501.501 0 0 1 .707.707l-4.5 4.5a.5.5 0 0 1-.707 0l-4.5-4.5a.5.5 0 0 1 0-.707m0-4a.5.5 0 0 1 .707 0L8 7.793l4.147-4.147a.501.501 0 0 1 .707.707l-4.5 4.5a.5.5 0 0 1-.707 0l-4.5-4.5a.5.5 0 0 1 0-.707"/></symbol><symbol id="hd-icon-fluent-chevron-double-down-20-filled" viewBox="0 0 20 20"><path fill="currentColor" d="M14.72 9.97a.75.75 0 1 1 1.06 1.06l-5.25 5.25a.75.75 0 0 1-1.06 0l-5.25-5.25a.75.75 0 1 1 1.06-1.06L10 14.69zm0-5.5a.75.75 0 1 1 1.06 1.06l-5.25 5.25a.75.75 0 0 1-1.06 0L4.22 5.53a.75.75 0 1 1 1.06-1.06L10 9.19z"/></symbol><symbol id="hd-icon-fluent-chevron-double-down-20-regular" viewBox="0 0 20 20"><path fill="currentColor" d="M15.147 9.646a.5.5 0 1 1 .707.707l-5.5 5.5a.5.5 0 0 1-.708 0l-5.5-5.5a.5.5 0 1 1 .708-.707L10 14.793zm0-5a.5.5 0 1 1 .707.708l-5.5 5.5a.5.5 0 0 1-.708 0l-5.5-5.5a.5.5 0 1 1 .708-.708L10 9.793z"/></symbol><symbol id="hd-icon-fluent-chevron-double-left-16-filled" viewBox="0 0 16 16"><path fill="currentColor" d="M6.97 3.22a.75.75 0 1 1 1.06 1.06L4.31 8l3.72 3.72a.75.75 0 1 1-1.06 1.06L2.72 8.53a.75.75 0 0 1 0-1.06zm4.5 0a.75.75 0 1 1 1.06 1.06L8.81 8l3.72 3.72a.75.75 0 1 1-1.06 1.06L7.22 8.53a.75.75 0 0 1 0-1.06z"/></symbol><symbol id="hd-icon-fluent-chevron-double-left-16-regular" viewBox="0 0 16 16"><path fill="currentColor" d="M7.646 3.147a.5.5 0 0 1 .707.707L4.207 8l4.146 4.147a.499.499 0 1 1-.707.707l-4.5-4.5a.5.5 0 0 1 0-.707zm4 0a.5.5 0 0 1 .707.707L8.207 8l4.146 4.147a.5.5 0 0 1-.707.707l-4.5-4.5a.5.5 0 0 1 0-.707z"/></symbol><symbol id="hd-icon-fluent-chevron-double-left-20-filled" viewBox="0 0 20 20"><path fill="currentColor" d="M8.97 4.22a.75.75 0 1 1 1.06 1.06L5.31 10l4.72 4.72a.75.75 0 1 1-1.06 1.06l-5.25-5.25a.75.75 0 0 1 0-1.06zm5.5 0a.75.75 0 1 1 1.06 1.06L10.81 10l4.72 4.72a.75.75 0 1 1-1.06 1.06l-5.25-5.25a.75.75 0 0 1 0-1.06z"/></symbol><symbol id="hd-icon-fluent-chevron-double-left-20-regular" viewBox="0 0 20 20"><path fill="currentColor" d="M9.646 4.146a.5.5 0 1 1 .707.708L5.208 10l5.147 5.147a.5.5 0 1 1-.708.707l-5.5-5.5a.5.5 0 0 1 0-.708zm5 0a.5.5 0 1 1 .707.708L10.208 10l5.147 5.147a.5.5 0 1 1-.707.707l-5.5-5.5a.5.5 0 0 1 0-.708z"/></symbol><symbol id="hd-icon-fluent-chevron-double-right-16-filled" viewBox="0 0 16 16"><path fill="currentColor" d="M3.47 3.22a.75.75 0 0 1 1.06 0l4.25 4.25a.75.75 0 0 1 0 1.06l-4.25 4.25a.75.75 0 0 1-1.06-1.06L7.19 8L3.47 4.28a.75.75 0 0 1 0-1.06m4.5 0a.75.75 0 0 1 1.06 0l4.25 4.25a.75.75 0 0 1 0 1.06l-4.25 4.25a.75.75 0 0 1-1.06-1.06L11.69 8L7.97 4.28a.75.75 0 0 1 0-1.06"/></symbol><symbol id="hd-icon-fluent-chevron-double-right-16-regular" viewBox="0 0 16 16"><path fill="currentColor" d="M3.646 3.146a.5.5 0 0 1 .707 0l4.5 4.5a.504.504 0 0 1 0 .708l-4.5 4.5a.5.5 0 0 1-.707-.707L7.793 8L3.646 3.854a.5.5 0 0 1 0-.708m4 0a.5.5 0 0 1 .708 0l4.5 4.5a.5.5 0 0 1 .136.45a.5.5 0 0 1-.136.258l-4.5 4.5a.5.5 0 0 1-.708-.707L11.793 8L7.646 3.854a.5.5 0 0 1 0-.708"/></symbol><symbol id="hd-icon-fluent-chevron-double-right-20-filled" viewBox="0 0 20 20"><path fill="currentColor" d="M4.47 4.22a.75.75 0 0 1 1.06 0l5.25 5.25a.75.75 0 0 1 0 1.06l-5.25 5.25a.75.75 0 0 1-1.06-1.06L9.19 10L4.47 5.28a.75.75 0 0 1 0-1.06m5.5 0a.75.75 0 0 1 1.06 0l5.25 5.25a.75.75 0 0 1 0 1.06l-5.25 5.25a.75.75 0 0 1-1.06-1.06L14.69 10L9.97 5.28a.75.75 0 0 1 0-1.06"/></symbol><symbol id="hd-icon-fluent-chevron-double-right-20-regular" viewBox="0 0 20 20"><path fill="currentColor" d="M4.646 4.146a.5.5 0 0 1 .708 0l5.5 5.5a.5.5 0 0 1 0 .707l-5.5 5.5a.5.5 0 1 1-.708-.707L9.793 10L4.646 4.854a.5.5 0 0 1 0-.708m5 0a.5.5 0 0 1 .707 0l5.5 5.5a.5.5 0 0 1 0 .707l-5.5 5.5a.5.5 0 1 1-.707-.707L14.793 10L9.646 4.854a.5.5 0 0 1 0-.708"/></symbol><symbol id="hd-icon-fluent-chevron-double-up-16-filled" viewBox="0 0 16 16"><path fill="currentColor" d="M8 7c.199 0 .39.08.53.22l4.25 4.25a.75.75 0 0 1-1.06 1.06L8 8.81l-3.72 3.72a.75.75 0 1 1-1.06-1.06l4.25-4.25A.75.75 0 0 1 8 7m0-4.5c.199 0 .39.08.53.22l4.25 4.25a.75.75 0 0 1-1.06 1.06L8 4.31L4.28 8.03a.75.75 0 1 1-1.06-1.06l4.25-4.25A.75.75 0 0 1 8 2.5"/></symbol><symbol id="hd-icon-fluent-chevron-double-up-16-regular" viewBox="0 0 16 16"><path fill="currentColor" d="M7.725 7.083a.5.5 0 0 1 .628.064l4.5 4.5q.038.037.065.078a.5.5 0 0 1-.143.694a.5.5 0 0 1-.629-.065L8 8.208l-4.147 4.146a.5.5 0 0 1-.707-.707l4.5-4.5a.5.5 0 0 1 .079-.064m0-4a.5.5 0 0 1 .628.064l4.5 4.5q.038.037.065.078a.5.5 0 0 1-.143.694a.5.5 0 0 1-.629-.065L8 4.208L3.853 8.354a.5.5 0 0 1-.707-.707l4.5-4.5a.5.5 0 0 1 .079-.064"/></symbol><symbol id="hd-icon-fluent-chevron-double-up-20-filled" viewBox="0 0 20 20"><path fill="currentColor" d="M9.47 9.22a.75.75 0 0 1 1.06 0l5.25 5.25a.75.75 0 0 1-1.06 1.06L10 10.81l-4.72 4.72a.75.75 0 0 1-1.06-1.06zm0-5.5a.75.75 0 0 1 1.06 0l5.25 5.25a.75.75 0 0 1-1.06 1.06L10 5.31l-4.72 4.72a.75.75 0 0 1-1.06-1.06z"/></symbol><symbol id="hd-icon-fluent-chevron-double-up-20-regular" viewBox="0 0 20 20"><path fill="currentColor" d="M10 9a.5.5 0 0 1 .354.146l5.5 5.5a.5.5 0 0 1-.707.707L10 10.208l-5.146 5.147a.5.5 0 1 1-.708-.707l5.5-5.5A.5.5 0 0 1 10 9m0-5a.5.5 0 0 1 .354.146l5.5 5.5a.5.5 0 0 1-.707.707L10 5.208l-5.146 5.147a.5.5 0 1 1-.708-.708l5.5-5.5A.5.5 0 0 1 10 4"/></symbol><symbol id="hd-icon-fluent-chevron-down-12-filled" viewBox="0 0 12 12"><path fill="currentColor" d="M2.22 4.47a.75.75 0 0 1 1.06 0L6 7.19l2.72-2.72a.75.75 0 0 1 1.06 1.06L6.53 8.78a.75.75 0 0 1-1.06 0L2.22 5.53a.75.75 0 0 1 0-1.06"/></symbol><symbol id="hd-icon-fluent-chevron-down-12-regular" viewBox="0 0 12 12"><path fill="currentColor" d="M2.146 4.646a.5.5 0 0 1 .708 0L6 7.793l3.146-3.147a.5.5 0 1 1 .708.708l-3.5 3.5a.5.5 0 0 1-.708 0l-3.5-3.5a.5.5 0 0 1 0-.708"/></symbol><symbol id="hd-icon-fluent-chevron-down-16-filled" viewBox="0 0 16 16"><path fill="currentColor" d="M3.2 5.74a.75.75 0 0 1 1.06-.04L8 9.227L11.74 5.7a.75.75 0 1 1 1.02 1.1l-4.25 4a.75.75 0 0 1-1.02 0l-4.25-4a.75.75 0 0 1-.04-1.06"/></symbol><symbol id="hd-icon-fluent-chevron-down-16-regular" viewBox="0 0 16 16"><path fill="currentColor" d="M3.146 5.646a.5.5 0 0 1 .708 0L8 9.793l4.146-4.147a.5.5 0 0 1 .708.708l-4.5 4.5a.5.5 0 0 1-.708 0l-4.5-4.5a.5.5 0 0 1 0-.708"/></symbol><symbol id="hd-icon-fluent-chevron-down-20-filled" viewBox="0 0 20 20"><path fill="currentColor" d="M15.794 7.733a.75.75 0 0 1-.026 1.06l-5.25 5.001a.75.75 0 0 1-1.035 0l-5.25-5a.75.75 0 0 1 1.034-1.087l4.734 4.509l4.733-4.51a.75.75 0 0 1 1.06.027"/></symbol><symbol id="hd-icon-fluent-chevron-down-20-regular" viewBox="0 0 20 20"><path fill="currentColor" d="M15.854 7.646a.5.5 0 0 1 .001.707l-5.465 5.484a.55.55 0 0 1-.78 0L4.147 8.353a.5.5 0 1 1 .708-.706L10 12.812l5.147-5.165a.5.5 0 0 1 .707-.001"/></symbol><symbol id="hd-icon-fluent-chevron-down-24-filled" viewBox="0 0 24 24"><path fill="currentColor" d="M4.293 8.293a1 1 0 0 1 1.414 0L12 14.586l6.293-6.293a1 1 0 1 1 1.414 1.414l-7 7a1 1 0 0 1-1.414 0l-7-7a1 1 0 0 1 0-1.414"/></symbol><symbol id="hd-icon-fluent-chevron-down-24-regular" viewBox="0 0 24 24"><path fill="currentColor" d="M4.22 8.47a.75.75 0 0 1 1.06 0L12 15.19l6.72-6.72a.75.75 0 1 1 1.06 1.06l-7.25 7.25a.75.75 0 0 1-1.06 0L4.22 9.53a.75.75 0 0 1 0-1.06"/></symbol><symbol id="hd-icon-fluent-chevron-down-28-filled" viewBox="0 0 28 28"><path fill="currentColor" d="M4.293 9.293a1 1 0 0 1 1.414 0L14 17.586l8.293-8.293a1 1 0 1 1 1.414 1.414l-9 9a1 1 0 0 1-1.414 0l-9-9a1 1 0 0 1 0-1.414"/></symbol><symbol id="hd-icon-fluent-chevron-down-28-regular" viewBox="0 0 28 28"><path fill="currentColor" d="M4.22 9.47a.75.75 0 0 1 1.06 0L14 18.19l8.72-8.72a.75.75 0 1 1 1.06 1.06l-9.25 9.25a.75.75 0 0 1-1.06 0l-9.25-9.25a.75.75 0 0 1 0-1.06"/></symbol><symbol id="hd-icon-fluent-chevron-down-32-filled" viewBox="0 0 32 32"><path fill="currentColor" d="M5.366 11.116a1.25 1.25 0 0 1 1.768 0L16 19.982l8.866-8.866a1.25 1.25 0 0 1 1.768 1.768l-9.75 9.75a1.25 1.25 0 0 1-1.768 0l-9.75-9.75a1.25 1.25 0 0 1 0-1.768"/></symbol><symbol id="hd-icon-fluent-chevron-down-32-regular" viewBox="0 0 32 32"><path fill="currentColor" d="M5.293 11.293a1 1 0 0 1 1.414 0L16 20.586l9.293-9.293a1 1 0 0 1 1.414 1.414l-10 10a1 1 0 0 1-1.414 0l-10-10a1 1 0 0 1 0-1.414"/></symbol><symbol id="hd-icon-fluent-chevron-down-48-filled" viewBox="0 0 48 48"><path fill="currentColor" d="M8.44 15.94a1.5 1.5 0 0 1 2.12 0L24 29.378l13.44-13.44a1.5 1.5 0 0 1 2.12 2.122l-14.5 14.5a1.5 1.5 0 0 1-2.12 0l-14.5-14.5a1.5 1.5 0 0 1 0-2.122"/></symbol><symbol id="hd-icon-fluent-chevron-down-48-regular" viewBox="0 0 48 48"><path fill="currentColor" d="M8.366 16.116a1.25 1.25 0 0 0 0 1.768l14.75 14.75a1.25 1.25 0 0 0 1.768 0l14.75-14.75a1.25 1.25 0 0 0-1.768-1.768L24 29.982L10.134 16.116a1.25 1.25 0 0 0-1.768 0"/></symbol><symbol id="hd-icon-fluent-chevron-down-circle-24-filled" viewBox="0 0 24 24"><path d="M12 2c5.523 0 10 4.477 10 10s-4.477 10-10 10S2 17.523 2 12S6.477 2 12 2zM7.47 9.97a.75.75 0 0 0 0 1.06l4 4a.75.75 0 0 0 1.06 0l4-4a.75.75 0 0 0-1.06-1.06L12 13.44L8.53 9.97a.75.75 0 0 0-1.06 0z" fill="currentColor" fill-rule="nonzero"/></symbol><symbol id="hd-icon-fluent-chevron-down-circle-24-regular" viewBox="0 0 24 24"><path d="M12 2c5.523 0 10 4.477 10 10s-4.477 10-10 10S2 17.523 2 12S6.477 2 12 2zm0 1.5a8.5 8.5 0 1 0 0 17a8.5 8.5 0 0 0 0-17zM7.47 9.97a.75.75 0 0 1 1.06 0L12 13.44l3.47-3.47a.75.75 0 0 1 1.06 1.06l-4 4a.75.75 0 0 1-1.06 0l-4-4a.75.75 0 0 1 0-1.06z" fill="currentColor" fill-rule="nonzero"/></symbol><symbol id="hd-icon-fluent-chevron-down-up-16-filled" viewBox="0 0 16 16"><path fill="currentColor" d="M11.78 3.53L8.53 6.78a.75.75 0 0 1-1.06 0L4.22 3.53a.75.75 0 0 1 1.06-1.06L8 5.19l2.72-2.72a.75.75 0 1 1 1.06 1.06M8.53 9.22a.75.75 0 0 0-1.06 0l-3.25 3.25a.75.75 0 1 0 1.06 1.06L8 10.81l2.72 2.72a.75.75 0 1 0 1.06-1.06z"/></symbol><symbol id="hd-icon-fluent-chevron-down-up-16-regular" viewBox="0 0 16 16"><path fill="currentColor" d="m11.854 3.354l-3.5 3.5a.5.5 0 0 1-.708 0l-3.5-3.5a.5.5 0 1 1 .708-.708L8 5.793l3.146-3.147a.5.5 0 0 1 .708.708m0 9.292l-3.5-3.5a.5.5 0 0 0-.708 0l-3.5 3.5a.5.5 0 0 0 .708.708L8 10.207l3.146 3.147a.5.5 0 0 0 .708-.708"/></symbol><symbol id="hd-icon-fluent-chevron-down-up-20-filled" viewBox="0 0 20 20"><path fill="currentColor" d="M6.28 2.97a.75.75 0 0 0-1.06 1.06l4.25 4.25a.75.75 0 0 0 1.06 0l4.25-4.25a.75.75 0 0 0-1.06-1.06L10 6.69zm8.5 13l-4.25-4.25a.75.75 0 0 0-1.06 0l-4.25 4.25a.75.75 0 1 0 1.06 1.06L10 13.31l3.72 3.72a.75.75 0 1 0 1.06-1.06"/></symbol><symbol id="hd-icon-fluent-chevron-down-up-20-regular" viewBox="0 0 20 20"><path fill="currentColor" d="M5.854 3.146a.5.5 0 1 0-.708.708l4.5 4.5a.5.5 0 0 0 .708 0l4.5-4.5a.5.5 0 0 0-.708-.708L10 7.293zm9 13l-4.5-4.5a.5.5 0 0 0-.708 0l-4.5 4.5a.5.5 0 0 0 .708.708L10 12.707l4.146 4.147a.5.5 0 0 0 .708-.708"/></symbol><symbol id="hd-icon-fluent-chevron-down-up-24-filled" viewBox="0 0 24 24"><path fill="currentColor" d="M6.707 2.793a1 1 0 0 0-1.414 1.414l6 6a1 1 0 0 0 1.414 0l6-6a1 1 0 0 0-1.414-1.414L12 8.086zm0 18.414a1 1 0 0 1-1.414-1.414l6-6a1 1 0 0 1 1.414 0l6 6a1 1 0 0 1-1.414 1.414L12 15.914z"/></symbol><symbol id="hd-icon-fluent-chevron-down-up-24-regular" viewBox="0 0 24 24"><path fill="currentColor" d="M6.28 2.97a.75.75 0 0 0-1.06 1.06l6.25 6.25a.75.75 0 0 0 1.06 0l6.25-6.25a.75.75 0 0 0-1.06-1.06L12 8.69zm0 18.06a.75.75 0 0 1-1.06-1.06l6.25-6.25a.75.75 0 0 1 1.06 0l6.25 6.25a.75.75 0 1 1-1.06 1.06L12 15.31z"/></symbol><symbol id="hd-icon-fluent-chevron-left-12-filled" viewBox="0 0 12 12"><path fill="currentColor" d="M7.53 2.22a.75.75 0 0 1 0 1.06L4.81 6l2.72 2.72a.75.75 0 0 1-1.06 1.06L3.22 6.53a.75.75 0 0 1 0-1.06l3.25-3.25a.75.75 0 0 1 1.06 0"/></symbol><symbol id="hd-icon-fluent-chevron-left-12-regular" viewBox="0 0 12 12"><path fill="currentColor" d="M7.354 2.146a.5.5 0 0 1 0 .708L4.207 6l3.147 3.146a.5.5 0 1 1-.708.708l-3.5-3.5a.5.5 0 0 1 0-.708l3.5-3.5a.5.5 0 0 1 .708 0"/></symbol><symbol id="hd-icon-fluent-chevron-left-16-filled" viewBox="0 0 16 16"><path fill="currentColor" d="M10.26 3.2a.75.75 0 0 1 .04 1.06L6.773 8l3.527 3.74a.75.75 0 1 1-1.1 1.02l-4-4.25a.75.75 0 0 1 0-1.02l4-4.25a.75.75 0 0 1 1.06-.04"/></symbol><symbol id="hd-icon-fluent-chevron-left-16-regular" viewBox="0 0 16 16"><path fill="currentColor" d="M10.354 3.146a.5.5 0 0 1 0 .708L6.207 8l4.147 4.146a.5.5 0 0 1-.708.708l-4.5-4.5a.5.5 0 0 1 0-.708l4.5-4.5a.5.5 0 0 1 .708 0"/></symbol><symbol id="hd-icon-fluent-chevron-left-20-filled" viewBox="0 0 20 20"><path fill="currentColor" d="M12.269 15.794a.75.75 0 0 1-1.06-.026l-5.002-5.25a.75.75 0 0 1 0-1.035l5.001-5.25a.75.75 0 1 1 1.086 1.034l-4.508 4.734l4.508 4.733a.75.75 0 0 1-.025 1.06"/></symbol><symbol id="hd-icon-fluent-chevron-left-20-regular" viewBox="0 0 20 20"><path fill="currentColor" d="M12.353 15.854a.5.5 0 0 1-.707.001L6.162 10.39a.55.55 0 0 1 0-.78l5.484-5.464a.5.5 0 1 1 .706.708L7.188 10l5.164 5.147a.5.5 0 0 1 .001.707"/></symbol><symbol id="hd-icon-fluent-chevron-left-24-filled" viewBox="0 0 24 24"><path fill="currentColor" d="M15.707 4.293a1 1 0 0 1 0 1.414L9.414 12l6.293 6.293a1 1 0 0 1-1.414 1.414l-7-7a1 1 0 0 1 0-1.414l7-7a1 1 0 0 1 1.414 0"/></symbol><symbol id="hd-icon-fluent-chevron-left-24-regular" viewBox="0 0 24 24"><path fill="currentColor" d="M15.53 4.22a.75.75 0 0 1 0 1.06L8.81 12l6.72 6.72a.75.75 0 1 1-1.06 1.06l-7.25-7.25a.75.75 0 0 1 0-1.06l7.25-7.25a.75.75 0 0 1 1.06 0"/></symbol><symbol id="hd-icon-fluent-chevron-left-28-filled" viewBox="0 0 28 28"><path fill="currentColor" d="M18.457 23.207a1 1 0 0 1-1.414 0l-8.75-8.75a1 1 0 0 1 0-1.414l8.75-8.75a1 1 0 1 1 1.414 1.414l-8.043 8.043l8.043 8.043a1 1 0 0 1 0 1.414"/></symbol><symbol id="hd-icon-fluent-chevron-left-28-regular" viewBox="0 0 28 28"><path fill="currentColor" d="M18.03 22.78a.75.75 0 0 1-1.06 0l-8.75-8.75a.75.75 0 0 1 0-1.06l8.75-8.75a.75.75 0 1 1 1.06 1.06L9.81 13.5l8.22 8.22a.75.75 0 0 1 0 1.06"/></symbol><symbol id="hd-icon-fluent-chevron-left-32-filled" viewBox="0 0 32 32"><path fill="currentColor" d="M20.884 5.366a1.25 1.25 0 0 1 0 1.768L12.018 16l8.866 8.866a1.25 1.25 0 0 1-1.768 1.768l-9.75-9.75a1.25 1.25 0 0 1 0-1.768l9.75-9.75a1.25 1.25 0 0 1 1.768 0"/></symbol><symbol id="hd-icon-fluent-chevron-left-32-regular" viewBox="0 0 32 32"><path fill="currentColor" d="M20.707 5.293a1 1 0 0 1 0 1.414L11.414 16l9.293 9.293a1 1 0 0 1-1.414 1.414l-10-10a1 1 0 0 1 0-1.414l10-10a1 1 0 0 1 1.414 0"/></symbol><symbol id="hd-icon-fluent-chevron-left-48-filled" viewBox="0 0 48 48"><path fill="currentColor" d="M32.06 8.19a1.5 1.5 0 0 1 0 2.12L18.622 23.75l13.44 13.44a1.5 1.5 0 0 1-2.122 2.12l-14.5-14.5a1.5 1.5 0 0 1 0-2.12l14.5-14.5a1.5 1.5 0 0 1 2.122 0"/></symbol><symbol id="hd-icon-fluent-chevron-left-48-regular" viewBox="0 0 48 48"><path fill="currentColor" d="M31.884 8.366a1.25 1.25 0 0 1 0 1.768L18.018 24l13.866 13.866a1.25 1.25 0 0 1-1.768 1.768l-14.75-14.75a1.25 1.25 0 0 1 0-1.768l14.75-14.75a1.25 1.25 0 0 1 1.768 0"/></symbol><symbol id="hd-icon-fluent-chevron-right-12-filled" viewBox="0 0 12 12"><path fill="currentColor" d="M4.47 2.22a.75.75 0 0 0 0 1.06L7.19 6L4.47 8.72a.75.75 0 0 0 1.06 1.06l3.25-3.25a.75.75 0 0 0 0-1.06L5.53 2.22a.75.75 0 0 0-1.06 0"/></symbol><symbol id="hd-icon-fluent-chevron-right-12-regular" viewBox="0 0 12 12"><path fill="currentColor" d="M4.646 2.146a.5.5 0 0 0 0 .708L7.793 6L4.646 9.146a.5.5 0 1 0 .708.708l3.5-3.5a.5.5 0 0 0 0-.708l-3.5-3.5a.5.5 0 0 0-.708 0"/></symbol><symbol id="hd-icon-fluent-chevron-right-16-filled" viewBox="0 0 16 16"><path fill="currentColor" d="M5.74 3.2a.75.75 0 0 0-.04 1.06L9.227 8L5.7 11.74a.75.75 0 1 0 1.1 1.02l4-4.25a.75.75 0 0 0 0-1.02l-4-4.25a.75.75 0 0 0-1.06-.04"/></symbol><symbol id="hd-icon-fluent-chevron-right-16-regular" viewBox="0 0 16 16"><path fill="currentColor" d="M5.646 3.146a.5.5 0 0 0 0 .708L9.793 8l-4.147 4.146a.5.5 0 0 0 .708.708l4.5-4.5a.5.5 0 0 0 0-.708l-4.5-4.5a.5.5 0 0 0-.708 0"/></symbol><symbol id="hd-icon-fluent-chevron-right-20-filled" viewBox="0 0 20 20"><path fill="currentColor" d="M7.733 4.207a.75.75 0 0 1 1.06.026l5.001 5.25a.75.75 0 0 1 0 1.035l-5 5.25a.75.75 0 1 1-1.087-1.034L12.216 10l-4.51-4.734a.75.75 0 0 1 .027-1.06"/></symbol><symbol id="hd-icon-fluent-chevron-right-20-regular" viewBox="0 0 20 20"><path fill="currentColor" d="M7.646 4.147a.5.5 0 0 1 .707-.001l5.484 5.465a.55.55 0 0 1 0 .779l-5.484 5.465a.5.5 0 0 1-.706-.708L12.812 10L7.647 4.854a.5.5 0 0 1-.001-.707"/></symbol><symbol id="hd-icon-fluent-chevron-right-24-filled" viewBox="0 0 24 24"><path fill="currentColor" d="M8.293 4.293a1 1 0 0 0 0 1.414L14.586 12l-6.293 6.293a1 1 0 1 0 1.414 1.414l7-7a1 1 0 0 0 0-1.414l-7-7a1 1 0 0 0-1.414 0"/></symbol><symbol id="hd-icon-fluent-chevron-right-24-regular" viewBox="0 0 24 24"><path fill="currentColor" d="M8.47 4.22a.75.75 0 0 0 0 1.06L15.19 12l-6.72 6.72a.75.75 0 1 0 1.06 1.06l7.25-7.25a.75.75 0 0 0 0-1.06L9.53 4.22a.75.75 0 0 0-1.06 0"/></symbol><symbol id="hd-icon-fluent-chevron-right-28-filled" viewBox="0 0 28 28"><path fill="currentColor" d="M9.543 4.293a1 1 0 0 1 1.414 0l8.75 8.75a1 1 0 0 1 0 1.414l-8.75 8.75a1 1 0 0 1-1.414-1.414l8.043-8.043l-8.043-8.043a1 1 0 0 1 0-1.414"/></symbol><symbol id="hd-icon-fluent-chevron-right-28-regular" viewBox="0 0 28 28"><path fill="currentColor" d="M9.97 4.22a.75.75 0 0 1 1.06 0l8.75 8.75a.75.75 0 0 1 0 1.06l-8.75 8.75a.75.75 0 1 1-1.06-1.06l8.22-8.22l-8.22-8.22a.75.75 0 0 1 0-1.06"/></symbol><symbol id="hd-icon-fluent-chevron-right-32-filled" viewBox="0 0 32 32"><path fill="currentColor" d="M11.116 26.634a1.25 1.25 0 0 1 0-1.768L19.982 16l-8.866-8.866a1.25 1.25 0 0 1 1.768-1.768l9.75 9.75a1.25 1.25 0 0 1 0 1.768l-9.75 9.75a1.25 1.25 0 0 1-1.768 0"/></symbol><symbol id="hd-icon-fluent-chevron-right-32-regular" viewBox="0 0 32 32"><path fill="currentColor" d="M11.293 26.707a1 1 0 0 1 0-1.414L20.586 16l-9.293-9.293a1 1 0 0 1 1.414-1.414l10 10a1 1 0 0 1 0 1.414l-10 10a1 1 0 0 1-1.414 0"/></symbol><symbol id="hd-icon-fluent-chevron-right-48-filled" viewBox="0 0 48 48"><path fill="currentColor" d="M15.94 39.31a1.5 1.5 0 0 1 0-2.12l13.439-13.44l-13.44-13.44a1.5 1.5 0 0 1 2.122-2.12l14.5 14.5a1.5 1.5 0 0 1 0 2.12l-14.5 14.5a1.5 1.5 0 0 1-2.122 0"/></symbol><symbol id="hd-icon-fluent-chevron-right-48-regular" viewBox="0 0 48 48"><path fill="currentColor" d="M16.116 39.634a1.25 1.25 0 0 1 0-1.768L29.982 24L16.116 10.134a1.25 1.25 0 0 1 1.768-1.768l14.75 14.75a1.25 1.25 0 0 1 0 1.768l-14.75 14.75a1.25 1.25 0 0 1-1.768 0"/></symbol><symbol id="hd-icon-fluent-chevron-up-12-filled" viewBox="0 0 12 12"><path fill="currentColor" d="M2.22 7.53a.75.75 0 0 0 1.06 0L6 4.81l2.72 2.72a.75.75 0 0 0 1.06-1.06L6.53 3.22a.75.75 0 0 0-1.06 0L2.22 6.47a.75.75 0 0 0 0 1.06"/></symbol><symbol id="hd-icon-fluent-chevron-up-12-regular" viewBox="0 0 12 12"><path fill="currentColor" d="M2.146 7.354a.5.5 0 0 0 .708 0L6 4.207l3.146 3.147a.5.5 0 1 0 .708-.708l-3.5-3.5a.5.5 0 0 0-.708 0l-3.5 3.5a.5.5 0 0 0 0 .708"/></symbol><symbol id="hd-icon-fluent-chevron-up-16-filled" viewBox="0 0 16 16"><path fill="currentColor" d="M3.2 10.26a.75.75 0 0 0 1.06.04L8 6.773l3.74 3.527a.75.75 0 1 0 1.02-1.1l-4.25-4a.75.75 0 0 0-1.02 0l-4.25 4a.75.75 0 0 0-.04 1.06"/></symbol><symbol id="hd-icon-fluent-chevron-up-16-regular" viewBox="0 0 16 16"><path fill="currentColor" d="M3.146 10.354a.5.5 0 0 0 .708 0L8 6.207l4.146 4.147a.5.5 0 0 0 .708-.708l-4.5-4.5a.5.5 0 0 0-.708 0l-4.5 4.5a.5.5 0 0 0 0 .708"/></symbol><symbol id="hd-icon-fluent-chevron-up-20-filled" viewBox="0 0 20 20"><path fill="currentColor" d="M4.207 12.267a.75.75 0 0 1 .026-1.06l5.25-5.002a.75.75 0 0 1 1.035 0l5.25 5.001a.75.75 0 0 1-1.034 1.086L10 7.784l-4.734 4.508a.75.75 0 0 1-1.06-.025"/></symbol><symbol id="hd-icon-fluent-chevron-up-20-regular" viewBox="0 0 20 20"><path fill="currentColor" d="M4.147 12.353a.5.5 0 0 1-.001-.707L9.61 6.162a.55.55 0 0 1 .779 0l5.465 5.484a.5.5 0 0 1-.708.706L10 7.188l-5.146 5.164a.5.5 0 0 1-.707.001"/></symbol><symbol id="hd-icon-fluent-chevron-up-24-filled" viewBox="0 0 24 24"><path fill="currentColor" d="M4.293 15.707a1 1 0 0 0 1.414 0L12 9.414l6.293 6.293a1 1 0 0 0 1.414-1.414l-7-7a1 1 0 0 0-1.414 0l-7 7a1 1 0 0 0 0 1.414"/></symbol><symbol id="hd-icon-fluent-chevron-up-24-regular" viewBox="0 0 24 24"><path fill="currentColor" d="M4.22 15.53a.75.75 0 0 0 1.06 0L12 8.81l6.72 6.72a.75.75 0 1 0 1.06-1.06l-7.25-7.25a.75.75 0 0 0-1.06 0l-7.25 7.25a.75.75 0 0 0 0 1.06"/></symbol><symbol id="hd-icon-fluent-chevron-up-28-filled" viewBox="0 0 28 28"><path fill="currentColor" d="M23.707 18.707a1 1 0 0 1-1.414 0L14 10.414l-8.293 8.293a1 1 0 0 1-1.414-1.414l9-9a1 1 0 0 1 1.414 0l9 9a1 1 0 0 1 0 1.414"/></symbol><symbol id="hd-icon-fluent-chevron-up-28-regular" viewBox="0 0 28 28"><path fill="currentColor" d="M23.78 18.53a.75.75 0 0 1-1.06 0L14 9.81l-8.72 8.72a.75.75 0 0 1-1.06-1.06l9.25-9.25a.75.75 0 0 1 1.06 0l9.25 9.25a.75.75 0 0 1 0 1.06"/></symbol><symbol id="hd-icon-fluent-chevron-up-32-filled" viewBox="0 0 32 32"><path fill="currentColor" d="M5.366 20.884a1.25 1.25 0 0 0 1.768 0L16 12.018l8.866 8.866a1.25 1.25 0 0 0 1.768-1.768l-9.75-9.75a1.25 1.25 0 0 0-1.768 0l-9.75 9.75a1.25 1.25 0 0 0 0 1.768"/></symbol><symbol id="hd-icon-fluent-chevron-up-32-regular" viewBox="0 0 32 32"><path fill="currentColor" d="M5.293 20.707a1 1 0 0 0 1.414 0L16 11.414l9.293 9.293a1 1 0 0 0 1.414-1.414l-10-10a1 1 0 0 0-1.414 0l-10 10a1 1 0 0 0 0 1.414"/></symbol><symbol id="hd-icon-fluent-chevron-up-48-filled" viewBox="0 0 48 48"><path fill="currentColor" d="M39.56 32.06a1.5 1.5 0 0 1-2.12 0L24 18.622l-13.44 13.44a1.5 1.5 0 0 1-2.12-2.122l14.5-14.5a1.5 1.5 0 0 1 2.12 0l14.5 14.5a1.5 1.5 0 0 1 0 2.122"/></symbol><symbol id="hd-icon-fluent-chevron-up-48-regular" viewBox="0 0 48 48"><path fill="currentColor" d="M39.634 31.884a1.25 1.25 0 0 1-1.768 0L24 18.018L10.134 31.884a1.25 1.25 0 0 1-1.768-1.768l14.75-14.75a1.25 1.25 0 0 1 1.768 0l14.75 14.75a1.25 1.25 0 0 1 0 1.768"/></symbol><symbol id="hd-icon-fluent-chevron-up-down-16-filled" viewBox="0 0 16 16"><path fill="currentColor" d="M4.22 6.53a.75.75 0 0 0 1.06 0L8 3.81l2.72 2.72a.75.75 0 1 0 1.06-1.06L8.53 2.22a.75.75 0 0 0-1.06 0L4.22 5.47a.75.75 0 0 0 0 1.06m0 2.94a.75.75 0 0 1 1.06 0L8 12.19l2.72-2.72a.75.75 0 1 1 1.06 1.06l-3.25 3.25a.75.75 0 0 1-1.06 0l-3.25-3.25a.75.75 0 0 1 0-1.06"/></symbol><symbol id="hd-icon-fluent-chevron-up-down-16-regular" viewBox="0 0 16 16"><path fill="currentColor" d="M4.146 6.354a.5.5 0 0 0 .708 0L8 3.207l3.146 3.147a.5.5 0 0 0 .708-.708l-3.5-3.5a.5.5 0 0 0-.708 0l-3.5 3.5a.5.5 0 0 0 0 .708m0 3.292a.5.5 0 0 1 .708 0L8 12.793l3.146-3.147a.5.5 0 0 1 .708.708l-3.5 3.5a.5.5 0 0 1-.708 0l-3.5-3.5a.5.5 0 0 1 0-.708"/></symbol><symbol id="hd-icon-fluent-chevron-up-down-20-filled" viewBox="0 0 20 20"><path fill="currentColor" d="M10.53 2.72a.75.75 0 0 0-1.06 0L5.22 6.97a.75.75 0 0 0 1.06 1.06L10 4.31l3.72 3.72a.75.75 0 1 0 1.06-1.06zm4.25 10.31l-4.25 4.25a.75.75 0 0 1-1.06 0l-4.25-4.25a.75.75 0 1 1 1.06-1.06L10 15.69l3.72-3.72a.75.75 0 1 1 1.06 1.06"/></symbol><symbol id="hd-icon-fluent-chevron-up-down-20-regular" viewBox="0 0 20 20"><path fill="currentColor" d="M14.911 7.216a.5.5 0 0 1-.765.638L10 3.707L5.854 7.854l-.07.057a.5.5 0 0 1-.638-.765l4.5-4.5l.07-.057a.5.5 0 0 1 .638.057l4.5 4.5zM5.09 12.784a.5.5 0 0 1 .765-.638L10 16.293l4.146-4.147l.07-.057a.5.5 0 0 1 .638.765l-4.5 4.5l-.07.057a.5.5 0 0 1-.638-.057l-4.5-4.5z"/></symbol><symbol id="hd-icon-fluent-chevron-up-down-24-filled" viewBox="0 0 24 24"><path fill="currentColor" d="M18.79 8.387a1 1 0 0 1-1.497 1.32L12 4.414L6.707 9.707l-.094.083a1 1 0 0 1-1.32-1.497l6-6l.094-.083a1 1 0 0 1 1.32.083l6 6zM5.21 15.613a1 1 0 0 1 1.497-1.32L12 19.586l5.293-5.293l.094-.083a1 1 0 0 1 1.32 1.497l-6 6l-.094.083a1 1 0 0 1-1.32-.083l-6-6z"/></symbol><symbol id="hd-icon-fluent-chevron-up-down-24-regular" viewBox="0 0 24 24"><path fill="currentColor" d="M12.54 2.23a.75.75 0 0 0-1.08 0l-6.25 6.5a.75.75 0 1 0 1.08 1.04L12 3.832l5.71 5.938a.75.75 0 1 0 1.08-1.04zm0 19.54a.75.75 0 0 1-1.08 0l-6.25-6.5a.75.75 0 1 1 1.08-1.04L12 20.168l5.71-5.938a.75.75 0 1 1 1.08 1.04z"/></symbol><symbol id="hd-icon-fluent-circle-12-filled" viewBox="0 0 12 12"><path fill="currentColor" d="M6 1a5 5 0 1 0 0 10A5 5 0 0 0 6 1"/></symbol><symbol id="hd-icon-fluent-circle-12-regular" viewBox="0 0 12 12"><path fill="currentColor" d="M6 2a4 4 0 1 0 0 8a4 4 0 0 0 0-8M1 6a5 5 0 1 1 10 0A5 5 0 0 1 1 6"/></symbol><symbol id="hd-icon-fluent-circle-16-filled" viewBox="0 0 16 16"><path fill="currentColor" d="M8 14A6 6 0 1 0 8 2a6 6 0 0 0 0 12"/></symbol><symbol id="hd-icon-fluent-circle-16-regular" viewBox="0 0 16 16"><path fill="currentColor" d="M8 14A6 6 0 1 0 8 2a6 6 0 0 0 0 12m0-1A5 5 0 1 1 8 3a5 5 0 0 1 0 10"/></symbol><symbol id="hd-icon-fluent-circle-20-filled" viewBox="0 0 20 20"><path fill="currentColor" d="M10 2a8 8 0 1 0 0 16a8 8 0 0 0 0-16"/></symbol><symbol id="hd-icon-fluent-circle-20-regular" viewBox="0 0 20 20"><path fill="currentColor" d="M10 3a7 7 0 1 0 0 14a7 7 0 0 0 0-14m-8 7a8 8 0 1 1 16 0a8 8 0 0 1-16 0"/></symbol><symbol id="hd-icon-fluent-circle-24-filled" viewBox="0 0 24 24"><path fill="currentColor" d="M2 12C2 6.477 6.477 2 12 2s10 4.477 10 10s-4.477 10-10 10S2 17.523 2 12"/></symbol><symbol id="hd-icon-fluent-circle-24-regular" viewBox="0 0 24 24"><path fill="currentColor" d="M12 3.5a8.5 8.5 0 1 0 0 17a8.5 8.5 0 0 0 0-17M2 12C2 6.477 6.477 2 12 2s10 4.477 10 10s-4.477 10-10 10S2 17.523 2 12"/></symbol><symbol id="hd-icon-fluent-circle-28-filled" viewBox="0 0 28 28"><path fill="currentColor" d="M14 2C7.373 2 2 7.373 2 14s5.373 12 12 12s12-5.373 12-12S20.627 2 14 2"/></symbol><symbol id="hd-icon-fluent-circle-28-regular" viewBox="0 0 28 28"><path fill="currentColor" d="M14 3.5C8.201 3.5 3.5 8.201 3.5 14S8.201 24.5 14 24.5S24.5 19.799 24.5 14S19.799 3.5 14 3.5M2 14C2 7.373 7.373 2 14 2s12 5.373 12 12s-5.373 12-12 12S2 20.627 2 14"/></symbol><symbol id="hd-icon-fluent-circle-32-filled" viewBox="0 0 32 32"><path fill="currentColor" d="M16 2C8.268 2 2 8.268 2 16s6.268 14 14 14s14-6.268 14-14S23.732 2 16 2"/></symbol><symbol id="hd-icon-fluent-circle-32-regular" viewBox="0 0 32 32"><path fill="currentColor" d="M16 4C9.373 4 4 9.373 4 16s5.373 12 12 12s12-5.373 12-12S22.627 4 16 4M2 16C2 8.268 8.268 2 16 2s14 6.268 14 14s-6.268 14-14 14S2 23.732 2 16"/></symbol><symbol id="hd-icon-fluent-circle-48-filled" viewBox="0 0 48 48"><path fill="currentColor" d="M44 24c0 11.046-8.954 20-20 20S4 35.046 4 24S12.954 4 24 4s20 8.954 20 20"/></symbol><symbol id="hd-icon-fluent-circle-48-regular" viewBox="0 0 48 48"><path fill="currentColor" d="M24 6.5C14.335 6.5 6.5 14.335 6.5 24S14.335 41.5 24 41.5S41.5 33.665 41.5 24S33.665 6.5 24 6.5M4 24C4 12.954 12.954 4 24 4s20 8.954 20 20s-8.954 20-20 20S4 35.046 4 24"/></symbol><symbol id="hd-icon-fluent-circle-edit-20-filled" viewBox="0 0 20 20"><path fill="currentColor" d="M10 2a8 8 0 0 0-.992 15.94q.013-.142.05-.287l.374-1.498a3.2 3.2 0 0 1 .84-1.485l4.83-4.83a2.87 2.87 0 0 1 2.85-.72A8 8 0 0 0 10 2m.98 13.377l4.83-4.83a1.87 1.87 0 1 1 2.644 2.646l-4.83 4.829a2.2 2.2 0 0 1-1.02.578l-1.498.374a.89.89 0 0 1-1.079-1.078l.375-1.498a2.2 2.2 0 0 1 .578-1.02"/></symbol><symbol id="hd-icon-fluent-circle-edit-20-regular" viewBox="0 0 20 20"><path fill="currentColor" d="M10 3a7 7 0 0 0-.77 13.958l-.173.695q-.035.145-.05.286A8.001 8.001 0 0 1 10 2a8 8 0 0 1 7.952 7.12a2.9 2.9 0 0 0-1.022-.113A7 7 0 0 0 10 3m.98 12.377l4.83-4.83a1.87 1.87 0 1 1 2.644 2.646l-4.83 4.829a2.2 2.2 0 0 1-1.02.578l-1.498.374a.89.89 0 0 1-1.079-1.078l.375-1.498a2.2 2.2 0 0 1 .578-1.02"/></symbol><symbol id="hd-icon-fluent-circle-edit-24-filled" viewBox="0 0 24 24"><g fill="currentColor"><path d="M20.715 11c.427 0 .855.084 1.257.25A10 10 0 0 0 12 2C6.477 2 2 6.477 2 12c0 5.184 3.945 9.447 8.997 9.95a2 2 0 0 1 .064-.543l.458-1.83c.162-.648.497-1.24.97-1.712l5.902-5.903A3.28 3.28 0 0 1 20.713 11z"/><path d="M20.715 12h-.002c-.585 0-1.17.223-1.615.67l-5.902 5.902a2.7 2.7 0 0 0-.707 1.247l-.458 1.831a1.087 1.087 0 0 0 1.319 1.318l1.83-.457a2.7 2.7 0 0 0 1.248-.707l5.902-5.902A2.285 2.285 0 0 0 20.715 12"/></g></symbol><symbol id="hd-icon-fluent-circle-edit-24-regular" viewBox="0 0 24 24"><g fill="currentColor"><path d="M12 3.5a8.5 8.5 0 0 0-.705 16.971l-.234.936a2 2 0 0 0-.064.543C5.945 21.447 2 17.184 2 12C2 6.477 6.477 2 12 2c5.27 0 9.589 4.077 9.972 9.25a3.3 3.3 0 0 0-1.257-.25h-.002q-.135 0-.27.011A8.5 8.5 0 0 0 12 3.5"/><path d="M20.715 12h-.002c-.585 0-1.17.223-1.615.67l-5.902 5.902a2.7 2.7 0 0 0-.707 1.247l-.458 1.831a1.087 1.087 0 0 0 1.319 1.318l1.83-.457a2.7 2.7 0 0 0 1.248-.707l5.902-5.902A2.285 2.285 0 0 0 20.715 12"/></g></symbol><symbol id="hd-icon-fluent-circle-eraser-20-filled" viewBox="0 0 20 20"><path fill="currentColor" d="M8.731 17.174a2.5 2.5 0 0 1 0-3.536l4.9-4.9a2.5 2.5 0 0 1 3.536 0l.8.8a7.995 7.995 0 1 0-8.441 8.44zm7.737-7.734l2.095 2.1a1.5 1.5 0 0 1 0 2.122l-3.6 3.6l-4.216-4.217l3.6-3.6a1.5 1.5 0 0 1 2.122 0zm-2.212 8.523l-4.216-4.217l-.6.6a1.5 1.5 0 0 0 0 2.122l2.1 2.095a1.5 1.5 0 0 0 1.117.438h4.092a.5.5 0 0 0 0-1h-2.531z"/></symbol><symbol id="hd-icon-fluent-circle-eraser-20-regular" viewBox="0 0 20 20"><path fill="currentColor" d="M8.732 17.173a2.5 2.5 0 0 1-.288-.353A7.01 7.01 0 0 1 3 10a7.01 7.01 0 0 1 7-7a7.01 7.01 0 0 1 6.819 5.441q.19.13.354.29l.8.8A8 8 0 0 0 10 2a8.01 8.01 0 0 0-8 8a8 8 0 0 0 7.535 7.976zm.707-.707a1.5 1.5 0 0 1 0-2.122l4.9-4.9a1.5 1.5 0 0 1 2.122 0l2.095 2.095a1.5 1.5 0 0 1 0 2.122L14.216 18h2.531a.5.5 0 0 1 0 1h-4.092a1.5 1.5 0 0 1-1.121-.438zm5.612-6.319l-3.6 3.6l2.8 2.8l3.6-3.6a.5.5 0 0 0 0-.708l-2.095-2.095a.5.5 0 0 0-.705.003m-1.5 7.108l-2.8-2.8l-.6.6a.5.5 0 0 0 0 .708l2.095 2.095a.5.5 0 0 0 .708 0z"/></symbol><symbol id="hd-icon-fluent-circle-half-fill-12-filled" viewBox="0 0 12 12"><path fill="currentColor" d="M1 6a5 5 0 1 1 10 0A5 5 0 0 1 1 6m1.5 0h7a3.5 3.5 0 1 0-7 0"/></symbol><symbol id="hd-icon-fluent-circle-half-fill-12-regular" viewBox="0 0 12 12"><path fill="currentColor" d="M2 6a4 4 0 1 1 8 0zm4-5a5 5 0 1 0 0 10A5 5 0 0 0 6 1"/></symbol><symbol id="hd-icon-fluent-circle-half-fill-16-filled" viewBox="0 0 16 16"><path fill="currentColor" d="M14 8A6 6 0 1 1 2 8a6 6 0 0 1 12 0M3.5 8h9a4.5 4.5 0 1 0-9 0"/></symbol><symbol id="hd-icon-fluent-circle-half-fill-16-regular" viewBox="0 0 16 16"><path fill="currentColor" d="M14 8A6 6 0 1 1 2 8a6 6 0 0 1 12 0M3 8h10A5 5 0 0 0 3 8"/></symbol><symbol id="hd-icon-fluent-circle-half-fill-20-filled" viewBox="0 0 20 20"><path fill="currentColor" d="M3.5 10a6.5 6.5 0 0 1 13 0zM10 2a8 8 0 1 0 0 16a8 8 0 0 0 0-16"/></symbol></svg>