<svg xmlns="http://www.w3.org/2000/svg" xmlns:xlink="http://www.w3.org/1999/xlink"><symbol id="hd-icon-gridicons-user-circle" viewBox="0 0 24 24"><path fill="currentColor" d="M12 2C6.477 2 2 6.477 2 12s4.477 10 10 10s10-4.477 10-10S17.523 2 12 2m0 18.5a8.5 8.5 0 1 1 .001-17.001A8.5 8.5 0 0 1 12 20.5m0-8c-3.038 0-5.5 1.728-5.5 3.5s2.462 3.5 5.5 3.5s5.5-1.728 5.5-3.5s-2.462-3.5-5.5-3.5m0-.5a3 3 0 1 0 0-6a3 3 0 0 0 0 6"/></symbol><symbol id="hd-icon-gridicons-video" viewBox="0 0 24 24"><path fill="currentColor" d="M8.001 4h8v1.997h2V4A2 2 0 0 1 20 6v12a2 2 0 0 1-1.999 2v-2.003h-2V20h-8v-2.003h-2V20H6a2 2 0 0 1-2-2V6a2 2 0 0 1 2-2h.001v1.997h2zM10 15l4.5-3L10 9zm8.001.997v-3h-2v3zm0-5v-3h-2v3zm-10 5v-3h-2v3zm0-5v-3h-2v3z"/></symbol><symbol id="hd-icon-gridicons-video-camera" viewBox="0 0 24 24"><path fill="currentColor" d="M17 9V7a2 2 0 0 0-2-2H4a2 2 0 0 0-2 2v10a2 2 0 0 0 2 2h11a2 2 0 0 0 2-2v-2l5 4V5z"/></symbol><symbol id="hd-icon-gridicons-video-remove" viewBox="0 0 24 24"><path fill="currentColor" d="m19.42 4.59l1.167-1.167l1.414 1.414L20 6.84V18a2 2 0 0 1-2 2v-2h-2v2H6.839l-2.006 2.006l-1.414-1.414L4.59 19.42l-.01-.01L8 16L18 6l1.41-1.42zM15.84 11H18V8.839zM16 8.01l.01-.01H16zM6 15.17l-2 2V6a2 2 0 0 1 2-2v2h2V4h9.17l-9 9H6zM6 8v3h2V8zm12 8v-3h-2v3z"/></symbol><symbol id="hd-icon-gridicons-visible" viewBox="0 0 24 24"><path fill="currentColor" d="M12 6C5.188 6 1 12 1 12s4.188 6 11 6s11-6 11-6s-4.188-6-11-6m0 10c-3.943 0-6.926-2.484-8.379-4c1.04-1.085 2.862-2.657 5.254-3.469A3.96 3.96 0 0 0 8 11a4 4 0 0 0 8 0a3.96 3.96 0 0 0-.875-2.469c2.393.812 4.216 2.385 5.254 3.469c-1.455 1.518-4.437 4-8.379 4"/></symbol><symbol id="hd-icon-gridicons-zoom-in" viewBox="0 0 24 24"><path fill="currentColor" d="M15.8 13.8c.7-1.1 1.2-2.4 1.2-3.8c0-3.9-3.1-7-7-7s-7 3.1-7 7s3.1 7 7 7c1.4 0 2.7-.4 3.8-1.2L19 21l2-2zM10 15c-2.8 0-5-2.2-5-5s2.2-5 5-5s5 2.2 5 5s-2.2 5-5 5"/><path fill="currentColor" d="M11 7H9v2H7v2h2v2h2v-2h2V9h-2z"/></symbol><symbol id="hd-icon-gridicons-zoom-out" viewBox="0 0 24 24"><path fill="currentColor" d="M3 10c0 3.9 3.1 7 7 7c1.4 0 2.7-.5 3.8-1.2L19 21l2-2l-5.2-5.2c.8-1.1 1.2-2.4 1.2-3.8c0-3.9-3.1-7-7-7s-7 3.1-7 7m2 0c0-2.8 2.2-5 5-5s5 2.2 5 5s-2.2 5-5 5s-5-2.2-5-5"/><path fill="currentColor" d="M7 9h6v2H7z"/></symbol></svg>