<svg xmlns="http://www.w3.org/2000/svg" xmlns:xlink="http://www.w3.org/1999/xlink"><symbol id="hd-icon-ph-arrow-elbow-down-left-thin" viewBox="0 0 256 256"><path fill="currentColor" d="M196 32v144a4 4 0 0 1-4 4H57.66l41.17 41.17a4 4 0 0 1-5.66 5.66l-48-48a4 4 0 0 1 0-5.66l48-48a4 4 0 1 1 5.66 5.66L57.66 172H188V32a4 4 0 0 1 8 0"/></symbol><symbol id="hd-icon-ph-arrow-elbow-down-right" viewBox="0 0 256 256"><path fill="currentColor" d="m221.66 181.66l-48 48a8 8 0 0 1-11.32-11.32L196.69 184H72a8 8 0 0 1-8-8V32a8 8 0 0 1 16 0v136h116.69l-34.35-34.34a8 8 0 0 1 11.32-11.32l48 48a8 8 0 0 1 0 11.32"/></symbol><symbol id="hd-icon-ph-arrow-elbow-down-right-bold" viewBox="0 0 256 256"><path fill="currentColor" d="m224.49 184.49l-48 48a12 12 0 0 1-17-17L187 188H72a12 12 0 0 1-12-12V32a12 12 0 0 1 24 0v132h103l-27.52-27.51a12 12 0 1 1 17-17l48 48a12 12 0 0 1 .01 17"/></symbol><symbol id="hd-icon-ph-arrow-elbow-down-right-duotone" viewBox="0 0 256 256"><g fill="currentColor"><path d="m216 176l-48 48v-96Z" opacity=".2"/><path d="m221.66 170.34l-48-48A8 8 0 0 0 160 128v40H80V32a8 8 0 0 0-16 0v144a8 8 0 0 0 8 8h88v40a8 8 0 0 0 13.66 5.66l48-48a8 8 0 0 0 0-11.32M176 204.69v-57.38L204.69 176Z"/></g></symbol><symbol id="hd-icon-ph-arrow-elbow-down-right-fill" viewBox="0 0 256 256"><path fill="currentColor" d="m221.66 181.66l-48 48A8 8 0 0 1 160 224v-40H72a8 8 0 0 1-8-8V32a8 8 0 0 1 16 0v136h80v-40a8 8 0 0 1 13.66-5.66l48 48a8 8 0 0 1 0 11.32"/></symbol><symbol id="hd-icon-ph-arrow-elbow-down-right-light" viewBox="0 0 256 256"><path fill="currentColor" d="m220.24 180.24l-48 48a6 6 0 0 1-8.48-8.48L201.51 182H72a6 6 0 0 1-6-6V32a6 6 0 0 1 12 0v138h123.51l-37.75-37.76a6 6 0 1 1 8.48-8.48l48 48a6 6 0 0 1 0 8.48"/></symbol><symbol id="hd-icon-ph-arrow-elbow-down-right-thin" viewBox="0 0 256 256"><path fill="currentColor" d="m218.83 178.83l-48 48a4 4 0 0 1-5.66-5.66L206.34 180H72a4 4 0 0 1-4-4V32a4 4 0 0 1 8 0v140h130.34l-41.17-41.17a4 4 0 1 1 5.66-5.66l48 48a4 4 0 0 1 0 5.66"/></symbol><symbol id="hd-icon-ph-arrow-elbow-left" viewBox="0 0 256 256"><path fill="currentColor" d="m237.66 101.66l-96 96a8 8 0 0 1-11.32 0L32 99.31V152a8 8 0 0 1-16 0V80a8 8 0 0 1 8-8h72a8 8 0 0 1 0 16H43.31L136 180.69l90.34-90.35a8 8 0 0 1 11.32 11.32"/></symbol><symbol id="hd-icon-ph-arrow-elbow-left-bold" viewBox="0 0 256 256"><path fill="currentColor" d="m240.49 104.49l-96 96a12 12 0 0 1-17 0L36 109v43a12 12 0 0 1-24 0V80a12 12 0 0 1 12-12h72a12 12 0 0 1 0 24H53l83 83l87.51-87.52a12 12 0 0 1 17 17Z"/></symbol><symbol id="hd-icon-ph-arrow-elbow-left-down" viewBox="0 0 256 256"><path fill="currentColor" d="M240 72a8 8 0 0 1-8 8H96v116.69l34.34-34.35a8 8 0 0 1 11.32 11.32l-48 48a8 8 0 0 1-11.32 0l-48-48a8 8 0 0 1 11.32-11.32L80 196.69V72a8 8 0 0 1 8-8h144a8 8 0 0 1 8 8"/></symbol><symbol id="hd-icon-ph-arrow-elbow-left-down-bold" viewBox="0 0 256 256"><path fill="currentColor" d="M244 72a12 12 0 0 1-12 12H100v103l27.51-27.52a12 12 0 0 1 17 17l-48 48a12 12 0 0 1-17 0l-48-48a12 12 0 1 1 17-17L76 187V72a12 12 0 0 1 12-12h144a12 12 0 0 1 12 12"/></symbol><symbol id="hd-icon-ph-arrow-elbow-left-down-duotone" viewBox="0 0 256 256"><g fill="currentColor"><path d="m136 168l-48 48l-48-48Z" opacity=".2"/><path d="M232 64H88a8 8 0 0 0-8 8v88H40a8 8 0 0 0-5.66 13.66l48 48a8 8 0 0 0 11.32 0l48-48A8 8 0 0 0 136 160H96V80h136a8 8 0 0 0 0-16M88 204.69L59.31 176h57.38Z"/></g></symbol><symbol id="hd-icon-ph-arrow-elbow-left-down-fill" viewBox="0 0 256 256"><path fill="currentColor" d="M240 72a8 8 0 0 1-8 8H96v80h40a8 8 0 0 1 5.66 13.66l-48 48a8 8 0 0 1-11.32 0l-48-48A8 8 0 0 1 40 160h40V72a8 8 0 0 1 8-8h144a8 8 0 0 1 8 8"/></symbol><symbol id="hd-icon-ph-arrow-elbow-left-down-light" viewBox="0 0 256 256"><path fill="currentColor" d="M238 72a6 6 0 0 1-6 6H94v123.51l37.76-37.75a6 6 0 0 1 8.48 8.48l-48 48a6 6 0 0 1-8.48 0l-48-48a6 6 0 0 1 8.48-8.48L82 201.51V72a6 6 0 0 1 6-6h144a6 6 0 0 1 6 6"/></symbol><symbol id="hd-icon-ph-arrow-elbow-left-down-thin" viewBox="0 0 256 256"><path fill="currentColor" d="M236 72a4 4 0 0 1-4 4H92v130.34l41.17-41.17a4 4 0 0 1 5.66 5.66l-48 48a4 4 0 0 1-5.66 0l-48-48a4 4 0 0 1 5.66-5.66L84 206.34V72a4 4 0 0 1 4-4h144a4 4 0 0 1 4 4"/></symbol><symbol id="hd-icon-ph-arrow-elbow-left-duotone" viewBox="0 0 256 256"><g fill="currentColor"><path d="m96 80l-72 72V80Z" opacity=".2"/><path d="M237.66 90.34a8 8 0 0 0-11.32 0L136 180.69L71.31 116l30.35-30.34A8 8 0 0 0 96 72H24a8 8 0 0 0-8 8v72a8 8 0 0 0 13.66 5.66L60 127.31l70.34 70.35a8 8 0 0 0 11.32 0l96-96a8 8 0 0 0 0-11.32M32 132.69V88h44.69Z"/></g></symbol><symbol id="hd-icon-ph-arrow-elbow-left-fill" viewBox="0 0 256 256"><path fill="currentColor" d="m237.66 101.66l-96 96a8 8 0 0 1-11.32 0L60 127.31l-30.34 30.35A8 8 0 0 1 16 152V80a8 8 0 0 1 8-8h72a8 8 0 0 1 5.66 13.66L71.31 116L136 180.69l90.34-90.35a8 8 0 0 1 11.32 11.32"/></symbol><symbol id="hd-icon-ph-arrow-elbow-left-light" viewBox="0 0 256 256"><path fill="currentColor" d="m236.24 100.24l-96 96a6 6 0 0 1-8.48 0L30 94.48V152a6 6 0 0 1-12 0V80a6 6 0 0 1 6-6h72a6 6 0 0 1 0 12H38.48L136 183.51l91.76-91.75a6 6 0 0 1 8.48 8.48"/></symbol><symbol id="hd-icon-ph-arrow-elbow-left-thin" viewBox="0 0 256 256"><path fill="currentColor" d="m234.83 98.83l-96 96a4 4 0 0 1-5.66 0L28 89.66V152a4 4 0 0 1-8 0V80a4 4 0 0 1 4-4h72a4 4 0 0 1 0 8H33.66L136 186.34l93.17-93.17a4 4 0 1 1 5.66 5.66"/></symbol><symbol id="hd-icon-ph-arrow-elbow-left-up" viewBox="0 0 256 256"><path fill="currentColor" d="M240 192a8 8 0 0 1-8 8H88a8 8 0 0 1-8-8V67.31l-34.34 34.35a8 8 0 0 1-11.32-11.32l48-48a8 8 0 0 1 11.32 0l48 48a8 8 0 0 1-11.32 11.32L96 67.31V184h136a8 8 0 0 1 8 8"/></symbol><symbol id="hd-icon-ph-arrow-elbow-left-up-bold" viewBox="0 0 256 256"><path fill="currentColor" d="M244 192a12 12 0 0 1-12 12H88a12 12 0 0 1-12-12V77l-27.51 27.49a12 12 0 0 1-17-17l48-48a12 12 0 0 1 17 0l48 48a12 12 0 0 1-17 17L100 77v103h132a12 12 0 0 1 12 12"/></symbol><symbol id="hd-icon-ph-arrow-elbow-left-up-duotone" viewBox="0 0 256 256"><g fill="currentColor"><path d="M136 96H40l48-48Z" opacity=".2"/><path d="M232 184H96v-80h40a8 8 0 0 0 5.66-13.66l-48-48a8 8 0 0 0-11.32 0l-48 48A8 8 0 0 0 40 104h40v88a8 8 0 0 0 8 8h144a8 8 0 0 0 0-16M88 59.31L116.69 88H59.31Z"/></g></symbol><symbol id="hd-icon-ph-arrow-elbow-left-up-fill" viewBox="0 0 256 256"><path fill="currentColor" d="M240 192a8 8 0 0 1-8 8H88a8 8 0 0 1-8-8v-88H40a8 8 0 0 1-5.66-13.66l48-48a8 8 0 0 1 11.32 0l48 48A8 8 0 0 1 136 104H96v80h136a8 8 0 0 1 8 8"/></symbol><symbol id="hd-icon-ph-arrow-elbow-left-up-light" viewBox="0 0 256 256"><path fill="currentColor" d="M238 192a6 6 0 0 1-6 6H88a6 6 0 0 1-6-6V62.49l-37.76 37.75a6 6 0 0 1-8.48-8.48l48-48a6 6 0 0 1 8.48 0l48 48a6 6 0 1 1-8.48 8.48L94 62.49V186h138a6 6 0 0 1 6 6"/></symbol><symbol id="hd-icon-ph-arrow-elbow-left-up-thin" viewBox="0 0 256 256"><path fill="currentColor" d="M236 192a4 4 0 0 1-4 4H88a4 4 0 0 1-4-4V57.66L42.83 98.83a4 4 0 0 1-5.66-5.66l48-48a4 4 0 0 1 5.66 0l48 48a4 4 0 0 1-5.66 5.66L92 57.66V188h140a4 4 0 0 1 4 4"/></symbol><symbol id="hd-icon-ph-arrow-elbow-right" viewBox="0 0 256 256"><path fill="currentColor" d="M240 80v72a8 8 0 0 1-16 0V99.31l-98.34 98.35a8 8 0 0 1-11.32 0l-96-96a8 8 0 0 1 11.32-11.32L120 180.69L212.69 88H160a8 8 0 0 1 0-16h72a8 8 0 0 1 8 8"/></symbol><symbol id="hd-icon-ph-arrow-elbow-right-bold" viewBox="0 0 256 256"><path fill="currentColor" d="M244 80v72a12 12 0 0 1-24 0v-43l-91.51 91.52a12 12 0 0 1-17 0l-96-96a12 12 0 0 1 17-17L120 175l83-83h-43a12 12 0 0 1 0-24h72a12 12 0 0 1 12 12"/></symbol><symbol id="hd-icon-ph-arrow-elbow-right-down" viewBox="0 0 256 256"><path fill="currentColor" d="m229.66 165.66l-48 48a8 8 0 0 1-11.32 0l-48-48a8 8 0 0 1 11.32-11.32L168 188.69V72H32a8 8 0 0 1 0-16h144a8 8 0 0 1 8 8v124.69l34.34-34.35a8 8 0 0 1 11.32 11.32"/></symbol><symbol id="hd-icon-ph-arrow-elbow-right-down-bold" viewBox="0 0 256 256"><path fill="currentColor" d="m232.49 168.49l-48 48a12 12 0 0 1-17 0l-48-48a12 12 0 1 1 17-17L164 179V76H32a12 12 0 0 1 0-24h144a12 12 0 0 1 12 12v115l27.51-27.52a12 12 0 0 1 17 17Z"/></symbol><symbol id="hd-icon-ph-arrow-elbow-right-down-duotone" viewBox="0 0 256 256"><g fill="currentColor"><path d="m224 160l-48 48l-48-48Z" opacity=".2"/><path d="M231.39 156.94A8 8 0 0 0 224 152h-40V64a8 8 0 0 0-8-8H32a8 8 0 0 0 0 16h136v80h-40a8 8 0 0 0-5.66 13.66l48 48a8 8 0 0 0 11.32 0l48-48a8 8 0 0 0 1.73-8.72M176 196.69L147.31 168h57.38Z"/></g></symbol><symbol id="hd-icon-ph-arrow-elbow-right-down-fill" viewBox="0 0 256 256"><path fill="currentColor" d="m229.66 165.66l-48 48a8 8 0 0 1-11.32 0l-48-48A8 8 0 0 1 128 152h40V72H32a8 8 0 0 1 0-16h144a8 8 0 0 1 8 8v88h40a8 8 0 0 1 5.66 13.66"/></symbol><symbol id="hd-icon-ph-arrow-elbow-right-down-light" viewBox="0 0 256 256"><path fill="currentColor" d="m228.24 164.24l-48 48a6 6 0 0 1-8.48 0l-48-48a6 6 0 1 1 8.48-8.48L170 193.51V70H32a6 6 0 0 1 0-12h144a6 6 0 0 1 6 6v129.51l37.76-37.75a6 6 0 0 1 8.48 8.48"/></symbol><symbol id="hd-icon-ph-arrow-elbow-right-down-thin" viewBox="0 0 256 256"><path fill="currentColor" d="m226.83 162.83l-48 48a4 4 0 0 1-5.66 0l-48-48a4 4 0 1 1 5.66-5.66L172 198.34V68H32a4 4 0 0 1 0-8h144a4 4 0 0 1 4 4v134.34l41.17-41.17a4 4 0 0 1 5.66 5.66"/></symbol><symbol id="hd-icon-ph-arrow-elbow-right-duotone" viewBox="0 0 256 256"><g fill="currentColor"><path d="M232 80v72l-72-72Z" opacity=".2"/><path d="M232 72h-72a8 8 0 0 0-5.66 13.66L184.69 116L120 180.69L29.66 90.34a8 8 0 0 0-11.32 11.32l96 96a8 8 0 0 0 11.32 0L196 127.31l30.34 30.35A8 8 0 0 0 240 152V80a8 8 0 0 0-8-8m-8 60.69L179.31 88H224Z"/></g></symbol><symbol id="hd-icon-ph-arrow-elbow-right-fill" viewBox="0 0 256 256"><path fill="currentColor" d="M240 80v72a8 8 0 0 1-13.66 5.66L196 127.31l-70.34 70.35a8 8 0 0 1-11.32 0l-96-96a8 8 0 0 1 11.32-11.32L120 180.69L184.69 116l-30.35-30.34A8 8 0 0 1 160 72h72a8 8 0 0 1 8 8"/></symbol><symbol id="hd-icon-ph-arrow-elbow-right-light" viewBox="0 0 256 256"><path fill="currentColor" d="M238 80v72a6 6 0 0 1-12 0V94.48L124.24 196.24a6 6 0 0 1-8.48 0l-96-96a6 6 0 0 1 8.48-8.48L120 183.51L217.52 86H160a6 6 0 0 1 0-12h72a6 6 0 0 1 6 6"/></symbol><symbol id="hd-icon-ph-arrow-elbow-right-thin" viewBox="0 0 256 256"><path fill="currentColor" d="M236 80v72a4 4 0 0 1-8 0V89.66L122.83 194.83a4 4 0 0 1-5.66 0l-96-96a4 4 0 0 1 5.66-5.66L120 186.34L222.34 84H160a4 4 0 0 1 0-8h72a4 4 0 0 1 4 4"/></symbol><symbol id="hd-icon-ph-arrow-elbow-right-up" viewBox="0 0 256 256"><path fill="currentColor" d="M221.66 101.66a8 8 0 0 1-11.32 0L176 67.31V192a8 8 0 0 1-8 8H24a8 8 0 0 1 0-16h136V67.31l-34.34 34.35a8 8 0 0 1-11.32-11.32l48-48a8 8 0 0 1 11.32 0l48 48a8 8 0 0 1 0 11.32"/></symbol><symbol id="hd-icon-ph-arrow-elbow-right-up-bold" viewBox="0 0 256 256"><path fill="currentColor" d="M224.49 104.49a12 12 0 0 1-17 0L180 77v115a12 12 0 0 1-12 12H24a12 12 0 0 1 0-24h132V77l-27.51 27.52a12 12 0 1 1-17-17l48-48a12 12 0 0 1 17 0l48 48a12 12 0 0 1 0 16.97"/></symbol><symbol id="hd-icon-ph-arrow-elbow-right-up-duotone" viewBox="0 0 256 256"><g fill="currentColor"><path d="M216 96h-96l48-48Z" opacity=".2"/><path d="m221.66 90.34l-48-48a8 8 0 0 0-11.32 0l-48 48A8 8 0 0 0 120 104h40v80H24a8 8 0 0 0 0 16h144a8 8 0 0 0 8-8v-88h40a8 8 0 0 0 5.66-13.66M139.31 88L168 59.31L196.69 88Z"/></g></symbol><symbol id="hd-icon-ph-arrow-elbow-right-up-fill" viewBox="0 0 256 256"><path fill="currentColor" d="M223.39 99.06A8 8 0 0 1 216 104h-40v88a8 8 0 0 1-8 8H24a8 8 0 0 1 0-16h136v-80h-40a8 8 0 0 1-5.66-13.66l48-48a8 8 0 0 1 11.32 0l48 48a8 8 0 0 1 1.73 8.72"/></symbol><symbol id="hd-icon-ph-arrow-elbow-right-up-light" viewBox="0 0 256 256"><path fill="currentColor" d="M220.24 100.24a6 6 0 0 1-8.48 0L174 62.49V192a6 6 0 0 1-6 6H24a6 6 0 0 1 0-12h138V62.49l-37.76 37.75a6 6 0 0 1-8.48-8.48l48-48a6 6 0 0 1 8.48 0l48 48a6 6 0 0 1 0 8.48"/></symbol><symbol id="hd-icon-ph-arrow-elbow-right-up-thin" viewBox="0 0 256 256"><path fill="currentColor" d="M218.83 98.83a4 4 0 0 1-5.66 0L172 57.66V192a4 4 0 0 1-4 4H24a4 4 0 0 1 0-8h140V57.66l-41.17 41.17a4 4 0 0 1-5.66-5.66l48-48a4 4 0 0 1 5.66 0l48 48a4 4 0 0 1 0 5.66"/></symbol><symbol id="hd-icon-ph-arrow-elbow-up-left" viewBox="0 0 256 256"><path fill="currentColor" d="M200 80v144a8 8 0 0 1-16 0V88H67.31l34.35 34.34a8 8 0 0 1-11.32 11.32l-48-48l-.06-.07c-.16-.16-.32-.34-.47-.52l-.23-.31a4 4 0 0 1-.23-.32l-.23-.37a3 3 0 0 1-.17-.3c-.07-.12-.13-.25-.19-.38s-.1-.21-.15-.33s-.09-.25-.14-.37l-.13-.36l-.09-.39c0-.13-.07-.25-.1-.37s0-.31-.06-.46s0-.21-.05-.32a8.3 8.3 0 0 1 0-1.58c0-.11 0-.21.05-.32s0-.31.06-.46s.06-.24.1-.37l.09-.39l.13-.36c.05-.12.09-.25.14-.37s.1-.22.15-.33s.12-.26.19-.38a3 3 0 0 1 .17-.3l.23-.37a4 4 0 0 1 .23-.32l.23-.31c.15-.18.31-.36.47-.52l.06-.07l48-48a8 8 0 0 1 11.32 11.32L67.31 72H192a8 8 0 0 1 8 8"/></symbol><symbol id="hd-icon-ph-arrow-elbow-up-left-bold" viewBox="0 0 256 256"><path fill="currentColor" d="M204 80v144a12 12 0 0 1-24 0V92H77l27.52 27.51a12 12 0 0 1-17 17l-48-48a12 12 0 0 1 0-17l48-48a12 12 0 1 1 17 17L77 68h115a12 12 0 0 1 12 12"/></symbol><symbol id="hd-icon-ph-arrow-elbow-up-left-duotone" viewBox="0 0 256 256"><g fill="currentColor"><path d="M96 32v96L48 80Z" opacity=".2"/><path d="M192 72h-88V32a8 8 0 0 0-13.66-5.66l-48 48a8 8 0 0 0 0 11.32l48 48A8 8 0 0 0 104 128V88h80v136a8 8 0 0 0 16 0V80a8 8 0 0 0-8-8M88 108.69L59.31 80L88 51.31Z"/></g></symbol><symbol id="hd-icon-ph-arrow-elbow-up-left-fill" viewBox="0 0 256 256"><path fill="currentColor" d="M200 80v144a8 8 0 0 1-16 0V88h-80v40a8 8 0 0 1-13.66 5.66l-48-48a8 8 0 0 1 0-11.32l48-48A8 8 0 0 1 104 32v40h88a8 8 0 0 1 8 8"/></symbol><symbol id="hd-icon-ph-arrow-elbow-up-left-light" viewBox="0 0 256 256"><path fill="currentColor" d="M198 80v144a6 6 0 0 1-12 0V86H62.49l37.75 37.76a6 6 0 1 1-8.48 8.48l-48-48a6 6 0 0 1 0-8.48l48-48a6 6 0 1 1 8.48 8.48L62.49 74H192a6 6 0 0 1 6 6"/></symbol><symbol id="hd-icon-ph-arrow-elbow-up-left-thin" viewBox="0 0 256 256"><path fill="currentColor" d="M196 80v144a4 4 0 0 1-8 0V84H57.66l41.17 41.17a4 4 0 0 1-5.66 5.66l-48-48a4 4 0 0 1 0-5.66l48-48a4 4 0 0 1 5.66 5.66L57.66 76H192a4 4 0 0 1 4 4"/></symbol><symbol id="hd-icon-ph-arrow-elbow-up-right" viewBox="0 0 256 256"><path fill="currentColor" d="m221.66 85.66l-48 48a8 8 0 0 1-11.32-11.32L196.69 88H80v136a8 8 0 0 1-16 0V80a8 8 0 0 1 8-8h124.69l-34.35-34.34a8 8 0 0 1 11.32-11.32l48 48a8 8 0 0 1 0 11.32"/></symbol><symbol id="hd-icon-ph-arrow-elbow-up-right-bold" viewBox="0 0 256 256"><path fill="currentColor" d="m224.49 88.49l-48 48a12 12 0 0 1-17-17L187 92H84v132a12 12 0 0 1-24 0V80a12 12 0 0 1 12-12h115l-27.49-27.51a12 12 0 1 1 17-17l48 48a12 12 0 0 1-.02 17"/></symbol><symbol id="hd-icon-ph-arrow-elbow-up-right-duotone" viewBox="0 0 256 256"><g fill="currentColor"><path d="m216 80l-48 48V32Z" opacity=".2"/><path d="m221.66 74.34l-48-48A8 8 0 0 0 160 32v40H72a8 8 0 0 0-8 8v144a8 8 0 0 0 16 0V88h80v40a8 8 0 0 0 13.66 5.66l48-48a8 8 0 0 0 0-11.32M176 108.69V51.31L204.69 80Z"/></g></symbol><symbol id="hd-icon-ph-arrow-elbow-up-right-fill" viewBox="0 0 256 256"><path fill="currentColor" d="m221.66 85.66l-48 48A8 8 0 0 1 160 128V88H80v136a8 8 0 0 1-16 0V80a8 8 0 0 1 8-8h88V32a8 8 0 0 1 13.66-5.66l48 48a8 8 0 0 1 0 11.32"/></symbol><symbol id="hd-icon-ph-arrow-elbow-up-right-light" viewBox="0 0 256 256"><path fill="currentColor" d="m220.24 84.24l-48 48a6 6 0 0 1-8.48-8.48L201.51 86H78v138a6 6 0 0 1-12 0V80a6 6 0 0 1 6-6h129.51l-37.75-37.76a6 6 0 0 1 8.48-8.48l48 48a6 6 0 0 1 0 8.48"/></symbol><symbol id="hd-icon-ph-arrow-elbow-up-right-thin" viewBox="0 0 256 256"><path fill="currentColor" d="m218.83 82.83l-48 48a4 4 0 0 1-5.66-5.66L206.34 84H76v140a4 4 0 0 1-8 0V80a4 4 0 0 1 4-4h134.34l-41.17-41.17a4 4 0 0 1 5.66-5.66l48 48a4 4 0 0 1 0 5.66"/></symbol><symbol id="hd-icon-ph-arrow-fat-down" viewBox="0 0 256 256"><path fill="currentColor" d="M231.39 132.94A8 8 0 0 0 224 128h-40V48a16 16 0 0 0-16-16H88a16 16 0 0 0-16 16v80H32a8 8 0 0 0-5.66 13.66l96 96a8 8 0 0 0 11.32 0l96-96a8 8 0 0 0 1.73-8.72M128 220.69L51.31 144H80a8 8 0 0 0 8-8V48h80v88a8 8 0 0 0 8 8h28.69Z"/></symbol><symbol id="hd-icon-ph-arrow-fat-down-bold" viewBox="0 0 256 256"><path fill="currentColor" d="M235.09 131.41A12 12 0 0 0 224 124h-36V48a20 20 0 0 0-20-20H88a20 20 0 0 0-20 20v76H32a12 12 0 0 0-8.48 20.49l96 96a12 12 0 0 0 17 0l96-96a12 12 0 0 0 2.57-13.08M128 215l-67-67h19a12 12 0 0 0 12-12V52h72v84a12 12 0 0 0 12 12h19Z"/></symbol><symbol id="hd-icon-ph-arrow-fat-down-duotone" viewBox="0 0 256 256"><g fill="currentColor"><path d="m224 136l-96 96l-96-96h48V48a8 8 0 0 1 8-8h80a8 8 0 0 1 8 8v88Z" opacity=".2"/><path d="M231.39 132.94A8 8 0 0 0 224 128h-40V48a16 16 0 0 0-16-16H88a16 16 0 0 0-16 16v80H32a8 8 0 0 0-5.66 13.66l96 96a8 8 0 0 0 11.32 0l96-96a8 8 0 0 0 1.73-8.72M128 220.69L51.31 144H80a8 8 0 0 0 8-8V48h80v88a8 8 0 0 0 8 8h28.69Z"/></g></symbol><symbol id="hd-icon-ph-arrow-fat-down-fill" viewBox="0 0 256 256"><path fill="currentColor" d="m229.66 141.66l-96 96a8 8 0 0 1-11.32 0l-96-96A8 8 0 0 1 32 128h40V48a16 16 0 0 1 16-16h80a16 16 0 0 1 16 16v80h40a8 8 0 0 1 5.66 13.66"/></symbol><symbol id="hd-icon-ph-arrow-fat-down-light" viewBox="0 0 256 256"><path fill="currentColor" d="M229.54 133.7A6 6 0 0 0 224 130h-42V48a14 14 0 0 0-14-14H88a14 14 0 0 0-14 14v82H32a6 6 0 0 0-4.24 10.24l96 96a6 6 0 0 0 8.48 0l96-96a6 6 0 0 0 1.3-6.54M128 223.51L46.49 142H80a6 6 0 0 0 6-6V48a2 2 0 0 1 2-2h80a2 2 0 0 1 2 2v88a6 6 0 0 0 6 6h33.51Z"/></symbol><symbol id="hd-icon-ph-arrow-fat-down-thin" viewBox="0 0 256 256"><path fill="currentColor" d="M227.7 134.47A4 4 0 0 0 224 132h-44V48a12 12 0 0 0-12-12H88a12 12 0 0 0-12 12v84H32a4 4 0 0 0-2.83 6.83l96 96a4 4 0 0 0 5.66 0l96-96a4 4 0 0 0 .87-4.36M128 226.34L41.66 140H80a4 4 0 0 0 4-4V48a4 4 0 0 1 4-4h80a4 4 0 0 1 4 4v88a4 4 0 0 0 4 4h38.34Z"/></symbol><symbol id="hd-icon-ph-arrow-fat-left" viewBox="0 0 256 256"><path fill="currentColor" d="M208 72h-80V32a8 8 0 0 0-13.66-5.66l-96 96a8 8 0 0 0 0 11.32l96 96A8 8 0 0 0 128 224v-40h80a16 16 0 0 0 16-16V88a16 16 0 0 0-16-16m0 96h-88a8 8 0 0 0-8 8v28.69L35.31 128L112 51.31V80a8 8 0 0 0 8 8h88Z"/></symbol><symbol id="hd-icon-ph-arrow-fat-left-bold" viewBox="0 0 256 256"><path fill="currentColor" d="M208 68h-76V32a12 12 0 0 0-20.49-8.48l-96 96a12 12 0 0 0 0 17l96 96A12 12 0 0 0 132 224v-36h76a20 20 0 0 0 20-20V88a20 20 0 0 0-20-20m-4 96h-84a12 12 0 0 0-12 12v19l-67-67l67-67v19a12 12 0 0 0 12 12h84Z"/></symbol><symbol id="hd-icon-ph-arrow-fat-left-duotone" viewBox="0 0 256 256"><g fill="currentColor"><path d="M216 88v80a8 8 0 0 1-8 8h-88v48l-96-96l96-96v48h88a8 8 0 0 1 8 8" opacity=".2"/><path d="M208 72h-80V32a8 8 0 0 0-13.66-5.66l-96 96a8 8 0 0 0 0 11.32l96 96A8 8 0 0 0 128 224v-40h80a16 16 0 0 0 16-16V88a16 16 0 0 0-16-16m0 96h-88a8 8 0 0 0-8 8v28.69L35.31 128L112 51.31V80a8 8 0 0 0 8 8h88Z"/></g></symbol><symbol id="hd-icon-ph-arrow-fat-left-fill" viewBox="0 0 256 256"><path fill="currentColor" d="M224 88v80a16 16 0 0 1-16 16h-80v40a8 8 0 0 1-13.66 5.66l-96-96a8 8 0 0 1 0-11.32l96-96A8 8 0 0 1 128 32v40h80a16 16 0 0 1 16 16"/></symbol><symbol id="hd-icon-ph-arrow-fat-left-light" viewBox="0 0 256 256"><path fill="currentColor" d="M208 74h-82V32a6 6 0 0 0-10.24-4.24l-96 96a6 6 0 0 0 0 8.48l96 96A6 6 0 0 0 126 224v-42h82a14 14 0 0 0 14-14V88a14 14 0 0 0-14-14m2 94a2 2 0 0 1-2 2h-88a6 6 0 0 0-6 6v33.51L32.49 128L114 46.49V80a6 6 0 0 0 6 6h88a2 2 0 0 1 2 2Z"/></symbol><symbol id="hd-icon-ph-arrow-fat-left-thin" viewBox="0 0 256 256"><path fill="currentColor" d="M208 76h-84V32a4 4 0 0 0-6.83-2.83l-96 96a4 4 0 0 0 0 5.66l96 96A4 4 0 0 0 124 224v-44h84a12 12 0 0 0 12-12V88a12 12 0 0 0-12-12m4 92a4 4 0 0 1-4 4h-88a4 4 0 0 0-4 4v38.34L29.66 128L116 41.66V80a4 4 0 0 0 4 4h88a4 4 0 0 1 4 4Z"/></symbol><symbol id="hd-icon-ph-arrow-fat-line-down" viewBox="0 0 256 256"><path fill="currentColor" d="M231.39 132.94A8 8 0 0 0 224 128h-40V72a8 8 0 0 0-8-8H80a8 8 0 0 0-8 8v56H32a8 8 0 0 0-5.66 13.66l96 96a8 8 0 0 0 11.32 0l96-96a8 8 0 0 0 1.73-8.72M128 220.69L51.31 144H80a8 8 0 0 0 8-8V80h80v56a8 8 0 0 0 8 8h28.69ZM72 40a8 8 0 0 1 8-8h96a8 8 0 0 1 0 16H80a8 8 0 0 1-8-8"/></symbol><symbol id="hd-icon-ph-arrow-fat-line-down-bold" viewBox="0 0 256 256"><path fill="currentColor" d="M235.09 131.41A12 12 0 0 0 224 124h-36V80a12 12 0 0 0-12-12H80a12 12 0 0 0-12 12v44H32a12 12 0 0 0-8.48 20.49l96 96a12 12 0 0 0 17 0l96-96a12 12 0 0 0 2.57-13.08M128 215l-67-67h19a12 12 0 0 0 12-12V92h72v44a12 12 0 0 0 12 12h19ZM68 40a12 12 0 0 1 12-12h96a12 12 0 0 1 0 24H80a12 12 0 0 1-12-12"/></symbol><symbol id="hd-icon-ph-arrow-fat-line-down-duotone" viewBox="0 0 256 256"><g fill="currentColor"><path d="m224 136l-96 96l-96-96h48V72h96v64Z" opacity=".2"/><path d="M231.39 132.94A8 8 0 0 0 224 128h-40V72a8 8 0 0 0-8-8H80a8 8 0 0 0-8 8v56H32a8 8 0 0 0-5.66 13.66l96 96a8 8 0 0 0 11.32 0l96-96a8 8 0 0 0 1.73-8.72M128 220.69L51.31 144H80a8 8 0 0 0 8-8V80h80v56a8 8 0 0 0 8 8h28.69ZM72 40a8 8 0 0 1 8-8h96a8 8 0 0 1 0 16H80a8 8 0 0 1-8-8"/></g></symbol><symbol id="hd-icon-ph-arrow-fat-line-down-fill" viewBox="0 0 256 256"><path fill="currentColor" d="M72 40a8 8 0 0 1 8-8h96a8 8 0 0 1 0 16H80a8 8 0 0 1-8-8m159.39 92.94A8 8 0 0 0 224 128h-40V72a8 8 0 0 0-8-8H80a8 8 0 0 0-8 8v56H32a8 8 0 0 0-5.66 13.66l96 96a8 8 0 0 0 11.32 0l96-96a8 8 0 0 0 1.73-8.72"/></symbol><symbol id="hd-icon-ph-arrow-fat-line-down-light" viewBox="0 0 256 256"><path fill="currentColor" d="M229.54 133.7A6 6 0 0 0 224 130h-42V72a6 6 0 0 0-6-6H80a6 6 0 0 0-6 6v58H32a6 6 0 0 0-4.24 10.24l96 96a6 6 0 0 0 8.48 0l96-96a6 6 0 0 0 1.3-6.54M128 223.51L46.49 142H80a6 6 0 0 0 6-6V78h84v58a6 6 0 0 0 6 6h33.51ZM74 40a6 6 0 0 1 6-6h96a6 6 0 0 1 0 12H80a6 6 0 0 1-6-6"/></symbol><symbol id="hd-icon-ph-arrow-fat-line-down-thin" viewBox="0 0 256 256"><path fill="currentColor" d="M227.7 134.47A4 4 0 0 0 224 132h-44V72a4 4 0 0 0-4-4H80a4 4 0 0 0-4 4v60H32a4 4 0 0 0-2.83 6.83l96 96a4 4 0 0 0 5.66 0l96-96a4 4 0 0 0 .87-4.36M128 226.34L41.66 140H80a4 4 0 0 0 4-4V76h88v60a4 4 0 0 0 4 4h38.34ZM76 40a4 4 0 0 1 4-4h96a4 4 0 0 1 0 8H80a4 4 0 0 1-4-4"/></symbol><symbol id="hd-icon-ph-arrow-fat-line-left" viewBox="0 0 256 256"><path fill="currentColor" d="M184 72h-56V32a8 8 0 0 0-13.66-5.66l-96 96a8 8 0 0 0 0 11.32l96 96A8 8 0 0 0 128 224v-40h56a8 8 0 0 0 8-8V80a8 8 0 0 0-8-8m-8 96h-56a8 8 0 0 0-8 8v28.69L35.31 128L112 51.31V80a8 8 0 0 0 8 8h56Zm48-88v96a8 8 0 0 1-16 0V80a8 8 0 0 1 16 0"/></symbol><symbol id="hd-icon-ph-arrow-fat-line-left-bold" viewBox="0 0 256 256"><path fill="currentColor" d="M176 68h-44V32a12 12 0 0 0-20.49-8.49l-96 96a12 12 0 0 0 0 17l96 96A12 12 0 0 0 132 224v-36h44a12 12 0 0 0 12-12V80a12 12 0 0 0-12-12m-12 96h-44a12 12 0 0 0-12 12v19l-67-67l67-67v19a12 12 0 0 0 12 12h44Zm64-84v96a12 12 0 0 1-24 0V80a12 12 0 0 1 24 0"/></symbol><symbol id="hd-icon-ph-arrow-fat-line-left-duotone" viewBox="0 0 256 256"><g fill="currentColor"><path d="M184 80v96h-64v48l-96-96l96-96v48Z" opacity=".2"/><path d="M184 72h-56V32a8 8 0 0 0-13.66-5.66l-96 96a8 8 0 0 0 0 11.32l96 96A8 8 0 0 0 128 224v-40h56a8 8 0 0 0 8-8V80a8 8 0 0 0-8-8m-8 96h-56a8 8 0 0 0-8 8v28.69L35.31 128L112 51.31V80a8 8 0 0 0 8 8h56Zm48-88v96a8 8 0 0 1-16 0V80a8 8 0 0 1 16 0"/></g></symbol><symbol id="hd-icon-ph-arrow-fat-line-left-fill" viewBox="0 0 256 256"><path fill="currentColor" d="M192 80v96a8 8 0 0 1-8 8h-56v40a8 8 0 0 1-13.66 5.66l-96-96a8 8 0 0 1 0-11.32l96-96A8 8 0 0 1 128 32v40h56a8 8 0 0 1 8 8m24-8a8 8 0 0 0-8 8v96a8 8 0 0 0 16 0V80a8 8 0 0 0-8-8"/></symbol><symbol id="hd-icon-ph-arrow-fat-line-left-light" viewBox="0 0 256 256"><path fill="currentColor" d="M184 74h-58V32a6 6 0 0 0-10.24-4.24l-96 96a6 6 0 0 0 0 8.48l96 96A6 6 0 0 0 126 224v-42h58a6 6 0 0 0 6-6V80a6 6 0 0 0-6-6m-6 96h-58a6 6 0 0 0-6 6v33.51L32.49 128L114 46.49V80a6 6 0 0 0 6 6h58Zm44-90v96a6 6 0 0 1-12 0V80a6 6 0 0 1 12 0"/></symbol><symbol id="hd-icon-ph-arrow-fat-line-left-thin" viewBox="0 0 256 256"><path fill="currentColor" d="M184 76h-60V32a4 4 0 0 0-6.83-2.83l-96 96a4 4 0 0 0 0 5.66l96 96A4 4 0 0 0 124 224v-44h60a4 4 0 0 0 4-4V80a4 4 0 0 0-4-4m-4 96h-60a4 4 0 0 0-4 4v38.34L29.66 128L116 41.66V80a4 4 0 0 0 4 4h60Zm40-92v96a4 4 0 0 1-8 0V80a4 4 0 0 1 8 0"/></symbol><symbol id="hd-icon-ph-arrow-fat-line-right" viewBox="0 0 256 256"><path fill="currentColor" d="m237.66 122.34l-96-96A8 8 0 0 0 128 32v40H72a8 8 0 0 0-8 8v96a8 8 0 0 0 8 8h56v40a8 8 0 0 0 13.66 5.66l96-96a8 8 0 0 0 0-11.32M144 204.69V176a8 8 0 0 0-8-8H80V88h56a8 8 0 0 0 8-8V51.31L220.69 128ZM48 80v96a8 8 0 0 1-16 0V80a8 8 0 0 1 16 0"/></symbol><symbol id="hd-icon-ph-arrow-fat-line-right-bold" viewBox="0 0 256 256"><path fill="currentColor" d="m240.49 119.51l-96-96A12 12 0 0 0 124 32v36H80a12 12 0 0 0-12 12v96a12 12 0 0 0 12 12h44v36a12 12 0 0 0 20.49 8.49l96-96a12 12 0 0 0 0-16.98M148 195v-19a12 12 0 0 0-12-12H92V92h44a12 12 0 0 0 12-12V61l67 67ZM52 80v96a12 12 0 0 1-24 0V80a12 12 0 0 1 24 0"/></symbol><symbol id="hd-icon-ph-arrow-fat-line-right-duotone" viewBox="0 0 256 256"><g fill="currentColor"><path d="M136 224v-48H72V80h64V32l96 96Z" opacity=".2"/><path d="m237.66 122.34l-96-96A8 8 0 0 0 128 32v40H72a8 8 0 0 0-8 8v96a8 8 0 0 0 8 8h56v40a8 8 0 0 0 13.66 5.66l96-96a8 8 0 0 0 0-11.32M144 204.69V176a8 8 0 0 0-8-8H80V88h56a8 8 0 0 0 8-8V51.31L220.69 128ZM48 80v96a8 8 0 0 1-16 0V80a8 8 0 0 1 16 0"/></g></symbol><symbol id="hd-icon-ph-arrow-fat-line-right-fill" viewBox="0 0 256 256"><path fill="currentColor" d="M48 80v96a8 8 0 0 1-16 0V80a8 8 0 0 1 16 0m189.66 42.34l-96-96A8 8 0 0 0 128 32v40H72a8 8 0 0 0-8 8v96a8 8 0 0 0 8 8h56v40a8 8 0 0 0 13.66 5.66l96-96a8 8 0 0 0 0-11.32"/></symbol><symbol id="hd-icon-ph-arrow-fat-line-right-light" viewBox="0 0 256 256"><path fill="currentColor" d="m236.24 123.76l-96-96A6 6 0 0 0 130 32v42H72a6 6 0 0 0-6 6v96a6 6 0 0 0 6 6h58v42a6 6 0 0 0 10.24 4.24l96-96a6 6 0 0 0 0-8.48M142 209.51V176a6 6 0 0 0-6-6H78V86h58a6 6 0 0 0 6-6V46.49L223.51 128ZM46 80v96a6 6 0 0 1-12 0V80a6 6 0 0 1 12 0"/></symbol><symbol id="hd-icon-ph-arrow-fat-line-right-thin" viewBox="0 0 256 256"><path fill="currentColor" d="m234.83 125.17l-96-96A4 4 0 0 0 132 32v44H72a4 4 0 0 0-4 4v96a4 4 0 0 0 4 4h60v44a4 4 0 0 0 2.47 3.7a4 4 0 0 0 4.36-.87l96-96a4 4 0 0 0 0-5.66M140 214.34V176a4 4 0 0 0-4-4H76V84h60a4 4 0 0 0 4-4V41.66L226.34 128ZM44 80v96a4 4 0 0 1-8 0V80a4 4 0 0 1 8 0"/></symbol><symbol id="hd-icon-ph-arrow-fat-line-up" viewBox="0 0 256 256"><path fill="currentColor" d="m229.66 114.34l-96-96a8 8 0 0 0-11.32 0l-96 96A8 8 0 0 0 32 128h40v56a8 8 0 0 0 8 8h96a8 8 0 0 0 8-8v-56h40a8 8 0 0 0 5.66-13.66M176 112a8 8 0 0 0-8 8v56H88v-56a8 8 0 0 0-8-8H51.31L128 35.31L204.69 112Zm8 104a8 8 0 0 1-8 8H80a8 8 0 0 1 0-16h96a8 8 0 0 1 8 8"/></symbol><symbol id="hd-icon-ph-arrow-fat-line-up-bold" viewBox="0 0 256 256"><path fill="currentColor" d="m232.48 111.51l-96-96a12 12 0 0 0-17 0l-96 96A12 12 0 0 0 32 132h36v44a12 12 0 0 0 12 12h96a12 12 0 0 0 12-12v-44h36a12 12 0 0 0 8.48-20.49M176 108a12 12 0 0 0-12 12v44H92v-44a12 12 0 0 0-12-12H61l67-67l67 67Zm12 108a12 12 0 0 1-12 12H80a12 12 0 0 1 0-24h96a12 12 0 0 1 12 12"/></symbol><symbol id="hd-icon-ph-arrow-fat-line-up-duotone" viewBox="0 0 256 256"><g fill="currentColor"><path d="M224 120h-48v64H80v-64H32l96-96Z" opacity=".2"/><path d="m229.66 114.34l-96-96a8 8 0 0 0-11.32 0l-96 96A8 8 0 0 0 32 128h40v56a8 8 0 0 0 8 8h96a8 8 0 0 0 8-8v-56h40a8 8 0 0 0 5.66-13.66M176 112a8 8 0 0 0-8 8v56H88v-56a8 8 0 0 0-8-8H51.31L128 35.31L204.69 112Zm8 104a8 8 0 0 1-8 8H80a8 8 0 0 1 0-16h96a8 8 0 0 1 8 8"/></g></symbol><symbol id="hd-icon-ph-arrow-fat-line-up-fill" viewBox="0 0 256 256"><path fill="currentColor" d="M184 216a8 8 0 0 1-8 8H80a8 8 0 0 1 0-16h96a8 8 0 0 1 8 8m45.66-101.66l-96-96a8 8 0 0 0-11.32 0l-96 96A8 8 0 0 0 32 128h40v56a8 8 0 0 0 8 8h96a8 8 0 0 0 8-8v-56h40a8 8 0 0 0 5.66-13.66"/></symbol><symbol id="hd-icon-ph-arrow-fat-line-up-light" viewBox="0 0 256 256"><path fill="currentColor" d="m228.24 115.76l-96-96a6 6 0 0 0-8.48 0l-96 96A6 6 0 0 0 32 126h42v58a6 6 0 0 0 6 6h96a6 6 0 0 0 6-6v-58h42a6 6 0 0 0 4.24-10.24M176 114a6 6 0 0 0-6 6v58H86v-58a6 6 0 0 0-6-6H46.49L128 32.49L209.51 114Zm6 102a6 6 0 0 1-6 6H80a6 6 0 0 1 0-12h96a6 6 0 0 1 6 6"/></symbol><symbol id="hd-icon-ph-arrow-fat-line-up-thin" viewBox="0 0 256 256"><path fill="currentColor" d="m226.83 117.17l-96-96a4 4 0 0 0-5.66 0l-96 96A4 4 0 0 0 32 124h44v60a4 4 0 0 0 4 4h96a4 4 0 0 0 4-4v-60h44a4 4 0 0 0 2.83-6.83M176 116a4 4 0 0 0-4 4v60H84v-60a4 4 0 0 0-4-4H41.66L128 29.66L214.34 116Zm4 100a4 4 0 0 1-4 4H80a4 4 0 0 1 0-8h96a4 4 0 0 1 4 4"/></symbol><symbol id="hd-icon-ph-arrow-fat-lines-down" viewBox="0 0 256 256"><path fill="currentColor" d="M231.39 132.94A8 8 0 0 0 224 128h-40v-24a8 8 0 0 0-8-8H80a8 8 0 0 0-8 8v24H32a8 8 0 0 0-5.66 13.66l96 96a8 8 0 0 0 11.32 0l96-96a8 8 0 0 0 1.73-8.72M128 220.69L51.31 144H80a8 8 0 0 0 8-8v-24h80v24a8 8 0 0 0 8 8h28.69ZM72 40a8 8 0 0 1 8-8h96a8 8 0 0 1 0 16H80a8 8 0 0 1-8-8m0 32a8 8 0 0 1 8-8h96a8 8 0 0 1 0 16H80a8 8 0 0 1-8-8"/></symbol><symbol id="hd-icon-ph-arrow-fat-lines-down-bold" viewBox="0 0 256 256"><path fill="currentColor" d="M235.09 131.41A12 12 0 0 0 224 124h-36v-4a12 12 0 0 0-12-12H80a12 12 0 0 0-12 12v4H32a12 12 0 0 0-8.49 20.49l96 96a12 12 0 0 0 17 0l96-96a12 12 0 0 0 2.58-13.08M128 215l-67-67h19a12 12 0 0 0 12-12v-4h72v4a12 12 0 0 0 12 12h19ZM68 40a12 12 0 0 1 12-12h96a12 12 0 0 1 0 24H80a12 12 0 0 1-12-12m0 40a12 12 0 0 1 12-12h96a12 12 0 0 1 0 24H80a12 12 0 0 1-12-12"/></symbol><symbol id="hd-icon-ph-arrow-fat-lines-down-duotone" viewBox="0 0 256 256"><g fill="currentColor"><path d="m224 136l-96 96l-96-96h48v-32h96v32Z" opacity=".2"/><path d="M231.39 132.94A8 8 0 0 0 224 128h-40v-24a8 8 0 0 0-8-8H80a8 8 0 0 0-8 8v24H32a8 8 0 0 0-5.66 13.66l96 96a8 8 0 0 0 11.32 0l96-96a8 8 0 0 0 1.73-8.72M128 220.69L51.31 144H80a8 8 0 0 0 8-8v-24h80v24a8 8 0 0 0 8 8h28.69ZM72 40a8 8 0 0 1 8-8h96a8 8 0 0 1 0 16H80a8 8 0 0 1-8-8m0 32a8 8 0 0 1 8-8h96a8 8 0 0 1 0 16H80a8 8 0 0 1-8-8"/></g></symbol><symbol id="hd-icon-ph-arrow-fat-lines-down-fill" viewBox="0 0 256 256"><path fill="currentColor" d="M72 40a8 8 0 0 1 8-8h96a8 8 0 0 1 0 16H80a8 8 0 0 1-8-8m159.39 92.94A8 8 0 0 0 224 128h-40v-24a8 8 0 0 0-8-8H80a8 8 0 0 0-8 8v24H32a8 8 0 0 0-5.66 13.66l96 96a8 8 0 0 0 11.32 0l96-96a8 8 0 0 0 1.73-8.72M80 80h96a8 8 0 0 0 0-16H80a8 8 0 0 0 0 16"/></symbol><symbol id="hd-icon-ph-arrow-fat-lines-down-light" viewBox="0 0 256 256"><path fill="currentColor" d="M229.54 133.7A6 6 0 0 0 224 130h-42v-26a6 6 0 0 0-6-6H80a6 6 0 0 0-6 6v26H32a6 6 0 0 0-4.24 10.24l96 96a6 6 0 0 0 8.48 0l96-96a6 6 0 0 0 1.3-6.54M128 223.51L46.49 142H80a6 6 0 0 0 6-6v-26h84v26a6 6 0 0 0 6 6h33.51ZM74 40a6 6 0 0 1 6-6h96a6 6 0 0 1 0 12H80a6 6 0 0 1-6-6m0 32a6 6 0 0 1 6-6h96a6 6 0 0 1 0 12H80a6 6 0 0 1-6-6"/></symbol><symbol id="hd-icon-ph-arrow-fat-lines-down-thin" viewBox="0 0 256 256"><path fill="currentColor" d="M227.7 134.47A4 4 0 0 0 224 132h-44v-28a4 4 0 0 0-4-4H80a4 4 0 0 0-4 4v28H32a4 4 0 0 0-2.83 6.83l96 96a4 4 0 0 0 5.66 0l96-96a4 4 0 0 0 .87-4.36M128 226.34L41.66 140H80a4 4 0 0 0 4-4v-28h88v28a4 4 0 0 0 4 4h38.34ZM76 40a4 4 0 0 1 4-4h96a4 4 0 0 1 0 8H80a4 4 0 0 1-4-4m0 32a4 4 0 0 1 4-4h96a4 4 0 0 1 0 8H80a4 4 0 0 1-4-4"/></symbol><symbol id="hd-icon-ph-arrow-fat-lines-left" viewBox="0 0 256 256"><path fill="currentColor" d="M152 72h-24V32a8 8 0 0 0-13.66-5.66l-96 96a8 8 0 0 0 0 11.32l96 96A8 8 0 0 0 128 224v-40h24a8 8 0 0 0 8-8V80a8 8 0 0 0-8-8m-8 96h-24a8 8 0 0 0-8 8v28.69L35.31 128L112 51.31V80a8 8 0 0 0 8 8h24Zm80-88v96a8 8 0 0 1-16 0V80a8 8 0 0 1 16 0m-32 0v96a8 8 0 0 1-16 0V80a8 8 0 0 1 16 0"/></symbol><symbol id="hd-icon-ph-arrow-fat-lines-left-bold" viewBox="0 0 256 256"><path fill="currentColor" d="M136 68h-4V32a12 12 0 0 0-20.49-8.49l-96 96a12 12 0 0 0 0 17l96 96A12 12 0 0 0 132 224v-36h4a12 12 0 0 0 12-12V80a12 12 0 0 0-12-12m-12 96h-4a12 12 0 0 0-12 12v19l-67-67l67-67v19a12 12 0 0 0 12 12h4Zm104-84v96a12 12 0 0 1-24 0V80a12 12 0 0 1 24 0m-40 0v96a12 12 0 0 1-24 0V80a12 12 0 0 1 24 0"/></symbol><symbol id="hd-icon-ph-arrow-fat-lines-left-duotone" viewBox="0 0 256 256"><g fill="currentColor"><path d="M152 80v96h-32v48l-96-96l96-96v48Z" opacity=".2"/><path d="M152 72h-24V32a8 8 0 0 0-13.66-5.66l-96 96a8 8 0 0 0 0 11.32l96 96A8 8 0 0 0 128 224v-40h24a8 8 0 0 0 8-8V80a8 8 0 0 0-8-8m-8 96h-24a8 8 0 0 0-8 8v28.69L35.31 128L112 51.31V80a8 8 0 0 0 8 8h24Zm80-88v96a8 8 0 0 1-16 0V80a8 8 0 0 1 16 0m-32 0v96a8 8 0 0 1-16 0V80a8 8 0 0 1 16 0"/></g></symbol><symbol id="hd-icon-ph-arrow-fat-lines-left-fill" viewBox="0 0 256 256"><path fill="currentColor" d="M160 80v96a8 8 0 0 1-8 8h-24v40a8 8 0 0 1-13.66 5.66l-96-96a8 8 0 0 1 0-11.32l96-96A8 8 0 0 1 128 32v40h24a8 8 0 0 1 8 8m24-8a8 8 0 0 0-8 8v96a8 8 0 0 0 16 0V80a8 8 0 0 0-8-8m32 0a8 8 0 0 0-8 8v96a8 8 0 0 0 16 0V80a8 8 0 0 0-8-8"/></symbol><symbol id="hd-icon-ph-arrow-fat-lines-left-light" viewBox="0 0 256 256"><path fill="currentColor" d="M152 74h-26V32a6 6 0 0 0-10.24-4.24l-96 96a6 6 0 0 0 0 8.48l96 96A6 6 0 0 0 126 224v-42h26a6 6 0 0 0 6-6V80a6 6 0 0 0-6-6m-6 96h-26a6 6 0 0 0-6 6v33.51L32.49 128L114 46.49V80a6 6 0 0 0 6 6h26Zm76-90v96a6 6 0 0 1-12 0V80a6 6 0 0 1 12 0m-32 0v96a6 6 0 0 1-12 0V80a6 6 0 0 1 12 0"/></symbol><symbol id="hd-icon-ph-arrow-fat-lines-left-thin" viewBox="0 0 256 256"><path fill="currentColor" d="M152 76h-28V32a4 4 0 0 0-6.83-2.83l-96 96a4 4 0 0 0 0 5.66l96 96A4 4 0 0 0 124 224v-44h28a4 4 0 0 0 4-4V80a4 4 0 0 0-4-4m-4 96h-28a4 4 0 0 0-4 4v38.34L29.66 128L116 41.66V80a4 4 0 0 0 4 4h28Zm72-92v96a4 4 0 0 1-8 0V80a4 4 0 0 1 8 0m-32 0v96a4 4 0 0 1-8 0V80a4 4 0 0 1 8 0"/></symbol><symbol id="hd-icon-ph-arrow-fat-lines-right" viewBox="0 0 256 256"><path fill="currentColor" d="m237.66 122.34l-96-96A8 8 0 0 0 128 32v40h-24a8 8 0 0 0-8 8v96a8 8 0 0 0 8 8h24v40a8 8 0 0 0 13.66 5.66l96-96a8 8 0 0 0 0-11.32M144 204.69V176a8 8 0 0 0-8-8h-24V88h24a8 8 0 0 0 8-8V51.31L220.69 128ZM48 80v96a8 8 0 0 1-16 0V80a8 8 0 0 1 16 0m32 0v96a8 8 0 0 1-16 0V80a8 8 0 0 1 16 0"/></symbol><symbol id="hd-icon-ph-arrow-fat-lines-right-bold" viewBox="0 0 256 256"><path fill="currentColor" d="m240.49 119.51l-96-96A12 12 0 0 0 124 32v36h-4a12 12 0 0 0-12 12v96a12 12 0 0 0 12 12h4v36a12 12 0 0 0 20.49 8.49l96-96a12 12 0 0 0 0-16.98M148 195v-19a12 12 0 0 0-12-12h-4V92h4a12 12 0 0 0 12-12V61l67 67ZM52 80v96a12 12 0 0 1-24 0V80a12 12 0 0 1 24 0m40 0v96a12 12 0 0 1-24 0V80a12 12 0 0 1 24 0"/></symbol><symbol id="hd-icon-ph-arrow-fat-lines-right-duotone" viewBox="0 0 256 256"><g fill="currentColor"><path d="M136 224v-48h-32V80h32V32l96 96Z" opacity=".2"/><path d="m237.66 122.34l-96-96A8 8 0 0 0 128 32v40h-24a8 8 0 0 0-8 8v96a8 8 0 0 0 8 8h24v40a8 8 0 0 0 13.66 5.66l96-96a8 8 0 0 0 0-11.32M144 204.69V176a8 8 0 0 0-8-8h-24V88h24a8 8 0 0 0 8-8V51.31L220.69 128ZM48 80v96a8 8 0 0 1-16 0V80a8 8 0 0 1 16 0m32 0v96a8 8 0 0 1-16 0V80a8 8 0 0 1 16 0"/></g></symbol><symbol id="hd-icon-ph-arrow-fat-lines-right-fill" viewBox="0 0 256 256"><path fill="currentColor" d="M48 80v96a8 8 0 0 1-16 0V80a8 8 0 0 1 16 0m24-8a8 8 0 0 0-8 8v96a8 8 0 0 0 16 0V80a8 8 0 0 0-8-8m165.66 50.34l-96-96A8 8 0 0 0 128 32v40h-24a8 8 0 0 0-8 8v96a8 8 0 0 0 8 8h24v40a8 8 0 0 0 13.66 5.66l96-96a8 8 0 0 0 0-11.32"/></symbol><symbol id="hd-icon-ph-arrow-fat-lines-right-light" viewBox="0 0 256 256"><path fill="currentColor" d="m236.24 123.76l-96-96A6 6 0 0 0 130 32v42h-26a6 6 0 0 0-6 6v96a6 6 0 0 0 6 6h26v42a6 6 0 0 0 10.24 4.24l96-96a6 6 0 0 0 0-8.48M142 209.51V176a6 6 0 0 0-6-6h-26V86h26a6 6 0 0 0 6-6V46.49L223.51 128ZM46 80v96a6 6 0 0 1-12 0V80a6 6 0 0 1 12 0m32 0v96a6 6 0 0 1-12 0V80a6 6 0 0 1 12 0"/></symbol><symbol id="hd-icon-ph-arrow-fat-lines-right-thin" viewBox="0 0 256 256"><path fill="currentColor" d="m234.83 125.17l-96-96A4 4 0 0 0 132 32v44h-28a4 4 0 0 0-4 4v96a4 4 0 0 0 4 4h28v44a4 4 0 0 0 2.47 3.7a4 4 0 0 0 4.36-.87l96-96a4 4 0 0 0 0-5.66M140 214.34V176a4 4 0 0 0-4-4h-28V84h28a4 4 0 0 0 4-4V41.66L226.34 128ZM44 80v96a4 4 0 0 1-8 0V80a4 4 0 0 1 8 0m32 0v96a4 4 0 0 1-8 0V80a4 4 0 0 1 8 0"/></symbol><symbol id="hd-icon-ph-arrow-fat-lines-up" viewBox="0 0 256 256"><path fill="currentColor" d="m229.66 114.34l-96-96a8 8 0 0 0-11.32 0l-96 96A8 8 0 0 0 32 128h40v24a8 8 0 0 0 8 8h96a8 8 0 0 0 8-8v-24h40a8 8 0 0 0 5.66-13.66M176 112a8 8 0 0 0-8 8v24H88v-24a8 8 0 0 0-8-8H51.31L128 35.31L204.69 112Zm8 104a8 8 0 0 1-8 8H80a8 8 0 0 1 0-16h96a8 8 0 0 1 8 8m0-32a8 8 0 0 1-8 8H80a8 8 0 0 1 0-16h96a8 8 0 0 1 8 8"/></symbol><symbol id="hd-icon-ph-arrow-fat-lines-up-bold" viewBox="0 0 256 256"><path fill="currentColor" d="m232.49 111.51l-96-96a12 12 0 0 0-17 0l-96 96A12 12 0 0 0 32 132h36v4a12 12 0 0 0 12 12h96a12 12 0 0 0 12-12v-4h36a12 12 0 0 0 8.49-20.49M176 108a12 12 0 0 0-12 12v4H92v-4a12 12 0 0 0-12-12H61l67-67l67 67Zm12 108a12 12 0 0 1-12 12H80a12 12 0 0 1 0-24h96a12 12 0 0 1 12 12m0-40a12 12 0 0 1-12 12H80a12 12 0 0 1 0-24h96a12 12 0 0 1 12 12"/></symbol><symbol id="hd-icon-ph-arrow-fat-lines-up-duotone" viewBox="0 0 256 256"><g fill="currentColor"><path d="M224 120h-48v32H80v-32H32l96-96Z" opacity=".2"/><path d="m229.66 114.34l-96-96a8 8 0 0 0-11.32 0l-96 96A8 8 0 0 0 32 128h40v24a8 8 0 0 0 8 8h96a8 8 0 0 0 8-8v-24h40a8 8 0 0 0 5.66-13.66M176 112a8 8 0 0 0-8 8v24H88v-24a8 8 0 0 0-8-8H51.31L128 35.31L204.69 112Zm8 104a8 8 0 0 1-8 8H80a8 8 0 0 1 0-16h96a8 8 0 0 1 8 8m0-32a8 8 0 0 1-8 8H80a8 8 0 0 1 0-16h96a8 8 0 0 1 8 8"/></g></symbol><symbol id="hd-icon-ph-arrow-fat-lines-up-fill" viewBox="0 0 256 256"><path fill="currentColor" d="M184 216a8 8 0 0 1-8 8H80a8 8 0 0 1 0-16h96a8 8 0 0 1 8 8m45.66-101.66l-96-96a8 8 0 0 0-11.32 0l-96 96A8 8 0 0 0 32 128h40v24a8 8 0 0 0 8 8h96a8 8 0 0 0 8-8v-24h40a8 8 0 0 0 5.66-13.66M176 176H80a8 8 0 0 0 0 16h96a8 8 0 0 0 0-16"/></symbol><symbol id="hd-icon-ph-arrow-fat-lines-up-light" viewBox="0 0 256 256"><path fill="currentColor" d="m228.24 115.76l-96-96a6 6 0 0 0-8.48 0l-96 96A6 6 0 0 0 32 126h42v26a6 6 0 0 0 6 6h96a6 6 0 0 0 6-6v-26h42a6 6 0 0 0 4.24-10.24M176 114a6 6 0 0 0-6 6v26H86v-26a6 6 0 0 0-6-6H46.49L128 32.49L209.51 114Zm6 102a6 6 0 0 1-6 6H80a6 6 0 0 1 0-12h96a6 6 0 0 1 6 6m0-32a6 6 0 0 1-6 6H80a6 6 0 0 1 0-12h96a6 6 0 0 1 6 6"/></symbol><symbol id="hd-icon-ph-arrow-fat-lines-up-thin" viewBox="0 0 256 256"><path fill="currentColor" d="m226.83 117.17l-96-96a4 4 0 0 0-5.66 0l-96 96A4 4 0 0 0 32 124h44v28a4 4 0 0 0 4 4h96a4 4 0 0 0 4-4v-28h44a4 4 0 0 0 2.83-6.83M176 116a4 4 0 0 0-4 4v28H84v-28a4 4 0 0 0-4-4H41.66L128 29.66L214.34 116Zm4 100a4 4 0 0 1-4 4H80a4 4 0 0 1 0-8h96a4 4 0 0 1 4 4m0-32a4 4 0 0 1-4 4H80a4 4 0 0 1 0-8h96a4 4 0 0 1 4 4"/></symbol><symbol id="hd-icon-ph-arrow-fat-right" viewBox="0 0 256 256"><path fill="currentColor" d="m237.66 122.34l-96-96A8 8 0 0 0 128 32v40H48a16 16 0 0 0-16 16v80a16 16 0 0 0 16 16h80v40a8 8 0 0 0 13.66 5.66l96-96a8 8 0 0 0 0-11.32M144 204.69V176a8 8 0 0 0-8-8H48V88h88a8 8 0 0 0 8-8V51.31L220.69 128Z"/></symbol><symbol id="hd-icon-ph-arrow-fat-right-bold" viewBox="0 0 256 256"><path fill="currentColor" d="m240.49 119.51l-96-96A12 12 0 0 0 124 32v36H48a20 20 0 0 0-20 20v80a20 20 0 0 0 20 20h76v36a12 12 0 0 0 20.49 8.49l96-96a12 12 0 0 0 0-16.98M148 195v-19a12 12 0 0 0-12-12H52V92h84a12 12 0 0 0 12-12V61l67 67Z"/></symbol><symbol id="hd-icon-ph-arrow-fat-right-duotone" viewBox="0 0 256 256"><g fill="currentColor"><path d="M136 224v-48H48a8 8 0 0 1-8-8V88a8 8 0 0 1 8-8h88V32l96 96Z" opacity=".2"/><path d="m237.66 122.34l-96-96A8 8 0 0 0 128 32v40H48a16 16 0 0 0-16 16v80a16 16 0 0 0 16 16h80v40a8 8 0 0 0 13.66 5.66l96-96a8 8 0 0 0 0-11.32M144 204.69V176a8 8 0 0 0-8-8H48V88h88a8 8 0 0 0 8-8V51.31L220.69 128Z"/></g></symbol><symbol id="hd-icon-ph-arrow-fat-right-fill" viewBox="0 0 256 256"><path fill="currentColor" d="m237.66 133.66l-96 96A8 8 0 0 1 128 224v-40H48a16 16 0 0 1-16-16V88a16 16 0 0 1 16-16h80V32a8 8 0 0 1 13.66-5.66l96 96a8 8 0 0 1 0 11.32"/></symbol><symbol id="hd-icon-ph-arrow-fat-right-light" viewBox="0 0 256 256"><path fill="currentColor" d="m236.24 123.76l-96-96A6 6 0 0 0 130 32v42H48a14 14 0 0 0-14 14v80a14 14 0 0 0 14 14h82v42a6 6 0 0 0 10.24 4.24l96-96a6 6 0 0 0 0-8.48M142 209.51V176a6 6 0 0 0-6-6H48a2 2 0 0 1-2-2V88a2 2 0 0 1 2-2h88a6 6 0 0 0 6-6V46.49L223.51 128Z"/></symbol><symbol id="hd-icon-ph-arrow-fat-right-thin" viewBox="0 0 256 256"><path fill="currentColor" d="m234.83 125.17l-96-96A4 4 0 0 0 132 32v44H48a12 12 0 0 0-12 12v80a12 12 0 0 0 12 12h84v44a4 4 0 0 0 2.47 3.7a4 4 0 0 0 4.36-.87l96-96a4 4 0 0 0 0-5.66M140 214.34V176a4 4 0 0 0-4-4H48a4 4 0 0 1-4-4V88a4 4 0 0 1 4-4h88a4 4 0 0 0 4-4V41.66L226.34 128Z"/></symbol><symbol id="hd-icon-ph-arrow-fat-up" viewBox="0 0 256 256"><path fill="currentColor" d="m229.66 114.34l-96-96a8 8 0 0 0-11.32 0l-96 96A8 8 0 0 0 32 128h40v80a16 16 0 0 0 16 16h80a16 16 0 0 0 16-16v-80h40a8 8 0 0 0 5.66-13.66M176 112a8 8 0 0 0-8 8v88H88v-88a8 8 0 0 0-8-8H51.31L128 35.31L204.69 112Z"/></symbol><symbol id="hd-icon-ph-arrow-fat-up-bold" viewBox="0 0 256 256"><path fill="currentColor" d="m232.48 111.51l-96-96a12 12 0 0 0-17 0l-96 96A12 12 0 0 0 32 132h36v76a20 20 0 0 0 20 20h80a20 20 0 0 0 20-20v-76h36a12 12 0 0 0 8.48-20.49M176 108a12 12 0 0 0-12 12v84H92v-84a12 12 0 0 0-12-12H61l67-67l67 67Z"/></symbol><symbol id="hd-icon-ph-arrow-fat-up-duotone" viewBox="0 0 256 256"><g fill="currentColor"><path d="M224 120h-48v88a8 8 0 0 1-8 8H88a8 8 0 0 1-8-8v-88H32l96-96Z" opacity=".2"/><path d="m229.66 114.34l-96-96a8 8 0 0 0-11.32 0l-96 96A8 8 0 0 0 32 128h40v80a16 16 0 0 0 16 16h80a16 16 0 0 0 16-16v-80h40a8 8 0 0 0 5.66-13.66M176 112a8 8 0 0 0-8 8v88H88v-88a8 8 0 0 0-8-8H51.31L128 35.31L204.69 112Z"/></g></symbol><symbol id="hd-icon-ph-arrow-fat-up-fill" viewBox="0 0 256 256"><path fill="currentColor" d="M231.39 123.06A8 8 0 0 1 224 128h-40v80a16 16 0 0 1-16 16H88a16 16 0 0 1-16-16v-80H32a8 8 0 0 1-5.66-13.66l96-96a8 8 0 0 1 11.32 0l96 96a8 8 0 0 1 1.73 8.72"/></symbol><symbol id="hd-icon-ph-arrow-fat-up-light" viewBox="0 0 256 256"><path fill="currentColor" d="m228.24 115.76l-96-96a6 6 0 0 0-8.48 0l-96 96A6 6 0 0 0 32 126h42v82a14 14 0 0 0 14 14h80a14 14 0 0 0 14-14v-82h42a6 6 0 0 0 4.24-10.24M176 114a6 6 0 0 0-6 6v88a2 2 0 0 1-2 2H88a2 2 0 0 1-2-2v-88a6 6 0 0 0-6-6H46.49L128 32.49L209.51 114Z"/></symbol><symbol id="hd-icon-ph-arrow-fat-up-thin" viewBox="0 0 256 256"><path fill="currentColor" d="m226.83 117.17l-96-96a4 4 0 0 0-5.66 0l-96 96A4 4 0 0 0 32 124h44v84a12 12 0 0 0 12 12h80a12 12 0 0 0 12-12v-84h44a4 4 0 0 0 2.83-6.83M176 116a4 4 0 0 0-4 4v88a4 4 0 0 1-4 4H88a4 4 0 0 1-4-4v-88a4 4 0 0 0-4-4H41.66L128 29.66L214.34 116Z"/></symbol><symbol id="hd-icon-ph-arrow-left" viewBox="0 0 256 256"><path fill="currentColor" d="M224 128a8 8 0 0 1-8 8H59.31l58.35 58.34a8 8 0 0 1-11.32 11.32l-72-72a8 8 0 0 1 0-11.32l72-72a8 8 0 0 1 11.32 11.32L59.31 120H216a8 8 0 0 1 8 8"/></symbol><symbol id="hd-icon-ph-arrow-left-bold" viewBox="0 0 256 256"><path fill="currentColor" d="M228 128a12 12 0 0 1-12 12H69l51.52 51.51a12 12 0 0 1-17 17l-72-72a12 12 0 0 1 0-17l72-72a12 12 0 0 1 17 17L69 116h147a12 12 0 0 1 12 12"/></symbol><symbol id="hd-icon-ph-arrow-left-duotone" viewBox="0 0 256 256"><g fill="currentColor"><path d="M112 56v144l-72-72Z" opacity=".2"/><path d="M216 120h-96V56a8 8 0 0 0-13.66-5.66l-72 72a8 8 0 0 0 0 11.32l72 72A8 8 0 0 0 120 200v-64h96a8 8 0 0 0 0-16m-112 60.69L51.31 128L104 75.31Z"/></g></symbol><symbol id="hd-icon-ph-arrow-left-fill" viewBox="0 0 256 256"><path fill="currentColor" d="M224 128a8 8 0 0 1-8 8h-96v64a8 8 0 0 1-13.66 5.66l-72-72a8 8 0 0 1 0-11.32l72-72A8 8 0 0 1 120 56v64h96a8 8 0 0 1 8 8"/></symbol><symbol id="hd-icon-ph-arrow-left-light" viewBox="0 0 256 256"><path fill="currentColor" d="M222 128a6 6 0 0 1-6 6H54.49l61.75 61.76a6 6 0 1 1-8.48 8.48l-72-72a6 6 0 0 1 0-8.48l72-72a6 6 0 0 1 8.48 8.48L54.49 122H216a6 6 0 0 1 6 6"/></symbol><symbol id="hd-icon-ph-arrow-left-thin" viewBox="0 0 256 256"><path fill="currentColor" d="M220 128a4 4 0 0 1-4 4H49.66l65.17 65.17a4 4 0 0 1-5.66 5.66l-72-72a4 4 0 0 1 0-5.66l72-72a4 4 0 0 1 5.66 5.66L49.66 124H216a4 4 0 0 1 4 4"/></symbol><symbol id="hd-icon-ph-arrow-line-down" viewBox="0 0 256 256"><path fill="currentColor" d="M50.34 117.66a8 8 0 0 1 11.32-11.32L120 164.69V32a8 8 0 0 1 16 0v132.69l58.34-58.35a8 8 0 0 1 11.32 11.32l-72 72a8 8 0 0 1-11.32 0ZM216 208H40a8 8 0 0 0 0 16h176a8 8 0 0 0 0-16"/></symbol><symbol id="hd-icon-ph-arrow-line-down-bold" viewBox="0 0 256 256"><path fill="currentColor" d="M47.51 112.49a12 12 0 0 1 17-17L116 147V32a12 12 0 0 1 24 0v115l51.51-51.52a12 12 0 0 1 17 17l-72 72a12 12 0 0 1-17 0ZM216 204H40a12 12 0 0 0 0 24h176a12 12 0 0 0 0-24"/></symbol><symbol id="hd-icon-ph-arrow-line-down-duotone" viewBox="0 0 256 256"><g fill="currentColor"><path d="m200 112l-72 72l-72-72Z" opacity=".2"/><path d="M122.34 189.66a8 8 0 0 0 11.32 0l72-72A8 8 0 0 0 200 104h-64V32a8 8 0 0 0-16 0v72H56a8 8 0 0 0-5.66 13.66ZM180.69 120L128 172.69L75.31 120ZM224 216a8 8 0 0 1-8 8H40a8 8 0 0 1 0-16h176a8 8 0 0 1 8 8"/></g></symbol><symbol id="hd-icon-ph-arrow-line-down-fill" viewBox="0 0 256 256"><path fill="currentColor" d="M50.34 117.66A8 8 0 0 1 56 104h64V32a8 8 0 0 1 16 0v72h64a8 8 0 0 1 5.66 13.66l-72 72a8 8 0 0 1-11.32 0ZM216 208H40a8 8 0 0 0 0 16h176a8 8 0 0 0 0-16"/></symbol><symbol id="hd-icon-ph-arrow-line-down-left" viewBox="0 0 256 256"><path fill="currentColor" d="M232 48a8 8 0 0 1-8 8H48a8 8 0 0 1 0-16h176a8 8 0 0 1 8 8m-53.66 42.34L80 188.69V112a8 8 0 0 0-16 0v96a8 8 0 0 0 8 8h96a8 8 0 0 0 0-16H91.31l98.35-98.34a8 8 0 0 0-11.32-11.32"/></symbol><symbol id="hd-icon-ph-arrow-line-down-left-bold" viewBox="0 0 256 256"><path fill="currentColor" d="M236 48a12 12 0 0 1-12 12H48a12 12 0 0 1 0-24h176a12 12 0 0 1 12 12m-60.49 39.51L84 179v-67a12 12 0 0 0-24 0v96a12 12 0 0 0 12 12h96a12 12 0 0 0 0-24h-67l91.52-91.51a12 12 0 0 0-17-17Z"/></symbol><symbol id="hd-icon-ph-arrow-line-down-left-duotone" viewBox="0 0 256 256"><g fill="currentColor"><path d="M168 208H72v-96Z" opacity=".2"/><path d="M232 48a8 8 0 0 1-8 8H48a8 8 0 0 1 0-16h176a8 8 0 0 1 8 8m-42.34 42.34a8 8 0 0 1 0 11.32L131.31 160l42.35 42.34A8 8 0 0 1 168 216H72a8 8 0 0 1-8-8v-96a8 8 0 0 1 13.66-5.66L120 148.69l58.34-58.35a8 8 0 0 1 11.32 0M148.69 200l-34.34-34.34L80 131.31V200Z"/></g></symbol><symbol id="hd-icon-ph-arrow-line-down-left-fill" viewBox="0 0 256 256"><path fill="currentColor" d="M189.66 90.34a8 8 0 0 1 0 11.32L131.31 160l42.35 42.34A8 8 0 0 1 168 216H72a8 8 0 0 1-8-8v-96a8 8 0 0 1 13.66-5.66L120 148.69l58.34-58.35a8 8 0 0 1 11.32 0M224 40H48a8 8 0 0 0 0 16h176a8 8 0 0 0 0-16"/></symbol><symbol id="hd-icon-ph-arrow-line-down-left-light" viewBox="0 0 256 256"><path fill="currentColor" d="M230 48a6 6 0 0 1-6 6H48a6 6 0 0 1 0-12h176a6 6 0 0 1 6 6m-50.24 43.76L78 193.52V112a6 6 0 0 0-12 0v96a6 6 0 0 0 6 6h96a6 6 0 0 0 0-12H86.48l101.76-101.76a6 6 0 0 0-8.48-8.48"/></symbol><symbol id="hd-icon-ph-arrow-line-down-left-thin" viewBox="0 0 256 256"><path fill="currentColor" d="M228 48a4 4 0 0 1-4 4H48a4 4 0 0 1 0-8h176a4 4 0 0 1 4 4m-46.83 45.17L76 198.34V112a4 4 0 0 0-8 0v96a4 4 0 0 0 4 4h96a4 4 0 0 0 0-8H81.66L186.83 98.83a4 4 0 1 0-5.66-5.66"/></symbol><symbol id="hd-icon-ph-arrow-line-down-light" viewBox="0 0 256 256"><path fill="currentColor" d="M51.76 116.24a6 6 0 0 1 8.48-8.48L122 169.51V32a6 6 0 0 1 12 0v137.51l61.76-61.75a6 6 0 0 1 8.48 8.48l-72 72a6 6 0 0 1-8.48 0ZM216 210H40a6 6 0 0 0 0 12h176a6 6 0 0 0 0-12"/></symbol><symbol id="hd-icon-ph-arrow-line-down-right" viewBox="0 0 256 256"><path fill="currentColor" d="M224 40a8 8 0 0 1-8 8H40a8 8 0 0 1 0-16h176a8 8 0 0 1 8 8m-32 56a8 8 0 0 0-8 8v76.69L85.66 82.34a8 8 0 0 0-11.32 11.32L172.69 192H96a8 8 0 0 0 0 16h96a8 8 0 0 0 8-8v-96a8 8 0 0 0-8-8"/></symbol><symbol id="hd-icon-ph-arrow-line-down-right-bold" viewBox="0 0 256 256"><path fill="currentColor" d="M228 40a12 12 0 0 1-12 12H40a12 12 0 0 1 0-24h176a12 12 0 0 1 12 12m-36 52a12 12 0 0 0-12 12v67L88.49 79.51a12 12 0 0 0-17 17L163 188H96a12 12 0 0 0 0 24h96a12 12 0 0 0 12-12v-96a12 12 0 0 0-12-12"/></symbol><symbol id="hd-icon-ph-arrow-line-down-right-duotone" viewBox="0 0 256 256"><g fill="currentColor"><path d="M192 104v96H96Z" opacity=".2"/><path d="M224 40a8 8 0 0 1-8 8H40a8 8 0 0 1 0-16h176a8 8 0 0 1 8 8m-24 64v96a8 8 0 0 1-8 8H96a8 8 0 0 1-5.66-13.66L132.69 152L74.34 93.66a8 8 0 0 1 11.32-11.32L144 140.69l42.34-42.35A8 8 0 0 1 200 104m-16 19.31l-34.34 34.35L115.31 192H184Z"/></g></symbol><symbol id="hd-icon-ph-arrow-line-down-right-fill" viewBox="0 0 256 256"><path fill="currentColor" d="M224 40a8 8 0 0 1-8 8H40a8 8 0 0 1 0-16h176a8 8 0 0 1 8 8m-28.94 56.61a8 8 0 0 0-8.72 1.73L144 140.69L85.66 82.34a8 8 0 0 0-11.32 11.32L132.69 152l-42.35 42.34A8 8 0 0 0 96 208h96a8 8 0 0 0 8-8v-96a8 8 0 0 0-4.94-7.39"/></symbol><symbol id="hd-icon-ph-arrow-line-down-right-light" viewBox="0 0 256 256"><path fill="currentColor" d="M222 40a6 6 0 0 1-6 6H40a6 6 0 0 1 0-12h176a6 6 0 0 1 6 6m-30 58a6 6 0 0 0-6 6v81.52L84.24 83.76a6 6 0 0 0-8.48 8.48L177.52 194H96a6 6 0 0 0 0 12h96a6 6 0 0 0 6-6v-96a6 6 0 0 0-6-6"/></symbol><symbol id="hd-icon-ph-arrow-line-down-right-thin" viewBox="0 0 256 256"><path fill="currentColor" d="M220 40a4 4 0 0 1-4 4H40a4 4 0 0 1 0-8h176a4 4 0 0 1 4 4m-28 60a4 4 0 0 0-4 4v86.34L82.83 85.17a4 4 0 0 0-5.66 5.66L182.34 196H96a4 4 0 0 0 0 8h96a4 4 0 0 0 4-4v-96a4 4 0 0 0-4-4"/></symbol><symbol id="hd-icon-ph-arrow-line-down-thin" viewBox="0 0 256 256"><path fill="currentColor" d="M53.17 114.83a4 4 0 0 1 5.66-5.66L124 174.34V32a4 4 0 0 1 8 0v142.34l65.17-65.17a4 4 0 1 1 5.66 5.66l-72 72a4 4 0 0 1-5.66 0ZM216 212H40a4 4 0 0 0 0 8h176a4 4 0 0 0 0-8"/></symbol><symbol id="hd-icon-ph-arrow-line-left" viewBox="0 0 256 256"><path fill="currentColor" d="M232 128a8 8 0 0 1-8 8H91.31l58.35 58.34a8 8 0 0 1-11.32 11.32l-72-72a8 8 0 0 1 0-11.32l72-72a8 8 0 0 1 11.32 11.32L91.31 120H224a8 8 0 0 1 8 8M40 32a8 8 0 0 0-8 8v176a8 8 0 0 0 16 0V40a8 8 0 0 0-8-8"/></symbol><symbol id="hd-icon-ph-arrow-line-left-bold" viewBox="0 0 256 256"><path fill="currentColor" d="M236 128a12 12 0 0 1-12 12H109l51.52 51.51a12 12 0 0 1-17 17l-72-72a12 12 0 0 1 0-17l72-72a12 12 0 0 1 17 17L109 116h115a12 12 0 0 1 12 12M40 28a12 12 0 0 0-12 12v176a12 12 0 0 0 24 0V40a12 12 0 0 0-12-12"/></symbol><symbol id="hd-icon-ph-arrow-line-left-duotone" viewBox="0 0 256 256"><g fill="currentColor"><path d="M144 56v144l-72-72Z" opacity=".2"/><path d="M224 120h-72V56a8 8 0 0 0-13.66-5.66l-72 72a8 8 0 0 0 0 11.32l72 72A8 8 0 0 0 152 200v-64h72a8 8 0 0 0 0-16m-88 60.69L83.31 128L136 75.31ZM48 40v176a8 8 0 0 1-16 0V40a8 8 0 0 1 16 0"/></g></symbol><symbol id="hd-icon-ph-arrow-line-left-fill" viewBox="0 0 256 256"><path fill="currentColor" d="M48 40v176a8 8 0 0 1-16 0V40a8 8 0 0 1 16 0m176 80h-72V56a8 8 0 0 0-13.66-5.66l-72 72a8 8 0 0 0 0 11.32l72 72A8 8 0 0 0 152 200v-64h72a8 8 0 0 0 0-16"/></symbol><symbol id="hd-icon-ph-arrow-line-left-light" viewBox="0 0 256 256"><path fill="currentColor" d="M230 128a6 6 0 0 1-6 6H86.49l61.75 61.76a6 6 0 1 1-8.48 8.48l-72-72a6 6 0 0 1 0-8.48l72-72a6 6 0 0 1 8.48 8.48L86.49 122H224a6 6 0 0 1 6 6M40 34a6 6 0 0 0-6 6v176a6 6 0 0 0 12 0V40a6 6 0 0 0-6-6"/></symbol><symbol id="hd-icon-ph-arrow-line-left-thin" viewBox="0 0 256 256"><path fill="currentColor" d="M228 128a4 4 0 0 1-4 4H81.66l65.17 65.17a4 4 0 0 1-5.66 5.66l-72-72a4 4 0 0 1 0-5.66l72-72a4 4 0 1 1 5.66 5.66L81.66 124H224a4 4 0 0 1 4 4M40 36a4 4 0 0 0-4 4v176a4 4 0 0 0 8 0V40a4 4 0 0 0-4-4"/></symbol><symbol id="hd-icon-ph-arrow-line-right" viewBox="0 0 256 256"><path fill="currentColor" d="M189.66 122.34a8 8 0 0 1 0 11.32l-72 72a8 8 0 0 1-11.32-11.32L164.69 136H32a8 8 0 0 1 0-16h132.69l-58.35-58.34a8 8 0 0 1 11.32-11.32ZM216 32a8 8 0 0 0-8 8v176a8 8 0 0 0 16 0V40a8 8 0 0 0-8-8"/></symbol><symbol id="hd-icon-ph-arrow-line-right-bold" viewBox="0 0 256 256"><path fill="currentColor" d="M184.49 119.51a12 12 0 0 1 0 17l-72 72a12 12 0 0 1-17-17L147 140H32a12 12 0 0 1 0-24h115L95.51 64.49a12 12 0 0 1 17-17ZM216 28a12 12 0 0 0-12 12v176a12 12 0 0 0 24 0V40a12 12 0 0 0-12-12"/></symbol><symbol id="hd-icon-ph-arrow-line-right-duotone" viewBox="0 0 256 256"><g fill="currentColor"><path d="m184 128l-72 72V56Z" opacity=".2"/><path d="M117.66 50.34A8 8 0 0 0 104 56v64H32a8 8 0 0 0 0 16h72v64a8 8 0 0 0 13.66 5.66l72-72a8 8 0 0 0 0-11.32ZM120 180.69V75.31L172.69 128ZM224 40v176a8 8 0 0 1-16 0V40a8 8 0 0 1 16 0"/></g></symbol><symbol id="hd-icon-ph-arrow-line-right-fill" viewBox="0 0 256 256"><path fill="currentColor" d="M224 40v176a8 8 0 0 1-16 0V40a8 8 0 0 1 16 0M117.66 50.34A8 8 0 0 0 104 56v64H32a8 8 0 0 0 0 16h72v64a8 8 0 0 0 13.66 5.66l72-72a8 8 0 0 0 0-11.32Z"/></symbol><symbol id="hd-icon-ph-arrow-line-right-light" viewBox="0 0 256 256"><path fill="currentColor" d="M188.24 123.76a6 6 0 0 1 0 8.48l-72 72a6 6 0 0 1-8.48-8.48L169.51 134H32a6 6 0 0 1 0-12h137.51l-61.75-61.76a6 6 0 0 1 8.48-8.48ZM216 34a6 6 0 0 0-6 6v176a6 6 0 0 0 12 0V40a6 6 0 0 0-6-6"/></symbol><symbol id="hd-icon-ph-arrow-line-right-thin" viewBox="0 0 256 256"><path fill="currentColor" d="M186.83 125.17a4 4 0 0 1 0 5.66l-72 72a4 4 0 0 1-5.66-5.66L174.34 132H32a4 4 0 0 1 0-8h142.34l-65.17-65.17a4 4 0 0 1 5.66-5.66ZM216 36a4 4 0 0 0-4 4v176a4 4 0 0 0 8 0V40a4 4 0 0 0-4-4"/></symbol><symbol id="hd-icon-ph-arrow-line-up" viewBox="0 0 256 256"><path fill="currentColor" d="M205.66 138.34a8 8 0 0 1-11.32 11.32L136 91.31V224a8 8 0 0 1-16 0V91.31l-58.34 58.35a8 8 0 0 1-11.32-11.32l72-72a8 8 0 0 1 11.32 0ZM216 32H40a8 8 0 0 0 0 16h176a8 8 0 0 0 0-16"/></symbol><symbol id="hd-icon-ph-arrow-line-up-bold" viewBox="0 0 256 256"><path fill="currentColor" d="M208.49 143.51a12 12 0 0 1-17 17L140 109v115a12 12 0 0 1-24 0V109l-51.51 51.49a12 12 0 0 1-17-17l72-72a12 12 0 0 1 17 0ZM216 28H40a12 12 0 0 0 0 24h176a12 12 0 0 0 0-24"/></symbol><symbol id="hd-icon-ph-arrow-line-up-duotone" viewBox="0 0 256 256"><g fill="currentColor"><path d="M200 144H56l72-72Z" opacity=".2"/><path d="M133.66 66.34a8 8 0 0 0-11.32 0l-72 72A8 8 0 0 0 56 152h64v72a8 8 0 0 0 16 0v-72h64a8 8 0 0 0 5.66-13.66ZM75.31 136L128 83.31L180.69 136ZM224 40a8 8 0 0 1-8 8H40a8 8 0 0 1 0-16h176a8 8 0 0 1 8 8"/></g></symbol><symbol id="hd-icon-ph-arrow-line-up-fill" viewBox="0 0 256 256"><path fill="currentColor" d="M205.66 138.34A8 8 0 0 1 200 152h-64v72a8 8 0 0 1-16 0v-72H56a8 8 0 0 1-5.66-13.66l72-72a8 8 0 0 1 11.32 0ZM216 32H40a8 8 0 0 0 0 16h176a8 8 0 0 0 0-16"/></symbol><symbol id="hd-icon-ph-arrow-line-up-left" viewBox="0 0 256 256"><path fill="currentColor" d="M232 208a8 8 0 0 1-8 8H48a8 8 0 0 1 0-16h176a8 8 0 0 1 8 8M72 152a8 8 0 0 0 8-8V67.31l98.34 98.35a8 8 0 0 0 11.32-11.32L91.31 56H168a8 8 0 0 0 0-16H72a8 8 0 0 0-8 8v96a8 8 0 0 0 8 8"/></symbol><symbol id="hd-icon-ph-arrow-line-up-left-bold" viewBox="0 0 256 256"><path fill="currentColor" d="M236 208a12 12 0 0 1-12 12H48a12 12 0 0 1 0-24h176a12 12 0 0 1 12 12M72 156a12 12 0 0 0 12-12V77l91.51 91.52a12 12 0 0 0 17-17L101 60h67a12 12 0 0 0 0-24H72a12 12 0 0 0-12 12v96a12 12 0 0 0 12 12"/></symbol><symbol id="hd-icon-ph-arrow-line-up-left-duotone" viewBox="0 0 256 256"><g fill="currentColor"><path d="m168 48l-96 96V48Z" opacity=".2"/><path d="M232 208a8 8 0 0 1-8 8H48a8 8 0 0 1 0-16h176a8 8 0 0 1 8 8M64 144V48a8 8 0 0 1 8-8h96a8 8 0 0 1 5.66 13.66L131.31 96l58.35 58.34a8 8 0 0 1-11.32 11.32L120 107.31l-42.34 42.35A8 8 0 0 1 64 144m16-19.31l34.34-34.35L148.69 56H80Z"/></g></symbol><symbol id="hd-icon-ph-arrow-line-up-left-fill" viewBox="0 0 256 256"><path fill="currentColor" d="M64 144V48a8 8 0 0 1 8-8h96a8 8 0 0 1 5.66 13.66L131.31 96l58.35 58.34a8 8 0 0 1-11.32 11.32L120 107.31l-42.34 42.35A8 8 0 0 1 64 144m160 56H48a8 8 0 0 0 0 16h176a8 8 0 0 0 0-16"/></symbol><symbol id="hd-icon-ph-arrow-line-up-left-light" viewBox="0 0 256 256"><path fill="currentColor" d="M230 208a6 6 0 0 1-6 6H48a6 6 0 0 1 0-12h176a6 6 0 0 1 6 6M72 150a6 6 0 0 0 6-6V62.49l101.76 101.75a6 6 0 0 0 8.48-8.48L86.49 54H168a6 6 0 0 0 0-12H72a6 6 0 0 0-6 6v96a6 6 0 0 0 6 6"/></symbol><symbol id="hd-icon-ph-arrow-line-up-left-thin" viewBox="0 0 256 256"><path fill="currentColor" d="M228 208a4 4 0 0 1-4 4H48a4 4 0 0 1 0-8h176a4 4 0 0 1 4 4M72 148a4 4 0 0 0 4-4V57.66l105.17 105.17a4 4 0 0 0 5.66-5.66L81.66 52H168a4 4 0 0 0 0-8H72a4 4 0 0 0-4 4v96a4 4 0 0 0 4 4"/></symbol><symbol id="hd-icon-ph-arrow-line-up-light" viewBox="0 0 256 256"><path fill="currentColor" d="M204.24 139.76a6 6 0 1 1-8.48 8.48L134 86.49V224a6 6 0 0 1-12 0V86.49l-61.76 61.75a6 6 0 0 1-8.48-8.48l72-72a6 6 0 0 1 8.48 0ZM216 34H40a6 6 0 0 0 0 12h176a6 6 0 0 0 0-12"/></symbol><symbol id="hd-icon-ph-arrow-line-up-right" viewBox="0 0 256 256"><path fill="currentColor" d="M224 216a8 8 0 0 1-8 8H40a8 8 0 0 1 0-16h176a8 8 0 0 1 8 8M80 176a8 8 0 0 0 5.66-2.34L184 75.31V152a8 8 0 0 0 16 0V56a8 8 0 0 0-8-8H96a8 8 0 0 0 0 16h76.69l-98.35 98.34A8 8 0 0 0 80 176"/></symbol><symbol id="hd-icon-ph-arrow-line-up-right-bold" viewBox="0 0 256 256"><path fill="currentColor" d="M228 216a12 12 0 0 1-12 12H40a12 12 0 0 1 0-24h176a12 12 0 0 1 12 12M80 180a12 12 0 0 0 8.49-3.51L180 85v67a12 12 0 0 0 24 0V56a12 12 0 0 0-12-12H96a12 12 0 0 0 0 24h67l-91.49 91.51A12 12 0 0 0 80 180"/></symbol><symbol id="hd-icon-ph-arrow-line-up-right-duotone" viewBox="0 0 256 256"><g fill="currentColor"><path d="M192 56v96L96 56Z" opacity=".2"/><path d="M224 216a8 8 0 0 1-8 8H40a8 8 0 0 1 0-16h176a8 8 0 0 1 8 8M74.34 173.66a8 8 0 0 1 0-11.32L132.69 104L90.34 61.66A8 8 0 0 1 96 48h96a8 8 0 0 1 8 8v96a8 8 0 0 1-13.66 5.66L144 115.31l-58.34 58.35a8 8 0 0 1-11.32 0M115.31 64l34.35 34.34L184 132.69V64Z"/></g></symbol><symbol id="hd-icon-ph-arrow-line-up-right-fill" viewBox="0 0 256 256"><path fill="currentColor" d="M74.34 173.66a8 8 0 0 1 0-11.32L132.69 104L90.34 61.66A8 8 0 0 1 96 48h96a8 8 0 0 1 8 8v96a8 8 0 0 1-13.66 5.66L144 115.31l-58.34 58.35a8 8 0 0 1-11.32 0M216 208H40a8 8 0 0 0 0 16h176a8 8 0 0 0 0-16"/></symbol><symbol id="hd-icon-ph-arrow-line-up-right-light" viewBox="0 0 256 256"><path fill="currentColor" d="M222 216a6 6 0 0 1-6 6H40a6 6 0 0 1 0-12h176a6 6 0 0 1 6 6M80 174a6 6 0 0 0 4.24-1.76L186 70.49V152a6 6 0 0 0 12 0V56a6 6 0 0 0-6-6H96a6 6 0 0 0 0 12h81.51L75.76 163.76A6 6 0 0 0 80 174"/></symbol><symbol id="hd-icon-ph-arrow-line-up-right-thin" viewBox="0 0 256 256"><path fill="currentColor" d="M220 216a4 4 0 0 1-4 4H40a4 4 0 0 1 0-8h176a4 4 0 0 1 4 4M80 172a4 4 0 0 0 2.83-1.17L188 65.66V152a4 4 0 0 0 8 0V56a4 4 0 0 0-4-4H96a4 4 0 0 0 0 8h86.34L77.17 165.17A4 4 0 0 0 80 172"/></symbol><symbol id="hd-icon-ph-arrow-line-up-thin" viewBox="0 0 256 256"><path fill="currentColor" d="M202.83 141.17a4 4 0 0 1-5.66 5.66L132 81.66V224a4 4 0 0 1-8 0V81.66l-65.17 65.17a4 4 0 0 1-5.66-5.66l72-72a4 4 0 0 1 5.66 0ZM216 36H40a4 4 0 0 0 0 8h176a4 4 0 0 0 0-8"/></symbol><symbol id="hd-icon-ph-arrow-right" viewBox="0 0 256 256"><path fill="currentColor" d="m221.66 133.66l-72 72a8 8 0 0 1-11.32-11.32L196.69 136H40a8 8 0 0 1 0-16h156.69l-58.35-58.34a8 8 0 0 1 11.32-11.32l72 72a8 8 0 0 1 0 11.32"/></symbol><symbol id="hd-icon-ph-arrow-right-bold" viewBox="0 0 256 256"><path fill="currentColor" d="m224.49 136.49l-72 72a12 12 0 0 1-17-17L187 140H40a12 12 0 0 1 0-24h147l-51.49-51.52a12 12 0 0 1 17-17l72 72a12 12 0 0 1-.02 17.01"/></symbol><symbol id="hd-icon-ph-arrow-right-duotone" viewBox="0 0 256 256"><g fill="currentColor"><path d="m216 128l-72 72V56Z" opacity=".2"/><path d="m221.66 122.34l-72-72A8 8 0 0 0 136 56v64H40a8 8 0 0 0 0 16h96v64a8 8 0 0 0 13.66 5.66l72-72a8 8 0 0 0 0-11.32M152 180.69V75.31L204.69 128Z"/></g></symbol><symbol id="hd-icon-ph-arrow-right-fill" viewBox="0 0 256 256"><path fill="currentColor" d="m221.66 133.66l-72 72A8 8 0 0 1 136 200v-64H40a8 8 0 0 1 0-16h96V56a8 8 0 0 1 13.66-5.66l72 72a8 8 0 0 1 0 11.32"/></symbol><symbol id="hd-icon-ph-arrow-right-light" viewBox="0 0 256 256"><path fill="currentColor" d="m220.24 132.24l-72 72a6 6 0 0 1-8.48-8.48L201.51 134H40a6 6 0 0 1 0-12h161.51l-61.75-61.76a6 6 0 0 1 8.48-8.48l72 72a6 6 0 0 1 0 8.48"/></symbol><symbol id="hd-icon-ph-arrow-right-thin" viewBox="0 0 256 256"><path fill="currentColor" d="m218.83 130.83l-72 72a4 4 0 0 1-5.66-5.66L206.34 132H40a4 4 0 0 1 0-8h166.34l-65.17-65.17a4 4 0 0 1 5.66-5.66l72 72a4 4 0 0 1 0 5.66"/></symbol><symbol id="hd-icon-ph-arrow-square-down" viewBox="0 0 256 256"><path fill="currentColor" d="M208 32H48a16 16 0 0 0-16 16v160a16 16 0 0 0 16 16h160a16 16 0 0 0 16-16V48a16 16 0 0 0-16-16m0 176H48V48h160zm-42.34-77.66a8 8 0 0 1 0 11.32l-32 32a8 8 0 0 1-11.32 0l-32-32a8 8 0 0 1 11.32-11.32L120 148.69V88a8 8 0 0 1 16 0v60.69l18.34-18.35a8 8 0 0 1 11.32 0"/></symbol><symbol id="hd-icon-ph-arrow-square-down-bold" viewBox="0 0 256 256"><path fill="currentColor" d="M208 28H48a20 20 0 0 0-20 20v160a20 20 0 0 0 20 20h160a20 20 0 0 0 20-20V48a20 20 0 0 0-20-20m-4 176H52V52h152ZM87.51 144.49a12 12 0 1 1 17-17L116 139V88a12 12 0 0 1 24 0v51l11.51-11.52a12 12 0 1 1 17 17l-32 32a12 12 0 0 1-17 0Z"/></symbol><symbol id="hd-icon-ph-arrow-square-down-duotone" viewBox="0 0 256 256"><g fill="currentColor"><path d="M216 48v160a8 8 0 0 1-8 8H48a8 8 0 0 1-8-8V48a8 8 0 0 1 8-8h160a8 8 0 0 1 8 8" opacity=".2"/><path d="M208 32H48a16 16 0 0 0-16 16v160a16 16 0 0 0 16 16h160a16 16 0 0 0 16-16V48a16 16 0 0 0-16-16m0 176H48V48h160zm-42.34-77.66a8 8 0 0 1 0 11.32l-32 32a8 8 0 0 1-11.32 0l-32-32a8 8 0 0 1 11.32-11.32L120 148.69V88a8 8 0 0 1 16 0v60.69l18.34-18.35a8 8 0 0 1 11.32 0"/></g></symbol><symbol id="hd-icon-ph-arrow-square-down-fill" viewBox="0 0 256 256"><path fill="currentColor" d="M208 32H48a16 16 0 0 0-16 16v160a16 16 0 0 0 16 16h160a16 16 0 0 0 16-16V48a16 16 0 0 0-16-16m-42.34 109.66l-32 32a8 8 0 0 1-11.32 0l-32-32a8 8 0 0 1 11.32-11.32L120 148.69V88a8 8 0 0 1 16 0v60.69l18.34-18.35a8 8 0 0 1 11.32 11.32"/></symbol><symbol id="hd-icon-ph-arrow-square-down-left" viewBox="0 0 256 256"><path fill="currentColor" d="M208 32H48a16 16 0 0 0-16 16v160a16 16 0 0 0 16 16h160a16 16 0 0 0 16-16V48a16 16 0 0 0-16-16m0 176H48V48h160ZM88 160v-48a8 8 0 0 1 16 0v28.69l50.34-50.35a8 8 0 0 1 11.32 11.32L115.31 152H144a8 8 0 0 1 0 16H96a8 8 0 0 1-8-8"/></symbol><symbol id="hd-icon-ph-arrow-square-down-left-bold" viewBox="0 0 256 256"><path fill="currentColor" d="M208 28H48a20 20 0 0 0-20 20v160a20 20 0 0 0 20 20h160a20 20 0 0 0 20-20V48a20 20 0 0 0-20-20m-4 176H52V52h152ZM84 160v-48a12 12 0 0 1 24 0v19l43.51-43.52a12 12 0 0 1 17 17L125 148h19a12 12 0 0 1 0 24H96a12 12 0 0 1-12-12"/></symbol><symbol id="hd-icon-ph-arrow-square-down-left-duotone" viewBox="0 0 256 256"><g fill="currentColor"><path d="M216 48v160a8 8 0 0 1-8 8H48a8 8 0 0 1-8-8V48a8 8 0 0 1 8-8h160a8 8 0 0 1 8 8" opacity=".2"/><path d="M208 32H48a16 16 0 0 0-16 16v160a16 16 0 0 0 16 16h160a16 16 0 0 0 16-16V48a16 16 0 0 0-16-16m0 176H48V48h160ZM88 160v-48a8 8 0 0 1 16 0v28.69l50.34-50.35a8 8 0 0 1 11.32 11.32L115.31 152H144a8 8 0 0 1 0 16H96a8 8 0 0 1-8-8"/></g></symbol><symbol id="hd-icon-ph-arrow-square-down-left-fill" viewBox="0 0 256 256"><path fill="currentColor" d="M208 32H48a16 16 0 0 0-16 16v160a16 16 0 0 0 16 16h160a16 16 0 0 0 16-16V48a16 16 0 0 0-16-16m-42.34 69.66L115.31 152H144a8 8 0 0 1 0 16H96a8 8 0 0 1-8-8v-48a8 8 0 0 1 16 0v28.69l50.34-50.35a8 8 0 0 1 11.32 11.32"/></symbol><symbol id="hd-icon-ph-arrow-square-down-left-light" viewBox="0 0 256 256"><path fill="currentColor" d="M208 34H48a14 14 0 0 0-14 14v160a14 14 0 0 0 14 14h160a14 14 0 0 0 14-14V48a14 14 0 0 0-14-14m2 174a2 2 0 0 1-2 2H48a2 2 0 0 1-2-2V48a2 2 0 0 1 2-2h160a2 2 0 0 1 2 2ZM164.24 91.76a6 6 0 0 1 0 8.48L110.48 154H144a6 6 0 0 1 0 12H96a6 6 0 0 1-6-6v-48a6 6 0 0 1 12 0v33.52l53.76-53.76a6 6 0 0 1 8.48 0"/></symbol><symbol id="hd-icon-ph-arrow-square-down-left-thin" viewBox="0 0 256 256"><path fill="currentColor" d="M208 36H48a12 12 0 0 0-12 12v160a12 12 0 0 0 12 12h160a12 12 0 0 0 12-12V48a12 12 0 0 0-12-12m4 172a4 4 0 0 1-4 4H48a4 4 0 0 1-4-4V48a4 4 0 0 1 4-4h160a4 4 0 0 1 4 4ZM162.83 93.17a4 4 0 0 1 0 5.66L105.66 156H144a4 4 0 0 1 0 8H96a4 4 0 0 1-4-4v-48a4 4 0 0 1 8 0v38.34l57.17-57.17a4 4 0 0 1 5.66 0"/></symbol><symbol id="hd-icon-ph-arrow-square-down-light" viewBox="0 0 256 256"><path fill="currentColor" d="M208 34H48a14 14 0 0 0-14 14v160a14 14 0 0 0 14 14h160a14 14 0 0 0 14-14V48a14 14 0 0 0-14-14m2 174a2 2 0 0 1-2 2H48a2 2 0 0 1-2-2V48a2 2 0 0 1 2-2h160a2 2 0 0 1 2 2Zm-45.76-76.24a6 6 0 0 1 0 8.48l-32 32a6 6 0 0 1-8.48 0l-32-32a6 6 0 0 1 8.48-8.48L122 153.51V88a6 6 0 0 1 12 0v65.51l21.76-21.75a6 6 0 0 1 8.48 0"/></symbol><symbol id="hd-icon-ph-arrow-square-down-right" viewBox="0 0 256 256"><path fill="currentColor" d="M208 32H48a16 16 0 0 0-16 16v160a16 16 0 0 0 16 16h160a16 16 0 0 0 16-16V48a16 16 0 0 0-16-16m0 176H48V48h160ZM90.34 101.66a8 8 0 0 1 11.32-11.32L152 140.69V112a8 8 0 0 1 16 0v48a8 8 0 0 1-8 8h-48a8 8 0 0 1 0-16h28.69Z"/></symbol><symbol id="hd-icon-ph-arrow-square-down-right-bold" viewBox="0 0 256 256"><path fill="currentColor" d="M208 28H48a20 20 0 0 0-20 20v160a20 20 0 0 0 20 20h160a20 20 0 0 0 20-20V48a20 20 0 0 0-20-20m-4 176H52V52h152ZM87.51 104.49a12 12 0 0 1 17-17L148 131v-19a12 12 0 0 1 24 0v48a12 12 0 0 1-12 12h-48a12 12 0 0 1 0-24h19Z"/></symbol></svg>