<svg xmlns="http://www.w3.org/2000/svg" xmlns:xlink="http://www.w3.org/1999/xlink"><symbol id="hd-icon-ic-baseline-10k" viewBox="0 0 24 24"><path fill="currentColor" d="M10 10.5h1.5v3H10zM19 3H5c-1.1 0-2 .9-2 2v14c0 1.1.9 2 2 2h14c1.1 0 2-.9 2-2V5c0-1.1-.9-2-2-2M7.5 15H6v-4.5H4.5V9h3zm5.5-1c0 .55-.45 1-1 1H9.5c-.55 0-1-.45-1-1v-4c0-.55.45-1 1-1H12c.55 0 1 .45 1 1zm6.5 1h-1.75L16 12.75V15h-1.5V9H16v2.25L17.75 9h1.75l-2.25 3z"/></symbol><symbol id="hd-icon-ic-baseline-10mp" viewBox="0 0 24 24"><path fill="currentColor" d="M13.5 7H15v3h-1.5zM19 3H5c-1.1 0-2 .9-2 2v14c0 1.1.9 2 2 2h14c1.1 0 2-.9 2-2V5c0-1.1-.9-2-2-2m-7 15.5h-1.5V14h-1v3H8v-3H7v4.5H5.5v-5c0-.55.45-1 1-1H11c.55 0 1 .45 1 1zm3.5 0H14v-6h3.5c.55 0 1 .45 1 1V16c0 .55-.45 1-1 1h-2zM10 5.5v6H8.5V7H7V5.5zm6.5 5c0 .55-.45 1-1 1H13c-.55 0-1-.45-1-1v-4c0-.55.45-1 1-1h2.5c.55 0 1 .45 1 1zm-1 3.5H17v1.5h-1.5z"/></symbol><symbol id="hd-icon-ic-baseline-11mp" viewBox="0 0 24 24"><path fill="currentColor" d="M19 3H5c-1.1 0-2 .9-2 2v14c0 1.1.9 2 2 2h14c1.1 0 2-.9 2-2V5c0-1.1-.9-2-2-2m-7 15.5h-1.5V14h-1v3H8v-3H7v4.5H5.5v-5c0-.55.45-1 1-1H11c.55 0 1 .45 1 1zm3.5 0H14v-6h3.5c.55 0 1 .45 1 1V16c0 .55-.45 1-1 1h-2zM11 5.5v6H9.5V7H8V5.5zm5 0v6h-1.5V7H13V5.5zm-.5 8.5H17v1.5h-1.5z"/></symbol><symbol id="hd-icon-ic-baseline-123" viewBox="0 0 24 24"><path fill="currentColor" d="M7 15H5.5v-4.5H4V9h3zm6.5-1.5h-3v-1h2c.55 0 1-.45 1-1V10c0-.55-.45-1-1-1H9v1.5h3v1h-2c-.55 0-1 .45-1 1V15h4.5zm6 .5v-4c0-.55-.45-1-1-1H15v1.5h3v1h-2v1h2v1h-3V15h3.5c.55 0 1-.45 1-1"/></symbol><symbol id="hd-icon-ic-baseline-12mp" viewBox="0 0 24 24"><path fill="currentColor" d="M19 3H5c-1.1 0-2 .9-2 2v14c0 1.1.9 2 2 2h14c1.1 0 2-.9 2-2V5c0-1.1-.9-2-2-2m-7 15.5h-1.5V14h-1v3H8v-3H7v4.5H5.5v-5c0-.55.45-1 1-1H11c.55 0 1 .45 1 1zm3.5 0H14v-6h3.5c.55 0 1 .45 1 1V16c0 .55-.45 1-1 1h-2zM10 5.5v6H8.5V7H7V5.5zM15.5 9h-2v1h3v1.5H12V9c0-.55.45-1 1-1h2V7h-3V5.5h3.5c.55 0 1 .45 1 1V8c0 .55-.45 1-1 1m0 5H17v1.5h-1.5z"/></symbol><symbol id="hd-icon-ic-baseline-13mp" viewBox="0 0 24 24"><path fill="currentColor" d="M19 3H5c-1.1 0-2 .9-2 2v14c0 1.1.9 2 2 2h14c1.1 0 2-.9 2-2V5c0-1.1-.9-2-2-2m-7 15.5h-1.5V14h-1v3H8v-3H7v4.5H5.5v-5c0-.55.45-1 1-1H11c.55 0 1 .45 1 1zm3.5 0H14v-6h3.5c.55 0 1 .45 1 1V16c0 .55-.45 1-1 1h-2zM10 5.5v6H8.5V7H7V5.5zm6.5 5c0 .55-.45 1-1 1H12V10h3V9h-2V8h2V7h-3V5.5h3.5c.55 0 1 .45 1 1zm-1 3.5H17v1.5h-1.5z"/></symbol><symbol id="hd-icon-ic-baseline-14mp" viewBox="0 0 24 24"><path fill="currentColor" d="M19 3H5c-1.1 0-2 .9-2 2v14c0 1.1.9 2 2 2h14c1.1 0 2-.9 2-2V5c0-1.1-.9-2-2-2m-7 15.5h-1.5V14h-1v3H8v-3H7v4.5H5.5v-5c0-.55.45-1 1-1H11c.55 0 1 .45 1 1zm3.5 0H14v-6h3.5c.55 0 1 .45 1 1V16c0 .55-.45 1-1 1h-2zM10 5.5v6H8.5V7H7V5.5zm7.5 4.5h-1v1.5H15V10h-3V5.5h1.5v3H15v-3h1.5v3h1zm-2 4H17v1.5h-1.5z"/></symbol><symbol id="hd-icon-ic-baseline-15mp" viewBox="0 0 24 24"><path fill="currentColor" d="M19 3H5c-1.1 0-2 .9-2 2v14c0 1.1.9 2 2 2h14c1.1 0 2-.9 2-2V5c0-1.1-.9-2-2-2m-7 15.5h-1.5V14h-1v3H8v-3H7v4.5H5.5v-5c0-.55.45-1 1-1H11c.55 0 1 .45 1 1zm3.5 0H14v-6h3.5c.55 0 1 .45 1 1V16c0 .55-.45 1-1 1h-2zM10 5.5v6H8.5V7H7V5.5zM16.5 7h-3v1h2c.55 0 1 .45 1 1v1.5c0 .55-.45 1-1 1H12V10h3V9h-3V5.5h4.5zm-1 7H17v1.5h-1.5z"/></symbol><symbol id="hd-icon-ic-baseline-16mp" viewBox="0 0 24 24"><path fill="currentColor" d="M13.5 9H15v1.5h-1.5zM19 3H5c-1.1 0-2 .9-2 2v14c0 1.1.9 2 2 2h14c1.1 0 2-.9 2-2V5c0-1.1-.9-2-2-2m-7 15.5h-1.5V14h-1v3H8v-3H7v4.5H5.5v-5c0-.55.45-1 1-1H11c.55 0 1 .45 1 1zm3.5 0H14v-6h3.5c.55 0 1 .45 1 1V16c0 .55-.45 1-1 1h-2zM10 5.5v6H8.5V7H7V5.5zm3 6c-.55 0-1-.45-1-1v-4c0-.55.45-1 1-1h3.5V7h-3v1h2c.55 0 1 .45 1 1v1.5c0 .55-.45 1-1 1zm2.5 2.5H17v1.5h-1.5z"/></symbol><symbol id="hd-icon-ic-baseline-17mp" viewBox="0 0 24 24"><path fill="currentColor" d="M19 3H5c-1.1 0-2 .9-2 2v14c0 1.1.9 2 2 2h14c1.1 0 2-.9 2-2V5c0-1.1-.9-2-2-2m-7 15.5h-1.5V14h-1v3H8v-3H7v4.5H5.5v-5c0-.55.45-1 1-1H11c.55 0 1 .45 1 1zm3.5 0H14v-6h3.5c.55 0 1 .45 1 1V16c0 .55-.45 1-1 1h-2zM10 5.5v6H8.5V7H7V5.5zm5 6h-1.75L14.62 7H12V5.5h3.5c.67 0 1.15.65.96 1.29zm.5 2.5H17v1.5h-1.5z"/></symbol><symbol id="hd-icon-ic-baseline-18-up-rating" viewBox="0 0 24 24"><path fill="currentColor" d="M13 12.5h1.5V14H13zm0-2.5h1.5v1.5H13z"/><path fill="currentColor" d="M19 3H5c-1.1 0-2 .9-2 2v14c0 1.1.9 2 2 2h14c1.1 0 2-.9 2-2V5c0-1.1-.9-2-2-2m-9 12H8.5v-4.5H7V9h3zm6-1c0 .55-.45 1-1 1h-2.5c-.55 0-1-.45-1-1v-4c0-.55.45-1 1-1H15c.55 0 1 .45 1 1z"/></symbol><symbol id="hd-icon-ic-baseline-18mp" viewBox="0 0 24 24"><path fill="currentColor" d="M19 3H5c-1.1 0-2 .9-2 2v14c0 1.1.9 2 2 2h14c1.1 0 2-.9 2-2V5c0-1.1-.9-2-2-2m-7 15.5h-1.5V14h-1v3H8v-3H7v4.5H5.5v-5c0-.55.45-1 1-1H11c.55 0 1 .45 1 1zm3.5 0H14v-6h3.5c.55 0 1 .45 1 1V16c0 .55-.45 1-1 1h-2zM10 5.5v6H8.5V7H7V5.5zm6.5 5c0 .55-.45 1-1 1H13c-.55 0-1-.45-1-1v-4c0-.55.45-1 1-1h2.5c.55 0 1 .45 1 1zm-3 0H15V9h-1.5zm0-2.5H15V6.5h-1.5zm2 6H17v1.5h-1.5z"/></symbol><symbol id="hd-icon-ic-baseline-19mp" viewBox="0 0 24 24"><path fill="currentColor" d="M19 3H5c-1.1 0-2 .9-2 2v14c0 1.1.9 2 2 2h14c1.1 0 2-.9 2-2V5c0-1.1-.9-2-2-2m-7 7h3V9h-2c-.55 0-1-.45-1-1V6.5c0-.55.45-1 1-1h2.5c.55 0 1 .45 1 1v4c0 .55-.45 1-1 1H12zm1.5-2H15V6.5h-1.5zM7 5.5h3v6H8.5V7H7zm5 13h-1.5V14h-1v3H8v-3H7v4.5H5.5v-5c0-.55.45-1 1-1H11c.55 0 1 .45 1 1zm6.5-2.5c0 .55-.45 1-1 1h-2v1.5H14v-6h3.5c.55 0 1 .45 1 1zm-3-2H17v1.5h-1.5z"/></symbol><symbol id="hd-icon-ic-baseline-1k" viewBox="0 0 24 24"><path fill="currentColor" d="M19 3H5c-1.1 0-2 .9-2 2v14c0 1.1.9 2 2 2h14c1.1 0 2-.9 2-2V5c0-1.1-.9-2-2-2m-8.5 12H9v-4.5H7.5V9h3zm7 0h-1.75L14 12.75V15h-1.5V9H14v2.25L15.75 9h1.75l-2.25 3z"/></symbol><symbol id="hd-icon-ic-baseline-1k-plus" viewBox="0 0 24 24"><path fill="currentColor" d="M19 3H5c-1.1 0-2 .9-2 2v14c0 1.1.9 2 2 2h14c1.1 0 2-.9 2-2V5c0-1.1-.9-2-2-2M9 15H7.5v-4.5H6V9h3zm4.75 0L12 12.75V15h-1.5V9H12v2.25L13.75 9h1.75l-2.25 3l2.25 3zm5.75-2.5H18V14h-1v-1.5h-1.5v-1H17V10h1v1.5h1.5z"/></symbol><symbol id="hd-icon-ic-baseline-1x-mobiledata" viewBox="0 0 24 24"><path fill="currentColor" d="M4 7h4v10H6V9H4zm11.83 4.72L18.66 7h-2.33l-1.66 2.77L13 7h-2.33l2.83 4.72L10.33 17h2.33l2-3.34l2 3.34H19z"/></symbol><symbol id="hd-icon-ic-baseline-20mp" viewBox="0 0 24 24"><path fill="currentColor" d="M14.5 7H16v3h-1.5zM19 3H5c-1.1 0-2 .9-2 2v14c0 1.1.9 2 2 2h14c1.1 0 2-.9 2-2V5c0-1.1-.9-2-2-2m-7 15.5h-1.5V14h-1v3H8v-3H7v4.5H5.5v-5c0-.55.45-1 1-1H11c.55 0 1 .45 1 1zm3.5 0H14v-6h3.5c.55 0 1 .45 1 1V16c0 .55-.45 1-1 1h-2zm2-8c0 .55-.45 1-1 1H14c-.55 0-1-.45-1-1v-4c0-.55.45-1 1-1h2.5c.55 0 1 .45 1 1zM10 9H8v1h3v1.5H6.5V9c0-.55.45-1 1-1h2V7h-3V5.5H10c.55 0 1 .45 1 1V8c0 .55-.45 1-1 1m5.5 5H17v1.5h-1.5z"/></symbol><symbol id="hd-icon-ic-baseline-21mp" viewBox="0 0 24 24"><path fill="currentColor" d="M19 3H5c-1.1 0-2 .9-2 2v14c0 1.1.9 2 2 2h14c1.1 0 2-.9 2-2V5c0-1.1-.9-2-2-2m-7 15.5h-1.5V14h-1v3H8v-3H7v4.5H5.5v-5c0-.55.45-1 1-1H11c.55 0 1 .45 1 1zm3.5 0H14v-6h3.5c.55 0 1 .45 1 1V16c0 .55-.45 1-1 1h-2zM11 9H9v1h3v1.5H7.5V9c0-.55.45-1 1-1h2V7h-3V5.5H11c.55 0 1 .45 1 1V8c0 .55-.45 1-1 1m3-3.5h3v6h-1.5V7H14zm1.5 8.5H17v1.5h-1.5z"/></symbol><symbol id="hd-icon-ic-baseline-22mp" viewBox="0 0 24 24"><path fill="currentColor" d="M19 3H5c-1.1 0-2 .9-2 2v14c0 1.1.9 2 2 2h14c1.1 0 2-.9 2-2V5c0-1.1-.9-2-2-2m-7 15.5h-1.5V14h-1v3H8v-3H7v4.5H5.5v-5c0-.55.45-1 1-1H11c.55 0 1 .45 1 1zm3.5 0H14v-6h3.5c.55 0 1 .45 1 1V16c0 .55-.45 1-1 1h-2zM10 9H8v1h3v1.5H6.5V9c0-.55.45-1 1-1h2V7h-3V5.5H10c.55 0 1 .45 1 1V8c0 .55-.45 1-1 1m6.5 0h-2v1h3v1.5H13V9c0-.55.45-1 1-1h2V7h-3V5.5h3.5c.55 0 1 .45 1 1V8c0 .55-.45 1-1 1m-1 5H17v1.5h-1.5z"/></symbol><symbol id="hd-icon-ic-baseline-23mp" viewBox="0 0 24 24"><path fill="currentColor" d="M19 3H5c-1.1 0-2 .9-2 2v14c0 1.1.9 2 2 2h14c1.1 0 2-.9 2-2V5c0-1.1-.9-2-2-2m-7 15.5h-1.5V14h-1v3H8v-3H7v4.5H5.5v-5c0-.55.45-1 1-1H11c.55 0 1 .45 1 1zm3.5 0H14v-6h3.5c.55 0 1 .45 1 1V16c0 .55-.45 1-1 1h-2zM10 9H8v1h3v1.5H6.5V9c0-.55.45-1 1-1h2V7h-3V5.5H10c.55 0 1 .45 1 1V8c0 .55-.45 1-1 1m7.5 1.5c0 .55-.45 1-1 1H13V10h3V9h-2V8h2V7h-3V5.5h3.5c.55 0 1 .45 1 1zm-2 3.5H17v1.5h-1.5z"/></symbol><symbol id="hd-icon-ic-baseline-24mp" viewBox="0 0 24 24"><path fill="currentColor" d="M19 3H5c-1.1 0-2 .9-2 2v14c0 1.1.9 2 2 2h14c1.1 0 2-.9 2-2V5c0-1.1-.9-2-2-2m-7 15.5h-1.5V14h-1v3H8v-3H7v4.5H5.5v-5c0-.55.45-1 1-1H11c.55 0 1 .45 1 1zm3.5 0H14v-6h3.5c.55 0 1 .45 1 1V16c0 .55-.45 1-1 1h-2zM10 9H8v1h3v1.5H6.5V9c0-.55.45-1 1-1h2V7h-3V5.5H10c.55 0 1 .45 1 1V8c0 .55-.45 1-1 1m8.5 1h-1v1.5H16V10h-3V5.5h1.5v3H16v-3h1.5v3h1zm-3 4H17v1.5h-1.5z"/></symbol><symbol id="hd-icon-ic-baseline-2k" viewBox="0 0 24 24"><path fill="currentColor" d="M19 3H5c-1.1 0-2 .9-2 2v14c0 1.1.9 2 2 2h14c1.1 0 2-.9 2-2V5c0-1.1-.9-2-2-2m-9 9.5H8v1h3V15H6.5v-2.5c0-.55.45-1 1-1h2v-1h-3V9H10c.55 0 1 .45 1 1v1.5c0 .55-.45 1-1 1m8 2.5h-1.75l-1.75-2.25V15H13V9h1.5v2.25L16.25 9H18l-2.25 3z"/></symbol><symbol id="hd-icon-ic-baseline-2k-plus" viewBox="0 0 24 24"><path fill="currentColor" d="M19 3H5c-1.1 0-2 .9-2 2v14c0 1.1.9 2 2 2h14c1.1 0 2-.9 2-2V5c0-1.1-.9-2-2-2m-9.5 8.5c0 .55-.45 1-1 1h-2v1h3V15H5v-2.5c0-.55.45-1 1-1h2v-1H5V9h3.5c.55 0 1 .45 1 1zm4.75 3.5l-1.75-2.25V15H11V9h1.5v2.25L14.25 9H16l-2.25 3L16 15zM20 12.5h-1.5V14h-1v-1.5H16v-1h1.5V10h1v1.5H20z"/></symbol><symbol id="hd-icon-ic-baseline-2mp" viewBox="0 0 24 24"><path fill="currentColor" d="M19 3H5c-1.1 0-2 .9-2 2v14c0 1.1.9 2 2 2h14c1.1 0 2-.9 2-2V5c0-1.1-.9-2-2-2m-7 15.5h-1.5V14h-1v3H8v-3H7v4.5H5.5v-5c0-.55.45-1 1-1H11c.55 0 1 .45 1 1zm3.5 0H14v-6h3.5c.55 0 1 .45 1 1V16c0 .55-.45 1-1 1h-2zm-2-9.5h-2v1h3v1.5H10V9c0-.55.45-1 1-1h2V7h-3V5.5h3.5c.55 0 1 .45 1 1V8c0 .55-.45 1-1 1m2 5H17v1.5h-1.5z"/></symbol><symbol id="hd-icon-ic-baseline-30fps" viewBox="0 0 24 24"><path fill="currentColor" d="M2 5v3h6v2.5H3v3h5V16H2v3h6c1.66 0 3-1.34 3-3v-1.9A2.1 2.1 0 0 0 8.9 12A2.1 2.1 0 0 0 11 9.9V8c0-1.66-1.34-3-3-3zm17 3v8h-4V8zm0-3h-4c-1.66 0-3 1.34-3 3v8c0 1.66 1.34 3 3 3h4c1.66 0 3-1.34 3-3V8c0-1.66-1.34-3-3-3"/></symbol><symbol id="hd-icon-ic-baseline-30fps-select" viewBox="0 0 24 24"><path fill="currentColor" d="M4 4v2h5v2H5v2h4v2H4v2h5c1.1 0 2-.9 2-2v-1.5c0-.83-.17-1.5-1-1.5c.83 0 1-.67 1-1.5V6c0-1.1-.9-2-2-2zm14 0c1.1 0 2 .9 2 2v6c0 1.1-.9 2-2 2h-3c-1.1 0-2-.9-2-2V6c0-1.1.9-2 2-2zm0 2h-3v6h3zM5 22H3v-5h2zm4 0H7v-5h2zm4 0h-2v-5h2zm8 0h-6v-5h6z"/></symbol><symbol id="hd-icon-ic-baseline-360" viewBox="0 0 24 24"><path fill="currentColor" d="M12 7C6.48 7 2 9.24 2 12c0 2.24 2.94 4.13 7 4.77V20l4-4l-4-4v2.73c-3.15-.56-5-1.9-5-2.73c0-1.06 3.04-3 8-3s8 1.94 8 3c0 .73-1.46 1.89-4 2.53v2.05c3.53-.77 6-2.53 6-4.58c0-2.76-4.48-5-10-5"/></symbol><symbol id="hd-icon-ic-baseline-3d-rotation" viewBox="0 0 24 24"><path fill="currentColor" d="M7.52 21.48A10.49 10.49 0 0 1 1.55 13H.05C.56 19.16 5.71 24 12 24l.66-.03l-3.81-3.81zm.89-6.52c-.19 0-.37-.03-.52-.08a1.1 1.1 0 0 1-.4-.24c-.11-.1-.2-.22-.26-.37c-.06-.14-.09-.3-.09-.47h-1.3c0 .36.07.68.21.95s.33.5.56.69c.24.18.51.32.82.41q.45.15.96.15c.37 0 .72-.05 1.03-.15c.32-.1.6-.25.83-.44s.42-.43.55-.72s.2-.61.2-.97c0-.19-.02-.38-.07-.56a1.7 1.7 0 0 0-.23-.51c-.1-.16-.24-.3-.4-.43c-.17-.13-.37-.23-.61-.31a2.1 2.1 0 0 0 .89-.75c.1-.15.17-.3.22-.46s.07-.32.07-.48q0-.54-.18-.96a1.8 1.8 0 0 0-.51-.69c-.2-.19-.47-.33-.77-.43C9.1 8.05 8.76 8 8.39 8c-.36 0-.69.05-1 .16c-.3.11-.57.26-.79.45c-.21.19-.38.41-.51.67c-.12.26-.18.54-.18.85h1.3q0-.255.09-.45c.09-.195.14-.25.25-.34s.23-.17.38-.22s.3-.08.48-.08c.4 0 .7.1.89.31c.19.2.29.49.29.86c0 .18-.03.34-.08.49a.87.87 0 0 1-.25.37c-.11.1-.25.18-.41.24s-.36.09-.58.09H7.5v1.03h.77c.22 0 .42.02.6.07s.33.13.45.23c.12.11.22.24.29.4s.1.35.1.57c0 .41-.12.72-.35.93c-.23.23-.55.33-.95.33m8.55-5.92c-.32-.33-.7-.59-1.14-.77c-.43-.18-.92-.27-1.46-.27H12v8h2.3c.55 0 1.06-.09 1.51-.27s.84-.43 1.16-.76s.57-.73.74-1.19c.17-.47.26-.99.26-1.57v-.4c0-.58-.09-1.1-.26-1.57q-.27-.705-.75-1.2m-.39 3.16c0 .42-.05.79-.14 1.13c-.1.33-.24.62-.43.85s-.43.41-.71.53q-.435.18-.99.18h-.91V9.12h.97c.72 0 1.27.23 1.64.69c.38.46.57 1.12.57 1.99zM12 0l-.66.03l3.81 3.81l1.33-1.33c3.27 1.55 5.61 4.72 5.96 8.48h1.5C23.44 4.84 18.29 0 12 0"/></symbol><symbol id="hd-icon-ic-baseline-3g-mobiledata" viewBox="0 0 24 24"><path fill="currentColor" d="M3 7v2h5v2H4v2h4v2H3v2h5c1.1 0 2-.9 2-2v-1.5c0-.83-.67-1.5-1.5-1.5c.83 0 1.5-.67 1.5-1.5V9c0-1.1-.9-2-2-2zm18 4v4c0 1.1-.9 2-2 2h-5c-1.1 0-2-.9-2-2V9c0-1.1.9-2 2-2h5c1.1 0 2 .9 2 2h-7v6h5v-2h-2.5v-2z"/></symbol><symbol id="hd-icon-ic-baseline-3k" viewBox="0 0 24 24"><path fill="currentColor" d="M19 3H5c-1.1 0-2 .9-2 2v14c0 1.1.9 2 2 2h14c1.1 0 2-.9 2-2V5c0-1.1-.9-2-2-2m-8 11c0 .55-.45 1-1 1H6.5v-1.5h3v-1h-2v-1h2v-1h-3V9H10c.55 0 1 .45 1 1zm7 1h-1.75l-1.75-2.25V15H13V9h1.5v2.25L16.25 9H18l-2.25 3z"/></symbol><symbol id="hd-icon-ic-baseline-3k-plus" viewBox="0 0 24 24"><path fill="currentColor" d="M19 3H5c-1.1 0-2 .9-2 2v14c0 1.1.9 2 2 2h14c1.1 0 2-.9 2-2V5c0-1.1-.9-2-2-2M9.5 14c0 .55-.45 1-1 1H5v-1.5h3v-1H6v-1h2v-1H5V9h3.5c.55 0 1 .45 1 1zm6.5 1h-1.75l-1.75-2.25V15H11V9h1.5v2.25L14.25 9H16l-2.25 3zm4-2.5h-1.5V14h-1v-1.5H16v-1h1.5V10h1v1.5H20z"/></symbol><symbol id="hd-icon-ic-baseline-3mp" viewBox="0 0 24 24"><path fill="currentColor" d="M19 3H5c-1.1 0-2 .9-2 2v14c0 1.1.9 2 2 2h14c1.1 0 2-.9 2-2V5c0-1.1-.9-2-2-2m-7 15.5h-1.5V14h-1v3H8v-3H7v4.5H5.5v-5c0-.55.45-1 1-1H11c.55 0 1 .45 1 1zm3.5 0H14v-6h3.5c.55 0 1 .45 1 1V16c0 .55-.45 1-1 1h-2zm-1-8c0 .55-.45 1-1 1H10V10h3V9h-2V8h2V7h-3V5.5h3.5c.55 0 1 .45 1 1zm1 3.5H17v1.5h-1.5z"/></symbol><symbol id="hd-icon-ic-baseline-3p" viewBox="0 0 24 24"><path fill="currentColor" d="M20 2H4.01c-1.1 0-2 .9-2 2L2 22l4-4h14c1.1 0 2-.9 2-2V4c0-1.1-.9-2-2-2m-8 4c1.1 0 2 .9 2 2s-.9 2-2 2s-2-.9-2-2s.9-2 2-2m4 8H8v-.57c0-.81.48-1.53 1.22-1.85a6.95 6.95 0 0 1 5.56 0A2.01 2.01 0 0 1 16 13.43z"/></symbol><symbol id="hd-icon-ic-baseline-4g-mobiledata" viewBox="0 0 24 24"><path fill="currentColor" d="M9 7H7v5H5V7H3v7h4v3h2v-3h2v-2H9zm8 4v2h2v2h-5V9h7c0-1.1-.9-2-2-2h-5c-1.1 0-2 .9-2 2v6c0 1.1.9 2 2 2h5c1.1 0 2-.9 2-2v-4z"/></symbol><symbol id="hd-icon-ic-baseline-4g-plus-mobiledata" viewBox="0 0 24 24"><path fill="currentColor" d="M13 11v2h2v2h-4V9h6c0-1.1-.9-2-2-2h-4c-1.1 0-2 .9-2 2v6c0 1.1.9 2 2 2h4c1.1 0 2-.9 2-2v-4zm11 0h-2V9h-2v2h-2v2h2v2h2v-2h2zM7 7H5v5H3V7H1v7h4v3h2v-3h1v-2H7z"/></symbol><symbol id="hd-icon-ic-baseline-4k" viewBox="0 0 24 24"><path fill="currentColor" d="M19 3H5c-1.1 0-2 .9-2 2v14c0 1.1.9 2 2 2h14c1.1 0 2-.9 2-2V5c0-1.1-.9-2-2-2m-7 10.5h-1V15H9.5v-1.5h-3V9H8v3h1.5V9H11v3h1zm6 1.5h-1.75l-1.75-2.25V15H13V9h1.5v2.25L16.25 9H18l-2.25 3z"/></symbol><symbol id="hd-icon-ic-baseline-4k-plus" viewBox="0 0 24 24"><path fill="currentColor" d="M19 3H5c-1.1 0-2 .9-2 2v14c0 1.1.9 2 2 2h14c1.1 0 2-.9 2-2V5c0-1.1-.9-2-2-2m-8.5 10.5h-1V15H8v-1.5H5V9h1.5v3H8V9h1.5v3h1zM16 15h-1.75l-1.75-2.25V15H11V9h1.5v2.25L14.25 9H16l-2.25 3zm4-2.5h-1.5V14h-1v-1.5H16v-1h1.5V10h1v1.5H20z"/></symbol><symbol id="hd-icon-ic-baseline-4mp" viewBox="0 0 24 24"><path fill="currentColor" d="M19 3H5c-1.1 0-2 .9-2 2v14c0 1.1.9 2 2 2h14c1.1 0 2-.9 2-2V5c0-1.1-.9-2-2-2m-7 15.5h-1.5V14h-1v3H8v-3H7v4.5H5.5v-5c0-.55.45-1 1-1H11c.55 0 1 .45 1 1zm3-8.5h-1v1.5h-1.5V10h-3V5.5H11v3h1.5v-3H14v3h1zm.5 8.5H14v-6h3.5c.55 0 1 .45 1 1V16c0 .55-.45 1-1 1h-2zm0-4.5H17v1.5h-1.5z"/></symbol><symbol id="hd-icon-ic-baseline-5g" viewBox="0 0 24 24"><path fill="currentColor" d="M17 13h2v2h-5V9h7c0-1.1-.9-2-2-2h-5c-1.1 0-2 .9-2 2v6c0 1.1.9 2 2 2h5c1.1 0 2-.9 2-2v-4h-4zM3 13h5v2H3v2h5c1.1 0 2-.9 2-2v-2c0-1.1-.9-2-2-2H5V9h5V7H3z"/></symbol><symbol id="hd-icon-ic-baseline-5k" viewBox="0 0 24 24"><path fill="currentColor" d="M19 3H5c-1.1 0-2 .9-2 2v14c0 1.1.9 2 2 2h14c1.1 0 2-.9 2-2V5c0-1.1-.9-2-2-2m-8 7.5H8v1h2c.55 0 1 .45 1 1V14c0 .55-.45 1-1 1H6.5v-1.5h3v-1h-3V9H11zm7 4.5h-1.75l-1.75-2.25V15H13V9h1.5v2.25L16.25 9H18l-2.25 3z"/></symbol><symbol id="hd-icon-ic-baseline-5k-plus" viewBox="0 0 24 24"><path fill="currentColor" d="M19 3H5c-1.1 0-2 .9-2 2v14c0 1.1.9 2 2 2h14c1.1 0 2-.9 2-2V5c0-1.1-.9-2-2-2m-9.5 7.5h-3v1h2c.55 0 1 .45 1 1V14c0 .55-.45 1-1 1H5v-1.5h3v-1H5V9h4.5zM16 15h-1.75l-1.75-2.25V15H11V9h1.5v2.25L14.25 9H16l-2.25 3zm4-2.5h-1.5V14h-1v-1.5H16v-1h1.5V10h1v1.5H20z"/></symbol><symbol id="hd-icon-ic-baseline-5mp" viewBox="0 0 24 24"><path fill="currentColor" d="M19 3H5c-1.1 0-2 .9-2 2v14c0 1.1.9 2 2 2h14c1.1 0 2-.9 2-2V5c0-1.1-.9-2-2-2m-7 15.5h-1.5V14h-1v3H8v-3H7v4.5H5.5v-5c0-.55.45-1 1-1H11c.55 0 1 .45 1 1zm3.5 0H14v-6h3.5c.55 0 1 .45 1 1V16c0 .55-.45 1-1 1h-2zM14.5 7h-3v1h2c.55 0 1 .45 1 1v1.5c0 .55-.45 1-1 1H10V10h3V9h-3V5.5h4.5zm1 7H17v1.5h-1.5z"/></symbol><symbol id="hd-icon-ic-baseline-6-ft-apart" viewBox="0 0 24 24"><path fill="currentColor" d="M6 6c1.1 0 2-.9 2-2s-.9-2-2-2s-2 .9-2 2s.9 2 2 2m4 3.43c0-.81-.48-1.53-1.22-1.85a6.95 6.95 0 0 0-5.56 0A2.01 2.01 0 0 0 2 9.43V10h8zM18 6c1.1 0 2-.9 2-2s-.9-2-2-2s-2 .9-2 2s.9 2 2 2m4 3.43c0-.81-.48-1.53-1.22-1.85a6.95 6.95 0 0 0-5.56 0A2.01 2.01 0 0 0 14 9.43V10h8zM19 17v-2.01L5 15v2l-3-3l3-3v2.01L19 13v-2l3 3zm-9 2v-1H7.5c-.28 0-.5.22-.5.5v3c0 .28.22.5.5.5h2c.28 0 .5-.22.5-.5V20c0-.28-.22-.5-.5-.5H8V19zm-1 1.5v.5H8v-.5zm8.5-1.5h-1v3h-1v-3h-1v-1h3zm-5 0v.5h1v1h-1V22h-1v-4H14v1z"/></symbol><symbol id="hd-icon-ic-baseline-60fps" viewBox="0 0 24 24"><path fill="currentColor" d="M19 8v8h-4V8zm0-3h-4c-1.66 0-3 1.34-3 3v8c0 1.66 1.34 3 3 3h4c1.66 0 3-1.34 3-3V8c0-1.66-1.34-3-3-3m-9 3V5H5C3.34 5 2 6.34 2 8v8c0 1.66 1.34 3 3 3h3c1.66 0 3-1.34 3-3v-3c0-1.66-1.34-3-3-3H5V8zm-2 5v3H5v-3z"/></symbol><symbol id="hd-icon-ic-baseline-60fps-select" viewBox="0 0 24 24"><path fill="currentColor" d="M18 6v6h-3V6zm0-2h-3c-1.1 0-2 .9-2 2v6c0 1.1.9 2 2 2h3c1.1 0 2-.9 2-2V6c0-1.1-.9-2-2-2m-7 2V4H6c-1.1 0-2 .9-2 2v6c0 1.1.9 2 2 2h3c1.1 0 2-.9 2-2v-2c0-1.1-.9-2-2-2H6V6zm-2 4v2H6v-2zM5 22H3v-5h2zm4 0H7v-5h2zm4 0h-2v-5h2zm8 0h-6v-5h6z"/></symbol><symbol id="hd-icon-ic-baseline-6k" viewBox="0 0 24 24"><path fill="currentColor" d="M8 12.5h1.5V14H8zM19 3H5c-1.1 0-2 .9-2 2v14c0 1.1.9 2 2 2h14c1.1 0 2-.9 2-2V5c0-1.1-.9-2-2-2m-8 7.5H8v1h2c.55 0 1 .45 1 1V14c0 .55-.45 1-1 1H7.5c-.55 0-1-.45-1-1v-4c0-.55.45-1 1-1H11zm7 4.5h-1.75l-1.75-2.25V15H13V9h1.5v2.25L16.25 9H18l-2.25 3z"/></symbol><symbol id="hd-icon-ic-baseline-6k-plus" viewBox="0 0 24 24"><path fill="currentColor" d="M6.5 12.5H8V14H6.5zM19 3H5c-1.1 0-2 .9-2 2v14c0 1.1.9 2 2 2h14c1.1 0 2-.9 2-2V5c0-1.1-.9-2-2-2m-9.5 7.5h-3v1h2c.55 0 1 .45 1 1V14c0 .55-.45 1-1 1H6c-.55 0-1-.45-1-1v-4c0-.55.45-1 1-1h3.5zM16 15h-1.75l-1.75-2.25V15H11V9h1.5v2.25L14.25 9H16l-2.25 3zm4-2.5h-1.5V14h-1v-1.5H16v-1h1.5V10h1v1.5H20z"/></symbol><symbol id="hd-icon-ic-baseline-6mp" viewBox="0 0 24 24"><path fill="currentColor" d="M11.5 9H13v1.5h-1.5zM19 3H5c-1.1 0-2 .9-2 2v14c0 1.1.9 2 2 2h14c1.1 0 2-.9 2-2V5c0-1.1-.9-2-2-2m-7 15.5h-1.5V14h-1v3H8v-3H7v4.5H5.5v-5c0-.55.45-1 1-1H11c.55 0 1 .45 1 1zm-1-7c-.55 0-1-.45-1-1v-4c0-.55.45-1 1-1h3.5V7h-3v1h2c.55 0 1 .45 1 1v1.5c0 .55-.45 1-1 1zm4.5 7H14v-6h3.5c.55 0 1 .45 1 1V16c0 .55-.45 1-1 1h-2zm0-4.5H17v1.5h-1.5z"/></symbol><symbol id="hd-icon-ic-baseline-7k" viewBox="0 0 24 24"><path fill="currentColor" d="M19 3H5c-1.1 0-2 .9-2 2v14c0 1.1.9 2 2 2h14c1.1 0 2-.9 2-2V5c0-1.1-.9-2-2-2M9.5 15H7.75l1.38-4.5H6.5V9H10c.67 0 1.15.65.96 1.29zm8.5 0h-1.75l-1.75-2.25V15H13V9h1.5v2.25L16.25 9H18l-2.25 3z"/></symbol><symbol id="hd-icon-ic-baseline-7k-plus" viewBox="0 0 24 24"><path fill="currentColor" d="M19 3H5c-1.1 0-2 .9-2 2v14c0 1.1.9 2 2 2h14c1.1 0 2-.9 2-2V5c0-1.1-.9-2-2-2M8 15H6.25l1.38-4.5H5V9h3.5c.67 0 1.15.65.96 1.29zm8 0h-1.75l-1.75-2.25V15H11V9h1.5v2.25L14.25 9H16l-2.25 3zm4-2.5h-1.5V14h-1v-1.5H16v-1h1.5V10h1v1.5H20z"/></symbol><symbol id="hd-icon-ic-baseline-7mp" viewBox="0 0 24 24"><path fill="currentColor" d="M19 3H5c-1.1 0-2 .9-2 2v14c0 1.1.9 2 2 2h14c1.1 0 2-.9 2-2V5c0-1.1-.9-2-2-2m-7 15.5h-1.5V14h-1v3H8v-3H7v4.5H5.5v-5c0-.55.45-1 1-1H11c.55 0 1 .45 1 1zm3.5 0H14v-6h3.5c.55 0 1 .45 1 1V16c0 .55-.45 1-1 1h-2zm-2.5-7h-1.75L12.62 7H10V5.5h3.5c.67 0 1.15.65.96 1.29zm2.5 2.5H17v1.5h-1.5z"/></symbol><symbol id="hd-icon-ic-baseline-8k" viewBox="0 0 24 24"><path fill="currentColor" d="M8 12.5h1.5V14H8zM8 10h1.5v1.5H8zm11-7H5c-1.1 0-2 .9-2 2v14c0 1.1.9 2 2 2h14c1.1 0 2-.9 2-2V5c0-1.1-.9-2-2-2m-8 11c0 .55-.45 1-1 1H7.5c-.55 0-1-.45-1-1v-4c0-.55.45-1 1-1H10c.55 0 1 .45 1 1zm7 1h-1.75l-1.75-2.25V15H13V9h1.5v2.25L16.25 9H18l-2.25 3z"/></symbol><symbol id="hd-icon-ic-baseline-8k-plus" viewBox="0 0 24 24"><path fill="currentColor" d="M6.5 12.5H8V14H6.5zm0-2.5H8v1.5H6.5zM19 3H5c-1.1 0-2 .9-2 2v14c0 1.1.9 2 2 2h14c1.1 0 2-.9 2-2V5c0-1.1-.9-2-2-2M9.5 14c0 .55-.45 1-1 1H6c-.55 0-1-.45-1-1v-4c0-.55.45-1 1-1h2.5c.55 0 1 .45 1 1zm6.5 1h-1.75l-1.75-2.25V15H11V9h1.5v2.25L14.25 9H16l-2.25 3zm4-2.5h-1.5V14h-1v-1.5H16v-1h1.5V10h1v1.5H20z"/></symbol><symbol id="hd-icon-ic-baseline-8mp" viewBox="0 0 24 24"><path fill="currentColor" d="M11.5 9H13v1.5h-1.5zm0-2.5H13V8h-1.5zM19 3H5c-1.1 0-2 .9-2 2v14c0 1.1.9 2 2 2h14c1.1 0 2-.9 2-2V5c0-1.1-.9-2-2-2m-7 15.5h-1.5V14h-1v3H8v-3H7v4.5H5.5v-5c0-.55.45-1 1-1H11c.55 0 1 .45 1 1zm3.5 0H14v-6h3.5c.55 0 1 .45 1 1V16c0 .55-.45 1-1 1h-2zm-1-8c0 .55-.45 1-1 1H11c-.55 0-1-.45-1-1v-4c0-.55.45-1 1-1h2.5c.55 0 1 .45 1 1zm1 3.5H17v1.5h-1.5z"/></symbol><symbol id="hd-icon-ic-baseline-9k" viewBox="0 0 24 24"><path fill="currentColor" d="M8 10h1.5v1.5H8zm11-7H5c-1.1 0-2 .9-2 2v14c0 1.1.9 2 2 2h14c1.1 0 2-.9 2-2V5c0-1.1-.9-2-2-2m-8 11c0 .55-.45 1-1 1H6.5v-1.5h3v-1h-2c-.55 0-1-.45-1-1V10c0-.55.45-1 1-1H10c.55 0 1 .45 1 1zm7 1h-1.75l-1.75-2.25V15H13V9h1.5v2.25L16.25 9H18l-2.25 3z"/></symbol><symbol id="hd-icon-ic-baseline-9k-plus" viewBox="0 0 24 24"><path fill="currentColor" d="M6.5 10H8v1.5H6.5zM19 3H5c-1.1 0-2 .9-2 2v14c0 1.1.9 2 2 2h14c1.1 0 2-.9 2-2V5c0-1.1-.9-2-2-2M9.5 14c0 .55-.45 1-1 1H5v-1.5h3v-1H6c-.55 0-1-.45-1-1V10c0-.55.45-1 1-1h2.5c.55 0 1 .45 1 1zm6.5 1h-1.75l-1.75-2.25V15H11V9h1.5v2.25L14.25 9H16l-2.25 3zm4-2.5h-1.5V14h-1v-1.5H16v-1h1.5V10h1v1.5H20z"/></symbol><symbol id="hd-icon-ic-baseline-9mp" viewBox="0 0 24 24"><path fill="currentColor" d="M11.5 6.5H13V8h-1.5zM19 3H5c-1.1 0-2 .9-2 2v14c0 1.1.9 2 2 2h14c1.1 0 2-.9 2-2V5c0-1.1-.9-2-2-2m-7 15.5h-1.5V14h-1v3H8v-3H7v4.5H5.5v-5c0-.55.45-1 1-1H11c.55 0 1 .45 1 1zm3.5 0H14v-6h3.5c.55 0 1 .45 1 1V16c0 .55-.45 1-1 1h-2zm-1-8c0 .55-.45 1-1 1H10V10h3V9h-2c-.55 0-1-.45-1-1V6.5c0-.55.45-1 1-1h2.5c.55 0 1 .45 1 1zm1 3.5H17v1.5h-1.5z"/></symbol><symbol id="hd-icon-ic-baseline-abc" viewBox="0 0 24 24"><path fill="currentColor" d="M21 11h-1.5v-.5h-2v3h2V13H21v1c0 .55-.45 1-1 1h-3c-.55 0-1-.45-1-1v-4c0-.55.45-1 1-1h3c.55 0 1 .45 1 1zM8 10v5H6.5v-1.5h-2V15H3v-5c0-.55.45-1 1-1h3c.55 0 1 .45 1 1m-1.5.5h-2V12h2zm7 1.5c.55 0 1 .45 1 1v1c0 .55-.45 1-1 1h-4V9h4c.55 0 1 .45 1 1v1c0 .55-.45 1-1 1M11 10.5v.75h2v-.75zm2 2.25h-2v.75h2z"/></symbol><symbol id="hd-icon-ic-baseline-ac-unit" viewBox="0 0 24 24"><path fill="currentColor" d="M22 11h-4.17l3.24-3.24l-1.41-1.42L15 11h-2V9l4.66-4.66l-1.42-1.41L13 6.17V2h-2v4.17L7.76 2.93L6.34 4.34L11 9v2H9L4.34 6.34L2.93 7.76L6.17 11H2v2h4.17l-3.24 3.24l1.41 1.42L9 13h2v2l-4.66 4.66l1.42 1.41L11 17.83V22h2v-4.17l3.24 3.24l1.42-1.41L13 15v-2h2l4.66 4.66l1.41-1.42L17.83 13H22z"/></symbol><symbol id="hd-icon-ic-baseline-access-alarm" viewBox="0 0 24 24"><path fill="currentColor" d="m22 5.72l-4.6-3.86l-1.29 1.53l4.6 3.86zM7.88 3.39L6.6 1.86L2 5.71l1.29 1.53zM12.5 8H11v6l4.75 2.85l.75-1.23l-4-2.37zM12 4c-4.97 0-9 4.03-9 9s4.02 9 9 9a9 9 0 0 0 0-18m0 16c-3.87 0-7-3.13-7-7s3.13-7 7-7s7 3.13 7 7s-3.13 7-7 7"/></symbol><symbol id="hd-icon-ic-baseline-access-alarms" viewBox="0 0 24 24"><path fill="currentColor" d="m22 5.7l-4.6-3.9l-1.3 1.5l4.6 3.9zM7.9 3.4L6.6 1.9L2 5.7l1.3 1.5zM12.5 8H11v6l4.7 2.9l.8-1.2l-4-2.4zM12 4c-5 0-9 4-9 9s4 9 9 9s9-4 9-9s-4-9-9-9m0 16c-3.9 0-7-3.1-7-7s3.1-7 7-7s7 3.1 7 7s-3.1 7-7 7"/></symbol><symbol id="hd-icon-ic-baseline-access-time" viewBox="0 0 24 24"><path fill="currentColor" d="M11.99 2C6.47 2 2 6.48 2 12s4.47 10 9.99 10C17.52 22 22 17.52 22 12S17.52 2 11.99 2M12 20c-4.42 0-8-3.58-8-8s3.58-8 8-8s8 3.58 8 8s-3.58 8-8 8"/><path fill="currentColor" d="M12.5 7H11v6l5.25 3.15l.75-1.23l-4.5-2.67z"/></symbol><symbol id="hd-icon-ic-baseline-access-time-filled" viewBox="0 0 24 24"><path fill="currentColor" d="M11.99 2C6.47 2 2 6.48 2 12s4.47 10 9.99 10C17.52 22 22 17.52 22 12S17.52 2 11.99 2m3.3 14.71L11 12.41V7h2v4.59l3.71 3.71z"/></symbol><symbol id="hd-icon-ic-baseline-accessibility" viewBox="0 0 24 24"><path fill="currentColor" d="M12 2c1.1 0 2 .9 2 2s-.9 2-2 2s-2-.9-2-2s.9-2 2-2m9 7h-6v13h-2v-6h-2v6H9V9H3V7h18z"/></symbol><symbol id="hd-icon-ic-baseline-accessibility-new" viewBox="0 0 24 24"><path fill="currentColor" d="M20.5 6c-2.61.7-5.67 1-8.5 1s-5.89-.3-8.5-1L3 8c1.86.5 4 .83 6 1v13h2v-6h2v6h2V9c2-.17 4.14-.5 6-1zM12 6c1.1 0 2-.9 2-2s-.9-2-2-2s-2 .9-2 2s.9 2 2 2"/></symbol><symbol id="hd-icon-ic-baseline-accessible" viewBox="0 0 24 24"><circle cx="12" cy="4" r="2" fill="currentColor"/><path fill="currentColor" d="M19 13v-2c-1.54.02-3.09-.75-4.07-1.83l-1.29-1.43c-.17-.19-.38-.34-.61-.45c-.01 0-.01-.01-.02-.01H13c-.35-.2-.75-.3-1.19-.26C10.76 7.11 10 8.04 10 9.09V15c0 1.1.9 2 2 2h5v5h2v-5.5c0-1.1-.9-2-2-2h-3v-3.45c1.29 1.07 3.25 1.94 5 1.95m-6.17 5c-.41 1.16-1.52 2-2.83 2c-1.66 0-3-1.34-3-3c0-1.31.84-2.41 2-2.83V12.1a5 5 0 1 0 5.9 5.9z"/></symbol><symbol id="hd-icon-ic-baseline-accessible-forward" viewBox="0 0 24 24"><circle cx="17" cy="4.54" r="2" fill="currentColor"/><path fill="currentColor" d="M14 17h-2c0 1.65-1.35 3-3 3s-3-1.35-3-3s1.35-3 3-3v-2c-2.76 0-5 2.24-5 5s2.24 5 5 5s5-2.24 5-5m3-3.5h-1.86l1.67-3.67C17.42 8.5 16.44 7 14.96 7h-5.2c-.81 0-1.54.47-1.87 1.2L7.22 10l1.92.53L9.79 9H12l-1.83 4.1c-.6 1.33.39 2.9 1.85 2.9H17v5h2v-5.5c0-1.1-.9-2-2-2"/></symbol><symbol id="hd-icon-ic-baseline-account-balance" viewBox="0 0 24 24"><path fill="currentColor" d="M4 10h3v7H4zm6.5 0h3v7h-3zM2 19h20v3H2zm15-9h3v7h-3zm-5-9L2 6v2h20V6z"/></symbol><symbol id="hd-icon-ic-baseline-account-balance-wallet" viewBox="0 0 24 24"><path fill="currentColor" d="M21 18v1c0 1.1-.9 2-2 2H5a2 2 0 0 1-2-2V5a2 2 0 0 1 2-2h14c1.1 0 2 .9 2 2v1h-9a2 2 0 0 0-2 2v8a2 2 0 0 0 2 2zm-9-2h10V8H12zm4-2.5c-.83 0-1.5-.67-1.5-1.5s.67-1.5 1.5-1.5s1.5.67 1.5 1.5s-.67 1.5-1.5 1.5"/></symbol><symbol id="hd-icon-ic-baseline-account-box" viewBox="0 0 24 24"><path fill="currentColor" d="M19 3H5c-1.1 0-2 .9-2 2v14c0 1.1.9 2 2 2h14c1.1 0 2-.9 2-2V5c0-1.1-.9-2-2-2m-7 3c1.93 0 3.5 1.57 3.5 3.5S13.93 13 12 13s-3.5-1.57-3.5-3.5S10.07 6 12 6m7 13H5v-.23c0-.62.28-1.2.76-1.58C7.47 15.82 9.64 15 12 15s4.53.82 6.24 2.19c.48.38.76.97.76 1.58z"/></symbol><symbol id="hd-icon-ic-baseline-account-circle" viewBox="0 0 24 24"><path fill="currentColor" d="M12 2C6.48 2 2 6.48 2 12s4.48 10 10 10s10-4.48 10-10S17.52 2 12 2m0 4c1.93 0 3.5 1.57 3.5 3.5S13.93 13 12 13s-3.5-1.57-3.5-3.5S10.07 6 12 6m0 14c-2.03 0-4.43-.82-6.14-2.88a9.95 9.95 0 0 1 12.28 0C16.43 19.18 14.03 20 12 20"/></symbol><symbol id="hd-icon-ic-baseline-account-tree" viewBox="0 0 24 24"><path fill="currentColor" d="M22 11V3h-7v3H9V3H2v8h7V8h2v10h4v3h7v-8h-7v3h-2V8h2v3z"/></symbol><symbol id="hd-icon-ic-baseline-ad-units" viewBox="0 0 24 24"><path fill="currentColor" d="M17 1H7c-1.1 0-2 .9-2 2v18c0 1.1.9 2 2 2h10c1.1 0 2-.9 2-2V3c0-1.1-.9-2-2-2m0 18H7V5h10zM8 6h8v2H8z"/></symbol><symbol id="hd-icon-ic-baseline-adb" viewBox="0 0 24 24"><path fill="currentColor" d="M5 16c0 3.87 3.13 7 7 7s7-3.13 7-7v-4H5zM16.12 4.37l2.1-2.1l-.82-.83l-2.3 2.31C14.16 3.28 13.12 3 12 3s-2.16.28-3.09.75L6.6 1.44l-.82.83l2.1 2.1C6.14 5.64 5 7.68 5 10v1h14v-1c0-2.32-1.14-4.36-2.88-5.63M9 9c-.55 0-1-.45-1-1s.45-1 1-1s1 .45 1 1s-.45 1-1 1m6 0c-.55 0-1-.45-1-1s.45-1 1-1s1 .45 1 1s-.45 1-1 1"/></symbol><symbol id="hd-icon-ic-baseline-add" viewBox="0 0 24 24"><path fill="currentColor" d="M19 13h-6v6h-2v-6H5v-2h6V5h2v6h6z"/></symbol><symbol id="hd-icon-ic-baseline-add-a-photo" viewBox="0 0 24 24"><path fill="currentColor" d="M3 4V1h2v3h3v2H5v3H3V6H0V4zm3 6V7h3V4h7l1.83 2H21c1.1 0 2 .9 2 2v12c0 1.1-.9 2-2 2H5c-1.1 0-2-.9-2-2V10zm7 9c2.76 0 5-2.24 5-5s-2.24-5-5-5s-5 2.24-5 5s2.24 5 5 5m-3.2-5c0 1.77 1.43 3.2 3.2 3.2s3.2-1.43 3.2-3.2s-1.43-3.2-3.2-3.2s-3.2 1.43-3.2 3.2"/></symbol><symbol id="hd-icon-ic-baseline-add-alarm" viewBox="0 0 24 24"><path fill="currentColor" d="M7.88 3.39L6.6 1.86L2 5.71l1.29 1.53zM22 5.72l-4.6-3.86l-1.29 1.53l4.6 3.86zM12 4c-4.97 0-9 4.03-9 9s4.02 9 9 9a9 9 0 0 0 0-18m0 16c-3.87 0-7-3.13-7-7s3.13-7 7-7s7 3.13 7 7s-3.13 7-7 7m1-11h-2v3H8v2h3v3h2v-3h3v-2h-3z"/></symbol><symbol id="hd-icon-ic-baseline-add-alert" viewBox="0 0 24 24"><path fill="currentColor" d="M10.01 21.01c0 1.1.89 1.99 1.99 1.99s1.99-.89 1.99-1.99zm8.87-4.19V11c0-3.25-2.25-5.97-5.29-6.69v-.72C13.59 2.71 12.88 2 12 2s-1.59.71-1.59 1.59v.72A6.87 6.87 0 0 0 5.12 11v5.82L3 18.94V20h18v-1.06zM16 13.01h-3v3h-2v-3H8V11h3V8h2v3h3z"/></symbol><symbol id="hd-icon-ic-baseline-add-box" viewBox="0 0 24 24"><path fill="currentColor" d="M19 3H5a2 2 0 0 0-2 2v14a2 2 0 0 0 2 2h14c1.1 0 2-.9 2-2V5c0-1.1-.9-2-2-2m-2 10h-4v4h-2v-4H7v-2h4V7h2v4h4z"/></symbol><symbol id="hd-icon-ic-baseline-add-business" viewBox="0 0 24 24"><path fill="currentColor" d="M15 17h2v-3h1v-2l-1-5H2l-1 5v2h1v6h9v-6h4zm-6 1H4v-4h5zM2 4h15v2H2z"/><path fill="currentColor" d="M20 18v-3h-2v3h-3v2h3v3h2v-3h3v-2z"/></symbol><symbol id="hd-icon-ic-baseline-add-card" viewBox="0 0 24 24"><path fill="currentColor" d="M20 4H4c-1.11 0-1.99.89-1.99 2L2 18c0 1.11.89 2 2 2h10v-2H4v-6h18V6c0-1.11-.89-2-2-2m0 4H4V6h16zm4 9v2h-3v3h-2v-3h-3v-2h3v-3h2v3z"/></symbol><symbol id="hd-icon-ic-baseline-add-chart" viewBox="0 0 24 24"><path fill="currentColor" d="M6 9.99h2v7H6zm8 3h2v4h-2zm-4-6h2v10h-2zM20 7V4h-2v3h-3v2h3v3h2V9h3V7zm-2 12H4V5h12V3H4c-1.1 0-2 .9-2 2v14c0 1.1.9 2 2 2h14c1.1 0 2-.9 2-2v-5h-2z"/></symbol><symbol id="hd-icon-ic-baseline-add-circle" viewBox="0 0 24 24"><path fill="currentColor" d="M12 2C6.48 2 2 6.48 2 12s4.48 10 10 10s10-4.48 10-10S17.52 2 12 2m5 11h-4v4h-2v-4H7v-2h4V7h2v4h4z"/></symbol><symbol id="hd-icon-ic-baseline-add-circle-outline" viewBox="0 0 24 24"><path fill="currentColor" d="M13 7h-2v4H7v2h4v4h2v-4h4v-2h-4zm-1-5C6.48 2 2 6.48 2 12s4.48 10 10 10s10-4.48 10-10S17.52 2 12 2m0 18c-4.41 0-8-3.59-8-8s3.59-8 8-8s8 3.59 8 8s-3.59 8-8 8"/></symbol><symbol id="hd-icon-ic-baseline-add-comment" viewBox="0 0 24 24"><path fill="currentColor" d="M21.99 4c0-1.1-.89-2-1.99-2H4c-1.1 0-2 .9-2 2v12c0 1.1.9 2 2 2h14l4 4zM17 11h-4v4h-2v-4H7V9h4V5h2v4h4z"/></symbol><symbol id="hd-icon-ic-baseline-add-home" viewBox="0 0 24 24"><path fill="currentColor" d="M18 11c.7 0 1.37.1 2 .29V9l-8-6l-8 6v12h7.68A6.995 6.995 0 0 1 18 11"/><path fill="currentColor" d="M18 13c-2.76 0-5 2.24-5 5s2.24 5 5 5s5-2.24 5-5s-2.24-5-5-5m3 5.5h-2.5V21h-1v-2.5H15v-1h2.5V15h1v2.5H21z"/></symbol><symbol id="hd-icon-ic-baseline-add-home-work" viewBox="0 0 24 24"><path fill="currentColor" d="M15 11.68V11L8 6l-7 5v10h5v-6h4v6h1.68c-.43-.91-.68-1.92-.68-3c0-2.79 1.64-5.19 4-6.32m8 1.43V3H10v1.97l7 5v1.11c.33-.05.66-.08 1-.08c1.96 0 3.73.81 5 2.11M17 7h2v2h-2z"/><path fill="currentColor" d="M23 18c0-2.76-2.24-5-5-5s-5 2.24-5 5s2.24 5 5 5s5-2.24 5-5m-5.5 3v-2.5H15v-1h2.5V15h1v2.5H21v1h-2.5V21z"/></symbol><symbol id="hd-icon-ic-baseline-add-ic-call" viewBox="0 0 24 24"><path fill="currentColor" d="M20 15.5c-1.25 0-2.45-.2-3.57-.57a1.02 1.02 0 0 0-1.02.24l-2.2 2.2a15.05 15.05 0 0 1-6.59-6.59l2.2-2.21a.96.96 0 0 0 .25-1A11.4 11.4 0 0 1 8.5 4c0-.55-.45-1-1-1H4c-.55 0-1 .45-1 1c0 9.39 7.61 17 17 17c.55 0 1-.45 1-1v-3.5c0-.55-.45-1-1-1M21 6h-3V3h-2v3h-3v2h3v3h2V8h3z"/></symbol><symbol id="hd-icon-ic-baseline-add-link" viewBox="0 0 24 24"><path fill="currentColor" d="M8 11h8v2H8zm12.1 1H22c0-2.76-2.24-5-5-5h-4v1.9h4c1.71 0 3.1 1.39 3.1 3.1M3.9 12c0-1.71 1.39-3.1 3.1-3.1h4V7H7c-2.76 0-5 2.24-5 5s2.24 5 5 5h4v-1.9H7c-1.71 0-3.1-1.39-3.1-3.1M19 12h-2v3h-3v2h3v3h2v-3h3v-2h-3z"/></symbol><symbol id="hd-icon-ic-baseline-add-location" viewBox="0 0 24 24"><path fill="currentColor" d="M12 2C8.14 2 5 5.14 5 9c0 5.25 7 13 7 13s7-7.75 7-13c0-3.86-3.14-7-7-7m4 8h-3v3h-2v-3H8V8h3V5h2v3h3z"/></symbol><symbol id="hd-icon-ic-baseline-add-location-alt" viewBox="0 0 24 24"><path fill="currentColor" d="M20 1v3h3v2h-3v3h-2V6h-3V4h3V1zm-8 12c1.1 0 2-.9 2-2s-.9-2-2-2s-2 .9-2 2s.9 2 2 2m2-9.75V7h3v3h2.92c.05.39.08.79.08 1.2c0 3.32-2.67 7.25-8 11.8c-5.33-4.55-8-8.48-8-11.8C4 6.22 7.8 3 12 3c.68 0 1.35.08 2 .25"/></symbol><symbol id="hd-icon-ic-baseline-add-moderator" viewBox="0 0 24 24"><path fill="currentColor" d="M13.22 22.61c-.4.15-.8.29-1.22.39c-5.16-1.26-9-6.45-9-12V5l9-4l9 4v6c0 .9-.11 1.78-.3 2.65c-.81-.41-1.73-.65-2.7-.65c-3.31 0-6 2.69-6 6c0 1.36.46 2.61 1.22 3.61M19 20v2.99s-1.99.01-2 0V20h-3v-2h3v-3h2v3h3v2z"/></symbol><symbol id="hd-icon-ic-baseline-add-photo-alternate" viewBox="0 0 24 24"><path fill="currentColor" d="M19 7v2.99s-1.99.01-2 0V7h-3s.01-1.99 0-2h3V2h2v3h3v2zm-3 4V8h-3V5H5c-1.1 0-2 .9-2 2v12c0 1.1.9 2 2 2h12c1.1 0 2-.9 2-2v-8zM5 19l3-4l2 3l3-4l4 5z"/></symbol><symbol id="hd-icon-ic-baseline-add-reaction" viewBox="0 0 24 24"><path fill="currentColor" d="M18 9V7h-2V2.84A9.9 9.9 0 0 0 11.99 2C6.47 2 2 6.48 2 12s4.47 10 9.99 10C17.52 22 22 17.52 22 12c0-1.05-.17-2.05-.47-3zm-2.5-1c.83 0 1.5.67 1.5 1.5s-.67 1.5-1.5 1.5s-1.5-.67-1.5-1.5s.67-1.5 1.5-1.5m-7 0c.83 0 1.5.67 1.5 1.5S9.33 11 8.5 11S7 10.33 7 9.5S7.67 8 8.5 8m3.5 9.5c-2.33 0-4.31-1.46-5.11-3.5h10.22c-.8 2.04-2.78 3.5-5.11 3.5M22 3h2v2h-2v2h-2V5h-2V3h2V1h2z"/></symbol><symbol id="hd-icon-ic-baseline-add-road" viewBox="0 0 24 24"><path fill="currentColor" d="M20 18v-3h-2v3h-3v2h3v3h2v-3h3v-2zM18 4h2v9h-2zM4 4h2v16H4zm7 0h2v4h-2zm0 6h2v4h-2zm0 6h2v4h-2z"/></symbol><symbol id="hd-icon-ic-baseline-add-shopping-cart" viewBox="0 0 24 24"><path fill="currentColor" d="M11 9h2V6h3V4h-3V1h-2v3H8v2h3zm-4 9c-1.1 0-1.99.9-1.99 2S5.9 22 7 22s2-.9 2-2s-.9-2-2-2m10 0c-1.1 0-1.99.9-1.99 2s.89 2 1.99 2s2-.9 2-2s-.9-2-2-2m-9.83-3.25l.03-.12l.9-1.63h7.45c.75 0 1.41-.41 1.75-1.03l3.86-7.01L19.42 4h-.01l-1.1 2l-2.76 5H8.53l-.13-.27L6.16 6l-.95-2l-.94-2H1v2h2l3.6 7.59l-1.35 2.45c-.16.28-.25.61-.25.96c0 1.1.9 2 2 2h12v-2H7.42c-.13 0-.25-.11-.25-.25"/></symbol><symbol id="hd-icon-ic-baseline-add-task" viewBox="0 0 24 24"><path fill="currentColor" d="M22 5.18L10.59 16.6l-4.24-4.24l1.41-1.41l2.83 2.83l10-10zM12 20c-4.41 0-8-3.59-8-8s3.59-8 8-8c1.57 0 3.04.46 4.28 1.25l1.45-1.45A10 10 0 0 0 12 2C6.48 2 2 6.48 2 12s4.48 10 10 10c1.73 0 3.36-.44 4.78-1.22l-1.5-1.5c-1 .46-2.11.72-3.28.72m7-5h-3v2h3v3h2v-3h3v-2h-3v-3h-2z"/></symbol><symbol id="hd-icon-ic-baseline-add-to-drive" viewBox="0 0 24 24"><path fill="currentColor" d="M20 21v-3h3v-2h-3v-3h-2v3h-3v2h3v3zm-4.97.5H5.66c-.72 0-1.38-.38-1.73-1l-2.36-4.1c-.36-.62-.35-1.38.01-2L7.92 3.49c.36-.61 1.02-.99 1.73-.99h4.7c.71 0 1.37.38 1.73.99l4.48 7.71a6.2 6.2 0 0 0-2.4-.14L14.35 4.5h-4.7L3.31 15.41l2.35 4.09h7.89c.35.77.85 1.45 1.48 2M13.34 15c-.22.63-.34 1.3-.34 2H7.25l-.73-1.27l4.58-7.98h1.8l2.53 4.42c-.56.42-1.05.93-1.44 1.51l-2-3.49L9.25 15z"/></symbol><symbol id="hd-icon-ic-baseline-add-to-home-screen" viewBox="0 0 24 24"><path fill="currentColor" d="M18 1.01L8 1c-1.1 0-2 .9-2 2v3h2V5h10v14H8v-1H6v3c0 1.1.9 2 2 2h10c1.1 0 2-.9 2-2V3c0-1.1-.9-1.99-2-1.99M10 15h2V8H5v2h3.59L3 15.59L4.41 17L10 11.41z"/></symbol><symbol id="hd-icon-ic-baseline-add-to-photos" viewBox="0 0 24 24"><path fill="currentColor" d="M4 6H2v14c0 1.1.9 2 2 2h14v-2H4zm16-4H8c-1.1 0-2 .9-2 2v12c0 1.1.9 2 2 2h12c1.1 0 2-.9 2-2V4c0-1.1-.9-2-2-2m-1 9h-4v4h-2v-4H9V9h4V5h2v4h4z"/></symbol><symbol id="hd-icon-ic-baseline-add-to-queue" viewBox="0 0 24 24"><path fill="currentColor" d="M21 3H3c-1.11 0-2 .89-2 2v12a2 2 0 0 0 2 2h5v2h8v-2h5c1.1 0 1.99-.9 1.99-2L23 5a2 2 0 0 0-2-2m0 14H3V5h18zm-5-7v2h-3v3h-2v-3H8v-2h3V7h2v3z"/></symbol><symbol id="hd-icon-ic-baseline-addchart" viewBox="0 0 24 24"><path fill="currentColor" d="M22 5v2h-3v3h-2V7h-3V5h3V2h2v3zm-3 14H5V5h6V3H5c-1.1 0-2 .9-2 2v14c0 1.1.9 2 2 2h14c1.1 0 2-.9 2-2v-6h-2zm-4-6v4h2v-4zm-4 4h2V9h-2zm-2 0v-6H7v6z"/></symbol><symbol id="hd-icon-ic-baseline-adf-scanner" viewBox="0 0 24 24"><path fill="currentColor" d="M19 12h-1V4H6v8H5c-1.66 0-3 1.34-3 3v5h20v-5c0-1.66-1.34-3-3-3m-3 0H8V6h8zm2 5c-.55 0-1-.45-1-1s.45-1 1-1s1 .45 1 1s-.45 1-1 1"/></symbol><symbol id="hd-icon-ic-baseline-adjust" viewBox="0 0 24 24"><path fill="currentColor" d="M12 2C6.49 2 2 6.49 2 12s4.49 10 10 10s10-4.49 10-10S17.51 2 12 2m0 18c-4.41 0-8-3.59-8-8s3.59-8 8-8s8 3.59 8 8s-3.59 8-8 8m3-8c0 1.66-1.34 3-3 3s-3-1.34-3-3s1.34-3 3-3s3 1.34 3 3"/></symbol><symbol id="hd-icon-ic-baseline-admin-panel-settings" viewBox="0 0 24 24"><path fill="currentColor" d="M17 11c.34 0 .67.04 1 .09V6.27L10.5 3L3 6.27v4.91c0 4.54 3.2 8.79 7.5 9.82c.55-.13 1.08-.32 1.6-.55c-.69-.98-1.1-2.17-1.1-3.45c0-3.31 2.69-6 6-6"/><path fill="currentColor" d="M17 13c-2.21 0-4 1.79-4 4s1.79 4 4 4s4-1.79 4-4s-1.79-4-4-4m0 1.38c.62 0 1.12.51 1.12 1.12s-.51 1.12-1.12 1.12s-1.12-.51-1.12-1.12s.5-1.12 1.12-1.12m0 5.37c-.93 0-1.74-.46-2.24-1.17c.05-.72 1.51-1.08 2.24-1.08s2.19.36 2.24 1.08c-.5.71-1.31 1.17-2.24 1.17"/></symbol><symbol id="hd-icon-ic-baseline-adobe" viewBox="0 0 24 24"><path fill="currentColor" d="M18.97 3H5c-1.1 0-2 .9-2 2v14c0 1.1.9 2 2 2h13.97c1.1 0 2-.9 2-2V5a2 2 0 0 0-2-2m-1.59 13.98c-.03.01-.07.02-.1.02h-2.26a.49.49 0 0 1-.46-.3l-2.46-5.74c-.02-.06-.08-.09-.13-.07a.12.12 0 0 0-.07.07l-1.53 3.65c-.03.07 0 .14.07.17c.02.01.03.01.05.01h1.68c.1 0 .2.06.24.16l.74 1.64c.07.15-.01.33-.16.4c-.06 0-.1.01-.14.01H6.73c-.15 0-.28-.13-.28-.28c0-.04.01-.07.02-.11l3.9-9.28c.08-.2.28-.33.49-.33h2.25c.22 0 .41.13.49.33l3.92 9.28c.07.14.01.31-.14.37"/></symbol><symbol id="hd-icon-ic-baseline-ads-click" viewBox="0 0 24 24"><path fill="currentColor" d="M11.71 17.99A5.993 5.993 0 0 1 6 12c0-3.31 2.69-6 6-6c3.22 0 5.84 2.53 5.99 5.71l-2.1-.63a3.999 3.999 0 1 0-4.81 4.81zM22 12c0 .3-.01.6-.04.9l-1.97-.59c.01-.1.01-.21.01-.31c0-4.42-3.58-8-8-8s-8 3.58-8 8s3.58 8 8 8c.1 0 .21 0 .31-.01l.59 1.97c-.3.03-.6.04-.9.04c-5.52 0-10-4.48-10-10S6.48 2 12 2s10 4.48 10 10m-3.77 4.26L22 15l-10-3l3 10l1.26-3.77l4.27 4.27l1.98-1.98z"/></symbol><symbol id="hd-icon-ic-baseline-agriculture" viewBox="0 0 24 24"><path fill="currentColor" d="M19.5 12c.93 0 1.78.28 2.5.76V8c0-1.1-.9-2-2-2h-6.29l-1.06-1.06l1.41-1.41l-.71-.71l-3.53 3.53l.71.71l1.41-1.41L13 6.71V9c0 1.1-.9 2-2 2h-.54A5.98 5.98 0 0 1 12 15c0 .34-.04.67-.09 1h3.14c.25-2.25 2.14-4 4.45-4"/><path fill="currentColor" d="M19.5 13c-1.93 0-3.5 1.57-3.5 3.5s1.57 3.5 3.5 3.5s3.5-1.57 3.5-3.5s-1.57-3.5-3.5-3.5m0 5c-.83 0-1.5-.67-1.5-1.5s.67-1.5 1.5-1.5s1.5.67 1.5 1.5s-.67 1.5-1.5 1.5M4 9h5c0-1.1-.9-2-2-2H4c-.55 0-1 .45-1 1s.45 1 1 1m5.83 4.82l-.18-.47l.93-.35a4.92 4.92 0 0 0-2.31-2.43l-.4.89l-.46-.21l.4-.9C7.26 10.13 6.64 10 6 10c-.53 0-1.04.11-1.52.26l.34.91l-.47.18l-.35-.93a4.92 4.92 0 0 0-2.43 2.31l.89.4l-.21.46l-.9-.4C1.13 13.74 1 14.36 1 15c0 .53.11 1.04.26 1.52l.91-.34l.18.47l-.93.35a4.92 4.92 0 0 0 2.31 2.43l.4-.89l.46.21l-.4.9c.55.22 1.17.35 1.81.35c.53 0 1.04-.11 1.52-.26l-.34-.91l.47-.18l.35.93a4.92 4.92 0 0 0 2.43-2.31l-.89-.4l.21-.46l.9.4c.22-.55.35-1.17.35-1.81c0-.53-.11-1.04-.26-1.52zm-2.68 3.95c-1.53.63-3.29-.09-3.92-1.62s.09-3.29 1.62-3.92s3.29.09 3.92 1.62c.64 1.53-.09 3.29-1.62 3.92"/></symbol><symbol id="hd-icon-ic-baseline-air" viewBox="0 0 24 24"><path fill="currentColor" d="M14.5 17c0 1.65-1.35 3-3 3s-3-1.35-3-3h2c0 .55.45 1 1 1s1-.45 1-1s-.45-1-1-1H2v-2h9.5c1.65 0 3 1.35 3 3M19 6.5C19 4.57 17.43 3 15.5 3S12 4.57 12 6.5h2c0-.83.67-1.5 1.5-1.5s1.5.67 1.5 1.5S16.33 8 15.5 8H2v2h13.5c1.93 0 3.5-1.57 3.5-3.5m-.5 4.5H2v2h16.5c.83 0 1.5.67 1.5 1.5s-.67 1.5-1.5 1.5v2c1.93 0 3.5-1.57 3.5-3.5S20.43 11 18.5 11"/></symbol><symbol id="hd-icon-ic-baseline-airline-seat-flat" viewBox="0 0 24 24"><path fill="currentColor" d="M22 11v2H9V7h9c2.21 0 4 1.79 4 4M2 14v2h6v2h8v-2h6v-2zm5.14-1.9a3 3 0 0 0-.04-4.24a3 3 0 0 0-4.24.04a3 3 0 0 0 .04 4.24a3 3 0 0 0 4.24-.04"/></symbol><symbol id="hd-icon-ic-baseline-airline-seat-flat-angled" viewBox="0 0 24 24"><path fill="currentColor" d="m22.25 14.29l-.69 1.89L9.2 11.71l2.08-5.66l8.56 3.09a4 4 0 0 1 2.41 5.15M1.5 12.14L8 14.48V19h8v-1.63L20.52 19l.69-1.89l-19.02-6.86zm5.8-1.94a3.01 3.01 0 0 0 1.41-4A3.005 3.005 0 0 0 4.7 4.8a2.99 2.99 0 0 0-1.4 4a2.99 2.99 0 0 0 4 1.4"/></symbol><symbol id="hd-icon-ic-baseline-airline-seat-individual-suite" viewBox="0 0 24 24"><path fill="currentColor" d="M7 13c1.65 0 3-1.35 3-3S8.65 7 7 7s-3 1.35-3 3s1.35 3 3 3m12-6h-8v7H3V7H1v10h22v-6c0-2.21-1.79-4-4-4"/></symbol><symbol id="hd-icon-ic-baseline-airline-seat-legroom-extra" viewBox="0 0 24 24"><path fill="currentColor" d="M4 12V3H2v9c0 2.76 2.24 5 5 5h6v-2H7c-1.66 0-3-1.34-3-3m18.83 5.24c-.38-.72-1.29-.97-2.03-.63l-1.09.5l-3.41-6.98a2.01 2.01 0 0 0-1.79-1.12L11 9V3H5v8c0 1.66 1.34 3 3 3h7l3.41 7l3.72-1.7c.77-.36 1.1-1.3.7-2.06"/></symbol><symbol id="hd-icon-ic-baseline-airline-seat-legroom-normal" viewBox="0 0 24 24"><path fill="currentColor" d="M5 12V3H3v9c0 2.76 2.24 5 5 5h6v-2H8c-1.66 0-3-1.34-3-3m15.5 6H19v-7c0-1.1-.9-2-2-2h-5V3H6v8c0 1.65 1.35 3 3 3h7v7h4.5c.83 0 1.5-.67 1.5-1.5s-.67-1.5-1.5-1.5"/></symbol><symbol id="hd-icon-ic-baseline-airline-seat-legroom-reduced" viewBox="0 0 24 24"><path fill="currentColor" d="M19.97 19.2c.18.96-.55 1.8-1.47 1.8H14v-3l1-4H9c-1.65 0-3-1.35-3-3V3h6v6h5c1.1 0 2 .9 2 2l-2 7h1.44c.73 0 1.39.49 1.53 1.2M5 12V3H3v9c0 2.76 2.24 5 5 5h4v-2H8c-1.66 0-3-1.34-3-3"/></symbol><symbol id="hd-icon-ic-baseline-airline-seat-recline-extra" viewBox="0 0 24 24"><path fill="currentColor" d="M5.35 5.64c-.9-.64-1.12-1.88-.49-2.79c.63-.9 1.88-1.12 2.79-.49c.9.64 1.12 1.88.49 2.79c-.64.9-1.88 1.12-2.79.49M16 19H8.93c-1.48 0-2.74-1.08-2.96-2.54L4 7H2l1.99 9.76A5.01 5.01 0 0 0 8.94 21H16zm.23-4h-4.88l-1.03-4.1c1.58.89 3.28 1.54 5.15 1.22V9.99c-1.63.31-3.44-.27-4.69-1.25L9.14 7.47c-.23-.18-.49-.3-.76-.38a2.2 2.2 0 0 0-.99-.06h-.02a2.27 2.27 0 0 0-1.84 2.61l1.35 5.92A3.01 3.01 0 0 0 9.83 18h6.85l3.82 3l1.5-1.5z"/></symbol><symbol id="hd-icon-ic-baseline-airline-seat-recline-normal" viewBox="0 0 24 24"><path fill="currentColor" d="M7.59 5.41c-.78-.78-.78-2.05 0-2.83s2.05-.78 2.83 0s.78 2.05 0 2.83c-.79.79-2.05.79-2.83 0M6 16V7H4v9c0 2.76 2.24 5 5 5h6v-2H9c-1.66 0-3-1.34-3-3m14 4.07L14.93 15H11.5v-3.68c1.4 1.15 3.6 2.16 5.5 2.16v-2.16c-1.66.02-3.61-.87-4.67-2.04l-1.4-1.55c-.19-.21-.43-.38-.69-.5c-.29-.14-.62-.23-.96-.23h-.03C8.01 7 7 8.01 7 9.25V15c0 1.66 1.34 3 3 3h5.07l3.5 3.5z"/></symbol><symbol id="hd-icon-ic-baseline-airline-stops" viewBox="0 0 24 24"><path fill="currentColor" d="M18.21 9.21C15.93 10.78 13.45 13.3 13 17h2v2H9v-2h2c-.5-4.5-4.37-8-9-8V7c4.39 0 8.22 2.55 10 6.3c1.13-2.43 2.99-4.25 4.78-5.52L14 5h7v7z"/></symbol><symbol id="hd-icon-ic-baseline-airlines" viewBox="0 0 24 24"><path fill="currentColor" d="M13 4L2 20h17l3-16zm1.5 10a2.5 2.5 0 0 1 0-5a2.5 2.5 0 0 1 0 5"/></symbol><symbol id="hd-icon-ic-baseline-airplane-ticket" viewBox="0 0 24 24"><path fill="currentColor" d="M20.19 4H4c-1.1 0-1.99.9-1.99 2v4c1.1 0 1.99.9 1.99 2s-.89 2-2 2v4c0 1.1.9 2 2 2h16c1.1 0 2-.9 2-2V6c0-1.1-.81-2-1.81-2m-2.46 9.3l-8.86 2.36l-1.66-2.88l.93-.25l1.26.99l2.39-.64l-2.4-4.16l1.4-.38l4.01 3.74l2.44-.65a.967.967 0 0 1 1.18.68a.99.99 0 0 1-.69 1.19"/></symbol><symbol id="hd-icon-ic-baseline-airplanemode-active" viewBox="0 0 24 24"><path fill="currentColor" d="M22 16v-2l-8.5-5V3.5c0-.83-.67-1.5-1.5-1.5s-1.5.67-1.5 1.5V9L2 14v2l8.5-2.5V19L8 20.5V22l4-1l4 1v-1.5L13.5 19v-5.5z"/></symbol><symbol id="hd-icon-ic-baseline-airplanemode-inactive" viewBox="0 0 24 24"><path fill="currentColor" d="M10.5 7.67V3.5c0-.83.67-1.5 1.5-1.5s1.5.67 1.5 1.5V9l8.5 5v2l-4.49-1.32zm9.28 14.94l1.41-1.41l-7.69-7.7l-3.94-3.94l-6.75-6.75l-1.42 1.41l6.38 6.38L2 14v2l8.5-2.5V19L8 20.5V22l4-1l4 1v-1.5L13.5 19v-2.67z"/></symbol><symbol id="hd-icon-ic-baseline-airplay" viewBox="0 0 24 24"><path fill="currentColor" d="M6 22h12l-6-6z"/><path fill="currentColor" d="M21 3H3c-1.1 0-2 .9-2 2v12c0 1.1.9 2 2 2h4v-2H3V5h18v12h-4v2h4c1.1 0 2-.9 2-2V5c0-1.1-.9-2-2-2"/></symbol><symbol id="hd-icon-ic-baseline-airport-shuttle" viewBox="0 0 24 24"><path fill="currentColor" d="M17 5H3a2 2 0 0 0-2 2v9h2c0 1.65 1.34 3 3 3s3-1.35 3-3h5.5c0 1.65 1.34 3 3 3s3-1.35 3-3H23v-5zM3 11V7h4v4zm3 6.5c-.83 0-1.5-.67-1.5-1.5s.67-1.5 1.5-1.5s1.5.67 1.5 1.5s-.67 1.5-1.5 1.5m7-6.5H9V7h4zm4.5 6.5c-.83 0-1.5-.67-1.5-1.5s.67-1.5 1.5-1.5s1.5.67 1.5 1.5s-.67 1.5-1.5 1.5M15 11V7h1l4 4z"/></symbol><symbol id="hd-icon-ic-baseline-alarm" viewBox="0 0 24 24"><path fill="currentColor" d="m22 5.72l-4.6-3.86l-1.29 1.53l4.6 3.86zM7.88 3.39L6.6 1.86L2 5.71l1.29 1.53zM12.5 8H11v6l4.75 2.85l.75-1.23l-4-2.37zM12 4c-4.97 0-9 4.03-9 9s4.02 9 9 9a9 9 0 0 0 0-18m0 16c-3.87 0-7-3.13-7-7s3.13-7 7-7s7 3.13 7 7s-3.13 7-7 7"/></symbol><symbol id="hd-icon-ic-baseline-alarm-add" viewBox="0 0 24 24"><path fill="currentColor" d="M7.88 3.39L6.6 1.86L2 5.71l1.29 1.53zM22 5.72l-4.6-3.86l-1.29 1.53l4.6 3.86zM12 4c-4.97 0-9 4.03-9 9s4.02 9 9 9a9 9 0 0 0 0-18m0 16c-3.87 0-7-3.13-7-7s3.13-7 7-7s7 3.13 7 7s-3.13 7-7 7m1-11h-2v3H8v2h3v3h2v-3h3v-2h-3z"/></symbol><symbol id="hd-icon-ic-baseline-alarm-off" viewBox="0 0 24 24"><path fill="currentColor" d="M12 6c3.87 0 7 3.13 7 7c0 .84-.16 1.65-.43 2.4l1.52 1.52c.58-1.19.91-2.51.91-3.92a9 9 0 0 0-9-9c-1.41 0-2.73.33-3.92.91L9.6 6.43C10.35 6.16 11.16 6 12 6m10-.28l-4.6-3.86l-1.29 1.53l4.6 3.86zM2.92 2.29L1.65 3.57L2.98 4.9l-1.11.93l1.42 1.42l1.11-.94l.8.8A8.96 8.96 0 0 0 3 13c0 4.97 4.02 9 9 9c2.25 0 4.31-.83 5.89-2.2l2.2 2.2l1.27-1.27L3.89 3.27zm13.55 16.1C15.26 19.39 13.7 20 12 20c-3.87 0-7-3.13-7-7c0-1.7.61-3.26 1.61-4.47zM8.02 3.28L6.6 1.86l-.86.71l1.42 1.42z"/></symbol><symbol id="hd-icon-ic-baseline-alarm-on" viewBox="0 0 24 24"><path fill="currentColor" d="m22 5.72l-4.6-3.86l-1.29 1.53l4.6 3.86zM7.88 3.39L6.6 1.86L2 5.71l1.29 1.53zM12 4c-4.97 0-9 4.03-9 9s4.02 9 9 9a9 9 0 0 0 0-18m0 16c-3.87 0-7-3.13-7-7s3.13-7 7-7s7 3.13 7 7s-3.13 7-7 7m-1.46-5.47L8.41 12.4l-1.06 1.06l3.18 3.18l6-6l-1.06-1.06z"/></symbol><symbol id="hd-icon-ic-baseline-album" viewBox="0 0 24 24"><path fill="currentColor" d="M12 2C6.48 2 2 6.48 2 12s4.48 10 10 10s10-4.48 10-10S17.52 2 12 2m0 14.5c-2.49 0-4.5-2.01-4.5-4.5S9.51 7.5 12 7.5s4.5 2.01 4.5 4.5s-2.01 4.5-4.5 4.5m0-5.5c-.55 0-1 .45-1 1s.45 1 1 1s1-.45 1-1s-.45-1-1-1"/></symbol><symbol id="hd-icon-ic-baseline-align-horizontal-center" viewBox="0 0 24 24"><path fill="currentColor" d="M11 2h2v5h8v3h-8v4h5v3h-5v5h-2v-5H6v-3h5v-4H3V7h8z"/></symbol><symbol id="hd-icon-ic-baseline-align-horizontal-left" viewBox="0 0 24 24"><path fill="currentColor" d="M4 22H2V2h2zM22 7H6v3h16zm-6 7H6v3h10z"/></symbol><symbol id="hd-icon-ic-baseline-align-horizontal-right" viewBox="0 0 24 24"><path fill="currentColor" d="M20 2h2v20h-2zM2 10h16V7H2zm6 7h10v-3H8z"/></symbol><symbol id="hd-icon-ic-baseline-align-vertical-bottom" viewBox="0 0 24 24"><path fill="currentColor" d="M22 22H2v-2h20zM10 2H7v16h3zm7 6h-3v10h3z"/></symbol><symbol id="hd-icon-ic-baseline-align-vertical-center" viewBox="0 0 24 24"><path fill="currentColor" d="M22 11h-5V6h-3v5h-4V3H7v8H1.84v2H7v8h3v-8h4v5h3v-5h5z"/></symbol><symbol id="hd-icon-ic-baseline-align-vertical-top" viewBox="0 0 24 24"><path fill="currentColor" d="M22 2v2H2V2zM7 22h3V6H7zm7-6h3V6h-3z"/></symbol><symbol id="hd-icon-ic-baseline-all-inbox" viewBox="0 0 24 24"><path fill="currentColor" d="M19 3H5c-1.1 0-2 .9-2 2v7c0 1.1.9 2 2 2h14c1.1 0 2-.9 2-2V5c0-1.1-.9-2-2-2m0 6h-4c0 1.62-1.38 3-3 3s-3-1.38-3-3H5V5h14zm-4 7h6v3c0 1.1-.9 2-2 2H5c-1.1 0-2-.9-2-2v-3h6c0 1.66 1.34 3 3 3s3-1.34 3-3"/></symbol><symbol id="hd-icon-ic-baseline-all-inclusive" viewBox="0 0 24 24"><path fill="currentColor" d="M18.6 6.62c-1.44 0-2.8.56-3.77 1.53L12 10.66L10.48 12h.01L7.8 14.39c-.64.64-1.49.99-2.4.99c-1.87 0-3.39-1.51-3.39-3.38S3.53 8.62 5.4 8.62c.91 0 1.76.35 2.44 1.03l1.13 1l1.51-1.34L9.22 8.2A5.37 5.37 0 0 0 5.4 6.62C2.42 6.62 0 9.04 0 12s2.42 5.38 5.4 5.38c1.44 0 2.8-.56 3.77-1.53l2.83-2.5l.01.01L13.52 12h-.01l2.69-2.39c.64-.64 1.49-.99 2.4-.99c1.87 0 3.39 1.51 3.39 3.38s-1.52 3.38-3.39 3.38c-.9 0-1.76-.35-2.44-1.03l-1.14-1.01l-1.51 1.34l1.27 1.12a5.4 5.4 0 0 0 3.82 1.57c2.98 0 5.4-2.41 5.4-5.38s-2.42-5.37-5.4-5.37"/></symbol><symbol id="hd-icon-ic-baseline-all-out" viewBox="0 0 24 24"><path fill="currentColor" d="m16.21 4.16l4 4v-4zm4 12l-4 4h4zm-12 4l-4-4v4zm-4-12l4-4h-4zm12.95-.95c-2.73-2.73-7.17-2.73-9.9 0s-2.73 7.17 0 9.9s7.17 2.73 9.9 0s2.73-7.16 0-9.9m-1.1 8.8c-2.13 2.13-5.57 2.13-7.7 0s-2.13-5.57 0-7.7s5.57-2.13 7.7 0s2.13 5.57 0 7.7"/></symbol><symbol id="hd-icon-ic-baseline-alt-route" viewBox="0 0 24 24"><path fill="currentColor" d="m9.78 11.16l-1.42 1.42a7.3 7.3 0 0 1-1.79-2.94l1.94-.49c.32.89.77 1.5 1.27 2.01M11 6L7 2L3 6h3.02c.02.81.08 1.54.19 2.17l1.94-.49C8.08 7.2 8.03 6.63 8.02 6zm10 0l-4-4l-4 4h2.99c-.1 3.68-1.28 4.75-2.54 5.88c-.5.44-1.01.92-1.45 1.55c-.34-.49-.73-.88-1.13-1.24L9.46 13.6c.93.85 1.54 1.54 1.54 3.4v5h2v-5c0-2.02.71-2.66 1.79-3.63c1.38-1.24 3.08-2.78 3.2-7.37z"/></symbol><symbol id="hd-icon-ic-baseline-alternate-email" viewBox="0 0 24 24"><path fill="currentColor" d="M12 2C6.48 2 2 6.48 2 12s4.48 10 10 10h5v-2h-5c-4.34 0-8-3.66-8-8s3.66-8 8-8s8 3.66 8 8v1.43c0 .79-.71 1.57-1.5 1.57s-1.5-.78-1.5-1.57V12c0-2.76-2.24-5-5-5s-5 2.24-5 5s2.24 5 5 5c1.38 0 2.64-.56 3.54-1.47c.65.89 1.77 1.47 2.96 1.47c1.97 0 3.5-1.6 3.5-3.57V12c0-5.52-4.48-10-10-10m0 13c-1.66 0-3-1.34-3-3s1.34-3 3-3s3 1.34 3 3s-1.34 3-3 3"/></symbol><symbol id="hd-icon-ic-baseline-amp-stories" viewBox="0 0 24 24"><path fill="currentColor" d="M7 4h10v15H7zM3 6h2v11H3zm16 0h2v11h-2z"/></symbol><symbol id="hd-icon-ic-baseline-analytics" viewBox="0 0 24 24"><path fill="currentColor" d="M19 3H5c-1.1 0-2 .9-2 2v14c0 1.1.9 2 2 2h14c1.1 0 2-.9 2-2V5c0-1.1-.9-2-2-2M9 17H7v-5h2zm4 0h-2v-3h2zm0-5h-2v-2h2zm4 5h-2V7h2z"/></symbol><symbol id="hd-icon-ic-baseline-anchor" viewBox="0 0 24 24"><path fill="currentColor" d="m17 15l1.55 1.55c-.96 1.69-3.33 3.04-5.55 3.37V11h3V9h-3V7.82C14.16 7.4 15 6.3 15 5c0-1.65-1.35-3-3-3S9 3.35 9 5c0 1.3.84 2.4 2 2.82V9H8v2h3v8.92c-2.22-.33-4.59-1.68-5.55-3.37L7 15l-4-3v3c0 3.88 4.92 7 9 7s9-3.12 9-7v-3zM12 4c.55 0 1 .45 1 1s-.45 1-1 1s-1-.45-1-1s.45-1 1-1"/></symbol><symbol id="hd-icon-ic-baseline-android" viewBox="0 0 24 24"><path fill="currentColor" d="m17.6 9.48l1.84-3.18c.16-.31.04-.69-.26-.85a.637.637 0 0 0-.83.22l-1.88 3.24a11.46 11.46 0 0 0-8.94 0L5.65 5.67a.643.643 0 0 0-.87-.2c-.28.18-.37.54-.22.83L6.4 9.48A10.78 10.78 0 0 0 1 18h22a10.78 10.78 0 0 0-5.4-8.52M7 15.25a1.25 1.25 0 1 1 0-2.5a1.25 1.25 0 0 1 0 2.5m10 0a1.25 1.25 0 1 1 0-2.5a1.25 1.25 0 0 1 0 2.5"/></symbol><symbol id="hd-icon-ic-baseline-animation" viewBox="0 0 24 24"><path fill="currentColor" d="M15 2c-2.71 0-5.05 1.54-6.22 3.78a7.06 7.06 0 0 0-3 3A7.01 7.01 0 0 0 2 15c0 3.87 3.13 7 7 7c2.71 0 5.05-1.54 6.22-3.78a7.06 7.06 0 0 0 3-3A7.01 7.01 0 0 0 22 9c0-3.87-3.13-7-7-7M9 20a5.002 5.002 0 0 1-4-8c0 3.87 3.13 7 7 7c-.84.63-1.88 1-3 1m3-3a5.002 5.002 0 0 1-4-8c0 3.86 3.13 6.99 7 7c-.84.63-1.88 1-3 1m4.7-3.3c-.53.19-1.1.3-1.7.3c-2.76 0-5-2.24-5-5c0-.6.11-1.17.3-1.7c.53-.19 1.1-.3 1.7-.3c2.76 0 5 2.24 5 5c0 .6-.11 1.17-.3 1.7M19 12c0-3.86-3.13-6.99-7-7a5.002 5.002 0 0 1 7 7"/></symbol><symbol id="hd-icon-ic-baseline-announcement" viewBox="0 0 24 24"><path fill="currentColor" d="M20 2H4c-1.1 0-1.99.9-1.99 2L2 22l4-4h14c1.1 0 2-.9 2-2V4c0-1.1-.9-2-2-2m-7 9h-2V5h2zm0 4h-2v-2h2z"/></symbol><symbol id="hd-icon-ic-baseline-aod" viewBox="0 0 24 24"><path fill="currentColor" d="M17 1.01L7 1c-1.1 0-2 .9-2 2v18c0 1.1.9 2 2 2h10c1.1 0 2-.9 2-2V3c0-1.1-.9-1.99-2-1.99M17 18H7V6h10zm-9-8h8v1.5H8zm1 3h6v1.5H9z"/></symbol><symbol id="hd-icon-ic-baseline-apartment" viewBox="0 0 24 24"><path fill="currentColor" d="M17 11V3H7v4H3v14h8v-4h2v4h8V11zM7 19H5v-2h2zm0-4H5v-2h2zm0-4H5V9h2zm4 4H9v-2h2zm0-4H9V9h2zm0-4H9V5h2zm4 8h-2v-2h2zm0-4h-2V9h2zm0-4h-2V5h2zm4 12h-2v-2h2zm0-4h-2v-2h2z"/></symbol><symbol id="hd-icon-ic-baseline-api" viewBox="0 0 24 24"><path fill="currentColor" d="m14 12l-2 2l-2-2l2-2zm-2-6l2.12 2.12l2.5-2.5L12 1L7.38 5.62l2.5 2.5zm-6 6l2.12-2.12l-2.5-2.5L1 12l4.62 4.62l2.5-2.5zm12 0l-2.12 2.12l2.5 2.5L23 12l-4.62-4.62l-2.5 2.5zm-6 6l-2.12-2.12l-2.5 2.5L12 23l4.62-4.62l-2.5-2.5z"/></symbol><symbol id="hd-icon-ic-baseline-app-blocking" viewBox="0 0 24 24"><path fill="currentColor" d="M18 8c-2.21 0-4 1.79-4 4s1.79 4 4 4s4-1.79 4-4s-1.79-4-4-4m-2.5 4A2.5 2.5 0 0 1 18 9.5c.42 0 .8.11 1.15.29l-3.36 3.36c-.18-.35-.29-.73-.29-1.15m2.5 2.5c-.42 0-.8-.11-1.15-.29l3.36-3.36c.18.35.29.73.29 1.15a2.5 2.5 0 0 1-2.5 2.5M17 18H7V6h10v1h2V3c0-1.1-.9-2-2-2H7c-1.1 0-2 .9-2 2v18c0 1.1.9 2 2 2h10c1.1 0 2-.9 2-2v-4h-2z"/></symbol><symbol id="hd-icon-ic-baseline-app-registration" viewBox="0 0 24 24"><path fill="currentColor" d="M10 4h4v4h-4zM4 16h4v4H4zm0-6h4v4H4zm0-6h4v4H4zm10 8.42V10h-4v4h2.42zm6.88-1.13l-1.17-1.17a.41.41 0 0 0-.58 0l-.88.88L20 12.75l.88-.88a.41.41 0 0 0 0-.58M11 18.25V20h1.75l6.67-6.67l-1.75-1.75zM16 4h4v4h-4z"/></symbol><symbol id="hd-icon-ic-baseline-app-settings-alt" viewBox="0 0 24 24"><path fill="currentColor" d="m21.81 12.74l-.82-.63v-.22l.8-.63c.16-.12.2-.34.1-.51l-.85-1.48a.4.4 0 0 0-.35-.2q-.075 0-.15.03l-.95.38c-.08-.05-.11-.07-.19-.11l-.15-1.01a.41.41 0 0 0-.4-.36h-1.71c-.2 0-.37.15-.4.34l-.14 1.01c-.03.02-.07.03-.1.05l-.09.06l-.95-.38a.4.4 0 0 0-.5.17l-.85 1.48c-.1.17-.06.39.1.51l.8.63v.23l-.8.63a.39.39 0 0 0-.1.51l.85 1.48c.07.13.21.2.35.2q.075 0 .15-.03l.95-.37c.08.05.12.07.2.11l.15 1.01c.03.2.2.34.4.34h1.71c.2 0 .37-.15.4-.34l.15-1.01c.03-.02.07-.03.1-.05l.09-.06l.95.38a.4.4 0 0 0 .5-.17l.85-1.48a.39.39 0 0 0-.1-.51M18 13.5c-.83 0-1.5-.67-1.5-1.5s.67-1.5 1.5-1.5s1.5.67 1.5 1.5s-.67 1.5-1.5 1.5M17 17h2v4c0 1.1-.9 2-2 2H7c-1.1 0-2-.9-2-2V3c0-1.1.9-2 2-2h10c1.1 0 2 .9 2 2v4h-2V6H7v12h10z"/></symbol><symbol id="hd-icon-ic-baseline-app-shortcut" viewBox="0 0 24 24"><path fill="currentColor" d="M17 18H7V6h10v1h2V3c0-1.1-.9-2-2-2H7c-1.1 0-2 .9-2 2v18c0 1.1.9 2 2 2h10c1.1 0 2-.9 2-2v-4h-2zm3.38-8.38L21 11l.62-1.38L23 9l-1.38-.62L21 7l-.62 1.38L19 9z"/><path fill="currentColor" d="m16 8l-1.25 2.75L12 12l2.75 1.25L16 16l1.25-2.75L20 12l-2.75-1.25zm5 5l-.62 1.38L19 15l1.38.62L21 17l.62-1.38L23 15l-1.38-.62z"/></symbol><symbol id="hd-icon-ic-baseline-apple" viewBox="0 0 24 24"><path fill="currentColor" d="M17.05 20.28c-.98.95-2.05.8-3.08.35c-1.09-.46-2.09-.48-3.24 0c-1.44.62-2.2.44-3.06-.35C2.79 15.25 3.51 7.59 9.05 7.31c1.35.07 2.29.74 3.08.8c1.18-.24 2.31-.93 3.57-.84c1.51.12 2.65.72 3.4 1.8c-3.12 1.87-2.38 5.98.48 7.13c-.57 1.5-1.31 2.99-2.54 4.09zM12.03 7.25c-.15-2.23 1.66-4.07 3.74-4.25c.29 2.58-2.34 4.5-3.74 4.25"/></symbol><symbol id="hd-icon-ic-baseline-approval" viewBox="0 0 24 24"><path fill="currentColor" d="M4 16v6h16v-6c0-1.1-.9-2-2-2H6c-1.1 0-2 .9-2 2m14 2H6v-2h12zM12 2C9.24 2 7 4.24 7 7l5 7l5-7c0-2.76-2.24-5-5-5m0 9L9 7c0-1.66 1.34-3 3-3s3 1.34 3 3z"/></symbol><symbol id="hd-icon-ic-baseline-apps" viewBox="0 0 24 24"><path fill="currentColor" d="M4 8h4V4H4zm6 12h4v-4h-4zm-6 0h4v-4H4zm0-6h4v-4H4zm6 0h4v-4h-4zm6-10v4h4V4zm-6 4h4V4h-4zm6 6h4v-4h-4zm0 6h4v-4h-4z"/></symbol><symbol id="hd-icon-ic-baseline-apps-outage" viewBox="0 0 24 24"><path fill="currentColor" d="M4 8h4V4H4zm6 12h4v-4h-4zm-6 0h4v-4H4zm0-6h4v-4H4zm6 0h4v-4h-4zm6 6h4v-4h-4zm3-20c-2.76 0-5 2.24-5 5s2.24 5 5 5s5-2.24 5-5s-2.24-5-5-5m.5 8h-1V7h1zm0-2h-1V2h1zM16 14h4v-2.07c-.33.05-.66.07-1 .07c-1.07 0-2.09-.24-3-.68zM10 4v4h2.68c-.44-.91-.68-1.93-.68-3c0-.34.02-.67.07-1z"/></symbol><symbol id="hd-icon-ic-baseline-architecture" viewBox="0 0 24 24"><path fill="currentColor" d="M6.36 18.78L6.61 21l1.62-1.54l2.77-7.6c-.68-.17-1.28-.51-1.77-.98zm8.41-7.9c-.49.47-1.1.81-1.77.98l2.77 7.6L17.39 21l.26-2.22zM15 8c0-1.3-.84-2.4-2-2.82V3h-2v2.18C9.84 5.6 9 6.7 9 8c0 1.66 1.34 3 3 3s3-1.34 3-3m-3 1c-.55 0-1-.45-1-1s.45-1 1-1s1 .45 1 1s-.45 1-1 1"/></symbol><symbol id="hd-icon-ic-baseline-archive" viewBox="0 0 24 24"><path fill="currentColor" d="m20.54 5.23l-1.39-1.68C18.88 3.21 18.47 3 18 3H6c-.47 0-.88.21-1.16.55L3.46 5.23C3.17 5.57 3 6.02 3 6.5V19c0 1.1.9 2 2 2h14c1.1 0 2-.9 2-2V6.5c0-.48-.17-.93-.46-1.27M12 17.5L6.5 12H10v-2h4v2h3.5zM5.12 5l.81-1h12l.94 1z"/></symbol><symbol id="hd-icon-ic-baseline-area-chart" viewBox="0 0 24 24"><path fill="currentColor" d="M3 13v7h18v-1.5l-9-7L8 17zm0-6l4 3l5-7l5 4h4v8.97l-9.4-7.31l-3.98 5.48L3 10.44z"/></symbol><symbol id="hd-icon-ic-baseline-arrow-back" viewBox="0 0 24 24"><path fill="currentColor" d="M20 11H7.83l5.59-5.59L12 4l-8 8l8 8l1.41-1.41L7.83 13H20z"/></symbol><symbol id="hd-icon-ic-baseline-arrow-back-ios" viewBox="0 0 24 24"><path fill="currentColor" d="M11.67 3.87L9.9 2.1L0 12l9.9 9.9l1.77-1.77L3.54 12z"/></symbol><symbol id="hd-icon-ic-baseline-arrow-back-ios-new" viewBox="0 0 24 24"><path fill="currentColor" d="M17.77 3.77L16 2L6 12l10 10l1.77-1.77L9.54 12z"/></symbol><symbol id="hd-icon-ic-baseline-arrow-circle-down" viewBox="0 0 24 24"><path fill="currentColor" d="M12 4c4.41 0 8 3.59 8 8s-3.59 8-8 8s-8-3.59-8-8s3.59-8 8-8m0-2C6.48 2 2 6.48 2 12s4.48 10 10 10s10-4.48 10-10S17.52 2 12 2m1 10V8h-2v4H8l4 4l4-4z"/></symbol><symbol id="hd-icon-ic-baseline-arrow-circle-left" viewBox="0 0 24 24"><path fill="currentColor" d="M2 12c0 5.52 4.48 10 10 10s10-4.48 10-10S17.52 2 12 2S2 6.48 2 12m10-1h4v2h-4v3l-4-4l4-4z"/></symbol><symbol id="hd-icon-ic-baseline-arrow-circle-right" viewBox="0 0 24 24"><path fill="currentColor" d="M22 12c0-5.52-4.48-10-10-10S2 6.48 2 12s4.48 10 10 10s10-4.48 10-10m-10 1H8v-2h4V8l4 4l-4 4z"/></symbol><symbol id="hd-icon-ic-baseline-arrow-circle-up" viewBox="0 0 24 24"><path fill="currentColor" d="M12 20c-4.41 0-8-3.59-8-8s3.59-8 8-8s8 3.59 8 8s-3.59 8-8 8m0 2c5.52 0 10-4.48 10-10S17.52 2 12 2S2 6.48 2 12s4.48 10 10 10m-1-10v4h2v-4h3l-4-4l-4 4z"/></symbol><symbol id="hd-icon-ic-baseline-arrow-downward" viewBox="0 0 24 24"><path fill="currentColor" d="m20 12l-1.41-1.41L13 16.17V4h-2v12.17l-5.58-5.59L4 12l8 8z"/></symbol><symbol id="hd-icon-ic-baseline-arrow-drop-down" viewBox="0 0 24 24"><path fill="currentColor" d="m7 10l5 5l5-5z"/></symbol><symbol id="hd-icon-ic-baseline-arrow-drop-down-circle" viewBox="0 0 24 24"><path fill="currentColor" d="M12 2C6.48 2 2 6.48 2 12s4.48 10 10 10s10-4.48 10-10S17.52 2 12 2m0 12l-4-4h8z"/></symbol><symbol id="hd-icon-ic-baseline-arrow-drop-up" viewBox="0 0 24 24"><path fill="currentColor" d="m7 14l5-5l5 5z"/></symbol><symbol id="hd-icon-ic-baseline-arrow-forward" viewBox="0 0 24 24"><path fill="currentColor" d="m12 4l-1.41 1.41L16.17 11H4v2h12.17l-5.58 5.59L12 20l8-8z"/></symbol><symbol id="hd-icon-ic-baseline-arrow-forward-ios" viewBox="0 0 24 24"><path fill="currentColor" d="M6.23 20.23L8 22l10-10L8 2L6.23 3.77L14.46 12z"/></symbol><symbol id="hd-icon-ic-baseline-arrow-left" viewBox="0 0 24 24"><path fill="currentColor" d="m14 7l-5 5l5 5z"/></symbol><symbol id="hd-icon-ic-baseline-arrow-outward" viewBox="0 0 24 24"><path fill="currentColor" d="M6 6v2h8.59L5 17.59L6.41 19L16 9.41V18h2V6z"/></symbol><symbol id="hd-icon-ic-baseline-arrow-right" viewBox="0 0 24 24"><path fill="currentColor" d="m10 17l5-5l-5-5z"/></symbol><symbol id="hd-icon-ic-baseline-arrow-right-alt" viewBox="0 0 24 24"><path fill="currentColor" d="M16.01 11H4v2h12.01v3L20 12l-3.99-4z"/></symbol><symbol id="hd-icon-ic-baseline-arrow-upward" viewBox="0 0 24 24"><path fill="currentColor" d="m4 12l1.41 1.41L11 7.83V20h2V7.83l5.58 5.59L20 12l-8-8z"/></symbol><symbol id="hd-icon-ic-baseline-art-track" viewBox="0 0 24 24"><path fill="currentColor" d="M22 13h-8v-2h8zm0-6h-8v2h8zm-8 10h8v-2h-8zm-2-8v6c0 1.1-.9 2-2 2H4c-1.1 0-2-.9-2-2V9c0-1.1.9-2 2-2h6c1.1 0 2 .9 2 2m-1.5 6l-2.25-3l-1.75 2.26l-1.25-1.51L3.5 15z"/></symbol><symbol id="hd-icon-ic-baseline-article" viewBox="0 0 24 24"><path fill="currentColor" d="M19 3H5c-1.1 0-2 .9-2 2v14c0 1.1.9 2 2 2h14c1.1 0 2-.9 2-2V5c0-1.1-.9-2-2-2m-5 14H7v-2h7zm3-4H7v-2h10zm0-4H7V7h10z"/></symbol><symbol id="hd-icon-ic-baseline-aspect-ratio" viewBox="0 0 24 24"><path fill="currentColor" d="M19 12h-2v3h-3v2h5zM7 9h3V7H5v5h2zm14-6H3c-1.1 0-2 .9-2 2v14c0 1.1.9 2 2 2h18c1.1 0 2-.9 2-2V5c0-1.1-.9-2-2-2m0 16.01H3V4.99h18z"/></symbol><symbol id="hd-icon-ic-baseline-assessment" viewBox="0 0 24 24"><path fill="currentColor" d="M19 3H5c-1.1 0-2 .9-2 2v14c0 1.1.9 2 2 2h14c1.1 0 2-.9 2-2V5c0-1.1-.9-2-2-2M9 17H7v-7h2zm4 0h-2V7h2zm4 0h-2v-4h2z"/></symbol><symbol id="hd-icon-ic-baseline-assignment" viewBox="0 0 24 24"><path fill="currentColor" d="M19 3h-4.18C14.4 1.84 13.3 1 12 1s-2.4.84-2.82 2H5c-1.1 0-2 .9-2 2v14c0 1.1.9 2 2 2h14c1.1 0 2-.9 2-2V5c0-1.1-.9-2-2-2m-7 0c.55 0 1 .45 1 1s-.45 1-1 1s-1-.45-1-1s.45-1 1-1m2 14H7v-2h7zm3-4H7v-2h10zm0-4H7V7h10z"/></symbol><symbol id="hd-icon-ic-baseline-assignment-ind" viewBox="0 0 24 24"><path fill="currentColor" d="M19 3h-4.18C14.4 1.84 13.3 1 12 1s-2.4.84-2.82 2H5c-1.1 0-2 .9-2 2v14c0 1.1.9 2 2 2h14c1.1 0 2-.9 2-2V5c0-1.1-.9-2-2-2m-7 0c.55 0 1 .45 1 1s-.45 1-1 1s-1-.45-1-1s.45-1 1-1m0 4c1.66 0 3 1.34 3 3s-1.34 3-3 3s-3-1.34-3-3s1.34-3 3-3m6 12H6v-1.4c0-2 4-3.1 6-3.1s6 1.1 6 3.1z"/></symbol><symbol id="hd-icon-ic-baseline-assignment-late" viewBox="0 0 24 24"><path fill="currentColor" d="M19 3h-4.18C14.4 1.84 13.3 1 12 1s-2.4.84-2.82 2H5c-1.1 0-2 .9-2 2v14c0 1.1.9 2 2 2h14c1.1 0 2-.9 2-2V5c0-1.1-.9-2-2-2m-6 15h-2v-2h2zm0-4h-2V8h2zm-1-9c-.55 0-1-.45-1-1s.45-1 1-1s1 .45 1 1s-.45 1-1 1"/></symbol><symbol id="hd-icon-ic-baseline-assignment-return" viewBox="0 0 24 24"><path fill="currentColor" d="M19 3h-4.18C14.4 1.84 13.3 1 12 1s-2.4.84-2.82 2H5c-1.1 0-2 .9-2 2v14c0 1.1.9 2 2 2h14c1.1 0 2-.9 2-2V5c0-1.1-.9-2-2-2m-7 0c.55 0 1 .45 1 1s-.45 1-1 1s-1-.45-1-1s.45-1 1-1m4 12h-4v3l-5-5l5-5v3h4z"/></symbol><symbol id="hd-icon-ic-baseline-assignment-returned" viewBox="0 0 24 24"><path fill="currentColor" d="M19 3h-4.18C14.4 1.84 13.3 1 12 1s-2.4.84-2.82 2H5c-1.1 0-2 .9-2 2v14c0 1.1.9 2 2 2h14c1.1 0 2-.9 2-2V5c0-1.1-.9-2-2-2m-7 0c.55 0 1 .45 1 1s-.45 1-1 1s-1-.45-1-1s.45-1 1-1m0 15l-5-5h3V9h4v4h3z"/></symbol><symbol id="hd-icon-ic-baseline-assignment-turned-in" viewBox="0 0 24 24"><path fill="currentColor" d="M19 3h-4.18C14.4 1.84 13.3 1 12 1s-2.4.84-2.82 2H5c-1.1 0-2 .9-2 2v14c0 1.1.9 2 2 2h14c1.1 0 2-.9 2-2V5c0-1.1-.9-2-2-2m-7 0c.55 0 1 .45 1 1s-.45 1-1 1s-1-.45-1-1s.45-1 1-1m-2 14l-4-4l1.41-1.41L10 14.17l6.59-6.59L18 9z"/></symbol><symbol id="hd-icon-ic-baseline-assist-walker" viewBox="0 0 24 24"><circle cx="12.5" cy="4.5" r="2" fill="currentColor"/><path fill="currentColor" d="m19.77 17.72l-.64-6.37A1.49 1.49 0 0 0 17.64 10H16c-1.5-.02-2.86-.54-3.76-1.44l-2-1.98A1.95 1.95 0 0 0 8.83 6c-.51 0-1.02.2-1.41.59L4.08 9.91c-.53.68-.51 1.57-.21 2.13l1.43 2.8l-3.15 4.05l1.57 1.24L7.4 15.4l-.17-1.36l.77.71V20h2v-6.12l-2.12-2.12l2.36-2.36c.94.94 1.72 1.82 3.59 2.32L13 20h1.5l.41-3.5h3.18l.14 1.22c-.44.26-.73.74-.73 1.28c0 .83.67 1.5 1.5 1.5s1.5-.67 1.5-1.5c0-.54-.29-1.02-.73-1.28M15.09 15l.41-3.5h2l.41 3.5z"/></symbol><symbol id="hd-icon-ic-baseline-assistant" viewBox="0 0 24 24"><path fill="currentColor" d="M19 2H5c-1.1 0-2 .9-2 2v14c0 1.1.9 2 2 2h4l3 3l3-3h4c1.1 0 2-.9 2-2V4c0-1.1-.9-2-2-2m-5.12 10.88L12 17l-1.88-4.12L6 11l4.12-1.88L12 5l1.88 4.12L18 11z"/></symbol><symbol id="hd-icon-ic-baseline-assistant-direction" viewBox="0 0 24 24"><path fill="currentColor" d="M14 10H9c-.6 0-1 .4-1 1v4h2v-3h4v2.5l3.5-3.5L14 7.5zm-2-9C5.9 1 1 5.9 1 12s4.9 11 11 11s11-4.9 11-11S18.1 1 12 1m7.73 11.58l-7.19 7.22c-.35.27-.79.27-1.15 0L4.2 12.58a.93.93 0 0 1 0-1.16l7.19-7.22c.35-.27.79-.27 1.15 0l7.19 7.22c.36.27.36.8 0 1.16"/></symbol><symbol id="hd-icon-ic-baseline-assistant-photo" viewBox="0 0 24 24"><path fill="currentColor" d="M14.4 6L14 4H5v17h2v-7h5.6l.4 2h7V6z"/></symbol><symbol id="hd-icon-ic-baseline-assured-workload" viewBox="0 0 24 24"><path fill="currentColor" d="M5 10h2v7H5zm6 0h2v7h-2zm11-4L12 1L2 6v2h20zM2 19v2h12.4c-.21-.64-.32-1.31-.36-2zm17-6.74V10h-2v3.26zM20 14l-4 2v2.55c0 2.52 1.71 4.88 4 5.45c2.29-.57 4-2.93 4-5.45V16zm-.72 7l-2.03-2.03l1.06-1.06l.97.97l2.41-2.38l1.06 1.06z"/></symbol><symbol id="hd-icon-ic-baseline-atm" viewBox="0 0 24 24"><path fill="currentColor" d="M8 9v1.5h2.25V15h1.5v-4.5H14V9zM6 9H3c-.55 0-1 .45-1 1v5h1.5v-1.5h2V15H7v-5c0-.55-.45-1-1-1m-.5 3h-2v-1.5h2zM21 9h-4.5c-.55 0-1 .45-1 1v5H17v-4.5h1V14h1.5v-3.51h1V15H22v-5c0-.55-.45-1-1-1"/></symbol><symbol id="hd-icon-ic-baseline-attach-email" viewBox="0 0 24 24"><path fill="currentColor" d="M21 10V4c0-1.1-.9-2-2-2H3c-1.1 0-1.99.9-1.99 2L1 16c0 1.1.9 2 2 2h11v-5c0-1.66 1.34-3 3-3zm-10 1L3 6V4l8 5l8-5v2z"/><path fill="currentColor" d="M21 14v4c0 1.1-.9 2-2 2s-2-.9-2-2v-4.5c0-.28.22-.5.5-.5s.5.22.5.5V18h2v-4.5a2.5 2.5 0 0 0-5 0V18c0 2.21 1.79 4 4 4s4-1.79 4-4v-4z"/></symbol><symbol id="hd-icon-ic-baseline-attach-file" viewBox="0 0 24 24"><path fill="currentColor" d="M16.5 6v11.5c0 2.21-1.79 4-4 4s-4-1.79-4-4V5a2.5 2.5 0 0 1 5 0v10.5c0 .55-.45 1-1 1s-1-.45-1-1V6H10v9.5a2.5 2.5 0 0 0 5 0V5c0-2.21-1.79-4-4-4S7 2.79 7 5v12.5c0 3.04 2.46 5.5 5.5 5.5s5.5-2.46 5.5-5.5V6z"/></symbol><symbol id="hd-icon-ic-baseline-attach-money" viewBox="0 0 24 24"><path fill="currentColor" d="M11.8 10.9c-2.27-.59-3-1.2-3-2.15c0-1.09 1.01-1.85 2.7-1.85c1.78 0 2.44.85 2.5 2.1h2.21c-.07-1.72-1.12-3.3-3.21-3.81V3h-3v2.16c-1.94.42-3.5 1.68-3.5 3.61c0 2.31 1.91 3.46 4.7 4.13c2.5.6 3 1.48 3 2.41c0 .69-.49 1.79-2.7 1.79c-2.06 0-2.87-.92-2.98-2.1h-2.2c.12 2.19 1.76 3.42 3.68 3.83V21h3v-2.15c1.95-.37 3.5-1.5 3.5-3.55c0-2.84-2.43-3.81-4.7-4.4"/></symbol><symbol id="hd-icon-ic-baseline-attachment" viewBox="0 0 24 24"><path fill="currentColor" d="M2 12.5C2 9.46 4.46 7 7.5 7H18c2.21 0 4 1.79 4 4s-1.79 4-4 4H9.5a2.5 2.5 0 0 1 0-5H17v2H9.41c-.55 0-.55 1 0 1H18c1.1 0 2-.9 2-2s-.9-2-2-2H7.5C5.57 9 4 10.57 4 12.5S5.57 16 7.5 16H17v2H7.5C4.46 18 2 15.54 2 12.5"/></symbol><symbol id="hd-icon-ic-baseline-attractions" viewBox="0 0 24 24"><path fill="currentColor" d="M10.43 18.75c.37-.46.94-.75 1.57-.75s1.19.29 1.56.75c.39-.09.76-.21 1.12-.36l-1.42-3.18a3.52 3.52 0 0 1-2.56-.02l-1.43 3.19c.38.16.76.29 1.16.37M5.15 10a7.06 7.06 0 0 0 .08 4c.63.05 1.22.4 1.56.99c.33.57.35 1.23.11 1.79c.27.27.56.53.87.76l1.52-3.39c-.47-.58-.75-1.32-.75-2.13c0-1.89 1.55-3.41 3.46-3.41s3.46 1.53 3.46 3.41c0 .82-.29 1.57-.78 2.16l1.5 3.35c.32-.24.62-.5.9-.79c-.22-.55-.2-1.2.12-1.75c.33-.57.9-.92 1.52-.99a7.03 7.03 0 0 0 .09-4.02c-.64-.04-1.26-.39-1.6-1c-.36-.62-.35-1.36-.03-1.95c-.91-.98-2.1-1.71-3.44-2.05C13.39 5.6 12.74 6 12 6s-1.39-.41-1.74-1.01a7.05 7.05 0 0 0-3.44 2.03c.33.6.35 1.35-.02 1.98c-.35.62-.99.97-1.65 1m-1.3-.42c-.78-.6-1.02-1.7-.51-2.58s1.58-1.23 2.49-.85a8.53 8.53 0 0 1 4.18-2.42C10.15 2.75 10.99 2 12 2s1.85.75 1.98 1.73c1.63.39 3.07 1.24 4.18 2.42a1.99 1.99 0 0 1 2.49.85c.51.88.27 1.98-.51 2.58c.23.77.35 1.58.35 2.42s-.12 1.65-.35 2.42c.78.6 1.02 1.7.51 2.58s-1.58 1.23-2.49.85c-.4.43-.85.81-1.34 1.15l1.34 3H16.3l-.97-2.17c-.43.18-.88.33-1.34.44c-.14.98-.98 1.73-1.99 1.73s-1.85-.75-1.98-1.73c-.48-.12-.94-.27-1.38-.46L7.66 22H5.78l1.36-3.03a8.7 8.7 0 0 1-1.3-1.12c-.92.38-1.99.03-2.5-.85s-.27-1.98.51-2.58c-.23-.77-.35-1.58-.35-2.42s.12-1.65.35-2.42"/></symbol><symbol id="hd-icon-ic-baseline-attribution" viewBox="0 0 24 24"><path fill="currentColor" d="M12 8.5c-.91 0-2.75.46-2.75 1.38v4.62h1.5V19h2.5v-4.5h1.5V9.88c0-.91-1.84-1.38-2.75-1.38"/><path fill="currentColor" d="M12 2C6.47 2 2 6.47 2 12s4.47 10 10 10s10-4.48 10-10S17.52 2 12 2m0 18c-4.42 0-8-3.58-8-8s3.58-8 8-8s8 3.58 8 8s-3.58 8-8 8"/><circle cx="12" cy="6.5" r="1.5" fill="currentColor"/></symbol></svg>