<svg xmlns="http://www.w3.org/2000/svg" xmlns:xlink="http://www.w3.org/1999/xlink"><symbol id="hd-icon-ic-baseline-insert-comment" viewBox="0 0 24 24"><path fill="currentColor" d="M20 2H4c-1.1 0-2 .9-2 2v12c0 1.1.9 2 2 2h14l4 4V4c0-1.1-.9-2-2-2m-2 12H6v-2h12zm0-3H6V9h12zm0-3H6V6h12z"/></symbol><symbol id="hd-icon-ic-baseline-insert-drive-file" viewBox="0 0 24 24"><path fill="currentColor" d="M6 2c-1.1 0-1.99.9-1.99 2L4 20c0 1.1.89 2 1.99 2H18c1.1 0 2-.9 2-2V8l-6-6zm7 7V3.5L18.5 9z"/></symbol><symbol id="hd-icon-ic-baseline-insert-emoticon" viewBox="0 0 24 24"><path fill="currentColor" d="M11.99 2C6.47 2 2 6.48 2 12s4.47 10 9.99 10C17.52 22 22 17.52 22 12S17.52 2 11.99 2M12 20c-4.42 0-8-3.58-8-8s3.58-8 8-8s8 3.58 8 8s-3.58 8-8 8m3.5-9c.83 0 1.5-.67 1.5-1.5S16.33 8 15.5 8S14 8.67 14 9.5s.67 1.5 1.5 1.5m-7 0c.83 0 1.5-.67 1.5-1.5S9.33 8 8.5 8S7 8.67 7 9.5S7.67 11 8.5 11m3.5 6.5c2.33 0 4.31-1.46 5.11-3.5H6.89c.8 2.04 2.78 3.5 5.11 3.5"/></symbol><symbol id="hd-icon-ic-baseline-insert-invitation" viewBox="0 0 24 24"><path fill="currentColor" d="M17 12h-5v5h5zM16 1v2H8V1H6v2H5c-1.11 0-1.99.9-1.99 2L3 19a2 2 0 0 0 2 2h14c1.1 0 2-.9 2-2V5c0-1.1-.9-2-2-2h-1V1zm3 18H5V8h14z"/></symbol><symbol id="hd-icon-ic-baseline-insert-link" viewBox="0 0 24 24"><path fill="currentColor" d="M3.9 12c0-1.71 1.39-3.1 3.1-3.1h4V7H7c-2.76 0-5 2.24-5 5s2.24 5 5 5h4v-1.9H7c-1.71 0-3.1-1.39-3.1-3.1M8 13h8v-2H8zm9-6h-4v1.9h4c1.71 0 3.1 1.39 3.1 3.1s-1.39 3.1-3.1 3.1h-4V17h4c2.76 0 5-2.24 5-5s-2.24-5-5-5"/></symbol><symbol id="hd-icon-ic-baseline-insert-page-break" viewBox="0 0 24 24"><path fill="currentColor" d="M4 20c0 1.1.89 2 1.99 2H18c1.1 0 2-.9 2-2v-3H4zM20 8l-6-6H6c-1.1 0-1.99.9-1.99 2v7H20zm-7 1V3.5L18.5 9zm-4 4h6v2H9zm8 0h6v2h-6zM1 13h6v2H1z"/></symbol><symbol id="hd-icon-ic-baseline-insert-photo" viewBox="0 0 24 24"><path fill="currentColor" d="M21 19V5c0-1.1-.9-2-2-2H5c-1.1 0-2 .9-2 2v14c0 1.1.9 2 2 2h14c1.1 0 2-.9 2-2M8.5 13.5l2.5 3.01L14.5 12l4.5 6H5z"/></symbol><symbol id="hd-icon-ic-baseline-insights" viewBox="0 0 24 24"><path fill="currentColor" d="M21 8c-1.45 0-2.26 1.44-1.93 2.51l-3.55 3.56c-.3-.09-.74-.09-1.04 0l-2.55-2.55C12.27 10.45 11.46 9 10 9c-1.45 0-2.27 1.44-1.93 2.52l-4.56 4.55C2.44 15.74 1 16.55 1 18c0 1.1.9 2 2 2c1.45 0 2.26-1.44 1.93-2.51l4.55-4.56c.3.09.74.09 1.04 0l2.55 2.55C12.73 16.55 13.54 18 15 18c1.45 0 2.27-1.44 1.93-2.52l3.56-3.55c1.07.33 2.51-.48 2.51-1.93c0-1.1-.9-2-2-2"/><path fill="currentColor" d="m15 9l.94-2.07L18 6l-2.06-.93L15 3l-.92 2.07L12 6l2.08.93zM3.5 11L4 9l2-.5L4 8l-.5-2L3 8l-2 .5L3 9z"/></symbol><symbol id="hd-icon-ic-baseline-install-desktop" viewBox="0 0 24 24"><path fill="currentColor" d="M20 17H4V5h8V3H4c-1.11 0-2 .89-2 2v12a2 2 0 0 0 2 2h4v2h8v-2h4c1.1 0 2-.9 2-2v-3h-2z"/><path fill="currentColor" d="m17 14l5-5l-1.41-1.41L18 10.17V3h-2v7.17l-2.59-2.58L12 9z"/></symbol><symbol id="hd-icon-ic-baseline-install-mobile" viewBox="0 0 24 24"><path fill="currentColor" d="M17 18H7V6h7V1H7c-1.1 0-2 .9-2 2v18c0 1.1.9 2 2 2h10c1.1 0 2-.9 2-2v-5h-2z"/><path fill="currentColor" d="m18 14l5-5l-1.41-1.41L19 10.17V3h-2v7.17l-2.59-2.58L13 9z"/></symbol><symbol id="hd-icon-ic-baseline-integration-instructions" viewBox="0 0 24 24"><path fill="currentColor" d="M19 3h-4.18C14.4 1.84 13.3 1 12 1s-2.4.84-2.82 2H5c-.14 0-.27.01-.4.04a2.01 2.01 0 0 0-1.44 1.19c-.1.23-.16.49-.16.77v14c0 .27.06.54.16.78s.25.45.43.64c.27.27.62.47 1.01.55c.13.02.26.03.4.03h14c1.1 0 2-.9 2-2V5c0-1.1-.9-2-2-2m-8 11.17l-1.41 1.42L6 12l3.59-3.59L11 9.83L8.83 12zm1-9.92c-.41 0-.75-.34-.75-.75s.34-.75.75-.75s.75.34.75.75s-.34.75-.75.75m2.41 11.34L13 14.17L15.17 12L13 9.83l1.41-1.42L18 12z"/></symbol><symbol id="hd-icon-ic-baseline-interests" viewBox="0 0 24 24"><path fill="currentColor" d="M7.02 13c-2.21 0-4 1.79-4 4s1.79 4 4 4s4-1.79 4-4s-1.79-4-4-4M13 13v8h8v-8zM7 2l-5 9h10zm12.25.5c-1.06 0-1.81.56-2.25 1.17c-.44-.61-1.19-1.17-2.25-1.17C13.19 2.5 12 3.78 12 5.25c0 2 2.42 3.42 5 5.75c2.58-2.33 5-3.75 5-5.75c0-1.47-1.19-2.75-2.75-2.75"/></symbol><symbol id="hd-icon-ic-baseline-interpreter-mode" viewBox="0 0 24 24"><path fill="currentColor" d="M20.5 16.5c-.83 0-1.5-.67-1.5-1.5v-2.5c0-.83.67-1.5 1.5-1.5s1.5.67 1.5 1.5V15c0 .83-.67 1.5-1.5 1.5M20 20h1v-1.54c1.69-.24 3-1.7 3-3.46h-1a2.5 2.5 0 0 1-5 0h-1c0 1.76 1.31 3.22 3 3.46zM9 12c-2.21 0-4-1.79-4-4a4 4 0 0 1 5.34-3.77A5.94 5.94 0 0 0 9 8c0 1.43.5 2.74 1.34 3.77c-.42.15-.87.23-1.34.23m-1.89 1.13A4.97 4.97 0 0 0 5 17.22V20H1v-2.78c0-1.12.61-2.15 1.61-2.66c1.24-.64 2.76-1.19 4.5-1.43M11 8c0-2.21 1.79-4 4-4s4 1.79 4 4s-1.79 4-4 4s-4-1.79-4-4m7.32 12a5 5 0 0 1-2.82-4.5c0-.89.23-1.73.64-2.45c-.37-.03-.75-.05-1.14-.05c-2.53 0-4.71.7-6.39 1.56A2.97 2.97 0 0 0 7 17.22V20z"/></symbol><symbol id="hd-icon-ic-baseline-inventory" viewBox="0 0 24 24"><path fill="currentColor" d="M20 2H4c-1 0-2 .9-2 2v3.01c0 .72.43 1.34 1 1.69V20c0 1.1 1.1 2 2 2h14c.9 0 2-.9 2-2V8.7c.57-.35 1-.97 1-1.69V4c0-1.1-1-2-2-2m-5 12H9v-2h6zm5-7H4V4l16-.02z"/></symbol><symbol id="hd-icon-ic-baseline-inventory-2" viewBox="0 0 24 24"><path fill="currentColor" d="M20 2H4c-1 0-2 .9-2 2v3.01c0 .72.43 1.34 1 1.69V20c0 1.1 1.1 2 2 2h14c.9 0 2-.9 2-2V8.7c.57-.35 1-.97 1-1.69V4c0-1.1-1-2-2-2m-5 12H9v-2h6zm5-7H4V4h16z"/></symbol><symbol id="hd-icon-ic-baseline-invert-colors" viewBox="0 0 24 24"><path fill="currentColor" d="M12 4.81V19c-3.31 0-6-2.63-6-5.87c0-1.56.62-3.03 1.75-4.14zM6.35 7.56C4.9 8.99 4 10.96 4 13.13C4 17.48 7.58 21 12 21s8-3.52 8-7.87c0-2.17-.9-4.14-2.35-5.57L12 2z"/></symbol><symbol id="hd-icon-ic-baseline-invert-colors-off" viewBox="0 0 24 24"><path fill="currentColor" d="M21.19 21.19L2.81 2.81L1.39 4.22l4.2 4.2a7.73 7.73 0 0 0-1.6 4.7C4 17.48 7.58 21 12 21c1.75 0 3.36-.56 4.67-1.5l3.1 3.1zM12 19c-3.31 0-6-2.63-6-5.87c0-1.19.36-2.32 1.02-3.28L12 14.83zM8.38 5.56L12 2l5.65 5.56C19.1 8.99 20 10.96 20 13.13c0 1.18-.27 2.29-.74 3.3L12 9.17V4.81L9.8 6.97z"/></symbol><symbol id="hd-icon-ic-baseline-ios-share" viewBox="0 0 24 24"><path fill="currentColor" d="m16 5l-1.42 1.42l-1.59-1.59V16h-1.98V4.83L9.42 6.42L8 5l4-4zm4 5v11c0 1.1-.9 2-2 2H6a2 2 0 0 1-2-2V10c0-1.11.89-2 2-2h3v2H6v11h12V10h-3V8h3a2 2 0 0 1 2 2"/></symbol><symbol id="hd-icon-ic-baseline-iron" viewBox="0 0 24 24"><path fill="currentColor" d="M21 6c-1.66 0-3 1.34-3 3v4c0 .55-.45 1-1 1v-4c0-1.66-1.34-3-3-3h-4c-1.66 0-3 1.34-3 3h2c0-.55.45-1 1-1h4c.55 0 1 .45 1 1v1H6c-2.21 0-4 1.79-4 4v3h15v-2c1.66 0 3-1.34 3-3V9c0-.55.45-1 1-1h1V6z"/></symbol><symbol id="hd-icon-ic-baseline-iso" viewBox="0 0 24 24"><path fill="currentColor" d="M19 3H5c-1.1 0-2 .9-2 2v14c0 1.1.9 2 2 2h14c1.1 0 2-.9 2-2V5c0-1.1-.9-2-2-2M5.5 7.5h2v-2H9v2h2V9H9v2H7.5V9h-2zM19 19H5L19 5zm-2-2v-1.5h-5V17z"/></symbol><symbol id="hd-icon-ic-baseline-javascript" viewBox="0 0 24 24"><path fill="currentColor" d="M12 14v-1h1.5v.5h2v-1H13c-.55 0-1-.45-1-1V10c0-.55.45-1 1-1h3c.55 0 1 .45 1 1v1h-1.5v-.5h-2v1H16c.55 0 1 .45 1 1V14c0 .55-.45 1-1 1h-3c-.55 0-1-.45-1-1M9 9v4.5H7.5v-1H6v1c0 .83.67 1.5 1.5 1.5H9c.83 0 1.5-.67 1.5-1.5V9z"/></symbol><symbol id="hd-icon-ic-baseline-join-full" viewBox="0 0 24 24"><ellipse cx="12" cy="12" fill="currentColor" rx="3" ry="5.74"/><path fill="currentColor" d="M7.5 12c0-.97.23-4.16 3.03-6.5C9.75 5.19 8.9 5 8 5c-3.86 0-7 3.14-7 7s3.14 7 7 7c.9 0 1.75-.19 2.53-.5c-2.8-2.34-3.03-5.53-3.03-6.5M16 5c-.9 0-1.75.19-2.53.5c2.8 2.34 3.03 5.53 3.03 6.5s-.23 4.16-3.03 6.5c.78.31 1.63.5 2.53.5c3.86 0 7-3.14 7-7s-3.14-7-7-7"/></symbol><symbol id="hd-icon-ic-baseline-join-inner" viewBox="0 0 24 24"><ellipse cx="12" cy="12" fill="currentColor" rx="3" ry="5.74"/><path fill="currentColor" d="M9.04 16.87c-.33.08-.68.13-1.04.13c-2.76 0-5-2.24-5-5s2.24-5 5-5c.36 0 .71.05 1.04.13c.39-.56.88-1.12 1.49-1.63C9.75 5.19 8.9 5 8 5c-3.86 0-7 3.14-7 7s3.14 7 7 7c.9 0 1.75-.19 2.53-.5c-.61-.51-1.1-1.07-1.49-1.63M16 5c-.9 0-1.75.19-2.53.5c.61.51 1.1 1.07 1.49 1.63c.33-.08.68-.13 1.04-.13c2.76 0 5 2.24 5 5s-2.24 5-5 5c-.36 0-.71-.05-1.04-.13c-.39.56-.88 1.12-1.49 1.63c.78.31 1.63.5 2.53.5c3.86 0 7-3.14 7-7s-3.14-7-7-7"/></symbol><symbol id="hd-icon-ic-baseline-join-left" viewBox="0 0 24 24"><ellipse cx="12" cy="12" fill="currentColor" rx="3" ry="5.74"/><path fill="currentColor" d="M7.5 12c0-.97.23-4.16 3.03-6.5C9.75 5.19 8.9 5 8 5c-3.86 0-7 3.14-7 7s3.14 7 7 7c.9 0 1.75-.19 2.53-.5c-2.8-2.34-3.03-5.53-3.03-6.5M16 5c-.9 0-1.75.19-2.53.5c.61.51 1.1 1.07 1.49 1.63c.33-.08.68-.13 1.04-.13c2.76 0 5 2.24 5 5s-2.24 5-5 5c-.36 0-.71-.05-1.04-.13c-.39.56-.88 1.12-1.49 1.63c.78.31 1.63.5 2.53.5c3.86 0 7-3.14 7-7s-3.14-7-7-7"/></symbol><symbol id="hd-icon-ic-baseline-join-right" viewBox="0 0 24 24"><ellipse cx="12" cy="12" fill="currentColor" rx="3" ry="5.74"/><path fill="currentColor" d="M16.5 12c0 .97-.23 4.16-3.03 6.5c.78.31 1.63.5 2.53.5c3.86 0 7-3.14 7-7s-3.14-7-7-7c-.9 0-1.75.19-2.53.5c2.8 2.34 3.03 5.53 3.03 6.5M8 19c.9 0 1.75-.19 2.53-.5c-.61-.51-1.1-1.07-1.49-1.63c-.33.08-.68.13-1.04.13c-2.76 0-5-2.24-5-5s2.24-5 5-5c.36 0 .71.05 1.04.13c.39-.56.88-1.12 1.49-1.63C9.75 5.19 8.9 5 8 5c-3.86 0-7 3.14-7 7s3.14 7 7 7"/></symbol><symbol id="hd-icon-ic-baseline-kayaking" viewBox="0 0 24 24"><path fill="currentColor" d="M21 23c-1.03 0-2.06-.25-3-.75c-1.89 1-4.11 1-6 0c-1.89 1-4.11 1-6 0c-.95.5-1.97.75-3 .75H2v-2h1c1.04 0 2.08-.35 3-1c1.83 1.3 4.17 1.3 6 0c1.83 1.3 4.17 1.3 6 0c.91.65 1.96 1 3 1h1v2zM12 5.5c-1.1 0-2 .9-2 2s.9 2 2 2s2-.9 2-2s-.9-2-2-2m12 12s-1.52.71-3.93 1.37c-.82-.23-1.53-.75-2.07-1.37c-.73.84-1.8 1.5-3 1.5s-2.27-.66-3-1.5c-.73.84-1.8 1.5-3 1.5s-2.27-.66-3-1.5c-.54.61-1.25 1.13-2.07 1.37C1.52 18.21 0 17.5 0 17.5s2.93-1.36 7.13-2.08l1.35-4.17c.31-.95 1.32-1.47 2.27-1.16c.09.03.19.07.27.11l2.47 1.3l2.84-1.5l1.65-3.71l-.51-1.32L18.8 2L22 3.43L20.67 6.4l-1.31.5l-3.72 8.34c4.85.63 8.36 2.26 8.36 2.26m-8.98-4.54l-1.52.8l-1.75-.92l-.71 2.17c.32 0 .64-.01.96-.01c.71 0 1.4.03 2.07.08z"/></symbol><symbol id="hd-icon-ic-baseline-kebab-dining" viewBox="0 0 24 24"><path fill="currentColor" d="M7.75 8H11v5H7.75v1h.75a2.5 2.5 0 0 1 0 5h-.75v4h-1.5v-4H5.5a2.5 2.5 0 0 1 0-5h.75v-1H3V8h3.25V7H5.5a2.5 2.5 0 0 1 0-5h.75V1h1.5v1h.75a2.5 2.5 0 0 1 0 5h-.75zm10-1h.75a2.5 2.5 0 0 0 0-5h-.75V1h-1.5v1h-.75a2.5 2.5 0 0 0 0 5h.75v1H13v5h3.25v1h-.75a2.5 2.5 0 0 0 0 5h.75v4h1.5v-4h.75a2.5 2.5 0 0 0 0-5h-.75v-1H21V8h-3.25z"/></symbol><symbol id="hd-icon-ic-baseline-key" viewBox="0 0 24 24"><path fill="currentColor" d="M21 10h-8.35A5.99 5.99 0 0 0 7 6c-3.31 0-6 2.69-6 6s2.69 6 6 6a5.99 5.99 0 0 0 5.65-4H13l2 2l2-2l2 2l4-4.04zM7 15c-1.65 0-3-1.35-3-3s1.35-3 3-3s3 1.35 3 3s-1.35 3-3 3"/></symbol><symbol id="hd-icon-ic-baseline-key-off" viewBox="0 0 24 24"><path fill="currentColor" d="M16.91 14.09L17 14l2 2l4-4.04L21 10h-8.17zM3.98 6.81A6.01 6.01 0 0 0 1 12c0 3.31 2.69 6 6 6c2.21 0 4.15-1.2 5.18-2.99l7.59 7.59l1.41-1.41L2.81 2.81L1.39 4.22zm5.93 5.93A3.015 3.015 0 0 1 7 15c-1.65 0-3-1.35-3-3c0-1.4.97-2.58 2.26-2.91z"/></symbol><symbol id="hd-icon-ic-baseline-keyboard" viewBox="0 0 24 24"><path fill="currentColor" d="M20 5H4c-1.1 0-1.99.9-1.99 2L2 17c0 1.1.9 2 2 2h16c1.1 0 2-.9 2-2V7c0-1.1-.9-2-2-2m-9 3h2v2h-2zm0 3h2v2h-2zM8 8h2v2H8zm0 3h2v2H8zm-1 2H5v-2h2zm0-3H5V8h2zm9 7H8v-2h8zm0-4h-2v-2h2zm0-3h-2V8h2zm3 3h-2v-2h2zm0-3h-2V8h2z"/></symbol><symbol id="hd-icon-ic-baseline-keyboard-alt" viewBox="0 0 24 24"><path fill="currentColor" d="M21 4H3c-1.1 0-2 .9-2 2v13c0 1.1.9 2 2 2h18c1.1 0 2-.9 2-2V6c0-1.1-.9-2-2-2M7 12v2H5v-2zm-2-2V8h2v2zm6 2v2H9v-2zm-2-2V8h2v2zm7 6v1H8v-1zm-1-4v2h-2v-2zm-2-2V8h2v2zm4 4v-2h2v2zm2-4h-2V8h2z"/></symbol><symbol id="hd-icon-ic-baseline-keyboard-arrow-down" viewBox="0 0 24 24"><path fill="currentColor" d="M7.41 8.59L12 13.17l4.59-4.58L18 10l-6 6l-6-6z"/></symbol><symbol id="hd-icon-ic-baseline-keyboard-arrow-left" viewBox="0 0 24 24"><path fill="currentColor" d="M15.41 16.59L10.83 12l4.58-4.59L14 6l-6 6l6 6z"/></symbol><symbol id="hd-icon-ic-baseline-keyboard-arrow-right" viewBox="0 0 24 24"><path fill="currentColor" d="M8.59 16.59L13.17 12L8.59 7.41L10 6l6 6l-6 6z"/></symbol><symbol id="hd-icon-ic-baseline-keyboard-arrow-up" viewBox="0 0 24 24"><path fill="currentColor" d="M7.41 15.41L12 10.83l4.59 4.58L18 14l-6-6l-6 6z"/></symbol><symbol id="hd-icon-ic-baseline-keyboard-backspace" viewBox="0 0 24 24"><path fill="currentColor" d="M21 11H6.83l3.58-3.59L9 6l-6 6l6 6l1.41-1.41L6.83 13H21z"/></symbol><symbol id="hd-icon-ic-baseline-keyboard-capslock" viewBox="0 0 24 24"><path fill="currentColor" d="M12 8.41L16.59 13L18 11.59l-6-6l-6 6L7.41 13zM6 18h12v-2H6z"/></symbol><symbol id="hd-icon-ic-baseline-keyboard-command-key" viewBox="0 0 24 24"><path fill="currentColor" d="M17.5 3C15.57 3 14 4.57 14 6.5V8h-4V6.5C10 4.57 8.43 3 6.5 3S3 4.57 3 6.5S4.57 10 6.5 10H8v4H6.5C4.57 14 3 15.57 3 17.5S4.57 21 6.5 21s3.5-1.57 3.5-3.5V16h4v1.5c0 1.93 1.57 3.5 3.5 3.5s3.5-1.57 3.5-3.5s-1.57-3.5-3.5-3.5H16v-4h1.5c1.93 0 3.5-1.57 3.5-3.5S19.43 3 17.5 3M16 8V6.5c0-.83.67-1.5 1.5-1.5s1.5.67 1.5 1.5S18.33 8 17.5 8zM6.5 8C5.67 8 5 7.33 5 6.5S5.67 5 6.5 5S8 5.67 8 6.5V8zm3.5 6v-4h4v4zm7.5 5c-.83 0-1.5-.67-1.5-1.5V16h1.5c.83 0 1.5.67 1.5 1.5s-.67 1.5-1.5 1.5m-11 0c-.83 0-1.5-.67-1.5-1.5S5.67 16 6.5 16H8v1.5c0 .83-.67 1.5-1.5 1.5"/></symbol><symbol id="hd-icon-ic-baseline-keyboard-control-key" viewBox="0 0 24 24"><path fill="currentColor" d="m5 12l1.41 1.41L12 7.83l5.59 5.58L19 12l-7-7z"/></symbol><symbol id="hd-icon-ic-baseline-keyboard-double-arrow-down" viewBox="0 0 24 24"><path fill="currentColor" d="M18 6.41L16.59 5L12 9.58L7.41 5L6 6.41l6 6z"/><path fill="currentColor" d="m18 13l-1.41-1.41L12 16.17l-4.59-4.58L6 13l6 6z"/></symbol><symbol id="hd-icon-ic-baseline-keyboard-double-arrow-left" viewBox="0 0 24 24"><path fill="currentColor" d="M17.59 18L19 16.59L14.42 12L19 7.41L17.59 6l-6 6z"/><path fill="currentColor" d="m11 18l1.41-1.41L7.83 12l4.58-4.59L11 6l-6 6z"/></symbol><symbol id="hd-icon-ic-baseline-keyboard-double-arrow-right" viewBox="0 0 24 24"><path fill="currentColor" d="M6.41 6L5 7.41L9.58 12L5 16.59L6.41 18l6-6z"/><path fill="currentColor" d="m13 6l-1.41 1.41L16.17 12l-4.58 4.59L13 18l6-6z"/></symbol><symbol id="hd-icon-ic-baseline-keyboard-double-arrow-up" viewBox="0 0 24 24"><path fill="currentColor" d="M6 17.59L7.41 19L12 14.42L16.59 19L18 17.59l-6-6z"/><path fill="currentColor" d="m6 11l1.41 1.41L12 7.83l4.59 4.58L18 11l-6-6z"/></symbol><symbol id="hd-icon-ic-baseline-keyboard-hide" viewBox="0 0 24 24"><path fill="currentColor" d="M20 3H4c-1.1 0-1.99.9-1.99 2L2 15c0 1.1.9 2 2 2h16c1.1 0 2-.9 2-2V5c0-1.1-.9-2-2-2m-9 3h2v2h-2zm0 3h2v2h-2zM8 6h2v2H8zm0 3h2v2H8zm-1 2H5V9h2zm0-3H5V6h2zm9 7H8v-2h8zm0-4h-2V9h2zm0-3h-2V6h2zm3 3h-2V9h2zm0-3h-2V6h2zm-7 15l4-4H8z"/></symbol><symbol id="hd-icon-ic-baseline-keyboard-option-key" viewBox="0 0 24 24"><path fill="currentColor" d="M15 5h6v2h-6zM9 5H3v2h4.85l6.92 12H21v-2h-5.07z"/></symbol><symbol id="hd-icon-ic-baseline-keyboard-return" viewBox="0 0 24 24"><path fill="currentColor" d="M19 7v4H5.83l3.58-3.59L8 6l-6 6l6 6l1.41-1.41L5.83 13H21V7z"/></symbol><symbol id="hd-icon-ic-baseline-keyboard-tab" viewBox="0 0 24 24"><path fill="currentColor" d="M11.59 7.41L15.17 11H1v2h14.17l-3.59 3.59L13 18l6-6l-6-6zM20 6v12h2V6z"/></symbol><symbol id="hd-icon-ic-baseline-keyboard-voice" viewBox="0 0 24 24"><path fill="currentColor" d="M12 15c1.66 0 2.99-1.34 2.99-3L15 6c0-1.66-1.34-3-3-3S9 4.34 9 6v6c0 1.66 1.34 3 3 3m5.3-3c0 3-2.54 5.1-5.3 5.1S6.7 15 6.7 12H5c0 3.42 2.72 6.23 6 6.72V22h2v-3.28c3.28-.48 6-3.3 6-6.72z"/></symbol><symbol id="hd-icon-ic-baseline-king-bed" viewBox="0 0 24 24"><path fill="currentColor" d="M20 10V7c0-1.1-.9-2-2-2H6c-1.1 0-2 .9-2 2v3c-1.1 0-2 .9-2 2v5h1.33L4 19h1l.67-2h12.67l.66 2h1l.67-2H22v-5c0-1.1-.9-2-2-2m-9 0H6V7h5zm7 0h-5V7h5z"/></symbol><symbol id="hd-icon-ic-baseline-kitchen" viewBox="0 0 24 24"><path fill="currentColor" d="M20 9V4c0-1.1-.9-2-2-2H6c-1.1 0-2 .9-2 2v5zM8 5h2v3H8zm-4 6v9c0 1.1.9 2 2 2h12c1.1 0 2-.9 2-2v-9zm6 6H8v-5h2z"/></symbol><symbol id="hd-icon-ic-baseline-kitesurfing" viewBox="0 0 24 24"><path fill="currentColor" d="M6 3c0-1.1.9-2 2-2s2 .9 2 2s-.9 2-2 2s-2-.9-2-2m14.06-2h-2.12L15.5 3.44l1.06 1.06zM22 23v-2h-1c-1.04 0-2.08-.35-3-1c-1.83 1.3-4.17 1.3-6 0c-1.83 1.3-4.17 1.3-6 0c-.91.65-1.96 1-3 1H2v2h1c1.03 0 2.05-.25 3-.75c1.89 1 4.11 1 6 0c1.89 1 4.11 1 6 0c.95.5 1.97.75 3 .75zm-1-9.72c0 1.44-2.19 3.62-5.04 5.58c-.31.09-.63.14-.96.14c-1.2 0-2.27-.66-3-1.5c-.73.84-1.8 1.5-3 1.5c-.94 0-1.81-.41-2.49-.99c.46-.39.96-.78 1.49-1.17l-1.55-2.97A4.06 4.06 0 0 1 6 12V8c0-1.1.9-2 2-2h3c1.38 0 2.63-.56 3.54-1.46l1.41 1.41A7.02 7.02 0 0 1 11 8H9.6v3.5h2.8l1.69 1.88c1.95-.84 3.77-1.38 5.06-1.38c.84 0 1.85.25 1.85 1.28m-8.8.99l-.7-.77l-2.5.1l.83 2.01c.59-.38 1.81-1.06 2.37-1.34"/></symbol><symbol id="hd-icon-ic-baseline-label" viewBox="0 0 24 24"><path fill="currentColor" d="M17.63 5.84C17.27 5.33 16.67 5 16 5L5 5.01C3.9 5.01 3 5.9 3 7v10c0 1.1.9 1.99 2 1.99L16 19c.67 0 1.27-.33 1.63-.84L22 12z"/></symbol><symbol id="hd-icon-ic-baseline-label-important" viewBox="0 0 24 24"><path fill="currentColor" d="m3.5 18.99l11 .01c.67 0 1.27-.33 1.63-.84L20.5 12l-4.37-6.16c-.36-.51-.96-.84-1.63-.84l-11 .01L8.34 12z"/></symbol><symbol id="hd-icon-ic-baseline-label-off" viewBox="0 0 24 24"><path fill="currentColor" d="m3.25 2.75l17 17L19 21l-2-2H5c-1.1 0-2-.9-2-2V7c0-.55.23-1.05.59-1.41L2 4zM22 12l-4.37-6.16C17.27 5.33 16.67 5 16 5H8l11 11z"/></symbol><symbol id="hd-icon-ic-baseline-lan" viewBox="0 0 24 24"><path fill="currentColor" d="M13 22h8v-7h-3v-4h-5V9h3V2H8v7h3v2H6v4H3v7h8v-7H8v-2h8v2h-3z"/></symbol><symbol id="hd-icon-ic-baseline-landscape" viewBox="0 0 24 24"><path fill="currentColor" d="m14 6l-3.75 5l2.85 3.8l-1.6 1.2C9.81 13.75 7 10 7 10l-6 8h22z"/></symbol><symbol id="hd-icon-ic-baseline-landslide" viewBox="0 0 24 24"><path fill="currentColor" d="m15.47 13.79l-2.58-1.03L6 15.05l-4-1.54v2.1l4 1.34zm-4.9-2.37L8 8H2v3.61l4 1.34zM6 19.05l-4-1.33V22h20l-4.97-6.62zM17 6V1l-5-1l-3 2v4l3 2zm1.5 1L16 9v3l2.5 2l4.5-2V8z"/></symbol><symbol id="hd-icon-ic-baseline-language" viewBox="0 0 24 24"><path fill="currentColor" d="M11.99 2C6.47 2 2 6.48 2 12s4.47 10 9.99 10C17.52 22 22 17.52 22 12S17.52 2 11.99 2m6.93 6h-2.95a15.7 15.7 0 0 0-1.38-3.56A8.03 8.03 0 0 1 18.92 8M12 4.04c.83 1.2 1.48 2.53 1.91 3.96h-3.82c.43-1.43 1.08-2.76 1.91-3.96M4.26 14C4.1 13.36 4 12.69 4 12s.1-1.36.26-2h3.38c-.08.66-.14 1.32-.14 2s.06 1.34.14 2zm.82 2h2.95c.32 1.25.78 2.45 1.38 3.56A8 8 0 0 1 5.08 16m2.95-8H5.08a8 8 0 0 1 4.33-3.56A15.7 15.7 0 0 0 8.03 8M12 19.96c-.83-1.2-1.48-2.53-1.91-3.96h3.82c-.43 1.43-1.08 2.76-1.91 3.96M14.34 14H9.66c-.09-.66-.16-1.32-.16-2s.07-1.35.16-2h4.68c.09.65.16 1.32.16 2s-.07 1.34-.16 2m.25 5.56c.6-1.11 1.06-2.31 1.38-3.56h2.95a8.03 8.03 0 0 1-4.33 3.56M16.36 14c.08-.66.14-1.32.14-2s-.06-1.34-.14-2h3.38c.16.64.26 1.31.26 2s-.1 1.36-.26 2z"/></symbol><symbol id="hd-icon-ic-baseline-laptop" viewBox="0 0 24 24"><path fill="currentColor" d="M20 18c1.1 0 2-.9 2-2V6c0-1.1-.9-2-2-2H4c-1.1 0-2 .9-2 2v10c0 1.1.9 2 2 2H0v2h24v-2zM4 6h16v10H4z"/></symbol><symbol id="hd-icon-ic-baseline-laptop-chromebook" viewBox="0 0 24 24"><path fill="currentColor" d="M22 18V3H2v15H0v2h24v-2zm-8 0h-4v-1h4zm6-3H4V5h16z"/></symbol><symbol id="hd-icon-ic-baseline-laptop-mac" viewBox="0 0 24 24"><path fill="currentColor" d="M20 18c1.1 0 1.99-.9 1.99-2L22 5c0-1.1-.9-2-2-2H4c-1.1 0-2 .9-2 2v11c0 1.1.9 2 2 2H0c0 1.1.9 2 2 2h20c1.1 0 2-.9 2-2zM4 5h16v11H4zm8 14c-.55 0-1-.45-1-1s.45-1 1-1s1 .45 1 1s-.45 1-1 1"/></symbol><symbol id="hd-icon-ic-baseline-laptop-windows" viewBox="0 0 24 24"><path fill="currentColor" d="M20 18v-1c1.1 0 1.99-.9 1.99-2L22 5c0-1.1-.9-2-2-2H4c-1.1 0-2 .9-2 2v10c0 1.1.9 2 2 2v1H0v2h24v-2zM4 5h16v10H4z"/></symbol><symbol id="hd-icon-ic-baseline-last-page" viewBox="0 0 24 24"><path fill="currentColor" d="M5.59 7.41L10.18 12l-4.59 4.59L7 18l6-6l-6-6zM16 6h2v12h-2z"/></symbol><symbol id="hd-icon-ic-baseline-launch" viewBox="0 0 24 24"><path fill="currentColor" d="M19 19H5V5h7V3H5a2 2 0 0 0-2 2v14a2 2 0 0 0 2 2h14c1.1 0 2-.9 2-2v-7h-2zM14 3v2h3.59l-9.83 9.83l1.41 1.41L19 6.41V10h2V3z"/></symbol><symbol id="hd-icon-ic-baseline-layers" viewBox="0 0 24 24"><path fill="currentColor" d="m11.99 18.54l-7.37-5.73L3 14.07l9 7l9-7l-1.63-1.27zM12 16l7.36-5.73L21 9l-9-7l-9 7l1.63 1.27z"/></symbol><symbol id="hd-icon-ic-baseline-layers-clear" viewBox="0 0 24 24"><path fill="currentColor" d="m19.81 14.99l1.19-.92l-1.43-1.43l-1.19.92zm-.45-4.72L21 9l-9-7l-2.91 2.27l7.87 7.88zM3.27 1L2 2.27l4.22 4.22L3 9l1.63 1.27L12 16l2.1-1.63l1.43 1.43L12 18.54l-7.37-5.73L3 14.07l9 7l4.95-3.85L20.73 21L22 19.73z"/></symbol><symbol id="hd-icon-ic-baseline-leaderboard" viewBox="0 0 24 24"><path fill="currentColor" d="M7.5 21H2V9h5.5zm7.25-18h-5.5v18h5.5zM22 11h-5.5v10H22z"/></symbol><symbol id="hd-icon-ic-baseline-leak-add" viewBox="0 0 24 24"><path fill="currentColor" d="M6 3H3v3c1.66 0 3-1.34 3-3m8 0h-2a9 9 0 0 1-9 9v2c6.08 0 11-4.93 11-11m-4 0H8c0 2.76-2.24 5-5 5v2c3.87 0 7-3.13 7-7m0 18h2a9 9 0 0 1 9-9v-2c-6.07 0-11 4.93-11 11m8 0h3v-3c-1.66 0-3 1.34-3 3m-4 0h2c0-2.76 2.24-5 5-5v-2c-3.87 0-7 3.13-7 7"/></symbol><symbol id="hd-icon-ic-baseline-leak-remove" viewBox="0 0 24 24"><path fill="currentColor" d="M10 3H8c0 .37-.04.72-.12 1.06l1.59 1.59C9.81 4.84 10 3.94 10 3M3 4.27l2.84 2.84C5.03 7.67 4.06 8 3 8v2c1.61 0 3.09-.55 4.27-1.46L8.7 9.97A9 9 0 0 1 3 12v2c2.71 0 5.19-.99 7.11-2.62l2.5 2.5A11.04 11.04 0 0 0 10 21h2c0-2.16.76-4.14 2.03-5.69l1.43 1.43A6.92 6.92 0 0 0 14 21h2c0-1.06.33-2.03.89-2.84L19.73 21L21 19.73L4.27 3zM14 3h-2c0 1.5-.37 2.91-1.02 4.16l1.46 1.46C13.42 6.98 14 5.06 14 3m5.94 13.12c.34-.08.69-.12 1.06-.12v-2c-.94 0-1.84.19-2.66.52zm-4.56-4.56l1.46 1.46A9 9 0 0 1 21 12v-2c-2.06 0-3.98.58-5.62 1.56"/></symbol><symbol id="hd-icon-ic-baseline-leave-bags-at-home" viewBox="0 0 24 24"><path fill="currentColor" d="M11.83 9h.92v.92l1.75 1.75V9H16v4.17l3 3V8c0-1.1-.9-2-2-2h-2V3c0-.55-.45-1-1-1h-4c-.55 0-1 .45-1 1v3h-.17zM11 4h2v2h-2zm10.19 17.19L2.81 2.81L1.39 4.22l3.63 3.63c0 .05-.02.1-.02.15v11c0 1.1.9 2 2 2c0 .55.45 1 1 1s1-.45 1-1h6c0 .55.45 1 1 1s1-.45 1-1c.34 0 .65-.09.93-.24l1.85 1.85zM8 18v-7.17l1.5 1.5V18zm3.25 0v-3.92l1.5 1.5V18zm3.25 0v-.67l.67.67z"/></symbol><symbol id="hd-icon-ic-baseline-legend-toggle" viewBox="0 0 24 24"><path fill="currentColor" d="M20 15H4v-2h16zm0 2H4v2h16zm-5-6l5-3.55V5l-5 3.55L10 5L4 8.66V11l5.92-3.61z"/></symbol><symbol id="hd-icon-ic-baseline-lens" viewBox="0 0 24 24"><path fill="currentColor" d="M12 2C6.48 2 2 6.48 2 12s4.48 10 10 10s10-4.48 10-10S17.52 2 12 2"/></symbol><symbol id="hd-icon-ic-baseline-lens-blur" viewBox="0 0 24 24"><path fill="currentColor" d="M6 13c-.55 0-1 .45-1 1s.45 1 1 1s1-.45 1-1s-.45-1-1-1m0 4c-.55 0-1 .45-1 1s.45 1 1 1s1-.45 1-1s-.45-1-1-1m0-8c-.55 0-1 .45-1 1s.45 1 1 1s1-.45 1-1s-.45-1-1-1m-3 .5c-.28 0-.5.22-.5.5s.22.5.5.5s.5-.22.5-.5s-.22-.5-.5-.5M6 5c-.55 0-1 .45-1 1s.45 1 1 1s1-.45 1-1s-.45-1-1-1m15 5.5c.28 0 .5-.22.5-.5s-.22-.5-.5-.5s-.5.22-.5.5s.22.5.5.5M14 7c.55 0 1-.45 1-1s-.45-1-1-1s-1 .45-1 1s.45 1 1 1m0-3.5c.28 0 .5-.22.5-.5s-.22-.5-.5-.5s-.5.22-.5.5s.22.5.5.5m-11 10c-.28 0-.5.22-.5.5s.22.5.5.5s.5-.22.5-.5s-.22-.5-.5-.5m7 7c-.28 0-.5.22-.5.5s.22.5.5.5s.5-.22.5-.5s-.22-.5-.5-.5m0-17c.28 0 .5-.22.5-.5s-.22-.5-.5-.5s-.5.22-.5.5s.22.5.5.5M10 7c.55 0 1-.45 1-1s-.45-1-1-1s-1 .45-1 1s.45 1 1 1m0 5.5c-.83 0-1.5.67-1.5 1.5s.67 1.5 1.5 1.5s1.5-.67 1.5-1.5s-.67-1.5-1.5-1.5m8 .5c-.55 0-1 .45-1 1s.45 1 1 1s1-.45 1-1s-.45-1-1-1m0 4c-.55 0-1 .45-1 1s.45 1 1 1s1-.45 1-1s-.45-1-1-1m0-8c-.55 0-1 .45-1 1s.45 1 1 1s1-.45 1-1s-.45-1-1-1m0-4c-.55 0-1 .45-1 1s.45 1 1 1s1-.45 1-1s-.45-1-1-1m3 8.5c-.28 0-.5.22-.5.5s.22.5.5.5s.5-.22.5-.5s-.22-.5-.5-.5M14 17c-.55 0-1 .45-1 1s.45 1 1 1s1-.45 1-1s-.45-1-1-1m0 3.5c-.28 0-.5.22-.5.5s.22.5.5.5s.5-.22.5-.5s-.22-.5-.5-.5m-4-12c-.83 0-1.5.67-1.5 1.5s.67 1.5 1.5 1.5s1.5-.67 1.5-1.5s-.67-1.5-1.5-1.5m0 8.5c-.55 0-1 .45-1 1s.45 1 1 1s1-.45 1-1s-.45-1-1-1m4-4.5c-.83 0-1.5.67-1.5 1.5s.67 1.5 1.5 1.5s1.5-.67 1.5-1.5s-.67-1.5-1.5-1.5m0-4c-.83 0-1.5.67-1.5 1.5s.67 1.5 1.5 1.5s1.5-.67 1.5-1.5s-.67-1.5-1.5-1.5"/></symbol><symbol id="hd-icon-ic-baseline-less-than" viewBox="0 0 24 24"><path fill="currentColor" fill-rule="evenodd" d="M17.5 17.5L9.25 12l8.25-5.5l-1-1.5L6 12l10.5 7z"/></symbol><symbol id="hd-icon-ic-baseline-less-than-equal" viewBox="0 0 24 24"><path fill="currentColor" fill-rule="evenodd" d="M17.5 15.5L9.25 10l8.25-5.5l-1-1.5L6 10l10.5 7z"/><path fill="currentColor" d="M18 20.998H6v-2h12z"/></symbol><symbol id="hd-icon-ic-baseline-library-add" viewBox="0 0 24 24"><path fill="currentColor" d="M4 6H2v14c0 1.1.9 2 2 2h14v-2H4zm16-4H8c-1.1 0-2 .9-2 2v12c0 1.1.9 2 2 2h12c1.1 0 2-.9 2-2V4c0-1.1-.9-2-2-2m-1 9h-4v4h-2v-4H9V9h4V5h2v4h4z"/></symbol><symbol id="hd-icon-ic-baseline-library-add-check" viewBox="0 0 24 24"><path fill="currentColor" d="M20 2H8c-1.1 0-2 .9-2 2v12c0 1.1.9 2 2 2h12c1.1 0 2-.9 2-2V4c0-1.1-.9-2-2-2m-7.53 12L9 10.5l1.4-1.41l2.07 2.08L17.6 6L19 7.41zM4 6H2v14c0 1.1.9 2 2 2h14v-2H4z"/></symbol><symbol id="hd-icon-ic-baseline-library-books" viewBox="0 0 24 24"><path fill="currentColor" d="M4 6H2v14c0 1.1.9 2 2 2h14v-2H4zm16-4H8c-1.1 0-2 .9-2 2v12c0 1.1.9 2 2 2h12c1.1 0 2-.9 2-2V4c0-1.1-.9-2-2-2m-1 9H9V9h10zm-4 4H9v-2h6zm4-8H9V5h10z"/></symbol><symbol id="hd-icon-ic-baseline-library-music" viewBox="0 0 24 24"><path fill="currentColor" d="M20 2H8c-1.1 0-2 .9-2 2v12c0 1.1.9 2 2 2h12c1.1 0 2-.9 2-2V4c0-1.1-.9-2-2-2m-2 5h-3v5.5a2.5 2.5 0 0 1-5 0a2.5 2.5 0 0 1 2.5-2.5c.57 0 1.08.19 1.5.51V5h4zM4 6H2v14c0 1.1.9 2 2 2h14v-2H4z"/></symbol><symbol id="hd-icon-ic-baseline-light" viewBox="0 0 24 24"><path fill="currentColor" d="M13 6.06V3h-2v3.06c-4.5.5-8 4.31-8 8.93C3 16.1 3.9 17 5.01 17H8c0 2.21 1.79 4 4 4s4-1.79 4-4h2.99c1.11 0 2.01-.9 2.01-2.01c0-4.62-3.5-8.43-8-8.93M12 15H5c0-3.86 3.14-7 7-7s7 3.14 7 7z"/></symbol><symbol id="hd-icon-ic-baseline-light-mode" viewBox="0 0 24 24"><path fill="currentColor" d="M12 7c-2.76 0-5 2.24-5 5s2.24 5 5 5s5-2.24 5-5s-2.24-5-5-5M2 13h2c.55 0 1-.45 1-1s-.45-1-1-1H2c-.55 0-1 .45-1 1s.45 1 1 1m18 0h2c.55 0 1-.45 1-1s-.45-1-1-1h-2c-.55 0-1 .45-1 1s.45 1 1 1M11 2v2c0 .55.45 1 1 1s1-.45 1-1V2c0-.55-.45-1-1-1s-1 .45-1 1m0 18v2c0 .55.45 1 1 1s1-.45 1-1v-2c0-.55-.45-1-1-1s-1 .45-1 1M5.99 4.58a.996.996 0 0 0-1.41 0a.996.996 0 0 0 0 1.41l1.06 1.06c.39.39 1.03.39 1.41 0s.39-1.03 0-1.41zm12.37 12.37a.996.996 0 0 0-1.41 0a.996.996 0 0 0 0 1.41l1.06 1.06c.39.39 1.03.39 1.41 0a.996.996 0 0 0 0-1.41zm1.06-10.96a.996.996 0 0 0 0-1.41a.996.996 0 0 0-1.41 0l-1.06 1.06c-.39.39-.39 1.03 0 1.41s1.03.39 1.41 0zM7.05 18.36a.996.996 0 0 0 0-1.41a.996.996 0 0 0-1.41 0l-1.06 1.06c-.39.39-.39 1.03 0 1.41s1.03.39 1.41 0z"/></symbol><symbol id="hd-icon-ic-baseline-lightbulb" viewBox="0 0 24 24"><path fill="currentColor" d="M9 21c0 .5.4 1 1 1h4c.6 0 1-.5 1-1v-1H9zm3-19C8.1 2 5 5.1 5 9c0 2.4 1.2 4.5 3 5.7V17c0 .5.4 1 1 1h6c.6 0 1-.5 1-1v-2.3c1.8-1.3 3-3.4 3-5.7c0-3.9-3.1-7-7-7"/></symbol><symbol id="hd-icon-ic-baseline-lightbulb-circle" viewBox="0 0 24 24"><path fill="currentColor" d="M12 2C6.48 2 2 6.48 2 12s4.48 10 10 10s10-4.48 10-10S17.52 2 12 2m0 17c-.83 0-1.5-.67-1.5-1.5h3c0 .83-.67 1.5-1.5 1.5m3-2.5H9V15h6zm-.03-2.5H9.03A4.97 4.97 0 0 1 7 10c0-2.76 2.24-5 5-5s5 2.24 5 5c0 1.64-.8 3.09-2.03 4"/></symbol><symbol id="hd-icon-ic-baseline-line-axis" viewBox="0 0 24 24"><path fill="currentColor" d="m22 7.43l-1.41-1.41l-4.03 4.53L9.5 4L2 11.51l1.5 1.5l6.14-6.15l5.59 5.18l-1.73 1.95l-4-4L2 17.5L3.5 19l6-6.01l4 4l3.19-3.59l3.9 3.61L22 15.6l-3.98-3.7z"/></symbol><symbol id="hd-icon-ic-baseline-line-style" viewBox="0 0 24 24"><path fill="currentColor" d="M3 16h5v-2H3zm6.5 0h5v-2h-5zm6.5 0h5v-2h-5zM3 20h2v-2H3zm4 0h2v-2H7zm4 0h2v-2h-2zm4 0h2v-2h-2zm4 0h2v-2h-2zM3 12h8v-2H3zm10 0h8v-2h-8zM3 4v4h18V4z"/></symbol><symbol id="hd-icon-ic-baseline-line-weight" viewBox="0 0 24 24"><path fill="currentColor" d="M3 17h18v-2H3zm0 3h18v-1H3zm0-7h18v-3H3zm0-9v4h18V4z"/></symbol><symbol id="hd-icon-ic-baseline-linear-scale" viewBox="0 0 24 24"><path fill="currentColor" d="M19.5 9.5c-1.03 0-1.9.62-2.29 1.5h-2.92c-.39-.88-1.26-1.5-2.29-1.5s-1.9.62-2.29 1.5H6.79c-.39-.88-1.26-1.5-2.29-1.5a2.5 2.5 0 0 0 0 5c1.03 0 1.9-.62 2.29-1.5h2.92c.39.88 1.26 1.5 2.29 1.5s1.9-.62 2.29-1.5h2.92c.39.88 1.26 1.5 2.29 1.5a2.5 2.5 0 0 0 0-5"/></symbol><symbol id="hd-icon-ic-baseline-link" viewBox="0 0 24 24"><path fill="currentColor" d="M3.9 12c0-1.71 1.39-3.1 3.1-3.1h4V7H7c-2.76 0-5 2.24-5 5s2.24 5 5 5h4v-1.9H7c-1.71 0-3.1-1.39-3.1-3.1M8 13h8v-2H8zm9-6h-4v1.9h4c1.71 0 3.1 1.39 3.1 3.1s-1.39 3.1-3.1 3.1h-4V17h4c2.76 0 5-2.24 5-5s-2.24-5-5-5"/></symbol><symbol id="hd-icon-ic-baseline-link-off" viewBox="0 0 24 24"><path fill="currentColor" d="M17 7h-4v1.9h4c1.71 0 3.1 1.39 3.1 3.1c0 1.43-.98 2.63-2.31 2.98l1.46 1.46C20.88 15.61 22 13.95 22 12c0-2.76-2.24-5-5-5m-1 4h-2.19l2 2H16zM2 4.27l3.11 3.11A4.99 4.99 0 0 0 2 12c0 2.76 2.24 5 5 5h4v-1.9H7c-1.71 0-3.1-1.39-3.1-3.1c0-1.59 1.21-2.9 2.76-3.07L8.73 11H8v2h2.73L13 15.27V17h1.73l4.01 4L20 19.74L3.27 3z"/></symbol><symbol id="hd-icon-ic-baseline-linked-camera" viewBox="0 0 24 24"><circle cx="12" cy="14" r="3.2" fill="currentColor"/><path fill="currentColor" d="M16 3.33c2.58 0 4.67 2.09 4.67 4.67H22c0-3.31-2.69-6-6-6zM16 6c1.11 0 2 .89 2 2h1.33c0-1.84-1.49-3.33-3.33-3.33z"/><path fill="currentColor" d="M17 9c0-1.11-.89-2-2-2V4H9L7.17 6H4c-1.1 0-2 .9-2 2v12c0 1.1.9 2 2 2h16c1.1 0 2-.9 2-2V9zm-5 10c-2.76 0-5-2.24-5-5s2.24-5 5-5s5 2.24 5 5s-2.24 5-5 5"/></symbol><symbol id="hd-icon-ic-baseline-liquor" viewBox="0 0 24 24"><path fill="currentColor" d="M3 14c0 1.3.84 2.4 2 2.82V20H3v2h6v-2H7v-3.18C8.16 16.4 9 15.3 9 14V6H3zm2-6h2v3H5zm15.63.54l-.95-.32a.99.99 0 0 1-.68-.94V3c0-.55-.45-1-1-1h-3c-.55 0-1 .45-1 1v4.28c0 .43-.28.81-.68.95l-.95.32c-.82.27-1.37 1.03-1.37 1.89V20c0 1.1.9 2 2 2h7c1.1 0 2-.9 2-2v-9.56c0-.86-.55-1.62-1.37-1.9M16 4h1v1h-1zm-3 6.44l.95-.32C15.18 9.72 16 8.57 16 7.28V7h1v.28a3 3 0 0 0 2.05 2.85l.95.31V12h-7zM20 20h-7v-2h7z"/></symbol><symbol id="hd-icon-ic-baseline-list" viewBox="0 0 24 24"><path fill="currentColor" d="M3 13h2v-2H3zm0 4h2v-2H3zm0-8h2V7H3zm4 4h14v-2H7zm0 4h14v-2H7zM7 7v2h14V7z"/></symbol><symbol id="hd-icon-ic-baseline-list-alt" viewBox="0 0 24 24"><path fill="currentColor" d="M19 5v14H5V5zm1.1-2H3.9c-.5 0-.9.4-.9.9v16.2c0 .4.4.9.9.9h16.2c.4 0 .9-.5.9-.9V3.9c0-.5-.5-.9-.9-.9M11 7h6v2h-6zm0 4h6v2h-6zm0 4h6v2h-6zM7 7h2v2H7zm0 4h2v2H7zm0 4h2v2H7z"/></symbol><symbol id="hd-icon-ic-baseline-live-help" viewBox="0 0 24 24"><path fill="currentColor" d="M19 2H5a2 2 0 0 0-2 2v14a2 2 0 0 0 2 2h4l3 3l3-3h4c1.1 0 2-.9 2-2V4c0-1.1-.9-2-2-2m-6 16h-2v-2h2zm2.07-7.75l-.9.92C13.45 11.9 13 12.5 13 14h-2v-.5c0-1.1.45-2.1 1.17-2.83l1.24-1.26c.37-.36.59-.86.59-1.41c0-1.1-.9-2-2-2s-2 .9-2 2H8c0-2.21 1.79-4 4-4s4 1.79 4 4c0 .88-.36 1.68-.93 2.25"/></symbol><symbol id="hd-icon-ic-baseline-live-tv" viewBox="0 0 24 24"><path fill="currentColor" d="M21 6h-7.59l3.29-3.29L16 2l-4 4l-4-4l-.71.71L10.59 6H3a2 2 0 0 0-2 2v12c0 1.1.9 2 2 2h18c1.1 0 2-.9 2-2V8a2 2 0 0 0-2-2m0 14H3V8h18zM9 10v8l7-4z"/></symbol><symbol id="hd-icon-ic-baseline-living" viewBox="0 0 24 24"><path fill="currentColor" d="M16.5 11.5c-.55 0-1 .45-1 1v2h-7v-2c0-.55-.45-1-1-1s-1 .45-1 1V16c0 .28.22.5.5.5h10c.28 0 .5-.22.5-.5v-3.5c0-.55-.45-1-1-1"/><path fill="currentColor" d="M10 12.5v.5h4v-.5c0-1.3.99-2.35 2.25-2.47V9c0-.83-.67-1.5-1.5-1.5h-5.5c-.83 0-1.5.67-1.5 1.5v1.03A2.48 2.48 0 0 1 10 12.5"/><path fill="currentColor" d="M20 2H4c-1.1 0-2 .9-2 2v16c0 1.1.9 2 2 2h16c1.1 0 2-.9 2-2V4c0-1.1-.9-2-2-2m-1 14c0 1.1-.9 2-2 2H7c-1.1 0-2-.9-2-2v-3.5c0-.92.51-1.72 1.25-2.15V9c0-1.66 1.34-3 3-3h5.5c1.66 0 3 1.34 3 3v1.35c.74.43 1.25 1.23 1.25 2.15z"/></symbol><symbol id="hd-icon-ic-baseline-local-activity" viewBox="0 0 24 24"><path fill="currentColor" d="M20 12c0-1.1.9-2 2-2V6c0-1.1-.9-2-2-2H4c-1.1 0-1.99.9-1.99 2v4c1.1 0 1.99.9 1.99 2s-.89 2-2 2v4c0 1.1.9 2 2 2h16c1.1 0 2-.9 2-2v-4c-1.1 0-2-.9-2-2m-4.42 4.8L12 14.5l-3.58 2.3l1.08-4.12l-3.29-2.69l4.24-.25L12 5.8l1.54 3.95l4.24.25l-3.29 2.69z"/></symbol><symbol id="hd-icon-ic-baseline-local-airport" viewBox="0 0 24 24"><path fill="currentColor" d="M22 16v-2l-8.5-5V3.5c0-.83-.67-1.5-1.5-1.5s-1.5.67-1.5 1.5V9L2 14v2l8.5-2.5V19L8 20.5V22l4-1l4 1v-1.5L13.5 19v-5.5z"/></symbol><symbol id="hd-icon-ic-baseline-local-atm" viewBox="0 0 24 24"><path fill="currentColor" d="M11 17h2v-1h1c.55 0 1-.45 1-1v-3c0-.55-.45-1-1-1h-3v-1h4V8h-2V7h-2v1h-1c-.55 0-1 .45-1 1v3c0 .55.45 1 1 1h3v1H9v2h2zm9-13H4c-1.11 0-1.99.89-1.99 2L2 18c0 1.11.89 2 2 2h16c1.11 0 2-.89 2-2V6c0-1.11-.89-2-2-2m0 14H4V6h16z"/></symbol><symbol id="hd-icon-ic-baseline-local-bar" viewBox="0 0 24 24"><path fill="currentColor" d="M21 5V3H3v2l8 9v5H6v2h12v-2h-5v-5zM7.43 7L5.66 5h12.69l-1.78 2z"/></symbol><symbol id="hd-icon-ic-baseline-local-cafe" viewBox="0 0 24 24"><path fill="currentColor" d="M20 3H4v10c0 2.21 1.79 4 4 4h6c2.21 0 4-1.79 4-4v-3h2a2 2 0 0 0 2-2V5c0-1.11-.89-2-2-2m0 5h-2V5h2zM4 19h16v2H4z"/></symbol><symbol id="hd-icon-ic-baseline-local-car-wash" viewBox="0 0 24 24"><path fill="currentColor" d="M17 5c.83 0 1.5-.67 1.5-1.5c0-1-1.5-2.7-1.5-2.7s-1.5 1.7-1.5 2.7c0 .83.67 1.5 1.5 1.5m-5 0c.83 0 1.5-.67 1.5-1.5c0-1-1.5-2.7-1.5-2.7s-1.5 1.7-1.5 2.7c0 .83.67 1.5 1.5 1.5M7 5c.83 0 1.5-.67 1.5-1.5C8.5 2.5 7 .8 7 .8S5.5 2.5 5.5 3.5C5.5 4.33 6.17 5 7 5m11.92 3.01C18.72 7.42 18.16 7 17.5 7h-11c-.66 0-1.21.42-1.42 1.01L3 14v8c0 .55.45 1 1 1h1c.55 0 1-.45 1-1v-1h12v1c0 .55.45 1 1 1h1c.55 0 1-.45 1-1v-8zM6.5 18c-.83 0-1.5-.67-1.5-1.5S5.67 15 6.5 15s1.5.67 1.5 1.5S7.33 18 6.5 18m11 0c-.83 0-1.5-.67-1.5-1.5s.67-1.5 1.5-1.5s1.5.67 1.5 1.5s-.67 1.5-1.5 1.5M5 13l1.5-4.5h11L19 13z"/></symbol><symbol id="hd-icon-ic-baseline-local-convenience-store" viewBox="0 0 24 24"><path fill="currentColor" d="M19 7V4H5v3H2v13h8v-4h4v4h8V7zm-8 3H9v1h2v1H8V9h2V8H8V7h3zm5 2h-1v-2h-2V7h1v2h1V7h1z"/></symbol><symbol id="hd-icon-ic-baseline-local-dining" viewBox="0 0 24 24"><path fill="currentColor" d="m8.1 13.34l2.83-2.83L3.91 3.5a4.01 4.01 0 0 0 0 5.66zm6.78-1.81c1.53.71 3.68.21 5.27-1.38c1.91-1.91 2.28-4.65.81-6.12c-1.46-1.46-4.2-1.1-6.12.81c-1.59 1.59-2.09 3.74-1.38 5.27L3.7 19.87l1.41 1.41L12 14.41l6.88 6.88l1.41-1.41L13.41 13z"/></symbol><symbol id="hd-icon-ic-baseline-local-drink" viewBox="0 0 24 24"><path fill="currentColor" d="m3 2l2.01 18.23C5.13 21.23 5.97 22 7 22h10c1.03 0 1.87-.77 1.99-1.77L21 2zm9 17c-1.66 0-3-1.34-3-3c0-2 3-5.4 3-5.4s3 3.4 3 5.4c0 1.66-1.34 3-3 3m6.33-11H5.67l-.44-4h13.53z"/></symbol><symbol id="hd-icon-ic-baseline-local-fire-department" viewBox="0 0 24 24"><path fill="currentColor" d="m12 12.9l-2.13 2.09c-.56.56-.87 1.29-.87 2.07C9 18.68 10.35 20 12 20s3-1.32 3-2.94c0-.78-.31-1.52-.87-2.07z"/><path fill="currentColor" d="m16 6l-.44.55C14.38 8.02 12 7.19 12 5.3V2S4 6 4 13c0 2.92 1.56 5.47 3.89 6.86c-.56-.79-.89-1.76-.89-2.8c0-1.32.52-2.56 1.47-3.5L12 10.1l3.53 3.47c.95.93 1.47 2.17 1.47 3.5c0 1.02-.31 1.96-.85 2.75c1.89-1.15 3.29-3.06 3.71-5.3c.66-3.55-1.07-6.9-3.86-8.52"/></symbol><symbol id="hd-icon-ic-baseline-local-florist" viewBox="0 0 24 24"><path fill="currentColor" d="M12 22a9 9 0 0 0 9-9a9 9 0 0 0-9 9M5.6 10.25a2.5 2.5 0 0 0 3.92 2.06l-.02.19a2.5 2.5 0 0 0 5 0l-.02-.19c.4.28.89.44 1.42.44a2.5 2.5 0 0 0 2.5-2.5c0-1-.59-1.85-1.43-2.25c.84-.4 1.43-1.25 1.43-2.25a2.5 2.5 0 0 0-3.92-2.06l.02-.19a2.5 2.5 0 0 0-5 0l.02.19c-.4-.28-.89-.44-1.42-.44a2.5 2.5 0 0 0-2.5 2.5c0 1 .59 1.85 1.43 2.25c-.84.4-1.43 1.25-1.43 2.25M12 5.5a2.5 2.5 0 0 1 0 5a2.5 2.5 0 0 1 0-5M3 13a9 9 0 0 0 9 9a9 9 0 0 0-9-9"/></symbol><symbol id="hd-icon-ic-baseline-local-gas-station" viewBox="0 0 24 24"><path fill="currentColor" d="m19.77 7.23l.01-.01l-3.72-3.72L15 4.56l2.11 2.11c-.94.36-1.61 1.26-1.61 2.33a2.5 2.5 0 0 0 2.5 2.5c.36 0 .69-.08 1-.21v7.21c0 .55-.45 1-1 1s-1-.45-1-1V14c0-1.1-.9-2-2-2h-1V5c0-1.1-.9-2-2-2H6c-1.1 0-2 .9-2 2v16h10v-7.5h1.5v5a2.5 2.5 0 0 0 5 0V9c0-.69-.28-1.32-.73-1.77M12 10H6V5h6zm6 0c-.55 0-1-.45-1-1s.45-1 1-1s1 .45 1 1s-.45 1-1 1"/></symbol><symbol id="hd-icon-ic-baseline-local-grocery-store" viewBox="0 0 24 24"><path fill="currentColor" d="M7 18c-1.1 0-1.99.9-1.99 2S5.9 22 7 22s2-.9 2-2s-.9-2-2-2M1 2v2h2l3.6 7.59l-1.35 2.45c-.16.28-.25.61-.25.96c0 1.1.9 2 2 2h12v-2H7.42c-.14 0-.25-.11-.25-.25l.03-.12l.9-1.63h7.45c.75 0 1.41-.41 1.75-1.03l3.58-6.49A1.003 1.003 0 0 0 20 4H5.21l-.94-2zm16 16c-1.1 0-1.99.9-1.99 2s.89 2 1.99 2s2-.9 2-2s-.9-2-2-2"/></symbol><symbol id="hd-icon-ic-baseline-local-hospital" viewBox="0 0 24 24"><path fill="currentColor" d="M19 3H5c-1.1 0-1.99.9-1.99 2L3 19c0 1.1.9 2 2 2h14c1.1 0 2-.9 2-2V5c0-1.1-.9-2-2-2m-1 11h-4v4h-4v-4H6v-4h4V6h4v4h4z"/></symbol><symbol id="hd-icon-ic-baseline-local-hotel" viewBox="0 0 24 24"><path fill="currentColor" d="M7 13c1.66 0 3-1.34 3-3S8.66 7 7 7s-3 1.34-3 3s1.34 3 3 3m12-6h-8v7H3V5H1v15h2v-3h18v3h2v-9c0-2.21-1.79-4-4-4"/></symbol><symbol id="hd-icon-ic-baseline-local-laundry-service" viewBox="0 0 24 24"><path fill="currentColor" d="M9.17 16.83a4.01 4.01 0 0 0 5.66 0a4.01 4.01 0 0 0 0-5.66zM18 2.01L6 2c-1.11 0-2 .89-2 2v16c0 1.11.89 2 2 2h12c1.11 0 2-.89 2-2V4c0-1.11-.89-1.99-2-1.99M10 4c.55 0 1 .45 1 1s-.45 1-1 1s-1-.45-1-1s.45-1 1-1M7 4c.55 0 1 .45 1 1s-.45 1-1 1s-1-.45-1-1s.45-1 1-1m5 16c-3.31 0-6-2.69-6-6s2.69-6 6-6s6 2.69 6 6s-2.69 6-6 6"/></symbol><symbol id="hd-icon-ic-baseline-local-library" viewBox="0 0 24 24"><path fill="currentColor" d="M12 11.55C9.64 9.35 6.48 8 3 8v11c3.48 0 6.64 1.35 9 3.55c2.36-2.19 5.52-3.55 9-3.55V8c-3.48 0-6.64 1.35-9 3.55M12 8c1.66 0 3-1.34 3-3s-1.34-3-3-3s-3 1.34-3 3s1.34 3 3 3"/></symbol><symbol id="hd-icon-ic-baseline-local-mall" viewBox="0 0 24 24"><path fill="currentColor" d="M19 6h-2c0-2.76-2.24-5-5-5S7 3.24 7 6H5c-1.1 0-1.99.9-1.99 2L3 20c0 1.1.9 2 2 2h14c1.1 0 2-.9 2-2V8c0-1.1-.9-2-2-2m-7-3c1.66 0 3 1.34 3 3H9c0-1.66 1.34-3 3-3m0 10c-2.76 0-5-2.24-5-5h2c0 1.66 1.34 3 3 3s3-1.34 3-3h2c0 2.76-2.24 5-5 5"/></symbol><symbol id="hd-icon-ic-baseline-local-movies" viewBox="0 0 24 24"><path fill="currentColor" d="M18 3v2h-2V3H8v2H6V3H4v18h2v-2h2v2h8v-2h2v2h2V3zM8 17H6v-2h2zm0-4H6v-2h2zm0-4H6V7h2zm10 8h-2v-2h2zm0-4h-2v-2h2zm0-4h-2V7h2z"/></symbol><symbol id="hd-icon-ic-baseline-local-offer" viewBox="0 0 24 24"><path fill="currentColor" d="m21.41 11.58l-9-9C12.05 2.22 11.55 2 11 2H4c-1.1 0-2 .9-2 2v7c0 .55.22 1.05.59 1.42l9 9c.36.36.86.58 1.41.58s1.05-.22 1.41-.59l7-7c.37-.36.59-.86.59-1.41s-.23-1.06-.59-1.42M5.5 7C4.67 7 4 6.33 4 5.5S4.67 4 5.5 4S7 4.67 7 5.5S6.33 7 5.5 7"/></symbol><symbol id="hd-icon-ic-baseline-local-parking" viewBox="0 0 24 24"><path fill="currentColor" d="M13 3H6v18h4v-6h3c3.31 0 6-2.69 6-6s-2.69-6-6-6m.2 8H10V7h3.2c1.1 0 2 .9 2 2s-.9 2-2 2"/></symbol><symbol id="hd-icon-ic-baseline-local-pharmacy" viewBox="0 0 24 24"><path fill="currentColor" d="M21 5h-2.64l1.14-3.14L17.15 1l-1.46 4H3v2l2 6l-2 6v2h18v-2l-2-6l2-6zm-5 9h-3v3h-2v-3H8v-2h3V9h2v3h3z"/></symbol><symbol id="hd-icon-ic-baseline-local-phone" viewBox="0 0 24 24"><path fill="currentColor" d="M6.62 10.79c1.44 2.83 3.76 5.14 6.59 6.59l2.2-2.2c.27-.27.67-.36 1.02-.24c1.12.37 2.33.57 3.57.57c.55 0 1 .45 1 1V20c0 .55-.45 1-1 1c-9.39 0-17-7.61-17-17c0-.55.45-1 1-1h3.5c.55 0 1 .45 1 1c0 1.25.2 2.45.57 3.57c.11.35.03.74-.25 1.02z"/></symbol><symbol id="hd-icon-ic-baseline-local-pizza" viewBox="0 0 24 24"><path fill="currentColor" d="M12 2C8.43 2 5.23 3.54 3.01 6L12 22l8.99-16C18.78 3.55 15.57 2 12 2M7 7c0-1.1.9-2 2-2s2 .9 2 2s-.9 2-2 2s-2-.9-2-2m5 8c-1.1 0-2-.9-2-2s.9-2 2-2s2 .9 2 2s-.9 2-2 2"/></symbol><symbol id="hd-icon-ic-baseline-local-play" viewBox="0 0 24 24"><path fill="currentColor" d="M20 12c0-1.1.9-2 2-2V6c0-1.1-.9-2-2-2H4c-1.1 0-1.99.9-1.99 2v4c1.1 0 1.99.9 1.99 2s-.89 2-2 2v4c0 1.1.9 2 2 2h16c1.1 0 2-.9 2-2v-4c-1.1 0-2-.9-2-2m-4.42 4.8L12 14.5l-3.58 2.3l1.08-4.12l-3.29-2.69l4.24-.25L12 5.8l1.54 3.95l4.24.25l-3.29 2.69z"/></symbol><symbol id="hd-icon-ic-baseline-local-police" viewBox="0 0 24 24"><path fill="currentColor" d="M12 1L3 5v6c0 5.55 3.84 10.74 9 12c5.16-1.26 9-6.45 9-12V5zm2.5 11.59l.9 3.88l-3.4-2.05l-3.4 2.05l.9-3.87l-3-2.59l3.96-.34L12 6.02l1.54 3.64l3.96.34z"/></symbol><symbol id="hd-icon-ic-baseline-local-post-office" viewBox="0 0 24 24"><path fill="currentColor" d="M20 4H4c-1.1 0-1.99.9-1.99 2L2 18c0 1.1.9 2 2 2h16c1.1 0 2-.9 2-2V6c0-1.1-.9-2-2-2m0 4l-8 5l-8-5V6l8 5l8-5z"/></symbol><symbol id="hd-icon-ic-baseline-local-printshop" viewBox="0 0 24 24"><path fill="currentColor" d="M19 8H5c-1.66 0-3 1.34-3 3v6h4v4h12v-4h4v-6c0-1.66-1.34-3-3-3m-3 11H8v-5h8zm3-7c-.55 0-1-.45-1-1s.45-1 1-1s1 .45 1 1s-.45 1-1 1m-1-9H6v4h12z"/></symbol><symbol id="hd-icon-ic-baseline-local-see" viewBox="0 0 24 24"><circle cx="12" cy="12" r="3.2" fill="currentColor"/><path fill="currentColor" d="M9 2L7.17 4H4c-1.1 0-2 .9-2 2v12c0 1.1.9 2 2 2h16c1.1 0 2-.9 2-2V6c0-1.1-.9-2-2-2h-3.17L15 2zm3 15c-2.76 0-5-2.24-5-5s2.24-5 5-5s5 2.24 5 5s-2.24 5-5 5"/></symbol><symbol id="hd-icon-ic-baseline-local-shipping" viewBox="0 0 24 24"><path fill="currentColor" d="M20 8h-3V4H3c-1.1 0-2 .9-2 2v11h2c0 1.66 1.34 3 3 3s3-1.34 3-3h6c0 1.66 1.34 3 3 3s3-1.34 3-3h2v-5zM6 18.5c-.83 0-1.5-.67-1.5-1.5s.67-1.5 1.5-1.5s1.5.67 1.5 1.5s-.67 1.5-1.5 1.5m13.5-9l1.96 2.5H17V9.5zm-1.5 9c-.83 0-1.5-.67-1.5-1.5s.67-1.5 1.5-1.5s1.5.67 1.5 1.5s-.67 1.5-1.5 1.5"/></symbol><symbol id="hd-icon-ic-baseline-local-taxi" viewBox="0 0 24 24"><path fill="currentColor" d="M18.92 6.01C18.72 5.42 18.16 5 17.5 5H15V3H9v2H6.5c-.66 0-1.21.42-1.42 1.01L3 12v8c0 .55.45 1 1 1h1c.55 0 1-.45 1-1v-1h12v1c0 .55.45 1 1 1h1c.55 0 1-.45 1-1v-8zM6.5 16c-.83 0-1.5-.67-1.5-1.5S5.67 13 6.5 13s1.5.67 1.5 1.5S7.33 16 6.5 16m11 0c-.83 0-1.5-.67-1.5-1.5s.67-1.5 1.5-1.5s1.5.67 1.5 1.5s-.67 1.5-1.5 1.5M5 11l1.5-4.5h11L19 11z"/></symbol><symbol id="hd-icon-ic-baseline-location-city" viewBox="0 0 24 24"><path fill="currentColor" d="M15 11V5l-3-3l-3 3v2H3v14h18V11zm-8 8H5v-2h2zm0-4H5v-2h2zm0-4H5V9h2zm6 8h-2v-2h2zm0-4h-2v-2h2zm0-4h-2V9h2zm0-4h-2V5h2zm6 12h-2v-2h2zm0-4h-2v-2h2z"/></symbol><symbol id="hd-icon-ic-baseline-location-disabled" viewBox="0 0 24 24"><path fill="currentColor" d="M20.94 11A8.994 8.994 0 0 0 13 3.06V1h-2v2.06c-1.13.12-2.19.46-3.16.97l1.5 1.5A6.995 6.995 0 0 1 19 12c0 .94-.19 1.84-.52 2.65l1.5 1.5c.5-.96.84-2.02.97-3.15H23v-2zM3 4.27l2.04 2.04A8.9 8.9 0 0 0 3.06 11H1v2h2.06A8.994 8.994 0 0 0 11 20.94V23h2v-2.06c1.77-.2 3.38-.91 4.69-1.98L19.73 21L21 19.73L4.27 3zm13.27 13.27a6.995 6.995 0 0 1-9.81-9.81z"/></symbol><symbol id="hd-icon-ic-baseline-location-off" viewBox="0 0 24 24"><path fill="currentColor" d="M12 6.5A2.5 2.5 0 0 1 14.5 9c0 .74-.33 1.39-.83 1.85l3.63 3.63c.98-1.86 1.7-3.8 1.7-5.48c0-3.87-3.13-7-7-7a7 7 0 0 0-5.04 2.15l3.19 3.19c.46-.52 1.11-.84 1.85-.84m4.37 9.6l-4.63-4.63l-.11-.11L3.27 3L2 4.27l3.18 3.18C5.07 7.95 5 8.47 5 9c0 5.25 7 13 7 13s1.67-1.85 3.38-4.35L18.73 21L20 19.73z"/></symbol><symbol id="hd-icon-ic-baseline-location-on" viewBox="0 0 24 24"><path fill="currentColor" d="M12 2C8.13 2 5 5.13 5 9c0 5.25 7 13 7 13s7-7.75 7-13c0-3.87-3.13-7-7-7m0 9.5a2.5 2.5 0 0 1 0-5a2.5 2.5 0 0 1 0 5"/></symbol><symbol id="hd-icon-ic-baseline-location-searching" viewBox="0 0 24 24"><path fill="currentColor" d="M20.94 11A8.994 8.994 0 0 0 13 3.06V1h-2v2.06A8.994 8.994 0 0 0 3.06 11H1v2h2.06A8.994 8.994 0 0 0 11 20.94V23h2v-2.06A8.994 8.994 0 0 0 20.94 13H23v-2zM12 19c-3.87 0-7-3.13-7-7s3.13-7 7-7s7 3.13 7 7s-3.13 7-7 7"/></symbol><symbol id="hd-icon-ic-baseline-lock" viewBox="0 0 24 24"><path fill="currentColor" d="M18 8h-1V6c0-2.76-2.24-5-5-5S7 3.24 7 6v2H6c-1.1 0-2 .9-2 2v10c0 1.1.9 2 2 2h12c1.1 0 2-.9 2-2V10c0-1.1-.9-2-2-2m-6 9c-1.1 0-2-.9-2-2s.9-2 2-2s2 .9 2 2s-.9 2-2 2m3.1-9H8.9V6c0-1.71 1.39-3.1 3.1-3.1s3.1 1.39 3.1 3.1z"/></symbol><symbol id="hd-icon-ic-baseline-lock-clock" viewBox="0 0 24 24"><path fill="currentColor" d="m14.5 14.2l2.9 1.7l-.8 1.3L13 15v-5h1.5zM22 14c0 4.41-3.59 8-8 8c-2.02 0-3.86-.76-5.27-2H4c-1.15 0-2-.85-2-2V9c0-1.12.89-1.96 2-2v-.5C4 4.01 6.01 2 8.5 2c2.34 0 4.24 1.79 4.46 4.08c.34-.05.69-.08 1.04-.08c4.41 0 8 3.59 8 8M6 7h5v-.74A2.51 2.51 0 0 0 8.5 4A2.5 2.5 0 0 0 6 6.5zm14 7c0-3.31-2.69-6-6-6s-6 2.69-6 6s2.69 6 6 6s6-2.69 6-6"/></symbol><symbol id="hd-icon-ic-baseline-lock-open" viewBox="0 0 24 24"><path fill="currentColor" d="M12 17c1.1 0 2-.9 2-2s-.9-2-2-2s-2 .9-2 2s.9 2 2 2m6-9h-1V6c0-2.76-2.24-5-5-5S7 3.24 7 6h1.9c0-1.71 1.39-3.1 3.1-3.1s3.1 1.39 3.1 3.1v2H6c-1.1 0-2 .9-2 2v10c0 1.1.9 2 2 2h12c1.1 0 2-.9 2-2V10c0-1.1-.9-2-2-2m0 12H6V10h12z"/></symbol><symbol id="hd-icon-ic-baseline-lock-person" viewBox="0 0 24 24"><path fill="currentColor" d="M18 11c.7 0 1.37.1 2 .29V10c0-1.1-.9-2-2-2h-1V6c0-2.76-2.24-5-5-5S7 3.24 7 6v2H6c-1.1 0-2 .9-2 2v10c0 1.1.9 2 2 2h6.26A6.995 6.995 0 0 1 18 11M8.9 6c0-1.71 1.39-3.1 3.1-3.1s3.1 1.39 3.1 3.1v2H8.9z"/><path fill="currentColor" d="M18 13c-2.76 0-5 2.24-5 5s2.24 5 5 5s5-2.24 5-5s-2.24-5-5-5m0 2c.83 0 1.5.67 1.5 1.5S18.83 18 18 18s-1.5-.67-1.5-1.5s.67-1.5 1.5-1.5m0 6c-1.03 0-1.94-.52-2.48-1.32c.73-.42 1.57-.68 2.48-.68s1.75.26 2.48.68c-.54.8-1.45 1.32-2.48 1.32"/></symbol><symbol id="hd-icon-ic-baseline-lock-reset" viewBox="0 0 24 24"><path fill="currentColor" d="M13 3a9 9 0 0 0-9 9H1l4 4l4-4H6c0-3.86 3.14-7 7-7s7 3.14 7 7s-3.14 7-7 7c-1.9 0-3.62-.76-4.88-1.99L6.7 18.42A8.98 8.98 0 0 0 13 21a9 9 0 0 0 0-18m2 8v-1c0-1.1-.9-2-2-2s-2 .9-2 2v1c-.55 0-1 .45-1 1v3c0 .55.45 1 1 1h4c.55 0 1-.45 1-1v-3c0-.55-.45-1-1-1m-1 0h-2v-1c0-.55.45-1 1-1s1 .45 1 1z"/></symbol><symbol id="hd-icon-ic-baseline-log-in" viewBox="0 0 24 24"><path fill="currentColor" d="M9 2h9c1.1 0 2 .9 2 2v16c0 1.1-.9 2-2 2H9c-1.1 0-2-.9-2-2v-2h2v2h9V4H9v2H7V4c0-1.1.9-2 2-2"/><path fill="currentColor" d="M10.09 15.59L11.5 17l5-5l-5-5l-1.41 1.41L12.67 11H3v2h9.67z"/></symbol><symbol id="hd-icon-ic-baseline-log-out" viewBox="0 0 24 24"><path fill="currentColor" d="M6 2h9a2 2 0 0 1 2 2v2h-2V4H6v16h9v-2h2v2a2 2 0 0 1-2 2H6a2 2 0 0 1-2-2V4a2 2 0 0 1 2-2"/><path fill="currentColor" d="M16.09 15.59L17.5 17l5-5l-5-5l-1.41 1.41L18.67 11H9v2h9.67z"/></symbol><symbol id="hd-icon-ic-baseline-login" viewBox="0 0 24 24"><path fill="currentColor" d="M11 7L9.6 8.4l2.6 2.6H2v2h10.2l-2.6 2.6L11 17l5-5zm9 12h-8v2h8c1.1 0 2-.9 2-2V5c0-1.1-.9-2-2-2h-8v2h8z"/></symbol><symbol id="hd-icon-ic-baseline-logo-dev" viewBox="0 0 24 24"><path fill="currentColor" d="M19 3H5c-1.1 0-2 .9-2 2v14c0 1.1.9 2 2 2h14c1.1 0 2-.9 2-2V5c0-1.1-.9-2-2-2M7.68 14.98H6V9h1.71c1.28 0 1.71 1.03 1.71 1.71v2.56c0 .68-.42 1.71-1.74 1.71m4.7-3.52v1.07H11.2v1.39h1.93v1.07h-2.25c-.4.01-.74-.31-.75-.71V9.75c-.01-.4.31-.74.71-.75h2.28v1.07H11.2v1.39zm4.5 2.77c-.48 1.11-1.33.89-1.71 0L13.77 9h1.18l1.07 4.11L17.09 9h1.18z"/><path fill="currentColor" d="M7.77 10.12h-.63v3.77h.63c.14 0 .28-.05.42-.16c.14-.1.21-.26.21-.47v-2.52c0-.21-.07-.37-.21-.47a.72.72 0 0 0-.42-.15"/></symbol><symbol id="hd-icon-ic-baseline-logout" viewBox="0 0 24 24"><path fill="currentColor" d="m17 7l-1.41 1.41L18.17 11H8v2h10.17l-2.58 2.58L17 17l5-5zM4 5h8V3H4c-1.1 0-2 .9-2 2v14c0 1.1.9 2 2 2h8v-2H4z"/></symbol><symbol id="hd-icon-ic-baseline-looks" viewBox="0 0 24 24"><path fill="currentColor" d="M12 10c-3.86 0-7 3.14-7 7h2c0-2.76 2.24-5 5-5s5 2.24 5 5h2c0-3.86-3.14-7-7-7m0-4C5.93 6 1 10.93 1 17h2c0-4.96 4.04-9 9-9s9 4.04 9 9h2c0-6.07-4.93-11-11-11"/></symbol><symbol id="hd-icon-ic-baseline-looks-3" viewBox="0 0 24 24"><path fill="currentColor" d="M19.01 3h-14c-1.1 0-2 .9-2 2v14c0 1.1.9 2 2 2h14c1.1 0 2-.9 2-2V5c0-1.1-.9-2-2-2m-4 7.5c0 .83-.67 1.5-1.5 1.5c.83 0 1.5.67 1.5 1.5V15a2 2 0 0 1-2 2h-4v-2h4v-2h-2v-2h2V9h-4V7h4a2 2 0 0 1 2 2z"/></symbol><symbol id="hd-icon-ic-baseline-looks-4" viewBox="0 0 24 24"><path fill="currentColor" d="M19 3H5c-1.1 0-2 .9-2 2v14c0 1.1.9 2 2 2h14c1.1 0 2-.9 2-2V5c0-1.1-.9-2-2-2m-4 14h-2v-4H9V7h2v4h2V7h2z"/></symbol><symbol id="hd-icon-ic-baseline-looks-5" viewBox="0 0 24 24"><path fill="currentColor" d="M19 3H5c-1.1 0-2 .9-2 2v14c0 1.1.9 2 2 2h14c1.1 0 2-.9 2-2V5c0-1.1-.9-2-2-2m-4 6h-4v2h2a2 2 0 0 1 2 2v2a2 2 0 0 1-2 2H9v-2h4v-2H9V7h6z"/></symbol><symbol id="hd-icon-ic-baseline-looks-6" viewBox="0 0 24 24"><path fill="currentColor" d="M11 15h2v-2h-2zm8-12H5c-1.1 0-2 .9-2 2v14c0 1.1.9 2 2 2h14c1.1 0 2-.9 2-2V5c0-1.1-.9-2-2-2m-4 6h-4v2h2a2 2 0 0 1 2 2v2a2 2 0 0 1-2 2h-2a2 2 0 0 1-2-2V9a2 2 0 0 1 2-2h4z"/></symbol><symbol id="hd-icon-ic-baseline-looks-one" viewBox="0 0 24 24"><path fill="currentColor" d="M19 3H5c-1.1 0-2 .9-2 2v14c0 1.1.9 2 2 2h14c1.1 0 2-.9 2-2V5c0-1.1-.9-2-2-2m-5 14h-2V9h-2V7h4z"/></symbol><symbol id="hd-icon-ic-baseline-looks-two" viewBox="0 0 24 24"><path fill="currentColor" d="M19 3H5c-1.1 0-2 .9-2 2v14c0 1.1.9 2 2 2h14c1.1 0 2-.9 2-2V5c0-1.1-.9-2-2-2m-4 8a2 2 0 0 1-2 2h-2v2h4v2H9v-4a2 2 0 0 1 2-2h2V9H9V7h4a2 2 0 0 1 2 2z"/></symbol><symbol id="hd-icon-ic-baseline-loop" viewBox="0 0 24 24"><path fill="currentColor" d="M12 4V1L8 5l4 4V6c3.31 0 6 2.69 6 6c0 1.01-.25 1.97-.7 2.8l1.46 1.46A7.93 7.93 0 0 0 20 12c0-4.42-3.58-8-8-8m0 14c-3.31 0-6-2.69-6-6c0-1.01.25-1.97.7-2.8L5.24 7.74A7.93 7.93 0 0 0 4 12c0 4.42 3.58 8 8 8v3l4-4l-4-4z"/></symbol><symbol id="hd-icon-ic-baseline-loupe" viewBox="0 0 24 24"><path fill="currentColor" d="M13 7h-2v4H7v2h4v4h2v-4h4v-2h-4zm-1-5C6.49 2 2 6.49 2 12s4.49 10 10 10h8c1.1 0 2-.9 2-2v-8c0-5.51-4.49-10-10-10m0 18c-4.41 0-8-3.59-8-8s3.59-8 8-8s8 3.59 8 8s-3.59 8-8 8"/></symbol><symbol id="hd-icon-ic-baseline-low-priority" viewBox="0 0 24 24"><path fill="currentColor" d="M14 5h8v2h-8zm0 5.5h8v2h-8zm0 5.5h8v2h-8zM2 11.5C2 15.08 4.92 18 8.5 18H9v2l3-3l-3-3v2h-.5C6.02 16 4 13.98 4 11.5S6.02 7 8.5 7H12V5H8.5C4.92 5 2 7.92 2 11.5"/></symbol><symbol id="hd-icon-ic-baseline-loyalty" viewBox="0 0 24 24"><path fill="currentColor" d="m21.41 11.58l-9-9C12.05 2.22 11.55 2 11 2H4c-1.1 0-2 .9-2 2v7c0 .55.22 1.05.59 1.42l9 9c.36.36.86.58 1.41.58s1.05-.22 1.41-.59l7-7c.37-.36.59-.86.59-1.41s-.23-1.06-.59-1.42M5.5 7C4.67 7 4 6.33 4 5.5S4.67 4 5.5 4S7 4.67 7 5.5S6.33 7 5.5 7m11.77 8.27L13 19.54l-4.27-4.27A2.5 2.5 0 0 1 10.5 11c.69 0 1.32.28 1.77.74l.73.72l.73-.73a2.5 2.5 0 0 1 3.54 3.54"/></symbol><symbol id="hd-icon-ic-baseline-lte-mobiledata" viewBox="0 0 24 24"><path fill="currentColor" d="M6 14h3v2H4V8h2zm3-4h2v6h2v-6h2V8H9zm12 0V8h-5v8h5v-2h-3v-1h3v-2h-3v-1z"/></symbol><symbol id="hd-icon-ic-baseline-lte-plus-mobiledata" viewBox="0 0 24 24"><path fill="currentColor" d="M3 14h3v2H1V8h2zm2-4h2v6h2v-6h2V8H5zm7 6h5v-2h-3v-1h3v-2h-3v-1h3V8h-5zm12-5h-2V9h-2v2h-2v2h2v2h2v-2h2z"/></symbol><symbol id="hd-icon-ic-baseline-luggage" viewBox="0 0 24 24"><path fill="currentColor" d="M17 6h-2V3c0-.55-.45-1-1-1h-4c-.55 0-1 .45-1 1v3H7c-1.1 0-2 .9-2 2v11c0 1.1.9 2 2 2c0 .55.45 1 1 1s1-.45 1-1h6c0 .55.45 1 1 1s1-.45 1-1c1.1 0 2-.9 2-2V8c0-1.1-.9-2-2-2M9.5 18H8V9h1.5zm3.25 0h-1.5V9h1.5zm.75-12h-3V3.5h3zM16 18h-1.5V9H16z"/></symbol><symbol id="hd-icon-ic-baseline-lunch-dining" viewBox="0 0 24 24"><path fill="currentColor" fill-rule="evenodd" d="M22 10c.32-3.28-4.28-6-9.99-6S1.7 6.72 2.02 10zM5.35 13.5c.55 0 .78.14 1.15.36c.45.27 1.07.64 2.18.64s1.73-.37 2.18-.64c.37-.23.59-.36 1.15-.36c.55 0 .78.14 1.15.36c.45.27 1.07.64 2.18.64s1.73-.37 2.18-.64c.37-.23.59-.36 1.15-.36c.55 0 .78.14 1.15.36c.45.27 1.07.63 2.17.64v-1.98s-.79-.16-1.16-.38c-.45-.27-1.07-.64-2.18-.64s-1.73.37-2.18.64c-.37.23-.6.36-1.15.36s-.78-.14-1.15-.36c-.45-.27-1.07-.64-2.18-.64s-1.73.37-2.18.64c-.37.23-.59.36-1.15.36c-.55 0-.78-.14-1.15-.36c-.45-.27-1.07-.64-2.18-.64s-1.73.37-2.18.64c-.37.23-.59.36-1.15.36v2c1.11 0 1.73-.37 2.21-.64c.37-.23.59-.36 1.14-.36M2 16v2c0 1.1.9 2 2 2h16c1.1 0 2-.9 2-2v-2z"/></symbol><symbol id="hd-icon-ic-baseline-lyrics" viewBox="0 0 24 24"><path fill="currentColor" d="M14 9c0-2.04 1.24-3.79 3-4.57V4c0-1.1-.9-2-2-2H4c-1.1 0-1.99.9-1.99 2L2 22l4-4h9c1.1 0 2-.9 2-2v-2.42c-1.76-.78-3-2.53-3-4.58m-4 5H6v-2h4zm3-3H6V9h7zm0-3H6V6h7z"/><path fill="currentColor" d="M20 6.18c-.31-.11-.65-.18-1-.18c-1.66 0-3 1.34-3 3s1.34 3 3 3s3-1.34 3-3V3h2V1h-4z"/></symbol><symbol id="hd-icon-ic-baseline-macro-off" viewBox="0 0 24 24"><path fill="currentColor" d="M19.98 17.15A8.9 8.9 0 0 0 21 13c-1.5 0-2.91.37-4.15 1.02zM3 13a9 9 0 0 0 9 9a9 9 0 0 0-9-9m9-7.5A2.5 2.5 0 0 1 14.5 8c0 .99-.58 1.84-1.42 2.25l2.48 2.48c.11.02.23.03.35.03a2.5 2.5 0 0 0 2.5-2.5c0-1-.59-1.85-1.43-2.25c.84-.4 1.43-1.25 1.43-2.25a2.5 2.5 0 0 0-3.92-2.06l.01-.2a2.5 2.5 0 0 0-5 0l.02.19a2.485 2.485 0 0 0-2.93.08l3.16 3.16c.41-.85 1.26-1.43 2.25-1.43"/><path fill="currentColor" d="M2.81 2.81L1.39 4.22l4.64 4.64c-.27.4-.43.87-.43 1.39a2.5 2.5 0 0 0 2.5 2.5c.52 0 .99-.16 1.4-.43l.02.02l-.02.16A2.5 2.5 0 0 0 12 15c.05 0 .1-.01.16-.02l1.64 1.64A8.9 8.9 0 0 0 12 22c2.02 0 3.88-.67 5.38-1.8l2.4 2.4l1.41-1.41z"/></symbol><symbol id="hd-icon-ic-baseline-mail" viewBox="0 0 24 24"><path fill="currentColor" d="M20 4H4c-1.1 0-1.99.9-1.99 2L2 18c0 1.1.9 2 2 2h16c1.1 0 2-.9 2-2V6c0-1.1-.9-2-2-2m0 4l-8 5l-8-5V6l8 5l8-5z"/></symbol><symbol id="hd-icon-ic-baseline-mail-lock" viewBox="0 0 24 24"><path fill="currentColor" d="M22 9.97V6c0-1.1-.9-2-2-2H4c-1.1 0-1.99.9-1.99 2L2 18c0 1.1.9 2 2 2h12v-5.03c0-2.76 2.24-5 5-5zM20 8l-8 5l-8-5V6l8 5l8-5z"/><path fill="currentColor" d="M23 15v-1c0-1.1-.9-2-2-2s-2 .9-2 2v1c-.55 0-1 .45-1 1v3c0 .55.45 1 1 1h4c.55 0 1-.45 1-1v-3c0-.55-.45-1-1-1m-1 0h-2v-1c0-.55.45-1 1-1s1 .45 1 1z"/></symbol><symbol id="hd-icon-ic-baseline-mail-outline" viewBox="0 0 24 24"><path fill="currentColor" d="M20 4H4c-1.1 0-1.99.9-1.99 2L2 18c0 1.1.9 2 2 2h16c1.1 0 2-.9 2-2V6c0-1.1-.9-2-2-2m0 14H4V8l8 5l8-5zm-8-7L4 6h16z"/></symbol><symbol id="hd-icon-ic-baseline-male" viewBox="0 0 24 24"><path fill="currentColor" d="M9.5 11c1.93 0 3.5 1.57 3.5 3.5S11.43 18 9.5 18S6 16.43 6 14.5S7.57 11 9.5 11m0-2C6.46 9 4 11.46 4 14.5S6.46 20 9.5 20s5.5-2.46 5.5-5.5c0-1.16-.36-2.23-.97-3.12L18 7.42V10h2V4h-6v2h2.58l-3.97 3.97C11.73 9.36 10.66 9 9.5 9"/></symbol><symbol id="hd-icon-ic-baseline-man" viewBox="0 0 24 24"><path fill="currentColor" d="M14 7h-4c-1.1 0-2 .9-2 2v6h2v7h4v-7h2V9c0-1.1-.9-2-2-2"/><circle cx="12" cy="4" r="2" fill="currentColor"/></symbol><symbol id="hd-icon-ic-baseline-man-2" viewBox="0 0 24 24"><path fill="currentColor" d="M14 7h-4c-1.1 0-2 .9-2 2v6h2.5v7h3v-7H16V9c0-1.1-.9-2-2-2"/><circle cx="12" cy="4" r="2" fill="currentColor"/></symbol><symbol id="hd-icon-ic-baseline-man-3" viewBox="0 0 24 24"><path fill="currentColor" d="M14 7h-4c-1.1 0-2 .9-2 2v6h2v7h4v-7h2V9c0-1.1-.9-2-2-2m-2-5.249L14.248 4L12 6.248L9.75 4z"/></symbol><symbol id="hd-icon-ic-baseline-man-4" viewBox="0 0 24 24"><path fill="currentColor" d="M13.75 7h-3.5C9.04 7 8.11 8.07 8.27 9.26L10 22h4l1.73-12.74C15.89 8.07 14.96 7 13.75 7"/><circle cx="12" cy="4" r="2" fill="currentColor"/></symbol><symbol id="hd-icon-ic-baseline-manage-accounts" viewBox="0 0 24 24"><circle cx="10" cy="8" r="4" fill="currentColor"/><path fill="currentColor" d="M10.67 13.02c-.22-.01-.44-.02-.67-.02c-2.42 0-4.68.67-6.61 1.82c-.88.52-1.39 1.5-1.39 2.53V20h9.26a6.96 6.96 0 0 1-.59-6.98M20.75 16c0-.22-.03-.42-.06-.63l1.14-1.01l-1-1.73l-1.45.49q-.48-.405-1.08-.63L18 11h-2l-.3 1.49q-.6.225-1.08.63l-1.45-.49l-1 1.73l1.14 1.01c-.03.21-.06.41-.06.63s.03.42.06.63l-1.14 1.01l1 1.73l1.45-.49q.48.405 1.08.63L16 21h2l.3-1.49q.6-.225 1.08-.63l1.45.49l1-1.73l-1.14-1.01c.03-.21.06-.41.06-.63M17 18c-1.1 0-2-.9-2-2s.9-2 2-2s2 .9 2 2s-.9 2-2 2"/></symbol><symbol id="hd-icon-ic-baseline-manage-history" viewBox="0 0 24 24"><path fill="currentColor" d="m22.69 18.37l1.14-1l-1-1.73l-1.45.49q-.48-.405-1.08-.63L20 14h-2l-.3 1.49q-.6.225-1.08.63l-1.45-.49l-1 1.73l1.14 1c-.08.5-.08.76 0 1.26l-1.14 1l1 1.73l1.45-.49q.48.405 1.08.63L18 24h2l.3-1.49q.6-.225 1.08-.63l1.45.49l1-1.73l-1.14-1c.08-.51.08-.77 0-1.27M19 21c-1.1 0-2-.9-2-2s.9-2 2-2s2 .9 2 2s-.9 2-2 2M11 7v5.41l2.36 2.36l1.04-1.79l-1.4-1.39V7zm10 5a9 9 0 0 0-9-9C9.17 3 6.65 4.32 5 6.36V4H3v6h6V8H6.26A7.01 7.01 0 0 1 12 5c3.86 0 7 3.14 7 7zm-10.14 6.91c-2.99-.49-5.35-2.9-5.78-5.91H3.06c.5 4.5 4.31 8 8.94 8h.07z"/></symbol><symbol id="hd-icon-ic-baseline-manage-search" viewBox="0 0 24 24"><path fill="currentColor" d="M7 9H2V7h5zm0 3H2v2h5zm13.59 7l-3.83-3.83c-.8.52-1.74.83-2.76.83c-2.76 0-5-2.24-5-5s2.24-5 5-5s5 2.24 5 5c0 1.02-.31 1.96-.83 2.75L22 17.59zM17 11c0-1.65-1.35-3-3-3s-3 1.35-3 3s1.35 3 3 3s3-1.35 3-3M2 19h10v-2H2z"/></symbol><symbol id="hd-icon-ic-baseline-map" viewBox="0 0 24 24"><path fill="currentColor" d="m20.5 3l-.16.03L15 5.1L9 3L3.36 4.9c-.21.07-.36.25-.36.48V20.5c0 .28.22.5.5.5l.16-.03L9 18.9l6 2.1l5.64-1.9c.21-.07.36-.25.36-.48V3.5c0-.28-.22-.5-.5-.5M15 19l-6-2.11V5l6 2.11z"/></symbol><symbol id="hd-icon-ic-baseline-maps-home-work" viewBox="0 0 24 24"><path fill="currentColor" d="M1 11v10h5v-6h4v6h5V11L8 6z"/><path fill="currentColor" d="M10 3v1.97l7 5V11h2v2h-2v2h2v2h-2v4h6V3zm9 6h-2V7h2z"/></symbol><symbol id="hd-icon-ic-baseline-maps-ugc" viewBox="0 0 24 24"><path fill="currentColor" fill-rule="evenodd" d="M12 2C6.48 2 2 6.48 2 12c0 1.54.36 2.98.97 4.29L1 23l6.71-1.97c1.31.61 2.75.97 4.29.97c5.52 0 10-4.48 10-10S17.52 2 12 2m4 11h-3v3h-2v-3H8v-2h3V8h2v3h3z"/></symbol><symbol id="hd-icon-ic-baseline-margin" viewBox="0 0 24 24"><path fill="currentColor" d="M3 3v18h18V3zm16 16H5V5h14zM11 7h2v2h-2zM7 7h2v2H7zm8 0h2v2h-2zm-8 4h2v2H7zm4 0h2v2h-2zm4 0h2v2h-2z"/></symbol><symbol id="hd-icon-ic-baseline-mark-as-unread" viewBox="0 0 24 24"><path fill="currentColor" d="M18.83 7h-2.6L10.5 4L4 7.4V17c-1.1 0-2-.9-2-2V7.17c0-.53.32-1.09.8-1.34L10.5 2l7.54 3.83c.43.23.73.7.79 1.17M20 8H7c-1.1 0-2 .9-2 2v9c0 1.1.9 2 2 2h13c1.1 0 2-.9 2-2v-9c0-1.1-.9-2-2-2m0 3.67L13.5 15L7 11.67V10l6.5 3.33L20 10z"/></symbol><symbol id="hd-icon-ic-baseline-mark-chat-read" viewBox="0 0 24 24"><path fill="currentColor" d="m17.34 20l-3.54-3.54l1.41-1.41l2.12 2.12l4.24-4.24L23 14.34zM12 17a6.995 6.995 0 0 1 10-6.32V4c0-1.1-.9-2-2-2H4c-1.1 0-2 .9-2 2v18l4-4h6c0-.17.01-.33.03-.5A4 4 0 0 1 12 17"/></symbol><symbol id="hd-icon-ic-baseline-mark-chat-unread" viewBox="0 0 24 24"><path fill="currentColor" d="M22 6.98V16c0 1.1-.9 2-2 2H6l-4 4V4c0-1.1.9-2 2-2h10.1A5.002 5.002 0 0 0 19 8c1.13 0 2.16-.39 3-1.02M16 3c0 1.66 1.34 3 3 3s3-1.34 3-3s-1.34-3-3-3s-3 1.34-3 3"/></symbol><symbol id="hd-icon-ic-baseline-mark-email-read" viewBox="0 0 24 24"><path fill="currentColor" d="M12 19a6.995 6.995 0 0 1 10-6.32V6c0-1.1-.9-2-2-2H4c-1.1 0-2 .9-2 2v12c0 1.1.9 2 2 2h8.08c-.05-.33-.08-.66-.08-1M4 6l8 5l8-5v2l-8 5l-8-5zm13.34 16l-3.54-3.54l1.41-1.41l2.12 2.12l4.24-4.24L23 16.34z"/></symbol><symbol id="hd-icon-ic-baseline-mark-email-unread" viewBox="0 0 24 24"><path fill="currentColor" d="M22 8.98V18c0 1.1-.9 2-2 2H4c-1.1 0-2-.9-2-2V6c0-1.1.9-2 2-2h10.1c-.06.32-.1.66-.1 1c0 1.48.65 2.79 1.67 3.71L12 11L4 6v2l8 5l5.3-3.32c.54.2 1.1.32 1.7.32c1.13 0 2.16-.39 3-1.02M16 5c0 1.66 1.34 3 3 3s3-1.34 3-3s-1.34-3-3-3s-3 1.34-3 3"/></symbol><symbol id="hd-icon-ic-baseline-mark-unread-chat-alt" viewBox="0 0 24 24"><circle cx="19" cy="3" r="3" fill="currentColor"/><path fill="currentColor" d="M6 8V6h9.03a4.9 4.9 0 0 1-.92-4H4.01a2 2 0 0 0-2 2L2 22l4-4h14c1.1 0 2-.9 2-2V6.97C21.16 7.61 20.13 8 19 8zm8 6H6v-2h8zm4-3H6V9h12z"/></symbol><symbol id="hd-icon-ic-baseline-markunread" viewBox="0 0 24 24"><path fill="currentColor" d="M20 4H4c-1.1 0-1.99.9-1.99 2L2 18c0 1.1.9 2 2 2h16c1.1 0 2-.9 2-2V6c0-1.1-.9-2-2-2m0 4l-8 5l-8-5V6l8 5l8-5z"/></symbol><symbol id="hd-icon-ic-baseline-markunread-mailbox" viewBox="0 0 24 24"><path fill="currentColor" d="M20 6H10v6H8V4h6V0H6v6H4c-1.1 0-2 .9-2 2v12c0 1.1.9 2 2 2h16c1.1 0 2-.9 2-2V8c0-1.1-.9-2-2-2"/></symbol><symbol id="hd-icon-ic-baseline-masks" viewBox="0 0 24 24"><path fill="currentColor" d="M19.5 6c-1.31 0-2.37 1.01-2.48 2.3c-1.88-.5-2.84-1.8-5.02-1.8c-2.19 0-3.14 1.3-5.02 1.8C6.87 7.02 5.81 6 4.5 6A2.5 2.5 0 0 0 2 8.5V9c0 6 3.6 7.81 6.52 7.98C9.53 17.62 10.72 18 12 18s2.47-.38 3.48-1.02C18.4 16.81 22 15 22 9v-.5A2.5 2.5 0 0 0 19.5 6m-16 3v-.5c0-.55.45-1 1-1s1 .45 1 1v3c0 1.28.38 2.47 1.01 3.48C4.99 14.27 3.5 12.65 3.5 9m17 0c0 3.65-1.49 5.27-3.01 5.98c.64-1.01 1.01-2.2 1.01-3.48v-3c0-.55.45-1 1-1s1 .45 1 1zm-9.81 1.48c-.44.26-.96.56-1.69.76V10.2c.48-.17.84-.38 1.18-.58C10.72 9.3 11.23 9 12 9s1.27.3 1.8.62c.34.2.71.42 1.2.59v1.04c-.75-.21-1.26-.51-1.71-.78c-.46-.27-.8-.47-1.29-.47s-.84.2-1.31.48"/></symbol><symbol id="hd-icon-ic-baseline-maximize" viewBox="0 0 24 24"><path fill="currentColor" d="M3 3h18v2H3z"/></symbol><symbol id="hd-icon-ic-baseline-media-bluetooth-off" viewBox="0 0 24 24"><path fill="currentColor" d="M9 6.17V3h6v4h-4v1.17zM19.42 15L22 17.57l-.8.8l-6.78-6.78l.8-.8l2.75 2.75V9h.6L22 12.43zm-.25-1.45l1.13-1.13l-1.13-1.13zm2.02 7.64l-1.41 1.41l-3.98-3.98l-.58.58l-.85-.85l.58-.58L11 13.83V17c0 2.21-1.78 4-3.99 4S3 19.21 3 17s1.79-4 4.01-4c.73 0 1.41.21 2 .55v-1.72L1.39 4.22L2.8 2.81z"/></symbol><symbol id="hd-icon-ic-baseline-media-bluetooth-on" viewBox="0 0 24 24"><path fill="currentColor" d="m9 3l.01 10.55c-.6-.34-1.28-.55-2-.55a4.001 4.001 0 1 0 0 8C9.23 21 11 19.21 11 17V7h4V3zm12 9.43L17.57 9h-.6v4.55l-2.75-2.75l-.85.85L16.73 15l-3.35 3.35l.85.85l2.75-2.75V21h.6L21 17.57L18.42 15zm-2.83-1.13l1.13 1.13l-1.13 1.13zm1.13 6.27l-1.13 1.13v-2.26z"/></symbol><symbol id="hd-icon-ic-baseline-mediation" viewBox="0 0 24 24"><path fill="currentColor" d="m22 12l-4 4l-1.41-1.41L18.17 13h-5.23A8.97 8.97 0 0 1 8 20.05A3.005 3.005 0 0 1 5 23c-1.66 0-3-1.34-3-3s1.34-3 3-3c.95 0 1.78.45 2.33 1.14A6.97 6.97 0 0 0 10.91 13h-3.1C7.4 14.16 6.3 15 5 15c-1.66 0-3-1.34-3-3s1.34-3 3-3c1.3 0 2.4.84 2.82 2h3.1c-.32-2.23-1.69-4.1-3.59-5.14C6.78 6.55 5.95 7 5 7C3.34 7 2 5.66 2 4s1.34-3 3-3a2.99 2.99 0 0 1 2.99 2.95A8.97 8.97 0 0 1 12.93 11h5.23l-1.58-1.59L18 8z"/></symbol><symbol id="hd-icon-ic-baseline-medical-information" viewBox="0 0 24 24"><path fill="currentColor" d="M20 7h-5V4c0-1.1-.9-2-2-2h-2c-1.1 0-2 .9-2 2v3H4c-1.1 0-2 .9-2 2v11c0 1.1.9 2 2 2h16c1.1 0 2-.9 2-2V9c0-1.1-.9-2-2-2m-9-3h2v5h-2zm0 12H9v2H7v-2H5v-2h2v-2h2v2h2zm2-1.5V13h6v1.5zm0 3V16h4v1.5z"/></symbol><symbol id="hd-icon-ic-baseline-medical-services" viewBox="0 0 24 24"><path fill="currentColor" d="M20 6h-4V4c0-1.1-.9-2-2-2h-4c-1.1 0-2 .9-2 2v2H4c-1.1 0-2 .9-2 2v12c0 1.1.9 2 2 2h16c1.1 0 2-.9 2-2V8c0-1.1-.9-2-2-2M10 4h4v2h-4zm6 11h-3v3h-2v-3H8v-2h3v-3h2v3h3z"/></symbol><symbol id="hd-icon-ic-baseline-medication" viewBox="0 0 24 24"><path fill="currentColor" d="M6 3h12v2H6zm11 3H7c-1.1 0-2 .9-2 2v11c0 1.1.9 2 2 2h10c1.1 0 2-.9 2-2V8c0-1.1-.9-2-2-2m-1 9h-2.5v2.5h-3V15H8v-3h2.5V9.5h3V12H16z"/></symbol><symbol id="hd-icon-ic-baseline-medication-liquid" viewBox="0 0 24 24"><path fill="currentColor" d="M3 3h12v2H3zm11 3H4c-1.1 0-2 .9-2 2v11c0 1.1.9 2 2 2h10c1.1 0 2-.9 2-2V8c0-1.1-.9-2-2-2m-1 9h-2.5v2.5h-3V15H5v-3h2.5V9.5h3V12H13zm7-9c-1.68 0-3 1.76-3 4c0 1.77.83 3.22 2 3.76V20c0 .55.45 1 1 1s1-.45 1-1v-6.24c1.17-.54 2-1.99 2-3.76c0-2.24-1.32-4-3-4"/></symbol><symbol id="hd-icon-ic-baseline-meeting-room" viewBox="0 0 24 24"><path fill="currentColor" d="M14 6v15H3v-2h2V3h9v1h5v15h2v2h-4V6zm-4 5v2h2v-2z"/></symbol><symbol id="hd-icon-ic-baseline-memory" viewBox="0 0 24 24"><path fill="currentColor" d="M15 9H9v6h6zm-2 4h-2v-2h2zm8-2V9h-2V7c0-1.1-.9-2-2-2h-2V3h-2v2h-2V3H9v2H7c-1.1 0-2 .9-2 2v2H3v2h2v2H3v2h2v2c0 1.1.9 2 2 2h2v2h2v-2h2v2h2v-2h2c1.1 0 2-.9 2-2v-2h2v-2h-2v-2zm-4 6H7V7h10z"/></symbol><symbol id="hd-icon-ic-baseline-menu" viewBox="0 0 24 24"><path fill="currentColor" d="M3 18h18v-2H3zm0-5h18v-2H3zm0-7v2h18V6z"/></symbol><symbol id="hd-icon-ic-baseline-menu-book" viewBox="0 0 24 24"><path fill="currentColor" d="M21 5c-1.11-.35-2.33-.5-3.5-.5c-1.95 0-4.05.4-5.5 1.5c-1.45-1.1-3.55-1.5-5.5-1.5S2.45 4.9 1 6v14.65c0 .25.25.5.5.5c.1 0 .15-.05.25-.05C3.1 20.45 5.05 20 6.5 20c1.95 0 4.05.4 5.5 1.5c1.35-.85 3.8-1.5 5.5-1.5c1.65 0 3.35.3 4.75 1.05c.1.05.15.05.25.05c.25 0 .5-.25.5-.5V6c-.6-.45-1.25-.75-2-1m0 13.5c-1.1-.35-2.3-.5-3.5-.5c-1.7 0-4.15.65-5.5 1.5V8c1.35-.85 3.8-1.5 5.5-1.5c1.2 0 2.4.15 3.5.5z"/><path fill="currentColor" d="M17.5 10.5c.88 0 1.73.09 2.5.26V9.24c-.79-.15-1.64-.24-2.5-.24c-1.7 0-3.24.29-4.5.83v1.66c1.13-.64 2.7-.99 4.5-.99M13 12.49v1.66c1.13-.64 2.7-.99 4.5-.99c.88 0 1.73.09 2.5.26V11.9c-.79-.15-1.64-.24-2.5-.24c-1.7 0-3.24.3-4.5.83m4.5 1.84c-1.7 0-3.24.29-4.5.83v1.66c1.13-.64 2.7-.99 4.5-.99c.88 0 1.73.09 2.5.26v-1.52c-.79-.16-1.64-.24-2.5-.24"/></symbol><symbol id="hd-icon-ic-baseline-menu-open" viewBox="0 0 24 24"><path fill="currentColor" d="M3 18h13v-2H3zm0-5h10v-2H3zm0-7v2h13V6zm18 9.59L17.42 12L21 8.41L19.59 7l-5 5l5 5z"/></symbol><symbol id="hd-icon-ic-baseline-merge" viewBox="0 0 24 24"><path fill="currentColor" d="M6.41 21L5 19.59l4.83-4.83c.75-.75 1.17-1.77 1.17-2.83v-5.1L9.41 8.41L8 7l4-4l4 4l-1.41 1.41L13 6.83v5.1c0 1.06.42 2.08 1.17 2.83L19 19.59L17.59 21L12 15.41z"/></symbol><symbol id="hd-icon-ic-baseline-merge-type" viewBox="0 0 24 24"><path fill="currentColor" d="M17 20.41L18.41 19L15 15.59L13.59 17zM7.5 8H11v5.59L5.59 19L7 20.41l6-6V8h3.5L12 3.5z"/></symbol><symbol id="hd-icon-ic-baseline-message" viewBox="0 0 24 24"><path fill="currentColor" d="M20 2H4c-1.1 0-1.99.9-1.99 2L2 22l4-4h14c1.1 0 2-.9 2-2V4c0-1.1-.9-2-2-2m-2 12H6v-2h12zm0-3H6V9h12zm0-3H6V6h12z"/></symbol><symbol id="hd-icon-ic-baseline-mic" viewBox="0 0 24 24"><path fill="currentColor" d="M12 14c1.66 0 2.99-1.34 2.99-3L15 5c0-1.66-1.34-3-3-3S9 3.34 9 5v6c0 1.66 1.34 3 3 3m5.3-3c0 3-2.54 5.1-5.3 5.1S6.7 14 6.7 11H5c0 3.41 2.72 6.23 6 6.72V21h2v-3.28c3.28-.48 6-3.3 6-6.72z"/></symbol></svg>