<svg xmlns="http://www.w3.org/2000/svg" xmlns:xlink="http://www.w3.org/1999/xlink"><symbol id="hd-icon-ic-round-rounded-corner" viewBox="0 0 24 24"><path fill="currentColor" d="M19 19h2v2h-2zm0-2h2v-2h-2zM3 13h2v-2H3zm0 4h2v-2H3zm0-8h2V7H3zm0-4h2V3H3zm4 0h2V3H7zm8 16h2v-2h-2zm-4 0h2v-2h-2zm4 0h2v-2h-2zm-8 0h2v-2H7zm-4 0h2v-2H3zM21 8c0-2.76-2.24-5-5-5h-5v2h5c1.65 0 3 1.35 3 3v5h2z"/></symbol><symbol id="hd-icon-ic-round-route" viewBox="0 0 24 24"><path fill="currentColor" d="M19 15.18V7c0-2.21-1.79-4-4-4s-4 1.79-4 4v10c0 1.1-.9 2-2 2s-2-.9-2-2V8.82C8.16 8.4 9 7.3 9 6c0-1.66-1.34-3-3-3S3 4.34 3 6c0 1.3.84 2.4 2 2.82V17c0 2.21 1.79 4 4 4s4-1.79 4-4V7c0-1.1.9-2 2-2s2 .9 2 2v8.18A2.996 2.996 0 0 0 18 21c1.66 0 3-1.34 3-3c0-1.3-.84-2.4-2-2.82"/></symbol><symbol id="hd-icon-ic-round-router" viewBox="0 0 24 24"><path fill="currentColor" d="M11.45 5.55c.19.19.5.21.72.04C13.3 4.69 14.65 4.2 16 4.2s2.7.49 3.84 1.39c.21.17.52.15.72-.04l.04-.05a.55.55 0 0 0-.03-.8C19.24 3.57 17.62 3 16 3s-3.24.57-4.57 1.7c-.24.21-.26.57-.03.8zm1.7.76c-.25.2-.26.58-.04.8l.04.04c.2.2.5.2.72.04c.63-.48 1.38-.69 2.13-.69s1.5.21 2.13.68c.22.17.53.16.72-.04l.04-.04c.23-.23.21-.6-.04-.8c-.83-.64-1.84-1-2.85-1s-2.02.36-2.85 1.01M19 13h-2v-3c0-.55-.45-1-1-1s-1 .45-1 1v3H5c-1.1 0-2 .9-2 2v4c0 1.1.9 2 2 2h14c1.1 0 2-.9 2-2v-4c0-1.1-.9-2-2-2M8 18H6v-2h2zm3.5 0h-2v-2h2zm3.5 0h-2v-2h2z"/></symbol><symbol id="hd-icon-ic-round-rowing" viewBox="0 0 24 24"><path fill="currentColor" d="M4.75 18.25c-.41.41-.41 1.09 0 1.5s1.09.41 1.5 0L9 17h2l-2.5-2.5zM15 5c1.1 0 2-.9 2-2s-.9-2-2-2s-2 .9-2 2s.9 2 2 2m5.29 15.3l-2-2.01c-.18-.18-.44-.29-.71-.29H16.5l-6.29-6.29a9.8 9.8 0 0 0 2.29-1.39v2.27l3.58 3.58c.57-.55.92-1.32.92-2.16V8.26A2.27 2.27 0 0 0 14.74 6h-.02c-.34 0-.67.09-.96.23c-.26.12-.5.29-.69.5l-1.4 1.55C10.61 9.45 8.66 10.35 7 10.32c-.6 0-1.08.48-1.08 1.08S6.4 12.48 7 12.48c.31 0 .61-.03.9-.07l7.11 7.09v1.08c0 .26.1.52.29.7l1.99 2.01c.39.39 1.02.39 1.42 0l1.58-1.58a.996.996 0 0 0 0-1.41"/></symbol><symbol id="hd-icon-ic-round-rss-feed" viewBox="0 0 24 24"><circle cx="6.18" cy="17.82" r="2.18" fill="currentColor"/><path fill="currentColor" d="M5.59 10.23c-.84-.14-1.59.55-1.59 1.4c0 .71.53 1.28 1.23 1.4c2.92.51 5.22 2.82 5.74 5.74c.12.7.69 1.23 1.4 1.23c.85 0 1.54-.75 1.41-1.59a9.89 9.89 0 0 0-8.19-8.18m-.03-5.71C4.73 4.43 4 5.1 4 5.93c0 .73.55 1.33 1.27 1.4c6.01.6 10.79 5.38 11.39 11.39c.07.73.67 1.28 1.4 1.28c.84 0 1.5-.73 1.42-1.56c-.73-7.34-6.57-13.19-13.92-13.92"/></symbol><symbol id="hd-icon-ic-round-rsvp" viewBox="0 0 24 24"><path fill="currentColor" d="M16.54 9c.48 0 .83.46.69.92l-1.27 4.36c-.12.43-.52.72-.96.72s-.84-.29-.96-.72l-1.27-4.36c-.14-.46.21-.92.69-.92c.32 0 .6.21.69.52l.85 2.91l.85-2.91c.09-.31.37-.52.69-.52M5.1 12.9l.49 1.14c.19.45-.14.96-.63.96c-.28 0-.53-.17-.63-.42L3.65 13H2.5v1.31c0 .38-.31.69-.69.69h-.12c-.38 0-.69-.31-.69-.69V10c0-.55.45-1 1-1h2.5c.83 0 1.5.67 1.5 1.5v1c0 .6-.4 1.15-.9 1.4m-.6-2.4h-2v1h2zm17 2.5h-2v1.25c0 .41-.34.75-.75.75s-.75-.34-.75-.75V10c0-.55.45-1 1-1h2.5c.83 0 1.5.67 1.5 1.5v1c0 .83-.67 1.5-1.5 1.5m0-2.5h-2v1h2zm-10-.75c0 .41-.34.75-.75.75H8.5v.75h2c.55 0 1 .45 1 1V14c0 .55-.45 1-1 1H7.75c-.41 0-.75-.34-.75-.75s.34-.75.75-.75H10v-.75H7.75c-.41 0-.75-.34-.75-.75v-2c0-.55.45-1 1-1h2.75c.41 0 .75.34.75.75"/></symbol><symbol id="hd-icon-ic-round-rtt" viewBox="0 0 24 24"><path fill="currentColor" d="m8.76 4.69l-.61 3.89c-.12.78.48 1.49 1.28 1.49c.64 0 1.18-.46 1.28-1.09l.53-3.41h2.58L11.8 18.43h-1.24c-.63 0-1.16.46-1.26 1.08v.01c-.13.78.47 1.48 1.26 1.48h4.67c.63 0 1.17-.46 1.26-1.08v-.01a1.28 1.28 0 0 0-1.26-1.48h-.86l2-12.86h2.58l-.47 3.01c-.12.78.48 1.49 1.28 1.49h.03c.64 0 1.18-.46 1.28-1.09l.57-3.67A2 2 0 0 0 19.66 3h-8.92c-.98 0-1.82.72-1.98 1.69M8 5H4.86c-.5 0-.92.36-.99.85c-.1.6.37 1.15.99 1.15h2.83zm-.61 4H4.25c-.5 0-.92.36-.99.85c-.1.6.37 1.15.99 1.15h2.83zm.92 8H3.17c-.49 0-.91.36-.99.85c-.1.6.37 1.15.99 1.15H8zm.62-4H3.79c-.49 0-.91.36-.99.85c-.1.6.37 1.15.99 1.15h4.84z"/></symbol><symbol id="hd-icon-ic-round-rule" viewBox="0 0 24 24"><path fill="currentColor" d="m15.83 10.29l-2.12-2.12a.996.996 0 1 1 1.41-1.41l1.41 1.41l3.54-3.54a.996.996 0 1 1 1.41 1.41l-4.24 4.24c-.39.4-1.02.4-1.41.01M10 7H3c-.55 0-1 .45-1 1s.45 1 1 1h7c.55 0 1-.45 1-1s-.45-1-1-1m10.29 5.71a.996.996 0 0 0-1.41 0L17 14.59l-1.88-1.88a.996.996 0 1 0-1.41 1.41L15.59 16l-1.88 1.88a.996.996 0 1 0 1.41 1.41L17 17.41l1.88 1.88a.996.996 0 1 0 1.41-1.41L18.41 16l1.88-1.88a.996.996 0 0 0 0-1.41M10 15H3c-.55 0-1 .45-1 1s.45 1 1 1h7c.55 0 1-.45 1-1s-.45-1-1-1"/></symbol><symbol id="hd-icon-ic-round-rule-folder" viewBox="0 0 24 24"><path fill="currentColor" d="M20 6h-8l-1.41-1.41C10.21 4.21 9.7 4 9.17 4H4c-1.1 0-1.99.9-1.99 2L2 18c0 1.1.9 2 2 2h16c1.1 0 2-.9 2-2V8c0-1.1-.9-2-2-2M7.12 15.29l-1.41-1.41a.996.996 0 1 1 1.41-1.41l.71.71l2.83-2.83a.996.996 0 1 1 1.41 1.41L8.53 15.3c-.39.38-1.02.38-1.41-.01M17.41 13l.88.88a.996.996 0 1 1-1.41 1.41l-.88-.88l-.88.88a.996.996 0 1 1-1.41-1.41l.88-.88l-.88-.88a.996.996 0 1 1 1.41-1.41l.88.88l.88-.88a.996.996 0 1 1 1.41 1.41z"/></symbol><symbol id="hd-icon-ic-round-run-circle" viewBox="0 0 24 24"><path fill="currentColor" d="M12 2C6.48 2 2 6.48 2 12s4.48 10 10 10s10-4.48 10-10S17.52 2 12 2m1.5 4c.55 0 1 .45 1 1s-.45 1-1 1s-1-.45-1-1s.45-1 1-1m1.91 5.91c-.71-.2-1.63-.74-2.32-1.66l-.41 2.35l1.19 1.3c.08.08.13.2.13.32v3.28c0 .28-.22.5-.5.5s-.5-.22-.5-.5v-3.08l-1.11-1.21l-.43 2.15c-.05.27-.32.45-.59.39l-2.78-.57a.5.5 0 0 1-.39-.59c.06-.27.32-.44.59-.39l2.29.47l.96-4.89l-1.54.57v1.15c0 .28-.22.5-.5.5s-.5-.22-.5-.5V10c0-.21.13-.4.33-.47l2.95-1.09a1 1 0 0 1 1.25.51c.65 1.35 1.55 1.85 2.1 2c.22.05.37.23.37.45v.04c0 .31-.29.55-.59.47"/></symbol><symbol id="hd-icon-ic-round-running-with-errors" viewBox="0 0 24 24"><path fill="currentColor" d="M21 18c-.55 0-1-.45-1-1v-6c0-.55.45-1 1-1s1 .45 1 1v6c0 .55-.45 1-1 1m0 2c-.55 0-1 .45-1 1s.45 1 1 1s1-.45 1-1s-.45-1-1-1m-3-2.71A8 8 0 0 1 12 20c-4.41 0-8-3.59-8-8s3.59-8 8-8v9l7.55-7.55A9.97 9.97 0 0 0 12 2C6.48 2 2 6.48 2 12s4.48 10 10 10c2.25 0 4.33-.74 6-2z"/></symbol><symbol id="hd-icon-ic-round-rv-hookup" viewBox="0 0 24 24"><path fill="currentColor" d="M21 17h-1v-6c0-1.1-.9-2-2-2H7v-.74c0-.46-.56-.7-.89-.37L4.37 9.63c-.2.2-.2.53 0 .74l1.74 1.74c.33.33.89.1.89-.37V11h4v3H5c-.55 0-1 .45-1 1v2c0 1.1.9 2 2 2h2c0 1.66 1.34 3 3 3s3-1.34 3-3h7c.55 0 1-.45 1-1s-.45-1-1-1m-10 3c-.55 0-1-.45-1-1s.45-1 1-1s1 .45 1 1s-.45 1-1 1m7-6h-4v-3h3c.55 0 1 .45 1 1zm-8-8h7v.74c0 .46.56.7.89.37l1.74-1.74c.2-.2.2-.53 0-.74l-1.74-1.74a.52.52 0 0 0-.89.37V4h-7c-.55 0-1 .45-1 1s.45 1 1 1"/></symbol><symbol id="hd-icon-ic-round-safety-check" viewBox="0 0 24 24"><path fill="currentColor" d="m11.3 2.26l-6 2.25C4.52 4.81 4 5.55 4 6.39v4.7c0 4.83 3.13 9.37 7.43 10.75c.37.12.77.12 1.14 0c4.3-1.38 7.43-5.91 7.43-10.75v-4.7a2 2 0 0 0-1.3-1.87l-6-2.25c-.45-.18-.95-.18-1.4-.01M12 17c-2.76 0-5-2.24-5-5s2.24-5 5-5s5 2.24 5 5s-2.24 5-5 5m2-3c-.2.2-.51.2-.71 0l-1.65-1.65a.5.5 0 0 1-.15-.35V9.5c.01-.28.23-.5.51-.5s.5.22.5.5v2.29l1.5 1.5c.2.2.2.51 0 .71"/></symbol><symbol id="hd-icon-ic-round-safety-divider" viewBox="0 0 24 24"><path fill="currentColor" d="M11 5h2v14h-2zm-6 7c1.1 0 2-.9 2-2s-.9-2-2-2s-2 .9-2 2s.9 2 2 2m2.78 1.58a6.95 6.95 0 0 0-5.56 0A2.01 2.01 0 0 0 1 15.43V16h8v-.57c0-.81-.48-1.53-1.22-1.85M19 12c1.1 0 2-.9 2-2s-.9-2-2-2s-2 .9-2 2s.9 2 2 2m2.78 1.58a6.95 6.95 0 0 0-5.56 0A2.01 2.01 0 0 0 15 15.43V16h8v-.57c0-.81-.48-1.53-1.22-1.85"/></symbol><symbol id="hd-icon-ic-round-sailing" viewBox="0 0 24 24"><path fill="currentColor" d="M11 13V3.59c0-.49-.63-.69-.91-.29l-6.54 9.41c-.23.33.01.79.41.79h6.54c.28 0 .5-.22.5-.5m9.99-.02C20.72 7.07 15.9 2.32 13.4 1.23c-.37-.16-.77.2-.67.59c.3 1.13.76 3.28.76 5.68c0 2.44-.49 4.39-.78 5.35c-.1.32.14.65.48.65h7.28c.29 0 .53-.24.52-.52M20.62 15H3.38c-.73 0-1.22.76-.92 1.42c.43.92 1.07 1.71 1.86 2.31c.38-.16.74-.38 1.06-.63c.35-.29.87-.29 1.23 0c.67.53 1.49.9 2.39.9s1.72-.37 2.39-.91c.35-.28.87-.28 1.22 0c.67.54 1.49.91 2.39.91s1.72-.37 2.39-.91c.35-.29.87-.28 1.23 0c.32.26.67.48 1.06.63c.79-.6 1.43-1.39 1.86-2.31c.3-.65-.19-1.41-.92-1.41M22 22c0-.55-.45-1-1-1c-.87 0-1.73-.24-2.53-.7a.95.95 0 0 0-.94 0c-1.59.9-3.47.9-5.06 0a.98.98 0 0 0-.94 0c-1.59.9-3.47.9-5.06 0a.98.98 0 0 0-.94 0c-.8.46-1.66.7-2.53.7c-.55 0-1 .45-1 1s.45 1 1 1c1.15 0 2.3-.31 3.33-.94c1.66 1.11 3.78 1.01 5.58.14a6.36 6.36 0 0 0 6.09.05c.95.5 1.97.75 3 .75c.55 0 1-.45 1-1"/></symbol><symbol id="hd-icon-ic-round-sanitizer" viewBox="0 0 24 24"><path fill="currentColor" d="M15.5 6.5c0-.56.67-1.49 1.11-2.04c.2-.25.58-.25.77 0c.44.55 1.11 1.48 1.11 2.04c.01.83-.66 1.5-1.49 1.5s-1.5-.67-1.5-1.5m4 8.5a2.5 2.5 0 0 0 2.5-2.5c0-1.25-1.41-3.16-2.11-4.04a.49.49 0 0 0-.77 0c-.71.88-2.12 2.79-2.12 4.04a2.5 2.5 0 0 0 2.5 2.5M12 14h-1v-1c0-.55-.45-1-1-1s-1 .45-1 1v1H8c-.55 0-1 .45-1 1s.45 1 1 1h1v1c0 .55.45 1 1 1s1-.45 1-1v-1h1c.55 0 1-.45 1-1s-.45-1-1-1m4-2v8c0 1.1-.9 2-2 2H6c-1.1 0-2-.9-2-2v-8c0-2.97 2.16-5.43 5-5.91V4H8c-.55 0-1-.45-1-1s.45-1 1-1h5c.61 0 1.19.11 1.72.31c.67.25.83 1.13.33 1.64a1 1 0 0 1-1.05.23c-.32-.12-.65-.18-1-.18h-2v2.09c2.84.48 5 2.94 5 5.91"/></symbol><symbol id="hd-icon-ic-round-satellite" viewBox="0 0 24 24"><path fill="currentColor" d="M19 3H5c-1.1 0-2 .9-2 2v14c0 1.1.9 2 2 2h14c1.1 0 2-.9 2-2V5c0-1.1-.9-2-2-2M5 5h3c0 1.66-1.34 3-3 3zm0 5.91c0-.49.36-.9.85-.98c2.08-.36 3.72-2 4.08-4.08c.08-.49.49-.85.98-.85c.61 0 1.09.53 1 1.13a7 7 0 0 1-5.77 5.78c-.6.1-1.14-.39-1.14-1m.63 6.28l2.49-3.2a.5.5 0 0 1 .78-.01l2.1 2.53l3.1-3.99c.2-.26.6-.26.8.01l3.51 4.68a.5.5 0 0 1-.4.8H6.02c-.41-.01-.65-.49-.39-.82"/></symbol><symbol id="hd-icon-ic-round-satellite-alt" viewBox="0 0 24 24"><path fill="currentColor" d="M20.95 14.88a6.985 6.985 0 0 1-6.07 6.07a.995.995 0 0 0-.87 1.11c.07.55.57.94 1.12.87c4.09-.51 7.3-3.72 7.81-7.81c.06-.55-.33-1.05-.88-1.11a.987.987 0 0 0-1.11.87m-2.11.38a1 1 0 0 0-.72-1.22a.996.996 0 0 0-1.22.72a3 3 0 0 1-2.15 2.15a1.003 1.003 0 0 0-.72 1.22c.14.53.69.85 1.22.72a5.02 5.02 0 0 0 3.59-3.59M21.8 4.12L18.26.58c-.78-.78-2.05-.78-2.83 0l-3.18 3.18c-.78.78-.78 2.05 0 2.83l1.24 1.24l-.71.71l-1.23-1.24c-.78-.78-2.05-.78-2.83 0L7.3 8.72c-.78.78-.78 2.05 0 2.83l1.24 1.24l-.71.71l-1.23-1.25c-.78-.78-2.05-.78-2.83 0L.59 15.43c-.78.78-.78 2.05 0 2.83l3.54 3.54c.78.78 2.05.78 2.83 0l3.18-3.18c.78-.78.78-2.05 0-2.83L8.9 14.55l.71-.71l1.24 1.24c.78.78 2.05.78 2.83 0l1.41-1.41c.78-.78.78-2.05 0-2.83L13.84 9.6l.71-.71l1.24 1.24c.78.78 2.05.78 2.83 0l3.18-3.18c.78-.78.78-2.05 0-2.83M5.54 20.38L2 16.85l1.06-1.06l3.54 3.54zm2.12-2.12l-3.54-3.54l1.06-1.06l3.54 3.54zm9.54-9.54l-3.54-3.54l1.06-1.06l3.54 3.54zm2.12-2.12l-3.54-3.54L16.85 2l3.54 3.54z"/></symbol><symbol id="hd-icon-ic-round-save" viewBox="0 0 24 24"><path fill="currentColor" d="M17.59 3.59c-.38-.38-.89-.59-1.42-.59H5a2 2 0 0 0-2 2v14c0 1.1.9 2 2 2h14c1.1 0 2-.9 2-2V7.83c0-.53-.21-1.04-.59-1.41zM12 19c-1.66 0-3-1.34-3-3s1.34-3 3-3s3 1.34 3 3s-1.34 3-3 3m1-10H7c-1.1 0-2-.9-2-2s.9-2 2-2h6c1.1 0 2 .9 2 2s-.9 2-2 2"/></symbol><symbol id="hd-icon-ic-round-save-all" viewBox="0 0 24 24"><path fill="currentColor" fill-rule="evenodd" d="M17 6H8a2 2 0 0 0-2 2v11a2 2 0 0 0 2 2h11c1.1 0 2-.9 2-2v-9zM8 9.5A1.5 1.5 0 0 1 9.5 8h4a1.5 1.5 0 0 1 0 3h-4A1.5 1.5 0 0 1 8 9.5m5.5 9.5a2.5 2.5 0 1 0 0-5a2.5 2.5 0 0 0 0 5" clip-rule="evenodd"/><path fill="currentColor" d="M2 4a2 2 0 0 1 2-2h9a1 1 0 1 1 0 2H5a1 1 0 0 0-1 1v8a1 1 0 1 1-2 0z"/></symbol><symbol id="hd-icon-ic-round-save-alt" viewBox="0 0 24 24"><path fill="currentColor" d="M19 13v5c0 .55-.45 1-1 1H6c-.55 0-1-.45-1-1v-5c0-.55-.45-1-1-1s-1 .45-1 1v6c0 1.1.9 2 2 2h14c1.1 0 2-.9 2-2v-6c0-.55-.45-1-1-1s-1 .45-1 1m-6-.33l1.88-1.88a.996.996 0 1 1 1.41 1.41l-3.59 3.59a.996.996 0 0 1-1.41 0L7.7 12.2a.996.996 0 1 1 1.41-1.41L11 12.67V4c0-.55.45-1 1-1s1 .45 1 1z"/></symbol><symbol id="hd-icon-ic-round-save-as" viewBox="0 0 24 24"><path fill="currentColor" d="m20.41 6.41l-2.83-2.83c-.37-.37-.88-.58-1.41-.58H5c-1.1 0-2 .9-2 2v14c0 1.1.9 2 2 2h7.4l8.6-8.6V7.83c0-.53-.21-1.04-.59-1.42M12 18c-1.66 0-3-1.34-3-3s1.34-3 3-3s3 1.34 3 3s-1.34 3-3 3m3-9c0 .55-.45 1-1 1H7c-.55 0-1-.45-1-1V7c0-.55.45-1 1-1h7c.55 0 1 .45 1 1zm4.99 7.25l1.77 1.77l-4.84 4.84c-.1.09-.23.14-.36.14H15.5c-.28 0-.5-.22-.5-.5v-1.06c0-.13.05-.26.15-.35zm3.26.26l-.85.85l-1.77-1.77l.85-.85c.2-.2.51-.2.71 0l1.06 1.06c.2.2.2.52 0 .71"/></symbol><symbol id="hd-icon-ic-round-saved-search" viewBox="0 0 24 24"><path fill="currentColor" d="M14.73 13.31c1.13-1.55 1.63-3.58.98-5.74c-.68-2.23-2.57-3.98-4.85-4.44a6.52 6.52 0 0 0-7.72 7.73c.46 2.29 2.21 4.18 4.44 4.85c2.16.65 4.19.15 5.74-.98l5.56 5.56a.996.996 0 1 0 1.41-1.41zM9.5 14C7.01 14 5 11.99 5 9.5S7.01 5 9.5 5S14 7.01 14 9.5S11.99 14 9.5 14"/><path fill="currentColor" d="M10.29 8.44L9.5 6l-.79 2.44H6.25l2.01 1.59l-.77 2.47l2.01-1.53l2.01 1.53l-.77-2.47l2.01-1.59z"/></symbol><symbol id="hd-icon-ic-round-savings" viewBox="0 0 24 24"><path fill="currentColor" d="m19.83 7.5l-2.27-2.27c.07-.42.18-.81.32-1.15c.11-.26.15-.56.09-.87c-.13-.72-.83-1.22-1.57-1.21c-1.59.03-3 .81-3.9 2h-5C4.46 4 2 6.46 2 9.5c0 2.25 1.37 7.48 2.08 10.04c.24.86 1.03 1.46 1.93 1.46H8c1.1 0 2-.9 2-2h2c0 1.1.9 2 2 2h2.01c.88 0 1.66-.58 1.92-1.43l1.25-4.16l2.14-.72a1 1 0 0 0 .68-.95V8.5c0-.55-.45-1-1-1zM12 9H9c-.55 0-1-.45-1-1s.45-1 1-1h3c.55 0 1 .45 1 1s-.45 1-1 1m4 2c-.55 0-1-.45-1-1s.45-1 1-1s1 .45 1 1s-.45 1-1 1"/></symbol><symbol id="hd-icon-ic-round-scale" viewBox="0 0 24 24"><path fill="currentColor" d="M16 21c0 .55.45 1 1 1h3.43c.87 0 1.58-.75 1.5-1.62c-.59-6.2-4.53-8.7-7.93-9.38V8c3.31-.42 6.03-1.86 7.27-3.73c.65-.97-.12-2.27-1.29-2.27H4.02C2.85 2 2.08 3.3 2.73 4.27C3.97 6.14 6.69 7.58 10 8v3c-3.4.68-7.34 3.18-7.93 9.38c-.08.87.63 1.62 1.5 1.62H7c.55 0 1-.45 1-1s-.45-1-1-1H4.13c.93-6.83 6.65-7.2 7.87-7.2s6.94.37 7.87 7.2H17c-.55 0-1 .45-1 1m-4.5.94c-.7-.17-1.27-.74-1.44-1.44c-.18-.74.06-1.44.53-1.91c.55-.55 2.91-1.57 4.33-2.15c.41-.17.82.24.65.65c-.58 1.42-1.6 3.78-2.15 4.33c-.47.46-1.17.7-1.92.52"/></symbol><symbol id="hd-icon-ic-round-scanner" viewBox="0 0 24 24"><path fill="currentColor" d="M19.8 10.7L5.15 5.35c-.52-.19-1.1.08-1.3.6c-.19.53.08 1.11.6 1.3L17.6 12H5c-1.1 0-2 .9-2 2v4c0 1.1.9 2 2 2h14c1.1 0 2-.9 2-2v-5.5c0-.8-.5-1.6-1.2-1.8M7 17H5v-2h2zm11 0h-8c-.55 0-1-.45-1-1s.45-1 1-1h8c.55 0 1 .45 1 1s-.45 1-1 1"/></symbol><symbol id="hd-icon-ic-round-scatter-plot" viewBox="0 0 24 24"><circle cx="7" cy="14" r="3" fill="currentColor"/><circle cx="11" cy="6" r="3" fill="currentColor"/><circle cx="16.6" cy="17.6" r="3" fill="currentColor"/></symbol><symbol id="hd-icon-ic-round-schedule" viewBox="0 0 24 24"><path fill="currentColor" d="M11.99 2C6.47 2 2 6.48 2 12s4.47 10 9.99 10C17.52 22 22 17.52 22 12S17.52 2 11.99 2M12 20c-4.42 0-8-3.58-8-8s3.58-8 8-8s8 3.58 8 8s-3.58 8-8 8m-.22-13h-.06c-.4 0-.72.32-.72.72v4.72c0 .35.18.68.49.86l4.15 2.49c.34.2.78.1.98-.24a.71.71 0 0 0-.25-.99l-3.87-2.3V7.72c0-.4-.32-.72-.72-.72"/></symbol><symbol id="hd-icon-ic-round-schedule-send" viewBox="0 0 24 24"><path fill="currentColor" d="M17 10c.1 0 .19.01.28.01L4.39 4.58C3.73 4.31 3 4.79 3 5.51v3.71c0 .46.31.86.76.97L11 12l-7.24 1.81c-.45.11-.76.51-.76.97v3.71c0 .72.73 1.2 1.39.92L10 17.05V17c0-3.86 3.14-7 7-7"/><path fill="currentColor" d="M17 12c-2.76 0-5 2.24-5 5s2.24 5 5 5s5-2.24 5-5s-2.24-5-5-5m1.29 7l-1.65-1.65a.5.5 0 0 1-.15-.35v-2.5c0-.28.22-.5.5-.5s.5.22.5.5v2.29l1.5 1.5c.2.2.2.51 0 .71c-.19.2-.5.2-.7 0"/></symbol><symbol id="hd-icon-ic-round-schema" viewBox="0 0 24 24"><path fill="currentColor" d="M14 10.5v.5h-3v-.5c0-.83-.67-1.5-1.5-1.5h-1V7h1c.83 0 1.5-.67 1.5-1.5v-3c0-.83-.67-1.5-1.5-1.5h-4C4.67 1 4 1.67 4 2.5v3C4 6.33 4.67 7 5.5 7h1v2h-1C4.67 9 4 9.67 4 10.5v3c0 .83.67 1.5 1.5 1.5h1v2h-1c-.83 0-1.5.67-1.5 1.5v3c0 .83.67 1.5 1.5 1.5h4c.83 0 1.5-.67 1.5-1.5v-3c0-.83-.67-1.5-1.5-1.5h-1v-2h1c.83 0 1.5-.67 1.5-1.5V13h3v.5c0 .83.67 1.5 1.5 1.5h4c.83 0 1.5-.67 1.5-1.5v-3c0-.83-.67-1.5-1.5-1.5h-4c-.83 0-1.5.67-1.5 1.5"/></symbol><symbol id="hd-icon-ic-round-school" viewBox="0 0 24 24"><path fill="currentColor" d="M5 13.18v2.81c0 .73.4 1.41 1.04 1.76l5 2.73c.6.33 1.32.33 1.92 0l5-2.73c.64-.35 1.04-1.03 1.04-1.76v-2.81l-6.04 3.3c-.6.33-1.32.33-1.92 0zm6.04-9.66l-8.43 4.6c-.69.38-.69 1.38 0 1.76l8.43 4.6c.6.33 1.32.33 1.92 0L21 10.09V16c0 .55.45 1 1 1s1-.45 1-1V9.59c0-.37-.2-.7-.52-.88l-9.52-5.19a2.04 2.04 0 0 0-1.92 0"/></symbol><symbol id="hd-icon-ic-round-science" viewBox="0 0 24 24"><path fill="currentColor" d="M20.54 17.73L15 11V5h1c.55 0 1-.45 1-1s-.45-1-1-1H8c-.55 0-1 .45-1 1s.45 1 1 1h1v6l-5.54 6.73c-.32.39-.46.83-.46 1.27c.01 1.03.82 2 2 2h14c1.19 0 2-.97 2-2c0-.44-.14-.88-.46-1.27"/></symbol><symbol id="hd-icon-ic-round-score" viewBox="0 0 24 24"><path fill="currentColor" d="M19 3H5c-1.1 0-2 .9-2 2v14c0 1.1.9 2 2 2h14c1.1 0 2-.9 2-2V5c0-1.1-.9-2-2-2m-7 2.75c0-.41.34-.75.75-.75s.75.34.75.75V8l1.79-2.69a.71.71 0 0 1 1.18.79L15.2 8l1.27 1.9c.31.47-.02 1.1-.59 1.1c-.24 0-.46-.12-.59-.31L13.5 8v2.25c0 .41-.34.75-.75.75s-.75-.34-.75-.75zm-5 2.5c0-.55.45-1 1-1h1.5V6.5H7.75c-.41 0-.75-.34-.75-.75S7.34 5 7.75 5H10c.55 0 1 .45 1 1v1.75c0 .55-.45 1-1 1H8.5v.75h1.75c.41 0 .75.34.75.75s-.34.75-.75.75H8c-.55 0-1-.45-1-1zm11.74 5.01l-5.03 5.03a.996.996 0 0 1-1.41 0L9 15l-2.49 2.49c-.56.56-1.51.16-1.51-.62c0-.23.09-.46.26-.62l3.03-3.03a.996.996 0 0 1 1.41 0L13 16.5l4.49-4.49c.56-.56 1.51-.16 1.51.62c0 .24-.09.46-.26.63"/></symbol><symbol id="hd-icon-ic-round-scoreboard" viewBox="0 0 24 24"><path fill="currentColor" d="M17.5 13.5H16v-3h1.5zM16 2c-.55 0-1 .45-1 1v1H9V3c0-.55-.45-1-1-1s-1 .45-1 1v1H4c-1.1 0-2 .9-2 2v12c0 1.1.9 2 2 2h16c1.1 0 2-.9 2-2V6c0-1.1-.9-2-2-2h-3V3c0-.55-.45-1-1-1M9.5 14.25c0 .41-.34.75-.75.75H6c-.55 0-1-.45-1-1v-1.5c0-.55.45-1 1-1h2v-1H5.75c-.41 0-.75-.34-.75-.75S5.34 9 5.75 9H8.5c.55 0 1 .45 1 1v1.5c0 .55-.45 1-1 1h-2v1h2.25c.41 0 .75.34.75.75M19 14c0 .55-.45 1-1 1h-2.5c-.55 0-1-.45-1-1v-4c0-.55.45-1 1-1H18c.55 0 1 .45 1 1zm-6.25-7.25c0 .41-.34.75-.75.75s-.75-.34-.75-.75S11.59 6 12 6s.75.34.75.75m0 3.5c0 .41-.34.75-.75.75s-.75-.34-.75-.75s.34-.75.75-.75s.75.34.75.75m0 3.5c0 .41-.34.75-.75.75s-.75-.34-.75-.75s.34-.75.75-.75s.75.34.75.75m0 3.5c0 .41-.34.75-.75.75s-.75-.34-.75-.75s.34-.75.75-.75s.75.34.75.75"/></symbol><symbol id="hd-icon-ic-round-screen-lock-landscape" viewBox="0 0 24 24"><path fill="currentColor" d="M21 5H3c-1.1 0-1.99.9-1.99 2L1 17c0 1.1.9 2 2 2h18c1.1 0 2-.9 2-2V7c0-1.1-.9-2-2-2m-3 12H6V7h12zm-4-6v-1c0-1.1-.9-2-2-2s-2 .9-2 2v1c-.55 0-1 .45-1 1v3c0 .55.45 1 1 1h4c.55 0 1-.45 1-1v-3c0-.55-.45-1-1-1m-1 0h-2v-1c0-.55.45-1 1-1s1 .45 1 1z"/></symbol><symbol id="hd-icon-ic-round-screen-lock-portrait" viewBox="0 0 24 24"><path fill="currentColor" d="M17 1H7c-1.1 0-2 .9-2 2v18c0 1.1.9 1.99 2 1.99L17 23c1.1 0 2-.9 2-2V3c0-1.1-.9-2-2-2m0 17H7V6h10z"/><path fill="currentColor" d="M14 11v-1c0-1.1-.9-2-2-2s-2 .9-2 2v1c-.55 0-1 .45-1 1v3c0 .55.45 1 1 1h4c.55 0 1-.45 1-1v-3c0-.55-.45-1-1-1m-1 0h-2v-1c0-.55.45-1 1-1s1 .45 1 1z"/></symbol><symbol id="hd-icon-ic-round-screen-lock-rotation" viewBox="0 0 24 24"><path fill="currentColor" d="m20.41 11.36l-.35-.35a.996.996 0 1 0-1.41 1.41l.35.35l-4.24 4.24l-7.78-7.78l4.24-4.24l.35.35a.996.996 0 1 0 1.41-1.41l-.35-.36c-.79-.79-2.03-.79-2.82 0L5.57 7.82c-.78.78-.78 2.05 0 2.83l7.78 7.78c.79.79 2.03.79 2.82 0l4.24-4.24c.79-.78.79-2.05 0-2.83m-9.56 6.49a.5.5 0 0 0-.85.36v1.53c-3.17-.82-5.59-3.54-5.95-6.86a.995.995 0 0 0-.99-.88c-.6 0-1.07.53-1 1.12C2.62 18.11 6.87 22 12 22c.59 0 1.17-.06 1.73-.16c.4-.07.55-.56.27-.85z"/><path fill="currentColor" d="M16 9h4c.55 0 1-.45 1-1V5c0-.55-.45-1-1-1v-.89c0-1-.68-1.92-1.66-2.08A2 2 0 0 0 16 3v1c-.55 0-1 .45-1 1v3c0 .55.45 1 1 1m1-6c0-.55.45-1 1-1s1 .45 1 1v1h-2z"/></symbol><symbol id="hd-icon-ic-round-screen-rotation" viewBox="0 0 24 24"><path fill="currentColor" d="M10.23 1.75a1.49 1.49 0 0 0-2.12 0L1.75 8.11a1.49 1.49 0 0 0 0 2.12l12.02 12.02c.59.59 1.54.59 2.12 0l6.36-6.36c.59-.59.59-1.54 0-2.12zm3.89 18.73L3.52 9.88a.996.996 0 0 1 0-1.41l4.95-4.95a.996.996 0 0 1 1.41 0l10.61 10.61c.39.39.39 1.02 0 1.41l-4.95 4.95c-.39.38-1.03.38-1.42-.01M17.61 1.4C16.04.57 14.06-.03 11.81.02c-.18 0-.26.22-.14.35l3.48 3.48l1.33-1.33c3.09 1.46 5.34 4.37 5.89 7.86c.06.41.44.69.86.62c.41-.06.69-.45.62-.86c-.6-3.8-2.96-7-6.24-8.74M8.85 20.16l-1.33 1.33a10.5 10.5 0 0 1-5.89-7.86a.737.737 0 0 0-.86-.62c-.41.06-.69.45-.62.86c.6 3.81 2.96 7.01 6.24 8.75c1.57.83 3.55 1.43 5.8 1.38c.18 0 .26-.22.14-.35z"/></symbol><symbol id="hd-icon-ic-round-screen-rotation-alt" viewBox="0 0 24 24"><path fill="currentColor" d="M18.53 9.29c.63.63.18 1.71-.71 1.71c-.27 0-.52-.11-.71-.29L10.4 4L5.41 9H7c.55 0 1 .45 1 1s-.45 1-1 1H3c-.55 0-1-.45-1-1V6c0-.55.45-1 1-1s1 .45 1 1v1.59l5-5c.78-.78 2.05-.78 2.83 0zM5.47 14.71c-.63-.63-.18-1.71.71-1.71c.27 0 .52.11.71.29L13.6 20l4.99-5H17c-.55 0-1-.45-1-1s.45-1 1-1h4c.55 0 1 .45 1 1v4c0 .55-.45 1-1 1s-1-.45-1-1v-1.59l-5 5c-.78.78-2.05.78-2.83 0z"/></symbol><symbol id="hd-icon-ic-round-screen-search-desktop" viewBox="0 0 24 24"><path fill="currentColor" d="M22 19H2c-.55 0-1 .45-1 1s.45 1 1 1h20c.55 0 1-.45 1-1s-.45-1-1-1M4 18h16c1.1 0 1.99-.9 1.99-2L22 5c0-1.1-.9-2-2-2H4c-1.1 0-2 .9-2 2v11c0 1.1.9 2 2 2m4.59-9.95a3.497 3.497 0 0 1 5.38-.52c1.18 1.18 1.34 3 .47 4.36L16 13.44c.29.29.29.77 0 1.06s-.77.29-1.06 0l-1.55-1.55c-1.57 1-3.76.64-4.87-1.11c-.73-1.14-.69-2.67.07-3.79"/><circle cx="11.5" cy="10" r="2" fill="currentColor"/></symbol><symbol id="hd-icon-ic-round-screen-share" viewBox="0 0 24 24"><path fill="currentColor" d="M20 18c1.1 0 2-.9 2-2V6c0-1.1-.9-2-2-2H4c-1.1 0-2 .9-2 2v10a2 2 0 0 0 2 2H1c-.55 0-1 .45-1 1s.45 1 1 1h22c.55 0 1-.45 1-1s-.45-1-1-1zm-7-3.53v-2.19c-2.78 0-4.61.85-6 2.72c.56-2.67 2.11-5.33 6-5.87V7l3.61 3.36c.21.2.21.53 0 .73z"/></symbol><symbol id="hd-icon-ic-round-screenshot" viewBox="0 0 24 24"><path fill="currentColor" d="M17 1.01L7 1c-1.1 0-2 .9-2 2v18c0 1.1.9 2 2 2h10c1.1 0 2-.9 2-2V3c0-1.1-.9-1.99-2-1.99M17 18H7V6h10zM9.5 8.5h1.75c.41 0 .75-.34.75-.75S11.66 7 11.25 7h-2.5c-.41 0-.75.34-.75.75v2.5c0 .41.34.75.75.75s.75-.34.75-.75zm3.25 8.5h2.5c.41 0 .75-.34.75-.75v-2.5c0-.41-.34-.75-.75-.75s-.75.34-.75.75v1.75h-1.75c-.41 0-.75.34-.75.75s.34.75.75.75"/></symbol><symbol id="hd-icon-ic-round-screenshot-monitor" viewBox="0 0 24 24"><path fill="currentColor" d="M20 3H4c-1.1 0-2 .9-2 2v12a2 2 0 0 0 2 2h4v1c0 .55.45 1 1 1h6c.55 0 1-.45 1-1v-1h4c1.1 0 2-.9 2-2V5a2 2 0 0 0-2-2m0 14H4V5h16z"/><path fill="currentColor" d="M6.5 7.5h1.75c.41 0 .75-.34.75-.75S8.66 6 8.25 6H6c-.55 0-1 .45-1 1v2.25c0 .41.34.75.75.75s.75-.34.75-.75zM18.25 12c-.41 0-.75.34-.75.75v1.75h-1.75c-.41 0-.75.34-.75.75s.34.75.75.75H18c.55 0 1-.45 1-1v-2.25c0-.41-.34-.75-.75-.75"/></symbol><symbol id="hd-icon-ic-round-scuba-diving" viewBox="0 0 24 24"><path fill="currentColor" d="M1 13c0-1.1.9-2 2-2s2 .9 2 2s-.9 2-2 2s-2-.9-2-2m7.89-2.89l3.56-.95c.53-.14.85-.69.71-1.22l-.26-.97c-.14-.53-.69-.85-1.22-.71l-3.57.95c-.8.21-1.28 1.04-1.06 1.84s1.04 1.28 1.84 1.06m13.63-7.59a.73.73 0 0 0-1.04 0L19 5l-2 4l-9.48 2.87c-.82.2-1.39.89-1.5 1.68L5.24 18L3 21c-.33.44-.24 1.07.2 1.4s1.07.24 1.4-.2L7 19l1.14-3.14l5.57-1.77c.19-.06.38-.15.54-.27l4.2-2.94c.36-.25.62-.61.75-1.02l1.3-3.96l2.06-2.38c.25-.3.23-.73-.04-1"/></symbol><symbol id="hd-icon-ic-round-sd" viewBox="0 0 24 24"><path fill="currentColor" d="M20 4H4a2 2 0 0 0-2 2v12a2 2 0 0 0 2 2h16c1.1 0 2-.9 2-2V6c0-1.1-.9-2-2-2m-7 5h4c.55 0 1 .45 1 1v4c0 .55-.45 1-1 1h-4zm-3.5 4.5v-1H7c-.55 0-1-.45-1-1V10c0-.55.45-1 1-1h3c.55 0 1 .45 1 1v1H9.5v-.5h-2v1H10c.55 0 1 .45 1 1V14c0 .55-.45 1-1 1H7c-.55 0-1-.45-1-1v-1h1.5v.5zm5 0h2v-3h-2z"/></symbol><symbol id="hd-icon-ic-round-sd-card" viewBox="0 0 24 24"><path fill="currentColor" d="M18 2h-7.17c-.53 0-1.04.21-1.42.59L4.6 7.42c-.37.37-.6.88-.6 1.4V20c0 1.1.9 2 2 2h12c1.1 0 2-.9 2-2V4c0-1.1-.9-2-2-2m-7 6c-.55 0-1-.45-1-1V5c0-.55.45-1 1-1s1 .45 1 1v2c0 .55-.45 1-1 1m3 0c-.55 0-1-.45-1-1V5c0-.55.45-1 1-1s1 .45 1 1v2c0 .55-.45 1-1 1m3 0c-.55 0-1-.45-1-1V5c0-.55.45-1 1-1s1 .45 1 1v2c0 .55-.45 1-1 1"/></symbol><symbol id="hd-icon-ic-round-sd-card-alert" viewBox="0 0 24 24"><path fill="currentColor" d="M18 2h-7.17c-.53 0-1.04.21-1.42.59L4.6 7.42c-.37.37-.58.88-.58 1.4L4 20c0 1.1.9 2 2 2h12c1.1 0 2-.9 2-2V4c0-1.1-.9-2-2-2m-5 15h-2v-2h2zm-1-4c-.55 0-1-.45-1-1V9c0-.55.45-1 1-1s1 .45 1 1v3c0 .55-.45 1-1 1"/></symbol><symbol id="hd-icon-ic-round-sd-storage" viewBox="0 0 24 24"><path fill="currentColor" d="M18 2h-7.17c-.53 0-1.04.21-1.42.59L4.6 7.42c-.37.37-.6.88-.6 1.4V20c0 1.1.9 2 2 2h12c1.1 0 2-.9 2-2V4c0-1.1-.9-2-2-2m-7 6c-.55 0-1-.45-1-1V5c0-.55.45-1 1-1s1 .45 1 1v2c0 .55-.45 1-1 1m3 0c-.55 0-1-.45-1-1V5c0-.55.45-1 1-1s1 .45 1 1v2c0 .55-.45 1-1 1m3 0c-.55 0-1-.45-1-1V5c0-.55.45-1 1-1s1 .45 1 1v2c0 .55-.45 1-1 1"/></symbol><symbol id="hd-icon-ic-round-search" viewBox="0 0 24 24"><path fill="currentColor" d="M15.5 14h-.79l-.28-.27a6.5 6.5 0 0 0 1.48-5.34c-.47-2.78-2.79-5-5.59-5.34a6.505 6.505 0 0 0-7.27 7.27c.34 2.8 2.56 5.12 5.34 5.59a6.5 6.5 0 0 0 5.34-1.48l.27.28v.79l4.25 4.25c.41.41 1.08.41 1.49 0s.41-1.08 0-1.49zm-6 0C7.01 14 5 11.99 5 9.5S7.01 5 9.5 5S14 7.01 14 9.5S11.99 14 9.5 14"/></symbol><symbol id="hd-icon-ic-round-search-off" viewBox="0 0 24 24"><path fill="currentColor" d="M15.5 14h-.79l-.28-.27a6.5 6.5 0 0 0 1.48-5.34c-.47-2.78-2.79-4.99-5.58-5.34A6.49 6.49 0 0 0 3.03 9h2.02c.24-2.12 1.92-3.8 4.06-3.98C11.65 4.8 14 6.95 14 9.5c0 2.49-2.01 4.5-4.5 4.5c-.17 0-.33-.03-.5-.05v2.02l.01.01c1.8.13 3.47-.47 4.72-1.55l.27.28v.79l4.25 4.25c.41.41 1.08.41 1.49 0s.41-1.08 0-1.49z"/><path fill="currentColor" d="M6.12 11.17L4 13.29l-2.12-2.12c-.2-.2-.51-.2-.71 0s-.2.51 0 .71L3.29 14l-2.12 2.12c-.2.2-.2.51 0 .71s.51.2.71 0L4 14.71l2.12 2.12c.2.2.51.2.71 0s.2-.51 0-.71L4.71 14l2.12-2.12c.2-.2.2-.51 0-.71a.513.513 0 0 0-.71 0"/></symbol><symbol id="hd-icon-ic-round-security" viewBox="0 0 24 24"><path fill="currentColor" d="m11.19 1.36l-7 3.11C3.47 4.79 3 5.51 3 6.3V11c0 5.55 3.84 10.74 9 12c5.16-1.26 9-6.45 9-12V6.3c0-.79-.47-1.51-1.19-1.83l-7-3.11c-.51-.23-1.11-.23-1.62 0M12 11.99h7c-.53 4.12-3.28 7.79-7 8.94V12H5V6.3l7-3.11z"/></symbol><symbol id="hd-icon-ic-round-security-update" viewBox="0 0 24 24"><path fill="currentColor" d="M17 1.01L7 1c-1.1 0-2 .9-2 2v18c0 1.1.9 2 2 2h10c1.1 0 2-.9 2-2V3c0-1.1-.9-1.99-2-1.99M17 18H7V6h10zm-2.21-5.79H13V9c0-.55-.45-1-1-1s-1 .45-1 1v3.21H9.21c-.45 0-.67.54-.35.85l2.79 2.79c.2.2.51.2.71 0l2.79-2.79a.5.5 0 0 0-.36-.85"/></symbol><symbol id="hd-icon-ic-round-security-update-good" viewBox="0 0 24 24"><path fill="currentColor" d="M17 1.01L7 1c-1.1 0-2 .9-2 2v18c0 1.1.9 2 2 2h10c1.1 0 2-.9 2-2V3c0-1.1-.9-1.99-2-1.99M17 18H7V6h10zm-6.66-3.71c.39.39 1.02.39 1.41 0l3.54-3.54a.996.996 0 1 0-1.41-1.41l-2.83 2.83l-.71-.71a.996.996 0 1 0-1.41 1.41z"/></symbol><symbol id="hd-icon-ic-round-security-update-warning" viewBox="0 0 24 24"><circle cx="12" cy="16" r="1" fill="currentColor"/><path fill="currentColor" d="M12 13c.55 0 1-.45 1-1V8c0-.55-.45-1-1-1s-1 .45-1 1v4c0 .55.45 1 1 1"/><path fill="currentColor" d="M17 1H7c-1.1 0-1.99.9-1.99 2v18c0 1.1.89 2 1.99 2h10c1.1 0 2-.9 2-2V3c0-1.1-.9-2-2-2m0 17H7V6h10z"/></symbol><symbol id="hd-icon-ic-round-segment" viewBox="0 0 24 24"><path fill="currentColor" d="M10 18h10c.55 0 1-.45 1-1s-.45-1-1-1H10c-.55 0-1 .45-1 1s.45 1 1 1M3 7c0 .55.45 1 1 1h16c.55 0 1-.45 1-1s-.45-1-1-1H4c-.55 0-1 .45-1 1m7 6h10c.55 0 1-.45 1-1s-.45-1-1-1H10c-.55 0-1 .45-1 1s.45 1 1 1"/></symbol><symbol id="hd-icon-ic-round-select-all" viewBox="0 0 24 24"><path fill="currentColor" d="M3 5h2V3c-1.1 0-2 .9-2 2m0 8h2v-2H3zm4 8h2v-2H7zM3 9h2V7H3zm10-6h-2v2h2zm6 0v2h2c0-1.1-.9-2-2-2M5 21v-2H3c0 1.1.9 2 2 2m-2-4h2v-2H3zM9 3H7v2h2zm2 18h2v-2h-2zm8-8h2v-2h-2zm0 8c1.1 0 2-.9 2-2h-2zm0-12h2V7h-2zm0 8h2v-2h-2zm-4 4h2v-2h-2zm0-16h2V3h-2zM8 17h8c.55 0 1-.45 1-1V8c0-.55-.45-1-1-1H8c-.55 0-1 .45-1 1v8c0 .55.45 1 1 1m1-8h6v6H9z"/></symbol><symbol id="hd-icon-ic-round-self-improvement" viewBox="0 0 24 24"><circle cx="12" cy="6" r="2" fill="currentColor"/><path fill="currentColor" d="M21 14.94c0-.5-.36-.93-.85-.98c-1.88-.21-3.49-1.13-4.75-2.63l-1.34-1.6c-.38-.47-.94-.73-1.53-.73h-1.05c-.59 0-1.15.26-1.53.72l-1.34 1.6c-1.25 1.5-2.87 2.42-4.75 2.63c-.5.06-.86.49-.86.99c0 .6.53 1.07 1.13 1c2.3-.27 4.32-1.39 5.87-3.19V15l-3.76 1.5c-.65.26-1.16.83-1.23 1.53A1.79 1.79 0 0 0 6.79 20H9v-.5a2.5 2.5 0 0 1 2.5-2.5h3c.28 0 .5.22.5.5s-.22.5-.5.5h-3c-.83 0-1.5.67-1.5 1.5v.5h7.1c.85 0 1.65-.54 1.85-1.37c.21-.89-.27-1.76-1.08-2.08L14 15v-2.25c1.56 1.8 3.57 2.91 5.87 3.19c.6.06 1.13-.4 1.13-1"/></symbol><symbol id="hd-icon-ic-round-sell" viewBox="0 0 24 24"><path fill="currentColor" d="m21.41 11.41l-8.83-8.83c-.37-.37-.88-.58-1.41-.58H4c-1.1 0-2 .9-2 2v7.17c0 .53.21 1.04.59 1.41l8.83 8.83c.78.78 2.05.78 2.83 0l7.17-7.17c.78-.78.78-2.04-.01-2.83M6.5 8C5.67 8 5 7.33 5 6.5S5.67 5 6.5 5S8 5.67 8 6.5S7.33 8 6.5 8"/></symbol><symbol id="hd-icon-ic-round-send" viewBox="0 0 24 24"><path fill="currentColor" d="m3.4 20.4l17.45-7.48a1 1 0 0 0 0-1.84L3.4 3.6a.993.993 0 0 0-1.39.91L2 9.12c0 .5.37.93.87.99L17 12L2.87 13.88c-.5.07-.87.5-.87 1l.01 4.61c0 .71.73 1.2 1.39.91"/></symbol><symbol id="hd-icon-ic-round-send-and-archive" viewBox="0 0 24 24"><path fill="currentColor" d="M17 12c-2.76 0-5 2.24-5 5s2.24 5 5 5s5-2.24 5-5s-2.24-5-5-5m2.15 5.85l-1.79 1.79c-.2.2-.51.2-.71 0l-1.79-1.79c-.32-.31-.1-.85.35-.85h1.29v-2.5c0-.28.22-.5.5-.5s.5.22.5.5V17h1.29a.5.5 0 0 1 .36.85"/><path fill="currentColor" d="M17 10c.1 0 .19.01.28.01L3 4v6l8 2l-8 2v6l7-2.95V17c0-3.87 3.13-7 7-7"/></symbol><symbol id="hd-icon-ic-round-send-time-extension" viewBox="0 0 24 24"><path fill="currentColor" d="M20 6c0-1.1-.9-2-2-2h-4a2.5 2.5 0 0 0-5 0H5.01c-1.1 0-2 .9-2 2v3.8C5.7 9.8 6 11.96 6 12.5s-.29 2.7-3 2.7V19c0 1.1.9 2 2 2h3.8c0-2.16 1.37-2.78 2.2-2.94v-9.3l9 4.5z"/><path fill="currentColor" d="M13 12v4l4 1l-4 1v4l10-5z"/></symbol><symbol id="hd-icon-ic-round-send-to-mobile" viewBox="0 0 24 24"><path fill="currentColor" d="M17 18H7V6h10c0 .55.45 1 1 1s1-.45 1-1V3c0-1.1-.9-2-2-2L7 1.01C5.9 1.01 5 1.9 5 3v18c0 1.1.9 2 2 2h10c1.1 0 2-.9 2-2v-3c0-.55-.45-1-1-1s-1 .45-1 1"/><path fill="currentColor" d="m21.65 11.65l-2.79-2.79a.501.501 0 0 0-.86.35V11h-4c-.55 0-1 .45-1 1s.45 1 1 1h4v1.79c0 .45.54.67.85.35l2.79-2.79c.2-.19.2-.51.01-.7"/></symbol><symbol id="hd-icon-ic-round-sensor-door" viewBox="0 0 24 24"><path fill="currentColor" d="M18 2H6c-1.1 0-2 .9-2 2v16c0 1.1.9 2 2 2h12c1.1 0 2-.9 2-2V4c0-1.1-.9-2-2-2m-2.5 11.5c-.83 0-1.5-.67-1.5-1.5s.67-1.5 1.5-1.5s1.5.67 1.5 1.5s-.67 1.5-1.5 1.5"/></symbol><symbol id="hd-icon-ic-round-sensor-occupied" viewBox="0 0 24 24"><path fill="currentColor" d="M12 11c1.66 0 3-1.34 3-3s-1.34-3-3-3s-3 1.34-3 3s1.34 3 3 3m0 1c-1.84 0-3.56.5-5.03 1.37c-.61.36-.97 1.02-.97 1.72V16c0 .55.45 1 1 1h10c.55 0 1-.45 1-1v-.91c0-.7-.36-1.36-.97-1.72A9.84 9.84 0 0 0 12 12m10.11-4.21c.55-.23.78-.88.5-1.41a12.1 12.1 0 0 0-4.99-4.99a1.01 1.01 0 0 0-1.4.5c-.19.47-.01 1.02.43 1.25c1.79.94 3.26 2.42 4.21 4.21c.23.45.78.63 1.25.44M7.79 1.89c-.23-.55-.88-.78-1.4-.5A12.06 12.06 0 0 0 1.4 6.38c-.28.52-.05 1.18.5 1.41a.98.98 0 0 0 1.25-.43c.94-1.79 2.42-3.26 4.21-4.21c.44-.24.62-.79.43-1.26m-5.9 14.32c-.55.23-.78.88-.5 1.4c1.13 2.12 2.87 3.87 5 5c.52.28 1.17.04 1.4-.5c.19-.47.01-1.02-.43-1.25c-1.79-.94-3.26-2.42-4.21-4.21a1 1 0 0 0-1.26-.44m14.32 5.9c.23.55.88.78 1.4.5c2.12-1.13 3.87-2.87 5-5c.28-.52.04-1.17-.5-1.4c-.47-.19-1.02-.01-1.25.43c-.94 1.79-2.42 3.26-4.21 4.21a1 1 0 0 0-.44 1.26"/></symbol><symbol id="hd-icon-ic-round-sensor-window" viewBox="0 0 24 24"><path fill="currentColor" d="M18 4v16H6V4zm0-2H6c-1.1 0-2 .9-2 2v16c0 1.1.9 2 2 2h12c1.1 0 2-.9 2-2V4c0-1.1-.9-2-2-2M7 19h10v-6H7zm3-9h4v1h3V5H7v6h3z"/></symbol><symbol id="hd-icon-ic-round-sensors" viewBox="0 0 24 24"><path fill="currentColor" d="M8.54 8.54c.35.35.37.88.1 1.29a4.01 4.01 0 0 0 0 4.34c.27.41.24.95-.11 1.29c-.43.43-1.17.4-1.51-.11A6 6 0 0 1 6 12c0-1.21.36-2.33.97-3.28c.36-.54 1.11-.64 1.57-.18m6.92 6.92c.43.43 1.17.4 1.51-.11a5.98 5.98 0 0 0 0-6.71c-.34-.5-1.08-.54-1.51-.11c-.35.35-.37.88-.11 1.29a3.99 3.99 0 0 1 .01 4.35c-.27.41-.24.95.1 1.29M12 10c-1.1 0-2 .9-2 2s.9 2 2 2s2-.9 2-2s-.9-2-2-2m6.32 8.32c.42.42 1.12.39 1.5-.08C21.18 16.53 22 14.36 22 12s-.82-4.53-2.18-6.24c-.37-.47-1.07-.5-1.5-.08c-.36.36-.4.92-.08 1.32c1.1 1.37 1.76 3.11 1.76 5s-.66 3.63-1.76 5c-.32.39-.28.96.08 1.32M5.68 5.68c-.42-.42-1.12-.39-1.5.08C2.82 7.47 2 9.64 2 12s.82 4.53 2.18 6.24c.37.47 1.07.5 1.5.08c.36-.36.4-.92.08-1.32C4.66 15.63 4 13.89 4 12s.66-3.63 1.76-5c.32-.39.28-.96-.08-1.32"/></symbol><symbol id="hd-icon-ic-round-sensors-off" viewBox="0 0 24 24"><path fill="currentColor" d="M5.68 18.32c-.42.42-1.12.39-1.5-.08A10 10 0 0 1 2 12c0-2.04.61-3.93 1.66-5.51L2.1 4.93a.996.996 0 1 1 1.41-1.41l16.97 16.97a.996.996 0 1 1-1.41 1.41L8.14 10.96c-.09.33-.14.68-.14 1.04c0 .8.24 1.55.64 2.17c.27.41.24.94-.1 1.29c-.43.43-1.17.4-1.51-.11A5.93 5.93 0 0 1 6 12c0-.93.21-1.8.58-2.59L5.11 7.94A7.9 7.9 0 0 0 4 12c0 1.89.66 3.63 1.76 5c.32.39.28.96-.08 1.32m9.78-9.78c-.35.35-.37.88-.11 1.29a3.93 3.93 0 0 1 .51 3.21l1.55 1.55a5.98 5.98 0 0 0-.44-5.95c-.34-.5-1.07-.54-1.51-.1m2.86-2.86c-.36.36-.4.92-.08 1.32A7.96 7.96 0 0 1 20 12c0 1.48-.4 2.87-1.11 4.06l1.45 1.45A9.9 9.9 0 0 0 22 12c0-2.36-.82-4.53-2.18-6.24c-.38-.47-1.08-.5-1.5-.08"/></symbol><symbol id="hd-icon-ic-round-sentiment-dissatisfied" viewBox="0 0 24 24"><circle cx="15.5" cy="9.5" r="1.5" fill="currentColor"/><circle cx="8.5" cy="9.5" r="1.5" fill="currentColor"/><path fill="currentColor" d="M11.99 2C6.47 2 2 6.48 2 12s4.47 10 9.99 10C17.52 22 22 17.52 22 12S17.52 2 11.99 2M12 20c-4.42 0-8-3.58-8-8s3.58-8 8-8s8 3.58 8 8s-3.58 8-8 8m0-6c-1.9 0-3.63.97-4.65 2.58a.747.747 0 1 0 1.27.79c.74-1.18 2-1.88 3.38-1.88s2.64.7 3.38 1.88c.14.23.39.35.64.35c.14 0 .27-.04.4-.11c.35-.22.46-.68.24-1.03C15.63 14.96 13.9 14 12 14"/></symbol><symbol id="hd-icon-ic-round-sentiment-neutral" viewBox="0 0 24 24"><path fill="currentColor" d="M9.75 15.5h4.5c.41 0 .75-.34.75-.75s-.34-.75-.75-.75h-4.5c-.41 0-.75.34-.75.75s.34.75.75.75"/><circle cx="15.5" cy="9.5" r="1.5" fill="currentColor"/><circle cx="8.5" cy="9.5" r="1.5" fill="currentColor"/><path fill="currentColor" d="M11.99 2C6.47 2 2 6.48 2 12s4.47 10 9.99 10C17.52 22 22 17.52 22 12S17.52 2 11.99 2M12 20c-4.42 0-8-3.58-8-8s3.58-8 8-8s8 3.58 8 8s-3.58 8-8 8"/></symbol><symbol id="hd-icon-ic-round-sentiment-satisfied" viewBox="0 0 24 24"><circle cx="15.5" cy="9.5" r="1.5" fill="currentColor"/><circle cx="8.5" cy="9.5" r="1.5" fill="currentColor"/><path fill="currentColor" d="M11.99 2C6.47 2 2 6.48 2 12s4.47 10 9.99 10C17.52 22 22 17.52 22 12S17.52 2 11.99 2M12 20c-4.42 0-8-3.58-8-8s3.58-8 8-8s8 3.58 8 8s-3.58 8-8 8m4.41-6.11a.745.745 0 0 0-1.03.24C14.64 15.3 13.38 16 12 16s-2.64-.7-3.38-1.88a.747.747 0 1 0-1.27.79C8.37 16.54 10.1 17.5 12 17.5s3.63-.97 4.65-2.58c.22-.35.11-.81-.24-1.03"/></symbol><symbol id="hd-icon-ic-round-sentiment-satisfied-alt" viewBox="0 0 24 24"><circle cx="15.5" cy="9.5" r="1.5" fill="currentColor"/><circle cx="8.5" cy="9.5" r="1.5" fill="currentColor"/><path fill="currentColor" d="M11.99 2C6.47 2 2 6.48 2 12s4.47 10 9.99 10C17.52 22 22 17.52 22 12S17.52 2 11.99 2M12 20c-4.42 0-8-3.58-8-8s3.58-8 8-8s8 3.58 8 8s-3.58 8-8 8m4.41-6.11a.745.745 0 0 0-1.03.24C14.64 15.3 13.38 16 12 16s-2.64-.7-3.38-1.88a.747.747 0 1 0-1.27.79C8.37 16.54 10.1 17.5 12 17.5s3.63-.97 4.65-2.58c.22-.35.11-.81-.24-1.03"/></symbol><symbol id="hd-icon-ic-round-sentiment-slightly-dissatisfied" viewBox="0 0 24 24"><circle cx="15.5" cy="9.5" r="1.5" fill="currentColor"/><circle cx="8.5" cy="9.5" r="1.5" fill="currentColor"/><path fill="currentColor" d="M11.99 2C6.47 2 2 6.48 2 12s4.47 10 9.99 10C17.52 22 22 17.52 22 12S17.52 2 11.99 2M12 20c-4.42 0-8-3.58-8-8s3.58-8 8-8s8 3.58 8 8s-3.58 8-8 8m0-3.5c.537 0 1.036.103 1.494.293c.395.14.705-.001.887-.232c.245-.31.216-.939-.287-1.143a5.5 5.5 0 0 0-4.17-.012c-.5.204-.585.838-.281 1.188c.197.227.524.315.86.194c.461-.185.96-.288 1.497-.288"/></symbol><symbol id="hd-icon-ic-round-sentiment-very-dissatisfied" viewBox="0 0 24 24"><path fill="currentColor" d="M12 13.5c-2.03 0-3.8 1.11-4.75 2.75c-.19.33.06.75.44.75h8.62c.38 0 .63-.42.44-.75A5.49 5.49 0 0 0 12 13.5m-3.65-2.03l.53-.53l.53.53c.29.29.77.29 1.06 0s.29-.77 0-1.06l-.53-.53l.53-.53c.29-.29.29-.77 0-1.06a.754.754 0 0 0-1.06 0l-.53.53l-.53-.53a.754.754 0 0 0-1.06 0c-.29.29-.29.77 0 1.06l.53.53l-.53.53c-.29.29-.29.77 0 1.06s.77.29 1.06 0M11.99 2C6.47 2 2 6.47 2 12s4.47 10 9.99 10S22 17.53 22 12S17.52 2 11.99 2M12 20c-4.42 0-8-3.58-8-8s3.58-8 8-8s8 3.58 8 8s-3.58 8-8 8m3.65-11.71l-.53.53l-.53-.53a.754.754 0 0 0-1.06 0c-.29.29-.29.77 0 1.06l.53.53l-.53.53c-.29.29-.29.77 0 1.06s.77.29 1.06 0l.53-.53l.53.53c.29.29.77.29 1.06 0s.29-.77 0-1.06l-.53-.53l.53-.53c.29-.29.29-.77 0-1.06a.754.754 0 0 0-1.06 0"/></symbol><symbol id="hd-icon-ic-round-sentiment-very-satisfied" viewBox="0 0 24 24"><path fill="currentColor" d="m8.88 9.94l.53.53c.29.29.77.29 1.06 0s.29-.77 0-1.06l-.88-.88a.996.996 0 0 0-1.41 0l-.89.88c-.29.29-.29.77 0 1.06s.77.29 1.06 0zM12 17.5c2.03 0 3.8-1.11 4.75-2.75a.503.503 0 0 0-.44-.75H7.69c-.38 0-.63.42-.44.75A5.49 5.49 0 0 0 12 17.5m1.53-7.03c.29.29.77.29 1.06 0l.53-.53l.53.53c.29.29.77.29 1.06 0s.29-.77 0-1.06l-.88-.88a.996.996 0 0 0-1.41 0l-.88.88c-.3.29-.3.77-.01 1.06M11.99 2C6.47 2 2 6.47 2 12s4.47 10 9.99 10S22 17.53 22 12S17.52 2 11.99 2M12 20c-4.42 0-8-3.58-8-8s3.58-8 8-8s8 3.58 8 8s-3.58 8-8 8"/></symbol><symbol id="hd-icon-ic-round-set-meal" viewBox="0 0 24 24"><path fill="currentColor" d="m20.3 17.6l-16.47.86c-.41.02-.77-.3-.79-.71s.3-.77.71-.79l16.48-.86c.41-.02.77.3.79.71s-.3.77-.72.79m-.05 1.88H3.75c-.41 0-.75.34-.75.75s.34.75.75.75h16.5c.41 0 .75-.34.75-.75s-.34-.75-.75-.75M22 5v7c0 1.1-.9 2-2 2H4c-1.1 0-2-.9-2-2V5c0-1.1.9-2 2-2h16c1.1 0 2 .9 2 2m-2.88 1.09c-1.25.27-2.19 1.11-2.33 2.14c-.64-.73-2.73-2.73-6.54-2.73c-3.44 0-5.48 1.63-6.31 2.49c-.28.29-.28.74 0 1.03c.83.86 2.87 2.49 6.31 2.49c3.81 0 5.9-2 6.54-2.73c.14 1.02 1.08 1.86 2.33 2.14c.46.1.88-.28.88-.74V6.84c0-.47-.43-.85-.88-.75"/></symbol><symbol id="hd-icon-ic-round-settings" viewBox="0 0 24 24"><path fill="currentColor" d="M19.5 12c0-.23-.01-.45-.03-.68l1.86-1.41c.4-.3.51-.86.26-1.3l-1.87-3.23a.987.987 0 0 0-1.25-.42l-2.15.91c-.37-.26-.76-.49-1.17-.68l-.29-2.31c-.06-.5-.49-.88-.99-.88h-3.73c-.51 0-.94.38-1 .88l-.29 2.31c-.41.19-.8.42-1.17.68l-2.15-.91c-.46-.2-1-.02-1.25.42L2.41 8.62c-.25.44-.14.99.26 1.3l1.86 1.41a7.3 7.3 0 0 0 0 1.35l-1.86 1.41c-.4.3-.51.86-.26 1.3l1.87 3.23c.25.44.79.62 1.25.42l2.15-.91c.37.26.76.49 1.17.68l.29 2.31c.06.5.49.88.99.88h3.73c.5 0 .93-.38.99-.88l.29-2.31c.41-.19.8-.42 1.17-.68l2.15.91c.46.2 1 .02 1.25-.42l1.87-3.23c.25-.44.14-.99-.26-1.3l-1.86-1.41c.03-.23.04-.45.04-.68m-7.46 3.5c-1.93 0-3.5-1.57-3.5-3.5s1.57-3.5 3.5-3.5s3.5 1.57 3.5 3.5s-1.57 3.5-3.5 3.5"/></symbol><symbol id="hd-icon-ic-round-settings-accessibility" viewBox="0 0 24 24"><path fill="currentColor" d="M20.74 4.96c-.13-.53-.67-.85-1.2-.73c-2.38.54-5.05.77-7.54.77s-5.16-.23-7.54-.76c-.54-.12-1.07.19-1.2.73l-.02.05c-.13.54.19 1.1.73 1.22c1.62.37 3.37.62 5.03.76v11c0 .55.45 1 1 1s1-.45 1-1v-5h2v5c0 .55.45 1 1 1s1-.45 1-1V7c1.66-.14 3.41-.39 5.03-.76c.54-.12.86-.68.73-1.22zM12 4c1.1 0 2-.9 2-2s-.9-2-2-2s-2 .9-2 2s.9 2 2 2M8 24c.55 0 1-.45 1-1s-.45-1-1-1s-1 .45-1 1s.45 1 1 1m4 0c.55 0 1-.45 1-1s-.45-1-1-1s-1 .45-1 1s.45 1 1 1m4 0c.55 0 1-.45 1-1s-.45-1-1-1s-1 .45-1 1s.45 1 1 1"/></symbol><symbol id="hd-icon-ic-round-settings-applications" viewBox="0 0 24 24"><circle cx="12" cy="12" r="2" fill="currentColor"/><path fill="currentColor" d="M19 3H5a2 2 0 0 0-2 2v14a2 2 0 0 0 2 2h14a2 2 0 0 0 2-2V5a2 2 0 0 0-2-2m-3.25 9c0 .22-.03.42-.06.63l.84.73c.18.16.22.42.1.63l-.59 1.02c-.12.21-.37.3-.59.22l-1.06-.36q-.48.405-1.08.63l-.22 1.09c-.05.23-.25.4-.49.4h-1.18c-.24 0-.44-.17-.49-.4l-.22-1.09q-.6-.225-1.08-.63l-1.06.36a.496.496 0 0 1-.59-.22l-.59-1.02a.5.5 0 0 1 .1-.63l.84-.73c-.05-.21-.08-.41-.08-.63s.03-.42.06-.63l-.84-.73a.5.5 0 0 1-.1-.63l.59-1.02c.12-.21.37-.3.59-.22l1.06.36q.48-.405 1.08-.63l.22-1.09c.06-.24.26-.41.5-.41h1.18c.24 0 .44.17.49.4l.22 1.09q.6.225 1.08.63l1.06-.36c.23-.08.47.02.59.22l.59 1.02c.12.21.08.47-.1.63l-.84.73c.04.22.07.42.07.64"/></symbol><symbol id="hd-icon-ic-round-settings-backup-restore" viewBox="0 0 24 24"><path fill="currentColor" d="M11.77 3c-2.65.07-5 1.28-6.6 3.16L3.85 4.85a.5.5 0 0 0-.85.36V9.5c0 .28.22.5.5.5h4.29c.45 0 .67-.54.35-.85L6.59 7.59C7.88 6.02 9.82 5 12 5c4.32 0 7.74 3.94 6.86 8.41c-.54 2.77-2.81 4.98-5.58 5.47c-3.8.68-7.18-1.74-8.05-5.16c-.12-.42-.52-.72-.96-.72c-.65 0-1.14.61-.98 1.23C4.28 18.12 7.8 21 12 21c5.06 0 9.14-4.17 9-9.26c-.14-4.88-4.35-8.86-9.23-8.74M14 12c0-1.1-.9-2-2-2s-2 .9-2 2s.9 2 2 2s2-.9 2-2"/></symbol><symbol id="hd-icon-ic-round-settings-bluetooth" viewBox="0 0 24 24"><circle cx="12" cy="23" r="1" fill="currentColor"/><circle cx="8" cy="23" r="1" fill="currentColor"/><circle cx="16" cy="23" r="1" fill="currentColor"/><path fill="currentColor" d="M13.41 10L17 6.42c.39-.39.39-1.02 0-1.42L12.21.21a.7.7 0 0 0-.5-.21c-.39 0-.71.32-.71.71v6.88L7.11 3.71A.996.996 0 1 0 5.7 5.12L10.59 10L5.7 14.89a.996.996 0 1 0 1.41 1.41L11 12.41v6.88c0 .39.32.71.71.71c.19 0 .37-.07.5-.21L17 15c.39-.39.39-1.02 0-1.42zM13 3.83l1.88 1.88L13 7.59zm0 12.34v-3.76l1.88 1.88z"/></symbol><symbol id="hd-icon-ic-round-settings-brightness" viewBox="0 0 24 24"><path fill="currentColor" d="M20 4H4c-1.1 0-2 .9-2 2v12c0 1.1.9 2 2 2h16c1.1 0 2-.9 2-2V6c0-1.1-.9-2-2-2m-2.85 8.35L16 13.5v2c0 .28-.22.5-.5.5h-2l-1.15 1.15c-.2.2-.51.2-.71 0L10.5 16h-2c-.28 0-.5-.22-.5-.5v-2l-1.15-1.15c-.2-.2-.2-.51 0-.71L8 10.5v-2c0-.28.22-.5.5-.5h2l1.15-1.15c.2-.2.51-.2.71 0L13.5 8h2c.28 0 .5.22.5.5v2l1.15 1.15c.19.19.19.51 0 .7M12 9v6c1.66 0 3-1.34 3-3s-1.34-3-3-3"/></symbol><symbol id="hd-icon-ic-round-settings-cell" viewBox="0 0 24 24"><path fill="currentColor" d="M8 24c.55 0 1-.45 1-1s-.45-1-1-1s-1 .45-1 1s.45 1 1 1m4 0c.55 0 1-.45 1-1s-.45-1-1-1s-1 .45-1 1s.45 1 1 1m4 0c.55 0 1-.45 1-1s-.45-1-1-1s-1 .45-1 1s.45 1 1 1M16 .01L8 0C6.9 0 6 .9 6 2v16c0 1.1.9 2 2 2h8c1.1 0 2-.9 2-2V2c0-1.1-.9-1.99-2-1.99M16 16H8V4h8z"/></symbol><symbol id="hd-icon-ic-round-settings-ethernet" viewBox="0 0 24 24"><path fill="currentColor" d="M7.71 6.71a.996.996 0 0 0-1.41 0L1.71 11.3a.996.996 0 0 0 0 1.41L6.3 17.3a.996.996 0 1 0 1.41-1.41L3.83 12l3.88-3.88c.38-.39.38-1.03 0-1.41m8.58 0a.996.996 0 0 0 0 1.41L20.17 12l-3.88 3.88a.996.996 0 1 0 1.41 1.41l4.59-4.59a.996.996 0 0 0 0-1.41L17.7 6.7c-.38-.38-1.02-.38-1.41.01M8 13c.55 0 1-.45 1-1s-.45-1-1-1s-1 .45-1 1s.45 1 1 1m4 0c.55 0 1-.45 1-1s-.45-1-1-1s-1 .45-1 1s.45 1 1 1m4-2c-.55 0-1 .45-1 1s.45 1 1 1s1-.45 1-1s-.45-1-1-1"/></symbol><symbol id="hd-icon-ic-round-settings-input-antenna" viewBox="0 0 24 24"><path fill="currentColor" d="M12 5c-3.48 0-6.37 2.54-6.91 5.87c-.1.59.39 1.13 1 1.13c.49 0 .9-.36.98-.85C7.48 8.79 9.53 7 12 7s4.52 1.79 4.93 4.15c.08.49.49.85.98.85c.61 0 1.09-.54.99-1.13A6.984 6.984 0 0 0 12 5m1 9.29a2.52 2.52 0 0 0 1.41-2.99c-.22-.81-.87-1.47-1.68-1.7c-1.69-.48-3.23.78-3.23 2.4c0 1.02.62 1.9 1.5 2.29v3.3l-2.71 2.7A.996.996 0 1 0 9.7 21.7l2.3-2.3l2.3 2.3a.996.996 0 1 0 1.41-1.41L13 17.59zM12 1C6.3 1 1.61 5.34 1.05 10.9c-.05.59.41 1.1 1 1.1c.51 0 .94-.38.99-.88C3.48 6.56 7.33 3 12 3s8.52 3.56 8.96 8.12c.05.5.48.88.99.88c.59 0 1.06-.51 1-1.1C22.39 5.34 17.7 1 12 1"/></symbol><symbol id="hd-icon-ic-round-settings-input-component" viewBox="0 0 24 24"><path fill="currentColor" d="M5 2c0-.55-.45-1-1-1s-1 .45-1 1v4H2c-.55 0-1 .45-1 1v5h6V7c0-.55-.45-1-1-1H5zm4 14c0 1.3.84 2.4 2 2.82V22c0 .55.45 1 1 1s1-.45 1-1v-3.18c1.16-.41 2-1.51 2-2.82v-2H9zm-8 0c0 1.3.84 2.4 2 2.82V22c0 .55.45 1 1 1s1-.45 1-1v-3.18C6.16 18.4 7 17.3 7 16v-2H1zM21 6V2c0-.55-.45-1-1-1s-1 .45-1 1v4h-1c-.55 0-1 .45-1 1v5h6V7c0-.55-.45-1-1-1zm-8-4c0-.55-.45-1-1-1s-1 .45-1 1v4h-1c-.55 0-1 .45-1 1v5h6V7c0-.55-.45-1-1-1h-1zm4 14c0 1.3.84 2.4 2 2.82V22c0 .55.45 1 1 1s1-.45 1-1v-3.18c1.16-.41 2-1.51 2-2.82v-2h-6z"/></symbol><symbol id="hd-icon-ic-round-settings-input-composite" viewBox="0 0 24 24"><path fill="currentColor" d="M5 2c0-.55-.45-1-1-1s-1 .45-1 1v4H2c-.55 0-1 .45-1 1v5h6V7c0-.55-.45-1-1-1H5zm4 14c0 1.3.84 2.4 2 2.82V22c0 .55.45 1 1 1s1-.45 1-1v-3.18c1.16-.41 2-1.51 2-2.82v-2H9zm-8 0c0 1.3.84 2.4 2 2.82V22c0 .55.45 1 1 1s1-.45 1-1v-3.18C6.16 18.4 7 17.3 7 16v-2H1zM21 6V2c0-.55-.45-1-1-1s-1 .45-1 1v4h-1c-.55 0-1 .45-1 1v5h6V7c0-.55-.45-1-1-1zm-8-4c0-.55-.45-1-1-1s-1 .45-1 1v4h-1c-.55 0-1 .45-1 1v5h6V7c0-.55-.45-1-1-1h-1zm4 14c0 1.3.84 2.4 2 2.82V22c0 .55.45 1 1 1s1-.45 1-1v-3.18c1.16-.41 2-1.51 2-2.82v-2h-6z"/></symbol><symbol id="hd-icon-ic-round-settings-input-hdmi" viewBox="0 0 24 24"><path fill="currentColor" d="M18 7V4c0-1.1-.9-2-2-2H8c-1.1 0-2 .9-2 2v3c-.55 0-1 .45-1 1v4.7c0 .2.06.39.17.55L8 19v2c0 .55.45 1 1 1h6c.55 0 1-.45 1-1v-2l2.83-5.75a1 1 0 0 0 .17-.55V8c0-.55-.45-1-1-1m-2 0h-2V5.5c0-.28-.22-.5-.5-.5s-.5.22-.5.5V7h-2V5.5c0-.28-.22-.5-.5-.5s-.5.22-.5.5V7H8V4h8z"/></symbol><symbol id="hd-icon-ic-round-settings-input-svideo" viewBox="0 0 24 24"><path fill="currentColor" d="M12 2C6.48 2 2 6.48 2 12s4.48 10 10 10s10-4.48 10-10S17.52 2 12 2m0 18c-4.42 0-8-3.58-8-8s3.58-8 8-8s8 3.58 8 8s-3.58 8-8 8"/><circle cx="7.5" cy="11.5" r="1.5" fill="currentColor"/><circle cx="16.5" cy="11.5" r="1.5" fill="currentColor"/><circle cx="9" cy="16" r="1.5" fill="currentColor"/><circle cx="15" cy="16" r="1.5" fill="currentColor"/><path fill="currentColor" d="M15 7.5c0-.83-.67-1.5-1.5-1.5h-3C9.67 6 9 6.67 9 7.5S9.67 9 10.5 9h3c.83 0 1.5-.67 1.5-1.5"/></symbol><symbol id="hd-icon-ic-round-settings-overscan" viewBox="0 0 24 24"><path fill="currentColor" d="M12.01 7L10 9h4zM17 10v4l2-1.99zM7 10l-2 2.01L7 14zm7 5h-4l2.01 2zm6-11H4c-1.1 0-2 .9-2 2v12c0 1.1.9 2 2 2h16c1.1 0 2-.9 2-2V6c0-1.1-.9-2-2-2m0 14.01H4V5.99h16z"/></symbol><symbol id="hd-icon-ic-round-settings-phone" viewBox="0 0 24 24"><circle cx="12" cy="10" r="1" fill="currentColor"/><circle cx="16" cy="10" r="1" fill="currentColor"/><circle cx="20" cy="10" r="1" fill="currentColor"/><path fill="currentColor" d="m15.63 14.4l-2.52 2.5c-2.5-1.43-4.57-3.5-6-6l2.5-2.52c.23-.24.33-.57.27-.9L9.13 3.8c-.09-.46-.5-.8-.98-.8H4c-.56 0-1.03.47-1 1.03c.17 2.89 1.05 5.6 2.43 7.97c1.58 2.73 3.85 4.99 6.57 6.57c2.37 1.37 5.08 2.26 7.97 2.43c.56.03 1.03-.44 1.03-1v-4.15c0-.48-.34-.89-.8-.98l-3.67-.73a.99.99 0 0 0-.9.26"/></symbol><symbol id="hd-icon-ic-round-settings-power" viewBox="0 0 24 24"><path fill="currentColor" d="M8 24c.55 0 1-.45 1-1s-.45-1-1-1s-1 .45-1 1s.45 1 1 1m4 0c.55 0 1-.45 1-1s-.45-1-1-1s-1 .45-1 1s.45 1 1 1m0-22c-.55 0-1 .45-1 1v8c0 .55.45 1 1 1s1-.45 1-1V3c0-.55-.45-1-1-1m3.94 3.06l-.02.02c-.41.41-.36 1.08.08 1.46c1.51 1.34 2.33 3.43 1.88 5.7c-.46 2.28-2.29 4.14-4.56 4.62A6.01 6.01 0 0 1 6 11c0-1.78.78-3.37 2.01-4.47c.43-.39.47-1.04.07-1.45l-.02-.02a.99.99 0 0 0-1.36-.04c-2.01 1.77-3.12 4.53-2.56 7.52c.59 3.15 3.11 5.7 6.26 6.31c5.12.99 9.6-2.9 9.6-7.85c0-2.38-1.05-4.52-2.71-5.99a.99.99 0 0 0-1.35.05M16 24c.55 0 1-.45 1-1s-.45-1-1-1s-1 .45-1 1s.45 1 1 1"/></symbol><symbol id="hd-icon-ic-round-settings-remote" viewBox="0 0 24 24"><path fill="currentColor" d="M15 9H9c-.55 0-1 .45-1 1v12c0 .55.45 1 1 1h6c.55 0 1-.45 1-1V10c0-.55-.45-1-1-1m-3 5.25a1.25 1.25 0 1 1 0-2.5a1.25 1.25 0 0 1 0 2.5M7.82 6.82c.35.35.9.38 1.3.1C9.93 6.34 10.93 6 12 6s2.07.34 2.88.91c.4.28.95.26 1.3-.09c.43-.43.39-1.15-.09-1.5A6.96 6.96 0 0 0 12 4c-1.53 0-2.94.49-4.09 1.32c-.49.35-.52 1.07-.09 1.5"/><path fill="currentColor" d="M12 0C9.36 0 6.94.93 5.05 2.47c-.46.38-.5 1.07-.08 1.49c.36.36.93.39 1.32.07A9.03 9.03 0 0 1 12 2c2.17 0 4.16.77 5.7 2.04c.39.32.96.29 1.32-.07c.42-.42.38-1.11-.08-1.49C17.06.93 14.64 0 12 0"/></symbol><symbol id="hd-icon-ic-round-settings-suggest" viewBox="0 0 24 24"><path fill="currentColor" d="m18.04 7.99l-.63-1.4l-1.4-.63a.5.5 0 0 1 0-.91l1.4-.63l.63-1.4a.5.5 0 0 1 .91 0l.63 1.4l1.4.63a.5.5 0 0 1 0 .91l-1.4.63l-.63 1.4c-.17.39-.73.39-.91 0m3.24 4.73l-.32-.72a.5.5 0 0 0-.91 0l-.32.72l-.73.32a.5.5 0 0 0 0 .91l.72.32l.32.73a.5.5 0 0 0 .91 0l.32-.72l.73-.32a.5.5 0 0 0 0-.91zm-5.04 1.65l1.23.93c.4.3.51.86.26 1.3l-1.62 2.8c-.25.44-.79.62-1.25.42l-1.43-.6c-.2.13-.42.26-.64.37l-.19 1.54c-.06.5-.49.88-.99.88H8.38c-.5 0-.93-.38-.99-.88l-.19-1.54c-.22-.11-.43-.23-.64-.37l-1.43.6c-.46.2-1 .02-1.25-.42l-1.62-2.8c-.25-.44-.14-.99.26-1.3l1.23-.93V14c0-.12 0-.25.01-.37l-1.23-.93c-.4-.3-.51-.86-.26-1.3l1.62-2.8c.25-.44.79-.62 1.25-.42l1.43.6c.2-.13.42-.26.64-.37l.19-1.54c.05-.49.48-.87.98-.87h3.23c.5 0 .93.38.99.88l.19 1.54c.22.11.43.23.64.37l1.43-.6c.46-.2 1-.02 1.25.42l1.62 2.8c.25.44.14.99-.26 1.3l-1.23.93c.01.12.01.24.01.37s0 .24-.01.36M13 14c0-1.66-1.34-3-3-3s-3 1.34-3 3s1.34 3 3 3s3-1.34 3-3"/></symbol><symbol id="hd-icon-ic-round-settings-system-daydream" viewBox="0 0 24 24"><path fill="currentColor" d="M9 16h6.5a2.5 2.5 0 0 0 0-5h-.05c-.24-1.69-1.69-3-3.45-3c-1.4 0-2.6.83-3.16 2.02h-.16A2.994 2.994 0 0 0 6 13c0 1.66 1.34 3 3 3M21 3H3c-1.1 0-2 .9-2 2v14c0 1.1.9 2 2 2h18c1.1 0 2-.9 2-2V5c0-1.1-.9-2-2-2m-1 16.01H4c-.55 0-1-.45-1-1V5.99c0-.55.45-1 1-1h16c.55 0 1 .45 1 1v12.02c0 .55-.45 1-1 1"/></symbol><symbol id="hd-icon-ic-round-settings-voice" viewBox="0 0 24 24"><path fill="currentColor" d="M8 24c.55 0 1-.45 1-1s-.45-1-1-1s-1 .45-1 1s.45 1 1 1m4 0c.55 0 1-.45 1-1s-.45-1-1-1s-1 .45-1 1s.45 1 1 1m4 0c.55 0 1-.45 1-1s-.45-1-1-1s-1 .45-1 1s.45 1 1 1M9 10V4c0-1.66 1.34-3 3-3s3 1.34 3 3v6c0 1.66-1.34 3-3 3s-3-1.34-3-3m8.91 0c.61 0 1.09.54 1 1.14c-.49 3-2.89 5.34-5.91 5.78V19c0 .55-.45 1-1 1s-1-.45-1-1v-2.08c-3.02-.44-5.42-2.78-5.91-5.78c-.1-.6.39-1.14 1-1.14c.49 0 .9.36.98.85C7.48 13.21 9.53 15 12 15s4.52-1.79 4.93-4.15c.08-.49.49-.85.98-.85"/></symbol><symbol id="hd-icon-ic-round-severe-cold" viewBox="0 0 24 24"><path fill="currentColor" d="M20 2c-.55 0-1 .45-1 1v3c0 .55.45 1 1 1s1-.45 1-1V3c0-.55-.45-1-1-1"/><circle cx="20" cy="9" r="1" fill="currentColor"/><path fill="currentColor" d="m12 10.41l3.29-3.29a.996.996 0 1 0-1.41-1.41L12 7.59V5c0-.55-.45-1-1-1s-1 .45-1 1v2.59L8.12 5.71a.996.996 0 1 0-1.41 1.41L10 10.41V12H8.41L5.12 8.71a.996.996 0 1 0-1.41 1.41L5.59 12H3c-.55 0-1 .45-1 1s.45 1 1 1h2.59l-1.88 1.88a.996.996 0 1 0 1.41 1.41L8.41 14H10v1.59l-3.29 3.29a.996.996 0 1 0 1.41 1.41L10 18.41V21c0 .55.45 1 1 1s1-.45 1-1v-2.59l1.88 1.88a.996.996 0 1 0 1.41-1.41L12 15.59V14h1.59l3.29 3.29a.996.996 0 1 0 1.41-1.41L16.41 14H19c.55 0 1-.45 1-1s-.45-1-1-1h-7z"/></symbol><symbol id="hd-icon-ic-round-shape-line" viewBox="0 0 24 24"><path fill="currentColor" d="M6 11c2.76 0 5-2.24 5-5S8.76 1 6 1S1 3.24 1 6s2.24 5 5 5m15 3h-5c-1.1 0-2 .9-2 2v5c0 1.1.9 2 2 2h5c1.1 0 2-.9 2-2v-5c0-1.1-.9-2-2-2"/><path fill="currentColor" d="M17.71 7.7c.4.19.83.3 1.29.3c1.65 0 3-1.35 3-3s-1.35-3-3-3s-3 1.35-3 3c0 .46.11.89.3 1.29L6.29 16.3c-.4-.19-.83-.3-1.29-.3c-1.65 0-3 1.35-3 3s1.35 3 3 3s3-1.35 3-3c0-.46-.11-.89-.3-1.29z"/></symbol><symbol id="hd-icon-ic-round-share" viewBox="0 0 24 24"><path fill="currentColor" d="M18 16.08c-.76 0-1.44.3-1.96.77L8.91 12.7c.05-.23.09-.46.09-.7s-.04-.47-.09-.7l7.05-4.11c.54.5 1.25.81 2.04.81c1.66 0 3-1.34 3-3s-1.34-3-3-3s-3 1.34-3 3c0 .24.04.47.09.7L8.04 9.81C7.5 9.31 6.79 9 6 9c-1.66 0-3 1.34-3 3s1.34 3 3 3c.79 0 1.5-.31 2.04-.81l7.12 4.16c-.05.21-.08.43-.08.65c0 1.61 1.31 2.92 2.92 2.92s2.92-1.31 2.92-2.92s-1.31-2.92-2.92-2.92"/></symbol><symbol id="hd-icon-ic-round-share-arrival-time" viewBox="0 0 24 24"><path fill="currentColor" d="M8 4c-4.42 0-8 3.58-8 8s3.58 8 8 8s8-3.58 8-8s-3.58-8-8-8m3.11 11.11a.99.99 0 0 1-1.39 0l-2.14-2.14c-.37-.37-.58-.88-.58-1.41V9c0-.57.48-1.04 1.07-1c.53.04.93.5.93 1.03v2.58l2.11 2.11a.99.99 0 0 1 0 1.39m9.79 1.79c-.38-.38-.4-.91-.11-1.3c.76-1 1.2-2.25 1.2-3.6s-.45-2.6-1.2-3.6c-.3-.39-.27-.93.11-1.3a.99.99 0 0 1 1.48.09C23.4 8.52 24 10.19 24 12s-.6 3.48-1.62 4.82c-.36.47-1.06.5-1.48.08m-2.52-2.52c-.36-.36-.37-.83-.16-1.23c.18-.34.28-.74.28-1.15s-.1-.81-.28-1.15c-.21-.4-.18-.89.14-1.21c.49-.49 1.26-.38 1.58.19c.36.64.56 1.39.56 2.17s-.2 1.53-.56 2.17c-.31.57-1.1.67-1.56.21"/></symbol><symbol id="hd-icon-ic-round-share-location" viewBox="0 0 24 24"><path fill="currentColor" d="M13.02 20.77c0 .64.59 1.13 1.21.99c1.12-.26 2.18-.7 3.12-1.3c.53-.34.61-1.1.16-1.55c-.32-.32-.83-.4-1.21-.16c-.77.49-1.62.85-2.53 1.05c-.45.1-.75.51-.75.97M4.03 12c0-3.79 2.65-6.97 6.2-7.79c.44-.1.75-.51.75-.96c0-.64-.6-1.13-1.22-.98A9.985 9.985 0 0 0 2.03 12c0 4.74 3.3 8.71 7.73 9.74c.62.15 1.22-.34 1.22-.98c0-.46-.31-.86-.75-.96c-3.55-.83-6.2-4.01-6.2-7.8m16.76-1c.64 0 1.13-.59.99-1.21c-.26-1.12-.7-2.17-1.3-3.12c-.34-.54-1.1-.61-1.55-.16c-.32.32-.4.83-.15 1.21c.49.76.85 1.61 1.05 2.53c.09.45.5.75.96.75m-3.44-7.45c-.95-.6-2-1.04-3.12-1.3c-.62-.14-1.21.35-1.21.98c0 .45.3.87.74.96c.91.2 1.77.57 2.53 1.05c.39.24.89.17 1.21-.16a.972.972 0 0 0-.15-1.53m1.57 13.94c.45.45 1.21.38 1.55-.16c.6-.94 1.04-2 1.3-3.12c.14-.62-.35-1.21-.98-1.21c-.45 0-.87.3-.96.74c-.2.91-.57 1.77-1.05 2.53c-.26.39-.18.9.14 1.22"/><path fill="currentColor" d="M16 11.1C16 8.61 14.1 7 12 7s-4 1.61-4 4.1c0 1.51 1.1 3.28 3.31 5.3c.39.36.98.36 1.38 0C14.9 14.37 16 12.61 16 11.1m-4 .9a1.071 1.071 0 0 1 0-2.14A1.071 1.071 0 0 1 12 12"/></symbol><symbol id="hd-icon-ic-round-shield" viewBox="0 0 24 24"><path fill="currentColor" d="m11.3 2.26l-6 2.25C4.52 4.81 4 5.55 4 6.39v4.7c0 4.83 3.13 9.37 7.43 10.75c.37.12.77.12 1.14 0c4.3-1.38 7.43-5.91 7.43-10.75v-4.7a2 2 0 0 0-1.3-1.87l-6-2.25c-.45-.18-.95-.18-1.4-.01"/></symbol><symbol id="hd-icon-ic-round-shield-moon" viewBox="0 0 24 24"><path fill="currentColor" d="m11.3 2.26l-6 2.25C4.52 4.81 4 5.55 4 6.39v4.7c0 4.83 3.13 9.37 7.43 10.75c.37.12.77.12 1.14 0c4.3-1.38 7.43-5.91 7.43-10.75v-4.7a2 2 0 0 0-1.3-1.87l-6-2.25c-.45-.18-.95-.18-1.4-.01m4.67 12.15c-1.84 2.17-5.21 2.1-6.96-.07c-2.19-2.72-.65-6.72 2.69-7.33c.34-.06.63.27.51.6c-.46 1.23-.39 2.64.32 3.86a4.51 4.51 0 0 0 3.18 2.2c.34.05.49.47.26.74"/></symbol><symbol id="hd-icon-ic-round-shop" viewBox="0 0 24 24"><path fill="currentColor" d="M16 6V4c0-1.1-.9-2-2-2h-4c-1.1 0-2 .9-2 2v2H4c-1.1 0-2 .9-2 2v11c0 1.1.9 2 2 2h16c1.1 0 2-.9 2-2V8c0-1.1-.9-2-2-2zm-6-2h4v2h-4zM9 17.07V9.83c0-.38.4-.62.74-.44l6.03 3.21c.33.18.36.65.04.86l-6.03 4.02a.5.5 0 0 1-.78-.41"/></symbol><symbol id="hd-icon-ic-round-shop-2" viewBox="0 0 24 24"><path fill="currentColor" d="M2 9c-.55 0-1 .45-1 1v10c0 1.1.9 2 2 2h15c.55 0 1-.45 1-1s-.45-1-1-1H3V10c0-.55-.45-1-1-1"/><path fill="currentColor" d="M18 5V3c0-1.11-.89-2-2-2h-4c-1.11 0-2 .89-2 2v2H5v11c0 1.11.89 2 2 2h14c1.11 0 2-.89 2-2V5zm-6-2h4v2h-4zm0 11.09V8.91c0-.39.44-.63.77-.42l4.07 2.59c.31.2.31.65 0 .84l-4.07 2.59a.503.503 0 0 1-.77-.42"/></symbol><symbol id="hd-icon-ic-round-shop-two" viewBox="0 0 24 24"><path fill="currentColor" d="M2 9c-.55 0-1 .45-1 1v10c0 1.1.9 2 2 2h14c1.11 0 2-.89 2-2H4c-.55 0-1-.45-1-1v-9c0-.55-.45-1-1-1m16-4V3c0-1.1-.9-2-2-2h-4c-1.1 0-2 .9-2 2v2H7c-1.1 0-2 .9-2 2v9c0 1.1.9 2 2 2h14c1.1 0 2-.9 2-2V7c0-1.1-.9-2-2-2zm-6-2h4v2h-4zm0 11.02V8.84c0-.38.41-.62.74-.44l4.07 2.22c.32.18.35.63.05.84l-4.07 2.96c-.33.24-.79.01-.79-.4"/></symbol><symbol id="hd-icon-ic-round-shopify" viewBox="0 0 24 24"><path fill="currentColor" d="M14.9 5.1s-.2.06-.54.17c-.06-.18-.14-.41-.26-.63c-.38-.73-.94-1.11-1.62-1.12c-.05 0-.09 0-.14.01c-.02-.02-.04-.05-.06-.07c-.29-.32-.67-.47-1.12-.46c-.87.03-1.74.66-2.45 1.78c-.5.79-.87 1.78-.98 2.54c-1 .31-1.7.53-1.72.53c-.51.16-.52.18-.59.65c-.05.36-1.37 10.6-1.37 10.6L15.03 21V5.08c-.05 0-.1.01-.13.02m-2.54.79c-.58.18-1.22.38-1.85.57c.18-.69.52-1.37.94-1.82c.16-.17.37-.35.63-.46c.24.51.29 1.22.28 1.71m-1.19-2.31c.2 0 .38.04.53.14c-.24.12-.46.3-.68.53c-.55.59-.98 1.52-1.15 2.41c-.53.16-1.04.32-1.52.47c.3-1.41 1.48-3.51 2.82-3.55m-1.7 7.99c.06.93 2.52 1.14 2.66 3.33c.11 1.72-.91 2.9-2.39 2.99C7.98 18 7 16.96 7 16.96l.37-1.59s.98.74 1.76.69c.51-.03.69-.45.68-.74c-.08-1.22-2.08-1.15-2.2-3.15c-.11-1.69 1-3.39 3.44-3.55c.95-.06 1.43.18 1.43.18l-.56 2.09s-.62-.28-1.36-.24c-1.08.07-1.1.75-1.09.92m3.47-5.86c-.01-.44-.06-1.06-.27-1.59c.66.13.99.87 1.13 1.32c-.25.08-.54.17-.86.27m2.45 15.25l4.56-1.13S17.99 6.57 17.98 6.48s-.09-.14-.16-.15s-1.35-.03-1.35-.03s-.78-.76-1.08-1.05z"/></symbol><symbol id="hd-icon-ic-round-shopping-bag" viewBox="0 0 24 24"><path fill="currentColor" d="M18 6h-2c0-2.21-1.79-4-4-4S8 3.79 8 6H6c-1.1 0-2 .9-2 2v12c0 1.1.9 2 2 2h12c1.1 0 2-.9 2-2V8c0-1.1-.9-2-2-2m-8 4c0 .55-.45 1-1 1s-1-.45-1-1V8h2zm2-6c1.1 0 2 .9 2 2h-4c0-1.1.9-2 2-2m4 6c0 .55-.45 1-1 1s-1-.45-1-1V8h2z"/></symbol><symbol id="hd-icon-ic-round-shopping-basket" viewBox="0 0 24 24"><path fill="currentColor" d="M22 9h-4.79l-4.39-6.57a1 1 0 0 0-1.66 0L6.77 9H2c-.55 0-1 .45-1 1c0 .09.01.18.04.27l2.54 9.27c.23.84 1 1.46 1.92 1.46h13c.92 0 1.69-.62 1.93-1.46l2.54-9.27L23 10c0-.55-.45-1-1-1M11.99 4.79L14.8 9H9.18zM12 17c-1.1 0-2-.9-2-2s.9-2 2-2s2 .9 2 2s-.9 2-2 2"/></symbol><symbol id="hd-icon-ic-round-shopping-cart" viewBox="0 0 24 24"><path fill="currentColor" d="M7 18c-1.1 0-1.99.9-1.99 2S5.9 22 7 22s2-.9 2-2s-.9-2-2-2M1 3c0 .55.45 1 1 1h1l3.6 7.59l-1.35 2.44C4.52 15.37 5.48 17 7 17h11c.55 0 1-.45 1-1s-.45-1-1-1H7l1.1-2h7.45c.75 0 1.41-.41 1.75-1.03l3.58-6.49A.996.996 0 0 0 20.01 4H5.21l-.67-1.43a.99.99 0 0 0-.9-.57H2c-.55 0-1 .45-1 1m16 15c-1.1 0-1.99.9-1.99 2s.89 2 1.99 2s2-.9 2-2s-.9-2-2-2"/></symbol><symbol id="hd-icon-ic-round-shopping-cart-checkout" viewBox="0 0 24 24"><path fill="currentColor" d="M7 18c-1.1 0-1.99.9-1.99 2S5.9 22 7 22s2-.9 2-2s-.9-2-2-2m10 0c-1.1 0-1.99.9-1.99 2s.89 2 1.99 2s2-.9 2-2s-.9-2-2-2m2-2c0-.55-.45-1-1-1H7l1.1-2h7.45c.75 0 1.41-.41 1.75-1.03l3.24-6.14a1 1 0 0 0-.4-1.34a.996.996 0 0 0-1.36.41L15.55 11H8.53L4.54 2.57a.99.99 0 0 0-.9-.57H2c-.55 0-1 .45-1 1s.45 1 1 1h1l3.6 7.59l-1.35 2.44C4.52 15.37 5.48 17 7 17h11c.55 0 1-.45 1-1M11.29 2.71a.996.996 0 0 1 1.41 0l2.59 2.59c.39.39.39 1.02 0 1.41L12.7 9.3a.996.996 0 1 1-1.41-1.41l.88-.89H9c-.55 0-1-.45-1-1s.45-1 1-1h3.17l-.88-.88a.996.996 0 0 1 0-1.41"/></symbol><symbol id="hd-icon-ic-round-short-text" viewBox="0 0 24 24"><path fill="currentColor" d="M5 9h14c.55 0 1 .45 1 1s-.45 1-1 1H5c-.55 0-1-.45-1-1s.45-1 1-1m0 4h8c.55 0 1 .45 1 1s-.45 1-1 1H5c-.55 0-1-.45-1-1s.45-1 1-1"/></symbol><symbol id="hd-icon-ic-round-shortcut" viewBox="0 0 24 24"><path fill="currentColor" d="M20.29 10.29L16.7 6.7c-.62-.62-1.7-.18-1.7.71V10H8c-2.76 0-5 2.24-5 5v3c0 .55.45 1 1 1s1-.45 1-1v-3c0-1.65 1.35-3 3-3h7v2.59c0 .89 1.08 1.34 1.71.71l3.59-3.59c.38-.39.38-1.03-.01-1.42"/></symbol><symbol id="hd-icon-ic-round-show-chart" viewBox="0 0 24 24"><path fill="currentColor" d="m4.2 17.78l5.3-5.3l3.25 3.25c.41.41 1.07.39 1.45-.04l7.17-8.07c.35-.39.33-.99-.04-1.37a1 1 0 0 0-1.45.04l-6.39 7.18l-3.29-3.29a.996.996 0 0 0-1.41 0l-6.09 6.1a.996.996 0 0 0 0 1.41l.09.09c.39.39 1.03.39 1.41 0"/></symbol><symbol id="hd-icon-ic-round-shower" viewBox="0 0 24 24"><circle cx="8" cy="17" r="1" fill="currentColor"/><circle cx="12" cy="17" r="1" fill="currentColor"/><circle cx="16" cy="17" r="1" fill="currentColor"/><path fill="currentColor" d="M13 5.08V4c0-.55-.45-1-1-1s-1 .45-1 1v1.08C7.61 5.57 5 8.47 5 12v1c0 .55.45 1 1 1h12c.55 0 1-.45 1-1v-1c0-3.53-2.61-6.43-6-6.92"/><circle cx="8" cy="20" r="1" fill="currentColor"/><circle cx="12" cy="20" r="1" fill="currentColor"/><circle cx="16" cy="20" r="1" fill="currentColor"/></symbol><symbol id="hd-icon-ic-round-shuffle" viewBox="0 0 24 24"><path fill="currentColor" d="M10.59 9.17L6.12 4.7a.996.996 0 1 0-1.41 1.41l4.46 4.46zm4.76-4.32l1.19 1.19L4.7 17.88a.996.996 0 1 0 1.41 1.41L17.96 7.46l1.19 1.19a.5.5 0 0 0 .85-.36V4.5c0-.28-.22-.5-.5-.5h-3.79a.5.5 0 0 0-.36.85m-.52 8.56l-1.41 1.41l3.13 3.13l-1.2 1.2a.5.5 0 0 0 .36.85h3.79c.28 0 .5-.22.5-.5v-3.79c0-.45-.54-.67-.85-.35l-1.19 1.19z"/></symbol><symbol id="hd-icon-ic-round-shuffle-on" viewBox="0 0 24 24"><path fill="currentColor" d="M21 1H3c-1.1 0-2 .9-2 2v18c0 1.1.9 2 2 2h18c1.1 0 2-.9 2-2V3c0-1.1-.9-2-2-2M4.3 4.7a.996.996 0 0 1 1.41 0l4.47 4.47l-1.42 1.4L4.3 6.11a.996.996 0 0 1 0-1.41m15.29 14.8c0 .28-.22.5-.5.5H15.3a.5.5 0 0 1-.36-.85l1.2-1.2l-3.13-3.13l1.41-1.41l3.13 3.14l1.19-1.19c.31-.32.85-.1.85.35zm0-11.21a.5.5 0 0 1-.85.36l-1.19-1.19L5.7 19.29a.996.996 0 1 1-1.41-1.41L16.13 6.04l-1.19-1.19A.5.5 0 0 1 15.3 4h3.79c.28 0 .5.22.5.5z"/></symbol><symbol id="hd-icon-ic-round-shutter-speed" viewBox="0 0 24 24"><path fill="currentColor" d="M10 3h4c.55 0 1-.45 1-1s-.45-1-1-1h-4c-.55 0-1 .45-1 1s.45 1 1 1m9.03 4.39l.75-.75a.993.993 0 0 0 0-1.4l-.01-.01a.993.993 0 0 0-1.4 0l-.75.75A8.96 8.96 0 0 0 12 4c-4.8 0-8.88 3.96-9 8.76A9 9 0 0 0 12 22a8.994 8.994 0 0 0 7.03-14.61M12 20c-3.87 0-7-3.13-7-7s3.13-7 7-7s7 3.13 7 7s-3.13 7-7 7m-1.19-5h-3.7c-.38 0-.62.4-.45.74a5.66 5.66 0 0 0 2.57 2.57c.23.11.52.02.65-.21l1.37-2.35a.503.503 0 0 0-.44-.75m3.92-7.35a.5.5 0 0 0-.65.2l-1.38 2.39a.5.5 0 0 0 .43.76h3.76c.38 0 .62-.4.45-.73a6.06 6.06 0 0 0-2.61-2.62m-.85 7.05a.499.499 0 0 0-.87-.01l-2.04 3.52a.5.5 0 0 0 .39.75c1.34.14 2.69-.18 3.83-.89c.22-.14.28-.43.16-.66zm-3.57-1.47L7.93 9.57c-.2-.3-.64-.3-.84 0a6.05 6.05 0 0 0-1.05 3.98c.02.26.24.45.5.45h3.35c.39 0 .63-.44.42-.77m3.66-.49l2.02 3.74c.18.33.64.35.86.05c.86-1.18 1.24-2.62 1.12-4.08a.5.5 0 0 0-.5-.45h-3.05c-.39 0-.63.4-.45.74m-3.8-1.57c.2.31.66.3.85-.02l1.94-3.35c.19-.32-.03-.72-.4-.76c-1.36-.12-2.73.21-3.88.97c-.22.15-.27.46-.13.68z"/></symbol><symbol id="hd-icon-ic-round-sick" viewBox="0 0 24 24"><path fill="currentColor" d="M23 7c0 1.1-.9 2-2 2s-2-.9-2-2c0-.78.99-2.44 1.58-3.36c.2-.31.64-.31.84 0C22.01 4.56 23 6.22 23 7m-1.14 3.38c.08.53.14 1.07.14 1.62c0 5.52-4.48 10-10.01 10C6.47 22 2 17.52 2 12S6.47 2 11.99 2c2.45 0 4.69.88 6.43 2.34c-.51.95-.92 1.93-.92 2.66c0 1.93 1.57 3.5 3.5 3.5c.3 0 .58-.05.86-.12m-7.83-.35l1.06 1.06c.29.29.77.29 1.06 0s.29-.77 0-1.06l-.53-.53l.53-.53c.29-.29.29-.77 0-1.06s-.77-.29-1.06 0l-1.06 1.06c-.29.29-.29.77 0 1.06M8.38 9.5l-.53.53c-.29.29-.29.77 0 1.06s.77.29 1.06 0l1.06-1.06c.29-.29.29-.77 0-1.06L8.91 7.91c-.29-.29-.77-.29-1.06 0s-.29.77 0 1.06zm8.09 6.3c-1-1.39-2.62-2.3-4.47-2.3c-.87 0-1.69.2-2.43.56L5.99 12c0-.52-.26-1.02-.74-1.29a1.503 1.503 0 0 0-1.73 2.44c.52.44 1.2.45 1.72.16l2.97 1.72c-.25.24-.48.5-.68.78c-.36.49 0 1.19.62 1.19c.23 0 .46-.1.6-.3c.72-1.02 1.9-1.7 3.25-1.7s2.53.68 3.25 1.7a.759.759 0 0 0 1.22-.9"/></symbol><symbol id="hd-icon-ic-round-sign-language" viewBox="0 0 24 24"><path fill="currentColor" d="m12.49 13l-.93-1.86c-.37-.74-.07-1.64.67-2.01a.41.41 0 0 1 .47.07l5.53 5.26c.5.47.78 1.13.78 1.81v5.23a2.5 2.5 0 0 1-2.5 2.5h-11c-.55 0-1-.45-1-1s.45-1 1-1H10v-1H4c-.55 0-1-.45-1-1s.45-1 1-1h6v-1H3c-.55 0-1-.45-1-1s.45-1 1-1h7v-1H4.5c-.55 0-1-.45-1-1s.45-1 1-1zm-.71-5.88c-.84.4-1.17.62-1.63 1.19l-2.7-2.85A.996.996 0 1 1 8.9 4.09zM9.64 9.21a3.46 3.46 0 0 0-.2 1.79h-.86L6.31 8.61a.987.987 0 0 1 .04-1.41a.996.996 0 0 1 1.41.04zm10.69 4.7l.88-.83c.5-.47.79-1.13.79-1.82V3.64c0-.17-.11-.33-.27-.39c-.78-.28-1.64.12-1.92.9l-.71 1.96l-5.5-5.8a.996.996 0 1 0-1.45 1.37l3.79 3.99l-.73.69l-4.82-5.08a.996.996 0 1 0-1.45 1.37l3.78 3.98L15.38 9l3.61 3.43l.61.58c.29.27.53.57.73.9"/></symbol><symbol id="hd-icon-ic-round-signal-cellular-0-bar" viewBox="0 0 24 24"><path fill="currentColor" d="M4.41 22H21c.55 0 1-.45 1-1V4.41c0-.89-1.08-1.34-1.71-.71L3.71 20.29c-.63.63-.19 1.71.7 1.71M20 20H6.83L20 6.83z"/></symbol><symbol id="hd-icon-ic-round-signal-cellular-1-bar" viewBox="0 0 24 24"><path fill="currentColor" fill-opacity=".3" d="M4.41 22H20c1.1 0 2-.9 2-2V4.41c0-.89-1.08-1.34-1.71-.71L3.71 20.29c-.63.63-.19 1.71.7 1.71"/><path fill="currentColor" d="m12 12l-8.29 8.29c-.63.63-.19 1.71.7 1.71H12z"/></symbol><symbol id="hd-icon-ic-round-signal-cellular-2-bar" viewBox="0 0 24 24"><path fill="currentColor" fill-opacity=".3" d="M4.41 22H20c1.1 0 2-.9 2-2V4.41c0-.89-1.08-1.34-1.71-.71L3.71 20.29c-.63.63-.19 1.71.7 1.71"/><path fill="currentColor" d="M14 10L3.71 20.29c-.63.63-.19 1.71.7 1.71H14z"/></symbol><symbol id="hd-icon-ic-round-signal-cellular-3-bar" viewBox="0 0 24 24"><path fill="currentColor" fill-opacity=".3" d="M4.41 22H20c1.1 0 2-.9 2-2V4.41c0-.89-1.08-1.34-1.71-.71L3.71 20.29c-.63.63-.19 1.71.7 1.71"/><path fill="currentColor" d="M17 7L3.71 20.29c-.63.63-.19 1.71.7 1.71H17z"/></symbol><symbol id="hd-icon-ic-round-signal-cellular-4-bar" viewBox="0 0 24 24"><path fill="currentColor" d="M4.41 22H20c1.1 0 2-.9 2-2V4.41c0-.89-1.08-1.34-1.71-.71L3.71 20.29c-.63.63-.19 1.71.7 1.71"/></symbol><symbol id="hd-icon-ic-round-signal-cellular-alt" viewBox="0 0 24 24"><path fill="currentColor" d="M18.5 4c.83 0 1.5.67 1.5 1.5v13c0 .83-.67 1.5-1.5 1.5s-1.5-.67-1.5-1.5v-13c0-.83.67-1.5 1.5-1.5m-12 10c.83 0 1.5.67 1.5 1.5v3c0 .83-.67 1.5-1.5 1.5S5 19.33 5 18.5v-3c0-.83.67-1.5 1.5-1.5m6-5c.83 0 1.5.67 1.5 1.5v8c0 .83-.67 1.5-1.5 1.5s-1.5-.67-1.5-1.5v-8c0-.83.67-1.5 1.5-1.5"/></symbol><symbol id="hd-icon-ic-round-signal-cellular-alt-1-bar" viewBox="0 0 24 24"><path fill="currentColor" d="M6.5 20c-.83 0-1.5-.67-1.5-1.5v-3c0-.83.67-1.5 1.5-1.5s1.5.67 1.5 1.5v3c0 .83-.67 1.5-1.5 1.5"/></symbol><symbol id="hd-icon-ic-round-signal-cellular-alt-2-bar" viewBox="0 0 24 24"><path fill="currentColor" d="M6.5 20c-.83 0-1.5-.67-1.5-1.5v-3c0-.83.67-1.5 1.5-1.5s1.5.67 1.5 1.5v3c0 .83-.67 1.5-1.5 1.5m6 0c-.83 0-1.5-.67-1.5-1.5v-8c0-.83.67-1.5 1.5-1.5s1.5.67 1.5 1.5v8c0 .83-.67 1.5-1.5 1.5"/></symbol><symbol id="hd-icon-ic-round-signal-cellular-connected-no-internet-0-bar" viewBox="0 0 24 24"><path fill="currentColor" d="M21 18c.55 0 1-.45 1-1v-6c0-.55-.45-1-1-1s-1 .45-1 1v6c0 .55.45 1 1 1m0 4c.55 0 1-.45 1-1s-.45-1-1-1s-1 .45-1 1s.45 1 1 1m-3-2v2H2L22 2v6h-2V6.83L6.83 20z"/></symbol><symbol id="hd-icon-ic-round-signal-cellular-connected-no-internet-1-bar" viewBox="0 0 24 24"><path fill="currentColor" fill-opacity=".3" d="M22 8V4.41c0-.89-1.08-1.34-1.71-.71L3.71 20.29c-.63.63-.19 1.71.7 1.71H18V11c0-1.66 1.34-3 3-3z"/><path fill="currentColor" d="M20 11v6c0 .55.45 1 1 1s1-.45 1-1v-6c0-.55-.45-1-1-1s-1 .45-1 1m-8 11V12l-8.29 8.29c-.63.63-.19 1.71.7 1.71zm8 0h2v-2h-2z"/></symbol><symbol id="hd-icon-ic-round-signal-cellular-connected-no-internet-2-bar" viewBox="0 0 24 24"><path fill="currentColor" fill-opacity=".3" d="M22 8V4.41c0-.89-1.08-1.34-1.71-.71L3.71 20.29c-.63.63-.19 1.71.7 1.71H18V11c0-1.66 1.34-3 3-3z"/><path fill="currentColor" d="M14 22V10L3.71 20.29c-.63.63-.19 1.71.7 1.71zm6-11v6c0 .55.45 1 1 1s1-.45 1-1v-6c0-.55-.45-1-1-1s-1 .45-1 1m0 11h2v-2h-2z"/></symbol><symbol id="hd-icon-ic-round-signal-cellular-connected-no-internet-3-bar" viewBox="0 0 24 24"><path fill="currentColor" fill-opacity=".3" d="M22 8V4.41c0-.89-1.08-1.34-1.71-.71L3.71 20.29c-.63.63-.19 1.71.7 1.71H18V11c0-1.66 1.34-3 3-3z"/><path fill="currentColor" d="M18 22V6L3.71 20.29c-.63.63-.19 1.71.7 1.71zm2-11v6c0 .55.45 1 1 1s1-.45 1-1v-6c0-.55-.45-1-1-1s-1 .45-1 1m0 11h2v-2h-2z"/></symbol><symbol id="hd-icon-ic-round-signal-cellular-connected-no-internet-4-bar" viewBox="0 0 24 24"><path fill="currentColor" d="M21 18c.55 0 1-.45 1-1v-6c0-.55-.45-1-1-1s-1 .45-1 1v6c0 .55.45 1 1 1m0 4c.55 0 1-.45 1-1s-.45-1-1-1s-1 .45-1 1s.45 1 1 1M4.41 22H18V11c0-1.66 1.34-3 3-3h1V4.41c0-.89-1.08-1.34-1.71-.71L3.71 20.29c-.63.63-.19 1.71.7 1.71"/></symbol><symbol id="hd-icon-ic-round-signal-cellular-no-sim" viewBox="0 0 24 24"><path fill="currentColor" d="M19 5c0-1.1-.9-2-2-2h-6.17c-.53 0-1.04.21-1.42.59L7.95 5.06L19 16.11zM3.09 4.44a.996.996 0 0 0 0 1.41L5 7.78V19a2 2 0 0 0 2 2h11.23l.91.91a.996.996 0 1 0 1.41-1.41L4.5 4.44a.996.996 0 0 0-1.41 0"/></symbol><symbol id="hd-icon-ic-round-signal-cellular-nodata" viewBox="0 0 24 24"><path fill="currentColor" d="M22 13h-7c-1.1 0-2 .9-2 2v7H4.41c-.89 0-1.34-1.08-.71-1.71L20.29 3.71c.63-.63 1.71-.19 1.71.7zm-1.7 1.71a.996.996 0 0 0-1.41 0L17.5 16.1l-1.39-1.39a.996.996 0 1 0-1.41 1.41l1.39 1.39l-1.39 1.39a.996.996 0 1 0 1.41 1.41l1.39-1.38l1.39 1.38a.996.996 0 1 0 1.41-1.41l-1.38-1.39l1.38-1.39a.996.996 0 0 0 0-1.41"/></symbol><symbol id="hd-icon-ic-round-signal-cellular-null" viewBox="0 0 24 24"><path fill="currentColor" d="M20 6.83V19c0 .55-.45 1-1 1H6.83zm.29-3.12L3.71 20.29c-.63.63-.19 1.71.7 1.71H20c1.1 0 2-.9 2-2V4.41c0-.89-1.08-1.33-1.71-.7"/></symbol><symbol id="hd-icon-ic-round-signal-cellular-off" viewBox="0 0 24 24"><path fill="currentColor" d="M21 3.41c0-.89-1.08-1.34-1.71-.71l-6.6 6.6L21 17.61zm.44 17.47L5.62 5.06a.996.996 0 1 0-1.41 1.41l5.66 5.66l-7.16 7.16c-.63.63-.19 1.71.7 1.71h15.32l1.29 1.29c.39.39 1.02.39 1.41 0c.4-.39.4-1.02.01-1.41"/></symbol><symbol id="hd-icon-ic-round-signal-wifi-0-bar" viewBox="0 0 24 24"><path fill="currentColor" d="M12 4C7.7 4 3.78 5.6.79 8.24C.35 8.63.32 9.3.73 9.71l10.56 10.58c.39.39 1.02.39 1.42 0L23.27 9.71c.41-.41.38-1.08-.06-1.47A16.87 16.87 0 0 0 12 4M2.92 9.07C5.51 7.08 8.67 6 12 6s6.49 1.08 9.08 3.07L12 18.17z"/></symbol><symbol id="hd-icon-ic-round-signal-wifi-1-bar" viewBox="0 0 24 24"><path fill="currentColor" d="m6.67 14.86l3.77 4.7c.8 1 2.32 1 3.12 0l3.78-4.7C17.06 14.65 15.03 13 12 13s-5.06 1.65-5.33 1.86"/><path fill="currentColor" fill-opacity=".3" d="M23.64 7c-.45-.34-4.93-4-11.64-4C5.28 3 .81 6.66.36 7l10.08 12.56c.8 1 2.32 1 3.12 0z"/></symbol><symbol id="hd-icon-ic-round-signal-wifi-1-bar-lock" viewBox="0 0 24 24"><path fill="currentColor" fill-opacity=".3" d="M15.5 14.5c0-2.8 2.2-5 5-5c.36 0 .71.04 1.05.11L23.64 7c-.45-.34-4.93-4-11.64-4C5.28 3 .81 6.66.36 7l10.08 12.56c.8 1 2.32 1 3.12 0l1.94-2.42z"/><path fill="currentColor" d="M15.5 14.5c0-.23.04-.46.07-.68c-.92-.43-2.14-.82-3.57-.82c-3 0-5.1 1.7-5.3 1.9l3.74 4.66c.8 1 2.32 1 3.12 0l1.94-2.42zM23 16v-1.5c0-1.4-1.1-2.5-2.5-2.5S18 13.1 18 14.5V16c-.5 0-1 .5-1 1v4c0 .5.5 1 1 1h5c.5 0 1-.5 1-1v-4c0-.5-.5-1-1-1m-1 0h-3v-1.5c0-.8.7-1.5 1.5-1.5s1.5.7 1.5 1.5z"/></symbol><symbol id="hd-icon-ic-round-signal-wifi-2-bar" viewBox="0 0 24 24"><path fill="currentColor" fill-opacity=".3" d="M23.64 7c-.45-.34-4.93-4-11.64-4C5.28 3 .81 6.66.36 7l10.08 12.56c.8 1 2.32 1 3.12 0z"/><path fill="currentColor" d="m4.79 12.52l5.65 7.04c.8 1 2.32 1 3.12 0l5.65-7.05C18.85 12.24 16.1 10 12 10s-6.85 2.24-7.21 2.52"/></symbol><symbol id="hd-icon-ic-round-signal-wifi-2-bar-lock" viewBox="0 0 24 24"><path fill="currentColor" fill-opacity=".3" d="M15.5 14.5c0-2.8 2.2-5 5-5c.36 0 .71.04 1.05.11L23.64 7c-.45-.34-4.93-4-11.64-4C5.28 3 .81 6.66.36 7l10.08 12.56c.8 1 2.32 1 3.12 0l1.94-2.42z"/><path fill="currentColor" d="M15.5 14.5c0-1.34.51-2.53 1.34-3.42C15.62 10.51 13.98 10 12 10c-4.1 0-6.8 2.2-7.2 2.5l5.64 7.05c.8 1 2.32 1 3.12 0l1.94-2.42zM23 16v-1.5c0-1.4-1.1-2.5-2.5-2.5S18 13.1 18 14.5V16c-.5 0-1 .5-1 1v4c0 .5.5 1 1 1h5c.5 0 1-.5 1-1v-4c0-.5-.5-1-1-1m-1 0h-3v-1.5c0-.8.7-1.5 1.5-1.5s1.5.7 1.5 1.5z"/></symbol><symbol id="hd-icon-ic-round-signal-wifi-3-bar" viewBox="0 0 24 24"><path fill="currentColor" fill-opacity=".3" d="M23.64 7c-.45-.34-4.93-4-11.64-4C5.28 3 .81 6.66.36 7l10.08 12.56c.8 1 2.32 1 3.12 0z"/><path fill="currentColor" d="m3.53 10.95l6.91 8.61c.8 1 2.32 1 3.12 0l6.91-8.61C20.04 10.62 16.81 8 12 8s-8.04 2.62-8.47 2.95"/></symbol><symbol id="hd-icon-ic-round-signal-wifi-3-bar-lock" viewBox="0 0 24 24"><path fill="currentColor" fill-opacity=".3" d="M15.5 14.5c0-2.8 2.2-5 5-5c.36 0 .71.04 1.05.11L23.64 7c-.45-.34-4.93-4-11.64-4C5.28 3 .81 6.66.36 7l10.08 12.56c.8 1 2.32 1 3.12 0l1.94-2.42z"/><path fill="currentColor" d="M15.5 14.5a4.92 4.92 0 0 1 3.27-4.68C17.29 8.98 14.94 8 12 8c-4.81 0-8.04 2.62-8.47 2.95l6.91 8.61c.8 1 2.32 1 3.12 0l1.94-2.42zM23 16v-1.5c0-1.4-1.1-2.5-2.5-2.5S18 13.1 18 14.5V16c-.5 0-1 .5-1 1v4c0 .5.5 1 1 1h5c.5 0 1-.5 1-1v-4c0-.5-.5-1-1-1m-1 0h-3v-1.5c0-.8.7-1.5 1.5-1.5s1.5.7 1.5 1.5z"/></symbol><symbol id="hd-icon-ic-round-signal-wifi-4-bar" viewBox="0 0 24 24"><path fill="currentColor" d="M23.64 7c-.45-.34-4.93-4-11.64-4C5.28 3 .81 6.66.36 7l10.08 12.56c.8 1 2.32 1 3.12 0z"/></symbol><symbol id="hd-icon-ic-round-signal-wifi-4-bar-lock" viewBox="0 0 24 24"><path fill="currentColor" d="M23.21 8.24C20.22 5.6 16.3 4 12 4S3.78 5.6.79 8.24C.35 8.63.32 9.3.73 9.71l5.62 5.63l4.94 4.95c.39.39 1.02.39 1.42 0l2.34-2.34V15c0-.45.09-.88.23-1.29c.54-1.57 2.01-2.71 3.77-2.71h2.94l1.29-1.29c.4-.41.37-1.08-.07-1.47"/><path fill="currentColor" d="M22 16v-1c0-1.1-.9-2-2-2s-2 .9-2 2v1c-.55 0-1 .45-1 1v3c0 .55.45 1 1 1h4c.55 0 1-.45 1-1v-3c0-.55-.45-1-1-1m-1 0h-2v-1c0-.55.45-1 1-1s1 .45 1 1z"/></symbol><symbol id="hd-icon-ic-round-signal-wifi-bad" viewBox="0 0 24 24"><path fill="currentColor" d="M23.21 8.24A16.87 16.87 0 0 0 12 4C7.7 4 3.78 5.6.79 8.24C.35 8.63.32 9.3.73 9.71l10.56 10.58c.19.19.45.29.7.29V14c0-1.1.9-2 2-2h6.99l2.29-2.29c.41-.41.38-1.08-.06-1.47"/><path fill="currentColor" d="M20.3 14.71a.996.996 0 0 0-1.41 0l-1.39 1.38l-1.39-1.38a.996.996 0 1 0-1.41 1.41l1.39 1.39l-1.39 1.39a.996.996 0 1 0 1.41 1.41l1.39-1.38l1.39 1.38a.996.996 0 1 0 1.41-1.41l-1.38-1.39l1.38-1.39a.996.996 0 0 0 0-1.41"/></symbol><symbol id="hd-icon-ic-round-signal-wifi-connected-no-internet-4" viewBox="0 0 24 24"><path fill="currentColor" d="M23.21 8.24A16.87 16.87 0 0 0 12 4C7.7 4 3.78 5.6.79 8.24C.35 8.63.32 9.3.73 9.71l10.56 10.58c.19.19.45.29.7.29V14c0-1.1.9-2 2-2h6.99l2.29-2.29c.41-.41.38-1.08-.06-1.47"/><path fill="currentColor" d="M20.3 14.71a.996.996 0 0 0-1.41 0l-1.39 1.38l-1.39-1.38a.996.996 0 1 0-1.41 1.41l1.39 1.39l-1.39 1.39a.996.996 0 1 0 1.41 1.41l1.39-1.38l1.39 1.38a.996.996 0 1 0 1.41-1.41l-1.38-1.39l1.38-1.39a.996.996 0 0 0 0-1.41"/></symbol><symbol id="hd-icon-ic-round-signal-wifi-off" viewBox="0 0 24 24"><path fill="currentColor" d="M23.64 7c-.45-.34-4.93-4-11.64-4c-1.32 0-2.55.14-3.69.38L18.43 13.5zM4.12 2.01a.996.996 0 1 0-1.41 1.41l1.35 1.35C1.91 5.76.59 6.82.36 7l10.08 12.56c.8 1 2.32 1 3.12 0l2.35-2.93l2.61 2.61a.996.996 0 1 0 1.41-1.41z"/></symbol><symbol id="hd-icon-ic-round-signal-wifi-statusbar-4-bar" viewBox="0 0 24 24"><path fill="currentColor" d="M12 4C7.7 4 3.78 5.6.79 8.24C.35 8.63.32 9.3.73 9.71l10.56 10.58c.39.39 1.02.39 1.42 0L23.27 9.71c.41-.41.38-1.08-.06-1.47A16.87 16.87 0 0 0 12 4"/></symbol><symbol id="hd-icon-ic-round-signal-wifi-statusbar-connected-no-internet-4" viewBox="0 0 24 24"><path fill="currentColor" d="M22.92 8H17v7.99l-4.29 4.3c-.39.39-1.02.39-1.42 0L.73 9.71C.32 9.3.35 8.63.79 8.24C3.78 5.6 7.7 4 12 4c4.16 0 7.97 1.51 10.92 4M20 18c-.55 0-1 .45-1 1s.45 1 1 1s1-.45 1-1s-.45-1-1-1m0-8c-.55 0-1 .45-1 1v4c0 .55.45 1 1 1s1-.45 1-1v-4c0-.55-.45-1-1-1"/></symbol><symbol id="hd-icon-ic-round-signal-wifi-statusbar-null" viewBox="0 0 24 24"><path fill="currentColor" d="M12 4C7.7 4 3.78 5.6.79 8.24C.35 8.63.32 9.3.73 9.71l10.56 10.58c.39.39 1.02.39 1.42 0L23.27 9.71c.41-.41.38-1.08-.06-1.47A16.87 16.87 0 0 0 12 4M2.92 9.07C5.51 7.08 8.67 6 12 6s6.49 1.08 9.08 3.07L12 18.17z"/></symbol><symbol id="hd-icon-ic-round-signpost" viewBox="0 0 24 24"><path fill="currentColor" d="M13 10h5l3-3l-3-3h-5V2h-2v2H4v6h7v2H6l-3 3l3 3h5v4h2v-4h7v-6h-7z"/></symbol><symbol id="hd-icon-ic-round-sim-card" viewBox="0 0 24 24"><path fill="currentColor" d="M19.99 4c0-1.1-.89-2-1.99-2h-7.17c-.53 0-1.04.21-1.42.59L4.59 7.41C4.21 7.79 4 8.3 4 8.83V20c0 1.1.9 2 2 2h12.01c1.1 0 1.99-.9 1.99-2zM8 19c-.55 0-1-.45-1-1s.45-1 1-1s1 .45 1 1s-.45 1-1 1m8 0c-.55 0-1-.45-1-1s.45-1 1-1s1 .45 1 1s-.45 1-1 1m-8-4c-.55 0-1-.45-1-1v-2c0-.55.45-1 1-1s1 .45 1 1v2c0 .55-.45 1-1 1m4 4c-.55 0-1-.45-1-1v-2c0-.55.45-1 1-1s1 .45 1 1v2c0 .55-.45 1-1 1m0-6c-.55 0-1-.45-1-1s.45-1 1-1s1 .45 1 1s-.45 1-1 1m4 2c-.55 0-1-.45-1-1v-2c0-.55.45-1 1-1s1 .45 1 1v2c0 .55-.45 1-1 1"/></symbol><symbol id="hd-icon-ic-round-sim-card-alert" viewBox="0 0 24 24"><path fill="currentColor" d="M18 2h-7.17c-.53 0-1.04.21-1.42.59L4.6 7.42c-.37.37-.58.88-.58 1.4L4 20c0 1.1.9 2 2 2h12c1.1 0 2-.9 2-2V4c0-1.1-.9-2-2-2m-6 15c-.55 0-1-.45-1-1s.45-1 1-1s1 .45 1 1s-.45 1-1 1m0-4c-.55 0-1-.45-1-1V9c0-.55.45-1 1-1s1 .45 1 1v3c0 .55-.45 1-1 1"/></symbol><symbol id="hd-icon-ic-round-sim-card-download" viewBox="0 0 24 24"><path fill="currentColor" d="M18 2h-7.17c-.53 0-1.04.21-1.42.59L4.59 7.41C4.21 7.79 4 8.3 4 8.83V20c0 1.1.9 2 2 2h12c1.1 0 2-.9 2-2V4c0-1.1-.9-2-2-2m-6.35 14.65l-2.79-2.79c-.32-.32-.1-.86.35-.86H11v-2.99a1 1 0 0 1 .99-1a.993.993 0 0 1 1.01 1V13h1.79c.45 0 .67.54.35.85l-2.79 2.79c-.19.2-.51.2-.7.01"/></symbol><symbol id="hd-icon-ic-round-single-bed" viewBox="0 0 24 24"><path fill="currentColor" d="M18 10V7c0-1.1-.9-2-2-2H8c-1.1 0-2 .9-2 2v3c-1.1 0-2 .9-2 2v5h1.33l.51 1.53c.1.28.36.47.66.47a.7.7 0 0 0 .66-.47L7.67 17h8.67l.51 1.53c.09.28.35.47.65.47a.7.7 0 0 0 .66-.47l.51-1.53H20v-5c0-1.1-.9-2-2-2m-7 0H8V8c0-.55.45-1 1-1h2zm5 0h-3V7h2c.55 0 1 .45 1 1z"/></symbol><symbol id="hd-icon-ic-round-sip" viewBox="0 0 24 24"><path fill="currentColor" d="M15.5 10.5h2v1h-2z"/><path fill="currentColor" d="M20 4H4c-1.1 0-2 .9-2 2v12c0 1.1.9 2 2 2h16c1.1 0 2-.9 2-2V6c0-1.1-.9-2-2-2M10 9.75c0 .41-.34.75-.75.75H6.5v.75H9c.55 0 1 .45 1 1V14c0 .55-.45 1-1 1H5.75c-.41 0-.75-.34-.75-.75s.34-.75.75-.75H8.5v-.75H6c-.55 0-1-.45-1-1V10c0-.55.45-1 1-1h3.25c.41 0 .75.34.75.75M12 15c-.55 0-1-.45-1-1v-4c0-.55.45-1 1-1s1 .45 1 1v4c0 .55-.45 1-1 1m7-3c0 .55-.45 1-1 1h-2.5v1.25c0 .41-.34.75-.75.75s-.75-.34-.75-.75V10c0-.55.45-1 1-1h3c.55 0 1 .45 1 1z"/></symbol><symbol id="hd-icon-ic-round-skateboarding" viewBox="0 0 24 24"><path fill="currentColor" d="M13 3c0-1.1.9-2 2-2s2 .9 2 2s-.9 2-2 2s-2-.9-2-2M7.25 22.5c-.41 0-.75.34-.75.75s.34.75.75.75s.75-.34.75-.75s-.34-.75-.75-.75m8.5 0c-.41 0-.75.34-.75.75s.34.75.75.75s.75-.34.75-.75s-.34-.75-.75-.75m3.49-3.5a.72.72 0 0 0-.59.3c-.55.73-1.42 1.2-2.4 1.2H16v-4.88c0-.69-.36-1.34-.95-1.7l-3.37-2.08l1.8-2.89a6.5 6.5 0 0 0 4.39 2.96c.6.11 1.13-.39 1.13-.99c0-.48-.35-.89-.83-.98a4.5 4.5 0 0 1-3.3-2.64l-.52-1.21C14.16 5.64 13.61 5 12.7 5H8.11c-.69 0-1.33.36-1.7.94L5.03 8.15a1.003 1.003 0 0 0 1.7 1.06L8.1 7h2.35l-2.4 3.84c-.31.5-.39 1.11-.21 1.67l1.34 4.15l-3.12 3.76c-.7-.16-1.3-.57-1.71-1.12a.749.749 0 1 0-1.2.9c.82 1.1 2.13 1.8 3.6 1.8h9.5c1.47 0 2.78-.7 3.6-1.8c.1-.14.15-.3.15-.45c0-.39-.32-.75-.76-.75M14 20.5H8.6l2.21-2.67c.43-.52.57-1.21.37-1.86l-.68-2.27l3.5 2.2z"/></symbol><symbol id="hd-icon-ic-round-skip-next" viewBox="0 0 24 24"><path fill="currentColor" d="m7.58 16.89l5.77-4.07c.56-.4.56-1.24 0-1.63L7.58 7.11C6.91 6.65 6 7.12 6 7.93v8.14c0 .81.91 1.28 1.58.82M16 7v10c0 .55.45 1 1 1s1-.45 1-1V7c0-.55-.45-1-1-1s-1 .45-1 1"/></symbol><symbol id="hd-icon-ic-round-skip-previous" viewBox="0 0 24 24"><path fill="currentColor" d="M7 6c.55 0 1 .45 1 1v10c0 .55-.45 1-1 1s-1-.45-1-1V7c0-.55.45-1 1-1m3.66 6.82l5.77 4.07c.66.47 1.58-.01 1.58-.82V7.93c0-.81-.91-1.28-1.58-.82l-5.77 4.07a1 1 0 0 0 0 1.64"/></symbol><symbol id="hd-icon-ic-round-sledding" viewBox="0 0 24 24"><path fill="currentColor" d="M14 4.5c0 1.1-.9 2-2 2s-2-.9-2-2s.9-2 2-2s2 .9 2 2m4.92 14.74c-.13.39-.55.61-.95.48l-2.61-.85l-.46 1.43l3.32 1.08c1.31.43 2.72-.29 3.15-1.61a2.52 2.52 0 0 0-1.07-2.91c-.32-.2-.45-.6-.3-.95c.2-.44.71-.57 1.12-.31a4.01 4.01 0 0 1 1.68 4.62a4.003 4.003 0 0 1-5.04 2.57L1.74 17.6c-.39-.13-.63-.54-.52-.93c.12-.41.55-.63.95-.5l3.22 1.05l.46-1.43l-3.19-1.04c-.39-.13-.63-.54-.52-.93c.12-.41.55-.63.95-.5l.91.28v-2.78c0-.8.48-1.52 1.21-1.84c.75-.32 4.11-1.76 4.26-1.83c.41-.18.89-.21 1.35-.04c.91.34 1.37 1.36 1.07 2.28l-1.04 3.2l2.15-.34c.89-.15 1.76.32 2.14 1.14l2.08 4.51l1.22.4c.4.12.61.54.48.94M6 14.25l1.01.33c-.22-.42-.28-.92-.12-1.4L7.92 10L6 10.82zm7.94 4.16l-6.66-2.16l-.46 1.43l6.66 2.16zm.69-1.36l-1.18-2.56l-3.97.89z"/></symbol><symbol id="hd-icon-ic-round-slideshow" viewBox="0 0 24 24"><path fill="currentColor" d="M10 9.04v5.92c0 .42.48.65.81.39l3.7-2.96a.5.5 0 0 0 0-.78l-3.7-2.96a.498.498 0 0 0-.81.39M19 3H5c-1.1 0-2 .9-2 2v14c0 1.1.9 2 2 2h14c1.1 0 2-.9 2-2V5c0-1.1-.9-2-2-2m-1 16H6c-.55 0-1-.45-1-1V6c0-.55.45-1 1-1h12c.55 0 1 .45 1 1v12c0 .55-.45 1-1 1"/></symbol><symbol id="hd-icon-ic-round-slow-motion-video" viewBox="0 0 24 24"><path fill="currentColor" d="M10 8.5v7c0 .41.47.65.8.4l4.67-3.5c.27-.2.27-.6 0-.8L10.8 8.1a.5.5 0 0 0-.8.4m1-5.27c0-.64-.59-1.13-1.21-.99c-1.12.26-2.18.7-3.12 1.3c-.53.34-.61 1.1-.16 1.55c.32.32.83.4 1.21.16c.77-.49 1.62-.85 2.54-1.05c.44-.1.74-.51.74-.97M5.1 6.51c-.46-.45-1.21-.38-1.55.16c-.6.94-1.04 2-1.3 3.12c-.14.62.34 1.21.98 1.21c.45 0 .87-.3.96-.74c.2-.91.57-1.77 1.05-2.53c.26-.39.18-.9-.14-1.22M3.23 13c-.64 0-1.13.59-.99 1.21c.26 1.12.7 2.17 1.3 3.12c.34.54 1.1.61 1.55.16c.32-.32.4-.83.15-1.21c-.49-.76-.85-1.61-1.05-2.53c-.09-.45-.5-.75-.96-.75m3.44 7.45c.95.6 2 1.04 3.12 1.3c.62.14 1.21-.35 1.21-.98c0-.45-.3-.87-.74-.96a8 8 0 0 1-2.53-1.05a.97.97 0 0 0-1.21.16a.972.972 0 0 0 .15 1.53M22 12c0 4.73-3.3 8.71-7.73 9.74c-.62.15-1.22-.34-1.22-.98c0-.46.31-.86.75-.97c3.55-.82 6.2-4 6.2-7.79s-2.65-6.97-6.2-7.79c-.44-.1-.75-.51-.75-.97c0-.64.6-1.13 1.22-.98C18.7 3.29 22 7.27 22 12"/></symbol><symbol id="hd-icon-ic-round-smart-button" viewBox="0 0 24 24"><path fill="currentColor" d="M22 9v6c0 1.1-.9 2-2 2h-1v-2h1V9H4v6h6v2H4c-1.1 0-2-.9-2-2V9c0-1.1.9-2 2-2h16c1.1 0 2 .9 2 2m-7.96 8.99a.5.5 0 0 0 .91 0l.63-1.4l1.4-.63a.5.5 0 0 0 0-.91l-1.4-.63l-.63-1.4a.5.5 0 0 0-.91 0l-.63 1.4l-1.4.63a.5.5 0 0 0 0 .91l1.4.63zm2.7-4.56c.1.22.42.22.52 0l.36-.8l.8-.36c.22-.1.22-.42 0-.52l-.8-.36l-.36-.8a.287.287 0 0 0-.52 0l-.36.8l-.8.36c-.22.1-.22.42 0 .52l.8.36z"/></symbol><symbol id="hd-icon-ic-round-smart-display" viewBox="0 0 24 24"><path fill="currentColor" d="M20 4H4c-1.1 0-2 .9-2 2v12c0 1.1.9 2 2 2h16c1.1 0 2-.9 2-2V6c0-1.1-.9-2-2-2M9.5 14.67V9.33c0-.79.88-1.27 1.54-.84l4.15 2.67a1 1 0 0 1 0 1.68l-4.15 2.67c-.66.43-1.54-.05-1.54-.84"/></symbol><symbol id="hd-icon-ic-round-smart-screen" viewBox="0 0 24 24"><path fill="currentColor" d="M21 5H3c-1.1 0-2 .9-2 2v10c0 1.1.9 2 2 2h18c1.1 0 2-.9 2-2V7c0-1.1-.9-2-2-2m-3 2v10H6V7zm-4 5c0-.41-.34-.75-.75-.75s-.75.34-.75.75s.34.75.75.75s.75-.34.75-.75m-5 0c0-.41-.34-.75-.75-.75s-.75.34-.75.75s.34.75.75.75S9 12.41 9 12m7.5 0c0-.41-.34-.75-.75-.75s-.75.34-.75.75s.34.75.75.75s.75-.34.75-.75m-5 0c0-.41-.34-.75-.75-.75s-.75.34-.75.75s.34.75.75.75s.75-.34.75-.75"/></symbol><symbol id="hd-icon-ic-round-smart-toy" viewBox="0 0 24 24"><path fill="currentColor" d="M20 9V7c0-1.1-.9-2-2-2h-3c0-1.66-1.34-3-3-3S9 3.34 9 5H6c-1.1 0-2 .9-2 2v2c-1.66 0-3 1.34-3 3s1.34 3 3 3v4c0 1.1.9 2 2 2h12c1.1 0 2-.9 2-2v-4c1.66 0 3-1.34 3-3s-1.34-3-3-3M7.5 11.5c0-.83.67-1.5 1.5-1.5s1.5.67 1.5 1.5S9.83 13 9 13s-1.5-.67-1.5-1.5M15 17H9c-.55 0-1-.45-1-1s.45-1 1-1h6c.55 0 1 .45 1 1s-.45 1-1 1m0-4c-.83 0-1.5-.67-1.5-1.5S14.17 10 15 10s1.5.67 1.5 1.5S15.83 13 15 13"/></symbol><symbol id="hd-icon-ic-round-smartphone" viewBox="0 0 24 24"><path fill="currentColor" d="M17 1.01L7 1c-1.1 0-2 .9-2 2v18c0 1.1.9 2 2 2h10c1.1 0 2-.9 2-2V3c0-1.1-.9-1.99-2-1.99M17 19H7V5h10z"/></symbol><symbol id="hd-icon-ic-round-smoke-free" viewBox="0 0 24 24"><path fill="currentColor" d="M20.5 13H22v3h-1.5zM18 13h1.5v3H18zm-1 1.5c0-.83-.67-1.5-1.5-1.5h-.84l2.18 2.18c.1-.21.16-.44.16-.68m1.96-12.15H19zm-.11 2.38c.38-.38.67-.84.84-1.35a.77.77 0 0 0-.71-1.02c-.34.01-.61.25-.72.58c-.18.55-.62.99-1.17 1.17c-.34.11-.59.39-.59.74V5c0 .37.27.69.64.75c1.93.31 3.36 2 3.36 4.02v1.48c0 .41.34.75.75.75s.75-.34.75-.75V9.76c0-2.22-1.28-4.14-3.15-5.03m-4.24 3.92h1.42c1.05 0 1.97.74 1.97 2.05v.55c0 .41.33.75.75.75h.01c.41 0 .75-.33.75-.75v-.89c0-1.81-1.6-3.16-3.47-3.16h-1.3c-1.02 0-1.94-.73-2.07-1.75c-.12-.95.46-1.7 1.3-1.93c.32-.09.54-.38.54-.72c0-.49-.46-.86-.93-.72a3.35 3.35 0 0 0-2.42 3.28c.02 1.85 1.61 3.29 3.45 3.29M4.12 5.29A.996.996 0 1 0 2.71 6.7L9 13H3.5c-.83 0-1.5.67-1.5 1.5S2.67 16 3.5 16H12l6.29 6.29a.996.996 0 1 0 1.41-1.41z"/></symbol><symbol id="hd-icon-ic-round-smoking-rooms" viewBox="0 0 24 24"><path fill="currentColor" d="M15.5 16h-12c-.83 0-1.5.67-1.5 1.5S2.67 19 3.5 19h12c.83 0 1.5-.67 1.5-1.5s-.67-1.5-1.5-1.5m3.35-8.27c.62-.61 1-1.45 1-2.38c0-1.51-1-2.79-2.38-3.21a.758.758 0 0 0-.97.72c0 .33.21.62.52.71c.77.23 1.33.94 1.33 1.78c0 .82-.53 1.51-1.27 1.76c-.33.11-.58.39-.58.74V8c0 .37.27.69.64.75c1.93.31 3.36 2 3.36 4.02v1.48c0 .41.34.75.75.75s.75-.34.75-.75v-1.49c0-2.22-1.28-4.14-3.15-5.03m-2.82 2.47h-1.3c-1.02 0-1.94-.73-2.07-1.75c-.12-.95.46-1.7 1.3-1.93c.32-.09.54-.38.54-.72c0-.49-.46-.86-.93-.72a3.35 3.35 0 0 0-2.42 3.28c.03 1.84 1.62 3.29 3.46 3.29h1.42c1.05 0 1.97.74 1.97 2.05v.55c0 .41.33.75.75.75h.01c.41 0 .75-.33.75-.75v-.89c-.01-1.81-1.61-3.16-3.48-3.16M18 16h1.5v3H18zm2.5 0H22v3h-1.5z"/></symbol><symbol id="hd-icon-ic-round-sms" viewBox="0 0 24 24"><path fill="currentColor" d="M20 2H4c-1.1 0-2 .9-2 2v18l4-4h14c1.1 0 2-.9 2-2V4c0-1.1-.9-2-2-2M9 11H7V9h2zm4 0h-2V9h2zm4 0h-2V9h2z"/></symbol><symbol id="hd-icon-ic-round-sms-failed" viewBox="0 0 24 24"><path fill="currentColor" d="M20 2H4c-1.1 0-2 .9-2 2v18l4-4h14c1.1 0 2-.9 2-2V4c0-1.1-.9-2-2-2m-7 12h-2v-2h2zm-1-4c-.55 0-1-.45-1-1V7c0-.55.45-1 1-1s1 .45 1 1v2c0 .55-.45 1-1 1"/></symbol><symbol id="hd-icon-ic-round-snapchat" viewBox="0 0 24 24"><path fill="currentColor" d="M21.07 16.17c-.34-.93-2.4-1.06-3.36-3.19c-.06-.16-.05-.27.11-.37c.74-.49 1.26-.76 1.56-1.33c.22-.41.25-.89.08-1.33c-.23-.61-.81-1-1.52-1c-.25 0-.45.05-.55.07c.01-.42 0-.86-.04-1.3c-.13-1.53-.67-2.34-1.23-2.98C15.79 4.37 14.48 3 12 3S8.21 4.37 7.88 4.74c-.56.64-1.1 1.45-1.23 2.98c-.03.44-.04.88-.04 1.3c-.11-.03-.3-.07-.55-.07c-.7 0-1.29.38-1.52 1c-.17.43-.14.92.08 1.33c.31.58.82.84 1.56 1.33c.16.11.17.21.11.37c-.97 2.13-3.02 2.26-3.36 3.19c-.15.4-.05.85.32 1.23c.57.59 1.63.77 1.84.91c.17.14.15.56.63.9c.38.26.8.28 1.25.29c1.31.05 1.6.27 2.1.58c.63.39 1.49.92 2.93.92s2.3-.53 2.93-.92c.5-.31.79-.53 2.1-.58c.45-.02.87-.03 1.25-.29c.49-.34.47-.76.63-.9c.21-.14 1.27-.32 1.84-.91c.37-.38.47-.83.32-1.23m-1.03.53c-.37.39-1.26.5-1.73.82c-.48.42-.4.74-.59.87c-.13.09-.36.1-.72.12c-1.4.05-1.91.31-2.52.69c-1.43.88-2.23.8-2.48.8s-1.05.08-2.47-.81c-.61-.38-1.11-.63-2.52-.69c-.36-.01-.59-.03-.72-.12c-.19-.13-.12-.45-.59-.87c-.48-.32-1.36-.43-1.73-.82c-.06-.06-.11-.14-.12-.15c.07-.1.41-.3.66-.44c.78-.46 1.98-1.14 2.71-2.75c.26-.7.03-1.26-.48-1.59c-1.15-.73-1.13-.76-1.24-.96a.62.62 0 0 1-.03-.5c.12-.32.45-.35.58-.35c.19 0 .18.01 1.57.37c-.02-1.4-.04-1.85.02-2.51c.11-1.31.57-1.93.98-2.4C8.9 5.11 9.99 3.98 12 4c2.01-.02 3.1 1.11 3.37 1.41c.41.47.87 1.09.98 2.4c.06.66.04 1.11.02 2.51c1.4-.36 1.38-.37 1.57-.37c.14 0 .46.03.58.35c.07.17.06.35-.03.5c-.11.2-.09.22-1.23.97c-.51.33-.74.89-.48 1.59c.73 1.61 1.93 2.29 2.71 2.75c.25.15.59.34.66.44c0 .01-.06.09-.11.15"/></symbol><symbol id="hd-icon-ic-round-snippet-folder" viewBox="0 0 24 24"><path fill="currentColor" d="m15.88 10.5l1.62 1.62v3.38h-3v-5zM22 8v10c0 1.1-.9 2-2 2H4c-1.1 0-2-.9-2-2l.01-12c0-1.1.89-2 1.99-2h5.17c.53 0 1.04.21 1.41.59L12 6h8c1.1 0 2 .9 2 2m-3 3.91c0-.27-.11-.52-.29-.71L16.8 9.29c-.19-.18-.45-.29-.71-.29H14c-.55 0-1 .45-1 1v6c0 .55.45 1 1 1h4c.55 0 1-.45 1-1z"/></symbol><symbol id="hd-icon-ic-round-snooze" viewBox="0 0 24 24"><path fill="currentColor" d="M10 11h2.63l-3.72 4.35C8.36 16 8.82 17 9.67 17H14c.55 0 1-.45 1-1s-.45-1-1-1h-2.63l3.72-4.35c.55-.65.09-1.65-.76-1.65H10c-.55 0-1 .45-1 1s.45 1 1 1m11.3-4.58c-.35.42-.98.48-1.41.13l-3.07-2.56a1 1 0 0 1-.12-1.41c.35-.42.98-.48 1.41-.13l3.07 2.56a1 1 0 0 1 .12 1.41m-18.6 0c.35.43.98.48 1.4.13l3.07-2.56c.43-.36.49-.99.13-1.41a.99.99 0 0 0-1.4-.13L2.82 5.01a1 1 0 0 0-.12 1.41M12 6c3.86 0 7 3.14 7 7s-3.14 7-7 7s-7-3.14-7-7s3.14-7 7-7m0-2a9 9 0 1 0 .001 18.001A9 9 0 0 0 12 4"/></symbol><symbol id="hd-icon-ic-round-snowboarding" viewBox="0 0 24 24"><path fill="currentColor" d="M14 3c0-1.1.9-2 2-2s2 .9 2 2s-.9 2-2 2s-2-.9-2-2M6.35 9.53c.47.29 1.09.15 1.38-.32L9.1 7h2.35l-2.51 3.99c-.28.45-.37 1-.25 1.52L9.5 16L6 18.35l-.47-.1c-.96-.2-1.71-.85-2.1-1.67a.74.74 0 0 0-.51-.42c-.43-.09-.82.2-.9.58c-.04.14-.02.31.05.46c.58 1.24 1.71 2.2 3.15 2.51l12.63 2.69c1.44.31 2.86-.11 3.9-1.01c.13-.11.21-.26.24-.41c.08-.38-.16-.8-.59-.89a.75.75 0 0 0-.64.17c-.69.6-1.64.88-2.6.67L17 20.69l-.88-5.43c-.08-.49-.34-.93-.72-1.24l-2.72-2.19l1.8-2.89a6.5 6.5 0 0 0 4.39 2.96c.6.11 1.13-.39 1.13-1c0-.48-.35-.89-.83-.98a4.5 4.5 0 0 1-3.3-2.64l-.52-1.21C15.16 5.64 14.61 5 13.7 5H9.11c-.69 0-1.33.36-1.7.94L6.03 8.15c-.29.47-.15 1.09.32 1.38m2.38 9.4l2.25-1.51c.47-.32.73-.88.65-1.44l-.32-2.4l2.84 2.02l.75 4.64z"/></symbol><symbol id="hd-icon-ic-round-snowmobile" viewBox="0 0 24 24"><path fill="currentColor" d="M11 6c0 .55.45 1 1 1h1.25l1.45 1.3L11 11l-9.12-.96a1.7 1.7 0 0 0-.67 3.32l3.33 1l-3.49 1.88C-.77 17.22-.07 20 2 20h6c2.21 0 4-1.79 4-4h4l2 2h-2c-.55 0-1 .45-1 1s.45 1 1 1h5c1.13 0 2.11-.62 2.63-1.55c.36-.65-.15-1.45-.9-1.45c-.34 0-.68.16-.84.47c-.17.31-.51.53-.89.53h-.17l-2.2-2.2C20.58 15.37 22 14.4 22 13c0-.89-7.72-7.75-7.72-7.75a1 1 0 0 0-.66-.25H12c-.55 0-1 .45-1 1M8 18H2l5.25-2.83L10 16a2 2 0 0 1-2 2"/></symbol><symbol id="hd-icon-ic-round-snowshoeing" viewBox="0 0 24 24"><path fill="currentColor" d="M12.5 3.5c0-1.1.9-2 2-2s2 .9 2 2s-.9 2-2 2s-2-.9-2-2m7.5 8.41c0-.49-.36-.9-.84-.98c-1.53-.25-2.79-1.16-3.47-2.35l-1-1.58c-.4-.6-1-1-1.7-1c-.68 0-1.28.28-4.77 1.76C7.49 8.07 7 8.8 7 9.6V12c0 .55.45 1 1 1s1-.45 1-1V9.58l1.79-.7L9.2 17l-2.88 2.03l-1.14-1.47L4 18.5l2.38 3.04c.51.65 1.16 1.15 1.88 1.41c.28.1.53.04.72-.11c.3-.23.42-.7.12-1.07a.84.84 0 0 0-.31-.22a3 3 0 0 1-1.14-.83l-.08-.1l2.85-2.01c.38-.27.65-.66.77-1.1l.7-2.53l2.11 2v4.52h-2V23h3.87c.82 0 1.61-.21 2.26-.61c.26-.16.37-.39.37-.64c0-.38-.3-.75-.77-.75c-.13 0-.26.04-.37.1c-.4.23-.87.37-1.36.4v-5.16c0-.55-.23-1.07-.62-1.45l-1.49-1.41l.6-3a7.37 7.37 0 0 0 4.37 2.43c.6.1 1.14-.39 1.14-1"/></symbol><symbol id="hd-icon-ic-round-soap" viewBox="0 0 24 24"><path fill="currentColor" d="M14.25 6c.41 0 .75.34.75.75s-.34.75-.75.75s-.75-.34-.75-.75s.34-.75.75-.75m0-1.5C13.01 4.5 12 5.51 12 6.75S13.01 9 14.25 9s2.25-1.01 2.25-2.25s-1.01-2.25-2.25-2.25m5.75 1c.28 0 .5.22.5.5s-.22.5-.5.5s-.5-.22-.5-.5s.22-.5.5-.5M20 4c-1.1 0-2 .9-2 2s.9 2 2 2s2-.9 2-2s-.9-2-2-2m-2-1.5c0 .83-.67 1.5-1.5 1.5S15 3.33 15 2.5S15.67 1 16.5 1s1.5.67 1.5 1.5M1.94 11.79c-.6.56-.94 1.35-.94 2.18V20c0 1.66 1.34 3 3 3h13.68c.65 0 1.25-.47 1.32-1.12c.08-.75-.51-1.38-1.24-1.38H12.5c-.28 0-.5-.22-.5-.5s.22-.5.5-.5h7.18c.65 0 1.25-.47 1.32-1.12c.08-.75-.51-1.38-1.24-1.38H12.5c-.28 0-.5-.22-.5-.5s.22-.5.5-.5h8.18c.65 0 1.25-.47 1.32-1.12c.08-.75-.51-1.38-1.24-1.38H12.5c-.28 0-.5-.22-.5-.5s.22-.5.5-.5h6.18c.65 0 1.25-.47 1.32-1.12c.08-.75-.51-1.38-1.24-1.38h-9.9l1.49-2.61a1.065 1.065 0 0 0-.12-1.23l-.42-.45c-.38-.39-1.01-.41-1.41-.03z"/></symbol><symbol id="hd-icon-ic-round-social-distance" viewBox="0 0 24 24"><path fill="currentColor" d="M4 5c0-1.1.9-2 2-2s2 .9 2 2s-.9 2-2 2s-2-.9-2-2m4.78 3.58a6.95 6.95 0 0 0-5.56 0A2.01 2.01 0 0 0 2 10.43V11h8v-.57c0-.81-.48-1.53-1.22-1.85M18 7c1.1 0 2-.9 2-2s-.9-2-2-2s-2 .9-2 2s.9 2 2 2m2.78 1.58a6.95 6.95 0 0 0-5.56 0A2.01 2.01 0 0 0 14 10.43V11h8v-.57c0-.81-.48-1.53-1.22-1.85m.87 8.07l-2.79-2.79a.501.501 0 0 0-.86.35V16H6v-1.79c0-.45-.54-.67-.85-.35l-2.79 2.79c-.2.2-.2.51 0 .71l2.79 2.79a.5.5 0 0 0 .85-.36V18h12v1.79c0 .45.54.67.85.35l2.79-2.79c.2-.19.2-.51.01-.7"/></symbol><symbol id="hd-icon-ic-round-solar-power" viewBox="0 0 24 24"><path fill="currentColor" d="M3.33 16H11v-3H5.6c-.94 0-1.75.65-1.95 1.57zM13 16h7.67l-.32-1.43A2.01 2.01 0 0 0 18.4 13H13zm8.11 2H13v4h6.51c1.28 0 2.23-1.18 1.95-2.43zM4.49 22H11v-4H2.89l-.35 1.57C2.26 20.82 3.21 22 4.49 22M12 8c-.55 0-1 .45-1 1v1c0 .55.45 1 1 1s1-.45 1-1V9c0-.55-.45-1-1-1m6.59.62a.996.996 0 0 0 0-1.41l-.71-.71a.996.996 0 1 0-1.41 1.41l.71.71c.39.39 1.02.39 1.41 0m-11.77 0l.71-.71A.996.996 0 1 0 6.12 6.5l-.71.7a.996.996 0 0 0 0 1.41c.39.4 1.02.4 1.41.01M5 2H4c-.55 0-1 .45-1 1s.45 1 1 1h1c.55 0 1-.45 1-1s-.45-1-1-1m15 0h-1c-.55 0-1 .45-1 1s.45 1 1 1h1c.55 0 1-.45 1-1s-.45-1-1-1m-8 5c2.76 0 5-2.24 5-5H7c0 2.76 2.24 5 5 5"/></symbol><symbol id="hd-icon-ic-round-sort" viewBox="0 0 24 24"><path fill="currentColor" d="M4 18h4c.55 0 1-.45 1-1s-.45-1-1-1H4c-.55 0-1 .45-1 1s.45 1 1 1M3 7c0 .55.45 1 1 1h16c.55 0 1-.45 1-1s-.45-1-1-1H4c-.55 0-1 .45-1 1m1 6h10c.55 0 1-.45 1-1s-.45-1-1-1H4c-.55 0-1 .45-1 1s.45 1 1 1"/></symbol><symbol id="hd-icon-ic-round-sort-by-alpha" viewBox="0 0 24 24"><path fill="currentColor" d="M12.93 2.65c-.2-.2-.51-.2-.71 0l-2.01 2.01h4.72zm-.7 18.7c.2.2.51.2.71 0l1.98-1.98h-4.66zm-1.25-3.62c.6 0 1.01-.6.79-1.16L8.04 7.03a1.205 1.205 0 0 0-2.24 0l-3.74 9.53c-.22.56.19 1.16.79 1.16c.35 0 .67-.22.8-.55l.71-1.9h5.11l.71 1.9c.13.34.45.56.8.56m-6.01-4.09l1.94-5.18l1.94 5.18zm16.08 2.5h-5.33l5.72-8.29c.46-.66-.02-1.57-.82-1.57h-6.48c-.44 0-.79.36-.79.8v.01c0 .44.36.8.79.8h5.09l-5.73 8.28c-.46.66.02 1.57.82 1.57h6.72c.44 0 .79-.36.79-.79a.776.776 0 0 0-.78-.81"/></symbol><symbol id="hd-icon-ic-round-sos" viewBox="0 0 24 24"><path fill="currentColor" d="M13.5 7h-3c-1.1 0-2 .9-2 2v6c0 1.1.9 2 2 2h3c1.1 0 2-.9 2-2V9c0-1.1-.9-2-2-2m0 8h-3V9h3zM3 9v2h2c1.1 0 2 .9 2 2v2c0 1.1-.9 2-2 2H2c-.55 0-1-.45-1-1s.45-1 1-1h3v-2H3c-1.1 0-2-.9-2-2V9c0-1.1.9-2 2-2h3c.55 0 1 .45 1 1s-.45 1-1 1zm16 0v2h2c1.1 0 2 .9 2 2v2c0 1.1-.9 2-2 2h-3c-.55 0-1-.45-1-1s.45-1 1-1h3v-2h-2c-1.1 0-2-.9-2-2V9c0-1.1.9-2 2-2h3c.55 0 1 .45 1 1s-.45 1-1 1z"/></symbol><symbol id="hd-icon-ic-round-soup-kitchen" viewBox="0 0 24 24"><path fill="currentColor" d="M6.15 13.5c-.46 0-.8-.42-.71-.87q.06-.27.06-.63c0-1-1-2.85-1-3.62c0-.29.03-.59.17-.93A.72.72 0 0 1 5.34 7c.45 0 .8.42.71.86c-.04.18-.05.35-.05.52C6 9.15 7 11 7 12c0 .42-.08.76-.17 1.01c-.1.3-.37.49-.68.49m6.5 0c.31 0 .58-.19.68-.49c.09-.25.17-.59.17-1.01c0-1-1-2.85-1-3.62c0-.17.01-.34.04-.51a.723.723 0 0 0-.7-.87a.73.73 0 0 0-.67.45c-.14.34-.17.63-.17.93c0 .77 1 2.62 1 3.62q0 .36-.06.63c-.09.45.25.87.71.87m-3.25 0c.31 0 .58-.19.68-.49c.09-.25.17-.59.17-1.01c0-1-1-2.85-1-3.62c0-.17.01-.34.04-.51a.723.723 0 0 0-.7-.87c-.3 0-.56.18-.67.45c-.14.34-.17.63-.17.93c0 .77 1 2.63 1 3.62q0 .36-.06.63c-.09.45.25.87.71.87m11.06-7.13a.99.99 0 0 0 1.12-.91c.01-.18.02-.34.02-.46c0-1.65-1.35-3-3-3c-1.54 0-2.81 1.16-2.98 2.65L14.53 15H3.99c-.6 0-1.07.54-.98 1.14C3.54 19.46 6.39 22 9.75 22c3.48 0 6.34-2.73 6.71-6.23L17.61 4.9c.05-.51.47-.9.99-.9c.55 0 1 .45 1 1c0 .07-.01.18-.01.31c-.04.53.34.99.87 1.06"/></symbol><symbol id="hd-icon-ic-round-source" viewBox="0 0 24 24"><path fill="currentColor" d="M20 6h-8l-1.41-1.41C10.21 4.21 9.7 4 9.17 4H4c-1.1 0-1.99.9-1.99 2L2 18c0 1.1.9 2 2 2h16c1.1 0 2-.9 2-2V8c0-1.1-.9-2-2-2m-6 10H6v-2h8zm4-4H6v-2h12z"/></symbol><symbol id="hd-icon-ic-round-south" viewBox="0 0 24 24"><path fill="currentColor" d="M18.3 14.29a.996.996 0 0 0-1.41 0L13 18.17V3c0-.55-.45-1-1-1s-1 .45-1 1v15.18L7.12 14.3a.996.996 0 1 0-1.41 1.41l5.59 5.59c.39.39 1.02.39 1.41 0l5.59-5.59c.38-.39.38-1.03 0-1.42"/></symbol><symbol id="hd-icon-ic-round-south-america" viewBox="0 0 24 24"><path fill="currentColor" d="M12 2C6.48 2 2 6.48 2 12s4.48 10 10 10s10-4.48 10-10S17.52 2 12 2M4 12c0-1.95.7-3.74 1.87-5.13L9 10v1c0 1.1.9 2 2 2v5.59c0 .27.11.52.29.71l.71.7c-4.42 0-8-3.58-8-8m9 7.94V18l3.75-5.62c.16-.25.25-.54.25-.83V10.5c0-.55-.45-1-1-1h-1.5l-1.4-1.75c-.38-.47-.95-.75-1.56-.75H8V5.07A7.97 7.97 0 0 1 12 4c4.41 0 8 3.59 8 8c0 4.07-3.06 7.44-7 7.94"/></symbol><symbol id="hd-icon-ic-round-south-east" viewBox="0 0 24 24"><path fill="currentColor" d="M18 9c-.56 0-1 .45-1 1v5.59L6.12 4.7a.996.996 0 1 0-1.41 1.41L15.59 17H10c-.55 0-1 .45-1 1s.45 1 1 1h8c.55 0 1-.45 1-1v-8c0-.55-.45-1-1-1"/></symbol><symbol id="hd-icon-ic-round-south-west" viewBox="0 0 24 24"><path fill="currentColor" d="M15 18c0-.56-.45-1-1-1H8.41L19.3 6.11a.996.996 0 1 0-1.41-1.41L7 15.59V10c0-.55-.45-1-1-1s-1 .45-1 1v8c0 .55.45 1 1 1h8c.55 0 1-.45 1-1"/></symbol><symbol id="hd-icon-ic-round-spa" viewBox="0 0 24 24"><path fill="currentColor" d="M15.49 9.63c-.16-2.42-1.03-4.79-2.64-6.76c-.41-.5-1.16-.5-1.57 0a12.1 12.1 0 0 0-2.77 6.76c1.28.68 2.46 1.56 3.49 2.63c1.03-1.06 2.21-1.94 3.49-2.63m-6.5 2.65c-.14-.1-.3-.19-.45-.29c.15.11.31.19.45.29m6.42-.25c-.13.09-.27.16-.4.26c.13-.1.27-.17.4-.26M12 15.45c-1.95-2.97-5.14-5.03-8.83-5.39c-.64-.06-1.17.47-1.11 1.11c.45 4.8 3.65 8.78 7.98 10.33c.63.23 1.29.4 1.97.51c.68-.12 1.33-.29 1.97-.51c4.33-1.55 7.53-5.52 7.98-10.33a1.02 1.02 0 0 0-1.11-1.11c-3.71.36-6.9 2.42-8.85 5.39"/></symbol><symbol id="hd-icon-ic-round-space-bar" viewBox="0 0 24 24"><path fill="currentColor" d="M18 10v3H6v-3c0-.55-.45-1-1-1s-1 .45-1 1v4c0 .55.45 1 1 1h14c.55 0 1-.45 1-1v-4c0-.55-.45-1-1-1s-1 .45-1 1"/></symbol><symbol id="hd-icon-ic-round-space-dashboard" viewBox="0 0 24 24"><path fill="currentColor" d="M9 21H5c-1.1 0-2-.9-2-2V5c0-1.1.9-2 2-2h4c1.1 0 2 .9 2 2v14c0 1.1-.9 2-2 2m6 0h4c1.1 0 2-.9 2-2v-5c0-1.1-.9-2-2-2h-4c-1.1 0-2 .9-2 2v5c0 1.1.9 2 2 2m6-13V5c0-1.1-.9-2-2-2h-4c-1.1 0-2 .9-2 2v3c0 1.1.9 2 2 2h4c1.1 0 2-.9 2-2"/></symbol><symbol id="hd-icon-ic-round-spatial-audio" viewBox="0 0 24 24"><path fill="currentColor" d="M22.11 7.95c-1.89-.23-5.57-1.83-6.09-6.09a.976.976 0 0 0-.98-.86c-.6 0-1.07.53-1 1.13c.31 2.43 2.38 7.12 7.8 7.8c.6.08 1.13-.4 1.13-1c0-.5-.37-.92-.86-.98m-.4-2.12a1 1 0 0 0 1.26-.97c0-.47-.34-.85-.79-.97c-.49-.14-1.72-.68-2.11-2.13c-.12-.44-.5-.76-.96-.76h-.01c-.66 0-1.14.64-.96 1.28c.6 2.22 2.44 3.25 3.57 3.55"/><circle cx="10" cy="9" r="4" fill="currentColor"/><path fill="currentColor" d="M16.39 15.56C14.71 14.7 12.53 14 10 14s-4.71.7-6.39 1.56A2.97 2.97 0 0 0 2 18.22V21h16v-2.78c0-1.12-.61-2.15-1.61-2.66"/></symbol><symbol id="hd-icon-ic-round-spatial-audio-off" viewBox="0 0 24 24"><circle cx="10" cy="9" r="4" fill="currentColor"/><path fill="currentColor" d="M16.39 15.56C14.71 14.7 12.53 14 10 14s-4.71.7-6.39 1.56A2.97 2.97 0 0 0 2 18.22V19c0 1.1.9 2 2 2h12c1.1 0 2-.9 2-2v-.78c0-1.12-.61-2.15-1.61-2.66m4.72-13.71a.997.997 0 0 0-1.5-.09c-.35.35-.39.91-.09 1.3c1.17 1.5 2.64 5.23 0 8.61c-.3.39-.26.95.09 1.3c.43.43 1.13.38 1.5-.09c1.5-1.93 3.35-6.72 0-11.03m-2.8 2.99a1.01 1.01 0 0 0-1.58-.21c-.33.33-.36.84-.13 1.25c.25.44.74 1.69-.01 2.99c-.23.4-.19.9.14 1.22c.47.47 1.25.35 1.58-.22c1.16-1.99.58-4.02 0-5.03"/></symbol><symbol id="hd-icon-ic-round-spatial-tracking" viewBox="0 0 24 24"><circle cx="10" cy="9" r="4" fill="currentColor"/><path fill="currentColor" d="M16.39 15.56C14.71 14.7 12.53 14 10 14s-4.71.7-6.39 1.56A2.97 2.97 0 0 0 2 18.22V21h16v-2.78c0-1.12-.61-2.15-1.61-2.66m3-13.8c-.43-.43-1.14-.39-1.51.09c-1.5 1.93-3.35 6.72 0 11.03c.37.48 1.08.52 1.5.09c.35-.35.39-.91.09-1.3c-1.17-1.5-2.64-5.23 0-8.61a.98.98 0 0 0-.08-1.3m3.01 4.1c.23-.4.19-.9-.14-1.22c-.47-.48-1.26-.37-1.59.21c-1.15 2-.57 4.03.01 5.04c.33.57 1.11.67 1.58.21c.33-.33.36-.84.13-1.25c-.25-.44-.74-1.69.01-2.99"/></symbol><symbol id="hd-icon-ic-round-speaker" viewBox="0 0 24 24"><path fill="currentColor" d="M17 2H7c-1.1 0-2 .9-2 2v16c0 1.1.9 1.99 2 1.99L17 22c1.1 0 2-.9 2-2V4c0-1.1-.9-2-2-2m-5 2c1.1 0 2 .9 2 2s-.9 2-2 2a2 2 0 1 1 0-4m0 16c-2.76 0-5-2.24-5-5s2.24-5 5-5s5 2.24 5 5s-2.24 5-5 5m0-8c-1.66 0-3 1.34-3 3s1.34 3 3 3s3-1.34 3-3s-1.34-3-3-3"/></symbol><symbol id="hd-icon-ic-round-speaker-group" viewBox="0 0 24 24"><path fill="currentColor" d="M18.2 1H9.8C8.81 1 8 1.81 8 2.8v14.4c0 .99.81 1.79 1.8 1.79l8.4.01c.99 0 1.8-.81 1.8-1.8V2.8c0-.99-.81-1.8-1.8-1.8M14 3c1.1 0 2 .89 2 2s-.9 2-2 2s-2-.89-2-2s.9-2 2-2m0 13.5c-2.21 0-4-1.79-4-4s1.79-4 4-4s4 1.79 4 4s-1.79 4-4 4"/><circle cx="14" cy="12.5" r="2.5" fill="currentColor"/><path fill="currentColor" d="M5 5c-.55 0-1 .45-1 1v15a2 2 0 0 0 2 2h9c.55 0 1-.45 1-1s-.45-1-1-1H7c-.55 0-1-.45-1-1V6c0-.55-.45-1-1-1"/></symbol><symbol id="hd-icon-ic-round-speaker-notes" viewBox="0 0 24 24"><path fill="currentColor" d="M20 2H4c-1.1 0-1.99.9-1.99 2L2 22l4-4h14c1.1 0 2-.9 2-2V4c0-1.1-.9-2-2-2M8 14H6v-2h2zm0-3H6V9h2zm0-3H6V6h2zm6 6h-3c-.55 0-1-.45-1-1s.45-1 1-1h3c.55 0 1 .45 1 1s-.45 1-1 1m3-3h-6c-.55 0-1-.45-1-1s.45-1 1-1h6c.55 0 1 .45 1 1s-.45 1-1 1m0-3h-6c-.55 0-1-.45-1-1s.45-1 1-1h6c.55 0 1 .45 1 1s-.45 1-1 1"/></symbol><symbol id="hd-icon-ic-round-speaker-notes-off" viewBox="0 0 24 24"><path fill="currentColor" d="M1.91 2.36c-.35-.35-.92-.35-1.27 0s-.35.92 0 1.27l1.38 1.38L2 22l4-4h9l5.09 5.09c.35.35.92.35 1.27 0s.35-.92 0-1.27zM7 14c-.55 0-1-.45-1-1s.45-1 1-1s1 .45 1 1s-.45 1-1 1m0-3c-.55 0-1-.45-1-1s.45-1 1-1s1 .45 1 1s-.45 1-1 1m13-9H4.08l7 7H17c.55 0 1 .45 1 1s-.45 1-1 1h-3.92l6.99 6.99C21.14 17.95 22 17.08 22 16V4c0-1.1-.9-2-2-2m-3 6h-6c-.55 0-1-.45-1-1s.45-1 1-1h6c.55 0 1 .45 1 1s-.45 1-1 1"/></symbol></svg>