<svg xmlns="http://www.w3.org/2000/svg" xmlns:xlink="http://www.w3.org/1999/xlink"><symbol id="hd-icon-ic-twotone-format-color-text" viewBox="0 0 24 24"><path fill="currentColor" d="M2 20h20v4H2zm3.49-3h2.42l1.27-3.58h5.65L16.09 17h2.42L13.25 3h-2.5zm4.42-5.61l2.03-5.79h.12l2.03 5.79z"/></symbol><symbol id="hd-icon-ic-twotone-format-indent-decrease" viewBox="0 0 24 24"><path fill="currentColor" d="M7 16V8l-4 4zm4-9h10v2H11zm0 4h10v2H11zm0 4h10v2H11zm-8 4h18v2H3zM3 3h18v2H3z"/></symbol><symbol id="hd-icon-ic-twotone-format-indent-increase" viewBox="0 0 24 24"><path fill="currentColor" d="M3 19h18v2H3zM3 3h18v2H3zm8 4h10v2H11zM3 8v8l4-4zm8 3h10v2H11zm0 4h10v2H11z"/></symbol><symbol id="hd-icon-ic-twotone-format-italic" viewBox="0 0 24 24"><path fill="currentColor" d="M6 15v3h8v-3h-2.21l3.42-8H18V4h-8v3h2.21l-3.42 8z"/></symbol><symbol id="hd-icon-ic-twotone-format-line-spacing" viewBox="0 0 24 24"><path fill="currentColor" d="M10 5h12v2H10zm0 12h12v2H10zm-8.5 0L5 20.5L8.5 17H6V7h2.5L5 3.5L1.5 7H4v10zm8.5-6h12v2H10z"/></symbol><symbol id="hd-icon-ic-twotone-format-list-bulleted" viewBox="0 0 24 24"><path fill="currentColor" d="M7 5h14v2H7z"/><circle cx="4" cy="6" r="1.5" fill="currentColor"/><path fill="currentColor" d="M7 11h14v2H7zm0 6h14v2H7zm-3 2.5c.82 0 1.5-.68 1.5-1.5s-.67-1.5-1.5-1.5s-1.5.68-1.5 1.5s.68 1.5 1.5 1.5"/><circle cx="4" cy="12" r="1.5" fill="currentColor"/></symbol><symbol id="hd-icon-ic-twotone-format-list-numbered" viewBox="0 0 24 24"><path fill="currentColor" d="M5 13H3.2L5 10.9V10H2v1h1.8L2 13.1v.9h3zm2-8h14v2H7zM5 16H2v1h2v.5H3v1h1v.5H2v1h3zm2 1h14v2H7zM3 8h1V4H2v1h1zm4 3h14v2H7z"/></symbol><symbol id="hd-icon-ic-twotone-format-list-numbered-rtl" viewBox="0 0 24 24"><path fill="currentColor" d="M2 11h14v2H2zm16 6h2v.5h-1v1h1v.5h-2v1h3v-4h-3zm0-6h1.8L18 13.1v.9h3v-1h-1.8l1.8-2.1V10h-3zm2-3V4h-2v1h1v3zM2 17h14v2H2zM2 5h14v2H2z"/></symbol><symbol id="hd-icon-ic-twotone-format-overline" viewBox="0 0 24 24"><path fill="currentColor" d="M19 3v2H5V3zm-7 4c-3.87 0-7 3.13-7 7s3.13 7 7 7s7-3.13 7-7s-3.13-7-7-7m0 11.5c-2.49 0-4.5-2.01-4.5-4.5S9.51 9.5 12 9.5s4.5 2.01 4.5 4.5s-2.01 4.5-4.5 4.5"/></symbol><symbol id="hd-icon-ic-twotone-format-paint" viewBox="0 0 24 24"><path fill="currentColor" d="M6 4h10v2H6z" opacity=".3"/><path fill="currentColor" d="M17 2H5c-.55 0-1 .45-1 1v4c0 .55.45 1 1 1h12c.55 0 1-.45 1-1V6h1v4H9v11c0 .55.45 1 1 1h2c.55 0 1-.45 1-1v-9h8V4h-3V3c0-.55-.45-1-1-1m-1 4H6V4h10z"/></symbol><symbol id="hd-icon-ic-twotone-format-quote" viewBox="0 0 24 24"><path fill="currentColor" d="M16.62 16h.76L19 12.76V8h-4v4h3.62zm-10 0h.76L9 12.76V8H5v4h3.62z" opacity=".3"/><path fill="currentColor" d="M18.62 18L21 13.24V6h-8v8h2.38l-2 4zM15 12V8h4v4.76L17.38 16h-.76l2-4zM3.38 18h5.24L11 13.24V6H3v8h2.38zM5 12V8h4v4.76L7.38 16h-.76l2-4z"/></symbol><symbol id="hd-icon-ic-twotone-format-shapes" viewBox="0 0 24 24"><path fill="currentColor" d="M3 3h2v2H3zm16 16h2v2h-2zm0-16h2v2h-2zM3 19h2v2H3z" opacity=".3"/><path fill="currentColor" d="m11.29 7l-3.4 9h1.62l.73-2h3.49l.74 2h1.63l-3.41-9zm-.6 5.74L12 8.91l1.3 3.83zM17 3H7V1H1v6h2v10H1v6h6v-2h10v2h6v-6h-2V7h2V1h-6zM3 3h2v2H3zm2 18H3v-2h2zm16 0h-2v-2h2zM19 3h2v2h-2zm0 14h-2v2H7v-2H5V7h2V5h10v2h2z"/></symbol><symbol id="hd-icon-ic-twotone-format-size" viewBox="0 0 24 24"><path fill="currentColor" d="M3 12h3v7h3v-7h3V9H3zm6-5h5v12h3V7h5V4H9z"/></symbol><symbol id="hd-icon-ic-twotone-format-strikethrough" viewBox="0 0 24 24"><path fill="currentColor" d="M3 12h18v2H3zm11-2V7h5V4H5v3h5v3zm-4 6h4v3h-4z"/></symbol><symbol id="hd-icon-ic-twotone-format-textdirection-l-to-r" viewBox="0 0 24 24"><path fill="currentColor" d="M9 8V4c-1.1 0-2 .9-2 2s.9 2 2 2" opacity=".3"/><path fill="currentColor" d="M9 10v5h2V4h2v11h2V4h2V2H9C6.79 2 5 3.79 5 6s1.79 4 4 4m0-6v4c-1.1 0-2-.9-2-2s.9-2 2-2m12 14l-4-4v3H5v2h12v3z"/></symbol><symbol id="hd-icon-ic-twotone-format-textdirection-r-to-l" viewBox="0 0 24 24"><path fill="currentColor" d="M8 6c0 1.1.9 2 2 2V4c-1.1 0-2 .9-2 2" opacity=".3"/><path fill="currentColor" d="M6 6c0 2.21 1.79 4 4 4v5h2V4h2v11h2V4h2V2h-8C7.79 2 6 3.79 6 6m4 2c-1.1 0-2-.9-2-2s.9-2 2-2zM4 18l4 4v-3h12v-2H8v-3z"/></symbol><symbol id="hd-icon-ic-twotone-format-underlined" viewBox="0 0 24 24"><path fill="currentColor" d="M5 19h14v2H5zM6 3v8c0 3.31 2.69 6 6 6s6-2.69 6-6V3h-2.5v8c0 1.93-1.57 3.5-3.5 3.5S8.5 12.93 8.5 11V3z"/></symbol><symbol id="hd-icon-ic-twotone-fort" viewBox="0 0 24 24"><path fill="currentColor" d="M19 8.17L20.17 7h-4.34L17 8.17V12H7V8.17L8.17 7H3.83L5 8.17v7.66l-2 2V19h5v-1c0-2.21 1.79-4 4-4s4 1.79 4 4v1h5v-1.17l-2-2z" opacity=".3"/><path fill="currentColor" d="M23 7V3h-2v2h-2V3h-2v2h-2V3h-2v4l2 2v1H9V9l2-2V3H9v2H7V3H5v2H3V3H1v4l2 2v6l-2 2v4h9v-3c0-1.1.9-2 2-2s2 .9 2 2v3h9v-4l-2-2V9zm-2 12h-5v-1c0-2.21-1.79-4-4-4s-4 1.79-4 4v1H3v-1.17l2-2V8.17L3.83 7h4.34L7 8.17V12h10V8.17L15.83 7h4.34L19 8.17v7.66l2 2z"/></symbol><symbol id="hd-icon-ic-twotone-forum" viewBox="0 0 24 24"><path fill="currentColor" d="M15 11V4H4v8.17L5.17 11H6z" opacity=".3"/><path fill="currentColor" d="M16 13c.55 0 1-.45 1-1V3c0-.55-.45-1-1-1H3c-.55 0-1 .45-1 1v14l4-4zm-12-.83V4h11v7H5.17zM22 7c0-.55-.45-1-1-1h-2v9H6v2c0 .55.45 1 1 1h11l4 4z"/></symbol><symbol id="hd-icon-ic-twotone-forward" viewBox="0 0 24 24"><path fill="currentColor" d="M14 14v1.17L17.17 12L14 8.83V10H6v4z" opacity=".3"/><path fill="currentColor" d="m20 12l-8-8v4H4v8h8v4zM6 14v-4h8V8.83L17.17 12L14 15.17V14z"/></symbol><symbol id="hd-icon-ic-twotone-forward-10" viewBox="0 0 24 24"><path fill="currentColor" d="M18 13c0 3.31-2.69 6-6 6s-6-2.69-6-6s2.69-6 6-6v4l5-5l-5-5v4c-4.42 0-8 3.58-8 8s3.58 8 8 8s8-3.58 8-8z"/><path fill="currentColor" d="M10.9 16v-4.27h-.09l-1.77.63v.69l1.01-.31V16zm3.42-4.22c-.18-.07-.37-.1-.59-.1s-.41.03-.59.1s-.33.18-.45.33s-.23.34-.29.57s-.1.5-.1.82v.74c0 .32.04.6.11.82s.17.42.3.57s.28.26.46.33s.37.1.59.1s.41-.03.59-.1s.33-.18.45-.33s.22-.34.29-.57s.1-.5.1-.82v-.74c0-.32-.04-.6-.11-.82s-.17-.42-.3-.57s-.29-.26-.46-.33m.01 2.57c0 .19-.01.35-.04.48s-.06.24-.11.32s-.11.14-.19.17s-.16.05-.25.05s-.18-.02-.25-.05s-.14-.09-.19-.17s-.09-.19-.12-.32s-.04-.29-.04-.48v-.97c0-.19.01-.35.04-.48s.06-.23.12-.31s.11-.14.19-.17s.16-.05.25-.05s.18.02.25.05s.14.09.19.17s.09.18.12.31s.04.29.04.48v.97z"/></symbol><symbol id="hd-icon-ic-twotone-forward-30" viewBox="0 0 24 24"><path fill="currentColor" d="M18 13c0 3.31-2.69 6-6 6s-6-2.69-6-6s2.69-6 6-6v4l5-5l-5-5v4c-4.42 0-8 3.58-8 8s3.58 8 8 8s8-3.58 8-8zm-7.46 2.22c-.06.05-.12.09-.2.12s-.17.04-.27.04a.7.7 0 0 1-.45-.15c-.06-.05-.1-.1-.13-.17s-.05-.14-.05-.22h-.85c0 .21.04.39.12.55s.19.28.33.38s.29.18.46.23s.35.07.53.07c.21 0 .41-.03.6-.08s.34-.14.48-.24s.24-.24.32-.39s.12-.33.12-.53c0-.23-.06-.44-.18-.61s-.3-.3-.54-.39c.1-.05.2-.1.28-.17s.15-.14.2-.22s.1-.16.13-.25s.04-.18.04-.27c0-.2-.04-.37-.11-.53s-.17-.28-.3-.38s-.28-.18-.46-.23s-.37-.08-.59-.08c-.19 0-.38.03-.54.08s-.32.13-.44.23s-.23.22-.3.37s-.11.3-.11.48h.85a.46.46 0 0 1 .17-.35c.05-.04.11-.07.18-.1s.14-.03.22-.03c.1 0 .18.01.25.04s.13.06.18.11s.08.11.11.17s.04.14.04.22c0 .18-.05.32-.16.43s-.26.16-.48.16h-.43v.66h.45c.11 0 .2.01.29.04s.16.06.22.11s.11.12.14.2s.05.18.05.29c0 .09-.01.17-.04.24s-.08.11-.13.17m3.9-3.44c-.18-.07-.37-.1-.59-.1s-.41.03-.59.1s-.33.18-.45.33s-.23.34-.29.57s-.1.5-.1.82v.74c0 .32.04.6.11.82s.17.42.3.57s.28.26.46.33s.37.1.59.1s.41-.03.59-.1s.33-.18.45-.33s.22-.34.29-.57s.1-.5.1-.82v-.74c0-.32-.04-.6-.11-.82s-.17-.42-.3-.57s-.28-.26-.46-.33m.01 2.57c0 .19-.01.35-.04.48s-.06.24-.11.32s-.11.14-.19.17s-.16.05-.25.05s-.18-.02-.25-.05s-.14-.09-.19-.17s-.09-.19-.12-.32s-.04-.29-.04-.48v-.97c0-.19.01-.35.04-.48s.06-.23.12-.31s.11-.14.19-.17s.16-.05.25-.05s.18.02.25.05s.14.09.19.17s.09.18.12.31s.04.29.04.48v.97z"/></symbol><symbol id="hd-icon-ic-twotone-forward-5" viewBox="0 0 24 24"><path fill="currentColor" d="M17.95 13c0 3.31-2.69 6-6 6s-6-2.69-6-6s2.69-6 6-6v4l5-5l-5-5v4c-4.42 0-8 3.58-8 8s3.58 8 8 8s8-3.58 8-8zm-5.52 2.15c-.05.07-.11.13-.18.17s-.17.06-.27.06q-.255 0-.42-.15c-.165-.15-.17-.24-.19-.41h-.84c.01.2.05.37.13.53s.19.28.32.39s.29.19.46.24s.35.08.53.08c.24 0 .46-.04.64-.12s.33-.18.45-.31s.21-.28.27-.45s.09-.35.09-.54c0-.22-.03-.43-.09-.6s-.14-.33-.25-.45s-.25-.22-.41-.28s-.34-.1-.55-.1c-.07 0-.14.01-.2.02s-.13.02-.18.04s-.1.03-.15.05s-.08.04-.11.05l.11-.92h1.7v-.71H10.9l-.25 2.17l.67.17c.03-.03.06-.06.1-.09s.07-.05.12-.07s.1-.04.15-.05s.13-.02.2-.02c.12 0 .22.02.3.05s.16.09.21.15s.1.14.13.24s.04.19.04.31s-.01.22-.03.31s-.06.17-.11.24"/></symbol><symbol id="hd-icon-ic-twotone-forward-to-inbox" viewBox="0 0 24 24"><path fill="currentColor" d="M13 18H4V8l8 5l8-5v5h-2c-2.76 0-5 2.24-5 5m-1-7L4 6h16z" opacity=".3"/><path fill="currentColor" d="M20 4H4c-1.1 0-2 .9-2 2v12c0 1.1.9 2 2 2h9v-2H4V8l8 5l8-5v5h2V6c0-1.1-.9-2-2-2m-8 7L4 6h16zm7 4l4 4l-4 4v-3h-4v-2h4z"/></symbol><symbol id="hd-icon-ic-twotone-foundation" viewBox="0 0 24 24"><path fill="currentColor" d="M7 15v-4.81l4-3.6V15zm6 0V6.59l4 3.6V15z" opacity=".3"/><path fill="currentColor" d="M19 12h3L12 3L2 12h3v3H3v2h2v3h2v-3h4v3h2v-3h4v3h2v-3h2v-2h-2zM7 15v-4.81l4-3.6V15zm6 0V6.59l4 3.6V15z"/></symbol><symbol id="hd-icon-ic-twotone-free-breakfast" viewBox="0 0 24 24"><path fill="currentColor" d="M6 13c0 1.1.9 2 2 2h6c1.1 0 2-.9 2-2V5H6z" opacity=".3"/><path fill="currentColor" d="M4 19h16v2H4zM20 3H4v10c0 2.21 1.79 4 4 4h6c2.21 0 4-1.79 4-4v-3h2a2 2 0 0 0 2-2V5c0-1.11-.89-2-2-2m-4 10c0 1.1-.9 2-2 2H8c-1.1 0-2-.9-2-2V5h10zm4-5h-2V5h2z"/></symbol><symbol id="hd-icon-ic-twotone-free-cancellation" viewBox="0 0 24 24"><path fill="currentColor" d="M5 6h14v2H5z" opacity=".3"/><path fill="currentColor" d="M11.21 20H5V10h14v4.38l2-2V6c0-1.1-.9-2-2-2h-1V2h-2v2H8V2H6v2H5c-1.11 0-1.99.9-1.99 2L3 20a2 2 0 0 0 2 2h8.21zM5 6h14v2H5zm11.54 16.5L13 18.96l1.41-1.41l2.12 2.12l4.24-4.24l1.41 1.41zM10.41 14L12 15.59L10.59 17L9 15.41L7.41 17L6 15.59L7.59 14L6 12.41L7.41 11L9 12.59L10.59 11L12 12.41z"/></symbol><symbol id="hd-icon-ic-twotone-front-hand" viewBox="0 0 24 24"><path fill="currentColor" d="M19 15.5a6.5 6.5 0 1 1-13 0V7c0-.28.22-.5.5-.5s.5.22.5.5v5h2V4c0-.28.22-.5.5-.5s.5.22.5.5v7h2V2.5c0-.28.22-.5.5-.5s.5.22.5.5V11h2V4.5c0-.28.22-.5.5-.5s.5.22.5.5v8.92c-1.77.77-3 2.53-3 4.58h2c0-1.66 1.34-3 3-3v-4.5c0-.28.22-.5.5-.5s.5.22.5.5z" opacity=".3"/><path fill="currentColor" d="M18.5 8c-.17 0-.34.02-.5.05V4.5a2.5 2.5 0 0 0-3.04-2.44A2.5 2.5 0 0 0 12.5 0c-1.06 0-1.96.66-2.33 1.59A2.5 2.5 0 0 0 7 4v.55A2.5 2.5 0 0 0 4 7v8.5c0 4.69 3.81 8.5 8.5 8.5s8.5-3.81 8.5-8.5v-5A2.5 2.5 0 0 0 18.5 8m.5 7.5a6.5 6.5 0 1 1-13 0V7c0-.28.22-.5.5-.5s.5.22.5.5v5h2V4c0-.28.22-.5.5-.5s.5.22.5.5v7h2V2.5c0-.28.22-.5.5-.5s.5.22.5.5V11h2V4.5c0-.28.22-.5.5-.5s.5.22.5.5v8.92c-1.77.77-3 2.53-3 4.58h2c0-1.66 1.34-3 3-3v-4.5c0-.28.22-.5.5-.5s.5.22.5.5z"/></symbol><symbol id="hd-icon-ic-twotone-fullscreen" viewBox="0 0 24 24"><path fill="currentColor" d="M7 14H5v5h5v-2H7zm-2-4h2V7h3V5H5zm12 7h-3v2h5v-5h-2zM14 5v2h3v3h2V5z"/></symbol><symbol id="hd-icon-ic-twotone-fullscreen-exit" viewBox="0 0 24 24"><path fill="currentColor" d="M5 16h3v3h2v-5H5zm3-8H5v2h5V5H8zm6 11h2v-3h3v-2h-5zm2-11V5h-2v5h5V8z"/></symbol><symbol id="hd-icon-ic-twotone-functions" viewBox="0 0 24 24"><path fill="currentColor" d="M18 17h-7l5-5l-5-5h7V4H6v2l6.5 6L6 18v2h12z"/></symbol><symbol id="hd-icon-ic-twotone-g-mobiledata" viewBox="0 0 24 24"><path fill="currentColor" d="M12 11v2h2v2H9V9h7c0-1.1-.9-2-2-2H9c-1.1 0-2 .9-2 2v6c0 1.1.9 2 2 2h5c1.1 0 2-.9 2-2v-4z"/></symbol><symbol id="hd-icon-ic-twotone-g-translate" viewBox="0 0 24 24"><path fill="currentColor" d="M20 5h-9.12L10 2H4c-1.1 0-2 .9-2 2v13c0 1.1.9 2 2 2h7l1 3h8c1.1 0 2-.9 2-2V7c0-1.1-.9-2-2-2M7.17 14.59c-2.25 0-4.09-1.83-4.09-4.09s1.83-4.09 4.09-4.09c1.04 0 1.99.37 2.74 1.07l.07.06l-1.23 1.18l-.06-.05c-.29-.27-.78-.59-1.52-.59c-1.31 0-2.38 1.09-2.38 2.42s1.07 2.42 2.38 2.42c1.37 0 1.96-.87 2.12-1.46H7.08V9.91h3.95l.01.07c.04.21.05.4.05.61c0 2.35-1.61 4-3.92 4m5.5-3.51h3.99s-.34 1.31-1.56 2.74c-.52-.62-.89-1.23-1.13-1.7h-.99zm1.72 3.5l-.54.53l-.65-2.23c.33.6.74 1.18 1.19 1.7M21 20c0 .55-.45 1-1 1h-7l2-2l-.81-2.77l.92-.92L17.79 18l.73-.73l-2.71-2.68c.9-1.03 1.6-2.25 1.92-3.51H19v-1.04h-3.64V9h-1.04v1.04h-1.96L11.18 6H20c.55 0 1 .45 1 1z"/></symbol><symbol id="hd-icon-ic-twotone-gamepad" viewBox="0 0 24 24"><path fill="currentColor" d="M6.67 11H4v2h2.67l1-1zM13 6.67V4h-2v2.67l1 1zm-2 10.66V20h2v-2.67l-1-1zM16.33 12l1 1H20v-2h-2.67z" opacity=".3"/><path fill="currentColor" d="M9 16.5V22h6v-5.5l-3-3zm4 3.5h-2v-2.67l1-1l1 1zm2-12.5V2H9v5.5l3 3zM11 4h2v2.67l-1 1l-1-1zM7.5 9H2v6h5.5l3-3zm-.83 4H4v-2h2.67l1 1zm9.83-4l-3 3l3 3H22V9zm3.5 4h-2.67l-1-1l1-1H20z"/></symbol><symbol id="hd-icon-ic-twotone-games" viewBox="0 0 24 24"><path fill="currentColor" d="M11 17.33V20h2v-2.67l-1-1zm2-10.66V4h-2v2.67l1 1zM16.33 12l1 1H20v-2h-2.67zM4 11v2h2.67l1-1l-1-1z" opacity=".3"/><path fill="currentColor" d="M2 9v6h5.5l3-3l-3-3zm4.67 4H4v-2h2.67l1 1zM22 9h-5.5l-3 3l3 3H22zm-2 4h-2.67l-1-1l1-1H20zm-5 3.5l-3-3l-3 3V22h6zM13 20h-2v-2.67l1-1l1 1zM9 7.5l3 3l3-3V2H9zM11 4h2v2.67l-1 1l-1-1z"/></symbol><symbol id="hd-icon-ic-twotone-garage" viewBox="0 0 24 24"><path fill="currentColor" d="M17 11.51v-.01H7v3h10zM9 14c-.55 0-1-.45-1-1s.45-1 1-1s1 .45 1 1s-.45 1-1 1m6 0c-.55 0-1-.45-1-1s.45-1 1-1s1 .45 1 1s-.45 1-1 1" opacity=".3"/><path fill="currentColor" d="M4 20h16V4H4zm1-8.81c.82-2.47 1.34-4.03 1.56-4.69c.05-.16.12-.29.19-.4c.02-.02.03-.04.05-.06c.38-.53.92-.54.92-.54h8.56s.54.01.92.53c.02.03.03.05.05.07c.07.11.14.24.19.4c.22.66.74 2.23 1.56 4.69v6.5c0 .45-.35.81-.78.81h-.44c-.44 0-.78-.36-.78-.81V16.5H7v1.19c0 .45-.35.81-.78.81h-.44c-.43 0-.78-.36-.78-.81z" opacity=".3"/><path fill="currentColor" d="M20 2H4c-1.1 0-2 .9-2 2v16c0 1.1.9 2 2 2h16c1.1 0 2-.9 2-2V4c0-1.1-.9-2-2-2m0 18H4V4h16z"/><circle cx="9" cy="13" r="1" fill="currentColor"/><circle cx="15" cy="13" r="1" fill="currentColor"/><path fill="currentColor" d="M5.78 18.5h.44c.43 0 .78-.36.78-.81V16.5h10v1.19c0 .45.34.81.78.81h.44c.43 0 .78-.36.78-.81v-6.5c-.82-2.46-1.34-4.03-1.56-4.69c-.05-.16-.12-.29-.19-.4c-.02-.02-.03-.04-.05-.07c-.38-.52-.92-.53-.92-.53H7.72s-.54.01-.92.54c-.02.02-.03.04-.05.06c-.07.11-.14.24-.19.4c-.22.66-.74 2.22-1.56 4.69v6.5c0 .45.35.81.78.81m2.55-11h7.34l.23.69l.43 1.31H7.67zM7 11.51v-.01h10v3H7z"/></symbol><symbol id="hd-icon-ic-twotone-gas-meter" viewBox="0 0 24 24"><path fill="currentColor" d="M16 6H8c-1.1 0-2 .9-2 2v10c0 1.1.9 2 2 2h8c1.1 0 2-.9 2-2V8c0-1.1-.9-2-2-2m-4 12c-1.38 0-2.5-1.1-2.5-2.46c0-1.09.43-1.39 2.5-3.79c2.05 2.38 2.5 2.7 2.5 3.79C14.5 16.9 13.38 18 12 18m4-8H8V8h8z" opacity=".3"/><path fill="currentColor" d="M16 4h-1V2h-2v2h-2V2H9v2H8C5.79 4 4 5.79 4 8v10c0 2.21 1.79 4 4 4h8c2.21 0 4-1.79 4-4V8c0-2.21-1.79-4-4-4m2 14c0 1.1-.9 2-2 2H8c-1.1 0-2-.9-2-2V8c0-1.1.9-2 2-2h8c1.1 0 2 .9 2 2z"/><path fill="currentColor" d="M9.5 15.54C9.5 16.9 10.62 18 12 18s2.5-1.1 2.5-2.46c0-1.09-.45-1.41-2.5-3.79c-2.07 2.4-2.5 2.71-2.5 3.79M8 8h8v2H8z"/></symbol><symbol id="hd-icon-ic-twotone-gavel" viewBox="0 0 24 24"><path fill="currentColor" d="M1 21h12v2H1zM5.24 8.07l2.83-2.83l14.14 14.14l-2.83 2.83zM12.32 1l5.66 5.66l-2.83 2.83l-5.66-5.66zM3.83 9.48l5.66 5.66l-2.83 2.83L1 12.31z"/></symbol><symbol id="hd-icon-ic-twotone-generating-tokens" viewBox="0 0 24 24"><path fill="currentColor" d="M9 6c-3.31 0-6 2.69-6 6s2.69 6 6 6s6-2.69 6-6s-2.69-6-6-6m3 4.5h-2v5H8v-5H6V9h6z" opacity=".3"/><path fill="currentColor" d="M9 4c-4.42 0-8 3.58-8 8s3.58 8 8 8s8-3.58 8-8s-3.58-8-8-8m0 14c-3.31 0-6-2.69-6-6s2.69-6 6-6s6 2.69 6 6s-2.69 6-6 6m3-7.5h-2v5H8v-5H6V9h6zm8.25-6.75L23 5l-2.75 1.25L19 9l-1.25-2.75L15 5l2.75-1.25L19 1zm0 14L23 19l-2.75 1.25L19 23l-1.25-2.75L15 19l2.75-1.25L19 15z"/></symbol><symbol id="hd-icon-ic-twotone-gesture" viewBox="0 0 24 24"><path fill="currentColor" d="M4.59 6.89c.7-.71 1.4-1.35 1.71-1.22c.5.2 0 1.03-.3 1.52c-.25.42-2.86 3.89-2.86 6.31c0 1.28.48 2.34 1.34 2.98c.75.56 1.74.73 2.64.46c1.07-.31 1.95-1.4 3.06-2.77c1.21-1.49 2.83-3.44 4.08-3.44c1.63 0 1.65 1.01 1.76 1.79c-3.78.64-5.38 3.67-5.38 5.37s1.44 3.09 3.21 3.09c1.63 0 4.29-1.33 4.69-6.1H21v-2.5h-2.47c-.15-1.65-1.09-4.2-4.03-4.2c-2.25 0-4.18 1.91-4.94 2.84c-.58.73-2.06 2.48-2.29 2.72c-.25.3-.68.84-1.11.84c-.45 0-.72-.83-.36-1.92c.35-1.09 1.4-2.86 1.85-3.52c.78-1.14 1.3-1.92 1.3-3.28C8.95 3.69 7.31 3 6.44 3C5.12 3 3.97 4 3.72 4.25c-.36.36-.66.66-.88.93zm9.29 11.66c-.31 0-.74-.26-.74-.72c0-.6.73-2.2 2.87-2.76c-.3 2.69-1.43 3.48-2.13 3.48"/></symbol><symbol id="hd-icon-ic-twotone-get-app" viewBox="0 0 24 24"><path fill="currentColor" d="M14.17 11H13V5h-2v6H9.83L12 13.17z" opacity=".3"/><path fill="currentColor" d="M19 9h-4V3H9v6H5l7 7zm-8 2V5h2v6h1.17L12 13.17L9.83 11zm-6 7h14v2H5z"/></symbol><symbol id="hd-icon-ic-twotone-gif" viewBox="0 0 24 24"><path fill="currentColor" d="M11.5 9H13v6h-1.5zM9 9H6c-.6 0-1 .5-1 1v4c0 .5.4 1 1 1h3c.6 0 1-.5 1-1v-2H8.5v1.5h-2v-3H10V10c0-.5-.4-1-1-1m10 1.5V9h-4.5v6H16v-2h2v-1.5h-2v-1z"/></symbol><symbol id="hd-icon-ic-twotone-gif-box" viewBox="0 0 24 24"><path fill="currentColor" d="M5 5v14h14V5zm4.5 8v-1h1v1c0 .55-.45 1-1 1h-1c-.55 0-1-.45-1-1v-2c0-.55.45-1 1-1h1c.55 0 1 .45 1 1h-2v2zm3 1h-1v-4h1zm4-3h-2v.5H16v1h-1.5V14h-1v-4h3z" opacity=".3"/><path fill="currentColor" d="M19 19H5V5h14zM5 3c-1.1 0-2 .9-2 2v14c0 1.1.9 2 2 2h14c1.1 0 2-.9 2-2V5c0-1.1-.9-2-2-2zm6.5 11h1v-4h-1zm2 0h1v-1.5H16v-1h-1.5V11h2v-1h-3zm-4-2v1h-1v-2h2c0-.55-.45-1-1-1h-1c-.55 0-1 .45-1 1v2c0 .55.45 1 1 1h1c.55 0 1-.45 1-1v-1z"/></symbol><symbol id="hd-icon-ic-twotone-girl" viewBox="0 0 24 24"><path fill="currentColor" d="M12 7.5c.97 0 1.75-.78 1.75-1.75S12.97 4 12 4s-1.75.78-1.75 1.75S11.03 7.5 12 7.5m2 8.5v4h-4v-4H8l2.38-6.38a1.733 1.733 0 0 1 3.24 0L16 16z"/></symbol><symbol id="hd-icon-ic-twotone-gite" viewBox="0 0 24 24"><path fill="currentColor" d="M4 12h10v5H4zm16 5h-4v-6.17l2-2l2 2z" opacity=".3"/><path fill="currentColor" d="M18 6H9V4H7v2H6l-4 4v9h20v-9zM4 12h10v5H4zm16 5h-4v-6.17l2-2l2 2z"/></symbol><symbol id="hd-icon-ic-twotone-golf-course" viewBox="0 0 24 24"><defs><path id="hd-icon-ic-twotone-golf-course-1" fill="currentColor" d="M17 5.92L9 2v18H7v-1.73c-1.79.35-3 .99-3 1.73c0 1.1 2.69 2 6 2s6-.9 6-2c0-.99-2.16-1.81-5-1.97V8.98z"/></defs><circle cx="19.5" cy="19.5" r="1.5" fill="currentColor" opacity=".3"/><use href="#hd-icon-ic-twotone-golf-course-1" opacity=".3"/><circle cx="19.5" cy="19.5" r="1.5" fill="currentColor"/><use href="#hd-icon-ic-twotone-golf-course-1"/></symbol><symbol id="hd-icon-ic-twotone-gpp-bad" viewBox="0 0 24 24"><path fill="currentColor" d="M12 2L4 5v6.09c0 5.05 3.41 9.76 8 10.91c4.59-1.15 8-5.86 8-10.91V5zm6 9.09c0 4-2.55 7.7-6 8.83c-3.45-1.13-6-4.82-6-8.83v-4.7l6-2.25l6 2.25zM9.91 8.5L8.5 9.91L10.59 12L8.5 14.09l1.41 1.41L12 13.42l2.09 2.08l1.41-1.41L13.42 12l2.08-2.09l-1.41-1.41L12 10.59z"/><path fill="currentColor" d="M6 6.39v4.7c0 4 2.55 7.7 6 8.83c3.45-1.13 6-4.82 6-8.83v-4.7l-6-2.25zm9.5 3.52L13.42 12l2.08 2.09l-1.41 1.41L12 13.42L9.91 15.5L8.5 14.09L10.59 12L8.5 9.91L9.91 8.5L12 10.59l2.09-2.09z" opacity=".3"/></symbol><symbol id="hd-icon-ic-twotone-gpp-good" viewBox="0 0 24 24"><path fill="currentColor" d="M6 6.31v4.78c0 4 2.55 7.7 6 8.83c3.45-1.13 6-4.82 6-8.83V6.31l-6-2.12zm10.6 3.57l-5.66 5.66L7.4 12l1.41-1.41l2.12 2.12l4.24-4.24z" opacity=".3"/><path fill="currentColor" d="M12 2L4 5v6.09c0 5.05 3.41 9.76 8 10.91c4.59-1.15 8-5.86 8-10.91V5zm6 9.09c0 4-2.55 7.7-6 8.83c-3.45-1.13-6-4.82-6-8.83V6.31l6-2.12l6 2.12zm-9.18-.5L7.4 12l3.54 3.54l5.66-5.66l-1.41-1.41l-4.24 4.24z"/></symbol><symbol id="hd-icon-ic-twotone-gpp-maybe" viewBox="0 0 24 24"><path fill="currentColor" d="M6 6.39v4.7c0 4 2.55 7.7 6 8.83c3.45-1.13 6-4.82 6-8.83v-4.7l-6-2.25zM13 16h-2v-2h2zm0-4h-2V7h2z" opacity=".3"/><path fill="currentColor" d="M12 2L4 5v6.09c0 5.05 3.41 9.76 8 10.91c4.59-1.15 8-5.86 8-10.91V5zm6 9.09c0 4-2.55 7.7-6 8.83c-3.45-1.13-6-4.82-6-8.83v-4.7l6-2.25l6 2.25zM11 16h2v-2h-2zm0-4h2V7h-2z"/></symbol><symbol id="hd-icon-ic-twotone-gps-fixed" viewBox="0 0 24 24"><circle cx="12" cy="12" r="2" fill="currentColor" opacity=".3"/><path fill="currentColor" d="M12 8c-2.21 0-4 1.79-4 4s1.79 4 4 4s4-1.79 4-4s-1.79-4-4-4m0 6c-1.1 0-2-.9-2-2s.9-2 2-2s2 .9 2 2s-.9 2-2 2m8.94-3A8.994 8.994 0 0 0 13 3.06V1h-2v2.06A8.994 8.994 0 0 0 3.06 11H1v2h2.06A8.994 8.994 0 0 0 11 20.94V23h2v-2.06A8.994 8.994 0 0 0 20.94 13H23v-2zM12 19c-3.87 0-7-3.13-7-7s3.13-7 7-7s7 3.13 7 7s-3.13 7-7 7"/></symbol><symbol id="hd-icon-ic-twotone-gps-not-fixed" viewBox="0 0 24 24"><path fill="currentColor" d="M20.94 11A8.994 8.994 0 0 0 13 3.06V1h-2v2.06A8.994 8.994 0 0 0 3.06 11H1v2h2.06A8.994 8.994 0 0 0 11 20.94V23h2v-2.06A8.994 8.994 0 0 0 20.94 13H23v-2zM12 19c-3.87 0-7-3.13-7-7s3.13-7 7-7s7 3.13 7 7s-3.13 7-7 7"/></symbol><symbol id="hd-icon-ic-twotone-gps-off" viewBox="0 0 24 24"><path fill="currentColor" d="M20.94 11A8.994 8.994 0 0 0 13 3.06V1h-2v2.06c-.98.11-1.91.38-2.77.78l1.53 1.53a6.995 6.995 0 0 1 8.87 8.87l1.53 1.53c.4-.86.67-1.79.78-2.77H23v-2zM3 4.27l2.04 2.04A9 9 0 0 0 3.06 11H1v2h2.06A8.994 8.994 0 0 0 11 20.94V23h2v-2.06c1.77-.2 3.38-.91 4.69-1.98L19.73 21l1.41-1.41L4.41 2.86zm13.27 13.27a6.995 6.995 0 0 1-9.81-9.81z"/></symbol><symbol id="hd-icon-ic-twotone-grade" viewBox="0 0 24 24"><path fill="currentColor" d="m17.11 10.83l-2.47-.21l-1.2-.1l-.47-1.11L12 7.13l-.97 2.28l-.47 1.11l-1.2.1l-2.47.21l1.88 1.63l.91.79l-.27 1.17l-.57 2.42l2.13-1.28l1.03-.63l1.03.63l2.13 1.28l-.57-2.42l-.27-1.17l.91-.79z" opacity=".3"/><path fill="currentColor" d="m22 9.24l-7.19-.61L12 2L9.19 8.63L2 9.24l5.46 4.73L5.82 21L12 17.27L18.18 21l-1.64-7.03zm-7.41 5.18l.56 2.41l-2.12-1.28l-1.03-.62l-1.03.62l-2.12 1.28l.56-2.41l.27-1.18l-.91-.79l-1.88-1.63l2.47-.21l1.2-.1l.47-1.11l.97-2.27l.97 2.29l.47 1.11l1.2.1l2.47.21l-1.88 1.63l-.91.79z"/></symbol><symbol id="hd-icon-ic-twotone-gradient" viewBox="0 0 24 24"><path fill="currentColor" d="M13 11h2v2h-2zm6 10c1.1 0 2-.9 2-2V5c0-1.1-.9-2-2-2H5c-1.1 0-2 .9-2 2v14c0 1.1.9 2 2 2zM9 18H7v-2h2zm4 0h-2v-2h2zm4 0h-2v-2h2zM5 13h2v-2H5V5h14v6h-2v2h2v2h-2v-2h-2v2h-2v-2h-2v2H9v-2H7v2H5zm2-4h2v2H7zm8 0h2v2h-2zm-4 0h2v2h-2zm-2 2h2v2H9z"/></symbol><symbol id="hd-icon-ic-twotone-grading" viewBox="0 0 24 24"><path fill="currentColor" d="M4 7h16v2H4zm0 6h16v-2H4zm0 4h7v-2H4zm0 4h7v-2H4zm11.41-2.83L14 16.75l-1.41 1.41L15.41 21L20 16.42L18.58 15zM4 3v2h16V3z"/></symbol><symbol id="hd-icon-ic-twotone-grain" viewBox="0 0 24 24"><path fill="currentColor" d="M18 8c1.1 0 2-.9 2-2s-.9-2-2-2s-2 .9-2 2s.9 2 2 2m0 8c1.1 0 2-.9 2-2s-.9-2-2-2s-2 .9-2 2s.9 2 2 2M6 8c-1.1 0-2 .9-2 2s.9 2 2 2s2-.9 2-2s-.9-2-2-2m8 0c-1.1 0-2 .9-2 2s.9 2 2 2s2-.9 2-2s-.9-2-2-2m-4 8c1.1 0 2-.9 2-2s-.9-2-2-2s-2 .9-2 2s.9 2 2 2m0-12c-1.1 0-2 .9-2 2s.9 2 2 2s2-.9 2-2s-.9-2-2-2m4 12c-1.1 0-2 .9-2 2s.9 2 2 2s2-.9 2-2s-.9-2-2-2m-8 4c1.1 0 2-.9 2-2s-.9-2-2-2s-2 .9-2 2s.9 2 2 2"/></symbol><symbol id="hd-icon-ic-twotone-graphic-eq" viewBox="0 0 24 24"><path fill="currentColor" d="M7 18h2V6H7zm4 4h2V2h-2zm-8-8h2v-4H3zm12 4h2V6h-2zm4-8v4h2v-4z"/></symbol><symbol id="hd-icon-ic-twotone-grass" viewBox="0 0 24 24"><path fill="currentColor" d="M12 20H2v-2h5.75A8.03 8.03 0 0 0 2 12.26c.64-.16 1.31-.26 2-.26c4.42 0 8 3.58 8 8m10-7.74c-.64-.16-1.31-.26-2-.26c-2.93 0-5.48 1.58-6.88 3.93a9.8 9.8 0 0 1 .87 4.07h8v-2h-5.75A8.06 8.06 0 0 1 22 12.26m-6.36-1.24a10.03 10.03 0 0 1 4.09-5C15.44 6.16 12 9.67 12 14v.02c.95-1.27 2.2-2.3 3.64-3m-4.22-2.17A8.53 8.53 0 0 0 6.7 4C8.14 5.86 9 8.18 9 10.71c0 .21-.03.41-.04.61c.43.24.83.52 1.22.82a9.9 9.9 0 0 1 1.24-3.29"/></symbol><symbol id="hd-icon-ic-twotone-greater-than" viewBox="0 0 24 24"><path fill="currentColor" fill-rule="evenodd" d="m6.5 17.5l8.25-5.5L6.5 6.5l1-1.5L18 12L7.5 19z"/></symbol><symbol id="hd-icon-ic-twotone-greater-than-equal" viewBox="0 0 24 24"><path fill="currentColor" fill-rule="evenodd" d="m6.5 15.5l8.25-5.5L6.5 4.5l1-1.5L18 10L7.5 17z"/><path fill="currentColor" d="M18 20.998H6v-2h12z"/></symbol><symbol id="hd-icon-ic-twotone-grid-3x3" viewBox="0 0 24 24"><path fill="currentColor" d="M20 10V8h-4V4h-2v4h-4V4H8v4H4v2h4v4H4v2h4v4h2v-4h4v4h2v-4h4v-2h-4v-4zm-6 4h-4v-4h4z"/></symbol><symbol id="hd-icon-ic-twotone-grid-4x4" viewBox="0 0 24 24"><path fill="currentColor" d="M22 7V5h-3V2h-2v3h-4V2h-2v3H7V2H5v3H2v2h3v4H2v2h3v4H2v2h3v3h2v-3h4v3h2v-3h4v3h2v-3h3v-2h-3v-4h3v-2h-3V7zM7 7h4v4H7zm0 10v-4h4v4zm10 0h-4v-4h4zm0-6h-4V7h4z"/></symbol><symbol id="hd-icon-ic-twotone-grid-goldenratio" viewBox="0 0 24 24"><path fill="currentColor" d="M22 11V9h-7V2h-2v7h-2V2H9v7H2v2h7v2H2v2h7v7h2v-7h2v7h2v-7h7v-2h-7v-2zm-9 2h-2v-2h2z"/></symbol><symbol id="hd-icon-ic-twotone-grid-off" viewBox="0 0 24 24"><path fill="currentColor" d="M20 14v-4h-4v2.89L17.11 14zm-10-1.45V14h1.45zM14 10h-.89l.89.89zm5.11 6l.89.89V16zM8 4h-.89l.89.89zm6 4V4h-4v2.89L11.11 8zm2-4h4v4h-4zm-6 12v4h4v-3.45l-.55-.55zm-6-6v4h4v-3.45L7.45 10zm12 10h1.45L16 18.55zM4 16h4v4H4zm0-9.45V8h1.45z" opacity=".3"/><path fill="currentColor" d="M8 4v.89l2 2V4h4v4h-2.89l2 2H14v.89l2 2V10h4v4h-2.89l2 2H20v.89l2 2V4c0-1.1-.9-2-2-2H5.11l2 2zm8 0h4v4h-4zM1.41 1.14L0 2.55l2 2V20c0 1.1.9 2 2 2h15.45l2.01 2.01l1.41-1.41zM10 12.55L11.45 14H10zm-6-6L5.45 8H4zM8 20H4v-4h4zm0-6H4v-4h3.45l.55.55zm6 6h-4v-4h3.45l.55.55zm2 0v-1.45L17.45 20z"/></symbol><symbol id="hd-icon-ic-twotone-grid-on" viewBox="0 0 24 24"><path fill="currentColor" d="M10 10h4v4h-4zm0 6h4v4h-4zM4 4h4v4H4zm0 6h4v4H4zm0 6h4v4H4zM16 4h4v4h-4zm0 6h4v4h-4zm0 6h4v4h-4zM10 4h4v4h-4z" opacity=".3"/><path fill="currentColor" d="M20 2H4c-1.1 0-2 .9-2 2v16c0 1.1.9 2 2 2h16c1.1 0 2-.9 2-2V4c0-1.1-.9-2-2-2M8 20H4v-4h4zm0-6H4v-4h4zm0-6H4V4h4zm6 12h-4v-4h4zm0-6h-4v-4h4zm0-6h-4V4h4zm6 12h-4v-4h4zm0-6h-4v-4h4zm0-6h-4V4h4z"/></symbol><symbol id="hd-icon-ic-twotone-grid-view" viewBox="0 0 24 24"><path fill="currentColor" d="M5 5h4v4H5zm0 10h4v4H5zm10 0h4v4h-4zm0-10h4v4h-4z" opacity=".3"/><path fill="currentColor" d="M3 21h8v-8H3zm2-6h4v4H5zm-2-4h8V3H3zm2-6h4v4H5zm8 16h8v-8h-8zm2-6h4v4h-4zM13 3v8h8V3zm6 6h-4V5h4z"/></symbol><symbol id="hd-icon-ic-twotone-group" viewBox="0 0 24 24"><circle cx="9" cy="8.5" r="1.5" fill="currentColor" opacity=".3"/><path fill="currentColor" d="M4.34 17h9.32c-.84-.58-2.87-1.25-4.66-1.25s-3.82.67-4.66 1.25" opacity=".3"/><path fill="currentColor" d="M9 12c1.93 0 3.5-1.57 3.5-3.5S10.93 5 9 5S5.5 6.57 5.5 8.5S7.07 12 9 12m0-5c.83 0 1.5.67 1.5 1.5S9.83 10 9 10s-1.5-.67-1.5-1.5S8.17 7 9 7m0 6.75c-2.34 0-7 1.17-7 3.5V19h14v-1.75c0-2.33-4.66-3.5-7-3.5M4.34 17c.84-.58 2.87-1.25 4.66-1.25s3.82.67 4.66 1.25zm11.7-3.19c1.16.84 1.96 1.96 1.96 3.44V19h4v-1.75c0-2.02-3.5-3.17-5.96-3.44M15 12c1.93 0 3.5-1.57 3.5-3.5S16.93 5 15 5c-.54 0-1.04.13-1.5.35c.63.89 1 1.98 1 3.15s-.37 2.26-1 3.15c.46.22.96.35 1.5.35"/></symbol><symbol id="hd-icon-ic-twotone-group-add" viewBox="0 0 24 24"><path fill="currentColor" d="M8 15c-2.7 0-5.8 1.29-6 2.01V18h12v-1c-.2-.71-3.3-2-6-2" opacity=".3"/><circle cx="8" cy="8" r="2" fill="currentColor" opacity=".3"/><path fill="currentColor" d="M22 9V7h-2v2h-2v2h2v2h2v-2h2V9zM8 12c2.21 0 4-1.79 4-4s-1.79-4-4-4s-4 1.79-4 4s1.79 4 4 4m0-6c1.1 0 2 .9 2 2s-.9 2-2 2s-2-.9-2-2s.9-2 2-2m0 7c-2.67 0-8 1.34-8 4v3h16v-3c0-2.66-5.33-4-8-4m6 5H2v-.99C2.2 16.29 5.3 15 8 15s5.8 1.29 6 2zM12.51 4.05C13.43 5.11 14 6.49 14 8s-.57 2.89-1.49 3.95C14.47 11.7 16 10.04 16 8s-1.53-3.7-3.49-3.95m4.02 9.78C17.42 14.66 18 15.7 18 17v3h2v-3c0-1.45-1.59-2.51-3.47-3.17"/></symbol><symbol id="hd-icon-ic-twotone-group-off" viewBox="0 0 24 24"><path fill="currentColor" d="M10.99 8.16c.01-.05.01-.1.01-.16c0-1.1-.9-2-2-2c-.06 0-.11 0-.16.01zM9 15c-2.7 0-5.8 1.29-6 2.01V18h12v-.17l-2.11-2.11C11.76 15.31 10.33 15 9 15" opacity=".3"/><path fill="currentColor" d="M15 8c0-1.42-.5-2.73-1.33-3.76c.42-.14.86-.24 1.33-.24c2.21 0 4 1.79 4 4s-1.79 4-4 4h-.18l-.77-.77c.6-.94.95-2.05.95-3.23m7.83 12H23v-3c0-2.18-3.58-3.47-6.34-3.87c1.1.75 1.95 1.71 2.23 2.94zM9 6c-.06 0-.11 0-.16.01l-1.6-1.6a3.996 3.996 0 0 1 5.35 5.35l-1.6-1.6c.01-.05.01-.1.01-.16c0-1.1-.9-2-2-2m.17 6H9c-2.21 0-4-1.79-4-4v-.17L.69 3.51L2.1 2.1l19.8 19.8l-1.41 1.41L17 19.83V20H1v-3c0-2.66 5.33-4 8-4c.37 0 .8.03 1.25.08zM9 15c-2.7 0-5.8 1.29-6 2.01V18h12v-.17l-2.11-2.11C11.76 15.31 10.33 15 9 15"/></symbol><symbol id="hd-icon-ic-twotone-group-remove" viewBox="0 0 24 24"><path fill="currentColor" d="M8 10c-1.1 0-2-.9-2-2s.9-2 2-2s2 .9 2 2s-.9 2-2 2m6 8H2v-.99C2.2 16.29 5.3 15 8 15s5.8 1.29 6 2z" opacity=".3"/><path fill="currentColor" d="M24 9v2h-6V9zM8 4C5.79 4 4 5.79 4 8s1.79 4 4 4s4-1.79 4-4s-1.79-4-4-4m0 6c-1.1 0-2-.9-2-2s.9-2 2-2s2 .9 2 2s-.9 2-2 2m0 3c-2.67 0-8 1.34-8 4v3h16v-3c0-2.66-5.33-4-8-4m6 5H2v-.99C2.2 16.29 5.3 15 8 15s5.8 1.29 6 2zM12.51 4.05C13.43 5.11 14 6.49 14 8s-.57 2.89-1.49 3.95C14.47 11.7 16 10.04 16 8s-1.53-3.7-3.49-3.95m4.02 9.78C17.42 14.66 18 15.7 18 17v3h2v-3c0-1.45-1.59-2.51-3.47-3.17"/></symbol><symbol id="hd-icon-ic-twotone-group-work" viewBox="0 0 24 24"><path fill="currentColor" d="M12 4c-4.41 0-8 3.59-8 8s3.59 8 8 8s8-3.59 8-8s-3.59-8-8-8M8 16c-1.1 0-2-.9-2-2s.9-2 2-2s2 .9 2 2s-.9 2-2 2m4-6c-1.1 0-2-.9-2-2s.9-2 2-2s2 .9 2 2s-.9 2-2 2m4 6c-1.1 0-2-.9-2-2s.9-2 2-2s2 .9 2 2s-.9 2-2 2" opacity=".3"/><path fill="currentColor" d="M12 2C6.48 2 2 6.48 2 12s4.48 10 10 10s10-4.48 10-10S17.52 2 12 2m0 18c-4.41 0-8-3.59-8-8s3.59-8 8-8s8 3.59 8 8s-3.59 8-8 8"/><circle cx="8" cy="14" r="2" fill="currentColor"/><circle cx="12" cy="8" r="2" fill="currentColor"/><circle cx="16" cy="14" r="2" fill="currentColor"/></symbol><symbol id="hd-icon-ic-twotone-groups" viewBox="0 0 24 24"><path fill="currentColor" d="M8.07 16c.09-.23.13-.39.91-.69c.97-.38 1.99-.56 3.02-.56s2.05.18 3.02.56c.77.3.81.46.91.69zM12 8c.55 0 1 .45 1 1s-.45 1-1 1s-1-.45-1-1s.45-1 1-1" opacity=".3"/><path fill="currentColor" d="M4 13c1.1 0 2-.9 2-2s-.9-2-2-2s-2 .9-2 2s.9 2 2 2m1.13 1.1c-.37-.06-.74-.1-1.13-.1c-.99 0-1.93.21-2.78.58A2.01 2.01 0 0 0 0 16.43V18h4.5v-1.61c0-.83.23-1.61.63-2.29M20 13c1.1 0 2-.9 2-2s-.9-2-2-2s-2 .9-2 2s.9 2 2 2m4 3.43c0-.81-.48-1.53-1.22-1.85A6.95 6.95 0 0 0 20 14c-.39 0-.76.04-1.13.1c.4.68.63 1.46.63 2.29V18H24zm-7.76-2.78c-1.17-.52-2.61-.9-4.24-.9s-3.07.39-4.24.9A2.99 2.99 0 0 0 6 16.39V18h12v-1.61c0-1.18-.68-2.26-1.76-2.74M8.07 16c.09-.23.13-.39.91-.69c.97-.38 1.99-.56 3.02-.56s2.05.18 3.02.56c.77.3.81.46.91.69zM12 8c.55 0 1 .45 1 1s-.45 1-1 1s-1-.45-1-1s.45-1 1-1m0-2c-1.66 0-3 1.34-3 3s1.34 3 3 3s3-1.34 3-3s-1.34-3-3-3"/></symbol><symbol id="hd-icon-ic-twotone-groups-2" viewBox="0 0 24 24"><path fill="currentColor" d="M15.43 15.48c-1.1-.49-2.26-.73-3.43-.73c-1.18 0-2.33.25-3.43.73c-.23.1-.4.29-.49.52h7.85a.98.98 0 0 0-.5-.52m-2.49-6.69C12.86 8.33 12.47 8 12 8s-.86.33-.94.79l-.2 1.21h2.28z" opacity=".3"/><path fill="currentColor" d="M10.27 12h3.46a1.5 1.5 0 0 0 1.48-1.75l-.3-1.79a2.951 2.951 0 0 0-5.82.01l-.3 1.79c-.15.91.55 1.74 1.48 1.74m.79-3.21c.08-.46.47-.79.94-.79s.86.33.94.79l.2 1.21h-2.28zm-9.4 2.32c-.13.26-.18.57-.1.88c.16.69.76 1.03 1.53 1h1.95c.83 0 1.51-.58 1.51-1.29c0-.14-.03-.27-.07-.4c-.01-.03-.01-.05.01-.08c.09-.16.14-.34.14-.53c0-.31-.14-.6-.36-.82c-.03-.03-.03-.06-.02-.1c.07-.2.07-.43.01-.65a1.12 1.12 0 0 0-.99-.74a.1.1 0 0 1-.07-.03C5.03 8.14 4.72 8 4.37 8c-.3 0-.57.1-.75.26c-.03.03-.06.03-.09.02a1.24 1.24 0 0 0-1.7 1.03q0 .03-.03.06c-.29.26-.46.65-.41 1.05c.03.22.12.43.25.6c.03.02.03.06.02.09m14.58 2.54c-1.17-.52-2.61-.9-4.24-.9s-3.07.39-4.24.9A2.99 2.99 0 0 0 6 16.39V18h12v-1.61c0-1.18-.68-2.26-1.76-2.74M8.07 16a.96.96 0 0 1 .49-.52c1.1-.49 2.26-.73 3.43-.73c1.18 0 2.33.25 3.43.73c.23.1.4.29.49.52zm-6.85-1.42A2.01 2.01 0 0 0 0 16.43V18h4.5v-1.61c0-.83.23-1.61.63-2.29c-.37-.06-.74-.1-1.13-.1c-.99 0-1.93.21-2.78.58m21.56 0A6.95 6.95 0 0 0 20 14c-.39 0-.76.04-1.13.1c.4.68.63 1.46.63 2.29V18H24v-1.57c0-.81-.48-1.53-1.22-1.85M22 11v-.5c0-1.1-.9-2-2-2h-2c-.42 0-.65.48-.39.81l.7.63c-.19.31-.31.67-.31 1.06c0 1.1.9 2 2 2s2-.9 2-2"/></symbol><symbol id="hd-icon-ic-twotone-groups-3" viewBox="0 0 24 24"><path fill="currentColor" d="M15.43 15.48c-1.1-.49-2.26-.73-3.43-.73c-1.18 0-2.33.25-3.43.73c-.23.1-.4.29-.49.52h7.85a.98.98 0 0 0-.5-.52" opacity=".3"/><circle cx="12" cy="9" r="1" fill="currentColor" opacity=".3"/><path fill="currentColor" d="M16.24 13.65c-1.17-.52-2.61-.9-4.24-.9s-3.07.39-4.24.9A2.99 2.99 0 0 0 6 16.39V18h12v-1.61c0-1.18-.68-2.26-1.76-2.74M8.07 16a.96.96 0 0 1 .49-.52c1.1-.49 2.26-.73 3.43-.73c1.18 0 2.33.25 3.43.73c.23.1.4.29.49.52zm-6.85-1.42A2.01 2.01 0 0 0 0 16.43V18h4.5v-1.61c0-.83.23-1.61.63-2.29c-.37-.06-.74-.1-1.13-.1c-.99 0-1.93.21-2.78.58m21.56 0A6.95 6.95 0 0 0 20 14c-.39 0-.76.04-1.13.1c.4.68.63 1.46.63 2.29V18H24v-1.57c0-.81-.48-1.53-1.22-1.85M12 12c1.66 0 3-1.34 3-3s-1.34-3-3-3s-3 1.34-3 3s1.34 3 3 3m0-4c.55 0 1 .45 1 1s-.45 1-1 1s-1-.45-1-1s.45-1 1-1M1.497 11L4 8.497L6.503 11L4 13.503zM20 9l-2.5 4h5z"/></symbol><symbol id="hd-icon-ic-twotone-h-mobiledata" viewBox="0 0 24 24"><path fill="currentColor" d="M15 11H9V7H7v10h2v-4h6v4h2V7h-2z"/></symbol><symbol id="hd-icon-ic-twotone-h-plus-mobiledata" viewBox="0 0 24 24"><path fill="currentColor" d="M12 11H6V7H4v10h2v-4h6v4h2V7h-2zm10 0h-2V9h-2v2h-2v2h2v2h2v-2h2z"/></symbol><symbol id="hd-icon-ic-twotone-hail" viewBox="0 0 24 24"><path fill="currentColor" d="M12 6c-1.1 0-2-.9-2-2s.9-2 2-2s2 .9 2 2s-.9 2-2 2m5-4h2c0 2.7-.93 4.41-2.3 5.5c-.5.4-1.1.7-1.7.9V22h-2v-6h-2v6H9V10.1q-.45.15-.6.3C7.87 10.81 7 11.43 7 14H5c0-2.06.35-3.78 2.11-5.29C8.21 7.81 10 7 12 7s2.68-.46 3.48-1.06C15.96 5.55 17 4.76 17 2M4 16h3v6H4z"/></symbol><symbol id="hd-icon-ic-twotone-handshake" viewBox="0 0 24 24"><path fill="currentColor" d="M12.22 19.85c-.18.18-.5.21-.71 0a.504.504 0 0 1 0-.71l3.39-3.39l-1.41-1.41l-3.39 3.39c-.19.2-.51.19-.71 0a.504.504 0 0 1 0-.71l3.39-3.39l-1.41-1.41l-3.39 3.39c-.18.18-.5.21-.71 0a.513.513 0 0 1 0-.71l3.39-3.39l-1.42-1.41l-3.39 3.39c-.18.18-.5.21-.71 0a.513.513 0 0 1 0-.71L9.52 8.4l1.87 1.86c.95.95 2.59.94 3.54 0c.98-.98.98-2.56 0-3.54l-1.86-1.86l.28-.28c.78-.78 2.05-.78 2.83 0l4.24 4.24c.78.78.78 2.05 0 2.83z" opacity=".3"/><path fill="currentColor" d="M12.22 19.85c-.18.18-.5.21-.71 0a.504.504 0 0 1 0-.71l3.39-3.39l-1.41-1.41l-3.39 3.39c-.19.2-.51.19-.71 0a.504.504 0 0 1 0-.71l3.39-3.39l-1.41-1.41l-3.39 3.39c-.18.18-.5.21-.71 0a.513.513 0 0 1 0-.71l3.39-3.39l-1.42-1.41l-3.39 3.39c-.18.18-.5.21-.71 0a.513.513 0 0 1 0-.71L9.52 8.4l1.87 1.86c.95.95 2.59.94 3.54 0c.98-.98.98-2.56 0-3.54l-1.86-1.86l.28-.28c.78-.78 2.05-.78 2.83 0l4.24 4.24c.78.78.78 2.05 0 2.83zm9.61-6.78a4.01 4.01 0 0 0 0-5.66l-4.24-4.24a4.01 4.01 0 0 0-5.66 0l-.28.28l-.28-.28a4.01 4.01 0 0 0-5.66 0L2.17 6.71a3.99 3.99 0 0 0-.4 5.19l1.45-1.45a2 2 0 0 1 .37-2.33l3.54-3.54c.78-.78 2.05-.78 2.83 0l3.56 3.56c.18.18.21.5 0 .71s-.53.18-.71 0L9.52 5.57l-5.8 5.79c-.98.97-.98 2.56 0 3.54c.39.39.89.63 1.42.7a2.46 2.46 0 0 0 2.12 2.12a2.46 2.46 0 0 0 2.12 2.12c.07.54.31 1.03.7 1.42c.47.47 1.1.73 1.77.73s1.3-.26 1.77-.73z"/></symbol><symbol id="hd-icon-ic-twotone-handyman" viewBox="0 0 24 24"><path fill="currentColor" d="m8.66 14.64l-4.25 4.24l.71.71l4.24-4.25zm5.936.705l.707-.707l4.242 4.243l-.707.707z" opacity=".3"/><path fill="currentColor" d="m21.67 18.17l-5.3-5.3h-.99l-2.54 2.54v.99l5.3 5.3c.39.39 1.02.39 1.41 0l2.12-2.12a.996.996 0 0 0 0-1.41m-2.83 1.42l-4.24-4.24l.71-.71l4.24 4.24z"/><path fill="currentColor" d="m17.34 10.19l1.41-1.41l2.12 2.12a3 3 0 0 0 0-4.24l-3.54-3.54l-1.41 1.41V1.71l-.7-.71l-3.54 3.54l.71.71h2.83l-1.41 1.41l1.06 1.06l-2.89 2.89l-4.13-4.13V5.06L4.83 2.04L2 4.87L5.03 7.9h1.41l4.13 4.13l-.85.85H7.6l-5.3 5.3a.996.996 0 0 0 0 1.41l2.12 2.12c.39.39 1.02.39 1.41 0l5.3-5.3v-2.12l5.15-5.15zm-7.98 5.15l-4.24 4.24l-.71-.71l4.24-4.24z"/></symbol><symbol id="hd-icon-ic-twotone-hardware" viewBox="0 0 24 24"><path fill="currentColor" d="M6.77 6H11v5h2V5H9c-.89 0-1.68.39-2.23 1M11 13h2v6h-2z" opacity=".3"/><path fill="currentColor" d="m18 3l-3 3V3H9C6.24 3 4 5.24 4 8h5v12c0 .55.45 1 1 1h4c.55 0 1-.45 1-1V8l3 3h2V3zm-5 16h-2v-6h2zm0-8h-2V6H6.77C7.32 5.39 8.11 5 9 5h4z"/></symbol><symbol id="hd-icon-ic-twotone-hd" viewBox="0 0 24 24"><path fill="currentColor" d="M14.5 10.5h2v3h-2zM19 5H5v14h14zm-8 10H9.5v-2h-2v2H6V9h1.5v2.5h2V9H11zm7-1c0 .55-.45 1-1 1h-4V9h4c.55 0 1 .45 1 1z" opacity=".3"/><path fill="currentColor" d="M5 21h14c1.1 0 2-.9 2-2V5c0-1.1-.9-2-2-2H5a2 2 0 0 0-2 2v14a2 2 0 0 0 2 2M5 5h14v14H5zm4.5 6.5h-2V9H6v6h1.5v-2h2v2H11V9H9.5zM17 9h-4v6h4c.55 0 1-.45 1-1v-4c0-.55-.45-1-1-1m-.5 4.5h-2v-3h2z"/></symbol><symbol id="hd-icon-ic-twotone-hdr-auto" viewBox="0 0 24 24"><path fill="currentColor" d="M12.04 8.04h-.09l-1.6 4.55h3.29z" opacity=".3"/><path fill="currentColor" d="M12 4c-4.41 0-8 3.59-8 8s3.59 8 8 8s8-3.59 8-8s-3.59-8-8-8m3.21 13l-.98-2.81H9.78l-1 2.81h-1.9l4.13-11h1.97l4.13 11z" opacity=".3"/><path fill="currentColor" d="M12 2C6.48 2 2 6.48 2 12s4.48 10 10 10s10-4.48 10-10S17.52 2 12 2m0 18c-4.41 0-8-3.59-8-8s3.59-8 8-8s8 3.59 8 8s-3.59 8-8 8"/><path fill="currentColor" d="M11.01 6L6.88 17h1.9l1-2.81h4.44l.99 2.81h1.9L12.98 6zm-.66 6.59l1.6-4.55h.09l1.6 4.55z"/></symbol><symbol id="hd-icon-ic-twotone-hdr-auto-select" viewBox="0 0 24 24"><path fill="currentColor" d="M22 18.5v-2h-1.5v2h-2V20h2v2H22v-2h2v-1.5zM3.5 18h-2v-2H0v6h1.5v-2.5h2V22H5v-6H3.5zm13-2H13v6h1.5v-2h1.1l.9 2H18l-.9-2.1c.5-.3.9-.8.9-1.4v-1c0-.8-.7-1.5-1.5-1.5m0 2.5h-2v-1h2zM10 16H6.5v6H10c.8 0 1.5-.7 1.5-1.5v-3c0-.8-.7-1.5-1.5-1.5m0 4.5H8v-3h2zm1.97-15.2l-1.02 2.89h2.1L12.03 5.3z"/><path fill="currentColor" d="M12 2C8.69 2 6 4.69 6 8s2.69 6 6 6s6-2.69 6-6s-2.69-6-6-6m2.04 9l-.63-1.79h-2.83L9.96 11H8.74l2.63-7h1.25l2.63 7z"/></symbol><symbol id="hd-icon-ic-twotone-hdr-enhanced-select" viewBox="0 0 24 24"><path fill="currentColor" d="M12 4C9.79 4 8 5.79 8 8s1.79 4 4 4s4-1.79 4-4s-1.79-4-4-4m3 5h-2v2h-2V9H9V7h2V5h2v2h2z" opacity=".3"/><path fill="currentColor" d="M12 2C8.69 2 6 4.69 6 8s2.69 6 6 6s6-2.69 6-6s-2.69-6-6-6m0 10c-2.21 0-4-1.79-4-4s1.79-4 4-4s4 1.79 4 4s-1.79 4-4 4"/><path fill="currentColor" d="M13 5h-2v2H9v2h2v2h2V9h2V7h-2zM3.5 18h-2v-2H0v6h1.5v-2.5h2V22H5v-6H3.5zm18.5.5v-2h-1.5v2h-2V20h2v2H22v-2h2v-1.5zM16.5 16H13v6h1.5v-2h1.1l.9 2H18l-.9-2.1c.5-.3.9-.8.9-1.4v-1c0-.8-.7-1.5-1.5-1.5m0 2.5h-2v-1h2zM10 16H6.5v6H10c.8 0 1.5-.7 1.5-1.5v-3c0-.8-.7-1.5-1.5-1.5m0 4.5H8v-3h2z"/></symbol><symbol id="hd-icon-ic-twotone-hdr-off" viewBox="0 0 24 24"><path fill="currentColor" d="M17.5 15v-2h1.1l.9 2H21l-.9-2.1c.5-.3.9-.8.9-1.4v-1c0-.8-.7-1.5-1.5-1.5H16v4.86L17.14 15zm0-4.5h2v1h-2zm-4.5 0v.36l1.5 1.5V10.5c0-.8-.7-1.5-1.5-1.5h-1.86l1.5 1.5zM2.51 2.49L1.45 3.55L6.9 9h-.4v2h-2V9H3v6h1.5v-2.5h2V15H8v-4.9l1.5 1.5V15h3.4l7.6 7.6l1.06-1.06z"/></symbol><symbol id="hd-icon-ic-twotone-hdr-off-select" viewBox="0 0 24 24"><path fill="currentColor" d="M18 18.5v-1c0-.8-.7-1.5-1.5-1.5H13v6h1.5v-2h1.1l.9 2H18l-.9-2.1c.5-.3.9-.8.9-1.4m-1.5 0h-2v-1h2zm-13-.5h-2v-2H0v6h1.5v-2.5h2V22H5v-6H3.5zm6.5-2H6.5v6H10c.8 0 1.5-.7 1.5-1.5v-3c0-.8-.7-1.5-1.5-1.5m0 4.5H8v-3h2zm14-.5h-2v2h-1.5v-2h-2v-1.5h2v-2H22v2h2zM10.98 4.15L9.42 2.59c5.1-2.42 10.41 2.89 7.99 7.99l-1.56-1.56c.81-2.96-1.91-5.68-4.87-4.87M6.34 2.34L4.93 3.76l1.66 1.66c-2.42 5.1 2.89 10.41 7.99 7.99l1.66 1.66l1.41-1.41zm1.81 4.64l4.87 4.87c-2.96.81-5.68-1.91-4.87-4.87"/></symbol><symbol id="hd-icon-ic-twotone-hdr-on" viewBox="0 0 24 24"><path fill="currentColor" d="M13 9H9.5v6H13c.8 0 1.5-.7 1.5-1.5v-3c0-.8-.7-1.5-1.5-1.5m0 4.5h-2v-3h2zm8-2v-1c0-.8-.7-1.5-1.5-1.5H16v6h1.5v-2h1.1l.9 2H21l-.9-2.1c.5-.3.9-.8.9-1.4m-1.5 0h-2v-1h2zm-13-.5h-2V9H3v6h1.5v-2.5h2V15H8V9H6.5z"/></symbol><symbol id="hd-icon-ic-twotone-hdr-on-select" viewBox="0 0 24 24"><path fill="currentColor" d="M18 18.5v-1c0-.8-.7-1.5-1.5-1.5H13v6h1.5v-2h1.1l.9 2H18l-.9-2.1c.5-.3.9-.8.9-1.4m-1.5 0h-2v-1h2zm-13-.5h-2v-2H0v6h1.5v-2.5h2V22H5v-6H3.5zm6.5-2H6.5v6H10c.8 0 1.5-.7 1.5-1.5v-3c0-.8-.7-1.5-1.5-1.5m0 4.5H8v-3h2zm14-.5h-2v2h-1.5v-2h-2v-1.5h2v-2H22v2h2zM12 4c2.21 0 4 1.79 4 4s-1.79 4-4 4s-4-1.79-4-4s1.79-4 4-4m0-2C8.69 2 6 4.69 6 8s2.69 6 6 6s6-2.69 6-6s-2.69-6-6-6"/></symbol><symbol id="hd-icon-ic-twotone-hdr-plus" viewBox="0 0 24 24"><path fill="currentColor" d="M12 4c-4.41 0-8 3.59-8 8c0 2.52 1.17 4.77 3 6.24V13h3.5c.8 0 1.5.7 1.5 1.5v1c0 .6-.4 1.1-.9 1.4L12 19h-1.5l-.9-2H8.5v2h-.37c1.15.64 2.47 1 3.87 1c4.41 0 8-3.59 8-8s-3.59-8-8-8m0 8h-1.5V9.5h-2V12H7V6h1.5v2h2V6H12zm5.5 4H16v1.5h-1.5V16H13v-1.5h1.5V13H16v1.49h1.5zm0-5.5c0 .8-.7 1.5-1.5 1.5h-3V6h3c.8 0 1.5.7 1.5 1.5z" opacity=".3"/><path fill="currentColor" d="M14.5 7.5H16v3h-1.5zm-6 7h2v1h-2z" opacity=".3"/><path fill="currentColor" d="M12 2C6.48 2 2 6.48 2 12s4.48 10 10 10s10-4.48 10-10S17.52 2 12 2m0 18c-1.4 0-2.72-.36-3.87-1h.37v-2h1.1l.9 2H12l-.9-2.1c.5-.3.9-.8.9-1.4v-1c0-.8-.7-1.5-1.5-1.5H7v5.24C5.17 16.77 4 14.52 4 12c0-4.41 3.59-8 8-8s8 3.59 8 8s-3.59 8-8 8m-3.5-4.5v-1h2v1z"/><path fill="currentColor" d="M10.5 8h-2V6H7v6h1.5V9.5h2V12H12V6h-1.5zM16 6h-3v6h3c.8 0 1.5-.7 1.5-1.5v-3c0-.8-.7-1.5-1.5-1.5m0 4.5h-1.5v-3H16zm0 2.5h-1.5v1.5H13V16h1.5v1.5H16V16h1.5v-1.51H16z"/></symbol><symbol id="hd-icon-ic-twotone-hdr-strong" viewBox="0 0 24 24"><path fill="currentColor" d="M17 8c-2.21 0-4 1.79-4 4s1.79 4 4 4s4-1.79 4-4s-1.79-4-4-4" opacity=".3"/><path fill="currentColor" d="M17 6c-3.31 0-6 2.69-6 6s2.69 6 6 6s6-2.69 6-6s-2.69-6-6-6m0 10c-2.21 0-4-1.79-4-4s1.79-4 4-4s4 1.79 4 4s-1.79 4-4 4M5 16c2.21 0 4-1.79 4-4S7.21 8 5 8s-4 1.79-4 4s1.79 4 4 4m0-6c1.1 0 2 .9 2 2s-.9 2-2 2s-2-.9-2-2s.9-2 2-2"/></symbol><symbol id="hd-icon-ic-twotone-hdr-weak" viewBox="0 0 24 24"><path fill="currentColor" d="M17 6c-3.31 0-6 2.69-6 6s2.69 6 6 6s6-2.69 6-6s-2.69-6-6-6m0 10c-2.21 0-4-1.79-4-4s1.79-4 4-4s4 1.79 4 4s-1.79 4-4 4"/><circle cx="5" cy="12" r="2" fill="currentColor" opacity=".3"/><path fill="currentColor" d="M5 8c-2.21 0-4 1.79-4 4s1.79 4 4 4s4-1.79 4-4s-1.79-4-4-4m0 6c-1.1 0-2-.9-2-2s.9-2 2-2s2 .9 2 2s-.9 2-2 2"/></symbol><symbol id="hd-icon-ic-twotone-headphones" viewBox="0 0 24 24"><path fill="currentColor" d="M5 15h2v4H5zm12 0h2v4h-2z" opacity=".3"/><path fill="currentColor" d="M12 3a9 9 0 0 0-9 9v7c0 1.1.9 2 2 2h4v-8H5v-1c0-3.87 3.13-7 7-7s7 3.13 7 7v1h-4v8h4c1.1 0 2-.9 2-2v-7a9 9 0 0 0-9-9M7 15v4H5v-4zm12 4h-2v-4h2z"/></symbol><symbol id="hd-icon-ic-twotone-headphones-battery" viewBox="0 0 24 24"><path fill="currentColor" d="M18 9h2v7h-2z" opacity=".3"/><path fill="currentColor" d="M21 7h-1V6h-2v1h-1c-.55 0-1 .45-1 1v9c0 .55.45 1 1 1h4c.55 0 1-.45 1-1V8c0-.55-.45-1-1-1m-1 9h-2V9h2zM8 6c-3.31 0-6 2.69-6 6v4c0 1.1.9 2 2 2h2v-5H3.5v-1c0-2.48 2.02-4.5 4.5-4.5s4.5 2.02 4.5 4.5v1H10v5h2c1.1 0 2-.9 2-2v-4c0-3.31-2.69-6-6-6"/></symbol><symbol id="hd-icon-ic-twotone-headset" viewBox="0 0 24 24"><path fill="currentColor" d="M17 18h1c.55 0 1-.45 1-1v-3h-2zM5 17c0 .55.45 1 1 1h1v-4H5z" opacity=".3"/><path fill="currentColor" d="M12 1a9 9 0 0 0-9 9v7c0 1.66 1.34 3 3 3h3v-8H5v-2c0-3.87 3.13-7 7-7s7 3.13 7 7v2h-4v8h3c1.66 0 3-1.34 3-3v-7a9 9 0 0 0-9-9M7 14v4H6c-.55 0-1-.45-1-1v-3zm12 3c0 .55-.45 1-1 1h-1v-4h2z"/></symbol><symbol id="hd-icon-ic-twotone-headset-mic" viewBox="0 0 24 24"><path fill="currentColor" d="M5 17c0 .55.45 1 1 1h1v-4H5zm12-3h2v4h-2z" opacity=".3"/><path fill="currentColor" d="M12 1a9 9 0 0 0-9 9v7c0 1.66 1.34 3 3 3h3v-8H5v-2c0-3.87 3.13-7 7-7s7 3.13 7 7v2h-4v8h4v1h-7v2h6c1.66 0 3-1.34 3-3V10a9 9 0 0 0-9-9M7 14v4H6c-.55 0-1-.45-1-1v-3zm12 4h-2v-4h2z"/></symbol><symbol id="hd-icon-ic-twotone-headset-off" viewBox="0 0 24 24"><path fill="currentColor" d="M5 14h2v4H5zm11.83 0L19 16.17V14z" opacity=".3"/><path fill="currentColor" d="M12 4c3.87 0 7 3.13 7 7v1h-4v.17L16.83 14H19v2.17l2 2V11a9 9 0 0 0-9-9c-2.02 0-3.88.67-5.38 1.8l1.43 1.43A6.9 6.9 0 0 1 12 4M2.1 2.1L.69 3.51l3.33 3.33A9 9 0 0 0 3 11v7c0 1.1.9 2 2 2h4v-8H5v-1c0-.94.19-1.83.52-2.65L15 17.83V20h2.17l1 1H12v2h7c.34 0 .65-.09.93-.24l.55.55l1.41-1.41zM7 14v4H5v-4z"/></symbol><symbol id="hd-icon-ic-twotone-healing" viewBox="0 0 24 24"><path fill="currentColor" d="m13.03 16.72l3.63 3.62l3.62-3.63l-3.62-3.62zM7.29 3.71L3.66 7.34l3.63 3.62l3.62-3.63z" opacity=".3"/><path fill="currentColor" d="m17.73 12.02l3.98-3.98a.996.996 0 0 0 0-1.41l-4.34-4.34a.996.996 0 0 0-1.41 0l-3.98 3.98L8 2.29a1 1 0 0 0-1.41 0L2.25 6.63a.996.996 0 0 0 0 1.41l3.98 3.98L2.25 16a.996.996 0 0 0 0 1.41l4.34 4.34c.39.39 1.02.39 1.41 0l3.98-3.98l3.98 3.98c.2.2.45.29.71.29s.51-.1.71-.29l4.34-4.34a.996.996 0 0 0 0-1.41zM12 9c.55 0 1 .45 1 1s-.45 1-1 1s-1-.45-1-1s.45-1 1-1m-4.71 1.96L3.66 7.34l3.63-3.63l3.62 3.62zM10 13c-.55 0-1-.45-1-1s.45-1 1-1s1 .45 1 1s-.45 1-1 1m2 2c-.55 0-1-.45-1-1s.45-1 1-1s1 .45 1 1s-.45 1-1 1m2-4c.55 0 1 .45 1 1s-.45 1-1 1s-1-.45-1-1s.45-1 1-1m2.66 9.34l-3.63-3.62l3.63-3.63l3.62 3.62z"/></symbol><symbol id="hd-icon-ic-twotone-health-and-safety" viewBox="0 0 24 24"><path fill="currentColor" d="M12 4.14L6 6.39v4.7c0 4 2.55 7.7 6 8.83c3.45-1.13 6-4.82 6-8.83v-4.7zM16 13h-2.5v2.5h-3V13H8v-3h2.5V7.5h3V10H16z" opacity=".3"/><path fill="currentColor" d="M10.5 13H8v-3h2.5V7.5h3V10H16v3h-2.5v2.5h-3zM12 2L4 5v6.09c0 5.05 3.41 9.76 8 10.91c4.59-1.15 8-5.86 8-10.91V5zm6 9.09c0 4-2.55 7.7-6 8.83c-3.45-1.13-6-4.82-6-8.83v-4.7l6-2.25l6 2.25z"/></symbol><symbol id="hd-icon-ic-twotone-hearing" viewBox="0 0 24 24"><path fill="currentColor" d="M7.64 2.64L6.22 1.22C4.23 3.21 3 5.96 3 9s1.23 5.79 3.22 7.78l1.41-1.41C6.01 13.74 5 11.49 5 9s1.01-4.74 2.64-6.36"/><circle cx="14" cy="9" r="2.5" fill="currentColor"/><path fill="currentColor" d="M17 20c-.29 0-.56-.06-.76-.15c-.71-.37-1.21-.88-1.71-2.38c-.51-1.56-1.47-2.29-2.39-3c-.79-.61-1.61-1.24-2.32-2.53C9.29 10.98 9 9.93 9 9c0-2.8 2.2-5 5-5s5 2.2 5 5h2c0-3.93-3.07-7-7-7S7 5.07 7 9c0 1.26.38 2.65 1.07 3.9c.91 1.65 1.98 2.48 2.85 3.15c.81.62 1.39 1.07 1.71 2.05c.6 1.82 1.37 2.84 2.73 3.55A4 4 0 0 0 21 18h-2c0 1.1-.9 2-2 2"/></symbol><symbol id="hd-icon-ic-twotone-hearing-disabled" viewBox="0 0 24 24"><path fill="currentColor" d="M6.03 3.2C7.15 2.44 8.51 2 10 2c3.93 0 7 3.07 7 7c0 1.26-.38 2.65-1.07 3.9c-.02.04-.05.08-.08.13l-1.48-1.48c.4-.86.63-1.75.63-2.55c0-2.8-2.2-5-5-5c-.92 0-1.76.26-2.5.67zm11.18 11.18l1.43 1.43C20.11 13.93 21 11.57 21 9c0-3.04-1.23-5.79-3.22-7.78l-1.42 1.42A8.94 8.94 0 0 1 19 9c0 2.02-.67 3.88-1.79 5.38M10 6.5c-.21 0-.4.03-.59.08l3.01 3.01c.05-.19.08-.38.08-.59A2.5 2.5 0 0 0 10 6.5m11.19 14.69L2.81 2.81L1.39 4.22l2.13 2.13C3.19 7.16 3 8.05 3 9h2c0-.36.05-.71.12-1.05l6.61 6.61c-.88.68-1.78 1.41-2.27 2.9c-.5 1.5-1 2.01-1.71 2.38c-.19.1-.46.16-.75.16c-1.1 0-2-.9-2-2H3a4 4 0 0 0 5.64 3.65c1.36-.71 2.13-1.73 2.73-3.55c.32-.98.9-1.43 1.71-2.05c.03-.02.05-.04.08-.06l6.62 6.62z"/></symbol><symbol id="hd-icon-ic-twotone-heart-broken" viewBox="0 0 24 24"><path fill="currentColor" d="M9.23 5.42C8.69 5.15 8.09 5 7.5 5C5.54 5 4 6.54 4 8.5c0 2.5 2.45 4.84 6.24 8.23l.53-4.73H7.35zM16.5 5c-.37 0-.75.06-1.12.18L14.77 7h2.91l-2.56 8.53C17.98 12.93 20 10.71 20 8.5C20 6.54 18.46 5 16.5 5" opacity=".3"/><path fill="currentColor" d="M16.5 3c-.96 0-1.9.25-2.73.69L12 9h3l-3 10l1-9h-3l1.54-5.39C10.47 3.61 9.01 3 7.5 3C4.42 3 2 5.42 2 8.5c0 4.13 4.16 7.18 10 12.5c5.47-4.94 10-8.26 10-12.5C22 5.42 19.58 3 16.5 3m-6.26 13.73C6.45 13.34 4 11 4 8.5C4 6.54 5.54 5 7.5 5c.59 0 1.19.15 1.73.42L7.35 12h3.42zm4.89-1.2L17.69 7h-2.91l.61-1.82c.36-.12.74-.18 1.11-.18C18.46 5 20 6.54 20 8.5c0 2.21-2.02 4.43-4.87 7.03"/></symbol><symbol id="hd-icon-ic-twotone-heat-pump" viewBox="0 0 24 24"><path fill="currentColor" d="M5 19h14V5H5zm7-13c3.31 0 6 2.69 6 6s-2.69 6-6 6s-6-2.69-6-6s2.69-6 6-6" opacity=".3"/><path fill="currentColor" d="M19 3H5c-1.1 0-2 .9-2 2v14c0 1.1.9 2 2 2h14c1.1 0 2-.9 2-2V5c0-1.1-.9-2-2-2m0 16H5V5h14z"/><path fill="currentColor" d="M12 18c3.31 0 6-2.69 6-6s-2.69-6-6-6s-6 2.69-6 6s2.69 6 6 6m-.75-2.08c-.55-.1-1.05-.32-1.5-.62l1.5-1.5zm1.5 0v-2.11l1.5 1.5c-.45.3-.95.51-1.5.61m2.56-1.67l-1.5-1.5h2.11c-.1.55-.31 1.05-.61 1.5m.61-3h-2.11l1.5-1.5c.3.45.51.95.61 1.5m-3.17-3.17c.55.1 1.05.32 1.5.62l-1.5 1.5zM12 11c.55 0 1 .45 1 1s-.45 1-1 1s-1-.45-1-1s.45-1 1-1m-.75-2.92v2.11l-1.5-1.5c.45-.3.95-.51 1.5-.61M8.69 9.75l1.5 1.5H8.08c.1-.55.31-1.05.61-1.5m1.5 3l-1.5 1.5c-.3-.44-.51-.95-.62-1.5z"/></symbol><symbol id="hd-icon-ic-twotone-height" viewBox="0 0 24 24"><path fill="currentColor" d="M13 6.99h3L12 3L8 6.99h3v10.02H8L12 21l4-3.99h-3z"/></symbol><symbol id="hd-icon-ic-twotone-help" viewBox="0 0 24 24"><path fill="currentColor" d="M12 4c-4.41 0-8 3.59-8 8s3.59 8 8 8s8-3.59 8-8s-3.59-8-8-8m1 14h-2v-2h2zm0-3h-2c0-3.25 3-3 3-5c0-1.1-.9-2-2-2s-2 .9-2 2H8c0-2.21 1.79-4 4-4s4 1.79 4 4c0 2.5-3 2.75-3 5" opacity=".3"/><path fill="currentColor" d="M11 16h2v2h-2zm1-14C6.48 2 2 6.48 2 12s4.48 10 10 10s10-4.48 10-10S17.52 2 12 2m0 18c-4.41 0-8-3.59-8-8s3.59-8 8-8s8 3.59 8 8s-3.59 8-8 8m0-14c-2.21 0-4 1.79-4 4h2c0-1.1.9-2 2-2s2 .9 2 2c0 2-3 1.75-3 5h2c0-2.25 3-2.5 3-5c0-2.21-1.79-4-4-4"/></symbol><symbol id="hd-icon-ic-twotone-help-center" viewBox="0 0 24 24"><path fill="currentColor" d="M5 5v14h14V5zm7.01 13c-.7 0-1.26-.56-1.26-1.26c0-.71.56-1.25 1.26-1.25c.71 0 1.25.54 1.25 1.25c-.01.69-.54 1.26-1.25 1.26m3.01-7.4c-.76 1.11-1.48 1.46-1.87 2.17c-.16.29-.22.48-.22 1.41h-1.82c0-.49-.08-1.29.31-1.98c.49-.87 1.42-1.39 1.96-2.16c.57-.81.25-2.33-1.37-2.33c-1.06 0-1.58.8-1.8 1.48l-1.65-.7C9.01 7.15 10.22 6 11.99 6c1.48 0 2.49.67 3.01 1.52c.44.72.7 2.07.02 3.08" opacity=".3"/><path fill="currentColor" d="M13.25 16.74c0 .69-.53 1.26-1.25 1.26c-.7 0-1.26-.56-1.26-1.26c0-.71.56-1.25 1.26-1.25c.71 0 1.25.55 1.25 1.25M11.99 6c-1.77 0-2.98 1.15-3.43 2.49l1.64.69c.22-.67.74-1.48 1.8-1.48c1.62 0 1.94 1.52 1.37 2.33c-.54.77-1.47 1.29-1.96 2.16c-.39.69-.31 1.49-.31 1.98h1.82c0-.93.07-1.12.22-1.41c.39-.72 1.11-1.06 1.87-2.17c.68-1 .42-2.36-.02-3.08c-.51-.84-1.52-1.51-3-1.51M19 5H5v14h14zm0-2c1.1 0 2 .9 2 2v14c0 1.1-.9 2-2 2H5c-1.1 0-2-.9-2-2V5c0-1.1.9-2 2-2z"/></symbol><symbol id="hd-icon-ic-twotone-help-outline" viewBox="0 0 24 24"><path fill="currentColor" d="M11 16h2v2h-2zm1-14C6.48 2 2 6.48 2 12s4.48 10 10 10s10-4.48 10-10S17.52 2 12 2m0 18c-4.41 0-8-3.59-8-8s3.59-8 8-8s8 3.59 8 8s-3.59 8-8 8m0-14c-2.21 0-4 1.79-4 4h2c0-1.1.9-2 2-2s2 .9 2 2c0 2-3 1.75-3 5h2c0-2.25 3-2.5 3-5c0-2.21-1.79-4-4-4"/></symbol><symbol id="hd-icon-ic-twotone-hevc" viewBox="0 0 24 24"><path fill="currentColor" d="M5.5 11h-1V9H3v6h1.5v-2.5h1V15H7V9H5.5zM21 11v-1c0-.55-.45-1-1-1h-2c-.55 0-1 .45-1 1v4c0 .55.45 1 1 1h2c.55 0 1-.45 1-1v-1h-1.5v.5h-1v-3h1v.5zm-6.75 2.5L13.5 9H12l1 6h2.5l1-6H15zM8 9v6h3.5v-1.5h-2v-1h2V11h-2v-.5h2V9z"/></symbol><symbol id="hd-icon-ic-twotone-hexagon" viewBox="0 0 24 24"><path fill="currentColor" d="M16.05 19h-8.1l-4.04-7l4.04-7h8.1l4.04 7z" opacity=".3"/><path fill="currentColor" d="M17.2 3H6.8l-5.2 9l5.2 9h10.4l5.2-9zm-1.15 16h-8.1l-4.04-7l4.04-7h8.09l4.04 7z"/></symbol><symbol id="hd-icon-ic-twotone-hide-image" viewBox="0 0 24 24"><path fill="currentColor" d="m16.17 19l-2-2H6l3-4l2.25 3l.82-1.1L5 7.83V19zM7.83 5L19 16.17V5z" opacity=".3"/><path fill="currentColor" d="M19 5v11.17l2 2V5c0-1.1-.9-2-2-2H5.83l2 2zM2.81 2.81L1.39 4.22L3 5.83V19c0 1.1.9 2 2 2h13.17l1.61 1.61l1.41-1.41zM5 19V7.83l7.07 7.07l-.82 1.1L9 13l-3 4h8.17l2 2z"/></symbol><symbol id="hd-icon-ic-twotone-hide-source" viewBox="0 0 24 24"><path fill="currentColor" d="M2.81 2.81L1.39 4.22l2.27 2.27A9.9 9.9 0 0 0 2 12c0 5.52 4.48 10 10 10c2.04 0 3.93-.61 5.51-1.66l2.27 2.27l1.41-1.41zM12 20c-4.41 0-8-3.59-8-8c0-1.48.41-2.86 1.12-4.06l10.94 10.94C14.86 19.59 13.48 20 12 20M7.94 5.12L6.49 3.66A9.9 9.9 0 0 1 12 2c5.52 0 10 4.48 10 10c0 2.04-.61 3.93-1.66 5.51l-1.46-1.46A7.87 7.87 0 0 0 20 12c0-4.41-3.59-8-8-8c-1.48 0-2.86.41-4.06 1.12"/></symbol><symbol id="hd-icon-ic-twotone-high-quality" viewBox="0 0 24 24"><path fill="currentColor" d="M19 6H5v12h14zm-8 9H9.5v-2h-2v2H6V9h1.5v2.5h2V9H11zm7-1c0 .55-.45 1-1 1h-.75v1.5h-1.5V15H14c-.55 0-1-.45-1-1v-4c0-.55.45-1 1-1h3c.55 0 1 .45 1 1zm-3.5-3.5h2v3h-2z" opacity=".3"/><path fill="currentColor" d="M3 6v12a2 2 0 0 0 2 2h14c1.1 0 2-.9 2-2V6c0-1.1-.9-2-2-2H5a2 2 0 0 0-2 2m2 0h14v12H5zm4.5 5.5h-2V9H6v6h1.5v-2h2v2H11V9H9.5zM17 9h-3c-.55 0-1 .45-1 1v4c0 .55.45 1 1 1h.75v1.5h1.5V15H17c.55 0 1-.45 1-1v-4c0-.55-.45-1-1-1m-.5 4.5h-2v-3h2z"/></symbol><symbol id="hd-icon-ic-twotone-highlight" viewBox="0 0 24 24"><path fill="currentColor" d="M11 20h2v-3.83l3-3V11H8v2.17l3 3z" opacity=".3"/><path fill="currentColor" d="m6 14l3 3v5h6v-5l3-3V9H6zm2-3h8v2.17l-3 3V20h-2v-3.83l-3-3zm3-9h2v3h-2zM4.916 4.464l2.12 2.122L5.62 8L3.5 5.877zM18.372 8l-1.414-1.414l2.12-2.12l1.415 1.413z"/></symbol><symbol id="hd-icon-ic-twotone-highlight-alt" viewBox="0 0 24 24"><path fill="currentColor" d="M17 5h-2V3h2zm-2 10v6l2.29-2.29l2.3 2.29L21 19.59l-2.29-2.29L21 15zm4-6h2V7h-2zm0 4h2v-2h-2zm-8 8h2v-2h-2zM7 5h2V3H7zM3 17h2v-2H3zm2 4v-2H3c0 1.1.9 2 2 2M19 3v2h2c0-1.1-.9-2-2-2m-8 2h2V3h-2zM3 9h2V7H3zm4 12h2v-2H7zm-4-8h2v-2H3zm0-8h2V3c-1.1 0-2 .9-2 2"/></symbol><symbol id="hd-icon-ic-twotone-highlight-off" viewBox="0 0 24 24"><path fill="currentColor" d="M12 4c-4.41 0-8 3.59-8 8s3.59 8 8 8s8-3.59 8-8s-3.59-8-8-8m4 10.59L14.59 16L12 13.41L9.41 16L8 14.59L10.59 12L8 9.41L9.41 8L12 10.59L14.59 8L16 9.41L13.41 12z" opacity=".3"/><path fill="currentColor" d="M14.59 8L12 10.59L9.41 8L8 9.41L10.59 12L8 14.59L9.41 16L12 13.41L14.59 16L16 14.59L13.41 12L16 9.41zM12 2C6.47 2 2 6.47 2 12s4.47 10 10 10s10-4.47 10-10S17.53 2 12 2m0 18c-4.41 0-8-3.59-8-8s3.59-8 8-8s8 3.59 8 8s-3.59 8-8 8"/></symbol><symbol id="hd-icon-ic-twotone-hiking" viewBox="0 0 24 24"><path fill="currentColor" d="M13.5 5.5c1.1 0 2-.9 2-2s-.9-2-2-2s-2 .9-2 2s.9 2 2 2m4 5.28c-1.23-.37-2.22-1.17-2.8-2.18l-1-1.6c-.41-.65-1.11-1-1.84-1c-.78 0-1.59.5-1.78 1.44S7 23 7 23h2.1l1.8-8l2.1 2v6h2v-7.5l-2.1-2l.6-3c1 1.15 2.41 2.01 4 2.34V23H19V9h-1.5zM7.43 13.13l-2.12-.41a1 1 0 0 1-.79-1.17l.76-3.93a2 2 0 0 1 2.34-1.58l1.16.23z"/></symbol><symbol id="hd-icon-ic-twotone-history" viewBox="0 0 24 24"><path fill="currentColor" d="M13 3a9 9 0 0 0-9 9H1l3.89 3.89l.07.14L9 12H6c0-3.87 3.13-7 7-7s7 3.13 7 7s-3.13 7-7 7c-1.93 0-3.68-.79-4.94-2.06l-1.42 1.42A8.95 8.95 0 0 0 13 21a9 9 0 0 0 0-18m-1 5v5l4.25 2.52l.77-1.28l-3.52-2.09V8z"/></symbol><symbol id="hd-icon-ic-twotone-history-edu" viewBox="0 0 24 24"><path fill="currentColor" d="M11.34 9.76L9.93 8.34c-.95-.94-2.2-1.46-3.54-1.46c-.63 0-1.25.12-1.82.34l1.04 1.04h2.28v2.14c.4.23.86.35 1.33.35c.73 0 1.41-.28 1.92-.8z" opacity=".3"/><path fill="currentColor" d="m11 6.62l6 5.97V14h-1.41l-2.83-2.83l-.2.2c-.46.46-.99.8-1.56 1.03V15h6v2c0 .55.45 1 1 1s1-.45 1-1V6h-8z" opacity=".3"/><path fill="currentColor" d="M9 4v1.38c-.83-.33-1.72-.5-2.61-.5c-1.79 0-3.58.68-4.95 2.05l3.33 3.33h1.11v1.11c.86.86 1.98 1.31 3.11 1.36V15H6v3c0 1.1.9 2 2 2h10c1.66 0 3-1.34 3-3V4zm-1.11 6.41V8.26H5.61L4.57 7.22a5.1 5.1 0 0 1 1.82-.34c1.34 0 2.59.52 3.54 1.46l1.41 1.41l-.2.2a2.7 2.7 0 0 1-1.92.8c-.47 0-.93-.12-1.33-.34M19 17c0 .55-.45 1-1 1s-1-.45-1-1v-2h-6v-2.59c.57-.23 1.1-.57 1.56-1.03l.2-.2L15.59 14H17v-1.41l-6-5.97V6h8z"/></symbol><symbol id="hd-icon-ic-twotone-history-toggle-off" viewBox="0 0 24 24"><path fill="currentColor" d="m15.1 19.37l1 1.74c-.96.44-2.01.73-3.1.84v-2.02c.74-.09 1.44-.28 2.1-.56M4.07 13H2.05c.11 1.1.4 2.14.84 3.1l1.74-1c-.28-.66-.47-1.36-.56-2.1M15.1 4.63l1-1.74c-.96-.44-2-.73-3.1-.84v2.02c.74.09 1.44.28 2.1.56M19.93 11h2.02c-.11-1.1-.4-2.14-.84-3.1l-1.74 1c.28.66.47 1.36.56 2.1M8.9 19.37l-1 1.74c.96.44 2.01.73 3.1.84v-2.02c-.74-.09-1.44-.28-2.1-.56M11 4.07V2.05c-1.1.11-2.14.4-3.1.84l1 1.74c.66-.28 1.36-.47 2.1-.56m7.36 3.1l1.74-1.01c-.63-.87-1.4-1.64-2.27-2.27l-1.01 1.74c.59.45 1.1.96 1.54 1.54M4.63 8.9l-1.74-1c-.44.96-.73 2-.84 3.1h2.02c.09-.74.28-1.44.56-2.1m15.3 4.1c-.09.74-.28 1.44-.56 2.1l1.74 1c.44-.96.73-2.01.84-3.1zm-3.1 5.36l1.01 1.74c.87-.63 1.64-1.4 2.27-2.27l-1.74-1.01c-.45.59-.96 1.1-1.54 1.54M7.17 5.64l-1-1.75c-.88.64-1.64 1.4-2.27 2.28l1.74 1.01a7.7 7.7 0 0 1 1.53-1.54M5.64 16.83l-1.74 1c.63.87 1.4 1.64 2.27 2.27l1.01-1.74a7.7 7.7 0 0 1-1.54-1.53M13 7h-2v5.41l4.29 4.29l1.41-1.41l-3.7-3.7z"/></symbol><symbol id="hd-icon-ic-twotone-hive" viewBox="0 0 24 24"><path fill="currentColor" d="M5.92 7L4.79 9l1.13 2h2.14l1.13-2l-1.13-2zm5.02 9L9.8 18.02L10.92 20h2.16l1.12-1.98L13.06 16zm2.12-2l1.13-2l-1.13-2h-2.12l-1.13 2l1.13 2zm-7.14-1l-1.13 2l1.13 2h2.14l1.13-2l-1.13-2zm10.02-6l-1.13 2l1.13 2h2.14l1.13-2l-1.13-2zm-5.02-3L9.8 5.98L10.94 8h2.12l1.14-2.02L13.08 4zm5.02 9l-1.13 2l1.13 2h2.14l1.13-2l-1.13-2z" opacity=".3"/><path fill="currentColor" d="m21.5 9l-2.25-4h-3.31l-1.69-3h-4.5L8.06 5H4.75L2.5 9l1.69 3l-1.69 3l2.25 4h3.31l1.69 3h4.5l1.69-3h3.31l2.25-4l-1.69-3zM8.06 17H5.92L4.8 15l1.12-2h2.14l1.12 2zm0-6H5.92L4.79 9l1.12-2h2.14l1.12 2zm5.02 9h-2.16L9.8 18.02L10.94 16h2.12l1.13 2.02zm-3.27-8l1.12-2h2.12l1.12 2l-1.12 2h-2.12zm3.25-4h-2.12L9.8 5.98L10.92 4h2.16l1.12 1.98zm5.02 9h-2.14l-1.12-2l1.12-2h2.14l1.12 2zm0-6h-2.14l-1.12-2l1.12-2h2.14l1.12 2z"/></symbol><symbol id="hd-icon-ic-twotone-hls" viewBox="0 0 24 24"><path fill="currentColor" d="M6.5 9H8v6H6.5v-2.5h-2V15H3V9h1.5v2h2zm10 6h3c.55 0 1-.45 1-1v-1.5c0-.55-.45-1-1-1H17v-1h2v.5h1.5v-1c0-.55-.45-1-1-1h-3c-.55 0-1 .45-1 1v1.5c0 .55.45 1 1 1H19v1h-2V13h-1.5v1c0 .55.45 1 1 1M14 15v-1.5h-2.5V9H10v6z"/></symbol><symbol id="hd-icon-ic-twotone-hls-off" viewBox="0 0 24 24"><path fill="currentColor" d="M17.83 15h1.67c.55 0 1-.45 1-1v-1.5c0-.55-.45-1-1-1H17v-1h2v.5h1.5v-1c0-.55-.45-1-1-1h-3c-.55 0-1 .45-1 1v1.5c0 .55.45 1 1 1H19v1h-2V13h-1.17zM8 10.83V15H6.5v-2.5h-2V15H3V9h1.5v2h2V9.33L1.39 4.22L2.8 2.81l18.38 18.38l-1.41 1.41l-7.6-7.6H10v-2.17z"/></symbol><symbol id="hd-icon-ic-twotone-holiday-village" viewBox="0 0 24 24"><path fill="currentColor" d="m8 6.83l-4 4V18h3v-3h2v3h3v-7.17zM9 13H7v-2h2z" opacity=".3"/><path fill="currentColor" d="m8 4l-6 6v10h12V10zm4 14H9v-3H7v3H4v-7.17l4-4l4 4zm-3-5H7v-2h2zm9 7V8.35L13.65 4h-2.83L16 9.18V20zm4 0V6.69L19.31 4h-2.83L20 7.52V20z"/></symbol><symbol id="hd-icon-ic-twotone-home" viewBox="0 0 24 24"><path fill="currentColor" d="M12 3L2 12h3v8h6v-6h2v6h6v-8h3zm5 15h-2v-6H9v6H7v-7.81l5-4.5l5 4.5z"/><path fill="currentColor" d="M7 10.19V18h2v-6h6v6h2v-7.81l-5-4.5z" opacity=".3"/></symbol><symbol id="hd-icon-ic-twotone-home-max" viewBox="0 0 24 24"><path fill="currentColor" d="M19 7H5c-1.1 0-2 .9-2 2v5c0 1.1.9 2 2 2h14c1.1 0 2-.9 2-2V9c0-1.1-.9-2-2-2" opacity=".3"/><path fill="currentColor" d="M19 5H5C2.79 5 1 6.79 1 9v5c0 2.21 1.79 4 4 4h2v1h10v-1h2c2.21 0 4-1.79 4-4V9c0-2.21-1.79-4-4-4m2 9c0 1.1-.9 2-2 2H5c-1.1 0-2-.9-2-2V9c0-1.1.9-2 2-2h14c1.1 0 2 .9 2 2z"/></symbol><symbol id="hd-icon-ic-twotone-home-mini" viewBox="0 0 24 24"><path fill="currentColor" d="M12 7c-7.91 0-8 4.8-8 5h16c-.01-.49-.36-5-8-5M9.14 17h5.72c2.1 0 3.92-1.24 4.71-3H4.42c.8 1.76 2.62 3 4.72 3" opacity=".3"/><path fill="currentColor" d="M12 5C4.19 5 2 9.48 2 12c0 3.86 3.13 7 6.99 7h6.02C17.7 19 22 16.92 22 12c0 0 0-7-10-7m2.86 12H9.14c-2.1 0-3.92-1.24-4.71-3h15.15c-.8 1.76-2.62 3-4.72 3M4 12c0-.2.09-5 8-5c7.64 0 7.99 4.51 8 5z"/></symbol><symbol id="hd-icon-ic-twotone-home-repair-service" viewBox="0 0 24 24"><path fill="currentColor" d="M20 8h-3V6c0-1.1-.9-2-2-2H9c-1.1 0-2 .9-2 2v2H4c-1.1 0-2 .9-2 2v10h20V10c0-1.1-.9-2-2-2M9 6h6v2H9zm11 12H4v-3h2v1h2v-1h8v1h2v-1h2zm0-5h-2v-1h-2v1H8v-1H6v1H4v-3h16z"/><path fill="currentColor" d="M18 16h-2v-1H8v1H6v-1H4v3h16v-3h-2zM4 10v3h2v-1h2v1h8v-1h2v1h2v-3H7z" opacity=".3"/></symbol><symbol id="hd-icon-ic-twotone-home-work" viewBox="0 0 24 24"><path fill="currentColor" d="M17 11h2v2h-2v2h2v2h-2v2h4V5h-9v1.4l5 3.57zm0-4h2v2h-2z" opacity=".3"/><path fill="currentColor" d="M10 3v1.97l.96.69L12 6.4V5h9v14h-4v2h6V3z"/><path fill="currentColor" d="M3 12v7h2v-5h6v5h2v-7L8 8.5z" opacity=".3"/><path fill="currentColor" d="M17 7h2v2h-2zm0 4h2v2h-2zm0 4h2v2h-2zM1 11v10h6v-5h2v5h6V11L8 6zm12 8h-2v-5H5v5H3v-7l5-3.5l5 3.5z"/></symbol><symbol id="hd-icon-ic-twotone-horizontal-distribute" viewBox="0 0 24 24"><path fill="currentColor" d="M4 22H2V2h2zM22 2h-2v20h2zm-8.5 5h-3v10h3z"/></symbol><symbol id="hd-icon-ic-twotone-horizontal-rule" viewBox="0 0 24 24"><path fill="currentColor" fill-rule="evenodd" d="M4 11h16v2H4z"/></symbol><symbol id="hd-icon-ic-twotone-horizontal-split" viewBox="0 0 24 24"><path fill="currentColor" d="M19 15v2H5v-2zm2-10H3v2h18zm0 4H3v2h18zm0 4H3v6h18z"/><path fill="currentColor" d="M5 15h14v2H5z" opacity=".3"/></symbol><symbol id="hd-icon-ic-twotone-hot-tub" viewBox="0 0 24 24"><circle cx="7" cy="6" r="2" fill="currentColor"/><path fill="currentColor" d="M17.42 7.21c.57.62.82 1.41.67 2.2l-.11.59h1.91l.06-.43c.21-1.36-.27-2.71-1.3-3.71l-.07-.07c-.57-.62-.82-1.41-.67-2.2L18 3h-1.89l-.06.43c-.2 1.36.27 2.71 1.3 3.72zM11.15 12c-.31-.22-.59-.46-.82-.72l-1.4-1.55c-.19-.21-.43-.38-.69-.5c-.29-.14-.62-.23-.96-.23h-.03C6.01 9 5 10.01 5 11.25V12H2v8c0 1.1.9 2 2 2h16c1.1 0 2-.9 2-2v-8zM7 20H5v-6h2zm4 0H9v-6h2zm4 0h-2v-6h2zm4 0h-2v-6h2zM13.42 7.21c.57.62.82 1.41.67 2.2l-.11.59h1.91l.06-.43c.21-1.36-.27-2.71-1.3-3.71l-.07-.07c-.57-.62-.82-1.41-.67-2.2L14 3h-1.89l-.06.43c-.2 1.36.27 2.71 1.3 3.72z"/></symbol><symbol id="hd-icon-ic-twotone-hotel" viewBox="0 0 24 24"><path fill="currentColor" d="M19 9h-6v6h8v-4c0-1.1-.9-2-2-2" opacity=".3"/><circle cx="7" cy="11" r="1" fill="currentColor" opacity=".3"/><path fill="currentColor" d="M4 11c0 1.66 1.34 3 3 3s3-1.34 3-3s-1.34-3-3-3s-3 1.34-3 3m4 0c0 .55-.45 1-1 1s-1-.45-1-1s.45-1 1-1s1 .45 1 1m11-4h-8v8H3V5H1v15h2v-3h18v3h2v-9c0-2.21-1.79-4-4-4m2 8h-8V9h6c1.1 0 2 .9 2 2z"/></symbol><symbol id="hd-icon-ic-twotone-hotel-class" viewBox="0 0 24 24"><path fill="currentColor" d="m11 8.89l.94 3.11h2.82l-2.27 1.62l.93 3.01L11 14.79l-2.42 1.84l.93-3.01L7.24 12h2.82z" opacity=".3"/><path fill="currentColor" d="m11 8.89l.94 3.11h2.82l-2.27 1.62l.93 3.01L11 14.79l-2.42 1.84l.93-3.01L7.24 12h2.82zM8.58 10H1l6.17 4.41L4.83 22L11 17.31L17.18 22l-2.35-7.59L21 10h-7.58L11 2zm12.78 12l-1.86-6.01L23.68 13h-3.44l-3.08 2.2l1.46 4.72zM17 8l-1.82-6l-1.04 3.45l.77 2.55z"/></symbol><symbol id="hd-icon-ic-twotone-hourglass-bottom" viewBox="0 0 24 24"><defs><path id="hd-icon-ic-twotone-hourglass-bottom-2" fill="currentColor" d="m16 16.5l-4-4l-4 4V20h8z"/></defs><use href="#hd-icon-ic-twotone-hourglass-bottom-2" opacity=".3"/><use href="#hd-icon-ic-twotone-hourglass-bottom-2" opacity=".3"/><path fill="currentColor" d="M6 22h12v-6l-4-4l3.99-4.01L18 2H6l.01 5.99L10 12l-4 3.99zM8 7.5V4h8v3.5l-4 4zm0 9l4-4l4 4V20H8z"/></symbol><symbol id="hd-icon-ic-twotone-hourglass-disabled" viewBox="0 0 24 24"><path fill="currentColor" d="M8 4h8v3.5l-2.84 2.84l1.25 1.25L18 8.01L17.99 8H18V2H6v1.17l2 2zM2.1 2.1L.69 3.51l8.9 8.9L6 16l.01.01H6V22h12v-1.17l2.49 2.49l1.41-1.41zM16 20H8v-3.5l2.84-2.84L16 18.83z"/></symbol><symbol id="hd-icon-ic-twotone-hourglass-empty" viewBox="0 0 24 24"><path fill="currentColor" d="M18 2H6v6h.01L6 8.01L10 12l-4 4l.01.01H6V22h12v-5.99h-.01L18 16l-4-4l4-3.99l-.01-.01H18zm-2 14.5V20H8v-3.5l4-4zm0-9l-4 4l-4-4V4h8z"/></symbol><symbol id="hd-icon-ic-twotone-hourglass-full" viewBox="0 0 24 24"><path fill="currentColor" d="m8 7.5l4 4l4-4V4H8zm0 9V20h8v-3.5l-4-4z" opacity=".3"/><path fill="currentColor" d="M18 2H6v6h.01L6 8.01L10 12l-4 4l.01.01H6V22h12v-5.99h-.01L18 16l-4-4l4-3.99l-.01-.01H18zm-2 14.5V20H8v-3.5l4-4zm0-9l-4 4l-4-4V4h8z"/></symbol><symbol id="hd-icon-ic-twotone-hourglass-top" viewBox="0 0 24 24"><defs><path id="hd-icon-ic-twotone-hourglass-top-3" fill="currentColor" d="m8 7.5l4 4l4-4V4H8z"/></defs><use href="#hd-icon-ic-twotone-hourglass-top-3" opacity=".3"/><use href="#hd-icon-ic-twotone-hourglass-top-3" opacity=".3"/><path fill="currentColor" d="M18 2H6v6l4 4l-3.99 4.01L6 22h12l-.01-5.99L14 12l4-3.99zm-2 14.5V20H8v-3.5l4-4zm0-9l-4 4l-4-4V4h8z"/></symbol><symbol id="hd-icon-ic-twotone-house" viewBox="0 0 24 24"><path fill="currentColor" d="M7 10.19V18h2v-6h6v6h2v-7.81l-5-4.5zm7-.19h-4c0-1.1.9-2 2-2s2 .9 2 2" opacity=".3"/><path fill="currentColor" d="M19 9.3V4h-3v2.6L12 3L2 12h3v8h6v-6h2v6h6v-8h3zM17 18h-2v-6H9v6H7v-7.81l5-4.5l5 4.5z"/><path fill="currentColor" d="M10 10h4c0-1.1-.9-2-2-2s-2 .9-2 2"/></symbol><symbol id="hd-icon-ic-twotone-house-siding" viewBox="0 0 24 24"><path fill="currentColor" d="M7.21 10h9.58l.21.19V12H7v-1.81zm7.36-2H9.43L12 5.69zM7 16v-2h10v2z" opacity=".3"/><path fill="currentColor" d="M19 12h3L12 3L2 12h3v8h2v-2h10v2h2zM7.21 10h9.58l.21.19V12H7v-1.81zm7.36-2H9.43L12 5.69zM7 16v-2h10v2z"/></symbol><symbol id="hd-icon-ic-twotone-houseboat" viewBox="0 0 24 24"><path fill="currentColor" d="M13 13v-2h-2v2H9V8.18l3-2.2l3 2.2V13z" opacity=".3"/><path fill="currentColor" d="M12 16c-1.95 0-2.1 1-3.34 1c-1.19 0-1.42-1-3.33-1c-1.95 0-2.09 1-3.33 1v2c1.9 0 2.17-1 3.35-1c1.19 0 1.42 1 3.33 1c1.95 0 2.08-1 3.32-1s1.37 1 3.32 1c1.91 0 2.14-1 3.33-1c1.18 0 1.45 1 3.35 1v-2c-1.24 0-1.38-1-3.33-1c-1.91 0-2.14 1-3.33 1c-1.24 0-1.39-1-3.34-1m8.34-4.66l-1.37 1.37c-.19.18-.45.29-.71.29H17V9.65l1.32.97L19.5 9L12 3.5L4.5 9l1.18 1.61L7 9.65V13H5.74c-.27 0-.52-.11-.71-.29l-1.37-1.37l-1.41 1.41l1.37 1.37c.56.56 1.33.88 2.12.88h12.51c.8 0 1.56-.32 2.12-.88l1.37-1.37zM13 13v-2h-2v2H9V8.18l3-2.2l3 2.2V13z"/></symbol><symbol id="hd-icon-ic-twotone-how-to-reg" viewBox="0 0 24 24"><circle cx="11" cy="8" r="2" fill="currentColor" opacity=".3"/><path fill="currentColor" d="M5 18h4.99L9 17l.93-.94C7.55 16.33 5.2 17.37 5 18" opacity=".3"/><path fill="currentColor" d="M11 12c2.21 0 4-1.79 4-4s-1.79-4-4-4s-4 1.79-4 4s1.79 4 4 4m0-6c1.1 0 2 .9 2 2s-.9 2-2 2s-2-.9-2-2s.9-2 2-2m-1 12H5c.2-.63 2.55-1.67 4.93-1.94h.03l.46-.45L12 14.06a9 9 0 0 0-1-.06c-2.67 0-8 1.34-8 4v2h9zm10.6-5.5l-5.13 5.17l-2.07-2.08L12 17l3.47 3.5L22 13.91z"/></symbol><symbol id="hd-icon-ic-twotone-how-to-vote" viewBox="0 0 24 24"><path fill="currentColor" d="M5 19h14v1H5z" opacity=".3"/><path fill="currentColor" d="M18 13h-.68l-2 2h1.91L19 17H5l1.78-2h2.05l-2-2H6l-3 3v4c0 1.1.89 2 1.99 2H19a2 2 0 0 0 2-2v-4zm1 7H5v-1h14z"/><path fill="currentColor" d="M12.048 12.905L8.505 9.362l4.95-4.95l3.543 3.543z" opacity=".3"/><path fill="currentColor" d="M19.11 7.25L14.16 2.3a.975.975 0 0 0-1.4-.01L6.39 8.66a.996.996 0 0 0 0 1.41l4.95 4.95c.39.39 1.02.39 1.41 0l6.36-6.36a.996.996 0 0 0 0-1.41m-7.06 5.65L8.51 9.36l4.95-4.95L17 7.95z"/></symbol><symbol id="hd-icon-ic-twotone-html" viewBox="0 0 24 24"><path fill="currentColor" d="M3.5 9H5v6H3.5v-2.5h-2V15H0V9h1.5v2h2zm14 0H13c-.55 0-1 .45-1 1v5h1.5v-4.5h1V14H16v-3.51h1V15h1.5v-5c0-.55-.45-1-1-1M11 9H6v1.5h1.75V15h1.5v-4.5H11zm13 6v-1.5h-2.5V9H20v6z"/></symbol><symbol id="hd-icon-ic-twotone-http" viewBox="0 0 24 24"><path fill="currentColor" d="M4.5 11h-2V9H1v6h1.5v-2.5h2V15H6V9H4.5zm2.5-.5h1.5V15H10v-4.5h1.5V9H7zm5.5 0H14V15h1.5v-4.5H17V9h-4.5zm9-1.5H18v6h1.5v-2h2c.8 0 1.5-.7 1.5-1.5v-1c0-.8-.7-1.5-1.5-1.5m0 2.5h-2v-1h2z"/></symbol><symbol id="hd-icon-ic-twotone-https" viewBox="0 0 24 24"><path fill="currentColor" d="M6 20h12V10H6zm6-7c1.1 0 2 .9 2 2s-.9 2-2 2s-2-.9-2-2s.9-2 2-2" opacity=".3"/><path fill="currentColor" d="M18 8h-1V6c0-2.76-2.24-5-5-5S7 3.24 7 6v2H6c-1.1 0-2 .9-2 2v10c0 1.1.9 2 2 2h12c1.1 0 2-.9 2-2V10c0-1.1-.9-2-2-2M9 6c0-1.66 1.34-3 3-3s3 1.34 3 3v2H9zm9 14H6V10h12zm-6-3c1.1 0 2-.9 2-2s-.9-2-2-2s-2 .9-2 2s.9 2 2 2"/></symbol><symbol id="hd-icon-ic-twotone-hub" viewBox="0 0 24 24"><path fill="currentColor" d="M3 10.5c-.55 0-1-.45-1-1s.45-1 1-1s1 .45 1 1s-.45 1-1 1M6 21c-.55 0-1-.45-1-1s.45-1 1-1s1 .45 1 1s-.45 1-1 1m5-18c0-.55.45-1 1-1s1 .45 1 1s-.45 1-1 1s-1-.45-1-1m1 12a2.5 2.5 0 0 1 0-5a2.5 2.5 0 0 1 0 5m6 4c.55 0 1 .45 1 1s-.45 1-1 1s-1-.45-1-1s.45-1 1-1m3-8.5c-.55 0-1-.45-1-1s.45-1 1-1s1 .45 1 1s-.45 1-1 1" opacity=".3"/><path fill="currentColor" d="M21 6.5a2.996 2.996 0 0 0-2.99 3.21l-2.03.68a4.47 4.47 0 0 0-3.22-2.32V5.91A3.02 3.02 0 0 0 15 3c0-1.66-1.34-3-3-3S9 1.34 9 3c0 1.4.96 2.57 2.25 2.91v2.16c-1.4.23-2.58 1.11-3.22 2.32l-2.04-.68C6 9.64 6 9.57 6 9.5c0-1.66-1.34-3-3-3s-3 1.34-3 3s1.34 3 3 3c1.06 0 1.98-.55 2.52-1.37l2.03.68c-.2 1.29.17 2.66 1.09 3.69l-1.41 1.77Q6.66 17 6 17c-1.66 0-3 1.34-3 3s1.34 3 3 3s3-1.34 3-3c0-.68-.22-1.3-.6-1.8l1.41-1.77c1.36.76 3.02.75 4.37 0l1.41 1.77c-.37.5-.59 1.12-.59 1.8c0 1.66 1.34 3 3 3s3-1.34 3-3s-1.34-3-3-3c-.44 0-.85.09-1.23.26l-1.41-1.77a4.49 4.49 0 0 0 1.09-3.69l2.03-.68c.53.82 1.46 1.37 2.52 1.37c1.66 0 3-1.34 3-3S22.66 6.5 21 6.5m-18 4c-.55 0-1-.45-1-1s.45-1 1-1s1 .45 1 1s-.45 1-1 1M6 21c-.55 0-1-.45-1-1s.45-1 1-1s1 .45 1 1s-.45 1-1 1m5-18c0-.55.45-1 1-1s1 .45 1 1s-.45 1-1 1s-1-.45-1-1m1 12a2.5 2.5 0 0 1 0-5a2.5 2.5 0 0 1 0 5m6 4c.55 0 1 .45 1 1s-.45 1-1 1s-1-.45-1-1s.45-1 1-1m3-8.5c-.55 0-1-.45-1-1s.45-1 1-1s1 .45 1 1s-.45 1-1 1"/></symbol><symbol id="hd-icon-ic-twotone-hvac" viewBox="0 0 24 24"><path fill="currentColor" d="M5 19h14V5H5zm7-13c3.31 0 6 2.69 6 6s-2.69 6-6 6s-6-2.69-6-6s2.69-6 6-6" opacity=".3"/><path fill="currentColor" d="M19 3H5c-1.1 0-2 .9-2 2v14c0 1.1.9 2 2 2h14c1.1 0 2-.9 2-2V5c0-1.1-.9-2-2-2m0 16H5V5h14z"/><path fill="currentColor" d="M12 18c3.31 0 6-2.69 6-6s-2.69-6-6-6s-6 2.69-6 6s2.69 6 6 6m0-2c-1.01 0-1.91-.39-2.62-1h5.24c-.71.61-1.61 1-2.62 1m0-8c1.01 0 1.91.39 2.62 1H9.38c.71-.61 1.61-1 2.62-1m-3.44 2h6.89c.26.45.44.96.51 1.5h-7.9c.06-.54.23-1.05.5-1.5m7.39 2.5c-.07.54-.24 1.05-.51 1.5H8.56c-.26-.45-.44-.96-.51-1.5z"/></symbol><symbol id="hd-icon-ic-twotone-ice-skating" viewBox="0 0 24 24"><path fill="currentColor" d="M5 16V5h5v1H8.5c-.28 0-.5.22-.5.5s.22.5.5.5H10l.1 1H8.5c-.28 0-.5.22-.5.5s.22.5.5.5h1.81c.45 1.12 1.4 2.01 2.6 2.36l2.62.73C16.4 12.33 17 13.1 17 14v2z" opacity=".3"/><path fill="currentColor" d="M21 17c0 1.66-1.34 3-3 3h-2v-2h3v-4a3.96 3.96 0 0 0-2.91-3.82l-2.62-.74C12.62 9.19 12 8.39 12 7.5V3H3v15h3v2H2v2h16c2.76 0 5-2.24 5-5zM5 16V5h5v1H8.5c-.28 0-.5.22-.5.5s.22.5.5.5H10l.1 1H8.5c-.28 0-.5.22-.5.5s.22.5.5.5h1.81c.45 1.12 1.4 2.01 2.6 2.36l2.62.73C16.4 12.33 17 13.1 17 14v2zm9 4H8v-2h6z"/></symbol><symbol id="hd-icon-ic-twotone-icecream" viewBox="0 0 24 24"><path fill="currentColor" d="m9.32 13.42l2.73 5.21l2.67-5.23a6.47 6.47 0 0 1-5.4.02m7.99-5.4l-.77-.12l-.06-.78C16.29 4.8 14.34 3 12 3S7.71 4.8 7.51 7.12l-.06.78l-.77.13A1.999 1.999 0 0 0 7 12c.52 0 1.01-.21 1.39-.56l.56-.54l.66.41a4.52 4.52 0 0 0 4.78.01l.66-.42l.56.54c.38.36.87.56 1.39.56c1.1 0 2-.9 2-2c0-.99-.72-1.82-1.69-1.98" opacity=".3"/><path fill="currentColor" d="M18.38 6.24C17.79 3.24 15.14 1 12 1S6.21 3.24 5.62 6.24A4.01 4.01 0 0 0 3 10c0 2.21 1.79 4 4 4c.12 0 .23-.02.34-.02L12.07 23l4.61-9.03c.11.01.21.03.32.03c2.21 0 4-1.79 4-4c0-1.71-1.08-3.19-2.62-3.76m-6.33 12.39l-2.73-5.21a6.47 6.47 0 0 0 5.4-.02zM17 12c-.52 0-1.01-.2-1.39-.56l-.56-.54l-.66.42a4.52 4.52 0 0 1-4.78-.01l-.66-.41l-.56.54c-.38.35-.87.56-1.39.56a1.999 1.999 0 0 1-.32-3.97l.77-.13l.06-.78C7.71 4.8 9.66 3 12 3s4.29 1.8 4.48 4.12l.06.78l.77.12c.97.16 1.69.99 1.69 1.98c0 1.1-.9 2-2 2"/></symbol><symbol id="hd-icon-ic-twotone-image" viewBox="0 0 24 24"><path fill="currentColor" d="M5 19h14V5H5zm4-5.86l2.14 2.58l3-3.87L18 17H6z" opacity=".3"/><path fill="currentColor" d="M19 3H5c-1.1 0-2 .9-2 2v14c0 1.1.9 2 2 2h14c1.1 0 2-.9 2-2V5c0-1.1-.9-2-2-2m0 16H5V5h14zm-4.86-7.14l-3 3.86L9 13.14L6 17h12z"/></symbol><symbol id="hd-icon-ic-twotone-image-aspect-ratio" viewBox="0 0 24 24"><path fill="currentColor" d="M4 18h16V6H4zm10-8h2v2h-2zm0 4h2v2h-2zm-4-4h2v2h-2zm-4 0h2v2H6z" opacity=".3"/><path fill="currentColor" d="M14 10h2v2h-2zm0 4h2v2h-2zm-8-4h2v2H6zm4 0h2v2h-2zm10-6H4c-1.1 0-2 .9-2 2v12c0 1.1.9 2 2 2h16c1.1 0 2-.9 2-2V6c0-1.1-.9-2-2-2m0 14H4V6h16z"/></symbol><symbol id="hd-icon-ic-twotone-image-not-supported" viewBox="0 0 24 24"><path fill="currentColor" d="M7.83 5H19v11.17zm8.34 14l-2-2H6l3-4l2 2.72l.84-1.05L5 7.83V19z" opacity=".3"/><path fill="currentColor" d="M5.83 3H19c1.1 0 2 .9 2 2v13.17l-2-2V5H7.83zm14.66 20.31L18.17 21H5c-1.1 0-2-.9-2-2V5.83L.69 3.51L2.1 2.1l1.49 1.49L5 5l8.11 8.11l2.69 2.69L19 19l1.41 1.41l1.49 1.49zM16.17 19l-2-2H6l3-4l2 2.72l.84-1.05L5 7.83V19z"/></symbol><symbol id="hd-icon-ic-twotone-image-search" viewBox="0 0 24 24"><path fill="currentColor" d="M17.7 11.53c-.7.31-1.45.47-2.21.47C12.46 12 10 9.53 10 6.5c0-.17.01-.34.03-.5H4v14h14v-8.17zM5.5 18l2.75-3.53l1.96 2.36l2.75-3.54L16.5 18z" opacity=".3"/><path fill="currentColor" d="m10.21 16.83l-1.96-2.36L5.5 18h11l-3.54-4.71zM20 6.5C20 4.01 17.99 2 15.5 2S11 4.01 11 6.5s2.01 4.5 4.49 4.5c.88 0 1.7-.26 2.39-.7L21 13.42L22.42 12L19.3 8.89c.44-.7.7-1.51.7-2.39M15.5 9a2.5 2.5 0 0 1 0-5a2.5 2.5 0 0 1 0 5M18 20H4V6h6.03c.06-.72.27-1.39.58-2H4c-1.1 0-2 .9-2 2v14c0 1.1.9 2 2 2h14c1.1 0 2-.9 2-2v-6.17l-2-2z"/></symbol><symbol id="hd-icon-ic-twotone-imagesearch-roller" viewBox="0 0 24 24"><path fill="currentColor" d="M8 4h10v2H8zm4 13h2v4h-2z" opacity=".3"/><path fill="currentColor" d="M20 7V3c0-.55-.45-1-1-1H7c-.55 0-1 .45-1 1v1H4c-1.1 0-2 .9-2 2v4c0 1.1.9 2 2 2h8v3h-1c-.55 0-1 .45-1 1v6c0 .55.45 1 1 1h4c.55 0 1-.45 1-1v-6c0-.55-.45-1-1-1h-1v-3c0-1.1-.9-2-2-2H4V6h2v1c0 .55.45 1 1 1h12c.55 0 1-.45 1-1M8 4h10v2H8zm6 17h-2v-4h2z"/></symbol><symbol id="hd-icon-ic-twotone-import-contacts" viewBox="0 0 24 24"><path fill="currentColor" d="M21 5c-1.11-.35-2.33-.5-3.5-.5c-1.95 0-4.05.4-5.5 1.5c-1.45-1.1-3.55-1.5-5.5-1.5S2.45 4.9 1 6v14.65c0 .25.25.5.5.5c.1 0 .15-.05.25-.05C3.1 20.45 5.05 20 6.5 20c1.95 0 4.05.4 5.5 1.5c1.35-.85 3.8-1.5 5.5-1.5c1.65 0 3.35.3 4.75 1.05c.1.05.15.05.25.05c.25 0 .5-.25.5-.5V6c-.6-.45-1.25-.75-2-1M3 18.5V7c1.1-.35 2.3-.5 3.5-.5c1.34 0 3.13.41 4.5.99v11.5C9.63 18.41 7.84 18 6.5 18c-1.2 0-2.4.15-3.5.5m18 0c-1.1-.35-2.3-.5-3.5-.5c-1.34 0-3.13.41-4.5.99V7.49c1.37-.59 3.16-.99 4.5-.99c1.2 0 2.4.15 3.5.5z"/><path fill="currentColor" d="M11 7.49c-1.37-.58-3.16-.99-4.5-.99c-1.2 0-2.4.15-3.5.5v11.5c1.1-.35 2.3-.5 3.5-.5c1.34 0 3.13.41 4.5.99z" opacity=".3"/></symbol><symbol id="hd-icon-ic-twotone-import-export" viewBox="0 0 24 24"><path fill="currentColor" d="M5 6.99h3V14h2V6.99h3L9 3zM14 10v7.01h-3L15 21l4-3.99h-3V10z"/></symbol><symbol id="hd-icon-ic-twotone-important-devices" viewBox="0 0 24 24"><path fill="currentColor" d="M18 13h5v7h-5z" opacity=".3"/><path fill="currentColor" d="M23 11.01L18 11c-.55 0-1 .45-1 1v9c0 .55.45 1 1 1h5c.55 0 1-.45 1-1v-9c0-.55-.45-.99-1-.99M23 20h-5v-7h5zM2 4h18v5h2V4a2 2 0 0 0-2-2H2C.89 2 0 2.89 0 4v12a2 2 0 0 0 2 2h7v2H7v2h8v-2h-2v-2h2v-2H2zm9 2l-.97 3H7l2.47 1.76l-.94 2.91l2.47-1.8l2.47 1.8l-.94-2.91L15 9h-3.03z"/></symbol><symbol id="hd-icon-ic-twotone-inbox" viewBox="0 0 24 24"><path fill="currentColor" d="M12.01 18c-1.48 0-2.75-.81-3.45-2H5v3h14v-3h-3.55a3.98 3.98 0 0 1-3.44 2" opacity=".3"/><path fill="currentColor" d="M19 3H5c-1.1 0-2 .9-2 2v14a2 2 0 0 0 2 2h14c1.1 0 2-.9 2-2V5c0-1.1-.9-2-2-2m0 16H5v-3h3.56c.69 1.19 1.97 2 3.45 2s2.75-.81 3.45-2H19zm0-5h-5c0 1.1-.9 2-2 2s-2-.9-2-2H5V5h14z"/></symbol><symbol id="hd-icon-ic-twotone-incomplete-circle" viewBox="0 0 24 24"><path fill="currentColor" d="M22 12c0 5.52-4.48 10-10 10S2 17.52 2 12c0-2.76 1.12-5.26 2.93-7.07L12 12V2c5.52 0 10 4.48 10 10"/></symbol><symbol id="hd-icon-ic-twotone-indeterminate-check-box" viewBox="0 0 24 24"><path fill="currentColor" d="M5 19h14V5H5zm2-8h10v2H7z" opacity=".3"/><path fill="currentColor" d="M19 3H5c-1.1 0-2 .9-2 2v14c0 1.1.9 2 2 2h14c1.1 0 2-.9 2-2V5c0-1.1-.9-2-2-2m0 16H5V5h14zM7 11h10v2H7z"/></symbol><symbol id="hd-icon-ic-twotone-info" viewBox="0 0 24 24"><path fill="currentColor" d="M12 4c-4.41 0-8 3.59-8 8s3.59 8 8 8s8-3.59 8-8s-3.59-8-8-8m1 13h-2v-6h2zm0-8h-2V7h2z" opacity=".3"/><path fill="currentColor" d="M11 7h2v2h-2zm0 4h2v6h-2zm1-9C6.48 2 2 6.48 2 12s4.48 10 10 10s10-4.48 10-10S17.52 2 12 2m0 18c-4.41 0-8-3.59-8-8s3.59-8 8-8s8 3.59 8 8s-3.59 8-8 8"/></symbol><symbol id="hd-icon-ic-twotone-input" viewBox="0 0 24 24"><path fill="currentColor" d="M21 3.01H3c-1.1 0-2 .9-2 2V9h2V4.99h18v14.03H3V15H1v4.01c0 1.1.9 1.98 2 1.98h18c1.1 0 2-.88 2-1.98v-14a2 2 0 0 0-2-2M11 16l4-4l-4-4v3H1v2h10z"/></symbol><symbol id="hd-icon-ic-twotone-insert-chart" viewBox="0 0 24 24"><path fill="currentColor" d="M19 5H5v14h14zM9 17H7v-7h2zm4 0h-2V7h2zm4 0h-2v-4h2z" opacity=".3"/><path fill="currentColor" d="M3 5v14c0 1.1.9 2 2 2h14c1.1 0 2-.9 2-2V5c0-1.1-.9-2-2-2H5c-1.1 0-2 .9-2 2m2 0h14v14H5zm2 5h2v7H7zm4-3h2v10h-2zm4 6h2v4h-2z"/></symbol><symbol id="hd-icon-ic-twotone-insert-chart-outlined" viewBox="0 0 24 24"><path fill="currentColor" d="M9 17H7v-7h2zm4 0h-2V7h2zm4 0h-2v-4h2zm2 2H5V5h14zm0-16H5c-1.1 0-2 .9-2 2v14c0 1.1.9 2 2 2h14c1.1 0 2-.9 2-2V5c0-1.1-.9-2-2-2"/></symbol><symbol id="hd-icon-ic-twotone-insert-comment" viewBox="0 0 24 24"><path fill="currentColor" d="M4 16h14.83L20 17.17V4H4zM6 6h12v2H6zm0 3h12v2H6zm0 3h12v2H6z" opacity=".3"/><path fill="currentColor" d="M20 2H4c-1.1 0-2 .9-2 2v12c0 1.1.9 2 2 2h14l4 4V4c0-1.1-.9-2-2-2m0 2v13.17L18.83 16H4V4zM6 12h12v2H6zm0-3h12v2H6zm0-3h12v2H6z"/></symbol><symbol id="hd-icon-ic-twotone-insert-drive-file" viewBox="0 0 24 24"><path fill="currentColor" d="M13 4H6v16h12V9h-5z" opacity=".3"/><path fill="currentColor" d="m20 8l-6-6H6c-1.1 0-1.99.9-1.99 2L4 20c0 1.1.89 2 1.99 2H18c1.1 0 2-.9 2-2zm-2 12H6V4h7v5h5z"/></symbol><symbol id="hd-icon-ic-twotone-insert-emoticon" viewBox="0 0 24 24"><path fill="currentColor" d="M12 4c-4.42 0-8 3.58-8 8s3.58 8 8 8s8-3.58 8-8s-3.58-8-8-8m3.5 4c.83 0 1.5.67 1.5 1.5s-.67 1.5-1.5 1.5s-1.5-.67-1.5-1.5s.67-1.5 1.5-1.5m-7 0c.83 0 1.5.67 1.5 1.5S9.33 11 8.5 11S7 10.33 7 9.5S7.67 8 8.5 8m3.5 9.5c-2.33 0-4.31-1.46-5.11-3.5h10.22c-.8 2.04-2.78 3.5-5.11 3.5" opacity=".3"/><circle cx="15.5" cy="9.5" r="1.5" fill="currentColor"/><path fill="currentColor" d="M11.99 2C6.47 2 2 6.48 2 12s4.47 10 9.99 10C17.52 22 22 17.52 22 12S17.52 2 11.99 2M12 20c-4.42 0-8-3.58-8-8s3.58-8 8-8s8 3.58 8 8s-3.58 8-8 8"/><circle cx="8.5" cy="9.5" r="1.5" fill="currentColor"/><path fill="currentColor" d="M12 17.5c2.33 0 4.31-1.46 5.11-3.5H6.89c.8 2.04 2.78 3.5 5.11 3.5"/></symbol><symbol id="hd-icon-ic-twotone-insert-invitation" viewBox="0 0 24 24"><path fill="currentColor" d="M19 5H5v2h14z" opacity=".3"/><path fill="currentColor" d="M5 21h14c1.1 0 2-.9 2-2V5c0-1.1-.9-2-2-2h-1V1h-2v2H8V1H6v2H5c-1.11 0-1.99.9-1.99 2L3 19a2 2 0 0 0 2 2M5 7V5h14v2zm0 2h14v10H5zm7 3h5v5h-5z"/></symbol><symbol id="hd-icon-ic-twotone-insert-link" viewBox="0 0 24 24"><path fill="currentColor" d="M3.9 12c0-1.71 1.39-3.1 3.1-3.1h4V7H7c-2.76 0-5 2.24-5 5s2.24 5 5 5h4v-1.9H7c-1.71 0-3.1-1.39-3.1-3.1M8 13h8v-2H8zm9-6h-4v1.9h4c1.71 0 3.1 1.39 3.1 3.1s-1.39 3.1-3.1 3.1h-4V17h4c2.76 0 5-2.24 5-5s-2.24-5-5-5"/></symbol><symbol id="hd-icon-ic-twotone-insert-page-break" viewBox="0 0 24 24"><path fill="currentColor" d="M18 11H6V4h7v5h5z" opacity=".3"/><path fill="currentColor" d="M18 20H6v-3H4v3c0 1.1.9 2 2 2h12c1.1 0 2-.9 2-2v-3h-2zM6 4h7v5h5v2h2V8l-6-6H6c-1.1 0-2 .9-2 2v7h2zm3 9h6v2H9zm8 0h6v2h-6zM1 13h6v2H1z"/><path fill="currentColor" d="M6 17h12v3H6z" opacity=".3"/></symbol><symbol id="hd-icon-ic-twotone-insert-photo" viewBox="0 0 24 24"><path fill="currentColor" d="M5 19h14V5H5zm4-5.86l2.14 2.58l3-3.87L18 17H6z" opacity=".3"/><path fill="currentColor" d="M3 5v14c0 1.1.9 2 2 2h14c1.1 0 2-.9 2-2V5c0-1.1-.9-2-2-2H5c-1.1 0-2 .9-2 2m16 14H5V5h14zm-4.86-7.14l-3 3.86L9 13.14L6 17h12z"/></symbol><symbol id="hd-icon-ic-twotone-insights" viewBox="0 0 24 24"><path fill="currentColor" d="M21 8c-1.45 0-2.26 1.44-1.93 2.51l-3.55 3.56c-.3-.09-.74-.09-1.04 0l-2.55-2.55C12.27 10.45 11.46 9 10 9c-1.45 0-2.27 1.44-1.93 2.52l-4.56 4.55C2.44 15.74 1 16.55 1 18c0 1.1.9 2 2 2c1.45 0 2.26-1.44 1.93-2.51l4.55-4.56c.3.09.74.09 1.04 0l2.55 2.55C12.73 16.55 13.54 18 15 18c1.45 0 2.27-1.44 1.93-2.52l3.56-3.55c1.07.33 2.51-.48 2.51-1.93c0-1.1-.9-2-2-2"/><path fill="currentColor" d="m15 9l.94-2.07L18 6l-2.06-.93L15 3l-.92 2.07L12 6l2.08.93zM3.5 11L4 9l2-.5L4 8l-.5-2L3 8l-2 .5L3 9z"/></symbol><symbol id="hd-icon-ic-twotone-install-desktop" viewBox="0 0 24 24"><path fill="currentColor" d="M14.83 9L16 10.17zM4 17h16v-3.17l-3 3L9.17 9L13 5.17V5H4z" opacity=".3"/><path fill="currentColor" d="M20 17H4V5h9V3H4c-1.11 0-2 .89-2 2v12a2 2 0 0 0 2 2h4v2h8v-2h4c1.1 0 2-.9 2-2v-5.17l-2 2z"/><path fill="currentColor" d="M18 10.17V3h-2v7.17l-2.59-2.58L12 9l5 5l5-5l-1.41-1.41z"/></symbol><symbol id="hd-icon-ic-twotone-install-mobile" viewBox="0 0 24 24"><path fill="currentColor" d="M7 20h10v1H7zM7 3h7v1H7z" opacity=".3"/><path fill="currentColor" d="M17 18H7V6h7V4H7V3h7V1.01L7 1c-1.1 0-2 .9-2 2v18c0 1.1.9 2 2 2h10c1.1 0 2-.9 2-2v-5h-2zm0 3H7v-1h10z"/><path fill="currentColor" d="M19 3h-2v7.17l-2.59-2.58L14 8l-1 1l1 1l4 4l3-3l2-2l-1.41-1.41l-.59.59l-2 1.99z"/></symbol><symbol id="hd-icon-ic-twotone-integration-instructions" viewBox="0 0 24 24"><path fill="currentColor" d="M11 14.17L8.83 12L11 9.83L9.59 8.41L6 12l3.59 3.59zm3.41 1.42L18 12l-3.59-3.59L13 9.83L15.17 12L13 14.17z"/><path fill="currentColor" d="M19 3h-4.18C14.4 1.84 13.3 1 12 1s-2.4.84-2.82 2H5c-.14 0-.27.01-.4.04a2.01 2.01 0 0 0-1.44 1.19c-.1.23-.16.49-.16.77v14c0 .27.06.54.16.78s.25.45.43.64c.27.27.62.47 1.01.55c.13.02.26.03.4.03h14c1.1 0 2-.9 2-2V5c0-1.1-.9-2-2-2m-7-.25c.41 0 .75.34.75.75s-.34.75-.75.75s-.75-.34-.75-.75s.34-.75.75-.75M19 19H5V5h14z"/><path fill="currentColor" d="M5 5h14v14H5z" opacity=".3"/></symbol><symbol id="hd-icon-ic-twotone-interests" viewBox="0 0 24 24"><path fill="currentColor" d="M7.02 19c-1.1 0-2-.9-2-2s.9-2 2-2s2 .9 2 2s-.9 2-2 2M19 19h-4v-4h4zM7 6.12L8.6 9H5.4zm10 2.23c-1.45-1.22-3-2.4-3-3.1c0-.43.35-.75.75-.75c.31 0 .52.17.73.37L17 6.3l1.52-1.43c.21-.2.42-.37.73-.37c.4 0 .75.32.75.75c0 .7-1.55 1.88-3 3.1" opacity=".3"/><path fill="currentColor" d="M7.02 13c-2.21 0-4 1.79-4 4s1.79 4 4 4s4-1.79 4-4s-1.79-4-4-4m0 6c-1.1 0-2-.9-2-2s.9-2 2-2s2 .9 2 2s-.9 2-2 2M13 13v8h8v-8zm6 6h-4v-4h4zM7 2l-5 9h10zm0 4.12L8.6 9H5.4zM19.25 2.5c-1.06 0-1.81.56-2.25 1.17c-.44-.61-1.19-1.17-2.25-1.17C13.19 2.5 12 3.78 12 5.25c0 2 2.42 3.42 5 5.75c2.58-2.33 5-3.75 5-5.75c0-1.47-1.19-2.75-2.75-2.75M17 8.35c-1.45-1.22-3-2.4-3-3.1c0-.43.35-.75.75-.75c.31 0 .52.17.73.37L17 6.3l1.52-1.43c.21-.2.42-.37.73-.37c.4 0 .75.32.75.75c0 .7-1.55 1.88-3 3.1"/></symbol><symbol id="hd-icon-ic-twotone-interpreter-mode" viewBox="0 0 24 24"><path fill="currentColor" d="M15.52 15.01C15.35 15 15.18 15 15 15c-2.37 0-4.29.73-5.48 1.34c-.32.16-.52.5-.52.88V18h7.17c-.43-.74-.77-1.76-.65-2.99M13 8c0 1.1.9 2 2 2s2-.9 2-2s-.9-2-2-2s-2 .9-2 2" opacity=".3"/><path fill="currentColor" d="M20.5 16.5c-.83 0-1.5-.67-1.5-1.5v-2.5c0-.83.67-1.5 1.5-1.5s1.5.67 1.5 1.5V15c0 .83-.67 1.5-1.5 1.5M20 20h1v-1.54c1.69-.24 3-1.7 3-3.46h-1a2.5 2.5 0 0 1-5 0h-1c0 1.76 1.31 3.22 3 3.46zM9 12c-2.21 0-4-1.79-4-4a4 4 0 0 1 5.34-3.77A5.94 5.94 0 0 0 9 8c0 1.43.5 2.74 1.34 3.77c-.42.15-.87.23-1.34.23m-1.89 1.13A4.97 4.97 0 0 0 5 17.22V20H1v-2.78c0-1.12.61-2.15 1.61-2.66c1.24-.64 2.76-1.19 4.5-1.43M11 8c0-2.21 1.79-4 4-4s4 1.79 4 4s-1.79 4-4 4s-4-1.79-4-4m2 0c0 1.1.9 2 2 2s2-.9 2-2s-.9-2-2-2s-2 .9-2 2m2 7c-2.37 0-4.29.73-5.48 1.34c-.32.16-.52.5-.52.88V18h7.17c.5.86 1.25 1.56 2.15 2H7v-2.78c0-1.12.61-2.15 1.61-2.66C10.29 13.7 12.47 13 15 13c.39 0 .77.02 1.14.05c-.33.59-.55 1.26-.62 1.96c-.17-.01-.34-.01-.52-.01"/></symbol><symbol id="hd-icon-ic-twotone-inventory" viewBox="0 0 24 24"><path fill="currentColor" d="m21 11.5l1.5 1.5l-6.99 7L11 15.5l1.5-1.5l3.01 3z"/><path fill="currentColor" d="M17 5v3H7V5H5v14h6.68l-3.51-3.5l4.33-4.33l3.01 3l3.49-3.5V5z" opacity=".3"/><path fill="currentColor" d="M5 19V5h2v3h10V5h2v5.67l2-2V5c0-1.1-.9-2-2-2h-4.18C14.4 1.84 13.3 1 12 1s-2.4.84-2.82 2H5c-1.1 0-2 .9-2 2v14c0 1.1.9 2 2 2h8.68l-2-2zm7-16c.55 0 1 .45 1 1s-.45 1-1 1s-1-.45-1-1s.45-1 1-1"/></symbol><symbol id="hd-icon-ic-twotone-inventory-2" viewBox="0 0 24 24"><path fill="currentColor" d="M4 7h16V3.98L4 4zm1 13h14V9H5zm4-8h6v2H9z" opacity=".3"/><path fill="currentColor" d="M20 2H4c-1 0-2 .9-2 2v3.01c0 .72.43 1.34 1 1.69V20c0 1.1 1.1 2 2 2h14c.9 0 2-.9 2-2V8.7c.57-.35 1-.97 1-1.69V4c0-1.1-1-2-2-2m-1 18H5V9h14zm1-13H4V4l16-.02z"/><path fill="currentColor" d="M9 12h6v2H9z"/></symbol><symbol id="hd-icon-ic-twotone-invert-colors" viewBox="0 0 24 24"><path fill="currentColor" d="M7.75 8.99A5.77 5.77 0 0 0 6 13.13C6 16.37 8.69 19 12 19V4.81z" opacity=".3"/><path fill="currentColor" d="M17.65 7.56L12 2L6.35 7.56C4.9 8.99 4 10.96 4 13.13C4 17.48 7.58 21 12 21s8-3.52 8-7.87c0-2.17-.9-4.14-2.35-5.57M6 13.13c0-1.56.62-3.03 1.75-4.14L12 4.81V19c-3.31 0-6-2.63-6-5.87"/></symbol><symbol id="hd-icon-ic-twotone-invert-colors-off" viewBox="0 0 24 24"><path fill="currentColor" d="M12 14.83V19c-3.31 0-6-2.63-6-5.87c0-1.19.36-2.32 1.02-3.28zm0-10.02v4.37l-2.2-2.2z" opacity=".3"/><path fill="currentColor" d="M21.19 21.19L2.81 2.81L1.39 4.22l4.2 4.2a7.73 7.73 0 0 0-1.6 4.7C4 17.48 7.58 21 12 21c1.75 0 3.36-.56 4.67-1.5l3.1 3.1zM12 19c-3.31 0-6-2.63-6-5.87c0-1.19.36-2.32 1.02-3.28L12 14.83zM8.38 5.56L12 2l5.65 5.56C19.1 8.99 20 10.96 20 13.13c0 1.18-.27 2.29-.74 3.3L12 9.17V4.81L9.8 6.97z"/></symbol><symbol id="hd-icon-ic-twotone-ios-share" viewBox="0 0 24 24"><path fill="currentColor" d="M18 8h-3v2h3v11H6V10h3V8H6c-1.11 0-2 .89-2 2v11a2 2 0 0 0 2 2h12c1.1 0 2-.9 2-2V10a2 2 0 0 0-2-2"/><path fill="currentColor" d="M11 16h2V5h3l-4-4l-4 4h3z"/></symbol><symbol id="hd-icon-ic-twotone-iron" viewBox="0 0 24 24"><path fill="currentColor" d="M15 16H4v-1c0-1.1.9-2 2-2h9z" opacity=".3"/><path fill="currentColor" d="M21 6c-1.66 0-3 1.34-3 3v4c0 .55-.45 1-1 1v-4c0-1.66-1.34-3-3-3h-4c-1.66 0-3 1.34-3 3h2c0-.55.45-1 1-1h4c.55 0 1 .45 1 1v1H6c-2.21 0-4 1.79-4 4v3h15v-2c1.66 0 3-1.34 3-3V9c0-.55.45-1 1-1h1V6zm-6 10H4v-1c0-1.1.9-2 2-2h9z"/></symbol><symbol id="hd-icon-ic-twotone-iso" viewBox="0 0 24 24"><path fill="currentColor" d="M19 19V5L5 19zm-2-3.5V17h-5v-1.5z" opacity=".3"/><path fill="currentColor" d="M12 15.5h5V17h-5zM19 3H5c-1.1 0-2 .9-2 2v14c0 1.1.9 2 2 2h14c1.1 0 2-.9 2-2V5c0-1.1-.9-2-2-2M5.5 7.5h2v-2H9v2h2V9H9v2H7.5V9h-2zM19 19H5L19 5z"/></symbol><symbol id="hd-icon-ic-twotone-javascript" viewBox="0 0 24 24"><path fill="currentColor" d="M12 14v-1h1.5v.5h2v-1H13c-.55 0-1-.45-1-1V10c0-.55.45-1 1-1h3c.55 0 1 .45 1 1v1h-1.5v-.5h-2v1H16c.55 0 1 .45 1 1V14c0 .55-.45 1-1 1h-3c-.55 0-1-.45-1-1M9 9v4.5H7.5v-1H6v1c0 .83.67 1.5 1.5 1.5H9c.83 0 1.5-.67 1.5-1.5V9z"/></symbol><symbol id="hd-icon-ic-twotone-join-full" viewBox="0 0 24 24"><ellipse cx="12" cy="12" fill="currentColor" rx="3" ry="5.74"/><path fill="currentColor" d="M7.5 12c0-.97.23-4.16 3.03-6.5C9.75 5.19 8.9 5 8 5c-3.86 0-7 3.14-7 7s3.14 7 7 7c.9 0 1.75-.19 2.53-.5c-2.8-2.34-3.03-5.53-3.03-6.5M16 5c-.9 0-1.75.19-2.53.5c2.8 2.34 3.03 5.53 3.03 6.5s-.23 4.16-3.03 6.5c.78.31 1.63.5 2.53.5c3.86 0 7-3.14 7-7s-3.14-7-7-7"/></symbol><symbol id="hd-icon-ic-twotone-join-inner" viewBox="0 0 24 24"><ellipse cx="12" cy="12" fill="currentColor" rx="3" ry="5.74"/><path fill="currentColor" d="M9.04 16.87c-.33.08-.68.13-1.04.13c-2.76 0-5-2.24-5-5s2.24-5 5-5c.36 0 .71.05 1.04.13c.39-.56.88-1.12 1.49-1.63C9.75 5.19 8.9 5 8 5c-3.86 0-7 3.14-7 7s3.14 7 7 7c.9 0 1.75-.19 2.53-.5c-.61-.51-1.1-1.07-1.49-1.63M16 5c-.9 0-1.75.19-2.53.5c.61.51 1.1 1.07 1.49 1.63c.33-.08.68-.13 1.04-.13c2.76 0 5 2.24 5 5s-2.24 5-5 5c-.36 0-.71-.05-1.04-.13c-.39.56-.88 1.12-1.49 1.63c.78.31 1.63.5 2.53.5c3.86 0 7-3.14 7-7s-3.14-7-7-7"/></symbol><symbol id="hd-icon-ic-twotone-join-left" viewBox="0 0 24 24"><ellipse cx="12" cy="12" fill="currentColor" rx="3" ry="5.74"/><path fill="currentColor" d="M7.5 12c0-.97.23-4.16 3.03-6.5C9.75 5.19 8.9 5 8 5c-3.86 0-7 3.14-7 7s3.14 7 7 7c.9 0 1.75-.19 2.53-.5c-2.8-2.34-3.03-5.53-3.03-6.5M16 5c-.9 0-1.75.19-2.53.5c.61.51 1.1 1.07 1.49 1.63c.33-.08.68-.13 1.04-.13c2.76 0 5 2.24 5 5s-2.24 5-5 5c-.36 0-.71-.05-1.04-.13c-.39.56-.88 1.12-1.49 1.63c.78.31 1.63.5 2.53.5c3.86 0 7-3.14 7-7s-3.14-7-7-7"/></symbol><symbol id="hd-icon-ic-twotone-join-right" viewBox="0 0 24 24"><ellipse cx="12" cy="12" fill="currentColor" rx="3" ry="5.74"/><path fill="currentColor" d="M16.5 12c0 .97-.23 4.16-3.03 6.5c.78.31 1.63.5 2.53.5c3.86 0 7-3.14 7-7s-3.14-7-7-7c-.9 0-1.75.19-2.53.5c2.8 2.34 3.03 5.53 3.03 6.5M8 19c.9 0 1.75-.19 2.53-.5c-.61-.51-1.1-1.07-1.49-1.63c-.33.08-.68.13-1.04.13c-2.76 0-5-2.24-5-5s2.24-5 5-5c.36 0 .71.05 1.04.13c.39-.56.88-1.12 1.49-1.63C9.75 5.19 8.9 5 8 5c-3.86 0-7 3.14-7 7s3.14 7 7 7"/></symbol><symbol id="hd-icon-ic-twotone-kayaking" viewBox="0 0 24 24"><path fill="currentColor" d="M21 23c-1.03 0-2.06-.25-3-.75c-1.89 1-4.11 1-6 0c-1.89 1-4.11 1-6 0c-.95.5-1.97.75-3 .75H2v-2h1c1.04 0 2.08-.35 3-1c1.83 1.3 4.17 1.3 6 0c1.83 1.3 4.17 1.3 6 0c.91.65 1.96 1 3 1h1v2zM12 5.5c-1.1 0-2 .9-2 2s.9 2 2 2s2-.9 2-2s-.9-2-2-2m12 12s-1.52.71-3.93 1.37c-.82-.23-1.53-.75-2.07-1.37c-.73.84-1.8 1.5-3 1.5s-2.27-.66-3-1.5c-.73.84-1.8 1.5-3 1.5s-2.27-.66-3-1.5c-.54.61-1.25 1.13-2.07 1.37C1.52 18.21 0 17.5 0 17.5s2.93-1.36 7.13-2.08l1.35-4.17c.31-.95 1.32-1.47 2.27-1.16c.09.03.19.07.27.11l2.47 1.3l2.84-1.5l1.65-3.71l-.51-1.32L18.8 2L22 3.43L20.67 6.4l-1.31.5l-3.72 8.34c4.85.63 8.36 2.26 8.36 2.26m-8.98-4.54l-1.52.8l-1.75-.92l-.71 2.17c.32 0 .64-.01.96-.01c.71 0 1.4.03 2.07.08z"/></symbol><symbol id="hd-icon-ic-twotone-kebab-dining" viewBox="0 0 24 24"><path fill="currentColor" d="M15.5 5c-.28 0-.5-.22-.5-.5s.22-.5.5-.5h3c.28 0 .5.22.5.5s-.22.5-.5.5zm3 11c.28 0 .5.22.5.5s-.22.5-.5.5h-3c-.28 0-.5-.22-.5-.5s.22-.5.5-.5zm.5-6v1h-4v-1zM5.5 5c-.28 0-.5-.22-.5-.5s.22-.5.5-.5h3c.28 0 .5.22.5.5s-.22.5-.5.5zm3 11c.28 0 .5.22.5.5s-.22.5-.5.5h-3c-.28 0-.5-.22-.5-.5s.22-.5.5-.5zm.5-6v1H5v-1z" opacity=".3"/><path fill="currentColor" d="M17.75 7h.75a2.5 2.5 0 0 0 0-5h-.75V1h-1.5v1h-.75a2.5 2.5 0 0 0 0 5h.75v1H13v5h3.25v1h-.75a2.5 2.5 0 0 0 0 5h.75v4h1.5v-4h.75a2.5 2.5 0 0 0 0-5h-.75v-1H21V8h-3.25zM15.5 5c-.28 0-.5-.22-.5-.5s.22-.5.5-.5h3c.28 0 .5.22.5.5s-.22.5-.5.5zm3 11c.28 0 .5.22.5.5s-.22.5-.5.5h-3c-.28 0-.5-.22-.5-.5s.22-.5.5-.5zm.5-6v1h-4v-1zM7.75 7h.75a2.5 2.5 0 0 0 0-5h-.75V1h-1.5v1H5.5a2.5 2.5 0 0 0 0 5h.75v1H3v5h3.25v1H5.5a2.5 2.5 0 0 0 0 5h.75v4h1.5v-4h.75a2.5 2.5 0 0 0 0-5h-.75v-1H11V8H7.75zM5.5 5c-.28 0-.5-.22-.5-.5s.22-.5.5-.5h3c.28 0 .5.22.5.5s-.22.5-.5.5zm3 11c.28 0 .5.22.5.5s-.22.5-.5.5h-3c-.28 0-.5-.22-.5-.5s.22-.5.5-.5zm.5-6v1H5v-1z"/></symbol><symbol id="hd-icon-ic-twotone-key" viewBox="0 0 24 24"><path fill="currentColor" d="M21 10h-8.35A5.99 5.99 0 0 0 7 6c-3.31 0-6 2.69-6 6s2.69 6 6 6a5.99 5.99 0 0 0 5.65-4H13l2 2l2-2l2 2l4-4.04zM7 15c-1.65 0-3-1.35-3-3s1.35-3 3-3s3 1.35 3 3s-1.35 3-3 3"/></symbol><symbol id="hd-icon-ic-twotone-key-off" viewBox="0 0 24 24"><path fill="currentColor" d="m10.7 13.53l-1.71-1.71c.01.06.01.12.01.18c0 1.1-.9 2-2 2s-2-.9-2-2s.9-2 2-2c.06 0 .12 0 .18.01L5.47 8.3C4.02 8.9 3 10.33 3 12c0 2.21 1.79 4 4 4c1.67 0 3.1-1.02 3.7-2.47m5.56-.1l1.24-.93l1.81 1.36L21.17 12l-1-1h-6.34z" opacity=".3"/><path fill="currentColor" d="m10.7 13.53l-1.71-1.71c.01.06.01.12.01.18c0 1.1-.9 2-2 2s-2-.9-2-2s.9-2 2-2c.06 0 .12 0 .18.01L5.47 8.3C4.02 8.9 3 10.33 3 12c0 2.21 1.79 4 4 4c1.67 0 3.1-1.02 3.7-2.47m1.49 1.49A6.01 6.01 0 0 1 7 18c-3.31 0-6-2.69-6-6c0-2.21 1.2-4.15 2.98-5.19L1.39 4.22L2.8 2.81l18.38 18.38l-1.41 1.41zm4.07-1.59l1.24-.93l1.81 1.36L21.17 12l-1-1h-6.34l-2-2H21l3 3l-4.5 4.5l-.69-.51z"/></symbol><symbol id="hd-icon-ic-twotone-keyboard" viewBox="0 0 24 24"><path fill="currentColor" d="M4 17h16V7H4zm13-9h2v2h-2zm0 3h2v2h-2zm-3-3h2v2h-2zm0 3h2v2h-2zm-3-3h2v2h-2zm0 3h2v2h-2zM8 8h2v2H8zm0 3h2v2H8zm0 3h8v2H8zM5 8h2v2H5zm0 3h2v2H5z" opacity=".3"/><path fill="currentColor" d="M20 5H4c-1.1 0-1.99.9-1.99 2L2 17c0 1.1.9 2 2 2h16c1.1 0 2-.9 2-2V7c0-1.1-.9-2-2-2m0 12H4V7h16zm-9-9h2v2h-2zm0 3h2v2h-2zM8 8h2v2H8zm0 3h2v2H8zm-3 0h2v2H5zm0-3h2v2H5zm3 6h8v2H8zm6-3h2v2h-2zm0-3h2v2h-2zm3 3h2v2h-2zm0-3h2v2h-2z"/></symbol><symbol id="hd-icon-ic-twotone-keyboard-alt" viewBox="0 0 24 24"><path fill="currentColor" d="M3 19h18V6H3zM17 8h2v2h-2zm0 4h2v2h-2zm-4-4h2v2h-2zm0 4h2v2h-2zM9 8h2v2H9zm0 4h2v2H9zm-1 4h8v1H8zM5 8h2v2H5zm0 4h2v2H5z" opacity=".3"/><path fill="currentColor" d="M21 4H3c-1.1 0-2 .9-2 2v13c0 1.1.9 2 2 2h18c1.1 0 2-.9 2-2V6c0-1.1-.9-2-2-2m0 15H3V6h18z"/><path fill="currentColor" d="M9 8h2v2H9zM5 8h2v2H5zm3 8h8v1H8zm5-8h2v2h-2zm-4 4h2v2H9zm-4 0h2v2H5zm8 0h2v2h-2zm4-4h2v2h-2zm0 4h2v2h-2z"/></symbol><symbol id="hd-icon-ic-twotone-keyboard-arrow-down" viewBox="0 0 24 24"><path fill="currentColor" d="M7.41 8.59L12 13.17l4.59-4.58L18 10l-6 6l-6-6z"/></symbol><symbol id="hd-icon-ic-twotone-keyboard-arrow-left" viewBox="0 0 24 24"><path fill="currentColor" d="M15.41 16.59L10.83 12l4.58-4.59L14 6l-6 6l6 6z"/></symbol><symbol id="hd-icon-ic-twotone-keyboard-arrow-right" viewBox="0 0 24 24"><path fill="currentColor" d="M8.59 16.59L13.17 12L8.59 7.41L10 6l6 6l-6 6z"/></symbol><symbol id="hd-icon-ic-twotone-keyboard-arrow-up" viewBox="0 0 24 24"><path fill="currentColor" d="M7.41 15.41L12 10.83l4.59 4.58L18 14l-6-6l-6 6z"/></symbol></svg>