<svg xmlns="http://www.w3.org/2000/svg" xmlns:xlink="http://www.w3.org/1999/xlink"><symbol id="hd-icon-ic-twotone-4k" viewBox="0 0 24 24"><path fill="currentColor" d="M19 5H5v14h14zm-7 8.51h-1V15H9.5v-1.5h-3V9H8v3h1.5V9H11v3h1zM18.2 15h-1.7l-2-3v3H13V9h1.5v3l2-3h1.7l-2 3z" opacity=".3"/><path fill="currentColor" d="M5 21h14c1.1 0 2-.9 2-2V5a2 2 0 0 0-2-2H5c-1.1 0-2 .9-2 2v14a2 2 0 0 0 2 2M5 5h14v14H5zm6 4H9.5v3H8V9H6.5v4.5h3V15H11v-1.49h1V12h-1zm5.5 0l-2 3l2 3h1.7l-2-3l2-3zM13 9v6h1.5V9z"/></symbol><symbol id="hd-icon-ic-twotone-4k-plus" viewBox="0 0 24 24"><path fill="currentColor" d="M5 19h14v-6.5h-1.5V14h-1v-1.5H15v-1h1.5V10h1v1.5H19V5H5zm6.5-10H13v2.25L14.75 9h1.75l-2.25 3l2.25 3h-1.75L13 12.75V15h-1.5zm-6 0H7v3h1.5V9H10v3h1v1.5h-1V15H8.5v-1.5h-3z" opacity=".3"/><path fill="currentColor" d="M19 3H5c-1.1 0-2 .9-2 2v14c0 1.1.9 2 2 2h14c1.1 0 2-.9 2-2V5c0-1.1-.9-2-2-2m0 8.5h-1.5V10h-1v1.5H15v1h1.5V14h1v-1.5H19V19H5V5h14z"/><path fill="currentColor" d="M8.5 15H10v-1.5h1V12h-1V9H8.5v3H7V9H5.5v4.5h3zm4.5-2.25L14.75 15h1.75l-2.25-3l2.25-3h-1.75L13 11.25V9h-1.5v6H13z"/></symbol><symbol id="hd-icon-ic-twotone-4mp" viewBox="0 0 24 24"><path fill="currentColor" d="M15 14h1.5v1.5H15z" opacity=".3"/><path fill="currentColor" d="M5 19h14V5H5zm13-5.5V16c0 .55-.45 1-1 1h-2v1.5h-1.5v-6H17c.55 0 1 .45 1 1m-8.5-8H11v3h1.5v-3H14v3h1V10h-1v1.5h-1.5V10h-3zm-3.5 8c0-.55.45-1 1-1h4.5c.55 0 1 .45 1 1v5H11V14h-1v3H8.5v-3h-1v4.5H6z" opacity=".3"/><path fill="currentColor" d="M7.5 14h1v3H10v-3h1v4.5h1.5v-5c0-.55-.45-1-1-1H7c-.55 0-1 .45-1 1v5h1.5zm6 4.5H15V17h2c.55 0 1-.45 1-1v-2.5c0-.55-.45-1-1-1h-3.5zM15 14h1.5v1.5H15z"/><path fill="currentColor" d="M19 3H5c-1.1 0-2 .9-2 2v14c0 1.1.9 2 2 2h14c1.1 0 2-.9 2-2V5c0-1.1-.9-2-2-2m0 16H5V5h14z"/><path fill="currentColor" d="M12.5 11.5H14V10h1V8.5h-1v-3h-1.5v3H11v-3H9.5V10h3z"/></symbol><symbol id="hd-icon-ic-twotone-5g" viewBox="0 0 24 24"><path fill="currentColor" d="M16.5 13H19v2h-5V9h7c0-1.1-.9-2-2-2h-5c-1.1 0-2 .9-2 2v6c0 1.1.9 2 2 2h5c1.1 0 2-.9 2-2v-4h-4.5zM3 13h5v2H3v2h5c1.1 0 2-.9 2-2v-2c0-1.1-.9-2-2-2H5V9h5V7H3z"/></symbol><symbol id="hd-icon-ic-twotone-5k" viewBox="0 0 24 24"><path fill="currentColor" d="M5 19h14V5H5zm8-10h1.5v2.25L16.25 9H18l-2.25 3L18 15h-1.75l-1.75-2.25V15H13zm-6.5 4.5h3v-1h-3V9H11v1.5H8v1h2c.55 0 1 .45 1 1V14c0 .55-.45 1-1 1H6.5z" opacity=".3"/><path fill="currentColor" d="M19 3H5c-1.1 0-2 .9-2 2v14c0 1.1.9 2 2 2h14c1.1 0 2-.9 2-2V5c0-1.1-.9-2-2-2m0 16H5V5h14z"/><path fill="currentColor" d="M11 14v-1.5c0-.55-.45-1-1-1H8v-1h3V9H6.5v3.5h3v1h-3V15H10c.55 0 1-.45 1-1m3.5-1.25L16.25 15H18l-2.25-3L18 9h-1.75l-1.75 2.25V9H13v6h1.5z"/></symbol><symbol id="hd-icon-ic-twotone-5k-plus" viewBox="0 0 24 24"><path fill="currentColor" d="M5 19h14v-6.5h-1.5V14h-1v-1.5H15v-1h1.5V10h1v1.5H19V5H5zm6-10h1.5v2.25L14.25 9H16l-2.25 3L16 15h-1.75l-1.75-2.25V15H11zm-5 4.5h2.5v-1H6V9h4v1.5H7.5v1H9c.55 0 1 .45 1 1V14c0 .55-.45 1-1 1H6z" opacity=".3"/><path fill="currentColor" d="M19 3H5c-1.1 0-2 .9-2 2v14c0 1.1.9 2 2 2h14c1.1 0 2-.9 2-2V5c0-1.1-.9-2-2-2m0 8.5h-1.5V10h-1v1.5H15v1h1.5V14h1v-1.5H19V19H5V5h14z"/><path fill="currentColor" d="M10 14v-1.5c0-.55-.45-1-1-1H7.5v-1H10V9H6v3.5h2.5v1H6V15h3c.55 0 1-.45 1-1m2.5-1.25L14.25 15H16l-2.25-3L16 9h-1.75l-1.75 2.25V9H11v6h1.5z"/></symbol><symbol id="hd-icon-ic-twotone-5mp" viewBox="0 0 24 24"><path fill="currentColor" d="M15 14h1.5v1.5H15z" opacity=".3"/><path fill="currentColor" d="M5 19h14V5H5zm13-5.5V16c0 .55-.45 1-1 1h-2v1.5h-1.5v-6H17c.55 0 1 .45 1 1M10 10h3V9h-3V5.5h4.5V7h-3v1h2c.55 0 1 .45 1 1v1.5c0 .55-.45 1-1 1H10zm-4 3.5c0-.55.45-1 1-1h4.5c.55 0 1 .45 1 1v5H11V14h-1v3H8.5v-3h-1v4.5H6z" opacity=".3"/><path fill="currentColor" d="M7.5 14h1v3H10v-3h1v4.5h1.5v-5c0-.55-.45-1-1-1H7c-.55 0-1 .45-1 1v5h1.5zm6 4.5H15V17h2c.55 0 1-.45 1-1v-2.5c0-.55-.45-1-1-1h-3.5zM15 14h1.5v1.5H15z"/><path fill="currentColor" d="M19 3H5c-1.1 0-2 .9-2 2v14c0 1.1.9 2 2 2h14c1.1 0 2-.9 2-2V5c0-1.1-.9-2-2-2m0 16H5V5h14z"/><path fill="currentColor" d="M14.5 10.5V9c0-.55-.45-1-1-1h-2V7h3V5.5H10V9h3v1h-3v1.5h3.5c.55 0 1-.45 1-1"/></symbol><symbol id="hd-icon-ic-twotone-6-ft-apart" viewBox="0 0 24 24"><path fill="currentColor" d="M6 6c1.1 0 2-.9 2-2s-.9-2-2-2s-2 .9-2 2s.9 2 2 2m4 3.43c0-.81-.48-1.53-1.22-1.85a6.95 6.95 0 0 0-5.56 0A2.01 2.01 0 0 0 2 9.43V10h8zM18 6c1.1 0 2-.9 2-2s-.9-2-2-2s-2 .9-2 2s.9 2 2 2m4 3.43c0-.81-.48-1.53-1.22-1.85a6.95 6.95 0 0 0-5.56 0A2.01 2.01 0 0 0 14 9.43V10h8zM19 17v-2.01L5 15v2l-3-3l3-3v2.01L19 13v-2l3 3zm-9 2v-1H7.5c-.28 0-.5.22-.5.5v3c0 .28.22.5.5.5h2c.28 0 .5-.22.5-.5V20c0-.28-.22-.5-.5-.5H8V19zm-1 1.5v.5H8v-.5zm8.5-1.5h-1v3h-1v-3h-1v-1h3zm-5 0v.5h1v1h-1V22h-1v-4H14v1z"/></symbol><symbol id="hd-icon-ic-twotone-60fps" viewBox="0 0 24 24"><path fill="currentColor" d="M19 8v8h-4V8zm0-3h-4c-1.66 0-3 1.34-3 3v8c0 1.66 1.34 3 3 3h4c1.66 0 3-1.34 3-3V8c0-1.66-1.34-3-3-3m-9 3V5H5C3.34 5 2 6.34 2 8v8c0 1.66 1.34 3 3 3h3c1.66 0 3-1.34 3-3v-3c0-1.66-1.34-3-3-3H5V8zm-2 5v3H5v-3z"/></symbol><symbol id="hd-icon-ic-twotone-60fps-select" viewBox="0 0 24 24"><path fill="currentColor" d="M18 6v6h-3V6zm0-2h-3c-1.1 0-2 .9-2 2v6c0 1.1.9 2 2 2h3c1.1 0 2-.9 2-2V6c0-1.1-.9-2-2-2m-7 2V4H6c-1.1 0-2 .9-2 2v6c0 1.1.9 2 2 2h3c1.1 0 2-.9 2-2v-2c0-1.1-.9-2-2-2H6V6zm-2 4v2H6v-2zM5 22H3v-5h2zm4 0H7v-5h2zm4 0h-2v-5h2zm8 0h-6v-5h6z"/></symbol><symbol id="hd-icon-ic-twotone-6k" viewBox="0 0 24 24"><path fill="currentColor" d="M8 12.5h1.5V14H8z" opacity=".3"/><path fill="currentColor" d="M5 19h14V5H5zm8-10h1.5v2.25L16.25 9H18l-2.25 3L18 15h-1.75l-1.75-2.25V15H13zm-6.5 1c0-.55.45-1 1-1H11v1.5H8v1h2c.55 0 1 .45 1 1V14c0 .55-.45 1-1 1H7.5c-.55 0-1-.45-1-1z" opacity=".3"/><path fill="currentColor" d="M19 3H5c-1.1 0-2 .9-2 2v14c0 1.1.9 2 2 2h14c1.1 0 2-.9 2-2V5c0-1.1-.9-2-2-2m0 16H5V5h14z"/><path fill="currentColor" d="M14.5 12.75L16.25 15H18l-2.25-3L18 9h-1.75l-1.75 2.25V9H13v6h1.5zM7.5 15H10c.55 0 1-.45 1-1v-1.5c0-.55-.45-1-1-1H8v-1h3V9H7.5c-.55 0-1 .45-1 1v4c0 .55.45 1 1 1m.5-2.5h1.5V14H8z"/></symbol><symbol id="hd-icon-ic-twotone-6k-plus" viewBox="0 0 24 24"><path fill="currentColor" d="M7.5 12.5h1V14h-1z" opacity=".3"/><path fill="currentColor" d="M5 19h14v-6.5h-1.5V14h-1v-1.5H15v-1h1.5V10h1v1.5H19V5H5zm6-10h1.5v2.25L14.25 9H16l-2.25 3L16 15h-1.75l-1.75-2.25V15H11zm-5 1c0-.55.45-1 1-1h3v1.5H7.5v1H9c.55 0 1 .45 1 1V14c0 .55-.45 1-1 1H7c-.55 0-1-.45-1-1z" opacity=".3"/><path fill="currentColor" d="M19 3H5c-1.1 0-2 .9-2 2v14c0 1.1.9 2 2 2h14c1.1 0 2-.9 2-2V5c0-1.1-.9-2-2-2m0 8.5h-1.5V10h-1v1.5H15v1h1.5V14h1v-1.5H19V19H5V5h14z"/><path fill="currentColor" d="M12.5 12.75L14.25 15H16l-2.25-3L16 9h-1.75l-1.75 2.25V9H11v6h1.5zM7 15h2c.55 0 1-.45 1-1v-1.5c0-.55-.45-1-1-1H7.5v-1H10V9H7c-.55 0-1 .45-1 1v4c0 .55.45 1 1 1m.5-2.5h1V14h-1z"/></symbol><symbol id="hd-icon-ic-twotone-6mp" viewBox="0 0 24 24"><path fill="currentColor" d="M15 14h1.5v1.5H15zm-3.5-5H13v1.5h-1.5z" opacity=".3"/><path fill="currentColor" d="M5 19h14V5H5zm13-5.5V16c0 .55-.45 1-1 1h-2v1.5h-1.5v-6H17c.55 0 1 .45 1 1m-8-7c0-.55.45-1 1-1h3.5V7h-3v1h2c.55 0 1 .45 1 1v1.5c0 .55-.45 1-1 1H11c-.55 0-1-.45-1-1zm-4 7c0-.55.45-1 1-1h4.5c.55 0 1 .45 1 1v5H11V14h-1v3H8.5v-3h-1v4.5H6z" opacity=".3"/><path fill="currentColor" d="M7.5 14h1v3H10v-3h1v4.5h1.5v-5c0-.55-.45-1-1-1H7c-.55 0-1 .45-1 1v5h1.5zm6 4.5H15V17h2c.55 0 1-.45 1-1v-2.5c0-.55-.45-1-1-1h-3.5zM15 14h1.5v1.5H15z"/><path fill="currentColor" d="M19 3H5c-1.1 0-2 .9-2 2v14c0 1.1.9 2 2 2h14c1.1 0 2-.9 2-2V5c0-1.1-.9-2-2-2m0 16H5V5h14z"/><path fill="currentColor" d="M11 11.5h2.5c.55 0 1-.45 1-1V9c0-.55-.45-1-1-1h-2V7h3V5.5H11c-.55 0-1 .45-1 1v4c0 .55.45 1 1 1m.5-2.5H13v1.5h-1.5z"/></symbol><symbol id="hd-icon-ic-twotone-7k" viewBox="0 0 24 24"><path fill="currentColor" d="M5 19h14V5H5zm8-10h1.5v2.25L16.25 9H18l-2.25 3L18 15h-1.75l-1.75-2.25V15H13zM6.5 9H10c.67 0 1.15.65.96 1.29L9.5 15H7.75l1.38-4.5H6.5z" opacity=".3"/><path fill="currentColor" d="M19 3H5c-1.1 0-2 .9-2 2v14c0 1.1.9 2 2 2h14c1.1 0 2-.9 2-2V5c0-1.1-.9-2-2-2m0 16H5V5h14z"/><path fill="currentColor" d="M7.75 15H9.5l1.46-4.71C11.15 9.65 10.67 9 10 9H6.5v1.5h2.63zm6.75-2.25L16.25 15H18l-2.25-3L18 9h-1.75l-1.75 2.25V9H13v6h1.5z"/></symbol><symbol id="hd-icon-ic-twotone-7k-plus" viewBox="0 0 24 24"><path fill="currentColor" d="M5 19h14v-6.5h-1.5V14h-1v-1.5H15v-1h1.5V10h1v1.5H19V5H5zm6-10h1.5v2.25L14.25 9H16l-2.25 3L16 15h-1.75l-1.75-2.25V15H11zM5.5 9H9c.67 0 1.15.65.96 1.29L8.5 15H6.75l1.38-4.5H5.5z" opacity=".3"/><path fill="currentColor" d="M19 3H5c-1.1 0-2 .9-2 2v14c0 1.1.9 2 2 2h14c1.1 0 2-.9 2-2V5c0-1.1-.9-2-2-2m0 8.5h-1.5V10h-1v1.5H15v1h1.5V14h1v-1.5H19V19H5V5h14z"/><path fill="currentColor" d="M6.75 15H8.5l1.46-4.71C10.15 9.65 9.67 9 9 9H5.5v1.5h2.63zm5.75-2.25L14.25 15H16l-2.25-3L16 9h-1.75l-1.75 2.25V9H11v6h1.5z"/></symbol><symbol id="hd-icon-ic-twotone-7mp" viewBox="0 0 24 24"><path fill="currentColor" d="M15 14h1.5v1.5H15z" opacity=".3"/><path fill="currentColor" d="M5 19h14V5H5zm13-5.5V16c0 .55-.45 1-1 1h-2v1.5h-1.5v-6H17c.55 0 1 .45 1 1m-8-8h3.5c.67 0 1.15.65.96 1.29L13 11.5h-1.75L12.62 7H10zm-4 8c0-.55.45-1 1-1h4.5c.55 0 1 .45 1 1v5H11V14h-1v3H8.5v-3h-1v4.5H6z" opacity=".3"/><path fill="currentColor" d="M7.5 14h1v3H10v-3h1v4.5h1.5v-5c0-.55-.45-1-1-1H7c-.55 0-1 .45-1 1v5h1.5zm6 4.5H15V17h2c.55 0 1-.45 1-1v-2.5c0-.55-.45-1-1-1h-3.5zM15 14h1.5v1.5H15z"/><path fill="currentColor" d="M19 3H5c-1.1 0-2 .9-2 2v14c0 1.1.9 2 2 2h14c1.1 0 2-.9 2-2V5c0-1.1-.9-2-2-2m0 16H5V5h14z"/><path fill="currentColor" d="M11.25 11.5H13l1.46-4.71c.19-.64-.29-1.29-.96-1.29H10V7h2.62z"/></symbol><symbol id="hd-icon-ic-twotone-8k" viewBox="0 0 24 24"><path fill="currentColor" d="M8 10h1.5v1.5H8zm0 2.5h1.5V14H8z" opacity=".3"/><path fill="currentColor" d="M5 19h14V5H5zm8-10h1.5v2.25L16.25 9H18l-2.25 3L18 15h-1.75l-1.75-2.25V15H13zm-6.5 1c0-.55.45-1 1-1H10c.55 0 1 .45 1 1v4c0 .55-.45 1-1 1H7.5c-.55 0-1-.45-1-1z" opacity=".3"/><path fill="currentColor" d="M7.5 15H10c.55 0 1-.45 1-1v-4c0-.55-.45-1-1-1H7.5c-.55 0-1 .45-1 1v4c0 .55.45 1 1 1m.5-5h1.5v1.5H8zm0 2.5h1.5V14H8z"/><path fill="currentColor" d="M19 3H5c-1.1 0-2 .9-2 2v14c0 1.1.9 2 2 2h14c1.1 0 2-.9 2-2V5c0-1.1-.9-2-2-2m0 16H5V5h14z"/><path fill="currentColor" d="M14.5 12.75L16.25 15H18l-2.25-3L18 9h-1.75l-1.75 2.25V9H13v6h1.5z"/></symbol><symbol id="hd-icon-ic-twotone-8k-plus" viewBox="0 0 24 24"><path fill="currentColor" d="M7.5 12.5h1V14h-1zm0-2.5h1v1.5h-1z" opacity=".3"/><path fill="currentColor" d="M5 19h14v-6.5h-1.5V14h-1v-1.5H15v-1h1.5V10h1v1.5H19V5H5zm6-10h1.5v2.25L14.25 9H16l-2.25 3L16 15h-1.75l-1.75-2.25V15H11zm-5 1c0-.55.45-1 1-1h2c.55 0 1 .45 1 1v4c0 .55-.45 1-1 1H7c-.55 0-1-.45-1-1z" opacity=".3"/><path fill="currentColor" d="M7 15h2c.55 0 1-.45 1-1v-4c0-.55-.45-1-1-1H7c-.55 0-1 .45-1 1v4c0 .55.45 1 1 1m.5-5h1v1.5h-1zm0 2.5h1V14h-1z"/><path fill="currentColor" d="M19 3H5c-1.1 0-2 .9-2 2v14c0 1.1.9 2 2 2h14c1.1 0 2-.9 2-2V5c0-1.1-.9-2-2-2m0 8.5h-1.5V10h-1v1.5H15v1h1.5V14h1v-1.5H19V19H5V5h14z"/><path fill="currentColor" d="M12.5 12.75L14.25 15H16l-2.25-3L16 9h-1.75l-1.75 2.25V9H11v6h1.5z"/></symbol><symbol id="hd-icon-ic-twotone-8mp" viewBox="0 0 24 24"><path fill="currentColor" d="M15 14h1.5v1.5H15zm-3.5-7.5H13V8h-1.5zm0 2.5H13v1.5h-1.5z" opacity=".3"/><path fill="currentColor" d="M5 19h14V5H5zm13-5.5V16c0 .55-.45 1-1 1h-2v1.5h-1.5v-6H17c.55 0 1 .45 1 1m-8-7c0-.55.45-1 1-1h2.5c.55 0 1 .45 1 1v4c0 .55-.45 1-1 1H11c-.55 0-1-.45-1-1zm-4 7c0-.55.45-1 1-1h4.5c.55 0 1 .45 1 1v5H11V14h-1v3H8.5v-3h-1v4.5H6z" opacity=".3"/><path fill="currentColor" d="M7.5 14h1v3H10v-3h1v4.5h1.5v-5c0-.55-.45-1-1-1H7c-.55 0-1 .45-1 1v5h1.5zm6 4.5H15V17h2c.55 0 1-.45 1-1v-2.5c0-.55-.45-1-1-1h-3.5zM15 14h1.5v1.5H15z"/><path fill="currentColor" d="M19 3H5c-1.1 0-2 .9-2 2v14c0 1.1.9 2 2 2h14c1.1 0 2-.9 2-2V5c0-1.1-.9-2-2-2m0 16H5V5h14z"/><path fill="currentColor" d="M11 11.5h2.5c.55 0 1-.45 1-1v-4c0-.55-.45-1-1-1H11c-.55 0-1 .45-1 1v4c0 .55.45 1 1 1m.5-5H13V8h-1.5zm0 2.5H13v1.5h-1.5z"/></symbol><symbol id="hd-icon-ic-twotone-9k" viewBox="0 0 24 24"><path fill="currentColor" d="M5 19h14V5H5zm8-10h1.5v2.25L16.25 9H18l-2.25 3L18 15h-1.75l-1.75-2.25V15H13zm-6.5 4.5h3v-1h-2c-.55 0-1-.45-1-1V10c0-.55.45-1 1-1H10c.55 0 1 .45 1 1v4c0 .55-.45 1-1 1H6.5z" opacity=".3"/><path fill="currentColor" d="M8 10h1.5v1.5H8z" opacity=".3"/><path fill="currentColor" d="M11 14v-4c0-.55-.45-1-1-1H7.5c-.55 0-1 .45-1 1v1.5c0 .55.45 1 1 1h2v1h-3V15H10c.55 0 1-.45 1-1m-1.5-2.5H8V10h1.5z"/><path fill="currentColor" d="M19 3H5c-1.1 0-2 .9-2 2v14c0 1.1.9 2 2 2h14c1.1 0 2-.9 2-2V5c0-1.1-.9-2-2-2m0 16H5V5h14z"/><path fill="currentColor" d="M14.5 12.75L16.25 15H18l-2.25-3L18 9h-1.75l-1.75 2.25V9H13v6h1.5z"/></symbol><symbol id="hd-icon-ic-twotone-9k-plus" viewBox="0 0 24 24"><path fill="currentColor" d="M7.5 10h1v1.5h-1z" opacity=".3"/><path fill="currentColor" d="M5 19h14v-6.5h-1.5V14h-1v-1.5H15v-1h1.5V10h1v1.5H19V5H5zm6-10h1.5v2.25L14.25 9H16l-2.25 3L16 15h-1.75l-1.75-2.25V15H11zm-5 4.5h2.5v-1H7c-.55 0-1-.45-1-1V10c0-.55.45-1 1-1h2c.55 0 1 .45 1 1v4c0 .55-.45 1-1 1H6z" opacity=".3"/><path fill="currentColor" d="M10 14v-4c0-.55-.45-1-1-1H7c-.55 0-1 .45-1 1v1.5c0 .55.45 1 1 1h1.5v1H6V15h3c.55 0 1-.45 1-1m-1.5-2.5h-1V10h1z"/><path fill="currentColor" d="M19 3H5c-1.1 0-2 .9-2 2v14c0 1.1.9 2 2 2h14c1.1 0 2-.9 2-2V5c0-1.1-.9-2-2-2m0 8.5h-1.5V10h-1v1.5H15v1h1.5V14h1v-1.5H19V19H5V5h14z"/><path fill="currentColor" d="M12.5 12.75L14.25 15H16l-2.25-3L16 9h-1.75l-1.75 2.25V9H11v6h1.5z"/></symbol><symbol id="hd-icon-ic-twotone-9mp" viewBox="0 0 24 24"><path fill="currentColor" d="M15 14h1.5v1.5H15zm-3.5-7.5H13V8h-1.5z" opacity=".3"/><path fill="currentColor" d="M5 19h14V5H5zm13-5.5V16c0 .55-.45 1-1 1h-2v1.5h-1.5v-6H17c.55 0 1 .45 1 1M10 10h3V9h-2c-.55 0-1-.45-1-1V6.5c0-.55.45-1 1-1h2.5c.55 0 1 .45 1 1v4c0 .55-.45 1-1 1H10zm-4 3.5c0-.55.45-1 1-1h4.5c.55 0 1 .45 1 1v5H11V14h-1v3H8.5v-3h-1v4.5H6z" opacity=".3"/><path fill="currentColor" d="M7.5 14h1v3H10v-3h1v4.5h1.5v-5c0-.55-.45-1-1-1H7c-.55 0-1 .45-1 1v5h1.5zm6 4.5H15V17h2c.55 0 1-.45 1-1v-2.5c0-.55-.45-1-1-1h-3.5zM15 14h1.5v1.5H15z"/><path fill="currentColor" d="M19 3H5c-1.1 0-2 .9-2 2v14c0 1.1.9 2 2 2h14c1.1 0 2-.9 2-2V5c0-1.1-.9-2-2-2m0 16H5V5h14z"/><path fill="currentColor" d="M14.5 10.5v-4c0-.55-.45-1-1-1H11c-.55 0-1 .45-1 1V8c0 .55.45 1 1 1h2v1h-3v1.5h3.5c.55 0 1-.45 1-1M13 8h-1.5V6.5H13z"/></symbol><symbol id="hd-icon-ic-twotone-abc" viewBox="0 0 24 24"><path fill="currentColor" d="M21 11h-1.5v-.5h-2v3h2V13H21v1c0 .55-.45 1-1 1h-3c-.55 0-1-.45-1-1v-4c0-.55.45-1 1-1h3c.55 0 1 .45 1 1zM8 10v5H6.5v-1.5h-2V15H3v-5c0-.55.45-1 1-1h3c.55 0 1 .45 1 1m-1.5.5h-2V12h2zm7 1.5c.55 0 1 .45 1 1v1c0 .55-.45 1-1 1h-4V9h4c.55 0 1 .45 1 1v1c0 .55-.45 1-1 1M11 10.5v.75h2v-.75zm2 2.25h-2v.75h2z"/></symbol><symbol id="hd-icon-ic-twotone-ac-unit" viewBox="0 0 24 24"><path fill="currentColor" d="M22 11h-4.17l3.24-3.24l-1.41-1.42L15 11h-2V9l4.66-4.66l-1.42-1.41L13 6.17V2h-2v4.17L7.76 2.93L6.34 4.34L11 9v2H9L4.34 6.34L2.93 7.76L6.17 11H2v2h4.17l-3.24 3.24l1.41 1.42L9 13h2v2l-4.66 4.66l1.42 1.41L11 17.83V22h2v-4.17l3.24 3.24l1.42-1.41L13 15v-2h2l4.66 4.66l1.41-1.42L17.83 13H22z"/></symbol><symbol id="hd-icon-ic-twotone-access-alarm" viewBox="0 0 24 24"><path fill="currentColor" d="M12 6c-3.87 0-7 3.13-7 7s3.13 7 7 7s7-3.13 7-7s-3.13-7-7-7m3.75 10.85L11 14V8h1.5v5.25l4 2.37z" opacity=".3"/><path fill="currentColor" d="M12 4c-4.97 0-9 4.03-9 9s4.02 9 9 9a9 9 0 0 0 0-18m0 16c-3.87 0-7-3.13-7-7s3.13-7 7-7s7 3.13 7 7s-3.13 7-7 7m.5-12H11v6l4.75 2.85l.75-1.23l-4-2.37zM22 5.72l-4.6-3.86l-1.29 1.53l4.6 3.86zM7.88 3.39L6.6 1.86L2 5.71l1.29 1.53z"/></symbol><symbol id="hd-icon-ic-twotone-access-alarms" viewBox="0 0 24 24"><path fill="currentColor" d="M12 6c-3.9 0-7 3.1-7 7s3.1 7 7 7s7-3.1 7-7s-3.1-7-7-7m3.7 10.9L11 14V8h1.5v5.3l4 2.4z" opacity=".3"/><path fill="currentColor" d="m22 5.7l-4.6-3.9l-1.3 1.5l4.6 3.9zM12.5 8H11v6l4.7 2.9l.8-1.2l-4-2.4zM12 4c-5 0-9 4-9 9s4 9 9 9s9-4 9-9s-4-9-9-9m0 16c-3.9 0-7-3.1-7-7s3.1-7 7-7s7 3.1 7 7s-3.1 7-7 7M7.9 3.4L6.6 1.9L2 5.7l1.3 1.5z"/></symbol><symbol id="hd-icon-ic-twotone-access-time" viewBox="0 0 24 24"><path fill="currentColor" d="M12 4c-4.42 0-8 3.58-8 8s3.58 8 8 8s8-3.58 8-8s-3.58-8-8-8m4.25 12.15L11 13V7h1.5v5.25l4.5 2.67z" opacity=".3"/><path fill="currentColor" d="M11.99 2C6.47 2 2 6.48 2 12s4.47 10 9.99 10C17.52 22 22 17.52 22 12S17.52 2 11.99 2M12 20c-4.42 0-8-3.58-8-8s3.58-8 8-8s8 3.58 8 8s-3.58 8-8 8m.5-13H11v6l5.25 3.15l.75-1.23l-4.5-2.67z"/></symbol><symbol id="hd-icon-ic-twotone-access-time-filled" viewBox="0 0 24 24"><path fill="currentColor" d="M11.99 2C6.47 2 2 6.48 2 12s4.47 10 9.99 10C17.52 22 22 17.52 22 12S17.52 2 11.99 2m3.3 14.71L11 12.41V7h2v4.59l3.71 3.71z"/></symbol><symbol id="hd-icon-ic-twotone-accessibility" viewBox="0 0 24 24"><path fill="currentColor" d="M12 2c1.1 0 2 .9 2 2s-.9 2-2 2s-2-.9-2-2s.9-2 2-2m9 7h-6v13h-2v-6h-2v6H9V9H3V7h18z"/></symbol><symbol id="hd-icon-ic-twotone-accessibility-new" viewBox="0 0 24 24"><path fill="currentColor" d="M20.5 6c-2.61.7-5.67 1-8.5 1s-5.89-.3-8.5-1L3 8c1.86.5 4 .83 6 1v13h2v-6h2v6h2V9c2-.17 4.14-.5 6-1zM12 6c1.1 0 2-.9 2-2s-.9-2-2-2s-2 .9-2 2s.9 2 2 2"/></symbol><symbol id="hd-icon-ic-twotone-accessible" viewBox="0 0 24 24"><circle cx="12" cy="4" r="2" fill="currentColor"/><path fill="currentColor" d="M19 13v-2c-1.54.02-3.09-.75-4.07-1.83l-1.29-1.43c-.17-.19-.38-.34-.61-.45c-.01 0-.01-.01-.02-.01H13c-.35-.2-.75-.3-1.19-.26C10.76 7.11 10 8.04 10 9.09V15c0 1.1.9 2 2 2h5v5h2v-5.5c0-1.1-.9-2-2-2h-3v-3.45c1.29 1.07 3.25 1.94 5 1.95m-6.17 5c-.41 1.16-1.52 2-2.83 2c-1.66 0-3-1.34-3-3c0-1.31.84-2.41 2-2.83V12.1a5 5 0 1 0 5.9 5.9z"/></symbol><symbol id="hd-icon-ic-twotone-accessible-forward" viewBox="0 0 24 24"><circle cx="18" cy="4.54" r="2" fill="currentColor"/><path fill="currentColor" d="M15 17h-2c0 1.65-1.35 3-3 3s-3-1.35-3-3s1.35-3 3-3v-2c-2.76 0-5 2.24-5 5s2.24 5 5 5s5-2.24 5-5m3-3.5h-1.86l1.67-3.67C18.42 8.5 17.44 7 15.96 7h-5.2c-.81 0-1.54.47-1.87 1.2L8.22 10l1.92.53l.65-1.53H13l-1.83 4.1c-.6 1.33.39 2.9 1.85 2.9H18v5h2v-5.5c0-1.1-.9-2-2-2"/></symbol><symbol id="hd-icon-ic-twotone-account-balance" viewBox="0 0 24 24"><path fill="currentColor" d="m6.29 6l5.21-2.74L16.71 6z" opacity=".3"/><path fill="currentColor" d="M6.5 10h-2v7h2zm6 0h-2v7h2zm8.5 9H2v2h19zm-2.5-9h-2v7h2zm-7-9L2 6v2h19V6zM6.29 6l5.21-2.74L16.71 6z"/></symbol><symbol id="hd-icon-ic-twotone-account-balance-wallet" viewBox="0 0 24 24"><path fill="currentColor" d="M13 17c-1.1 0-2-.9-2-2V9c0-1.1.9-2 2-2h6V5H5v14h14v-2z" opacity=".3"/><path fill="currentColor" d="M21 7.28V5c0-1.1-.9-2-2-2H5a2 2 0 0 0-2 2v14a2 2 0 0 0 2 2h14c1.1 0 2-.9 2-2v-2.28A2 2 0 0 0 22 15V9c0-.74-.41-1.38-1-1.72M20 9v6h-7V9zM5 19V5h14v2h-6c-1.1 0-2 .9-2 2v6c0 1.1.9 2 2 2h6v2z"/><circle cx="16" cy="12" r="1.5" fill="currentColor"/></symbol><symbol id="hd-icon-ic-twotone-account-box" viewBox="0 0 24 24"><path fill="currentColor" d="M5 17.86C6.8 16.09 9.27 15 12 15s5.2 1.09 7 2.86V5H5zM12 6c1.93 0 3.5 1.57 3.5 3.5S13.93 13 12 13s-3.5-1.57-3.5-3.5S10.07 6 12 6" opacity=".3"/><path fill="currentColor" d="M19 3H5c-1.1 0-2 .9-2 2v14c0 1.1.9 2 2 2h14c1.1 0 2-.9 2-2V5c0-1.1-.9-2-2-2m-2 16H7v-.24C8.42 17.62 10.16 17 12 17s3.58.62 5 1.76zm2-1.14C17.2 16.09 14.73 15 12 15s-5.2 1.09-7 2.86V5h14z"/><path fill="currentColor" d="M12 13c1.93 0 3.5-1.57 3.5-3.5S13.93 6 12 6S8.5 7.57 8.5 9.5S10.07 13 12 13m0-5c.83 0 1.5.67 1.5 1.5S12.83 11 12 11s-1.5-.67-1.5-1.5S11.17 8 12 8"/></symbol><symbol id="hd-icon-ic-twotone-account-circle" viewBox="0 0 24 24"><path fill="currentColor" d="M12 4c-4.42 0-8 3.58-8 8c0 1.95.7 3.73 1.86 5.12a9.95 9.95 0 0 1 12.28 0A7.96 7.96 0 0 0 20 12c0-4.42-3.58-8-8-8m0 9c-1.93 0-3.5-1.57-3.5-3.5S10.07 6 12 6s3.5 1.57 3.5 3.5S13.93 13 12 13" opacity=".3"/><path fill="currentColor" d="M12 2C6.48 2 2 6.48 2 12s4.48 10 10 10s10-4.48 10-10S17.52 2 12 2m0 18c-1.74 0-3.34-.56-4.65-1.5C8.66 17.56 10.26 17 12 17s3.34.56 4.65 1.5c-1.31.94-2.91 1.5-4.65 1.5m6.14-2.88a9.95 9.95 0 0 0-12.28 0A7.96 7.96 0 0 1 4 12c0-4.42 3.58-8 8-8s8 3.58 8 8c0 1.95-.7 3.73-1.86 5.12"/><path fill="currentColor" d="M12 5.93c-1.93 0-3.5 1.57-3.5 3.5s1.57 3.5 3.5 3.5s3.5-1.57 3.5-3.5s-1.57-3.5-3.5-3.5m0 5c-.83 0-1.5-.67-1.5-1.5s.67-1.5 1.5-1.5s1.5.67 1.5 1.5s-.67 1.5-1.5 1.5"/></symbol><symbol id="hd-icon-ic-twotone-account-tree" viewBox="0 0 24 24"><path fill="currentColor" d="M22 11V3h-7v3H9V3H2v8h7V8h2v10h4v3h7v-8h-7v3h-2V8h2v3zM7 9H4V5h3zm10 6h3v4h-3zm0-10h3v4h-3z"/><path fill="currentColor" d="M7 5v4H4V5zm13 0v4h-3V5zm0 10v4h-3v-4z" opacity=".3"/></symbol><symbol id="hd-icon-ic-twotone-ad-units" viewBox="0 0 24 24"><path fill="currentColor" d="M7 3h10v1H7zm0 17h10v1H7z" opacity=".3"/><path fill="currentColor" d="M17 1H7c-1.1 0-2 .9-2 2v18c0 1.1.9 2 2 2h10c1.1 0 2-.9 2-2V3c0-1.1-.9-2-2-2M7 4V3h10v1zm0 14V6h10v12zm0 3v-1h10v1z"/><path fill="currentColor" d="M16 7H8v2h8z"/></symbol><symbol id="hd-icon-ic-twotone-adb" viewBox="0 0 24 24"><path fill="currentColor" d="M5 16c0 3.87 3.13 7 7 7s7-3.13 7-7v-4H5zM16.12 4.37l2.1-2.1l-.82-.83l-2.3 2.31C14.16 3.28 13.12 3 12 3s-2.16.28-3.09.75L6.6 1.44l-.82.83l2.1 2.1C6.14 5.64 5 7.68 5 10v1h14v-1c0-2.32-1.14-4.36-2.88-5.63M9 9c-.55 0-1-.45-1-1s.45-1 1-1s1 .45 1 1s-.45 1-1 1m6 0c-.55 0-1-.45-1-1s.45-1 1-1s1 .45 1 1s-.45 1-1 1"/></symbol><symbol id="hd-icon-ic-twotone-add" viewBox="0 0 24 24"><path fill="currentColor" d="M19 13h-6v6h-2v-6H5v-2h6V5h2v6h6z"/></symbol><symbol id="hd-icon-ic-twotone-add-a-photo" viewBox="0 0 24 24"><path fill="currentColor" d="M6 7v3H5v10h16V8h-4.05l-1.83-2H9v1zm7 2c2.76 0 5 2.24 5 5s-2.24 5-5 5s-5-2.24-5-5s2.24-5 5-5" opacity=".3"/><path fill="currentColor" d="M21 6h-3.17L16 4H9v2h6.12l1.83 2H21v12H5V10H3v10c0 1.1.9 2 2 2h16c1.1 0 2-.9 2-2V8c0-1.1-.9-2-2-2M8 14c0 2.76 2.24 5 5 5s5-2.24 5-5s-2.24-5-5-5s-5 2.24-5 5m5-3c1.65 0 3 1.35 3 3s-1.35 3-3 3s-3-1.35-3-3s1.35-3 3-3M5 9V6h3V4H5V1H3v3H0v2h3v3z"/></symbol><symbol id="hd-icon-ic-twotone-add-alarm" viewBox="0 0 24 24"><path fill="currentColor" d="M12 6c-3.87 0-7 3.13-7 7s3.13 7 7 7s7-3.13 7-7s-3.13-7-7-7m4 8h-3v3h-2v-3H8v-2h3V9h2v3h3z" opacity=".3"/><path fill="currentColor" d="M12 4c-4.97 0-9 4.03-9 9s4.02 9 9 9a9 9 0 0 0 0-18m0 16c-3.87 0-7-3.13-7-7s3.13-7 7-7s7 3.13 7 7s-3.13 7-7 7m1-11h-2v3H8v2h3v3h2v-3h3v-2h-3zm9-3.28l-4.6-3.86l-1.29 1.53l4.6 3.86zM7.88 3.39L6.6 1.86L2 5.71l1.29 1.53z"/></symbol><symbol id="hd-icon-ic-twotone-add-alert" viewBox="0 0 24 24"><path fill="currentColor" d="M12 6c-2.76 0-5 2.24-5 5v7h10v-7c0-2.76-2.24-5-5-5m4 7h-3v3h-2v-3H8v-2h3V8h2v3h3z" opacity=".3"/><path fill="currentColor" d="M12 23c1.1 0 1.99-.89 1.99-1.99h-3.98c0 1.1.89 1.99 1.99 1.99m7-6v-6c0-3.35-2.36-6.15-5.5-6.83V3c0-.83-.67-1.5-1.5-1.5s-1.5.67-1.5 1.5v1.17C7.36 4.85 5 7.65 5 11v6l-2 2v1h18v-1zm-2 1H7v-7c0-2.76 2.24-5 5-5s5 2.24 5 5zm-4-7V8h-2v3H8v2h3v3h2v-3h3v-2z"/></symbol><symbol id="hd-icon-ic-twotone-add-box" viewBox="0 0 24 24"><path fill="currentColor" d="M5 19h14V5H5zm2-8h4V7h2v4h4v2h-4v4h-2v-4H7z" opacity=".3"/><path fill="currentColor" d="M19 3H5a2 2 0 0 0-2 2v14a2 2 0 0 0 2 2h14c1.1 0 2-.9 2-2V5c0-1.1-.9-2-2-2m0 16H5V5h14zm-8-2h2v-4h4v-2h-4V7h-2v4H7v2h4z"/></symbol><symbol id="hd-icon-ic-twotone-add-business" viewBox="0 0 24 24"><path fill="currentColor" d="M15.36 9H3.64l-.6 3h12.92z" opacity=".3"/><path fill="currentColor" d="M2 4h15v2H2zm13 13h2v-3h1v-2l-1-5H2l-1 5v2h1v6h9v-6h4zm-6 1H4v-4h5zm-5.96-6l.6-3h11.72l.6 3z"/><path fill="currentColor" d="M20 18v-3h-2v3h-3v2h3v3h2v-3h3v-2z"/></symbol><symbol id="hd-icon-ic-twotone-add-card" viewBox="0 0 24 24"><path fill="currentColor" d="M20 4H4c-1.11 0-1.99.89-1.99 2L2 18c0 1.11.89 2 2 2h10v-2H4v-6h18V6c0-1.11-.89-2-2-2m0 4H4V6h16zm4 9v2h-3v3h-2v-3h-3v-2h3v-3h2v3z"/></symbol><symbol id="hd-icon-ic-twotone-add-chart" viewBox="0 0 24 24"><path fill="currentColor" d="M11 7h2v10h-2zm4 6h2v4h-2z"/><path fill="currentColor" d="M19 19H5V5h9V3H5c-1.1 0-2 .9-2 2v14c0 1.1.9 2 2 2h14c1.1 0 2-.9 2-2v-9h-2z"/><path fill="currentColor" d="M7 10h2v7H7zm12-5V3h-2v2h-2v2h2v2h2V7h2V5z"/></symbol><symbol id="hd-icon-ic-twotone-add-circle" viewBox="0 0 24 24"><path fill="currentColor" d="M12 4c-4.41 0-8 3.59-8 8s3.59 8 8 8s8-3.59 8-8s-3.59-8-8-8m5 9h-4v4h-2v-4H7v-2h4V7h2v4h4z" opacity=".3"/><path fill="currentColor" d="M13 7h-2v4H7v2h4v4h2v-4h4v-2h-4zm-1-5C6.48 2 2 6.48 2 12s4.48 10 10 10s10-4.48 10-10S17.52 2 12 2m0 18c-4.41 0-8-3.59-8-8s3.59-8 8-8s8 3.59 8 8s-3.59 8-8 8"/></symbol><symbol id="hd-icon-ic-twotone-add-circle-outline" viewBox="0 0 24 24"><path fill="currentColor" d="M13 7h-2v4H7v2h4v4h2v-4h4v-2h-4zm-1-5C6.48 2 2 6.48 2 12s4.48 10 10 10s10-4.48 10-10S17.52 2 12 2m0 18c-4.41 0-8-3.59-8-8s3.59-8 8-8s8 3.59 8 8s-3.59 8-8 8"/></symbol><symbol id="hd-icon-ic-twotone-add-comment" viewBox="0 0 24 24"><path fill="currentColor" d="M20 2H4c-1.1 0-2 .9-2 2v12c0 1.1.9 2 2 2h14l4 4V4c0-1.1-.9-2-2-2m0 15.17L18.83 16H4V4h16zM13 5h-2v4H7v2h4v4h2v-4h4V9h-4z"/><path fill="currentColor" d="M4 4v12h14.83L20 17.17V4zm13 7h-4v4h-2v-4H7V9h4V5h2v4h4z" opacity=".3"/></symbol><symbol id="hd-icon-ic-twotone-add-home" viewBox="0 0 24 24"><path fill="currentColor" d="M12 5.5L6 10v9h5.08c-.62-4.3 2.72-8 6.92-8v-1z" opacity=".3"/><path fill="currentColor" d="M6 19v-9l6-4.5l6 4.5v1c.7 0 1.37.1 2 .29V9l-8-6l-8 6v12h7.68c-.3-.62-.5-1.29-.6-2z"/><path fill="currentColor" d="M18 13c-2.76 0-5 2.24-5 5s2.24 5 5 5s5-2.24 5-5s-2.24-5-5-5m3 5.5h-2.5V21h-1v-2.5H15v-1h2.5V15h1v2.5H21z"/></symbol><symbol id="hd-icon-ic-twotone-add-home-work" viewBox="0 0 24 24"><path fill="currentColor" d="M12 5v1.4l5 3.57v1.11c.33-.05.66-.08 1-.08c1.08 0 2.09.25 3 .68V5zm7 4h-2V7h2z" opacity=".3"/><path fill="currentColor" d="M12 5h9v6.68c.75.36 1.43.84 2 1.42V3H10v1.97l2 1.43z"/><path fill="currentColor" d="M17 7h2v2h-2zM8 6l-7 5v10h6v-5h2v5h2.68c-.43-.91-.68-1.92-.68-3v-4H5v5H3v-6.97l5-3.57l5 3.57v1.08c.57-.59 1.25-1.07 2-1.42V11z"/><path fill="currentColor" d="m8 8.46l-5 3.57V19h2v-5h6v4c0-1.91.76-3.63 2-4.89v-1.08z" opacity=".3"/><path fill="currentColor" d="M18 13c-2.76 0-5 2.24-5 5s2.24 5 5 5s5-2.24 5-5s-2.24-5-5-5m3 5.5h-2.5V21h-1v-2.5H15v-1h2.5V15h1v2.5H21z"/></symbol><symbol id="hd-icon-ic-twotone-add-ic-call" viewBox="0 0 24 24"><path fill="currentColor" d="M19 17.41c-.88-.07-1.75-.22-2.6-.45l-1.2 1.2c1.21.41 2.48.67 3.8.76zM6.54 4.95h-1.5c.09 1.32.34 2.58.75 3.79l1.2-1.21c-.24-.83-.39-1.7-.45-2.58" opacity=".3"/><path fill="currentColor" d="M20 20.95c.55 0 1-.45 1-1v-3.5c0-.55-.45-1-1-1c-1.25 0-2.45-.2-3.57-.57c-.1-.03-.21-.05-.31-.05c-.26 0-.51.1-.71.29l-2.2 2.2a15.05 15.05 0 0 1-6.59-6.59l2.2-2.21a.96.96 0 0 0 .25-1a11.4 11.4 0 0 1-.57-3.57c0-.55-.45-1-1-1H4c-.55 0-1 .45-1 1c0 9.39 7.61 17 17 17m-3.6-3.99c.85.24 1.72.39 2.6.45v1.5c-1.32-.09-2.6-.35-3.8-.76zM5.03 4.95h1.5c.07.88.22 1.75.45 2.58l-1.2 1.21c-.4-1.21-.66-2.47-.75-3.79m10.97 6h2v-3h3v-2h-3v-3h-2v3h-3v2h3z"/></symbol><symbol id="hd-icon-ic-twotone-add-link" viewBox="0 0 24 24"><path fill="currentColor" d="M8 11h8v2H8zm12.1 1H22c0-2.76-2.24-5-5-5h-4v1.9h4c1.71 0 3.1 1.39 3.1 3.1M3.9 12c0-1.71 1.39-3.1 3.1-3.1h4V7H7c-2.76 0-5 2.24-5 5s2.24 5 5 5h4v-1.9H7c-1.71 0-3.1-1.39-3.1-3.1M19 12h-2v3h-3v2h3v3h2v-3h3v-2h-3z"/></symbol><symbol id="hd-icon-ic-twotone-add-location" viewBox="0 0 24 24"><path fill="currentColor" d="M18.5 10.2c0 2.57-2.1 5.79-6.16 9.51l-.34.3l-.34-.31C7.6 15.99 5.5 12.77 5.5 10.2c0-3.84 2.82-6.7 6.5-6.7s6.5 2.85 6.5 6.7" opacity=".3"/><path fill="currentColor" d="M13 6v3h3v2h-3v3h-2v-3H8V9h3V6zm5 4.2C18 6.57 15.35 4 12 4s-6 2.57-6 6.2c0 2.34 1.95 5.44 6 9.14c4.05-3.7 6-6.8 6-9.14M12 2c4.2 0 8 3.22 8 8.2c0 3.32-2.67 7.25-8 11.8c-5.33-4.55-8-8.48-8-11.8C4 5.22 7.8 2 12 2"/></symbol><symbol id="hd-icon-ic-twotone-add-location-alt" viewBox="0 0 24 24"><path fill="currentColor" fill-opacity=".3" d="M14 4.8V7h3v3h1.41q.09.585.09 1.2c0 2.57-2.1 5.79-6.16 9.51l-.34.3l-.34-.31C7.6 16.99 5.5 13.77 5.5 11.2c0-3.84 2.82-6.7 6.5-6.7c.7 0 1.37.1 2 .3"/><path fill="currentColor" d="M20 1v3h3v2h-3v3h-2V6h-3V4h3V1zm-8 12c-1.1 0-2-.9-2-2s.9-2 2-2s2 .9 2 2s-.9 2-2 2m2-9.75v2.08c-.62-.22-1.3-.33-2-.33c-3.35 0-6 2.57-6 6.2c0 2.34 1.95 5.44 6 9.14c4.05-3.7 6-6.79 6-9.14c0-.41-.03-.81-.1-1.2h2.02c.05.39.08.79.08 1.2c0 3.32-2.67 7.25-8 11.8c-5.33-4.55-8-8.48-8-11.8C4 6.22 7.8 3 12 3c.68 0 1.35.08 2 .25"/></symbol><symbol id="hd-icon-ic-twotone-add-moderator" viewBox="0 0 24 24"><path fill="currentColor" d="M12 4.14L6 6.39v4.7c0 3.33 1.76 6.44 4.33 8.04c-1.56-4.89 2.5-9.8 7.67-9.05V6.39z" opacity=".3"/><path fill="currentColor" d="M10.33 19.13C7.76 17.53 6 14.42 6 11.09v-4.7l6-2.25l6 2.25v3.69c.71.1 1.38.31 2 .6V5l-8-3l-8 3v6.09c0 5.05 3.41 9.76 8 10.91c.03-.01.05-.02.08-.02c-.79-.79-1.4-1.76-1.75-2.85"/><path fill="currentColor" d="M17 12c-2.76 0-5 2.24-5 5s2.24 5 5 5s5-2.24 5-5s-2.24-5-5-5m3 5.5h-2.5V20h-1v-2.5H14v-1h2.5V14h1v2.5H20z"/></symbol><symbol id="hd-icon-ic-twotone-add-photo-alternate" viewBox="0 0 24 24"><path fill="currentColor" d="m10.21 16.83l-1.96-2.36L5.5 18h11l-3.54-4.71z"/><path fill="currentColor" d="M16.5 18h-11l2.75-3.53l1.96 2.36l2.75-3.54zM17 7h-3V6H4v14h14V10h-1z" opacity=".3"/><path fill="currentColor" d="M20 4V1h-2v3h-3v2h3v2.99h2V6h3V4zm-2 16H4V6h10V4H4c-1.1 0-2 .9-2 2v14c0 1.1.9 2 2 2h14c1.1 0 2-.9 2-2V10h-2z"/></symbol><symbol id="hd-icon-ic-twotone-add-reaction" viewBox="0 0 24 24"><path fill="currentColor" d="M19.41 9H18V7h-2V5.08A8 8 0 0 0 12 4c-4.42 0-8 3.58-8 8s3.58 8 8 8s8-3.58 8-8c0-1.06-.21-2.07-.59-3M15.5 8c.83 0 1.5.67 1.5 1.5s-.67 1.5-1.5 1.5s-1.5-.67-1.5-1.5s.67-1.5 1.5-1.5m-7 0c.83 0 1.5.67 1.5 1.5S9.33 11 8.5 11S7 10.33 7 9.5S7.67 8 8.5 8m3.5 9.5c-2.33 0-4.31-1.46-5.11-3.5h10.22c-.8 2.04-2.78 3.5-5.11 3.5" opacity=".3"/><path fill="currentColor" d="M7 9.5C7 8.67 7.67 8 8.5 8s1.5.67 1.5 1.5S9.33 11 8.5 11S7 10.33 7 9.5m5 8c2.33 0 4.31-1.46 5.11-3.5H6.89c.8 2.04 2.78 3.5 5.11 3.5m3.5-6.5c.83 0 1.5-.67 1.5-1.5S16.33 8 15.5 8S14 8.67 14 9.5s.67 1.5 1.5 1.5M22 1h-2v2h-2v2h2v2h2V5h2V3h-2zm-2 11c0 4.42-3.58 8-8 8s-8-3.58-8-8s3.58-8 8-8c1.46 0 2.82.4 4 1.08V2.84A9.9 9.9 0 0 0 11.99 2C6.47 2 2 6.48 2 12s4.47 10 9.99 10C17.52 22 22 17.52 22 12c0-1.05-.17-2.05-.47-3H19.4c.38.93.6 1.94.6 3"/></symbol><symbol id="hd-icon-ic-twotone-add-road" viewBox="0 0 24 24"><path fill="currentColor" d="M20 18v-3h-2v3h-3v2h3v3h2v-3h3v-2zM18 4h2v9h-2zM4 4h2v16H4zm7 0h2v4h-2zm0 6h2v4h-2zm0 6h2v4h-2z"/></symbol><symbol id="hd-icon-ic-twotone-add-shopping-cart" viewBox="0 0 24 24"><path fill="currentColor" d="M11 9h2V6h3V4h-3V1h-2v3H8v2h3zm-4 9c-1.1 0-1.99.9-1.99 2S5.9 22 7 22s2-.9 2-2s-.9-2-2-2m10 0c-1.1 0-1.99.9-1.99 2s.89 2 1.99 2s2-.9 2-2s-.9-2-2-2m-8.9-5h7.45c.75 0 1.41-.41 1.75-1.03l3.86-7.01L19.41 4l-3.86 7H8.53L4.27 2H1v2h2l3.6 7.59l-1.35 2.44C4.52 15.37 5.48 17 7 17h12v-2H7z"/></symbol><symbol id="hd-icon-ic-twotone-add-task" viewBox="0 0 24 24"><path fill="currentColor" d="M22 5.18L10.59 16.6l-4.24-4.24l1.41-1.41l2.83 2.83l10-10zM12 20c-4.41 0-8-3.59-8-8s3.59-8 8-8c1.57 0 3.04.46 4.28 1.25l1.45-1.45A10 10 0 0 0 12 2C6.48 2 2 6.48 2 12s4.48 10 10 10c1.73 0 3.36-.44 4.78-1.22l-1.5-1.5c-1 .46-2.11.72-3.28.72m7-5h-3v2h3v3h2v-3h3v-2h-3v-3h-2z"/></symbol><symbol id="hd-icon-ic-twotone-add-to-drive" viewBox="0 0 24 24"><path fill="currentColor" d="M19 11c.17 0 .33.01.49.02L15 3H9l5.68 9.84A6 6 0 0 1 19 11M8.15 4.52L2 15.5L5 21l6.33-10.97zM13.2 15.5H9.9L6.73 21h7.81A5.93 5.93 0 0 1 13 17c0-.52.07-1.02.2-1.5m6.8.5v-3h-2v3h-3v2h3v3h2v-3h3v-2z"/></symbol><symbol id="hd-icon-ic-twotone-add-to-home-screen" viewBox="0 0 24 24"><path fill="currentColor" d="M18 1.01L8 1c-1.1 0-2 .9-2 2v3h2V5h10v14H8v-1H6v3c0 1.1.9 2 2 2h10c1.1 0 2-.9 2-2V3c0-1.1-.9-1.99-2-1.99M10 15h2V8H5v2h3.59L3 15.59L4.41 17L10 11.41z"/></symbol><symbol id="hd-icon-ic-twotone-add-to-photos" viewBox="0 0 24 24"><path fill="currentColor" d="M20 4H8v12h12zm-1 7h-4v4h-2v-4H9V9h4V5h2v4h4z" opacity=".3"/><path fill="currentColor" d="M4 22h14v-2H4V6H2v14c0 1.1.9 2 2 2m4-4h12c1.1 0 2-.9 2-2V4c0-1.1-.9-2-2-2H8c-1.1 0-2 .9-2 2v12c0 1.1.9 2 2 2M8 4h12v12H8zm7 1h-2v4H9v2h4v4h2v-4h4V9h-4z"/></symbol><symbol id="hd-icon-ic-twotone-add-to-queue" viewBox="0 0 24 24"><path fill="currentColor" d="M3 17h18V5H3zm5-7h3V7h2v3h3v2h-3v3h-2v-3H8z" opacity=".3"/><path fill="currentColor" d="M11 15h2v-3h3v-2h-3V7h-2v3H8v2h3zM21 3H3c-1.11 0-2 .89-2 2v12a2 2 0 0 0 2 2h5v2h8v-2h5c1.1 0 2-.9 2-2V5a2 2 0 0 0-2-2m0 14H3V5h18z"/></symbol><symbol id="hd-icon-ic-twotone-addchart" viewBox="0 0 24 24"><path fill="currentColor" d="M22 5v2h-3v3h-2V7h-3V5h3V2h2v3zm-3 14H5V5h6V3H5c-1.1 0-2 .9-2 2v14c0 1.1.9 2 2 2h14c1.1 0 2-.9 2-2v-6h-2zm-4-6v4h2v-4zm-4 4h2V9h-2zm-2 0v-6H7v6z"/></symbol><symbol id="hd-icon-ic-twotone-adf-scanner" viewBox="0 0 24 24"><path fill="currentColor" d="M8 6h8v6H8zm11 8H5c-.55 0-1 .45-1 1v3h16v-3c0-.55-.45-1-1-1m-1 3c-.55 0-1-.45-1-1s.45-1 1-1s1 .45 1 1s-.45 1-1 1" opacity=".3"/><path fill="currentColor" d="M19 12h-1V4H6v8H5c-1.66 0-3 1.34-3 3v5h20v-5c0-1.66-1.34-3-3-3M8 6h8v6H8zm12 12H4v-3c0-.55.45-1 1-1h14c.55 0 1 .45 1 1z"/><circle cx="18" cy="16" r="1" fill="currentColor"/></symbol><symbol id="hd-icon-ic-twotone-adjust" viewBox="0 0 24 24"><path fill="currentColor" d="M12 9c-1.66 0-3 1.34-3 3s1.34 3 3 3s3-1.34 3-3s-1.34-3-3-3m0-7C6.49 2 2 6.49 2 12s4.49 10 10 10s10-4.49 10-10S17.51 2 12 2m0 18c-4.41 0-8-3.59-8-8s3.59-8 8-8s8 3.59 8 8s-3.59 8-8 8"/></symbol><symbol id="hd-icon-ic-twotone-admin-panel-settings" viewBox="0 0 24 24"><path fill="currentColor" d="m16 7.58l-5.5-2.4L5 7.58v3.6c0 3.5 2.33 6.74 5.5 7.74c.25-.08.49-.2.73-.3c-.15-.51-.23-1.06-.23-1.62c0-2.97 2.16-5.43 5-5.91z" opacity=".3"/><path fill="currentColor" d="M17 13c-2.21 0-4 1.79-4 4s1.79 4 4 4s4-1.79 4-4s-1.79-4-4-4m0 1.38c.62 0 1.12.51 1.12 1.12s-.51 1.12-1.12 1.12s-1.12-.51-1.12-1.12s.5-1.12 1.12-1.12m0 5.37c-.93 0-1.74-.46-2.24-1.17c.05-.72 1.51-1.08 2.24-1.08s2.19.36 2.24 1.08c-.5.71-1.31 1.17-2.24 1.17" opacity=".3"/><circle cx="17" cy="15.5" r="1.12" fill="currentColor"/><path fill="currentColor" d="M18 11.09V6.27L10.5 3L3 6.27v4.91c0 4.54 3.2 8.79 7.5 9.82c.55-.13 1.08-.32 1.6-.55A5.97 5.97 0 0 0 17 23c3.31 0 6-2.69 6-6c0-2.97-2.16-5.43-5-5.91M11 17c0 .56.08 1.11.23 1.62c-.24.11-.48.22-.73.3c-3.17-1-5.5-4.24-5.5-7.74v-3.6l5.5-2.4l5.5 2.4v3.51c-2.84.48-5 2.94-5 5.91m6 4c-2.21 0-4-1.79-4-4s1.79-4 4-4s4 1.79 4 4s-1.79 4-4 4"/><path fill="currentColor" d="M17 17.5c-.73 0-2.19.36-2.24 1.08c.5.71 1.32 1.17 2.24 1.17s1.74-.46 2.24-1.17c-.05-.72-1.51-1.08-2.24-1.08"/></symbol><symbol id="hd-icon-ic-twotone-adobe" viewBox="0 0 24 24"><path fill="currentColor" d="M18.97 3H5c-1.1 0-2 .9-2 2v14c0 1.1.9 2 2 2h13.97c1.1 0 2-.9 2-2V5a2 2 0 0 0-2-2m-1.59 13.98c-.03.01-.07.02-.1.02h-2.26a.49.49 0 0 1-.46-.3l-2.46-5.74c-.02-.06-.08-.09-.13-.07a.12.12 0 0 0-.07.07l-1.53 3.65c-.03.07 0 .14.07.17c.02.01.03.01.05.01h1.68c.1 0 .2.06.24.16l.74 1.64c.07.15-.01.33-.16.4c-.06 0-.1.01-.14.01H6.73c-.15 0-.28-.13-.28-.28c0-.04.01-.07.02-.11l3.9-9.28c.08-.2.28-.33.49-.33h2.25c.22 0 .41.13.49.33l3.92 9.28c.07.14.01.31-.14.37"/></symbol><symbol id="hd-icon-ic-twotone-ads-click" viewBox="0 0 24 24"><path fill="currentColor" d="M11.71 17.99A5.993 5.993 0 0 1 6 12c0-3.31 2.69-6 6-6c3.22 0 5.84 2.53 5.99 5.71l-2.1-.63a3.999 3.999 0 1 0-4.81 4.81zM22 12c0 .3-.01.6-.04.9l-1.97-.59c.01-.1.01-.21.01-.31c0-4.42-3.58-8-8-8s-8 3.58-8 8s3.58 8 8 8c.1 0 .21 0 .31-.01l.59 1.97c-.3.03-.6.04-.9.04c-5.52 0-10-4.48-10-10S6.48 2 12 2s10 4.48 10 10m-3.77 4.26L22 15l-10-3l3 10l1.26-3.77l4.27 4.27l1.98-1.98z"/></symbol><symbol id="hd-icon-ic-twotone-agriculture" viewBox="0 0 24 24"><path fill="currentColor" d="M4 9h5c0-1.1-.9-2-2-2H4c-.55 0-1 .45-1 1s.45 1 1 1"/><path fill="currentColor" d="M22 14.06V8c0-1.1-.9-2-2-2h-6.29l-1.06-1.06l1.41-1.41l-.71-.71l-3.53 3.53l.71.71l1.41-1.41L13 6.71V9c0 1.1-.9 2-2 2H8.96c-.22-.16-.45-.3-.69-.43l-.4.89l-.46-.21l.4-.9C7.26 10.13 6.64 10 6 10c-.53 0-1.04.11-1.52.26l.34.91l-.47.18l-.35-.93a4.92 4.92 0 0 0-2.43 2.31l.89.4l-.21.46l-.9-.4C1.13 13.74 1 14.36 1 15c0 .53.11 1.04.26 1.52l.91-.34l.18.47l-.93.35a4.92 4.92 0 0 0 2.31 2.43l.4-.89l.46.21l-.4.9c.55.22 1.17.35 1.81.35c.53 0 1.04-.11 1.52-.26l-.34-.91l.47-.18l.35.93a4.92 4.92 0 0 0 2.43-2.31l-.89-.4l.21-.46l.9.4c.1-.26.18-.54.24-.82h5.16c-.02.17-.05.34-.05.51c0 1.93 1.57 3.5 3.5 3.5s3.5-1.57 3.5-3.5c0-.95-.38-1.81-1-2.44M6 18c-1.66 0-3-1.34-3-3s1.34-3 3-3s3 1.34 3 3s-1.34 3-3 3m4.87-4c-.04-.18-.08-.35-.13-.52l-.91.34l-.18-.47l.93-.35H11c2.21 0 4-1.79 4-4V8h5v5.05c-.16-.02-.33-.05-.5-.05c-.95 0-1.81.38-2.44 1zm8.63 4c-.83 0-1.5-.67-1.5-1.5s.67-1.5 1.5-1.5s1.5.67 1.5 1.5s-.67 1.5-1.5 1.5"/><path fill="currentColor" d="M20 13.05V8h-5v1c0 2.21-1.79 4-4 4h-.42c.14.32.25.65.32 1h6.16c.63-.62 1.49-1 2.44-1c.17 0 .34.03.5.05" opacity=".3"/></symbol><symbol id="hd-icon-ic-twotone-air" viewBox="0 0 24 24"><path fill="currentColor" d="M14.5 17c0 1.65-1.35 3-3 3s-3-1.35-3-3h2c0 .55.45 1 1 1s1-.45 1-1s-.45-1-1-1H2v-2h9.5c1.65 0 3 1.35 3 3M19 6.5C19 4.57 17.43 3 15.5 3S12 4.57 12 6.5h2c0-.83.67-1.5 1.5-1.5s1.5.67 1.5 1.5S16.33 8 15.5 8H2v2h13.5c1.93 0 3.5-1.57 3.5-3.5m-.5 4.5H2v2h16.5c.83 0 1.5.67 1.5 1.5s-.67 1.5-1.5 1.5v2c1.93 0 3.5-1.57 3.5-3.5S20.43 11 18.5 11"/></symbol><symbol id="hd-icon-ic-twotone-airline-seat-flat" viewBox="0 0 24 24"><path fill="currentColor" d="M5 11a1 1 0 0 0 .71-.3c.39-.4.39-1.02-.01-1.41C5.51 9.11 5.26 9 5 9a1 1 0 0 0-.71.3c-.39.4-.39 1.02.01 1.41c.19.18.44.29.7.29m13-2h-7v2h9c0-1.1-.9-2-2-2" opacity=".3"/><path fill="currentColor" d="M5 13a3 3 0 0 0 2.1-5.14C6.51 7.29 5.75 7 5 7a3 3 0 0 0-2.1 5.14c.59.57 1.35.86 2.1.86m-.71-3.7a1 1 0 0 1 1.41-.02c.4.39.4 1.01.02 1.41c-.2.2-.45.31-.72.31c-.26 0-.51-.1-.7-.28c-.4-.4-.4-1.02-.01-1.42M18 7H9v6h13v-2c0-2.21-1.79-4-4-4m-7 4V9h7c1.1 0 2 .9 2 2zm-9 5h6v2h8v-2h6v-2H2z"/></symbol><symbol id="hd-icon-ic-twotone-airline-seat-flat-angled" viewBox="0 0 24 24"><path fill="currentColor" d="m14 16.64l-4-1.45V17h4zM6 8.5c.15 0 .3-.03.44-.1c.49-.24.7-.84.46-1.34A.98.98 0 0 0 6 6.5a1 1 0 0 0-.9 1.43c.2.42.59.57.9.57m13.16 2.52l-6.69-2.41l-.7 1.91l8.59 3.11l.01-.02c.19-.51.17-1.05-.06-1.53a2 2 0 0 0-1.15-1.06" opacity=".3"/><path fill="currentColor" d="M1.5 12.14L8 14.48V19h8v-1.63L20.52 19l.69-1.89l-19.02-6.86zm8.5 3.05l4 1.44V17h-4zm9.84-6.05l-8.56-3.09l-2.08 5.66l12.36 4.47l.69-1.89a4 4 0 0 0-2.41-5.15m.53 4.46l-.01.02l-8.59-3.11l.7-1.91l6.69 2.41c.52.19.93.56 1.15 1.05c.23.49.25 1.04.06 1.54M6 10.5a3.01 3.01 0 0 0 2.71-4.3A3.01 3.01 0 0 0 6 4.5c-.44 0-.88.1-1.3.3a2.99 2.99 0 0 0-1.4 4c.51 1.07 1.58 1.7 2.7 1.7m-.94-3.34c.05-.14.18-.4.51-.56a.99.99 0 0 1 1.33.46c.24.5.02 1.1-.47 1.34a.98.98 0 0 1-1.32-.46a1 1 0 0 1-.05-.78"/></symbol><symbol id="hd-icon-ic-twotone-airline-seat-individual-suite" viewBox="0 0 24 24"><circle cx="7" cy="11" r="1" fill="currentColor" opacity=".3"/><path fill="currentColor" d="M19 9h-6v6h8v-4c0-1.1-.9-2-2-2" opacity=".3"/><path fill="currentColor" d="M7 14c1.66 0 3-1.34 3-3S8.66 8 7 8s-3 1.34-3 3s1.34 3 3 3m0-4c.55 0 1 .45 1 1s-.45 1-1 1s-1-.45-1-1s.45-1 1-1m12-3h-8v8H3V7H1v10h22v-6c0-2.21-1.79-4-4-4m2 8h-8V9h6c1.1 0 2 .9 2 2z"/></symbol><symbol id="hd-icon-ic-twotone-airline-seat-legroom-extra" viewBox="0 0 24 24"><path fill="currentColor" d="M4 12V3H2v9c0 2.76 2.24 5 5 5h6v-2H7c-1.66 0-3-1.34-3-3m18.83 5.24c-.38-.72-1.29-.97-2.03-.63l-1.09.5l-3.41-6.98A2.02 2.02 0 0 0 14.51 9H11V3H5v8c0 1.66 1.34 3 3 3h7l3.41 7l3.72-1.7c.77-.36 1.1-1.3.7-2.06"/></symbol><symbol id="hd-icon-ic-twotone-airline-seat-legroom-normal" viewBox="0 0 24 24"><path fill="currentColor" d="M5 12V3H3v9c0 2.76 2.24 5 5 5h6v-2H8c-1.66 0-3-1.34-3-3m15.5 6H19v-7c0-1.1-.9-2-2-2h-5V3H6v8c0 1.65 1.35 3 3 3h7v7h4.5c.83 0 1.5-.67 1.5-1.5s-.67-1.5-1.5-1.5"/></symbol><symbol id="hd-icon-ic-twotone-airline-seat-legroom-reduced" viewBox="0 0 24 24"><path fill="currentColor" d="M19.97 19.2c.18.96-.55 1.8-1.47 1.8H14v-3l1-4H9c-1.65 0-3-1.35-3-3V3h6v6h5c1.1 0 2 .9 2 2l-2 7h1.44c.73 0 1.39.49 1.53 1.2M5 12V3H3v9c0 2.76 2.24 5 5 5h4v-2H8c-1.66 0-3-1.34-3-3"/></symbol><symbol id="hd-icon-ic-twotone-airline-seat-recline-extra" viewBox="0 0 24 24"><path fill="currentColor" d="M5.35 5.64c-.9-.64-1.12-1.88-.49-2.79c.63-.9 1.88-1.12 2.79-.49c.9.64 1.12 1.88.49 2.79c-.64.9-1.88 1.12-2.79.49M16 19H8.93c-1.48 0-2.74-1.08-2.96-2.54L4 7H2l1.99 9.76A5.01 5.01 0 0 0 8.94 21H16zm.23-4h-4.88l-1.03-4.1c1.58.89 3.28 1.54 5.15 1.22V9.99c-1.63.31-3.44-.27-4.69-1.25L9.14 7.47c-.23-.18-.49-.3-.76-.38a2.2 2.2 0 0 0-.99-.06h-.02a2.27 2.27 0 0 0-1.84 2.61l1.35 5.92A3.01 3.01 0 0 0 9.83 18h6.85l3.82 3l1.5-1.5z"/></symbol><symbol id="hd-icon-ic-twotone-airline-seat-recline-normal" viewBox="0 0 24 24"><path fill="currentColor" d="M7.59 5.41c-.78-.78-.78-2.05 0-2.83s2.05-.78 2.83 0s.78 2.05 0 2.83c-.79.79-2.05.79-2.83 0M6 16V7H4v9c0 2.76 2.24 5 5 5h6v-2H9c-1.66 0-3-1.34-3-3m14 4.07L14.93 15H11.5v-3.68c1.4 1.15 3.6 2.16 5.5 2.16v-2.16c-1.66.02-3.61-.87-4.67-2.04l-1.4-1.55c-.19-.21-.43-.38-.69-.5c-.29-.14-.62-.23-.96-.23h-.03C8.01 7 7 8.01 7 9.25V15c0 1.66 1.34 3 3 3h5.07l3.5 3.5z"/></symbol><symbol id="hd-icon-ic-twotone-airline-stops" viewBox="0 0 24 24"><path fill="currentColor" d="M18.21 9.21C15.93 10.78 13.45 13.3 13 17h2v2H9v-2h2c-.5-4.5-4.37-8-9-8V7c4.39 0 8.22 2.55 10 6.3c1.13-2.43 2.99-4.25 4.78-5.52L14 5h7v7z"/></symbol><symbol id="hd-icon-ic-twotone-airlines" viewBox="0 0 24 24"><path fill="currentColor" d="M14.05 6L5.8 18h11.54l2.25-12zm.45 8a2.5 2.5 0 0 1 0-5a2.5 2.5 0 0 1 0 5" opacity=".3"/><path fill="currentColor" d="M17.34 18H5.8l8.25-12h5.54zM13 4L2 20h17l3-16zm1.5 5a2.5 2.5 0 0 0 0 5a2.5 2.5 0 0 0 0-5"/></symbol><symbol id="hd-icon-ic-twotone-airplane-ticket" viewBox="0 0 24 24"><path fill="currentColor" d="M4.01 8.54C5.2 9.23 6 10.52 6 12c0 1.47-.81 2.77-2 3.46V18h16V6H4zm4.13 3.99l1.26.99l2.39-.64l-2.4-4.16l1.4-.38l4.01 3.74l2.44-.65a.967.967 0 0 1 1.18.68a.99.99 0 0 1-.69 1.19l-8.86 2.36l-1.66-2.88z" opacity=".3"/><path fill="currentColor" d="M20.19 4H4c-1.1 0-1.99.9-1.99 2v4c1.1 0 1.99.9 1.99 2s-.89 2-2 2v4c0 1.1.9 2 2 2h16c1.1 0 2-.9 2-2V6c0-1.1-.81-2-1.81-2M20 18H4v-2.54c1.19-.69 2-1.99 2-3.46c0-1.48-.8-2.77-1.99-3.46L4 6h16z"/><path fill="currentColor" d="M17.73 13.3c.52-.15.82-.68.69-1.19a.967.967 0 0 0-1.18-.68l-2.44.65l-4.01-3.74l-1.4.38l2.4 4.16l-2.39.64l-1.26-.99l-.93.25l1.66 2.88z"/></symbol><symbol id="hd-icon-ic-twotone-airplanemode-active" viewBox="0 0 24 24"><path fill="currentColor" d="M22 16v-2l-8.5-5V3.5c0-.83-.67-1.5-1.5-1.5s-1.5.67-1.5 1.5V9L2 14v2l8.5-2.5V19L8 20.5V22l4-1l4 1v-1.5L13.5 19v-5.5z"/></symbol><symbol id="hd-icon-ic-twotone-airplanemode-inactive" viewBox="0 0 24 24"><path fill="currentColor" d="M10.5 7.67V3.5c0-.83.67-1.5 1.5-1.5s1.5.67 1.5 1.5V9l8.5 5v2l-4.49-1.32zm9.28 14.94l1.41-1.41l-7.69-7.7l-3.94-3.94l-6.75-6.75l-1.42 1.41l6.38 6.38L2 14v2l8.5-2.5V19L8 20.5V22l4-1l4 1v-1.5L13.5 19v-2.67z"/></symbol><symbol id="hd-icon-ic-twotone-airplay" viewBox="0 0 24 24"><path fill="currentColor" d="M6 22h12l-6-6z"/><path fill="currentColor" d="M21 3H3c-1.1 0-2 .9-2 2v12c0 1.1.9 2 2 2h4v-2H3V5h18v12h-4v2h4c1.1 0 2-.9 2-2V5c0-1.1-.9-2-2-2"/></symbol><symbol id="hd-icon-ic-twotone-airport-shuttle" viewBox="0 0 24 24"><path fill="currentColor" d="M3 14h.78c.55-.61 1.34-1 2.22-1s1.67.39 2.22 1h7.56c.55-.61 1.34-1 2.22-1s1.67.39 2.22 1H21v-2H3z" opacity=".3"/><path fill="currentColor" d="M17 5H3a2 2 0 0 0-2 2v9h2c0 1.66 1.34 3 3 3s3-1.34 3-3h6c0 1.66 1.34 3 3 3s3-1.34 3-3h2v-5zm-2 2h1l3 3h-4zM9 7h4v3H9zM3 7h4v3H3zm3 10.25a1.25 1.25 0 1 1 0-2.5a1.25 1.25 0 0 1 0 2.5m12 0a1.25 1.25 0 1 1 0-2.5a1.25 1.25 0 0 1 0 2.5M21 14h-.78c-.55-.61-1.34-1-2.22-1s-1.67.39-2.22 1H8.22c-.55-.61-1.33-1-2.22-1s-1.67.39-2.22 1H3v-2h18z"/></symbol><symbol id="hd-icon-ic-twotone-alarm" viewBox="0 0 24 24"><path fill="currentColor" d="M12 6c-3.86 0-7 3.14-7 7s3.14 7 7 7s7-3.14 7-7s-3.14-7-7-7m3.75 10.85L11 14V8h1.5v5.25l4 2.37z" opacity=".3"/><path fill="currentColor" d="M12.5 8H11v6l4.75 2.85l.75-1.23l-4-2.37zm4.837-6.19l4.607 3.845l-1.28 1.535l-4.61-3.843zm-10.674 0l1.282 1.536L3.337 7.19l-1.28-1.536zM12 4a9 9 0 1 0 .001 18.001A9 9 0 0 0 12 4m0 16c-3.86 0-7-3.14-7-7s3.14-7 7-7s7 3.14 7 7s-3.14 7-7 7"/></symbol><symbol id="hd-icon-ic-twotone-alarm-add" viewBox="0 0 24 24"><path fill="currentColor" d="M12 6c-3.86 0-7 3.14-7 7s3.14 7 7 7s7-3.14 7-7s-3.14-7-7-7m4 8h-3v3h-2v-3H8v-2h3V9h2v3h3z" opacity=".3"/><path fill="currentColor" d="m17.337 1.81l4.607 3.845l-1.28 1.535l-4.61-3.843zm-10.674 0l1.282 1.536L3.337 7.19l-1.28-1.536zM12 4a9 9 0 1 0 .001 18.001A9 9 0 0 0 12 4m0 16c-3.86 0-7-3.14-7-7s3.14-7 7-7s7 3.14 7 7s-3.14 7-7 7m1-11h-2v3H8v2h3v3h2v-3h3v-2h-3z"/></symbol><symbol id="hd-icon-ic-twotone-alarm-off" viewBox="0 0 24 24"><path fill="currentColor" d="M10.04 6.29C10.66 6.11 11.32 6 12 6c3.86 0 7 3.14 7 7c0 .68-.11 1.34-.29 1.96l1.56 1.56c.47-1.08.73-2.27.73-3.52A9 9 0 0 0 8.47 4.72zm7.297-4.48l4.607 3.845l-1.28 1.535l-4.61-3.843zm1.903 16.51l-1.43-1.43l-9.7-9.7l-1.43-1.43l-.74-.74L4.52 3.6l-1.5-1.5l-1.41 1.41l1.37 1.37l-.92.77l1.28 1.54l1.06-.88l.8.8A8.96 8.96 0 0 0 3 13a9 9 0 0 0 9 9c2.25 0 4.31-.83 5.89-2.2l2.1 2.1l1.41-1.41zM12 20c-3.86 0-7-3.14-7-7c0-1.7.61-3.26 1.62-4.47l9.85 9.85A6.96 6.96 0 0 1 12 20M7.48 3.73l.46-.38l-1.28-1.54l-.6.5z"/></symbol><symbol id="hd-icon-ic-twotone-alarm-on" viewBox="0 0 24 24"><path fill="currentColor" d="M12 6c-3.86 0-7 3.14-7 7s3.14 7 7 7s7-3.14 7-7s-3.14-7-7-7m-1.47 10.64l-3.18-3.18l1.06-1.06l2.13 2.13l4.93-4.95l1.06 1.06z" opacity=".3"/><path fill="currentColor" d="M10.54 14.53L8.41 12.4l-1.06 1.06l3.18 3.18l6-6l-1.06-1.06zm6.797-12.72l4.607 3.845l-1.28 1.535l-4.61-3.843zm-10.674 0l1.282 1.536L3.337 7.19l-1.28-1.536zM12 4a9 9 0 1 0 .001 18.001A9 9 0 0 0 12 4m0 16c-3.86 0-7-3.14-7-7s3.14-7 7-7s7 3.14 7 7s-3.14 7-7 7"/></symbol><symbol id="hd-icon-ic-twotone-album" viewBox="0 0 24 24"><path fill="currentColor" d="M12 4c-4.41 0-8 3.59-8 8s3.59 8 8 8s8-3.59 8-8s-3.59-8-8-8m0 12.5c-2.49 0-4.5-2.01-4.5-4.5S9.51 7.5 12 7.5s4.5 2.01 4.5 4.5s-2.01 4.5-4.5 4.5" opacity=".3"/><path fill="currentColor" d="M12 2C6.48 2 2 6.48 2 12s4.48 10 10 10s10-4.48 10-10S17.52 2 12 2m0 18c-4.41 0-8-3.59-8-8s3.59-8 8-8s8 3.59 8 8s-3.59 8-8 8m0-12.5c-2.49 0-4.5 2.01-4.5 4.5s2.01 4.5 4.5 4.5s4.5-2.01 4.5-4.5s-2.01-4.5-4.5-4.5m0 5.5c-.55 0-1-.45-1-1s.45-1 1-1s1 .45 1 1s-.45 1-1 1"/></symbol><symbol id="hd-icon-ic-twotone-align-horizontal-center" viewBox="0 0 24 24"><path fill="currentColor" d="M11 2h2v5h8v3h-8v4h5v3h-5v5h-2v-5H6v-3h5v-4H3V7h8z"/></symbol><symbol id="hd-icon-ic-twotone-align-horizontal-left" viewBox="0 0 24 24"><path fill="currentColor" d="M4 22H2V2h2zM22 7H6v3h16zm-6 7H6v3h10z"/></symbol><symbol id="hd-icon-ic-twotone-align-horizontal-right" viewBox="0 0 24 24"><path fill="currentColor" d="M20 2h2v20h-2zM2 10h16V7H2zm6 7h10v-3H8z"/></symbol><symbol id="hd-icon-ic-twotone-align-vertical-bottom" viewBox="0 0 24 24"><path fill="currentColor" d="M22 22H2v-2h20zM10 2H7v16h3zm7 6h-3v10h3z"/></symbol><symbol id="hd-icon-ic-twotone-align-vertical-center" viewBox="0 0 24 24"><path fill="currentColor" d="M22 11h-5V6h-3v5h-4V3H7v8H1.84v2H7v8h3v-8h4v5h3v-5h5z"/></symbol><symbol id="hd-icon-ic-twotone-align-vertical-top" viewBox="0 0 24 24"><path fill="currentColor" d="M22 2v2H2V2zM7 22h3V6H7zm7-6h3V6h-3z"/></symbol><symbol id="hd-icon-ic-twotone-all-inbox" viewBox="0 0 24 24"><path fill="currentColor" d="M19 3H5c-1.1 0-2 .9-2 2v7c0 1.1.9 2 2 2h14c1.1 0 2-.9 2-2V5c0-1.1-.9-2-2-2M5 10h3.13c.21.78.67 1.47 1.27 2H5zm14 2h-4.4c.6-.53 1.06-1.22 1.27-2H19zm0-4h-5v1c0 1.07-.93 2-2 2s-2-.93-2-2V8H5V5h14zm-5 7v1c0 .47-.19.9-.48 1.25c-.37.45-.92.75-1.52.75s-1.15-.3-1.52-.75c-.29-.35-.48-.78-.48-1.25v-1H3v4c0 1.1.9 2 2 2h14c1.1 0 2-.9 2-2v-4zm-9 2h3.13c.02.09.06.17.09.25c.24.68.65 1.28 1.18 1.75H5zm14 2h-4.4c.54-.47.95-1.07 1.18-1.75c.03-.08.07-.16.09-.25H19z"/><path fill="currentColor" d="M8.13 10H5v2h4.4c-.6-.53-1.06-1.22-1.27-2m6.47 2H19v-2h-3.13c-.21.78-.67 1.47-1.27 2m-6.38 5.25c-.03-.08-.06-.16-.09-.25H5v2h4.4c-.53-.47-.94-1.07-1.18-1.75m7.65-.25c-.02.09-.06.17-.09.25c-.23.68-.64 1.28-1.18 1.75H19v-2z" opacity=".3"/></symbol><symbol id="hd-icon-ic-twotone-all-inclusive" viewBox="0 0 24 24"><path fill="currentColor" d="M18.6 6.62c-1.44 0-2.8.56-3.77 1.53L7.8 14.39c-.64.64-1.49.99-2.4.99c-1.87 0-3.39-1.51-3.39-3.38S3.53 8.62 5.4 8.62c.91 0 1.76.35 2.44 1.03l1.13 1l1.51-1.34L9.22 8.2A5.37 5.37 0 0 0 5.4 6.62C2.42 6.62 0 9.04 0 12s2.42 5.38 5.4 5.38c1.44 0 2.8-.56 3.77-1.53l7.03-6.24c.64-.64 1.49-.99 2.4-.99c1.87 0 3.39 1.51 3.39 3.38s-1.52 3.38-3.39 3.38c-.9 0-1.76-.35-2.44-1.03l-1.14-1.01l-1.51 1.34l1.27 1.12a5.4 5.4 0 0 0 3.82 1.57c2.98 0 5.4-2.41 5.4-5.38s-2.42-5.37-5.4-5.37"/></symbol><symbol id="hd-icon-ic-twotone-all-out" viewBox="0 0 24 24"><circle cx="12" cy="12" r="5" fill="currentColor" opacity=".3"/><path fill="currentColor" d="M4 4v4l4-4zm12 0l4 4V4zm4 16v-4l-4 4zM4 20h4l-4-4zm15-8c0-3.87-3.13-7-7-7s-7 3.13-7 7s3.13 7 7 7s7-3.13 7-7m-7 5c-2.76 0-5-2.24-5-5s2.24-5 5-5s5 2.24 5 5s-2.24 5-5 5"/></symbol><symbol id="hd-icon-ic-twotone-alt-route" viewBox="0 0 24 24"><path fill="currentColor" d="m9.78 11.16l-1.42 1.42a7.3 7.3 0 0 1-1.79-2.94l1.94-.49c.32.89.77 1.5 1.27 2.01M11 6L7 2L3 6h3.02c.02.81.08 1.54.19 2.17l1.94-.49C8.08 7.2 8.03 6.63 8.02 6zm10 0l-4-4l-4 4h2.99c-.1 3.68-1.28 4.75-2.54 5.88c-.5.44-1.01.92-1.45 1.55c-.34-.49-.73-.88-1.13-1.24L9.46 13.6c.93.85 1.54 1.54 1.54 3.4v5h2v-5c0-2.02.71-2.66 1.79-3.63c1.38-1.24 3.08-2.78 3.2-7.37z"/></symbol><symbol id="hd-icon-ic-twotone-alternate-email" viewBox="0 0 24 24"><path fill="currentColor" d="M12 21.95h5v-2h-5c-4.34 0-8-3.66-8-8s3.66-8 8-8s8 3.66 8 8v1.43c0 .79-.71 1.57-1.5 1.57s-1.5-.78-1.5-1.57v-1.43c0-2.76-2.24-5-5-5s-5 2.24-5 5s2.24 5 5 5c1.38 0 2.64-.56 3.54-1.47c.65.89 1.77 1.47 2.96 1.47c1.97 0 3.5-1.6 3.5-3.57v-1.43c0-5.52-4.48-10-10-10s-10 4.48-10 10s4.48 10 10 10m0-7c-1.66 0-3-1.34-3-3s1.34-3 3-3s3 1.34 3 3s-1.34 3-3 3"/></symbol><symbol id="hd-icon-ic-twotone-amp-stories" viewBox="0 0 24 24"><path fill="currentColor" d="M9 6h6v11H9z" opacity=".3"/><path fill="currentColor" d="M7 19h10V4H7zM9 6h6v11H9zM3 6h2v11H3zm16 0h2v11h-2z"/></symbol><symbol id="hd-icon-ic-twotone-analytics" viewBox="0 0 24 24"><path fill="currentColor" d="M5 5h14v14H5z" opacity=".3"/><path fill="currentColor" d="M19 3H5c-1.1 0-2 .9-2 2v14c0 1.1.9 2 2 2h14c1.1 0 2-.9 2-2V5c0-1.1-.9-2-2-2m0 16H5V5h14z"/><path fill="currentColor" d="M7 12h2v5H7zm8-5h2v10h-2zm-4 7h2v3h-2zm0-4h2v2h-2z"/></symbol><symbol id="hd-icon-ic-twotone-anchor" viewBox="0 0 24 24"><path fill="currentColor" d="m17 15l1.55 1.55c-.96 1.69-3.33 3.04-5.55 3.37V11h3V9h-3V7.82C14.16 7.4 15 6.3 15 5c0-1.65-1.35-3-3-3S9 3.35 9 5c0 1.3.84 2.4 2 2.82V9H8v2h3v8.92c-2.22-.33-4.59-1.68-5.55-3.37L7 15l-4-3v3c0 3.88 4.92 7 9 7s9-3.12 9-7v-3zM12 4c.55 0 1 .45 1 1s-.45 1-1 1s-1-.45-1-1s.45-1 1-1"/></symbol><symbol id="hd-icon-ic-twotone-android" viewBox="0 0 24 24"><path fill="currentColor" d="m17.6 9.48l1.84-3.18c.16-.31.04-.69-.26-.85a.637.637 0 0 0-.83.22l-1.88 3.24a11.46 11.46 0 0 0-8.94 0L5.65 5.67a.643.643 0 0 0-.87-.2c-.28.18-.37.54-.22.83L6.4 9.48A10.78 10.78 0 0 0 1 18h22a10.78 10.78 0 0 0-5.4-8.52M7 15.25a1.25 1.25 0 1 1 0-2.5a1.25 1.25 0 0 1 0 2.5m10 0a1.25 1.25 0 1 1 0-2.5a1.25 1.25 0 0 1 0 2.5"/></symbol><symbol id="hd-icon-ic-twotone-animation" viewBox="0 0 24 24"><path fill="currentColor" d="M5 12a5.002 5.002 0 0 0 7 7c-3.87 0-7-3.13-7-7m10-8c-1.13 0-2.16.37-3 1c3.87.01 7 3.14 7 7a5.002 5.002 0 0 0-4-8" opacity=".3"/><path fill="currentColor" d="M12 7c-.6 0-1.17.11-1.7.3c-.19.53-.3 1.1-.3 1.7c0 2.76 2.24 5 5 5c.6 0 1.17-.11 1.7-.3c.19-.53.3-1.1.3-1.7c0-2.76-2.24-5-5-5" opacity=".3"/><path fill="currentColor" d="M8 9a5.002 5.002 0 0 0 7 7c-3.87-.01-7-3.14-7-7" opacity=".3"/><path fill="currentColor" d="M15 2c-2.71 0-5.05 1.54-6.22 3.78a7.06 7.06 0 0 0-3 3A7.01 7.01 0 0 0 2 15c0 3.87 3.13 7 7 7c2.71 0 5.05-1.54 6.22-3.78a7.06 7.06 0 0 0 3-3A7.01 7.01 0 0 0 22 9c0-3.87-3.13-7-7-7M9 20a5.002 5.002 0 0 1-4-8c0 3.87 3.13 7 7 7c-.84.63-1.88 1-3 1m3-3a5.002 5.002 0 0 1-4-8c0 3.86 3.13 6.99 7 7c-.84.63-1.88 1-3 1m4.7-3.3c-.53.19-1.1.3-1.7.3c-2.76 0-5-2.24-5-5c0-.6.11-1.17.3-1.7c.53-.19 1.1-.3 1.7-.3c2.76 0 5 2.24 5 5c0 .6-.11 1.17-.3 1.7M19 12c0-3.86-3.13-6.99-7-7a5.002 5.002 0 0 1 7 7"/></symbol><symbol id="hd-icon-ic-twotone-announcement" viewBox="0 0 24 24"><path fill="currentColor" d="M4 4v13.17l.59-.59l.58-.58H20V4zm9 11h-2v-2h2zm0-4h-2V5h2z" opacity=".3"/><path fill="currentColor" d="M20 2H4c-1.1 0-2 .9-2 2v18l4-4h14c1.1 0 2-.9 2-2V4c0-1.1-.9-2-2-2m0 14H5.17l-.59.59l-.58.58V4h16zM11 5h2v6h-2zm0 8h2v2h-2z"/></symbol><symbol id="hd-icon-ic-twotone-aod" viewBox="0 0 24 24"><path fill="currentColor" d="M17 1.01L7 1c-1.1 0-2 .9-2 2v18c0 1.1.9 2 2 2h10c1.1 0 2-.9 2-2V3c0-1.1-.9-1.99-2-1.99M17 21H7v-1h10zm0-3H7V6h10zm0-14H7V3h10zm-9 6h8v1.5H8zm1 3h6v1.5H9z"/><path fill="currentColor" d="M7 21h10v-1H7zM7 3v1h10V3z" opacity=".3"/></symbol><symbol id="hd-icon-ic-twotone-apartment" viewBox="0 0 24 24"><path fill="currentColor" d="M17 11V3H7v4H3v14h8v-4h2v4h8V11zM7 19H5v-2h2zm0-4H5v-2h2zm0-4H5V9h2zm4 4H9v-2h2zm0-4H9V9h2zm0-4H9V5h2zm4 8h-2v-2h2zm0-4h-2V9h2zm0-4h-2V5h2zm4 12h-2v-2h2zm0-4h-2v-2h2z"/></symbol><symbol id="hd-icon-ic-twotone-api" viewBox="0 0 24 24"><path fill="currentColor" d="m14 12l-2 2l-2-2l2-2zm-2-6l2.12 2.12l2.5-2.5L12 1L7.38 5.62l2.5 2.5zm-6 6l2.12-2.12l-2.5-2.5L1 12l4.62 4.62l2.5-2.5zm12 0l-2.12 2.12l2.5 2.5L23 12l-4.62-4.62l-2.5 2.5zm-6 6l-2.12-2.12l-2.5 2.5L12 23l4.62-4.62l-2.5-2.5z"/></symbol><symbol id="hd-icon-ic-twotone-app-blocking" viewBox="0 0 24 24"><path fill="currentColor" d="M18 8c-2.21 0-4 1.79-4 4s1.79 4 4 4s4-1.79 4-4s-1.79-4-4-4m-2.5 4A2.5 2.5 0 0 1 18 9.5c.42 0 .8.11 1.15.29l-3.36 3.36c-.18-.35-.29-.73-.29-1.15m2.5 2.5c-.42 0-.8-.11-1.15-.29l3.36-3.36c.18.35.29.73.29 1.15a2.5 2.5 0 0 1-2.5 2.5"/><path fill="currentColor" d="M17 18H7V6h10v1h2V3c0-1.1-.9-2-2-2H7c-1.1 0-2 .9-2 2v18c0 1.1.9 2 2 2h10c1.1 0 2-.9 2-2v-4h-2zM7 3h10v1H7zm10 18H7v-1h10z"/><path fill="currentColor" d="M7 3h10v1H7zm0 17h10v1H7z" opacity=".3"/></symbol><symbol id="hd-icon-ic-twotone-app-registration" viewBox="0 0 24 24"><path fill="currentColor" d="M10 4h4v4h-4zM4 16h4v4H4zm0-6h4v4H4zm0-6h4v4H4zm12 0h4v4h-4zm-5 13.86V20h2.1l5.98-5.97l-2.12-2.12zm3-5.83V10h-4v4h2.03zm6.85-.47l-1.41-1.41c-.2-.2-.51-.2-.71 0l-1.06 1.06l2.12 2.12l1.06-1.06c.2-.2.2-.51 0-.71"/></symbol><symbol id="hd-icon-ic-twotone-app-settings-alt" viewBox="0 0 24 24"><path fill="currentColor" d="m21.81 12.74l-.82-.63v-.22l.8-.63c.16-.12.2-.34.1-.51l-.85-1.48a.4.4 0 0 0-.35-.2q-.075 0-.15.03l-.95.38c-.08-.05-.11-.07-.19-.11l-.15-1.01a.41.41 0 0 0-.4-.36h-1.71c-.2 0-.37.15-.4.34l-.14 1.01c-.03.02-.07.03-.1.05l-.09.06l-.95-.38a.4.4 0 0 0-.5.17l-.85 1.48c-.1.17-.06.39.1.51l.8.63v.23l-.8.63a.39.39 0 0 0-.1.51l.85 1.48c.07.13.21.2.35.2q.075 0 .15-.03l.95-.37c.08.05.12.07.2.11l.15 1.01c.03.2.2.34.4.34h1.71c.2 0 .37-.15.4-.34l.15-1.01c.03-.02.07-.03.1-.05l.09-.06l.95.38a.4.4 0 0 0 .5-.17l.85-1.48a.39.39 0 0 0-.1-.51M18 13.5c-.83 0-1.5-.67-1.5-1.5s.67-1.5 1.5-1.5s1.5.67 1.5 1.5s-.67 1.5-1.5 1.5M17 18H7V6h10v1h2V3c0-1.1-.9-2-2-2H7c-1.1 0-2 .9-2 2v18c0 1.1.9 2 2 2h10c1.1 0 2-.9 2-2v-4h-2zM7 3h10v1H7zm10 18H7v-1h10z"/><path fill="currentColor" d="M7 3h10v1H7zm0 17h10v1H7z" opacity=".3"/></symbol><symbol id="hd-icon-ic-twotone-app-shortcut" viewBox="0 0 24 24"><path fill="currentColor" d="M7 20h10v1H7zM7 3h10v1H7z" opacity=".3"/><path fill="currentColor" d="M17 18H7V6h10v1h2V3c0-1.1-.9-2-2-2H7c-1.1 0-2 .9-2 2v18c0 1.1.9 2 2 2h10c1.1 0 2-.9 2-2v-4h-2zM7 3h10v1H7zm10 18H7v-1h10zm3.38-11.38L21 11l.62-1.38L23 9l-1.38-.62L21 7l-.62 1.38L19 9z"/><path fill="currentColor" d="m16 8l-1.25 2.75L12 12l2.75 1.25L16 16l1.25-2.75L20 12l-2.75-1.25zm5 5l-.62 1.38L19 15l1.38.62L21 17l.62-1.38L23 15l-1.38-.62z"/></symbol><symbol id="hd-icon-ic-twotone-apple" viewBox="0 0 24 24"><path fill="currentColor" d="M17.05 20.28c-.98.95-2.05.8-3.08.35c-1.09-.46-2.09-.48-3.24 0c-1.44.62-2.2.44-3.06-.35C2.79 15.25 3.51 7.59 9.05 7.31c1.35.07 2.29.74 3.08.8c1.18-.24 2.31-.93 3.57-.84c1.51.12 2.65.72 3.4 1.8c-3.12 1.87-2.38 5.98.48 7.13c-.57 1.5-1.31 2.99-2.54 4.09zM12.03 7.25c-.15-2.23 1.66-4.07 3.74-4.25c.29 2.58-2.34 4.5-3.74 4.25"/></symbol><symbol id="hd-icon-ic-twotone-approval" viewBox="0 0 24 24"><path fill="currentColor" d="M6 16h12v2H6zm6-12c-1.66 0-3 1.34-3 3l3 4l3-4c0-1.66-1.34-3-3-3" opacity=".3"/><path fill="currentColor" d="M12 2C9.24 2 7 4.24 7 7l5 7l5-7c0-2.76-2.24-5-5-5m0 9L9 7c0-1.66 1.34-3 3-3s3 1.34 3 3zm6 3H6c-1.1 0-2 .9-2 2v6h16v-6c0-1.1-.9-2-2-2m0 4H6v-2h12z"/></symbol><symbol id="hd-icon-ic-twotone-apps" viewBox="0 0 24 24"><path fill="currentColor" d="M4 8h4V4H4zm6 12h4v-4h-4zm-6 0h4v-4H4zm0-6h4v-4H4zm6 0h4v-4h-4zm6-10v4h4V4zm-6 4h4V4h-4zm6 6h4v-4h-4zm0 6h4v-4h-4z"/></symbol><symbol id="hd-icon-ic-twotone-apps-outage" viewBox="0 0 24 24"><path fill="currentColor" d="M4 8h4V4H4zm6 12h4v-4h-4zm-6 0h4v-4H4zm0-6h4v-4H4zm6 0h4v-4h-4zm6 6h4v-4h-4zm3-20c-2.76 0-5 2.24-5 5s2.24 5 5 5s5-2.24 5-5s-2.24-5-5-5m.5 8h-1V7h1zm0-2h-1V2h1zM16 14h4v-2.07c-.33.05-.66.07-1 .07c-1.07 0-2.09-.24-3-.68zM10 4v4h2.68c-.44-.91-.68-1.93-.68-3c0-.34.02-.67.07-1z"/></symbol><symbol id="hd-icon-ic-twotone-architecture" viewBox="0 0 24 24"><path fill="currentColor" d="M6.36 18.78L6.61 21l1.62-1.54l2.77-7.6c-.68-.17-1.28-.51-1.77-.98zm8.41-7.9c-.49.47-1.1.81-1.77.98l2.77 7.6L17.39 21l.26-2.22zM15 8c0-1.3-.84-2.4-2-2.82V3h-2v2.18C9.84 5.6 9 6.7 9 8c0 1.66 1.34 3 3 3s3-1.34 3-3m-3 1c-.55 0-1-.45-1-1s.45-1 1-1s1 .45 1 1s-.45 1-1 1"/></symbol><symbol id="hd-icon-ic-twotone-archive" viewBox="0 0 24 24"><path fill="currentColor" d="M5 19h14V8H5zm5.55-6v-3h2.91v3H16l-4 4l-4-4z" opacity=".3"/><path fill="currentColor" d="M16 13h-2.55v-3h-2.9v3H8l4 4zm4.54-7.77l-1.39-1.68C18.88 3.21 18.47 3 18 3H6c-.47 0-.88.21-1.16.55L3.46 5.23C3.17 5.57 3 6.02 3 6.5V19c0 1.1.9 2 2 2h14c1.1 0 2-.9 2-2V6.5c0-.48-.17-.93-.46-1.27M6.24 5h11.52l.81.97H5.44zM19 19H5V8h14z"/></symbol><symbol id="hd-icon-ic-twotone-area-chart" viewBox="0 0 24 24"><path fill="currentColor" d="m19 16.95l-7-5.45L8 17l-3-2.4V11l2.44 1.83l4.96-6.95L16.3 9H19z" opacity=".3"/><path fill="currentColor" d="m17 7l-5-4l-5 7l-4-3v13h18V7zm2 9.95l-7-5.45L8 17l-3-2.4V11l2.44 1.83l4.96-6.95L16.3 9H19z"/></symbol><symbol id="hd-icon-ic-twotone-arrow-back" viewBox="0 0 24 24"><path fill="currentColor" d="M20 11H7.83l5.59-5.59L12 4l-8 8l8 8l1.41-1.41L7.83 13H20z"/></symbol><symbol id="hd-icon-ic-twotone-arrow-back-ios" viewBox="0 0 24 24"><path fill="currentColor" d="M17.51 3.87L15.73 2.1L5.84 12l9.9 9.9l1.77-1.77L9.38 12z"/></symbol><symbol id="hd-icon-ic-twotone-arrow-back-ios-new" viewBox="0 0 24 24"><path fill="currentColor" d="M17.77 3.77L16 2L6 12l10 10l1.77-1.77L9.54 12z"/></symbol><symbol id="hd-icon-ic-twotone-arrow-circle-down" viewBox="0 0 24 24"><path fill="currentColor" d="M12 4c-4.41 0-8 3.59-8 8s3.59 8 8 8s8-3.59 8-8s-3.59-8-8-8m0 12l-4-4h3V8h2v4h3z" opacity=".3"/><path fill="currentColor" d="M12 4c4.41 0 8 3.59 8 8s-3.59 8-8 8s-8-3.59-8-8s3.59-8 8-8m0-2C6.48 2 2 6.48 2 12s4.48 10 10 10s10-4.48 10-10S17.52 2 12 2m1 10V8h-2v4H8l4 4l4-4z"/></symbol><symbol id="hd-icon-ic-twotone-arrow-circle-left" viewBox="0 0 24 24"><path fill="currentColor" d="M20 12c0 4.41-3.59 8-8 8s-8-3.59-8-8s3.59-8 8-8s8 3.59 8 8m-8 1h4v-2h-4V8l-4 4l4 4z" opacity=".3"/><path fill="currentColor" d="M20 12c0 4.41-3.59 8-8 8s-8-3.59-8-8s3.59-8 8-8s8 3.59 8 8m2 0c0-5.52-4.48-10-10-10S2 6.48 2 12s4.48 10 10 10s10-4.48 10-10m-10 1h4v-2h-4V8l-4 4l4 4z"/></symbol><symbol id="hd-icon-ic-twotone-arrow-circle-right" viewBox="0 0 24 24"><path fill="currentColor" d="M4 12c0-4.41 3.59-8 8-8s8 3.59 8 8s-3.59 8-8 8s-8-3.59-8-8m8-1H8v2h4v3l4-4l-4-4z" opacity=".3"/><path fill="currentColor" d="M4 12c0-4.41 3.59-8 8-8s8 3.59 8 8s-3.59 8-8 8s-8-3.59-8-8m-2 0c0 5.52 4.48 10 10 10s10-4.48 10-10S17.52 2 12 2S2 6.48 2 12m10-1H8v2h4v3l4-4l-4-4z"/></symbol><symbol id="hd-icon-ic-twotone-arrow-circle-up" viewBox="0 0 24 24"><path fill="currentColor" d="M12 20c-4.41 0-8-3.59-8-8s3.59-8 8-8s8 3.59 8 8s-3.59 8-8 8m-1-8v4h2v-4h3l-4-4l-4 4z" opacity=".3"/><path fill="currentColor" d="M12 20c-4.41 0-8-3.59-8-8s3.59-8 8-8s8 3.59 8 8s-3.59 8-8 8m0 2c5.52 0 10-4.48 10-10S17.52 2 12 2S2 6.48 2 12s4.48 10 10 10m-1-10v4h2v-4h3l-4-4l-4 4z"/></symbol><symbol id="hd-icon-ic-twotone-arrow-downward" viewBox="0 0 24 24"><path fill="currentColor" d="m20 12l-1.41-1.41L13 16.17V4h-2v12.17l-5.58-5.59L4 12l8 8z"/></symbol><symbol id="hd-icon-ic-twotone-arrow-drop-down" viewBox="0 0 24 24"><path fill="currentColor" d="m7 10l5 5l5-5z"/></symbol><symbol id="hd-icon-ic-twotone-arrow-drop-down-circle" viewBox="0 0 24 24"><path fill="currentColor" d="M12 4c-4.41 0-8 3.59-8 8s3.59 8 8 8s8-3.59 8-8s-3.59-8-8-8m0 11l-4-4h8z" opacity=".3"/><path fill="currentColor" d="M12 2C6.48 2 2 6.48 2 12s4.48 10 10 10s10-4.48 10-10S17.52 2 12 2m0 18c-4.41 0-8-3.59-8-8s3.59-8 8-8s8 3.59 8 8s-3.59 8-8 8m0-5l4-4H8z"/></symbol><symbol id="hd-icon-ic-twotone-arrow-drop-up" viewBox="0 0 24 24"><path fill="currentColor" d="m7 14l5-5l5 5z"/></symbol><symbol id="hd-icon-ic-twotone-arrow-forward" viewBox="0 0 24 24"><path fill="currentColor" d="m12 4l-1.41 1.41L16.17 11H4v2h12.17l-5.58 5.59L12 20l8-8z"/></symbol><symbol id="hd-icon-ic-twotone-arrow-forward-ios" viewBox="0 0 24 24"><path fill="currentColor" d="M6.23 20.23L8 22l10-10L8 2L6.23 3.77L14.46 12z"/></symbol><symbol id="hd-icon-ic-twotone-arrow-left" viewBox="0 0 24 24"><path fill="currentColor" d="m14 7l-5 5l5 5z"/></symbol><symbol id="hd-icon-ic-twotone-arrow-outward" viewBox="0 0 24 24"><path fill="currentColor" d="M6 6v2h8.59L5 17.59L6.41 19L16 9.41V18h2V6z"/></symbol><symbol id="hd-icon-ic-twotone-arrow-right" viewBox="0 0 24 24"><path fill="currentColor" d="m10 17l5-5l-5-5z"/></symbol><symbol id="hd-icon-ic-twotone-arrow-right-alt" viewBox="0 0 24 24"><path fill="currentColor" d="M16.01 11H4v2h12.01v3L20 12l-3.99-4z"/></symbol><symbol id="hd-icon-ic-twotone-arrow-upward" viewBox="0 0 24 24"><path fill="currentColor" d="m4 12l1.41 1.41L11 7.83V20h2V7.83l5.58 5.59L20 12l-8-8z"/></symbol><symbol id="hd-icon-ic-twotone-art-track" viewBox="0 0 24 24"><path fill="currentColor" d="M14 7h8v2h-8zm0 4h8v2h-8zm0 4h8v2h-8zM4 17h6c1.1 0 2-.9 2-2V9c0-1.1-.9-2-2-2H4c-1.1 0-2 .9-2 2v6c0 1.1.9 2 2 2m1.25-4.25l1.25 1.51L8.25 12l2.25 3h-7z"/></symbol><symbol id="hd-icon-ic-twotone-article" viewBox="0 0 24 24"><path fill="currentColor" d="M5 5v14h14V5zm9 12H7v-2h7zm3-4H7v-2h10zm0-4H7V7h10z" opacity=".3"/><path fill="currentColor" d="M19 3H5c-1.1 0-2 .9-2 2v14c0 1.1.9 2 2 2h14c1.1 0 2-.9 2-2V5c0-1.1-.9-2-2-2m0 16H5V5h14zm-2-6H7v-2h10zm0-4H7V7h10zm-3 8H7v-2h7z"/></symbol><symbol id="hd-icon-ic-twotone-aspect-ratio" viewBox="0 0 24 24"><path fill="currentColor" d="M3 19.01h18V4.99H3zM14 15h3v-3h2v5h-5zM5 7h5v2H7v3H5z" opacity=".3"/><path fill="currentColor" d="M21 3H3c-1.1 0-2 .9-2 2v14c0 1.1.9 2 2 2h18c1.1 0 2-.9 2-2V5c0-1.1-.9-2-2-2m0 16.01H3V4.99h18zM7 9h3V7H5v5h2zm12 3h-2v3h-3v2h5z"/></symbol><symbol id="hd-icon-ic-twotone-assessment" viewBox="0 0 24 24"><path fill="currentColor" d="M5 5v14h14V5zm4 12H7v-7h2zm4 0h-2V7h2zm4 0h-2v-4h2z" opacity=".3"/><path fill="currentColor" d="M19 3H5c-1.1 0-2 .9-2 2v14c0 1.1.9 2 2 2h14c1.1 0 2-.9 2-2V5c0-1.1-.9-2-2-2m0 16H5V5h14zM7 10h2v7H7zm4-3h2v10h-2zm4 6h2v4h-2z"/></symbol><symbol id="hd-icon-ic-twotone-assignment" viewBox="0 0 24 24"><path fill="currentColor" d="M5 5v14h14V5zm9 12H7v-2h7zm3-4H7v-2h10zm0-4H7V7h10z" opacity=".3"/><path fill="currentColor" d="M7 15h7v2H7zm0-4h10v2H7zm0-4h10v2H7zm12-4h-4.18C14.4 1.84 13.3 1 12 1s-2.4.84-2.82 2H5c-.14 0-.27.01-.4.04a2.01 2.01 0 0 0-1.44 1.19c-.1.24-.16.49-.16.77v14c0 .27.06.54.16.78s.25.45.43.64c.27.27.62.47 1.01.55c.13.02.26.03.4.03h14c1.1 0 2-.9 2-2V5c0-1.1-.9-2-2-2m-7-.25c.41 0 .75.34.75.75s-.34.75-.75.75s-.75-.34-.75-.75s.34-.75.75-.75M19 19H5V5h14z"/></symbol><symbol id="hd-icon-ic-twotone-assignment-ind" viewBox="0 0 24 24"><path fill="currentColor" d="M19 5H5v14h14zm-7 1c1.65 0 3 1.35 3 3s-1.35 3-3 3s-3-1.35-3-3s1.35-3 3-3m6 12H6v-1.53c0-2.5 3.97-3.58 6-3.58s6 1.08 6 3.58z" opacity=".3"/><path fill="currentColor" d="M20.66 3.88c-.14-.21-.33-.4-.54-.54c-.11-.07-.22-.13-.34-.18c-.24-.1-.5-.16-.78-.16h-4.18C14.4 1.84 13.3 1 12 1s-2.4.84-2.82 2H5c-1.1 0-2 .9-2 2v14c0 1.1.9 2 2 2h14c.28 0 .54-.06.78-.16c.12-.05.23-.11.34-.18c.21-.14.4-.33.54-.54c.21-.32.34-.71.34-1.12V5c0-.41-.13-.8-.34-1.12M12 2.75c.22 0 .41.1.55.25c.12.13.2.31.2.5c0 .41-.34.75-.75.75s-.75-.34-.75-.75c0-.19.08-.37.2-.5c.14-.15.33-.25.55-.25M19 19H5V5h14zm-7-7c1.65 0 3-1.35 3-3s-1.35-3-3-3s-3 1.35-3 3s1.35 3 3 3m0-2c-.55 0-1-.45-1-1s.45-1 1-1s1 .45 1 1s-.45 1-1 1m0 2.88c-2.03 0-6 1.08-6 3.58V18h12v-1.53c0-2.51-3.97-3.59-6-3.59M8.31 16c.69-.56 2.38-1.12 3.69-1.12s3.01.56 3.69 1.12z"/></symbol><symbol id="hd-icon-ic-twotone-assignment-late" viewBox="0 0 24 24"><path fill="currentColor" d="M5 5v14h14V5zm8 12h-2v-2h2zm0-4h-2V7h2z" opacity=".3"/><path fill="currentColor" d="M11 15h2v2h-2zm0-8h2v6h-2zm8-4h-4.18C14.4 1.84 13.3 1 12 1s-2.4.84-2.82 2H5c-.14 0-.27.01-.4.04a2.01 2.01 0 0 0-1.44 1.19c-.1.24-.16.49-.16.77v14c0 .27.06.54.16.78s.25.45.43.64c.27.27.62.47 1.01.55c.13.02.26.03.4.03h14c1.1 0 2-.9 2-2V5c0-1.1-.9-2-2-2m-7-.25c.41 0 .75.34.75.75s-.34.75-.75.75s-.75-.34-.75-.75s.34-.75.75-.75M19 19H5V5h14z"/></symbol><symbol id="hd-icon-ic-twotone-assignment-return" viewBox="0 0 24 24"><path fill="currentColor" d="M5 5v14h14V5zm11 9h-4v3l-5-5l5-5v3h4z" opacity=".3"/><path fill="currentColor" d="m12 7l-5 5l5 5v-3h4v-4h-4zm7-4h-4.18C14.4 1.84 13.3 1 12 1s-2.4.84-2.82 2H5c-.14 0-.27.01-.4.04a2.01 2.01 0 0 0-1.44 1.19c-.1.24-.16.49-.16.77v14c0 .27.06.54.16.78s.25.45.43.64c.27.27.62.47 1.01.55c.13.02.26.03.4.03h14c1.1 0 2-.9 2-2V5c0-1.1-.9-2-2-2m-7-.25c.41 0 .75.34.75.75s-.34.75-.75.75s-.75-.34-.75-.75s.34-.75.75-.75M19 19H5V5h14z"/></symbol><symbol id="hd-icon-ic-twotone-assignment-returned" viewBox="0 0 24 24"><path fill="currentColor" d="M5 19h14V5H5zm5-7V8h4v4h3l-5 5l-5-5z" opacity=".3"/><path fill="currentColor" d="M17 12h-3V8h-4v4H7l5 5zm2-9h-4.18C14.4 1.84 13.3 1 12 1s-2.4.84-2.82 2H5c-.14 0-.27.01-.4.04a2.01 2.01 0 0 0-1.44 1.19c-.1.24-.16.49-.16.77v14c0 .27.06.54.16.78s.25.45.43.64c.27.27.62.47 1.01.55c.13.02.26.03.4.03h14c1.1 0 2-.9 2-2V5c0-1.1-.9-2-2-2m-7-.25c.41 0 .75.34.75.75s-.34.75-.75.75s-.75-.34-.75-.75s.34-.75.75-.75M19 19H5V5h14z"/></symbol><symbol id="hd-icon-ic-twotone-assignment-turned-in" viewBox="0 0 24 24"><path fill="currentColor" d="M5 19h14V5H5zm2.41-7.41L10 14.17l6.59-6.59L18 9l-8 8l-4-4z" opacity=".3"/><path fill="currentColor" d="m18 9l-1.41-1.42L10 14.17l-2.59-2.58L6 13l4 4zm1-6h-4.18C14.4 1.84 13.3 1 12 1s-2.4.84-2.82 2H5c-.14 0-.27.01-.4.04a2.01 2.01 0 0 0-1.44 1.19c-.1.24-.16.49-.16.77v14c0 .27.06.54.16.78s.25.45.43.64c.27.27.62.47 1.01.55c.13.02.26.03.4.03h14c1.1 0 2-.9 2-2V5c0-1.1-.9-2-2-2m-7-.25c.41 0 .75.34.75.75s-.34.75-.75.75s-.75-.34-.75-.75s.34-.75.75-.75M19 19H5V5h14z"/></symbol><symbol id="hd-icon-ic-twotone-assist-walker" viewBox="0 0 24 24"><circle cx="12.5" cy="4.5" r="2" fill="currentColor"/><path fill="currentColor" d="m19.77 17.72l-.64-6.37A1.49 1.49 0 0 0 17.64 10H16c-1.5-.02-2.86-.54-3.76-1.44l-2-1.98A1.95 1.95 0 0 0 8.83 6c-.51 0-1.02.2-1.41.59L4.08 9.91c-.53.68-.51 1.57-.21 2.13l1.43 2.8l-3.15 4.05l1.57 1.24L7.4 15.4l-.17-1.36l.77.71V20h2v-6.12l-2.12-2.12l2.36-2.36c.94.94 1.72 1.82 3.59 2.32L13 20h1.5l.41-3.5h3.18l.14 1.22c-.44.26-.73.74-.73 1.28c0 .83.67 1.5 1.5 1.5s1.5-.67 1.5-1.5c0-.54-.29-1.02-.73-1.28M15.09 15l.41-3.5h2l.41 3.5z"/></symbol><symbol id="hd-icon-ic-twotone-assistant" viewBox="0 0 24 24"><path fill="currentColor" d="m9.83 18l.59.59L12 20.17l1.59-1.59l.58-.58H19V4H5v14zm.29-8.88L12 5l1.88 4.12L18 11l-4.12 1.88L12 17l-1.88-4.12L6 11z" opacity=".3"/><path fill="currentColor" d="M5 20h4l3 3l3-3h4c1.1 0 2-.9 2-2V4c0-1.1-.9-2-2-2H5c-1.1 0-2 .9-2 2v14c0 1.1.9 2 2 2M5 4h14v14h-4.83l-.59.59L12 20.17l-1.59-1.59l-.58-.58H5zm7 13l1.88-4.12L18 11l-4.12-1.88L12 5l-1.88 4.12L6 11l4.12 1.88z"/></symbol><symbol id="hd-icon-ic-twotone-assistant-direction" viewBox="0 0 24 24"><path fill="currentColor" d="M12 3c-4.99 0-9 4.01-9 9s4.01 9 9 9s9-4.01 9-9s-4.01-9-9-9m.54 16.8c-.35.27-.79.27-1.15 0L4.2 12.58a.93.93 0 0 1 0-1.16l7.19-7.22c.35-.27.79-.27 1.15 0l7.19 7.22c.36.27.36.8 0 1.16z" opacity=".3"/><path fill="currentColor" d="M12 1C5.9 1 1 5.9 1 12s4.9 11 11 11s11-4.9 11-11S18.1 1 12 1m0 20c-4.99 0-9-4.01-9-9s4.01-9 9-9s9 4.01 9 9s-4.01 9-9 9"/><path fill="currentColor" d="M19.73 11.42L12.54 4.2c-.36-.27-.8-.27-1.15 0L4.2 11.42c-.27.36-.27.8 0 1.16l7.19 7.22c.36.27.8.27 1.15 0l7.19-7.22c.36-.36.36-.89 0-1.16M13.5 14.5V12H10v3H8v-4c0-.6.4-1 1-1h4.5V7.5L17 11z"/></symbol><symbol id="hd-icon-ic-twotone-assistant-photo" viewBox="0 0 24 24"><path fill="currentColor" d="m14.24 12l.4 2H18V8h-5.24l-.4-2H7v6z" opacity=".3"/><path fill="currentColor" d="M7 14h5.6l.4 2h7V6h-5.6L14 4H5v17h2zm0-8h5.36l.4 2H18v6h-3.36l-.4-2H7z"/></symbol><symbol id="hd-icon-ic-twotone-assured-workload" viewBox="0 0 24 24"><path fill="currentColor" d="M6.47 6h11.06L12 3.24z" opacity=".3"/><path fill="currentColor" d="M5 10h2v7H5zm6 0h2v7h-2zm11-4L12 1L2 6v2h20zM6.47 6L12 3.24L17.53 6zM2 19v2h12.4c-.21-.64-.32-1.31-.36-2zm17-6.74V10h-2v3.26zM20 14l-4 2v2.55c0 2.52 1.71 4.88 4 5.45c2.29-.57 4-2.93 4-5.45V16zm-.72 7l-2.03-2.03l1.06-1.06l.97.97l2.41-2.38l1.06 1.06z"/></symbol><symbol id="hd-icon-ic-twotone-atm" viewBox="0 0 24 24"><path fill="currentColor" d="M3.5 13.5h2V15H7v-5c0-.55-.45-1-1-1H3c-.55 0-1 .45-1 1v5h1.5zm0-3h2V12h-2zm13.5 0h1V14h1.5v-3.51h1V15H22v-5c0-.55-.45-1-1-1h-4.5c-.55 0-1 .45-1 1v5H17zM10.25 15h1.5v-4.5H14V9H8v1.5h2.25z"/></symbol><symbol id="hd-icon-ic-twotone-attach-email" viewBox="0 0 24 24"><path fill="currentColor" d="m3 6l8 5l8-5v3h2V4c0-1.1-.9-2-2-2H3c-1.1 0-1.99.9-1.99 2L1 16c0 1.1.9 2 2 2h10v-2H3zm16-2l-8 5l-8-5z"/><path fill="currentColor" d="M21 14v4c0 1.1-.9 2-2 2s-2-.9-2-2v-4.5c0-.28.22-.5.5-.5s.5.22.5.5V18h2v-4.5a2.5 2.5 0 0 0-5 0V18c0 2.21 1.79 4 4 4s4-1.79 4-4v-4z"/></symbol><symbol id="hd-icon-ic-twotone-attach-file" viewBox="0 0 24 24"><path fill="currentColor" d="M12.5 23c3.04 0 5.5-2.46 5.5-5.5V6h-1.5v11.5c0 2.21-1.79 4-4 4s-4-1.79-4-4V5a2.5 2.5 0 0 1 5 0v10.5c0 .55-.45 1-1 1s-1-.45-1-1V6H10v9.5a2.5 2.5 0 0 0 5 0V5c0-2.21-1.79-4-4-4S7 2.79 7 5v12.5c0 3.04 2.46 5.5 5.5 5.5"/></symbol><symbol id="hd-icon-ic-twotone-attach-money" viewBox="0 0 24 24"><path fill="currentColor" d="M11.5 17.1c-2.06 0-2.87-.92-2.98-2.1h-2.2c.12 2.19 1.76 3.42 3.68 3.83V21h3v-2.15c1.95-.37 3.5-1.5 3.5-3.55c0-2.84-2.43-3.81-4.7-4.4s-3-1.2-3-2.15c0-1.09 1.01-1.85 2.7-1.85c1.78 0 2.44.85 2.5 2.1h2.21c-.07-1.72-1.12-3.3-3.21-3.81V3h-3v2.16c-1.94.42-3.5 1.68-3.5 3.61c0 2.31 1.91 3.46 4.7 4.13c2.5.6 3 1.48 3 2.41c0 .69-.49 1.79-2.7 1.79"/></symbol><symbol id="hd-icon-ic-twotone-attachment" viewBox="0 0 24 24"><path fill="currentColor" d="M18.5 16H7c-2.21 0-4-1.79-4-4s1.79-4 4-4h12.5a2.5 2.5 0 0 1 0 5H9c-.55 0-1-.45-1-1s.45-1 1-1h9.5V9.5H9a2.5 2.5 0 0 0 0 5h10.5c2.21 0 4-1.79 4-4s-1.79-4-4-4H7c-3.04 0-5.5 2.46-5.5 5.5s2.46 5.5 5.5 5.5h11.5z"/></symbol><symbol id="hd-icon-ic-twotone-attractions" viewBox="0 0 24 24"><circle cx="11.98" cy="12.02" r="1.5" fill="currentColor" opacity=".3"/><path fill="currentColor" d="M20.15 14.42c.23-.77.35-1.58.35-2.42s-.12-1.65-.35-2.42c.78-.6 1.02-1.7.51-2.58a1.994 1.994 0 0 0-2.49-.85a8.53 8.53 0 0 0-4.18-2.42C13.85 2.75 13.01 2 12 2s-1.85.75-1.98 1.73a8.56 8.56 0 0 0-4.19 2.42c-.91-.38-1.98-.03-2.49.85s-.27 1.98.51 2.58c-.23.77-.35 1.58-.35 2.42s.12 1.65.35 2.42c-.78.6-1.02 1.7-.51 2.58s1.58 1.23 2.49.85c.4.42.83.79 1.3 1.12L5.78 22h1.88l.98-2.19c.44.19.9.34 1.38.46c.13.98.97 1.73 1.98 1.73s1.85-.75 1.98-1.73c.46-.11.91-.26 1.34-.44L16.3 22h1.88l-1.34-3c.48-.34.93-.72 1.34-1.15c.91.38 1.99.03 2.49-.85s.26-1.98-.52-2.58m-6.59 4.33c-.37-.46-.93-.75-1.56-.75s-1.2.29-1.57.75c-.4-.09-.79-.21-1.16-.37l1.43-3.19a3.52 3.52 0 0 0 2.56.02l1.42 3.18c-.36.15-.73.27-1.12.36m-3.08-6.73c0-.83.67-1.5 1.5-1.5s1.5.67 1.5 1.5s-.67 1.5-1.5 1.5s-1.5-.67-1.5-1.5m8.23 1.99c-.61.07-1.18.41-1.52.99c-.32.56-.34 1.2-.12 1.75c-.28.29-.58.55-.9.79l-1.5-3.35c.49-.59.78-1.34.78-2.16c0-1.89-1.55-3.41-3.46-3.41s-3.46 1.53-3.46 3.41c0 .8.28 1.54.75 2.13l-1.52 3.39c-.31-.23-.6-.48-.87-.76c.26-.56.24-1.22-.09-1.79c-.34-.59-.93-.94-1.56-.99c-.22-.68-.33-1.4-.33-2.15c0-.64.09-1.26.25-1.85c.66-.03 1.3-.38 1.65-1c.37-.63.35-1.38.01-1.98c.92-.98 2.11-1.69 3.45-2.03c.34.59.99 1 1.73 1s1.39-.4 1.73-1c1.34.34 2.53 1.07 3.44 2.05c-.32.59-.33 1.33.03 1.95c.35.6.96.95 1.6 1c.16.59.25 1.21.25 1.86c0 .75-.12 1.47-.34 2.15"/></symbol><symbol id="hd-icon-ic-twotone-attribution" viewBox="0 0 24 24"><path fill="currentColor" d="M12 4c-4.42 0-8 3.58-8 8s3.58 8 8 8s8-3.58 8-8s-3.58-8-8-8m0 1c.83 0 1.5.67 1.5 1.5S12.83 8 12 8s-1.5-.67-1.5-1.5S11.17 5 12 5m2.75 9.5h-1.5V19h-2.5v-4.5h-1.5V9.88c0-.92 1.84-1.38 2.75-1.38s2.75.47 2.75 1.38z" opacity=".3"/><path fill="currentColor" d="M12 2C6.47 2 2 6.47 2 12s4.47 10 10 10s10-4.48 10-10S17.52 2 12 2m0 18c-4.42 0-8-3.58-8-8s3.58-8 8-8s8 3.58 8 8s-3.58 8-8 8m0-11.5c-.91 0-2.75.46-2.75 1.38v4.62h1.5V19h2.5v-4.5h1.5V9.88c0-.91-1.84-1.38-2.75-1.38"/><circle cx="12" cy="6.5" r="1.5" fill="currentColor"/></symbol><symbol id="hd-icon-ic-twotone-audio-file" viewBox="0 0 24 24"><path fill="currentColor" d="M13 4H6v16h12V9h-5zm3 7v2h-3v3.75c0 1.24-1.01 2.25-2.25 2.25S8.5 17.99 8.5 16.75s1.01-2.25 2.25-2.25c.46 0 .89.14 1.25.38V11z" opacity=".3"/><path fill="currentColor" d="M14 2H6c-1.1 0-2 .9-2 2v16c0 1.1.9 2 2 2h12c1.1 0 2-.9 2-2V8zm4 18H6V4h7v5h5z"/><path fill="currentColor" d="M12 14.88a2.247 2.247 0 0 0-3.5 1.87c0 1.24 1.01 2.25 2.25 2.25S13 17.99 13 16.75V13h3v-2h-4z"/></symbol><symbol id="hd-icon-ic-twotone-audiotrack" viewBox="0 0 24 24"><circle cx="10" cy="17" r="2" fill="currentColor" opacity=".3"/><path fill="currentColor" d="M10 21c2.21 0 4-1.79 4-4V7h4V3h-6v10.55c-.59-.34-1.27-.55-2-.55c-2.21 0-4 1.79-4 4s1.79 4 4 4m0-6c1.1 0 2 .9 2 2s-.9 2-2 2s-2-.9-2-2s.9-2 2-2"/></symbol><symbol id="hd-icon-ic-twotone-auto-awesome" viewBox="0 0 24 24"><path fill="currentColor" d="M9.99 11.01L9 8.83l-.99 2.18l-2.18.99l2.18.99l.99 2.18l.99-2.18l2.18-.99z" opacity=".3"/><path fill="currentColor" d="m19 9l1.25-2.75L23 5l-2.75-1.25L19 1l-1.25 2.75L15 5l2.75 1.25zm0 6l-1.25 2.75L15 19l2.75 1.25L19 23l1.25-2.75L23 19l-2.75-1.25zm-7.5-5.5L9 4L6.5 9.5L1 12l5.5 2.5L9 20l2.5-5.5L17 12zm-1.51 3.49L9 15.17l-.99-2.18L5.83 12l2.18-.99L9 8.83l.99 2.18l2.18.99z"/></symbol><symbol id="hd-icon-ic-twotone-auto-awesome-mosaic" viewBox="0 0 24 24"><path fill="currentColor" d="M5 5h4v14H5zm10 10h4v4h-4zm0-10h4v4h-4z" opacity=".3"/><path fill="currentColor" d="M3 5v14a2 2 0 0 0 2 2h6V3H5a2 2 0 0 0-2 2m6 14H5V5h4zM19 3h-6v8h8V5c0-1.1-.9-2-2-2m0 6h-4V5h4zm-6 12h6c1.1 0 2-.9 2-2v-6h-8zm2-6h4v4h-4z"/></symbol><symbol id="hd-icon-ic-twotone-auto-awesome-motion" viewBox="0 0 24 24"><path fill="currentColor" d="M12 12h8v8h-8z" opacity=".3"/><path fill="currentColor" d="M14 2H4c-1.1 0-2 .9-2 2v10h2V4h10zm6 8h-8c-1.1 0-2 .9-2 2v8c0 1.1.9 2 2 2h8c1.1 0 2-.9 2-2v-8c0-1.1-.9-2-2-2m0 10h-8v-8h8z"/><path fill="currentColor" d="M18 6H8c-1.1 0-2 .9-2 2v10h2V8h10z"/></symbol><symbol id="hd-icon-ic-twotone-auto-delete" viewBox="0 0 24 24"><path fill="currentColor" d="M12 7H4v10h5.08c-.05-.33-.08-.66-.08-1c0-2.38 1.19-4.47 3-5.74z" opacity=".3"/><path fill="currentColor" d="M15 2h-3.5l-1-1h-5l-1 1H1v2h14zm1 7c-.7 0-1.37.1-2 .29V5H2v12c0 1.1.9 2 2 2h5.68A6.999 6.999 0 0 0 23 16c0-3.87-3.13-7-7-7m-7 7c0 .34.03.67.08 1H4V7h8v3.26c-1.81 1.27-3 3.36-3 5.74m7 5c-2.76 0-5-2.24-5-5s2.24-5 5-5s5 2.24 5 5s-2.24 5-5 5"/><path fill="currentColor" d="M16.5 12H15v5l3.6 2.1l.8-1.2l-2.9-1.7z"/></symbol><symbol id="hd-icon-ic-twotone-auto-fix-high" viewBox="0 0 24 24"><path fill="currentColor" d="m4.415 18.167l7.17-7.17l1.414 1.414l-7.17 7.17z" opacity=".3"/><path fill="currentColor" d="m20 7l.94-2.06L23 4l-2.06-.94L20 1l-.94 2.06L17 4l2.06.94zM8.5 7l.94-2.06L11.5 4l-2.06-.94L8.5 1l-.94 2.06L5.5 4l2.06.94zM20 12.5l-.94 2.06l-2.06.94l2.06.94l.94 2.06l.94-2.06L23 15.5l-2.06-.94zm-2.29-3.38l-2.83-2.83c-.2-.19-.45-.29-.71-.29s-.51.1-.71.29L2.29 17.46a.996.996 0 0 0 0 1.41l2.83 2.83c.2.2.45.3.71.3s.51-.1.71-.29l11.17-11.17c.39-.39.39-1.03 0-1.42M5.83 19.59l-1.41-1.41L11.59 11L13 12.41zM14.41 11L13 9.59l1.17-1.17l1.41 1.41z"/></symbol><symbol id="hd-icon-ic-twotone-auto-fix-normal" viewBox="0 0 24 24"><path fill="currentColor" d="m4.415 18.167l7.17-7.17l1.414 1.414l-7.17 7.17z" opacity=".3"/><path fill="currentColor" d="m20 7l.94-2.06L23 4l-2.06-.94L20 1l-.94 2.06L17 4l2.06.94zm-2.29 2.12l-2.83-2.83c-.2-.19-.45-.29-.71-.29s-.51.1-.71.29L2.29 17.46a.996.996 0 0 0 0 1.41l2.83 2.83c.2.2.45.3.71.3s.51-.1.71-.29l11.17-11.17c.39-.39.39-1.03 0-1.42M5.83 19.59l-1.41-1.41L11.59 11L13 12.41zM14.41 11L13 9.59l1.17-1.17l1.41 1.41z"/></symbol><symbol id="hd-icon-ic-twotone-auto-fix-off" viewBox="0 0 24 24"><path fill="currentColor" d="m4.417 18.174l5.466-5.466l1.414 1.414l-5.466 5.466z" opacity=".3"/><path fill="currentColor" d="m20 7l.94-2.06L23 4l-2.06-.94L20 1l-.94 2.06L17 4l2.06.94zm-5.83 1.42l1.41 1.41l-1.46 1.46l1.41 1.41l2.17-2.17a.996.996 0 0 0 0-1.41l-2.83-2.83a.98.98 0 0 0-.7-.29c-.26 0-.51.1-.71.29l-2.17 2.17l1.41 1.41zM2.81 2.81L1.39 4.22l7.07 7.07l-6.17 6.17a.996.996 0 0 0 0 1.41l2.83 2.83c.2.2.45.3.71.3s.51-.1.71-.29l6.17-6.17l7.07 7.07l1.41-1.41zm3.02 16.78l-1.41-1.41l5.46-5.46l1.41 1.41z"/></symbol><symbol id="hd-icon-ic-twotone-auto-graph" viewBox="0 0 24 24"><path fill="currentColor" d="M14.06 9.94L12 9l2.06-.94L15 6l.94 2.06L18 9l-2.06.94L15 12zM4 14l.94-2.06L7 11l-2.06-.94L4 8l-.94 2.06L1 11l2.06.94zm4.5-5l1.09-2.41L12 5.5L9.59 4.41L8.5 2L7.41 4.41L5 5.5l2.41 1.09zm-4 11.5l6-6.01l4 4L23 8.93l-1.41-1.41l-7.09 7.97l-4-4L3 19z"/></symbol><symbol id="hd-icon-ic-twotone-auto-mode" viewBox="0 0 24 24"><path fill="currentColor" d="M19.03 3.56c-1.67-1.39-3.74-2.3-6.03-2.51v2.01c1.73.19 3.31.88 4.61 1.92zM11 3.06V1.05c-2.29.2-4.36 1.12-6.03 2.51l1.42 1.42A8.93 8.93 0 0 1 11 3.06M4.98 6.39L3.56 4.97C2.17 6.64 1.26 8.71 1.05 11h2.01c.19-1.73.88-3.31 1.92-4.61M20.94 11h2.01c-.21-2.29-1.12-4.36-2.51-6.03l-1.42 1.42A8.93 8.93 0 0 1 20.94 11M7 12l3.44 1.56L12 17l1.56-3.44L17 12l-3.44-1.56L12 7l-1.56 3.44z"/><path fill="currentColor" d="M12 21a8.96 8.96 0 0 1-7.46-4H7v-2H1v6h2v-2.7c1.99 2.84 5.27 4.7 9 4.7c4.87 0 9-3.17 10.44-7.56l-1.96-.45C19.25 18.48 15.92 21 12 21"/></symbol><symbol id="hd-icon-ic-twotone-auto-stories" viewBox="0 0 24 24"><path fill="currentColor" d="M3 6.71v9.91c1.14-.41 2.31-.62 3.5-.62s2.36.21 3.5.62v-9.9C8.89 6.25 7.7 6 6.5 6c-1.22 0-2.39.24-3.5.71" opacity=".3"/><path fill="currentColor" d="m19 .5l-5 5V15l5-4.5z"/><path fill="currentColor" d="M22.47 5.2c-.47-.24-.96-.44-1.47-.61v12.03c-1.14-.41-2.31-.62-3.5-.62c-1.9 0-3.78.54-5.5 1.58V5.48C10.38 4.55 8.51 4 6.5 4c-1.79 0-3.48.44-4.97 1.2c-.33.16-.53.51-.53.88v12.08c0 .58.47.99 1 .99q.24 0 .48-.12C3.69 18.4 5.05 18 6.5 18c2.07 0 3.98.82 5.5 2c1.52-1.18 3.43-2 5.5-2c1.45 0 2.81.4 4.02 1.04q.24.12.48.12c.52 0 1-.41 1-.99V6.08c0-.37-.2-.72-.53-.88M10 16.62C8.86 16.21 7.69 16 6.5 16s-2.36.21-3.5.62V6.71C4.11 6.24 5.28 6 6.5 6c1.2 0 2.39.25 3.5.72z"/></symbol><symbol id="hd-icon-ic-twotone-autofps-select" viewBox="0 0 24 24"><path fill="currentColor" d="M12.03 6.3h-.06l-1.02 2.89h2.1zM3 17h2v5H3z"/><path fill="currentColor" d="M12 15c3.31 0 6-2.69 6-6s-2.69-6-6-6s-6 2.69-6 6s2.69 6 6 6m-.63-10h1.25l2.63 7h-1.21l-.63-1.79h-2.83L9.96 12H8.74zM7 17h2v5H7zm4 0h2v5h-2zm4 0h6v5h-6z"/></symbol><symbol id="hd-icon-ic-twotone-autorenew" viewBox="0 0 24 24"><path fill="currentColor" d="M12 6v3l4-4l-4-4v3c-4.42 0-8 3.58-8 8c0 1.57.46 3.03 1.24 4.26L6.7 14.8A5.9 5.9 0 0 1 6 12c0-3.31 2.69-6 6-6m6.76 1.74L17.3 9.2c.44.84.7 1.79.7 2.8c0 3.31-2.69 6-6 6v-3l-4 4l4 4v-3c4.42 0 8-3.58 8-8c0-1.57-.46-3.03-1.24-4.26"/></symbol><symbol id="hd-icon-ic-twotone-av-timer" viewBox="0 0 24 24"><path fill="currentColor" d="M12 21a9 9 0 0 0 0-18h-1v4h2V5.08c3.39.49 6 3.39 6 6.92c0 3.87-3.13 7-7 7s-7-3.13-7-7c0-1.68.59-3.22 1.58-4.42L12 13l1.41-1.41l-6.8-6.8v.02C4.42 6.45 3 9.05 3 12c0 4.97 4.02 9 9 9"/><circle cx="12" cy="17" r="1" fill="currentColor"/><circle cx="17" cy="12" r="1" fill="currentColor"/><circle cx="7" cy="12" r="1" fill="currentColor"/></symbol><symbol id="hd-icon-ic-twotone-baby-changing-station" viewBox="0 0 24 24"><path fill="currentColor" d="M14 8v2h-3L8.31 8.82L7 12.75V22H3V12l1.58-4.63A2.003 2.003 0 0 1 7.3 6.18l4.15 1.83zM8 1c-1.1 0-2 .9-2 2s.9 2 2 2s2-.9 2-2s-.9-2-2-2m1 18h12v-2H9zm10.5-3c.83 0 1.5-.67 1.5-1.5s-.67-1.5-1.5-1.5s-1.5.67-1.5 1.5s.67 1.5 1.5 1.5M13 12c0-.55-.45-1-1-1H9v2h2v1c0 1.1.9 2 2 2h2c1.1 0 2-.9 2-2v-3h-2v2h-2z"/></symbol><symbol id="hd-icon-ic-twotone-back-hand" viewBox="0 0 24 24"><path fill="currentColor" d="M19 16c0 3.31-2.69 6-6 6c-2.61 0-4.95-1.59-5.91-4.01l-2.6-6.54l.53.14c.46.12.83.46 1 .9L7 15h2V4.5c0-.28.22-.5.5-.5s.5.22.5.5V12h2V2.5c0-.28.22-.5.5-.5s.5.22.5.5V12h2V4c0-.28.22-.5.5-.5s.5.22.5.5v8h2V7c0-.28.22-.5.5-.5s.5.22.5.5z" opacity=".3"/><path fill="currentColor" d="M21 7a2.5 2.5 0 0 0-3-2.45V4a2.5 2.5 0 0 0-3.17-2.41A2.51 2.51 0 0 0 12.5 0c-1.23 0-2.25.89-2.46 2.06A2.5 2.5 0 0 0 7 4.5v5.89c-.34-.31-.76-.54-1.22-.66l-.77-.21c-.83-.23-1.7.09-2.19.83c-.38.57-.4 1.31-.15 1.95l2.56 6.43A8.35 8.35 0 0 0 13 24c4.42 0 8-3.58 8-8zm-2 9c0 3.31-2.69 6-6 6c-2.61 0-4.95-1.59-5.91-4.01l-2.6-6.54l.53.14c.46.12.83.46 1 .9L7 15h2V4.5c0-.28.22-.5.5-.5s.5.22.5.5V12h2V2.5c0-.28.22-.5.5-.5s.5.22.5.5V12h2V4c0-.28.22-.5.5-.5s.5.22.5.5v8h2V7c0-.28.22-.5.5-.5s.5.22.5.5z"/></symbol><symbol id="hd-icon-ic-twotone-backpack" viewBox="0 0 24 24"><path fill="currentColor" d="M18 20H6V8c0-1.1.9-2 2-2h8c1.1 0 2 .9 2 2zM7.5 12v2h7v2h2v-4z" opacity=".3"/><path fill="currentColor" d="M17 4.14V2h-3v2h-4V2H7v2.14c-1.72.45-3 2-3 3.86v12c0 1.1.9 2 2 2h12c1.1 0 2-.9 2-2V8c0-1.86-1.28-3.41-3-3.86M18 20H6V8c0-1.1.9-2 2-2h8c1.1 0 2 .9 2 2zM7.5 12v2h7v2h2v-4z"/></symbol><symbol id="hd-icon-ic-twotone-backspace" viewBox="0 0 24 24"><path fill="currentColor" d="M7.06 5L2.4 12l4.67 7H22V5zq.015 0 0 0M9 8.41L10.41 7L14 10.59L17.59 7L19 8.41L15.41 12L19 15.59L17.59 17L14 13.41L10.41 17L9 15.59L12.59 12z" opacity=".3"/><path fill="currentColor" d="M22 3H7c-.69 0-1.23.35-1.59.88L0 12l5.41 8.11c.36.53.9.89 1.59.89h15c1.1 0 2-.9 2-2V5c0-1.1-.9-2-2-2m0 16H7.07L2.4 12l4.66-7H22zm-11.59-2L14 13.41L17.59 17L19 15.59L15.41 12L19 8.41L17.59 7L14 10.59L10.41 7L9 8.41L12.59 12L9 15.59z"/></symbol><symbol id="hd-icon-ic-twotone-backup" viewBox="0 0 24 24"><path fill="currentColor" d="m19.21 12.04l-1.53-.11l-.3-1.5A5.484 5.484 0 0 0 12 6C9.94 6 8.08 7.14 7.12 8.96l-.5.95l-1.07.11A3.99 3.99 0 0 0 2 14c0 2.21 1.79 4 4 4h13c1.65 0 3-1.35 3-3c0-1.55-1.22-2.86-2.79-2.96m-5.76.96v3h-2.91v-3H8l4-4l4 4z" opacity=".3"/><path fill="currentColor" d="M19.35 10.04A7.49 7.49 0 0 0 12 4C9.11 4 6.6 5.64 5.35 8.04A5.994 5.994 0 0 0 0 14c0 3.31 2.69 6 6 6h13c2.76 0 5-2.24 5-5c0-2.64-2.05-4.78-4.65-4.96M19 18H6c-2.21 0-4-1.79-4-4c0-2.05 1.53-3.76 3.56-3.97l1.07-.11l.5-.95A5.47 5.47 0 0 1 12 6c2.62 0 4.88 1.86 5.39 4.43l.3 1.5l1.53.11A2.98 2.98 0 0 1 22 15c0 1.65-1.35 3-3 3M8 13h2.55v3h2.9v-3H16l-4-4z"/></symbol><symbol id="hd-icon-ic-twotone-backup-table" viewBox="0 0 24 24"><path fill="currentColor" d="M11 11h5v5h-5zm-7 0h5v5H4zm0-7h12v5H4z" opacity=".3"/><path fill="currentColor" d="M20 6v14H6v2h14c1.1 0 2-.9 2-2V6z"/><path fill="currentColor" d="M18 16V4c0-1.1-.9-2-2-2H4c-1.1 0-2 .9-2 2v12c0 1.1.9 2 2 2h12c1.1 0 2-.9 2-2M4 4h12v5H4zm5 12H4v-5h5zm2-5h5v5h-5z"/></symbol><symbol id="hd-icon-ic-twotone-badge" viewBox="0 0 24 24"><path fill="currentColor" d="M14 13.5h4V12h-4zm0 3h4V15h-4zM20 7h-5V4c0-1.1-.9-2-2-2h-2c-1.1 0-2 .9-2 2v3H4c-1.1 0-2 .9-2 2v11c0 1.1.9 2 2 2h16c1.1 0 2-.9 2-2V9c0-1.1-.9-2-2-2m-9-3h2v5h-2zm9 16H4V9h5c0 1.1.9 2 2 2h2c1.1 0 2-.9 2-2h5zM9 15c.83 0 1.5-.67 1.5-1.5S9.83 12 9 12s-1.5.67-1.5 1.5S8.17 15 9 15m2.08 1.18c-.64-.28-1.34-.43-2.08-.43s-1.44.15-2.08.43c-.56.24-.92.78-.92 1.39V18h6v-.43c0-.61-.36-1.15-.92-1.39"/><path fill="currentColor" d="M13 11h-2c-1.1 0-2-.9-2-2H4v11h16V9h-5c0 1.1-.9 2-2 2m-4 1c.83 0 1.5.67 1.5 1.5S9.83 15 9 15s-1.5-.67-1.5-1.5S8.17 12 9 12m3 6H6v-.43c0-.6.36-1.15.92-1.39c.64-.28 1.34-.43 2.08-.43s1.44.15 2.08.43c.55.24.92.78.92 1.39zm6-1.5h-4V15h4zm0-3h-4V12h4z" opacity=".3"/></symbol><symbol id="hd-icon-ic-twotone-bakery-dining" viewBox="0 0 24 24"><path fill="currentColor" d="m7.6 8.67l-2.01.8c-.22.09-.34.31-.31.54l2.4 5.98h1.23l-.62-6.9a.503.503 0 0 0-.69-.42M3.07 16.1c-.27.53.29 1.09.82.83l1.68-.84l-1.08-2.71zm10.29-9.11h-2.71a.5.5 0 0 0-.5.54l.77 8.45h2.17l.77-8.45a.505.505 0 0 0-.5-.54m5.05 2.48l-2.01-.8a.5.5 0 0 0-.68.42l-.62 6.9h1.23l2.4-5.98c.02-.23-.1-.45-.32-.54m1.11 3.92l-1.08 2.7l1.68.84c.52.26 1.09-.3.82-.83z" opacity=".3"/><path fill="currentColor" d="M20.5 10.94c.13-.32.1-.23.15-.39c.3-1.21-.34-2.47-1.5-2.93l-2.01-.8c-.46-.18-.95-.21-1.41-.12c-.11-.33-.29-.63-.52-.89c-.48-.52-1.15-.81-1.85-.81h-2.71c-.71 0-1.38.29-1.85.81c-.24.26-.42.56-.53.88c-.46-.09-.95-.06-1.41.12l-2.01.8c-1.16.46-1.8 1.72-1.5 2.93l.15.38C1.1 15.55 1 15.55 1 16.38c0 .91.46 1.74 1.24 2.22c1.42.88 2.49.14 4-.61h11.53c1.52.76 1.86 1.01 2.63 1.01c1 0 2.61-.77 2.61-2.61c-.01-.85-.13-.88-2.51-5.45M3.88 16.93c-.53.26-1.09-.3-.82-.83l1.41-2.72l1.08 2.71zm3.8-.94l-2.4-5.98c-.03-.23.09-.45.31-.54l2.01-.8c.31-.12.65.08.68.42l.62 6.9zm5.41 0h-2.17l-.77-8.45a.5.5 0 0 1 .5-.54h2.71a.5.5 0 0 1 .5.54zm3.23 0h-1.23l.62-6.9c.03-.33.37-.54.68-.42l2.01.8c.22.09.34.31.31.54zm3.8.94l-1.68-.84l1.08-2.7l1.41 2.71c.28.53-.29 1.09-.81.83"/></symbol><symbol id="hd-icon-ic-twotone-balance" viewBox="0 0 24 24"><circle cx="12" cy="5" r="1" fill="currentColor" opacity=".3"/><path fill="currentColor" d="M13 7.83c.85-.3 1.53-.98 1.83-1.83H18l-3 7c0 1.66 1.57 3 3.5 3s3.5-1.34 3.5-3l-3-7h2V4h-6.17c-.41-1.17-1.52-2-2.83-2s-2.42.83-2.83 2H3v2h2l-3 7c0 1.66 1.57 3 3.5 3S9 14.66 9 13L6 6h3.17c.3.85.98 1.53 1.83 1.83V19H2v2h20v-2h-9zM20.37 13h-3.74l1.87-4.36zm-13 0H3.63L5.5 8.64zM12 6c-.55 0-1-.45-1-1s.45-1 1-1s1 .45 1 1s-.45 1-1 1"/></symbol><symbol id="hd-icon-ic-twotone-balcony" viewBox="0 0 24 24"><path fill="currentColor" d="M7 16H5v4h2zm4 0H9v4h2zm-5-6v4h5V4.08C8.16 4.56 6 7.03 6 10m4 2H8v-2h2zm3-7.92V14h5v-4c0-2.97-2.16-5.44-5-5.92M16 12h-2v-2h2zm-1 4h-2v4h2zm4 0h-2v4h2z" opacity=".3"/><path fill="currentColor" d="M10 10v2H8v-2zm6 2v-2h-2v2zm5 2v8H3v-8h1v-4c0-4.42 3.58-8 8-8s8 3.58 8 8v4zM7 16H5v4h2zm4 0H9v4h2zm0-11.92C8.16 4.56 6 7.03 6 10v4h5zM13 14h5v-4c0-2.97-2.16-5.44-5-5.92zm2 2h-2v4h2zm4 0h-2v4h2z"/></symbol><symbol id="hd-icon-ic-twotone-ballot" viewBox="0 0 24 24"><path fill="currentColor" d="M7 14h3v3H7zm0-7h3v3H7zM5 19h14V5H5zm8-11.5h5v2h-5zm0 7h5v2h-5zM6 6h5v5H6zm0 7h5v5H6z" opacity=".3"/><path fill="currentColor" d="M13 7.5h5v2h-5zm0 7h5v2h-5zM19 3H5c-1.1 0-2 .9-2 2v14c0 1.1.9 2 2 2h14c1.1 0 2-.9 2-2V5c0-1.1-.9-2-2-2m0 16H5V5h14zM11 6H6v5h5zm-1 4H7V7h3zm1 3H6v5h5zm-1 4H7v-3h3z"/></symbol><symbol id="hd-icon-ic-twotone-bar-chart" viewBox="0 0 24 24"><path fill="currentColor" d="M4 9h4v11H4zm12 4h4v7h-4zm-6-9h4v16h-4z"/></symbol><symbol id="hd-icon-ic-twotone-barcode" viewBox="0 0 24 24"><path fill="currentColor" fill-rule="evenodd" d="M2 6h1v12H2zm2 0h2v12H4zm4 0h1v12H8zm2 0h3v12h-3zm4 0h1v12h-1zm3 0h1v12h-1zm2 0h1v12h-1zm2 0h1v12h-1z"/></symbol><symbol id="hd-icon-ic-twotone-batch-prediction" viewBox="0 0 24 24"><path fill="currentColor" d="M13 20.5h-2V19h2zm0-2.5h-2c0-1.5-2.5-3-2.5-5c0-1.93 1.57-3.5 3.5-3.5s3.5 1.57 3.5 3.5c0 2-2.5 3.5-2.5 5" opacity=".3"/><path fill="currentColor" d="M17 8H7c-1.1 0-2 .9-2 2v10c0 1.1.9 2 2 2h10c1.1 0 2-.9 2-2V10c0-1.1-.9-2-2-2m-4 12.5h-2V19h2zm0-2.5h-2c0-1.5-2.5-3-2.5-5c0-1.93 1.57-3.5 3.5-3.5s3.5 1.57 3.5 3.5c0 2-2.5 3.5-2.5 5m5-11.5H6C6 5.67 6.67 5 7.5 5h9c.83 0 1.5.67 1.5 1.5m-1-3H7C7 2.67 7.67 2 8.5 2h7c.83 0 1.5.67 1.5 1.5"/></symbol><symbol id="hd-icon-ic-twotone-bathroom" viewBox="0 0 24 24"><path fill="currentColor" d="M4 20h16V4H4zm5-2c-.55 0-1-.45-1-1s.45-1 1-1s1 .45 1 1s-.45 1-1 1m0-3c-.55 0-1-.45-1-1s.45-1 1-1s1 .45 1 1s-.45 1-1 1m3 3c-.55 0-1-.45-1-1s.45-1 1-1s1 .45 1 1s-.45 1-1 1m0-3c-.55 0-1-.45-1-1s.45-1 1-1s1 .45 1 1s-.45 1-1 1m3 3c-.55 0-1-.45-1-1s.45-1 1-1s1 .45 1 1s-.45 1-1 1m0-3c-.55 0-1-.45-1-1s.45-1 1-1s1 .45 1 1s-.45 1-1 1m-8-4c0-2.76 2.24-5 5-5s5 2.24 5 5v1H7z" opacity=".3"/><circle cx="15" cy="14" r="1" fill="currentColor"/><circle cx="12" cy="14" r="1" fill="currentColor"/><circle cx="15" cy="17" r="1" fill="currentColor"/><path fill="currentColor" d="M20 2H4c-1.1 0-2 .9-2 2v16c0 1.1.9 2 2 2h16c1.1 0 2-.9 2-2V4c0-1.1-.9-2-2-2m0 18H4V4h16z"/><path fill="currentColor" d="M17 11c0-2.76-2.24-5-5-5s-5 2.24-5 5v1h10zm-8.46-.5c.24-1.69 1.7-3 3.46-3s3.22 1.31 3.47 3z"/><circle cx="9" cy="17" r="1" fill="currentColor"/><circle cx="9" cy="14" r="1" fill="currentColor"/><circle cx="12" cy="17" r="1" fill="currentColor"/></symbol><symbol id="hd-icon-ic-twotone-bathtub" viewBox="0 0 24 24"><path fill="currentColor" d="M4 15h16v4H4z" opacity=".3"/><circle cx="7" cy="7" r="2" fill="currentColor"/><path fill="currentColor" d="M20 13V4.83C20 3.27 18.73 2 17.17 2c-.75 0-1.47.3-2 .83l-1.25 1.25c-.16-.05-.33-.08-.51-.08c-.4 0-.77.12-1.08.32l2.76 2.76c.2-.31.32-.68.32-1.08c0-.18-.03-.34-.07-.51l1.25-1.25a.828.828 0 0 1 1.41.59V13h-6.85c-.3-.21-.57-.45-.82-.72l-1.4-1.55c-.19-.21-.43-.38-.69-.5A2.25 2.25 0 0 0 5 12.25V13H2v6c0 1.1.9 2 2 2c0 .55.45 1 1 1h14c.55 0 1-.45 1-1c1.1 0 2-.9 2-2v-6zm0 6H4v-4h16z"/></symbol><symbol id="hd-icon-ic-twotone-battery-0-bar" viewBox="0 0 24 24"><path fill="currentColor" d="M9 6h6v14H9z" opacity=".3"/><path fill="currentColor" d="M17 5v16c0 .55-.45 1-1 1H8c-.55 0-1-.45-1-1V5c0-.55.45-1 1-1h2V2h4v2h2c.55 0 1 .45 1 1m-2 1H9v14h6z"/></symbol><symbol id="hd-icon-ic-twotone-battery-1-bar" viewBox="0 0 24 24"><path fill="currentColor" d="M9 6h6v12H9z" opacity=".3"/><path fill="currentColor" d="M17 5v16c0 .55-.45 1-1 1H8c-.55 0-1-.45-1-1V5c0-.55.45-1 1-1h2V2h4v2h2c.55 0 1 .45 1 1m-2 1H9v12h6z"/></symbol><symbol id="hd-icon-ic-twotone-battery-2-bar" viewBox="0 0 24 24"><path fill="currentColor" d="M9 6h6v10H9z" opacity=".3"/><path fill="currentColor" d="M17 5v16c0 .55-.45 1-1 1H8c-.55 0-1-.45-1-1V5c0-.55.45-1 1-1h2V2h4v2h2c.55 0 1 .45 1 1m-2 1H9v10h6z"/></symbol><symbol id="hd-icon-ic-twotone-battery-20" viewBox="0 0 24 24"><path fill="currentColor" d="M7 17v3.67C7 21.4 7.6 22 8.33 22h7.33c.74 0 1.34-.6 1.34-1.33V17z"/><path fill="currentColor" fill-opacity=".3" d="M17 5.33C17 4.6 16.4 4 15.67 4H14V2h-4v2H8.33C7.6 4 7 4.6 7 5.33V17h10z"/></symbol></svg>