<svg xmlns="http://www.w3.org/2000/svg" xmlns:xlink="http://www.w3.org/1999/xlink"><symbol id="hd-icon-ic-twotone-phonelink-erase" viewBox="0 0 24 24"><path fill="currentColor" d="m4 17.2l4-4l4 4l1-1l-4-4l4-4l-1-1l-4 4l-4-4l-1 1l4 4l-4 4zM9 23h10c1.1 0 2-.9 2-2V3c0-1.1-.9-2-2-2H9c-1.1 0-2 .9-2 2v3h2V4h10v16H9v-2H7v3c0 1.1.9 2 2 2"/></symbol><symbol id="hd-icon-ic-twotone-phonelink-lock" viewBox="0 0 24 24"><path fill="currentColor" d="M8 7C6.6 7 5.2 8.1 5.2 9.5V11c-.6 0-1.2.6-1.2 1.2v3.5c0 .7.6 1.3 1.2 1.3h5.5c.7 0 1.3-.6 1.3-1.2v-3.5c0-.7-.6-1.3-1.2-1.3V9.5C10.8 8.1 9.4 7 8 7m1.5 4h-3V9.5c0-.8.7-1.3 1.5-1.3s1.5.5 1.5 1.3zM21 21V3c0-1.1-.9-2-2-2H9c-1.1 0-2 .9-2 2v3h2V4h10v16H9v-2H7v3c0 1.1.9 2 2 2h10c1.1 0 2-.9 2-2"/></symbol><symbol id="hd-icon-ic-twotone-phonelink-off" viewBox="0 0 24 24"><path fill="currentColor" d="M22 17v-7h-4v4.61L20.39 17z" opacity=".3"/><path fill="currentColor" d="M23 8h-6c-.55 0-1 .45-1 1v3.61l2 2V10h4v7h-1.61l2.93 2.93c.39-.13.68-.49.68-.93V9c0-.55-.45-1-1-1m-1-2V4H7.39l2 2zM.65 2.92l1.82 1.82C2.18 5.08 2 5.52 2 6v11H0v3h17.73l2.35 2.35l1.41-1.41L2.06 1.51zM4 6.27L14.73 17H4z"/></symbol><symbol id="hd-icon-ic-twotone-phonelink-ring" viewBox="0 0 24 24"><path fill="currentColor" d="M4 4h10v16H4z" opacity=".3"/><path fill="currentColor" d="M14 1H4c-1.1 0-2 .9-2 2v18c0 1.1.9 2 2 2h10c1.1 0 2-.9 2-2V3c0-1.1-.9-2-2-2m0 19H4V4h10zm6.1-12.3l-1 1c1.8 1.8 1.8 4.6 0 6.5l1 1c2.5-2.3 2.5-6.1 0-8.5M17 10.8c.5.7.5 1.6 0 2.3l1 1c1.2-1.2 1.2-3 0-4.3z"/></symbol><symbol id="hd-icon-ic-twotone-phonelink-setup" viewBox="0 0 24 24"><path fill="currentColor" d="M7 3v3h2V4h10v16H9v-2H7v3c0 1.1.9 2 2 2h10c1.1 0 2-.9 2-2V3c0-1.1-.9-2-2-2H9c-1.1 0-2 .9-2 2m2.5 12.5c.29-.12.55-.29.8-.48l-.02.03l1.01.39c.23.09.49 0 .61-.22l.84-1.46c.12-.21.07-.49-.12-.64l-.85-.68l-.02.03c.02-.16.05-.32.05-.48s-.03-.32-.05-.48l.02.03l.85-.68c.19-.15.24-.43.12-.64l-.84-1.46a.5.5 0 0 0-.61-.22l-1.01.39l.02.03c-.25-.17-.51-.34-.8-.46l-.17-1.08A.49.49 0 0 0 8.84 7H7.16c-.25 0-.46.18-.49.42L6.5 8.5c-.29.12-.55.29-.8.48l.02-.03l-1.02-.39c-.23-.09-.49 0-.61.22l-.84 1.46c-.12.21-.07.49.12.64l.85.68l.02-.03c-.02.15-.05.31-.05.47s.03.32.05.48l-.02-.03l-.85.68c-.19.15-.24.43-.12.64l.84 1.46c.12.21.38.31.61.22l1.01-.39l-.01-.04c.25.19.51.36.8.48l.17 1.07c.03.25.24.43.49.43h1.68c.25 0 .46-.18.49-.42zM6 12c0-1.1.9-2 2-2s2 .9 2 2s-.9 2-2 2s-2-.9-2-2"/></symbol><symbol id="hd-icon-ic-twotone-photo" viewBox="0 0 24 24"><path fill="currentColor" d="M19 5H5v14h14zM6 17l3-3.86l2.14 2.58l3-3.87L18 17z" opacity=".3"/><path fill="currentColor" d="M5 21h14c1.1 0 2-.9 2-2V5c0-1.1-.9-2-2-2H5c-1.1 0-2 .9-2 2v14c0 1.1.9 2 2 2M5 5h14v14H5zm6.14 10.72L9 13.14L6 17h12l-3.86-5.14z"/></symbol><symbol id="hd-icon-ic-twotone-photo-album" viewBox="0 0 24 24"><path fill="currentColor" d="M16 4v7l-2.5-1.5L11 11V4H6v16h12V4zM7 18l2.38-3.17L11 17l2.62-3.5L17 18z" opacity=".3"/><path fill="currentColor" d="M18 2H6c-1.1 0-2 .9-2 2v16c0 1.1.9 2 2 2h12c1.1 0 2-.9 2-2V4c0-1.1-.9-2-2-2m0 18H6V4h5v7l2.5-1.5L16 11V4h2zm-4.38-6.5L17 18H7l2.38-3.17L11 17z"/></symbol><symbol id="hd-icon-ic-twotone-photo-camera" viewBox="0 0 24 24"><path fill="currentColor" d="M20 6h-4.05l-1.83-2H9.88L8.05 6H4v12h16zm-8 11c-2.76 0-5-2.24-5-5s2.24-5 5-5s5 2.24 5 5s-2.24 5-5 5" opacity=".3"/><path fill="currentColor" d="M4 20h16c1.1 0 2-.9 2-2V6c0-1.1-.9-2-2-2h-3.17L15 2H9L7.17 4H4c-1.1 0-2 .9-2 2v12c0 1.1.9 2 2 2M4 6h4.05l1.83-2h4.24l1.83 2H20v12H4zm8 1c-2.76 0-5 2.24-5 5s2.24 5 5 5s5-2.24 5-5s-2.24-5-5-5m0 8c-1.65 0-3-1.35-3-3s1.35-3 3-3s3 1.35 3 3s-1.35 3-3 3"/></symbol><symbol id="hd-icon-ic-twotone-photo-camera-back" viewBox="0 0 24 24"><path fill="currentColor" d="m15.95 7l-1.83-2H9.88L8.05 7H4v12h16V7zM6 17l3-4l2.25 3l3-4L18 17z" opacity=".3"/><path fill="currentColor" d="M20 5h-3.17L15 3H9L7.17 5H4c-1.1 0-2 .9-2 2v12c0 1.1.9 2 2 2h16c1.1 0 2-.9 2-2V7c0-1.1-.9-2-2-2m0 14H4V7h4.05l1.83-2h4.24l1.83 2H20zm-8.75-3L9 13l-3 4h12l-3.75-5z"/></symbol><symbol id="hd-icon-ic-twotone-photo-camera-front" viewBox="0 0 24 24"><path fill="currentColor" d="m15.95 7l-1.83-2H9.88L8.05 7H4v12h16V7zM12 9c1.1 0 2 .9 2 2s-.9 2-2 2s-2-.9-2-2s.9-2 2-2m4 8H8v-.57c0-.81.48-1.53 1.22-1.85a6.95 6.95 0 0 1 5.56 0A2.01 2.01 0 0 1 16 16.43z" opacity=".3"/><path fill="currentColor" d="M20 5h-3.17L15 3H9L7.17 5H4c-1.1 0-2 .9-2 2v12c0 1.1.9 2 2 2h16c1.1 0 2-.9 2-2V7c0-1.1-.9-2-2-2m0 14H4V7h4.05l1.83-2h4.24l1.83 2H20zm-8-6c1.1 0 2-.9 2-2s-.9-2-2-2s-2 .9-2 2s.9 2 2 2m2.78 1.58a6.95 6.95 0 0 0-5.56 0A2.01 2.01 0 0 0 8 16.43V17h8v-.57c0-.81-.48-1.53-1.22-1.85"/></symbol><symbol id="hd-icon-ic-twotone-photo-filter" viewBox="0 0 24 24"><path fill="currentColor" d="M19 10v9H4.98V5h9V3H5c-1.1 0-2 .9-2 2v14c0 1.1.9 2 2 2h14c1.1 0 2-.9 2-2v-9zm-2.94-2.06L17 10l.94-2.06L20 7l-2.06-.94L17 4l-.94 2.06L14 7zM12 8l-1.25 2.75L8 12l2.75 1.25L12 16l1.25-2.75L16 12l-2.75-1.25z"/></symbol><symbol id="hd-icon-ic-twotone-photo-library" viewBox="0 0 24 24"><path fill="currentColor" d="M8 16h12V4H8zm3.5-4.33l1.69 2.26l2.48-3.09L19 15H9z" opacity=".3"/><path fill="currentColor" d="M22 16V4c0-1.1-.9-2-2-2H8c-1.1 0-2 .9-2 2v12c0 1.1.9 2 2 2h12c1.1 0 2-.9 2-2m-2 0H8V4h12zm-4.33-5.17l-2.48 3.09l-1.69-2.25L9 15h10zM4 22h14v-2H4V6H2v14c0 1.1.9 2 2 2"/></symbol><symbol id="hd-icon-ic-twotone-photo-size-select-actual" viewBox="0 0 24 24"><path fill="currentColor" d="M3.08 5L3 5.08V19h17.92c.03-.02.06-.06.08-.08V5.08L20.92 5zM5 17l3.5-4.5l2.5 3.01L14.5 11l4.5 6z" opacity=".3"/><path fill="currentColor" d="M21 3H3C2 3 1 4 1 5v14c0 1.1.9 2 2 2h18c1 0 2-1 2-2V5c0-1-1-2-2-2m0 15.92c-.02.03-.06.06-.08.08H3V5.08L3.08 5h17.83c.03.02.06.06.08.08v13.84zm-10-3.41L8.5 12.5L5 17h14l-4.5-6z"/></symbol><symbol id="hd-icon-ic-twotone-photo-size-select-large" viewBox="0 0 24 24"><path fill="currentColor" d="M17 19h2v2h-2zM1 19c0 1.1.9 2 2 2h12V11H1zm4.5-3.21l1.79 2.15l2.5-3.22L13 19H3zM17 3h2v2h-2zm4 8h2v2h-2zm0 4h2v2h-2zM3 3C2 3 1 4 1 5h2zm18 4h2v2h-2zm-8-4h2v2h-2zm8 18c1 0 2-1 2-2h-2zM1 7h2v2H1zm8-4h2v2H9zM5 3h2v2H5zm16 0v2h2c0-1-1-2-2-2"/></symbol><symbol id="hd-icon-ic-twotone-photo-size-select-small" viewBox="0 0 24 24"><path fill="currentColor" d="M17 19h2v2h-2zm-4 0h2v2h-2zM1 19c0 1.1.9 2 2 2h8v-6H1zM9 3h2v2H9zM5 3h2v2H5zm12 0h2v2h-2zM1 11h2v2H1zm0-4h2v2H1zm2-4C2 3 1 4 1 5h2zm10 0h2v2h-2zm8 18c1 0 2-1 2-2h-2zm0-10h2v2h-2zm0-8v2h2c0-1-1-2-2-2m0 12h2v2h-2zm0-8h2v2h-2z"/></symbol><symbol id="hd-icon-ic-twotone-php" viewBox="0 0 24 24"><path fill="currentColor" d="M13 9h1.5v6H13v-2.5h-2V15H9.5V9H11v2h2zm-5 1.5v1c0 .8-.7 1.5-1.5 1.5h-2v2H3V9h3.5c.8 0 1.5.7 1.5 1.5m-1.5 0h-2v1h2zm15 0v1c0 .8-.7 1.5-1.5 1.5h-2v2h-1.5V9H20c.8 0 1.5.7 1.5 1.5m-1.5 0h-2v1h2z"/></symbol><symbol id="hd-icon-ic-twotone-piano" viewBox="0 0 24 24"><path fill="currentColor" d="M14 14.5h.25V19h-4.5v-4.5H10c.55 0 1-.45 1-1V5h2v8.5c0 .55.45 1 1 1M5 5h2v8.5c0 .55.45 1 1 1h.25V19H5zm14 14h-3.25v-4.5H16c.55 0 1-.45 1-1V5h2z" opacity=".3"/><path fill="currentColor" d="M19 3H5c-1.1 0-2 .9-2 2v14c0 1.1.9 2 2 2h14c1.1 0 2-.9 2-2V5c0-1.1-.9-2-2-2m-5 11.5h.25V19h-4.5v-4.5H10c.55 0 1-.45 1-1V5h2v8.5c0 .55.45 1 1 1M5 5h2v8.5c0 .55.45 1 1 1h.25V19H5zm14 14h-3.25v-4.5H16c.55 0 1-.45 1-1V5h2z"/></symbol><symbol id="hd-icon-ic-twotone-piano-off" viewBox="0 0 24 24"><path fill="currentColor" d="M8.25 19H5V7.83l2 2v3.67c0 .55.45 1 1 1h.25zm1.5 0v-4.5H10c.46 0 .82-.31.94-.73l3.31 3.31V19zM13 10.17V5h-2v3.17zm6 6V5h-2v8.5c0 .19-.07.36-.16.51z" opacity=".3"/><path fill="currentColor" d="M21.19 21.19L2.81 2.81L1.39 4.22L3 5.83V19c0 1.1.9 2 2 2h13.17l1.61 1.61zM8.25 19H5V7.83l2 2v3.67c0 .55.45 1 1 1h.25zm1.5 0v-4.5H10c.46 0 .82-.31.94-.73l3.31 3.31V19zM11 8.17L5.83 3H19c1.1 0 2 .9 2 2v13.17l-2-2V5h-2v8.5c0 .19-.07.36-.16.51L13 10.17V5h-2z"/></symbol><symbol id="hd-icon-ic-twotone-picture-as-pdf" viewBox="0 0 24 24"><path fill="currentColor" d="M4 6H2v14c0 1.1.9 2 2 2h14v-2H4z"/><path fill="currentColor" d="M10 9h1v1h-1zm4 0h1v3h-1zm-6 7h12V4H8zm9-8h2v1h-1v1h1v1h-1v2h-1zm-4 0h2c.55 0 1 .45 1 1v3c0 .55-.45 1-1 1h-2zM9 8h2c.55 0 1 .45 1 1v1c0 .55-.45 1-1 1h-1v2H9z" opacity=".3"/><path fill="currentColor" d="M20 2H8c-1.1 0-2 .9-2 2v12c0 1.1.9 2 2 2h12c1.1 0 2-.9 2-2V4c0-1.1-.9-2-2-2m0 14H8V4h12zm-4-4V9c0-.55-.45-1-1-1h-2v5h2c.55 0 1-.45 1-1m-2-3h1v3h-1zm4 2h1v-1h-1V9h1V8h-2v5h1zm-8 0h1c.55 0 1-.45 1-1V9c0-.55-.45-1-1-1H9v5h1zm0-2h1v1h-1z"/></symbol><symbol id="hd-icon-ic-twotone-picture-in-picture" viewBox="0 0 24 24"><path fill="currentColor" d="M19 7h-8v6h8zm-2 4h-4V9h4z"/><path fill="currentColor" d="M13 9h4v2h-4z" opacity=".3"/><path fill="currentColor" d="M21 3H3c-1.1 0-2 .9-2 2v14c0 1.1.9 1.98 2 1.98h18c1.1 0 2-.88 2-1.98V5c0-1.1-.9-2-2-2m0 16.01H3V4.98h18z"/></symbol><symbol id="hd-icon-ic-twotone-picture-in-picture-alt" viewBox="0 0 24 24"><path fill="currentColor" d="M19 11h-8v6h8zm-2 4h-4v-2h4zm4-12H3c-1.1 0-2 .88-2 1.98V19c0 1.1.9 2 2 2h18c1.1 0 2-.9 2-2V4.98C23 3.88 22.1 3 21 3m0 16.02H3V4.97h18z"/><path fill="currentColor" d="M13 13h4v2h-4z" opacity=".3"/></symbol><symbol id="hd-icon-ic-twotone-pie-chart" viewBox="0 0 24 24"><path fill="currentColor" d="M4 12c0 4.07 3.06 7.44 7 7.93V4.07C7.06 4.56 4 7.93 4 12m9 7.93A8 8 0 0 0 19.93 13H13zm0-15.86V11h6.93A8 8 0 0 0 13 4.07" opacity=".3"/><path fill="currentColor" d="M12 2C6.48 2 2 6.48 2 12s4.48 10 10 10s10-4.48 10-10S17.52 2 12 2m-1 17.93c-3.94-.49-7-3.86-7-7.93s3.06-7.44 7-7.93zm2 0V13h6.93A8 8 0 0 1 13 19.93M13 11V4.07c3.61.45 6.48 3.32 6.93 6.93z"/></symbol><symbol id="hd-icon-ic-twotone-pie-chart-outline" viewBox="0 0 24 24"><path fill="currentColor" d="M12 2C6.5 2 2 6.5 2 12s4.5 10 10 10s10-4.5 10-10S17.5 2 12 2m-1 17.94c-3.93-.5-7-3.88-7-7.94s3.07-7.44 7-7.93zm2-.01V13h6.93A8 8 0 0 1 13 19.93M13 11V4.07c3.61.45 6.48 3.33 6.93 6.93z"/></symbol><symbol id="hd-icon-ic-twotone-pin" viewBox="0 0 24 24"><path fill="currentColor" d="M4 18h16V6H4zm12.84-5.62h-.5v-1h.46c.33 0 .88-.14.88-.72c0-.39-.31-.65-.75-.65c-.5 0-.74.32-.85.64l-.99-.41C15.2 9.9 15.68 9 16.94 9c1.09 0 1.54.64 1.62.75c.33.5.28 1.16.02 1.57c-.15.22-.32.38-.52.48v.07c.28.11.51.28.68.52c.37.52.33 1.27.01 1.76c-.08.13-.56.85-1.76.85c-.04 0-1.6.08-2.05-1.51l1.03-.41c.02.1.19.86 1.02.86c.41 0 .89-.28.89-.77c0-.55-.48-.79-1.04-.79M10.56 9.2c.69-.33 1.48-.2 1.95.03c.86.44.91 1.24.91 1.48c0 .64-.31 1.26-.92 1.86c-.25.25-.72.71-1.4 1.39l.03.05h2.37V15H9.61v-1.02c1.07-1.07 1.77-1.77 2.13-2.15c.4-.42.54-.69.54-1.06c0-.4-.31-.72-.81-.72c-.52 0-.8.39-.9.72l-1.01-.42c.01-.02.18-.76 1-1.15M6.77 9h.87v6H6.49v-4.5l-.9.66l-.58-.89z" opacity=".3"/><path fill="currentColor" d="M20 4H4c-1.1 0-2 .9-2 2v12c0 1.1.9 2 2 2h16c1.1 0 2-.9 2-2V6c0-1.1-.9-2-2-2m0 14H4V6h16z"/><path fill="currentColor" d="M6.49 10.5V15h1.15V9h-.87l-1.76 1.27l.58.89zm4.98-.45c.5 0 .81.32.81.72c0 .37-.14.64-.54 1.06c-.36.38-1.06 1.08-2.13 2.15V15h3.89v-.99h-2.37l-.03-.05c.68-.68 1.15-1.14 1.4-1.39c.61-.6.92-1.22.92-1.86c0-.24-.05-1.04-.91-1.48c-.47-.23-1.26-.36-1.95-.03c-.82.39-.99 1.13-1 1.15l1.01.42c.1-.33.38-.72.9-.72m5.52 3.89c-.83 0-.99-.76-1.02-.86l-1.03.41c.45 1.59 2.01 1.51 2.05 1.51c1.2 0 1.68-.72 1.76-.85c.32-.49.36-1.24-.01-1.76c-.17-.24-.4-.41-.68-.52v-.07c.2-.1.37-.26.52-.48c.26-.41.31-1.07-.02-1.57c-.08-.11-.53-.75-1.62-.75c-1.26 0-1.74.9-1.85 1.24l.99.41c.11-.32.35-.64.85-.64c.44 0 .75.26.75.65c0 .58-.55.72-.88.72h-.46v1h.5c.56 0 1.04.24 1.04.79c0 .49-.48.77-.89.77"/></symbol><symbol id="hd-icon-ic-twotone-pin-drop" viewBox="0 0 24 24"><path fill="currentColor" fill-opacity=".3" d="M12 3C9.19 3 6 5.11 6 9.13c0 2.68 2 5.49 6 8.44c4-2.95 6-5.77 6-8.44C18 5.11 14.81 3 12 3"/><path fill="currentColor" d="M12 4c1.93 0 5 1.4 5 5.15c0 2.16-1.72 4.67-5 7.32c-3.28-2.65-5-5.17-5-7.32C7 5.4 10.07 4 12 4m0-2C8.73 2 5 4.46 5 9.15c0 3.12 2.33 6.41 7 9.85c4.67-3.44 7-6.73 7-9.85C19 4.46 15.27 2 12 2"/><path fill="currentColor" d="M12 7c-1.1 0-2 .9-2 2s.9 2 2 2s2-.9 2-2s-.9-2-2-2M5 20h14v2H5z"/></symbol><symbol id="hd-icon-ic-twotone-pin-end" viewBox="0 0 24 24"><path fill="currentColor" d="M20 12V6H4v12h10v2H4c-1.1 0-2-.9-2-2V6c0-1.1.9-2 2-2h16c1.1 0 2 .9 2 2v6zm-1 2c-1.66 0-3 1.34-3 3s1.34 3 3 3s3-1.34 3-3s-1.34-3-3-3m-4.34-6H9v5.66l2.12-2.12l2.83 2.83l1.41-1.41l-2.83-2.83z"/></symbol><symbol id="hd-icon-ic-twotone-pin-invoke" viewBox="0 0 24 24"><path fill="currentColor" d="M22 12v6c0 1.1-.9 2-2 2H4c-1.1 0-2-.9-2-2V6c0-1.1.9-2 2-2h10v2H4v12h16v-6zm0-5c0-1.66-1.34-3-3-3s-3 1.34-3 3s1.34 3 3 3s3-1.34 3-3m-10.53 5.12l-2.83 2.83l1.41 1.41l2.83-2.83L15 15.66V10H9.34z"/></symbol><symbol id="hd-icon-ic-twotone-pin-off" viewBox="0 0 24 24"><path fill="currentColor" d="M9.644 12.184L11.461 14H8v-.172zM13 4v6.46l-.73-.73L11 8.46V4z" opacity=".3"/><path fill="currentColor" d="m9 9l1.914 1.914L8 13.828V14h6l2 2h-3v4l-1 3l-1-3v-4H6v-3l3-3zm8-7v2l-2 1v5l3 3v2.461l-5-5.001V4h-2v4.46l-2-2V5L7 4V2z"/><path fill="currentColor" d="M2.27 2.27L1 3.54L20.46 23l1.27-1.27L11 11z"/></symbol><symbol id="hd-icon-ic-twotone-pinch" viewBox="0 0 24 24"><path fill="currentColor" d="m21 15.56l-4.24-1.89H15V7.5c0-.28-.22-.5-.5-.5s-.5.22-.5.5v10.61l-4.17-.89l3.7 3.78h6.55z" opacity=".3"/><path fill="currentColor" d="M6 2.5V1h5v5H9.5V3.56L3.56 9.5H6V11H1V6h1.5v2.44L8.44 2.5zm15.89 11.27l-3.8-1.67c-.13-.06-.28-.1-.44-.1H17V7.5a2.5 2.5 0 0 0-5 0v8.15l-1.87-.4c-.19-.03-1.02-.15-1.73.56L7 17.22l5.12 5.19c.37.38.88.59 1.41.59h6.55c.98 0 1.81-.7 1.97-1.67l.92-5.44a2 2 0 0 0-1.08-2.12M20.08 21h-6.55l-3.7-3.78l4.17.89V7.5c0-.28.22-.5.5-.5s.5.22.5.5v6.18h1.76L21 15.56z"/></symbol><symbol id="hd-icon-ic-twotone-pivot-table-chart" viewBox="0 0 24 24"><path fill="currentColor" d="M21 5c0-1.1-.9-2-2-2h-9v5h11zM3 19c0 1.1.9 2 2 2h3V10H3zM3 5v3h5V3H5c-1.1 0-2 .9-2 2m15 4l-4 4h3v2c0 1.1-.9 2-2 2h-2v-3l-4 4l4 4v-3h2c2.21 0 4-1.79 4-4v-2h3z"/></symbol><symbol id="hd-icon-ic-twotone-pix" viewBox="0 0 24 24"><path fill="currentColor" d="m15.45 16.52l-3.01-3.01c-.11-.11-.24-.13-.31-.13s-.2.02-.31.13L8.8 16.53c-.34.34-.87.89-2.64.89l3.71 3.7a3 3 0 0 0 4.24 0l3.72-3.71c-.91 0-1.67-.18-2.38-.89M8.8 7.47l3.02 3.02c.08.08.2.13.31.13s.23-.05.31-.13l2.99-2.99c.71-.74 1.52-.91 2.43-.91l-3.72-3.71a3 3 0 0 0-4.24 0l-3.71 3.7c1.76 0 2.3.58 2.61.89"/><path fill="currentColor" d="m21.11 9.85l-2.25-2.26H17.6c-.54 0-1.08.22-1.45.61l-3 3c-.28.28-.65.42-1.02.42a1.5 1.5 0 0 1-1.02-.42L8.09 8.17c-.38-.38-.9-.6-1.45-.6H5.17l-2.29 2.3a3 3 0 0 0 0 4.24l2.29 2.3h1.48c.54 0 1.06-.22 1.45-.6l3.02-3.02c.28-.28.65-.42 1.02-.42s.74.14 1.02.42l3.01 3.01c.38.38.9.6 1.45.6h1.26l2.25-2.26a3.04 3.04 0 0 0-.02-4.29"/></symbol><symbol id="hd-icon-ic-twotone-place" viewBox="0 0 24 24"><path fill="currentColor" fill-opacity=".3" d="M18.5 10.2c0 2.57-2.1 5.79-6.16 9.51l-.34.3l-.34-.31C7.6 15.99 5.5 12.77 5.5 10.2c0-3.84 2.82-6.7 6.5-6.7s6.5 2.85 6.5 6.7"/><path fill="currentColor" d="M12 2c4.2 0 8 3.22 8 8.2c0 3.32-2.67 7.25-8 11.8c-5.33-4.55-8-8.48-8-11.8C4 5.22 7.8 2 12 2m6 8.2C18 6.57 15.35 4 12 4s-6 2.57-6 6.2c0 2.34 1.95 5.44 6 9.14c4.05-3.7 6-6.8 6-9.14M12 12c-1.1 0-2-.9-2-2s.9-2 2-2s2 .9 2 2s-.9 2-2 2"/></symbol><symbol id="hd-icon-ic-twotone-plagiarism" viewBox="0 0 24 24"><path fill="currentColor" d="M13 4H6v16h12V9h-5zm.97 7.03a3.48 3.48 0 0 1 .59 4.13l1.88 1.88l-1.41 1.41l-1.88-1.88c-1.33.71-3.01.53-4.13-.59a3.495 3.495 0 0 1 0-4.95a3.495 3.495 0 0 1 4.95 0" opacity=".3"/><circle cx="11.5" cy="13.5" r="1.5" fill="currentColor" opacity=".3"/><path fill="currentColor" d="M14 2H6c-1.1 0-2 .9-2 2v16c0 1.1.89 2 1.99 2H18c1.1 0 2-.9 2-2V8zm4 18H6V4h7v5h5z"/><path fill="currentColor" d="M9.03 11.03a3.495 3.495 0 0 0 0 4.95a3.48 3.48 0 0 0 4.13.59l1.88 1.88l1.41-1.41l-1.88-1.88c.71-1.33.53-3.01-.59-4.13a3.495 3.495 0 0 0-4.95 0m3.53 3.53c-.59.59-1.54.59-2.12 0a1.49 1.49 0 0 1 0-2.12a1.49 1.49 0 0 1 2.12 0c.59.59.59 1.53 0 2.12"/></symbol><symbol id="hd-icon-ic-twotone-play-arrow" viewBox="0 0 24 24"><path fill="currentColor" d="M10 8.64v6.72L15.27 12z" opacity=".3"/><path fill="currentColor" d="m8 19l11-7L8 5zm2-10.36L15.27 12L10 15.36z"/></symbol><symbol id="hd-icon-ic-twotone-play-circle" viewBox="0 0 24 24"><path fill="currentColor" d="M12 4c-4.41 0-8 3.59-8 8s3.59 8 8 8s8-3.59 8-8s-3.59-8-8-8M9.5 16.5v-9l7 4.5z" opacity=".3"/><path fill="currentColor" d="M12 2C6.48 2 2 6.48 2 12s4.48 10 10 10s10-4.48 10-10S17.52 2 12 2m0 18c-4.41 0-8-3.59-8-8s3.59-8 8-8s8 3.59 8 8s-3.59 8-8 8"/><path fill="currentColor" d="m9.5 16.5l7-4.5l-7-4.5z"/></symbol><symbol id="hd-icon-ic-twotone-play-circle-filled" viewBox="0 0 24 24"><path fill="currentColor" d="M12 20c4.41 0 8-3.59 8-8s-3.59-8-8-8s-8 3.59-8 8s3.59 8 8 8M10 7.5l6 4.5l-6 4.5z" opacity=".3"/><path fill="currentColor" d="M12 22c5.52 0 10-4.48 10-10S17.52 2 12 2S2 6.48 2 12s4.48 10 10 10m0-18c4.41 0 8 3.59 8 8s-3.59 8-8 8s-8-3.59-8-8s3.59-8 8-8m-2 3.5v9l6-4.5z"/></symbol><symbol id="hd-icon-ic-twotone-play-circle-filled-white" viewBox="0 0 24 24"><path fill="currentColor" d="M12 20c4.41 0 8-3.59 8-8s-3.59-8-8-8s-8 3.59-8 8s3.59 8 8 8M10 7.5l6 4.5l-6 4.5z" opacity=".3"/><path fill="currentColor" d="M12 22c5.52 0 10-4.48 10-10S17.52 2 12 2S2 6.48 2 12s4.48 10 10 10m0-18c4.41 0 8 3.59 8 8s-3.59 8-8 8s-8-3.59-8-8s3.59-8 8-8m-2 3.5v9l6-4.5z"/></symbol><symbol id="hd-icon-ic-twotone-play-circle-outline" viewBox="0 0 24 24"><path fill="currentColor" d="m10 16.5l6-4.5l-6-4.5zM12 2C6.48 2 2 6.48 2 12s4.48 10 10 10s10-4.48 10-10S17.52 2 12 2m0 18c-4.41 0-8-3.59-8-8s3.59-8 8-8s8 3.59 8 8s-3.59 8-8 8"/></symbol><symbol id="hd-icon-ic-twotone-play-disabled" viewBox="0 0 24 24"><path fill="currentColor" d="M10 12.83v2.53l1.55-.99z" opacity=".3"/><path fill="currentColor" d="M2.81 2.81L1.39 4.22L8 10.83V19l4.99-3.18l6.78 6.78l1.41-1.41zM10 15.36v-2.53l1.55 1.55zM19 12L8 5v.17l8.45 8.45z"/></symbol><symbol id="hd-icon-ic-twotone-play-for-work" viewBox="0 0 24 24"><path fill="currentColor" d="M11 5v5.59H7.5l4.5 4.5l4.5-4.5H13V5zm-5 9c0 3.31 2.69 6 6 6s6-2.69 6-6h-2c0 2.21-1.79 4-4 4s-4-1.79-4-4z"/></symbol><symbol id="hd-icon-ic-twotone-play-lesson" viewBox="0 0 24 24"><path fill="currentColor" d="M12 4v7L9.5 9.5L7 11V4H5v16h6.29c-.19-.63-.29-1.3-.29-2c0-3.53 2.61-6.43 6-6.92V4z" opacity=".3"/><path fill="currentColor" d="M5 20V4h2v7l2.5-1.5L12 11V4h5v7.08c.33-.05.66-.08 1-.08s.67.03 1 .08V4c0-1.1-.9-2-2-2H5c-1.1 0-2 .9-2 2v16c0 1.1.9 2 2 2h7.26c-.42-.6-.75-1.28-.97-2z"/><path fill="currentColor" d="M18 13c-2.76 0-5 2.24-5 5s2.24 5 5 5s5-2.24 5-5s-2.24-5-5-5m-1.25 7.5v-5l4 2.5z"/></symbol><symbol id="hd-icon-ic-twotone-playlist-add" viewBox="0 0 24 24"><path fill="currentColor" d="M14 10H3v2h11zm0-4H3v2h11zm4 8v-4h-2v4h-4v2h4v4h2v-4h4v-2zM3 16h7v-2H3z"/></symbol><symbol id="hd-icon-ic-twotone-playlist-add-check" viewBox="0 0 24 24"><path fill="currentColor" d="M3 10h11v2H3zm0-4h11v2H3zm0 8h7v2H3zm17.59-2.07l-4.25 4.24l-2.12-2.12l-1.41 1.41L16.34 19L22 13.34z"/></symbol><symbol id="hd-icon-ic-twotone-playlist-add-check-circle" viewBox="0 0 24 24"><path fill="currentColor" d="M12 4c-4.41 0-8 3.59-8 8s3.59 8 8 8s8-3.59 8-8s-3.59-8-8-8M7 7h7v2H7zm0 3h7v2H7zm3 5H7v-2h3zm4.05 3.36l-2.83-2.83l1.41-1.41l1.41 1.41L17.59 12L19 13.41z" opacity=".3"/><path fill="currentColor" d="M12 4c4.41 0 8 3.59 8 8s-3.59 8-8 8s-8-3.59-8-8s3.59-8 8-8m0-2C6.48 2 2 6.48 2 12s4.48 10 10 10s10-4.48 10-10S17.52 2 12 2m2 8H7v2h7zm0-3H7v2h7zm-7 8h3v-2H7zm12-1.59L17.59 12l-3.54 3.54l-1.41-1.41l-1.41 1.41l2.83 2.83z"/></symbol><symbol id="hd-icon-ic-twotone-playlist-add-circle" viewBox="0 0 24 24"><path fill="currentColor" d="M12 4c-4.41 0-8 3.59-8 8s3.59 8 8 8s8-3.59 8-8s-3.59-8-8-8M7 7h7v2H7zm3 8H7v-2h3zm-3-3v-2h7v2zm10 3v2h-2v-2h-2v-2h2v-2h2v2h2v2z" opacity=".3"/><path fill="currentColor" d="M12 2C6.48 2 2 6.48 2 12s4.48 10 10 10s10-4.48 10-10S17.52 2 12 2m0 18c-4.41 0-8-3.59-8-8s3.59-8 8-8s8 3.59 8 8s-3.59 8-8 8m2-10H7v2h7zm0-3H7v2h7zm-7 8h3v-2H7zm12-2v2h-2v2h-2v-2h-2v-2h2v-2h2v2z"/></symbol><symbol id="hd-icon-ic-twotone-playlist-play" viewBox="0 0 24 24"><path fill="currentColor" d="M3 10h11v2H3zm0-4h11v2H3zm0 8h7v2H3zm13-1v8l6-4z"/></symbol><symbol id="hd-icon-ic-twotone-playlist-remove" viewBox="0 0 24 24"><path fill="currentColor" d="M14 10H3v2h11zm0-4H3v2h11zM3 16h7v-2H3zm11.41 6L17 19.41L19.59 22L21 20.59L18.41 18L21 15.41L19.59 14L17 16.59L14.41 14L13 15.41L15.59 18L13 20.59z"/></symbol><symbol id="hd-icon-ic-twotone-plumbing" viewBox="0 0 24 24"><path fill="currentColor" d="m19.28 4.93l-2.12-2.12c-.78-.78-2.05-.78-2.83 0L11.5 5.64l2.12 2.12l2.12-2.12l3.54 3.54a3.01 3.01 0 0 0 0-4.25M5.49 13.77c.59.59 1.54.59 2.12 0l2.47-2.47l-2.12-2.13l-2.47 2.47c-.59.59-.59 1.54 0 2.13"/><path fill="currentColor" d="m15.04 7.76l-.71.71l-.71.71L10.44 6c-.59-.6-1.54-.6-2.12-.01a1.49 1.49 0 0 0 0 2.12l3.18 3.18l-.71.71l-6.36 6.36c-.78.78-.78 2.05 0 2.83s2.05.78 2.83 0L16.45 12a.996.996 0 1 0 1.41-1.41z"/></symbol><symbol id="hd-icon-ic-twotone-plus" viewBox="0 0 24 24"><path fill="currentColor" d="M19 12.998h-6v6h-2v-6H5v-2h6v-6h2v6h6z"/></symbol><symbol id="hd-icon-ic-twotone-plus-minus" viewBox="0 0 24 24"><path fill="currentColor" d="M19 10.998h-6v6h-2v-6H5v-2h6v-6h2v6h6zm0 10H5v-2h14z"/></symbol><symbol id="hd-icon-ic-twotone-plus-minus-alt" viewBox="0 0 24 24"><path fill="currentColor" d="M12 7.998H8v4H6v-4H2v-2h4v-4h2v4h4zm10 10h-8v-2h8zM18.5 4L4 18.5L5.5 20L20 5.5z"/></symbol><symbol id="hd-icon-ic-twotone-plus-one" viewBox="0 0 24 24"><path fill="currentColor" d="M10 8H8v4H4v2h4v4h2v-4h4v-2h-4zm4.5-1.92V7.9l2.5-.5V18h2V5z"/></symbol><symbol id="hd-icon-ic-twotone-podcasts" viewBox="0 0 24 24"><path fill="currentColor" d="M14 12c0 .74-.4 1.38-1 1.72V22h-2v-8.28c-.6-.35-1-.98-1-1.72c0-1.1.9-2 2-2s2 .9 2 2m-2-6c-3.31 0-6 2.69-6 6c0 1.74.75 3.31 1.94 4.4l1.42-1.42A3.96 3.96 0 0 1 8 12c0-2.21 1.79-4 4-4s4 1.79 4 4c0 1.19-.53 2.25-1.36 2.98l1.42 1.42A5.96 5.96 0 0 0 18 12c0-3.31-2.69-6-6-6m0-4C6.48 2 2 6.48 2 12c0 2.85 1.2 5.41 3.11 7.24l1.42-1.42A8 8 0 0 1 4 12c0-4.41 3.59-8 8-8s8 3.59 8 8c0 2.29-.98 4.36-2.53 5.82l1.42 1.42C20.8 17.41 22 14.85 22 12c0-5.52-4.48-10-10-10"/></symbol><symbol id="hd-icon-ic-twotone-point-of-sale" viewBox="0 0 24 24"><path fill="currentColor" d="M9.5 16h-1c-.28 0-.5-.22-.5-.5s.22-.5.5-.5h1c.28 0 .5.22.5.5s-.22.5-.5.5m.5-2.5c0-.28-.22-.5-.5-.5h-1c-.28 0-.5.22-.5.5s.22.5.5.5h1c.28 0 .5-.22.5-.5m0-2c0-.28-.22-.5-.5-.5h-1c-.28 0-.5.22-.5.5s.22.5.5.5h1c.28 0 .5-.22.5-.5m3 4c0-.28-.22-.5-.5-.5h-1c-.28 0-.5.22-.5.5s.22.5.5.5h1c.28 0 .5-.22.5-.5m0-2c0-.28-.22-.5-.5-.5h-1c-.28 0-.5.22-.5.5s.22.5.5.5h1c.28 0 .5-.22.5-.5m0-2c0-.28-.22-.5-.5-.5h-1c-.28 0-.5.22-.5.5s.22.5.5.5h1c.28 0 .5-.22.5-.5m3 4c0-.28-.22-.5-.5-.5h-1c-.28 0-.5.22-.5.5s.22.5.5.5h1c.28 0 .5-.22.5-.5m0-2c0-.28-.22-.5-.5-.5h-1c-.28 0-.5.22-.5.5s.22.5.5.5h1c.28 0 .5-.22.5-.5m0-2c0-.28-.22-.5-.5-.5h-1c-.28 0-.5.22-.5.5s.22.5.5.5h1c.28 0 .5-.22.5-.5M17 4H7v2h10z" opacity=".3"/><path fill="currentColor" d="M17 2H7c-1.1 0-2 .9-2 2v2c0 1.1.9 2 2 2h10c1.1 0 2-.9 2-2V4c0-1.1-.9-2-2-2m0 4H7V4h10zm3 16H4c-1.1 0-2-.9-2-2v-1h20v1c0 1.1-.9 2-2 2m-1.47-11.81A2.01 2.01 0 0 0 16.7 9H7.3c-.79 0-1.51.47-1.83 1.19L2 18h20zM9.5 16h-1c-.28 0-.5-.22-.5-.5s.22-.5.5-.5h1c.28 0 .5.22.5.5s-.22.5-.5.5m0-2h-1c-.28 0-.5-.22-.5-.5s.22-.5.5-.5h1c.28 0 .5.22.5.5s-.22.5-.5.5m0-2h-1c-.28 0-.5-.22-.5-.5s.22-.5.5-.5h1c.28 0 .5.22.5.5s-.22.5-.5.5m3 4h-1c-.28 0-.5-.22-.5-.5s.22-.5.5-.5h1c.28 0 .5.22.5.5s-.22.5-.5.5m0-2h-1c-.28 0-.5-.22-.5-.5s.22-.5.5-.5h1c.28 0 .5.22.5.5s-.22.5-.5.5m0-2h-1c-.28 0-.5-.22-.5-.5s.22-.5.5-.5h1c.28 0 .5.22.5.5s-.22.5-.5.5m3 4h-1c-.28 0-.5-.22-.5-.5s.22-.5.5-.5h1c.28 0 .5.22.5.5s-.22.5-.5.5m0-2h-1c-.28 0-.5-.22-.5-.5s.22-.5.5-.5h1c.28 0 .5.22.5.5s-.22.5-.5.5m0-2h-1c-.28 0-.5-.22-.5-.5s.22-.5.5-.5h1c.28 0 .5.22.5.5s-.22.5-.5.5"/></symbol><symbol id="hd-icon-ic-twotone-policy" viewBox="0 0 24 24"><path fill="currentColor" d="M5 6.3V11c0 4.52 2.98 8.69 7 9.93c1.74-.53 3.28-1.62 4.47-3.04l-1.72-1.72a4.994 4.994 0 0 1-6.29-.64a5.003 5.003 0 0 1 0-7.07a5.003 5.003 0 0 1 7.07 0a5.006 5.006 0 0 1 .64 6.29l1.45 1.45C18.49 14.65 19 12.85 19 11V6.3l-7-3.11z" opacity=".3"/><path fill="currentColor" d="M12 1L3 5v6c0 5.55 3.84 10.74 9 12c.65-.16 1.27-.38 1.87-.65c1.8-.82 3.36-2.13 4.57-3.74C20.04 16.46 21 13.77 21 11V5zm7 10c0 1.85-.51 3.65-1.38 5.21l-1.45-1.45a4.994 4.994 0 0 0-.64-6.29a5.003 5.003 0 0 0-7.07 0a5.003 5.003 0 0 0 0 7.07a5.006 5.006 0 0 0 6.29.64l1.72 1.72c-1.19 1.42-2.73 2.51-4.47 3.04c-4.02-1.25-7-5.42-7-9.94V6.3l7-3.11l7 3.11zm-4 1c0 1.66-1.34 3-3 3s-3-1.34-3-3s1.34-3 3-3s3 1.34 3 3"/></symbol><symbol id="hd-icon-ic-twotone-poll" viewBox="0 0 24 24"><path fill="currentColor" d="M5 19h14V5H5zm10-6h2v4h-2zm-4-6h2v10h-2zm-4 3h2v7H7z" opacity=".3"/><path fill="currentColor" d="M19 3H5c-1.1 0-2 .9-2 2v14c0 1.1.9 2 2 2h14c1.1 0 2-.9 2-2V5c0-1.1-.9-2-2-2m0 16H5V5h14zM7 10h2v7H7zm4-3h2v10h-2zm4 6h2v4h-2z"/></symbol><symbol id="hd-icon-ic-twotone-polyline" viewBox="0 0 24 24"><path fill="currentColor" d="M12 4h2v2h-2zM7 14H5v-2h2zm12 6h-2v-2h2z" opacity=".3"/><path fill="currentColor" d="M15 16v1.26l-6-3v-3.17L11.7 8H16V2h-6v4.9L7.3 10H3v6h5l7 3.5V22h6v-6zM12 4h2v2h-2zM7 14H5v-2h2zm12 6h-2v-2h2z"/></symbol><symbol id="hd-icon-ic-twotone-polymer" viewBox="0 0 24 24"><path fill="currentColor" d="M19 4h-4L7.11 16.63L4.5 12L9 4H5L.5 12L5 20h4l7.89-12.63L19.5 12L15 20h4l4.5-8z"/></symbol><symbol id="hd-icon-ic-twotone-pool" viewBox="0 0 24 24"><path fill="currentColor" d="M22 21c-1.11 0-1.73-.37-2.18-.64c-.37-.22-.6-.36-1.15-.36c-.56 0-.78.13-1.15.36c-.46.27-1.07.64-2.18.64s-1.73-.37-2.18-.64c-.37-.22-.6-.36-1.15-.36c-.56 0-.78.13-1.15.36c-.46.27-1.08.64-2.19.64s-1.73-.37-2.18-.64c-.37-.23-.6-.36-1.15-.36s-.78.13-1.15.36c-.46.27-1.08.64-2.19.64v-2c.56 0 .78-.13 1.15-.36c.46-.27 1.08-.64 2.19-.64s1.73.37 2.18.64c.37.23.59.36 1.15.36s.78-.13 1.15-.36c.46-.27 1.08-.64 2.19-.64s1.73.37 2.18.64c.37.22.6.36 1.15.36s.78-.13 1.15-.36c.45-.27 1.07-.64 2.18-.64s1.73.37 2.18.64c.37.23.59.36 1.15.36zm0-4.5c-1.11 0-1.73-.37-2.18-.64c-.37-.22-.6-.36-1.15-.36c-.56 0-.78.13-1.15.36c-.45.27-1.07.64-2.18.64s-1.73-.37-2.18-.64c-.37-.22-.6-.36-1.15-.36c-.56 0-.78.13-1.15.36c-.45.27-1.07.64-2.18.64s-1.73-.37-2.18-.64c-.37-.22-.6-.36-1.15-.36s-.78.13-1.15.36c-.47.27-1.09.64-2.2.64v-2c.56 0 .78-.13 1.15-.36c.45-.27 1.07-.64 2.18-.64s1.73.37 2.18.64c.37.22.6.36 1.15.36c.56 0 .78-.13 1.15-.36c.45-.27 1.07-.64 2.18-.64s1.73.37 2.18.64c.37.22.6.36 1.15.36s.78-.13 1.15-.36c.45-.27 1.07-.64 2.18-.64s1.73.37 2.18.64c.37.22.6.36 1.15.36v2zM8.67 12c.56 0 .78-.13 1.15-.36c.46-.27 1.08-.64 2.19-.64s1.73.37 2.18.64c.37.22.6.36 1.15.36s.78-.13 1.15-.36c.12-.07.26-.15.41-.23L10.48 5C8.93 3.45 7.5 2.99 5 3v2.5c1.82-.01 2.89.39 4 1.5l1 1l-3.25 3.25c.31.12.56.27.77.39c.37.23.59.36 1.15.36" opacity=".3"/><circle cx="16.5" cy="5.5" r="2.5" fill="currentColor" opacity=".3"/><path fill="currentColor" d="M22 16.5h-.02zM10 8l-3.25 3.25c.31.12.56.27.77.39c.37.23.59.36 1.15.36s.78-.13 1.15-.36c.46-.27 1.08-.64 2.19-.64s1.73.37 2.18.64c.37.22.6.36 1.15.36s.78-.13 1.15-.36c.12-.07.26-.15.41-.23L10.48 5C8.93 3.45 7.5 2.99 5 3v2.5c1.82-.01 2.89.39 4 1.5zm-4.65 7.5c.55 0 .78.14 1.15.36c.45.27 1.07.64 2.18.64s1.73-.37 2.18-.64c.37-.23.59-.36 1.15-.36c.55 0 .78.14 1.15.36c.45.27 1.07.64 2.18.64s1.73-.37 2.18-.64c.37-.23.59-.36 1.15-.36c.55 0 .78.14 1.15.36c.45.27 1.06.63 2.16.64v-2c-.55 0-.78-.14-1.15-.36c-.45-.27-1.07-.64-2.18-.64s-1.73.37-2.18.64c-.37.23-.6.36-1.15.36s-.78-.14-1.15-.36c-.45-.27-1.07-.64-2.18-.64s-1.73.37-2.18.64c-.37.23-.59.36-1.15.36c-.55 0-.78-.14-1.15-.36c-.45-.27-1.07-.64-2.18-.64s-1.73.37-2.18.64c-.37.23-.59.36-1.15.36v2c1.11 0 1.73-.37 2.2-.64c.37-.23.6-.36 1.15-.36M18.67 18c-1.11 0-1.73.37-2.18.64c-.37.23-.6.36-1.15.36s-.78-.14-1.15-.36c-.45-.27-1.07-.64-2.18-.64s-1.73.37-2.19.64c-.37.23-.59.36-1.15.36s-.78-.13-1.15-.36c-.45-.27-1.07-.64-2.18-.64s-1.73.37-2.19.64c-.37.23-.59.36-1.15.36v2c1.11 0 1.73-.37 2.19-.64c.37-.23.6-.36 1.15-.36s.78.13 1.15.36c.45.27 1.07.64 2.18.64s1.73-.37 2.19-.64c.37-.23.59-.36 1.15-.36c.55 0 .78.14 1.15.36c.45.27 1.07.64 2.18.64s1.72-.37 2.18-.64c.37-.23.59-.36 1.15-.36c.55 0 .78.14 1.15.36c.45.27 1.07.64 2.18.64v-2c-.56 0-.78-.13-1.15-.36c-.45-.27-1.07-.64-2.18-.64"/><circle cx="16.5" cy="5.5" r="2.5" fill="currentColor"/></symbol><symbol id="hd-icon-ic-twotone-portable-wifi-off" viewBox="0 0 24 24"><path fill="currentColor" d="M3.42 2.36L2.01 3.78L4.1 5.87C2.79 7.57 2 9.69 2 12c0 3.7 2.01 6.92 4.99 8.65l1-1.73C5.61 17.53 4 14.96 4 12c0-1.76.57-3.38 1.53-4.69l1.43 1.44C6.36 9.68 6 10.8 6 12c0 2.22 1.21 4.15 3 5.19l1-1.74c-1.19-.7-2-1.97-2-3.45c0-.65.17-1.25.44-1.79l1.58 1.58L10 12c0 1.1.9 2 2 2l.21-.02l7.52 7.52l1.41-1.41zm14.29 11.46c.18-.57.29-1.19.29-1.82c0-3.31-2.69-6-6-6c-.63 0-1.25.11-1.82.29l1.72 1.72c.03 0 .06-.01.1-.01c2.21 0 4 1.79 4 4c0 .04-.01.07-.01.11zM12 4c4.42 0 8 3.58 8 8c0 1.2-.29 2.32-.77 3.35l1.49 1.49A9.8 9.8 0 0 0 22 12c0-5.52-4.48-10-10-10c-1.76 0-3.4.48-4.84 1.28l1.48 1.48C9.66 4.28 10.8 4 12 4"/></symbol><symbol id="hd-icon-ic-twotone-portrait" viewBox="0 0 24 24"><path fill="currentColor" d="M5 19h14V5H5zm7-13c1.65 0 3 1.35 3 3s-1.35 3-3 3s-3-1.35-3-3s1.35-3 3-3M6 16.58C6 14.08 9.97 13 12 13s6 1.08 6 3.58V18H6z" opacity=".3"/><path fill="currentColor" d="M12 12c1.65 0 3-1.35 3-3s-1.35-3-3-3s-3 1.35-3 3s1.35 3 3 3m0-4c.55 0 1 .45 1 1s-.45 1-1 1s-1-.45-1-1s.45-1 1-1m6 8.58c0-2.5-3.97-3.58-6-3.58s-6 1.08-6 3.58V18h12zM8.48 16c.74-.51 2.23-1 3.52-1s2.78.49 3.52 1zM19 3H5a2 2 0 0 0-2 2v14a2 2 0 0 0 2 2h14c1.1 0 2-.9 2-2V5c0-1.1-.9-2-2-2m0 16H5V5h14z"/></symbol><symbol id="hd-icon-ic-twotone-post-add" viewBox="0 0 24 24"><path fill="currentColor" d="M17 19.22H5V7h7V5H5c-1.1 0-2 .9-2 2v12c0 1.1.9 2 2 2h12c1.1 0 2-.9 2-2v-7h-2z"/><path fill="currentColor" d="M19 2h-2v3h-3c.01.01 0 2 0 2h3v2.99c.01.01 2 0 2 0V7h3V5h-3zM7 9h8v2H7zm0 3v2h8v-2h-3zm0 3h8v2H7z"/></symbol><symbol id="hd-icon-ic-twotone-power" viewBox="0 0 24 24"><path fill="currentColor" d="m8 13.65l3.5 3.52V19h1v-1.83l3.5-3.51V9H8z" opacity=".3"/><path fill="currentColor" d="M16 7V3h-2v4h-4V3H8v4h-.01C6.89 7 6 7.89 6 8.98v5.52L9.5 18v3h5v-3l3.5-3.5V9c0-1.1-.9-2-2-2m0 6.66l-3.5 3.51V19h-1v-1.83L8 13.65V9h8z"/></symbol><symbol id="hd-icon-ic-twotone-power-input" viewBox="0 0 24 24"><path fill="currentColor" d="M2 9v2h19V9zm0 6h5v-2H2zm7 0h5v-2H9zm7 0h5v-2h-5z"/></symbol><symbol id="hd-icon-ic-twotone-power-off" viewBox="0 0 24 24"><path fill="currentColor" d="M12.12 9L16 12.88V9zm-.62 8.17V19h1v-1.83l1.07-1.06L8 10.54v3.11z" opacity=".3"/><path fill="currentColor" d="M10 3H8v1.88l2 2zm6 6v3.88l1.8 1.8l.2-.2V9c0-1.1-.9-2-2-2V3h-2v4h-3.88l2 2zM4.12 3.84L2.71 5.25L6 8.54v5.96L9.5 18v3h5v-3l.48-.48l4.47 4.47l1.41-1.41zm8.38 13.33V19h-1v-1.83L8 13.65v-3.11l5.57 5.57z"/></symbol><symbol id="hd-icon-ic-twotone-power-settings-new" viewBox="0 0 24 24"><path fill="currentColor" d="M13 3h-2v10h2zm4.83 2.17l-1.42 1.42A6.92 6.92 0 0 1 19 12c0 3.87-3.13 7-7 7A6.995 6.995 0 0 1 7.58 6.58L6.17 5.17A8.93 8.93 0 0 0 3 12a9 9 0 0 0 18 0c0-2.74-1.23-5.18-3.17-6.83"/></symbol><symbol id="hd-icon-ic-twotone-precision-manufacturing" viewBox="0 0 24 24"><path fill="currentColor" d="m6.71 10l2.46 8h1.94l-4.3-8z" opacity=".3"/><circle cx="6" cy="7" r="1" fill="currentColor" opacity=".3"/><path fill="currentColor" d="m19.93 8.35l-3.6 1.68L14 7.7V6.3l2.33-2.33l3.6 1.68c.38.18.82.01 1-.36c.18-.38.01-.82-.36-1l-3.92-1.83a.99.99 0 0 0-1.13.2L13.78 4.4A.98.98 0 0 0 13 4c-.55 0-1 .45-1 1v1H8.82C8.4 4.84 7.3 4 6 4C4.34 4 3 5.34 3 7c0 1.1.6 2.05 1.48 2.58L7.08 18H6c-1.1 0-2 .9-2 2v1h13v-1c0-1.1-.9-2-2-2h-1.62L8.41 8.77c.17-.24.31-.49.41-.77H12v1c0 .55.45 1 1 1c.32 0 .6-.16.78-.4l1.74 1.74c.3.3.75.38 1.13.2l3.92-1.83c.38-.18.54-.62.36-1a.753.753 0 0 0-1-.36M6 8c-.55 0-1-.45-1-1s.45-1 1-1s1 .45 1 1s-.45 1-1 1m5.11 10H9.17l-2.46-8h.1z"/></symbol><symbol id="hd-icon-ic-twotone-pregnant-woman" viewBox="0 0 24 24"><path fill="currentColor" d="M9 4c0-1.11.89-2 2-2s2 .89 2 2s-.89 2-2 2s-2-.89-2-2m7 9a3.29 3.29 0 0 0-2-3c0-1.66-1.34-3-3-3s-3 1.34-3 3v7h2v5h3v-5h3z"/></symbol><symbol id="hd-icon-ic-twotone-present-to-all" viewBox="0 0 24 24"><path fill="currentColor" d="M3 19.02h18V4.98H3zM12 8l4 4h-2v4h-4v-4H8z" opacity=".3"/><path fill="currentColor" d="M10 16h4v-4h2l-4-4l-4 4h2zM21 3H3c-1.11 0-2 .89-2 2v14c0 1.11.89 2 2 2h18c1.11 0 2-.89 2-2V5c0-1.11-.89-2-2-2m0 16.02H3V4.98h18z"/></symbol><symbol id="hd-icon-ic-twotone-preview" viewBox="0 0 24 24"><path fill="currentColor" d="M19 19H5V7h14zm-7-8.5c1.84 0 3.48.96 4.34 2.5c-.86 1.54-2.5 2.5-4.34 2.5s-3.48-.96-4.34-2.5c.86-1.54 2.5-2.5 4.34-2.5M12 9c-2.73 0-5.06 1.66-6 4c.94 2.34 3.27 4 6 4s5.06-1.66 6-4c-.94-2.34-3.27-4-6-4m0 5.5c-.83 0-1.5-.67-1.5-1.5s.67-1.5 1.5-1.5s1.5.67 1.5 1.5s-.67 1.5-1.5 1.5" opacity=".3"/><path fill="currentColor" d="M19 3H5a2 2 0 0 0-2 2v14a2 2 0 0 0 2 2h14c1.1 0 2-.9 2-2V5a2 2 0 0 0-2-2m0 16H5V7h14zm-7-8.5c1.84 0 3.48.96 4.34 2.5c-.86 1.54-2.5 2.5-4.34 2.5s-3.48-.96-4.34-2.5c.86-1.54 2.5-2.5 4.34-2.5M12 9c-2.73 0-5.06 1.66-6 4c.94 2.34 3.27 4 6 4s5.06-1.66 6-4c-.94-2.34-3.27-4-6-4m0 5.5c-.83 0-1.5-.67-1.5-1.5s.67-1.5 1.5-1.5s1.5.67 1.5 1.5s-.67 1.5-1.5 1.5"/></symbol><symbol id="hd-icon-ic-twotone-price-change" viewBox="0 0 24 24"><path fill="currentColor" d="M4 18h16V6H4zM16 8l2 2h-4zm2 6.25l-2 2l-2-2zM6 14h4v-1H7c-.55 0-1-.45-1-1V9c0-.55.45-1 1-1h1V7h2v1h2v2H8v1h3c.55 0 1 .45 1 1v3c0 .55-.45 1-1 1h-1v1H8v-1H6z" opacity=".3"/><path fill="currentColor" d="M20 4H4c-1.11 0-1.99.89-1.99 2L2 18c0 1.11.89 2 2 2h16c1.11 0 2-.89 2-2V6c0-1.11-.89-2-2-2m0 14H4V6h16z"/><path fill="currentColor" d="M8 17h2v-1h1c.55 0 1-.45 1-1v-3c0-.55-.45-1-1-1H8v-1h4V8h-2V7H8v1H7c-.55 0-1 .45-1 1v3c0 .55.45 1 1 1h3v1H6v2h2zm8-9l-2 2h4zm2 6.25h-4l2 2z"/></symbol><symbol id="hd-icon-ic-twotone-price-check" viewBox="0 0 24 24"><path fill="currentColor" d="M11 13V9c0-.55-.45-1-1-1H6V6h5V4H8.5V3h-2v1H5c-.55 0-1 .45-1 1v4c0 .55.45 1 1 1h4v2H4v2h2.5v1h2v-1H10c.55 0 1-.45 1-1m8.59-.48l-5.66 5.65l-2.83-2.83l-1.41 1.42L13.93 21L21 13.93z"/></symbol><symbol id="hd-icon-ic-twotone-print" viewBox="0 0 24 24"><path fill="currentColor" d="M8 5h8v3H8z" opacity=".3"/><circle cx="18" cy="11.5" r="1" fill="currentColor"/><path fill="currentColor" d="M19 8h-1V3H6v5H5c-1.66 0-3 1.34-3 3v6h4v4h12v-4h4v-6c0-1.66-1.34-3-3-3M8 5h8v3H8zm8 14H8v-4h8zm4-4h-2v-2H6v2H4v-4c0-.55.45-1 1-1h14c.55 0 1 .45 1 1z"/><path fill="currentColor" d="M6 13h12v2h2v-4c0-.55-.45-1-1-1H5c-.55 0-1 .45-1 1v4h2zm12-2.5c.55 0 1 .45 1 1s-.45 1-1 1s-1-.45-1-1s.45-1 1-1" opacity=".3"/></symbol><symbol id="hd-icon-ic-twotone-print-disabled" viewBox="0 0 24 24"><path fill="currentColor" d="M7 10H5c-.55 0-1 .45-1 1v4h2v-2h4z" opacity=".3"/><path fill="currentColor" d="M1.41 1.6L0 3.01L5 8c-1.66 0-3 1.34-3 3v6h4v4h12l2.95 2.96l1.41-1.41zM6 15H4v-4c0-.55.45-1 1-1h2l3 3H6zm2 4v-4h4l4 4z"/><path fill="currentColor" d="m18 15.01l2-.01v-4c0-.55-.45-1-1-1h-6.34l3 3H18zm-1-3.5c0-.55.45-1 1-1s1 .45 1 1s-.45 1-1 1s-1-.45-1-1" opacity=".3"/><circle cx="18" cy="11.51" r="1" fill="currentColor"/><path fill="currentColor" d="M16 5H8v.35L10.66 8H16z" opacity=".3"/><path fill="currentColor" d="M19 8h-1V3H6v.36l2 2V5h8v3h-5.34l2 2H19c.55 0 1 .45 1 1v4l-2 .01V13h-2.34l4 4H22v-6c0-1.66-1.34-3-3-3"/></symbol><symbol id="hd-icon-ic-twotone-priority-high" viewBox="0 0 24 24"><circle cx="12" cy="19" r="2" fill="currentColor"/><path fill="currentColor" d="M10 3h4v12h-4z"/></symbol><symbol id="hd-icon-ic-twotone-privacy-tip" viewBox="0 0 24 24"><path fill="currentColor" d="M12 3.19L5 6.3V11c0 4.52 2.98 8.69 7 9.93c4.02-1.23 7-5.41 7-9.93V6.3zM13 17h-2v-6h2zm0-8h-2V7h2z" opacity=".3"/><path fill="currentColor" d="m12 3.19l7 3.11V11c0 4.52-2.98 8.69-7 9.93c-4.02-1.24-7-5.41-7-9.93V6.3zM12 1L3 5v6c0 5.55 3.84 10.74 9 12c5.16-1.26 9-6.45 9-12V5zm-1 6h2v2h-2zm0 4h2v6h-2z"/></symbol><symbol id="hd-icon-ic-twotone-private-connectivity" viewBox="0 0 24 24"><path fill="currentColor" d="M12 7c-2.76 0-5 2.24-5 5s2.24 5 5 5s5-2.24 5-5s-2.24-5-5-5m3 7.5c0 .55-.45 1-1 1h-4c-.55 0-1-.45-1-1v-3c0-.55.45-1 1-1v-1a2 2 0 0 1 2.34-1.97c.98.16 1.66 1.08 1.66 2.08v.89c.55 0 1 .45 1 1zM12.75 13c0 .41-.34.75-.75.75s-.75-.34-.75-.75s.34-.75.75-.75s.75.34.75.75M13 9.5v1h-2v-1c0-.55.45-1 1-1s1 .45 1 1" opacity=".3"/><path fill="currentColor" d="M12 7c2.76 0 5 2.24 5 5s-2.24 5-5 5s-5-2.24-5-5s2.24-5 5-5m-6.93 6c.49 3.39 3.4 6 6.93 6s6.44-2.61 6.93-6H22v-2h-3.07c-.49-3.39-3.4-6-6.93-6s-6.44 2.61-6.93 6H2v2zM14 10.5v-.89c0-1-.68-1.92-1.66-2.08A2 2 0 0 0 10 9.5v1c-.55 0-1 .45-1 1v3c0 .55.45 1 1 1h4c.55 0 1-.45 1-1v-3c0-.55-.45-1-1-1m-2 3.25c-.41 0-.75-.34-.75-.75s.34-.75.75-.75s.75.34.75.75s-.34.75-.75.75m1-3.25h-2v-1c0-.55.45-1 1-1s1 .45 1 1z"/></symbol><symbol id="hd-icon-ic-twotone-production-quantity-limits" viewBox="0 0 24 24"><path fill="currentColor" d="M13 10h-2V8h2zm0-4h-2V1h2zM7 18c-1.1 0-1.99.9-1.99 2S5.9 22 7 22s2-.9 2-2s-.9-2-2-2m10 0c-1.1 0-1.99.9-1.99 2s.89 2 1.99 2s2-.9 2-2s-.9-2-2-2m-8.9-5h7.45c.75 0 1.41-.41 1.75-1.03L21 4.96L19.25 4l-3.7 7H8.53L4.27 2H1v2h2l3.6 7.59l-1.35 2.44C4.52 15.37 5.48 17 7 17h12v-2H7z"/></symbol><symbol id="hd-icon-ic-twotone-propane" viewBox="0 0 24 24"><path fill="currentColor" d="M17 8H7c-2.21 0-4 1.79-4 4s1.79 4 4 4h10c2.21 0 4-1.79 4-4s-1.79-4-4-4" opacity=".3"/><path fill="currentColor" d="M17 6h-1V5c0-1.1-.9-2-2-2h-4c-1.1 0-2 .9-2 2v1H7c-3.31 0-6 2.69-6 6s2.69 6 6 6v3h2v-3h6v3h2v-3c3.31 0 6-2.69 6-6s-2.69-6-6-6m-7-1h4v1h-4zm7 11H7c-2.21 0-4-1.79-4-4s1.79-4 4-4h10c2.21 0 4 1.79 4 4s-1.79 4-4 4"/></symbol><symbol id="hd-icon-ic-twotone-propane-tank" viewBox="0 0 24 24"><path fill="currentColor" d="M6 18c0 1.1.9 2 2 2h8c1.1 0 2-.9 2-2v-3H6zM16 8H8c-1.1 0-2 .9-2 2v3h12v-3c0-1.1-.9-2-2-2" opacity=".3"/><path fill="currentColor" d="M17 6.14V4c0-1.1-.9-2-2-2H9c-1.1 0-2 .9-2 2v2.14c-1.72.45-3 2-3 3.86v8c0 2.21 1.79 4 4 4h8c2.21 0 4-1.79 4-4v-8c0-1.86-1.28-3.41-3-3.86M9 4h6v2h-2c0-.55-.45-1-1-1s-1 .45-1 1H9zm9 14c0 1.1-.9 2-2 2H8c-1.1 0-2-.9-2-2v-3h12zm0-5H6v-3c0-1.1.9-2 2-2h8c1.1 0 2 .9 2 2z"/></symbol><symbol id="hd-icon-ic-twotone-psychology" viewBox="0 0 24 24"><path fill="currentColor" d="M13 5c-2.65 0-4.79 2.06-4.97 4.67L6.7 12H8v4h3v3h3v-3.95l.89-.43A4.99 4.99 0 0 0 18 10c0-2.76-2.24-5-5-5m3.82 3.95l-.85.66q.03.18.03.39c0 .13-.01.26-.02.39l.83.66c.08.06.1.16.05.25l-.8 1.39c-.05.09-.16.12-.24.09l-.99-.4c-.21.16-.43.29-.67.39L14 13.83c-.01.1-.1.17-.2.17h-1.6c-.1 0-.18-.07-.2-.17l-.15-1.06c-.25-.1-.47-.23-.68-.39l-.99.4c-.09.03-.2 0-.25-.09l-.8-1.39a.19.19 0 0 1 .05-.25l.84-.66c-.01-.13-.02-.26-.02-.39s.02-.27.04-.39l-.85-.66c-.08-.06-.1-.16-.05-.26l.8-1.38c.05-.09.15-.12.24-.09l1 .4c.2-.15.43-.29.67-.39L12 6.17c.02-.1.1-.17.2-.17h1.6c.1 0 .18.07.2.17l.15 1.06c.24.1.46.23.67.39l1-.4c.09-.03.2 0 .24.09l.8 1.38c.05.09.03.2-.04.26" opacity=".3"/><path fill="currentColor" d="m15.82 7.22l-1 .4c-.21-.16-.43-.29-.67-.39L14 6.17c-.02-.1-.1-.17-.2-.17h-1.6c-.1 0-.18.07-.19.17l-.15 1.06c-.24.1-.47.23-.67.39l-1-.4c-.09-.03-.2 0-.24.09l-.8 1.38a.2.2 0 0 0 .05.26l.85.66c-.03.12-.05.26-.05.39s.01.26.03.39l-.84.66a.19.19 0 0 0-.05.25l.8 1.39c.05.09.15.12.25.09l.99-.4c.21.16.43.29.68.39l.14 1.06c.02.1.1.17.2.17h1.6c.1 0 .18-.07.2-.17l.15-1.06c.24-.1.47-.23.67-.39l.99.4c.09.04.2 0 .24-.09l.8-1.39c.05-.09.03-.19-.05-.25l-.83-.66a2.6 2.6 0 0 0 0-.78l.85-.66a.2.2 0 0 0 .05-.26l-.8-1.38c-.05-.09-.16-.12-.25-.09M13 11.43a1.43 1.43 0 1 1 0-2.86a1.43 1.43 0 0 1 0 2.86"/><path fill="currentColor" d="M19.94 9.06c-.43-3.27-3.23-5.86-6.53-6.05C13.27 3 13.14 3 13 3C9.47 3 6.57 5.61 6.08 9l-1.93 3.48c-.41.66.07 1.52.85 1.52h1v2c0 1.1.9 2 2 2h1v3h7v-4.68a7.02 7.02 0 0 0 3.94-7.26m-5.05 5.57l-.89.42V19h-3v-3H8v-4H6.7l1.33-2.33C8.21 7.06 10.35 5 13 5c2.76 0 5 2.24 5 5c0 2.09-1.29 3.88-3.11 4.63"/></symbol><symbol id="hd-icon-ic-twotone-psychology-alt" viewBox="0 0 24 24"><path fill="currentColor" d="M13 5c-2.65 0-4.79 2.06-4.97 4.67L6.7 12H8v4h3v3h3v-3.95l.89-.42A5.015 5.015 0 0 0 18 10c0-2.76-2.24-5-5-5m-.5 9c-.41 0-.74-.33-.74-.74s.33-.73.74-.73s.73.32.73.73s-.31.74-.73.74m1.76-4.32c-.44.65-.86.85-1.09 1.27c-.09.17-.13.28-.13.82h-1.06c0-.29-.04-.75.18-1.16c.28-.51.83-.81 1.14-1.26c.33-.47.15-1.36-.8-1.36c-.62 0-.92.47-1.05.86l-.96-.4c.27-.78.97-1.45 2.01-1.45c.86 0 1.45.39 1.75.88c.26.43.41 1.22.01 1.8" opacity=".3"/><path fill="currentColor" d="M19.94 9.06C19.5 5.73 16.57 3 13 3C9.47 3 6.57 5.61 6.08 9l-1.93 3.48c-.41.66.07 1.52.85 1.52h1v2c0 1.1.9 2 2 2h1v3h7v-4.68a7.02 7.02 0 0 0 3.94-7.26m-5.05 5.57l-.89.42V19h-3v-3H8v-4H6.7l1.33-2.33C8.21 7.06 10.35 5 13 5c2.76 0 5 2.24 5 5c0 2.09-1.29 3.88-3.11 4.63"/><path fill="currentColor" d="M12.5 12.54c-.41 0-.74.31-.74.73c0 .41.33.74.74.74c.42 0 .73-.33.73-.74a.71.71 0 0 0-.73-.73m0-5.54c-1.03 0-1.74.67-2 1.45l.96.4c.13-.39.43-.86 1.05-.86c.95 0 1.13.89.8 1.36c-.32.45-.86.75-1.14 1.26c-.23.4-.18.87-.18 1.16h1.06c0-.55.04-.65.13-.82c.23-.42.65-.62 1.09-1.27c.4-.59.25-1.38-.01-1.8c-.31-.49-.9-.88-1.76-.88"/></symbol><symbol id="hd-icon-ic-twotone-public" viewBox="0 0 24 24"><path fill="currentColor" d="M14.99 4.59V5c0 1.1-.9 2-2 2h-2v2c0 .55-.45 1-1 1h-2v2h6c.55 0 1 .45 1 1v3h1c.89 0 1.64.59 1.9 1.4A8 8 0 0 0 20 12c0-3.35-2.08-6.23-5.01-7.41M8.99 16v-1l-4.78-4.78C4.08 10.79 4 11.39 4 12c0 4.07 3.06 7.43 6.99 7.93V18c-1.1 0-2-.9-2-2" opacity=".3"/><path fill="currentColor" d="M12 2C6.48 2 2 6.48 2 12s4.48 10 10 10s10-4.48 10-10S17.52 2 12 2m-1.01 17.93C7.06 19.43 4 16.07 4 12c0-.61.08-1.21.21-1.78L8.99 15v1c0 1.1.9 2 2 2zm6.9-2.53c-.26-.81-1-1.4-1.9-1.4h-1v-3c0-.55-.45-1-1-1h-6v-2h2c.55 0 1-.45 1-1V7h2c1.1 0 2-.9 2-2v-.41C17.92 5.77 20 8.65 20 12c0 2.08-.81 3.98-2.11 5.4"/></symbol><symbol id="hd-icon-ic-twotone-public-off" viewBox="0 0 24 24"><path fill="currentColor" d="m11 8.17l7.88 7.88A7.84 7.84 0 0 0 20 12c0-3.35-2.07-6.22-5-7.41V5c0 1.1-.9 2-2 2h-2zM11 18c-1.1 0-2-.9-2-2v-1l-4.79-4.79C4.08 10.79 4 11.38 4 12c0 4.08 3.05 7.44 7 7.93z" opacity=".3"/><path fill="currentColor" d="M11 8.17L6.49 3.66A9.9 9.9 0 0 1 12 2c5.52 0 10 4.48 10 10c0 2.04-.61 3.93-1.66 5.51l-1.46-1.46A7.84 7.84 0 0 0 20 12c0-3.35-2.07-6.22-5-7.41V5c0 1.1-.9 2-2 2h-2zm10.19 13.02l-1.41 1.41l-2.27-2.27A9.84 9.84 0 0 1 12 22C6.48 22 2 17.52 2 12c0-2.04.61-3.93 1.66-5.51L1.39 4.22L2.8 2.81zM11 18c-1.1 0-2-.9-2-2v-1l-4.79-4.79C4.08 10.79 4 11.38 4 12c0 4.08 3.05 7.44 7 7.93z"/></symbol><symbol id="hd-icon-ic-twotone-publish" viewBox="0 0 24 24"><path fill="currentColor" d="M9.83 12H11v6h2v-6h1.17L12 9.83z" opacity=".3"/><path fill="currentColor" d="M5 4h14v2H5zm7 3l-7 7h4v6h6v-6h4zm1 5v6h-2v-6H9.83L12 9.83L14.17 12z"/></symbol><symbol id="hd-icon-ic-twotone-published-with-changes" viewBox="0 0 24 24"><path fill="currentColor" d="m17.66 9.53l-7.07 7.07l-4.24-4.24l1.41-1.41l2.83 2.83l5.66-5.66zM4 12c0-2.33 1.02-4.42 2.62-5.88L9 8.5v-6H3l2.2 2.2C3.24 6.52 2 9.11 2 12c0 5.19 3.95 9.45 9 9.95v-2.02c-3.94-.49-7-3.86-7-7.93m18 0c0-5.19-3.95-9.45-9-9.95v2.02c3.94.49 7 3.86 7 7.93c0 2.33-1.02 4.42-2.62 5.88L15 15.5v6h6l-2.2-2.2c1.96-1.82 3.2-4.41 3.2-7.3"/></symbol><symbol id="hd-icon-ic-twotone-punch-clock" viewBox="0 0 24 24"><path fill="currentColor" d="M8 3h8v3H8zM5 20h14V8H5zm7-11c2.76 0 5 2.24 5 5s-2.24 5-5 5s-5-2.24-5-5s2.24-5 5-5" opacity=".3"/><path fill="currentColor" d="M19 6h-1V1H6v5H5c-1.1 0-2 .9-2 2v12c0 1.1.9 2 2 2h14c1.1 0 2-.9 2-2V8c0-1.1-.9-2-2-2M8 3h8v3H8zm11 17H5V8h14z"/><path fill="currentColor" d="M12 19c2.76 0 5-2.24 5-5s-2.24-5-5-5s-5 2.24-5 5s2.24 5 5 5m0-8.5c1.93 0 3.5 1.57 3.5 3.5s-1.57 3.5-3.5 3.5s-3.5-1.57-3.5-3.5s1.57-3.5 3.5-3.5"/><path fill="currentColor" d="m13.85 15.14l-1.35-1.35V11.5h-1v2.71l1.64 1.64z"/></symbol><symbol id="hd-icon-ic-twotone-push-pin" viewBox="0 0 24 24"><path fill="currentColor" d="M14 4h-4v5c0 1.1-.35 2.14-1 3h6c-.63-.84-1-1.88-1-3z" opacity=".3"/><path fill="currentColor" d="M19 12c-1.66 0-3-1.34-3-3V4h1c.55 0 1-.45 1-1s-.45-1-1-1H7c-.55 0-1 .45-1 1s.45 1 1 1h1v5c0 1.66-1.34 3-3 3v2h5.97v7l1 1l1-1v-7H19zM9 12c.65-.86 1-1.9 1-3V4h4v5c0 1.12.37 2.16 1 3z"/></symbol><symbol id="hd-icon-ic-twotone-qr-code" viewBox="0 0 24 24"><path fill="currentColor" d="M5 15h4v4H5zM5 5h4v4H5zm10 0h4v4h-4z" opacity=".3"/><path fill="currentColor" d="M3 11h8V3H3zm2-6h4v4H5zM3 21h8v-8H3zm2-6h4v4H5zm8-12v8h8V3zm6 6h-4V5h4zm0 10h2v2h-2zm-6-6h2v2h-2zm2 2h2v2h-2zm-2 2h2v2h-2zm2 2h2v2h-2zm2-2h2v2h-2zm0-4h2v2h-2zm2 2h2v2h-2z"/></symbol><symbol id="hd-icon-ic-twotone-qr-code-2" viewBox="0 0 24 24"><path fill="currentColor" d="M15 21h-2v-2h2zm-2-7h-2v5h2zm8-2h-2v4h2zm-2-2h-2v2h2zM7 12H5v2h2zm-2-2H3v2h2zm7-5h2V3h-2zm-7.5-.5v3h3v-3zM9 9H3V3h6zm-4.5 7.5v3h3v-3zM9 21H3v-6h6zm7.5-16.5v3h3v-3zM21 9h-6V3h6zm-2 10v-3h-4v2h2v3h4v-2zm-2-7h-4v2h4zm-4-2H7v2h2v2h2v-2h2zm1-1V7h-2V5h-2v4zM6.75 5.25h-1.5v1.5h1.5zm0 12h-1.5v1.5h1.5zm12-12h-1.5v1.5h1.5z"/></symbol><symbol id="hd-icon-ic-twotone-qr-code-scanner" viewBox="0 0 24 24"><path fill="currentColor" d="M9.5 6.5v3h-3v-3zM11 5H5v6h6zm-1.5 9.5v3h-3v-3zM11 13H5v6h6zm6.5-6.5v3h-3v-3zM19 5h-6v6h6zm-6 8h1.5v1.5H13zm1.5 1.5H16V16h-1.5zM16 13h1.5v1.5H16zm-3 3h1.5v1.5H13zm1.5 1.5H16V19h-1.5zM16 16h1.5v1.5H16zm1.5-1.5H19V16h-1.5zm0 3H19V19h-1.5zM22 7h-2V4h-3V2h5zm0 15v-5h-2v3h-3v2zM2 22h5v-2H4v-3H2zM2 2v5h2V4h3V2z"/></symbol><symbol id="hd-icon-ic-twotone-qrcode" viewBox="0 0 24 24"><path fill="currentColor" d="M19 19h4v2h-2v2h-2zm-2-6h4v4h-2v-2h-2zm-4 0h2v2h2v6h-2v-2h-2zM3 3h6v6H3zm2 2v2h2V5zm10-2h6v6h-6zm2 2v2h2V5zM3 15h6v6H3zm2 2v2h2v-2z" opacity=".3"/><path fill="currentColor" d="M1 1h10v10H1zm2 2v6h6V3z"/><path fill="currentColor" fill-rule="evenodd" d="M5 5h2v2H5z"/><path fill="currentColor" d="M13 1h10v10H13zm2 2v6h6V3z"/><path fill="currentColor" fill-rule="evenodd" d="M17 5h2v2h-2z"/><path fill="currentColor" d="M1 13h10v10H1zm2 2v6h6v-6z"/><path fill="currentColor" fill-rule="evenodd" d="M5 17h2v2H5z"/><path fill="currentColor" d="M23 19h-4v4h-6V13h1h-1v6h2v2h2v-6h-2v-2h-1h3v2h2v2h2v-4h2zm0 2v2h-2v-2z"/></symbol><symbol id="hd-icon-ic-twotone-query-builder" viewBox="0 0 24 24"><path fill="currentColor" d="M12 4c-4.42 0-8 3.58-8 8s3.58 8 8 8s8-3.58 8-8s-3.58-8-8-8m4.25 12.15L11 13V7h1.5v5.25l4.5 2.67z" opacity=".3"/><path fill="currentColor" d="M11.99 2C6.47 2 2 6.48 2 12s4.47 10 9.99 10C17.52 22 22 17.52 22 12S17.52 2 11.99 2M12 20c-4.42 0-8-3.58-8-8s3.58-8 8-8s8 3.58 8 8s-3.58 8-8 8m.5-13H11v6l5.25 3.15l.75-1.23l-4.5-2.67z"/></symbol><symbol id="hd-icon-ic-twotone-query-stats" viewBox="0 0 24 24"><path fill="currentColor" d="M19.88 18.47c.44-.7.7-1.51.7-2.39c0-2.49-2.01-4.5-4.5-4.5s-4.5 2.01-4.5 4.5s2.01 4.5 4.49 4.5c.88 0 1.7-.26 2.39-.7L21.58 23L23 21.58zm-3.8.11a2.5 2.5 0 0 1 0-5a2.5 2.5 0 0 1 0 5m-.36-8.5c-.74.02-1.45.18-2.1.45l-.55-.83l-3.8 6.18l-3.01-3.52l-3.63 5.81L1 17l5-8l3 3.5L13 6zm2.59.5c-.64-.28-1.33-.45-2.05-.49L21.38 2L23 3.18z"/></symbol><symbol id="hd-icon-ic-twotone-question-answer" viewBox="0 0 24 24"><path fill="currentColor" d="M15 11V4H4v8.17l.59-.58l.58-.59H6z" opacity=".3"/><path fill="currentColor" d="M21 6h-2v9H6v2c0 .55.45 1 1 1h11l4 4V7c0-.55-.45-1-1-1m-5 7c.55 0 1-.45 1-1V3c0-.55-.45-1-1-1H3c-.55 0-1 .45-1 1v14l4-4zM4.59 11.59l-.59.58V4h11v7H5.17z"/></symbol><symbol id="hd-icon-ic-twotone-question-mark" viewBox="0 0 24 24"><path fill="currentColor" d="M11.07 12.85c.77-1.39 2.25-2.21 3.11-3.44c.91-1.29.4-3.7-2.18-3.7c-1.69 0-2.52 1.28-2.87 2.34L6.54 6.96C7.25 4.83 9.18 3 11.99 3c2.35 0 3.96 1.07 4.78 2.41c.7 1.15 1.11 3.3.03 4.9c-1.2 1.77-2.35 2.31-2.97 3.45c-.25.46-.35.76-.35 2.24h-2.89c-.01-.78-.13-2.05.48-3.15M14 20c0 1.1-.9 2-2 2s-2-.9-2-2s.9-2 2-2s2 .9 2 2"/></symbol><symbol id="hd-icon-ic-twotone-queue" viewBox="0 0 24 24"><path fill="currentColor" d="M8 16h12V4H8zm1-7h4V5h2v4h4v2h-4v4h-2v-4H9z" opacity=".3"/><path fill="currentColor" d="M2 20c0 1.1.9 2 2 2h14v-2H4V6H2zM20 2H8c-1.1 0-2 .9-2 2v12c0 1.1.9 2 2 2h12c1.1 0 2-.9 2-2V4c0-1.1-.9-2-2-2m0 14H8V4h12zm-7-1h2v-4h4V9h-4V5h-2v4H9v2h4z"/></symbol><symbol id="hd-icon-ic-twotone-queue-music" viewBox="0 0 24 24"><circle cx="16" cy="17" r="1" fill="currentColor" opacity=".3"/><path fill="currentColor" d="M3 10h12v2H3zm0 4h8v2H3zm0-8h12v2H3zm14 8.18c-.31-.11-.65-.18-1-.18c-1.66 0-3 1.34-3 3s1.34 3 3 3s3-1.34 3-3V8h3V6h-5z"/></symbol><symbol id="hd-icon-ic-twotone-queue-play-next" viewBox="0 0 24 24"><path fill="currentColor" d="M13 15v-3h3v-2h-3V7h-2v3H8v2h3v3zm5 0l3 3l-3 3l1.5 1.5L24 18l-4.5-4.5zM8 19v2h8v-2h2v-2H3V5h18v8h2V5a2 2 0 0 0-2-2H3c-1.11 0-2 .89-2 2v12a2 2 0 0 0 2 2z"/></symbol><symbol id="hd-icon-ic-twotone-quickreply" viewBox="0 0 24 24"><path fill="currentColor" d="M4 4v13.17L5.17 16H15v-6h5V4z" opacity=".3"/><path fill="currentColor" d="M5.17 16L4 17.17V4h16v6h2V4c0-1.1-.9-2-2-2H4c-1.1 0-1.99.9-1.99 2L2 22l4-4h9v-2z"/><path fill="currentColor" d="m19 23l3.5-7h-2.2l1.7-4h-5v6h2z"/></symbol><symbol id="hd-icon-ic-twotone-quiz" viewBox="0 0 24 24"><path fill="currentColor" d="M8 4v12h12V4zm6.74 10.69a.96.96 0 0 1-.73.31c-.29 0-.54-.1-.74-.31a1 1 0 0 1-.31-.74c0-.29.1-.54.31-.74s.45-.3.74-.3s.54.1.74.3s.3.45.3.74s-.11.54-.31.74m1.77-5.86c-.23.34-.54.69-.92 1.06c-.3.27-.51.52-.64.75q-.18.345-.18.78v.4h-1.52v-.56c0-.42.09-.78.26-1.09c.18-.32.49-.67.95-1.07c.32-.29.55-.54.69-.74q.21-.3.21-.72q0-.54-.36-.87c-.24-.23-.57-.34-.99-.34c-.4 0-.72.12-.97.36s-.42.53-.53.87l-1.37-.57c.18-.55.52-1.03 1-1.45c.49-.43 1.11-.64 1.85-.64c.56 0 1.05.11 1.49.33q.66.33 1.02.93c.36.6.36.84.36 1.33s-.11.9-.35 1.24" opacity=".3"/><path fill="currentColor" d="M4 6H2v14c0 1.1.9 2 2 2h14v-2H4zm16-4H8c-1.1 0-2 .9-2 2v12c0 1.1.9 2 2 2h12c1.1 0 2-.9 2-2V4c0-1.1-.9-2-2-2m0 14H8V4h12zm-6.49-5.84c.41-.73 1.18-1.16 1.63-1.8c.48-.68.21-1.94-1.14-1.94c-.88 0-1.32.67-1.5 1.23l-1.37-.57C11.51 5.96 12.52 5 13.99 5c1.23 0 2.08.56 2.51 1.26c.37.6.58 1.73.01 2.57c-.63.93-1.23 1.21-1.56 1.81c-.13.24-.18.4-.18 1.18h-1.52c.01-.41-.06-1.08.26-1.66m-.56 3.79c0-.59.47-1.04 1.05-1.04c.59 0 1.04.45 1.04 1.04c0 .58-.44 1.05-1.04 1.05c-.58 0-1.05-.47-1.05-1.05"/></symbol><symbol id="hd-icon-ic-twotone-quora" viewBox="0 0 24 24"><path fill="currentColor" d="M20.94 17.46h-1.11c-.06.52-.4 1.17-1.25 1.17c-.78 0-1.34-.54-1.88-1.36a7.23 7.23 0 0 0 2.84-5.81C19.54 7 15.86 4 12.01 4C8.21 4 4.5 7.03 4.5 11.47c0 4.4 3.71 7.43 7.51 7.43c.66 0 1.32-.09 1.95-.26c.74 1.27 1.73 2.36 3.6 2.36c3.1 0 3.45-2.86 3.38-3.54m-5.45-2.18c-.73-1.11-1.66-1.98-3.46-1.98c-1.16 0-2.06.38-2.62.86l.46.92c.24-.11.49-.15.75-.15c1.35 0 2.04 1.17 2.63 2.33c-.38.11-.79.16-1.24.16c-2.85 0-4.08-2.01-4.08-5.95c0-3.96 1.23-5.99 4.08-5.99c2.89 0 4.13 2.03 4.13 5.99c-.01 1.58-.21 2.86-.65 3.81"/></symbol><symbol id="hd-icon-ic-twotone-r-mobiledata" viewBox="0 0 24 24"><path fill="currentColor" d="M7.8 7.2L9 10H7L5.87 7.33H4V10H2V2h5c1.13 0 2 .87 2 2v1.33c0 .8-.53 1.54-1.2 1.87M7 4H4v1.33h3z"/></symbol><symbol id="hd-icon-ic-twotone-radar" viewBox="0 0 24 24"><path fill="currentColor" d="M19.74 18.33A10 10 0 0 0 22 12c0-5.52-4.48-10-10-10S2 6.48 2 12s4.48 10 10 10a9.98 9.98 0 0 0 7.11-2.97c.03-.03.05-.06.07-.08c.2-.2.39-.41.56-.62M12 20c-4.41 0-8-3.59-8-8s3.59-8 8-8s8 3.59 8 8c0 1.85-.63 3.54-1.69 4.9l-1.43-1.43c.69-.98 1.1-2.17 1.1-3.46c0-3.31-2.69-6-6-6s-6 2.69-6 6s2.69 6 6 6c1.3 0 2.51-.42 3.49-1.13l1.42 1.42A7.82 7.82 0 0 1 12 20m1.92-7.49c.17-.66.02-1.38-.49-1.9l-.02-.02c-.77-.77-2-.78-2.78-.04c-.01.01-.03.02-.05.04c-.78.78-.78 2.05 0 2.83l.02.02c.52.51 1.25.67 1.91.49l1.51 1.51c-.6.36-1.29.58-2.04.58c-2.21 0-4-1.79-4-4s1.79-4 4-4s4 1.79 4 4c0 .73-.21 1.41-.56 2z"/></symbol><symbol id="hd-icon-ic-twotone-radio" viewBox="0 0 24 24"><path fill="currentColor" d="M20 13H4v7h16zM8 18.98a2.5 2.5 0 0 1 0-5a2.5 2.5 0 0 1 0 5" opacity=".3"/><path fill="currentColor" d="M2 20a2 2 0 0 0 2 2h16a2 2 0 0 0 2-2V8c0-1.11-.89-2-2-2H8.3l8.26-3.34L15.88 1L3.24 6.15C2.51 6.43 2 7.17 2 8zM4 8h16v3h-2V9h-2v2H4zm0 5h16v7H4z"/><circle cx="8" cy="16.48" r="2.5" fill="currentColor"/></symbol><symbol id="hd-icon-ic-twotone-radio-button-checked" viewBox="0 0 24 24"><path fill="currentColor" d="M12 2C6.48 2 2 6.48 2 12s4.48 10 10 10s10-4.48 10-10S17.52 2 12 2m0 18c-4.42 0-8-3.58-8-8s3.58-8 8-8s8 3.58 8 8s-3.58 8-8 8"/><circle cx="12" cy="12" r="5" fill="currentColor"/></symbol><symbol id="hd-icon-ic-twotone-radio-button-unchecked" viewBox="0 0 24 24"><path fill="currentColor" d="M12 2C6.48 2 2 6.48 2 12s4.48 10 10 10s10-4.48 10-10S17.52 2 12 2m0 18c-4.42 0-8-3.58-8-8s3.58-8 8-8s8 3.58 8 8s-3.58 8-8 8"/></symbol><symbol id="hd-icon-ic-twotone-railway-alert" viewBox="0 0 24 24"><path fill="currentColor" d="M4 16.5c0 .83.67 1.5 1.5 1.5h9c.83 0 1.5-.67 1.5-1.5V13H4zm6-2.5c.83 0 1.5.67 1.5 1.5S10.83 17 10 17s-1.5-.67-1.5-1.5S9.17 14 10 14M4.43 6H11c0-.33.03-.66.08-.98c-3.37-.1-5.75.21-6.65.98" opacity=".3"/><path fill="currentColor" d="M4 11V8h7.29C11.1 7.37 11 6.7 11 6H4.43c.9-.77 3.28-1.08 6.65-.98c.1-.7.3-1.37.59-1.99C2.97 2.67 2 5.02 2 7v9.5C2 18.43 3.57 20 5.5 20L4 21v1h12v-1l-1.5-1c1.93 0 3.5-1.57 3.5-3.5V13c-1.91 0-3.63-.76-4.89-2zm12 5.5c0 .83-.67 1.5-1.5 1.5h-9c-.83 0-1.5-.67-1.5-1.5V13h12z"/><circle cx="10" cy="15.5" r="1.5" fill="currentColor"/><path fill="currentColor" d="M18 1c-2.76 0-5 2.24-5 5s2.24 5 5 5s5-2.24 5-5s-2.24-5-5-5m.5 8h-1V8h1zm0-2h-1V3h1z"/></symbol><symbol id="hd-icon-ic-twotone-ramen-dining" viewBox="0 0 24 24"><path fill="currentColor" d="m8.73 18.39l1.27.5V20h4v-1.11l1.27-.5c2.16-.85 3.74-2.47 4.4-4.39H4.34c.65 1.92 2.24 3.54 4.39 4.39" opacity=".3"/><path fill="currentColor" d="M22 3.51V2L4 3.99V12H2c0 3.69 2.47 6.86 6 8.25V22h8v-1.75c3.53-1.39 6-4.56 6-8.25H10.5V8H22V6.5H10.5V4.78zM8 5.06l1-.11V6.5H8zM8 8h1v4H8zM5.5 5.34l1-.11V6.5h-1zM5.5 8h1v4h-1zm14.16 6c-.66 1.92-2.24 3.54-4.4 4.39l-1.26.5V20h-4v-1.11l-1.27-.5c-2.16-.85-3.74-2.47-4.4-4.39z"/></symbol><symbol id="hd-icon-ic-twotone-ramp-left" viewBox="0 0 24 24"><path fill="currentColor" d="M13 21h-2V6.83L9.41 8.41L8 7l4-4l4 4l-1.41 1.41L13 6.83V9c0 4.27 4.03 7.13 6 8.27l-1.46 1.46c-1.91-1.16-3.44-2.53-4.54-4.02z"/></symbol><symbol id="hd-icon-ic-twotone-ramp-right" viewBox="0 0 24 24"><path fill="currentColor" d="M11 21h2V6.83l1.59 1.59L16 7l-4-4l-4 4l1.41 1.41L11 6.83V9c0 4.27-4.03 7.13-6 8.27l1.46 1.46C8.37 17.56 9.9 16.19 11 14.7z"/></symbol><symbol id="hd-icon-ic-twotone-rate-review" viewBox="0 0 24 24"><path fill="currentColor" d="m4 17.17l.59-.59l.58-.58H20V4H4zM18 14h-7.5l2-2H18zM6 11.53l5.88-5.88c.2-.2.51-.2.71 0l1.77 1.77c.2.2.2.51 0 .71L8.47 14H6z" opacity=".3"/><path fill="currentColor" d="M20 2H4c-1.1 0-1.99.9-1.99 2L2 22l4-4h14c1.1 0 2-.9 2-2V4c0-1.1-.9-2-2-2m0 14H5.17l-.59.59l-.58.58V4h16zm-9.5-2H18v-2h-5.5zm3.86-5.87c.2-.2.2-.51 0-.71l-1.77-1.77c-.2-.2-.51-.2-.71 0L6 11.53V14h2.47z"/></symbol><symbol id="hd-icon-ic-twotone-raw-off" viewBox="0 0 24 24"><path fill="currentColor" d="m17.15 14.32l.59-2.36l.76 3.04h1.48l1.5-6h-1.5l-.74 3l-.74-3h-1.52l-.74 3l-.74-3H14l.72 2.9zM1.39 4.22L6.17 9H3v6h1.5v-2h1.1l.9 2H8l-.9-2.1c.5-.3.9-.8.9-1.4v-.67l1.43 1.43L8.75 15h1.5l.38-1.5h.04l9.11 9.11l1.41-1.41L2.81 2.81zM6.5 11.5h-2v-1h2z"/></symbol><symbol id="hd-icon-ic-twotone-raw-on" viewBox="0 0 24 24"><path fill="currentColor" d="M6.5 9H3v6h1.5v-2h1.1l.9 2H8l-.9-2.1c.5-.3.9-.8.9-1.4v-1C8 9.7 7.3 9 6.5 9m0 2.5h-2v-1h2zM10.25 9l-1.5 6h1.5l.38-1.5h1.75l.37 1.5h1.5l-1.5-6zm.75 3l.25-1h.5l.25 1zm8.98-3l-.74 3l-.74-3h-1.52l-.74 3l-.74-3H14l1.5 6h1.48l.76-3.04l.76 3.04h1.48l1.5-6z"/></symbol><symbol id="hd-icon-ic-twotone-read-more" viewBox="0 0 24 24"><path fill="currentColor" d="M13 7h9v2h-9zm0 8h9v2h-9zm3-4h6v2h-6zm-3 1L8 7v4H2v2h6v4z"/></symbol><symbol id="hd-icon-ic-twotone-real-estate-agent" viewBox="0 0 24 24"><path fill="currentColor" d="m10.5 9.44l5.32 1.99c1.24.46 2.21 1.41 2.74 2.57H19V7.5L14 4L9 7.5V9h.33zm4-2.44h1v1h-1zm0 2h1v1h-1zm-2-2h1v1h-1zm0 2h1v1h-1zM3 13h2v7H3zm16.9 5.57l-5.93 1.84L7 18.48V13h1.61l5.82 2.17c.34.13.57.46.57.83c0 0-1.99-.05-2.3-.15l-2.38-.79l-.63 1.9l2.38.79c.51.17 1.04.26 1.58.26H19c.39 0 .74.23.9.56" opacity=".3"/><path fill="currentColor" d="M15.5 7h-1v1h1zm-2 0h-1v1h1zm2 2h-1v1h1zm-2 0h-1v1h1zM21 6.5V14h-2V7.5L14 4L9 7.5V9H7V6.5l7-5zM19 16h-2c0-1.2-.75-2.28-1.87-2.7L8.97 11H1v11h6v-1.44l7 1.94l8-2.5v-1c0-1.66-1.34-3-3-3M3 20v-7h2v7zm10.97.41L7 18.48V13h1.61l5.82 2.17c.34.13.57.46.57.83c0 0-1.99-.05-2.3-.15l-2.38-.79l-.63 1.9l2.38.79c.51.17 1.04.26 1.58.26H19c.39 0 .74.23.9.56z"/></symbol><symbol id="hd-icon-ic-twotone-receipt" viewBox="0 0 24 24"><path fill="currentColor" d="M5 19.09h14V4.91H5zM6 7h12v2H6zm0 4h12v2H6zm0 4h12v2H6z" opacity=".3"/><path fill="currentColor" d="M19.5 3.5L18 2l-1.5 1.5L15 2l-1.5 1.5L12 2l-1.5 1.5L9 2L7.5 3.5L6 2L4.5 3.5L3 2v20l1.5-1.5L6 22l1.5-1.5L9 22l1.5-1.5L12 22l1.5-1.5L15 22l1.5-1.5L18 22l1.5-1.5L21 22V2zM19 19.09H5V4.91h14zM6 15h12v2H6zm0-4h12v2H6zm0-4h12v2H6z"/></symbol><symbol id="hd-icon-ic-twotone-receipt-long" viewBox="0 0 24 24"><path fill="currentColor" d="M19 19c0 .55-.45 1-1 1s-1-.45-1-1v-3H8V5h11z" opacity=".3"/><path fill="currentColor" d="M19.5 3.5L18 2l-1.5 1.5L15 2l-1.5 1.5L12 2l-1.5 1.5L9 2L7.5 3.5L6 2v14H3v3c0 1.66 1.34 3 3 3h12c1.66 0 3-1.34 3-3V2zM19 19c0 .55-.45 1-1 1s-1-.45-1-1v-3H8V5h11z"/><path fill="currentColor" d="M9 7h6v2H9zm7 0h2v2h-2zm-7 3h6v2H9zm7 0h2v2h-2z"/></symbol><symbol id="hd-icon-ic-twotone-recent-actors" viewBox="0 0 24 24"><path fill="currentColor" d="M13 7H3v10h10zM8 8c1.07 0 1.95.87 1.95 1.95c0 1.07-.87 1.95-1.95 1.95s-1.95-.87-1.95-1.95S6.93 8 8 8m3.89 8H4.11v-.65c0-1.3 2.59-1.95 3.89-1.95s3.89.65 3.89 1.95z" opacity=".3"/><path fill="currentColor" d="M21 5h2v14h-2zm-4 0h2v14h-2zm-3 14c.55 0 1-.45 1-1V6c0-.55-.45-1-1-1H2c-.55 0-1 .45-1 1v12c0 .55.45 1 1 1zM3 7h10v10H3z"/><circle cx="8" cy="9.94" r="1.95" fill="currentColor"/><path fill="currentColor" d="M8 13.4c-1.3 0-3.89.65-3.89 1.95V16h7.78v-.65c0-1.3-2.59-1.95-3.89-1.95"/></symbol><symbol id="hd-icon-ic-twotone-recommend" viewBox="0 0 24 24"><path fill="currentColor" d="M12 4c-4.41 0-8 3.59-8 8s3.59 8 8 8s8-3.59 8-8s-3.59-8-8-8m5.9 8.3l-2.1 4.9c-.22.51-.74.83-1.3.8H9c-1.1 0-2-.9-2-2v-5c-.02-.38.13-.74.4-1L12 5l.69.69c.18.19.29.44.3.7v.2L12.41 10H17c.55 0 1 .45 1 1v.8c.02.17-.02.35-.1.5" opacity=".3"/><path fill="currentColor" d="M12 2C6.48 2 2 6.48 2 12s4.48 10 10 10s10-4.48 10-10S17.52 2 12 2m0 18c-4.41 0-8-3.59-8-8s3.59-8 8-8s8 3.59 8 8s-3.59 8-8 8"/><path fill="currentColor" d="M17 10h-4.59l.58-3.41v-.2c-.01-.26-.12-.51-.3-.7L12 5l-4.6 5c-.27.26-.42.62-.4 1v5c0 1.1.9 2 2 2h5.5c.56.03 1.08-.29 1.3-.8l2.1-4.9c.08-.15.12-.33.1-.5V11c0-.55-.45-1-1-1"/></symbol><symbol id="hd-icon-ic-twotone-record-voice-over" viewBox="0 0 24 24"><path fill="currentColor" d="M9 13c2.21 0 4-1.79 4-4s-1.79-4-4-4s-4 1.79-4 4s1.79 4 4 4m0-6c1.1 0 2 .9 2 2s-.9 2-2 2s-2-.9-2-2s.9-2 2-2m0 8c-2.67 0-8 1.34-8 4v2h16v-2c0-2.66-5.33-4-8-4m-6 4c.22-.72 3.31-2 6-2c2.7 0 5.8 1.29 6 2zM16.76 5.36l-1.68 1.69c.84 1.18.84 2.71 0 3.89l1.68 1.69c2.02-2.02 2.02-5.07 0-7.27M20.07 2l-1.63 1.63c2.77 3.02 2.77 7.56 0 10.74L20.07 16c3.9-3.89 3.91-9.95 0-14"/><circle cx="9" cy="9" r="2" fill="currentColor" opacity=".3"/><path fill="currentColor" d="M9 17c-2.69 0-5.77 1.28-6 2h12c-.2-.71-3.3-2-6-2" opacity=".3"/></symbol><symbol id="hd-icon-ic-twotone-rectangle" viewBox="0 0 24 24"><path fill="currentColor" d="M4 6h16v12H4z" opacity=".3"/><path fill="currentColor" d="M2 4v16h20V4zm18 14H4V6h16z"/></symbol><symbol id="hd-icon-ic-twotone-recycling" viewBox="0 0 24 24"><path fill="currentColor" d="M5.77 7.15L7.2 4.78l1.03-1.71c.39-.65 1.33-.65 1.72 0l1.48 2.46l-1.23 2.06l-1 1.62zm15.95 5.82l-1.6-2.66l-3.46 2L18.87 16H20a2 2 0 0 0 2-2c0-.36-.1-.71-.28-1.03M16 21h1.5a2 2 0 0 0 1.79-1.11L20.74 17H16v-2l-4 4l4 4zm-6-4H5.7l-.84 1.41c-.3.5-.32 1.12-.06 1.65c.28.57.87.94 1.52.94H10zm-3.88-2.65l1.73 1.04L6.48 9.9L1 11.27l1.7 1.02l-.41.69c-.35.59-.38 1.31-.07 1.92l1.63 3.26zm10.9-9.21l-1.3-2.17C15.35 2.37 14.7 2 14 2h-3.53l3.12 5.2l-1.72 1.03l5.49 1.37l1.37-5.49z"/></symbol><symbol id="hd-icon-ic-twotone-reddit" viewBox="0 0 24 24"><path fill="currentColor" d="M10.75 13.04c0-.57-.47-1.04-1.04-1.04s-1.04.47-1.04 1.04a1.04 1.04 0 1 0 2.08 0m3.34 2.37c-.45.45-1.41.61-2.09.61s-1.64-.16-2.09-.61a.26.26 0 0 0-.38 0a.26.26 0 0 0 0 .38c.71.71 2.07.77 2.47.77s1.76-.06 2.47-.77a.26.26 0 0 0 0-.38c-.1-.1-.27-.1-.38 0m.2-3.41c-.57 0-1.04.47-1.04 1.04s.47 1.04 1.04 1.04s1.04-.47 1.04-1.04S14.87 12 14.29 12"/><path fill="currentColor" d="M12 2C6.48 2 2 6.48 2 12s4.48 10 10 10s10-4.48 10-10S17.52 2 12 2m5.8 11.33c.02.14.03.29.03.44c0 2.24-2.61 4.06-5.83 4.06s-5.83-1.82-5.83-4.06c0-.15.01-.3.03-.44c-.51-.23-.86-.74-.86-1.33a1.455 1.455 0 0 1 2.47-1.05c1.01-.73 2.41-1.19 3.96-1.24l.74-3.49c.01-.07.05-.13.11-.16c.06-.04.13-.05.2-.04l2.42.52a1.04 1.04 0 1 1 .93 1.5c-.56 0-1.01-.44-1.04-.99l-2.17-.46l-.66 3.12c1.53.05 2.9.52 3.9 1.24a1.455 1.455 0 1 1 1.6 2.38"/></symbol><symbol id="hd-icon-ic-twotone-redeem" viewBox="0 0 24 24"><path fill="currentColor" d="M4 17h16v2H4zm13-6.17L15.38 12L13 8.76L12 7.4l-1 1.36L8.62 12L7 10.83L9.08 8H4v6h16V8h-5.08z" opacity=".3"/><path fill="currentColor" d="M20 6h-2.18c.11-.31.18-.65.18-1a2.996 2.996 0 0 0-5.5-1.65l-.5.67l-.5-.68C10.96 2.54 10.05 2 9 2C7.34 2 6 3.34 6 5c0 .35.07.69.18 1H4c-1.11 0-1.99.89-1.99 2L2 19c0 1.11.89 2 2 2h16c1.11 0 2-.89 2-2V8c0-1.11-.89-2-2-2m-5-2c.55 0 1 .45 1 1s-.45 1-1 1s-1-.45-1-1s.45-1 1-1M9 4c.55 0 1 .45 1 1s-.45 1-1 1s-1-.45-1-1s.45-1 1-1m11 15H4v-2h16zm0-5H4V8h5.08L7 10.83L8.62 12L11 8.76l1-1.36l1 1.36L15.38 12L17 10.83L14.92 8H20z"/></symbol><symbol id="hd-icon-ic-twotone-redo" viewBox="0 0 24 24"><path fill="currentColor" d="M18.4 10.6C16.55 8.99 14.15 8 11.5 8c-4.65 0-8.58 3.03-9.96 7.22L3.9 16a8 8 0 0 1 7.6-5.5c1.95 0 3.73.72 5.12 1.88L13 16h9V7z"/></symbol><symbol id="hd-icon-ic-twotone-reduce-capacity" viewBox="0 0 24 24"><path fill="currentColor" d="M16 4c0-1.1.9-2 2-2s2 .9 2 2s-.9 2-2 2s-2-.9-2-2m4.78 3.58A6.95 6.95 0 0 0 18 7c-.67 0-1.31.1-1.92.28c.58.55.92 1.32.92 2.15V10h5v-.57c0-.81-.48-1.53-1.22-1.85M6 6c1.1 0 2-.9 2-2s-.9-2-2-2s-2 .9-2 2s.9 2 2 2m1.92 1.28C7.31 7.1 6.67 7 6 7c-.99 0-1.93.21-2.78.58A2.01 2.01 0 0 0 2 9.43V10h5v-.57c0-.83.34-1.6.92-2.15M10 4c0-1.1.9-2 2-2s2 .9 2 2s-.9 2-2 2s-2-.9-2-2m6 6H8v-.57c0-.81.48-1.53 1.22-1.85a6.95 6.95 0 0 1 5.56 0A2.01 2.01 0 0 1 16 9.43zm-1 6c0-1.1.9-2 2-2s2 .9 2 2s-.9 2-2 2s-2-.9-2-2m6 6h-8v-.57c0-.81.48-1.53 1.22-1.85a6.95 6.95 0 0 1 5.56 0A2.01 2.01 0 0 1 21 21.43zM5 16c0-1.1.9-2 2-2s2 .9 2 2s-.9 2-2 2s-2-.9-2-2m6 6H3v-.57c0-.81.48-1.53 1.22-1.85a6.95 6.95 0 0 1 5.56 0A2.01 2.01 0 0 1 11 21.43zm1.75-9v-2h-1.5v2H9l3 3l3-3z"/></symbol><symbol id="hd-icon-ic-twotone-refresh" viewBox="0 0 24 24"><path fill="currentColor" d="M17.65 6.35A7.96 7.96 0 0 0 12 4c-4.42 0-7.99 3.58-7.99 8s3.57 8 7.99 8c3.73 0 6.84-2.55 7.73-6h-2.08A5.99 5.99 0 0 1 12 18c-3.31 0-6-2.69-6-6s2.69-6 6-6c1.66 0 3.14.69 4.22 1.78L13 11h7V4z"/></symbol><symbol id="hd-icon-ic-twotone-remember-me" viewBox="0 0 24 24"><path fill="currentColor" d="M7 20h10v1H7zm0-2.48V18h10v-.48c-1.47-.99-3.22-1.52-5-1.52s-3.53.53-5 1.52" opacity=".3"/><circle cx="12" cy="10" r="1" fill="currentColor" opacity=".3"/><path fill="currentColor" d="M7 3h10v1H7z" opacity=".3"/><path fill="currentColor" d="M17 1H7c-1.1 0-2 .9-2 2v18c0 1.1.9 2 2 2h10c1.1 0 2-.9 2-2V3c0-1.1-.9-2-2-2m0 20H7v-1h10zm0-3H7v-.48c1.47-.99 3.22-1.52 5-1.52s3.53.53 5 1.52zm0-2.79c-1.5-.77-3.2-1.21-5-1.21s-3.5.44-5 1.21V6h10zM17 4H7V3h10z"/><path fill="currentColor" d="M12 13c1.66 0 3-1.34 3-3s-1.34-3-3-3s-3 1.34-3 3s1.34 3 3 3m0-4c.55 0 1 .45 1 1s-.45 1-1 1s-1-.45-1-1s.45-1 1-1"/></symbol><symbol id="hd-icon-ic-twotone-remove" viewBox="0 0 24 24"><path fill="currentColor" d="M19 13H5v-2h14z"/></symbol><symbol id="hd-icon-ic-twotone-remove-circle" viewBox="0 0 24 24"><path fill="currentColor" d="M12 4c-4.41 0-8 3.59-8 8s3.59 8 8 8s8-3.59 8-8s-3.59-8-8-8m5 9H7v-2h10z" opacity=".3"/><path fill="currentColor" d="M7 11h10v2H7zm5-9C6.48 2 2 6.48 2 12s4.48 10 10 10s10-4.48 10-10S17.52 2 12 2m0 18c-4.41 0-8-3.59-8-8s3.59-8 8-8s8 3.59 8 8s-3.59 8-8 8"/></symbol><symbol id="hd-icon-ic-twotone-remove-circle-outline" viewBox="0 0 24 24"><path fill="currentColor" d="M7 11h10v2H7zm5-9C6.48 2 2 6.48 2 12s4.48 10 10 10s10-4.48 10-10S17.52 2 12 2m0 18c-4.41 0-8-3.59-8-8s3.59-8 8-8s8 3.59 8 8s-3.59 8-8 8"/></symbol><symbol id="hd-icon-ic-twotone-remove-done" viewBox="0 0 24 24"><path fill="currentColor" d="M4.84 1.98L3.43 3.39l10.38 10.38l-1.41 1.41l-4.24-4.24l-1.41 1.41l5.66 5.66l2.83-2.83l6.6 6.6l1.41-1.41zm13.21 10.38L23 7.4L21.57 6l-4.94 4.94zm-.71-4.96l-1.41-1.41l-2.12 2.12l1.41 1.41zM1.08 12.35l5.66 5.66l1.41-1.41l-5.66-5.66z"/></symbol><symbol id="hd-icon-ic-twotone-remove-from-queue" viewBox="0 0 24 24"><path fill="currentColor" d="M3 17h18V5H3zm5-7h8v2H8z" opacity=".3"/><path fill="currentColor" d="M21 3H3c-1.11 0-2 .89-2 2v12a2 2 0 0 0 2 2h5v2h8v-2h5c1.1 0 2-.9 2-2V5a2 2 0 0 0-2-2m0 14H3V5h18zM8 10h8v2H8z"/></symbol><symbol id="hd-icon-ic-twotone-remove-moderator" viewBox="0 0 24 24"><path fill="currentColor" d="M6 11.09c0 4 2.55 7.7 6 8.83c1.17-.38 2.24-1.07 3.14-1.95L6 8.83zm6-6.95L8.34 5.51l9.02 9.02c.41-1.08.64-2.25.64-3.44v-4.7z" opacity=".3"/><path fill="currentColor" d="m12 4.14l6 2.25v4.7c0 1.19-.23 2.36-.64 3.44l1.51 1.51c.72-1.53 1.13-3.22 1.13-4.95V5l-8-3l-5.22 1.96l1.55 1.55zM2.81 2.81L1.39 4.22L4 6.83v4.26c0 5.05 3.41 9.76 8 10.91c1.72-.43 3.28-1.36 4.55-2.62l3.23 3.23l1.41-1.41zM12 19.92c-3.45-1.13-6-4.82-6-8.83V8.83l9.14 9.14c-.9.88-1.97 1.57-3.14 1.95"/></symbol><symbol id="hd-icon-ic-twotone-remove-red-eye" viewBox="0 0 24 24"><path fill="currentColor" d="M12 6.5A9.77 9.77 0 0 0 3.18 12c1.65 3.37 5.02 5.5 8.82 5.5s7.17-2.13 8.82-5.5A9.77 9.77 0 0 0 12 6.5m0 10c-2.48 0-4.5-2.02-4.5-4.5S9.52 7.5 12 7.5s4.5 2.02 4.5 4.5s-2.02 4.5-4.5 4.5" opacity=".3"/><path fill="currentColor" d="M12 4.5C7 4.5 2.73 7.61 1 12c1.73 4.39 6 7.5 11 7.5s9.27-3.11 11-7.5c-1.73-4.39-6-7.5-11-7.5m0 13A9.77 9.77 0 0 1 3.18 12C4.83 8.63 8.21 6.5 12 6.5s7.17 2.13 8.82 5.5A9.77 9.77 0 0 1 12 17.5m0-10c-2.48 0-4.5 2.02-4.5 4.5s2.02 4.5 4.5 4.5s4.5-2.02 4.5-4.5s-2.02-4.5-4.5-4.5m0 7a2.5 2.5 0 0 1 0-5a2.5 2.5 0 0 1 0 5"/></symbol><symbol id="hd-icon-ic-twotone-remove-road" viewBox="0 0 24 24"><path fill="currentColor" d="M18 4h2v9h-2zM4 4h2v16H4zm7 0h2v4h-2zm0 6h2v4h-2zm0 6h2v4h-2zm11.5.41L21.09 15L19 17.09L16.91 15l-1.41 1.41l2.09 2.09l-2.09 2.09L16.91 22L19 19.91L21.09 22l1.41-1.41l-2.09-2.09z"/></symbol><symbol id="hd-icon-ic-twotone-remove-shopping-cart" viewBox="0 0 24 24"><path fill="currentColor" d="M1.41 1.13L0 2.54l4.39 4.39l2.21 4.66l-1.35 2.45c-.16.28-.25.61-.25.96c0 1.1.9 2 2 2h7.46l1.38 1.38A1.997 1.997 0 0 0 17 22c.67 0 1.26-.33 1.62-.84L21.46 24l1.41-1.41zM7 15l1.1-2h2.36l2 2z"/><path fill="currentColor" d="M18.31 6H9.12l4.99 5h1.44z" opacity=".3"/><path fill="currentColor" d="M20 4H7.12l2 2h9.19l-2.76 5h-1.44l1.94 1.94c.54-.14.99-.49 1.25-.97l3.58-6.49C21.25 4.82 20.76 4 20 4M7 18c-1.1 0-1.99.9-1.99 2S5.9 22 7 22s2-.9 2-2s-.9-2-2-2"/></symbol><symbol id="hd-icon-ic-twotone-reorder" viewBox="0 0 24 24"><path fill="currentColor" d="M3 15h18v-2H3zm0 4h18v-2H3zm0-8h18V9H3zm0-6v2h18V5z"/></symbol><symbol id="hd-icon-ic-twotone-repartition" viewBox="0 0 24 24"><path fill="currentColor" d="M15.67 17H19v2h-3.33zm-5.34 0h3.33v2h-3.33zM5 17h3.33v2H5z" opacity=".3"/><path fill="currentColor" d="M3 21h18v-6H3zm12.67-4H19v2h-3.33zm-5.34 0h3.33v2h-3.33zM5 17h3.33v2H5zm1-7l1.42-1.42L5.83 7H17c1.1 0 2 .9 2 2s-.9 2-2 2H3v2h14c2.21 0 4-1.79 4-4s-1.79-4-4-4H5.83l1.59-1.59L6 2L2 6z"/></symbol><symbol id="hd-icon-ic-twotone-repeat" viewBox="0 0 24 24"><path fill="currentColor" d="M7 22v-3h12v-6h-2v4H7v-3l-4 4zM21 6l-4-4v3H5v6h2V7h10v3z"/></symbol><symbol id="hd-icon-ic-twotone-repeat-on" viewBox="0 0 24 24"><path fill="currentColor" d="M21 1H3c-1.1 0-2 .9-2 2v18c0 1.1.9 2 2 2h18c1.1 0 2-.9 2-2V3c0-1.1-.9-2-2-2m-2 18H7v3l-4-4l4-4v3h10v-4h2zm-2-9V7H7v4H5V5h12V2l4 4z"/></symbol><symbol id="hd-icon-ic-twotone-repeat-one" viewBox="0 0 24 24"><path fill="currentColor" d="M13 15V9h-1l-2 1v1h1.5v4zm6-2h-2v4H7v-3l-4 4l4 4v-3h12zM17 2v3H5v6h2V7h10v3l4-4z"/></symbol><symbol id="hd-icon-ic-twotone-repeat-one-on" viewBox="0 0 24 24"><path fill="currentColor" d="M21 1H3c-1.1 0-2 .9-2 2v18c0 1.1.9 2 2 2h18c1.1 0 2-.9 2-2V3c0-1.1-.9-2-2-2m-2 18H7v3l-4-4l4-4v3h10v-4h2zm-9-8.5V9h3v6h-1.5v-4.5zm7-.5V7H7v4H5V5h12V2l4 4z"/></symbol><symbol id="hd-icon-ic-twotone-replay" viewBox="0 0 24 24"><path fill="currentColor" d="m7 6l5 5V7c3.31 0 6 2.69 6 6s-2.69 6-6 6s-6-2.69-6-6H4c0 4.42 3.58 8 8 8s8-3.58 8-8s-3.58-8-8-8V1z"/></symbol><symbol id="hd-icon-ic-twotone-replay-10" viewBox="0 0 24 24"><path fill="currentColor" d="M11.99 5V1l-5 5l5 5V7c3.31 0 6 2.69 6 6s-2.69 6-6 6s-6-2.69-6-6h-2c0 4.42 3.58 8 8 8s8-3.58 8-8s-3.58-8-8-8m-1.1 11h-.85v-3.26l-1.01.31v-.69l1.77-.63h.09zm4.28-1.76c0 .32-.03.6-.1.82s-.17.42-.29.57s-.28.26-.45.33s-.37.1-.59.1s-.41-.03-.59-.1s-.33-.18-.46-.33s-.23-.34-.3-.57s-.11-.5-.11-.82v-.74c0-.32.03-.6.1-.82s.17-.42.29-.57s.28-.26.45-.33s.37-.1.59-.1s.41.03.59.1s.33.18.46.33s.23.34.3.57s.11.5.11.82zm-.85-.86c0-.19-.01-.35-.04-.48s-.07-.23-.12-.31s-.11-.14-.19-.17s-.16-.05-.25-.05s-.18.02-.25.05s-.14.09-.19.17s-.09.18-.12.31s-.04.29-.04.48v.97c0 .19.01.35.04.48s.07.24.12.32s.11.14.19.17s.16.05.25.05s.18-.02.25-.05s.14-.09.19-.17s.09-.19.11-.32s.04-.29.04-.48v-.97z"/></symbol><symbol id="hd-icon-ic-twotone-replay-30" viewBox="0 0 24 24"><path fill="currentColor" d="M12 5V1L7 6l5 5V7c3.31 0 6 2.69 6 6s-2.69 6-6 6s-6-2.69-6-6H4c0 4.42 3.58 8 8 8s8-3.58 8-8s-3.58-8-8-8m-2.44 8.49h.45c.21 0 .37-.05.48-.16s.16-.25.16-.43a.54.54 0 0 0-.15-.39c-.05-.05-.11-.09-.18-.11s-.16-.04-.25-.04c-.08 0-.15.01-.22.03s-.13.05-.18.1s-.09.09-.12.15s-.05.13-.05.2h-.85a1.06 1.06 0 0 1 .41-.85c.13-.1.27-.18.44-.23s.35-.08.54-.08c.21 0 .41.03.59.08s.33.13.46.23s.23.23.3.38s.11.33.11.53a.84.84 0 0 1-.17.52a1.1 1.1 0 0 1-.48.39c.24.09.42.21.54.39s.18.38.18.61c0 .2-.04.38-.12.53s-.18.29-.32.39s-.29.19-.48.24s-.38.08-.6.08c-.18 0-.36-.02-.53-.07s-.33-.12-.46-.23s-.25-.23-.33-.38s-.12-.34-.12-.55h.85c0 .08.02.15.05.22s.07.12.13.17s.12.09.2.11s.16.04.25.04c.1 0 .19-.01.27-.04s.15-.07.2-.12s.1-.11.13-.18s.04-.15.04-.24c0-.11-.02-.21-.05-.29s-.08-.15-.14-.2s-.13-.09-.22-.11s-.18-.04-.29-.04h-.47zm5.74.75c0 .32-.03.6-.1.82s-.17.42-.29.57s-.28.26-.45.33s-.37.1-.59.1s-.41-.03-.59-.1s-.33-.18-.46-.33s-.23-.34-.3-.57s-.11-.5-.11-.82v-.74c0-.32.03-.6.1-.82s.17-.42.29-.57s.28-.26.45-.33s.37-.1.59-.1s.41.03.59.1s.33.18.46.33s.23.34.3.57s.11.5.11.82zm-.85-.86c0-.19-.01-.35-.04-.48s-.07-.23-.12-.31s-.11-.14-.19-.17s-.16-.05-.25-.05s-.18.02-.25.05s-.14.09-.19.17s-.09.18-.12.31s-.04.29-.04.48v.97c0 .19.01.35.04.48s.07.24.12.32s.11.14.19.17s.16.05.25.05s.18-.02.25-.05s.14-.09.19-.17s.09-.19.11-.32c.03-.13.04-.29.04-.48v-.97z"/></symbol><symbol id="hd-icon-ic-twotone-replay-5" viewBox="0 0 24 24"><path fill="currentColor" d="M12 5V1L7 6l5 5V7c3.31 0 6 2.69 6 6s-2.69 6-6 6s-6-2.69-6-6H4c0 4.42 3.58 8 8 8s8-3.58 8-8s-3.58-8-8-8m-1.31 8.9l.25-2.17h2.39v.71h-1.7l-.11.92c.03-.02.07-.03.11-.05s.09-.04.15-.05s.12-.03.18-.04s.13-.02.2-.02c.21 0 .39.03.55.1s.3.16.41.28s.2.27.25.45s.09.38.09.6q0 .285-.09.54c-.09.255-.15.32-.27.45s-.27.24-.45.31s-.39.12-.64.12c-.18 0-.36-.03-.53-.08s-.32-.14-.46-.24s-.24-.24-.32-.39s-.13-.33-.13-.53h.84c.02.18.08.32.19.41s.25.15.42.15a.49.49 0 0 0 .45-.23c.04-.07.08-.15.11-.25s.03-.2.03-.31s-.01-.21-.04-.31s-.07-.17-.13-.24s-.13-.12-.21-.15s-.19-.05-.3-.05c-.08 0-.15.01-.2.02s-.11.03-.15.05s-.08.05-.12.07s-.07.06-.1.09z"/></symbol><symbol id="hd-icon-ic-twotone-replay-circle-filled" viewBox="0 0 24 24"><path fill="currentColor" d="M12 2C6.48 2 2 6.48 2 12s4.48 10 10 10s10-4.48 10-10S17.52 2 12 2m6 10.5c0 3.31-2.69 6-6 6s-6-2.69-6-6h2c0 2.21 1.79 4 4 4s4-1.79 4-4s-1.79-4-4-4v3l-4-4l4-4v3c3.31 0 6 2.69 6 6"/></symbol><symbol id="hd-icon-ic-twotone-reply" viewBox="0 0 24 24"><path fill="currentColor" d="M10 9V5l-7 7l7 7v-4.1c5 0 8.5 1.6 11 5.1c-1-5-4-10-11-11"/></symbol><symbol id="hd-icon-ic-twotone-reply-all" viewBox="0 0 24 24"><path fill="currentColor" d="M7 8V5l-7 7l7 7v-3l-4-4zm6 1V5l-7 7l7 7v-4.1c5 0 8.5 1.6 11 5.1c-1-5-4-10-11-11"/></symbol><symbol id="hd-icon-ic-twotone-report" viewBox="0 0 24 24"><path fill="currentColor" d="M9.1 5L5 9.1v5.8L9.1 19h5.8l4.1-4.1V9.1L14.9 5zM12 17c-.55 0-1-.45-1-1s.45-1 1-1s1 .45 1 1s-.45 1-1 1m1-3h-2V7h2z" opacity=".3"/><path fill="currentColor" d="M15.73 3H8.27L3 8.27v7.46L8.27 21h7.46L21 15.73V8.27zM19 14.9L14.9 19H9.1L5 14.9V9.1L9.1 5h5.8L19 9.1z"/><circle cx="12" cy="16" r="1" fill="currentColor"/><path fill="currentColor" d="M11 7h2v7h-2z"/></symbol><symbol id="hd-icon-ic-twotone-report-gmailerrorred" viewBox="0 0 24 24"><path fill="currentColor" d="M15.73 3H8.27L3 8.27v7.46L8.27 21h7.46L21 15.73V8.27zM19 14.9L14.9 19H9.1L5 14.9V9.1L9.1 5h5.8L19 9.1z"/><circle cx="12" cy="16" r="1" fill="currentColor"/><path fill="currentColor" d="M11 7h2v7h-2z"/></symbol><symbol id="hd-icon-ic-twotone-report-off" viewBox="0 0 24 24"><path fill="currentColor" d="M19 9.1L14.9 5H9.1l-.22.22L11 7.33V7h2v2.33l5.78 5.79l.22-.22zM6.05 8.04L5 9.1v5.8L9.1 19h5.8l1.05-1.05zM13 16c0 .55-.45 1-1 1s-1-.45-1-1s.45-1 1-1s1 .45 1 1" opacity=".3"/><path fill="currentColor" d="M9.1 5h5.8L19 9.1v5.8l-.22.22l1.42 1.41l.8-.8V8.27L15.73 3H8.27l-.8.8l1.41 1.42z"/><circle cx="12" cy="16" r="1" fill="currentColor"/><path fill="currentColor" d="M13 7h-2v.33l2 2zM2.41 1.58L1 2.99l3.64 3.64L3 8.27v7.46L8.27 21h7.46l1.64-1.64L21.01 23l1.41-1.41zM14.9 19H9.1L5 14.9V9.1l1.05-1.05l9.9 9.9z"/></symbol><symbol id="hd-icon-ic-twotone-report-problem" viewBox="0 0 24 24"><path fill="currentColor" d="M12 5.99L4.47 19h15.06zM13 18h-2v-2h2zm-2-4v-4h2v4z" opacity=".3"/><path fill="currentColor" d="M12 2L1 21h22zm0 3.99L19.53 19H4.47zM11 16h2v2h-2zm0-6h2v4h-2z"/></symbol><symbol id="hd-icon-ic-twotone-request-page" viewBox="0 0 24 24"><path fill="currentColor" d="M13.17 4H6v16h12V8.83zM15 11h-4v1h3c.55 0 1 .45 1 1v3c0 .55-.45 1-1 1h-1v1h-2v-1H9v-2h4v-1h-3c-.55 0-1-.45-1-1v-3c0-.55.45-1 1-1h1V8h2v1h2z" opacity=".3"/><path fill="currentColor" d="M13.17 4L18 8.83V20H6V4zM14 2H6c-1.1 0-2 .9-2 2v16c0 1.1.9 2 2 2h12c1.1 0 2-.9 2-2V8zm1 9h-4v1h3c.55 0 1 .45 1 1v3c0 .55-.45 1-1 1h-1v1h-2v-1H9v-2h4v-1h-3c-.55 0-1-.45-1-1v-3c0-.55.45-1 1-1h1V8h2v1h2z"/></symbol><symbol id="hd-icon-ic-twotone-request-quote" viewBox="0 0 24 24"><path fill="currentColor" d="M6 20V4h7v4h5v12zm5-1h2v-1h1c.55 0 1-.45 1-1v-3c0-.55-.45-1-1-1h-3v-1h4v-2h-2V9h-2v1h-1c-.55 0-1 .45-1 1v3c0 .55.45 1 1 1h3v1H9v2h2z" opacity=".3"/><path fill="currentColor" d="M14 2H6c-1.1 0-2 .9-2 2v16c0 1.1.9 2 2 2h12c1.1 0 2-.9 2-2V8zM6 20V4h7v4h5v12zm5-1h2v-1h1c.55 0 1-.45 1-1v-3c0-.55-.45-1-1-1h-3v-1h4v-2h-2V9h-2v1h-1c-.55 0-1 .45-1 1v3c0 .55.45 1 1 1h3v1H9v2h2z"/></symbol><symbol id="hd-icon-ic-twotone-reset-tv" viewBox="0 0 24 24"><path fill="currentColor" d="M20 10h-7.01V7L9 11l3.99 4v-3H20v5H4V5h16v3h2V5c0-1.1-.9-2-2-2H4c-1.1 0-2 .9-2 2v12c0 1.1.9 2 2 2h4v2h8v-2h4c1.1 0 1.99-.9 1.99-2v-5H22c0-1.1-.9-2-2-2"/></symbol><symbol id="hd-icon-ic-twotone-restart-alt" viewBox="0 0 24 24"><path fill="currentColor" d="M12 5V2L8 6l4 4V7c3.31 0 6 2.69 6 6c0 2.97-2.17 5.43-5 5.91v2.02c3.95-.49 7-3.85 7-7.93c0-4.42-3.58-8-8-8m-6 8c0-1.65.67-3.15 1.76-4.24L6.34 7.34A8 8 0 0 0 4 13c0 4.08 3.05 7.44 7 7.93v-2.02c-2.83-.48-5-2.94-5-5.91"/></symbol><symbol id="hd-icon-ic-twotone-restaurant" viewBox="0 0 24 24"><path fill="currentColor" d="M16 6v8h3v8h2V2c-2.76 0-5 2.24-5 4m-5 3H9V2H7v7H5V2H3v7c0 2.21 1.79 4 4 4v9h2v-9c2.21 0 4-1.79 4-4V2h-2z"/></symbol><symbol id="hd-icon-ic-twotone-restaurant-menu" viewBox="0 0 24 24"><path fill="currentColor" d="m8.1 13.34l2.83-2.83L3.91 3.5a4.01 4.01 0 0 0 0 5.66zm12.05-3.19c1.91-1.91 2.28-4.65.81-6.12c-1.46-1.46-4.2-1.1-6.12.81c-1.59 1.59-2.09 3.74-1.38 5.27L3.7 19.87l1.41 1.41L12 14.41l6.88 6.88l1.41-1.41L13.41 13l1.47-1.47c1.53.71 3.68.21 5.27-1.38"/></symbol><symbol id="hd-icon-ic-twotone-restore" viewBox="0 0 24 24"><path fill="currentColor" d="M13 3a9 9 0 0 0-9 9H1l4 3.99L9 12H6c0-3.87 3.13-7 7-7s7 3.13 7 7s-3.13 7-7 7c-1.93 0-3.68-.79-4.94-2.06l-1.42 1.42A8.95 8.95 0 0 0 13 21a9 9 0 0 0 0-18m-1 5v5l4.25 2.52l.77-1.28l-3.52-2.09V8z"/></symbol><symbol id="hd-icon-ic-twotone-restore-from-trash" viewBox="0 0 24 24"><path fill="currentColor" d="M16 14h-2v4h-4v-4H8v5h8zm0 0V9H8v5l4-4z" opacity=".3"/><path fill="currentColor" d="M6 19c0 1.1.9 2 2 2h8c1.1 0 2-.9 2-2V7H6zm2-5V9h8v10H8zm7.5-10l-1-1h-5l-1 1H5v2h14V4zM10 18h4v-4h2l-4-4l-4 4h2z"/></symbol><symbol id="hd-icon-ic-twotone-restore-page" viewBox="0 0 24 24"><path fill="currentColor" d="M6 4v16h12V8.83L13.17 4zm10.72 9c0 2.48-2.02 4.5-4.5 4.5a4.51 4.51 0 0 1-4.12-2.7h1.54c.57.81 1.51 1.35 2.58 1.35a3.15 3.15 0 1 0 0-6.3c-1.21 0-2.27.7-2.79 1.71L10.88 13h-3.6V9.4l1.17 1.17c.8-1.24 2.19-2.07 3.78-2.07c2.48 0 4.49 2.02 4.49 4.5" opacity=".3"/><path fill="currentColor" d="M14 2H6c-1.1 0-1.99.9-1.99 2L4 20c0 1.1.89 2 1.99 2H18c1.1 0 2-.9 2-2V8zm4 18H6V4h7.17L18 8.83zm-9.55-9.43L7.28 9.4V13h3.6l-1.44-1.44a3.15 3.15 0 0 1 2.79-1.71a3.15 3.15 0 1 1 0 6.3a3.14 3.14 0 0 1-2.58-1.35H8.1a4.51 4.51 0 0 0 4.12 2.7c2.48 0 4.5-2.02 4.5-4.5s-2.02-4.5-4.5-4.5c-1.59 0-2.97.83-3.77 2.07"/></symbol><symbol id="hd-icon-ic-twotone-reviews" viewBox="0 0 24 24"><path fill="currentColor" d="M4 17.17L5.17 16H20V4H4zm6.43-8.74L12 5l1.57 3.43L17 10l-3.43 1.57L12 15l-1.57-3.43L7 10z" opacity=".3"/><path fill="currentColor" d="M20 2H4c-1.1 0-2 .9-2 2v18l4-4h14c1.1 0 2-.9 2-2V4c0-1.1-.9-2-2-2m0 14H5.17L4 17.17V4h16z"/><path fill="currentColor" d="m12 15l1.57-3.43L17 10l-3.43-1.57L12 5l-1.57 3.43L7 10l3.43 1.57z"/></symbol><symbol id="hd-icon-ic-twotone-rice-bowl" viewBox="0 0 24 24"><path fill="currentColor" d="M19.66 14c-.66 1.92-2.24 3.54-4.4 4.39l-1.26.49V20h-4v-1.12l-1.27-.5c-2.16-.85-3.74-2.47-4.4-4.39h15.33" opacity=".3"/><path fill="currentColor" d="M19.66 14c-.66 1.92-2.24 3.54-4.4 4.39l-1.26.49V20h-4v-1.12l-1.27-.5c-2.16-.85-3.74-2.47-4.4-4.39h15.33M12 2C6.48 2 2 6.48 2 12c0 3.69 2.47 6.86 6 8.25V22h8v-1.75c3.53-1.39 6-4.56 6-8.25c0-5.52-4.48-10-10-10m-2 10V4.26c.64-.16 1.31-.26 2-.26s1.36.1 2 .26V12zm6 0V5.08c2.39 1.39 4 3.96 4 6.92zM4 12c0-2.95 1.61-5.53 4-6.92V12z"/></symbol><symbol id="hd-icon-ic-twotone-ring-volume" viewBox="0 0 24 24"><path fill="currentColor" d="M18.6 17.22c.66.37 1.28.79 1.87 1.27l1.07-1.07c-.91-.75-1.9-1.38-2.94-1.9zM3.53 18.5c.58-.47 1.21-.89 1.87-1.27v-1.71a15 15 0 0 0-2.95 1.9z" opacity=".3"/><path fill="currentColor" d="M12 12C7.46 12 3.34 13.78.29 16.67c-.18.18-.29.43-.29.71s.11.53.29.71l2.48 2.48c.18.18.43.29.71.29c.27 0 .52-.11.7-.28c.79-.74 1.69-1.36 2.66-1.85c.33-.16.56-.5.56-.9v-3.1c1.45-.48 3-.73 4.6-.73s3.15.25 4.6.72v3.1c0 .39.23.74.56.9c.98.49 1.87 1.12 2.66 1.85c.18.18.43.28.7.28c.28 0 .53-.11.71-.29l2.48-2.48c.18-.18.29-.43.29-.71a1 1 0 0 0-.29-.7A16.97 16.97 0 0 0 12 12m-6.6 5.23c-.66.37-1.29.8-1.87 1.27l-1.07-1.07c.91-.75 1.9-1.39 2.95-1.9v1.7zm15.07 1.26c-.59-.48-1.21-.9-1.87-1.27v-1.7c1.04.51 2.03 1.15 2.94 1.9zM16.19 8.4l1.41 1.41s3.45-3.52 3.56-3.55l-1.41-1.41zM11 2h2v5h-2zM6.4 9.81L7.81 8.4L4.26 4.84L2.84 6.26c.11.03 3.56 3.55 3.56 3.55"/></symbol><symbol id="hd-icon-ic-twotone-rocket" viewBox="0 0 24 24"><path fill="currentColor" d="M7.98 18.25c-.29-.9-.57-1.94-.76-3L6 16.07v2.98zM12 4.36S9 6.38 9 13c0 2.25 1 5 1 5h4s1-2.75 1-5c0-6.62-3-8.64-3-8.64M12 13c-1.1 0-2-.9-2-2s.9-2 2-2s2 .9 2 2s-.9 2-2 2m6 6.05v-2.98l-1.22-.81c-.19 1.05-.47 2.1-.76 3z" opacity=".3"/><path fill="currentColor" d="M14 11c0-1.1-.9-2-2-2s-2 .9-2 2s.9 2 2 2s2-.9 2-2m-6.02 7.25c-.29-.9-.57-1.94-.76-3L6 16.07v2.98zM12 2s5 2 5 11l2.11 1.41c.56.37.89 1 .89 1.66V22l-5-2H9l-5 2v-5.93c0-.67.33-1.29.89-1.66L7 13c0-9 5-11 5-11m0 2.36S9 6.38 9 13c0 2.25 1 5 1 5h4s1-2.75 1-5c0-6.62-3-8.64-3-8.64m6 14.69v-2.98l-1.22-.81c-.19 1.05-.47 2.1-.76 3z"/></symbol><symbol id="hd-icon-ic-twotone-rocket-launch" viewBox="0 0 24 24"><path fill="currentColor" d="M6.71 18.71c-.28.28-2.17.76-2.17.76s.47-1.88.76-2.17c.17-.19.42-.3.7-.3a1.003 1.003 0 0 1 .71 1.71m.7-7.88l-1.91-.82l1.97-1.97l1.44.29c-.57.83-1.08 1.7-1.5 2.5m6.58 7.67l-.82-1.91c.8-.42 1.67-.93 2.49-1.5l.29 1.44zm6-14.49S16.44 3.32 11.76 8c-1.32 1.32-2.4 3.38-2.73 4.04l2.93 2.93c.65-.32 2.71-1.4 4.04-2.73c4.68-4.68 3.99-8.23 3.99-8.23M15 11c-1.1 0-2-.9-2-2s.9-2 2-2s2 .9 2 2s-.9 2-2 2" opacity=".3"/><path fill="currentColor" d="M6 15c-.83 0-1.58.34-2.12.88C2.7 17.06 2 22 2 22s4.94-.7 6.12-1.88A2.996 2.996 0 0 0 6 15m.71 3.71c-.28.28-2.17.76-2.17.76s.47-1.88.76-2.17c.17-.19.42-.3.7-.3a1.003 1.003 0 0 1 .71 1.71m10.71-5.06c6.36-6.36 4.24-11.31 4.24-11.31S16.71.22 10.35 6.58l-2.49-.5a2.03 2.03 0 0 0-1.81.55L2 10.69l5 2.14L11.17 17l2.14 5l4.05-4.05c.47-.47.68-1.15.55-1.81zM7.41 10.83l-1.91-.82l1.97-1.97l1.44.29c-.57.83-1.08 1.7-1.5 2.5m6.58 7.67l-.82-1.91c.8-.42 1.67-.93 2.49-1.5l.29 1.44zM16 12.24c-1.32 1.32-3.38 2.4-4.04 2.73l-2.93-2.93c.32-.65 1.4-2.71 2.73-4.04c4.68-4.68 8.23-3.99 8.23-3.99s.69 3.55-3.99 8.23M15 11c1.1 0 2-.9 2-2s-.9-2-2-2s-2 .9-2 2s.9 2 2 2"/></symbol><symbol id="hd-icon-ic-twotone-roller-shades" viewBox="0 0 24 24"><path fill="currentColor" d="M6 5h12v6H6z" opacity=".3"/><path fill="currentColor" d="M20 19V3H4v16H2v2h20v-2zm-2 0H6v-6h5v1.82A1.746 1.746 0 0 0 12 18a1.746 1.746 0 0 0 1-3.18V13h5zm0-8H6V5h12z"/></symbol><symbol id="hd-icon-ic-twotone-roller-shades-closed" viewBox="0 0 24 24"><path fill="currentColor" d="M6 5h12v10H6z" opacity=".3"/><path fill="currentColor" d="M20 19V3H4v16H2v2h8.25c0 .97.78 1.75 1.75 1.75s1.75-.78 1.75-1.75H22v-2zm-9 0H6v-2h5zm7 0h-5v-2h5zm0-4H6V5h12z"/></symbol><symbol id="hd-icon-ic-twotone-roller-skating" viewBox="0 0 24 24"><path fill="currentColor" d="M18 14H6V3h5v1H9.5c-.28 0-.5.22-.5.5s.22.5.5.5H11l.1 1H9.5c-.28 0-.5.22-.5.5s.22.5.5.5h1.81c.45 1.12 1.4 2.01 2.6 2.36l2.62.73C17.4 10.33 18 11.1 18 12zM5 21c-.55 0-1-.45-1-1s.45-1 1-1s1 .45 1 1s-.45 1-1 1m14 0c-.55 0-1-.45-1-1s.45-1 1-1s1 .45 1 1s-.45 1-1 1m-7 0c-.55 0-1-.45-1-1s.45-1 1-1s1 .45 1 1s-.45 1-1 1" opacity=".3"/><path fill="currentColor" d="M20 12a3.96 3.96 0 0 0-2.91-3.82l-2.62-.74C13.62 7.19 13 6.39 13 5.5V1H4v15h16zm-2 2H6V3h5v1H9.5c-.28 0-.5.22-.5.5s.22.5.5.5H11l.1 1H9.5c-.28 0-.5.22-.5.5s.22.5.5.5h1.81c.45 1.12 1.4 2.01 2.6 2.36l2.62.73C17.4 10.33 18 11.1 18 12zM5 17c-1.66 0-3 1.34-3 3s1.34 3 3 3s3-1.34 3-3s-1.34-3-3-3m0 4c-.55 0-1-.45-1-1s.45-1 1-1s1 .45 1 1s-.45 1-1 1m14-4c-1.66 0-3 1.34-3 3s1.34 3 3 3s3-1.34 3-3s-1.34-3-3-3m0 4c-.55 0-1-.45-1-1s.45-1 1-1s1 .45 1 1s-.45 1-1 1m-7-4c-1.66 0-3 1.34-3 3s1.34 3 3 3s3-1.34 3-3s-1.34-3-3-3m0 4c-.55 0-1-.45-1-1s.45-1 1-1s1 .45 1 1s-.45 1-1 1"/></symbol><symbol id="hd-icon-ic-twotone-roofing" viewBox="0 0 24 24"><path fill="currentColor" d="M11 16h2v2h-2z" opacity=".3"/><path fill="currentColor" d="M13 18h-2v-2h2zm2-4H9v6h6zm4-4.7V4h-3v2.6L12 3L2 12h3l7-6.31L19 12h3z"/></symbol><symbol id="hd-icon-ic-twotone-room" viewBox="0 0 24 24"><path fill="currentColor" d="M12 4C9.24 4 7 6.24 7 9c0 2.85 2.92 7.21 5 9.88c2.11-2.69 5-7 5-9.88c0-2.76-2.24-5-5-5m0 7.5a2.5 2.5 0 0 1 0-5a2.5 2.5 0 0 1 0 5" opacity=".3"/><path fill="currentColor" d="M12 2C8.13 2 5 5.13 5 9c0 5.25 7 13 7 13s7-7.75 7-13c0-3.87-3.13-7-7-7M7 9c0-2.76 2.24-5 5-5s5 2.24 5 5c0 2.88-2.88 7.19-5 9.88C9.92 16.21 7 11.85 7 9"/><circle cx="12" cy="9" r="2.5" fill="currentColor"/></symbol><symbol id="hd-icon-ic-twotone-room-preferences" viewBox="0 0 24 24"><path fill="currentColor" d="M13 12.11V5H7v14h4.29c-.19-.63-.29-1.3-.29-2c0-1.91.76-3.63 2-4.89M10 11h2v2h-2z" opacity=".3"/><path fill="currentColor" d="M12 13h-2v-2h2zm-5 6V5h6v7.11c.57-.59 1.25-1.07 2-1.42V6h2v4h2V4h-4V3H5v16H3v2h9.26c-.42-.6-.75-1.28-.97-2zm14.69-1.37l1.14 1l-1 1.73l-1.45-.49q-.48.405-1.08.63L19 22h-2l-.3-1.49q-.6-.225-1.08-.63l-1.45.49l-1-1.73l1.14-1c-.08-.5-.08-.76 0-1.26l-1.14-1l1-1.73l1.45.49q.48-.405 1.08-.63L17 12h2l.3 1.49q.6.225 1.08.63l1.45-.49l1 1.73l-1.14 1c.08.51.08.77 0 1.27M20 17c0-1.1-.9-2-2-2s-2 .9-2 2s.9 2 2 2s2-.9 2-2"/></symbol><symbol id="hd-icon-ic-twotone-room-service" viewBox="0 0 24 24"><path fill="currentColor" d="M12 9.58c-2.95 0-5.47 1.83-6.5 4.41h13A7 7 0 0 0 12 9.58" opacity=".3"/><path fill="currentColor" d="M2 17h20v2H2zm11.84-9.21A2.006 2.006 0 0 0 12 5a2.006 2.006 0 0 0-1.84 2.79C6.25 8.6 3.27 11.93 3 16h18c-.27-4.07-3.25-7.4-7.16-8.21M12 9.58c2.95 0 5.47 1.83 6.5 4.41h-13A7 7 0 0 1 12 9.58"/></symbol><symbol id="hd-icon-ic-twotone-rotate-90-degrees-ccw" viewBox="0 0 24 24"><path fill="currentColor" d="M7.35 9.24L3.69 12.9l3.65 3.66L11 12.9z" opacity=".3"/><path fill="currentColor" d="M7.34 6.41L.86 12.9l6.49 6.48l6.49-6.48zm0 10.15L3.69 12.9l3.66-3.66L11 12.9zm12.02-9.92A8.95 8.95 0 0 0 13 4V.76L8.76 5L13 9.24V6c1.79 0 3.58.68 4.95 2.05a7.007 7.007 0 0 1 0 9.9a6.97 6.97 0 0 1-7.79 1.44l-1.49 1.49C10.02 21.62 11.51 22 13 22c2.3 0 4.61-.88 6.36-2.64a8.98 8.98 0 0 0 0-12.72"/></symbol><symbol id="hd-icon-ic-twotone-rotate-90-degrees-cw" viewBox="0 0 24 24"><path fill="currentColor" d="M4.64 19.37c3.03 3.03 7.67 3.44 11.15 1.25l-1.46-1.46c-2.66 1.43-6.04 1.03-8.28-1.21a7.007 7.007 0 0 1 0-9.9C7.42 6.69 9.21 6.03 11 6.03V9l4-4l-4-4v3.01c-2.3 0-4.61.87-6.36 2.63c-3.52 3.51-3.52 9.21 0 12.73M11 13l6 6l6-6l-6-6zm6 3.17L13.83 13L17 9.83L20.17 13z"/><path fill="currentColor" d="m13.817 12.995l3.175-3.175l3.175 3.174l-3.175 3.175z" opacity=".3"/></symbol><symbol id="hd-icon-ic-twotone-rotate-left" viewBox="0 0 24 24"><path fill="currentColor" d="M13 17.91v2.02c3.95-.49 7-3.85 7-7.93s-3.05-7.44-7-7.93V1L8.45 5.55L13 10V6.09c2.84.48 5 2.94 5 5.91s-2.16 5.43-5 5.91m-7.31-1.02l1.41-1.42c-.52-.75-.87-1.59-1.01-2.47H4.07c.17 1.39.72 2.73 1.62 3.89m1.42-8.36L5.7 7.11C4.8 8.27 4.24 9.61 4.07 11h2.02c.14-.87.49-1.72 1.02-2.47M11 17.9c-.87-.15-1.71-.49-2.46-1.03L7.1 18.32c1.16.9 2.51 1.44 3.9 1.61z"/></symbol><symbol id="hd-icon-ic-twotone-rotate-right" viewBox="0 0 24 24"><path fill="currentColor" d="M19.93 11a7.9 7.9 0 0 0-1.62-3.89l-1.42 1.42c.54.75.88 1.6 1.02 2.47zM11 1v3.07C7.06 4.56 4 7.92 4 12s3.05 7.44 7 7.93v-2.02c-2.84-.48-5-2.94-5-5.91s2.16-5.43 5-5.91V10l4.55-4.45zm4.46 15.87c-.75.54-1.59.89-2.46 1.03v2.02c1.39-.17 2.74-.71 3.9-1.61zm2.85.02c.9-1.16 1.45-2.5 1.62-3.89h-2.02c-.14.87-.48 1.72-1.02 2.48z"/></symbol><symbol id="hd-icon-ic-twotone-roundabout-left" viewBox="0 0 24 24"><path fill="currentColor" d="M10.08 8A6 6 0 0 1 16 3c3.31 0 6 2.69 6 6c0 2.97-2.16 5.44-5 5.92V21h-2v-6.09c0-.98.71-1.8 1.67-1.97a3.999 3.999 0 1 0-4.61-4.61c-.17.96-.99 1.67-1.97 1.67H5.83l1.59 1.59L6 13L2 9l4-4l1.41 1.41L5.83 8z"/></symbol><symbol id="hd-icon-ic-twotone-roundabout-right" viewBox="0 0 24 24"><path fill="currentColor" d="M13.92 8C13.44 5.16 10.97 3 8 3C4.69 3 2 5.69 2 9c0 2.97 2.16 5.44 5 5.92V21h2v-6.09c0-.98-.71-1.8-1.67-1.97a3.999 3.999 0 1 1 4.61-4.61c.17.96.99 1.67 1.97 1.67h4.26l-1.59 1.59L18 13l4-4l-4-4l-1.41 1.41L18.17 8z"/></symbol><symbol id="hd-icon-ic-twotone-rounded-corner" viewBox="0 0 24 24"><path fill="currentColor" d="M19 19h2v2h-2zm0-2h2v-2h-2zM3 13h2v-2H3zm0 4h2v-2H3zm0-8h2V7H3zm0-4h2V3H3zm4 0h2V3H7zm8 16h2v-2h-2zm-4 0h2v-2h-2zm4 0h2v-2h-2zm-8 0h2v-2H7zm-4 0h2v-2H3zM21 8c0-2.76-2.24-5-5-5h-5v2h5c1.65 0 3 1.35 3 3v5h2z"/></symbol><symbol id="hd-icon-ic-twotone-route" viewBox="0 0 24 24"><circle cx="6" cy="6" r="1" fill="currentColor" opacity=".3"/><circle cx="18" cy="18" r="1" fill="currentColor" opacity=".3"/><path fill="currentColor" d="M19 15.18V7c0-2.21-1.79-4-4-4s-4 1.79-4 4v10c0 1.1-.9 2-2 2s-2-.9-2-2V8.82C8.16 8.4 9 7.3 9 6c0-1.66-1.34-3-3-3S3 4.34 3 6c0 1.3.84 2.4 2 2.82V17c0 2.21 1.79 4 4 4s4-1.79 4-4V7c0-1.1.9-2 2-2s2 .9 2 2v8.18A2.996 2.996 0 0 0 18 21c1.66 0 3-1.34 3-3c0-1.3-.84-2.4-2-2.82M6 7c-.55 0-1-.45-1-1s.45-1 1-1s1 .45 1 1s-.45 1-1 1m12 12c-.55 0-1-.45-1-1s.45-1 1-1s1 .45 1 1s-.45 1-1 1"/></symbol><symbol id="hd-icon-ic-twotone-router" viewBox="0 0 24 24"><path fill="currentColor" d="M15 15H5v4h14v-4zm-7 3H6v-2h2zm3.5 0h-2v-2h2zm3.5 0h-2v-2h2z" opacity=".3"/><path fill="currentColor" d="M16 4.2c1.5 0 3 .6 4.2 1.7l.8-.8C19.6 3.7 17.8 3 16 3s-3.6.7-5 2.1l.8.8C13 4.8 14.5 4.2 16 4.2m-3.3 2.5l.8.8c.7-.7 1.6-1 2.5-1s1.8.3 2.5 1l.8-.8c-.9-.9-2.1-1.4-3.3-1.4s-2.4.5-3.3 1.4M19 13h-2V9h-2v4H5c-1.1 0-2 .9-2 2v4c0 1.1.9 2 2 2h14c1.1 0 2-.9 2-2v-4c0-1.1-.9-2-2-2m0 6H5v-4h14zM6 16h2v2H6zm3.5 0h2v2h-2zm3.5 0h2v2h-2z"/></symbol><symbol id="hd-icon-ic-twotone-rowing" viewBox="0 0 24 24"><path fill="currentColor" d="M8.5 14.5L4 19l1.5 1.5L9 17h2zM15 1c-1.1 0-2 .9-2 2s.9 2 2 2s2-.9 2-2s-.9-2-2-2m6 20.01L18 24l-2.99-3.01V19.5l-7.1-7.09c-.31.05-.61.07-.91.07v-2.16c1.66.03 3.61-.87 4.67-2.04l1.4-1.55c.19-.21.43-.38.69-.5c.29-.14.62-.23.96-.23h.03C15.99 6.01 17 7.02 17 8.26v5.75c0 .84-.35 1.61-.92 2.16l-3.58-3.58v-2.27c-.63.52-1.43 1.02-2.29 1.39L16.5 18H18z"/></symbol><symbol id="hd-icon-ic-twotone-rss-feed" viewBox="0 0 24 24"><circle cx="6.18" cy="17.82" r="2.18" fill="currentColor"/><path fill="currentColor" d="M4 4.44v2.83c7.03 0 12.73 5.7 12.73 12.73h2.83c0-8.59-6.97-15.56-15.56-15.56m0 5.66v2.83c3.9 0 7.07 3.17 7.07 7.07h2.83c0-5.47-4.43-9.9-9.9-9.9"/></symbol><symbol id="hd-icon-ic-twotone-rsvp" viewBox="0 0 24 24"><path fill="currentColor" d="M16 9h1.5l-1.75 6h-1.5L12.5 9H14l1 3.43zM5.1 12.9L6 15H4.5l-.85-2H2.5v2H1V9h3.5c.85 0 1.5.65 1.5 1.5v1c0 .6-.4 1.15-.9 1.4m-.6-2.4h-2v1h2zm17 2.5h-2v2H18V9h3.5c.83 0 1.5.67 1.5 1.5v1c0 .83-.67 1.5-1.5 1.5m0-2.5h-2v1h2zM11.5 9v1.5h-3v.75h2c.55 0 1 .45 1 1V14c0 .55-.45 1-1 1H7v-1.5h3v-.75H7.75c-.41 0-.75-.34-.75-.75v-2c0-.55.45-1 1-1z"/></symbol><symbol id="hd-icon-ic-twotone-rtt" viewBox="0 0 24 24"><path fill="currentColor" d="m9.03 3l-1.11 7.07h2.62l.7-4.5h2.58L11.8 18.43H9.47L9.06 21h7.27l.4-2.57h-2.35l2-12.86h2.58l-.71 4.5h2.65L22 3zM8 5H4l-.31 2h4zm-.61 4h-4l-.31 2h4zm.92 8h-6L2 19h6zm.62-4h-6l-.31 2h6.01z"/></symbol><symbol id="hd-icon-ic-twotone-rule" viewBox="0 0 24 24"><path fill="currentColor" d="M16.54 11L13 7.46l1.41-1.41l2.12 2.12l4.24-4.24l1.41 1.41zM11 7H2v2h9zm10 6.41L19.59 12L17 14.59L14.41 12L13 13.41L15.59 16L13 18.59L14.41 20L17 17.41L19.59 20L21 18.59L18.41 16zM11 15H2v2h9z"/></symbol><symbol id="hd-icon-ic-twotone-rule-folder" viewBox="0 0 24 24"><path fill="currentColor" d="m11.17 8l-2-2H4v12h16V8zm-3.34 8L5 13.17l1.41-1.41l1.41 1.41l3.54-3.54l1.41 1.41zM19 14.59L17.59 16L16 14.41L14.41 16L13 14.59L14.59 13L13 11.41L14.41 10L16 11.59L17.59 10L19 11.41L17.41 13z" opacity=".3"/><path fill="currentColor" d="M7.83 16L5 13.17l1.41-1.41l1.41 1.41l3.54-3.54l1.41 1.41zm9.58-3L19 14.59L17.59 16L16 14.41L14.41 16L13 14.59L14.59 13L13 11.41L14.41 10L16 11.59L17.59 10L19 11.41zM20 6h-8l-2-2H4c-1.1 0-1.99.9-1.99 2L2 18c0 1.1.9 2 2 2h16c1.1 0 2-.9 2-2V8c0-1.1-.9-2-2-2m0 12H4V6h5.17l2 2H20z"/></symbol><symbol id="hd-icon-ic-twotone-run-circle" viewBox="0 0 24 24"><path fill="currentColor" d="M12 4c-4.42 0-8 3.58-8 8s3.58 8 8 8s8-3.58 8-8s-3.58-8-8-8m1.5 2c.55 0 1 .45 1 1s-.45 1-1 1s-1-.45-1-1s.45-1 1-1m2.5 6c-.7 0-2.01-.54-2.91-1.76l-.41 2.35L14 14.03V18h-1v-3.58l-1.11-1.21l-.52 2.64l-3.77-.77l.2-.98l2.78.57l.96-4.89l-1.54.57V12H9V9.65l3.28-1.21c.49-.18 1.03.06 1.26.53c.83 1.7 2.05 2.03 2.46 2.03z" opacity=".3"/><path fill="currentColor" d="M12 2C6.48 2 2 6.48 2 12s4.48 10 10 10s10-4.48 10-10S17.52 2 12 2m0 18c-4.42 0-8-3.58-8-8s3.58-8 8-8s8 3.58 8 8s-3.58 8-8 8"/><path fill="currentColor" d="M13.54 8.97c-.23-.47-.76-.71-1.26-.53L9 9.65V12h1v-1.65l1.54-.57l-.96 4.89l-2.78-.57l-.2.98l3.76.77l.52-2.64L13 14.42V18h1v-3.97l-1.32-1.44l.41-2.35C13.99 11.46 15.3 12 16 12v-1c-.41 0-1.63-.33-2.46-2.03"/><circle cx="13.5" cy="7" r="1" fill="currentColor"/></symbol><symbol id="hd-icon-ic-twotone-running-with-errors" viewBox="0 0 24 24"><path fill="currentColor" d="M22 10v8h-2v-8zm-2 10v2h2v-2zm-2-2.71A8 8 0 0 1 12 20c-4.41 0-8-3.59-8-8s3.59-8 8-8v9l7.55-7.55A9.97 9.97 0 0 0 12 2C6.48 2 2 6.48 2 12s4.48 10 10 10c2.25 0 4.33-.74 6-2z"/></symbol><symbol id="hd-icon-ic-twotone-rv-hookup" viewBox="0 0 24 24"><defs><path id="hd-icon-ic-twotone-rv-hookup-4" fill="currentColor" d="M20 17v-6c0-1.1-.9-2-2-2H7V7l-3 3l3 3v-2h4v3H4v3c0 1.1.9 2 2 2h2c0 1.66 1.34 3 3 3s3-1.34 3-3h8v-2zm-9 3c-.55 0-1-.45-1-1s.45-1 1-1s1 .45 1 1s-.45 1-1 1m7-6h-4v-3h4zM17 2v2H9v2h8v2l3-3z"/></defs><use href="#hd-icon-ic-twotone-rv-hookup-4" opacity=".3"/><use href="#hd-icon-ic-twotone-rv-hookup-4"/></symbol><symbol id="hd-icon-ic-twotone-safety-check" viewBox="0 0 24 24"><path fill="currentColor" d="M12 4.14L6 6.39v4.7c0 4 2.55 7.7 6 8.83c3.45-1.13 6-4.82 6-8.83v-4.7zM12 17c-2.76 0-5-2.24-5-5s2.24-5 5-5s5 2.24 5 5s-2.24 5-5 5m1.65-2.65L11.5 12.2V9h1v2.79l1.85 1.85z" opacity=".3"/><path fill="currentColor" d="M12 2L4 5v6.09c0 5.05 3.41 9.76 8 10.91c4.59-1.15 8-5.86 8-10.91V5zm6 9.09c0 4-2.55 7.7-6 8.83c-3.45-1.13-6-4.82-6-8.83v-4.7l6-2.25l6 2.25zM12 7c-2.76 0-5 2.24-5 5s2.24 5 5 5s5-2.24 5-5s-2.24-5-5-5m1.65 7.35L11.5 12.2V9h1v2.79l1.85 1.85z"/></symbol><symbol id="hd-icon-ic-twotone-safety-divider" viewBox="0 0 24 24"><path fill="currentColor" d="M11 5h2v14h-2zm-6 7c1.1 0 2-.9 2-2s-.9-2-2-2s-2 .9-2 2s.9 2 2 2m2.78 1.58a6.95 6.95 0 0 0-5.56 0A2.01 2.01 0 0 0 1 15.43V16h8v-.57c0-.81-.48-1.53-1.22-1.85M19 12c1.1 0 2-.9 2-2s-.9-2-2-2s-2 .9-2 2s.9 2 2 2m2.78 1.58a6.95 6.95 0 0 0-5.56 0A2.01 2.01 0 0 0 15 15.43V16h8v-.57c0-.81-.48-1.53-1.22-1.85"/></symbol><symbol id="hd-icon-ic-twotone-sailing" viewBox="0 0 24 24"><path fill="currentColor" d="M9 11.5H6.83L9 8.38zm6.38-6.26c1.42 1.52 2.88 3.72 3.41 6.26h-3.68c.21-1.1.39-2.46.39-4c0-.79-.05-1.55-.12-2.26" opacity=".3"/><path fill="currentColor" d="M11 13.5V2L3 13.5zm-2-2H6.83L9 8.38zm12 2C21 6.5 14.5 1 12.5 1c0 0 1 3 1 6.5s-1 6-1 6zm-5.62-8.26c1.42 1.52 2.88 3.72 3.41 6.26h-3.68c.21-1.1.39-2.46.39-4c0-.79-.05-1.55-.12-2.26M22 15H2a6.23 6.23 0 0 0 2.33 3.73c.65-.27 1.22-.72 1.67-1.23c.73.84 1.8 1.5 3 1.5s2.27-.66 3-1.5c.73.84 1.8 1.5 3 1.5s2.26-.66 3-1.5c.45.51 1.02.96 1.67 1.23c1.17-.89 2.02-2.2 2.33-3.73m0 8v-2h-1c-1.04 0-2.08-.35-3-1c-1.83 1.3-4.17 1.3-6 0c-1.83 1.3-4.17 1.3-6 0c-.91.65-1.96 1-3 1H2v2h1c1.03 0 2.05-.25 3-.75c1.89 1 4.11 1 6 0c1.89 1 4.11 1 6 0c.95.5 1.97.75 3 .75z"/></symbol><symbol id="hd-icon-ic-twotone-sanitizer" viewBox="0 0 24 24"><path fill="currentColor" d="M10 8c-2.21 0-4 1.79-4 4v8h8v-8c0-2.21-1.79-4-4-4m3 8h-2v2H9v-2H7v-2h2v-2h2v2h2z" opacity=".3"/><path fill="currentColor" d="M15.5 6.5C15.5 5.66 17 4 17 4s1.5 1.66 1.5 2.5c0 .83-.67 1.5-1.5 1.5s-1.5-.67-1.5-1.5m4 8.5a2.5 2.5 0 0 0 2.5-2.5c0-1.67-2.5-4.5-2.5-4.5S17 10.83 17 12.5a2.5 2.5 0 0 0 2.5 2.5M13 14h-2v-2H9v2H7v2h2v2h2v-2h2zm3-2v8c0 1.1-.9 2-2 2H6c-1.1 0-2-.9-2-2v-8c0-2.97 2.16-5.43 5-5.91V4H7V2h6c1.13 0 2.15.39 2.99 1.01l-1.43 1.43C14.1 4.17 13.57 4 13 4h-2v2.09c2.84.48 5 2.94 5 5.91m-2 0c0-2.21-1.79-4-4-4s-4 1.79-4 4v8h8z"/></symbol><symbol id="hd-icon-ic-twotone-satellite" viewBox="0 0 24 24"><path fill="currentColor" d="M5 19h14V5H5zM6 6h2.57c0 1.42-1.15 2.58-2.57 2.58zm0 4.29c2.37 0 4.28-1.93 4.28-4.29H12c0 3.31-2.68 6-6 6zm3 2.86l2.14 2.58l3-3.86L18 17H6z" opacity=".3"/><path fill="currentColor" d="M19 3H5c-1.1 0-2 .9-2 2v14c0 1.1.9 2 2 2h14c1.1 0 2-.9 2-2V5c0-1.1-.9-2-2-2m0 16H5V5h14zM8.57 6H6v2.58c1.42 0 2.57-1.16 2.57-2.58M12 6h-1.72c0 2.36-1.91 4.29-4.28 4.29V12c3.32 0 6-2.69 6-6m2.14 5.86l-3 3.87L9 13.15L6 17h12z"/></symbol><symbol id="hd-icon-ic-twotone-satellite-alt" viewBox="0 0 24 24"><path fill="currentColor" d="m6.6 19.32l-1.06 1.06L2 16.85l1.06-1.06zm2.12-2.12l-1.06 1.06l-3.54-3.54l1.06-1.06zm4.95-4.95l-1.41 1.41l-3.54-3.54l1.41-1.41zm4.59-4.59L17.2 8.72l-3.54-3.54l1.06-1.06zm2.12-2.12L19.32 6.6l-3.54-3.54L16.85 2z" opacity=".3"/><path fill="currentColor" d="m15.44.59l-3.18 3.18c-.78.78-.78 2.05 0 2.83l1.24 1.24l-.71.71l-1.24-1.25c-.78-.78-2.05-.78-2.83 0L7.3 8.72c-.78.78-.78 2.05 0 2.83l1.24 1.24l-.71.71l-1.23-1.25c-.78-.78-2.05-.78-2.83 0L.59 15.43c-.78.78-.78 2.05 0 2.83l3.54 3.54c.78.78 2.05.78 2.83 0l3.18-3.18c.78-.78.78-2.05 0-2.83L8.9 14.55l.71-.71l1.24 1.24c.78.78 2.05.78 2.83 0l1.41-1.41c.78-.78.78-2.05 0-2.83L13.84 9.6l.71-.71l1.24 1.24c.78.78 2.05.78 2.83 0l3.18-3.18c.78-.78.78-2.05 0-2.83L18.26.58c-.78-.78-2.04-.78-2.82.01M6.6 19.32l-1.06 1.06L2 16.85l1.06-1.06zm2.12-2.12l-1.06 1.06l-3.54-3.54l1.06-1.06zm4.95-4.95l-1.41 1.41l-3.54-3.54l1.41-1.41zm4.59-4.59L17.2 8.72l-3.54-3.54l1.06-1.06zm2.12-2.12L19.32 6.6l-3.54-3.54L16.85 2zM21 14h2a9 9 0 0 1-9 9v-2c3.87 0 7-3.13 7-7m-4 0h2c0 2.76-2.24 5-5 5v-2c1.66 0 3-1.34 3-3"/></symbol></svg>