<svg xmlns="http://www.w3.org/2000/svg" xmlns:xlink="http://www.w3.org/1999/xlink"><symbol id="hd-icon-ic-twotone-keyboard-backspace" viewBox="0 0 24 24"><path fill="currentColor" d="M21 11H6.83l3.58-3.59L9 6l-6 6l6 6l1.41-1.41L6.83 13H21z"/></symbol><symbol id="hd-icon-ic-twotone-keyboard-capslock" viewBox="0 0 24 24"><path fill="currentColor" d="M12 8.41L16.59 13L18 11.59l-6-6l-6 6L7.41 13zM6 18h12v-2H6z"/></symbol><symbol id="hd-icon-ic-twotone-keyboard-command-key" viewBox="0 0 24 24"><path fill="currentColor" d="M17.5 3C15.57 3 14 4.57 14 6.5V8h-4V6.5C10 4.57 8.43 3 6.5 3S3 4.57 3 6.5S4.57 10 6.5 10H8v4H6.5C4.57 14 3 15.57 3 17.5S4.57 21 6.5 21s3.5-1.57 3.5-3.5V16h4v1.5c0 1.93 1.57 3.5 3.5 3.5s3.5-1.57 3.5-3.5s-1.57-3.5-3.5-3.5H16v-4h1.5c1.93 0 3.5-1.57 3.5-3.5S19.43 3 17.5 3M16 8V6.5c0-.83.67-1.5 1.5-1.5s1.5.67 1.5 1.5S18.33 8 17.5 8zM6.5 8C5.67 8 5 7.33 5 6.5S5.67 5 6.5 5S8 5.67 8 6.5V8zm3.5 6v-4h4v4zm7.5 5c-.83 0-1.5-.67-1.5-1.5V16h1.5c.83 0 1.5.67 1.5 1.5s-.67 1.5-1.5 1.5m-11 0c-.83 0-1.5-.67-1.5-1.5S5.67 16 6.5 16H8v1.5c0 .83-.67 1.5-1.5 1.5"/></symbol><symbol id="hd-icon-ic-twotone-keyboard-control-key" viewBox="0 0 24 24"><path fill="currentColor" d="m5 12l1.41 1.41L12 7.83l5.59 5.58L19 12l-7-7z"/></symbol><symbol id="hd-icon-ic-twotone-keyboard-double-arrow-down" viewBox="0 0 24 24"><path fill="currentColor" d="M18 6.41L16.59 5L12 9.58L7.41 5L6 6.41l6 6z"/><path fill="currentColor" d="m18 13l-1.41-1.41L12 16.17l-4.59-4.58L6 13l6 6z"/></symbol><symbol id="hd-icon-ic-twotone-keyboard-double-arrow-left" viewBox="0 0 24 24"><path fill="currentColor" d="M17.59 18L19 16.59L14.42 12L19 7.41L17.59 6l-6 6z"/><path fill="currentColor" d="m11 18l1.41-1.41L7.83 12l4.58-4.59L11 6l-6 6z"/></symbol><symbol id="hd-icon-ic-twotone-keyboard-double-arrow-right" viewBox="0 0 24 24"><path fill="currentColor" d="M6.41 6L5 7.41L9.58 12L5 16.59L6.41 18l6-6z"/><path fill="currentColor" d="m13 6l-1.41 1.41L16.17 12l-4.58 4.59L13 18l6-6z"/></symbol><symbol id="hd-icon-ic-twotone-keyboard-double-arrow-up" viewBox="0 0 24 24"><path fill="currentColor" d="M6 17.59L7.41 19L12 14.42L16.59 19L18 17.59l-6-6z"/><path fill="currentColor" d="m6 11l1.41 1.41L12 7.83l4.59 4.58L18 11l-6-6z"/></symbol><symbol id="hd-icon-ic-twotone-keyboard-hide" viewBox="0 0 24 24"><path fill="currentColor" d="M4 15h16V5H4zm13-9h2v2h-2zm0 3h2v2h-2zm-3-3h2v2h-2zm0 3h2v2h-2zm-3-3h2v2h-2zm0 3h2v2h-2zM8 6h2v2H8zm0 3h2v2H8zm0 3h8v2H8zM5 6h2v2H5zm0 3h2v2H5z" opacity=".3"/><path fill="currentColor" d="M20 3H4c-1.1 0-1.99.9-1.99 2L2 15c0 1.1.9 2 2 2h16c1.1 0 2-.9 2-2V5c0-1.1-.9-2-2-2m0 12H4V5h16zm-9-9h2v2h-2zm0 3h2v2h-2zM8 6h2v2H8zm0 3h2v2H8zM5 9h2v2H5zm0-3h2v2H5zm3 6h8v2H8zm6-3h2v2h-2zm0-3h2v2h-2zm3 3h2v2h-2zm0-3h2v2h-2zm-5 17l4-4H8z"/></symbol><symbol id="hd-icon-ic-twotone-keyboard-option-key" viewBox="0 0 24 24"><path fill="currentColor" d="M15 5h6v2h-6zM9 5H3v2h4.85l6.92 12H21v-2h-5.07z"/></symbol><symbol id="hd-icon-ic-twotone-keyboard-return" viewBox="0 0 24 24"><path fill="currentColor" d="M19 7v4H5.83l3.58-3.59L8 6l-6 6l6 6l1.41-1.41L5.83 13H21V7z"/></symbol><symbol id="hd-icon-ic-twotone-keyboard-tab" viewBox="0 0 24 24"><path fill="currentColor" d="M11.59 7.41L15.17 11H1v2h14.17l-3.59 3.59L13 18l6-6l-6-6zM20 6v12h2V6z"/></symbol><symbol id="hd-icon-ic-twotone-keyboard-voice" viewBox="0 0 24 24"><path fill="currentColor" d="M12 13.3c.66 0 1.19-.54 1.19-1.2l.01-6.2c0-.66-.54-1.2-1.2-1.2s-1.2.54-1.2 1.2v6.2c0 .66.54 1.2 1.2 1.2" opacity=".3"/><path fill="currentColor" d="M12 15c1.66 0 2.99-1.34 2.99-3L15 6c0-1.66-1.34-3-3-3S9 4.34 9 6v6c0 1.66 1.34 3 3 3m-1.2-9.1c0-.66.54-1.2 1.2-1.2s1.2.54 1.2 1.2l-.01 6.2c0 .66-.53 1.2-1.19 1.2s-1.2-.54-1.2-1.2zm6.5 6.1c0 3-2.54 5.1-5.3 5.1S6.7 15 6.7 12H5c0 3.41 2.72 6.23 6 6.72V22h2v-3.28c3.28-.48 6-3.3 6-6.72z"/></symbol><symbol id="hd-icon-ic-twotone-king-bed" viewBox="0 0 24 24"><path fill="currentColor" d="M4 12h16v3H4z" opacity=".3"/><path fill="currentColor" d="M20 10V7c0-1.1-.9-2-2-2H6c-1.1 0-2 .9-2 2v3c-1.1 0-2 .9-2 2v5h1.33L4 19h1l.67-2h12.67l.66 2h1l.67-2H22v-5c0-1.1-.9-2-2-2m-7-3h5v3h-5zM6 7h5v3H6zm14 8H4v-3h16z"/></symbol><symbol id="hd-icon-ic-twotone-kitchen" viewBox="0 0 24 24"><path fill="currentColor" d="M8 5h2v3H8zm0 7h2v5H8zm-2 8h12v-9.02H6zm2-8h2v5H8zM6 9h12V4H6zm2-4h2v3H8z" opacity=".3"/><path fill="currentColor" d="M18 2.01L6 2a2 2 0 0 0-2 2v16c0 1.1.9 2 2 2h12c1.1 0 2-.9 2-2V4c0-1.11-.9-1.99-2-1.99M18 20H6v-9.02h12zm0-11H6V4h12zM8 5h2v3H8zm0 7h2v5H8z"/></symbol><symbol id="hd-icon-ic-twotone-kitesurfing" viewBox="0 0 24 24"><path fill="currentColor" d="M6 3c0-1.1.9-2 2-2s2 .9 2 2s-.9 2-2 2s-2-.9-2-2m14.06-2h-2.12L15.5 3.44l1.06 1.06zM22 23v-2h-1c-1.04 0-2.08-.35-3-1c-1.83 1.3-4.17 1.3-6 0c-1.83 1.3-4.17 1.3-6 0c-.91.65-1.96 1-3 1H2v2h1c1.03 0 2.05-.25 3-.75c1.89 1 4.11 1 6 0c1.89 1 4.11 1 6 0c.95.5 1.97.75 3 .75zm-1-9.72c0 1.44-2.19 3.62-5.04 5.58c-.31.09-.63.14-.96.14c-1.2 0-2.27-.66-3-1.5c-.73.84-1.8 1.5-3 1.5c-.94 0-1.81-.41-2.49-.99c.46-.39.96-.78 1.49-1.17l-1.55-2.97A4.06 4.06 0 0 1 6 12V8c0-1.1.9-2 2-2h3c1.38 0 2.63-.56 3.54-1.46l1.41 1.41A7.02 7.02 0 0 1 11 8H9.6v3.5h2.8l1.69 1.88c1.95-.84 3.77-1.38 5.06-1.38c.84 0 1.85.25 1.85 1.28m-8.8.99l-.7-.77l-2.5.1l.83 2.01c.59-.38 1.81-1.06 2.37-1.34"/></symbol><symbol id="hd-icon-ic-twotone-label" viewBox="0 0 24 24"><path fill="currentColor" d="M16 7H5v10h11l3.55-5z" opacity=".3"/><path fill="currentColor" d="M17.63 5.84C17.27 5.33 16.67 5 16 5L5 5.01C3.9 5.01 3 5.9 3 7v10c0 1.1.9 1.99 2 1.99L16 19c.67 0 1.27-.33 1.63-.84L22 12zM16 17H5V7h11l3.55 5z"/></symbol><symbol id="hd-icon-ic-twotone-label-important" viewBox="0 0 24 24"><path fill="currentColor" d="M15 7H7.89l3.57 5l-3.57 5H15l3.55-5z" opacity=".3"/><path fill="currentColor" d="M16.63 5.84C16.27 5.33 15.67 5 15 5H4l5 7l-5 6.99h11c.67 0 1.27-.32 1.63-.83L21 12zM15 17H7.89l3.57-5l-3.57-5H15l3.55 5z"/></symbol><symbol id="hd-icon-ic-twotone-label-off" viewBox="0 0 24 24"><path fill="currentColor" d="M5 7.03V17h9.97zM16 7h-5.37l7.29 7.29L19.55 12z" opacity=".3"/><path fill="currentColor" d="m16 7l3.55 5l-1.63 2.29l1.43 1.43L22 12l-4.37-6.16C17.27 5.33 16.67 5 16 5l-7.37.01l2 1.99zM2 4.03l1.58 1.58C3.22 5.96 3 6.46 3 7v10c0 1.1.9 1.99 2 1.99L16 19c.28 0 .55-.07.79-.18L18.97 21l1.41-1.41L3.41 2.62zm3 3L14.97 17H5z"/></symbol><symbol id="hd-icon-ic-twotone-lan" viewBox="0 0 24 24"><path fill="currentColor" d="M10 7V4h4v3zM9 17v3H5v-3zm10 0v3h-4v-3z" opacity=".3"/><path fill="currentColor" d="M13 22h8v-7h-3v-4h-5V9h3V2H8v7h3v2H6v4H3v7h8v-7H8v-2h8v2h-3zM10 7V4h4v3zM9 17v3H5v-3zm10 0v3h-4v-3z"/></symbol><symbol id="hd-icon-ic-twotone-landscape" viewBox="0 0 24 24"><path fill="currentColor" d="M5 16h3.04l-1.52-2.03z" opacity=".3"/><path fill="currentColor" d="m9.78 11.63l1.25 1.67L14 9.33L19 16h-8.46l-4.01-5.37L1 18h22L14 6zM5 16l1.52-2.03L8.04 16z"/></symbol><symbol id="hd-icon-ic-twotone-landslide" viewBox="0 0 24 24"><path fill="currentColor" d="M8.57 12.09L7 10H4v2.28l2 .67zm3.96 2.68l-2.58-1.03L6 15.05l-2-.66v1.89l2 .67zM15 4.65V2.64l-2.58-.52l-1.42.95v1.86l1.23.82zm-9 14.4l-2-.66V20h14l-2.97-3.96zm12-9.09v1.08l.8.64l2.2-.98V9.6l-2-.44z" opacity=".3"/><path fill="currentColor" d="M11 12L8 8H2v14h20l-6-8zm-7-2h3l1.57 2.09l-2.57.86l-2-.67zm0 4.39l2 .67l3.95-1.32l2.58 1.03L6 16.95l-2-.67zM4 20v-1.61l2 .67l9.03-3.01L18 20zM17 6V1l-5-1l-3 2v4l3 2zm-6-2.93l1.42-.95l2.58.52v2.01l-2.77 1.11L11 4.93zM18.5 7L16 9v3l2.5 2l4.5-2V8zm2.5 3.7l-2.2.98l-.8-.64V9.96l1-.8l2 .44z"/></symbol><symbol id="hd-icon-ic-twotone-language" viewBox="0 0 24 24"><path fill="currentColor" d="M5.08 8h2.95c.32-1.25.78-2.45 1.38-3.56c-1.84.63-3.37 1.9-4.33 3.56m2.42 4c0-.68.06-1.34.14-2H4.26c-.16.64-.26 1.31-.26 2s.1 1.36.26 2h3.38c-.08-.66-.14-1.32-.14-2m-2.42 4a8 8 0 0 0 4.33 3.56A15.7 15.7 0 0 1 8.03 16zM12 4.04c-.83 1.2-1.48 2.53-1.91 3.96h3.82c-.43-1.43-1.08-2.76-1.91-3.96M18.92 8a8.03 8.03 0 0 0-4.33-3.56c.6 1.11 1.06 2.31 1.38 3.56zM12 19.96c.83-1.2 1.48-2.53 1.91-3.96h-3.82c.43 1.43 1.08 2.76 1.91 3.96m2.59-.4A8.03 8.03 0 0 0 18.92 16h-2.95a15.7 15.7 0 0 1-1.38 3.56M19.74 10h-3.38c.08.66.14 1.32.14 2s-.06 1.34-.14 2h3.38c.16-.64.26-1.31.26-2s-.1-1.36-.26-2M9.66 10c-.09.65-.16 1.32-.16 2s.07 1.34.16 2h4.68c.09-.66.16-1.32.16-2s-.07-1.35-.16-2z" opacity=".3"/><path fill="currentColor" d="M11.99 2C6.47 2 2 6.48 2 12s4.47 10 9.99 10C17.52 22 22 17.52 22 12S17.52 2 11.99 2m6.93 6h-2.95a15.7 15.7 0 0 0-1.38-3.56A8.03 8.03 0 0 1 18.92 8M12 4.04c.83 1.2 1.48 2.53 1.91 3.96h-3.82c.43-1.43 1.08-2.76 1.91-3.96M4.26 14C4.1 13.36 4 12.69 4 12s.1-1.36.26-2h3.38c-.08.66-.14 1.32-.14 2s.06 1.34.14 2zm.82 2h2.95c.32 1.25.78 2.45 1.38 3.56A8 8 0 0 1 5.08 16m2.95-8H5.08a8 8 0 0 1 4.33-3.56A15.7 15.7 0 0 0 8.03 8M12 19.96c-.83-1.2-1.48-2.53-1.91-3.96h3.82c-.43 1.43-1.08 2.76-1.91 3.96M14.34 14H9.66c-.09-.66-.16-1.32-.16-2s.07-1.35.16-2h4.68c.09.65.16 1.32.16 2s-.07 1.34-.16 2m.25 5.56c.6-1.11 1.06-2.31 1.38-3.56h2.95a8.03 8.03 0 0 1-4.33 3.56M16.36 14c.08-.66.14-1.32.14-2s-.06-1.34-.14-2h3.38c.16.64.26 1.31.26 2s-.1 1.36-.26 2z"/></symbol><symbol id="hd-icon-ic-twotone-laptop" viewBox="0 0 24 24"><path fill="currentColor" d="M4 6h16v10H4z" opacity=".3"/><path fill="currentColor" d="M20 18c1.1 0 2-.9 2-2V6c0-1.1-.9-2-2-2H4c-1.1 0-2 .9-2 2v10c0 1.1.9 2 2 2H0v2h24v-2zM4 6h16v10H4z"/></symbol><symbol id="hd-icon-ic-twotone-laptop-chromebook" viewBox="0 0 24 24"><path fill="currentColor" d="M4 5h16v10H4z" opacity=".3"/><path fill="currentColor" d="M22 18V3H2v15H0v2h24v-2zm-8 0h-4v-1h4zm6-3H4V5h16z"/></symbol><symbol id="hd-icon-ic-twotone-laptop-mac" viewBox="0 0 24 24"><path fill="currentColor" d="M4 5h16v11H4z" opacity=".3"/><path fill="currentColor" d="M20 18c1.1 0 1.99-.9 1.99-2L22 5c0-1.1-.9-2-2-2H4c-1.1 0-2 .9-2 2v11c0 1.1.9 2 2 2H0c0 1.1.9 2 2 2h20c1.1 0 2-.9 2-2zM4 5h16v11H4zm8 14c-.55 0-1-.45-1-1s.45-1 1-1s1 .45 1 1s-.45 1-1 1"/></symbol><symbol id="hd-icon-ic-twotone-laptop-windows" viewBox="0 0 24 24"><path fill="currentColor" d="M4 5h16v10H4z" opacity=".3"/><path fill="currentColor" d="M20 18v-1c1.1 0 1.99-.9 1.99-2L22 5c0-1.1-.9-2-2-2H4c-1.1 0-2 .9-2 2v10c0 1.1.9 2 2 2v1H0v2h24v-2zM4 5h16v10H4z"/></symbol><symbol id="hd-icon-ic-twotone-last-page" viewBox="0 0 24 24"><path fill="currentColor" d="M5.59 7.41L10.18 12l-4.59 4.59L7 18l6-6l-6-6zM16 6h2v12h-2z"/></symbol><symbol id="hd-icon-ic-twotone-launch" viewBox="0 0 24 24"><path fill="currentColor" d="M19 19H5V5h7V3H5a2 2 0 0 0-2 2v14a2 2 0 0 0 2 2h14c1.1 0 2-.9 2-2v-7h-2zM14 3v2h3.59l-9.83 9.83l1.41 1.41L19 6.41V10h2V3z"/></symbol><symbol id="hd-icon-ic-twotone-layers" viewBox="0 0 24 24"><path fill="currentColor" d="M6.26 9L12 13.47L17.74 9L12 4.53z" opacity=".3"/><path fill="currentColor" d="m19.37 12.8l-7.38 5.74l-7.37-5.73L3 14.07l9 7l9-7zM12 2L3 9l1.63 1.27L12 16l7.36-5.73L21 9zm0 11.47L6.26 9L12 4.53L17.74 9z"/></symbol><symbol id="hd-icon-ic-twotone-layers-clear" viewBox="0 0 24 24"><path fill="currentColor" d="m12 13.47l.67-.53l-5.02-5.02L6.26 9zm0-8.94l-1.17.91l5.02 5.03L17.74 9z" opacity=".3"/><path fill="currentColor" d="M12 4.53L17.74 9l-1.89 1.47l1.43 1.42L21 9l-9-7l-2.59 2.02l1.42 1.42zm9 9.54l-1.63-1.27l-.67.52l1.43 1.43zM3.41.86L2 2.27l4.22 4.22L3 9l9 7l2.1-1.63l1.42 1.42l-3.53 2.75l-7.37-5.73L3 14.07l9 7l4.95-3.85L20.73 21l1.41-1.41zM12 13.47L6.26 9l1.39-1.08l5.02 5.02z"/></symbol><symbol id="hd-icon-ic-twotone-leaderboard" viewBox="0 0 24 24"><path fill="currentColor" d="M10 5h4v14h-4zm-6 6h4v8H4zm16 8h-4v-6h4z" opacity=".3"/><path fill="currentColor" d="M16 11V3H8v6H2v12h20V11zm-6-6h4v14h-4zm-6 6h4v8H4zm16 8h-4v-6h4z"/></symbol><symbol id="hd-icon-ic-twotone-leak-add" viewBox="0 0 24 24"><path fill="currentColor" d="M18 21h3v-3c-1.66 0-3 1.34-3 3M3 14c6.08 0 11-4.93 11-11h-2a9 9 0 0 1-9 9zm11 7h2c0-2.76 2.24-5 5-5v-2c-3.87 0-7 3.13-7 7M3 10c3.87 0 7-3.13 7-7H8c0 2.76-2.24 5-5 5zm7 11h2a9 9 0 0 1 9-9v-2c-6.07 0-11 4.93-11 11M3 3v3c1.66 0 3-1.34 3-3z"/></symbol><symbol id="hd-icon-ic-twotone-leak-remove" viewBox="0 0 24 24"><path fill="currentColor" d="M14 3h-2c0 1.35-.31 2.63-.84 3.77l1.49 1.49C13.51 6.7 14 4.91 14 3m7 9v-2c-1.91 0-3.7.49-5.27 1.35l1.49 1.49c1.15-.53 2.43-.84 3.78-.84m0 4v-2c-.79 0-1.54.13-2.24.37l1.68 1.68c.19-.01.37-.05.56-.05M10 3H8c0 .19-.04.37-.06.56l1.68 1.68c.25-.7.38-1.46.38-2.24m-5.59-.14L3 4.27l2.84 2.84C5.03 7.67 4.06 8 3 8v2c1.61 0 3.09-.55 4.27-1.46L8.7 9.97A9 9 0 0 1 3 12v2c2.72 0 5.2-.99 7.11-2.62l2.51 2.51C10.99 15.81 10 18.29 10 21h2c0-2.16.76-4.14 2.03-5.7l1.43 1.43A6.97 6.97 0 0 0 14 21h2c0-1.06.33-2.03.89-2.84L19.73 21l1.41-1.41z"/></symbol><symbol id="hd-icon-ic-twotone-leave-bags-at-home" viewBox="0 0 24 24"><path fill="currentColor" d="M7 19V9.83l1 1V18h1.5v-5.67l1.75 1.75V18h1.5v-2.42l1.75 1.75V18h.67l1 1zm3.83-11l1 1h.92v.92l1.75 1.75V9H16v4.17l1 1V8z" opacity=".3"/><path fill="currentColor" d="M10.83 8H17v6.17l2 2V8c0-1.1-.9-2-2-2h-2V3c0-.55-.45-1-1-1h-4c-.55 0-1 .45-1 1v3h-.17zM11 4h2v2h-2zm.83 5h.92v.92zm9.36 12.19L2.81 2.81L1.39 4.22l3.63 3.63c0 .05-.02.1-.02.15v11c0 1.1.9 2 2 2c0 .55.45 1 1 1s1-.45 1-1h6c0 .55.45 1 1 1s1-.45 1-1c.34 0 .65-.09.93-.24l1.85 1.85zM7 19V9.83l1 1V18h1.5v-5.67l1.75 1.75V18h1.5v-2.42l1.75 1.75V18h.67l1 1zm9-10v4.17l-1.5-1.5V9z"/></symbol><symbol id="hd-icon-ic-twotone-legend-toggle" viewBox="0 0 24 24"><path fill="currentColor" d="M20 15H4v-2h16zm0 2H4v2h16zm-5-6l5-3.55V5l-5 3.55L10 5L4 8.66V11l5.92-3.61z"/></symbol><symbol id="hd-icon-ic-twotone-lens" viewBox="0 0 24 24"><path fill="currentColor" d="M12 4c-4.41 0-8 3.59-8 8s3.59 8 8 8s8-3.59 8-8s-3.59-8-8-8" opacity=".3"/><path fill="currentColor" d="M12 2C6.48 2 2 6.48 2 12s4.48 10 10 10s10-4.48 10-10S17.52 2 12 2m0 18c-4.41 0-8-3.59-8-8s3.59-8 8-8s8 3.59 8 8s-3.59 8-8 8"/></symbol><symbol id="hd-icon-ic-twotone-lens-blur" viewBox="0 0 24 24"><path fill="currentColor" d="M6 13c-.55 0-1 .45-1 1s.45 1 1 1s1-.45 1-1s-.45-1-1-1m0 4c-.55 0-1 .45-1 1s.45 1 1 1s1-.45 1-1s-.45-1-1-1m0-8c-.55 0-1 .45-1 1s.45 1 1 1s1-.45 1-1s-.45-1-1-1m-3 .5c-.28 0-.5.22-.5.5s.22.5.5.5s.5-.22.5-.5s-.22-.5-.5-.5M6 5c-.55 0-1 .45-1 1s.45 1 1 1s1-.45 1-1s-.45-1-1-1m15 5.5c.28 0 .5-.22.5-.5s-.22-.5-.5-.5s-.5.22-.5.5s.22.5.5.5M14 7c.55 0 1-.45 1-1s-.45-1-1-1s-1 .45-1 1s.45 1 1 1m0-3.5c.28 0 .5-.22.5-.5s-.22-.5-.5-.5s-.5.22-.5.5s.22.5.5.5m-11 10c-.28 0-.5.22-.5.5s.22.5.5.5s.5-.22.5-.5s-.22-.5-.5-.5m7 7c-.28 0-.5.22-.5.5s.22.5.5.5s.5-.22.5-.5s-.22-.5-.5-.5m0-17c.28 0 .5-.22.5-.5s-.22-.5-.5-.5s-.5.22-.5.5s.22.5.5.5M10 7c.55 0 1-.45 1-1s-.45-1-1-1s-1 .45-1 1s.45 1 1 1m0 5.5c-.83 0-1.5.67-1.5 1.5s.67 1.5 1.5 1.5s1.5-.67 1.5-1.5s-.67-1.5-1.5-1.5m8 .5c-.55 0-1 .45-1 1s.45 1 1 1s1-.45 1-1s-.45-1-1-1m0 4c-.55 0-1 .45-1 1s.45 1 1 1s1-.45 1-1s-.45-1-1-1m0-8c-.55 0-1 .45-1 1s.45 1 1 1s1-.45 1-1s-.45-1-1-1m0-4c-.55 0-1 .45-1 1s.45 1 1 1s1-.45 1-1s-.45-1-1-1m3 8.5c-.28 0-.5.22-.5.5s.22.5.5.5s.5-.22.5-.5s-.22-.5-.5-.5M14 17c-.55 0-1 .45-1 1s.45 1 1 1s1-.45 1-1s-.45-1-1-1m0 3.5c-.28 0-.5.22-.5.5s.22.5.5.5s.5-.22.5-.5s-.22-.5-.5-.5m-4-12c-.83 0-1.5.67-1.5 1.5s.67 1.5 1.5 1.5s1.5-.67 1.5-1.5s-.67-1.5-1.5-1.5m0 8.5c-.55 0-1 .45-1 1s.45 1 1 1s1-.45 1-1s-.45-1-1-1m4-4.5c-.83 0-1.5.67-1.5 1.5s.67 1.5 1.5 1.5s1.5-.67 1.5-1.5s-.67-1.5-1.5-1.5m0-4c-.83 0-1.5.67-1.5 1.5s.67 1.5 1.5 1.5s1.5-.67 1.5-1.5s-.67-1.5-1.5-1.5"/></symbol><symbol id="hd-icon-ic-twotone-less-than" viewBox="0 0 24 24"><path fill="currentColor" fill-rule="evenodd" d="M17.5 17.5L9.25 12l8.25-5.5l-1-1.5L6 12l10.5 7z"/></symbol><symbol id="hd-icon-ic-twotone-less-than-equal" viewBox="0 0 24 24"><path fill="currentColor" fill-rule="evenodd" d="M17.5 15.5L9.25 10l8.25-5.5l-1-1.5L6 10l10.5 7z"/><path fill="currentColor" d="M18 20.998H6v-2h12z"/></symbol><symbol id="hd-icon-ic-twotone-library-add" viewBox="0 0 24 24"><path fill="currentColor" d="M8 16h12V4H8zm2-7h3V6h2v3h3v2h-3v3h-2v-3h-3z" opacity=".3"/><path fill="currentColor" d="M4 22h14v-2H4V6H2v14c0 1.1.9 2 2 2M8 2c-1.1 0-2 .9-2 2v12c0 1.1.9 2 2 2h12c1.1 0 2-.9 2-2V4c0-1.1-.9-2-2-2zm12 14H8V4h12zm-7-2h2v-3h3V9h-3V6h-2v3h-3v2h3z"/></symbol><symbol id="hd-icon-ic-twotone-library-add-check" viewBox="0 0 24 24"><path fill="currentColor" d="M8 16h12V4H8zm2.4-6.91l2.07 2.08L17.6 6L19 7.41L12.47 14L9 10.5z" opacity=".3"/><path fill="currentColor" d="M20 2H8c-1.1 0-2 .9-2 2v12c0 1.1.9 2 2 2h12c1.1 0 2-.9 2-2V4c0-1.1-.9-2-2-2m0 14H8V4h12zm-7.53-2L9 10.5l1.4-1.41l2.07 2.08L17.6 6L19 7.41zM4 20h14v2H4c-1.1 0-2-.9-2-2V6h2z"/></symbol><symbol id="hd-icon-ic-twotone-library-books" viewBox="0 0 24 24"><path fill="currentColor" d="M8 16h12V4H8zm2-10h8v2h-8zm0 3h8v2h-8zm0 3h4v2h-4z" opacity=".3"/><path fill="currentColor" d="M4 22h14v-2H4V6H2v14c0 1.1.9 2 2 2M6 4v12c0 1.1.9 2 2 2h12c1.1 0 2-.9 2-2V4c0-1.1-.9-2-2-2H8c-1.1 0-2 .9-2 2m14 12H8V4h12zM10 9h8v2h-8zm0 3h4v2h-4zm0-6h8v2h-8z"/></symbol><symbol id="hd-icon-ic-twotone-library-music" viewBox="0 0 24 24"><path fill="currentColor" d="M8 16h12V4H8zm4.5-6c.57 0 1.08.19 1.5.51V5h4v2h-3v5.5a2.5 2.5 0 0 1-5 0a2.5 2.5 0 0 1 2.5-2.5" opacity=".3"/><path fill="currentColor" d="M20 2H8c-1.1 0-2 .9-2 2v12c0 1.1.9 2 2 2h12c1.1 0 2-.9 2-2V4c0-1.1-.9-2-2-2m0 14H8V4h12zm-7.5-1a2.5 2.5 0 0 0 2.5-2.5V7h3V5h-4v5.51c-.42-.32-.93-.51-1.5-.51a2.5 2.5 0 0 0 0 5M2 6v14c0 1.1.9 2 2 2h14v-2H4V6z"/></symbol><symbol id="hd-icon-ic-twotone-light" viewBox="0 0 24 24"><path fill="currentColor" d="M10 17c0 1.1.9 2 2 2s2-.9 2-2z" opacity=".3"/><path fill="currentColor" d="M13 6.06V3h-2v3.06c-4.5.5-8 4.31-8 8.93C3 16.1 3.9 17 5.01 17H8c0 2.21 1.79 4 4 4s4-1.79 4-4h2.99c1.11 0 2.01-.9 2.01-2.01c0-4.62-3.5-8.43-8-8.93M12 19c-1.1 0-2-.9-2-2h4c0 1.1-.9 2-2 2m0-4H5c0-3.86 3.14-7 7-7s7 3.14 7 7z"/></symbol><symbol id="hd-icon-ic-twotone-light-mode" viewBox="0 0 24 24"><circle cx="12" cy="12" r="3" fill="currentColor" opacity=".3"/><path fill="currentColor" d="M12 9c1.65 0 3 1.35 3 3s-1.35 3-3 3s-3-1.35-3-3s1.35-3 3-3m0-2c-2.76 0-5 2.24-5 5s2.24 5 5 5s5-2.24 5-5s-2.24-5-5-5M2 13h2c.55 0 1-.45 1-1s-.45-1-1-1H2c-.55 0-1 .45-1 1s.45 1 1 1m18 0h2c.55 0 1-.45 1-1s-.45-1-1-1h-2c-.55 0-1 .45-1 1s.45 1 1 1M11 2v2c0 .55.45 1 1 1s1-.45 1-1V2c0-.55-.45-1-1-1s-1 .45-1 1m0 18v2c0 .55.45 1 1 1s1-.45 1-1v-2c0-.55-.45-1-1-1s-1 .45-1 1M5.99 4.58a.996.996 0 0 0-1.41 0a.996.996 0 0 0 0 1.41l1.06 1.06c.39.39 1.03.39 1.41 0s.39-1.03 0-1.41zm12.37 12.37a.996.996 0 0 0-1.41 0a.996.996 0 0 0 0 1.41l1.06 1.06c.39.39 1.03.39 1.41 0a.996.996 0 0 0 0-1.41zm1.06-10.96a.996.996 0 0 0 0-1.41a.996.996 0 0 0-1.41 0l-1.06 1.06c-.39.39-.39 1.03 0 1.41s1.03.39 1.41 0zM7.05 18.36a.996.996 0 0 0 0-1.41a.996.996 0 0 0-1.41 0l-1.06 1.06c-.39.39-.39 1.03 0 1.41s1.03.39 1.41 0z"/></symbol><symbol id="hd-icon-ic-twotone-lightbulb" viewBox="0 0 24 24"><path fill="currentColor" d="M12 4a5.51 5.51 0 0 0-5.5 5.5c0 2.47 1.49 3.89 2.35 4.5h6.3c.86-.61 2.35-2.03 2.35-4.5C17.5 6.47 15.03 4 12 4" opacity=".3"/><path fill="currentColor" d="M12 22c1.1 0 2-.9 2-2h-4c0 1.1.9 2 2 2m-4-5h8v2H8zm4-15C7.86 2 4.5 5.36 4.5 9.5c0 3.82 2.66 5.86 3.77 6.5h7.46c1.11-.64 3.77-2.68 3.77-6.5C19.5 5.36 16.14 2 12 2m3.15 12h-6.3c-.86-.61-2.35-2.03-2.35-4.5C6.5 6.47 8.97 4 12 4s5.5 2.47 5.5 5.5c0 2.47-1.49 3.89-2.35 4.5"/></symbol><symbol id="hd-icon-ic-twotone-lightbulb-circle" viewBox="0 0 24 24"><path fill="currentColor" d="M12 4c-4.41 0-8 3.59-8 8s3.59 8 8 8s8-3.59 8-8s-3.59-8-8-8m0 15c-.83 0-1.5-.67-1.5-1.5h3c0 .83-.67 1.5-1.5 1.5m3-2.5H9V15h6zm-.03-2.5H9.03A4.97 4.97 0 0 1 7 10c0-2.76 2.24-5 5-5s5 2.24 5 5c0 1.64-.8 3.09-2.03 4" opacity=".3"/><path fill="currentColor" d="M12 2C6.48 2 2 6.48 2 12s4.48 10 10 10s10-4.48 10-10S17.52 2 12 2m0 18c-4.41 0-8-3.59-8-8s3.59-8 8-8s8 3.59 8 8s-3.59 8-8 8"/><path fill="currentColor" d="M12 19c.83 0 1.5-.67 1.5-1.5h-3c0 .83.67 1.5 1.5 1.5m-3-4h6v1.5H9zm3-10c-2.76 0-5 2.24-5 5c0 1.64.8 3.09 2.03 4h5.95A4.99 4.99 0 0 0 17 10c0-2.76-2.24-5-5-5m2.43 7.5H9.57A3.47 3.47 0 0 1 8.5 10c0-1.93 1.57-3.5 3.5-3.5s3.5 1.57 3.5 3.5c0 .95-.39 1.84-1.07 2.5"/></symbol><symbol id="hd-icon-ic-twotone-line-axis" viewBox="0 0 24 24"><path fill="currentColor" d="m22 7.43l-1.41-1.41l-4.03 4.53L9.5 4L2 11.51l1.5 1.5l6.14-6.15l5.59 5.18l-1.73 1.95l-4-4L2 17.5L3.5 19l6-6.01l4 4l3.19-3.59l3.9 3.61L22 15.6l-3.98-3.7z"/></symbol><symbol id="hd-icon-ic-twotone-line-style" viewBox="0 0 24 24"><path fill="currentColor" d="M3 16h5v-2H3zm6.5 0h5v-2h-5zm6.5 0h5v-2h-5zM3 20h2v-2H3zm4 0h2v-2H7zm4 0h2v-2h-2zm4 0h2v-2h-2zm4 0h2v-2h-2zM3 12h8v-2H3zm10 0h8v-2h-8zM3 4v4h18V4z"/></symbol><symbol id="hd-icon-ic-twotone-line-weight" viewBox="0 0 24 24"><path fill="currentColor" d="M3 17h18v-2H3zm0 3h18v-1H3zm0-7h18v-3H3zm0-9v4h18V4z"/></symbol><symbol id="hd-icon-ic-twotone-linear-scale" viewBox="0 0 24 24"><path fill="currentColor" d="M19.5 9.5c-1.03 0-1.9.62-2.29 1.5h-2.92c-.39-.88-1.26-1.5-2.29-1.5s-1.9.62-2.29 1.5H6.79c-.39-.88-1.26-1.5-2.29-1.5a2.5 2.5 0 0 0 0 5c1.03 0 1.9-.62 2.29-1.5h2.92c.39.88 1.26 1.5 2.29 1.5s1.9-.62 2.29-1.5h2.92c.39.88 1.26 1.5 2.29 1.5a2.5 2.5 0 0 0 0-5"/></symbol><symbol id="hd-icon-ic-twotone-link" viewBox="0 0 24 24"><path fill="currentColor" d="M17 7h-4v2h4c1.65 0 3 1.35 3 3s-1.35 3-3 3h-4v2h4c2.76 0 5-2.24 5-5s-2.24-5-5-5m-6 8H7c-1.65 0-3-1.35-3-3s1.35-3 3-3h4V7H7c-2.76 0-5 2.24-5 5s2.24 5 5 5h4zm-3-4h8v2H8z"/></symbol><symbol id="hd-icon-ic-twotone-link-off" viewBox="0 0 24 24"><path fill="currentColor" d="M14.39 11L16 12.61V11zM17 7h-4v1.9h4c1.71 0 3.1 1.39 3.1 3.1c0 1.27-.77 2.37-1.87 2.84l1.4 1.4A4.99 4.99 0 0 0 22 12c0-2.76-2.24-5-5-5M2 4.27l3.11 3.11A4.99 4.99 0 0 0 2 12c0 2.76 2.24 5 5 5h4v-1.9H7c-1.71 0-3.1-1.39-3.1-3.1c0-1.59 1.21-2.9 2.76-3.07L8.73 11H8v2h2.73L13 15.27V17h1.73l4.01 4.01l1.41-1.41L3.41 2.86z"/></symbol><symbol id="hd-icon-ic-twotone-linked-camera" viewBox="0 0 24 24"><path fill="currentColor" d="M20 20H4V8h4.05l1.83-2H15V4H9L7.17 6H4c-1.1 0-2 .9-2 2v12c0 1.1.9 2 2 2h16c1.1 0 2-.9 2-2V9h-2zM16 2v1.33c2.58 0 4.66 2.09 4.67 4.66H22A6.003 6.003 0 0 0 16 2m0 2.67V6c1.11 0 1.99.89 2 1.99h1.33A3.327 3.327 0 0 0 16 4.67"/><path fill="currentColor" d="M14.98 10.01c-.13-.09-.26-.18-.39-.26c.14.08.27.17.39.26M17 9a2.02 2.02 0 0 0-1.01-1.73C15.7 7.1 15.36 7 15 7V6H9.88L8.05 8H4v12h16V9zm-5 10c-2.76 0-5-2.24-5-5s2.24-5 5-5s5 2.24 5 5s-2.24 5-5 5" opacity=".3"/><path fill="currentColor" d="M12 9c-2.76 0-5 2.24-5 5s2.24 5 5 5s5-2.24 5-5s-2.24-5-5-5m0 8c-1.65 0-3-1.35-3-3s1.35-3 3-3s3 1.35 3 3s-1.35 3-3 3"/></symbol><symbol id="hd-icon-ic-twotone-liquor" viewBox="0 0 24 24"><path fill="currentColor" d="M16 4h1v1h-1zM6 15c.55 0 1-.45 1-1v-1H5v1c0 .55.45 1 1 1m7-1h7v2h-7z" opacity=".3"/><path fill="currentColor" d="M3 14c0 1.3.84 2.4 2 2.82V20H3v2h6v-2H7v-3.18C8.16 16.4 9 15.3 9 14V6H3zm2-6h2v3H5zm0 5h2v1c0 .55-.45 1-1 1s-1-.45-1-1zm15.64-4.46l-.96-.32a1 1 0 0 1-.68-.95V3c0-.55-.45-1-1-1h-3c-.55 0-1 .45-1 1v4.28a1 1 0 0 1-.68.95l-.96.32c-.81.28-1.36 1.04-1.36 1.9V20c0 1.1.9 2 2 2h7c1.1 0 2-.9 2-2v-9.56c0-.86-.55-1.62-1.36-1.9M16 4h1v1h-1zm4 16h-7v-2h7zm0-4h-7v-2h7zm0-4h-7v-1.56l.95-.32C15.18 9.72 16 8.57 16 7.28V7h1v.28a3 3 0 0 0 2.05 2.85l.95.31z"/></symbol><symbol id="hd-icon-ic-twotone-list" viewBox="0 0 24 24"><path fill="currentColor" d="M3 13h2v-2H3zm0 4h2v-2H3zm0-8h2V7H3zm4 4h14v-2H7zm0 4h14v-2H7zM7 7v2h14V7zm-4 6h2v-2H3zm0 4h2v-2H3zm0-8h2V7H3zm4 4h14v-2H7zm0 4h14v-2H7zM7 7v2h14V7z"/></symbol><symbol id="hd-icon-ic-twotone-list-alt" viewBox="0 0 24 24"><path fill="currentColor" d="M5 19h14V5H5zm6-12h6v2h-6zm0 4h6v2h-6zm0 4h6v2h-6zM7 7h2v2H7zm0 4h2v2H7zm0 4h2v2H7z" opacity=".3"/><path fill="currentColor" d="M11 7h6v2h-6zm0 4h6v2h-6zm0 4h6v2h-6zM7 7h2v2H7zm0 4h2v2H7zm0 4h2v2H7zM20.1 3H3.9c-.5 0-.9.4-.9.9v16.2c0 .4.4.9.9.9h16.2c.4 0 .9-.5.9-.9V3.9c0-.5-.5-.9-.9-.9M19 19H5V5h14z"/></symbol><symbol id="hd-icon-ic-twotone-live-help" viewBox="0 0 24 24"><path fill="currentColor" d="M5 18h4.83l.59.59L12 20.17l1.59-1.59l.58-.58H19V4H5zm8-1h-2v-2h2zM12 5c2.21 0 4 1.79 4 4c0 2.5-3 2.75-3 5h-2c0-3.25 3-3 3-5c0-1.1-.9-2-2-2s-2 .9-2 2H8c0-2.21 1.79-4 4-4" opacity=".3"/><path fill="currentColor" d="M21 4c0-1.1-.9-2-2-2H5a2 2 0 0 0-2 2v14a2 2 0 0 0 2 2h4l3 3l3-3h4c1.1 0 2-.9 2-2zm-2 14h-4.83l-.59.59L12 20.17l-1.59-1.59l-.58-.58H5V4h14zm-8-3h2v2h-2zm1-8c1.1 0 2 .9 2 2c0 2-3 1.75-3 5h2c0-2.25 3-2.5 3-5c0-2.21-1.79-4-4-4S8 6.79 8 9h2c0-1.1.9-2 2-2"/></symbol><symbol id="hd-icon-ic-twotone-live-tv" viewBox="0 0 24 24"><path fill="currentColor" d="M3 20h18V8H3zm6-10l7 4l-7 4z" opacity=".3"/><path fill="currentColor" d="M9 10v8l7-4zm12-4h-7.58l3.29-3.29L16 2l-4 4h-.03l-4-4l-.69.71L10.56 6H3c-1.1 0-2 .9-2 2v12c0 1.1.9 2 2 2h18c1.1 0 2-.9 2-2V8c0-1.1-.9-2-2-2m0 14H3V8h18z"/></symbol><symbol id="hd-icon-ic-twotone-living" viewBox="0 0 24 24"><path fill="currentColor" d="M4 20h16V4H4zm1-7.5c0-.92.51-1.72 1.25-2.15V9c0-1.66 1.34-3 3-3h5.5c1.66 0 3 1.34 3 3v1.35c.74.43 1.25 1.23 1.25 2.15V16c0 1.1-.9 2-2 2H7c-1.1 0-2-.9-2-2z" opacity=".3"/><path fill="currentColor" d="M20 2H4c-1.1 0-2 .9-2 2v16c0 1.1.9 2 2 2h16c1.1 0 2-.9 2-2V4c0-1.1-.9-2-2-2m0 18H4V4h16zM7 18h10c1.1 0 2-.9 2-2v-3.5c0-.92-.51-1.72-1.25-2.15V9c0-1.66-1.34-3-3-3h-5.5c-1.66 0-3 1.34-3 3v1.35C5.51 10.78 5 11.58 5 12.5V16c0 1.1.9 2 2 2m.75-9c0-.83.67-1.5 1.5-1.5h5.5c.83 0 1.5.67 1.5 1.5v1.03A2.48 2.48 0 0 0 14 12.5v.5h-4v-.5c0-1.3-.99-2.35-2.25-2.47zM6.5 12.5c0-.55.45-1 1-1s1 .45 1 1v2h7v-2c0-.55.45-1 1-1s1 .45 1 1V16c0 .28-.22.5-.5.5H7c-.28 0-.5-.22-.5-.5z"/></symbol><symbol id="hd-icon-ic-twotone-local-activity" viewBox="0 0 24 24"><path fill="currentColor" d="M4.01 8.54C5.2 9.23 6 10.52 6 12s-.81 2.77-2 3.46V18h16v-2.54c-1.19-.69-2-1.99-2-3.46s.81-2.77 2-3.46V6H4zm6.72 1.68L12 7l1.26 3.23l3.47.2l-2.69 2.2l.89 3.37L12 14.12L9.07 16l.88-3.37l-2.69-2.2z" opacity=".3"/><path fill="currentColor" d="M20 4H4c-1.1 0-1.99.9-1.99 2v4c1.1 0 1.99.9 1.99 2s-.89 2-2 2v4c0 1.1.9 2 2 2h16c1.1 0 2-.9 2-2v-4c-1.1 0-2-.9-2-2s.9-2 2-2V6c0-1.1-.9-2-2-2m0 4.54c-1.19.69-2 1.99-2 3.46s.81 2.77 2 3.46V18H4v-2.54c1.19-.69 2-1.99 2-3.46c0-1.48-.8-2.77-1.99-3.46L4 6h16zM9.07 16L12 14.12L14.93 16l-.89-3.36l2.69-2.2l-3.47-.21L12 7l-1.27 3.22l-3.47.21l2.69 2.2z"/></symbol><symbol id="hd-icon-ic-twotone-local-airport" viewBox="0 0 24 24"><path fill="currentColor" d="M22 16v-2l-8.5-5V3.5c0-.83-.67-1.5-1.5-1.5s-1.5.67-1.5 1.5V9L2 14v2l8.5-2.5V19L8 20.5V22l4-1l4 1v-1.5L13.5 19v-5.5z"/></symbol><symbol id="hd-icon-ic-twotone-local-atm" viewBox="0 0 24 24"><path fill="currentColor" d="M4 18h16V6H4zm5-4h4v-1h-3c-.55 0-1-.45-1-1V9c0-.55.45-1 1-1h1V7h2v1h2v2h-4v1h3c.55 0 1 .45 1 1v3c0 .55-.45 1-1 1h-1v1h-2v-1H9z" opacity=".3"/><path fill="currentColor" d="M20 4H4c-1.11 0-1.99.89-1.99 2L2 18c0 1.11.89 2 2 2h16c1.11 0 2-.89 2-2V6c0-1.11-.89-2-2-2m0 14H4V6h16zm-9-1h2v-1h1c.55 0 1-.45 1-1v-3c0-.55-.45-1-1-1h-3v-1h4V8h-2V7h-2v1h-1c-.55 0-1 .45-1 1v3c0 .55.45 1 1 1h3v1H9v2h2z"/></symbol><symbol id="hd-icon-ic-twotone-local-bar" viewBox="0 0 24 24"><path fill="currentColor" d="M9.23 9L12 12.11L14.77 9z" opacity=".3"/><path fill="currentColor" d="M21 5V3H3v2l8 9v5H6v2h12v-2h-5v-5zM5.66 5h12.69l-1.78 2H7.43zM12 12.11L9.23 9h5.54z"/></symbol><symbol id="hd-icon-ic-twotone-local-cafe" viewBox="0 0 24 24"><path fill="currentColor" d="M8 15h6c1.1 0 2-.9 2-2V5H6v8c0 1.1.9 2 2 2" opacity=".3"/><path fill="currentColor" d="M2 19h18v2H2zm2-6c0 2.21 1.79 4 4 4h6c2.21 0 4-1.79 4-4v-3h2c1.11 0 2-.89 2-2V5c0-1.11-.89-2-2-2H4zm14-8h2v3h-2zM6 5h10v8c0 1.1-.9 2-2 2H8c-1.1 0-2-.9-2-2z"/></symbol><symbol id="hd-icon-ic-twotone-local-car-wash" viewBox="0 0 24 24"><path fill="currentColor" d="m5.12 14l-.12.34V19h14v-4.66l-.12-.34zm2.38 4c-.83 0-1.5-.67-1.5-1.5S6.67 15 7.5 15s1.5.67 1.5 1.5S8.33 18 7.5 18m9 0c-.83 0-1.5-.67-1.5-1.5s.67-1.5 1.5-1.5s1.5.67 1.5 1.5s-.67 1.5-1.5 1.5" opacity=".3"/><path fill="currentColor" d="M15.5 3.5c0 .83.67 1.5 1.5 1.5s1.5-.67 1.5-1.5c0-1-1.5-2.7-1.5-2.7s-1.5 1.7-1.5 2.7m-2 0c0-1-1.5-2.7-1.5-2.7s-1.5 1.7-1.5 2.7c0 .83.67 1.5 1.5 1.5s1.5-.67 1.5-1.5m-5 0C8.5 2.5 7 .8 7 .8S5.5 2.5 5.5 3.5C5.5 4.33 6.17 5 7 5s1.5-.67 1.5-1.5M21 14l-2.08-5.99C18.72 7.42 18.16 7 17.5 7h-11c-.66 0-1.21.42-1.42 1.01L3 14v8c0 .55.45 1 1 1h1c.55 0 1-.45 1-1v-1h12v1c0 .55.45 1 1 1h1c.55 0 1-.45 1-1zM6.85 9h10.29l1.04 3H5.81zM19 19H5v-4.66l.12-.34h13.77l.11.34z"/><circle cx="7.5" cy="16.5" r="1.5" fill="currentColor"/><circle cx="16.5" cy="16.5" r="1.5" fill="currentColor"/></symbol><symbol id="hd-icon-ic-twotone-local-convenience-store" viewBox="0 0 24 24"><path fill="currentColor" d="M14 14h2v4h4V9h-3V6H7v3H4v9h4v-4zm-1-7h1v2h1V7h1v5h-1v-2h-2zM8 9h2V8H8V7h3v3H9v1h2v1H8z" opacity=".3"/><path fill="currentColor" d="M10 16h4v4h8V7h-3V4H5v3H2v13h8zm-2 0v2H4V9h3V6h10v3h3v9h-4v-4H8zm3-5H9v-1h2V7H8v1h2v1H8v3h3zm4 1h1V7h-1v2h-1V7h-1v3h2z"/></symbol><symbol id="hd-icon-ic-twotone-local-dining" viewBox="0 0 24 24"><path fill="currentColor" d="M5.11 21.28L12 14.41l6.88 6.88l1.41-1.41L13.41 13l1.47-1.47c1.53.71 3.68.21 5.27-1.38c1.91-1.91 2.28-4.65.81-6.12c-1.46-1.46-4.2-1.1-6.12.81c-1.59 1.59-2.09 3.74-1.38 5.27L3.7 19.87zM3.91 9.16l4.19 4.18l2.83-2.83L3.91 3.5a4.01 4.01 0 0 0 0 5.66"/></symbol><symbol id="hd-icon-ic-twotone-local-drink" viewBox="0 0 24 24"><path fill="currentColor" d="M7 20.01L17 20l1.1-10H5.89zm5-9.41s3 3.4 3 5.4c0 1.66-1.34 3-3 3s-3-1.34-3-3c0-2 3-5.4 3-5.4" opacity=".3"/><path fill="currentColor" d="M5.01 20.23C5.13 21.23 5.97 22 7 22h10c1.03 0 1.87-.77 1.99-1.77L21 2H3zM17 20l-10 .01L5.89 10H18.1zm1.76-16l-.43 4H5.67l-.44-4zM12 19c1.66 0 3-1.34 3-3c0-2-3-5.4-3-5.4S9 14 9 16c0 1.66 1.34 3 3 3m0-5.09c.59.91 1 1.73 1 2.09c0 .55-.45 1-1 1s-1-.45-1-1c0-.37.41-1.19 1-2.09"/></symbol><symbol id="hd-icon-ic-twotone-local-fire-department" viewBox="0 0 24 24"><path fill="currentColor" d="M16.2 8.65c-.64.42-1.4.65-2.18.65c-2.06 0-3.77-1.55-3.99-3.55C8.13 7.35 6 9.84 6 13c0 1.79.79 3.4 2.04 4.5c-.04-.34-.23-1.88 1.13-3.22L12 11.5l2.83 2.78c1.35 1.33 1.17 2.86 1.13 3.21v.01A5.98 5.98 0 0 0 18 13c0-1.65-.66-3.22-1.8-4.35" opacity=".3"/><path fill="currentColor" d="m12 14.31l-1.42 1.4c-.38.36-.58.84-.58 1.35c0 1.07.9 1.94 2 1.94s2-.87 2-1.94c0-.51-.2-.99-.57-1.36z" opacity=".3"/><path fill="currentColor" d="m16 6l-.44.55c-.42.52-.98.75-1.54.75C13 7.3 12 6.52 12 5.3V2S4 6 4 13c0 4.42 3.58 8 8 8s8-3.58 8-8c0-2.96-1.61-5.62-4-7m-4 13c-1.1 0-2-.87-2-1.94c0-.51.2-.99.58-1.36L12 14.3l1.43 1.4c.37.37.57.85.57 1.36c0 1.07-.9 1.94-2 1.94m3.96-1.5c.04-.36.22-1.89-1.13-3.22L12 11.5l-2.83 2.78C7.81 15.62 8 17.16 8.04 17.5A5.98 5.98 0 0 1 6 13c0-3.16 2.13-5.65 4.03-7.25a4.024 4.024 0 0 0 3.99 3.55c.78 0 1.54-.23 2.18-.66A6.18 6.18 0 0 1 18 13c0 1.79-.79 3.4-2.04 4.5"/></symbol><symbol id="hd-icon-ic-twotone-local-florist" viewBox="0 0 24 24"><path fill="currentColor" d="M12 13c.62 0 1.12-.49 1.14-1.1l-.11-1.09c-.32.12-.67.19-1.03.19s-.7-.07-1.02-.19l-.12 1.09c.02.61.52 1.1 1.14 1.1M8.17 7.1l.88.42c.12-.73.51-1.37 1.06-1.83l-.81-.56a1.14 1.14 0 0 0-1.78.94c-.01.44.25.83.65 1.03m7.66 1.8l-.88-.42c-.12.73-.51 1.37-1.06 1.83l.81.57a1.14 1.14 0 0 0 1.78-.94c.01-.45-.25-.84-.65-1.04m-.88-1.38l.88-.42c.4-.19.66-.59.66-1.03c0-.63-.51-1.14-1.14-1.14c-.24 0-.46.07-.65.2l-.81.55c.55.46.94 1.1 1.06 1.84M12 5c.36 0 .71.07 1.03.19l.11-1.09C13.12 3.49 12.62 3 12 3s-1.12.49-1.14 1.1l.12 1.09C11.3 5.07 11.64 5 12 5m-3.34 6.07c.24 0 .46-.07.65-.2l.81-.55c-.56-.46-.95-1.1-1.07-1.84l-.88.42c-.4.2-.66.59-.66 1.03c0 .63.52 1.14 1.15 1.14m9.9 4.37c-1.9.71-3.42 2.22-4.12 4.12a7.04 7.04 0 0 0 4.12-4.12m-13.12 0c.71 1.9 2.22 3.42 4.12 4.12a7.04 7.04 0 0 0-4.12-4.12" opacity=".3"/><path fill="currentColor" d="M8.66 13.07c.15 0 .29-.01.43-.03C9.56 14.19 10.69 15 12 15s2.44-.81 2.91-1.96a3.145 3.145 0 0 0 3.57-3.11c0-.71-.25-1.39-.67-1.93c.43-.54.67-1.22.67-1.93a3.145 3.145 0 0 0-3.57-3.11C14.44 1.81 13.31 1 12 1s-2.44.81-2.91 1.96a3.145 3.145 0 0 0-3.57 3.11c0 .71.25 1.39.67 1.93c-.43.54-.68 1.22-.68 1.93c0 1.73 1.41 3.14 3.15 3.14m6.68-2c-.24 0-.46-.07-.64-.2l-.81-.57c.55-.45.94-1.09 1.06-1.83l.88.42c.4.19.66.59.66 1.03c0 .64-.52 1.15-1.15 1.15m-.65-5.94c.2-.13.42-.2.65-.2c.63 0 1.14.51 1.14 1.14c0 .44-.25.83-.66 1.03l-.88.42c-.12-.74-.51-1.38-1.07-1.83zM12 3c.62 0 1.12.49 1.14 1.1l-.11 1.09C12.71 5.07 12.36 5 12 5s-.7.07-1.02.19l-.12-1.09c.02-.61.52-1.1 1.14-1.1m1 5c0 .55-.45 1-1 1s-1-.45-1-1s.45-1 1-1s1 .45 1 1m-2.02 2.81c.32.12.66.19 1.02.19s.71-.07 1.03-.19l.11 1.09c-.02.61-.52 1.1-1.14 1.1s-1.12-.49-1.14-1.1zM8.66 4.93c.24 0 .46.07.64.2l.81.56c-.55.45-.94 1.09-1.06 1.83l-.88-.42c-.4-.2-.66-.59-.66-1.03c0-.63.52-1.14 1.15-1.14M8.17 8.9l.88-.42c.12.74.51 1.38 1.07 1.83l-.81.55c-.2.13-.42.2-.65.2c-.63 0-1.14-.51-1.14-1.14c-.01-.43.25-.82.65-1.02M12 22a9 9 0 0 0 9-9a9 9 0 0 0-9 9m6.56-6.56a7 7 0 0 1-4.12 4.12a7.04 7.04 0 0 1 4.12-4.12M3 13a9 9 0 0 0 9 9a9 9 0 0 0-9-9m2.44 2.44c1.9.71 3.42 2.22 4.12 4.12a7.04 7.04 0 0 1-4.12-4.12"/></symbol><symbol id="hd-icon-ic-twotone-local-gas-station" viewBox="0 0 24 24"><path fill="currentColor" d="M6 19h6v-7H6z" opacity=".3"/><path fill="currentColor" d="M12 3H6c-1.1 0-2 .9-2 2v16h10v-7.5h1.5v5a2.5 2.5 0 0 0 5 0V9c0-.69-.28-1.32-.73-1.77l.01-.01l-3.72-3.72L15 4.56l2.11 2.11c-.94.36-1.61 1.26-1.61 2.33a2.5 2.5 0 0 0 2.5 2.5c.36 0 .69-.08 1-.21v7.21c0 .55-.45 1-1 1s-1-.45-1-1V14c0-1.1-.9-2-2-2h-1V5c0-1.1-.9-2-2-2m0 10.5V19H6v-7h6zm0-3.5H6V5h6zm6 0c-.55 0-1-.45-1-1s.45-1 1-1s1 .45 1 1s-.45 1-1 1"/></symbol><symbol id="hd-icon-ic-twotone-local-grocery-store" viewBox="0 0 24 24"><path fill="currentColor" d="M8.53 11h7.02l2.76-5H6.16z" opacity=".3"/><path fill="currentColor" d="M7 18c-1.1 0-1.99.9-1.99 2S5.9 22 7 22s2-.9 2-2s-.9-2-2-2m10 0c-1.1 0-1.99.9-1.99 2s.89 2 1.99 2s2-.9 2-2s-.9-2-2-2m-1.45-5c.75 0 1.41-.41 1.75-1.03l3.58-6.49A.996.996 0 0 0 20.01 4H5.21l-.94-2H1v2h2l3.6 7.59l-1.35 2.44C4.52 15.37 5.48 17 7 17h12v-2H7l1.1-2zM6.16 6h12.15l-2.76 5H8.53z"/></symbol><symbol id="hd-icon-ic-twotone-local-hospital" viewBox="0 0 24 24"><path fill="currentColor" d="M5 19h14V5H5zm2-8.5h3.5V7h3v3.5H17v3h-3.5V17h-3v-3.5H7z" opacity=".3"/><path fill="currentColor" d="M21 5c0-1.1-.9-2-2-2H5c-1.1 0-1.99.9-1.99 2L3 19c0 1.1.9 2 2 2h14c1.1 0 2-.9 2-2zm-2 14H5V5h14zm-8.5-2h3v-3.5H17v-3h-3.5V7h-3v3.5H7v3h3.5z"/></symbol><symbol id="hd-icon-ic-twotone-local-hotel" viewBox="0 0 24 24"><circle cx="7" cy="11" r="1" fill="currentColor" opacity=".3"/><path fill="currentColor" d="M19 9h-6v6h8v-4c0-1.1-.9-2-2-2" opacity=".3"/><path fill="currentColor" d="M4 11c0 1.66 1.34 3 3 3s3-1.34 3-3s-1.34-3-3-3s-3 1.34-3 3m4 0c0 .55-.45 1-1 1s-1-.45-1-1s.45-1 1-1s1 .45 1 1m11-4h-8v8H3V5H1v15h2v-3h18v3h2v-9c0-2.21-1.79-4-4-4m2 8h-8V9h6c1.1 0 2 .9 2 2z"/></symbol><symbol id="hd-icon-ic-twotone-local-laundry-service" viewBox="0 0 24 24"><path fill="currentColor" d="M5.99 4L6 20h12V4zc.01 0 0 0 0 0M11 5c.55 0 1 .45 1 1s-.45 1-1 1s-1-.45-1-1s.45-1 1-1M8 5c.55 0 1 .45 1 1s-.45 1-1 1s-1-.45-1-1s.45-1 1-1m4 4c2.76 0 5 2.24 5 5s-2.24 5-5 5s-5-2.24-5-5s2.24-5 5-5" opacity=".3"/><path fill="currentColor" d="M18 2.01L6 2c-1.11 0-2 .89-2 2v16c0 1.11.89 2 2 2h12c1.11 0 2-.89 2-2V4c0-1.11-.89-1.99-2-1.99M18 20H6L5.99 4H18z"/><circle cx="8" cy="6" r="1" fill="currentColor"/><circle cx="11" cy="6" r="1" fill="currentColor"/><path fill="currentColor" d="M12 19c2.76 0 5-2.24 5-5s-2.24-5-5-5s-5 2.24-5 5s2.24 5 5 5m2.36-7.36c1.3 1.3 1.3 3.42 0 4.72s-3.42 1.3-4.72 0z"/></symbol><symbol id="hd-icon-ic-twotone-local-library" viewBox="0 0 24 24"><path fill="currentColor" d="M19 17.13v-6.95c-2.1.38-4.05 1.35-5.64 2.83L12 14.28l-1.36-1.27A11.2 11.2 0 0 0 5 10.18v6.95c2.53.34 4.94 1.3 7 2.83c2.07-1.52 4.47-2.49 7-2.83" opacity=".3"/><circle cx="12" cy="5" r="2" fill="currentColor" opacity=".3"/><path fill="currentColor" d="M16 5c0-2.21-1.79-4-4-4S8 2.79 8 5s1.79 4 4 4s4-1.79 4-4m-6 0c0-1.1.9-2 2-2s2 .9 2 2s-.9 2-2 2s-2-.9-2-2M3 19c3.48 0 6.64 1.35 9 3.55c2.36-2.19 5.52-3.55 9-3.55V8c-3.48 0-6.64 1.35-9 3.55C9.64 9.35 6.48 8 3 8zm2-8.82c2.1.38 4.05 1.35 5.64 2.83L12 14.28l1.36-1.27A11.2 11.2 0 0 1 19 10.18v6.95c-2.53.34-4.93 1.3-7 2.82a15.2 15.2 0 0 0-7-2.83z"/></symbol><symbol id="hd-icon-ic-twotone-local-mall" viewBox="0 0 24 24"><path fill="currentColor" d="M5 8v12h14V8zm7 6c-2.76 0-5-2.24-5-5h2c0 1.66 1.34 3 3 3s3-1.34 3-3h2c0 2.76-2.24 5-5 5" opacity=".3"/><path fill="currentColor" d="M17 6c0-2.76-2.24-5-5-5S7 3.24 7 6H5c-1.1 0-2 .9-2 2v12c0 1.1.9 2 2 2h14c1.1 0 2-.9 2-2V8c0-1.1-.9-2-2-2zm-5-3c1.66 0 3 1.34 3 3H9c0-1.66 1.34-3 3-3m7 17H5V8h14zm-7-8c-1.66 0-3-1.34-3-3H7c0 2.76 2.24 5 5 5s5-2.24 5-5h-2c0 1.66-1.34 3-3 3"/></symbol><symbol id="hd-icon-ic-twotone-local-movies" viewBox="0 0 24 24"><path fill="currentColor" d="M10 5h4v14h-4z" opacity=".3"/><path fill="currentColor" d="M20 21V3h-2v2h-2V3H8v2H6V3H4v18h2v-2h2v2h8v-2h2v2zM8 17H6v-2h2zm0-4H6v-2h2zm0-4H6V7h2zm6 10h-4V5h4zm2-12h2v2h-2zm0 4h2v2h-2zm0 6v-2h2v2z"/></symbol><symbol id="hd-icon-ic-twotone-local-offer" viewBox="0 0 24 24"><path fill="currentColor" d="M11 4H4v7l9 9.01L20 13zM6.5 8C5.67 8 5 7.33 5 6.5S5.67 5 6.5 5S8 5.67 8 6.5S7.33 8 6.5 8" opacity=".3"/><path fill="currentColor" d="M12.41 2.58C12.05 2.22 11.55 2 11 2H4c-1.1 0-2 .9-2 2v7c0 .55.22 1.05.59 1.42l9 9c.36.36.86.58 1.41.58s1.05-.22 1.41-.59l7-7c.37-.36.59-.86.59-1.41s-.23-1.06-.59-1.42zM13 20.01L4 11V4h7v-.01l9 9z"/><circle cx="6.5" cy="6.5" r="1.5" fill="currentColor"/></symbol><symbol id="hd-icon-ic-twotone-local-parking" viewBox="0 0 24 24"><path fill="currentColor" d="M13 3H6v18h4v-6h3c3.31 0 6-2.69 6-6s-2.69-6-6-6m.2 8H10V7h3.2c1.1 0 2 .9 2 2s-.9 2-2 2"/></symbol><symbol id="hd-icon-ic-twotone-local-pharmacy" viewBox="0 0 24 24"><path fill="currentColor" d="M5.11 19h13.78l-1.79-5.37l-.21-.63l.21-.63L18.89 7H5.11l1.79 5.37l.21.63l-.21.63zM8 12h3V9h2v3h3v2h-3v3h-2v-3H8z" opacity=".3"/><path fill="currentColor" d="M3 21h18v-2l-2-6l2-6V5h-2.64l1.14-3.14L17.15 1l-1.46 4H3v2l2 6l-2 6zm3.9-8.63L5.11 7h13.78l-1.79 5.37l-.21.63l.21.63L18.89 19H5.11l1.79-5.37l.21-.63zM11 17h2v-3h3v-2h-3V9h-2v3H8v2h3z"/></symbol><symbol id="hd-icon-ic-twotone-local-phone" viewBox="0 0 24 24"><path fill="currentColor" d="M19 17.47c-.88-.07-1.75-.22-2.6-.45l-1.19 1.19c1.2.41 2.48.67 3.8.75v-1.49zM6.99 7.59c-.24-.83-.39-1.7-.45-2.59h-1.5c.09 1.32.35 2.59.75 3.8z" opacity=".3"/><path fill="currentColor" d="M3 4c0 9.39 7.61 17 17 17c.55 0 1-.45 1-1v-3.49c0-.55-.45-1-1-1c-1.24 0-2.45-.2-3.57-.57a.8.8 0 0 0-.31-.05c-.26 0-.51.1-.71.29l-2.2 2.2a15.15 15.15 0 0 1-6.59-6.59l2.2-2.2c.28-.28.36-.67.25-1.02A11.4 11.4 0 0 1 8.5 4c0-.55-.45-1-1-1H4c-.55 0-1 .45-1 1m13.4 13.02c.85.24 1.72.39 2.6.45v1.49c-1.32-.09-2.59-.35-3.8-.75zM6.54 5c.06.89.21 1.76.45 2.59l-1.2 1.2c-.41-1.2-.67-2.47-.76-3.79z"/></symbol><symbol id="hd-icon-ic-twotone-local-pizza" viewBox="0 0 24 24"><path fill="currentColor" d="M5.51 6.36L12 17.92l6.49-11.55C16.68 4.85 14.38 4 12 4s-4.68.85-6.49 2.36M9 8.5c-.83 0-1.5-.67-1.5-1.5S8.17 5.5 9 5.5s1.5.67 1.5 1.5S9.82 8.5 9 8.5m4.5 4.5c0 .83-.68 1.5-1.5 1.5c-.83 0-1.5-.67-1.5-1.5s.67-1.5 1.5-1.5s1.5.67 1.5 1.5" opacity=".3"/><path fill="currentColor" d="M12 2C8.43 2 5.23 3.54 3.01 6L12 22l8.99-16C18.78 3.55 15.57 2 12 2m0 15.92L5.51 6.36C7.32 4.85 9.62 4 12 4s4.68.85 6.49 2.36zM9 5.5c-.83 0-1.5.67-1.5 1.5S8.17 8.5 9 8.5s1.5-.67 1.5-1.5S9.82 5.5 9 5.5m1.5 7.5c0 .83.67 1.5 1.5 1.5c.82 0 1.5-.67 1.5-1.5s-.68-1.5-1.5-1.5s-1.5.67-1.5 1.5"/></symbol><symbol id="hd-icon-ic-twotone-local-play" viewBox="0 0 24 24"><path fill="currentColor" d="M4.01 8.54C5.2 9.23 6 10.52 6 12s-.81 2.77-2 3.46V18h16v-2.54c-1.19-.69-2-1.99-2-3.46s.81-2.77 2-3.46V6H4zm6.72 1.68L12 7l1.26 3.23l3.47.2l-2.69 2.2l.89 3.37L12 14.12L9.07 16l.88-3.37l-2.69-2.2z" opacity=".3"/><path fill="currentColor" d="M20 4H4c-1.1 0-1.99.9-1.99 2v4c1.1 0 1.99.9 1.99 2s-.89 2-2 2v4c0 1.1.9 2 2 2h16c1.1 0 2-.9 2-2v-4c-1.1 0-2-.9-2-2s.9-2 2-2V6c0-1.1-.9-2-2-2m0 4.54c-1.19.69-2 1.99-2 3.46s.81 2.77 2 3.46V18H4v-2.54c1.19-.69 2-1.99 2-3.46c0-1.48-.8-2.77-1.99-3.46L4 6h16zM9.07 16L12 14.12L14.93 16l-.89-3.36l2.69-2.2l-3.47-.21L12 7l-1.27 3.22l-3.47.21l2.69 2.2z"/></symbol><symbol id="hd-icon-ic-twotone-local-police" viewBox="0 0 24 24"><path fill="currentColor" d="M12 3.19L5 6.3V11c0 4.52 2.98 8.69 7 9.93c4.02-1.23 7-5.41 7-9.93V6.3zm2.5 9.4l.9 3.88l-3.4-2.05l-3.4 2.05l.9-3.87l-3-2.59l3.96-.34L12 6.02l1.54 3.64l3.96.34z" opacity=".3"/><path fill="currentColor" d="m14.5 12.59l.9 3.88l-3.4-2.05l-3.4 2.05l.9-3.87l-3-2.59l3.96-.34L12 6.02l1.54 3.64l3.96.34zM12 3.19l7 3.11V11c0 4.52-2.98 8.69-7 9.93c-4.02-1.24-7-5.41-7-9.93V6.3zM12 1L3 5v6c0 5.55 3.84 10.74 9 12c5.16-1.26 9-6.45 9-12V5z"/></symbol><symbol id="hd-icon-ic-twotone-local-post-office" viewBox="0 0 24 24"><path fill="currentColor" d="m12 11l8-5H4zM4 8v10h16V8l-8 5z" opacity=".3"/><path fill="currentColor" d="M20 4H4c-1.1 0-2 .9-2 2v12c0 1.1.9 2 2 2h16c1.1 0 2-.9 2-2V6c0-1.1-.9-2-2-2m0 14H4V8l8 5l8-5zm-8-7L4 6h16z"/></symbol><symbol id="hd-icon-ic-twotone-local-printshop" viewBox="0 0 24 24"><path fill="currentColor" d="M8 5h8v3H8zm11 5H5c-.55 0-1 .45-1 1v4h2v-2h12v2h2v-4c0-.55-.45-1-1-1m-1 2.5c-.55 0-1-.45-1-1s.45-1 1-1s1 .45 1 1s-.45 1-1 1" opacity=".3"/><path fill="currentColor" d="M19 8h-1V3H6v5H5c-1.66 0-3 1.34-3 3v6h4v4h12v-4h4v-6c0-1.66-1.34-3-3-3M8 5h8v3H8zm8 14H8v-4h8zm4-4h-2v-2H6v2H4v-4c0-.55.45-1 1-1h14c.55 0 1 .45 1 1z"/><circle cx="18" cy="11.5" r="1" fill="currentColor"/></symbol><symbol id="hd-icon-ic-twotone-local-see" viewBox="0 0 24 24"><path fill="currentColor" d="M20 6h-4.05l-.59-.65L14.12 4H9.88L8.65 5.35l-.6.65H4v12h16zm-8 11c-2.76 0-5-2.24-5-5s2.24-5 5-5s5 2.24 5 5s-2.24 5-5 5" opacity=".3"/><path fill="currentColor" d="M4 20h16c1.1 0 2-.9 2-2V6c0-1.1-.9-2-2-2h-3.17L15 2H9L7.17 4H4c-1.1 0-2 .9-2 2v12c0 1.1.9 2 2 2M4 6h4.05l.59-.65L9.88 4h4.24l1.24 1.35l.59.65H20v12H4zm8 1c-2.76 0-5 2.24-5 5s2.24 5 5 5s5-2.24 5-5s-2.24-5-5-5m0 8.2c-1.77 0-3.2-1.43-3.2-3.2s1.43-3.2 3.2-3.2s3.2 1.43 3.2 3.2s-1.43 3.2-3.2 3.2"/></symbol><symbol id="hd-icon-ic-twotone-local-shipping" viewBox="0 0 24 24"><path fill="currentColor" d="M3 15h.78c.55-.61 1.34-1 2.22-1s1.67.39 2.22 1H15V6H3z" opacity=".3"/><path fill="currentColor" d="M17 8V4H3c-1.1 0-2 .9-2 2v11h2c0 1.66 1.34 3 3 3s3-1.34 3-3h6c0 1.66 1.34 3 3 3s3-1.34 3-3h2v-5l-3-4zM6 18c-.55 0-1-.45-1-1s.45-1 1-1s1 .45 1 1s-.45 1-1 1m9-3H8.22c-.55-.61-1.33-1-2.22-1s-1.67.39-2.22 1H3V6h12zm3 3c-.55 0-1-.45-1-1s.45-1 1-1s1 .45 1 1s-.45 1-1 1m-1-6V9.5h2.5l1.96 2.5z"/></symbol><symbol id="hd-icon-ic-twotone-local-taxi" viewBox="0 0 24 24"><path fill="currentColor" d="m5.12 12l-.12.34V17h14v-4.66l-.12-.34zm2.38 4c-.83 0-1.5-.67-1.5-1.5S6.67 13 7.5 13s1.5.67 1.5 1.5S8.33 16 7.5 16m9 0c-.83 0-1.5-.67-1.5-1.5s.67-1.5 1.5-1.5s1.5.67 1.5 1.5s-.67 1.5-1.5 1.5" opacity=".3"/><path fill="currentColor" d="M17.5 5H15V3H9v2H6.5c-.66 0-1.21.42-1.42 1.01L3 12v8c0 .55.45 1 1 1h1c.55 0 1-.45 1-1v-1h12v1c0 .55.45 1 1 1h1c.55 0 1-.45 1-1v-8l-2.08-5.99C18.72 5.42 18.16 5 17.5 5M6.85 7h10.29l1.04 3H5.81zM19 17H5v-4.66l.12-.34h13.77l.11.34z"/><circle cx="7.5" cy="14.5" r="1.5" fill="currentColor"/><circle cx="16.5" cy="14.5" r="1.5" fill="currentColor"/></symbol><symbol id="hd-icon-ic-twotone-location-city" viewBox="0 0 24 24"><path fill="currentColor" d="M15 11V5l-3-3l-3 3v2H3v14h18V11zm-8 8H5v-2h2zm0-4H5v-2h2zm0-4H5V9h2zm6 8h-2v-2h2zm0-4h-2v-2h2zm0-4h-2V9h2zm0-4h-2V5h2zm6 12h-2v-2h2zm0-4h-2v-2h2z"/></symbol><symbol id="hd-icon-ic-twotone-location-disabled" viewBox="0 0 24 24"><path fill="currentColor" d="M23 13v-2h-2.06A8.994 8.994 0 0 0 13 3.06V1h-2v2.06c-.98.11-1.91.38-2.77.78l1.53 1.53a6.995 6.995 0 0 1 8.87 8.87l1.53 1.53c.4-.86.67-1.79.78-2.77zM4.41 2.86L3 4.27l2.04 2.04A9 9 0 0 0 3.06 11H1v2h2.06A8.994 8.994 0 0 0 11 20.94V23h2v-2.06c1.77-.2 3.38-.91 4.69-1.98L19.73 21l1.41-1.41zM12 19A6.995 6.995 0 0 1 6.46 7.73l9.81 9.81A6.97 6.97 0 0 1 12 19"/></symbol><symbol id="hd-icon-ic-twotone-location-off" viewBox="0 0 24 24"><path fill="currentColor" d="M17 9c0 1.06-.39 2.32-1 3.62l1.49 1.49C18.37 12.36 19 10.57 19 9c0-3.87-3.13-7-7-7c-1.84 0-3.5.71-4.75 1.86l1.43 1.43C9.56 4.5 10.72 4 12 4c2.76 0 5 2.24 5 5m-5-2.5c-.59 0-1.13.21-1.56.56l3.5 3.5c.35-.43.56-.97.56-1.56A2.5 2.5 0 0 0 12 6.5M3.41 2.86L2 4.27l3.18 3.18C5.07 7.95 5 8.47 5 9c0 5.25 7 13 7 13s1.67-1.85 3.38-4.35L18.73 21l1.41-1.41zM12 18.88c-2.01-2.58-4.8-6.74-4.98-9.59l6.92 6.92c-.65.98-1.33 1.89-1.94 2.67"/></symbol><symbol id="hd-icon-ic-twotone-location-on" viewBox="0 0 24 24"><path fill="currentColor" d="M12 4C9.24 4 7 6.24 7 9c0 2.85 2.92 7.21 5 9.88c2.11-2.69 5-7 5-9.88c0-2.76-2.24-5-5-5m0 7.5a2.5 2.5 0 0 1 0-5a2.5 2.5 0 0 1 0 5" opacity=".3"/><path fill="currentColor" d="M12 2C8.13 2 5 5.13 5 9c0 5.25 7 13 7 13s7-7.75 7-13c0-3.87-3.13-7-7-7M7 9c0-2.76 2.24-5 5-5s5 2.24 5 5c0 2.88-2.88 7.19-5 9.88C9.92 16.21 7 11.85 7 9"/><circle cx="12" cy="9" r="2.5" fill="currentColor"/></symbol><symbol id="hd-icon-ic-twotone-location-searching" viewBox="0 0 24 24"><path fill="currentColor" d="M20.94 11A8.994 8.994 0 0 0 13 3.06V1h-2v2.06A8.994 8.994 0 0 0 3.06 11H1v2h2.06A8.994 8.994 0 0 0 11 20.94V23h2v-2.06A8.994 8.994 0 0 0 20.94 13H23v-2zM12 19c-3.87 0-7-3.13-7-7s3.13-7 7-7s7 3.13 7 7s-3.13 7-7 7"/></symbol><symbol id="hd-icon-ic-twotone-lock" viewBox="0 0 24 24"><path fill="currentColor" d="M6 20h12V10H6zm6-7c1.1 0 2 .9 2 2s-.9 2-2 2s-2-.9-2-2s.9-2 2-2" opacity=".3"/><path fill="currentColor" d="M18 8h-1V6c0-2.76-2.24-5-5-5S7 3.24 7 6v2H6c-1.1 0-2 .9-2 2v10c0 1.1.9 2 2 2h12c1.1 0 2-.9 2-2V10c0-1.1-.9-2-2-2M9 6c0-1.66 1.34-3 3-3s3 1.34 3 3v2H9zm9 14H6V10h12zm-6-3c1.1 0 2-.9 2-2s-.9-2-2-2s-2 .9-2 2s.9 2 2 2"/></symbol><symbol id="hd-icon-ic-twotone-lock-clock" viewBox="0 0 24 24"><path fill="currentColor" d="M11.29 20H6V10h12v1c.7 0 1.37.1 2 .29V10c0-1.1-.9-2-2-2h-1V6c0-2.76-2.24-5-5-5S7 3.24 7 6v2H6c-1.1 0-2 .9-2 2v10c0 1.1.9 2 2 2h6.26c-.42-.6-.75-1.28-.97-2M9 6c0-1.66 1.34-3 3-3s3 1.34 3 3v2H9z"/><path fill="currentColor" d="M11 18c0-3.87 3.13-7 7-7v-1H6v10h5.29c-.19-.63-.29-1.3-.29-2" opacity=".3"/><path fill="currentColor" d="M18 13c-2.76 0-5 2.24-5 5s2.24 5 5 5s5-2.24 5-5s-2.24-5-5-5m1.65 7.35L17.5 18.2V15h1v2.79l1.85 1.85z"/></symbol><symbol id="hd-icon-ic-twotone-lock-open" viewBox="0 0 24 24"><path fill="currentColor" d="M6 20h12V10H6zm6-7c1.1 0 2 .9 2 2s-.9 2-2 2s-2-.9-2-2s.9-2 2-2" opacity=".3"/><path fill="currentColor" d="M18 8h-1V6c0-2.76-2.24-5-5-5S7 3.24 7 6h2c0-1.66 1.34-3 3-3s3 1.34 3 3v2H6c-1.1 0-2 .9-2 2v10c0 1.1.9 2 2 2h12c1.1 0 2-.9 2-2V10c0-1.1-.9-2-2-2m0 12H6V10h12zm-6-3c1.1 0 2-.9 2-2s-.9-2-2-2s-2 .9-2 2s.9 2 2 2"/></symbol><symbol id="hd-icon-ic-twotone-lock-person" viewBox="0 0 24 24"><path fill="currentColor" d="M6 10v10h5.29c-.19-.63-.29-1.3-.29-2c0-3.87 3.13-7 7-7v-1z" opacity=".3"/><path fill="currentColor" d="M6 20V10h12v1c.7 0 1.37.1 2 .29V10c0-1.1-.9-2-2-2h-1V6c0-2.76-2.24-5-5-5S7 3.24 7 6v2H6c-1.1 0-2 .9-2 2v10c0 1.1.9 2 2 2h6.26c-.42-.6-.75-1.28-.97-2zM9 6c0-1.66 1.34-3 3-3s3 1.34 3 3v2H9z"/><path fill="currentColor" d="M18 13c-2.76 0-5 2.24-5 5s2.24 5 5 5s5-2.24 5-5s-2.24-5-5-5m0 2c.83 0 1.5.67 1.5 1.5S18.83 18 18 18s-1.5-.67-1.5-1.5s.67-1.5 1.5-1.5m0 6c-1.03 0-1.94-.52-2.48-1.32c.73-.42 1.57-.68 2.48-.68s1.75.26 2.48.68c-.54.8-1.45 1.32-2.48 1.32"/></symbol><symbol id="hd-icon-ic-twotone-lock-reset" viewBox="0 0 24 24"><path fill="currentColor" d="M13 3a9 9 0 0 0-9 9H1l4 4l4-4H6c0-3.86 3.14-7 7-7s7 3.14 7 7s-3.14 7-7 7c-1.9 0-3.62-.76-4.88-1.99L6.7 18.42A8.98 8.98 0 0 0 13 21a9 9 0 0 0 0-18m2 8v-1c0-1.1-.9-2-2-2s-2 .9-2 2v1c-.55 0-1 .45-1 1v3c0 .55.45 1 1 1h4c.55 0 1-.45 1-1v-3c0-.55-.45-1-1-1m-1 0h-2v-1c0-.55.45-1 1-1s1 .45 1 1z"/></symbol><symbol id="hd-icon-ic-twotone-log-in" viewBox="0 0 24 24"><path fill="currentColor" d="M9 2h9c1.1 0 2 .9 2 2v16c0 1.1-.9 2-2 2H9c-1.1 0-2-.9-2-2v-2h2v2h9V4H9v2H7V4c0-1.1.9-2 2-2"/><path fill="currentColor" d="M10.09 15.59L11.5 17l5-5l-5-5l-1.41 1.41L12.67 11H3v2h9.67z"/></symbol><symbol id="hd-icon-ic-twotone-log-out" viewBox="0 0 24 24"><path fill="currentColor" d="M6 2h9a2 2 0 0 1 2 2v2h-2V4H6v16h9v-2h2v2a2 2 0 0 1-2 2H6a2 2 0 0 1-2-2V4a2 2 0 0 1 2-2"/><path fill="currentColor" d="M16.09 15.59L17.5 17l5-5l-5-5l-1.41 1.41L18.67 11H9v2h9.67z"/></symbol><symbol id="hd-icon-ic-twotone-login" viewBox="0 0 24 24"><path fill="currentColor" d="M11 7L9.6 8.4l2.6 2.6H2v2h10.2l-2.6 2.6L11 17l5-5zm9 12h-8v2h8c1.1 0 2-.9 2-2V5c0-1.1-.9-2-2-2h-8v2h8z"/></symbol><symbol id="hd-icon-ic-twotone-logo-dev" viewBox="0 0 24 24"><path fill="currentColor" d="M19 3H5c-1.1 0-2 .9-2 2v14c0 1.1.9 2 2 2h14c1.1 0 2-.9 2-2V5c0-1.1-.9-2-2-2M7.68 14.98H6V9h1.71c1.28 0 1.71 1.03 1.71 1.71v2.56c0 .68-.42 1.71-1.74 1.71m4.7-3.52v1.07H11.2v1.39h1.93v1.07h-2.25c-.4.01-.74-.31-.75-.71V9.75c-.01-.4.31-.74.71-.75h2.28v1.07H11.2v1.39zm4.5 2.77c-.48 1.11-1.33.89-1.71 0L13.77 9h1.18l1.07 4.11L17.09 9h1.18z"/><path fill="currentColor" d="M7.77 10.12h-.63v3.77h.63c.14 0 .28-.05.42-.16c.14-.1.21-.26.21-.47v-2.52c0-.21-.07-.37-.21-.47a.72.72 0 0 0-.42-.15"/></symbol><symbol id="hd-icon-ic-twotone-logout" viewBox="0 0 24 24"><path fill="currentColor" d="M5 5h7V3H5c-1.1 0-2 .9-2 2v14c0 1.1.9 2 2 2h7v-2H5zm16 7l-4-4v3H9v2h8v3z"/></symbol><symbol id="hd-icon-ic-twotone-looks" viewBox="0 0 24 24"><path fill="currentColor" d="M12 6C5.93 6 1 10.93 1 17h2c0-4.96 4.04-9 9-9s9 4.04 9 9h2c0-6.07-4.93-11-11-11m0 6c2.76 0 5 2.24 5 5h2c0-3.86-3.14-7-7-7s-7 3.14-7 7h2c0-2.76 2.24-5 5-5"/></symbol><symbol id="hd-icon-ic-twotone-looks-3" viewBox="0 0 24 24"><path fill="currentColor" d="M5 19h14V5H5zm4-4h4v-2h-2v-2h2V9H9V7h4a2 2 0 0 1 2 2v1.5c0 .83-.67 1.5-1.5 1.5c.83 0 1.5.67 1.5 1.5V15a2 2 0 0 1-2 2H9z" opacity=".3"/><path fill="currentColor" d="M19 3H5c-1.1 0-2 .9-2 2v14c0 1.1.9 2 2 2h14c1.1 0 2-.9 2-2V5c0-1.1-.9-2-2-2m0 16H5V5h14zm-4-4v-1.5c0-.83-.67-1.5-1.5-1.5c.83 0 1.5-.67 1.5-1.5V9a2 2 0 0 0-2-2H9v2h4v2h-2v2h2v2H9v2h4a2 2 0 0 0 2-2"/></symbol><symbol id="hd-icon-ic-twotone-looks-4" viewBox="0 0 24 24"><path fill="currentColor" d="M5.04 19h14V5h-14zm4-12h2v4h2V7h2v10h-2v-4h-4z" opacity=".3"/><path fill="currentColor" d="M19.04 3h-14c-1.1 0-2 .9-2 2v14c0 1.1.9 2 2 2h14c1.1 0 2-.9 2-2V5c0-1.1-.9-2-2-2m0 16h-14V5h14zm-6-2h2V7h-2v4h-2V7h-2v6h4z"/></symbol><symbol id="hd-icon-ic-twotone-looks-5" viewBox="0 0 24 24"><path fill="currentColor" d="M19 5H5v14h14zm-4 4h-4v2h2a2 2 0 0 1 2 2v2a2 2 0 0 1-2 2H9v-2h4v-2H9V7h6z" opacity=".3"/><path fill="currentColor" d="M5 21h14c1.1 0 2-.9 2-2V5c0-1.1-.9-2-2-2H5c-1.1 0-2 .9-2 2v14c0 1.1.9 2 2 2M5 5h14v14H5zm4 8h4v2H9v2h4a2 2 0 0 0 2-2v-2a2 2 0 0 0-2-2h-2V9h4V7H9z"/></symbol><symbol id="hd-icon-ic-twotone-looks-6" viewBox="0 0 24 24"><path fill="currentColor" d="M11 13h2v2h-2zm8-8H5v14h14zm-4 4h-4v2h2a2 2 0 0 1 2 2v2a2 2 0 0 1-2 2h-2a2 2 0 0 1-2-2V9a2 2 0 0 1 2-2h4z" opacity=".3"/><path fill="currentColor" d="M9 9v6a2 2 0 0 0 2 2h2a2 2 0 0 0 2-2v-2a2 2 0 0 0-2-2h-2V9h4V7h-4a2 2 0 0 0-2 2m4 4v2h-2v-2zm-8 8h14c1.1 0 2-.9 2-2V5c0-1.1-.9-2-2-2H5c-1.1 0-2 .9-2 2v14c0 1.1.9 2 2 2M5 5h14v14H5z"/></symbol><symbol id="hd-icon-ic-twotone-looks-one" viewBox="0 0 24 24"><path fill="currentColor" d="M19 5H5v14h14zm-5 12h-2V9h-2V7h4z" opacity=".3"/><path fill="currentColor" d="M5 21h14c1.1 0 2-.9 2-2V5c0-1.1-.9-2-2-2H5c-1.1 0-2 .9-2 2v14c0 1.1.9 2 2 2M5 5h14v14H5zm5 4h2v8h2V7h-4z"/></symbol><symbol id="hd-icon-ic-twotone-looks-two" viewBox="0 0 24 24"><path fill="currentColor" d="M19 5H5v14h14zm-4 6a2 2 0 0 1-2 2h-2v2h4v2H9v-4a2 2 0 0 1 2-2h2V9H9V7h4a2 2 0 0 1 2 2z" opacity=".3"/><path fill="currentColor" d="M5 21h14c1.1 0 2-.9 2-2V5c0-1.1-.9-2-2-2H5c-1.1 0-2 .9-2 2v14c0 1.1.9 2 2 2M5 5h14v14H5zm8 2H9v2h4v2h-2a2 2 0 0 0-2 2v4h6v-2h-4v-2h2a2 2 0 0 0 2-2V9a2 2 0 0 0-2-2"/></symbol><symbol id="hd-icon-ic-twotone-loop" viewBox="0 0 24 24"><path fill="currentColor" d="M12 18c-3.31 0-6-2.69-6-6c0-1.01.25-1.97.7-2.8L5.24 7.74A7.93 7.93 0 0 0 4 12c0 4.42 3.58 8 8 8v3l4-4l-4-4zm0-14V1L8 5l4 4V6c3.31 0 6 2.69 6 6c0 1.01-.25 1.97-.7 2.8l1.46 1.46A7.93 7.93 0 0 0 20 12c0-4.42-3.58-8-8-8"/></symbol><symbol id="hd-icon-ic-twotone-loupe" viewBox="0 0 24 24"><path fill="currentColor" d="M12 20c4.41 0 8-3.59 8-8s-3.59-8-8-8s-8 3.59-8 8s3.59 8 8 8m-5-9h4V7h2v4h4v2h-4v4h-2v-4H7z" opacity=".3"/><path fill="currentColor" d="M11 17h2v-4h4v-2h-4V7h-2v4H7v2h4zm1 5h8c1.1 0 2-.9 2-2v-8c0-5.51-4.49-10-10-10S2 6.49 2 12s4.49 10 10 10m0-18c4.41 0 8 3.59 8 8s-3.59 8-8 8s-8-3.59-8-8s3.59-8 8-8"/></symbol><symbol id="hd-icon-ic-twotone-low-priority" viewBox="0 0 24 24"><path fill="currentColor" d="M14 5h8v2h-8zm0 5.5h8v2h-8zm0 5.5h8v2h-8zM2 11.5C2 15.08 4.92 18 8.5 18H9v2l3-3l-3-3v2h-.5C6.02 16 4 13.98 4 11.5S6.02 7 8.5 7H12V5H8.5C4.92 5 2 7.92 2 11.5"/></symbol><symbol id="hd-icon-ic-twotone-loyalty" viewBox="0 0 24 24"><path fill="currentColor" d="M11 4H4v7l9 9.01L20 13zM6.5 8C5.67 8 5 7.33 5 6.5S5.67 5 6.5 5S8 5.67 8 6.5S7.33 8 6.5 8m6.5 3.7l.6-.6a2.053 2.053 0 0 1 2.9 2.9L13 17.5L9.5 14c-.37-.38-.6-.89-.6-1.45c0-1.13.92-2.05 2.05-2.05c.57 0 1.08.23 1.45.61z" opacity=".3"/><path fill="currentColor" d="m21.41 11.58l-9-9C12.05 2.22 11.55 2 11 2H4c-1.1 0-2 .9-2 2v7c0 .55.22 1.05.59 1.42l9 9c.36.36.86.58 1.41.58s1.05-.22 1.41-.59l7-7c.37-.36.59-.86.59-1.41s-.23-1.06-.59-1.42M13 20.01L4 11V4h7v-.01l9 9z"/><circle cx="6.5" cy="6.5" r="1.5" fill="currentColor"/><path fill="currentColor" d="M8.9 12.55c0 .57.23 1.07.6 1.45l3.5 3.5l3.5-3.5a2.053 2.053 0 0 0-2.9-2.9l-.6.6l-.6-.59c-.37-.38-.89-.61-1.45-.61c-1.13 0-2.05.92-2.05 2.05"/></symbol><symbol id="hd-icon-ic-twotone-lte-mobiledata" viewBox="0 0 24 24"><path fill="currentColor" d="M6 14h3v2H4V8h2zm3-4h2v6h2v-6h2V8H9zm12 0V8h-5v8h5v-2h-3v-1h3v-2h-3v-1z"/></symbol><symbol id="hd-icon-ic-twotone-lte-plus-mobiledata" viewBox="0 0 24 24"><path fill="currentColor" d="M3 14h3v2H1V8h2zm2-4h2v6h2v-6h2V8H5zm7 6h5v-2h-3v-1h3v-2h-3v-1h3V8h-5zm12-5h-2V9h-2v2h-2v2h2v2h2v-2h2z"/></symbol><symbol id="hd-icon-ic-twotone-luggage" viewBox="0 0 24 24"><path fill="currentColor" d="M7 8v11h10V8zm2.5 10H8V9h1.5zm3.25 0h-1.5V9h1.5zM16 18h-1.5V9H16z" opacity=".3"/><path fill="currentColor" d="M9.5 18H8V9h1.5zm3.25 0h-1.5V9h1.5zM16 18h-1.5V9H16zm1-12h-2V3c0-.55-.45-1-1-1h-4c-.55 0-1 .45-1 1v3H7c-1.1 0-2 .9-2 2v11c0 1.1.9 2 2 2c0 .55.45 1 1 1s1-.45 1-1h6c0 .55.45 1 1 1s1-.45 1-1c1.1 0 2-.9 2-2V8c0-1.1-.9-2-2-2m-6.5-2.5h3V6h-3zM17 19H7V8h10z"/></symbol><symbol id="hd-icon-ic-twotone-lunch-dining" viewBox="0 0 24 24"><path fill="currentColor" fill-opacity=".3" d="M4 18h16v1H4zm8-13c-3.39 0-6.99.81-7.82 3h15.66c-.13-.37-.35-.7-.66-1.01C17.93 5.73 15.31 5 12 5"/><path fill="currentColor" d="M2 19c0 1.1.9 2 2 2h16c1.1 0 2-.9 2-2v-3H2zm2-1h16v1H4zm14.66-6.5c-1.95 0-2.09 1-3.33 1c-1.19 0-1.42-1-3.33-1c-1.95 0-2.09 1-3.33 1c-1.19 0-1.42-1-3.33-1c-1.95 0-2.09 1-3.33 1v2c1.9 0 2.17-1 3.35-1c1.19 0 1.42 1 3.33 1c1.95 0 2.09-1 3.33-1c1.19 0 1.42 1 3.33 1c1.95 0 2.09-1 3.33-1c1.19 0 1.4.98 3.32 1l-.01-1.98c-1.61-.33-1.62-1.02-3.33-1.02M22 9c.02-4-4.28-6-10-6C6.29 3 2 5 2 9v1h20zM4.18 8C5.01 5.81 8.61 5 12 5c3.31 0 5.93.73 7.19 1.99c.3.31.52.64.65 1.01z"/></symbol><symbol id="hd-icon-ic-twotone-lyrics" viewBox="0 0 24 24"><path fill="currentColor" d="M4 4v14l2-2h9v-4.03c-.62-.83-1-1.85-1-2.97s.38-2.14 1-2.97V4zm6 10H6v-2h4zm3-3H6V9h7zm0-3H6V6h7z" opacity=".3"/><path fill="currentColor" d="M6 12h4v2H6zm0-6h7v2H6z"/><path fill="currentColor" d="M15 11.97V16H6l-2 2V4h11v2.03c.52-.69 1.2-1.25 2-1.6V4c0-1.1-.9-2-2-2H4c-1.1 0-1.99.9-1.99 2L2 22l4-4h9c1.1 0 2-.9 2-2v-2.42a5.16 5.16 0 0 1-2-1.61"/><path fill="currentColor" d="M6 9h7v2H6zm14-2.82c-.31-.11-.65-.18-1-.18c-1.66 0-3 1.34-3 3s1.34 3 3 3s3-1.34 3-3V3h2V1h-4z"/></symbol><symbol id="hd-icon-ic-twotone-macro-off" viewBox="0 0 24 24"><path fill="currentColor" d="m10.11 5.69l-.81-.56c-.18-.13-.41-.2-.64-.2c-.25 0-.47.1-.66.24l1.39 1.39c.18-.33.43-.63.72-.87m5.72 3.21l-.88-.42c-.12.73-.51 1.36-1.05 1.82l.8.57c.18.13.4.2.64.2c.47 0 .87-.28 1.05-.69c.06-.14.09-.28.09-.44c.01-.45-.25-.84-.65-1.04m-1.94-3.22c.55.46.94 1.1 1.06 1.84l.87-.42c.41-.2.66-.59.66-1.03a1.14 1.14 0 0 0-1.78-.94zM12 5c.36 0 .71.07 1.03.19l.11-1.09C13.12 3.49 12.62 3 12 3s-1.12.49-1.14 1.1l.12 1.09C11.3 5.07 11.64 5 12 5m3.94 13.77l-.71-.71c-.32.47-.59.97-.79 1.5c.54-.2 1.04-.47 1.5-.79m-10.5-3.33a7.04 7.04 0 0 0 4.12 4.12a7.04 7.04 0 0 0-4.12-4.12" opacity=".3"/><path fill="currentColor" d="M8.66 4.93c.24 0 .46.07.64.2l.81.56c-.29.24-.54.54-.72.87l1.66 1.66C11.03 8.14 11 8.08 11 8c0-.55.45-1 1-1s1 .45 1 1s-.45 1-1 1c-.08 0-.14-.03-.22-.04l4.06 4.06a3.13 3.13 0 0 0 2.63-3.09c0-.71-.25-1.39-.67-1.93c.43-.54.67-1.22.67-1.93a3.145 3.145 0 0 0-3.57-3.11C14.44 1.81 13.31 1 12 1s-2.44.81-2.91 1.96a3.13 3.13 0 0 0-2.52.78l1.42 1.42c.2-.13.42-.23.67-.23m7.73 5.45c-.18.41-.58.69-1.05.69c-.24 0-.46-.07-.64-.2l-.8-.57h-.01c.55-.45.94-1.09 1.06-1.83l.88.42c.4.19.66.59.66 1.03c0 .17-.04.32-.1.46m-1.7-5.25c.2-.13.42-.2.65-.2c.63 0 1.14.51 1.14 1.14c0 .44-.25.83-.66 1.03l-.87.42h-.01c-.12-.74-.51-1.38-1.07-1.83zM12 3c.62 0 1.12.49 1.14 1.1l-.11 1.09C12.71 5.07 12.36 5 12 5s-.7.07-1.02.19l-.12-1.09c.02-.61.52-1.1 1.14-1.1m7.98 14.15A8.9 8.9 0 0 0 21 13c-1.5 0-2.91.37-4.15 1.02l1.51 1.51M3 13a9 9 0 0 0 9 9a9 9 0 0 0-9-9m2.44 2.44c1.9.71 3.42 2.22 4.12 4.12a7.04 7.04 0 0 1-4.12-4.12"/><path fill="currentColor" d="M2.81 2.81L1.39 4.22l4.42 4.42c-.19.4-.3.84-.3 1.29a3.147 3.147 0 0 0 3.58 3.11A3.15 3.15 0 0 0 12 15c.05 0 .11-.01.16-.01l1.64 1.64A8.85 8.85 0 0 0 12 22c2.02 0 3.88-.67 5.38-1.8l2.4 2.4l1.41-1.41zm11.63 16.75c.2-.54.47-1.04.79-1.5l.71.71c-.46.32-.96.59-1.5.79"/></symbol><symbol id="hd-icon-ic-twotone-mail" viewBox="0 0 24 24"><path fill="currentColor" d="M20 6H4l8 4.99zM4 8v10h16V8l-8 5z" opacity=".3"/><path fill="currentColor" d="M20 4H4c-1.1 0-2 .9-2 2v12c0 1.1.9 2 2 2h16c1.1 0 2-.9 2-2V6c0-1.1-.9-2-2-2m0 2l-8 4.99L4 6zm0 12H4V8l8 5l8-5z"/></symbol><symbol id="hd-icon-ic-twotone-mail-lock" viewBox="0 0 24 24"><path fill="currentColor" d="M20 6H4l8 5z" opacity=".3"/><path fill="currentColor" d="M12 13L4 8v10h12v-3.03a5 5 0 0 1 4-4.9V8z" opacity=".3"/><path fill="currentColor" d="M4 18V8l8 5l8-5v2.08c.32-.07.66-.1 1-.1h1V6c0-1.1-.9-2-2-2H4c-1.1 0-1.99.9-1.99 2L2 18c0 1.1.9 2 2 2h12v-2zM20 6l-8 5l-8-5z"/><path fill="currentColor" d="M23 15v-1c0-1.1-.9-2-2-2s-2 .9-2 2v1c-.55 0-1 .45-1 1v3c0 .55.45 1 1 1h4c.55 0 1-.45 1-1v-3c0-.55-.45-1-1-1m-3 0v-1c0-.55.45-1 1-1s1 .45 1 1v1z"/></symbol><symbol id="hd-icon-ic-twotone-mail-outline" viewBox="0 0 24 24"><path fill="currentColor" d="M20 4H4c-1.1 0-1.99.9-1.99 2L2 18c0 1.1.9 2 2 2h16c1.1 0 2-.9 2-2V6c0-1.1-.9-2-2-2m0 14H4V8l8 5l8-5zm-8-7L4 6h16z"/></symbol><symbol id="hd-icon-ic-twotone-male" viewBox="0 0 24 24"><path fill="currentColor" d="M9.5 11c1.93 0 3.5 1.57 3.5 3.5S11.43 18 9.5 18S6 16.43 6 14.5S7.57 11 9.5 11m0-2C6.46 9 4 11.46 4 14.5S6.46 20 9.5 20s5.5-2.46 5.5-5.5c0-1.16-.36-2.23-.97-3.12L18 7.42V10h2V4h-6v2h2.58l-3.97 3.97C11.73 9.36 10.66 9 9.5 9"/></symbol><symbol id="hd-icon-ic-twotone-man" viewBox="0 0 24 24"><path fill="currentColor" d="M14 7h-4c-1.1 0-2 .9-2 2v6h2v7h4v-7h2V9c0-1.1-.9-2-2-2"/><circle cx="12" cy="4" r="2" fill="currentColor"/></symbol><symbol id="hd-icon-ic-twotone-man-2" viewBox="0 0 24 24"><path fill="currentColor" d="M14 7h-4c-1.1 0-2 .9-2 2v6h2.5v7h3v-7H16V9c0-1.1-.9-2-2-2"/><circle cx="12" cy="4" r="2" fill="currentColor"/></symbol><symbol id="hd-icon-ic-twotone-man-3" viewBox="0 0 24 24"><path fill="currentColor" d="M14 7h-4c-1.1 0-2 .9-2 2v6h2v7h4v-7h2V9c0-1.1-.9-2-2-2m-2-5.249L14.248 4L12 6.248L9.75 4z"/></symbol><symbol id="hd-icon-ic-twotone-man-4" viewBox="0 0 24 24"><path fill="currentColor" d="M13.75 7h-3.5C9.04 7 8.11 8.07 8.27 9.26L10 22h4l1.73-12.74C15.89 8.07 14.96 7 13.75 7"/><circle cx="12" cy="4" r="2" fill="currentColor"/></symbol><symbol id="hd-icon-ic-twotone-manage-accounts" viewBox="0 0 24 24"><circle cx="10" cy="8" r="2" fill="currentColor" opacity=".3"/><path fill="currentColor" d="M10 16c0-.34.03-.67.08-.99c-.03-.01-.05-.01-.08-.01c-1.97 0-3.9.53-5.59 1.54c-.25.14-.41.46-.41.81V18h6.29c-.19-.63-.29-1.3-.29-2" opacity=".3"/><path fill="currentColor" d="M4 18v-.65c0-.34.16-.66.41-.81C6.1 15.53 8.03 15 10 15c.03 0 .05 0 .08.01c.1-.7.3-1.37.59-1.98c-.22-.02-.44-.03-.67-.03c-2.42 0-4.68.67-6.61 1.82c-.88.52-1.39 1.5-1.39 2.53V20h9.26c-.42-.6-.75-1.28-.97-2zm6-6c2.21 0 4-1.79 4-4s-1.79-4-4-4s-4 1.79-4 4s1.79 4 4 4m0-6c1.1 0 2 .9 2 2s-.9 2-2 2s-2-.9-2-2s.9-2 2-2m10.83 6.63l-1.45.49q-.48-.405-1.08-.63L18 11h-2l-.3 1.49q-.6.225-1.08.63l-1.45-.49l-1 1.73l1.14 1c-.03.21-.06.41-.06.63s.03.42.06.63l-1.14 1l1 1.73l1.45-.49q.48.405 1.08.63L16 21h2l.3-1.49q.6-.225 1.08-.63l1.45.49l1-1.73l-1.14-1c.03-.21.06-.41.06-.63s-.03-.42-.06-.63l1.14-1zM17 18c-1.1 0-2-.9-2-2s.9-2 2-2s2 .9 2 2s-.9 2-2 2"/></symbol><symbol id="hd-icon-ic-twotone-manage-history" viewBox="0 0 24 24"><path fill="currentColor" d="m22.69 18.37l1.14-1l-1-1.73l-1.45.49q-.48-.405-1.08-.63L20 14h-2l-.3 1.49q-.6.225-1.08.63l-1.45-.49l-1 1.73l1.14 1c-.08.5-.08.76 0 1.26l-1.14 1l1 1.73l1.45-.49q.48.405 1.08.63L18 24h2l.3-1.49q.6-.225 1.08-.63l1.45.49l1-1.73l-1.14-1c.08-.51.08-.77 0-1.27M19 21c-1.1 0-2-.9-2-2s.9-2 2-2s2 .9 2 2s-.9 2-2 2M11 7v5.41l2.36 2.36l1.04-1.79l-1.4-1.39V7zm10 5a9 9 0 0 0-9-9C9.17 3 6.65 4.32 5 6.36V4H3v6h6V8H6.26A7.01 7.01 0 0 1 12 5c3.86 0 7 3.14 7 7zm-10.14 6.91c-2.99-.49-5.35-2.9-5.78-5.91H3.06c.5 4.5 4.31 8 8.94 8h.07z"/></symbol><symbol id="hd-icon-ic-twotone-manage-search" viewBox="0 0 24 24"><path fill="currentColor" d="M2 12h5v2H2zm16.17 1.75c.52-.79.83-1.73.83-2.75c0-2.76-2.24-5-5-5s-5 2.24-5 5s2.24 5 5 5c1.02 0 1.96-.31 2.76-.83L20.59 19L22 17.59zM14 14c-1.65 0-3-1.35-3-3s1.35-3 3-3s3 1.35 3 3s-1.35 3-3 3M2 7h5v2H2zm0 10h10v2H2z"/></symbol><symbol id="hd-icon-ic-twotone-map" viewBox="0 0 24 24"><path fill="currentColor" d="m5 18.31l3-1.16V5.45L5 6.46zm11 .24l3-1.01V5.69l-3 1.17z" opacity=".3"/><path fill="currentColor" d="m20.5 3l-.16.03L15 5.1L9 3L3.36 4.9c-.21.07-.36.25-.36.48V20.5c0 .28.22.5.5.5l.16-.03L9 18.9l6 2.1l5.64-1.9c.21-.07.36-.25.36-.48V3.5c0-.28-.22-.5-.5-.5M8 17.15l-3 1.16V6.46l3-1.01zm6 1.38l-4-1.4V5.47l4 1.4zm5-.99l-3 1.01V6.86l3-1.16z"/></symbol><symbol id="hd-icon-ic-twotone-maps-home-work" viewBox="0 0 24 24"><path fill="currentColor" d="M17 11h2v2h-2v2h2v2h-2v2h4V5h-9v1.4l5 3.57zm0-4h2v2h-2z" opacity=".3"/><path fill="currentColor" d="M10 3v1.97l.96.69L12 6.4V5h9v14h-4v2h6V3z"/><path fill="currentColor" d="M3 12v7h2v-5h6v5h2v-7L8 8.5z" opacity=".3"/><path fill="currentColor" d="M17 7h2v2h-2zm0 4h2v2h-2zm0 4h2v2h-2zM1 11v10h6v-5h2v5h6V11L8 6zm12 8h-2v-5H5v5H3v-7l5-3.5l5 3.5z"/></symbol><symbol id="hd-icon-ic-twotone-maps-ugc" viewBox="0 0 24 24"><path fill="currentColor" fill-opacity=".3" d="M12 4c4.41 0 8 3.59 8 8s-3.59 8-8 8c-1.18 0-2.34-.26-3.43-.78c-.27-.13-.56-.19-.86-.19c-.19 0-.38.03-.56.08l-3.2.94l.94-3.2c.14-.47.1-.98-.11-1.42A7.9 7.9 0 0 1 4 12c0-4.41 3.59-8 8-8"/><path fill="currentColor" d="M12 4c4.41 0 8 3.59 8 8s-3.59 8-8 8c-1.18 0-2.34-.26-3.43-.78c-.27-.13-.56-.19-.86-.19c-.19 0-.38.03-.56.08l-3.2.94l.94-3.2c.14-.47.1-.98-.11-1.42A7.9 7.9 0 0 1 4 12c0-4.41 3.59-8 8-8m0-2C6.48 2 2 6.48 2 12c0 1.54.36 2.98.97 4.29L1 23l6.71-1.97c1.31.61 2.75.97 4.29.97c5.52 0 10-4.48 10-10S17.52 2 12 2"/><path fill="currentColor" fill-rule="evenodd" d="M13 8h-2v3H8v2h3v3h2v-3h3v-2h-3z"/></symbol><symbol id="hd-icon-ic-twotone-margin" viewBox="0 0 24 24"><path fill="currentColor" d="M5 19h14V5H5zM15 7h2v2h-2zm0 4h2v2h-2zm-4-4h2v2h-2zm0 4h2v2h-2zM7 7h2v2H7zm0 4h2v2H7z" opacity=".3"/><path fill="currentColor" d="M7 7h2v2H7zm0 4h2v2H7z"/><path fill="currentColor" d="M3 3v18h18V3zm16 16H5V5h14z"/><path fill="currentColor" d="M11 7h2v2h-2zm4 4h2v2h-2zm-4 0h2v2h-2zm4-4h2v2h-2z"/></symbol><symbol id="hd-icon-ic-twotone-mark-as-unread" viewBox="0 0 24 24"><path fill="currentColor" d="M13.5 13.33L20 10H7z" opacity=".3"/><path fill="currentColor" d="M7 12v7h13v-7l-6.5 3.33z" opacity=".3"/><path fill="currentColor" d="M16.23 7h2.6c-.06-.47-.36-.94-.79-1.17L10.5 2L2.8 5.83c-.48.26-.8.81-.8 1.34V15c0 1.1.9 2 2 2V7.4L10.5 4z"/><path fill="currentColor" d="M20 8H7c-1.1 0-2 .9-2 2v9c0 1.1.9 2 2 2h13c1.1 0 2-.9 2-2v-9c0-1.1-.9-2-2-2m0 11H7v-7l6.5 3.33L20 12zm-6.5-5.67L7 10h13z"/></symbol><symbol id="hd-icon-ic-twotone-mark-chat-read" viewBox="0 0 24 24"><path fill="currentColor" d="M19 10c.34 0 .67.03 1 .08V4H4v12h8.08c.49-3.39 3.39-6 6.92-6" opacity=".3"/><path fill="currentColor" d="m17.34 20l-3.54-3.54l1.41-1.41l2.12 2.12l4.24-4.24L23 14.34zm-5.26-4H4V4h16v6.08c.71.1 1.38.31 2 .6V4c0-1.1-.9-2-2-2H4c-1.1 0-2 .9-2 2v18l4-4h6c0-.14.02-.27.03-.4Q12 17.3 12 17c0-.34.03-.67.08-1"/></symbol><symbol id="hd-icon-ic-twotone-mark-chat-unread" viewBox="0 0 24 24"><path fill="currentColor" d="M4 16h16V7.9A5 5 0 0 1 14.1 4H4z" opacity=".3"/><path fill="currentColor" d="M20 7.9c.74-.15 1.42-.48 2-.92V16c0 1.1-.9 2-2 2H6l-4 4V4c0-1.1.9-2 2-2h10.1c-.06.32-.1.66-.1 1s.04.68.1 1H4v12h16zM16 3c0 1.66 1.34 3 3 3s3-1.34 3-3s-1.34-3-3-3s-3 1.34-3 3"/></symbol><symbol id="hd-icon-ic-twotone-mark-email-read" viewBox="0 0 24 24"><path fill="currentColor" d="M20 8v4.08c-.33-.05-.66-.08-1-.08c-3.53 0-6.43 2.61-6.92 6H4V8l8 5zm0-2H4l8 5z" opacity=".3"/><path fill="currentColor" d="M12.08 18H4V8l8 5l8-5v4.08c.71.1 1.38.31 2 .6V6c0-1.1-.9-2-2-2H4c-1.1 0-1.99.9-1.99 2L2 18c0 1.1.9 2 2 2h8.08c-.05-.33-.08-.66-.08-1s.03-.67.08-1M20 6l-8 5l-8-5zm-2.66 16l-3.54-3.54l1.41-1.41l2.12 2.12l4.24-4.24L23 16.34z"/></symbol><symbol id="hd-icon-ic-twotone-mark-email-unread" viewBox="0 0 24 24"><path fill="currentColor" d="M4 6h10.1c.22 1.07.79 2 1.57 2.71L12 11zm0 2v10h16V9.9a4.84 4.84 0 0 1-2.7-.22L12 13z" opacity=".3"/><path fill="currentColor" d="M20 9.9c.74-.15 1.42-.48 2-.92V18c0 1.1-.9 2-2 2H4c-1.1 0-2-.9-2-2V6c0-1.1.9-2 2-2h10.1c-.06.32-.1.66-.1 1s.04.68.1 1H4l8 5l3.67-2.29c.47.43 1.02.76 1.63.98L12 13L4 8v10h16zM16 5c0 1.66 1.34 3 3 3s3-1.34 3-3s-1.34-3-3-3s-3 1.34-3 3"/></symbol><symbol id="hd-icon-ic-twotone-mark-unread-chat-alt" viewBox="0 0 24 24"><path fill="currentColor" d="M4 17.17L5.17 16H20V7.9c-.32.06-.66.1-1 .1s-.68-.04-1-.1V8H6V6h9.03c-.44-.58-.77-1.26-.92-2H4zM6 9h12v2H6zm0 3h8v2H6z" opacity=".3"/><circle cx="19" cy="3" r="3" fill="currentColor"/><path fill="currentColor" d="M20 16H5.17L4 17.17V4h10.1a5 5 0 0 1 0-2H4c-1.1 0-1.99.9-1.99 2L2 22l4-4h14c1.1 0 2-.9 2-2V6.97c-.58.44-1.26.77-2 .92z"/><path fill="currentColor" d="M6 12h8v2H6zm0-3h12v2H6zm0-1h12v-.1A5 5 0 0 1 15.03 6H6z"/></symbol><symbol id="hd-icon-ic-twotone-markunread" viewBox="0 0 24 24"><path fill="currentColor" d="M20 6H4l8 5zM4 8v10h16V8l-8 5z" opacity=".3"/><path fill="currentColor" d="M20 4H4c-1.1 0-2 .9-2 2v12c0 1.1.9 2 2 2h16c1.1 0 2-.9 2-2V6c0-1.1-.9-2-2-2m0 2l-8 5l-8-5zm0 12H4V8l8 5l8-5z"/></symbol><symbol id="hd-icon-ic-twotone-markunread-mailbox" viewBox="0 0 24 24"><path fill="currentColor" d="M10 12H6V8H4v12h16V8H10z" opacity=".3"/><path fill="currentColor" d="M20 6H10v2h10v12H4V8h2v4h2V4h6V0H6v6H4c-1.1 0-2 .9-2 2v12c0 1.1.9 2 2 2h16c1.1 0 2-.9 2-2V8c0-1.1-.9-2-2-2"/></symbol><symbol id="hd-icon-ic-twotone-masks" viewBox="0 0 24 24"><path fill="currentColor" d="M14.34 8.78C13.52 8.33 12.93 8 12 8s-1.52.33-2.34.77c-.71.39-1.54.85-2.66 1.08v1.65c0 2.76 2.24 5 5 5s5-2.24 5-5V9.85c-1.12-.23-1.95-.69-2.66-1.07m.66 2.47c-.75-.21-1.26-.51-1.71-.78c-.46-.27-.8-.47-1.29-.47s-.84.2-1.31.48c-.44.26-.96.56-1.69.76V10.2c.48-.17.84-.38 1.18-.58C10.72 9.3 11.23 9 12 9s1.27.3 1.8.62c.34.2.71.42 1.2.59z" opacity=".3"/><path fill="currentColor" d="M19.5 6c-1.31 0-2.37 1.01-2.48 2.3c-1.88-.5-2.84-1.8-5.02-1.8c-2.19 0-3.14 1.3-5.02 1.8C6.87 7.02 5.81 6 4.5 6A2.5 2.5 0 0 0 2 8.5V9c0 6 3.6 7.81 6.52 7.98C9.53 17.62 10.72 18 12 18s2.47-.38 3.48-1.02C18.4 16.81 22 15 22 9v-.5A2.5 2.5 0 0 0 19.5 6m-16 3v-.5c0-.55.45-1 1-1s1 .45 1 1v3c0 1.28.38 2.47 1.01 3.48C4.99 14.27 3.5 12.65 3.5 9M7 11.5V9.85c1.12-.23 1.95-.69 2.66-1.08C10.48 8.33 11.07 8 12 8s1.52.33 2.34.78c.71.39 1.54.84 2.66 1.08v1.65c0 2.76-2.24 5-5 5s-5-2.25-5-5.01M20.5 9c0 3.65-1.49 5.27-3.01 5.98c.64-1.01 1.01-2.2 1.01-3.48v-3c0-.55.45-1 1-1s1 .45 1 1zm-9.81 1.48c-.44.26-.96.56-1.69.76V10.2c.48-.17.84-.38 1.18-.58C10.72 9.3 11.23 9 12 9s1.27.3 1.8.62c.34.2.71.42 1.2.59v1.04c-.75-.21-1.26-.51-1.71-.78c-.46-.27-.8-.47-1.29-.47s-.84.2-1.31.48"/></symbol><symbol id="hd-icon-ic-twotone-maximize" viewBox="0 0 24 24"><path fill="currentColor" d="M3 3h18v2H3z"/></symbol><symbol id="hd-icon-ic-twotone-media-bluetooth-off" viewBox="0 0 24 24"><path fill="currentColor" d="M9 6.17V3h6v4h-4v1.17zM19.42 15L22 17.57l-.8.8l-6.78-6.78l.8-.8l2.75 2.75V9h.6L22 12.43zm-.25-1.45l1.13-1.13l-1.13-1.13zm-1.96 3.66l3.98 3.98l-1.41 1.41l-3.98-3.98l-.58.58l-.85-.85l.58-.58L11 13.83V17c0 2.21-1.78 4-3.99 4S3 19.21 3 17s1.79-4 4.01-4c.73 0 1.41.21 2 .55v-1.72L1.39 4.22L2.8 2.81l13.56 13.56z"/></symbol><symbol id="hd-icon-ic-twotone-media-bluetooth-on" viewBox="0 0 24 24"><path fill="currentColor" d="m9 3l.01 10.55c-.6-.34-1.28-.55-2-.55a4.001 4.001 0 1 0 0 8C9.23 21 11 19.21 11 17V7h4V3zm12 9.43L17.57 9h-.6v4.55l-2.75-2.75l-.85.85L16.73 15l-3.35 3.35l.85.85l2.75-2.75V21h.6L21 17.57L18.42 15zm-2.83-1.13l1.13 1.13l-1.13 1.13zm1.13 6.27l-1.13 1.13v-2.26z"/></symbol><symbol id="hd-icon-ic-twotone-mediation" viewBox="0 0 24 24"><path fill="currentColor" d="m18 16l4-4l-4-4v3h-5.06A8.97 8.97 0 0 0 8 3.95A3.005 3.005 0 0 0 5 1C3.34 1 2 2.34 2 4s1.34 3 3 3c.95 0 1.78-.45 2.33-1.14C9.23 6.9 10.6 8.77 10.92 11h-3.1C7.4 9.84 6.3 9 5 9c-1.66 0-3 1.34-3 3s1.34 3 3 3c1.3 0 2.4-.84 2.82-2h3.1c-.32 2.23-1.69 4.1-3.58 5.14C6.78 17.45 5.95 17 5 17c-1.66 0-3 1.34-3 3s1.34 3 3 3a2.99 2.99 0 0 0 2.99-2.95A8.97 8.97 0 0 0 12.93 13H18z"/></symbol><symbol id="hd-icon-ic-twotone-medical-information" viewBox="0 0 24 24"><path fill="currentColor" d="M15 9c0 1.1-.9 2-2 2h-2c-1.1 0-2-.9-2-2H4v11h16V9zm-4 7H9v2H7v-2H5v-2h2v-2h2v2h2zm6 1.5h-4V16h4zm2-3h-6V13h6z" opacity=".3"/><path fill="currentColor" d="M20 7h-5V4c0-1.1-.9-2-2-2h-2c-1.1 0-2 .9-2 2v3H4c-1.1 0-2 .9-2 2v11c0 1.1.9 2 2 2h16c1.1 0 2-.9 2-2V9c0-1.1-.9-2-2-2m-9-3h2v5h-2zm9 16H4V9h5c0 1.1.9 2 2 2h2c1.1 0 2-.9 2-2h5zm-9-4H9v2H7v-2H5v-2h2v-2h2v2h2zm2-1.5V13h6v1.5zm0 3V16h4v1.5z"/></symbol><symbol id="hd-icon-ic-twotone-medical-services" viewBox="0 0 24 24"><path fill="currentColor" d="M4 20h16V8H4zm4-7h3v-3h2v3h3v2h-3v3h-2v-3H8z" opacity=".3"/><path fill="currentColor" d="M20 6h-4V4c0-1.1-.9-2-2-2h-4c-1.1 0-2 .9-2 2v2H4c-1.1 0-2 .9-2 2v12c0 1.1.9 2 2 2h16c1.1 0 2-.9 2-2V8c0-1.1-.9-2-2-2M10 4h4v2h-4zm10 16H4V8h16z"/><path fill="currentColor" d="M11 18h2v-3h3v-2h-3v-3h-2v3H8v2h3z"/></symbol><symbol id="hd-icon-ic-twotone-medication" viewBox="0 0 24 24"><path fill="currentColor" d="M7 19h10V8H7zm1-7h2.5V9.5h3V12H16v3h-2.5v2.5h-3V15H8z" opacity=".3"/><path fill="currentColor" d="M6 3h12v2H6zm11 3H7c-1.1 0-2 .9-2 2v11c0 1.1.9 2 2 2h10c1.1 0 2-.9 2-2V8c0-1.1-.9-2-2-2m0 13H7V8h10z"/><path fill="currentColor" d="M10.5 17.5h3V15H16v-3h-2.5V9.5h-3V12H8v3h2.5z"/></symbol><symbol id="hd-icon-ic-twotone-medication-liquid" viewBox="0 0 24 24"><path fill="currentColor" d="M3 3h12v2H3zm11 3H4c-1.1 0-2 .9-2 2v11c0 1.1.9 2 2 2h10c1.1 0 2-.9 2-2V8c0-1.1-.9-2-2-2m0 13H4V8h10z"/><path fill="currentColor" d="M7.5 17.5h3V15H13v-3h-2.5V9.5h-3V12H5v3h2.5z"/><path fill="currentColor" d="M20 12c.552 0 1-.895 1-2s-.448-2-1-2s-1 .895-1 2s.448 2 1 2" opacity=".3"/><path fill="currentColor" d="M20 6c-1.68 0-3 1.76-3 4c0 1.77.83 3.22 2 3.76V20c0 .55.45 1 1 1s1-.45 1-1v-6.24c1.17-.54 2-1.99 2-3.76c0-2.24-1.32-4-3-4m0 6c-.41 0-1-.78-1-2s.59-2 1-2s1 .78 1 2s-.59 2-1 2"/><path fill="currentColor" d="M4 19h10V8H4zm1-7h2.5V9.5h3V12H13v3h-2.5v2.5h-3V15H5z" opacity=".3"/></symbol><symbol id="hd-icon-ic-twotone-meeting-room" viewBox="0 0 24 24"><path fill="currentColor" d="M7 19h6V5H7zm3-8h2v2h-2z" opacity=".3"/><path fill="currentColor" d="M19 19V4h-4V3H5v16H3v2h12V6h2v15h4v-2zm-6 0H7V5h6zm-3-8h2v2h-2z"/></symbol><symbol id="hd-icon-ic-twotone-memory" viewBox="0 0 24 24"><path fill="currentColor" d="M7 17h10V7H7zm2-8h6v6H9z" opacity=".3"/><path fill="currentColor" d="M21 11V9h-2V7c0-1.1-.9-2-2-2h-2V3h-2v2h-2V3H9v2H7c-1.1 0-2 .9-2 2v2H3v2h2v2H3v2h2v2c0 1.1.9 2 2 2h2v2h2v-2h2v2h2v-2h2c1.1 0 2-.9 2-2v-2h2v-2h-2v-2zm-4 6H7V7h10zm-2-8H9v6h6zm-2 4h-2v-2h2z"/></symbol><symbol id="hd-icon-ic-twotone-menu" viewBox="0 0 24 24"><path fill="currentColor" d="M3 18h18v-2H3zm0-5h18v-2H3zm0-7v2h18V6z"/></symbol><symbol id="hd-icon-ic-twotone-menu-book" viewBox="0 0 24 24"><path fill="currentColor" d="M21 5c-1.11-.35-2.33-.5-3.5-.5c-1.95 0-4.05.4-5.5 1.5c-1.45-1.1-3.55-1.5-5.5-1.5S2.45 4.9 1 6v14.65c0 .25.25.5.5.5c.1 0 .15-.05.25-.05C3.1 20.45 5.05 20 6.5 20c1.95 0 4.05.4 5.5 1.5c1.35-.85 3.8-1.5 5.5-1.5c1.65 0 3.35.3 4.75 1.05c.1.05.15.05.25.05c.25 0 .5-.25.5-.5V6c-.6-.45-1.25-.75-2-1M3 18.5V7c1.1-.35 2.3-.5 3.5-.5c1.34 0 3.13.41 4.5.99v11.5C9.63 18.41 7.84 18 6.5 18c-1.2 0-2.4.15-3.5.5m18 0c-1.1-.35-2.3-.5-3.5-.5c-1.34 0-3.13.41-4.5.99V7.49c1.37-.59 3.16-.99 4.5-.99c1.2 0 2.4.15 3.5.5z"/><path fill="currentColor" d="M11 7.49c-1.37-.58-3.16-.99-4.5-.99c-1.2 0-2.4.15-3.5.5v11.5c1.1-.35 2.3-.5 3.5-.5c1.34 0 3.13.41 4.5.99z" opacity=".3"/><path fill="currentColor" d="M17.5 10.5c.88 0 1.73.09 2.5.26V9.24c-.79-.15-1.64-.24-2.5-.24c-1.28 0-2.46.16-3.5.47v1.57c.99-.35 2.18-.54 3.5-.54m0 2.66c.88 0 1.73.09 2.5.26V11.9c-.79-.15-1.64-.24-2.5-.24c-1.28 0-2.46.16-3.5.47v1.57c.99-.34 2.18-.54 3.5-.54m0 2.67c.88 0 1.73.09 2.5.26v-1.52c-.79-.15-1.64-.24-2.5-.24c-1.28 0-2.46.16-3.5.47v1.57c.99-.35 2.18-.54 3.5-.54"/></symbol><symbol id="hd-icon-ic-twotone-menu-open" viewBox="0 0 24 24"><path fill="currentColor" d="M3 18h13v-2H3zm0-5h10v-2H3zm0-7v2h13V6zm18 9.59L17.42 12L21 8.41L19.59 7l-5 5l5 5z"/></symbol><symbol id="hd-icon-ic-twotone-merge" viewBox="0 0 24 24"><path fill="currentColor" d="M6.41 21L5 19.59l4.83-4.83c.75-.75 1.17-1.77 1.17-2.83v-5.1L9.41 8.41L8 7l4-4l4 4l-1.41 1.41L13 6.83v5.1c0 1.06.42 2.08 1.17 2.83L19 19.59L17.59 21L12 15.41z"/></symbol><symbol id="hd-icon-ic-twotone-merge-type" viewBox="0 0 24 24"><path fill="currentColor" d="M5.59 19L7 20.41l6-6V8h3.5L12 3.5L7.5 8H11v5.59zm11.407 1.41l-3.408-3.407l1.4-1.407l3.41 3.408z"/></symbol><symbol id="hd-icon-ic-twotone-message" viewBox="0 0 24 24"><path fill="currentColor" d="M20 4H4v13.17L5.17 16H20zm-2 10H6v-2h12zm0-3H6V9h12zm0-3H6V6h12z" opacity=".3"/><path fill="currentColor" d="M20 18c1.1 0 2-.9 2-2V4c0-1.1-.9-2-2-2H4c-1.1 0-1.99.9-1.99 2L2 22l4-4zm-16-.83V4h16v12H5.17zM6 12h12v2H6zm0-3h12v2H6zm0-3h12v2H6z"/></symbol><symbol id="hd-icon-ic-twotone-mic" viewBox="0 0 24 24"><path fill="currentColor" d="M12 12c.55 0 1-.45 1-1V5c0-.55-.45-1-1-1s-1 .45-1 1v6c0 .55.45 1 1 1" opacity=".3"/><path fill="currentColor" d="M12 14c1.66 0 3-1.34 3-3V5c0-1.66-1.34-3-3-3S9 3.34 9 5v6c0 1.66 1.34 3 3 3m-1-9c0-.55.45-1 1-1s1 .45 1 1v6c0 .55-.45 1-1 1s-1-.45-1-1z"/><path fill="currentColor" d="M17 11c0 2.76-2.24 5-5 5s-5-2.24-5-5H5c0 3.53 2.61 6.43 6 6.92V21h2v-3.08c3.39-.49 6-3.39 6-6.92z"/></symbol><symbol id="hd-icon-ic-twotone-mic-external-off" viewBox="0 0 24 24"><path fill="currentColor" d="m6.21 10l.6 6h.38l.54-5.44l-.56-.56z" opacity=".3"/><path fill="currentColor" d="M10 5c0-1.66-1.34-3-3-3c-.62 0-1.19.19-1.67.5l4.15 4.15C9.8 6.18 10 5.61 10 5m4 1c0-1.1.9-2 2-2s2 .9 2 2v9.17l2 2V6c0-2.21-1.79-4-4-4s-4 1.79-4 4v3.17l2 2zM2.1 2.1L.69 3.51L5.17 8H4l1 10h1c0 2.21 1.79 4 4 4s4-1.79 4-4v-1.17l6.49 6.49l1.41-1.41zM7.19 16h-.38l-.6-6h.96l.56.56zM12 18c0 1.1-.9 2-2 2s-2-.9-2-2h1l.56-5.61L12 14.83z"/></symbol><symbol id="hd-icon-ic-twotone-mic-external-on" viewBox="0 0 24 24"><path fill="currentColor" d="M6.81 16h.38l.6-6H6.21z" opacity=".3"/><path fill="currentColor" d="M9.22 7c.48-.53.78-1.23.78-2c0-1.66-1.34-3-3-3S4 3.34 4 5c0 .77.3 1.47.78 2z"/><path fill="currentColor" d="M16 2c-2.21 0-4 1.79-4 4v12c0 1.1-.9 2-2 2s-2-.9-2-2h1l1-10H4l1 10h1c0 2.21 1.79 4 4 4s4-1.79 4-4V6c0-1.1.9-2 2-2s2 .9 2 2v16h2V6c0-2.21-1.79-4-4-4M7.19 16h-.38l-.6-6h1.58z"/></symbol><symbol id="hd-icon-ic-twotone-mic-none" viewBox="0 0 24 24"><path fill="currentColor" d="M12 12c.55 0 1-.45 1-1V5c0-.55-.45-1-1-1s-1 .45-1 1v6c0 .55.45 1 1 1" opacity=".3"/><path fill="currentColor" d="M12 14c1.66 0 3-1.34 3-3V5c0-1.66-1.34-3-3-3S9 3.34 9 5v6c0 1.66 1.34 3 3 3m-1-9c0-.55.45-1 1-1s1 .45 1 1v6c0 .55-.45 1-1 1s-1-.45-1-1zm6 6c0 2.76-2.24 5-5 5s-5-2.24-5-5H5c0 3.53 2.61 6.43 6 6.92V21h2v-3.08c3.39-.49 6-3.39 6-6.92z"/></symbol><symbol id="hd-icon-ic-twotone-mic-off" viewBox="0 0 24 24"><path fill="currentColor" d="M12 3.7c-.66 0-1.2.54-1.2 1.2v1.51l2.39 2.39l.01-3.9c0-.66-.54-1.2-1.2-1.2" opacity=".3"/><path fill="currentColor" d="M19 11h-1.7c0 .58-.1 1.13-.27 1.64l1.27 1.27c.44-.88.7-1.87.7-2.91M4.41 2.86L3 4.27l6 6V11c0 1.66 1.34 3 3 3c.23 0 .44-.03.65-.08l1.66 1.66c-.71.33-1.5.52-2.31.52c-2.76 0-5.3-2.1-5.3-5.1H5c0 3.41 2.72 6.23 6 6.72V21h2v-3.28a7.1 7.1 0 0 0 2.55-.9l4.2 4.2l1.41-1.41zM10.8 4.9c0-.66.54-1.2 1.2-1.2s1.2.54 1.2 1.2l-.01 3.91L15 10.6V5c0-1.66-1.34-3-3-3c-1.54 0-2.79 1.16-2.96 2.65l1.76 1.76z"/></symbol><symbol id="hd-icon-ic-twotone-microwave" viewBox="0 0 24 24"><path fill="currentColor" d="M4 18h10V6H4zM7.75 8c.8 0 1.39.39 1.81.67c.31.21.51.33.69.33c.37 0 .8-.41.95-.61l1.42 1.42c-.36.4-1.22 1.19-2.37 1.19c-.79 0-1.37-.38-1.79-.66c-.33-.22-.52-.34-.71-.34c-.37 0-.8.41-.95.61L5.37 9.19C5.73 8.79 6.59 8 7.75 8m0 5c.8 0 1.39.39 1.81.67c.31.21.51.33.69.33c.37 0 .8-.41.95-.61l1.42 1.42c-.36.4-1.22 1.19-2.37 1.19c-.79 0-1.37-.38-1.79-.66c-.33-.22-.52-.34-.71-.34c-.37 0-.8.41-.95.61l-1.42-1.42c.35-.4 1.21-1.19 2.37-1.19M16 6v12h4V6zm2 11c-.55 0-1-.45-1-1s.45-1 1-1s1 .45 1 1s-.45 1-1 1m0-4c-.55 0-1-.45-1-1s.45-1 1-1s1 .45 1 1s-.45 1-1 1m1-4h-2V7h2z" opacity=".3"/><path fill="currentColor" d="M20 4H4c-1.1 0-2 .9-2 2v12c0 1.1.9 2 2 2h16c1.1 0 2-.9 2-2V6c0-1.1-.9-2-2-2M4 6h10v12H4zm16 12h-4V6h4zm-1-9h-2V7h2zm-1 4c-.55 0-1-.45-1-1s.45-1 1-1s1 .45 1 1s-.45 1-1 1m0 4c-.55 0-1-.45-1-1s.45-1 1-1s1 .45 1 1s-.45 1-1 1m-7.75-1c-.79 0-1.37-.38-1.79-.66c-.33-.22-.52-.34-.71-.34c-.37 0-.8.41-.95.61l-1.42-1.42c.35-.4 1.21-1.19 2.37-1.19c.8 0 1.39.39 1.81.67c.31.21.51.33.69.33c.37 0 .8-.41.95-.61l1.42 1.42c-.36.4-1.21 1.19-2.37 1.19m0-5c-.79 0-1.37-.38-1.79-.66c-.33-.22-.52-.34-.71-.34c-.37 0-.8.41-.95.61L5.37 9.19C5.73 8.79 6.59 8 7.75 8c.8 0 1.39.39 1.81.67c.31.21.51.33.69.33c.37 0 .8-.41.95-.61l1.42 1.42c-.36.4-1.21 1.19-2.37 1.19"/></symbol><symbol id="hd-icon-ic-twotone-military-tech" viewBox="0 0 24 24"><path fill="currentColor" d="m13 11.07l2-1.2V4h-2zM9 4v5.87l2 1.2V4z" opacity=".3"/><path fill="currentColor" d="M17 10.43V2H7v8.43c0 .35.18.68.49.86l4.18 2.51l-.99 2.34l-3.41.29l2.59 2.24L9.07 22L12 20.23L14.93 22l-.78-3.33l2.59-2.24l-3.41-.29l-.99-2.34l4.18-2.51c.3-.18.48-.5.48-.86m-6 .64l-2-1.2V4h2zm4-1.2l-2 1.2V4h2z"/></symbol><symbol id="hd-icon-ic-twotone-minimize" viewBox="0 0 24 24"><path fill="currentColor" d="M6 19h12v2H6z"/></symbol><symbol id="hd-icon-ic-twotone-minor-crash" viewBox="0 0 24 24"><path fill="currentColor" d="M5 15v5h14v-5zm2.5 4c-.83 0-1.5-.67-1.5-1.5S6.67 16 7.5 16s1.5.67 1.5 1.5S8.33 19 7.5 19m9 0c-.83 0-1.5-.67-1.5-1.5s.67-1.5 1.5-1.5s1.5.67 1.5 1.5s-.67 1.5-1.5 1.5" opacity=".3"/><path fill="currentColor" d="M9.41 5L8 6.41l-3-3L6.41 2zM19 3.41L17.59 2l-3 3L16 6.41zM13 0h-2v5h2zm8 15v8c0 .55-.45 1-1 1h-1c-.55 0-1-.45-1-1v-1H6v1c0 .55-.45 1-1 1H4c-.55 0-1-.45-1-1v-8l2.08-5.99C5.29 8.42 5.84 8 6.5 8h11c.66 0 1.22.42 1.42 1.01zM5.81 13h12.38l-1.04-3H6.85zM19 15H5v5h14zM7.5 19c.83 0 1.5-.67 1.5-1.5S8.33 16 7.5 16S6 16.67 6 17.5S6.67 19 7.5 19m9 0c.83 0 1.5-.67 1.5-1.5s-.67-1.5-1.5-1.5s-1.5.67-1.5 1.5s.67 1.5 1.5 1.5"/></symbol><symbol id="hd-icon-ic-twotone-minus" viewBox="0 0 24 24"><path fill="currentColor" d="M19 12.998H5v-2h14z"/></symbol><symbol id="hd-icon-ic-twotone-miscellaneous-services" viewBox="0 0 24 24"><path fill="currentColor" d="m14.17 13.71l1.4-2.42c.09-.15.05-.34-.08-.45l-1.48-1.16c.03-.22.05-.45.05-.68s-.02-.46-.05-.69l1.48-1.16c.13-.11.17-.3.08-.45l-1.4-2.42c-.09-.15-.27-.21-.43-.15l-1.74.7c-.36-.28-.75-.51-1.18-.69l-.26-1.85a.364.364 0 0 0-.35-.29h-2.8c-.17 0-.32.13-.35.3L6.8 4.15c-.42.18-.82.41-1.18.69l-1.74-.7c-.16-.06-.34 0-.43.15l-1.4 2.42c-.09.15-.05.34.08.45l1.48 1.16c-.03.22-.05.45-.05.68s.02.46.05.69l-1.48 1.16c-.13.11-.17.3-.08.45l1.4 2.42c.09.15.27.21.43.15l1.74-.7c.36.28.75.51 1.18.69l.26 1.85c.03.16.18.29.35.29h2.8c.17 0 .32-.13.35-.3l.26-1.85c.42-.18.82-.41 1.18-.69l1.74.7c.16.06.34 0 .43-.15M8.81 11c-1.1 0-2-.9-2-2s.9-2 2-2s2 .9 2 2s-.9 2-2 2m13.11 7.67l-.96-.74c.02-.14.04-.29.04-.44s-.01-.3-.04-.44l.95-.74c.08-.07.11-.19.05-.29l-.9-1.55c-.05-.1-.17-.13-.28-.1l-1.11.45c-.23-.18-.48-.33-.76-.44l-.17-1.18a.216.216 0 0 0-.21-.2h-1.79c-.11 0-.21.08-.22.19l-.17 1.18c-.27.12-.53.26-.76.44l-1.11-.45a.23.23 0 0 0-.28.1l-.9 1.55c-.05.1-.04.22.05.29l.95.74a3.2 3.2 0 0 0 0 .88l-.95.74c-.08.07-.11.19-.05.29l.9 1.55c.05.1.17.13.28.1l1.11-.45c.23.18.48.33.76.44l.17 1.18c.02.11.11.19.22.19h1.79c.11 0 .21-.08.22-.19l.17-1.18c.27-.12.53-.26.75-.44l1.12.45c.1.04.22 0 .28-.1l.9-1.55c.06-.09.03-.21-.05-.28m-4.29.16a1.35 1.35 0 1 1 .001-2.701a1.35 1.35 0 0 1-.001 2.701"/></symbol><symbol id="hd-icon-ic-twotone-missed-video-call" viewBox="0 0 24 24"><path fill="currentColor" d="M15 13.5V8H5v8h10zM11 15l-3.89-3.89v2.55H6V9.22h4.44v1.11H7.89l3.11 3.1l2.99-3.01l.78.79z" opacity=".3"/><path fill="currentColor" d="M3 17c0 .55.45 1 1 1h12c.55 0 1-.45 1-1v-3.5l4 4v-11l-4 4V7c0-.55-.45-1-1-1H4c-.55 0-1 .45-1 1zm2-9h10v8H5zm6 5.43l-3.11-3.1h2.55V9.22H6v4.44h1.11v-2.55L11 15l3.77-3.79l-.78-.79z"/></symbol><symbol id="hd-icon-ic-twotone-mms" viewBox="0 0 24 24"><path fill="currentColor" d="M4 17.17L5.17 16H20V4H4zM8.5 9.5l2.5 3.01L14.5 8l4.5 6H5z" opacity=".3"/><path fill="currentColor" d="M20 2H4c-1.1 0-2 .9-2 2v18l4-4h14c1.1 0 2-.9 2-2V4c0-1.1-.9-2-2-2m0 14H5.17L4 17.17V4h16zm-5.5-8L11 12.51L8.5 9.5L5 14h14z"/></symbol><symbol id="hd-icon-ic-twotone-mobile-friendly" viewBox="0 0 24 24"><path fill="currentColor" d="M19 1H9c-1.1 0-2 .9-2 2v3h2V4h10v16H9v-2H7v3c0 1.1.9 2 2 2h10c1.1 0 2-.9 2-2V3c0-1.1-.9-2-2-2M7.01 13.47l-2.55-2.55l-1.27 1.27L7 16l7.19-7.19l-1.27-1.27z"/></symbol><symbol id="hd-icon-ic-twotone-mobile-off" viewBox="0 0 24 24"><path fill="currentColor" d="M17 5v8.61l2 2V3c0-1.1-.9-2-2-2H7c-.71 0-1.33.37-1.68.93L8.39 5zM1.49 3.76L5 7.27V21c0 1.1.9 2 2 2h10c1.02 0 1.85-.77 1.98-1.75l1.72 1.72l1.41-1.41L2.9 2.35zM7 9.27L16.73 19H7z"/></symbol><symbol id="hd-icon-ic-twotone-mobile-screen-share" viewBox="0 0 24 24"><path fill="currentColor" d="M7 19h10V5H7zm5.8-8.28v-1.7L16 12l-3.2 2.99v-1.75c-2.22 0-3.69.68-4.8 2.18c.45-2.14 1.69-4.27 4.8-4.7" opacity=".3"/><path fill="currentColor" d="M17 1H7c-1.1 0-1.99.85-1.99 1.95v18C5.01 22.05 5.9 23 7 23h10c1.1 0 2-.95 2-2.05V3c0-1.1-.9-2-2-2m0 18H7V5h10zm-4.2-5.76v1.75L16 12l-3.2-2.98v1.7c-3.11.43-4.35 2.56-4.8 4.7c1.11-1.5 2.58-2.18 4.8-2.18"/></symbol><symbol id="hd-icon-ic-twotone-mobiledata-off" viewBox="0 0 24 24"><path fill="currentColor" d="M16 7h3l-4-4l-4 4h3v4.17l2 2zM2.81 2.81L1.39 4.22L8 10.83v6.18l-3 .01L9 21l4-4l-3 .01v-4.18l9.78 9.78l1.41-1.42z"/></symbol><symbol id="hd-icon-ic-twotone-mode" viewBox="0 0 24 24"><path fill="currentColor" d="M14.06 9.02L5 18.08V19h.92l9.06-9.06z" opacity=".3"/><path fill="currentColor" d="M18.37 3.29c-.2-.2-.45-.29-.71-.29s-.51.1-.7.29l-1.83 1.83l3.75 3.75l1.83-1.83a.996.996 0 0 0 0-1.41zm-.56 6.65l-3.75-3.75L3 17.25V21h3.75zM5 19v-.92l9.06-9.06l.92.92L5.92 19z"/></symbol><symbol id="hd-icon-ic-twotone-mode-comment" viewBox="0 0 24 24"><path fill="currentColor" d="M20 2H4c-1.1 0-2 .9-2 2v12c0 1.1.9 2 2 2h14l4 4V4c0-1.1-.9-2-2-2m0 15.17L18.83 16H4V4h16z"/><path fill="currentColor" d="M4 4v12h14.83L20 17.17V4z" opacity=".3"/></symbol><symbol id="hd-icon-ic-twotone-mode-edit" viewBox="0 0 24 24"><path fill="currentColor" d="M5 18.08V19h.92l9.06-9.06l-.92-.92z" opacity=".3"/><path fill="currentColor" d="M3 17.25V21h3.75L17.81 9.94l-3.75-3.75zM5.92 19H5v-.92l9.06-9.06l.92.92zM20.71 5.63l-2.34-2.34a.996.996 0 0 0-1.41 0l-1.83 1.83l3.75 3.75l1.83-1.83a.996.996 0 0 0 0-1.41"/></symbol><symbol id="hd-icon-ic-twotone-mode-edit-outline" viewBox="0 0 24 24"><path fill="currentColor" d="M5 18.08V19h.92l9.06-9.06l-.92-.92z" opacity=".3"/><path fill="currentColor" d="M3 17.25V21h3.75L17.81 9.94l-3.75-3.75zM5.92 19H5v-.92l9.06-9.06l.92.92zM20.71 5.63l-2.34-2.34a.996.996 0 0 0-1.41 0l-1.83 1.83l3.75 3.75l1.83-1.83a.996.996 0 0 0 0-1.41"/></symbol><symbol id="hd-icon-ic-twotone-mode-fan-off" viewBox="0 0 24 24"><path fill="currentColor" d="M4.5 10c-.08 0-.5.03-.5.6c0 2 .82 3.4 2 3.4c.51 0 .89-.12 2.69-.86c-.07-.2-.12-.41-.15-.62c-1.48-.33-2.49-.89-3.39-2.16c-.22-.31-.38-.36-.65-.36m5.5 9.5c0 .08.03.5.6.5c2 0 3.4-.82 3.4-2c0-.38-.07-.69-.42-1.59l-.97-.97c-.03.01-.06.02-.09.02c-.33 1.48-.89 2.49-2.16 3.39c-.31.22-.36.38-.36.65m3.65-14.35c.3-.22.35-.38.35-.65c0-.08-.03-.5-.6-.5c-2 0-3.4.82-3.4 2c0 .38.07.69.42 1.59l1.05 1.05l.02-.1c.33-1.48.88-2.5 2.16-3.39m5.2 8.5c.21.3.38.35.65.35c.08 0 .5-.03.5-.6c0-2-.82-3.4-2-3.4c-.51 0-.89.12-2.69.86c.07.2.12.41.15.62c1.48.34 2.5.89 3.39 2.17" opacity=".3"/><path fill="currentColor" d="M10 6c0-1.18 1.4-2 3.4-2c.57 0 .6.42.6.5c0 .27-.05.43-.35.65c-1.27.9-1.83 1.91-2.16 3.39l-.02.1l7.25 7.25c.24.06.5.11.78.11c1.22 0 2.5-.95 2.5-2.6C22 9.91 20.11 8 18 8c-1.06 0-1.64.29-3.91 1.19c-.19-.14-.4-.27-.62-.37c.25-1.03.61-1.53 1.33-2.04c.81-.57 1.2-1.34 1.2-2.28c0-1.22-.95-2.5-2.6-2.5c-3.08 0-4.92 1.47-5.32 3.26l2.33 2.33C10.07 6.69 10 6.38 10 6m8 4c1.18 0 2 1.4 2 3.4c0 .57-.42.6-.5.6c-.27 0-.43-.05-.65-.35c-.9-1.27-1.91-1.83-3.39-2.16a3 3 0 0 0-.15-.62c1.8-.75 2.18-.87 2.69-.87M1.39 4.22l3.89 3.89C5.04 8.05 4.78 8 4.5 8C3.28 8 2 8.95 2 10.6C2 14.09 3.89 16 6 16c1.06 0 1.64-.29 3.91-1.19c.19.14.4.27.62.37c-.25 1.03-.61 1.53-1.33 2.04c-.81.57-1.2 1.34-1.2 2.28c0 1.22.95 2.5 2.6 2.5c3.08 0 4.92-1.47 5.32-3.26l3.86 3.86l1.41-1.41L2.81 2.81zm11.13 11.24c.03 0 .06-.02.09-.02l.97.97c.35.9.42 1.21.42 1.59c0 1.18-1.4 2-3.4 2c-.57 0-.6-.42-.6-.5c0-.27.05-.43.35-.65c1.28-.89 1.83-1.91 2.17-3.39m-3.98-2.94c.03.22.08.42.15.62c-1.8.74-2.18.86-2.69.86c-1.18 0-2-1.4-2-3.4c0-.57.42-.6.5-.6c.27 0 .43.05.65.35c.89 1.28 1.91 1.83 3.39 2.17"/></symbol><symbol id="hd-icon-ic-twotone-mode-night" viewBox="0 0 24 24"><path fill="currentColor" d="M9.5 4c-.34 0-.68.02-1.01.07C10.4 6.23 11.5 9.05 11.5 12s-1.1 5.77-3.01 7.93c.33.05.67.07 1.01.07c4.41 0 8-3.59 8-8s-3.59-8-8-8" opacity=".3"/><path fill="currentColor" d="M9.5 2c-1.82 0-3.53.5-5 1.35c2.99 1.73 5 4.95 5 8.65s-2.01 6.92-5 8.65c1.47.85 3.18 1.35 5 1.35c5.52 0 10-4.48 10-10S15.02 2 9.5 2m0 18c-.34 0-.68-.02-1.01-.07c1.91-2.16 3.01-4.98 3.01-7.93s-1.1-5.77-3.01-7.93C8.82 4.02 9.16 4 9.5 4c4.41 0 8 3.59 8 8s-3.59 8-8 8"/></symbol><symbol id="hd-icon-ic-twotone-mode-of-travel" viewBox="0 0 24 24"><path fill="currentColor" d="M15.31 18.9c-.96 1-2.06 2.03-3.31 3.1c-5.33-4.55-8-8.48-8-11.8C4 5.22 7.8 2 12 2c4 0 7.64 2.92 7.97 7.5h3.53L19 14l-4.5-4.5h3.47C17.65 6.24 15.13 4 12 4c-3.35 0-6 2.57-6 6.2c0 2.34 1.95 5.44 6 9.14q.96-.885 1.77-1.71a2.5 2.5 0 0 1-.27-1.12a2.5 2.5 0 0 1 5 0a2.492 2.492 0 0 1-3.19 2.39"/></symbol><symbol id="hd-icon-ic-twotone-mode-standby" viewBox="0 0 24 24"><path fill="currentColor" d="M12 2C6.49 2 2 6.49 2 12s4.49 10 10 10s10-4.49 10-10S17.51 2 12 2m0 18c-4.41 0-8-3.59-8-8s3.59-8 8-8s8 3.59 8 8s-3.59 8-8 8m3-8c0 1.66-1.34 3-3 3s-3-1.34-3-3s1.34-3 3-3s3 1.34 3 3"/></symbol><symbol id="hd-icon-ic-twotone-model-training" viewBox="0 0 24 24"><path fill="currentColor" d="M15.5 13.5c0 2-2.5 3.5-2.5 5h-2c0-1.5-2.5-3-2.5-5c0-1.93 1.57-3.5 3.5-3.5s3.5 1.57 3.5 3.5m-2.5 6h-2V21h2zm6-6.5c0 1.68-.59 3.21-1.58 4.42l1.42 1.42a8.98 8.98 0 0 0-1-12.68l-1.42 1.42A7 7 0 0 1 19 13m-3-8l-4-4v3a9 9 0 0 0-9 9c0 2.23.82 4.27 2.16 5.84l1.42-1.42A6.94 6.94 0 0 1 5 13c0-3.86 3.14-7 7-7v3z"/></symbol><symbol id="hd-icon-ic-twotone-monetization-on" viewBox="0 0 24 24"><path fill="currentColor" d="M12 4c-4.41 0-8 3.59-8 8s3.59 8 8 8s8-3.59 8-8s-3.59-8-8-8m1.23 13.33V19H10.9v-1.69c-1.5-.31-2.77-1.28-2.86-2.97h1.71c.09.92.72 1.64 2.32 1.64c1.71 0 2.1-.86 2.1-1.39c0-.73-.39-1.41-2.34-1.87c-2.17-.53-3.66-1.42-3.66-3.21c0-1.51 1.22-2.48 2.72-2.81V5h2.34v1.71c1.63.39 2.44 1.63 2.49 2.97h-1.71c-.04-.97-.56-1.64-1.94-1.64c-1.31 0-2.1.59-2.1 1.43c0 .73.57 1.22 2.34 1.67c1.77.46 3.66 1.22 3.66 3.42c-.01 1.6-1.21 2.48-2.74 2.77" opacity=".3"/><path fill="currentColor" d="M12 2C6.48 2 2 6.48 2 12s4.48 10 10 10s10-4.48 10-10S17.52 2 12 2m0 18c-4.41 0-8-3.59-8-8s3.59-8 8-8s8 3.59 8 8s-3.59 8-8 8m.31-8.86c-1.77-.45-2.34-.94-2.34-1.67c0-.84.79-1.43 2.1-1.43c1.38 0 1.9.66 1.94 1.64h1.71c-.05-1.34-.87-2.57-2.49-2.97V5H10.9v1.69c-1.51.32-2.72 1.3-2.72 2.81c0 1.79 1.49 2.69 3.66 3.21c1.95.46 2.34 1.15 2.34 1.87c0 .53-.39 1.39-2.1 1.39c-1.6 0-2.23-.72-2.32-1.64H8.04c.1 1.7 1.36 2.66 2.86 2.97V19h2.34v-1.67c1.52-.29 2.72-1.16 2.73-2.77c-.01-2.2-1.9-2.96-3.66-3.42"/></symbol><symbol id="hd-icon-ic-twotone-money" viewBox="0 0 24 24"><path fill="currentColor" d="M10 10h1v4h-1zm6 0h1v4h-1zM4 18h16V6H4zm10-9c0-.55.45-1 1-1h3c.55 0 1 .45 1 1v6c0 .55-.45 1-1 1h-3c-.55 0-1-.45-1-1zM8 9c0-.55.45-1 1-1h3c.55 0 1 .45 1 1v6c0 .55-.45 1-1 1H9c-.55 0-1-.45-1-1zM5 8h2v8H5z" opacity=".3"/><path fill="currentColor" d="M15 16h3c.55 0 1-.45 1-1V9c0-.55-.45-1-1-1h-3c-.55 0-1 .45-1 1v6c0 .55.45 1 1 1m1-6h1v4h-1zm-7 6h3c.55 0 1-.45 1-1V9c0-.55-.45-1-1-1H9c-.55 0-1 .45-1 1v6c0 .55.45 1 1 1m1-6h1v4h-1zM5 8h2v8H5zM2 4v16h20V4zm18 14H4V6h16z"/></symbol><symbol id="hd-icon-ic-twotone-money-off" viewBox="0 0 24 24"><path fill="currentColor" d="M12.5 6.9c1.78 0 2.44.85 2.5 2.1h2.21c-.07-1.72-1.12-3.3-3.21-3.81V3h-3v2.16c-.39.08-.75.21-1.1.36l1.51 1.51c.32-.08.69-.13 1.09-.13M5.47 3.92L4.06 5.33L7.5 8.77c0 2.08 1.56 3.22 3.91 3.91l3.51 3.51c-.34.49-1.05.91-2.42.91c-2.06 0-2.87-.92-2.98-2.1h-2.2c.12 2.19 1.76 3.42 3.68 3.83V21h3v-2.15c.96-.18 1.83-.55 2.46-1.12l2.22 2.22l1.41-1.41z"/></symbol><symbol id="hd-icon-ic-twotone-money-off-csred" viewBox="0 0 24 24"><path fill="currentColor" d="M12.5 6.9c1.78 0 2.44.85 2.5 2.1h2.21c-.07-1.72-1.12-3.3-3.21-3.81V3h-3v2.16c-.39.08-.75.21-1.1.36l1.51 1.51c.32-.08.69-.13 1.09-.13M5.47 3.92L4.06 5.33L7.5 8.77c0 2.08 1.56 3.22 3.91 3.91l3.51 3.51c-.34.49-1.05.91-2.42.91c-2.06 0-2.87-.92-2.98-2.1h-2.2c.12 2.19 1.76 3.42 3.68 3.83V21h3v-2.15c.96-.18 1.83-.55 2.46-1.12l2.22 2.22l1.41-1.41z"/></symbol><symbol id="hd-icon-ic-twotone-monitor" viewBox="0 0 24 24"><path fill="currentColor" d="M20 3H4c-1.1 0-2 .9-2 2v11c0 1.1.9 2 2 2h3l-1 1v2h12v-2l-1-1h3c1.1 0 2-.9 2-2V5c0-1.1-.9-2-2-2m0 13H4V5h16z"/><path fill="currentColor" d="M4 5h16v11H4z" opacity=".3"/></symbol><symbol id="hd-icon-ic-twotone-monitor-heart" viewBox="0 0 24 24"><path fill="currentColor" d="M15.11 12.45L14 10.24l-3.11 6.21c-.17.34-.51.55-.89.55s-.72-.21-.89-.55L7.38 13H2v2h2v3h16v-3h2v-2h-6c-.38 0-.72-.21-.89-.55" opacity=".3"/><path fill="currentColor" d="M20 6H4v3H2v2h6c.38 0 .72.21.89.55L10 13.76l3.11-6.21c.34-.68 1.45-.68 1.79 0L16.62 11H22V9h-2z" opacity=".3"/><path fill="currentColor" d="M20 4H4c-1.1 0-2 .9-2 2v3h2V6h16v3h2V6c0-1.1-.9-2-2-2m0 14H4v-3H2v3c0 1.1.9 2 2 2h16c1.1 0 2-.9 2-2v-3h-2z"/><path fill="currentColor" d="M14.89 7.55c-.34-.68-1.45-.68-1.79 0L10 13.76l-1.11-2.21A.99.99 0 0 0 8 11H2v2h5.38l1.72 3.45c.18.34.52.55.9.55s.72-.21.89-.55L14 10.24l1.11 2.21c.17.34.51.55.89.55h6v-2h-5.38z"/></symbol><symbol id="hd-icon-ic-twotone-monitor-weight" viewBox="0 0 24 24"><path fill="currentColor" d="M13 8.5h1v1h-1zm-3 0h1v1h-1zm1.5 0h1v1h-1z" opacity=".3"/><path fill="currentColor" d="M5 19h14V5H5zm7-13c1.66 0 3 1.34 3 3s-1.34 3-3 3s-3-1.34-3-3s1.34-3 3-3" opacity=".3"/><path fill="currentColor" d="M12 12c1.66 0 3-1.34 3-3s-1.34-3-3-3s-3 1.34-3 3s1.34 3 3 3m1-3.5h1v1h-1zm-1.5 0h1v1h-1zm-1.5 0h1v1h-1z"/><path fill="currentColor" d="M19 3H5c-1.1 0-2 .9-2 2v14c0 1.1.9 2 2 2h14c1.1 0 2-.9 2-2V5c0-1.1-.9-2-2-2m0 16H5V5h14z"/></symbol><symbol id="hd-icon-ic-twotone-monochrome-photos" viewBox="0 0 24 24"><path fill="currentColor" d="M12 18v-1.8c-1.8 0-3.2-1.4-3.2-3.2s1.4-3.2 3.2-3.2V8c-2.8 0-5 2.2-5 5s2.2 5 5 5m5-5c0 2.8-2.2 5-5 5v1h8V7h-8v1c2.8 0 5 2.2 5 5" opacity=".3"/><path fill="currentColor" d="M4 21h16c1.1 0 2-.9 2-2V7c0-1.1-.9-2-2-2h-3.2L15 3H9L7.2 5H4c-1.1 0-2 .9-2 2v12c0 1.1.9 2 2 2m8-13V7h8v12h-8v-1c-2.8 0-5-2.2-5-5s2.2-5 5-5m3.2 5c0 1.8-1.4 3.2-3.2 3.2V18c2.8 0 5-2.2 5-5s-2.2-5-5-5v1.8c1.8 0 3.2 1.4 3.2 3.2m-6.4 0c0 1.8 1.4 3.2 3.2 3.2V9.8c-1.8 0-3.2 1.4-3.2 3.2"/></symbol><symbol id="hd-icon-ic-twotone-mood" viewBox="0 0 24 24"><path fill="currentColor" d="M12 4c-4.42 0-8 3.58-8 8s3.58 8 8 8s8-3.58 8-8s-3.58-8-8-8m3.5 4c.83 0 1.5.67 1.5 1.5s-.67 1.5-1.5 1.5s-1.5-.67-1.5-1.5s.67-1.5 1.5-1.5m-7 0c.83 0 1.5.67 1.5 1.5S9.33 11 8.5 11S7 10.33 7 9.5S7.67 8 8.5 8m3.5 9.5c-2.33 0-4.31-1.46-5.11-3.5h10.22c-.8 2.04-2.78 3.5-5.11 3.5" opacity=".3"/><circle cx="8.5" cy="9.5" r="1.5" fill="currentColor"/><path fill="currentColor" d="M11.99 2C6.47 2 2 6.48 2 12s4.47 10 9.99 10C17.52 22 22 17.52 22 12S17.52 2 11.99 2M12 20c-4.42 0-8-3.58-8-8s3.58-8 8-8s8 3.58 8 8s-3.58 8-8 8"/><circle cx="15.5" cy="9.5" r="1.5" fill="currentColor"/><path fill="currentColor" d="M12 17.5c2.33 0 4.31-1.46 5.11-3.5H6.89c.8 2.04 2.78 3.5 5.11 3.5"/></symbol><symbol id="hd-icon-ic-twotone-mood-bad" viewBox="0 0 24 24"><path fill="currentColor" d="M12 4c-4.42 0-8 3.58-8 8s3.58 8 8 8s8-3.58 8-8s-3.58-8-8-8m3.5 4c.83 0 1.5.67 1.5 1.5s-.67 1.5-1.5 1.5s-1.5-.67-1.5-1.5s.67-1.5 1.5-1.5m-7 0c.83 0 1.5.67 1.5 1.5S9.33 11 8.5 11S7 10.33 7 9.5S7.67 8 8.5 8m-1.61 9c.8-2.04 2.78-3.5 5.11-3.5s4.31 1.46 5.11 3.5z" opacity=".3"/><circle cx="8.5" cy="9.5" r="1.5" fill="currentColor"/><path fill="currentColor" d="M11.99 2C6.47 2 2 6.48 2 12s4.47 10 9.99 10C17.52 22 22 17.52 22 12S17.52 2 11.99 2M12 20c-4.42 0-8-3.58-8-8s3.58-8 8-8s8 3.58 8 8s-3.58 8-8 8m0-6.5c-2.33 0-4.31 1.46-5.11 3.5h10.22c-.8-2.04-2.78-3.5-5.11-3.5"/><circle cx="15.5" cy="9.5" r="1.5" fill="currentColor"/></symbol></svg>