<svg xmlns="http://www.w3.org/2000/svg" xmlns:xlink="http://www.w3.org/1999/xlink"><symbol id="hd-icon-dinkie-icons-page-graphics-small-filled" viewBox="0 0 8 8"><path fill="currentColor" d="M0 9h7V8H6V6h2v1h1V0H0Zm1-2V3h3V2h1V1h2v1h1v2H7v1H5v2Zm1-1h2V4H2Zm5 2h1V7H7ZM5 4h2V2H5Zm0 0"/></symbol><symbol id="hd-icon-dinkie-icons-pager" viewBox="0 0 12 12"><path fill="currentColor" d="M1 11h9v-1h1V3h-1V2H1v1H0v7h1Zm1-2V8h3v1Zm0-3h1V5H2Zm4 3V8h1v1ZM1 7V4h9v3Zm3-1h1V5H4Zm4 3V8h1v1ZM6 6h1V5H6Zm0 0"/></symbol><symbol id="hd-icon-dinkie-icons-palm-face" viewBox="0 0 12 12"><path fill="currentColor" d="M3 10h1V9h2V6h2V5h1V4H7v1H5v3H3Zm-2 1h1v-1H1Zm1 1h1v-1H2Zm-2-2h1V3H0Zm7 2h1v-2H7V9H6v1H4v1h3ZM2 7h1V6H2ZM1 3h1V2H1Zm2 3h1V5H3Zm7 6h1V6h-1ZM2 2h7V1H2Zm7 4h1V5H9Zm0-3h1V2H9Zm1 1h1V3h-1Zm0 0"/></symbol><symbol id="hd-icon-dinkie-icons-palm-tree" viewBox="0 0 12 12"><path fill="currentColor" d="M4 12h3V6H6V5h1V4H6V3h1V2H5v1H4v1h1v1H4v1h1v4H4ZM0 6h1V3H0Zm2 2h1V5H2Zm1-3h1V4H3ZM1 3h1V2H1Zm1-1h3V1H2Zm5 4h1V5H7Zm2 1h1V5H9ZM7 4h1V3H7Zm1 1h1V4H8ZM7 2h2V1H7Zm2 1h1V2H9Zm1 1h1V3h-1Zm0 0"/></symbol><symbol id="hd-icon-dinkie-icons-paperclip" viewBox="0 0 12 12"><path fill="currentColor" d="M2 11h1V3H2Zm1 1h4v-1H3Zm1-3h1V4H4Zm3 2h1V4H7ZM3 3h1V2H3Zm2 1h2V3H5Zm4 5h1V3H9ZM4 2h4V1H4Zm4 1h1V2H8Zm0 0"/></symbol><symbol id="hd-icon-dinkie-icons-paperclip-small" viewBox="0 0 8 8"><path fill="currentColor" d="M1 8h1V2H1Zm1 1h3V8H2Zm1-2h1V3H3Zm2 1h1V3H5ZM2 2h1V1H2Zm2 1h1V2H4Zm3 4h1V2H7ZM3 1h3V0H3Zm3 1h1V1H6Zm0 0"/></symbol><symbol id="hd-icon-dinkie-icons-parallelogram" viewBox="0 0 12 12"><path fill="currentColor" d="M1 11h7V8h1V4h1V2H3v3H2v4H1Zm0 0"/></symbol><symbol id="hd-icon-dinkie-icons-party-popper" viewBox="0 0 12 12"><path fill="currentColor" d="M5 10H4V9H3V8H2V7H1v2h1v1h1v1h2Zm0 0h2V9h2V8H7V7H6V6H5V5H4V3H3v2H2v2h1v1h1v1h1Zm-5 2h3v-1H2v-1H1V9H0Zm0-9h1V2H0Zm10 8h1v-1h-1ZM2 2h3V1H2Zm5 4h1V5H7ZM5 4h1V2H5Zm5 5h1V7h-1ZM9 7h1V6H9ZM8 5h3V4H8ZM7 3h1V1H7Zm3 0h1V2h-1Zm0 0"/></symbol><symbol id="hd-icon-dinkie-icons-party-popper-small" viewBox="0 0 8 8"><path fill="currentColor" d="M5 7H4V6H3V5H2V4H1v2h1v1h1v1h2Zm0 0h2V6H6V5H5V4H4V3H3V2H2v2h1v1h1v1h1ZM0 9h3V8H2V7H1V6H0Zm0-7h1V1H0Zm8 6h1V7H8ZM2 1h2V0H2Zm2 1h1V1H4Zm2 2h1V3H6Zm2 2h1V5H8ZM7 3h2V2H7ZM6 1h1V0H6Zm0 0"/></symbol><symbol id="hd-icon-dinkie-icons-paypal" viewBox="0 0 12 12"><path fill="currentColor" d="M0 10h3V7h4V6h1V2H7V1H2v3H1v3H0Zm3 2h3V9h3V8H5v3H3Zm6-4h1V7H9Zm1-1h1V4h-1ZM9 4h1V3H9Zm0 0"/></symbol><symbol id="hd-icon-dinkie-icons-peach" viewBox="0 0 12 12"><path fill="currentColor" d="M1 12h4v-1h1v-1H2v1H1Zm0-2h1V9H1ZM0 9h1V5H0Zm1-4h1V4H1Zm5 7h4v-1H9v-1H7v1H6Zm0-2h1V5H6ZM2 4h1V3H2Zm7 6h1V9H9ZM5 5h1V4H5ZM4 4h1V3H4ZM3 3h1V2h2V1H3Zm7 6h1V5h-1ZM6 3h2V2H6Zm2 1h1V3H8Zm1 1h1V4H9Zm0 0"/></symbol><symbol id="hd-icon-dinkie-icons-pear" viewBox="0 0 12 12"><path fill="currentColor" d="M7 10h1V9h1V8H7Zm-3 1h1v-1H4Zm1 1h3v-1H5Zm-2-2h1V7H3ZM2 7h1V4H2Zm6 4h1v-1H8ZM1 4h1V3H1ZM0 3h1V1H0Zm9 7h1V9H9ZM3 4h3V3H3Zm7 5h1V6h-1ZM6 5h3V4H6Zm3 1h1V5H9Zm0 0"/></symbol><symbol id="hd-icon-dinkie-icons-pear-logo" viewBox="0 0 12 12"><path fill="currentColor" d="M5 3h2V2h1V1H6v1H5Zm-3 8h1V8H2Zm1 1h5v-1H3Zm0-4h1V5H3Zm4 2h1V9H7Zm1 1h1v-1H8Zm0-2h1V8H8ZM7 8h1V5H7ZM4 5h3V4H4Zm0 0"/></symbol><symbol id="hd-icon-dinkie-icons-pear-logo-filled" viewBox="0 0 12 12"><path fill="currentColor" d="M3 12h5v-1h1v-1H8V9h1V8H8V5H7V4H4v1H3v3H2v3h1Zm2-9h2V2h1V1H6v1H5Zm0 0"/></symbol><symbol id="hd-icon-dinkie-icons-pear-logo-small" viewBox="0 0 8 8"><path fill="currentColor" d="M3 5H2v3h1Zm0 0h1V4h1v1h1V3H3Zm0 4h3V8H3Zm2-2h1V6H5Zm1 1h1V7H6Zm0-2h1V5H6ZM4 2h1V1H4Zm1-1h1V0H5Zm0 0"/></symbol><symbol id="hd-icon-dinkie-icons-pear-logo-small-filled" viewBox="0 0 8 8"><path fill="currentColor" d="M3 9h3V8h1V7H6V6h1V5H6V3H3v2H2v3h1Zm1-7h1V1H4Zm1-1h1V0H5Zm0 0"/></symbol><symbol id="hd-icon-dinkie-icons-peek-face" viewBox="0 0 12 12"><path fill="currentColor" d="M3 10h1V9h2V6h1v3h1V5h1V4H7v1H5v3H3Zm-1 2h1v-1H2Zm-1-1h1v-1H1Zm-1-1h1V3H0Zm4 1h1v-1H4Zm1 1h5v-1H5ZM1 3h1V2H1Zm2 4h1V5H3Zm7 4h1V7h-1V5H9v3h1ZM2 2h7V1H2Zm7 1h1V2H9Zm1 1h1V3h-1Zm0 0"/></symbol><symbol id="hd-icon-dinkie-icons-pencil" viewBox="0 0 12 12"><path fill="currentColor" d="M0 12h5v-1h1v-1H5V9H4v2H2v-1H1V8h2V7H2V6H1v1H0Zm3-3h1V8H3Zm3 1h1V9H6ZM2 6h1V5H2Zm3 3h1V8H5ZM3 7h1V6H3Zm4 2h1V8H7ZM3 5h1V4H3Zm3 3h1V7H6ZM4 6h1V5H4Zm4 2h1V7H8ZM4 4h1V3H4Zm3 3h1V6H7ZM5 5h1V4H5Zm4 2h1V6H9ZM5 3h1V2H5Zm3 3h1V5H8ZM6 4h1V3H6Zm4 2h1V3h-1v1H9v1h1ZM7 3h1V2h1V1H6v1h1Zm2 0h1V2H9Zm0 0"/></symbol><symbol id="hd-icon-dinkie-icons-pencil-small" viewBox="0 0 8 8"><path fill="currentColor" d="M0 9h4V8H2V7H1V5H0Zm1-4h2V3H2v1H1Zm3 3h1V7h1V6H4ZM3 6h1V5H3Zm1-1h1V4H4ZM3 3h1V2H3Zm3 3h1V5H6ZM5 4h1V3H5Zm2 1h1V4H7ZM4 2h1V1H4Zm2 1h1V2H6Zm2 1h1V2H8ZM5 1h2V0H5Zm2 1h1V1H7Zm0 0"/></symbol><symbol id="hd-icon-dinkie-icons-person-with-folded-hands" viewBox="0 0 12 12"><path fill="currentColor" d="M7 12h4V6h-1v1H9v1h1v3H7Zm-7 0h4v-1H1V8h1V7H1V6H0Zm4-1h1v-1H4ZM2 7h1V6H2Zm4 4h1v-1H6Zm-1-1h1V2H5ZM3 6h1V2H3Zm5 1h1V6H8ZM4 2h1V1H4Zm3 4h1V2H7ZM6 2h1V1H6Zm0 0"/></symbol><symbol id="hd-icon-dinkie-icons-person-with-folded-hands-filled" viewBox="0 0 12 12"><path fill="currentColor" d="M7 12h4V7H9v4H7Zm-7 0h4v-1H2V7H0Zm4-1h1v-1H4ZM2 7h1V6H2Zm4 4h1v-1H6Zm-1-1h1V2H5ZM3 6h1V2H3Zm5 1h1V6H8ZM4 2h1V1H4Zm3 4h1V2H7ZM6 2h1V1H6Zm0 0"/></symbol><symbol id="hd-icon-dinkie-icons-personal-computer" viewBox="0 0 12 12"><path fill="currentColor" d="M0 12h11V1H0Zm2-1v-1h1v1ZM1 9V8h1v1Zm2 0V8h1v1Zm1 2v-1h3v1Zm1-2V8h1v1Zm3 2v-1h1v1ZM7 9V8h1v1Zm2 0V8h1v1ZM1 7V2h9v5Zm0 0"/></symbol><symbol id="hd-icon-dinkie-icons-petri-dish" viewBox="0 0 12 12"><path fill="currentColor" d="M2 12h7v-1h1v-1h1V5h-1v1H9V5H2v1H1V5H0v5h1v1h1Zm1-4V7h1v1Zm-1 2V9H1V8h1v1h7V8h1v1H9v1ZM1 5h1V4H1Zm5 3V7H5V6h1v1h1V6h1v1H7v1ZM2 4h7V3H2Zm7 1h1V4H9Zm0 0"/></symbol><symbol id="hd-icon-dinkie-icons-pig-face" viewBox="0 0 12 12"><path fill="currentColor" d="M3 10h5V8H7v1H6V8h1V7H4v1h1v1H4V8H3Zm-2 1h1v-1H1Zm-1-1h1V5H0Zm2 2h7v-1H2Zm0-5h1V6H2ZM1 5h1V4H1ZM0 4h1V2h2V1H0Zm9 7h1v-1H9ZM8 7h1V6H8ZM2 4h7V3H8V2H7v1H4V2H3v1H2Zm8 6h1V5h-1ZM9 5h1V4H9Zm1-1h1V1H8v1h2Zm0 0"/></symbol><symbol id="hd-icon-dinkie-icons-pile-of-poo" viewBox="0 0 12 12"><path fill="currentColor" d="M1 12h9v-1H1Zm-1-1h1V9H0Zm1-2h2V8H2V6H1Zm3 0h1V8H4Zm1 1h1V9H5ZM2 6h1V4H2Zm4 3h1V8H6ZM4 7h1V5H4Zm6 4h1V9h-1ZM3 4h2V3H3Zm3 3h1V5H6Zm2 2h2V6H9v2H8Zm0-3h1V4H8ZM5 3h1V2h1V1H4v1h1Zm2 1h1V2H7Zm0 0"/></symbol><symbol id="hd-icon-dinkie-icons-pill" viewBox="0 0 12 12"><path fill="currentColor" d="M2 10h1V9h1V8H3V7h1v1h1V7h1v1h1V7h1v1H7v1h1v1h1V3H8v3H3V3H2Zm1 1h1v-1H3Zm1 1h3v-1H6v-1H5v1H4Zm0-2h1V9H4Zm3 1h1v-1H7ZM5 9h1V8H5Zm1 1h1V9H6ZM3 3h1V2H3Zm1-1h3V1H4Zm3 1h1V2H7Zm0 0"/></symbol><symbol id="hd-icon-dinkie-icons-pill-filled" viewBox="0 0 12 12"><path fill="currentColor" d="M4 12h3v-1h1v-1h1V3H8v1H7v1h1v1H7V5H6v1H5V5H4v1H3V5h1V4H3V3H2v7h1v1h1ZM3 3h1V2H3Zm2 2h1V4H5ZM4 4h1V3H4Zm2 0h1V3H6ZM4 2h3V1H4Zm3 1h1V2H7Zm0 0"/></symbol><symbol id="hd-icon-dinkie-icons-pineapple" viewBox="0 0 12 12"><path fill="currentColor" d="M3 9h1V8h1V7H4V6h1V5h1v1h1V5h1V4H5V2H4v1H3v1H2v1H1v1h2ZM0 7h1V6H0Zm5 4h1v-1H5Zm-1-1h1V9H4Zm1-1h1V8H5Zm1 3h3v-1h1v-1h1V7h-1v1H9v1H8v1H7v1H6Zm0-2h1V9H6ZM0 4h2V3H0Zm5 3h1V6H5Zm1 1h1V7H6Zm1 1h1V8H7ZM2 3h1V2H2ZM1 2h1V1H1Zm7 6h1V7H8ZM7 7h1V6H7Zm2 0h1V6H9ZM8 6h1V5H8ZM5 2h1V1H5Zm0 0"/></symbol><symbol id="hd-icon-dinkie-icons-pistol" viewBox="0 0 12 12"><path fill="currentColor" d="M7 12h4V8h-1v3H8V7h1v1h1V3h1V2H8v1h1v3H1V4H0v3h3v2h1V7h1v1h1V7h1v2H4v1h3ZM1 4h7V3H2V2H1Zm0 0"/></symbol><symbol id="hd-icon-dinkie-icons-pistol-filled" viewBox="0 0 12 12"><path fill="currentColor" d="M7 12h4V8h-1V3h1V2H9v1H2V2H1v2H0v3h3v2h1V7h1v1h1V7h1v2H4v1h3Zm0 0"/></symbol><symbol id="hd-icon-dinkie-icons-placard" viewBox="0 0 12 12"><path fill="currentColor" d="M0 12h11v-1H9V9h2V1H0v8h2v2H0Zm3-1V9h5v2ZM1 8V2h9v6Zm3-1h1V6H4Zm2 0h1V6H6ZM5 6h1V5h2V4H6V3H5v1H3v1h2Zm0 0"/></symbol><symbol id="hd-icon-dinkie-icons-placard-alt" viewBox="0 0 12 12"><path fill="currentColor" d="M0 12h11v-1H9V9h2V1H0v8h2v2H0Zm3-1V9h5v2ZM1 8V2h9v6Zm2-2h1V5H3Zm0-2h1V3H3Zm2 2h3V5H5Zm0-2h3V3H5Zm0 0"/></symbol><symbol id="hd-icon-dinkie-icons-placard-small" viewBox="0 0 8 8"><path fill="currentColor" d="M0 9h9V8H7V6h2V0H0v6h2v2H0Zm3-1V6h3v2ZM1 5V1h7v4Zm2-1h1V3H3ZM2 3h1V2H2Zm3 1h1V3H5ZM4 3h1V2H4Zm2 0h1V2H6Zm0 0"/></symbol><symbol id="hd-icon-dinkie-icons-playstation" viewBox="0 0 12 12"><path fill="currentColor" d="M5 12h1V3h1v3h2V3H8V2H6V1H4v10h1Zm-4-2h2V9H2V8h1V6H2v1H0v2h1Zm6 1h2v-1h2V8h-1V7H7v1h2v1H7Zm0 0"/></symbol><symbol id="hd-icon-dinkie-icons-plum-mahjong" viewBox="0 0 12 12"><path fill="currentColor" d="M2 12h7v-1h1V2H9V1H2v1H1v9h1Zm1-2V9H2V6h1V5H2V4h1V3h1v1h2V3h3v1H8v1h1v5H8V9H5V7H4v3Zm1-4h1V5H4Zm3 2h1V7H7Zm0-2h1V5H7Zm0 0"/></symbol><symbol id="hd-icon-dinkie-icons-podcast" viewBox="0 0 12 12"><path fill="currentColor" d="M10 9H9v1h1Zm0 0h1V4h-1Zm-8 2h1v-1H2Zm-1-1h1V9H1ZM0 9h1V4H0Zm3 0h1V8H3Zm2 3h1V8H5ZM2 8h1V5H2ZM1 4h1V3H1Zm7 7h1v-1H8ZM5 7h1V6H5ZM3 5h1V4H3Zm4 4h1V8H7ZM2 3h1V2H2Zm2 1h3V3H4Zm4 4h1V5H8ZM7 5h1V4H7ZM3 2h5V1H3Zm5 1h1V2H8Zm1 1h1V3H9Zm0 0"/></symbol><symbol id="hd-icon-dinkie-icons-podcast-small" viewBox="0 0 8 8"><path fill="currentColor" d="M8 7H7v1h1Zm0 0h1V2H8ZM1 8h1V7H1ZM0 7h1V2H0Zm4 2h1V6H4ZM2 6h1V3H2Zm2-1h1V4H4ZM1 2h1V1H1Zm2 1h3V2H3Zm3 3h1V3H6ZM2 1h5V0H2Zm5 1h1V1H7Zm0 0"/></symbol><symbol id="hd-icon-dinkie-icons-podium" viewBox="0 0 12 12"><path fill="currentColor" d="M0 12h11V9H8V6H3v2H0Zm1-1V9h2v2Zm3 0V7h3v4ZM0 5h2V4H0Zm8 6v-1h2v1ZM4 5h1V4H4ZM1 2h1V1H1Zm1 1h1V2H2Zm4 2h1V4H6ZM5 4h1V3h1V2H6V1H5v1H4v1h1Zm4 1h2V4H9ZM8 3h1V2H8Zm1-1h1V1H9Zm0 0"/></symbol><symbol id="hd-icon-dinkie-icons-potable-water-symbol" viewBox="0 0 12 12"><path fill="currentColor" d="M5 4H1v1h4Zm0 0h3V3H7V2h2v1h1V1H3v2h1V2h2v1H5Zm-5 8h3v-2H2v1H1v-1H0Zm1-2h1V9H1ZM0 8h3V7H1V5H0Zm3-1h2V6H3Zm2 1h3V7H5Zm4 4h1V6H8v1h1ZM8 5h3V4H8Zm0 0"/></symbol><symbol id="hd-icon-dinkie-icons-potted-plant" viewBox="0 0 12 12"><path fill="currentColor" d="M2 8h1V7h5v1h1V6H6V3H4v1h1v2H2Zm1 4h5V8H3Zm1-1V9h3v2ZM0 5h4V4H2V3H1v1H0Zm2-2h2V2H2Zm4 0h1V2H6Zm1 1h4V3h-1V2H9v1H7Zm0-2h2V1H7Zm0 0"/></symbol><symbol id="hd-icon-dinkie-icons-poultry-leg" viewBox="0 0 12 12"><path fill="currentColor" d="M1 12h4v-1h1v-1h1V7H6v2H5v1H2V9H1V7H0v4h1Zm0-5h1V6H1Zm1-1h3V5H2Zm5 1h1V5H7V4H5v1h1v1h1Zm0-3h1V3H7Zm1 1h1V4H8Zm0-2h1V2h1V1H8Zm1 1h2V2h-1v1H9Zm0 0"/></symbol><symbol id="hd-icon-dinkie-icons-poultry-leg-filled" viewBox="0 0 12 12"><path fill="currentColor" d="M1 12h4v-1h1V9h1V7h1V5H7V4H5v1H3v1H1v1H0v4h1Zm0-3V8h1V7h1v1H2v1Zm6-5h1V3H7Zm1 1h1V4H8Zm0-2h1V2h1V1H8Zm1 1h2V2h-1v1H9Zm0 0"/></symbol><symbol id="hd-icon-dinkie-icons-propellor" viewBox="0 0 12 12"><path fill="currentColor" d="M3 11H1v1h2Zm0 0h1V9h3v2h1V9h2V8H8V5h2V4H8V2H7v2H4V2H3v2H1v1h2v3H1v1h2Zm-3 0h1V9H0Zm0-7h1V2H0Zm8 8h2v-1H8ZM4 8V5h3v3ZM1 2h2V1H1Zm9 9h1V9h-1Zm0-7h1V2h-1ZM8 2h2V1H8Zm0 0"/></symbol><symbol id="hd-icon-dinkie-icons-public-address-loudspeaker" viewBox="0 0 12 12"><path fill="currentColor" d="M1 12h4v-2H4v1H2V8h1v2h1V8h1V7H4V4h1V3H0v5h1Zm0-5V4h2v3Zm4 2h2V8H5Zm0-6h2V2H5Zm2 7h3V7h1V4h-1V1H7v1h2v7H7Zm0 0"/></symbol><symbol id="hd-icon-dinkie-icons-public-address-loudspeaker-small" viewBox="0 0 8 8"><path fill="currentColor" d="M1 9h3V8H3V6h1V5H3V3h1V2H0v4h1Zm0-4V3h1v2Zm3 2h2V6H4Zm0-5h2V1H4Zm2 6h2V5h1V3H8V0H6v1h1v6H6Zm0 0"/></symbol><symbol id="hd-icon-dinkie-icons-pushpin" viewBox="0 0 12 12"><path fill="currentColor" d="M5 12h1V9h4V7H9v1H2V7H1v2h4ZM2 7h7V6H8V3H7v3H4V3H3v3H2Zm0-4h1V2h5v1h1V1H2Zm0 0"/></symbol><symbol id="hd-icon-dinkie-icons-pushpin-filled" viewBox="0 0 12 12"><path fill="currentColor" d="M5 12h1V9h4V8H9V7H2v1H1v1h4ZM3 6h5V3h1V1H2v2h1Zm0 0"/></symbol><symbol id="hd-icon-dinkie-icons-pushpin-small" viewBox="0 0 8 8"><path fill="currentColor" d="M4 9h1V6h3V5H7V4H6v1H3V4H2v1H1v1h3ZM3 4h1V1h1v3h1V1h1V0H2v1h1Zm0 0"/></symbol><symbol id="hd-icon-dinkie-icons-pushpin-small-filled" viewBox="0 0 8 8"><path fill="currentColor" d="M4 9h1V6h3V5H7V4H6V1h1V0H2v1h1v3H2v1H1v1h3Zm0 0"/></symbol><symbol id="hd-icon-dinkie-icons-qq" viewBox="0 0 12 12"><path fill="currentColor" d="M2 6H1v1H0v3h1V9h1Zm0 0h1V5h5v1h1V3H8V2H7V1H4v1H3v1H2Zm0 4h1V9H2Zm0 2h2v-1h3v1h2v-1H8v-1H3v1H2Zm2-3h2V7h2V6H3v1h1Zm4 1h1V9H8ZM4 4V3h1v1Zm6 6h1V7h-1V6H9v3h1ZM6 4V3h1v1Zm0 0"/></symbol><symbol id="hd-icon-dinkie-icons-qq-filled" viewBox="0 0 12 12"><path fill="currentColor" d="M2 12h2v-1h3v1h2v-1H8v-1h1V9h1v1h1V7h-1V6H9V3H8V2H7V1H4v1H3v1H2v3H1v1H0v3h1V9h1v1h1v1H2Zm2-4V6H3V5h5v1H5v2Zm0 0"/></symbol><symbol id="hd-icon-dinkie-icons-question-face" viewBox="0 0 12 12"><path fill="currentColor" d="M8 5h2V4h1V2h-1v1H9v1H8Zm-7 6h1v-1H1Zm1 1h5v-1H2Zm-2-2h1V4H0Zm3-1h3V8H3Zm4 2h1v-1H7ZM1 4h1V3H1Zm2 2h1V5H3Zm5 4h1V8H8ZM5 6h1V5H5ZM2 3h4V2H2Zm6 4h2V6H8ZM7 3h1V2H7Zm1-1h2V1H8Zm0 0"/></symbol><symbol id="hd-icon-dinkie-icons-rabbit-face" viewBox="0 0 12 12"><path fill="currentColor" d="M2 12h7v-1H7v-1H6v1H5v-1H4v1H2Zm-1-1h1V7H1Zm2-2h1V8H3Zm2 1h1V9H5ZM2 7h1V2H2Zm5 2h1V8H7Zm2 2h1V7H9ZM4 6h3V2H6v3H5V2H4ZM3 2h1V1H3Zm5 5h1V2H8ZM7 2h1V1H7Zm0 0"/></symbol><symbol id="hd-icon-dinkie-icons-radio-button" viewBox="0 0 12 12"><path fill="currentColor" d="M4 9h3V8h1V5H7V4H4v1H3v3h1Zm-2 2h1v-1H2Zm-1-1h1V9H1ZM0 9h1V4H0Zm3 3h5v-1H3ZM1 4h1V3H1Zm7 7h1v-1H8ZM2 3h1V2H2Zm7 7h1V9H9ZM3 2h5V1H3Zm7 7h1V4h-1ZM9 4h1V3H9ZM8 3h1V2H8Zm0 0"/></symbol><symbol id="hd-icon-dinkie-icons-radio-button-small" viewBox="0 0 8 8"><path fill="currentColor" d="M3 7h3V6h1V3H6V2H3v1H2v3h1ZM1 8h1V7H1Zm1 1h5V8H2ZM0 7h1V2H0Zm7 1h1V7H7ZM1 2h1V1H1Zm7 5h1V2H8ZM2 1h5V0H2Zm5 1h1V1H7Zm0 0"/></symbol><symbol id="hd-icon-dinkie-icons-radioactive" viewBox="0 0 12 12"><path fill="currentColor" d="M1 11h2v-1h1V9h1V8h1v1h1v1h1v1h2V9h1V4h-1v2H7V4h1V3h1v1h1V2H8V1H3v1H1v2h1V3h1v1h1v2H1V4H0v5h1Zm2 1h5v-1H3Zm2-5V6h1v1Zm0 0"/></symbol><symbol id="hd-icon-dinkie-icons-radioactive-small" viewBox="0 0 8 8"><path fill="currentColor" d="M2 9h5V8h1V7h1V2H8v2H6V1h1V0H2v1h1v3H1V2H0v5h1v1h1Zm1-1V7h1V6h1v1h1v1Zm1-3V4h1v1ZM1 2h1V1H1Zm6 0h1V1H7Zm0 0"/></symbol><symbol id="hd-icon-dinkie-icons-railway-car" viewBox="0 0 12 12"><path fill="currentColor" d="M0 12h11v-1h-1v-1h1V5h-1V4H5V3H3v1H1v1H0v5h1v1H0Zm2-1v-1h1v1ZM1 8V6h1v2Zm3 3v-1h3v1ZM3 8V6h2v2Zm5 3v-1h1v1ZM1 3h2V2H1Zm5 5V6h2v2Zm3 0V6h1v2ZM3 2h2V1H3Zm2 1h2V2H5Zm0 0"/></symbol><symbol id="hd-icon-dinkie-icons-raised-back-of-hand" viewBox="0 0 12 12"><path fill="currentColor" d="M4 6h1V2h1v4h1V2h1V1H3v1h1Zm-3 4h1V9H1Zm1 1h1v-1H2Zm1 1h6v-1H3ZM0 9h1V6h1v1h1V2H2v3H0Zm9 2h1V9H9Zm1-2h1V3h-1ZM8 7h1V3h1V2H8Zm0 0"/></symbol><symbol id="hd-icon-dinkie-icons-raised-back-of-hand-small" viewBox="0 0 8 8"><path fill="currentColor" d="M0 7h1V5h1v1h1V1H2v3H0Zm1 1h1V7H1Zm1 1h6V8H2Zm2-4h1V1h1V0H3v1h1Zm4 3h1V2H8ZM6 5h1V2h1V1H6Zm0 0"/></symbol><symbol id="hd-icon-dinkie-icons-raised-hand" viewBox="0 0 12 12"><path fill="currentColor" d="M4 6h1V2h1v4h1V2h1V1H3v1h1Zm-3 5h1V9H1Zm1 1h6v-1H2ZM0 9h1V3H0Zm2-2h1V2H1v1h1Zm6 4h1v-1H8Zm1-1h1V9H9Zm1-1h1V5H9V2H8v5h1V6h1Zm0 0"/></symbol><symbol id="hd-icon-dinkie-icons-raised-hand-small" viewBox="0 0 8 8"><path fill="currentColor" d="M8 7H7v1h1Zm0 0h1V4H7V1H6v5h1V5h1ZM0 8h1V2H0Zm1 1h6V8H1Zm1-4h1V1H1v1h1Zm2 0h1V1h1V0H3v1h1Zm0 0"/></symbol><symbol id="hd-icon-dinkie-icons-red-apple" viewBox="0 0 12 12"><path fill="currentColor" d="M4 6h3V5H6V2H5v3H4Zm-3 4h1V9H1Zm1 1h1v-1H2ZM0 9h1V5H0Zm3 3h5v-1H3ZM1 5h1V4H1Zm7 6h1v-1H8ZM2 4h2V3H2Zm7 6h1V9H9Zm1-1h1V5h-1ZM7 4h2V3H7ZM6 2h1V1H6Zm3 3h1V4H9Zm0 0"/></symbol><symbol id="hd-icon-dinkie-icons-red-apple-small" viewBox="0 0 8 8"><path fill="currentColor" d="M4 4h1V3h3V2H5V1H4v1H1v1h3ZM1 8h1V7H1ZM0 7h1V3H0Zm2 2h5V8H2Zm5-1h1V7H7Zm1-1h1V3H8ZM5 1h1V0H5Zm0 0"/></symbol><symbol id="hd-icon-dinkie-icons-red-dragon-mahjong" viewBox="0 0 12 12"><path fill="currentColor" d="M5 10h1V8h2V4H6V3H5v1H3v4h2Zm-3 2h7v-1H2Zm-1-1h1V2H1Zm3-4V5h1v2Zm2 0V5h1v2Zm3 4h1V2H9ZM2 2h7V1H2Zm0 0"/></symbol><symbol id="hd-icon-dinkie-icons-red-dragon-mahjong-filled" viewBox="0 0 12 12"><path fill="currentColor" d="M2 12h7v-1h1V2H9V1H2v1H1v9h1Zm3-2V8H2V4h3V3h1v1h3v4H6v2ZM3 7h2V5H3Zm3 0h2V5H6Zm0 0"/></symbol><symbol id="hd-icon-dinkie-icons-repeat-arrow" viewBox="0 0 12 12"><path fill="currentColor" d="M6 6h1V5h1V4H7V3H6v1H3v1h3Zm-6 5h1V2H0Zm1 1h9v-1H1Zm1-5h1V5H2Zm2 3h1V9h3V8H5V7H4v1H3v1h1Zm4-2h1V6H8Zm2 3h1V2h-1ZM1 2h9V1H1Zm0 0"/></symbol><symbol id="hd-icon-dinkie-icons-repeat-arrow-filled" viewBox="0 0 12 12"><path fill="currentColor" d="M1 12h9v-1h1V2h-1V1H1v1H0v9h1Zm2-2V9H2V8h1V7h1v1h5V6h1v2H9v1H4v1ZM1 7V5h1V4h5V3h1v1h1v1H8v1H7V5H2v2Zm0 0"/></symbol><symbol id="hd-icon-dinkie-icons-restroom" viewBox="0 0 12 12"><path fill="currentColor" d="M7 10h1V8h1V7H8V5H7v2H6v1h1Zm-7 1h1V2H0Zm1 1h9v-1H1Zm2-2h1V6h1V5H2v1h1Zm0-6h1V3H3Zm7 7h1V2h-1ZM1 2h9V1H1Zm6 2h1V3H7Zm0 0"/></symbol><symbol id="hd-icon-dinkie-icons-restroom-filled" viewBox="0 0 12 12"><path fill="currentColor" d="M1 12h9v-1h1V2h-1V1H1v1H0v9h1Zm2-2V6H2V5h3v1H4v4Zm4 0V8H6V7h1V5h1v2h1v1H8v2ZM3 4V3h1v1Zm4 0V3h1v1Zm0 0"/></symbol><symbol id="hd-icon-dinkie-icons-restroom-small-filled" viewBox="0 0 8 8"><path fill="currentColor" d="M1 9h7V8h1V1H8V0H1v1H0v7h1Zm1-1V4H1V3h3v1H3v4Zm0-6V1h1v1Zm4 6V6H5V5h1V3h1v2h1v1H7v2Zm0-6V1h1v1Zm0 0"/></symbol><symbol id="hd-icon-dinkie-icons-revert" viewBox="0 0 12 12"><path fill="currentColor" d="M3 12h1v-2h3v2h1V8H7v1H4V8H3Zm1-4h1V6H4ZM0 5h4V4H2V3H1V1H0Zm6 3h1V6H6ZM2 3h1V2H2Zm3 3h1V5H5Zm5 3h1V4h-1ZM3 2h5V1H3Zm5 1h1V2H8Zm1 1h1V3H9Zm0 0"/></symbol><symbol id="hd-icon-dinkie-icons-ribbon" viewBox="0 0 12 12"><path fill="currentColor" d="M7 12h2V9h2V2H8v1h2v5H8v3H7Zm-5 0h2v-1H3V8H1V3h2V2H0v7h2Zm2-1h1V8h1v3h1V8h1V7H7V6h1V5H7V4H4v1H3v1h1v1H3v1h1Zm1-4V5h1v2ZM3 4h1V3H3Zm4 0h1V3H7Zm0 0"/></symbol><symbol id="hd-icon-dinkie-icons-right-arrow-circled" viewBox="0 0 12 12"><path fill="currentColor" d="M5 10h1V9h1V8H6V7H4V6h2V5h1V4H6V3H5v2H3v3h2Zm-3 1h1v-1H2Zm-1-1h1V9H1ZM0 9h1V4H0Zm3 3h5v-1H3Zm5-1h1v-1H8ZM1 4h1V3H1Zm8 6h1V9H9ZM2 3h1V2H2Zm5 5h1V7H7Zm1-1h1V6H8ZM7 6h1V5H7Zm3 3h1V4h-1ZM3 2h5V1H3Zm5 1h1V2H8Zm1 1h1V3H9Zm0 0"/></symbol><symbol id="hd-icon-dinkie-icons-right-arrow-circled-filled" viewBox="0 0 12 12"><path fill="currentColor" d="M3 12h5v-1h2V9h1V4h-1V2H8V1H3v1H1v2H0v5h1v2h2Zm2-2V9h1V8H3V5h3V4H5V3h1v1h1v1h1v1h1v1H8v1H7v1H6v1Zm0 0"/></symbol><symbol id="hd-icon-dinkie-icons-right-arrow-circled-small" viewBox="0 0 8 8"><path fill="currentColor" d="M5 6H4v1h1Zm0 0h1V5h1V4H6V3H5v1H2v1h3ZM1 8h1V7H1ZM0 7h1V2H0Zm2 2h5V8H2ZM1 2h1V1H1Zm6 6h1V7H7ZM4 3h1V2H4ZM2 1h5V0H2Zm6 6h1V2H8ZM7 2h1V1H7Zm0 0"/></symbol><symbol id="hd-icon-dinkie-icons-right-arrow-circled-small-filled" viewBox="0 0 8 8"><path fill="currentColor" d="M2 9h5V8h1V7h1V2H8V1H7V0H2v1H1v1H0v5h1v1h1Zm2-1V7h1V6H2V3h3V2H4V1h1v1h1v1h1v1h1v1H7v1H6v1H5v1Zm0 0"/></symbol><symbol id="hd-icon-dinkie-icons-right-black-triangle" viewBox="0 0 12 12"><path fill="currentColor" d="M4 10h1V9h1V8h1V7h1V6H7V5H6V4H5V3H4Zm-4 1h1V2H0Zm1 1h9v-1H1Zm9-1h1V2h-1ZM1 2h9V1H1Zm0 0"/></symbol><symbol id="hd-icon-dinkie-icons-right-black-triangle-filled" viewBox="0 0 12 12"><path fill="currentColor" d="M1 12h9v-1h1V2h-1V1H1v1H0v9h1Zm3-2V3h1v1h1v1h1v1h1v1H7v1H6v1H5v1Zm0 0"/></symbol><symbol id="hd-icon-dinkie-icons-right-hook-arrow" viewBox="0 0 12 12"><path fill="currentColor" d="M6 10h1V9h1V8h1V7H8V6H7V5H6v1H4V4h5V3H3v1H2v4h1v1h3Zm-6 1h1V2H0Zm1 1h9v-1H1Zm9-1h1V2h-1ZM1 2h9V1H1Zm0 0"/></symbol><symbol id="hd-icon-dinkie-icons-right-hook-arrow-filled" viewBox="0 0 12 12"><path fill="currentColor" d="M1 12h9v-1h1V2h-1V1H1v1H0v9h1Zm5-2V9H3V8H2V4h1V3h6v1H4v2h2V5h1v1h1v1h1v1H8v1H7v1Zm0 0"/></symbol><symbol id="hd-icon-dinkie-icons-right-hook-arrow-small" viewBox="0 0 8 8"><path fill="currentColor" d="M5 7h1V6h1V5H6V4H5v1H3v1h2ZM0 8h1V1H0Zm1 1h7V8H1Zm1-4h1V3H2Zm1-2h4V2H3Zm5 5h1V1H8ZM1 1h7V0H1Zm0 0"/></symbol><symbol id="hd-icon-dinkie-icons-right-hook-arrow-small-filled" viewBox="0 0 8 8"><path fill="currentColor" d="M1 9h7V8h1V1H8V0H1v1H0v7h1Zm4-2V6H3V5H2V3h1V2h4v1H3v2h2V4h1v1h1v1H6v1Zm0 0"/></symbol><symbol id="hd-icon-dinkie-icons-right-magnifying-glass" viewBox="0 0 12 12"><path fill="currentColor" d="M10 8H9v1h1Zm0 0h1V3h-1Zm-9 4h2v-1H1Zm-1-1h1V9H0Zm1-2h1V8H1Zm2 2h1v-1H3Zm0-2h1V8H3ZM2 8h1V3H2Zm2 2h5V9H4Zm0-3h1V4H4Zm1 1h3V7H5ZM3 3h1V2H3Zm2 1h3V3H5Zm3 3h1V4H8ZM4 2h5V1H4Zm5 1h1V2H9Zm0 0"/></symbol><symbol id="hd-icon-dinkie-icons-right-magnifying-glass-filled" viewBox="0 0 12 12"><path fill="currentColor" d="M5 8H4V7H3v1H1v1H0v2h1v1h2v-1h1V9h1Zm0 0h3V7h1V4H8V3H5v1H4v3h1ZM2 7h1V3H2Zm3 3h4V9H5ZM3 3h1V2H3Zm6 6h1V8H9ZM4 2h5V1H4Zm6 6h1V3h-1ZM9 3h1V2H9Zm0 0"/></symbol><symbol id="hd-icon-dinkie-icons-right-magnifying-glass-small" viewBox="0 0 8 8"><path fill="currentColor" d="M2 8H1V7H0v2h2Zm0 0h1V6H1v1h1Zm1-2h1V5H3Zm1 1h3V6H4ZM2 5h1V2H2Zm5 1h1V5H7ZM3 2h1V1H3Zm5 3h1V2H8ZM4 1h3V0H4Zm3 1h1V1H7Zm0 0"/></symbol><symbol id="hd-icon-dinkie-icons-right-magnifying-glass-small-filled" viewBox="0 0 8 8"><path fill="currentColor" d="M4 5H3v1h1Zm0 0h3V2H4ZM0 9h2V8h1V6H1v1H0Zm4-2h3V6H4ZM2 5h1V2H2Zm5 1h1V5H7ZM3 2h1V1H3Zm5 3h1V2H8ZM4 1h3V0H4Zm3 1h1V1H7Zm0 0"/></symbol><symbol id="hd-icon-dinkie-icons-right-then-curving-down-arrow" viewBox="0 0 12 12"><path fill="currentColor" d="M6 10h1V9h1V8h1V7H8V4H7V3H2v2h3v2H4v1h1v1h1Zm-6 1h1V2H0Zm1 1h9v-1H1Zm9-1h1V2h-1ZM1 2h9V1H1Zm0 0"/></symbol><symbol id="hd-icon-dinkie-icons-right-then-curving-down-arrow-filled" viewBox="0 0 12 12"><path fill="currentColor" d="M1 12h9v-1h1V2h-1V1H1v1H0v9h1Zm5-2V9H5V8H4V7h1V5H2V3h5v1h1v3h1v1H8v1H7v1Zm0 0"/></symbol><symbol id="hd-icon-dinkie-icons-right-then-curving-down-arrow-small" viewBox="0 0 8 8"><path fill="currentColor" d="M5 7h1V6h1V5H6V3H5v2H4v1h1ZM1 9h7V8H1ZM0 8h1V1H0Zm2-5h3V2H2ZM1 1h7V0H1Zm7 7h1V1H8Zm0 0"/></symbol><symbol id="hd-icon-dinkie-icons-right-then-curving-down-arrow-small-filled" viewBox="0 0 8 8"><path fill="currentColor" d="M1 9h7V8h1V1H8V0H1v1H0v7h1Zm4-2V6H4V5h1V3H2V2h3v1h1v2h1v1H6v1Zm0 0"/></symbol><symbol id="hd-icon-dinkie-icons-right-then-curving-up-arrow" viewBox="0 0 12 12"><path fill="currentColor" d="M2 10h5V9h1V6h1V5H8V4H7V3H6v1H5v1H4v1h1v2H2Zm-2 1h1V2H0Zm1 1h9v-1H1Zm9-1h1V2h-1ZM1 2h9V1H1Zm0 0"/></symbol><symbol id="hd-icon-dinkie-icons-right-then-curving-up-arrow-filled" viewBox="0 0 12 12"><path fill="currentColor" d="M1 12h9v-1h1V2h-1V1H1v1H0v9h1Zm2-2V8h2V6H4V5h1V4h1V3h1v1h1v1h1v1H8v3H7v1Zm0 0"/></symbol><symbol id="hd-icon-dinkie-icons-right-then-curving-up-arrow-small" viewBox="0 0 8 8"><path fill="currentColor" d="M5 6H2v1h3Zm0 0h1V4h1V3H6V2H5v1H4v1h1ZM1 9h7V8H1ZM0 8h1V1H0Zm8 0h1V1H8ZM1 1h7V0H1Zm0 0"/></symbol><symbol id="hd-icon-dinkie-icons-right-then-curving-up-arrow-small-filled" viewBox="0 0 8 8"><path fill="currentColor" d="M1 9h7V8h1V1H8V0H1v1H0v7h1Zm1-2V6h3V4H4V3h1V2h1v1h1v1H6v2H5v1Zm0 0"/></symbol><symbol id="hd-icon-dinkie-icons-roasted-sweet-potato" viewBox="0 0 12 12"><path fill="currentColor" d="M5 11h3v-1H7V9H6V8H5V7H4V6h1v1h1V5h1V4H5v1H1v2h1v1h1v1h1v1h1ZM0 5h1V3H0Zm6 3h1V7H6Zm1 1h1V8H7ZM1 3h3V2H1Zm7 9h2v-1h1V7h-1v1H9v1h1v1H9v1H8Zm0-2h1V9H8Zm0-2h1V7H8ZM7 6h1V5H7Zm2 1h1V5H9ZM4 2h4V1H4Zm4 3h1V2H8v1H7v1h1Zm0 0"/></symbol><symbol id="hd-icon-dinkie-icons-robot" viewBox="0 0 12 12"><path fill="currentColor" d="M3 12h5v-2h2V7H9v2H8V7h1V5h1V3H8v3H3V3H1v2h1v2h1v2H2V7H1v3h2Zm1-1v-1h1v1Zm2 0v-1h1v1ZM4 9V7h3v2Zm0-4h1V4H4Zm2 0h1V4H6ZM3 3h5V2H6V1H5v1H3Zm0 0"/></symbol><symbol id="hd-icon-dinkie-icons-robot-face" viewBox="0 0 12 12"><path fill="currentColor" d="M2 12h7v-1H8V9H3v2H2Zm-1-1h1V5H1v1H0v3h1Zm3 0v-1h3v1ZM3 8h2V6H3Zm3 0h2V6H6ZM2 5h7V4H6V3H5v1H2Zm7 6h1V9h1V6h-1V5H9ZM4 3h1V2h1v1h1V1H4Zm0 0"/></symbol><symbol id="hd-icon-dinkie-icons-robot-filled" viewBox="0 0 12 12"><path fill="currentColor" d="M2 6h7V5h1V3H8V2H6V1H5v1H3v1H1v2h1Zm1 6h2v-2h1v2h2v-2h2V7H9v1H8V7H3v1H2V7H1v3h2Zm1-7V4h1v1Zm2 0V4h1v1Zm0 0"/></symbol><symbol id="hd-icon-dinkie-icons-rocket" viewBox="0 0 12 12"><path fill="currentColor" d="M4 12h1v-1h1v-1h1V7H6v1H5v1H4Zm-4 0h2v-1H1v-1H0Zm2-1h1V9H1v1h1Zm1-2h1V8H3ZM0 8h3V7h1V6h1V5H2v1H1v1H0Zm5-1h1V6H5Zm0-2h1V4H5Zm2 2h1V6H7ZM6 4h1V3H6Zm2 2h1V5H8ZM7 5h1V4H7Zm0-2h1V2H7Zm2 2h1V4H9Zm1-1h1V1H8v1h2ZM8 4h1V3H8Zm0 0"/></symbol><symbol id="hd-icon-dinkie-icons-rose" viewBox="0 0 12 12"><path fill="currentColor" d="M5 9h1V7h1V6H6V4H5V3H4V2H2v1h1v3h1v1h1Zm0 3h1v-2H4V9H3V8H1v1h1v1h1v1h2Zm2-2h2V9h1V8H8v1H7ZM4 2h1V1H4Zm1 1h1V2H5Zm2 3h1V3h1V2H7v1H6v1h1ZM6 2h1V1H6Zm0 0"/></symbol><symbol id="hd-icon-dinkie-icons-rostrum" viewBox="0 0 12 12"><path fill="currentColor" d="M3 12h5V9h2V6H8V4H7v2H6V5H5v1H4V4H3v2H1v3h2Zm1-1V9h3v2ZM2 8V7h7v1Zm2-4h3V2H6v1H5V2H4Zm1-2h1V1H5Zm0 0"/></symbol><symbol id="hd-icon-dinkie-icons-round-pushpin" viewBox="0 0 12 12"><path fill="currentColor" d="M5 12h1V8h1V7H6V6H5v1H4v1h1ZM3 7h1V6H3ZM2 6h1V3H2Zm1-3h1V2H3Zm4 4h1V6H7ZM4 2h3V1H4Zm4 4h1V3H8ZM7 3h1V2H7Zm0 0"/></symbol><symbol id="hd-icon-dinkie-icons-round-pushpin-filled" viewBox="0 0 12 12"><path fill="currentColor" d="M5 12h1V7h2V6h1V2H8V1H3v1H2v4h1v1h2Zm2-8V3H6V2h1v1h1v1Zm0 0"/></symbol><symbol id="hd-icon-dinkie-icons-round-pushpin-small" viewBox="0 0 8 8"><path fill="currentColor" d="M4 9h1V5h1V4H3v1h1ZM2 4h1V1H2Zm4 0h1V1H6ZM3 1h3V0H3Zm0 0"/></symbol><symbol id="hd-icon-dinkie-icons-round-pushpin-small-filled" viewBox="0 0 8 8"><path fill="currentColor" d="M4 9h1V5h1V4h1V1H6v1H5V1h1V0H3v1H2v3h1v1h1Zm0 0"/></symbol><symbol id="hd-icon-dinkie-icons-ruler-right-angle" viewBox="0 0 12 12"><path fill="currentColor" d="M0 12h11V6H6V1H0Zm3-1V9H1V8h1V7H1V6h2V5H1V4h1V3H1V2h4v5h5v4H9v-1H8v1H7V9H6v2H5v-1H4v1Zm-2 0v-1h1v1Zm0 0"/></symbol><symbol id="hd-icon-dinkie-icons-sandwich" viewBox="0 0 12 12"><path fill="currentColor" d="M8 12h3V2h-1v4H9v1h1v1H8V7H6V6H4V5H2V3h1V2h7V1H1v3H0v1h1v3h1V6h1v1h2v1h2v1h2v1h1v1H8ZM2 9h2V8H2Zm2 1h2V9H4Zm2 1h2v-1H6ZM3 4h2V3H3Zm2 1h2V4H5Zm2 1h2V5H7Zm0 0"/></symbol><symbol id="hd-icon-dinkie-icons-satellite" viewBox="0 0 12 12"><path fill="currentColor" d="M8 12h1v-1h1v-1h1V9h-1V8H9V7H8v1H7v1H6v1h1v1h1Zm-6-1h2v-1H2Zm-1-1h1V8H1Zm1-2h1V7H2Zm2 2h1V9H4Zm1-1h1V8H5ZM3 7h1V6H3Zm3 1h1V7H6ZM5 7h1V6H5ZM4 6h1V5H4ZM2 6h1V5h1V4h1V3H4V2H3V1H2v1H1v1H0v1h1v1h1Zm3-1h2V4H5Zm2 2h1V5H7Zm0-3h1V2H7Zm1 1h2V4H8Zm0-3h2V1H8Zm2 2h1V2h-1Zm0 0"/></symbol><symbol id="hd-icon-dinkie-icons-satellite-antenna" viewBox="0 0 12 12"><path fill="currentColor" d="M6 10H5v1H4v1h6v-2H9v1H6Zm0 0h1V8h1V5h1V1H8v2H7v2H6v1H5v1H3v1H1v1h4V8h1ZM0 8h1V5H0Zm1-3h1V3H1Zm7 5h1V8H8ZM3 4h1V3H3Zm1 1h1V4H4ZM1 2h1V1H1Zm2 0h2V1H3Zm2-1h3V0H5Zm0 0"/></symbol><symbol id="hd-icon-dinkie-icons-sauropod" viewBox="0 0 12 12"><path fill="currentColor" d="M2 12h3v-2h1v2h3v-2h1v2h1V8h-1v1H8v2H7V9H4v2H3V9H2ZM1 9h1V3H1V2H0v2h1Zm2-2h2V6H4V1H1v1h2Zm2-1h3V5H5Zm3 1h1V6H8Zm1 1h1V7H9Zm0 0"/></symbol><symbol id="hd-icon-dinkie-icons-saxophone" viewBox="0 0 12 12"><path fill="currentColor" d="M8 11H2v1h6Zm0 0h1V2h2V1H7v1h1Zm-7 0h1V8h1V7H1V6H0v2h1Zm0-5h1V5H1Zm3 4h3V9H5V4H2v1h2v1H3v1h1Zm2-2h1V7H6Zm0-2h1V5H6Zm0-2h1V3H6Zm0 0"/></symbol><symbol id="hd-icon-dinkie-icons-saxophone-filled" viewBox="0 0 12 12"><path fill="currentColor" d="M2 12h6v-1h1V2h2V1H8v1H7v1H6v1h1v1H6v1h1v1H6v1h1v1H5V4H2v1h2v1H3v1H1V6H0v2h1v3h1ZM1 6h1V5H1Zm0 0"/></symbol><symbol id="hd-icon-dinkie-icons-scales" viewBox="0 0 12 12"><path fill="currentColor" d="M5 10H4v1H1v1h9v-1H7v-1H6v1H5Zm0 0h1V3h3v3h1V3h1V2H6V1H5v1H0v1h1v3h1V3h3ZM0 9h3V6H2v2H1V6H0Zm8 0h3V6h-1v2H9V6H8Zm0 0"/></symbol><symbol id="hd-icon-dinkie-icons-scan" viewBox="0 0 12 12"><path fill="currentColor" d="M1 4h1V3h7v1h1V2H1Zm0 7h9V9H9v1H2V9H1ZM0 7h11V6H0Zm0 0"/></symbol><symbol id="hd-icon-dinkie-icons-scan-small" viewBox="0 0 8 8"><path fill="currentColor" d="M1 3h1V2h5v1h1V1H1Zm0 5h7V6H7v1H2V6H1ZM0 5h9V4H0Zm0 0"/></symbol><symbol id="hd-icon-dinkie-icons-secret-han-circled" viewBox="0 0 12 12"><path fill="currentColor" d="M3 10h1V8h2V6H5v1H4V6h1V5H4V4h1V3H2v1h1v1H2v1h1v1H2v2h1Zm-2 1h1v-1H1Zm-1-1h1V3H0Zm2 2h7v-1H2Zm3-2h1V9H5Zm1-1h1V8H6Zm1 1h2V8H8v1H7Zm2 1h1v-1H9ZM1 3h1V2H1Zm6 5h1V7h1V6H8V5H7ZM6 5h1V3H6Zm4 5h1V3h-1ZM2 2h7V1H2Zm6 3h1V3H8Zm1-2h1V2H9Zm0 0"/></symbol><symbol id="hd-icon-dinkie-icons-secret-han-circled-filled" viewBox="0 0 12 12"><path fill="currentColor" d="M3 12h5v-1h2V9h1V4h-1V2H8V1H3v1H1v2H0v5h1v2h2Zm0-2V9H2V7h1V6H2V5h1V4H2V3h3v1H4v1h1v1h1v2h1V5H6V3h1v2h1V3h1v2H8v1h1v1H8v1h1v2H7V9H6v1H5V9h1V8H4v2Zm1-3h1V6H4Zm3 2h1V8H7Zm0 0"/></symbol><symbol id="hd-icon-dinkie-icons-seedling" viewBox="0 0 12 12"><path fill="currentColor" d="M4 6H2v1h2Zm0 0h2V5h2V4H6V3H5v2H4ZM0 9h1V8h1V7H1V5H0Zm5 3h2V6H6v4H5ZM1 5h3V4H1Zm5-2h1V2H6Zm2 1h1V3H8ZM7 2h2V1H7Zm2 1h2V2H9Zm0 0"/></symbol><symbol id="hd-icon-dinkie-icons-seven-of-bamboos-mahjong" viewBox="0 0 12 12"><path fill="currentColor" d="M5 4h1V2h3V1H2v1h3Zm-3 8h7v-1H2Zm1-2h1V8H3Zm-2 1h1V2H1Zm4-1h1V8H5ZM3 7h1V5H3Zm4 3h1V8H7ZM5 7h1V5H5Zm2 0h1V5H7Zm2 4h1V2H9Zm0 0"/></symbol><symbol id="hd-icon-dinkie-icons-seven-of-bamboos-mahjong-filled" viewBox="0 0 12 12"><path fill="currentColor" d="M2 12h7v-1h1V2H9V1H2v1H1v9h1Zm1-2V8h1v2Zm2 0V8h1v2ZM3 7V5h1v2Zm4 3V8h1v2ZM5 7V5h1v2Zm2 0V5h1v2ZM5 4V2h1v2Zm0 0"/></symbol><symbol id="hd-icon-dinkie-icons-seven-of-characters-mahjong" viewBox="0 0 12 12"><path fill="currentColor" d="M2 12h7v-1h1V2H9V1H2v1H1v9h1Zm1-1V9h1V8H3V7h1V6h1v1h1V6h1v1h1v1H7v1h1v2H7V9H6v1H5V9H4v2Zm2-6V4H3V3h2V2h3v1H6v1h2v1Zm0 0"/></symbol><symbol id="hd-icon-dinkie-icons-seven-of-circles-mahjong" viewBox="0 0 12 12"><path fill="currentColor" d="M9 11H2v1h7Zm0 0h1V2H9Zm-5-1h1V9H4Zm-3 1h1V2H1Zm3-3h1V7H4Zm2 2h1V9H6Zm0-2h1V7H6ZM3 4h1V3H3Zm2 1h1V4H5Zm2 1h1V5H7ZM2 2h7V1H2Zm0 0"/></symbol><symbol id="hd-icon-dinkie-icons-seven-of-circles-mahjong-filled" viewBox="0 0 12 12"><path fill="currentColor" d="M2 12h7v-1h1V2H9V1H2v1H1v9h1Zm2-2V9h1v1Zm0-2V7h1v1Zm2 2V9h1v1Zm0-2V7h1v1ZM3 4V3h1v1Zm2 1V4h1v1Zm2 1V5h1v1Zm0 0"/></symbol><symbol id="hd-icon-dinkie-icons-shamrock" viewBox="0 0 12 12"><path fill="currentColor" d="M5 11H4v1h1Zm0 0h1V8h1V7H6V5H5v2H4v1h1ZM0 9h1V8H0Zm1 1h2V9H1ZM0 7h1V6H0Zm1 1h1V7H1Zm2 1h1V8H3ZM1 6h2V5H1Zm2 1h1V6H3Zm4 2h1V8H7Zm1 1h2V9H8ZM4 5h1V4H4ZM3 4h1V2H3Zm4 3h1V6H7Zm3 2h1V8h-1ZM9 8h1V7H9ZM6 5h1V4H6ZM4 2h1V1H4Zm1 1h1V2H5Zm3 3h2V5H8Zm2 1h1V6h-1ZM7 4h1V2H7ZM6 2h1V1H6Zm0 0"/></symbol><symbol id="hd-icon-dinkie-icons-share" viewBox="0 0 12 12"><path fill="currentColor" d="M0 12h10V6H9v5H1V4h5V3H0Zm4-4h1V7H4Zm1-1h1V6H5Zm1-1h1V5H6Zm4-1h1V1H7v1h2v1h1ZM7 5h1V4H7Zm1-1h1V3H8Zm0 0"/></symbol><symbol id="hd-icon-dinkie-icons-shark" viewBox="0 0 12 12"><path fill="currentColor" d="M10 12h1V5h-1v3H9v1h1v1H8v1h2ZM0 7h3V6H1V3H0Zm1-4h1V2H1Zm5 5h1V7h1V6H5V5H3v1h1v1h2ZM3 4h1V3H3Zm5 4h1V7H8ZM2 2h5V1H2Zm7 3h1V4H9ZM8 4h1V3h2V2H7v1h1Zm0 0"/></symbol><symbol id="hd-icon-dinkie-icons-shield" viewBox="0 0 12 12"><path fill="currentColor" d="M9 8H8v2h1Zm0 0h1V3H8V2H6v4h3Zm-6 3h1v-1H3Zm-1-1h1V8H2Zm2 2h3v-1H6V6H5v5H4Zm3-1h1v-1H7ZM1 8h1V6h3V2H3v1H1Zm4-6h1V1H5Zm0 0"/></symbol><symbol id="hd-icon-dinkie-icons-shinto-shrine" viewBox="0 0 12 12"><path fill="currentColor" d="M1 12h3v-1H3V7h5v4H7v1h3v-1H9V7h2V6H9V4h1V3h1V1h-1v1H1V1H0v2h1v1h1v2H0v1h2v4H1Zm2-6V4h2v2Zm3 0V4h2v2Zm0 0"/></symbol><symbol id="hd-icon-dinkie-icons-ship" viewBox="0 0 12 12"><path fill="currentColor" d="M3 8h8V7H5V6h6V5H6V4h5V1H9v2H8V1H6v2H5v2H4v2H3ZM0 9h1V7h2V6H0Zm2 3h9V9H1v2h1Zm0 0"/></symbol><symbol id="hd-icon-dinkie-icons-shocked-face-with-exploding-head" viewBox="0 0 12 12"><path fill="currentColor" d="M3 11h5V9H7v1H4V9H3Zm-2 1h1v-1H1Zm-1-1h1V5H0Zm2-3h1V7H2Zm2 1h3V8H4ZM1 5h1V4H1Zm8 7h1v-1H9ZM1 3h1V2H1ZM0 2h1V1H0Zm2 4h7V5H2Zm6 2h1V7H8ZM4 4h1V3H4ZM3 3h1V2H3Zm7 8h1V5h-1ZM6 4h1V3H6ZM5 3h1V1H5Zm4 2h1V4H9ZM7 2h1V1H7Zm2 1h1V2H9Zm1-1h1V1h-1Zm0 0"/></symbol><symbol id="hd-icon-dinkie-icons-shopping-bag" viewBox="0 0 12 12"><path fill="currentColor" d="M1 12h9V4H8V2H7v2H4V2H3v2H1Zm1-1V5h1v1h1V5h3v1h1V5h1v6Zm2-9h3V1H4Zm0 0"/></symbol><symbol id="hd-icon-dinkie-icons-shopping-trolley" viewBox="0 0 12 12"><path fill="currentColor" d="M2 12h2v-2h4v2h2v-2H9V2H8v1H0v4h1V6h1v1H1v1h7v1H0v1h2ZM1 5V4h1v1Zm2 2V6h1v1Zm0-2V4h1v1Zm2 2V6h1v1Zm0-2V4h1v1Zm2 2V6h1v1Zm0-2V4h1v1Zm2-3h2V1H9Zm0 0"/></symbol><symbol id="hd-icon-dinkie-icons-shopping-trolley-small" viewBox="0 0 8 8"><path fill="currentColor" d="M1 9h2V8h3v1h2V7H7V1H0v4h1V4h1v1H1v1h5v1H0v1h1Zm0-6V2h1v1Zm2 2V4h1v1Zm0-2V2h1v1Zm2 2V4h1v1Zm0-2V2h1v1Zm2-2h2V0H7Zm0 0"/></symbol><symbol id="hd-icon-dinkie-icons-shortcake" viewBox="0 0 12 12"><path fill="currentColor" d="M7 12h2v-1h1V9h1V3h-1v3H9v2H8v3H7ZM1 9h2V8H1Zm2 1h2V9H3Zm2 1h2v-1H5ZM0 8h1V5h1V4h2V3H0Zm2-2h2V5H2Zm2 1h2V6H4Zm2 1h2V7H6ZM5 4h1V2H5Zm1 1h2V4H6Zm2-1h1V2H8ZM6 2h2V1H6Zm0 0"/></symbol><symbol id="hd-icon-dinkie-icons-shorts" viewBox="0 0 12 12"><path fill="currentColor" d="M0 11h5V8H4v2H1V5h9v5H7V8H6v3h5V2H0Zm5-3h1V6H5ZM1 4V3h3v1Zm4 0V3h1v1Zm2 0V3h3v1Zm0 0"/></symbol><symbol id="hd-icon-dinkie-icons-shrug" viewBox="0 0 12 12"><path fill="currentColor" d="M3 12h5v-2h1v1h1V6H9v3H8V7H6v1H5V7H3v2h1v2H3Zm-2-1h1v-1h1V9H2V6H1ZM0 6h1V5H0Zm4 0h3V5H4ZM3 5h1V4h1V3h1v1h1v1h1V2H7V1H4v1H3Zm7 1h1V5h-1Zm0 0"/></symbol><symbol id="hd-icon-dinkie-icons-shuffle-arrows" viewBox="0 0 12 12"><path fill="currentColor" d="M1 2H0v9h1Zm0 0h9V1H1Zm1 7h1V8H2Zm-1 3h9v-1H1Zm2-4h1V7H3ZM2 5h1V4H2Zm1 1h1V5H3Zm1 1h1V6H4Zm1 1h1V7H5Zm2 2h1V9h1V8H8V7H7v1H6v1h1ZM5 6h1V5H5Zm2 0h1V5h1V4H8V3H7v1H6v1h1Zm3 5h1V2h-1Zm0 0"/></symbol><symbol id="hd-icon-dinkie-icons-shuffle-arrows-filled" viewBox="0 0 12 12"><path fill="currentColor" d="M1 12h9v-1h1V2h-1V1H1v1H0v9h1Zm7-2V9H6V8H5V7H4v1H3v1H1V8h2V7h1V6H3V5H1V4h2v1h1v1h1V5h1V4h2V3h1v1h1v1H9v1H8V5H6v1H5v1h1v1h2V7h1v1h1v1H9v1Zm0 0"/></symbol><symbol id="hd-icon-dinkie-icons-sina-weibo" viewBox="0 0 12 12"><path fill="currentColor" d="M9 9H8v1h1Zm0 0h1V8h1V5H9V2H7v1H6V1H4v1H3v1H2v1H1v2h1V5h6v1h1Zm-8 1h1V9H1ZM0 9h1V6H0Zm2 2h6v-1H2Zm2-2h3V6H3v2h1V7h1v1H4Zm0 0"/></symbol><symbol id="hd-icon-dinkie-icons-sina-weibo-small" viewBox="0 0 8 8"><path fill="currentColor" d="M7 7H1v1h6Zm0 0h1V6h1V3H8V1H6v1H5V0H3v1H2v1H1v2h1V3h4v1h1ZM0 7h1V4H0Zm3-1h2V4H3Zm0 0"/></symbol><symbol id="hd-icon-dinkie-icons-six-of-bamboos-mahjong" viewBox="0 0 12 12"><path fill="currentColor" d="M9 11H2v1h7Zm0 0h1V2H9Zm-6-1h1V7H3Zm-2 1h1V2H1Zm4-1h1V7H5ZM3 6h1V3H3Zm4 4h1V7H7ZM5 6h1V3H5Zm2 0h1V3H7ZM2 2h7V1H2Zm0 0"/></symbol><symbol id="hd-icon-dinkie-icons-six-of-bamboos-mahjong-filled" viewBox="0 0 12 12"><path fill="currentColor" d="M2 12h7v-1h1V2H9V1H2v1H1v9h1Zm1-2V7h1v3Zm2 0V7h1v3ZM3 6V3h1v3Zm4 4V7h1v3ZM5 6V3h1v3Zm2 0V3h1v3Zm0 0"/></symbol><symbol id="hd-icon-dinkie-icons-six-of-characters-mahjong" viewBox="0 0 12 12"><path fill="currentColor" d="M2 12h7v-1h1V2H9V1H2v1H1v9h1Zm1-1V9h1V8H3V7h1V6h1v1h1V6h1v1h1v1H7v1h1v2H7V9H6v1H5V9H4v2Zm1-6V4H3V3h2V2h1v1h2v1H7v1H6V4H5v1Zm0 0"/></symbol><symbol id="hd-icon-dinkie-icons-six-of-circles-mahjong" viewBox="0 0 12 12"><path fill="currentColor" d="M9 11H2v1h7Zm0 0h1V2H9Zm-5-1h1V9H4Zm-3 1h1V2H1Zm3-3h1V7H4Zm2 2h1V9H6Zm0-2h1V7H6ZM4 4h1V3H4Zm2 0h1V3H6ZM2 2h7V1H2Zm0 0"/></symbol><symbol id="hd-icon-dinkie-icons-six-of-circles-mahjong-filled" viewBox="0 0 12 12"><path fill="currentColor" d="M2 12h7v-1h1V2H9V1H2v1H1v9h1Zm2-2V9h1v1Zm0-2V7h1v1Zm2 2V9h1v1Zm0-2V7h1v1ZM4 4V3h1v1Zm2 0V3h1v1Zm0 0"/></symbol><symbol id="hd-icon-dinkie-icons-size-emoji" viewBox="0 0 12 12"><path fill="currentColor" d="M10 12h1V1H0v1h10ZM0 12h9V3H0Zm1-1V4h7v7Zm1-2h1V8H2Zm1 1h3V9H3Zm0-3h1V5H3Zm3 2h1V8H6ZM5 7h1V5H5Zm0 0"/></symbol><symbol id="hd-icon-dinkie-icons-size-emoji-small" viewBox="0 0 8 8"><path fill="currentColor" d="M8 9h1V0H0v1h8ZM0 9h7V2H0Zm1-1V3h5v5Zm1-1h3V6H2Zm0-2h1V4H2Zm2 0h1V4H4Zm0 0"/></symbol><symbol id="hd-icon-dinkie-icons-size-text" viewBox="0 0 12 12"><path fill="currentColor" d="M10 12h1V1H0v1h10ZM0 12h9V3H0Zm1-1V4h7v7Zm2-1h1V9h2v1h1V6H6v2H4V7H3Zm1-3h1V6H4Zm1-1h1V5H5Zm0 0"/></symbol><symbol id="hd-icon-dinkie-icons-size-text-filled" viewBox="0 0 12 12"><path fill="currentColor" d="M10 12h1V1H0v1h10ZM0 12h9V3H0Zm3-2V7h1V6h1V5h1v1h1v4H6V9H4v1Zm1-2h2V6H5v1H4Zm0 0"/></symbol><symbol id="hd-icon-dinkie-icons-size-text-small" viewBox="0 0 8 8"><path fill="currentColor" d="M8 9h1V0H0v1h8ZM0 9h7V2H0Zm1-1V3h2v1h1V3h2v5Zm1-1h1V6h1v1h1V4H4v1H3V4H2Zm0 0"/></symbol><symbol id="hd-icon-dinkie-icons-size-text-small-filled" viewBox="0 0 8 8"><path fill="currentColor" d="M8 9h1V0H0v1h8ZM0 9h7V2H0Zm1-1V5h1V4h1V3h1v1h1v4H4V7H2v1Zm1-2h2V4H3v1H2Zm0 0"/></symbol><symbol id="hd-icon-dinkie-icons-skull" viewBox="0 0 12 12"><path fill="currentColor" d="M3 12h5v-1H7v-1h1v1h1V8H8v1H3V8H2v3h1v-1h1v1H3ZM1 8h1V6H1Zm4 3v-1h1v1ZM0 6h1V3H0Zm5 2h1V7H5ZM1 3h1V2H1Zm2 3h2V4H3Zm3 0h2V4H6Zm3 2h1V6H9ZM2 2h7V1H2Zm8 4h1V3h-1ZM9 3h1V2H9Zm0 0"/></symbol><symbol id="hd-icon-dinkie-icons-sleeping-face" viewBox="0 0 12 12"><path fill="currentColor" d="M2 12h7v-1H8v-1H7v1H4v-1H3v1H2Zm-1-1h1v-1H1Zm-1-1h1V4H0Zm2-3h1V6H2Zm1 1h1V7H3Zm1 2h3V9H4Zm0-3h1V6H4ZM1 4h1V3H1Zm8 7h1v-1H9ZM6 7h1V6H6Zm1 1h1V7H7ZM2 3h2V2H2Zm6 4h1V6H8Zm2 3h1V6h-1ZM6 5h2V4H7V2H5v1h1Zm3 0h2V4h-1V1H8v1h1Zm0 0"/></symbol><symbol id="hd-icon-dinkie-icons-slice-of-pizza" viewBox="0 0 12 12"><path fill="currentColor" d="M0 11h11v-1h-1V9H9V8H8V7H7V6H6V5H5V3H2v1h2v1H3v2H2v3H1V6H0Zm3-1V9h1v1ZM1 6h1V4H1Zm4 3V8h1v1Zm2 1V9h1v1ZM4 7V6h1v1Zm0 0"/></symbol><symbol id="hd-icon-dinkie-icons-slightly-frowning-face" viewBox="0 0 12 12"><path fill="currentColor" d="M10 10H9v1h1Zm0 0h1V3h-1Zm-9 1h1v-1H1Zm1 1h7v-1H2Zm-2-2h1V3H0Zm3 0h1V9H3Zm1-1h3V8H4Zm3 1h1V9H7ZM3 6h1V4H3ZM1 3h1V2H1Zm6 3h1V4H7ZM2 2h7V1H2Zm7 1h1V2H9Zm0 0"/></symbol><symbol id="hd-icon-dinkie-icons-slightly-frowning-face-filled" viewBox="0 0 12 12"><path fill="currentColor" d="M3 12h5v-1h2V9h1V4h-1V2H8V1H3v1H1v2H0v5h1v2h2Zm0-2V9h1V8h3v1h1v1H7V9H4v1Zm0-4V4h1v2Zm4 0V4h1v2Zm0 0"/></symbol><symbol id="hd-icon-dinkie-icons-slightly-frowning-face-small" viewBox="0 0 8 8"><path fill="currentColor" d="M8 7H7v1h1Zm0 0h1V2H8ZM1 8h1V7H1ZM0 7h1V2H0Zm2 0h1V6H2Zm0 2h5V8H2Zm1-3h3V5H3ZM1 2h1V1H1Zm5 5h1V6H6ZM3 4h1V2H3Zm2 0h1V2H5ZM2 1h5V0H2Zm5 1h1V1H7Zm0 0"/></symbol><symbol id="hd-icon-dinkie-icons-slightly-frowning-face-small-filled" viewBox="0 0 8 8"><path fill="currentColor" d="M2 9h5V8h1V7h1V2H8V1H7V0H2v1H1v1H0v5h1v1h1Zm0-2V6h1V5h3v1h1v1H6V6H3v1Zm1-3V2h1v2Zm2 0V2h1v2Zm0 0"/></symbol><symbol id="hd-icon-dinkie-icons-slightly-smiling-face" viewBox="0 0 12 12"><path fill="currentColor" d="M10 10H9v1h1Zm0 0h1V3h-1Zm-9 1h1v-1H1Zm1 1h7v-1H2Zm-2-2h1V3H0Zm3-1h1V8H3Zm1 1h3V9H4ZM3 6h1V4H3ZM1 3h1V2H1Zm6 6h1V8H7Zm0-3h1V4H7ZM2 2h7V1H2Zm7 1h1V2H9Zm0 0"/></symbol><symbol id="hd-icon-dinkie-icons-slightly-smiling-face-filled" viewBox="0 0 12 12"><path fill="currentColor" d="M3 12h5v-1h2V9h1V4h-1V2H8V1H3v1H1v2H0v5h1v2h2Zm1-2V9H3V8h1v1h3V8h1v1H7v1ZM3 6V4h1v2Zm4 0V4h1v2Zm0 0"/></symbol><symbol id="hd-icon-dinkie-icons-slightly-smiling-face-small" viewBox="0 0 8 8"><path fill="currentColor" d="M8 7H7v1h1Zm0 0h1V2H8ZM1 8h1V7H1Zm1 1h5V8H2ZM0 7h1V2H0Zm2-1h1V5H2Zm1 1h3V6H3ZM1 2h1V1H1Zm2 2h1V2H3Zm3 2h1V5H6ZM5 4h1V2H5ZM2 1h5V0H2Zm5 1h1V1H7Zm0 0"/></symbol><symbol id="hd-icon-dinkie-icons-slightly-smiling-face-small-filled" viewBox="0 0 8 8"><path fill="currentColor" d="M2 9h5V8h1V7h1V2H8V1H7V0H2v1H1v1H0v5h1v1h1Zm1-2V6H2V5h1v1h3V5h1v1H6v1Zm0-3V2h1v2Zm2 0V2h1v2Zm0 0"/></symbol><symbol id="hd-icon-dinkie-icons-slot-machine" viewBox="0 0 12 12"><path fill="currentColor" d="M0 12h11V5h-1v4H9v1H7V9H6v1H4V9H3v1H1V7H0Zm2-4h1V5H1v1h1Zm3 0h1V5H4v1h1Zm3 0h1V5H7v1h1ZM0 4h1V3h2v1h1V3h2v1h1V3h2v1h2V2h-1V1H1v1H0Zm0 0"/></symbol><symbol id="hd-icon-dinkie-icons-smaller" viewBox="0 0 12 12"><path fill="currentColor" d="M2 10h7V3H2Zm-2 2h1v-1H0Zm0-2h1V9H0Zm2 2h1v-1H2ZM0 8h1V7H0Zm4 4h1v-1H4ZM0 6h1V5H0Zm6 6h1v-1H6ZM0 4h1V3H0Zm8 8h1v-1H8ZM0 2h1V1H0Zm10 10h1v-1h-1ZM3 9V4h5v5Zm7 1h1V9h-1ZM2 2h1V1H2Zm8 6h1V7h-1ZM4 2h1V1H4Zm6 4h1V5h-1ZM6 2h1V1H6Zm4 2h1V3h-1ZM8 2h1V1H8Zm2 0h1V1h-1Zm0 0"/></symbol><symbol id="hd-icon-dinkie-icons-smaller-small" viewBox="0 0 8 8"><path fill="currentColor" d="M2 7h5V2H2ZM0 9h1V8H0Zm0-2h1V6H0Zm2 2h1V8H2ZM0 5h1V4H0Zm4 4h1V8H4ZM0 3h1V2H0Zm6 6h1V8H6ZM0 1h1V0H0Zm8 8h1V8H8ZM3 6V3h3v3Zm5 1h1V6H8ZM2 1h1V0H2Zm6 4h1V4H8ZM4 1h1V0H4Zm4 2h1V2H8ZM6 1h1V0H6Zm2 0h1V0H8Zm0 0"/></symbol><symbol id="hd-icon-dinkie-icons-smiling-face-with-heart-shaped-eyes" viewBox="0 0 12 12"><path fill="currentColor" d="M6 7h3V5H8V4H6Zm-5 4h1v-1H1Zm1 1h7v-1H2Zm-2-2h1V3H0Zm3-1h1V8H3Zm1 1h3V9H4ZM2 7h3V4H3v1H2Zm7 4h1v-1H9ZM1 3h1V2H1Zm6 6h1V8H7ZM2 2h7V1H2Zm8 8h1V3h-1ZM9 3h1V2H9Zm0 0"/></symbol><symbol id="hd-icon-dinkie-icons-smiling-face-with-open-mouth" viewBox="0 0 12 12"><path fill="currentColor" d="M3 9h1V8h3v1h1V7H3Zm-2 2h1v-1H1Zm1 1h7v-1H2Zm-2-2h1V3H0Zm4 0h3V9H4ZM3 6h1V4H3ZM1 3h1V2H1Zm8 8h1v-1H9ZM7 6h1V4H7ZM2 2h7V1H2Zm8 8h1V3h-1ZM9 3h1V2H9Zm0 0"/></symbol><symbol id="hd-icon-dinkie-icons-smiling-face-with-open-mouth-and-cold-sweat" viewBox="0 0 12 12"><path fill="currentColor" d="M3 9h1V8h3v1h1V7H3Zm-2 2h1v-1H1Zm1 1h7v-1H2Zm-2-2h1V3H0Zm4 0h3V9H4ZM2 6h1V5H2Zm7 5h1v-1H9ZM4 6h1V5H4ZM1 3h1V2H1Zm2 2h1V4H3Zm3 1h1V5H6Zm4 4h1V8h-1ZM9 7h1V6H9ZM8 6h1V3H8v1H7v1h1ZM2 2h6V1H2Zm8 4h1V3h-1ZM9 3h1V1H9Zm0 0"/></symbol><symbol id="hd-icon-dinkie-icons-smiling-face-with-open-mouth-and-smiling-eyes" viewBox="0 0 12 12"><path fill="currentColor" d="M3 9h1V8h3v1h1V7H3Zm-2 2h1v-1H1Zm1 1h7v-1H2Zm-2-2h1V3H0Zm4 0h3V9H4ZM2 6h1V5H2Zm7 5h1v-1H9ZM4 6h1V5H4ZM1 3h1V2H1Zm2 2h1V4H3Zm3 1h1V5H6Zm2 0h1V5H8ZM7 5h1V4H7Zm3 5h1V3h-1ZM2 2h7V1H2Zm7 1h1V2H9Zm0 0"/></symbol><symbol id="hd-icon-dinkie-icons-smirking-face" viewBox="0 0 12 12"><path fill="currentColor" d="M4 9h1V8h2v1h1V7H3v1h1Zm-3 2h1v-1H1Zm1 1h7v-1H2Zm-2-2h1V3H0Zm5 0h2V9H5ZM4 6h1V4H2v1h2ZM1 3h1V2H1Zm8 8h1v-1H9ZM8 6h1V4H6v1h2ZM2 2h7V1H2Zm8 8h1V3h-1ZM9 3h1V2H9Zm0 0"/></symbol><symbol id="hd-icon-dinkie-icons-smoking-symbol" viewBox="0 0 12 12"><path fill="currentColor" d="M1 12h10V9H1Zm1-1v-1h1v1Zm2 0v-1h3v1ZM1 8h1V5H1ZM0 5h1V2H0Zm3 1h1V3H3ZM1 2h1V1H1Zm3 1h1V2H4Zm0 0"/></symbol><symbol id="hd-icon-dinkie-icons-snail" viewBox="0 0 12 12"><path fill="currentColor" d="M3 9h1V3H1v1h2Zm-2 2h1V6H1Zm1 1h8v-1H2ZM0 6h1V4H0Zm4 4h2V9H4ZM0 2h1V1H0Zm10 9h1V9h-1V8H9v1H7v1h3ZM6 9h1V5H6ZM2 2h1V1H2Zm2 1h1V2H4Zm4 4h1V5H8ZM7 5h1V4H7Zm3 3h1V3h-1ZM5 2h4V1H5Zm4 1h1V2H9Zm0 0"/></symbol><symbol id="hd-icon-dinkie-icons-snake" viewBox="0 0 12 12"><path fill="currentColor" d="M10 11H1v-1H0v2h10Zm0 0h1V5h-1v4H9V7H8V2H7v5H6V4H4V2H3v1H1v1h2v1h2v2H2v1h6v1H2V8H1v2h9ZM0 5h1V4H0Zm0-2h1V2H0Zm5 0h1V2h1V1H4v1h1Zm0 0"/></symbol><symbol id="hd-icon-dinkie-icons-snow-capped-mountain" viewBox="0 0 12 12"><path fill="currentColor" d="M0 12h11V6h-1v1H9V6H8V5H7v1H6v1H5v1H4v2H3V8H2v1H1V8H0Zm1-4h1V6H1Zm2 0h1V5H3V4H2v2h1Zm1-3h1V4H4Zm1-1h1V2H5Zm2 0h1V2H7Zm2 2h1V3H9v1H8v1h1ZM6 2h1V1H6Zm0 0"/></symbol><symbol id="hd-icon-dinkie-icons-snowflake" viewBox="0 0 12 12"><path fill="currentColor" d="M5 12h1v-1h1v-1H6V8h1V7h1V6H7V5H6V3h1V2H6V1H5v1H4v1h1v2H4v1H3v1h1v1h1v2H4v1h1Zm-4-2h1V9h2V8H2V7H1v1H0v1h1Zm0-4h1V5h2V4H2V3H1v1H0v1h1Zm8 4h1V9h1V8h-1V7H9v1H7v1h2Zm0-4h1V5h1V4h-1V3H9v1H7v1h2Zm0 0"/></symbol><symbol id="hd-icon-dinkie-icons-soft-ice-cream" viewBox="0 0 12 12"><path fill="currentColor" d="M1 7h1V6h7v1h1V5H9V3H8v2H3V4H2v1H1Zm2 5h5V9H7v2H4V9H3ZM2 9h1V8h5v1h1V7H2Zm1-5h2V3H3Zm2-1h1V2h1V1H4v1h1Zm2 0h1V2H7Zm0 0"/></symbol><symbol id="hd-icon-dinkie-icons-south-wind-mahjong" viewBox="0 0 12 12"><path fill="currentColor" d="M2 12h7v-1h1V2H9V1H2v1H1v9h1Zm0-2V5h3V4H3V3h5v1H6v1h3v5H7V9H6v1H5V9H3v1Zm1-2h2V7H4V6H3Zm2-1h1V6H5Zm2 2h1V6H7v1H6v1h1Zm0 0"/></symbol><symbol id="hd-icon-dinkie-icons-sparkles" viewBox="0 0 12 12"><path fill="currentColor" d="M7 9h1V6H7Zm-4 3h1V9H3ZM1 9h2V8H1Zm2-1h1V6H3Zm1 1h2V8H4ZM1 5h1V3H1ZM0 3h1V2H0Zm2 0h1V2H2ZM1 2h1V1H1Zm3 3h2V4H4Zm2 1h1V5H6Zm2 0h1V5H8ZM6 4h1V3H6Zm2 0h1V3H8Zm1 1h2V4H9ZM7 3h1V1H7Zm0 0"/></symbol><symbol id="hd-icon-dinkie-icons-speaker" viewBox="0 0 12 12"><path fill="currentColor" d="M6 12h2V8h1V5H8V1H6v1h1v9H6Zm-2-2h1V9H4Zm1 1h1v-1H5ZM2 9h2V4H2Zm2-5h1V3H4Zm1-1h1V2H5Zm0 0"/></symbol><symbol id="hd-icon-dinkie-icons-speaker-with-cancellation-stroke" viewBox="0 0 12 12"><path fill="currentColor" d="M7 9h1V8h1V5H8V1H6v1h1v5H6v1h1Zm-3 1h1V9H4Zm1 1h1v-1H5ZM2 9h2V6H3V5H2Zm4 3h2v-2H7v1H6ZM3 5h1V4H3ZM0 2h1V1H0Zm1 1h1V2H1Zm1 1h1V3H2Zm2 2h1V5H4Zm1 1h1V6H5Zm3 3h1V9H8Zm1 1h1v-1H9Zm1 1h1v-1h-1ZM4 4h1V3H4Zm1-1h1V2H5Zm0 0"/></symbol><symbol id="hd-icon-dinkie-icons-speaker-with-one-sound-wave" viewBox="0 0 12 12"><path fill="currentColor" d="M5 12h2V8h1V5H7V1H5v1h1v9H5Zm-2-2h1V9H3Zm1 1h1v-1H4ZM1 9h2V4H1Zm7 1h1V9H8ZM3 4h1V3H3Zm1-1h1V2H4Zm5 6h1V4H9ZM8 4h1V3H8Zm0 0"/></symbol><symbol id="hd-icon-dinkie-icons-speaker-with-three-sound-waves" viewBox="0 0 12 12"><path fill="currentColor" d="M4 12h2V8h1V5H6V1H4v1h1v9H4Zm-2-2h1V9H2Zm1 1h1v-1H3ZM0 9h2V4H0Zm8 3h1v-1H8Zm-1-2h1V9H7ZM2 4h1V3H2Zm7 7h1v-1H9ZM3 3h1V2H3Zm5 6h1V4H8ZM7 4h1V3H7Zm3 6h1V3h-1ZM8 2h1V1H8Zm1 1h1V2H9Zm0 0"/></symbol><symbol id="hd-icon-dinkie-icons-speech-balloon" viewBox="0 0 12 12"><path fill="currentColor" d="M1 12h3v-1H3V9H2v2H1Zm0-3h1V8H1Zm3 2h1v-1H4ZM0 8h1V3H0Zm5 2h4V9H5ZM3 6h1V5H3ZM1 3h1V2H1Zm4 3h1V5H5Zm4 3h1V8H9ZM7 6h1V5H7ZM2 2h7V1H2Zm8 6h1V3h-1ZM9 3h1V2H9Zm0 0"/></symbol><symbol id="hd-icon-dinkie-icons-speech-balloon-empty" viewBox="0 0 12 12"><path fill="currentColor" d="M1 12h3v-1H3V9H2v2H1Zm0-3h1V8H1Zm3 2h1v-1H4ZM0 8h1V3H0Zm5 2h4V9H5ZM1 3h1V2H1Zm8 6h1V8H9ZM2 2h7V1H2Zm8 6h1V3h-1ZM9 3h1V2H9Zm0 0"/></symbol><symbol id="hd-icon-dinkie-icons-speech-balloon-empty-small" viewBox="0 0 8 8"><path fill="currentColor" d="M1 9h3V8H3V6H2v2H1Zm0-3h1V5H1ZM0 5h1V2H0Zm4 3h1V7H4Zm1-1h2V6H5ZM1 2h1V1H1Zm6 4h1V5H7ZM2 1h5V0H2Zm6 4h1V2H8ZM7 2h1V1H7Zm0 0"/></symbol><symbol id="hd-icon-dinkie-icons-speech-balloon-empty-small-filled" viewBox="0 0 8 8"><path fill="currentColor" d="M1 9h2V8h1V7h3V6h1V5h1V2H8V1H7V0H2v1H1v1H0v3h1v1h1v2H1Zm0 0"/></symbol><symbol id="hd-icon-dinkie-icons-speech-balloon-heart" viewBox="0 0 12 12"><path fill="currentColor" d="M5 8h1V7h1V6h1V4H6v1H5V4H3v2h1v1h1Zm-5 4h4v-1H2v-1H1v1H0Zm2-2h1V9H2ZM1 9h1V8H1Zm3 2h1v-1H4ZM0 8h1V3H0Zm5 2h4V9H5ZM1 3h1V2H1Zm8 6h1V8H9ZM2 2h7V1H2Zm8 6h1V3h-1ZM9 3h1V2H9Zm0 0"/></symbol><symbol id="hd-icon-dinkie-icons-speech-balloon-heart-small-filled" viewBox="0 0 8 8"><path fill="currentColor" d="M0 9h2V8h1V7h5V6h1V1H8V0H1v1H0v5h1v2H0Zm4-3V5H3V4H2V2h2v1h1V2h2v2H6v1H5v1Zm0 0"/></symbol><symbol id="hd-icon-dinkie-icons-speech-balloon-info" viewBox="0 0 12 12"><path fill="currentColor" d="M4 8h3V7H6V5H4v1h1v1H4Zm-3 4h3v-1H3V9H2v2H1Zm0-3h1V8H1Zm3 2h1v-1H4ZM0 8h1V3H0Zm5 2h4V9H5ZM1 3h1V2H1Zm8 6h1V8H9ZM5 4h1V3H5ZM2 2h7V1H2Zm8 6h1V3h-1ZM9 3h1V2H9Zm0 0"/></symbol><symbol id="hd-icon-dinkie-icons-speech-balloon-info-small-filled" viewBox="0 0 8 8"><path fill="currentColor" d="M0 9h2V8h1V7h5V6h1V1H8V0H1v1H0v5h1v2H0Zm3-3V5h1V4H3V3h2v2h1v1Zm1-4V1h1v1Zm0 0"/></symbol><symbol id="hd-icon-dinkie-icons-speech-balloon-question" viewBox="0 0 12 12"><path fill="currentColor" d="M1 12h3v-1H3V9H2v2H1Zm0-3h1V8H1Zm3 2h1v-1H4ZM0 8h1V3H0Zm5 2h4V9H5Zm0-2h1V7H5ZM1 3h1V2H1Zm4 3h1V5H5Zm4 3h1V8H9ZM6 5h1V3H4v1h2ZM2 2h7V1H2Zm8 6h1V3h-1ZM9 3h1V2H9Zm0 0"/></symbol><symbol id="hd-icon-dinkie-icons-speech-balloon-question-small-filled" viewBox="0 0 8 8"><path fill="currentColor" d="M0 9h2V8h1V7h5V6h1V1H8V0H1v1H0v5h1v2H0Zm4-3V5h1v1Zm0-2V3h1V2H3V1h3v2H5v1Zm0 0"/></symbol><symbol id="hd-icon-dinkie-icons-speech-balloon-small" viewBox="0 0 8 8"><path fill="currentColor" d="M0 9h3V8H2V6H1v2H0Zm3-1h1V7H3ZM0 6h1V1H0Zm2-2h1V3H2Zm2 3h4V6H4Zm0-3h1V3H4Zm2 0h1V3H6ZM1 1h7V0H1Zm7 5h1V1H8Zm0 0"/></symbol><symbol id="hd-icon-dinkie-icons-speech-balloon-small-filled" viewBox="0 0 8 8"><path fill="currentColor" d="M0 9h2V8h1V7h5V6h1V1H8V0H1v1H0v5h1v2H0Zm2-5V3h1v1Zm2 0V3h1v1Zm2 0V3h1v1Zm0 0"/></symbol><symbol id="hd-icon-dinkie-icons-spider" viewBox="0 0 12 12"><path fill="currentColor" d="M4 6H3v1H1v1h2v1h1Zm0 0h3V5h1V4H6v1H5V4H3v1h1Zm-4 4h1V8H0Zm2 2h1V9H2Zm2-2h3V9H4ZM1 6h2V5H1ZM0 5h1V3H0Zm8 7h1V9H8ZM2 4h1V1H2Zm5 5h1V8h2V7H8V6H7Zm3 1h1V8h-1ZM5 4h1V3H5Zm3 2h2V5H8Zm0-2h1V1H8Zm2 1h1V3h-1Zm0 0"/></symbol><symbol id="hd-icon-dinkie-icons-spouting-whale" viewBox="0 0 12 12"><path fill="currentColor" d="M10 9H9v1h1Zm0 0h1V3h-1v2H9v1h1v1H8v1h2ZM0 11h1V6H0Zm1 1h9v-1H9v-1H8v1H1Zm0-6h1V5H1Zm4 4h1V9H5ZM2 5h4V4H5V2H4v2H2Zm0-2h1V2H2Zm5 4h1V6H7ZM6 6h1V5H6ZM3 2h1V1H3Zm2 0h1V1H5Zm1 1h1V2H6Zm0 0"/></symbol><symbol id="hd-icon-dinkie-icons-spring-mahjong" viewBox="0 0 12 12"><path fill="currentColor" d="M2 12h7v-1h1V2H9V1H2v1H1v9h1Zm2-2V8H3v1H2V8h1V7H2V6h2V5H3V4h2V3h1v1h2v1H7v1h2v1H8v1h1v1H8V8H7v2Zm1-2h1V7H5Zm0 0"/></symbol><symbol id="hd-icon-dinkie-icons-squint-smiling-face" viewBox="0 0 12 12"><path fill="currentColor" d="M10 10H9v1h1Zm0 0h1V3h-1Zm-9 1h1v-1H1Zm1 1h7v-1H2Zm-2-2h1V3H0Zm2-1h1V8H2Zm1 1h5V9H3ZM2 6h1V5h2V4H2ZM1 3h1V2H1Zm7 6h1V8H8ZM6 6h1V5h2V4H6ZM2 2h7V1H2Zm7 1h1V2H9Zm0 0"/></symbol><symbol id="hd-icon-dinkie-icons-squint-smiling-face-small" viewBox="0 0 8 8"><path fill="currentColor" d="M8 7H7v1h1Zm0 0h1V2H8ZM1 8h1V7H1Zm1 1h5V8H2ZM0 7h1V2H0Zm2-1h1V5H2Zm1 1h3V6H3ZM1 2h1V1H1Zm1 2h1V3h1V2H2Zm4 2h1V5H6ZM5 4h1V3h1V2H5ZM2 1h5V0H2Zm5 1h1V1H7Zm0 0"/></symbol></svg>