<svg xmlns="http://www.w3.org/2000/svg" xmlns:xlink="http://www.w3.org/1999/xlink"><symbol id="hd-icon-tdesign-component-layout" viewBox="0 0 24 24"><g fill="none"><path d="M21 3h-9v18h9zm-9 0H3v18h9z"/><path stroke="currentColor" stroke-linecap="square" stroke-width="2" d="M12 3H3v18h9m0-18h9v18h-9m0-18v9m0 9v-9m0 0H3"/></g></symbol><symbol id="hd-icon-tdesign-component-layout-filled" viewBox="0 0 24 24"><path fill="currentColor" d="M11 2H2v9h9zM2 13v9h9v-9zm11 9h9V2h-9z"/></symbol><symbol id="hd-icon-tdesign-component-radio" viewBox="0 0 24 24"><g fill="none"><path d="M21 12a9 9 0 1 1-18 0a9 9 0 0 1 18 0"/><path d="M17 12a5 5 0 1 1-10 0a5 5 0 0 1 10 0"/><path stroke="currentColor" stroke-linecap="square" stroke-width="2" d="M21 12a9 9 0 1 1-18 0a9 9 0 0 1 18 0Z"/><path stroke="currentColor" stroke-linecap="square" stroke-width="2" d="M17 12a5 5 0 1 1-10 0a5 5 0 0 1 10 0Z"/></g></symbol><symbol id="hd-icon-tdesign-component-space" viewBox="0 0 24 24"><defs><path id="hd-icon-tdesign-component-space-568" d="M21 4H3v6h18zm0 10H3v6h18z"/></defs><g fill="none"><use href="#hd-icon-tdesign-component-space-568"/><use href="#hd-icon-tdesign-component-space-568" stroke="currentColor" stroke-width="2"/></g></symbol><symbol id="hd-icon-tdesign-component-space-filled" viewBox="0 0 24 24"><path fill="currentColor" d="M22 3H2v8h20zm0 10H2v8h20z"/></symbol><symbol id="hd-icon-tdesign-component-steps" viewBox="0 0 24 24"><g fill="none"><path d="M7 12a2.5 2.5 0 1 0-5 0a2.5 2.5 0 0 0 5 0m7.5 0a2.5 2.5 0 1 0-5 0a2.5 2.5 0 0 0 5 0m7.5 0a2.5 2.5 0 1 0-5 0a2.5 2.5 0 0 0 5 0"/><path stroke="currentColor" stroke-width="2" d="M7 12a2.5 2.5 0 1 0-5 0a2.5 2.5 0 0 0 5 0Zm0 0h2.5m0 0a2.5 2.5 0 0 1 5 0m-5 0a2.5 2.5 0 0 0 5 0m0 0H17m0 0a2.5 2.5 0 1 1 5 0a2.5 2.5 0 0 1-5 0Z"/></g></symbol><symbol id="hd-icon-tdesign-component-steps-1" viewBox="0 0 24 24"><path fill="none" stroke="currentColor" stroke-linecap="square" stroke-width="2" d="M6 15V9m0 6a3 3 0 1 0 0 6a3 3 0 0 0 0-6Zm0-6a3 3 0 1 1 0-6a3 3 0 0 1 0 6Zm15-4h-8m8 7h-8m8 7h-8"/></symbol><symbol id="hd-icon-tdesign-component-steps-1-filled" viewBox="0 0 24 24"><path fill="currentColor" d="M22 18v2H12v-2zm0-7v2H12v-2zm0-7v2H12V4zM6 2a4 4 0 0 1 1 7.874v4.252A4.002 4.002 0 0 1 6 22a4 4 0 0 1-1-7.874V9.874A4.002 4.002 0 0 1 6 2"/></symbol><symbol id="hd-icon-tdesign-component-steps-filled" viewBox="0 0 24 24"><path fill="currentColor" d="M1 12a3.5 3.5 0 0 1 6.855-1h.79a3.502 3.502 0 0 1 6.71 0h.79A3.502 3.502 0 0 1 23 12a3.5 3.5 0 0 1-6.855 1h-.79a3.502 3.502 0 0 1-6.71 0h-.79A3.502 3.502 0 0 1 1 12"/></symbol><symbol id="hd-icon-tdesign-component-stickytool" viewBox="0 0 24 24"><g fill="none"><path d="M3 21V3h5v18z"/><path stroke="currentColor" stroke-linecap="square" stroke-width="2" d="M3 21V3h5v18zm9-14V3h9v18h-9v-4m3-7.5L12.5 12l2.5 2.5"/></g></symbol><symbol id="hd-icon-tdesign-component-stickytool-filled" viewBox="0 0 24 24"><path fill="currentColor" d="M9 22H2V2h7zm13 0H11v-5h2v3h7V4h-7v3h-2V2h11zM16.414 9.5l-2.5 2.5l2.5 2.5L15 15.914L11.086 12L15 8.086z"/></symbol><symbol id="hd-icon-tdesign-component-switch" viewBox="0 0 24 24"><g fill="none"><path d="M12 12a4.5 4.5 0 1 1-9 0a4.5 4.5 0 0 1 9 0"/><path stroke="currentColor" stroke-width="2" d="M7.5 16.5h9a4.5 4.5 0 1 0 0-9h-9m0 9a4.5 4.5 0 1 1 0-9m0 9a4.5 4.5 0 1 0 0-9"/></g></symbol><symbol id="hd-icon-tdesign-component-switch-filled" viewBox="0 0 24 24"><path fill="currentColor" d="M11.743 8.5A5.48 5.48 0 0 1 13 12c0 1.33-.472 2.55-1.257 3.5H16.5a3.5 3.5 0 1 0 0-7zM2 12a5.5 5.5 0 0 1 5.5-5.5h9a5.5 5.5 0 1 1 0 11h-9A5.5 5.5 0 0 1 2 12"/></symbol><symbol id="hd-icon-tdesign-constraint" viewBox="0 0 24 24"><path fill="none" stroke="currentColor" stroke-linecap="square" stroke-width="2" d="M9 17H6.196C3.32 16.972 1 14.744 1 12s2.321-4.972 5.196-5H9m7 5H8m7-5h2.75C20.65 7 23 9.239 23 12s-2.35 5-5.25 5H15"/></symbol><symbol id="hd-icon-tdesign-contrast" viewBox="0 0 24 24"><g fill="none"><path d="M22 12c0 5.523-4.477 10-10 10S2 17.523 2 12S6.477 2 12 2s10 4.477 10 10"/><path d="M12 18.5a6.5 6.5 0 1 0 0-13z"/><path stroke="currentColor" stroke-width="2" d="M22 12c0 5.523-4.477 10-10 10S2 17.523 2 12S6.477 2 12 2s10 4.477 10 10Z"/><path stroke="currentColor" stroke-width="2" d="M12 18.5a6.5 6.5 0 1 0 0-13z"/></g></symbol><symbol id="hd-icon-tdesign-contrast-1" viewBox="0 0 24 24"><g fill="none"><path d="M2 12c0 5.523 4.477 10 10 10V2C6.477 2 2 6.477 2 12m20 0c0 5.523-4.477 10-10 10V2c5.523 0 10 4.477 10 10"/><path stroke="currentColor" stroke-width="2" d="m12 6.572l5.294-3.056M12 12.923l9.034-5.216M12 19.274l9.877-5.703M12 2v20m10-10c0 5.523-4.477 10-10 10S2 17.523 2 12S6.477 2 12 2s10 4.477 10 10Z"/></g></symbol><symbol id="hd-icon-tdesign-contrast-1-filled" viewBox="0 0 24 24"><path fill="currentColor" d="M13 3.055V4.84l2.184-1.26A9 9 0 0 0 13 3.054m4.255 1.638L13 7.149v4.042l6.693-3.864a9.05 9.05 0 0 0-2.438-2.634m3.284 4.455L13 13.5v4.042l7.95-4.59a9.1 9.1 0 0 0-.411-3.804m-.326 6.539L13 19.85v1.094a9.01 9.01 0 0 0 7.213-5.258M1 12C1 5.925 5.925 1 12 1s11 4.925 11 11s-4.925 11-11 11S1 18.075 1 12"/></symbol><symbol id="hd-icon-tdesign-contrast-filled" viewBox="0 0 24 24"><path fill="currentColor" d="M12 1C5.925 1 1 5.925 1 12s4.925 11 11 11s11-4.925 11-11S18.075 1 12 1m7.5 11a7.5 7.5 0 0 1-7.5 7.5v-15a7.5 7.5 0 0 1 7.5 7.5"/></symbol><symbol id="hd-icon-tdesign-contribute" viewBox="0 0 24 24"><g fill="none"><path d="M5 3h14v12l-7 5l-7-5z"/><path stroke="currentColor" stroke-linecap="square" stroke-width="2" d="M9 8h6m-5 4h4M5 3v12l7 5l7-5V3M5 3H2m3 0h14m0 0h3"/></g></symbol><symbol id="hd-icon-tdesign-contribute-filled" viewBox="0 0 24 24"><path fill="currentColor" d="M22 4.386h-2V15.9l-.419.3L12 21.613L4.419 16.2L4 15.9V4.386H2v-2h20zm-13 9h6v-2H9zm-1-4h8v-2H8z"/></symbol><symbol id="hd-icon-tdesign-control-platform" viewBox="0 0 24 24"><g fill="none"><path d="m12 2l9 5v10l-9 5l-9-5V7z"/><path stroke="currentColor" stroke-width="2" d="m12 12l8.5-4.5M12 12v9.5m0-9.5L3.5 7.5M12 2l9 5v10l-9 5l-9-5V7z"/></g></symbol><symbol id="hd-icon-tdesign-control-platform-filled" viewBox="0 0 24 24"><path fill="currentColor" d="M21 5.653L11.998.45L3 5.652l9 5.194zm.998 1.733l-9 5.192v10.395l9-5.203zm-11 15.58V12.577l-9-5.194V17.7z"/></symbol><symbol id="hd-icon-tdesign-cooperate" viewBox="0 0 24 24"><g fill="none"><path d="M1.5 10.5L12 21l7.5-7.5L15 9l-3 3l-3-3l3-3l-3-3z"/><path d="m15 3l-3 3l-3 3l3 3l3-3l4.5 4.5l3-3z"/><path stroke="currentColor" stroke-linecap="square" stroke-width="2" d="M12 6L9 3l-7.5 7.5L12 21l7.5-7.5M12 6L9 9l3 3l3-3l4.5 4.5M12 6l3-3l7.5 7.5l-3 3m-5.132 5.132L12 16.264m4.736-.001l-2.368-2.369"/></g></symbol><symbol id="hd-icon-tdesign-cooperate-filled" viewBox="0 0 24 24"><path fill="currentColor" d="m9 1.586l3 3l3-3l8.914 8.914L12 22.414L.086 10.5zM10.586 6L9 4.414L2.914 10.5L12 19.586l.954-.954l-2.368-2.369L12 14.85l2.368 2.368l.955-.954l-2.369-2.368l1.414-1.414l2.369 2.368l1.349-1.35L15 10.415l-3 3L7.586 9z"/></symbol><symbol id="hd-icon-tdesign-coordinate-system" viewBox="0 0 24 24"><g fill="none"><path d="m12 3l9.526 16.5H2.474z"/><path stroke="currentColor" stroke-linecap="square" stroke-width="2" d="m12 3l9.526 16.5H2.474zm0 7v3m0 0l-3 2.5m3-2.5l3 2.5"/></g></symbol><symbol id="hd-icon-tdesign-coordinate-system-filled" viewBox="0 0 24 24"><path fill="currentColor" d="M23.258 20.5H.74L12 1zm-10.259-7.968V9h-2v3.532l-3.408 2.84l1.28 1.536L12 14.302l3.128 2.606l1.28-1.536z"/></symbol><symbol id="hd-icon-tdesign-copy" viewBox="0 0 24 24"><g fill="none"><path d="M10 10h11v11H10z"/><path stroke="currentColor" stroke-linecap="square" stroke-width="2" d="M10 10h11v11H10z"/><path stroke="currentColor" stroke-linecap="square" stroke-width="2" d="M14 6.5V3H3v11h3.5"/></g></symbol><symbol id="hd-icon-tdesign-copy-filled" viewBox="0 0 24 24"><path fill="currentColor" d="M2 2h13v5.5h-2V4H4v9h3.5v2H2zm7 7h13v13H9z"/></symbol><symbol id="hd-icon-tdesign-copyright" viewBox="0 0 24 24"><g fill="none"><path d="M2 12C2 6.477 6.477 2 12 2s10 4.477 10 10s-4.477 10-10 10S2 17.523 2 12"/><path stroke="currentColor" stroke-linecap="square" stroke-width="2" d="M2 12C2 6.477 6.477 2 12 2s10 4.477 10 10s-4.477 10-10 10S2 17.523 2 12Z"/><path stroke="currentColor" stroke-linecap="square" stroke-width="2" d="M15.182 15.183a4.5 4.5 0 1 1 0-6.364"/></g></symbol><symbol id="hd-icon-tdesign-copyright-filled" viewBox="0 0 24 24"><path fill="currentColor" d="M12 1c6.075 0 11 4.925 11 11s-4.925 11-11 11S1 18.075 1 12S5.925 1 12 1M9.525 14.476a3.5 3.5 0 1 1 4.95-4.95l.707.707l1.414-1.414l-.707-.707a5.5 5.5 0 1 0 0 7.778l.707-.707l-1.414-1.415l-.707.708a3.5 3.5 0 0 1-4.95 0"/></symbol><symbol id="hd-icon-tdesign-corn" viewBox="0 0 24 24"><g fill="none"><path d="M20 9c1.289-1.609 3.076-4.341 1.219-6.209C19.355.917 16.612 2.711 15 4L9.622 8.252c.707 2.083.576 4.887-.622 6.748c1.854-1.194 4.645-1.328 6.723-.63z"/><path d="M14 18.5c3-2.25 4.5-2.5 4.5-2.5s-1.053-1.053-2.777-1.63c-2.078-.698-4.87-.563-6.723.63c1.198-1.86 1.329-4.664.622-6.748C9.042 6.542 8 5.5 8 5.5S7.75 7 5.5 10C4 12-.4 16.8 4 20c3.2 4.4 8 0 10-1.5"/><path stroke="currentColor" stroke-width="2" d="M9 15c1.198-1.86 1.33-4.664.622-6.748L15 4M9 15c1.854-1.194 4.645-1.328 6.723-.63L20 9M9 15L21.219 2.791m0 0C23.076 4.66 21.289 7.391 20 9m1.219-6.209C19.355.917 16.612 2.711 15 4m5 5l-5-5m2.35 8.327l-5.687-5.692"/><path stroke="currentColor" stroke-linecap="square" stroke-width="2" d="M4 20c3.2 4.4 8 0 10-1.5c3-2.25 4.5-2.5 4.5-2.5s-1.053-1.053-2.777-1.63c-2.078-.698-4.87-.563-6.723.63m-5 5l5-5m-5 5c-4.4-3.2 0-8 1.5-10C7.75 7 8 5.5 8 5.5s1.043 1.043 1.622 2.752c.707 2.083.576 4.887-.622 6.748"/></g></symbol><symbol id="hd-icon-tdesign-corn-filled" viewBox="0 0 24 24"><path fill="currentColor" d="m16.525 4.11l.979.98l2.086-2.085c-.37-.062-.785-.006-1.257.152c-.61.205-1.232.559-1.808.953m4.473.316l-2.08 2.078l.972.972c.394-.575.747-1.194.951-1.802c.158-.469.215-.88.157-1.248m-2.336 4.65l-1.159-1.159L15.93 9.49l1.338 1.338zm-2.65 3.326l-1.497-1.499l-2.06 2.058c.996-.053 1.994.04 2.902.263zm1.31 1.566a9 9 0 0 1 1.01.614c.84.59 1.526 1.362 2.25 2.085l-1.905.317a2 2 0 0 0-.16.044a6 6 0 0 0-.725.287c-.678.31-1.742.897-3.192 1.985c-.15.112-.325.25-.523.404c-1.004.786-2.576 2.017-4.257 2.687c-1.029.41-2.196.656-3.381.423c-1.173-.23-2.247-.905-3.154-2.1c-1.194-.906-1.869-1.98-2.1-3.153c-.232-1.186.013-2.352.424-3.381c.67-1.68 1.9-3.254 2.686-4.257c.155-.198.293-.373.405-.523c1.088-1.45 1.674-2.515 1.985-3.192c.155-.338.24-.58.286-.725c.029-.092.041-.146.045-.16l.317-1.904c.72.72 1.491 1.404 2.08 2.241c.19.272.403.607.61 1l4.355-3.443c.825-.66 2.026-1.523 3.32-1.956c1.328-.445 2.933-.48 4.23.825c1.292 1.3 1.255 2.9.81 4.225c-.435 1.291-1.297 2.489-1.956 3.313h-.002l-.002.005zm-2.4-8.632l-1.757 1.387l1.35 1.352l1.574-1.572zM13.1 9.489l-1.515-1.517l-.816.646c.227.917.323 1.925.268 2.932z"/></symbol><symbol id="hd-icon-tdesign-correct" viewBox="0 0 24 24"><g fill="none"><path d="M20.986 8.757L15.53 3.303l-8.24 8.242L12.743 17z"/><path stroke="currentColor" stroke-linecap="square" stroke-width="2" d="m7.289 11.545l-4.122 4.122l5.462 5.461L12.743 17M7.29 11.545l8.242-8.242l5.455 5.454L12.743 17M7.29 11.545L12.743 17M21 17h-2m2 4h-7"/></g></symbol><symbol id="hd-icon-tdesign-correct-filled" viewBox="0 0 24 24"><path fill="currentColor" d="m22.4 8.758l-8.949 8.949l-4.82 4.837l-6.878-6.877L15.53 1.889zM4.582 15.666l4.046 4.046L11.329 17l-4.04-4.041zM22 22h-9v-2h9zm0-4h-4v-2h4z"/></symbol><symbol id="hd-icon-tdesign-coupon" viewBox="0 0 24 24"><g fill="none"><path d="M4 20h16V3l-3 2l-2.5-2L12 5L9.5 3L7 5L4 3z"/><path stroke="currentColor" stroke-miterlimit="2.413" stroke-width="2" d="M4 20h16V3l-3 2l-2.5-2L12 5L9.5 3L7 5L4 3z"/><path stroke="currentColor" stroke-linecap="square" stroke-width="2" d="M8 15h8m-4-4h4m-8 0h.004v.004H8z"/></g></symbol><symbol id="hd-icon-tdesign-coupon-filled" viewBox="0 0 24 24"><path fill="currentColor" d="M3 21h18V1.132l-3.946 2.63L14.5 1.72l-2.5 2l-2.5-2l-2.554 2.043L3 1.132zm14-9h-6v-2h6zM7 16v-2h10v2zm2.004-6v2.004H7V10z"/></symbol><symbol id="hd-icon-tdesign-course" viewBox="0 0 24 24"><g fill="none"><path d="M20 2v20H4V2z"/><path d="M16 2h-4v5.5L14 6l2 1.5z"/><path stroke="currentColor" stroke-width="2" d="M16 2h-4v5.5L14 6l2 1.5z"/><path stroke="currentColor" stroke-width="2" d="M20 2v20H4V2z"/></g></symbol><symbol id="hd-icon-tdesign-course-filled" viewBox="0 0 24 24"><path fill="currentColor" d="M3 23h18V1H3zM14.002 6.688L11.504 8.75V3H16.5v5.75z"/></symbol><symbol id="hd-icon-tdesign-cpu" viewBox="0 0 24 24"><g fill="none"><path d="M4 4h16v16H4z"/><path d="M9 9h6v6H9z"/><path stroke="currentColor" stroke-linecap="square" stroke-width="2" d="M4 8H1.5M8 4V1.5M16 4V1.5M20 16h2.5M20 8h2.5M8 20v2.5m8-2.5v2.5M4 16H1.5M4 4h16v16H4z"/><path stroke="currentColor" stroke-linecap="square" stroke-width="2" d="M9 9h6v6H9z"/></g></symbol><symbol id="hd-icon-tdesign-cpu-filled" viewBox="0 0 24 24"><path fill="currentColor" d="M14.5 9.5h-5v5h5z"/><path fill="currentColor" d="M9 .5V3h6V.5h2V3h4v4h2.5v2H21v6h2.5v2H21v4h-4v2.5h-2V21H9v2.5H7V21H3v-4H.5v-2H3V9H.5V7H3V3h4V.5zm-1.5 7v9h9v-9z"/></symbol><symbol id="hd-icon-tdesign-crack" viewBox="0 0 24 24"><g fill="none"><path d="M12 22c5.523 0 10-4.477 10-10S17.523 2 12 2S2 6.477 2 12s4.477 10 10 10"/><path stroke="currentColor" stroke-linecap="square" stroke-width="2" d="M16 9v2M8 9v2m.535 4A4 4 0 0 0 12 17c1.48 0 2.773-.804 3.465-2M12.75 2.543L11 6l2 4l-2 4l2 4l-1.75 3.457"/><path stroke="currentColor" stroke-linecap="square" stroke-width="2" d="M12 22c5.523 0 10-4.477 10-10S17.523 2 12 2S2 6.477 2 12s4.477 10 10 10Z"/></g></symbol><symbol id="hd-icon-tdesign-crack-filled" viewBox="0 0 24 24"><path fill="currentColor" d="M12.477 1.01Q12.24 1 12 1C5.925 1 1 5.925 1 12c0 5.56 4.126 10.157 9.483 10.896l1.969-4.874l-.02-.04a5 5 0 0 1-4.762-2.48l-.501-.867L8.9 13.634l.5.865a3 3 0 0 0 2.012 1.444L10.441 14l2-4l-1.99-3.978zM9 8v4H7V8z"/><path fill="currentColor" d="M13.452 17.786a5 5 0 0 0 2.879-2.285l.5-.866l-1.731-1.001l-.5.865a3 3 0 0 1-2.065 1.453L11.56 14l2-4l-2.01-4.022l1.968-4.874C18.874 1.843 23 6.44 23 12c0 6.075-4.925 11-11 11q-.24 0-.477-.01l2.025-5.012zM17 8h-2v4h2z"/></symbol><symbol id="hd-icon-tdesign-creditcard" viewBox="0 0 24 24"><g fill="none"><path d="M22 10v10H2V10zm0-6H2v6h20z"/><path stroke="currentColor" stroke-linecap="square" stroke-width="2" d="M22 4H2m20 0v16H2V4m20 0v6H2V4m7 11H6"/></g></symbol><symbol id="hd-icon-tdesign-creditcard-add" viewBox="0 0 24 24"><path fill="none" stroke="currentColor" stroke-linecap="square" stroke-width="2" d="M13 20H2V10m20 0v1m0-1H2m20 0V4H2v6m4 5h3m11 0v3m0 0v3m0-3h-3m3 0h3"/></symbol><symbol id="hd-icon-tdesign-creditcard-add-filled" viewBox="0 0 24 24"><path fill="currentColor" d="M23 9V3H1v6zm0 2v2.39A5.5 5.5 0 0 0 15.39 21H1V11zM9 17v-2H4v2z"/><path fill="currentColor" d="M21 17v-3h-2v3h-3v2h3v3h2v-3h3v-2z"/></symbol><symbol id="hd-icon-tdesign-creditcard-filled" viewBox="0 0 24 24"><path fill="currentColor" d="M23 9V3H1v6zm0 2v10H1V11zM9 17v-2H4v2z"/></symbol><symbol id="hd-icon-tdesign-creditcard-off" viewBox="0 0 24 24"><path fill="none" stroke="currentColor" stroke-linecap="square" stroke-width="2" d="M17.001 10.002h-1L16 10zm0 0L22 10m0 0h.001L22 9m0 1V9m0 1v5m0 0v1h.001zM11.001 4H10zm0 0H22v5M6 15h3m-7-5h7M4 4H2v16h18zm18 18L2 2"/></symbol><symbol id="hd-icon-tdesign-creditcard-off-filled" viewBox="0 0 24 24"><path fill="currentColor" d="M2.004.59L2 .586L.586 2l1 1H1v6h6.586l2 2H1v10h18.586L22 23.414l1.41-1.41L2 .594zM9 17H4v-2h5zm14 1.766V11h-7.765zM13.234 9H23V3H7.234z"/></symbol><symbol id="hd-icon-tdesign-crooked-smile" viewBox="0 0 24 24"><g fill="none"><path d="M22 12c0 5.523-4.477 10-10 10S2 17.523 2 12S6.477 2 12 2s10 4.477 10 10"/><path stroke="currentColor" stroke-linecap="square" stroke-width="2" d="M22 12c0 5.523-4.477 10-10 10S2 17.523 2 12S6.477 2 12 2s10 4.477 10 10Z"/><path stroke="currentColor" stroke-linecap="square" stroke-width="2" d="M16 9v2M8 9v2m7.5 3.5c-.444 1.725-1.636 2.5-3.5 2.5"/></g></symbol><symbol id="hd-icon-tdesign-crooked-smile-filled" viewBox="0 0 24 24"><path fill="currentColor" d="M12 23C5.925 23 1 18.075 1 12S5.925 1 12 1s11 4.925 11 11s-4.925 11-11 11M9 12V8H7v4zm8 0V8h-2v4zm-.532 2.75l.25-.97l-1.937-.498l-.25.969c-.174.68-.468 1.08-.82 1.326c-.368.256-.91.423-1.711.423h-1v2h1c1.063 0 2.049-.22 2.855-.783c.82-.572 1.344-1.422 1.613-2.468"/></symbol><symbol id="hd-icon-tdesign-cry-and-laugh" viewBox="0 0 24 24"><g fill="none"><path d="M22 12c0 5.523-4.477 10-10 10S2 17.523 2 12S6.477 2 12 2s10 4.477 10 10"/><path d="M15 14c-.344 1.725-1.557 3-3 3s-2.656-1.275-3-3z"/><path stroke="currentColor" stroke-linecap="square" stroke-width="2" d="M22 12c0 5.523-4.477 10-10 10S2 17.523 2 12S6.477 2 12 2s10 4.477 10 10Z"/><path stroke="currentColor" stroke-linecap="square" stroke-width="2" d="M17 10h-1m0 0h-1m1 0v3m-7-3H8m0 0H7m1 0v3m4 4c1.443 0 2.656-1.275 3-3H9c.344 1.725 1.557 3 3 3Z"/></g></symbol><symbol id="hd-icon-tdesign-cry-and-laugh-filled" viewBox="0 0 24 24"><path fill="currentColor" d="M23 12c0-6.075-4.925-11-11-11S1 5.925 1 12s4.925 11 11 11s11-4.925 11-11M6 9h4v2H9v3H7v-3H6zm8 0h4v2h-1v3h-2v-3h-1zm-2 10c-2.09 0-3.582-1.802-3.981-3.805h7.961C15.581 17.198 14.09 19 12 19"/></symbol><symbol id="hd-icon-tdesign-cry-loudly" viewBox="0 0 24 24"><g fill="none"><path d="M22 12c0 5.523-4.477 10-10 10S2 17.523 2 12S6.477 2 12 2s10 4.477 10 10"/><path stroke="currentColor" stroke-linecap="square" stroke-width="2" d="M22 12c0 5.523-4.477 10-10 10S2 17.523 2 12S6.477 2 12 2s10 4.477 10 10Zm-10 2v1m5-5h-1m0 0h-1m1 0v4m-7-4H8m0 0H7m1 0v4"/></g></symbol><symbol id="hd-icon-tdesign-cry-loudly-filled" viewBox="0 0 24 24"><path fill="currentColor" d="M12 23C5.925 23 1 18.075 1 12S5.925 1 12 1s11 4.925 11 11s-4.925 11-11 11M10 9H6v2h1v4h2v-4h1zm8 0h-4v2h1v4h2v-4h1zm-5 7v-3h-2v3z"/></symbol><symbol id="hd-icon-tdesign-css3" viewBox="0 0 24 24"><g fill="none"><path d="M3 2h18l-1 17.5l-8 3l-8-3z"/><path stroke="currentColor" stroke-linecap="square" stroke-width="2" d="M3 2h18l-1 17.5l-8 3l-8-3z"/><path stroke="currentColor" stroke-linecap="square" stroke-width="2" d="m7.266 15.41l-.018-.337h.002zm0 0l.077 1.344L12 18.5l4.657-1.746l.307-5.377H7.035l-.013-.237l10.235-4.9l.014-.24H12m0 0l-5.377.01V6z"/></g></symbol><symbol id="hd-icon-tdesign-css3-filled" viewBox="0 0 24 24"><path fill="currentColor" d="m22.059 1l-1.098 19.208l-8.96 3.36l-8.962-3.36L1.941 1zM6.267 15.463v.004l.115 1.994L12 19.568l5.618-2.107l.405-7.084h-7.09l7.29-3.49L18.33 5H5.482l.264 2.012L12.001 7h1.353l-7.369 3.528l.106 1.849h9.814l-.21 3.67L12 17.431l-3.696-1.386l-.04-.69l-.061-1.283h-2.01z"/></symbol><symbol id="hd-icon-tdesign-cucumber" viewBox="0 0 24 24"><g fill="none"><path d="M3.5 19.394C2.05 17.244 2.554 13.445 8 8c5.536-5.536 9.37-5.964 11.5-4.427c.392.283.729.63 1 1.032c1.449 2.151.945 5.95-4.5 11.395c-5.536 5.536-9.37 5.964-11.5 4.426a4.1 4.1 0 0 1-1-1.032"/><path d="M3.5 19.394c3.171-6.38 9.702-12.693 16-15.82a4.1 4.1 0 0 1 1 1.031c-3.165 5.675-9.998 12.757-16 15.82a4.1 4.1 0 0 1-1-1.031"/><path stroke="currentColor" stroke-linecap="square" stroke-width="2" d="M3.5 19.394c3.171-6.38 9.702-12.693 16-15.82a4.1 4.1 0 0 1 1 1.031c-3.165 5.675-9.998 12.757-16 15.82a4.1 4.1 0 0 1-1-1.031Z"/><path stroke="currentColor" stroke-linecap="square" stroke-width="2" d="M3.5 19.394C2.05 17.244 2.554 13.445 8 8c5.536-5.536 9.37-5.964 11.5-4.427c.392.283.729.63 1 1.032c1.449 2.151.945 5.95-4.5 11.395c-5.536 5.536-9.37 5.964-11.5 4.426a4.1 4.1 0 0 1-1-1.032Z"/></g></symbol><symbol id="hd-icon-tdesign-currency-exchange" viewBox="0 0 24 24"><g fill="none" stroke="currentColor" stroke-linecap="square" stroke-width="2"><path d="M21.448 13c-.5 4.777-4.539 8.5-9.448 8.5A9.5 9.5 0 0 1 3.38 16m-.88 4.5v-5h3M2.552 11C3.052 6.223 7.09 2.5 12 2.5A9.5 9.5 0 0 1 20.62 8m.88-4.5v5h-3"/><path d="M14.5 8H12m0 0h-1a2 2 0 1 0 0 4h2a2 2 0 1 1 0 4h-1m0-8V7m0 9H9.5m2.5 0v1"/></g></symbol><symbol id="hd-icon-tdesign-cursor" viewBox="0 0 24 24"><g fill="none" fill-rule="evenodd" clip-rule="evenodd"><path d="M17.824 9.344L4.742 4.748l4.596 13.081l2.652-3.712l5.834 5.833l2.121-2.12l-5.834-5.835z"/><path stroke="currentColor" stroke-width="2" d="M17.824 9.344L4.742 4.748l4.596 13.081l2.652-3.712l5.834 5.833l2.121-2.121l-5.834-5.834z"/></g></symbol><symbol id="hd-icon-tdesign-cursor-filled" viewBox="0 0 24 24"><path fill="currentColor" d="M19.97 9.039L3.108 3.114l5.925 16.863l3.378-4.728l5.773 5.773l2.829-2.828l-5.774-5.775z"/></symbol><symbol id="hd-icon-tdesign-curtain" viewBox="0 0 24 24"><g fill="none"><path d="M21 3v18h-5l1-12.17l-.054-.02A3 3 0 0 1 15 6a3 3 0 1 1-6 0a3 3 0 0 1-1.946 2.81L7 8.83L8 21H3V3z"/><path stroke="currentColor" stroke-width="2" d="M21 6a3 3 0 0 1-4 2.83M21 6v15h-5l1-12.17M21 6V3H3v3m14 2.83A3 3 0 0 1 15 6a3 3 0 1 1-6 0a3 3 0 0 1-2 2.83M3 6a3 3 0 0 0 4 2.83M3 6v15h5L7 8.83"/><path stroke="currentColor" stroke-width="2" d="M9 3H3v18h18V3z"/></g></symbol><symbol id="hd-icon-tdesign-curtain-filled" viewBox="0 0 24 24"><path fill="currentColor" d="M2 22V8.625a5.6 5.6 0 0 0 3.24 1.123L6.99 22zM6.925 7.403a3.6 3.6 0 0 1-1.974.322A3.63 3.63 0 0 1 2 5.451V2h20v3.45a3.63 3.63 0 0 1-5.291 1.753A3.64 3.64 0 0 1 15.313 5.6a3.64 3.64 0 0 1-1.397 1.603A3.6 3.6 0 0 1 12 7.75c-.704 0-1.36-.2-1.916-.547A3.64 3.64 0 0 1 8.688 5.6a3.64 3.64 0 0 1-1.763 1.803m.291 2.039a5.6 5.6 0 0 0 1.471-.77A5.6 5.6 0 0 0 12 9.75c1.24 0 2.384-.4 3.313-1.079c.445.325.94.587 1.47.77L14.99 22H9.01zM17.01 22l1.75-12.252A5.6 5.6 0 0 0 22 8.625V22z"/></symbol><symbol id="hd-icon-tdesign-curve" viewBox="0 0 24 24"><path fill="none" stroke="currentColor" stroke-linecap="square" stroke-width="2" d="M2 11.758C2 9.333 4.31 4 6.622 4c2.31 0 4.365 4.848 4.878 7.758c.385 2.585 2.69 8.242 5 8.242s4.5-5.333 4.5-8.242M15 12h3M5 12h3"/></symbol><symbol id="hd-icon-tdesign-cut" viewBox="0 0 24 24"><path fill="none" stroke="currentColor" stroke-linecap="square" stroke-width="2" d="M8.121 15.879L20 4M8.121 15.879A3 3 0 1 1 3.88 20.12a3 3 0 0 1 4.24-4.24ZM15 15l5 5M8.121 8.121A3 3 0 1 1 3.88 3.88a3 3 0 0 1 4.24 4.24Zm0 0L12 12"/></symbol><symbol id="hd-icon-tdesign-cut-1" viewBox="0 0 24 24"><path fill="none" stroke="currentColor" stroke-linecap="square" stroke-width="2" d="M15.879 15.379L4 3.5m11 5l5-5M8.121 15.379L12 11.5m3.879 3.879a3 3 0 1 1 4.242 4.242a3 3 0 0 1-4.242-4.242Zm-7.758 0A3 3 0 1 1 3.88 19.62a3 3 0 0 1 4.24-4.24ZM12 6.5V6m0-3.5V2"/></symbol><symbol id="hd-icon-tdesign-dam" viewBox="0 0 24 24"><g fill="none"><path d="m4 9l8-7l8 7v12h-5V9H9v12H4z"/><path stroke="currentColor" stroke-linecap="square" stroke-width="2" d="M4 21V9l8-7l8 7v12M4 21H3m1 0h5m11 0h1m-1 0h-6M9 9v12M9 9h6M9 9H4.75M9 21h1m5-12v12m0-12h4.25"/></g></symbol><symbol id="hd-icon-tdesign-dam-1" viewBox="0 0 24 24"><g fill="none"><path d="M8 21V10.1a4 4 0 1 1 8 0V21h4V10.1C20 5.626 16.474 2 12 2s-8 3.626-8 8.1V21z"/><path stroke="currentColor" stroke-linecap="square" stroke-width="2" d="M8 21V10.1a4 4 0 1 1 8 0V21m-8 0H4m4 0h1m-6 0h1m0 0V10.1C4 5.626 7.526 2 12 2s8 3.626 8 8.1V21m0 0h1m-1 0h-4m0 0h-1"/></g></symbol><symbol id="hd-icon-tdesign-dam-1-filled" viewBox="0 0 24 24"><path fill="currentColor" d="M21 20v-9.9C21 5.09 17.042 1 12 1s-9 4.09-9 9.1V20H2v2h8v-2H9v-9.9a3 3 0 1 1 6 0V20h-1v2h8v-2z"/></symbol><symbol id="hd-icon-tdesign-dam-2" viewBox="0 0 24 24"><g fill="none"><path d="M4 9V3h16v18h-5V9H9v12H4z"/><path stroke="currentColor" stroke-linecap="square" stroke-width="2" d="M4 9V3h16v6M4 9v12M4 9h5M4 21H3m1 0h5M20 9v12m0-12h-5m5 12h1m-1 0h-5M9 9v12M9 9h6M9 21h1m5-12v12m0 0h-1"/></g></symbol><symbol id="hd-icon-tdesign-dam-2-filled" viewBox="0 0 24 24"><path fill="currentColor" d="M3 2h18v18h1v2h-9v-2h1V10h-4v10h1v2H2v-2h1zm2 18h3V10H5zm14-10h-3v10h3z"/></symbol><symbol id="hd-icon-tdesign-dam-3" viewBox="0 0 24 24"><g fill="none"><path d="M4 21V10c0-4.97 4-8 8-8s8 3.03 8 8v11h-4V10H8v11z"/><path stroke="currentColor" stroke-linecap="square" stroke-width="2" d="M4 21V10c0-4.97 4-8 8-8s8 3.03 8 8v11M4 21H3m1 0h4m12 0h1m-1 0h-4M8 10v11m0-11h8m-8 0H4.25M8 21h1m7-11v11m0-11h3.75M16 21h-1M11 6h2"/></g></symbol><symbol id="hd-icon-tdesign-dam-3-filled" viewBox="0 0 24 24"><path fill="currentColor" d="M22 20h-1V10c0-5.6-4.529-9-9-9s-9 3.4-9 9v10H2v2h8v-2H9v-9h6v9h-1v2h8zm-5-9h2v9h-2zM5 11h2v9H5zm9-4h-4V5h4z"/></symbol><symbol id="hd-icon-tdesign-dam-4" viewBox="0 0 24 24"><g fill="none"><path d="M3 3h18v18H3z"/><path d="M15 21V11H9v10z"/><path stroke="currentColor" stroke-width="2" d="M15 21V11h-3m3 10h6V3h-9m3 18H9m0 0V11h3M9 21H3V3h9m0 0v8"/></g></symbol><symbol id="hd-icon-tdesign-dam-4-filled" viewBox="0 0 24 24"><path fill="currentColor" d="M9.5 13h5v9h-5z"/><path fill="currentColor" d="M13 2h9v20h-5.5V11H13zM2 2h9v9H7.5v11H2z"/></symbol><symbol id="hd-icon-tdesign-dam-5" viewBox="0 0 24 24"><g fill="none"><path d="M16 3H8v12a4 4 0 0 1 8 0zm4 18V3h-4v18zM4 21V3h4v18z"/><path stroke="currentColor" stroke-linecap="square" stroke-width="2" d="M4 3v18M4 3h4M4 3H3m17 0v18m0-18h-4m4 0h1M4 21H3m1 0h4m12 0h1m-1 0h-4M8 3h8M8 3v12m0 6h8m-8 0v-6m8-12v12m0 6v-6m-8 0a4 4 0 0 1 8 0"/></g></symbol><symbol id="hd-icon-tdesign-dam-5-filled" viewBox="0 0 24 24"><path fill="currentColor" d="M2 2h20v2h-1v16h1v2H2v-2h1V4H2zm3 2v16h2V4zm12 0v16h2V4zm-2 16v-5a3 3 0 1 0-6 0v5z"/></symbol><symbol id="hd-icon-tdesign-dam-6" viewBox="0 0 24 24"><g fill="none"><path d="M4 3h16v18h-5v-6a3 3 0 1 0-6 0v6H4z"/><path stroke="currentColor" stroke-linecap="square" stroke-width="2" d="M4 21H3m1 0h5m-5 0V3h16v18m0 0h1m-1 0h-5m-6 0h1m-1 0v-6a3 3 0 0 1 3-3v0a3 3 0 0 1 3 3v6m-1 0h1M3 8h18"/></g></symbol><symbol id="hd-icon-tdesign-dam-6-filled" viewBox="0 0 24 24"><path fill="currentColor" d="M21 2H3v4H2v2h20V6h-1zm0 8H3v10H2v2h8.5v-2h-1v-4.5a2.5 2.5 0 0 1 5 0V20h-1v2H22v-2h-1z"/></symbol><symbol id="hd-icon-tdesign-dam-7" viewBox="0 0 24 24"><g fill="none"><path d="M18 6h2v15H4V6h2l1-4h10z"/><path d="M15 21v-8H9v8z"/><path stroke="currentColor" stroke-width="2" d="M15 21v-8H9v8z"/><path stroke="currentColor" stroke-linecap="square" stroke-width="2" d="M21 21H3M20 6v15H4V6zM6 6l1-4h10l1 4z"/></g></symbol><symbol id="hd-icon-tdesign-dam-7-filled" viewBox="0 0 24 24"><path fill="currentColor" d="M6.22 1h11.56l1 4H21v15h1v2h-5.5v-9h-9v9H2v-2h1V5h2.22zm1.06 4h9.44l-.5-2H7.78z"/><path fill="currentColor" d="M9.5 22v-7h5v7z"/></symbol><symbol id="hd-icon-tdesign-dam-filled" viewBox="0 0 24 24"><path fill="currentColor" d="m12 .671l9 7.875V20h1v2h-9v-2h1V10h-4v10h1v2H2v-2h1V8.546zm-7 19.33h3V10H5zm14-10h-3v10h3z"/></symbol><symbol id="hd-icon-tdesign-dart-board" viewBox="0 0 24 24"><g fill="none"><path d="M22 12c0 5.523-4.477 10-10 10S2 17.523 2 12S6.477 2 12 2s10 4.477 10 10"/><path d="M18 12a6 6 0 1 1-12 0a6 6 0 0 1 12 0"/><path stroke="currentColor" stroke-width="2" d="M22 12c0 5.523-4.477 10-10 10S2 17.523 2 12S6.477 2 12 2s10 4.477 10 10Z"/><g stroke="currentColor" stroke-width="2"><path d="M18 12a6 6 0 1 1-12 0a6 6 0 0 1 12 0Z"/><path d="M13 12a1 1 0 1 1-2 0a1 1 0 0 1 2 0Z"/></g></g></symbol><symbol id="hd-icon-tdesign-dart-board-filled" viewBox="0 0 24 24"><path fill="currentColor" d="M7 12a5 5 0 1 1 10 0a5 5 0 0 1-10 0m5-2a2 2 0 1 0 0 4a2 2 0 0 0 0-4"/><path fill="currentColor" d="M12 1c6.075 0 11 4.925 11 11s-4.925 11-11 11S1 18.075 1 12S5.925 1 12 1m0 4a7 7 0 1 0 0 14a7 7 0 0 0 0-14"/></symbol><symbol id="hd-icon-tdesign-dashboard" viewBox="0 0 24 24"><g fill="none"><path d="M15 12a3 3 0 1 1-6 0a3 3 0 0 1 6 0"/><path stroke="currentColor" stroke-linecap="square" stroke-width="2" d="M19.567 4.414L14.11 9.87m0 0a3 3 0 1 0-4.223 4.263A3 3 0 0 0 14.11 9.87Z"/><path stroke="currentColor" stroke-linecap="square" stroke-width="2" d="M7 20.662A10 10 0 0 1 2 12C2 6.477 6.477 2 12 2a10 10 0 0 1 3.135.501m1.868 18.16A10 10 0 0 0 22 12a10 10 0 0 0-.501-3.136"/></g></symbol><symbol id="hd-icon-tdesign-dashboard-1" viewBox="0 0 24 24"><g fill="none"><path d="M10 12H3v9h7zm4-9h7v9h-7zm-4 0H3v5h7zm11 13h-7v5h7z"/><path stroke="currentColor" stroke-linecap="square" stroke-width="2" d="M10 12H3v9h7zm4-9h7v9h-7zm-4 0H3v5h7zm11 13h-7v5h7z"/></g></symbol><symbol id="hd-icon-tdesign-dashboard-1-filled" viewBox="0 0 24 24"><path fill="currentColor" d="M2 2h9v7H2zm11 0h9v11h-9zM2 11h9v11H2zm11 4h9v7h-9z"/></symbol><symbol id="hd-icon-tdesign-dashboard-filled" viewBox="0 0 24 24"><path fill="currentColor" d="M12 3a9 9 0 0 0-4.5 16.796l.865.5l-1.001 1.732l-.866-.5A11 11 0 0 1 1 12C1 5.925 5.925 1 12 1c1.203 0 2.362.193 3.448.552l.95.313l-.627 1.9l-.95-.314A9 9 0 0 0 12 3m8.981 1.414l-5.542 5.542a4 4 0 1 1-1.42-1.41L19.567 3zm1.154 3.188l.313.95C22.807 9.638 23 10.797 23 12c0 4.071-2.212 7.625-5.496 9.526l-.865.5l-1.002-1.73l.865-.501A9 9 0 0 0 21 12a9 9 0 0 0-.45-2.822l-.314-.95z"/></symbol><symbol id="hd-icon-tdesign-data" viewBox="0 0 24 24"><g fill="none"><path d="M3 21h18V3H3z"/><path stroke="currentColor" stroke-width="2" d="M21 12v9H3v-9m18 0H3m18 0V3H3v9m3.998-4.5h.004v.004h-.004zm0 9h.004v.004h-.004z"/></g></symbol><symbol id="hd-icon-tdesign-data-base" viewBox="0 0 24 24"><g fill="none"><path d="M21 20h-.514c-1.236 1.165-4.568 2-8.486 2s-7.25-.835-8.486-2H3V5c0 1.657 4.03 3 9 3s9-1.343 9-3z"/><path d="M12 8c4.97 0 9-1.343 9-3s-4.03-3-9-3s-9 1.343-9 3s4.03 3 9 3"/><path stroke="currentColor" stroke-width="2" d="M21 12c0 1.657-4.03 3-9 3s-9-1.343-9-3m18 0v7c0 1.657-4.03 3-9 3s-9-1.343-9-3v-7m18 0V5M3 12V5m0 0c0 1.657 4.03 3 9 3s9-1.343 9-3M3 5c0-1.657 4.03-3 9-3s9 1.343 9 3"/></g></symbol><symbol id="hd-icon-tdesign-data-base-filled" viewBox="0 0 24 24"><path fill="currentColor" d="M19.704 8.588C17.64 9.276 14.917 9.667 12 9.667s-5.64-.391-7.704-1.08C3.47 8.313 2.674 7.965 2 7.526v4.305c0 1.841 4.477 3.333 10 3.333s10-1.492 10-3.333V7.525c-.674.44-1.469.787-2.297 1.063"/><path fill="currentColor" d="M22 15.022c-.674.439-1.469.787-2.297 1.062c-2.063.688-4.786 1.08-7.703 1.08s-5.64-.392-7.704-1.08C3.47 15.81 2.674 15.462 2 15.022v4.645C2 21.507 6.477 23 12 23s10-1.492 10-3.333zM12 7.667c-5.523 0-10-1.493-10-3.334V4.33C2.005 2.49 6.48 1 12 1c4.142 0 7.696.84 9.214 2.036c.506.399.786.837.786 1.297c0 1.841-4.477 3.334-10 3.334"/></symbol><symbol id="hd-icon-tdesign-data-checked" viewBox="0 0 24 24"><g fill="none"><path d="M3 3h18v9H3z"/><path stroke="currentColor" stroke-linecap="square" stroke-width="2" d="M21 12V3H3v9m18 0H3m18 0v1.5M3 12v9h9m-9-9v-.002M6.998 7.5h.004v.004h-.004zm0 9h.004v.004h-.004zm15.684.94l-4.243 4.242l-2.121-2.121"/></g></symbol><symbol id="hd-icon-tdesign-data-checked-filled" viewBox="0 0 25 24"><path fill="currentColor" d="M2.226 2h20v9h-20zm6.002 3.5H6.224v2.004h2.004zM2.226 13h20v1.6a5.5 5.5 0 0 0-7.4 7.4h-12.6zm6.002 3.5H6.224v2.004h2.004z"/><path fill="currentColor" d="m18.662 23.101l5.657-5.656l-1.414-1.415l-4.243 4.243l-2.121-2.121l-1.414 1.414z"/></symbol><symbol id="hd-icon-tdesign-data-display" viewBox="0 0 24 24"><path fill="none" stroke="currentColor" stroke-linecap="square" stroke-width="2" d="M4 5h.5a1 1 0 0 1 1 1v9m0 0H4m1.5 0H7m3-10h3a1 1 0 0 1 1 1v3a1 1 0 0 1-1 1h-2a1 1 0 0 0-1 1v4h4m3 0h3a1 1 0 0 0 1-1v-4m-4-5h3a1 1 0 0 1 1 1v4m0 0h-3.5m3.5 9H4"/></symbol><symbol id="hd-icon-tdesign-data-error" viewBox="0 0 24 24"><g fill="none"><path d="M3 3h18v9H3z"/><path stroke="currentColor" stroke-linecap="square" stroke-width="2" d="M21 12H3m18 0v1.5m0-1.5V3H3v9m0 0v9h10.5M3 12v-.002M6.998 16.5h.004v.004h-.004zm0-9h.004v.004h-.004zm14.624 9.879L19.5 19.5m0 0l-2.121 2.122M19.5 19.5l-2.12-2.12m2.12 2.12l2.122 2.122"/></g></symbol><symbol id="hd-icon-tdesign-data-error-filled" viewBox="0 0 25 24"><path fill="currentColor" d="M2.226 2h20v9h-20zm6.002 3.5H6.224v2.004h2.004zM2.226 13h20v1.6a5.5 5.5 0 0 0-7.4 7.4h-12.6zm6.002 3.5H6.224v2.004h2.004z"/><path fill="currentColor" d="M19.722 18.081L17.6 15.96l-1.414 1.414l2.122 2.122l-2.122 2.12l1.415 1.415l2.12-2.121l2.122 2.121l1.414-1.414l-2.121-2.122l2.121-2.12l-1.414-1.415z"/></symbol><symbol id="hd-icon-tdesign-data-filled" viewBox="0 0 25 24"><path fill="currentColor" d="M2.226 2h20v9h-20zm6.002 3.5H6.224v2.004h2.004zM2.226 13h20v9h-20zm6.002 3.5H6.224v2.004h2.004z"/></symbol><symbol id="hd-icon-tdesign-data-search" viewBox="0 0 24 24"><g fill="none"><path d="M3 3h18v9H3zm18.5 15.25a2.75 2.75 0 1 1-5.5 0a2.75 2.75 0 0 1 5.5 0"/><path stroke="currentColor" stroke-linecap="square" stroke-width="2" d="M3 12h18V3H3zm0 0v9h9.5M3 12v-.002M6.998 7.5h.004v.004h-.004zm0 9h.004v.004h-.004zm15.252 5.25l-1.555-1.555m.805-1.945a2.75 2.75 0 1 1-5.5 0a2.75 2.75 0 0 1 5.5 0Z"/></g></symbol><symbol id="hd-icon-tdesign-data-search-filled" viewBox="0 0 25 24"><path fill="currentColor" d="M2.226 2h20v9h-20zm6.002 4.5H6.224v2.004h2.004zM2.226 13h16.75a5.25 5.25 0 0 0-3.674 9H2.226zm6.002 2.5H6.224v2.004h2.004z"/><path fill="currentColor" d="M18.976 14.5a3.75 3.75 0 1 0 1.85 7.013l1.65 1.651l1.415-1.414l-1.651-1.651a3.75 3.75 0 0 0-3.263-5.599m-1.75 3.75a1.75 1.75 0 1 1 3.5 0a1.75 1.75 0 0 1-3.5 0"/></symbol><symbol id="hd-icon-tdesign-delete" viewBox="0 0 24 24"><g fill="none"><path d="M5 5h14l-.5 17h-13z"/><path stroke="currentColor" stroke-linecap="square" stroke-width="2" d="M21 5H3m2 0h14l-.5 17h-13zm3.5-3h7v3h-7zM12 9v9"/></g></symbol><symbol id="hd-icon-tdesign-delete-1" viewBox="0 0 24 24"><g fill="none"><path d="M5 5h14l-.5 17h-13z"/><path stroke="currentColor" stroke-linecap="square" stroke-width="2" d="M5 5h14M5 5l.5 17h13L19 5M5 5H3m16 0h2M8.5 2h7v3h-7zm6.329 8.672L12 13.5m0 0l-2.828 2.828M12 13.5l-2.828-2.828M12 13.5l2.829 2.828"/></g></symbol><symbol id="hd-icon-tdesign-delete-1-filled" viewBox="0 0 24 24"><path fill="currentColor" d="M7.5 3h9V1h-9zM22 6V4H2v2h2.029l.5 17h14.942l.5-17zm-5.757 4.672L13.415 13.5l2.828 2.828l-1.414 1.415L12 14.914l-2.829 2.829l-1.414-1.415l2.828-2.828l-2.828-2.828l1.414-1.415L12 12.086l2.828-2.829z"/></symbol><symbol id="hd-icon-tdesign-delete-filled" viewBox="0 0 24 24"><path fill="currentColor" d="M7.5 3h9V1h-9zM22 6V4H2v2h2.029l.5 17h14.942l.5-17zM11 19V8h2v11z"/></symbol><symbol id="hd-icon-tdesign-delete-time" viewBox="0 0 24 24"><g fill="none"><path d="M14 18.5a4.5 4.5 0 1 0 9 0a4.5 4.5 0 0 0-9 0"/><path stroke="currentColor" stroke-linecap="square" stroke-width="2" d="M5 5h14M5 5l.5 17h5M5 5H3m16 0h2m-2 0l-.162 5.5M12 9v5M8.5 2h7v3h-7zm10 15.252V18.5l1 1m-1 3.5a4.5 4.5 0 1 1 0-9a4.5 4.5 0 0 1 0 9Z"/></g></symbol><symbol id="hd-icon-tdesign-delete-time-filled" viewBox="0 0 24 24"><path fill="currentColor" d="M7.5 3h9V1h-9zM22 6V4H2v2h2.029l.5 17h7.97A7.47 7.47 0 0 1 11 18.5V8h2v5.4a7.48 7.48 0 0 1 5.5-2.4q.676.001 1.32.116L19.972 6z"/><path fill="currentColor" d="M13 18.5a5.5 5.5 0 1 1 11 0a5.5 5.5 0 0 1-11 0m7.914 1L19.5 18.086v-1.834h-2v2.662l2 2z"/></symbol><symbol id="hd-icon-tdesign-delta" viewBox="0 0 24 24"><path fill="none" stroke="currentColor" stroke-linecap="square" stroke-width="2" d="m5 13l13-9v17z"/></symbol><symbol id="hd-icon-tdesign-delta-filled" viewBox="0 0 24 24"><path fill="currentColor" d="M19 2.092V22.79L3.172 13.05z"/></symbol><symbol id="hd-icon-tdesign-depressed" viewBox="0 0 24 24"><g fill="none"><path d="M22 12c0 5.523-4.477 10-10 10S2 17.523 2 12S6.477 2 12 2s10 4.477 10 10"/><path stroke="currentColor" stroke-linecap="square" stroke-width="2" d="M22 12c0 5.523-4.477 10-10 10S2 17.523 2 12S6.477 2 12 2s10 4.477 10 10Z"/><path stroke="currentColor" stroke-linecap="square" stroke-width="2" d="m16.867 10.5l-1.732-1m-6.268 0l-1.732 1m1.4 5.5A4 4 0 0 1 12 14c1.48 0 2.773.804 3.465 2"/></g></symbol><symbol id="hd-icon-tdesign-depressed-filled" viewBox="0 0 24 24"><path fill="currentColor" d="M12 23C5.925 23 1 18.075 1 12S5.925 1 12 1s11 4.925 11 11s-4.925 11-11 11M6.769 11.866l3.464-2l-1-1.732l-3.464 2zm11.464-1.732l-3.464-2l-1 1.732l3.464 2zM12 13a5 5 0 0 0-4.33 2.5l-.501.865l1.73 1.001l.502-.866C9.92 15.601 10.89 15 12 15s2.079.601 2.6 1.5l.5.866l1.731-1.001l-.5-.866A5 5 0 0 0 12 13"/></symbol><symbol id="hd-icon-tdesign-desktop" viewBox="0 0 24 24"><g fill="none"><path d="M2 4h20v13H2z"/><path stroke="currentColor" stroke-linecap="square" stroke-width="2" d="M12 17v4m-4 0h8M2 4h20v13H2z"/></g></symbol><symbol id="hd-icon-tdesign-desktop-1" viewBox="0 0 24 24"><g fill="none"><path d="M2 4h20v11H2zm0 11v3h20v-3z"/><path stroke="currentColor" stroke-linecap="square" stroke-width="2" d="M12 18v3M2 15h20M9 21h6M2 4h20v14H2z"/></g></symbol><symbol id="hd-icon-tdesign-desktop-1-filled" viewBox="0 0 24 24"><path fill="currentColor" d="M23 3H1v11h22zm0 13H1v3h10v1H7v2h10v-2h-4v-1h10z"/></symbol><symbol id="hd-icon-tdesign-desktop-filled" viewBox="0 0 24 24"><path fill="currentColor" d="M1 3h22v15H13v2h4v2H7v-2h4v-2H1z"/></symbol><symbol id="hd-icon-tdesign-despise" viewBox="0 0 24 24"><g fill="none"><path d="M22 12c0 5.523-4.477 10-10 10S2 17.523 2 12S6.477 2 12 2s10 4.477 10 10"/><path stroke="currentColor" stroke-linecap="square" stroke-width="2" d="M22 12c0 5.523-4.477 10-10 10S2 17.523 2 12S6.477 2 12 2s10 4.477 10 10Z"/><path stroke="currentColor" stroke-linecap="square" stroke-width="2" d="M8.535 16A4 4 0 0 1 12 14c1.48 0 2.773.804 3.465 2M17 10h-1m0 0h-1m1 0v2m-7-2H8m0 0H7m1 0v2"/></g></symbol><symbol id="hd-icon-tdesign-despise-filled" viewBox="0 0 24 24"><path fill="currentColor" d="M12 23C5.925 23 1 18.075 1 12S5.925 1 12 1s11 4.925 11 11s-4.925 11-11 11M10 9H6v2h1v2h2v-2h1zm8 0h-4v2h1v2h2v-2h1zm-6 4a5 5 0 0 0-4.33 2.5l-.501.865L8.9 17.366l.5-.865C9.922 15.6 10.89 15 12 15s2.08.601 2.6 1.5l.5.866l1.731-1.001l-.5-.866A5 5 0 0 0 12 13"/></symbol><symbol id="hd-icon-tdesign-device" viewBox="0 0 24 24"><defs><path id="hd-icon-tdesign-device-569" d="M15 9h8v12h-8z"/></defs><g fill="none"><use href="#hd-icon-tdesign-device-569"/><path stroke="currentColor" stroke-linecap="square" stroke-width="2" d="M11 18H2V3h20v2M6 21h5"/><g stroke="currentColor" stroke-linecap="square" stroke-width="2"><use href="#hd-icon-tdesign-device-569"/><path d="M18.998 17.998h.004v.004h-.004z"/></g></g></symbol><symbol id="hd-icon-tdesign-device-filled" viewBox="0 0 24 24"><path fill="currentColor" d="M23 2H1v17h11.5V6.5H23zM12.5 20H5v2h7.5z"/><path fill="currentColor" d="M14.5 8.5H24V22h-9.5zm3.748 8.498v2.004h2.004v-2.004z"/></symbol><symbol id="hd-icon-tdesign-dialog-history" viewBox="0 0 24 24"><g fill="none"><path d="M11 14a6 6 0 1 0 12 0a6 6 0 0 0-12 0"/><path stroke="currentColor" stroke-linecap="square" stroke-width="2" d="M1 4h22M1 9h6m-6 5h6m-6 5h6m10-6.664V14l1.333 1.333M17 20a6 6 0 1 1 0-12a6 6 0 0 1 0 12Z"/></g></symbol><symbol id="hd-icon-tdesign-dialog-history-filled" viewBox="0 0 24 24"><path fill="currentColor" d="M17 7a7 7 0 0 1 7 7l-.009.36a7 7 0 0 1-6.63 6.631L17 21a7 7 0 0 1-6.991-6.64L10 14a7 7 0 0 1 7-7m-1 7.414l2.333 2.333l1.414-1.414L18 13.586v-2.25h-2zM8 20H0v-2h8zm0-5H0v-2h8zm0-5H0V8h8zm16-5H0V3h24z"/></symbol><symbol id="hd-icon-tdesign-discount" viewBox="0 0 24 24"><g fill="none"><path d="m11.878 22.02l-9.9-9.899l9.9-9.9l9.192.708l.707 9.192z"/><path d="M14 7.17A2 2 0 1 1 16.828 10A2 2 0 0 1 14 7.17"/><path stroke="currentColor" stroke-width="2" d="m11.878 22.02l-9.9-9.899l9.9-9.9l9.192.708l.707 9.192z"/><path stroke="currentColor" stroke-width="2" d="M14 7.17A2 2 0 1 1 16.828 10A2 2 0 0 1 14 7.17Z"/></g></symbol><symbol id="hd-icon-tdesign-discount-filled" viewBox="0 0 24 24"><path fill="currentColor" d="M16.474 7.524a1.5 1.5 0 1 0-2.122 2.122a1.5 1.5 0 0 0 2.122-2.122"/><path fill="currentColor" d="m22.003 1.998l.808 10.505l-10.932 10.932L.565 12.121L11.497 1.19zm-8.711 4.466a3 3 0 1 0 4.243 4.242a3 3 0 0 0-4.243-4.242"/></symbol><symbol id="hd-icon-tdesign-discount-list" viewBox="0 0 24 24"><g fill="none"><path d="m20.788 2.754l.618 8.039l-10.431 10.432l-8.486-8.486L13.07 2.16zm-4.243 4.242a2 2 0 1 0-2.828 2.828a2 2 0 0 0 2.828-2.828" clip-rule="evenodd"/><path stroke="currentColor" stroke-linecap="square" stroke-width="2" d="M22 17h-2m2 4h-6"/><g stroke="currentColor" stroke-width="2"><path d="M10.975 21.225L2.489 12.74L13.07 2.16l7.72.594l.617 8.039z"/><path d="M13.717 6.996a2 2 0 1 1 2.828 2.828a2 2 0 0 1-2.828-2.828Z"/></g></g></symbol><symbol id="hd-icon-tdesign-discount-list-filled" viewBox="0 0 24 24"><path fill="currentColor" d="m21.72 1.822l.719 9.353l-11.464 11.464l-9.9-9.9L12.687 1.128zm-4.331 4.433a2.5 2.5 0 1 0-3.535 3.534a2.5 2.5 0 0 0 3.535-3.534M23 16v2h-4v-2zm0 4v2h-8v-2z"/></symbol><symbol id="hd-icon-tdesign-dissatisfaction" viewBox="0 0 24 24"><g fill="none"><path d="M22 12c0 5.523-4.477 10-10 10S2 17.523 2 12S6.477 2 12 2s10 4.477 10 10"/><path stroke="currentColor" stroke-linecap="square" stroke-width="2" d="M22 12c0 5.523-4.477 10-10 10S2 17.523 2 12S6.477 2 12 2s10 4.477 10 10Z"/><path stroke="currentColor" stroke-linecap="square" stroke-width="2" d="M17 9.5a1.5 1.5 0 0 1-3 0m-4 0a1.5 1.5 0 0 1-3 0M8.535 16A4 4 0 0 1 12 14c1.48 0 2.773.804 3.465 2"/></g></symbol><symbol id="hd-icon-tdesign-dissatisfaction-filled" viewBox="0 0 24 24"><path fill="currentColor" d="M12 23C5.925 23 1 18.075 1 12S5.925 1 12 1s11 4.925 11 11s-4.925 11-11 11M8 9.5v-1H6v1a2.5 2.5 0 0 0 5 0v-1H9v1a.5.5 0 0 1-1 0m7 0v-1h-2v1a2.5 2.5 0 0 0 5 0v-1h-2v1a.5.5 0 0 1-1 0M12 13a5 5 0 0 0-4.33 2.5l-.501.865L8.9 17.366l.5-.865C9.922 15.6 10.89 15 12 15s2.08.601 2.6 1.5l.5.866l1.731-1.001l-.5-.866A5 5 0 0 0 12 13"/></symbol><symbol id="hd-icon-tdesign-divide" viewBox="0 0 24 24"><path fill="none" stroke="currentColor" stroke-linecap="square" stroke-width="2" d="M16.5 12h-9m4.504 4.004H12V16h.004zm0-8H12V8h.004z"/></symbol><symbol id="hd-icon-tdesign-dividers" viewBox="0 0 24 24"><g fill="none"><path d="M12 3.118c-1.864 0-3.375 1.5-3.375 3.353c0 1.851 1.511 3.353 3.375 3.353s3.375-1.502 3.375-3.353S13.864 3.118 12 3.118"/><path stroke="currentColor" stroke-linecap="square" stroke-width="2" d="M12 3.118c-1.864 0-3.375 1.5-3.375 3.353c0 1.851 1.511 3.353 3.375 3.353s3.375-1.502 3.375-3.353S13.864 3.118 12 3.118Zm0 0V2M3 16h18m-9-2v4m2.776-8.8L21 21M9.224 9.2L3 21"/></g></symbol><symbol id="hd-icon-tdesign-dividers-1" viewBox="0 0 24 24"><g fill="none"><path d="M15.428 8.737c0 1.83-1.535 3.316-3.428 3.316c-1.892 0-3.427-1.485-3.427-3.316c0-1.832 1.535-3.316 3.427-3.316s3.428 1.484 3.428 3.316"/><path stroke="currentColor" stroke-linecap="square" stroke-width="2" d="M12 5.421c-1.892 0-3.427 1.485-3.427 3.316s1.535 3.316 3.427 3.316s3.428-1.485 3.428-3.316S13.893 5.42 12 5.42Zm0 0V2m8.302 14.302a20.06 20.06 0 0 1-16.604 0m5.872-5.227L4.004 22H4zm4.86 0L19.997 22H20z"/></g></symbol><symbol id="hd-icon-tdesign-document-location" viewBox="0 0 24 24"><g fill="none"><path d="M21.75 16.75c0 3.253-3.75 5.75-3.75 5.75s-3.75-2.497-3.75-5.75a3.75 3.75 0 1 1 7.5 0"/><path stroke="currentColor" stroke-linecap="square" stroke-width="2" d="M17.75 17h.5m3.5-.25c0 3.253-3.75 5.75-3.75 5.75s-3.75-2.497-3.75-5.75a3.75 3.75 0 1 1 7.5 0Z"/><path stroke="currentColor" stroke-linecap="square" stroke-width="2" d="M20.5 9.5v-7h-17v19H12M8 8h8m-8 4h3"/></g></symbol><symbol id="hd-icon-tdesign-document-location-filled" viewBox="0 0 24 24"><path fill="currentColor" d="M17.375 11.4a4.75 4.75 0 0 1 4.75 4.75c0 2-1.14 3.673-2.135 4.767c-.51.562-1.02 1.01-1.4 1.318c-.387.315-.8.589-1.215.866c-.415-.277-.828-.551-1.216-.866a13 13 0 0 1-1.4-1.318c-.994-1.094-2.134-2.767-2.134-4.768a4.75 4.75 0 0 1 4.75-4.75m3.5-.43a6.25 6.25 0 0 0-9.75 5.179c0 2.544 1.423 4.558 2.501 5.75H1.875V.9h19zm-4.75 6.43h2.5v-2h-2.5zm-9.75-5h4v-2h-4zm0-4h10v-2h-10z"/></symbol><symbol id="hd-icon-tdesign-document-popular" viewBox="0 0 24 24"><g fill="none"><path d="M15.143 21.565C13.5 19.5 14.5 17.5 15.5 16.5l1 1c.5-.5 0-3.5 3.733-4c0 1.466.243 2.2.728 2.933c.812 1.466 1.539 2.03 1.539 3.666c0 1.466-1.455 2.932-2.91 2.2c-.664-.336-1.78-.245-2.266 0c-1.163.586-1.782-.232-2.182-.734"/><path stroke="currentColor" stroke-width="2" d="M15.143 21.565C13.5 19.5 14.5 17.5 15.5 16.5l1 1c.5-.5 0-3.5 3.733-4c0 1.466.243 2.2.728 2.933c.812 1.466 1.539 2.03 1.539 3.666c0 1.466-1.455 2.932-2.91 2.2c-.664-.336-1.78-.245-2.266 0c-1.163.586-1.782-.232-2.182-.734Z"/><path stroke="currentColor" stroke-linecap="square" stroke-width="2" d="M20.5 9.5v-7h-17v19H11M8 8h8m-8 4h4"/></g></symbol><symbol id="hd-icon-tdesign-document-popular-filled" viewBox="0 0 24 24"><path fill="currentColor" d="M20.233 12.999c0 1.154.16 1.704.437 2.18l.125.2l.021.034l.02.034c.186.336.368.623.55.907c.176.275.366.57.53.876c.353.658.584 1.369.584 2.368c0 1.044-.506 2.052-1.266 2.69c-.787.662-1.94.984-3.093.402c-.127-.064-.387-.12-.724-.11c-.342.008-.58.079-.643.11c-.862.435-1.659.386-2.312.024c-.556-.308-.932-.813-1.103-1.027c-1.002-1.26-1.236-2.573-1.011-3.744c.216-1.127.843-2.049 1.445-2.651l.707-.707l.535.535a5 5 0 0 1 .211-.54a4.13 4.13 0 0 1 1.305-1.62c.645-.476 1.48-.809 2.55-.952l1.132-.152zm.267-2.692l-1.599.214c-1.273.171-2.358.58-3.242 1.234c-.38.281-.696.59-.96.908l-.199-.2l-1.768 1.768c-.755.756-1.57 1.935-1.857 3.43c-.268 1.396-.04 2.91.868 4.338H1.5v-21h19zM6 12.499h5v-2H6zm0-4h10v-2H6z"/></symbol><symbol id="hd-icon-tdesign-document-update" viewBox="0 0 24 24"><path fill="none" stroke="currentColor" stroke-linecap="square" stroke-width="2" d="M15 19a4 4 0 1 0 4-4h-2.25M18 13l-2 2l2 2m2.5-8V2.5h-17v19H11M8 8h8m-8 4h4"/></symbol><symbol id="hd-icon-tdesign-document-update-filled" viewBox="0 0 24 24"><path fill="currentColor" d="m19.414 13l-1 1H19a5 5 0 1 1-5 5v-1h2v1a3 3 0 1 0 3-3h-.586l1 1L18 18.414L14.586 15L18 11.586z"/><path fill="currentColor" d="M21.5 10.928A7.5 7.5 0 0 0 11.5 18l.01.386a7.46 7.46 0 0 0 1.492 4.114H2.5v-21h19zM7 13h5v-2H7zm0-4h10V7H7z"/></symbol><symbol id="hd-icon-tdesign-doge" viewBox="0 0 24 24"><g fill="none"><path d="M12 22c5.523 0 10-4.214 10-9.412V2h-3.889l-1.667 2.155A10.5 10.5 0 0 0 12 3.176c-1.597 0-3.106.353-4.444.979L5.333 2H2v10.588C2 17.786 6.477 22 12 22"/><path d="M12.001 13.5c-.5 1-1.25 1.5-2 1.563c.333.979 1.2 2.937 2 2.937s1.667-1.958 2-2.937c-.75-.063-1.5-.563-2-1.563"/><path stroke="currentColor" stroke-linecap="square" stroke-width="2" d="M22 12V2h-3.889l-1.458 1.885M2 12V2h3.333l1.945 1.885M22 12.588C22 17.786 17.523 22 12 22S2 17.786 2 12.588s4.477-9.412 10-9.412s10 4.214 10 9.412Z"/><path stroke="currentColor" stroke-linecap="square" stroke-width="2" d="M8 10v1m8-1v1m-.686 3.704c-1.057.72-2.509.405-3.313-1.204c-.804 1.609-2.256 1.924-3.313 1.204m5.228.596c-.38 1.026-1.176 2.7-1.915 2.7s-1.536-1.674-1.916-2.7"/></g></symbol><symbol id="hd-icon-tdesign-doge-filled" viewBox="0 0 24 24"><path fill="currentColor" d="M11.689 16.393a8 8 0 0 1-.367-.716a3.5 3.5 0 0 0 .679-.503q.316.3.68.503a8 8 0 0 1-.368.716q-.173.292-.312.462a4 4 0 0 1-.312-.462"/><path fill="currentColor" d="m5.739 1l2.034 1.973A11.5 11.5 0 0 1 12 2.176c1.456 0 2.85.269 4.125.757L17.62 1H23v12h-.008c-.23 5.611-5.118 10-10.992 10S1.237 18.611 1.008 13H1V1zm.149 2.93L4.928 3H3v3.6a10.8 10.8 0 0 1 2.888-2.67M21 3h-2.398l-.645.834A10.8 10.8 0 0 1 21 6.6zM9 12V9H7v3zm8 0V9h-2v3zm-4.105 1.053l-.894-1.79l-.894 1.79c-.379.757-.857.985-1.19 1.013a1.03 1.03 0 0 1-.667-.189l-.827-.562l-1.125 1.654l.827.562c.357.243.752.409 1.166.487c.179.439.409.936.672 1.386c.2.34.443.697.728.982c.26.26.707.614 1.31.614c.602 0 1.05-.355 1.31-.614c.285-.285.528-.642.728-.982c.263-.45.493-.947.671-1.386c.415-.078.81-.244 1.167-.487l.826-.562l-1.124-1.654l-.827.562a1.02 1.02 0 0 1-.668.189c-.332-.028-.81-.256-1.189-1.013"/></symbol><symbol id="hd-icon-tdesign-double-storey" viewBox="0 0 24 24"><g fill="none"><path d="M17 9h3v12H4V9h3V3h10z"/><path d="M9 21v-7h6v7z"/><path stroke="currentColor" stroke-linecap="square" stroke-width="2" d="M11.998 5.998h.004v.004h-.004zM9 21v-7h6v7z"/><path stroke="currentColor" stroke-linecap="square" stroke-width="2" d="M6 3h1m0 0v6h10V3M7 3h10m0 0h1M3 9h1m0 0v12M4 9h16M4 21H3m1 0h16m0-12v12m0-12h1m-1 12h1"/></g></symbol><symbol id="hd-icon-tdesign-double-storey-filled" viewBox="0 0 24 24"><path fill="currentColor" d="M2 10h20v2h-1v8h1v2h-6v-7H8v7H2v-2h1v-8H2z"/><path fill="currentColor" d="M10 22v-5h4v5zm9-20H5v2h1v4h12V4h1zm-5.998 1.998v2.004h-2.004V3.998z"/></symbol><symbol id="hd-icon-tdesign-download" viewBox="0 0 24 24"><path fill="none" stroke="currentColor" stroke-linecap="square" stroke-width="2" d="M16.5 10.5L12 15l-4.5-4.5m4.5 3.25V4m8.5 11v5h-17v-5"/></symbol><symbol id="hd-icon-tdesign-download-1" viewBox="0 0 24 24"><g fill="none"><path d="M22 3H2v14h20z"/><path stroke="currentColor" stroke-linecap="square" stroke-width="2" d="M4.223 21h15.555M2 3h20v14H2z"/><path stroke="currentColor" stroke-linecap="square" stroke-width="2" d="M9.5 10.605L12 13l2.5-2.395M12 12.25V7"/></g></symbol><symbol id="hd-icon-tdesign-download-2" viewBox="0 0 24 24"><g fill="none"><path d="M22 3H2v14h20z"/><path stroke="currentColor" stroke-linecap="square" stroke-width="2" d="M4.223 21h15.555M2 3h20v14H2z"/><path stroke="currentColor" stroke-linecap="square" stroke-width="2" d="M9.5 10.605L12 13l2.5-2.395M12 12.25V7"/></g></symbol><symbol id="hd-icon-tdesign-download-2-filled" viewBox="0 0 24 24"><path fill="currentColor" d="M23 2H1v16h22zm-7.086 8.636L12 14.385l-3.914-3.75l1.383-1.444L11 10.657V6h2v4.657l1.531-1.466zM21 20H3v2h18z"/></symbol><symbol id="hd-icon-tdesign-downscale" viewBox="0 0 24 24"><path fill="none" stroke="currentColor" stroke-linecap="square" stroke-width="2" d="M10 3H3v6m18 5v7h-6M3 15v-2h2m4 0h2v2m0 4v2H9m-6-2v2h2m8.944-15.914l.028 4.922l4.922.028m-4.39-.56l5.482-5.482"/></symbol><symbol id="hd-icon-tdesign-draft" viewBox="0 0 24 24"><g fill="none"><path d="M12 17a4 4 0 0 0 3.874-3H22v7H2v-7h6.126c.444 1.725 2.01 3 3.874 3"/><path d="M12 17a4 4 0 0 0 3.874-3H20V3H4v11h4.126c.444 1.725 2.01 3 3.874 3"/><path stroke="currentColor" stroke-linecap="square" stroke-width="2" d="M4 14V3h16v11m-4.126 0a4.002 4.002 0 0 1-7.748 0H2v7h20v-7zM8 7h8m-8 4h4"/></g></symbol><symbol id="hd-icon-tdesign-draft-filled" viewBox="0 0 24 24"><path fill="currentColor" d="M13 12H7v-2h6zm4-4H7V6h10z"/><path fill="currentColor" d="M21 13h2v9H1v-9h2V2h18zM5 13h3.901l.194.751a3.001 3.001 0 0 0 5.81 0L15.1 13H19V4H5z"/></symbol><symbol id="hd-icon-tdesign-drag-drop" viewBox="0 0 24 24"><path fill="currentColor" d="M1.999 15V2h13v5h-2V4h-9v9h3v2zm6 5V8h12v5.5h-2V10h-8v8h3.5v2zm8.778 3.684L13.41 13.378l10.258 3.407l-4.656 2.227z"/></symbol><symbol id="hd-icon-tdesign-drag-move" viewBox="0 0 24 24"><path fill="none" stroke="currentColor" stroke-linecap="square" stroke-width="2" d="m15 5l-3-3l-3 3m0 14l3 3l3-3m4-4l3-3l-3-3M5 9l-3 3l3 3m7-12v9m0 0v9m0-9h9m-9 0H3"/></symbol><symbol id="hd-icon-tdesign-drink" viewBox="0 0 24 24"><g fill="none"><path d="M7.152 22h10.77l.578-8.454l-6.34-1.052l-5.722-.93zM3 6.222c0 1.75 1.5 3.159 3.29 3.159l-.216-3.159h3.389c0-1.749-1.447-3.166-3.232-3.166C4.447 3.056 3 4.473 3 6.222"/><path stroke="currentColor" stroke-linecap="square" stroke-width="2" d="M3 6.222c0 1.75 1.5 3.159 3.29 3.159l-.216-3.159h3.389c0-1.749-1.447-3.166-3.232-3.166C4.447 3.056 3 4.473 3 6.222Z"/><path stroke="currentColor" stroke-linecap="square" stroke-width="2" d="M19 2h-3.77L12.5 12M6.074 6.223H19L17.923 22H7.15zM17.923 22H7.152l-.715-10.436l5.722.93l6.341 1.052z"/></g></symbol><symbol id="hd-icon-tdesign-drink-filled" viewBox="0 0 24 24"><path fill="currentColor" d="M20 1h-5.52l-1.235 4.222h-2.904c-.457-1.829-2.137-3.166-4.11-3.166C3.914 2.056 2 3.902 2 6.222c0 2.018 1.475 3.642 3.349 4.056L6.217 23h12.64L20.07 5.222h-4.74L15.979 3H20zM7.38 10.704l-.236-3.482h5.515l-1.213 4.143zm10.55-3.482l-.352 5.157l-4.141-.687l1.308-4.47z"/></symbol><symbol id="hd-icon-tdesign-drumstick" viewBox="0 0 24 24"><g fill="none"><path d="M15 16a7 7 0 1 0-6.861-5.61L6.5 12c-.594.593-.383 1.815.444 3.06a7.8 7.8 0 0 0 1.97 2.03c1.306.926 2.62 1.189 3.242.567l1.77-1.739Q14.452 16 15 16"/><path d="M5.5 22c-1.54.04-1.5-2-1.5-2s-2.033.033-2-1.5c.034-1.534 1.91-1.5 3-1.5l1.945-1.94a7.8 7.8 0 0 0 1.97 2.03L7 19c0 1.1.04 2.96-1.5 3"/><path stroke="currentColor" stroke-linecap="square" stroke-width="2" d="M5.5 22c-1.54.04-1.5-2-1.5-2s-2.033.033-2-1.5c.034-1.534 1.91-1.5 3-1.5l1.945-1.94a7.8 7.8 0 0 0 1.97 2.03L7 19c0 1.1.04 2.96-1.5 3Z"/><path stroke="currentColor" stroke-linecap="square" stroke-width="2" d="M10.1 14a7 7 0 0 1-1.84-3.1m.655 6.19a7.8 7.8 0 0 1-1.971-2.029C6.117 13.814 5.906 12.593 6.5 12l1.638-1.61a7 7 0 1 1 5.788 5.528l-1.77 1.739c-.621.622-1.936.358-3.241-.568Z"/></g></symbol><symbol id="hd-icon-tdesign-drumstick-filled" viewBox="0 0 24 24"><path fill="currentColor" d="M11.117 15.996a8 8 0 1 1 10.88-10.879l-.002-.002A8 8 0 0 1 15 17a9 9 0 0 1-.716-.032l-1.423 1.4c-.636.632-1.513.703-2.248.57a5.2 5.2 0 0 1-1.554-.58l-1.06 1.057c-.004.506-.035 1.175-.214 1.77c-.122.406-.333.858-.721 1.217c-.408.378-.933.582-1.538.597c-.63.017-1.16-.187-1.567-.541c-.384-.335-.6-.755-.727-1.103a4 4 0 0 1-.132-.458a4 4 0 0 1-.454-.132a2.65 2.65 0 0 1-1.1-.726c-.354-.404-.56-.933-.546-1.561c.014-.606.218-1.133.597-1.54c.36-.387.813-.599 1.218-.72c.596-.18 1.265-.212 1.771-.218l1.106-1.103a5 5 0 0 1-.49-1.46c-.11-.71-.015-1.538.591-2.144l.006-.007l.26-.255q.042.111.088.222a8.5 8.5 0 0 0 4.97 4.743m-4.269.572L5.414 18H5c-.591 0-1.17 0-1.609.132c-.203.062-.294.13-.33.167c-.016.018-.058.063-.061.223c-.003.138.033.18.051.2a.7.7 0 0 0 .278.163a2 2 0 0 0 .621.114h.04l1.03-.016l-.02 1.03v.04a2.3 2.3 0 0 0 .113.622a.7.7 0 0 0 .16.276c.02.016.062.053.201.05c.165-.005.212-.049.23-.066c.038-.035.105-.124.166-.326c.13-.434.13-1.003.13-1.597v-.427l1.427-1.424a9 9 0 0 1-.579-.593"/></symbol><symbol id="hd-icon-tdesign-dv" viewBox="0 0 24 24"><g fill="none"><path d="M15 8h6v8h-6zm-3 4a4.98 4.98 0 0 1-1 3a5 5 0 0 1-4 2a5 5 0 0 1-4-2a4.98 4.98 0 0 1-1-3c0-1.126.372-2.165 1-3a5 5 0 0 1 4-2a4.99 4.99 0 0 1 4 2c.628.835 1 1.874 1 3"/><path stroke="currentColor" stroke-linecap="square" stroke-width="2" d="M12 12h3m-3 0a5 5 0 0 0-5-5m5 5a5 5 0 0 1-5 5m0 0A5 5 0 0 1 7 7m0 10a5 5 0 0 1-4-2.001V21h8v-6.001A5 5 0 0 1 7 17ZM7 7c1.636 0 3.088.786 4 2V3H3v6a5 5 0 0 1 4-2Zm8 1h6v8h-6z"/></g></symbol><symbol id="hd-icon-tdesign-dv-filled" viewBox="0 0 24 24"><path fill="currentColor" d="M2 2h10v6.682c.456.687.775 1.473.917 2.318H14V7h8v10h-8v-4h-1.083A6 6 0 0 1 12 15.318V22H2v-6.682c-.632-.95-1-2.093-1-3.318s.368-2.367 1-3.318zm5 6a4 4 0 0 0-3.2 1.6A3.98 3.98 0 0 0 3 12c0 .902.297 1.731.8 2.4A4 4 0 0 0 7 16a4 4 0 0 0 3.2-1.6c.503-.669.8-1.498.8-2.4s-.297-1.731-.8-2.4A4 4 0 0 0 7 8"/></symbol><symbol id="hd-icon-tdesign-dvd" viewBox="0 0 24 24"><g fill="none"><path d="M3 3h18v18H3z"/><path d="M17 12a5 5 0 1 1-10 0a5 5 0 0 1 10 0"/><path stroke="currentColor" stroke-width="2" d="M3 3h18v18H3z"/><g stroke="currentColor" stroke-width="2"><path d="M17 12a5 5 0 1 1-10 0a5 5 0 0 1 10 0Z"/><path d="M13 12a1 1 0 1 1-2 0a1 1 0 0 1 2 0Z"/></g></g></symbol><symbol id="hd-icon-tdesign-dvd-filled" viewBox="0 0 24 24"><path fill="currentColor" d="M8 12a4 4 0 1 1 8 0a4 4 0 0 1-8 0m4-2a2 2 0 1 0 0 4a2 2 0 0 0 0-4"/><path fill="currentColor" d="M22 2v20H2V2zM12 6a6 6 0 1 0 0 12a6 6 0 0 0 0-12"/></symbol><symbol id="hd-icon-tdesign-earphone" viewBox="0 0 24 24"><g fill="none"><path d="M3 14h3a2 2 0 0 1 2 2v2a2 2 0 0 1-2 2H3zm13 2a2 2 0 0 1 2-2h3v6h-3a2 2 0 0 1-2-2z"/><path stroke="currentColor" stroke-linecap="square" stroke-width="2" d="M3 20v-7.933C3 7.059 7.03 3 12 3s9 4.06 9 9.067V20M3 20h3a2 2 0 0 0 2-2v-2a2 2 0 0 0-2-2H3zm18 0v-6h-3a2 2 0 0 0-2 2v2a2 2 0 0 0 2 2z"/></g></symbol><symbol id="hd-icon-tdesign-earphone-filled" viewBox="0 0 24 24"><path fill="currentColor" d="M12 4c-4.411 0-8 3.605-8 8.067V13h2a3 3 0 0 1 3 3v2a3 3 0 0 1-3 3H2v-8.933C2 6.514 6.47 2 12 2s10 4.514 10 10.067V21h-4a3 3 0 0 1-3-3v-2a3 3 0 0 1 3-3h2v-.933C20 7.605 16.411 4 12 4"/></symbol><symbol id="hd-icon-tdesign-earth" viewBox="0 0 24 24"><g fill="none"><path d="M22 12c0 5.523-4.477 10-10 10S2 17.523 2 12S6.477 2 12 2s10 4.477 10 10"/><path d="M12 22c5.523 0 10-4.477 10-10q0-.532-.055-1.05l-1.95 1.134l-3.509 4.067l-1.504-3.05l-3.007-1.017V8.017L8.968 7L6.963 9.034L3.05 7.55a10 10 0 0 0-1.008 3.525l5.923 2.026L4.95 19.1C6.75 20.9 9.305 22 12 22"/><path stroke="currentColor" stroke-width="2" d="M2.041 11.089L7.965 13.1l-3.017 5.99M3.04 7.553l3.922 1.48L8.968 7l3.007 1.017v4.067l3.008 1.017l1.503 3.05l3.51-4.067l1.943-1.13M22 12c0 5.523-4.477 10-10 10S2 17.523 2 12S6.477 2 12 2s10 4.477 10 10Z"/></g></symbol><symbol id="hd-icon-tdesign-earth-filled" viewBox="0 0 24 24"><path fill="currentColor" d="M1.003 11.79Q1 11.896 1 12c0 2.784 1.034 5.327 2.74 7.265l2.815-5.587z"/><path fill="currentColor" d="m1.23 9.756l8.146 2.767l-4.115 8.17A10.95 10.95 0 0 0 12.001 23c6.075 0 11-4.925 11-11q0-.248-.011-.495l-2.347 1.36l-4.385 5.082l-1.988-4.032l-3.294-1.114V8.734l-1.735-.586l-2.022 2.05L1.705 8.12a11 11 0 0 0-.475 1.637"/><path fill="currentColor" d="m2.583 6.313l4.125 1.555l1.988-2.016l4.28 1.447v4.067l2.72.92l1.02 2.068l2.633-3.051l3.336-1.932C21.506 4.565 17.17 1 12 1C8.007 1 4.51 3.128 2.583 6.313"/></symbol><symbol id="hd-icon-tdesign-edit" viewBox="0 0 24 24"><g fill="none"><path d="m14.105 6.004l-9.318 9.318L3.998 20l4.679-.79l9.317-9.317z"/><path d="m17.994 9.893l3.057-3.057l-3.89-3.889l-3.057 3.057z" clip-rule="evenodd"/><path stroke="currentColor" stroke-linecap="square" stroke-width="2" d="m14.105 6.004l-9.318 9.318L3.998 20l4.679-.79l9.317-9.317m-3.89-3.889l3.89 3.89m-3.89-3.89l3.058-3.057l3.889 3.89l-3.057 3.056"/></g></symbol><symbol id="hd-icon-tdesign-edit-1" viewBox="0 0 24 24"><g fill="none"><path d="M3 21h4.5l10-10L13 6.5l-10 10z"/><path d="M21.5 7L17 2.5l-4 4l4.5 4.5z"/><path stroke="currentColor" stroke-width="2" d="m13 6.5l-10 10V21h4.5l10-10M13 6.5l4.5 4.5M13 6.5l4-4L21.5 7l-4 4"/></g></symbol><symbol id="hd-icon-tdesign-edit-1-filled" viewBox="0 0 24 24"><path fill="currentColor" d="m22.583 7.17l-5.755-5.754l-4.34 4.34l5.754 5.756zm-5.755 5.756L11.073 7.17L2 16.245V22h5.755z"/></symbol><symbol id="hd-icon-tdesign-edit-2" viewBox="0 0 24 24"><g fill="none"><path d="M3 21h4.5l10-10L13 6.5l-10 10z"/><path d="M21.5 7L17 2.5l-4 4l4.5 4.5z"/><path stroke="currentColor" stroke-linecap="square" stroke-width="2" d="m13 6.5l-10 10V21h4.5l10-10M13 6.5l4-4L21.5 7l-4 4M13 6.5l4.5 4.5M21 21h-7"/></g></symbol><symbol id="hd-icon-tdesign-edit-2-filled" viewBox="0 0 24 24"><path fill="currentColor" d="m22.038 7.573l-5.61-5.61l-4.197 4.196l5.61 5.61zm-5.611 5.611l-5.61-5.61L2 16.39V22h5.61zM12.682 22h9.542v-2h-9.542z"/></symbol><symbol id="hd-icon-tdesign-edit-filled" viewBox="0 0 24 24"><path fill="currentColor" d="M18.58 2.944a2 2 0 0 0-2.828 0L14.107 4.59l5.303 5.303l1.645-1.644a2 2 0 0 0 0-2.829zm-.584 8.363l-5.303-5.303l-8.835 8.835l-1.076 6.38l6.38-1.077z"/></symbol><symbol id="hd-icon-tdesign-edit-off" viewBox="0 0 24 24"><g fill="none"><path d="m17.994 9.893l3.057-3.057l-3.89-3.889l-3.057 3.057z" clip-rule="evenodd"/><path stroke="currentColor" stroke-linecap="square" stroke-width="2" d="m10.055 10.054l-5.268 5.268L3.998 20l4.679-.79l5.267-5.267M12.609 7.5l4.553-4.553l3.89 3.89l-4.553 4.552m1.496-1.496l-3.89-3.889M4 4l6.055 6.055l3.889 3.889L20 20"/></g></symbol><symbol id="hd-icon-tdesign-edit-off-filled" viewBox="0 0 24 24"><path fill="currentColor" d="M15.748 2.947a2 2 0 0 1 2.828 0l2.475 2.475a2 2 0 0 1 0 2.828l-4.553 4.553l-1.414-1.414l1.496-1.496l-2.475-2.475l-1.496 1.496L11.195 7.5zM4 2.586L21.414 20L20 21.414l-6.056-6.056l-4.786 4.785l-6.38 1.077l1.076-6.38l4.786-4.786L2.586 4zm6.054 8.883L5.72 15.803l-.502 2.977l2.977-.502l4.334-4.334z"/></symbol><symbol id="hd-icon-tdesign-education" viewBox="0 0 24 24"><g fill="none"><path d="M2 8.5L12 2l10 6.5l-4 2.6l-6 3.9l-6-3.9z"/><path d="M6 17.5v-6.4l6 3.9l6-3.9v6.4c0 1.933-2.686 3.5-6 3.5s-6-1.567-6-3.5"/><path stroke="currentColor" stroke-linecap="square" stroke-width="2" d="M21 9.15V15M6 11.1v6.4c0 1.933 2.686 3.5 6 3.5s6-1.567 6-3.5v-6.4L12 15zM12 2L2 8.5L12 15l10-6.5z"/></g></symbol><symbol id="hd-icon-tdesign-education-filled" viewBox="0 0 24 24"><path fill="currentColor" d="M23.835 8.5L12 .807L.165 8.5L12 16.192l8-5.2V16h2V9.693z"/><path fill="currentColor" d="M5 17.5v-3.665l7 4.55l7-4.55V17.5c0 1.47-1.014 2.615-2.253 3.338C15.483 21.576 13.802 22 12 22s-3.482-.424-4.747-1.162C6.014 20.115 5 18.97 5 17.5"/></symbol><symbol id="hd-icon-tdesign-eggplant" viewBox="0 0 24 24"><g fill="none"><path d="M4.252 19.75c-2.831-2.831-2.128-6.36-.003-8.485s4.598-1.77 6.01-3.181a101 101 0 0 1 2.598-2.464l1.115.52l.53 3.359l3.36.53l.519 1.113s-1.447 1.58-2.465 2.599c-1.412 1.412-1.068 3.887-3.182 6.01c-2.114 2.121-5.651 2.83-8.482-.002"/><path d="M19.098 12.682L17.86 10.03l-3.359-.53l-.53-3.36l-2.653-1.237a5.5 5.5 0 1 1 7.78 7.78"/><path stroke="currentColor" stroke-linecap="square" stroke-width="2" d="M12.35 6.088c-.55.51-1.437 1.341-2.091 1.996c-1.412 1.412-3.886 1.057-6.01 3.181c-2.125 2.125-2.828 5.654.003 8.485s6.368 2.122 8.482 0s1.77-4.597 3.182-6.01a84 84 0 0 0 1.984-2.077"/><path stroke="currentColor" stroke-linecap="square" stroke-width="2" d="m19.2 4.675l.958-.479m-5.657 5.303l-.53-3.36l-2.653-1.236a5.5 5.5 0 0 1 7.78 7.78L17.86 10.03z"/></g></symbol><symbol id="hd-icon-tdesign-eggplant-filled" viewBox="0 0 24 24"><path fill="currentColor" d="m11.087 5.899l-1.485-.693l1.01-1.01a6.5 6.5 0 0 1 8.506-.598l1.488-.744l.894 1.79l-.934.466a6.5 6.5 0 0 1-.761 8.28l-1.01 1.01l-.694-1.488a73 73 0 0 1-1.48 1.536c-.457.458-.661 1.073-.994 2.075l-.091.274c-.367 1.096-.868 2.429-2.094 3.66c-1.209 1.212-2.845 2.044-4.623 2.149c-1.801.106-3.668-.542-5.275-2.149s-2.256-3.47-2.151-5.272c.103-1.777.935-3.414 2.148-4.627c1.232-1.232 2.566-1.734 3.663-2.1l.282-.093c.997-.33 1.608-.532 2.065-.988A72 72 0 0 1 11.087 5.9m6.092 5.036l-3.552-.561l-.56-3.552l-.026-.012l-.419.39c-.52.488-1.16 1.094-1.657 1.591c-.816.816-1.907 1.169-2.81 1.461l-.319.104c-1.024.341-1.989.724-2.881 1.617c-.912.912-1.494 2.102-1.566 3.328c-.07 1.202.345 2.518 1.569 3.742s2.54 1.637 3.744 1.566c1.228-.072 2.417-.655 3.323-1.564c.888-.891 1.271-1.857 1.614-2.882l.103-.316c.294-.905.65-1.997 1.466-2.813a75 75 0 0 0 1.982-2.077z"/></symbol><symbol id="hd-icon-tdesign-ellipsis" viewBox="0 0 24 24"><path fill="none" stroke="currentColor" stroke-linecap="square" stroke-width="2" d="M4 11.5h1v1H4zm7.5 0h1v1h-1zm7.5 0h1v1h-1z"/></symbol><symbol id="hd-icon-tdesign-emo-emotional" viewBox="0 0 24 24"><g fill="none"><path d="M22 12c0 5.523-4.477 10-10 10S2 17.523 2 12S6.477 2 12 2s10 4.477 10 10"/><path stroke="currentColor" stroke-linecap="square" stroke-width="2" d="M22 12c0 5.523-4.477 10-10 10S2 17.523 2 12S6.477 2 12 2s10 4.477 10 10Zm-6-3v2M8 9v2m7 4H9"/></g></symbol><symbol id="hd-icon-tdesign-emo-emotional-filled" viewBox="0 0 24 24"><path fill="currentColor" d="M12 23C5.925 23 1 18.075 1 12S5.925 1 12 1s11 4.925 11 11s-4.925 11-11 11M9 12V8H7v4zm8 0V8h-2v4zm-1 4v-2H8v2z"/></symbol><symbol id="hd-icon-tdesign-english-rectangle" viewBox="0 0 24 24"><g fill="none"><path d="M22 4v16H2V4z"/><path stroke="currentColor" stroke-width="2" d="M22 4v16H2V4z"/><path stroke="currentColor" stroke-linecap="square" stroke-width="2" d="M10 9H6.5c-.276 0-.5.192-.5.429V12m0 0h4m-4 0v2.571c0 .237.224.429.5.429H10m4 0V9h3.556c.245 0 .444.192.444.429V15"/></g></symbol><symbol id="hd-icon-tdesign-english-rectangle-filled" viewBox="0 0 24 24"><path fill="currentColor" d="M23 21H1V3h22zM6.5 8C5.822 8 5 8.5 5 9.429v5.142C5 15.5 5.822 16 6.5 16H11v-2H7v-1h4v-2H7v-1h4V8zM13 8v8h2v-6h2v6h2V9.429C19 8.606 18.319 8 17.556 8z"/></symbol><symbol id="hd-icon-tdesign-enter" viewBox="0 0 24 24"><path fill="none" stroke="currentColor" stroke-linecap="square" stroke-width="2" d="M5.75 16H16a3 3 0 0 0 3-3V5M8 12.5L4.5 16L8 19.5"/></symbol><symbol id="hd-icon-tdesign-equal" viewBox="0 0 24 24"><path fill="none" stroke="currentColor" stroke-linecap="square" stroke-width="2" d="M5 8h14M5 16h14"/></symbol><symbol id="hd-icon-tdesign-error" viewBox="0 0 24 24"><path fill="none" stroke="currentColor" stroke-linecap="square" stroke-width="2" d="M12 3v12.5m0 4.5h.004v.004H12z"/></symbol><symbol id="hd-icon-tdesign-error-circle" viewBox="0 0 24 24"><g fill="none"><path d="M22 12c0 5.523-4.477 10-10 10S2 17.523 2 12S6.477 2 12 2s10 4.477 10 10"/><path stroke="currentColor" stroke-linecap="square" stroke-width="2" d="M22 12c0 5.523-4.477 10-10 10S2 17.523 2 12S6.477 2 12 2s10 4.477 10 10Z"/><path stroke="currentColor" stroke-linecap="square" stroke-width="2" d="M12 7.5V13m0 3.5h.004v.004H12z"/></g></symbol><symbol id="hd-icon-tdesign-error-circle-filled" viewBox="0 0 24 24"><path fill="currentColor" d="M12 1c6.075 0 11 4.925 11 11s-4.925 11-11 11S1 18.075 1 12S5.925 1 12 1m-1 13h2V6.5h-2zm2.004 1.5H11v2.004h2.004z"/></symbol><symbol id="hd-icon-tdesign-error-triangle" viewBox="0 0 24 24"><g fill="none"><path d="m12 3l10.22 17.7H1.78z"/><path stroke="currentColor" stroke-linecap="square" stroke-width="2" d="m12 3l10.22 17.7H1.78z"/><path stroke="currentColor" stroke-linecap="square" stroke-width="2" d="M12 10.5V14m0 3.5h.004v.004H12z"/></g></symbol><symbol id="hd-icon-tdesign-error-triangle-filled" viewBox="0 0 24 24"><path fill="currentColor" d="M23.951 21.7H.05L12 1zM11 15h2V9.5h-2zm2.004 1.5H11v2.004h2.004z"/></symbol><symbol id="hd-icon-tdesign-excited" viewBox="0 0 24 24"><g fill="none"><path d="M22 12c0 5.523-4.477 10-10 10S2 17.523 2 12S6.477 2 12 2s10 4.477 10 10"/><path d="M12.001 13.5c-.5 1-1.25 1.5-2 1.563c.333.979 1.2 2.937 2 2.937s1.667-1.958 2-2.937c-.75-.063-1.5-.563-2-1.563"/><path stroke="currentColor" stroke-linecap="square" stroke-width="2" d="M22 12c0 5.523-4.477 10-10 10S2 17.523 2 12S6.477 2 12 2s10 4.477 10 10Z"/><path stroke="currentColor" stroke-linecap="square" stroke-width="2" d="m16 8.5l-2 1.125V10l2 1.5m-8-3l2 1.125V10l-2 1.5m7.314 3.204c-1.057.72-2.509.405-3.313-1.204c-.804 1.609-2.256 1.924-3.313 1.204m5.228.596c-.379 1.026-1.176 2.7-1.915 2.7s-1.536-1.674-1.916-2.7"/></g></symbol><symbol id="hd-icon-tdesign-excited-1" viewBox="0 0 24 24"><g fill="none"><path d="M22 12c0 5.523-4.477 10-10 10S2 17.523 2 12S6.477 2 12 2s10 4.477 10 10"/><path stroke="currentColor" stroke-linecap="square" stroke-width="2" d="M22 12c0 5.523-4.477 10-10 10S2 17.523 2 12S6.477 2 12 2s10 4.477 10 10Z"/><path stroke="currentColor" stroke-linecap="square" stroke-width="2" d="m16 8.5l-2 1.125V10l2 1.5m-8-3l2 1.125V10l-2 1.5m.535 3.5A4 4 0 0 0 12 17c1.48 0 2.773-.804 3.465-2"/></g></symbol><symbol id="hd-icon-tdesign-excited-1-filled" viewBox="0 0 24 24"><path fill="currentColor" d="M12 23C5.925 23 1 18.075 1 12S5.925 1 12 1s11 4.925 11 11s-4.925 11-11 11M11 9.04L7.618 7.138l-.98 1.743l1.82 1.025L6.6 11.3l1.2 1.6l3.2-2.4zm4.54.866l1.821-1.025l-.98-1.743L13 9.04v1.46l3.2 2.4l1.2-1.6zM9.4 14.499l-.5-.865l-1.732 1.001l.501.866A5 5 0 0 0 12 18a5 5 0 0 0 4.331-2.5l.5-.865l-1.73-1.001l-.501.865c-.52.9-1.49 1.501-2.6 1.501a3 3 0 0 1-2.6-1.5"/></symbol><symbol id="hd-icon-tdesign-excited-filled" viewBox="0 0 24 24"><path fill="currentColor" d="M11.688 16.393a8 8 0 0 1-.367-.716q.362-.204.68-.503q.316.3.679.503a8 8 0 0 1-.367.716q-.173.292-.312.462a4 4 0 0 1-.313-.462"/><path fill="currentColor" d="M12 23C5.925 23 1 18.075 1 12S5.925 1 12 1s11 4.925 11 11s-4.925 11-11 11M11 9.04L7.618 7.138l-.98 1.743l1.82 1.025L6.6 11.3l1.2 1.6l3.2-2.4zm4.54.866l1.821-1.025l-.98-1.743L13 9.04v1.46l3.2 2.4l1.2-1.6zm-2.645 3.147L12 11.264l-.895 1.789c-.378.757-.857.985-1.189 1.013a1.03 1.03 0 0 1-.668-.189l-.826-.562l-1.125 1.654l.827.562a3.1 3.1 0 0 0 1.166.487c.178.439.409.936.672 1.386c.199.34.443.697.727.982c.26.26.708.614 1.31.614s1.051-.355 1.31-.614a5 5 0 0 0 .728-.982c.264-.45.494-.947.672-1.386a3.1 3.1 0 0 0 1.166-.487l.827-.562l-1.125-1.654l-.826.562a1.03 1.03 0 0 1-.668.189c-.332-.028-.81-.256-1.19-1.013"/></symbol><symbol id="hd-icon-tdesign-expand-down" viewBox="0 0 24 24"><g fill="none"><path d="M21 3H3v13h18zM3 21h18v-5H3z"/><path stroke="currentColor" stroke-linecap="square" stroke-width="2" d="M3 16V3h18v13M3 16h18M3 16v5h18v-5"/><path stroke="currentColor" stroke-linecap="square" stroke-width="2" d="m12 10.5l-2-2h4z"/></g></symbol><symbol id="hd-icon-tdesign-expand-down-filled" viewBox="0 0 24 24"><path fill="currentColor" d="M22 2H2v13h20zm-5.5 5L12 11.5L7.5 7zM22 22v-5H2v5z"/></symbol><symbol id="hd-icon-tdesign-expand-horizontal" viewBox="0 0 24 24"><path fill="none" stroke="currentColor" stroke-linecap="square" stroke-width="2" d="M2.5 5v14m19-14v14m-4.25-7H6.75M15 15.5l3.5-3.5L15 8.5m-6 0L5.5 12L9 15.5"/></symbol><symbol id="hd-icon-tdesign-expand-up" viewBox="0 0 24 24"><g fill="none"><path d="M3 21h18V8H3zM21 3H3v5h18z"/><path stroke="currentColor" stroke-linecap="square" stroke-width="2" d="M3 8v13h18V8M3 8h18M3 8V3h18v5"/><path stroke="currentColor" stroke-linecap="square" stroke-width="2" d="m12 13.5l-2 2h4z"/></g></symbol><symbol id="hd-icon-tdesign-expand-up-filled" viewBox="0 0 24 24"><path fill="currentColor" d="M22 22H2V9h20zm-5.5-5L12 12.5L7.5 17zM22 2v5H2V2z"/></symbol><symbol id="hd-icon-tdesign-expand-vertical" viewBox="0 0 24 24"><path fill="none" stroke="currentColor" stroke-linecap="square" stroke-width="2" d="M19 2.5H5m14 19H5M15.5 9L12 5.5L8.5 9m0 6l3.5 3.5l3.5-3.5M12 17.25V6.75"/></symbol><symbol id="hd-icon-tdesign-explore" viewBox="0 0 24 24"><g fill="none"><path d="M4.929 19.071c-3.905-3.905-3.905-10.237 0-14.142s10.237-3.905 14.142 0s3.905 10.237 0 14.142s-10.237 3.905-14.142 0"/><path d="M7.4 11.493L15.702 8.3l-3.193 8.301l-1.35-3.757z"/><path stroke="currentColor" stroke-linecap="square" stroke-width="2" d="M4.929 19.071c-3.905-3.905-3.905-10.237 0-14.142s10.237-3.905 14.142 0s3.905 10.237 0 14.142s-10.237 3.905-14.142 0Z"/><path stroke="currentColor" stroke-linecap="square" stroke-width="2" d="M7.4 11.493L15.702 8.3l-3.193 8.301l-1.35-3.757z"/></g></symbol><symbol id="hd-icon-tdesign-explore-filled" viewBox="0 0 24 24"><path fill="currentColor" d="M23 12c0 6.075-4.925 11-11 11S1 18.075 1 12S5.925 1 12 1s11 4.925 11 11m-10.39 6.72l4.58-11.91l-11.91 4.58l5.392 1.939z"/></symbol><symbol id="hd-icon-tdesign-explore-off" viewBox="0 0 24 24"><path fill="none" stroke="currentColor" stroke-linecap="square" stroke-width="2" d="m13.7 9.07l2.002-.77l-.77 2.002M7.883 2.884A10 10 0 0 1 12 2c5.523 0 10 4.477 10 10c0 1.467-.316 2.86-.884 4.116M4.93 4.93A9.97 9.97 0 0 0 2 12c0 5.523 4.477 10 10 10a9.97 9.97 0 0 0 7.071-2.929m-6.562-2.47l-1.35-3.757L7.4 11.493l2.958-1.138l3.288 3.289zM3 3l18 18"/></symbol><symbol id="hd-icon-tdesign-explore-off-filled" viewBox="0 0 24 24"><path fill="currentColor" d="M2.004.59L2 .586L.586 2l2.96 2.96A10.96 10.96 0 0 0 1 12c0 6.075 4.925 11 11 11c2.677 0 5.131-.957 7.039-2.547l2.96 2.961l1.41-1.41L2 .595zm3.276 10.8l3.392-1.304l5.242 5.242l-1.305 3.392l-1.938-5.391zm16.323 5.979A10.95 10.95 0 0 0 23 12c0-6.075-4.925-11-11-11c-1.95 0-3.781.507-5.37 1.397l6.121 6.12L17.19 6.81l-1.707 4.439z"/></symbol><symbol id="hd-icon-tdesign-export" viewBox="0 0 24 24"><g fill="none" stroke="currentColor" stroke-linecap="square" stroke-width="2"><path d="M10 3H3v18h18v-6"/><path d="M10.5 14.75V11.5a5 5 0 0 1 5-5H21M19 10l3.5-3.5L19 3"/></g></symbol><symbol id="hd-icon-tdesign-exposure" viewBox="0 0 24 24"><g fill="none"><circle cx="12" cy="12" r="10"/><circle cx="12" cy="12" r="10" stroke="currentColor" stroke-width="2"/><path stroke="currentColor" stroke-linecap="square" stroke-width="2" d="M12 7v3m0 0v3m0-3H9m3 0h3m-6 7h6"/></g></symbol><symbol id="hd-icon-tdesign-exposure-filled" viewBox="0 0 24 24"><path fill="currentColor" d="M12 1c6.075 0 11 4.925 11 11s-4.925 11-11 11S1 18.075 1 12S5.925 1 12 1m1 8V6h-2v3H8v2h3v3h2v-3h3V9zm3 9v-2H8v2z"/></symbol><symbol id="hd-icon-tdesign-extension" viewBox="0 0 24 24"><g fill="none" fill-rule="evenodd" clip-rule="evenodd"><path d="M9 4a2 2 0 1 1 4 0v1h6v6h1a2 2 0 1 1 0 4h-1v6h-4.535a3.501 3.501 0 0 0-6.93 0H3v-4.535a3.5 3.5 0 0 0 0-6.93V5h6z"/><path stroke="currentColor" stroke-linecap="square" stroke-width="2" d="M9 4a2 2 0 1 1 4 0v1h6v6h1a2 2 0 1 1 0 4h-1v6h-4.535a3.501 3.501 0 0 0-6.93 0H3v-4.535a3.5 3.5 0 0 0 0-6.93V5h6z"/></g></symbol></svg>