<svg xmlns="http://www.w3.org/2000/svg" xmlns:xlink="http://www.w3.org/1999/xlink"><symbol id="hd-icon-tdesign-book-open" viewBox="0 0 24 24"><g fill="none"><path d="M2 3h7a3 3 0 0 1 3 3v15h-1s-3-1-9-1zm20 0h-7a3 3 0 0 0-3 3v15h1s3-1 9-1z"/><path stroke="currentColor" stroke-width="2" d="M12 21V6m0 15h-1s-3-1-9-1V3h7a3 3 0 0 1 3 3m0 15h1s3-1 9-1V3h-7a3 3 0 0 0-3 3"/><path stroke="currentColor" stroke-linecap="square" stroke-width="2" d="M18 9h-2m2 3h-2"/></g></symbol><symbol id="hd-icon-tdesign-book-open-filled" viewBox="0 0 24 24"><path fill="currentColor" d="M9 2H1v19h1c2.944 0 5.14.245 6.586.486c.723.12 1.26.24 1.609.328a11 11 0 0 1 .472.13l.017.005h.002l.152.051h2.324l.152-.05l.002-.001l.017-.006l.088-.026q.122-.037.384-.103c.35-.087.886-.207 1.61-.328C16.86 21.246 19.054 21 22 21h1V2h-8a4 4 0 0 0-3 1.354A4 4 0 0 0 9 2M3 19.01V4h6a2 2 0 0 1 2 2v13.958l-.32-.084c-.4-.1-.989-.23-1.766-.36c-1.379-.23-3.35-.457-5.914-.505M19 10h-4V8h4zm0 3h-4v-2h4z"/></symbol><symbol id="hd-icon-tdesign-book-unknown" viewBox="0 0 24 24"><g fill="none"><path d="M2 3h7a3 3 0 0 1 3 3v15h-1s-3-1-9-1zm20 0h-7a3 3 0 0 0-3 3v15h1s3-1 9-1z"/><path stroke="currentColor" stroke-width="2" d="M12 21V6m0 15h-1s-3-1-9-1V3h7a3 3 0 0 1 3 3m0 15h1s3-1 9-1V3h-7a3 3 0 0 0-3 3"/><path stroke="currentColor" stroke-linecap="square" stroke-width="2" d="M15 10.5a2 2 0 1 1 4 0c0 2-1.997 2.028-1.997 2.25M17 15.5h.004v.004H17z"/></g></symbol><symbol id="hd-icon-tdesign-book-unknown-filled" viewBox="0 0 24 24"><path fill="currentColor" d="M9 2H1v19h1c2.944 0 5.14.245 6.586.486c.723.12 1.26.24 1.609.328a11 11 0 0 1 .472.13l.017.005h.002l.152.051h2.324l.152-.05l.002-.001l.017-.006l.088-.026q.122-.037.384-.103c.35-.087.886-.207 1.61-.328C16.86 21.246 19.054 21 22 21h1V2h-8a4 4 0 0 0-3 1.354A4 4 0 0 0 9 2M3 19.01V4h6a2 2 0 0 1 2 2v13.958l-.32-.084c-.4-.1-.989-.23-1.766-.36c-1.379-.23-3.35-.457-5.914-.505m13-8.51v1h-2v-1a3 3 0 1 1 6 0c0 .676-.172 1.246-.474 1.71a2.96 2.96 0 0 1-1.029.95a4 4 0 0 1-.494.238v.352h-2v-1c0-.424.245-.687.361-.79c.12-.105.24-.165.296-.192c.107-.05.233-.094.309-.12l.018-.007c.19-.066.36-.127.52-.218a.96.96 0 0 0 .343-.305c.072-.11.15-.294.15-.618a1 1 0 1 0-2 0m2.004 4v2.004H16V14.5z"/></symbol><symbol id="hd-icon-tdesign-bookmark" viewBox="0 0 24 24"><g fill="none"><path d="M5 4h14v17l-7-5l-7 5z"/><path stroke="currentColor" stroke-linecap="square" stroke-width="2" d="M5 4h14v17l-7-5l-7 5z"/></g></symbol><symbol id="hd-icon-tdesign-bookmark-add" viewBox="0 0 24 24"><path fill="none" stroke="currentColor" stroke-linecap="square" stroke-width="2" d="M12 4H5v17l7-5l7 5V11m-3-7h3m0 0h3m-3 0v3m0-3V1"/></symbol><symbol id="hd-icon-tdesign-bookmark-add-filled" viewBox="0 0 24 24"><path fill="currentColor" d="M20 3V0h-2v3h-3v2h3v3h2V5h3V3z"/><path fill="currentColor" d="M13.5 4q0-.513.09-1H4v19.943l8-5.714l8 5.714V9.41q-.487.09-1 .091A5.5 5.5 0 0 1 13.5 4"/></symbol><symbol id="hd-icon-tdesign-bookmark-checked" viewBox="0 0 24 24"><path fill="none" stroke="currentColor" stroke-linecap="square" stroke-width="2" d="M11 4H5v17l7-5l7 5V11m2.182-8.06L16.94 7.181L14.818 5.06"/></symbol><symbol id="hd-icon-tdesign-bookmark-checked-filled" viewBox="0 0 24 24"><path fill="currentColor" d="m13.403 5.06l3.536 3.536l5.657-5.657l-1.415-1.414l-4.242 4.243l-2.121-2.122z"/><path fill="currentColor" d="M12.5 5c0-.706.133-1.38.375-2H4v19.943l8-5.714l8 5.714V10.125A5.5 5.5 0 0 1 12.5 5"/></symbol><symbol id="hd-icon-tdesign-bookmark-double" viewBox="0 0 24 24"><g fill="none"><path d="M4 5h14v17l-7-5l-7 5z"/><path stroke="currentColor" stroke-linecap="square" stroke-width="2" d="M4 5h14v17l-7-5l-7 5z"/><path stroke="currentColor" stroke-linecap="square" stroke-width="2" d="M11.001 1.002h7.5L22 1.001v14m0 0v1l.001.001z"/></g></symbol><symbol id="hd-icon-tdesign-bookmark-double-filled" viewBox="0 0 24 24"><path fill="currentColor" d="M23.003 18.419L23 0L10.001.002v2H21v14.413z"/><path fill="currentColor" d="M19 4H3v19.943l8-5.714l8 5.714z"/></symbol><symbol id="hd-icon-tdesign-bookmark-filled" viewBox="0 0 24 24"><path fill="currentColor" d="M4 3h16v19.943l-8-5.714l-8 5.714z"/></symbol><symbol id="hd-icon-tdesign-bookmark-minus" viewBox="0 0 24 24"><path fill="none" stroke="currentColor" stroke-linecap="square" stroke-width="2" d="M12 4H5v17l7-5l7 5V8m-3-4h6"/></symbol><symbol id="hd-icon-tdesign-bookmark-minus-filled" viewBox="0 0 24 24"><path fill="currentColor" d="M13.5 4q0-.513.09-1H4v19.943l8-5.714l8 5.714V9.41q-.487.09-1 .091A5.5 5.5 0 0 1 13.5 4"/><path fill="currentColor" d="M23 3h-8v2h8z"/></symbol><symbol id="hd-icon-tdesign-braces" viewBox="0 0 24 24"><path fill="none" stroke="currentColor" stroke-linecap="square" stroke-width="2" d="M6 20h-.1a2.4 2.4 0 0 1-2.4-2.4V14a2 2 0 0 0-2-2m0 0h-.1m.1 0a2 2 0 0 0 2-2V6.4A2.4 2.4 0 0 1 5.9 4H6m12 16h.1a2.4 2.4 0 0 0 2.4-2.4V14a2 2 0 0 1 2-2m0 0h.1m-.1 0a2 2 0 0 1-2-2V6.4A2.4 2.4 0 0 0 18.1 4H18"/></symbol><symbol id="hd-icon-tdesign-brackets" viewBox="0 0 24 24"><path fill="none" stroke="currentColor" stroke-linecap="square" stroke-width="2" d="M6 4.5H3v15h3m12-15h3v15h-3"/></symbol><symbol id="hd-icon-tdesign-bread" viewBox="0 0 24 24"><g fill="none"><path d="M13.188 4.683c-.723-.723-.815-1.012.594-1.528c3.933-1.44 8.42 2.84 7.39 6.9c-.598 2.357-2.214 4.812-4.208 6.889c-2.077 1.994-4.532 3.61-6.89 4.209c-4.06 1.03-8.34-3.458-6.899-7.39c.516-1.41.805-1.318 1.527-.595c-2.278-2.278 1.624-6.862 3.776-4.71c-2.152-2.152 2.431-6.054 4.71-3.775"/><path stroke="currentColor" stroke-linecap="square" stroke-width="2" d="m13.188 4.683l3.068 3.069m-3.068-3.07c-.723-.722-.815-1.01.593-1.527c3.934-1.44 8.422 2.84 7.391 6.9c-.598 2.357-2.214 4.812-4.209 6.889c-2.076 1.994-4.531 3.61-6.889 4.209c-4.06 1.03-8.34-3.458-6.899-7.391c.516-1.408.804-1.317 1.527-.594m8.486-8.485c-2.28-2.279-6.862 1.623-4.71 3.776m0 0l3.536 3.535M8.478 8.46c-2.152-2.153-6.054 2.43-3.776 4.709m0 0l3.07 3.069"/></g></symbol><symbol id="hd-icon-tdesign-bread-filled" viewBox="0 0 24 24"><path fill="currentColor" d="M2.436 13.003c-.273.22-.386.508-.432.72c-.512 2.362.233 4.645 1.884 6.353c1.582 1.637 3.987 2.66 6.415 2.043c2.587-.656 5.19-2.395 7.337-4.456l.014-.015l.014-.014c2.062-2.147 3.8-4.75 4.457-7.336c.616-2.428-.406-4.833-2.043-6.415c-1.444-1.396-3.29-2.18-5.314-2.038c-.752.053-1.17.58-1.363.913l3.9 3.9l-1.415 1.414l-4.519-4.519a3.34 3.34 0 0 0-2.126.172c-.509.216-.95.547-1.24.919c-.142.18-.293.428-.356.725c-.066.308-.044.76.3 1.125l4.76 4.76l-1.415 1.414L6.536 7.91a1.24 1.24 0 0 0-1.129-.3a1.8 1.8 0 0 0-.722.356c-.371.291-.701.73-.918 1.239a3.34 3.34 0 0 0-.172 2.128l4.517 4.517l-1.414 1.414z"/></symbol><symbol id="hd-icon-tdesign-bridge" viewBox="0 0 24 24"><path fill="none" stroke="currentColor" stroke-linecap="square" stroke-width="2" d="M2 16h1m0 0h18M3 16V3m0 13v5m18-5h1m-1 0V3m0 13v5M7 16V8m5 8V8m0 0C7.414 8 4.58 6.832 3.5 6.281M12 8c4.586 0 7.42-1.169 8.5-1.72M17 16V8"/></symbol><symbol id="hd-icon-tdesign-bridge-1" viewBox="0 0 24 24"><g fill="none"><path d="M22 21V3h-4v18zM2 21V2.998h4v18z"/><path stroke="currentColor" stroke-linecap="square" stroke-width="2" d="M12 8C8 8 6 6 6 6v10h12V6s-2 2-6 2Zm0 0v7.999M22 3v18h-4V3zM2 2.999v18h4V3z"/></g></symbol><symbol id="hd-icon-tdesign-bridge-1-filled" viewBox="0 0 24 24"><path fill="currentColor" d="M1 1.999h6V5.53c.208.154.524.363.947.575c.878.438 2.226.894 4.053.894s3.175-.456 4.053-.894c.423-.212.739-.42.947-.575V2h6v20h-6v-5H7v5H1zm6 13h4v-6.04c-1.686-.134-3.004-.594-3.947-1.066L7 7.867zm6-6.04V15h4V7.867l-.053.026c-.943.472-2.26.932-3.947 1.067"/></symbol><symbol id="hd-icon-tdesign-bridge-2" viewBox="0 0 24 24"><g fill="none"><path d="M1 17.447c1.734-.716 2.338-3.46 3-5.447c2-6 5-8 8-8s6 2 8 8c.662 1.987 1.266 4.73 3 5.447V20h-8v-6a3 3 0 1 0-6 0v6H1z"/><path stroke="currentColor" stroke-width="2" d="M1 17.447c1.734-.716 2.338-3.46 3-5.447c2-6 5-8 8-8s6 2 8 8c.662 1.987 1.266 4.73 3 5.447V20h-8v-6a3 3 0 1 0-6 0v6H1z"/></g></symbol><symbol id="hd-icon-tdesign-bridge-2-filled" viewBox="0 0 24 24"><path fill="currentColor" d="M12 3c-1.744 0-3.485.59-5.048 2.01c-1.542 1.402-2.867 3.573-3.9 6.674q-.162.487-.31.969c-.232.743-.458 1.468-.756 2.144c-.428.974-.877 1.523-1.368 1.726L0 16.778V21h9v-7a3 3 0 1 1 6 0v7h9v-4.222l-.618-.255c-.491-.203-.94-.752-1.369-1.726c-.297-.676-.523-1.401-.755-2.144q-.148-.481-.31-.97c-1.033-3.1-2.358-5.27-3.9-6.673C15.485 3.59 13.744 3 12 3"/></symbol><symbol id="hd-icon-tdesign-bridge-3" viewBox="0 0 24 24"><path fill="none" stroke="currentColor" stroke-linecap="square" stroke-width="2" d="M3 16v5m0-5H2m1 0h9m-9 0V3m18 13v5m0-5h1m-1 0h-9m9 0V3m-9 13V3M3.5 6.333L12 12l8.5-5.667"/></symbol><symbol id="hd-icon-tdesign-bridge-4" viewBox="0 0 24 24"><path fill="none" stroke="currentColor" stroke-linecap="square" stroke-width="2" d="M4 21V8l-.9-4.5M8 21V8l.9-4.5M20 21V8l.9-4.5M16 21V8l-.9-4.5M2 3h20"/></symbol><symbol id="hd-icon-tdesign-bridge-5" viewBox="0 0 24 24"><g fill="none"><path d="M5 13V4h14v9s-2.5-3-7-3s-7 3-7 3m-4 7V4h4v16zm22 .001v-16h-4v16z"/><path stroke="currentColor" stroke-linecap="square" stroke-width="2" d="M5 4H1v16h4zm0 0h14m0 0h4v16.001h-4zM5.5 12.496A9.68 9.68 0 0 1 12 10a9.68 9.68 0 0 1 6.5 2.495"/></g></symbol><symbol id="hd-icon-tdesign-bridge-5-filled" viewBox="0 0 24 24"><path fill="currentColor" d="M0 3h24v18.001h-6v-7.603l-.14-.132a8.4 8.4 0 0 0-1.206-.92A8.64 8.64 0 0 0 12 11c-2.02 0-3.586.671-4.654 1.345A8.4 8.4 0 0 0 6 13.398V21H0zm6 7.836q.134-.09.279-.181A10.64 10.64 0 0 1 12 9a10.64 10.64 0 0 1 6 1.836V5.001L6 5z"/></symbol><symbol id="hd-icon-tdesign-bridge-6" viewBox="0 0 24 24"><path fill="none" stroke="currentColor" stroke-linecap="square" stroke-width="2" d="M6 20v-7m0 0H2m4 0h12M2 13v7m0-7V4l9.444 8.5M18 13v7m0-7h4m0 0v7m0-7V4l-9.444 8.5"/></symbol><symbol id="hd-icon-tdesign-bridge-6-filled" viewBox="0 0 24 24"><path fill="currentColor" d="m23 1.754l-11 9.9l-11-9.9V21h2v-7h2v7h2v-7h10v7h2v-7h2v7h2z"/></symbol><symbol id="hd-icon-tdesign-brightness" viewBox="0 0 24 24"><g fill="none"><path d="M4.575 8.925L1.5 12l3.075 3.075v4.35h4.35L12 22.5l3.075-3.075h4.35v-4.35L22.5 12l-3.075-3.075v-4.35h-4.35L12 1.5L8.925 4.575h-4.35z"/><circle cx="12" cy="12" r="5"/><path stroke="currentColor" stroke-width="2" d="M4.575 8.925L1.5 12l3.075 3.075v4.35h4.35L12 22.5l3.075-3.075h4.35v-4.35L22.5 12l-3.075-3.075v-4.35h-4.35L12 1.5L8.925 4.575h-4.35z"/><circle cx="12" cy="12" r="5" stroke="currentColor" stroke-width="2"/></g></symbol><symbol id="hd-icon-tdesign-brightness-1" viewBox="0 0 24 24"><g fill="none"><path d="M4.575 8.925L1.5 12l3.075 3.075v4.35h4.35L12 22.5l3.075-3.075h4.35v-4.35L22.5 12l-3.075-3.075v-4.35h-4.35L12 1.5L8.925 4.575h-4.35z"/><path d="M10.438 16.75A7.96 7.96 0 0 0 12 12a7.96 7.96 0 0 0-1.562-4.75a5 5 0 1 1 0 9.502"/><path stroke="currentColor" stroke-width="2" d="M4.575 8.925L1.5 12l3.075 3.075v4.35h4.35L12 22.5l3.075-3.075h4.35v-4.35L22.5 12l-3.075-3.075v-4.35h-4.35L12 1.5L8.925 4.575h-4.35z"/><path stroke="currentColor" stroke-width="2" d="M10.438 16.75A7.96 7.96 0 0 0 12 12a7.96 7.96 0 0 0-1.562-4.75a5 5 0 1 1 0 9.502Z"/></g></symbol><symbol id="hd-icon-tdesign-brightness-1-filled" viewBox="0 0 24 24"><path fill="currentColor" d="M15.49 3.575L12 .085l-3.49 3.49H3.577V8.51L.086 12l3.49 3.49v4.934H8.51l3.49 3.49l3.489-3.49h4.935V15.49l3.49-3.49l-3.49-3.49V3.575zM12 17c-.63 0-1.232-.116-1.787-.33A6.97 6.97 0 0 0 11.999 12a6.97 6.97 0 0 0-1.786-4.67A5 5 0 1 1 12 17"/></symbol><symbol id="hd-icon-tdesign-brightness-filled" viewBox="0 0 24 24"><path fill="currentColor" d="M15.49 3.575L12 .085l-3.49 3.49H3.577V8.51L.086 12l3.49 3.49v4.934H8.51l3.49 3.49l3.489-3.49h4.935V15.49l3.49-3.49l-3.49-3.49V3.575zM12 7a5 5 0 1 1 0 10a5 5 0 0 1 0-10"/></symbol><symbol id="hd-icon-tdesign-broccoli" viewBox="0 0 24 24"><g fill="none"><path d="M17.696 3.554c-1.627-1.628-4.303-1.59-5.976.084c-.327.327-.312.434-.427.583c-1.639-1.457-4.143-1.513-5.758.101c-1.673 1.674-1.711 4.35-.084 5.977q.417.416.892.704c1.08.655 2.346.791 3.536.29l.707.707l1.06.353l.354 1.06l1.414 1.415c-.502.74-.702 1.67-.595 2.557c.092.768.415 1.505.969 2.059c1.356 1.356 3.585 1.324 4.98-.07a3.58 3.58 0 0 0 .898-3.632a4.4 4.4 0 0 0 1.257-.88c1.674-1.674 1.712-4.35.084-5.977a4.07 4.07 0 0 0-2.31-1.153l.035-.107c.398-1.417.056-2.98-1.036-4.071"/><path d="m6.344 20.486l-2.828-2.829c1.227-1.228 2.997-5.39 2.828-6.653c1.08.654 2.346.79 3.536.29l.707.706l1.06.354l.354 1.06l1.414 1.415c-.503.74-.702 1.67-.595 2.556a4 4 0 0 0-.395-.152c-1.857-.623-5.374 2.545-6.081 3.252"/><path stroke="currentColor" stroke-linecap="square" stroke-width="2" d="m11.4 12.6l-1.52 1.522m-6.364 3.535l2.828 2.828c.707-.707 4.224-3.875 6.081-3.252q.215.072.395.152c-.107-.887.092-1.816.595-2.556L12 13.414l-.354-1.06l-1.06-.354l-.707-.707c-1.19.502-2.457.365-3.536-.29c.169 1.264-1.6 5.426-2.828 6.654Z"/><path stroke="currentColor" stroke-linecap="square" stroke-width="2" d="M11.293 4.221c.115-.149.1-.256.427-.583c1.673-1.674 4.35-1.712 5.976-.084c1.092 1.091 1.434 2.654 1.036 4.07l-.036.108m-7.403-3.51c-1.639-1.458-4.143-1.514-5.758.1c-1.673 1.674-1.711 4.35-.084 5.977q.417.417.892.705c1.08.655 2.346.79 3.536.29l.707.706l1.06.354l.354 1.06l1.414 1.415c-.502.74-.702 1.67-.595 2.557c.092.768.415 1.504.969 2.058c1.356 1.356 3.585 1.324 4.98-.07a3.58 3.58 0 0 0 .898-3.632a4.4 4.4 0 0 0 1.257-.88c1.674-1.674 1.712-4.35.084-5.977a4.07 4.07 0 0 0-2.31-1.153m-7.404-3.51q.09.079.176.165c.942.943 1.126 1.79 1.238 2.663m4.95.707s.511-.101 1.04-.025"/></g></symbol><symbol id="hd-icon-tdesign-broccoli-filled" viewBox="0 0 24 24"><path fill="currentColor" d="M19.865 6.996a5.222 5.222 0 0 1-3.714 9.76a5.2 5.2 0 0 0 2.832.834c.647 0 1.266-.118 1.838-.333a4.532 4.532 0 0 1-8.88.896c-.172-.008-.435.028-.807.165c-.498.182-1.06.494-1.626.874a18.5 18.5 0 0 0-2.458 2l-.707.708L2.1 17.657l.707-.707c.468-.468 1.156-1.66 1.725-2.998c.275-.646.502-1.28.648-1.814c.073-.263.118-.475.144-.636a5.22 5.22 0 0 1 5.822-8.648l.006-.006l.25.17a5.22 5.22 0 0 1 2.257 3.71l.004.028q.032-.33.032-.666a6.7 6.7 0 0 0-1.395-4.1a5.125 5.125 0 0 1 7.566 5.007m-7.792 8.284q.049-.137.107-.271l-.887-.888l-1.415 1.415l-1.414-1.415l1.414-1.414l-.268-.268a4.74 4.74 0 0 1-2.44-.004q-.03.119-.061.233a17 17 0 0 1-.736 2.067c-.42.989-.962 2.05-1.517 2.85l1.514 1.513a20 20 0 0 1 2.026-1.569c.633-.423 1.343-.83 2.05-1.09c.42-.154.899-.277 1.387-.286a4.5 4.5 0 0 1 .24-.873"/></symbol><symbol id="hd-icon-tdesign-browse" viewBox="0 0 24 24"><g fill="none"><path d="M12 4C6.869 4 2.523 7.36 1.042 12c1.48 4.64 5.827 8 10.958 8c5.13 0 9.477-3.36 10.957-8C21.477 7.36 17.131 4 12 4"/><path d="M16 12a4 4 0 1 1-8 0a4 4 0 0 1 8 0"/><path stroke="currentColor" stroke-linecap="square" stroke-width="2" d="M12 4C6.869 4 2.523 7.36 1.042 12c1.48 4.64 5.827 8 10.958 8c5.13 0 9.477-3.36 10.957-8C21.477 7.36 17.131 4 12 4Z"/><path stroke="currentColor" stroke-linecap="square" stroke-width="2" d="M16 12a4 4 0 1 1-8 0a4 4 0 0 1 8 0Z"/></g></symbol><symbol id="hd-icon-tdesign-browse-filled" viewBox="0 0 24 24"><path fill="currentColor" d="M9 12a3 3 0 1 1 6 0a3 3 0 0 1-6 0"/><path fill="currentColor" d="M12 3C6.42 3 1.698 6.654.09 11.696L-.009 12l.097.304C1.7 17.346 6.421 21 12 21s10.302-3.654 11.91-8.696l.098-.304l-.097-.304C22.3 6.654 17.578 3 12 3m0 4a5 5 0 1 1 0 10a5 5 0 0 1 0-10"/></symbol><symbol id="hd-icon-tdesign-browse-gallery" viewBox="0 0 24 24"><g fill="none"><path d="M19 12a9 9 0 1 1-18 0a9 9 0 0 1 18 0"/><path stroke="currentColor" stroke-linecap="square" stroke-width="2" d="M10 7.5V12l3 3m6-3a9 9 0 1 1-18 0a9 9 0 0 1 18 0Zm.38 9A12.96 12.96 0 0 0 23 12c0-3.493-1.378-6.664-3.62-9"/></g></symbol><symbol id="hd-icon-tdesign-browse-gallery-filled" viewBox="0 0 24 24"><path fill="currentColor" d="m20.102 2.308l-.692-.722l-1.443 1.385l.692.721A11.96 11.96 0 0 1 22 12c0 3.225-1.27 6.15-3.34 8.308l-.693.721l1.443 1.385l.692-.722A13.96 13.96 0 0 0 24 12c0-3.761-1.485-7.178-3.898-9.692"/><path fill="currentColor" d="M10 2c5.523 0 10 4.477 10 10s-4.477 10-10 10S0 17.523 0 12S4.477 2 10 2m3 14.414L14.414 15L11 11.586V6.5H9v5.914z"/></symbol><symbol id="hd-icon-tdesign-browse-off" viewBox="0 0 24 24"><path fill="none" stroke="currentColor" stroke-linecap="square" stroke-width="2" d="M13.176 8.176a4.01 4.01 0 0 1 2.649 2.649m5.46 4.46A11.5 11.5 0 0 0 22.959 12C21.478 7.36 17.13 4 12 4q-.946 0-1.852.148m-4.34 1.66A11.53 11.53 0 0 0 1.041 12c1.48 4.64 5.827 8 10.958 8c2.28 0 4.404-.663 6.192-1.808zM8 12c0-1.104.448-2.104 1.172-2.828l5.656 5.657A4 4 0 0 1 8 12Zm13 9L3 3"/></symbol><symbol id="hd-icon-tdesign-browse-off-filled" viewBox="0 0 24 24"><path fill="currentColor" d="M3.004 1.59L3 1.586L1.586 3l2.68 2.68a12.5 12.5 0 0 0-4.177 6.016L-.008 12l.097.304C1.7 17.346 6.421 21 12 21c2.19 0 4.247-.563 6.036-1.55L21 22.413l1.41-1.41L3 1.594zM7 12c0-1.02.305-1.967.828-2.757l1.464 1.464a3 3 0 0 0 4 4.001l1.465 1.464A5 5 0 0 1 7 12m14.198 4.964a12.5 12.5 0 0 0 2.712-4.66l.097-.304l-.097-.304C22.3 6.654 17.578 3 12 3c-1.43 0-2.804.24-4.084.682l3.369 3.369Q11.635 7 12 7a5 5 0 0 1 4.95 5.715z"/><path fill="currentColor" d="M14.253 10.02a3 3 0 0 0-.272-.273z"/></symbol><symbol id="hd-icon-tdesign-brush" viewBox="0 0 24 24"><g fill="none"><path d="M10.5 2.5L7 6l11 11l3.5-3.5L18 10l3-3l-4-4l-3 3z"/><path d="m1.5 11.5l11 11L18 17L7 6z"/><path stroke="currentColor" stroke-linecap="square" stroke-width="2" d="m7 6l11 11M7 6l-5.5 5.5l11 11L18 17M7 6l3.5-3.5L14 6l3-3l4 4l-3 3l3.5 3.5L18 17"/></g></symbol><symbol id="hd-icon-tdesign-brush-filled" viewBox="0 0 24 24"><path fill="currentColor" d="M.794 12.368L11.92 23.494l4.489-4.489L5.283 7.88zm17.029 5.222l3.605-3.604l-2.833-2.832l3.274-3.275l-5.46-5.46l-3.275 3.274l-2.832-2.833l-3.605 3.605z"/></symbol><symbol id="hd-icon-tdesign-bug" viewBox="0 0 24 24"><g fill="none"><path d="M17 9H7v7a5 5 0 0 0 10 0zm-5-7a4 4 0 0 0-4 4h8a4 4 0 0 0-4-4"/><path stroke="currentColor" stroke-linecap="square" stroke-width="2" d="M7 13H4m3 0v3a5 5 0 0 0 10 0v-3M7 13V9h10v4m3 0h-3m-5-4v11m-5.45-3.55L4 19v2m13.45-4.55L20 19v2M6.65 9.65L4 7V5m13.35 4.65L20 7V5M8 6a4 4 0 1 1 8 0z"/></g></symbol><symbol id="hd-icon-tdesign-bug-filled" viewBox="0 0 24 24"><path fill="currentColor" d="M7 5.998a5 5 0 0 1 10 0z"/><path fill="currentColor" d="M6.414 8L5 6.586V4H3v3.414l3 3V12H3v2h3v1.586l-3 3V22h2v-2.586l1.36-1.36c.729 2 2.49 3.503 4.64 3.863V8zM13 8v13.917a6.01 6.01 0 0 0 4.64-3.863l1.36 1.36V22h2v-3.414l-3-3V14h3v-2h-3v-1.586l3-3V4h-2v2.586L17.586 8z"/></symbol><symbol id="hd-icon-tdesign-bug-report" viewBox="0 0 24 24"><g fill="none"><path d="M9.195 5.635A6.5 6.5 0 0 0 5.5 11.5v5a6.5 6.5 0 1 0 13 0v-5a6.5 6.5 0 0 0-9.305-5.865"/><path stroke="currentColor" stroke-linecap="square" stroke-width="2" d="M3 10h2.5m13 0H21M3 18h2.5m13 0H21M9 5.4L7 3m8 2.4L17 3M5.5 16.5v-5a6.5 6.5 0 0 1 13 0v5a6.5 6.5 0 1 1-13 0ZM10 11h4m-4 6h4"/></g></symbol><symbol id="hd-icon-tdesign-bug-report-filled" viewBox="0 0 24 24"><path fill="currentColor" d="M9.493 4.43A7.5 7.5 0 0 1 12 4c.878 0 1.722.151 2.507.43l2.365-2.838l1.536 1.28l-2.083 2.5A7.5 7.5 0 0 1 19.073 9H22v2h-2.516q.015.248.016.5v5q0 .252-.016.5H22v2h-2.927a7.503 7.503 0 0 1-14.146 0H2v-2h2.516a8 8 0 0 1-.016-.5v-5q0-.252.016-.5H2V9h2.927a7.5 7.5 0 0 1 2.748-3.628l-2.083-2.5l1.536-1.28zM15 12v-2H9v2zm0 6v-2H9v2z"/></symbol><symbol id="hd-icon-tdesign-building" viewBox="0 0 24 24"><g fill="none"><path d="M16 6h3v4h1v11H4V10h1V6h3V3h8z"/><path d="M9 15v6h6v-6z"/><path stroke="currentColor" stroke-linecap="square" stroke-width="2" d="M9 15v6h6v-6zm7-9V3H8v3m8 0h3v4m-3-4H8m0 0H5v4m14 0H5m14 0h1M5 10H4m0 0v11m0-11H3m1 11H3m1 0h16m0-11v11m0-11h1m-1 11h1"/></g></symbol><symbol id="hd-icon-tdesign-building-1" viewBox="0 0 24 24"><g fill="none"><path d="M6.5 4C9 4 9.167 6.667 9 8v3h12v10H4V8c-.166-1.333 0-4 2.5-4"/><path d="M13 16v5h4v-5z"/><path stroke="currentColor" stroke-width="2" d="M13 16h4v5h-4z"/><path stroke="currentColor" stroke-linecap="square" stroke-width="2" d="M2.5 8H4m0 0h5M4 8v13h5M4 8c-.167-1.333 0-4 2.5-4M9 8h1.5M9 8v13M9 8c.167-1.333 0-4-2.5-4M9 21h12V11H9zM6.5 4V2.5"/></g></symbol><symbol id="hd-icon-tdesign-building-1-filled" viewBox="0 0 24 24"><path fill="currentColor" d="M7.5 1.5v1.625q.595.16 1.065.51c.549.407.897.951 1.113 1.494c.247.615.344 1.277.364 1.871H11.5v2H10v1h12v12h-3.5v-6h-7v6H3V9H1.5V7h1.458c.02-.594.117-1.256.363-1.871c.217-.543.565-1.087 1.114-1.494q.47-.35 1.065-.51V1.5zM4.96 7h3.08c-.018-.389-.083-.789-.219-1.129c-.116-.29-.268-.497-.449-.63C7.201 5.112 6.937 5 6.5 5s-.7.113-.873.24c-.18.134-.332.34-.449.631c-.135.34-.2.74-.219 1.129M5 9v11h3V9z"/><path fill="currentColor" d="M16.5 22h-3v-4h3z"/></symbol><symbol id="hd-icon-tdesign-building-2" viewBox="0 0 24 24"><g fill="none"><path d="M21 21V9H3v12zM8 9V4.4L12 2l4 2.4V9z"/><path d="M15 14H9v7h6z"/><path stroke="currentColor" stroke-linecap="square" stroke-width="2" d="M12 5.998h.004v.004H12zM15 14H9v7h6z"/><path stroke="currentColor" stroke-linecap="square" stroke-width="2" d="m7 5l5-3l5 3m-9-.1V9m8-4.1V9m5 0v12H3V9z"/></g></symbol><symbol id="hd-icon-tdesign-building-2-filled" viewBox="0 0 24 24"><path fill="currentColor" d="m12 .834l6.373 3.823l-1.03 1.715l-.342-.206V8H7V6.166l-.343.206l-1.03-1.715zm-1 3.164v2.004h2.004V3.998zM22 10H2v12h6v-7h8v7h6z"/><path fill="currentColor" d="M10 17v5h4v-5z"/></symbol><symbol id="hd-icon-tdesign-building-3" viewBox="0 0 24 24"><g fill="none"><path d="M15 3v3h3v4h3v11H3V10h3V6h3V3z"/><path d="M9 15v6h6v-6z"/><path stroke="currentColor" stroke-linecap="square" stroke-width="2" d="M9 15v6h6v-6z"/><path stroke="currentColor" stroke-linecap="square" stroke-width="2" d="M15 6V3H9v3m6 0h3v4m-3-4H9m0 0H6v4m12 0H6m12 0h3v11H3V10h3"/></g></symbol><symbol id="hd-icon-tdesign-building-3-filled" viewBox="0 0 24 24"><path fill="currentColor" d="M16 2H8v3H5v4h14V5h-3zM2 11h20v11h-6v-6H8v6H2z"/><path fill="currentColor" d="M10 22v-4h4v4z"/></symbol><symbol id="hd-icon-tdesign-building-4" viewBox="0 0 24 24"><g fill="none"><path d="M20 3v6h1v12H3V9h9V3z"/><path d="M9 21v-6h6v6z"/><path stroke="currentColor" stroke-linecap="square" stroke-width="2" d="M9 21v-6h6v6zm6-15.002h.004v.004H15z"/><path stroke="currentColor" stroke-linecap="square" stroke-width="2" d="M12 3v6h8V3m-8 0h8m-8 0h-1m9 0h1M3 9v12h18V9z"/></g></symbol><symbol id="hd-icon-tdesign-building-4-filled" viewBox="0 0 24 24"><path fill="currentColor" d="M2 10h20v12h-6v-6H8v6H2z"/><path fill="currentColor" d="M10 22v-4h4v4zM21 2H9v2h1v4h10V4h1zm-5.996 2.998v2.004H13V4.998z"/></symbol><symbol id="hd-icon-tdesign-building-5" viewBox="0 0 24 24"><g fill="none"><path d="M4 21v-8.111L12 8l8 4.889V21z"/><path d="M6 11.667v-5.81L11.998 2L18 5.857v5.81L12 8z"/><path stroke="currentColor" stroke-linecap="square" stroke-width="2" d="M12 17v4m7-14.5L11.998 2L5 6.5m1-.15v5.317L12 8l6 3.667V6.35"/><path stroke="currentColor" stroke-linecap="square" stroke-width="2" d="M3 13.5L12 8l9 5.5m-17-.1V21h16v-7.6"/></g></symbol><symbol id="hd-icon-tdesign-building-5-filled" viewBox="0 0 24 24"><path fill="currentColor" d="M20.382 6.2L11.998.81L3.618 6.2l1.081 1.682l.3-.193v3.417l-3.374 2.062l1.043 1.707l.332-.203V22h8v-6h2v6h8v-7.328l.332.203l1.043-1.707L19 11.106V7.689l.3.193zM7 9.882v-3.48l4.998-3.214L17 6.403v3.48l-5-3.055z"/></symbol><symbol id="hd-icon-tdesign-building-filled" viewBox="0 0 24 24"><path fill="currentColor" d="M7 2h10v3h3v4H4V5h3zm15 11v-2H2v2h1v7H2v2h6v-6h8v6h6v-2h-1v-7z"/><path fill="currentColor" d="M14 22h-4v-4h4z"/></symbol><symbol id="hd-icon-tdesign-bulletpoint" viewBox="0 0 24 24"><path fill="none" stroke="currentColor" stroke-linecap="square" stroke-width="2" d="M8 5h13M8 12h13M8 19h13M3 5.004h.004V5H3zm0 7h.004V12H3zm0 7h.004V19H3z"/></symbol><symbol id="hd-icon-tdesign-button" viewBox="0 0 24 24"><g fill="none"><path d="M3 6h18v12H3z"/><path d="M7 10h10v4H7z"/><path stroke="currentColor" stroke-width="2" d="M3 6h18v12H3z"/><path stroke="currentColor" stroke-width="2" d="M7 10h10v4H7z"/></g></symbol><symbol id="hd-icon-tdesign-button-filled" viewBox="0 0 24 24"><path fill="currentColor" d="M2 5h20v14H2zm2 2v10h16V7zm2 2h12v6H6z"/></symbol><symbol id="hd-icon-tdesign-cabbage" viewBox="0 0 24 24"><g fill="none"><path d="M12 22c5.523 0 10-4.417 10-10c0-3.444-2.82-8.908-6.444-8.869c-2.223 0-2.667 3.819-2.667 3.819c.344-3.819-2.735-5.366-5.891-3.598C3.98 5.042 2 8.217 2 12c0 5.035 3.641 9.101 8.407 9.872Q11.186 22 12 22"/><path stroke="currentColor" stroke-linecap="square" stroke-width="2" d="M14.444 11.667c-.762-.133-1.765-.04-2.444.333c-1.473.812-2.249 2.68-2.318 4.609c-.057 1.6.218 3.321.577 4.72m4.185-9.662c.399-1.41 1.957-2.593 3.556-2.985c2.37-.582 3.972.98 4 3.318c0-3.444-2.82-8.908-6.444-8.869c-1.392 0-2.086 1.497-2.411 2.617m1.3 5.919c.25-1.194.28-2.02 0-2.758c-.233-.61-.678-1.16-1.389-1.809l-.167-.15c.344-3.819-2.735-5.366-5.891-3.598C3.98 5.042 2 8.217 2 12c0 5.035 3.641 9.101 8.407 9.872Q11.186 22 12 22c5.436 0 9.947-4.47 10-9.9v-.012M6.889 8.876L10 5.826m7.875 2.646L17 7m-6.1 14.33l7.544-8.315M14.431 16.7l.013-1.888m-5.222 1.291L6 12.565m5.967-.815c-.237-.952-1.694-2.458-3.523-1.43c-.736-.459-1.401-.788-2-1.009c-2.001-.738-3.251-.404-3.898.539l-.034.05"/></g></symbol><symbol id="hd-icon-tdesign-cabbage-filled" viewBox="0 0 24 24"><path fill="currentColor" d="m14.09 4.094l-.171 2.456a5.82 5.82 0 0 1 1.626 3.163a6.8 6.8 0 0 1 2.297-1.022l-1.213-2.04l1.72-1.022l1.787 3.006c.795.114 1.622.365 2.357.8q.083.048.162.1a13.4 13.4 0 0 0-1.678-3.82c-.88-1.36-2.1-2.634-3.585-3.23c-1.595-.64-3.19-.04-3.298 1.558zm-2.007.027l-.226 3.25l.369.327c1.165 1.03 1.556 2.294 1.377 3.913a5.4 5.4 0 0 0-.995.117l-.031-.052a3.8 3.8 0 0 0-1.03-1.093c-.79-.555-1.873-.83-3.042-.393a11.4 11.4 0 0 0-1.715-.817l-.238-.084l2.854-3.533L7.85 4.5L4.288 8.91a6.55 6.55 0 0 0-2.645.51q-.2.086-.392.188A10.7 10.7 0 0 1 6.509 2.48c1.046-.585 2.143-.881 3.175-.854c1.75.045 2.498.91 2.402 2.375zM1.024 12.74c.318 4.865 3.746 8.785 8.29 9.926a20 20 0 0 1-.59-3.414l-5.138-5.194l1.421-1.407l3.785 3.825c.243-1.472.88-2.918 2.008-3.86a1.8 1.8 0 0 0-.403-.396c-.365-.256-.84-.38-1.463-.03l-.516.29l-.502-.312c-.691-.43-1.295-.726-1.818-.919c-1.349-.498-2.694-.411-3.664.007c-.853.367-1.305.922-1.41 1.485m12.403 6.313l-2.315 2.552c-.282-1.234-.478-2.653-.43-3.962c.062-1.754.763-3.197 1.8-3.768c.43-.237 1.19-.33 1.79-.224l.889.155l.245-.868c.128-.453.468-.94.998-1.371a4.8 4.8 0 0 1 1.834-.915c.765-.188 2.189-.117 3.238.504c.498.294.884.695 1.103 1.23c.22.539.31 1.306.052 2.399l.017.004a10.96 10.96 0 0 1-10.087 8.196l7.295-8.04l-1.481-1.344l-2.932 3.23l.007-1.014l-2-.014z"/></symbol><symbol id="hd-icon-tdesign-cake" viewBox="0 0 24 24"><g fill="none"><path d="M4 11h16v10H4z"/><path d="M4 21h16v-5h-2l-3 1l-3-1l-3 1l-3-1H4z"/><path stroke="currentColor" stroke-linecap="square" stroke-width="2" d="M8 6v5m4-5v5m4-5v5M7.998 2.998h.004v.004h-.004zm4 0h.004v.004h-.004zm4 0h.004v.004h-.004zM2 21h20M4 16h2l3 1l3-1l3 1l3-1h2M4 11h16v10H4z"/></g></symbol><symbol id="hd-icon-tdesign-cake-filled" viewBox="0 0 24 24"><path fill="currentColor" d="M9.002 1.998H6.998v2.004h2.004zm4 0h-2.004v2.004h2.004zm4 0h-2.004v2.004h2.004zM9 10V5H7v5H3v5h3.162L9 15.946l3-1l3 1L17.838 15H21v-5h-4V5h-2v5h-2V5h-2v5zm12 7h-2.838L15 18.054l-3-1l-3 1L5.838 17H3v3H1v2h22v-2h-2z"/></symbol><symbol id="hd-icon-tdesign-calculation" viewBox="0 0 24 24"><path fill="none" stroke="currentColor" stroke-linecap="square" stroke-width="2" d="m3.705 20.668l2.829-2.829m0 0l2.828-2.828m-2.828 2.828l-2.668-2.668m2.668 2.668l2.988 2.99M3 6.5h3.5m0 0H10m-3.5 0V3m0 3.5V10M14 6.5h7M14 18h7m-3.5-3.002h.004v.004H17.5zm0 6h.004v.004H17.5z"/></symbol><symbol id="hd-icon-tdesign-calculation-1" viewBox="0 0 24 24"><g fill="none"><path d="M2 2h20v20H2z"/><path stroke="currentColor" stroke-linecap="square" stroke-width="2" d="M2 2h20v20H2zm4 6h2m0 0h2M8 8V6m0 2v2m6-2h4m-4 6.5h4m-4 3h4M6.586 14.586L8 16m0 0l1.414 1.414M8 16l1.414-1.414M8 16l-1.415 1.414"/></g></symbol><symbol id="hd-icon-tdesign-calculation-1-filled" viewBox="0 0 24 24"><path fill="currentColor" d="M23 1v22H1V1zM9 7V5H7v2H5v2h2v2h2V9h2V7zm10 0h-6v2h6zM8 14.586l-1.414-1.414l-1.414 1.414L6.586 16L5.17 17.414l1.415 1.415L8 17.414l1.414 1.415l1.415-1.415L9.414 16l1.414-1.414l-1.414-1.414zM19 13.5h-6v2h6zm0 3h-6v2h6z"/></symbol><symbol id="hd-icon-tdesign-calculator" viewBox="0 0 24 24"><g fill="none"><path d="M4 22h16V8H4zM20 2H4v6h16z"/><path stroke="currentColor" stroke-linecap="square" stroke-width="2" d="M20 8V2H4v6m16 0H4m16 0v14H4V8m4 5h2m4 0h2m-2 4h2m-8 0h2"/></g></symbol><symbol id="hd-icon-tdesign-calculator-1" viewBox="0 0 24 24"><g fill="none"><path d="M19 21V9H5v12zM5 3h14v6H5z"/><path stroke="currentColor" stroke-linecap="square" stroke-width="2" d="M19 3v18H5V3m14 0H5m14 0v6H5V3m9 6v12M10 9v12m-5-8h14M5 17h14"/></g></symbol><symbol id="hd-icon-tdesign-calculator-filled" viewBox="0 0 24 24"><path fill="currentColor" d="M3 1h18v6H3zm0 7.996h18V23H3zm8 6.002v-2H7v2zm6 0v-2h-4v2zm-6 2H7v2h4zm6 2v-2h-4v2z"/></symbol><symbol id="hd-icon-tdesign-calendar" viewBox="0 0 24 24"><g fill="none"><path d="M21 10H3v11h18zm0 0H3V5h18z"/><path stroke="currentColor" stroke-width="2" d="M3 10h18M3 10V5h18v5M3 10v11h18V10M7 5V1.5M17 5V1.5"/></g></symbol><symbol id="hd-icon-tdesign-calendar-1" viewBox="0 0 24 24"><g fill="none"><path d="M3 21h18V10H3zm18-11V5H3v5z"/><path stroke="currentColor" stroke-linecap="square" stroke-width="2" d="M21 10v11H3V10m18 0H3m18 0V5H3v5m4-5V2m10 3V2"/><path stroke="currentColor" stroke-linecap="square" stroke-width="2" d="M8 14h.004v.004H8zm4 0h.004v.004H12zm4 0h.004v.004H16zm0 3h.004v.004H16zm-8 0h.004v.004H8zm4 0h.004v.004H12z"/></g></symbol><symbol id="hd-icon-tdesign-calendar-1-filled" viewBox="0 0 24 24"><path fill="currentColor" d="M8 4h8V1h2v3h4v5H2V4h4V1h2zm14 7v11H2V11zM9.004 13.497H7v2.004h2.004zm4 0H11v2.004h2.004zm4 0H15v2.004h2.004zm-8 4H7v2.004h2.004zm4 0H11v2.004h2.004zm4 0H15v2.004h2.004z"/></symbol><symbol id="hd-icon-tdesign-calendar-2" viewBox="0 0 24 24"><g fill="none"><path d="M3 21h18V10H3zm18-11V5H3v5z"/><path stroke="currentColor" stroke-linecap="square" stroke-width="2" d="M21 10V5H3v5m18 0H3m18 0v11H3V10m4-5V2m10 3V2"/><path stroke="currentColor" stroke-linecap="square" stroke-width="2" d="m15.5 13.25l-4.243 4.243l-2.121-2.122"/></g></symbol><symbol id="hd-icon-tdesign-calendar-2-filled" viewBox="0 0 24 24"><path fill="currentColor" d="M8 4h8V1h2v3h4v5H2V4h4V1h2zm14 7.004V22H2V11.004zm-10.743 8.903l5.657-5.657l-1.414-1.414l-4.243 4.242l-2.121-2.121l-1.414 1.414z"/></symbol><symbol id="hd-icon-tdesign-calendar-3" viewBox="0 0 24 24"><g fill="none"><path d="M21 10.5v-5H3v5zm-18 11h18v-11H3z"/><path stroke="currentColor" stroke-linecap="square" stroke-width="2" d="M7 18h8m-8-4h4m10-3.5v11H3v-11m18 0H3m18 0v-5H3v5m4-5v-3m10 3v-3"/></g></symbol><symbol id="hd-icon-tdesign-calendar-3-filled" viewBox="0 0 24 24"><path fill="currentColor" d="M22 22.5H2v-12h20zm-16-3h10v-2H6zm0-4h6v-2H6zm2-11h8v-3h2v3h4v4H2v-4h4v-3h2z"/></symbol><symbol id="hd-icon-tdesign-calendar-edit" viewBox="0 0 24 24"><g fill="none"><path d="M15 22.5v-2.713l4.287-4.287L22 18.213L17.713 22.5z"/><path stroke="currentColor" stroke-linecap="square" stroke-width="2" d="M3 10v11h8M3 10h18M3 10V5h18v5m0 0v2M7 5V2m10 3V2m.2 15.586l-2.2 2.2V22.5h2.713l2.201-2.2m-2.713-2.714l2.086-2.086L22 18.213L19.914 20.3m-2.713-2.713l2.713 2.713"/></g></symbol><symbol id="hd-icon-tdesign-calendar-edit-filled" viewBox="0 0 24 24"><path fill="currentColor" d="M16 4H8V1H6v3H2v5h20V4h-4V1h-2zm6 9v-2H2v11h10v-1a8 8 0 0 1 8-8z"/><path fill="currentColor" d="m23.414 18.213l-4.127-4.127L14 19.372l.001 4.128h4.127zM17.201 19l1.299 1.3l-1.2 1.2H16v-1.3z"/></symbol><symbol id="hd-icon-tdesign-calendar-event" viewBox="0 0 24 24"><g fill="none"><path d="M3 21h18V10H3zm18-11V5H3v5z"/><path stroke="currentColor" stroke-linecap="square" stroke-width="2" d="M21 10v11H3V10m18 0H3m18 0V5H3v5m4-5V2m10 3V2"/><path stroke="currentColor" stroke-linecap="square" stroke-width="2" d="M13.5 13.5h4v4h-4z"/></g></symbol><symbol id="hd-icon-tdesign-calendar-event-filled" viewBox="0 0 24 24"><path fill="currentColor" d="M8 4h8V1h2v3h4v5H2V4h4V1h2zm14 7v11H2V11zm-3.5 3.5h-4v4h4z"/></symbol><symbol id="hd-icon-tdesign-calendar-filled" viewBox="0 0 24 24"><path fill="currentColor" d="M6 1.5V4H2v5h20V4h-4V1.5h-2V4H8V1.5zM22 22V11H2v11z"/></symbol><symbol id="hd-icon-tdesign-call" viewBox="0 0 24 24"><g fill="none"><path d="M21 22c-3.8 0-7.338-1.115-10.307-3.036a19.1 19.1 0 0 1-5.657-5.657A18.9 18.9 0 0 1 2 3h6.778L9.97 8.372l-2.024 2.024a15.07 15.07 0 0 0 5.657 5.657l2.024-2.025L21 15.223z"/><path stroke="currentColor" stroke-width="2" d="M21 22c-3.8 0-7.338-1.115-10.307-3.036a19.1 19.1 0 0 1-5.657-5.657A18.9 18.9 0 0 1 2 3h6.778L9.97 8.372l-2.024 2.024a15.07 15.07 0 0 0 5.657 5.657l2.024-2.025L21 15.223z"/></g></symbol><symbol id="hd-icon-tdesign-call-1" viewBox="0 0 24 24"><g fill="none"><path d="M21 22c-3.8 0-7.338-1.115-10.307-3.036a19.1 19.1 0 0 1-5.657-5.657A18.9 18.9 0 0 1 2 3h6.778L9.97 8.372l-2.024 2.024a15.07 15.07 0 0 0 5.657 5.657l2.024-2.025L21 15.223z"/><path stroke="currentColor" stroke-linecap="square" stroke-width="2" d="M21 22c-3.8 0-7.338-1.115-10.307-3.036a19.1 19.1 0 0 1-5.657-5.657A18.9 18.9 0 0 1 2 3h6.778L9.97 8.372l-2.024 2.024a15.07 15.07 0 0 0 5.657 5.657l2.024-2.025L21 15.223zm-.018-14.758a6 6 0 0 0-4.226-4.228m.848 5.14a2.5 2.5 0 0 0-1.761-1.762"/></g></symbol><symbol id="hd-icon-tdesign-call-1-filled" viewBox="0 0 24 24"><path fill="currentColor" d="m17.018 2.048l-.965-.261l-.523 1.93l.966.262a5 5 0 0 1 3.521 3.524l.26.965l1.931-.521l-.26-.965a7 7 0 0 0-4.93-4.934m-.914 3.378l-.965-.261l-.523 1.93l.966.262a1.5 1.5 0 0 1 1.056 1.057l.26.965l1.931-.52l-.26-.966a3.5 3.5 0 0 0-2.465-2.467"/><path fill="currentColor" d="M9.58 2H1v1a19.9 19.9 0 0 0 3.196 10.85a20.1 20.1 0 0 0 5.954 5.954A19.9 19.9 0 0 0 21 23h1v-8.58l-6.69-1.487l-1.86 1.86a14.1 14.1 0 0 1-4.242-4.243l1.859-1.86z"/></symbol><symbol id="hd-icon-tdesign-call-cancel" viewBox="0 0 24 24"><g fill="none"><path d="M21 22c-3.8 0-7.338-1.115-10.307-3.036a19.1 19.1 0 0 1-5.657-5.657A18.9 18.9 0 0 1 2 3h6.778L9.97 8.372l-2.024 2.024a15.07 15.07 0 0 0 5.657 5.657l2.024-2.025L21 15.223z"/><path stroke="currentColor" stroke-linecap="square" stroke-width="2" d="M21 22c-3.8 0-7.338-1.115-10.307-3.036a19.1 19.1 0 0 1-5.657-5.657A18.9 18.9 0 0 1 2 3h6.778L9.97 8.372l-2.024 2.024a15.07 15.07 0 0 0 5.657 5.657l2.024-2.025L21 15.223zm-.377-18.62L18.5 5.5m0 0l-2.12 2.123M18.5 5.5l-2.12-2.12M18.5 5.5l2.121 2.122"/></g></symbol><symbol id="hd-icon-tdesign-call-cancel-filled" viewBox="0 0 24 24"><path fill="currentColor" d="M18.501 4.087L16.38 1.966L14.966 3.38l2.121 2.121l-2.121 2.122l1.414 1.414l2.121-2.121l2.122 2.12l1.414-1.413L19.916 5.5l2.12-2.121l-1.413-1.414z"/><path fill="currentColor" d="M9.58 2H1v1a19.9 19.9 0 0 0 3.196 10.85a20.1 20.1 0 0 0 5.954 5.954A19.9 19.9 0 0 0 21 23h1v-8.58l-6.69-1.487l-1.86 1.86a14.1 14.1 0 0 1-4.242-4.243l1.859-1.86z"/></symbol><symbol id="hd-icon-tdesign-call-filled" viewBox="0 0 24 24"><path fill="currentColor" d="M1 2h8.58l1.487 6.69l-1.86 1.86a14.1 14.1 0 0 0 4.243 4.242l1.86-1.859L22 14.42V23h-1a19.9 19.9 0 0 1-10.85-3.196a20.1 20.1 0 0 1-5.954-5.954A19.9 19.9 0 0 1 1 3z"/></symbol><symbol id="hd-icon-tdesign-call-forwarded" viewBox="0 0 24 24"><g fill="none"><path d="M21 22c-3.8 0-7.338-1.115-10.307-3.036a19.1 19.1 0 0 1-5.657-5.657A18.9 18.9 0 0 1 2 3h6.778L9.97 8.372l-2.024 2.024a15.07 15.07 0 0 0 5.657 5.657l2.024-2.025L21 15.223z"/><path stroke="currentColor" stroke-linecap="square" stroke-width="2" d="M21 22c-3.8 0-7.338-1.115-10.307-3.036a19.1 19.1 0 0 1-5.657-5.657A18.9 18.9 0 0 1 2 3h6.778L9.97 8.372l-2.024 2.024a15.07 15.07 0 0 0 5.657 5.657l2.024-2.025L21 15.223zm-.283-15.164l-.074-3.462L17.18 3.3m2.66.876L16.4 7.617"/></g></symbol><symbol id="hd-icon-tdesign-call-forwarded-filled" viewBox="0 0 24 24"><path fill="currentColor" d="M9.58 2H1v1a19.9 19.9 0 0 0 3.196 10.85a20.1 20.1 0 0 0 5.954 5.954A19.9 19.9 0 0 0 21 23h1v-8.58l-6.69-1.487l-1.86 1.86a14.1 14.1 0 0 1-4.242-4.243l1.859-1.86z"/><path fill="currentColor" d="m21.605 2.4l-5.419-.116l-.043 2l2.119.045l-3.293 3.293l1.414 1.414l3.293-3.293l.046 2.119l2-.043z"/></symbol><symbol id="hd-icon-tdesign-call-incoming" viewBox="0 0 24 24"><g fill="none"><path d="M21 22c-3.8 0-7.338-1.115-10.307-3.036a19.1 19.1 0 0 1-5.657-5.657A18.9 18.9 0 0 1 2 3h6.778L9.97 8.372l-2.024 2.024a15.07 15.07 0 0 0 5.657 5.657l2.024-2.025L21 15.223z"/><path stroke="currentColor" stroke-linecap="square" stroke-width="2" d="M21 22c-3.8 0-7.338-1.115-10.307-3.036a19.1 19.1 0 0 1-5.657-5.657A18.9 18.9 0 0 1 2 3h6.778L9.97 8.372l-2.024 2.024a15.07 15.07 0 0 0 5.657 5.657l2.024-2.025L21 15.223zM16.3 4.182l.074 3.46l3.461.075m-2.675-.86L20.616 3.4"/></g></symbol><symbol id="hd-icon-tdesign-call-incoming-filled" viewBox="0 0 24 24"><path fill="currentColor" d="m18.739 6.671l3.293-3.293l-1.414-1.414l-3.294 3.293l-.045-2.119l-2 .043l.117 5.419l5.418.116l.043-2z"/><path fill="currentColor" d="M9.58 2H1v1a19.9 19.9 0 0 0 3.196 10.85a20.1 20.1 0 0 0 5.954 5.954A19.9 19.9 0 0 0 21 23h1v-8.58l-6.69-1.487l-1.86 1.86a14.1 14.1 0 0 1-4.242-4.243l1.859-1.86z"/></symbol><symbol id="hd-icon-tdesign-call-off" viewBox="0 0 24 24"><path fill="none" stroke="currentColor" stroke-linecap="square" stroke-width="2" d="M5.298 13.702q-.133-.195-.262-.395A18.9 18.9 0 0 1 2 3h6.778L9.97 8.372l-2.024 2.024l.183.31m-.565 5.729a19 19 0 0 0 3.128 2.529A18.9 18.9 0 0 0 21 22v-6.778l-5.372-1.194l-2.024 2.025a15 15 0 0 1-3.21-2.447M21 3L3 21"/></symbol><symbol id="hd-icon-tdesign-call-off-filled" viewBox="0 0 24 24"><path fill="currentColor" d="m9.213 10.557l-.005-.007l1.859-1.86L9.58 2H1v1a19.9 19.9 0 0 0 3.901 11.87zM1.594 21.005l19.41-19.41L21 1.59l.004-.004L22.418 3L11.835 13.583q.763.661 1.615 1.21l1.86-1.86L22 14.42V23h-1a19.9 19.9 0 0 1-10.85-3.196a20 20 0 0 1-2.565-1.97l-4.58 4.58z"/></symbol><symbol id="hd-icon-tdesign-calm" viewBox="0 0 24 24"><g fill="none"><path d="M22 12c0 5.523-4.477 10-10 10S2 17.523 2 12S6.477 2 12 2s10 4.477 10 10"/><path stroke="currentColor" stroke-linecap="square" stroke-width="2" d="M22 12c0 5.523-4.477 10-10 10S2 17.523 2 12S6.477 2 12 2s10 4.477 10 10Zm-6-3v2M8 9v2m7 4h-3.5"/></g></symbol><symbol id="hd-icon-tdesign-calm-1" viewBox="0 0 24 24"><g fill="none"><path d="M22 12c0 5.523-4.477 10-10 10S2 17.523 2 12S6.477 2 12 2s10 4.477 10 10"/><path stroke="currentColor" stroke-linecap="square" stroke-width="2" d="M22 12c0 5.523-4.477 10-10 10S2 17.523 2 12S6.477 2 12 2s10 4.477 10 10Z"/><path stroke="currentColor" stroke-linecap="square" stroke-width="2" d="M17 10h-1m0 0h-1m1 0v2m-7-2H8m0 0H7m1 0v2m4 3h.004v.004H12z"/></g></symbol><symbol id="hd-icon-tdesign-calm-1-filled" viewBox="0 0 24 24"><path fill="currentColor" d="M12 23C5.925 23 1 18.075 1 12S5.925 1 12 1s11 4.925 11 11s-4.925 11-11 11M10 9H6v2h1v2h2v-2h1zm8 0h-4v2h1v2h2v-2h1zm-4.996 5H11v2.004h2.004z"/></symbol><symbol id="hd-icon-tdesign-calm-filled" viewBox="0 0 24 24"><path fill="currentColor" d="M12 23C5.925 23 1 18.075 1 12S5.925 1 12 1s11 4.925 11 11s-4.925 11-11 11M9 12V8H7v4zm8 0V8h-2v4zm-1 2h-5.5v2H16z"/></symbol><symbol id="hd-icon-tdesign-camera" viewBox="0 0 24 24"><g fill="none"><path d="M15.5 3h-7L7 6H2v14h20V6h-5z"/><path d="M16 12.5a4 4 0 1 1-8 0a4 4 0 0 1 8 0"/><path stroke="currentColor" stroke-width="2" d="M15.5 3h-7L7 6H2v14h20V6h-5z"/><path stroke="currentColor" stroke-width="2" d="M16 12.5a4 4 0 1 1-8 0a4 4 0 0 1 8 0Z"/></g></symbol><symbol id="hd-icon-tdesign-camera-1" viewBox="0 0 24 24"><g fill="none"><path d="M20 10a8 8 0 1 1-16 0a8 8 0 0 1 16 0"/><path d="M15 10a3 3 0 1 1-6 0a3 3 0 0 1 6 0"/><path stroke="currentColor" stroke-linecap="square" stroke-width="2" d="M12 18a8 8 0 0 1-3-.581L8 22m4-4a8 8 0 0 0 3-.581L16 22m-4-4a8 8 0 1 0 0-16a8 8 0 0 0 0 16Zm4 4H8m8 0h2M8 22H6"/><path stroke="currentColor" stroke-width="2" d="M15 10a3 3 0 1 1-6 0a3 3 0 0 1 6 0Z"/></g></symbol><symbol id="hd-icon-tdesign-camera-1-filled" viewBox="0 0 24 24"><path fill="currentColor" d="M9.5 10a2.5 2.5 0 1 1 5 0a2.5 2.5 0 0 1-5 0"/><path fill="currentColor" d="M3 10c0 3.476 1.97 6.49 4.852 7.989L7.195 21H5v2h14v-2h-2.195l-.657-3.011A9 9 0 1 0 3 10m6.74 8.714a9.06 9.06 0 0 0 4.52 0L14.757 21H9.242zM7.5 10a4.5 4.5 0 1 1 9 0a4.5 4.5 0 0 1-9 0"/></symbol><symbol id="hd-icon-tdesign-camera-2" viewBox="0 0 24 24"><g fill="none"><path d="M20 10.5a8 8 0 1 1-16 0a8 8 0 0 1 16 0"/><path d="M15 10.5a3 3 0 1 1-6 0a3 3 0 0 1 6 0"/><path stroke="currentColor" stroke-linecap="square" stroke-width="2" d="M12 18.5a8 8 0 1 0 0-16a8 8 0 0 0 0 16Zm0 0v3m6.326-1.5A10.95 10.95 0 0 1 12 22a10.95 10.95 0 0 1-6.326-2"/><path stroke="currentColor" stroke-linecap="square" stroke-width="2" d="M15 10.5a3 3 0 1 1-6 0a3 3 0 0 1 6 0Z"/></g></symbol><symbol id="hd-icon-tdesign-camera-2-filled" viewBox="0 0 24 24"><path fill="currentColor" d="M3 10.5a9 9 0 1 1 10 8.945v1.506a9.94 9.94 0 0 0 4.75-1.769l.818-.575l1.151 1.635l-.817.576A11.95 11.95 0 0 1 12 23a11.95 11.95 0 0 1-6.902-2.182l-.818-.576l1.152-1.635l.818.575A9.94 9.94 0 0 0 11 20.951v-1.506A9 9 0 0 1 3 10.5m4.5 0a4.5 4.5 0 1 0 9 0a4.5 4.5 0 0 0-9 0m2 0a2.5 2.5 0 1 0 5 0a2.5 2.5 0 0 0-5 0"/></symbol><symbol id="hd-icon-tdesign-camera-filled" viewBox="0 0 24 24"><path fill="currentColor" d="M8.75 12.75a3.25 3.25 0 1 1 6.5 0a3.25 3.25 0 0 1-6.5 0"/><path fill="currentColor" d="M7.882 2h8.236l1.5 3H23v16H1V5h5.382zM6.75 12.75a5.25 5.25 0 1 0 10.5 0a5.25 5.25 0 0 0-10.5 0"/></symbol><symbol id="hd-icon-tdesign-camera-off" viewBox="0 0 24 24"><path fill="none" stroke="currentColor" stroke-linecap="square" stroke-width="2" d="M22 18V6h-5l-1.5-3h-7l-.469.938M2 20V6h4l14 14zm10-3.5a4 4 0 0 1-2.567-7.067l5.634 5.635A4 4 0 0 1 12 16.5ZM2 2l19 19"/></symbol><symbol id="hd-icon-tdesign-camera-off-filled" viewBox="0 0 24 24"><path fill="currentColor" d="M2.004.59L2 .586L.586 2l3 3H1v16h18.586L22 23.414l1.41-1.41L2 .595zM6.75 12.75c0-1.28.459-2.454 1.22-3.365l1.424 1.423a3.25 3.25 0 0 0 4.548 4.548l1.423 1.424a5.25 5.25 0 0 1-8.615-4.03M23 18.766V5h-5.382l-1.5-3H7.882l-.55 1.099l4.408 4.407a5.25 5.25 0 0 1 5.503 5.503z"/></symbol><symbol id="hd-icon-tdesign-candy" viewBox="0 0 24 24"><defs><path id="hd-icon-tdesign-candy-561" d="M17.01 3.01a1 1 0 0 0-1.704.616l-.222 2.44a2 2 0 0 0 .578 1.596l.675.675a2 2 0 0 0 1.596.578l2.44-.222a1 1 0 0 0 .617-1.703zm-14 14a1 1 0 0 1 .616-1.703L6.999 15l2 2l-.306 3.374a1 1 0 0 1-1.703.616z"/></defs><g fill="none"><path d="M5.914 13.914a2 2 0 0 1 0-2.828l5.172-5.172a2 2 0 0 1 2.828 0l4.172 4.172a2 2 0 0 1 0 2.828l-5.172 5.172a2 2 0 0 1-2.828 0z"/><use href="#hd-icon-tdesign-candy-561"/><use href="#hd-icon-tdesign-candy-561" stroke="currentColor" stroke-linecap="square" stroke-width="2"/><path stroke="currentColor" stroke-linecap="square" stroke-width="2" d="m8.5 8.5l7 7m-2.586 2.585l5.172-5.171a2 2 0 0 0 0-2.828l-4.172-4.172a2 2 0 0 0-2.828 0l-5.172 5.172a2 2 0 0 0 0 2.828l4.172 4.172a2 2 0 0 0 2.828 0Z"/></g></symbol><symbol id="hd-icon-tdesign-candy-filled" viewBox="0 0 24 24"><path fill="currentColor" d="M17.716 2.308a1 1 0 0 0-1.703.617l-.306 3.364l-1.082-1.082a3 3 0 0 0-4.243 0l-1.88 1.88l8.415 8.413l1.88-1.879a3 3 0 0 0 0-4.242l-1.082-1.081l3.365-.306a1 1 0 0 0 .616-1.703zm-15.41 15.41a1 1 0 0 1 .617-1.703l3.373-.307l2 2l-.306 3.374a1 1 0 0 1-1.703.616zm13.197-.803l-1.878 1.878a3 3 0 0 1-4.243 0L5.21 14.62a3 3 0 0 1 0-4.242L7.09 8.5z"/></symbol><symbol id="hd-icon-tdesign-card" viewBox="0 0 24 24"><g fill="none"><path d="M7 4h10v16H7zM3 6v12h4V6zm18 0v12h-4V6z"/><path stroke="currentColor" stroke-width="2" d="M3 6v12h4V6zm18 0v12h-4V6zM7 4h10v16H7z"/></g></symbol><symbol id="hd-icon-tdesign-card-filled" viewBox="0 0 24 24"><path fill="currentColor" d="M6 3h12v2h4v14h-4v2H6v-2H2V5h4zm0 4H4v10h2zm12 0v10h2V7z"/></symbol><symbol id="hd-icon-tdesign-cardmembership" viewBox="0 0 24 24"><g fill="none"><path d="M22 4v16H2V4z"/><path d="M13 10h5v6l-2.5-1.5L13 16z"/><path stroke="currentColor" stroke-linecap="square" stroke-width="2" d="M13 10h5v6l-2.5-1.5L13 16z"/><path stroke="currentColor" stroke-linecap="square" stroke-width="2" d="M22 10H2m20 0V4H2v6m20 0v10H2V10"/></g></symbol><symbol id="hd-icon-tdesign-cardmembership-filled" viewBox="0 0 24 24"><path fill="currentColor" d="M23 9V3H1v6zm0 2v10H1V11h12v5.497l2.5-2.163l2.5 2.163V11z"/></symbol><symbol id="hd-icon-tdesign-caret-down" viewBox="0 0 24 24"><g fill="none"><path d="m12 16.5l7-7H5z"/><path stroke="currentColor" stroke-linecap="square" stroke-width="2" d="m12 16.5l7-7H5z"/></g></symbol><symbol id="hd-icon-tdesign-caret-down-small" viewBox="0 0 24 24"><path fill="currentColor" d="m12 15l5.5-5.5h-11z"/></symbol><symbol id="hd-icon-tdesign-caret-left" viewBox="0 0 24 24"><g fill="none"><path d="M14.5 5v14l-7-7z"/><path stroke="currentColor" stroke-linecap="square" stroke-width="2" d="M14.5 5v14l-7-7z"/></g></symbol><symbol id="hd-icon-tdesign-caret-left-small" viewBox="0 0 24 24"><path fill="currentColor" d="M14.5 6.5v11L9 12z"/></symbol><symbol id="hd-icon-tdesign-caret-right" viewBox="0 0 24 24"><g fill="none"><path d="m16.5 12l-7-7v14z"/><path stroke="currentColor" stroke-linecap="square" stroke-width="2" d="m16.5 12l-7-7v14z"/></g></symbol><symbol id="hd-icon-tdesign-caret-right-small" viewBox="0 0 24 24"><path fill="currentColor" d="M15 12L9.5 6.5v11z"/></symbol><symbol id="hd-icon-tdesign-caret-up" viewBox="0 0 24 24"><g fill="none"><path d="m12 7.5l7 7H5z"/><path stroke="currentColor" stroke-linecap="square" stroke-width="2" d="m12 7.5l7 7H5z"/></g></symbol><symbol id="hd-icon-tdesign-caret-up-small" viewBox="0 0 24 24"><path fill="currentColor" d="m12 9l5.5 5.5h-11z"/></symbol><symbol id="hd-icon-tdesign-cart" viewBox="0 0 24 24"><path fill="none" stroke="currentColor" stroke-linecap="square" stroke-width="2" d="M1 2h3l3 11l-1 4h15M7 21a1 1 0 1 1-2 0a1 1 0 0 1 2 0Zm14 0a1 1 0 1 1-2 0a1 1 0 0 1 2 0ZM7 13h12l3-9H4.545z"/></symbol><symbol id="hd-icon-tdesign-cart-add" viewBox="0 0 24 24"><path fill="none" stroke="currentColor" stroke-linecap="square" stroke-width="2" d="M1 2h3l3 11m0 0h12l3-9M7 13l-1 4h15M7 21a1 1 0 1 1-2 0a1 1 0 0 1 2 0Zm14 0a1 1 0 1 1-2 0a1 1 0 0 1 2 0ZM13 3v3m0 0v3m0-3h3m-3 0h-3"/></symbol><symbol id="hd-icon-tdesign-cart-add-filled" viewBox="0 0 24 24"><path fill="currentColor" d="M4.764 1H0v2h3.236l2.73 10.011L4.72 18H22v-2H7.28l.5-2h11.94l3.667-11H5.31zM17 9.5h-2.5V12h-2V9.5H10v-2h2.5V5h2v2.5H17zM6 19a2 2 0 1 0 0 4a2 2 0 0 0 0-4m14 0a2 2 0 1 0 0 4a2 2 0 0 0 0-4"/></symbol><symbol id="hd-icon-tdesign-cart-filled" viewBox="0 0 24 24"><path fill="currentColor" d="M0 1h4.764l.545 2h18.078l-3.666 11H7.78l-.5 2H22v2H4.72l1.246-4.989L3.236 3H0zm4 20a2 2 0 1 1 4 0a2 2 0 0 1-4 0m14 0a2 2 0 1 1 4 0a2 2 0 0 1-4 0"/></symbol><symbol id="hd-icon-tdesign-cast" viewBox="0 0 24 24"><g fill="none" stroke="currentColor" stroke-linecap="square" stroke-width="2"><path d="M14 20h8V4H2v4"/><path d="M2 12a8 8 0 0 1 8 8m-8-4a4 4 0 0 1 4 4m-4 0h.004v.004H2z"/></g></symbol><symbol id="hd-icon-tdesign-cast-filled" viewBox="0 0 24 24"><path fill="currentColor" d="M1 3h22v18H13v-.996c0-6.075-4.925-11-11-11h-.996L1 9z"/><path fill="currentColor" d="M1 11h1a9 9 0 0 1 9 9v1H9v-1a7 7 0 0 0-7-7H1z"/><path fill="currentColor" d="M1 15h1a5 5 0 0 1 5 5v1H5v-1a3 3 0 0 0-3-3H1z"/><path fill="currentColor" d="M3.004 19H1v2.004h2.004z"/></symbol><symbol id="hd-icon-tdesign-castle" viewBox="0 0 24 24"><g fill="none"><path d="M6 5h12v16H6z"/><path d="M14 14h-4v7h4zM2 21h4v-6H2zm16 0h4v-6h-4z"/><path d="M14 14h-4v7h4z"/><path stroke="currentColor" stroke-linecap="square" stroke-width="2" d="M2 15v6h4v-6zm0 0v-1m20 1v6h-4v-6zm0 0v-1m-12 0h4v7h-4z"/><path stroke="currentColor" stroke-linecap="square" stroke-width="2" d="M18 5V3m0 2h-4m4 0v16H6V5m0 0V3m0 2h4m0-2v2m0 0h4m0-2v2"/></g></symbol><symbol id="hd-icon-tdesign-castle-1" viewBox="0 0 24 24"><g fill="none"><path d="M17 21h5v-6h-5zM2 21h5v-6H2zM17 5H7v16h10z"/><path stroke="currentColor" stroke-linecap="square" stroke-width="2" d="M22 15v6h-5v-6zm0 0v-1M2 15v6h5v-6zm0 0v-1m10 0v7M10 8.998h.004v.004H10zm4 0h.004v.004H14z"/><path stroke="currentColor" stroke-linecap="square" stroke-width="2" d="M6 3v2h1m3-2v2m0 0h4m-4 0H7m7-2v2m0 0h3m1-2v2h-1M7 5v16h10V5"/></g></symbol><symbol id="hd-icon-tdesign-castle-1-filled" viewBox="0 0 24 24"><path fill="currentColor" d="M7 4V2H5v4h1v8H3v-1H1v9h10v-9h2v9h10v-9h-2v1h-3V6h1V2h-2v2h-2V2h-2v2h-2V2H9v2zm4.004 3.998v2.004H9V7.998zm4 0v2.004H13V7.998z"/></symbol><symbol id="hd-icon-tdesign-castle-2" viewBox="0 0 24 24"><g fill="none"><path d="M12 4a5 5 0 0 1 5 5v12H7V9a5 5 0 0 1 5-5m10 17v-7a4 4 0 0 0-4-4h-1v11zM2 21h5V10H6a4 4 0 0 0-4 4z"/><path stroke="currentColor" stroke-linecap="square" stroke-width="2" d="M12 21v-5m10-2v7h-5V10h1a4 4 0 0 1 4 4ZM7 21H2v-7a4 4 0 0 1 4-4h1zm5-17a5 5 0 0 0-5 5h10a5 5 0 0 0-5-5Zm0 0V3M7 9.85V21h10V9.85"/></g></symbol><symbol id="hd-icon-tdesign-castle-2-filled" viewBox="0 0 24 24"><path fill="currentColor" d="M11 3.083V2h2v1.083c2.838.476 5 2.944 5 5.917a5 5 0 0 1 5 5v8H13v-7h-2v7H1v-8a5 5 0 0 1 5-5a6 6 0 0 1 5-5.917M21 14a3 3 0 0 0-3-3v9h3zM3 20h3v-9a3 3 0 0 0-3 3z"/></symbol><symbol id="hd-icon-tdesign-castle-3" viewBox="0 0 24 24"><g fill="none"><path d="M17 21V11H7v10z"/><path d="M3 21h4V11h2V4H3zm18 0V4h-6v7h2v10z"/><path stroke="currentColor" stroke-linecap="square" stroke-width="2" d="M9 4H3m6 0v7H7v10H3V4m6 0V3M3 4V3m18 1v17h-4V11h-2V4m6 0h-6m6 0V3m-6 1V3m-3 18v-5"/><path stroke="currentColor" stroke-linecap="square" stroke-width="2" d="M17 21V11H7v10z"/></g></symbol><symbol id="hd-icon-tdesign-castle-3-filled" viewBox="0 0 24 24"><path fill="currentColor" d="M20 3V2h2v20h-9v-7h-2v7H2V2h2v1h4V2h2v8h4V2h2v1zM8 5H4v15h2V10h2zm8 5h2v10h2V5h-4z"/></symbol><symbol id="hd-icon-tdesign-castle-4" viewBox="0 0 24 24"><g fill="none"><path d="M12 9a5 5 0 0 1 5 5v7H7v-7a5 5 0 0 1 5-5"/><path d="M21 21V3h-6v7c1.214.912 2 2.364 2 4v7zM3 21h4v-7c0-1.636.786-3.088 2-4V3H3z"/><path stroke="currentColor" stroke-linecap="square" stroke-width="2" d="M12 21v-2.657M3 21h4v-7c0-1.636.786-3.088 2-4V3H3zM21 3v18h-4v-7a5 5 0 0 0-2-4V3z"/><path stroke="currentColor" stroke-linecap="square" stroke-width="2" d="M17 14.8V21H7v-6.2M12 9a5 5 0 0 1 5 5H7a5 5 0 0 1 5-5Zm0 0V8"/></g></symbol><symbol id="hd-icon-tdesign-castle-4-filled" viewBox="0 0 24 24"><path fill="currentColor" d="M14 2h8v20h-9v-5h-2v5H2V2h8v6.342q.483-.172 1-.259V7h2v1.083q.517.088 1 .259zM6 14c0-1.778.774-3.374 2-4.472V4H4v16h2zm10-4.472A6 6 0 0 1 18 14v6h2V4h-4zM8.126 13h7.748a4.004 4.004 0 0 0-6.273-2.2A4 4 0 0 0 8.126 13"/></symbol><symbol id="hd-icon-tdesign-castle-5" viewBox="0 0 24 24"><g fill="none"><path d="M17 21V11h-2l-3-2l-3 2H7v10z"/><path d="M3 21h4V11h2V4H3zm18 0V4h-6v7h2v10z"/><path stroke="currentColor" stroke-linecap="square" stroke-width="2" d="M21 4v17h-4m4-17h-6m6 0V3m-6 1v6.5M15 4V3M7 21H3V4m6 0H3m6 0v6.5M9 4V3M3 4V3m9 18v-5m5 5V11h-2l-3-2l-3 2H7v10z"/></g></symbol><symbol id="hd-icon-tdesign-castle-5-filled" viewBox="0 0 24 24"><path fill="currentColor" d="M20 3V2h2v20h-9v-7h-2v7H2V2h2v1h4V2h2v7.131l2-1.333l2 1.333V2h2v1zM8 5H4v15h2V10h2zm8 5h2v10h2V5h-4z"/></symbol><symbol id="hd-icon-tdesign-castle-6" viewBox="0 0 24 24"><g fill="none"><path d="M16 9h5v12H3V9h5V3h8z"/><path d="M18 13a3 3 0 0 1 3 3v5H3v-5a3 3 0 1 1 6 0a3 3 0 1 1 6 0a3 3 0 0 1 3-3"/><path stroke="currentColor" stroke-linecap="square" stroke-width="2" d="M12 7v2M9 21v-5m0 5H3v-5a3 3 0 1 1 6 0m0 5h6m-6-5a3 3 0 1 1 6 0m0 5v-5m0 5h6v-5a3 3 0 1 0-6 0"/><path stroke="currentColor" stroke-linecap="square" stroke-width="2" d="M7 3h10M8 9V3h8v6zM3 9h18v12H3z"/></g></symbol><symbol id="hd-icon-tdesign-castle-6-filled" viewBox="0 0 24 24"><path fill="currentColor" d="M6 2h12v2h-1v4h5v4.836A4.64 4.64 0 0 0 19.333 12a4.66 4.66 0 0 0-3.666 1.78A4.66 4.66 0 0 0 12 12a4.66 4.66 0 0 0-3.667 1.78A4.66 4.66 0 0 0 4.667 12c-.992 0-1.911.31-2.667.836V8h5V4H6zm5.02 6h2.002V6.004H11.02zm8.313 6A2.667 2.667 0 0 1 22 16.667V22h-5.333v-5.333A2.667 2.667 0 0 1 19.333 14m-4.666 2.667V22H9.333v-5.333a2.667 2.667 0 1 1 5.334 0m-7.334 0V22H2v-5.333a2.667 2.667 0 1 1 5.333 0"/></symbol><symbol id="hd-icon-tdesign-castle-7" viewBox="0 0 24 24"><g fill="none"><path d="M12 3a5 5 0 0 1 5 5v1h4v12H3V9h4V8a5 5 0 0 1 5-5"/><path d="M18 13a3 3 0 0 1 3 3v5H3v-5a3 3 0 1 1 6 0a3 3 0 1 1 6 0a3 3 0 0 1 3-3"/><path stroke="currentColor" stroke-linecap="square" stroke-width="2" d="M9 21v-5m0 5H3v-5a3 3 0 1 1 6 0m0 5h6m-6-5a3 3 0 1 1 6 0m0 5v-5m0 5h6v-5a3 3 0 1 0-6 0"/><path stroke="currentColor" stroke-linecap="square" stroke-width="2" d="M12 3a5 5 0 0 1 5 5v1H7V8a5 5 0 0 1 5-5Zm0 0V2M3 9h18v12H3z"/></g></symbol><symbol id="hd-icon-tdesign-castle-7-filled" viewBox="0 0 24 24"><path fill="currentColor" d="M13 1v1.083c2.838.476 5 2.944 5 5.917H6a6 6 0 0 1 5-5.917V1zm9 7H2v4.836A4.64 4.64 0 0 1 4.667 12c1.487 0 2.812.696 3.666 1.78A4.66 4.66 0 0 1 12 12a4.66 4.66 0 0 1 3.667 1.78A4.66 4.66 0 0 1 19.333 12c.992 0 1.911.31 2.667.836zm0 8.663a2.667 2.667 0 0 0-5.333.004V22H22zM14.667 22v-5.333a2.667 2.667 0 1 0-5.334 0V22zm-7.334 0v-5.333a2.667 2.667 0 1 0-5.333 0V22z"/></symbol><symbol id="hd-icon-tdesign-castle-filled" viewBox="0 0 24 24"><path fill="currentColor" d="M7 2v2h2V2h2v2h2V2h2v2h2V2h2v12h2v-1h2v9h-7.5v-8h-7v8H1v-9h2v1h2V2z"/><path fill="currentColor" d="M13.5 22v-6h-3v6z"/></symbol><symbol id="hd-icon-tdesign-cat" viewBox="0 0 24 24"><g fill="none"><path d="M12 22c5.523 0 10-4.334 10-9.68V2l-5.556 1.645A10.2 10.2 0 0 0 12 2.639c-1.597 0-3.106.362-4.444 1.006L2 2v10.32C2 17.665 6.477 22 12 22"/><path stroke="currentColor" stroke-linecap="square" stroke-width="2" d="M22 11.714V2l-4.861 1.44M2 11.713V2l4.861 1.44M22 12.32C22 17.665 17.523 22 12 22S2 17.666 2 12.32c0-5.347 4.477-9.681 10-9.681s10 4.334 10 9.68Z"/><path stroke="currentColor" stroke-linecap="square" stroke-width="2" d="M8 10v1m8-1v1m-8 4c1 1.5 3 1.5 4-.5c1 2 3 2 4 .5"/></g></symbol><symbol id="hd-icon-tdesign-cat-filled" viewBox="0 0 24 24"><path fill="currentColor" d="M7.48 2.58L1 .66v12.053h.007C1.222 18.458 6.091 23 12 23s10.778-4.542 10.993-10.286H23V.661L16.52 2.58A11.2 11.2 0 0 0 12 1.639c-1.609 0-3.14.336-4.52.94M5.137 3.972A11 11 0 0 0 3 6.177V3.34zM21 3.339v2.838a11 11 0 0 0-2.137-2.205zM9 12H7V9h2zm8 0h-2V9h2zm-4.105 2.053c.378.757.856.985 1.188 1.013c.34.028.759-.131 1.085-.62l.555-.833l1.664 1.11l-.555.832c-.674 1.01-1.755 1.6-2.915 1.504c-.713-.06-1.37-.37-1.917-.885c-.546.515-1.204.826-1.917.885c-1.16.097-2.241-.494-2.915-1.504l-.555-.832l1.664-1.11l.555.832c.326.49.745.65 1.085.621c.332-.028.81-.256 1.189-1.013l.894-1.79z"/></symbol><symbol id="hd-icon-tdesign-catalog" viewBox="0 0 24 24"><g fill="none"><path d="M4 2h16v20H4z"/><path stroke="currentColor" stroke-width="2" d="M4 2h16v20H4z"/><path stroke="currentColor" stroke-linecap="square" stroke-width="2" d="M9 8h6m-6 4h6m-6 4h6"/></g></symbol><symbol id="hd-icon-tdesign-catalog-1" viewBox="0 0 24 24"><path fill="none" stroke="currentColor" stroke-linecap="square" stroke-width="2" d="M3 3h18M8 3v18m8-12H8m8 6H8m8 6.004H8M21 8.996h-.004L19 9h2zm0 6h-.004L19 15h2zM21 21h-.004L19 21.004h2z"/></symbol><symbol id="hd-icon-tdesign-catalog-filled" viewBox="0 0 24 24"><path fill="currentColor" d="M21 1v22H3V1zm-5 6H8v2h8zm0 4H8v2h8zm0 4H8v2h8z"/></symbol><symbol id="hd-icon-tdesign-cd" viewBox="0 0 24 24"><g fill="none"><path d="M22 12c0 5.523-4.477 10-10 10S2 17.523 2 12S6.477 2 12 2s10 4.477 10 10"/><path d="M15 12a3 3 0 1 1-6 0a3 3 0 0 1 6 0"/><path stroke="currentColor" stroke-linecap="square" stroke-width="2" d="M22 12c0 5.523-4.477 10-10 10S2 17.523 2 12S6.477 2 12 2s10 4.477 10 10Z"/><path stroke="currentColor" stroke-linecap="square" stroke-width="2" d="M12 5a7 7 0 0 1 7 7m-4 0a3 3 0 1 1-6 0a3 3 0 0 1 6 0Z"/></g></symbol><symbol id="hd-icon-tdesign-cd-filled" viewBox="0 0 24 24"><path fill="currentColor" d="M1 12C1 5.925 5.925 1 12 1s11 4.925 11 11s-4.925 11-11 11S1 18.075 1 12m14.5 0a3.5 3.5 0 1 0-7 0a3.5 3.5 0 0 0 7 0M12 4.5h-.5v1h.5a6.5 6.5 0 0 1 6.5 6.5v.5h1V12A7.5 7.5 0 0 0 12 4.5"/></symbol><symbol id="hd-icon-tdesign-celsius" viewBox="0 0 24 24"><path fill="none" stroke="currentColor" stroke-width="2" d="M20 19h-7a1 1 0 0 1-1-1V6a1 1 0 0 1 1-1h7M8 6.5a1.5 1.5 0 1 1-3 0a1.5 1.5 0 0 1 3 0Z"/></symbol><symbol id="hd-icon-tdesign-center-focus-strong" viewBox="0 0 24 24"><g fill="none"><circle cx="12" cy="12" r="3"/><path stroke="currentColor" stroke-linecap="square" stroke-width="2" d="M8 3H3v5m13-5h5v5M8 21H3v-5m13 5h5v-5"/><circle cx="12" cy="12" r="3" stroke="currentColor" stroke-width="2"/></g></symbol><symbol id="hd-icon-tdesign-center-focus-strong-filled" viewBox="0 0 24 24"><path fill="currentColor" d="M2 2h7v2H4v5H2zm13 0h7v7h-2V4h-5zM8 12a4 4 0 1 1 8 0a4 4 0 0 1-8 0m-4 3v5h5v2H2v-7zm18 0v7h-7v-2h5v-5z"/></symbol><symbol id="hd-icon-tdesign-centimeter" viewBox="0 0 24 24"><path fill="none" stroke="currentColor" stroke-linecap="square" stroke-width="2" d="M9 19H3a1 1 0 0 1-1-1V6a1 1 0 0 1 1-1h6m13 14V6a1 1 0 0 0-1-1h-4m0 0v14m0-14h-5v14"/></symbol><symbol id="hd-icon-tdesign-certificate" viewBox="0 0 24 24"><g fill="none"><path d="M22 4v16H2V4z"/><path d="M18 4h-4v5.5L16 8l2 1.5z"/><path stroke="currentColor" stroke-linecap="square" stroke-width="2" d="M6 12h4m-4 4h12M14 4h4v5.5L16 8l-2 1.5z"/><path stroke="currentColor" stroke-linecap="square" stroke-width="2" d="M22 4v16H2V4z"/></g></symbol><symbol id="hd-icon-tdesign-certificate-1" viewBox="0 0 24 24"><g fill="none"><path d="M4 2v20h16V2z"/><path d="M8 2h4v5.5L10 6L8 7.5z"/><path stroke="currentColor" stroke-linecap="square" stroke-width="2" d="M8 13h8m-8 4h6M12 2H8v5.5L10 6l2 1.5z"/><path stroke="currentColor" stroke-linecap="square" stroke-width="2" d="M4 2v20h16V2z"/></g></symbol><symbol id="hd-icon-tdesign-certificate-1-filled" viewBox="0 0 24 24"><path fill="currentColor" d="M21 1v22H3V1zm-4 12H7v2h10zm-2 4H7v2h8zM11 3H7v5.5l2-1.65l2 1.65z"/></symbol><symbol id="hd-icon-tdesign-certificate-filled" viewBox="0 0 24 24"><path fill="currentColor" d="M1 3h22v18H1zm4 8v2h6v-2zm0 4v2h14v-2zm11.502-6.312L19 10.75V5h-4.996v5.75z"/></symbol><symbol id="hd-icon-tdesign-chart" viewBox="0 0 24 24"><g fill="none"><path d="M3 3h18v18H3z"/><path stroke="currentColor" stroke-linecap="square" stroke-width="2" d="M3 3h18v18H3zm4 9v5m5-9v9m5-3v3"/></g></symbol><symbol id="hd-icon-tdesign-chart-3d" viewBox="0 0 24 24"><g fill="none"><path d="M20.66 7L12 2L3.34 7v10L12 22l8.66-5z"/><path stroke="currentColor" stroke-linecap="square" stroke-width="2" d="M12 20.95v-8.2m7.751-5.225L12.001 12L4.248 7.525M20.66 7L12 2L3.34 7v10L12 22l8.66-5zM12 6v2m3.464 6l1.732 1m-8.66-1l-1.732 1"/></g></symbol><symbol id="hd-icon-tdesign-chart-3d-filled" viewBox="0 0 24 24"><path fill="currentColor" d="M20.665 5.847L12 .845L3.338 5.847L12 10.846zM13 3.93v4h-2v-4zm8.66 3.652L13 12.578v10l8.66-5zm-5.634 5.587l3.464 2l-1 1.732l-3.464-2zM11 22.577v-10L2.34 7.58v9.997zM8.975 14.9l-3.464 2l-1-1.732l3.464-2z"/></symbol><symbol id="hd-icon-tdesign-chart-add" viewBox="0 0 24 24"><path fill="none" stroke="currentColor" stroke-linecap="square" stroke-width="2" d="M21 11v10H3V3h9m-5 9v5m5-8v8m5-3v3m2-16v3m0 0v3m0-3h-3m3 0h3"/></symbol><symbol id="hd-icon-tdesign-chart-add-filled" viewBox="0 0 24 24"><path fill="currentColor" d="M20 3V0h-2v3h-3v2h3v3h2V5h3V3z"/><path fill="currentColor" d="M13.5 4c0-.706.132-1.38.374-2H2v20h20V8.61A5.5 5.5 0 0 1 13.5 4M13 18h-2V8h2zm-5 0H6v-7h2zm8 0v-5h2v5z"/></symbol><symbol id="hd-icon-tdesign-chart-analytics" viewBox="0 0 24 24"><g fill="none" stroke="currentColor" stroke-linecap="square" stroke-width="2"><path d="M21 21H3V3"/><path d="m6 14l5-5l4 4c.42-.421 1.549-1.547 2.715-2.71m1.592-1.588l1.697-1.692zm0 0l-.004.004m0 0l-1.588 1.584m1.588-1.584l-1.588 1.584M17 7h4v4"/></g></symbol><symbol id="hd-icon-tdesign-chart-area" viewBox="0 0 24 24"><g fill="none"><path d="m12.5 7.5l-5.5 5v4.71h13V6.5L15.5 11z"/><path stroke="currentColor" stroke-linecap="square" stroke-width="2" d="M21 21H3V3"/><path stroke="currentColor" stroke-linecap="square" stroke-width="2" d="m12.5 7.5l-5.5 5v4.71h13V6.5L15.5 11z"/></g></symbol><symbol id="hd-icon-tdesign-chart-area-filled" viewBox="0 0 24 24"><path fill="currentColor" d="M4 2v18h18v2H2V2zm17 2.086V18.21H6v-6.152l6.59-5.99l2.967 3.461z"/></symbol><symbol id="hd-icon-tdesign-chart-area-multi" viewBox="0 0 24 24"><g fill="none"><path d="M20 17.21H7V16l5.326-4.826l3 3.5L20 10z"/><path stroke="currentColor" stroke-linecap="square" stroke-width="2" d="M21 21H3V3"/><path stroke="currentColor" stroke-linecap="square" stroke-width="2" d="M20 10v7.21H7V16l5.326-4.826l3 3.5zm0 0v.5m-13 2l5.5-5l3 3.5L20 6.5V10l-4.674 4.674l-3-3.5L7 16z"/></g></symbol><symbol id="hd-icon-tdesign-chart-area-multi-filled" viewBox="0 0 24 24"><path fill="currentColor" d="M4 20V2H2v20h20v-2z"/><path fill="currentColor" d="M21 18.21V8.586l-5.617 5.617l-2.967-3.46L6 16.557v1.653z"/><path fill="currentColor" d="M6 14.761V12.06l6.59-5.99l2.967 3.46L21 4.086V6.91l-5.558 5.558l-3.031-3.535z"/></symbol><symbol id="hd-icon-tdesign-chart-bar" viewBox="0 0 24 24"><defs><path id="hd-icon-tdesign-chart-bar-562" d="M7 10h4v11H7zm8-4h4v15h-4z"/></defs><g fill="none"><use href="#hd-icon-tdesign-chart-bar-562"/><use href="#hd-icon-tdesign-chart-bar-562" stroke="currentColor" stroke-linecap="square" stroke-width="2"/><path stroke="currentColor" stroke-linecap="square" stroke-width="2" d="M21 21H3V3"/></g></symbol><symbol id="hd-icon-tdesign-chart-bar-filled" viewBox="0 0 24 24"><path fill="currentColor" d="M4 2v18h3V9h5v11h3V5h5v15h2v2H2V2z"/></symbol><symbol id="hd-icon-tdesign-chart-bubble" viewBox="0 0 24 24"><g fill="none"><path d="M13 14a3 3 0 1 1-6 0a3 3 0 0 1 6 0m5-8a2 2 0 1 1-4 0a2 2 0 0 1 4 0m2 8a1 1 0 1 1-2 0a1 1 0 0 1 2 0"/><path stroke="currentColor" stroke-linecap="square" stroke-width="2" d="M21 21H3V3"/><path stroke="currentColor" stroke-linecap="square" stroke-width="2" d="M18 6a2 2 0 1 1-4 0a2 2 0 0 1 4 0Zm1 9a1 1 0 1 1 0-2a1 1 0 0 1 0 2Zm-6-1a3 3 0 1 1-6 0a3 3 0 0 1 6 0Z"/></g></symbol><symbol id="hd-icon-tdesign-chart-bubble-filled" viewBox="0 0 24 24"><path fill="currentColor" d="M4 2v18h18v2H2V2zm9 4a3 3 0 1 1 6 0a3 3 0 0 1-6 0m-7 8a4 4 0 1 1 8 0a4 4 0 0 1-8 0m11 0a2 2 0 1 1 4 0a2 2 0 0 1-4 0"/></symbol><symbol id="hd-icon-tdesign-chart-column" viewBox="0 0 24 24"><defs><path id="hd-icon-tdesign-chart-column-563" d="M18 9V5H3v4zm-4 8v-4H3v4z"/></defs><g fill="none"><use href="#hd-icon-tdesign-chart-column-563"/><use href="#hd-icon-tdesign-chart-column-563" stroke="currentColor" stroke-linecap="square" stroke-width="2"/><path stroke="currentColor" stroke-linecap="square" stroke-width="2" d="M3 3v18h18"/></g></symbol><symbol id="hd-icon-tdesign-chart-column-filled" viewBox="0 0 24 24"><path fill="currentColor" d="M22 20H4v-3h11v-5H4V9h15V4H4V2H2v20h20z"/></symbol><symbol id="hd-icon-tdesign-chart-combo" viewBox="0 0 24 24"><g fill="none"><path d="M15 12h4v9h-4zm-8 3h4v6H7z"/><path stroke="currentColor" stroke-linecap="square" stroke-width="2" d="M19.832 8.3L16.67 5.138l-6.782 6.74l-3.182-3.183M15 12h4v9h-4zm-8 3h4v6H7z"/><path stroke="currentColor" stroke-linecap="square" stroke-width="2" d="M21 21H3V3"/></g></symbol><symbol id="hd-icon-tdesign-chart-combo-filled" viewBox="0 0 24 24"><path fill="currentColor" d="M4 2v18h3v-6h5v6h3v-9h5v9h2v2H2V2zm12.673 1.727L21.246 8.3l-1.414 1.414l-3.163-3.163l-6.782 6.74l-4.594-4.594l1.414-1.415l3.184 3.185z"/></symbol><symbol id="hd-icon-tdesign-chart-draw-io" viewBox="0 0 24 24"><g fill="none"><path d="M9 6a3 3 0 1 1-6 0a3 3 0 0 1 6 0m6 11h6v4h-6zm0-7h6v4h-6z"/><path stroke="currentColor" stroke-linecap="square" stroke-width="2" d="M6 9v10h9M6 9a3 3 0 1 0 0-6a3 3 0 0 0 0 6Zm0 3h9m0 5h6v4h-6zm0-7h6v4h-6z"/></g></symbol><symbol id="hd-icon-tdesign-chart-draw-io-filled" viewBox="0 0 24 24"><path fill="currentColor" d="M6 1.5a3.5 3.5 0 0 1 1 6.854V10h7V8h8v6h-8v-2H7v6h7v-2h8v6h-8v-2H5V8.354A3.5 3.5 0 0 1 6 1.5"/></symbol><symbol id="hd-icon-tdesign-chart-filled" viewBox="0 0 24 24"><path fill="currentColor" d="M22 2H2v20h20zm-9 16h-2V7h2zm-5 0H6v-7h2zm8 0v-5h2v5z"/></symbol><symbol id="hd-icon-tdesign-chart-line" viewBox="0 0 24 24"><g fill="none" stroke="currentColor" stroke-linecap="square" stroke-width="2"><path d="M21 21H3V3"/><path d="m20.5 8l-5 5l-4-4l-5 5"/></g></symbol><symbol id="hd-icon-tdesign-chart-line-board" viewBox="0 0 24 24"><g fill="none"><path d="M22 3H2v14h20z"/><path stroke="currentColor" stroke-linecap="square" stroke-width="2" d="m17 8l-3.571 3.333l-2.858-2.666L7 12"/><path stroke="currentColor" stroke-linecap="square" stroke-width="2" d="M4 21h16M2 3h20v14H2z"/></g></symbol><symbol id="hd-icon-tdesign-chart-line-board-filled" viewBox="0 0 24 24"><path fill="currentColor" d="M21 22H3v-2h18zm2-4H1V2h22zM16.317 7.269l-2.89 2.696l-2.173-2.03l-.683-.636l-.682.637l-3.572 3.333l-.73.682l1.364 1.462l.732-.682l2.888-2.697l2.175 2.03l.683.637l.682-.636l3.572-3.334l.73-.682l-1.364-1.462z"/></symbol><symbol id="hd-icon-tdesign-chart-line-data" viewBox="0 0 24 24"><g fill="none"><path d="M21 7.5a1.5 1.5 0 1 1-3 0a1.5 1.5 0 0 1 3 0M8.25 15.798a1.5 1.5 0 1 1-1.5-2.598a1.5 1.5 0 0 1 1.5 2.598"/><path stroke="currentColor" stroke-linecap="square" stroke-width="2" d="M21 21H3V3"/><path stroke="currentColor" stroke-linecap="square" stroke-width="2" d="m8.8 13.75l9.4-5.49M21 7.5a1.5 1.5 0 1 1-3 0a1.5 1.5 0 0 1 3 0ZM8.25 15.798a1.5 1.5 0 1 1-1.5-2.598a1.5 1.5 0 0 1 1.5 2.598Z"/></g></symbol><symbol id="hd-icon-tdesign-chart-line-data-1" viewBox="0 0 24 24"><g fill="none" stroke="currentColor" stroke-linecap="square" stroke-width="2"><path d="M21 21H3V3"/><path d="M6.228 13.447s2.727-5.376 5.25-4.661c2.521.715 1.543 3.742 4.032 4.478c2.49.737 5.234-4.648 5.234-4.648"/></g></symbol><symbol id="hd-icon-tdesign-chart-line-multi" viewBox="0 0 24 24"><g fill="none" stroke="currentColor" stroke-linecap="square" stroke-width="2"><path d="M21 21H3V3"/><path d="m20.5 5.5l-5 5l-4-4l-5 5m14-1l-5 5l-4-4l-5 5"/></g></symbol><symbol id="hd-icon-tdesign-chart-maximum" viewBox="0 0 24 24"><g fill="none" stroke="currentColor" stroke-linecap="square" stroke-width="2"><path d="M21 21H3V3"/><path d="M7 16.998c0-3.987.996-9.994 6-9.998s6 6.015 6 10.004M6.998 3.998h.004v.004h-.004zm3 0h.004v.004h-.004zm3 0h.004v.004h-.004zm3 0h.004v.004h-.004zm3 0h.004v.004h-.004z"/></g></symbol><symbol id="hd-icon-tdesign-chart-median" viewBox="0 0 24 24"><g fill="none" stroke="currentColor" stroke-linecap="square" stroke-width="2"><path d="M21 21H3V3"/><path d="M19 6.5c0-1.71-1.343-3.096-3-3.096S13 4.79 13 6.5v2m-6 6.07C7 16.465 8.343 18 10 18s3-1.535 3-3.429V12.5m3-1.998h-.004v-.004H16zm3.004 0H19v-.004h.004zm-9.004 0h-.004v-.004H10zM7.004 10.5H7v-.004h.004zm6 .002H13v-.004h.004z"/></g></symbol><symbol id="hd-icon-tdesign-chart-minimum" viewBox="0 0 24 24"><g fill="none" stroke="currentColor" stroke-linecap="square" stroke-width="2"><path d="M21 21H3V3"/><path d="M7 4.006c0 3.986.996 9.994 6 9.998S19 7.988 19 4M6.998 16.998h.004v.004h-.004zm3 0h.004v.004h-.004zm3 0h.004v.004h-.004zm3 0h.004v.004h-.004zm3 0h.004v.004h-.004z"/></g></symbol><symbol id="hd-icon-tdesign-chart-pie" viewBox="0 0 24 24"><g fill="none"><path d="M22 12c0 5.523-4.477 10-10 10S2 17.523 2 12S6.477 2 12 2s10 4.477 10 10"/><path d="M22 12c0-5.523-4.477-10-10-10v10z"/><path stroke="currentColor" stroke-width="2" d="M22 12c0 5.523-4.477 10-10 10S2 17.523 2 12S6.477 2 12 2s10 4.477 10 10Z"/><path stroke="currentColor" stroke-width="2" d="M22 12c0-5.523-4.477-10-10-10v10z"/></g></symbol><symbol id="hd-icon-tdesign-chart-pie-filled" viewBox="0 0 24 24"><path fill="currentColor" d="M13 1.045V11h9.955A11 11 0 0 0 13 1.045"/><path fill="currentColor" d="M11 1.045V13h11.955C22.45 18.607 17.738 23 12 23C5.925 23 1 18.075 1 12C1 6.262 5.394 1.55 11 1.045"/></symbol><symbol id="hd-icon-tdesign-chart-radar" viewBox="0 0 24 24"><g fill="none"><path d="m12 2l10.01 7.273l-3.823 11.767H5.814L1.99 9.273z"/><path stroke="currentColor" stroke-linecap="square" stroke-width="2" d="m12 2l10.01 7.273M12 2L1.99 9.273M12 2v10.525m10.01-3.252L18.187 21.04M22.01 9.273L12 12.525m6.187 8.515H5.814m12.373 0L12 12.525M5.814 21.04L1.99 9.273M5.814 21.04L12 12.525M1.99 9.273L12 12.525"/></g></symbol><symbol id="hd-icon-tdesign-chart-radar-filled" viewBox="0 0 24 24"><path fill="currentColor" d="M11.001 1.49L1.815 8.164L11 11.15zm-9.805 8.576l3.51 10.8l5.677-7.815zM6.324 22.04h11.354l-5.677-7.813zm12.971-1.176l3.508-10.797l-9.184 2.984zm2.891-12.699L13 1.492v9.657z"/></symbol><symbol id="hd-icon-tdesign-chart-radial" viewBox="0 0 24 24"><path fill="none" stroke="currentColor" stroke-linecap="square" stroke-width="2" d="M22 12c0 5.523-4.477 10-10 10S2 17.523 2 12S6.477 2 12 2m0 4a6 6 0 1 0 4.218 1.733M14 12a2 2 0 1 1-2-2"/></symbol><symbol id="hd-icon-tdesign-chart-ring" viewBox="0 0 24 24"><g fill="none"><path d="M12 2c5.523 0 10 4.477 10 10s-4.477 10-10 10S2 17.523 2 12S6.477 2 12 2m0 5a5 5 0 1 0 0 10a5 5 0 0 0 0-10" clip-rule="evenodd"/><path d="M17 12a5 5 0 0 0-5-5V2c5.523 0 10 4.477 10 10zm5 0h-5a4.98 4.98 0 0 1-1.454 3.525l3.536 3.536A9.97 9.97 0 0 0 22 12"/><path stroke="currentColor" stroke-width="2" d="M17 12a5 5 0 0 0-5-5m5 5h5m-5 0a4.98 4.98 0 0 1-1.454 3.525M12 7a5 5 0 1 0 3.546 8.525M12 7V2m10 10c0-5.523-4.477-10-10-10m10 10a9.97 9.97 0 0 1-2.918 7.06M12 2C6.477 2 2 6.477 2 12s4.477 10 10 10a9.97 9.97 0 0 0 7.082-2.94m-3.536-3.535l3.536 3.536"/></g></symbol><symbol id="hd-icon-tdesign-chart-ring-1" viewBox="0 0 24 24"><g fill="none"><path d="M16.9 10.998a5 5 0 1 1-9.797 2.006a5 5 0 0 1 9.796-2.006"/><path stroke="currentColor" stroke-linecap="square" stroke-width="2" d="M9.994 2.204c-5.41 1.108-8.898 6.393-7.79 11.803s6.393 8.899 11.803 7.79a10 10 0 0 0 7.84-8.04M14.08 2.217c3.77.803 6.894 3.76 7.717 7.777"/><path stroke="currentColor" stroke-linecap="square" stroke-width="2" d="M16.9 10.998a5 5 0 1 1-9.797 2.006a5 5 0 0 1 9.796-2.006Z"/></g></symbol><symbol id="hd-icon-tdesign-chart-ring-1-filled" viewBox="0 0 24 24"><path fill="currentColor" d="M3.184 13.807a9 9 0 0 1 7.011-10.623l.98-.2l-.401-1.96l-.98.2C3.842 2.445.006 8.258 1.224 14.209c1.22 5.952 7.033 9.788 12.985 8.57c4.546-.932 7.855-4.543 8.624-8.845l.176-.985l-1.97-.351l-.175.984a9 9 0 0 1-7.057 7.237a9 9 0 0 1-10.623-7.011"/><path fill="currentColor" d="m14.289 1.239l-.979-.209l-.416 1.956l.978.209a9 9 0 0 1 6.946 7l.2.98l1.96-.402l-.2-.98a11 11 0 0 0-8.49-8.554M12.001 17a5 5 0 1 0 0-10a5 5 0 0 0 0 10"/></symbol><symbol id="hd-icon-tdesign-chart-ring-filled" viewBox="0 0 24 24"><path fill="currentColor" d="M13 1.045v6.567A4.51 4.51 0 0 1 16.389 11h6.566A11 11 0 0 0 13 1.045m10 10.85v.21zM22.955 13H16.39a4.5 4.5 0 0 1-.58 1.396l4.644 4.643A10.95 10.95 0 0 0 22.955 13m-3.105 6.706l-.144.144z"/><path fill="currentColor" d="m19.039 20.454l-4.644-4.644A4.5 4.5 0 1 1 11 7.612V1.045C5.393 1.55 1 6.262 1 12c0 6.075 4.925 11 11 11c2.677 0 5.131-.956 7.039-2.547"/></symbol><symbol id="hd-icon-tdesign-chart-scatter" viewBox="0 0 24 24"><g fill="none" stroke="currentColor" stroke-linecap="square" stroke-width="2"><path d="M21 21H3V3m16 4a1 1 0 1 1 0-2a1 1 0 0 1 0 2Zm-7.002-1h.004v.004h-.004z"/><path d="M6.998 9h.004v.004h-.004zM11 14a1 1 0 1 1 0-2a1 1 0 0 1 0 2Zm4.998-3h.004v.004h-.004zm2 5h.004v.004h-.004zm-11 1h.004v.004h-.004z"/></g></symbol><symbol id="hd-icon-tdesign-chart-stacked" viewBox="0 0 24 24"><g fill="none"><path d="M7 21h4v-5.5H7zm8 0h4v-5.5h-4z"/><path stroke="currentColor" stroke-linecap="square" stroke-width="2" d="M19 21h-4m4 0V6h-4v15m4 0v-5.5h-4V21m-4 0H7m4 0V10H7v11m4 0v-5.5H7V21"/><path stroke="currentColor" stroke-linecap="square" stroke-width="2" d="M21 21H3V3"/></g></symbol></svg>