<svg xmlns="http://www.w3.org/2000/svg" xmlns:xlink="http://www.w3.org/1999/xlink"><symbol id="hd-icon-tdesign-sausage-filled" viewBox="0 0 24 24"><path fill="currentColor" d="M19.998 2.003v1.996h2.004v2h-1.257a4.22 4.22 0 0 1-1.04 4.268l-9.44 9.44a4.22 4.22 0 0 1-4.267 1.04V22h-2v-2H2.002v-2h1.249a4.22 4.22 0 0 1 1.04-4.269l9.44-9.44a4.22 4.22 0 0 1 4.267-1.04v-1.25z"/></symbol><symbol id="hd-icon-tdesign-save" viewBox="0 0 24 24"><defs><path id="hd-icon-tdesign-save-586" d="M12 3H7v4h5zM7 21h10v-6H7z"/></defs><g fill="none"><path d="M3 3h13l5 5v13H3z"/><use href="#hd-icon-tdesign-save-586"/><use href="#hd-icon-tdesign-save-586" stroke="currentColor" stroke-width="2"/><path stroke="currentColor" stroke-width="2" d="M3 3h13l5 5v13H3z"/></g></symbol><symbol id="hd-icon-tdesign-save-filled" viewBox="0 0 24 24"><path fill="currentColor" d="M8 2v2h3V2z"/><path fill="currentColor" d="M6 2v4h7V2h3.414L22 7.586V22h-4v-7H6v7H2V2z"/><path fill="currentColor" d="M8 22h8v-5H8z"/></symbol><symbol id="hd-icon-tdesign-saving-pot" viewBox="0 0 24 24"><g fill="none"><path d="M21 5a4 4 0 1 0-8 0a4 4 0 0 0 8 0"/><path stroke="currentColor" stroke-linecap="square" stroke-width="2" d="M7.786 6.2C6.161 4.413 4.267 4.205 3 4.5L4 7L2.5 9.5H1v6c1.187 1.181 3 2.243 4.274 2.732L6 21.5h4l.444-2h4.112l.444 2h4l.534-2.401A9 9 0 0 0 21.24 6.65M9.378 3.884c1.2-.508 2.444-.799 3.672-.877M17 1a4 4 0 1 1 0 8a4 4 0 0 1 0-8Z"/><path stroke="currentColor" stroke-linecap="square" stroke-width="2" d="M6.5 10.5h.004v-.005H6.5z"/></g></symbol><symbol id="hd-icon-tdesign-saving-pot-filled" viewBox="0 0 24 24"><path fill="currentColor" d="M10.802 22.5H5.198l-.788-3.544C3.09 18.37 1.444 17.353.295 16.21L0 15.916V8.501h1.934l.953-1.59l-1.248-3.12l1.134-.265c1.114-.258 2.57-.193 3.994.592l.02-.011a23 23 0 0 1 .712-.408a15 15 0 0 1 1.504-.741c.457-.185.892-.34 1.314-.468a6.5 6.5 0 0 0 12.25 4.35l.093.16c2.465 4.268 1.425 9.596-2.226 12.657l-.632 2.844h-5.604l-.445-2h-2.506zM4.5 11.5h2.004V9.496H4.5z"/><path fill="currentColor" d="M16.5 0a4.5 4.5 0 1 1 0 9a4.5 4.5 0 0 1 0-9"/></symbol><symbol id="hd-icon-tdesign-scan" viewBox="0 0 24 24"><path fill="none" stroke="currentColor" stroke-linecap="square" stroke-width="2" d="M16 21h5v-5M8 3H3v5m13-5h5v5M8 21H3v-5m18-4H3"/></symbol><symbol id="hd-icon-tdesign-screen-4k" viewBox="0 0 24 24"><g fill="none"><path d="M22 4v16H2V4z"/><path stroke="currentColor" stroke-width="2" d="M22 4v16H2V4z"/><path stroke="currentColor" stroke-linecap="square" stroke-width="2" d="M10 15v-2.571m0 0V9m0 3.429H7a1 1 0 0 1-1-1V9m11 6v-.598a.5.5 0 0 0-.211-.409L14 12.02v-.04l2.789-1.973A.5.5 0 0 0 17 9.598V9m-3 6V9"/></g></symbol><symbol id="hd-icon-tdesign-screen-4k-filled" viewBox="0 0 24 24"><path fill="currentColor" d="M23 3H1v18h22zm-8 7.048l1-.708V8h2v1.598a1.5 1.5 0 0 1-.633 1.225L15.703 12l1.664 1.177A1.5 1.5 0 0 1 18 14.402V16h-2v-1.34l-1-.708V16h-2V8h2zm-8 1.38h2V8h2v8H9v-2.571H7a2 2 0 0 1-2-2V8h2z"/></symbol><symbol id="hd-icon-tdesign-screen-mirroring" viewBox="0 0 24 24"><g fill="none" stroke="currentColor" stroke-linecap="square" stroke-width="2"><path d="M5.5 19H2.001L2 4h20v15h-3.5m-8 2l1.5-1.5l1.5 1.5z"/><path d="M7.5 11.5V8.929c0-.237.224-.429.5-.429h3c.276 0 .5.192.5.429V11.5m-4 0v3m0-3h4m0 0v3m4-6v6m0-6h-1m1 0h1m-1 6h1m-1 0h-1"/></g></symbol><symbol id="hd-icon-tdesign-screen-mirroring-filled" viewBox="0 0 24 24"><path fill="currentColor" d="M15.914 22H8.086L12 18.086zM10.5 8h-2v1h2z"/><path fill="currentColor" d="M23 19.999L16.535 20L12 15.464L7.465 20H1V2.999h22zM8 6c-.678 0-1.5.5-1.5 1.429V14h2v-3h2v3h2V7.429C12.5 6.5 11.678 6 11 6zm5.5 0v2h1v4h-1v2h4v-2h-1V8h1V6z"/></symbol><symbol id="hd-icon-tdesign-screencast" viewBox="0 0 24 24"><g fill="none" stroke="currentColor" stroke-width="2"><path stroke-linecap="square" d="M6 18H2.001L2 3h20v15h-4"/><path stroke-linecap="round" d="m8 21l4-4l4 4z"/></g></symbol><symbol id="hd-icon-tdesign-screencast-filled" viewBox="0 0 24 24"><path fill="currentColor" d="M1 2h22v17h-5.965L12 13.964L6.965 19H1z"/><path fill="currentColor" d="M17.207 22H6.793L12 16.793z"/></symbol><symbol id="hd-icon-tdesign-screenshot" viewBox="0 0 24 24"><g fill="none" stroke="currentColor" stroke-width="2"><path d="M7.807 10h.002l8.202 8.25z"/><path d="M17.714 17.5c1.263 0 2.286 1.007 2.286 2.25S18.977 22 17.714 22c-1.262 0-2.285-1.007-2.285-2.25s1.023-2.25 2.285-2.25ZM16.193 10h-.002L7.99 18.25z"/><path d="M6.286 17.5C5.023 17.5 4 18.507 4 19.75S5.023 22 6.286 22c1.262 0 2.285-1.007 2.285-2.25S7.548 17.5 6.286 17.5Z"/><path stroke-linecap="square" d="M21 15V3H3v12"/></g></symbol><symbol id="hd-icon-tdesign-scroll-bar" viewBox="0 0 24 24"><g fill="none"><path d="M17 3H3v18h14z"/><path stroke="currentColor" stroke-width="2" d="M17 3H3v18h14z"/><path stroke="currentColor" stroke-linecap="square" stroke-width="2" d="M21 21V3"/></g></symbol><symbol id="hd-icon-tdesign-scroll-bar-filled" viewBox="0 0 24 24"><path fill="currentColor" d="M22 2v20h-2V2zM2 2h16v20H2z"/></symbol><symbol id="hd-icon-tdesign-sd-card" viewBox="0 0 24 24"><g fill="none"><path d="M6 2h14v20H4V12l2-2z"/><path stroke="currentColor" stroke-linecap="square" stroke-width="2" d="M6 2h14v20H4V12l2-2zm4 5V6m3 1V6m3 1V6"/></g></symbol><symbol id="hd-icon-tdesign-sd-card-1" viewBox="0 0 24 24"><g fill="none"><path d="M4 21h16V10l-5-7H4z"/><path stroke="currentColor" stroke-linecap="square" stroke-width="2" d="M7 3v3.5M10 3v3.5M13 3v3.5M4 21h16V10l-5-7H4z"/></g></symbol><symbol id="hd-icon-tdesign-sd-card-1-filled" viewBox="0 0 24 24"><path fill="currentColor" d="M15.515 2L21 9.68V22H3V2zM7 4H5v4h2zm3.5 0h-2v4h2zM14 4h-2v4h2z"/></symbol><symbol id="hd-icon-tdesign-sd-card-filled" viewBox="0 0 24 24"><path fill="currentColor" d="M21 1H5v8.586l-2 2V23h18zM11 8H9V5h2zm3 0h-2V5h2zm1 0V5h2v3z"/></symbol><symbol id="hd-icon-tdesign-seal" viewBox="0 0 24 24"><g fill="none"><path d="M16.5 7c0 1.432-.669 3.04-1.711 4.145c-.45.477-.789 1.076-.789 1.731V13a.5.5 0 0 0 .5.5H20a1 1 0 0 1 1 1v4H3v-4a1 1 0 0 1 1-1h5.5a.5.5 0 0 0 .5-.5v-.124c0-.655-.34-1.254-.789-1.73C8.17 10.04 7.5 8.431 7.5 7a4.5 4.5 0 0 1 9 0"/><path stroke="currentColor" stroke-linecap="square" stroke-width="2" d="M16.5 7c0 1.432-.669 3.04-1.711 4.145c-.45.477-.789 1.076-.789 1.731V13a.5.5 0 0 0 .5.5H20a1 1 0 0 1 1 1v4H3v-4a1 1 0 0 1 1-1h5.5a.5.5 0 0 0 .5-.5v-.124c0-.655-.34-1.254-.789-1.73C8.17 10.04 7.5 8.431 7.5 7a4.5 4.5 0 0 1 9 0ZM3 21.5h18"/></g></symbol><symbol id="hd-icon-tdesign-seal-filled" viewBox="0 0 24 24"><path fill="currentColor" d="M2 20.5h20v2H2zM7 7a5 5 0 0 1 10 0c0 1.57-.725 3.297-1.847 4.488q-.245.26-.407.553c-.263.486.202.959.754.959H20a2 2 0 0 1 2 2v4.5H2V15a2 2 0 0 1 2-2h4.5c.552 0 1.017-.473.754-.959a2.7 2.7 0 0 0-.407-.553C7.725 10.298 7 8.57 7 7"/></symbol><symbol id="hd-icon-tdesign-search" viewBox="0 0 24 24"><g fill="none"><path d="M15.803 15.803A7.5 7.5 0 1 1 5.197 5.197a7.5 7.5 0 0 1 10.606 10.606"/><path stroke="currentColor" stroke-linecap="square" stroke-width="2" d="m15.803 15.804l5.303 5.303m-5.303-5.304A7.5 7.5 0 1 1 5.197 5.197a7.5 7.5 0 0 1 10.606 10.606Z"/></g></symbol><symbol id="hd-icon-tdesign-search-error" viewBox="0 0 24 24"><path fill="none" stroke="currentColor" stroke-linecap="square" stroke-width="2" d="M15.803 15.803A7.5 7.5 0 1 0 3 10.503m12.803 5.3l5.304 5.304m-5.304-5.304A7.48 7.48 0 0 1 10.5 18m-8.828-3.328L4.5 17.5m0 0l2.829 2.828M4.5 17.5l-2.828 2.828M4.5 17.5l2.829-2.828"/></symbol><symbol id="hd-icon-tdesign-search-error-filled" viewBox="0 0 24 24"><path fill="currentColor" d="M15.762 17.177a8.47 8.47 0 0 1-4.934 1.817a6.5 6.5 0 0 0-8.772-7.519a8.5 8.5 0 1 1 15.12 4.287l5.345 5.345l-1.415 1.414z"/><path fill="currentColor" d="m8.743 14.672l-1.415-1.415L4.5 16.086l-2.828-2.829l-1.415 1.415L3.086 17.5L.257 20.328l1.415 1.415L4.5 18.914l2.828 2.829l1.415-1.415L5.914 17.5z"/></symbol><symbol id="hd-icon-tdesign-search-filled" viewBox="0 0 24 24"><path fill="currentColor" d="M15.762 17.177A8.501 8.501 0 0 1 4.49 4.49a8.5 8.5 0 0 1 12.686 11.272l5.345 5.345l-1.415 1.414z"/></symbol><symbol id="hd-icon-tdesign-secured" viewBox="0 0 24 24"><g fill="none"><path d="M3 4.65V12c0 7.35 9 10.5 9 10.5s9-3.15 9-10.5V4.65L12 1.5z" clip-rule="evenodd"/><path stroke="currentColor" stroke-linecap="square" stroke-width="2" d="M3 4.65V12c0 7.35 9 10.5 9 10.5s9-3.15 9-10.5V4.65L12 1.5z" clip-rule="evenodd"/><path stroke="currentColor" stroke-linecap="square" stroke-width="2" d="M8.173 11.172L11 14l5.657-5.657"/></g></symbol><symbol id="hd-icon-tdesign-secured-filled" viewBox="0 0 24 24"><path fill="currentColor" d="M22 3.94L12 .44L2 3.94V12c0 4.127 2.534 7.012 4.896 8.803a19.8 19.8 0 0 0 4.65 2.595q.17.064.342.122l.112.04l.114-.04a14 14 0 0 0 .65-.244a19.7 19.7 0 0 0 4.34-2.473C19.467 19.012 22 16.127 22 12zM11.001 15.415L6.76 11.172l1.414-1.415l2.828 2.829l5.657-5.657l1.415 1.414z"/></symbol><symbol id="hd-icon-tdesign-send" viewBox="0 0 24 24"><g fill="none"><path d="M2 3.5L21.5 12L2 20.5L5 12z"/><path stroke="currentColor" stroke-linecap="square" stroke-width="2" d="m5 12l-3 8.5L21.5 12L2 3.5zm0 0h5"/></g></symbol><symbol id="hd-icon-tdesign-send-cancel" viewBox="0 0 24 24"><path fill="none" stroke="currentColor" stroke-linecap="square" stroke-width="2" d="m5 12l-3 8.5l9.75-4.25M5 12L2 3.5L21.5 12l-2.437 1.063M5 12h5m11.668 4l-2.83 2.849m0 0l-2.818 2.817m2.818-2.817l2.819 2.819m-2.82-2.82L16 16.012"/></symbol><symbol id="hd-icon-tdesign-send-cancel-filled" viewBox="0 0 24 24"><path fill="currentColor" d="M24.003 12L.292 1.665L3.587 11H11v2H3.587L.292 22.336l12.57-5.48a6.503 6.503 0 0 1 8.746-3.812z"/><path fill="currentColor" d="m21.83 14.757l-2.828 2.829l-2.828-2.829l-1.414 1.415L17.588 19l-2.828 2.828l1.414 1.415l2.828-2.829l2.829 2.829l1.414-1.415L20.417 19l2.828-2.828z"/></symbol><symbol id="hd-icon-tdesign-send-filled" viewBox="0 0 24 24"><path fill="currentColor" d="M24.003 12L.292 1.665L3.587 11H11v2H3.587L.292 22.336z"/></symbol><symbol id="hd-icon-tdesign-sensors" viewBox="0 0 24 24"><path fill="none" stroke="currentColor" stroke-linecap="square" stroke-width="2" d="M3.55 4.957A10.96 10.96 0 0 0 1 11.999c0 2.68.958 5.135 2.55 7.042m3.84-3.2A5.98 5.98 0 0 1 6 11.998c0-1.461.522-2.8 1.39-3.841M20.45 19.04A10.96 10.96 0 0 0 23 12c0-2.679-.958-5.134-2.55-7.042M16.61 15.84A5.98 5.98 0 0 0 18 12a5.98 5.98 0 0 0-1.39-3.842M11.999 13a1 1 0 1 1 0-2a1 1 0 0 1 0 2Z"/></symbol><symbol id="hd-icon-tdesign-sensors-1" viewBox="0 0 24 24"><g fill="none"><path d="M15 12a3 3 0 1 1-6 0a3 3 0 0 1 6 0"/><path stroke="currentColor" stroke-linecap="square" stroke-width="2" d="M12 15a3 3 0 1 0 0-6a3 3 0 0 0 0 6Zm0 0v4.779M4.222 4.223A10.97 10.97 0 0 0 1 12c0 3.037 1.231 5.787 3.222 7.778M7.05 7.051A6.98 6.98 0 0 0 5 12c0 1.933.784 3.683 2.05 4.95m9.9-9.9A6.98 6.98 0 0 1 19 12a6.98 6.98 0 0 1-2.05 4.95m2.827-12.728A10.97 10.97 0 0 1 23 12c0 3.037-1.231 5.787-3.222 7.778"/></g></symbol><symbol id="hd-icon-tdesign-sensors-2" viewBox="0 0 24 24"><path fill="none" stroke="currentColor" stroke-linecap="square" stroke-width="2" d="M4.929 4.929A9.97 9.97 0 0 0 2 11.999a9.97 9.97 0 0 0 2.929 7.072M7.757 7.757A5.98 5.98 0 0 0 6 12c0 1.656.672 3.156 1.757 4.242M12 10v4m4.242-6.243A5.98 5.98 0 0 1 18 12a5.98 5.98 0 0 1-1.758 4.242m2.83-11.313A9.97 9.97 0 0 1 22 11.999a9.97 9.97 0 0 1-2.929 7.072"/></symbol><symbol id="hd-icon-tdesign-sensors-off" viewBox="0 0 24 24"><path fill="none" stroke="currentColor" stroke-linecap="square" stroke-width="2" d="M16.243 16.243A5.98 5.98 0 0 0 18 12c0-1.461-.522-2.8-1.39-3.841m3.84-3.201A10.96 10.96 0 0 1 23 12c0 3.038-1.231 5.788-3.222 7.778M7.758 7.758A5.98 5.98 0 0 0 6.001 12c0 1.461.522 2.8 1.39 3.841m-3.17-11.62A10.96 10.96 0 0 0 1 12a10.96 10.96 0 0 0 2.55 7.043M12 13a1 1 0 1 1 0-2a1 1 0 0 1 0 2Zm9 8L3 3"/></symbol><symbol id="hd-icon-tdesign-sequence" viewBox="0 0 24 24"><g fill="none"><path d="M3 5h6v4H3zm12 0h6v4h-6z"/><path stroke="currentColor" stroke-linecap="square" stroke-width="2" d="M6 19V9m12 10V9M3 5h6v4H3zm12 0h6v4h-6zm-2.395 13.5L15 16l-2.395-2.5M13.75 16H9"/></g></symbol><symbol id="hd-icon-tdesign-sequence-filled" viewBox="0 0 24 24"><path fill="currentColor" d="M2 4h8v6H7v10H5V10H2zm12 0h8v6h-3v10h-2V10h-3zm-1.364 8.086L16.385 16l-3.75 3.914l-1.444-1.384L12.657 17H8v-2h4.657l-1.466-1.53z"/></symbol><symbol id="hd-icon-tdesign-serenity" viewBox="0 0 24 24"><g fill="none"><path d="M22 12c0 5.523-4.477 10-10 10S2 17.523 2 12S6.477 2 12 2s10 4.477 10 10"/><path stroke="currentColor" stroke-linecap="square" stroke-width="2" d="M22 12c0 5.523-4.477 10-10 10S2 17.523 2 12S6.477 2 12 2s10 4.477 10 10Z"/><path stroke="currentColor" stroke-linecap="square" stroke-width="2" d="M17 10h-2m-6 0H7m1.535 5A4 4 0 0 0 12 17c1.48 0 2.773-.804 3.465-2"/></g></symbol><symbol id="hd-icon-tdesign-serenity-filled" viewBox="0 0 24 24"><path fill="currentColor" d="M12 23C5.925 23 1 18.075 1 12S5.925 1 12 1s11 4.925 11 11s-4.925 11-11 11M10 9H6v2h4zm8 0h-4v2h4zm-8.6 5.5l-.5-.866l-1.731 1.001l.5.866A5 5 0 0 0 12 18a5 5 0 0 0 4.33-2.5l.501-.865l-1.731-1.001l-.5.865A3 3 0 0 1 12 16a3 3 0 0 1-2.6-1.5"/></symbol><symbol id="hd-icon-tdesign-server" viewBox="0 0 24 24"><defs><path id="hd-icon-tdesign-server-587" d="M21 14v7H3v-7zm0-11v7H3V3z"/></defs><g fill="none"><use href="#hd-icon-tdesign-server-587"/><g stroke="currentColor" stroke-linecap="square" stroke-width="2"><use href="#hd-icon-tdesign-server-587"/><path d="M6.5 6.5h.004v.004H6.5zm0 11h.004v.004H6.5z"/></g></g></symbol><symbol id="hd-icon-tdesign-server-filled" viewBox="0 0 24 24"><path fill="currentColor" d="M22 2H2v9h20zM7.004 5.5v2.004H5V5.5zM22 13H2v9h20zM7.004 16.5v2.004H5V16.5z"/></symbol><symbol id="hd-icon-tdesign-service" viewBox="0 0 24 24"><g fill="none"><path d="M3 12h4v6H5c-1.105 0-2-.827-2-1.846zm18 0h-4v6h2c1.105 0 2-.827 2-1.846zm-10.75 9.5a.75.75 0 0 1 .75-.75h2a.75.75 0 0 1 0 1.5h-2a.75.75 0 0 1-.75-.75"/><path stroke="currentColor" stroke-width="2" d="M21 12v-1a9 9 0 1 0-18 0v1m18 0h-4v6h2c1.105 0 2-.827 2-1.846zM3 12h4v6H5m-2-6v4.154C3 17.174 3.895 18 5 18m5.25 3.5H8a3 3 0 0 1-3-3V18m5.25 3.5c0 .414.336.75.75.75h2a.75.75 0 0 0 0-1.5h-2a.75.75 0 0 0-.75.75Z"/></g></symbol><symbol id="hd-icon-tdesign-service-filled" viewBox="0 0 24 24"><path fill="currentColor" d="M2 11C2 5.477 6.477 1 12 1s10 4.477 10 10v5.154C22 17.8 20.58 19 19 19h-3v-8h4a8 8 0 1 0-16 0h4v8H6.063A2 2 0 0 0 8 20.5h1.564c.316-.453.841-.75 1.436-.75h2a1.75 1.75 0 1 1 0 3.5h-2c-.595 0-1.12-.297-1.436-.75H8a4 4 0 0 1-3.986-3.66C2.874 18.463 2 17.446 2 16.155z"/></symbol><symbol id="hd-icon-tdesign-setting" viewBox="0 0 24 24"><g fill="none"><path d="M20.66 7L12 2L3.34 7v10L12 22l8.66-5zM12 16a4 4 0 1 0 0-8a4 4 0 0 0 0 8" clip-rule="evenodd"/><path d="M16 12a4 4 0 1 1-8 0a4 4 0 0 1 8 0"/><path stroke="currentColor" stroke-linecap="square" stroke-width="2" d="m12 2l8.66 5v10L12 22l-8.66-5V7z"/><path stroke="currentColor" stroke-linecap="square" stroke-width="2" d="M16 12a4 4 0 1 1-8 0a4 4 0 0 1 8 0Z"/></g></symbol><symbol id="hd-icon-tdesign-setting-1" viewBox="0 0 24 24"><g fill="none"><path d="M9.408 4.96L10 2h4l.592 2.96c.81.299 1.556.733 2.207 1.276l2.861-.968l2 3.464l-2.268 1.993a7.5 7.5 0 0 1 0 2.55l2.268 1.993l-2 3.464l-2.861-.968a7.5 7.5 0 0 1-2.207 1.276L14 22h-4l-.592-2.96a7.5 7.5 0 0 1-2.207-1.276l-2.861.968l-2-3.464l2.268-1.993a7.6 7.6 0 0 1 0-2.55L2.34 8.732l2-3.464l2.861.968A7.5 7.5 0 0 1 9.408 4.96" clip-rule="evenodd"/><path d="M16 12a4 4 0 1 1-8 0a4 4 0 0 1 8 0"/><path stroke="currentColor" stroke-linecap="square" stroke-width="2" d="M9.408 4.96L10 2h4l.592 2.96c.81.299 1.556.733 2.207 1.276l2.861-.968l2 3.464l-2.268 1.993a7.5 7.5 0 0 1 0 2.55l2.268 1.993l-2 3.464l-2.861-.968a7.5 7.5 0 0 1-2.207 1.276L14 22h-4l-.592-2.96a7.5 7.5 0 0 1-2.207-1.276l-2.861.968l-2-3.464l2.268-1.993a7.6 7.6 0 0 1 0-2.55L2.34 8.732l2-3.464l2.861.968A7.5 7.5 0 0 1 9.408 4.96Z" clip-rule="evenodd"/><path stroke="currentColor" stroke-linecap="square" stroke-width="2" d="M16 12a4 4 0 1 1-8 0a4 4 0 0 1 8 0Z"/></g></symbol><symbol id="hd-icon-tdesign-setting-1-filled" viewBox="0 0 24 24"><path fill="currentColor" d="M14.82 1H9.18l-.647 3.237a8.5 8.5 0 0 0-1.52.88l-3.13-1.059l-2.819 4.884l2.481 2.18a8.6 8.6 0 0 0 0 1.756l-2.481 2.18l2.82 4.884l3.129-1.058c.472.342.98.638 1.52.879L9.18 23h5.64l.647-3.237a8.5 8.5 0 0 0 1.52-.88l3.13 1.059l2.82-4.884l-2.482-2.18a8.6 8.6 0 0 0 0-1.756l2.481-2.18l-2.82-4.884l-3.128 1.058a8.5 8.5 0 0 0-1.52-.879zM12 16a4 4 0 1 1 0-8a4 4 0 0 1 0 8"/></symbol><symbol id="hd-icon-tdesign-setting-filled" viewBox="0 0 24 24"><path fill="currentColor" d="M21.66 6.423L12 .845L2.34 6.423v11.154L12 23.155l9.66-5.578zM12 16a4 4 0 1 1 0-8a4 4 0 0 1 0 8"/></symbol><symbol id="hd-icon-tdesign-share" viewBox="0 0 24 24"><g fill="none"><path d="M19.49 7.097a3 3 0 1 0-3-5.197a3 3 0 0 0 3 5.197m-3 15.002a3 3 0 1 0 3-5.197a3 3 0 0 0-3 5.197M6.5 14.597a3 3 0 1 0-3-5.197a3 3 0 0 0 3 5.197"/><path d="M3.5 14.599a3 3 0 1 0 3-5.197a3 3 0 0 0-3 5.197"/><path stroke="currentColor" stroke-linecap="square" stroke-width="2" d="m7.599 13.501l7.794 4.5m-7.794-7.502l7.794-4.5m0 0a3 3 0 1 1 5.196-3a3 3 0 0 1-5.196 3Zm0 12.002a3 3 0 1 1 5.196 3a3 3 0 0 1-5.196-3Zm-7.794-7.503a3 3 0 1 1-5.197 3a3 3 0 0 1 5.197-3Zm0 3.002a3 3 0 1 1-5.197-3a3 3 0 0 1 5.197 3Z"/></g></symbol><symbol id="hd-icon-tdesign-share-1" viewBox="0 0 24 24"><g fill="none"><path d="m12.5 4l9.5 8l-9.5 8v-5.1c-5 0-8.5 1.6-11 5.1c1-5 4-10 11-11z"/><path stroke="currentColor" stroke-linecap="square" stroke-width="2" d="m12.5 4l9.5 8l-9.5 8v-5.1c-5 0-8.5 1.6-11 5.1c1-5 4-10 11-11z"/></g></symbol><symbol id="hd-icon-tdesign-share-1-filled" viewBox="0 0 24 24"><path fill="currentColor" d="M11.5 1.85L23.553 12L11.5 22.15v-6.227c-4.194.2-7.073 1.7-9.186 4.658L.52 19.804c.523-2.617 1.58-5.295 3.478-7.462c1.761-2.014 4.209-3.543 7.502-4.187z"/></symbol><symbol id="hd-icon-tdesign-share-filled" viewBox="0 0 24 24"><path fill="currentColor" d="M21.5 4.5a3.5 3.5 0 0 1-5.909 2.54l-7.186 4.148a3.5 3.5 0 0 1 0 1.624l7.186 4.149a3.5 3.5 0 1 1-.998 1.733l-7.189-4.15a3.5 3.5 0 1 1 0-5.087l7.19-4.151A3.5 3.5 0 1 1 21.5 4.5"/></symbol><symbol id="hd-icon-tdesign-sharpness" viewBox="0 0 24 24"><g fill="none"><path d="M19.5 3v15.5H4z"/><path stroke="currentColor" stroke-linecap="square" stroke-width="2" d="M19.5 22h-17m17-19v15.5H4z"/></g></symbol><symbol id="hd-icon-tdesign-sharpness-filled" viewBox="0 0 24 24"><path fill="currentColor" d="M20.5.586V19.5H1.587zM20.5 21v2H1.502v-2z"/></symbol><symbol id="hd-icon-tdesign-shield-error" viewBox="0 0 24 24"><g fill="none"><path d="M3 4.65V12c0 7.35 9 10.5 9 10.5s9-3.15 9-10.5V4.65L12 1.5z" clip-rule="evenodd"/><path stroke="currentColor" stroke-linecap="square" stroke-width="2" d="M3 4.65V12c0 7.35 9 10.5 9 10.5s9-3.15 9-10.5V4.65L12 1.5z" clip-rule="evenodd"/><path stroke="currentColor" stroke-linecap="square" stroke-width="2" d="M12 15.5V11m0-3.5h-.004v-.004H12z"/></g></symbol><symbol id="hd-icon-tdesign-shield-error-filled" viewBox="0 0 24 24"><path fill="currentColor" d="M2 12c0 4.127 2.534 7.012 4.896 8.803a19.8 19.8 0 0 0 4.65 2.595q.17.064.342.122l.112.04l.112-.04a13 13 0 0 0 .653-.244a19.8 19.8 0 0 0 4.34-2.473C19.465 19.012 22 16.127 22 12V3.94L12 .44L2 3.94zm11-3.5h-2.004V6.496H13zm-2 8V10h2v6.5z"/></symbol><symbol id="hd-icon-tdesign-shimen" viewBox="0 0 24 24"><defs><path id="hd-icon-tdesign-shimen-588" d="m3.999 21l1-13.7l3 .3l1 13.4zm16 0l-1-13.7c-1.038.105-1.895.2-2.895.3L14.999 21z"/></defs><g fill="none"><path d="m1.999 4.001l10-1l10 1v3l-10 1l-10-1z"/><use href="#hd-icon-tdesign-shimen-588"/><use href="#hd-icon-tdesign-shimen-588" stroke="currentColor" stroke-width="2"/><path stroke="currentColor" stroke-width="2" d="m1.999 4.001l10-1l10 1v3l-10 1l-10-1z"/></g></symbol><symbol id="hd-icon-tdesign-shimen-filled" viewBox="0 0 24 24"><path fill="currentColor" d="m11.998 1.996l11 1.1v4.81l-2.932.293L21.074 22h-7.162l1.096-13.288l-3.01.287l-2.914-.286L10.076 22H2.922L3.93 8.199L.998 7.906v-4.81zM5.921 8.398L5.074 20H7.92L7.063 8.512zm11.11.113L16.084 20h2.838l-.846-11.6z"/></symbol><symbol id="hd-icon-tdesign-shop" viewBox="0 0 24 24"><g fill="none"><path d="M4 8h16v14H4z"/><path stroke="currentColor" stroke-linecap="square" stroke-width="2" d="M15.5 11V5.5a3.5 3.5 0 1 0-7 0V11M4 8h16v14H4z"/></g></symbol><symbol id="hd-icon-tdesign-shop-1" viewBox="0 0 24 24"><g fill="none"><path d="M21 3H3v18h18z"/><path d="M9 6V3H3v3a3 3 0 0 0 6 0m0 0V3h6v3a3 3 0 1 1-6 0m6 0V3h6v3a3 3 0 1 1-6 0m0 8H9v7h6z"/><path stroke="currentColor" stroke-width="2" d="M9 3v3m0-3H3v3a3 3 0 0 0 6 0m0-3h6M9 6a3 3 0 1 0 6 0m0-3v3m0-3h6v3a3 3 0 1 1-6 0m-6 8h6v7H9z"/><path stroke="currentColor" stroke-width="2" d="M21 3H3v18h18z"/></g></symbol><symbol id="hd-icon-tdesign-shop-1-filled" viewBox="0 0 24 24"><path fill="currentColor" d="M22 2H2v3a4 4 0 0 0 7 2.646A4 4 0 0 0 12 9a4 4 0 0 0 3-1.354A4 4 0 0 0 22 5z"/><path fill="currentColor" d="M2 22V9.473A5.98 5.98 0 0 0 6 11a6 6 0 0 0 3-.803c.882.51 1.907.803 3 .803a6 6 0 0 0 3-.803c.882.51 1.907.803 3 .803a5.98 5.98 0 0 0 4-1.527V22h-5.5v-8h-9v8z"/><path fill="currentColor" d="M9.5 16v6h5v-6z"/></symbol><symbol id="hd-icon-tdesign-shop-2" viewBox="0 0 24 24"><g fill="none"><path d="M4 21V10c0-2 2-7 8-7s8 5 8 7v11z"/><path d="M15 21H9v-4a3 3 0 1 1 6 0z"/><path stroke="currentColor" stroke-linecap="square" stroke-width="2" d="M15 21H9v-4a3 3 0 1 1 6 0z"/><path stroke="currentColor" stroke-linecap="square" stroke-width="2" d="M4 10v11h16V10M4 10h16M4 10c0-2 2-7 8-7s8 5 8 7M3 10h18M3 21h18M11.417 3.5C10.227 4.779 9 7.598 9 10m3.583-6.5C13.773 4.779 15 7.598 15 10"/></g></symbol><symbol id="hd-icon-tdesign-shop-2-filled" viewBox="0 0 24 24"><path fill="currentColor" d="M4.982 5.11C6.409 3.397 8.684 2 12 2s5.591 1.397 7.018 3.11c1.06 1.27 1.655 2.72 1.879 3.89H22v2h-1v9h1v2h-5.5v-3.5a4.5 4.5 0 1 0-9 0V22H2v-2h1v-9H2V9h1.103c.224-1.17.82-2.62 1.879-3.89M18.846 9a7 7 0 0 0-1.364-2.61A6.4 6.4 0 0 0 14.4 4.341q.272.481.512 1.011c.493 1.097.887 2.379 1.03 3.648zm-4.92 0a10.7 10.7 0 0 0-.838-2.827a9 9 0 0 0-.868-1.536q-.114-.159-.22-.286q-.106.127-.22.286c-.298.413-.6.939-.868 1.536A10.7 10.7 0 0 0 10.074 9zM8.058 9c.143-1.27.536-2.551 1.03-3.648q.239-.531.512-1.01A6.4 6.4 0 0 0 6.518 6.39A7 7 0 0 0 5.154 9z"/><path fill="currentColor" d="M12 16a2.5 2.5 0 0 0-2.5 2.5V22h5v-3.5A2.5 2.5 0 0 0 12 16"/></symbol><symbol id="hd-icon-tdesign-shop-3" viewBox="0 0 24 24"><defs><path id="hd-icon-tdesign-shop-3-589" d="M15 14H9v7h6zM3 6a3 3 0 0 0 6 0a3 3 0 1 0 6 0a3 3 0 1 0 6 0V3H3z"/></defs><g fill="none"><path d="M3 3h18v18H3z"/><use href="#hd-icon-tdesign-shop-3-589"/><use href="#hd-icon-tdesign-shop-3-589" stroke="currentColor" stroke-width="2"/><path stroke="currentColor" stroke-width="2" d="M3 3h18v18H3z"/></g></symbol><symbol id="hd-icon-tdesign-shop-3-filled" viewBox="0 0 24 24"><path fill="currentColor" d="M2 22V8.625A5.6 5.6 0 0 0 5.375 9.75c1.24 0 2.384-.4 3.313-1.079A5.6 5.6 0 0 0 12 9.75c1.24 0 2.384-.4 3.313-1.079a5.6 5.6 0 0 0 3.312 1.079A5.6 5.6 0 0 0 22 8.625V22h-5.5v-8h-9v8zM5.375 7.75A3.63 3.63 0 0 1 2 5.45V2h20v3.45a3.626 3.626 0 0 1-6.687.15a3.64 3.64 0 0 1-1.397 1.603A3.6 3.6 0 0 1 12 7.75c-.704 0-1.36-.2-1.916-.547A3.64 3.64 0 0 1 8.688 5.6A3.64 3.64 0 0 1 7.29 7.203a3.6 3.6 0 0 1-1.916.547"/><path fill="currentColor" d="M9.5 22v-6h5v6z"/></symbol><symbol id="hd-icon-tdesign-shop-4" viewBox="0 0 24 24"><g fill="none"><path d="M17 3a3 3 0 0 1 3 3v15H4V6a3 3 0 0 1 3-3z"/><path d="M15 21H9v-6a3 3 0 1 1 6 0z"/><path stroke="currentColor" stroke-linecap="square" stroke-width="2" d="M15 21H9v-6a3 3 0 1 1 6 0zM4 8V6a3 3 0 0 1 3-3h2M4 8v13M4 8h5M4 8H3m1 13H3m1 0h16m0-13v13m0-13h-5m5 0V6a3 3 0 0 0-3-3h-2m5 5h1m-1 13h1M9 8h6M9 8V3m6 5V3M9 3h6"/></g></symbol><symbol id="hd-icon-tdesign-shop-4-filled" viewBox="0 0 24 24"><path fill="currentColor" d="M21 7h1v2h-1v11h1v2h-5.5v-5.5a4.5 4.5 0 1 0-9 0V22H2v-2h1V9H2V7h1V6a4 4 0 0 1 4-4h10a4 4 0 0 1 4 4zM7 4a2 2 0 0 0-2 2v1h3V4zm3 0v3h4V4zm6 0v3h3V6a2 2 0 0 0-2-2z"/><path fill="currentColor" d="M12 14a2.5 2.5 0 0 0-2.5 2.5V22h5v-5.5A2.5 2.5 0 0 0 12 14"/></symbol><symbol id="hd-icon-tdesign-shop-5" viewBox="0 0 24 24"><g fill="none"><path d="M20.743 5.23c.17.51.292 1.054.149 1.572a3 3 0 0 1-.739 1.287L20 8.236V21H4V8.236l-.112-.106A3 3 0 0 1 3 6l1-3h16z"/><path d="M15 14H9v7h6z"/><path stroke="currentColor" stroke-width="2" d="M15 14H9v7h6z"/><path stroke="currentColor" stroke-linecap="square" stroke-width="2" d="M15 6a3 3 0 0 0 3 3m-3-3a3 3 0 1 1-6 0m6 0V3m3 6c.672 0 1.293-.221 1.793-.595L20 8.236M18 9c.768 0 1.47-.289 2-.764m0 0V21m0-12.764a3 3 0 0 0 .892-1.434c.143-.518.021-1.062-.149-1.572L20 3h-5m5 18H4m16 0h1M4 21V8.236M4 21H3M4 8.236A3 3 0 0 0 9 6M4 8.236A3 3 0 0 1 3 6l1-3h5m0 3V3m0 0h6"/></g></symbol><symbol id="hd-icon-tdesign-shop-5-filled" viewBox="0 0 24 24"><path fill="currentColor" d="M20.889 2s.043.051.111.147c.281.39 1 1.52 1 2.852c0 .84-.383 1.598-1 2.142A3.52 3.52 0 0 1 18.667 8a3.57 3.57 0 0 1-1.984-.59c-.819-.546-1.35-1.422-1.35-2.41c0 .988-.53 1.864-1.35 2.41c-.554.37-1.24.59-1.983.59a3.57 3.57 0 0 1-1.984-.59c-.819-.546-1.35-1.422-1.35-2.41c0 .988-.53 1.864-1.35 2.41c-.554.37-1.24.59-1.983.59A3.52 3.52 0 0 1 3 7.14C2.383 6.597 2 5.838 2 5c0-1.332.719-2.461 1-2.852c.069-.096.111-.147.111-.147zm-2.222 7.999c.812 0 1.61-.18 2.333-.51v10.507h1V22h-5.5v-8h-9v8H2v-2.004h1V9.49a5.6 5.6 0 0 0 2.333.509c1.21 0 2.392-.4 3.333-1.099A5.63 5.63 0 0 0 12 10c1.21 0 2.392-.4 3.333-1.099A5.63 5.63 0 0 0 18.667 10"/><path fill="currentColor" d="M9.5 22v-6h5v6z"/></symbol><symbol id="hd-icon-tdesign-shop-filled" viewBox="0 0 24 24"><path fill="currentColor" d="M12 1a4.5 4.5 0 0 0-4.5 4.5V7H3v16h18V7h-4.5V5.5A4.5 4.5 0 0 0 12 1m2.5 4.5V7h-5V5.5a2.5 2.5 0 0 1 5 0m-7 6.5V9h2v3zm7 0V9h2v3z"/></symbol><symbol id="hd-icon-tdesign-shortcut" viewBox="0 0 24 24"><path fill="none" stroke="currentColor" stroke-linecap="square" stroke-width="2" d="m14.121 14.121l5.517-5.516c.276-.512.847-2.262-.567-3.676s-3.164-.843-3.676-.567l-.875.876m-4.641 4.64l-5.517 5.517c-.276.512-.847 2.262.567 3.676s3.164.843 3.676.567l.875-.876m4.641-8.883L8.605 4.362c-.512-.276-2.262-.847-3.676.567s-.843 3.164-.567 3.676l.876.875m4.64 4.641l5.517 5.517c.512.276 2.262.847 3.676-.567s.843-3.164.567-3.676l-.876-.875"/></symbol><symbol id="hd-icon-tdesign-shrimp" viewBox="0 0 24 24"><g fill="none"><path d="M10 12c-4.418 0-8-2.582-8-7V4h12a7.9 7.9 0 0 1 5.137 1.867A8.03 8.03 0 0 1 22 12a7.94 7.94 0 0 1-2.867 6.137A8.03 8.03 0 0 1 14 20H7v-1a3 3 0 0 1 3-3h3v-4z"/><path stroke="currentColor" stroke-linecap="square" stroke-width="2" d="M13 12v4m0-4h-3c-4.418 0-8-2.582-8-7V4h11m0 8h8.45M13 12l5.945-5.941M13 12l5.941 5.945M13 4v12m0-12h1a7.9 7.9 0 0 1 5.137 1.867A8.03 8.03 0 0 1 22 12a7.94 7.94 0 0 1-2.867 6.137A8.03 8.03 0 0 1 14 20H7v-1a3 3 0 0 1 3-3h3m0 4v-4M7.998 6.998h.004v.004h-.004z"/></g></symbol><symbol id="hd-icon-tdesign-shrimp-filled" viewBox="0 0 24 24"><path fill="currentColor" d="M12.5 21v-6H9a4 4 0 0 0-4 4v2zm0-18H1v1.375c0 2.283 1.074 4.104 2.757 5.322C5.414 10.897 7.634 11.5 10 11.5h2.5zM8.002 4.998v2.004H5.998V4.998zm6.498 9.417v6.571c1.8-.1 3.468-.736 4.832-1.736zM22.946 13a8.9 8.9 0 0 1-2.14 4.895L15.913 13zm-2.142-6.886A9 9 0 0 1 22.944 11h-7.028zM14.5 9.587l4.838-4.835A8.9 8.9 0 0 0 14.5 3.013z"/></symbol><symbol id="hd-icon-tdesign-shrink-horizontal" viewBox="0 0 24 24"><path fill="none" stroke="currentColor" stroke-linecap="square" stroke-width="2" d="M12 4v16m6.5-11.5L15 12l3.5 3.5m3-3.5h-5.25M5.5 8.5L9 12l-3.5 3.5m-3-3.5h5.25"/></symbol><symbol id="hd-icon-tdesign-shrink-vertical" viewBox="0 0 24 24"><path fill="none" stroke="currentColor" stroke-linecap="square" stroke-width="2" d="M15.5 18.5L12 15l-3.5 3.5M20 12H4m11.5-6.5L12 9L8.5 5.5m3.5-3v5.25m0 13.75v-5.25"/></symbol><symbol id="hd-icon-tdesign-shutter" viewBox="0 0 24 24"><g fill="none"><path d="M22 12c0 5.523-4.477 10-10 10S2 17.523 2 12S6.477 2 12 2s10 4.477 10 10"/><path d="m16.5 12l-2.25 4h-4.5L7.5 12l2.26-4h4.49z"/><path stroke="currentColor" stroke-width="2" d="m7.5 12l2.26-4M7.5 12l2.25 4M7.5 12L4.08 5.894M9.76 8h4.49M9.76 8l3.357-5.938M16.5 12l-2.25 4m2.25-4l-2.25-4m2.25 4l3.428 6.095M14.25 16h-4.5m4.5 0l-3.342 5.941M9.75 16H2.832M14.25 8h6.918m-8.05-5.938Q12.567 2 12 2a9.98 9.98 0 0 0-7.92 3.894m9.037-3.832A10.01 10.01 0 0 1 21.167 8M4.08 5.894A9.96 9.96 0 0 0 2 12a10 10 0 0 0 .832 4m0 0a10.01 10.01 0 0 0 8.076 5.941m0 0Q11.447 22 12 22c3.229 0 6.1-1.53 7.929-3.905m0 0A9.96 9.96 0 0 0 22 12a10 10 0 0 0-.832-4"/></g></symbol><symbol id="hd-icon-tdesign-shutter-filled" viewBox="0 0 24 24"><path fill="currentColor" d="m14.81 1.362l-3.312 5.842h10.404a11.02 11.02 0 0 0-7.093-5.842m7.811 7.76h-6.823l5.196 9.214A10.95 10.95 0 0 0 23 12c0-.995-.133-1.96-.38-2.878m-2.954 10.766l-3.35-5.935l-5.086 9.02q.38.027.77.027c2.981 0 5.686-1.187 7.666-3.112M9.214 22.644l3.301-5.85H2.097a11.02 11.02 0 0 0 7.117 5.85M1.38 14.876h6.822L3.016 5.652A10.95 10.95 0 0 0 1 12c0 .995.132 1.959.38 2.876M4.344 4.101a10.97 10.97 0 0 1 8.45-3.072l-5.108 9.017z"/></symbol><symbol id="hd-icon-tdesign-shutup" viewBox="0 0 24 24"><g fill="none"><path d="M22 12c0 5.523-4.477 10-10 10S2 17.523 2 12S6.477 2 12 2s10 4.477 10 10"/><path stroke="currentColor" stroke-linecap="square" stroke-width="2" d="M22 12c0 5.523-4.477 10-10 10S2 17.523 2 12S6.477 2 12 2s10 4.477 10 10Zm-5-2h-2m-6 0H7m4 4l1 1m0 0l1 1m-1-1l1-1m-1 1l-1 1"/></g></symbol><symbol id="hd-icon-tdesign-shutup-filled" viewBox="0 0 24 24"><path fill="currentColor" d="M12 23C5.925 23 1 18.075 1 12S5.925 1 12 1s11 4.925 11 11s-4.925 11-11 11M10 9H6v2h4zm8 0h-4v2h4zm-6 4.586l-1-1L9.586 14l1 1l-1 1L11 17.414l1-1l1 1L14.414 16l-1-1l1-1L13 12.586z"/></symbol><symbol id="hd-icon-tdesign-sim-card" viewBox="0 0 24 24"><g fill="none"><path d="M20 2v20H4V6l4-4z"/><path stroke="currentColor" stroke-linecap="square" stroke-width="2" d="M20 2v20H4V6l4-4z"/><path stroke="currentColor" stroke-linecap="square" stroke-width="2" d="M9 13v3m3-6v3m3 0v3m0-6.002h.004v.004H15zm-3.002 6h.004v.004h-.004zM9 9.998h.004v.004H9z"/></g></symbol><symbol id="hd-icon-tdesign-sim-card-1" viewBox="0 0 24 24"><g fill="none"><path d="M20 2v20H4V6l4-4z"/><path stroke="currentColor" stroke-linecap="square" stroke-width="2" d="M20 2v20H4V6l4-4z"/><path stroke="currentColor" stroke-linecap="square" stroke-width="2" d="M12.5 15.988v-5.982h-1"/></g></symbol><symbol id="hd-icon-tdesign-sim-card-1-filled" viewBox="0 0 24 24"><path fill="currentColor" d="M21 1H7.586L3 5.586V23h18zm-9.5 15.988v-5.982h-1v-2h3v7.982z"/></symbol><symbol id="hd-icon-tdesign-sim-card-2" viewBox="0 0 24 24"><g fill="none"><path d="M20 2v20H4V6l4-4z"/><path stroke="currentColor" stroke-linecap="square" stroke-width="2" d="M20 2v20H4V6l4-4z"/><path stroke="currentColor" stroke-linecap="square" stroke-width="2" d="M10 11a2 2 0 1 1 3.433 1.396L10 15.4v.333h4"/></g></symbol><symbol id="hd-icon-tdesign-sim-card-2-filled" viewBox="0 0 24 24"><path fill="currentColor" d="M21 1H7.586L3 5.586V23h18zM11 11v1H9v-1a3 3 0 1 1 5.149 2.094l-.028.028l-1.841 1.611H15v2H9v-1.787l3.739-3.272A1 1 0 1 0 11 11"/></symbol><symbol id="hd-icon-tdesign-sim-card-filled" viewBox="0 0 24 24"><path fill="currentColor" d="M21 1H7.586L3 5.586V23h18zM10.004 8.998v2.004H8V8.998zM11 14V9h2v5zm-3 3v-5h2v5zm8 0h-2v-5h2zm-2-8.002h2.004v2.004H14zm-.998 6v2.004h-2.004v-2.004z"/></symbol><symbol id="hd-icon-tdesign-sinister-smile" viewBox="0 0 24 24"><g fill="none"><path d="M22 12c0 5.523-4.477 10-10 10S2 17.523 2 12S6.477 2 12 2s10 4.477 10 10"/><path stroke="currentColor" stroke-linecap="square" stroke-width="2" d="M22 12c0 5.523-4.477 10-10 10S2 17.523 2 12S6.477 2 12 2s10 4.477 10 10Z"/><path stroke="currentColor" stroke-linecap="square" stroke-width="2" d="M15 11v-1h2M7 11v-1h2m-.465 5A4 4 0 0 0 12 17c1.48 0 2.773-.804 3.465-2"/></g></symbol><symbol id="hd-icon-tdesign-sinister-smile-filled" viewBox="0 0 24 24"><path fill="currentColor" d="M12 23C5.925 23 1 18.075 1 12S5.925 1 12 1s11 4.925 11 11s-4.925 11-11 11M10 9H6v3h2v-1h2zm8 0h-4v3h2v-1h2zm-8.6 5.5l-.5-.866l-1.731 1.001l.5.866A5 5 0 0 0 12 18a5 5 0 0 0 4.33-2.5l.501-.865l-1.731-1.001l-.5.865A3 3 0 0 1 12 16a3 3 0 0 1-2.6-1.5"/></symbol><symbol id="hd-icon-tdesign-sip" viewBox="0 0 24 24"><g fill="none"><path d="M7.5 21H3l.072-4.5L13.76 5.76l4.49 4.49z"/><path d="M15.752 3.758a3.178 3.178 0 1 1 4.5 4.49L18.25 10.25l-4.49-4.49z"/><path stroke="currentColor" stroke-linecap="square" stroke-width="2" d="m13 5l6 6M3.072 16.5l12.68-12.742a3.178 3.178 0 1 1 4.5 4.49L7.5 21H3z"/></g></symbol><symbol id="hd-icon-tdesign-sip-filled" viewBox="0 0 24 24"><path fill="currentColor" d="m16.558 12.356l-4.843-4.842l-9.643 9.643V22h4.842zm4.222-4.224a3.424 3.424 0 0 0-4.842-4.842L14.19 5.038l-1.286-1.285l-1.414 1.414l7.413 7.414l1.415-1.415l-1.286-1.285z"/></symbol><symbol id="hd-icon-tdesign-sitemap" viewBox="0 0 24 24"><g fill="none"><path d="M21 5.5a2.5 2.5 0 1 1-5 0a2.5 2.5 0 0 1 5 0m0 13a2.5 2.5 0 1 1-5 0a2.5 2.5 0 0 1 5 0m-13 0a2.5 2.5 0 1 1-5 0a2.5 2.5 0 0 1 5 0m0-13a2.5 2.5 0 1 1-5 0a2.5 2.5 0 0 1 5 0"/><path stroke="currentColor" stroke-linecap="square" stroke-width="2" d="M16 5.5a2.5 2.5 0 1 0 5 0a2.5 2.5 0 0 0-5 0Zm0 0H8M5.5 16a2.5 2.5 0 1 0 0 5a2.5 2.5 0 0 0 0-5Zm0 0V8M8 5.5A2.5 2.5 0 0 1 5.5 8M8 5.5A2.5 2.5 0 1 0 5.5 8m11 8.5l-9-9m13.5 11a2.5 2.5 0 1 1-5 0a2.5 2.5 0 0 1 5 0Z"/></g></symbol><symbol id="hd-icon-tdesign-sitemap-filled" viewBox="0 0 24 24"><path fill="currentColor" d="M2 5.5a3.5 3.5 0 0 1 6.855-1h6.29A3.502 3.502 0 0 1 22 5.5a3.5 3.5 0 0 1-6.855 1h-6.29q-.105.35-.276.665l8.256 8.256a3.5 3.5 0 1 1-1.414 1.414L7.165 8.579q-.315.172-.665.276v6.29A3.502 3.502 0 0 1 5.5 22a3.5 3.5 0 0 1-1-6.855v-6.29A3.5 3.5 0 0 1 2 5.5"/></symbol><symbol id="hd-icon-tdesign-size-change" viewBox="0 0 24 24"><path fill="none" stroke="currentColor" stroke-linecap="square" stroke-width="2" d="M5.5 11V5.5H11m7.5 7.5v5.5H13M9 9L6.343 6.343m11.314 11.314L15 15m-1.5-4.5l-3 2.998"/></symbol><symbol id="hd-icon-tdesign-slash" viewBox="0 0 24 24"><path fill="none" stroke="currentColor" stroke-linecap="square" stroke-width="2" d="M17 3.34L7 20.66"/></symbol><symbol id="hd-icon-tdesign-sleep" viewBox="0 0 24 24"><g fill="none"><path d="M22 12c0 5.523-4.477 10-10 10S2 17.523 2 12S6.477 2 12 2s10 4.477 10 10"/><path stroke="currentColor" stroke-linecap="square" stroke-width="2" d="M22 12c0 5.523-4.477 10-10 10S2 17.523 2 12S6.477 2 12 2s10 4.477 10 10Z"/><path stroke="currentColor" stroke-linecap="square" stroke-width="2" d="M17 9.5a1.5 1.5 0 0 1-3 0m-4 0a1.5 1.5 0 0 1-3 0m5 5.5h.004v.004H12z"/></g></symbol><symbol id="hd-icon-tdesign-sleep-filled" viewBox="0 0 24 24"><path fill="currentColor" d="M12 23C5.925 23 1 18.075 1 12S5.925 1 12 1s11 4.925 11 11s-4.925 11-11 11M8 9.5v-1H6v1a2.5 2.5 0 0 0 5 0v-1H9v1a.5.5 0 0 1-1 0m7 0v-1h-2v1a2.5 2.5 0 0 0 5 0v-1h-2v1a.5.5 0 0 1-1 0M13.004 14H11v2.004h2.004z"/></symbol><symbol id="hd-icon-tdesign-slice" viewBox="0 0 24 24"><g fill="none"><path d="M2.5 20.5L13 10v8.5a2 2 0 0 1-2 2zM13 17l9.25-9.25a2.475 2.475 0 1 0-3.5-3.5L13 10z"/><path stroke="currentColor" stroke-width="2" d="m13 17l9.25-9.25a2.475 2.475 0 1 0-3.5-3.5L13 10m0 7v-7m0 7v1.5a2 2 0 0 1-2 2H2.5L13 10"/></g></symbol><symbol id="hd-icon-tdesign-slice-filled" viewBox="0 0 24 24"><path fill="currentColor" d="M12 12.414L4.914 19.5H11a1 1 0 0 0 1-1zm2 6.086a3 3 0 0 1-3 3H.086L18.293 3.293l.116-.11a3.12 3.12 0 0 1 4.298.11l.11.116a3.12 3.12 0 0 1 0 4.182l-.11.116L14 16.414z"/></symbol><symbol id="hd-icon-tdesign-slideshow" viewBox="0 0 24 24"><g fill="none"><path d="M7 4h10v16H7z"/><path stroke="currentColor" stroke-linecap="square" stroke-width="2" d="M7 4h10v16H7zm15 2h-1.5v12H22M2 6h1.5v12H2"/></g></symbol><symbol id="hd-icon-tdesign-slideshow-filled" viewBox="0 0 24 24"><path fill="currentColor" d="M6 3h12v18H6zM1 5h3.5v14H1v-2h1.5V7H1zm18.5 0H23v2h-1.5v10H23v2h-3.5z"/></symbol><symbol id="hd-icon-tdesign-smile" viewBox="0 0 24 24"><g fill="none"><path d="M22 12c0 5.523-4.477 10-10 10S2 17.523 2 12S6.477 2 12 2s10 4.477 10 10"/><path stroke="currentColor" stroke-linecap="square" stroke-width="2" d="M22 12c0 5.523-4.477 10-10 10S2 17.523 2 12S6.477 2 12 2s10 4.477 10 10Z"/><path stroke="currentColor" stroke-linecap="square" stroke-width="2" d="M8 9v2m8-2v2m-7.465 4A4 4 0 0 0 12 17c1.48 0 2.773-.804 3.465-2"/></g></symbol><symbol id="hd-icon-tdesign-smile-filled" viewBox="0 0 24 24"><path fill="currentColor" d="M12 23C5.925 23 1 18.075 1 12S5.925 1 12 1s11 4.925 11 11s-4.925 11-11 11M9 12V8H7v4zm8 0V8h-2v4zm-7.6 2.5l-.5-.866l-1.731 1.001l.5.866A5 5 0 0 0 12 18a5 5 0 0 0 4.33-2.5l.501-.865l-1.731-1.001l-.5.865A3 3 0 0 1 12 16a3 3 0 0 1-2.6-1.5"/></symbol><symbol id="hd-icon-tdesign-sneer" viewBox="0 0 24 24"><g fill="none"><path d="M22 12c0 5.523-4.477 10-10 10S2 17.523 2 12S6.477 2 12 2s10 4.477 10 10"/><path stroke="currentColor" stroke-linecap="square" stroke-width="2" d="M22 12c0 5.523-4.477 10-10 10S2 17.523 2 12S6.477 2 12 2s10 4.477 10 10Z"/><path stroke="currentColor" stroke-linecap="square" stroke-width="2" d="M17 10h-2m-6 0H7m8.5 4.5c-.444 1.725-1.636 2.5-3.5 2.5"/></g></symbol><symbol id="hd-icon-tdesign-sneer-filled" viewBox="0 0 24 24"><path fill="currentColor" d="M12 23C5.925 23 1 18.075 1 12S5.925 1 12 1s11 4.925 11 11s-4.925 11-11 11M10 9H6v2h4zm8 0h-4v2h4zm-1.532 5.75l.25-.97l-1.937-.498l-.25.969c-.174.68-.468 1.08-.82 1.326c-.368.256-.91.423-1.711.423h-1v2h1c1.063 0 2.049-.22 2.855-.783c.82-.572 1.344-1.422 1.613-2.468"/></symbol><symbol id="hd-icon-tdesign-snowflake" viewBox="0 0 24 24"><path fill="none" stroke="currentColor" stroke-linecap="square" stroke-width="2" d="M12 2v3m0 17v-3m2-16l-2 2m0 0l-2-2m2 2v7.048M14 21l-2-2m0 0l-2 2m2-2v-6.952M21 14l-2-2m0 0l2-2m-2 2h3m-3 0l-7 .048M3 14l2-2m0 0l-2-2m2 2H2m3 0l7 .048m4.95-4.998L12 12.048M7.05 16.95L12 12.048m0 0l4.95 4.902M12 12.048L7.05 7.05"/></symbol><symbol id="hd-icon-tdesign-sonic" viewBox="0 0 24 24"><path fill="none" stroke="currentColor" stroke-linecap="square" stroke-width="2" d="M4 10v4m4-7v10m4-14v18m4-14v10m4-7v4"/></symbol><symbol id="hd-icon-tdesign-sound" viewBox="0 0 24 24"><g fill="none"><path d="m14 21l-8-4.5v-9L14 3zM2 16.5v-9h3.999v9z"/><path stroke="currentColor" stroke-linecap="square" stroke-width="2" d="M5.999 16.5H2v-9h3.999m0 9L14 21V3L5.999 7.5m0 9v-9m11.991 6.006a2.5 2.5 0 0 0 .001-3.015m2.79 5.127a6 6 0 0 0 .003-7.235"/></g></symbol><symbol id="hd-icon-tdesign-sound-down" viewBox="0 0 24 24"><g fill="none"><path d="m14 21l-8-4.5v-9L14 3zM2 16.5v-9h3.999v9z"/><path stroke="currentColor" stroke-linecap="square" stroke-width="2" d="M5.999 16.5H2v-9h3.999m0 9L14 21V3L5.999 7.5m0 9v-9M23 12h-6"/></g></symbol><symbol id="hd-icon-tdesign-sound-down-filled" viewBox="0 0 24 24"><path fill="currentColor" d="M5 6.5v11H1v-11zm2 11.71l8 4.5V1.29l-8 4.5zM24 11h-8v2h8z"/></symbol><symbol id="hd-icon-tdesign-sound-filled" viewBox="0 0 24 24"><path fill="currentColor" d="M5 6.5v11H1v-11zm2 11.71l8 4.5V1.29l-8 4.5zM21.581 7.78l-.602-.799l-1.596 1.206l.602.798a5 5 0 0 1-.002 6.03l-.603.797l1.595 1.206l.603-.797a7 7 0 0 0 .003-8.442"/><path fill="currentColor" d="m18.789 9.889l-.603-.798l-1.596 1.205l.603.798a1.5 1.5 0 0 1 0 1.809l-.604.797l1.595 1.207l.603-.798a3.5 3.5 0 0 0 .002-4.22"/></symbol><symbol id="hd-icon-tdesign-sound-high" viewBox="0 0 24 24"><g fill="none"><path d="m14 21l-8-4.5v-9L14 3zM2 16.5v-9h3.999v9z"/><path stroke="currentColor" stroke-linecap="square" stroke-width="2" d="M5.999 16.5H2v-9h3.999m0 9L14 21V3L5.999 7.5m0 9v-9m10.915 3.086a2 2 0 0 1 0 2.828m1.768-4.596a4.5 4.5 0 0 1 0 6.364M20.45 7.05a7 7 0 0 1 0 9.9"/></g></symbol><symbol id="hd-icon-tdesign-sound-high-filled" viewBox="0 0 24 24"><path fill="currentColor" d="M5 6.5v11H1v-11zm2 11.71l8 4.5V1.29l-8 4.5zM21.157 6.343l-.707-.707l-1.415 1.414l.708.707a6 6 0 0 1 0 8.485l-.707.707l1.414 1.415l.707-.707a8 8 0 0 0 0-11.314"/><path fill="currentColor" d="m18.682 7.404l-1.414 1.414l.707.707a3.5 3.5 0 0 1 0 4.95l-.707.707l1.414 1.414l.707-.707a5.5 5.5 0 0 0 0-7.778z"/><path fill="currentColor" d="M17.621 14.121a3 3 0 0 0 0-4.243l-.707-.707l-1.414 1.415l.707.707a1 1 0 0 1 0 1.414l-.707.707l1.414 1.414z"/></symbol><symbol id="hd-icon-tdesign-sound-low" viewBox="0 0 24 24"><g fill="none"><path d="m14 21l-8-4.5v-9L14 3zM2 16.5v-9h3.999v9z"/><path stroke="currentColor" stroke-linecap="square" stroke-width="2" d="M5.999 16.5H2v-9h3.999m0 9L14 21V3L5.999 7.5m0 9v-9m12.683 1.317a4.5 4.5 0 0 1 0 6.364"/></g></symbol><symbol id="hd-icon-tdesign-sound-low-filled" viewBox="0 0 24 24"><path fill="currentColor" d="M5 6.5v11H1v-11zm2 11.71l8 4.5V1.29l-8 4.5zm12.389-10.1l-.707-.707l-1.414 1.414l.707.707a3.5 3.5 0 0 1 0 4.95l-.707.707l1.414 1.414l.707-.707a5.5 5.5 0 0 0 0-7.778"/></symbol><symbol id="hd-icon-tdesign-sound-mute" viewBox="0 0 24 24"><g fill="none"><path d="m18 21l-8-4.5v-9L18 3zM6 16.5v-9h3.999v9z"/><path stroke="currentColor" stroke-linecap="square" stroke-width="2" d="M9.999 16.5H6v-9h3.999m0 9L18 21V3L9.999 7.5m0 9v-9"/></g></symbol><symbol id="hd-icon-tdesign-sound-mute-1" viewBox="0 0 24 24"><g fill="none"><path d="m14 21l-8-4.5v-9L14 3zM2 16.5v-9h3.999v9z"/><path stroke="currentColor" stroke-linecap="square" stroke-width="2" d="M5.999 16.5H2v-9h3.999m0 9L14 21V3L5.999 7.5m0 9v-9m16.123 2.379L20 12m0 0l-2.121 2.121M20 12.002l-2.12-2.124M20 12l2.122 2.121"/></g></symbol><symbol id="hd-icon-tdesign-sound-mute-1-filled" viewBox="0 0 24 24"><path fill="currentColor" d="M5 6.5v11H1v-11zm2 11.71l8 4.5V1.29l-8 4.5zm13-7.624l-2.12-2.122l-1.415 1.415l2.121 2.12l-2.121 2.122l1.414 1.414L20 13.415l2.122 2.12l1.414-1.414L21.415 12l2.12-2.121l-1.413-1.415z"/></symbol><symbol id="hd-icon-tdesign-sound-mute-filled" viewBox="0 0 24 24"><path fill="currentColor" d="M9 17.5v-11H5v11zm10 5.21l-8-4.5V5.79l8-4.5z"/></symbol><symbol id="hd-icon-tdesign-sound-up" viewBox="0 0 24 24"><g fill="none"><path d="m14 21l-8-4.5v-9L14 3zM2 16.5v-9h3.999v9z"/><path stroke="currentColor" stroke-linecap="square" stroke-width="2" d="M5.999 16.5H2v-9h3.999m0 9L14 21V3L5.999 7.5m0 9v-9M20 9v3m0 0v3m0-3h-3m3 0h3"/></g></symbol><symbol id="hd-icon-tdesign-sound-up-filled" viewBox="0 0 24 24"><path fill="currentColor" d="M5 6.5v11H1v-11zm2 11.71l8 4.5V1.29l-8 4.5zM21 8h-2v3h-3v2h3v3h2v-3h3v-2h-3z"/></symbol><symbol id="hd-icon-tdesign-space" viewBox="0 0 24 24"><path fill="none" stroke="currentColor" stroke-linecap="square" stroke-width="2" d="M2 10v5h20v-5"/></symbol><symbol id="hd-icon-tdesign-speechless" viewBox="0 0 24 24"><g fill="none"><path d="M22 12c0 5.523-4.477 10-10 10S2 17.523 2 12S6.477 2 12 2s10 4.477 10 10"/><path stroke="currentColor" stroke-linecap="square" stroke-width="2" d="M22 12c0 5.523-4.477 10-10 10S2 17.523 2 12S6.477 2 12 2s10 4.477 10 10Zm-5-2h-2m-6 0H7m7 5h-4"/></g></symbol><symbol id="hd-icon-tdesign-speechless-1" viewBox="0 0 24 24"><g fill="none"><path d="M22 12c0 5.523-4.477 10-10 10S2 17.523 2 12S6.477 2 12 2s10 4.477 10 10"/><path stroke="currentColor" stroke-linecap="square" stroke-width="2" d="M22 12c0 5.523-4.477 10-10 10S2 17.523 2 12S6.477 2 12 2s10 4.477 10 10Z"/><path stroke="currentColor" stroke-linecap="square" stroke-width="2" d="M17 10h-2m-8 0h3v6h3"/></g></symbol><symbol id="hd-icon-tdesign-speechless-1-filled" viewBox="0 0 24 24"><path fill="currentColor" d="M12 23C5.925 23 1 18.075 1 12S5.925 1 12 1s11 4.925 11 11s-4.925 11-11 11M11 9H6v2h3v6h5v-2h-3zm7 0h-4v2h4z"/></symbol><symbol id="hd-icon-tdesign-speechless-filled" viewBox="0 0 24 24"><path fill="currentColor" d="M12 23C5.925 23 1 18.075 1 12S5.925 1 12 1s11 4.925 11 11s-4.925 11-11 11M10 9H6v2h4zm8 0h-4v2h4zm-3 7v-2H9v2z"/></symbol><symbol id="hd-icon-tdesign-star" viewBox="0 0 24 24"><g fill="none"><path d="m12 3.676l2.187 6.29l6.658.136l-5.307 4.024l1.928 6.374L12 16.696L6.534 20.5l1.928-6.374l-5.307-4.024l6.659-.136z"/><path stroke="currentColor" stroke-linecap="square" stroke-width="2" d="m12 3.676l2.187 6.29l6.658.136l-5.307 4.024l1.928 6.374L12 16.696L6.534 20.5l1.928-6.374l-5.307-4.024l6.659-.136z"/></g></symbol><symbol id="hd-icon-tdesign-star-filled" viewBox="0 0 24 24"><path fill="currentColor" d="m12.001.63l2.903 8.35l8.839.181l-7.045 5.341l2.56 8.462L12 17.914l-7.256 5.05l2.56-8.462L.26 9.161l8.839-.18z"/></symbol><symbol id="hd-icon-tdesign-statue-of-jesus" viewBox="0 0 24 24"><g fill="none"><path d="M14 18h1l1 4H8l1-4z"/><path stroke="currentColor" stroke-width="2" d="M14 7h7v1l-7 3zm0 0h-4m4 0v8m-4-4L3 8V7h7m0 4V7m0 4v7m0-7l4 4m0 3h1l1 4H8l1-4h1m4 0h-4m4 0v-3M11 2h2v2h-2z"/></g></symbol><symbol id="hd-icon-tdesign-statue-of-jesus-filled" viewBox="0 0 24 24"><path fill="currentColor" d="M10 1h4v4h-4zM2 6h20v2.66l-7 3V17h.78l1.5 6H6.72l1.5-6H9v-5.34l-7-3zm7 3.483V8H5.539zM11 8v2.586l2 2V8zm4 0v1.483L18.461 8zm-2 7.414l-2-2V17h2z"/></symbol><symbol id="hd-icon-tdesign-sticky-note" viewBox="0 0 24 24"><g fill="none"><path d="M21 3H3v18h11v-7h7z"/><path stroke="currentColor" stroke-linecap="square" stroke-width="2" d="M20 14h-6v6M3 3h18v11l-7 7H3zm4 6h10M7 13h3"/></g></symbol><symbol id="hd-icon-tdesign-sticky-note-filled" viewBox="0 0 24 24"><path fill="currentColor" d="M16.414 22H2V2h20v14.414zm-.914-6.5V20l4.5-4.5zM18 10V8H6v2zm-7 4v-2H6v2z"/></symbol><symbol id="hd-icon-tdesign-stop" viewBox="0 0 24 24"><path fill="currentColor" d="M8 8h8v8H8z"/></symbol><symbol id="hd-icon-tdesign-stop-circle" viewBox="0 0 24 24"><path fill="currentColor" d="M12 3a9 9 0 1 0 0 18a9 9 0 0 0 0-18M1 12C1 5.925 5.925 1 12 1s11 4.925 11 11s-4.925 11-11 11S1 18.075 1 12"/><path fill="currentColor" d="M8 8h8v8H8z"/></symbol><symbol id="hd-icon-tdesign-stop-circle-filled" viewBox="0 0 24 24"><path fill="currentColor" d="M12 1C5.925 1 1 5.925 1 12s4.925 11 11 11s11-4.925 11-11S18.075 1 12 1m4 7v8H8V8z"/></symbol><symbol id="hd-icon-tdesign-stop-circle-stroke" viewBox="0 0 24 24"><g fill="none"><path d="M22 12c0 5.523-4.477 10-10 10S2 17.523 2 12S6.477 2 12 2s10 4.477 10 10"/><path d="M9 9h6v6H9z"/><path stroke="currentColor" stroke-width="2" d="M22 12c0 5.523-4.477 10-10 10S2 17.523 2 12S6.477 2 12 2s10 4.477 10 10Z"/><path stroke="currentColor" stroke-width="2" d="M9 9h6v6H9z"/></g></symbol><symbol id="hd-icon-tdesign-stop-circle-stroke-filled" viewBox="0 0 24 24"><path fill="currentColor" d="M12 1C5.925 1 1 5.925 1 12s4.925 11 11 11s11-4.925 11-11S18.075 1 12 1m4 7v8H8V8z"/></symbol><symbol id="hd-icon-tdesign-store" viewBox="0 0 24 24"><g fill="none"><path d="M3.5 6.5h17l1 5v1h-19v-1zm9.5 14v-8H4v8z"/><path stroke="currentColor" stroke-linecap="square" stroke-width="2" d="M4.5 3.5h15m.5 9v8M3.5 6.5h17l1 5v1h-19v-1zm9.5 6v8H4v-8z"/></g></symbol><symbol id="hd-icon-tdesign-store-filled" viewBox="0 0 24 24"><path fill="currentColor" d="M3.5 2.5h17v2h-17zm-.82 3h18.64l1.18 5.901V13.5H21v8h-2v-8h-5v8H3v-8H1.5v-2.099zm2.32 8v6h7v-6z"/></symbol><symbol id="hd-icon-tdesign-street-road" viewBox="0 0 24 24"><g fill="none"><path d="M3 3h18v18H3z"/><path stroke="currentColor" stroke-linecap="square" stroke-width="2" d="M3 3h18v18H3zm4 9l2.083-1.25m0 0L17 6m-7.917 4.75L7 7m10 5l-2.083 1.25m0 0L7 18m7.917-4.75L17 17"/></g></symbol><symbol id="hd-icon-tdesign-street-road-1" viewBox="0 0 24 24"><g fill="none"><path d="M3 3h18v18H3z"/><path stroke="currentColor" stroke-linecap="square" stroke-width="2" d="M3 3h18v18H3zm6 4L7 17m5-9v1m3-2l2 10m-5-5v1m0 3v1"/></g></symbol><symbol id="hd-icon-tdesign-street-road-1-filled" viewBox="0 0 24 24"><path fill="currentColor" d="M22 2v20H2V2zM7.784 18.177l2.393-11.962l-1.962-.392l-2.392 11.961zm10.393-.393l-2.393-11.96l-1.96.391l2.391 11.962zM13 10V7h-2v3zm0 4v-3h-2v3zm0 4v-3h-2v3z"/></symbol><symbol id="hd-icon-tdesign-street-road-filled" viewBox="0 0 24 24"><path fill="currentColor" d="M22 2v20H2V2zM6.657 13.372l11.715-7.03l-1.03-1.714L9.456 9.36L7.388 5.64l-1.748.971l2.1 3.78l-2.112 1.266zm9.604.238l2.11-1.267l-1.028-1.715l-11.715 7.029l1.029 1.715l7.887-4.733l2.067 3.72l1.749-.97z"/></symbol><symbol id="hd-icon-tdesign-subscript" viewBox="0 0 24 24"><path fill="none" stroke="currentColor" stroke-linecap="square" stroke-width="2" d="M9 12.735L4.01 20H4zm0 0l1-1.456m0 0L15 4h-.01zm0 1.456L14.99 20H15zm0 0L8.986 11.26m0 0L4 4h.01zM19.25 15h2.25a.5.5 0 0 1 .5.5V17a.5.5 0 0 1-.5.5h-2a.5.5 0 0 0-.5.5v2h2.75"/></symbol><symbol id="hd-icon-tdesign-subtitle" viewBox="0 0 24 24"><g fill="none"><path d="M22 4v16H2V4z"/><path stroke="currentColor" stroke-width="2" d="M22 4v16H2V4z"/><path stroke="currentColor" stroke-linecap="square" stroke-width="2" d="M10 15H7a1 1 0 0 1-1-1v-4a1 1 0 0 1 1-1h3m8 6h-3a1 1 0 0 1-1-1v-4a1 1 0 0 1 1-1h3"/></g></symbol><symbol id="hd-icon-tdesign-subtitle-filled" viewBox="0 0 24 24"><path fill="currentColor" d="M23 3H1v18h22zM7 8h4v2H7v4h4v2H7a2 2 0 0 1-2-2v-4a2 2 0 0 1 2-2m8 0h4v2h-4v4h4v2h-4a2 2 0 0 1-2-2v-4a2 2 0 0 1 2-2"/></symbol><symbol id="hd-icon-tdesign-subway-line" viewBox="0 0 24 24"><g fill="none"><path d="M21 6a2 2 0 1 1-4 0a2 2 0 0 1 4 0"/><path d="M21 6a2 2 0 1 1-4 0a2 2 0 0 1 4 0M8 18a2 2 0 1 1-4 0a2 2 0 0 1 4 0"/><path stroke="currentColor" stroke-linecap="square" stroke-width="2" d="M3 6h14m0 0a2 2 0 0 0 2 2m-2-2a2 2 0 0 1 2-2m0-1v1m0 0a2 2 0 1 1 0 4M8 18h11V8M8 18a2 2 0 0 1-2 2m2-2a2 2 0 0 0-2-2m0 4v1m0-1a2 2 0 0 1-2-2m-1 0h1m0 0a2 2 0 0 1 2-2M6 3v13"/></g></symbol><symbol id="hd-icon-tdesign-subway-line-filled" viewBox="0 0 24 24"><path fill="currentColor" d="M7 2v3h9.17A3 3 0 0 1 18 3.17V2h2v1.17a3.001 3.001 0 0 1 0 5.66V19H8.83A3 3 0 0 1 7 20.83V22H5v-1.17A3 3 0 0 1 3.17 19H2v-2h1.17A3 3 0 0 1 5 15.17V7H2V5h3V2zm0 5v8.17A3 3 0 0 1 8.83 17H18V8.83A3 3 0 0 1 16.17 7z"/></symbol><symbol id="hd-icon-tdesign-sum" viewBox="0 0 24 24"><path fill="none" stroke="currentColor" stroke-linecap="square" stroke-width="2" d="M20 4H4l8 8l-8 8h16"/></symbol><symbol id="hd-icon-tdesign-summary" viewBox="0 0 24 24"><path fill="currentColor" d="M18.002 19.732L16.351 22h-1.004l.982-2.143H15V17h3.002zm3.998 0L20.349 22h-1.003l.982-2.143H19V17h3zM13 20H2v-2h11zm9-7H2v-2h20zM3.672 4.143H5V7H2V4.268L3.651 2h1.003zm3.999 0H9V7H5.998V4.268L7.649 2h1.004zM22 6H11V4h11z"/></symbol><symbol id="hd-icon-tdesign-sun-fall" viewBox="0 0 24 24"><path fill="none" stroke="currentColor" stroke-linecap="square" stroke-width="2" d="M3 14H2m3.637-6.365l-.707-.707M12 4v1m7.07 1.928l-.707.707M22 14h-1M7 14a5 5 0 0 1 10 0M2 18h7l3 2l3-2h7"/></symbol><symbol id="hd-icon-tdesign-sun-fall-filled" viewBox="0 0 24 24"><path fill="currentColor" d="M13 3v3h-2V3zm7.485 3.928L18.364 9.05L16.95 7.636l2.121-2.122zM4.93 5.514l2.12 2.122L5.636 9.05L3.515 6.929zM6 15v-1a6 6 0 0 1 12 0v1zm-5-2h3v2H1zm19 0h3v2h-3zM1 17h8.303L12 18.798L14.697 17H23v2h-7.697L12 21.202L8.697 19H1z"/></symbol><symbol id="hd-icon-tdesign-sun-rising" viewBox="0 0 24 24"><path fill="none" stroke="currentColor" stroke-linecap="square" stroke-width="2" d="M22 19h-7l-3-2l-3 2H2m1-5H2m3.637-6.365l-.707-.707M12 4v1m7.07 1.928l-.707.707M22 14h-1M7 14a5 5 0 0 1 10 0"/></symbol><symbol id="hd-icon-tdesign-sun-rising-filled" viewBox="0 0 24 24"><path fill="currentColor" d="M13 3v3h-2V3zm7.485 3.928L18.364 9.05L16.95 7.636l2.121-2.122zM4.93 5.514l2.12 2.122L5.636 9.05L3.515 6.929zM6 15v-1a6 6 0 0 1 12 0v1zm-5-2h3v2H1zm19 0h3v2h-3zm-8 2.798L15.303 18H23v2h-8.303L12 18.202L9.303 20H1v-2h7.697z"/></symbol><symbol id="hd-icon-tdesign-sunny" viewBox="0 0 24 24"><g fill="none"><path d="M17 12a5 5 0 1 1-10 0a5 5 0 0 1 10 0"/><path stroke="currentColor" stroke-width="2" d="M17 12a5 5 0 1 1-10 0a5 5 0 0 1 10 0Z"/><path stroke="currentColor" stroke-linecap="square" stroke-width="2" d="M12 21v1m0-20v1m-9 9H2m20 0h-1M5.636 18.363l-.707.708M19.07 4.928l-.707.708m-12.728 0l-.707-.707M19.07 19.07l-.707-.707"/></g></symbol><symbol id="hd-icon-tdesign-sunny-filled" viewBox="0 0 24 24"><path fill="currentColor" d="M13 1v3h-2V1zm7.485 3.928L18.364 7.05L16.95 5.636l2.121-2.122zM4.93 3.514l2.12 2.122L5.636 7.05L3.515 4.929zM6 12a6 6 0 1 1 12 0a6 6 0 0 1-12 0m-5-1h3v2H1zm19 0h3v2h-3zM7.05 18.363l-2.12 2.123l-1.415-1.416l2.121-2.122zm11.314-1.414l2.121 2.122l-1.414 1.414l-2.121-2.121zM13 20v3h-2v-3z"/></symbol><symbol id="hd-icon-tdesign-superscript" viewBox="0 0 24 24"><path fill="none" stroke="currentColor" stroke-linecap="square" stroke-width="2" d="M9 12.735L4.01 20H4zm0 0l1-1.456m0 0L15 4h-.01zm0 1.456L14.99 20H15zm0 0L8.986 11.26m0 0L4 4h.01zM19.25 2h2.25a.5.5 0 0 1 .5.5V4a.5.5 0 0 1-.5.5h-2a.5.5 0 0 0-.5.5v2h2.75"/></symbol><symbol id="hd-icon-tdesign-support" viewBox="0 0 24 24"><defs><path id="hd-icon-tdesign-support-590" d="M4.929 4.93c-3.905 3.905-3.905 10.237 0 14.142l4.243-4.243a4 4 0 0 1 0-5.657zm14.142 14.142c3.905-3.905 3.905-10.237 0-14.142l-4.243 4.242a4 4 0 0 1 0 5.657z"/><path id="hd-icon-tdesign-support-591" d="M4.929 19.071c3.905 3.905 10.237 3.905 14.142 0l-4.243-4.243a4 4 0 0 1-5.657 0zM19.07 4.929c-3.904-3.905-10.236-3.905-14.141 0L9.17 9.172a4 4 0 0 1 5.657 0z"/></defs><g fill="none"><use href="#hd-icon-tdesign-support-590"/><use href="#hd-icon-tdesign-support-591"/><use href="#hd-icon-tdesign-support-591" stroke="currentColor" stroke-width="2"/><use href="#hd-icon-tdesign-support-590" stroke="currentColor" stroke-width="2"/></g></symbol><symbol id="hd-icon-tdesign-support-filled" viewBox="0 0 24 24"><path fill="currentColor" d="M4.96 3.546L9.615 8.2a4.49 4.49 0 0 1 4.773 0l4.652-4.652a11 11 0 0 0-14.078 0M20.454 4.96L15.8 9.615a4.49 4.49 0 0 1 0 4.772l4.653 4.653a11 11 0 0 0 0-14.078M19.04 20.454L14.387 15.8a4.49 4.49 0 0 1-4.773 0L4.96 20.455a11 11 0 0 0 14.079 0M3.547 19.04L8.2 14.385a4.49 4.49 0 0 1 0-4.772L3.547 4.96a11 11 0 0 0 0 14.078"/></symbol><symbol id="hd-icon-tdesign-surprised" viewBox="0 0 24 24"><g fill="none"><path d="M22 12c0 5.523-4.477 10-10 10S2 17.523 2 12S6.477 2 12 2s10 4.477 10 10"/><path d="M14 15a2 2 0 1 1-4 0a2 2 0 0 1 4 0m3-5a1 1 0 1 1-2 0a1 1 0 0 1 2 0m-8 0a1 1 0 1 1-2 0a1 1 0 0 1 2 0"/><path stroke="currentColor" stroke-width="2" d="M22 12c0 5.523-4.477 10-10 10S2 17.523 2 12S6.477 2 12 2s10 4.477 10 10Z"/><path stroke="currentColor" stroke-linecap="square" stroke-width="2" d="M17 10a1 1 0 1 1-2 0a1 1 0 0 1 2 0Zm-8 0a1 1 0 1 1-2 0a1 1 0 0 1 2 0Zm5 5a2 2 0 1 1-4 0a2 2 0 0 1 4 0Z"/></g></symbol><symbol id="hd-icon-tdesign-surprised-1" viewBox="0 0 24 24"><g fill="none"><path d="M22 12c0 5.523-4.477 10-10 10S2 17.523 2 12S6.477 2 12 2s10 4.477 10 10"/><path d="M14 15.5c0 1.38-.895 2.5-2 2.5s-2-1.12-2-2.5s.895-2.5 2-2.5s2 1.12 2 2.5"/><path stroke="currentColor" stroke-width="2" d="M22 12c0 5.523-4.477 10-10 10S2 17.523 2 12S6.477 2 12 2s10 4.477 10 10Z"/><path stroke="currentColor" stroke-linecap="square" stroke-width="2" d="M16 9v2M8 9v2m6 4.5c0 1.38-.895 2.5-2 2.5s-2-1.12-2-2.5s.895-2.5 2-2.5s2 1.12 2 2.5Z"/></g></symbol><symbol id="hd-icon-tdesign-surprised-1-filled" viewBox="0 0 24 24"><path fill="currentColor" d="M11 15.5c0-1.048.644-1.5 1-1.5s1 .452 1 1.5s-.644 1.5-1 1.5s-1-.452-1-1.5"/><path fill="currentColor" d="M12 23C5.925 23 1 18.075 1 12S5.925 1 12 1s11 4.925 11 11s-4.925 11-11 11M9 12V8H7v4zm8 0V8h-2v4zm-5 0c-1.854 0-3 1.787-3 3.5s1.146 3.5 3 3.5s3-1.787 3-3.5s-1.146-3.5-3-3.5"/></symbol><symbol id="hd-icon-tdesign-surprised-filled" viewBox="0 0 24 24"><path fill="currentColor" d="M11 15a1 1 0 1 1 2 0a1 1 0 0 1-2 0"/><path fill="currentColor" d="M12 23C5.925 23 1 18.075 1 12S5.925 1 12 1s11 4.925 11 11s-4.925 11-11 11M8 8a2 2 0 1 0 0 4a2 2 0 0 0 0-4m8 0a2 2 0 1 0 0 4a2 2 0 0 0 0-4m-4 4a3 3 0 1 0 0 6a3 3 0 0 0 0-6"/></symbol><symbol id="hd-icon-tdesign-swap" viewBox="0 0 24 24"><path fill="none" stroke="currentColor" stroke-linecap="square" stroke-width="2" d="M21 14.5H4l5 5m-6-10h17l-5-5"/></symbol><symbol id="hd-icon-tdesign-swap-left" viewBox="0 0 24 24"><path fill="none" stroke="currentColor" stroke-linecap="square" stroke-width="2" d="M21 14H4l5-5"/></symbol><symbol id="hd-icon-tdesign-swap-right" viewBox="0 0 24 24"><path fill="none" stroke="currentColor" stroke-linecap="square" stroke-width="2" d="M3 14h17l-5-5"/></symbol><symbol id="hd-icon-tdesign-swear-1" viewBox="0 0 24 24"><g fill="none"><path d="M22 12c0 5.523-4.477 10-10 10S2 17.523 2 12S6.477 2 12 2s10 4.477 10 10"/><path d="M9 17c.344-1.725 1.557-3 3-3s2.656 1.275 3 3z"/><path stroke="currentColor" stroke-linecap="square" stroke-width="2" d="M22 12c0 5.523-4.477 10-10 10S2 17.523 2 12S6.477 2 12 2s10 4.477 10 10Z"/><path stroke="currentColor" stroke-linecap="square" stroke-width="2" d="m16.867 9.5l-1.732 1m-6.268 0l-1.732-1M12 14c-1.443 0-2.656 1.275-3 3h6c-.344-1.725-1.557-3-3-3Z"/></g></symbol><symbol id="hd-icon-tdesign-swear-1-filled" viewBox="0 0 24 24"><path fill="currentColor" d="M12 23C5.925 23 1 18.075 1 12S5.925 1 12 1s11 4.925 11 11s-4.925 11-11 11m-1.767-12.866l-3.464-2l-1 1.732l3.464 2zm4.536 1.732l3.464-2l-1-1.732l-3.464 2zm-2.77 1.334c-2.09 0-3.58 1.801-3.98 3.804h7.961C15.581 15.001 14.09 13.2 12 13.2"/></symbol><symbol id="hd-icon-tdesign-swear-2" viewBox="0 0 24 24"><g fill="none"><path d="M22 12c0 5.523-4.477 10-10 10S2 17.523 2 12S6.477 2 12 2s10 4.477 10 10"/><path d="M14 15.5c0 1.38-.895 2.5-2 2.5s-2-1.12-2-2.5s.895-2.5 2-2.5s2 1.12 2 2.5"/><path stroke="currentColor" stroke-linecap="square" stroke-width="2" d="M22 12c0 5.523-4.477 10-10 10S2 17.523 2 12S6.477 2 12 2s10 4.477 10 10Z"/><path stroke="currentColor" stroke-linecap="square" stroke-width="2" d="m16.867 9.5l-1.732 1m-6.268 0l-1.732-1m6.865 6c0 1.38-.895 2.5-2 2.5s-2-1.12-2-2.5s.895-2.5 2-2.5s2 1.12 2 2.5Z"/></g></symbol><symbol id="hd-icon-tdesign-swear-2-filled" viewBox="0 0 24 24"><path fill="currentColor" d="M11 15.5c0-1.048.644-1.5 1-1.5c.355 0 1 .452 1 1.5s-.645 1.5-1 1.5c-.356 0-1-.452-1-1.5"/><path fill="currentColor" d="M12 23C5.925 23 1 18.075 1 12S5.925 1 12 1s11 4.925 11 11s-4.925 11-11 11m-1.767-12.866l-3.464-2l-1 1.732l3.464 2zm4.536 1.732l3.464-2l-1-1.732l-3.464 2zm-2.77.134c-1.853 0-3 1.787-3 3.5s1.147 3.5 3 3.5c1.854 0 3-1.787 3-3.5S13.854 12 12 12"/></symbol><symbol id="hd-icon-tdesign-system-2" viewBox="0 0 24 24"><path fill="none" stroke="currentColor" stroke-linecap="square" stroke-width="2" d="M12 15H4.198C3.641 14.833 2 14 2 12s1.64-2.833 2.198-3h1.239M12 9h7.802c.557.167 2.198 1 2.198 3s-1.64 2.833-2.198 3h-1.238M9 12V4.198C9.167 3.641 10 2 12 2s2.833 1.64 3 2.198v1.239M15 12v7.802c-.167.557-1 2.198-3 2.198s-2.833-1.64-3-2.198v-1.238"/></symbol><symbol id="hd-icon-tdesign-system-3" viewBox="0 0 24 24"><g fill="none"><path d="M16.923 21H21v-4.077A2.926 2.926 0 0 0 18.077 14H14v4.077A2.926 2.926 0 0 0 16.923 21m-9.846 0H3v-4.077A2.926 2.926 0 0 1 5.923 14H10v4.077A2.926 2.926 0 0 1 7.077 21m9.846-18H21v4.077A2.926 2.926 0 0 1 18.077 10H14V5.923A2.926 2.926 0 0 1 16.923 3M7.077 3H3v4.077A2.926 2.926 0 0 0 5.923 10H10V5.923A2.926 2.926 0 0 0 7.077 3"/><path stroke="currentColor" stroke-width="2" d="M16.923 21H21v-4.077A2.926 2.926 0 0 0 18.077 14H14v4.077A2.926 2.926 0 0 0 16.923 21Zm-9.846 0H3v-4.077A2.926 2.926 0 0 1 5.923 14H10v4.077A2.926 2.926 0 0 1 7.077 21Zm9.846-18H21v4.077A2.926 2.926 0 0 1 18.077 10H14V5.923A2.926 2.926 0 0 1 16.923 3ZM7.077 3H3v4.077A2.926 2.926 0 0 0 5.923 10H10V5.923A2.926 2.926 0 0 0 7.077 3Z"/></g></symbol><symbol id="hd-icon-tdesign-system-3-filled" viewBox="0 0 24 24"><path fill="currentColor" d="M2 2h5.077A3.926 3.926 0 0 1 11 5.923V11H5.923A3.926 3.926 0 0 1 2 7.077zm11 3.923A3.926 3.926 0 0 1 16.923 2H22v5.077A3.926 3.926 0 0 1 18.077 11H13zm-11 11A3.926 3.926 0 0 1 5.923 13H11v5.077A3.926 3.926 0 0 1 7.077 22H2zM13 13h5.077A3.926 3.926 0 0 1 22 16.923V22h-5.077A3.926 3.926 0 0 1 13 18.077z"/></symbol><symbol id="hd-icon-tdesign-system-application" viewBox="0 0 24 24"><defs><path id="hd-icon-tdesign-system-application-592" d="M3 14h18v7H3zM3 3h18v7H3z"/></defs><g fill="none"><use href="#hd-icon-tdesign-system-application-592"/><g stroke="currentColor" stroke-width="2"><path d="M6.504 6.5v.004H6.5V6.5zm4 0v.004H10.5V6.5zm-4 11v.004H6.5V17.5zm4 0v.004H10.5V17.5z"/><use href="#hd-icon-tdesign-system-application-592"/></g></g></symbol><symbol id="hd-icon-tdesign-system-application-filled" viewBox="0 0 24 24"><path fill="currentColor" d="M22 2H2v9h20zM7.004 5.5v2.004H5V5.5zm4 0v2.004H9V5.5zM22 13H2v9h20zM7.004 16.5v2.004H5V16.5zm4 2.004H9V16.5h2.004z"/></symbol><symbol id="hd-icon-tdesign-system-blocked" viewBox="0 0 24 24"><g fill="none"><path d="M18.5 22a4.5 4.5 0 1 0 0-9a4.5 4.5 0 0 0 0 9"/><path stroke="currentColor" stroke-linecap="square" stroke-width="2" d="M22 9.5V3H2v14h8.5M4 21h6.5m10.475-5.975l-4.95 4.95m5.657.707a4.5 4.5 0 1 1-6.364-6.364a4.5 4.5 0 0 1 6.364 6.364Z"/></g></symbol><symbol id="hd-icon-tdesign-system-blocked-filled" viewBox="0 0 24 24"><path fill="currentColor" d="M23 2H1v16h10.518a6.97 6.97 0 0 1 .92-4.002H3v-10h18v6.962c.734.28 1.409.681 2 1.178zM3 20h8.96c.28.734.681 1.409 1.178 2H3z"/><path fill="currentColor" d="M18.5 12a5.5 5.5 0 1 0 0 11a5.5 5.5 0 0 0 0-11M15 17.5a3.5 3.5 0 0 1 5.165-3.08l-4.744 4.745A3.5 3.5 0 0 1 15 17.5m1.835 3.08l4.744-4.745a3.5 3.5 0 0 1-4.745 4.745"/></symbol><symbol id="hd-icon-tdesign-system-code" viewBox="0 0 24 24"><g fill="none"><path d="M22 3H2v14h20z"/><path stroke="currentColor" stroke-linecap="square" stroke-width="2" d="M4 21h16M2 3h20v14H2z"/><path stroke="currentColor" stroke-linecap="square" stroke-width="2" d="M9 7.5L6.5 10L9 12.5m6 0l2.5-2.5L15 7.5"/></g></symbol><symbol id="hd-icon-tdesign-system-code-filled" viewBox="0 0 24 24"><path fill="currentColor" d="M23 2H1v16h22zm-9.414 10.5l2.5-2.5l-2.5-2.5L15 6.086L18.914 10L15 13.914zM9 13.914L5.086 10L9 6.086L10.414 7.5l-2.5 2.5l2.5 2.5zM21 20H3v2h18z"/></symbol><symbol id="hd-icon-tdesign-system-components" viewBox="0 0 24 24"><g fill="none"><path d="M12 9.75L15.847 12v4.5L12 18.75L8.15 16.5V12zm2.222-4.5c0 1.243-.995 2.25-2.222 2.25S9.778 6.493 9.778 5.25S10.773 3 12 3s2.222 1.007 2.222 2.25M22 18.75c0 1.243-.995 2.25-2.222 2.25s-2.222-1.007-2.222-2.25s.995-2.25 2.222-2.25S22 17.507 22 18.75m-15.556 0c0 1.243-.994 2.25-2.222 2.25S2 19.993 2 18.75s.995-2.25 2.222-2.25c1.228 0 2.222 1.007 2.222 2.25"/><path stroke="currentColor" stroke-linecap="square" stroke-width="2" d="m15.85 16.5l2.058 1.034M12 9.75V7.5m-3.85 9l-2.057 1.035M12 9.75L15.849 12v4.5l-3.85 2.25l-3.848-2.25V12zm2.222-4.5c0 1.243-.995 2.25-2.222 2.25S9.778 6.493 9.778 5.25S10.773 3 12 3s2.222 1.007 2.222 2.25ZM22 18.75c0 1.243-.995 2.25-2.222 2.25s-2.222-1.007-2.222-2.25s.995-2.25 2.222-2.25S22 17.507 22 18.75Zm-15.556 0c0 1.243-.994 2.25-2.222 2.25S2 19.993 2 18.75s.995-2.25 2.222-2.25c1.228 0 2.222 1.007 2.222 2.25Z"/></g></symbol><symbol id="hd-icon-tdesign-system-components-filled" viewBox="0 0 24 24"><path fill="currentColor" d="M13 7.813a2.751 2.751 0 1 0-2 0v1.363l-3.85 2.25v4.458l-1.28.644a2.75 2.75 0 1 0 1.08 1.696l1.165-.587L12 19.908l3.885-2.27l1.165.585q-.05.256-.05.527a2.75 2.75 0 1 0 1.13-2.223l-1.281-.644v-4.457l-3.85-2.25z"/></symbol><symbol id="hd-icon-tdesign-system-coordinate" viewBox="0 0 24 24"><g fill="none"><path d="m12.273 4.222l6.613 3.89v7.777l-6.613 3.889l-6.614-3.89V8.112z"/><path stroke="currentColor" stroke-linecap="square" stroke-width="2" d="m12.272 4.222l6.614 3.89v7.777M12.272 4.222L5.66 8.112v7.777m6.613-11.667V2m6.614 13.889l-6.614 3.889m6.614-3.89L21 17m-8.728 2.778l-6.613-3.89m6.613 3.89V22m0-2.222V12M5.66 15.889L3 17m9.273-5l6.2-3.646M12.272 12l-6.2-3.646"/></g></symbol><symbol id="hd-icon-tdesign-system-coordinate-filled" viewBox="0 0 24 24"><path fill="currentColor" d="M13.272 1v2.65l6.613 3.89v7.745l2.465 1.295l-.93 1.77l-2.507-1.317l-5.641 3.317V23h-2v-2.65l-5.69-3.346l-3.12 1.304l-.77-1.845l2.967-1.24V7.539l6.613-3.889V1zm-2 17.03v-5.458L6.66 9.859v5.458z"/></symbol><symbol id="hd-icon-tdesign-system-device" viewBox="0 0 24 24"><g fill="none"><path d="M3 8.588h9V21H3z"/><path d="M12 21V8.588H8.5V3H21v18z"/><path stroke="currentColor" stroke-linecap="square" stroke-width="2" d="M12 21V8.588H8.5V3H21v18z"/><path stroke="currentColor" stroke-linecap="square" stroke-width="2" d="M7 17h1M3 8.588V21h9V8.588z"/></g></symbol><symbol id="hd-icon-tdesign-system-device-filled" viewBox="0 0 24 24"><path fill="currentColor" d="M22 2H8v5h5v15h9z"/><path fill="currentColor" d="M2 9h9v12.998H2zm3 8v2h3v-2z"/></symbol><symbol id="hd-icon-tdesign-system-interface" viewBox="0 0 24 24"><g fill="none"><path d="M3 21h18V8H3zM21 3H3v5h18z"/><path stroke="currentColor" stroke-linecap="square" stroke-width="2" d="M3 8h18M3 8v13h18V8M3 8V3h18v5"/><path stroke="currentColor" stroke-linecap="square" stroke-width="2" d="M7.004 12v.004H7V12zm4 0v.004H11V12zm4 0v.004H15V12z"/></g></symbol><symbol id="hd-icon-tdesign-system-interface-filled" viewBox="0 0 24 24"><path fill="currentColor" d="M22 2H2v5h20zM2 9v13h20V9zm3 3h2.004v2.004H5zm4 0h2.004v2.004H9zm4 0h2.004v2.004H13z"/></symbol><symbol id="hd-icon-tdesign-system-location" viewBox="0 0 24 24"><g fill="none"><path d="M22.25 16.75c0 3.253-3.75 5.75-3.75 5.75s-3.75-2.497-3.75-5.75a3.75 3.75 0 1 1 7.5 0"/><path stroke="currentColor" stroke-linecap="square" stroke-width="2" d="M22 10V3H2v14h9m-7 4h7"/><path stroke="currentColor" stroke-linecap="square" stroke-width="2" d="M18.25 17h.5m3.5-.25c0 3.253-3.75 5.75-3.75 5.75s-3.75-2.497-3.75-5.75a3.75 3.75 0 1 1 7.5 0Z"/></g></symbol><symbol id="hd-icon-tdesign-system-location-filled" viewBox="0 0 24 24"><path fill="currentColor" d="M23 2H1v16h10.75v-1.25c0-.98.209-1.912.585-2.752H3v-10h18v6.48a6.8 6.8 0 0 1 2 1.24zM3 20h8.75v2H3z"/><path fill="currentColor" d="m18.5 23.701l-.555-.369l-.002-.001l-.004-.003l-.012-.008l-.04-.027l-.137-.098a13 13 0 0 1-1.865-1.677c-.995-1.094-2.135-2.767-2.135-4.768a4.75 4.75 0 1 1 9.5 0c0 2.001-1.14 3.674-2.135 4.768a13 13 0 0 1-2.002 1.774l-.04.028l-.012.008l-.004.003h-.002zM19.75 16h-2.5v2h2.5z"/></symbol><symbol id="hd-icon-tdesign-system-locked" viewBox="0 0 24 24"><g fill="none"><path d="M16 16.5h7V21h-7z"/><path stroke="currentColor" stroke-linecap="square" stroke-width="2" d="M22 9V3H2v14h10m-8 4h8m5.252-4.5v-1.75a2.25 2.25 0 1 1 4.5 0v1.75M16 16.5h7V21h-7z"/></g></symbol><symbol id="hd-icon-tdesign-system-locked-filled" viewBox="0 0 24 24"><path fill="currentColor" d="M23 2H1v16h12v-2c0-.698.11-1.371.314-2.002H3v-10h18v5.676c.72.17 1.395.46 2 .848zM3 20h10v2H3z"/><path fill="currentColor" d="M22.752 14.75v.75H24V22h-9v-6.5h1.252v-.75a3.25 3.25 0 1 1 6.5 0m-2 0a1.25 1.25 0 0 0-2.5 0v.75h2.5z"/></symbol><symbol id="hd-icon-tdesign-system-log" viewBox="0 0 24 24"><g fill="none"><path d="M3 21h18V9H3zM21 3H3v6h18z"/><path stroke="currentColor" stroke-linecap="square" stroke-width="2" d="M3 9h18M3 9V3h18v6M3 9v12h18V9M6.004 6v.004H6V6zM7 13h10M7 17h4"/></g></symbol><symbol id="hd-icon-tdesign-system-log-filled" viewBox="0 0 24 24"><path fill="currentColor" d="M2 2v6h20V2zm2 2h2.004v2.004H4zm-2 6v12h20V10zm3 3h14v2H5zm0 4h6v2H5z"/></symbol><symbol id="hd-icon-tdesign-system-marked" viewBox="0 0 24 24"><g fill="none"><path d="M22 13.996h-6.5V21.5l3.253-2l3.247 2z"/><path stroke="currentColor" stroke-linecap="square" stroke-width="2" d="M22 10V3H2v14h9.5M4 21h7.5"/><path stroke="currentColor" stroke-width="2" d="M22 13.996h-6.5V21.5l3.253-2l3.247 2z"/></g></symbol><symbol id="hd-icon-tdesign-system-marked-filled" viewBox="0 0 24 24"><path fill="currentColor" d="M23 2H1v16h11.5v-4.002H3v-10h18V11h2zM3 20h9.5v2H3z"/><path fill="currentColor" d="M23 12.996h-8.5V23.29l4.253-2.615L23 23.291z"/></symbol><symbol id="hd-icon-tdesign-system-messages" viewBox="0 0 24 24"><g fill="none"><path d="M22 12c0 5.523-4.477 10-10 10S2 17.523 2 12S6.477 2 12 2s10 4.477 10 10"/><path d="M7 10h3l5-3v10l-5-3H7z"/><path stroke="currentColor" stroke-linecap="square" stroke-width="2" d="M22 12c0 5.523-4.477 10-10 10S2 17.523 2 12S6.477 2 12 2s10 4.477 10 10Z"/><path stroke="currentColor" stroke-linecap="square" stroke-width="2" d="M7 10h3l5-3v10l-5-3H7z"/></g></symbol><symbol id="hd-icon-tdesign-system-messages-filled" viewBox="0 0 24 24"><path fill="currentColor" d="M12 1C5.925 1 1 5.925 1 12s4.925 11 11 11s11-4.925 11-11S18.075 1 12 1M9.503 14.5H6.5v-5h3.003l5.997-4v13z"/></symbol><symbol id="hd-icon-tdesign-system-regulation" viewBox="0 0 24 24"><g fill="none"><path d="M22 3H2v14h20z"/><path stroke="currentColor" stroke-linecap="square" stroke-width="2" d="M4 21h16M2 3h20v14H2z"/><path stroke="currentColor" stroke-linecap="square" stroke-width="2" d="M8 7v2m8-2v2m0 3v1m-4-3v3m-4-1v1m4.004-6v.004H12V7z"/></g></symbol><symbol id="hd-icon-tdesign-system-regulation-filled" viewBox="0 0 24 24"><path fill="currentColor" d="M23 2H1v16h22zM7 10V6h2v4zm4-2V6h2v2zm6 2h-2V6h2zm-6 4V9h2v5zm-2 0H7v-3h2zm6 0v-3h2v3zm6 6H3v2h18z"/></symbol><symbol id="hd-icon-tdesign-system-search" viewBox="0 0 24 24"><g fill="none"><path d="M22 17.75a3.75 3.75 0 1 1-7.5 0a3.75 3.75 0 0 1 7.5 0"/><path stroke="currentColor" stroke-linecap="square" stroke-width="2" d="M22 11V3H2v14h9m-7 4h7"/><path stroke="currentColor" stroke-linecap="square" stroke-width="2" d="M20.904 20.4L22.5 22m-.5-4.25a3.75 3.75 0 1 1-7.5 0a3.75 3.75 0 0 1 7.5 0Z"/></g></symbol><symbol id="hd-icon-tdesign-system-search-filled" viewBox="0 0 24 24"><path fill="currentColor" d="M23 2H1v16h10.541a6.7 6.7 0 0 1 .792-4.002H3v-10h18v7.086a6.8 6.8 0 0 1 2 1.37zM3 20h9.084a6.8 6.8 0 0 0 1.37 2H3z"/><path fill="currentColor" d="M23 17.25c0 .95-.278 1.833-.758 2.575l1.672 1.677l-1.416 1.412l-1.67-1.674A4.75 4.75 0 1 1 23 17.25m-2 0a2.75 2.75 0 1 0-.812 1.951l.009-.008A2.74 2.74 0 0 0 21 17.25"/></symbol><symbol id="hd-icon-tdesign-system-setting" viewBox="0 0 24 24"><g fill="none"><path d="M21.5 17.5a3 3 0 1 1-6 0a3 3 0 0 1 6 0"/><path stroke="currentColor" stroke-linecap="square" stroke-width="2" d="M22 9.5V3H2v14h8.5M4 21h6.5m8-6.5v-1.25m0 1.25a3 3 0 0 0 0 6m0-6a3 3 0 1 1 0 6m0 0v1.25M15.902 16l-1.083-.625M21.098 19l1.083.625M21.098 16l1.083-.625M15.9 19l-1.082.625"/></g></symbol><symbol id="hd-icon-tdesign-system-setting-filled" viewBox="0 0 24 24"><path fill="currentColor" d="M23 2H1v16h10.768a6.7 6.7 0 0 1 .96-4.002H3v-10h18v7.23a6.8 6.8 0 0 1 2 1.24zM3 20h9.228a6.8 6.8 0 0 0 1.24 2H3z"/><path fill="currentColor" d="M19.5 13.376V12h-2v1.376a4 4 0 0 0-1.854 1.072l-1.193-.689l-1 1.732l1.192.688a4 4 0 0 0 0 2.142l-1.192.688l1 1.732l1.193-.689a4 4 0 0 0 1.854 1.072V22.5h2v-1.376a4 4 0 0 0 1.854-1.072l1.192.689l1-1.732l-1.191-.688a4 4 0 0 0 0-2.142l1.191-.688l-1-1.732l-1.192.688a4 4 0 0 0-1.854-1.071m-2.715 2.844a2 2 0 0 1 3.43 0l.036.063c.159.287.249.616.249.967c0 .35-.09.68-.249.967l-.037.063a2 2 0 0 1-3.429 0l-.037-.063a2 2 0 0 1-.248-.967a2 2 0 0 1 .248-.967z"/></symbol></svg>