<svg xmlns="http://www.w3.org/2000/svg" xmlns:xlink="http://www.w3.org/1999/xlink"><symbol id="hd-icon-picon-whatsapp" viewBox="0 0 8 8"><path fill="currentColor" d="M3 7q5 1 5-3T4 0q-5 0-3 6L0 8m7-2Q1 7 2 1h2v2H3l2 2V4h2"/></symbol><symbol id="hd-icon-picon-wheelchair" viewBox="0 0 8 8"><path fill="currentColor" d="M4 5V2h3v1H5v1h2v3H6V5M4 1l1-1l1 1l-1 1M3.5 4C0 3 2 10 4.5 6M5 7c-5 4-5-5-2-4"/></symbol><symbol id="hd-icon-picon-whistle" viewBox="0 0 8 8"><path fill="currentColor" d="M5 4c2 3-4 4-4 0M0 4V3h1l1-1h2v1h1V2h3v1L5 4"/></symbol><symbol id="hd-icon-picon-width" viewBox="0 0 8 8"><path fill="currentColor" d="M5 3H3V1L0 4l3 3V5h2v2l3-3l-3-3"/></symbol><symbol id="hd-icon-picon-wifi0" viewBox="0 0 8 8"><path fill="currentColor" d="M8 3Q4-1 0 3l4 4m0-1L1 3q3-3 6 0"/></symbol><symbol id="hd-icon-picon-wifi1" viewBox="0 0 8 8"><path fill="currentColor" d="M8 3Q4-1 0 3l4 4M3 5L1 3q3-3 6 0L5 5"/></symbol><symbol id="hd-icon-picon-wifi2" viewBox="0 0 8 8"><path fill="currentColor" d="M8 3Q4-1 0 3l4 4M2 4L1 3q3-3 6 0L6 4"/></symbol><symbol id="hd-icon-picon-wifi3" viewBox="0 0 8 8"><path fill="currentColor" d="M8 3Q4-1 0 3l4 4M1 3q3-3 6 0"/></symbol><symbol id="hd-icon-picon-wifi4" viewBox="0 0 8 8"><path fill="currentColor" d="M8 3Q4-1 0 3l4 4"/></symbol><symbol id="hd-icon-picon-wikipedia" viewBox="0 0 8 8"><path fill="currentColor" d="m5 6l2-4h1L5 7L2 2h1m0 4l2-4h1L3 7L0 2h1"/></symbol><symbol id="hd-icon-picon-wind" viewBox="0 0 8 8"><path fill="currentColor" d="m0 4l1-1h4V2H4l1-1l1 1v1L5 4M1 8l1-1h5V6H6l1-1l1 1v1L7 8"/></symbol><symbol id="hd-icon-picon-window" viewBox="0 0 8 8"><path fill="currentColor" d="M0 0h8v8H0m3.5-1h1V1h-1M1 7h6V1H1m0 2.5v1h6v-1"/></symbol><symbol id="hd-icon-picon-windowed" viewBox="0 0 8 8"><path fill="currentColor" d="M8 5v1H6v2H5V5M0 6V5h3v3H2V6m0-6v2H0v1h3V0m3 0v2h2v1H5V0"/></symbol><symbol id="hd-icon-picon-windows" viewBox="0 0 8 8"><path fill="currentColor" d="M4 3V1l4-1v3M4 4v2l4 1V4M1 4v1l2 1V4M1 3V2l2-1v2"/></symbol><symbol id="hd-icon-picon-windsocket" viewBox="0 0 8 8"><path fill="currentColor" d="m0 1l2-1v8H1V2M3 .5L5 1v4l-2 .5m3-4L8 2v2l-2 .5"/></symbol><symbol id="hd-icon-picon-woman" viewBox="0 0 8 8"><path fill="currentColor" d="M3 2L2 3C1 7 7 7 6 3m1 4H1V3c0-4 6-4 6 0"/></symbol><symbol id="hd-icon-picon-workstation" viewBox="0 0 8 8"><path fill="currentColor" d="m7 2l1 1l-1 1l-1-1m1 5L6 6H1L0 8m8-3V0H6v5M4 4V1H1v3M0 5V0h5v5"/></symbol><symbol id="hd-icon-picon-wrench" viewBox="0 0 8 8"><path fill="currentColor" d="m4 3l4 4l-1 1l-4-4H1L0 2l2 1l1-1l-1-2l2 1"/></symbol><symbol id="hd-icon-picon-xbox" viewBox="0 0 8 8"><path fill="currentColor" d="m5 4l3 4l-4-3l-4 3l3-4l-3-4l4 2l4-2"/></symbol><symbol id="hd-icon-picon-xor" viewBox="0 0 8 8"><path fill="currentColor" d="M0 6V0h6v2h2v6H2V6M1 1v4h1V2h3V1M3 6v1h4V3H6v3"/></symbol><symbol id="hd-icon-picon-yahoo" viewBox="0 0 8 8"><path fill="currentColor" d="M6 6V5h1v1M6 4l1-4h1L7 4M4 2h2L3 8H1l1-2l-2-4h1.5L3 5"/></symbol><symbol id="hd-icon-picon-yinyang" viewBox="0 0 8 8"><path fill="currentColor" d="M0 4c0-5.5 8-5.5 8 0S0 9.5 0 4m7 0c0-4-6-4-6 0c3-4 3 4 6 0M2 5h1V4H2m3-1h1v1H5"/></symbol><symbol id="hd-icon-picon-youtube" viewBox="0 0 8 8"><path fill="currentColor" d="M6 3.5L3 2v3M0 4c0-3 0-3 4-3s4 0 4 2.5S8 6 4 6S0 6 0 3.5"/></symbol><symbol id="hd-icon-picon-zip" viewBox="0 0 8 8"><path fill="currentColor" d="M3 2v1h2V2M3 0v1h2V0M4 0v4H3V0m0 5v2h2V5M2 8V4h4v4"/></symbol></svg>