<svg xmlns="http://www.w3.org/2000/svg" xmlns:xlink="http://www.w3.org/1999/xlink"><symbol id="hd-icon-bxs-collection" viewBox="0 0 24 24"><path fill="currentColor" d="M19 10H5c-1.103 0-2 .897-2 2v8c0 1.103.897 2 2 2h14c1.103 0 2-.897 2-2v-8c0-1.103-.897-2-2-2M5 6h14v2H5zm2-4h10v2H7z"/></symbol><symbol id="hd-icon-bxs-color" viewBox="0 0 24 24"><path fill="currentColor" d="M7.08 11.25A4.84 4.84 0 0 1 8 9.05L4.43 5.49A9.88 9.88 0 0 0 2 11.25zM9.05 8a4.84 4.84 0 0 1 2.2-.91V2a9.88 9.88 0 0 0-5.76 2.43zm3.7-6v5A4.84 4.84 0 0 1 15 8l3.56-3.56A9.88 9.88 0 0 0 12.75 2M8 15a4.84 4.84 0 0 1-.91-2.2H2a9.88 9.88 0 0 0 2.39 5.76zm3.25 1.92a4.84 4.84 0 0 1-2.2-.92l-3.56 3.57A9.88 9.88 0 0 0 11.25 22zM16 9.05a4.84 4.84 0 0 1 .91 2.2h5a9.88 9.88 0 0 0-2.39-5.76zM15 16a4.84 4.84 0 0 1-2.2.91v5a9.88 9.88 0 0 0 5.76-2.39zm1.92-3.25A4.84 4.84 0 0 1 16 15l3.56 3.56A9.88 9.88 0 0 0 22 12.75z"/></symbol><symbol id="hd-icon-bxs-color-fill" viewBox="0 0 24 24"><path fill="currentColor" d="M20 14c-.092.064-2 2.083-2 3.5c0 1.494.949 2.448 2 2.5c.906.044 2-.891 2-2.5c0-1.5-1.908-3.436-2-3.5M9.586 20c.378.378.88.586 1.414.586s1.036-.208 1.414-.586l7-7l-.707-.707L11 4.586L8.707 2.293L7.293 3.707L9.586 6L4 11.586c-.378.378-.586.88-.586 1.414s.208 1.036.586 1.414zM11 7.414L16.586 13H5.414z"/></symbol><symbol id="hd-icon-bxs-comment" viewBox="0 0 24 24"><path fill="currentColor" d="M20 2H4c-1.103 0-2 .897-2 2v18l4-4h14c1.103 0 2-.897 2-2V4c0-1.103-.897-2-2-2"/></symbol><symbol id="hd-icon-bxs-comment-add" viewBox="0 0 24 24"><path fill="currentColor" d="M20 2H4c-1.103 0-2 .897-2 2v18l4-4h14c1.103 0 2-.897 2-2V4c0-1.103-.897-2-2-2m-3 9h-4v4h-2v-4H7V9h4V5h2v4h4z"/></symbol><symbol id="hd-icon-bxs-comment-check" viewBox="0 0 24 24"><path fill="currentColor" d="M20 2H4c-1.103 0-2 .897-2 2v18l4-4h14c1.103 0 2-.897 2-2V4c0-1.103-.897-2-2-2m-9 11.914l-3.707-3.707l1.414-1.414L11 11.086l4.793-4.793l1.414 1.414z"/></symbol><symbol id="hd-icon-bxs-comment-detail" viewBox="0 0 24 24"><path fill="currentColor" d="M20 1.999H4c-1.103 0-2 .897-2 2v18l4-4h14c1.103 0 2-.897 2-2v-12c0-1.103-.897-2-2-2m-6 11H7v-2h7zm3-4H7v-2h10z"/></symbol><symbol id="hd-icon-bxs-comment-dots" viewBox="0 0 24 24"><path fill="currentColor" d="M20 2H4c-1.103 0-2 .897-2 2v18l4-4h14c1.103 0 2-.897 2-2V4c0-1.103-.897-2-2-2M9 12a2 2 0 1 1 .001-4.001A2 2 0 0 1 9 12m6 0a2 2 0 1 1 .001-4.001A2 2 0 0 1 15 12"/></symbol><symbol id="hd-icon-bxs-comment-edit" viewBox="0 0 24 24"><path fill="currentColor" d="M20 2H4c-1.103 0-2 .897-2 2v18l4-4h14c1.103 0 2-.897 2-2V4c0-1.103-.897-2-2-2M8.999 14.987H7v-1.999l5.53-5.522l1.998 1.999zm6.472-6.464l-1.999-1.999l1.524-1.523L16.995 7z"/></symbol><symbol id="hd-icon-bxs-comment-error" viewBox="0 0 24 24"><path fill="currentColor" d="M20 2H4c-1.103 0-2 .897-2 2v18l4-4h14c1.103 0 2-.897 2-2V4c0-1.103-.897-2-2-2m-7 13h-2v-2h2zm0-4h-2V5h2z"/></symbol><symbol id="hd-icon-bxs-comment-minus" viewBox="0 0 24 24"><path fill="currentColor" d="M20 2H4c-1.103 0-2 .897-2 2v18l4-4h14c1.103 0 2-.897 2-2V4c0-1.103-.897-2-2-2m-4 9H8V9h8z"/></symbol><symbol id="hd-icon-bxs-comment-x" viewBox="0 0 24 24"><path fill="currentColor" d="M20 2H4c-1.103 0-2 .897-2 2v18l4-4h14c1.103 0 2-.897 2-2V4c0-1.103-.897-2-2-2m-3.294 11.543l-1.414 1.414l-3.293-3.292l-3.292 3.292l-1.414-1.414l3.292-3.292l-3.292-3.293l1.414-1.414l3.292 3.292l3.293-3.292l1.414 1.414l-3.292 3.293z"/></symbol><symbol id="hd-icon-bxs-compass" viewBox="0 0 24 24"><path fill="currentColor" d="M12 2C6.486 2 2 6.486 2 12s4.486 10 10 10s10-4.486 10-10S17.514 2 12 2m3 13l-8 2l2-8l8-2z"/><circle cx="12" cy="12" r="2" fill="currentColor"/></symbol><symbol id="hd-icon-bxs-component" viewBox="0 0 24 24"><path fill="currentColor" d="m3.553 18.895l4 2a1 1 0 0 0 .894 0L12 19.118l3.553 1.776a.99.99 0 0 0 .894.001l4-2c.339-.17.553-.516.553-.895v-5c0-.379-.214-.725-.553-.895L17 10.382V6c0-.379-.214-.725-.553-.895l-4-2a1 1 0 0 0-.895 0l-4 2C7.214 5.275 7 5.621 7 6v4.382l-3.447 1.724A1 1 0 0 0 3 13v5c0 .379.214.725.553.895M8 12.118l2.264 1.132l-2.913 1.457l-2.264-1.132zm4-2.5l3-1.5v2.264l-3 1.5zm6.264 3.632l-2.882 1.441l-2.264-1.132L16 12.118zM8 18.882l-.062-.031V16.65L11 15.118v2.264zm8 0v-2.264l3-1.5v2.264zM12 5.118l2.264 1.132l-2.882 1.441l-2.264-1.132z"/></symbol><symbol id="hd-icon-bxs-confused" viewBox="0 0 24 24"><path fill="currentColor" d="M12 2C6.486 2 2 6.486 2 12s4.486 10 10 10s10-4.486 10-10S17.514 2 12 2m-5 8.5a1.5 1.5 0 1 1 3.001.001A1.5 1.5 0 0 1 7 10.5m1.124 6.492l-.248-1.984l8-1l.248 1.984zm7.369-5.006a1.494 1.494 0 1 1 .001-2.987a1.494 1.494 0 0 1-.001 2.987"/></symbol><symbol id="hd-icon-bxs-contact" viewBox="0 0 24 24"><path fill="currentColor" d="M21 2H6a2 2 0 0 0-2 2v3H2v2h2v2H2v2h2v2H2v2h2v3a2 2 0 0 0 2 2h15a1 1 0 0 0 1-1V3a1 1 0 0 0-1-1m-8 2.999c1.648 0 3 1.351 3 3A3.01 3.01 0 0 1 13 11c-1.647 0-3-1.353-3-3.001c0-1.649 1.353-3 3-3M19 18H7v-.75c0-2.219 2.705-4.5 6-4.5s6 2.281 6 4.5z"/></symbol><symbol id="hd-icon-bxs-conversation" viewBox="0 0 24 24"><path fill="currentColor" d="M13 14h3.5c.827 0 1.5-.673 1.5-1.5v-9c0-.827-.673-1.5-1.5-1.5h-13C2.673 2 2 2.673 2 3.5V18l5.333-4zm-9-.1l.154-.016L4 14z"/><path fill="currentColor" d="M20.5 8H20v6.001c0 1.1-.893 1.993-1.99 1.999H8v.5c0 .827.673 1.5 1.5 1.5h7.167L22 22V9.5c0-.827-.673-1.5-1.5-1.5"/></symbol><symbol id="hd-icon-bxs-cookie" viewBox="0 0 24 24"><path fill="currentColor" d="M21.598 11.064a1 1 0 0 0-.854-.172A3 3 0 0 1 20 11c-1.654 0-3-1.346-3.003-2.938c.005-.034.016-.134.017-.168a.998.998 0 0 0-1.254-1.006A3 3 0 0 1 15 7c-1.654 0-3-1.346-3-3c0-.217.031-.444.099-.716a1 1 0 0 0-1.067-1.236A9.956 9.956 0 0 0 2 12c0 5.514 4.486 10 10 10s10-4.486 10-10c0-.049-.003-.097-.007-.16a1 1 0 0 0-.395-.776M8.5 6a1.5 1.5 0 1 1 0 3a1.5 1.5 0 0 1 0-3m-2 8a1.5 1.5 0 1 1 0-3a1.5 1.5 0 0 1 0 3m3 4a1.5 1.5 0 1 1 0-3a1.5 1.5 0 0 1 0 3m2.5-6.5a1.5 1.5 0 1 1 3 0a1.5 1.5 0 0 1-3 0m3.5 6.5a1.5 1.5 0 1 1 0-3a1.5 1.5 0 0 1 0 3"/></symbol><symbol id="hd-icon-bxs-cool" viewBox="0 0 24 24"><path fill="currentColor" d="M12 2C6.486 2 2 6.486 2 12s4.486 10 10 10s10-4.486 10-10S17.514 2 12 2m4.095 14.244a6 6 0 0 1-3.034 1.634a6.05 6.05 0 0 1-2.414 0a5.9 5.9 0 0 1-2.148-.903a6.1 6.1 0 0 1-1.621-1.622l1.658-1.117q.216.318.488.59a4 4 0 0 0 1.273.86q.366.154.749.232a4.1 4.1 0 0 0 1.616 0q.381-.079.75-.233c.234-.1.464-.224.679-.368q.313-.214.591-.489q.275-.274.489-.592l1.658 1.117c-.215.32-.462.62-.734.891M19 10a2 2 0 0 1-2 2h-2a2 2 0 0 1-2-2h-2a2 2 0 0 1-2 2H7a2 2 0 0 1-2-2V8h14z"/></symbol><symbol id="hd-icon-bxs-copy" viewBox="0 0 24 24"><path fill="currentColor" d="M14 8H4c-1.103 0-2 .897-2 2v10c0 1.103.897 2 2 2h10c1.103 0 2-.897 2-2V10c0-1.103-.897-2-2-2"/><path fill="currentColor" d="M20 2H10a2 2 0 0 0-2 2v2h8a2 2 0 0 1 2 2v8h2a2 2 0 0 0 2-2V4a2 2 0 0 0-2-2"/></symbol><symbol id="hd-icon-bxs-copy-alt" viewBox="0 0 24 24"><path fill="currentColor" d="M20 2H10a2 2 0 0 0-2 2v2h8a2 2 0 0 1 2 2v8h2a2 2 0 0 0 2-2V4a2 2 0 0 0-2-2"/><path fill="currentColor" d="M4 22h10c1.103 0 2-.897 2-2V10c0-1.103-.897-2-2-2H4c-1.103 0-2 .897-2 2v10c0 1.103.897 2 2 2m2-10h6v2H6zm0 4h6v2H6z"/></symbol><symbol id="hd-icon-bxs-copyright" viewBox="0 0 24 24"><path fill="currentColor" d="M12 2C6.579 2 2 6.58 2 12s4.579 10 10 10s10-4.58 10-10S17.421 2 12 2m0 13c.992 0 1.85-.265 2.293-.708l1.414 1.415C14.581 16.832 12.901 17 12 17c-2.757 0-5-2.243-5-5s2.243-5 5-5c.901 0 2.582.168 3.707 1.293l-1.414 1.414C13.851 9.264 12.993 9 12 9c-1.626 0-3 1.374-3 3s1.374 3 3 3"/></symbol><symbol id="hd-icon-bxs-coupon" viewBox="0 0 24 24"><path fill="currentColor" d="M21 5H3a1 1 0 0 0-1 1v4h.893c.996 0 1.92.681 2.08 1.664A2 2 0 0 1 3 14H2v4a1 1 0 0 0 1 1h18a1 1 0 0 0 1-1v-4h-1a2 2 0 0 1-1.973-2.336c.16-.983 1.084-1.664 2.08-1.664H22V6a1 1 0 0 0-1-1M11 17H9v-2h2zm0-4H9v-2h2zm0-4H9V7h2z"/></symbol><symbol id="hd-icon-bxs-credit-card" viewBox="0 0 24 24"><path fill="currentColor" d="M20 4H4c-1.103 0-2 .897-2 2v2h20V6c0-1.103-.897-2-2-2M2 18c0 1.103.897 2 2 2h16c1.103 0 2-.897 2-2v-6H2zm3-3h6v2H5z"/></symbol><symbol id="hd-icon-bxs-credit-card-alt" viewBox="0 0 24 24"><path fill="currentColor" d="M20 4H4c-1.103 0-2 .897-2 2v12c0 1.103.897 2 2 2h16c1.103 0 2-.897 2-2V6c0-1.103-.897-2-2-2m-7.5 12a2.5 2.5 0 1 1 0-5a2.47 2.47 0 0 1 1.5.512c-.604.456-1 1.173-1 1.988s.396 1.532 1 1.988a2.47 2.47 0 0 1-1.5.512m4 0a2.5 2.5 0 1 1 0-5a2.5 2.5 0 0 1 0 5"/></symbol><symbol id="hd-icon-bxs-credit-card-front" viewBox="0 0 24 24"><path fill="currentColor" d="M20 4H4c-1.103 0-2 .897-2 2v12c0 1.103.897 2 2 2h16c1.103 0 2-.897 2-2V6c0-1.103-.897-2-2-2M5 8.5a.5.5 0 0 1 .5-.5h3a.5.5 0 0 1 .5.5v2a.5.5 0 0 1-.5.5h-3a.5.5 0 0 1-.5-.5zm6 7.5H5v-2h6zm8 0h-6v-2h6z"/></symbol><symbol id="hd-icon-bxs-cricket-ball" viewBox="0 0 24 24"><path fill="currentColor" d="m3.67 16.26l.54.53l-.62.61a9 9 0 0 0 .84 1.11L18.51 4.42a11 11 0 0 0-1.1-.83l-.62.61l-.53-.53l.48-.48A10 10 0 0 0 3.2 16.74zM14.86 5.07l.53.53L14 7l-.53-.53zm-2.79 2.8l.52.53l-1.39 1.4l-.53-.53zm-2.8 2.8l.53.53l-1.4 1.39l-.53-.53zm-2.8 2.79L7 14l-1.4 1.4l-.53-.53zm.12 6.95l.62-.61l.53.53l-.48.48A10 10 0 0 0 20.8 7.26l-.47.48l-.54-.53l.62-.61a9 9 0 0 0-.84-1.11L5.49 19.58a11 11 0 0 0 1.1.83M18.4 8.61l.53.53l-1.4 1.4L17 10zm-2.8 2.8l.53.53l-1.4 1.39l-.53-.53zm-2.8 2.79l.53.53l-1.39 1.4l-.54-.53zM10 17l.53.53l-1.4 1.4l-.53-.53z"/></symbol><symbol id="hd-icon-bxs-crop" viewBox="0 0 24 24"><path fill="currentColor" d="M19 7.5C19 6.121 17.879 5 16.5 5H8V2H5v3H2v3h14v14h3v-3h3v-3h-3z"/><path fill="currentColor" d="M8 10H5v6.5C5 17.879 6.121 19 7.5 19H14v-3H8z"/></symbol><symbol id="hd-icon-bxs-crown" viewBox="0 0 24 24"><path fill="currentColor" d="m21 2l-5 5l-4-5l-4 5l-5-5v13h18zM5 21h14a2 2 0 0 0 2-2v-2H3v2a2 2 0 0 0 2 2"/></symbol><symbol id="hd-icon-bxs-cube" viewBox="0 0 24 24"><path fill="currentColor" d="m21.406 6.086l-9-4a1 1 0 0 0-.813 0l-9 4c-.02.009-.034.024-.054.035c-.028.014-.058.023-.084.04c-.022.015-.039.034-.06.05a.9.9 0 0 0-.19.194q-.031.04-.059.081a1 1 0 0 0-.076.165c-.009.027-.023.052-.031.079A1 1 0 0 0 2 7v10c0 .396.232.753.594.914l9 4c.13.058.268.086.406.086a1 1 0 0 0 .402-.096l.004.01l9-4A1 1 0 0 0 22 17V7a1 1 0 0 0-.594-.914M12 4.095L18.538 7L12 9.905l-1.308-.581L5.463 7zm1 15.366V11.65l7-3.111v7.812z"/></symbol><symbol id="hd-icon-bxs-cube-alt" viewBox="0 0 24 24"><path fill="currentColor" d="M17.895 3.553A1 1 0 0 0 17 3H7c-.379 0-.725.214-.895.553l-4 8a1 1 0 0 0 0 .895l4 8c.17.338.516.552.895.552h10c.379 0 .725-.214.895-.553l4-8a1 1 0 0 0 0-.895zM19.382 11h-7.764l-3-6h7.764zm-3 8H8.618l3-6h7.764z"/></symbol><symbol id="hd-icon-bxs-cuboid" viewBox="0 0 24 24"><path fill="currentColor" d="M16.707 2.293A1 1 0 0 0 16 2H8c-.414 0-.785.255-.934.641l-5 13a1 1 0 0 0 .227 1.066l5 5A1 1 0 0 0 8 22h8c.414 0 .785-.255.934-.641l5-13a1 1 0 0 0-.227-1.066zM18.585 7h-5.171l-3-3h5.172zm-3.272 13h-6.23l4.583-11h5.878z"/></symbol><symbol id="hd-icon-bxs-customize" viewBox="0 0 24 24"><path fill="currentColor" d="M10 3H4a1 1 0 0 0-1 1v6a1 1 0 0 0 1 1h6a1 1 0 0 0 1-1V4a1 1 0 0 0-1-1m10 0h-6a1 1 0 0 0-1 1v6a1 1 0 0 0 1 1h6a1 1 0 0 0 1-1V4a1 1 0 0 0-1-1M10 13H4a1 1 0 0 0-1 1v6a1 1 0 0 0 1 1h6a1 1 0 0 0 1-1v-6a1 1 0 0 0-1-1m8 1h-2v2h-2v2h2v2h2v-2h2v-2h-2z"/></symbol><symbol id="hd-icon-bxs-cylinder" viewBox="0 0 24 24"><path fill="currentColor" d="M12 22c5.131 0 9-1.935 9-4.5V7c0-.051-.024-.097-.033-.146c.016-.117.033-.234.033-.354C21 3.935 17.131 2 12 2S3 3.935 3 6.5v11c0 2.565 3.869 4.5 9 4.5m0-18c4.273 0 7 1.48 7 2.5a.7.7 0 0 1-.025.158c-.004.01-.012.018-.015.027c-.274.848-2.29 1.98-5.496 2.253l-.05.003Q12.741 8.999 12 9C7.727 9 5 7.52 5 6.5S7.727 4 12 4"/></symbol><symbol id="hd-icon-bxs-dashboard" viewBox="0 0 24 24"><path fill="currentColor" d="M4 13h6a1 1 0 0 0 1-1V4a1 1 0 0 0-1-1H4a1 1 0 0 0-1 1v8a1 1 0 0 0 1 1m-1 7a1 1 0 0 0 1 1h6a1 1 0 0 0 1-1v-4a1 1 0 0 0-1-1H4a1 1 0 0 0-1 1zm10 0a1 1 0 0 0 1 1h6a1 1 0 0 0 1-1v-7a1 1 0 0 0-1-1h-6a1 1 0 0 0-1 1zm1-10h6a1 1 0 0 0 1-1V4a1 1 0 0 0-1-1h-6a1 1 0 0 0-1 1v5a1 1 0 0 0 1 1"/></symbol><symbol id="hd-icon-bxs-data" viewBox="0 0 24 24"><path fill="currentColor" d="M20 6c0-2.168-3.663-4-8-4S4 3.832 4 6v2c0 2.168 3.663 4 8 4s8-1.832 8-4zm-8 13c-4.337 0-8-1.832-8-4v3c0 2.168 3.663 4 8 4s8-1.832 8-4v-3c0 2.168-3.663 4-8 4"/><path fill="currentColor" d="M20 10c0 2.168-3.663 4-8 4s-8-1.832-8-4v3c0 2.168 3.663 4 8 4s8-1.832 8-4z"/></symbol><symbol id="hd-icon-bxs-detail" viewBox="0 0 24 24"><path fill="currentColor" d="M20 3H4a2 2 0 0 0-2 2v14a2 2 0 0 0 2 2h16a2 2 0 0 0 2-2V5a2 2 0 0 0-2-2m-9 14H5v-2h6zm8-4H5v-2h14zm0-4H5V7h14z"/></symbol><symbol id="hd-icon-bxs-devices" viewBox="0 0 24 24"><path fill="currentColor" d="M20 3H7c-1.103 0-2 .897-2 2v2H4c-1.103 0-2 .897-2 2v10c0 1.103.897 2 2 2h6c1.103 0 2-.897 2-2h8c1.103 0 2-.897 2-2V5c0-1.103-.897-2-2-2M6 9h4l-.003 9H4V9zm6 8V9c0-1.103-.897-2-2-2H7V5h11v12z"/></symbol><symbol id="hd-icon-bxs-diamond" viewBox="0 0 24 24"><path fill="currentColor" d="M16.445 3h-8.89c-.345 0-.666.178-.849.47L3.25 9h17.5l-3.456-5.53a1 1 0 0 0-.849-.47M11.26 21.186a1 1 0 0 0 1.48 0L22 11H2z"/></symbol><symbol id="hd-icon-bxs-dice-1" viewBox="0 0 24 24"><path fill="currentColor" d="M19 3H5c-1.103 0-2 .897-2 2v14c0 1.103.897 2 2 2h14c1.103 0 2-.897 2-2V5c0-1.103-.897-2-2-2m-7 10.5a1.5 1.5 0 1 1 0-3a1.5 1.5 0 0 1 0 3"/></symbol><symbol id="hd-icon-bxs-dice-2" viewBox="0 0 24 24"><path fill="currentColor" d="M19 3H5c-1.103 0-2 .897-2 2v14c0 1.103.897 2 2 2h14c1.103 0 2-.897 2-2V5c0-1.103-.897-2-2-2M9.5 13.5a1.5 1.5 0 1 1 .001-3.001A1.5 1.5 0 0 1 9.5 13.5m5 0a1.5 1.5 0 1 1 .001-3.001A1.5 1.5 0 0 1 14.5 13.5"/></symbol><symbol id="hd-icon-bxs-dice-3" viewBox="0 0 24 24"><path fill="currentColor" d="M19 3H5c-1.103 0-2 .897-2 2v14c0 1.103.897 2 2 2h14c1.103 0 2-.897 2-2V5c0-1.103-.897-2-2-2M8 9.5a1.5 1.5 0 1 1 .001-3.001A1.5 1.5 0 0 1 8 9.5m4 4a1.5 1.5 0 1 1 .001-3.001A1.5 1.5 0 0 1 12 13.5m4 4a1.5 1.5 0 1 1 .001-3.001A1.5 1.5 0 0 1 16 17.5"/></symbol><symbol id="hd-icon-bxs-dice-4" viewBox="0 0 24 24"><path fill="currentColor" d="M19 3H5c-1.103 0-2 .897-2 2v14c0 1.103.897 2 2 2h14c1.103 0 2-.897 2-2V5c0-1.103-.897-2-2-2M8 17.5a1.5 1.5 0 1 1 .001-3.001A1.5 1.5 0 0 1 8 17.5m0-8a1.5 1.5 0 1 1 .001-3.001A1.5 1.5 0 0 1 8 9.5m8 8a1.5 1.5 0 1 1 .001-3.001A1.5 1.5 0 0 1 16 17.5m0-8a1.5 1.5 0 1 1 .001-3.001A1.5 1.5 0 0 1 16 9.5"/></symbol><symbol id="hd-icon-bxs-dice-5" viewBox="0 0 24 24"><path fill="currentColor" d="M19 3H5c-1.103 0-2 .897-2 2v14c0 1.103.897 2 2 2h14c1.103 0 2-.897 2-2V5c0-1.103-.897-2-2-2M8 17.5a1.5 1.5 0 1 1 .001-3.001A1.5 1.5 0 0 1 8 17.5m0-8a1.5 1.5 0 1 1 .001-3.001A1.5 1.5 0 0 1 8 9.5m4 4a1.5 1.5 0 1 1 .001-3.001A1.5 1.5 0 0 1 12 13.5m4 4a1.5 1.5 0 1 1 .001-3.001A1.5 1.5 0 0 1 16 17.5m0-8a1.5 1.5 0 1 1 .001-3.001A1.5 1.5 0 0 1 16 9.5"/></symbol><symbol id="hd-icon-bxs-dice-6" viewBox="0 0 24 24"><path fill="currentColor" d="M19 3H5c-1.103 0-2 .897-2 2v14c0 1.103.897 2 2 2h14c1.103 0 2-.897 2-2V5c0-1.103-.897-2-2-2M8 17.5a1.5 1.5 0 1 1 .001-3.001A1.5 1.5 0 0 1 8 17.5m0-4a1.5 1.5 0 1 1 .001-3.001A1.5 1.5 0 0 1 8 13.5m0-4a1.5 1.5 0 1 1 .001-3.001A1.5 1.5 0 0 1 8 9.5m8 8a1.5 1.5 0 1 1 .001-3.001A1.5 1.5 0 0 1 16 17.5m0-4a1.5 1.5 0 1 1 .001-3.001A1.5 1.5 0 0 1 16 13.5m0-4a1.5 1.5 0 1 1 .001-3.001A1.5 1.5 0 0 1 16 9.5"/></symbol><symbol id="hd-icon-bxs-direction-left" viewBox="0 0 24 24"><path fill="currentColor" d="m21.707 11.294l-8.978-9a1 1 0 0 0-1.415-.002l-9.021 9a1 1 0 0 0 0 1.416l9.021 9c.39.389 1.026.388 1.415-.002l8.978-9a1 1 0 0 0 0-1.412M15 16h-2v-4h-3v2l-3-3l3-3v2h5z"/></symbol><symbol id="hd-icon-bxs-direction-right" viewBox="0 0 24 24"><path fill="currentColor" d="m2.295 12.707l8.978 9c.389.39 1.025.391 1.414.002l9.021-9a1 1 0 0 0 0-1.416l-9.021-9a1 1 0 0 0-1.414.002l-8.978 9a1 1 0 0 0 0 1.412m6.707-2.706h5v-2l3 3l-3 3v-2h-3v4h-2z"/></symbol><symbol id="hd-icon-bxs-directions" viewBox="0 0 24 24"><path fill="currentColor" d="M19 11h-6V8h6a2 2 0 0 0 2-2V4a2 2 0 0 0-2-2H5L2 5l3 3h6v3H5a2 2 0 0 0-2 2v2a2 2 0 0 0 2 2h6v5h2v-5h6l3-3z"/></symbol><symbol id="hd-icon-bxs-disc" viewBox="0 0 24 24"><path fill="currentColor" d="M12 2C6.486 2 2 6.486 2 12s4.486 10 10 10s10-4.486 10-10S17.514 2 12 2m0 14c-2.206 0-4-1.794-4-4s1.794-4 4-4s4 1.794 4 4s-1.794 4-4 4"/><circle cx="11.998" cy="11.998" r="2.002" fill="currentColor"/></symbol><symbol id="hd-icon-bxs-discount" viewBox="0 0 24 24"><path fill="currentColor" d="M21 5H3a1 1 0 0 0-1 1v4h.893c.996 0 1.92.681 2.08 1.664A2 2 0 0 1 3 14H2v4a1 1 0 0 0 1 1h18a1 1 0 0 0 1-1v-4h-1a2 2 0 0 1-1.973-2.336c.16-.983 1.084-1.664 2.08-1.664H22V6a1 1 0 0 0-1-1M9 9a1 1 0 1 1 0 2a1 1 0 1 1 0-2m-.8 6.4l6-8l1.6 1.2l-6 8zM15 15a1 1 0 1 1 0-2a1 1 0 1 1 0 2"/></symbol><symbol id="hd-icon-bxs-dish" viewBox="0 0 24 24"><path fill="currentColor" d="M21 15c0-4.625-3.507-8.441-8-8.941V4h-2v2.059c-4.493.5-8 4.316-8 8.941v2h18zM2 18h20v2H2z"/></symbol><symbol id="hd-icon-bxs-dislike" viewBox="0 0 24 24"><path fill="currentColor" d="M20 3h-1v13h1a2 2 0 0 0 2-2V5a2 2 0 0 0-2-2M4 16h7l-1.122 3.368A2 2 0 0 0 11.775 22H12l5-5.438V3H6l-3.937 8.649l-.063.293V14a2 2 0 0 0 2 2"/></symbol><symbol id="hd-icon-bxs-dizzy" viewBox="0 0 24 24"><path fill="currentColor" d="M12 2C6.486 2 2 6.486 2 12s4.486 10 10 10s10-4.486 10-10S17.514 2 12 2M8 12.414l-1.293 1.293l-1.414-1.414L6.586 11L5.293 9.707l1.414-1.414L8 9.586l1.293-1.293l1.414 1.414L9.414 11l1.293 1.293l-1.414 1.414zM14 18h-4v-2h4zm4.707-5.707l-1.414 1.414L16 12.414l-1.293 1.293l-1.414-1.414L14.586 11l-1.293-1.293l1.414-1.414L16 9.586l1.293-1.293l1.414 1.414L17.414 11z"/></symbol><symbol id="hd-icon-bxs-dock-bottom" viewBox="0 0 24 24"><path fill="currentColor" d="M5 21h14c1.103 0 2-.897 2-2V5c0-1.103-.897-2-2-2H5c-1.103 0-2 .897-2 2v14c0 1.103.897 2 2 2M19 5l.001 9H5V5z"/></symbol><symbol id="hd-icon-bxs-dock-left" viewBox="0 0 24 24"><path fill="currentColor" d="M21 19V5c0-1.103-.897-2-2-2H5c-1.103 0-2 .897-2 2v14c0 1.103.897 2 2 2h14c1.103 0 2-.897 2-2m-11 0V5h9l.002 14z"/></symbol><symbol id="hd-icon-bxs-dock-right" viewBox="0 0 24 24"><path fill="currentColor" d="M21 5c0-1.103-.897-2-2-2H5c-1.103 0-2 .897-2 2v14c0 1.103.897 2 2 2h14c1.103 0 2-.897 2-2zM5 5h9v14H5z"/></symbol><symbol id="hd-icon-bxs-dock-top" viewBox="0 0 24 24"><path fill="currentColor" d="M3 5v14c0 1.103.897 2 2 2h14c1.103 0 2-.897 2-2V5c0-1.103-.897-2-2-2H5c-1.103 0-2 .897-2 2m2 14v-9h14.001l.001 9z"/></symbol><symbol id="hd-icon-bxs-dog" viewBox="0 0 24 24"><path fill="currentColor" d="M21 6h-2l-1.27-1.27A2.5 2.5 0 0 0 16 4h-2.5A2.64 2.64 0 0 0 11 2v6.36a4.38 4.38 0 0 0 1.13 2.72a6.57 6.57 0 0 0 4.13 1.82l3.45-1.38a3 3 0 0 0 1.73-1.84L22 8.15a1 1 0 0 0 0-.31V7a1 1 0 0 0-1-1m-5 2a1 1 0 1 1 1-1a1 1 0 0 1-1 1"/><path fill="currentColor" d="M11.38 11.74A5.24 5.24 0 0 1 10.07 9H6a1.88 1.88 0 0 1-2-2a1 1 0 0 0-2 0a4.7 4.7 0 0 0 .48 2A3.6 3.6 0 0 0 4 10.53V22h3v-5h6v5h3v-8.13a7.35 7.35 0 0 1-4.62-2.13"/></symbol><symbol id="hd-icon-bxs-dollar-circle" viewBox="0 0 24 24"><path fill="currentColor" d="M12 2C6.486 2 2 6.486 2 12s4.486 10 10 10s10-4.486 10-10S17.514 2 12 2m1 14.915V18h-2v-1.08c-2.339-.367-3-2.002-3-2.92h2c.011.143.159 1 2 1c1.38 0 2-.585 2-1c0-.324 0-1-2-1c-3.48 0-4-1.88-4-3c0-1.288 1.029-2.584 3-2.915V6.012h2v1.109c1.734.41 2.4 1.853 2.4 2.879h-1l-1 .018C13.386 9.638 13.185 9 12 9c-1.299 0-2 .516-2 1c0 .374 0 1 2 1c3.48 0 4 1.88 4 3c0 1.288-1.029 2.584-3 2.915"/></symbol><symbol id="hd-icon-bxs-donate-blood" viewBox="0 0 24 24"><path fill="currentColor" d="M17.726 13.02L14 16H9v-1h4.065a.5.5 0 0 0 .416-.777l-.888-1.332A2 2 0 0 0 10.93 12H3a1 1 0 0 0-1 1v6a2 2 0 0 0 2 2h9.639a3 3 0 0 0 2.258-1.024L22 13l-1.452-.484a3 3 0 0 0-2.822.504M15.403 12a3 3 0 0 0 3-3c0-2.708-3-6-3-6s-3 3.271-3 6a3 3 0 0 0 3 3"/></symbol><symbol id="hd-icon-bxs-donate-heart" viewBox="0 0 24 24"><path fill="currentColor" d="M17.726 13.02L14 16H9v-1h4.065a.5.5 0 0 0 .416-.777l-.888-1.332A2 2 0 0 0 10.93 12H3a1 1 0 0 0-1 1v6a2 2 0 0 0 2 2h9.639a3 3 0 0 0 2.258-1.024L22 13l-1.452-.484a3 3 0 0 0-2.822.504m1.532-5.63c.451-.465.73-1.108.73-1.818s-.279-1.353-.73-1.818A2.45 2.45 0 0 0 17.494 3S16.25 2.997 15 4.286C13.75 2.997 12.506 3 12.506 3a2.45 2.45 0 0 0-1.764.753c-.451.466-.73 1.108-.73 1.818s.279 1.354.73 1.818L15 12z"/></symbol><symbol id="hd-icon-bxs-door-open" viewBox="0 0 24 24"><path fill="currentColor" d="M5 5v14a1 1 0 0 0 1 1h3v-2H7V6h2V4H6a1 1 0 0 0-1 1m14.242-.97l-8-2A1 1 0 0 0 10 3v18a.998.998 0 0 0 1.242.97l8-2A1 1 0 0 0 20 19V5a1 1 0 0 0-.758-.97M15 12.188a1.001 1.001 0 0 1-2 0v-.377a1 1 0 1 1 2 .001z"/></symbol><symbol id="hd-icon-bxs-doughnut-chart" viewBox="0 0 24 24"><path fill="currentColor" d="M13 6c2.507.423 4.577 2.493 5 5h4c-.471-4.717-4.283-8.529-9-9z"/><path fill="currentColor" d="M18 13c-.478 2.833-2.982 4.949-5.949 4.949c-3.309 0-6-2.691-6-6C6.051 8.982 8.167 6.478 11 6V2c-5.046.504-8.949 4.773-8.949 9.949c0 5.514 4.486 10 10 10c5.176 0 9.445-3.903 9.949-8.949z"/></symbol><symbol id="hd-icon-bxs-down-arrow" viewBox="0 0 24 24"><path fill="currentColor" d="M11.178 19.569a.998.998 0 0 0 1.644 0l9-13A.999.999 0 0 0 21 5H3a1.002 1.002 0 0 0-.822 1.569z"/></symbol><symbol id="hd-icon-bxs-down-arrow-alt" viewBox="0 0 24 24"><path fill="currentColor" d="M18 12h-5V6h-2v6H6l6 7z"/></symbol><symbol id="hd-icon-bxs-down-arrow-circle" viewBox="0 0 24 24"><path fill="currentColor" d="M12 2C6.486 2 2 6.486 2 12s4.486 10 10 10s10-4.486 10-10S17.514 2 12 2m0 15l-5-5h4V7h2v5h4z"/></symbol><symbol id="hd-icon-bxs-down-arrow-square" viewBox="0 0 24 24"><path fill="currentColor" d="M19 21a2 2 0 0 0 2-2V5a2 2 0 0 0-2-2H5a2 2 0 0 0-2 2v14a2 2 0 0 0 2 2zm-8-9V7h2v5h4l-5 5l-5-5z"/></symbol><symbol id="hd-icon-bxs-download" viewBox="0 0 24 24"><path fill="currentColor" d="M19 9h-4V3H9v6H5l7 8zM4 19h16v2H4z"/></symbol><symbol id="hd-icon-bxs-downvote" viewBox="0 0 24 24"><path fill="currentColor" d="M20.901 10.566A1 1 0 0 0 20 10h-4V3a1 1 0 0 0-1-1H9a1 1 0 0 0-1 1v7H4a1.001 1.001 0 0 0-.781 1.625l8 10a1 1 0 0 0 1.562 0l8-10c.24-.301.286-.712.12-1.059"/></symbol><symbol id="hd-icon-bxs-drink" viewBox="0 0 24 24"><path fill="currentColor" d="M20.832 4.555A1 1 0 0 0 20 3H4a1 1 0 0 0-.832 1.554L11 16.303V20H8v2h8v-2h-3v-3.697zm-2.7.445l-2 3H7.868l-2-3z"/></symbol><symbol id="hd-icon-bxs-droplet" viewBox="0 0 24 24"><path fill="currentColor" d="M12.6 2.4c-.4-.3-.9-.3-1.2 0C9.5 3.9 4 8.5 4 14c0 4.4 3.6 8 8 8s8-3.6 8-8c0-5.4-5.5-10.1-7.4-11.6"/></symbol><symbol id="hd-icon-bxs-droplet-half" viewBox="0 0 24 24"><path fill="currentColor" d="M12.578 2.184a1 1 0 0 0-1.156 0C11.119 2.398 4 7.513 4 13.75C4 18.53 7.364 22 12 22s8-3.468 8-8.246c0-6.241-7.119-11.356-7.422-11.57M6 13.75c0-4.283 4.395-8.201 6-9.49V20c-3.533 0-6-2.57-6-6.25"/></symbol><symbol id="hd-icon-bxs-dryer" viewBox="0 0 24 24"><path fill="currentColor" d="M4 22h16a1 1 0 0 0 1-1V5c0-1.654-1.346-3-3-3H6C4.346 2 3 3.346 3 5v16a1 1 0 0 0 1 1M18 3.924a1 1 0 1 1 0 2a1 1 0 0 1 0-2m-3 0a1 1 0 1 1 0 2a1 1 0 0 1 0-2m-3 3.117c3.309 0 6 2.691 6 6s-2.691 6-6 6s-6-2.691-6-6s2.691-6 6-6"/><path fill="currentColor" d="M9.32 12.265c-.415.384-1.041.964-1.041 2.067s.626 1.684 1.041 2.068c.352.325.4.398.4.6h2c0-1.104-.626-1.684-1.041-2.068c-.352-.325-.4-.398-.4-.6s.048-.275.4-.6c.414-.384 1.041-.964 1.041-2.068c0-1.103-.626-1.683-1.041-2.066c-.351-.325-.399-.397-.399-.598h-2c0 1.104.627 1.683 1.042 2.066c.351.324.399.396.399.597c-.001.203-.05.276-.401.602m4 0c-.414.384-1.04.964-1.04 2.067s.626 1.684 1.04 2.067c.351.325.399.398.399.601h2c0-1.104-.626-1.684-1.04-2.067c-.351-.325-.399-.398-.399-.601s.049-.275.399-.601c.414-.384 1.04-.964 1.04-2.068c0-1.103-.626-1.682-1.04-2.065c-.35-.324-.399-.397-.399-.598h-2c0 1.103.626 1.683 1.041 2.066c.35.324.398.397.398.598c.001.202-.048.275-.399.601"/></symbol><symbol id="hd-icon-bxs-duplicate" viewBox="0 0 24 24"><path fill="currentColor" d="M4 22h12a2 2 0 0 0 2-2V8a2 2 0 0 0-2-2H4a2 2 0 0 0-2 2v12a2 2 0 0 0 2 2m2-9h3v-3h2v3h3v2h-3v3H9v-3H6z"/><path fill="currentColor" d="M20 2H8v2h12v12h2V4c0-1.103-.897-2-2-2"/></symbol><symbol id="hd-icon-bxs-edit" viewBox="0 0 24 24"><path fill="currentColor" d="m18.988 2.012l3 3L19.701 7.3l-3-3zM8 16h3l7.287-7.287l-3-3L8 13z"/><path fill="currentColor" d="M19 19H8.158c-.026 0-.053.01-.079.01c-.033 0-.066-.009-.1-.01H5V5h6.847l2-2H5c-1.103 0-2 .896-2 2v14c0 1.104.897 2 2 2h14a2 2 0 0 0 2-2v-8.668l-2 2z"/></symbol><symbol id="hd-icon-bxs-edit-alt" viewBox="0 0 24 24"><path fill="currentColor" d="m16 2.012l3 3L16.713 7.3l-3-3zM4 14v3h3l8.299-8.287l-3-3zm0 6h16v2H4z"/></symbol><symbol id="hd-icon-bxs-edit-location" viewBox="0 0 24 24"><path fill="currentColor" d="M12 2C7.589 2 4 5.589 4 9.995C3.971 16.44 11.696 21.784 12 22c0 0 8.029-5.56 8-12c0-4.411-3.589-8-8-8M9.799 14.987H8v-1.799l4.977-4.97l1.799 1.799zm5.824-5.817l-1.799-1.799L15.196 6l1.799 1.799z"/></symbol><symbol id="hd-icon-bxs-eject" viewBox="0 0 24 24"><path fill="currentColor" d="m12 6l-6 8h12zM6 16h12v2H6z"/></symbol><symbol id="hd-icon-bxs-envelope" viewBox="0 0 24 24"><path fill="currentColor" d="M20 4H4a2 2 0 0 0-2 2v12a2 2 0 0 0 2 2h16a2 2 0 0 0 2-2V6a2 2 0 0 0-2-2m0 4.7l-8 5.334L4 8.7V6.297l8 5.333l8-5.333z"/></symbol><symbol id="hd-icon-bxs-envelope-open" viewBox="0 0 24 24"><path fill="currentColor" d="m21.555 8.168l-9-6a1 1 0 0 0-1.109 0l-9 6A1 1 0 0 0 2.004 9H2v11a2 2 0 0 0 2 2h16a2 2 0 0 0 2-2V9h-.004a1 1 0 0 0-.441-.832M20 12.7L12 17l-8-4.3v-2.403l8 4.299l8-4.299z"/></symbol><symbol id="hd-icon-bxs-eraser" viewBox="0 0 24 24"><path fill="currentColor" d="M12.48 3L7.73 7.75L3 12.59a2 2 0 0 0 0 2.82l4.3 4.3A1 1 0 0 0 8 20h12v-2h-7l7.22-7.22a2 2 0 0 0 0-2.83L15.31 3a2 2 0 0 0-2.83 0M8.41 18l-4-4l4.75-4.84l.74-.75l4.95 4.95l-4.56 4.56l-.07.08z"/></symbol><symbol id="hd-icon-bxs-error" viewBox="0 0 24 24"><path fill="currentColor" d="M12.884 2.532c-.346-.654-1.422-.654-1.768 0l-9 17A1 1 0 0 0 3 21h18a.998.998 0 0 0 .883-1.467zM13 18h-2v-2h2zm-2-4V9h2l.001 5z"/></symbol><symbol id="hd-icon-bxs-error-alt" viewBox="0 0 24 24"><path fill="currentColor" d="M16.707 2.293A1 1 0 0 0 16 2H8a1 1 0 0 0-.707.293l-5 5A1 1 0 0 0 2 8v8c0 .266.105.52.293.707l5 5A1 1 0 0 0 8 22h8c.266 0 .52-.105.707-.293l5-5A1 1 0 0 0 22 16V8a1 1 0 0 0-.293-.707zM13 17h-2v-2h2zm0-4h-2V7h2z"/></symbol><symbol id="hd-icon-bxs-error-circle" viewBox="0 0 24 24"><path fill="currentColor" d="M11.953 2C6.465 2 2 6.486 2 12s4.486 10 10 10s10-4.486 10-10S17.493 2 11.953 2M13 17h-2v-2h2zm0-4h-2V7h2z"/></symbol><symbol id="hd-icon-bxs-ev-station" viewBox="0 0 24 24"><path fill="currentColor" d="m19.616 6.48l.014-.017l-4-3.24l-1.26 1.554l2.067 1.674a2.99 2.99 0 0 0-1.394 3.062c.15.899.769 1.676 1.57 2.111c.895.487 1.68.442 2.378.194L18.976 18a.996.996 0 0 1-1.39.922a1 1 0 0 1-.318-.217a1 1 0 0 1-.291-.705L17 16a2.98 2.98 0 0 0-.877-2.119A3 3 0 0 0 14 13h-1V5a2 2 0 0 0-2-2H4a2 2 0 0 0-2 2v14a2 2 0 0 0 2 2h7a2 2 0 0 0 2-2v-4h1q.205 0 .391.078a1.03 1.03 0 0 1 .531.533A1 1 0 0 1 15 16l-.024 2c0 .406.079.799.236 1.168c.151.359.368.68.641.951a2.97 2.97 0 0 0 2.123.881q.611 0 1.168-.236c.358-.15.68-.367.951-.641A2.98 2.98 0 0 0 20.976 18L21 9a3 3 0 0 0-1.384-2.52M6 18l1-5H4l5-7l-1 5h3zm12-8a1 1 0 1 1 0-2a1 1 0 0 1 0 2"/></symbol><symbol id="hd-icon-bxs-exit" viewBox="0 0 24 24"><path fill="currentColor" d="M5.002 21h14c1.103 0 2-.897 2-2V5c0-1.103-.897-2-2-2h-14c-1.103 0-2 .897-2 2v6.001H10V7l6 5l-6 5v-3.999H3.002V19c0 1.103.897 2 2 2"/></symbol><symbol id="hd-icon-bxs-extension" viewBox="0 0 24 24"><path fill="currentColor" d="M19 10V7c0-1.103-.897-2-2-2h-3c0-1.654-1.346-3-3-3S8 3.346 8 5H5c-1.103 0-2 .897-2 2v4h1a2 2 0 0 1 0 4H3v4c0 1.103.897 2 2 2h4v-1a2 2 0 0 1 4 0v1h4c1.103 0 2-.897 2-2v-3c1.654 0 3-1.346 3-3s-1.346-3-3-3"/></symbol><symbol id="hd-icon-bxs-eyedropper" viewBox="0 0 24 24"><path fill="currentColor" d="m4 15.76l-1 4A1 1 0 0 0 3.75 21a1 1 0 0 0 .49 0l4-1a1 1 0 0 0 .47-.26L17 11.41l1.29 1.3l1.42-1.42l-1.3-1.29L21 7.41a2 2 0 0 0 0-2.82L19.41 3a2 2 0 0 0-2.82 0L14 5.59l-1.3-1.3l-1.42 1.42L12.58 7l-8.29 8.29a1 1 0 0 0-.29.47m1.87.75L14 8.42L15.58 10l-8.09 8.1l-2.12.53z"/></symbol><symbol id="hd-icon-bxs-face" viewBox="0 0 24 24"><path fill="currentColor" d="M12 2C6.486 2 2 6.486 2 12s4.486 10 10 10s10-4.486 10-10S17.514 2 12 2m0 18c-4.411 0-8-3.589-8-8c0-1.168.258-2.275.709-3.276q.232.135.456.276c.396.25.791.5 1.286.688c.494.187 1.088.312 1.879.312c.792 0 1.386-.125 1.881-.313s.891-.437 1.287-.687s.792-.5 1.287-.688S13.873 8 14.665 8s1.386.125 1.88.313c.495.187.891.437 1.287.687s.792.5 1.287.688q.269.099.581.171c.191.682.3 1.398.3 2.141c0 4.411-3.589 8-8 8"/><circle cx="8.5" cy="12.5" r="1.5" fill="currentColor"/><circle cx="15.5" cy="12.5" r="1.5" fill="currentColor"/></symbol><symbol id="hd-icon-bxs-face-mask" viewBox="0 0 24 24"><path fill="currentColor" d="M12 2C6.486 2 2 6.486 2 12c0 2.521.945 4.82 2.49 6.582c1.24 1.52 3.266 3.066 6.439 3.358a9.7 9.7 0 0 0 2.141 0c3.174-.292 5.199-1.839 6.439-3.358A9.95 9.95 0 0 0 22 12c0-5.514-4.486-10-10-10M4.709 8.724q.232.135.456.276c.396.25.791.5 1.286.688c.494.187 1.088.312 1.879.312c.792 0 1.386-.125 1.881-.313s.891-.437 1.287-.687s.792-.5 1.287-.688S13.873 8 14.665 8s1.386.125 1.88.313c.495.187.891.437 1.287.687s.792.5 1.287.688q.269.099.581.171c.191.682.3 1.398.3 2.141c0 .843-.133 1.654-.375 2.417c-.261.195-.733.474-1.577.756c-.769.256-1.672.458-2.685.602a25.3 25.3 0 0 1-6.727 0c-1.013-.144-1.916-.346-2.685-.602c-.844-.282-1.316-.561-1.577-.756a7.95 7.95 0 0 1 .335-5.693"/><circle cx="8.5" cy="12.5" r="1.5" fill="currentColor"/><circle cx="15.5" cy="12.5" r="1.5" fill="currentColor"/></symbol><symbol id="hd-icon-bxs-factory" viewBox="0 0 24 24"><path fill="currentColor" d="M17 10V6l-5 4V6l-5 4V4H2v16h20V6zm-8 7H7v-3h2zm5 0h-2v-3h2zm5 0h-2v-3h2z"/></symbol><symbol id="hd-icon-bxs-fast-forward-circle" viewBox="0 0 24 24"><path fill="currentColor" d="M12 2C6.485 2 2 6.485 2 12s4.485 10 10 10s10-4.485 10-10S17.514 2 12 2m1 14v-4l-6 4V8l6 4V8l6 4z"/></symbol><symbol id="hd-icon-bxs-file" viewBox="0 0 24 24"><path fill="currentColor" d="M18 22a2 2 0 0 0 2-2V8l-6-6H6a2 2 0 0 0-2 2v16a2 2 0 0 0 2 2zM13 4l5 5h-5zM7 8h3v2H7zm0 4h10v2H7zm0 4h10v2H7z"/></symbol><symbol id="hd-icon-bxs-file-archive" viewBox="0 0 24 24"><path fill="currentColor" d="M6 2a2 2 0 0 0-2 2v16a2 2 0 0 0 2 2h12a2 2 0 0 0 2-2V8l-6-6h-3v2H9v2h2v2H9v2h2v8H7v-6h2v-2H7V8h2V6H7V4h2V2zm7 2l5 5h-5z"/><path fill="currentColor" d="M8 15h2v2H8z"/></symbol><symbol id="hd-icon-bxs-file-blank" viewBox="0 0 24 24"><path fill="currentColor" d="M6 2a2 2 0 0 0-2 2v16a2 2 0 0 0 2 2h12a2 2 0 0 0 2-2V8l-6-6zm8 7h-1V4l5 5z"/></symbol><symbol id="hd-icon-bxs-file-css" viewBox="0 0 24 24"><path fill="currentColor" d="M14 2H6a2 2 0 0 0-2 2v16a2 2 0 0 0 2 2h12a2 2 0 0 0 2-2V8zM9.446 17.412c.275 0 .581-.061.762-.132l.138.713c-.168.084-.546.174-1.037.174c-1.397 0-2.117-.869-2.117-2.021C7.191 14.768 8.175 14 9.398 14c.474 0 .833.096.995.18l-.186.726a2 2 0 0 0-.768-.149c-.726 0-1.29.438-1.29 1.337c.001.808.482 1.318 1.297 1.318m2.491.755c-.461 0-.917-.119-1.145-.245l.186-.756c.246.126.624.252 1.014.252c.42 0 .642-.174.642-.438c0-.252-.192-.396-.678-.57c-.672-.234-1.109-.605-1.109-1.193c0-.689.575-1.217 1.529-1.217c.455 0 .791.096 1.031.203l-.204.738a1.9 1.9 0 0 0-.846-.192c-.396 0-.587.181-.587.39c0 .258.228.372.749.57c.714.264 1.05.636 1.05 1.205c-.001.678-.523 1.253-1.632 1.253m3.24 0c-.461 0-.917-.119-1.145-.245l.186-.756c.246.126.624.252 1.014.252c.42 0 .642-.174.642-.438c0-.252-.192-.396-.678-.57c-.672-.234-1.109-.605-1.109-1.193c0-.689.575-1.217 1.529-1.217c.455 0 .791.096 1.031.203l-.204.738a1.9 1.9 0 0 0-.846-.192c-.396 0-.587.181-.587.39c0 .258.228.372.749.57c.714.264 1.05.636 1.05 1.205c0 .678-.523 1.253-1.632 1.253M14 9h-1V4l5 5z"/></symbol><symbol id="hd-icon-bxs-file-doc" viewBox="0 0 24 24"><path fill="currentColor" d="M12.186 14.552c-.617 0-.977.587-.977 1.373c0 .791.371 1.35.983 1.35c.617 0 .971-.588.971-1.374c0-.726-.348-1.349-.977-1.349"/><path fill="currentColor" d="M14 2H6a2 2 0 0 0-2 2v16a2 2 0 0 0 2 2h12a2 2 0 0 0 2-2V8zM9.155 17.454c-.426.354-1.073.521-1.864.521c-.475 0-.81-.03-1.038-.06v-3.971a8 8 0 0 1 1.235-.083c.768 0 1.266.138 1.655.432c.42.312.684.81.684 1.522c0 .775-.282 1.309-.672 1.639m2.99.546c-1.2 0-1.901-.906-1.901-2.058c0-1.211.773-2.116 1.967-2.116c1.241 0 1.919.929 1.919 2.045c-.001 1.325-.805 2.129-1.985 2.129m4.655-.762c.275 0 .581-.061.762-.132l.138.713c-.168.084-.546.174-1.037.174c-1.397 0-2.117-.869-2.117-2.021c0-1.379.983-2.146 2.207-2.146c.474 0 .833.096.995.18l-.186.726a2 2 0 0 0-.768-.15c-.726 0-1.29.438-1.29 1.338c0 .809.48 1.318 1.296 1.318M14 9h-1V4l5 5z"/><path fill="currentColor" d="M7.584 14.563c-.203 0-.335.018-.413.036v2.645c.078.018.204.018.317.018c.828.006 1.367-.449 1.367-1.415c.006-.84-.485-1.284-1.271-1.284"/></symbol><symbol id="hd-icon-bxs-file-export" viewBox="0 0 24 24"><path fill="currentColor" d="M18 22a2 2 0 0 0 2-2v-5l-5 4v-3H8v-2h7v-3l5 4V8l-6-6H6a2 2 0 0 0-2 2v16a2 2 0 0 0 2 2zM13 4l5 5h-5z"/></symbol><symbol id="hd-icon-bxs-file-find" viewBox="0 0 24 24"><path fill="currentColor" d="M6 22h12c.178 0 .348-.03.512-.074l-3.759-3.759A4.97 4.97 0 0 1 12 19c-2.757 0-5-2.243-5-5s2.243-5 5-5s5 2.243 5 5a4.96 4.96 0 0 1-.833 2.753l3.759 3.759c.044-.164.074-.334.074-.512V8l-6-6H6a2 2 0 0 0-2 2v16a2 2 0 0 0 2 2"/><circle cx="12" cy="14" r="3" fill="currentColor"/></symbol><symbol id="hd-icon-bxs-file-gif" viewBox="0 0 24 24"><path fill="currentColor" d="M14 2H6a2 2 0 0 0-2 2v16a2 2 0 0 0 2 2h12a2 2 0 0 0 2-2V8zm-2.667 15.772A4.5 4.5 0 0 1 9.984 18c-.737 0-1.271-.186-1.644-.546c-.371-.348-.575-.875-.569-1.469c.006-1.344.983-2.111 2.309-2.111c.521 0 .924.103 1.121.198l-.191.731c-.222-.096-.498-.174-.941-.174c-.762 0-1.338.432-1.338 1.308c0 .833.522 1.325 1.271 1.325c.21 0 .378-.024.45-.061v-.846h-.624v-.713h1.505zm1.634.186h-.918v-4.042h.918zm3.262-3.292h-1.553v.923h1.451v.744h-1.451v1.625h-.918v-4.042h2.471zM14 9h-1V4l5 5z"/></symbol><symbol id="hd-icon-bxs-file-html" viewBox="0 0 24 24"><path fill="currentColor" d="M14 2H6a2 2 0 0 0-2 2v16a2 2 0 0 0 2 2h12a2 2 0 0 0 2-2V8zm-1 2l5 5h-5zM8.531 18h-.76v-1.411H6.515V18h-.767v-3.373h.767v1.296h1.257v-1.296h.76zm3-2.732h-.921V18h-.766v-2.732h-.905v-.641h2.592zM14.818 18l-.05-1.291c-.017-.405-.03-.896-.03-1.387h-.016c-.104.431-.245.911-.375 1.307l-.41 1.316h-.597l-.359-1.307a15 15 0 0 1-.306-1.316h-.011c-.021.456-.034.976-.059 1.396L12.545 18h-.705l.216-3.373h1.015l.331 1.126c.104.391.21.811.284 1.206h.017c.095-.391.209-.836.32-1.211l.359-1.121h.996L15.563 18zm3.434 0h-2.108v-3.373h.767v2.732h1.342z"/></symbol><symbol id="hd-icon-bxs-file-image" viewBox="0 0 24 24"><path fill="currentColor" d="M6 22h12a2 2 0 0 0 2-2V8l-6-6H6a2 2 0 0 0-2 2v16a2 2 0 0 0 2 2m7-18l5 5h-5zm-4.5 7a1.5 1.5 0 1 1-.001 3.001A1.5 1.5 0 0 1 8.5 11m.5 5l1.597 1.363L13 13l4 6H7z"/></symbol><symbol id="hd-icon-bxs-file-import" viewBox="0 0 24 24"><path fill="currentColor" d="M20 14V8l-6-6H6a2 2 0 0 0-2 2v16a2 2 0 0 0 2 2h12a2 2 0 0 0 2-2v-4h-7v3l-5-4l5-4v3zM13 4l5 5h-5z"/></symbol><symbol id="hd-icon-bxs-file-jpg" viewBox="0 0 24 24"><path fill="currentColor" d="M14 2H6a2 2 0 0 0-2 2v16a2 2 0 0 0 2 2h12a2 2 0 0 0 2-2V8zM9.239 16.446c0 1.152-.551 1.554-1.438 1.554c-.21 0-.486-.036-.665-.097l.101-.737c.127.042.289.072.469.072c.384 0 .623-.174.623-.804v-2.543h.911zm3.294-.365c-.313.293-.773.426-1.313.426c-.12 0-.228-.007-.312-.019v1.445h-.906v-3.988a7.5 7.5 0 0 1 1.236-.083c.563 0 .965.107 1.234.323c.259.204.433.54.433.936s-.133.732-.372.96m4.331 1.667c-.28.096-.815.228-1.349.228c-.737 0-1.271-.186-1.643-.546c-.371-.348-.575-.875-.57-1.469c.007-1.344.983-2.111 2.309-2.111c.521 0 .924.103 1.121.198l-.191.731c-.222-.096-.497-.174-.941-.174c-.761 0-1.338.432-1.338 1.308c0 .833.523 1.325 1.271 1.325c.211 0 .378-.024.451-.061v-.846h-.624v-.713h1.504zM14 9h-1V4l5 5z"/><path fill="currentColor" d="M11.285 14.552c-.186 0-.312.018-.377.036v1.193c.077.018.174.023.307.023c.484 0 .784-.246.784-.659c0-.372-.257-.593-.714-.593"/></symbol><symbol id="hd-icon-bxs-file-js" viewBox="0 0 24 24"><path fill="currentColor" d="M14 2H6a2 2 0 0 0-2 2v16a2 2 0 0 0 2 2h12a2 2 0 0 0 2-2V8zm-2.745 14.186c0 1.345-.644 1.814-1.681 1.814c-.245 0-.567-.042-.777-.112l.119-.861c.147.049.336.084.546.084c.448 0 .729-.203.729-.938v-2.97h1.064zm2.043 1.807c-.539 0-1.071-.141-1.337-.287l.217-.883c.287.147.729.294 1.184.294c.491 0 .749-.203.749-.511c0-.295-.224-.463-.791-.666c-.784-.272-1.295-.707-1.295-1.394c0-.806.672-1.422 1.786-1.422c.533 0 .925.112 1.205.238l-.238.861c-.189-.091-.525-.224-.987-.224s-.687.21-.687.455c0 .301.267.435.875.665c.834.309 1.226.742 1.226 1.408c-.002.793-.61 1.466-1.907 1.466M14 9h-1V4l5 5z"/></symbol><symbol id="hd-icon-bxs-file-json" viewBox="0 0 24 24"><path fill="currentColor" d="M12.823 15.122c-.517 0-.816.491-.816 1.146c0 .661.311 1.126.82 1.126c.517 0 .812-.49.812-1.146c0-.604-.291-1.126-.816-1.126"/><path fill="currentColor" d="M14 2H6a2 2 0 0 0-2 2v16a2 2 0 0 0 2 2h12a2 2 0 0 0 2-2V8zM8.022 16.704c0 .961-.461 1.296-1.2 1.296c-.176 0-.406-.029-.557-.08l.086-.615c.104.035.239.06.391.06c.319 0 .52-.145.52-.67v-2.122h.761zm1.459 1.291c-.385 0-.766-.1-.955-.205l.155-.631c.204.105.521.211.846.211c.35 0 .534-.146.534-.365c0-.211-.159-.331-.564-.476c-.562-.195-.927-.506-.927-.996c0-.576.481-1.017 1.277-1.017c.38 0 .659.08.861.171l-.172.615c-.135-.065-.375-.16-.705-.16s-.491.15-.491.325c0 .215.19.311.627.476c.596.22.876.53.876 1.006c.001.566-.436 1.046-1.362 1.046m3.306.005c-1.001 0-1.586-.755-1.586-1.716c0-1.012.646-1.768 1.642-1.768c1.035 0 1.601.776 1.601 1.707C14.443 17.33 13.773 18 12.787 18m4.947-.055h-.802l-.721-1.302a13 13 0 0 1-.585-1.19l-.016.005c.021.445.031.921.031 1.472v1.016h-.701v-3.373h.891l.701 1.236c.2.354.4.775.552 1.155h.014c-.05-.445-.065-.9-.065-1.406v-.985h.702zM14 9h-1V4l5 5z"/></symbol><symbol id="hd-icon-bxs-file-md" viewBox="0 0 24 24"><path fill="currentColor" d="M14.481 14.015c-.238 0-.393.021-.483.042v3.089c.091.021.237.021.371.021c.966.007 1.597-.525 1.597-1.653c.007-.981-.568-1.499-1.485-1.499"/><path fill="currentColor" d="M14 2H6a2 2 0 0 0-2 2v16a2 2 0 0 0 2 2h12a2 2 0 0 0 2-2V8zm-2.934 15.951l-.07-1.807a53 53 0 0 1-.042-1.94h-.021a26 26 0 0 1-.525 1.828l-.574 1.842H9l-.504-1.828a22 22 0 0 1-.428-1.842h-.013c-.028.638-.049 1.366-.084 1.954l-.084 1.793h-.988L7.2 13.23h1.422l.462 1.576c.147.546.295 1.135.399 1.688h.021a40 40 0 0 1 .448-1.694l.504-1.569h1.394l.26 4.721h-1.044zm5.25-.56c-.498.413-1.253.609-2.178.609a9 9 0 0 1-1.212-.07v-4.636a9.5 9.5 0 0 1 1.443-.099c.896 0 1.478.161 1.933.505c.49.364.799.945.799 1.778c0 .904-.33 1.528-.785 1.913M14 9h-1V4l5 5z"/></symbol><symbol id="hd-icon-bxs-file-pdf" viewBox="0 0 24 24"><path fill="currentColor" d="M8.267 14.68c-.184 0-.308.018-.372.036v1.178c.076.018.171.023.302.023c.479 0 .774-.242.774-.651c0-.366-.254-.586-.704-.586m3.487.012c-.2 0-.33.018-.407.036v2.61c.077.018.201.018.313.018c.817.006 1.349-.444 1.349-1.396c.006-.83-.479-1.268-1.255-1.268"/><path fill="currentColor" d="M14 2H6a2 2 0 0 0-2 2v16a2 2 0 0 0 2 2h12a2 2 0 0 0 2-2V8zM9.498 16.19c-.309.29-.765.42-1.296.42a2 2 0 0 1-.308-.018v1.426H7v-3.936A7.6 7.6 0 0 1 8.219 14c.557 0 .953.106 1.22.319c.254.202.426.533.426.923c-.001.392-.131.723-.367.948m3.807 1.355c-.42.349-1.059.515-1.84.515c-.468 0-.799-.03-1.024-.06v-3.917A8 8 0 0 1 11.66 14c.757 0 1.249.136 1.633.426c.415.308.675.799.675 1.504c0 .763-.279 1.29-.663 1.615M17 14.77h-1.532v.911H16.9v.734h-1.432v1.604h-.906V14.03H17zM14 9h-1V4l5 5z"/></symbol><symbol id="hd-icon-bxs-file-plus" viewBox="0 0 24 24"><path fill="currentColor" d="M6 22h12a2 2 0 0 0 2-2V8l-6-6H6a2 2 0 0 0-2 2v16a2 2 0 0 0 2 2m7-18l5 5h-5zM8 14h3v-3h2v3h3v2h-3v3h-2v-3H8z"/></symbol><symbol id="hd-icon-bxs-file-png" viewBox="0 0 24 24"><path fill="currentColor" d="M7.782 14.576c-.186 0-.312.018-.377.036v1.193c.077.018.174.023.306.023c.485 0 .785-.246.785-.659c0-.371-.258-.593-.714-.593"/><path fill="currentColor" d="M14 2H6a2 2 0 0 0-2 2v16a2 2 0 0 0 2 2h12a2 2 0 0 0 2-2V8zM9.03 16.105c-.313.293-.774.426-1.313.426c-.12 0-.229-.007-.312-.019v1.445h-.906V13.97a7.5 7.5 0 0 1 1.235-.083c.563 0 .966.107 1.235.323c.258.204.432.54.432.936s-.131.731-.371.959m4.302 1.853h-.96l-.863-1.56c-.24-.432-.504-.953-.701-1.427l-.019.006c.024.534.036 1.104.036 1.763v1.218h-.84v-4.042h1.067l.84 1.481c.24.426.479.93.659 1.385h.019a15 15 0 0 1-.078-1.685v-1.182h.84zm4.169-.186a4.5 4.5 0 0 1-1.349.228c-.737 0-1.271-.186-1.644-.546c-.371-.348-.575-.875-.569-1.469c.006-1.344.983-2.111 2.309-2.111c.521 0 .924.103 1.121.198l-.191.731c-.222-.096-.498-.174-.941-.174c-.762 0-1.338.432-1.338 1.308c0 .833.522 1.325 1.271 1.325c.21 0 .378-.024.45-.061v-.846h-.624v-.713h1.505zM14 9h-1V4l5 5z"/></symbol><symbol id="hd-icon-bxs-file-txt" viewBox="0 0 24 24"><path fill="currentColor" d="M14 2H6a2 2 0 0 0-2 2v16a2 2 0 0 0 2 2h12a2 2 0 0 0 2-2V8zM9.998 14.768H8.895v3.274h-.917v-3.274H6.893V14h3.105zm2.725 3.274l-.365-.731c-.15-.282-.246-.492-.359-.726h-.013c-.083.233-.185.443-.312.726l-.335.731h-1.045l1.171-2.045L10.336 14h1.05l.354.738c.121.245.21.443.306.671h.013c.096-.258.174-.438.276-.671l.341-.738h1.043l-1.139 1.973l1.198 2.069zm4.384-3.274h-1.104v3.274h-.917v-3.274h-1.085V14h3.105zM14 9h-1V4l5 5z"/></symbol><symbol id="hd-icon-bxs-film" viewBox="0 0 24 24"><path fill="currentColor" d="M19 4v1h-2V3H7v2H5V3H3v18h2v-2h2v2h10v-2h2v2h2V3h-2zM5 7h2v2H5zm0 4h2v2H5zm0 6v-2h2v2zm12 0v-2h2v2zm2-4h-2v-2h2zm-2-4V7h2v2z"/></symbol><symbol id="hd-icon-bxs-filter-alt" viewBox="0 0 24 24"><path fill="currentColor" d="M13 20v-4.586L20.414 8c.375-.375.586-.884.586-1.415V4a1 1 0 0 0-1-1H4a1 1 0 0 0-1 1v2.585c0 .531.211 1.04.586 1.415L11 15.414V22z"/></symbol><symbol id="hd-icon-bxs-first-aid" viewBox="0 0 24 24"><path fill="currentColor" d="M20 6h-3V4a2 2 0 0 0-2-2H9a2 2 0 0 0-2 2v2H4a2 2 0 0 0-2 2v10a2 2 0 0 0 2 2h16a2 2 0 0 0 2-2V8a2 2 0 0 0-2-2M9 4h6v2H9zm7 10h-3v3h-2v-3H8v-2h3V9h2v3h3z"/></symbol><symbol id="hd-icon-bxs-flag" viewBox="0 0 24 24"><path fill="currentColor" d="M19 4H6V2H4v18H3v2h4v-2H6v-5h13a1 1 0 0 0 1-1V5a1 1 0 0 0-1-1"/></symbol><symbol id="hd-icon-bxs-flag-alt" viewBox="0 0 24 24"><path fill="currentColor" d="m14.303 6l-3-2H6V2H4v20h2v-8h4.697l3 2H20V6z"/></symbol><symbol id="hd-icon-bxs-flag-checkered" viewBox="0 0 24 24"><path fill="currentColor" d="M4 2v18H3v2h4v-2H6v-5h13a1 1 0 0 0 1-1V4a1 1 0 0 0-1-1H6V2zm4 3v2h2V5h2v2h2V5h2v2h2v2h-2v2h2v2h-2v-2h-2v2h-2v-2h-2v2H8v-2H6V9h2V7H6V5z"/><path fill="currentColor" d="M8 9h2v2H8zm4 0h2v2h-2zm-2-2h2v2h-2zm4 0h2v2h-2z"/></symbol><symbol id="hd-icon-bxs-flame" viewBox="0 0 24 24"><path fill="currentColor" d="M12.579 2.393a.98.98 0 0 0-1.153.006C9.592 3.728 4 8.252 4 14c0 3.247 1.948 6.043 4.734 7.296A3.97 3.97 0 0 1 8 19c-.017-3.221 3.558-6.893 3.71-7a.5.5 0 0 1 .579 0c.152.107 3.711 2.974 3.711 7.002c0 .854-.275 1.643-.733 2.294C18.052 20.043 20 17.248 20 14.005c0-5.861-5.582-10.307-7.421-11.612"/></symbol><symbol id="hd-icon-bxs-flask" viewBox="0 0 24 24"><path fill="currentColor" d="M15 9.783V4h1V2H8v2h1v5.783l-4.268 9.389a1.99 1.99 0 0 0 .14 1.911A1.99 1.99 0 0 0 6.553 22h10.895a1.99 1.99 0 0 0 1.681-.917c.37-.574.423-1.289.14-1.911zm-4.09.631c.06-.13.09-.271.09-.414V4h2v6c0 .143.03.284.09.414L15.177 15H8.825z"/></symbol><symbol id="hd-icon-bxs-florist" viewBox="0 0 24 24"><path fill="currentColor" d="M10.84 21.871L12 22a10.22 10.22 0 0 0-9.013-8.891L2 13l.021.173a10 10 0 0 0 8.819 8.698m11.139-8.698L22 13l-.987.109c-4.7.523-8.427 4.2-9.013 8.891l1.16-.129a10 10 0 0 0 8.819-8.698M18.063 5.5a2.5 2.5 0 0 0-3.415-.915c-.062.035-.111.081-.168.121c.005-.069.02-.136.02-.206a2.5 2.5 0 1 0-5 0c0 .07.015.137.021.206c-.057-.04-.107-.086-.168-.121a2.5 2.5 0 0 0-2.5 4.33c.061.035.126.056.188.085c-.062.029-.127.05-.188.085a2.5 2.5 0 0 0 2.5 4.33c.062-.035.111-.081.168-.121c-.006.069-.021.136-.021.206a2.5 2.5 0 1 0 5 0c0-.07-.015-.137-.021-.206c.057.04.106.086.168.121a2.5 2.5 0 0 0 2.5-4.33c-.061-.035-.126-.056-.188-.085c.063-.029.127-.05.188-.085a2.5 2.5 0 0 0 .916-3.415M12 12a3 3 0 1 1 0-6a3 3 0 0 1 0 6"/></symbol><symbol id="hd-icon-bxs-folder" viewBox="0 0 24 24"><path fill="currentColor" d="M20 5h-9.586L8.707 3.293A1 1 0 0 0 8 3H4c-1.103 0-2 .897-2 2v14c0 1.103.897 2 2 2h16c1.103 0 2-.897 2-2V7c0-1.103-.897-2-2-2"/></symbol><symbol id="hd-icon-bxs-folder-minus" viewBox="0 0 24 24"><path fill="currentColor" d="M20 5h-9.586L8.707 3.293A1 1 0 0 0 8 3H4c-1.103 0-2 .897-2 2v14c0 1.103.897 2 2 2h16c1.103 0 2-.897 2-2V7c0-1.103-.897-2-2-2m-4 9H8v-2h8z"/></symbol><symbol id="hd-icon-bxs-folder-open" viewBox="0 0 24 24"><path fill="currentColor" d="M2.165 19.551c.186.28.499.449.835.449h15c.4 0 .762-.238.919-.606l3-7A.998.998 0 0 0 21 11h-1V8c0-1.103-.897-2-2-2h-6.655L8.789 4H4c-1.103 0-2 .897-2 2v13h.007a1 1 0 0 0 .158.551M18 8v3H6c-.4 0-.762.238-.919.606L4 14.129V8z"/></symbol><symbol id="hd-icon-bxs-folder-plus" viewBox="0 0 24 24"><path fill="currentColor" d="M20 5h-9.586L8.707 3.293A1 1 0 0 0 8 3H4c-1.103 0-2 .897-2 2v14c0 1.103.897 2 2 2h16c1.103 0 2-.897 2-2V7c0-1.103-.897-2-2-2m-4 9h-3v3h-2v-3H8v-2h3V9h2v3h3z"/></symbol><symbol id="hd-icon-bxs-food-menu" viewBox="0 0 24 24"><path fill="currentColor" d="M3 2h2v20H3zm16 0H6v20h13c1.103 0 2-.897 2-2V4c0-1.103-.897-2-2-2m-1 10H9v-2h9zm0-4H9V6h9z"/></symbol><symbol id="hd-icon-bxs-fridge" viewBox="0 0 24 24"><path fill="currentColor" d="M18 2H6c-1.103 0-2 .897-2 2v5h4V6h2v3h10V4c0-1.103-.897-2-2-2m-8 13H8v-5H4v10c0 1.103.897 2 2 2h12c1.103 0 2-.897 2-2V10H10z"/></symbol><symbol id="hd-icon-bxs-game" viewBox="0 0 24 24"><path fill="currentColor" d="M12 22c3.719 0 7.063-2.035 8.809-5.314L13 12l7.809-4.686C19.063 4.035 15.719 2 12 2C6.486 2 2 6.486 2 12s4.486 10 10 10m-.5-16a1.5 1.5 0 1 1-.001 3.001A1.5 1.5 0 0 1 11.5 6"/></symbol><symbol id="hd-icon-bxs-gas-pump" viewBox="0 0 24 24"><path fill="currentColor" d="m19.616 6.48l.014-.017l-4-3.24l-1.26 1.554l2.067 1.674a2.99 2.99 0 0 0-1.394 3.062c.15.899.769 1.676 1.57 2.111c.895.487 1.68.442 2.378.194L18.976 18a.996.996 0 0 1-1.39.922a1 1 0 0 1-.318-.217a1 1 0 0 1-.291-.705L17 16a2.98 2.98 0 0 0-.877-2.119A3 3 0 0 0 14 13h-1V5a2 2 0 0 0-2-2H4a2 2 0 0 0-2 2v14a2 2 0 0 0 2 2h7a2 2 0 0 0 2-2v-4h1q.205 0 .391.078a1.03 1.03 0 0 1 .531.533A1 1 0 0 1 15 16l-.024 2c0 .406.079.799.236 1.168c.151.359.368.68.641.951a2.97 2.97 0 0 0 2.123.881q.611 0 1.168-.236c.358-.15.68-.367.951-.641A2.98 2.98 0 0 0 20.976 18L21 9a3 3 0 0 0-1.384-2.52M11 8H4V5h7zm7 2a1 1 0 1 1 0-2a1 1 0 0 1 0 2"/></symbol><symbol id="hd-icon-bxs-ghost" viewBox="0 0 24 24"><path fill="currentColor" d="M3 11v8h.051c.245 1.692 1.69 3 3.449 3c1.174 0 2.074-.417 2.672-1.174a3.99 3.99 0 0 0 5.668-.014c.601.762 1.504 1.188 2.66 1.188c1.93 0 3.5-1.57 3.5-3.5V11c0-4.962-4.037-9-9-9s-9 4.038-9 9m6 1c-1.103 0-2-.897-2-2s.897-2 2-2s2 .897 2 2s-.897 2-2 2m6-4c1.103 0 2 .897 2 2s-.897 2-2 2s-2-.897-2-2s.897-2 2-2"/></symbol><symbol id="hd-icon-bxs-gift" viewBox="0 0 24 24"><path fill="currentColor" d="M5 12H4v8a2 2 0 0 0 2 2h5V12zm13 0h-5v10h5a2 2 0 0 0 2-2v-8zm.791-5A5 5 0 0 0 19 5.5C19 3.57 17.43 2 15.5 2c-1.622 0-2.705 1.482-3.404 3.085C11.407 3.57 10.269 2 8.5 2C6.57 2 5 3.57 5 5.5c0 .596.079 1.089.209 1.5H2v4h9V9h2v2h9V7zM7 5.5C7 4.673 7.673 4 8.5 4c.888 0 1.714 1.525 2.198 3H8c-.374 0-1 0-1-1.5M15.5 4c.827 0 1.5.673 1.5 1.5C17 7 16.374 7 16 7h-2.477c.51-1.576 1.251-3 1.977-3"/></symbol><symbol id="hd-icon-bxs-graduation" viewBox="0 0 24 24"><path fill="currentColor" d="M2 7v1l11 4l9-4V7L11 4z"/><path fill="currentColor" d="M4 11v4.267c0 1.621 4.001 3.893 9 3.734c4-.126 6.586-1.972 7-3.467q.037-.133.037-.268V11L13 14l-5-1.667v3.213l-1-.364V12z"/></symbol><symbol id="hd-icon-bxs-grid" viewBox="0 0 24 24"><path fill="currentColor" d="M4 4h4v4H4zm6 0h4v4h-4zm6 0h4v4h-4zM4 10h4v4H4zm6 0h4v4h-4zm6 0h4v4h-4zM4 16h4v4H4zm6 0h4v4h-4zm6 0h4v4h-4z"/></symbol><symbol id="hd-icon-bxs-grid-alt" viewBox="0 0 24 24"><path fill="currentColor" d="M4 11h6a1 1 0 0 0 1-1V4a1 1 0 0 0-1-1H4a1 1 0 0 0-1 1v6a1 1 0 0 0 1 1m10 0h6a1 1 0 0 0 1-1V4a1 1 0 0 0-1-1h-6a1 1 0 0 0-1 1v6a1 1 0 0 0 1 1M4 21h6a1 1 0 0 0 1-1v-6a1 1 0 0 0-1-1H4a1 1 0 0 0-1 1v6a1 1 0 0 0 1 1m10 0h6a1 1 0 0 0 1-1v-6a1 1 0 0 0-1-1h-6a1 1 0 0 0-1 1v6a1 1 0 0 0 1 1"/></symbol><symbol id="hd-icon-bxs-group" viewBox="0 0 24 24"><path fill="currentColor" d="M9.5 12c2.206 0 4-1.794 4-4s-1.794-4-4-4s-4 1.794-4 4s1.794 4 4 4m1.5 1H8c-3.309 0-6 2.691-6 6v1h15v-1c0-3.309-2.691-6-6-6"/><path fill="currentColor" d="M16.604 11.048a5.67 5.67 0 0 0 .751-3.44c-.179-1.784-1.175-3.361-2.803-4.44l-1.105 1.666c1.119.742 1.8 1.799 1.918 2.974a3.7 3.7 0 0 1-1.072 2.986l-1.192 1.192l1.618.475C18.951 13.701 19 17.957 19 18h2c0-1.789-.956-5.285-4.396-6.952"/></symbol><symbol id="hd-icon-bxs-guitar-amp" viewBox="0 0 24 24"><path fill="currentColor" d="M20 6h-2V4c0-1.103-.897-2-2-2H8c-1.103 0-2 .897-2 2v2H4c-1.103 0-2 .897-2 2v12c0 1.103.897 2 2 2h16c1.103 0 2-.897 2-2V8c0-1.103-.897-2-2-2M8 4h8v2H8zM6 19a1 1 0 1 1 0-2a1 1 0 0 1 0 2m0-3a1 1 0 1 1 0-2a1 1 0 0 1 0 2m3 3a1 1 0 1 1 0-2a1 1 0 0 1 0 2m0-3a1 1 0 1 1 0-2a1 1 0 0 1 0 2m3 3a1 1 0 1 1 0-2a1 1 0 0 1 0 2m0-3a1 1 0 1 1 0-2a1 1 0 0 1 0 2m3 3a1 1 0 1 1 0-2a1 1 0 0 1 0 2m0-3a1 1 0 1 1 0-2a1 1 0 0 1 0 2m3 3a1 1 0 1 1 0-2a1 1 0 0 1 0 2m0-3a1 1 0 1 1 0-2a1 1 0 0 1 0 2m2-4H4V8h16z"/><path fill="currentColor" d="M14 9h2v2h-2zm3 0h2v2h-2z"/></symbol><symbol id="hd-icon-bxs-hand" viewBox="0 0 24 24"><path fill="currentColor" d="M20.5 5A1.5 1.5 0 0 0 19 6.5V11h-1V4.5a1.5 1.5 0 0 0-3 0V11h-1V3.5a1.5 1.5 0 0 0-3 0V11h-1V5.5a1.5 1.5 0 0 0-3 0v10.81l-2.22-3.6a1.5 1.5 0 0 0-2.56 1.58l3.31 5.34A5 5 0 0 0 9.78 22H17a5 5 0 0 0 5-5V6.5A1.5 1.5 0 0 0 20.5 5"/></symbol><symbol id="hd-icon-bxs-hand-down" viewBox="0 0 24 24"><path fill="currentColor" d="M16.278 2.231a1 1 0 0 0-.64-.231H5a2 2 0 0 0-2 2v7.21a2 2 0 0 0 1.779 1.987L12 14v6a2 2 0 0 0 4 0V8l3.03 1.212a2 2 0 0 0 2.641-1.225l.113-.34a1 1 0 0 0-.309-1.084z"/></symbol><symbol id="hd-icon-bxs-hand-left" viewBox="0 0 24 24"><path fill="currentColor" d="M20 3h-7.21a2 2 0 0 0-1.987 1.779L10 12H4a2 2 0 0 0 0 4h12l-1.212 3.03a2 2 0 0 0 1.225 2.641l.34.113a1 1 0 0 0 1.084-.309l4.332-5.197c.149-.179.231-.406.231-.64V5a2 2 0 0 0-2-2"/></symbol><symbol id="hd-icon-bxs-hand-right" viewBox="0 0 24 24"><path fill="currentColor" d="M20 8H8l1.212-3.03a2 2 0 0 0-1.225-2.641l-.34-.113a1 1 0 0 0-1.084.309L2.231 7.722a1 1 0 0 0-.231.64V19a2 2 0 0 0 2 2h7.21a2 2 0 0 0 1.987-1.779L14 12h6a2 2 0 0 0 0-4"/></symbol><symbol id="hd-icon-bxs-hand-up" viewBox="0 0 24 24"><path fill="currentColor" d="M19.221 10.803L12 10V4a2 2 0 0 0-4 0v12l-3.031-1.212a2 2 0 0 0-2.64 1.225l-.113.34a1 1 0 0 0 .309 1.084l5.197 4.332c.179.149.406.231.64.231H19a2 2 0 0 0 2-2v-7.21a2 2 0 0 0-1.779-1.987"/></symbol><symbol id="hd-icon-bxs-happy" viewBox="0 0 24 24"><path fill="currentColor" d="M12 2C6.486 2 2 6.486 2 12s4.486 10 10 10s10-4.486 10-10S17.514 2 12 2m3.493 7a1.494 1.494 0 1 1-.001 2.987A1.494 1.494 0 0 1 15.493 9M8.5 9a1.5 1.5 0 1 1-.001 3.001A1.5 1.5 0 0 1 8.5 9m3.5 9c-4 0-5-4-5-4h10s-1 4-5 4"/></symbol><symbol id="hd-icon-bxs-happy-alt" viewBox="0 0 24 24"><path fill="currentColor" d="M12 2C6.486 2 2 6.486 2 12s4.486 10 10 10s10-4.486 10-10S17.514 2 12 2m3.493 6a1.494 1.494 0 1 1-.001 2.987A1.494 1.494 0 0 1 15.493 8M8.5 8a1.5 1.5 0 1 1-.001 3.001A1.5 1.5 0 0 1 8.5 8M12 18c-5 0-6-5-6-5h12s-1 5-6 5"/></symbol><symbol id="hd-icon-bxs-happy-beaming" viewBox="0 0 24 24"><path fill="currentColor" d="M12 2C6.486 2 2 6.486 2 12s4.486 10 10 10s10-4.486 10-10S17.514 2 12 2M8 9c2.201 0 3 1.794 3 3H9c-.012-.45-.194-1-1-1s-.988.55-1 1.012L5 12c0-1.206.799-3 3-3m4 9c-4 0-5-4-5-4h10s-1 4-5 4m5-6c-.012-.45-.194-1-1-1s-.988.55-1 1.012L13 12c0-1.206.799-3 3-3s3 1.794 3 3z"/></symbol><symbol id="hd-icon-bxs-happy-heart-eyes" viewBox="0 0 24 24"><path fill="currentColor" d="M12 2C6.486 2 2 6.486 2 12s4.486 10 10 10s10-4.486 10-10S17.514 2 12 2M6.435 8.467A1.49 1.49 0 0 1 8.502 8.4a1.49 1.49 0 0 1 2.065.033c.597.592.604 1.521.018 2.118l-2.05 2.083l-2.082-2.05a1.484 1.484 0 0 1-.018-2.117M12 18c-4 0-5-4-5-4h10s-1 4-5 4m5.585-7.449l-2.05 2.083l-2.082-2.05a1.485 1.485 0 0 1-.019-2.117a1.49 1.49 0 0 1 2.068-.067a1.49 1.49 0 0 1 2.065.033c.597.591.605 1.521.018 2.118"/></symbol><symbol id="hd-icon-bxs-hard-hat" viewBox="0 0 24 24"><path fill="currentColor" d="M20 18v-3a8 8 0 0 0-5-7.4V13h-1V5h-4v8H9V7.6A8 8 0 0 0 4 15v3H2v2h20v-2z"/></symbol><symbol id="hd-icon-bxs-hdd" viewBox="0 0 24 24"><path fill="currentColor" d="M20 13H4a2 2 0 0 0-2 2v4a2 2 0 0 0 2 2h16a2 2 0 0 0 2-2v-4a2 2 0 0 0-2-2m-4 5h-2v-2h2zm4 0h-2v-2h2zm.775-7H21l-1.652-7.434A2 2 0 0 0 17.396 2H6.604a2 2 0 0 0-1.952 1.566L3 11z"/></symbol><symbol id="hd-icon-bxs-heart" viewBox="0 0 24 24"><path fill="currentColor" d="M20.205 4.791a5.94 5.94 0 0 0-4.209-1.754A5.9 5.9 0 0 0 12 4.595a5.9 5.9 0 0 0-3.996-1.558a5.94 5.94 0 0 0-4.213 1.758c-2.353 2.363-2.352 6.059.002 8.412L12 21.414l8.207-8.207c2.354-2.353 2.355-6.049-.002-8.416"/></symbol><symbol id="hd-icon-bxs-heart-circle" viewBox="0 0 24 24"><path fill="currentColor" d="M12 2C6.486 2 2 6.486 2 12s4.486 10 10 10s10-4.486 10-10S17.514 2 12 2m4.186 10.74L12 16.926L7.814 12.74a2.745 2.745 0 0 1 0-3.907a2.745 2.745 0 0 1 3.906 0l.28.279l.279-.279a2.745 2.745 0 0 1 3.906 0a2.745 2.745 0 0 1 .001 3.907"/></symbol><symbol id="hd-icon-bxs-heart-square" viewBox="0 0 24 24"><path fill="currentColor" d="M4 21h16a1 1 0 0 0 1-1V4a1 1 0 0 0-1-1H4a1 1 0 0 0-1 1v16a1 1 0 0 0 1 1M7.812 8.907a2.746 2.746 0 0 1 3.907 0l.279.279l.278-.279a2.746 2.746 0 0 1 3.907 0a2.745 2.745 0 0 1 0 3.907L11.998 17l-4.187-4.186a2.747 2.747 0 0 1 .001-3.907"/></symbol><symbol id="hd-icon-bxs-help-circle" viewBox="0 0 24 24"><path fill="currentColor" d="M12 2C6.486 2 2 6.486 2 12s4.486 10 10 10s10-4.486 10-10S17.514 2 12 2m1 16h-2v-2h2zm.976-4.885c-.196.158-.385.309-.535.459c-.408.407-.44.777-.441.793v.133h-2v-.167c0-.118.029-1.177 1.026-2.174c.195-.195.437-.393.691-.599c.734-.595 1.216-1.029 1.216-1.627a1.934 1.934 0 0 0-3.867.001h-2C8.066 7.765 9.831 6 12 6s3.934 1.765 3.934 3.934c0 1.597-1.179 2.55-1.958 3.181"/></symbol><symbol id="hd-icon-bxs-hide" viewBox="0 0 24 24"><path fill="currentColor" d="M8.073 12.194L4.212 8.333c-1.52 1.657-2.096 3.317-2.106 3.351L2 12l.105.316C2.127 12.383 4.421 19 12.054 19c.929 0 1.775-.102 2.552-.273l-2.746-2.746a3.987 3.987 0 0 1-3.787-3.787M12.054 5c-1.855 0-3.375.404-4.642.998L3.707 2.293L2.293 3.707l18 18l1.414-1.414l-3.298-3.298c2.638-1.953 3.579-4.637 3.593-4.679l.105-.316l-.105-.316C21.98 11.617 19.687 5 12.054 5m1.906 7.546c.187-.677.028-1.439-.492-1.96s-1.283-.679-1.96-.492L10 8.586A3.96 3.96 0 0 1 12.054 8c2.206 0 4 1.794 4 4a3.94 3.94 0 0 1-.587 2.053z"/></symbol><symbol id="hd-icon-bxs-home" viewBox="0 0 24 24"><path fill="currentColor" d="m21.743 12.331l-9-10c-.379-.422-1.107-.422-1.486 0l-9 10a1 1 0 0 0-.17 1.076c.16.361.518.593.913.593h2v7a1 1 0 0 0 1 1h3a1 1 0 0 0 1-1v-4h4v4a1 1 0 0 0 1 1h3a1 1 0 0 0 1-1v-7h2a.998.998 0 0 0 .743-1.669"/></symbol><symbol id="hd-icon-bxs-home-alt-2" viewBox="0 0 24 24"><path fill="currentColor" d="M12.74 2.32a1 1 0 0 0-1.48 0l-9 10A1 1 0 0 0 3 14h2v7a1 1 0 0 0 1 1h12a1 1 0 0 0 1-1v-7h2a1 1 0 0 0 1-1a1 1 0 0 0-.26-.68z"/></symbol><symbol id="hd-icon-bxs-home-circle" viewBox="0 0 24 24"><path fill="currentColor" d="m21.743 12.331l-9-10c-.379-.422-1.107-.422-1.486 0l-9 10A1 1 0 0 0 3 14h2v7a1 1 0 0 0 1 1h12a1 1 0 0 0 1-1v-7h2a.998.998 0 0 0 .743-1.669M12 16a3 3 0 1 1 0-6a3 3 0 0 1 0 6"/></symbol><symbol id="hd-icon-bxs-home-heart" viewBox="0 0 24 24"><path fill="currentColor" d="M3 14h2v7a1 1 0 0 0 1 1h12a1 1 0 0 0 1-1v-7h2a1 1 0 0 0 .913-.593a1 1 0 0 0-.17-1.076l-9-10c-.379-.422-1.107-.422-1.486 0l-9 10A1 1 0 0 0 3 14m5.653-2.359a2.224 2.224 0 0 1 3.125 0l.224.22l.223-.22a2.225 2.225 0 0 1 3.126 0a2.13 2.13 0 0 1 0 3.07L12.002 18l-3.349-3.289a2.13 2.13 0 0 1 0-3.07"/></symbol><symbol id="hd-icon-bxs-home-smile" viewBox="0 0 24 24"><path fill="currentColor" d="M3 14h2v7a1 1 0 0 0 1 1h12a1 1 0 0 0 1-1v-7h2a1 1 0 0 0 .913-.593a1 1 0 0 0-.17-1.076l-9-10c-.379-.422-1.107-.422-1.486 0l-9 10A1 1 0 0 0 3 14m5.949-.316C8.98 13.779 9.762 16 12 16c2.269 0 3.042-2.287 3.05-2.311l1.9.621C16.901 14.461 15.703 18 12 18s-4.901-3.539-4.95-3.689z"/></symbol><symbol id="hd-icon-bxs-hot" viewBox="0 0 24 24"><path fill="currentColor" d="M16.5 8c0 1.5-.5 3.5-2.9 4.3c.7-1.7.8-3.4.3-5c-.7-2.1-3-3.7-4.6-4.6c-.4-.3-1.1.1-1 .7c0 1.1-.3 2.7-2 4.4C4.1 10 3 12.3 3 14.5C3 17.4 5 21 9 21c-4-4-1-7.5-1-7.5c.8 5.9 5 7.5 7 7.5c1.7 0 5-1.2 5-6.4c0-3.1-1.3-5.5-2.4-6.9c-.3-.5-1-.2-1.1.3"/></symbol><symbol id="hd-icon-bxs-hotel" viewBox="0 0 24 24"><circle cx="8" cy="11" r="3" fill="currentColor"/><path fill="currentColor" d="M18.205 7H12v8H4V6H2v14h2v-3h16v3h2v-4c0-.009-.005-.016-.005-.024H22V11c0-2.096-1.698-4-3.795-4"/></symbol><symbol id="hd-icon-bxs-hourglass" viewBox="0 0 24 24"><path fill="currentColor" d="M19 22h1v-2h-1v-1a7.01 7.01 0 0 0-3.433-6.02c-.355-.21-.567-.547-.567-.901v-.158c0-.354.212-.691.566-.9A7.02 7.02 0 0 0 19 5V4h1V2H4v2h1v1a7.02 7.02 0 0 0 3.434 6.021c.354.209.566.545.566.9v.158c0 .354-.212.691-.566.9A7.02 7.02 0 0 0 5 19v1H4v2zM17 4v1a5 5 0 0 1-1.004 3H8.004A5 5 0 0 1 7 5V4zM9.45 14.702c.971-.574 1.55-1.554 1.55-2.623V12h2v.079c0 1.068.579 2.049 1.551 2.623A4.98 4.98 0 0 1 16.573 17H7.427a4.98 4.98 0 0 1 2.023-2.298"/></symbol><symbol id="hd-icon-bxs-hourglass-bottom" viewBox="0 0 24 24"><path fill="currentColor" d="M5 2H4v2h1v1a7.01 7.01 0 0 0 3.433 6.02c.355.21.567.547.567.901v.158c0 .354-.212.691-.566.9A7.02 7.02 0 0 0 5 19v1H4v2h16v-2h-1v-1a7.02 7.02 0 0 0-3.434-6.021c-.354-.208-.566-.545-.566-.9v-.158c0-.354.212-.69.566-.9A7.02 7.02 0 0 0 19 5V4h1V2zm12 3a5.01 5.01 0 0 1-2.45 4.299A3.1 3.1 0 0 0 13.166 11h-2.332a3.1 3.1 0 0 0-1.385-1.702A5.01 5.01 0 0 1 7 5V4h10z"/></symbol><symbol id="hd-icon-bxs-hourglass-top" viewBox="0 0 24 24"><path fill="currentColor" d="M15.566 11.021A7.02 7.02 0 0 0 19 5V4h1V2H4v2h1v1a7.02 7.02 0 0 0 3.434 6.021c.354.208.566.545.566.9v.158c0 .354-.212.69-.566.9A7.02 7.02 0 0 0 5 19v1H4v2h16v-2h-1v-1a7.01 7.01 0 0 0-3.433-6.02c-.355-.21-.567-.547-.567-.901v-.158c0-.355.212-.692.566-.9M17 19v1H7v-1a5.01 5.01 0 0 1 2.45-4.299A3.1 3.1 0 0 0 10.834 13h2.332c.23.691.704 1.3 1.385 1.702A5.01 5.01 0 0 1 17 19"/></symbol><symbol id="hd-icon-bxs-id-card" viewBox="0 0 24 24"><path fill="currentColor" d="M20 4H4c-1.103 0-2 .897-2 2v12c0 1.103.897 2 2 2h16c1.103 0 2-.897 2-2V6c0-1.103-.897-2-2-2M8.715 8c1.151 0 2 .849 2 2s-.849 2-2 2s-2-.849-2-2s.848-2 2-2m3.715 8H5v-.465c0-1.373 1.676-2.785 3.715-2.785s3.715 1.412 3.715 2.785zM19 15h-4v-2h4zm0-4h-5V9h5z"/></symbol><symbol id="hd-icon-bxs-image" viewBox="0 0 24 24"><path fill="currentColor" d="M19.999 4h-16c-1.103 0-2 .897-2 2v12c0 1.103.897 2 2 2h16c1.103 0 2-.897 2-2V6c0-1.103-.897-2-2-2m-13.5 3a1.5 1.5 0 1 1 0 3a1.5 1.5 0 0 1 0-3m5.5 10h-7l4-5l1.5 2l3-4l5.5 7z"/></symbol><symbol id="hd-icon-bxs-image-add" viewBox="0 0 24 24"><path fill="currentColor" d="m9 13l3-4l3 4.5V12h4V5c0-1.103-.897-2-2-2H4c-1.103 0-2 .897-2 2v12c0 1.103.897 2 2 2h8v-4H5l3-4z"/><path fill="currentColor" d="M19 14h-2v3h-3v2h3v3h2v-3h3v-2h-3z"/></symbol><symbol id="hd-icon-bxs-image-alt" viewBox="0 0 24 24"><path fill="currentColor" d="M5 21h14a2 2 0 0 0 2-2V5a2 2 0 0 0-2-2H5a2 2 0 0 0-2 2v14a2 2 0 0 0 2 2m3-7l2.363 2.363L14 11l5 7H5z"/></symbol><symbol id="hd-icon-bxs-inbox" viewBox="0 0 24 24"><path fill="currentColor" d="M20 3H4c-1.103 0-2 .897-2 2v14a2 2 0 0 0 2 2h16a2 2 0 0 0 2-2V5c0-1.103-.897-2-2-2m-1 9h-3.142c-.446 1.722-1.997 3-3.858 3s-3.412-1.278-3.858-3H4V5h16v7z"/></symbol><symbol id="hd-icon-bxs-info-circle" viewBox="0 0 24 24"><path fill="currentColor" d="M12 2C6.486 2 2 6.486 2 12s4.486 10 10 10s10-4.486 10-10S17.514 2 12 2m1 15h-2v-6h2zm0-8h-2V7h2z"/></symbol><symbol id="hd-icon-bxs-info-square" viewBox="0 0 24 24"><path fill="currentColor" d="M3 4v16a1 1 0 0 0 1 1h16a1 1 0 0 0 1-1V4a1 1 0 0 0-1-1H4a1 1 0 0 0-1 1m8 3h2v2h-2zm0 4h2v6h-2z"/></symbol><symbol id="hd-icon-bxs-injection" viewBox="0 0 24 24"><path fill="currentColor" d="M12 5.61L9.24 8.35l3.31 3.31l-1.06 1.06l-3.31-3.31l-1.77 1.77l3.31 3.31l-1.06 1.06l-3.31-3.31l-2 2A2 2 0 0 0 3 16.66l1 1.89l-2.25 2.29l1.41 1.41L5.45 20l1.89 1a2 2 0 0 0 1 .26a2 2 0 0 0 1.42-.59L18.39 12zm7.8 3.59l-1.79-1.8l1.42-1.41l1.41 1.41l1.41-1.41l-4.24-4.24l-1.41 1.41l1.41 1.42l-1.41 1.41l-1.8-1.79l-1.74-1.75l-1.41 1.42l1.03 1.03v.01l6.41 6.41h.01l1.03 1.03l1.42-1.41l-1.74-1.74z"/></symbol><symbol id="hd-icon-bxs-institution" viewBox="0 0 24 24"><path fill="currentColor" d="m21.857 8.485l-3-5A1 1 0 0 0 18 3h-4.586l-.707-.707a1 1 0 0 0-1.414 0L10.586 3H6a1 1 0 0 0-.857.485l-3 5A1 1 0 0 0 2.002 9H2v10a1 1 0 0 0 1 1h18a1 1 0 0 0 1-1V9h-.002c0-.178-.046-.356-.141-.515M20 18h-6v-4h-4v4H4v-8h2.414l.293-.293l2-2L12 4.414l4.293 4.293l1 1l.293.293H20z"/><circle cx="11.895" cy="9.895" r="2.105" fill="currentColor"/><path fill="currentColor" d="M6 12h2v3H6zm10 0h2v3h-2z"/></symbol><symbol id="hd-icon-bxs-invader" viewBox="0 0 24 24"><path fill="currentColor" d="M6 3h2v2H6zm2 16h3v2H8zm8-16h2v2h-2zm-3 16h3v2h-3zm7-8V9h-2V7h-2V5h-2v2h-4V5H8v2H6v2H4v2H2v8h2v-4h2v4h2v-3h8v3h2v-4h2v4h2v-8zm-10 1H8V9h2zm6 0h-2V9h2z"/></symbol><symbol id="hd-icon-bxs-joystick" viewBox="0 0 24 24"><path fill="currentColor" d="m21.986 9.74l-.008-.088A5.003 5.003 0 0 0 17 5H7a4.97 4.97 0 0 0-4.987 4.737q-.014.117-.013.253v6.51c0 .925.373 1.828 1.022 2.476A3.52 3.52 0 0 0 5.5 20c1.8 0 2.504-1 3.5-3c.146-.292.992-2 3-2c1.996 0 2.853 1.707 3 2c1.004 2 1.7 3 3.5 3c.925 0 1.828-.373 2.476-1.022A3.52 3.52 0 0 0 22 16.5V10q0-.141-.014-.26M7 12.031a2 2 0 1 1-.001-3.999A2 2 0 0 1 7 12.031m10-5a1 1 0 1 1 0 2a1 1 0 1 1 0-2m-2 4a1 1 0 1 1 0-2a1 1 0 1 1 0 2m2 2a1 1 0 1 1 0-2a1 1 0 1 1 0 2m2-2a1 1 0 1 1 0-2a1 1 0 1 1 0 2"/></symbol><symbol id="hd-icon-bxs-joystick-alt" viewBox="0 0 24 24"><path fill="currentColor" d="M16 6H8a6 6 0 0 0 0 12h8a6 6 0 0 0 0-12m-5 7H9v2H7v-2H5v-2h2V9h2v2h2zm3.5 2a1.5 1.5 0 1 1 0-3a1.5 1.5 0 0 1 0 3m3-3a1.5 1.5 0 1 1 0-3a1.5 1.5 0 0 1 0 3"/></symbol><symbol id="hd-icon-bxs-joystick-button" viewBox="0 0 24 24"><path fill="currentColor" d="M20 8h-4V4a2 2 0 0 0-2-2h-4a2 2 0 0 0-2 2v4H4a2 2 0 0 0-2 2v4a2 2 0 0 0 2 2h4v4a2 2 0 0 0 2 2h4a2 2 0 0 0 2-2v-4h4a2 2 0 0 0 2-2v-4a2 2 0 0 0-2-2M7 14l-3-2l3-2zm5 6l-2-3h4zm0-6a2 2 0 1 1 .001-4.001A2 2 0 0 1 12 14m-2-7l2-3l2 3zm7 7v-4l3 2z"/></symbol><symbol id="hd-icon-bxs-key" viewBox="0 0 24 24"><path fill="currentColor" d="M3.433 17.325L3.079 19.8a1 1 0 0 0 1.131 1.131l2.475-.354C7.06 20.524 8 18 8 18s.472.405.665.466c.412.13.813-.274.948-.684L10 16.01s.577.292.786.335c.266.055.524-.109.707-.293a1 1 0 0 0 .241-.391L12 14.01s.675.187.906.214c.263.03.519-.104.707-.293l1.138-1.137a5.5 5.5 0 0 0 5.581-1.338a5.507 5.507 0 0 0 0-7.778a5.507 5.507 0 0 0-7.778 0a5.5 5.5 0 0 0-1.338 5.581l-7.501 7.5a1 1 0 0 0-.282.566M18.504 5.506a2.92 2.92 0 0 1 0 4.122l-4.122-4.122a2.92 2.92 0 0 1 4.122 0"/></symbol><symbol id="hd-icon-bxs-keyboard" viewBox="0 0 24 24"><path fill="currentColor" d="M21 5H3a2 2 0 0 0-2 2v10a2 2 0 0 0 2 2h18a2 2 0 0 0 2-2V7a2 2 0 0 0-2-2m-8 2h2v2h-2zm0 4h2v2h-2zM9 7h2v2H9zm0 4h2v2H9zM5 7h2v2H5zm0 4h2v2H5zm12 6H7v-2h10zm2-4h-2v-2h2zm0-4h-2V7h2z"/></symbol><symbol id="hd-icon-bxs-label" viewBox="0 0 24 24"><path fill="currentColor" d="M16.813 4.419A1 1 0 0 0 16 4H3a1 1 0 0 0-.813 1.581L6.771 12l-4.585 6.419A1 1 0 0 0 3 20h13a1 1 0 0 0 .813-.419l5-7a1 1 0 0 0 0-1.162z"/></symbol><symbol id="hd-icon-bxs-landmark" viewBox="0 0 24 24"><path fill="currentColor" d="M21 17h-2V9h2V7a1 1 0 0 0-.594-.914l-9.432-4.191l-8.421 4.21A1 1 0 0 0 2 7v2h2v8H2v4h19zm-5-8v8h-3V9zM7 9h3v8H7z"/></symbol><symbol id="hd-icon-bxs-landscape" viewBox="0 0 24 24"><circle cx="6.5" cy="6.5" r="2.5" fill="currentColor"/><path fill="currentColor" d="m14 7l-5.223 8.487L7 13l-5 7h20z"/></symbol><symbol id="hd-icon-bxs-laugh" viewBox="0 0 24 24"><path fill="currentColor" d="M12 2C6.486 2 2 6.486 2 12s4.486 10 10 10s10-4.486 10-10S17.514 2 12 2m-6.447 9.105l2.459-1.229l-1.567-1.044l1.109-1.664l3 2a1 1 0 0 1-.108 1.727l-4 2zM12 18c-4 0-5-4-5-4h10s-1 4-5 4m5.553-5.105l-4-2a1 1 0 0 1-.108-1.727l3-2l1.109 1.664l-1.566 1.044l2.459 1.229z"/></symbol><symbol id="hd-icon-bxs-layer" viewBox="0 0 24 24"><path fill="currentColor" d="m21.484 7.125l-9.022-5a1 1 0 0 0-.968 0l-8.978 4.96a1 1 0 0 0-.003 1.748l9.022 5.04a1 1 0 0 0 .973.001l8.978-5a1 1 0 0 0-.002-1.749"/><path fill="currentColor" d="m12 15.856l-8.515-4.73l-.971 1.748l9 5a1 1 0 0 0 .971 0l9-5l-.971-1.748z"/><path fill="currentColor" d="m12 19.856l-8.515-4.73l-.971 1.748l9 5a1 1 0 0 0 .971 0l9-5l-.971-1.748z"/></symbol><symbol id="hd-icon-bxs-layer-minus" viewBox="0 0 24 24"><path fill="currentColor" d="m21.484 11.125l-9.022-5a1 1 0 0 0-.968-.001l-8.978 4.96a1 1 0 0 0-.003 1.749l9.022 5.04a1 1 0 0 0 .973.001l8.978-5a1 1 0 0 0-.002-1.749"/><path fill="currentColor" d="M20.515 15.126L12 19.856l-8.515-4.73l-.971 1.748l9 5a1 1 0 0 0 .971 0l9-5zM16 4h6v2h-6z"/></symbol><symbol id="hd-icon-bxs-layer-plus" viewBox="0 0 24 24"><path fill="currentColor" d="m2.513 12.833l9.022 5.04a1 1 0 0 0 .973.001l8.978-5a1 1 0 0 0-.002-1.749l-9.022-5a1 1 0 0 0-.968-.001l-8.978 4.96a1 1 0 0 0-.003 1.749"/><path fill="currentColor" d="m3.485 15.126l-.971 1.748l9 5a1 1 0 0 0 .971 0l9-5l-.971-1.748L12 19.856zM20 8V6h2V4h-2V2h-2v2h-2v2h2v2z"/></symbol><symbol id="hd-icon-bxs-layout" viewBox="0 0 24 24"><path fill="currentColor" d="M19 3H5c-1.103 0-2 .897-2 2v4h18V5c0-1.103-.897-2-2-2M3 19c0 1.103.897 2 2 2h8V11H3zm12 2h4c1.103 0 2-.897 2-2v-8h-6z"/></symbol><symbol id="hd-icon-bxs-leaf" viewBox="0 0 24 24"><path fill="currentColor" d="m22 3.41l-.12-1.26l-1.2.4a13.84 13.84 0 0 1-6.41.64a11.87 11.87 0 0 0-6.68.9A7.23 7.23 0 0 0 3.3 9.5a9 9 0 0 0 .39 4.58a16.6 16.6 0 0 1 1.18-2.2a9.85 9.85 0 0 1 4.07-3.43a11.16 11.16 0 0 1 5.06-1A12.1 12.1 0 0 0 9.34 9.2a9.5 9.5 0 0 0-1.86 1.53a11.4 11.4 0 0 0-1.39 1.91a16.4 16.4 0 0 0-1.57 4.54A26.4 26.4 0 0 0 4 22h2a31 31 0 0 1 .59-4.32a9.25 9.25 0 0 0 4.52 1.11a11 11 0 0 0 4.28-.87C23 14.67 22 3.86 22 3.41"/></symbol><symbol id="hd-icon-bxs-left-arrow" viewBox="0 0 24 24"><path fill="currentColor" d="m4.431 12.822l13 9A1 1 0 0 0 19 21V3a1 1 0 0 0-1.569-.823l-13 9a1.003 1.003 0 0 0 0 1.645"/></symbol><symbol id="hd-icon-bxs-left-arrow-alt" viewBox="0 0 24 24"><path fill="currentColor" d="m5 12l7 6v-5h6v-2h-6V6z"/></symbol><symbol id="hd-icon-bxs-left-arrow-circle" viewBox="0 0 24 24"><path fill="currentColor" d="M12 2C6.486 2 2 6.486 2 12s4.486 10 10 10s10-4.486 10-10S17.514 2 12 2m5 11h-5v4l-5-5l5-5v4h5z"/></symbol><symbol id="hd-icon-bxs-left-arrow-square" viewBox="0 0 24 24"><path fill="currentColor" d="M19 21a2 2 0 0 0 2-2V5a2 2 0 0 0-2-2H5a2 2 0 0 0-2 2v14a2 2 0 0 0 2 2zM12 7v4h5v2h-5v4l-5-5z"/></symbol><symbol id="hd-icon-bxs-left-down-arrow-circle" viewBox="0 0 24 24"><path fill="currentColor" d="M19.071 19.071c3.898-3.899 3.898-10.244 0-14.143s-10.244-3.898-14.143 0c-3.898 3.899-3.899 10.243 0 14.143c3.9 3.899 10.244 3.899 14.143 0M8.464 8.464l2.829 2.829l3.535-3.536l1.414 1.414l-3.535 3.536l2.828 2.829H8.464z"/></symbol><symbol id="hd-icon-bxs-left-top-arrow-circle" viewBox="0 0 24 24"><path fill="currentColor" d="M19.071 19.071c3.898-3.899 3.898-10.244 0-14.143c-3.899-3.898-10.243-3.898-14.143 0c-3.898 3.899-3.898 10.244 0 14.143c3.9 3.899 10.244 3.899 14.143 0M8.465 8.464h7.07l-2.828 2.829l3.535 3.536l-1.414 1.414l-3.535-3.536l-2.828 2.829z"/></symbol><symbol id="hd-icon-bxs-lemon" viewBox="0 0 24 24"><path fill="currentColor" d="M21.45 8.74A2.23 2.23 0 0 1 21.64 7a3.5 3.5 0 0 0 .24-2.47a3.55 3.55 0 0 0-2.45-2.45a3.5 3.5 0 0 0-2.43.28a2.23 2.23 0 0 1-1.7.19a10.07 10.07 0 0 0-6.53 0a9.87 9.87 0 0 0-6.23 6.18a10.07 10.07 0 0 0 0 6.53A2.23 2.23 0 0 1 2.36 17a3.5 3.5 0 0 0-.24 2.47a3.55 3.55 0 0 0 2.45 2.45A3.5 3.5 0 0 0 7 21.64a2.23 2.23 0 0 1 1.7-.19A9.8 9.8 0 0 0 12 22a10.3 10.3 0 0 0 3.27-.54a9.87 9.87 0 0 0 6.19-6.19a10.07 10.07 0 0 0-.01-6.53M12 7a5 5 0 0 0-5 5H5a7 7 0 0 1 7-7z"/></symbol><symbol id="hd-icon-bxs-like" viewBox="0 0 24 24"><path fill="currentColor" d="M4 21h1V8H4a2 2 0 0 0-2 2v9a2 2 0 0 0 2 2M20 8h-7l1.122-3.368A2 2 0 0 0 12.225 2H12L7 7.438V21h11l3.912-8.596L22 12v-2a2 2 0 0 0-2-2"/></symbol><symbol id="hd-icon-bxs-location-plus" viewBox="0 0 24 24"><path fill="currentColor" d="M12 22s8.029-5.56 8-12c0-4.411-3.589-8-8-8S4 5.589 4 9.995C3.971 16.44 11.696 21.784 12 22M8 9h3V6h2v3h3v2h-3v3h-2v-3H8z"/></symbol><symbol id="hd-icon-bxs-lock" viewBox="0 0 24 24"><path fill="currentColor" d="M12 2C9.243 2 7 4.243 7 7v3H6a2 2 0 0 0-2 2v8a2 2 0 0 0 2 2h12a2 2 0 0 0 2-2v-8a2 2 0 0 0-2-2h-1V7c0-2.757-2.243-5-5-5M9 7c0-1.654 1.346-3 3-3s3 1.346 3 3v3H9zm4 10.723V20h-2v-2.277a1.993 1.993 0 0 1 .567-3.677A2 2 0 0 1 14 16a1.99 1.99 0 0 1-1 1.723"/></symbol><symbol id="hd-icon-bxs-lock-alt" viewBox="0 0 24 24"><path fill="currentColor" d="M20 12c0-1.103-.897-2-2-2h-1V7c0-2.757-2.243-5-5-5S7 4.243 7 7v3H6c-1.103 0-2 .897-2 2v8c0 1.103.897 2 2 2h12c1.103 0 2-.897 2-2zM9 7c0-1.654 1.346-3 3-3s3 1.346 3 3v3H9z"/></symbol><symbol id="hd-icon-bxs-lock-open" viewBox="0 0 24 24"><path fill="currentColor" d="M18 10H9V7c0-1.654 1.346-3 3-3s3 1.346 3 3h2c0-2.757-2.243-5-5-5S7 4.243 7 7v3H6a2 2 0 0 0-2 2v8a2 2 0 0 0 2 2h12a2 2 0 0 0 2-2v-8a2 2 0 0 0-2-2m-7.939 5.499A2.002 2.002 0 0 1 14 16a1.99 1.99 0 0 1-1 1.723V20h-2v-2.277a1.99 1.99 0 0 1-.939-2.224"/></symbol><symbol id="hd-icon-bxs-lock-open-alt" viewBox="0 0 24 24"><path fill="currentColor" d="M17 8V7c0-2.757-2.243-5-5-5S7 4.243 7 7v3H6c-1.103 0-2 .897-2 2v8c0 1.103.897 2 2 2h12c1.103 0 2-.897 2-2v-8c0-1.103-.897-2-2-2H9V7c0-1.654 1.346-3 3-3s3 1.346 3 3v1z"/></symbol><symbol id="hd-icon-bxs-log-in" viewBox="0 0 24 24"><path fill="currentColor" d="M18.5 2h-13a.5.5 0 0 0-.5.5V11h6V8l5 4l-5 4v-3H5v8.5a.5.5 0 0 0 .5.5h13a.5.5 0 0 0 .5-.5v-19a.5.5 0 0 0-.5-.5"/></symbol><symbol id="hd-icon-bxs-log-in-circle" viewBox="0 0 24 24"><path fill="currentColor" d="M12 3c-4.625 0-8.442 3.507-8.941 8.001H10v-3l5 4l-5 4v-3H3.06C3.56 17.494 7.376 21 12 21c4.963 0 9-4.037 9-9s-4.037-9-9-9"/></symbol></svg>