<svg xmlns="http://www.w3.org/2000/svg" xmlns:xlink="http://www.w3.org/1999/xlink"><symbol id="hd-icon-proicons-accessibility" viewBox="0 0 24 24"><g fill="none" stroke="currentColor" stroke-linecap="round" stroke-linejoin="round" stroke-width="1.5"><path d="M6.867 5.543a1.58 1.58 0 0 0-2.155.576a1.57 1.57 0 0 0 .577 2.15l2.63 1.515a1 1 0 0 1 .5.866v3.536a1 1 0 0 1-.134.5l-2.408 4.162a1.57 1.57 0 0 0 .577 2.15a1.58 1.58 0 0 0 2.156-.576l3.258-5.629h.258l3.258 5.629a1.58 1.58 0 0 0 2.156.576a1.57 1.57 0 0 0 .577-2.15l-2.402-4.15a1 1 0 0 1-.135-.502V10.65a1 1 0 0 1 .501-.866l2.63-1.514a1.57 1.57 0 0 0 .577-2.15a1.58 1.58 0 0 0-2.155-.577l-3.636 2.094a3 3 0 0 1-2.994 0z"/><path d="M14.623 5.414a2.623 2.623 0 1 1-5.246 0a2.623 2.623 0 0 1 5.246 0"/></g></symbol><symbol id="hd-icon-proicons-add" viewBox="0 0 24 24"><path fill="none" stroke="currentColor" stroke-linecap="round" stroke-linejoin="round" stroke-width="1.5" d="M4 12h8m0 0h8m-8 0V4m0 8v8"/></symbol><symbol id="hd-icon-proicons-add-circle" viewBox="0 0 24 24"><g fill="none" stroke="currentColor" stroke-linecap="round" stroke-linejoin="round" stroke-width="1.5"><circle cx="12" cy="12" r="9.25"/><path d="M12 8.5v7M8.5 12h7"/></g></symbol><symbol id="hd-icon-proicons-add-rhombus" viewBox="0 0 24 24"><path fill="none" stroke="currentColor" stroke-linecap="round" stroke-linejoin="round" stroke-width="1.5" d="M3.775 14.475a3.5 3.5 0 0 1 0-4.95l5.75-5.75a3.5 3.5 0 0 1 4.95 0l5.75 5.75a3.5 3.5 0 0 1 0 4.95l-5.75 5.75a3.5 3.5 0 0 1-4.95 0zM8.25 12H12m0 0h3.75M12 12V8.25M12 12v3.75"/></symbol><symbol id="hd-icon-proicons-add-square" viewBox="0 0 24 24"><g fill="none" stroke="currentColor" stroke-linecap="round" stroke-linejoin="round" stroke-width="1.5"><path d="M12 8.5v7M8.5 12h7"/><rect width="16.5" height="16.5" x="3.75" y="3.75" rx="4"/></g></symbol><symbol id="hd-icon-proicons-add-square-multiple" viewBox="0 0 24 24"><g fill="none" stroke="currentColor" stroke-linecap="round" stroke-linejoin="round" stroke-width="1.5"><path d="M10.63 7.66v5.94m-2.97-2.97h5.94"/><rect width="14" height="14" x="3.63" y="3.63" rx="3"/><path d="M20.63 7.63v7a6 6 0 0 1-6 6h-7"/></g></symbol><symbol id="hd-icon-proicons-airplane" viewBox="0 0 24 24"><path fill="none" stroke="currentColor" stroke-linecap="round" stroke-linejoin="round" stroke-width="1.5" d="M10.238 4.512a1.762 1.762 0 1 1 3.524 0V8.9l6.733 3.535a1 1 0 0 1 .535.885v.431a.6.6 0 0 1-.712.59l-6.556-1.24v4.107a.6.6 0 0 0 .317.53l1.862.996a1.5 1.5 0 0 1 .792 1.322v.447a.6.6 0 0 1-.73.586L12 20.204l-4.003.885a.6.6 0 0 1-.73-.586v-.447a1.5 1.5 0 0 1 .792-1.322l1.862-.997a.6.6 0 0 0 .317-.529v-4.106L3.682 14.34a.6.6 0 0 1-.712-.59v-.43a1 1 0 0 1 .535-.886L10.238 8.9z"/></symbol><symbol id="hd-icon-proicons-airplane-landing" viewBox="0 0 24 24"><path fill="none" stroke="currentColor" stroke-linecap="round" stroke-linejoin="round" stroke-width="1.5" d="M2.75 20.75h18.5m-2.05-7.453a1.783 1.783 0 1 1-.923 3.445L8.185 14.04a4 4 0 0 1-1.32-.628l-2.14-1.543A3.04 3.04 0 0 1 3.47 9.271l.11-2.508a.607.607 0 0 1 .765-.56l.436.117a1.52 1.52 0 0 1 1.086 1.121l.486 2.082c.051.218.218.39.434.448l4.015 1.076l.506-6.735a.607.607 0 0 1 .763-.541l.422.113c.363.097.643.388.725.755l1.692 7.509z"/></symbol><symbol id="hd-icon-proicons-airplane-takeoff" viewBox="0 0 24 24"><path fill="none" stroke="currentColor" stroke-linecap="round" stroke-linejoin="round" stroke-width="1.5" d="M2.75 20.75h18.5M18.575 6.299a1.783 1.783 0 0 1 1.783 3.089L11.31 14.61a4 4 0 0 1-1.377.49l-2.604.422a3.04 3.04 0 0 1-2.725-.948L2.91 12.723a.607.607 0 0 1 .145-.936l.391-.226a1.52 1.52 0 0 1 1.56.025l1.816 1.128c.19.118.43.122.624.01l3.6-2.078l-4.404-5.12a.607.607 0 0 1 .156-.922l.378-.218c.326-.188.73-.18 1.047.02l6.506 4.113z"/></symbol><symbol id="hd-icon-proicons-alarm-clock" viewBox="0 0 24 24"><g fill="none" stroke="currentColor"><path stroke-linecap="round" stroke-width="1.5" d="m21.25 7.072l-3.574-3.574M2.75 7.072l3.574-3.574"/><circle cx="12" cy="12.753" r="7.75" stroke-width="1.503"/><path stroke-linecap="round" stroke-width="1.503" d="m17.514 18.267l2.236 2.235M6.486 18.267L4.25 20.502"/><path stroke-linecap="round" stroke-linejoin="round" stroke-width="1.5" d="M11.9 8.353v4.25l3.685 2.117"/></g></symbol><symbol id="hd-icon-proicons-album" viewBox="0 0 24 24"><g fill="none" stroke="currentColor" stroke-linejoin="round" stroke-width="1.5"><rect width="16.5" height="16.5" x="3.75" y="3.75" stroke-linecap="round" rx="3"/><path d="M16.25 3.75h-6v7.517a.2.2 0 0 0 .341.142l1.952-1.952a1 1 0 0 1 1.414 0l1.952 1.952a.2.2 0 0 0 .341-.142z"/></g></symbol><symbol id="hd-icon-proicons-alert-circle" viewBox="0 0 24 24"><g fill="none"><circle cx="12" cy="12" r="9.25" stroke="currentColor" stroke-width="1.5"/><path stroke="currentColor" stroke-linecap="round" stroke-width="1.5" d="M12 12.438v-5"/><circle cx="1.25" cy="1.25" r="1.25" fill="currentColor" transform="matrix(1 0 0 -1 10.75 17.063)"/></g></symbol><symbol id="hd-icon-proicons-alert-rhombus" viewBox="0 0 24 24"><g fill="none"><path stroke="currentColor" stroke-linecap="round" stroke-linejoin="round" stroke-width="1.5" d="M3.775 14.475a3.5 3.5 0 0 1 0-4.95l5.75-5.75a3.5 3.5 0 0 1 4.95 0l5.75 5.75a3.5 3.5 0 0 1 0 4.95l-5.75 5.75a3.5 3.5 0 0 1-4.95 0z"/><path stroke="currentColor" stroke-linecap="round" stroke-width="1.5" d="M12 12.435v-5"/><circle cx="1.25" cy="1.25" r="1.25" fill="currentColor" transform="matrix(1 0 0 -1 10.75 17.06)"/></g></symbol><symbol id="hd-icon-proicons-alert-triangle" viewBox="0 0 24 24"><g fill="none"><path stroke="currentColor" stroke-width="1.5" d="M5.732 20.5c-2.29 0-3.723-2.498-2.581-4.5L9.419 5.006c1.144-2.008 4.018-2.008 5.163 0L20.849 16c1.142 2.002-.291 4.5-2.581 4.5z"/><path stroke="currentColor" stroke-linecap="round" stroke-width="1.5" d="M12 13.375V9"/><circle cx="1.25" cy="1.25" r="1.25" fill="currentColor" transform="matrix(1 0 0 -1 10.75 17.938)"/></g></symbol><symbol id="hd-icon-proicons-align-bottom" viewBox="0 0 24 24"><g fill="none" stroke="currentColor" stroke-linecap="round" stroke-linejoin="round" stroke-width="1.5"><path d="M2.75 21.25h18.5"/><rect width="6" height="10" rx="2" transform="matrix(-1 0 0 1 19.75 7.75)"/><rect width="6" height="15" rx="2" transform="matrix(-1 0 0 1 10.25 2.75)"/></g></symbol><symbol id="hd-icon-proicons-align-horizontal-centers" viewBox="0 0 24 24"><g fill="none" stroke="currentColor" stroke-linecap="round" stroke-linejoin="round" stroke-width="1.5"><path d="M19.75 12h1.5m-11 0h3.5m-11 0h1.5"/><rect width="6" height="10" rx="2" transform="matrix(-1 0 0 1 19.75 7)"/><rect width="6" height="15" rx="2" transform="matrix(-1 0 0 1 10.25 4.5)"/></g></symbol><symbol id="hd-icon-proicons-align-left" viewBox="0 0 24 24"><g fill="none" stroke="currentColor" stroke-linecap="round" stroke-linejoin="round" stroke-width="1.5"><path d="M2.75 2.75v18.5"/><rect width="6" height="10" rx="2" transform="matrix(0 -1 -1 0 16.25 19.75)"/><rect width="6" height="15" rx="2" transform="matrix(0 -1 -1 0 21.25 10.25)"/></g></symbol><symbol id="hd-icon-proicons-align-right" viewBox="0 0 24 24"><g fill="none" stroke="currentColor" stroke-linecap="round" stroke-linejoin="round" stroke-width="1.5"><path d="M21.25 2.75v18.5"/><rect width="6" height="10" x="7.75" y="19.75" rx="2" transform="rotate(-90 7.75 19.75)"/><rect width="6" height="15" x="2.75" y="10.25" rx="2" transform="rotate(-90 2.75 10.25)"/></g></symbol><symbol id="hd-icon-proicons-align-top" viewBox="0 0 24 24"><g fill="none" stroke="currentColor" stroke-linecap="round" stroke-linejoin="round" stroke-width="1.5"><path d="M2.75 2.75h18.5"/><rect width="6" height="10" x="19.75" y="16.25" rx="2" transform="rotate(180 19.75 16.25)"/><rect width="6" height="15" x="10.25" y="21.25" rx="2" transform="rotate(180 10.25 21.25)"/></g></symbol><symbol id="hd-icon-proicons-align-vertical-centers" viewBox="0 0 24 24"><g fill="none" stroke="currentColor" stroke-linecap="round" stroke-linejoin="round" stroke-width="1.5"><path d="M12 19.75v1.5m0-11v3.5m0-11v1.5"/><rect width="6" height="10" x="7" y="19.75" rx="2" transform="rotate(-90 7 19.75)"/><rect width="6" height="15" x="4.5" y="10.25" rx="2" transform="rotate(-90 4.5 10.25)"/></g></symbol><symbol id="hd-icon-proicons-amazon" viewBox="0 0 24 24"><g fill="none"><path stroke="currentColor" stroke-linecap="round" stroke-linejoin="round" stroke-width="1.3" d="M17.284 17.724h1.967c.543 0 .983.44.983.983v1.967"/><path fill="currentColor" fill-rule="evenodd" d="m6.901 7.111l1.976.2a.57.57 0 0 0 .558-.34c.268-.573.924-1.59 2.209-1.59c.258 0 .478.041.665.108c1.04.373 1.02 1.77 1.02 2.874c0 0-2.415-.058-3.992.476c-.465.157-.934.333-1.36.578c-1.223.705-1.77 2.276-1.969 3.022c-.071.27-.098.549-.08.828c.08 1.178.558 3.184 2.968 3.599c2.247.386 3.749-.64 4.43-1.267c.23-.213.612-.22.817.018l.88 1.017a.59.59 0 0 0 .825.066l1.676-1.402a.59.59 0 0 0 .101-.796l-.267-.374c-.215-.3-.422-.613-.517-.97c-.099-.372-.09-.763-.09-1.148V6.704c0-2.372-2.295-3.681-3.94-3.85l-.592-.057a6 6 0 0 0-.972-.034a6 6 0 0 0-1.162.196c-1.537.399-3.348 1.765-3.597 3.664c-.033.25.162.463.413.488m6.428 4.576v-1.432s-1.905-.047-2.664.363c-.312.168-.574.491-.775.813a2.54 2.54 0 0 0-.291 1.94c.066.275.158.54.282.695c.259.323.876.439 1.166.476q.156.022.311.003c.157-.022.413-.08.67-.23c.39-.229.695-.595.903-.995c.118-.226.208-.471.273-.676a3.2 3.2 0 0 0 .125-.957" clip-rule="evenodd"/><path stroke="currentColor" stroke-linecap="round" stroke-width="1.5" d="M4.5 18.707c1.933 1.619 4.584 2.548 7.375 2.548c1.853 0 3.643-.41 5.203-1.158a11 11 0 0 0 .573-.295"/></g></symbol><symbol id="hd-icon-proicons-american-football" viewBox="0 0 24 24"><g fill="none" stroke="currentColor" stroke-width="1.5"><path d="M20.405 12.01c.257-1.048.376-2.158.338-3.309l-.048-1.437c-.81-2.856-1.102-3.15-3.959-3.96l-1.437-.047a12.2 12.2 0 0 0-3.31.338m8.416 8.415a11.39 11.39 0 0 1-7.11 8q-.626.233-1.285.395m8.395-8.395L11.99 3.595m0 0a11.4 11.4 0 0 0-8.395 8.395m8.415 8.415q-.694.17-1.42.258q-.923.11-1.889.08l-1.437-.048c-2.856-.81-3.15-1.102-3.96-3.959l-.047-1.437c-.038-1.151.081-2.26.338-3.31m8.415 8.416L3.595 11.99"/><path stroke-linecap="round" d="m9.577 14.424l4.847-4.847M9.2 11.97l2.83 2.83m-.06-5.6l2.83 2.83"/></g></symbol><symbol id="hd-icon-proicons-anchor" viewBox="0 0 24 24"><g fill="none" stroke="currentColor" stroke-width="1.5"><path stroke-linecap="round" stroke-linejoin="round" d="M2.75 12a9.25 9.25 0 1 0 18.5 0M12 21.25V7.75"/><circle cx="12" cy="5.25" r="2.5"/><path stroke-linecap="round" d="M2.75 12h4m10.5 0h4"/></g></symbol><symbol id="hd-icon-proicons-android" viewBox="0 0 24 24"><g fill="none"><path stroke="currentColor" stroke-linecap="round" stroke-linejoin="round" stroke-width="1.5" d="M16.764 9.907a9.3 9.3 0 0 1 1.777 1.46a9.8 9.8 0 0 1 2.005 3.158c.343.873.564 1.791.655 2.727c.054.55-.399.998-.951.998H3.75c-.552 0-1.005-.449-.951-.998c.091-.936.312-1.854.655-2.727a9.8 9.8 0 0 1 2.005-3.157a9.3 9.3 0 0 1 1.777-1.461m9.528 0a9 9 0 0 0-1.224-.65a8.85 8.85 0 0 0-3.54-.74a8.85 8.85 0 0 0-3.54.74a9 9 0 0 0-1.224.65m9.528 0L18.49 6.75M7.236 9.907L5.51 6.75"/><circle cx="8.75" cy="14.063" r="1.25" fill="currentColor"/><circle cx="15.25" cy="14.063" r="1.25" fill="currentColor"/></g></symbol><symbol id="hd-icon-proicons-angle" viewBox="0 0 24 24"><g fill="none" stroke="currentColor" stroke-linecap="round" stroke-linejoin="round" stroke-width="1.5"><path d="M4.25 4.25v12.5a3 3 0 0 0 3 3h12.5"/><path d="M4.25 10.356h.394a9 9 0 0 1 9 9v.394"/></g></symbol><symbol id="hd-icon-proicons-app-remove" viewBox="0 0 24 24"><g fill="none" stroke="currentColor" stroke-linecap="round" stroke-linejoin="round" stroke-width="1.5"><rect width="6.5" height="6.5" rx="2" transform="matrix(1 0 0 -1 3.75 20.25)"/><path d="M20.25 20.25L17 17m0 0l-3.25-3.25M17 17l-3.25 3.25M17 17l3.25-3.25"/><rect width="6.5" height="6.5" rx="2" transform="matrix(1 0 0 -1 3.75 10.25)"/><rect width="6.5" height="6.5" rx="2" transform="matrix(1 0 0 -1 13.75 10.25)"/></g></symbol><symbol id="hd-icon-proicons-app-store" viewBox="0 0 24 24"><g fill="none"><path fill="currentColor" d="M10.904 13.794h2.024l-1.012-1.755z"/><path stroke="currentColor" stroke-linejoin="round" stroke-width="1.5" d="m8.843 17.367l-1.58 2.74A1.784 1.784 0 1 1 4.17 18.32l.55-.953m4.122 0H4.72m4.122 0h6.146m-10.268 0h-.466a1.786 1.786 0 0 1 0-3.573h2.527l3.073-5.327l-1.03-1.787a1.784 1.784 0 1 1 3.092-1.786a1.784 1.784 0 1 1 3.09 1.786l-1.03 1.786m-1.049 5.328h-2.024l1.012-1.755m1.012 1.755l2.061 3.573m-2.06-3.573l-1.013-1.755m3.073 5.328l1.58 2.74a1.784 1.784 0 1 0 3.092-1.787l-.55-.953h.634a1.786 1.786 0 0 0 0-3.573H17.05l-3.073-5.328m0 0l-2.06 3.573"/></g></symbol><symbol id="hd-icon-proicons-apple" viewBox="0 0 24 24"><g fill="none" stroke="currentColor" stroke-linejoin="round"><path stroke-width="1.5" d="M10.102 7.78a4 4 0 0 0-1.185-.161c-1.918 0-4.167 1.695-4.167 5.359c0 3.36 2.358 7.21 3.801 7.822c.328.14.731.227 1.084.193c.707-.07 1.348-.421 2.023-.622c.228-.038.5-.074.719-.075c.24-.002.51.06.774.12c.715.164 1.505.65 2.255.577c.267-.026.633-.187.746-.239l.07-.03c.85-.343 1.988-1.826 2.759-3.703c.162-.396-.052-.833-.404-1.077c-.999-.694-1.663-1.934-1.663-3.195c0-.969.313-1.854.907-2.523l.02-.023a8 8 0 0 1 .45-.5c.255-.248.326-.645.082-.904c-.808-.854-1.832-1.277-2.764-1.277a3.6 3.6 0 0 0-1.106.156c-.138.033-.778.192-1.222.355c-.257.071-.635.167-.81.21a.7.7 0 0 1-.192.023c-.735-.024-1.47-.303-2.177-.487Z" clip-rule="evenodd"/><path fill="currentColor" d="M13.86 5.178c-.733.878-1.975 1.047-1.975 1.047s-.05-1.256.684-2.135s1.976-1.046 1.976-1.046s.05 1.256-.684 2.134Z"/></g></symbol><symbol id="hd-icon-proicons-apps" viewBox="0 0 24 24"><g fill="none" stroke="currentColor" stroke-linecap="round" stroke-linejoin="round" stroke-width="1.5"><rect width="6.5" height="6.5" x="3.75" y="3.75" rx="2"/><path d="M15.586 3.818a2 2 0 0 1 2.828 0l1.768 1.768a2 2 0 0 1 0 2.828l-1.768 1.768a2 2 0 0 1-2.828 0l-1.768-1.768a2 2 0 0 1 0-2.828z"/><rect width="6.5" height="6.5" x="3.75" y="13.75" rx="1.5"/><rect width="6.5" height="6.5" x="13.75" y="13.75" rx="2"/></g></symbol><symbol id="hd-icon-proicons-apps-add" viewBox="0 0 24 24"><g fill="none" stroke="currentColor" stroke-linecap="round" stroke-linejoin="round" stroke-width="1.5"><rect width="6.5" height="6.5" x="3.75" y="3.75" rx="2"/><path d="M17 3.75V7m0 0v3.25M17 7h-3.25M17 7h3.25"/><rect width="6.5" height="6.5" x="3.75" y="13.75" rx="2"/><rect width="6.5" height="6.5" x="13.75" y="13.75" rx="2"/></g></symbol><symbol id="hd-icon-proicons-arc" viewBox="0 0 24 24"><path fill="none" stroke="currentColor" stroke-linecap="round" stroke-linejoin="round" stroke-width="1.5" d="M19.25 4.75h-.5c-7.732 0-14 6.268-14 14v.5"/></symbol><symbol id="hd-icon-proicons-archive" viewBox="0 0 24 24"><path fill="none" stroke="currentColor" stroke-linecap="round" stroke-linejoin="round" stroke-width="1.5" d="M10.25 12.5h3.5m-10-5.25a3.5 3.5 0 0 1 3.5-3.5h9.5a3.5 3.5 0 0 1 3.5 3.5v9.5a3.5 3.5 0 0 1-3.5 3.5h-9.5a3.5 3.5 0 0 1-3.5-3.5zm0 1.5h16.5"/></symbol><symbol id="hd-icon-proicons-archive-add-2" viewBox="0 0 24 24"><g fill="none"><path fill="currentColor" fill-rule="evenodd" d="M17.5 23a5.5 5.5 0 1 0 0-11a5.5 5.5 0 0 0 0 11m0-8.993a.5.5 0 0 1 .5.5V17h2.493a.5.5 0 1 1 0 1H18v2.493a.5.5 0 1 1-1 0V18h-2.493a.5.5 0 1 1 0-1H17v-2.493a.5.5 0 0 1 .5-.5" clip-rule="evenodd"/><path stroke="currentColor" stroke-linecap="round" stroke-linejoin="round" stroke-width="1.5" d="M10.25 12.5h2.063m7.937-1.687V7.25a3.5 3.5 0 0 0-3.5-3.5h-9.5a3.5 3.5 0 0 0-3.5 3.5v9.5a3.5 3.5 0 0 0 3.5 3.5h3.594M3.75 8.75h16.5"/></g></symbol><symbol id="hd-icon-proicons-arrow-clockwise" viewBox="0 0 24 24"><path fill="none" stroke="currentColor" stroke-linecap="round" stroke-linejoin="round" stroke-width="1.5" d="M19.719 14.385a8.25 8.25 0 1 1-.824-6.26l.42.908m.58-4.658v3.75a1 1 0 0 1-.58.908m-4.17.092h3.75c.15 0 .293-.033.42-.092"/></symbol><symbol id="hd-icon-proicons-arrow-counterclockwise" viewBox="0 0 24 24"><path fill="none" stroke="currentColor" stroke-linecap="round" stroke-linejoin="round" stroke-width="1.5" d="M4.281 14.385a8.25 8.25 0 1 0 .824-6.26l-.477.88m-.523-4.63v3.75a1 1 0 0 0 .523.88m4.227.12h-3.75a1 1 0 0 1-.477-.12"/></symbol><symbol id="hd-icon-proicons-arrow-down" viewBox="0 0 24 24"><path fill="none" stroke="currentColor" stroke-linecap="round" stroke-linejoin="round" stroke-width="1.5" d="M12 4v15.879M5.25 13.75l5.69 5.69c.292.292.676.439 1.06.439m6.75-6.129l-5.69 5.69a1.5 1.5 0 0 1-1.06.439"/></symbol><symbol id="hd-icon-proicons-arrow-download" viewBox="0 0 24 24"><path fill="none" stroke="currentColor" stroke-linecap="round" stroke-linejoin="round" stroke-width="1.5" d="M12.074 3.25v12.478M6.19 10.465l4.822 4.822c.293.293.677.44 1.06.44m5.883-5.262l-4.822 4.822c-.293.293-.677.44-1.06.44m8.677.788v.935a3.3 3.3 0 0 1-3.3 3.3H6.55a3.3 3.3 0 0 1-3.3-3.3v-.935"/></symbol><symbol id="hd-icon-proicons-arrow-enter" viewBox="0 0 24 24"><path fill="none" stroke="currentColor" stroke-linecap="round" stroke-linejoin="round" stroke-width="1.5" d="M19.75 5.623V9.52a4 4 0 0 1-4 4H3.871m4.236 4.857L4.31 14.58a1.5 1.5 0 0 1-.44-1.061m4.236-4.857L4.31 12.46c-.293.293-.44.677-.44 1.061"/></symbol><symbol id="hd-icon-proicons-arrow-export" viewBox="0 0 24 24"><path fill="none" stroke="currentColor" stroke-linecap="round" stroke-linejoin="round" stroke-width="1.5" d="M15.798 12H2.871m5.157-5.778l-4.717 4.717c-.293.293-.44.677-.44 1.061m5.157 5.778l-4.717-4.717A1.5 1.5 0 0 1 2.87 12m17.88-7.905v15.81"/></symbol><symbol id="hd-icon-proicons-arrow-forward" viewBox="0 0 24 24"><path fill="none" stroke="currentColor" stroke-linecap="round" stroke-linejoin="round" stroke-width="1.5" d="M4.25 18.219c0-2.352 0-3.527.383-4.455a5.06 5.06 0 0 1 2.743-2.743c.928-.383 2.103-.383 4.455-.383h8.298m-4.236-4.857l3.796 3.796c.293.293.44.677.44 1.061m-4.236 4.857l3.796-3.796c.293-.293.44-.677.44-1.061"/></symbol><symbol id="hd-icon-proicons-arrow-import" viewBox="0 0 24 24"><path fill="none" stroke="currentColor" stroke-linecap="round" stroke-linejoin="round" stroke-width="1.5" d="M2.25 12h12.927M10.02 6.222l4.717 4.717c.293.293.44.677.44 1.061m-5.157 5.778l4.717-4.717c.293-.293.44-.677.44-1.061m5.573-7.905v15.81"/></symbol><symbol id="hd-icon-proicons-arrow-left" viewBox="0 0 24 24"><path fill="none" stroke="currentColor" stroke-linecap="round" stroke-linejoin="round" stroke-width="1.5" d="M20 12H4.121m6.129 6.75l-5.69-5.69A1.5 1.5 0 0 1 4.122 12m6.129-6.75l-5.69 5.69A1.5 1.5 0 0 0 4.122 12"/></symbol><symbol id="hd-icon-proicons-arrow-left-right" viewBox="0 0 24 24"><path fill="none" stroke="currentColor" stroke-linecap="round" stroke-linejoin="round" stroke-width="1.5" d="m16.25 17l3.94-3.94c.292-.292.439-.676.439-1.06M16.25 7l3.94 3.94c.292.292.439.676.439 1.06M7.75 17l-3.94-3.94A1.5 1.5 0 0 1 3.372 12M7.75 7l-3.94 3.94A1.5 1.5 0 0 0 3.371 12m0 0H20.63"/></symbol><symbol id="hd-icon-proicons-arrow-maximize" viewBox="0 0 24 24"><path fill="none" stroke="currentColor" stroke-linecap="round" stroke-linejoin="round" stroke-width="1.5" d="M3.75 12.75v6c0 .414.168.79.44 1.06m7.06.44h-6a1.5 1.5 0 0 1-1.06-.44m16.06-8.56v-6c0-.414-.168-.79-.44-1.06m-7.06-.44h6c.414 0 .79.168 1.06.44M4.19 19.81l.56-.56l14.5-14.5l.56-.56"/></symbol><symbol id="hd-icon-proicons-arrow-minimize" viewBox="0 0 24 24"><path fill="none" stroke="currentColor" stroke-linecap="round" stroke-linejoin="round" stroke-width="1.5" d="m2.75 21.25l6.5-6.5l.56-.56m.44 7.06v-6c0-.414-.168-.79-.44-1.06m-7.06-.44h6c.414 0 .79.168 1.06.44m3.94-11.44v6c0 .414.168.79.44 1.06m7.06.44h-6a1.5 1.5 0 0 1-1.06-.44m7.06-7.06l-6.5 6.5l-.56.56"/></symbol><symbol id="hd-icon-proicons-arrow-move" viewBox="0 0 24 24"><path fill="none" stroke="currentColor" stroke-linecap="round" stroke-linejoin="round" stroke-width="1.5" d="M12 9.005V2.75M9 5.324l2.273-2.273c.201-.2.464-.301.727-.301m3 2.574l-2.273-2.273c-.2-.2-.464-.301-.727-.301M14.995 12h6.255m-2.574-3l2.273 2.273c.2.201.301.464.301.727m-2.574 3l2.273-2.273c.2-.2.301-.464.301-.727M12 14.995v6.255m-3-2.574l2.273 2.273c.201.2.464.301.727.301m3-2.574l-2.273 2.273c-.2.2-.464.301-.727.301M9.005 12H2.75m2.574-3l-2.273 2.273c-.2.201-.301.464-.301.727m2.574 3l-2.273-2.273c-.2-.2-.301-.464-.301-.727"/></symbol><symbol id="hd-icon-proicons-arrow-redo" viewBox="0 0 24 24"><path fill="none" stroke="currentColor" stroke-linecap="round" stroke-linejoin="round" stroke-width="1.5" d="m14.03 21.25l-8.26-8.26a5.999 5.999 0 0 1 8.483-8.483l4.734 4.734l.622.622m-7.199.505h6.077c.447 0 .848-.195 1.122-.505m.378-7.072v6.077c0 .382-.142.73-.378.995"/></symbol><symbol id="hd-icon-proicons-arrow-redo-2" viewBox="0 0 24 24"><path fill="none" stroke="currentColor" stroke-linecap="round" stroke-linejoin="round" stroke-width="1.5" d="m14.75 12l3.293-3.293A1 1 0 0 0 18.336 8M14.75 4l3.293 3.293a1 1 0 0 1 .293.707M16.75 19.5H10.5a5.75 5.75 0 0 1 0-11.5h7.836"/></symbol><symbol id="hd-icon-proicons-arrow-reply" viewBox="0 0 24 24"><path fill="none" stroke="currentColor" stroke-linecap="round" stroke-linejoin="round" stroke-width="1.5" d="M19.75 18.219c0-2.352 0-3.527-.383-4.455a5.06 5.06 0 0 0-2.743-2.743c-.928-.383-2.103-.383-4.455-.383H3.871m4.236-4.857L4.31 9.577c-.293.293-.44.677-.44 1.061m4.236 4.857L4.31 11.699a1.5 1.5 0 0 1-.44-1.061"/></symbol><symbol id="hd-icon-proicons-arrow-right" viewBox="0 0 24 24"><path fill="none" stroke="currentColor" stroke-linecap="round" stroke-linejoin="round" stroke-width="1.5" d="M4 12h15.879m-6.129 6.75l5.69-5.69c.292-.292.439-.676.439-1.06M13.75 5.25l5.69 5.69c.292.292.439.676.439 1.06"/></symbol><symbol id="hd-icon-proicons-arrow-rotate-clockwise" viewBox="0 0 24 24"><g fill="none" stroke="currentColor" stroke-width="1.5"><path stroke-linecap="round" stroke-linejoin="round" d="M3.75 12a8.25 8.25 0 1 1 12.375 7.145l-1.199.421m-.051-3.316v3q0 .166.051.316m3.949.684h-3a1 1 0 0 1-.949-.684"/><path d="M14.5 11.75a2.25 2.25 0 1 1-4.5 0a2.25 2.25 0 0 1 4.5 0Z"/></g></symbol><symbol id="hd-icon-proicons-arrow-rotate-counterclockwise" viewBox="0 0 24 24"><g fill="none" stroke="currentColor" stroke-width="1.5"><path stroke-linecap="round" stroke-linejoin="round" d="M20.25 12a8.25 8.25 0 1 0-12.375 7.145l1.168.503m.082-3.398v3q-.002.213-.082.398m-3.918.602h3a1 1 0 0 0 .918-.602"/><path d="M14.5 11.75a2.25 2.25 0 1 1-4.5 0a2.25 2.25 0 0 1 4.5 0Z"/></g></symbol><symbol id="hd-icon-proicons-arrow-sort" viewBox="0 0 24 24"><path fill="none" stroke="currentColor" stroke-linecap="round" stroke-linejoin="round" stroke-width="1.5" d="M12 9.867L8.186 6.053a1.5 1.5 0 0 0-1.061-.44M2.25 9.868l3.814-3.814c.293-.293.677-.44 1.061-.44m0 13.395V5.614m9.75-.124v13.394m4.875-4.253l-3.814 3.814c-.293.293-.677.44-1.061.44M12 14.63l3.814 3.814c.293.293.677.44 1.061.44"/></symbol><symbol id="hd-icon-proicons-arrow-swap" viewBox="0 0 24 24"><path fill="none" stroke="currentColor" stroke-linecap="round" stroke-linejoin="round" stroke-width="1.5" d="m9.618 12.249l-3.814 3.814c-.293.293-.44.677-.44 1.06M9.619 22l-3.814-3.814a1.5 1.5 0 0 1-.44-1.061m13.395 0H5.365m-.124-9.751h13.394m-4.253-4.875l3.814 3.814c.293.293.44.677.44 1.06m-4.254 4.876l3.814-3.814c.293-.293.44-.677.44-1.061"/></symbol><symbol id="hd-icon-proicons-arrow-sync" viewBox="0 0 24 24"><path fill="none" stroke="currentColor" stroke-linecap="round" stroke-linejoin="round" stroke-width="1.5" d="M3.548 9.735a8.75 8.75 0 0 1 16.03-2.11l.335.759m.837-5.134v4.147a1 1 0 0 1-.837.987m-4.31.013h4.147q.083 0 .163-.013M3.25 20.75v-4.147a1 1 0 0 1 1-1m0 0h4.147m-4.147 0l.172.772a8.75 8.75 0 0 0 16.03-2.11"/></symbol><symbol id="hd-icon-proicons-arrow-sync-2" viewBox="0 0 24 24"><path fill="none" stroke="currentColor" stroke-linecap="round" stroke-linejoin="round" stroke-width="1.5" d="M7.915 18.532A7.83 7.83 0 0 1 11.831 3.92h1.043m-1.755-2.17l1.462 1.462a1 1 0 0 1 .293.708m-1.755 2.169l1.462-1.462a1 1 0 0 0 .293-.707m3.211 1.299a7.83 7.83 0 0 1-3.916 14.612h-1.043M12.881 22l-1.462-1.462a1 1 0 0 1-.293-.707m1.755-2.17l-1.462 1.462a1 1 0 0 0-.293.708"/></symbol><symbol id="hd-icon-proicons-arrow-trending" viewBox="0 0 24 24"><path fill="none" stroke="currentColor" stroke-linecap="round" stroke-linejoin="round" stroke-width="1.5" d="m3.25 16.75l4.793-4.793a1 1 0 0 1 1.414 0l2.586 2.586a1 1 0 0 0 1.414 0L19.75 8.25l.56-.56m-5.56-.44h4.5c.414 0 .79.168 1.06.44m.44 5.56v-4.5c0-.414-.168-.79-.44-1.06"/></symbol><symbol id="hd-icon-proicons-arrow-undo" viewBox="0 0 24 24"><path fill="none" stroke="currentColor" stroke-linecap="round" stroke-linejoin="round" stroke-width="1.5" d="m9.97 21.25l8.26-8.26a5.999 5.999 0 0 0-8.483-8.483L5.013 9.24l-.622.622m7.199.505H5.513c-.447 0-.848-.195-1.122-.505M4.013 2.79v6.077c0 .382.143.73.378.995"/></symbol><symbol id="hd-icon-proicons-arrow-undo-2" viewBox="0 0 24 24"><path fill="none" stroke="currentColor" stroke-linecap="round" stroke-linejoin="round" stroke-width="1.5" d="M9.25 12L5.957 8.707A1 1 0 0 1 5.664 8M9.25 4L5.957 7.293A1 1 0 0 0 5.664 8M7.25 19.5h6.25a5.75 5.75 0 0 0 0-11.5H5.664"/></symbol><symbol id="hd-icon-proicons-arrow-up" viewBox="0 0 24 24"><path fill="none" stroke="currentColor" stroke-linecap="round" stroke-linejoin="round" stroke-width="1.5" d="M12 20V4.121M5.25 10.25l5.69-5.69A1.5 1.5 0 0 1 12 4.121m6.75 6.129l-5.69-5.69A1.5 1.5 0 0 0 12 4.122"/></symbol><symbol id="hd-icon-proicons-arrow-up-down" viewBox="0 0 24 24"><path fill="none" stroke="currentColor" stroke-linecap="round" stroke-linejoin="round" stroke-width="1.5" d="m7 16.25l3.94 3.94c.292.292.676.439 1.06.439m5-4.379l-3.94 3.94a1.5 1.5 0 0 1-1.06.439M7 7.75l3.94-3.94A1.5 1.5 0 0 1 12 3.371m5 4.379l-3.94-3.94A1.5 1.5 0 0 0 12 3.372m0 0V20.63"/></symbol><symbol id="hd-icon-proicons-arrow-upload" viewBox="0 0 24 24"><path fill="none" stroke="currentColor" stroke-linecap="round" stroke-linejoin="round" stroke-width="1.5" d="M12 16.349V3.87M6.118 9.132l4.821-4.821c.293-.293.677-.44 1.061-.44m5.882 5.261l-4.821-4.821A1.5 1.5 0 0 0 12 3.87m8.75 12.645v.935a3.3 3.3 0 0 1-3.3 3.3H6.55a3.3 3.3 0 0 1-3.3-3.3v-.935"/></symbol><symbol id="hd-icon-proicons-asterisk" viewBox="0 0 24 24"><path fill="none" stroke="currentColor" stroke-linecap="round" stroke-linejoin="round" stroke-width="1.5" d="m12 3.75l.004 8.243l7.009-4.118L12.008 12l7.005 4.125l-7.009-4.118L12 20.25l-.004-8.243l-7.009 4.118L11.992 12L4.987 7.875l7.009 4.118z"/></symbol><symbol id="hd-icon-proicons-attach" viewBox="0 0 24 24"><path fill="none" stroke="currentColor" stroke-linecap="round" stroke-linejoin="round" stroke-width="1.5" d="m2.861 13.625l9.342-9.342a5.235 5.235 0 1 1 7.403 7.403L10.88 20.41a2.867 2.867 0 0 1-4.054-4.054l8.372-8.373"/></symbol><symbol id="hd-icon-proicons-background-color" viewBox="0 0 24 24"><g fill="none" stroke="currentColor" stroke-linecap="round" stroke-linejoin="round" stroke-width="1.5"><path d="M13.04 4.75h3.66c1.68 0 2.52 0 3.162.327a3 3 0 0 1 1.311 1.311c.327.642.327 1.482.327 3.162v5.4c0 1.68 0 2.52-.327 3.162a3 3 0 0 1-1.311 1.311c-.642.327-1.482.327-3.162.327H7.8c-1.68 0-2.52 0-3.162-.327a3 3 0 0 1-1.311-1.311C3 17.47 3 16.63 3 14.95v-.93"/><path d="m6.407 2.818l5.384 5.385M6.407 2.818L3.01 6.214c-.696.696-1.044 1.044-1.174 1.446c-.057.176-.086.36-.086.543m4.657-5.385L5.589 2m6.202 6.203l-3.396 3.396c-.696.696-1.044 1.044-1.445 1.174a1.76 1.76 0 0 1-1.086 0c-.401-.13-.75-.478-1.445-1.174L3.01 10.191c-.696-.696-1.044-1.044-1.174-1.445a1.8 1.8 0 0 1-.086-.543m10.042 0H1.75m10.672 4.094l1.485-2.448l1.744 2.313a1.824 1.824 0 0 1-.668 2.491c-1.546.893-3.322-.74-2.562-2.356"/></g></symbol><symbol id="hd-icon-proicons-background-color-accent" viewBox="0 0 24 24"><path fill="currentColor" fill-rule="evenodd" d="M3 14.95v-1.68h.633c.168.163.33.33.486.462c.307.261.696.54 1.204.706a3.5 3.5 0 0 0 2.168 0c.507-.165.896-.445 1.203-.706c.28-.236.583-.54.895-.852l1.185-1.186c-1.322 3.12 2.099 6.198 5.084 4.475a3.574 3.574 0 0 0 1.308-4.882a2 2 0 0 0-.118-.179l-1.744-2.313a1.75 1.75 0 0 0-1.764-.657a1.75 1.75 0 0 0-.511-1.173l-.739-.716V4.75h4.41c1.68 0 2.52 0 3.162.327a3 3 0 0 1 1.311 1.311c.327.642.327 1.482.327 3.162v5.4c0 1.68 0 2.52-.327 3.162a3 3 0 0 1-1.311 1.311c-.642.327-1.482.327-3.162.327H7.8c-1.68 0-2.52 0-3.162-.327a3 3 0 0 1-1.311-1.311C3 17.47 3 16.63 3 14.95" clip-rule="evenodd"/></symbol><symbol id="hd-icon-proicons-backspace" viewBox="0 0 24 24"><path fill="none" stroke="currentColor" stroke-linecap="round" stroke-linejoin="round" stroke-width="1.5" d="M6.71 6.084a3.5 3.5 0 0 1 2.572-1.126h7.968a3.5 3.5 0 0 1 3.5 3.5v7.084a3.5 3.5 0 0 1-3.5 3.5H9.282a3.5 3.5 0 0 1-2.571-1.126l-3.27-3.542a3.5 3.5 0 0 1 0-4.748zm4.11 3.281l5.271 5.27m0-5.27l-5.27 5.27"/></symbol><symbol id="hd-icon-proicons-badge" viewBox="0 0 24 24"><g fill="none" stroke="currentColor" stroke-linecap="round" stroke-linejoin="round" stroke-width="1.5"><path d="M12 3.75H8.75a5 5 0 0 0-5 5v6.5a5 5 0 0 0 5 5h6.5a5 5 0 0 0 5-5V12"/><circle cx="18.25" cy="5.75" r="3"/></g></symbol><symbol id="hd-icon-proicons-bank" viewBox="0 0 24 24"><g fill="none" stroke="currentColor" stroke-linecap="round" stroke-linejoin="round" stroke-width="1.5"><rect width="18.5" height="3" x="2.75" y="18.376" rx="1"/><path d="M11.04 3.15L3.27 7.4a1 1 0 0 0-.52.877v.997a.6.6 0 0 0 .6.6h17.3a.6.6 0 0 0 .6-.6v-.997a1 1 0 0 0-.52-.877l-7.77-4.25a2 2 0 0 0-1.92 0M5.25 9.874v8.51m13.5-8.51v8.51m-4.25-8.51v8.51m-5-8.51v8.51"/></g></symbol><symbol id="hd-icon-proicons-bar-chart" viewBox="0 0 24 24"><path fill="none" stroke="currentColor" stroke-linecap="round" stroke-linejoin="round" stroke-width="1.5" d="M2.75 10.25a2 2 0 0 1 2-2h4.167v13H4.75a2 2 0 0 1-2-2zm12.333 2h4.167a2 2 0 0 1 2 2v5a2 2 0 0 1-2 2h-4.167zm-6.166-7.5a2 2 0 0 1 2-2h2.166a2 2 0 0 1 2 2v16.5H8.917z"/></symbol><symbol id="hd-icon-proicons-bar-chart-sparkle" viewBox="0 0 24 24"><g fill="none"><path stroke="currentColor" stroke-linecap="round" stroke-linejoin="round" stroke-width="1.5" d="M2.75 10.25a2 2 0 0 1 2-2h4.167v13H4.75a2 2 0 0 1-2-2zm15.75 2h-3.417v9h4.167a2 2 0 0 0 2-2V13.5m-6.167-3v10.75H8.917V4.75a2 2 0 0 1 2-2H12"/><path fill="currentColor" d="M15.4 1.418a.64.64 0 0 1 1.2 0l.167.45a4 4 0 0 0 2.366 2.365l.449.166a.64.64 0 0 1 0 1.202l-.45.166a4 4 0 0 0-2.365 2.366l-.166.449a.64.64 0 0 1-1.202 0l-.166-.45a4 4 0 0 0-2.366-2.365l-.449-.166a.64.64 0 0 1 0-1.202l.45-.166a4 4 0 0 0 2.365-2.366zm4.725 5.843a.4.4 0 0 1 .75 0l.104.281a2.5 2.5 0 0 0 1.479 1.479l.28.103a.4.4 0 0 1 0 .752l-.28.103a2.5 2.5 0 0 0-1.479 1.479l-.104.28a.4.4 0 0 1-.75 0l-.104-.28a2.5 2.5 0 0 0-1.479-1.479l-.28-.103a.4.4 0 0 1 0-.752l.28-.103a2.5 2.5 0 0 0 1.479-1.479z"/></g></symbol><symbol id="hd-icon-proicons-bar-graph" viewBox="0 0 24 24"><g fill="none" stroke="currentColor" stroke-linecap="round" stroke-linejoin="round" stroke-width="1.5"><path d="M2.75 21h18.5"/><rect width="6" height="10" x="4" y="7.5" rx="2"/><rect width="6" height="15" x="14" y="2.5" rx="2"/></g></symbol><symbol id="hd-icon-proicons-basketball" viewBox="0 0 24 24"><g fill="none" stroke="currentColor" stroke-linecap="round" stroke-linejoin="round" stroke-width="1.5"><circle cx="12" cy="12" r="9.25"/><path d="M18.54 18.54s-1.852-4.79-5.415-8.227s-8.823-3.445-8.823-3.445"/><path d="M13.912 13.912c2.241-2.242 4.86-3.613 7.113-3.927a9.24 9.24 0 0 1-2.484 8.555a9.24 9.24 0 0 1-8.557 2.486c.315-2.254 1.686-4.873 3.928-7.114M5.46 5.459a9.24 9.24 0 0 1 8.554-2.485c-.314 2.253-1.685 4.872-3.926 7.114S5.227 13.7 2.973 14.015A9.24 9.24 0 0 1 5.46 5.459"/></g></symbol><symbol id="hd-icon-proicons-battery" viewBox="0 0 24 24"><g fill="none"><rect width="16" height="12" x="2.75" y="6" stroke="currentColor" stroke-linecap="round" stroke-linejoin="round" stroke-width="1.5" rx="3.25"/><rect width="7" height="7" x="5.25" y="8.5" fill="currentColor" rx="1.5"/><path stroke="currentColor" stroke-linecap="round" stroke-linejoin="round" stroke-width="1.5" d="M21.25 10v4"/></g></symbol><symbol id="hd-icon-proicons-battery-full" viewBox="0 0 24 24"><g fill="none"><rect width="16" height="12" x="2.75" y="6" stroke="currentColor" stroke-linecap="round" stroke-linejoin="round" stroke-width="1.5" rx="3.25"/><rect width="11" height="7" x="5.25" y="8.5" fill="currentColor" rx="1.5"/><path stroke="currentColor" stroke-linecap="round" stroke-linejoin="round" stroke-width="1.5" d="M21.25 10v4"/></g></symbol><symbol id="hd-icon-proicons-beach" viewBox="0 0 24 24"><path fill="none" stroke="currentColor" stroke-linecap="round" stroke-linejoin="round" stroke-width="1.5" d="M17.135 4.027c1.969 1.137 3.369 3.074 3.89 5.386a9.4 9.4 0 0 1 .005 4.066c-.361 1.67-2.311 2.182-3.791 1.328l-9.492-5.48c-1.48-.855-2.012-2.8-.746-3.948a9.4 9.4 0 0 1 3.523-2.03c2.263-.703 4.641-.46 6.61.678m0 0c-1.368-.79-4.554 2.17-7.118 6.61m7.118-6.61c1.367.789.397 5.028-2.167 9.469m-2.475-1.43l-3.61 6.254m7.027 2.725a9.306 9.306 0 0 0-13.159 0"/></symbol><symbol id="hd-icon-proicons-beaker" viewBox="0 0 24 24"><path fill="none" stroke="currentColor" stroke-linecap="round" stroke-linejoin="round" stroke-width="1.5" d="M9.456 3.75v5.09a3 3 0 0 1-.557 1.742l-1.736 2.436M9.456 3.75h-1.65m1.65 0h5.088m0 0v5.09a3 3 0 0 0 .557 1.742l1.736 2.436M14.544 3.75h1.65m-9.031 9.268l-2.378 3.337a2.465 2.465 0 0 0 2.007 3.895h10.416a2.465 2.465 0 0 0 2.007-3.895l-2.378-3.337m-9.674 0h9.674"/></symbol><symbol id="hd-icon-proicons-bell" viewBox="0 0 24 24"><g fill="none" stroke="currentColor" stroke-linecap="round" stroke-width="1.5"><path stroke-linejoin="round" d="M18.934 14.98a3 3 0 0 1-.457-1.59V9.226a6.477 6.477 0 0 0-12.954 0v4.162a3 3 0 0 1-.457 1.592l-1.088 1.74a1 1 0 0 0 .848 1.53h14.348a1 1 0 0 0 .848-1.53z"/><path d="M10 21.25h4"/></g></symbol><symbol id="hd-icon-proicons-bell-dot" viewBox="0 0 24 24"><g fill="none"><path stroke="currentColor" stroke-linecap="round" stroke-linejoin="round" stroke-width="1.5" d="M18.477 9.75v3.64a3 3 0 0 0 .456 1.59l1.09 1.74a1 1 0 0 1-.849 1.53H4.826a1 1 0 0 1-.848-1.53l1.088-1.74a3 3 0 0 0 .457-1.59V9.226A6.477 6.477 0 0 1 14.52 3.26"/><path stroke="currentColor" stroke-linecap="round" stroke-width="1.5" d="M10 21.25h4"/><circle cx="18.5" cy="5.5" r="2.5" fill="currentColor"/></g></symbol><symbol id="hd-icon-proicons-bell-off" viewBox="0 0 24 24"><g fill="none" stroke="currentColor" stroke-linecap="round" stroke-width="1.5"><path d="M10 21.25h4"/><path stroke-linejoin="round" d="M17.188 18.25H4.826a1 1 0 0 1-.848-1.53l1.089-1.74a3 3 0 0 0 .457-1.59V9.226c0-.788.14-1.543.398-2.242M7.62 4.458l.06-.055a6.477 6.477 0 0 1 10.798 4.825v4.161a3 3 0 0 0 .457 1.592l1.088 1.74q.068.106.104.219"/><path stroke-linejoin="round" d="m20.719 21.782l-3.531-3.531L5.922 6.985L2.218 3.282"/></g></symbol><symbol id="hd-icon-proicons-bluesky" viewBox="0 0 24 24"><path fill="none" stroke="currentColor" stroke-linejoin="round" stroke-width="1.5" d="M21.247 5.646c.068-1.031-.695-1.98-1.702-1.724c-3.68.933-6.648 5.997-7.545 7.755c-.896-1.758-3.865-6.822-7.545-7.755c-1.007-.255-1.77.693-1.702 1.724l.3 4.466c.151 2.28 2.116 4.014 4.41 3.894l.49-.036c-.039.007-2.904.518-3.39 1.981c-.658 1.983 1.28 3.408 1.28 3.408c.022.024 1.894 2.096 3.765.899c1.463-.71 2.393-4.01 2.393-4.01s.929 3.3 2.392 4.01c1.88 1.203 3.762-.896 3.764-.9c.016-.01 1.935-1.431 1.28-3.407c-.49-1.473-3.391-1.98-3.391-1.98l.493.035c2.293.12 4.258-1.615 4.41-3.894z"/></symbol><symbol id="hd-icon-proicons-bluetooth" viewBox="0 0 24 24"><path fill="none" stroke="currentColor" stroke-linecap="round" stroke-linejoin="round" stroke-width="1.5" d="m6.25 7.5l5.454 4.5m0 0l5.246 3.982a.65.65 0 0 1 0 1.036l-4.202 3.19a.65.65 0 0 1-1.043-.517V4.31a.65.65 0 0 1 1.043-.518l4.202 3.19a.65.65 0 0 1 0 1.036zm0 0L6.25 16.5"/></symbol><symbol id="hd-icon-proicons-board" viewBox="0 0 24 24"><g fill="none"><path stroke="currentColor" stroke-linecap="round" stroke-linejoin="round" stroke-width="1.5" d="M17.75 4H6.25a3.5 3.5 0 0 0-3.5 3.5v9a3.5 3.5 0 0 0 3.5 3.5h11.5a3.5 3.5 0 0 0 3.5-3.5v-9a3.5 3.5 0 0 0-3.5-3.5"/><path fill="currentColor" d="M17.1 6.95H6.9a1.2 1.2 0 0 0-1.2 1.2v.483a1.2 1.2 0 0 0 1.2 1.2h10.2a1.2 1.2 0 0 0 1.2-1.2V8.15a1.2 1.2 0 0 0-1.2-1.2m0 5.64h-2.9a1.2 1.2 0 0 0-1.2 1.2v2.06a1.2 1.2 0 0 0 1.2 1.2h2.9a1.2 1.2 0 0 0 1.2-1.2v-2.06a1.2 1.2 0 0 0-1.2-1.2m-8.1 0H6.9a1.2 1.2 0 0 0-1.2 1.2v2.06a1.2 1.2 0 0 0 1.2 1.2H9a1.2 1.2 0 0 0 1.2-1.2v-2.06a1.2 1.2 0 0 0-1.2-1.2"/></g></symbol><symbol id="hd-icon-proicons-bolt" viewBox="0 0 24 24"><path fill="none" stroke="currentColor" stroke-linejoin="round" stroke-width="1.5" d="M19.896 11.457c.64 0 .924.804.426 1.206l-10.45 8.434c-.505.407-1.238-.057-1.086-.687l1.615-6.696H4.104a.678.678 0 0 1-.455-1.182l10.63-9.604c.489-.442 1.257.002 1.118.646l-1.698 7.883z"/></symbol><symbol id="hd-icon-proicons-book" viewBox="0 0 24 24"><g fill="none" stroke="currentColor" stroke-linecap="round" stroke-linejoin="round" stroke-width="1.5"><path d="M4.5 16.25V5.75a3 3 0 0 1 3-3h11a1 1 0 0 1 1 1v12.5H7.375M4.5 16.245v2.38"/><path d="M18.5 21.25H7a2.5 2.5 0 0 1 0-5h12.5v4a1 1 0 0 1-1 1"/></g></symbol><symbol id="hd-icon-proicons-book-2" viewBox="0 0 24 24"><g fill="none" stroke="currentColor" stroke-linecap="round" stroke-linejoin="round" stroke-width="1.5"><path d="M4.5 4.749a2 2 0 0 1 2-2h11a2 2 0 0 1 2 2v13h-15zm0 13v1.503a2 2 0 0 0 2 2h13"/><rect width="8" height="3" x="8" y="6.25" rx=".6"/></g></symbol><symbol id="hd-icon-proicons-book-add" viewBox="0 0 24 24"><g fill="none"><path fill="currentColor" fill-rule="evenodd" d="M17.5 23a5.5 5.5 0 1 0 0-11a5.5 5.5 0 0 0 0 11m0-8.993a.5.5 0 0 1 .5.5V17h2.493a.5.5 0 1 1 0 1H18v2.493a.5.5 0 1 1-1 0V18h-2.493a.5.5 0 1 1 0-1H17v-2.493a.5.5 0 0 1 .5-.5" clip-rule="evenodd"/><path stroke="currentColor" stroke-linecap="round" stroke-linejoin="round" stroke-width="1.5" d="M4.5 16.245v2.38m2.875-2.375h2.969H7a2.5 2.5 0 0 0-2.5 2.5m6.875 2.5H7a2.5 2.5 0 0 1-2.5-2.5m0 0v-13a3 3 0 0 1 3-3h11a1 1 0 0 1 1 1v6.844"/></g></symbol><symbol id="hd-icon-proicons-book-add-2" viewBox="0 0 24 24"><g fill="none"><path stroke="currentColor" stroke-linecap="round" stroke-linejoin="round" stroke-width="1.5" d="M4.5 18.749v-12.8c0-1.12 0-1.68.218-2.108a2 2 0 0 1 .874-.874c.428-.218.988-.218 2.108-.218h8.6c1.12 0 1.68 0 2.108.218a2 2 0 0 1 .874.874c.218.427.218.987.218 2.108v4.301m-15 8.499c0 .467 0 .7.039.895a2 2 0 0 0 1.568 1.569c.195.039.429.039.896.039h3.247M4.5 18.749h4.75M8.96 9.25h6.08c.336 0 .504 0 .632-.065a.6.6 0 0 0 .263-.263C16 8.794 16 8.626 16 8.29V7.21c0-.336 0-.504-.065-.632a.6.6 0 0 0-.263-.263c-.128-.065-.296-.065-.632-.065H8.96c-.336 0-.504 0-.632.065a.6.6 0 0 0-.263.263C8 6.706 8 6.874 8 7.21v1.08c0 .336 0 .504.065.632a.6.6 0 0 0 .263.263c.128.065.296.065.632.065"/><path fill="currentColor" fill-rule="evenodd" d="M17.5 23a5.5 5.5 0 1 0 0-11a5.5 5.5 0 0 0 0 11m0-8.993a.5.5 0 0 1 .5.5V17h2.493a.5.5 0 1 1 0 1H18v2.493a.5.5 0 1 1-1 0V18h-2.493a.5.5 0 1 1 0-1H17v-2.493a.5.5 0 0 1 .5-.5" clip-rule="evenodd"/></g></symbol><symbol id="hd-icon-proicons-book-info" viewBox="0 0 24 24"><g fill="none"><path stroke="currentColor" stroke-linecap="round" stroke-linejoin="round" stroke-width="1.5" d="M4.5 16.25V5.75a3 3 0 0 1 3-3h11a1 1 0 0 1 1 1v12.5H7.375M4.5 16.245v2.38"/><path stroke="currentColor" stroke-linecap="round" stroke-linejoin="round" stroke-width="1.5" d="M18.5 21.25H7a2.5 2.5 0 0 1 0-5h12.5v4a1 1 0 0 1-1 1"/><path stroke="currentColor" stroke-linecap="round" stroke-width="1.5" d="M12 9.45v3.79"/><circle cx="12" cy="6.217" r="1.197" fill="currentColor"/></g></symbol><symbol id="hd-icon-proicons-book-info-2" viewBox="0 0 24 24"><g fill="none"><path stroke="currentColor" stroke-linecap="round" stroke-linejoin="round" stroke-width="1.5" d="M4.5 4.749a2 2 0 0 1 2-2h11a2 2 0 0 1 2 2v13h-15z"/><path stroke="currentColor" stroke-linecap="round" stroke-width="1.5" d="M12 10.07v4.79"/><circle cx="12" cy="6.837" r="1.197" fill="currentColor"/><path stroke="currentColor" stroke-linecap="round" stroke-linejoin="round" stroke-width="1.5" d="M4.5 17.749v1.503a2 2 0 0 0 2 2h13"/></g></symbol><symbol id="hd-icon-proicons-book-letter" viewBox="0 0 24 24"><g fill="none" stroke="currentColor" stroke-linecap="round" stroke-linejoin="round" stroke-width="1.5"><path d="M4.5 16.25V5.75a3 3 0 0 1 3-3h11a1 1 0 0 1 1 1v12.5H7.375M4.5 16.245v2.38"/><path d="M18.5 21.25H7a2.5 2.5 0 0 1 0-5h12.5v4a1 1 0 0 1-1 1m-9.842-8l1.193-2.872m0 0h4.298m-4.298 0l1.83-4.4c.126-.304.513-.304.639 0l1.829 4.4m0 0l1.193 2.872"/></g></symbol><symbol id="hd-icon-proicons-book-marked" viewBox="0 0 24 24"><g fill="none" stroke="currentColor" stroke-linejoin="round" stroke-width="1.5"><path stroke-linecap="round" d="M4.5 16.25V5.75a3 3 0 0 1 3-3h11a1 1 0 0 1 1 1v12.5H7.375M4.5 16.245v2.38"/><path stroke-linecap="round" d="M18.5 21.25H7a2.5 2.5 0 0 1 0-5h12.5v4a1 1 0 0 1-1 1"/><path d="M15.5 2.75h-6v7.517a.2.2 0 0 0 .341.142l1.952-1.952a1 1 0 0 1 1.414 0l1.952 1.952a.2.2 0 0 0 .341-.142z"/></g></symbol><symbol id="hd-icon-proicons-book-open" viewBox="0 0 24 24"><path fill="none" stroke="currentColor" stroke-linecap="round" stroke-linejoin="round" stroke-width="1.5" d="M2.75 7.21a2 2 0 0 1 2-2H8.5a3.5 3.5 0 0 1 3.5 3.5v10.885l-1.015-.721a4 4 0 0 0-2.318-.74H4.75a2 2 0 0 1-2-2zm18.5 0a2 2 0 0 0-2-2H15.5a3.5 3.5 0 0 0-3.5 3.5v10.885l1.015-.721a4 4 0 0 1 2.317-.74h3.918a2 2 0 0 0 2-2z"/></symbol><symbol id="hd-icon-proicons-bookmark" viewBox="0 0 24 24"><path fill="none" stroke="currentColor" stroke-linejoin="round" stroke-width="1.5" d="M4.75 20.113c0 .498.554.803.983.54l5.702-3.48a1.09 1.09 0 0 1 1.13 0l5.702 3.48a.644.644 0 0 0 .983-.54V6.25a3 3 0 0 0-3-3h-8.5a3 3 0 0 0-3 3z"/></symbol><symbol id="hd-icon-proicons-bookmark-add" viewBox="0 0 24 24"><g fill="none"><path fill="currentColor" fill-rule="evenodd" d="M17.5 12a5.5 5.5 0 1 0 0-11a5.5 5.5 0 0 0 0 11m0-8.993a.5.5 0 0 1 .5.5V6h2.493a.5.5 0 1 1 0 1H18v2.493a.5.5 0 0 1-1 0V7h-2.493a.5.5 0 1 1 0-1H17V3.507a.5.5 0 0 1 .5-.5" clip-rule="evenodd"/><path stroke="currentColor" stroke-linecap="round" stroke-linejoin="round" stroke-width="1.5" d="M19.25 13.5v6.613a.644.644 0 0 1-.983.54l-5.702-3.48a1.09 1.09 0 0 0-1.13 0l-5.702 3.48a.644.644 0 0 1-.983-.54V6.25a3 3 0 0 1 3-3h3.31"/></g></symbol><symbol id="hd-icon-proicons-bookmark-multiple" viewBox="0 0 24 24"><g fill="none" stroke="currentColor" stroke-linejoin="round" stroke-width="1.5"><path d="M3.75 20.654a.6.6 0 0 0 .916.51l5.308-3.282a1 1 0 0 1 1.052 0l5.308 3.282a.6.6 0 0 0 .916-.51V8.75a3 3 0 0 0-3-3h-7.5a3 3 0 0 0-3 3z"/><path stroke-linecap="round" d="M20.25 17.65v-8.9a6 6 0 0 0-6-6h-6.5"/></g></symbol><symbol id="hd-icon-proicons-bookmark-multiple-var" viewBox="0 0 24 24"><g fill="none" stroke="currentColor" stroke-linejoin="round" stroke-width="1.5"><path d="M4.421 8.45v11.884c0 .763.88 1.19 1.48.718l4.883-3.843a.914.914 0 0 1 1.13 0l4.884 3.843a.914.914 0 0 0 1.48-.718V8.45a3.2 3.2 0 0 0-3.2-3.2H7.621a3.2 3.2 0 0 0-3.2 3.2Z"/><path stroke-linecap="round" d="M21.278 16.334V8.25a6 6 0 0 0-6-6H8.421"/></g></symbol><symbol id="hd-icon-proicons-border-all" viewBox="0 0 24 24"><path fill="none" stroke="currentColor" stroke-linecap="round" stroke-linejoin="round" stroke-width="1.5" d="M12 20.25h4.25a4 4 0 0 0 4-4V12M12 20.25H7.75a4 4 0 0 1-4-4V12M12 20.25V3.75m0 0H7.75a4 4 0 0 0-4 4V12M12 3.75h4.25a4 4 0 0 1 4 4V12m-16.5 0h16.5"/></symbol><symbol id="hd-icon-proicons-box" viewBox="0 0 24 24"><path fill="none" stroke="currentColor" stroke-linejoin="round" stroke-width="1.5" d="m12 12l8.073-4.625M12 12v9.25M12 12L7.963 9.688m12.11-2.313a3.17 3.17 0 0 0-1.165-1.156L16.25 4.696m3.823 2.679c.275.472.427 1.015.427 1.58v6.09a3.15 3.15 0 0 1-1.592 2.736l-5.316 3.046A3.2 3.2 0 0 1 12 21.25M3.926 7.375a3.14 3.14 0 0 0-.426 1.58v6.09c0 1.13.607 2.172 1.592 2.736l5.316 3.046A3.2 3.2 0 0 0 12 21.25M3.926 7.375a3.17 3.17 0 0 1 1.166-1.156l5.316-3.046a3.2 3.2 0 0 1 3.184 0l2.658 1.523M3.926 7.375l4.037 2.313m0 0l8.287-4.992"/></symbol><symbol id="hd-icon-proicons-box-add" viewBox="0 0 24 24"><g fill="none"><path stroke="currentColor" stroke-linecap="round" stroke-linejoin="round" stroke-width="1.5" d="m11 12l8.073-4.625M11 12L6.963 9.688M11 12v2.281m8.073-6.906a3.17 3.17 0 0 0-1.165-1.156L15.25 4.696m3.823 2.679c.275.472.427 1.015.427 1.58v1.608M2.926 7.374a3.14 3.14 0 0 0-.426 1.58v6.09c0 1.13.607 2.172 1.592 2.736l5.316 3.046A3.2 3.2 0 0 0 11 21.25M2.926 7.375a3.17 3.17 0 0 1 1.166-1.156l5.316-3.046a3.2 3.2 0 0 1 3.184 0l2.658 1.523M2.926 7.375l4.037 2.313m0 0l8.287-4.992"/><path fill="currentColor" fill-rule="evenodd" d="M17.5 23a5.5 5.5 0 1 0 0-11a5.5 5.5 0 0 0 0 11m0-8.993a.5.5 0 0 1 .5.5V17h2.493a.5.5 0 1 1 0 1H18v2.493a.5.5 0 1 1-1 0V18h-2.493a.5.5 0 1 1 0-1H17v-2.493a.5.5 0 0 1 .5-.5" clip-rule="evenodd"/></g></symbol><symbol id="hd-icon-proicons-braces" viewBox="0 0 24 24"><path fill="none" stroke="currentColor" stroke-linecap="round" stroke-linejoin="round" stroke-width="1.5" d="M9 20.25a3 3 0 0 1-3-3v0v-1.343a4 4 0 0 0-1.172-2.829L3.75 12l1.078-1.078A4 4 0 0 0 6 8.093V6.75v0a3 3 0 0 1 3-3v0m6 16.5a3 3 0 0 0 3-3v0v-1.343a4 4 0 0 1 1.172-2.829L20.25 12l-1.078-1.078A4 4 0 0 1 18 8.093V6.75v0a3 3 0 0 0-3-3v0"/></symbol><symbol id="hd-icon-proicons-braces-variable" viewBox="0 0 24 24"><path fill="none" stroke="currentColor" stroke-linecap="round" stroke-linejoin="round" stroke-width="1.5" d="M7 20.25a2 2 0 0 1-2-2v-2.343a4 4 0 0 0-1.172-2.829L2.75 12l1.078-1.078A4 4 0 0 0 5 8.093V5.75a2 2 0 0 1 2-2m10 16.5a2 2 0 0 0 2-2v-2.343a4 4 0 0 1 1.172-2.829L21.25 12l-1.078-1.078A4 4 0 0 1 19 8.093V5.75a2 2 0 0 0-2-2M9 8.143l6 7.714m0-7.714l-6 7.714"/></symbol><symbol id="hd-icon-proicons-brackets" viewBox="0 0 24 24"><path fill="none" stroke="currentColor" stroke-linecap="round" stroke-linejoin="round" stroke-width="1.5" d="M8.75 3.75h-2a2 2 0 0 0-2 2v12.5a2 2 0 0 0 2 2h2m6.5-16.5h2a2 2 0 0 1 2 2v12.5a2 2 0 0 1-2 2h-2"/></symbol><symbol id="hd-icon-proicons-brain" viewBox="0 0 24 24"><g fill="none"><path fill="currentColor" d="M5 15.75h.75a.75.75 0 0 0-.396-.662zm0-7.501l.353.662a.75.75 0 0 0 .397-.662zM8.5 2.75v.75a2.75 2.75 0 0 1 2.75 2.75h1.5A4.25 4.25 0 0 0 8.5 2zm3.5 3.5h-.75v11.5h1.5V6.25zm0 11.5h-.75A2.75 2.75 0 0 1 8.5 20.5V22a4.25 4.25 0 0 0 4.25-4.25zm-3.5 3.5v-.75a2.75 2.75 0 0 1-2.75-2.75h-1.5A4.25 4.25 0 0 0 8.5 22zM5 17.75h.75v-2h-1.5v2zm0-2l.354-.662A3.5 3.5 0 0 1 3.5 12H2a5 5 0 0 0 2.646 4.412zM2.75 12h.75a3.5 3.5 0 0 1 1.853-3.09L5 8.25l-.353-.661A5 5 0 0 0 2 12zM5 8.249h.75V6.25h-1.5v1.999zM5 6.25h.75A2.75 2.75 0 0 1 8.5 3.5V2a4.25 4.25 0 0 0-4.25 4.25z"/><path stroke="currentColor" stroke-linecap="round" stroke-linejoin="round" stroke-width="1.5" d="M8.952 15.775a4.25 4.25 0 1 1-1.736-8.02M12 15a4 4 0 0 0-4-4m4 4a4 4 0 0 1 4-4"/><path fill="currentColor" d="M19 15.75h-.75a.75.75 0 0 1 .396-.662zm0-7.501l-.353.662a.75.75 0 0 1-.397-.662zM15.5 2.75v.75a2.75 2.75 0 0 0-2.75 2.75h-1.5A4.25 4.25 0 0 1 15.5 2zM12 6.25h.75v11.5h-1.5V6.25zm0 11.5h.75a2.75 2.75 0 0 0 2.75 2.75V22a4.25 4.25 0 0 1-4.25-4.25zm3.5 3.5v-.75a2.75 2.75 0 0 0 2.75-2.75h1.5A4.25 4.25 0 0 1 15.5 22zm3.5-3.5h-.75v-2h1.5v2zm0-2l-.354-.662A3.5 3.5 0 0 0 20.5 12H22a5 5 0 0 1-2.646 4.412zM21.25 12h-.75a3.5 3.5 0 0 0-1.853-3.09L19 8.25l.353-.661A5 5 0 0 1 22 12zM19 8.249h-.75V6.25h1.5v1.999zm0-1.999h-.75A2.75 2.75 0 0 0 15.5 3.5V2a4.25 4.25 0 0 1 4.25 4.25z"/><path stroke="currentColor" stroke-linecap="round" stroke-linejoin="round" stroke-width="1.5" d="M15.048 15.775a4.25 4.25 0 1 0 1.736-8.02"/></g></symbol><symbol id="hd-icon-proicons-branch" viewBox="0 0 24 24"><path fill="none" stroke="currentColor" stroke-linecap="round" stroke-linejoin="round" stroke-width="1.5" d="M7 8.25a2.75 2.75 0 1 0 0-5.5a2.75 2.75 0 0 0 0 5.5m0 0v7.5m0-7.5c0 2.9 2.35 5.25 5.25 5.25h2M7 15.75a2.75 2.75 0 1 0 0 5.5a2.75 2.75 0 0 0 0-5.5m7.25-2.25a2.75 2.75 0 1 0 5.5 0a2.75 2.75 0 0 0-5.5 0"/></symbol><symbol id="hd-icon-proicons-branch-compare" viewBox="0 0 24 24"><g fill="none" stroke="currentColor" stroke-linecap="round" stroke-linejoin="round" stroke-width="1.5"><path d="M8.25 5.5a2.75 2.75 0 1 1-5.5 0a2.75 2.75 0 0 1 5.5 0m13 13a2.75 2.75 0 1 1-5.5 0a2.75 2.75 0 0 1 5.5 0"/><path d="M5.5 8.25v7.25a3 3 0 0 0 3 3h4.336M10.75 16l1.793 1.793a1 1 0 0 1 .293.707M10.75 21l1.793-1.793a1 1 0 0 0 .293-.707m5.664-2.75V8.5a3 3 0 0 0-3-3h-4.336M13.25 8l-1.793-1.793a1 1 0 0 1-.293-.707M13.25 3l-1.793 1.793a1 1 0 0 0-.293.707"/></g></symbol><symbol id="hd-icon-proicons-branch-fork" viewBox="0 0 24 24"><path fill="none" stroke="currentColor" stroke-linecap="round" stroke-linejoin="round" stroke-width="1.5" d="M7 8.25a2.75 2.75 0 1 0 0-5.5a2.75 2.75 0 0 0 0 5.5m0 0V12m0 3.75a2.75 2.75 0 1 0 0 5.5a2.75 2.75 0 0 0 0-5.5m0 0V12m10-3.75a2.75 2.75 0 1 0 0-5.5a2.75 2.75 0 0 0 0 5.5m0 0V9a3 3 0 0 1-3 3H7"/></symbol><symbol id="hd-icon-proicons-branch-fork-2" viewBox="0 0 24 24"><path fill="none" stroke="currentColor" stroke-linecap="round" stroke-linejoin="round" stroke-width="1.5" d="M6.5 8.25a2.75 2.75 0 1 0 0-5.5a2.75 2.75 0 0 0 0 5.5m0 0V10a2 2 0 0 0 2 2h3m6-3.75a2.75 2.75 0 1 0 0-5.5a2.75 2.75 0 0 0 0 5.5m0 0V10a2 2 0 0 1-2 2h-4m0 0v3.75m0 0a2.75 2.75 0 1 0 0 5.5a2.75 2.75 0 0 0 0-5.5"/></symbol><symbol id="hd-icon-proicons-branch-pull-request" viewBox="0 0 24 24"><g fill="none" stroke="currentColor" stroke-linecap="round" stroke-linejoin="round" stroke-width="1.5"><path d="M8.25 5.5a2.75 2.75 0 1 1-5.5 0a2.75 2.75 0 0 1 5.5 0m13 13a2.75 2.75 0 1 1-5.5 0a2.75 2.75 0 0 1 5.5 0m-13 0a2.75 2.75 0 1 1-5.5 0a2.75 2.75 0 0 1 5.5 0M5.5 8.25v7.5"/><path d="M18.5 15.75V8.5a3 3 0 0 0-3-3h-4.336M13.25 8l-1.793-1.793a1 1 0 0 1-.293-.707M13.25 3l-1.793 1.793a1 1 0 0 0-.293.707"/></g></symbol><symbol id="hd-icon-proicons-briefcase" viewBox="0 0 24 24"><g fill="none" stroke="currentColor" stroke-linecap="round" stroke-linejoin="round" stroke-width="1.5"><path d="M3.75 9.894a2.5 2.5 0 0 1 2.5-2.5h11.5a2.5 2.5 0 0 1 2.5 2.5V17.5a2.5 2.5 0 0 1-2.5 2.5H6.25a2.5 2.5 0 0 1-2.5-2.5z"/><path d="M17.75 7.394H6.25a2.5 2.5 0 0 0-2.5 2.5v.303a3 3 0 0 0 3 3h10.5a3 3 0 0 0 3-3v-.303a2.5 2.5 0 0 0-2.5-2.5M8.603 5.5a1.5 1.5 0 0 1 1.5-1.5h3.794a1.5 1.5 0 0 1 1.5 1.5v1.894H8.603z"/></g></symbol><symbol id="hd-icon-proicons-briefcase-2" viewBox="0 0 24 24"><path fill="none" stroke="currentColor" stroke-linecap="round" stroke-linejoin="round" stroke-width="1.5" d="M3.75 10.5A2.5 2.5 0 0 1 6.25 8h11.5a2.5 2.5 0 0 1 2.5 2.5v7a2.5 2.5 0 0 1-2.5 2.5H6.25a2.5 2.5 0 0 1-2.5-2.5zm4.853-5a1.5 1.5 0 0 1 1.5-1.5h3.794a1.5 1.5 0 0 1 1.5 1.5V8H8.603z"/></symbol><symbol id="hd-icon-proicons-brightness" viewBox="0 0 24 24"><g fill="none" stroke="currentColor" stroke-width="1.5"><circle cx="12" cy="12" r="4.25"/><path stroke-linecap="round" d="M12 2.75v1.5M5.46 5.46l1.06 1.06M12 19.75v1.5m5.48-3.77l1.06 1.06M2.75 12h1.5m1.21 6.54l1.06-1.06M19.75 12h1.5m-3.77-5.48l1.06-1.06"/></g></symbol><symbol id="hd-icon-proicons-broom" viewBox="0 0 24 24"><path fill="none" stroke="currentColor" stroke-linecap="round" stroke-linejoin="round" stroke-width="1.5" d="m13.444 17.626l.707-.707a5 5 0 0 0 0-7.071m-.707 7.778l-7.071-7.071m7.07 7.07l-2.828 4.243l-8.485-8.485l4.243-2.828m0 0l.707-.707a5 5 0 0 1 7.07 0m0 0l6.718-6.718"/></symbol><symbol id="hd-icon-proicons-bug" viewBox="0 0 24 24"><path fill="none" stroke="currentColor" stroke-linecap="round" stroke-linejoin="round" stroke-width="1.5" d="M7.5 9.08a3.23 3.23 0 0 1 3.23-3.23h2.54a3.23 3.23 0 0 1 3.23 3.23v6.27a4.5 4.5 0 0 1-4.5 4.5v0a4.5 4.5 0 0 1-4.5-4.5zm9 3.77h4.75m-18.5 0H7.5m2.25-9.7v.45A2.25 2.25 0 0 0 12 5.85v0a2.25 2.25 0 0 0 2.25-2.25v-.45M16.5 16.6h1.253a2.5 2.5 0 0 1 2.5 2.5v1.75M7.5 16.6H6.247a2.5 2.5 0 0 0-2.5 2.5v1.75M16.5 9.1h1.253a2.5 2.5 0 0 0 2.5-2.5V4.85M7.5 9.1H6.247a2.5 2.5 0 0 1-2.5-2.5V4.85"/></symbol><symbol id="hd-icon-proicons-bug-add" viewBox="0 0 24 24"><g fill="none"><path stroke="currentColor" stroke-linecap="round" stroke-linejoin="round" stroke-width="1.5" d="M16.5 10.438V9.08a3.23 3.23 0 0 0-3.23-3.231h-2.54A3.23 3.23 0 0 0 7.5 9.08v6.27a4.5 4.5 0 0 0 3.23 4.319M2.75 12.85H7.5"/><path stroke="currentColor" stroke-linecap="round" stroke-linejoin="round" stroke-width="1.5" d="M9.75 3.15v.45A2.25 2.25 0 0 0 12 5.85v0a2.25 2.25 0 0 0 2.25-2.25v-.45M7.5 16.6H6.247a2.5 2.5 0 0 0-2.5 2.5v1.75M16.5 9.1h1.253a2.5 2.5 0 0 0 2.5-2.5V4.85M7.5 9.1H6.247a2.5 2.5 0 0 1-2.5-2.5V4.85"/><path fill="currentColor" d="M17.5 12a5.5 5.5 0 1 1 0 11a5.5 5.5 0 0 1 0-11m0 2a.5.5 0 0 0-.501.501v2.498h-2.498a.501.501 0 1 0 0 1.002h2.498v2.498a.501.501 0 0 0 1.002 0v-2.498h2.498l.1-.01a.502.502 0 0 0 0-.982l-.1-.01h-2.498v-2.498a.5.5 0 0 0-.501-.5"/></g></symbol><symbol id="hd-icon-proicons-bug-play" viewBox="0 0 24 24"><g fill="none" stroke="currentColor" stroke-linejoin="round" stroke-width="1.5"><path stroke-linecap="round" d="M12 19.85a4.5 4.5 0 0 1-4.5-4.5V9.08a3.23 3.23 0 0 1 3.23-3.23h2.54a3.23 3.23 0 0 1 3.23 3.23v1.326M2.75 12.85H7.5m2.25-9.7v.45A2.25 2.25 0 0 0 12 5.85v0a2.25 2.25 0 0 0 2.25-2.25v-.45M7.5 16.6H6.247a2.5 2.5 0 0 0-2.5 2.5v1.75M16.5 9.1h1.253a2.5 2.5 0 0 0 2.5-2.5V4.85M7.5 9.1H6.247a2.5 2.5 0 0 1-2.5-2.5V4.85"/><path d="M14.496 13.978c0-.89.982-1.428 1.731-.95l4.505 2.872a1.126 1.126 0 0 1 0 1.9l-4.505 2.872a1.126 1.126 0 0 1-1.731-.95z"/></g></symbol><symbol id="hd-icon-proicons-building-multiple" viewBox="0 0 24 24"><g fill="none"><path stroke="currentColor" stroke-linecap="round" stroke-linejoin="round" stroke-width="1.5" d="M14.75 5a1.5 1.5 0 0 0-1.5-1.5H9.288a1 1 0 0 0-1 1v1H4.75a2 2 0 0 0-2 2v11a2 2 0 0 0 2 2h10zm0 3.5h4.5a2 2 0 0 1 2 2v8a2 2 0 0 1-2 2h-4.5zm0 4h2.5m-2.5 4h2.5"/><circle cx="6.75" cy="9.5" r="1" fill="currentColor"/><circle cx="6.75" cy="13" r="1" fill="currentColor"/><circle cx="6.75" cy="16.5" r="1" fill="currentColor"/><circle cx="10.75" cy="9.5" r="1" fill="currentColor"/><circle cx="10.75" cy="13" r="1" fill="currentColor"/><circle cx="10.75" cy="16.5" r="1" fill="currentColor"/></g></symbol><symbol id="hd-icon-proicons-bullet-list" viewBox="0 0 24 24"><g fill="none"><circle cx="4.443" cy="5.081" r="1.331" fill="currentColor"/><path stroke="currentColor" stroke-linecap="round" stroke-linejoin="round" stroke-width="1.5" d="M9.123 5.08h11.765"/><circle cx="4.443" cy="12" r="1.331" fill="currentColor"/><path stroke="currentColor" stroke-linecap="round" stroke-linejoin="round" stroke-width="1.5" d="M9.123 12h11.765"/><circle cx="4.443" cy="18.919" r="1.331" fill="currentColor"/><path stroke="currentColor" stroke-linecap="round" stroke-linejoin="round" stroke-width="1.5" d="M9.123 18.92h11.765"/></g></symbol><symbol id="hd-icon-proicons-bullet-list-square" viewBox="0 0 24 24"><g fill="none"><circle cx="7.877" cy="8.25" r="1" fill="currentColor"/><path stroke="currentColor" stroke-linecap="round" stroke-width="1.5" d="M11.062 8.25h5.31"/><circle cx="7.877" cy="12" r="1" fill="currentColor"/><path stroke="currentColor" stroke-linecap="round" stroke-width="1.5" d="M11.062 12h5.31"/><circle cx="7.877" cy="15.75" r="1" fill="currentColor"/><path stroke="currentColor" stroke-linecap="round" stroke-width="1.5" d="M11.062 15.75h5.31"/><rect width="16.5" height="16.5" x="3.75" y="3.75" stroke="currentColor" stroke-width="1.5" rx="4"/></g></symbol><symbol id="hd-icon-proicons-bullet-list-square-add" viewBox="0 0 24 24"><g fill="none"><circle cx="7.877" cy="8.25" r="1" fill="currentColor"/><path stroke="currentColor" stroke-linecap="round" stroke-width="1.5" d="M11.062 8.25h5.31"/><circle cx="7.877" cy="12" r="1" fill="currentColor"/><path stroke="currentColor" stroke-linecap="round" stroke-width="1.5" d="M11.062 12h1.31"/><circle cx="7.877" cy="15.75" r="1" fill="currentColor"/><path stroke="currentColor" stroke-linecap="round" stroke-width="1.5" d="M20.25 10.25v-2.5a4 4 0 0 0-4-4h-8.5a4 4 0 0 0-4 4v8.5a4 4 0 0 0 4 4h2.5"/><path fill="currentColor" fill-rule="evenodd" d="M17.5 23a5.5 5.5 0 1 0 0-11a5.5 5.5 0 0 0 0 11m0-8.993a.5.5 0 0 1 .5.5V17h2.493a.5.5 0 1 1 0 1H18v2.493a.5.5 0 1 1-1 0V18h-2.493a.5.5 0 1 1 0-1H17v-2.493a.5.5 0 0 1 .5-.5" clip-rule="evenodd"/></g></symbol><symbol id="hd-icon-proicons-bullet-list-tree" viewBox="0 0 24 24"><g fill="none"><circle cx="4.443" cy="5.081" r="1.331" fill="currentColor"/><path stroke="currentColor" stroke-linecap="round" stroke-linejoin="round" stroke-width="1.5" d="M9.123 5.08h11.765"/><circle cx="4.443" cy="12" r="1.331" fill="currentColor"/><path stroke="currentColor" stroke-linecap="round" stroke-linejoin="round" stroke-width="1.5" d="M9.123 12h11.765"/><circle cx="9.701" cy="18.919" r="1.331" fill="currentColor"/><path stroke="currentColor" stroke-linecap="round" stroke-linejoin="round" stroke-width="1.5" d="M14.38 18.92h6.508"/></g></symbol><symbol id="hd-icon-proicons-button" viewBox="0 0 24 24"><g fill="none" stroke="currentColor" stroke-linecap="round" stroke-linejoin="round" stroke-width="1.5"><rect width="18.5" height="11" x="2.75" y="6.5" rx="4"/><path d="M7 12h10"/></g></symbol><symbol id="hd-icon-proicons-cake" viewBox="0 0 24 24"><g fill="none" stroke="currentColor" stroke-linecap="round" stroke-linejoin="round" stroke-width="1.5"><path d="M4.25 13.25a2.5 2.5 0 0 1 2.5-2.5h10.5a2.5 2.5 0 0 1 2.5 2.5v8H4.25z"/><path d="m4.25 14.87l2.249 1.45a3 3 0 0 0 3.252 0l.623-.4a3 3 0 0 1 3.252 0l.623.4a3 3 0 0 0 3.252 0l2.249-1.45m1.5 6.375H2.75M12 2.75l1.414 1.414a2 2 0 1 1-2.828 0zm0 4.83v3.17"/></g></symbol><symbol id="hd-icon-proicons-calculator" viewBox="0 0 24 24"><g fill="none"><rect width="14.5" height="18.5" x="4.75" y="2.75" stroke="currentColor" stroke-linecap="round" stroke-linejoin="round" stroke-width="1.5" rx="3"/><rect width="7.5" height="3.75" x="8.25" y="6.25" stroke="currentColor" stroke-linecap="round" stroke-linejoin="round" stroke-width="1.5" rx="1"/><circle cx="8.5" cy="13.5" r="1" fill="currentColor"/><circle cx="12" cy="13.5" r="1" fill="currentColor"/><circle cx="15.5" cy="13.5" r="1" fill="currentColor"/><circle cx="8.5" cy="17.5" r="1" fill="currentColor"/><circle cx="12" cy="17.5" r="1" fill="currentColor"/><circle cx="15.5" cy="17.5" r="1" fill="currentColor"/></g></symbol><symbol id="hd-icon-proicons-calendar" viewBox="0 0 24 24"><path fill="none" stroke="currentColor" stroke-linecap="round" stroke-linejoin="round" stroke-width="1.5" d="M17.25 4.75H6.75a3.5 3.5 0 0 0-3.5 3.5v9.5a3.5 3.5 0 0 0 3.5 3.5h10.5a3.5 3.5 0 0 0 3.5-3.5v-9.5a3.5 3.5 0 0 0-3.5-3.5m-14 4.5h17.5M7.361 4.75v-2m9.25 2v-2"/></symbol><symbol id="hd-icon-proicons-call" viewBox="0 0 24 24"><path fill="none" stroke="currentColor" stroke-linejoin="round" stroke-width="1.5" d="M7.829 16.171a20.9 20.9 0 0 1-4.846-7.614c-.573-1.564-.048-3.282 1.13-4.46l.729-.728a2.11 2.11 0 0 1 2.987 0l1.707 1.707a2.11 2.11 0 0 1 0 2.987l-.42.42a1.81 1.81 0 0 0 0 2.56l3.84 3.841a1.81 1.81 0 0 0 2.56 0l.421-.42a2.11 2.11 0 0 1 2.987 0l1.707 1.707a2.11 2.11 0 0 1 0 2.987l-.728.728c-1.178 1.179-2.896 1.704-4.46 1.131a20.9 20.9 0 0 1-7.614-4.846Z"/></symbol><symbol id="hd-icon-proicons-call-end" viewBox="0 0 24 24"><path fill="none" stroke="currentColor" stroke-linejoin="round" stroke-width="1.5" d="M12 8.25c2.517 0 5 .555 7.3 1.621c1.252.581 1.95 1.895 1.95 3.276V14a1.75 1.75 0 0 1-1.75 1.75h-2A1.75 1.75 0 0 1 15.75 14v-.492a1.5 1.5 0 0 0-1.5-1.5h-4.5a1.5 1.5 0 0 0-1.5 1.5V14a1.75 1.75 0 0 1-1.75 1.75h-2A1.75 1.75 0 0 1 2.75 14v-.853c0-1.38.698-2.695 1.95-3.276A17.3 17.3 0 0 1 12 8.25Z"/></symbol><symbol id="hd-icon-proicons-calligraphy-pen" viewBox="0 0 24 24"><g fill="none"><path stroke="currentColor" stroke-linecap="round" stroke-linejoin="round" stroke-width="1.5" d="M19.16 2.75v1.049c0 1.187 0 1.78-.231 2.233a2.12 2.12 0 0 1-.926.927c-.454.23-1.047.23-2.234.23h-.423M4.84 2.75v1.049c0 1.187 0 1.78.231 2.233c.203.4.528.724.926.927c.454.23 1.047.23 2.234.23h.423m0 0L6.319 11.47c-.367.673-.55 1.01-.61 1.362a2.1 2.1 0 0 0 .054.935c.1.344.32.657.762 1.283l2.704 3.83c.934 1.323 1.4 1.983 1.98 2.217a2.12 2.12 0 0 0 1.582 0c.58-.234 1.047-.894 1.98-2.216l2.704-3.83c.442-.627.662-.94.761-1.284a2.1 2.1 0 0 0 .055-.935c-.06-.352-.243-.689-.61-1.362l-2.335-4.28m-6.692 0h6.692M12 13.325v7.522"/><circle cx="12" cy="13.325" r="1.673" fill="currentColor"/></g></symbol><symbol id="hd-icon-proicons-camera" viewBox="0 0 24 24"><g fill="none" stroke="currentColor" stroke-linecap="round" stroke-linejoin="round" stroke-width="1.5"><path d="M12.857 3.189h-1.714c-.681 0-1.022 0-1.331.094c-.274.083-.529.22-.75.401c-.25.205-.438.489-.816 1.056L7.103 6.454c-1.524 0-2.286 0-2.868.296a2.72 2.72 0 0 0-1.188 1.19c-.297.581-.297 1.343-.297 2.867v5.651c0 1.524 0 2.286.297 2.868c.26.512.677.928 1.188 1.189c.582.296 1.344.296 2.868.296h9.794c1.524 0 2.286 0 2.868-.296a2.72 2.72 0 0 0 1.188-1.19c.297-.581.297-1.343.297-2.867v-5.651c0-1.524 0-2.286-.297-2.868a2.72 2.72 0 0 0-1.188-1.189c-.582-.296-1.344-.296-2.868-.296L15.754 4.74c-.378-.567-.567-.85-.816-1.056a2.2 2.2 0 0 0-.75-.401c-.309-.094-.65-.094-1.331-.094"/><path d="M15.775 13.212a3.775 3.775 0 1 1-7.55 0a3.775 3.775 0 0 1 7.55 0"/></g></symbol><symbol id="hd-icon-proicons-cancel" viewBox="0 0 24 24"><path fill="none" stroke="currentColor" stroke-linecap="round" stroke-linejoin="round" stroke-width="1.5" d="m5 19l7-7m0 0l7-7m-7 7L5 5m7 7l7 7"/></symbol><symbol id="hd-icon-proicons-cancel-circle" viewBox="0 0 24 24"><g fill="none" stroke="currentColor" stroke-width="1.5"><circle cx="12" cy="12" r="9.25"/><path stroke-linecap="round" d="m8.875 8.875l6.25 6.25m0-6.25l-6.25 6.25"/></g></symbol><symbol id="hd-icon-proicons-cancel-octagon" viewBox="0 0 24 24"><g fill="none" stroke="currentColor" stroke-linecap="round" stroke-width="1.5"><path stroke-linejoin="round" d="M7.583 3.336a2 2 0 0 1 1.414-.586h6.006a2 2 0 0 1 1.414.586l4.247 4.247a2 2 0 0 1 .586 1.414v6.006a2 2 0 0 1-.586 1.414l-4.247 4.247a2 2 0 0 1-1.414.586H8.997a2 2 0 0 1-1.414-.586l-4.247-4.247a2 2 0 0 1-.586-1.414V8.997a2 2 0 0 1 .586-1.414z"/><path d="m8.75 8.75l6.5 6.5m0-6.5l-6.5 6.5"/></g></symbol><symbol id="hd-icon-proicons-cancel-square" viewBox="0 0 24 24"><g fill="none" stroke="currentColor" stroke-width="1.5"><path d="M8.25 3.75a4.5 4.5 0 0 0-4.5 4.5v7.5a4.5 4.5 0 0 0 4.5 4.5h7.5a4.5 4.5 0 0 0 4.5-4.5v-7.5a4.5 4.5 0 0 0-4.5-4.5z"/><path stroke-linecap="round" d="m8.655 8.655l6.69 6.69m0-6.69l-6.69 6.69"/></g></symbol><symbol id="hd-icon-proicons-candy" viewBox="0 0 24 24"><g fill="none" stroke="currentColor" stroke-linecap="round" stroke-linejoin="round" stroke-width="1.5"><path d="M9.02 7.53L7.53 9.02A5.269 5.269 0 0 0 14 17.243M9.02 7.53q.294-.295.62-.533m-.62.532l.62-.532m0 0q.177-.128.36-.24m0 11.106V6.757m0 0a5.28 5.28 0 0 1 4.288-.54a5.268 5.268 0 0 1 2.183 8.764l-1.49 1.49a5.3 5.3 0 0 1-.981.772m0-11.106v11.106"/><path d="M16.47 7.53a3.16 3.16 0 0 1 0-4.471a1.053 1.053 0 0 1 1.486-.005l2.99 2.99a1.053 1.053 0 0 1-.005 1.486a3.16 3.16 0 0 1-4.47 0M7.53 16.47a3.16 3.16 0 0 0-4.471 0a1.053 1.053 0 0 0-.005 1.486l2.99 2.99a1.053 1.053 0 0 0 1.486-.005a3.16 3.16 0 0 0 0-4.47"/></g></symbol><symbol id="hd-icon-proicons-cart" viewBox="0 0 24 24"><g fill="none" stroke="currentColor" stroke-linecap="round" stroke-linejoin="round" stroke-width="1.5"><circle cx="9.549" cy="19.049" r="1.701"/><circle cx="16.96" cy="19.049" r="1.701"/><path d="m5.606 5.555l2.01 6.364c.309.978.463 1.467.76 1.829c.26.32.599.567.982.72c.435.173.947.173 1.973.173h3.855c1.026 0 1.538 0 1.972-.173c.384-.153.722-.4.983-.72c.296-.362.45-.851.76-1.829l.409-1.296l.24-.766l.331-1.05a2.5 2.5 0 0 0-2.384-3.252zm0 0l-.011-.037a7 7 0 0 0-.14-.42a2.92 2.92 0 0 0-2.512-1.84C2.84 3.25 2.727 3.25 2.5 3.25"/></g></symbol><symbol id="hd-icon-proicons-cent" viewBox="0 0 24 24"><path fill="none" stroke="currentColor" stroke-linecap="round" stroke-linejoin="round" stroke-width="1.5" d="M12.085 3.875v2.417m0 14.083v-2.417m4.382-1.705a5.84 5.84 0 0 1-4.382 1.705m4.382-9.961a5.84 5.84 0 0 0-4.382-1.705m0 11.666A5.836 5.836 0 0 1 6.5 12.125a5.84 5.84 0 0 1 5.585-5.833"/></symbol><symbol id="hd-icon-proicons-center-horizontal" viewBox="0 0 24 24"><g fill="none" stroke="currentColor" stroke-linecap="round" stroke-linejoin="round" stroke-width="1.5"><path d="M20.25 20.25V3.75m-16.5 16.5V3.75"/><rect width="6" height="13" rx="2" transform="matrix(-1 0 0 1 15 5.5)"/></g></symbol><symbol id="hd-icon-proicons-center-vertical" viewBox="0 0 24 24"><g fill="none" stroke="currentColor" stroke-linecap="round" stroke-linejoin="round" stroke-width="1.5"><path d="M3.75 20.25h16.5M3.75 3.75h16.5"/><rect width="6" height="13" rx="2" transform="matrix(0 -1 -1 0 18.5 15)"/></g></symbol><symbol id="hd-icon-proicons-chat" viewBox="0 0 24 24"><path fill="none" stroke="currentColor" stroke-linecap="round" stroke-linejoin="round" stroke-width="1.5" d="M12 21.25a9.25 9.25 0 1 0-8.307-5.177c.108.22.144.468.089.706l-.816 3.536a.6.6 0 0 0 .72.72l3.535-.817a1.06 1.06 0 0 1 .706.09A9.2 9.2 0 0 0 12 21.25M7.97 9.886h8.06m-8.06 4.228h5.748"/></symbol><symbol id="hd-icon-proicons-chat-question" viewBox="0 0 24 24"><g fill="none"><path stroke="currentColor" stroke-linecap="round" stroke-linejoin="round" stroke-width="1.5" d="M12 21.25a9.25 9.25 0 1 0-8.307-5.177c.108.22.144.468.089.706l-.816 3.536a.6.6 0 0 0 .72.72l3.535-.817a1.06 1.06 0 0 1 .706.09A9.2 9.2 0 0 0 12 21.25"/><path stroke="currentColor" stroke-linecap="round" stroke-linejoin="round" stroke-width="1.5" d="M9.301 9.709a2.699 2.699 0 1 1 4.85 1.63a4 4 0 0 1-.32.317c-.092.078-.137.11-.227.171l-.979.675a1.81 1.81 0 0 0-.784 1.493"/><circle cx="11.828" cy="16.74" r="1" fill="currentColor"/></g></symbol><symbol id="hd-icon-proicons-checkbox-checked" viewBox="0 0 24 24"><g fill="none" stroke="currentColor" stroke-linecap="round" stroke-linejoin="round" stroke-width="1.5"><rect width="16.5" height="16.5" x="3.75" y="3.75" rx="4"/><path d="m16.512 9.107l-5.787 5.786l-3.237-3.232"/></g></symbol><symbol id="hd-icon-proicons-checkbox-indeterminate" viewBox="0 0 24 24"><g fill="none" stroke="currentColor" stroke-linecap="round" stroke-linejoin="round" stroke-width="1.5"><rect width="16.5" height="16.5" x="3.75" y="3.75" rx="4"/><path d="M16.19 12H7.81"/></g></symbol><symbol id="hd-icon-proicons-checkbox-indeterminate-2" viewBox="0 0 24 24"><g fill="none"><rect width="18.5" height="18.5" x="2.75" y="2.75" stroke="currentColor" stroke-linecap="round" stroke-linejoin="round" stroke-width="1.5" rx="4"/><path fill="currentColor" d="M7.113 6.25a.86.86 0 0 0-.863.862v9.775c0 .477.386.863.862.863h9.775a.863.863 0 0 0 .863-.863V7.114a.863.863 0 0 0-.863-.863z"/></g></symbol><symbol id="hd-icon-proicons-checkbox-list" viewBox="0 0 24 24"><g fill="none" stroke="currentColor" stroke-linecap="round" stroke-linejoin="round" stroke-width="1.5"><path d="M10.25 4.5h11"/><rect width="3.5" height="3.5" x="2.75" y="2.75" rx="1.2"/><path d="M10.25 12h11"/><rect width="3.5" height="3.5" x="2.75" y="10.25" rx="1.2"/><path d="M10.25 19.5h11"/><rect width="3.5" height="3.5" x="2.75" y="17.75" rx="1.2"/></g></symbol><symbol id="hd-icon-proicons-checkbox-unchecked" viewBox="0 0 24 24"><rect width="16.5" height="16.5" x="3.75" y="3.75" fill="none" stroke="currentColor" stroke-linecap="round" stroke-linejoin="round" stroke-width="1.5" rx="4"/></symbol><symbol id="hd-icon-proicons-checkmark" viewBox="0 0 24 24"><path fill="none" stroke="currentColor" stroke-linecap="round" stroke-linejoin="round" stroke-width="1.5" d="m19.75 7.018l-9.257 9.257a1 1 0 0 1-1.414 0L4.25 11.446"/></symbol><symbol id="hd-icon-proicons-checkmark-circle" viewBox="0 0 24 24"><g fill="none" stroke="currentColor" stroke-linecap="round" stroke-width="1.5"><circle cx="12" cy="12" r="9.25"/><path stroke-linejoin="round" d="m16.375 9.194l-5.611 5.612l-3.139-3.134"/></g></symbol><symbol id="hd-icon-proicons-checkmark-starburst" viewBox="0 0 24 24"><g fill="none" stroke="currentColor" stroke-linecap="round" stroke-linejoin="round" stroke-width="1.5"><path d="M7.072 4.069a2.17 2.17 0 0 1 2.804-1.162l1.315.529c.52.208 1.099.208 1.618 0l1.315-.529a2.17 2.17 0 0 1 2.804 1.162l.556 1.303c.22.515.63.925 1.144 1.144l1.303.556a2.17 2.17 0 0 1 1.162 2.804l-.529 1.315a2.17 2.17 0 0 0 0 1.618l.529 1.315a2.17 2.17 0 0 1-1.162 2.804l-1.303.556a2.17 2.17 0 0 0-1.144 1.144l-.556 1.303a2.17 2.17 0 0 1-2.804 1.162l-1.315-.529a2.17 2.17 0 0 0-1.618 0l-1.315.529a2.17 2.17 0 0 1-2.804-1.162l-.556-1.303a2.17 2.17 0 0 0-1.144-1.144l-1.303-.556a2.17 2.17 0 0 1-1.162-2.804l.529-1.315a2.17 2.17 0 0 0 0-1.618l-.529-1.315A2.17 2.17 0 0 1 4.07 7.072l1.303-.556a2.17 2.17 0 0 0 1.144-1.144z"/><path d="m15.899 9.5l-5 5l-2.797-2.793"/></g></symbol><symbol id="hd-icon-proicons-cheese" viewBox="0 0 24 24"><path fill="none" stroke="currentColor" stroke-linecap="round" stroke-linejoin="round" stroke-width="1.5" d="M21.25 10.392c-.366-1.539-1.713-3.411-2.791-4.489a9.53 9.53 0 0 0-4.816-2.594c-1.21-.25-2.404.314-3.251 1.214l-6.727 7.139a3.4 3.4 0 0 0-.623.936m18.208-2.206v3.475m0-3.475l-5.326.645m-12.882 1.56a3.4 3.4 0 0 0-.292 1.37v4.541a2.242 2.242 0 0 0 2.512 2.225l1.672-.202m-3.892-7.933l7.048-.854m1.7 8.199a2.803 2.803 0 1 0-4.856.588m4.856-.588l-4.856.588m4.856-.588l5.15-.624m0 0l2.337-.284a2.24 2.24 0 0 0 1.973-2.224v-2.944m-4.31 5.452a5 5 0 0 1-.096-.547c-.303-2.473 1.175-4.69 3.303-4.95a3.4 3.4 0 0 1 1.103.045m-5.326-2.83q.014-.165-.007-.33c-.163-1.331-1.976-2.204-3.244-2.049S9.857 10.1 10.02 11.432q.02.16.07.312m5.834-.707c-.098 1.208-1.496 2.301-2.66 2.444s-2.792-.584-3.174-1.737"/></symbol><symbol id="hd-icon-proicons-chevron-down" viewBox="0 0 24 24"><path fill="none" stroke="currentColor" stroke-linecap="round" stroke-linejoin="round" stroke-width="1.5" d="m4.75 9.75l6.19 6.19a1.5 1.5 0 0 0 2.12 0l6.19-6.19"/></symbol><symbol id="hd-icon-proicons-chevron-left" viewBox="0 0 24 24"><path fill="none" stroke="currentColor" stroke-linecap="round" stroke-linejoin="round" stroke-width="1.5" d="m14.25 4.75l-6.19 6.19a1.5 1.5 0 0 0 0 2.12l6.19 6.19"/></symbol><symbol id="hd-icon-proicons-chevron-right" viewBox="0 0 24 24"><path fill="none" stroke="currentColor" stroke-linecap="round" stroke-linejoin="round" stroke-width="1.5" d="m9.75 4.75l6.19 6.19a1.5 1.5 0 0 1 0 2.12l-6.19 6.19"/></symbol><symbol id="hd-icon-proicons-chevron-up" viewBox="0 0 24 24"><path fill="none" stroke="currentColor" stroke-linecap="round" stroke-linejoin="round" stroke-width="1.5" d="m4.75 14.25l6.19-6.19a1.5 1.5 0 0 1 2.12 0l6.19 6.19"/></symbol><symbol id="hd-icon-proicons-chrome-restore" viewBox="0 0 24 24"><g fill="none" stroke="currentColor" stroke-linecap="round" stroke-linejoin="round" stroke-width="1.5"><path d="M2.75 9.75a3.5 3.5 0 0 1 3.5-3.5h8a3.5 3.5 0 0 1 3.5 3.5v8a3.5 3.5 0 0 1-3.5 3.5h-8a3.5 3.5 0 0 1-3.5-3.5z"/><path d="M7.25 2.75h7.241v0a6.76 6.76 0 0 1 6.759 6.759v7.241"/></g></symbol><symbol id="hd-icon-proicons-chrome-restore-var" viewBox="0 0 24 24"><g fill="none" stroke="currentColor" stroke-linecap="round" stroke-linejoin="round" stroke-width="1.5"><path d="M2.75 9.75a4 4 0 0 1 4-4h7.5a4 4 0 0 1 4 4v7.5a4 4 0 0 1-4 4h-7.5a4 4 0 0 1-4-4z"/><path d="M6.75 2.75h7.5a7 7 0 0 1 7 7v7.5"/></g></symbol><symbol id="hd-icon-proicons-circle" viewBox="0 0 24 24"><circle cx="12" cy="12" r="9.25" fill="none" stroke="currentColor" stroke-linecap="round" stroke-linejoin="round" stroke-width="1.5"/></symbol><symbol id="hd-icon-proicons-circle-small" viewBox="0 0 24 24"><circle cx="12" cy="12" r="3.25" fill="none" stroke="currentColor" stroke-linecap="round" stroke-linejoin="round" stroke-width="1.5"/></symbol><symbol id="hd-icon-proicons-clipboard" viewBox="0 0 24 24"><g fill="none" stroke="currentColor" stroke-width="1.5"><rect width="16.5" height="18.5" x="3.75" y="2.75" rx="3.5"/><path d="M8.25 2.75h7.5v2.5a2 2 0 0 1-2 2h-3.5a2 2 0 0 1-2-2z"/></g></symbol><symbol id="hd-icon-proicons-clipboard-paste" viewBox="0 0 24 24"><g fill="none" stroke="currentColor" stroke-width="1.5"><path stroke-linecap="round" d="M9.75 21.25h-3a3.5 3.5 0 0 1-3.5-3.5V6.25a3.5 3.5 0 0 1 3.5-3.5h9.5a3.5 3.5 0 0 1 3.5 3.5v2"/><path d="M7.75 2.75h7.5v2.5a2 2 0 0 1-2 2h-3.5a2 2 0 0 1-2-2z"/><path stroke-linecap="round" stroke-linejoin="round" d="M12.25 13.25a2.5 2.5 0 0 1 2.5-2.5h3.5a2.5 2.5 0 0 1 2.5 2.5v5.5a2.5 2.5 0 0 1-2.5 2.5h-3.5a2.5 2.5 0 0 1-2.5-2.5z"/></g></symbol><symbol id="hd-icon-proicons-clipboard-search" viewBox="0 0 24 24"><g fill="none" stroke="currentColor" stroke-width="1.5"><path stroke-linecap="round" d="M14.25 21.25h3a3.5 3.5 0 0 0 3.5-3.5V6.25a3.5 3.5 0 0 0-3.5-3.5h-9.5a3.5 3.5 0 0 0-3.5 3.5v4"/><path d="M8.75 2.75h7.5v2.5a2 2 0 0 1-2 2h-3.5a2 2 0 0 1-2-2z"/><path stroke-linecap="round" stroke-linejoin="round" d="M9.17 19.67a4.054 4.054 0 1 0-5.733-5.733A4.054 4.054 0 0 0 9.17 19.67m0 0l2.58 2.58"/></g></symbol><symbol id="hd-icon-proicons-clock" viewBox="0 0 24 24"><g fill="none" stroke="currentColor" stroke-linecap="round" stroke-linejoin="round" stroke-width="1.5"><path d="M21.25 12a9.25 9.25 0 1 1-18.5 0a9.25 9.25 0 0 1 18.5 0"/><path d="M11.25 6.75v6h4"/></g></symbol><symbol id="hd-icon-proicons-closed-captions" viewBox="0 0 24 24"><g fill="none" stroke="currentColor" stroke-linecap="round" stroke-linejoin="round" stroke-width="1.5"><rect width="18.5" height="14.5" x="2.75" y="4.75" rx="4"/><path d="M10.5 14.382a2.75 2.75 0 1 1 0-4.764m7.125 4.764a2.75 2.75 0 1 1 0-4.764"/></g></symbol><symbol id="hd-icon-proicons-cloud" viewBox="0 0 24 24"><path fill="none" stroke="currentColor" stroke-linecap="round" stroke-linejoin="round" stroke-width="1.5" d="M18.268 11c0 .3.21.563.497.65a3.502 3.502 0 0 1-1.015 6.85H7.375q-.09 0-.178-.005q-.098.005-.197.005A4.25 4.25 0 0 1 7 10a.445.445 0 0 0 .431-.334A5.5 5.5 0 0 1 18.268 11"/></symbol><symbol id="hd-icon-proicons-cloud-add" viewBox="0 0 24 24"><g fill="none"><path stroke="currentColor" stroke-linecap="round" stroke-linejoin="round" stroke-width="1.5" d="M10.33 18.5H7.375q-.09 0-.178-.005q-.098.005-.197.005A4.25 4.25 0 0 1 7 10a.445.445 0 0 0 .431-.334a5.502 5.502 0 0 1 10.793.634"/><path fill="currentColor" fill-rule="evenodd" d="M17.5 23a5.5 5.5 0 1 0 0-11a5.5 5.5 0 0 0 0 11m0-8.993a.5.5 0 0 1 .5.5V17h2.493a.5.5 0 1 1 0 1H18v2.494a.5.5 0 0 1-1 0V18h-2.493a.5.5 0 1 1 0-1H17v-2.493a.5.5 0 0 1 .5-.5" clip-rule="evenodd"/></g></symbol><symbol id="hd-icon-proicons-cloud-arrow-down" viewBox="0 0 24 24"><g fill="none"><path stroke="currentColor" stroke-linecap="round" stroke-linejoin="round" stroke-width="1.5" d="M10.33 18.5H7.375q-.09 0-.178-.005q-.098.005-.197.005A4.25 4.25 0 0 1 7 10a.445.445 0 0 0 .431-.334a5.502 5.502 0 0 1 10.793.634"/><path fill="currentColor" fill-rule="evenodd" d="M17.5 23a5.5 5.5 0 1 0 0-11a5.5 5.5 0 0 0 0 11m.5-8.455a.5.5 0 0 0-1 0v4.703l-1.564-1.564a.5.5 0 0 0-.707.707l2.417 2.418a.5.5 0 0 0 .708 0l2.417-2.418a.5.5 0 0 0-.707-.707L18 19.248z" clip-rule="evenodd"/></g></symbol><symbol id="hd-icon-proicons-cloud-arrow-up" viewBox="0 0 24 24"><g fill="none"><path stroke="currentColor" stroke-linecap="round" stroke-linejoin="round" stroke-width="1.5" d="M10.33 18.5H7.375q-.09 0-.178-.005q-.098.005-.197.005A4.25 4.25 0 0 1 7 10a.445.445 0 0 0 .431-.334a5.502 5.502 0 0 1 10.793.634"/><path fill="currentColor" fill-rule="evenodd" d="M17.5 12a5.5 5.5 0 1 1 0 11a5.5 5.5 0 0 1 0-11m.5 8.455a.5.5 0 0 1-1 0v-4.703l-1.564 1.564a.5.5 0 0 1-.707-.707l2.417-2.418a.5.5 0 0 1 .708 0l2.417 2.418a.5.5 0 0 1-.707.707L18 15.752z" clip-rule="evenodd"/></g></symbol><symbol id="hd-icon-proicons-cloud-off" viewBox="0 0 24 24"><g fill="none" stroke="currentColor" stroke-linecap="round" stroke-width="1.5"><path d="m2.75 21.25l18.5-18.5"/><path stroke-linejoin="round" d="M16.772 7.229A5.48 5.48 0 0 1 18.268 11c0 .3.21.563.497.65a3.502 3.502 0 0 1-1.015 6.85H7.375q-.09 0-.178-.005a4.3 4.3 0 0 1-1.495-.197m-2.387-1.93A4.25 4.25 0 0 1 7 10a.445.445 0 0 0 .431-.333A5.5 5.5 0 0 1 14 5.638"/></g></symbol><symbol id="hd-icon-proicons-code" viewBox="0 0 24 24"><path fill="none" stroke="currentColor" stroke-linecap="round" stroke-linejoin="round" stroke-width="1.5" d="M8.75 6.5L3.25 12l5.5 5.5m6.5-11l5.5 5.5l-5.5 5.5"/></symbol><symbol id="hd-icon-proicons-code-square" viewBox="0 0 24 24"><g fill="none" stroke="currentColor" stroke-linecap="round" stroke-linejoin="round" stroke-width="1.5"><path d="M10.143 8.857L7 12l3.143 3.143m3.714-6.286L17 12l-3.143 3.143"/><rect width="16.5" height="16.5" x="3.75" y="3.75" rx="4"/></g></symbol><symbol id="hd-icon-proicons-coffee-hot" viewBox="0 0 24 24"><g fill="none" stroke="currentColor" stroke-linecap="round" stroke-linejoin="round" stroke-width="1.5"><path d="M3.5 10.682c0-.875.71-1.585 1.585-1.585H16.52c.876 0 1.585.71 1.585 1.585v3.265a7.303 7.303 0 0 1-7.302 7.303v0A7.303 7.303 0 0 1 3.5 13.947z"/><path d="M18.105 10.556h1.464A2.43 2.43 0 0 1 22 12.986v0a2.43 2.43 0 0 1-2.43 2.43h-1.465M6.421 3.75v2.43m4.382-2.43v2.43m4.381-2.43v2.43"/></g></symbol><symbol id="hd-icon-proicons-color-palette" viewBox="0 0 24 24"><g fill="none"><circle cx="1.25" cy="1.25" r="1.25" fill="currentColor" transform="matrix(-1 0 0 1 16.654 6.034)"/><circle cx="1.25" cy="1.25" r="1.25" fill="currentColor" transform="matrix(-1 0 0 1 12.156 5.221)"/><circle cx="1.25" cy="1.25" r="1.25" fill="currentColor" transform="matrix(-1 0 0 1 8.654 7.94)"/><circle cx="1.25" cy="1.25" r="1.25" fill="currentColor" transform="matrix(-1 0 0 1 7.685 12.156)"/><circle cx="1.25" cy="1.25" r="1.25" fill="currentColor" transform="matrix(-1 0 0 1 9.904 15.948)"/><path stroke="currentColor" stroke-linejoin="round" stroke-width="1.5" d="M21.25 12A9.25 9.25 0 1 0 12 21.25c1.318 0 2.224-1.28 2.329-2.594l.117-1.473a3 3 0 0 1 2.758-2.752l1.651-.129c1.28-.1 2.395-1.019 2.395-2.302Z"/></g></symbol><symbol id="hd-icon-proicons-comment" viewBox="0 0 24 24"><path fill="none" stroke="currentColor" stroke-linecap="round" stroke-linejoin="round" stroke-width="1.5" d="M7.09 2.75a4 4 0 0 0-4 4v6.208a4 4 0 0 0 4 4h.093v3.792a.5.5 0 0 0 .839.368l4.52-4.16h4.369a4 4 0 0 0 4-4V6.75a4 4 0 0 0-4-4z"/></symbol><symbol id="hd-icon-proicons-comment-add" viewBox="0 0 24 24"><g fill="none"><path stroke="currentColor" stroke-linecap="round" stroke-linejoin="round" stroke-width="1.5" d="M20.91 12.958a4 4 0 0 1-4 4h-4.368l-4.52 4.16a.5.5 0 0 1-.839-.368v-3.792H7.09a4 4 0 0 1-4-4V6.749a4 4 0 0 1 4-4h4.161"/><path fill="currentColor" fill-rule="evenodd" d="M17.5 12a5.5 5.5 0 1 0 0-11a5.5 5.5 0 0 0 0 11m0-8.993a.5.5 0 0 1 .5.5V6h2.493a.5.5 0 1 1 0 1H18v2.493a.5.5 0 0 1-1 0V7h-2.493a.5.5 0 1 1 0-1H17V3.507a.5.5 0 0 1 .5-.5" clip-rule="evenodd"/></g></symbol><symbol id="hd-icon-proicons-comment-add-2" viewBox="0 0 24 24"><path fill="none" stroke="currentColor" stroke-linecap="round" stroke-linejoin="round" stroke-width="1.5" d="M7.09 2.75a4 4 0 0 0-4 4v6.208a4 4 0 0 0 4 4h.093v3.792a.5.5 0 0 0 .839.368l4.52-4.16h4.369a4 4 0 0 0 4-4V6.75a4 4 0 0 0-4-4zM12 6.854v6m-3-3h6"/></symbol><symbol id="hd-icon-proicons-comment-exclamation" viewBox="0 0 24 24"><g fill="none"><path stroke="currentColor" stroke-linecap="round" stroke-linejoin="round" stroke-width="1.5" d="M7.09 2.75a4 4 0 0 0-4 4v6.208a4 4 0 0 0 4 4h.093v3.792a.5.5 0 0 0 .839.368l4.52-4.16h4.369a4 4 0 0 0 4-4V6.75a4 4 0 0 0-4-4z"/><path stroke="currentColor" stroke-linecap="round" stroke-width="1.5" d="M12 6.25v4"/><circle cx="12" cy="13.25" r="1" fill="currentColor"/></g></symbol><symbol id="hd-icon-proicons-comment-multiple" viewBox="0 0 24 24"><g fill="none" stroke="currentColor" stroke-linecap="round" stroke-linejoin="round" stroke-width="1.5"><path d="M5.985 5.76a3 3 0 0 0-3 3v5.982a3 3 0 0 0 3 3h.446v3.017a.5.5 0 0 0 .839.367l3.67-3.385h4.045a3 3 0 0 0 3-3V8.76a3 3 0 0 0-3-3z"/><path d="M6.985 2.76h8a6 6 0 0 1 6 6v4.982"/></g></symbol><symbol id="hd-icon-proicons-compare-size" viewBox="0 0 24 24"><path fill="none" stroke="currentColor" stroke-linecap="round" stroke-linejoin="round" stroke-width="1.5" d="M18.75 8.75a2.5 2.5 0 0 1 2.5 2.5v6.5a2.5 2.5 0 0 1-2.5 2.5H5.25a2.5 2.5 0 0 1-2.5-2.5v-6.5a2.5 2.5 0 0 1 2.5-2.5zm-2.5 7.5v2.5m0-8v2.5m-8-9.5h2.5m3 0h.5a2 2 0 0 1 2 2v.5m-11-2.5h-.5a2 2 0 0 0-2 2v.5"/></symbol><symbol id="hd-icon-proicons-compass" viewBox="0 0 24 24"><g fill="none" stroke="currentColor" stroke-linecap="round" stroke-linejoin="round" stroke-width="1.5"><circle cx="12" cy="12" r="9.25"/><path d="M10.195 10.195q.221-.22.475-.404c.382-.275.835-.456 1.74-.818l2.357-.943c.632-.252.947-.379 1.148-.313c.174.058.31.194.368.368c.066.2-.06.517-.313 1.148l-.943 2.357c-.362.905-.543 1.358-.818 1.74q-.183.255-.404.475m-3.61-3.61a4 4 0 0 0-.404.475c-.275.382-.456.835-.818 1.74l-.943 2.357c-.252.632-.379.947-.313 1.148c.058.174.194.31.368.368c.2.066.516-.06 1.148-.313l2.357-.943c.905-.362 1.358-.543 1.74-.818q.255-.183.475-.404m-3.61-3.61l3.61 3.61"/></g></symbol><symbol id="hd-icon-proicons-component" viewBox="0 0 24 24"><g fill="none" stroke="currentColor" stroke-linecap="round" stroke-linejoin="round" stroke-width="1.5"><rect width="5.671" height="5.671" x="7.99" y="17.86" rx="1.5" transform="rotate(-45 7.99 17.86)"/><rect width="5.671" height="5.671" x="13.851" y="12" rx="1.5" transform="rotate(-45 13.85 12)"/><rect width="5.671" height="5.671" x="2.13" y="12" rx="1.5" transform="rotate(-45 2.13 12)"/><rect width="5.671" height="5.671" x="7.99" y="6.14" rx="1.5" transform="rotate(-45 7.99 6.14)"/></g></symbol><symbol id="hd-icon-proicons-compose" viewBox="0 0 24 24"><g fill="none" stroke="currentColor" stroke-linecap="round" stroke-linejoin="round" stroke-width="1.5"><path d="M10.371 4.25H8.25a5 5 0 0 0-5 5v6.5a5 5 0 0 0 5 5h6.5a5 5 0 0 0 5-5v-2.121"/><path d="M12.299 14.75a1.86 1.86 0 0 0 1.316-.545l6.59-6.59a1.86 1.86 0 0 0 0-2.633l-1.187-1.187a1.86 1.86 0 0 0-2.633 0l-6.59 6.59a1.86 1.86 0 0 0-.545 1.316v3.049z"/></g></symbol><symbol id="hd-icon-proicons-computer" viewBox="0 0 24 24"><g fill="none" stroke="currentColor" stroke-linecap="round" stroke-linejoin="round" stroke-width="1.5"><rect width="18.5" height="15.031" x="2.75" y="2.75" rx="3.5"/><path d="M9.11 17.781v3.469m5.78-3.469v3.469m-8.382 0h10.984"/></g></symbol><symbol id="hd-icon-proicons-computer-mac" viewBox="0 0 24 24"><path fill="none" stroke="currentColor" stroke-linecap="round" stroke-linejoin="round" stroke-width="1.5" d="M2.75 6.25a3.5 3.5 0 0 1 3.5-3.5h11.5a3.5 3.5 0 0 1 3.5 3.5v8.031a3.5 3.5 0 0 1-3.5 3.5H6.25a3.5 3.5 0 0 1-3.5-3.5zm0 7.75h18.5M9.11 17.781v1.469a2 2 0 0 1-2 2h-.6m8.38-3.469v1.469a2 2 0 0 0 2 2h.6m-10.982 0h10.984"/></symbol><symbol id="hd-icon-proicons-cone" viewBox="0 0 24 24"><path fill="none" stroke="currentColor" stroke-linecap="round" stroke-linejoin="round" stroke-width="1.5" d="M4.035 17.883c.716-.8 2.908-2.633 7.965-2.633s7.25 1.833 7.965 2.633m-15.93 0c-.043.43.084.852.424 1.15c1.01.89 3.239 2.217 7.541 2.217s6.531-1.328 7.541-2.216c.34-.3.467-.722.424-1.15m-15.93 0c.02-.201.077-.404.167-.595l6.44-13.678c.542-1.148 2.175-1.148 2.715 0l6.44 13.678c.09.191.148.394.168.594"/></symbol><symbol id="hd-icon-proicons-container" viewBox="0 0 24 24"><path fill="none" stroke="currentColor" stroke-linecap="round" stroke-linejoin="round" stroke-width="1.5" d="M9.93 13.22L3.168 9.626m6.762 3.596v7.357m0-7.357l5.443-3.079M3.168 9.625c-.27.455-.418.98-.418 1.528v4.227a3 3 0 0 0 1.592 2.649l4.135 2.198a3 3 0 0 0 1.453.351M3.168 9.625c.263-.444.64-.82 1.105-1.083l8.364-4.732a3 3 0 0 1 2.886-.037l4.135 2.199c.486.258.881.639 1.157 1.092m0 0c.28.461.435.997.435 1.556v4.227a3 3 0 0 1-1.523 2.612l-4.354 2.463m5.442-10.858l-5.442 3.078M9.93 20.578a3 3 0 0 0 1.433-.388l4.01-2.268m0-7.78v7.78"/></symbol><symbol id="hd-icon-proicons-contract-down" viewBox="0 0 24 24"><path fill="none" stroke="currentColor" stroke-linecap="round" stroke-linejoin="round" stroke-width="1.5" d="M12 20.25h4.25a4 4 0 0 0 4-4v-2.5M12 20.25H7.75a4 4 0 0 1-4-4V12M12 20.25V15a3 3 0 0 0-3-3H3.75m0 0V7.75a4 4 0 0 1 4-4h2.5m10 6.5h-5.5a1 1 0 0 1-.707-.293M13.75 3.75v5.5c0 .276.112.526.293.707M20.25 3.75l-5.5 5.5l-.707.707"/></symbol><symbol id="hd-icon-proicons-cookies" viewBox="0 0 24 24"><g fill="none"><path stroke="currentColor" stroke-linecap="round" stroke-linejoin="round" stroke-width="1.5" d="M17.076 10.535a2.75 2.75 0 0 0 3.89 0v0c.127-.128.362-.076.393.102a9.25 9.25 0 0 1-15.65 8.154a9.25 9.25 0 0 1 8.154-15.65c.178.031.23.266.102.394v0a2.75 2.75 0 0 0 2.333 4.667a2.75 2.75 0 0 0 .778 2.333"/><circle cx="8.5" cy="15.5" r="1.25" fill="currentColor"/><circle cx="7.5" cy="9.5" r="1.25" fill="currentColor"/><circle cx="12.5" cy="12.5" r="1.25" fill="currentColor"/><circle cx="15.5" cy="16.5" r="1.25" fill="currentColor"/></g></symbol><symbol id="hd-icon-proicons-copy" viewBox="0 0 24 24"><g fill="none" stroke="currentColor" stroke-linecap="round" stroke-linejoin="round" stroke-width="1.5"><path d="M16.75 5.75a3 3 0 0 0-3-3h-6.5a3 3 0 0 0-3 3v9.5a3 3 0 0 0 3 3h6.5a3 3 0 0 0 3-3z"/><path d="M19.75 6.75v8.5a6 6 0 0 1-6 6h-5.5"/></g></symbol><symbol id="hd-icon-proicons-copy-var" viewBox="0 0 24 24"><g fill="none" stroke="currentColor" stroke-linecap="round" stroke-linejoin="round" stroke-width="1.5"><path d="M16.869 5.75a3 3 0 0 0-3-3H7.211a3 3 0 0 0-3 3v9.579a3 3 0 0 0 3 3h6.658a3 3 0 0 0 3-3z"/><path d="M19.79 6.67v8.579a6 6 0 0 1-6 6H8.132"/></g></symbol><symbol id="hd-icon-proicons-copyleft" viewBox="0 0 24 24"><g fill="none" stroke="currentColor" stroke-linecap="round" stroke-linejoin="round" stroke-width="1.5"><circle cx="12" cy="12" r="9.25"/><path d="M9.172 14.828a4 4 0 1 0 0-5.656"/></g></symbol><symbol id="hd-icon-proicons-copyright" viewBox="0 0 24 24"><g fill="none" stroke="currentColor" stroke-linecap="round" stroke-linejoin="round" stroke-width="1.5"><circle cx="12" cy="12" r="9.25"/><path d="M14.828 14.828a4 4 0 1 1 0-5.656"/></g></symbol><symbol id="hd-icon-proicons-corner-radius" viewBox="0 0 24 24"><path fill="none" stroke="currentColor" stroke-linecap="round" stroke-linejoin="round" stroke-width="1.5" d="M19.25 4.75h-7.5a7 7 0 0 0-7 7v7.5"/></symbol><symbol id="hd-icon-proicons-credit-card" viewBox="0 0 24 24"><g fill="none" stroke="currentColor" stroke-width="1.5"><rect width="18.5" height="14" x="2.75" y="5" stroke-linecap="round" stroke-linejoin="round" rx="3"/><path d="M2.75 9.5h18.5"/><path stroke-linecap="round" d="M14.75 14.25h3"/></g></symbol><symbol id="hd-icon-proicons-crop" viewBox="0 0 24 24"><path fill="none" stroke="currentColor" stroke-linecap="round" stroke-linejoin="round" stroke-width="1.5" d="M21.25 17.653H9.347a3 3 0 0 1-3-3V2.75M2.75 6.347h3.597m11.306 11.306v3.597M8.917 6.347h5.736a3 3 0 0 1 3 3v5.736"/></symbol><symbol id="hd-icon-proicons-css" viewBox="0 0 24 24"><g fill="none" stroke="currentColor" stroke-linecap="round" stroke-linejoin="round" stroke-width="1.5"><path d="m20.754 4.792l-2.84 14.31a1.5 1.5 0 0 1-1.099 1.161l-4.069 1.045a3 3 0 0 1-1.492 0l-4.07-1.045a1.5 1.5 0 0 1-1.097-1.16L3.246 4.792A1.5 1.5 0 0 1 4.717 3h14.566a1.5 1.5 0 0 1 1.471 1.792"/><path d="m15.998 11.891l-.891 4.458a1 1 0 0 1-.64.744l-2.126.77a1 1 0 0 1-.681 0l-2.146-.777a.99.99 0 0 1-.622-.74l-.222-1.114m7.328-3.341l.859-4.292a.6.6 0 0 0-.589-.718H7m8.998 5.01H8.002"/></g></symbol><symbol id="hd-icon-proicons-css-2" viewBox="0 0 24 24"><g fill="none" stroke="currentColor" stroke-linecap="round" stroke-linejoin="round" stroke-width="1.5"><path d="M3.75 5.25a1.5 1.5 0 0 1 1.5-1.5h11.5a3.5 3.5 0 0 1 3.5 3.5v9.5a3.5 3.5 0 0 1-3.5 3.5h-9.5a3.5 3.5 0 0 1-3.5-3.5z"/><path d="M9.25 17.25h-1a1 1 0 0 1-1-1v-3a1 1 0 0 1 1-1h1m4 0h-1a1 1 0 0 0-1 1v.5a1 1 0 0 0 1 1v0a1 1 0 0 1 1 1v.5a1 1 0 0 1-1 1h-1m6-5h-1a1 1 0 0 0-1 1v.5a1 1 0 0 0 1 1v0a1 1 0 0 1 1 1v.5a1 1 0 0 1-1 1h-1"/></g></symbol><symbol id="hd-icon-proicons-cube" viewBox="0 0 24 24"><path fill="none" stroke="currentColor" stroke-linejoin="round" stroke-width="1.5" d="m12 12l8.073-4.625M12 12L3.926 7.375M12 12v9.25m8.073-13.875a3.17 3.17 0 0 0-1.165-1.156l-5.316-3.046a3.2 3.2 0 0 0-3.184 0L5.092 6.22c-.493.282-.89.684-1.166 1.156m16.147 0c.275.472.427 1.015.427 1.58v6.09a3.15 3.15 0 0 1-1.592 2.736l-5.316 3.046A3.2 3.2 0 0 1 12 21.25M3.926 7.375a3.14 3.14 0 0 0-.426 1.58v6.09c0 1.13.607 2.172 1.592 2.736l5.316 3.046A3.2 3.2 0 0 0 12 21.25"/></symbol><symbol id="hd-icon-proicons-cursor" viewBox="0 0 24 24"><path fill="none" stroke="currentColor" stroke-linejoin="round" stroke-width="1.5" d="M8.084 20.276c-1.06 1.38-3.264.66-3.306-1.079L4.443 5.392C4.407 3.932 6 3.012 7.247 3.773l11.788 7.192c1.485.906 1.006 3.176-.719 3.403l-5.581.738a1.84 1.84 0 0 0-1.221.705z"/></symbol><symbol id="hd-icon-proicons-cursor-click" viewBox="0 0 24 24"><g fill="none" stroke="currentColor" stroke-linejoin="round" stroke-width="1.5"><path d="M12.394 20.734c-.757.985-2.332.471-2.362-.771l-.239-9.86a1.317 1.317 0 0 1 2.003-1.157l8.42 5.137c1.06.647.718 2.268-.513 2.431l-3.987.527c-.346.046-.66.227-.872.503z"/><path stroke-linecap="round" d="M3.797 8.75h2.5m3.75-3.502v-2.5M6.815 5.765L5.047 3.998m8.232 1.767l1.768-1.767"/></g></symbol><symbol id="hd-icon-proicons-cursor-drag" viewBox="0 0 24 24"><path fill="none" stroke="currentColor" stroke-linecap="round" stroke-linejoin="round" stroke-width="1.5" d="M7.315 11.055v4.176m3.246-6.593V6.555c0-.892-.727-1.615-1.623-1.615s-1.623.723-1.623 1.615v3.747m3.246-.566V4.365a1.62 1.62 0 0 1 1.623-1.615c.897 0 1.623.723 1.623 1.615V9.73m0 .005v-3.18a1.624 1.624 0 0 1 3.246 0v2.19m0 0v.99m0-.99a1.62 1.62 0 0 1 1.624-1.615A1.62 1.62 0 0 1 20.3 8.745v5.935a6.57 6.57 0 0 1-6.57 6.57h-2.95a7.08 7.08 0 0 1-7.069-7.492l.015-.256a3.06 3.06 0 0 1 2.13-2.738l1.458-.462m0 0V11.4"/></symbol><symbol id="hd-icon-proicons-cut" viewBox="0 0 24 24"><path fill="none" stroke="currentColor" stroke-linecap="round" stroke-linejoin="round" stroke-width="1.5" d="M8.651 14.43a3.75 3.75 0 1 0-4.302 6.143a3.75 3.75 0 0 0 4.302-6.144m0 0l3.35-4.446m5.45-7.235l-3.82 5.069m1.718 6.611a3.75 3.75 0 1 1 4.302 6.144a3.75 3.75 0 0 1-4.302-6.144m0 0L12 9.984M6.55 2.749L12 9.984"/></symbol></svg>