<svg xmlns="http://www.w3.org/2000/svg" xmlns:xlink="http://www.w3.org/1999/xlink"><symbol id="hd-icon-pixel-ad" viewBox="0 0 24 24"><path fill="currentColor" d="M22 5V4H2v1H1v14h1v1h20v-1h1V5zm-1 13H3V6h18z"/><path fill="currentColor" d="M18 7v3h-4v1h-1v5h1v1h5v-1h1V7zm-3 5h3v3h-3zm-5-2V9H9V8H8V7H7v1H6v1H5v1H4v7h2v-2h3v2h2v-7zm-1 3H6v-2h1v-1h1v1h1z"/></symbol><symbol id="hd-icon-pixel-ad-solid" viewBox="0 0 24 24"><path fill="currentColor" d="M22 5V4H2v1H1v14h1v1h20v-1h1V5zM9 8v1h1v1h1v7H9v-2H6v2H4v-7h1V9h1V8h1V7h1v1zm4 8v-5h1v-1h4V7h2v9h-1v1h-5v-1z"/><path fill="currentColor" d="M9 11v2H6v-2h1v-1h1v1zm6 1h3v3h-3z"/></symbol><symbol id="hd-icon-pixel-align-center" viewBox="0 0 24 24"><path fill="currentColor" d="M1 21h22v1H1zm4-6h14v1H5zM5 2h14v1H5zM1 8h22v1H1z"/></symbol><symbol id="hd-icon-pixel-align-center-solid" viewBox="0 0 24 24"><path fill="currentColor" d="M6 3H5V2h1V1h12v1h1v1h-1v1H6zm12 11v1h1v1h-1v1H6v-1H5v-1h1v-1zm4 7h1v1h-1v1H2v-1H1v-1h1v-1h20zm1-13v1h-1v1H2V9H1V8h1V7h20v1z"/></symbol><symbol id="hd-icon-pixel-align-justify" viewBox="0 0 24 24"><path fill="currentColor" d="M1 8h22v1H1zm0 13h22v1H1zm0-6h22v1H1zM1 2h22v1H1z"/></symbol><symbol id="hd-icon-pixel-align-justify-solid" viewBox="0 0 24 24"><path fill="currentColor" d="M22 21h1v1h-1v1H2v-1H1v-1h1v-1h20zm1-6v1h-1v1H2v-1H1v-1h1v-1h20v1zm-1-7h1v1h-1v1H2V9H1V8h1V7h20zm1-6v1h-1v1H2V3H1V2h1V1h20v1z"/></symbol><symbol id="hd-icon-pixel-align-left" viewBox="0 0 24 24"><path fill="currentColor" d="M1 2h15v1H1zm0 13h15v1H1zm0-7h22v1H1zm0 13h22v1H1z"/></symbol><symbol id="hd-icon-pixel-align-left-solid" viewBox="0 0 24 24"><path fill="currentColor" d="M22 21h1v1h-1v1H2v-1H1v-1h1v-1h20zm1-13v1h-1v1H2V9H1V8h1V7h20v1zM2 3H1V2h1V1h13v1h1v1h-1v1H2zm0 13H1v-1h1v-1h13v1h1v1h-1v1H2z"/></symbol><symbol id="hd-icon-pixel-align-right" viewBox="0 0 24 24"><path fill="currentColor" d="M8 2h15v1H8zM1 21h22v1H1zM1 8h22v1H1zm7 7h15v1H8z"/></symbol><symbol id="hd-icon-pixel-align-right-solid" viewBox="0 0 24 24"><path fill="currentColor" d="M22 15h1v1h-1v1H9v-1H8v-1h1v-1h13zm1-13v1h-1v1H9V3H8V2h1V1h13v1zm-1 6h1v1h-1v1H2V9H1V8h1V7h20zm0 13h1v1h-1v1H2v-1H1v-1h1v-1h20z"/></symbol><symbol id="hd-icon-pixel-analytics" viewBox="0 0 24 24"><path fill="currentColor" d="M2 15h2v7H2zm6-5h2v12H8zm6 4h2v8h-2zm6-4h2v12h-2zm-2-5h1v1h-1zm-1 1h1v1h-1zm-3 1h2v1h-2zm0 3h2v1h-2zm-1-2h1v2h-1zm3 0h1v2h-1zm-4-2h1v1h-1zm-1-1h1v1h-1zM8 4h2v1H8zm0-3h2v1H8zm2 1h1v2h-1zM7 2h1v2H7zm13 2h2v1h-2zm-1-2h1v2h-1zm1-1h2v1h-2zm2 1h1v2h-1zM6 6h1v1H6zM5 7h1v1H5zM4 9h1v2H4zM1 9h1v2H1zm1-1h2v1H2zm0 3h2v1H2z"/></symbol><symbol id="hd-icon-pixel-analytics-solid" viewBox="0 0 24 24"><path fill="currentColor" d="M10 11h1v10h-1v1H8v-1H7V11h1v-1h2zm1-6h1v1h-1zm1 1h1v1h-1zm4 2h1v2h-1v1h-2v-1h-1V8h1V7h2zm0 7h1v6h-1v1h-2v-1h-1v-6h1v-1h2zm1-9h1v1h-1zm1-1h1v1h-1zm5-3v2h-1v1h-2V4h-1V2h1V1h2v1zm-1 9h1v10h-1v1h-2v-1h-1V11h1v-1h2zM5 7h1v1H5zM4 9h1v2H4v1H2v-1H1V9h1V8h2zm0 7h1v5H4v1H2v-1H1v-5h1v-1h2zM6 6h1v1H6zm2-2H7V2h1V1h2v1h1v2h-1v1H8z"/></symbol><symbol id="hd-icon-pixel-android" viewBox="0 0 24 24"><path fill="currentColor" d="M5 10h1v2H5zm13 0h1v2h-1zm4 10v-2h-1v-1h-1v-1h-1v-1h-1v-3h-1v2h-2v-1H9v1H7v-2H6v3H5v1H4v1H3v1H2v2H1v3h22v-3zM8 18v2H6v-2zm8 0h2v2h-2z"/><path fill="none" d="M0 0h24v24H0z"/></symbol><symbol id="hd-icon-pixel-angellist" viewBox="0 0 24 24"><path fill="currentColor" d="M18 12h1v7h-1zm0-10h1v3h-1zm-1 17h1v1h-1zm0-8h1v1h-1zm0-6h1v3h-1zm-1 15h1v1h-1zm0-12h1v2h-1zm0-7h2v1h-2zm-2 9h3v1h-3zm1-8h1v2h-1zm-1 19h2v1h-2zm0-17h1v3h-1zm-1 15h1v1h-1zm1-12v3h-3V9h1V7zm2 6v1h-1v1h-1v1h-1v3h-1v-1h-1v1h-1v-2h2v-3h-1v-1zm-5-9h1v3h-1zm-1 18h4v1h-4zm0-10h1v1h-1zm0-10h1v2h-1zM9 16h1v1H9zm2-6v1h-1v1H9v-1H7v-1h2V8h1v2zM8 21h2v1H8zm0-2h2v1H8zm0-4h1v1H8zM8 5h1v3H8zm0-4h2v1H8zM7 20h1v1H7zm0-2h1v1H7zM7 2h1v3H7zM6 19h1v1H6zm0-2h1v1H6zm0-6h1v3H6zm-1 7h1v1H5zm0-4h3v1H5zm-1 1h1v3H4z"/></symbol><symbol id="hd-icon-pixel-angle-down" viewBox="0 0 24 24"><path fill="currentColor" d="M20 8v1h-1v1h-1v1h-1v1h-1v1h-1v1h-1v1h-1v1h-2v-1h-1v-1H9v-1H8v-1H7v-1H6v-1H5V9H4V8h1V7h1v1h1v1h1v1h1v1h1v1h1v1h2v-1h1v-1h1v-1h1V9h1V8h1V7h1v1z"/></symbol><symbol id="hd-icon-pixel-angle-down-solid" viewBox="0 0 24 24"><path fill="currentColor" d="M5 7h2v1h1v1h1v1h1v1h1v1h2v-1h1v-1h1V9h1V8h1V7h2v1h1v2h-1v1h-1v1h-1v1h-1v1h-1v1h-1v1h-1v1h-2v-1h-1v-1H9v-1H8v-1H7v-1H6v-1H5v-1H4V8h1z"/></symbol><symbol id="hd-icon-pixel-angle-left" viewBox="0 0 24 24"><path fill="currentColor" d="M11 13h1v1h1v1h1v1h1v1h1v1h1v1h-1v1h-1v-1h-1v-1h-1v-1h-1v-1h-1v-1h-1v-1H9v-1H8v-2h1v-1h1V9h1V8h1V7h1V6h1V5h1V4h1v1h1v1h-1v1h-1v1h-1v1h-1v1h-1v1h-1z"/></symbol><symbol id="hd-icon-pixel-angle-left-solid" viewBox="0 0 24 24"><path fill="currentColor" d="M17 5v2h-1v1h-1v1h-1v1h-1v1h-1v2h1v1h1v1h1v1h1v1h1v2h-1v1h-2v-1h-1v-1h-1v-1h-1v-1h-1v-1H9v-1H8v-1H7v-2h1v-1h1V9h1V8h1V7h1V6h1V5h1V4h2v1z"/></symbol><symbol id="hd-icon-pixel-angle-right" viewBox="0 0 24 24"><path fill="currentColor" d="M16 11v2h-1v1h-1v1h-1v1h-1v1h-1v1h-1v1H9v1H8v-1H7v-1h1v-1h1v-1h1v-1h1v-1h1v-1h1v-2h-1v-1h-1V9h-1V8H9V7H8V6H7V5h1V4h1v1h1v1h1v1h1v1h1v1h1v1h1v1z"/></symbol><symbol id="hd-icon-pixel-angle-right-solid" viewBox="0 0 24 24"><path fill="currentColor" d="M7 19v-2h1v-1h1v-1h1v-1h1v-1h1v-2h-1v-1h-1V9H9V8H8V7H7V5h1V4h2v1h1v1h1v1h1v1h1v1h1v1h1v1h1v2h-1v1h-1v1h-1v1h-1v1h-1v1h-1v1h-1v1H8v-1z"/></symbol><symbol id="hd-icon-pixel-angle-up" viewBox="0 0 24 24"><path fill="currentColor" d="M20 15v1h-1v1h-1v-1h-1v-1h-1v-1h-1v-1h-1v-1h-1v-1h-2v1h-1v1H9v1H8v1H7v1H6v1H5v-1H4v-1h1v-1h1v-1h1v-1h1v-1h1v-1h1V9h1V8h2v1h1v1h1v1h1v1h1v1h1v1h1v1z"/></symbol><symbol id="hd-icon-pixel-angle-up-solid" viewBox="0 0 24 24"><path fill="currentColor" d="M19 17h-2v-1h-1v-1h-1v-1h-1v-1h-1v-1h-2v1h-1v1H9v1H8v1H7v1H5v-1H4v-2h1v-1h1v-1h1v-1h1v-1h1V9h1V8h1V7h2v1h1v1h1v1h1v1h1v1h1v1h1v1h1v2h-1z"/></symbol><symbol id="hd-icon-pixel-apple" viewBox="0 0 24 24"><path fill="currentColor" d="M15 1v3h-1v1h-1v1h-2V3h1V2h1V1zm6 16v1h-1v2h-1v1h-1v1h-1v1h-2v-1h-5v1H8v-1H7v-1H6v-1H5v-1H4v-2H3v-7h1V8h1V7h2V6h3v1h4V6h3v1h2v1h1v1h-1v1h-1v5h1v1h1v1z"/></symbol><symbol id="hd-icon-pixel-arrow-alt-circle-down" viewBox="0 0 24 24"><path fill="currentColor" d="M15 22h2v-1h2v-1h1v-1h1v-2h1v-2h1V9h-1V7h-1V5h-1V4h-1V3h-2V2h-2V1H9v1H7v1H5v1H4v1H3v2H2v2H1v6h1v2h1v2h1v1h1v1h2v1h2v1h6zm-6-1v-1H7v-1H5v-2H4v-2H3V9h1V7h1V5h2V4h2V3h6v1h2v1h2v2h1v2h1v6h-1v2h-1v2h-2v1h-2v1z"/><path fill="currentColor" d="M13 17h-2v-1h-1v-1H9v-1H8v-1H7v-1h4V6h2v6h4v1h-1v1h-1v1h-1v1h-1z"/><path fill="none" d="M0 0h24v24H0z"/></symbol><symbol id="hd-icon-pixel-arrow-alt-circle-down-solid" viewBox="0 0 24 24"><path fill="currentColor" d="M15 22h2v-1h2v-1h1v-1h1v-2h1v-2h1V9h-1V7h-1V5h-1V4h-1V3h-2V2h-2V1H9v1H7v1H5v1H4v1H3v2H2v2H1v6h1v2h1v2h1v1h1v1h2v1h2v1h6zm-5-6v-1H9v-1H8v-1H7v-1h4V6h2v6h4v1h-1v1h-1v1h-1v1h-1v1h-2v-1z"/></symbol><symbol id="hd-icon-pixel-arrow-alt-circle-left" viewBox="0 0 24 24"><path fill="currentColor" d="M2 15v2h1v2h1v1h1v1h2v1h2v1h6v-1h2v-1h2v-1h1v-1h1v-2h1v-2h1V9h-1V7h-1V5h-1V4h-1V3h-2V2h-2V1H9v1H7v1H5v1H4v1H3v2H2v2H1v6zm1-6h1V7h1V5h2V4h2V3h6v1h2v1h2v2h1v2h1v6h-1v2h-1v2h-2v1h-2v1H9v-1H7v-1H5v-2H4v-2H3z"/><path fill="currentColor" d="M7 13v-2h1v-1h1V9h1V8h1V7h1v4h6v2h-6v4h-1v-1h-1v-1H9v-1H8v-1z"/></symbol><symbol id="hd-icon-pixel-arrow-alt-circle-left-solid" viewBox="0 0 24 24"><path fill="currentColor" d="M22 9V7h-1V5h-1V4h-1V3h-2V2h-2V1H9v1H7v1H5v1H4v1H3v2H2v2H1v6h1v2h1v2h1v1h1v1h2v1h2v1h6v-1h2v-1h2v-1h1v-1h1v-2h1v-2h1V9zm-10 4v4h-1v-1h-1v-1H9v-1H8v-1H7v-2h1v-1h1V9h1V8h1V7h1v4h6v2z"/></symbol><symbol id="hd-icon-pixel-arrow-alt-circle-right" viewBox="0 0 24 24"><path fill="currentColor" d="M22 9V7h-1V5h-1V4h-1V3h-2V2h-2V1H9v1H7v1H5v1H4v1H3v2H2v2H1v6h1v2h1v2h1v1h1v1h2v1h2v1h6v-1h2v-1h2v-1h1v-1h1v-2h1v-2h1V9zm-1 6h-1v2h-1v2h-2v1h-2v1H9v-1H7v-1H5v-2H4v-2H3V9h1V7h1V5h2V4h2V3h6v1h2v1h2v2h1v2h1z"/><path fill="currentColor" d="M17 11v2h-1v1h-1v1h-1v1h-1v1h-1v-4H6v-2h6V7h1v1h1v1h1v1h1v1z"/></symbol><symbol id="hd-icon-pixel-arrow-alt-circle-right-solid" viewBox="0 0 24 24"><path fill="currentColor" d="M22 9V7h-1V5h-1V4h-1V3h-2V2h-2V1H9v1H7v1H5v1H4v1H3v2H2v2H1v6h1v2h1v2h1v1h1v1h2v1h2v1h6v-1h2v-1h2v-1h1v-1h1v-2h1v-2h1V9zm-6 5h-1v1h-1v1h-1v1h-1v-4H6v-2h6V7h1v1h1v1h1v1h1v1h1v2h-1z"/></symbol><symbol id="hd-icon-pixel-arrow-alt-circle-up" viewBox="0 0 24 24"><path fill="currentColor" d="M9 2H7v1H5v1H4v1H3v2H2v2H1v6h1v2h1v2h1v1h1v1h2v1h2v1h6v-1h2v-1h2v-1h1v-1h1v-2h1v-2h1V9h-1V7h-1V5h-1V4h-1V3h-2V2h-2V1H9zm6 1v1h2v1h2v2h1v2h1v6h-1v2h-1v2h-2v1h-2v1H9v-1H7v-1H5v-2H4v-2H3V9h1V7h1V5h2V4h2V3z"/><path fill="currentColor" d="M11 7h2v1h1v1h1v1h1v1h1v1h-4v6h-2v-6H7v-1h1v-1h1V9h1V8h1z"/><path fill="none" d="M0 0h24v24H0z"/></symbol><symbol id="hd-icon-pixel-arrow-alt-circle-up-solid" viewBox="0 0 24 24"><path fill="currentColor" d="M9 2H7v1H5v1H4v1H3v2H2v2H1v6h1v2h1v2h1v1h1v1h2v1h2v1h6v-1h2v-1h2v-1h1v-1h1v-2h1v-2h1V9h-1V7h-1V5h-1V4h-1V3h-2V2h-2V1H9zm5 6v1h1v1h1v1h1v1h-4v6h-2v-6H7v-1h1v-1h1V9h1V8h1V7h2v1z"/></symbol><symbol id="hd-icon-pixel-arrow-circle-down" viewBox="0 0 24 24"><path fill="currentColor" d="M22 8V6h-1V5h-1V4h-1V3h-1V2h-2V1H8v1H6v1H5v1H4v1H3v1H2v2H1v8h1v2h1v1h1v1h1v1h1v1h2v1h8v-1h2v-1h1v-1h1v-1h1v-1h1v-2h1V8zm-1 8h-1v2h-1v1h-1v1h-2v1H8v-1H6v-1H5v-1H4v-2H3V8h1V6h1V5h1V4h2V3h8v1h2v1h1v1h1v2h1z"/><path fill="currentColor" d="M19 12v1h-1v1h-1v1h-1v1h-1v1h-1v1h-1v1h-2v-1h-1v-1H9v-1H8v-1H7v-1H6v-1H5v-1h1v-1h1v1h1v1h1v1h1v1h1V5h2v10h1v-1h1v-1h1v-1h1v-1h1v1z"/></symbol><symbol id="hd-icon-pixel-arrow-circle-down-solid" viewBox="0 0 24 24"><path fill="currentColor" d="M2 16v2h1v1h1v1h1v1h1v1h2v1h8v-1h2v-1h1v-1h1v-1h1v-1h1v-2h1V8h-1V6h-1V5h-1V4h-1V3h-1V2h-2V1H8v1H6v1H5v1H4v1H3v1H2v2H1v8zm9-1V5h2v10h1v-1h1v-1h1v-1h1v-1h1v1h1v1h-1v1h-1v1h-1v1h-1v1h-1v1h-1v1h-2v-1h-1v-1H9v-1H8v-1H7v-1H6v-1H5v-1h1v-1h1v1h1v1h1v1h1v1z"/></symbol><symbol id="hd-icon-pixel-arrow-circle-left" viewBox="0 0 24 24"><path fill="currentColor" d="M8 2H6v1H5v1H4v1H3v1H2v2H1v8h1v2h1v1h1v1h1v1h1v1h2v1h8v-1h2v-1h1v-1h1v-1h1v-1h1v-2h1V8h-1V6h-1V5h-1V4h-1V3h-1V2h-2V1H8zm8 2h2v1h1v1h1v2h1v8h-1v2h-1v1h-1v1h-2v1H8v-1H6v-1H5v-1H4v-2H3V8h1V6h1V5h1V4h2V3h8z"/><path fill="currentColor" d="M11 5h1v1h1v1h-1v1h-1v1h-1v1H9v1h10v2H9v1h1v1h1v1h1v1h1v1h-1v1h-1v-1h-1v-1H9v-1H8v-1H7v-1H6v-1H5v-2h1v-1h1V9h1V8h1V7h1V6h1z"/></symbol><symbol id="hd-icon-pixel-arrow-circle-left-solid" viewBox="0 0 24 24"><path fill="currentColor" d="M8 2H6v1H5v1H4v1H3v1H2v2H1v8h1v2h1v1h1v1h1v1h1v1h2v1h8v-1h2v-1h1v-1h1v-1h1v-1h1v-2h1V8h-1V6h-1V5h-1V4h-1V3h-1V2h-2V1H8zm1 9h10v2H9v1h1v1h1v1h1v1h1v1h-1v1h-1v-1h-1v-1H9v-1H8v-1H7v-1H6v-1H5v-2h1v-1h1V9h1V8h1V7h1V6h1V5h1v1h1v1h-1v1h-1v1h-1v1H9z"/></symbol><symbol id="hd-icon-pixel-arrow-circle-right" viewBox="0 0 24 24"><path fill="currentColor" d="M16 22h2v-1h1v-1h1v-1h1v-1h1v-2h1V8h-1V6h-1V5h-1V4h-1V3h-1V2h-2V1H8v1H6v1H5v1H4v1H3v1H2v2H1v8h1v2h1v1h1v1h1v1h1v1h2v1h8zm-8-2H6v-1H5v-1H4v-2H3V8h1V6h1V5h1V4h2V3h8v1h2v1h1v1h1v2h1v8h-1v2h-1v1h-1v1h-2v1H8z"/><path fill="currentColor" d="M13 19h-1v-1h-1v-1h1v-1h1v-1h1v-1h1v-1H5v-2h10v-1h-1V9h-1V8h-1V7h-1V6h1V5h1v1h1v1h1v1h1v1h1v1h1v1h1v2h-1v1h-1v1h-1v1h-1v1h-1v1h-1z"/></symbol><symbol id="hd-icon-pixel-arrow-circle-right-solid" viewBox="0 0 24 24"><path fill="currentColor" d="M16 22h2v-1h1v-1h1v-1h1v-1h1v-2h1V8h-1V6h-1V5h-1V4h-1V3h-1V2h-2V1H8v1H6v1H5v1H4v1H3v1H2v2H1v8h1v2h1v1h1v1h1v1h1v1h2v1h8zm-1-9H5v-2h10v-1h-1V9h-1V8h-1V7h-1V6h1V5h1v1h1v1h1v1h1v1h1v1h1v1h1v2h-1v1h-1v1h-1v1h-1v1h-1v1h-1v1h-1v-1h-1v-1h1v-1h1v-1h1v-1h1z"/></symbol><symbol id="hd-icon-pixel-arrow-circle-up" viewBox="0 0 24 24"><path fill="currentColor" d="M22 8V6h-1V5h-1V4h-1V3h-1V2h-2V1H8v1H6v1H5v1H4v1H3v1H2v2H1v8h1v2h1v1h1v1h1v1h1v1h2v1h8v-1h2v-1h1v-1h1v-1h1v-1h1v-2h1V8zm-2 8v2h-1v1h-1v1h-2v1H8v-1H6v-1H5v-1H4v-2H3V8h1V6h1V5h1V4h2V3h8v1h2v1h1v1h1v2h1v8z"/><path fill="currentColor" d="M19 11v1h-1v1h-1v-1h-1v-1h-1v-1h-1V9h-1v10h-2V9h-1v1H9v1H8v1H7v1H6v-1H5v-1h1v-1h1V9h1V8h1V7h1V6h1V5h2v1h1v1h1v1h1v1h1v1h1v1z"/></symbol><symbol id="hd-icon-pixel-arrow-circle-up-solid" viewBox="0 0 24 24"><path fill="currentColor" d="M22 8V6h-1V5h-1V4h-1V3h-1V2h-2V1H8v1H6v1H5v1H4v1H3v1H2v2H1v8h1v2h1v1h1v1h1v1h1v1h2v1h8v-1h2v-1h1v-1h1v-1h1v-1h1v-2h1V8zm-9 1v10h-2V9h-1v1H9v1H8v1H7v1H6v-1H5v-1h1v-1h1V9h1V8h1V7h1V6h1V5h2v1h1v1h1v1h1v1h1v1h1v1h1v1h-1v1h-1v-1h-1v-1h-1v-1h-1V9z"/></symbol><symbol id="hd-icon-pixel-arrow-down" viewBox="0 0 24 24"><path fill="currentColor" d="M23 12v1h-1v1h-1v1h-1v1h-1v1h-1v1h-1v1h-1v1h-1v1h-1v1h-1v1h-2v-1h-1v-1H9v-1H8v-1H7v-1H6v-1H5v-1H4v-1H3v-1H2v-1H1v-1h1v-1h1v1h1v1h1v1h1v1h1v1h1v1h1v1h1v1h1V1h2v18h1v-1h1v-1h1v-1h1v-1h1v-1h1v-1h1v-1h1v-1h1v1z"/></symbol><symbol id="hd-icon-pixel-arrow-down-solid" viewBox="0 0 24 24"><path fill="currentColor" d="M13 23h-2v-1h-1v-1H9v-1H8v-1H7v-1H6v-1H5v-1H4v-1H3v-1H2v-1H1v-1h1v-1h1v-1h1v1h1v1h1v1h1v1h1v1h1v1h1V1h4v15h1v-1h1v-1h1v-1h1v-1h1v-1h1v-1h1v1h1v1h1v1h-1v1h-1v1h-1v1h-1v1h-1v1h-1v1h-1v1h-1v1h-1v1h-1z"/></symbol><symbol id="hd-icon-pixel-arrow-left" viewBox="0 0 24 24"><path fill="currentColor" d="M23 11v2H5v1h1v1h1v1h1v1h1v1h1v1h1v1h1v1h1v1h-1v1h-1v-1h-1v-1H9v-1H8v-1H7v-1H6v-1H5v-1H4v-1H3v-1H2v-1H1v-2h1v-1h1V9h1V8h1V7h1V6h1V5h1V4h1V3h1V2h1V1h1v1h1v1h-1v1h-1v1h-1v1H9v1H8v1H7v1H6v1H5v1z"/></symbol><symbol id="hd-icon-pixel-arrow-left-solid" viewBox="0 0 24 24"><path fill="currentColor" d="M1 13v-2h1v-1h1V9h1V8h1V7h1V6h1V5h1V4h1V3h1V2h1V1h1v1h1v1h1v1h-1v1h-1v1h-1v1h-1v1H9v1H8v1h15v4H8v1h1v1h1v1h1v1h1v1h1v1h1v1h-1v1h-1v1h-1v-1h-1v-1H9v-1H8v-1H7v-1H6v-1H5v-1H4v-1H3v-1H2v-1z"/></symbol><symbol id="hd-icon-pixel-arrow-right" viewBox="0 0 24 24"><path fill="currentColor" d="M23 11v2h-1v1h-1v1h-1v1h-1v1h-1v1h-1v1h-1v1h-1v1h-1v1h-1v1h-1v-1h-1v-1h1v-1h1v-1h1v-1h1v-1h1v-1h1v-1h1v-1h1v-1H1v-2h18v-1h-1V9h-1V8h-1V7h-1V6h-1V5h-1V4h-1V3h-1V2h1V1h1v1h1v1h1v1h1v1h1v1h1v1h1v1h1v1h1v1h1v1z"/></symbol><symbol id="hd-icon-pixel-arrow-right-solid" viewBox="0 0 24 24"><path fill="currentColor" d="M23 11v2h-1v1h-1v1h-1v1h-1v1h-1v1h-1v1h-1v1h-1v1h-1v1h-1v1h-1v-1h-1v-1h-1v-1h1v-1h1v-1h1v-1h1v-1h1v-1h1v-1H1v-4h15V9h-1V8h-1V7h-1V6h-1V5h-1V4h-1V3h1V2h1V1h1v1h1v1h1v1h1v1h1v1h1v1h1v1h1v1h1v1h1v1z"/></symbol><symbol id="hd-icon-pixel-arrow-up" viewBox="0 0 24 24"><path fill="currentColor" d="M23 11v1h-1v1h-1v-1h-1v-1h-1v-1h-1V9h-1V8h-1V7h-1V6h-1V5h-1v18h-2V5h-1v1H9v1H8v1H7v1H6v1H5v1H4v1H3v1H2v-1H1v-1h1v-1h1V9h1V8h1V7h1V6h1V5h1V4h1V3h1V2h1V1h2v1h1v1h1v1h1v1h1v1h1v1h1v1h1v1h1v1h1v1z"/></symbol><symbol id="hd-icon-pixel-arrow-up-solid" viewBox="0 0 24 24"><path fill="currentColor" d="M11 1h2v1h1v1h1v1h1v1h1v1h1v1h1v1h1v1h1v1h1v1h1v1h-1v1h-1v1h-1v-1h-1v-1h-1v-1h-1v-1h-1V9h-1V8h-1v15h-4V8H9v1H8v1H7v1H6v1H5v1H4v1H3v-1H2v-1H1v-1h1v-1h1V9h1V8h1V7h1V6h1V5h1V4h1V3h1V2h1z"/></symbol><symbol id="hd-icon-pixel-arweave" viewBox="0 0 24 24"><path fill="currentColor" d="M22 9V7h-1V5h-1V4h-1V3h-2V2h-2V1H9v1H7v1H5v1H4v1H3v2H2v2H1v6h1v2h1v2h1v1h1v1h2v1h2v1h6v-1h2v-1h2v-1h1v-1h1v-2h1v-2h1V9Zm-2 6v2h-1v2h-2v1h-2v1H9v-1H7v-1H5v-2H4v-2H3V9h1V7h1V5h2V4h2V3h6v1h2v1h2v2h1v2h1v6Z"/><path fill="currentColor" d="M15 9V8h-1V7h-4v1H9v2h2V9h2v1h1v1H9v1H8v3h1v1h4v-1h1v1h2V9Zm-4 5v-2h3v1h-1v1Z"/></symbol><symbol id="hd-icon-pixel-at" viewBox="0 0 24 24"><path fill="currentColor" d="M22 10V8h-1V6h-1V4h-1V3h-2V2h-3V1h-4v1H7v1H5v1H4v1H3v2H2v2H1v6h1v2h1v2h1v1h1v1h2v1h3v1h4v-1h3v-2h-3v1h-4v-1H7v-1H6v-1H5v-2H4v-2H3v-4h1V8h1V6h1V5h1V4h3V3h4v1h3v1h1v1h1v2h1v2h1v4h-1v1h-2v-5h-1V8h-1V7h-2V6h-4v1H8v1H7v2H6v4h1v2h1v1h2v1h4v-1h2v-1h1v1h4v-1h1v-2h1v-4zm-6 4h-1v1h-1v1h-4v-1H9v-1H8v-4h1V9h1V8h4v1h1v1h1z"/></symbol><symbol id="hd-icon-pixel-at-solid" viewBox="0 0 24 24"><path fill="currentColor" d="M22 10V8h-1V6h-1V4h-1V3h-2V2h-3V1h-4v1H7v1H5v1H4v1H3v2H2v2H1v6h1v2h1v2h1v1h1v1h2v1h3v1h4v-1h3v-3h-3v1h-4v-1H7v-1H6v-2H5v-2H4v-4h1V8h1V6h1V5h3V4h4v1h3v1h1v2h1v2h1v4h-2v-4h-1V8h-1V7h-2V6h-4v1H8v1H7v2H6v4h1v2h1v1h2v1h4v-1h2v-1h1v1h4v-1h1v-2h1v-4zm-7 4h-1v1h-4v-1H9v-4h1V9h4v1h1z"/></symbol><symbol id="hd-icon-pixel-badge-check" viewBox="0 0 24 24"><path fill="currentColor" d="M22 10V9h-1V5h-1V4h-1V3h-4V2h-1V1h-4v1H9v1H5v1H4v1H3v4H2v1H1v4h1v1h1v4h1v1h1v1h4v1h1v1h4v-1h1v-1h4v-1h1v-1h1v-4h1v-1h1v-4zm-1 4h-1v1h-1v4h-4v1h-1v1h-4v-1H9v-1H5v-4H4v-1H3v-4h1V9h1V5h4V4h1V3h4v1h1v1h4v4h1v1h1z"/><path fill="currentColor" d="M17 9v2h-1v1h-1v1h-1v1h-1v1h-1v1h-2v-1H9v-1H8v-1H7v-2h1v-1h1v1h1v1h2v-1h1v-1h1V9h1V8h1v1z"/></symbol><symbol id="hd-icon-pixel-badge-check-solid" viewBox="0 0 24 24"><path fill="currentColor" d="M22 10V9h-1V5h-1V4h-1V3h-4V2h-1V1h-4v1H9v1H5v1H4v1H3v4H2v1H1v4h1v1h1v4h1v1h1v1h4v1h1v1h4v-1h1v-1h4v-1h1v-1h1v-4h1v-1h1v-4zM7 11h1v-1h1v1h1v1h2v-1h1v-1h1V9h1V8h1v1h1v2h-1v1h-1v1h-1v1h-1v1h-1v1h-2v-1H9v-1H8v-1H7z"/></symbol><symbol id="hd-icon-pixel-bank" viewBox="0 0 24 24"><path fill="currentColor" d="M14 4v2h-1v1h-2V6h-1V4h1V3h2v1zm7 16v-1h-1v-9h-2v9h-2v-9h-2v9h-4v-9H8v9H6v-9H4v9H3v1H1v2h1v1h20v-1h1v-2zm0 2H3v-1h1v-1h16v1h1zm1-15v1h-1v1H3V8H2V7h2v1h16V7z"/><path fill="currentColor" d="M23 5v2h-1V6h-3V5h-2V4h-2V3h-2V2h-2v1H9v1H7v1H5v1H2v1H1V5h3V4h2V3h2V2h2V1h4v1h2v1h2v1h2v1z"/></symbol><symbol id="hd-icon-pixel-bank-solid" viewBox="0 0 24 24"><path fill="currentColor" d="M23 20v2h-1v1H2v-1H1v-2h2v-1h1v-9h2v9h2v-9h2v9h4v-9h2v9h2v-9h2v9h1v1zM20 5V4h-2V3h-2V2h-2V1h-4v1H8v1H6v1H4v1H1v2h1v1h1v1h18V8h1V7h1V5zm-9 2V6h-1V4h1V3h2v1h1v2h-1v1z"/></symbol><symbol id="hd-icon-pixel-bars" viewBox="0 0 24 24"><path fill="currentColor" d="M1 11h22v2H1zm0 8h22v2H1zM1 3h22v2H1z"/></symbol><symbol id="hd-icon-pixel-bars-solid" viewBox="0 0 24 24"><path fill="currentColor" d="M22 11h1v2h-1v1H2v-1H1v-2h1v-1h20zm0 8h1v2h-1v1H2v-1H1v-2h1v-1h20zm1-16v2h-1v1H2V5H1V3h1V2h20v1z"/></symbol><symbol id="hd-icon-pixel-behance" viewBox="0 0 24 24"><path fill="currentColor" d="M22 11v-1h-1V9h-6v1h-1v1h-1v6h1v1h1v1h6v-1h1v-1h1v-1h-3v1h-3v-1h-1v-1h7v-4Zm-6 2v-2h4v2Zm-1-7h6v2h-6zm-4 7v-1h-1v-2h1V7h-1V6H9V5H1v14h9v-1h1v-1h1v-4ZM4 7h3v1h1v2H7v1H4Zm5 9H8v1H4v-4h4v1h1Z"/></symbol><symbol id="hd-icon-pixel-bell" viewBox="0 0 24 24"><path fill="currentColor" d="M15 20v2h-1v1h-4v-1H9v-2zm6-3v-1h-1v-2h-1V8h-1V6h-1V5h-1V4h-2V3h-1V1h-2v2h-1v1H8v1H7v1H6v2H5v6H4v2H3v1H2v1h1v1h18v-1h1v-1zM6 16v-2h1V8h1V6h2V5h4v1h2v2h1v6h1v2h1v1H5v-1z"/></symbol><symbol id="hd-icon-pixel-bell-exclaimation" viewBox="0 0 24 24"><path fill="currentColor" d="M15 20v2h-1v1h-4v-1H9v-2zm6-3v-1h-1v-2h-1V8h-1V6h-1V5h-1V4h-2V3h-1V1h-2v2h-1v1H8v1H7v1H6v2H5v6H4v2H3v1H2v1h1v1h18v-1h1v-1zm-2 0H5v-1h1v-2h1V8h1V6h2V5h4v1h2v2h1v6h1v2h1z"/><path fill="currentColor" d="M11 14h2v2h-2zm3-7v3h-1v3h-2v-3h-1V7z"/></symbol><symbol id="hd-icon-pixel-bell-exclaimation-solid" viewBox="0 0 24 24"><path fill="currentColor" d="M15 20v2h-1v1h-4v-1H9v-2zm6-3v-1h-1v-2h-1V8h-1V6h-1V5h-1V4h-2V3h-1V1h-2v2h-1v1H8v1H7v1H6v2H5v6H4v2H3v1H2v1h1v1h18v-1h1v-1zM14 6v3h-1v3h-2V9h-1V6zm-3 8h2v2h-2z"/></symbol><symbol id="hd-icon-pixel-bell-mute" viewBox="0 0 24 24"><path fill="currentColor" d="M3 16h1v1H3zm2 0H4v-2h1V8h1V6h1V5h1V4h2V3h1V1h2v2h1v1h2v1h-1v1h-1V5h-4v1H8v2H7v6H6v1H5zm-3 1h1v1H2zm13 3v2h-1v1h-4v-1H9v-2zm6-3h1v1h-1v1H9v-1h1v-1h9v-1h-1v-2h-1v-4h1V9h1v5h1v2h1zm1-14v1h-1v1h-1v1h-1v1h-1v1h-1v1h-1v1h-1v1h-1v1h-1v1h-1v1h-1v1h-1v1H9v1H8v1H7v1H6v1H5v1H4v1H3v-1H2v-1h1v-1h1v-1h1v-1h1v-1h1v-1h1v-1h1v-1h1v-1h1v-1h1v-1h1V9h1V8h1V7h1V6h1V5h1V4h1V3h1V2h1v1z"/></symbol><symbol id="hd-icon-pixel-bell-mute-solid" viewBox="0 0 24 24"><path fill="currentColor" d="M20 2h1v1h-1zm2 1v1h-1v1h-1v1h-1v1h-1v1h-1v1h-1v1h-1v1h-1v1h-1v1h-1v1h-1v1h-1v1H9v1H8v1H7v1H6v1H5v1H4v1H3v-1H2v-1h1v-1h1v-1h1v-1h1v-1h1v-1h1v-1h1v-1h1v-1h1v-1h1v-1h1V9h1V8h1V7h1V6h1V5h1V4h1V3zm-1 14h1v1h-1v1H9v-1h1v-1h1v-1h1v-1h1v-1h1v-1h1v-1h1v-1h1v-1h1V9h1v5h1v2h1zM2 17h1v1H2zm3-1H4v-2h1V8h1V6h1V5h1V4h2V3h1V1h2v2h1v1h2v1h-1v1h-1v1h-1v1h-1v1h-1v1h-1v1H9v1H8v1H7v1H6v1H5zm-2 0h1v1H3zm12 4v2h-1v1h-4v-1H9v-2z"/></symbol><symbol id="hd-icon-pixel-bell-solid" viewBox="0 0 24 24"><path fill="currentColor" d="M15 20v2h-1v1h-4v-1H9v-2zm7-3v1h-1v1H3v-1H2v-1h1v-1h1v-2h1V8h1V6h1V5h1V4h2V3h1V1h2v2h1v1h2v1h1v1h1v2h1v6h1v2h1v1z"/></symbol><symbol id="hd-icon-pixel-bloomberg" viewBox="0 0 24 24"><path fill="currentColor" d="M22 2V1H2v1H1v20h1v1h20v-1h1V2zM7 5h7v1h1v1h1v4h-1v1h1v1h1v4h-1v1h-1v1H7z"/><path fill="currentColor" d="M15 14v2h-1v1H9v-4h5v1zm-1-6v2h-1v1H9V7h4v1z"/></symbol><symbol id="hd-icon-pixel-bluesky" viewBox="0 0 24 24"><path fill="currentColor" d="M23 3v8h-1v2h-2v1h-2v1h2v1h1v3h-1v1h-1v1h-2v1h-2v-1h-1v-1h-1v-2h-2v2h-1v1H9v1H7v-1H5v-1H4v-1H3v-3h1v-1h2v-1H4v-1H2v-2H1V3h1V2h2v1h2v1h1v1h1v1h1v1h1v2h1v1h2V9h1V7h1V6h1V5h1V4h1V3h2V2h2v1z"/></symbol><symbol id="hd-icon-pixel-bold" viewBox="0 0 24 24"><path fill="currentColor" d="M19 13v-1h-2v-1h1v-1h1V4h-1V3h-1V2h-1V1H5v1H4v20h1v1h12v-1h1v-1h1v-1h1v-7zM6 3h10v1h1v6H6zm12 17h-1v1H6v-9h10v1h1v1h1z"/></symbol><symbol id="hd-icon-pixel-bold-solid" viewBox="0 0 24 24"><path fill="currentColor" d="M19 13v-1h-2v-1h1v-1h1V4h-1V3h-1V2h-1V1H5v1H4v20h1v1h12v-1h1v-1h1v-1h1v-7zm-3 6v1H7v-7h9v1h1v5zm0-14v4h-1v1H7V4h8v1z"/><path fill="none" d="M0 0h24v24H0z"/></symbol><symbol id="hd-icon-pixel-bolt" viewBox="0 0 24 24"><path fill="currentColor" d="M14 10V6h1V3h1V1h-1v1h-1v1h-1v1h-1v1h-1v1h-1v1H9v1H8v1H7v1H6v1H5v1H4v1H3v1h7v4H9v3H8v2h1v-1h1v-1h1v-1h1v-1h1v-1h1v-1h1v-1h1v-1h1v-1h1v-1h1v-1h1v-1h1v-1zm4 2h-1v1h-1v1h-1v1h-1v1h-1v1h-1v1h-1v-5H6v-1h1v-1h1v-1h1V9h1V8h1V7h1V6h1v5h5z"/></symbol><symbol id="hd-icon-pixel-bolt-solid" viewBox="0 0 24 24"><path fill="currentColor" d="M21 10v1h-1v1h-1v1h-1v1h-1v1h-1v1h-1v1h-1v1h-1v1h-1v1h-1v1h-1v1H9v1H8v-2h1v-3h1v-4H3v-1h1v-1h1v-1h1v-1h1V9h1V8h1V7h1V6h1V5h1V4h1V3h1V2h1V1h1v2h-1v3h-1v4z"/></symbol><symbol id="hd-icon-pixel-book-heart" viewBox="0 0 24 24"><path fill="currentColor" d="M18 6v3h-1v1h-1v1h-1v1h-1v1h-1v1h-1v-1h-1v-1h-1v-1H9v-1H8V9H7V6h1V5h3v1h1v1h1V6h1V5h3v1z"/><path fill="currentColor" d="M20 17h1v-1h1V2h-1V1H4v1H3v1H2v18h1v1h1v1h17v-1h1v-1h-1v-1h-1zm-2 4H5v-1H4v-2h1v-1h13zM4 3h16v12H4z"/></symbol><symbol id="hd-icon-pixel-book-heart-solid" viewBox="0 0 24 24"><path fill="currentColor" d="M21 17v-1h1V2h-1V1H4v1H3v1H2v18h1v1h1v1h17v-1h1v-1h-1v-1h-1v-3zm-3 4H6v-1H5v-2h1v-1h12zm0-12h-1v1h-1v1h-1v1h-1v1h-1v1h-1v-1h-1v-1h-1v-1H9v-1H8V9H7V6h1V5h3v1h1v1h1V6h1V5h3v1h1z"/></symbol><symbol id="hd-icon-pixel-bookmark" viewBox="0 0 24 24"><path fill="currentColor" d="M19 2V1H5v1H4v21h1v-1h1v-1h1v-1h1v-1h1v-1h1v-1h1v-1h2v1h1v1h1v1h1v1h1v1h1v1h1v1h1V2zm-1 16h-1v-1h-1v-1h-1v-1h-1v-1h-4v1H9v1H8v1H7v1H6V4h1V3h10v1h1z"/></symbol><symbol id="hd-icon-pixel-bookmark-solid" viewBox="0 0 24 24"><path fill="currentColor" d="M20 2v21h-1v-1h-1v-1h-1v-1h-1v-1h-1v-1h-1v-1h-1v-1h-2v1h-1v1H9v1H8v1H7v1H6v1H5v1H4V2h1V1h14v1z"/></symbol><symbol id="hd-icon-pixel-box-usd" viewBox="0 0 24 24"><path fill="currentColor" d="M22 6V4h-1V3h-1V2h-1V1H5v1H4v1H3v1H2v2H1v16h1v1h20v-1h1V6zm-9-3h5v1h1v1h1v2h-7zM4 5h1V4h1V3h5v4H4zM3 21V9h8v2H9v4h1v1h3v1H9v2h2v2zm18 0h-8v-2h2v-4h-1v-1h-3v-1h4v-2h-2V9h8z"/></symbol><symbol id="hd-icon-pixel-box-usd-solid" viewBox="0 0 24 24"><path fill="currentColor" d="M1 9v13h1v1h20v-1h1V9zm12 11v2h-2v-2H9v-2h4v-1h-3v-1H9v-4h2v-2h2v2h2v2h-4v1h3v1h1v4zM11 1v6H1V6h1V4h1V3h1V2h1V1zm12 5v1H13V1h6v1h1v1h1v1h1v2z"/></symbol><symbol id="hd-icon-pixel-brightness-high" viewBox="0 0 24 24"><path fill="currentColor" d="M4 5H3V4h1V3h1v1h1v1h1v1h1v1H7v1H6V7H5V6H4zm-3 6h5v2H1zm6 6h1v1H7v1H6v1H5v1H4v-1H3v-1h1v-1h1v-1h1v-1h1zm4 1h2v5h-2zm0-17h2v5h-2zm7 10h5v2h-5zm-1-4h-1V6h1V5h1V4h1V3h1v1h1v1h-1v1h-1v1h-1v1h-1zm4 12v1h-1v1h-1v-1h-1v-1h-1v-1h-1v-1h1v-1h1v1h1v1h1v1zm-5-5h1v-4h-1V8h-2V7h-4v1H8v2H7v4h1v2h2v1h4v-1h2zm-1 0h-1v1h-4v-1H9v-4h1V9h4v1h1z"/></symbol><symbol id="hd-icon-pixel-brightness-high-solid" viewBox="0 0 24 24"><path fill="currentColor" d="M1 11h5v2H1zm3-6H3V4h1V3h1v1h1v1h1v1h1v1H7v1H6V7H5V6H4zm3 12h1v1H7v1H6v1H5v1H4v-1H3v-1h1v-1h1v-1h1v-1h1zm4 1h2v5h-2zm0-17h2v5h-2zm9 18h1v1h-1v1h-1v-1h-1v-1h-1v-1h-1v-1h1v-1h1v1h1v1h1zm-2-8h5v2h-5zm-1-4h-1V6h1V5h1V4h1V3h1v1h1v1h-1v1h-1v1h-1v1h-1zm-1 9h-2v1h-4v-1H8v-2H7v-4h1V8h2V7h4v1h2v2h1v4h-1z"/></symbol><symbol id="hd-icon-pixel-brightness-low" viewBox="0 0 24 24"><path fill="currentColor" d="M19 11h1v2h-1zm3 0h1v2h-1zm-2-1h2v1h-2zm0 3h2v1h-2zm-3-9h1v2h-1zm1 2h2v1h-2zm2-2h1v2h-1zm-2-1h2v1h-2zm0 14h2v1h-2zm2 1h1v2h-1zm-3 0h1v2h-1zm1 2h2v1h-2zm-7-1h2v1h-2zm0 3h2v1h-2zm2-2h1v2h-1zm-3 0h1v2h-1zm3-18h1v2h-1zm-3 0h1v2h-1zm1-1h2v1h-2zm0 3h2v1h-2zm5 6V8h-2V7h-4v1H8v2H7v4h1v2h2v1h4v-1h2v-2h1v-4zm-2 4v1h-4v-1H9v-4h1V9h4v1h1v4zM3 18h1v2H3zm1 2h2v1H4zm0-3h2v1H4zm2 1h1v2H6zM6 4h1v2H6zM4 3h2v1H4zm0 3h2v1H4zM3 4h1v2H3zm-1 9h2v1H2zm0-3h2v1H2zm-1 1h1v2H1zm3 0h1v2H4z"/></symbol><symbol id="hd-icon-pixel-brightness-low-solid" viewBox="0 0 24 24"><path fill="currentColor" d="M6 18h1v2H6v1H4v-1H3v-2h1v-1h2zM4 6H3V4h1V3h2v1h1v2H6v1H4zm-2 8v-1H1v-2h1v-1h2v1h1v2H4v1zm11 6h1v2h-1v1h-2v-1h-1v-2h1v-1h2zM11 4h-1V2h1V1h2v1h1v2h-1v1h-2zm7 2h-1V4h1V3h2v1h1v2h-1v1h-2zm-1 8h-1v2h-2v1h-4v-1H8v-2H7v-4h1V8h2V7h4v1h2v2h1zm3 4h1v2h-1v1h-2v-1h-1v-2h1v-1h2zm3-7v2h-1v1h-2v-1h-1v-2h1v-1h2v1z"/></symbol><symbol id="hd-icon-pixel-bullet-list" viewBox="0 0 24 24"><path fill="currentColor" d="M2 5h3v3H2zm0 6h3v3H2zm0 6h3v3H2zm6 1h14v1H8zM8 6h14v1H8zm0 6h14v1H8z"/></symbol><symbol id="hd-icon-pixel-bullet-list-solid" viewBox="0 0 24 24"><path fill="currentColor" d="M2 5h3v3H2zm0 12h3v3H2zm0-6h3v3H2zm21-5v1h-1v1H10V7H9V6h1V5h12v1zm-1 6h1v1h-1v1H10v-1H9v-1h1v-1h12zm0 6h1v1h-1v1H10v-1H9v-1h1v-1h12z"/><path fill="none" d="M0 0h24v24H0z"/></symbol><symbol id="hd-icon-pixel-bullhorn" viewBox="0 0 24 24"><path fill="currentColor" d="M22 10V9h-1V3h-1V2h-1v1h-1v1h-2v1h-2v1h-2v1H2v1H1v7h1v1h3v5h1v1h2v-1h1v-5h3v1h2v1h2v1h2v1h1v1h1v-1h1v-6h1v-1h1v-3zm-3 7h-2v-1h-2v-1h-2v-1h-3V9h3V8h2V7h2V6h2z"/></symbol><symbol id="hd-icon-pixel-bullhorn-solid" viewBox="0 0 24 24"><path fill="currentColor" d="M23 10v3h-1v1h-1V9h1v1zM2 7h6v15H6v-1H5v-5H2v-1H1V8h1zm18-5v19h-1v-1h-1v-1h-2v-1h-2v-1h-2v-1h-2V7h2V6h2V5h2V4h2V3h1V2z"/></symbol><symbol id="hd-icon-pixel-business" viewBox="0 0 24 24"><path fill="currentColor" d="M22.505 15.503v7.002h-1v1H3.5v-1h-1v-7.002h7.002v2h6.001v-2z"/><path fill="currentColor" d="M14.503 15.503h-4v1h4zm0-2h-4v1h4z"/><path fill="currentColor" d="M22.505 5.5v-1h-6.002v-2h-1v-1H9.502v1h-1v2H2.5v1h-1v8.003h1v1h7.002v-2h6.001v2h7.002v-1h1V5.5zm-12.003-2h4.001v1h-4.001z"/></symbol><symbol id="hd-icon-pixel-calender" viewBox="0 0 24 24"><path fill="currentColor" d="M16 1h2v1h-2zm6 4V4h-3V2h-1v5h-2V2h-1v2H9V2H8v5H6V2H5v2H2v1H1v17h1v1h20v-1h1V5zM2 6h1V5h2v2H2zm4 16H3v-1H2v-3h4zm0-5H2v-4h4zm0-5H2V8h4zm11-4v4h-4V8zm0 9h-4v-4h4zM9 5h6v2H9zm2 17H7v-4h4zm0-5H7v-4h4zm0-5H7V8h4zm2 10v-4h4v4zm9-1h-1v1h-3v-4h4zm0-4h-4v-4h4zm0-5h-4V8h4zm0-5h-3V5h2v1h1zM6 1h2v1H6z"/></symbol><symbol id="hd-icon-pixel-calender-solid" viewBox="0 0 24 24"><path fill="currentColor" d="M6 1h2v1H6zm10 0h2v1h-2zm6 4V4h-3V2h-1v5h-2V2h-1v2H9V2H8v5H6V2H5v2H2v1H1v17h1v1h20v-1h1V5zm-1 3v3h-3V8zm0 8h-3v-3h3zm0 5h-3v-3h3zM3 18h3v3H3zm0-5h3v3H3zm13 3h-3v-3h3zm-5 0H8v-3h3zm-3 2h3v3H8zm5 0h3v3h-3zm3-7h-3V8h3zm-5-3v3H8V8zm-5 3H3V8h3z"/></symbol><symbol id="hd-icon-pixel-cc" viewBox="0 0 24 24"><path fill="currentColor" d="M22 5V4H2v1H1v14h1v1h20v-1h1V5zm-1 13H3V6h18z"/><path fill="currentColor" d="M20 7v2h-4v1h-1v4h1v1h4v2h-5v-1h-1v-1h-1V9h1V8h1V7zm-9 0v2H7v1H6v4h1v1h4v2H6v-1H5v-1H4V9h1V8h1V7z"/></symbol><symbol id="hd-icon-pixel-cc-solid" viewBox="0 0 24 24"><path fill="currentColor" d="M22 5V4H2v1H1v14h1v1h20v-1h1V5zM11 9H7v1H6v4h1v1h4v2H6v-1H5v-1H4V9h1V8h1V7h5zm9 0h-4v1h-1v4h1v1h4v2h-5v-1h-1v-1h-1V9h1V8h1V7h5z"/></symbol><symbol id="hd-icon-pixel-chart-line" viewBox="0 0 24 24"><path fill="currentColor" d="M22 5v7h-1V8h-2v1h-1v1h-1v1h-1v1h-1v1h-1v1h-1v-1h-1v-1h-1v-1h-1v-1H9v1H8v1H7v1H6v-2h1v-1h1V9h1V8h1v1h1v1h1v1h1v1h1v-1h1v-1h1V9h1V8h1V7h1V6h-4V5z"/><path fill="currentColor" d="M23 18v2H2v-1H1V4h2v14z"/></symbol><symbol id="hd-icon-pixel-chart-line-solid" viewBox="0 0 24 24"><path fill="currentColor" d="M6 13v-2h1v-1h1V9h1V8h1v1h1v1h1v1h1v1h1v-1h1v-1h1V9h1V7h-1V6h-1V5h7v7h-1v-1h-1v-1h-2v1h-1v1h-1v1h-1v1h-1v1h-1v-1h-1v-1h-1v-1h-1v-1H9v1H8v1z"/><path fill="currentColor" d="M23 17v3H2v-1H1V4h3v13z"/></symbol><symbol id="hd-icon-pixel-chart-network" viewBox="0 0 24 24"><path fill="currentColor" d="M7 7H5V6H4V4h1V3h2v1h1v2H7zm-2 4h1v3H5v1H2v-1H1v-3h1v-1h3zm4-3h1v1H9zm6 7h1v1h-1zm2-7h1v1h-1zM8 7h1v1H8zm-1 5h1v1H7z"/><path fill="currentColor" d="M16 14v-3h-1v-1h-1V9h-3v1h-1v1H9v3h1v1h1v1h3v-1h1v-1zm-5 0v-3h3v3zm5-5h1v1h-1zm0 7h1v1h-1zm5 2h1v3h-1v1h-3v-1h-1v-3h1v-1h3zm1-13v2h-1v1h-2V7h-1V5h1V4h2v1z"/></symbol><symbol id="hd-icon-pixel-chart-network-solid" viewBox="0 0 24 24"><path fill="currentColor" d="M17 14v-4h1V9h1V8h2V7h1V5h-1V4h-2v1h-1v2h-1v1h-1v1h-2V8h-4V7H9V6H8V4H7V3H5v1H4v2h1v1h2v1h1v1h1v2H8v1H6v-1H5v-1H2v1H1v3h1v1h3v-1h4v1h1v1h1v1h3v-1h1v1h1v1h1v3h1v1h3v-1h1v-3h-1v-1h-3v-1h-1v-1h-1v-1zm-3 0h-3v-3h3z"/></symbol><symbol id="hd-icon-pixel-check" viewBox="0 0 24 24"><path fill="currentColor" d="M22 4v2h-1v1h-1v1h-1v1h-1v1h-1v1h-1v1h-1v1h-1v1h-1v1h-1v1h-1v1h-1v1H8v-1H7v-1H6v-1H5v-1H4v-1H3v-1H2v-2h2v1h1v1h1v1h1v1h1v1h2v-1h1v-1h1v-1h1v-1h1v-1h1V9h1V8h1V7h1V6h1V5h1V4z"/></symbol><symbol id="hd-icon-pixel-check-box" viewBox="0 0 24 24"><path fill="currentColor" d="M19 9v1h-1v1h-1v1h-1v1h-1v1h-1v1h-1v1h-1v1h-2v-1H9v-1H8v-1H7v-1H6v-1H5v-1h1v-1h1V9h1v1h1v1h1v1h2v-1h1v-1h1V9h1V8h1V7h1v1h1v1z"/><path fill="currentColor" d="M22 2V1H2v1H1v20h1v1h20v-1h1V2zm-1 19H3V3h18z"/></symbol><symbol id="hd-icon-pixel-check-box-solid" viewBox="0 0 24 24"><path fill="currentColor" d="M22 2V1H2v1H1v20h1v1h20v-1h1V2zM5 11h1v-1h1V9h1v1h1v1h1v1h2v-1h1v-1h1V9h1V8h1V7h1v1h1v1h1v1h-1v1h-1v1h-1v1h-1v1h-1v1h-1v1h-1v1h-2v-1H9v-1H8v-1H7v-1H6v-1H5z"/></symbol><symbol id="hd-icon-pixel-check-circle" viewBox="0 0 24 24"><path fill="currentColor" d="M19 9v1h-1v1h-1v1h-1v1h-1v1h-1v1h-1v1h-1v1h-2v-1H9v-1H8v-1H7v-1H6v-1h1v-1h1v1h1v1h1v1h2v-1h1v-1h1v-1h1v-1h1V9h1V8h1v1z"/><path fill="currentColor" d="M22 9V7h-1V5h-1V4h-1V3h-2V2h-2V1H9v1H7v1H5v1H4v1H3v2H2v2H1v6h1v2h1v2h1v1h1v1h2v1h2v1h6v-1h2v-1h2v-1h1v-1h1v-2h1v-2h1V9zm-2 6v2h-1v2h-2v1h-2v1H9v-1H7v-1H5v-2H4v-2H3V9h1V7h1V5h2V4h2V3h6v1h2v1h2v2h1v2h1v6z"/></symbol><symbol id="hd-icon-pixel-check-circle-solid" viewBox="0 0 24 24"><path fill="currentColor" d="M22 9V7h-1V5h-1V4h-1V3h-2V2h-2V1H9v1H7v1H5v1H4v1H3v2H2v2H1v6h1v2h1v2h1v1h1v1h2v1h2v1h6v-1h2v-1h2v-1h1v-1h1v-2h1v-2h1V9zm-4 3h-1v1h-1v1h-1v1h-1v1h-1v1h-1v1h-2v-1H9v-1H8v-1H7v-1H6v-2h1v-1h2v1h1v1h2v-1h1v-1h1v-1h1V9h1V8h2v1h1v2h-1z"/></symbol><symbol id="hd-icon-pixel-check-list" viewBox="0 0 24 24"><path fill="currentColor" d="M9 18h14v1H9zm0-6h14v1H9zm0-6h14v1H9zm-2 9h1v2H7v1H6v1H5v1H4v1H3v-1H2v-1H1v-2h1v1h1v1h1v-1h1v-1h1v-1h1zm1-6v2H7v1H6v1H5v1H4v1H3v-1H2v-1H1v-2h1v1h1v1h1v-1h1v-1h1v-1h1V9zm0-6v2H7v1H6v1H5v1H4v1H3V8H2V7H1V5h1v1h1v1h1V6h1V5h1V4h1V3z"/></symbol><symbol id="hd-icon-pixel-check-list-solid" viewBox="0 0 24 24"><path fill="currentColor" d="M23 6v1h-1v1H10V7H9V6h1V5h12v1zm-1 12h1v1h-1v1H10v-1H9v-1h1v-1h12zm0-6h1v1h-1v1H10v-1H9v-1h1v-1h12zM8 15v2H7v1H6v1H5v1H4v1H3v-1H2v-1H1v-2h1v1h1v1h1v-1h1v-1h1v-1h1v-1zm0-6v2H7v1H6v1H5v1H4v1H3v-1H2v-1H1v-2h1v1h1v1h1v-1h1v-1h1v-1h1V9zm0-6v2H7v1H6v1H5v1H4v1H3V8H2V7H1V5h1v1h1v1h1V6h1V5h1V4h1V3z"/><path fill="none" d="M0 0h24v24H0z"/></symbol><symbol id="hd-icon-pixel-check-solid" viewBox="0 0 24 24"><path fill="currentColor" d="M23 5v1h-1v1h-1v1h-1v1h-1v1h-1v1h-1v1h-1v1h-1v1h-1v1h-1v1h-1v1h-1v1h-1v1H8v-1H7v-1H6v-1H5v-1H4v-1H3v-1H2v-1H1v-1h1v-1h1V9h1v1h1v1h1v1h1v1h1v1h2v-1h1v-1h1v-1h1v-1h1V9h1V8h1V7h1V6h1V5h1V4h1V3h1v1h1v1z"/></symbol><symbol id="hd-icon-pixel-chevron-down" viewBox="0 0 24 24"><path fill="currentColor" d="M22 6v2h-1v1h-1v1h-1v1h-1v1h-1v1h-1v1h-1v1h-1v1h-1v1h-2v-1h-1v-1H9v-1H8v-1H7v-1H6v-1H5v-1H4V9H3V8H2V6h2v1h1v1h1v1h1v1h1v1h1v1h1v1h1v1h2v-1h1v-1h1v-1h1v-1h1V9h1V8h1V7h1V6z"/></symbol><symbol id="hd-icon-pixel-chevron-down-solid" viewBox="0 0 24 24"><path fill="currentColor" d="M23 8v1h-1v1h-1v1h-1v1h-1v1h-1v1h-1v1h-1v1h-1v1h-1v1h-1v1h-2v-1h-1v-1H9v-1H8v-1H7v-1H6v-1H5v-1H4v-1H3v-1H2V9H1V8h1V7h1V6h1v1h1v1h1v1h1v1h1v1h1v1h1v1h1v1h2v-1h1v-1h1v-1h1v-1h1V9h1V8h1V7h1V6h1v1h1v1z"/></symbol><symbol id="hd-icon-pixel-chevron-up" viewBox="0 0 24 24"><path fill="currentColor" d="M22 16v2h-2v-1h-1v-1h-1v-1h-1v-1h-1v-1h-1v-1h-1v-1h-1v-1h-2v1h-1v1H9v1H8v1H7v1H6v1H5v1H4v1H2v-2h1v-1h1v-1h1v-1h1v-1h1v-1h1v-1h1V9h1V8h1V7h2v1h1v1h1v1h1v1h1v1h1v1h1v1h1v1h1v1z"/></symbol><symbol id="hd-icon-pixel-chevron-up-solid" viewBox="0 0 24 24"><path fill="currentColor" d="M23 16v1h-1v1h-1v1h-1v-1h-1v-1h-1v-1h-1v-1h-1v-1h-1v-1h-1v-1h-1v-1h-2v1h-1v1H9v1H8v1H7v1H6v1H5v1H4v1H3v-1H2v-1H1v-1h1v-1h1v-1h1v-1h1v-1h1v-1h1v-1h1V9h1V8h1V7h1V6h2v1h1v1h1v1h1v1h1v1h1v1h1v1h1v1h1v1h1v1z"/></symbol><symbol id="hd-icon-pixel-circle-notch" viewBox="0 0 24 24"><path fill="currentColor" d="M23 9v6h-1v2h-1v2h-1v1h-1v1h-2v1h-2v1H9v-1H7v-1H5v-1H4v-1H3v-2H2v-2H1V9h1V7h1V5h1V4h1V3h2V2h2V1h1v1h1v1h-1v1H8v1H6v1H5v2H4v2H3v4h1v2h1v2h1v1h2v1h2v1h4v-1h2v-1h2v-1h1v-2h1v-2h1v-4h-1V8h-1V6h-1V5h-2V4h-2V3h-1V2h1V1h1v1h2v1h2v1h1v1h1v2h1v2z"/></symbol><symbol id="hd-icon-pixel-circle-notch-solid" viewBox="0 0 24 24"><path fill="currentColor" d="M23 9v6h-1v2h-1v2h-1v1h-1v1h-2v1h-2v1H9v-1H7v-1H5v-1H4v-1H3v-2H2v-2H1V9h1V7h1V5h1V4h1V3h2V2h2V1h1v1h1v2H9v1H7v1H6v1H5v2H4v6h1v2h1v1h1v1h2v1h6v-1h2v-1h1v-1h1v-2h1V9h-1V7h-1V6h-1V5h-2V4h-2V2h1V1h1v1h2v1h2v1h1v1h1v2h1v2z"/></symbol><symbol id="hd-icon-pixel-clipboard" viewBox="0 0 24 24"><path fill="currentColor" d="M19 5V4h-3V3h-1V2h-1V1h-4v1H9v1H8v1H5v1H4v17h1v1h14v-1h1V5zm-9-2h1V2h2v1h1v2h-1v1h-2V5h-1zM6 6h2v1h8V6h2v15H6z"/></symbol><symbol id="hd-icon-pixel-clipboard-solid" viewBox="0 0 24 24"><path fill="currentColor" d="M15 3V2h-1V1h-4v1H9v1H8v3h1v1h6V6h1V3zm-4 3V5h-1V3h1V2h2v1h1v2h-1v1z"/><path fill="currentColor" d="M20 5v17h-1v1H5v-1H4V5h1V4h2v3h1v1h8V7h1V4h2v1z"/></symbol><symbol id="hd-icon-pixel-clock" viewBox="0 0 24 24"><path fill="currentColor" d="M22 9V7h-1V5h-1V4h-1V3h-2V2h-2V1H9v1H7v1H5v1H4v1H3v2H2v2H1v6h1v2h1v2h1v1h1v1h2v1h2v1h6v-1h2v-1h2v-1h1v-1h1v-2h1v-2h1V9zm-1 6h-1v2h-1v2h-2v1h-2v1H9v-1H7v-1H5v-2H4v-2H3V9h1V7h1V5h2V4h2V3h6v1h2v1h2v2h1v2h1z"/><path fill="currentColor" d="M16 15v1h-1v1h-1v-1h-1v-1h-1v-1h-1V5h2v8h1v1h1v1z"/></symbol><symbol id="hd-icon-pixel-clock-solid" viewBox="0 0 24 24"><path fill="currentColor" d="M22 9V7h-1V5h-1V4h-1V3h-2V2h-2V1H9v1H7v1H5v1H4v1H3v2H2v2H1v6h1v2h1v2h1v1h1v1h2v1h2v1h6v-1h2v-1h2v-1h1v-1h1v-2h1v-2h1V9zm-9 7v-1h-1v-1h-1V5h2v8h1v1h1v1h1v1h-1v1h-1v-1z"/></symbol><symbol id="hd-icon-pixel-cloud" viewBox="0 0 24 24"><path fill="currentColor" d="M23.505 17.503h-2v2h2zm-5.001 4.001h-2v2h2zm2-4v1h-2v-1h-1v-3.001h1v2h1v1zm-4.001 2v1h-2v-1h-1v-5.001h1v4h1v1.001zm-5.001-5.001v5.001h-1v1h-2v-1h1v-1h1v-4.001zm-3 7.001h-2v2h2zm-1.001-7.001v3h-1v1h-2v-1h1v-1h1v-2zm15.004-7.002v-1h-1v-1h-2v-2h-1.001v-1h-1V1.5h-5.002v1h-1v1h-1v1h-1v-1h-3v1H5.5v1h-1v2.001h-2v1h-1v3.001h1v1h1v1h18.005v-1h1v-1h1v-4zm-8.002 3.001v-1h-1v-2h1v1h1V5.5h1v3h1v-1h1v2h-1v1.001h-1v1h-1v-1zm-4.001-4v1h1v2h-1v-1h-1v3h-1v-3h-1v1h-1v-2h1v-1h1V5.5h1v1zM3.5 17.503h-2v2h2z"/></symbol><symbol id="hd-icon-pixel-cloud-download-alt" viewBox="0 0 24 24"><path fill="currentColor" d="M14 13v2h-1v1h-1v1h-1v1h-1v-1H9v-1H8v-1H7v-2h1v1h1v1h1V9h1v6h1v-1h1v-1z"/><path fill="currentColor" d="M22 12v-1h-2V9h-1V8h-1V7h-3v1h-1V6h-1V5H8v1H7v1H6v1H5v3H2v1H1v5h1v1h1v1h2v1h14v-1h2v-1h1v-1h1v-5zm0 4h-1v1h-1v1h-2v1H6v-1H4v-1H3v-1H2v-3h1v-1h3V9h1V8h1V7h1V6h3v1h1v2h3V8h1v1h1v1h1v2h2v1h1z"/></symbol><symbol id="hd-icon-pixel-cloud-download-solid" viewBox="0 0 24 24"><path fill="currentColor" d="M22 12v-1h-2V9h-1V8h-1V7h-3v1h-1V6h-1V5H8v1H7v1H6v1H5v3H2v1H1v5h1v1h1v1h2v1h14v-1h2v-1h1v-1h1v-5zM9 17v-1H8v-1H7v-1H6v-1h3V9h3v4h3v1h-1v1h-1v1h-1v1h-1v1h-1v-1z"/></symbol><symbol id="hd-icon-pixel-cloud-upload" viewBox="0 0 24 24"><path fill="currentColor" d="M14 12v2h-1v-1h-1v-1h-1v6h-1v-6H9v1H8v1H7v-2h1v-1h1v-1h1V9h1v1h1v1h1v1z"/><path fill="currentColor" d="M22 12v-1h-2V9h-1V8h-1V7h-3v1h-1V6h-1V5H8v1H7v1H6v1H5v3H2v1H1v5h1v1h1v1h2v1h14v-1h2v-1h1v-1h1v-5zm0 4h-1v1h-1v1h-2v1H6v-1H4v-1H3v-1H2v-3h1v-1h3V9h1V8h1V7h1V6h3v1h1v2h3V8h1v1h1v1h1v2h2v1h1z"/></symbol><symbol id="hd-icon-pixel-cloud-upload-solid" viewBox="0 0 24 24"><path fill="currentColor" d="M22 12v-1h-2V9h-1V8h-1V7h-3v1h-1V6h-1V5H8v1H7v1H6v1H5v3H2v1H1v5h1v1h1v1h2v1h14v-1h2v-1h1v-1h1v-5zM9 14H6v-1h1v-1h1v-1h1v-1h1V9h1v1h1v1h1v1h1v1h1v1h-3v4H9z"/></symbol><symbol id="hd-icon-pixel-code" viewBox="0 0 24 24"><path fill="currentColor" d="M7 7v1H6v1H5v1H4v1H3v2h1v1h1v1h1v1h1v1H5v-1H4v-1H3v-1H2v-1H1v-2h1v-1h1V9h1V8h1V7zm8-4h1v3h-1v3h-1v3h-1v2h-1v3h-1v3h-1v1H9v-3h1v-3h1v-3h1v-2h1V7h1V4h1zm8 8v2h-1v1h-1v1h-1v1h-1v1h-2v-1h1v-1h1v-1h1v-1h1v-2h-1v-1h-1V9h-1V8h-1V7h2v1h1v1h1v1h1v1z"/></symbol><symbol id="hd-icon-pixel-code-block" viewBox="0 0 24 24"><path fill="currentColor" d="M14 10h-1V8h1V7h1V6h1V5h-1V4h-1V3h-1V1h1v1h1v1h1v1h1v1h1v1h-1v1h-1v1h-1v1h-1zM2 6H1V5h1V4h1V3h1V2h1V1h1v2H5v1H4v1H3v1h1v1h1v1h1v2H5V9H4V8H3V7H2zm6 4H7V8h1V6h1V4h1V2h1V1h1v2h-1v2h-1v2H9v2H8z"/><path fill="currentColor" d="M23 5v17h-1v1H2v-1H1V9h1v1h1v11h18V6h-2V4h3v1z"/></symbol><symbol id="hd-icon-pixel-code-block-solid" viewBox="0 0 24 24"><path fill="currentColor" d="M18 4v3h-1v1h-1v1h-1v1h-2V8h1V7h1V6h1V5h-1V4h-1V3h-1V1h2v1h1v1h1v1zm-6-3v2h-1v2h-1v3H9v2H7V8h1V6h1V3h1V1zM2 7H1V4h1V3h1V2h1V1h2v2H5v1H4v1H3v1h1v1h1v1h1v2H4V9H3V8H2z"/><path fill="currentColor" d="M23 5v17h-1v1H2v-1H1V9h1v1h1v1h1v9h16V7h-1V4h3v1z"/></symbol><symbol id="hd-icon-pixel-code-solid" viewBox="0 0 24 24"><path fill="currentColor" d="M15 4h1v2h-1v3h-1v3h-1v2h-1v3h-1v3h-1v1H9v-1H8v-2h1v-3h1v-3h1v-2h1V7h1V4h1V3h1zm8 7v2h-1v1h-1v1h-1v1h-1v1h-2v-2h1v-1h1v-1h1v-2h-1v-1h-1V9h-1V7h2v1h1v1h1v1h1v1zM7 7v2H6v1H5v1H4v2h1v1h1v1h1v2H5v-1H4v-1H3v-1H2v-1H1v-2h1v-1h1V9h1V8h1V7z"/></symbol><symbol id="hd-icon-pixel-cog" viewBox="0 0 24 24"><path fill="currentColor" d="M21 10V9h-1V7h1V5h-1V4h-1V3h-2v1h-2V3h-1V1h-4v2H9v1H7V3H5v1H4v1H3v2h1v2H3v1H1v4h2v1h1v2H3v2h1v1h1v1h2v-1h2v1h1v2h4v-2h1v-1h2v1h2v-1h1v-1h1v-2h-1v-2h1v-1h2v-4zm0 3h-1v1h-1v1h-1v2h1v2h-2v-1h-2v1h-1v1h-1v1h-2v-1h-1v-1H9v-1H7v1H5v-2h1v-2H5v-1H4v-1H3v-2h1v-1h1V9h1V7H5V5h2v1h2V5h1V4h1V3h2v1h1v1h1v1h2V5h2v2h-1v2h1v1h1v1h1z"/><path fill="currentColor" d="M16 10V9h-1V8h-1V7h-4v1H9v1H8v1H7v4h1v1h1v1h1v1h4v-1h1v-1h1v-1h1v-4zm-1 4h-1v1h-4v-1H9v-4h1V9h4v1h1z"/></symbol><symbol id="hd-icon-pixel-cog-solid" viewBox="0 0 24 24"><path fill="currentColor" d="M21 10V9h-1V7h1V5h-1V4h-1V3h-2v1h-2V3h-1V1h-4v2H9v1H7V3H5v1H4v1H3v2h1v2H3v1H1v4h2v1h1v2H3v2h1v1h1v1h2v-1h2v1h1v2h4v-2h1v-1h2v1h2v-1h1v-1h1v-2h-1v-2h1v-1h2v-4zm-11 0V9h4v1h1v4h-1v1h-4v-1H9v-4z"/></symbol><symbol id="hd-icon-pixel-comment" viewBox="0 0 24 24"><path fill="currentColor" d="M22 8V6h-1V5h-1V4h-2V3h-3V2H9v1H6v1H4v1H3v1H2v2H1v6h1v2h1v2H2v1H1v2h5v-1h1v-1h2v1h6v-1h3v-1h2v-1h1v-1h1v-2h1V8zm-2 6v2h-2v1h-3v1H9v-1H7v1H6v1H4v-1h1v-2H4v-2H3V8h1V6h2V5h3V4h6v1h3v1h2v2h1v6z"/></symbol><symbol id="hd-icon-pixel-comment-dots" viewBox="0 0 24 24"><path fill="currentColor" d="M19 10v2h-1v1h-2v-1h-1v-2h1V9h2v1zm-5 0v2h-1v1h-2v-1h-1v-2h1V9h2v1zm-5 0v2H8v1H6v-1H5v-2h1V9h2v1z"/><path fill="currentColor" d="M22 8V6h-1V5h-1V4h-2V3h-3V2H9v1H6v1H4v1H3v1H2v2H1v6h1v2h1v2H2v1H1v2h5v-1h1v-1h2v1h6v-1h3v-1h2v-1h1v-1h1v-2h1V8zm-1 6h-1v2h-2v1h-3v1H9v-1H7v1H6v1H4v-1h1v-2H4v-2H3V8h1V6h2V5h3V4h6v1h3v1h2v2h1z"/></symbol><symbol id="hd-icon-pixel-comment-dots-solid" viewBox="0 0 24 24"><path fill="currentColor" d="M22 8V6h-1V5h-1V4h-2V3h-3V2H9v1H6v1H4v1H3v1H2v2H1v6h1v2h1v2H2v1H1v2h5v-1h1v-1h2v1h6v-1h3v-1h2v-1h1v-1h1v-2h1V8zm-6 5v-1h-1v-2h1V9h2v1h1v2h-1v1zm-6-1v-2h1V9h2v1h1v2h-1v1h-2v-1zM8 9v1h1v2H8v1H6v-1H5v-2h1V9z"/></symbol><symbol id="hd-icon-pixel-comment-quote" viewBox="0 0 24 24"><path fill="currentColor" d="M17 7v8h-1v1h-3v-1h1v-1h1v-2h-2V7zm-6 0v8h-1v1H7v-1h1v-1h1v-2H7V7z"/><path fill="currentColor" d="M22 8V6h-1V5h-1V4h-2V3h-3V2H9v1H6v1H4v1H3v1H2v2H1v6h1v2h1v2H2v1H1v2h5v-1h1v-1h2v1h6v-1h3v-1h2v-1h1v-1h1v-2h1V8zm-2 6v2h-2v1h-3v1H9v-1H7v1H6v1H4v-1h1v-2H4v-2H3V8h1V6h2V5h3V4h6v1h3v1h2v2h1v6z"/></symbol><symbol id="hd-icon-pixel-comment-quote-solid" viewBox="0 0 24 24"><path fill="currentColor" d="M22 8V6h-1V5h-1V4h-2V3h-3V2H9v1H6v1H4v1H3v1H2v2H1v6h1v2h1v2H2v1H1v2h5v-1h1v-1h2v1h6v-1h3v-1h2v-1h1v-1h1v-2h1V8zM7 15h1v-1h1v-2H7V7h4v8h-1v1H7zm6 0h1v-1h1v-2h-2V7h4v8h-1v1h-3z"/></symbol><symbol id="hd-icon-pixel-comment-solid" viewBox="0 0 24 24"><path fill="currentColor" d="M23 8v6h-1v2h-1v1h-1v1h-2v1h-3v1H9v-1H7v1H6v1H1v-2h1v-1h1v-2H2v-2H1V8h1V6h1V5h1V4h2V3h3V2h6v1h3v1h2v1h1v1h1v2z"/></symbol><symbol id="hd-icon-pixel-comments" viewBox="0 0 24 24"><path fill="currentColor" d="M23 16v-5h-1V9h-2V8h-2V7h-3V5h-2V4h-2V3H6v1H4v1H2v2H1v5h1v2H1v4h3v-1h1v-1h4v2h2v1h2v1h6v1h1v1h3v-4h-1v-2zM5 14v1H4v1H3v-2h1v-2H3V7h1V6h2V5h5v1h2v1h1v5h-1v1h-2v1zm16 2h-1v2h1v2h-1v-1h-1v-1h-6v-1h-2v-2h2v-1h2v-2h1V9h2v1h2v1h1z"/></symbol><symbol id="hd-icon-pixel-comments-solid" viewBox="0 0 24 24"><path fill="currentColor" d="M5 16v1H4v1H1v-4h1v-2H1V7h1V5h2V4h2V3h5v1h2v1h2v2h1v5h-1v2h-2v1h-2v1z"/><path fill="currentColor" d="M23 11v5h-1v2h1v4h-3v-1h-1v-1h-6v-1h-2v-1H9v-1h3v-1h2v-1h2v-2h1V7h1v1h2v1h2v2z"/></symbol><symbol id="hd-icon-pixel-copy" viewBox="0 0 24 24"><path fill="currentColor" d="M16 20v2h-1v1H3v-1H2V6h1V5h3v15z"/><path fill="currentColor" d="M16 7V1H8v1H7v16h1v1h13v-1h1V7zm4 10H9V3h5v6h6z"/><path fill="currentColor" d="M22 5v1h-5V1h1v1h1v1h1v1h1v1z"/></symbol><symbol id="hd-icon-pixel-copy-solid" viewBox="0 0 24 24"><path fill="currentColor" d="M16 20v2h-1v1H3v-1H2V6h1V5h3v15z"/><path fill="currentColor" d="M22 7v11h-1v1H8v-1H7V2h1V1h8v6z"/><path fill="currentColor" d="M22 5v1h-5V1h1v1h1v1h1v1h1v1z"/></symbol><symbol id="hd-icon-pixel-credit-card" viewBox="0 0 24 24"><path fill="currentColor" d="M22 5V4H2v1H1v14h1v1h20v-1h1V5zm-1 13H3v-7h18zm0-10H3V6h18z"/><path fill="currentColor" d="M4 15h4v1H4zm6 0h6v1h-6z"/></symbol><symbol id="hd-icon-pixel-credit-card-solid" viewBox="0 0 24 24"><path fill="currentColor" d="M1 11v8h1v1h20v-1h1v-8zm3 4h4v1H4zm6 0h6v1h-6zM23 5v3H1V5h1V4h20v1z"/></symbol><symbol id="hd-icon-pixel-crown" viewBox="0 0 24 24"><path fill="currentColor" d="M22 7V6h-2v1h-1v2h1v1h-1v1h-1v1h-2v-1h-1V9h-1V7h-1V6h1V4h-1V3h-2v1h-1v2h1v1h-1v2H9v2H8v1H6v-1H5v-1H4V9h1V7H4V6H2v1H1v2h1v1h1v4h1v3h1v2h1v2h12v-2h1v-2h1v-3h1v-4h1V9h1V7zm-4 7v3h-1v2H7v-2H6v-3H5v-1h1v1h2v-1h1v-1h1v-1h1V9h2v2h1v1h1v1h1v1zv-1h1v1z"/></symbol><symbol id="hd-icon-pixel-crown-solid" viewBox="0 0 24 24"><path fill="currentColor" d="M23 7v2h-1v1h-1v4h-1v3h-1v2h-1v2H6v-2H5v-2H4v-3H3v-4H2V9H1V7h1V6h2v1h1v2H4v1h1v1h1v1h2v-1h1V9h1V7h1V6h-1V4h1V3h2v1h1v2h-1v1h1v2h1v2h1v1h2v-1h1v-1h1V9h-1V7h1V6h2v1z"/></symbol><symbol id="hd-icon-pixel-crunchbase" viewBox="0 0 24 24"><path fill="currentColor" d="M22 2V1H2v1H1v20h1v1h20v-1h1V2zM5 10h5v1h1v2H9v-1H6v3h3v-1h2v2h-1v1H5v-1H4v-5h1zm14 7h-4v-1h-1v1h-1V7h2v3h4v1h1v5h-1z"/><path fill="currentColor" d="M15 12h3v3h-3z"/></symbol><symbol id="hd-icon-pixel-cybersecurity" viewBox="0 0 24 24"><path fill="currentColor" d="M22 2h-1v1h1zm-1 1h-1v1h1zm-1 1h-4v1h4zm-4-1h-2v1h2zm-2-1h-1v1h1zm-1-1h-2v1h2zm-2 1h-1v1h1zm-1 1H8v1h2zM8 4H4v1h4zM4 3H3v1h1zM3 2H2v1h1zm0 12H2v2h1zm1 2H3v2h1zm1 2H4v1h1zm2 1H5v1h2zm2 1H7v1h2zm2 1H9v1h2zm2 1h-2v1h2zm2-1h-2v1h2zm2-1h-2v1h2zm2-1h-2v1h2zm1-1h-1v1h1zm1-2h-1v2h1zm1-2h-1v2h1zm1-11h-1v11h1zM2 3H1v11h1z"/><path fill="currentColor" d="M20 5v1h-4V5h-2V4h-1V3h-2v1h-1v1H8v1H4V5H3v9h1v2h1v2h2v1h2v1h2v1h2v-1h2v-1h2v-1h2v-2h1v-2h1V5zM10 17v-2h1v-3h-1V9h1V8h2v1h1v3h-1v3h1v2z"/></symbol><symbol id="hd-icon-pixel-data-science" viewBox="0 0 24 24"><path fill="currentColor" d="M23.505 22.505v1h-3v-1h1v-1h1v1zm-4.001 0v1h-3v-1h1v-1h1v1zm-4.001 0v1h-2v-2h1v1zm-4.001-1.001v2h-2v-1h1v-1zm-3 1.001v1H5.5v-1h1v-1h1v1zm-4.002 0v1h-3v-1h1v-1h1v1zm18.005-5.002v3.001h-1v-2h-3.001v2h-1v-2h-3.001v2h-1v-2h-2v2h-1v-2H7.5v2h-1v-2h-3v2h-1v-3zm-3.001-6.001v1h-1v1H6.5v-1h-1v-1h-1v3.001h1v1h1v1h12.003v-1h1v-1h1v-3zM9.502 15.503v-1h6.001v1z"/><path fill="currentColor" d="M19.504 7.501v1h-1v1H6.5v-1h-1v-1h-1v3.001h1v1h1v1h12.003v-1h1v-1h1v-3zM9.502 11.502v-1h6.001v1z"/><path fill="currentColor" d="M19.504 3.5v-1h-1v-1H6.5v1h-1v1h-1v3.001h1v1h1v1h12.003v-1h1v-1h1v-3zm-12.003 0v1h10.003v-1h1v1h-1v1H7.5v-1h-1v-1zm2 4.001v-1h6.002v1z"/></symbol><symbol id="hd-icon-pixel-digg" viewBox="0 0 24 24"><path fill="currentColor" d="M8 5h2v2H8zM5 5v3H2v8h5V5zm0 9H4v-4h1zm3-6h2v8H8zm3 0v8h3v1h-3v2h5V8zm2 2h1v4h-1zm4-2v8h3v1h-3v2h5V8zm2 2h1v4h-1z"/></symbol><symbol id="hd-icon-pixel-discord" viewBox="0 0 24 24"><path fill="currentColor" d="M22 11V8h-1V6h-1V5h-2V4h-3v1H9V4H6v1H4v1H3v2H2v3H1v7h2v1h2v1h2v-2H6v-1h2v1h1v1h6v-1h1v-1h2v1h-1v2h2v-1h2v-1h2v-7ZM9 15H7v-1H6v-2h1v-1h2v1h1v2H9Zm9-1h-1v1h-2v-1h-1v-2h1v-1h2v1h1Z"/></symbol><symbol id="hd-icon-pixel-discourse" viewBox="0 0 24 24"><path fill="currentColor" d="M22 9V7h-1V5h-1V4h-1V3h-2V2h-2V1H9v1H7v1H5v1H4v1H3v2H2v2H1v14h14v-1h2v-1h2v-1h1v-1h1v-2h1v-2h1V9zm-5-1v1h1v6h-1v1h-1v1h-1v1h-5v-1H9v1H7v1H5v-1h1v-2h1v-1H6V9h1V8h1V7h1V6h6v1h1v1z"/></symbol><symbol id="hd-icon-pixel-divider" viewBox="0 0 24 24"><path fill="currentColor" d="M3 6h18v1H3zm-2 5h22v2H1zm2 6h18v1H3z"/></symbol><symbol id="hd-icon-pixel-divider-solid" viewBox="0 0 24 24"><path fill="currentColor" d="M4 7H3V6h1V5h16v1h1v1h-1v1H4zm16 10h1v1h-1v1H4v-1H3v-1h1v-1h16zM1 11h22v2H1z"/><path fill="none" d="M0 0h24v24H0z"/></symbol><symbol id="hd-icon-pixel-download" viewBox="0 0 24 24"><path fill="currentColor" d="M5 10H4V8h2v1h1v1h1v1h1v1h1v1h1V1h2v12h1v-1h1v-1h1v-1h1V9h1V8h2v2h-1v1h-1v1h-1v1h-1v1h-1v1h-1v1h-1v1h-2v-1h-1v-1H9v-1H8v-1H7v-1H6v-1H5zM2 21h20v2H2z"/></symbol><symbol id="hd-icon-pixel-download-alt" viewBox="0 0 24 24"><path fill="currentColor" d="M22 16v-1h-6v-1h1v-1h1v-1h1v-1h-4V2h-1V1h-4v1H9v9H5v1h1v1h1v1h1v1H2v1H1v6h1v1h20v-1h1v-6zm-1 5H3v-4h7v1h1v1h2v-1h1v-1h7zM9 12h2V3h2v9h2v1h-1v1h-1v1h-2v-1h-1v-1H9z"/><path fill="currentColor" d="M19 19h1v1h-1zm-2 0h1v1h-1z"/></symbol><symbol id="hd-icon-pixel-download-alt-solid" viewBox="0 0 24 24"><path fill="currentColor" d="M6 12H5v-1h4V2h1V1h4v1h1v9h4v1h-1v1h-1v1h-1v1h-1v1h-1v1h-1v1h-2v-1h-1v-1H9v-1H8v-1H7v-1H6z"/><path fill="currentColor" d="M22 16v-1h-5v1h-1v1h-1v1h-1v1h-4v-1H9v-1H8v-1H7v-1H2v1H1v6h1v1h20v-1h1v-6zm-2 4h-1v-1h1zm-2-1v1h-1v-1z"/></symbol><symbol id="hd-icon-pixel-download-solid" viewBox="0 0 24 24"><path fill="currentColor" d="M2 20h20v3H2zM20 8v2h-1v1h-1v1h-1v1h-1v1h-1v1h-1v1h-1v1h-2v-1h-1v-1H9v-1H8v-1H7v-1H6v-1H5v-1H4V8h1V7h2v1h1v1h1v1h1V1h4v9h1V9h1V8h1V7h2v1z"/></symbol><symbol id="hd-icon-pixel-edit" viewBox="0 0 24 24"><path fill="currentColor" d="M22 4v3h-1v1h-1V7h-1V6h2V5h-1V4h-1v2h-1V5h-1V4h1V3h3v1zm-4 10v7h-1v1H2v-1H1V6h1V5h12v1h-1v1H3v13h13v-5h1v-1z"/><path fill="currentColor" d="M18 8V7h-1V6h-2v1h-1v1h-1v1h-1v1h-1v1h-1v1H9v1H8v1H7v4h4v-1h1v-1h1v-1h1v-1h1v-1h1v-1h1v-1h1v-1h1V8zm-1 2h-1v1h-1v1h-1v1h-1v1h-1v1h-1v1h-1v1H8v-2h1v-1h1v-1h1v-1h1v-1h1v-1h1V9h1V8h2z"/></symbol><symbol id="hd-icon-pixel-edit-solid" viewBox="0 0 24 24"><path fill="currentColor" d="M22 4v3h-1v1h-1V7h-1V6h-1V5h-1V4h1V3h3v1zm-5 10h1v7h-1v1H2v-1H1V6h1V5h12v1h-1v1H3v13h13v-5h1z"/><path fill="currentColor" d="M18 8h1v2h-1v1h-1v1h-1v1h-1v1h-1v1h-1v1h-1v1h-1v1H7v-4h1v-1h1v-1h1v-1h1v-1h1V9h1V8h1V7h1V6h2v1h1z"/></symbol><symbol id="hd-icon-pixel-ellipses-horizontal" viewBox="0 0 24 24"><path fill="currentColor" d="M6 10H5V9H3v1H2v1H1v2h1v1h1v1h2v-1h1v-1h1v-2H6zm-1 3H3v-2h2zm9-3h-1V9h-2v1h-1v1H9v2h1v1h1v1h2v-1h1v-1h1v-2h-1zm-1 3h-2v-2h2zm9-2v-1h-1V9h-2v1h-1v1h-1v2h1v1h1v1h2v-1h1v-1h1v-2zm-3 2v-2h2v2z"/></symbol><symbol id="hd-icon-pixel-ellipses-horizontal-circle" viewBox="0 0 24 24"><path fill="currentColor" d="M14 11v2h-1v1h-2v-1h-1v-2h1v-1h2v1zm5 0v2h-1v1h-2v-1h-1v-2h1v-1h2v1zM9 11v2H8v1H6v-1H5v-2h1v-1h2v1z"/><path fill="currentColor" d="M22 9V7h-1V5h-1V4h-1V3h-2V2h-2V1H9v1H7v1H5v1H4v1H3v2H2v2H1v6h1v2h1v2h1v1h1v1h2v1h2v1h6v-1h2v-1h2v-1h1v-1h1v-2h1v-2h1V9zm-2 6v2h-1v2h-2v1h-2v1H9v-1H7v-1H5v-2H4v-2H3V9h1V7h1V5h2V4h2V3h6v1h2v1h2v2h1v2h1v6z"/></symbol><symbol id="hd-icon-pixel-ellipses-horizontal-circle-solid" viewBox="0 0 24 24"><path fill="currentColor" d="M22 9V7h-1V5h-1V4h-1V3h-2V2h-2V1H9v1H7v1H5v1H4v1H3v2H2v2H1v6h1v2h1v2h1v1h1v1h2v1h2v1h6v-1h2v-1h2v-1h1v-1h1v-2h1v-2h1V9zm-9 1v1h1v2h-1v1h-2v-1h-1v-2h1v-1zm-8 1h1v-1h2v1h1v2H8v1H6v-1H5zm14 2h-1v1h-2v-1h-1v-2h1v-1h2v1h1z"/></symbol><symbol id="hd-icon-pixel-ellipses-horizontal-solid" viewBox="0 0 24 24"><path fill="currentColor" d="M14 11h1v2h-1v1h-1v1h-2v-1h-1v-1H9v-2h1v-1h1V9h2v1h1zm-8 0h1v2H6v1H5v1H3v-1H2v-1H1v-2h1v-1h1V9h2v1h1zm17 0v2h-1v1h-1v1h-2v-1h-1v-1h-1v-2h1v-1h1V9h2v1h1v1z"/></symbol><symbol id="hd-icon-pixel-ellipses-vertical" viewBox="0 0 24 24"><path fill="currentColor" d="M14 18h-1v-1h-2v1h-1v1H9v2h1v1h1v1h2v-1h1v-1h1v-2h-1zm-1 3h-2v-2h2zm1-11h-1V9h-2v1h-1v1H9v2h1v1h1v1h2v-1h1v-1h1v-2h-1zm-1 3h-2v-2h2zm1-10V2h-1V1h-2v1h-1v1H9v2h1v1h1v1h2V6h1V5h1V3zm-3 2V3h2v2z"/></symbol><symbol id="hd-icon-pixel-ellipses-vertical-circle" viewBox="0 0 24 24"><path fill="currentColor" d="M11 10h2v1h1v2h-1v1h-2v-1h-1v-2h1zm0-5h2v1h1v2h-1v1h-2V8h-1V6h1zm0 10h2v1h1v2h-1v1h-2v-1h-1v-2h1z"/><path fill="currentColor" d="M9 2H7v1H5v1H4v1H3v2H2v2H1v6h1v2h1v2h1v1h1v1h2v1h2v1h6v-1h2v-1h2v-1h1v-1h1v-2h1v-2h1V9h-1V7h-1V5h-1V4h-1V3h-2V2h-2V1H9zm6 2h2v1h2v2h1v2h1v6h-1v2h-1v2h-2v1h-2v1H9v-1H7v-1H5v-2H4v-2H3V9h1V7h1V5h2V4h2V3h6z"/></symbol><symbol id="hd-icon-pixel-ellipses-vertical-circle-solid" viewBox="0 0 24 24"><path fill="currentColor" d="M9 2H7v1H5v1H4v1H3v2H2v2H1v6h1v2h1v2h1v1h1v1h2v1h2v1h6v-1h2v-1h2v-1h1v-1h1v-2h1v-2h1V9h-1V7h-1V5h-1V4h-1V3h-2V2h-2V1H9zm1 9h1v-1h2v1h1v2h-1v1h-2v-1h-1zm1 8v-1h-1v-2h1v-1h2v1h1v2h-1v1zm2-14v1h1v2h-1v1h-2V8h-1V6h1V5z"/></symbol><symbol id="hd-icon-pixel-ellipses-vertical-solid" viewBox="0 0 24 24"><path fill="currentColor" d="M15 3v2h-1v1h-1v1h-2V6h-1V5H9V3h1V2h1V1h2v1h1v1zm-1 8h1v2h-1v1h-1v1h-2v-1h-1v-1H9v-2h1v-1h1V9h2v1h1zm0 8h1v2h-1v1h-1v1h-2v-1h-1v-1H9v-2h1v-1h1v-1h2v1h1z"/></symbol><symbol id="hd-icon-pixel-envelope" viewBox="0 0 24 24"><path fill="currentColor" d="M21 5V4H3v1H1v14h1v1h20v-1h1V5zm-11 7v-1H9v-1H8V9H7V8H6V7H5V6h14v1h-1v1h-1v1h-1v1h-1v1h-1v1h-1v1h-2v-1zM4 7v1h1v1h1v1h1v1h1v1h1v1h1v1h1v1h2v-1h1v-1h1v-1h1v-1h1v-1h1V9h1V8h1V7h1v11H3V7z"/></symbol><symbol id="hd-icon-pixel-envelope-solid" viewBox="0 0 24 24"><path fill="currentColor" d="M21 4v1h-1v1h-1v1h-1v1h-1v1h-1v1h-1v1h-1v1h-1v1h-2v-1h-1v-1H9v-1H8V9H7V8H6V7H5V6H4V5H3V4z"/><path fill="currentColor" d="M23 5v14h-1v1H2v-1H1V5h2v1h1v1h1v1h1v1h1v1h1v1h1v1h1v1h1v1h2v-1h1v-1h1v-1h1v-1h1V9h1V8h1V7h1V6h1V5z"/></symbol><symbol id="hd-icon-pixel-exclaimation" viewBox="0 0 24 24"><path fill="currentColor" d="M11 9h-1V1h4v8h-1v6h-2zm4 10v1h-1v1h-1v1h-2v-1h-1v-1H9v-1h1v-1h1v-1h2v1h1v1z"/></symbol><symbol id="hd-icon-pixel-exclaimation-solid" viewBox="0 0 24 24"><path fill="currentColor" d="M16 18v3h-1v1h-1v1h-4v-1H9v-1H8v-3h1v-1h1v-1h4v1h1v1zM10 8H9V1h6v7h-1v6h-4z"/></symbol><symbol id="hd-icon-pixel-exclamation-triangle" viewBox="0 0 24 24"><path fill="currentColor" d="M14 11v3h-1v3h-2v-3h-1v-3zm-3 7h2v2h-2z"/><path fill="currentColor" d="M22 20v-2h-1v-2h-1v-2h-1v-2h-1v-2h-1V8h-1V6h-1V4h-1V2h-1V1h-2v1h-1v2H9v2H8v2H7v2H6v2H5v2H4v2H3v2H2v2H1v2h1v1h20v-1h1v-2zM3 21v-1h1v-2h1v-2h1v-2h1v-2h1v-2h1V8h1V6h1V4h2v2h1v2h1v2h1v2h1v2h1v2h1v2h1v2h1v1z"/></symbol><symbol id="hd-icon-pixel-exclamation-triangle-solid" viewBox="0 0 24 24"><path fill="currentColor" d="M22 20v-2h-1v-2h-1v-2h-1v-2h-1v-2h-1V8h-1V6h-1V4h-1V2h-1V1h-2v1h-1v2H9v2H8v2H7v2H6v2H5v2H4v2H3v2H2v2H1v2h1v1h20v-1h1v-2zm-12-9h4v3h-1v3h-2v-3h-1zm1 7h2v2h-2z"/></symbol><symbol id="hd-icon-pixel-expand" viewBox="0 0 24 24"><path fill="currentColor" d="M9 1v2H3v6H1V2h1V1zm0 20v2H2v-1H1v-7h2v6zm14-6v7h-1v1h-7v-2h6v-6zm0-13v7h-2V3h-6V1h7v1z"/></symbol><symbol id="hd-icon-pixel-expand-solid" viewBox="0 0 24 24"><path fill="currentColor" d="M9 20v3H2v-1H1v-7h3v5zM9 1v3H4v5H1V2h1V1zm14 14v7h-1v1h-7v-3h5v-5zm0-13v7h-3V4h-5V1h7v1z"/></symbol><symbol id="hd-icon-pixel-external-link" viewBox="0 0 24 24"><path fill="currentColor" d="M20 15v7h-1v1H2v-1H1V5h1V4h9v2H3v15h15v-6z"/><path fill="currentColor" d="M23 1v8h-2V5h-1v1h-1v1h-1v1h-1v1h-1v1h-1v1h-1v1h-1v1h-1v1h-1v1h-1v1H9v1H7v-2h1v-1h1v-1h1v-1h1v-1h1v-1h1V9h1V8h1V7h1V6h1V5h1V4h1V3h-4V1z"/></symbol><symbol id="hd-icon-pixel-external-link-solid" viewBox="0 0 24 24"><path fill="currentColor" d="M23 1v8h-2V8h-1V7h-1v1h-1v1h-1v1h-1v1h-1v1h-1v1h-1v1h-1v1h-1v1h-1v1H9v1H8v-1H7v-1H6v-1h1v-1h1v-1h1v-1h1v-1h1v-1h1V9h1V8h1V7h1V6h1V5h1V4h-1V3h-1V1z"/><path fill="currentColor" d="M20 15v7h-1v1H2v-1H1V5h1V4h9v3H4v13h13v-5z"/></symbol><symbol id="hd-icon-pixel-eye" viewBox="0 0 24 24"><path fill="currentColor" d="M16 11h1v2h-1zm0 2v2h-1v1h-2v-1h1v-1h1v-1zm0-4v2h-1v-1h-1V9h-1V8h2v1zm-5 7h2v1h-2zm0-1v1H9v-1H8v-2h1v1h1v1zm2-8v1h-1v3h-1v1H8v1H7v-2h1V9h1V8h2V7z"/><path fill="currentColor" d="M22 11V9h-1V8h-1V7h-1V6h-2V5H7v1H5v1H4v1H3v1H2v2H1v2h1v2h1v1h1v1h1v1h2v1h10v-1h2v-1h1v-1h1v-1h1v-2h1v-2zm-1 3h-1v1h-1v1h-1v1h-2v1H8v-1H7v-1H5v-1H4v-1H3v-4h1V9h1V8h1V7h2V6h8v1h2v1h1v1h1v1h1z"/></symbol><symbol id="hd-icon-pixel-eye-cross" viewBox="0 0 24 24"><path fill="currentColor" d="M15 13h1v2h-1v1h-2v-1h1v-1h1zm1-2h1v2h-1z"/><path fill="currentColor" d="M23 11v2h-1v2h-1v1h-1v1h-1v1h-2v1H9v-1h7v-1h2v-1h1v-1h1v-1h1v-4h-1V9h-1V8h2v1h1v2zM2 13H1v-2h1V9h1V8h1V7h1V6h2V5h8v1H8v1H6v1H5v1H4v1H3v4h1v1h1v1H3v-1H2z"/><path fill="currentColor" d="M13 7v1h-1v1h-1v1h-1v1H9v1H8v1H7v-2h1V9h1V8h2V7zM9 17H8v1H7v1H6v1H5v1H4v1H3v-1H2v-1h1v-1h1v-1h1v-1h1v-1h1v-1h1v-1h1v-1h1v-1h1v-1h1v-1h1V9h1V8h1V7h1V6h1V5h1V4h1V3h1V2h1v1h1v1h-1v1h-1v1h-1v1h-1v1h-1v1h-1v1h-1v1h-1v1h-1v1h-1v1h-1v1h-1v1H9zm2-1h2v1h-2z"/></symbol><symbol id="hd-icon-pixel-eye-cross-solid" viewBox="0 0 24 24"><path fill="currentColor" d="M2 13H1v-2h1V9h1V8h1V7h1V6h2V5h8v1h-1v1h-1V6h-2v1H9v1H8v1H7v2H6v2h1v1H6v1H5v1H3v-1H2z"/><path fill="currentColor" d="M8 11h1v1H8zm3-3h1v1h-1zm-2 9H8v1H7v1H6v1H5v1H4v1H3v-1H2v-1h1v-1h1v-1h1v-1h1v-1h1v-1h1v-1h1v-1h1v-1h1v-1h1v-1h1V9h1V8h1V7h1V6h1V5h1V4h1V3h1V2h1v1h1v1h-1v1h-1v1h-1v1h-1v1h-1v1h-1v1h-1v1h-1v1h-1v1h-1v1h-1v1h-1v1H9zm3-2h1v1h-1zm1-1h1v1h-1zm2-2h1v1h-1zm-1 1h1v1h-1z"/><path fill="currentColor" d="M23 11v2h-1v2h-1v1h-1v1h-1v1h-2v1H9v-1h1v-1h1v1h2v-1h2v-1h1v-1h1v-2h1v-2h-1v-1h1V9h1V8h2v1h1v2z"/></symbol><symbol id="hd-icon-pixel-eye-solid" viewBox="0 0 24 24"><path fill="currentColor" d="M16 11v2h-1v1h-1v1h-1v1h-2v-1h-1v-1H9v-1H8v-2h2v-1h1V8h2v1h1v1h1v1z"/><path fill="currentColor" d="M22 11V9h-1V8h-1V7h-1V6h-2V5H7v1H5v1H4v1H3v1H2v2H1v2h1v2h1v1h1v1h1v1h2v1h10v-1h2v-1h1v-1h1v-1h1v-2h1v-2zm-4 2h-1v2h-1v1h-1v1h-2v1h-2v-1H9v-1H8v-1H7v-2H6v-2h1V9h1V8h1V7h2V6h2v1h2v1h1v1h1v2h1z"/></symbol><symbol id="hd-icon-pixel-face-thinking" viewBox="0 0 24 24"><path fill="currentColor" d="M12 7h1v1h-2V7h-1V6H8v1H6V6h1V5h4v1h1zm1 6v1h-3v-1H8v-1h3v1zM8 8h2v2H8zm6 1h2v2h-2zm5-1v2h-1V9h-1V8h-2V7h3v1zm-5 7v2h-1v1h-2v2h-1v2H9v1H5v-1H4v-6h1v-1h1v3h2v-1h2v-1h2v-1z"/><path fill="currentColor" d="M23 9v6h-1v2h-1v2h-1v1h-1v1h-2v1h-2v1h-4v-2h4v-1h2v-1h1v-1h1v-1h1v-2h1V9h-1V7h-1V6h-1V5h-1V4h-2V3H9v1H7v1H6v1H5v1H4v2H3v5h1v1H3v1H2v-1H1V9h1V7h1V5h1V4h1V3h2V2h2V1h6v1h2v1h2v1h1v1h1v2h1v2z"/></symbol><symbol id="hd-icon-pixel-face-thinking-solid" viewBox="0 0 24 24"><path fill="currentColor" d="M11 20h-1v2H9v1H5v-1H4v-6h1v-1h1v3h2v-1h2v-1h2v-1h2v2h-1v1h-2z"/><path fill="currentColor" d="M22 9V7h-1V5h-1V4h-1V3h-2V2h-2V1H9v1H7v1H5v1H4v1H3v2H2v2H1v6h1v1h1v-1h1v-1h3v2h2v-1h2v-1h-1v-1H8v-1h3v1h2v1h2v4h-1v1h-2v2h-1v2h4v-1h2v-1h2v-1h1v-1h1v-2h1v-2h1V9zm-7-2h3v1h1v2h-1V9h-1V8h-2zm-1 2h2v2h-2zm-4 1H8V8h2zm1-2V7h-1V6H8v1H6V6h1V5h4v1h1v1h1v1z"/></symbol><symbol id="hd-icon-pixel-facebook-round" viewBox="0 0 24 24"><path fill="currentColor" d="M23 9v6h-1v2h-1v2h-1v1h-1v1h-2v1h-2v1h-1v-8h2v-1h1v-2h-3V9h1V8h2V5h-4v1h-2v2h-1v4H7v3h3v8H9v-1H7v-1H5v-1H4v-1H3v-2H2v-2H1V9h1V7h1V5h1V4h1V3h2V2h2V1h6v1h2v1h2v1h1v1h1v2h1v2z"/></symbol><symbol id="hd-icon-pixel-facebook-square" viewBox="0 0 24 24"><path fill="currentColor" d="M23 2v20h-1v1h-8v-8h2v-1h1v-2h-3V9h1V8h2V5h-4v1h-2v2h-1v4H7v3h3v8H2v-1H1V2h1V1h20v1z"/></symbol><symbol id="hd-icon-pixel-figma" viewBox="0 0 24 24"><path fill="currentColor" d="M18 3.5v-1h-1v-1H7v1H6v1H5v3h1v1h1v2H6v1H5v3h1v1h1v2H6v1H5v3h1v1h1v1h5v-1h1v-6h4v-1h1v-1h1v-3h-1v-1h-1v-2h1v-1h1v-3zm-7 18H8v-1H7v-3h1v-1h3zm0-7H8v-1H7v-3h1v-1h3zm0-7H8v-1H7v-3h1v-1h3zm6 3v3h-1v1h-2v-1h-1v-3h1v-1h2v1zm-1-4v1h-3v-5h3v1h1v3z"/></symbol><symbol id="hd-icon-pixel-file-import" viewBox="0 0 24 24"><path fill="currentColor" d="M1 15v-2h11V8h1v1h1v1h1v1h1v1h1v1h1v2h-1v1h-1v1h-1v1h-1v1h-1v1h-1v-5z"/><path fill="currentColor" d="M23 6v16h-1v1H7v-1H6v-6h2v5h13V8h-5V3H8v9H6V2h1V1h11v1h1v1h1v1h1v1h1v1z"/></symbol><symbol id="hd-icon-pixel-file-import-solid" viewBox="0 0 24 24"><path fill="currentColor" d="M1 13h5v3H1zm22-5v14h-1v1H7v-1H6v-6h6v4h1v-1h1v-1h1v-1h1v-1h1v-1h1v-1h-1v-1h-1v-1h-1v-1h-1v-1h-1V9h-1v4H6V2h1V1h9v7z"/><path fill="currentColor" d="M23 6v1h-6V1h1v1h1v1h1v1h1v1h1v1z"/></symbol><symbol id="hd-icon-pixel-filter" viewBox="0 0 24 24"><path fill="currentColor" d="M1 2v4h1v1h1v1h1v1h1v1h1v1h1v1h1v2h1v3h1v1h1v1h1v1h1v1h1v1h1v-8h1v-2h1v-1h1v-1h1V9h1V8h1V7h1V6h1V2zm20 3h-1v1h-1v1h-1v1h-1v1h-1v1h-1v1h-1v3h-1v3h-1v-1h-1v-2h-1v-3H9v-1H8V9H7V8H6V7H5V6H4V5H3V4h18z"/></symbol><symbol id="hd-icon-pixel-filter-alt-circle" viewBox="0 0 24 24"><path fill="currentColor" d="M22 9V7h-1V5h-1V4h-1V3h-2V2h-2V1H9v1H7v1H5v1H4v1H3v2H2v2H1v6h1v2h1v2h1v1h1v1h2v1h2v1h6v-1h2v-1h2v-1h1v-1h1v-2h1v-2h1V9zm-1 6h-1v2h-1v2h-2v1h-2v1H9v-1H7v-1H5v-2H4v-2H3V9h1V7h1V5h2V4h2V3h6v1h2v1h2v2h1v2h1z"/><path fill="currentColor" d="M10 15h4v2h-4zm-2-4h8v2H8zM6 7h12v2H6z"/></symbol><symbol id="hd-icon-pixel-filter-alt-circle-solid" viewBox="0 0 24 24"><path fill="currentColor" d="M22 9V7h-1V5h-1V4h-1V3h-2V2h-2V1H9v1H7v1H5v1H4v1H3v2H2v2H1v6h1v2h1v2h1v1h1v1h2v1h2v1h6v-1h2v-1h2v-1h1v-1h1v-2h1v-2h1V9zm-8 8h-4v-2h4zm-6-4v-2h8v2zM6 9V7h12v2z"/></symbol><symbol id="hd-icon-pixel-filter-solid" viewBox="0 0 24 24"><path fill="currentColor" d="M23 2v4h-1v1h-1v1h-1v1h-1v1h-1v1h-1v1h-1v2h-1v8h-1v-1h-1v-1h-1v-1h-1v-1h-1v-1H9v-3H8v-2H7v-1H6v-1H5V9H4V8H3V7H2V6H1V2z"/></symbol><symbol id="hd-icon-pixel-finance" viewBox="0 0 24 24"><path fill="currentColor" d="M9.502 13.503v1h3v3h-2v1.001h-1v-1h-1v-1h3v-1h-3v-3.001h2v-1h1v1h1v1z"/><path fill="currentColor" d="M18.504 12.503v-2h-1V9.501h-1v-1h-1v-1H5.5v1h-1v1h-1v1h-1v2h-1v6.002h1v2h1v1h1v1h1v1.001h10.003v-1h1v-1h1v-1h1v-2.001h1.001v-6.001zm-10.002-2V9.501h4v1h2.001v2h1v5.002h-1v2h-2v1H8.502v-1h-2v-2H5.5v-5.001h1v-2zm9.002-4.002h-1v1h1zm2 1h-2v1h2zm1 1h-1v1h1zm1.001-3v3h-1v-2h-1.001v-1zM19.504 4.5h-3v1h3zm-3.001 1.001h-1v1h1zm-2 0H6.5v1h8.002zM16.504 1.5v1h-1v1h-1.001v1H6.501v-1h-1v-1h-1v-1h2v1h3v-1h2.001v1h3.001v-1z"/></symbol><symbol id="hd-icon-pixel-fire" viewBox="0 0 24 24"><path fill="currentColor" d="M19 13v-3h-1V9h-1V6h-1V4h-1V3h-1V2h-1V1h-2v1h1v2h-1v2h-1v1H9v1H8v1H7v1H6v3h1v2H6v-1H5v-2H4v2H3v3h1v2h1v1h1v1h1v1h1v1h8v-1h1v-1h1v-1h1v-2h1v-5zm-3 7v1h-2v1h-4v-1H9v-3h1v-1h1v-1h1v-1h1v-4h1v2h1v4h-1v2h1v-1h1v-1h1v3zm3-3h-1v-1h-2v-4h-1v-2h-1V9h-3v1h1v4h-1v1h-1v1H9v1H8v3H7v-1H6v-1H5v-2h3v-4H7v-1h1v-1h1V9h1V8h1V7h1V5h1V4h1v1h1v2h1v3h1v1h1v3h1z"/></symbol><symbol id="hd-icon-pixel-fire-solid" viewBox="0 0 24 24"><path fill="currentColor" d="M19 13v-3h-1V9h-1V6h-1V4h-1V3h-1V2h-1V1h-2v1h1v2h-1v2h-1v1H9v1H8v1H7v1H6v3h1v2H6v-1H5v-2H4v2H3v3h1v2h1v1h1v1h1v1h1v1h8v-1h1v-1h1v-1h1v-2h1v-5zm-2 7h-1v1h-2v1h-4v-1H9v-4h1v-1h1v-1h1v-1h1v-3h-1v-1h-1V9h1v1h2v2h1v5h-1v2h1v-1h1v-1h1z"/></symbol><symbol id="hd-icon-pixel-flag" viewBox="0 0 24 24"><path fill="currentColor" d="M21 4v1h-2v1h-6V5H6v1H5V5h1V3H5V2H3v1H2v2h1v17h2v-4h1v-1h7v1h6v-1h2v-1h1V4zm-1 11h-1v1h-6v-1H6v1H5V8h1V7h7v1h6V7h1z"/></symbol><symbol id="hd-icon-pixel-flag-checkered" viewBox="0 0 24 24"><path fill="currentColor" d="M21 4v1h-2v1h-6V5H6v1H5V5h1V3H5V2H3v1H2v2h1v17h2v-4h1v-1h7v1h6v-1h2v-1h1V4zm-9 11H6v1H5v-3h1v-1h6zm0-5H6v1H5V8h1V7h6zm8 5h-1v1h-5v-3h5v-1h1zm0-5h-1v1h-5V8h5V7h1z"/></symbol><symbol id="hd-icon-pixel-flag-checkered-solid" viewBox="0 0 24 24"><path fill="currentColor" d="M22 4v12h-1v1h-2v1h-6v-1H6v-1h6v-4H6v1H5v4h1v1H5v4H3V5H2V3h1V2h2v1h1v2H5v1h1V5h7v1h6v1h-5v4h5v-1h2V6h-2V5h2V4z"/></symbol><symbol id="hd-icon-pixel-flag-solid" viewBox="0 0 24 24"><path fill="currentColor" d="M22 4v12h-1v1h-2v1h-6v-1H6v1H5v4H3V5H2V3h1V2h2v1h1v2H5v1h1V5h7v1h6V5h2V4z"/></symbol><symbol id="hd-icon-pixel-folder" viewBox="0 0 24 24"><path fill="currentColor" d="M22 6V5h-9V4h-1V3h-1V2H2v1H1v18h1v1h20v-1h1V6zm-1 14H3V4h7v1h1v1h1v1h9z"/></symbol><symbol id="hd-icon-pixel-folder-open" viewBox="0 0 24 24"><path fill="currentColor" d="M6 10v2H5v2H4v2H3v2H2v3h1v1h15v-1h1v-3h1v-2h1v-2h1v-2h1v-2zm14 4h-1v2h-1v2h-1v2H4v-2h1v-2h1v-2h1v-2h13z"/><path fill="currentColor" d="M20 5v4h-2V6H9V5H8V4H3v10H2v2H1V3h1V2h7v1h1v1h9v1z"/></symbol><symbol id="hd-icon-pixel-folder-open-solid" viewBox="0 0 24 24"><path fill="currentColor" d="M2 16H1V3h1V2h7v1h1v1h9v1h1v4H5v1H4v2H3v2H2z"/><path fill="currentColor" d="M23 10v2h-1v2h-1v2h-1v2h-1v3h-1v1H3v-1H2v-3h1v-2h1v-2h1v-2h1v-2z"/></symbol><symbol id="hd-icon-pixel-folder-solid" viewBox="0 0 24 24"><path fill="currentColor" d="M23 6v15h-1v1H2v-1H1V3h1V2h9v1h1v1h1v1h9v1z"/></symbol><symbol id="hd-icon-pixel-futurism" viewBox="0 0 24 24"><path fill="currentColor" d="M23.505 17.503v2h-1v1.001h-6.002v1h-1v1h-1v1h-4.001v-1h-1v-1h-1v-1H2.5v-1h-1v-2zm0-2v1h-2v-2h1v1zm-3.001-7.001v8.001h-1v-4h-1v-1h-3v-1.001h3v-1h-3v-2h-1.001v-1h-1V5.5h-1v-2h1v-2h1v1h1v1h1v1h1v3.001h2.001v1zm-14.003 4v4.001H1.5v-1h1v-2h1v-1z"/><path fill="currentColor" d="M18.504 12.503v4H7.5v-4h-1v-1h-2V4.5h1v-3h3v14.003h1V3.5h1.001v1h1v1h1v1.001h1v1h1.001v8.002h1v-3z"/></symbol><symbol id="hd-icon-pixel-gaming" viewBox="0 0 24 24"><path fill="currentColor" d="M15.503 13.502H9.502v2h6.001z"/><path fill="currentColor" d="M22.505 10.501v-2h-1v-2h-1v-1h-1V4.5h-4.002v1H9.502v-1H5.5v1h-1v1h-1v2h-1v2.001h-1v8.002h1v1h3v-1h1.001v-1h1v-1h1v-3.001h1v-1h6.002v1h1v3h1v1.001h1v1h1.001v1h3v-1h1.001v-8.002zm-17.004-2v-1h1v-1h1v1h1v1h1v1h-1v1h-1v1h-1v-1h-1v-1h-1v-1zm8.002 1h-1v1h-1v-1h-1.001v-1h1v-1h1v1h1zm7.001 1h-2v2h-2v-2h-2.001v-2h2v-2h2v2h2.001z"/><path fill="currentColor" d="M18.504 8.501h-2v2h2z"/></symbol><symbol id="hd-icon-pixel-giphy" viewBox="0 0 24 24"><path fill="currentColor" d="M20 9h1v14H3V1h9v1h-1v1H5v18h14V10h1z"/><path fill="currentColor" d="M21 6v2h-8V1h2v2h3v3z"/></symbol><symbol id="hd-icon-pixel-github" viewBox="0 0 24 24"><path fill="currentColor" d="M23 9v6h-1v2h-1v2h-1v1h-1v1h-1v1h-2v1h-1v-5h-1v-1h1v-1h2v-1h1v-1h1V9h-1V6h-2v1h-1v1h-1V7h-4v1H9V7H8V6H6v3H5v5h1v1h1v1h2v2H7v-1H6v-1H4v1h1v2h1v1h3v3H8v-1H6v-1H5v-1H4v-1H3v-2H2v-2H1V9h1V7h1V5h1V4h1V3h2V2h2V1h6v1h2v1h2v1h1v1h1v2h1v2z"/></symbol><symbol id="hd-icon-pixel-globe" viewBox="0 0 24 24"><path fill="currentColor" d="M22 9V7h-1V5h-1V4h-1V3h-2V2h-2V1H9v1H7v1H5v1H4v1H3v2H2v2H1v7h1v1h1v2h1v1h1v1h2v1h2v1h6v-1h2v-1h2v-1h1v-1h1v-2h1v-2h1V9zm-1 1v4h-3v-4zm-5-6h1v1h2v2h1v1h-3V5h-1zm-2 14v2h-1v1h-2v-1h-1v-2H9v-2h6v2zm2-8v4H8v-4zM9 6h1V4h1V3h2v1h1v2h1v2H9zM4 7h1V5h2V4h1v1H7v3H4zm-1 7v-4h3v4zm2 5v-2H4v-1h3v3h1v1H7v-1zm14-2v2h-2v1h-1v-1h1v-3h3v1z"/></symbol><symbol id="hd-icon-pixel-globe-americas" viewBox="0 0 24 24"><path fill="currentColor" d="M22 9V7h-1V5h-1V4h-1V3h-2V2h-2V1H9v1H7v1H5v1H4v1H3v2H2v2H1v6h1v2h1v2h1v1h1v1h2v1h2v1h6v-1h2v-1h2v-1h1v-1h1v-2h1v-2h1V9zM9 21v-1H7v-1H5v-2H4v-2H3v-4h1v1h1v1h1v1h2v3h1v1h1v3zm6-2h-1v2h-2v-3h-1v-1h-1v-3H9v-1H8v-1H7v-1H6v-1H5V9H4V7h1V6h1V5h1V4h3V3h2v1h1v4h-2v3h-1v-1H8v2h3v1h4v1h1v3h-1zm5-2h-1v2h-2v1h-1v-1h1v-2h1v-3h-1v-1h-1v-1h-1v-1h-2V9h1V8h1V4h-1V3h1v1h2v1h2v2h-1v1h-1v1h-1v3h1v1h1v1h1v1h1zm1-4h-2v-1h-1V9h1V8h1v1h1z"/></symbol><symbol id="hd-icon-pixel-globe-americas-solid" viewBox="0 0 24 24"><path fill="currentColor" d="M22 9V7h-1V5h-1V4h-1V3h-2V2h-2V1H9v1H7v1H5v1H4v1H3v2H2v2H1v6h1v2h1v2h1v1h1v1h2v1h2v1h6v-1h2v-1h2v-1h1v-1h1v-2h1v-2h1V9zm-4 3V9h1V8h1v1h1v4h-2v-1zm-4 7v2h-2v-3h-1v-1h-1v-3H9v-1H8v-1H7v-1H6v-1H5V9H4V7h1V6h1V5h1V4h3V3h2v1h1v4h-2v2h1v1h-2v-1H8v2h3v1h4v1h1v3h-1v2z"/></symbol></svg>