<svg xmlns="http://www.w3.org/2000/svg" xmlns:xlink="http://www.w3.org/1999/xlink"><symbol id="hd-icon-icomoon-free-hackernews" viewBox="0 0 16 16"><path fill="currentColor" d="M0 0v16h16V0zm8.5 9.125V12.5h-1V9.125L4.766 4H5.9L8 7.938L10.1 4h1.134z"/></symbol><symbol id="hd-icon-icomoon-free-hammer" viewBox="0 0 16 16"><path fill="currentColor" d="m15.781 12.953l-4.712-4.712a.75.75 0 0 0-1.061 0l-.354.354L6.779 5.72L11.499 1h-5l-2.22 2.22l-.22-.22H2.998v1.061l.22.22l-3.22 3.22l2.5 2.5l3.22-3.22l2.875 2.875l-.354.354a.75.75 0 0 0 0 1.061l4.712 4.712a.75.75 0 0 0 1.061 0l1.768-1.768a.75.75 0 0 0 0-1.061z"/></symbol><symbol id="hd-icon-icomoon-free-hammer2" viewBox="0 0 16 16"><path fill="currentColor" d="M15.784 14.309L7.212 6.505l.399-.4a1.83 1.83 0 0 0 .53-1.181l.046-.023l1.609-1.006a.676.676 0 0 0-.036-.898L6.961.191a.673.673 0 0 0-.896-.036L5.061 1.769l-.022.046c-.43.027-.852.204-1.178.531L2.339 3.873c-.327.327-.503.75-.53 1.181l-.046.023L.154 6.083a.676.676 0 0 0 .036.898l2.799 2.806a.673.673 0 0 0 .896.036l1.004-1.614l.023-.046c.43-.027.852-.204 1.178-.531l.442-.443l7.783 8.596c.226.249.573.289.773.089l.787-.789c.199-.2.159-.549-.089-.775z"/></symbol><symbol id="hd-icon-icomoon-free-hangouts" viewBox="0 0 16 16"><path fill="currentColor" d="M7.997 0a6.91 6.91 0 0 0-6.909 6.909c0 3.616 3.294 6.547 6.909 6.547V16c4.197-2.128 6.916-5.556 6.916-9.091c0-3.816-3.1-6.909-6.916-6.909M7 8c0 .828-.447 1.5-1 1.5V8H4V5h3zm5 0c0 .828-.447 1.5-1 1.5V8H9V5h3z"/></symbol><symbol id="hd-icon-icomoon-free-happy" viewBox="0 0 16 16"><path fill="currentColor" d="M8 16A8 8 0 1 0 8 0a8 8 0 0 0 0 16M8 1.5a6.5 6.5 0 1 1 0 13a6.5 6.5 0 0 1 0-13m0 7.856c1.812 0 3.535-.481 5-1.327C12.772 10.817 10.607 13 8 13s-4.772-2.186-5-4.973a10 10 0 0 0 5 1.329M4 5.5C4 4.672 4.448 4 5 4s1 .672 1 1.5S5.552 7 5 7s-1-.672-1-1.5m6 0c0-.828.448-1.5 1-1.5s1 .672 1 1.5S11.552 7 11 7s-1-.672-1-1.5"/></symbol><symbol id="hd-icon-icomoon-free-happy2" viewBox="0 0 16 16"><path fill="currentColor" d="M8 0a8 8 0 1 0 0 16A8 8 0 0 0 8 0m3 4c.552 0 1 .672 1 1.5S11.552 7 11 7s-1-.672-1-1.5s.448-1.5 1-1.5M5 4c.552 0 1 .672 1 1.5S5.552 7 5 7s-1-.672-1-1.5S4.448 4 5 4m3 10c-2.607 0-4.772-2.186-5-4.973c1.465.846 3.188 1.329 5 1.329s3.535-.481 5-1.327C12.772 11.817 10.607 14 8 14"/></symbol><symbol id="hd-icon-icomoon-free-headphones" viewBox="0 0 16 16"><path fill="currentColor" d="M4.5 9h-1v7h1c.275 0 .5-.225.5-.5v-6c0-.275-.225-.5-.5-.5m7 0c-.275 0-.5.225-.5.5v6c0 .275.225.5.5.5h1V9z"/><path fill="currentColor" d="M16 8A8 8 0 1 0 .479 10.732A3.5 3.5 0 0 0 3 15.964V9.036a3.5 3.5 0 0 0-1.371.506a6.5 6.5 0 1 1 12.743 0A3.5 3.5 0 0 0 13 9.035v6.929a3.5 3.5 0 0 0 2.521-5.232C15.831 9.879 16 8.959 16 8"/></symbol><symbol id="hd-icon-icomoon-free-heart" viewBox="0 0 16 16"><path fill="currentColor" d="M11.8 1c-1.682 0-3.129 1.368-3.799 2.797C7.33 2.368 5.883 1 4.201 1a4.2 4.2 0 0 0-4.2 4.2c0 4.716 4.758 5.953 8 10.616c3.065-4.634 8-6.05 8-10.616c0-2.319-1.882-4.2-4.2-4.2z"/></symbol><symbol id="hd-icon-icomoon-free-heart-broken" viewBox="0 0 16 16"><path fill="currentColor" d="M11.8 1C14.118 1 16 2.882 16 5.2c0 4.566-4.935 5.982-8 10.616c-3.243-4.663-8-5.9-8-10.616C0 2.881 1.882 1 4.2 1c.943 0 1.812.43 2.512 1.06L5.499 4l3.5 2l-2 5l5.5-6l-3.5-2l.967-1.451c.553-.34 1.175-.549 1.833-.549z"/></symbol><symbol id="hd-icon-icomoon-free-hipster" viewBox="0 0 16 16"><path fill="currentColor" d="M8 16A8 8 0 1 0 8 0a8 8 0 0 0 0 16M8 1.5a6.5 6.5 0 1 1 0 13a6.5 6.5 0 0 1 0-13M4 5a1 1 0 1 1 2 0a1 1 0 0 1-2 0m6 0a1 1 0 1 1 2 0a1 1 0 0 1-2 0"/><path fill="currentColor" d="M10.561 8.439a1.5 1.5 0 1 0-2.063 2.176c1.352 1.227 4.503-.029 4.503-1.615c-.969.625-1.726.153-2.439-.561z"/><path fill="currentColor" d="M5.439 8.439a1.5 1.5 0 1 1 2.063 2.176C6.15 11.842 2.999 10.586 2.999 9c.969.625 1.726.153 2.439-.561z"/></symbol><symbol id="hd-icon-icomoon-free-hipster2" viewBox="0 0 16 16"><path fill="currentColor" d="M8 0a8 8 0 1 0 0 16A8 8 0 0 0 8 0m3 4a1 1 0 1 1 0 2a1 1 0 0 1 0-2M5 4a1 1 0 1 1 0 2a1 1 0 0 1 0-2m3.497 6.615A1.5 1.5 0 0 1 8 9.5a1.5 1.5 0 0 1-.497 1.115C6.151 11.842 3 10.586 3 9c.969.625 1.726.153 2.439-.561a1.5 1.5 0 0 1 2.56 1.06a1.5 1.5 0 0 1 2.56-1.06c.713.714 1.471 1.186 2.439.561c0 1.586-3.151 2.842-4.503 1.615z"/></symbol><symbol id="hd-icon-icomoon-free-history" viewBox="0 0 17 16"><path fill="currentColor" d="M10 1a7 7 0 1 1 0 14v-1.5c1.469 0 2.85-.572 3.889-1.611S15.5 9.469 15.5 8s-.572-2.85-1.611-3.889S11.469 2.5 10 2.5s-2.85.572-3.889 1.611A5.46 5.46 0 0 0 4.591 7H7.5L4 11L.5 7h2.571A7 7 0 0 1 10 1m3 6v2H9V4h2v3z"/></symbol><symbol id="hd-icon-icomoon-free-home" viewBox="0 0 16 16"><path fill="currentColor" d="m16 9.226l-8-6.21l-8 6.21V6.694l8-6.21l8 6.21zM14 9v6h-4v-4H6v4H2V9l6-4.5z"/></symbol><symbol id="hd-icon-icomoon-free-home2" viewBox="0 0 16 16"><path fill="currentColor" d="m8 .5l-8 8L1.5 10L3 8.5V15h4v-3h2v3h4V8.5l1.5 1.5L16 8.5zM8 7a1 1 0 1 1 0-2a1 1 0 0 1 0 2"/></symbol><symbol id="hd-icon-icomoon-free-home3" viewBox="0 0 16 16"><path fill="currentColor" d="m16 9.5l-3-3V2h-2v2.5l-3-3l-8 8v.5h2v5h5v-3h2v3h5v-5h2z"/></symbol><symbol id="hd-icon-icomoon-free-hour-glass" viewBox="0 0 16 16"><path fill="currentColor" d="M11.39 8C13.542 6.635 15 4.012 15 1q0-.508-.054-1H1.055a9 9 0 0 0-.054 1c0 3.012 1.457 5.635 3.609 7c-2.152 1.365-3.609 3.988-3.609 7q0 .508.054 1h13.891q.054-.492.054-1c0-3.012-1.457-5.635-3.609-7zM2.5 15c0-2.921 1.253-5.397 3.5-6.214V7.214C3.753 6.397 2.5 3.92 2.5 1h11c0 2.921-1.253 5.397-3.5 6.214v1.572c2.247.817 3.5 3.294 3.5 6.214zm7.182-4.538C8.562 9.827 8.501 9.003 8.5 8.503V7.499c0-.5.059-1.327 1.184-1.963c.602-.349 1.122-.88 1.516-1.537H4.8c.395.657.916 1.188 1.518 1.538c1.12.635 1.181 1.459 1.182 1.959V8.5c0 .5-.059 1.327-1.184 1.963c-1.135.659-1.98 1.964-2.236 3.537h7.839c-.256-1.574-1.102-2.879-2.238-3.538z"/></symbol><symbol id="hd-icon-icomoon-free-html-five" viewBox="0 0 16 16"><path fill="currentColor" d="M.946 0L2.23 14.4L7.992 16l5.777-1.602L15.055 0zM12.26 4.71H5.502l.161 1.809H12.1l-.485 5.422l-3.623 1.004l-3.618-1.004l-.247-2.774H5.9l.126 1.41l1.967.53l.004-.001l1.968-.531l.204-2.29H4.048l-.476-5.341h8.847l-.158 1.766z"/></symbol><symbol id="hd-icon-icomoon-free-html-five2" viewBox="0 0 16 16"><path fill="currentColor" d="M.946 0L2.23 14.4L7.992 16l5.777-1.602L15.055 0zm11.722 13.482l-4.644 1.287v.007l-.012-.004l-.012.004v-.007l-4.644-1.287L2.258 1.178h11.508zm-2.5-5.198l-.204 2.29l-1.972.532l-1.967-.53l-.126-1.41H4.126l.247 2.774l3.626 1.003l3.615-1.003l.485-5.422H5.662l-.161-1.809h6.758l.158-1.766H3.57l.477 5.341z"/></symbol><symbol id="hd-icon-icomoon-free-icomoon" viewBox="0 0 16 16"><path fill="currentColor" d="M4.055 8a1.851 1.851 0 1 1 3.703 0a1.851 1.851 0 0 1-3.703 0M8 0a8 8 0 1 0 0 16A8 8 0 0 0 8 0M5.928 14.989C3.522 13.589 1.905 10.984 1.905 8s1.617-5.589 4.023-6.989C8.334 2.41 9.953 5.016 9.953 8s-1.618 5.589-4.025 6.989"/></symbol><symbol id="hd-icon-icomoon-free-ie" viewBox="0 0 16 16"><path fill="currentColor" d="M11.472 9.825h3.688q.041-.384.04-.784a6.84 6.84 0 0 0-.924-3.442c.607-1.614.586-2.984-.227-3.803c-.773-.77-2.848-.645-5.194.394a6.876 6.876 0 0 0-7.193 5.181c1.01-1.293 2.072-2.231 3.492-2.913c-.129.121-.882.87-1.009.996c-3.743 3.742-4.923 8.63-3.653 9.9c.965.965 2.715.802 4.725-.182a6.84 6.84 0 0 0 3.113.744a6.87 6.87 0 0 0 6.501-4.648h-3.717a3.026 3.026 0 0 1-5.32 0a3.04 3.04 0 0 1-.358-1.432v-.011zm-6.03-1.812c.085-1.517 1.347-2.728 2.887-2.728s2.802 1.21 2.887 2.728zm8.573-5.454c.524.529.511 1.503.063 2.719a6.9 6.9 0 0 0-3.2-2.619c1.408-.604 2.553-.684 3.137-.1M1.461 15.113c-.668-.669-.467-2.072.394-3.763a6.9 6.9 0 0 0 2.927 3.581c-1.491.677-2.712.792-3.321.182"/></symbol><symbol id="hd-icon-icomoon-free-image" viewBox="0 0 16 16"><path fill="currentColor" d="m14.998 2l.002.002v11.996l-.002.002H1.002L1 13.998V2.002L1.002 2zM15 1H1c-.55 0-1 .45-1 1v12c0 .55.45 1 1 1h14c.55 0 1-.45 1-1V2c0-.55-.45-1-1-1"/><path fill="currentColor" d="M13 4.5a1.5 1.5 0 1 1-3.001-.001A1.5 1.5 0 0 1 13 4.5m1 8.5H2v-2l3.5-6l4 5h1L14 7z"/></symbol><symbol id="hd-icon-icomoon-free-images" viewBox="0 0 18 16"><path fill="currentColor" d="M17 2h-1V1c0-.55-.45-1-1-1H1C.45 0 0 .45 0 1v12c0 .55.45 1 1 1h1v1c0 .55.45 1 1 1h14c.55 0 1-.45 1-1V3c0-.55-.45-1-1-1M2 3v10h-.998L1 12.998V1.002L1.002 1h13.996l.002.002V2H3c-.55 0-1 .45-1 1m15 11.998l-.002.002H3.002L3 14.998V3.002L3.002 3h13.996l.002.002z"/><path fill="currentColor" d="M15 5.5a1.5 1.5 0 1 1-3.001-.001A1.5 1.5 0 0 1 15 5.5m1 8.5H4v-2l3.5-6l4 5h1L16 8z"/></symbol><symbol id="hd-icon-icomoon-free-indent-decrease" viewBox="0 0 16 16"><path fill="currentColor" d="M0 1h16v2H0zm6 3h10v2H6zm0 3h10v2H6zm0 3h10v2H6zm-6 3h16v2H0zm4-8v6L0 8z"/></symbol><symbol id="hd-icon-icomoon-free-indent-increase" viewBox="0 0 16 16"><path fill="currentColor" d="M0 1h16v2H0zm6 3h10v2H6zm0 3h10v2H6zm0 3h10v2H6zm-6 3h16v2H0zm0-2V5l4 3z"/></symbol><symbol id="hd-icon-icomoon-free-infinite" viewBox="0 0 16 16"><path fill="currentColor" d="M12.25 11.75a3.73 3.73 0 0 1-2.652-1.098L8 9.054l-1.598 1.598c-.708.708-1.65 1.098-2.652 1.098s-1.944-.39-2.652-1.098S0 9.002 0 8s.39-1.943 1.098-2.652C1.806 4.64 2.748 4.25 3.75 4.25s1.943.39 2.652 1.098L8 6.946l1.598-1.598c.708-.708 1.65-1.098 2.652-1.098s1.944.39 2.652 1.098S16 6.998 16 8s-.39 1.943-1.098 2.652a3.73 3.73 0 0 1-2.652 1.098m-1.598-2.152c.427.427.994.662 1.598.662s1.171-.235 1.598-.662s.662-.994.662-1.598s-.235-1.171-.662-1.598s-.994-.662-1.598-.662s-1.171.235-1.598.662L9.054 8zM3.75 5.74c-.604 0-1.171.235-1.598.662S1.49 7.396 1.49 8s.235 1.171.662 1.598s.994.662 1.598.662s1.171-.235 1.598-.662L6.946 8L5.348 6.402A2.24 2.24 0 0 0 3.75 5.74"/></symbol><symbol id="hd-icon-icomoon-free-info" viewBox="0 0 16 16"><path fill="currentColor" d="M7 4.75c0-.412.338-.75.75-.75h.5c.412 0 .75.338.75.75v.5c0 .412-.338.75-.75.75h-.5A.753.753 0 0 1 7 5.25zM10 12H6v-1h1V8H6V7h3v4h1z"/><path fill="currentColor" d="M8 0a8 8 0 1 0 0 16A8 8 0 0 0 8 0m0 14.5a6.5 6.5 0 1 1 0-13a6.5 6.5 0 0 1 0 13"/></symbol><symbol id="hd-icon-icomoon-free-insert-template" viewBox="0 0 16 16"><path fill="currentColor" d="M6 3h2v1H6zm3 0h2v1H9zm5 0v4h-3V6h2V4h-1V3zM5 6h2v1H5zm3 0h2v1H8zM3 4v2h1v1H2V3h3v1zm3 5h2v1H6zm3 0h2v1H9zm5 0v4h-3v-1h2v-2h-1V9zm-9 3h2v1H5zm3 0h2v1H8zm-5-2v2h1v1H2V9h3v1zm12-9H1v14h14zm1-1v16H0V0z"/></symbol><symbol id="hd-icon-icomoon-free-instagram" viewBox="0 0 16 16"><path fill="currentColor" d="M14.5 0h-13C.675 0 0 .675 0 1.5v13c0 .825.675 1.5 1.5 1.5h13c.825 0 1.5-.675 1.5-1.5v-13c0-.825-.675-1.5-1.5-1.5M11 2.5c0-.275.225-.5.5-.5h2c.275 0 .5.225.5.5v2c0 .275-.225.5-.5.5h-2a.5.5 0 0 1-.5-.5zM8 5a3.001 3.001 0 0 1 0 6a3.001 3.001 0 0 1 0-6m6 8.5c0 .275-.225.5-.5.5h-11a.5.5 0 0 1-.5-.5V7h1.1A5 5 0 0 0 8 13a5 5 0 0 0 4.9-6H14z"/></symbol><symbol id="hd-icon-icomoon-free-italic" viewBox="0 0 16 16"><path fill="currentColor" d="M14 1v1h-2L7 14h2v1H2v-1h2L9 2H7V1z"/></symbol><symbol id="hd-icon-icomoon-free-joomla" viewBox="0 0 16 16"><path fill="currentColor" d="M4.156 4.323a1.31 1.31 0 0 1 1.856 0l.122.123l1.58-1.581l-.123-.123a3.54 3.54 0 0 0-3.319-.946A2.14 2.14 0 0 0 2.16 0a2.143 2.143 0 0 0-.473 4.234a3.55 3.55 0 0 0 .888 3.531l3.56 3.561l1.578-1.581l-3.56-3.561a1.32 1.32 0 0 1 .003-1.861m11.824-2.18a2.141 2.141 0 0 0-4.26-.296a3.54 3.54 0 0 0-3.51.897L4.65 6.305l1.58 1.581l3.559-3.56a1.31 1.31 0 0 1 1.854-.003a1.316 1.316 0 0 1-.001 1.859l-.122.122l1.578 1.582l.123-.124a3.55 3.55 0 0 0 .9-3.494a2.14 2.14 0 0 0 1.858-2.125zm-1.82 9.592a3.55 3.55 0 0 0-.939-3.352L9.666 4.821l-1.58 1.58l3.555 3.563a1.313 1.313 0 1 1-1.854 1.857l-.121-.122l-1.578 1.582l.121.121a3.54 3.54 0 0 0 3.553.883A2.14 2.14 0 0 0 16 13.858c0-1.081-.8-1.976-1.84-2.122zM9.568 8.261l-3.555 3.562a1.316 1.316 0 0 1-1.86-1.861l.122-.121l-1.579-1.58l-.121.12a3.55 3.55 0 0 0-.929 3.39A2.14 2.14 0 0 0 0 13.857a2.141 2.141 0 0 0 4.227.481a3.54 3.54 0 0 0 3.365-.934l3.555-3.562L9.569 8.26z"/></symbol><symbol id="hd-icon-icomoon-free-key" viewBox="0 0 16 16"><path fill="currentColor" d="M11 0a5 5 0 0 0-4.916 5.916L0 12v3a1 1 0 0 0 1 1h1v-1h2v-2h2v-2h2l1.298-1.298A5 5 0 1 0 11 0m1.498 5.002a1.5 1.5 0 1 1 .001-3.001a1.5 1.5 0 0 1-.001 3.001"/></symbol><symbol id="hd-icon-icomoon-free-key2" viewBox="0 0 16 16"><path fill="currentColor" d="m15.658 4.91l-1.58-1.58l-1.409-1.409l-1.58-1.58c-.387-.387-1.077-.456-1.533-.152l-4.319 2.88a1.16 1.16 0 0 0-.383 1.444l1.101 2.203q.052.101.115.213L.499 12.5l-.5 3.5h3v-1h2v-2h2v-2h2V9.888q.151.09.284.157l2.203 1.101c.49.245 1.14.072 1.444-.383l2.88-4.319c.304-.456.236-1.146-.152-1.533zM2.354 13.354l-.707-.707l4.868-4.868l.707.707zm11.974-6.733l-.707.707a.5.5 0 0 1-.707 0L8.671 3.085a.5.5 0 0 1 0-.707l.707-.707a.5.5 0 0 1 .707 0l4.243 4.243a.5.5 0 0 1 0 .707"/></symbol><symbol id="hd-icon-icomoon-free-keyboard" viewBox="0 0 18 16"><path fill="currentColor" d="M17 2H1c-.55 0-1 .45-1 1v10c0 .55.45 1 1 1h16c.55 0 1-.45 1-1V3c0-.55-.45-1-1-1m-7 2h2v2h-2zm3 3v2h-2V7zM7 4h2v2H7zm3 3v2H8V7zM4 4h2v2H4zm3 3v2H5V7zM2 4h1v2H2zm0 3h2v2H2zm1 5H2v-2h1zm9 0H4v-2h8zm4 0h-3v-2h3zm0-3h-2V7h2zm0-3h-3V4h3z"/></symbol><symbol id="hd-icon-icomoon-free-lab" viewBox="0 0 16 16"><path fill="currentColor" d="M14.942 12.57L10 4.335V1h.5c.275 0 .5-.225.5-.5s-.225-.5-.5-.5h-5c-.275 0-.5.225-.5.5s.225.5.5.5H6v3.335L1.058 12.57C-.074 14.456.8 16 3 16h10c2.2 0 3.074-1.543 1.942-3.43M3.766 10L7 4.61V1h2v3.61L12.234 10z"/></symbol><symbol id="hd-icon-icomoon-free-lanyrd" viewBox="0 0 16 16"><path fill="currentColor" d="M14.5 0h-13C.675 0 0 .675 0 1.5v13c0 .825.675 1.5 1.5 1.5h13c.825 0 1.5-.675 1.5-1.5v-13c0-.825-.675-1.5-1.5-1.5m-1.65 12.012l-5.444 1.781c-1.244.406-1.369.341-1.931-1.4L4.1 8.134c-.328-1.009-1.328-3.728-1.497-4.25c-.313-.969-.313-1.022 1.516-1.616c1.431-.469 1.491-.453 2.009 1.163c.419 1.3.688 2.35 1.119 3.678l1.172 3.625l3.744-1.225c.738-.244.984-.231 1.194.678l.15.688c.175.797-.228 1-.656 1.137z"/></symbol><symbol id="hd-icon-icomoon-free-laptop" viewBox="0 0 16 16"><path fill="currentColor" d="M14 11V3c0-.55-.45-1-1-1H3c-.55 0-1 .45-1 1v8H0v3h16v-3zm-4 2H6v-1h4zm3-2H3V3.002L3.002 3h9.996l.002.002z"/></symbol><symbol id="hd-icon-icomoon-free-last" viewBox="0 0 16 16"><path fill="currentColor" d="M14 2v12h-2V8.5l-5 5v-5l-5 5v-11l5 5v-5l5 5V2z"/></symbol><symbol id="hd-icon-icomoon-free-lastfm" viewBox="0 0 16 16"><path fill="currentColor" d="m7.056 11.972l-.588-1.594s-.953 1.063-2.381 1.063c-1.266 0-2.163-1.1-2.163-2.859c0-2.253 1.137-3.059 2.253-3.059c1.612 0 2.125 1.044 2.566 2.381l.588 1.831c.588 1.778 1.688 3.206 4.856 3.206c2.272 0 3.813-.697 3.813-2.528c0-1.484-.844-2.253-2.419-2.622l-1.172-.256c-.806-.184-1.044-.513-1.044-1.063c0-.622.494-.991 1.3-.991c.881 0 1.356.331 1.428 1.119l1.831-.219c-.147-1.65-1.284-2.328-3.153-2.328c-1.65 0-3.262.622-3.262 2.622c0 1.247.606 2.034 2.125 2.4l1.247.294c.934.219 1.247.606 1.247 1.137c0 .678-.659.953-1.906.953c-1.85 0-2.622-.972-3.059-2.309l-.606-1.831c-.766-2.384-1.994-3.263-4.431-3.263c-2.694 0-4.125 1.703-4.125 4.6c0 2.784 1.428 4.287 3.997 4.287c2.069 0 3.059-.972 3.059-.972z"/></symbol><symbol id="hd-icon-icomoon-free-lastfm2" viewBox="0 0 16 16"><path fill="currentColor" d="M14.5 0h-13C.675 0 0 .675 0 1.5v13c0 .825.675 1.5 1.5 1.5h13c.825 0 1.5-.675 1.5-1.5v-13c0-.825-.675-1.5-1.5-1.5m-2.834 11.887c-2.775 0-3.737-1.25-4.25-2.806l-.513-1.603c-.384-1.172-.834-2.084-2.244-2.084c-.978 0-1.972.706-1.972 2.678c0 1.541.784 2.503 1.894 2.503c1.25 0 2.084-.931 2.084-.931l.513 1.394s-.866.85-2.678.85c-2.25 0-3.5-1.313-3.5-3.75c0-2.534 1.25-4.025 3.609-4.025c2.134 0 3.206.769 3.881 2.853l.528 1.603c.384 1.172 1.059 2.022 2.678 2.022c1.091 0 1.669-.241 1.669-.834c0-.466-.272-.803-1.091-.994l-1.091-.256c-1.331-.322-1.859-1.009-1.859-2.1c0-1.747 1.412-2.294 2.853-2.294c1.634 0 2.631.594 2.759 2.038l-1.603.194c-.066-.691-.481-.978-1.25-.978c-.706 0-1.137.322-1.137.866c0 .481.209.769.912.931l1.025.225c1.378.322 2.116.994 2.116 2.294c0 1.597-1.347 2.206-3.334 2.206z"/></symbol><symbol id="hd-icon-icomoon-free-leaf" viewBox="0 0 16 16"><path fill="currentColor" d="M15.802 2.102C14.072.791 11.409.008 8.678.008c-3.377 0-6.129 1.179-7.549 3.235C.462 4.208.093 5.352.032 6.641c-.054 1.148.139 2.418.573 3.784C2.087 5.981 6.227 2.502 11 2.502c0 0-4.466 1.175-7.274 4.816A10.5 10.5 0 0 0 2.2 10.037A15.4 15.4 0 0 0 1 16.002h2s-.304-1.91.224-4.106a18 18 0 0 0 2.357.177c1.839 0 3.146-.398 4.115-1.252c.868-.765 1.347-1.794 1.854-2.882c.774-1.663 1.651-3.547 4.198-5.002a.5.5 0 0 0 .054-.833z"/></symbol><symbol id="hd-icon-icomoon-free-library" viewBox="0 0 17 16"><path fill="currentColor" d="M16 15v-1h-1V8h1V7h-3v1h1v6h-3V8h1V7H9v1h1v6H7V8h1V7H5v1h1v6H3V8h1V7H1v1h1v6H1v1H0v1h17v-1zM8 0h1l8 5v1H0V5z"/></symbol><symbol id="hd-icon-icomoon-free-libreoffice" viewBox="0 0 16 16"><path fill="currentColor" d="M8.354.354A1.4 1.4 0 0 0 7.5 0h-6c-.275 0-.5.225-.5.5v15c0 .275.225.5.5.5h12c.275 0 .5-.225.5-.5v-9c0-.275-.159-.659-.354-.854L8.353.353zM13 15H2V1h5.487a.6.6 0 0 1 .169.07l5.274 5.274a.6.6 0 0 1 .07.169zm.5-15h-3c-.275 0-.341.159-.146.354l3.293 3.293c.194.194.354.129.354-.146v-3c0-.275-.225-.5-.5-.5z"/></symbol><symbol id="hd-icon-icomoon-free-lifebuoy" viewBox="0 0 16 16"><path fill="currentColor" d="M8 0a8 8 0 1 0 0 16A8 8 0 0 0 8 0M5 8a3 3 0 1 1 6 0a3 3 0 0 1-6 0m9.468 2.679l-2.772-1.148C11.892 9.059 12 8.542 12 8s-.108-1.059-.304-1.531l2.772-1.148C14.81 6.146 15 7.051 15 8s-.189 1.854-.532 2.679m-3.789-9.147L9.531 4.304C9.059 4.108 8.542 4 8 4s-1.059.108-1.531.304L5.321 1.532C6.146 1.19 7.051 1 8 1s1.854.189 2.679.532M1.532 5.321l2.772 1.148C4.108 6.941 4 7.458 4 8s.108 1.059.304 1.531l-2.772 1.148C1.19 9.854 1 8.949 1 8s.189-1.854.532-2.679m3.789 9.147l1.148-2.772c.472.196.989.304 1.531.304s1.059-.108 1.531-.304l1.148 2.772C9.854 14.81 8.949 15 8 15s-1.854-.189-2.679-.532"/></symbol><symbol id="hd-icon-icomoon-free-ligature" viewBox="0 0 16 16"><path fill="currentColor" d="M12 13.622v-.002l-.005-6.821l-1.992.097H6.067V6.56c0-1.274.091-2.546.269-3.042c.123-.343.353-.652.683-.919c.322-.261.643-.393.955-.393q.395 0 .647.134q.354.203.682.669c.577.82.812 1.038.939 1.131q.326.238.776.238q.44 0 .757-.324a1.1 1.1 0 0 0 .315-.792c0-.335-.139-.691-.414-1.057c-.268-.358-.683-.652-1.232-.875a4.7 4.7 0 0 0-1.793-.329c-.949 0-1.813.228-2.568.678a4.4 4.4 0 0 0-1.725 1.863c-.359.728-.333 2.105-.355 3.355H2.038v1.116H4v5.073c0 1.12-.342 1.422-.472 1.583a1.23 1.23 0 0 1-.944.455H1.98v.878h6.021v-.878h-.105c-1.424 0-1.828-.154-1.828-1.888v-.001l-.001-5.222h2.191c1.163 0 1.43.054 1.491.077c.074.028.169.075.204.143c.014.026.081.391.081 1.296v3.917c0 .913-.111 1.217-.179 1.319c-.145.222-.319.345-.854.358v.879h4.588v-.873c-1.431 0-1.588-.153-1.588-1.505z"/></symbol><symbol id="hd-icon-icomoon-free-ligature2" viewBox="0 0 16 16"><path fill="currentColor" d="M13.364 14.335c-.183 0-1.307-.206-1.375-.458c-.161-.619-.183-1.284-.183-2.04V3.384c0-1.261.252-1.994.252-1.994c-.023-.115-.138-.367-.275-.367h-.069c-.069 0-.871.504-1.605.504c-.596 0-.967-.527-1.655-.527c-2.892 0-4.249 2.349-4.249 5.672v.173c0 .069-.046.138-.115.138h-.94c-.115 0-.344.642-.344.94q0 .137.069.137H4.09c.069 0 .115.092.115.16c0 2.04-.023 4.052-.023 4.052c0 .321-.023 1.031-.16 1.605c-.069.252-1.123.458-1.398.458c-.115 0-.115.55 0 .665c.94-.046 1.559-.115 2.499-.115c.871 0 1.536.069 2.453.115c.046-.138.046-.665-.069-.665c-.183 0-1.307-.206-1.375-.458c-.16-.619-.16-1.284-.183-2.04V8.198c0-.069.069-.138.138-.138h2.361c.16-.321.275-.711.275-.917c0-.138 0-.16-.115-.16H6.064c-.046 0-.115-.069-.115-.115v-.825c0-2.04.836-3.837 2.234-3.837c.99 0 1.854.642 1.854 3.093q.005.096.005.148v6.825c0 .321-.023 1.031-.16 1.605c-.069.252-1.123.458-1.398.458c-.115 0-.115.55 0 .665c.94-.046 1.559-.115 2.499-.115c.871 0 1.536.069 2.453.115c.046-.137.046-.665-.069-.665z"/></symbol><symbol id="hd-icon-icomoon-free-link" viewBox="0 0 16 16"><path fill="currentColor" d="M6.879 9.934a.8.8 0 0 1-.575-.238a3.82 3.82 0 0 1 0-5.392l3-3C10.024.584 10.982.187 12 .187s1.976.397 2.696 1.117a3.82 3.82 0 0 1 0 5.392l-1.371 1.371a.813.813 0 0 1-1.149-1.149l1.371-1.371A2.19 2.19 0 0 0 12 1.812c-.584 0-1.134.228-1.547.641l-3 3a2.19 2.19 0 0 0 0 3.094a.813.813 0 0 1-.575 1.387z"/><path fill="currentColor" d="M4 15.813a3.8 3.8 0 0 1-2.696-1.117a3.82 3.82 0 0 1 0-5.392l1.371-1.371a.813.813 0 0 1 1.149 1.149l-1.371 1.371A2.19 2.19 0 0 0 4 14.188c.585 0 1.134-.228 1.547-.641l3-3a2.19 2.19 0 0 0 0-3.094a.813.813 0 0 1 1.149-1.149a3.82 3.82 0 0 1 0 5.392l-3 3A3.8 3.8 0 0 1 4 15.813"/></symbol><symbol id="hd-icon-icomoon-free-linkedin" viewBox="0 0 16 16"><path fill="currentColor" d="M14.5 0h-13C.675 0 0 .675 0 1.5v13c0 .825.675 1.5 1.5 1.5h13c.825 0 1.5-.675 1.5-1.5v-13c0-.825-.675-1.5-1.5-1.5M6 13H4V6h2zM5 5a1 1 0 1 1 0-2a1 1 0 1 1 0 2m8 8h-2V9a1 1 0 1 0-2 0v4H7V6h2v1.241C9.412 6.675 10.044 6 10.75 6C11.994 6 13 7.119 13 8.5z"/></symbol><symbol id="hd-icon-icomoon-free-linkedin2" viewBox="0 0 16 16"><path fill="currentColor" d="M6 6h2.767v1.418h.04C9.192 6.727 10.134 6 11.539 6C14.46 6 15 7.818 15 10.183V15h-2.885v-4.27c0-1.018-.021-2.329-1.5-2.329c-1.502 0-1.732 1.109-1.732 2.255V15H6zM1 6h3v9H1zm3-2.5a1.5 1.5 0 1 1-3.001-.001A1.5 1.5 0 0 1 4 3.5"/></symbol><symbol id="hd-icon-icomoon-free-list" viewBox="0 0 16 16"><path fill="currentColor" d="M0 0h4v4H0zm6 1h10v2H6zM0 6h4v4H0zm6 1h10v2H6zm-6 5h4v4H0zm6 1h10v2H6z"/></symbol><symbol id="hd-icon-icomoon-free-list-numbered" viewBox="0 0 16 16"><path fill="currentColor" d="M6 13h10v2H6zm0-6h10v2H6zm0-6h10v2H6zM3 0v4H2V1H1V0zM2 8.219V9h2v1H1V7.719l2-.938V6H1V5h3v2.281zM4 11v5H1v-1h2v-1H1v-1h2v-1H1v-1z"/></symbol><symbol id="hd-icon-icomoon-free-list2" viewBox="0 0 16 16"><path fill="currentColor" d="M6 1h10v2H6zm0 6h10v2H6zm0 6h10v2H6zM0 2a2 2 0 1 1 3.999-.001A2 2 0 0 1 0 2m0 6a2 2 0 1 1 3.999-.001A2 2 0 0 1 0 8m0 6a2 2 0 1 1 3.999-.001A2 2 0 0 1 0 14"/></symbol><symbol id="hd-icon-icomoon-free-location" viewBox="0 0 16 16"><path fill="currentColor" d="M8 0a5 5 0 0 0-5 5c0 5 5 11 5 11s5-6 5-11a5 5 0 0 0-5-5m0 8a3 3 0 1 1 0-6a3 3 0 0 1 0 6"/></symbol><symbol id="hd-icon-icomoon-free-location2" viewBox="0 0 16 16"><path fill="currentColor" d="M8 0a5 5 0 0 0-5 5c0 5 5 11 5 11s5-6 5-11a5 5 0 0 0-5-5m0 8.063a3.063 3.063 0 1 1 0-6.126a3.063 3.063 0 0 1 0 6.126M6.063 5a1.938 1.938 0 1 1 3.876 0a1.938 1.938 0 0 1-3.876 0"/></symbol><symbol id="hd-icon-icomoon-free-lock" viewBox="0 0 16 16"><path fill="currentColor" d="M9.25 7H9V4c0-1.654-1.346-3-3-3H4C2.346 1 1 2.346 1 4v3H.75a.753.753 0 0 0-.75.75v7.5c0 .412.338.75.75.75h8.5c.412 0 .75-.338.75-.75v-7.5A.753.753 0 0 0 9.25 7M3 4c0-.551.449-1 1-1h2c.551 0 1 .449 1 1v3H3z"/></symbol><symbol id="hd-icon-icomoon-free-loop" viewBox="0 0 16 16"><path fill="currentColor" d="M2 5h10v3l4-4l-4-4v3H0v6h2zm12 6H4V8l-4 4l4 4v-3h12V7h-2z"/></symbol><symbol id="hd-icon-icomoon-free-loop2" viewBox="0 0 16 16"><path fill="currentColor" d="M13.901 2.599A8 8 0 0 0 0 8h1.5a6.5 6.5 0 0 1 11.339-4.339L10.5 6H16V.5zM14.5 8a6.5 6.5 0 0 1-11.339 4.339L5.5 10H0v5.5l2.099-2.099A8 8 0 0 0 16 8z"/></symbol><symbol id="hd-icon-icomoon-free-ltr" viewBox="0 0 16 16"><path fill="currentColor" d="M8 0a4 4 0 0 0 0 8v8h2V2h2v14h2V2h2V0zM0 11l4-4l-4-4z"/></symbol><symbol id="hd-icon-icomoon-free-magic-wand" viewBox="0 0 16 16"><path fill="currentColor" d="M4 3L2 1H1v1l2 2zm1-3h1v2H5zm4 5h2v1H9zm1-3V1H9L7 3l1 1zM0 5h2v1H0zm5 4h1v2H5zM1 9v1h1l2-2l-1-1zm14.781 4.781L5.842 3.842a.75.75 0 0 0-1.061 0l-.939.939a.75.75 0 0 0 0 1.061l9.939 9.939a.75.75 0 0 0 1.061 0l.939-.939a.75.75 0 0 0 0-1.061M7.5 8.5l-3-3l1-1l3 3z"/></symbol><symbol id="hd-icon-icomoon-free-magnet" viewBox="0 0 16 16"><path fill="currentColor" d="M14 0h-4l1 9a3 3 0 1 1-6 0l1-9H2L1 9a7 7 0 1 0 14 0zm-1.846 13.154c-1.11 1.11-2.585 1.721-4.154 1.721s-3.045-.611-4.154-1.721a5.83 5.83 0 0 1-1.72-4.095l.564-5.075h1.736l-.55 4.953v.062c0 1.102.429 2.138 1.208 2.917s1.815 1.208 2.917 1.208s2.138-.429 2.917-1.208a4.1 4.1 0 0 0 1.208-2.917v-.062l-.007-.062l-.543-4.891h1.736l.564 5.075a5.84 5.84 0 0 1-1.72 4.095z"/></symbol><symbol id="hd-icon-icomoon-free-mail" viewBox="0 0 16 16"><path fill="currentColor" d="M13.333 0H2.667A2.675 2.675 0 0 0 0 2.667v10.666C0 14.8 1.2 16 2.667 16h10.666C14.801 16 16 14.8 16 13.333V2.667A2.674 2.674 0 0 0 13.333 0M4 4h8q.216.001.409.088L8 9.231L3.591 4.088A1 1 0 0 1 4 4m-1 7V5l.002-.063l2.932 3.421l-2.9 2.9A1 1 0 0 1 3 11m9 1H4q-.133 0-.258-.034L6.588 9.12l1.413 1.648L9.414 9.12l2.846 2.846a1 1 0 0 1-.258.034zm1-1q0 .133-.034.258l-2.9-2.9l2.932-3.421L13 5z"/></symbol><symbol id="hd-icon-icomoon-free-mail2" viewBox="0 0 16 16"><path fill="currentColor" d="M13.333 0H2.667A2.675 2.675 0 0 0 0 2.667v10.666C0 14.801 1.2 16 2.667 16h10.666A2.674 2.674 0 0 0 16 13.333V2.667C16 1.2 14.8 0 13.333 0m0 2c.125 0 .243.036.344.099L7.999 6.793L2.322 2.099A.65.65 0 0 1 2.666 2zM2.667 14l-.089-.006l3.525-4.89l-.457-.457L2 12.293V2.744L8 10l6-7.256v9.549l-3.646-3.646l-.457.457l3.525 4.89l-.088.006z"/></symbol><symbol id="hd-icon-icomoon-free-mail3" viewBox="0 0 16 16"><path fill="currentColor" d="M13.333 0H2.667A2.675 2.675 0 0 0 0 2.667v10.666C0 14.801 1.2 16 2.667 16h10.666A2.674 2.674 0 0 0 16 13.333V2.667C16 1.2 14.8 0 13.333 0M2.854 13.854l-1.207-1.207l4-4l.457.457zm-.458-10.75l.457-.457l5.146 4.146l5.146-4.146l.457.457l-5.604 6.604l-5.604-6.604zm10.75 10.75l-3.25-4.75l.457-.457l4 4z"/></symbol><symbol id="hd-icon-icomoon-free-mail4" viewBox="0 0 16 16"><path fill="currentColor" d="M8 0a8 8 0 1 0 0 16A8 8 0 0 0 8 0M4 4h8q.216.001.409.088L8 9.231L3.591 4.088A1 1 0 0 1 4 4m-1 7V5l.002-.063l2.932 3.421l-2.9 2.9A1 1 0 0 1 3 11m9 1H4q-.133 0-.258-.034L6.588 9.12l1.413 1.648L9.414 9.12l2.846 2.846a1 1 0 0 1-.258.034zm1-1q0 .133-.034.258l-2.9-2.9l2.932-3.421L13 5z"/></symbol><symbol id="hd-icon-icomoon-free-make-group" viewBox="0 0 16 16"><path fill="currentColor" d="M5 2H3c-.55 0-1 .45-1 1v2c0 .55.45 1 1 1h2c.55 0 1-.45 1-1V3c0-.55-.45-1-1-1m6 4h2c.55 0 1-.45 1-1V3c0-.55-.45-1-1-1h-2c-.55 0-1 .45-1 1v2c0 .55.45 1 1 1m0-3h2v2h-2zm-6 7H3c-.55 0-1 .45-1 1v2c0 .55.45 1 1 1h2c.55 0 1-.45 1-1v-2c0-.55-.45-1-1-1m0 3H3v-2h2zm8-3h-2c-.55 0-1 .45-1 1v2c0 .55.45 1 1 1h2c.55 0 1-.45 1-1v-2c0-.55-.45-1-1-1"/><path fill="currentColor" d="M14 8h-1c-1.336 0-2.591-.52-3.536-1.464S8 4.336 8 3V2c0-1.1-.9-2-2-2H2C.9 0 0 .9 0 2v4c0 1.1.9 2 2 2h1c1.336 0 2.591.52 3.536 1.464S8 11.664 8 13v1c0 1.1.9 2 2 2h4c1.1 0 2-.9 2-2v-4c0-1.1-.9-2-2-2m1 6c0 .265-.105.515-.295.705S14.265 15 14 15h-4c-.265 0-.515-.105-.705-.295S9 14.265 9 14v-1a6 6 0 0 0-6-6H2c-.265 0-.515-.105-.705-.295S1 6.264 1 6V2c0-.265.105-.515.295-.705S1.735 1 2 1h4c.265 0 .515.105.705.295S7 1.735 7 2v1a6 6 0 0 0 6 6h1c.265 0 .515.105.705.295S15 9.735 15 10z"/></symbol><symbol id="hd-icon-icomoon-free-man" viewBox="0 0 16 16"><path fill="currentColor" d="M9 1.5a1.5 1.5 0 1 1-3.001-.001A1.5 1.5 0 0 1 9 1.5M9 4H6a1 1 0 0 0-1 1v5h1v6h1.25v-6h.5v6H9v-6h1V5a1 1 0 0 0-1-1"/></symbol><symbol id="hd-icon-icomoon-free-man-woman" viewBox="0 0 16 16"><path fill="currentColor" d="M4 1.5a1.5 1.5 0 1 1-3.001-.001A1.5 1.5 0 0 1 4 1.5m9 0a1.5 1.5 0 1 1-3.001-.001A1.5 1.5 0 0 1 13 1.5M4 4H1a1 1 0 0 0-1 1v5h1v6h1.25v-6h.5v6H4v-6h1V5a1 1 0 0 0-1-1m11.234 4L16 7.445l-2.083-3.221a.5.5 0 0 0-.417-.225h-4a.5.5 0 0 0-.417.225L7 7.445L7.766 8l1.729-2.244l.601 1.402l-2.095 3.841h1.917l.333 5h1v-5h.5v5h1l.333-5h1.917l-2.095-3.842l.601-1.402l1.729 2.244z"/></symbol><symbol id="hd-icon-icomoon-free-map" viewBox="0 0 16 16"><path fill="currentColor" d="m0 3l5-2v12l-5 2zM6 .5l5 3V15l-5-2.5zm6 3l4-3v12l-4 3z"/></symbol><symbol id="hd-icon-icomoon-free-map2" viewBox="0 0 16 16"><path fill="currentColor" d="m10.5 3l-5-2L0 3v12l5.5-2l5 2l5.5-2V1zM6 2.277l4 1.6v9.846l-4-1.6zM1 3.7l4-1.455v9.872l-4 1.454V3.699zm14 8.6l-4 1.455V3.883l4-1.455z"/></symbol><symbol id="hd-icon-icomoon-free-menu" viewBox="0 0 16 16"><path fill="currentColor" d="M1 3h14v3H1zm0 4h14v3H1zm0 4h14v3H1z"/></symbol><symbol id="hd-icon-icomoon-free-menu2" viewBox="0 0 22 16"><path fill="currentColor" d="M0 3h14v3H0zm0 4h14v3H0zm0 4h14v3H0zm15.5-2l3 3l3-3zm6-1l-3-3l-3 3z"/></symbol><symbol id="hd-icon-icomoon-free-menu3" viewBox="0 0 22 16"><path fill="currentColor" d="M0 3h14v3H0zm0 4h14v3H0zm0 4h14v3H0zm15.5-4l3 3l3-3z"/></symbol><symbol id="hd-icon-icomoon-free-menu4" viewBox="0 0 22 16"><path fill="currentColor" d="M0 3h14v3H0zm0 4h14v3H0zm0 4h14v3H0zm15.5-1l3-3l3 3z"/></symbol><symbol id="hd-icon-icomoon-free-meter" viewBox="0 0 16 16"><path fill="currentColor" d="M8 1a8 8 0 0 1 3.875 15h-7.75A8 8 0 0 1 8 1m4.53 12.53A6.36 6.36 0 0 0 14.406 9H13V8h1.329a6.4 6.4 0 0 0-.665-2H12V5h1.004a6.37 6.37 0 0 0-3.005-2.089V4h-1V2.671a6.5 6.5 0 0 0-2 0V4h-1V2.911A6.4 6.4 0 0 0 2.994 5h1.004v1H2.334a6.4 6.4 0 0 0-.665 2h1.329v1H1.592c0 1.711.666 3.32 1.876 4.53q.252.25.524.47h3.006l.571-8h.857l.571 8h3.006q.273-.22.524-.47z"/></symbol><symbol id="hd-icon-icomoon-free-meter2" viewBox="0 0 16 16"><path fill="currentColor" d="M8 0a8 8 0 1 0 0 16A8 8 0 0 0 8 0M4.732 13.034a4.5 4.5 0 0 0-2.688-5.762a5.95 5.95 0 0 1 1.714-3.514c1.133-1.133 2.64-1.757 4.243-1.757s3.109.624 4.243 1.757a5.96 5.96 0 0 1 1.714 3.514a4.5 4.5 0 0 0-2.688 5.762c-.964.629-2.09.966-3.268.966s-2.304-.338-3.268-.966zm3.889-3.018A.5.5 0 0 1 9 10.5v1c0 .275-.225.5-.5.5h-1a.5.5 0 0 1-.5-.5v-1a.5.5 0 0 1 .379-.484L7.75 3h.5z"/></symbol><symbol id="hd-icon-icomoon-free-mic" viewBox="0 0 16 16"><path fill="currentColor" d="M7.5 11A2.5 2.5 0 0 0 10 8.5v-6a2.5 2.5 0 1 0-5 0v6A2.5 2.5 0 0 0 7.5 11M11 7v1.5a3.5 3.5 0 1 1-7 0V7H3v1.5a4.5 4.5 0 0 0 4 4.472V15H5v1h5v-1H8v-2.028A4.5 4.5 0 0 0 12 8.5V7z"/></symbol><symbol id="hd-icon-icomoon-free-minus" viewBox="0 0 16 16"><path fill="currentColor" d="M0 6.5v3a.5.5 0 0 0 .5.5h15a.5.5 0 0 0 .5-.5v-3a.5.5 0 0 0-.5-.5H.5a.5.5 0 0 0-.5.5"/></symbol><symbol id="hd-icon-icomoon-free-mobile" viewBox="0 0 16 16"><path fill="currentColor" d="M11.5 0h-7C3.675 0 3 .675 3 1.5v13c0 .825.675 1.5 1.5 1.5h7c.825 0 1.5-.675 1.5-1.5v-13c0-.825-.675-1.5-1.5-1.5M6 .75h4v.5H6zM8 15a1 1 0 1 1 0-2a1 1 0 0 1 0 2m4-3H4V2h8z"/></symbol><symbol id="hd-icon-icomoon-free-mobile2" viewBox="0 0 16 16"><path fill="currentColor" d="M12 0H3c-.55 0-1 .45-1 1v14c0 .55.45 1 1 1h9c.55 0 1-.45 1-1V1c0-.55-.45-1-1-1M7.5 15.278a.778.778 0 1 1 0-1.555a.778.778 0 0 1 0 1.555M12 13H3V2h9z"/></symbol><symbol id="hd-icon-icomoon-free-move-down" viewBox="0 0 16 16"><path fill="currentColor" d="M12 11V5h-1v6H8.5l3 3l3-3zM5 4v3H2V4zm1-1H1v5h5zm-5 7h1.5v1H1zm2 0h1.5v1H3zm2 0h1v1.5H5zm-4 3.5h1V15H1zm1.5.5H4v1H2.5zm2 0H6v1H4.5zM1 11.5h1V13H1zm4 .5h1v1.5H5z"/></symbol><symbol id="hd-icon-icomoon-free-move-up" viewBox="0 0 16 16"><path fill="currentColor" d="M11 8v6h1V8h2.5l-3-3l-3 3zM1 3h1.5v1H1zm2 0h1.5v1H3zm2 0h1v1.5H5zM1 6.5h1V8H1zm1.5.5H4v1H2.5zm2 0H6v1H4.5zM1 4.5h1V6H1zM5 5h1v1.5H5zm0 6v3H2v-3zm1-1H1v5h5z"/></symbol><symbol id="hd-icon-icomoon-free-mug" viewBox="0 0 16 16"><path fill="currentColor" d="M15 5h-3V3.5C12 2.119 9.314 1 6 1S0 2.119 0 3.5v10C0 14.881 2.686 16 6 16s6-1.119 6-2.5V12h3a1 1 0 0 0 1-1V6a1 1 0 0 0-1-1M2.751 4.037c-.578-.19-.928-.394-1.116-.537c.188-.143.538-.347 1.116-.537C3.656 2.665 4.81 2.5 6 2.5s2.344.164 3.249.463c.578.19.928.394 1.116.537c-.188.143-.538.347-1.116.537C8.344 4.335 7.19 4.5 6 4.5s-2.344-.164-3.249-.463M14 10h-2V7h2z"/></symbol><symbol id="hd-icon-icomoon-free-music" viewBox="0 0 16 16"><path fill="currentColor" d="M15 0h1v11.5c0 1.381-1.567 2.5-3.5 2.5S9 12.881 9 11.5S10.567 9 12.5 9c.979 0 1.865.287 2.5.751V4L7 5.778V13.5C7 14.881 5.433 16 3.5 16S0 14.881 0 13.5S1.567 11 3.5 11c.979 0 1.865.287 2.5.751V2z"/></symbol><symbol id="hd-icon-icomoon-free-neutral" viewBox="0 0 16 16"><path fill="currentColor" d="M8 16A8 8 0 1 0 8 0a8 8 0 0 0 0 16M8 1.5a6.5 6.5 0 1 1 0 13a6.5 6.5 0 0 1 0-13M4 5a1 1 0 1 0 2 0a1 1 0 0 0-2 0m6 0a1 1 0 1 0 2 0a1 1 0 0 0-2 0m-4 6h4v1H6z"/></symbol><symbol id="hd-icon-icomoon-free-neutral2" viewBox="0 0 16 16"><path fill="currentColor" d="M8 0a8 8 0 1 0 0 16A8 8 0 0 0 8 0m2 12H6v-1h4zm1-8a1 1 0 1 1 0 2a1 1 0 0 1 0-2M5 4a1 1 0 1 1 0 2a1 1 0 0 1 0-2"/></symbol><symbol id="hd-icon-icomoon-free-new-tab" viewBox="0 0 16 16"><path fill="currentColor" d="M3 1v12h12V1zm11 11H4V2h10zM2 14V3.5l-1-1V15h12.5l-1-1z"/><path fill="currentColor" d="M5.5 4L8 6.5l-3 3L6.5 11l3-3l2.5 2.5V4z"/></symbol><symbol id="hd-icon-icomoon-free-newspaper" viewBox="0 0 16 16"><path fill="currentColor" d="M14 4V2H0v11a1 1 0 0 0 1 1h13.5a1.5 1.5 0 0 0 1.5-1.5V4zm-1 9H1V3h12zM2 5h10v1H2zm6 2h4v1H8zm0 2h4v1H8zm0 2h3v1H8zM2 7h5v5H2z"/></symbol><symbol id="hd-icon-icomoon-free-next" viewBox="0 0 16 16"><path fill="currentColor" d="M8 0a8 8 0 1 1 0 16A8 8 0 0 1 8 0m0 14.5a6.5 6.5 0 1 0 0-13a6.5 6.5 0 0 0 0 13"/><path fill="currentColor" d="M9 8L5 5v6zm2-3H9v6h2z"/></symbol><symbol id="hd-icon-icomoon-free-next2" viewBox="0 0 16 16"><path fill="currentColor" d="M12 2v12h-2V8.5l-5 5v-11l5 5V2z"/></symbol><symbol id="hd-icon-icomoon-free-notification" viewBox="0 0 16 16"><path fill="currentColor" d="M8 1.5c-1.736 0-3.369.676-4.596 1.904S1.5 6.264 1.5 8s.676 3.369 1.904 4.596S6.264 14.5 8 14.5s3.369-.676 4.596-1.904S14.5 9.736 14.5 8s-.676-3.369-1.904-4.596S9.736 1.5 8 1.5M8 0a8 8 0 1 1 0 16A8 8 0 0 1 8 0M7 11h2v2H7zm0-8h2v6H7z"/></symbol><symbol id="hd-icon-icomoon-free-npm" viewBox="0 0 16 16"><path fill="currentColor" d="M0 0v16h16V0zm13 13h-2V5H8v8H3V3h10z"/></symbol><symbol id="hd-icon-icomoon-free-office" viewBox="0 0 16 16"><path fill="currentColor" d="M0 16h8V0H0zM5 2h2v2H5zm0 4h2v2H5zm0 4h2v2H5zM1 2h2v2H1zm0 4h2v2H1zm0 4h2v2H1zm8-5h7v1H9zm0 11h2v-4h3v4h2V7H9z"/></symbol><symbol id="hd-icon-icomoon-free-omega" viewBox="0 0 16 16"><path fill="currentColor" d="M11 14h4l1-2v4h-6v-3.347c2.049-.883 3.5-3.081 3.5-5.653c0-3.35-2.462-5.973-5.5-5.973S2.5 3.649 2.5 7c0 2.572 1.451 4.77 3.5 5.653V16H0v-4l1 2h4v-.509C2.068 12.453 0 9.938 0 7c0-3.866 3.582-7 8-7s8 3.134 8 7c0 2.938-2.068 5.452-5 6.491z"/></symbol><symbol id="hd-icon-icomoon-free-onedrive" viewBox="0 0 16 16"><path fill="currentColor" d="M5.482 12.944c-.942-.235-1.466-.984-1.468-2.095c0-.355.025-.525.114-.754c.217-.56.793-.982 1.55-1.138c.377-.077.493-.16.493-.353c0-.06.045-.24.1-.399c.249-.724.71-1.327 1.202-1.573c.515-.258.776-.316 1.399-.313c.886.005 1.327.197 1.945.846l.34.357l.304-.105c1.473-.51 2.942.358 3.061 1.809l.032.397l.29.104c.829.297 1.218.92 1.148 1.837c-.046.599-.326 1.078-.77 1.315l-.209.112l-4.638.009c-3.564.007-4.697-.006-4.893-.055zm-3.869-.663c-.565-.142-1.164-.67-1.445-1.273C.009 10.666 0 10.615 0 10.01c0-.576.014-.668.14-.954a2.14 2.14 0 0 1 1.422-1.21c.136-.036.263-.094.283-.128s.043-.221.05-.415c.045-1.206.794-2.269 1.839-2.61c.565-.184 1.306-.202 1.92.058c.195.082.173.1.585-.471c.244-.338.705-.695 1.108-.909c.435-.231.887-.337 1.428-.336c1.512.004 2.815 1.003 3.297 2.529c.154.487.146.624-.035.628a3 3 0 0 0-.505.102l-.361.099l-.329-.348c-.928-.98-2.441-1.192-3.728-.522a3.16 3.16 0 0 0-1.239 1.153c-.222.357-.506 1.024-.506 1.189c0 .117-.09.176-.474.309c-1.189.412-1.883 1.364-1.882 2.582c0 .443.108.986.258 1.296c.057.117.088.228.07.247c-.046.049-1.525.032-1.73-.019z"/></symbol><symbol id="hd-icon-icomoon-free-opera" viewBox="0 0 16 16"><path fill="currentColor" d="M16 8c0 2.369-1.031 4.5-2.669 5.963c-2.053 1-3.966.3-4.597-.137c2.016-.441 3.537-2.878 3.537-5.825s-1.522-5.384-3.537-5.828c.634-.438 2.547-1.137 4.597-.138A8 8 0 0 1 16 8.001z"/><path fill="currentColor" d="M5.366 3.491C4.482 4.535 3.91 6.078 3.872 7.813v.378c.038 1.731.613 3.275 1.497 4.319c1.147 1.491 2.853 2.434 4.759 2.434a5.77 5.77 0 0 0 3.206-.978a7.98 7.98 0 0 1-5.715 2.025A8 8 0 0 1 8 0h.031a7.95 7.95 0 0 1 5.303 2.038a5.77 5.77 0 0 0-3.206-.981c-1.906 0-3.612.944-4.763 2.434z"/></symbol><symbol id="hd-icon-icomoon-free-opt" viewBox="0 0 16 16"><path fill="currentColor" d="M14.5 13h-4a.5.5 0 0 1-.457-.297L6.175 4H1.5a.5.5 0 0 1 0-1h5c.198 0 .377.116.457.297L10.825 12H14.5a.5.5 0 0 1 0 1m0-9h-5a.5.5 0 0 1 0-1h5a.5.5 0 0 1 0 1"/></symbol><symbol id="hd-icon-icomoon-free-pacman" viewBox="0 0 16 16"><path fill="currentColor" d="M15.074 2.794a8 8 0 1 0 0 10.412L10 8zM11 1.884a1.116 1.116 0 1 1 0 2.232a1.116 1.116 0 0 1 0-2.232"/></symbol><symbol id="hd-icon-icomoon-free-page-break" viewBox="0 0 16 16"><path fill="currentColor" d="M0 8h2v1H0zm3 0h3v1H3zm4 0h2v1H7zm3 0h3v1h-3zm4 0h2v1h-2zm-.25-8L14 7H2l.25-7h.5L3 6h10l.25-6zM2.25 16L2 10h12l-.25 6h-.5L13 11H3l-.25 5z"/></symbol><symbol id="hd-icon-icomoon-free-pagebreak" viewBox="0 0 16 16"><path fill="currentColor" d="M4 6V0h12v6h-1V1H5v5zm12 3v7H4V9h1v6h10V9zM8 7h2v1H8zM5 7h2v1H5zm6 0h2v1h-2zm3 0h2v1h-2zM0 4.5l3 3l-3 3z"/></symbol><symbol id="hd-icon-icomoon-free-paint-format" viewBox="0 0 16 16"><path fill="currentColor" d="M16 9V3h-3V2c0-.55-.45-1-1-1H1c-.55 0-1 .45-1 1v3c0 .55.45 1 1 1h11c.55 0 1-.45 1-1V4h2v4H6v2h-.5a.5.5 0 0 0-.5.5v5a.5.5 0 0 0 .5.5h2a.5.5 0 0 0 .5-.5v-5a.5.5 0 0 0-.5-.5H7V9zm-4-6H1V2h11z"/></symbol><symbol id="hd-icon-icomoon-free-paragraph-center" viewBox="0 0 16 16"><path fill="currentColor" d="M0 1h16v2H0zm3 3h10v2H3zm0 6h10v2H3zM0 7h16v2H0zm0 6h16v2H0z"/></symbol><symbol id="hd-icon-icomoon-free-paragraph-justify" viewBox="0 0 16 16"><path fill="currentColor" d="M0 1h16v2H0zm0 3h16v2H0zm0 3h16v2H0zm0 3h16v2H0zm0 3h16v2H0z"/></symbol><symbol id="hd-icon-icomoon-free-paragraph-left" viewBox="0 0 16 16"><path fill="currentColor" d="M0 1h16v2H0zm0 3h10v2H0zm0 6h10v2H0zm0-3h16v2H0zm0 6h16v2H0z"/></symbol><symbol id="hd-icon-icomoon-free-paragraph-right" viewBox="0 0 16 16"><path fill="currentColor" d="M0 1h16v2H0zm6 3h10v2H6zm0 6h10v2H6zM0 7h16v2H0zm0 6h16v2H0z"/></symbol><symbol id="hd-icon-icomoon-free-paste" viewBox="0 0 16 16"><path fill="currentColor" d="M11 2H9V1c0-.55-.45-1-1-1H6c-.55 0-1 .45-1 1v1H3v2h8zM8 2H6v-.998L6.002 1h1.996L8 1.002zm5 3V2.5c0-.275-.225-.5-.5-.5h-1v1h.5v2H9L6 8v4H2V3h.5V2h-1c-.275 0-.5.225-.5.5v10c0 .275.225.5.5.5H6v3h10V5zM9 6.414V8H7.414zM15 15H7V9h3V6h5z"/></symbol><symbol id="hd-icon-icomoon-free-pause" viewBox="0 0 16 16"><path fill="currentColor" d="M8 0a8 8 0 1 0 0 16A8 8 0 0 0 8 0m0 14.5a6.5 6.5 0 1 1 0-13a6.5 6.5 0 0 1 0 13M5 5h2v6H5zm4 0h2v6H9z"/></symbol><symbol id="hd-icon-icomoon-free-pause2" viewBox="0 0 16 16"><path fill="currentColor" d="M2 2h5v12H2zm7 0h5v12H9z"/></symbol><symbol id="hd-icon-icomoon-free-paypal" viewBox="0 0 16 16"><path fill="currentColor" d="M14.531 4.822c-.747 3.316-3.053 5.066-6.688 5.066H6.634l-.841 5.338H4.78l-.053.344a.374.374 0 0 0 .369.431h2.588a.625.625 0 0 0 .616-.525l.025-.131l.488-3.091l.031-.169a.62.62 0 0 1 .616-.525h.384c2.506 0 4.469-1.019 5.044-3.963c.216-1.119.134-2.069-.356-2.775z"/><path fill="currentColor" d="M12.984 1.206C12.243.362 10.903 0 9.19 0H4.218c-.35 0-.65.253-.703.6L1.443 13.731a.427.427 0 0 0 .422.494h3.072l.772-4.891l-.025.153c.053-.347.35-.6.7-.6h1.459c2.866 0 5.109-1.162 5.766-4.531q.03-.15.05-.291c.194-1.244 0-2.094-.675-2.859"/></symbol><symbol id="hd-icon-icomoon-free-pen" viewBox="0 0 16 16"><path fill="currentColor" d="m15.909 4.561l-4.47-4.47c-.146-.146-.338-.113-.427.073l-.599 1.248l4.175 4.175l1.248-.599c.186-.089.219-.282.073-.427M9.615 2.115L5.5 2.458c-.273.034-.501.092-.58.449v.001C3.804 8.268 0 13.499 0 13.499l.896.896l4.25-4.25a1.5 1.5 0 1 1 .707.707l-4.25 4.25l.896.896s5.231-3.804 10.591-4.92h.001c.357-.078.415-.306.449-.58l.343-4.115l-4.269-4.269z"/></symbol><symbol id="hd-icon-icomoon-free-pencil" viewBox="0 0 16 16"><path fill="currentColor" d="M13.5 0a2.5 2.5 0 0 1 2 4l-1 1L11 1.5l1-1c.418-.314.937-.5 1.5-.5M1 11.5L0 16l4.5-1l9.25-9.25l-3.5-3.5zm10.181-5.819l-7 7l-.862-.862l7-7z"/></symbol><symbol id="hd-icon-icomoon-free-pencil2" viewBox="0 0 16 16"><path fill="currentColor" d="m6 10l2-1l7-7l-1-1l-7 7zm-1.48 3.548c-.494-1.043-1.026-1.574-2.069-2.069l1.548-4.262l2-1.217l6-6h-3l-6 6l-3 10l10-3l6-6V4l-6 6l-1.217 2z"/></symbol><symbol id="hd-icon-icomoon-free-phone" viewBox="0 0 16 16"><path fill="currentColor" d="M11 10c-1 1-1 2-2 2s-2-1-3-2s-2-2-2-3s1-1 2-2s-2-4-3-4s-3 3-3 3c0 2 2.055 6.055 4 8s6 4 8 4c0 0 3-2 3-3s-3-4-4-3"/></symbol><symbol id="hd-icon-icomoon-free-phone-hang-up" viewBox="0 0 16 16"><path fill="currentColor" d="M15.897 9c.125.867.207 2.053-.182 2.507c-.643.751-4.714.751-4.714-.751c0-.756.67-1.252.027-2.003c-.632-.738-1.766-.75-3.027-.751s-2.394.012-3.027.751c-.643.751.027 1.247.027 2.003c0 1.501-4.071 1.501-4.714.751C-.102 11.053-.02 9.867.105 9c.096-.579.339-1.203 1.118-2c1.168-1.09 2.935-1.98 6.716-2h.126c3.781.019 5.548.91 6.716 2c.778.797 1.022 1.421 1.118 2z"/></symbol><symbol id="hd-icon-icomoon-free-pie-chart" viewBox="0 0 16 16"><path fill="currentColor" d="M7 9V2a7 7 0 1 0 6.262 3.869zm7.262-5.131A7 7 0 0 0 8 0v7z"/></symbol><symbol id="hd-icon-icomoon-free-pilcrow" viewBox="0 0 16 16"><path fill="currentColor" d="M6 0h8v2h-2v14h-2V2H8v14H6V8a4 4 0 0 1 0-8"/></symbol><symbol id="hd-icon-icomoon-free-pinterest" viewBox="0 0 16 16"><path fill="currentColor" d="M8 1.069a6.93 6.93 0 0 0-2.525 13.384c-.059-.547-.116-1.391.025-1.988c.125-.541.813-3.444.813-3.444s-.206-.416-.206-1.028c0-.963.559-1.684 1.253-1.684c.591 0 .878.444.878.975c0 .594-.378 1.484-.575 2.306c-.166.691.344 1.253 1.025 1.253c1.231 0 2.178-1.3 2.178-3.175c0-1.659-1.194-2.819-2.894-2.819c-1.972 0-3.128 1.478-3.128 3.009c0 .597.228 1.234.516 1.581c.056.069.066.128.047.2l-.194.787c-.031.128-.1.153-.231.094c-.866-.403-1.406-1.669-1.406-2.684c0-2.188 1.587-4.194 4.578-4.194c2.403 0 4.272 1.712 4.272 4.003c0 2.388-1.506 4.313-3.597 4.313c-.703 0-1.362-.366-1.588-.797c0 0-.347 1.322-.431 1.647c-.156.603-.578 1.356-.862 1.816a6.93 6.93 0 0 0 8.984-6.622a6.93 6.93 0 0 0-6.931-6.934z"/></symbol><symbol id="hd-icon-icomoon-free-pinterest2" viewBox="0 0 16 16"><path fill="currentColor" d="M8 0C3.588 0 0 3.587 0 8s3.587 8 8 8s8-3.588 8-8s-3.588-8-8-8m0 14.931a7 7 0 0 1-2.053-.309c.281-.459.706-1.216.862-1.816c.084-.325.431-1.647.431-1.647c.225.431.888.797 1.587.797c2.091 0 3.597-1.922 3.597-4.313c0-2.291-1.869-4.003-4.272-4.003c-2.991 0-4.578 2.009-4.578 4.194c0 1.016.541 2.281 1.406 2.684c.131.063.2.034.231-.094c.022-.097.141-.566.194-.787a.21.21 0 0 0-.047-.2c-.287-.347-.516-.988-.516-1.581c0-1.528 1.156-3.009 3.128-3.009c1.703 0 2.894 1.159 2.894 2.819c0 1.875-.947 3.175-2.178 3.175c-.681 0-1.191-.563-1.025-1.253c.197-.825.575-1.713.575-2.306c0-.531-.284-.975-.878-.975c-.697 0-1.253.719-1.253 1.684c0 .612.206 1.028.206 1.028s-.688 2.903-.813 3.444c-.141.6-.084 1.441-.025 1.988a6.92 6.92 0 0 1-4.406-6.45a6.93 6.93 0 1 1 6.931 6.931z"/></symbol><symbol id="hd-icon-icomoon-free-play" viewBox="0 0 16 16"><path fill="currentColor" d="M15.331 2.502C13.087 2.179 10.607 2 8 2s-5.087.179-7.331.502C.239 4.185 0 6.045 0 8s.239 3.815.669 5.498C2.913 13.821 5.393 14 8 14s5.087-.179 7.331-.502C15.761 11.815 16 9.955 16 8s-.239-3.815-.669-5.498M6 11V5l5 3z"/></symbol><symbol id="hd-icon-icomoon-free-play2" viewBox="0 0 16 16"><path fill="currentColor" d="M8 0a8 8 0 1 0 0 16A8 8 0 0 0 8 0m0 14.5a6.5 6.5 0 1 1 0-13a6.5 6.5 0 0 1 0 13m-2-10L12 8l-6 3.5z"/></symbol><symbol id="hd-icon-icomoon-free-play3" viewBox="0 0 16 16"><path fill="currentColor" d="m3 2l10 6l-10 6z"/></symbol><symbol id="hd-icon-icomoon-free-plus" viewBox="0 0 16 16"><path fill="currentColor" d="M15.5 6H10V.5a.5.5 0 0 0-.5-.5h-3a.5.5 0 0 0-.5.5V6H.5a.5.5 0 0 0-.5.5v3a.5.5 0 0 0 .5.5H6v5.5a.5.5 0 0 0 .5.5h3a.5.5 0 0 0 .5-.5V10h5.5a.5.5 0 0 0 .5-.5v-3a.5.5 0 0 0-.5-.5"/></symbol><symbol id="hd-icon-icomoon-free-podcast" viewBox="0 0 16 16"><path fill="currentColor" d="M16 8a8 8 0 1 0-10.786 7.501L5 16h6l-.214-.499A8 8 0 0 0 16 8M7.606 9.919a1 1 0 1 1 .788 0L8 9zm.804.039a2 2 0 1 0-.82-.001l-1.166 2.721A4 4 0 0 1 4 9.001c0-2.209 1.791-4.188 4-4.188s4 1.978 4 4.188a4 4 0 0 1-2.424 3.677zm2.347 5.475l-1.155-2.695A5.002 5.002 0 0 0 8 3a5 5 0 0 0-1.602 9.738l-1.155 2.695A7 7 0 0 1 1.003 9c0-3.865 3.133-7.185 6.997-7.185S14.997 5.135 14.997 9a7 7 0 0 1-4.24 6.433"/></symbol><symbol id="hd-icon-icomoon-free-point-down" viewBox="0 0 16 16"><path fill="currentColor" d="M15 6.5V9a1.502 1.502 0 0 1-2.236 1.307a1.5 1.5 0 0 1-2.264.31a1.5 1.5 0 0 1-1.5.297V14.5c0 .827-.673 1.5-1.5 1.5S6 15.327 6 14.5V8.333L3.25 9.799a1.502 1.502 0 0 1-1.789-2.381l.012-.011L5.21 4H4.5a.5.5 0 0 1-.5-.5v-3a.5.5 0 0 1 .5-.5h10a.5.5 0 0 1 .5.5v3a.5.5 0 0 1-.5.5h-.691l1.138 2.276A.5.5 0 0 1 15 6.5m-1-4a.5.5 0 1 0-1 0a.5.5 0 0 0 1 0m0 4.118L12.691 4H6.694L2.15 8.143a.5.5 0 0 0 .614.782l3.5-1.866a.502.502 0 0 1 .735.442v7a.5.5 0 0 0 1 0v-5a.5.5 0 0 1 1 0a.5.5 0 0 0 1 0a.5.5 0 0 1 1 0a.5.5 0 0 0 1 0v-.5a.5.5 0 0 1 1 0a.5.5 0 0 0 1 0V6.619z"/></symbol><symbol id="hd-icon-icomoon-free-point-left" viewBox="0 0 16 16"><path fill="currentColor" d="M9.5 15H7a1.502 1.502 0 0 1-1.307-2.236a1.5 1.5 0 0 1-.31-2.264A1.5 1.5 0 0 1 5.086 9H1.5C.673 9 0 8.327 0 7.5S.673 6 1.5 6h6.167L6.201 3.25a1.502 1.502 0 0 1 2.381-1.789l.011.012L12 5.21V4.5a.5.5 0 0 1 .5-.5h3a.5.5 0 0 1 .5.5v10a.5.5 0 0 1-.5.5h-3a.5.5 0 0 1-.5-.5v-.691l-2.276 1.138A.5.5 0 0 1 9.5 15m4-1a.5.5 0 1 0 0-1a.5.5 0 0 0 0 1m-4.118 0L12 12.691V6.694L7.857 2.15a.5.5 0 0 0-.782.614l1.866 3.5a.5.5 0 0 1-.441.735h-7a.5.5 0 0 0 0 1h5a.5.5 0 0 1 0 1a.5.5 0 0 0 0 1a.5.5 0 0 1 0 1a.5.5 0 0 0 0 1H7a.5.5 0 0 1 0 1a.5.5 0 0 0 0 1h2.382z"/></symbol><symbol id="hd-icon-icomoon-free-point-right" viewBox="0 0 16 16"><path fill="currentColor" d="M6.5 15H9a1.502 1.502 0 0 0 1.307-2.236a1.5 1.5 0 0 0 .31-2.264a1.5 1.5 0 0 0 .297-1.5H14.5c.827 0 1.5-.673 1.5-1.5S15.327 6 14.5 6H8.333l1.466-2.75a1.502 1.502 0 0 0-2.381-1.789l-.011.012L4 5.21V4.5a.5.5 0 0 0-.5-.5h-3a.5.5 0 0 0-.5.5v10a.5.5 0 0 0 .5.5h3a.5.5 0 0 0 .5-.5v-.691l2.276 1.138A.5.5 0 0 0 6.5 15m-4-1a.5.5 0 1 1 0-1a.5.5 0 0 1 0 1m4.118 0L4 12.691V6.694L8.143 2.15a.5.5 0 0 1 .782.614l-1.866 3.5a.502.502 0 0 0 .442.735h7a.5.5 0 0 1 0 1h-5a.5.5 0 0 0 0 1a.5.5 0 0 1 0 1a.5.5 0 0 0 0 1a.5.5 0 0 1 0 1h-.5a.5.5 0 0 0 0 1a.5.5 0 0 1 0 1H6.619z"/></symbol><symbol id="hd-icon-icomoon-free-point-up" viewBox="0 0 16 16"><path fill="currentColor" d="M15 9.5V7a1.502 1.502 0 0 0-2.236-1.307a1.5 1.5 0 0 0-2.264-.31A1.5 1.5 0 0 0 9 5.086V1.5C9 .673 8.327 0 7.5 0S6 .673 6 1.5v6.167L3.25 6.201a1.502 1.502 0 0 0-1.789 2.381l.012.011L5.21 12H4.5a.5.5 0 0 0-.5.5v3a.5.5 0 0 0 .5.5h10a.5.5 0 0 0 .5-.5v-3a.5.5 0 0 0-.5-.5h-.691l1.138-2.276A.5.5 0 0 0 15 9.5m-1 4a.5.5 0 1 1-1 0a.5.5 0 0 1 1 0m0-4.118L12.691 12H6.694L2.15 7.857a.5.5 0 0 1 .614-.782l3.5 1.866a.5.5 0 0 0 .735-.441v-7a.5.5 0 0 1 1 0v5a.5.5 0 0 0 1 0a.5.5 0 0 1 1 0a.5.5 0 0 0 1 0a.5.5 0 0 1 1 0V7a.5.5 0 0 0 1 0a.5.5 0 0 1 1 0v2.382z"/></symbol><symbol id="hd-icon-icomoon-free-power" viewBox="0 0 16 16"><path fill="currentColor" d="M6 0L0 8h6l-4 8L16 6H8l6-6z"/></symbol><symbol id="hd-icon-icomoon-free-power-cord" viewBox="0 0 16 16"><path fill="currentColor" d="M16 4.414L14.586 3l-2.793 2.793l-1.586-1.586L13 1.414L11.586 0L8.793 2.793L7 1L5.646 2.353l8 8L15 9l-1.793-1.793zm-3.593 6.114L5.472 3.593C3.975 5.388 2.276 8.163 3.45 10.55l-2.066 2.066a1.254 1.254 0 0 0 0 1.768l.232.232a1.254 1.254 0 0 0 1.768 0L5.45 12.55c2.387 1.174 5.161-.524 6.957-2.022"/></symbol><symbol id="hd-icon-icomoon-free-previous" viewBox="0 0 16 16"><path fill="currentColor" d="M8 0a8 8 0 1 0 0 16A8 8 0 0 0 8 0m0 14.5a6.5 6.5 0 1 1 0-13a6.5 6.5 0 0 1 0 13"/><path fill="currentColor" d="m7 8l4-3v6zM5 5h2v6H5z"/></symbol><symbol id="hd-icon-icomoon-free-previous2" viewBox="0 0 16 16"><path fill="currentColor" d="M4 14V2h2v5.5l5-5v11l-5-5V14z"/></symbol><symbol id="hd-icon-icomoon-free-price-tag" viewBox="0 0 16 16"><path fill="currentColor" d="M15.25 0h-6c-.412 0-.989.239-1.28.53L.531 7.969a.75.75 0 0 0 0 1.061l6.439 6.439a.75.75 0 0 0 1.061 0L15.47 8.03c.292-.292.53-.868.53-1.28v-6a.753.753 0 0 0-.75-.75M11.5 6a1.5 1.5 0 1 1 .001-3.001A1.5 1.5 0 0 1 11.5 6"/></symbol><symbol id="hd-icon-icomoon-free-price-tags" viewBox="0 0 20 16"><path fill="currentColor" d="M19.25 0h-6c-.412 0-.989.239-1.28.53L4.531 7.969a.75.75 0 0 0 0 1.061l6.439 6.439a.75.75 0 0 0 1.061 0L19.47 8.03c.292-.292.53-.868.53-1.28v-6a.75.75 0 0 0-.75-.75M15.5 6a1.5 1.5 0 1 1 .001-3.001A1.5 1.5 0 0 1 15.5 6"/><path fill="currentColor" d="M2 8.5L10.5 0H9.25c-.412 0-.989.239-1.28.53L.531 7.969a.75.75 0 0 0 0 1.061l6.439 6.439a.75.75 0 0 0 1.061 0l.47-.47z"/></symbol><symbol id="hd-icon-icomoon-free-printer" viewBox="0 0 16 16"><path fill="currentColor" d="M4 1h8v2H4zm11 3H1c-.55 0-1 .45-1 1v5c0 .55.45 1 1 1h3v4h8v-4h3c.55 0 1-.45 1-1V5c0-.55-.45-1-1-1M2 7a1 1 0 1 1 0-2a1 1 0 0 1 0 2m9 7H5V9h6z"/></symbol><symbol id="hd-icon-icomoon-free-profile" viewBox="0 0 16 16"><path fill="currentColor" d="M13.5 0h-12C.675 0 0 .675 0 1.5v13c0 .825.675 1.5 1.5 1.5h12c.825 0 1.5-.675 1.5-1.5v-13c0-.825-.675-1.5-1.5-1.5M13 14H2V2h11zM4 9h7v1H4zm0 2h7v1H4zm1-6.5a1.5 1.5 0 1 1 3.001.001A1.5 1.5 0 0 1 5 4.5M7.5 6h-2C4.675 6 4 6.45 4 7v1h5V7c0-.55-.675-1-1.5-1"/></symbol><symbol id="hd-icon-icomoon-free-pushpin" viewBox="0 0 16 16"><path fill="currentColor" d="M8.5 0L7 1.5L8.5 3L5 7H1.5l2.75 2.75L0 15.385V16h.615l5.635-4.25L9 14.5V11l4-3.5L14.5 9L16 7.5zM7 8.5l-1-1L9.5 4l1 1z"/></symbol><symbol id="hd-icon-icomoon-free-qrcode" viewBox="0 0 16 16"><path fill="currentColor" d="M5 1H1v4h4zm1-1v6H0V0zM2 2h2v2H2zm13-1h-4v4h4zm1-1v6h-6V0zm-4 2h2v2h-2zm-7 9H1v4h4zm1-1v6H0v-6zm-4 2h2v2H2zM7 0h1v1H7zm1 1h1v1H8zM7 2h1v1H7zm1 1h1v1H8zM7 4h1v1H7zm1 1h1v1H8zM7 6h1v1H7zm0 2h1v1H7zm1 1h1v1H8zm-1 1h1v1H7zm1 1h1v1H8zm-1 1h1v1H7zm1 1h1v1H8zm-1 1h1v1H7zm1 1h1v1H8zm7-7h1v1h-1zM1 8h1v1H1zm1-1h1v1H2zM0 7h1v1H0zm4 0h1v1H4zm1 1h1v1H5zm1-1h1v1H6zm3 1h1v1H9zm1-1h1v1h-1zm1 1h1v1h-1zm1-1h1v1h-1zm1 1h1v1h-1zm1-1h1v1h-1zm1 3h1v1h-1zm-6 0h1v1H9zm1-1h1v1h-1zm1 1h1v1h-1zm2 0h1v1h-1zm1-1h1v1h-1zm1 3h1v1h-1zm-6 0h1v1H9zm1-1h1v1h-1zm2 0h1v1h-1zm1 1h1v1h-1zm1-1h1v1h-1zm1 3h1v1h-1zm-5-1h1v1h-1zm1 1h1v1h-1zm1-1h1v1h-1zm1 1h1v1h-1zm-3 1h1v1h-1zm2 0h1v1h-1zm2 0h1v1h-1z"/></symbol><symbol id="hd-icon-icomoon-free-question" viewBox="0 0 16 16"><path fill="currentColor" d="M7 11h2v2H7zm4-7a1 1 0 0 1 1 1v3l-3 2H7V9l3-2V6H5V4zM8 1.5c-1.736 0-3.369.676-4.596 1.904S1.5 6.264 1.5 8s.676 3.369 1.904 4.596S6.264 14.5 8 14.5s3.369-.676 4.596-1.904S14.5 9.736 14.5 8s-.676-3.369-1.904-4.596S9.736 1.5 8 1.5M8 0a8 8 0 1 1 0 16A8 8 0 0 1 8 0"/></symbol><symbol id="hd-icon-icomoon-free-quill" viewBox="0 0 16 16"><path fill="currentColor" d="M0 16C2 10 7.234 0 16 0c-4.109 3.297-6 11-9 11H4l-3 5z"/></symbol><symbol id="hd-icon-icomoon-free-quotes-left" viewBox="0 0 16 16"><path fill="currentColor" d="M3.516 7a3.5 3.5 0 1 1-3.5 3.5L0 10a7 7 0 0 1 7-7v2a4.97 4.97 0 0 0-3.536 1.464a5 5 0 0 0-.497.578q.269-.043.548-.043zm9 0a3.5 3.5 0 1 1-3.5 3.5L9 10a7 7 0 0 1 7-7v2a4.97 4.97 0 0 0-3.536 1.464a5 5 0 0 0-.497.578q.269-.043.549-.043z"/></symbol><symbol id="hd-icon-icomoon-free-quotes-right" viewBox="0 0 16 16"><path fill="currentColor" d="M12.5 10A3.5 3.5 0 1 1 16 6.5l.016.5a7 7 0 0 1-7 7v-2a4.97 4.97 0 0 0 3.536-1.464a5 5 0 0 0 .497-.578a3.6 3.6 0 0 1-.549.043zm-9 0A3.5 3.5 0 1 1 7 6.5l.016.5a7 7 0 0 1-7 7v-2a4.97 4.97 0 0 0 3.536-1.464a5 5 0 0 0 .497-.578a3.6 3.6 0 0 1-.549.043z"/></symbol><symbol id="hd-icon-icomoon-free-radio-checked" viewBox="0 0 16 16"><path fill="currentColor" d="M8 0a8 8 0 1 0 0 16A8 8 0 0 0 8 0m0 14A6 6 0 1 1 8 2a6 6 0 0 1 0 12M5 8a3 3 0 1 1 6 0a3 3 0 0 1-6 0"/></symbol><symbol id="hd-icon-icomoon-free-radio-checked2" viewBox="0 0 16 16"><path fill="currentColor" d="M8 0a8 8 0 1 0 0 16A8 8 0 0 0 8 0m0 10a2 2 0 1 1-.001-3.999A2 2 0 0 1 8 10"/></symbol><symbol id="hd-icon-icomoon-free-radio-unchecked" viewBox="0 0 16 16"><path fill="currentColor" d="M8 0a8 8 0 1 0 0 16A8 8 0 0 0 8 0m0 14A6 6 0 1 1 8 2a6 6 0 0 1 0 12"/></symbol><symbol id="hd-icon-icomoon-free-reddit" viewBox="0 0 16 16"><path fill="currentColor" d="M4 10a1 1 0 1 1 2 0a1 1 0 0 1-2 0m6 0a1 1 0 1 1 2 0a1 1 0 0 1-2 0m.049 2.137a.593.593 0 1 1 .735.933c-.717.565-1.81.93-2.783.93s-2.066-.365-2.784-.93a.593.593 0 1 1 .735-.933c.413.325 1.23.675 2.049.675s1.636-.35 2.049-.675zM16 8a2 2 0 0 0-3.748-.972c-1.028-.562-2.28-.926-3.645-1.01L9.8 3.338l2.284.659a1.5 1.5 0 1 0 .094-1.209l-2.545-.735a.59.59 0 0 0-.707.329L7.305 6.023c-1.33.094-2.551.453-3.557 1.004a2 2 0 1 0-2.555 2.802A3.7 3.7 0 0 0 1 10.999c0 2.761 3.134 5 7 5s7-2.239 7-5c0-.403-.067-.795-.193-1.17A2 2 0 0 0 16 7.999zm-2.5-5.062a.563.563 0 1 1 0 1.126a.563.563 0 0 1 0-1.126M1 8a1 1 0 0 1 1.904-.427a5.3 5.3 0 0 0-1.276 1.355A1 1 0 0 1 1 8m7 6.813c-3.21 0-5.813-1.707-5.813-3.813S4.789 7.187 8 7.187S13.813 8.894 13.813 11S11.211 14.813 8 14.813m6.372-5.885a5.3 5.3 0 0 0-1.276-1.355C13.257 7.235 13.601 7 14 7a1.001 1.001 0 0 1 .372 1.928"/></symbol><symbol id="hd-icon-icomoon-free-redo" viewBox="0 0 16 16"><path fill="currentColor" d="M0 9a7.98 7.98 0 0 0 2.709 6l1.323-1.5a6 6 0 1 1 8.212-8.743L10.001 7h6V1l-2.343 2.343A8 8 0 0 0 .001 9z"/></symbol><symbol id="hd-icon-icomoon-free-redo2" viewBox="0 0 16 16"><path fill="currentColor" d="M9 3.881V0l6 6l-6 6V8.034C2.02 7.87 2.319 12.781 4.096 16C-.29 11.259.641 3.663 9 3.881"/></symbol><symbol id="hd-icon-icomoon-free-renren" viewBox="0 0 16 16"><path fill="currentColor" d="M6.644.166C2.875.8 0 4.079 0 8.028a7.96 7.96 0 0 0 1.887 5.15c2.791-1.35 4.744-4.406 4.756-7.966zm2.712 0C13.125.8 16 4.079 16 8.028a7.96 7.96 0 0 1-1.887 5.15c-2.791-1.35-4.744-4.406-4.756-7.966zm-1.384 9.875c-.497 2.056-1.981 3.813-3.828 4.981c1.138.622 2.441.978 3.828.978s2.691-.356 3.828-.978c-1.847-1.169-3.331-2.925-3.828-4.981"/></symbol><symbol id="hd-icon-icomoon-free-reply" viewBox="0 0 16 16"><path fill="currentColor" d="M7 12.119V16l-6-6l6-6v3.966c6.98.164 6.681-4.747 4.904-7.966C16.29 4.741 15.359 12.337 7 12.119"/></symbol><symbol id="hd-icon-icomoon-free-road" viewBox="0 0 16 16"><path fill="currentColor" d="M11 16h5L12 0H9l.5 4h-3L7 0H4L0 16h5l.5-4h5zm-5.25-6l.5-4h3.5l.5 4z"/></symbol><symbol id="hd-icon-icomoon-free-rocket" viewBox="0 0 16 16"><path fill="currentColor" d="M11 1L6 6H3l-3 4s3.178-.885 5.032-.47L0 16l6.592-5.127C7.511 12.977 6 16 6 16l4-3v-3l5-5l1-5z"/></symbol><symbol id="hd-icon-icomoon-free-rss" viewBox="0 0 16 16"><path fill="currentColor" d="M2.13 11.733c-1.175 0-2.13.958-2.13 2.126c0 1.174.955 2.122 2.13 2.122a2.126 2.126 0 0 0 2.133-2.122a2.133 2.133 0 0 0-2.133-2.126M.002 5.436v3.067c1.997 0 3.874.781 5.288 2.196a7.45 7.45 0 0 1 2.192 5.302h3.08c0-5.825-4.739-10.564-10.56-10.564zM.006 0v3.068C7.128 3.068 12.924 8.87 12.924 16H16C16 7.18 8.824 0 .006 0"/></symbol><symbol id="hd-icon-icomoon-free-rss2" viewBox="0 0 16 16"><path fill="currentColor" d="M14.5 0h-13C.675 0 0 .675 0 1.5v13c0 .825.675 1.5 1.5 1.5h13c.825 0 1.5-.675 1.5-1.5v-13c0-.825-.675-1.5-1.5-1.5M4.359 12.988c-.75 0-1.359-.603-1.359-1.353a1.36 1.36 0 0 1 2.718 0c0 .75-.609 1.353-1.359 1.353M7.772 13a4.75 4.75 0 0 0-1.397-3.381A4.74 4.74 0 0 0 3 8.219V6.263c3.713 0 6.738 3.022 6.738 6.737zm3.472 0c0-4.547-3.697-8.25-8.241-8.25V2.794c5.625 0 10.203 4.581 10.203 10.206h-1.963z"/></symbol><symbol id="hd-icon-icomoon-free-rtl" viewBox="0 0 16 16"><path fill="currentColor" d="M4 0a4 4 0 0 0 0 8v8h2V2h2v14h2V2h2V0zm12 3l-4 4l4 4z"/></symbol><symbol id="hd-icon-icomoon-free-sad" viewBox="0 0 16 16"><path fill="currentColor" d="M8 16A8 8 0 1 0 8 0a8 8 0 0 0 0 16M8 1.5a6.5 6.5 0 1 1 0 13a6.5 6.5 0 0 1 0-13M4 5a1 1 0 1 1 2 0a1 1 0 0 1-2 0m6 0a1 1 0 1 1 2 0a1 1 0 0 1-2 0m-5.002 7.199l-1.286-.772C4.586 9.973 6.179 9 8 9s3.413.973 4.288 2.427l-1.286.772C10.39 11.181 9.275 10.5 8 10.5s-2.389.681-3.002 1.699"/></symbol><symbol id="hd-icon-icomoon-free-sad2" viewBox="0 0 16 16"><path fill="currentColor" d="M8 0a8 8 0 1 0 0 16A8 8 0 0 0 8 0m3 4a1 1 0 1 1 0 2a1 1 0 0 1 0-2M5 4a1 1 0 1 1 0 2a1 1 0 0 1 0-2m6.002 8.199C10.39 11.181 9.275 10.5 8 10.5s-2.389.681-3.002 1.699l-1.286-.772C4.586 9.973 6.179 9 8 9s3.414.973 4.288 2.427z"/></symbol><symbol id="hd-icon-icomoon-free-safari" viewBox="0 0 16 16"><path fill="currentColor" d="M8 0C3.581 0 0 3.581 0 8s3.581 8 8 8s8-3.581 8-8s-3.581-8-8-8m6.975 7.388l-.016-.166q.005.082.016.166M13.881 4.2l-.113-.169zm-.434-.597l-.069-.084q.037.042.069.084m-.969-.984l-.084-.069zm-.509-.388l-.169-.112zM8.778 1.044l-.169-.016q.084.005.169.016m-1.39-.019l-.169.016q.084-.005.169-.016M4.2 2.119l-.169.112zm-.597.434l-.081.066zm-.984.969l-.069.084q.037-.042.069-.084m-.388.509l-.112.169zM1.044 7.222l-.016.169q.005-.084.016-.169m-.019 1.391l.016.169a2 2 0 0 0-.016-.169m1.094 3.184l.112.169a3 3 0 0 1-.112-.169m.131.197l1.247-.834l-.138-.209l-1.247.834A6.9 6.9 0 0 1 1.049 8.81l.747-.075l-.025-.25l-.747.075a7 7 0 0 1-.022-.438h1.5v-.25h-1.5a6 6 0 0 1 .022-.438l.747.072l.025-.25l-.747-.072a6.94 6.94 0 0 1 1.066-2.975l1.247.834l.138-.209l-1.25-.828q.125-.18.259-.35l.578.475l.159-.194l-.578-.475q.142-.167.294-.325l1.059 1.059l.178-.178L3.14 2.959q.158-.151.322-.294l.475.581l.194-.159l-.475-.578q.173-.136.35-.263l.834 1.247l.209-.138l-.834-1.247A6.94 6.94 0 0 1 7.19 1.045l.075.747l.25-.025l-.075-.747q.217-.018.438-.022v1.5h.25v-1.5q.219.003.438.022l-.072.747l.25.025l.072-.747a6.94 6.94 0 0 1 2.975 1.066l-.834 1.247l.209.138L12 2.249q.18.125.35.259l-.475.578l.194.159l.475-.578q.168.142.325.294l-.4.391L7 6.999l-3.647 5.469l-.391.391a10 10 0 0 1-.294-.322l.578-.475l-.159-.194l-.578.475a7 7 0 0 1-.259-.35zm.369.484l-.066-.081zm.903.903l.081.066zm.509.385l.169.113a3 3 0 0 1-.169-.113m3.191 1.19l.169.016a3 3 0 0 1-.169-.016m1.391.019l.166-.016a2 2 0 0 0-.166.016m3.187-1.094l.169-.113zm.597-.434l.084-.069q-.042.037-.084.069m.547-.491l.012-.012zm.437-.478l.069-.084q-.037.042-.069.084m.11-.134l-.578-.475l-.159.194l.578.475q-.143.168-.294.325l-1.059-1.059l-.178.178l1.059 1.059q-.159.151-.322.294l-.475-.581l-.194.159l.475.578a9 9 0 0 1-.35.262l-.834-1.247l-.209.137l.834 1.247a6.9 6.9 0 0 1-2.975 1.063l-.075-.747l-.25.025l.075.747a7 7 0 0 1-.438.022v-1.5h-.25V15a6 6 0 0 1-.438-.022l.072-.747l-.25-.025l-.072.747a6.94 6.94 0 0 1-2.975-1.066l.834-1.247l-.209-.137l-.828 1.247a8 8 0 0 1-.35-.259l.475-.578l-.194-.159l-.475.578a8 8 0 0 1-.325-.294l.394-.391L9 9l3.647-5.469l.391-.391q.151.158.294.322l-.578.475l.159.194l.578-.475q.136.173.262.35l-1.247.834l.137.209l1.247-.834a6.94 6.94 0 0 1 1.063 2.975l-.747.075l.025.25l.747-.075q.018.217.022.438h-1.5v.25H15a6 6 0 0 1-.022.438l-.747-.072l-.025.25l.747.072a6.94 6.94 0 0 1-1.066 2.975l-1.247-.834l-.137.209L13.75 12q-.123.17-.259.344m1.484-3.735l-.016.169zM13.881 11.8l-.113.169z"/><path fill="currentColor" d="m6.758 1.111l.293 1.471l-.245.049l-.293-1.471zM9.245 14.89l-.293-1.471l.245-.049l.293 1.471zM6.088 1.264l.218.718l-.239.073l-.218-.718zm3.825 13.469l-.218-.718l.239-.073l.218.718zM5.438 1.486l.574 1.386l-.231.096l-.574-1.386zm5.126 13.029l-.574-1.386l.231-.096l.574 1.386zM4.588 1.885l.22-.118l.354.661l-.22.118zm6.82 12.229l-.22.118l-.354-.661l.22-.118zM1.884 4.591l.662.353l-.118.221l-.661-.353zm12.229 6.818l-.662-.353l.118-.22l.662.353zM2.872 6.01l-1.386-.574l.096-.231l1.386.574zM13.13 9.989l1.386.574l-.096.231l-1.386-.574zM1.337 5.85l.718.218l-.073.239l-.718-.218zm13.324 4.301l-.718-.218l.073-.239l.718.218zM1.157 6.512l1.471.293l-.049.245l-1.471-.293zM14.84 9.488l-1.471-.293l.049-.245l1.471.293zM1.109 9.243L2.58 8.95l.049.245l-1.471.293zm13.779-2.486l-1.471.293l-.049-.245l1.471-.293zM1.265 9.914l.718-.218l.073.239l-.718.218zm13.469-3.825l-.718.218l-.073-.239l.718-.218zM1.58 10.796l-.096-.231l1.386-.574l.096.231zm12.839-5.589l.096.231l-1.386.574l-.096-.231zM1.888 11.41l-.118-.22l.661-.354l.118.22zm12.228-6.82l.118.22l-.661.354l-.118-.22zm-9.305 9.642l-.22-.118l.354-.661l.22.118zm6.378-12.465l.22.118l-.353.661l-.22-.118zM5.207 14.419l.574-1.386l.231.096l-.574 1.386zM10.795 1.58l-.574 1.386l-.231-.096l.574-1.386zM6.088 14.735l-.239-.073l.218-.718l.239.073zM9.912 1.264l.239.073l-.218.718l-.239-.073zM6.757 14.888l-.245-.049l.293-1.471l.245.049zM9.243 1.109l.245.049l-.293 1.471l-.245-.049z"/></symbol><symbol id="hd-icon-icomoon-free-scissors" viewBox="0 0 16 16"><path fill="currentColor" d="M14.279 10.62c-1.042-1.628-2.829-2.345-3.992-1.601q-.15.097-.277.218L8.769 7.295l2.867-4.5c.235-.433.321-.949.207-1.468A2.12 2.12 0 0 0 11.091.12l-.192-.122l-3.398 5.314L4.103-.002L3.911.12a2.12 2.12 0 0 0-.545 2.675l2.867 4.5l-1.241 1.942a2 2 0 0 0-.277-.218c-1.163-.744-2.95-.028-3.992 1.601s-.944 3.551.219 4.296c1.163.744 2.95.028 3.992-1.601l2.567-4.029l2.567 4.029c1.042 1.628 2.829 2.345 3.992 1.601s1.261-2.667.219-4.296M3.67 12.507c-.469.733-1.071 1.089-1.478 1.179c-.133.029-.317.047-.443-.033c-.139-.089-.231-.324-.247-.629c-.025-.494.151-1.076.483-1.594c.469-.733 1.071-1.089 1.478-1.179c.133-.029.317-.047.443.033c.139.089.231.324.247.629c.025.495-.151 1.076-.483 1.594M7.5 8a.5.5 0 1 1 0-1a.5.5 0 0 1 0 1m5.998 5.023c-.016.305-.108.54-.247.629c-.125.08-.31.062-.443.033c-.407-.089-1.009-.446-1.478-1.179c-.332-.519-.508-1.1-.483-1.594c.016-.305.108-.54.247-.629c.125-.08.31-.062.443-.033c.407.089 1.009.446 1.478 1.179c.332.519.508 1.1.483 1.594"/></symbol><symbol id="hd-icon-icomoon-free-search" viewBox="0 0 16 16"><path fill="currentColor" d="m15.504 13.616l-3.79-3.223c-.392-.353-.811-.514-1.149-.499a6 6 0 1 0-.672.672c-.016.338.146.757.499 1.149l3.223 3.79c.552.613 1.453.665 2.003.115s.498-1.452-.115-2.003zM6 10a4 4 0 1 1 0-8a4 4 0 0 1 0 8"/></symbol><symbol id="hd-icon-icomoon-free-section" viewBox="0 0 16 16"><path fill="currentColor" d="M7.749 16c-.771 0-1.424-.225-1.939-.669c-.519-.447-.782-.969-.782-1.552a.98.98 0 0 1 .307-.726c.207-.202.465-.309.748-.309c.281 0 .534.1.732.29c.195.187.294.435.294.736q0 .267-.086.58a1.5 1.5 0 0 0-.068.364c0 .058.014.126.121.199c.199.138.439.204.732.204c.353 0 .667-.123.962-.375c.29-.249.431-.505.431-.782c0-.308-.082-.575-.252-.816c-.287-.402-.826-.874-1.603-1.401c-1.248-.835-2.079-1.559-2.54-2.211c-.358-.511-.539-1.061-.539-1.636c0-.579.19-1.155.564-1.713c.32-.477.794-.908 1.41-1.283q-.496-.534-.736-.995a2.6 2.6 0 0 1-.303-1.189c0-.747.295-1.393.878-1.92S7.39.001 8.241.001c.783 0 1.441.22 1.956.654c.521.439.785.952.785 1.524q0 .44-.324.776l-.004.004c-.125.124-.353.271-.735.271c-.299 0-.561-.098-.758-.283a.88.88 0 0 1-.296-.656c0-.108.027-.272.084-.515q.042-.173.042-.316a.48.48 0 0 0-.183-.39C8.679.962 8.494.909 8.243.909c-.389 0-.708.118-.975.361s-.399.533-.399.883q0 .474.212.771c.267.374.731.778 1.378 1.201c1.315.853 2.233 1.636 2.727 2.325c.365.518.549 1.068.549 1.637c0 .572-.186 1.148-.552 1.714c-.316.487-.793.926-1.42 1.308c.347.367.591.688.743.977c.189.359.284.751.284 1.165c0 .776-.296 1.435-.879 1.96s-1.31.79-2.161.79zM6.975 5.568c-.753.452-1.12.972-1.12 1.583c0 .356.102.674.31.973c.311.436.926.97 1.825 1.583q.572.39 1.025.751c.767-.461 1.14-.974 1.14-1.565q0-.485-.378-1.03c-.263-.378-.826-.872-1.674-1.467a21 21 0 0 1-1.128-.827z"/></symbol><symbol id="hd-icon-icomoon-free-share" viewBox="0 0 16 16"><path fill="currentColor" d="M4 10s.919-3 6-3v3l6-4l-6-4v3c-4 0-6 2.495-6 5m7 2H2V6h1.967q.237-.28.508-.534A6.9 6.9 0 0 1 6.914 4H0v10h13V9.803l-2 1.333z"/></symbol><symbol id="hd-icon-icomoon-free-share2" viewBox="0 0 16 16"><path fill="currentColor" d="M13.5 11c-.706 0-1.342.293-1.797.763L4.969 8.396a2.5 2.5 0 0 0 0-.792l6.734-3.367a2.5 2.5 0 1 0-.672-1.341L4.297 6.263a2.5 2.5 0 1 0 0 3.474l6.734 3.367A2.5 2.5 0 1 0 13.5 11"/></symbol><symbol id="hd-icon-icomoon-free-shield" viewBox="0 0 16 16"><path fill="currentColor" d="M15 0L8 2L1 0S.93.808 1 2l7 2.189L15 2c.07-1.192 0-2 0-2M1.128 3.049C1.503 6.966 2.901 13.553 8 16c5.099-2.448 6.497-9.034 6.872-12.951L8 5.633z"/></symbol><symbol id="hd-icon-icomoon-free-shift" viewBox="0 0 16 16"><path fill="currentColor" d="M10.5 14h-5a.5.5 0 0 1-.5-.5V8H3a.5.5 0 0 1-.354-.854l5-5a.5.5 0 0 1 .707 0l5 5a.499.499 0 0 1-.354.854h-2v5.5a.5.5 0 0 1-.5.5zM6 13h4V7.5a.5.5 0 0 1 .5-.5h1.293L8 3.207L4.207 7H5.5a.5.5 0 0 1 .5.5z"/></symbol><symbol id="hd-icon-icomoon-free-shocked" viewBox="0 0 16 16"><path fill="currentColor" d="M8 16A8 8 0 1 0 8 0a8 8 0 0 0 0 16M8 1.5a6.5 6.5 0 1 1 0 13a6.5 6.5 0 0 1 0-13M6 11a2 2 0 1 1 3.999-.001A2 2 0 0 1 6 11m4-5.5c0-.828.448-1.5 1-1.5s1 .672 1 1.5S11.552 7 11 7s-1-.672-1-1.5m-6 0C4 4.672 4.448 4 5 4s1 .672 1 1.5S5.552 7 5 7s-1-.672-1-1.5"/></symbol><symbol id="hd-icon-icomoon-free-shocked2" viewBox="0 0 16 16"><path fill="currentColor" d="M8 0a8 8 0 1 0 0 16A8 8 0 0 0 8 0M5 7c-.552 0-1-.672-1-1.5S4.448 4 5 4s1 .672 1 1.5S5.552 7 5 7m3 6a2 2 0 1 1-.001-3.999A2 2 0 0 1 8 13m3-6c-.552 0-1-.672-1-1.5S10.448 4 11 4s1 .672 1 1.5S11.552 7 11 7"/></symbol><symbol id="hd-icon-icomoon-free-shrink" viewBox="0 0 16 16"><path fill="currentColor" d="M9 7h6.5L13 4.5l3-3L14.5 0l-3 3L9 .5zm0 2v6.5l2.5-2.5l3 3l1.5-1.5l-3-3L15.5 9zM7 9H.5L3 11.5l-3 3L1.5 16l3-3L7 15.5zm0-2V.5L4.5 3l-3-3L0 1.5l3 3L.5 7z"/></symbol><symbol id="hd-icon-icomoon-free-shrink2" viewBox="0 0 16 16"><path fill="currentColor" d="M7 9v6.5L4.5 13l-3 3L0 14.5l3-3L.5 9zm9-7.5l-3 3L15.5 7H9V.5L11.5 3l3-3z"/></symbol><symbol id="hd-icon-icomoon-free-shuffle" viewBox="0 0 16 16"><path fill="currentColor" d="M12 11h-1.586l-2.5-2.5l2.5-2.5H12v2.5L15.5 5L12 1.5V4h-2a1 1 0 0 0-.707.293L6.5 7.086L3.707 4.293A1 1 0 0 0 3 4H0v2h2.586l2.5 2.5l-2.5 2.5H0v2h3c.265 0 .52-.105.707-.293L6.5 9.914l2.793 2.793A1 1 0 0 0 10 13h2v2.5l3.5-3.5L12 8.5z"/></symbol><symbol id="hd-icon-icomoon-free-sigma" viewBox="0 0 16 16"><path fill="currentColor" d="m14.713 11.48l.694-1.48h.594l-1 6h-15v-1.16l5.18-6.113l-5.18-5.18V0h15.313l.688 4h-.537l-.293-.607C14.62 2.247 14.205 2 13.002 2H2.658l5.517 5.516l-4.647 5.483h8.474c1.813 0 2.291-.65 2.713-1.52z"/></symbol><symbol id="hd-icon-icomoon-free-sina-weibo" viewBox="0 0 16 16"><path fill="currentColor" d="M6.722 14.031c-2.65.262-4.938-.938-5.109-2.675c-.172-1.741 1.837-3.359 4.484-3.622c2.65-.263 4.938.938 5.106 2.675c.175 1.741-1.834 3.362-4.481 3.622m5.297-5.772c-.225-.069-.381-.113-.262-.409c.256-.644.281-1.197.003-1.594c-.519-.741-1.941-.703-3.569-.019c0 0-.513.222-.381-.181c.25-.806.213-1.478-.178-1.869c-.884-.884-3.234.034-5.25 2.05C.876 7.74.001 9.343.001 10.728c0 2.644 3.394 4.253 6.713 4.253c4.35 0 7.247-2.528 7.247-4.534c0-1.216-1.022-1.903-1.941-2.188zm2.89-4.843a4.23 4.23 0 0 0-4.031-1.306a.61.61 0 1 0 .256 1.194a3.01 3.01 0 0 1 3.494 3.872a.615.615 0 0 0 .394.772a.615.615 0 0 0 .772-.394v-.003a4.22 4.22 0 0 0-.884-4.134z"/><path fill="currentColor" d="M13.294 4.875a2.06 2.06 0 0 0-1.963-.634a.527.527 0 1 0 .219 1.031c.341-.072.709.034.959.309c.25.278.319.656.209.987a.53.53 0 0 0 .341.666a.53.53 0 0 0 .666-.341a2.06 2.06 0 0 0-.431-2.019zm-6.425 6.009c-.094.159-.297.234-.456.169c-.159-.063-.206-.244-.116-.397c.094-.153.291-.228.447-.169c.156.056.213.234.125.397m-.847 1.082c-.256.409-.806.588-1.219.4c-.406-.184-.528-.659-.272-1.059c.253-.397.784-.575 1.194-.403c.416.178.55.65.297 1.063zm.962-2.894c-1.259-.328-2.684.3-3.231 1.409c-.559 1.131-.019 2.391 1.253 2.803c1.319.425 2.875-.228 3.416-1.447c.534-1.197-.131-2.425-1.438-2.766z"/></symbol><symbol id="hd-icon-icomoon-free-skype" viewBox="0 0 16 16"><path fill="currentColor" d="M6.65.584Q6.611.561 6.572.543l-.081.016zM.575 6.578q-.008.043-.012.081c.016.025.025.05.041.075l-.028-.156zm14.844 2.838l.016-.084c-.016-.025-.025-.05-.041-.075zM9.25 15.359q.039.023.078.041q.042-.008.084-.012z"/><path fill="currentColor" d="m15.434 9.331l-.016.084l-.028-.162zc.081-.45.125-.909.125-1.369a7.54 7.54 0 0 0-2.213-5.344a7.6 7.6 0 0 0-2.4-1.619A7.5 7.5 0 0 0 8.005.405c-.481 0-.963.044-1.431.134h-.003q.039.017.078.041L6.49.555l.081-.016A4.5 4.5 0 0 0 4.474.014C3.28.014 2.155.48 1.311 1.323S.002 3.292.002 4.486c0 .759.197 1.509.563 2.169q.008-.043.012-.081l.028.159q-.023-.037-.041-.075a7.6 7.6 0 0 0-.112 1.303a7.5 7.5 0 0 0 2.213 5.341a7.54 7.54 0 0 0 6.666 2.094l-.078-.041l.162.028q-.042.008-.084.012a4.5 4.5 0 0 0 2.2.581c1.194 0 2.319-.466 3.162-1.309s1.309-1.969 1.309-3.162a4.5 4.5 0 0 0-.569-2.175zm-7.4 3.26c-2.684 0-3.884-1.319-3.884-2.309c0-.506.375-.863.891-.863c1.15 0 .85 1.65 2.994 1.65c1.097 0 1.703-.597 1.703-1.206c0-.366-.181-.772-.903-.95l-2.388-.597c-1.922-.481-2.272-1.522-2.272-2.5c0-2.028 1.909-2.791 3.703-2.791c1.653 0 3.6.913 3.6 2.131c0 .522-.453.825-.969.825c-.981 0-.8-1.356-2.775-1.356c-.981 0-1.522.444-1.522 1.078s.775.838 1.447.991l1.769.394c1.934.431 2.425 1.563 2.425 2.625c0 1.647-1.266 2.878-3.819 2.878"/></symbol><symbol id="hd-icon-icomoon-free-sleepy" viewBox="0 0 16 16"><path fill="currentColor" d="M8 16A8 8 0 1 0 8 0a8 8 0 0 0 0 16M8 1.5a6.5 6.5 0 1 1 0 13a6.5 6.5 0 0 1 0-13"/><path fill="currentColor" d="M10 10.5c0 1.381-.895 2.5-2 2.5s-2-1.119-2-2.5S6.895 8 8 8s2 1.119 2 2.5M6.5 5.313a.5.5 0 0 1-.354-.146c-.302-.302-.991-.302-1.293 0a.5.5 0 0 1-.707-.707c.696-.696 2.011-.696 2.707 0a.5.5 0 0 1-.354.853zm5 0a.5.5 0 0 1-.354-.146c-.302-.302-.991-.302-1.293 0a.5.5 0 0 1-.707-.707c.696-.696 2.011-.696 2.707 0a.5.5 0 0 1-.354.853z"/></symbol><symbol id="hd-icon-icomoon-free-sleepy2" viewBox="0 0 16 16"><path fill="currentColor" d="M8 0a8 8 0 1 0 0 16A8 8 0 0 0 8 0M4.854 5.166a.5.5 0 0 1-.707-.707c.696-.696 2.011-.696 2.707 0a.5.5 0 0 1-.708.707c-.302-.302-.991-.302-1.293 0zM8 13c-1.105 0-2-1.119-2-2.5S6.895 8 8 8s2 1.119 2 2.5S9.105 13 8 13m3.854-7.834a.5.5 0 0 1-.708 0c-.302-.302-.991-.302-1.293 0a.5.5 0 0 1-.707-.707c.696-.696 2.011-.696 2.707 0a.5.5 0 0 1 0 .707z"/></symbol><symbol id="hd-icon-icomoon-free-smile" viewBox="0 0 16 16"><path fill="currentColor" d="M8 16A8 8 0 1 0 8 0a8 8 0 0 0 0 16M8 1.5a6.5 6.5 0 1 1 0 13a6.5 6.5 0 0 1 0-13M4 5a1 1 0 1 1 2 0a1 1 0 0 1-2 0m6 0a1 1 0 1 1 2 0a1 1 0 0 1-2 0m1.002 4.801l1.286.772C11.414 12.027 9.821 13 8 13s-3.413-.973-4.288-2.427l1.286-.772C5.61 10.819 6.725 11.5 8 11.5s2.389-.681 3.002-1.699"/></symbol><symbol id="hd-icon-icomoon-free-smile2" viewBox="0 0 16 16"><path fill="currentColor" d="M8 0a8 8 0 1 0 0 16A8 8 0 0 0 8 0m3 4a1 1 0 1 1 0 2a1 1 0 0 1 0-2M5 4a1 1 0 1 1 0 2a1 1 0 0 1 0-2m3 9a5 5 0 0 1-4.288-2.427l1.286-.772C5.61 10.819 6.725 11.5 8 11.5s2.389-.681 3.002-1.699l1.286.772A5 5 0 0 1 8 13"/></symbol><symbol id="hd-icon-icomoon-free-sort-alpha-asc" viewBox="0 0 16 16"><path fill="currentColor" d="M5 12V0H3v12H.5L4 15.5L7.5 12zm9.5 4h-4a.5.5 0 0 1-.416-.777L13.566 10H10.5a.5.5 0 0 1 0-1h4a.5.5 0 0 1 .416.777L11.434 15H14.5a.5.5 0 0 1 0 1m1.447-9.724l-3-6a.5.5 0 0 0-.894 0l-3 6a.5.5 0 0 0 .895.447l.862-1.724h3.382l.862 1.724a.5.5 0 0 0 .895-.447zM11.309 4L12.5 1.618L13.691 4z"/></symbol><symbol id="hd-icon-icomoon-free-sort-alpha-desc" viewBox="0 0 16 16"><path fill="currentColor" d="M5 12V0H3v12H.5L4 15.5L7.5 12zm9.5-5h-4a.5.5 0 0 1-.416-.777L13.566 1H10.5a.5.5 0 0 1 0-1h4a.502.502 0 0 1 .416.777L11.434 6H14.5a.5.5 0 0 1 0 1m1.447 8.276l-3-6a.5.5 0 0 0-.894 0l-3 6a.5.5 0 0 0 .895.447l.862-1.724h3.382l.862 1.724a.5.5 0 0 0 .895-.447zM11.309 13l1.191-2.382L13.691 13z"/></symbol><symbol id="hd-icon-icomoon-free-sort-amount-asc" viewBox="0 0 16 16"><path fill="currentColor" d="M5 12V0H3v12H.5L4 15.5L7.5 12z"/><path fill="currentColor" d="M7 9h9v2H7zm0-3h7v2H7zm0-3h5v2H7zm0-3h3v2H7z"/></symbol><symbol id="hd-icon-icomoon-free-sort-amount-desc" viewBox="0 0 16 16"><path fill="currentColor" d="M5 12V0H3v12H.5L4 15.5L7.5 12zM7 0h9v2H7zm0 3h7v2H7zm0 3h5v2H7z"/><path fill="currentColor" d="M7 9h3v2H7z"/></symbol><symbol id="hd-icon-icomoon-free-sort-numberic-desc" viewBox="0 0 16 16"><path fill="currentColor" d="M5 12V0H3v12H.5L4 15.5L7.5 12zm8.5 4a.5.5 0 0 1-.5-.5V10h-.5a.5.5 0 0 1 0-1h1a.5.5 0 0 1 .5.5v6a.5.5 0 0 1-.5.5m1-16h-3a.5.5 0 0 0-.5.5v3a.5.5 0 0 0 .5.5H14v2h-2.5a.5.5 0 0 0 0 1h3a.5.5 0 0 0 .5-.5v-6a.5.5 0 0 0-.5-.5M12 1h2v2h-2z"/></symbol><symbol id="hd-icon-icomoon-free-sort-numeric-asc" viewBox="0 0 16 16"><path fill="currentColor" d="M5 12V0H3v12H.5L4 15.5L7.5 12zm8.5-5a.5.5 0 0 1-.5-.5V1h-.5a.5.5 0 0 1 0-1h1a.5.5 0 0 1 .5.5v6a.5.5 0 0 1-.5.5m1 2h-3a.5.5 0 0 0-.5.5v3a.5.5 0 0 0 .5.5H14v2h-2.5a.5.5 0 0 0 0 1h3a.5.5 0 0 0 .5-.5v-6a.5.5 0 0 0-.5-.5M12 10h2v2h-2z"/></symbol><symbol id="hd-icon-icomoon-free-soundcloud" viewBox="0 0 16 16"><path fill="currentColor" d="M13.937 8.034c-.283 0-.552.055-.798.154C12.975 6.401 11.416 5 9.514 5c-.465 0-.917.088-1.317.237c-.156.058-.197.117-.197.233v6.292c0 .121.098.222.221.234l5.717.003c1.139 0 2.062-.888 2.062-1.983s-.924-1.983-2.063-1.983zM6.25 12h.5L7 8.497L6.75 5h-.5L6 8.497zm-1.5 0h-.5L4 9.457L4.25 7h.5L5 9.5zm-2.5 0h.5L3 10l-.25-2h-.5L2 10zm-2-1h.5L1 10L.75 9h-.5L0 10z"/></symbol><symbol id="hd-icon-icomoon-free-soundcloud2" viewBox="0 0 16 16"><path fill="currentColor" d="M14.5 0h-13C.675 0 0 .675 0 1.5v13c0 .825.675 1.5 1.5 1.5h13c.825 0 1.5-.675 1.5-1.5v-13c0-.825-.675-1.5-1.5-1.5M2.75 11h-.5L2 9.5L2.25 8h.5L3 9.5zm2 0h-.5L4 9l.25-2h.5L5 9zm2 0h-.5L6 8l.25-3h.5L7 8zm6.144 0l-4.709-.003a.21.21 0 0 1-.184-.2V5.403c0-.1.034-.15.162-.2a3 3 0 0 1 4.075 2.531a1.7 1.7 0 0 1 2.356 1.569c0 .938-.762 1.697-1.7 1.697"/></symbol><symbol id="hd-icon-icomoon-free-spades" viewBox="0 0 16 16"><path fill="currentColor" d="M12.775 5.44C9.751 3.192 8.708 1.393 8.001 0c-.708 1.393-1.75 3.192-4.774 5.44c-5.157 3.833-.303 9.182 3.965 6.238c-.278 1.827-1.227 3.159-2.191 3.733v.59h6v-.59c-.964-.574-1.913-1.906-2.191-3.733c4.268 2.944 9.122-2.405 3.965-6.238"/></symbol><symbol id="hd-icon-icomoon-free-spell-check" viewBox="0 0 16 16"><path fill="currentColor" d="M2 4h2v3h1V1c0-.55-.45-1-1-1H2c-.55 0-1 .45-1 1v6h1zm0-3h2v2H2zm13 0V0h-3c-.55 0-1 .45-1 1v5c0 .55.45 1 1 1h3V6h-3V1zm-5 1.5V1c0-.55-.45-1-1-1H6v7h3c.55 0 1-.45 1-1V4.5c0-.55-.137-1-.688-1c.55 0 .688-.45.688-1M9 6H7V4h2zm0-3H7V1h2zm4 6l-6.5 7L3 11.5l1.281-1.094L6.5 12.719L12 8z"/></symbol><symbol id="hd-icon-icomoon-free-sphere" viewBox="0 0 16 16"><path fill="currentColor" d="M7.5 1a7.5 7.5 0 1 0 0 15a7.5 7.5 0 0 0 0-15m4.244 10c.134-.632.219-1.303.246-2h1.991a6.4 6.4 0 0 1-.479 2zM3.256 6a12 12 0 0 0-.246 2H1.019a6.4 6.4 0 0 1 .479-2zm7.463 0c.15.64.241 1.31.27 2H8V6zM8 5V2.073q.343.1.675.334c.415.293.813.744 1.149 1.304q.35.583.601 1.289H7.999zM5.176 3.711c.336-.561.734-1.012 1.149-1.304q.333-.234.675-.334V5H4.574a7.3 7.3 0 0 1 .601-1.289zM7 6v2H4.011c.029-.69.12-1.36.27-2zm-5.502 5a6.4 6.4 0 0 1-.479-2H3.01c.028.697.112 1.368.246 2zm2.513-2H7v2H4.281c-.15-.64-.241-1.31-.27-2M7 12v2.927a2.3 2.3 0 0 1-.675-.334c-.415-.293-.813-.744-1.149-1.304A7.2 7.2 0 0 1 4.574 12zm2.825 1.289c-.336.561-.734 1.012-1.149 1.304a2.3 2.3 0 0 1-.675.334V12h2.426q-.252.706-.602 1.289M8 11V9h2.989c-.029.69-.12 1.36-.27 2zm3.99-3a12 12 0 0 0-.246-2h1.758c.267.639.427 1.309.479 2zm.989-3h-1.498c-.291-.918-.693-1.723-1.177-2.366a6.5 6.5 0 0 1 1.792 1.27q.504.505.883 1.096M2.904 3.904a6.5 6.5 0 0 1 1.792-1.27C4.213 3.277 3.81 4.082 3.519 5H2.021q.378-.592.883-1.096M2.021 12h1.498c.291.918.693 1.723 1.177 2.366a6.5 6.5 0 0 1-1.792-1.27A6.5 6.5 0 0 1 2.021 12m10.075 1.096a6.5 6.5 0 0 1-1.792 1.27c.483-.643.886-1.448 1.177-2.366h1.498a6.5 6.5 0 0 1-.883 1.096"/></symbol><symbol id="hd-icon-icomoon-free-spinner" viewBox="0 0 16 16"><path fill="currentColor" d="M6 2a2 2 0 1 1 3.999-.001A2 2 0 0 1 6 2m4.243 1.757a2 2 0 1 1 3.999-.001a2 2 0 0 1-3.999.001M13 8a1 1 0 1 1 2 0a1 1 0 0 1-2 0m-1.757 4.243a1 1 0 1 1 2 0a1 1 0 0 1-2 0M7 14a1 1 0 0 1 2 0a1 1 0 0 1-2 0m-4.243-1.757a1 1 0 0 1 2 0a1 1 0 0 1-2 0m-.5-8.486a1.5 1.5 0 0 1 3 0a1.5 1.5 0 0 1-3 0M.875 8a1.125 1.125 0 1 1 2.25 0a1.125 1.125 0 0 1-2.25 0"/></symbol><symbol id="hd-icon-icomoon-free-spinner10" viewBox="0 0 16 16"><path fill="currentColor" d="M.001 8.025v.003q.003.091.021.177l.011.09l.011.095l.019.128l.045.296l.068.326q.018.087.044.178l.049.188q.012.048.027.097l.031.098l.065.203l.017.052l.019.052l.039.105l.081.215l.094.218l.048.111q.025.055.053.111l.11.224q.06.112.123.224l.063.113q.032.056.068.112l.14.224c.198.295.417.587.66.864q.369.414.792.775c.284.236.582.452.886.642c.306.188.619.349.928.487l.232.095q.057.024.115.046l.115.041c.038.014.151.054.226.078l.224.066q.055.017.109.031l.109.027l.213.052l.207.04l.101.019l.049.009l.049.007l.192.027l.093.013l.091.009l.174.015q.084.009.164.012h.011a1 1 0 0 0 1 .982l.025-.001h.004a1 1 0 0 0 .177-.021l.09-.011l.095-.011l.128-.019l.296-.045l.326-.068q.087-.018.178-.044l.188-.049q.049-.012.097-.027l.098-.031l.203-.065l.052-.017l.052-.019l.105-.039l.215-.081l.218-.094l.111-.048q.055-.025.111-.053l.224-.11q.112-.06.224-.123l.113-.063l.112-.068l.224-.14c.295-.197.587-.417.864-.66q.414-.369.775-.792q.355-.428.642-.886c.188-.306.349-.619.487-.928l.095-.232q.024-.057.046-.115l.04-.115c.013-.038.054-.151.078-.226l.066-.224q.017-.055.031-.109l.027-.109l.052-.213l.04-.207l.019-.101l.009-.049l.007-.05l.027-.192l.013-.093l.009-.091l.015-.174q.009-.084.012-.165l.001-.025a1 1 0 0 0 .996-1l-.001-.025v-.003a1 1 0 0 0-.021-.177l-.011-.09l-.011-.095l-.019-.128l-.045-.296l-.068-.326q-.018-.087-.044-.178l-.049-.188q-.012-.049-.027-.097l-.031-.098l-.065-.203l-.017-.052l-.019-.052l-.039-.105l-.081-.215l-.094-.218l-.048-.111q-.025-.055-.053-.111l-.11-.224q-.06-.112-.123-.224l-.063-.113l-.068-.112l-.14-.224a8 8 0 0 0-.66-.864a8 8 0 0 0-.792-.775a8 8 0 0 0-.886-.642a8 8 0 0 0-.928-.487l-.232-.095q-.057-.024-.115-.046l-.115-.04c-.038-.013-.151-.054-.226-.078l-.224-.066l-.109-.031l-.109-.027l-.213-.052l-.207-.04l-.101-.019l-.049-.009l-.049-.007l-.192-.027l-.093-.013l-.091-.009l-.174-.015Q9.108.983 9.028.98L8.989.979a1 1 0 0 0-.999-.981l-.025.001h-.003a1 1 0 0 0-.177.021l-.09.011L7.6.042l-.128.019l-.296.045l-.326.068q-.087.018-.178.044l-.188.049q-.049.012-.097.027l-.098.031l-.203.065l-.052.017l-.052.019l-.105.039l-.215.081l-.218.094l-.111.048q-.055.025-.111.053l-.224.11q-.112.06-.224.123l-.113.063q-.056.032-.112.068l-.224.14a9 9 0 0 0-.864.66a8 8 0 0 0-.775.792a8 8 0 0 0-.642.886a8 8 0 0 0-.487.928l-.095.232q-.024.057-.046.115l-.04.115c-.013.038-.054.151-.078.226l-.066.224l-.032.109l-.027.109l-.052.213l-.04.207l-.019.101l-.009.049l-.007.05l-.027.192l-.013.093l-.009.091l-.015.174q-.009.084-.012.165l-.001.025A1 1 0 0 0 .002 8l.001.025zm1.148-1.014l.002-.009c.01-.051.026-.102.04-.155l.045-.163l.024-.084l.028-.086l.058-.176l.015-.045l.017-.045l.035-.091l.073-.186l.084-.189l.043-.096l.048-.096l.098-.194l.109-.194l.056-.098q.029-.049.061-.096l.124-.194a7 7 0 0 1 .583-.744q.327-.355.697-.665q.377-.303.776-.547c.268-.159.541-.294.808-.41l.202-.079l.099-.038l.1-.033c.033-.011.131-.045.196-.065l.194-.054q.047-.014.095-.026l.094-.021l.184-.042l.179-.032l.087-.015l.043-.008l.043-.005l.166-.02l.08-.01l.078-.006l.15-.011q.072-.006.142-.008l.256-.006l.2.007l.085.002a11 11 0 0 1 .34.024l.022-.001h.004a1 1 0 0 0 .962-.84l.025.006c.051.01.102.026.155.04l.163.045l.084.024l.086.028l.176.058l.045.015l.045.017l.091.035l.186.073l.189.084l.096.043l.096.048l.194.098c.065.034.129.073.194.109l.098.056q.049.029.096.061l.194.124c.255.176.506.369.744.583q.355.327.665.697q.303.377.547.776c.159.268.294.541.41.808l.079.202l.038.099l.033.1c.011.033.045.131.065.196l.054.194q.014.047.026.095l.021.094l.042.184l.032.179l.015.087l.008.043l.005.043l.02.166l.01.08l.006.078l.011.15q.006.072.008.142l.006.256l-.007.2l-.002.085a11 11 0 0 1-.024.34l.001.022v.004a1 1 0 0 0 .823.959l-.003.014q-.016.076-.04.155l-.045.163l-.024.084l-.028.086l-.058.176l-.015.045l-.017.045l-.035.091l-.073.186l-.084.189l-.043.096l-.048.096l-.098.194q-.053.097-.109.194l-.056.098q-.029.049-.061.096l-.124.194a7 7 0 0 1-.583.744a7 7 0 0 1-.697.665q-.377.303-.776.547a7 7 0 0 1-.808.41l-.202.079l-.099.038l-.1.033c-.033.011-.131.045-.196.065l-.194.054l-.095.026l-.094.021l-.184.042l-.179.032l-.087.015l-.043.008l-.043.005l-.166.02l-.08.01l-.078.006l-.15.011q-.073.006-.142.008l-.256.006l-.2-.007l-.085-.002a11 11 0 0 1-.34-.024l-.022.001H7.96a1 1 0 0 0-.961.834q-.075-.017-.153-.039l-.163-.045l-.084-.024l-.086-.028l-.176-.058l-.045-.015l-.045-.017l-.091-.035l-.186-.073l-.189-.084l-.096-.043l-.096-.048l-.194-.098c-.065-.034-.129-.073-.194-.109l-.098-.056q-.049-.029-.096-.061l-.194-.124a7 7 0 0 1-.744-.583a7 7 0 0 1-.665-.697a7 7 0 0 1-.547-.776a7 7 0 0 1-.41-.808l-.079-.202l-.038-.099l-.033-.1c-.011-.033-.045-.131-.065-.196l-.054-.194q-.014-.047-.026-.095l-.021-.094l-.042-.184l-.032-.179l-.015-.087l-.008-.043l-.005-.043l-.02-.166l-.01-.08l-.006-.078l-.011-.15q-.006-.073-.008-.142l-.006-.256l.007-.2l.002-.085a11 11 0 0 1 .024-.34L2 7.98v-.003a1 1 0 0 0-.851-.964z"/></symbol><symbol id="hd-icon-icomoon-free-spinner11" viewBox="0 0 16 16"><path fill="currentColor" d="M16 6h-6l2.243-2.243C11.11 2.624 9.603 2 8 2s-3.109.624-4.243 1.757C2.624 4.89 2 6.397 2 8s.624 3.109 1.757 4.243A5.96 5.96 0 0 0 8 14a5.96 5.96 0 0 0 4.516-2.049l1.505 1.317a8 8 0 1 1-.364-10.924L16 0z"/></symbol><symbol id="hd-icon-icomoon-free-spinner2" viewBox="0 0 16 16"><path fill="currentColor" d="M16 8a7.92 7.92 0 0 0-2.431-5.568A7.78 7.78 0 0 0 5.057.896c-.923.405-1.758.992-2.449 1.712S1.371 4.182 1.011 5.105a7.53 7.53 0 0 0 .115 5.742c.392.892.961 1.7 1.658 2.368S4.307 14.41 5.2 14.758a7.3 7.3 0 0 0 2.799.493a7.16 7.16 0 0 0 6.526-4.547a7 7 0 0 0 .415-1.622l.059.002a1 1 0 0 0 .996-1.083h.004zm-1.589 2.655c-.367.831-.898 1.584-1.55 2.206s-1.422 1.112-2.254 1.434a6.8 6.8 0 0 1-2.608.454a6.68 6.68 0 0 1-4.685-2.065a6.6 6.6 0 0 1-1.38-2.173a6.5 6.5 0 0 1 .116-4.976c.342-.77.836-1.468 1.441-2.044s1.321-1.029 2.092-1.326a6.27 6.27 0 0 1 4.784.116c.74.329 1.41.805 1.963 1.387s.988 1.27 1.272 2.011a6 6 0 0 1 .397 2.32h.004a1 1 0 0 0 .888 1.077a7 7 0 0 1-.481 1.578z"/></symbol><symbol id="hd-icon-icomoon-free-spinner3" viewBox="0 0 16 16"><path fill="currentColor" d="M8 4.736a.933.933 0 0 1-.933-.933V1.005a.933.933 0 0 1 1.866 0v2.798A.933.933 0 0 1 8 4.736m0 10.841a.583.583 0 0 1-.583-.583v-2.798a.583.583 0 1 1 1.166 0v2.798a.583.583 0 0 1-.583.583M5.902 5.24a.88.88 0 0 1-.758-.437L3.745 2.38a.874.874 0 0 1 1.514-.874l1.399 2.423a.874.874 0 0 1-.756 1.311m5.596 9.342a.53.53 0 0 1-.455-.262l-1.399-2.423a.525.525 0 1 1 .909-.525l1.399 2.423a.525.525 0 0 1-.454.787M4.365 6.718a.8.8 0 0 1-.407-.109L1.535 5.21a.817.817 0 0 1 .816-1.414l2.423 1.399a.817.817 0 0 1-.408 1.523zm9.692 5.246a.46.46 0 0 1-.233-.063l-2.423-1.399a.467.467 0 0 1 .466-.808l2.423 1.399a.467.467 0 0 1-.233.87zM3.803 8.758H1.005a.758.758 0 0 1 0-1.516h2.798a.758.758 0 1 1 0 1.516m11.192-.292h-2.798a.466.466 0 1 1 0-.932h2.798a.466.466 0 1 1 0 .932M1.943 12.197a.698.698 0 0 1-.35-1.305l2.423-1.399a.698.698 0 1 1 .699 1.211l-2.423 1.399a.7.7 0 0 1-.349.094m9.692-5.829a.466.466 0 0 1-.233-.87l2.423-1.399a.466.466 0 1 1 .466.808l-2.423 1.399a.5.5 0 0 1-.233.063zm-7.133 8.331a.64.64 0 0 1-.555-.962l1.399-2.423a.641.641 0 1 1 1.111.641l-1.399 2.423a.64.64 0 0 1-.556.321m5.596-9.867a.467.467 0 0 1-.404-.7l1.399-2.423a.467.467 0 0 1 .808.466l-1.399 2.423a.46.46 0 0 1-.404.233z"/></symbol><symbol id="hd-icon-icomoon-free-spinner4" viewBox="0 0 16 16"><path fill="currentColor" d="M3 8q0-.285.032-.563l-2.89-.939A8 8 0 0 0 .001 8c0 2.3.971 4.374 2.526 5.833l1.786-2.458A4.98 4.98 0 0 1 3.001 8zm10 0a4.98 4.98 0 0 1-1.312 3.375l1.786 2.458A7.98 7.98 0 0 0 16 8q-.002-.77-.141-1.502l-2.89.939q.032.278.032.563zM9 3.1a5 5 0 0 1 3.351 2.435l2.89-.939A8.01 8.01 0 0 0 9 .062zM3.649 5.535A5 5 0 0 1 7 3.1V.062A8 8 0 0 0 .759 4.596zm6.422 7.017C9.44 12.84 8.739 13 8 13s-1.44-.16-2.071-.448L4.143 15.01C5.287 15.641 6.601 16 8 16s2.713-.359 3.857-.99z"/></symbol><symbol id="hd-icon-icomoon-free-spinner5" viewBox="0 0 16 16"><path fill="currentColor" d="M8 0a8 8 0 1 0 0 16A8 8 0 0 0 8 0m0 4a4 4 0 1 1 0 8a4 4 0 0 1 0-8m4.773 8.773C11.498 14.048 9.803 14.75 8 14.75s-3.498-.702-4.773-1.977S1.25 9.803 1.25 8s.702-3.498 1.977-4.773l1.061 1.061a5.256 5.256 0 0 0 0 7.425c.992.992 2.31 1.538 3.712 1.538s2.721-.546 3.712-1.538a5.256 5.256 0 0 0 0-7.425l1.061-1.061C14.048 4.502 14.75 6.197 14.75 8s-.702 3.498-1.977 4.773"/></symbol><symbol id="hd-icon-icomoon-free-spinner6" viewBox="0 0 16 16"><path fill="currentColor" d="M6 2a2 2 0 1 1 3.999-.001A2 2 0 0 1 6 2m6.359 6a1.641 1.641 0 0 1 3.282 0a1.641 1.641 0 0 1-3.282 0m-1.602 4.243a1.486 1.486 0 1 1 2.971 0a1.486 1.486 0 0 1-2.971 0M6.654 14a1.346 1.346 0 1 1 2.693.001A1.346 1.346 0 0 1 6.654 14m-4.116-1.757a1.22 1.22 0 1 1 2.439 0a1.22 1.22 0 0 1-2.439 0M.896 8a1.104 1.104 0 1 1 2.207 0A1.104 1.104 0 0 1 .896 8m1.861-4.243a1 1 0 0 1 2 0a1 1 0 0 1-2 0m11.297 0a1.811 1.811 0 1 1-3.623 0a1.811 1.811 0 0 1 3.623 0"/></symbol><symbol id="hd-icon-icomoon-free-spinner7" viewBox="0 0 16 16"><path fill="currentColor" d="M6.5 14.5a1.5 1.5 0 1 1 3.001.001A1.5 1.5 0 0 1 6.5 14.5M0 8a1.5 1.5 0 1 1 3.001.001A1.5 1.5 0 0 1 0 8m13 0a1.5 1.5 0 1 1 3.001.001A1.5 1.5 0 0 1 13 8M1.904 3.404a1.5 1.5 0 1 1 3.001.001a1.5 1.5 0 0 1-3.001-.001m9.192 9.192a1.5 1.5 0 1 1 3.001.001a1.5 1.5 0 0 1-3.001-.001m-9.192 0a1.5 1.5 0 1 1 3.001.001a1.5 1.5 0 0 1-3.001-.001m9.192-9.192a1.5 1.5 0 1 1 3.001.001a1.5 1.5 0 0 1-3.001-.001"/></symbol><symbol id="hd-icon-icomoon-free-spinner8" viewBox="0 0 16 16"><path fill="currentColor" d="M8 16c-2.137 0-4.146-.832-5.657-2.343S0 10.137 0 8c0-1.513.425-2.986 1.228-4.261A8 8 0 0 1 4.421.844l.672 1.341a6.53 6.53 0 0 0-2.596 2.354A6.5 6.5 0 0 0 1.5 8c0 3.584 2.916 6.5 6.5 6.5s6.5-2.916 6.5-6.5c0-1.23-.345-2.426-.997-3.461a6.5 6.5 0 0 0-2.596-2.354l.672-1.341a8 8 0 0 1 3.193 2.895A8 8 0 0 1 16 8c0 2.137-.832 4.146-2.343 5.657S10.137 16 8 16"/></symbol><symbol id="hd-icon-icomoon-free-spinner9" viewBox="0 0 16 16"><path fill="currentColor" d="M8 0A8 8 0 0 0 .002 7.812C.094 4.033 2.968 1 6.5 1C10.09 1 13 4.134 13 8a1.5 1.5 0 0 0 3 0a8 8 0 0 0-8-8m0 16a8 8 0 0 0 7.998-7.812C15.906 11.967 13.032 15 9.5 15C5.91 15 3 11.866 3 8a1.5 1.5 0 0 0-3 0a8 8 0 0 0 8 8"/></symbol><symbol id="hd-icon-icomoon-free-spoon-knife" viewBox="0 0 16 16"><path fill="currentColor" d="M3.5 0c-1.657 0-3 1.567-3 3.5c0 1.655.985 3.042 2.308 3.406l-.497 8.096A.93.93 0 0 0 3.25 16h.5c.55 0 .972-.449.939-.998l-.497-8.096C5.515 6.541 6.5 5.155 6.5 3.5c0-1.933-1.343-3.5-3-3.5m10.083 0l-.833 5h-.625l-.417-5h-.417l-.417 5h-.625l-.833-5h-.417v6.5a.5.5 0 0 0 .5.5h1.302l-.491 8.002a.93.93 0 0 0 .939.998h.5c.55 0 .972-.449.939-.998L12.197 7h1.302a.5.5 0 0 0 .5-.5V0h-.417z"/></symbol><symbol id="hd-icon-icomoon-free-spotify" viewBox="0 0 16 16"><path fill="currentColor" d="M8 0C3.6 0 0 3.6 0 8s3.6 8 8 8s8-3.6 8-8s-3.559-8-8-8m3.681 11.559c-.159.241-.441.319-.681.159c-1.881-1.159-4.241-1.4-7.041-.759c-.281.081-.519-.119-.6-.359c-.081-.281.119-.519.359-.6c3.041-.681 5.681-.4 7.759.881c.281.119.322.438.203.678zm.96-2.2c-.2.281-.559.4-.841.2C9.641 8.24 6.359 7.84 3.841 8.64c-.319.081-.681-.081-.759-.4c-.081-.319.081-.681.4-.759c2.919-.881 6.519-.441 9 1.081c.238.119.359.519.159.797m.078-2.24C10.16 5.6 5.878 5.438 3.438 6.2a.75.75 0 0 1-.919-.481c-.119-.4.119-.8.481-.919c2.841-.841 7.519-.681 10.481 1.081c.359.2.481.681.281 1.041c-.203.278-.681.397-1.044.197z"/></symbol><symbol id="hd-icon-icomoon-free-stack" viewBox="0 0 16 16"><path fill="currentColor" d="M16 5L8 1L0 5l8 4zM8 2.328L13.345 5L8 7.672L2.655 5zm6.398 4.871L16 8l-8 4l-8-4l1.602-.801L8 10.398zm0 3L16 11l-8 4l-8-4l1.602-.801L8 13.398z"/></symbol><symbol id="hd-icon-icomoon-free-stackoverflow" viewBox="0 0 16 16"><path fill="currentColor" d="M16 10v6H0v-6h2v4h12v-4zM3 11h10v2H3zm.237-2.165l.433-1.953l9.763 2.164L13 10.999zM4.37 4.821l.845-1.813l9.063 4.226l-.845 1.813zm11.126.827l-1.218 1.587l-7.934-6.088L7.224 0h.91z"/></symbol></svg>