<svg xmlns="http://www.w3.org/2000/svg" xmlns:xlink="http://www.w3.org/1999/xlink"><symbol id="hd-icon-zmdi-screen-rotation-lock" viewBox="0 0 488 496"><path fill="currentColor" d="M475 272q9 10 9 23t-9 23L339 453q-9 10-22.5 10T294 453L37 197q-9-9-9-22.5t9-22.5L173 16q9-9 22.5-9t22.5 9l53 52l-31 30l-44-44L75 174l241 242l121-121l-47-47l30-30zM159 437l29-28l81 81l-14 1q-100 0-173.5-68T0 256h32q6 60 40 108t87 73m161-245q-9 0-15-6.5t-6-14.5V85q0-8 6-14.5t15-6.5V53q0-22 15.5-37.5T373 0t38 15.5T427 53v11q8 0 14.5 6.5T448 85v86q0 8-6.5 14.5T427 192zm17-139v11h73V53q0-15-11-25.5T373 17t-25.5 10.5T337 53"/></symbol><symbol id="hd-icon-zmdi-search" viewBox="0 0 376 384"><path fill="currentColor" d="m267 235l106 106l-32 32l-106-106v-17l-6-6q-39 33-90 33q-58 0-98.5-40.5T0 138.5t40.5-98t98-40.5t98 40.5T277 139q0 51-33 90l6 6zm-128 0q40 0 68-28t28-68t-28-68t-68-28t-68 28t-28 68t28 68t68 28"/></symbol><symbol id="hd-icon-zmdi-search-for" viewBox="0 0 432 384"><path fill="currentColor" d="m320 235l107 106l-32 32l-107-107v-16l-6-6q-39 33-90 33q-38 0-70-19l31-31q19 8 39 8q40 0 68-28.5t28-68T260 71t-68-28t-68 28t-28 68h75l-89 85l-82-85h54q0-57 40.5-98T192 0q58 0 98.5 40.5T331 139q0 51-34 90l6 6z"/></symbol><symbol id="hd-icon-zmdi-search-in-file" viewBox="0 0 344 432"><path fill="currentColor" d="m341 378l-81-82q17-27 17-59q0-44-31-75t-75-31t-75.5 31T64 237t31.5 75.5T171 344q31 0 59-18l94 95q-12 8-25 8H42q-17 0-29.5-12.5T0 387V45q0-17 12.5-29.5T43 3h170l128 128zM107 237.5q0-26.5 18.5-45.5t45-19t45.5 19t19 45.5t-19 45t-45.5 18.5t-45-18.5t-18.5-45"/></symbol><symbol id="hd-icon-zmdi-search-in-page" viewBox="0 0 432 384"><path fill="currentColor" d="M203 128q22 0 37.5 15.5T256 181t-15.5 38t-37.5 16t-38-16t-16-38t16-37.5t38-15.5M384 21q18 0 30.5 12.5T427 64v256q0 18-12.5 30.5T384 363H43q-18 0-30.5-12.5T0 320V64q0-18 12.5-30.5T43 21zm-68 303l30-30l-62-62q15-23 15-51q0-40-28-68t-68-28t-68 28t-28 68t28 68t67 28q28 0 51-15z"/></symbol><symbol id="hd-icon-zmdi-search-replace" viewBox="0 0 376 400"><path fill="currentColor" d="M149 64q-38 0-67.5 24.5T45 149H2q8-54 49.5-91T149 21q62 0 106 44l44-44v128H171l54-54q-32-31-76-31m121 195l103 104l-32 31l-103-103q-40 29-89 29q-62 0-105-44L0 320V192h128l-54 54q31 31 75 31q39 0 68-24t37-61h43q-5 37-27 67"/></symbol><symbol id="hd-icon-zmdi-seat" viewBox="0 0 432 384"><path fill="currentColor" d="M43 320v-64h341v128h-64v-64H107v64H43zm320-171h64v64h-64zM0 149h64v64H0zm320 64H107V43q0-18 12.5-30.5T149 0h128q18 0 30.5 12.5T320 43z"/></symbol><symbol id="hd-icon-zmdi-sec-10" viewBox="0 0 512 384"><path fill="currentColor" d="m0 101l101-37h6v256H64V115L0 137zm507 142q5 8 5 21t-5 23q-6 11-15 18q-10 7-24 11q-13 4-30 4q-20 0-34.5-5T379 301q-9-9-14.5-20t-5.5-22h41q0 8 3 14q4 6 9 9q5 4 12 5q6 2 14 2q16 0 24.5-6t8.5-17q0-4-1-8q-2-4-6-7q-5-4-12-6q-8-3-20-6q-16-3-28-8t-20-11q-9-6-14-15t-5-21t5-21q5-11 14-18.5t23-12.5q13-4 29-4q18 0 32 5t23 12q10 8 15 19t5 23h-42q0-4-2-10t-6-9q-5-4-10-6q-7-3-14.5-3t-13.5 2t-10 5q-3 3-6 8q-1 4-1 8.5t1.5 8t5.5 6.5t12 5q8 3 19 5q15 4 28 8q12 5 22 12q9 6 13 16M295 86q11 13 16 34q6 21 6 51v41q0 30-6 51q-5 21-16 34q-11 14-26 19q-15 6-34 6q-18 0-34-6q-15-5-26-19q-11-12-17-34q-6-20-6-51v-41q0-29 6-51q6-21 16.5-34t26-18.5T235 62t34 5.5T295 86m-20 132v-54q0-18-2-32q-3-13-8-21t-13-11.5t-17-3.5q-10 0-18 3q-7 4-12.5 12t-8.5 21q-2 13-2 33v53q0 20 2 33q3 13 9 21q5 9 12.5 12.5T235 288t17.5-3.5t12.5-12t7.5-22T275 218"/></symbol><symbol id="hd-icon-zmdi-sec-3" viewBox="0 0 368 384"><path fill="currentColor" d="M158 213q5 7 8 16q2 9 2 18q0 18-6.5 32T144 302q-12 10-27 15q-16 5-34 5q-16 0-31-4.5T25 304T7 281q-7-13-7-31h42q0 9 3 16t8.5 12t13.5 7q7 3 17 3q20 0 31-10q11-11 11-31q0-10-3-18t-10-13q-5-5-14-8q-9-2-20-2H54v-33h25q11 0 19-3t13-8q6-5 8.5-12t2.5-16q0-18-9-28q-10-10-29-10q-9 0-16 2.5T56 105q-5 5-8 11.5T45 131H2q0-15 7-27q5-12 16-22t26-15q14-5 32-5t32.5 4T141 79.5t17 22.5q6 14 6 32q0 8-2 15t-8 15q-4 7-12 14q-6 6-17 11q12 4 20 10t13 14m198 30q4 8 5 21q0 13-5 23q-6 11-16 18q-9 7-23 11t-31 4q-19 0-33.5-5T228 301t-15-20t-5-22h40q0 8 4 14t9 9q5 4 12 5q6 2 13 2q17 0 25.5-6t8.5-17q0-4-2-8q-1-4-5-7q-5-4-13-6q-8-3-20-6q-15-3-27-8q-13-5-21-11q-9-7-14-15q-4-10-4-21q0-12 4-21q6-11 15-18.5t22-12.5q13-4 30-4q18 0 31 5q14 5 23 12q10 8 15 19t5 23h-41q0-4-2-10q-3-6-7-9q-4-4-10-6q-6-3-14-3t-13.5 2t-9.5 5t-6 8q-2 4-2 8.5t1.5 8t6 6.5t11.5 5q9 3 19 5q15 4 29 8q12 5 21 12q9 6 14 16"/></symbol><symbol id="hd-icon-zmdi-select-all" viewBox="0 0 384 384"><path fill="currentColor" d="M0 43q0-18 12.5-30.5T43 0v43zm0 170v-42h43v42zm85 171v-43h43v43zM0 128V85h43v43zM213 0v43h-42V0zm128 0q18 0 30.5 12.5T384 43h-43zM43 384q-18 0-30.5-12.5T0 341h43zM0 299v-43h43v43zM128 0v43H85V0zm43 384v-43h42v43zm170-171v-42h43v42zm0 171v-43h43q0 18-12.5 30.5T341 384m0-256V85h43v43zm0 171v-43h43v43zm-85 85v-43h43v43zm0-341V0h43v43zM85 299V85h214v214zm43-171v128h128V128z"/></symbol><symbol id="hd-icon-zmdi-settings" viewBox="0 0 416 432"><path fill="currentColor" d="m366 237l45 35q7 6 3 14l-43 74q-4 8-13 4l-53-21q-18 13-36 21l-8 56q-1 9-11 9h-85q-9 0-11-9l-8-56q-19-8-36-21l-53 21q-9 3-13-4L1 286q-4-8 3-14l45-35q-1-12-1-21t1-21L4 160q-7-6-3-14l43-74q5-8 13-4l53 21q18-13 36-21l8-56q2-9 11-9h85q10 0 11 9l8 56q19 8 36 21l53-21q9-3 13 4l43 74q4 8-3 14l-45 35q2 12 2 21t-2 21m-158.5 54q30.5 0 52.5-22t22-53t-22-53t-52.5-22t-52.5 22t-22 53t22 53t52.5 22"/></symbol><symbol id="hd-icon-zmdi-settings-square" viewBox="0 0 384 384"><path fill="currentColor" d="M192 149q18 0 30.5 12.5T235 192t-12.5 30.5T192 235t-30.5-12.5T149 192t12.5-30.5T192 149M341 0q18 0 30.5 12.5T384 43v298q0 18-12.5 30.5T341 384H43q-18 0-30.5-12.5T0 341V43q0-18 12.5-30.5T43 0zm-37 192q0-7-1-15l32-24q4-5 1-10l-30-52q-3-5-9-3l-37 15q-12-9-25-15l-6-39q-1-6-7-6h-60q-6 0-7 6l-6 40q-14 5-25 14L87 88q-6-2-9 4l-30 51q-3 6 1 10l32 24q-1 8-1 15t1 15l-32 24q-4 5-1 10l30 52q3 5 9 3l37-15q12 9 25 15l6 39q1 6 7 6h60q6 0 7-6l6-40q14-5 25-14l37 15q6 2 9-4l30-51q3-6-1-10l-32-24q1-8 1-15"/></symbol><symbol id="hd-icon-zmdi-shape" viewBox="0 0 480 384"><path fill="currentColor" d="M79 0h164q16-2 29.5 9T287 37v111l36-59q30 47 84 135.5T474 335H233q-29 30-52 39q-42 18-88 4t-71-53q-27-39-21-89t41-82V48q-2-18 8.5-33T79 0m12 53v72q40-13 82 1t65 49V53zm40 114q-30 1-51 18.5T49 233q-8 34 13 65.5t56 36.5q34 6 64-17t32-58q5-36-21-65t-62-28m192 16l-62 102h125z"/></symbol><symbol id="hd-icon-zmdi-share" viewBox="0 0 384 432"><path fill="currentColor" d="M320 303q26 0 44 18.5t18 44t-18 44t-44 18.5t-44-18.5t-18-44.5q0-6 1-14l-151-88q-19 17-44 17q-27 0-45.5-18.5T0 216t18.5-45.5T64 152q25 0 44 17l150-87q-2-9-2-15q0-27 18.5-45.5T320 3t45.5 18.5t18.5 45t-18.5 45.5t-45.5 19q-25 0-44-18l-150 88q2 9 2 15t-2 15l152 88q18-16 42-16"/></symbol><symbol id="hd-icon-zmdi-shield-check" viewBox="0 0 384 480"><path fill="currentColor" d="m192 5l192 86v128q0 89-55 162.5T192 475q-82-20-137-93.5T0 219V91zm-43 342l171-171l-30-30l-141 140l-55-55l-30 30z"/></symbol><symbol id="hd-icon-zmdi-shield-security" viewBox="0 0 384 480"><path fill="currentColor" d="m192 5l192 86v128q0 89-55 162.5T192 475q-82-20-137-93.5T0 219V91zm0 235V52L43 118v122zv191q59-19 100-72t49-119z"/></symbol><symbol id="hd-icon-zmdi-shopping-basket" viewBox="0 0 472 408"><path fill="currentColor" d="M346 152h102q9 0 15 6.5t6 14.5v6l-54 198q-4 13-15.5 22t-26.5 9H96q-15 0-26-9t-15-22L1 179q-1-2-1-6q0-8 6.5-14.5T21 152h103l93-140q6-9 17.5-9t17.5 9zm-175 0h128l-64-94zm63.5 171q17.5 0 30-12.5T277 280t-12.5-30.5t-30-12.5t-30 12.5T192 280t12.5 30.5t30 12.5"/></symbol><symbol id="hd-icon-zmdi-shopping-cart" viewBox="0 0 432 432"><path fill="currentColor" d="M128 344q18 0 30.5 12.5t12.5 30t-12.5 30T128 429t-30-12.5t-12-30t12-30t30-12.5M0 3h70l20 42h315q9 0 15.5 6.5T427 67q0 5-3 10l-76 138q-12 22-38 22H151l-19 35v3q0 5 5 5h247v43H128q-18 0-30.5-12.5T85 280q0-11 6-20l28-53L43 45H0zm341.5 341q17.5 0 30 12.5t12.5 30t-12.5 30t-30 12.5t-30-12.5t-12.5-30t12.5-30t30-12.5"/></symbol><symbol id="hd-icon-zmdi-shopping-cart-plus" viewBox="0 0 432 456"><path fill="currentColor" d="M213 176v-64h-64V69h64V5h43v64h64v43h-64v64zm-85 192q18 0 30.5 12.5t12.5 30t-12.5 30T128 453t-30-12.5t-12-30t12-30t30-12.5m213.5 0q17.5 0 30 12.5t12.5 30t-12.5 30t-30 12.5t-30-12.5t-12.5-30t12.5-30t30-12.5M132 299q0 5 5 5h247v43H128q-18 0-30.5-12.5T85 304q0-11 6-20l28-53L43 69H0V27h70l20 42l20 43l48 101l3 6h149l59-107l24-43l37 21l-82 149q-12 22-38 22H151l-19 35z"/></symbol><symbol id="hd-icon-zmdi-shuffle" viewBox="0 0 344 384"><path fill="currentColor" d="m141 132l-31 30L0 51l30-30zm83-111h117v118l-43-44L30 363L0 333L268 65zm7 201l67 67l43-44v118H224l44-44l-67-67z"/></symbol><symbol id="hd-icon-zmdi-sign-in" viewBox="0 0 384 384"><path fill="currentColor" d="m151 269l55-56H0v-42h206l-55-56l30-30l107 107l-107 107zM341 0q18 0 30.5 12.5T384 43v298q0 18-12.5 30.5T341 384H43q-18 0-30.5-12.5T0 341v-85h43v85h298V43H43v85H0V43q0-18 12.5-30.5T43 0z"/></symbol><symbol id="hd-icon-zmdi-skip-next" viewBox="0 0 256 384"><path fill="currentColor" d="M0 320V64l181 128zM213 64h43v256h-43z"/></symbol><symbol id="hd-icon-zmdi-skip-previous" viewBox="0 0 256 384"><path fill="currentColor" d="M0 64h43v256H0zm75 128L256 64v256z"/></symbol><symbol id="hd-icon-zmdi-skype" viewBox="0 0 432 432"><path fill="currentColor" d="M414 261q13 25 13 52q0 48-34.5 82T309 429q-30 0-56-13q-19 3-37 3q-85 0-144.5-59T12 218q0-20 4-40q-16-27-16-59q0-48 34.5-82T118 3q34 0 63 18q17-3 35-3q84 0 143.5 58.5T419 218q0 22-5 43m-95.5 52.5Q333 294 333 269q0-21-8.5-35.5T301 210q-14-10-34-16q-21-6-45-12q-20-4-29-7q-8-2-16-6t-12-9t-4-12q0-11 12-19q14-8 36-8q23 0 34 7q10 8 18 23q6 11 12 16t18 5t20.5-8.5T320 144t-6.5-22.5t-20-22t-33.5-17t-47-6.5q-35 0-60 10q-26 9-39.5 27T100 153q0 24 13 41q13 16 35 25q21 9 53 16q23 4 37 9q14 4 22 11q8 8 8 20q0 14-15 25q-16 10-41 10q-18 0-29.5-5T165 292t-11-21q-5-11-12-17q-8-6-18-6q-13 0-21.5 8T94 275q0 18 13 36t34 29q28 15 72 15q37 0 64-11t41.5-30.5"/></symbol><symbol id="hd-icon-zmdi-slideshare" viewBox="0 0 424 432"><path fill="currentColor" d="M153 132q21 0 35.5 14t14.5 33.5t-14.5 33T153 226t-36-13.5t-15-33t15-33.5t36-14m119 0q21 0 35.5 13.5t14.5 33t-14.5 33.5t-35.5 14t-36-14t-15-33.5t15-33t36-13.5m131 74q10-7 15-.5t-1 15.5q-29 36-88 60q26 89-22 131q-32 27-64 14q-27-10-26-42q0 1-.5-24.5T216 306l-4-1l-7-2v81q1 36-32 44q-36 9-65-23q-40-43-16-124q-60-25-89-60q-6-9-1-15.5t14 .5l4 3V44q0-17 12.5-29T61 3h300q16 0 26 12t10 29v165q2 0 6-3m-27 16V63q0-22-6.5-30.5T345 24H79q-20 0-26.5 8.5T46 63v160q23 14 51 19.5t46 4.5t34 0q15-1 22 6q1 0 1.5 1l.5 1q9 8 15 12q1-22 27-20q16-1 34 0t46-5t53-20"/></symbol><symbol id="hd-icon-zmdi-slideshow" viewBox="0 0 384 384"><path fill="currentColor" d="m149 107l107 85l-107 85zM341 0q18 0 30.5 12.5T384 43v298q0 18-12.5 30.5T341 384H43q-18 0-30.5-12.5T0 341V43q0-18 12.5-30.5T43 0zm0 341V43H43v298z"/></symbol><symbol id="hd-icon-zmdi-smartphone" viewBox="0 0 304 480"><path fill="currentColor" d="M256 6q18 0 30.5 12T299 48v384q0 18-12.5 30.5T256 475H43q-18 0-30.5-12.5T0 432V48q0-18 12.5-30.5T43 5zm0 383V91H43v298z"/></symbol><symbol id="hd-icon-zmdi-smartphone-android" viewBox="0 0 304 480"><path fill="currentColor" d="M235 5q26 0 45 19t19 45v342q0 26-19 45t-45 19H64q-27 0-45.5-19T0 411V69q0-26 18.5-45T64 5zm-43 427v-21h-85v21zm69-64V69H37v299z"/></symbol><symbol id="hd-icon-zmdi-smartphone-download" viewBox="0 0 304 480"><path fill="currentColor" d="M256 6q18 0 30.5 12T299 48v384q0 18-12.5 30.5T256 475H43q-18 0-30.5-12.5T0 432V48q0-18 12.5-30.5T43 5zm0 383V91H43v298zm-21-128l-86 86l-85-86h64V155h43v106z"/></symbol><symbol id="hd-icon-zmdi-smartphone-erase" viewBox="0 0 384 480"><path fill="currentColor" d="m213 159l-85 85l85 86l-21 21l-85-85l-86 85l-21-21l85-86l-85-85l21-21l86 85l85-85zM341 5q18 0 30.5 12.5T384 48v384q0 18-12.5 30.5T341 475H128q-18 0-30.5-12.5T85 432v-64h43v43h213V69H128v43H85V48q0-18 12.5-30.5T128 5z"/></symbol><symbol id="hd-icon-zmdi-smartphone-info" viewBox="0 0 304 480"><path fill="currentColor" d="M171 133v43h-43v-43zm0 86v128h-43V219zM256 6q18 0 30.5 12T299 48v384q0 18-12.5 30.5T256 475H43q-18 0-30.5-12.5T0 432V48q0-18 12.5-30.5T43 5zm0 383V91H43v298z"/></symbol><symbol id="hd-icon-zmdi-smartphone-iphone" viewBox="0 0 280 480"><path fill="currentColor" d="M224 5q22 0 37.5 16T277 59v362q0 22-15.5 38T224 475H53q-22 0-37.5-16T0 421V59q0-22 15.5-38T53 5zm-85.5 448q13.5 0 23-9t9.5-22.5t-9.5-23t-23-9.5t-22.5 9.5t-9 23t9 22.5t22.5 9m96.5-85V69H43v299z"/></symbol><symbol id="hd-icon-zmdi-smartphone-landscape" viewBox="0 0 472 384"><path fill="currentColor" d="M0 85q0-17 12.5-29.5T43 43h384q17 0 29.5 12.5T469 85v214q0 17-12.5 29.5T427 341H43q-18 0-30.5-12.5T0 299zm384 0H85v214h299z"/></symbol><symbol id="hd-icon-zmdi-smartphone-landscape-lock" viewBox="0 0 472 384"><path fill="currentColor" d="M427 43q17 0 29.5 12.5T469 85v214q0 17-12.5 29.5T427 341H43q-18 0-30.5-12.5T0 299V85q0-17 12.5-29.5T43 43zm-43 256V85H85v214zm-192-22q-9 0-15-6t-6-15v-64q0-9 6-15t15-6v-22q0-17 12.5-29.5t30-12.5t30 12.5T277 149v22q9 0 15.5 6t6.5 15v64q0 9-6.5 15t-15.5 6zm17-128v22h51v-22q0-10-7.5-17.5t-18-7.5t-18 7.5T209 149"/></symbol><symbol id="hd-icon-zmdi-smartphone-lock" viewBox="0 0 368 480"><path fill="currentColor" d="M320 5q18 0 30.5 12.5T363 48v384q0 18-12.5 30.5T320 475H107q-18 0-30.5-12.5T64 432v-64h43v43h213V69H107v43H64V48q0-18 12.5-30.5T107 5zM145 219q10 0 18 8t8 19v75q0 10-8.5 18t-19.5 8H26q-10 0-18-8.5T0 319v-75q0-9 8-17t18-8v-32q0-22 18-38t41-16t41.5 16t18.5 38zm-28 0v-32q0-13-9-20.5T85.5 159t-23 7.5T53 187v32z"/></symbol><symbol id="hd-icon-zmdi-smartphone-portrait-lock" viewBox="0 0 304 480"><path fill="currentColor" d="M107 325q-9 0-15.5-6T85 304v-64q0-9 6.5-15t15.5-6v-22q0-17 12.5-29.5t30-12.5t30 12.5T192 197v22q9 0 15 6t6 15v64q0 9-6 15t-15 6zm17-128v22h51v-22q0-10-7.5-17.5t-18-7.5t-18 7.5T124 197M256 5q18 0 30.5 12.5T299 48v384q0 18-12.5 30.5T256 475H43q-18 0-30.5-12.5T0 432V48q0-18 12.5-30.5T43 5zm0 384V91H43v298z"/></symbol><symbol id="hd-icon-zmdi-smartphone-ring" viewBox="0 0 432 480"><path fill="currentColor" d="M386 148q40 39 40 92t-40 90l-21-22q29-30 29-70t-29-68zm-45 45q20 21 20 47t-20 45l-21-22q18-24 0-49zM256 5q18 0 30.5 12.5T299 48v384q0 18-12.5 30.5T256 475H43q-18 0-30.5-12.5T0 432V48q0-18 12.5-30.5T43 5zm0 406V69H43v342z"/></symbol><symbol id="hd-icon-zmdi-smartphone-setting" viewBox="0 0 256 512"><path fill="currentColor" d="M21 512v-43h43v43zm86 0v-43h42v43zm85 0v-43h43v43zM213 0q18 0 30.5 12.5T256 43v341q0 18-12.5 30.5T213 427H43q-18 0-30.5-12.5T0 384V43q0-18 12.5-30.5T43 0zm0 341V85H43v256z"/></symbol><symbol id="hd-icon-zmdi-smartphone-setup" viewBox="0 0 392 480"><path fill="currentColor" d="m189 251l23 19q4 4 2 6l-21 37q-2 2-7 2l-27-11q-13 9-19 11l-5 27q-4 5-6 5H86q-2 0-3.5-1.5T82 342l-4-27q-7-2-20-11l-29 9q-3 2-7-3L1 274q0-4 2-8l23-17v-22L3 210q-4-4-2-6l21-37q2-2 7-2l27 11q13-9 20-11l4-27q4-5 6-5h43q6 0 6 5l5 27q6 2 19 11l27-9q3-2 7 3l21 36q0 4-2 6l-23 17zm-81.5 32q17.5 0 30-12.5T150 240t-12.5-30.5t-30-12.5t-30 12.5T65 240t12.5 30.5t30 12.5M342 5q18 0 30.5 12.5T385 48v384q0 18-12.5 30.5T342 475H129q-18 0-30.5-12.5T86 432v-64h43v43h213V69H129v43H86V48q0-18 12.5-30.5T129 5z"/></symbol><symbol id="hd-icon-zmdi-sort-amount-asc" viewBox="0 0 384 384"><path fill="currentColor" d="M0 64h128v43H0zm0 256v-43h384v43zm0-149h256v42H0z"/></symbol><symbol id="hd-icon-zmdi-sort-amount-desc" viewBox="0 0 384 384"><path fill="currentColor" d="M0 320v-43h128v43zM0 64h384v43H0zm0 149v-42h256v42z"/></symbol><symbol id="hd-icon-zmdi-sort-asc" viewBox="0 0 424 496"><path fill="currentColor" d="M282 76H135l74-73zM135 420h147l-73 73zM70 283h81l-41-111zm23-158h35l93 246h-38l-20-53H57l-19 53H0zm192 212h132v34H233v-28l128-183H234v-35h179v27z"/></symbol><symbol id="hd-icon-zmdi-sort-desc" viewBox="0 0 424 496"><path fill="currentColor" d="M282 76H135l74-73zM135 420h147l-73 73zm131-137h81l-40-111zm24-158h34l93 246h-38l-19-53H254l-20 53h-38zM52 337h132v34H0v-28l128-183H1v-35h179v27z"/></symbol><symbol id="hd-icon-zmdi-soundcloud" viewBox="0 0 432 384"><path fill="currentColor" d="M9 260H0v-51h9zm21 17h-9v-81h9zm17 4h-9v-94h9zm17 4h-9v-94h9zm21 0h-8V162h8zm17 0h-8V145h8zm22 0h-9V136h9zm17 0h-9V132h9zm21 0h-8V136h8zm17 0h-8V140h8zm17 0h-8V123h8zm22 0h-9V110h9zm156-1H228q-6 0-6-6V111q0-4 5-6q17-6 34-6q36 0 62.5 24.5T354 183q9-4 20-4q22 0 37.5 15.5T427 232t-15.5 37t-37.5 15"/></symbol><symbol id="hd-icon-zmdi-space-bar" viewBox="0 0 344 384"><path fill="currentColor" d="M299 128h42v128H0V128h43v85h256z"/></symbol><symbol id="hd-icon-zmdi-speaker" viewBox="0 0 304 432"><path fill="currentColor" d="M256 3q18 0 30.5 12.5T299 45v342q0 17-12.5 29.5T256 429H43q-18 0-30.5-12.5T0 387V45q0-17 12.5-29.5T43 3zM149.5 45q-17.5 0-30 12.5T107 88t12.5 30.5t30 12.5t30-12.5T192 88t-12.5-30.5t-30-12.5m-.5 342q44 0 75.5-31.5T256 280t-31.5-75.5T149 173t-75 31.5T43 280t31 75.5t75 31.5m.5-171q26.5 0 45 18.5T213 280t-18.5 45.5t-45 18.5t-45.5-18.5T85 280t19-45.5t45.5-18.5"/></symbol><symbol id="hd-icon-zmdi-spellcheck" viewBox="0 0 440 416"><path fill="currentColor" d="m213 277l-24-64H68l-23 64H0L109 0h40l109 277zM85 171h88L129 53zm323 12l30 30l-202 203l-109-109l30-30l79 79z"/></symbol><symbol id="hd-icon-zmdi-spinner" viewBox="0 0 424 448"><path fill="currentColor" d="M212.5 7Q231 7 244 20.5T257 52t-13 31.5T212.5 97T181 83.5T168 52t13-31.5T212.5 7M337 54q22 0 37.5 16t15.5 37.5t-15.5 37.5t-37.5 16t-38-16t-16-37.5T299 70t38-16M91.5 64q16.5 0 28 12t11.5 28.5t-11.5 28.5t-28 12T63 133t-12-28.5T63 76t28.5-12M34 198q14 0 24 10t10 24t-10 24t-24 10t-24-10t-10-24t10-24t24-10m355 0q14 0 24 10t10 24t-10 24t-24 10t-24-10t-10-24t10-24t24-10M85 325q14 0 24 10t10 24t-10 24t-24 10t-24-10t-10-24t10-24t24-10m255 0q14 0 24 10t10 24t-10 24t-24 10t-24-10t-10-24t10-24t24-10m-128 47q14 0 24.5 10.5T247 407t-10.5 24t-24.5 10t-24-10t-10-24t10-24.5t24-10.5"/></symbol><symbol id="hd-icon-zmdi-square-down" viewBox="0 0 472 400"><path fill="currentColor" d="m235 288l-86-85h64V11h43v192h64zM427 11q17 0 29.5 12.5T469 53v299q0 18-12.5 30.5T427 395H43q-18 0-30.5-12.5T0 352V53q0-17 12.5-29.5T43 11h128v42H43v299h384V53H299V11z"/></symbol><symbol id="hd-icon-zmdi-square-o" viewBox="0 0 384 384"><path fill="currentColor" d="M341 43H43v298h298zm0-43q18 0 30.5 12.5T384 43v298q0 18-12.5 30.5T341 384H43q-18 0-30.5-12.5T0 341V43q0-18 12.5-30.5T43 0z"/></symbol><symbol id="hd-icon-zmdi-square-right" viewBox="0 0 472 384"><path fill="currentColor" d="M427 0q17 0 29.5 12.5T469 43v299q0 17-12.5 29.5T427 384H43q-18 0-30.5-12.5T0 342v-86h43v86h384V42H43v86H0V43q0-18 12.5-30.5T43 0zM213 277v-64H0v-42h213v-64l86 85z"/></symbol><symbol id="hd-icon-zmdi-stackoverflow" viewBox="0 0 336 432"><path fill="currentColor" d="M245 395V250h34v179H0V251l32 1l-1 143zM52 335h167v35H52zm5-63l168 16l-4 36l-168-16zm15-73l163 46l-10 35l-163-46zm40-82l144 87l-19 32l-144-87zm150 81L164 61l30-21l98 137zM272 9l36-6l28 166l-36 6z"/></symbol><symbol id="hd-icon-zmdi-star" viewBox="0 0 432 408"><path fill="currentColor" d="M213 328L81 408l35-150L0 157l153-13L213 3l60 141l154 13l-117 101l35 150z"/></symbol><symbol id="hd-icon-zmdi-star-circle" viewBox="0 0 432 432"><path fill="currentColor" d="M213.5 3q88.5 0 151 62.5T427 216t-62.5 150.5t-151 62.5t-151-62.5T0 216T62.5 65.5T213.5 3M304 344l-24-103l79-69l-105-9l-41-96l-41 97l-105 8l80 69l-24 103l90-54z"/></symbol><symbol id="hd-icon-zmdi-star-half" viewBox="0 0 432 416"><path fill="currentColor" d="M427 160L310 261l35 150l-132-80l-132 80l35-150L0 160l153-13L213 5l60 142zM213 291l81 49l-22-91l71-62l-93-8l-37-86z"/></symbol><symbol id="hd-icon-zmdi-star-outline" viewBox="0 0 432 408"><path fill="currentColor" d="M427 157L310 258l35 150l-132-80l-132 80l35-150L0 157l153-13L213 3l60 141zM213 289l81 48l-22-91l71-62l-93-8l-37-86l-36 86l-93 8l70 62l-21 91z"/></symbol><symbol id="hd-icon-zmdi-steam" viewBox="0 0 432 400"><path fill="currentColor" d="M372 119q0 26-18 44.5T310 182t-44.5-18.5T247 119t18.5-44.5T310 56t44 18.5t18 44.5M0 319V209l65 26q20-12 45-12h9l73-105q0-48 34.5-82T309 2q49 0 83.5 34.5t34.5 83t-34.5 83T309 237l-112 82q-3 34-28 56.5T110 398q-32 0-56-19.5T24 329zM309.5 40Q277 40 254 63.5t-23 56t23 55.5t55.5 23t55.5-23t23-55.5t-23-56T309.5 40M110 246q-7 0-14 2l27 10q19 8 27.5 27.5t.5 39.5t-27.5 28t-39.5 1q-6-3-16.5-7.5T53 341q18 34 57 34q26 0 45-19t19-45.5t-19-45.5t-45-19"/></symbol><symbol id="hd-icon-zmdi-steam-square" viewBox="0 0 440 448"><path fill="currentColor" d="M355 153q0-23-16.5-39t-39-16t-39 16t-16.5 39t16.5 39t39 16t39-16t16.5-39M181 321q0 24-17 40t-40 16q-16 0-29.5-8T74 347q15 6 28 12q17 6 34-1t25-25q6-17-1-34t-25-24l-23-9q6-2 12-2q23 0 40 16.5t17 40.5M439 87v274q0 34-24 58t-58 24H82q-34 0-58-24T0 361v-44l49 20q6 26 27 43.5t48 17.5q30 0 52-20t25-50l98-72q43 0 73-30t30-73q0-42-30-72.5T299 50q-42 0-72 30t-31 72l-64 92h-8q-21 0-39 11L0 221V87q0-34 24-58T82 5h275q34 0 58 24t24 58m-71 66q0 29-20 49t-48.5 20t-49-20t-20.5-48.5t20.5-49T299 84q29 0 49 20.5t20 48.5"/></symbol><symbol id="hd-icon-zmdi-stop" viewBox="0 0 256 384"><path fill="currentColor" d="M0 64h256v256H0z"/></symbol><symbol id="hd-icon-zmdi-storage" viewBox="0 0 432 384"><path fill="currentColor" d="M0 363v-86h427v86zm43-64v42h42v-42zM0 21h427v86H0zm85 64V43H43v42zM0 235v-86h427v86zm43-64v42h42v-42z"/></symbol><symbol id="hd-icon-zmdi-store" viewBox="0 0 384 384"><path fill="currentColor" d="M363 21v43H21V21zm21 214h-21v128h-43V235h-85v128H21V235H0v-43L21 85h342l21 107zm-192 85v-85H64v85z"/></symbol><symbol id="hd-icon-zmdi-store-24" viewBox="0 0 432 384"><path fill="currentColor" d="M363 85h64v278H256v-86h-85v86H0V85h64V21h299zm-171 64V85h-64v22h43v21h-43v64h64v-21h-43v-22zm107 43V85h-22v43h-21V85h-21v64h42v43z"/></symbol><symbol id="hd-icon-zmdi-subway" viewBox="0 0 344 408"><path fill="currentColor" d="M170.5 3q39.5 0 67 3t53 11.5t38 26T341 88v203q0 31-21.5 52.5T267 365l32 32v11H43v-11l32-32q-31 0-53-21.5T0 291V88q0-27 12.5-44.5t38-26t53-11.5t67-3m-96 320q13.5 0 23-9.5t9.5-23t-9.5-22.5t-23-9t-22.5 9t-9 22.5t9 23t22.5 9.5M149 195V88H43v107zm117.5 128q13.5 0 23-9.5t9.5-23t-9.5-22.5t-23-9t-22.5 9t-9 22.5t9 23t22.5 9.5M299 195V88H192v107z"/></symbol><symbol id="hd-icon-zmdi-sun" viewBox="0 0 472 472"><path fill="currentColor" d="m123 95l-30 30l-39-38l30-30zM64 216v43H0v-43zM256 4v63h-43V4zm159 83l-38 38l-30-30l38-38zm-69 292l30-29l39 38l-30 30zm59-163h64v43h-64zM235 109q53 0 90.5 37.5T363 237t-37.5 90.5T235 365t-90.5-37.5T107 237t37.5-90.5T235 109m-22 362v-63h43v63zM54 388l39-39l30 30l-39 39z"/></symbol><symbol id="hd-icon-zmdi-surround-sound" viewBox="0 0 432 384"><path fill="currentColor" d="M384 21q18 0 30.5 12.5T427 64v256q0 18-12.5 30.5T384 363H43q-18 0-30.5-12.5T0 320V64q0-18 12.5-30.5T43 21zM123 282q-38-37-38-90t38-91L93 71q-50 50-50 121t50 121zm90.5-5q35.5 0 60.5-25t25-60t-25-60t-60.5-25t-60.5 25t-25 60t25 60t60.5 25M334 313q50-50 50-121T334 71l-30 31q37 37 37 90t-37 91zM213.5 149q17.5 0 30 12.5T256 192t-12.5 30.5t-30 12.5t-30-12.5T171 192t12.5-30.5t30-12.5"/></symbol><symbol id="hd-icon-zmdi-swap" viewBox="0 0 384 384"><path fill="currentColor" d="M85 171v64h150v42H85v64L0 256zm299-43l-85 85v-64H149v-42h150V43z"/></symbol><symbol id="hd-icon-zmdi-swap-alt" viewBox="0 0 432 384"><path fill="currentColor" d="m341 21l86 86h-64v149q0 35-25 60t-60.5 25t-60.5-25t-25-60V107q0-18-12.5-30.5t-30-12.5t-30 12.5T107 107v149h64l-86 85l-85-85h64V107q0-36 25-61t60.5-25T210 46t25 61v149q0 18 12.5 30.5t30 12.5t30-12.5T320 256V107h-64z"/></symbol><symbol id="hd-icon-zmdi-swap-vertical" viewBox="0 0 304 384"><path fill="currentColor" d="M235 299h64l-86 85l-85-85h64V149h43zM85 0l86 85h-64v150H64V85H0z"/></symbol><symbol id="hd-icon-zmdi-swap-vertical-circle" viewBox="0 0 432 432"><path fill="currentColor" d="M213.5 3q88.5 0 151 62.5T427 216t-62.5 150.5t-151 62.5t-151-62.5T0 216T62.5 65.5T213.5 3M96 152h53v85h43v-85h53l-74-75zm235 128h-54v-85h-42v85h-54l75 75z"/></symbol><symbol id="hd-icon-zmdi-tab" viewBox="0 0 472 384"><path fill="currentColor" d="M427 0q17 0 29.5 12.5T469 43v298q0 18-12.5 30.5T427 384H43q-18 0-30.5-12.5T0 341V43q0-18 12.5-30.5T43 0zm0 341V128H256V43H43v298z"/></symbol><symbol id="hd-icon-zmdi-tab-unselected" viewBox="0 0 472 384"><path fill="currentColor" d="M0 128V85h43v43zm0 85v-42h43v42zM0 43q0-18 12.5-30.5T43 0v43zm171 341v-43h42v43zM0 299v-43h43v43zm43 85q-18 0-30.5-12.5T0 341h43zM427 0q17 0 29.5 12.5T469 43v85H256V0zm0 299v-43h42v43zM171 43V0h42v43zM85 384v-43h43v43zm0-341V0h43v43zm342 341v-43h42q0 18-12.5 30.5T427 384m0-171v-42h42v42zM256 384v-43h43v43zm85 0v-43h43v43z"/></symbol><symbol id="hd-icon-zmdi-tablet" viewBox="0 0 472 384"><path fill="currentColor" d="M427 21q17 0 29.5 12.5T469 64v256q0 18-12.5 30.5T427 363H43q-18 0-30.5-12.5T0 320V64q0-18 12.5-30.5T43 21zm-43 299V64H85v256z"/></symbol><symbol id="hd-icon-zmdi-tablet-android" viewBox="0 0 384 512"><path fill="currentColor" d="M320 0q27 0 45.5 18.5T384 64v384q0 27-18.5 45.5T320 512H64q-27 0-45.5-18.5T0 448V64q0-27 18.5-45.5T64 0zm-85 469v-21h-86v21zm112-64V64H37v341z"/></symbol><symbol id="hd-icon-zmdi-tablet-mac" viewBox="0 0 408 512"><path fill="currentColor" d="M352 0q22 0 37.5 15.5T405 53v406q0 22-15.5 37.5T352 512H53q-22 0-37.5-15.5T0 459V53q0-22 15.5-37.5T53 0zM202.5 491q13.5 0 23-9.5t9.5-23t-9.5-22.5t-23-9t-22.5 9t-9 22.5t9 23t22.5 9.5M363 405V64H43v341z"/></symbol><symbol id="hd-icon-zmdi-tag" viewBox="0 0 512 384"><path fill="currentColor" d="M469 0q18 0 30.5 12.5T512 43v298q0 18-12.5 30.5T469 384H149q-21 0-34-19L0 192L115 19q13-19 34-19z"/></symbol><symbol id="hd-icon-zmdi-tag-close" viewBox="0 0 512 384"><path fill="currentColor" d="M469 0q18 0 30.5 12.5T512 43v298q0 18-12.5 30.5T469 384H149q-21 0-34-19L0 192L115 19q13-19 34-19zm-64 269l-76-77l76-77l-30-30l-76 77l-77-77l-30 30l77 77l-77 77l30 30l77-77l76 77z"/></symbol><symbol id="hd-icon-zmdi-tag-more" viewBox="0 0 512 384"><path fill="currentColor" d="M469 0q18 0 30.5 12.5T512 43v298q0 18-12.5 30.5T469 384H151q-23 0-36-19L0 192L115 19q13-19 34-19zM192 224q13 0 22.5-9.5T224 192t-9.5-22.5T192 160t-22.5 9.5T160 192t9.5 22.5T192 224m106.5 0q13.5 0 23-9.5T331 192t-9.5-22.5t-23-9.5t-22.5 9.5t-9 22.5t9 22.5t22.5 9.5m107 0q13.5 0 22.5-9.5t9-22.5t-9-22.5t-22.5-9.5t-23 9.5T373 192t9.5 22.5t23 9.5"/></symbol><symbol id="hd-icon-zmdi-tap-and-play" viewBox="0 0 368 480"><path fill="currentColor" d="M0 325q62 0 105.5 44T149 475h-42q0-44-31.5-75.5T0 368zm0 86q27 0 45.5 18.5T64 475H0zm0-171q97 0 166 68.5T235 475h-43q0-80-56-136T0 283zM320 6q18 0 30.5 12T363 48v363q0 17-12.5 29.5T320 453h-44q-4-45-21-85h65V91H107v128q-20-8-43-14V48q0-18 12.5-30.5T107 5z"/></symbol><symbol id="hd-icon-zmdi-text-format" viewBox="0 0 304 384"><path fill="currentColor" d="M0 299h299v42H0zm96-90l-19 47H32L133 21h32l102 235h-45l-19-47zm53-145l-40 107h80z"/></symbol><symbol id="hd-icon-zmdi-texture" viewBox="0 0 384 384"><path fill="currentColor" d="M352 2q24 6 31 30L32 382q-11-3-19-11T2 352zM189 0h61L0 250v-61zM43 0h42L0 85V43q0-18 12.5-30.5T43 0m298 384h-42l85-85v42q0 18-13 30q-12 13-30 13m-207 0l250-250v61L195 384z"/></symbol><symbol id="hd-icon-zmdi-thumb-down" viewBox="0 0 472 432"><path fill="currentColor" d="M299 0q17 0 29.5 12.5T341 43v213q0 18-12 30L188 427l-22-23q-10-9-10-22l1-7l20-98H43q-18 0-30.5-12.5T0 235v-43q0-8 3-16L67 26Q78 0 107 0zm85 0h85v256h-85z"/></symbol><symbol id="hd-icon-zmdi-thumb-up" viewBox="0 0 472 432"><path fill="currentColor" d="M0 432V176h85v256zm469-235v43q0 8-3 16l-64 150q-11 26-39 26H171q-18 0-30.5-12.5T128 389V176q0-18 13-30L281 5l23 23q9 9 9 22l-1 7l-20 98h135q17 0 29.5 12.5T469 197"/></symbol><symbol id="hd-icon-zmdi-thumb-up-down" viewBox="0 0 512 512"><path fill="currentColor" d="M256 128v27q0 6-2 11l-49 113q-8 20-29 20H32q-13 0-22.5-9.5T0 267V128q0-13 9-23L115 0l17 17q7 7 7 17l-1 5l-14 68h111q8 0 14.5 6t6.5 15m224 85q13 0 22.5 9.5T512 245v139q0 13-9 23L397 512l-17-17q-7-7-7-17l1-5l14-68H277q-8 0-14.5-6t-6.5-15v-27q0-6 2-11l49-113q8-20 29-20z"/></symbol><symbol id="hd-icon-zmdi-ticket-star" viewBox="0 0 432 384"><path fill="currentColor" d="M384 192q0 18 12.5 30.5T427 235v85q0 18-12.5 30.5T384 363H43q-18 0-30.5-12.5T0 320v-85q18 0 30.5-12.5T43 192t-12.5-30.5T0 149V64q0-18 12.5-30.5T43 21h341q18 0 30.5 12.5T427 64v85q-18 0-30.5 12.5T384 192m-94 102l-24-87l71-58l-91-5l-33-84l-33 84l-90 5l70 58l-23 87l76-49z"/></symbol><symbol id="hd-icon-zmdi-time" viewBox="0 0 432 432"><path fill="currentColor" d="M213.5 3q88.5 0 151 62.5T427 216t-62.5 150.5t-151 62.5t-151-62.5T0 216T62.5 65.5T213.5 3m0 384q70.5 0 120.5-50t50-121t-50-121t-120.5-50T93 95T43 216t50 121t120.5 50M224 109v112l96 57l-16 27l-112-68V109z"/></symbol><symbol id="hd-icon-zmdi-time-countdown" viewBox="0 0 384 384"><path fill="currentColor" d="M171 298.5q0-8.5 6-15t15-6.5t15 6.5t6 15t-6 15t-15 6.5t-15-6.5t-6-15M171 0h21q80 0 136 56t56 136t-56 136t-136 56t-136-56T0 192q0-46 20.5-86.5T77 39v-1l145 145l-30 30L76 98q-33 41-33 94q0 62 43.5 105.5T192 341t105.5-43.5T341 192q0-56-36.5-98T213 44v41h-42zm149 192q0 9-6.5 15t-15 6t-15-6t-6.5-15t6.5-15t15-6t15 6t6.5 15m-256 0q0-9 6.5-15t15-6t15 6t6.5 15t-6.5 15t-15 6t-15-6t-6.5-15"/></symbol><symbol id="hd-icon-zmdi-time-interval" viewBox="0 0 432 432"><path fill="currentColor" d="M303.5 125.5Q341 163 341 216t-37.5 90.5T213 344t-90-38l90-90V88q53 0 90.5 37.5M213.5 3q88.5 0 151 62.5T427 216t-62.5 150.5t-151 62.5t-151-62.5T0 216T62.5 65.5T213.5 3m0 384q70.5 0 120.5-50t50-121t-50-121t-120.5-50T93 95T43 216t50 121t120.5 50"/></symbol><symbol id="hd-icon-zmdi-time-restore" viewBox="0 0 448 384"><path fill="currentColor" d="M256 0q80 0 136 56t56 136t-56 136t-136 56q-79 0-136-56l31-31q43 44 105 44t105.5-43.5T405 192T361.5 86.5T256 43T150.5 86.5T107 192h64l-87 86l-1-3l-83-83h64q0-80 56-136T256 0m-21 107h32v90l74 45l-15 26l-91-55z"/></symbol><symbol id="hd-icon-zmdi-time-restore-setting" viewBox="0 0 448 384"><path fill="currentColor" d="M299 192q0 18-12.5 30.5T256 235t-30.5-12.5T213 192t12.5-30.5T256 149t30.5 12.5T299 192M256 0q80 0 136 56t56 136t-56 136t-136 56q-65 0-117-40l30-30q40 27 87 27q62 0 105.5-43.5T405 192T361.5 86.5T256 43T150.5 86.5T107 192h64l-86 85l-85-85h64q0-80 56-136T256 0"/></symbol><symbol id="hd-icon-zmdi-timer" viewBox="0 0 384 456"><path fill="currentColor" d="M256 5v43H128V5zm-85 278V155h42v128zm171-141q42 52 42 119q0 80-56 136t-136 56t-136-56T0 261.5t56-136T192 69q67 0 120 43l30-31q16 13 30 30zM192 411q62 0 105.5-44T341 261t-43.5-105.5T192 112T86.5 155.5T43 261t43.5 106T192 411"/></symbol><symbol id="hd-icon-zmdi-timer-off" viewBox="0 0 416 480"><path fill="currentColor" d="m369 81l30 30l-30 31q42 52 42 119q0 58-32 106l-31-31q20-35 20-75q0-62-43.5-105.5T219 112q-40 0-75 20l-31-31q48-32 106-32q67 0 120 42zM283 5v43H155V5zm-86 180v-30h43v73zM27 69l214 214l164 165l-27 27l-53-54q-48 32-106 32q-80 0-136-56T27 261q0-58 32-106L0 96zm192 342q40 0 75-21L90 186q-21 35-21 75q0 62 44 106t106 44"/></symbol><symbol id="hd-icon-zmdi-toll" viewBox="0 0 472 384"><path fill="currentColor" d="M298.5 21Q369 21 419 71t50 121t-50 121t-120.5 50T178 313t-50-121t50-121t120.5-50m.5 299q53 0 90.5-37.5T427 192t-37.5-90.5T299 64t-90.5 37.5T171 192t37.5 90.5T299 320M43 192q0 41 23.5 74t61.5 47v44q-56-14-92-60T0 192T36 87t92-60v44q-38 14-61.5 47T43 192"/></symbol><symbol id="hd-icon-zmdi-tonality" viewBox="0 0 432 432"><path fill="currentColor" d="M213.5 3q88.5 0 151 62.5T427 216t-62.5 150.5t-151 62.5t-151-62.5T0 216T62.5 65.5T213.5 3M192 385V47q-64 8-106.5 56T43 216t43 113t106 56m43-338v20h61q-29-16-61-20m0 62v22h126q-7-12-15-22zm0 64v22h148q-2-9-5-22zm0 212q32-4 61-20h-61zm111-62q8-10 15-22H235v22zm32-64q3-13 5-22H235v22z"/></symbol><symbol id="hd-icon-zmdi-toys" viewBox="0 0 472 480"><path fill="currentColor" d="M235 240q0-48 34.5-82.5T352 123t82.5 34.5T469 240zm0 0q0 48-35 82.5T117 357t-82.5-34.5T0 240zm0 0q-48 0-83-34.5T117 123t35-83t83-35zm0 0q48 0 82.5 34.5T352 357t-34.5 83t-82.5 35z"/></symbol><symbol id="hd-icon-zmdi-traffic" viewBox="0 0 344 384"><path fill="currentColor" d="M341 149q0 30-18 52.5T277 232v24h64q0 29-18 52t-46 30v25q0 8-6 14.5t-15 6.5H85q-8 0-14.5-6.5T64 363v-25q-28-7-46-30T0 256h64v-24q-28-8-46-30.5T0 149h64v-24q-28-7-46-30T0 43h64V21q0-8 6.5-14.5T85 0h171q9 0 15 6.5t6 14.5v22h64q0 29-18 52t-46 30v24zM170.5 341q17.5 0 30-12.5t12.5-30t-12.5-30t-30-12.5t-30 12.5t-12.5 30t12.5 30t30 12.5m0-106q17.5 0 30-12.5T213 192t-12.5-30.5t-30-12.5t-30 12.5T128 192t12.5 30.5t30 12.5m0-107q17.5 0 30-12.5t12.5-30t-12.5-30t-30-12.5t-30 12.5t-12.5 30t12.5 30t30 12.5"/></symbol><symbol id="hd-icon-zmdi-transform" viewBox="0 0 432 480"><path fill="currentColor" d="M427 368h-86v43h43l-64 64l-64-64h43v-43H128q-18 0-30.5-12.5T85 325V155H0v-43h85V69H43l64-64l64 64h-43v256h299zM171 155v-43h128q17 0 29.5 12.5T341 155v128h-42V155z"/></symbol><symbol id="hd-icon-zmdi-translate" viewBox="0 0 472 432"><path fill="currentColor" d="m253 281l-16 44l-66-66L64 365l-30-30l108-107q-40-44-63-97h42q20 39 50 71q45-50 67-114H0V45h149V3h43v42h149v43h-62q-24 78-79 139l-1 1zm120-108l96 256h-42l-24-64H301l-24 64h-42l96-256zm-56 150h70l-35-93z"/></symbol><symbol id="hd-icon-zmdi-trending-down" viewBox="0 0 432 384"><path fill="currentColor" d="m299 320l49-49l-105-104l-85 85L0 94l30-30l128 128l85-85l135 134l49-49v128z"/></symbol><symbol id="hd-icon-zmdi-trending-flat" viewBox="0 0 408 384"><path fill="currentColor" d="m405 192l-85 85v-64H0v-42h320v-64z"/></symbol><symbol id="hd-icon-zmdi-trending-up" viewBox="0 0 432 384"><path fill="currentColor" d="M299 64h128v128l-49-49l-135 134l-85-85L30 320L0 290l158-158l85 85l105-104z"/></symbol><symbol id="hd-icon-zmdi-triangle-down" viewBox="0 0 432 392"><path fill="currentColor" d="M213 306L350 87H77zm0 80L0 45h427z"/></symbol><symbol id="hd-icon-zmdi-triangle-up" viewBox="0 0 432 384"><path fill="currentColor" d="M213 102L77 320h273zm0-81l214 342H0z"/></symbol><symbol id="hd-icon-zmdi-truck" viewBox="0 0 472 384"><path fill="currentColor" d="m405 107l64 85v107h-42q0 26-19 45t-45.5 19t-45-19t-18.5-45H171q0 26-19 45t-45.5 19t-45-19T43 299H0V64q0-18 12.5-30.5T43 21h298v86zM106.5 331q13.5 0 23-9.5t9.5-23t-9.5-22.5t-23-9t-22.5 9t-9 22.5t9 23t22.5 9.5M395 139h-54v53h95zm-32.5 192q13.5 0 23-9.5t9.5-23t-9.5-22.5t-23-9t-22.5 9t-9 22.5t9 23t22.5 9.5"/></symbol><symbol id="hd-icon-zmdi-tumblr" viewBox="0 0 272 432"><path fill="currentColor" d="M0 177v-60q25-8 43-23.5T72 57T87 3h61v108h102v66H148v110q0 37 4 47.5t15 16.5q14 9 33 9q32 0 65-21v67q-28 13-50.5 18t-48.5 5q-29 0-51.5-7T76 401t-22.5-29.5T47 327V178H0z"/></symbol><symbol id="hd-icon-zmdi-tune" viewBox="0 0 384 384"><path fill="currentColor" d="M0 299h128v42H0zM0 43h213v42H0zm213 341h-42V256h42v43h171v42H213zM85 128h43v128H85v-43H0v-42h85zm299 85H171v-42h213zm-128-85V0h43v43h85v42h-85v43z"/></symbol><symbol id="hd-icon-zmdi-turning-sign" viewBox="0 0 432 432"><path fill="currentColor" d="M420 201q7 6 7 15t-7 15L228 423q-6 6-15 6t-15-6L6 231q-6-6-6-15t6-15L198 9q6-6 15-6t15 6zm-164 68l75-74l-75-75v53H149q-9 0-15 6.5t-6 15.5v85h43v-64h85z"/></symbol><symbol id="hd-icon-zmdi-tv" viewBox="0 0 472 384"><path fill="currentColor" d="M427 0q17 0 29.5 12.5T469 43v256q0 17-12.5 29.5T427 341H320v43H149v-43H43q-18 0-30.5-12.5T0 299V43q0-18 12.5-30.5T43 0zm0 299V43H43v256z"/></symbol><symbol id="hd-icon-zmdi-tv-alt-play" viewBox="0 0 472 432"><path fill="currentColor" d="M427 88q17 0 29.5 12.5T469 131v256q0 17-12.5 29.5T427 429H43q-18 0-30.5-12.5T0 387V131q0-18 12.5-30.5T43 88h162l-71-70l15-15l86 85l85-85l15 15l-70 70zm0 299V131H43v256zM171 173l149 86l-149 85z"/></symbol><symbol id="hd-icon-zmdi-tv-list" viewBox="0 0 472 384"><path fill="currentColor" d="M427 0q17 0 29.5 12.5T469 43v256q0 17-12.5 29.5T427 341H320v43H149v-43H43q-18 0-30.5-12.5T0 299V43q0-18 12.5-30.5T43 0zm0 299V43H43v256zm-43-192v42H149v-42zm0 85v43H149v-43zm-256-85v42H85v-42zm0 85v43H85v-43z"/></symbol><symbol id="hd-icon-zmdi-tv-play" viewBox="0 0 472 384"><path fill="currentColor" d="M427 0q17 0 29.5 12.5T469 43v256q0 17-12.5 29.5T427 341H320v43H149v-43H43q-18 0-30.5-12.5T0 299V43q0-18 12.5-30.5T43 0zm0 299V43H43v256zM320 171l-149 85V85z"/></symbol><symbol id="hd-icon-zmdi-twitch" viewBox="0 0 408 432"><path fill="currentColor" d="M296 374h-83l-56 55h-55v-55H0V77L28 3h379v259zm74-130V40H65v269h83v55l56-55h102zM269 114h37v111h-37zM167 225V114h37v111z"/></symbol><symbol id="hd-icon-zmdi-twitter" viewBox="0 0 432 384"><path fill="currentColor" d="M383 105v11q0 45-16.5 88.5t-47 79.5t-79 58.5T134 365q-73 0-134-39q10 1 21 1q61 0 109-37q-29-1-51.5-18T48 229q8 2 16 2q12 0 23-4q-30-6-50-30t-20-55v-1q19 10 40 11q-39-27-39-73q0-24 12-44q33 40 79.5 64T210 126q-2-10-2-20q0-36 25.5-61.5T295 19q38 0 64 27q30-6 56-21q-10 31-39 48q27-3 51-13q-18 26-44 45"/></symbol><symbol id="hd-icon-zmdi-twitter-box" viewBox="0 0 432 432"><path fill="currentColor" d="M335 159q22-18 28-30q-13 6-31 9q18-13 24-32q-20 11-37 14q-12-14-31-16.5t-35.5 5t-26.5 25t-5 38.5q-67-4-118-59q-11 20-4.5 43.5T120 189q-11-1-24-7q1 43 44 57q-12 3-24 1q12 36 53 40q-15 13-39 19.5T85 303q45 28 92 26q70-3 113.5-49.5T335 159M384 3q18 0 30.5 12.5T427 45v342q0 17-12.5 29.5T384 429H43q-18 0-30.5-12.5T0 387V45q0-17 12.5-29.5T43 3z"/></symbol><symbol id="hd-icon-zmdi-undo" viewBox="0 0 440 384"><path fill="currentColor" d="M224 107q73 0 131.5 43T437 261l-51 16q-17-51-61.5-84T224 160q-61 0-109 40l77 77H0V85l77 77q64-55 147-55"/></symbol><symbol id="hd-icon-zmdi-unfold-less" viewBox="0 0 200 384"><path fill="currentColor" d="m0 333l98-98l98 98l-30 30l-68-68l-68 68zM196 51l-98 98L0 51l30-30l68 68l68-68z"/></symbol><symbol id="hd-icon-zmdi-unfold-more" viewBox="0 0 200 384"><path fill="currentColor" d="m98 60l-68 68L0 98L98 0l98 98l-30 30zm0 264l68-68l30 30l-98 98l-98-98l30-30z"/></symbol><symbol id="hd-icon-zmdi-ungroup" viewBox="0 0 432 432"><path fill="currentColor" d="M0 3h85v21h150V3h85v85h-21v64h42v-21h86v85h-22v128h22v85h-86v-21H213v21h-85v-85h21v-43H85v22H0v-86h21V88H0zm341 213v-21h-42v42h21v86h-85v-22h-43v43h21v21h128v-21h22V216zM235 88V67H85v21H64v149h21v22h64v-43h-21v-85h85v21h43V88zm-22 128h-21v43h43v-22h21v-42h-43z"/></symbol><symbol id="hd-icon-zmdi-upload" viewBox="0 0 304 384"><path fill="currentColor" d="M0 21h299v43H0zm0 214L149 85l150 150h-86v128H85V235z"/></symbol><symbol id="hd-icon-zmdi-usb" viewBox="0 0 304 464"><path fill="currentColor" d="M218 133h85v86h-21v42q0 18-12.5 30.5T239 304h-64v65q26 13 26 42q0 19-14 33t-33.5 14t-33-14t-13.5-33q0-29 25-42v-65H68q-17 0-29.5-12.5T26 261v-44Q0 204 0 176q0-19 14-33t33-14t33 14t14 33q0 28-26 41v44h64V91H90l64-86l64 86h-43v170h64v-42h-21z"/></symbol><symbol id="hd-icon-zmdi-vibration" viewBox="0 0 512 384"><path fill="currentColor" d="M0 256V128h43v128zm64 43V85h43v214zm405-171h43v128h-43zm-64 171V85h43v214zM352 0q13 0 22.5 9.5T384 32v320q0 13-9.5 22.5T352 384H160q-13 0-22.5-9.5T128 352V32q0-13 9.5-22.5T160 0zm-11 341V43H171v298z"/></symbol><symbol id="hd-icon-zmdi-videocam" viewBox="0 0 384 384"><path fill="currentColor" d="m299 160l85-85v234l-85-85v75q0 8-6.5 14.5T277 320H21q-8 0-14.5-6.5T0 299V85q0-8 6.5-14.5T21 64h256q9 0 15.5 6.5T299 85z"/></symbol><symbol id="hd-icon-zmdi-videocam-off" viewBox="0 0 408 408"><path fill="currentColor" d="M405 99v228L167 88h132q8 0 14.5 6.5T320 109v75zM27 3l378 378l-27 27l-68-68q-6 4-11 4H43q-9 0-15.5-6.5T21 323V109q0-8 6.5-14.5T43 88h15L0 30z"/></symbol><symbol id="hd-icon-zmdi-videocam-switch" viewBox="0 0 432 384"><path fill="currentColor" d="m341 139l86-86v278l-86-86v75q0 9-6 15t-15 6H21q-8 0-14.5-6T0 320V64q0-9 6.5-15T21 43h299q9 0 15 6t6 15zM235 267l74-75l-74-75v54H107v-54l-75 75l75 75v-54h128z"/></symbol><symbol id="hd-icon-zmdi-view-agenda" viewBox="0 0 408 384"><path fill="currentColor" d="M384 213q9 0 15 6.5t6 15.5v128q0 8-6 14.5t-15 6.5H21q-8 0-14.5-6.5T0 363V235q0-9 6.5-15.5T21 213zm0-213q9 0 15 6.5t6 14.5v128q0 9-6 15.5t-15 6.5H21q-8 0-14.5-6.5T0 149V21q0-8 6.5-14.5T21 0z"/></symbol><symbol id="hd-icon-zmdi-view-array" viewBox="0 0 368 384"><path fill="currentColor" d="M0 320V43h64v277zM299 43h64v277h-64zM85 320V43h192v277z"/></symbol><symbol id="hd-icon-zmdi-view-carousel" viewBox="0 0 432 384"><path fill="currentColor" d="M107 341V21h213v320zM0 299V64h85v235zM341 64h86v235h-86z"/></symbol><symbol id="hd-icon-zmdi-view-column" viewBox="0 0 368 384"><path fill="currentColor" d="M128 320V43h107v277zM0 320V43h107v277zM256 43h107v277H256z"/></symbol><symbol id="hd-icon-zmdi-view-comfy" viewBox="0 0 408 384"><path fill="currentColor" d="M0 128V43h85v85zm0 107v-86h85v86zm107 0v-86h85v86zm106 0v-86h86v86zM107 128V43h85v85zm106-85h86v85h-86zm107 192v-86h85v86zM0 341v-85h85v85zm107 0v-85h85v85zm106 0v-85h86v85zm107 0v-85h85v85zm0-298h85v85h-85z"/></symbol><symbol id="hd-icon-zmdi-view-compact" viewBox="0 0 408 384"><path fill="currentColor" d="M0 341V192h128v149zm149 0V192h256v149zM0 43h405v128H0z"/></symbol><symbol id="hd-icon-zmdi-view-dashboard" viewBox="0 0 384 384"><path fill="currentColor" d="M0 213V0h171v213zm0 171V256h171v128zm213 0V171h171v213zm0-384h171v128H213z"/></symbol><symbol id="hd-icon-zmdi-view-day" viewBox="0 0 408 384"><path fill="currentColor" d="M0 384v-64h405v64zm384-277q9 0 15 6t6 15v128q0 9-6 15t-15 6H21q-8 0-14.5-6T0 256V128q0-9 6.5-15t14.5-6zM0 0h405v64H0z"/></symbol><symbol id="hd-icon-zmdi-view-headline" viewBox="0 0 344 384"><path fill="currentColor" d="M0 256v-43h341v43zm0 85v-42h341v42zm0-170v-43h341v43zM0 43h341v42H0z"/></symbol><symbol id="hd-icon-zmdi-view-list" viewBox="0 0 368 384"><path fill="currentColor" d="M0 235v-86h85v86zm0 106v-85h85v85zm0-213V43h85v85zm107 107v-86h256v86zm0 106v-85h256v85zm0-298h256v85H107z"/></symbol><symbol id="hd-icon-zmdi-view-list-alt" viewBox="0 0 384 384"><path fill="currentColor" d="M0 213v-42h43v42zm0 86v-43h43v43zm0-171V85h43v43zm85 85v-42h299v42zm0 86v-43h299v43zm0-214h299v43H85z"/></symbol><symbol id="hd-icon-zmdi-view-module" viewBox="0 0 368 384"><path fill="currentColor" d="M0 171V43h107v128zm0 149V192h107v128zm128 0V192h107v128zm128 0V192h107v128zM128 171V43h107v128zM256 43h107v128H256z"/></symbol><symbol id="hd-icon-zmdi-view-quilt" viewBox="0 0 368 384"><path fill="currentColor" d="M128 320V192h107v128zM0 320V43h107v277zm256 0V192h107v128zM128 43h235v128H128z"/></symbol><symbol id="hd-icon-zmdi-view-stream" viewBox="0 0 368 384"><path fill="currentColor" d="M0 320V192h363v128zM0 43h363v128H0z"/></symbol><symbol id="hd-icon-zmdi-view-subtitles" viewBox="0 0 432 384"><path fill="currentColor" d="M384 21q18 0 30.5 12.5T427 64v256q0 18-12.5 30.5T384 363H43q-18 0-30.5-12.5T0 320V64q0-18 12.5-30.5T43 21zM43 192v43h85v-43zm213 128v-43H43v43zm128 0v-43h-85v43zm0-85v-43H171v43z"/></symbol><symbol id="hd-icon-zmdi-view-toc" viewBox="0 0 384 384"><path fill="currentColor" d="M0 128V85h299v43zm0 85v-42h299v42zm0 86v-43h299v43zm341 0v-43h43v43zm0-214h43v43h-43zm0 128v-42h43v42z"/></symbol><symbol id="hd-icon-zmdi-view-web" viewBox="0 0 432 384"><path fill="currentColor" d="M384 21q18 0 30.5 12.5T427 64v256q0 18-12.5 30.5T384 363H43q-18 0-30.5-12.5T0 320V64q0-18 12.5-30.5T43 21zM277 320v-85H43v85zm0-107v-85H43v85zm107 107V128h-85v192z"/></symbol><symbol id="hd-icon-zmdi-view-week" viewBox="0 0 408 384"><path fill="currentColor" d="M85 43q9 0 15.5 6t6.5 15v256q0 9-6.5 15T85 341H21q-8 0-14.5-6T0 320V64q0-9 6.5-15T21 43zm299 0q9 0 15 6t6 15v256q0 9-6 15t-15 6h-64q-9 0-15-6t-6-15V64q0-9 6-15t15-6zm-149 0q8 0 14.5 6t6.5 15v256q0 9-6.5 15t-14.5 6h-64q-9 0-15.5-6t-6.5-15V64q0-9 6.5-15t15.5-6z"/></symbol><symbol id="hd-icon-zmdi-vignette" viewBox="0 0 472 384"><path fill="currentColor" d="M427 0q17 0 29.5 12.5T469 43v298q0 18-12.5 30.5T427 384H43q-18 0-30.5-12.5T0 341V43q0-18 12.5-30.5T43 0zM234.5 320q70.5 0 120.5-37.5t50-90.5t-50-90.5T234.5 64T114 101.5T64 192t50 90.5T234.5 320"/></symbol><symbol id="hd-icon-zmdi-vimeo" viewBox="0 0 432 384"><path fill="currentColor" d="M276 100q-15 0-32 7Q276 4 364 6q66 2 62 86q-2 63-87 172q-87 114-147 114q-37 0-63-70q-18-66-34-127q-19-69-41-69q-5 0-34 20L0 106q33-29 62-56q42-36 63-38q50-5 62 68q12 80 17 99q14 65 32 65q13 0 40-42.5t29-64.5q3-37-29-37"/></symbol><symbol id="hd-icon-zmdi-vk" viewBox="0 0 552 384"><path fill="currentColor" d="M548 85q7 18-43 84q-7 9-18 24q-23 28-26 37q-5 12 4 23q5 6 23 24h1v1q41 37 55 63l2 4l2 7.5v9.5l-7 7.5l-17 3.5l-73 2q-7 1-16.5-2t-14.5-6l-6-4q-9-6-20-18t-19.5-22t-17.5-16.5t-16-4.5q-1 0-2.5 1t-5 4.5t-6 8.5t-4.5 14.5t-2 22.5q0 4-1 7.5t-2 5.5l-1 1q-6 6-16 6h-32q-21 2-42.5-4T189 353.5t-29-19t-20-16.5l-7-7q-3-2-8-8t-20.5-26T74 234t-35-60.5T2 96q-2-5-2-8t1-5l1-1q4-6 16-6h79q3 0 6 1.5l5 2.5l1 1q5 3 7 9q6 14 13.5 29.5T141 143l4 8q9 17 16.5 29.5T175 200t12 11t10 4t8-1l1-1.5l3.5-6.5l4-13l2.5-23v-36q-1-11-3-20.5t-4-13.5l-1-3q-7-10-25-13q-3 0 2-7q5-5 11-8q15-8 68-7q23 0 39 4q5 1 9 3.5t6 7t3 9t1 13V114q-1 8-1 20v24q0 3-.5 12t-.5 14t1 11.5t3.5 11t6.5 6.5q2 1 4.5 1.5t7.5-3t11-10t15-19.5t19-30q17-30 31-65q1-2 2.5-4.5T425 79h1l1-1l4-1h6l82-1q11-1 18.5 1t8.5 5z"/></symbol><symbol id="hd-icon-zmdi-voicemail" viewBox="0 0 512 384"><path fill="currentColor" d="M394.5 64q48.5 0 83 34.5t34.5 83t-34.5 83T395 299H117q-48 0-82.5-34.5T0 181.5t34.5-83t83-34.5t83 34.5T235 181q0 43-27 75h96q-27-32-27-75q0-48 34.5-82.5t83-34.5M117 256q31 0 53-22t22-53t-22-52.5t-53-21.5t-52.5 21.5T43 181t21.5 53t52.5 22m278 0q31 0 52.5-22t21.5-53t-21.5-52.5T395 107t-53 21.5t-22 52.5t22 53t53 22"/></symbol><symbol id="hd-icon-zmdi-volume-down" viewBox="0 0 288 384"><path fill="currentColor" d="M288 192q0 28-14.5 51T235 278V106q24 12 38.5 35t14.5 51M0 128h85L192 21v342L85 256H0z"/></symbol><symbol id="hd-icon-zmdi-volume-mute" viewBox="0 0 192 384"><path fill="currentColor" d="M0 128h85L192 21v342L85 256H0z"/></symbol><symbol id="hd-icon-zmdi-volume-off" viewBox="0 0 384 384"><path fill="currentColor" d="M288 192q0 6-1 13l-52-52v-47q24 12 38.5 35t14.5 51m53 0q0-50-30-89.5T235 49V5q64 15 106.5 67T384 192q0 47-22 89l-32-33q11-27 11-56M27 0l165 165l192 192l-27 27l-44-44q-35 29-78 39v-44q25-8 48-25l-91-91v144L85 256H0V128h101L0 27zm165 21v90l-45-45z"/></symbol><symbol id="hd-icon-zmdi-volume-up" viewBox="0 0 384 384"><path fill="currentColor" d="M0 128h85L192 21v342L85 256H0zm288 64q0 28-14.5 51T235 278V106q24 12 38.5 35t14.5 51M235 5q64 15 106.5 67T384 192t-42.5 120T235 379v-44q46-14 76-53.5t30-89.5t-30-89.5T235 49z"/></symbol><symbol id="hd-icon-zmdi-walk" viewBox="0 0 280 464"><path fill="currentColor" d="M160 85q-18 0-30.5-12.5t-12.5-30t12.5-30T160 0t30.5 12.5t12.5 30t-12.5 30T160 85m-79 73L21 459h45l39-171l44 43v128h43V299l-45-43l13-64q46 53 117 53v-42q-29 0-53.5-14.5T186 151l-22-34q-14-21-36-21q-3 0-8.5 1t-8.5 1L0 145v100h43v-72z"/></symbol><symbol id="hd-icon-zmdi-wallpaper" viewBox="0 0 432 432"><path fill="currentColor" d="M43 45v150H0V45q0-17 12.5-29.5T43 3h149v42zm128 192l63 79l43-57l64 85H85zm149-95.5q0 13.5-9.5 22.5t-22.5 9t-22.5-9t-9.5-22.5t9.5-23T288 109t22.5 9.5t9.5 23M384 3q18 0 30.5 12.5T427 45v150h-43V45H235V3zm0 384V237h43v150q0 17-12.5 29.5T384 429H235v-42zM43 237v150h149v42H43q-18 0-30.5-12.5T0 387V237z"/></symbol><symbol id="hd-icon-zmdi-washing-machine" viewBox="0 0 344 432"><path fill="currentColor" d="m110 319l121-121q25 25 25 60.5T231 319t-60.5 25t-60.5-25M299 3q17 0 29.5 12.5T341 45v342q0 17-12.5 29.5T299 429H43q-18 0-30.5-12.5T0 387V45q0-17 12.5-29.5T43 3zM128 45q-9 0-15 6.5t-6 15t6 15t15 6.5t15-6.5t6-15t-6-15t-15-6.5m-64 0q-9 0-15 6.5t-6 15t6 15T64 88t15-6.5t6-15t-6-15T64 45m107 342q53 0 90.5-37.5T299 259t-37.5-90.5T171 131t-90.5 37.5T43 259t37.5 90.5T171 387"/></symbol><symbol id="hd-icon-zmdi-watch" viewBox="0 0 344 512"><path fill="currentColor" d="M341 256q0 40-17 75t-48 59l-20 122H85L65 390Q0 339 0 256t65-134L85 0h171l20 122q31 24 48 59t17 75m-298 0q0 53 37.5 90.5T171 384t90.5-37.5T299 256t-37.5-90.5T171 128t-90.5 37.5T43 256"/></symbol><symbol id="hd-icon-zmdi-wb-auto" viewBox="0 0 512 384"><path fill="currentColor" d="m146 206l25-78l24 78zM469 85h39l-44 192h-37l-32-130l-32 130h-38l-2-9q-21 43-62 69t-90 26q-71 0-121-50T0 192T50 71t121-50q81 0 133 64h16l26 135l32-135h34l32 135zM220 277h40L192 85h-43L81 277h41l15-42h68z"/></symbol><symbol id="hd-icon-zmdi-whatsapp" viewBox="0 0 432 432"><path fill="currentColor" d="M364.5 65Q427 127 427 214.5T364.5 364T214 426q-54 0-101-26L0 429l30-109Q2 271 2 214q0-87 62-149T214 3t150.5 62M214 390q73 0 125-51.5T391 214T339 89.5T214 38T89.5 89.5T38 214q0 51 27 94l4 6l-18 65l67-17l6 3q42 25 90 25m97-132q9 5 10 7q4 6-3 25q-3 8-15 15.5t-21 9.5q-18 2-33-2q-17-6-30-11q-8-4-15.5-8.5t-14.5-9t-13-9.5t-11.5-10t-10.5-10.5t-8.5-9.5t-7-8.5t-5.5-7t-3.5-5L128 222q-22-29-22-55q0-24 19-44q6-7 14-7q6 0 10 1q8 0 12 9q2 3 6 13l7 17.5l3 8.5q3 5 1 9q-3 7-5 9l-3 3l-3 3.5l-2 2.5q-6 6-3 11q13 22 30 37q13 11 43 26q7 3 11-1q12-15 17-21q4-6 12-3q6 3 36 17"/></symbol><symbol id="hd-icon-zmdi-widgets" viewBox="0 0 416 416"><path fill="currentColor" d="M213 245h171v171H213zM0 416V245h171v171zM0 32h171v171H0zM291 4l121 121l-121 120l-120-120z"/></symbol><symbol id="hd-icon-zmdi-wifi" viewBox="0 0 504 400"><path fill="currentColor" d="m249 394l-1 1v-1L0 85Q113 0 248.5 0T497 85zM68 170q82-63 180.5-63T429 170L249 394l-1 1v-1z"/></symbol><symbol id="hd-icon-zmdi-wifi-alt" viewBox="0 0 472 384"><path fill="currentColor" d="M0 128q64-64 149.5-86.5t171 0T469 128l-42 43q-80-80-192.5-80T43 171zm171 171q26-27 63.5-27t64.5 27l-64 64zm-86-86q62-61 149.5-61T384 213l-43 43q-44-44-106.5-44T128 256z"/></symbol><symbol id="hd-icon-zmdi-wifi-alt-2" viewBox="0 0 504 400"><path fill="currentColor" d="M249 42Q142 41 59 97l43 53q49-29 107-38q108-15 187 38l42-53q-83-56-189-55m-.5-39Q387 3 497 88L249 397L0 88Q110 3 248.5 3"/></symbol><symbol id="hd-icon-zmdi-wifi-info" viewBox="0 0 512 408"><path fill="currentColor" d="M256 0q136 0 256 91L256 405L0 90Q119 0 256 0m21 277V149h-42v128zm-42-170h42V64h-42z"/></symbol><symbol id="hd-icon-zmdi-wifi-lock" viewBox="0 0 504 408"><path fill="currentColor" d="M482 277q8 0 14.5 7t6.5 15v85q0 8-6.5 14.5T482 405H375q-8 0-14.5-6.5T354 384v-85q0-8 6.5-15t14.5-7v-32q0-22 15.5-37.5t38-15.5t38 15.5T482 245zm-21 0v-32q0-12-9.5-22T429 213t-22.5 10t-9.5 22v32zm-139-32v56l-75 94L0 85Q114 0 247.5 0T495 85l-45 56q-6-2-21-2q-45 0-76 31t-31 75"/></symbol><symbol id="hd-icon-zmdi-wifi-off" viewBox="0 0 504 440"><path fill="currentColor" d="M497 125L380 270L160 50q44-10 88-10q136 0 249 85M356 301l74 74l-27 27l-71-71l-83 103l-1 1v-1L0 125q35-27 79-47L35 34L62 7z"/></symbol><symbol id="hd-icon-zmdi-wifi-outline" viewBox="0 0 504 400"><path fill="currentColor" d="M249 42Q144 42 59 97l190 237L438 97q-84-55-189-55m-.5-39q49.5 0 96 11T425 43.5t47 27T497 88L249 397L0 88q12-9 25-17.5t47.5-27T153 14t95.5-11"/></symbol><symbol id="hd-icon-zmdi-wikipedia" viewBox="0 0 432 384"><path fill="currentColor" d="M40 104Q23 75 2 67l-2-1V51h110v15q-13 1-21.5 7T83 90q14 33 40.5 94t38.5 89l46-87q-7-14-23-51.5T158 76q-7-10-36-11V51h102l1 14q-6 1-10 2t-7 4.5t-2 8.5l29 64q28-60 28-61q3-11-5-14.5T237 65l-1-14h92v14q-24 2-33 15q-14 20-46 89q23 53 43 95l78-180q-6-13-29-19l-1-14l87 1v14q-6 1-11 3q-11 5-18 17L291 333h-18l-52-120l-62 120h-18q-16-33-48-111T40 104"/></symbol><symbol id="hd-icon-zmdi-window-maximize" viewBox="0 0 344 384"><path fill="currentColor" d="M0 21h341v342H0zm43 86v213h256V107z"/></symbol><symbol id="hd-icon-zmdi-window-minimize" viewBox="0 0 344 384"><path fill="currentColor" d="M341 363H0v-86h341z"/></symbol><symbol id="hd-icon-zmdi-window-restore" viewBox="0 0 344 384"><path fill="currentColor" d="M0 107h85V21h256v256h-85v86H0zm256 0v128h43V64H128v43zM43 192v128h170V192z"/></symbol><symbol id="hd-icon-zmdi-windows" viewBox="0 0 368 408"><path fill="currentColor" d="M0 192V80l128-28v138zM363 0v187l-214 3V47zM0 213l128 2v146L0 336zm363 6v186l-214-40V215z"/></symbol><symbol id="hd-icon-zmdi-wrap-text" viewBox="0 0 368 384"><path fill="currentColor" d="M0 341v-42h128v42zM341 43v42H0V43zm-64 128q36 0 61 25t25 60t-25 60t-61 25h-42v43l-64-64l64-64v43h48q17 0 29.5-12.5T325 256t-12.5-30.5T283 213H0v-42z"/></symbol><symbol id="hd-icon-zmdi-wrench" viewBox="0 0 472 480"><path fill="currentColor" d="M464 389q6 5 6 14.5t-8 15.5l-49 49q-7 7-15.5 7t-14.5-7L189 274q-37 15-77.5 6.5T41 242q-31-32-39-75.5T14 84l94 92l64-64l-92-92q38-18 82-10.5T238 48q30 30 38.5 70.5T270 195z"/></symbol><symbol id="hd-icon-zmdi-xbox" viewBox="0 0 432 432"><path fill="currentColor" d="M213 85q-24-18-47-27.5T127.5 47t-28 0T81 51l-6 3Q134 3 213 3t139 51q-3-1-7-3t-17.5-4t-28.5 0t-38.5 11T213 85m-56 41q-39 40-65 78t-34.5 63.5t-12 44.5t-1.5 28l3 9Q0 291 0 216q0-84 57-145q38 16 100 55m270 90q0 75-47 133q1-3 2.5-9t-1.5-27.5t-12-45.5t-34.5-62.5T269 126q28-17 53-31t36-19l11-5q58 61 58 145m-215-44q38 27 67.5 57t45 53t26 42t13.5 29l3 10q-62 66-153.5 66T59 363q2-4 5-11.5t15-30t28-44.5t44-51t61-54"/></symbol><symbol id="hd-icon-zmdi-yahoo" viewBox="0 0 432 384"><path fill="currentColor" d="M414 113q-5 0-49 10q-10 3-62.5 45.5T246 224q-2 10-2 27l-1 15q0 9 4 39q4 1 32 1t32 1l-1 20q-6-1-105-1q-6 0-44 1t-49 1l4-19h15.5l27-2l15.5-6q1-1 1.5-2t1-2.5t.5-3V252q0-17-1-27q-3-10-51.5-69.5T59 83q-3-1-28.5-4T1 75L0 57q2-1 17.5-1t35.5.5t44-.5q23 0 61 .5t45 .5l-3 16q-4 1-30.5 2.5T138 79q16 24 50 68.5t39 51.5q2-3 41.5-36t40.5-43q-38-7-54-7l-3-20h89q72 0 86 2z"/></symbol><symbol id="hd-icon-zmdi-youtube" viewBox="0 0 352 432"><path fill="currentColor" d="M170 184q18 0 57.5 1t59.5 2q15 0 26 3q28 6 34 40q5 35 5 59q0 39-3 87q-1 12-7 25q-11 24-43 25q-103 3-152 3q-17 0-47.5-1T59 427t-22-4q-20-5-29-26q-6-17-8-52q-1-41 2-94q1-15 5-31q9-31 42-33q31 0 121-3m32 191q4 3 13 9q9 5 17.5 1t10.5-15q2-9 2-14v-60q0-8-3-15q-3-13-12-16.5t-20 4.5q-2 1-4.5 3.5L202 276v-50h-21v158h21q-1-4 0-9m-40 9V266h-22v83q0 8-6 12q-4 5-9 3q-3-1-3-7v-91h-22v99q0 3 1 9q4 16 20 11q4-1 13-7q2-1 6-6v12zm161-55q0-4 .5-11t.5-12.5t-1-10.5q-1-14-9-22t-21-9q-14-1-23.5 6.5T259 292q-3 33 0 67q2 15 14 22.5t28 3.5q13-3 19.5-15.5T323 343h-22q0 10-1 14q-1 9-9 9t-9-8q-1-9-2-30q16 1 43 1m-220-80v-23H29v23h24v135h25V249zM247 44v93q0 6 4 7q3 1 7-2q7-5 7-14V44h22v119h-22v-12l-5 5q-8 6-11 7q-8 4-14.5.5T226 152q-1-4-1-7V45q7-1 22-1M66 3h22q2 0 4 4q10 34 14 51q0 1 2 3q4-18 9-32q1-3 3-10.5T123 7q1-3 4-4h22q0 1-1 4q-1 1-1 2q-4 14-13 42t-13 42q-2 6-2 10v59H96q0-3-.5-8.5T95 144t1-8q2-36-13-78q-9-27-17-55m142 101v11l-.5 13l-1.5 11q-1 11-10 18.5t-21 7.5t-20-7.5t-11-18.5q-1-7-1-21q0-38 1-49q4-27 31-27q26 0 31 27q0 1 .5 2.5t.5 2.5q0 5 .5 15t.5 15m-41-1v28q0 6 1 8q4 5 8 5t8-5q1-2 1-8V70q-1-7-9-7q-7 0-9 7q-1 2-1 6t.5 13t.5 14m39 222v-31q0-9 11-9q8 0 8 7v67q-1 7-8 7q-11-1-11-9q-1-16 0-32m93-14h-20q0-4 .5-10.5t.5-10.5q1-6 9-6q7 0 8 6q2 10 2 21"/></symbol><symbol id="hd-icon-zmdi-youtube-play" viewBox="0 0 432 384"><path fill="currentColor" d="M422 107q5 35 5 69v32l-5 69q-4 29-17 42q-14 14-42 18q-27 2-64.5 3t-61.5 1h-24q-111-1-145-4l-8-1l-13-2l-12.5-5l-13-10l-10-16.5L6 284l-2-7q-4-35-4-69v-32l4-69q4-29 17-42q14-15 43-18q27-2 64-3t61-1h24q90 0 150 4q28 3 42 18q4 4 7 9.5t5 11t3 10.5t2 8zm-151 88l14-7l-115-60v120z"/></symbol><symbol id="hd-icon-zmdi-zero" viewBox="0 0 184 384"><path fill="currentColor" d="M177 203q0 32-6.5 54t-18 36t-28 20.5T89 320q-20 0-37-6q-16-7-27-21q-12-14-19-36q-6-22-6-54v-44q0-32 6.5-54t18-36t28-20t36-6t36 6t28 20t18 36t6.5 54zm-45-51q0-19-3-34q-3-14-8-23q-6-8-14-12t-18-4q-11 0-19 4T57 95q-6 9-9 22.5T45 152v57q0 20 3 35q3 13 9 23q5 9 13 13t19 4t19-4t13-13t8-23t3-35z"/></symbol><symbol id="hd-icon-zmdi-zoom-in" viewBox="0 0 376 384"><path fill="currentColor" d="m267 235l106 106l-32 32l-106-106v-17l-6-6q-39 33-90 33q-58 0-98.5-40.5T0 138.5t40.5-98t98-40.5t98 40.5T277 139q0 51-33 90l6 6zm-128 0q40 0 68-28t28-68t-28-68t-68-28t-68 28t-28 68t28 68t68 28m53-86h-43v43h-21v-43H85v-21h43V85h21v43h43z"/></symbol><symbol id="hd-icon-zmdi-zoom-out" viewBox="0 0 376 384"><path fill="currentColor" d="m267 235l106 106l-32 32l-106-106v-17l-6-6q-39 33-90 33q-58 0-98.5-40.5T0 138.5t40.5-98t98-40.5t98 40.5T277 139q0 51-33 90l6 6zm-128 0q40 0 68-28t28-68t-28-68t-68-28t-68 28t-28 68t28 68t68 28M85 128h107v21H85z"/></symbol></svg>