<svg xmlns="http://www.w3.org/2000/svg" xmlns:xlink="http://www.w3.org/1999/xlink"><symbol id="hd-icon-zmdi-3d-rotation" viewBox="0 0 512 512"><path fill="currentColor" d="m159 458l29-28l81 81l-14 1q-100 0-173.5-68T0 277h32q6 60 40 108t87 73m19-139q14 0 21-7t7-20q0-7-2-12t-6-8q-4-4-9.5-5.5T175 265h-16v-22h16q8 0 13-2t8-5q4-3 6-8t2-10q0-12-7-19q-6-6-19-6q-5 0-10 2q-4 1-8 4q-3 3-5 8q-2 4-2 9h-28q0-10 4-18t11-14t17-10q9-3 21-3q11 0 22 3q10 3 16 9q7 6 11 15t4 20q0 5-2 10q-1 5-4 10q-4 5-8 9q-5 4-11 7q7 3 13 7q5 4 8 9q3 4 5 11q2 5 2 12q0 11-5 20q-4 9-11.5 15.5T200 338t-22 3q-11 0-21-3q-9-3-17-9t-12-14.5t-4-20.5h27q0 6 2 10.5t6 7.5q3 3 8 5t11 2m182.5-126.5Q371 203 377 218q5 16 5 34v8q0 19-5 34q-6 15-16 25q-10 11-25 17q-14 5-32 5h-49V171h50q18 0 31.5 5.5t24 16M352 260v-8q0-28-12-43q-12-14-35-14h-20v123h19q12 0 21-4t15-11q6-8 9-19t3-24M255 0q100 0 173.5 68T510 234h-32q-6-59-40.5-107T351 54l-29 28l-81-81z"/></symbol><symbol id="hd-icon-zmdi-500px" viewBox="0 0 432 384"><path fill="currentColor" d="M281 247q-12 13-12 14q-14 13-21 17q-26 19-59 12q-30-6-45-36q-1-2-2-3q-8 12-8 13q-21 28-57 29q-23 1-40-6q-36-16-37-56h40l1 4q5 20 21 24q21 5 35-9q9-10 10.5-25t-6.5-26q-8-12-23-14.5T52 191q-4 3-6 5q-3 5-11 5H6q9-53 20-110h111v33H58q-3 0-4 3q-1 4-7 39v3q21-19 52-14q27 5 42 34q1-1 1-3q2-2 2-3q21-43 69-36q26 3 46 22q1 1 23 24l2-2q22-23 24-25q17-16 38-19q23-3 43 5.5t30 30.5q16 38-2 74q-16 33-55 35q-29 1-51-17q-3-2-25-22q0-1-5-6m-76 5q12 0 24-7q8-4 28-23q1-2 0-4q-2-1-9.5-8T236 199q-9-8-21-12q-14-4-25 2t-15 20q-1 4-1 8q-1 16 8 25.5t23 9.5m99-32q22 20 24 21q13 12 30 11q25 0 30-24q1-7 0-15q-2-13-11.5-21t-22.5-6q-15 1-28 13q-1 1-22 21"/></symbol><symbol id="hd-icon-zmdi-8tracks" viewBox="0 0 432 432"><path fill="currentColor" d="M117 195h193q31 0 53-22t22-53t-22-53.5T309.5 44T256 66.5T234 120v33h-42v-33q0-49 34.5-83.5t83-34.5t83 34.5t34.5 83t-34.5 83T310 237H117q-31 0-53 22t-22 53t22 53t53 22t53-22t22-53v-34h42v34q0 48-34 82.5T117.5 429t-83-34.5t-34.5-83T34.5 229t82.5-34"/></symbol><symbol id="hd-icon-zmdi-account" viewBox="0 0 344 384"><path fill="currentColor" d="M170.5 192q-35.5 0-60.5-25t-25-60.5T110 46t60.5-25T231 46t25 60.5t-25 60.5t-60.5 25m0 43q31.5 0 69.5 9t69.5 29.5T341 320v43H0v-43q0-26 31.5-46.5T101 244t69.5-9"/></symbol><symbol id="hd-icon-zmdi-account-add" viewBox="0 0 472 384"><path fill="currentColor" d="M298.5 192q-35.5 0-60.5-25t-25-60.5T238 46t60.5-25T359 46t25 60.5t-25 60.5t-60.5 25M107 149h64v43h-64v64H64v-64H0v-43h64V85h43zm191.5 86q31.5 0 69.5 9t69.5 29.5T469 320v43H128v-43q0-26 31.5-46.5T229 244t69.5-9"/></symbol><symbol id="hd-icon-zmdi-account-box" viewBox="0 0 384 384"><path fill="currentColor" d="M0 43q0-18 12.5-30.5T43 0h298q18 0 30.5 12.5T384 43v298q0 18-12.5 30.5T341 384H43q-18 0-30.5-12.5T0 341zm256 85q0-27-18.5-45.5T192 64t-45.5 18.5T128 128t18.5 45.5T192 192t45.5-18.5T256 128M64 299v21h256v-21q0-20-23.5-36T244 240t-52-7t-52 7t-52.5 23T64 299"/></symbol><symbol id="hd-icon-zmdi-account-box-mail" viewBox="0 0 512 384"><path fill="currentColor" d="m448 107l-64 42l-64-42V85l64 43l64-43zM469 0q18 0 30.5 12.5T512 43v298q0 18-12.5 30.5T469 384H43q-18 0-30.5-12.5T0 341V43q0-18 12.5-30.5T43 0zM170.5 64q-26.5 0-45 18.5T107 128t18.5 45.5t45 18.5t45.5-18.5t19-45.5t-19-45.5T170.5 64M299 320v-21q0-20-24-36t-52.5-23t-52-7t-52 7t-52 23T43 299v21zm170-128V64H299v128z"/></symbol><symbol id="hd-icon-zmdi-account-box-o" viewBox="0 0 384 384"><path fill="currentColor" d="M192 197q-20 0-34-14t-14-34t14-34t34-14t34 14t14 34t-14 34t-34 14m96 86v16H96v-16q0-22 33-35t63-13t63 13t33 35M341 0q18 0 30.5 12.5T384 43v298q0 18-12.5 30.5T341 384H43q-18 0-30.5-12.5T0 341V43q0-18 12.5-30.5T43 0zm0 341V43H43v298z"/></symbol><symbol id="hd-icon-zmdi-account-box-phone" viewBox="0 0 512 384"><path fill="currentColor" d="M469 0q18 0 30.5 12.5T512 43v298q0 18-12.5 30.5T469 384H43q-18 0-30.5-12.5T0 341V43q0-18 12.5-30.5T43 0zM170.5 64q-26.5 0-45 18.5T107 128t18.5 45.5t45 18.5t45.5-18.5t19-45.5t-19-45.5T170.5 64M299 320v-21q0-20-24-36t-52.5-23t-52-7t-52 7t-52 23T43 299v21zm82-85q-8-22-8-43t8-43h35l32-42l-42-43q-44 33-59 85q-6 22-6 43t6 43q15 52 59 85l42-43l-32-42z"/></symbol><symbol id="hd-icon-zmdi-account-calendar" viewBox="0 0 384 432"><path fill="currentColor" d="M341 48q18 0 30.5 12.5T384 91v298q0 18-12.5 30.5T341 432H43q-18 0-30.5-12.5T0 389V91q0-18 12.5-30.5T43 48h21V5h43v43h170V5h43v43zm-149 64q-27 0-45.5 18.5T128 176t18.5 45.5T192 240t45.5-18.5T256 176t-18.5-45.5T192 112m128 256v-21q0-20-23.5-36T244 288t-52-7t-52 7t-52.5 23T64 347v21z"/></symbol><symbol id="hd-icon-zmdi-account-circle" viewBox="0 0 432 432"><path fill="currentColor" d="M213.5 3q88.5 0 151 62.5T427 216t-62.5 150.5t-151 62.5t-151-62.5T0 216T62.5 65.5T213.5 3m0 64Q187 67 168 85.5t-19 45t19 45.5t45.5 19t45-19t18.5-45.5t-18.5-45t-45-18.5m0 303q39.5 0 73-18.5T341 301q0-20-23.5-35.5t-52-23t-52-7.5t-52 7.5t-52 23T85 301q21 32 55 50.5t73.5 18.5"/></symbol><symbol id="hd-icon-zmdi-account-o" viewBox="0 0 344 384"><path fill="currentColor" d="M170.5 62Q152 62 139 75t-13 31.5t13 31.5t31.5 13t31.5-13t13-31.5T202 75t-31.5-13m.5 192q-44 0-87 16.5T41 299v23h260v-23q0-12-43-28.5T171 254m-.5-233Q206 21 231 46t25 60.5t-25 60.5t-60.5 25t-60.5-25t-25-60.5T110 46t60.5-25m0 192q31.5 0 69.5 9t69.5 29.5T341 299v64H0v-64q0-27 31.5-47.5T101 222t69.5-9"/></symbol><symbol id="hd-icon-zmdi-accounts" viewBox="0 0 472 384"><path fill="currentColor" d="M320 171q-27 0-45.5-19T256 106.5t18.5-45T320 43t45.5 18.5t18.5 45t-18.5 45.5t-45.5 19m-170.5 0q-26.5 0-45.5-19t-19-45.5t19-45T149.5 43t45 18.5t18.5 45t-18.5 45.5t-45 19m0 42q27.5 0 60.5 8t61 26t28 41v53H0v-53q0-23 27.5-41t61-26t61-8m170.5 0q28 0 61 8t60.5 26t27.5 41v53H341v-53q0-43-42-74q13-1 21-1"/></symbol><symbol id="hd-icon-zmdi-accounts-add" viewBox="0 0 512 384"><path fill="currentColor" d="M171 149v43h-64v64H64v-64H0v-43h64V85h43v64zm213 22q-10 0-19-3q19-28 19-61q0-34-19-61q9-3 19-3q27 0 45.5 18.5t18.5 45t-18.5 45.5t-45.5 19m-106.5 0q-26.5 0-45.5-19t-19-45.5t19-45T277.5 43t45 18.5t18.5 45t-18.5 45.5t-45 19M419 217q37 6 65 22t28 38v43h-64v-43q0-34-29-60m-142-4q40 0 84 18t44 46v43H149v-43q0-28 44-46t84-18"/></symbol><symbol id="hd-icon-zmdi-accounts-alt" viewBox="0 0 432 384"><path fill="currentColor" d="M309 192q-22 0-37.5-15.5T256 139t15.5-38T309 85t37.5 16t15.5 38t-15.5 37.5T309 192m-159.5-21q-26.5 0-45.5-19t-19-45.5t19-45T149.5 43t45 18.5t18.5 45t-18.5 45.5t-45 19m160 64q36.5 0 77 16t40.5 42v48H192v-48q0-26 40.5-42t77-16M149 213q22 0 51 6q-51 28-51 74v48H0v-53q0-23 27.5-41t61-26t60.5-8"/></symbol><symbol id="hd-icon-zmdi-accounts-list" viewBox="0 0 472 384"><path fill="currentColor" d="M427 43h42v298h-42zm-86 298V43h43v298zM277 43q9 0 15.5 6t6.5 15v256q0 9-6.5 15t-15.5 6H21q-8 0-14.5-6T0 320V64q0-9 6.5-15T21 43zm-128 58q-20 0-34 14t-14 34t14 34t34 14t34-14t14-34t-14-34t-34-14m96 198v-16q0-22-33-35t-63-13t-63 13t-33 35v16z"/></symbol><symbol id="hd-icon-zmdi-accounts-list-alt" viewBox="0 0 432 512"><path fill="currentColor" d="M384 0v43H43V0zM43 512v-43h341v43zM384 85q18 0 30.5 12.5T427 128v256q0 18-12.5 30.5T384 427H43q-18 0-30.5-12.5T0 384V128q0-18 12.5-30.5T43 85zm-171 59q-20 0-34 14t-14 34t14 34t34 14t34-14t14-34t-14-34t-34-14m107 219v-32q0-24-36.5-39t-70-15t-70 15t-36.5 39v32z"/></symbol><symbol id="hd-icon-zmdi-accounts-outline" viewBox="0 0 472 384"><path fill="currentColor" d="M331 213q25 0 56 7.5t56.5 24T469 283v58H0v-58q0-22 25.5-38.5t56.5-24t57-7.5q50 0 96 22q46-22 96-22m-86 96v-26q0-10-35-24t-71.5-14T67 259t-35 24v26zm192 0v-26q0-10-35-24t-71-14q-32 0-65 12q11 12 11 26v26zM139 192q-31 0-53-22t-22-53t22-52.5T139 43t52.5 21.5T213 117t-21.5 53t-52.5 22m-.5-117q-17.5 0-30 12.5t-12.5 30t12.5 30t30 12.5t30-12.5t12.5-30t-12.5-30t-30-12.5M331 192q-31 0-53-22t-22-53t22-52.5T331 43t52.5 21.5T405 117t-21.5 53t-52.5 22m-.5-117q-17.5 0-30 12.5t-12.5 30t12.5 30t30 12.5t30-12.5t12.5-30t-12.5-30t-30-12.5"/></symbol><symbol id="hd-icon-zmdi-airline-seat-flat" viewBox="0 0 432 384"><path fill="currentColor" d="M427 171v42H149V85h192q36 0 61 25t25 61M0 235h427v42H299v43H128v-43H0zm109.5-41q-18.5 19-45 19.5T19 195T0 150t18.5-45t45-19.5t45.5 18t19 45t-18.5 45.5"/></symbol><symbol id="hd-icon-zmdi-airline-seat-flat-angled" viewBox="0 0 456 384"><path fill="currentColor" d="m443 241l-15 40l-264-95l45-121l182 66q34 12 49 44t3 66M0 195l15-40l405 146l-14 40l-97-34v34H139v-96zm124-41.5q-24 11.5-49 3T38.5 124t-3-49T68 38.5t49-3T153.5 68t3 49t-32.5 36.5"/></symbol><symbol id="hd-icon-zmdi-airline-seat-individual-suite" viewBox="0 0 472 384"><path fill="currentColor" d="M128 213q-26 0-45-18.5t-19-45T83 104t45-19t45 19t19 45.5t-19 45t-45 18.5M384 85q35 0 60 25t25 61v128H0V85h43v150h170V85z"/></symbol><symbol id="hd-icon-zmdi-airline-seat-legroom-extra" viewBox="0 0 448 384"><path fill="currentColor" d="M43 192q0 27 18.5 45.5T107 256h128v43H107q-44 0-75.5-31.5T0 192V0h43zm401 112q7 12 2.5 25T429 348l-79 36l-73-149H128q-27 0-45.5-19T64 171V0h128v128h75q26 0 38 24l73 149l23-11q12-5 24.5-1.5T444 304"/></symbol><symbol id="hd-icon-zmdi-airline-seat-legroom-normal" viewBox="0 0 408 384"><path fill="currentColor" d="M43 192q0 27 18.5 45.5T107 256h128v43H107q-44 0-75.5-31.5T0 192V0h43zm330 128q14 0 23 9.5t9 22.5t-9 22.5t-23 9.5h-96V235H128q-26 0-45-19t-19-45V0h128v128h107q17 0 29.5 12.5T341 171v149z"/></symbol><symbol id="hd-icon-zmdi-airline-seat-legroom-reduced" viewBox="0 0 368 384"><path fill="currentColor" d="M362 346q3 15-6.5 26.5T331 384h-96v-64l21-85H128q-26 0-45-19t-19-45V0h128v128h107q17 0 29.5 12.5T341 171l-42 149h30q12 0 21.5 7t11.5 19M43 192q0 27 18.5 45.5T107 256h85v43h-85q-44 0-75.5-31.5T0 192V0h43z"/></symbol><symbol id="hd-icon-zmdi-airline-seat-recline-extra" viewBox="0 0 432 408"><path fill="currentColor" d="M71.5 80Q57 70 54 52.5t7-32T88.5 3t32 7.5T138 38t-7 31.5T103.5 87t-32-7M299 365v43H148q-39 0-69-25.5T42 318L0 109h43l42 202q3 24 21 39t42 15zm5-85l123 96l-32 32l-82-64H167q-23 0-40.5-14.5T104 292L75 166q-3-20 8.5-36.5T115 110q10-2 21 1q10 3 16 8l35 27q47 37 100 27v46q-48 8-110-26l22 87z"/></symbol><symbol id="hd-icon-zmdi-airline-seat-recline-normal" viewBox="0 0 344 424"><path fill="currentColor" d="M76.5 75.5Q64 63 64 45.5t12.5-30t30-12.5t30 12.5t12.5 30t-12.5 30t-30 12.5t-30-12.5M43 301q0 27 18.5 45.5T107 365h128v43H107q-44 0-75.5-31.5T0 301V109h43zm298 87l-30 31l-75-75H128q-27 0-45.5-18.5T64 280V157q0-20 14-34t34-14h1q10 0 20 5q9 4 15 11l30 33q17 19 45 31.5t54 11.5v47q-29 0-61-13.5T160 201v79h73z"/></symbol><symbol id="hd-icon-zmdi-airplane" viewBox="0 0 408 432"><path fill="currentColor" d="m405 301l-170-53v117l42 32v32l-74-21l-75 21v-32l43-32V248L0 301v-42l171-107V35q0-14 9-23t22.5-9t23 9t9.5 23v117l170 107z"/></symbol><symbol id="hd-icon-zmdi-airplane-off" viewBox="0 0 408 432"><path fill="currentColor" d="m235 152l170 107v42l-67-21l-167-167V35q0-14 9-23t22.5-9t23 9t9.5 23zM21 72l27-27l336 336l-27 27l-122-122v79l42 32v32l-74-21l-75 21v-32l43-32V248L0 301v-42l128-80z"/></symbol><symbol id="hd-icon-zmdi-airplay" viewBox="0 0 472 408"><path fill="currentColor" d="m107 405l128-128l128 128zM427 0q17 0 29.5 12.5T469 43v256q0 17-12.5 29.5T427 341h-86v-42h86V43H43v256h85v42H43q-18 0-30.5-12.5T0 299V43q0-18 12.5-30.5T43 0z"/></symbol><symbol id="hd-icon-zmdi-alarm" viewBox="0 0 432 432"><path fill="currentColor" d="m427 82l-28 33l-98-83l28-32zM125 32l-97 82L0 82L98 0zm99 99v112l85 50l-16 26l-101-60V131zm-10.5-86Q293 45 349 101.5t56 136T349 373t-135.5 56t-136-56T21 237.5t56.5-136t136-56.5m-.5 342q62 0 106-44t44-106t-44-105.5T213 88t-105.5 43.5T64 237t43.5 106T213 387"/></symbol><symbol id="hd-icon-zmdi-alarm-check" viewBox="0 0 432 432"><path fill="currentColor" d="m427 82l-28 33l-98-83l28-32zM125 32l-97 82L0 82L98 0zm88.5 13Q293 45 349 101.5t56 136T349 373t-135.5 56t-136-56T21 237.5t56.5-136t136-56.5m-.5 342q62 0 106-44t44-106t-44-105.5T213 88t-105.5 43.5T64 237t43.5 106T213 387m-31-117l105-106l23 23l-128 128l-68-68l23-22z"/></symbol><symbol id="hd-icon-zmdi-alarm-off" viewBox="0 0 440 432"><path fill="currentColor" d="M221 88q-26 0-51 9l-33-32q40-20 84-20q79 0 135.5 56.5T413 237q0 44-20 84l-32-32q9-26 9-52q0-62-43.5-105.5T221 88m213-6l-27 33l-99-83l28-32zM27 9l21 21l372 372l-27 27l-47-47q-54 47-125 47q-80 0-136-56T29 237q0-71 47-125L59 95l-24 20L5 84l23-19L0 36zm289 343L106 142q-35 42-35 95q0 62 44 106t106 44q54 0 95-35M136 30l-18 15l-31-30l19-15z"/></symbol><symbol id="hd-icon-zmdi-alarm-plus" viewBox="0 0 432 432"><path fill="currentColor" d="m125 32l-97 82L0 82L98 0zm302 50l-28 33l-98-83l28-32zM213.5 45Q293 45 349 101.5t56 136T349 373t-135.5 56t-136-56T21 237.5t56.5-136t136-56.5m-.5 342q62 0 106-44t44-106t-44-105.5T213 88t-105.5 43.5T64 237t43.5 106T213 387m22-235v64h64v43h-64v64h-43v-64h-64v-43h64v-64z"/></symbol><symbol id="hd-icon-zmdi-alarm-snooze" viewBox="0 0 432 432"><path fill="currentColor" d="m125 32l-97 82L0 82L98 0zm302 50l-28 33l-98-83l28-32zM213.5 45Q293 45 349 101.5t56 136T349 373t-135.5 56t-136-56T21 237.5t56.5-136t136-56.5m-.5 342q62 0 106-44t44-106t-44-105.5T213 88t-105.5 43.5T64 237t43.5 106T213 387m-64-192v-43h128v38l-77 90h77v43H149v-39l78-89z"/></symbol><symbol id="hd-icon-zmdi-album" viewBox="0 0 432 432"><path fill="currentColor" d="M213.5 3q88.5 0 151 62.5T427 216t-62.5 150.5t-151 62.5t-151-62.5T0 216T62.5 65.5T213.5 3m-.5 309q40 0 68-28t28-68t-28-68t-68-28t-68 28t-28 68t28 68t68 28m.5-117q8.5 0 15 6t6.5 15t-6.5 15t-15 6t-15-6t-6.5-15t6.5-15t15-6"/></symbol><symbol id="hd-icon-zmdi-alert-circle" viewBox="0 0 432 432"><path fill="currentColor" d="M213.5 3q88.5 0 151 62.5T427 216t-62.5 150.5t-151 62.5t-151-62.5T0 216T62.5 65.5T213.5 3M235 323v-43h-43v43zm0-86V109h-43v128z"/></symbol><symbol id="hd-icon-zmdi-alert-circle-o" viewBox="0 0 432 432"><path fill="currentColor" d="M192 280h43v43h-43zm0-171h43v128h-43zM213.5 3q88.5 0 151 62.5T427 216t-62.5 150.5t-151 62.5t-151-62.5T0 216T62.5 65.5T213.5 3m0 384q70.5 0 120.5-50t50-121t-50-121t-120.5-50T93 95T43 216t50 121t120.5 50"/></symbol><symbol id="hd-icon-zmdi-alert-octagon" viewBox="0 0 384 384"><path fill="currentColor" d="m272 0l112 112v160L272 384H112L0 272V112L112 0zm-80 305q12 0 20-8t8-19.5t-8-19.5t-20-8t-20 8t-8 19.5t8 19.5t20 8m21-92V85h-42v128z"/></symbol><symbol id="hd-icon-zmdi-alert-polygon" viewBox="0 0 472 448"><path fill="currentColor" d="m469 224l-52 59l8 79l-77 17l-41 68l-72-31l-73 31l-40-67l-77-18l7-79l-52-59l52-60l-7-78l77-17l40-68l73 31l72-31l41 68l77 17l-8 79zM256 331v-43h-43v43zm0-86V117h-43v128z"/></symbol><symbol id="hd-icon-zmdi-alert-triangle" viewBox="0 0 472 408"><path fill="currentColor" d="M0 408L235 3l234 405zm256-64v-43h-43v43zm0-85v-86h-43v86z"/></symbol><symbol id="hd-icon-zmdi-amazon" viewBox="0 0 432 384"><path fill="currentColor" d="M379 297q6-2 9 2.5t-2 8.5q-34 25-81 39t-92 14Q91 361 2 280q-3-3-1-5.5t6-.5q96 56 211 56q83 0 161-33m46-26q5 6-2.5 31.5T399 342q-3 3-5 2t-1-5q18-45 12-53t-54-2q-4 0-4.5-2t2.5-4q18-13 46-13.5t30 6.5M237 113v-6q0-22-6-30q-7-11-23-11q-28 0-33 25q-2 8-8 8l-40-4q-8-2-6-9q6-34 32.5-49T214 22q41 0 63 21q3 3 5.5 6t4.5 7.5t3.5 7t2 8t1.5 8t1 9V180q0 17 16 38q5 7 0 12q-16 12-32 27q-5 4-10 1q-11-9-24-28q-17 18-32 24.5t-37 6.5q-27 0-44.5-17T114 196q0-49 44-69q17-7 79-14m-8 87q8-14 8-45v-9q-62 0-62 42q0 14 6.5 22.5T200 219q18 0 29-19"/></symbol><symbol id="hd-icon-zmdi-android" viewBox="0 0 432 520"><path fill="currentColor" d="M85 392V179h256v213q0 9-6 15t-15 6h-21v75q0 13-9.5 22.5t-23 9.5t-22.5-9.5t-9-22.5v-75h-43v75q0 13-9.5 22.5T160 520t-22.5-9.5T128 488v-75h-21q-9 0-15.5-6T85 392M32 179q13 0 22.5 9t9.5 23v149q0 13-9.5 22.5T32 392t-22.5-9.5T0 360V211q0-14 9.5-23t22.5-9m362.5 0q13.5 0 23 9t9.5 23v149q0 13-9.5 22.5t-23 9.5t-22.5-9.5t-9-22.5V211q0-14 9-23t22.5-9M289 54q52 38 52 103H85q0-64 53-103l-28-28q-8-7-.5-14.5T125 11l32 32q26-14 56-14t57 14l31-32q8-7 15.5.5T316 26zm-118 61V93h-22v22zm106 0V93h-21v22z"/></symbol><symbol id="hd-icon-zmdi-android-alt" viewBox="0 0 304 472"><path fill="currentColor" d="M0 317v-85h299v85q0 62-44 106t-106 44t-105.5-44T0 317M237 69q29 21 45.5 52.5T299 189v22H0v-22q0-36 16.5-67.5T61 69L17 24L34 7l49 49q32-16 66-16t66 16l50-49l17 17zM85.5 168q8.5 0 15-6.5t6.5-15t-6.5-15t-15-6.5t-15 6.5t-6.5 15t6.5 15t15 6.5m128 0q8.5 0 15-6.5t6.5-15t-6.5-15t-15-6.5t-15 6.5t-6.5 15t6.5 15t15 6.5"/></symbol><symbol id="hd-icon-zmdi-apple" viewBox="0 0 368 432"><path fill="currentColor" d="M353 146q-21 7-35 32.5T304 229q0 31 16 57.5t43 33.5q-8 27-26.5 55.5T299 418q-16 11-40 11q-16 0-37-8q-18-9-31-9q-10 0-40 12q-18 5-26 5q-24 0-49-20q-36-34-56-81T0 230q0-53 30.5-93.5T108 96q26 0 48 11q17 11 34 11q16 0 31-6q39-16 52-16q35 0 61 23q12 12 19 27M179 99q0-32 25-63q25-27 61-33q0 38-24 67q-27 29-62 29"/></symbol><symbol id="hd-icon-zmdi-apps" viewBox="0 0 344 384"><path fill="currentColor" d="M0 107V21h85v86zm128 256v-86h85v86zM0 363v-86h85v86zm0-128v-86h85v86zm128 0v-86h85v86zM256 21h85v86h-85zm-128 86V21h85v86zm128 128v-86h85v86zm0 128v-86h85v86z"/></symbol><symbol id="hd-icon-zmdi-archive" viewBox="0 0 384 384"><path fill="currentColor" d="M374 48q10 11 10 27v266q0 18-12.5 30.5T341 384H43q-18 0-30.5-12.5T0 341V75q0-16 10-27l29-36Q49 0 64 0h256q15 0 25 12zM192 309l117-117h-74v-43h-86v43H75zM45 43h294l-20-22H63z"/></symbol><symbol id="hd-icon-zmdi-arrow-left" viewBox="0 0 344 384"><path fill="currentColor" d="M341 171v42H82l119 120l-30 30L0 192L171 21l30 30L82 171z"/></symbol><symbol id="hd-icon-zmdi-arrow-left-bottom" viewBox="0 0 320 384"><path fill="currentColor" d="M320 51L73 299h140v42H0V128h43v141L290 21z"/></symbol><symbol id="hd-icon-zmdi-arrow-merge" viewBox="0 0 280 384"><path fill="currentColor" d="m243 371l-72-72l30-30l72 72zM41 107l96-96l96 96h-75v136L30 371L0 341l115-115V107z"/></symbol><symbol id="hd-icon-zmdi-arrow-missed" viewBox="0 0 384 384"><path fill="currentColor" d="m354 85l30 30l-192 192L43 158v98H0V85h171v43H73l119 119z"/></symbol><symbol id="hd-icon-zmdi-arrow-right" viewBox="0 0 344 384"><path fill="currentColor" d="m171 21l170 171l-170 171l-30-30l119-120H0v-42h260L141 51z"/></symbol><symbol id="hd-icon-zmdi-arrow-right-top" viewBox="0 0 320 384"><path fill="currentColor" d="M107 43h213v213h-43V115L30 363L0 333L247 85H107z"/></symbol><symbol id="hd-icon-zmdi-arrow-split" viewBox="0 0 344 384"><path fill="currentColor" d="M213 21h128v128l-49-49l-61 62l-30-30l61-62zm-85 0L79 70l113 113v180h-43V201L49 100L0 149V21z"/></symbol><symbol id="hd-icon-zmdi-arrows" viewBox="0 0 472 480"><path fill="currentColor" d="M192 176v-64h-64L235 5l106 107h-64v64zm-21 21v86h-64v64L0 240l107-107v64zm298 43L363 347v-64h-64v-86h64v-64zm-192 64v64h64L235 475L128 368h64v-64z"/></symbol><symbol id="hd-icon-zmdi-aspect-ratio" viewBox="0 0 432 384"><path fill="currentColor" d="M299 149v43h-43v-43zm0 86v42h-43v-42zm-171-86v43H85v-43zm85 0v43h-42v-43zM384 21q18 0 30.5 12.5T427 64v256q0 18-12.5 30.5T384 363H43q-18 0-30.5-12.5T0 320V64q0-18 12.5-30.5T43 21zm0 299V64H43v256z"/></symbol><symbol id="hd-icon-zmdi-aspect-ratio-alt" viewBox="0 0 472 384"><path fill="currentColor" d="M384 192v107H277v-43h64v-64zm-256-64v64H85V85h107v43zM427 0q17 0 29.5 12.5T469 43v298q0 18-12.5 30.5T427 384H43q-18 0-30.5-12.5T0 341V43q0-18 12.5-30.5T43 0zm0 342V42H43v300z"/></symbol><symbol id="hd-icon-zmdi-assignment" viewBox="0 0 384 432"><path fill="currentColor" d="M341 45q18 0 30.5 12.5T384 88v299q0 17-12.5 29.5T341 429H43q-18 0-30.5-12.5T0 387V88q0-18 12.5-30.5T43 45h89q7-19 23.5-30.5T192 3t36.5 11.5T252 45zm-149 0q-9 0-15 6.5t-6 15t6 15t15 6.5t15-6.5t6-15t-6-15t-15-6.5m43 299v-43H85v43zm64-85v-43H85v43zm0-86v-42H85v42z"/></symbol><symbol id="hd-icon-zmdi-assignment-account" viewBox="0 0 384 432"><path fill="currentColor" d="M341 48q18 0 30.5 12.5T384 91v298q0 18-12.5 30.5T341 432H43q-18 0-30.5-12.5T0 389V91q0-18 12.5-30.5T43 48h89q7-19 23.5-31T192 5t36.5 12T252 48zm-149 0q-9 0-15 6.5t-6 15t6 15t15 6.5t15-6.5t6-15t-6-15t-15-6.5m0 85q-27 0-45.5 19T128 197.5t18.5 45T192 261t45.5-18.5t18.5-45t-18.5-45.5t-45.5-19m128 256v-30q0-19-23.5-35T244 300.5t-52-7.5t-52 7.5T87.5 324T64 359v30z"/></symbol><symbol id="hd-icon-zmdi-assignment-alert" viewBox="0 0 384 432"><path fill="currentColor" d="M341 48q18 0 30.5 12.5T384 91v298q0 18-12.5 30.5T341 432H43q-18 0-30.5-12.5T0 389V91q0-18 12.5-30.5T43 48h89q7-19 23.5-31T192 5t36.5 12T252 48zM213 368v-43h-42v43zm0-85V155h-42v128zM192 91q9 0 15-6.5t6-15t-6-15t-15-6.5t-15 6.5t-6 15t6 15t15 6.5"/></symbol><symbol id="hd-icon-zmdi-assignment-check" viewBox="0 0 384 432"><path fill="currentColor" d="M341 48q18 0 30.5 12.5T384 91v298q0 18-12.5 30.5T341 432H43q-18 0-30.5-12.5T0 389V91q0-18 12.5-30.5T43 48h89q7-19 23.5-31T192 5t36.5 12T252 48zm-149 0q-9 0-15 6.5t-6 15t6 15t15 6.5t15-6.5t6-15t-6-15t-15-6.5m-43 299l171-171l-30-30l-141 140l-55-55l-30 30z"/></symbol><symbol id="hd-icon-zmdi-assignment-o" viewBox="0 0 384 472"><path fill="currentColor" d="M341 43q18 0 30.5 12.5T384 85v342q0 17-12.5 29.5T341 469H43q-18 0-30.5-12.5T0 427V85q0-17 12.5-29.5T43 43h89q7-19 23.5-31T192 0t36.5 12T252 43zm-149 0q-9 0-15 6t-6 15t6 15t15 6t15-6t6-15t-6-15t-15-6m149 384V85h-42v64H85V85H43v342z"/></symbol><symbol id="hd-icon-zmdi-assignment-return" viewBox="0 0 384 432"><path fill="currentColor" d="M341 48q18 0 30.5 12.5T384 91v298q0 18-12.5 30.5T341 432H43q-18 0-30.5-12.5T0 389V91q0-18 12.5-30.5T43 48h89q7-19 23.5-31T192 5t36.5 12T252 48zm-149 0q-9 0-15 6.5t-6 15t6 15t15 6.5t15-6.5t6-15t-6-15t-15-6.5m85 256v-85h-85v-64L85 261l107 107v-64z"/></symbol><symbol id="hd-icon-zmdi-assignment-returned" viewBox="0 0 384 432"><path fill="currentColor" d="M341 48q18 0 30.5 12.5T384 91v298q0 18-12.5 30.5T341 432H43q-18 0-30.5-12.5T0 389V91q0-18 12.5-30.5T43 48h89q7-19 23.5-31T192 5t36.5 12T252 48zm-149 0q-9 0-15 6.5t-6 15t6 15t15 6.5t15-6.5t6-15t-6-15t-15-6.5m0 320l107-107h-64v-85h-86v85H85z"/></symbol><symbol id="hd-icon-zmdi-attachment" viewBox="0 0 432 384"><path fill="currentColor" d="M117 309q-48 0-82.5-34T0 192t34.5-83T117 75h224q36 0 61 25t25 60t-25 60t-61 25H160q-22 0-37.5-15.5T107 192t15.5-37.5T160 139h160v32H160q-9 0-15 6t-6 15t6 15t15 6h181q22 0 38-15.5t16-37.5t-16-37.5t-38-15.5H117q-35 0-60 25t-25 60t25 60t60 25h203v32z"/></symbol><symbol id="hd-icon-zmdi-attachment-alt" viewBox="0 0 240 480"><path fill="currentColor" d="M203 112h32v245q0 49-34.5 83.5t-83 34.5t-83-34.5T0 357V91q0-36 25-61T85.5 5T146 30t25 61v224q0 22-16 37.5T117 368t-37.5-15.5T64 315V112h32v203q0 8 6.5 14.5t15 6.5t15-6.5T139 315V91q0-22-16-38T85 37T47.5 53T32 91v266q0 36 25 61t60.5 25t60.5-25t25-61z"/></symbol><symbol id="hd-icon-zmdi-audio" viewBox="0 0 280 384"><path fill="currentColor" d="M128 0h149v64h-85v235h-1q-4 36-31 60.5T96 384q-40 0-68-28T0 288t28-68t68-28q15 0 32 6z"/></symbol><symbol id="hd-icon-zmdi-badge-check" viewBox="0 0 384 480"><path fill="currentColor" d="M341 5q18 0 30.5 12.5T384 48v276q0 23-19 35L192 475L19 359Q0 347 0 324V48q0-18 12.5-30.5T43 5zM149 325l192-192l-30-30l-162 162l-76-76l-30 30z"/></symbol><symbol id="hd-icon-zmdi-balance" viewBox="0 0 408 456"><path fill="currentColor" d="M43 197h64v150H43zm128 0h64v150h-64zM0 453v-64h405v64zm299-256h64v150h-64zM203 5l202 107v43H0v-43z"/></symbol><symbol id="hd-icon-zmdi-balance-wallet" viewBox="0 0 408 384"><path fill="currentColor" d="M384 320v21q0 18-12.5 30.5T341 384H43q-18 0-30.5-12.5T0 341V43q0-18 12.5-30.5T43 0h298q18 0 30.5 12.5T384 43v21H192q-18 0-30.5 12.5T149 107v170q0 18 12.5 30.5T192 320zm-192-43V107h213v170zm85.5-53q13.5 0 22.5-9.5t9-22.5t-9-22.5t-22.5-9.5t-23 9.5T245 192t9.5 22.5t23 9.5"/></symbol><symbol id="hd-icon-zmdi-battery" viewBox="0 0 216 432"><path fill="currentColor" d="M185 45q12 0 20 8.5t8 20.5v327q0 12-8 20t-20 8H28q-11 0-19.5-8T0 401V74q0-12 8.5-20.5T28 45h36V3h85v42z"/></symbol><symbol id="hd-icon-zmdi-battery-alert" viewBox="0 0 216 432"><path fill="currentColor" d="M185 45q12 0 20 8.5t8 20.5v327q0 12-8 20t-20 8H28q-11 0-19.5-8T0 401V74q0-12 8.5-20.5T28 45h36V3h85v42zm-57 299v-43H85v43zm0-85V152H85v107z"/></symbol><symbol id="hd-icon-zmdi-battery-flash" viewBox="0 0 216 432"><path fill="currentColor" d="M185 45q12 0 20 8.5t8 20.5v327q0 12-8 20t-20 8H28q-11 0-19.5-8T0 401V74q0-12 8.5-20.5T28 45h36V3h85v42zM85 387l86-160h-43V109L43 269h42z"/></symbol><symbol id="hd-icon-zmdi-battery-unknown" viewBox="0 0 216 432"><path fill="currentColor" d="M185 45q12 0 20 8.5t8 20.5v327q0 12-8 20t-20 8H28q-11 0-19.5-8T0 401V74q0-12 8.5-20.5T28 45h36V3h85v42zm-58 298v-41H86v41zm29-112q15-15 15-36q0-27-19-45.5T106.5 131t-45 18.5T43 195h32q0-14 9-23t22.5-9t23 9t9.5 22.5t-10 22.5l-20 20q-19 21-19 43h34q0-16 17-34z"/></symbol><symbol id="hd-icon-zmdi-behance" viewBox="0 0 432 384"><path fill="currentColor" d="M384 103H277V77h107zM208 203.5q12 17.5 12 42.5q0 20-8 35q-7 14-21 23q-12 9-30 14q-14 4-34 4H0V56h124q12 0 34 5q13 3 26 12q11 7 18 20q6 13 6 31q0 20-9.5 33.5T172 179q24 7 36 24.5M55 163h61q17 0 26-6q10-7 10-23q0-9-3.5-15t-9.5-9q-6-4-12-5q-9-2-15-2H55zm107 80q0-20-11-29q-11-8-30-8H55v73h64q7 0 17-2q8-2 13.5-5.5T159 260q3-6 3-17m264-3H289q0 24 13 37q12 11 34 11q15 0 27-8q12-9 14-18h46q-10 35-34 50q-24 16-55 16q-22 0-40-7t-31-21q-13-13-19-32q-7-18-7-40t7-40.5t20-32.5q13-13 30-21q18-8 40-8q24 0 42 9.5t30 25.5q11 15 17 37q5 21 3 42m-52-34q-2-18-12-30q-9-10-29-10q-13 0-21 4.5T298.5 181t-6.5 13q-3 7-3 12z"/></symbol><symbol id="hd-icon-zmdi-bike" viewBox="0 0 512 440"><path fill="currentColor" d="M330.5 85q-17.5 0-30-12.5t-12.5-30t12.5-30t30-12.5t30 12.5t12.5 30t-12.5 30t-30 12.5m-224 139q44.5 0 75.5 31t31 75.5t-31 75.5t-75.5 31T31 406T0 330.5T31 255t75.5-31m0 181q30.5 0 52.5-22t22-52.5t-22-52.5t-52.5-22T54 278t-22 52.5T54 383t52.5 22M230 192l47 49v132h-42V267l-69-60q-12-10-12-30q0-17 12-30l60-60q10-12 30-12q18 0 34 12l41 41q32 32 76 32v43q-64 0-108-45l-17-17zm175.5 32q44.5 0 75.5 31t31 75.5t-31 75.5t-75.5 31t-75.5-31t-31-75.5t31-75.5t75.5-31m0 181q30.5 0 52.5-22t22-52.5t-22-52.5t-52.5-22t-52.5 22t-22 52.5t22 52.5t52.5 22"/></symbol><symbol id="hd-icon-zmdi-block" viewBox="0 0 432 432"><path fill="currentColor" d="M213.5 3q88.5 0 151 62.5T427 216t-62.5 150.5t-151 62.5t-151-62.5T0 216T62.5 65.5T213.5 3M43 216q0 59 36 105L318 81q-46-36-105-36q-70 0-120 50T43 216m170 171q71 0 121-50t50-121q0-59-36-105L109 351q46 36 104 36"/></symbol><symbol id="hd-icon-zmdi-block-alt" viewBox="0 0 432 432"><path fill="currentColor" d="M213.5 3q88.5 0 151 62.5T427 216t-62.5 150.5t-151 62.5t-151-62.5T0 216T62.5 65.5T213.5 3m-.5 384q58 0 105-36L79 111q-36 47-36 105q0 71 50 121t120 50m135-66q36-47 36-105q0-71-50-121T213 45q-58 0-104 36z"/></symbol><symbol id="hd-icon-zmdi-blogger" viewBox="0 0 432 432"><path fill="currentColor" d="M397 165q30 0 30 31v103q0 53-39.5 91.5T295 429H124q-48 0-86-38.5T0 300V138q0-57 39-96t96-39h90q44 0 84.5 39.5T350 128v11q0 11 7.5 18.5T378 165zm-262-51q-10 0-17.5 7.5t-7.5 18t7.5 18T135 165h78q10 0 17-8t7-18t-7-17.5t-17-7.5zm154 204q10 0 17.5-6.5T314 295t-7.5-17t-17.5-7H135q-10 0-17.5 7t-7.5 17t7.5 16.5T135 318z"/></symbol><symbol id="hd-icon-zmdi-bluetooth" viewBox="0 0 272 432"><path fill="currentColor" d="m271 124l-92 92l92 92l-122 121h-21V267l-98 98l-30-30l119-119L0 97l30-30l98 98V3h21zM171 84v81l40-41zm40 224l-40-41v81z"/></symbol><symbol id="hd-icon-zmdi-bluetooth-connected" viewBox="0 0 384 432"><path fill="currentColor" d="m85 216l-42 43l-43-43l43-43zm229-92l-92 92l92 92l-122 121h-21V267l-98 98l-30-30l119-119L43 97l30-30l98 98V3h21zM213 84v81l40-41zm40 224l-40-41v81zm88-135l43 43l-43 43l-42-43z"/></symbol><symbol id="hd-icon-zmdi-bluetooth-off" viewBox="0 0 344 432"><path fill="currentColor" d="M192 84v69l-43-43V3h22l121 121l-64 65l-30-30l34-35zM30 45l311 312l-30 30l-49-49l-91 91h-22V267l-98 98l-30-30l120-119L0 75zm162 303l40-40l-40-41z"/></symbol><symbol id="hd-icon-zmdi-bluetooth-search" viewBox="0 0 384 432"><path fill="currentColor" d="m240 216l49-49q10 24 10 49q0 26-10 50zm113-113q31 51 31 111q0 61-33 113l-25-25q21-41 21-86q0-46-21-86zm-82 21l-92 92l92 92l-122 121h-21V267l-98 98l-30-30l119-119L0 97l30-30l98 98V3h21zM171 84v81l40-41zm40 224l-40-41v81z"/></symbol><symbol id="hd-icon-zmdi-bluetooth-setting" viewBox="0 0 272 512"><path fill="currentColor" d="M128 512v-43h43v43zm-85 0v-43h42v43zm170 0v-43h43v43zm58-390l-92 91l92 92l-122 122h-21V265l-98 98l-30-30l119-120L0 94l30-30l98 98V0h21zM171 82v80l40-40zm40 223l-40-40v80z"/></symbol><symbol id="hd-icon-zmdi-blur" viewBox="0 0 408 416"><path fill="currentColor" d="M74.5 229q8.5 0 15 6.5t6.5 15t-6.5 15t-15 6.5t-15-6.5t-6.5-15t6.5-15t15-6.5m0 86q8.5 0 15 6t6.5 15t-6.5 15t-15 6t-15-6t-6.5-15t6.5-15t15-6m0-171q8.5 0 15 6.5t6.5 15t-6.5 15t-15 6.5t-15-6.5t-6.5-15t6.5-15t15-6.5m-64 11Q21 155 21 165.5T10.5 176T0 165.5T10.5 155m64-96q8.5 0 15 6T96 80t-6.5 15t-15 6t-15-6T53 80t6.5-15t15-6m320 117q-10.5 0-10.5-10.5t10.5-10.5t10.5 10.5t-10.5 10.5m-149-75q-8.5 0-15-6T224 80t6.5-15t15-6t15 6t6.5 15t-6.5 15t-15 6m0-74Q235 27 235 16t10.5-11T256 16t-10.5 11m-235 213Q21 240 21 250.5T10.5 261T0 250.5T10.5 240M160 389q11 0 11 11t-11 11t-11-11t11-11m0-362q-11 0-11-11t11-11t11 11t-11 11m0 74q-9 0-15-6t-6-15t6-15t15-6t15 6t6 15t-6 15t-15 6m0 118q13 0 22.5 9t9.5 22.5t-9.5 23T160 283t-22.5-9.5t-9.5-23t9.5-22.5t22.5-9m170.5 10q8.5 0 15 6.5t6.5 15t-6.5 15t-15 6.5t-15-6.5t-6.5-15t6.5-15t15-6.5m0 86q8.5 0 15 6t6.5 15t-6.5 15t-15 6t-15-6t-6.5-15t6.5-15t15-6m0-171q8.5 0 15 6.5t6.5 15t-6.5 15t-15 6.5t-15-6.5t-6.5-15t6.5-15t15-6.5m0-85q8.5 0 15 6t6.5 15t-6.5 15t-15 6t-15-6t-6.5-15t6.5-15t15-6m64 181q10.5 0 10.5 10.5T394.5 261T384 250.5t10.5-10.5m-149 75q8.5 0 15 6t6.5 15t-6.5 15t-15 6t-15-6t-6.5-15t6.5-15t15-6m0 74q10.5 0 10.5 11t-10.5 11t-10.5-11t10.5-11M160 133q13 0 22.5 9.5t9.5 23t-9.5 22.5t-22.5 9t-22.5-9t-9.5-22.5t9.5-23T160 133m0 182q9 0 15 6t6 15t-6 15t-15 6t-15-6t-6-15t6-15t15-6m85.5-96q13.5 0 22.5 9t9 22.5t-9 23t-22.5 9.5t-23-9.5t-9.5-23t9.5-22.5t23-9m0-86q13.5 0 22.5 9.5t9 23t-9 22.5t-22.5 9t-23-9t-9.5-22.5t9.5-23t23-9.5"/></symbol><symbol id="hd-icon-zmdi-blur-circular" viewBox="0 0 432 432"><path fill="currentColor" d="M170.5 152q8.5 0 15 6.5t6.5 15t-6.5 15t-15 6.5t-15-6.5t-6.5-15t6.5-15t15-6.5m0 85q8.5 0 15 6.5t6.5 15t-6.5 15t-15 6.5t-15-6.5t-6.5-15t6.5-15t15-6.5m-64-74q10.5 0 10.5 10.5T106.5 184T96 173.5t10.5-10.5m64 149q10.5 0 10.5 10.5T170.5 333T160 322.5t10.5-10.5m-64-64q10.5 0 10.5 10.5T106.5 269T96 258.5t10.5-10.5m64-128q-10.5 0-10.5-10.5T170.5 99t10.5 10.5t-10.5 10.5m85.5 32q9 0 15 6.5t6 15t-6 15t-15 6.5t-15-6.5t-6-15t6-15t15-6.5m0-32q-11 0-11-10.5T256 99t11 10.5t-11 10.5m64 128q11 0 11 10.5T320 269t-11-10.5t11-10.5m0-85q11 0 11 10.5T320 184t-11-10.5t11-10.5M213.5 3q88.5 0 151 62.5T427 216t-62.5 150.5t-151 62.5t-151-62.5T0 216T62.5 65.5T213.5 3m0 384q70.5 0 120.5-50t50-121t-50-121t-120.5-50T93 95T43 216t50 121t120.5 50m42.5-75q11 0 11 10.5T256 333t-11-10.5t11-10.5m0-75q9 0 15 6.5t6 15t-6 15t-15 6.5t-15-6.5t-6-15t6-15t15-6.5"/></symbol><symbol id="hd-icon-zmdi-blur-linear" viewBox="0 0 384 384"><path fill="currentColor" d="M42.5 309Q29 309 20 300t-9-22.5t9-23t22.5-9.5t23 9.5t9.5 23t-9.5 22.5t-23 9m85.5-96q-9 0-15-6t-6-15t6-15t15-6t15 6t6 15t-6 15t-15 6m0-85q-9 0-15-6.5t-6-15t6-15t15-6.5t15 6.5t6 15t-6 15t-15 6.5M0 384v-43h384v43zm42.5-245Q29 139 20 129.5t-9-23T20 84t22.5-9t23 9t9.5 22.5t-9.5 23t-23 9.5m0 85Q29 224 20 214.5T11 192t9-22.5t22.5-9.5t23 9.5T75 192t-9.5 22.5t-23 9.5m85.5 75q-9 0-15-6.5t-6-15t6-15t15-6.5t15 6.5t6 15t-6 15t-15 6.5m170.5-11q-10.5 0-10.5-10.5t10.5-10.5t10.5 10.5t-10.5 10.5M0 0h384v43H0zm298.5 117q-10.5 0-10.5-10.5T298.5 96t10.5 10.5t-10.5 10.5m0 86q-10.5 0-10.5-11t10.5-11t10.5 11t-10.5 11m-85-75q-8.5 0-15-6.5t-6.5-15t6.5-15t15-6.5t15 6.5t6.5 15t-6.5 15t-15 6.5m0 85q-8.5 0-15-6t-6.5-15t6.5-15t15-6t15 6t6.5 15t-6.5 15t-15 6m0 86q-8.5 0-15-6.5t-6.5-15t6.5-15t15-6.5t15 6.5t6.5 15t-6.5 15t-15 6.5"/></symbol><symbol id="hd-icon-zmdi-blur-off" viewBox="0 0 408 416"><path fill="currentColor" d="M245.5 101q-8.5 0-15-6T224 80t6.5-15t15-6t15 6t6.5 15t-6.5 15t-15 6m-4.5 96q-11-2-18.5-9.5T214 170l-1-5q0-13 9.5-22.5t23-9.5t22.5 9.5t9 23t-9 22.5t-23 9zm4.5-170Q235 27 235 16t10.5-11T256 16t-10.5 11M160 27q-11 0-11-11t11-11t11 11t-11 11m234.5 149q-10.5 0-10.5-10.5t10.5-10.5t10.5 10.5t-10.5 10.5M160 101q-9 0-15-6t-6-15t6-15t15-6t15 6t6 15t-6 15t-15 6m170.5 171q-8.5 0-15-6.5t-6.5-15t6.5-15t15-6.5t15 6.5t6.5 15t-6.5 15t-15 6.5m0-85q-8.5 0-15-6.5t-6.5-15t6.5-15t15-6.5t15 6.5t6.5 15t-6.5 15t-15 6.5m0-86q-8.5 0-15-6T309 80t6.5-15t15-6t15 6t6.5 15t-6.5 15t-15 6m-85 288q10.5 0 10.5 11t-10.5 11t-10.5-11t10.5-11M0 64l27-27l346 347l-27 27l-81-81q2 4 2 6q0 9-6.5 15t-15 6t-15-6t-6.5-15t6.5-15t14.5-6q2 0 6 1l-60-60q-1 11-10 19t-21 8q-13 0-22.5-9.5T128 251q0-12 7.5-21t19.5-11l-60-60q1 4 1 6q0 9-6.5 15.5t-15 6.5t-15-6.5t-6.5-15t6.5-15T75 144l6 1zm160 251q9 0 15 6t6 15t-6 15t-15 6t-15-6t-6-15t6-15t15-6m234.5-75q10.5 0 10.5 10.5T394.5 261T384 250.5t10.5-10.5m-320-11q8.5 0 15 6.5t6.5 15t-6.5 15t-15 6.5t-15-6.5t-6.5-15t6.5-15t15-6.5m-64-74Q21 155 21 165.5T10.5 176T0 165.5T10.5 155M160 389q11 0 11 11t-11 11t-11-11t11-11m-85.5-74q8.5 0 15 6t6.5 15t-6.5 15t-15 6t-15-6t-6.5-15t6.5-15t15-6m-64-75Q21 240 21 250.5T10.5 261T0 250.5T10.5 240"/></symbol><symbol id="hd-icon-zmdi-boat" viewBox="0 0 432 480"><path fill="currentColor" d="M384 432h43v43h-43q-44 0-85-21q-41 20-86 20t-85-20q-42 21-85 21H0v-43h43q45 0 85-28q39 27 85.5 27t85.5-27q40 28 85 28M42 389L1 247q-3-8 1-17q4-8 13-10l28-9v-99q0-18 12.5-30.5T85 69h64V5h128v64h64q18 0 30.5 12.5T384 112v99l27 9q9 2 13 10t1 17l-40 142h-1q-48 0-85-42q-38 42-86 42t-85-42q-37 42-85 42zm43-277v85l128-42l128 42v-85z"/></symbol><symbol id="hd-icon-zmdi-book" viewBox="0 0 344 432"><path fill="currentColor" d="M299 3q17 0 29.5 12.5T341 45v342q0 17-12.5 29.5T299 429H43q-18 0-30.5-12.5T0 387V45q0-17 12.5-29.5T43 3zM43 45v171l53-32l53 32V45z"/></symbol><symbol id="hd-icon-zmdi-book-image" viewBox="0 0 344 432"><path fill="currentColor" d="M299 3q17 0 29.5 12.5T341 45v342q0 17-12.5 29.5T299 429H43q-18 0-30.5-12.5T0 387V45q0-17 12.5-29.5T43 3zM43 45v171l53-32l53 32V45zm0 320h256l-83-109l-64 82l-45-55z"/></symbol><symbol id="hd-icon-zmdi-bookmark" viewBox="0 0 304 384"><path fill="currentColor" d="M256 0q18 0 30.5 12.5T299 43v341l-150-64L0 384V43q0-18 12.5-30.5T43 0z"/></symbol><symbol id="hd-icon-zmdi-bookmark-outline" viewBox="0 0 304 384"><path fill="currentColor" d="M256 0q18 0 30.5 12.5T299 43v341l-150-64L0 384V43q0-18 12.5-30.5T43 0zm0 320V43H43v277l106-47z"/></symbol><symbol id="hd-icon-zmdi-border-all" viewBox="0 0 384 384"><path fill="currentColor" d="M0 0h384v384H0zm171 341V213H43v128zm0-170V43H43v128zm170 170V213H213v128zm0-170V43H213v128z"/></symbol><symbol id="hd-icon-zmdi-border-bottom" viewBox="0 0 384 384"><path fill="currentColor" d="M128 171v42H85v-42zm85 85v43h-42v-43zM128 0v43H85V0zm85 171v42h-42v-42zM43 0v43H0V0zm170 85v43h-42V85zm86 86v42h-43v-42zM213 0v43h-42V0zm86 0v43h-43V0zm42 213v-42h43v42zm0 86v-43h43v43zM43 85v43H0V85zM341 0h43v43h-43zm0 128V85h43v43zM43 171v42H0v-42zM0 384v-43h384v43zm43-128v43H0v-43z"/></symbol><symbol id="hd-icon-zmdi-border-clear" viewBox="0 0 384 384"><path fill="currentColor" d="M85 43V0h43v43zm0 170v-42h43v42zm0 171v-43h43v43zm86-85v-43h42v43zm0 85v-43h42v43zM0 384v-43h43v43zm0-85v-43h43v43zm0-86v-42h43v42zm0-85V85h43v43zm0-85V0h43v43zm171 170v-42h42v42zm170 86v-43h43v43zm0-86v-42h43v42zm0 171v-43h43v43zm0-256V85h43v43zm-170 0V85h42v43zM341 0h43v43h-43zM171 43V0h42v43zm85 341v-43h43v43zm0-171v-42h43v42zm0-170V0h43v43z"/></symbol><symbol id="hd-icon-zmdi-border-color" viewBox="0 0 512 512"><path fill="currentColor" d="M379 149L165 363H85v-80L299 69zm63-63l-42 42l-80-80l42-42q6-6 15-6t15 6l50 50q6 6 6 15t-6 15M0 427h512v85H0z"/></symbol><symbol id="hd-icon-zmdi-border-horizontal" viewBox="0 0 384 384"><path fill="currentColor" d="M0 384v-43h43v43zM43 85v43H0V85zM0 299v-43h43v43zm85 85v-43h43v43zM43 0v43H0V0zm85 0v43H85V0zm171 0v43h-43V0zm-86 85v43h-42V85zm0-85v43h-42V0zm128 299v-43h43v43zm-170 85v-43h42v43zM0 213v-42h384v42zM341 0h43v43h-43zm0 128V85h43v43zM171 299v-43h42v43zm85 85v-43h43v43zm85 0v-43h43v43z"/></symbol><symbol id="hd-icon-zmdi-border-inner" viewBox="0 0 384 384"><path fill="currentColor" d="M0 384v-43h43v43zm85 0v-43h43v43zM43 85v43H0V85zM0 299v-43h43v43zM128 0v43H85V0zM43 0v43H0V0zm256 0v43h-43V0zm42 128V85h43v43zm0-128h43v43h-43zm-85 384v-43h43v43zM213 0v171h171v42H213v171h-42V213H0v-42h171V0zm128 384v-43h43v43zm0-85v-43h43v43z"/></symbol><symbol id="hd-icon-zmdi-border-left" viewBox="0 0 384 384"><path fill="currentColor" d="M171 384v-43h42v43zm0-85v-43h42v43zm0-256V0h42v43zm0 85V85h42v43zm0 85v-42h42v42zM85 384v-43h43v43zm0-341V0h43v43zm0 170v-42h43v42zM0 384V0h43v384zm341-256V85h43v43zm-85 256v-43h43v43zm85-85v-43h43v43zm0-299h43v43h-43zm0 213v-42h43v42zm0 171v-43h43v43zm-85-171v-42h43v42zm0-170V0h43v43z"/></symbol><symbol id="hd-icon-zmdi-border-outer" viewBox="0 0 384 384"><path fill="currentColor" d="M213 85v43h-42V85zm0 86v42h-42v-42zm86 0v42h-43v-42zM0 0h384v384H0zm341 341V43H43v298zm-128-85v43h-42v-43zm-85-85v42H85v-42z"/></symbol><symbol id="hd-icon-zmdi-border-right" viewBox="0 0 384 384"><path fill="currentColor" d="M85 384v-43h43v43zM0 43V0h43v43zm85 0V0h43v43zm0 170v-42h43v42zM0 384v-43h43v43zm171 0v-43h42v43zM0 213v-42h43v42zm0 86v-43h43v43zm0-171V85h43v43zm171 171v-43h42v43zm85-86v-42h43v42zM341 0h43v384h-43zm-85 384v-43h43v43zm0-341V0h43v43zm-85 170v-42h42v42zm0-170V0h42v43zm0 85V85h42v43z"/></symbol><symbol id="hd-icon-zmdi-border-style" viewBox="0 0 384 384"><path fill="currentColor" d="M256 384v-43h43v43zm85 0v-43h43v43zm-256 0v-43h43v43zm86 0v-43h42v43zm170-85v-43h43v43zm0-86v-42h43v42zM0 0h384v43H43v341H0zm341 128V85h43v43z"/></symbol><symbol id="hd-icon-zmdi-border-top" viewBox="0 0 384 384"><path fill="currentColor" d="M85 384v-43h43v43zm0-171v-42h43v42zm86 0v-42h42v42zm0 171v-43h42v43zM0 299v-43h43v43zm0 85v-43h43v43zm0-171v-42h43v42zm0-85V85h43v43zm171 171v-43h42v43zm170-171V85h43v43zm0 85v-42h43v42zM0 0h384v43H0zm341 299v-43h43v43zm-85 85v-43h43v43zm-85-256V85h42v43zm170 256v-43h43v43zm-85-171v-42h43v42z"/></symbol><symbol id="hd-icon-zmdi-border-vertical" viewBox="0 0 384 384"><path fill="currentColor" d="M0 128V85h43v43zm0-85V0h43v43zm85 341v-43h43v43zm0-171v-42h43v42zm-85 0v-42h43v42zm0 171v-43h43v43zm0-85v-43h43v43zM85 43V0h43v43zm256 256v-43h43v43zm-170 85V0h42v384zm170 0v-43h43v43zm0-171v-42h43v42zm0-213h43v43h-43zm0 128V85h43v43zm-85-85V0h43v43zm0 341v-43h43v43zm0-171v-42h43v42z"/></symbol><symbol id="hd-icon-zmdi-brightness-2" viewBox="0 0 320 432"><path fill="currentColor" d="M107 3q88 0 150.5 62.5T320 216t-62.5 150.5T107 429q-57 0-107-28q49-29 78-78t29-107t-29-107T0 31Q50 3 107 3"/></symbol><symbol id="hd-icon-zmdi-brightness-3" viewBox="0 0 280 432"><path fill="currentColor" d="M64 3q88 0 150.5 62.5T277 216t-62.5 150.5T64 429q-33 0-64-9q66-21 107.5-77T149 216T107.5 89T0 12q31-9 64-9"/></symbol><symbol id="hd-icon-zmdi-brightness-4" viewBox="0 0 488 496"><path fill="currentColor" d="m412 177l71 71l-71 71v100H312l-71 70l-70-70H71V319L0 248l71-71V77h100l70-70l71 70h100zM241 376q53 0 90.5-37.5T369 248t-37.5-90.5T241 120q-28 0-53 12q33 15 54 46.5t21 69.5t-21 69.5t-54 46.5q25 12 53 12"/></symbol><symbol id="hd-icon-zmdi-brightness-5" viewBox="0 0 488 496"><path fill="currentColor" d="M412 319v100H312l-71 70l-70-70H71V319L0 248l71-71V77h100l70-70l71 70h100v100l71 71zm-171 57q53 0 90.5-37.5T369 248t-37.5-90.5T241 120t-90.5 37.5T113 248t37.5 90.5T241 376"/></symbol><symbol id="hd-icon-zmdi-brightness-6" viewBox="0 0 488 496"><path fill="currentColor" d="M412 319v100H312l-71 70l-70-70H71V319L0 248l71-71V77h100l70-70l71 70h100v100l71 71zm-171 57q53 0 90.5-37.5T369 248t-37.5-90.5T241 120z"/></symbol><symbol id="hd-icon-zmdi-brightness-7" viewBox="0 0 488 496"><path fill="currentColor" d="m412 177l71 71l-71 71v100H312l-71 70l-70-70H71V319L0 248l71-71V77h100l70-70l71 70h100zM241 376q53 0 90.5-37.5T369 248t-37.5-90.5T241 120t-90.5 37.5T113 248t37.5 90.5T241 376m.5-213q35.5 0 60.5 25t25 60t-25 60t-60.5 25t-60.5-25t-25-60t25-60t60.5-25"/></symbol><symbol id="hd-icon-zmdi-brightness-auto" viewBox="0 0 488 496"><path fill="currentColor" d="m217 262l24-78l25 78zm195-85l71 71l-71 71v100H312l-71 70l-70-70H71V319L0 248l71-71V77h100l70-70l71 70h100zM290 333h41l-68-192h-43l-68 192h40l15-42h68z"/></symbol><symbol id="hd-icon-zmdi-brightness-setting" viewBox="0 0 472 384"><path fill="currentColor" d="M427 0q17 0 29.5 12.5T469 43v298q0 18-12.5 30.5T427 384H43q-18 0-30.5-12.5T0 341V43q0-18 12.5-30.5T43 0zm0 342V42H43v300zm-278-65v-53l-32-32l32-32v-53h54l32-32l32 32h53v53l32 32l-32 32v53h-53l-32 32l-32-32zm86-149v128q26 0 45-18.5t19-45.5t-19-45.5t-45-18.5"/></symbol><symbol id="hd-icon-zmdi-broken-image" viewBox="0 0 384 384"><path fill="currentColor" d="M384 43v140l-64-64l-85 86l-86-86l-85 86l-64-65V43q0-18 12.5-30.5T43 0h298q18 0 30.5 12.5T384 43m-64 137l64 64v97q0 18-12.5 30.5T341 384H43q-18 0-30.5-12.5T0 341V201l64 64l85-86l86 86z"/></symbol><symbol id="hd-icon-zmdi-brush" viewBox="0 0 408 384"><path fill="currentColor" d="M106.5 235q26.5 0 45.5 18.5t19 45.5q0 35-25 60t-61 25q-24 0-47-11.5T0 341q15 0 29-11.5T43 299q0-27 18.5-45.5t45-18.5M399 35q6 6 6 15t-6 15L208 256l-59-59L340 6q7-6 15.5-6T371 6z"/></symbol><symbol id="hd-icon-zmdi-bug" viewBox="0 0 344 384"><path fill="currentColor" d="M341 107v42h-44q2 13 2 22v21h42v43h-42v21q0 9-2 21h44v43h-60q-17 29-46 46.5T171 384t-64.5-17.5T60 320H0v-43h45q-2-12-2-21v-21H0v-43h43v-21q0-9 2-22H0v-42h60q15-26 39-42L64 30L94 0l47 46q14-3 29.5-3t30.5 3l46-46l30 30l-34 35q24 16 38 42zM213 277v-42h-85v42zm0-85v-43h-85v43z"/></symbol><symbol id="hd-icon-zmdi-bus" viewBox="0 0 344 408"><path fill="currentColor" d="M0 301V88q0-27 12.5-44.5t38-26t53-11.5t67-3t67 3t53 11.5t38 26T341 88v213q0 28-21 48v38q0 8-6.5 14.5T299 408h-22q-8 0-14.5-6.5T256 387v-22H85v22q0 8-6 14.5T64 408H43q-9 0-15.5-6.5T21 387v-38Q0 329 0 301m74.5 22q13.5 0 23-9.5t9.5-23t-9.5-22.5t-23-9t-22.5 9t-9 22.5t9 23t22.5 9.5m192 0q13.5 0 23-9.5t9.5-23t-9.5-22.5t-23-9t-22.5 9t-9 22.5t9 23t22.5 9.5M299 195V88H43v107z"/></symbol><symbol id="hd-icon-zmdi-cake" viewBox="0 0 384 472"><path fill="currentColor" d="M192 128q-18 0-30.5-12.5T149 85q0-12 7-22l36-63l36 63q7 10 7 22q0 18-12.5 30.5T192 128m98 213q22 22 52 22q23 0 42-13v98q0 9-6.5 15t-14.5 6H21q-8 0-14.5-6T0 448v-98q19 13 42 13q30 0 52-22l23-23l23 23q21 21 52 21t52-21l23-23zm30-149q27 0 45.5 18.5T384 256v33q0 17-12.5 29.5T342 331t-29-12l-46-46l-46 46q-11 11-29 11t-30-11l-45-46l-46 46q-12 12-29 12t-29.5-12.5T0 289v-33q0-27 18.5-45.5T64 192h107v-43h42v43z"/></symbol><symbol id="hd-icon-zmdi-calendar" viewBox="0 0 384 432"><path fill="currentColor" d="M299 240v107H192V240zM277 5h43v43h21q18 0 30.5 12.5T384 91v298q0 18-12.5 30.5T341 432H43q-18 0-30.5-12.5T0 389V91q0-18 12.5-30.5T43 48h21V5h43v43h170zm64 384V155H43v234z"/></symbol><symbol id="hd-icon-zmdi-calendar-alt" viewBox="0 0 384 432"><path fill="currentColor" d="M341 48q18 0 30.5 12.5T384 91v298q0 18-12.5 30.5T341 432H43q-18 0-30.5-12.5T0 389V91q0-18 12.5-30.5T43 48h21V5h43v43h170V5h43v43zm0 341V155H43v234zM85 197h107v107H85z"/></symbol><symbol id="hd-icon-zmdi-calendar-check" viewBox="0 0 384 432"><path fill="currentColor" d="M289 220L162 347l-68-68l23-23l45 45l104-104zm52-172q18 0 30.5 12.5T384 91v298q0 18-12.5 30.5T341 432H43q-18 0-30.5-12.5T0 389V91q0-18 12.5-30.5T43 48h21V5h43v43h170V5h43v43zm0 341V155H43v234z"/></symbol><symbol id="hd-icon-zmdi-calendar-close" viewBox="0 0 384 432"><path fill="currentColor" d="m135 347l-23-23l52-52l-52-52l23-23l52 52l52-52l22 23l-52 52l52 52l-22 23l-52-52zM341 48q18 0 30.5 12.5T384 91v298q0 18-12.5 30.5T341 432H43q-18 0-30.5-12.5T0 389V91q0-18 12.5-30.5T43 48h21V5h43v43h170V5h43v43zm0 341V155H43v234z"/></symbol><symbol id="hd-icon-zmdi-calendar-note" viewBox="0 0 384 432"><path fill="currentColor" d="M299 197v43H85v-43zm42-149q18 0 30.5 12.5T384 91v298q0 18-12.5 30.5T341 432H43q-18 0-30.5-12.5T0 389V91q0-18 12.5-30.5T43 48h21V5h43v43h170V5h43v43zm0 341V155H43v234zM235 283v42H85v-42z"/></symbol><symbol id="hd-icon-zmdi-camera" viewBox="0 0 432 408"><path fill="currentColor" d="M145 216q0-68 68.5-68t68.5 68t-68.5 68t-68.5-68m4-213h128l39 42h68q18 0 30.5 12.5T427 88v256q0 18-12.5 30.5T384 387H43q-18 0-30.5-12.5T0 344V88q0-18 12.5-30.5T43 45h67zm64 320q44 0 75.5-31.5T320 216t-31.5-75.5T213 109t-75 31.5t-31 75.5t31 75.5t75 31.5"/></symbol><symbol id="hd-icon-zmdi-camera-add" viewBox="0 0 432 384"><path fill="currentColor" d="M149 0h128l39 43h68q18 0 30.5 12.5T427 85v256q0 18-12.5 30.5T384 384H43q-18 0-30.5-12.5T0 341V85q0-17 12.5-29.5T43 43h67zm64 320q44 0 75.5-31.5T320 213t-31.5-75t-75.5-31t-75 31t-31 75t31 75.5t75 31.5m0-21l-26-59l-59-27l59-26l26-59l27 59l59 26l-59 27z"/></symbol><symbol id="hd-icon-zmdi-camera-alt" viewBox="0 0 432 432"><path fill="currentColor" d="m158 184l-1 2L79 51Q137 3 213 3q23 0 47 5zm259-32H211l78-135q46 17 79.5 52.5T417 152m5 21q5 22 5 43q0 83-57 144L269 184l-6-11zm-282 43l24 43H4q-4-22-4-43q0-82 56-144zM10 280h206l-78 135q-46-17-79.5-52.5T10 280m240 0l20-34l78 135q-59 48-135 48q-22 0-46-5z"/></symbol><symbol id="hd-icon-zmdi-camera-bw" viewBox="0 0 432 384"><path fill="currentColor" d="M384 43q18 0 30.5 12.5T427 85v256q0 18-12.5 30.5T384 384H43q-18 0-30.5-12.5T0 341V85q0-17 12.5-29.5T43 43h68l38-43h128l39 43zm0 298V85H213v22q-44 0-75 31t-31 75.5t31 75.5t75 31v21zm-64-127.5q0 44.5-31 75.5t-76 31v-38q29 0 49-20t20-48.5t-20-48.5t-49-20v-38q45 0 76 31t31 75.5m-175 0q0-28.5 20-48.5t48-20v137q-28 0-48-20t-20-48.5"/></symbol><symbol id="hd-icon-zmdi-camera-front" viewBox="0 0 304 512"><path fill="currentColor" d="M107 427v-43l64 64l-64 64v-43H0v-42zm85 0h107v42H192zm-42.5-256q-17.5 0-30-12.5T107 128t12.5-30.5t30-12.5t30 12.5T192 128t-12.5 30.5t-30 12.5M256 0q18 0 30.5 12.5T299 43v298q0 18-12.5 30.5T256 384H43q-18 0-30.5-12.5T0 341V43q0-18 12.5-30.5T43 0zM43 43v224q0-24 36.5-39t70-15t70 15t36.5 39V43z"/></symbol><symbol id="hd-icon-zmdi-camera-mic" viewBox="0 0 432 384"><path fill="currentColor" d="M384 43q18 0 30.5 12.5T427 85v256q0 18-12.5 30.5T384 384H235v-45q45-7 75.5-43t30.5-83h-42q0 36-25 61t-60.5 25t-60.5-25t-25-61H85q0 47 30.5 83t76.5 43v45H43q-18 0-30.5-12.5T0 341V85q0-17 12.5-29.5T43 43h67l39-43h128l39 43zM256 213v-85q0-18-12.5-30.5t-30-12.5t-30 12.5T171 128v85q0 18 12.5 30.5t30 12.5t30-12.5T256 213"/></symbol><symbol id="hd-icon-zmdi-camera-party-mode" viewBox="0 0 432 408"><path fill="currentColor" d="M384 45q18 0 30.5 12.5T427 88v256q0 18-12.5 30.5T384 387H43q-18 0-30.5-12.5T0 344V88q0-18 12.5-30.5T43 45h67l39-42h128l39 42zm-171 64q-44 0-75 31.5T107 216q0 10 2 21h44q-4-10-4-21q0-27 19-45.5t45-18.5h85q-32-43-85-43m0 214q44 0 75.5-31.5T320 216q0-12-2-21h-45q4 10 4 21q0 27-18.5 45.5T213 280h-85q33 43 85 43"/></symbol><symbol id="hd-icon-zmdi-camera-rear" viewBox="0 0 304 512"><path fill="currentColor" d="M107 427v-43l64 64l-64 64v-43H0v-42zm85 0h107v42H192zM256 0q18 0 30.5 12.5T299 43v298q0 18-12.5 30.5T256 384H43q-18 0-30.5-12.5T0 341V43q0-18 12.5-30.5T43 0zM149.5 128q17.5 0 30-12.5t12.5-30t-12.5-30t-30-12.5t-30 12.5t-12.5 30t12.5 30t30 12.5"/></symbol><symbol id="hd-icon-zmdi-camera-roll" viewBox="0 0 432 456"><path fill="currentColor" d="M256 91h171v320H256q0 17-12.5 29.5T213 453H43q-18 0-30.5-12.5T0 411V91q0-18 12.5-30.5T43 48h21V27q0-9 6.5-15.5T85 5h86q8 0 14.5 6.5T192 27v21h21q18 0 30.5 12.5T256 91m-43 277v-43h-42v43zm0-192v-43h-42v43zm86 192v-43h-43v43zm0-192v-43h-43v43zm85 192v-43h-43v43zm0-192v-43h-43v43z"/></symbol><symbol id="hd-icon-zmdi-camera-switch" viewBox="0 0 432 408"><path fill="currentColor" d="M384 45q18 0 30.5 12.5T427 88v256q0 18-12.5 30.5T384 387H43q-18 0-30.5-12.5T0 344V88q0-18 12.5-30.5T43 45h67l39-42h128l39 42zM277 291l75-75l-75-75v54H149v-54l-74 75l74 75v-54h128z"/></symbol><symbol id="hd-icon-zmdi-car" viewBox="0 0 384 384"><path fill="currentColor" d="m340 64l44 128v171q0 8-6.5 14.5T363 384h-22q-8 0-14.5-6.5T320 363v-22H64v22q0 8-6.5 14.5T43 384H21q-8 0-14.5-6.5T0 363V192L44 64q8-21 31-21h234q23 0 31 21M74.5 277q13.5 0 23-9t9.5-22.5t-9.5-23t-23-9.5t-22.5 9.5t-9 23t9 22.5t22.5 9m235 0q13.5 0 22.5-9t9-22.5t-9-23t-22.5-9.5t-23 9.5t-9.5 23t9.5 22.5t23 9M43 171h298l-32-96H75z"/></symbol><symbol id="hd-icon-zmdi-car-taxi" viewBox="0 0 384 384"><path fill="currentColor" d="m340 64l44 128v171q0 8-6.5 14.5T363 384h-22q-8 0-14.5-6.5T320 363v-22H64v22q0 8-6.5 14.5T43 384H21q-8 0-14.5-6.5T0 363V192L44 64q8-21 31-21h53V0h128v43h53q23 0 31 21M74.5 277q13.5 0 23-9t9.5-22.5t-9.5-23t-23-9.5t-22.5 9.5t-9 23t9 22.5t22.5 9m235 0q13.5 0 22.5-9t9-22.5t-9-23t-22.5-9.5t-23 9.5t-9.5 23t9.5 22.5t23 9M43 171h298l-32-96H75z"/></symbol><symbol id="hd-icon-zmdi-car-wash" viewBox="0 0 384 480"><path fill="currentColor" d="M298.5 91Q285 91 276 81.5T267 59q0-10 8-24.5T291 11l8-10q32 36 32 58q0 13-9.5 22.5t-23 9.5M192 91q-13 0-22.5-9.5T160 59q0-10 8-24.5T184 11l8-10q32 36 32 58q0 13-9.5 22.5T192 91M85.5 91q-13.5 0-23-9.5T53 59q0-10 8-24.5T77 11l8-10q32 36 32 58q0 13-9 22.5T85.5 91M340 155l44 128v170q0 9-6.5 15.5T363 475h-22q-8 0-14.5-6.5T320 453v-21H64v21q0 9-6.5 15.5T43 475H21q-8 0-14.5-6.5T0 453V283l44-128q8-22 31-22h234q23 0 31 22M74.5 368q13.5 0 23-9.5T107 336t-9.5-22.5t-23-9.5t-22.5 9.5t-9 22.5t9 22.5t22.5 9.5m235 0q13.5 0 22.5-9.5t9-22.5t-9-22.5t-22.5-9.5t-23 9.5T277 336t9.5 22.5t23 9.5M43 261h298l-32-96H75z"/></symbol><symbol id="hd-icon-zmdi-card" viewBox="0 0 432 384"><path fill="currentColor" d="M384 21q18 0 30.5 12.5T427 64v256q0 18-12.5 30.5T384 363H43q-18 0-30.5-12.5T0 320V64q0-18 12.5-30.5T43 21zm0 299V192H43v128zm0-213V64H43v43z"/></symbol><symbol id="hd-icon-zmdi-card-alert" viewBox="0 0 344 432"><path fill="currentColor" d="M299 3q17 0 29.5 12.5T341 45v342q0 17-12.5 29.5T299 429H43q-18 0-30.5-12.5T0 387V131L128 3zM192 323v-43h-43v43zm0-86V131h-43v106z"/></symbol><symbol id="hd-icon-zmdi-card-giftcard" viewBox="0 0 432 408"><path fill="currentColor" d="M384 88q18 0 30.5 12.5T427 131v234q0 18-12.5 30.5T384 408H43q-18 0-30.5-12.5T0 365V131q0-18 12.5-30.5T43 88h46q-4-11-4-21q0-27 19-45.5T149 3q34 0 54 28l10 15l11-15q19-28 53-28q27 0 45.5 18.5T341 67q0 10-4 21zM277.5 45q-8.5 0-15 6.5t-6.5 15t6.5 15t15 6.5t15-6.5t6.5-15t-6.5-15t-15-6.5m-128 0q-8.5 0-15 6.5t-6.5 15t6.5 15t15 6.5t15-6.5t6.5-15t-6.5-15t-15-6.5M384 365v-42H43v42zm0-106V131H276l44 60l-35 25l-50-69l-22-29l-21 29l-51 69l-34-25l44-60H43v128z"/></symbol><symbol id="hd-icon-zmdi-card-membership" viewBox="0 0 432 432"><path fill="currentColor" d="M384 3q18 0 30.5 12.5T427 45v235q0 18-12.5 30.5T384 323h-85v106l-86-42l-85 42V323H43q-18 0-30.5-12.5T0 280V45q0-17 12.5-29.5T43 3zm0 277v-43H43v43zm0-107V45H43v128z"/></symbol><symbol id="hd-icon-zmdi-card-off" viewBox="0 0 400 424"><path fill="currentColor" d="m354 43l1 249L113 50l50-50h149q17 0 29.5 12.5T354 43M27 19l373 372l-27 28l-40-41q-10 6-21 6H99q-18 0-30.5-12.5T56 341V102L0 46z"/></symbol><symbol id="hd-icon-zmdi-card-sd" viewBox="0 0 344 432"><path fill="currentColor" d="M299 3q17 0 29.5 12.5T341 45v342q0 17-12.5 29.5T299 429H43q-18 0-30.5-12.5T0 387V131L128 3zM171 131V45h-43v86zm64 0V45h-43v86zm64 0V45h-43v86z"/></symbol><symbol id="hd-icon-zmdi-card-sim" viewBox="0 0 344 432"><path fill="currentColor" d="M341 45v342q0 17-12.5 29.5T299 429H43q-18 0-30.5-12.5T0 387V131L128 3h171q17 0 29.5 12.5T341 45M107 365v-42H64v42zm170 0v-42h-42v42zm-170-85v-85H64v85zm85 85v-85h-43v85zm0-128v-42h-43v42zm85 43v-85h-42v85z"/></symbol><symbol id="hd-icon-zmdi-card-travel" viewBox="0 0 432 408"><path fill="currentColor" d="M384 88q18 0 30.5 12.5T427 131v234q0 18-12.5 30.5T384 408H43q-18 0-30.5-12.5T0 365V131q0-18 12.5-30.5T43 88h64V45q0-17 12.5-29.5T149 3h128q18 0 30.5 12.5T320 45v43zM149 45v43h128V45zm235 320v-42H43v42zm0-106V131h-64v42h-43v-42H149v42h-42v-42H43v128z"/></symbol><symbol id="hd-icon-zmdi-caret-down" viewBox="0 0 216 384"><path fill="currentColor" d="M0 139h213L107 245z"/></symbol><symbol id="hd-icon-zmdi-caret-down-circle" viewBox="0 0 432 432"><path fill="currentColor" d="M213.5 3q88.5 0 151 62.5T427 216t-62.5 150.5t-151 62.5t-151-62.5T0 216T62.5 65.5T213.5 3M107 173l106 107l107-107z"/></symbol><symbol id="hd-icon-zmdi-caret-left" viewBox="0 0 112 384"><path fill="currentColor" d="M107 85v214L0 192z"/></symbol><symbol id="hd-icon-zmdi-caret-left-circle" viewBox="0 0 432 432"><path fill="currentColor" d="M213.5 3q88.5 0 151 62.5T427 216t-62.5 150.5t-151 62.5t-151-62.5T0 216T62.5 65.5T213.5 3M256 109L149 216l107 107z"/></symbol><symbol id="hd-icon-zmdi-caret-right" viewBox="0 0 112 384"><path fill="currentColor" d="M0 299V85l107 107z"/></symbol><symbol id="hd-icon-zmdi-caret-right-circle" viewBox="0 0 432 432"><path fill="currentColor" d="M213.5 3q88.5 0 151 62.5T427 216t-62.5 150.5t-151 62.5t-151-62.5T0 216T62.5 65.5T213.5 3M171 109v214l106-107z"/></symbol><symbol id="hd-icon-zmdi-caret-up" viewBox="0 0 216 384"><path fill="currentColor" d="M213 245H0l107-106z"/></symbol><symbol id="hd-icon-zmdi-caret-up-circle" viewBox="0 0 432 432"><path fill="currentColor" d="M213.5 3q88.5 0 151 62.5T427 216t-62.5 150.5t-151 62.5t-151-62.5T0 216T62.5 65.5T213.5 3m-.5 145L107 254h213z"/></symbol><symbol id="hd-icon-zmdi-case" viewBox="0 0 432 408"><path fill="currentColor" d="M384 88q18 0 30.5 12.5T427 131v234q0 18-12.5 30.5T384 408H43q-18 0-30.5-12.5T0 365V131q0-18 12.5-30.5T43 88h85V45q0-17 12.5-29.5T171 3h85q18 0 30.5 12.5T299 45v43zm-128 0V45h-85v43z"/></symbol><symbol id="hd-icon-zmdi-case-check" viewBox="0 0 432 416"><path fill="currentColor" d="M384 91q18 0 30.5 12.5T427 133v235q0 18-12.5 30.5T384 411H43q-18 0-30.5-12.5T0 368V133q0-17 12.5-29.5T43 91h85V48l43-43h85l43 43v43zM171 48v43h85V48zm10 288l141-141l-30-30l-111 111l-44-45l-30 30z"/></symbol><symbol id="hd-icon-zmdi-case-download" viewBox="0 0 432 416"><path fill="currentColor" d="M384 91q18 0 30.5 12.5T427 133v235q0 18-12.5 30.5T384 411H43q-18 0-30.5-12.5T0 368V133q0-17 12.5-29.5T43 91h85V48l43-43h85l43 43v43zM171 48v43h85V48zm42 320l107-107h-64v-85h-85v85h-64z"/></symbol><symbol id="hd-icon-zmdi-case-play" viewBox="0 0 432 408"><path fill="currentColor" d="M299 88h128v277q0 18-12.5 30.5T384 408H43q-18 0-30.5-12.5T0 365V88h128V45q0-17 12.5-29.5T171 3h85q18 0 30.5 12.5T299 45zM171 45v43h85V45zm-22 299l160-107l-160-85z"/></symbol><symbol id="hd-icon-zmdi-cast" viewBox="0 0 472 384"><path fill="currentColor" d="M427 0q17 0 29.5 12.5T469 43v298q0 18-12.5 30.5T427 384H277v-43h150V43H43v64H0V43q0-18 12.5-30.5T43 0zM0 320q27 0 45.5 18.5T64 384H0zm0-85q62 0 105.5 43.5T149 384h-42q0-44-31.5-75.5T0 277zm0-86q97 0 166 69t69 166h-43q0-80-56-136T0 192z"/></symbol><symbol id="hd-icon-zmdi-cast-connected" viewBox="0 0 472 384"><path fill="currentColor" d="M0 320q27 0 45.5 18.5T64 384H0zm0-85q62 0 105.5 43.5T149 384h-42q0-44-31.5-75.5T0 277zM384 85v214H264q-21-64-68-111T85 120V85zM0 149q97 0 166 69t69 166h-43q0-80-56-136T0 192zM427 0q17 0 29.5 12.5T469 43v298q0 18-12.5 30.5T427 384H277v-43h150V43H43v64H0V43q0-18 12.5-30.5T43 0z"/></symbol><symbol id="hd-icon-zmdi-center-focus-strong" viewBox="0 0 384 384"><path fill="currentColor" d="M192 107q35 0 60 25t25 60t-25 60t-60 25t-60-25t-25-60t25-60t60-25M43 256v85h85v43H43q-18 0-30.5-12.5T0 341v-85zm0-213v85H0V43q0-18 12.5-30.5T43 0h85v43zM341 0q18 0 30.5 12.5T384 43v85h-43V43h-85V0zm0 341v-85h43v85q0 18-12.5 30.5T341 384h-85v-43z"/></symbol><symbol id="hd-icon-zmdi-center-focus-weak" viewBox="0 0 384 384"><path fill="currentColor" d="M43 256v85h85v43H43q-18 0-30.5-12.5T0 341v-85zm0-213v85H0V43q0-18 12.5-30.5T43 0h85v43zM341 0q18 0 30.5 12.5T384 43v85h-43V43h-85V0zm0 341v-85h43v85q0 18-12.5 30.5T341 384h-85v-43zM192 107q35 0 60 25t25 60t-25 60t-60 25t-60-25t-25-60t25-60t60-25m0 128q18 0 30.5-12.5T235 192t-12.5-30.5T192 149t-30.5 12.5T149 192t12.5 30.5T192 235"/></symbol><symbol id="hd-icon-zmdi-chart" viewBox="0 0 384 384"><path fill="currentColor" d="M341 0q18 0 30.5 12.5T384 43v298q0 18-12.5 30.5T341 384H43q-18 0-30.5-12.5T0 341V43q0-18 12.5-30.5T43 0zM128 299V149H85v150zm85 0V85h-42v214zm86 0v-86h-43v86z"/></symbol><symbol id="hd-icon-zmdi-chart-donut" viewBox="0 0 432 432"><path fill="currentColor" d="M235 4q81 8 136.5 68.5T427 216q0 45-19 87l-56-33q11-27 11-54q0-56-37-98t-91-50zm-22 361q72 0 117-56l55 33q-30 41-75 64t-97 23q-88 0-150.5-62.5T0 216q0-83 55.5-143.5T192 4v64q-55 8-91.5 50T64 216q0 62 43.5 105.5T213 365"/></symbol><symbol id="hd-icon-zmdi-check" viewBox="0 0 376 384"><path fill="currentColor" d="M119 282L346 55l29 30l-256 256L0 222l30-30z"/></symbol><symbol id="hd-icon-zmdi-check-all" viewBox="0 0 496 384"><path fill="currentColor" d="M375 85L240 221l-30-30L345 55zm91-30l30 30l-256 256l-119-119l30-30l89 89zM0 222l30-30l119 119l-30 30z"/></symbol><symbol id="hd-icon-zmdi-check-circle" viewBox="0 0 432 432"><path fill="currentColor" d="M213.5 3q88.5 0 151 62.5T427 216t-62.5 150.5t-151 62.5t-151-62.5T0 216T62.5 65.5T213.5 3M171 323l192-192l-30-31l-162 162l-77-76l-30 30z"/></symbol><symbol id="hd-icon-zmdi-check-circle-u" viewBox="0 0 432 432"><path fill="currentColor" d="M213 3q88 0 151 62.5T427 216t-63 150.5T213 429T62.5 366.5T0 216T62.5 65.5T213 3m107 341v-43H107v43zm-143-85l143-143l-30-30l-113 113l-40-41l-30 30z"/></symbol><symbol id="hd-icon-zmdi-check-square" viewBox="0 0 384 384"><path fill="currentColor" d="M341 0q18 0 30.5 12.5T384 43v298q0 18-12.5 30.5T341 384H43q-18 0-30.5-12.5T0 341V43q0-18 12.5-30.5T43 0zM149 299l192-192l-30-31l-162 162l-76-76l-30 30z"/></symbol><symbol id="hd-icon-zmdi-chevron-down" viewBox="0 0 256 384"><path fill="currentColor" d="m226 119l30 30l-128 128L0 149l30-30l98 98z"/></symbol><symbol id="hd-icon-zmdi-chevron-left" viewBox="0 0 160 384"><path fill="currentColor" d="m158 94l-98 98l98 98l-30 30L0 192L128 64z"/></symbol><symbol id="hd-icon-zmdi-chevron-right" viewBox="0 0 160 384"><path fill="currentColor" d="m30 64l128 128L30 320L0 290l98-98L0 94z"/></symbol><symbol id="hd-icon-zmdi-chevron-up" viewBox="0 0 256 384"><path fill="currentColor" d="m128 107l128 128l-30 30l-98-98l-98 98l-30-30z"/></symbol><symbol id="hd-icon-zmdi-circle" viewBox="0 0 432 432"><path fill="currentColor" d="M213.5 3q88.5 0 151 62.5T427 216t-62.5 150.5t-151 62.5t-151-62.5T0 216T62.5 65.5T213.5 3"/></symbol><symbol id="hd-icon-zmdi-circle-o" viewBox="0 0 432 432"><path fill="currentColor" d="M213.5 3q88.5 0 151 62.5T427 216t-62.5 150.5t-151 62.5t-151-62.5T0 216T62.5 65.5T213.5 3m0 384q70.5 0 120.5-50t50-121t-50-121t-120.5-50T93 95T43 216t50 121t120.5 50"/></symbol><symbol id="hd-icon-zmdi-city" viewBox="0 0 384 408"><path fill="currentColor" d="M256 195h128v213H0V109h128V67l64-64l64 64zM85 365v-42H43v42zm0-85v-43H43v43zm0-85v-43H43v43zm128 170v-42h-42v42zm0-85v-43h-42v43zm0-85v-43h-42v43zm0-86V67h-42v42zm128 256v-42h-42v42zm0-85v-43h-42v43z"/></symbol><symbol id="hd-icon-zmdi-city-alt" viewBox="0 0 432 384"><path fill="currentColor" d="M213 85h214v299H0V0h213zM85 341v-42H43v42zm0-85v-43H43v43zm0-85v-43H43v43zm0-86V43H43v42zm86 256v-42h-43v42zm0-85v-43h-43v43zm0-85v-43h-43v43zm0-86V43h-43v42zm213 256V128H213v43h43v42h-43v43h43v43h-43v42zm-43-170v42h-42v-42zm0 85v43h-42v-43z"/></symbol><symbol id="hd-icon-zmdi-close" viewBox="0 0 304 384"><path fill="currentColor" d="M299 73L179 192l120 119l-30 30l-120-119L30 341L0 311l119-119L0 73l30-30l119 119L269 43z"/></symbol><symbol id="hd-icon-zmdi-close-circle" viewBox="0 0 432 432"><path fill="currentColor" d="M213.5 3q88.5 0 151 62.5T427 216t-62.5 150.5t-151 62.5t-151-62.5T0 216T62.5 65.5T213.5 3M320 293l-77-77l77-77l-30-30l-77 77l-76-77l-30 30l76 77l-76 77l30 30l76-77l77 77z"/></symbol><symbol id="hd-icon-zmdi-close-circle-o" viewBox="0 0 432 432"><path fill="currentColor" d="m269 131l30 30l-56 55l56 55l-30 30l-56-55l-55 55l-30-30l55-55l-55-55l30-30l55 55zM213.5 3q88.5 0 151 62.5T427 216t-62.5 150.5t-151 62.5t-151-62.5T0 216T62.5 65.5T213.5 3m0 384q70.5 0 120.5-50t50-121t-50-121t-120.5-50T93 95T43 216t50 121t120.5 50"/></symbol><symbol id="hd-icon-zmdi-closed-caption" viewBox="0 0 384 384"><path fill="currentColor" d="M341 21q18 0 30.5 12.5T384 64v256q0 18-12.5 30.5T341 363H43q-18 0-30.5-12.5T0 320V64q0-18 12.5-30.5T43 21zM171 171v-22q0-8-6.5-14.5T149 128H85q-8 0-14.5 6.5T64 149v86q0 8 6.5 14.5T85 256h64q9 0 15.5-6.5T171 235v-22h-32v11H96v-64h43v11zm149 0v-22q0-8-6.5-14.5T299 128h-64q-9 0-15.5 6.5T213 149v86q0 8 6.5 14.5T235 256h64q8 0 14.5-6.5T320 235v-22h-32v11h-43v-64h43v11z"/></symbol><symbol id="hd-icon-zmdi-cloud" viewBox="0 0 512 384"><path fill="currentColor" d="M413 150q42 3 70.5 33.5T512 256q0 44-31.5 75.5T405 363H128q-53 0-90.5-37.5T0 235q0-50 33-86t81-41q20-40 58-63.5T256 21q58 0 102 37t55 92"/></symbol><symbol id="hd-icon-zmdi-cloud-box" viewBox="0 0 472 384"><path fill="currentColor" d="M171 277q-27 0-45.5-18.5T107 213q0-24 16.5-42.5T164 150h3q9-20 27.5-31.5T235 107q28 0 48.5 18t24.5 46h1q22 0 38 15.5t16 37.5t-16 37.5t-38 15.5zM427 0q17 0 29.5 12.5T469 43v298q0 18-12.5 30.5T427 384H43q-18 0-30.5-12.5T0 341V43q0-18 12.5-30.5T43 0zm0 342V42H43v300z"/></symbol><symbol id="hd-icon-zmdi-cloud-circle" viewBox="0 0 432 432"><path fill="currentColor" d="M213.5 3q88.5 0 151 62.5T427 216t-62.5 150.5t-151 62.5t-151-62.5T0 216T62.5 65.5T213.5 3M309 301q22 0 38-15.5t16-37.5t-16-37.5t-38-15.5h-10q0-36-25-61t-61-25q-29 0-52 18.5T131 174l-3-1q-27 0-45.5 19T64 237.5t18.5 45T128 301z"/></symbol><symbol id="hd-icon-zmdi-cloud-done" viewBox="0 0 512 384"><path fill="currentColor" d="M413 150q42 3 70.5 33.5T512 256q0 44-31.5 75.5T405 363H128q-53 0-90.5-37.5T0 235q0-50 33-86t81-41q20-40 58-63.5T256 21q58 0 102 37t55 92M213 299l141-141l-30-30l-111 110l-44-44l-30 30z"/></symbol><symbol id="hd-icon-zmdi-cloud-download" viewBox="0 0 512 384"><path fill="currentColor" d="M413 150q42 3 70.5 33.5T512 256q0 44-31.5 75.5T405 363H128q-53 0-90.5-37.5T0 235q0-50 33-86t81-41q20-40 58-63.5T256 21q58 0 102 37t55 92m-50 63h-64v-85h-86v85h-64l107 107z"/></symbol><symbol id="hd-icon-zmdi-cloud-off" viewBox="0 0 512 408"><path fill="currentColor" d="M413 150q42 3 70.5 33.5T512 256q0 55-45 87l-31-31q33-19 33-56q0-27-18.5-45.5T405 192h-32v-11q0-48-34-82.5T256 64q-29 0-54 13l-32-31q40-25 86-25q58 0 102 37t55 92M64 48l27-27l357 357l-27 27l-43-42H128q-53 0-90.5-37.5T0 235q0-52 35.5-89t87.5-39zm101 101h-37q-35 0-60 25t-25 60.5T68 295t60 25h208z"/></symbol><symbol id="hd-icon-zmdi-cloud-outline" viewBox="0 0 512 384"><path fill="currentColor" d="M413 150q42 3 70.5 33.5T512 256q0 44-31.5 75.5T405 363H128q-53 0-90.5-37.5T0 235q0-50 33-86t81-41q20-40 58-63.5T256 21q58 0 102 37t55 92m-8 170q27 0 45.5-18.5T469 256t-18.5-45.5T405 192h-32v-11q0-48-34-82.5T256 64q-40 0-71 24t-42 61h-15q-35 0-60 25t-25 60.5T68 295t60 25z"/></symbol><symbol id="hd-icon-zmdi-cloud-outline-alt" viewBox="0 0 512 384"><path fill="currentColor" d="M413 150q42 3 70.5 33.5T512 256q0 44-31.5 75.5T405 363H128q-53 0-90.5-37.5T0 235q0-50 33-86t81-41q21-40 59-63.5T256 21q58 0 102 37t55 92m-8 170q27 0 45.5-19t18.5-45t-18.5-45t-45.5-19h-32v-11q0-48-34.5-82.5T256 64q-58 0-94 47q41 12 67.5 46t26.5 78h-43q0-36-25-61t-60-25t-60 25t-25 60.5T68 295t60 25z"/></symbol><symbol id="hd-icon-zmdi-cloud-upload" viewBox="0 0 512 384"><path fill="currentColor" d="M413 150q42 3 70.5 33.5T512 256q0 44-31.5 75.5T405 363H128q-53 0-90.5-37.5T0 235q0-50 33-86t81-41q20-40 58-63.5T256 21q58 0 102 37t55 92m-114 63h64L256 107L149 213h64v86h86z"/></symbol><symbol id="hd-icon-zmdi-cocktail" viewBox="0 0 384 384"><path fill="currentColor" d="M171 213L0 43V0h384v43L213 213v128h107v43H64v-43h107zM96 85h192l43-42H53z"/></symbol><symbol id="hd-icon-zmdi-code" viewBox="0 0 432 384"><path fill="currentColor" d="m158 290l-30 30L0 192L128 64l30 30l-98 98zm111 0l98-98l-98-98l30-30l128 128l-128 128z"/></symbol><symbol id="hd-icon-zmdi-code-setting" viewBox="0 0 480 384"><path fill="currentColor" d="M148 80L55 192l93 112l-33 27L0 192L115 53zm-16 133v-42h43v42zm213-42v42h-42v-42zm-128 42v-42h43v42zM362 53l115 139l-115 139l-33-27l93-112l-93-112z"/></symbol><symbol id="hd-icon-zmdi-code-smartphone" viewBox="0 0 344 480"><path fill="currentColor" d="M64 91v42H21V48q0-18 12.5-30.5T64 5l213 1q18 0 30.5 12T320 48v85h-43V91zm179 247l-30-30l68-68l-68-68l30-30l98 98zm-115-30l-30 30l-98-98l98-98l30 30l-68 68zm149 81v-42h43v85q0 18-12.5 30.5T277 475H64q-18 0-30.5-12.5T21 432v-85h43v42z"/></symbol><symbol id="hd-icon-zmdi-codepen" viewBox="0 0 432 432"><path fill="currentColor" d="M390 247v-62l-46 31zM232 377l143-96l-64-43l-79 53zm-19-118l65-43l-65-43l-65 43zm-18 118v-86l-80-53l-64 43zM37 185v62l46-31zM195 55L51 151l64 43l80-53zm37 0v86l79 53l64-43zm195 94v135q0 1-1 2v1q-1 0-1 1v1l-1 1v1l-.5.5l-.5.5q0 1-1 1l-1 1l-1 1l-1 1l-195 130q-5 3-10.5 3t-10.5-3L8 296H7v-1l-1-.5l-1-.5v-1H4v-1l-1-1v-1H2v-1l-1-1v-2q-1-1-1-2V148q0-1 1-2v-2l1-1v-1l1-1l.5-.5l.5-.5v-1q1 0 1-.5v-.5h.5l.5-1h1l1-1L203 6q10-7 21 0l195 130l1 1h1v1q1 0 1 1q1 0 1 .5v.5l1 1v1q1 0 1 1v1l1 1v1q1 1 1 2z"/></symbol><symbol id="hd-icon-zmdi-coffee" viewBox="0 0 432 384"><path fill="currentColor" d="M384 0q18 0 30.5 12.5T427 43v64q0 17-12.5 29.5T384 149h-43v64q0 36-25 61t-60 25H128q-35 0-60-25t-25-61V0zm0 107V43h-43v64zM0 384v-43h384v43z"/></symbol><symbol id="hd-icon-zmdi-collection-bookmark" viewBox="0 0 432 432"><path fill="currentColor" d="M43 88v299h298v42H43q-18 0-30.5-12.5T0 387V88zM384 3q18 0 30.5 12.5T427 45v256q0 18-12.5 30.5T384 344H128q-18 0-30.5-12.5T85 301V45q0-17 12.5-29.5T128 3zm0 213V45H277v171l54-32z"/></symbol><symbol id="hd-icon-zmdi-collection-case-play" viewBox="0 0 472 456"><path fill="currentColor" d="M43 176v235h341q0 17-12.5 29.5T341 453H43q-18 0-30.5-12.5T0 411V176zm320-85h106v234q0 18-12.5 30.5T427 368H128q-18 0-30.5-12.5T85 325V91h107V48q0-18 12.5-30.5T235 5h85q18 0 30.5 12.5T363 48zM235 48v43h85V48zm0 256l117-85l-117-64z"/></symbol><symbol id="hd-icon-zmdi-collection-folder-image" viewBox="0 0 512 432"><path fill="currentColor" d="M43 88v299h384v42H43q-18 0-30.5-12.5T0 387V88zm426-43q18 0 30.5 12.5T512 88v213q0 18-12.5 30.5T469 344H128q-18 0-30.5-12.5T85 301l1-256q0-17 12-29.5T128 3h128l43 42zM149 280h299l-75-96l-53 64l-75-96z"/></symbol><symbol id="hd-icon-zmdi-collection-image" viewBox="0 0 432 432"><path fill="currentColor" d="M427 301q0 18-12.5 30.5T384 344H128q-18 0-30.5-12.5T85 301V45q0-17 12.5-29.5T128 3h256q18 0 30.5 12.5T427 45zm-235-85l-64 85h256l-85-106l-64 79zM0 88h43v299h298v42H43q-18 0-30.5-12.5T0 387z"/></symbol><symbol id="hd-icon-zmdi-collection-image-o" viewBox="0 0 472 480"><path fill="currentColor" d="m319 204l76 100H160l59-75l41 50zM43 91v341h341v43H43q-18 0-30.5-12.5T0 432V91zM427 5q17 0 29.5 12.5T469 48v299q0 17-12.5 29.5T427 389H128q-18 0-30.5-12.5T85 347V48q0-18 12.5-30.5T128 5zm0 342V48H128v299z"/></symbol><symbol id="hd-icon-zmdi-collection-item" viewBox="0 0 472 480"><path fill="currentColor" d="M43 91v341h341v43H43q-18 0-30.5-12.5T0 432V91zM427 5q17 0 29.5 12.5T469 48v299q0 17-12.5 29.5T427 389H128q-18 0-30.5-12.5T85 347V48q0-18 12.5-30.5T128 5zm0 342V48H128v299z"/></symbol><symbol id="hd-icon-zmdi-collection-item-1" viewBox="0 0 472 480"><path fill="currentColor" d="M43 91v341h341v43H43q-18 0-30.5-12.5T0 432V91zm234 213V133h-42V91h85v213zM427 5q17 0 29.5 12.5T469 48v299q0 17-12.5 29.5T427 389H128q-18 0-30.5-12.5T85 347V48q0-18 12.5-30.5T128 5zm0 342V48H128v299z"/></symbol></svg>