<svg xmlns="http://www.w3.org/2000/svg" xmlns:xlink="http://www.w3.org/1999/xlink"><symbol id="hd-icon-carbon-send-alt" viewBox="0 0 32 32"><path fill="currentColor" d="M27.71 4.29a1 1 0 0 0-1.05-.23l-22 8a1 1 0 0 0 0 1.87l9.6 3.84l3.84 9.6a1 1 0 0 0 .9.63a1 1 0 0 0 .92-.66l8-22a1 1 0 0 0-.21-1.05M19 24.2l-2.79-7L21 12.41L19.59 11l-4.83 4.83L7.8 13l17.53-6.33Z"/></symbol><symbol id="hd-icon-carbon-send-alt-filled" viewBox="0 0 32 32"><path fill="currentColor" d="M27.71 4.29a1 1 0 0 0-1.05-.23l-22 8a1 1 0 0 0 0 1.87l8.59 3.43L19.59 11L21 12.41l-6.37 6.37l3.44 8.59A1 1 0 0 0 19 28a1 1 0 0 0 .92-.66l8-22a1 1 0 0 0-.21-1.05"/></symbol><symbol id="hd-icon-carbon-send-backward" viewBox="0 0 32 32"><path fill="currentColor" d="M4 7H2V4a2 2 0 0 1 2-2h3v2H4Zm3 15H4a2 2 0 0 1-2-2v-3h2v3h3ZM2 10h2v4H2zm20-3h-2V4h-3V2h3a2 2 0 0 1 2 2ZM10 2h4v2h-4zm18 28H12a2 2 0 0 1-2-2V12a2 2 0 0 1 2-2h16a2 2 0 0 1 2 2v16a2 2 0 0 1-2 2M12 12v16h16V12Z"/></symbol><symbol id="hd-icon-carbon-send-filled" viewBox="0 0 32 32"><path fill="currentColor" d="m27.45 15.11l-22-11a1 1 0 0 0-1.08.12a1 1 0 0 0-.33 1L6.69 15H18v2H6.69L4 26.74A1 1 0 0 0 5 28a1 1 0 0 0 .45-.11l22-11a1 1 0 0 0 0-1.78"/></symbol><symbol id="hd-icon-carbon-send-to-back" viewBox="0 0 32 32"><path fill="currentColor" d="M28 10h-6V4a2 2 0 0 0-2-2H4a2 2 0 0 0-2 2v16a2 2 0 0 0 2 2h6v6a2 2 0 0 0 2 2h16a2 2 0 0 0 2-2V12a2 2 0 0 0-2-2M12 28V12h16l.002 16Z"/></symbol><symbol id="hd-icon-carbon-server-dns" viewBox="0 0 32 32"><path fill="currentColor" d="M16 2a8 8 0 1 0 8 8a8.01 8.01 0 0 0-8-8m5.91 7h-2.438a15.3 15.3 0 0 0-.791-4.36A6.01 6.01 0 0 1 21.91 9m-5.888 6.999h-.008c-.38-.12-1.309-1.821-1.479-4.999h2.93c-.17 3.176-1.094 4.877-1.443 4.999M14.535 9c.17-3.176 1.094-4.877 1.443-4.999h.008c.38.12 1.309 1.821 1.479 4.999ZM13.32 4.64A15.3 15.3 0 0 0 12.528 9H10.09a6.01 6.01 0 0 1 3.23-4.36M10.09 11h2.437a15.3 15.3 0 0 0 .792 4.36A6.01 6.01 0 0 1 10.09 11m8.59 4.36a15.3 15.3 0 0 0 .792-4.36h2.438a6.01 6.01 0 0 1-3.23 4.36M28 30H4a2 2 0 0 1-2-2v-6a2 2 0 0 1 2-2h24a2 2 0 0 1 2 2v6a2 2 0 0 1-2 2M4 22v6h24v-6Z"/><circle cx="7" cy="25" r="1" fill="currentColor"/></symbol><symbol id="hd-icon-carbon-server-proxy" viewBox="0 0 32 32"><path fill="currentColor" d="M6 30h20a2 2 0 0 0 2-2v-6a2 2 0 0 0-2-2H6a2 2 0 0 0-2 2v6a2 2 0 0 0 2 2m0-8h20v6H6Z"/><circle cx="9" cy="25" r="1" fill="currentColor"/><path fill="currentColor" d="m26 2l-1.41 1.41L27.17 6h-4.855A6.984 6.984 0 0 0 9.08 10H4.83l2.58-2.59L6 6l-5 5l5 5l1.41-1.41L4.83 12h4.855A6.984 6.984 0 0 0 22.92 8h4.25l-2.58 2.59L26 12l5-5Zm-5 7a4.983 4.983 0 0 1-8.974 3H16v-2h-4.899a4.985 4.985 0 0 1 8.874-4H16v2h4.899A5 5 0 0 1 21 9"/></symbol><symbol id="hd-icon-carbon-server-time" viewBox="0 0 32 32"><path fill="currentColor" d="M28 30H4a2 2 0 0 1-2-2v-6a2 2 0 0 1 2-2h24a2 2 0 0 1 2 2v6a2 2 0 0 1-2 2M4 22v6h24v-6Z"/><circle cx="7" cy="25" r="1" fill="currentColor"/><path fill="currentColor" d="m19 11.586l-2-2V6h-2v4.414L17.586 13z"/><path fill="currentColor" d="M16 18a8 8 0 1 1 8-8a8.01 8.01 0 0 1-8 8m0-14a6 6 0 1 0 6 6a6.007 6.007 0 0 0-6-6"/></symbol><symbol id="hd-icon-carbon-serverless-fleet" viewBox="0 0 32 32"><path fill="currentColor" d="m18.7 19.3l-1.4 1.4l3.7 3.7l7.7-7.7l-1.4-1.4l-6.3 6.3z"/><path fill="currentColor" d="M10 12v11c0 1.1.9 2 2 2h4v-2h-4V12h8v4h2v-4c0-1.1-.9-2-2-2h-8c-1.1 0-2 .9-2 2M4 4h8V2H4c-1.1 0-2 .9-2 2v8h2z"/><path fill="currentColor" d="M6 8v8h2V8h8V6H8c-1.1 0-2 .9-2 2m22 14v6H4v-6H2v6c0 1.1.9 2 2 2h24c1.1 0 2-.9 2-2v-6z"/></symbol><symbol id="hd-icon-carbon-service-desk" viewBox="0 0 32 32"><path fill="currentColor" d="M28 24.005v-2a12.01 12.01 0 0 0-11-11.95v-2.05h3v-2h-8v2h3v2.05a12.01 12.01 0 0 0-11 11.95v2H2v2h28v-2Zm-12-12a10.02 10.02 0 0 1 9.798 8H6.202a10.02 10.02 0 0 1 9.798-8m-10 10h20v2H6Z"/></symbol><symbol id="hd-icon-carbon-service-id" viewBox="0 0 32 32"><path fill="currentColor" d="M30 24v-2h-2.101a5 5 0 0 0-.732-1.753l1.49-1.49l-1.414-1.414l-1.49 1.49A5 5 0 0 0 24 18.101V16h-2v2.101a5 5 0 0 0-1.753.732l-1.49-1.49l-1.414 1.414l1.49 1.49A5 5 0 0 0 18.101 22H16v2h2.101c.13.637.384 1.229.732 1.753l-1.49 1.49l1.414 1.414l1.49-1.49a5 5 0 0 0 1.753.732V30h2v-2.101a5 5 0 0 0 1.753-.732l1.49 1.49l1.414-1.414l-1.49-1.49A5 5 0 0 0 27.899 24zm-7 2c-1.654 0-3-1.346-3-3s1.346-3 3-3s3 1.346 3 3s-1.346 3-3 3M12 6h4v2h-4z"/><path fill="currentColor" d="M6 28V4h16v9h2V4c0-1.103-.897-2-2-2H6c-1.103 0-2 .897-2 2v24c0 1.103.897 2 2 2h8v-2z"/></symbol><symbol id="hd-icon-carbon-service-levels" viewBox="0 0 32 32"><circle cx="7" cy="19" r="1" fill="currentColor"/><circle cx="16" cy="11" r="1" fill="currentColor"/><circle cx="25" cy="19" r="1" fill="currentColor"/><circle cx="10" cy="14" r="1" fill="currentColor"/><path fill="currentColor" d="M30 20h-2c0-1.262-.195-2.504-.579-3.693l1.904-.615C29.773 17.08 30 18.53 30 20m-.15-11.022l-2.436 2.436A2 2 0 0 1 26 12a2.002 2.002 0 0 1-1.414-3.414l2.437-2.437A4 4 0 0 0 26 6c-2.206 0-4 1.795-4 4c0 .74.215 1.425.567 2.02l-4.548 4.548a3.95 3.95 0 0 0-2.02-.567c-2.205 0-4 1.794-4 4s1.795 4 4 4s4-1.795 4-4c0-.74-.214-1.424-.566-2.02l4.548-4.547a3.95 3.95 0 0 0 2.019.567c2.206 0 4-1.795 4-4a4 4 0 0 0-.15-1.023M16 22c-1.103 0-2-.897-2-2s.897-2 2-2s2 .898 2 2s-.897 2-2 2M4 20H2C2 12.28 8.28 6 16 6c1.47 0 2.92.227 4.307.675l-.614 1.904A12 12 0 0 0 16 8C9.383 8 4 13.383 4 20"/></symbol><symbol id="hd-icon-carbon-session-border-control" viewBox="0 0 32 32"><path fill="currentColor" d="m26 8l-1.41 1.41L27.17 12H16a5.97 5.97 0 0 0-4 1.54V6.83l2.59 2.58L16 8l-5-5l-5 5l1.41 1.41L10 6.83V18a5.97 5.97 0 0 0 1.54 4H4.83l2.58-2.59L6 18l-5 5l5 5l1.41-1.41L4.83 24H16a5.99 5.99 0 0 0 4.46-10h6.71l-2.58 2.59L26 18l5-5Zm-6 10a4 4 0 1 1-4-4a4.005 4.005 0 0 1 4 4"/></symbol><symbol id="hd-icon-carbon-settings" viewBox="0 0 32 32"><path fill="currentColor" d="M27 16.76v-1.53l1.92-1.68A2 2 0 0 0 29.3 11l-2.36-4a2 2 0 0 0-1.73-1a2 2 0 0 0-.64.1l-2.43.82a11 11 0 0 0-1.31-.75l-.51-2.52a2 2 0 0 0-2-1.61h-4.68a2 2 0 0 0-2 1.61l-.51 2.52a11.5 11.5 0 0 0-1.32.75l-2.38-.86A2 2 0 0 0 6.79 6a2 2 0 0 0-1.73 1L2.7 11a2 2 0 0 0 .41 2.51L5 15.24v1.53l-1.89 1.68A2 2 0 0 0 2.7 21l2.36 4a2 2 0 0 0 1.73 1a2 2 0 0 0 .64-.1l2.43-.82a11 11 0 0 0 1.31.75l.51 2.52a2 2 0 0 0 2 1.61h4.72a2 2 0 0 0 2-1.61l.51-2.52a11.5 11.5 0 0 0 1.32-.75l2.42.82a2 2 0 0 0 .64.1a2 2 0 0 0 1.73-1l2.28-4a2 2 0 0 0-.41-2.51ZM25.21 24l-3.43-1.16a8.9 8.9 0 0 1-2.71 1.57L18.36 28h-4.72l-.71-3.55a9.4 9.4 0 0 1-2.7-1.57L6.79 24l-2.36-4l2.72-2.4a8.9 8.9 0 0 1 0-3.13L4.43 12l2.36-4l3.43 1.16a8.9 8.9 0 0 1 2.71-1.57L13.64 4h4.72l.71 3.55a9.4 9.4 0 0 1 2.7 1.57L25.21 8l2.36 4l-2.72 2.4a8.9 8.9 0 0 1 0 3.13L27.57 20Z"/><path fill="currentColor" d="M16 22a6 6 0 1 1 6-6a5.94 5.94 0 0 1-6 6m0-10a3.91 3.91 0 0 0-4 4a3.91 3.91 0 0 0 4 4a3.91 3.91 0 0 0 4-4a3.91 3.91 0 0 0-4-4"/></symbol><symbol id="hd-icon-carbon-settings-adjust" viewBox="0 0 32 32"><path fill="currentColor" d="M30 8h-4.1c-.5-2.3-2.5-4-4.9-4s-4.4 1.7-4.9 4H2v2h14.1c.5 2.3 2.5 4 4.9 4s4.4-1.7 4.9-4H30zm-9 4c-1.7 0-3-1.3-3-3s1.3-3 3-3s3 1.3 3 3s-1.3 3-3 3M2 24h4.1c.5 2.3 2.5 4 4.9 4s4.4-1.7 4.9-4H30v-2H15.9c-.5-2.3-2.5-4-4.9-4s-4.4 1.7-4.9 4H2zm9-4c1.7 0 3 1.3 3 3s-1.3 3-3 3s-3-1.3-3-3s1.3-3 3-3"/></symbol><symbol id="hd-icon-carbon-settings-check" viewBox="0 0 32 32"><path fill="currentColor" d="M16 22a6 6 0 1 1 6-6a5.936 5.936 0 0 1-6 6m0-10a3.91 3.91 0 0 0-4 4a3.91 3.91 0 0 0 4 4a3.91 3.91 0 0 0 4-4a3.91 3.91 0 0 0-4-4"/><path fill="currentColor" d="m29.305 11.044l-2.36-4.088a2 2 0 0 0-2.374-.894l-2.434.823a11 11 0 0 0-1.312-.758l-.503-2.519A2 2 0 0 0 18.36 2h-4.72a2 2 0 0 0-1.962 1.608l-.503 2.519a11 11 0 0 0-1.327.753l-2.42-.818a2 2 0 0 0-2.372.894l-2.36 4.088a2 2 0 0 0 .411 2.503l1.931 1.696C5.021 15.495 5 15.745 5 16q0 .387.028.766l-1.92 1.688a2 2 0 0 0-.413 2.502l2.36 4.088a2 2 0 0 0 2.374.895l2.434-.824a11 11 0 0 0 1.312.759l.503 2.518A2 2 0 0 0 13.64 30H18v-2h-4.36l-.71-3.55a9.1 9.1 0 0 1-2.695-1.572l-3.447 1.166l-2.36-4.088l2.725-2.395a8.9 8.9 0 0 1-.007-3.128l-2.718-2.389l2.36-4.088l3.427 1.16A9 9 0 0 1 12.93 7.55L13.64 4h4.72l.71 3.55a9.1 9.1 0 0 1 2.695 1.572l3.447-1.166l2.36 4.088l-2.798 2.452L26.092 16l2.8-2.454a2 2 0 0 0 .413-2.502"/><path fill="currentColor" d="m23 26.18l-2.59-2.59L19 25l4 4l7-7l-1.41-1.41z"/></symbol><symbol id="hd-icon-carbon-settings-edit" viewBox="0 0 32 32"><path fill="currentColor" d="m31.707 19.293l-3-3a1 1 0 0 0-1.414 0L18 25.586V30h4.414l9.293-9.293a1 1 0 0 0 0-1.414M21.586 28H20v-1.586l5-5L26.586 23zM28 21.586L26.414 20L28 18.414L29.586 20zM16 22c-3.364 0-6-2.636-6-6s2.636-6 6-6s6 2.636 6 6s-2.636 6-6 6m0-10c-2.28 0-4 1.72-4 4s1.72 4 4 4s4-1.72 4-4s-1.72-4-4-4"/><path fill="currentColor" d="m27.547 12l1.733-1l-2.336-4.044a2 2 0 0 0-2.373-.894l-2.434.823a11 11 0 0 0-1.312-.758l-.503-2.52A2 2 0 0 0 18.36 2h-4.72a2 2 0 0 0-1.962 1.608l-.503 2.519c-.46.224-.906.469-1.327.753l-2.42-.818a2 2 0 0 0-2.373.894l-2.36 4.088a2 2 0 0 0 .412 2.502l1.931 1.697C5.021 15.495 5 15.745 5 16q0 .387.028.766l-1.92 1.688a2 2 0 0 0-.413 2.502l2.36 4.088a2 2 0 0 0 2.374.894l2.434-.823q.627.423 1.312.758l.503 2.519A2 2 0 0 0 13.64 30H16v-2h-2.36l-.71-3.55a9.1 9.1 0 0 1-2.695-1.572l-3.447 1.166l-2.36-4.088l2.725-2.395a8.9 8.9 0 0 1-.007-3.128l-2.719-2.39l2.361-4.087l3.427 1.16A9 9 0 0 1 12.93 7.55L13.64 4h4.721l.71 3.55a9.1 9.1 0 0 1 2.695 1.572l3.447-1.166z"/></symbol><symbol id="hd-icon-carbon-settings-services" viewBox="0 0 32 32"><path fill="currentColor" d="M29 25h-2v-2h1v-4h-4v1h-2v-2a1 1 0 0 1 1-1h6a1 1 0 0 1 1 1v6a1 1 0 0 1-1 1"/><path fill="currentColor" d="M24 30h-6a1 1 0 0 1-1-1v-6a1 1 0 0 1 1-1h6a1 1 0 0 1 1 1v6a1 1 0 0 1-1 1m-5-2h4v-4h-4Zm-4-8.142A3.993 3.993 0 1 1 20 16h2a6 6 0 1 0-7 5.91Z"/><path fill="currentColor" d="m28.89 13.55l-2.31 2.03l-1.42-1.42l2.41-2.12l-2.36-4.08l-3.44 1.16a9.4 9.4 0 0 0-2.7-1.57L18.36 4h-4.72l-.71 3.55a8.9 8.9 0 0 0-2.71 1.57L6.79 7.96l-2.36 4.08l2.72 2.39a8.9 8.9 0 0 0 0 3.13l-2.72 2.4l2.36 4.08l3.44-1.16a9.4 9.4 0 0 0 2.7 1.57l.71 3.55H15v2h-1.36a2 2 0 0 1-1.96-1.61l-.51-2.52a11 11 0 0 1-1.31-.75l-2.43.82a2 2 0 0 1-.64.1a1.97 1.97 0 0 1-1.73-1L2.7 20.96a2 2 0 0 1 .41-2.51l1.92-1.68C5.01 16.51 5 16.26 5 16s.02-.51.04-.76l-1.93-1.69a2 2 0 0 1-.41-2.51l2.36-4.08a1.97 1.97 0 0 1 1.73-1a2 2 0 0 1 .64.1l2.42.82a12 12 0 0 1 1.32-.75l.51-2.52A2 2 0 0 1 13.64 2h4.72a2 2 0 0 1 1.96 1.61l.51 2.52a11 11 0 0 1 1.31.75l2.43-.82a2 2 0 0 1 .64-.1a1.97 1.97 0 0 1 1.73 1l2.36 4.08a2 2 0 0 1-.41 2.51"/></symbol><symbol id="hd-icon-carbon-settings-view" viewBox="0 0 32 32"><circle cx="23" cy="24" r="2" fill="currentColor"/><path fill="currentColor" d="M30.777 23.479A8.64 8.64 0 0 0 23 18a8.64 8.64 0 0 0-7.777 5.479L15 24l.223.522A8.64 8.64 0 0 0 23 30a8.64 8.64 0 0 0 7.777-5.478L31 24ZM23 28a4 4 0 1 1 4-4a4.005 4.005 0 0 1-4 4m-10.601-7.2A6 6 0 1 1 22 16h-2a4 4 0 1 0-6.4 3.2Z"/><path fill="currentColor" d="m29.305 11.044l-2.36-4.088a2 2 0 0 0-2.374-.895l-2.434.824a11 11 0 0 0-1.312-.758l-.504-2.52A2 2 0 0 0 18.36 2h-4.72a2 2 0 0 0-1.961 1.608l-.504 2.519a11 11 0 0 0-1.327.753l-2.42-.819a2 2 0 0 0-2.372.895l-2.36 4.088a2 2 0 0 0 .411 2.502l1.931 1.697C5.021 15.495 5 15.745 5 16q0 .387.028.766l-1.92 1.688a2 2 0 0 0-.413 2.502l2.36 4.088a2 2 0 0 0 2.374.895l2.434-.824a11 11 0 0 0 1.312.759l.503 2.518A2 2 0 0 0 13.64 30H15v-2h-1.36l-.71-3.55a9.1 9.1 0 0 1-2.695-1.572l-3.447 1.166l-2.36-4.088l2.725-2.395a8.9 8.9 0 0 1-.007-3.128l-2.718-2.39l2.36-4.087l3.427 1.16A9 9 0 0 1 12.93 7.55L13.64 4h4.72l.71 3.55a9.1 9.1 0 0 1 2.695 1.572l3.447-1.166l2.36 4.088l-2.798 2.452L26.092 16l2.8-2.454a2 2 0 0 0 .413-2.502"/></symbol><symbol id="hd-icon-carbon-shape-except" viewBox="0 0 32 32"><path fill="currentColor" d="M28 10h-6V4a2 2 0 0 0-2-2H4a2.003 2.003 0 0 0-2 2v16a2.003 2.003 0 0 0 2 2h6v6a2 2 0 0 0 2 2h16a2 2 0 0 0 2-2V12a2 2 0 0 0-2-2M12 20v-8h8v8ZM3.999 4H20v6h-8a2 2 0 0 0-2 2v8H4Z"/></symbol><symbol id="hd-icon-carbon-shape-exclude" viewBox="0 0 32 32"><path fill="currentColor" d="M12 10h10V4a2 2 0 0 0-2-2H4a2 2 0 0 0-2 2v16a2 2 0 0 0 2 2h6V12a2 2 0 0 1 2-2"/><path fill="currentColor" d="M28 10h-6v10a2 2 0 0 1-2 2H10v6a2 2 0 0 0 2 2h16a2 2 0 0 0 2-2V12a2 2 0 0 0-2-2"/></symbol><symbol id="hd-icon-carbon-shape-intersect" viewBox="0 0 32 32"><path fill="currentColor" d="M28 10h-6V4a2.003 2.003 0 0 0-2-2H4a2.003 2.003 0 0 0-2 2v16a2.003 2.003 0 0 0 2 2h6v6a2.003 2.003 0 0 0 2 2h16a2.003 2.003 0 0 0 2-2V12a2.003 2.003 0 0 0-2-2M4 20V4h16v6h-8a2.003 2.003 0 0 0-2 2v8Zm8 8v-6h8a2.003 2.003 0 0 0 2-2v-8h6v16Z"/></symbol><symbol id="hd-icon-carbon-shape-join" viewBox="0 0 32 32"><path fill="currentColor" d="M28 10h-6V4a2.003 2.003 0 0 0-2-2H4a2.003 2.003 0 0 0-2 2v16a2.003 2.003 0 0 0 2 2h6v6a2.003 2.003 0 0 0 2 2h16a2.003 2.003 0 0 0 2-2V12a2.003 2.003 0 0 0-2-2M4 20V4h6v16Zm18 8V12h6v16Z"/></symbol><symbol id="hd-icon-carbon-shape-unite" viewBox="0 0 32 32"><path fill="currentColor" d="M28 10h-6V4a2 2 0 0 0-2-2H4a2 2 0 0 0-2 2v16a2 2 0 0 0 2 2h6v6a2 2 0 0 0 2 2h16a2 2 0 0 0 2-2V12a2 2 0 0 0-2-2"/></symbol><symbol id="hd-icon-carbon-shapes" viewBox="0 0 32 32"><path fill="currentColor" d="M5 16H3v11a2 2 0 0 0 2 2h8v-2H5zm23 13H17a1 1 0 0 1-.876-1.482l5.5-10A.99.99 0 0 1 22.5 17c.343 0 .686.172.876.518l5.5 10A1 1 0 0 1 28 29m-9.309-2h7.618L22.5 20.075zM27 3H16v2h11v13.992h2V5a2 2 0 0 0-2-2M11 3H5a2 2 0 0 0-2 2v6a2 2 0 0 0 2 2h6a2 2 0 0 0 2-2V5a2 2 0 0 0-2-2m0 8H5V5h6z"/></symbol><symbol id="hd-icon-carbon-share" viewBox="0 0 32 32"><path fill="currentColor" d="M23 20a5 5 0 0 0-3.89 1.89l-7.31-4.57a4.46 4.46 0 0 0 0-2.64l7.31-4.57A5 5 0 1 0 18 7a4.8 4.8 0 0 0 .2 1.32l-7.31 4.57a5 5 0 1 0 0 6.22l7.31 4.57A4.8 4.8 0 0 0 18 25a5 5 0 1 0 5-5m0-16a3 3 0 1 1-3 3a3 3 0 0 1 3-3M7 19a3 3 0 1 1 3-3a3 3 0 0 1-3 3m16 9a3 3 0 1 1 3-3a3 3 0 0 1-3 3"/></symbol><symbol id="hd-icon-carbon-share-knowledge" viewBox="0 0 32 32"><path fill="currentColor" d="M27 25h-6a3 3 0 0 0-3 3v2h2v-2a1 1 0 0 1 1-1h6a1 1 0 0 1 1 1v2h2v-2a3 3 0 0 0-3-3m-7-5a4 4 0 1 0 4-4a4 4 0 0 0-4 4m6 0a2 2 0 1 1-2-2a2 2 0 0 1 2 2M6 21v-1H4v1a7 7 0 0 0 7 7h3v-2h-3a5 5 0 0 1-5-5m13-11h7v2h-7zm0-4h10v2H19zm0-4h10v2H19zm-8 9H5a3 3 0 0 0-3 3v2h2v-2a1 1 0 0 1 1-1h6a1 1 0 0 1 1 1v2h2v-2a3 3 0 0 0-3-3m-3-1a4 4 0 1 0-4-4a4 4 0 0 0 4 4m0-6a2 2 0 1 1-2 2a2 2 0 0 1 2-2"/></symbol><symbol id="hd-icon-carbon-shopping-bag" viewBox="0 0 32 32"><path fill="currentColor" d="M28.76 11.35A1 1 0 0 0 28 11h-6V7a3 3 0 0 0-3-3h-6a3 3 0 0 0-3 3v4H4a1 1 0 0 0-1 1.15L4.88 24.3a2 2 0 0 0 2 1.7h18.26a2 2 0 0 0 2-1.7L29 12.15a1 1 0 0 0-.24-.8M12 7a1 1 0 0 1 1-1h6a1 1 0 0 1 1 1v4h-8Zm13.14 17H6.86L5.17 13h21.66Z"/></symbol><symbol id="hd-icon-carbon-shopping-cart" viewBox="0 0 32 32"><circle cx="10" cy="28" r="2" fill="currentColor"/><circle cx="24" cy="28" r="2" fill="currentColor"/><path fill="currentColor" d="M28 7H5.82L5 2.8A1 1 0 0 0 4 2H0v2h3.18L7 23.2a1 1 0 0 0 1 .8h18v-2H8.82L8 18h18a1 1 0 0 0 1-.78l2-9A1 1 0 0 0 28 7m-2.8 9H7.62l-1.4-7h20.53Z"/></symbol><symbol id="hd-icon-carbon-shopping-cart-arrow-down" viewBox="0 0 32 32"><circle cx="10" cy="28" r="2" fill="currentColor"/><circle cx="24" cy="28" r="2" fill="currentColor"/><path fill="currentColor" d="M4.98 2.804A1 1 0 0 0 4 2H0v2h3.18l3.84 19.196A1 1 0 0 0 8 24h18v-2H8.82l-.8-4H26a1 1 0 0 0 .976-.783L29.244 7h-2.047l-1.999 9H7.62Z"/><path fill="currentColor" d="M21.586 6.586L18 10.172V2h-2v8.172l-3.586-3.586L11 8l6 6l6-6z"/></symbol><symbol id="hd-icon-carbon-shopping-cart-arrow-up" viewBox="0 0 32 32"><circle cx="10" cy="28" r="2" fill="currentColor"/><circle cx="24" cy="28" r="2" fill="currentColor"/><path fill="currentColor" d="M4.98 2.804A1 1 0 0 0 4 2H0v2h3.18l3.84 19.196A1 1 0 0 0 8 24h18v-2H8.82l-.8-4H26a1 1 0 0 0 .976-.783L29.244 7h-2.047l-1.999 9H7.62Z"/><path fill="currentColor" d="M21.586 9.414L18 5.828V14h-2V5.828l-3.586 3.586L11 8l6-6l6 6z"/></symbol><symbol id="hd-icon-carbon-shopping-cart-clear" viewBox="0 0 32 32"><circle cx="10" cy="28" r="2" fill="currentColor"/><circle cx="24" cy="28" r="2" fill="currentColor"/><path fill="currentColor" d="M4.98 2.804A1 1 0 0 0 4 2H0v2h3.18l3.84 19.196A1 1 0 0 0 8 24h18v-2H8.82l-.8-4H26a1 1 0 0 0 .976-.783L29.244 7h-2.047l-1.999 9H7.62Z"/><path fill="currentColor" d="M18.41 8L22 4.41L20.59 3L17 6.59L13.41 3L12 4.41L15.59 8L12 11.59L13.41 13L17 9.41L20.59 13L22 11.59z"/></symbol><symbol id="hd-icon-carbon-shopping-cart-error" viewBox="0 0 32 32"><circle cx="10" cy="28" r="2" fill="currentColor"/><circle cx="24" cy="28" r="2" fill="currentColor"/><path fill="currentColor" d="M4.98 2.804A1 1 0 0 0 4 2H0v2h3.18l3.84 19.196A1 1 0 0 0 8 24h18v-2H8.82l-.8-4H26a1 1 0 0 0 .976-.783L29.244 7h-2.047l-1.999 9H7.62Z"/><path fill="currentColor" d="M17 2a6 6 0 1 0 6 6a6.007 6.007 0 0 0-6-6m0 2a3.95 3.95 0 0 1 2.019.567l-5.452 5.452A3.95 3.95 0 0 1 13 8a4.005 4.005 0 0 1 4-4m0 8a3.95 3.95 0 0 1-2.019-.567l5.452-5.452A3.95 3.95 0 0 1 21 8a4.005 4.005 0 0 1-4 4"/></symbol><symbol id="hd-icon-carbon-shopping-cart-minus" viewBox="0 0 32 32"><circle cx="10" cy="28" r="2" fill="currentColor"/><circle cx="24" cy="28" r="2" fill="currentColor"/><path fill="currentColor" d="M4.98 2.804A1 1 0 0 0 4 2H0v2h3.18l3.84 19.196A1 1 0 0 0 8 24h18v-2H8.82l-.8-4H26a1 1 0 0 0 .976-.783L29.244 7h-2.047l-1.999 9H7.62Z"/><path fill="currentColor" d="M12 6v2h10V6z"/></symbol><symbol id="hd-icon-carbon-shopping-cart-plus" viewBox="0 0 32 32"><circle cx="10" cy="28" r="2" fill="currentColor"/><circle cx="24" cy="28" r="2" fill="currentColor"/><path fill="currentColor" d="M4.98 2.804A1 1 0 0 0 4 2H0v2h3.18l3.84 19.196A1 1 0 0 0 8 24h18v-2H8.82l-.8-4H26a1 1 0 0 0 .976-.783L29.244 7h-2.047l-1.999 9H7.62Z"/><path fill="currentColor" d="M18 6V2h-2v4h-4v2h4v4h2V8h4V6z"/></symbol><symbol id="hd-icon-carbon-shopping-catalog" viewBox="0 0 32 32"><path fill="currentColor" d="M17 24h4v4h-4zm7 0h4v4h-4zm-7-7h4v4h-4zm7 0h4v4h-4z"/><path fill="currentColor" d="M28 11h-6V7c0-1.7-1.3-3-3-3h-6c-1.7 0-3 1.3-3 3v4H4c-.6 0-1 .4-1 1v.2l1.9 12.1c.1 1 1 1.7 2 1.7H15v-2H6.9L5.2 13H28zM12 7c0-.6.4-1 1-1h6c.6 0 1 .4 1 1v4h-8z"/></symbol><symbol id="hd-icon-carbon-show-data-cards" viewBox="0 0 32 32"><path fill="currentColor" d="M28 10H4a2 2 0 0 1-2-2V4a2 2 0 0 1 2-2h24a2 2 0 0 1 2 2v4a2 2 0 0 1-2 2M4 4v4h24V4Zm24 26H4a2 2 0 0 1-2-2v-4a2 2 0 0 1 2-2h24a2 2 0 0 1 2 2v4a2 2 0 0 1-2 2M4 24v4h24v-4Zm24-4H4a2 2 0 0 1-2-2v-4a2 2 0 0 1 2-2h24a2 2 0 0 1 2 2v4a2 2 0 0 1-2 2M4 14v4h24v-4Z"/></symbol><symbol id="hd-icon-carbon-shrink-screen" viewBox="0 0 32 32"><path fill="currentColor" d="M28 28H17a2 2 0 0 1-2-2v-6a2 2 0 0 1 2-2h11a2.003 2.003 0 0 1 2 2v6a2.003 2.003 0 0 1-2 2m-11-8v6h11.002L28 20Zm-5-10v3.586L7.707 9.293l-1.414 1.414L10.586 15H7v2h7v-7z"/><path fill="currentColor" d="M13 22H4a2 2 0 0 1-2-2V7a2 2 0 0 1 2-2h22a2 2 0 0 1 2 2v9h-2V7H4v13h9Z"/></symbol><symbol id="hd-icon-carbon-shrink-screen-filled" viewBox="0 0 32 32"><rect width="15" height="10" x="15" y="18" fill="currentColor" rx="2"/><path fill="currentColor" d="M12 10v3.586L7.707 9.293l-1.414 1.414L10.586 15H7v2h7v-7z"/><path fill="currentColor" d="M13 22H4a2 2 0 0 1-2-2V7a2 2 0 0 1 2-2h22a2 2 0 0 1 2 2v9h-2V7H4v13h9Z"/></symbol><symbol id="hd-icon-carbon-shuffle" viewBox="0 0 32 32"><path fill="currentColor" d="M22.59 19.41L26.17 23h-6.62l-4.37-7l4.37-7h6.62l-3.58 3.59L24 14l6-6l-6-6l-1.41 1.41L26.17 7h-6.62a2 2 0 0 0-1.69.94L14 14.11l-3.86-6.17A2 2 0 0 0 8.45 7H2v2h6.45l4.37 7l-4.37 7H2v2h6.45a2 2 0 0 0 1.69-.94L14 17.89l3.86 6.17a2 2 0 0 0 1.69.94h6.62l-3.58 3.59L24 30l6-6l-6-6Z"/></symbol><symbol id="hd-icon-carbon-shuttle" viewBox="0 0 32 32"><path fill="currentColor" d="m29.81 16l-7-9.56A1 1 0 0 0 22 6H3a1 1 0 0 0-1 1v17a1 1 0 0 0 1 1h2.14a4 4 0 0 0 7.72 0h6.28a4 4 0 0 0 7.72 0H29a1 1 0 0 0 1-1v-7.44a1 1 0 0 0-.19-.56M20 8h1.49l5.13 7H20ZM4 8h14v7H4Zm5 18a2 2 0 1 1 2-2a2 2 0 0 1-2 2m14 0a2 2 0 1 1 2-2a2 2 0 0 1-2 2m5-3h-1.14a4 4 0 0 0-7.72 0h-6.28a4 4 0 0 0-7.72 0H4v-6h24Z"/></symbol><symbol id="hd-icon-carbon-side-panel-close" viewBox="0 0 32 32"><path fill="currentColor" d="M28 4H4c-1.1 0-2 .9-2 2v20c0 1.1.9 2 2 2h24c1.1 0 2-.9 2-2V6c0-1.1-.9-2-2-2M10 26H4V6h6zm18-11H17.8l3.6-3.6L20 10l-6 6l6 6l1.4-1.4l-3.6-3.6H28v9H12V6h16z"/></symbol><symbol id="hd-icon-carbon-side-panel-close-filled" viewBox="0 0 32 32"><path fill="currentColor" d="M28 4H4c-1.1 0-2 .9-2 2v20c0 1.1.9 2 2 2h24c1.1 0 2-.9 2-2V6c0-1.1-.9-2-2-2m0 11H17.8l3.6-3.6L20 10l-6 6l6 6l1.4-1.4l-3.6-3.6H28v9H12V6h16z"/></symbol><symbol id="hd-icon-carbon-side-panel-open" viewBox="0 0 32 32"><path fill="currentColor" d="M28 4H4c-1.1 0-2 .9-2 2v20c0 1.1.9 2 2 2h24c1.1 0 2-.9 2-2V6c0-1.1-.9-2-2-2M10 26H4V6h6zm18 0H12v-9h10.2l-3.6 3.6L20 22l6-6l-6-6l-1.4 1.4l3.6 3.6H12V6h16z"/></symbol><symbol id="hd-icon-carbon-side-panel-open-filled" viewBox="0 0 32 32"><path fill="currentColor" d="M28 4H4c-1.1 0-2 .9-2 2v20c0 1.1.9 2 2 2h24c1.1 0 2-.9 2-2V6c0-1.1-.9-2-2-2m0 22H12v-9h10.2l-3.6 3.6L20 22l6-6l-6-6l-1.4 1.4l3.6 3.6H12V6h16z"/></symbol><symbol id="hd-icon-carbon-sight" viewBox="0 0 32 32"><path fill="currentColor" d="M10 12h2v2h-2zm-4 0h2v2H6zm-4 0h2v2H2zm24 18h-2v-3h-4a5.006 5.006 0 0 1-5-5v-1.28l-2.316-.771a1 1 0 0 1-.541-1.463L15 13.723V11a9.01 9.01 0 0 1 9-9h5v2h-5a7.01 7.01 0 0 0-7 7v3a1 1 0 0 1-.143.514L14.5 18.446l1.817.605A1 1 0 0 1 17 20v2a3.003 3.003 0 0 0 3 3h5a1 1 0 0 1 1 1Z"/><path fill="currentColor" d="M19 12h4v2h-4z"/></symbol><symbol id="hd-icon-carbon-sigma" viewBox="0 0 32 32"><path fill="currentColor" d="M24 5H7v2.414L15.586 16L7 24.586V27h17v-2H9.414l9-9l-9-9H24z"/></symbol><symbol id="hd-icon-carbon-signal-strength" viewBox="0 0 32 32"><path fill="currentColor" d="M26 6h2v20h-2zm-8 5h2v15h-2zm-7 5h2v10h-2zm-7 4h2v6H4z"/></symbol><symbol id="hd-icon-carbon-sim-card" viewBox="0 0 32 32"><path fill="currentColor" d="M21 9H8a2 2 0 0 0-2 2v10a2 2 0 0 0 2 2h13a2 2 0 0 0 2-2V11a2 2 0 0 0-2-2m0 4h-3v-2h3Zm-3 2h3v2h-3Zm-2-4v10h-3v-7a1 1 0 0 0-1-1H8v-2Zm-5 6H8v-2h3Zm-3 2h3v2H8Zm10 2v-2h3v2Z"/><path fill="currentColor" d="M23.532 27H4a2 2 0 0 1-2-2V7a2 2 0 0 1 2-2h24a2 2 0 0 1 2 2v12.638a2 2 0 0 1-.464 1.28l-4.468 5.362a2 2 0 0 1-1.536.72M4 7v18h19.532L28 19.638V7Z"/></symbol><symbol id="hd-icon-carbon-skill-level" viewBox="0 0 32 32"><path fill="currentColor" d="M30 30h-8V4h8Zm-6-2h4V6h-4Zm-4 2h-8V12h8Zm-6-2h4V14h-4Zm-4 2H2V18h8Zm-6-2h4v-8H4Z"/></symbol><symbol id="hd-icon-carbon-skill-level-advanced" viewBox="0 0 32 32"><path fill="currentColor" d="M30 30h-8V4h8Zm-10 0h-8V12h8Zm-10 0H2V18h8Z"/></symbol><symbol id="hd-icon-carbon-skill-level-basic" viewBox="0 0 32 32"><path fill="currentColor" d="M30 30h-8V4h8Zm-6-2h4V6h-4Zm-4 2h-8V12h8Zm-6-2h4V14h-4Zm-4 2H2V18h8Z"/></symbol><symbol id="hd-icon-carbon-skill-level-intermediate" viewBox="0 0 32 32"><path fill="currentColor" d="M30 30h-8V4h8Zm-6-2h4V6h-4Zm-4 2h-8V12h8Zm-10 0H2V18h8Z"/></symbol><symbol id="hd-icon-carbon-skip-back" viewBox="0 0 32 32"><path fill="currentColor" d="M27 28a1 1 0 0 1-.5-.13l-19-11a1 1 0 0 1 0-1.74l19-11a1 1 0 0 1 1 0A1 1 0 0 1 28 5v22a1 1 0 0 1-1 1M10 16l16 9.27V6.73ZM2 4h2v24H2z"/></symbol><symbol id="hd-icon-carbon-skip-back-filled" viewBox="0 0 32 32"><path fill="currentColor" d="M27 28a1 1 0 0 1-.501-.135l-19-11a1 1 0 0 1 0-1.73l19-11A1 1 0 0 1 28 5v22a1 1 0 0 1-1 1M2 4h2v24H2z"/></symbol><symbol id="hd-icon-carbon-skip-back-outline" viewBox="0 0 32 32"><path fill="currentColor" d="M23 22a1 1 0 0 1-.486-.126l-9-5a1 1 0 0 1 0-1.748l9-5A1 1 0 0 1 24 11v10a1 1 0 0 1-1 1m-6.94-6L22 19.3v-6.6ZM11 22H9V10h2z"/><path fill="currentColor" d="M16 30a14 14 0 1 1 14-14a14.016 14.016 0 0 1-14 14m0-26a12 12 0 1 0 12 12A12.014 12.014 0 0 0 16 4"/></symbol><symbol id="hd-icon-carbon-skip-back-outline-filled" viewBox="0 0 32 32"><path fill="currentColor" d="M16 2a14 14 0 1 0 14 14A14 14 0 0 0 16 2m-6 20H8V10h2Zm14-1a1 1 0 0 1-1.486.874l-9-5a1 1 0 0 1 0-1.748l9-5A1 1 0 0 1 24 11Z"/><path fill="currentColor" d="M22 19.301v-6.602L16.059 16z"/><path fill="none" d="M23 22a1 1 0 0 1-.486-.126l-9-5a1 1 0 0 1 0-1.748l9-5A1 1 0 0 1 24 11v10a1 1 0 0 1-1 1m-6.94-6L22 19.3v-6.6ZM10 22H8V10h2z"/></symbol><symbol id="hd-icon-carbon-skip-back-outline-solid" viewBox="0 0 32 32"><path fill="currentColor" d="M23 22a1 1 0 0 1-.486-.126l-9-5a1 1 0 0 1 0-1.748l9-5A1 1 0 0 1 24 11v10a1 1 0 0 1-1 1m-12 0H9V10h2z"/><path fill="currentColor" d="M16 30a14 14 0 1 1 14-14a14.016 14.016 0 0 1-14 14m0-26a12 12 0 1 0 12 12A12.014 12.014 0 0 0 16 4"/></symbol><symbol id="hd-icon-carbon-skip-back-solid-filled" viewBox="0 0 32 32"><path fill="currentColor" d="M16 2a14 14 0 1 0 14 14A14 14 0 0 0 16 2m-6 20H8V10h2Zm14-1a1 1 0 0 1-1.486.874l-9-5a1 1 0 0 1 0-1.748l9-5A1 1 0 0 1 24 11Z"/><path fill="none" d="M23 22a1 1 0 0 1-.486-.126l-9-5a1 1 0 0 1 0-1.748l9-5A1 1 0 0 1 24 11v10a1 1 0 0 1-1 1m-13 0H8V10h2z"/></symbol><symbol id="hd-icon-carbon-skip-forward" viewBox="0 0 32 32"><path fill="currentColor" d="M5 28a1 1 0 0 1-1-1V5a1 1 0 0 1 .5-.87a1 1 0 0 1 1 0l19 11a1 1 0 0 1 0 1.74l-19 11A1 1 0 0 1 5 28M6 6.73v18.54L22 16ZM28 4h2v24h-2z"/></symbol><symbol id="hd-icon-carbon-skip-forward-filled" viewBox="0 0 32 32"><path fill="currentColor" d="M28 4h2v24h-2zM5 28a1 1 0 0 1-1-1V5a1 1 0 0 1 1.501-.865l19 11a1 1 0 0 1 0 1.73l-19 11A1 1 0 0 1 5 28"/></symbol><symbol id="hd-icon-carbon-skip-forward-outline" viewBox="0 0 32 32"><path fill="currentColor" d="M21 10h2v12h-2zM8.493 21.862A1 1 0 0 1 8 21V11a1 1 0 0 1 1.486-.874l9 5a1 1 0 0 1 0 1.748l-9 5a1 1 0 0 1-.993-.012M10 12.7v6.601L15.94 16Z"/><path fill="currentColor" d="M16 30a14 14 0 1 1 14-14a14.016 14.016 0 0 1-14 14m0-26a12 12 0 1 0 12 12A12.014 12.014 0 0 0 16 4"/></symbol><symbol id="hd-icon-carbon-skip-forward-outline-filled" viewBox="0 0 32 32"><path fill="currentColor" d="M10 19.301L15.941 16L10 12.699z"/><path fill="currentColor" d="M16 2a14 14 0 1 0 14 14A14 14 0 0 0 16 2m2.486 14.874l-9 5A1 1 0 0 1 8 21V11a1 1 0 0 1 1.486-.874l9 5a1 1 0 0 1 0 1.748M24 22h-2V10h2Z"/><path fill="none" d="M22 10h2v12h-2zM8.493 21.862A1 1 0 0 1 8 21V11a1 1 0 0 1 1.486-.874l9 5a1 1 0 0 1 0 1.748l-9 5a1 1 0 0 1-.993-.012M10 12.7v6.601L15.94 16Z"/></symbol><symbol id="hd-icon-carbon-skip-forward-outline-solid" viewBox="0 0 32 32"><path fill="currentColor" d="M21 10h2v12h-2zM8.493 21.862A1 1 0 0 1 8 21V11a1 1 0 0 1 1.486-.874l9 5a1 1 0 0 1 0 1.748l-9 5a1 1 0 0 1-.993-.012"/><path fill="currentColor" d="M16 30a14 14 0 1 1 14-14a14.016 14.016 0 0 1-14 14m0-26a12 12 0 1 0 12 12A12.014 12.014 0 0 0 16 4"/></symbol><symbol id="hd-icon-carbon-skip-forward-solid-filled" viewBox="0 0 32 32"><path fill="currentColor" d="M16 2a14 14 0 1 0 14 14A14 14 0 0 0 16 2m2.486 14.874l-9 5A1 1 0 0 1 8 21V11a1 1 0 0 1 1.486-.874l9 5a1 1 0 0 1 0 1.748M24 22h-2V10h2Z"/><path fill="none" d="M22 10h2v12h-2zM8.493 21.862A1 1 0 0 1 8 21V11a1 1 0 0 1 1.486-.874l9 5a1 1 0 0 1 0 1.748l-9 5a1 1 0 0 1-.993-.012"/></symbol><symbol id="hd-icon-carbon-sleet" viewBox="0 0 32 32"><path fill="currentColor" d="M6 24h2v2H6zm2 2h2v2H8zm2 2h2v2h-2zm0-4h2v2h-2zm-4 4h2v2H6zm15 2a1 1 0 0 1-.894-1.447l2-4a1 1 0 1 1 1.788.894l-2 4A1 1 0 0 1 21 30"/><path fill="currentColor" d="M24.8 9.136a8.994 8.994 0 0 0-17.6 0A6.497 6.497 0 0 0 8.5 22h8.882l-1.276 2.553a1 1 0 1 0 1.789.894L19.618 22H23.5a6.497 6.497 0 0 0 1.3-12.864M23.5 20h-15a4.498 4.498 0 0 1-.356-8.981l.816-.064l.099-.812a6.994 6.994 0 0 1 13.883 0l.099.812l.815.064A4.498 4.498 0 0 1 23.5 20"/></symbol><symbol id="hd-icon-carbon-slisor" viewBox="0 0 32 32"><path fill="currentColor" d="M28 20h-2v2h2v6H4v-6h2v-2H4a2 2 0 0 0-2 2v6a2 2 0 0 0 2 2h24a2 2 0 0 0 2-2v-6a2 2 0 0 0-2-2"/><circle cx="7" cy="25" r="1" fill="currentColor"/><path fill="currentColor" d="M16 22a1 1 0 0 1-.447-.105l-10-5l.894-1.79L16 19.883l9.553-4.776l.894 1.789l-10 5A1 1 0 0 1 16 22"/><path fill="currentColor" d="M16 16a1 1 0 0 1-.447-.105l-10-5a1 1 0 0 1 0-1.79l10-5a1 1 0 0 1 .894 0l10 5a1 1 0 0 1 0 1.79l-10 5A1 1 0 0 1 16 16m-7.764-6L16 13.882L23.764 10L16 6.118Z"/></symbol><symbol id="hd-icon-carbon-slm" viewBox="0 0 32 32"><path fill="currentColor" d="m28 9l-1.5 5l-.5 2l-.5-2L24 9h-2v14h2v-8l-.2-2l.6 2l1.6 4.6l1.6-4.6l.6-2l-.2 2v8h2V9zM14 21V9h-2v14h8v-2zm-6 2H2v-2h6v-4H4c-1.1 0-2-.9-2-2v-4c0-1.1.9-2 2-2h6v2H4v4h4c1.1 0 2 .9 2 2v4c0 1.1-.9 2-2 2"/></symbol><symbol id="hd-icon-carbon-smell" viewBox="0 0 32 32"><path fill="currentColor" d="M22 15v-5h-2v7h2a3 3 0 0 1 0 6h-1v-2h-2v2a3 3 0 0 1-6 0v-2h-2v2h-1a3 3 0 0 1 0-6h2V9a3 3 0 0 1 3-3h1V4h-1a5 5 0 0 0-5 5v6a5 5 0 0 0 0 10h1.42a5 5 0 0 0 9.16 0H22a5 5 0 0 0 0-10"/></symbol><symbol id="hd-icon-carbon-smoke" viewBox="0 0 32 32"><path fill="currentColor" d="M27.001 28a1 1 0 0 1-.8-.4l-.815-1.086a9 9 0 0 1-1.6-7.286l1.473-6.876a7 7 0 0 0-1.245-5.667L23.2 5.6a1 1 0 1 1 1.6-1.2l.815 1.086a9 9 0 0 1 1.6 7.285l-1.474 6.876a7 7 0 0 0 1.245 5.667L27.8 26.4a1 1 0 0 1-.799 1.6m-5 0a1 1 0 0 1-.8-.4l-.815-1.086a9 9 0 0 1-1.6-7.286l1.473-6.876a7 7 0 0 0-1.245-5.667L18.2 5.6a1 1 0 1 1 1.6-1.2l.815 1.086a9 9 0 0 1 1.6 7.285l-1.474 6.876a7 7 0 0 0 1.245 5.667L22.8 26.4a1 1 0 0 1-.799 1.6m-5 0a1 1 0 0 1-.8-.4l-.815-1.086a9 9 0 0 1-1.6-7.286l1.473-6.876a7 7 0 0 0-1.245-5.667L13.2 5.6a1 1 0 1 1 1.6-1.2l.814 1.086a9 9 0 0 1 1.601 7.285l-1.474 6.876a7 7 0 0 0 1.245 5.667L17.8 26.4a1 1 0 0 1-.799 1.6m-5 0a1 1 0 0 1-.8-.4l-.815-1.086a9 9 0 0 1-1.6-7.286l1.473-6.876a7 7 0 0 0-1.245-5.666L8.2 5.6a1 1 0 1 1 1.6-1.2l.815 1.086a9 9 0 0 1 1.6 7.285l-1.474 6.876a7 7 0 0 0 1.245 5.667L12.8 26.4a1 1 0 0 1-.799 1.6m-5 0a1 1 0 0 1-.801-.4l-.814-1.086a9 9 0 0 1-1.6-7.286l1.473-6.876a7 7 0 0 0-1.245-5.666L3.2 5.6a1 1 0 1 1 1.6-1.2l.815 1.086a9 9 0 0 1 1.6 7.285l-1.474 6.876a7 7 0 0 0 1.245 5.667L7.8 26.4a1 1 0 0 1-.799 1.6"/></symbol><symbol id="hd-icon-carbon-smoothing" viewBox="0 0 32 32"><defs/><circle cx="16" cy="16" r="5" fill="currentColor"/><path d="M7.7 4.7a14.703 14.703 0 0 0-3 3.1L6.3 9a13.263 13.263 0 0 1 2.6-2.7z" fill="currentColor"/><path d="M4.6 12.3l-1.9-.6A12.511 12.511 0 0 0 2 16h2a11.476 11.476 0 0 1 .6-3.7z" fill="currentColor"/><path d="M2.7 20.4a14.403 14.403 0 0 0 2 3.9l1.6-1.2a12.887 12.887 0 0 1-1.7-3.3z" fill="currentColor"/><path d="M7.8 27.3a14.403 14.403 0 0 0 3.9 2l.6-1.9A12.887 12.887 0 0 1 9 25.7z" fill="currentColor"/><path d="M11.7 2.7l.6 1.9A11.476 11.476 0 0 1 16 4V2a12.511 12.511 0 0 0-4.3.7z" fill="currentColor"/><path d="M24.2 27.3a15.18 15.18 0 0 0 3.1-3.1L25.7 23a11.526 11.526 0 0 1-2.7 2.7z" fill="currentColor"/><path d="M27.4 19.7l1.9.6A15.475 15.475 0 0 0 30 16h-2a11.476 11.476 0 0 1-.6 3.7z" fill="currentColor"/><path d="M29.2 11.6a14.403 14.403 0 0 0-2-3.9l-1.6 1.2a12.887 12.887 0 0 1 1.7 3.3z" fill="currentColor"/><path d="M24.1 4.6a14.403 14.403 0 0 0-3.9-2l-.6 1.9a12.887 12.887 0 0 1 3.3 1.7z" fill="currentColor"/><path d="M20.3 29.3l-.6-1.9a11.476 11.476 0 0 1-3.7.6v2a21.42 21.42 0 0 0 4.3-.7z" fill="currentColor"/></symbol><symbol id="hd-icon-carbon-smoothing-cursor" viewBox="0 0 32 32"><circle cx="18" cy="18" r="4" fill="currentColor"/><path d="M18 30a11.893 11.893 0 0 1-4.104-.72l.684-1.88A9.973 9.973 0 0 0 18 28z" fill="currentColor"/><path d="M22.148 29.264l-.691-1.877a9.956 9.956 0 0 0 2.997-1.748l1.292 1.527a11.953 11.953 0 0 1-3.598 2.098z" fill="currentColor"/><path d="M10.29 27.195a12.014 12.014 0 0 1-2.68-3.187l1.73-1.003a10.024 10.024 0 0 0 2.235 2.658z" fill="currentColor"/><path d="M28.413 23.967l-1.734-.996a9.916 9.916 0 0 0 1.176-3.264l1.971.34a11.896 11.896 0 0 1-1.413 3.92z" fill="currentColor"/><path d="M6.182 20.093a12.128 12.128 0 0 1-.004-4.163l1.97.342a10.121 10.121 0 0 0 .004 3.474z" fill="currentColor"/><path d="M27.845 16.234a9.902 9.902 0 0 0-1.196-3.257l1.729-1.006a11.903 11.903 0 0 1 1.436 3.912z" fill="currentColor"/><path d="M9.331 13.01L7.6 12.013a12.01 12.01 0 0 1 2.674-3.193l1.288 1.53a10.01 10.01 0 0 0-2.23 2.662z" fill="currentColor"/><path d="M24.41 10.324a9.96 9.96 0 0 0-3.01-1.731l.68-1.881a11.95 11.95 0 0 1 3.612 2.077z" fill="currentColor"/><path d="M14.562 8.606l-.688-1.877A12.103 12.103 0 0 1 18 6v2a10.088 10.088 0 0 0-3.438.606z" fill="currentColor"/><path d="M11 2H2v9h2V4h7V2z" fill="currentColor"/></symbol><symbol id="hd-icon-carbon-snooze" viewBox="0 0 32 32"><path fill="currentColor" d="M20 14v-2h-8v2h5.5L12 20v2h8v-2h-5.493zm3.001-8.588L24.416 4L28 7.59l-1.415 1.412z"/><path fill="currentColor" d="M16 28a11 11 0 1 1 11-11a11.013 11.013 0 0 1-11 11m0-20a9 9 0 1 0 9 9a9.01 9.01 0 0 0-9-9M4.002 7.589l3.583-3.59L9 5.41L5.417 9z"/></symbol><symbol id="hd-icon-carbon-snow" viewBox="0 0 32 32"><path fill="currentColor" d="M23.5 22h-15A6.5 6.5 0 0 1 7.2 9.14a9 9 0 0 1 17.6 0A6.5 6.5 0 0 1 23.5 22M16 4a7 7 0 0 0-6.94 6.14L9 11h-.86a4.5 4.5 0 0 0 .36 9h15a4.5 4.5 0 0 0 .36-9H23l-.1-.82A7 7 0 0 0 16 4m-4 21.05L10.95 24L9.5 25.45L8.05 24L7 25.05l1.45 1.45L7 27.95L8.05 29l1.45-1.45L10.95 29L12 27.95l-1.45-1.45zm14 0L24.95 24l-1.45 1.45L22.05 24L21 25.05l1.45 1.45L21 27.95L22.05 29l1.45-1.45L24.95 29L26 27.95l-1.45-1.45zm-7 2L17.95 26l-1.45 1.45L15.05 26L14 27.05l1.45 1.45L14 29.95L15.05 31l1.45-1.45L17.95 31L19 29.95l-1.45-1.45z"/></symbol><symbol id="hd-icon-carbon-snow-blizzard" viewBox="0 0 32 32"><path fill="currentColor" d="M13 10h2v2h-2zm2 2h2v2h-2zm2 2h2v2h-2zm0-4h2v2h-2zm-4 4h2v2h-2zM3 26h2v2H3zm2 2h2v2H5zm2 2h2v2H7zm0-4h2v2H7zm-4 4h2v2H3zm20-4h2v2h-2zm2 2h2v2h-2zm2 2h2v2h-2zm0-4h2v2h-2zm-4 4h2v2h-2zM8 18h2v2H8zm2 2h2v2h-2zm2 2h2v2h-2zm0-4h2v2h-2zm-4 4h2v2H8zm10-4h2v2h-2zm2 2h2v2h-2zm2 2h2v2h-2zm0-4h2v2h-2zm-4 4h2v2h-2zm-5 4h2v2h-2zm2 2h2v2h-2zm2 2h2v2h-2zm0-4h2v2h-2zm-4 4h2v2h-2z"/><path fill="currentColor" d="M24.8 9.136a8.994 8.994 0 0 0-17.6 0A6.496 6.496 0 0 0 6 21.5v-2.26a4.494 4.494 0 0 1 2.144-8.22l.816-.064l.099-.812a6.994 6.994 0 0 1 13.883 0l.099.812l.815.064A4.494 4.494 0 0 1 26 19.239v2.26a6.496 6.496 0 0 0-1.2-12.363"/></symbol><symbol id="hd-icon-carbon-snow-density" viewBox="0 0 32 32"><path fill="currentColor" d="M16 28a9.01 9.01 0 0 1-9-9a10 10 0 0 1 1.494-4.955l6.659-10.608a1.04 1.04 0 0 1 1.694 0l6.63 10.556A10.06 10.06 0 0 1 25 19a9.01 9.01 0 0 1-9 9m0-22.152l-5.782 9.208A8 8 0 0 0 9 19a7 7 0 0 0 14 0a8.06 8.06 0 0 0-1.248-3.995Z"/><path fill="currentColor" d="m20.6 16.8l-1.2-1.6L17 17v-3h-2v3l-2.4-1.8l-1.2 1.6l2.933 2.2l-2.933 2.2l1.2 1.6L15 21v3h2v-3l2.4 1.8l1.2-1.6l-2.933-2.2z"/></symbol><symbol id="hd-icon-carbon-snow-heavy" viewBox="0 0 32 32"><path fill="currentColor" d="M4 26h2v2H4zm2 2h2v2H6zm2 2h2v2H8zm0-4h2v2H8zm-4 4h2v2H4zm4-12h2v2H8zm2 2h2v2h-2zm2 2h2v2h-2zm0-4h2v2h-2zm-4 4h2v2H8zm10-4h2v2h-2zm2 2h2v2h-2zm2 2h2v2h-2zm0-4h2v2h-2zm-4 4h2v2h-2zm-4 4h2v2h-2zm2 2h2v2h-2zm2 2h2v2h-2zm0-4h2v2h-2zm-4 4h2v2h-2z"/><path fill="currentColor" d="M24.8 9.136a8.994 8.994 0 0 0-17.6 0A6.496 6.496 0 0 0 6 21.5v-2.26a4.494 4.494 0 0 1 2.144-8.22l.816-.064l.099-.812a6.994 6.994 0 0 1 13.883 0l.099.812l.815.064A4.494 4.494 0 0 1 26 19.239v2.26a6.496 6.496 0 0 0-1.2-12.363"/></symbol><symbol id="hd-icon-carbon-snow-scattered" viewBox="0 0 32 32"><path fill="currentColor" d="M2 26h2v2H2zm2 2h2v2H4zm2 2h2v2H6zm0-4h2v2H6zm-4 4h2v2H2zm18-4h2v2h-2zm2 2h2v2h-2zm2 2h2v2h-2zm0-4h2v2h-2zm-4 4h2v2h-2zm-9-4h2v2h-2zm2 2h2v2h-2zm2 2h2v2h-2zm0-4h2v2h-2zm-4 4h2v2h-2zm9-30h2v3h-2zm9 10.001h3v2h-3zm-2.536-4.879L28.586 3L30 4.414l-2.122 2.122zM28.586 19l-2.122-2.12l1.414-1.415L30 17.587zM14.122 6.536L12 4.414L13.414 3l2.122 2.122z"/><path fill="currentColor" d="M27 11a5.985 5.985 0 0 0-10.857-3.492A7.4 7.4 0 0 0 13.5 7a7.55 7.55 0 0 0-7.15 5.244A5.993 5.993 0 0 0 8 24h11a5.967 5.967 0 0 0 5.567-8.2A5.97 5.97 0 0 0 27 11m-8 11H8a3.993 3.993 0 0 1-.673-7.93l.663-.112l.145-.656a5.496 5.496 0 0 1 10.73 0l.145.656l.663.113A3.993 3.993 0 0 1 19 22m4.522-7.913a5.96 5.96 0 0 0-2.873-1.843a7.52 7.52 0 0 0-2.722-3.78a3.987 3.987 0 1 1 5.595 5.623"/></symbol><symbol id="hd-icon-carbon-snow-scattered-night" viewBox="0 0 32 32"><path fill="currentColor" d="M2 26h2v2H2zm2 2h2v2H4zm2 2h2v2H6zm0-4h2v2H6zm-4 4h2v2H2zm18-4h2v2h-2zm2 2h2v2h-2zm2 2h2v2h-2zm0-4h2v2h-2zm-4 4h2v2h-2zm-9-4h2v2h-2zm2 2h2v2h-2zm2 2h2v2h-2zm0-4h2v2h-2zm-4 4h2v2h-2zm18.844-16.965a1.52 1.52 0 0 0-1.23-.866a5.36 5.36 0 0 1-3.41-1.716a6.47 6.47 0 0 1-1.286-6.392a1.6 1.6 0 0 0-.299-1.546a1.45 1.45 0 0 0-1.36-.493l-.019.003A7.77 7.77 0 0 0 16.356 7.6A7.4 7.4 0 0 0 13.5 7a7.55 7.55 0 0 0-7.15 5.244A5.993 5.993 0 0 0 8 24h11a6.007 6.007 0 0 0 6-6c0-.057-.012-.111-.014-.168a7.5 7.5 0 0 0 4.761-3.277a1.54 1.54 0 0 0 .097-1.52M19 22H8a3.993 3.993 0 0 1-.673-7.93l.663-.112l.145-.656a5.496 5.496 0 0 1 10.73 0l.145.656l.663.113A3.993 3.993 0 0 1 19 22m5.597-6.129a5.97 5.97 0 0 0-3.948-3.627a7.5 7.5 0 0 0-2.489-3.58a5.9 5.9 0 0 1 3.638-4.447a8.46 8.46 0 0 0 1.94 7.597a7.4 7.4 0 0 0 3.902 2.227a5.45 5.45 0 0 1-3.043 1.83"/></symbol><symbol id="hd-icon-carbon-snowflake" viewBox="0 0 32 32"><path fill="currentColor" d="M21.415 12H28v-2h-4.585L28 5.415L26.586 4L22 8.587V4h-2v6.587L18.587 12H17V8h-2v4h-1.587L12 10.587V4h-2v4.587L5.414 4L4 5.415L8.585 10H4v2h6.585L12 13.415V15H8v2h4v1.587L10.587 20H4v2h4.587L4 26.586l1.414 1.415L10 23.415V28h2v-6.585L13.415 20H15v4h2v-4h1.585L20 21.415V28h2v-4.585l4.585 4.586L28 26.586L23.413 22H28v-2h-6.587L20 18.587V17h4v-2h-4v-1.585ZM18 18h-4v-4h4Z"/></symbol><symbol id="hd-icon-carbon-soccer" viewBox="0 0 32 32"><circle cx="17" cy="28" r="2" fill="currentColor"/><path fill="currentColor" d="M8 20.586L13.586 15L15 16.414L9.414 22z"/><path fill="currentColor" d="M28 16.584L19.414 8H6v2h12.586l3 3L6 28.586L7.414 30L23 14.415L26.584 18L23 21.586L24.414 23L28 19.416a2.004 2.004 0 0 0 0-2.832M24.5 9A3.5 3.5 0 1 1 28 5.5A3.504 3.504 0 0 1 24.5 9m0-5A1.5 1.5 0 1 0 26 5.5A1.5 1.5 0 0 0 24.5 4"/></symbol><symbol id="hd-icon-carbon-software-resource" viewBox="0 0 32 32"><path fill="currentColor" d="M29.391 14.527L17.473 2.609A2.08 2.08 0 0 0 16 2c-.533 0-1.067.203-1.473.609L2.609 14.527C2.203 14.933 2 15.466 2 16s.203 1.067.609 1.473L14.526 29.39c.407.407.941.61 1.474.61s1.067-.203 1.473-.609L29.39 17.474c.407-.407.61-.94.61-1.474s-.203-1.067-.609-1.473M16 28.036L3.965 16L16 3.964L28.036 16z"/></symbol><symbol id="hd-icon-carbon-software-resource-cluster" viewBox="0 0 32 32"><path fill="currentColor" d="M24 21c-.5 0-1-.2-1.4-.6l-3-3c-.4-.4-.6-.9-.6-1.4s.2-1 .6-1.4l3-3c.4-.4.9-.6 1.4-.6s1 .2 1.4.6l3 3c.4.4.6.9.6 1.4s-.2 1-.6 1.4l-3 3c-.4.4-.9.6-1.4.6m0-8l-3 3l3 3l3-3zm-8 0c-.5 0-1-.2-1.4-.6l-3-3C11.2 9 11 8.5 11 8s.2-1 .6-1.4l3-3c.4-.4.9-.6 1.4-.6s1 .2 1.4.6l3 3c.4.4.6.9.6 1.4s-.2 1-.6 1.4l-3 3c-.4.4-.9.6-1.4.6m0-8l-3 3l3 3l3-3zm0 24c-.5 0-1-.2-1.4-.6l-3-3c-.4-.4-.6-.9-.6-1.4s.2-1 .6-1.4l3-3c.4-.4.9-.6 1.4-.6s1 .2 1.4.6l3 3c.4.4.6.9.6 1.4s-.2 1-.6 1.4l-3 3c-.4.4-.9.6-1.4.6m0-8l-3 3l3 3l3-3zm-8 0c-.5 0-1-.2-1.4-.6l-3-3C3.2 17 3 16.5 3 16s.2-1 .6-1.4l3-3c.4-.4.9-.6 1.4-.6s1 .2 1.4.6l3 3c.4.4.6.9.6 1.4s-.2 1-.6 1.4l-3 3c-.4.4-.9.6-1.4.6m0-8l-3 3l3 3l3-3z"/></symbol><symbol id="hd-icon-carbon-software-resource-resource" viewBox="0 0 32 32"><path fill="currentColor" d="m6.899 10.283l3.394-3.394l1.414 1.414l-3.394 3.394zM4.9 19.7l-2.3-2.3C2.2 17 2 16.5 2 16s.2-1 .6-1.4l2.3-2.3l1.4 1.4L4 16l2.3 2.3zm1.989 2.007l1.414-1.414l3.394 3.394l-1.414 1.414zM16 30c-.5 0-1-.2-1.4-.6l-2.3-2.3l1.4-1.4L16 28l2.3-2.3l1.4 1.4l-2.3 2.3c-.4.4-.9.6-1.4.6m4.293-6.303l3.394-3.394l1.414 1.414l-3.394 3.394zM27.1 19.7l-1.4-1.4L28 16l-2.3-2.3l1.4-1.4l2.3 2.3c.4.4.6.9.6 1.4s-.2 1-.6 1.4zM20.303 8.313l1.414-1.414l3.394 3.394l-1.414 1.414zM16 2c-.5 0-1 .2-1.4.6l-2.3 2.3l1.4 1.4L16 4l2.3 2.3l1.4-1.4l-2.3-2.3C17 2.2 16.5 2 16 2"/></symbol><symbol id="hd-icon-carbon-soil-moisture" viewBox="0 0 32 32"><path fill="currentColor" d="M24.5 28a5.385 5.385 0 0 1-5.5-5.249a5.4 5.4 0 0 1 .874-2.83l3.616-5.383a1.217 1.217 0 0 1 2.02 0l3.55 5.277a5.5 5.5 0 0 1 .94 2.936A5.385 5.385 0 0 1 24.5 28m0-11.38l-2.936 4.367A3.36 3.36 0 0 0 21 22.751a3.51 3.51 0 0 0 7 0a3.44 3.44 0 0 0-.63-1.867Z"/><circle cx="5" cy="13" r="1" fill="currentColor"/><circle cx="11" cy="19" r="1" fill="currentColor"/><circle cx="15" cy="25" r="1" fill="currentColor"/><circle cx="17" cy="15" r="1" fill="currentColor"/><circle cx="13" cy="11" r="1" fill="currentColor"/><circle cx="27" cy="11" r="1" fill="currentColor"/><circle cx="9" cy="27" r="1" fill="currentColor"/><circle cx="3" cy="21" r="1" fill="currentColor"/><path fill="currentColor" d="M2 6h28v2H2z"/></symbol><symbol id="hd-icon-carbon-soil-moisture-field" viewBox="0 0 32 32"><path fill="currentColor" d="M24.5 30a5.202 5.202 0 0 1-4.626-8.08l3.616-5.382a1.217 1.217 0 0 1 2.02 0l3.55 5.277a5.5 5.5 0 0 1 .94 2.936A5.385 5.385 0 0 1 24.5 30m0-11.38l-2.936 4.367A3.208 3.208 0 0 0 24.5 28a3.386 3.386 0 0 0 3.5-3.249a3.44 3.44 0 0 0-.63-1.867ZM11 16v-5h1a4.005 4.005 0 0 0 4-4V4h-3a3.98 3.98 0 0 0-2.747 1.107A6 6 0 0 0 5 2H2v3a6.007 6.007 0 0 0 6 6h1v5H2v2h14v-2Zm2-10h1v1a2 2 0 0 1-2 2h-1V8a2 2 0 0 1 2-2M8 9a4.005 4.005 0 0 1-4-4V4h1a4.005 4.005 0 0 1 4 4v1ZM2 21h14v2H2zm0 5h14v2H2z"/></symbol><symbol id="hd-icon-carbon-soil-moisture-global" viewBox="0 0 32 32"><path fill="currentColor" d="M25 30a4.735 4.735 0 0 1-4.207-7.35l3.368-5.194a1 1 0 0 1 1.678 0l3.315 5.11A4.97 4.97 0 0 1 30 25.223A4.9 4.9 0 0 1 25 30m0-10.163l-2.508 3.866A2.926 2.926 0 1 0 28 25.223a2.96 2.96 0 0 0-.544-1.603ZM11 24H9A17.02 17.02 0 0 1 26 7h4v2h-4a15.017 15.017 0 0 0-15 15"/><path fill="currentColor" d="M16 24h-2a12.014 12.014 0 0 1 12-12h4v2h-4a10.01 10.01 0 0 0-10 10"/><path fill="currentColor" d="M26 2a21.86 21.86 0 0 0-12 3.576A21.86 21.86 0 0 0 2 2v2a19.9 19.9 0 0 1 10.262 2.835a22 22 0 0 0-2.315 2.144A17 17 0 0 0 2 7v2a15 15 0 0 1 6.62 1.537a22 22 0 0 0-1.702 2.537A12 12 0 0 0 2 12v2a9.9 9.9 0 0 1 4 .85A21.9 21.9 0 0 0 4 24h2A20.023 20.023 0 0 1 26 4h4V2Z"/></symbol><symbol id="hd-icon-carbon-soil-temperature" viewBox="0 0 32 32"><circle cx="5" cy="13" r="1" fill="currentColor"/><circle cx="11" cy="19" r="1" fill="currentColor"/><circle cx="15" cy="25" r="1" fill="currentColor"/><circle cx="17" cy="15" r="1" fill="currentColor"/><circle cx="13" cy="11" r="1" fill="currentColor"/><circle cx="9" cy="27" r="1" fill="currentColor"/><circle cx="3" cy="21" r="1" fill="currentColor"/><path fill="currentColor" d="M25 30a4.986 4.986 0 0 1-3-8.98V15a3 3 0 0 1 6 0v6.02A4.986 4.986 0 0 1 25 30m0-16a1 1 0 0 0-1 1v7.13l-.497.29A2.97 2.97 0 0 0 22 25a3 3 0 0 0 6 0a2.97 2.97 0 0 0-1.503-2.581L26 22.13V15a1 1 0 0 0-1-1M2 6h28v2H2z"/></symbol><symbol id="hd-icon-carbon-soil-temperature-field" viewBox="0 0 32 32"><path fill="currentColor" d="M11 16v-5h1a4.005 4.005 0 0 0 4-4V4h-3a3.98 3.98 0 0 0-2.747 1.107A6 6 0 0 0 5 2H2v3a6.007 6.007 0 0 0 6 6h1v5H2v2h14v-2Zm2-10h1v1a2 2 0 0 1-2 2h-1V8a2 2 0 0 1 2-2M8 9a4.005 4.005 0 0 1-4-4V4h1a4.005 4.005 0 0 1 4 4v1ZM2 21h14v2H2zm0 5h14v2H2zm23 4a4.986 4.986 0 0 1-3-8.98V15a3 3 0 0 1 6 0v6.02A4.986 4.986 0 0 1 25 30m0-16a1 1 0 0 0-1 1v7.13l-.497.29A2.97 2.97 0 0 0 22 25a3 3 0 0 0 6 0a2.97 2.97 0 0 0-1.503-2.581L26 22.13V15a1 1 0 0 0-1-1"/></symbol><symbol id="hd-icon-carbon-soil-temperature-global" viewBox="0 0 32 32"><path fill="currentColor" d="M25 30a4.986 4.986 0 0 1-3-8.98V15a3 3 0 0 1 6 0v6.02A4.986 4.986 0 0 1 25 30m0-16a1 1 0 0 0-1 1v7.13l-.497.29A2.97 2.97 0 0 0 22 25a3 3 0 0 0 6 0a2.97 2.97 0 0 0-1.503-2.581L26 22.13V15a1 1 0 0 0-1-1m-9 10h-2a11.9 11.9 0 0 1 3.764-8.727l1.373 1.454A9.9 9.9 0 0 0 16 24"/><path fill="currentColor" d="M11 24H9A17.02 17.02 0 0 1 26 7h4v2h-4a15.017 15.017 0 0 0-15 15"/><path fill="currentColor" d="M26 2a21.86 21.86 0 0 0-12 3.576A21.86 21.86 0 0 0 2 2v2a19.9 19.9 0 0 1 10.262 2.835a22 22 0 0 0-2.315 2.144A17 17 0 0 0 2 7v2a15 15 0 0 1 6.62 1.537a22 22 0 0 0-1.702 2.537A12 12 0 0 0 2 12v2a9.9 9.9 0 0 1 4 .85A21.9 21.9 0 0 0 4 24h2A20.023 20.023 0 0 1 26 4h4V2Z"/></symbol><symbol id="hd-icon-carbon-solar-panel" viewBox="0 0 32 32"><path fill="currentColor" d="M30 26V14H13v12h5v2H2v2h28v-2h-5v-2Zm-5-2v-3h3v3Zm-2-3v3h-3v-3Zm-3-2v-3h3v3Zm8 0h-3v-3h3Zm-10-3v3h-3v-3Zm-3 8v-3h3v3Zm8 4h-3v-2h3ZM9.333 14.981A4 4 0 1 1 16 12h-2a2 2 0 1 0-3.333 1.49ZM11 2h2v4h-2zm-9 9h4v2H2zm2.222-5.364l1.414-1.414L8.464 7.05L7.05 8.464zM16.95 8.464L15.536 7.05l2.828-2.828l1.414 1.414z"/></symbol><symbol id="hd-icon-carbon-sort-ascending" viewBox="0 0 32 32"><path fill="currentColor" d="m18 22l1.414-1.414L23 24.172V4h2v20.172l3.586-3.586L30 22l-6 6zM2 18h14v2H2zm4-6h10v2H6zm4-6h6v2h-6z"/></symbol><symbol id="hd-icon-carbon-sort-descending" viewBox="0 0 32 32"><path fill="currentColor" d="m18 22l1.414-1.414L23 24.172V4h2v20.172l3.586-3.586L30 22l-6 6zM2 6h14v2H2zm4 6h10v2H6zm4 6h6v2h-6z"/></symbol><symbol id="hd-icon-carbon-sort-remove" viewBox="0 0 32 32"><path fill="currentColor" d="M30 19.415L28.586 18L25 21.587L21.414 18L20 19.415L23.586 23L20 26.586L21.414 28L25 24.414L28.586 28L30 26.586L26.414 23zM10 18h6v2h-6zM2 6h14v2H2zm4 6h10v2H6z"/></symbol><symbol id="hd-icon-carbon-sorting-a-to-z" viewBox="0 0 32 32"><path fill="currentColor" d="M11 13c0-1.103-.897-2-2-2H4v2h5v2H5a2 2 0 0 0-2 2v2a2 2 0 0 0 2 2h6zm-2 6H5v-2h4zm7-17l-5 6h10zm0 28l5-6H11zm13-19h-8v2h5.5L21 19v2h8v-2h-5.493L29 13zm-10 6v-2h-6v2z"/></symbol><symbol id="hd-icon-carbon-sorting-highest-to-lowest-number" viewBox="0 0 32 32"><path fill="currentColor" d="m15.976 2l-5 6h10zm0 28l5-6h-10zm9-11v-8h-2v1h-2v2h2v5h-2v2h6v-2zm-14 0h-4v-2h2c1.102 0 2-.897 2-2v-2c0-1.103-.898-2-2-2h-4v2h4v2h-2c-1.103 0-2 .897-2 2v4h6zm8-2v-2h-6v2z"/></symbol><symbol id="hd-icon-carbon-sorting-lowest-to-highest-number" viewBox="0 0 32 32"><path fill="currentColor" d="m15.976 2l-5 6h10zm0 28l5-6h-10zm-5-11h-2v-8h-2v1h-2v2h2v5h-2v2h6zm14-2c1.102 0 2-.897 2-2v-2c0-1.103-.898-2-2-2h-4v2h4v2h-2c-1.103 0-2 .897-2 2v4h6v-2h-4v-2zm-6 0v-2h-6v2z"/></symbol><symbol id="hd-icon-carbon-sorting-z-to-a" viewBox="0 0 32 32"><path fill="currentColor" d="M27 11h-5v2h5v2h-4a2 2 0 0 0-2 2v2a2 2 0 0 0 2 2h6v-8c0-1.103-.897-2-2-2m0 8h-4v-2h4zM16 2l-5 6h10zm0 28l5-6H11zm-5-11H5.507L11 13v-2H3v2h5.5L3 19v2h8zm8-2v-2h-6v2z"/></symbol><symbol id="hd-icon-carbon-source-control" viewBox="0 0 32 32"><path fill="currentColor" d="M27 12c0-2.206-1.794-4-4-4s-4 1.794-4 4c0 1.858 1.28 3.411 3 3.858V17a1 1 0 0 1-1 1H11c-.352 0-.686.072-1 .184V9.858c1.72-.447 3-2 3-3.858c0-2.206-1.794-4-4-4S5 3.794 5 6c0 1.858 1.28 3.411 3 3.858v12.284c-1.72.447-3 2-3 3.858c0 2.206 1.794 4 4 4s4-1.794 4-4c0-1.858-1.28-3.41-3-3.858V21a1 1 0 0 1 1-1h10c1.654 0 3-1.346 3-3v-1.142c1.72-.447 3-2 3-3.858M11 26c0 1.103-.897 2-2 2s-2-.897-2-2s.898-2 2-2s2 .897 2 2M7 6c0-1.103.898-2 2-2s2 .897 2 2s-.897 2-2 2s-2-.897-2-2m16 8c-1.102 0-2-.897-2-2s.898-2 2-2s2 .897 2 2s-.897 2-2 2"/></symbol><symbol id="hd-icon-carbon-spell-check" viewBox="0 0 32 32"><path fill="currentColor" d="M20 22h2l-5-12h-2l-5 12h2l1.24-3h5.53Zm-5.93-5l1.82-4.42h.25L18 17Z"/><path fill="currentColor" d="M12 28H6a2 2 0 0 1-2-2V6a2 2 0 0 1 2-2h20a2 2 0 0 1 2 2v11h-2V6H6v20h6Zm11-.82l-2.59-2.59L19 26l4 4l7-7l-1.41-1.41z"/></symbol><symbol id="hd-icon-carbon-spine-label" viewBox="0 0 32 32"><path d="M3 11v2h5.59l-6.3 6.29l1.42 1.42l6.29-6.3V20h2v-9H3z" fill="currentColor"/><path d="M26 13h-3v-1h-2v1h-3a2 2 0 0 0-2 2v2a2 2 0 0 0 2 2h3v1h2v-1h3a2 2 0 0 0 2-2v-2a2 2 0 0 0-2-2zm-8 4v-2h8v2z" fill="currentColor"/><path d="M26 23h-3v-1h-2v1h-3a2 2 0 0 0-2 2v2a2 2 0 0 0 2 2h3v1h2v-1h3a2 2 0 0 0 2-2v-2a2 2 0 0 0-2-2zm-8 4v-2h8v2z" fill="currentColor"/><path d="M26 3h-3V2h-2v1h-3a2 2 0 0 0-2 2v2a2 2 0 0 0 2 2h3v1h2V9h3a2 2 0 0 0 2-2V5a2 2 0 0 0-2-2zm-8 4V5h8v2z" fill="currentColor"/></symbol><symbol id="hd-icon-carbon-split" viewBox="0 0 32 32"><path fill="currentColor" d="M15 20h2v4h-2zm0-6h2v4h-2zm0-6h2v4h-2z"/><path fill="currentColor" d="M28 16A12.01 12.01 0 0 0 17 4.05V2h-2v2.05a11.99 11.99 0 0 0 0 23.9V30h2v-2.05A12.01 12.01 0 0 0 28 16M16 26a10 10 0 1 1 10-10a10.01 10.01 0 0 1-10 10"/></symbol><symbol id="hd-icon-carbon-split-discard" viewBox="0 0 32 32"><path d="M28 16A12.01 12.01 0 0 0 17 4.05V2h-2v2.05a11.99 11.99 0 0 0 0 23.9V30h2v-2.05A12.01 12.01 0 0 0 28 16zM16 26V6a10 10 0 0 1 0 20z" fill="currentColor"/></symbol><symbol id="hd-icon-carbon-split-screen" viewBox="0 0 32 32"><path fill="currentColor" d="M15 4h2v24h-2zm-5 3v18H4V7zm0-2H4a2 2 0 0 0-2 2v18a2 2 0 0 0 2 2h6a2 2 0 0 0 2-2V7a2 2 0 0 0-2-2m18 2v18h-6V7zm0-2h-6a2 2 0 0 0-2 2v18a2 2 0 0 0 2 2h6a2 2 0 0 0 2-2V7a2 2 0 0 0-2-2"/></symbol><symbol id="hd-icon-carbon-spray-paint" viewBox="0 0 32 32"><path fill="currentColor" d="M22.5 23a4.5 4.5 0 1 1 4.5-4.5a4.505 4.505 0 0 1-4.5 4.5m0-7a2.5 2.5 0 1 0 2.5 2.5a2.503 2.503 0 0 0-2.5-2.5"/><path fill="currentColor" d="M28 8h-2V3h-7v5h-2a2 2 0 0 0-2 2v18a2 2 0 0 0 2 2h11a2.003 2.003 0 0 0 2-2V10a2 2 0 0 0-2-2m-7-3h3v3h-3Zm-4 23V10h11l.002 18ZM2 14h3v3H2zm5-5h3v3H7zM2 9h3v3H2zm10-5h3v3h-3zM7 4h3v3H7zM2 4h3v3H2z"/></symbol><symbol id="hd-icon-carbon-sprout" viewBox="0 0 32 32"><path fill="currentColor" d="M25 2a11.01 11.01 0 0 0-10.245 7.024A7 7 0 0 0 9 6H6v3a7.01 7.01 0 0 0 7 7h1v9.05a9.92 9.92 0 0 0-6.071 2.879l1.414 1.414a8 8 0 0 1 12.309 1.213l1.661-1.113A9.98 9.98 0 0 0 16 25.062V16h1A11.013 11.013 0 0 0 28 5V2ZM13 14a5.006 5.006 0 0 1-5-5V8h1a5.005 5.005 0 0 1 5 5v1Zm13-9a9.01 9.01 0 0 1-9 9h-1v-1a9.01 9.01 0 0 1 9-9h1Z"/></symbol><symbol id="hd-icon-carbon-spyre-accelerator" viewBox="0 0 32 32"><path fill="currentColor" d="M7 17a1 1 0 1 0 0-2a1 1 0 0 0 0 2m0-4a1 1 0 1 0 0-2a1 1 0 0 0 0 2m6 4a1 1 0 1 0 0-2a1 1 0 0 0 0 2m0-4a1 1 0 1 0 0-2a1 1 0 0 0 0 2m12 4a1 1 0 1 0 0-2a1 1 0 0 0 0 2m0-4a1 1 0 1 0 0-2a1 1 0 0 0 0 2M2 7v17h6v-3h3v4h16v-4h3V7zm23 16H13v-2h12zm3-4H6v3H4V9h24zm-6-8h-6v6h6zm-2 4h-2v-2h2z"/></symbol><symbol id="hd-icon-carbon-sql" viewBox="0 0 32 32"><path fill="currentColor" d="M24 21V9h-2v14h8v-2zM18 9h-4a2 2 0 0 0-2 2v10a2 2 0 0 0 2 2h1v2a2 2 0 0 0 2 2h2v-2h-2v-2h1a2 2 0 0 0 2-2V11a2 2 0 0 0-2-2m-4 12V11h4v10Zm-6 2H2v-2h6v-4H4a2 2 0 0 1-2-2v-4a2 2 0 0 1 2-2h6v2H4v4h4a2 2 0 0 1 2 2v4a2 2 0 0 1-2 2"/></symbol><symbol id="hd-icon-carbon-square-outline" viewBox="0 0 32 32"><path fill="currentColor" d="M26 4H6a2 2 0 0 0-2 2v20a2 2 0 0 0 2 2h20a2 2 0 0 0 2-2V6a2 2 0 0 0-2-2M6 26V6h20v20z"/></symbol><symbol id="hd-icon-carbon-stack-limitation" viewBox="0 0 32 32"><path fill="currentColor" d="M8 22h8v8H8zm16-10h-4v2h4v2h-3v2h3v2h-4v2h4a2.003 2.003 0 0 0 2-2v-6a2 2 0 0 0-2-2m-8 8H8v-8h8Zm-6-2h4v-4h-4Zm6-14.59L14.59 2L12 4.59L9.41 2L8 3.41L10.59 6L8 8.59L9.41 10L12 7.41L14.59 10L16 8.59L13.41 6z"/></symbol><symbol id="hd-icon-carbon-stacked-move" viewBox="0 0 32 32"><path d="M15 28H4a2 2 0 0 1-2-2V11a2 2 0 0 1 2-2h11a2 2 0 0 1 2 2v15a2 2 0 0 1-2 2zM4 11v15h11V11z" fill="currentColor"/><path d="M26 6l-1.41 1.41L27 10h-5V6a2 2 0 0 0-2-2H10v2h10v14h2v-8h5l-2.41 2.59L26 16l5-5z" fill="currentColor"/></symbol><symbol id="hd-icon-carbon-stacked-scrolling-1" viewBox="0 0 32 32"><path d="M18 30H4a2 2 0 0 1-2-2V14a2 2 0 0 1 2-2h14a2 2 0 0 1 2 2v14a2 2 0 0 1-2 2zM4 14v14h14V14z" fill="currentColor"/><path d="M25 23h-2V9H9V7h14a2 2 0 0 1 2 2z" fill="currentColor"/><path d="M30 16h-2V4H16V2h12a2 2 0 0 1 2 2z" fill="currentColor"/></symbol><symbol id="hd-icon-carbon-stacked-scrolling-2" viewBox="0 0 32 32"><path d="M8 30H2a2 2 0 0 1-2-2V14a2 2 0 0 1 2-2h6a2 2 0 0 1 2 2v14a2 2 0 0 1-2 2zM2 14v14h6V14z" fill="currentColor"/><path d="M20 30h-6a2 2 0 0 1-2-2V14a2 2 0 0 1 2-2h6a2 2 0 0 1 2 2v14a2 2 0 0 1-2 2zm-6-16v14h6V14z" fill="currentColor"/><path d="M27 21h-2V9h-8V7h8a2 2 0 0 1 2 2z" fill="currentColor"/><path d="M32 16h-2V4h-8V2h8a2 2 0 0 1 2 2z" fill="currentColor"/></symbol><symbol id="hd-icon-carbon-stamp" viewBox="0 0 32 32"><path fill="currentColor" d="M26 18h-6v-3.102a7.5 7.5 0 0 1 1.159-3.854a5.975 5.975 0 0 0-1.374-7.7a5.997 5.997 0 0 0-9.683 3.54a5.9 5.9 0 0 0 .748 4.174A7.26 7.26 0 0 1 12 14.794V18H6a2 2 0 0 0-2 2v4a2.003 2.003 0 0 0 2 2v2a2.003 2.003 0 0 0 2 2h16a2.003 2.003 0 0 0 2-2v-2a2.003 2.003 0 0 0 2-2v-4a2 2 0 0 0-2-2M12.07 7.244a4 4 0 1 1 7.373 2.773A9.8 9.8 0 0 0 18.066 14H13.94a9.54 9.54 0 0 0-1.376-3.974a3.94 3.94 0 0 1-.494-2.782M18 16v2h-4v-2Zm6 12H8v-2h16ZM6 24v-4h20v4Z"/></symbol><symbol id="hd-icon-carbon-star" viewBox="0 0 32 32"><path fill="currentColor" d="m16 6.52l2.76 5.58l.46 1l1 .15l6.16.89l-4.38 4.3l-.75.73l.18 1l1.05 6.13l-5.51-2.89L16 23l-.93.49l-5.51 2.85l1-6.13l.18-1l-.74-.77l-4.42-4.35l6.16-.89l1-.15l.46-1zM16 2l-4.55 9.22l-10.17 1.47l7.36 7.18L6.9 30l9.1-4.78L25.1 30l-1.74-10.13l7.36-7.17l-10.17-1.48Z"/></symbol><symbol id="hd-icon-carbon-star-filled" viewBox="0 0 32 32"><path fill="currentColor" d="m16 2l-4.55 9.22l-10.17 1.47l7.36 7.18L6.9 30l9.1-4.78L25.1 30l-1.74-10.13l7.36-7.17l-10.17-1.48Z"/></symbol><symbol id="hd-icon-carbon-star-half" viewBox="0 0 32 32"><path fill="currentColor" d="M11.45 11.22L1.28 12.7l7.36 7.17L6.9 30l9.1-4.78V2z"/></symbol><symbol id="hd-icon-carbon-star-review" viewBox="0 0 32 32"><path fill="currentColor" d="M18 26h8v2h-8zm0-4h12v2H18zm0-4h12v2H18z"/><path fill="currentColor" d="M20.549 11.217L16 2l-4.549 9.217L1.28 12.695l7.36 7.175L6.902 30L14 26.269v-2.26l-4.441 2.335l1.052-6.136l.178-1.037l-.753-.733l-4.458-4.347l6.161-.895l1.04-.151l.466-.943L16 6.519l2.755 5.583l.466.943l1.04.151l7.454 1.085L28 12.3z"/></symbol><symbol id="hd-icon-carbon-status-acknowledge" viewBox="0 0 32 32"><path d="M24 30a6 6 0 1 1 6-6a6.007 6.007 0 0 1-6 6zm0-10a4 4 0 1 0 4 4a4.005 4.005 0 0 0-4-4z" fill="currentColor"/><path d="M12 15.59L9.41 13L8 14.41l4 4l7-7L17.59 10L12 15.59z" fill="currentColor"/><path d="M14 24a10 10 0 1 1 10-10h2a12 12 0 1 0-12 12z" fill="currentColor"/></symbol><symbol id="hd-icon-carbon-status-change" viewBox="0 0 32 32"><path d="M7 30a5 5 0 1 1 5-5a5.006 5.006 0 0 1-5 5zm0-8a3 3 0 1 0 3 3a3.003 3.003 0 0 0-3-3z" fill="currentColor"/><path d="M23 30a5 5 0 1 1 5-5a5.006 5.006 0 0 1-5 5zm0-8a3 3 0 1 0 3 3a3.003 3.003 0 0 0-3-3z" fill="currentColor"/><path d="M24 7v7l3.586-3.414L29 12l-6 6l-6-6l1.414-1.414L22 14V7a1 1 0 0 0-1-1H9a1 1 0 0 0-1 1v11H6V7a3.003 3.003 0 0 1 3-3h12a3.003 3.003 0 0 1 3 3z" fill="currentColor"/></symbol><symbol id="hd-icon-carbon-status-partial-fail" viewBox="0 0 32 32"><path d="M25.14 23.764l1.532 1.285a13.976 13.976 0 0 0 2.441-4.182l-1.878-.683a11.973 11.973 0 0 1-2.094 3.58z" fill="currentColor"/><path d="M18 27.81l.413 1.968a13.889 13.889 0 0 0 4.541-1.638L22 26.409a12.52 12.52 0 0 1-4 1.401z" fill="currentColor"/><path d="M10 26.409L9 28.14a14.14 14.14 0 0 0 4.587 1.638l.347-1.967A12.152 12.152 0 0 1 10 26.409z" fill="currentColor"/><path d="M4.765 20.184l-1.878.683a13.976 13.976 0 0 0 2.44 4.182l1.532-1.285a11.973 11.973 0 0 1-2.094-3.58z" fill="currentColor"/><path d="M16 22a1.5 1.5 0 1 0 1.5 1.5A1.5 1.5 0 0 0 16 22z" fill="currentColor"/><path d="M15 8h2v11h-2z" fill="currentColor"/><path d="M30 16h-2a12 12 0 0 0-24 0H2a14 14 0 0 1 28 0z" fill="currentColor"/></symbol><symbol id="hd-icon-carbon-status-resolved" viewBox="0 0 32 32"><path d="M21 28.414l-5-5.001L17.413 22L21 25.586L28.585 18L30 19.415l-9 8.999z" fill="currentColor"/><path d="M12 15.59L9.41 13L8 14.41l4 4l7-7L17.59 10L12 15.59z" fill="currentColor"/><path d="M11.82 25.802a11.992 11.992 0 1 1 13.982-9.621l-1.967-.362a10.001 10.001 0 1 0-11.654 8.016z" fill="currentColor"/></symbol><symbol id="hd-icon-carbon-stay-inside" viewBox="0 0 32 32"><path fill="currentColor" d="M23 30h-2v-2a3.003 3.003 0 0 0-3-3h-4a3.003 3.003 0 0 0-3 3v2H9v-2a5.006 5.006 0 0 1 5-5h4a5.006 5.006 0 0 1 5 5Zm-7-17a3 3 0 1 1-3 3a3 3 0 0 1 3-3m0-2a5 5 0 1 0 5 5a5 5 0 0 0-5-5"/><path fill="currentColor" d="M30 30h-2V14.464L16 4.31L4 14.464V30H2V14a1 1 0 0 1 .354-.763l13-11a1 1 0 0 1 1.292 0l13 11A1 1 0 0 1 30 14Z"/></symbol><symbol id="hd-icon-carbon-stem-leaf-plot" viewBox="0 0 32 32"><path fill="currentColor" d="M19 10a3 3 0 1 1 3-3a3.003 3.003 0 0 1-3 3m0-4a1 1 0 1 0 1 1a1 1 0 0 0-1-1m0 13a3 3 0 1 1 3-3a3.003 3.003 0 0 1-3 3m0-4a1 1 0 1 0 1 1a1 1 0 0 0-1-1m8 4a3 3 0 1 1 3-3a3.003 3.003 0 0 1-3 3m0-4a1 1 0 1 0 1 1a1 1 0 0 0-1-1m-8 13a3 3 0 1 1 3-3a3.003 3.003 0 0 1-3 3m0-4a1 1 0 1 0 1 1a1 1 0 0 0-1-1M12 2h2v28h-2zM7 28a3 3 0 1 1 3-3a3.003 3.003 0 0 1-3 3m0-4a1 1 0 1 0 1 1a1 1 0 0 0-1-1m0-5a3 3 0 1 1 3-3a3.003 3.003 0 0 1-3 3m0-4a1 1 0 1 0 1 1a1 1 0 0 0-1-1m0-5a3 3 0 1 1 3-3a3.003 3.003 0 0 1-3 3m0-4a1 1 0 1 0 1 1a1 1 0 0 0-1-1"/></symbol><symbol id="hd-icon-carbon-stethoscope" viewBox="0 0 32 32"><path fill="currentColor" d="M24 2v2h2v6a4 4 0 0 1-8 0V4h2V2h-4v8a6.005 6.005 0 0 0 5 5.91V22a6 6 0 0 1-12 0v-6.142a4 4 0 1 0-2 0V22a8 8 0 0 0 16 0v-6.09A6.005 6.005 0 0 0 28 10V2ZM6 12a2 2 0 1 1 2 2a2 2 0 0 1-2-2"/></symbol><symbol id="hd-icon-carbon-stickies" viewBox="0 0 32 32"><path fill="currentColor" d="M30 22V10c0-1.1-.9-2-2-2H12c-1.1 0-2 .9-2 2v18c0 1.1.9 2 2 2h10c.3 0 .5-.1.7-.3l7-7c.2-.2.3-.4.3-.7m-8 0h5.6L22 27.6zm6-2h-6c-1.1 0-2 .9-2 2v6h-8V10h16z"/><path fill="currentColor" d="M4 22V4h16v2h2V4c0-1.1-.9-2-2-2H4c-1.1 0-2 .9-2 2v18c0 1.1.9 2 2 2h4v-2z"/></symbol><symbol id="hd-icon-carbon-stop" viewBox="0 0 32 32"><path fill="currentColor" d="M24 8v16H8V8zm0-2H8a2 2 0 0 0-2 2v16a2 2 0 0 0 2 2h16a2 2 0 0 0 2-2V8a2 2 0 0 0-2-2"/></symbol><symbol id="hd-icon-carbon-stop-filled" viewBox="0 0 32 32"><path fill="currentColor" d="M16 2a14 14 0 1 0 14 14A14 14 0 0 0 16 2m6 18a2 2 0 0 1-2 2h-8a2 2 0 0 1-2-2v-8a2 2 0 0 1 2-2h8a2 2 0 0 1 2 2Z"/></symbol><symbol id="hd-icon-carbon-stop-filled-alt" viewBox="0 0 32 32"><path fill="currentColor" d="M24 6H8a2 2 0 0 0-2 2v16a2 2 0 0 0 2 2h16a2 2 0 0 0 2-2V8a2 2 0 0 0-2-2"/></symbol><symbol id="hd-icon-carbon-stop-outline" viewBox="0 0 32 32"><path fill="currentColor" d="M16 4A12 12 0 1 1 4 16A12 12 0 0 1 16 4m0-2a14 14 0 1 0 14 14A14 14 0 0 0 16 2"/><path fill="currentColor" d="M20 12v8h-8v-8zm0-2h-8a2 2 0 0 0-2 2v8a2 2 0 0 0 2 2h8a2 2 0 0 0 2-2v-8a2 2 0 0 0-2-2"/></symbol><symbol id="hd-icon-carbon-stop-outline-filled" viewBox="0 0 32 32"><path fill="currentColor" d="M16 2a14 14 0 1 0 14 14A14 14 0 0 0 16 2m6 18a2 2 0 0 1-2 2h-8a2 2 0 0 1-2-2v-8a2 2 0 0 1 2-2h8a2 2 0 0 1 2 2Z"/><path fill="currentColor" d="M12 12h8v8h-8z"/></symbol><symbol id="hd-icon-carbon-stop-sign" viewBox="0 0 32 32"><path fill="currentColor" d="M20.586 29h-9.172A2 2 0 0 1 10 28.414L3.586 22A2 2 0 0 1 3 20.586v-9.172A2 2 0 0 1 3.586 10L10 3.586A2 2 0 0 1 11.414 3h9.172A2 2 0 0 1 22 3.586L28.414 10A2 2 0 0 1 29 11.414v9.172A2 2 0 0 1 28.414 22L22 28.414a2 2 0 0 1-1.414.586M11.414 5L5 11.414v9.172L11.414 27h9.172L27 20.586v-9.172L20.586 5z"/></symbol><symbol id="hd-icon-carbon-stop-sign-filled" viewBox="0 0 32 32"><path fill="currentColor" d="M20.586 29h-9.172A2 2 0 0 1 10 28.414L3.586 22A2 2 0 0 1 3 20.586v-9.172A2 2 0 0 1 3.586 10L10 3.586A2 2 0 0 1 11.414 3h9.172A2 2 0 0 1 22 3.586L28.414 10A2 2 0 0 1 29 11.414v9.172A2 2 0 0 1 28.414 22L22 28.414a2 2 0 0 1-1.414.586"/></symbol><symbol id="hd-icon-carbon-storage-pool" viewBox="0 0 32 32"><path fill="currentColor" d="M28 30H4a2 2 0 0 1-2-2V4a2 2 0 0 1 2-2h24a2 2 0 0 1 2 2v24a2 2 0 0 1-2 2M4 4v24h24V4Z"/><path fill="currentColor" d="M17.5 13A3.5 3.5 0 1 1 21 9.5a3.504 3.504 0 0 1-3.5 3.5m0-5A1.5 1.5 0 1 0 19 9.5A1.5 1.5 0 0 0 17.5 8m-3 18a3.5 3.5 0 1 1 3.5-3.5a3.504 3.504 0 0 1-3.5 3.5m0-5a1.5 1.5 0 1 0 1.5 1.5a1.5 1.5 0 0 0-1.5-1.5m-5-3a3.5 3.5 0 1 1 3.5-3.5A3.504 3.504 0 0 1 9.5 18m0-5a1.5 1.5 0 1 0 1.5 1.5A1.5 1.5 0 0 0 9.5 13m13 8a3.5 3.5 0 1 1 3.5-3.5a3.504 3.504 0 0 1-3.5 3.5m0-5a1.5 1.5 0 1 0 1.5 1.5a1.5 1.5 0 0 0-1.5-1.5"/></symbol><symbol id="hd-icon-carbon-storage-request" viewBox="0 0 32 32"><path fill="currentColor" d="M4 21H2v3a2.006 2.006 0 0 0 2 2h3v-2H4ZM4 8h3V6H4a2.006 2.006 0 0 0-2 2v3h2Zm13-2h6v2h-6zM9 6h6v2H9zm8 18h6v2h-6zm11-9H4v-2H2v6h2v-2h24v2h2v-6h-2zm0 9h-3v2h3a2.006 2.006 0 0 0 2-2v-3h-2Zm0-18h-3v2h3v3h2V8a2.006 2.006 0 0 0-2-2M9 24h6v2H9z"/><circle cx="7" cy="12" r="1" fill="currentColor"/><circle cx="7" cy="20" r="1" fill="currentColor"/></symbol><symbol id="hd-icon-carbon-store" viewBox="0 0 32 32"><path fill="currentColor" d="m30 10.68l-2-6A1 1 0 0 0 27 4H5a1 1 0 0 0-1 .68l-2 6A1.2 1.2 0 0 0 2 11v6a1 1 0 0 0 1 1h1v10h2V18h6v10h16V18h1a1 1 0 0 0 1-1v-6a1.2 1.2 0 0 0 0-.32M26 26H14v-8h12Zm2-10h-4v-4h-2v4h-5v-4h-2v4h-5v-4H8v4H4v-4.84L5.72 6h20.56L28 11.16Z"/></symbol><symbol id="hd-icon-carbon-storm-tracker" viewBox="0 0 32 32"><path fill="currentColor" d="M16 2a1 1 0 0 0-.974.771l-1.722 7.322a10.065 10.065 0 1 0 8.603 8.603l7.322-1.722A1 1 0 0 0 30 16A14.016 14.016 0 0 0 16 2m-4.707 18.707A1 1 0 0 0 12 21a1 1 0 0 0 .229-.026l3.762-.886a3.996 3.996 0 1 1-4.08-4.08l-.885 3.763a1 1 0 0 0 .267.936m2.05-2.05l2.271-9.65a7.5 7.5 0 0 1 7.38 7.38ZM20 20a8 8 0 1 1-8-8a8 8 0 0 1 .844.047l-.464 1.972c-.127-.008-.253-.019-.38-.019a6 6 0 1 0 6 6c0-.127-.011-.253-.019-.38l1.972-.464A8 8 0 0 1 20 20m4.97-4.08a9.5 9.5 0 0 0-8.89-8.89l.706-3.005a12.02 12.02 0 0 1 11.189 11.189Z"/></symbol><symbol id="hd-icon-carbon-strategy-play" viewBox="0 0 32 32"><path fill="currentColor" d="M12 3.415L10.586 2L7 5.587L3.414 2L2 3.415L5.586 7L2 10.586L3.414 12L7 8.414L10.586 12L12 10.586L8.414 7zM25 2l-5 5l1.409 1.419L24 5.794V15H8c-1.103 0-2 .898-2 2v3.101c-2.28.464-4 2.484-4 4.899c0 2.757 2.243 5 5 5s5-2.243 5-5a5.01 5.01 0 0 0-4-4.899V17h16c1.103 0 2-.897 2-2V5.847l2.591 2.572L30 7zM10 25c0 1.654-1.346 3-3 3s-3-1.346-3-3s1.346-3 3-3s3 1.346 3 3"/><path fill="currentColor" d="M30 21.415L28.586 20L25 23.587L21.414 20L20 21.415L23.586 25L20 28.586L21.414 30L25 26.414L28.586 30L30 28.586L26.414 25z"/></symbol><symbol id="hd-icon-carbon-strawberry" viewBox="0 0 32 32"><path fill="currentColor" d="M9 10h2v2H9zm0 4h2v2H9zm4-2h2v2h-2z"/><path fill="currentColor" d="M9 28a5 5 0 0 1-.744-.054A5.094 5.094 0 0 1 4 22.866V11.2a7.16 7.16 0 0 1 6.31-7.166a6.96 6.96 0 0 1 4.464 1.07l7.97 4.981a6.98 6.98 0 0 1-.69 12.19l-10.88 5.229A5 5 0 0 1 9 28m2.002-22q-.248 0-.5.024A5.146 5.146 0 0 0 6 11.198v11.669a3.084 3.084 0 0 0 2.544 3.1a3.03 3.03 0 0 0 1.762-.265l10.883-5.23a4.98 4.98 0 0 0 .488-8.696l-7.972-4.982A4.97 4.97 0 0 0 11.002 6M26 7h-4a4.005 4.005 0 0 1-4-4V2h2v1a2 2 0 0 0 2 2h4Z"/></symbol><symbol id="hd-icon-carbon-stress-breath-editor" viewBox="0 0 32 32"><path d="M20 4a5 5 0 1 1-5 5a5 5 0 0 1 5-5m0-2a7 7 0 1 0 7 7a7 7 0 0 0-7-7z" fill="currentColor"/><path d="M30 30h-2v-5a5 5 0 0 0-5-5h-6a5 5 0 0 0-5 5v5h-2v-5a7 7 0 0 1 7-7h6a7 7 0 0 1 7 7z" fill="currentColor"/><path d="M11 8H5a3 3 0 0 1-3-3V3h2v2a1 1 0 0 0 1 1h6z" fill="currentColor"/><path d="M4 15H2v-2a3 3 0 0 1 3-3h6v2H5a1 1 0 0 0-1 1z" fill="currentColor"/></symbol><symbol id="hd-icon-carbon-string-integer" viewBox="0 0 32 32"><path fill="currentColor" d="M26 12h-4v2h4v2h-3v2h3v2h-4v2h4a2.003 2.003 0 0 0 2-2v-6a2 2 0 0 0-2-2m-7 10h-6v-4a2 2 0 0 1 2-2h2v-2h-4v-2h4a2 2 0 0 1 2 2v2a2 2 0 0 1-2 2h-2v2h4ZM8 20v-8H6v1H4v2h2v5H4v2h6v-2z"/></symbol><symbol id="hd-icon-carbon-string-text" viewBox="0 0 32 32"><path fill="currentColor" d="M29 22h-5a2.003 2.003 0 0 1-2-2v-6a2 2 0 0 1 2-2h5v2h-5v6h5ZM18 12h-4V8h-2v14h6a2.003 2.003 0 0 0 2-2v-6a2 2 0 0 0-2-2m-4 8v-6h4v6Zm-6-8H3v2h5v2H4a2 2 0 0 0-2 2v2a2 2 0 0 0 2 2h6v-8a2 2 0 0 0-2-2m0 8H4v-2h4Z"/></symbol><symbol id="hd-icon-carbon-study-next" viewBox="0 0 32 32"><path d="M23.93 21L30 15l-6.07-6l-1.43 1.41L27.14 15l-4.64 4.59L23.93 21z" fill="currentColor"/><path d="M12 4a5 5 0 1 1-5 5a5 5 0 0 1 5-5m0-2a7 7 0 1 0 7 7a7 7 0 0 0-7-7z" fill="currentColor"/><path d="M22 30h-2v-5a5 5 0 0 0-5-5H9a5 5 0 0 0-5 5v5H2v-5a7 7 0 0 1 7-7h6a7 7 0 0 1 7 7z" fill="currentColor"/></symbol><symbol id="hd-icon-carbon-study-previous" viewBox="0 0 32 32"><path d="M8.07 21L2 15l6.07-6l1.43 1.41L4.86 15l4.64 4.59L8.07 21z" fill="currentColor"/><path d="M20 4a5 5 0 1 1-5 5a5 5 0 0 1 5-5m0-2a7 7 0 1 0 7 7a7 7 0 0 0-7-7z" fill="currentColor"/><path d="M30 30h-2v-5a5 5 0 0 0-5-5h-6a5 5 0 0 0-5 5v5h-2v-5a7 7 0 0 1 7-7h6a7 7 0 0 1 7 7z" fill="currentColor"/></symbol><symbol id="hd-icon-carbon-study-read" viewBox="0 0 32 32"><path d="M21 29.414l-5-5.001L17.413 23L21 26.586L28.585 19L30 20.415l-9 8.999z" fill="currentColor"/><path d="M20 14v-2h-5v-2h3V8h-3V6h-2v2h-3v2h3v2H8v2h5v2H8v2h5v2h-3v2h5v-4h3v-2h-3v-2h5z" fill="currentColor"/><path d="M13 24H4V4h20v12h2V4a2 2 0 0 0-2-2H4a2 2 0 0 0-2 2v20a2 2 0 0 0 2 2h9z" fill="currentColor"/></symbol><symbol id="hd-icon-carbon-study-skip" viewBox="0 0 32 32"><path d="M22 9h5.2A11 11 0 0 0 7 15H5a13 13 0 0 1 23-8.3V3h2v8h-8z" fill="currentColor"/><path d="M16 12a3 3 0 1 1-3 3a2.95 2.95 0 0 1 3-3m0-2a5 5 0 1 0 5 5a5 5 0 0 0-5-5z" fill="currentColor"/><path d="M23 30h-2v-3a3 3 0 0 0-3-3h-4a3 3 0 0 0-3 3v3H9v-3a5 5 0 0 1 5-5h4a5 5 0 0 1 5 5z" fill="currentColor"/></symbol><symbol id="hd-icon-carbon-study-transfer" viewBox="0 0 32 32"><path d="M8.586 19.414L13.165 24l-4.579 4.586L10 30l6-6l-6-6l-1.414 1.414z" fill="currentColor"/><path d="M2.586 19.414L7.165 24l-4.579 4.586L4 30l6-6l-6-6l-1.414 1.414z" fill="currentColor"/><path d="M12 14v-2h5v-2h-3V8h3V6h2v2h3v2h-3v2h5v2h-5v2h5v2h-5v2h3v2h-5v-4h-3v-2h3v-2h-5z" fill="currentColor"/><path d="M19 24h9V4H8v12H6V4a2 2 0 0 1 2-2h20a2 2 0 0 1 2 2v20a2 2 0 0 1-2 2h-9z" fill="currentColor"/></symbol><symbol id="hd-icon-carbon-study-unread" viewBox="0 0 32 32"><path d="M24 30a6 6 0 1 1 6-6a6.007 6.007 0 0 1-6 6zm0-10a4 4 0 1 0 4 4a4.005 4.005 0 0 0-4-4z" fill="currentColor"/><path d="M20 14v-2h-5v-2h3V8h-3V6h-2v2h-3v2h3v2H8v2h5v2H8v2h5v2h-3v2h7v-2h-2v-2h3v-2h-3v-2h5z" fill="currentColor"/><path d="M15 24H4V4h20v11h2V4a2 2 0 0 0-2-2H4a2 2 0 0 0-2 2v20a2 2 0 0 0 2 2h11z" fill="currentColor"/></symbol><symbol id="hd-icon-carbon-study-view" viewBox="0 0 32 32"><path d="M28 20h-3v-2h3V4H14v3h-2V4a2.002 2.002 0 0 1 2-2h14a2.002 2.002 0 0 1 2 2v14a2.003 2.003 0 0 1-2 2z" fill="currentColor"/><path d="M17 22v-2h-4v-2h3v-2h-3v-2h-2v2H8v2h3v2H7v2h4v2H8v2h8v-2h-3v-2h4z" fill="currentColor"/><path d="M20 30H4a2.002 2.002 0 0 1-2-2V12a2.002 2.002 0 0 1 2-2h16a2.002 2.002 0 0 1 2 2v16a2.002 2.002 0 0 1-2 2zM4 12v16h16V12z" fill="currentColor"/></symbol><symbol id="hd-icon-carbon-sub-volume" viewBox="0 0 32 32"><path d="M29.474 19.12L23.681 16l5.793-3.12a1 1 0 0 0 0-1.76l-13-7a.998.998 0 0 0-.948 0l-13 7a1 1 0 0 0 0 1.76L8.319 16l-5.793 3.12a1 1 0 0 0 0 1.76l13 7a1 1 0 0 0 .948 0l13-7a1 1 0 0 0 0-1.76zM16 6.136L26.89 12L16 17.864L5.11 12zm0 19.728L5.11 20l5.319-2.864l5.097 2.744a1 1 0 0 0 .948 0l5.097-2.745L26.891 20z" fill="currentColor"/></symbol><symbol id="hd-icon-carbon-subclassification" viewBox="0 0 32 32"><path fill="currentColor" d="M13 28V18h7a1 1 0 0 0 .868-1.496l-8-14C12.676 2.168 12.338 2 12 2s-.676.168-.868.504l-8 14A1 1 0 0 0 4 18h7v10a2 2 0 0 0 2 2h15v-2zM5.723 16L12 5.016L18.277 16z"/></symbol><symbol id="hd-icon-carbon-subdirectory" viewBox="0 0 32 32"><path fill="currentColor" d="m9 20l1.414 1.414L7.828 24H26V4h2v20c0 1.103-.897 2-2 2H7.828l2.586 2.586L9 30l-5-5z"/></symbol><symbol id="hd-icon-carbon-subflow" viewBox="0 0 32 32"><path fill="currentColor" d="M16 30A14.016 14.016 0 0 1 2 16h2a12.003 12.003 0 0 0 18.46 10.114l1.08 1.684A13.95 13.95 0 0 1 16 30"/><path fill="currentColor" d="m26 17l-1.414 1.414L26.172 20H15.816a3 3 0 0 0-.275-.576l4.481-5.601A3 3 0 0 0 21 14a3 3 0 1 0-2.816-4h-4.368a2.982 2.982 0 0 0-5.632 0H2v2h6.184a2.982 2.982 0 0 0 5.632 0h4.368a3 3 0 0 0 .274.576l-4.48 5.601A3 3 0 0 0 13 18a3 3 0 1 0 2.816 4h10.356l-1.586 1.586L26 25l4-4Zm-5-7a1 1 0 1 1-1 1a1 1 0 0 1 1-1m-10 2a1 1 0 1 1 1-1a1 1 0 0 1-1 1m2 10a1 1 0 1 1 1-1a1 1 0 0 1-1 1"/><path fill="currentColor" d="M30 16h-2A12.003 12.003 0 0 0 9.54 5.886L8.46 4.202A14.002 14.002 0 0 1 30 16"/></symbol><symbol id="hd-icon-carbon-subflow-local" viewBox="0 0 32 32"><path fill="currentColor" d="M15.347 29.985a14 14 0 0 1-4.205-.852l.694-1.875a12 12 0 0 0 3.603.73Zm4.265-.456l-.514-1.932a11.9 11.9 0 0 0 3.363-1.483l1.078 1.685a13.9 13.9 0 0 1-3.927 1.73M7.395 27.044a14 14 0 0 1-2.94-3.122l1.648-1.133a12 12 0 0 0 2.522 2.678Zm-4.798-6.99A14 14 0 0 1 2 16h2a12 12 0 0 0 .512 3.476ZM26 17l-1.414 1.414L26.172 20H15.816a3 3 0 0 0-.275-.576l4.481-5.601A3 3 0 0 0 21 14a3 3 0 1 0-2.816-4h-4.368a2.982 2.982 0 0 0-5.632 0H2v2h6.184a2.982 2.982 0 0 0 5.632 0h4.368a3 3 0 0 0 .274.576l-4.48 5.601A3 3 0 0 0 13 18a3 3 0 1 0 2.816 4h10.356l-1.586 1.586L26 25l4-4Zm-5-7a1 1 0 1 1-1 1a1 1 0 0 1 1-1m-10 2a1 1 0 1 1 1-1a1 1 0 0 1-1 1m2 10a1 1 0 1 1 1-1a1 1 0 0 1-1 1m15-6a12 12 0 0 0-.512-3.476l1.915-.578A14 14 0 0 1 30 16Zm-2.104-6.789a12 12 0 0 0-2.522-2.678l1.23-1.577a14 14 0 0 1 2.94 3.122ZM9.54 5.886L8.461 4.201a13.9 13.9 0 0 1 3.927-1.73l.514 1.932A11.9 11.9 0 0 0 9.54 5.886m10.625-1.144a12 12 0 0 0-3.603-.73l.092-1.997a14 14 0 0 1 4.205.851Z"/></symbol><symbol id="hd-icon-carbon-subject-definition" viewBox="0 0 32 32"><path fill="currentColor" d="M22.775 20.502h-.086c-.31.896-1.034 1.706-2.515 1.706c-1.844 0-2.877-1.275-2.877-3.515v-5.685h2.205v5.461c0 1.24.465 1.913 1.516 1.913c.878 0 1.757-.466 1.757-1.43v-5.944h2.205v8.993h-2.205zM6.62 20.21l1.533-1.482c.827.964 1.843 1.481 3.083 1.481c1.396 0 2.12-.672 2.12-1.688c0-.81-.38-1.31-1.637-1.533l-1.137-.172c-2.43-.38-3.6-1.534-3.6-3.497c0-2.154 1.67-3.55 4.358-3.55c1.809 0 3.152.62 4.117 1.775l-1.55 1.464c-.586-.74-1.413-1.24-2.688-1.24c-1.292 0-1.964.517-1.964 1.413c0 .913.517 1.292 1.671 1.499l1.12.206c2.429.431 3.566 1.516 3.566 3.497c0 2.274-1.637 3.825-4.514 3.825c-2.05 0-3.462-.81-4.479-1.998"/><path fill="currentColor" d="M28 30H4a2 2 0 0 1-2-2V4a2 2 0 0 1 2-2h24a2 2 0 0 1 2 2v24a2 2 0 0 1-2 2M4 28h24V4H4z"/></symbol><symbol id="hd-icon-carbon-subject-usage" viewBox="0 0 32 32"><path fill="currentColor" d="M22.775 20.502h-.086c-.31.896-1.034 1.706-2.515 1.706c-1.844 0-2.877-1.275-2.877-3.515v-5.685h2.205v5.461c0 1.24.465 1.913 1.516 1.913c.878 0 1.757-.466 1.757-1.43v-5.944h2.205v8.993h-2.205zM6.62 20.21l1.533-1.482c.827.964 1.843 1.481 3.083 1.481c1.396 0 2.12-.672 2.12-1.688c0-.81-.38-1.31-1.637-1.533l-1.137-.172c-2.43-.38-3.6-1.534-3.6-3.497c0-2.154 1.67-3.55 4.358-3.55c1.809 0 3.152.62 4.117 1.775l-1.55 1.464c-.586-.74-1.413-1.24-2.688-1.24c-1.292 0-1.964.517-1.964 1.413c0 .913.517 1.292 1.671 1.499l1.12.206c2.429.431 3.566 1.516 3.566 3.497c0 2.274-1.637 3.825-4.514 3.825c-2.05 0-3.462-.81-4.479-1.998"/><path fill="currentColor" d="M21 30H11c-4.963 0-9-4.037-9-9V11c0-4.963 4.037-9 9-9h10c4.963 0 9 4.037 9 9v10c0 4.963-4.037 9-9 9M11 4c-3.86 0-7 3.14-7 7v10c0 3.86 3.14 7 7 7h10c3.86 0 7-3.14 7-7V11c0-3.86-3.14-7-7-7z"/></symbol><symbol id="hd-icon-carbon-subnet-acl-rules" viewBox="0 0 32 32"><path fill="currentColor" d="M18 14h12v2H18zm0 5h8v2h-8zm0-10h12v2H18z"/><path fill="currentColor" d="M22 24v4H6V16h8v-2h-4V8a4 4 0 0 1 7.668-1.6l1.832-.8A6.001 6.001 0 0 0 8 8v6H6a2 2 0 0 0-2 2v12a2 2 0 0 0 2 2h16a2 2 0 0 0 2-2v-4Z"/></symbol><symbol id="hd-icon-carbon-subsetting" viewBox="0 0 32 32"><path fill="currentColor" d="m24.868 16.504l-8-14c-.356-.623-1.38-.623-1.736 0l-8 14A1 1 0 0 0 8 18h7v12h2V18h7a1 1 0 0 0 .868-1.496M9.723 16L16 5.016L22.277 16z"/></symbol><symbol id="hd-icon-carbon-subtract" viewBox="0 0 32 32"><path fill="currentColor" d="M8 15h16v2H8z"/></symbol><symbol id="hd-icon-carbon-subtract-alt" viewBox="0 0 32 32"><path fill="currentColor" d="M16 4c6.6 0 12 5.4 12 12s-5.4 12-12 12S4 22.6 4 16S9.4 4 16 4m0-2C8.3 2 2 8.3 2 16s6.3 14 14 14s14-6.3 14-14S23.7 2 16 2"/><path fill="currentColor" d="M8 15h16v2H8z"/></symbol><symbol id="hd-icon-carbon-subtract-filled" viewBox="0 0 32 32"><path fill="currentColor" d="M16 2C8.4 2 2 8.4 2 16s6.4 14 14 14s14-6.4 14-14S23.6 2 16 2m8 15H8v-2h16z"/><path fill="none" d="M24 17H8v-2h16z"/></symbol><symbol id="hd-icon-carbon-subtract-large" viewBox="0 0 32 32"><path fill="currentColor" d="M5 15v2h22v-2z"/></symbol><symbol id="hd-icon-carbon-succession" viewBox="0 0 32 32"><path fill="currentColor" d="M22 28v2h-4v-2zm6 0v2h-4v-2zm-15 0v-3h-2v3a2 2 0 0 0 2 2h3v-2zm-2-9h2v4h-2zm0-6h2v4h-2z"/><path fill="currentColor" d="M22 12L12 2L2 12l1.414 1.414L11 5.828V11h2V5.828l7.586 7.586z"/></symbol><symbol id="hd-icon-carbon-succession-flow-connection" viewBox="0 0 32 32"><path fill="currentColor" d="M7 3v2H2V3zm6 13h2v-5h-2zm2-11c0-1.103-.897-2-2-2H9v2h4v4h2zm4 17h-4v-4h-2v4c0 1.103.897 2 2 2h4zm11.6.2l-8-6a1 1 0 0 0-1.6.8v12a1 1 0 0 0 1.6.8l8-6a1 1 0 0 0 0-1.6"/></symbol><symbol id="hd-icon-carbon-summary-kpi" viewBox="0 0 32 32"><path fill="currentColor" d="M7.667 27.503L2 22.448l1.331-1.492l5.641 5.031l7.69-7.445a1.93 1.93 0 0 1 2.674-.008l3.624 3.464l5.58-5.973L30 17.39l-5.581 5.975a1.996 1.996 0 0 1-2.838.08l-3.577-3.419l-7.666 7.42a1.963 1.963 0 0 1-2.671.056M30 11h-4l2-3zm-8-7h-4v2h4v2h-3v2h3v2h-4v2h4a2.003 2.003 0 0 0 2-2V6a2 2 0 0 0-2-2m-6 10h-6v-4a2 2 0 0 1 2-2h2V6h-4V4h4a2 2 0 0 1 2 2v2a2 2 0 0 1-2 2h-2v2h4ZM6 12V4H4v1H2v2h2v5H2v2h6v-2z"/></symbol><symbol id="hd-icon-carbon-summary-kpi-mirror" viewBox="0 0 32 32"><path fill="currentColor" d="m24.3 27.5l5.7-5.1l-1.3-1.4l-5.7 5l-7.7-7.4c-.7-.7-1.9-.7-2.7 0L9 22l-5.6-6L2 17.4l5.6 6c.8.8 2 .8 2.8.1L14 20l7.7 7.4c.7.8 1.9.8 2.6.1M28 12V4h-2v1h-2v2h2v5h-2v2h6v-2zm-6 2h-6v-4c0-1.1.9-2 2-2h2V6h-4V4h4c1.1 0 2 .9 2 2v2c0 1.1-.9 2-2 2h-2v2h4zM12 4H8v2h4v2H9v2h3v2H8v2h4c1.1 0 2-.9 2-2V6c0-1.1-.9-2-2-2m-6 7H2l2-3z"/></symbol><symbol id="hd-icon-carbon-sun" viewBox="0 0 32 32"><path fill="currentColor" d="M16 12.005a4 4 0 1 1-4 4a4.005 4.005 0 0 1 4-4m0-2a6 6 0 1 0 6 6a6 6 0 0 0-6-6M5.394 6.813L6.81 5.399l3.505 3.506L8.9 10.319zM2 15.005h5v2H2zm3.394 10.193L8.9 21.692l1.414 1.414l-3.505 3.506zM15 25.005h2v5h-2zm6.687-1.9l1.414-1.414l3.506 3.506l-1.414 1.414zm3.313-8.1h5v2h-5zm-3.313-6.101l3.506-3.506l1.414 1.414l-3.506 3.506zM15 2.005h2v5h-2z"/></symbol><symbol id="hd-icon-carbon-sunrise" viewBox="0 0 32 32"><path fill="currentColor" d="M2 27h27.998v2H2zm14-7a4.005 4.005 0 0 1 4 4h2a6 6 0 0 0-12 0h2a4.005 4.005 0 0 1 4-4m9 2h5v2h-5zm-3.313-5.1l3.506-3.507l1.414 1.414l-3.506 3.506zM16 4l-5 5l1.41 1.41L15 7.83V15h2V7.83l2.59 2.58L21 9zM5.393 14.807l1.414-1.414l3.506 3.506L8.9 18.313zM2 22h5v2H2z"/></symbol><symbol id="hd-icon-carbon-sunset" viewBox="0 0 32 32"><path fill="currentColor" d="M2 27.005h27.998v2H2zm14-7a4.005 4.005 0 0 1 4 4h2a6 6 0 0 0-12 0h2a4.005 4.005 0 0 1 4-4m9 2h5v2h-5zm-3.313-5.101l3.506-3.506l1.414 1.414l-3.506 3.506zM19.59 9.595L17 12.175v-8.17h-2v8.17l-2.59-2.58l-1.41 1.41l5 5l5-5zM5.394 14.812l1.414-1.414l3.506 3.506l-1.415 1.414zM2 22.005h5v2H2z"/></symbol><symbol id="hd-icon-carbon-support-vector-machine" viewBox="0 0 32 32"><circle cx="26" cy="18" r="4" fill="currentColor"/><circle cx="18" cy="26" r="4" fill="currentColor"/><path fill="currentColor" d="M2 28.586L28.586 2L30 3.414L3.414 30zM14 10c-2.206 0-4-1.794-4-4s1.794-4 4-4s4 1.794 4 4s-1.794 4-4 4m0-6c-1.103 0-2 .897-2 2s.897 2 2 2s2-.897 2-2s-.897-2-2-2M6 18c-2.206 0-4-1.794-4-4s1.794-4 4-4s4 1.794 4 4s-1.794 4-4 4m0-6c-1.103 0-2 .897-2 2s.897 2 2 2s2-.897 2-2s-.897-2-2-2"/></symbol><symbol id="hd-icon-carbon-surrogate-key-database" viewBox="0 0 32 32"><path fill="currentColor" d="M25 15c-2.8 0-5 2.2-5 5v.6l-5 5V30h4.4l5-5h.6c2.8 0 5-2.2 5-5s-2.2-5-5-5m3 5.7c-.4 1.6-2 2.6-3.7 2.2h-.5c0-.1-5.2 5.1-5.2 5.1H17v-1.6l5.2-5.2v-.5c-.2-.5-.2-.9-.1-1.4c.4-1.6 2-2.6 3.7-2.2c1.6.4 2.6 2 2.2 3.7Zm-2-.8c0 .6-.4 1-1 1s-1-.4-1-1s.4-1 1-1s1 .4 1 1M6 13h18V5c0-1.1-.9-2-2-2H6c-1.1 0-2 .9-2 2v22c0 1.1.9 2 2 2h7v-2H6v-6h7v-2H6zm0-8h16v6H6z"/></symbol><symbol id="hd-icon-carbon-surrogate-key-flat-file" viewBox="0 0 32 32"><path fill="currentColor" d="M24.997 14.997A5 5 0 0 0 20 20q0 .277.034.552L15 25.586V30h4.414l5.034-5.034A5 5 0 0 0 30 19.994a5 5 0 0 0-5.003-4.997m2.99 5.672a3.035 3.035 0 0 1-3.655 2.249l-.54-.124L18.586 28H17v-1.586l5.206-5.206l-.123-.54a3.035 3.035 0 1 1 5.905 0M25.965 20a1 1 0 1 1-2 0a1 1 0 0 1 2 0m-3.673-8a1.7 1.7 0 0 0 1.577-1.054a1.7 1.7 0 0 0-.37-1.86l-6.792-6.793A1 1 0 0 0 16 2H6c-1.1 0-2 .9-2 2v24c0 1.1.9 2 2 2h7.01v-2H6V4h8v6c0 1.103.897 2 2 2zM16 4.414L21.585 10H16z"/></symbol><symbol id="hd-icon-carbon-sustainability" viewBox="0 0 32 32"><path fill="currentColor" d="M21.57 27.75A12.9 12.9 0 0 1 16 29C8.832 29 3 23.168 3 16c0-3.075 1.057-5.979 3-8.308V10h2V4H2v2h2.842A14.86 14.86 0 0 0 1 16c0 8.271 6.729 15 15 15a14.9 14.9 0 0 0 6.43-1.444z"/><path fill="currentColor" d="M21 9c-3.16 0-5.751 2.457-5.978 5.56A5.97 5.97 0 0 0 11 13H7v4c0 3.309 2.692 6 6 6h2v4h2v-8h2c3.308 0 6-2.691 6-6V9zm-8 12c-2.206 0-4-1.794-4-4v-2h2c2.206 0 4 1.794 4 4v.586l-2.293-2.293l-1.414 1.414L13.586 21zm10-8c0 2.206-1.794 4-4 4h-.586l2.293-2.293l-1.414-1.414L17 15.586V15c0-2.206 1.794-4 4-4h2z"/><path fill="currentColor" d="M31 16c0-8.271-6.729-15-15-15a14.9 14.9 0 0 0-6.43 1.444l.86 1.806A12.9 12.9 0 0 1 16 3c7.168 0 13 5.832 13 13c0 3.075-1.057 5.979-3 8.308V22h-2v6h6v-2h-2.842A14.86 14.86 0 0 0 31 16"/></symbol><symbol id="hd-icon-carbon-svg" viewBox="0 0 32 32"><path fill="currentColor" d="M30 23h-6a2 2 0 0 1-2-2V11a2 2 0 0 1 2-2h6v2h-6v10h4v-4h-2v-2h4ZM18 9l-2 13l-2-13h-2l2.52 14h2.96L20 9zM8 23H2v-2h6v-4H4a2 2 0 0 1-2-2v-4a2 2 0 0 1 2-2h6v2H4v4h4a2 2 0 0 1 2 2v4a2 2 0 0 1-2 2"/></symbol><symbol id="hd-icon-carbon-swim" viewBox="0 0 32 32"><path fill="currentColor" d="M30 26h-2a4.93 4.93 0 0 1-4-1.987a5.02 5.02 0 0 1-8 0a5.02 5.02 0 0 1-8 0A4.93 4.93 0 0 1 4 26H2v-2h2a3.44 3.44 0 0 0 3.053-2.321A.97.97 0 0 1 8 21a1.01 1.01 0 0 1 .949.684A3.44 3.44 0 0 0 12 24a3.44 3.44 0 0 0 3.053-2.321A.99.99 0 0 1 16 21a1.01 1.01 0 0 1 .949.684A3.44 3.44 0 0 0 20 24a3.44 3.44 0 0 0 3.053-2.321a1 1 0 0 1 1.896.005A3.44 3.44 0 0 0 28 24h2Zm-7-8.414l-8.707-8.707A2.98 2.98 0 0 0 12.171 8H4v2h8.171a1 1 0 0 1 .708.293L15.586 13L10 18.586L11.414 20L17 14.414L21.586 19ZM20 10a4 4 0 1 1 4 4a4.004 4.004 0 0 1-4-4m2 0a2 2 0 1 0 2-2a2 2 0 0 0-2 2"/></symbol><symbol id="hd-icon-carbon-swimlane-d-vertical" viewBox="0 0 32 32"><path fill="currentColor" d="M25 26h2v4h-4v-2h2zm-8 4h4v-2h-4zM7 26H5v4h4v-2H7zm0-6H5v4h2zm0-6H5v4h2zM5 8v4h2v-2h2V8zm0-2h2V4h2V2H5zm12-2h4V2h-4zm-6 0h4V2h-4zm12-2v2h2v2h2V2zm2 22h2v-4h-2zm0-6h2v-4h-2zm-8-8h4V8h-4zm-6 0h4V8h-4zm12-2v2h2v2h2V8zM11 30h4v-2h-4z"/></symbol><symbol id="hd-icon-carbon-switch-layer-2" viewBox="0 0 32 32"><path fill="currentColor" d="M16 26v-2H5.83l2.58-2.59L7 20l-5 5l5 5l1.41-1.41L5.83 26zm0-12v-2H5.83l2.58-2.59L7 8l-5 5l5 5l1.41-1.41L5.83 14zm0-8v2h10.17l-2.58 2.59L25 12l5-5l-5-5l-1.41 1.41L26.17 6zm0 12v2h10.17l-2.58 2.59L25 24l5-5l-5-5l-1.41 1.41L26.17 18z"/></symbol><symbol id="hd-icon-carbon-switch-layer-3" viewBox="0 0 32 32"><path fill="currentColor" d="M22 4v2h2.586l-5 5L21 12.414l5-5V10h2V4zM10 4v2H7.414l5 5L11 12.414l-5-5V10H4V4zm10 1l-4-4l-4 4l1.414 1.414L15 4.829V11h2V4.829l1.586 1.585zm2 23v-2h2.586l-5-5L21 19.586l5 5V22h2v6zm-12 0v-2H7.414l5-5L11 19.586l-5 5V22H4v6zm10-1l-4 4l-4-4l1.414-1.414L15 27.171V21h2v6.171l1.586-1.585zM5 12l-4 4l4 4l1.414-1.414L4.829 17H11v-2H4.829l1.585-1.586zm22 0l4 4l-4 4l-1.414-1.414L27.171 17H21v-2h6.171l-1.585-1.586z"/></symbol><symbol id="hd-icon-carbon-switcher" viewBox="0 0 32 32"><path fill="currentColor" d="M14 4h4v4h-4zM4 4h4v4H4zm20 0h4v4h-4zM14 14h4v4h-4zM4 14h4v4H4zm20 0h4v4h-4zM14 24h4v4h-4zM4 24h4v4H4zm20 0h4v4h-4z"/></symbol><symbol id="hd-icon-carbon-sync-settings" viewBox="0 0 32 32"><path fill="currentColor" d="M15 24v-2h-3.6L22 11.4V15h2V8h-7v2h3.6L10 20.6V17H8v7zm10-4v2h3c1.1 0 2-.9 2-2v-3h-2v3zm3-10h2v4h-2zm-3-8v2h3v3h2V4c0-1.1-.9-2-2-2zm-7 0h4v2h-4zm-8 2v3h2V4h3V2h-3c-1.1 0-2 .9-2 2"/><path fill="currentColor" d="M12 10H4c-1.1 0-2 .9-2 2v16c0 1.1.9 2 2 2h16c1.1 0 2-.9 2-2v-8h-2v8H4V12h8z"/></symbol><symbol id="hd-icon-carbon-sys-provision" viewBox="0 0 32 32"><path fill="currentColor" d="M21 20v10l9-5z"/><circle cx="14" cy="14" r="2" fill="currentColor"/><path fill="currentColor" d="M14 20a6 6 0 1 1 6-6a6.007 6.007 0 0 1-6 6m0-10a4 4 0 1 0 4 4a4.005 4.005 0 0 0-4-4"/><path fill="currentColor" d="M25.951 12.91h-.006A12.05 12.05 0 1 0 17 25.605v-2.066a9.981 9.981 0 1 1 6.624-6.81l1.924.544A12 12 0 0 0 26 14q0-.55-.049-1.09"/></symbol><symbol id="hd-icon-carbon-sysplex-distributor" viewBox="0 0 32 32"><path fill="currentColor" d="M4 26h4v4H4zm10 0h4v4h-4zm10 0h4v4h-4zm1-8h-8v-2h-2v2H7c-1.103 0-2 .898-2 2v4h2v-4h8v4h2v-4h8v4h2v-4c0-1.102-.897-2-2-2M20 2h-8c-1.103 0-2 .898-2 2v8c0 1.103.897 2 2 2h8c1.103 0 2-.897 2-2V4c0-1.102-.897-2-2-2m-1.414 2L12 10.586V4zm-5.172 8L20 5.414L20.001 12z"/></symbol><symbol id="hd-icon-carbon-t" viewBox="0 0 32 32"><path d="M12 11h3v12h2V11h3V9h-8v2z" fill="currentColor"/></symbol><symbol id="hd-icon-carbon-t-alt" viewBox="0 0 32 32"><path d="M8 11h3v12h2V11h3V9H8v2z" fill="currentColor"/><path d="M24 9h-2V7h-2v2h-2v2h2v6l1 1l1-1v-6h2V9z" fill="currentColor"/></symbol><symbol id="hd-icon-carbon-table" viewBox="0 0 32 32"><path fill="currentColor" d="M29 5a2 2 0 0 0-2-2H5a2 2 0 0 0-2 2v22a2 2 0 0 0 2 2h22a2 2 0 0 0 2-2Zm-2 0v4H5V5Zm0 22H5v-4h22Zm0-6H5v-4h22Zm0-6H5v-4h22Z"/></symbol><symbol id="hd-icon-carbon-table-add" viewBox="0 0 32 32"><path fill="currentColor" d="M27 3H5c-1.1 0-2 .9-2 2v12h2v-6h10v18h2V11h10v7H17v2h10v7H17v2h10c1.1 0 2-.9 2-2V5c0-1.1-.9-2-2-2m0 6H5V5h22zM12 26H8v4H6v-4H2v-2h4v-4h2v4h4z"/></symbol><symbol id="hd-icon-carbon-table-alias" viewBox="0 0 32 32"><path fill="currentColor" d="M12 29H5a2 2 0 0 1-2-2v-7a2 2 0 0 1 2-2h7a2 2 0 0 1 2 2v7a2 2 0 0 1-2 2m-7-9v7h7v-7Z"/><path fill="currentColor" d="M27 3H5a2 2 0 0 0-2 2v10h2v-4h10v4h2v-4h10v7H17v2h10v7H17v2h10a2 2 0 0 0 2-2V5a2 2 0 0 0-2-2m0 6H5V5h22Z"/></symbol><symbol id="hd-icon-carbon-table-built" viewBox="0 0 32 32"><path fill="currentColor" d="M28 8h-4V4a2.003 2.003 0 0 0-2-2H4a2.003 2.003 0 0 0-2 2v18a2.003 2.003 0 0 0 2 2h4v4a2.003 2.003 0 0 0 2 2h18a2.003 2.003 0 0 0 2-2V10a2.003 2.003 0 0 0-2-2m-6 14h-8v-5h8Zm0-7h-8v-5h8Zm-10 0H4v-5h8ZM22 4v4H4V4ZM4 22v-5h8v5Zm24 6H10v-4h12a2.003 2.003 0 0 0 2-2V10h4Z"/></symbol><symbol id="hd-icon-carbon-table-of-contents" viewBox="0 0 32 32"><path fill="currentColor" d="M4 6h18v2H4zm0 6h18v2H4zm0 6h18v2H4zm0 6h18v2H4zM26 6h2v2h-2zm0 6h2v2h-2zm0 6h2v2h-2zm0 6h2v2h-2z"/></symbol><symbol id="hd-icon-carbon-table-shortcut" viewBox="0 0 32 32"><path fill="currentColor" d="M5 18v2h5.586L3 27.586L4.414 29L12 21.414V27h2v-9z"/><path fill="currentColor" d="M27 3H5a2 2 0 0 0-2 2v10h2v-4h10v4h2v-4h10v7H17v2h10v7H17v2h10a2 2 0 0 0 2-2V5a2 2 0 0 0-2-2m0 6H5V5h22Z"/></symbol><symbol id="hd-icon-carbon-table-split" viewBox="0 0 32 32"><path fill="currentColor" d="M27 3H5a2 2 0 0 0-2 2v22a2 2 0 0 0 2 2h22a2 2 0 0 0 2-2V5a2 2 0 0 0-2-2m0 2v4H5V5Zm-10 6h10v7H17Zm-2 7H5v-7h10ZM5 20h10v7H5Zm12 7v-7h10v7Z"/></symbol><symbol id="hd-icon-carbon-tablet" viewBox="0 0 32 32"><path fill="currentColor" d="M19 24v2h-6v-2z"/><path fill="currentColor" d="M25 30H7a2 2 0 0 1-2-2V4a2 2 0 0 1 2-2h18a2 2 0 0 1 2 2v24a2.003 2.003 0 0 1-2 2M7 4v24h18V4Z"/></symbol><symbol id="hd-icon-carbon-tablet-landscape" viewBox="0 0 32 32"><path fill="currentColor" d="M24 13h2v6h-2z"/><path fill="currentColor" d="M30 7v18a2 2 0 0 1-2 2H4a2 2 0 0 1-2-2V7a2 2 0 0 1 2-2h24a2.003 2.003 0 0 1 2 2M4 25h24V7H4Z"/></symbol><symbol id="hd-icon-carbon-tag" viewBox="0 0 32 32"><path fill="currentColor" d="M10 14a4 4 0 1 1 4-4a4.005 4.005 0 0 1-4 4m0-6a2 2 0 1 0 1.998 2.004A2 2 0 0 0 10 8"/><path fill="currentColor" d="M16.644 29.415L2.586 15.355A2 2 0 0 1 2 13.942V4a2 2 0 0 1 2-2h9.941a2 2 0 0 1 1.414.586l14.06 14.058a2 2 0 0 1 0 2.828l-9.943 9.943a2 2 0 0 1-2.828 0M4 4v9.942L18.058 28L28 18.058L13.942 4Z"/></symbol><symbol id="hd-icon-carbon-tag-edit" viewBox="0 0 32 32"><path fill="currentColor" d="m29.707 7.293l-3-3a1 1 0 0 0-1.414 0L16 13.586V18h4.414l9.293-9.293a1 1 0 0 0 0-1.414M19.586 16H18v-1.586l5-5L24.586 11ZM26 9.586L24.414 8L26 6.414L27.586 8ZM10 14a4 4 0 1 1 4-4a4.005 4.005 0 0 1-4 4m0-6a2 2 0 1 0 1.998 2.004A2 2 0 0 0 10 8"/><path fill="currentColor" d="m27.006 14.235l-1.414 1.414L28 18.058L18.058 28L4 13.941V4h9.942l4.406 4.407l1.415-1.415l-4.407-4.406A2 2 0 0 0 13.94 2H4a2 2 0 0 0-2 2v9.941a2 2 0 0 0 .586 1.414l14.058 14.06a2 2 0 0 0 2.828 0l9.943-9.943a2 2 0 0 0 0-2.828Z"/></symbol><symbol id="hd-icon-carbon-tag-export" viewBox="0 0 32 32"><path fill="currentColor" d="m31 18l-6-6l-1.414 1.414L27.172 17H17v2h10.172l-3.586 3.586L25 24zm-21-4a4 4 0 1 1 4-4a4.005 4.005 0 0 1-4 4m0-6a2 2 0 1 0 1.998 2.004A2 2 0 0 0 10 8"/><path fill="currentColor" d="m21.06 25l-3.002 3L4 13.941V4h9.942l7 7l1.414-1.414l-7.001-7A2 2 0 0 0 13.941 2H4a2 2 0 0 0-2 2v9.941a2 2 0 0 0 .586 1.414l14.058 14.06a2 2 0 0 0 2.828 0l3.002-3Z"/></symbol><symbol id="hd-icon-carbon-tag-group" viewBox="0 0 32 32"><circle cx="10" cy="14" r="2" fill="currentColor"/><path fill="currentColor" d="M16 30a1 1 0 0 1-.71-.29L4.59 19A2 2 0 0 1 4 17.59V10a2 2 0 0 1 2-2h7.59a2 2 0 0 1 1.41.59l10.71 10.7a1 1 0 0 1 0 1.42l-9 9A1 1 0 0 1 16 30M6 10v7.59l10 10L23.59 20l-10-10Z"/><path fill="currentColor" d="M27.71 13.29L17 2.59A2 2 0 0 0 15.59 2H8a2 2 0 0 0-2 2v2h2V4h7.59l10 10l-1.3 1.29l1.42 1.42l2-2a1 1 0 0 0 0-1.42"/></symbol><symbol id="hd-icon-carbon-tag-import" viewBox="0 0 32 32"><path fill="currentColor" d="m16 18l6-6l1.414 1.414L19.828 17H30v2H19.828l3.586 3.586L22 24zm-6-4a4 4 0 1 1 4-4a4.005 4.005 0 0 1-4 4m0-6a2 2 0 1 0 1.998 2.004A2 2 0 0 0 10 8"/><path fill="currentColor" d="m20.059 26l-2.001 2L4 13.941V4h9.942l6 6l1.414-1.414l-6.001-6A2 2 0 0 0 13.941 2H4a2 2 0 0 0-2 2v9.941a2 2 0 0 0 .586 1.414l14.058 14.06a2 2 0 0 0 2.828 0l2-2.001Z"/></symbol><symbol id="hd-icon-carbon-tag-none" viewBox="0 0 32 32"><path fill="currentColor" d="M23.092 10.322L30 3.414L28.586 2L2 28.586L3.414 30l6.908-6.908l6.322 6.323a2 2 0 0 0 2.828 0l9.943-9.943a2 2 0 0 0 0-2.828ZM18.058 28l-6.322-6.322l9.942-9.942L28 18.058ZM10 14a4 4 0 1 1 4-4a4.005 4.005 0 0 1-4 4m0-6a2 2 0 1 0 1.998 2.004A2 2 0 0 0 10 8"/><path fill="currentColor" d="m7.493 20.263l1.414-1.414L4 13.94V4h9.942l4.907 4.907l1.414-1.414l-4.908-4.907A2 2 0 0 0 13.942 2H4a2 2 0 0 0-2 2v9.941a2 2 0 0 0 .586 1.414Z"/></symbol><symbol id="hd-icon-carbon-tank" viewBox="0 0 32 32"><path fill="currentColor" d="M30 13v-2H18.618l-.723-1.447A1 1 0 0 0 17 9H9a1 1 0 0 0-1 1v5H4v2h18.638l3.6 3H3a1 1 0 0 0-1 1v2a5.006 5.006 0 0 0 5 5h18a5.006 5.006 0 0 0 5-5v-2a1 1 0 0 0-.36-.769l-6-5A1 1 0 0 0 23 15h-2.382l-1-2Zm-2 10a3.003 3.003 0 0 1-3 3H7a3.003 3.003 0 0 1-3-3v-1h24Zm-18-8v-4h6.382l2 4Z"/></symbol></svg>