<svg xmlns="http://www.w3.org/2000/svg" xmlns:xlink="http://www.w3.org/1999/xlink"><symbol id="hd-icon-carbon-bookmark-add" viewBox="0 0 32 32"><path fill="currentColor" d="M24 16v10.752l-7.096-3.59l-.904-.457l-.9.456L8 26.748V4h10V2H8a2 2 0 0 0-2 2v26l10-5.054L26 30V16Z"/><path fill="currentColor" d="M26 6V2h-2v4h-4v2h4v4h2V8h4V6z"/></symbol><symbol id="hd-icon-carbon-bookmark-filled" viewBox="0 0 32 32"><path fill="currentColor" d="M24 2H8a2 2 0 0 0-2 2v26l10-5.054L26 30V4a2 2 0 0 0-2-2"/></symbol><symbol id="hd-icon-carbon-boolean" viewBox="0 0 32 32"><path fill="currentColor" d="M23 23a7 7 0 1 1 7-7a7.01 7.01 0 0 1-7 7m0-12a5 5 0 1 0 5 5a5.006 5.006 0 0 0-5-5"/><circle cx="9" cy="16" r="7" fill="currentColor"/></symbol><symbol id="hd-icon-carbon-boot" viewBox="0 0 32 32"><path fill="currentColor" d="M24 17h-6a1 1 0 0 1-1-1V4a2.003 2.003 0 0 0-2-2H5a2.003 2.003 0 0 0-2 2v24a2.003 2.003 0 0 0 2 2h22a2.003 2.003 0 0 0 2-2v-6a5.006 5.006 0 0 0-5-5m3 5v2h-4v-5h1a3.003 3.003 0 0 1 3 3M15 4v2h-4v2h4v2h-4v2h4v2h-4v2h4a3.003 3.003 0 0 0 3 3h3v5h-6.838l-3-1H5V4Zm10 24v-1h-2v1h-2v-1h-2v1h-2v-1h-2v1h-2v-1h-2v1H5v-3h5.838l3 1H27v2Z"/></symbol><symbol id="hd-icon-carbon-boot-volume" viewBox="0 0 32 32"><path fill="currentColor" d="M32 22v-2h-3v-2h-2v2h-1v2h1v6c0 1.103.898 2 2 2h3v-2h-3v-6zm-9 8h-3c-1.102 0-2-.897-2-2v-6c0-1.103.898-2 2-2h3c1.103 0 2 .897 2 2v6c0 1.103-.897 2-2 2m-3-8v6h3v-6zm-6 8h-3c-1.102 0-2-.897-2-2v-6c0-1.103.898-2 2-2h3c1.103 0 2 .897 2 2v6c0 1.103-.897 2-2 2m-3-8v6h3v-6zm-6-2H2v-4H0v14h5c1.103 0 2-.897 2-2v-6c0-1.103-.897-2-2-2m-3 8v-6h3v6zm2-14V5h7.586l4 4H28v7h2V9a2 2 0 0 0-2-2H16.414L13 3.586A2 2 0 0 0 11.586 3H4a2 2 0 0 0-2 2v9z"/></symbol><symbol id="hd-icon-carbon-boot-volume-alt" viewBox="0 0 32 32"><path fill="currentColor" d="M26 30h-7c-1.103 0-2-.897-2-2v-2h2v2h7v-7h-2v-2h2c1.103 0 2 .897 2 2v7c0 1.103-.897 2-2 2"/><path fill="currentColor" d="M12 24h2v-6.586L22.582 26L24 24.586L15.414 16H22v-2H12z"/><path fill="currentColor" d="M8 27H4a2 2 0 0 1-2-2V5a2 2 0 0 1 2-2h7.586A2 2 0 0 1 13 3.586L16.414 7H28a2 2 0 0 1 2 2v7h-2V9H15.586l-4-4H4v20h4z"/></symbol><symbol id="hd-icon-carbon-border-bottom" viewBox="0 0 32 32"><path fill="currentColor" d="M29 29H3v-2h26zm0-4h-2v-2h2zm0-4h-2v-2h2zm0-4h-2v-2h2zm0-4h-2v-2h2zm0-4h-2V7h2zm0-4h-2V3h2zm-4 0h-2V3h2zm-4 0h-2V3h2zm-4 0h-2V3h2zM9 5H7V3h2zm4 0h-2V3h2zM5 25H3v-2h2zm0-4H3v-2h2zm0-4H3v-2h2zm0-4H3v-2h2zm0-4H3V7h2zm0-4H3V3h2zm3 5h10v2H8zm0 5h6v2H8z"/></symbol><symbol id="hd-icon-carbon-border-full" viewBox="0 0 32 32"><path fill="currentColor" d="M8 10h10v2H8zm0 5h6v2H8z"/><path fill="currentColor" d="M29 29H3V3h26ZM5 27h22V5H5Z"/></symbol><symbol id="hd-icon-carbon-border-left" viewBox="0 0 32 32"><path fill="currentColor" d="M3 29V3h2v26zm4 0v-2h2v2zm4 0v-2h2v2zm4 0v-2h2v2zm4 0v-2h2v2zm4 0v-2h2v2zm4 0v-2h2v2zm0-4v-2h2v2zm0-4v-2h2v2zm0-4v-2h2v2zm0-8V7h2v2zm0 4v-2h2v2zM7 5V3h2v2zm4 0V3h2v2zm4 0V3h2v2zm4 0V3h2v2zm4 0V3h2v2zm4 0V3h2v2zM8 10h10v2H8zm0 5h6v2H8z"/></symbol><symbol id="hd-icon-carbon-border-none" viewBox="0 0 32 32"><path fill="currentColor" d="M3 3h2v2H3zm4 0h2v2H7zm4 0h2v2h-2zm4 0h2v2h-2zM3 7h2v2H3zm0 4h2v2H3zm0 4h2v2H3zm0 4h2v2H3zm0 4h2v2H3zm0 4h2v2H3zM27 3h2v2h-2zm-4 0h2v2h-2zm-4 0h2v2h-2zM7 27h2v2H7zm4 0h2v2h-2zm4 0h2v2h-2zm8 0h2v2h-2zm-4 0h2v2h-2zm8-20h2v2h-2zm0 4h2v2h-2zm0 4h2v2h-2zm0 4h2v2h-2zm0 4h2v2h-2zm0 4h2v2h-2zM8 10h10v2H8zm0 5h6v2H8z"/></symbol><symbol id="hd-icon-carbon-border-right" viewBox="0 0 32 32"><path fill="currentColor" d="M29 3v26h-2V3zm-4 0v2h-2V3zm-4 0v2h-2V3zm-4 0v2h-2V3zm-4 0v2h-2V3zM9 3v2H7V3zM5 3v2H3V3zm0 4v2H3V7zm0 4v2H3v-2zm0 4v2H3v-2zm0 8v2H3v-2zm0-4v2H3v-2zm20 8v2h-2v-2zm-4 0v2h-2v-2zm-4 0v2h-2v-2zm-4 0v2h-2v-2zm-4 0v2H7v-2zm-4 0v2H3v-2zm3-17h10v2H8zm0 5h6v2H8z"/></symbol><symbol id="hd-icon-carbon-border-top" viewBox="0 0 32 32"><path fill="currentColor" d="M3 3h26v2H3zm0 4h2v2H3zm0 4h2v2H3zm0 4h2v2H3zm0 4h2v2H3zm0 4h2v2H3zm0 4h2v2H3zm4 0h2v2H7zm4 0h2v2h-2zm4 0h2v2h-2zm8 0h2v2h-2zm-4 0h2v2h-2zm8-20h2v2h-2zm0 4h2v2h-2zm0 4h2v2h-2zm0 4h2v2h-2zm0 4h2v2h-2zm0 4h2v2h-2zM8 10h10v2H8zm0 5h6v2H8z"/></symbol><symbol id="hd-icon-carbon-bot" viewBox="0 0 32 32"><path fill="currentColor" d="M18 10h2v2h-2zm-6 0h2v2h-2z"/><path fill="currentColor" d="M26 20h-5v-2h1a2 2 0 0 0 2-2v-4h2v-2h-2V8a2 2 0 0 0-2-2h-2V2h-2v4h-4V2h-2v4h-2a2 2 0 0 0-2 2v2H6v2h2v4a2 2 0 0 0 2 2h1v2H6a2 2 0 0 0-2 2v8h2v-8h20v8h2v-8a2 2 0 0 0-2-2M10 8h12v8H10Zm3 10h6v2h-6Z"/></symbol><symbol id="hd-icon-carbon-bottles-01" viewBox="0 0 32 32"><path fill="currentColor" d="M26 9.37V3a1 1 0 0 0-1-1h-3v2h2v6.72s3 .507 3 4.28v13h-3v2h4a1 1 0 0 0 1-1V15c0-3.452-1.933-5.024-3-5.63m-7 0V3a1 1 0 0 0-1-1h-3v2h2v6.72s3 .507 3 4.28v13h-3v2h4a1 1 0 0 0 1-1V15c0-3.452-1.933-5.024-3-5.63m-7 0V3a1 1 0 0 0-1-1H7a1 1 0 0 0-1 1v6.37c-1.067.606-3 2.178-3 5.63v14a1 1 0 0 0 1 1h10a1 1 0 0 0 1-1V15c0-3.452-1.933-5.024-3-5.63M13 28H5V15c0-3.772 3-4.28 3-4.28V4h2v6.72s3 .508 3 4.28z"/></symbol><symbol id="hd-icon-carbon-bottles-01-dash" viewBox="0 0 32 32"><path fill="currentColor" d="M26 9.37V3a1 1 0 0 0-1-1h-3v2h2v6.72s3 .507 3 4.28v13h-3v2h4a1 1 0 0 0 1-1V15c0-3.452-1.933-5.024-3-5.63m-7 0V3a1 1 0 0 0-1-1h-3v2h2v6.72s3 .507 3 4.28v13h-3v2h4a1 1 0 0 0 1-1V15c0-3.452-1.933-5.024-3-5.63M13 28h-3v2h4a1 1 0 0 0 1-1v-4h-2zm-8-3H3v4a1 1 0 0 0 1 1h4v-2H5zm8-7h2v5h-2zM3 18h2v5H3zm9-8.63V3a1 1 0 0 0-1-1H7a1 1 0 0 0-1 1v6.37c-1.067.606-3 2.178-3 5.63v1h2v-1c0-3.772 3-4.28 3-4.28V4h2v6.72s3 .508 3 4.28v1h2v-1c0-3.452-1.933-5.024-3-5.63"/></symbol><symbol id="hd-icon-carbon-bottles-02" viewBox="0 0 32 32"><path fill="currentColor" d="M24 9.051V6a1 1 0 0 0-1-1h-3v2h2v3.02s2 1.124 2 3.48V25h-4v2h5a1 1 0 0 0 1-1V13.5a5.93 5.93 0 0 0-2-4.449m-8 0V6a1 1 0 0 0-1-1H9a1 1 0 0 0-1 1v3.051A5.93 5.93 0 0 0 6 13.5V26a1 1 0 0 0 1 1h10a1 1 0 0 0 1-1V13.5a5.93 5.93 0 0 0-2-4.449M16 25H8V13.5c0-2.356 2-3.48 2-3.48V7h4v3.02s2 1.124 2 3.48z"/></symbol><symbol id="hd-icon-carbon-bottles-02-dash" viewBox="0 0 32 32"><path fill="currentColor" d="M24 9.051V6a1 1 0 0 0-1-1h-3v2h2v3.02s2 1.124 2 3.48V25h-4v2h5a1 1 0 0 0 1-1V13.5a5.93 5.93 0 0 0-2-4.449M16 25h-3v2h4a1 1 0 0 0 1-1v-4h-2zm-8-3H6v4a1 1 0 0 0 1 1h4v-2H8zm8-6h2v4h-2zM6 16h2v4H6zm10-6.949V6a1 1 0 0 0-1-1H9a1 1 0 0 0-1 1v3.051A5.93 5.93 0 0 0 6 13.5v.5h2v-.5c0-2.356 2-3.48 2-3.48V7h4v3.02s2 1.124 2 3.48v.5h2v-.5a5.93 5.93 0 0 0-2-4.449"/></symbol><symbol id="hd-icon-carbon-bottles-container" viewBox="0 0 32 32"><path fill="currentColor" d="M23 10V8a1 1 0 0 0-1-1h-3v2h2v1.969s2 1.124 2 3.48V23h-4v2h5a1 1 0 0 0 1-1v-9.55A5.93 5.93 0 0 0 23 10m-8 0V8a1 1 0 0 0-1-1h-4a1 1 0 0 0-1 1v2a5.93 5.93 0 0 0-2 4.449V24a1 1 0 0 0 1 1h8a1 1 0 0 0 1-1v-9.551A5.93 5.93 0 0 0 15 10m0 13H9v-8.551c0-2.356 2-3.48 2-3.48v-1.97h2v1.97s2 1.124 2 3.48z"/><path fill="currentColor" d="M28 2H4a2 2 0 0 0-2 2v24a2 2 0 0 0 2 2h24a2 2 0 0 0 2-2V4a2 2 0 0 0-2-2m0 26H4V4h24z"/></symbol><symbol id="hd-icon-carbon-bottom-panel-close" viewBox="0 0 32 32"><path fill="currentColor" d="M28 4H4a2 2 0 0 0-2 2v20a2 2 0 0 0 2 2h24a2 2 0 0 0 2-2V6a2 2 0 0 0-2-2m0 16v6H4v-6zm0-14v12H4V6h11v6.17l-3.59-3.58L10 10l6 6l6-6l-1.41-1.41L17 12.17V6z"/></symbol><symbol id="hd-icon-carbon-bottom-panel-close-filled" viewBox="0 0 32 32"><path fill="currentColor" d="M28 4H4a2 2 0 0 0-2 2v20a2 2 0 0 0 2 2h24a2 2 0 0 0 2-2V6a2 2 0 0 0-2-2m0 2v12H4V6h11v6.17l-3.59-3.58L10 10l6 6l6-6l-1.41-1.41L17 12.17V6z"/></symbol><symbol id="hd-icon-carbon-bottom-panel-open" viewBox="0 0 32 32"><path fill="currentColor" d="M28 4H4a2 2 0 0 0-2 2v20a2 2 0 0 0 2 2h24a2 2 0 0 0 2-2V6a2 2 0 0 0-2-2m0 16v6H4v-6zm0-14v12H17v-6.17l3.59 3.58L22 14l-6-6l-6 6l1.41 1.41L15 11.83V18H4V6z"/></symbol><symbol id="hd-icon-carbon-bottom-panel-open-filled" viewBox="0 0 32 32"><path fill="currentColor" d="M28 4H4a2 2 0 0 0-2 2v20a2 2 0 0 0 2 2h24a2 2 0 0 0 2-2V6a2 2 0 0 0-2-2m0 2v12H17v-6.17l3.59 3.58L22 14l-6-6l-6 6l1.41 1.41L15 11.83V18H4V6z"/></symbol><symbol id="hd-icon-carbon-box" viewBox="0 0 32 32"><path fill="currentColor" d="M20 21h-8a2 2 0 0 1-2-2v-2a2 2 0 0 1 2-2h8a2 2 0 0 1 2 2v2a2 2 0 0 1-2 2m-8-4v2h8v-2Z"/><path fill="currentColor" d="M28 4H4a2 2 0 0 0-2 2v4a2 2 0 0 0 2 2v16a2 2 0 0 0 2 2h20a2 2 0 0 0 2-2V12a2 2 0 0 0 2-2V6a2 2 0 0 0-2-2m-2 24H6V12h20Zm2-18H4V6h24z"/></symbol><symbol id="hd-icon-carbon-box-extra-large" viewBox="0 0 32 32"><path fill="currentColor" d="M26 28H6a2 2 0 0 1-2-2V9h2v17h20V9h2v17a2 2 0 0 1-2 2"/><path fill="currentColor" d="M19 21V9h-2v14h7v-2zM16 9h-2l-2 6l-2-6H8l2.752 7L8 23h2l2-6l2 6h2l-2.755-7zM4 4h24v2H4z"/></symbol><symbol id="hd-icon-carbon-box-large" viewBox="0 0 32 32"><path fill="currentColor" d="M26 28H6a2 2 0 0 1-2-2V9h2v17h20V9h2v17a2 2 0 0 1-2 2"/><path fill="currentColor" d="M14 21V9h-2v14h8v-2zM4 4h24v2H4z"/></symbol><symbol id="hd-icon-carbon-box-medium" viewBox="0 0 32 32"><path fill="currentColor" d="M26 28H6a2 2 0 0 1-2-2V9h2v17h20V9h2v17a2 2 0 0 1-2 2"/><path fill="currentColor" d="m18 9l-1.515 5L16 15.977L15.535 14L14 9h-2v14h2v-8l-.158-1.996l.579 1.996L16 19.626L17.579 15l.58-2L18 15v8h2V9zM4 4h24v2H4z"/></symbol><symbol id="hd-icon-carbon-box-plot" viewBox="0 0 32 32"><path fill="currentColor" d="M22 6V4H12v2h4v2h-4v12h4v2h-4v2h10v-2h-4v-2h4V8h-4V6Zm-8 12v-3h6v3Zm6-5h-6v-3h6Z"/><path fill="currentColor" d="M30 30H4a2 2 0 0 1-2-2V2h2v26h26Z"/></symbol><symbol id="hd-icon-carbon-box-small" viewBox="0 0 32 32"><path fill="currentColor" d="M26 28H6a2 2 0 0 1-2-2V9h2v17h20V9h2v17a2 2 0 0 1-2 2"/><path fill="currentColor" d="M18 23h-6v-2h6v-4h-4a2 2 0 0 1-2-2v-4a2 2 0 0 1 2-2h6v2h-6v4h4a2 2 0 0 1 2 2v4a2 2 0 0 1-2 2M4 4h24v2H4z"/></symbol><symbol id="hd-icon-carbon-branch" viewBox="0 0 32 32"><path fill="currentColor" d="M20 6c0 1.859 1.28 3.41 3 3.858V14c0 1.654-1.346 3-3 3h-8c-1.13 0-2.162.391-3 1.026V9.858c1.72-.447 3-2 3-3.858c0-2.206-1.794-4-4-4S4 3.794 4 6c0 1.859 1.28 3.41 3 3.858v12.284c-1.72.447-3 2-3 3.858c0 2.206 1.794 4 4 4s4-1.794 4-4c0-1.858-1.28-3.41-3-3.858V22c0-1.654 1.346-3 3-3h8c2.757 0 5-2.243 5-5V9.858c1.72-.447 3-2 3-3.858c0-2.206-1.794-4-4-4s-4 1.794-4 4M6 6c0-1.102.897-2 2-2s2 .898 2 2c0 1.103-.897 2-2 2s-2-.897-2-2m4 20c0 1.103-.897 2-2 2s-2-.897-2-2s.897-2 2-2s2 .897 2 2M26 6c0 1.103-.897 2-2 2s-2-.897-2-2s.898-2 2-2s2 .898 2 2"/></symbol><symbol id="hd-icon-carbon-breaking-change" viewBox="0 0 32 32"><path fill="currentColor" d="M31 25a6 6 0 1 0-6 6a6.007 6.007 0 0 0 6-6m-2 0a3.95 3.95 0 0 1-.567 2.019l-5.452-5.452A3.95 3.95 0 0 1 25 21a4.005 4.005 0 0 1 4 4m-8 0a3.95 3.95 0 0 1 .567-2.019l5.452 5.452A3.95 3.95 0 0 1 25 29a4.005 4.005 0 0 1-4-4m-1.41-9L17 18.59L18.42 20l4-4l-4-4L17 13.41zm-9.18 0L13 13.41L11.58 12l-4 4l4 4L13 18.59z"/><path fill="currentColor" d="M4 9h22v7h2V4a2 2 0 0 0-2-2H4a2 2 0 0 0-2 2v20a2 2 0 0 0 2 2h12v-2H4Zm0-5h22v3H4Z"/></symbol><symbol id="hd-icon-carbon-brightness-contrast" viewBox="0 0 32 32"><path fill="currentColor" d="M15 2h2v3h-2zm12 13h3v2h-3zM15 27h2v3h-2zM2 15h3v2H2zm3.45-8.117L6.864 5.47l2.122 2.12L7.57 9.004zM23 7.581l2.12-2.121l1.414 1.414l-2.121 2.122zm.002 16.835l1.414-1.414l2.122 2.122l-1.414 1.414zM5.47 25.13L7.59 23L9 24.42l-2.12 2.12zM16 8a8 8 0 1 0 8 8a8 8 0 0 0-8-8m0 14a6 6 0 0 1 0-12Z"/></symbol><symbol id="hd-icon-carbon-bring-forward" viewBox="0 0 32 32"><path fill="currentColor" d="M12 15h-2v-3a2 2 0 0 1 2-2h3v2h-3Zm3 15h-3a2 2 0 0 1-2-2v-3h2v3h3Zm3-2h4v2h-4zm10 2h-3v-2h3v-3h2v3a2 2 0 0 1-2 2M10 18h2v4h-2zm18 0h2v4h-2zm2-3h-2v-3h-3v-2h3a2 2 0 0 1 2 2Zm-12-5h4v2h-4z"/><path fill="currentColor" d="M8 22H4a2 2 0 0 1-2-2V4a2 2 0 0 1 2-2h16a2 2 0 0 1 2 2v4h-2V4H4v16h4Z"/></symbol><symbol id="hd-icon-carbon-bring-to-front" viewBox="0 0 32 32"><path fill="currentColor" d="M28 10h-6V4a2 2 0 0 0-2-2H4a2 2 0 0 0-2 2v16a2 2 0 0 0 2 2h6v6a2 2 0 0 0 2 2h16a2 2 0 0 0 2-2V12a2 2 0 0 0-2-2M4 20L3.998 4H20v6h-8a2 2 0 0 0-2 2v8Z"/></symbol><symbol id="hd-icon-carbon-brush-freehand" viewBox="0 0 32 32"><path d="M28.828 3.172a4.094 4.094 0 0 0-5.656 0L4.05 22.292A6.954 6.954 0 0 0 2 27.242V30h2.756a6.952 6.952 0 0 0 4.95-2.05L28.828 8.829a3.999 3.999 0 0 0 0-5.657zM10.91 18.26l2.829 2.829l-2.122 2.121l-2.828-2.828zm-2.619 8.276A4.966 4.966 0 0 1 4.756 28H4v-.759a4.967 4.967 0 0 1 1.464-3.535l1.91-1.91l2.829 2.828zM27.415 7.414l-12.261 12.26l-2.829-2.828l12.262-12.26a2.047 2.047 0 0 1 2.828 0a2 2 0 0 1 0 2.828z" fill="currentColor"/><path d="M6.5 15a3.5 3.5 0 0 1-2.475-5.974l3.5-3.5a1.502 1.502 0 0 0 0-2.121a1.537 1.537 0 0 0-2.121 0L3.415 5.394L2 3.98l1.99-1.988a3.585 3.585 0 0 1 4.95 0a3.504 3.504 0 0 1 0 4.949L5.439 10.44a1.502 1.502 0 0 0 0 2.121a1.537 1.537 0 0 0 2.122 0l4.024-4.024L13 9.95l-4.025 4.024A3.475 3.475 0 0 1 6.5 15z" fill="currentColor"/></symbol><symbol id="hd-icon-carbon-brush-polygon" viewBox="0 0 32 32"><path d="M28.828 3.172a4.094 4.094 0 0 0-5.656 0L4.05 22.292A6.954 6.954 0 0 0 2 27.242V30h2.756a6.952 6.952 0 0 0 4.95-2.05L28.828 8.829a3.999 3.999 0 0 0 0-5.657zM10.91 18.26l2.829 2.829l-2.122 2.121l-2.828-2.828zm-2.619 8.276A4.966 4.966 0 0 1 4.756 28H4v-.759a4.967 4.967 0 0 1 1.464-3.535l1.91-1.91l2.829 2.828zM27.415 7.414l-12.261 12.26l-2.829-2.828l12.262-12.26a2.047 2.047 0 0 1 2.828 0a2 2 0 0 1 0 2.828z" fill="currentColor"/><path d="M14 2a2.995 2.995 0 0 0-2.816 2H7.816A2.993 2.993 0 1 0 4 7.815v3.37a3 3 0 1 0 2 0v-3.37A2.996 2.996 0 0 0 7.816 6h3.368A2.995 2.995 0 1 0 14 2zM5 15a1 1 0 1 1 1-1a1 1 0 0 1-1 1zm0-9a1 1 0 1 1 1-1a1 1 0 0 1-1 1zm9 0a1 1 0 1 1 1-1a1 1 0 0 1-1 1z" fill="currentColor"/></symbol><symbol id="hd-icon-carbon-bsam-qsam-zedc" viewBox="0 0 32 32"><path fill="currentColor" d="M24 25h2v3c0 1.1-.9 2-2 2H6c-1.1 0-2-.9-2-2V4c0-1.1.9-2 2-2h18c1.1 0 2 .9 2 2v3h-2V4H6v24h18zm-8 1v-5.2l2.3 2.3l1.4-1.4L15 17l-4.7 4.7l1.4 1.4l2.3-2.3V26zm2.3-17.1L16 11.2V6h-2v5.2l-2.3-2.3l-1.4 1.4L15 15l4.7-4.7zM22 17h6v-2h-6zm0-6v2h6v-2zm0 10h6v-2h-6z"/></symbol><symbol id="hd-icon-carbon-build-image" viewBox="0 0 32 32"><path fill="currentColor" d="M30 25v-2h-2.1c-.1-.6-.4-1.2-.7-1.8l1.5-1.5l-1.4-1.4l-1.5 1.5c-.5-.3-1.1-.6-1.8-.7V17h-2v2.1c-.6.1-1.2.4-1.8.7l-1.5-1.5l-1.4 1.4l1.5 1.5c-.3.5-.6 1.1-.7 1.8H16v2h2.1c.1.6.4 1.2.7 1.8l-1.5 1.5l1.4 1.4l1.5-1.5c.5.3 1.1.6 1.8.7V31h2v-2.1c.6-.1 1.2-.4 1.8-.7l1.5 1.5l1.4-1.4l-1.5-1.5c.3-.5.6-1.1.7-1.8zm-7 2c-1.7 0-3-1.3-3-3s1.3-3 3-3s3 1.3 3 3s-1.3 3-3 3M21.485 7.126l-9-5a1 1 0 0 0-.97 0l-9 5A1 1 0 0 0 2 8v10a1 1 0 0 0 .514.874l9 5A1 1 0 0 0 13 23v-9.412L20 9.7V14h2V8a1 1 0 0 0-.515-.874M12 4.144L18.941 8L12 11.856L5.06 8zM4 17.411V9.7l7 3.89v7.71z"/></symbol><symbol id="hd-icon-carbon-build-run" viewBox="0 0 32 32"><path fill="currentColor" d="m30 24l-6 6l-1.4-1.4l3.6-3.6H17v-2h9.2l-3.6-3.6L24 18zM21.485 7.126l-9-5a1 1 0 0 0-.97 0l-9 5A1 1 0 0 0 2 8v10a1 1 0 0 0 .514.874l9 5A1 1 0 0 0 13 23v-9.412L20 9.7V14h2V8a1 1 0 0 0-.515-.874M12 4.144L18.941 8L12 11.856L5.06 8zM4 17.411V9.7l7 3.89v7.71z"/></symbol><symbol id="hd-icon-carbon-build-tool" viewBox="0 0 32 32"><path fill="currentColor" d="M28 14h-1V7c0-1.1-.9-2-2-2h-6v2h6v7h-1c-1.1 0-2 .9-2 2v9H9.9c-.4-1.4-1.5-2.5-2.9-2.9V7h6.2l-2.6 2.6L12 11l5-5l-5-5l-1.4 1.4L13.2 5H7c-1.1 0-2 .9-2 2v15.1c-1.7.4-3 2-3 3.9c0 2.2 1.8 4 4 4c1.9 0 3.4-1.3 3.9-3H22v1c0 1.1.9 2 2 2h4c1.1 0 2-.9 2-2V16c0-1.1-.9-2-2-2M6 28c-1.1 0-2-.9-2-2s.9-2 2-2s2 .9 2 2s-.9 2-2 2m18 0V16h4v12z"/></symbol><symbol id="hd-icon-carbon-building" viewBox="0 0 32 32"><path fill="currentColor" d="M28 2H16a2 2 0 0 0-2 2v10H4a2 2 0 0 0-2 2v14h28V4a2 2 0 0 0-2-2M9 28v-7h4v7Zm19 0H15v-8a1 1 0 0 0-1-1H8a1 1 0 0 0-1 1v8H4V16h12V4h12Z"/><path fill="currentColor" d="M18 8h2v2h-2zm6 0h2v2h-2zm-6 6h2v2h-2zm6 0h2v2h-2zm-6 6h2v2h-2zm6 0h2v2h-2z"/></symbol><symbol id="hd-icon-carbon-building-insights-1" viewBox="0 0 32 32"><path fill="currentColor" d="M28 2H16a2 2 0 0 0-2 2v10H4a2 2 0 0 0-2 2v14h28V4a2 2 0 0 0-2-2M9 28v-7h4v7Zm19 0H15v-8a1 1 0 0 0-1-1H8a1 1 0 0 0-1 1v8H4V16h12V4h12Z"/><path fill="currentColor" d="M18 8h2v2h-2zm6 0h2v2h-2zm-6 6h2v2h-2zm6 0h2v2h-2zm-6 6h2v2h-2zm6 0h2v2h-2zM9 12H7a5.006 5.006 0 0 1 5-5v2a3.003 3.003 0 0 0-3 3m-5 0H2A10.01 10.01 0 0 1 12 2v2a8.01 8.01 0 0 0-8 8"/></symbol><symbol id="hd-icon-carbon-building-insights-2" viewBox="0 0 32 32"><path fill="currentColor" d="M28 2H16a2 2 0 0 0-2 2v10H4a2 2 0 0 0-2 2v14h28V4a2 2 0 0 0-2-2M9 28v-7h4v7Zm19 0H15v-8a1 1 0 0 0-1-1H8a1 1 0 0 0-1 1v8H4V16h12V4h12Z"/><path fill="currentColor" d="M18 8h2v2h-2zm6 0h2v2h-2zm-6 6h2v2h-2zm6 0h2v2h-2zm-6 6h2v2h-2zm6 0h2v2h-2zM5.5 12a3.5 3.5 0 0 1 0-7h.627A4.006 4.006 0 0 1 10 2h2v2h-2a2 2 0 0 0-2 2v1H5.5a1.5 1.5 0 0 0 0 3H12v2Z"/></symbol><symbol id="hd-icon-carbon-building-insights-3" viewBox="0 0 32 32"><path fill="currentColor" d="M28 2H16a2 2 0 0 0-2 2v10H4a2 2 0 0 0-2 2v14h28V4a2 2 0 0 0-2-2M9 28v-7h4v7Zm19 0H15v-8a1 1 0 0 0-1-1H8a1 1 0 0 0-1 1v8H4V16h12V4h12Z"/><path fill="currentColor" d="M18 8h2v2h-2zm6 0h2v2h-2zm-6 6h2v2h-2zm6 0h2v2h-2zm-6 6h2v2h-2zm6 0h2v2h-2zM2 10h5v2H2zm8-8h2v5h-2zM4 5.414L5.414 4L9 7.585L7.585 9z"/></symbol><symbol id="hd-icon-carbon-bullhorn" viewBox="0 0 32 32"><path fill="currentColor" d="M26 6v2.17l-20.36 3.7a2 2 0 0 0-1.64 2v4.34a2 2 0 0 0 1.64 2l2.36.35V24a2 2 0 0 0 2 2h8a2 2 0 0 0 2-2v-1.26l6 1.09V26h2V6Zm-8 18h-8v-3.07l8 1.45ZM6 18.17v-4.34l20-3.63v11.6Z"/></symbol><symbol id="hd-icon-carbon-buoy" viewBox="0 0 32 32"><path fill="currentColor" d="M28 22a3.44 3.44 0 0 1-3.051-2.316a1 1 0 0 0-1.896-.005A3.44 3.44 0 0 1 20 22a3.44 3.44 0 0 1-3.051-2.316A1.01 1.01 0 0 0 16 19a.99.99 0 0 0-.947.679A3.44 3.44 0 0 1 12 22a3.44 3.44 0 0 1-3.051-2.316A1.01 1.01 0 0 0 8 19a.97.97 0 0 0-.947.679A3.44 3.44 0 0 1 4 22H2v2h2a4.93 4.93 0 0 0 4-1.987a5.6 5.6 0 0 0 1 .99a7 7 0 0 0 14 0a5.6 5.6 0 0 0 1-.99A4.93 4.93 0 0 0 28 24h2v-2Zm-12 6a5 5 0 0 1-4.907-4.085A5 5 0 0 0 12 24a4.93 4.93 0 0 0 4-1.987A4.93 4.93 0 0 0 20 24a5 5 0 0 0 .908-.085A5 5 0 0 1 16 28"/><path fill="currentColor" d="M20.07 7.835A2.01 2.01 0 0 0 18.077 6H17V2h-2v4h-1.082a1.995 1.995 0 0 0-1.986 1.772L10.28 19h2.022l.734-5h5.921l.735 5h2.021ZM13.33 12l.588-4l4.167.063l.578 3.937Z"/></symbol><symbol id="hd-icon-carbon-bus" viewBox="0 0 32 32"><path fill="currentColor" d="M27 11h2v4h-2zM3 11h2v4H3zm17 9h2v2h-2zm-10 0h2v2h-2z"/><path fill="currentColor" d="M21 4H11a5.006 5.006 0 0 0-5 5v14a2 2 0 0 0 2 2v3h2v-3h12v3h2v-3a2.003 2.003 0 0 0 2-2V9a5.006 5.006 0 0 0-5-5m3 6v6H8v-6ZM11 6h10a2.995 2.995 0 0 1 2.816 2H8.184A2.995 2.995 0 0 1 11 6M8 23v-5h16.001l.001 5Z"/></symbol><symbol id="hd-icon-carbon-business-metrics" viewBox="0 0 32 32"><path fill="currentColor" d="M22 30a1 1 0 0 1-.894-.553L19.382 26H16v-2h4a1 1 0 0 1 .895.553L22 26.763l3.106-6.21c.184-.369.539-.553.894-.553s.71.184.894.553L28.618 24H32v2h-4a1 1 0 0 1-.894-.553L26 23.237l-3.105 6.21A1 1 0 0 1 22 30m1.414-20L22 8.586L17.285 13.3A3 3 0 0 0 16 13c-1.654 0-3 1.346-3 3s1.346 3 3 3s3-1.346 3-3c0-.462-.113-.894-.3-1.285zM16 17c-.551 0-1-.449-1-1s.449-1 1-1s1 .449 1 1s-.449 1-1 1m10-1a9.9 9.9 0 0 0-1.14-4.618l-1.495 1.496c.408.96.635 2.015.635 3.122zM16 8c1.107 0 2.162.227 3.122.635l1.496-1.496A9.9 9.9 0 0 0 16 6C10.486 6 6 10.486 6 16h2c0-4.411 3.589-8 8-8"/><path fill="currentColor" d="M7.51 24.49A11.96 11.96 0 0 1 4 16C4 9.37 9.37 4 16 4c6.62 0 11.99 5.38 12 12h2c0-7.73-6.27-14-14-14S2 8.27 2 16c0 3.87 1.57 7.37 4.1 9.9z"/></symbol><symbol id="hd-icon-carbon-business-processes" viewBox="0 0 32 32"><path fill="currentColor" d="M23 31h-.028a1 1 0 0 1-.912-.658l-3.136-8.625l-2.005 4.677A1 1 0 0 1 16 27h-4v-2h3.34l2.74-6.394c.163-.377.549-.616.948-.606a1 1 0 0 1 .912.658l3.136 8.626l2.005-4.678A1 1 0 0 1 26 22h4v2h-3.34l-2.74 6.394A1 1 0 0 1 23 31"/><path fill="currentColor" d="M9 25H4V10h24v9h2v-9c0-1.103-.897-2-2-2h-6V4c0-1.103-.897-2-2-2h-8c-1.103 0-2 .897-2 2v4H4c-1.103 0-2 .897-2 2v15c0 1.103.897 2 2 2h5zm3-21h8v4h-8z"/></symbol><symbol id="hd-icon-carbon-button-centered" viewBox="0 0 32 32"><path fill="currentColor" d="M9 15h14v2H9z"/><path fill="currentColor" d="M28 22H4a2 2 0 0 1-2-2v-8a2 2 0 0 1 2-2h24a2 2 0 0 1 2 2v8a2 2 0 0 1-2 2M4 12v8h24v-8Z"/></symbol><symbol id="hd-icon-carbon-button-flush-left" viewBox="0 0 32 32"><path fill="currentColor" d="M6 15h14v2H6z"/><path fill="currentColor" d="M28 22H4c-1.103 0-2-.897-2-2v-8c0-1.103.897-2 2-2h24c1.103 0 2 .897 2 2v8c0 1.103-.897 2-2 2M4 12v8h24v-8z"/></symbol><symbol id="hd-icon-carbon-c" viewBox="0 0 32 32"><path fill="currentColor" d="M19 23h-6c-1.103 0-2-.897-2-2V11c0-1.103.897-2 2-2h6v2h-6v10h6z"/></symbol><symbol id="hd-icon-carbon-cabin-care" viewBox="0 0 32 32"><path fill="currentColor" d="M27.302 2a2.66 2.66 0 0 0-1.908.806l-.393.405l-.397-.405a2.66 2.66 0 0 0-3.816 0a2.8 2.8 0 0 0 0 3.896L25.001 11l4.209-4.298a2.8 2.8 0 0 0 0-3.896A2.66 2.66 0 0 0 27.302 2m-3.48 16h-8.739L11.864 5.965a4 4 0 0 0-7.727 2.07l4.408 16.482A2 2 0 0 0 10.477 26H19v2H4v2h15a2 2 0 0 0 2-2v-2h3a4.005 4.005 0 0 0 3.98-4.4a4.12 4.12 0 0 0-4.158-3.6M24 24H10.478L6.068 7.518a2 2 0 1 1 3.864-1.035L13.547 20H24a2 2 0 0 1 0 4"/></symbol><symbol id="hd-icon-carbon-cabin-care-alert" viewBox="0 0 32 32"><path fill="currentColor" d="M24 2h2v7h-2z"/><rect width="3" height="3" x="23.5" y="11" fill="currentColor" rx="1.5"/><path fill="currentColor" d="M23.822 18h-8.739L11.864 5.965a4 4 0 0 0-7.727 2.07l4.408 16.482A2 2 0 0 0 10.477 26H19v2H4v2h15a2 2 0 0 0 2-2v-2h3a4.005 4.005 0 0 0 3.98-4.4a4.12 4.12 0 0 0-4.158-3.6M24 24H10.478L6.067 7.518a2 2 0 1 1 3.864-1.035L13.547 20H24a2 2 0 0 1 0 4"/></symbol><symbol id="hd-icon-carbon-cabin-care-alt" viewBox="0 0 32 32"><path fill="currentColor" d="M30 25v-2h-9.232l-.8-3H27v-2h-7.565l-2.47-9.258l-1.93.516l3.8 14.257A2.004 2.004 0 0 0 20.77 25H22v3H10v-3h6v-2H6.768l-.8-3H13v-2H5.435l-2.47-9.258l-1.93.516l3.8 14.257A2.004 2.004 0 0 0 6.77 25H8v3H2v2h28v-2h-6v-3ZM27.303 2a2.66 2.66 0 0 0-1.908.806L25 3.21l-.395-.405a2.66 2.66 0 0 0-3.816 0a2.8 2.8 0 0 0 0 3.896L25 11l4.21-4.298a2.8 2.8 0 0 0 0-3.896A2.66 2.66 0 0 0 27.304 2"/></symbol><symbol id="hd-icon-carbon-cad" viewBox="0 0 32 32"><path fill="currentColor" d="M18 9h-4a2 2 0 0 0-2 2v12h2v-5h4v5h2V11a2 2 0 0 0-2-2m-4 7v-5h4v5Zm12 7h-4V9h4a4 4 0 0 1 4 4v6a4 4 0 0 1-4 4m-2-2h2a2 2 0 0 0 2-2v-6a2 2 0 0 0-2-2h-2Zm-14 2H4a2 2 0 0 1-2-2V11a2 2 0 0 1 2-2h6v2H4v10h6Z"/></symbol><symbol id="hd-icon-carbon-cafe" viewBox="0 0 32 32"><path fill="currentColor" d="M2 28h28v2H2zm22.5-17H8a2 2 0 0 0-2 2v8a5.006 5.006 0 0 0 5 5h8a5.006 5.006 0 0 0 5-5v-1h.5a4.5 4.5 0 0 0 0-9M22 21a3.003 3.003 0 0 1-3 3h-8a3.003 3.003 0 0 1-3-3v-8h14Zm2.5-3H24v-5h.5a2.5 2.5 0 0 1 0 5M19 9h-2v-.146a1.99 1.99 0 0 0-1.105-1.789L13.21 5.724A3.98 3.98 0 0 1 11 2.146V1h2v1.146a1.99 1.99 0 0 0 1.106 1.789l2.683 1.341A3.98 3.98 0 0 1 19 8.854Z"/></symbol><symbol id="hd-icon-carbon-calculation" viewBox="0 0 32 32"><path fill="currentColor" d="M14 8h-4V4H8v4H4v2h4v4h2v-4h4zM4 19h10v2H4zm0 5h10v2H4zM18 8h10v2H18zm6.41 14L28 18.41L26.59 17L23 20.59L19.41 17L18 18.41L21.59 22L18 25.59L19.41 27L23 23.41L26.59 27L28 25.59z"/></symbol><symbol id="hd-icon-carbon-calculation-alt" viewBox="0 0 32 32"><path fill="currentColor" d="M19 13h6v2h-6zm-6 8h-2v-2H9v2H7v2h2v2h2v-2h2zM7 9h6v2H7zm12 8h6v2h-6z"/><path fill="currentColor" d="M27 3H5a2 2 0 0 0-2 2v22a2 2 0 0 0 2 2h22a2 2 0 0 0 2-2V5a2 2 0 0 0-2-2M15 5v10H5V5ZM5 17h10v10H5Zm12 10V5h10v22Z"/></symbol><symbol id="hd-icon-carbon-calculator" viewBox="0 0 32 32"><path fill="currentColor" d="M26 4v24H6V4zm0-2H6a2 2 0 0 0-2 2v24a2 2 0 0 0 2 2h20a2 2 0 0 0 2-2V4a2 2 0 0 0-2-2"/><path fill="currentColor" d="M9 23h2v2H9zm12 0h2v2h-2zM9 18h2v2H9zm12 0h2v2h-2zM9 13h2v2H9zm6 10h2v2h-2zm0-5h2v2h-2zm0-5h2v2h-2zm6 0h2v2h-2zM9 7h14v3H9z"/></symbol><symbol id="hd-icon-carbon-calculator-check" viewBox="0 0 32 32"><path fill="currentColor" d="M24 26.59L21.41 24L20 25.41l4 4l7-7L29.59 21zM15 23h2v2h-2zm-6 0h2v2H9zm12-5h2v2h-2zm-6 0h2v2h-2zm-6 0h2v2H9zm12-5h2v2h-2zm-6 0h2v2h-2zm-6 0h2v2H9zm0-6h14v3H9z"/><path fill="currentColor" d="M17 30H6.005A2.007 2.007 0 0 1 4 27.995V3.996A2 2 0 0 1 5.996 2h20.008A2 2 0 0 1 28 3.996V18h-2V4H6v24h11Z"/></symbol><symbol id="hd-icon-carbon-calendar" viewBox="0 0 32 32"><path fill="currentColor" d="M26 4h-4V2h-2v2h-8V2h-2v2H6c-1.1 0-2 .9-2 2v20c0 1.1.9 2 2 2h20c1.1 0 2-.9 2-2V6c0-1.1-.9-2-2-2m0 22H6V12h20zm0-16H6V6h4v2h2V6h8v2h2V6h4z"/></symbol><symbol id="hd-icon-carbon-calendar-add" viewBox="0 0 32 32"><path fill="currentColor" d="M30 22h-6v-6h-2v6h-6v2h6v6h2v-6h6z"/><path fill="currentColor" d="M28 6c0-1.1-.9-2-2-2h-4V2h-2v2h-8V2h-2v2H6c-1.1 0-2 .9-2 2v20c0 1.1.9 2 2 2h8v-2H6V6h4v2h2V6h8v2h2V6h4v8h2z"/></symbol><symbol id="hd-icon-carbon-calendar-add-alt" viewBox="0 0 32 32"><path fill="currentColor" d="M26 21h-3v-3h-2v3h-3v2h3v3h2v-3h3z"/><path fill="currentColor" d="M22 30c-4.4 0-8-3.6-8-8s3.6-8 8-8s8 3.6 8 8s-3.6 8-8 8m0-14c-3.3 0-6 2.7-6 6s2.7 6 6 6s6-2.7 6-6s-2.7-6-6-6"/><path fill="currentColor" d="M28 6c0-1.1-.9-2-2-2h-4V2h-2v2h-8V2h-2v2H6c-1.1 0-2 .9-2 2v20c0 1.1.9 2 2 2h6v-2H6V6h4v2h2V6h8v2h2V6h4v6h2z"/></symbol><symbol id="hd-icon-carbon-calendar-heat-map" viewBox="0 0 32 32"><path fill="currentColor" d="M26 4h-4V2h-2v2h-8V2h-2v2H6a2.003 2.003 0 0 0-2 2v20a2.003 2.003 0 0 0 2 2h20a2.003 2.003 0 0 0 2-2V6a2.003 2.003 0 0 0-2-2M6 6h4v2h2V6h8v2h2V6h4v4H6Zm0 6h5v6H6Zm13 14h-6v-6h6Zm0-8h-6v-6h6Zm2 8v-6h5l.001 6Z"/></symbol><symbol id="hd-icon-carbon-calendar-settings" viewBox="0 0 32 32"><path fill="currentColor" d="M30 23v-2h-2.09a5.96 5.96 0 0 0-1.024-2.47l1.478-1.48l-1.414-1.414l-1.479 1.479A5.96 5.96 0 0 0 23 16.09V14h-2v2.09a5.96 5.96 0 0 0-2.47 1.024l-1.48-1.478l-1.414 1.414l1.479 1.479A6 6 0 0 0 16.09 21H14v2h2.09a6 6 0 0 0 1.024 2.47l-1.478 1.48l1.414 1.414l1.479-1.479A5.96 5.96 0 0 0 21 27.91V30h2v-2.09a5.96 5.96 0 0 0 2.47-1.024l1.48 1.478l1.414-1.414l-1.479-1.479A5.96 5.96 0 0 0 27.91 23Zm-8 3a4 4 0 1 1 4-4a4.005 4.005 0 0 1-4 4"/><path fill="currentColor" d="M28 6a2 2 0 0 0-2-2h-4V2h-2v2h-8V2h-2v2H6a2 2 0 0 0-2 2v20a2 2 0 0 0 2 2h4v-2H6V6h4v2h2V6h8v2h2V6h4v6h2Z"/></symbol><symbol id="hd-icon-carbon-calendar-tools" viewBox="0 0 32 32"><path fill="currentColor" d="M23.981 24.433A3.96 3.96 0 0 0 26 25a4.005 4.005 0 0 0 4-4a4 4 0 0 0-.15-1.023l-2.436 2.437a2 2 0 1 1-2.828-2.828l2.437-2.437A4 4 0 0 0 26 17a4.005 4.005 0 0 0-4 4a3.95 3.95 0 0 0 .567 2.02L17 28.585L18.414 30Z"/><path fill="currentColor" fill-rule="evenodd" d="M26 4h-4V2h-2v2h-8V2h-2v2H6a2 2 0 0 0-2 2v20a2 2 0 0 0 2 2h8v-2H6V6h4v2h2V6h8v2h2V6h4v8h2V6a2 2 0 0 0-2-2"/></symbol><symbol id="hd-icon-carbon-calibrate" viewBox="0 0 32 32"><path fill="currentColor" d="M28.83 21.17L25 17.37l.67-.67a1 1 0 0 0 0-1.41l-6-6a1 1 0 0 0-1.41 0l-.79.79l-6.76-6.79a1 1 0 0 0-1.41 0l-4 4l-.12.15l-4 6a1 1 0 0 0 .12 1.26l3 3a1 1 0 0 0 1.42 0L10 13.41l2.09 2.09l-4.8 4.79a1 1 0 0 0 0 1.41l2 2a1 1 0 0 0 .71.3a1 1 0 0 0 .52-.15l4.33-2.6l2.44 2.45a1 1 0 0 0 1.41 0l.67-.7l3.79 3.83a4 4 0 0 0 5.66-5.66ZM10 10.58l-5 5l-1.71-1.71l3.49-5.24L10 5.41l6.09 6.09l-2.59 2.58Zm8 11l-2.84-2.84l-5 3l-.74-.74L19 11.41L23.59 16Zm9.42 3.83a2 2 0 0 1-2.83 0l-3.8-3.79l2.83-2.83l3.8 3.79a2 2 0 0 1 0 2.83"/></symbol><symbol id="hd-icon-carbon-calls" viewBox="0 0 32 32"><path fill="currentColor" d="M26 14c1.103 0 2 .897 2 2s-.897 2-2 2s-2-.897-2-2s.897-2 2-2m0-2a4 4 0 1 0 0 8a4 4 0 0 0 0-8m-11-1l-1.414 1.414L16.172 15H7.816A2.995 2.995 0 0 0 5 13c-1.654 0-3 1.346-3 3s1.346 3 3 3a2.995 2.995 0 0 0 2.816-2h8.356l-2.586 2.586L15 21l5-5zM5 17a1.001 1.001 0 0 1 0-2a1.001 1.001 0 0 1 0 2"/></symbol><symbol id="hd-icon-carbon-calls-all" viewBox="0 0 32 32"><path fill="currentColor" d="M26 12a4 4 0 1 0 0 8a4 4 0 0 0 0-8m0 6c-1.103 0-2-.897-2-2s.897-2 2-2s2 .897 2 2s-.897 2-2 2m-11 3v2h2.586l-2.3 2.3A2.96 2.96 0 0 0 14 25c-1.654 0-3 1.346-3 3s1.346 3 3 3s3-1.346 3-3c0-.462-.114-.894-.3-1.285l2.3-2.301V27h2v-6zm-1 8a1.001 1.001 0 0 1 0-2a1.001 1.001 0 0 1 0 2m-2.586-17.586L10 12.83L12.172 15H7.816A2.995 2.995 0 0 0 5 13c-1.654 0-3 1.346-3 3s1.346 3 3 3a2.995 2.995 0 0 0 2.816-2h4.356L10 19.172l1.414 1.414L16 16zM5 17a1.001 1.001 0 0 1 0-2a1.001 1.001 0 0 1 0 2M19 5v2.586l-2.3-2.3c.187-.392.3-.824.3-1.286c0-1.654-1.346-3-3-3s-3 1.346-3 3s1.346 3 3 3a2.96 2.96 0 0 0 1.285-.3L17.586 9H15v2h6V5zm-6-1c0-.551.449-1 1-1s1 .449 1 1s-.448 1-1 1s-1-.449-1-1"/></symbol><symbol id="hd-icon-carbon-calls-incoming" viewBox="0 0 32 32"><path fill="currentColor" d="M26 12a4 4 0 1 0 0 8a4 4 0 0 0 0-8m0 6c-1.103 0-2-.897-2-2s.897-2 2-2s2 .897 2 2s-.897 2-2 2m-11 2l-1.414 1.414L16.172 24H7.816A2.995 2.995 0 0 0 5 22c-1.654 0-3 1.346-3 3s1.346 3 3 3a2.995 2.995 0 0 0 2.816-2h8.356l-2.586 2.586L15 30l5-5zM5 26a1.001 1.001 0 0 1 0-2a1.001 1.001 0 0 1 0 2M15 4l-1.414 1.414L16.172 8H7.816A2.995 2.995 0 0 0 5 6C3.346 6 2 7.346 2 9s1.346 3 3 3a2.995 2.995 0 0 0 2.816-2h8.356l-2.586 2.586L15 14l5-5zM5 10a1.001 1.001 0 0 1 0-2a1.001 1.001 0 0 1 0 2"/></symbol><symbol id="hd-icon-carbon-camera" viewBox="0 0 32 32"><path fill="currentColor" d="M29 26H3a1 1 0 0 1-1-1V8a1 1 0 0 1 1-1h6.46l1.71-2.55A1 1 0 0 1 12 4h8a1 1 0 0 1 .83.45L22.54 7H29a1 1 0 0 1 1 1v17a1 1 0 0 1-1 1M4 24h24V9h-6a1 1 0 0 1-.83-.45L19.46 6h-6.92l-1.71 2.55A1 1 0 0 1 10 9H4Z"/><path fill="currentColor" d="M16 22a6 6 0 1 1 6-6a6 6 0 0 1-6 6m0-10a4 4 0 1 0 4 4a4 4 0 0 0-4-4"/></symbol><symbol id="hd-icon-carbon-camera-action" viewBox="0 0 32 32"><path fill="currentColor" d="M12 23a6 6 0 1 1 6-6a6 6 0 0 1-6 6m0-10a4 4 0 1 0 4 4a4 4 0 0 0-4-4"/><path fill="currentColor" d="M29 27H3a1 1 0 0 1-1-1V6a1 1 0 0 1 1-1h26a1 1 0 0 1 1 1v20a1 1 0 0 1-1 1M4 25h24V7H4Z"/><path fill="currentColor" d="M19 9h7v2h-7z"/><circle cx="12" cy="17" r="1" fill="currentColor"/></symbol><symbol id="hd-icon-carbon-campsite" viewBox="0 0 32 32"><path fill="currentColor" d="M27.562 26L17.17 8.928l2.366-3.888L17.828 4L16 7.005L14.17 4l-1.708 1.04l2.367 3.888L4.438 26H2v2h28v-2ZM16 10.85L25.22 26H17v-8h-2v8H6.78Z"/></symbol><symbol id="hd-icon-carbon-car" viewBox="0 0 32 32"><path fill="currentColor" d="m29.338 15.934l-7.732-2.779l-3.232-4.058A2.99 2.99 0 0 0 16.054 8H8.058a3 3 0 0 0-2.48 1.312l-2.712 3.983A5 5 0 0 0 2 16.107V24a1 1 0 0 0 1 1h2.142a3.98 3.98 0 0 0 7.716 0h6.284a3.98 3.98 0 0 0 7.716 0H29a1 1 0 0 0 1-1v-7.125a1 1 0 0 0-.662-.941M9 26a2 2 0 1 1 2-2a2.003 2.003 0 0 1-2 2m14 0a2 2 0 1 1 2-2a2.003 2.003 0 0 1-2 2m5-3h-1.142a3.98 3.98 0 0 0-7.716 0h-6.284a3.98 3.98 0 0 0-7.716 0H4v-6.893a3 3 0 0 1 .52-1.688l2.711-3.981A1 1 0 0 1 8.058 10h7.996a1 1 0 0 1 .764.355l3.4 4.268a1 1 0 0 0 .444.318L28 17.578Z"/></symbol><symbol id="hd-icon-carbon-car-front" viewBox="0 0 32 32"><path fill="currentColor" d="M13 19h6v2h-6z"/><path fill="currentColor" d="m25.44 14l-1.27-4.55A2.01 2.01 0 0 0 22.246 8H9.754a2.01 2.01 0 0 0-1.923 1.45L6.531 14H4v2h2v7a2.003 2.003 0 0 0 2 2v3h2v-3h12v3h2v-3a2.003 2.003 0 0 0 2-2v-7h2v-2ZM9.755 10h12.492l1.428 5H8.326ZM24 21v2H8v-2h2v-2H8v-2h16v2h-2v2Z"/></symbol><symbol id="hd-icon-carbon-carbon" viewBox="0 0 32 32"><path fill="currentColor" d="M13.5 30.815a1 1 0 0 1-.493-.13l-8.5-4.815A1 1 0 0 1 4 25V15a1 1 0 0 1 .507-.87l8.5-4.815a1 1 0 0 1 .986 0l8.5 4.815A1 1 0 0 1 23 15v10a1 1 0 0 1-.507.87l-8.5 4.815a1 1 0 0 1-.493.13M6 24.417l7.5 4.249l7.5-4.249v-8.834l-7.5-4.248L6 15.583Z"/><path fill="currentColor" d="M28 17h-2V7.583l-7.5-4.248l-8.007 4.535l-.986-1.74l8.5-4.815a1 1 0 0 1 .986 0l8.5 4.815A1 1 0 0 1 28 7Z"/></symbol><symbol id="hd-icon-carbon-carbon-accounting" viewBox="0 0 32 32"><path fill="currentColor" d="M29 26h-6v-4a2 2 0 0 1 2-2h2v-2h-4v-2h4a2 2 0 0 1 2 2v2a2 2 0 0 1-2 2h-2v2h4Zm-10-4h-4a2 2 0 0 1-2-2V10a2 2 0 0 1 2-2h4a2 2 0 0 1 2 2v10a2 2 0 0 1-2 2m-4-12v10h4V10Zm-4 12H5a2 2 0 0 1-2-2V10a2 2 0 0 1 2-2h6v2H5v10h6Z"/></symbol><symbol id="hd-icon-carbon-carbon-for-aem" viewBox="0 0 32 32"><circle cx="7" cy="6" r="1" fill="currentColor"/><circle cx="11" cy="6" r="1" fill="currentColor"/><circle cx="28.5" cy="24.5" r="1.5" fill="currentColor"/><circle cx="23.5" cy="27.5" r="1.5" fill="currentColor"/><circle cx="18.5" cy="24.5" r="1.5" fill="currentColor"/><circle cx="18.5" cy="19.5" r="1.5" fill="currentColor"/><circle cx="23.5" cy="16.5" r="1.5" fill="currentColor"/><circle cx="28.5" cy="19.5" r="1.5" fill="currentColor"/><path fill="currentColor" d="M28 2H4a2 2 0 0 0-2 2v20a2 2 0 0 0 2 2h9v-2H4V10h24v4h2V4a2 2 0 0 0-2-2m0 6H4V4h24z"/></symbol><symbol id="hd-icon-carbon-carbon-for-ibm-dotcom" viewBox="0 0 32 32"><path fill="currentColor" d="m29.509 17.689l-6-3.55a1 1 0 0 0-1.018.001l-6 3.55a1 1 0 0 0-.491.86v6.9c0 .354.187.681.491.86l6 3.55a.99.99 0 0 0 1.018 0l6-3.55a1 1 0 0 0 .491-.86v-6.9a1 1 0 0 0-.491-.861M28 24.88l-5 2.958l-5-2.958v-5.76l5-2.958l5 2.958z"/><circle cx="6" cy="6" r="1" fill="currentColor"/><circle cx="9" cy="6" r="1" fill="currentColor"/><path fill="currentColor" d="M28 2H4c-1.103 0-2 .897-2 2v20c0 1.103.897 2 2 2h9v-2H4V10h24v4h2V4c0-1.103-.897-2-2-2M4 8V4h24v4z"/></symbol><symbol id="hd-icon-carbon-carbon-for-ibm-product" viewBox="0 0 32 32"><path fill="currentColor" d="m22.509 12.689l-6-3.55a1 1 0 0 0-1.018.001l-6 3.55a1 1 0 0 0-.491.86v6.9c0 .354.187.681.491.86l6 3.55a.99.99 0 0 0 1.018 0l6-3.55a1 1 0 0 0 .491-.86v-6.9a1 1 0 0 0-.491-.861M21 19.88l-5 2.958l-5-2.958v-5.76l5-2.958l5 2.958z"/><path fill="currentColor" d="M6 20.184V11.07l6.2-3.664l-1.017-1.722l-6.692 3.955A1 1 0 0 0 4 10.5v9.684A3 3 0 0 0 2 23c0 1.654 1.346 3 3 3s3-1.346 3-3a3 3 0 0 0-2-2.816M5 24a1.001 1.001 0 0 1 0-2a1.001 1.001 0 0 1 0 2m22-4c-1.654 0-3 1.346-3 3c0 .353.072.687.185 1.002L16 28.838l-6.404-3.784l-1.017 1.722l6.912 4.084a1 1 0 0 0 1.018.001l8.96-5.295c.45.269.97.434 1.531.434c1.654 0 3-1.346 3-3s-1.346-3-3-3m0 4a1.001 1.001 0 0 1 0-2a1.001 1.001 0 0 1 0 2M16 7c.731 0 1.392-.273 1.913-.708L26 11.071V18h2v-7.5a1 1 0 0 0-.491-.861l-8.567-5.062q.056-.28.058-.577c0-1.654-1.346-3-3-3s-3 1.346-3 3s1.346 3 3 3m0-4a1.001 1.001 0 1 1-1 1c0-.552.449-1 1-1"/></symbol><symbol id="hd-icon-carbon-carbon-for-mobile" viewBox="0 0 32 32"><path fill="currentColor" d="M32 14h-2V8.074l-5.504-3.21l1.008-1.728l6 3.5A1 1 0 0 1 32 7.5zm-12 8a1 1 0 0 1-.504-.136l-6-3.5A1 1 0 0 1 13 17.5v-7a1 1 0 0 1 .496-.864l6-3.5a1 1 0 0 1 1.008 0l6 3.5A1 1 0 0 1 27 10.5v7a1 1 0 0 1-.496.864l-6 3.5A1 1 0 0 1 20 22m-5-5.074l5 2.916l5-2.916v-5.852l-5-2.916l-5 2.916z"/><circle cx="12.5" cy="24.5" r="1.5" fill="currentColor"/><path fill="currentColor" d="M19 30H6c-1.103 0-2-.897-2-2V4c0-1.103.897-2 2-2h13v2H6v24h13v-4h2v4c0 1.103-.897 2-2 2"/></symbol><symbol id="hd-icon-carbon-carbon-for-salesforce" viewBox="0 0 32 32"><path fill="currentColor" d="m29.51 17.69l-6-3.55c-.16-.09-.33-.14-.51-.14s-.35.05-.51.14l-6 3.55c-.3.18-.49.51-.49.86v6.9c0 .35.19.68.49.86l6 3.55c.16.09.33.14.51.14s.35-.05.51-.14l6-3.55c.3-.18.49-.51.49-.86v-6.9c0-.35-.19-.68-.49-.86M28 24.88l-5 2.96l-5-2.96v-5.76l5-2.96l5 2.96z"/><path fill="currentColor" d="M23.4 4.47c-.65 0-1.28.09-1.88.27a5.59 5.59 0 0 0-4.4-2.17c-1.17 0-2.28.36-3.22 1.03A6.06 6.06 0 0 0 9.81 2H9.8c-1.62 0-3.14.63-4.29 1.78a5.97 5.97 0 0 0-1.53 5.88a5.38 5.38 0 0 0-1.97 4.18c0 2.97 2.39 5.39 5.34 5.39h.28a5.69 5.69 0 0 0 4.99 2.98c.47 0 .94-.06 1.38-.17v-2.11c-.43.18-.9.28-1.38.28c-1.53 0-2.92-.97-3.44-2.4l-.3-.81l-.84.17c-.23.05-.46.07-.69.07c-1.84 0-3.34-1.53-3.34-3.4c0-1.2.64-2.33 1.68-2.94l.77-.45l-.36-.82c-.23-.51-.34-1.05-.34-1.61c0-1.07.41-2.07 1.17-2.83C7.7 4.42 8.72 4 9.8 4c1.25 0 2.46.6 3.22 1.59l.6.79l1.2-.96c.65-.55 1.46-.85 2.3-.85c1.29 0 2.49.72 3.14 1.87l.45.8l.83-.38c.58-.26 1.21-.39 1.86-.39c2.54 0 4.6 2.09 4.6 4.65a4.6 4.6 0 0 1-.98 2.83l1.75 1.01a6.6 6.6 0 0 0 1.22-3.84c0-3.67-2.96-6.65-6.6-6.65z"/></symbol><symbol id="hd-icon-carbon-carbon-ui-builder" viewBox="0 0 32 32"><path fill="currentColor" d="M24 28h6v2h-6z"/><circle cx="21" cy="29" r="1" fill="currentColor"/><circle cx="29" cy="25" r="1" fill="currentColor"/><path fill="currentColor" d="M26 26h-6v-2h6zm-2-6h6v2h-6z"/><circle cx="21" cy="21" r="1" fill="currentColor"/><path fill="currentColor" d="m21.493 14.13l-8.5-4.815a1 1 0 0 0-.986 0l-8.5 4.815A1 1 0 0 0 3 15v10a1 1 0 0 0 .507.87l8.5 4.815l.986-1.74L5 24.417v-8.834l7.5-4.248l7.5 4.248V18h2v-3a1 1 0 0 0-.507-.87"/><path fill="currentColor" d="M25 15h2V7a1 1 0 0 0-.507-.87l-8.5-4.815a1 1 0 0 0-.986 0l-8.5 4.815l.986 1.74L17.5 3.334L25 7.583z"/></symbol><symbol id="hd-icon-carbon-caret-down" viewBox="0 0 32 32"><path fill="currentColor" d="m24 12l-8 10l-8-10z"/></symbol><symbol id="hd-icon-carbon-caret-left" viewBox="0 0 32 32"><path fill="currentColor" d="m20 24l-10-8l10-8z"/></symbol><symbol id="hd-icon-carbon-caret-right" viewBox="0 0 32 32"><path fill="currentColor" d="m12 8l10 8l-10 8z"/></symbol><symbol id="hd-icon-carbon-caret-sort" viewBox="0 0 32 32"><path fill="currentColor" d="m24 24l-8 8l-8-8zM8 8l8-8l8 8z"/></symbol><symbol id="hd-icon-carbon-caret-sort-down" viewBox="0 0 32 32"><path fill="currentColor" d="m24 24l-8 8l-8-8z"/></symbol><symbol id="hd-icon-carbon-caret-sort-up" viewBox="0 0 32 32"><path fill="currentColor" d="m8 8l8-8l8 8z"/></symbol><symbol id="hd-icon-carbon-caret-up" viewBox="0 0 32 32"><path fill="currentColor" d="m8 20l8-10l8 10z"/></symbol><symbol id="hd-icon-carbon-carousel-horizontal" viewBox="0 0 32 32"><path fill="currentColor" d="M22 26H10a2 2 0 0 1-2-2V8a2 2 0 0 1 2-2h12a2 2 0 0 1 2 2v16a2 2 0 0 1-2 2M10 8v16h12V8ZM4 24H0v-2h4V10H0V8h4a2 2 0 0 1 2 2v12a2 2 0 0 1-2 2m28 0h-4a2 2 0 0 1-2-2V10a2 2 0 0 1 2-2h4v2h-4v12h4Z"/></symbol><symbol id="hd-icon-carbon-carousel-vertical" viewBox="0 0 32 32"><path fill="currentColor" d="M26 10v12a2 2 0 0 1-2 2H8a2 2 0 0 1-2-2V10a2 2 0 0 1 2-2h16a2 2 0 0 1 2 2M8 22h16V10H8Zm16 6v4h-2v-4H10v4H8v-4a2 2 0 0 1 2-2h12a2 2 0 0 1 2 2m0-28v4a2 2 0 0 1-2 2H10a2 2 0 0 1-2-2V0h2v4h12V0Z"/></symbol><symbol id="hd-icon-carbon-catalog" viewBox="0 0 32 32"><path fill="currentColor" d="M26 2H8a2 2 0 0 0-2 2v4H4v2h2v5H4v2h2v5H4v2h2v4a2 2 0 0 0 2 2h18a2 2 0 0 0 2-2V4a2 2 0 0 0-2-2m0 26H8v-4h2v-2H8v-5h2v-2H8v-5h2V8H8V4h18Z"/><path fill="currentColor" d="M14 8h8v2h-8zm0 7h8v2h-8zm0 7h8v2h-8z"/></symbol><symbol id="hd-icon-carbon-catalog-publish" viewBox="0 0 32 32"><path fill="currentColor" d="m20 20l1.4 1.4l-2.6 2.6H28v2h-9.2l2.6 2.6L20 30l-5-5zm-6-5h8v2h-8zm0-7h8v2h-8z"/><path fill="currentColor" d="M13 28H8v-4h2v-2H8v-5h2v-2H8v-5h2V8H8V4h18v16h2V4c0-1.1-.9-2-2-2H8c-1.1 0-2 .9-2 2v4H4v2h2v5H4v2h2v5H4v2h2v4c0 1.1.9 2 2 2h5z"/></symbol><symbol id="hd-icon-carbon-categories" viewBox="0 0 32 32"><path fill="currentColor" d="m6.76 6l.45.89L7.76 8H12v5H4V6zm.62-2H3a1 1 0 0 0-1 1v9a1 1 0 0 0 1 1h10a1 1 0 0 0 1-1V7a1 1 0 0 0-1-1H9l-.72-1.45a1 1 0 0 0-.9-.55m15.38 2l.45.89l.55 1.11H28v5h-8V6zm.62-2H19a1 1 0 0 0-1 1v9a1 1 0 0 0 1 1h10a1 1 0 0 0 1-1V7a1 1 0 0 0-1-1h-4l-.72-1.45a1 1 0 0 0-.9-.55M6.76 19l.45.89l.55 1.11H12v5H4v-7zm.62-2H3a1 1 0 0 0-1 1v9a1 1 0 0 0 1 1h10a1 1 0 0 0 1-1v-7a1 1 0 0 0-1-1H9l-.72-1.45a1 1 0 0 0-.9-.55m15.38 2l.45.89l.55 1.11H28v5h-8v-7zm.62-2H19a1 1 0 0 0-1 1v9a1 1 0 0 0 1 1h10a1 1 0 0 0 1-1v-7a1 1 0 0 0-1-1h-4l-.72-1.45a1 1 0 0 0-.9-.55"/></symbol><symbol id="hd-icon-carbon-category" viewBox="0 0 32 32"><path fill="currentColor" d="M27 22.141V18a2 2 0 0 0-2-2h-8v-4h2a2 2 0 0 0 2-2V4a2 2 0 0 0-2-2h-6a2 2 0 0 0-2 2v6a2 2 0 0 0 2 2h2v4H7a2 2 0 0 0-2 2v4.142a4 4 0 1 0 2 0V18h8v4.142a4 4 0 1 0 2 0V18h8v4.141a4 4 0 1 0 2 0M13 4h6l.001 6H13ZM8 26a2 2 0 1 1-2-2a2 2 0 0 1 2 2m10 0a2 2 0 1 1-2-2a2.003 2.003 0 0 1 2 2m8 2a2 2 0 1 1 2-2a2 2 0 0 1-2 2"/></symbol><symbol id="hd-icon-carbon-category-add" viewBox="0 0 32 32"><path fill="currentColor" d="m15 6l-1.41 1.41L17.17 11l-3.58 3.59L15 16l5-5z"/><path fill="currentColor" d="M28 24H17v-4h6a2.003 2.003 0 0 0 2-2V4a2 2 0 0 0-2-2H9a2 2 0 0 0-2 2v14a2 2 0 0 0 2 2h6v4H4a2 2 0 0 0-2 2v4h2v-4h11v4h2v-4h11v4h2v-4a2 2 0 0 0-2-2M9 4h14l.002 14H9Z"/></symbol><symbol id="hd-icon-carbon-category-and" viewBox="0 0 32 32"><path fill="currentColor" d="M4 30v-4h11v4h2v-4h11v4h2v-4a2 2 0 0 0-2-2H17v-5h-2v5H4a2 2 0 0 0-2 2v4Zm16.695-16.014A10.1 10.1 0 0 0 21.946 10H23V8h-3v1a9.3 9.3 0 0 1-.664 3.27L16.65 8.883a5.13 5.13 0 0 0 2.144-2.37a3.25 3.25 0 0 0-.189-2.702a3.38 3.38 0 0 0-2.239-1.706a3.47 3.47 0 0 0-4.222 2.119c-.505 1.552.44 3.116 1.261 4.108a4.73 4.73 0 0 0-2.346 4.828A4.45 4.45 0 0 0 15.427 17h.006a5.78 5.78 0 0 0 3.971-1.423L20.532 17h2.552ZM14.047 4.84A1.32 1.32 0 0 1 15.414 4a2.4 2.4 0 0 1 .521.058a1.4 1.4 0 0 1 .912.702a1.25 1.25 0 0 1 .079 1.042a3.7 3.7 0 0 1-1.682 1.593c-.66-.713-1.435-1.822-1.197-2.554M15.432 15h-.004a2.44 2.44 0 0 1-2.392-2.15a2.826 2.826 0 0 1 1.81-3.026l3.312 4.179a3.9 3.9 0 0 1-2.726.997"/></symbol><symbol id="hd-icon-carbon-category-new" viewBox="0 0 32 32"><path fill="currentColor" d="M21 10h-4V6h-2v4h-4v2h4v4h2v-4h4z"/><path fill="currentColor" d="M28 24H17v-4h6a2.003 2.003 0 0 0 2-2V4a2 2 0 0 0-2-2H9a2 2 0 0 0-2 2v14a2 2 0 0 0 2 2h6v4H4a2 2 0 0 0-2 2v4h2v-4h11v4h2v-4h11v4h2v-4a2 2 0 0 0-2-2M9 4h14l.002 14H9Z"/></symbol><symbol id="hd-icon-carbon-category-new-each" viewBox="0 0 32 32"><path fill="currentColor" d="M29 10h-5v2h5v6h-7v2h3v2.142a4 4 0 1 0 2 0V20h2a2.003 2.003 0 0 0 2-2v-6a2 2 0 0 0-2-2m-1 16a2 2 0 1 1-2-2a2.003 2.003 0 0 1 2 2M19 6h-5v2h5v6h-7v2h3v6.142a4 4 0 1 0 2 0V16h2a2 2 0 0 0 2-2V8a2 2 0 0 0-2-2m-1 20a2 2 0 1 1-2-2a2.003 2.003 0 0 1 2 2M9 2H3a2 2 0 0 0-2 2v6a2 2 0 0 0 2 2h2v10.142a4 4 0 1 0 2 0V12h2a2 2 0 0 0 2-2V4a2 2 0 0 0-2-2M8 26a2 2 0 1 1-2-2a2 2 0 0 1 2 2M3 10V4h6l.002 6Z"/></symbol><symbol id="hd-icon-carbon-cbl" viewBox="0 0 32 32"><path fill="currentColor" d="M30 21v2h-8V9h2v12zm-20 0H4V11h6V9H4c-1.103 0-2 .897-2 2v10c0 1.103.897 2 2 2h6zm10-7c0 .771-.3 1.468-.78 2c.48.532.78 1.229.78 2v2c0 1.654-1.346 3-3 3h-5V9h5c1.654 0 3 1.346 3 3zm-2 4a1 1 0 0 0-1-1h-3v4h3a1 1 0 0 0 1-1zm0-6c0-.551-.449-1-1-1h-3v4h3c.551 0 1-.449 1-1z"/></symbol><symbol id="hd-icon-carbon-ccx" viewBox="0 0 32 32"><path d="M10 23H5a2 2 0 0 1-2-2v-6a2 2 0 0 1 2-2h5v2H5v6h5z" fill="currentColor"/><path d="M19 23h-5a2 2 0 0 1-2-2v-6a2 2 0 0 1 2-2h5v2h-5v6h5z" fill="currentColor"/><path d="M29 9h-2l-2 6l-2-6h-2l2.75 7L21 23h2l2-6l2 6h2l-2.75-7L29 9z" fill="currentColor"/></symbol><symbol id="hd-icon-carbon-cd-archive" viewBox="0 0 32 32"><path d="M16 28a12 12 0 1 1 12-12a12 12 0 0 1-12 12zm0-22a10 10 0 1 0 10 10A10 10 0 0 0 16 6z" fill="currentColor"/><path d="M16 22a6 6 0 1 1 6-6a6 6 0 0 1-6 6zm0-10a4 4 0 1 0 4 4a4 4 0 0 0-4-4z" fill="currentColor"/><circle cx="16" cy="16" r="2" fill="currentColor"/></symbol><symbol id="hd-icon-carbon-cd-create-archive" viewBox="0 0 32 32"><path d="M14 20a6 6 0 1 1 6-6a6 6 0 0 1-6 6zm0-10a4 4 0 1 0 4 4a4 4 0 0 0-4-4z" fill="currentColor"/><circle cx="14" cy="14" r="2" fill="currentColor"/><path d="M17 23.54A10 10 0 1 1 24 14c0 .34 0 .67-.05 1h2c0-.33.05-.66.05-1a12 12 0 1 0-12 12a12.33 12.33 0 0 0 3-.39z" fill="currentColor"/><path d="M25 30l-2.14-1A5 5 0 0 1 20 24.47V18h10v6.47A5 5 0 0 1 27.14 29zm-3-10v4.47a3 3 0 0 0 1.72 2.71l1.28.61l1.28-.61A3 3 0 0 0 28 24.47V20z" fill="currentColor"/></symbol><symbol id="hd-icon-carbon-cd-create-exchange" viewBox="0 0 32 32"><circle cx="14" cy="14" r="2" fill="currentColor"/><path d="M14 2a12 12 0 0 0 0 24v-2a10 10 0 1 1 10-10a8.27 8.27 0 0 1 0 1h2c0-.33.05-.66.05-1A12 12 0 0 0 14 2z" fill="currentColor"/><path d="M17 24h9.17l-2.59 2.59L25 28l5-5l-5-5l-1.42 1.42L26.17 22H17v2z" fill="currentColor"/><path d="M14 20a6 6 0 1 1 6-6a6 6 0 0 1-6 6zm0-10a4 4 0 1 0 4 4a4 4 0 0 0-4-4z" fill="currentColor"/></symbol><symbol id="hd-icon-carbon-cda" viewBox="0 0 32 32"><path fill="currentColor" d="M28 9h-4a2 2 0 0 0-2 2v12h2v-5h4v5h2V11a2 2 0 0 0-2-2m-4 7v-5h4v5Zm-8 7h-4V9h4a4.004 4.004 0 0 1 4 4v6a4.004 4.004 0 0 1-4 4m-2-2h2a2.003 2.003 0 0 0 2-2v-6a2 2 0 0 0-2-2h-2Zm-4 2H4a2 2 0 0 1-2-2V11a2 2 0 0 1 2-2h6v2H4v10h6Z"/></symbol><symbol id="hd-icon-carbon-cell-tower" viewBox="0 0 32 32"><path fill="currentColor" d="M25 11v5h-8v-5h-2v5H7v-5H5v12h2v-5h3v12h2V18h3v5h2v-5h3v12h2V18h3v5h2V11zm-9-5c-1.7 0-3.2.7-4.2 1.8l1.4 1.4C13.9 8.4 14.9 8 16 8s2.1.4 2.8 1.2l1.4-1.4C19.2 6.7 17.7 6 16 6"/><path fill="currentColor" d="m8.9 4.9l1.4 1.4C11.8 4.9 13.8 4 16 4s4.2.9 5.7 2.3l1.4-1.4C21.3 3.1 18.8 2 16 2s-5.3 1.1-7.1 2.9"/></symbol><symbol id="hd-icon-carbon-center-circle" viewBox="0 0 32 32"><path fill="currentColor" d="M30 15h-2.05A12.01 12.01 0 0 0 17 4.05V2h-2v2.05A12.01 12.01 0 0 0 4.05 15H2v2h2.05A12.01 12.01 0 0 0 15 27.95V30h2v-2.05A12.01 12.01 0 0 0 27.95 17H30ZM17 25.95V22h-2v3.95A10.02 10.02 0 0 1 6.05 17H10v-2H6.05A10.02 10.02 0 0 1 15 6.05V10h2V6.05A10.02 10.02 0 0 1 25.95 15H22v2h3.95A10.02 10.02 0 0 1 17 25.95"/></symbol><symbol id="hd-icon-carbon-center-square" viewBox="0 0 32 32"><path fill="currentColor" d="M6 12H4V4h8v2H6zm22 0h-2V6h-6V4h8zM12 28H4v-8h2v6h6zm16 0h-8v-2h6v-6h2zM15 10h2v4h-2zm-5 5h4v2h-4zm8 0h4v2h-4zm-3 3h2v4h-2z"/></symbol><symbol id="hd-icon-carbon-center-to-fit" viewBox="0 0 32 32"><path fill="currentColor" d="M8 2H2v6h2V4h4zm16 0h6v6h-2V4h-4zM8 30H2v-6h2v4h4zm16 0h6v-6h-2v4h-4zm0-6H8a2 2 0 0 1-2-2V10a2 2 0 0 1 2-2h16a2 2 0 0 1 2 2v12a2 2 0 0 1-2 2M8 10v12h16V10Z"/></symbol><symbol id="hd-icon-carbon-certificate" viewBox="0 0 32 32"><path fill="currentColor" d="m24 17l1.912 3.703l4.088.594L27 24l.771 4L24 25.75L20.229 28L21 24l-3-2.703l4.2-.594zM6 16h6v2H6zm0-4h10v2H6zm0-4h10v2H6z"/><path fill="currentColor" d="M16 26H4V6h24v10h2V6a2 2 0 0 0-2-2H4a2 2 0 0 0-2 2v20a2 2 0 0 0 2 2h12Z"/></symbol><symbol id="hd-icon-carbon-certificate-check" viewBox="0 0 32 32"><path fill="currentColor" d="M6 16h6v2H6zm0-4h10v2H6zm0-4h10v2H6z"/><path fill="currentColor" d="M14 26H4V6h24v10h2V6a2 2 0 0 0-2-2H4a2 2 0 0 0-2 2v20a2 2 0 0 0 2 2h10Z"/><path fill="currentColor" d="M22 25.59L19.41 23L18 24.41l4 4l8-8L28.59 19z"/></symbol><symbol id="hd-icon-carbon-change-catalog" viewBox="0 0 32 32"><path fill="currentColor" d="M24 24v2h2.46A5.94 5.94 0 0 1 22 28a6.007 6.007 0 0 1-6-6h-2a7.984 7.984 0 0 0 14 5.265V30h2v-6Zm-2-10a8.04 8.04 0 0 0-6 2.735V14h-2v6h6v-2h-2.46A5.94 5.94 0 0 1 22 16a6.007 6.007 0 0 1 6 6h2a8.01 8.01 0 0 0-8-8"/><path fill="currentColor" d="M12 28H6v-4h2v-2H6v-5h2v-2H6v-5h2V8H6V4h18v8h2V4a2 2 0 0 0-2-2H6a2 2 0 0 0-2 2v4H2v2h2v5H2v2h2v5H2v2h2v4a2 2 0 0 0 2 2h6Z"/></symbol><symbol id="hd-icon-carbon-channels" viewBox="0 0 32 32"><path fill="currentColor" d="M10 15V7.8l3.6 3.6L15 10L9 4l-6 6l1.4 1.4L8 7.8v12.34c-1.72.45-3 2-3 3.86c0 2.21 1.79 4 4 4s4-1.79 4-4c0-1.86-1.28-3.41-3-3.86zm1 9c0 1.1-.9 2-2 2s-2-.9-2-2s.9-2 2-2s2 .9 2 2m16.6-3.4L24 24.2V11.86c1.72-.45 3-2 3-3.86c0-2.21-1.79-4-4-4s-4 1.79-4 4c0 1.86 1.28 3.41 3 3.86V24.2l-3.6-3.6L17 22l6 6l6-6zM21 8c0-1.1.9-2 2-2s2 .9 2 2s-.9 2-2 2s-2-.9-2-2"/></symbol><symbol id="hd-icon-carbon-character-decimal" viewBox="0 0 32 32"><path fill="currentColor" d="M21 15h2v2h-2z"/><path fill="currentColor" d="M24 23h-4a2 2 0 0 1-2-2V11a2 2 0 0 1 2-2h4a2 2 0 0 1 2 2v10a2.003 2.003 0 0 1-2 2m-4-12v10h4V11Zm-9 4h2v2h-2z"/><path fill="currentColor" d="M14 23h-4a2 2 0 0 1-2-2V11a2 2 0 0 1 2-2h4a2 2 0 0 1 2 2v10a2.003 2.003 0 0 1-2 2m-4-12v10h4V11ZM4 21h2v2H4z"/></symbol><symbol id="hd-icon-carbon-character-fraction" viewBox="0 0 32 32"><path fill="currentColor" d="M28 30h-8v-6a2 2 0 0 1 2-2h4v-4h-6v-2h6a2 2 0 0 1 2 2v4a2 2 0 0 1-2 2h-4v4h6ZM7 23.586L22.586 8L24 9.414L8.414 25zM4.5 15.5v-1h3v-11h-3v-1h4v12h3v1z"/><path fill="currentColor" d="M8 3v12zm1-1H4v2h3v10H4v2h8v-2H9z"/></symbol><symbol id="hd-icon-carbon-character-integer" viewBox="0 0 32 32"><path fill="currentColor" d="M19.5 22.5v-1h3v-11h-3v-1h4v12h3v1z"/><path fill="currentColor" d="M23 10v12zm1-1h-5v2h3v10h-3v2h8v-2h-3zM5 21h10v2H5zm10-8h-4V9H9v4H5v2h4v4h2v-4h4z"/></symbol><symbol id="hd-icon-carbon-character-lower-case" viewBox="0 0 32 32"><path fill="currentColor" d="M29 23h-5a2.003 2.003 0 0 1-2-2v-6a2 2 0 0 1 2-2h5v2h-5v6h5ZM18 13h-4V9h-2v14h6a2.003 2.003 0 0 0 2-2v-6a2 2 0 0 0-2-2m-4 8v-6h4v6Zm-6-8H3v2h5v2H4a2 2 0 0 0-2 2v2a2 2 0 0 0 2 2h6v-8a2 2 0 0 0-2-2m0 8H4v-2h4Z"/></symbol><symbol id="hd-icon-carbon-character-negative-number" viewBox="0 0 32 32"><path fill="currentColor" d="M19.5 22.5v-1h3v-11h-3v-1h4v12h3v1z"/><path fill="currentColor" d="M23 10v12zm1-1h-5v2h3v10h-3v2h8v-2h-3zM5 15h10v2H5z"/></symbol><symbol id="hd-icon-carbon-character-patterns" viewBox="0 0 32 32"><path fill="currentColor" d="M6 26v-8.172l-3.586 3.586L1 20l6-6l6 6l-1.414 1.414L8 17.828V26h10v2H8a2 2 0 0 1-2-2m24-4v-2h-8v2h5.5L22 28v2h8v-2h-5.493zM26 6v8.172l3.586-3.586L31 12l-6 6l-6-6l1.414-1.414L24 14.172V6H14V4h10a2 2 0 0 1 2 2M8 2H3v2h5v2H4a2 2 0 0 0-2 2v2a2 2 0 0 0 2 2h6V4a2 2 0 0 0-2-2m0 8H4V8h4Z"/></symbol><symbol id="hd-icon-carbon-character-sentence-case" viewBox="0 0 32 32"><path fill="currentColor" d="M29 23h-5a2.003 2.003 0 0 1-2-2v-6a2 2 0 0 1 2-2h5v2h-5v6h5ZM18 13h-4V9h-2v14h6a2.003 2.003 0 0 0 2-2v-6a2 2 0 0 0-2-2m-4 8v-6h4v6ZM8 9H4a2 2 0 0 0-2 2v12h2v-5h4v5h2V11a2 2 0 0 0-2-2m-4 7v-5h4v5Z"/></symbol><symbol id="hd-icon-carbon-character-upper-case" viewBox="0 0 32 32"><path fill="currentColor" d="M30 23h-6a2 2 0 0 1-2-2V11a2 2 0 0 1 2-2h6v2h-6v10h6ZM20 12a3.003 3.003 0 0 0-3-3h-5v14h5a3.003 3.003 0 0 0 3-3v-2a2.98 2.98 0 0 0-.78-2a2.98 2.98 0 0 0 .78-2Zm-6-1h3a1 1 0 0 1 1 1v2a1 1 0 0 1-1 1h-3Zm4 9a1 1 0 0 1-1 1h-3v-4h3a1 1 0 0 1 1 1ZM8 9H4a2 2 0 0 0-2 2v12h2v-5h4v5h2V11a2 2 0 0 0-2-2m-4 7v-5h4v5Z"/></symbol><symbol id="hd-icon-carbon-character-whole-number" viewBox="0 0 32 32"><path fill="currentColor" d="M28 9h-6v2h6v4h-4v2h4v4h-6v2h6a2.003 2.003 0 0 0 2-2V11a2 2 0 0 0-2-2m-8 14h-8v-6a2 2 0 0 1 2-2h4v-4h-6V9h6a2 2 0 0 1 2 2v4a2 2 0 0 1-2 2h-4v4h6Zm-17.5-.5v-1h3v-11h-3v-1h4v12h3v1z"/><path fill="currentColor" d="M6 10v12zm1-1H2v2h3v10H2v2h8v-2H7z"/></symbol><symbol id="hd-icon-carbon-charging-station" viewBox="0 0 32 32"><path fill="currentColor" d="m11.857 21.514l-1.714-1.028L12.234 17h-5l3.909-6.514l1.714 1.028L10.766 15h5z"/><path fill="currentColor" d="M30 7h-1V4h-2v3h-1v6h1v11.5a1.5 1.5 0 0 1-3 0V16a1 1 0 0 0-1-1h-4V5a1 1 0 0 0-1-1H5a1 1 0 0 0-1 1v21H2v2h19v-2h-2v-9h3v7.5a3.5 3.5 0 0 0 7 0V13h1ZM17 26H6V6h11Z"/></symbol><symbol id="hd-icon-carbon-charging-station-filled" viewBox="0 0 32 32"><path fill="currentColor" d="M29 7V4h-2v3h-1v6h1v11.5a1.5 1.5 0 0 1-3 0V16a1 1 0 0 0-1-1h-4V5a1 1 0 0 0-1-1H5a1 1 0 0 0-1 1v21H2v2h19v-2h-2v-9h3v7.5a3.5 3.5 0 0 0 7 0V13h1V7ZM11.857 21.515l-1.714-1.03L12.233 17h-5l3.91-6.515l1.714 1.03L10.767 15h5Z"/><path fill="none" d="m11.857 21.514l-1.714-1.028L12.234 17h-5l3.909-6.514l1.714 1.028L10.766 15h5z"/></symbol><symbol id="hd-icon-carbon-chart-3d" viewBox="0 0 32 32"><path fill="currentColor" d="M28 23v3.586l-5-5V15a1 1 0 0 0-.553-.894L17 11.381V5.828l2.586 2.586L21 7l-5-5l-5 5l1.414 1.414L15 5.828v5.554l-5.447 2.723A1 1 0 0 0 9 15v6.586l-5 5V23H2v7h7v-2H5.414l4.783-4.783l5.356 2.678a1 1 0 0 0 .894 0l5.356-2.678L26.586 28H23v2h7v-7Zm-13 .382l-4-2v-4.764l4 2Zm1-6.5L12.236 15L16 13.118L19.764 15Zm5 4.5l-4 2v-4.764l4-2Z"/></symbol><symbol id="hd-icon-carbon-chart-area" viewBox="0 0 32 32"><path fill="currentColor" d="m20.476 8.015l-7.029-3.804a2.01 2.01 0 0 0-2.115.205L4 10.001V2H2v26a2 2 0 0 0 2 2h26V5.735ZM28 20.21l-7.62 1.802l-7.029-2.884a1.99 1.99 0 0 0-2.022.37L4 25.836V21.38l8.375-9.4l7.019 5.62a2.02 2.02 0 0 0 2.046.212l6.56-3.21ZM12.524 5.985l7.03 3.804a2 2 0 0 0 1.34.16L28 8.265v4.113l-7.381 3.642L13.6 10.4a1.99 1.99 0 0 0-2.688.264L4 18.384v-5.87ZM4.55 28l8.069-7.011l7.029 2.884a2 2 0 0 0 1.147.077L28 22.26V28Z"/></symbol><symbol id="hd-icon-carbon-chart-area-smooth" viewBox="0 0 32 32"><path fill="currentColor" d="m30 6.614l-1.315.437A21 21 0 0 1 23 8c-1.734 0-3.322-.907-5.004-1.868C16.162 5.084 14.266 4 12 4C9.123 4 5.915 6.206 4 7.772V2H2v26a2.003 2.003 0 0 0 2 2h26ZM4 20.294C5.874 17.376 9.56 13 12 13c1.638 0 2.96 1.102 4.36 2.269C17.897 16.549 19.638 18 22 18a9.47 9.47 0 0 0 6-2.529v4.956A13 13 0 0 1 22 22a13.9 13.9 0 0 1-4.684-.949A15.7 15.7 0 0 0 12 20c-2.927 0-6.068 2.959-8 5.158ZM12 6c1.734 0 3.323.907 5.004 1.868C18.838 8.916 20.734 10 23 10a21.4 21.4 0 0 0 5-.678v3.321c-.683.803-3.084 3.357-6 3.357c-1.638 0-2.96-1.102-4.36-2.269C16.103 12.451 14.362 11 12 11c-2.936 0-6.063 3.34-8 5.845v-6.421C5.546 8.966 9.259 6 12 6M4.249 28C5.862 25.909 9.41 22 12 22a13.9 13.9 0 0 1 4.684.949A15.7 15.7 0 0 0 22 24a14.7 14.7 0 0 0 6-1.34V28Z"/></symbol><symbol id="hd-icon-carbon-chart-area-stepper" viewBox="0 0 32 32"><path fill="currentColor" d="M22 10V6H10v6H4V2H2v26a2.003 2.003 0 0 0 2 2h26V10Zm-10 4V8h8v4h8v10h-6v-6H12v6H4v-8ZM4 28v-4h10v-6h6v6h8v4Z"/></symbol><symbol id="hd-icon-carbon-chart-average" viewBox="0 0 32 32"><path fill="currentColor" d="M23 24c-3.6 0-5.03-4.176-6.413-8.214C15.277 11.958 13.92 8 11 8a3.44 3.44 0 0 0-3.053 2.322L6.05 9.684C6.101 9.534 7.321 6 11 6c4.35 0 6.012 4.855 7.48 9.138C19.689 18.667 20.83 22 23 22a3.44 3.44 0 0 0 3.053-2.321l1.896.637C27.899 20.466 26.679 24 23 24"/><path fill="currentColor" d="M4 28V17h2v-2H4V2H2v26a2 2 0 0 0 2 2h26v-2Z"/><path fill="currentColor" d="M8 15h2v2H8zm4 0h2v2h-2zm8 0h2v2h-2zm4 0h2v2h-2zm4 0h2v2h-2z"/></symbol><symbol id="hd-icon-carbon-chart-bar" viewBox="0 0 32 32"><path fill="currentColor" d="M4 2H2v26a2 2 0 0 0 2 2h26v-2H4v-3h22v-8H4v-4h14V5H4Zm20 17v4H4v-4ZM16 7v4H4V7Z"/></symbol><symbol id="hd-icon-carbon-chart-bar-floating" viewBox="0 0 32 32"><path fill="currentColor" d="M28 24H14v-8h14Zm-12-2h10v-4H16Zm10-10H8V4h18Zm-16-2h14V6H10Z"/><path fill="currentColor" d="M30 30H4a2 2 0 0 1-2-2V2h2v26h26Z"/></symbol><symbol id="hd-icon-carbon-chart-bar-overlay" viewBox="0 0 32 32"><path fill="currentColor" d="M4 28v-2h22V16H4v-2h14V4H4V2H2v26a2 2 0 0 0 2 2h26v-2Zm20-10v6H4v-2h16v-2H4v-2ZM16 6v6H4v-2h8V8H4V6Z"/></symbol><symbol id="hd-icon-carbon-chart-bar-stacked" viewBox="0 0 32 32"><path fill="currentColor" d="M4 28v-3h22v-8H4v-4h14V5H4V2H2v26a2 2 0 0 0 2 2h26v-2Zm20-5H14v-4h10Zm-8-12h-6V7h6Z"/></symbol><symbol id="hd-icon-carbon-chart-bar-target" viewBox="0 0 32 32"><path fill="currentColor" d="M28 17h2v8h-2zM20 5h2v8h-2z"/><path fill="currentColor" d="M4 2H2v26a2 2 0 0 0 2 2h26v-2H4v-3h22v-8H4v-4h14V5H4Zm20 17v4H4v-4ZM16 7v4H4V7Z"/></symbol><symbol id="hd-icon-carbon-chart-bubble" viewBox="0 0 32 32"><path fill="currentColor" d="M30 30H4a2 2 0 0 1-2-2V2h2v26h26Z"/><path fill="currentColor" d="M10 16a2 2 0 1 1-2 2a2 2 0 0 1 2-2m0-2a4 4 0 1 0 4 4a4 4 0 0 0-4-4m11-8a4 4 0 1 1-4 4a4 4 0 0 1 4-4m0-2a6 6 0 1 0 6 6a6 6 0 0 0-6-6m3.5 17a1.5 1.5 0 1 1-1.5 1.5a1.5 1.5 0 0 1 1.5-1.5m0-2a3.5 3.5 0 1 0 3.5 3.5a3.5 3.5 0 0 0-3.5-3.5"/></symbol><symbol id="hd-icon-carbon-chart-bubble-packed" viewBox="0 0 32 32"><path fill="currentColor" d="M27.532 17.172A8.99 8.99 0 1 0 13.607 5.88a5.997 5.997 0 1 0-8.556 7.342a6.997 6.997 0 1 0 7.994 11.484A5.998 5.998 0 0 0 25 24c0-.122-.011-.24-.018-.36a3.487 3.487 0 1 0 2.55-6.468M21 4a7 7 0 1 1-7 7a7.01 7.01 0 0 1 7-7M8 4a4 4 0 1 1-4 4a4.005 4.005 0 0 1 4-4m11 24a4 4 0 1 1 4-4a4.005 4.005 0 0 1-4 4"/></symbol><symbol id="hd-icon-carbon-chart-bullet" viewBox="0 0 32 32"><path fill="currentColor" d="M30 22H16v-1h-2v1H2v6h12v1h2v-1h14ZM4 26v-2h10v2Zm24 0H16v-2h12Zm2-13h-6v-1h-2v1H2v6h20v1h2v-1h6ZM4 17v-2h18v2Zm24 0h-4v-2h4Zm2-13H10V3H8v1H2v6h6v1h2v-1h20ZM4 8V6h4v2Zm24 0H10V6h18Z"/></symbol><symbol id="hd-icon-carbon-chart-candlestick" viewBox="0 0 32 32"><path fill="currentColor" d="M26 10h-2V6h-2v4h-2v12h2v4h2v-4h2Zm-2 10h-2v-8h2ZM14 8h-2V4h-2v4H8v10h2v4h2v-4h2Zm-2 8h-2v-6h2Z"/><path fill="currentColor" d="M30 30H4a2 2 0 0 1-2-2V2h2v26h26Z"/></symbol><symbol id="hd-icon-carbon-chart-cluster-bar" viewBox="0 0 32 32"><path fill="currentColor" d="M30 30H4a2 2 0 0 1-2-2V2h2v26h26Z"/><path fill="currentColor" d="M10 16h2v10h-2zm-3 6h2v4H7zM26 8h2v18h-2zm-3 6h2v12h-2zm-6 12h-2V12h2zm3 0h-2v-8h2z"/></symbol><symbol id="hd-icon-carbon-chart-column" viewBox="0 0 32 32"><path fill="currentColor" d="M27 28V6h-8v22h-4V14H7v14H4V2H2v26a2 2 0 0 0 2 2h26v-2Zm-14 0H9V16h4Zm12 0h-4V8h4Z"/></symbol><symbol id="hd-icon-carbon-chart-column-floating" viewBox="0 0 32 32"><path fill="currentColor" d="M28 22h-8V4h8Zm-6-2h4V6h-4Zm-6 4H8V10h8Zm-6-2h4V12h-4Z"/><path fill="currentColor" d="M30 30H4a2 2 0 0 1-2-2V2h2v26h26Z"/></symbol><symbol id="hd-icon-carbon-chart-column-target" viewBox="0 0 32 32"><path fill="currentColor" d="M27 28V6h-8v22h-4V14H7v14H4V2H2v26a2 2 0 0 0 2 2h26v-2Zm-14 0H9V16h4Zm12 0h-4V8h4ZM19 2h8v2h-8z"/><path fill="currentColor" d="M7 10h8v2H7z"/></symbol><symbol id="hd-icon-carbon-chart-combo" viewBox="0 0 32 32"><path fill="currentColor" d="M27 28V16h-8v12h-4V12H7v16H4V2H2v26a2 2 0 0 0 2 2h26v-2Zm-14 0H9V14h4Zm12 0h-4V18h4Z"/><path fill="currentColor" d="M22.786 14a2 2 0 0 1-1.18-.386L11.205 5.987L8.242 10L6.637 8.806l2.982-4a2 2 0 0 1 2.749-.446L22.789 12l3.605-4.86L28 8.33l-3.604 4.862a2 2 0 0 1-1.61.808"/></symbol><symbol id="hd-icon-carbon-chart-combo-stacked" viewBox="0 0 32 32"><path fill="currentColor" d="M27 28V16h-8v12h-4V12H7v16H4V2H2v26a2 2 0 0 0 2 2h26v-2ZM13 14v6H9v-6Zm12 4v6h-4v-6Z"/><path fill="currentColor" d="M22.786 14a2 2 0 0 1-1.18-.386L11.205 5.987L8.242 10L6.637 8.806l2.982-4a2 2 0 0 1 2.749-.446L22.789 12l3.605-4.86L28 8.33l-3.604 4.862a2 2 0 0 1-1.61.808"/></symbol><symbol id="hd-icon-carbon-chart-custom" viewBox="0 0 32 32"><path fill="currentColor" d="m29.707 19.293l-3-3a1 1 0 0 0-1.414 0L16 25.586V30h4.414l9.293-9.293a1 1 0 0 0 0-1.414M19.586 28H18v-1.586l5-5L24.586 23ZM26 21.586L24.414 20L26 18.414L27.586 20ZM18 18v-4h2v4zm-4 0v-6h2v6zm-4 0V8h2v10z"/><path fill="currentColor" d="M12 30H6a2 2 0 0 1-2-2V4a2 2 0 0 1 2-2h16a2 2 0 0 1 2 2v10h-2V4H6v24h6Z"/></symbol><symbol id="hd-icon-carbon-chart-donut" viewBox="0 0 32 32"><path fill="currentColor" d="M16 4.02c-6.617 0-12 5.383-12 12s5.383 12 12 12s12-5.384 12-12s-5.383-12-12-12m-5 12c0-2.757 2.243-5 5-5s5 2.243 5 5s-2.243 5-5 5s-5-2.244-5-5m-5 0c0-5.177 3.954-9.446 9-9.95V9.1c-3.387.487-6 3.4-6 6.92c0 1.564.522 3.006 1.393 4.172l-2.14 2.14A9.95 9.95 0 0 1 6 16.02m10 10a9.95 9.95 0 0 1-6.336-2.27l2.14-2.14A6.95 6.95 0 0 0 16 23.02c3.86 0 7-3.14 7-7c0-3.52-2.613-6.433-6-6.92V6.07c5.046.503 9 4.773 9 9.95c0 5.514-4.486 10-10 10"/></symbol><symbol id="hd-icon-carbon-chart-dual-y-axis" viewBox="0 0 32 32"><path fill="currentColor" d="M28 2v5.722l-7.532 6.952l-8.086-8.086a1.997 1.997 0 0 0-2.731-.09L4 11.442V2H2v26c0 1.103.897 2 2 2h24c1.103 0 2-.897 2-2V2zm0 8.444v11.762l-6.116-6.116zM10.968 8.002l8.03 8.03L15.783 19l-3.414-3.415a2 2 0 0 0-2.732-.09L4 20.425V14.1zM4 28v-4.916l6.955-6.085l3.414 3.414a1.99 1.99 0 0 0 2.77.056l3.274-3.022L28 25.034V28z"/></symbol><symbol id="hd-icon-carbon-chart-error-bar" viewBox="0 0 32 32"><path fill="currentColor" d="M22 28V12h-4V8h2V6h-6v2h2v4h-4v16H4V2H2v26a2 2 0 0 0 2 2h26v-2Zm-8-14h2v4h-2Zm6 14h-6v-8h6Zm0-10h-2v-4h2Z"/></symbol><symbol id="hd-icon-carbon-chart-error-bar-alt" viewBox="0 0 32 32"><path fill="currentColor" d="M14 10V8H8v2h2v4.184a2.983 2.983 0 0 0 0 5.632V24H8v2h6v-2h-2v-4.184a2.983 2.983 0 0 0 0-5.632V10Zm12-4V4h-6v2h2v2.184a2.983 2.983 0 0 0 0 5.632V18h-2v2h6v-2h-2v-4.184a2.983 2.983 0 0 0 0-5.632V6Z"/><path fill="currentColor" d="M30 30H4a2 2 0 0 1-2-2V2h2v26h26Z"/></symbol><symbol id="hd-icon-carbon-chart-evaluation" viewBox="0 0 32 32"><path fill="currentColor" d="m25.586 8l3-3L30 6.411l-3 3.001zM16 20.5l-5-4.961l1.59-1.57l3.41 3.38L23.41 10L25 11.579z"/><path fill="currentColor" d="M4 28v-2.587L10.414 19L9 17.585l-5 5V2H2v26a2 2 0 0 0 2 2h26v-2Z"/></symbol><symbol id="hd-icon-carbon-chart-high-low" viewBox="0 0 32 32"><path fill="currentColor" d="M15 8h-3V6h-2v14H7v2h3v2h2V10h3zm12 2h-3V6h-2v12h-3v2h3v4h2V12h3z"/><path fill="currentColor" d="M30 30H4a2 2 0 0 1-2-2V2h2v26h26Z"/></symbol><symbol id="hd-icon-carbon-chart-histogram" viewBox="0 0 32 32"><path fill="currentColor" d="M6 16c2.973 0 4.232-2.251 5.345-4.237C12.475 9.744 13.45 8 16 8s3.526 1.744 4.655 3.763C21.768 13.749 23.027 16 26 16h4v-2h-4c-1.713 0-2.483-1.22-3.6-3.214C21.209 8.654 19.724 6 16 6s-5.207 2.654-6.4 4.786C8.482 12.779 7.712 14 6 14H4V2H2v26a2 2 0 0 0 2 2h26v-2h-2v-6h-2v6h-4v-8h-2v8h-4V16h-2v12h-4v-8H8v8H4V16Z"/></symbol><symbol id="hd-icon-carbon-chart-line" viewBox="0 0 32 32"><path fill="currentColor" d="m4.67 28l6.39-12l7.3 6.49a2 2 0 0 0 1.7.47a2 2 0 0 0 1.42-1.07L27 10.9l-1.82-.9l-5.49 11l-7.3-6.49a2 2 0 0 0-1.68-.51a2 2 0 0 0-1.42 1L4 25V2H2v26a2 2 0 0 0 2 2h26v-2Z"/></symbol><symbol id="hd-icon-carbon-chart-line-data" viewBox="0 0 32 32"><path fill="currentColor" d="M10.06 17.88A4.3 4.3 0 0 0 11 18a4 4 0 0 0 2.23-.68l3.22 2.87a3.88 3.88 0 0 0-.2 3.17A4 4 0 1 0 22.62 19l2.54-5.09a3.78 3.78 0 0 0 2.91-.53a4 4 0 1 0-4.69-.38l-2.54 5.09A4 4 0 0 0 20 18a4 4 0 0 0-2.23.68l-3.22-2.87a3.88 3.88 0 0 0 .2-3.17a4 4 0 1 0-6.45 4.29L4 25V2H2v26a2 2 0 0 0 2 2h26v-2H4.67ZM26 8a2 2 0 1 1-2 2a2 2 0 0 1 2-2m-4 14a2 2 0 1 1-2-2a2 2 0 0 1 2 2M11 12a2 2 0 1 1-2 2a2 2 0 0 1 2-2"/></symbol><symbol id="hd-icon-carbon-chart-line-smooth" viewBox="0 0 32 32"><path fill="currentColor" d="M13 15c1.485 0 2.554 1.497 3.686 3.081C17.998 19.918 19.486 22 22 22c5.67 0 7.78-10.79 8-12l-1.968-.358C27.55 12.282 25.394 20 22 20c-1.485 0-2.554-1.497-3.686-3.081C17.002 15.082 15.514 13 13 13c-4.186 0-7.445 7.404-9 11.762V2H2v26a2.003 2.003 0 0 0 2 2h26v-2H5.044c1.51-5.143 4.92-13 7.956-13"/></symbol><symbol id="hd-icon-carbon-chart-logistic-regression" viewBox="0 0 32 32"><circle cx="26" cy="22" r="2" fill="currentColor"/><circle cx="20" cy="22" r="2" fill="currentColor"/><circle cx="14" cy="6" r="2" fill="currentColor"/><circle cx="8" cy="6" r="2" fill="currentColor"/><path fill="currentColor" d="M8.234 24a8.99 8.99 0 0 0 8.538-6.154l2.353-7.06A6.99 6.99 0 0 1 25.766 6H30V4h-4.234a8.99 8.99 0 0 0-8.538 6.154l-2.353 7.06A6.99 6.99 0 0 1 8.234 22H4V2H2v26c0 1.103.897 2 2 2h26v-2H4v-4z"/></symbol><symbol id="hd-icon-carbon-chart-marimekko" viewBox="0 0 32 32"><path fill="currentColor" d="M27 3H5a2.003 2.003 0 0 0-2 2v22a2.003 2.003 0 0 0 2 2h22a2.003 2.003 0 0 0 2-2V5a2.003 2.003 0 0 0-2-2m0 7h-6V5h6Zm-8-2h-6V5h6Zm0 2v8h-6v-8Zm-8 12H5V12h6Zm2-2h6v7h-6Zm8-8h6v4h-6ZM11 5v5H5V5ZM5 24h6v3H5Zm16 3v-9h6v9Z"/></symbol><symbol id="hd-icon-carbon-chart-maximum" viewBox="0 0 32 32"><path fill="currentColor" d="M8 6h2v2H8zm4 0h2v2h-2zm8 0h2v2h-2zm4 0h2v2h-2zm4 0h2v2h-2z"/><path fill="currentColor" d="m27.989 28l-.027-.163C26.51 19.074 24.066 9.089 18 8.089V6h-2v2.085c-6.084.978-8.533 10.978-9.986 19.752L5.987 28H4V8h2V6H4V2H2v26a2 2 0 0 0 2 2h26v-2ZM8.015 28c2.024-12.108 4.96-18 8.973-18s6.949 5.892 8.972 18Z"/></symbol><symbol id="hd-icon-carbon-chart-median" viewBox="0 0 32 32"><path fill="currentColor" d="M16 24v-2h2v2z"/><path fill="currentColor" d="M18 28v-2h-2v2H4V2H2v26a2 2 0 0 0 2 2h26v-2Z"/><path fill="currentColor" d="M26.053 19.679A3.44 3.44 0 0 1 23 22c-2.17 0-3.311-3.333-4.52-6.862c-.356-1.039-.724-2.11-1.138-3.138H18v-2h-1.578c-1.21-2.285-2.84-4-5.422-4c-3.678 0-4.898 3.533-4.949 3.684l1.896.637A3.44 3.44 0 0 1 11 8c2.92 0 4.276 3.958 5.587 7.786c.255.742.51 1.49.782 2.214H16v2h2.202c1.083 2.289 2.496 4 4.798 4c3.678 0 4.898-3.533 4.949-3.684ZM16 8V6h2v2zm0-4V2h2v2z"/></symbol><symbol id="hd-icon-carbon-chart-minimum" viewBox="0 0 32 32"><path fill="currentColor" d="M4 28v-2h2v-2H4V2H2v26a2 2 0 0 0 2 2h26v-2Z"/><path fill="currentColor" d="M8 24h2v2H8zm4 0h2v2h-2zm8 0h2v2h-2zm4 0h2v2h-2zm4 0h2v2h-2z"/><path fill="currentColor" d="M27.946 4.328L25.973 4C23.949 16.108 21.013 22 17 22s-6.949-5.892-8.973-18l-1.973.328C7.51 13.057 9.964 22.93 16 23.913V26h2v-2.087c6.037-.983 8.49-10.856 9.946-19.585"/></symbol><symbol id="hd-icon-carbon-chart-multi-line" viewBox="0 0 32 32"><path fill="currentColor" d="m4.586 28l7.178-5.998l7.994 1.938a2.02 2.02 0 0 0 1.314-.12L28 20.58l-.848-1.812l-6.916 3.229l-7.994-1.938a2 2 0 0 0-1.74.384L4 25.882V20.49l7.764-6.488l7.994 1.938a2.02 2.02 0 0 0 1.314-.12L28 12.58l-.847-1.812l-6.918 3.229l-7.994-1.938a2 2 0 0 0-1.74.384L4 17.882V12.49l7.764-6.488l7.994 1.938a2.02 2.02 0 0 0 1.314-.12L28 4.585l-.846-1.812l-6.918 3.224l-7.994-1.938a2 2 0 0 0-1.74.384L4 9.882V2H2v26a2 2 0 0 0 2 2h26v-2Z"/></symbol><symbol id="hd-icon-carbon-chart-multitype" viewBox="0 0 32 32"><path fill="currentColor" d="M28 22h2v8h-2zm-4-4h2v12h-2zm-4 8h2v4h-2zM9 16a7 7 0 1 0 7 7a7.01 7.01 0 0 0-7-7m4.899 6H10v-3.899A5.01 5.01 0 0 1 13.899 22M9 28a5 5 0 0 1-1-9.899V22a2 2 0 0 0 2 2h3.899A5.01 5.01 0 0 1 9 28m13.535-16l4-6H30V4h-4.535l-4 6H18V2h-2v12a2 2 0 0 0 2 2h12v-2H18v-2Z"/><circle cx="11" cy="7" r="1" fill="currentColor"/><circle cx="9" cy="11" r="1" fill="currentColor"/><circle cx="7" cy="5" r="1" fill="currentColor"/><circle cx="5" cy="9" r="1" fill="currentColor"/><circle cx="3" cy="13" r="1" fill="currentColor"/></symbol><symbol id="hd-icon-carbon-chart-network" viewBox="0 0 32 32"><path fill="currentColor" d="M26 14a2 2 0 0 0 2-2V6a2 2 0 0 0-2-2h-6a2 2 0 0 0-2 2v6a2 2 0 0 0 2 2h2v4.1a5 5 0 0 0-3.9 3.9H14v-2a2 2 0 0 0-2-2h-2v-4.1a5 5 0 1 0-2 0V18H6a2 2 0 0 0-2 2v6a2 2 0 0 0 2 2h6a2 2 0 0 0 2-2v-2h4.1a5 5 0 1 0 5.9-5.9V14ZM6 9a3 3 0 1 1 3 3a3 3 0 0 1-3-3m6 17H6v-6h6Zm14-3a3 3 0 1 1-3-3a3 3 0 0 1 3 3M20 6h6v6h-6Z"/></symbol><symbol id="hd-icon-carbon-chart-parallel" viewBox="0 0 32 32"><path fill="currentColor" d="M28 2v3.307l-6 2.25V2h-2v5.523l-8-3.2V2h-2v2.446l-6 3.75V2H2v28h2v-2.382l6-3V30h2v-5.656l8 2.4V30h2v-3.446l6-3.75V30h2V2Zm0 5.443V12.5L22 17V9.693Zm-8 2.234v7.557l-8-4.8V6.477ZM10 6.804v5.742l-6 5.25v-7.242ZM4 25.382v-4.928l6-5.25v7.178Zm8-3.126v-7.49l8 4.8v5.09Zm10 1.94V19.5l6-4.5v5.446Z"/></symbol><symbol id="hd-icon-carbon-chart-pie" viewBox="0 0 32 32"><path fill="currentColor" d="M16 4a12 12 0 1 0 12 12A12 12 0 0 0 16 4m10 11h-9V6.05A10 10 0 0 1 26 15M15.42 26A10 10 0 0 1 15 6.05v9a2 2 0 0 0 2 2h9A10 10 0 0 1 15.42 26"/></symbol><symbol id="hd-icon-carbon-chart-planning-waterfall" viewBox="0 0 32 32"><path fill="currentColor" d="M29 8a1 1 0 0 0-1-1h-4a1 1 0 0 0-1 1v7h-2V3a1 1 0 0 0-1-1h-4a1 1 0 0 0-1 1v12h-2V5a1 1 0 0 0-1-1H8a1 1 0 0 0-1 1v10H3v12a1 1 0 0 0 1 1h4a1 1 0 0 0 1-1V17h2v5a1 1 0 0 0 1 1h4a1 1 0 0 0 1-1v-5h2v12a1 1 0 0 0 1 1h4a1 1 0 0 0 1-1V17h4zM7 26H5v-9h2zm8-5h-2v-4h2zm2-6V4h2v11zm10 0h-2V9h2z"/></symbol><symbol id="hd-icon-carbon-chart-point" viewBox="0 0 32 32"><path fill="currentColor" d="M30 30H4a2 2 0 0 1-2-2V2h2v26h26Z"/><circle cx="9" cy="6" r="3" fill="currentColor"/><circle cx="9" cy="22" r="3" fill="currentColor"/><circle cx="18" cy="14" r="3" fill="currentColor"/><path fill="currentColor" d="M9 17a3 3 0 1 1 3-3a3.003 3.003 0 0 1-3 3m0-4a1 1 0 1 0 1 1a1 1 0 0 0-1-1"/><circle cx="27" cy="6" r="3" fill="currentColor"/><circle cx="27" cy="22" r="3" fill="currentColor"/><path fill="currentColor" d="M27 17a3 3 0 1 1 3-3a3.003 3.003 0 0 1-3 3m0-4a1 1 0 1 0 1 1a1 1 0 0 0-1-1m-9 13a3 3 0 1 1 3-3a3.003 3.003 0 0 1-3 3m0-4a1 1 0 1 0 1 1a1 1 0 0 0-1-1m0-14a3 3 0 1 1 3-3a3.003 3.003 0 0 1-3 3m0-4a1 1 0 1 0 1 1a1 1 0 0 0-1-1"/></symbol><symbol id="hd-icon-carbon-chart-population" viewBox="0 0 32 32"><path fill="currentColor" d="M30 22H17v-2h9v-6h-9v-2h5V6h-5V2h-2v4h-5v6h5v2H6v6h9v2H2v6h13v2h2v-2h13ZM20 8v2h-3V8Zm-8 2V8h3v2Zm12 6v2h-7v-2ZM8 18v-2h7v2Zm-4 8v-2h11v2Zm24 0H17v-2h11Z"/></symbol><symbol id="hd-icon-carbon-chart-radar" viewBox="0 0 32 32"><path fill="currentColor" d="M16 2L2 13l6 17h16l6-17Zm2.582 19.265l-5.986 1.33l-1.423-7.824l4.91-4.21l5.442 4.082Zm.198 2.005L21.326 28H10.674l1.79-3.327Zm-9.19-9.776l-3.85-.889L15 5.329v3.528ZM17 8.75V5.33l9.26 7.275l-3.15.727ZM4.614 14.398l4.654 1.074l1.484 8.164l-1.738 3.228Zm18.372 12.466l-2.577-4.785l3.007-6.765l3.97-.916Z"/></symbol><symbol id="hd-icon-carbon-chart-radial" viewBox="0 0 32 32"><path fill="currentColor" d="M16 30A14.016 14.016 0 0 1 2 16h2A12 12 0 1 0 16 4V2a14 14 0 0 1 0 28"/><path fill="currentColor" d="M16 26A10.01 10.01 0 0 1 6 16h2a8 8 0 1 0 8-8V6a10 10 0 0 1 0 20"/><path fill="currentColor" d="M16 22a6.007 6.007 0 0 1-6-6h2a4 4 0 1 0 4-4v-2a6 6 0 0 1 0 12"/></symbol><symbol id="hd-icon-carbon-chart-relationship" viewBox="0 0 32 32"><path fill="currentColor" d="M26 6a3.996 3.996 0 0 0-3.858 3H17.93A7.996 7.996 0 1 0 9 17.93v4.212a4 4 0 1 0 2 0v-4.211a7.95 7.95 0 0 0 3.898-1.62l3.669 3.67A3.95 3.95 0 0 0 18 22a4 4 0 1 0 4-4a3.95 3.95 0 0 0-2.019.567l-3.67-3.67A7.95 7.95 0 0 0 17.932 11h4.211A3.993 3.993 0 1 0 26 6M12 26a2 2 0 1 1-2-2a2 2 0 0 1 2 2m-2-10a6 6 0 1 1 6-6a6.007 6.007 0 0 1-6 6m14 6a2 2 0 1 1-2-2a2 2 0 0 1 2 2m2-10a2 2 0 1 1 2-2a2 2 0 0 1-2 2"/></symbol><symbol id="hd-icon-carbon-chart-ring" viewBox="0 0 32 32"><path fill="currentColor" d="M16 2a14 14 0 1 0 14 14A14.016 14.016 0 0 0 16 2m11.95 13.001h-6.04a5.983 5.983 0 0 0-9.38-3.885l-4.27-4.27A11.978 11.978 0 0 1 27.95 15ZM16 20a4 4 0 1 1 4-4a4.005 4.005 0 0 1-4 4M4 16a11.94 11.94 0 0 1 2.846-7.74l4.27 4.27A5.984 5.984 0 0 0 15 21.91v6.04A12.01 12.01 0 0 1 4 16m13 11.95v-6.04A6.01 6.01 0 0 0 21.91 17h6.04A12.01 12.01 0 0 1 17 27.95"/></symbol><symbol id="hd-icon-carbon-chart-river" viewBox="0 0 32 32"><path fill="currentColor" d="m12.433 20.017l8.037 4.68a1.96 1.96 0 0 0 1.051.301a2.2 2.2 0 0 0 .489-.055l7.253-1.977A1 1 0 0 0 30 22V7.996a1 1 0 0 0-1.26-.966l-7.237 1.953l-8.037-4.68a1.99 1.99 0 0 0-1.865-.135L4 7.473V2H2v26a2 2 0 0 0 2 2h26v-2H4v-4.342ZM28 21.234l-6.497 1.75l-8.037-4.68a2 2 0 0 0-1.865-.135L4 21.475v-4.818l8.433-3.641l8.037 4.68a1.96 1.96 0 0 0 1.05.302a2.2 2.2 0 0 0 .49-.056L28 16.31ZM12.433 6.016l8.037 4.68a2 2 0 0 0 1.54.245L28 9.308v4.926l-6.497 1.75l-8.037-4.68a1.99 1.99 0 0 0-1.865-.136L4 14.474V9.656Z"/></symbol><symbol id="hd-icon-carbon-chart-rose" viewBox="0 0 32 32"><path fill="currentColor" d="M30 17A15.017 15.017 0 0 0 15 2h-1v6.06A9.01 9.01 0 0 0 6.06 16H4v1a11.01 11.01 0 0 0 10 10.95V30h1a13.01 13.01 0 0 0 12.95-12H30ZM16 4.038A13.02 13.02 0 0 1 27.962 16H16Zm-2 6.042V16H8.08A7 7 0 0 1 14 10.08M6.055 18H14v7.939A9.01 9.01 0 0 1 6.055 18M16 27.955V18h9.955A11.02 11.02 0 0 1 16 27.955"/></symbol><symbol id="hd-icon-carbon-chart-scatter" viewBox="0 0 32 32"><path fill="currentColor" d="M30 30H4a2 2 0 0 1-2-2V2h2v26h26Z"/><circle cx="10" cy="22" r="2" fill="currentColor"/><circle cx="14" cy="15" r="2" fill="currentColor"/><circle cx="22" cy="15" r="2" fill="currentColor"/><circle cx="26" cy="6" r="2" fill="currentColor"/><circle cx="14" cy="8" r="2" fill="currentColor"/></symbol><symbol id="hd-icon-carbon-chart-spiral" viewBox="0 0 32 32"><path fill="currentColor" d="M16 2a13.92 13.92 0 0 0-8.675 3.033A2 2 0 0 0 7 5a2 2 0 0 0-2 2a2 2 0 0 0 .033.325A13.986 13.986 0 1 0 16 2m0 26A11.977 11.977 0 0 1 6.359 8.886a1.83 1.83 0 0 0 1.153.04l1.463 1.463a8.986 8.986 0 0 0 11.831 13.207a1.992 1.992 0 0 0 2.79-2.79a8.93 8.93 0 0 0 0-9.612a1.992 1.992 0 0 0-2.79-2.79a8.945 8.945 0 0 0-10.417.571L8.926 7.512a1.83 1.83 0 0 0-.04-1.153A11.993 11.993 0 1 1 16 28m0-14a2 2 0 1 1-2 2a2.003 2.003 0 0 1 2-2m3.433-.019l2.055-2.055a2 2 0 0 0 .227.045a6.96 6.96 0 0 1 0 8.058a2 2 0 0 0-.227.045l-2.055-2.055a3.88 3.88 0 0 0 0-4.038m.596-3.696a2 2 0 0 0 .045.227l-2.055 2.055a3.88 3.88 0 0 0-4.038 0L11.816 10.4a6.95 6.95 0 0 1 8.213-.116m-7.462 3.696A3.95 3.95 0 0 0 12 16a4.005 4.005 0 0 0 4 4a3.95 3.95 0 0 0 2.019-.567l2.055 2.055a2 2 0 0 0-.045.227a6.988 6.988 0 0 1-9.627-9.9Z"/></symbol><symbol id="hd-icon-carbon-chart-stacked" viewBox="0 0 32 32"><path fill="currentColor" d="M28 28V6h-8v22h-4V14H8v14H4V2H2v26a2 2 0 0 0 2 2h26v-2ZM22 8h4v10h-4Zm-12 8h4v6h-4Z"/></symbol><symbol id="hd-icon-carbon-chart-stepper" viewBox="0 0 32 32"><path fill="currentColor" d="M14 22v-8h8V6h8V4H20v8h-8v8H4V2H2v26a2.003 2.003 0 0 0 2 2h26v-2H4v-6Z"/></symbol><symbol id="hd-icon-carbon-chart-sunburst" viewBox="0 0 32 32"><path fill="currentColor" d="M16 2a1 1 0 0 0-1 1v7.09a6 6 0 0 0-2.46 1.043L7.838 6.431a1.455 1.455 0 0 0-2.087.024a14.05 14.05 0 0 0 4.054 22.142a11 11 0 0 0 1.899.768a14.1 14.1 0 0 0 13.844-3.132a1.434 1.434 0 0 0 .028-2.064l-4.699-4.699A6 6 0 0 0 21.91 17H29a1 1 0 0 0 1-1A14.016 14.016 0 0 0 16 2m0 10a4 4 0 1 1-4 4a4.005 4.005 0 0 1 4-4M6.83 8.251l4.296 4.296a5.91 5.91 0 0 0-.011 6.924l-4.277 4.277A12.02 12.02 0 0 1 6.83 8.251m1.423 16.91l4.276-4.276A5.96 5.96 0 0 0 15 21.91v6.042a11.88 11.88 0 0 1-6.747-2.79ZM17 27.956V21.91a6 6 0 0 0 2.46-1.027l4.283 4.282A11.9 11.9 0 0 1 17 27.956M21.91 15A6.01 6.01 0 0 0 17 10.09V4.041A12.02 12.02 0 0 1 27.959 15Z"/></symbol><symbol id="hd-icon-carbon-chart-t-sne" viewBox="0 0 32 32"><circle cx="10" cy="20" r="2" fill="currentColor"/><circle cx="10" cy="28" r="2" fill="currentColor"/><circle cx="10" cy="14" r="2" fill="currentColor"/><circle cx="28" cy="4" r="2" fill="currentColor"/><circle cx="22" cy="6" r="2" fill="currentColor"/><circle cx="28" cy="10" r="2" fill="currentColor"/><circle cx="20" cy="12" r="2" fill="currentColor"/><circle cx="28" cy="22" r="2" fill="currentColor"/><circle cx="26" cy="28" r="2" fill="currentColor"/><circle cx="20" cy="26" r="2" fill="currentColor"/><circle cx="22" cy="20" r="2" fill="currentColor"/><circle cx="16" cy="4" r="2" fill="currentColor"/><circle cx="4" cy="24" r="2" fill="currentColor"/><circle cx="4" cy="16" r="2" fill="currentColor"/></symbol><symbol id="hd-icon-carbon-chart-treemap" viewBox="0 0 32 32"><path fill="currentColor" d="M28 2H4a2 2 0 0 0-2 2v24a2 2 0 0 0 2 2h24a2 2 0 0 0 2-2V4a2 2 0 0 0-2-2m0 12h-5V4h5ZM16 4h5v10h-5Zm-2 0v16H4V4ZM4 22h10v6H4Zm12 6V16h12v12Z"/></symbol><symbol id="hd-icon-carbon-chart-venn-diagram" viewBox="0 0 32 32"><path fill="currentColor" d="M20 6a9.9 9.9 0 0 0-4 .84A9.9 9.9 0 0 0 12 6a10 10 0 0 0 0 20a9.9 9.9 0 0 0 4-.84a9.9 9.9 0 0 0 4 .84a10 10 0 0 0 0-20m-8 18a8 8 0 0 1 0-16a8 8 0 0 1 1.76.2a10 10 0 0 0 0 15.6A8 8 0 0 1 12 24m8-8a8 8 0 0 1-4 6.92a8 8 0 0 1 0-13.84A8 8 0 0 1 20 16m0 8a8 8 0 0 1-1.76-.2a10 10 0 0 0 0-15.6A8 8 0 0 1 20 8a8 8 0 0 1 0 16"/></symbol><symbol id="hd-icon-carbon-chart-violin-plot" viewBox="0 0 32 32"><path fill="currentColor" d="M30 30H4a2 2 0 0 1-2-2V2h2v26h26Z"/><path fill="currentColor" d="M14.86 7.823L13 4.723V2h-2v2.723l-1.86 3.1A8 8 0 0 0 8 11.94v.122a8 8 0 0 0 1.14 4.116l1.86 3.1V26h2v-6.723l1.86-3.1A8 8 0 0 0 16 12.06v-.122a8 8 0 0 0-1.14-4.116M12 6.943l1.145 1.91A6 6 0 0 1 13.919 11H10.08a6 6 0 0 1 .774-2.148Zm0 10.114l-1.145-1.91A6 6 0 0 1 10.081 13h3.838a6 6 0 0 1-.774 2.148Zm15.86-5.234L26 8.723V2h-2v6.723l-1.86 3.1A8 8 0 0 0 21 15.94v.122a8 8 0 0 0 1.14 4.116l1.86 3.1V26h2v-2.723l1.86-3.1A8 8 0 0 0 29 16.06v-.122a8 8 0 0 0-1.14-4.116m-2.86-.88l1.145 1.909A6 6 0 0 1 26.919 15h-3.837a6 6 0 0 1 .773-2.148Zm0 10.113l-1.145-1.908A6 6 0 0 1 23.081 17h3.837a6 6 0 0 1-.773 2.148Z"/></symbol><symbol id="hd-icon-carbon-chart-waterfall" viewBox="0 0 32 32"><path fill="currentColor" d="M28 28V18h-2v10h-4V4h-2v24H10V14H8v14H4V2H2v26a2 2 0 0 0 2 2h26v-2Z"/><path fill="currentColor" d="M14 4h2v14h-2z"/></symbol><symbol id="hd-icon-carbon-chart-win-loss" viewBox="0 0 32 32"><path fill="currentColor" d="M30 15H16V6a2 2 0 0 0-2-2H6a2 2 0 0 0-2 2v9H2v2h14v9a2 2 0 0 0 2 2h8a2 2 0 0 0 2-2v-9h2ZM6 6h8v9H6Zm20 20h-8v-9h8Z"/></symbol><symbol id="hd-icon-carbon-chat" viewBox="0 0 32 32"><path fill="currentColor" d="M17.74 30L16 29l4-7h6a2 2 0 0 0 2-2V8a2 2 0 0 0-2-2H6a2 2 0 0 0-2 2v12a2 2 0 0 0 2 2h9v2H6a4 4 0 0 1-4-4V8a4 4 0 0 1 4-4h20a4 4 0 0 1 4 4v12a4 4 0 0 1-4 4h-4.84Z"/><path fill="currentColor" d="M8 10h16v2H8zm0 6h10v2H8z"/></symbol><symbol id="hd-icon-carbon-chat-bot" viewBox="0 0 32 32"><path fill="currentColor" d="M16 19a6.99 6.99 0 0 1-5.833-3.129l1.666-1.107a5 5 0 0 0 8.334 0l1.666 1.107A6.99 6.99 0 0 1 16 19m4-11a2 2 0 1 0 2 2a1.98 1.98 0 0 0-2-2m-8 0a2 2 0 1 0 2 2a1.98 1.98 0 0 0-2-2"/><path fill="currentColor" d="M17.736 30L16 29l4-7h6a1.997 1.997 0 0 0 2-2V6a1.997 1.997 0 0 0-2-2H6a1.997 1.997 0 0 0-2 2v14a1.997 1.997 0 0 0 2 2h9v2H6a4 4 0 0 1-4-4V6a4 4 0 0 1 4-4h20a4 4 0 0 1 4 4v14a4 4 0 0 1-4 4h-4.835Z"/></symbol><symbol id="hd-icon-carbon-chat-launch" viewBox="0 0 32 32"><path fill="currentColor" d="M22 4v2h4.586L20 12.586L21.414 14L28 7.414V12h2V4zm6 12v4a1.997 1.997 0 0 1-2 2h-6l-4 7l1.736 1l3.429-6H26a4 4 0 0 0 4-4v-4ZM4 20V8a1.997 1.997 0 0 1 2-2h12V4H6a4 4 0 0 0-4 4v12a4 4 0 0 0 4 4h9v-2H6a1.997 1.997 0 0 1-2-2"/></symbol><symbol id="hd-icon-carbon-chat-off" viewBox="0 0 32 32"><path fill="currentColor" d="M28 8v13h2V8a4 4 0 0 0-4-4H8.243l2 2H26a1.997 1.997 0 0 1 2 2m2 20.586L3.414 2L2 3.414l1.504 1.504A3.92 3.92 0 0 0 2 8v12a4 4 0 0 0 4 4h6v-2H6a1.997 1.997 0 0 1-2-2V8a1.98 1.98 0 0 1 .92-1.666L20.585 22H17l-4 7l1.736 1l3.429-6h4.42l6 6Z"/></symbol><symbol id="hd-icon-carbon-chat-operational" viewBox="0 0 32 32"><path fill="currentColor" d="M15.586 10.414L19.166 14l-3.582 3.587L17 19l5-5l-5-5z"/><path fill="currentColor" d="M20.586 10.414L24.166 14l-3.582 3.587L22 19l5-5l-5-5zM10 9l1.593 3l3.407.414l-2.5 2.253L13 18l-3-1.875L7 18l.5-3.333L5 12.414L8.5 12z"/><path fill="currentColor" d="M17.736 30L16 29l4-7h6a1.997 1.997 0 0 0 2-2V8a1.997 1.997 0 0 0-2-2H6a1.997 1.997 0 0 0-2 2v12a1.997 1.997 0 0 0 2 2h9v2H6a4 4 0 0 1-4-4V8a4 4 0 0 1 4-4h20a4 4 0 0 1 4 4v12a4 4 0 0 1-4 4h-4.835Z"/></symbol><symbol id="hd-icon-carbon-checkbox" viewBox="0 0 32 32"><path fill="currentColor" d="M26 4H6a2 2 0 0 0-2 2v20a2 2 0 0 0 2 2h20a2 2 0 0 0 2-2V6a2 2 0 0 0-2-2M6 26V6h20v20Z"/></symbol><symbol id="hd-icon-carbon-checkbox-checked" viewBox="0 0 32 32"><path fill="currentColor" d="M26 4H6a2 2 0 0 0-2 2v20a2 2 0 0 0 2 2h20a2 2 0 0 0 2-2V6a2 2 0 0 0-2-2M6 26V6h20v20Z"/><path fill="currentColor" d="m14 21.5l-5-4.96L10.59 15L14 18.35L21.41 11L23 12.58z"/></symbol><symbol id="hd-icon-carbon-checkbox-checked-filled" viewBox="0 0 32 32"><path fill="currentColor" d="M26 4H6a2 2 0 0 0-2 2v20a2 2 0 0 0 2 2h20a2 2 0 0 0 2-2V6a2 2 0 0 0-2-2M14 21.5l-5-4.957L10.59 15L14 18.346L21.409 11L23 12.577Z"/><path fill="none" d="m14 21.5l-5-4.957L10.59 15L14 18.346L21.409 11L23 12.577Z"/></symbol><symbol id="hd-icon-carbon-checkbox-indeterminate" viewBox="0 0 32 32"><path fill="currentColor" d="M10 14h12v4H10z"/><path fill="currentColor" d="M26 4H6a2 2 0 0 0-2 2v20a2 2 0 0 0 2 2h20a2 2 0 0 0 2-2V6a2 2 0 0 0-2-2M6 26V6h20v20Z"/></symbol><symbol id="hd-icon-carbon-checkbox-indeterminate-filled" viewBox="0 0 32 32"><path fill="currentColor" d="M26 4H6a2 2 0 0 0-2 2v20a2 2 0 0 0 2 2h20a2 2 0 0 0 2-2V6a2 2 0 0 0-2-2m-4 14H10v-4h12Z"/><path fill="none" d="M22 18H10v-4h12Z"/></symbol><symbol id="hd-icon-carbon-checkbox-undeterminate-filled" viewBox="0 0 32 32"><path fill="currentColor" d="M26 4H6a2 2 0 0 0-2 2v20a2 2 0 0 0 2 2h20a2 2 0 0 0 2-2V6a2 2 0 0 0-2-2Zm-4 14H10v-4h12Z"/></symbol><symbol id="hd-icon-carbon-checkmark" viewBox="0 0 32 32"><path fill="currentColor" d="m13 24l-9-9l1.414-1.414L13 21.171L26.586 7.586L28 9z"/></symbol><symbol id="hd-icon-carbon-checkmark-filled" viewBox="0 0 32 32"><path fill="currentColor" d="M16 2a14 14 0 1 0 14 14A14 14 0 0 0 16 2m-2 19.59l-5-5L10.59 15L14 18.41L21.41 11l1.596 1.586Z"/><path fill="none" d="m14 21.591l-5-5L10.591 15L14 18.409L21.41 11l1.595 1.585z"/></symbol><symbol id="hd-icon-carbon-checkmark-filled-error" viewBox="0 0 32 32"><path fill="currentColor" d="M30 24a6 6 0 1 0-6 6a6.007 6.007 0 0 0 6-6m-2 0a3.95 3.95 0 0 1-.567 2.019l-5.452-5.452A3.95 3.95 0 0 1 24 20a4.005 4.005 0 0 1 4 4m-8 0a3.95 3.95 0 0 1 .567-2.019l5.452 5.452A3.95 3.95 0 0 1 24 28a4.005 4.005 0 0 1-4-4"/><path fill="currentColor" d="M14 2a12 12 0 1 0 2 23.82V24a8 8 0 0 1 8-8h1.82A11.935 11.935 0 0 0 14 2m-2 16.59l-4-4L9.59 13L12 15.41L17.41 10L19 11.59Z"/><path fill="none" d="m12 18.591l-4-4L9.591 13L12 15.409L17.409 10L19 11.591z"/></symbol></svg>