<svg xmlns="http://www.w3.org/2000/svg" xmlns:xlink="http://www.w3.org/1999/xlink"><symbol id="hd-icon-carbon-network-admin-control" viewBox="0 0 32 32"><path fill="currentColor" d="M27 20.415L25.586 19L23 21.587L20.414 19L19 20.415L21.586 23L19 25.586L20.414 27L23 24.414L25.586 27L27 25.586L24.414 23zM24 4a4.005 4.005 0 0 0-4 4a3.95 3.95 0 0 0 .567 2.019L10.019 20.567A3.95 3.95 0 0 0 8 20a4 4 0 1 0 4 4a3.95 3.95 0 0 0-.567-2.019l10.548-10.548A3.95 3.95 0 0 0 24 12a4 4 0 0 0 0-8M8 26a2 2 0 1 1 2-2a2 2 0 0 1-2 2m16-16a2 2 0 1 1 2-2a2 2 0 0 1-2 2M8 11.18L5.41 8.59L4 10l4 4l7-7l-1.41-1.41z"/></symbol><symbol id="hd-icon-carbon-network-enterprise" viewBox="0 0 32 32"><path fill="currentColor" d="M25.798 10a10 10 0 0 0-19.62.124A7.496 7.496 0 0 0 7.5 25H8v-2h-.5a5.496 5.496 0 0 1-.377-10.98l.837-.057l.09-.833A7.993 7.993 0 0 1 23.737 10Z"/><path fill="currentColor" d="M28 12H18a2 2 0 0 0-2 2v4h-4a2 2 0 0 0-2 2v10h20V14a2 2 0 0 0-2-2M12 28v-8h4v8Zm16 0H18V14h10Z"/><path fill="currentColor" d="M20 16h2v4h-2zm4 0h2v4h-2zm-4 6h2v4h-2zm4 0h2v4h-2z"/></symbol><symbol id="hd-icon-carbon-network-interface" viewBox="0 0 32 32"><path fill="currentColor" d="M28 18h-2V6H13V4h13c1.103 0 2 .897 2 2zM18 28H6c-1.103 0-2-.897-2-2V13h2v13h12zm8-7l-1.793 1.793l-5.508-5.508c.187-.39.3-.823.3-1.285c0-1.654-1.345-3-3-3a2.96 2.96 0 0 0-1.284.3L9.433 8.02C9.784 7.423 10 6.74 10 6c0-2.205-1.794-4-4-4S2 3.794 2 6s1.794 4 4 4c.74 0 1.424-.215 2.019-.567l5.282 5.282c-.188.39-.301.823-.301 1.285c0 1.654 1.346 3 3 3a2.96 2.96 0 0 0 1.285-.3l5.508 5.507L21 26l5 5l5-5zM4 6c0-1.102.897-2 2-2s2 .898 2 2s-.897 2-2 2s-2-.897-2-2m11 10c0-.551.449-1 1-1s1 .449 1 1s-.448 1-1 1s-1-.449-1-1m8.829 10L26 23.829L28.171 26L26 28.171z"/></symbol><symbol id="hd-icon-carbon-network-overlay" viewBox="0 0 32 32"><path fill="currentColor" d="M22 23h-8.17l2.58-2.59L15 19l-5 5l5 5l1.41-1.41L13.83 25H22zM11 13h8.17l-2.58-2.59L18 9l5 5l-5 5l-1.41-1.41L19.17 15H11z"/><path fill="currentColor" d="M24.5 25H24v-2h.5a5.496 5.496 0 0 0 .377-10.98l-.836-.056l-.09-.834a7.998 7.998 0 0 0-15.902 0l-.09.834l-.836.057A5.496 5.496 0 0 0 7.5 23H8v2h-.5a7.496 7.496 0 0 1-1.322-14.876a10 10 0 0 1 19.644 0A7.496 7.496 0 0 1 24.5 25"/></symbol><symbol id="hd-icon-carbon-network-public" viewBox="0 0 32 32"><path fill="currentColor" d="M22.5 13c-4.7 0-8.5 3.8-8.5 8.5s3.8 8.5 8.5 8.5s8.5-3.8 8.5-8.5s-3.8-8.5-8.5-8.5m6.5 8h-3c0-2-.3-4-.9-5.5c2.1 1 3.7 3 3.9 5.5m-6.5 7c-.4-.2-1.3-1.8-1.5-5h2.9c-.2 3.2-1 4.8-1.4 5M21 21c.1-3.8 1.1-5.8 1.4-6c.4.2 1.4 2.2 1.5 6zm-1.1-5.5c-.6 1.5-.8 3.5-.9 5.5h-3c.2-2.5 1.8-4.5 3.9-5.5M16.2 23H19c.1 1.6.4 3.2.9 4.5c-1.8-.8-3.2-2.5-3.7-4.5m8.9 4.5q.75-1.95.9-4.5h2.9c-.6 2-2 3.7-3.8 4.5"/><path fill="currentColor" d="M25.8 10c-.9-4.6-5-8-9.8-8s-8.9 3.4-9.8 8.1c-3.5.7-6.2 3.7-6.2 7.4C0 21.6 3.4 25 7.5 25H11v-2H7.5c-3 0-5.5-2.5-5.5-5.5c0-2.9 2.2-5.3 5.1-5.5H8v-.9c.5-4 3.9-7.1 8-7.1c3.7 0 6.8 2.6 7.7 6z"/></symbol><symbol id="hd-icon-carbon-network-time-protocol" viewBox="0 0 32 32"><path fill="currentColor" d="M18.8 27c-.3-.9-1-1.5-1.8-1.8V22c5-.5 9-4.8 9-9.9s-4.5-10-10-10S6 6.5 6 12s3.9 9.5 9 10v3.2c-.9.3-1.5 1-1.8 1.8H4v2h9.2c.4 1.2 1.5 2 2.8 2s2.4-.8 2.8-2H28v-2zM8 12c0-4.4 3.6-8 8-8s8 3.6 8 8s-3.6 8-8 8s-8-3.6-8-8m8 17c-.6 0-1-.5-1-1s.4-1 1-1s1 .5 1 1s-.5 1-1 1m3.3-12.3L15 12.4V6h2v5.6l3.7 3.7z"/></symbol><symbol id="hd-icon-carbon-new-tab" viewBox="0 0 32 32"><defs><path id="hd-icon-carbon-new-tab-3928" fill="currentColor" d="M26 26H6V6h10V4H6a2 2 0 0 0-2 2v20a2 2 0 0 0 2 2h20a2 2 0 0 0 2-2V16h-2Z"/></defs><use href="#hd-icon-carbon-new-tab-3928"/><use href="#hd-icon-carbon-new-tab-3928"/><path fill="currentColor" d="M26 6V2h-2v4h-4v2h4v4h2V8h4V6z"/></symbol><symbol id="hd-icon-carbon-next-filled" viewBox="0 0 32 32"><path fill="currentColor" d="M2 16A14 14 0 1 0 16 2A14 14 0 0 0 2 16m6-1h12.15l-5.58-5.607L16 8l8 8l-8 8l-1.43-1.427L20.15 17H8Z"/><path fill="none" d="m16 8l-1.43 1.393L20.15 15H8v2h12.15l-5.58 5.573L16 24l8-8z"/></symbol><symbol id="hd-icon-carbon-next-outline" viewBox="0 0 32 32"><path fill="currentColor" d="m16 8l-1.43 1.393L20.15 15H8v2h12.15l-5.58 5.573L16 24l8-8z"/><path fill="currentColor" d="M16 30a14 14 0 1 1 14-14a14.016 14.016 0 0 1-14 14m0-26a12 12 0 1 0 12 12A12.014 12.014 0 0 0 16 4"/></symbol><symbol id="hd-icon-carbon-no-image" viewBox="0 0 32 32"><path fill="currentColor" d="M30 3.414L28.586 2L2 28.586L3.414 30l2-2H26a2.003 2.003 0 0 0 2-2V5.414ZM26 26H7.414l7.793-7.793l2.379 2.379a2 2 0 0 0 2.828 0L22 19l4 3.997Zm0-5.832l-2.586-2.586a2 2 0 0 0-2.828 0L19 19.168l-2.377-2.377L26 7.414ZM6 22v-3l5-4.997l1.373 1.374l1.416-1.416l-1.375-1.375a2 2 0 0 0-2.828 0L6 16.172V6h16V4H6a2 2 0 0 0-2 2v16Z"/></symbol><symbol id="hd-icon-carbon-no-ticket" viewBox="0 0 32 32"><path fill="currentColor" d="M28 6h-.586L30 3.414L28.586 2L2 28.586L3.414 30l4-4H28a2.003 2.003 0 0 0 2-2v-5a1 1 0 0 0-1-1a2 2 0 0 1 0-4a1 1 0 0 0 1-1V8a2 2 0 0 0-2-2m0 6.127a4 4 0 0 0 0 7.746V24h-7v-3h-2v3H9.414L19 14.414V19h2v-6.586L25.414 8H28Zm-24 0V8h15V6H4a2 2 0 0 0-2 2v5a1 1 0 0 0 1 1a2 2 0 0 1 0 4a1 1 0 0 0-1 1v5h2v-4.127a4 4 0 0 0 0-7.746"/></symbol><symbol id="hd-icon-carbon-nominal" viewBox="0 0 32 32"><path fill="currentColor" d="M24 28a6 6 0 1 1 6-6a6.007 6.007 0 0 1-6 6m0-10a4 4 0 1 0 4 4a4.005 4.005 0 0 0-4-4M8 28a6 6 0 1 1 6-6a6.007 6.007 0 0 1-6 6m0-10a4 4 0 1 0 4 4a4.005 4.005 0 0 0-4-4m8-4a6 6 0 1 1 6-6a6.007 6.007 0 0 1-6 6m0-10a4 4 0 1 0 4 4a4.005 4.005 0 0 0-4-4"/></symbol><symbol id="hd-icon-carbon-nominate" viewBox="0 0 32 32"><path d="M25 23h-6a3 3 0 0 0-3 3v2h2v-2a1 1 0 0 1 1-1h6a1 1 0 0 1 1 1v2h2v-2a3 3 0 0 0-3-3z" fill="currentColor"/><path d="M18 18a4 4 0 1 0 4-4a4 4 0 0 0-4 4zm6 0a2 2 0 1 1-2-2a2 2 0 0 1 2 2z" fill="currentColor"/><path d="M10 18.59L7.41 16L6 17.41l4 4l7-7L15.59 13L10 18.59z" fill="currentColor"/><path d="M14 26H4V6h7.172l3.414 3.414l.586.586H28v8h2v-8a2 2 0 0 0-2-2H16l-3.414-3.414A2 2 0 0 0 11.172 4H4a2 2 0 0 0-2 2v20a2 2 0 0 0 2 2h10z" fill="currentColor"/></symbol><symbol id="hd-icon-carbon-non-certified" viewBox="0 0 32 32"><path fill="currentColor" d="M6 8h10v2H6zm0 4h8v2H6zm0 4h4v2H6z"/><path fill="currentColor" d="M28 26H7.414L30 3.414L28.586 2l-2 2H4a2 2 0 0 0-2 2v16h2V6h20.586L2 28.586L3.414 30l2-2H28a2 2 0 0 0 2-2V10h-2Z"/></symbol><symbol id="hd-icon-carbon-noodle-bowl" viewBox="0 0 32 32"><path fill="currentColor" d="m11.414 15l-8-8L2 8.414L8.586 15H2v1a14 14 0 0 0 28 0v-1ZM16 28A12.017 12.017 0 0 1 4.042 17h23.917A12.017 12.017 0 0 1 16 28"/><path fill="currentColor" d="M22 8a5 5 0 0 0-1.57.255A8.02 8.02 0 0 0 14 5a7.94 7.94 0 0 0-4.906 1.68L4.414 2L3 3.414l6.05 6.05l.707-.707A5.96 5.96 0 0 1 14 7a6.02 6.02 0 0 1 4.688 2.264a5 5 0 0 0-.59.61A2.99 2.99 0 0 1 15.754 11H12v2h3.754a4.98 4.98 0 0 0 3.904-1.874A3 3 0 0 1 25 13h2a5.006 5.006 0 0 0-5-5"/></symbol><symbol id="hd-icon-carbon-not-available" viewBox="0 0 32 32"><path fill="currentColor" d="M4 15h10v2H4zm14 0h10v2H18z"/></symbol><symbol id="hd-icon-carbon-not-sent" viewBox="0 0 32 32"><path fill="currentColor" d="M30 28.59L3.41 2L2 3.41l8 8l-7.34 2.65a1 1 0 0 0 0 1.87l9.6 3.84l3.84 9.6a1 1 0 0 0 .9.63a1 1 0 0 0 .92-.66L20.6 22l8 8ZM5.8 15l5.74-2l3.05 3l-1.83 1.83ZM17 26.2l-2.79-7L16 17.41l3 3.05Zm-1.31-14.75l7.64-2.78l-2.78 7.64l1.56 1.56l3.83-10.53a1 1 0 0 0-1.28-1.28L14.13 9.89Z"/></symbol><symbol id="hd-icon-carbon-not-sent-filled" viewBox="0 0 32 32"><path fill="currentColor" d="M30 28.59L3.41 2L2 3.41l8 8l-7.34 2.65a1 1 0 0 0 0 1.87l8.59 3.43L14.59 16L16 17.41l-3.37 3.37l3.44 8.59A1 1 0 0 0 17 30a1 1 0 0 0 .92-.66L20.6 22l8 8Zm-7.51-11.76l3.45-9.49a1 1 0 0 0-1.28-1.28l-9.49 3.45Z"/></symbol><symbol id="hd-icon-carbon-notebook" viewBox="0 0 32 32"><path fill="currentColor" d="M19 10h7v2h-7zm0 5h7v2h-7zm0 5h7v2h-7z"/><path fill="currentColor" d="M28 5H4a2 2 0 0 0-2 2v18a2 2 0 0 0 2 2h24a2.003 2.003 0 0 0 2-2V7a2 2 0 0 0-2-2M4 7h11v18H4Zm13 18V7h11l.002 18Z"/></symbol><symbol id="hd-icon-carbon-notebook-reference" viewBox="0 0 32 32"><path fill="currentColor" d="M4 20v2h3.586L2 27.586L3.414 29L9 23.414V27h2v-7zm15-10h7v2h-7zm0 5h7v2h-7zm0 5h7v2h-7z"/><path fill="currentColor" d="M28 5H4a2 2 0 0 0-2 2v10h2V7h11v20h13a2 2 0 0 0 2-2V7a2 2 0 0 0-2-2M17 25V7h11l.002 18Z"/></symbol><symbol id="hd-icon-carbon-notification" viewBox="0 0 32 32"><path fill="currentColor" d="M28.707 19.293L26 16.586V13a10.014 10.014 0 0 0-9-9.95V1h-2v2.05A10.014 10.014 0 0 0 6 13v3.586l-2.707 2.707A1 1 0 0 0 3 20v3a1 1 0 0 0 1 1h7v.777a5.15 5.15 0 0 0 4.5 5.199A5.006 5.006 0 0 0 21 25v-1h7a1 1 0 0 0 1-1v-3a1 1 0 0 0-.293-.707M19 25a3 3 0 0 1-6 0v-1h6Zm8-3H5v-1.586l2.707-2.707A1 1 0 0 0 8 17v-4a8 8 0 0 1 16 0v4a1 1 0 0 0 .293.707L27 20.414Z"/></symbol><symbol id="hd-icon-carbon-notification-counter" viewBox="0 0 32 32"><path fill="currentColor" d="M27 12v15H5V5h15V3H5a2 2 0 0 0-2 2v22a2 2 0 0 0 2 2h22a2 2 0 0 0 2-2V12z"/><circle cx="26.5" cy="5.5" r="3.5" fill="currentColor"/></symbol><symbol id="hd-icon-carbon-notification-filled" viewBox="0 0 32 32"><path fill="currentColor" d="M28.707 19.293L26 16.586V13a10.014 10.014 0 0 0-9-9.95V1h-2v2.05A10.014 10.014 0 0 0 6 13v3.586l-2.707 2.707A1 1 0 0 0 3 20v3a1 1 0 0 0 1 1h7v1a5 5 0 0 0 10 0v-1h7a1 1 0 0 0 1-1v-3a1 1 0 0 0-.293-.707M19 25a3 3 0 0 1-6 0v-1h6Z"/></symbol><symbol id="hd-icon-carbon-notification-new" viewBox="0 0 32 32"><path fill="currentColor" d="M26 16.586V14h-2v3a1 1 0 0 0 .293.707L27 20.414V22H5v-1.586l2.707-2.707A1 1 0 0 0 8 17v-4a7.985 7.985 0 0 1 12-6.917V3.846a9.9 9.9 0 0 0-3-.796V1h-2v2.05A10.014 10.014 0 0 0 6 13v3.586l-2.707 2.707A1 1 0 0 0 3 20v3a1 1 0 0 0 1 1h7v1a5 5 0 0 0 10 0v-1h7a1 1 0 0 0 1-1v-3a1 1 0 0 0-.293-.707ZM19 25a3 3 0 0 1-6 0v-1h6Z"/><circle cx="26" cy="8" r="4" fill="currentColor"/></symbol><symbol id="hd-icon-carbon-notification-off" viewBox="0 0 32 32"><path fill="currentColor" d="M26 16.586V13a9.9 9.9 0 0 0-1.083-4.502L30 3.414L28.586 2L2 28.586L3.414 30l6-6H11v1a5 5 0 0 0 10 0v-1h7a1 1 0 0 0 1-1v-3a1 1 0 0 0-.293-.707ZM19 25a3 3 0 0 1-6 0v-1h6Zm8-3H11.414l11.998-11.998A8 8 0 0 1 24 13v4a1 1 0 0 0 .293.707L27 20.414ZM7.707 17.707A1 1 0 0 0 8 17v-4a8.01 8.01 0 0 1 8-8a7.93 7.93 0 0 1 4.986 1.768l1.426-1.426A9.93 9.93 0 0 0 17 3.05V1h-2v2.05A10.014 10.014 0 0 0 6 13v3.586l-3 3L4.414 21Z"/></symbol><symbol id="hd-icon-carbon-notification-off-filled" viewBox="0 0 32 32"><path fill="currentColor" d="M26 16.586V13a9.9 9.9 0 0 0-1.087-4.499L30 3.414L28.586 2L2 28.586L3.414 30l6-6H11v1a5 5 0 0 0 10 0v-1h7a1 1 0 0 0 1-1v-3a1 1 0 0 0-.293-.707ZM19 25a3 3 0 0 1-6 0v-1h6Zm2.61-20.262A9.9 9.9 0 0 0 17 3.051V1h-2v2.05A10.014 10.014 0 0 0 6 13v3.586l-2.707 2.707A1 1 0 0 0 3 20v3a1 1 0 0 0 .059.29Z"/></symbol><symbol id="hd-icon-carbon-notifications-paused" viewBox="0 0 32 32"><path fill="currentColor" d="m29 5l-3.625 4H29v2h-6V9l3.75-4H23V3h6zm-.293 14.293A1 1 0 0 1 29 20v3a1 1 0 0 1-1 1h-7v1c0 2.757-2.243 5-5 5s-5-2.243-5-5v-1H4a1 1 0 0 1-1-1v-3a1 1 0 0 1 .293-.707L6 16.586V13c0-5.176 3.954-9.446 9-9.95V1h2v2.05a9.9 9.9 0 0 1 3 .797V6c-1.178-.684-2.542-1-4-1c-4.411 0-8 3.589-8 8v4a1 1 0 0 1-.293.707L5 20.414V22h22v-1.586l-2.707-2.707A1 1 0 0 1 24 17v-3h2v2.586zM19 24h-6v1c0 1.654 1.346 3 3 3s3-1.346 3-3z"/></symbol><symbol id="hd-icon-carbon-null-sign" viewBox="0 0 32 32"><path fill="currentColor" d="M30 3.414L28.586 2l-3.432 3.432A13.93 13.93 0 0 0 16 2C8.28 2 2 8.28 2 16c0 3.5 1.3 6.697 3.432 9.154L2 28.586L3.414 30l3.432-3.432A13.93 13.93 0 0 0 16 30c7.72 0 14-6.28 14-14c0-3.5-1.3-6.697-3.432-9.154zM4 16C4 9.383 9.383 4 16 4a11.94 11.94 0 0 1 7.74 2.845L6.846 23.741A11.94 11.94 0 0 1 4 16m24 0c0 6.617-5.383 12-12 12a11.94 11.94 0 0 1-7.74-2.845L25.155 8.259A11.94 11.94 0 0 1 28 16"/></symbol><symbol id="hd-icon-carbon-number-0" viewBox="0 0 32 32"><path fill="currentColor" d="M18 23h-4a2 2 0 0 1-2-2V11a2 2 0 0 1 2-2h4a2 2 0 0 1 2 2v10a2 2 0 0 1-2 2m-4-12v10h4V11Z"/><path fill="currentColor" d="M15 15h2v2h-2z"/></symbol><symbol id="hd-icon-carbon-number-1" viewBox="0 0 32 32"><path fill="currentColor" d="M16 10v12zm1-1h-5v2h3v10h-3v2h8v-2h-3z"/></symbol><symbol id="hd-icon-carbon-number-2" viewBox="0 0 32 32"><path fill="currentColor" d="M20 23h-8v-6a2 2 0 0 1 2-2h4v-4h-6V9h6a2 2 0 0 1 2 2v4a2 2 0 0 1-2 2h-4v4h6Z"/></symbol><symbol id="hd-icon-carbon-number-3" viewBox="0 0 32 32"><path fill="currentColor" d="M18 9h-6v2h6v4h-4v2h4v4h-6v2h6a2 2 0 0 0 2-2V11a2 2 0 0 0-2-2"/></symbol><symbol id="hd-icon-carbon-number-4" viewBox="0 0 32 32"><path fill="currentColor" d="M18 10v8zm1-1h-2v8h-3V9h-2v10h5v4h2v-4h1v-2h-1z"/></symbol><symbol id="hd-icon-carbon-number-5" viewBox="0 0 32 32"><path fill="currentColor" d="M18 23h-6v-2h6v-4h-6V9h8v2h-6v4h4a2 2 0 0 1 2 2v4a2 2 0 0 1-2 2"/></symbol><symbol id="hd-icon-carbon-number-6" viewBox="0 0 32 32"><path fill="currentColor" d="M18 14h-4v-3h5V9h-5a2 2 0 0 0-2 2v10a2 2 0 0 0 2 2h4a2 2 0 0 0 2-2v-5a2 2 0 0 0-2-2m-4 7v-5h4v5Z"/></symbol><symbol id="hd-icon-carbon-number-7" viewBox="0 0 32 32"><path fill="currentColor" d="M20 9h-8v4h2v-2h3.85L13 23h2.16L20 11z"/></symbol><symbol id="hd-icon-carbon-number-8" viewBox="0 0 32 32"><path fill="currentColor" d="M18 9h-4a2 2 0 0 0-2 2v10a2 2 0 0 0 2 2h4a2 2 0 0 0 2-2V11a2 2 0 0 0-2-2m0 2v4h-4v-4Zm-4 10v-4h4v4Z"/></symbol><symbol id="hd-icon-carbon-number-9" viewBox="0 0 32 32"><path fill="currentColor" d="M18 9h-4a2 2 0 0 0-2 2v5a2 2 0 0 0 2 2h4v3h-5v2h5a2 2 0 0 0 2-2V11a2 2 0 0 0-2-2m0 7h-4v-5h4Z"/></symbol><symbol id="hd-icon-carbon-number-small-0" viewBox="0 0 32 32"><path fill="currentColor" d="M17 21h-2a2 2 0 0 1-2-2v-6a2 2 0 0 1 2-2h2a2 2 0 0 1 2 2v6a2 2 0 0 1-2 2m-2-8v6h2v-6Z"/></symbol><symbol id="hd-icon-carbon-number-small-1" viewBox="0 0 32 32"><path fill="currentColor" d="M17 19v-8h-2v1h-2v2h2v5h-2v2h6v-2z"/></symbol><symbol id="hd-icon-carbon-number-small-2" viewBox="0 0 32 32"><path fill="currentColor" d="M19 21h-6v-4a2 2 0 0 1 2-2h2v-2h-4v-2h4a2 2 0 0 1 2 2v2a2 2 0 0 1-2 2h-2v2h4Z"/></symbol><symbol id="hd-icon-carbon-number-small-3" viewBox="0 0 32 32"><path fill="currentColor" d="M17 11h-4v2h4v2h-3v2h3v2h-4v2h4a2 2 0 0 0 2-2v-6a2 2 0 0 0-2-2"/></symbol><symbol id="hd-icon-carbon-number-small-4" viewBox="0 0 32 32"><path fill="currentColor" d="M17 11v4h-2v-4h-2v6h4v4h2V11z"/></symbol><symbol id="hd-icon-carbon-number-small-5" viewBox="0 0 32 32"><path fill="currentColor" d="M17 21h-4v-2h4v-2h-4v-6h6v2h-4v2h2a2 2 0 0 1 2 2v2a2 2 0 0 1-2 2"/></symbol><symbol id="hd-icon-carbon-number-small-6" viewBox="0 0 32 32"><path fill="currentColor" d="M17 21h-2a2 2 0 0 1-2-2v-6a2 2 0 0 1 2-2h3v2h-3v2h2a2 2 0 0 1 2 2v2a2 2 0 0 1-2 2m-2-4v2h2v-2Z"/></symbol><symbol id="hd-icon-carbon-number-small-7" viewBox="0 0 32 32"><path fill="currentColor" d="M16.44 21h-2L17 13h-2v1h-2v-3h6v2z"/></symbol><symbol id="hd-icon-carbon-number-small-8" viewBox="0 0 32 32"><path fill="currentColor" d="M17 11h-2a2 2 0 0 0-2 2v6a2 2 0 0 0 2 2h2a2 2 0 0 0 2-2v-6a2 2 0 0 0-2-2m0 2v2h-2v-2Zm-2 6v-2h2v2Z"/></symbol><symbol id="hd-icon-carbon-number-small-9" viewBox="0 0 32 32"><path fill="currentColor" d="M17 21h-3v-2h3v-2h-2a2 2 0 0 1-2-2v-2a2 2 0 0 1 2-2h2a2 2 0 0 1 2 2v6a2 2 0 0 1-2 2m-2-8v2h2v-2Z"/></symbol><symbol id="hd-icon-carbon-object" viewBox="0 0 32 32"><path fill="currentColor" d="M6 3h4v2H6v8c0 1.2-.542 2.266-1.382 3C5.458 16.734 6 17.8 6 19v8h4v2H6c-1.103 0-2-.897-2-2v-8c0-1.102-.897-2-2-2v-2c1.103 0 2-.897 2-2V5c0-1.102.897-2 2-2m22 10V5c0-1.102-.897-2-2-2h-4v2h4v8c0 1.2.543 2.266 1.382 3A3.98 3.98 0 0 0 26 19v8h-4v2h4c1.103 0 2-.897 2-2v-8c0-1.102.897-2 2-2v-2c-1.103 0-2-.897-2-2"/></symbol><symbol id="hd-icon-carbon-object-storage" viewBox="0 0 32 32"><path fill="currentColor" d="M28 20h-2v2h2v6H4v-6h10v-2H4a2 2 0 0 0-2 2v6a2 2 0 0 0 2 2h24a2 2 0 0 0 2-2v-6a2 2 0 0 0-2-2"/><circle cx="7" cy="25" r="1" fill="currentColor"/><path fill="currentColor" d="M30 8h-8v6h-6v8h8v-6h6Zm-8 12h-4v-4h4Zm6-6h-4v-4h4Zm-10-4h-8V2h8Zm-6-2h4V4h-4Z"/></symbol><symbol id="hd-icon-carbon-object-storage-alt" viewBox="0 0 32 32"><path fill="currentColor" d="M28 20h-2v2h2v6H4v-6h10v-2H4a2 2 0 0 0-2 2v6a2 2 0 0 0 2 2h24a2 2 0 0 0 2-2v-6a2 2 0 0 0-2-2"/><circle cx="7" cy="25" r="1" fill="currentColor"/><path fill="currentColor" d="M21 14a2.98 2.98 0 0 0-2.037.811l-4.004-2.402A3 3 0 0 0 15 12a3 3 0 0 0-.041-.409l4.004-2.402A2.99 2.99 0 1 0 18 7a3 3 0 0 0 .042.41l-4.004 2.402a3 3 0 1 0 0 4.377l4.003 2.402A3 3 0 0 0 18 17a3 3 0 1 0 3-3m0-8a1 1 0 1 1-1 1a1 1 0 0 1 1-1m-9 7a1 1 0 1 1 1-1a1 1 0 0 1-1 1m9 5a1 1 0 1 1 1-1a1 1 0 0 1-1 1"/></symbol><symbol id="hd-icon-carbon-observed-hail" viewBox="0 0 32 32"><path fill="currentColor" d="M4 18A12 12 0 1 0 16 6h-4V1L6 7l6 6V8h4A10 10 0 1 1 6 18Z"/><circle cx="13.5" cy="23.5" r="1.5" fill="currentColor"/><circle cx="10.5" cy="19.5" r="1.5" fill="currentColor"/><circle cx="16.5" cy="19.5" r="1.5" fill="currentColor"/><path fill="currentColor" d="M12 16.586L15.586 13L17 14.413L13.413 18zm6 0L21.586 13L23 14.413L19.413 18z"/></symbol><symbol id="hd-icon-carbon-observed-lightning" viewBox="0 0 32 32"><path fill="currentColor" d="m15.67 24l-1.736-1l2.287-4h-3.889l3.993-7l1.737 1l-2.284 4h3.89z"/><path fill="currentColor" d="M4 18A12 12 0 1 0 16 6h-4V1L6 7l6 6V8h4A10 10 0 1 1 6 18Z"/></symbol><symbol id="hd-icon-carbon-omega" viewBox="0 0 32 32"><path fill="currentColor" d="M22.737 25A14.3 14.3 0 0 0 27 15c0-6.58-4.42-11-11-11S5 8.42 5 15a14.3 14.3 0 0 0 4.263 10H4v2h8v-2.238A12.57 12.57 0 0 1 7 15c0-5.467 3.533-9 9-9s9 3.533 9 9a12.57 12.57 0 0 1-5 9.762V27h8v-2Z"/></symbol><symbol id="hd-icon-carbon-opacity" viewBox="0 0 32 32"><path fill="currentColor" d="M6 6h4v4H6zm4 4h4v4h-4zm4-4h4v4h-4zm8 0h4v4h-4zM6 14h4v4H6zm8 0h4v4h-4zm8 0h4v4h-4zM6 22h4v4H6zm8 0h4v4h-4zm8 0h4v4h-4zm-4-12h4v4h-4zm-8 8h4v4h-4zm8 0h4v4h-4z"/></symbol><symbol id="hd-icon-carbon-open-panel-bottom" viewBox="0 0 32 32"><path fill="currentColor" d="M28 4H4a2 2 0 0 0-2 2v20a2 2 0 0 0 2 2h24a2 2 0 0 0 2-2V6a2 2 0 0 0-2-2m0 2v12H4V6ZM4 26v-6h24v6Z"/></symbol><symbol id="hd-icon-carbon-open-panel-filled-bottom" viewBox="0 0 32 32"><path fill="currentColor" d="M28 4H4a2 2 0 0 0-2 2v20a2 2 0 0 0 2 2h24a2 2 0 0 0 2-2V6a2 2 0 0 0-2-2m0 2v12H4V6Z"/></symbol><symbol id="hd-icon-carbon-open-panel-filled-left" viewBox="0 0 32 32"><path fill="currentColor" d="M28 4H4a2 2 0 0 0-2 2v20a2 2 0 0 0 2 2h24a2 2 0 0 0 2-2V6a2 2 0 0 0-2-2m0 22H12V6h16Z"/></symbol><symbol id="hd-icon-carbon-open-panel-filled-right" viewBox="0 0 32 32"><path fill="currentColor" d="M28 4H4a2 2 0 0 0-2 2v20a2 2 0 0 0 2 2h24a2 2 0 0 0 2-2V6a2 2 0 0 0-2-2M4 6h16v20H4Z"/></symbol><symbol id="hd-icon-carbon-open-panel-filled-top" viewBox="0 0 32 32"><path fill="currentColor" d="M28 4H4a2 2 0 0 0-2 2v20a2 2 0 0 0 2 2h24a2 2 0 0 0 2-2V6a2 2 0 0 0-2-2M4 26V14h24v12Z"/></symbol><symbol id="hd-icon-carbon-open-panel-left" viewBox="0 0 32 32"><path fill="currentColor" d="M28 4H4a2 2 0 0 0-2 2v20a2 2 0 0 0 2 2h24a2 2 0 0 0 2-2V6a2 2 0 0 0-2-2M4 6h6v20H4Zm24 20H12V6h16Z"/></symbol><symbol id="hd-icon-carbon-open-panel-right" viewBox="0 0 32 32"><path fill="currentColor" d="M28 4H4a2 2 0 0 0-2 2v20a2 2 0 0 0 2 2h24a2 2 0 0 0 2-2V6a2 2 0 0 0-2-2M4 6h16v20H4Zm24 20h-6V6h6Z"/></symbol><symbol id="hd-icon-carbon-open-panel-top" viewBox="0 0 32 32"><path fill="currentColor" d="M28 4H4a2 2 0 0 0-2 2v20a2 2 0 0 0 2 2h24a2 2 0 0 0 2-2V6a2 2 0 0 0-2-2m0 2v6H4V6ZM4 26V14h24v12Z"/></symbol><symbol id="hd-icon-carbon-operation" viewBox="0 0 32 32"><path d="M23 26h-2l5-10l-5-10h2l5 10l-5 10z" fill="currentColor"/><path d="M4 6h2v20H4z" fill="currentColor"/><path d="M16 9h-4a2 2 0 0 0-2 2v10a2 2 0 0 0 2 2h4a2 2 0 0 0 2-2V11a2 2 0 0 0-2-2zm0 12h-4V11h4z" fill="currentColor"/><path d="M13 15h2v2h-2z" fill="currentColor"/></symbol><symbol id="hd-icon-carbon-operation-gauge" viewBox="0 0 32 32"><path d="M30 4h-6v2h3.75L24 10v2h6v-2h-3.62L30 6V4z" fill="currentColor"/><path d="M20 17.62L22.08 14l-1.73-1l-2.18 3.76A12 12 0 0 0 2 28h2a10 10 0 0 1 13.16-9.48L14 24a2 2 0 1 0 2 2a2 2 0 0 0-.27-1L19 19.35A10 10 0 0 1 24 28h2a12 12 0 0 0-6-10.38z" fill="currentColor"/></symbol><symbol id="hd-icon-carbon-operation-if" viewBox="0 0 32 32"><path d="M12 13h2v10h-2z" fill="currentColor"/><path d="M12 9h2v2h-2z" fill="currentColor"/><path d="M23 11V9h-3a2 2 0 0 0-2 2v2h-2v2h2v8h2v-8h3v-2h-3v-2z" fill="currentColor"/></symbol><symbol id="hd-icon-carbon-operations-field" viewBox="0 0 32 32"><path fill="currentColor" d="M20 12V2h2v10zm4 0V2h2v10zm4 0V2h2v10zm-12 8a3.91 3.91 0 0 1-4-4a3.91 3.91 0 0 1 4-4v-2a6 6 0 1 0 6 6h-2a3.91 3.91 0 0 1-4 4"/><path fill="currentColor" d="M28.893 18.454L26.098 16l-1.318 1.504l2.792 2.452l-2.36 4.088l-3.427-1.16a9 9 0 0 1-2.714 1.565L18.36 28h-4.72l-.71-3.55a9.1 9.1 0 0 1-2.695-1.572l-3.447 1.166l-2.36-4.088l2.725-2.395a8.9 8.9 0 0 1-.007-3.128l-2.718-2.39l2.36-4.087l3.427 1.16A9 9 0 0 1 12.93 7.55L13.64 4H16V2h-2.36a2 2 0 0 0-1.961 1.608l-.504 2.519a11 11 0 0 0-1.327.753l-2.42-.819a2 2 0 0 0-2.372.895l-2.36 4.088a2 2 0 0 0 .411 2.502l1.931 1.697C5.021 15.495 5 15.745 5 16q0 .387.028.766l-1.92 1.688a2 2 0 0 0-.413 2.502l2.36 4.088a2 2 0 0 0 2.374.895l2.434-.824a11 11 0 0 0 1.312.759l.503 2.518A2 2 0 0 0 13.64 30h4.72a2 2 0 0 0 1.961-1.608l.504-2.519a11 11 0 0 0 1.327-.753l2.419.818a2 2 0 0 0 2.373-.894l2.36-4.088a2 2 0 0 0-.411-2.502"/></symbol><symbol id="hd-icon-carbon-operations-record" viewBox="0 0 32 32"><path fill="currentColor" d="M20 20h10v2H20zm0 4h10v2H20zm0 4h10v2H20zm-4-8a3.91 3.91 0 0 1-4-4a3.91 3.91 0 0 1 4-4a3.91 3.91 0 0 1 4 4h2a6 6 0 1 0-6 6Z"/><path fill="currentColor" d="m29.305 11.044l-2.36-4.088a2 2 0 0 0-2.374-.895l-2.434.824a11 11 0 0 0-1.312-.758l-.504-2.52A2 2 0 0 0 18.36 2h-4.72a2 2 0 0 0-1.961 1.608l-.504 2.519a11 11 0 0 0-1.327.753l-2.42-.819a2 2 0 0 0-2.372.895l-2.36 4.088a2 2 0 0 0 .411 2.502l1.931 1.697C5.021 15.495 5 15.745 5 16q0 .387.028.766l-1.92 1.688a2 2 0 0 0-.413 2.502l2.36 4.088a2 2 0 0 0 2.374.895l2.434-.824a11 11 0 0 0 1.312.759l.503 2.518A2 2 0 0 0 13.64 30H16v-2h-2.36l-.71-3.55a9.1 9.1 0 0 1-2.695-1.572l-3.447 1.166l-2.36-4.088l2.725-2.395a8.9 8.9 0 0 1-.007-3.128l-2.718-2.39l2.36-4.087l3.427 1.16A9 9 0 0 1 12.93 7.55L13.64 4h4.72l.71 3.55a9.1 9.1 0 0 1 2.695 1.572l3.447-1.166l2.36 4.088l-2.798 2.452L26.092 16l2.8-2.454a2 2 0 0 0 .413-2.502"/></symbol><symbol id="hd-icon-carbon-orchestrate" viewBox="0 0 32 32"><path fill="currentColor" d="M26 20a2.98 2.98 0 0 0-2.324 1.127l-14.44-5.054l14.352-4.305A2.99 2.99 0 0 0 26 13c1.654 0 3-1.346 3-3s-1.346-3-3-3a2.996 2.996 0 0 0-2.985 2.851l-14.17 4.251l5.146-6.29c.317.115.653.188 1.009.188c1.654 0 3-1.346 3-3s-1.346-3-3-3s-3 1.346-3 3c0 .568.168 1.093.443 1.546l-5.434 6.641A3 3 0 0 0 6 13c-1.654 0-3 1.346-3 3s1.346 3 3 3c.356 0 .692-.073 1.01-.187l5.433 6.64A2.97 2.97 0 0 0 12 27c0 1.654 1.346 3 3 3s3-1.346 3-3s-1.346-3-3-3c-.356 0-.693.073-1.01.187l-4.965-6.069l13.976 4.892a3.003 3.003 0 0 0 3 2.99c1.653 0 3-1.346 3-3s-1.347-3-3-3m0-11a1 1 0 0 1 0 2a1 1 0 0 1 0-2M15 4c.551 0 1 .449 1 1s-.449 1-1 1s-1-.449-1-1s.449-1 1-1m1 23a1 1 0 0 1-2 0a1 1 0 0 1 2 0M5 16c0-.551.449-1 1-1s1 .449 1 1s-.449 1-1 1s-1-.449-1-1m21 8a1 1 0 1 1 .001-2.001A1 1 0 0 1 26 24"/></symbol><symbol id="hd-icon-carbon-order-details" viewBox="0 0 32 32"><path fill="currentColor" d="M19 21h-6a3 3 0 0 0-3 3v2h2v-2a1 1 0 0 1 1-1h6a1 1 0 0 1 1 1v2h2v-2a3 3 0 0 0-3-3m-3-1a4 4 0 1 0-4-4a4 4 0 0 0 4 4m0-6a2 2 0 1 1-2 2a2 2 0 0 1 2-2"/><path fill="currentColor" d="M25 5h-3V4a2 2 0 0 0-2-2h-8a2 2 0 0 0-2 2v1H7a2 2 0 0 0-2 2v21a2 2 0 0 0 2 2h18a2 2 0 0 0 2-2V7a2 2 0 0 0-2-2M12 4h8v4h-8Zm13 24H7V7h3v3h12V7h3Z"/></symbol><symbol id="hd-icon-carbon-ordinal" viewBox="0 0 32 32"><path fill="currentColor" d="M26 26V4h-8v6h-6v6H6v10H2v2h28v-2ZM8 26v-8h4v8Zm6 0V12h4v14Zm6 0V6h4v20Z"/></symbol><symbol id="hd-icon-carbon-outage" viewBox="0 0 32 32"><path fill="currentColor" d="M12 24h9v2h-9zm1 4h6v2h-6zm-4.217-9.025l1.418-1.418A6.92 6.92 0 0 1 8 12a7.99 7.99 0 0 1 13.527-5.77l1.414-1.413A9.988 9.988 0 0 0 6 12a8.94 8.94 0 0 0 2.783 6.975"/><path fill="currentColor" d="M30 3.414L28.586 2L2 28.586L3.414 30L23.661 9.753A7.7 7.7 0 0 1 24 12a7.2 7.2 0 0 1-2.822 6.143C20.107 19.135 19 20.16 19 22h2c0-.92.526-1.45 1.535-2.386A9.2 9.2 0 0 0 26 12a9.9 9.9 0 0 0-.776-3.81Z"/></symbol><symbol id="hd-icon-carbon-outlook-severe" viewBox="0 0 32 32"><path fill="none" d="M15.125 19h1.75v5.5h-1.75ZM17 27a1 1 0 1 0-1 1a1 1 0 0 0 1-1"/><path fill="currentColor" d="m24.908 28.94l-8.076-14.452a.953.953 0 0 0-1.664 0L7.092 28.94A.712.712 0 0 0 7.713 30h16.574a.712.712 0 0 0 .621-1.06M15.125 19h1.75v5.5h-1.75ZM16 28a1 1 0 1 1 1-1a1 1 0 0 1-1 1"/><path fill="currentColor" d="M24.8 9.136a8.994 8.994 0 0 0-17.6 0a6.493 6.493 0 0 0 .915 12.845L9.222 20H8.5a4.48 4.48 0 0 1-3.37-7.456l5.298 5.297l1.013-1.814l-4.66-4.66a4.4 4.4 0 0 1 1.363-.348l.816-.064l.099-.812q.037-.291.097-.573l3.78 3.78l1.014-1.814l-4.014-4.014a7 7 0 0 1 1.975-2.197L25.886 19.3a4.46 4.46 0 0 1-2.386.7h-.724l1.107 1.98a6.493 6.493 0 0 0 .918-12.844Zm2.5 8.75L13.782 4.368a6.974 6.974 0 0 1 9.16 5.775l.099.812l.815.064A4.517 4.517 0 0 1 28 15.5a4.46 4.46 0 0 1-.7 2.386"/></symbol><symbol id="hd-icon-carbon-overflow-menu-horizontal" viewBox="0 0 32 32"><circle cx="8" cy="16" r="2" fill="currentColor"/><circle cx="16" cy="16" r="2" fill="currentColor"/><circle cx="24" cy="16" r="2" fill="currentColor"/></symbol><symbol id="hd-icon-carbon-overflow-menu-vertical" viewBox="0 0 32 32"><circle cx="16" cy="8" r="2" fill="currentColor"/><circle cx="16" cy="16" r="2" fill="currentColor"/><circle cx="16" cy="24" r="2" fill="currentColor"/></symbol><symbol id="hd-icon-carbon-overlay" viewBox="0 0 32 32"><path fill="currentColor" d="M28 8h-4V4a2 2 0 0 0-2-2H4a2 2 0 0 0-2 2v18a2 2 0 0 0 2 2h4v4a2 2 0 0 0 2 2h18a2 2 0 0 0 2-2V10a2 2 0 0 0-2-2M4 22V4h18v4H10a2 2 0 0 0-2 2v12Zm18 0h-2.586L10 12.586V10h2.586L22 19.416Zm-12-6.586L16.586 22H10Zm12.001 1.173L15.414 10H22ZM10 28v-4h12a2 2 0 0 0 2-2V10h4v18Z"/></symbol><symbol id="hd-icon-carbon-package" viewBox="0 0 32 32"><path fill="currentColor" d="M26 30H6a2 2 0 0 1-2-2V16a2 2 0 0 1 2-2h3v2H6v12h20V16h-3v-2h3a2 2 0 0 1 2 2v12a2 2 0 0 1-2 2"/><path fill="currentColor" d="M13 20h6v2h-6zm7.59-11.41L17 12.17V2h-2v10.17l-3.59-3.58L10 10l6 6l6-6z"/></symbol><symbol id="hd-icon-carbon-package-node" viewBox="0 0 32 32"><path fill="currentColor" d="M28 28H4c-1.103 0-2-.897-2-2V6c0-1.103.897-2 2-2h10c1.103 0 2 .897 2 2v4h12c1.103 0 2 .897 2 2v14c0 1.103-.897 2-2 2M4 12v14h24V12zm0-2h10V6H4z"/></symbol><symbol id="hd-icon-carbon-package-text-analysis" viewBox="0 0 32 32"><path fill="currentColor" d="M13 22h6v2h-6z"/><path fill="currentColor" d="M2 18v2h2v8c0 1.103.897 2 2 2h20c1.103 0 2-.897 2-2v-8h2v-2zm24 10H6v-8h20zm3-12h-5c-1.102 0-2-.897-2-2V8c0-1.103.898-2 2-2h5v2h-5v6h5zM18 6h-4V2h-2v14h6c1.103 0 2-.897 2-2V8c0-1.103-.897-2-2-2m-4 8V8h4v6zM8 6H3v2h5v2H4a2 2 0 0 0-2 2v2a2 2 0 0 0 2 2h6V8c0-1.103-.897-2-2-2m0 8H4v-2h4z"/></symbol><symbol id="hd-icon-carbon-page-break" viewBox="0 0 32 32"><path fill="currentColor" d="M2 18h4v2H2zm24 0h4v2h-4zm-2 4v6H8v-6H6v6a2.006 2.006 0 0 0 2 2h16a2.006 2.006 0 0 0 2-2v-6ZM8 16V4h8v6a2.006 2.006 0 0 0 2 2h6v4h2v-6a.91.91 0 0 0-.3-.7l-7-7A.9.9 0 0 0 18 2H8a2.006 2.006 0 0 0-2 2v12ZM18 4.4l5.6 5.6H18ZM10 18h4v2h-4zm8 0h4v2h-4z"/></symbol><symbol id="hd-icon-carbon-page-first" viewBox="0 0 32 32"><path fill="currentColor" d="M14 16L24 6l1.4 1.4l-8.6 8.6l8.6 8.6L24 26zM8 4h2v24H8z"/></symbol><symbol id="hd-icon-carbon-page-last" viewBox="0 0 32 32"><path fill="currentColor" d="M18 16L8 26l-1.4-1.4l8.6-8.6l-8.6-8.6L8 6zm4-12h2v24h-2z"/></symbol><symbol id="hd-icon-carbon-page-number" viewBox="0 0 32 32"><path fill="currentColor" d="M22 26h-6v-6h4v-2h-4v-2h6v6h-4v2h4z"/><path fill="currentColor" d="m25.7 9.3l-7-7A.9.9 0 0 0 18 2H8a2.006 2.006 0 0 0-2 2v24a2.006 2.006 0 0 0 2 2h16a2.006 2.006 0 0 0 2-2V10a.9.9 0 0 0-.3-.7M18 4.4l5.6 5.6H18ZM24 28H8V4h8v6a2.006 2.006 0 0 0 2 2h6Z"/></symbol><symbol id="hd-icon-carbon-page-scroll" viewBox="0 0 32 32"><path d="M16 28H4a1.89 1.89 0 0 1-2-2V14a1.89 1.89 0 0 1 2-2h12a1.89 1.89 0 0 1 2 2v12a1.89 1.89 0 0 1-2 2zM4 14v12h12V14z" fill="currentColor"/><path d="M22 19h-2v-9H10V8h10a1.89 1.89 0 0 1 2 2z" fill="currentColor"/><path d="M26 14h-2V6h-8V4h8a1.89 1.89 0 0 1 2 2z" fill="currentColor"/><path d="M24 17v2h2.8L22 24.4V22h-2v6h6v-2h-2.8l4.8-5.4V23h2v-6h-6z" fill="currentColor"/></symbol><symbol id="hd-icon-carbon-paint-brush" viewBox="0 0 32 32"><path fill="currentColor" d="M28.83 23.17L23 17.33V13a1 1 0 0 0-.29-.71l-10-10a1 1 0 0 0-1.42 0l-9 9a1 1 0 0 0 0 1.42l10 10A1 1 0 0 0 13 23h4.34l5.83 5.84a4 4 0 0 0 5.66-5.66ZM6 10.41l2.29 2.3l1.42-1.42L7.41 9L9 7.41l4.29 4.3l1.42-1.42L10.41 6L12 4.41L18.59 11L11 18.59L4.41 12Zm21.41 17a2 2 0 0 1-2.82 0l-6.13-6.12a1.8 1.8 0 0 0-.71-.29h-4.34l-1-1L20 12.41l1 1v4.34a1 1 0 0 0 .29.7l6.12 6.14a2 2 0 0 1 0 2.82"/></symbol><symbol id="hd-icon-carbon-paint-brush-alt" viewBox="0 0 32 32"><path fill="currentColor" d="M28.828 3.172a4.094 4.094 0 0 0-5.656 0L4.05 22.292A6.95 6.95 0 0 0 2 27.242V30h2.756a6.95 6.95 0 0 0 4.95-2.05L28.828 8.829a4 4 0 0 0 0-5.657M10.91 18.26l2.829 2.829l-2.122 2.121l-2.828-2.828Zm-2.619 8.276A4.97 4.97 0 0 1 4.756 28H4v-.759a4.97 4.97 0 0 1 1.464-3.535l1.91-1.91l2.829 2.828ZM27.415 7.414l-12.261 12.26l-2.829-2.828l12.262-12.26a2.047 2.047 0 0 1 2.828 0a2 2 0 0 1 0 2.828"/></symbol><symbol id="hd-icon-carbon-palm-tree" viewBox="0 0 32 32"><path fill="currentColor" d="M18.57 28C17.897 26.725 16 22.226 16 12v-.131l1.117.744A6.46 6.46 0 0 1 20 18h2a8.46 8.46 0 0 0-3.773-7.05L16.803 10h1.53a7.04 7.04 0 0 1 4.2 1.4l1.867 1.4l1.2-1.6l-1.867-1.4a9.06 9.06 0 0 0-5.4-1.8h-1.216A7.03 7.03 0 0 1 22 6h2V4h-2a9.04 9.04 0 0 0-7 3.364A9.04 9.04 0 0 0 8 4H6v2h2a7.03 7.03 0 0 1 4.883 2h-1.216a9.06 9.06 0 0 0-5.4 1.8L4.4 11.2l1.2 1.6l1.867-1.4a7.04 7.04 0 0 1 4.2-1.4h1.53l-1.423.95A8.46 8.46 0 0 0 8 18h2a6.46 6.46 0 0 1 2.883-5.387L14 11.87V12c0 8.944 1.412 13.765 2.361 16H2v2h28v-2Z"/></symbol><symbol id="hd-icon-carbon-pan-horizontal" viewBox="0 0 32 32"><path fill="currentColor" d="m24 10l-1.414 1.414L26.172 15H5.828l3.586-3.586L8 10l-6 6l6 6l1.414-1.414L5.828 17h20.344l-3.586 3.586L24 22l6-6z"/></symbol><symbol id="hd-icon-carbon-pan-vertical" viewBox="0 0 32 32"><path fill="currentColor" d="m10 8l1.414 1.414L15 5.828v20.344l-3.586-3.586L10 24l6 6l6-6l-1.414-1.414L17 26.172V5.828l3.586 3.586L22 8l-6-6z"/></symbol><symbol id="hd-icon-carbon-panel-expansion" viewBox="0 0 32 32"><path fill="currentColor" d="M12 6H6a2 2 0 0 0-2 2v6a2 2 0 0 0 2 2h6a2 2 0 0 0 2-2V8a2 2 0 0 0-2-2m-6 8V8h6v6Zm20-8h-6a2 2 0 0 0-2 2v16a2 2 0 0 0 2 2h6a2 2 0 0 0 2-2V8a2 2 0 0 0-2-2m-6 18V8h6v16Z"/></symbol><symbol id="hd-icon-carbon-paragraph" viewBox="0 0 32 32"><path fill="currentColor" d="M27 4H13a7 7 0 0 0 0 14v10h2V6h5v22h2V6h5ZM13 16a5 5 0 0 1 0-10Z"/></symbol><symbol id="hd-icon-carbon-parameter" viewBox="0 0 32 32"><path fill="currentColor" d="M28 13V8a2 2 0 0 0-2-2h-3v2h3v5a3.98 3.98 0 0 0 1.382 3A3.98 3.98 0 0 0 26 19v5h-3v2h3a2 2 0 0 0 2-2v-5a2 2 0 0 1 2-2v-2a2 2 0 0 1-2-2"/><path fill="currentColor" fill-rule="evenodd" d="m17 9l-.857 3h2L19 9h2l-.857 3H22v2h-2.428l-1.143 4H21v2h-3.143L17 23h-2l.857-3h-2L13 23h-2l.857-3H10v-2h2.429l1.143-4H11v-2h3.143L15 9Zm.572 5h-2l-1.143 4h2Z"/><path fill="currentColor" d="M6 13V8h3V6H6a2 2 0 0 0-2 2v5a2 2 0 0 1-2 2v2a2 2 0 0 1 2 2v5a2 2 0 0 0 2 2h3v-2H6v-5a3.98 3.98 0 0 0-1.382-3A3.98 3.98 0 0 0 6 13"/></symbol><symbol id="hd-icon-carbon-parent-child" viewBox="0 0 32 32"><path fill="currentColor" d="M28 12a2 2 0 0 0 2-2V4a2 2 0 0 0-2-2H4a2 2 0 0 0-2 2v6a2 2 0 0 0 2 2h11v4H9a2 2 0 0 0-2 2v4H4a2 2 0 0 0-2 2v4a2 2 0 0 0 2 2h8a2 2 0 0 0 2-2v-4a2 2 0 0 0-2-2H9v-4h14v4h-3a2 2 0 0 0-2 2v4a2 2 0 0 0 2 2h8a2 2 0 0 0 2-2v-4a2 2 0 0 0-2-2h-3v-4a2 2 0 0 0-2-2h-6v-4ZM12 28H4v-4h8Zm16 0h-8v-4h8ZM4 4h24v6H4Z"/></symbol><symbol id="hd-icon-carbon-parent-node" viewBox="0 0 32 32"><path fill="currentColor" d="M23 20c-2.41 0-4.43 1.72-4.9 4H14c-2.21 0-4-1.79-4-4v-8.1A5 5 0 1 0 4 7c0 2.41 1.72 4.43 4 4.9V20c0 3.31 2.69 6 6 6h4.1a5 5 0 1 0 4.9-6m0 8c-1.65 0-3-1.35-3-3s1.35-3 3-3s3 1.35 3 3s-1.35 3-3 3"/></symbol><symbol id="hd-icon-carbon-part-definition" viewBox="0 0 32 32"><path fill="currentColor" d="M20.834 16.808c-2.441 0-3.834.911-3.834 2.75c0 1.6 1.032 2.648 2.854 2.648c1.34 0 2.321-.601 2.613-1.753h.103c.137.928.722 1.547 1.668 1.547h1.22v-1.753h-.894v-4.23c0-2.046-1.289-3.198-3.713-3.198c-1.805 0-2.854.688-3.507 1.72l1.307 1.169c.43-.62 1.014-1.135 2.045-1.135c1.17 0 1.668.585 1.668 1.582v.653zm1.53 2.51c0 .843-.79 1.29-1.77 1.29c-.86 0-1.36-.361-1.36-1.084v-.292c0-.705.569-1.1 1.72-1.1h1.41zM9.272 17.427h3.129c2.218 0 3.559-1.478 3.559-3.713c0-2.218-1.341-3.714-3.56-3.714H7.004v12h2.269zm0-5.45h2.923c.876 0 1.41.464 1.41 1.341v.791c0 .877-.534 1.358-1.41 1.358H9.272z"/><path fill="currentColor" d="M2 4v24a2 2 0 0 0 2 2h24a2 2 0 0 0 2-2V4a2 2 0 0 0-2-2H4a2 2 0 0 0-2 2m26 24H4V4h24z"/></symbol><symbol id="hd-icon-carbon-part-usage" viewBox="0 0 32 32"><path fill="currentColor" d="M20.834 16.808c-2.441 0-3.834.911-3.834 2.75c0 1.6 1.032 2.648 2.854 2.648c1.34 0 2.321-.601 2.613-1.753h.103c.137.928.722 1.547 1.668 1.547h1.22v-1.753h-.894v-4.23c0-2.046-1.289-3.198-3.713-3.198c-1.805 0-2.854.688-3.507 1.72l1.307 1.169c.43-.62 1.014-1.135 2.045-1.135c1.17 0 1.668.585 1.668 1.582v.653zm1.53 2.51c0 .843-.79 1.29-1.77 1.29c-.86 0-1.36-.361-1.36-1.084v-.292c0-.705.569-1.1 1.72-1.1h1.41zM9.272 17.427h3.129c2.218 0 3.559-1.478 3.559-3.713c0-2.218-1.341-3.714-3.56-3.714H7.004v12h2.269zm0-5.45h2.923c.876 0 1.41.464 1.41 1.341v.791c0 .877-.534 1.358-1.41 1.358H9.272z"/><path fill="currentColor" d="M21 30H11c-4.963 0-9-4.037-9-9V11c0-4.963 4.037-9 9-9h10c4.963 0 9 4.037 9 9v10c0 4.963-4.037 9-9 9M11 4c-3.86 0-7 3.14-7 7v10c0 3.86 3.14 7 7 7h10c3.86 0 7-3.14 7-7V11c0-3.86-3.14-7-7-7z"/></symbol><symbol id="hd-icon-carbon-partition-auto" viewBox="0 0 32 32"><path fill="currentColor" d="M26 19c-2.206 0-4 1.794-4 4c0 .684.188 1.317.492 1.88A11 11 0 0 1 16 27C9.935 27 5 22.065 5 16H3c0 7.168 5.832 13 13 13a12.98 12.98 0 0 0 7.843-2.642A3.97 3.97 0 0 0 26 27c2.206 0 4-1.794 4-4s-1.794-4-4-4m0 6c-1.103 0-2-.897-2-2s.897-2 2-2s2 .898 2 2s-.897 2-2 2M16 3a12.98 12.98 0 0 0-7.843 2.642A3.97 3.97 0 0 0 6 5C3.794 5 2 6.794 2 9s1.794 4 4 4s4-1.794 4-4c0-.684-.188-1.317-.492-1.88A11 11 0 0 1 16 5c6.065 0 11 4.935 11 11h2c0-7.168-5.832-13-13-13M6 11c-1.103 0-2-.897-2-2s.897-2 2-2s2 .898 2 2s-.897 2-2 2"/></symbol><symbol id="hd-icon-carbon-partition-collection" viewBox="0 0 32 32"><path fill="currentColor" d="M26 12c-1.858 0-3.41 1.28-3.858 3h-2.728c-.534 0-1.036.208-1.414.586L12.586 21H2v2h10.586c.534 0 1.036-.208 1.414-.586L19.414 17h2.728c.447 1.72 2 3 3.858 3c2.206 0 4-1.794 4-4s-1.794-4-4-4m0 6c-1.103 0-2-.897-2-2s.897-2 2-2s2 .898 2 2s-.897 2-2 2m-9.828-3.414L12.586 11H2V9h10.586c.534 0 1.036.208 1.414.586l3.586 3.586z"/></symbol><symbol id="hd-icon-carbon-partition-repartition" viewBox="0 0 32 32"><path fill="currentColor" d="M26 6c-1.858 0-3.41 1.28-3.858 3h-2.728c-.534 0-1.036.208-1.414.586l-3.586 3.586l1.414 1.414L19.414 11h2.728c.447 1.72 2 3 3.858 3c2.206 0 4-1.794 4-4s-1.794-4-4-4m0 6c-1.103 0-2-.897-2-2s.897-2 2-2s2 .898 2 2s-.897 2-2 2m-15.828 5.414L6.586 21H2v2h4.586c.534 0 1.036-.208 1.414-.586l3.586-3.586z"/><path fill="currentColor" d="M26 18c-1.858 0-3.41 1.28-3.858 3h-2.728L8 9.586A2 2 0 0 0 6.586 9H2v2h4.586L18 22.414c.378.378.88.586 1.414.586h2.728c.447 1.72 2 3 3.858 3c2.206 0 4-1.794 4-4s-1.794-4-4-4m0 6c-1.103 0-2-.897-2-2s.897-2 2-2s2 .898 2 2s-.897 2-2 2"/></symbol><symbol id="hd-icon-carbon-partition-same" viewBox="0 0 32 32"><path fill="currentColor" d="M26 18c-1.858 0-3.41 1.28-3.858 3H2v2h20.142c.447 1.72 2 3 3.858 3c2.206 0 4-1.794 4-4s-1.794-4-4-4m0 6c-1.103 0-2-.897-2-2s.897-2 2-2s2 .898 2 2s-.897 2-2 2m0-18c-1.858 0-3.41 1.28-3.858 3H2v2h20.142c.447 1.72 2 3 3.858 3c2.206 0 4-1.794 4-4s-1.794-4-4-4m0 6c-1.103 0-2-.897-2-2s.897-2 2-2s2 .898 2 2s-.897 2-2 2"/></symbol><symbol id="hd-icon-carbon-partition-specific" viewBox="0 0 32 32"><path fill="currentColor" d="M26 18c-1.858 0-3.41 1.28-3.858 3h-2.728L14 15.586A2 2 0 0 0 12.586 15H2v2h10.586L18 22.414c.378.378.88.586 1.414.586h2.728c.447 1.72 2 3 3.858 3c2.206 0 4-1.794 4-4s-1.794-4-4-4m0 6c-1.103 0-2-.897-2-2s.897-2 2-2s2 .898 2 2s-.897 2-2 2m0-18c-1.858 0-3.41 1.28-3.858 3h-2.728c-.534 0-1.036.208-1.414.586l-3.586 3.586l1.414 1.414L19.414 11h2.728c.447 1.72 2 3 3.858 3c2.206 0 4-1.794 4-4s-1.794-4-4-4m0 6c-1.103 0-2-.897-2-2s.897-2 2-2s2 .898 2 2s-.897 2-2 2"/></symbol><symbol id="hd-icon-carbon-partly-cloudy" viewBox="0 0 32 32"><path fill="currentColor" d="M27 15h4v2h-4zm-4-7.413l3-3L27.415 6l-3 3zM15 1h2v4h-2zM4.586 26l3-3l1.415 1.415l-3 3zM4.585 6L6 4.587l3 3l-1.414 1.415zM1 15h4v2H1z"/><path fill="currentColor" d="M26.794 20.342a6.96 6.96 0 0 0-1.868-3.267A9 9 0 0 0 25 16a9 9 0 1 0-14.585 7.033A4.977 4.977 0 0 0 15 30h10a4.995 4.995 0 0 0 1.794-9.658M9 16a6.996 6.996 0 0 1 13.985-.297A6.9 6.9 0 0 0 20 15a7.04 7.04 0 0 0-6.794 5.342a5 5 0 0 0-1.644 1.048A6.97 6.97 0 0 1 9 16m16 12H15a2.995 2.995 0 0 1-.696-5.908l.658-.157l.099-.67a4.992 4.992 0 0 1 9.878 0l.099.67l.658.156A2.995 2.995 0 0 1 25 28"/></symbol><symbol id="hd-icon-carbon-partly-cloudy-night" viewBox="0 0 32 32"><path fill="currentColor" d="M30 19a4.97 4.97 0 0 0-3.206-4.658A6.971 6.971 0 0 0 13.758 12.9a13.14 13.14 0 0 1 .131-8.52A1.015 1.015 0 0 0 12.98 3a1 1 0 0 0-.175.016a13.096 13.096 0 0 0 1.825 25.981c.164.006.328 0 .49 0a13.04 13.04 0 0 0 10.29-5.038A4.99 4.99 0 0 0 30 19m-15.297 7.998a11.095 11.095 0 0 1-3.2-21.584a15.2 15.2 0 0 0 .844 9.367A4.988 4.988 0 0 0 15 24h7.677a11.1 11.1 0 0 1-7.556 2.998c-.138 0-.278.004-.418 0M25 22H15a2.995 2.995 0 0 1-.696-5.908l.658-.157l.099-.67a4.992 4.992 0 0 1 9.878 0l.099.67l.658.157A2.995 2.995 0 0 1 25 22"/></symbol><symbol id="hd-icon-carbon-partnership" viewBox="0 0 32 32"><path fill="currentColor" d="M8 9a4 4 0 1 1 4-4a4 4 0 0 1-4 4m0-6a2 2 0 1 0 2 2a2 2 0 0 0-2-2m16 6a4 4 0 1 1 4-4a4 4 0 0 1-4 4m0-6a2 2 0 1 0 2 2a2 2 0 0 0-2-2m2 27h-4a2 2 0 0 1-2-2v-7h2v7h4v-9h2v-6a1 1 0 0 0-1-1h-6.42L16 20l-4.58-8H5a1 1 0 0 0-1 1v6h2v9h4v-7h2v7a2 2 0 0 1-2 2H6a2 2 0 0 1-2-2v-7a2 2 0 0 1-2-2v-6a3 3 0 0 1 3-3h7.58L16 16l3.42-6H27a3 3 0 0 1 3 3v6a2 2 0 0 1-2 2v7a2 2 0 0 1-2 2"/></symbol><symbol id="hd-icon-carbon-passenger-drinks" viewBox="0 0 32 32"><path fill="currentColor" d="M30 4V2h-8v2a3.99 3.99 0 0 0 3 3.859V11h-2v2h6v-2h-2V7.859A3.99 3.99 0 0 0 30 4M10.5 9A3.5 3.5 0 1 1 14 5.5A3.504 3.504 0 0 1 10.5 9m0-5A1.5 1.5 0 1 0 12 5.5A1.5 1.5 0 0 0 10.5 4m11.975 27.313L19.34 24h-7.102a4.01 4.01 0 0 1-3.866-2.97l-1.634-6.127a3.899 3.899 0 0 1 7.534-2.009l.83 3.106H21v2h-7.435l-1.223-4.59a1.9 1.9 0 0 0-3.671.978l1.634 6.126A2.005 2.005 0 0 0 12.239 22h8.42l3.655 8.525Z"/><path fill="currentColor" d="M18 28H7.768a2 2 0 0 1-1.932-1.485L2.034 12.258l1.932-.516L7.768 26H18Z"/></symbol><symbol id="hd-icon-carbon-passenger-plus" viewBox="0 0 32 32"><path fill="currentColor" d="M10.5 9A3.5 3.5 0 1 1 14 5.5A3.504 3.504 0 0 1 10.5 9m0-5A1.5 1.5 0 1 0 12 5.5A1.5 1.5 0 0 0 10.5 4m11.974 27.313L19.34 24h-7.101a4.01 4.01 0 0 1-3.867-2.97l-1.634-6.127a3.899 3.899 0 0 1 7.535-2.009L15.1 16H21v2h-7.436l-1.223-4.59a1.9 1.9 0 0 0-3.67.978l1.633 6.126A2.005 2.005 0 0 0 12.239 22h8.42l3.654 8.525ZM30 6h-4V2h-2v4h-4v2h4v4h2V8h4z"/><path fill="currentColor" d="M18 28H7.768a2 2 0 0 1-1.933-1.485L2.033 12.258l1.933-.516L7.768 26H18Z"/></symbol><symbol id="hd-icon-carbon-password" viewBox="0 0 32 32"><path fill="currentColor" d="M21 2a8.998 8.998 0 0 0-8.612 11.612L2 24v6h6l10.388-10.388A9 9 0 1 0 21 2m0 16a7 7 0 0 1-2.032-.302l-1.147-.348l-.847.847l-3.181 3.181L12.414 20L11 21.414l1.379 1.379l-1.586 1.586L9.414 23L8 24.414l1.379 1.379L7.172 28H4v-3.172l9.802-9.802l.848-.847l-.348-1.147A7 7 0 1 1 21 18"/><circle cx="22" cy="10" r="2" fill="currentColor"/></symbol><symbol id="hd-icon-carbon-paste" viewBox="0 0 32 32"><path fill="currentColor" d="M26 20h-8.17l2.58-2.59L19 16l-5 5l5 5l1.41-1.41L17.83 22H26v8h2v-8a2 2 0 0 0-2-2"/><path fill="currentColor" d="m23.71 9.29l-7-7A1 1 0 0 0 16 2H6a2 2 0 0 0-2 2v24a2 2 0 0 0 2 2h8v-2H6V4h8v6a2 2 0 0 0 2 2h6v2h2v-4a1 1 0 0 0-.29-.71M16 4.41L21.59 10H16Z"/></symbol><symbol id="hd-icon-carbon-pause" viewBox="0 0 32 32"><path fill="currentColor" d="M12 8v16H8V8zm0-2H8a2 2 0 0 0-2 2v16a2 2 0 0 0 2 2h4a2 2 0 0 0 2-2V8a2 2 0 0 0-2-2m12 2v16h-4V8zm0-2h-4a2 2 0 0 0-2 2v16a2 2 0 0 0 2 2h4a2 2 0 0 0 2-2V8a2 2 0 0 0-2-2"/></symbol><symbol id="hd-icon-carbon-pause-filled" viewBox="0 0 32 32"><path fill="currentColor" d="M12 6h-2a2 2 0 0 0-2 2v16a2 2 0 0 0 2 2h2a2 2 0 0 0 2-2V8a2 2 0 0 0-2-2m10 0h-2a2 2 0 0 0-2 2v16a2 2 0 0 0 2 2h2a2 2 0 0 0 2-2V8a2 2 0 0 0-2-2"/></symbol><symbol id="hd-icon-carbon-pause-future" viewBox="0 0 32 32"><path fill="currentColor" d="M14 11h-2v11h2zm6 0h-2v11h2z"/><path fill="currentColor" d="M16 2a13.92 13.92 0 0 1 10 4.234V2h2v8h-8V8h4.922A11.982 11.982 0 1 0 28 16h2A14 14 0 1 1 16 2"/></symbol><symbol id="hd-icon-carbon-pause-outline" viewBox="0 0 32 32"><path fill="currentColor" d="M14 10h-2v12h2zm6 0h-2v12h2z"/><path fill="currentColor" d="M16 4A12 12 0 1 1 4 16A12 12 0 0 1 16 4m0-2a14 14 0 1 0 14 14A14 14 0 0 0 16 2"/></symbol><symbol id="hd-icon-carbon-pause-outline-filled" viewBox="0 0 32 32"><path fill="currentColor" d="M16 2a14 14 0 1 0 14 14A14 14 0 0 0 16 2m-2 20h-2V10h2Zm6 0h-2V10h2Z"/></symbol><symbol id="hd-icon-carbon-pause-past" viewBox="0 0 32 32"><path fill="currentColor" d="M14 11h-2v11h2zm6 0h-2v11h2z"/><path fill="currentColor" d="M16 2A13.92 13.92 0 0 0 6 6.234V2H4v8h8V8H7.078A11.982 11.982 0 1 1 4 16H2A14 14 0 1 0 16 2"/></symbol><symbol id="hd-icon-carbon-pcn-e-node" viewBox="0 0 32 32"><path fill="currentColor" d="M20 11V9h-8v14h8v-2h-6v-4h5v-2h-5v-4z"/><path fill="currentColor" d="M30.414 17.414a2 2 0 0 0 0-2.828l-5.787-5.787l2.9-2.862a2.002 2.002 0 1 0-1.44-1.388l-2.874 2.836l-5.799-5.8a2 2 0 0 0-2.828 0L8.799 7.374L5.937 4.472A2.002 2.002 0 1 0 4.55 5.914l2.835 2.873l-5.8 5.799a2 2 0 0 0 0 2.828l5.8 5.799l-2.835 2.873a1.998 1.998 0 1 0 1.387 1.442l2.862-2.9l5.787 5.786a2 2 0 0 0 2.828 0l5.8-5.799l2.872 2.836a1.998 1.998 0 1 0 1.442-1.387l-2.9-2.863ZM16 29L3 16L16 3l13 13Z"/></symbol><symbol id="hd-icon-carbon-pcn-military" viewBox="0 0 32 32"><path fill="currentColor" d="m16 16l-1.593 3l-3.407.414l2.5 2.253L13 25l3-1.875L19 25l-.5-3.333l2.5-2.253L17.5 19z"/><path fill="currentColor" d="M12.414 17.414L16 13.834l3.588 3.582L21 16l-5-5l-5 5z"/><path fill="currentColor" d="M12.414 12.414L16 8.834l3.588 3.582L21 11l-5-5l-5 5z"/><path fill="currentColor" d="M30.414 17.414a2 2 0 0 0 0-2.828l-5.787-5.787l2.9-2.862a2.002 2.002 0 1 0-1.44-1.388l-2.874 2.836l-5.799-5.8a2 2 0 0 0-2.828 0L8.799 7.374L5.937 4.472A2.002 2.002 0 1 0 4.55 5.914l2.835 2.873l-5.8 5.799a2 2 0 0 0 0 2.828l5.8 5.799l-2.835 2.873a1.998 1.998 0 1 0 1.387 1.442l2.862-2.9l5.787 5.786a2 2 0 0 0 2.828 0l5.8-5.799l2.872 2.836a1.998 1.998 0 1 0 1.442-1.387l-2.9-2.863ZM16 29L3 16L16 3l13 13Z"/></symbol><symbol id="hd-icon-carbon-pcn-p-node" viewBox="0 0 32 32"><path fill="currentColor" d="M14 23h-2V9h6a2 2 0 0 1 2 2v5a2 2 0 0 1-2 2h-4Zm0-7h4v-5.001h-4Z"/><path fill="currentColor" d="M30.414 17.414a2 2 0 0 0 0-2.828l-5.787-5.787l2.9-2.862a2.002 2.002 0 1 0-1.44-1.388l-2.874 2.836l-5.799-5.8a2 2 0 0 0-2.828 0L8.799 7.374L5.937 4.472A2.002 2.002 0 1 0 4.55 5.914l2.835 2.873l-5.8 5.799a2 2 0 0 0 0 2.828l5.8 5.799l-2.835 2.873a1.998 1.998 0 1 0 1.387 1.442l2.862-2.9l5.787 5.786a2 2 0 0 0 2.828 0l5.8-5.799l2.872 2.836a1.998 1.998 0 1 0 1.442-1.387l-2.9-2.863ZM16 29L3 16L16 3l13 13Z"/></symbol><symbol id="hd-icon-carbon-pcn-z-node" viewBox="0 0 32 32"><path fill="currentColor" d="M20 9h-8v2h6l-6 10v2h8v-2h-6l6-10z"/><path fill="currentColor" d="M30.414 17.414a2 2 0 0 0 0-2.828l-5.787-5.787l2.9-2.862a2.002 2.002 0 1 0-1.44-1.388l-2.874 2.836l-5.799-5.8a2 2 0 0 0-2.828 0L8.799 7.374L5.937 4.472A2.002 2.002 0 1 0 4.55 5.914l2.835 2.873l-5.8 5.799a2 2 0 0 0 0 2.828l5.8 5.799l-2.835 2.873a1.998 1.998 0 1 0 1.387 1.442l2.862-2.9l5.787 5.786a2 2 0 0 0 2.828 0l5.8-5.799l2.872 2.836a1.998 1.998 0 1 0 1.442-1.387l-2.9-2.863ZM16 29L3 16L16 3l13 13Z"/></symbol><symbol id="hd-icon-carbon-pdf" viewBox="0 0 32 32"><path fill="currentColor" d="M30 11V9h-8v14h2v-6h5v-2h-5v-4zM8 9H2v14h2v-5h4a2 2 0 0 0 2-2v-5a2 2 0 0 0-2-2m0 7H4v-5h4Zm8 7h-4V9h4a4 4 0 0 1 4 4v6a4 4 0 0 1-4 4m-2-2h2a2 2 0 0 0 2-2v-6a2 2 0 0 0-2-2h-2Z"/></symbol><symbol id="hd-icon-carbon-pdf-reference" viewBox="0 0 32 32"><path fill="currentColor" d="M4 20v2h4.586L2 28.586L3.414 30L10 23.414V28h2v-8zm18-4h2v-6h5V8h-5V4h6V2h-8zM16 2h-4v14h4a4 4 0 0 0 4-4V6a4 4 0 0 0-4-4m2 10a2 2 0 0 1-2 2h-2V4h2a2 2 0 0 1 2 2ZM8 2H2v14h2v-5h4a2 2 0 0 0 2-2V4a2 2 0 0 0-2-2m0 7H4V4h4Z"/></symbol><symbol id="hd-icon-carbon-pedestrian" viewBox="0 0 32 32"><path fill="currentColor" d="m21.677 14l-1.245-3.114A2.99 2.99 0 0 0 17.646 9h-4.092a3 3 0 0 0-1.544.428L7 12.434V18h2v-4.434l3-1.8v11.931l-3.462 5.194L10.202 30L14 24.303V11h3.646a.995.995 0 0 1 .928.629L20.323 16H26v-2Z"/><path fill="currentColor" d="M17.051 18.316L19 24.162V30h2v-6.162l-2.051-6.154zM16.5 8A3.5 3.5 0 1 1 20 4.5A3.504 3.504 0 0 1 16.5 8m0-5A1.5 1.5 0 1 0 18 4.5A1.5 1.5 0 0 0 16.5 3"/></symbol><symbol id="hd-icon-carbon-pedestrian-child" viewBox="0 0 32 32"><path fill="currentColor" d="M26 16h-8.532l-5-6H5a3.003 3.003 0 0 0-3 3v6a2 2 0 0 0 2 2v7a2 2 0 0 0 2 2h4a2 2 0 0 0 2-2v-7h-2v7H6v-9H4v-6a1 1 0 0 1 1-1h6.532l5 6H26a1 1 0 0 1 1 1v3h-2v6h-3v-6h-2v6a2 2 0 0 0 2 2h3a2 2 0 0 0 2-2v-4a2 2 0 0 0 2-2v-3a3.003 3.003 0 0 0-3-3"/><path fill="currentColor" d="M23.5 15a3.5 3.5 0 1 1 3.5-3.5a3.504 3.504 0 0 1-3.5 3.5m0-5a1.5 1.5 0 1 0 1.5 1.5a1.5 1.5 0 0 0-1.5-1.5M8 9a4 4 0 1 1 4-4a4.004 4.004 0 0 1-4 4m0-6a2 2 0 1 0 2 2a2 2 0 0 0-2-2"/></symbol><symbol id="hd-icon-carbon-pedestrian-family" viewBox="0 0 32 32"><path fill="currentColor" d="M20 30h-3a2 2 0 0 1-2-2v-5h2v5h3v-5h2v-4a1 1 0 0 0-1-1h-8.72l-2-6H4a1 1 0 0 0-1 1v6h2v9h4v-7h2v7a2 2 0 0 1-2 2H5a2 2 0 0 1-2-2v-7a2 2 0 0 1-2-2v-6a3.003 3.003 0 0 1 3-3h6.28a2 2 0 0 1 1.897 1.367L13.72 16H21a3.003 3.003 0 0 1 3 3v4a2 2 0 0 1-2 2v3a2 2 0 0 1-2 2m8 0h-2V19h3v-6a1 1 0 0 0-1-1h-4v-2h4a3.003 3.003 0 0 1 3 3v6a2 2 0 0 1-2 2h-1ZM7 9a4 4 0 1 1 4-4a4.005 4.005 0 0 1-4 4m0-6a2 2 0 1 0 2 2a2 2 0 0 0-2-2m18 6a4 4 0 1 1 4-4a4.005 4.005 0 0 1-4 4m0-6a2 2 0 1 0 2 2a2 2 0 0 0-2-2"/><path fill="currentColor" d="M18.5 15a3.5 3.5 0 1 1 3.5-3.5a3.504 3.504 0 0 1-3.5 3.5m0-5a1.5 1.5 0 1 0 1.5 1.5a1.5 1.5 0 0 0-1.5-1.5"/></symbol><symbol id="hd-icon-carbon-pen" viewBox="0 0 32 32"><path fill="currentColor" d="M27.307 6.107L30 3.414L28.586 2l-2.693 2.693L24.8 3.6a1.933 1.933 0 0 0-2.8 0l-18 18V28h6.4l18-18a1.933 1.933 0 0 0 0-2.8ZM9.6 26H6v-3.6L23.4 5L27 8.6ZM9 11.586L16.586 4L18 5.414L10.414 13z"/></symbol><symbol id="hd-icon-carbon-pen-fountain" viewBox="0 0 32 32"><path fill="currentColor" d="m29.707 5.293l-3-3a1 1 0 0 0-1.414 0L19.586 8h-2.491a11.01 11.01 0 0 0-10.383 7.366L2.056 28.67a1 1 0 0 0 1.275 1.274l13.303-4.656A11.01 11.01 0 0 0 24 14.905v-2.49l5.707-5.708a1 1 0 0 0 0-1.414m-7.414 6A1 1 0 0 0 22 12v2.905a9.01 9.01 0 0 1-6.027 8.495l-9.168 3.209L16 17.414L14.586 16L5.39 25.195l3.21-9.168A9.01 9.01 0 0 1 17.095 10H20a1 1 0 0 0 .707-.293L26 4.414L27.586 6Z"/></symbol><symbol id="hd-icon-carbon-pending" viewBox="0 0 32 32"><circle cx="9" cy="16" r="2" fill="currentColor"/><circle cx="23" cy="16" r="2" fill="currentColor"/><circle cx="16" cy="16" r="2" fill="currentColor"/><path fill="currentColor" d="M16 30a14 14 0 1 1 14-14a14.016 14.016 0 0 1-14 14m0-26a12 12 0 1 0 12 12A12.014 12.014 0 0 0 16 4"/></symbol><symbol id="hd-icon-carbon-pending-filled" viewBox="0 0 32 32"><path fill="currentColor" d="M16 2a14 14 0 1 0 14 14A14 14 0 0 0 16 2M8 18a2 2 0 1 1 2-2a2 2 0 0 1-2 2m8 0a2 2 0 1 1 2-2a2 2 0 0 1-2 2m8 0a2 2 0 1 1 2-2a2 2 0 0 1-2 2"/><path fill="none" d="M10 16a2 2 0 1 1-2-2a2 2 0 0 1 2 2m6-2a2 2 0 1 0 2 2a2 2 0 0 0-2-2m8 0a2 2 0 1 0 2 2a2 2 0 0 0-2-2"/></symbol><symbol id="hd-icon-carbon-pentagon-down-outline" viewBox="0 0 32 32"><path fill="currentColor" d="M16 27.76L4.173 19.075L8.699 5H23.3l4.526 14.076zM16 30a1 1 0 0 0 .592-.194l13-9.544a1 1 0 0 0 .36-1.112l-4.97-15.456A1 1 0 0 0 24.03 3H7.97a1 1 0 0 0-.952.694L2.048 19.15a1 1 0 0 0 .36 1.112l13 9.544c.176.13.384.194.592.194"/></symbol><symbol id="hd-icon-carbon-pentagon-down-solid" viewBox="0 0 32 32"><path fill="currentColor" d="M16 30a1 1 0 0 0 .592-.194l13-9.544a1 1 0 0 0 .36-1.112l-4.97-15.456A1 1 0 0 0 24.03 3H7.97a1 1 0 0 0-.952.694L2.048 19.15a1 1 0 0 0 .36 1.112l13 9.544c.176.13.384.194.592.194"/></symbol><symbol id="hd-icon-carbon-pentagon-left-outline" viewBox="0 0 32 32"><path fill="currentColor" d="m4.24 16l8.684-11.827L27 8.699V23.3l-14.076 4.526zM2 16a1 1 0 0 0 .194.592l9.544 13a1 1 0 0 0 1.112.36l15.456-4.97A1 1 0 0 0 29 24.03V7.97a1 1 0 0 0-.694-.952L12.85 2.048a1 1 0 0 0-1.112.36l-9.544 13A1 1 0 0 0 2 16"/></symbol><symbol id="hd-icon-carbon-pentagon-left-solid" viewBox="0 0 32 32"><path fill="currentColor" d="M2 16a1 1 0 0 0 .194.592l9.544 13a1 1 0 0 0 1.112.36l15.456-4.97A1 1 0 0 0 29 24.03V7.97a1 1 0 0 0-.694-.952L12.85 2.048a1 1 0 0 0-1.112.36l-9.544 13A1 1 0 0 0 2 16"/></symbol><symbol id="hd-icon-carbon-pentagon-outline" viewBox="0 0 32 32"><path fill="currentColor" d="m16 4.24l11.827 8.684L23.301 27H8.7L4.173 12.924zM16 2a1 1 0 0 0-.592.194l-13 9.544a1 1 0 0 0-.36 1.112l4.97 15.456A1 1 0 0 0 7.97 29h16.06a1 1 0 0 0 .952-.694l4.97-15.456a1 1 0 0 0-.36-1.112l-13-9.544A1 1 0 0 0 16 2"/></symbol><symbol id="hd-icon-carbon-pentagon-right-outline" viewBox="0 0 32 32"><path fill="currentColor" d="m27.76 16l-8.684 11.827L5 23.301V8.7l14.076-4.526zM30 16a1 1 0 0 0-.194-.592l-9.544-13a1 1 0 0 0-1.112-.36L3.694 7.018A1 1 0 0 0 3 7.97v16.06a1 1 0 0 0 .694.952l15.456 4.97a1 1 0 0 0 1.112-.36l9.544-13A1 1 0 0 0 30 16"/></symbol><symbol id="hd-icon-carbon-pentagon-right-solid" viewBox="0 0 32 32"><path fill="currentColor" d="M30 16a1 1 0 0 0-.194-.592l-9.544-13a1 1 0 0 0-1.112-.36L3.694 7.018A1 1 0 0 0 3 7.97v16.06a1 1 0 0 0 .694.952l15.456 4.97a1 1 0 0 0 1.112-.36l9.544-13A1 1 0 0 0 30 16"/></symbol><symbol id="hd-icon-carbon-pentagon-solid" viewBox="0 0 32 32"><path fill="currentColor" d="M16 2a1 1 0 0 0-.592.194l-13 9.544a1 1 0 0 0-.36 1.112l4.97 15.456A1 1 0 0 0 7.97 29h16.06a1 1 0 0 0 .952-.694l4.97-15.456a1 1 0 0 0-.36-1.112l-13-9.544A1 1 0 0 0 16 2"/></symbol><symbol id="hd-icon-carbon-percentage" viewBox="0 0 32 32"><path fill="currentColor" d="M9 14a5 5 0 1 1 5-5a5.006 5.006 0 0 1-5 5m0-8a3 3 0 1 0 3 3a3.003 3.003 0 0 0-3-3M4 26.586L26.585 4L28 5.415L5.414 28zM23 28a5 5 0 1 1 5-5a5.006 5.006 0 0 1-5 5m0-8a3 3 0 1 0 3 3a3.003 3.003 0 0 0-3-3"/></symbol><symbol id="hd-icon-carbon-percentage-filled" viewBox="0 0 32 32"><path fill="currentColor" d="M9 14a5 5 0 1 1 5-5a5.006 5.006 0 0 1-5 5M4 26.586L26.585 4L28 5.415L5.414 28zM23 28a5 5 0 1 1 5-5a5.006 5.006 0 0 1-5 5"/></symbol><symbol id="hd-icon-carbon-perform-action" viewBox="0 0 32 32"><path fill="currentColor" d="M21 2H11c-5 0-9 4-9 9v10c0 5 4 9 9 9h10c5 0 9-4 9-9V11c0-5-4-9-9-9m7 19c0 3.9-3.1 7-7 7H11c-3.9 0-7-3.1-7-7V11c0-3.9 3.1-7 7-7h10c3.9 0 7 3.1 7 7zm-4-10h-6c-1.1 0-2 .9-2 2v6c0 1.1.9 2 2 2h6c1.1 0 2-.9 2-2v-6c0-1.1-.9-2-2-2m-6 8v-6h6v6zm-7-8l5 5l-5 5l-1.5-1.4l2.7-2.6H6v-2h6.2l-2.7-2.6z"/></symbol><symbol id="hd-icon-carbon-person" viewBox="0 0 32 32"><path fill="currentColor" d="M18 30h-4a2 2 0 0 1-2-2v-7a2 2 0 0 1-2-2v-6a3 3 0 0 1 3-3h6a3 3 0 0 1 3 3v6a2 2 0 0 1-2 2v7a2 2 0 0 1-2 2m-5-18a.94.94 0 0 0-1 1v6h2v9h4v-9h2v-6a.94.94 0 0 0-1-1Zm3-3a4 4 0 1 1 4-4a4 4 0 0 1-4 4m0-6a2 2 0 1 0 2 2a2 2 0 0 0-2-2"/></symbol><symbol id="hd-icon-carbon-person-favorite" viewBox="0 0 32 32"><path fill="currentColor" d="M10 31H6a2.006 2.006 0 0 1-2-2v-7a2.006 2.006 0 0 1-2-2v-6a2.947 2.947 0 0 1 3-3h6a2.947 2.947 0 0 1 3 3v6a2.006 2.006 0 0 1-2 2v7a2.006 2.006 0 0 1-2 2M5 13a.945.945 0 0 0-1 1v6h2v9h4v-9h2v-6a.945.945 0 0 0-1-1Zm3-3a4 4 0 1 1 4-4a4.005 4.005 0 0 1-4 4m0-6a2 2 0 1 0 2 2a2 2 0 0 0-2-2m20.766.256A4.21 4.21 0 0 0 23 4.032a4.21 4.21 0 0 0-5.766.224a4.32 4.32 0 0 0 0 6.044l5.764 5.84l.002-.002l.002.001l5.764-5.839a4.32 4.32 0 0 0 0-6.044m-1.424 4.639l-4.34 4.397L23 13.29l-.002.002l-4.34-4.397a2.31 2.31 0 0 1 0-3.234a2.264 2.264 0 0 1 3.156 0l1.181 1.207l.005-.005l.005.005l1.18-1.207a2.264 2.264 0 0 1 3.157 0a2.31 2.31 0 0 1 0 3.234"/></symbol><symbol id="hd-icon-carbon-pest" viewBox="0 0 32 32"><circle cx="7.5" cy="9.5" r="1.5" fill="currentColor"/><circle cx="13" cy="13" r="1" fill="currentColor"/><circle cx="22" cy="21" r="1" fill="currentColor"/><path fill="currentColor" d="M25 14a8.98 8.98 0 0 0-7 3.356V13a10.9 10.9 0 0 0-1.01-4.584l-.356-.777l-.823.231A3 3 0 0 1 15 8a3.003 3.003 0 0 1-3-3a3 3 0 0 1 .13-.81l.232-.824l-.777-.357A10.9 10.9 0 0 0 7 2H2v7a10.9 10.9 0 0 0 2.234 6.627l.389.428l.54-.038a5.53 5.53 0 0 1 5.362 3.256l.221.497l.538.084A11 11 0 0 0 13 20h3v10h2v-4h3a9.01 9.01 0 0 0 9-9v-3Zm-12.898 3.947A7.51 7.51 0 0 0 5.528 14A8.9 8.9 0 0 1 4 9V4h3a8.9 8.9 0 0 1 3.026.53A4 4 0 0 0 10 5a4.966 4.966 0 0 0 5.47 4.974A8.9 8.9 0 0 1 16 13v5h-3a8 8 0 0 1-.898-.053M28 17a7.01 7.01 0 0 1-7 7h-3v-1a7.01 7.01 0 0 1 5.021-6.71A1.497 1.497 0 1 0 26 16.5a1.5 1.5 0 0 0-.092-.5H28Z"/></symbol><symbol id="hd-icon-carbon-pet-image-b" viewBox="0 0 32 32"><defs/><path d="M19 21h2v3h-2z" fill="currentColor"/><path d="M19 0h2v3h-2z" fill="currentColor"/><path d="M8 11h3v2H8z" fill="currentColor"/><path d="M29 11h3v2h-3z" fill="currentColor"/><path transform="rotate(-45 12.586 4.577)" d="M11.59 3.07h1.98v3h-1.98z" fill="currentColor"/><path transform="rotate(-45 27.43 19.408)" d="M26.44 17.92h1.98v3h-1.98z" fill="currentColor"/><path transform="rotate(-45 12.592 19.414)" d="M11.09 18.42h3v1.98h-3z" fill="currentColor"/><path transform="rotate(-45 27.423 4.57)" d="M25.93 3.58h3v1.98h-3z" fill="currentColor"/><path d="M20 5a7 7 0 1 0 7 7a7 7 0 0 0-7-7zm0 12a5 5 0 0 1 0-10z" fill="currentColor"/><path d="M5 18H0v14h5a3 3 0 0 0 3-3v-2a3 3 0 0 0-.78-2A3 3 0 0 0 8 23v-2a3 3 0 0 0-3-3zm-3 2h3a1 1 0 0 1 1 1v2a1 1 0 0 1-1 1H2zm4 9a1 1 0 0 1-1 1H2v-4h3a1 1 0 0 1 1 1z" fill="currentColor"/><path d="M2 2h7V0H0v9h2V2z" fill="currentColor"/></symbol><symbol id="hd-icon-carbon-pet-image-o" viewBox="0 0 32 32"><path d="M11 29h2v3h-2z" fill="currentColor"/><path d="M11 8h2v3h-2z" fill="currentColor"/><path d="M0 19h3v2H0z" fill="currentColor"/><path d="M21 19h3v2h-3z" fill="currentColor"/><path d="M2.82 12.233l1.4-1.4l2.122 2.122l-1.4 1.4z" fill="currentColor"/><path d="M17.674 27.066l1.4-1.4l2.122 2.121l-1.4 1.4z" fill="currentColor"/><path d="M2.83 27.79l2.122-2.12l1.4 1.4l-2.121 2.121z" fill="currentColor"/><path d="M17.664 12.937l2.121-2.121l1.4 1.4l-2.121 2.121z" fill="currentColor"/><path d="M12 13a7 7 0 1 0 7 7a7 7 0 0 0-7-7zm0 12a5 5 0 0 1 0-10z" fill="currentColor"/><path d="M2 2h7V0H0v9h2V2z" fill="currentColor"/><path d="M30 0h-4a2 2 0 0 0-2 2v10a2 2 0 0 0 2 2h4a2 2 0 0 0 2-2V2a2 2 0 0 0-2-2zm-4 12V2h4v10z" fill="currentColor"/></symbol><symbol id="hd-icon-carbon-phone" viewBox="0 0 32 32"><path fill="currentColor" d="M26 29h-.17C6.18 27.87 3.39 11.29 3 6.23A3 3 0 0 1 5.76 3h5.51a2 2 0 0 1 1.86 1.26L14.65 8a2 2 0 0 1-.44 2.16l-2.13 2.15a9.37 9.37 0 0 0 7.58 7.6l2.17-2.15a2 2 0 0 1 2.17-.41l3.77 1.51A2 2 0 0 1 29 20.72V26a3 3 0 0 1-3 3M6 5a1 1 0 0 0-1 1v.08C5.46 12 8.41 26 25.94 27a1 1 0 0 0 1.06-.94v-5.34l-3.77-1.51l-2.87 2.85l-.48-.06c-8.7-1.09-9.88-9.79-9.88-9.88l-.06-.48l2.84-2.87L11.28 5Z"/></symbol><symbol id="hd-icon-carbon-phone-application" viewBox="0 0 32 32"><path fill="currentColor" d="M26 2h4v4h-4zm0 6h4v4h-4zm-6-6h4v4h-4zm0 6h4v4h-4zm5 22h-.17C5.18 28.87 2.39 12.29 2 7.23a3 3 0 0 1 2.761-3.221Q4.88 4 5 4h5.27a2 2 0 0 1 1.86 1.26L13.65 9a2 2 0 0 1-.44 2.16l-2.13 2.15a9.36 9.36 0 0 0 7.58 7.6l2.17-2.15a2 2 0 0 1 2.17-.41l3.77 1.51A2 2 0 0 1 28 21.72V27a3 3 0 0 1-3 3M5 6a1 1 0 0 0-1.003.997q0 .041.003.083C4.46 13 7.41 27 24.94 28a1 1 0 0 0 1.058-.938L26 27v-5.28l-3.77-1.51l-2.87 2.85l-.48-.06C10.18 21.91 9 13.21 9 13.12l-.06-.48l2.84-2.87L10.28 6Z"/></symbol><symbol id="hd-icon-carbon-phone-block" viewBox="0 0 32 32"><path fill="currentColor" d="M26 29h-.17C6.18 27.87 3.39 11.29 3 6.23a3 3 0 0 1 2.761-3.221Q5.88 3 6 3h5.27a2 2 0 0 1 1.86 1.26L14.65 8a2 2 0 0 1-.44 2.16l-2.13 2.15a9.36 9.36 0 0 0 7.58 7.6l2.17-2.15a2 2 0 0 1 2.17-.41l3.77 1.51A2 2 0 0 1 29 20.72V26a3 3 0 0 1-3 3M6 5a1 1 0 0 0-1.003.997q0 .042.003.083C5.46 12 8.41 26 25.94 27a1 1 0 0 0 1.058-.938L27 26v-5.28l-3.77-1.51l-2.87 2.85l-.48-.06c-8.7-1.09-9.88-9.79-9.88-9.88l-.06-.48l2.84-2.87L11.28 5Z"/><path fill="currentColor" d="M24.41 9L28 5.41L26.59 4L23 7.59L19.41 4L18 5.41L21.59 9L18 12.59L19.41 14L23 10.41L26.59 14L28 12.59z"/></symbol><symbol id="hd-icon-carbon-phone-block-filled" viewBox="0 0 32 32"><path fill="currentColor" d="m20.333 21.482l2.24-2.24a2.17 2.17 0 0 1 2.337-.48l2.728 1.092A2.17 2.17 0 0 1 29 21.866v4.961a2.167 2.167 0 0 1-2.284 2.169C7.594 27.806 3.732 11.61 3.015 5.408A2.162 2.162 0 0 1 5.169 3h4.873a2.17 2.17 0 0 1 2.012 1.362l1.091 2.728a2.17 2.17 0 0 1-.48 2.337l-2.24 2.24s1.242 8.732 9.908 9.815"/><path fill="currentColor" d="M24.41 9L28 5.41L26.59 4L23 7.59L19.41 4L18 5.41L21.59 9L18 12.59L19.41 14L23 10.41L26.59 14L28 12.59z"/></symbol><symbol id="hd-icon-carbon-phone-filled" viewBox="0 0 32 32"><path fill="currentColor" d="m20.33 21.48l2.24-2.24a2.19 2.19 0 0 1 2.34-.48l2.73 1.09a2.18 2.18 0 0 1 1.36 2v5A2.17 2.17 0 0 1 26.72 29C7.59 27.81 3.73 11.61 3 5.41A2.17 2.17 0 0 1 5.17 3H10a2.16 2.16 0 0 1 2 1.36l1.09 2.73a2.16 2.16 0 0 1-.47 2.34l-2.24 2.24s1.29 8.73 9.95 9.81"/></symbol><symbol id="hd-icon-carbon-phone-incoming" viewBox="0 0 32 32"><path fill="currentColor" d="M26 29h-.17C6.18 27.87 3.39 11.29 3 6.23a3 3 0 0 1 2.761-3.221Q5.88 3 6 3h5.27a2 2 0 0 1 1.86 1.26L14.65 8a2 2 0 0 1-.44 2.16l-2.13 2.15a9.36 9.36 0 0 0 7.58 7.6l2.17-2.15a2 2 0 0 1 2.17-.41l3.77 1.51A2 2 0 0 1 29 20.72V26a3 3 0 0 1-3 3M6 5a1 1 0 0 0-1.003.997q0 .042.003.083C5.46 12 8.41 26 25.94 27a1 1 0 0 0 1.058-.938L27 26v-5.28l-3.77-1.51l-2.87 2.85l-.48-.06c-8.7-1.09-9.88-9.79-9.88-9.88l-.06-.48l2.84-2.87L11.28 5Z"/><path fill="currentColor" d="M27 13v-2h-4.586L29 4.414L27.586 3L21 9.586V5h-2v8z"/></symbol><symbol id="hd-icon-carbon-phone-incoming-filled" viewBox="0 0 32 32"><path fill="currentColor" d="m20.333 21.482l2.24-2.24a2.17 2.17 0 0 1 2.337-.48l2.728 1.092A2.17 2.17 0 0 1 29 21.866v4.961a2.167 2.167 0 0 1-2.284 2.169C7.594 27.806 3.732 11.61 3.015 5.408A2.162 2.162 0 0 1 5.169 3h4.873a2.17 2.17 0 0 1 2.012 1.362l1.091 2.728a2.17 2.17 0 0 1-.48 2.337l-2.24 2.24s1.242 8.732 9.908 9.815"/><path fill="currentColor" d="M27 13v-2h-4.586L29 4.414L27.586 3L21 9.586V5h-2v8z"/></symbol><symbol id="hd-icon-carbon-phone-ip" viewBox="0 0 32 32"><path fill="currentColor" d="M16 14h2v2h-2zm4 0h2v2h-2zm4 0h2v2h-2zm-8 4h2v2h-2zm4 0h2v2h-2zm4 0h2v2h-2zm-8 4h2v2h-2zm4 0h2v2h-2zm4 0h2v2h-2zm-8-12h10v2H16z"/><path fill="currentColor" d="M28 6H14V5a2.003 2.003 0 0 0-2-2H8a2.003 2.003 0 0 0-2 2v1H4a2.003 2.003 0 0 0-2 2v18a2.003 2.003 0 0 0 2 2h24a2.003 2.003 0 0 0 2-2V8a2.003 2.003 0 0 0-2-2M8 5h4v17H8Zm20 21H4V8h2v14a2.003 2.003 0 0 0 2 2h4a2.003 2.003 0 0 0 2-2V8h14Z"/></symbol><symbol id="hd-icon-carbon-phone-off" viewBox="0 0 32 32"><path fill="currentColor" d="M9.19 18.56A25.66 25.66 0 0 1 5 6.08V6a1 1 0 0 1 1-1h5.28l1.5 3.77l-2.84 2.87l.06.48a13 13 0 0 0 1.46 4.17l1.46-1.46a9.3 9.3 0 0 1-.84-2.52l2.13-2.15A2 2 0 0 0 14.65 8l-1.52-3.74A2 2 0 0 0 11.27 3H5.76A3 3 0 0 0 3 6.23A28 28 0 0 0 7.79 20Zm18.58.3L24 17.35a2 2 0 0 0-2.17.41l-2.17 2.15A9.2 9.2 0 0 1 15.45 18L30 3.41L28.59 2L2 28.59L3.41 30l7-7c3.38 3.18 8.28 5.62 15.39 6h.2a3 3 0 0 0 3-3v-5.28a2 2 0 0 0-1.23-1.86M27 26v.06a1 1 0 0 1-1.06.94c-6.51-.37-11-2.54-14.11-5.42L14 19.44A10.77 10.77 0 0 0 19.88 22l.48.06l2.87-2.85L27 20.72Z"/></symbol><symbol id="hd-icon-carbon-phone-off-filled" viewBox="0 0 32 32"><path fill="currentColor" d="m26.74 19.56l-2.52-1a2 2 0 0 0-2.15.44L20 21.06a9.93 9.93 0 0 1-5.35-2.29L30 3.41L28.59 2L2 28.59L3.41 30l7.93-7.92c3.24 3.12 7.89 5.5 14.55 5.92A2 2 0 0 0 28 26v-4.59a2 2 0 0 0-1.26-1.85M8.15 18.19l3.52-3.52a11.7 11.7 0 0 1-.82-2.67l2.07-2.07a2 2 0 0 0 .44-2.15l-1-2.52A2 2 0 0 0 10.5 4H6a2 2 0 0 0-2 2.22a29 29 0 0 0 4.15 11.97"/></symbol><symbol id="hd-icon-carbon-phone-outgoing" viewBox="0 0 32 32"><path fill="currentColor" d="M26 29h-.2C6.2 27.9 3.4 11.3 3 6.2C2.9 4.6 4.1 3.1 5.8 3h5.5c.8 0 1.6.5 1.9 1.3L14.6 8c.3.7.1 1.6-.4 2.2l-2.1 2.1c.7 3.9 3.7 6.9 7.6 7.6l2.2-2.1c.6-.6 1.4-.7 2.2-.4l3.8 1.5c.7.3 1.2 1 1.2 1.9V26c-.1 1.7-1.4 3-3.1 3M6 5c-.6 0-1 .4-1 1v.1C5.5 12 8.4 26 25.9 27c.6 0 1-.4 1.1-.9v-5.4l-3.8-1.5l-2.9 2.9l-.4-.1c-8.7-1.1-9.9-9.8-9.9-9.9l-.1-.5l2.8-2.9L11.3 5z"/><path fill="currentColor" d="M20 4v2h4.6L18 12.6l1.4 1.4L26 7.4V12h2V4z"/></symbol><symbol id="hd-icon-carbon-phone-outgoing-filled" viewBox="0 0 32 32"><path fill="currentColor" d="m20.333 21.482l2.24-2.24a2.17 2.17 0 0 1 2.337-.48l2.728 1.092A2.17 2.17 0 0 1 29 21.866v4.961a2.167 2.167 0 0 1-2.284 2.169C7.594 27.806 3.732 11.61 3.015 5.408A2.162 2.162 0 0 1 5.169 3h4.873a2.17 2.17 0 0 1 2.012 1.362l1.091 2.728a2.17 2.17 0 0 1-.48 2.337l-2.24 2.24s1.242 8.732 9.908 9.815"/><path fill="currentColor" d="M20 4v2h4.586L18 12.586L19.414 14L26 7.414V12h2V4z"/></symbol><symbol id="hd-icon-carbon-phone-settings" viewBox="0 0 32 32"><path fill="currentColor" d="M30 10V8h-2.101a5 5 0 0 0-.732-1.753l1.49-1.49l-1.414-1.414l-1.49 1.49A5 5 0 0 0 24 4.101V2h-2v2.101a5 5 0 0 0-1.753.732l-1.49-1.49l-1.414 1.414l1.49 1.49A5 5 0 0 0 18.101 8H16v2h2.101a5 5 0 0 0 .732 1.753l-1.49 1.49l1.414 1.414l1.49-1.49a5 5 0 0 0 1.753.732V16h2v-2.101a5 5 0 0 0 1.753-.732l1.49 1.49l1.414-1.414l-1.49-1.49A5 5 0 0 0 27.899 10Zm-7 2a3 3 0 1 1 3-3a3.003 3.003 0 0 1-3 3"/><path fill="currentColor" d="M25 30h-.17C5.18 28.87 2.39 12.29 2 7.23a3 3 0 0 1 2.761-3.221Q4.88 4 5 4h5.27a2 2 0 0 1 1.86 1.26L13.65 9a2 2 0 0 1-.44 2.16l-2.13 2.15a9.36 9.36 0 0 0 7.58 7.6l2.17-2.15a2 2 0 0 1 2.17-.41l3.77 1.51A2 2 0 0 1 28 21.72V27a3 3 0 0 1-3 3M5 6a1 1 0 0 0-1.003.997q0 .041.003.083C4.46 13 7.41 27 24.94 28a1 1 0 0 0 1.058-.938L26 27v-5.28l-3.77-1.51l-2.87 2.85l-.48-.06C10.18 21.91 9 13.21 9 13.12l-.06-.48l2.84-2.87L10.28 6Z"/></symbol><symbol id="hd-icon-carbon-phone-voice" viewBox="0 0 32 32"><path fill="currentColor" d="M24 13h-2a3.003 3.003 0 0 0-3-3V8a5.006 5.006 0 0 1 5 5"/><path fill="currentColor" d="M28 13h-2a7.01 7.01 0 0 0-7-7V4a9.01 9.01 0 0 1 9 9m-2 16h-.17C6.18 27.87 3.39 11.29 3 6.23a3 3 0 0 1 2.761-3.221Q5.88 3 6 3h5.27a2 2 0 0 1 1.86 1.26L14.65 8a2 2 0 0 1-.44 2.16l-2.13 2.15a9.36 9.36 0 0 0 7.58 7.6l2.17-2.15a2 2 0 0 1 2.17-.41l3.77 1.51A2 2 0 0 1 29 20.72V26a3 3 0 0 1-3 3M6 5a1 1 0 0 0-1.003.997q0 .042.003.083C5.46 12 8.41 26 25.94 27a1 1 0 0 0 1.058-.938L27 26v-5.28l-3.77-1.51l-2.87 2.85l-.48-.06c-8.7-1.09-9.88-9.79-9.88-9.88l-.06-.48l2.84-2.87L11.28 5Z"/></symbol><symbol id="hd-icon-carbon-phone-voice-filled" viewBox="0 0 32 32"><path fill="currentColor" d="M24 13h-2a3.003 3.003 0 0 0-3-3V8a5.006 5.006 0 0 1 5 5"/><path fill="currentColor" d="M28 13h-2a7.01 7.01 0 0 0-7-7V4a9.01 9.01 0 0 1 9 9m-7.667 8.482l2.24-2.24a2.17 2.17 0 0 1 2.337-.48l2.728 1.092A2.17 2.17 0 0 1 29 21.866v4.961a2.167 2.167 0 0 1-2.284 2.169C7.594 27.806 3.732 11.61 3.015 5.408A2.162 2.162 0 0 1 5.169 3h4.873a2.17 2.17 0 0 1 2.012 1.362l1.091 2.728a2.17 2.17 0 0 1-.48 2.337l-2.24 2.24s1.242 8.732 9.908 9.815"/></symbol><symbol id="hd-icon-carbon-phrase-sentiment" viewBox="0 0 32 32"><path fill="currentColor" d="M18.303 10a2.66 2.66 0 0 0-1.908.806l-.393.405l-.397-.405a2.66 2.66 0 0 0-3.816 0a2.8 2.8 0 0 0 0 3.896L16.002 19l4.209-4.298a2.8 2.8 0 0 0 0-3.896A2.66 2.66 0 0 0 18.303 10"/><path fill="currentColor" d="M17.736 30L16 29l4-7h6a1.997 1.997 0 0 0 2-2V8a1.997 1.997 0 0 0-2-2H6a1.997 1.997 0 0 0-2 2v12a1.997 1.997 0 0 0 2 2h9v2H6a4 4 0 0 1-4-4V8a4 4 0 0 1 4-4h20a4 4 0 0 1 4 4v12a4 4 0 0 1-4 4h-4.835Z"/></symbol><symbol id="hd-icon-carbon-picnic-area" viewBox="0 0 32 32"><path fill="currentColor" d="M24 12a4 4 0 1 1 4-4a4.005 4.005 0 0 1-4 4m0-6a2 2 0 1 0 2 2a2 2 0 0 0-2-2m2 16h-4.153l-.667-4H24v-2H8v2h2.82l-.667 4H6v2h3.82l-.667 4h2.027l.667-4h8.305l.667 4h2.028l-.667-4H26Zm-13.82 0l.667-4h6.306l.666 4Z"/></symbol><symbol id="hd-icon-carbon-piggy-bank" viewBox="0 0 32 32"><path fill="currentColor" d="M16.5 14H20v-2h-2v-1h-2v1.05a2.5 2.5 0 0 0 .5 4.95h1a.5.5 0 0 1 0 1H14v2h2v1h2v-1.05a2.5 2.5 0 0 0-.5-4.95h-1a.5.5 0 0 1 0-1"/><path fill="currentColor" d="M29 13h-2.02A5.78 5.78 0 0 0 25 8.852V5a1 1 0 0 0-1.6-.8L19.667 7H15c-5.51 0-9.463 3.241-9.948 8H5a1 1 0 0 1-1-1v-2H2v2a3.003 3.003 0 0 0 3 3h.07A9.17 9.17 0 0 0 9 23.557V27a1 1 0 0 0 1 1h4a1 1 0 0 0 1-1v-2h3v2a1 1 0 0 0 1 1h4a1 1 0 0 0 1-1v-3.363A5.1 5.1 0 0 0 26.819 20H29a1 1 0 0 0 1-1v-5a1 1 0 0 0-1-1m-1 5h-2.876c-.305 2.753-.823 3.485-3.124 4.315V26h-2v-3h-7v3h-2v-3.622A7.01 7.01 0 0 1 7 16c0-4.835 4.018-7 8-7h5.334L23 7v2.776c2.418 1.86 1.913 3.186 2.018 5.224H28Z"/></symbol><symbol id="hd-icon-carbon-piggy-bank-slot" viewBox="0 0 32 32"><path fill="currentColor" d="M13 11h7v2h-7z"/><path fill="currentColor" d="M29 13h-2.02A5.78 5.78 0 0 0 25 8.852V5a1 1 0 0 0-1.6-.8L19.667 7H15c-5.51 0-9.463 3.241-9.948 8H5a1 1 0 0 1-1-1v-2H2v2a3.003 3.003 0 0 0 3 3h.07A9.17 9.17 0 0 0 9 23.557V27a1 1 0 0 0 1 1h4a1 1 0 0 0 1-1v-2h3v2a1 1 0 0 0 1 1h4a1 1 0 0 0 1-1v-3.363A5.1 5.1 0 0 0 26.819 20H29a1 1 0 0 0 1-1v-5a1 1 0 0 0-1-1m-1 5h-2.876c-.305 2.753-.823 3.485-3.124 4.315V26h-2v-3h-7v3h-2v-3.622A7.01 7.01 0 0 1 7 16c0-4.835 4.018-7 8-7h5.334L23 7v2.776c2.418 1.86 1.913 3.186 2.018 5.224H28Z"/></symbol><symbol id="hd-icon-carbon-pills" viewBox="0 0 32 32"><path fill="currentColor" d="M22 14a7.94 7.94 0 0 0-4 1.083V9A7 7 0 0 0 4 9v14a6.999 6.999 0 0 0 12.286 4.588A7.997 7.997 0 1 0 22 14m0 2a6.005 6.005 0 0 1 5.91 5H16.09A6.005 6.005 0 0 1 22 16M6 9a5 5 0 0 1 10 0v6H6Zm5 19a5.006 5.006 0 0 1-5-5v-6h9.765a7.96 7.96 0 0 0-.724 8.932A4.99 4.99 0 0 1 11 28m11 0a6.005 6.005 0 0 1-5.91-5h11.82A6.005 6.005 0 0 1 22 28"/></symbol><symbol id="hd-icon-carbon-pills-add" viewBox="0 0 32 32"><path fill="currentColor" d="M22 14a7.94 7.94 0 0 0-4 1.083V9A7 7 0 0 0 4 9v14a6.986 6.986 0 0 0 12.276 4.577A7.997 7.997 0 1 0 22 14M11 4a5.006 5.006 0 0 1 5 5v6H6V9a5.006 5.006 0 0 1 5-5m0 24a5.006 5.006 0 0 1-5-5v-6h9.765a7.96 7.96 0 0 0-.724 8.932A5.01 5.01 0 0 1 11 28m11 0a6 6 0 1 1 6-6a6.007 6.007 0 0 1-6 6"/><path fill="currentColor" d="M25 21h-2v-2h-2v2h-2v2h2v2h2v-2h2z"/></symbol><symbol id="hd-icon-carbon-pills-subtract" viewBox="0 0 32 32"><path fill="currentColor" d="M22 14a7.94 7.94 0 0 0-4 1.083V9A7 7 0 0 0 4 9v14a6.986 6.986 0 0 0 12.276 4.577A7.997 7.997 0 1 0 22 14M11 4a5.006 5.006 0 0 1 5 5v6H6V9a5.006 5.006 0 0 1 5-5m0 24a5.006 5.006 0 0 1-5-5v-6h9.765a7.96 7.96 0 0 0-.724 8.932A5.01 5.01 0 0 1 11 28m11 0a6 6 0 1 1 6-6a6.007 6.007 0 0 1-6 6"/><path fill="currentColor" d="M19 21h6v2h-6z"/></symbol><symbol id="hd-icon-carbon-pin" viewBox="0 0 32 32"><path fill="currentColor" d="M28.59 13.31L30 11.9L20 2l-1.31 1.42l1.18 1.18l-11.49 9.72l-1.72-1.71L5.25 14l5.66 5.68L2 28.58L3.41 30l8.91-8.91L18 26.75l1.39-1.42l-1.71-1.71l9.72-11.49ZM16.26 22.2L9.8 15.74L21.29 6L26 10.71Z"/></symbol><symbol id="hd-icon-carbon-pin-filled" viewBox="0 0 32 32"><path fill="currentColor" d="M28.586 13.314L30 11.9L20 2l-1.314 1.415l1.186 1.186L8.38 14.322l-1.716-1.715L5.25 14l5.657 5.677L2 28.583L3.41 30l8.911-8.909L18 26.748l1.393-1.414l-1.716-1.716l9.724-11.49Z"/></symbol><symbol id="hd-icon-carbon-pipelines" viewBox="0 0 32 32"><path fill="currentColor" d="M22 12h6c1.103 0 2-.897 2-2V4c0-1.102-.897-2-2-2h-6c-1.103 0-2 .898-2 2v2h-9c-2.757 0-5 2.243-5 5H4c-1.103 0-2 .898-2 2v6c0 1.103.897 2 2 2h2c0 2.757 2.243 5 5 5h9v2c0 1.103.897 2 2 2h6c1.103 0 2-.897 2-2v-6c0-1.102-.897-2-2-2h-6c-1.103 0-2 .898-2 2v2h-9c-1.654 0-3-1.346-3-3h2c1.103 0 2-.897 2-2v-6c0-1.102-.897-2-2-2H8c0-1.654 1.346-3 3-3h9v2c0 1.103.897 2 2 2m0 10h6v6h-6l-.001-6zm-12-9v6H4l-.001-6zm12-9h6v6h-6l-.001-6z"/></symbol><symbol id="hd-icon-carbon-pivot-horizontal" viewBox="0 0 32 32"><path fill="currentColor" d="M28.1 2H3.9C2.8 2 2 2.9 2 3.9v24.2c0 1.1.9 1.9 1.9 1.9h24.2c1.1 0 1.9-.9 1.9-1.9V3.9c0-1.1-.9-1.9-1.9-1.9M28 28H4V8h24zm0-22H4V4h24zm-6 13l-1.4 1.4l-2.6-2.6V24c0 1.1-.9 2-2 2h-6v-2h6v-6.2l-2.6 2.6L12 19l5-5zM8 12v-2h16v2z"/></symbol><symbol id="hd-icon-carbon-pivot-vertical" viewBox="0 0 32 32"><path fill="currentColor" d="M28 2H4c-1.1 0-2 .9-2 2v24c0 1.1.9 2 2 2h24c1.1 0 2-.9 2-2V4c0-1.1-.9-2-2-2m0 26H4V8h24zm0-22H4V4h24zm-6 4h2v16h-2zm-7 4l5 5l-5 5l-1.4-1.4l2.6-2.6H10c-1.1 0-2-.9-2-2v-6h2v6h6.2l-2.6-2.6z"/></symbol><symbol id="hd-icon-carbon-plan" viewBox="0 0 32 32"><path fill="currentColor" d="M31 8c0-.4-.2-.7-.5-.9l-7-4c-.2-.1-.3-.1-.5-.1s-.3 0-.5.1L16 6.8L9.5 3.1C9.3 3 9.2 3 9 3s-.3 0-.5.1l-7 4c-.3.2-.5.5-.5.9v20c0 .6.4 1 1 1c.2 0 .3-.1.5-.1L9 25.2l6.5 3.7c.2.1.3.1.5.1s.3 0 .5-.1l6.5-3.7l6.5 3.7c.1.1.3.1.5.1c.6 0 1-.4 1-1zM3 8.6l5-2.9v17.7l-5 2.9zm12 17.7l-5-2.9V5.7l5 2.9zm7-2.9l-5 2.9V8.6l5-2.9zm2 0V5.7l5 2.9v17.7z"/></symbol><symbol id="hd-icon-carbon-plane" viewBox="0 0 32 32"><path fill="currentColor" d="M29.37 14.75L20 10V6a4 4 0 0 0-8 0v4l-9.37 4.75a1 1 0 0 0-.63.93v5a1 1 0 0 0 1 1a1 1 0 0 0 .29-.05L12 18v5l-3.45 1.72a1 1 0 0 0-.55.9V29a1 1 0 0 0 1 1a.9.9 0 0 0 .28 0L16 28l6.72 2a.9.9 0 0 0 .28 0a1 1 0 0 0 1-1v-3.38a1 1 0 0 0-.55-.9L20 23v-5l8.71 3.61a1 1 0 0 0 .29.05a1 1 0 0 0 1-1v-5a1 1 0 0 0-.63-.91M28 19.15L18 15v9.24l4 2v1.43l-6-1.75l-6 1.75v-1.43l4-2V15L4 19.15V16.3l10-5.07V6a2 2 0 0 1 4 0v5.23l10 5.07Z"/></symbol><symbol id="hd-icon-carbon-plane-private" viewBox="0 0 32 32"><path fill="currentColor" d="m28.585 14.585l-3.12-1.872A5 5 0 0 0 22.891 12H7.781L7.16 9.515A2 2 0 0 0 5.22 8H4a2 2 0 0 0-2 2v7a3.003 3.003 0 0 0 3 3h7v6a2 2 0 0 0 2 2h1.307a2.01 2.01 0 0 0 1.873-1.298L19.693 20h7.392a2.915 2.915 0 0 0 1.5-5.415M27.085 18h-8.778l-3 8H14v-8H5a1 1 0 0 1-1-1v-7h1.22l1 4H10v2h2v-2h3v2h2v-2h3v2h2v-2h.892a3 3 0 0 1 1.543.428l3.12 1.872a.915.915 0 0 1-.47 1.7"/><path fill="currentColor" d="M14 4h1.323l2.4 6h2.154L17.18 3.257A1.99 1.99 0 0 0 15.323 2H14a2 2 0 0 0-2 2v6h2Z"/></symbol><symbol id="hd-icon-carbon-plane-sea" viewBox="0 0 32 32"><path fill="currentColor" d="M30 30h-2a4.93 4.93 0 0 1-4-1.987a5.02 5.02 0 0 1-8 0a5.02 5.02 0 0 1-8 0A4.93 4.93 0 0 1 4 30H2v-2h2a3.44 3.44 0 0 0 3.053-2.321A.97.97 0 0 1 8 25a1.01 1.01 0 0 1 .949.684A3.44 3.44 0 0 0 12 28a3.44 3.44 0 0 0 3.053-2.321A.99.99 0 0 1 16 25a1.01 1.01 0 0 1 .949.684A3.44 3.44 0 0 0 20 28a3.44 3.44 0 0 0 3.053-2.321a1 1 0 0 1 1.896.005A3.44 3.44 0 0 0 28 28h2ZM28 6v4h-2.5l-2.1-2.8A3.01 3.01 0 0 0 21 6h-6a3.003 3.003 0 0 0-3 3v1H8.618l-.724-1.447l-1-2A1 1 0 0 0 6 6H3a1 1 0 0 0-1 1v6a3.003 3.003 0 0 0 3 3h6.82l-.667 4H7a1 1 0 0 0 0 2h20a1 1 0 0 0 0-2h-4.153l-.667-4h.163a4.97 4.97 0 0 0 3.535-1.465L28 12.415V16h2V6ZM14 9a1 1 0 0 1 1-1h6a1 1 0 0 1 .8.4L23 10h-9Zm6.82 11h-7.64l.667-4h6.306Zm1.524-6H5a1 1 0 0 1-1-1V8h1.382l.724 1.447L7.382 12h18.204l-1.122 1.121a2.98 2.98 0 0 1-2.12.879"/></symbol><symbol id="hd-icon-carbon-platform-automation" viewBox="0 0 32 32"><path fill="currentColor" d="M5 25v-9.172l-3.586 3.586L0 18l6-6l6 6l-1.414 1.414L7 15.828V25h12v2H7a2 2 0 0 1-2-2m19-3h4a2 2 0 0 1 2 2v4a2 2 0 0 1-2 2h-4a2 2 0 0 1-2-2v-4a2 2 0 0 1 2-2m4 6v-4h-4.001L24 28ZM27 6v9.172l3.586-3.586L32 13l-6 6l-6-6l1.414-1.414L25 15.172V6H13V4h12a2 2 0 0 1 2 2M2 6h6v2H2zm0-4h8v2H2z"/></symbol><symbol id="hd-icon-carbon-platforms" viewBox="0 0 32 32"><path fill="currentColor" d="M28 28H4c-1.103 0-2-.897-2-2v-6h2v6h24v-6h2v6c0 1.103-.897 2-2 2"/><path fill="currentColor" d="M17 17v4a1 1 0 0 0 1 1h4a1 1 0 0 0 1-1v-4a1 1 0 0 0-1-1h-4a1 1 0 0 0-1 1m2 1h2v2h-2zM9 17v4a1 1 0 0 0 1 1h4a1 1 0 0 0 1-1v-4a1 1 0 0 0-1-1h-4a1 1 0 0 0-1 1m2 1h2v2h-2zm6-9v4a1 1 0 0 0 1 1h4a1 1 0 0 0 1-1V9a1 1 0 0 0-1-1h-4a1 1 0 0 0-1 1m2 1h2v2h-2zM5 5v8a1 1 0 0 0 1 1h8a1 1 0 0 0 1-1V5a1 1 0 0 0-1-1H6a1 1 0 0 0-1 1m2 1h6v6H7z"/></symbol><symbol id="hd-icon-carbon-play" viewBox="0 0 32 32"><path fill="currentColor" d="M7 28a1 1 0 0 1-1-1V5a1 1 0 0 1 1.482-.876l20 11a1 1 0 0 1 0 1.752l-20 11A1 1 0 0 1 7 28M8 6.69v18.62L24.925 16Z"/></symbol><symbol id="hd-icon-carbon-play-filled" viewBox="0 0 32 32"><path fill="none" d="M11 23a1 1 0 0 1-1-1V10a1 1 0 0 1 1.447-.894l12 6a1 1 0 0 1 0 1.788l-12 6A1 1 0 0 1 11 23"/><path fill="currentColor" d="M16 2a14 14 0 1 0 14 14A14 14 0 0 0 16 2m7.447 14.895l-12 6A1 1 0 0 1 10 22V10a1 1 0 0 1 1.447-.894l12 6a1 1 0 0 1 0 1.788"/></symbol><symbol id="hd-icon-carbon-play-filled-alt" viewBox="0 0 32 32"><path fill="currentColor" d="M7 28a1 1 0 0 1-1-1V5a1 1 0 0 1 1.482-.876l20 11a1 1 0 0 1 0 1.752l-20 11A1 1 0 0 1 7 28"/></symbol><symbol id="hd-icon-carbon-play-outline" viewBox="0 0 32 32"><path fill="currentColor" d="M11 23a1 1 0 0 1-1-1V10a1 1 0 0 1 1.447-.894l12 6a1 1 0 0 1 0 1.788l-12 6A1 1 0 0 1 11 23m1-11.382v8.764L20.764 16Z"/><path fill="currentColor" d="M16 4A12 12 0 1 1 4 16A12 12 0 0 1 16 4m0-2a14 14 0 1 0 14 14A14 14 0 0 0 16 2"/></symbol><symbol id="hd-icon-carbon-play-outline-filled" viewBox="0 0 32 32"><path fill="none" d="M11 23a1 1 0 0 1-1-1V10a1 1 0 0 1 1.447-.894l12 6a1 1 0 0 1 0 1.788l-12 6A1 1 0 0 1 11 23m1-11.382v8.764L20.764 16Z"/><path fill="currentColor" d="M12 20.382L20.764 16L12 11.618z"/><path fill="currentColor" d="M16 2a14 14 0 1 0 14 14A14 14 0 0 0 16 2m7.447 14.895l-12 6A1 1 0 0 1 10 22V10a1 1 0 0 1 1.447-.894l12 6a1 1 0 0 1 0 1.788"/></symbol><symbol id="hd-icon-carbon-playlist" viewBox="0 0 32 32"><path fill="currentColor" d="M4 6h18v2H4zm0 6h18v2H4zm0 6h12v2H4zm17 0l7 5l-7 5z"/></symbol><symbol id="hd-icon-carbon-pli" viewBox="0 0 32 32"><path fill="currentColor" d="M22 9h8v2h-3v10h3v2h-8v-2h3V11h-3zm-8 12V9h-2v14h8v-2zM4 18h4c1.103 0 2-.897 2-2v-5c0-1.103-.897-2-2-2H2v14h2zm0-7.001h4V16H4z"/></symbol><symbol id="hd-icon-carbon-plug" viewBox="0 0 32 32"><path fill="currentColor" d="M22 8h-1V2h-2v6h-6V2h-2v6h-1a2 2 0 0 0-2 2v6a8.01 8.01 0 0 0 7 7.93V30h2v-6.07A8.01 8.01 0 0 0 24 16v-6a2 2 0 0 0-2-2m0 8a6 6 0 0 1-12 0v-6h12Z"/></symbol><symbol id="hd-icon-carbon-plug-filled" viewBox="0 0 32 32"><path fill="currentColor" d="M22 8h-1V2h-2v6h-6V2h-2v6h-1a2 2 0 0 0-2 2v6a8.01 8.01 0 0 0 7 7.93V30h2v-6.07A8.01 8.01 0 0 0 24 16v-6a2 2 0 0 0-2-2"/></symbol><symbol id="hd-icon-carbon-png" viewBox="0 0 32 32"><path fill="currentColor" d="M30 23h-6a2 2 0 0 1-2-2V11a2 2 0 0 1 2-2h6v2h-6v10h4v-4h-2v-2h4Zm-12-4L14.32 9H12v14h2V13l3.68 10H20V9h-2zM4 23H2V9h6a2 2 0 0 1 2 2v5a2 2 0 0 1-2 2H4Zm0-7h4v-5H4Z"/></symbol><symbol id="hd-icon-carbon-point" viewBox="0 0 32 32"><path fill="currentColor" d="M25 13a2.94 2.94 0 0 0-1.469.4a3 3 0 0 0-2.529-1.4a2.94 2.94 0 0 0-1.47.4a3 3 0 0 0-3.529-1.22V6a3 3 0 1 0-5.998 0v11.1l-2.23-1.52A2.93 2.93 0 0 0 6.007 15a3 3 0 0 0-2.119 5.13l7.998 7.3A6.16 6.16 0 0 0 16.003 29h4.999A7 7 0 0 0 28 22v-6a3 3 0 0 0-3-3m1 9a5 5 0 0 1-4.998 5h-4.998a4.17 4.17 0 0 1-2.76-1l-7.947-7.3a1 1 0 0 1-.29-.7a1 1 0 0 1 1.6-.8l5.398 3.7V6a1 1 0 1 1 2 0v11h1.999v-3a1 1 0 1 1 1.999 0v3h2v-2a1 1 0 1 1 1.999 0v2h2v-1A1 1 0 1 1 26 16z"/></symbol><symbol id="hd-icon-carbon-point-of-presence" viewBox="0 0 32 32"><path fill="currentColor" d="M28 30H18a2 2 0 0 1-2-2V18a2 2 0 0 1 2-2h2v2h-2v10h10V18h-2v-2h2a2 2 0 0 1 2 2v10a2 2 0 0 1-2 2M14 16H4a2 2 0 0 1-2-2V4a2 2 0 0 1 2-2h10a2 2 0 0 1 2 2v2h-2V4H4v10h10v-2h2v2a2 2 0 0 1-2 2"/><path fill="currentColor" d="M26 9a2.993 2.993 0 0 0-5.816-1H9v2h11.184A3 3 0 0 0 22 11.815V23h2V11.816A3 3 0 0 0 26 9m-3 1a1 1 0 1 1 1-1a1 1 0 0 1-1 1"/></symbol><symbol id="hd-icon-carbon-pointer-text" viewBox="0 0 32 32"><path d="M13.71 12.29L7.41 6H13V4H4v9h2V7.41l6.29 6.3l1.42-1.42z" fill="currentColor"/><path d="M28 30H12a2 2 0 0 1-2-2V18h2v10h16V12H18v-2h10a2 2 0 0 1 2 2v16a2 2 0 0 1-2 2z" fill="currentColor"/><path d="M22 15h-5v2h5v2h-4a2 2 0 0 0-2 2v2a2 2 0 0 0 2 2h6v-8a2 2 0 0 0-2-2zm0 8h-4v-2h4z" fill="currentColor"/></symbol><symbol id="hd-icon-carbon-police" viewBox="0 0 32 32"><path fill="currentColor" d="M10 24h2v6h-2z"/><path fill="currentColor" d="M21 20H7a3.003 3.003 0 0 1-3-3V6H2v11a5.006 5.006 0 0 0 5 5h14a4.9 4.9 0 0 1 2.105.481L17 28.586L18.414 30l6.307-6.307A4.96 4.96 0 0 1 26 27v3h2v-3a7.01 7.01 0 0 0-7-7"/><path fill="currentColor" d="m25.275 4.039l-7-2a1 1 0 0 0-.55 0l-7 2a1 1 0 0 0-.695 1.203L11 9.123V11a7 7 0 1 0 14 0V9.123l.97-3.88a1 1 0 0 0-.695-1.204M18 4.04l5.795 1.656L23.22 8H19V6h-2v2h-4.219l-.576-2.304ZM18 16a5.006 5.006 0 0 1-5-5v-1h10v1a5.006 5.006 0 0 1-5 5"/></symbol><symbol id="hd-icon-carbon-policy" viewBox="0 0 32 32"><path fill="currentColor" d="M30 18a6 6 0 1 0-10 4.46V30l4-1.893L28 30v-7.54A5.98 5.98 0 0 0 30 18m-4 8.84l-2-.947l-2 .947v-3.19a5.9 5.9 0 0 0 4 0ZM24 22a4 4 0 1 1 4-4a4.005 4.005 0 0 1-4 4M9 14h7v2H9zm0-6h10v2H9z"/><path fill="currentColor" d="M6 30a2 2 0 0 1-2-2V4a2 2 0 0 1 2-2h16a2 2 0 0 1 2 2v4h-2V4H6v24h10v2Z"/></symbol><symbol id="hd-icon-carbon-pop-in" viewBox="0 0 32 32"><path fill="currentColor" d="M26 28H6c-1.102 0-2-.897-2-2V6c0-1.102.898-2 2-2h8v2H6v20h20v-8.027h2V26c0 1.103-.897 2-2 2m2-14v-2l-6.586-.027L30 3.388l-1.414-1.415L20 10.56V4h-2v10l10-.027z"/></symbol><symbol id="hd-icon-carbon-popup" viewBox="0 0 32 32"><path fill="currentColor" d="M28 4H10a2.006 2.006 0 0 0-2 2v14a2.006 2.006 0 0 0 2 2h18a2.006 2.006 0 0 0 2-2V6a2.006 2.006 0 0 0-2-2m0 16H10V6h18Z"/><path fill="currentColor" d="M18 26H4V16h2v-2H4a2.006 2.006 0 0 0-2 2v10a2.006 2.006 0 0 0 2 2h14a2.006 2.006 0 0 0 2-2v-2h-2Z"/></symbol><symbol id="hd-icon-carbon-port-definition" viewBox="0 0 32 32"><path fill="currentColor" d="M19 7V3.6A1.6 1.6 0 0 0 17.4 2H4v2h13v3h-6a2 2 0 0 0-2 2v14a2 2 0 0 0 2 2h6v3H4v2h13.4a1.6 1.6 0 0 0 1.6-1.6V25h6a2 2 0 0 0 2-2V9a2 2 0 0 0-2-2zm6 16H11V9h14z"/></symbol><symbol id="hd-icon-carbon-port-input" viewBox="0 0 32 32"><path fill="currentColor" d="M18 28c-3.593 0-6.967-1.59-9.257-4.363l1.542-1.274A9.98 9.98 0 0 0 18 26c5.514 0 10-4.486 10-10S23.514 6 18 6a9.98 9.98 0 0 0-7.715 3.637L8.743 8.363A11.97 11.97 0 0 1 18 4c6.617 0 12 5.383 12 12s-5.383 12-12 12"/><path fill="currentColor" d="m23 16l-7-7l-1.414 1.414L19.172 15H2v2h17.172l-4.586 4.586L16 23z"/></symbol><symbol id="hd-icon-carbon-port-output" viewBox="0 0 32 32"><path fill="currentColor" d="m30 16l-7-7l-1.414 1.414L26.172 15H9v2h17.172l-4.586 4.586L23 23z"/><path fill="currentColor" d="M14 28C7.383 28 2 22.617 2 16S7.383 4 14 4c2.335 0 4.599.671 6.546 1.941l-1.092 1.676A9.96 9.96 0 0 0 14 6C8.486 6 4 10.486 4 16s4.486 10 10 10a9.96 9.96 0 0 0 5.454-1.617l1.092 1.676A11.95 11.95 0 0 1 14 28"/></symbol><symbol id="hd-icon-carbon-port-usage" viewBox="0 0 32 32"><path fill="currentColor" d="M21 7h-2V3.6c0-.9-.7-1.6-1.6-1.6H4v2h13v3h-2c-3.3 0-6 2.7-6 6v6c0 3.3 2.7 6 6 6h2v3H4v2h13.4c.9 0 1.6-.7 1.6-1.6V25h2c3.3 0 6-2.7 6-6v-6c0-3.3-2.7-6-6-6m4 12c0 2.2-1.8 4-4 4h-6c-2.2 0-4-1.8-4-4v-6c0-2.2 1.8-4 4-4h6c2.2 0 4 1.8 4 4z"/></symbol><symbol id="hd-icon-carbon-portfolio" viewBox="0 0 32 32"><path fill="currentColor" d="M28 10h-6V6a2 2 0 0 0-2-2h-8a2 2 0 0 0-2 2v4H4a2 2 0 0 0-2 2v14a2 2 0 0 0 2 2h24a2 2 0 0 0 2-2V12a2 2 0 0 0-2-2M12 6h8v4h-8ZM4 26V12h24v14Z"/></symbol><symbol id="hd-icon-carbon-power" viewBox="0 0 32 32"><path fill="currentColor" d="m22.5 5.74l-1 1.73a11 11 0 1 1-11 0l-1-1.73a13 13 0 1 0 13 0"/><path fill="currentColor" d="M15 2h2v14h-2z"/></symbol><symbol id="hd-icon-carbon-power-enterprise-pools-metered-capacity-integration" viewBox="0 0 32 32"><path fill="currentColor" d="M16.017 29.994c-7.709 0-13.987-6.265-14-13.976a13.9 13.9 0 0 1 4.086-9.905L7.52 7.525a11.92 11.92 0 0 0-3.503 8.49a11.92 11.92 0 0 0 3.53 8.479a11.92 11.92 0 0 0 8.47 3.5h.02a11.8 11.8 0 0 0 3.88-.652l.662 1.888a13.8 13.8 0 0 1-4.538.764z"/><path fill="currentColor" d="M15 16h2v4h2a2 2 0 0 1 2 2v3h-2v-3h-2v3h-2v-3h-2v3h-2v-3a2 2 0 0 1 2-2h2zm8 10a1 1 0 1 1 0 2a1 1 0 1 1 0-2M9 4a1 1 0 1 1 0 2a1 1 0 1 1 0-2"/><path fill="currentColor" d="M20.92 10.106C20.498 7.774 18.452 6 16 6s-4.498 1.774-4.92 4.106A4.01 4.01 0 0 0 8 14c0 2.206 1.794 4 4 4h1v-2h-1c-1.103 0-2-.897-2-2s.897-2 2-2h1v-1c0-1.654 1.346-3 3-3s3 1.346 3 3v1h1c1.103 0 2 .898 2 2s-.897 2-2 2h-1v2h1c2.206 0 4-1.794 4-4a4.01 4.01 0 0 0-3.08-3.894"/><path fill="currentColor" d="m25.9 25.889l-1.414-1.415a11.92 11.92 0 0 0 3.517-8.483c0-6.616-5.383-12-12-12c-1.35 0-2.655.217-3.881.644l-.658-1.888a13.8 13.8 0 0 1 4.539-.756c7.72 0 14 6.28 14 14c0 3.737-1.457 7.251-4.103 9.897Z"/></symbol></svg>