<svg xmlns="http://www.w3.org/2000/svg" xmlns:xlink="http://www.w3.org/1999/xlink"><symbol id="hd-icon-flowbite-profile-card-solid" viewBox="0 0 24 24"><path fill="currentColor" fill-rule="evenodd" d="M4 4a2 2 0 0 0-2 2v12a2 2 0 0 0 2 2h16a2 2 0 0 0 2-2V6a2 2 0 0 0-2-2zm10 5a1 1 0 0 1 1-1h3a1 1 0 1 1 0 2h-3a1 1 0 0 1-1-1m0 3a1 1 0 0 1 1-1h3a1 1 0 1 1 0 2h-3a1 1 0 0 1-1-1m0 3a1 1 0 0 1 1-1h3a1 1 0 1 1 0 2h-3a1 1 0 0 1-1-1m-8-5a3 3 0 1 1 6 0a3 3 0 0 1-6 0m1.942 4a3 3 0 0 0-2.847 2.051l-.044.133l-.004.012c-.042.126-.055.167-.042.195c.006.013.02.023.038.039c.032.025.08.064.146.155A1 1 0 0 0 6 17h6a1 1 0 0 0 .811-.415a.7.7 0 0 1 .146-.155c.019-.016.031-.026.038-.04c.014-.027 0-.068-.042-.194l-.004-.012l-.044-.133A3 3 0 0 0 10.059 14z" clip-rule="evenodd"/></symbol><symbol id="hd-icon-flowbite-qr-code-outline" viewBox="0 0 24 24"><g fill="none" stroke="currentColor" stroke-linejoin="round" stroke-width="2"><path d="M4 4h6v6H4zm10 10h6v6h-6zm0-10h6v6h-6zm-4 10h.01v.01H10zm0 4h.01v.01H10zm-3 2h.01v.01H7zm0-4h.01v.01H7zm-3 2h.01v.01H4zm0-4h.01v.01H4z"/><path d="M7 7h.01v.01H7zm10 10h.01v.01H17z"/></g></symbol><symbol id="hd-icon-flowbite-question-circle-outline" viewBox="0 0 24 24"><path fill="none" stroke="currentColor" stroke-linecap="round" stroke-linejoin="round" stroke-width="2" d="M9.529 9.988a2.502 2.502 0 1 1 5 .191A2.44 2.44 0 0 1 12 12.582V14m-.01 3.008H12M21 12a9 9 0 1 1-18 0a9 9 0 0 1 18 0"/></symbol><symbol id="hd-icon-flowbite-question-circle-solid" viewBox="0 0 24 24"><path fill="currentColor" fill-rule="evenodd" d="M2 12C2 6.477 6.477 2 12 2s10 4.477 10 10s-4.477 10-10 10S2 17.523 2 12m9.008-3.018a1.502 1.502 0 0 1 2.522 1.159v.024a1.44 1.44 0 0 1-1.493 1.418a1 1 0 0 0-1.037.999V14a1 1 0 1 0 2 0v-.539a3.44 3.44 0 0 0 2.529-3.256a3.502 3.502 0 0 0-7-.255a1 1 0 0 0 2 .076c.014-.398.187-.774.48-1.044Zm.982 7.026a1 1 0 1 0 0 2H12a1 1 0 1 0 0-2z" clip-rule="evenodd"/></symbol><symbol id="hd-icon-flowbite-quote-outline" viewBox="0 0 24 24"><path fill="none" stroke="currentColor" stroke-linecap="round" stroke-linejoin="round" stroke-width="2" d="M10 11V8a1 1 0 0 0-1-1H6a1 1 0 0 0-1 1v3a1 1 0 0 0 1 1h3a1 1 0 0 0 1-1m0 0v2a4 4 0 0 1-4 4H5m14-6V8a1 1 0 0 0-1-1h-3a1 1 0 0 0-1 1v3a1 1 0 0 0 1 1h3a1 1 0 0 0 1-1m0 0v2a4 4 0 0 1-4 4h-1"/></symbol><symbol id="hd-icon-flowbite-quote-solid" viewBox="0 0 24 24"><path fill="currentColor" fill-rule="evenodd" d="M6 6a2 2 0 0 0-2 2v3a2 2 0 0 0 2 2h3a3 3 0 0 1-3 3H5a1 1 0 1 0 0 2h1a5 5 0 0 0 5-5V8a2 2 0 0 0-2-2zm9 0a2 2 0 0 0-2 2v3a2 2 0 0 0 2 2h3a3 3 0 0 1-3 3h-1a1 1 0 1 0 0 2h1a5 5 0 0 0 5-5V8a2 2 0 0 0-2-2z" clip-rule="evenodd"/></symbol><symbol id="hd-icon-flowbite-react-solid" viewBox="0 0 24 24"><g fill="currentColor"><path d="M21.718 12c0-1.429-1.339-2.681-3.467-3.5c.029-.18.077-.37.1-.545c.217-2.058-.273-3.543-1.379-4.182c-1.235-.714-2.983-.186-4.751 1.239C10.45 3.589 8.7 3.061 7.468 3.773c-1.107.639-1.6 2.124-1.379 4.182c.018.175.067.365.095.545c-2.127.819-3.466 2.071-3.466 3.5s1.339 2.681 3.466 3.5c-.028.18-.077.37-.095.545c-.218 2.058.272 3.543 1.379 4.182c.376.213.803.322 1.235.316a6 6 0 0 0 3.514-1.56a6 6 0 0 0 3.515 1.56a2.44 2.44 0 0 0 1.236-.316c1.106-.639 1.6-2.124 1.379-4.182c-.019-.175-.067-.365-.1-.545c2.132-.819 3.471-2.071 3.471-3.5m-6.01-7.548a1.5 1.5 0 0 1 .76.187c.733.424 1.055 1.593.884 3.212c-.012.106-.043.222-.058.33q-1.263-.365-2.57-.523a16 16 0 0 0-1.747-1.972a4.9 4.9 0 0 1 2.731-1.234m-7.917 8.781c.172.34.335.68.529 1.017s.395.656.6.969a14 14 0 0 1-1.607-.376a14 14 0 0 1 .478-1.61m-.479-4.076a14 14 0 0 1 1.607-.376q-.308.468-.6.969c-.195.335-.357.677-.529 1.017q-.286-.79-.478-1.61M8.3 12a19 19 0 0 1 .888-1.75q.496-.852 1.076-1.65c.619-.061 1.27-.1 1.954-.1q1.025.001 1.952.1a20 20 0 0 1 1.079 1.654q.488.851.887 1.746a19 19 0 0 1-1.953 3.403a19.2 19.2 0 0 1-3.931 0a20 20 0 0 1-1.066-1.653A19 19 0 0 1 8.3 12m7.816 2.25c.2-.337.358-.677.53-1.017q.286.791.478 1.611a15 15 0 0 1-1.607.376c.202-.314.404-.635.597-.97zm.53-3.483c-.172-.34-.335-.68-.53-1.017a20 20 0 0 0-.6-.97q.814.142 1.606.376a14 14 0 0 1-.478 1.611zM12.217 6.34q.6.563 1.13 1.193q-.555-.031-1.129-.033c-.574-.002-.76.013-1.131.033q.53-.63 1.13-1.193m-4.249-1.7a1.5 1.5 0 0 1 .76-.187a4.9 4.9 0 0 1 2.729 1.233A16 16 0 0 0 9.71 7.658q-1.306.158-2.569.524c-.015-.109-.047-.225-.058-.331c-.171-1.619.151-2.787.885-3.211M3.718 12c0-.9.974-1.83 2.645-2.506c.218.857.504 1.695.856 2.506c-.352.811-.638 1.65-.856 2.506C4.692 13.83 3.718 12.9 3.718 12m4.25 7.361c-.734-.423-1.056-1.593-.885-3.212c.011-.106.043-.222.058-.331q1.262.365 2.564.524a16.4 16.4 0 0 0 1.757 1.982c-1.421 1.109-2.714 1.488-3.494 1.037m3.11-2.895q.56.033 1.14.034q.58-.001 1.139-.034a14 14 0 0 1-1.14 1.215a14 14 0 0 1-1.139-1.215m5.39 2.895c-.782.451-2.075.072-3.5-1.038a16 16 0 0 0 1.757-1.981a16.4 16.4 0 0 0 2.565-.523c.015.108.046.224.058.33c.175 1.619-.148 2.789-.88 3.212m1.6-4.854A16.6 16.6 0 0 0 17.216 12q.529-1.22.856-2.507c1.671.677 2.646 1.607 2.646 2.507s-.975 1.83-2.646 2.507z"/><path d="M12.215 13.773a1.792 1.792 0 1 0-1.786-1.8v.006a1.787 1.787 0 0 0 1.786 1.794"/></g></symbol><symbol id="hd-icon-flowbite-receipt-outline" viewBox="0 0 24 24"><path fill="none" stroke="currentColor" stroke-linecap="round" stroke-linejoin="round" stroke-width="2" d="M9 8h6m-6 4h6m-6 4h6M6 3v18l2-2l2 2l2-2l2 2l2-2l2 2V3l-2 2l-2-2l-2 2l-2-2l-2 2z"/></symbol><symbol id="hd-icon-flowbite-receipt-solid" viewBox="0 0 24 24"><path fill="currentColor" fill-rule="evenodd" d="M5.617 2.076a1 1 0 0 1 1.09.217L8 3.586l1.293-1.293a1 1 0 0 1 1.414 0L12 3.586l1.293-1.293a1 1 0 0 1 1.414 0L16 3.586l1.293-1.293A1 1 0 0 1 19 3v18a1 1 0 0 1-1.707.707L16 20.414l-1.293 1.293a1 1 0 0 1-1.414 0L12 20.414l-1.293 1.293a1 1 0 0 1-1.414 0L8 20.414l-1.293 1.293A1 1 0 0 1 5 21V3a1 1 0 0 1 .617-.924M9 7a1 1 0 0 0 0 2h6a1 1 0 1 0 0-2zm0 4a1 1 0 1 0 0 2h6a1 1 0 1 0 0-2zm0 4a1 1 0 1 0 0 2h6a1 1 0 1 0 0-2z" clip-rule="evenodd"/></symbol><symbol id="hd-icon-flowbite-rectangle-list-outline" viewBox="0 0 24 24"><path fill="none" stroke="currentColor" stroke-linecap="round" stroke-linejoin="round" stroke-width="2" d="M11 9h6m-6 3h6m-6 3h6M6.996 9h.01m-.01 3h.01m-.01 3h.01M4 5h16a1 1 0 0 1 1 1v12a1 1 0 0 1-1 1H4a1 1 0 0 1-1-1V6a1 1 0 0 1 1-1"/></symbol><symbol id="hd-icon-flowbite-rectangle-list-solid" viewBox="0 0 24 24"><path fill="currentColor" fill-rule="evenodd" d="M2 6a2 2 0 0 1 2-2h16a2 2 0 0 1 2 2v12a2 2 0 0 1-2 2H4a2 2 0 0 1-2-2zm4.996 2a1 1 0 0 0 0 2h.01a1 1 0 1 0 0-2zM11 8a1 1 0 1 0 0 2h6a1 1 0 1 0 0-2zm-4.004 3a1 1 0 1 0 0 2h.01a1 1 0 1 0 0-2zM11 11a1 1 0 1 0 0 2h6a1 1 0 1 0 0-2zm-4.004 3a1 1 0 1 0 0 2h.01a1 1 0 1 0 0-2zM11 14a1 1 0 1 0 0 2h6a1 1 0 1 0 0-2z" clip-rule="evenodd"/></symbol><symbol id="hd-icon-flowbite-reddit-solid" viewBox="0 0 24 24"><g fill="currentColor"><path d="M12.008 16.521a3.84 3.84 0 0 0 2.47-.77v.04a.28.28 0 0 0 .005-.396a.28.28 0 0 0-.395-.005a3.3 3.3 0 0 1-2.09.61a3.27 3.27 0 0 1-2.081-.63a.27.27 0 0 0-.38.381a3.84 3.84 0 0 0 2.47.77Z"/><path fill-rule="evenodd" d="M22 12c0 5.523-4.477 10-10 10S2 17.523 2 12S6.477 2 12 2s10 4.477 10 10m-4.845-1.407A1.463 1.463 0 0 1 18.67 12a1.46 1.46 0 0 1-.808 1.33q.015.22 0 .44c0 2.242-2.61 4.061-5.829 4.061s-5.83-1.821-5.83-4.061a3 3 0 0 1 0-.44a1.458 1.458 0 0 1-.457-2.327a1.46 1.46 0 0 1 2.063-.064a7.16 7.16 0 0 1 3.9-1.23l.738-3.47v-.006a.31.31 0 0 1 .37-.236l2.452.49a1 1 0 1 1-.132.611l-2.14-.45l-.649 3.12a7.1 7.1 0 0 1 3.85 1.23c.259-.246.6-.393.957-.405" clip-rule="evenodd"/><path d="M15.305 13a1 1 0 1 1-2 0a1 1 0 0 1 2 0m-4.625 0a1 1 0 1 1-2 0a1 1 0 0 1 2 0"/></g></symbol><symbol id="hd-icon-flowbite-redo-outline" viewBox="0 0 24 24"><path fill="none" stroke="currentColor" stroke-linecap="round" stroke-linejoin="round" stroke-width="2" d="M21 9H8a5 5 0 0 0 0 10h9m4-10l-4-4m4 4l-4 4"/></symbol><symbol id="hd-icon-flowbite-redo-solid" viewBox="0 0 24 24"><g fill="none" stroke="currentColor" stroke-linecap="round" stroke-width="2"><path d="M4 9h12a5 5 0 0 1 5 5v0a5 5 0 0 1-5 5H7"/><path stroke-linejoin="round" d="M7 5L3 9l4 4"/></g></symbol><symbol id="hd-icon-flowbite-refresh-outline" viewBox="0 0 24 24"><path fill="none" stroke="currentColor" stroke-linecap="round" stroke-linejoin="round" stroke-width="2" d="M17.651 7.65a7.131 7.131 0 0 0-12.68 3.15M18.001 4v4h-4m-7.652 8.35a7.13 7.13 0 0 0 12.68-3.15M6 20v-4h4"/></symbol><symbol id="hd-icon-flowbite-reply-all-outline" viewBox="0 0 24 24"><path fill="none" stroke="currentColor" stroke-linecap="round" stroke-linejoin="round" stroke-width="2" d="M8.757 6L3.24 10.95a1.05 1.05 0 0 0 0 1.549l5.611 5.088m5.73-3.214v1.615a.948.948 0 0 1-1.524.845l-5.108-4.251a1.1 1.1 0 0 1 0-1.646l5.108-4.251a.95.95 0 0 1 1.524.846v1.7c3.312 0 6 2.979 6 6.654v1.329a.7.7 0 0 1-1.345.353a5.17 5.17 0 0 0-4.652-3.191z"/></symbol><symbol id="hd-icon-flowbite-reply-all-solid" viewBox="0 0 24 24"><path fill="currentColor" fill-rule="evenodd" d="M9.484 6.743c.41-.368.443-1 .077-1.41a.99.99 0 0 0-1.405-.078L2.67 10.203l-.007.006A2.05 2.05 0 0 0 2 11.721a2.06 2.06 0 0 0 .662 1.51l5.584 5.09a.99.99 0 0 0 1.405-.07a1.003 1.003 0 0 0-.07-1.412l-5.577-5.082a.05.05 0 0 1 0-.072zm6.543 9.199v-.42a4.17 4.17 0 0 1 2.715 2.415c.154.382.44.695.806.88a1.683 1.683 0 0 0 2.167-.571c.214-.322.312-.707.279-1.092V15.88c0-3.77-2.526-7.039-5.966-7.573V7.57a1.96 1.96 0 0 0-.994-1.838a1.93 1.93 0 0 0-2.153.184L7.8 10.164l-.012.011l-.011.01a2.1 2.1 0 0 0-.703 1.57a2.1 2.1 0 0 0 .726 1.59l5.08 4.25a1.933 1.933 0 0 0 2.929-.614c.167-.32.242-.68.218-1.04Z" clip-rule="evenodd"/></symbol><symbol id="hd-icon-flowbite-reply-outline" viewBox="0 0 24 24"><path fill="none" stroke="currentColor" stroke-linecap="round" stroke-linejoin="round" stroke-width="2" d="M14.5 8.046H11V6.119c0-.921-.9-1.446-1.524-.894l-5.108 4.49a1.2 1.2 0 0 0 0 1.739l5.108 4.49c.624.556 1.524.027 1.524-.893v-1.928h2a3.023 3.023 0 0 1 3 3.046V19a5.593 5.593 0 0 0-1.5-10.954"/></symbol><symbol id="hd-icon-flowbite-reply-solid" viewBox="0 0 24 24"><path fill="currentColor" d="M14.502 7.046h-2.5v-.928a2.12 2.12 0 0 0-1.199-1.954a1.83 1.83 0 0 0-1.984.311L3.71 8.965a2.2 2.2 0 0 0 0 3.24L8.82 16.7a1.83 1.83 0 0 0 1.985.31a2.12 2.12 0 0 0 1.199-1.959v-.928h1a2.025 2.025 0 0 1 1.999 2.047V19a1 1 0 0 0 1.275.961a6.59 6.59 0 0 0 4.662-7.22a6.59 6.59 0 0 0-6.437-5.695Z"/></symbol><symbol id="hd-icon-flowbite-restore-window-outline" viewBox="0 0 24 24"><path fill="none" stroke="currentColor" stroke-linecap="round" stroke-linejoin="round" stroke-width="2" d="M3 11.5h13m-13 0V18a1 1 0 0 0 1 1h11a1 1 0 0 0 1-1v-6.5m-13 0V9a1 1 0 0 1 1-1h11a1 1 0 0 1 1 1v2.5M9 5h11a1 1 0 0 1 1 1v9a1 1 0 0 1-1 1h-1"/></symbol><symbol id="hd-icon-flowbite-rocket-outline" viewBox="0 0 24 24"><path fill="none" stroke="currentColor" stroke-linecap="round" stroke-linejoin="round" stroke-width="2" d="m10.051 8.102l-3.778.322l-1.994 1.994a.94.94 0 0 0 .533 1.6l2.698.316m8.39 1.617l-.322 3.78l-1.994 1.994a.94.94 0 0 1-1.595-.533l-.4-2.652m8.166-11.174a1.37 1.37 0 0 0-1.12-1.12c-1.616-.279-4.906-.623-6.38.853c-1.671 1.672-5.211 8.015-6.31 10.023a.93.93 0 0 0 .162 1.111l.828.835l.833.832a.93.93 0 0 0 1.111.163c2.008-1.102 8.35-4.642 10.021-6.312c1.475-1.478 1.133-4.77.855-6.385m-2.961 3.722a1.88 1.88 0 1 1-3.76 0a1.88 1.88 0 0 1 3.76 0"/></symbol><symbol id="hd-icon-flowbite-rocket-solid" viewBox="0 0 24 24"><path fill="currentColor" fill-rule="evenodd" d="M20.337 3.664c.213.212.354.486.404.782c.294 1.711.657 5.195-.906 6.76c-1.77 1.768-8.485 5.517-10.611 6.683a.99.99 0 0 1-1.176-.173l-.882-.88l-.877-.884a.99.99 0 0 1-.173-1.177c1.165-2.126 4.913-8.841 6.682-10.611c1.562-1.563 5.046-1.198 6.757-.904c.296.05.57.191.782.404M5.407 7.576l4-.341l-2.69 4.48l-2.857-.334a.996.996 0 0 1-.565-1.694zm11.357 7.02l-.34 4l-2.111 2.113a.996.996 0 0 1-1.69-.565l-.422-2.807zm.84-6.21a1.99 1.99 0 1 1-3.98 0a1.99 1.99 0 0 1 3.98 0" clip-rule="evenodd"/></symbol><symbol id="hd-icon-flowbite-rotate-solid" viewBox="0 0 24 24"><g fill="none" stroke="currentColor" stroke-linecap="round" stroke-linejoin="round" stroke-width="2"><path d="M17.7 7.7A7.1 7.1 0 0 0 5 10.8"/><path d="M18 4v4h-4m-7.7 8.3A7.1 7.1 0 0 0 19 13.2"/><path d="M6 20v-4h4"/></g></symbol><symbol id="hd-icon-flowbite-ruler-combined-outline" viewBox="0 0 24 24"><path fill="none" stroke="currentColor" stroke-linecap="round" stroke-linejoin="round" stroke-width="2" d="M9 7H7m2 3H7m2 3H7m4 2v2m3-2v2m3-2v2M4 5v14a1 1 0 0 0 1 1h14a1 1 0 0 0 1-1v-3a1 1 0 0 0-1-1h-9a1 1 0 0 1-1-1V5a1 1 0 0 0-1-1H5a1 1 0 0 0-1 1"/></symbol><symbol id="hd-icon-flowbite-ruler-combined-solid" viewBox="0 0 24 24"><path fill="currentColor" fill-rule="evenodd" d="M5 3a2 2 0 0 0-2 2v14a2 2 0 0 0 2 2h14a2 2 0 0 0 2-2v-3a2 2 0 0 0-2-2h-1v3a1 1 0 1 1-2 0v-3h-1v3a1 1 0 1 1-2 0v-3h-1v3a1 1 0 1 1-2 0v-3H7a1 1 0 1 1 0-2h3v-1H7a1 1 0 1 1 0-2h3V8H7a1 1 0 0 1 0-2h3V5a2 2 0 0 0-2-2z" clip-rule="evenodd"/></symbol><symbol id="hd-icon-flowbite-sale-percent-outline" viewBox="0 0 24 24"><path fill="none" stroke="currentColor" stroke-linecap="round" stroke-linejoin="round" stroke-width="2" d="M8.891 15.107L15.11 8.89m-5.183-.52h.01m3.089 7.254h.01M14.08 3.902a2.85 2.85 0 0 0 2.176.902a2.845 2.845 0 0 1 2.94 2.94a2.85 2.85 0 0 0 .901 2.176a2.847 2.847 0 0 1 0 4.16a2.85 2.85 0 0 0-.901 2.175a2.843 2.843 0 0 1-2.94 2.94a2.85 2.85 0 0 0-2.176.902a2.847 2.847 0 0 1-4.16 0a2.85 2.85 0 0 0-2.176-.902a2.845 2.845 0 0 1-2.94-2.94a2.85 2.85 0 0 0-.901-2.176a2.85 2.85 0 0 1 0-4.16a2.85 2.85 0 0 0 .901-2.176a2.845 2.845 0 0 1 2.941-2.94a2.85 2.85 0 0 0 2.176-.901a2.847 2.847 0 0 1 4.159 0"/></symbol><symbol id="hd-icon-flowbite-sale-percent-solid" viewBox="0 0 24 24"><path fill="currentColor" fill-rule="evenodd" d="M20.29 8.567c.133.323.334.613.59.85v.002a3.536 3.536 0 0 1 0 5.166a2.44 2.44 0 0 0-.776 1.868a3.534 3.534 0 0 1-3.651 3.653a2.48 2.48 0 0 0-1.87.776a3.537 3.537 0 0 1-5.164 0a2.44 2.44 0 0 0-1.87-.776a3.533 3.533 0 0 1-3.653-3.654a2.44 2.44 0 0 0-.775-1.868a3.537 3.537 0 0 1 0-5.166a2.44 2.44 0 0 0 .775-1.87a3.55 3.55 0 0 1 1.033-2.62a3.6 3.6 0 0 1 2.62-1.032a2.4 2.4 0 0 0 1.87-.775a3.535 3.535 0 0 1 5.165 0a2.44 2.44 0 0 0 1.869.775a3.53 3.53 0 0 1 3.652 3.652c-.012.35.051.697.184 1.02ZM9.927 7.371a1 1 0 1 0 0 2h.01a1 1 0 0 0 0-2zm5.889 2.226a1 1 0 0 0-1.414-1.415L8.184 14.4a1 1 0 0 0 1.414 1.414zm-2.79 5.028a1 1 0 1 0 0 2h.01a1 1 0 1 0 0-2z" clip-rule="evenodd"/></symbol><symbol id="hd-icon-flowbite-scale-balanced-outline" viewBox="0 0 24 24"><path fill="none" stroke="currentColor" stroke-linecap="round" stroke-linejoin="round" stroke-width="2" d="M5.5 21h13M12 21V7m0 0a2 2 0 1 0 0-4a2 2 0 0 0 0 4m2-1.8c3.073.661 2.467 2.8 5 2.8M5 8c3.359 0 2.192-2.115 5.012-2.793M7 9.556V7.75m0 1.806l-1.95 4.393a.773.773 0 0 0 .37.962a.8.8 0 0 0 .362.089h2.436a.79.79 0 0 0 .643-.335a.78.78 0 0 0 .09-.716zm10 0V7.313m0 2.243l-1.95 4.393a.773.773 0 0 0 .37.962a.8.8 0 0 0 .362.089h2.436a.79.79 0 0 0 .643-.335a.78.78 0 0 0 .09-.716z"/></symbol><symbol id="hd-icon-flowbite-scale-balanced-solid" viewBox="0 0 24 24"><path fill="currentColor" fill-rule="evenodd" d="M12 4a1 1 0 1 0 0 2a1 1 0 0 0 0-2m-2.952.462c-.483.19-.868.432-1.19.71c-.363.315-.638.677-.831.93l-.106.14c-.21.268-.36.418-.574.527C6.125 6.883 5.74 7 5 7a1 1 0 0 0 0 2q.545 0 1-.067v.41l-1.864 4.2a1.774 1.774 0 0 0 .821 2.255c.255.133.538.202.825.202h2.436a1.786 1.786 0 0 0 1.768-1.558a1.8 1.8 0 0 0-.122-.899L8 9.343V8.028c.2-.188.36-.38.495-.553q.093-.118.168-.217c.185-.24.311-.406.503-.571a2 2 0 0 1 .24-.177A3 3 0 0 0 11 7.829V20H5.5a1 1 0 1 0 0 2h13a1 1 0 1 0 0-2H13V7.83a3 3 0 0 0 1.63-1.387c.206.091.373.19.514.29c.31.219.532.465.811.78l.025.027l.02.023v1.78l-1.864 4.2a1.774 1.774 0 0 0 .821 2.255c.255.133.538.202.825.202h2.436a1.785 1.785 0 0 0 1.768-1.558a1.8 1.8 0 0 0-.122-.899L18 9.343v-.452q.451.108 1 .109a1 1 0 1 0 0-2c-.48 0-.731-.098-.899-.2c-.2-.12-.363-.293-.651-.617l-.024-.026c-.267-.3-.622-.7-1.127-1.057a5.2 5.2 0 0 0-1.355-.678a3.001 3.001 0 0 0-5.896.04" clip-rule="evenodd"/></symbol><symbol id="hd-icon-flowbite-school-alt-outline" viewBox="0 0 24 24"><path fill="none" stroke="currentColor" stroke-linejoin="round" stroke-width="2" d="m7.143 11l5-6l5 6m-10 0h-3v8h16v-8h-3m-10 0h-4l3-4h4.337zm10 0h4l-3-4h-4.338zm-3 2a2 2 0 1 1-4 0a2 2 0 0 1 4 0Z"/></symbol><symbol id="hd-icon-flowbite-school-alt-solid" viewBox="0 0 24 24"><g fill="currentColor"><path d="M12 12a1 1 0 1 0 0 2a1 1 0 0 0 0-2"/><path fill-rule="evenodd" d="M6.651 11.63L12 5.048l5.349 6.584a1 1 0 0 0 .776.369H21v7a1 1 0 0 1-1 1H4a1 1 0 0 1-1-1v-7h2.875a1 1 0 0 0 .776-.37M9 13a3 3 0 1 1 6 0a3 3 0 0 1-6 0" clip-rule="evenodd"/><path d="m2.5 10l2.7-3.6A1 1 0 0 1 6 6h2.649l-3.25 4zm12.851-4l3.25 4H21.5l-2.7-3.6A1 1 0 0 0 18 6z"/></g></symbol><symbol id="hd-icon-flowbite-school-check-alt-outline" viewBox="0 0 24 24"><path fill="none" stroke="currentColor" stroke-linecap="round" stroke-linejoin="round" stroke-width="2" d="m7.286 11l5-6l5 6m-10 0h-3v8h8m-5-8h-4l3-4h4.337zm10 0h3v1m-3-1h4l-3-4h-4.338zm-2 6l2 2l4-4m-7-2a2 2 0 1 1-4 0a2 2 0 0 1 4 0"/></symbol><symbol id="hd-icon-flowbite-school-check-alt-solid" viewBox="0 0 24 24"><g fill="currentColor"><path fill-rule="evenodd" d="M21.707 14.293a1 1 0 0 1 0 1.414l-4 4a1 1 0 0 1-1.414 0l-2-2a1 1 0 0 1 1.414-1.414L17 17.586l3.293-3.293a1 1 0 0 1 1.414 0" clip-rule="evenodd"/><path d="M6.651 11.63L12 5.048l5.349 6.584a1 1 0 0 0 .776.369h2.866a3 3 0 0 0-2.112.879l-1.882 1.882a3 3 0 0 0-2.17-.756a3 3 0 1 0-2.655 1.99a3 3 0 0 0 .707 3.126l.878.879H4a1 1 0 0 1-1-1v-7h2.875a1 1 0 0 0 .776-.37"/><path d="M12 12a1 1 0 1 0 0 2a1 1 0 0 0 0-2m-9.5-2l2.7-3.6A1 1 0 0 1 6 6h2.649l-3.25 4zm12.851-4l3.25 4H21.5l-2.7-3.6A1 1 0 0 0 18 6z"/></g></symbol><symbol id="hd-icon-flowbite-school-check-outline" viewBox="0 0 24 24"><path fill="none" stroke="currentColor" stroke-linecap="round" stroke-linejoin="round" stroke-width="2" d="M8.143 20v-9l-4 1.125V20zm0 0V6.667m0 13.333h3m5-9V6.667m0 4.333l4 1.125V13m-4-2v3m2-6l-6-4l-6 4m5 1h2m-2 3h2m1 6l2 2l4-4"/></symbol><symbol id="hd-icon-flowbite-school-check-solid" viewBox="0 0 24 24"><g fill="currentColor"><path fill-rule="evenodd" d="M11.445 3.168a1 1 0 0 1 1.11 0l6 4a1 1 0 0 1-1.11 1.664L16 7.87v8.596l-.232-.233a2.5 2.5 0 0 0-3.536 3.536L13.465 21H8V7.869l-1.445.963a1 1 0 0 1-1.11-1.664zM11 11a1 1 0 1 0 0 2h2a1 1 0 1 0 0-2zm-1-2a1 1 0 0 1 1-1h2a1 1 0 1 1 0 2h-2a1 1 0 0 1-1-1" clip-rule="evenodd"/><path d="M21 13.708v-1.583a1 1 0 0 0-.73-.963L18 10.524v3.94l.232-.232A2.5 2.5 0 0 1 21 13.708M6 10.524l-2.27.638a1 1 0 0 0-.73.963V20a1 1 0 0 0 1 1h2z"/><path fill-rule="evenodd" d="M20.707 15.293a1 1 0 0 1 0 1.414l-4 4a1 1 0 0 1-1.414 0l-2-2a1 1 0 0 1 1.414-1.414L16 18.586l3.293-3.293a1 1 0 0 1 1.414 0" clip-rule="evenodd"/></g></symbol><symbol id="hd-icon-flowbite-school-exclamation-alt-outline" viewBox="0 0 24 24"><path fill="none" stroke="currentColor" stroke-linecap="round" stroke-linejoin="round" stroke-width="2" d="M17.5 19h-13v-8h3m0 0l5-6l5 6m-10 0h-4l3-4h4.337zm13 8h.01m-.01-3v-3m-6.337-6H18.5l2 2.5m-6 3.5a2 2 0 1 1-4 0a2 2 0 0 1 4 0"/></symbol><symbol id="hd-icon-flowbite-school-exclamation-alt-solid" viewBox="0 0 24 24"><g fill="currentColor"><path fill-rule="evenodd" d="M19 19a1 1 0 0 1 1-1h.01a1 1 0 1 1 0 2H20a1 1 0 0 1-1-1m1-7a1 1 0 0 1 1 1v3a1 1 0 1 1-2 0v-3a1 1 0 0 1 1-1" clip-rule="evenodd"/><path d="M11 13a1 1 0 1 1 2 0a1 1 0 0 1-2 0"/><path fill-rule="evenodd" d="m12 5.047l-5.349 6.584a1 1 0 0 1-.776.369H3v7a1 1 0 0 0 1 1h13.17a3.01 3.01 0 0 1 .231-2.5A3 3 0 0 1 17 16v-3c0-.499.122-.97.337-1.383zM12 10a3 3 0 1 0 0 6a3 3 0 0 0 0-6" clip-rule="evenodd"/><path d="M20.01 10H18.6l-3.25-4H18a1 1 0 0 1 .8.4l2.7 3.6zm-.016 2A1 1 0 0 0 19 13v3q0 .085.014.166A1 1 0 0 0 20 17h.01a1 1 0 0 0 .99-1v-3a1 1 0 0 0-.994-1zM21 18.858l-.004-.027A1 1 0 0 0 20.01 18H20a1 1 0 0 0 0 2h.006A1 1 0 0 0 21 19zM2.5 10l2.7-3.6A1 1 0 0 1 6 6h2.649l-3.25 4z"/></g></symbol><symbol id="hd-icon-flowbite-school-exclamation-outline" viewBox="0 0 24 24"><path fill="none" stroke="currentColor" stroke-linecap="round" stroke-linejoin="round" stroke-width="2" d="M8.071 20v-9l-4 1.125V20zm0 0h8m-8 0V6.667m8 13.333v-9l1.5.422M16.071 20h1m-1 0V6.667m2 1.333l-6-4l-6 4m5 1h2m-2 3h2m7 8h.01m-.01-3v-4"/></symbol><symbol id="hd-icon-flowbite-school-exclamation-solid" viewBox="0 0 24 24"><g fill="currentColor"><path d="m6 10.524l-2.27.638a1 1 0 0 0-.73.963V20a1 1 0 0 0 1 1h2z"/><path fill-rule="evenodd" d="M12.555 3.168a1 1 0 0 0-1.11 0l-6 4a1 1 0 0 0 1.11 1.664L8 7.869V21h8V7.869l1.445.963A1 1 0 0 0 18 9a.999.999 0 0 0 .555-1.832zM10 12a1 1 0 0 1 1-1h2a1 1 0 1 1 0 2h-2a1 1 0 0 1-1-1m1-4a1 1 0 1 0 0 2h2a1 1 0 1 0 0-2zm8 12a1 1 0 0 1 1-1h.01a1 1 0 1 1 0 2H20a1 1 0 0 1-1-1m1-8a1 1 0 0 1 1 1v4a1 1 0 1 1-2 0v-4a1 1 0 0 1 1-1" clip-rule="evenodd"/></g></symbol><symbol id="hd-icon-flowbite-school-flag-alt-outline" viewBox="0 0 24 24"><path fill="none" stroke="currentColor" stroke-linecap="round" stroke-linejoin="round" stroke-width="2" d="m7.429 11l5-6l5 6m-10 0h-3v8h16v-8h-3m-10 0h-4l3-4h4.337zm10 0V7.5m-3 5.5a2 2 0 1 1-4 0a2 2 0 0 1 4 0m3-8v3h4V5z"/></symbol><symbol id="hd-icon-flowbite-school-flag-alt-solid" viewBox="0 0 24 24"><g fill="currentColor"><path d="M12 12a1 1 0 1 0 0 2a1 1 0 0 0 0-2"/><path fill-rule="evenodd" d="M17 4a1 1 0 0 0-1 1v4.97l-4-4.923l-5.349 6.584a1 1 0 0 1-.776.369H3v7a1 1 0 0 0 1 1h16a1 1 0 0 0 1-1v-7h-2.875a1 1 0 0 1-.125-.008V9h3a1 1 0 0 0 1-1V5a1 1 0 0 0-1-1zm-8 9a3 3 0 1 1 6 0a3 3 0 0 1-6 0" clip-rule="evenodd"/><path d="M5.2 6.4L2.5 10h2.899l3.25-4H6a1 1 0 0 0-.8.4"/></g></symbol><symbol id="hd-icon-flowbite-school-flag-outline" viewBox="0 0 24 24"><path fill="none" stroke="currentColor" stroke-linecap="round" stroke-linejoin="round" stroke-width="2" d="M8 20v-9l-4 1.125V20zm0 0h8m-8 0V6.667M16 20v-9l4 1.125V20zm0 0V7m0 0V4h4v3zM6 8l6-4l4 2.667M11 9h2m-2 3h2"/></symbol><symbol id="hd-icon-flowbite-school-flag-solid" viewBox="0 0 24 24"><g fill="currentColor"><path fill-rule="evenodd" d="M15 4a1 1 0 0 1 1-1h4a1 1 0 0 1 1 1v3a1 1 0 0 1-1 1h-4v13H8V7.869l-1.445.963a1 1 0 0 1-1.11-1.664l6-4a1 1 0 0 1 1.11 0L15 4.798zm-5 8a1 1 0 0 1 1-1h2a1 1 0 1 1 0 2h-2a1 1 0 0 1-1-1m1-4a1 1 0 1 0 0 2h2a1 1 0 1 0 0-2z" clip-rule="evenodd"/><path d="M18 9h-.016h.03zM6 10.524l-2.27.638a1 1 0 0 0-.73.963V20a1 1 0 0 0 1 1h2zm14.27.638L18 10.524V21h2a1 1 0 0 0 1-1v-7.875a1 1 0 0 0-.73-.963"/></g></symbol><symbol id="hd-icon-flowbite-school-lock-alt-outline" viewBox="0 0 24 24"><path fill="none" stroke="currentColor" stroke-linecap="round" stroke-linejoin="round" stroke-width="2" d="m7.357 11l5-6l3.333 4m-8.333 2h-3v8h7m-4-8h-4l3-4h4.337zm8.331-2L14.02 7h4.337l1.5 2m-8.324 5.898a2 2 0 1 1 1.502-3.708M16.357 15v-2.5a1.5 1.5 0 0 1 3 0V15m-4 0h5a1 1 0 0 1 1 1v2a1 1 0 0 1-1 1h-5a1 1 0 0 1-1-1v-2a1 1 0 0 1 1-1"/></symbol><symbol id="hd-icon-flowbite-school-lock-alt-solid" viewBox="0 0 24 24"><g fill="currentColor"><path d="M6.651 11.63L12 5.048l3.01 3.704a4.5 4.5 0 0 0-1.496 1.659a3 3 0 1 0-2.51 5.421L11 16v2c0 .729.195 1.412.535 2H4a1 1 0 0 1-1-1v-7h2.875a1 1 0 0 0 .776-.37"/><path fill-rule="evenodd" d="M16.102 10.427A2.5 2.5 0 0 0 15 12.5V14q-.087 0-.173.007a2 2 0 0 0-1.82 1.82v.006Q13 15.915 13 16v2a2 2 0 0 0 2 2h5.008A2 2 0 0 0 22 18v-2a2 2 0 0 0-2-2v-1.5q0-.257-.05-.5a2.5 2.5 0 0 0-3.848-1.573M17.5 12a.5.5 0 0 0-.5.5V14h1v-1.5a.5.5 0 0 0-.5-.5" clip-rule="evenodd"/><path d="M21.242 10a4.5 4.5 0 0 0-4.244-1.972L15.351 6H18a1 1 0 0 1 .8.4l2.7 3.6zm-8.33 2.588a1 1 0 1 0-1.324 1.323a4 4 0 0 1 1.323-1.323M5.2 6.4L2.5 10h2.899l3.25-4H6a1 1 0 0 0-.8.4"/></g></symbol><symbol id="hd-icon-flowbite-school-lock-outline" viewBox="0 0 24 24"><path fill="none" stroke="currentColor" stroke-linecap="round" stroke-linejoin="round" stroke-width="2" d="M8.214 20v-9l-4 1.125V20zm0 0V6.667m0 13.333h2m6-11V6.667m2 1.333l-6-4l-6 4m5 1h2m-2 3h1m3 4v-2.5a1.5 1.5 0 0 1 3 0V16m-4 0h5a1 1 0 0 1 1 1v2a1 1 0 0 1-1 1h-5a1 1 0 0 1-1-1v-2a1 1 0 0 1 1-1"/></symbol><symbol id="hd-icon-flowbite-school-lock-solid" viewBox="0 0 24 24"><g fill="currentColor"><path fill-rule="evenodd" d="M11.445 3.168a1 1 0 0 1 1.11 0l6 4a1 1 0 0 1-1.11 1.664L16 7.87v1.66a4 4 0 0 0-2.667 1.526A1 1 0 0 0 13 11h-2a1 1 0 1 0 0 2h1.53q-.03.245-.03.5v.337a3.5 3.5 0 0 0-2 3.163v2c0 .744.232 1.433.627 2H8V7.869l-1.445.963a1 1 0 0 1-1.11-1.664zM10 9a1 1 0 0 1 1-1h2a1 1 0 1 1 0 2h-2a1 1 0 0 1-1-1" clip-rule="evenodd"/><path fill-rule="evenodd" d="M16.5 11a2.5 2.5 0 0 1 1.59.57c.556.46.91 1.153.91 1.93V15a2 2 0 0 1 2 2v2a2 2 0 0 1-1.991 2H14a2 2 0 0 1-2-2v-2a2 2 0 0 1 2-2v-1.5a2.5 2.5 0 0 1 1.996-2.45H16q.243-.05.5-.05m0 2a.5.5 0 0 0-.5.5V15h1v-1.5a.5.5 0 0 0-.5-.5" clip-rule="evenodd"/><path d="M3.73 11.162L6 10.524V21H4a1 1 0 0 1-1-1v-7.875a1 1 0 0 1 .73-.963"/></g></symbol><symbol id="hd-icon-flowbite-school-outline" viewBox="0 0 24 24"><path fill="none" stroke="currentColor" stroke-linecap="round" stroke-linejoin="round" stroke-width="2" d="M8 20v-9l-4 1.125V20zm0 0h8m-8 0V6.667M16 20v-9l4 1.125V20zm0 0V6.667M18 8l-6-4l-6 4m5 1h2m-2 3h2"/></symbol><symbol id="hd-icon-flowbite-school-solid" viewBox="0 0 24 24"><g fill="currentColor"><path d="m6 10.524l-2.27.638a1 1 0 0 0-.73.963V20a1 1 0 0 0 1 1h2zm12 0l2.27.638a1 1 0 0 1 .73.963V20a1 1 0 0 1-1 1h-2z"/><path fill-rule="evenodd" d="M12.555 3.168a1 1 0 0 0-1.11 0l-6 4a1 1 0 0 0 1.11 1.664L8 7.869V21h8V7.869l1.445.963A1 1 0 0 0 18 9a.999.999 0 0 0 .555-1.832zM10 12a1 1 0 0 1 1-1h2a1 1 0 1 1 0 2h-2a1 1 0 0 1-1-1m1-4a1 1 0 1 0 0 2h2a1 1 0 1 0 0-2z" clip-rule="evenodd"/></g></symbol><symbol id="hd-icon-flowbite-school-xmark-alt-outline" viewBox="0 0 24 24"><path fill="none" stroke="currentColor" stroke-linecap="round" stroke-linejoin="round" stroke-width="2" d="m16.976 15.464l1.767 1.768m0 0L20.511 19m-1.768-1.768L16.976 19m1.767-1.768l1.768-1.768M7.214 11l5-6l5 6m-10 0h-3v8h9.08m-6.08-8h-4l3-4h4.338zm10 0h3v1.557m-3-1.557h4l-3-4h-4.337zm-3 2a2 2 0 1 1-4 0a2 2 0 0 1 4 0"/></symbol><symbol id="hd-icon-flowbite-school-xmark-alt-solid" viewBox="0 0 24 24"><g fill="currentColor"><path d="M6.651 11.63L12 5.048l5.349 6.584a1 1 0 0 0 .776.369H21v1.065a2.5 2.5 0 0 0-2.47.632a2.5 2.5 0 0 0-3.64.109a3 3 0 1 0-.563 1.088c-.19.813.032 1.704.667 2.338A2.5 2.5 0 0 0 14.47 20H4a1 1 0 0 1-1-1v-7h2.875a1 1 0 0 0 .776-.37"/><path d="M17.469 14.757a1 1 0 0 0-1.415 1.414l1.061 1.061l-1.06 1.06a1 1 0 0 0 1.413 1.415l1.061-1.06l1.06 1.06a.997.997 0 0 0 1.415 0a1 1 0 0 0 0-1.414l-1.06-1.061L21 16.175l.004-.004a1 1 0 0 0 0-1.414L21 14.753a1 1 0 0 0-1.41.004l-1.06 1.06zM12 12a1 1 0 1 0 0 2a1 1 0 0 0 0-2m-9.5-2l2.7-3.6A1 1 0 0 1 6 6h2.649l-3.25 4zm12.851-4l3.25 4H21.5l-2.7-3.6A1 1 0 0 0 18 6z"/></g></symbol><symbol id="hd-icon-flowbite-school-xmark-outline" viewBox="0 0 24 24"><path fill="none" stroke="currentColor" stroke-linecap="round" stroke-linejoin="round" stroke-width="2" d="M8.071 20v-9l-4 1.125V20zm0 0V6.667m0 13.333h4m4-9V6.667m0 4.333l4 1.125V13m-4-2v2m2-5l-6-4l-6 4m5 1h2m-2 3h2m3.015 4.409l1.768 1.768m0 0l1.768 1.767m-1.768-1.767l-1.768 1.767m1.768-1.767l1.768-1.768"/></symbol><symbol id="hd-icon-flowbite-school-xmark-solid" viewBox="0 0 24 24"><g fill="currentColor"><path fill-rule="evenodd" d="M15.308 15.702a1 1 0 0 1 1.414 0l1.06 1.06l1.061-1.06a1 1 0 0 1 1.415 1.414l-1.061 1.06l1.06 1.061a1 1 0 0 1-1.414 1.414l-1.06-1.06l-1.061 1.06a1 1 0 0 1-1.414-1.414l1.06-1.06l-1.06-1.061a1 1 0 0 1 0-1.414" clip-rule="evenodd"/><path fill-rule="evenodd" d="M11.445 3.168a1 1 0 0 1 1.11 0l6 4a1 1 0 0 1-1.11 1.664L16 7.87v6.04A2.5 2.5 0 0 0 13.748 21H8V7.869l-1.445.963a1 1 0 0 1-1.11-1.664zM11 11a1 1 0 1 0 0 2h2a1 1 0 1 0 0-2zm-1-2a1 1 0 0 1 1-1h2a1 1 0 1 1 0 2h-2a1 1 0 0 1-1-1" clip-rule="evenodd"/><path d="M21 14.371v-2.246a1 1 0 0 0-.73-.963L18 10.524v3.923a2.5 2.5 0 0 1 3-.076m-3 2.174l.843-.843a1 1 0 0 1 1.415 1.414l-1.061 1.06l1.06 1.061a1 1 0 0 1-1.414 1.414L18 19.808zm-2-1.136a1 1 0 0 0-.692 1.707l.692.692zm0 3.136v2.4a1 1 0 0 1-.692-1.707zM6 10.524l-2.27.638a1 1 0 0 0-.73.963V20a1 1 0 0 0 1 1h2z"/></g></symbol><symbol id="hd-icon-flowbite-search-outline" viewBox="0 0 24 24"><path fill="none" stroke="currentColor" stroke-linecap="round" stroke-width="2" d="m21 21l-3.5-3.5M17 10a7 7 0 1 1-14 0a7 7 0 0 1 14 0Z"/></symbol><symbol id="hd-icon-flowbite-search-solid" viewBox="0 0 24 24"><g fill="currentColor"><path d="M10 2a8 8 0 1 0 0 16a8 8 0 0 0 0-16"/><path fill-rule="evenodd" d="M21.707 21.707a1 1 0 0 1-1.414 0l-3.5-3.5a1 1 0 0 1 1.414-1.414l3.5 3.5a1 1 0 0 1 0 1.414" clip-rule="evenodd"/></g></symbol><symbol id="hd-icon-flowbite-seedling-outline" viewBox="0 0 24 24"><path fill="none" stroke="currentColor" stroke-linecap="round" stroke-linejoin="round" stroke-width="2" d="M9.839 12.454s1.25-3.088-.216-5.29s-5.036-3.055-5.225-2.92c-.189.134-1.118 3.325.348 5.527s5.093 2.683 5.093 2.683m0 0C10.339 13.454 12 15 12 18v2c0-2-.43-3.419 2.07-5.919m0 0s-.49-2.789 1.12-4.358s4.49-1.547 4.67-1.284s.432 2.844-1.08 4.318c-1.61 1.569-4.71 1.324-4.71 1.324"/></symbol><symbol id="hd-icon-flowbite-seedling-solid" viewBox="0 0 24 24"><path fill="currentColor" d="m10.972 12.217l-.035.116l.128.186c.327.473.812 1.172 1.214 2.09q.32-.43.744-.884l-.002-.032a8 8 0 0 1 .01-1.29c.087-.998.409-2.37 1.461-3.396c1.008-.982 2.356-1.424 3.405-1.599a7 7 0 0 1 1.43-.099c.195.01.393.03.57.07c.087.02.198.052.311.103c.087.04.31.148.477.392c.146.212.2.46.22.556c.032.15.056.321.072.504c.03.367.03.828-.03 1.329c-.118.983-.487 2.252-1.47 3.21c-1.035 1.01-2.473 1.38-3.52 1.525a10.5 10.5 0 0 1-1.477.097c-.93.999-1.268 1.732-1.407 2.351a4 4 0 0 0-.074.451L13 18v2a1 1 0 1 1-2 0q-.001-.3-.013-.633c-.014-.472-.03-.987.012-1.514c-.036-1.879-.756-2.94-1.402-3.893a17 17 0 0 1-.396-.604l-.166-.035a12 12 0 0 1-1.534-.443c-1.156-.42-2.676-1.184-3.587-2.553c-.906-1.36-1.04-2.963-.96-4.16c.04-.61.139-1.15.244-1.56c.053-.203.11-.387.169-.538c.028-.074.064-.157.107-.237c.021-.04.052-.093.093-.15a1.07 1.07 0 0 1 .677-.43c.086-.015.16-.019.211-.02c.102-.002.202.007.285.018c.17.021.373.061.59.115c.436.108.997.289 1.596.546c1.17.502 2.638 1.363 3.53 2.701c.924 1.389.96 2.996.817 4.147a9.4 9.4 0 0 1-.302 1.46"/></symbol><symbol id="hd-icon-flowbite-server-outline" viewBox="0 0 24 24"><path fill="none" stroke="currentColor" stroke-linecap="round" stroke-linejoin="round" stroke-width="2" d="M5 12a1 1 0 0 0-1 1v4a1 1 0 0 0 1 1h14a1 1 0 0 0 1-1v-4a1 1 0 0 0-1-1M5 12h14M5 12a1 1 0 0 1-1-1V7a1 1 0 0 1 1-1h14a1 1 0 0 1 1 1v4a1 1 0 0 1-1 1m-2 3h.01M14 15h.01M17 9h.01M14 9h.01"/></symbol><symbol id="hd-icon-flowbite-server-solid" viewBox="0 0 24 24"><path fill="currentColor" fill-rule="evenodd" d="M5 5a2 2 0 0 0-2 2v3a1 1 0 0 0 1 1h16a1 1 0 0 0 1-1V7a2 2 0 0 0-2-2zm9 2a1 1 0 1 0 0 2h.01a1 1 0 1 0 0-2zm3 0a1 1 0 1 0 0 2h.01a1 1 0 1 0 0-2zM3 17v-3a1 1 0 0 1 1-1h16a1 1 0 0 1 1 1v3a2 2 0 0 1-2 2H5a2 2 0 0 1-2-2m11-2a1 1 0 1 0 0 2h.01a1 1 0 1 0 0-2zm3 0a1 1 0 1 0 0 2h.01a1 1 0 1 0 0-2z" clip-rule="evenodd"/></symbol><symbol id="hd-icon-flowbite-shapes-outline" viewBox="0 0 24 24"><path fill="none" stroke="currentColor" stroke-linejoin="round" stroke-width="2" d="M4.071 14v6h6v-6zm4.5-4h7l-3.5-6zm8 10a3.5 3.5 0 1 0 0-7a3.5 3.5 0 0 0 0 7Z"/></symbol><symbol id="hd-icon-flowbite-shapes-solid" viewBox="0 0 24 24"><path fill="currentColor" d="M12.864 3.496a1 1 0 0 0-1.728 0l-3.5 6A1 1 0 0 0 8.5 11h7a1 1 0 0 0 .864-1.504zM4 13a1 1 0 0 0-1 1v6a1 1 0 0 0 1 1h6a1 1 0 0 0 1-1v-6a1 1 0 0 0-1-1zm12.5-1a4.5 4.5 0 1 0 0 9a4.5 4.5 0 0 0 0-9"/></symbol><symbol id="hd-icon-flowbite-share-all-outline" viewBox="0 0 24 24"><path fill="none" stroke="currentColor" stroke-linecap="round" stroke-linejoin="round" stroke-width="2" d="m15.141 6l5.518 4.95a1.05 1.05 0 0 1 0 1.549l-5.612 5.088m-6.154-3.214v1.615a.95.95 0 0 0 1.525.845l5.108-4.251a1.1 1.1 0 0 0 0-1.646l-5.108-4.251a.95.95 0 0 0-1.525.846v1.7c-3.312 0-6 2.979-6 6.654v1.329a.7.7 0 0 0 1.344.353a5.17 5.17 0 0 1 4.652-3.191z"/></symbol><symbol id="hd-icon-flowbite-share-all-solid" viewBox="0 0 24 24"><path fill="currentColor" fill-rule="evenodd" d="M14.516 6.743c-.41-.368-.443-1-.077-1.41a.99.99 0 0 1 1.405-.078l5.487 4.948l.007.006A2.05 2.05 0 0 1 22 11.721a2.06 2.06 0 0 1-.662 1.51l-5.584 5.09a.99.99 0 0 1-1.404-.07a1.003 1.003 0 0 1 .068-1.412l5.578-5.082a.05.05 0 0 0 .015-.036a.05.05 0 0 0-.015-.036zm-6.543 9.199v-.42a4.17 4.17 0 0 0-2.715 2.415c-.154.382-.44.695-.806.88a1.683 1.683 0 0 1-2.167-.571a1.7 1.7 0 0 1-.279-1.092V15.88c0-3.77 2.526-7.039 5.967-7.573V7.57a1.96 1.96 0 0 1 .993-1.838a1.93 1.93 0 0 1 2.153.184l5.08 4.248l.012.011l.011.01a2.1 2.1 0 0 1 .703 1.57a2.1 2.1 0 0 1-.726 1.59l-5.08 4.25a1.933 1.933 0 0 1-2.929-.614a1.96 1.96 0 0 1-.217-1.04Z" clip-rule="evenodd"/></symbol><symbol id="hd-icon-flowbite-share-nodes-outline" viewBox="0 0 24 24"><path fill="none" stroke="currentColor" stroke-linecap="round" stroke-width="2" d="M7.926 10.898L15 7.727m-7.074 5.39L15 16.29M8 12a2.5 2.5 0 1 1-5 0a2.5 2.5 0 0 1 5 0Zm12 5.5a2.5 2.5 0 1 1-5 0a2.5 2.5 0 0 1 5 0Zm0-11a2.5 2.5 0 1 1-5 0a2.5 2.5 0 0 1 5 0Z"/></symbol><symbol id="hd-icon-flowbite-share-nodes-solid" viewBox="0 0 24 24"><path fill="currentColor" d="M17.5 3a3.5 3.5 0 0 0-3.456 4.06L8.143 9.704a3.5 3.5 0 1 0-.01 4.6l5.91 2.65a3.5 3.5 0 1 0 .863-1.805l-5.94-2.662a3.5 3.5 0 0 0 .002-.961l5.948-2.667A3.5 3.5 0 1 0 17.5 3"/></symbol><symbol id="hd-icon-flowbite-shield-check-outline" viewBox="0 0 24 24"><path fill="none" stroke="currentColor" stroke-linecap="round" stroke-linejoin="round" stroke-width="2" d="M9.5 11.5L11 13l4-3.5M12 20a16.4 16.4 0 0 1-5.092-5.804A16.7 16.7 0 0 1 5 6.666L12 4l7 2.667a16.7 16.7 0 0 1-1.908 7.529A16.4 16.4 0 0 1 12 20"/></symbol><symbol id="hd-icon-flowbite-shield-check-solid" viewBox="0 0 24 24"><path fill="currentColor" fill-rule="evenodd" d="M11.644 3.066a1 1 0 0 1 .712 0l7 2.666A1 1 0 0 1 20 6.68a17.7 17.7 0 0 1-2.023 7.98a17.4 17.4 0 0 1-5.402 6.158a1 1 0 0 1-1.15 0a17.4 17.4 0 0 1-5.403-6.157A17.7 17.7 0 0 1 4 6.68a1 1 0 0 1 .644-.949zm4.014 7.187a1 1 0 0 0-1.316-1.506l-3.296 2.884l-.839-.838a1 1 0 0 0-1.414 1.414l1.5 1.5a1 1 0 0 0 1.366.046l4-3.5Z" clip-rule="evenodd"/></symbol><symbol id="hd-icon-flowbite-shield-outline" viewBox="0 0 24 24"><path fill="none" stroke="currentColor" stroke-linecap="round" stroke-linejoin="round" stroke-width="2" d="M12 20a16.4 16.4 0 0 1-5.092-5.804A16.7 16.7 0 0 1 5 6.666L12 4l7 2.667a16.7 16.7 0 0 1-1.908 7.529A16.4 16.4 0 0 1 12 20"/></symbol><symbol id="hd-icon-flowbite-shield-solid" viewBox="0 0 24 24"><path fill="currentColor" d="M12.356 3.066a1 1 0 0 0-.712 0l-7 2.666A1 1 0 0 0 4 6.68a17.7 17.7 0 0 0 2.022 7.98a17.4 17.4 0 0 0 5.403 6.158a1 1 0 0 0 1.15 0a17.4 17.4 0 0 0 5.402-6.157A17.7 17.7 0 0 0 20 6.68a1 1 0 0 0-.644-.949z"/></symbol><symbol id="hd-icon-flowbite-shopping-bag-outline" viewBox="0 0 24 24"><path fill="none" stroke="currentColor" stroke-linecap="round" stroke-linejoin="round" stroke-width="2" d="M9 10V6a3 3 0 0 1 3-3v0a3 3 0 0 1 3 3v4m3-2l.917 11.923A1 1 0 0 1 17.92 21H6.08a1 1 0 0 1-.997-1.077L6 8z"/></symbol><symbol id="hd-icon-flowbite-shopping-bag-solid" viewBox="0 0 24 24"><path fill="currentColor" fill-rule="evenodd" d="M14 7h-4v3a1 1 0 0 1-2 0V7H6a1 1 0 0 0-.997.923l-.917 11.924A2 2 0 0 0 6.08 22h11.84a2 2 0 0 0 1.994-2.153l-.917-11.924A1 1 0 0 0 18 7h-2v3a1 1 0 1 1-2 0zm-2-3a2 2 0 0 0-2 2v1H8V6a4 4 0 0 1 8 0v1h-2V6a2 2 0 0 0-2-2" clip-rule="evenodd"/></symbol><symbol id="hd-icon-flowbite-shrimp-outline" viewBox="0 0 24 24"><path fill="none" stroke="currentColor" stroke-linecap="round" stroke-linejoin="round" stroke-width="2" d="M13.524 12.47H8a3 3 0 0 1-3-3V8h5m3.524 4.47a2.265 2.265 0 1 1 0 4.53H11a2 2 0 0 0-2 2v1h6.5m-1.976-7.53L15.5 7.764M10 8c1.846-1.251 3.077-1.408 5.5-.236M10 8v4.47L8 14m7.5-6.236c3.18-.245 5.556 2.362 4.754 5.45a51 51 0 0 1-.359 1.31c.017.812-.006 1.488-.063 2.088C19.632 18.702 17.6 20 15.5 20m0 0l-1.204-3.135M15.668 14h4.375M10 4H6a2 2 0 1 0 0 4"/></symbol><symbol id="hd-icon-flowbite-shrimp-solid" viewBox="0 0 24 24"><path fill="currentColor" d="M6 5a1 1 0 0 0-.001 2H9v7.494l-.392.3a1 1 0 0 1-1.402-1.403A4 4 0 0 1 4 9.471V8.235A3 3 0 0 1 6 3h4a1 1 0 1 1 0 2zm5 8.47h.979l2.992-7.03c-.88-.34-1.69-.512-2.496-.465c-.52.03-1.004.15-1.475.337zm5.974-6.628L14.352 13h6.972c.548-3.073-1.48-5.643-4.35-6.158M20.9 15h-6.138a1.3 1.3 0 0 1-.109.306l2.388 5.493c1.89-.497 3.576-1.902 3.786-4.092c.05-.515.074-1.075.073-1.707m-5.952 6l-2.174-5H11a3 3 0 0 0-3 3v2z"/></symbol><symbol id="hd-icon-flowbite-shuffle-outline" viewBox="0 0 24 24"><path fill="none" stroke="currentColor" stroke-linecap="round" stroke-linejoin="round" stroke-width="2" d="M13.484 9.166L15 7h5m0 0l-3-3m3 3l-3 3M4 17h4l1.577-2.253M4 7h4l7 10h5m0 0l-3 3m3-3l-3-3"/></symbol><symbol id="hd-icon-flowbite-shuffle-solid" viewBox="0 0 24 24"><path fill="currentColor" fill-rule="evenodd" d="M16.3 3.3a1 1 0 0 1 1.4 0l3 3c.4.4.4 1 0 1.4l-3 3a1 1 0 0 1-1.4-1.4L17.6 8h-2l-1.3 1.7a1 1 0 1 1-1.6-1.1l1.5-2.2c.2-.2.5-.4.8-.4h2.6l-1.3-1.3a1 1 0 0 1 0-1.4M3 7c0-.6.4-1 1-1h4c.3 0 .6.2.8.4l6.7 9.6h2l-1.2-1.3a1 1 0 0 1 1.4-1.4l3 3c.4.4.4 1 0 1.4l-3 3a1 1 0 0 1-1.4-1.4l1.3-1.3H15a1 1 0 0 1-.8-.4L7.5 8H4a1 1 0 0 1-1-1m7.2 7c.4.2.5.9.2 1.3l-1.6 2.3a1 1 0 0 1-.8.4H4a1 1 0 1 1 0-2h3.5l1.3-1.8a1 1 0 0 1 1.4-.3Z" clip-rule="evenodd"/></symbol><symbol id="hd-icon-flowbite-sort-horizontal-outline" viewBox="0 0 24 24"><path fill="none" stroke="currentColor" stroke-linecap="round" stroke-linejoin="round" stroke-width="2" d="M4 16h13M4 16l4-4m-4 4l4 4M20 8H7m13 0l-4 4m4-4l-4-4"/></symbol><symbol id="hd-icon-flowbite-sort-outline" viewBox="0 0 24 24"><path fill="none" stroke="currentColor" stroke-linecap="round" stroke-linejoin="round" stroke-width="2" d="M8 20V10m0 10l-3-3m3 3l3-3m5-13v10m0-10l3 3m-3-3l-3 3"/></symbol><symbol id="hd-icon-flowbite-sort-solid" viewBox="0 0 24 24"><g fill="none" stroke="currentColor" stroke-linecap="round" stroke-width="2"><path d="M8 19.5V10m8-5.5V14"/><path stroke-linejoin="round" d="m5 17l3 3l3-3m8-10l-3-3l-3 3"/></g></symbol><symbol id="hd-icon-flowbite-split-cells-outline" viewBox="0 0 24 24"><path fill="none" stroke="currentColor" stroke-linecap="round" stroke-linejoin="round" stroke-width="2" d="M4 18v2h6V4H4v2m16 12v2h-6V4h6v2M6.495 14.495L4 12m0 0l2.495-2.495M4 12h5.948m7.498 2.554L20 12m0 0l-2.554-2.554M20 12h-5.832"/></symbol><symbol id="hd-icon-flowbite-stackoverflow-solid" viewBox="0 0 24 24"><g fill="currentColor"><path d="M17 20v-5h2v6.988H3V15h1.98v5z"/><path d="m6.84 14.522l8.73 1.825l.369-1.755l-8.73-1.825zm1.155-4.323l8.083 3.764l.739-1.617l-8.083-3.787zm3.372-5.481L10.235 6.08l6.859 5.704l1.132-1.362zM15.57 17H6.655v2h8.915zM12.861 3.111l6.193 6.415l1.414-1.415l-6.43-6.177z"/></g></symbol><symbol id="hd-icon-flowbite-star-half-outline" viewBox="0 0 24 24"><path fill="none" stroke="currentColor" stroke-width="2" d="m12.25 20.825l4.247-2.436a1 1 0 0 0 .503-.867V4.03c0-.405-2.062 3.38-2.8 4.747a1 1 0 0 1-.807.523l-4.87.367c-.903.068-1.258 1.208-.55 1.776l3.576 2.878a1 1 0 0 1 .343 1.025l-1.11 4.366c-.217.856.701 1.553 1.468 1.113Z"/></symbol><symbol id="hd-icon-flowbite-star-half-solid" viewBox="0 0 24 24"><path fill="currentColor" fill-rule="evenodd" d="M13 4.024v-.005c0-.053.002-.353-.217-.632a1.01 1.01 0 0 0-1.176-.315c-.192.076-.315.193-.35.225c-.052.05-.094.1-.122.134a4 4 0 0 0-.31.457c-.207.343-.484.84-.773 1.375a169 169 0 0 0-1.606 3.074h-.002l-4.599.367c-1.775.14-2.495 2.339-1.143 3.488L6.17 15.14l-1.06 4.406c-.412 1.72 1.472 3.078 2.992 2.157l3.94-2.388c.592-.359.958-.996.958-1.692v-13.6Zm-2.002 0v.025z" clip-rule="evenodd"/></symbol><symbol id="hd-icon-flowbite-star-half-stroke-outline" viewBox="0 0 24 24"><path fill="none" stroke="currentColor" stroke-width="2" d="M12 4.392v14.832M8.476 9.38l-4.553.36c-.888.07-1.248 1.165-.572 1.737l3.47 2.934a.98.98 0 0 1 .322.98l-1.06 4.388c-.206.855.736 1.531 1.497 1.073l3.898-2.351c.32-.193.723-.193 1.044 0l3.898 2.351c.76.458 1.703-.218 1.497-1.073l-1.06-4.388a.98.98 0 0 1 .322-.98l3.47-2.934c.676-.572.316-1.667-.572-1.737l-4.553-.36a1 1 0 0 1-.845-.606l-1.754-4.165c-.342-.812-1.508-.812-1.85 0L9.321 8.774a1 1 0 0 1-.845.606Z"/></symbol><symbol id="hd-icon-flowbite-star-half-stroke-solid" viewBox="0 0 24 24"><path fill="currentColor" d="m13.001 19.927l2.896 1.773c1.52.93 3.405-.442 2.992-2.179l-1.06-4.452l3.468-2.978c1.353-1.162.633-3.382-1.142-3.525L15.603 8.2l-1.754-4.226A1.97 1.97 0 0 0 13 3zM10.999 3c-.36.205-.663.53-.848.974L8.397 8.2l-4.552.366c-1.775.143-2.495 2.363-1.142 3.525l3.468 2.978l-1.06 4.452c-.413 1.737 1.472 3.11 2.992 2.178l2.896-1.773z"/></symbol><symbol id="hd-icon-flowbite-star-outline" viewBox="0 0 24 24"><path fill="none" stroke="currentColor" stroke-width="2" d="M11.083 5.104c.35-.8 1.485-.8 1.834 0l1.752 4.022a1 1 0 0 0 .84.597l4.463.342c.9.069 1.255 1.2.556 1.771l-3.33 2.723a1 1 0 0 0-.337 1.016l1.03 4.119c.214.858-.71 1.552-1.474 1.106l-3.913-2.281a1 1 0 0 0-1.008 0L7.583 20.8c-.764.446-1.688-.248-1.474-1.106l1.03-4.119A1 1 0 0 0 6.8 14.56l-3.33-2.723c-.698-.571-.342-1.702.557-1.771l4.462-.342a1 1 0 0 0 .84-.597z"/></symbol><symbol id="hd-icon-flowbite-star-solid" viewBox="0 0 24 24"><path fill="currentColor" d="M13.849 4.22c-.684-1.626-3.014-1.626-3.698 0L8.397 8.387l-4.552.361c-1.775.14-2.495 2.331-1.142 3.477l3.468 2.937l-1.06 4.392c-.413 1.713 1.472 3.067 2.992 2.149L12 19.35l3.897 2.354c1.52.918 3.405-.436 2.992-2.15l-1.06-4.39l3.468-2.938c1.353-1.146.633-3.336-1.142-3.477l-4.552-.36z"/></symbol><symbol id="hd-icon-flowbite-stop-outline" viewBox="0 0 24 24"><rect width="12" height="12" x="6" y="6" fill="none" stroke="currentColor" stroke-linejoin="round" stroke-width="2" rx="1"/></symbol><symbol id="hd-icon-flowbite-stop-solid" viewBox="0 0 24 24"><path fill="currentColor" d="M7 5a2 2 0 0 0-2 2v10a2 2 0 0 0 2 2h10a2 2 0 0 0 2-2V7a2 2 0 0 0-2-2z"/></symbol><symbol id="hd-icon-flowbite-store-outline" viewBox="0 0 24 24"><path fill="none" stroke="currentColor" stroke-linecap="round" stroke-linejoin="round" stroke-width="2" d="M6 12c.263 0 .524-.06.767-.175a2 2 0 0 0 .65-.491c.186-.21.333-.46.433-.734s.15-.568.15-.864a2.4 2.4 0 0 0 .586 1.591c.375.422.884.659 1.414.659s1.04-.237 1.414-.659A2.4 2.4 0 0 0 12 9.736a2.4 2.4 0 0 0 .586 1.591c.375.422.884.659 1.414.659s1.04-.237 1.414-.659A2.4 2.4 0 0 0 16 9.736c0 .295.052.588.152.861s.248.521.434.73a2 2 0 0 0 .649.488a1.8 1.8 0 0 0 1.53 0a2 2 0 0 0 .65-.488c.185-.209.332-.457.433-.73s.152-.566.152-.861c0-.974-1.108-3.85-1.618-5.121A.98.98 0 0 0 17.466 4H6.456a.99.99 0 0 0-.93.645C5.045 5.962 4 8.905 4 9.736c.023.59.241 1.148.611 1.567c.37.418.865.667 1.389.697m0 0c.328 0 .651-.091.94-.266A2.1 2.1 0 0 0 7.66 11h.681a2.1 2.1 0 0 0 .718.734c.29.175.613.266.942.266s.651-.091.94-.266c.29-.174.537-.427.719-.734h.681a2.1 2.1 0 0 0 .719.734c.289.175.612.266.94.266c.329 0 .652-.091.942-.266c.29-.174.536-.427.718-.734h.681c.183.307.43.56.719.734c.29.174.613.266.941.266a1.8 1.8 0 0 0 1.06-.351M6 12a1.77 1.77 0 0 1-1.163-.476M5 12v7a1 1 0 0 0 1 1h2v-5h3v5h7a1 1 0 0 0 1-1v-7m-5 3v2h2v-2z"/></symbol><symbol id="hd-icon-flowbite-store-solid" viewBox="0 0 24 24"><path fill="currentColor" fill-rule="evenodd" d="M5.535 7.677c.313-.98.687-2.023.926-2.677H17.46c.253.63.646 1.64.977 2.61c.166.487.312.953.416 1.347c.11.42.148.675.148.779c0 .18-.032.355-.09.515c-.06.161-.144.3-.243.412q-.152.166-.324.245a.8.8 0 0 1-.686 0a1 1 0 0 1-.324-.245q-.152-.169-.242-.412a1.5 1.5 0 0 1-.091-.515a1 1 0 1 0-2 0a1.4 1.4 0 0 1-.333.927a.9.9 0 0 1-.667.323a.9.9 0 0 1-.667-.323A1.4 1.4 0 0 1 13 9.736a1 1 0 1 0-2 0a1.4 1.4 0 0 1-.333.927a.9.9 0 0 1-.667.323a.9.9 0 0 1-.667-.323A1.4 1.4 0 0 1 9 9.74v-.008a1 1 0 0 0-2 .003v.008a1.5 1.5 0 0 1-.18.712a1.2 1.2 0 0 1-.146.209l-.007.007a1 1 0 0 1-.325.248a.8.8 0 0 1-.316.08a.97.97 0 0 1-.563-.256a1 1 0 0 1-.102-.103A1.52 1.52 0 0 1 5 9.724v-.006a3 3 0 0 1 .029-.207q.035-.198.11-.49c.098-.385.237-.85.395-1.344ZM4 12.112a3.52 3.52 0 0 1-1-2.376c0-.349.098-.8.202-1.208c.112-.441.264-.95.428-1.46c.327-1.024.715-2.104.958-2.767A1.985 1.985 0 0 1 6.456 3h11.01c.803 0 1.539.481 1.844 1.243c.258.641.67 1.697 1.019 2.72a22 22 0 0 1 .457 1.487c.114.433.214.903.214 1.286c0 .412-.072.821-.214 1.207A3.3 3.3 0 0 1 20 12.16V19a2 2 0 0 1-2 2h-6a1 1 0 0 1-1-1v-4H8v4a1 1 0 0 1-1 1H6a2 2 0 0 1-2-2zM13 15a1 1 0 0 1 1-1h2a1 1 0 0 1 1 1v2a1 1 0 0 1-1 1h-2a1 1 0 0 1-1-1z" clip-rule="evenodd"/></symbol><symbol id="hd-icon-flowbite-stroopwafel-outline" viewBox="0 0 24 24"><path fill="none" stroke="currentColor" stroke-linecap="round" stroke-linejoin="round" stroke-width="2" d="M21 12a9 9 0 0 1-9 9m9-9a9 9 0 0 0-9-9m9 9h-5m-4 9a9 9 0 0 1-9-9m9 9v-5m-9-4a9 9 0 0 1 9-9m-9 9h5m4-9v5M8 3.936V8m0 0v4m0-4H3.936M8 8h4m-4 4v4m0-4h4m-4 4v4.065M8 16H3.936M8 16h4m0-8v4m0-4h4m-4 4v4m0-4h4m-4 4h4m0-12.064V8m0 0v4m0-4h4.065M16 12v4m0 0v4.065M16 16h4.065"/></symbol><symbol id="hd-icon-flowbite-stroopwafel-solid" viewBox="0 0 24 24"><path fill="currentColor" d="M11 2.05a10 10 0 0 0-2 .408V7h2zM7 3.337A10.05 10.05 0 0 0 3.338 7H7zM2.458 9a10 10 0 0 0-.409 2H7V9zm-.409 4a10 10 0 0 0 .409 2H7v-2zm1.289 4A10.05 10.05 0 0 0 7 20.662V17zM9 21.542q.963.304 2 .409V17H9zm4 .409a10 10 0 0 0 2-.409V17h-2zm4-1.289A10.05 10.05 0 0 0 20.662 17H17zM21.542 15q.303-.963.409-2H17v2zm.409-4a10 10 0 0 0-.409-2H17v2zm-1.289-4A10.05 10.05 0 0 0 17 3.338V7zM15 2.458a10 10 0 0 0-2-.409V7h2zM9 9h2v2H9zm0 4h2v2H9zm4 0v2h2v-2zm0-2h2V9h-2z"/></symbol><symbol id="hd-icon-flowbite-subscript-outline" viewBox="0 0 24 24"><path fill="none" stroke="currentColor" stroke-linecap="round" stroke-linejoin="round" stroke-width="2" d="M20 20h-4v-.5c1.099-1.033 3.75-2.5 3.75-3.5v-1a1 1 0 0 0-1-1H17a1 1 0 0 0-1 1M4 4l9.122 11.393m0-11.393L4 15.393"/></symbol><symbol id="hd-icon-flowbite-sun-outline" viewBox="0 0 24 24"><path fill="none" stroke="currentColor" stroke-linecap="round" stroke-linejoin="round" stroke-width="2" d="M12 5V3m0 18v-2M7.05 7.05L5.636 5.636m12.728 12.728L16.95 16.95M5 12H3m18 0h-2M7.05 16.95l-1.414 1.414M18.364 5.636L16.95 7.05M16 12a4 4 0 1 1-8 0a4 4 0 0 1 8 0"/></symbol><symbol id="hd-icon-flowbite-sun-solid" viewBox="0 0 24 24"><path fill="currentColor" fill-rule="evenodd" d="M13 3a1 1 0 1 0-2 0v2a1 1 0 1 0 2 0zM6.343 4.929A1 1 0 0 0 4.93 6.343l1.414 1.414a1 1 0 0 0 1.414-1.414zm12.728 1.414a1 1 0 0 0-1.414-1.414l-1.414 1.414a1 1 0 0 0 1.414 1.414zM12 7a5 5 0 1 0 0 10a5 5 0 0 0 0-10m-9 4a1 1 0 1 0 0 2h2a1 1 0 1 0 0-2zm16 0a1 1 0 1 0 0 2h2a1 1 0 1 0 0-2zM7.757 17.657a1 1 0 1 0-1.414-1.414l-1.414 1.414a1 1 0 1 0 1.414 1.414zm9.9-1.414a1 1 0 0 0-1.414 1.414l1.414 1.414a1 1 0 0 0 1.414-1.414zM13 19a1 1 0 1 0-2 0v2a1 1 0 1 0 2 0z" clip-rule="evenodd"/></symbol><symbol id="hd-icon-flowbite-superscript-outline" viewBox="0 0 24 24"><path fill="none" stroke="currentColor" stroke-linecap="round" stroke-linejoin="round" stroke-width="2" d="M20 10h-4v-.5C17.099 8.467 19.75 7 19.75 6V5a1 1 0 0 0-1-1H17a1 1 0 0 0-1 1M4 7.303l9.122 11.394m0-11.394L4 18.697"/></symbol><symbol id="hd-icon-flowbite-swatchbook-outline" viewBox="0 0 24 24"><path fill="none" stroke="currentColor" stroke-linecap="round" stroke-width="2" d="M7.111 20A3.11 3.11 0 0 1 4 16.889v-12C4 4.398 4.398 4 4.889 4h4.444a.89.89 0 0 1 .89.889v12A3.11 3.11 0 0 1 7.11 20Zm0 0h12a.89.89 0 0 0 .889-.889v-4.444a.89.89 0 0 0-.889-.89h-4.389a.9.9 0 0 0-.62.253l-3.767 3.665a1 1 0 0 0-.146.185c-.868 1.433-1.581 1.858-3.078 2.12Zm0-3.556h.009m7.933-10.927l3.143 3.143a.89.89 0 0 1 0 1.257l-7.974 7.974v-8.8l3.574-3.574a.89.89 0 0 1 1.257 0Z"/></symbol><symbol id="hd-icon-flowbite-swatchbook-solid" viewBox="0 0 24 24"><path fill="currentColor" d="M20 14h-2.722L11 20.278a5.5 5.5 0 0 1-.9.722H20a1 1 0 0 0 1-1v-5a1 1 0 0 0-1-1M9 3H4a1 1 0 0 0-1 1v13.5a3.5 3.5 0 1 0 7 0V4a1 1 0 0 0-1-1M6.5 18.5a1 1 0 1 1 0-2a1 1 0 0 1 0 2M19.132 7.9L15.6 4.368a1 1 0 0 0-1.414 0L12 6.55v9.9l7.132-7.132a1 1 0 0 0 0-1.418"/></symbol><symbol id="hd-icon-flowbite-t-shirt-outline" viewBox="0 0 24 24"><path fill="none" stroke="currentColor" stroke-linejoin="round" stroke-width="2" d="M9 5h-.167a4 4 0 0 0-2.4.8L3.5 8l2 3.5L8 10v9h8v-9l2.5 1.5l2-3.5l-2.933-2.2a4 4 0 0 0-2.4-.8H15M9 5c0 1.5 1.5 3 3 3s3-1.5 3-3M9 5h6"/></symbol><symbol id="hd-icon-flowbite-t-shirt-solid" viewBox="0 0 24 24"><path fill="currentColor" fill-rule="evenodd" d="M5.833 5a5 5 0 0 1 3-1h6.334a5 5 0 0 1 3 1L21.1 7.2a1 1 0 0 1 .268 1.296l-2 3.5a1 1 0 0 1-1.382.361l-.986-.59V19a1 1 0 0 1-1 1H8a1 1 0 0 1-1-1v-7.234l-.985.591a1 1 0 0 1-1.383-.36l-2-3.5A1 1 0 0 1 2.9 7.2zM14 5h-4c0 .425.223.933.645 1.355c.422.423.93.645 1.355.645s.933-.222 1.355-.645C13.778 5.933 14 5.425 14 5" clip-rule="evenodd"/></symbol><symbol id="hd-icon-flowbite-table-column-outline" viewBox="0 0 24 24"><path fill="none" stroke="currentColor" stroke-width="2" d="M3 11h18m-9 0v8m-8 0h16a1 1 0 0 0 1-1V6a1 1 0 0 0-1-1H4a1 1 0 0 0-1 1v12a1 1 0 0 0 1 1Z"/></symbol><symbol id="hd-icon-flowbite-table-column-solid" viewBox="0 0 24 24"><path fill="currentColor" fill-rule="evenodd" d="M4 4a2 2 0 0 0-2 2v12a2 2 0 0 0 2 2h16a2 2 0 0 0 2-2V6a2 2 0 0 0-2-2zm0 8v6h7v-6zm16 6h-7v-6h7z" clip-rule="evenodd"/></symbol><symbol id="hd-icon-flowbite-table-row-outline" viewBox="0 0 24 24"><path fill="none" stroke="currentColor" stroke-width="2" d="M3 11h18M3 15h18m-9-4v8m-8 0h16a1 1 0 0 0 1-1V6a1 1 0 0 0-1-1H4a1 1 0 0 0-1 1v12a1 1 0 0 0 1 1Z"/></symbol><symbol id="hd-icon-flowbite-table-row-solid" viewBox="0 0 24 24"><path fill="currentColor" fill-rule="evenodd" d="M2 6a2 2 0 0 1 2-2h16a2 2 0 0 1 2 2v12a2 2 0 0 1-2 2H4a2 2 0 0 1-2-2zm2 8v-2h7v2zm0 2v2h7v-2zm9 2h7v-2h-7zm7-4v-2h-7v2z" clip-rule="evenodd"/></symbol><symbol id="hd-icon-flowbite-tablet-outline" viewBox="0 0 24 24"><path fill="none" stroke="currentColor" stroke-linecap="round" stroke-linejoin="round" stroke-width="2" d="M11 18h2M5.875 3h12.25c.483 0 .875.448.875 1v16c0 .552-.392 1-.875 1H5.875C5.392 21 5 20.552 5 20V4c0-.552.392-1 .875-1"/></symbol><symbol id="hd-icon-flowbite-tablet-solid" viewBox="0 0 24 24"><path fill="currentColor" fill-rule="evenodd" d="M4 4c0-.975.718-2 1.875-2h12.25C19.282 2 20 3.025 20 4v16c0 .975-.718 2-1.875 2H5.875C4.718 22 4 20.975 4 20zm7 13a1 1 0 1 0 0 2h2a1 1 0 1 0 0-2z" clip-rule="evenodd"/></symbol><symbol id="hd-icon-flowbite-tag-outline" viewBox="0 0 24 24"><path fill="none" stroke="currentColor" stroke-linecap="round" stroke-linejoin="round" stroke-width="2" d="M15.583 8.445h.01M10.86 19.71l-6.573-6.63a.993.993 0 0 1 0-1.4l7.329-7.394A.98.98 0 0 1 12.31 4l5.734.007A1.97 1.97 0 0 1 20 5.983v5.5a1 1 0 0 1-.316.727l-7.44 7.5a.974.974 0 0 1-1.384.001Z"/></symbol><symbol id="hd-icon-flowbite-tag-solid" viewBox="0 0 24 24"><path fill="currentColor" d="M18.045 3.007L12.31 3a1.97 1.97 0 0 0-1.4.585l-7.33 7.394a2 2 0 0 0 0 2.805l6.573 6.631a1.96 1.96 0 0 0 1.4.585a1.97 1.97 0 0 0 1.4-.585l7.409-7.477A2 2 0 0 0 21 11.479v-5.5a2.97 2.97 0 0 0-2.955-2.972m-2.452 6.438a1 1 0 1 1 0-2a1 1 0 0 1 0 2"/></symbol><symbol id="hd-icon-flowbite-tailwind-solid" viewBox="0 0 24 24"><path fill="currentColor" d="M11.782 5.72a4.773 4.773 0 0 0-4.8 4.173a3.43 3.43 0 0 1 2.741-1.687c1.689 0 2.974 1.972 3.758 2.587a5.73 5.73 0 0 0 5.382.935c2-.638 2.934-2.865 3.137-3.921c-.969 1.379-2.44 2.207-4.259 1.231c-1.253-.673-2.19-3.438-5.959-3.318M6.8 11.979A4.77 4.77 0 0 0 2 16.151a3.43 3.43 0 0 1 2.745-1.687c1.689 0 2.974 1.972 3.758 2.587a5.73 5.73 0 0 0 5.382.935c2-.638 2.933-2.865 3.137-3.921c-.97 1.379-2.44 2.208-4.259 1.231c-1.253-.673-2.19-3.443-5.963-3.317"/></symbol><symbol id="hd-icon-flowbite-teddy-bear-outline" viewBox="0 0 24 24"><path fill="none" stroke="currentColor" stroke-linecap="round" stroke-linejoin="round" stroke-width="2" d="M7.5 15a2.5 2.5 0 1 0 0 5a2.5 2.5 0 0 0 0-5m0 0l1.677-4.17m6.698-3.827C17.012 7.003 18 6.105 18 5s-.922-2-2.059-2c-.896 0-1.685.743-1.968 1.52M8.127 6.995C7.002 6.995 6 6.105 6 5s.912-2 2.038-2c.934 0 1.706.678 1.947 1.52M14 18h-4m6-3l-1.458-3.891m-6.635 2.879l-.449.193a1.868 1.868 0 1 1-1.103-3.568L8.5 10m7.106 3.988l.413.144a1.865 1.865 0 1 0 1.172-3.54l-1.746-.558M12 9.062v-.01m-1.378-1.554v-.01m3.034.01v-.01M16 8a4 4 0 1 1-8 0a4 4 0 0 1 8 0m3 9.5a2.5 2.5 0 1 1-5 0a2.5 2.5 0 0 1 5 0"/></symbol><symbol id="hd-icon-flowbite-teddy-bear-solid" viewBox="0 0 24 24"><path fill="currentColor" fill-rule="evenodd" d="M10.451 3.244C9.911 2.514 9.052 2 8.038 2C6.378 2 5 3.326 5 5c0 1.315.88 2.36 2.004 2.787a5 5 0 0 0 .177 1.55L6.08 9.65a2.868 2.868 0 0 0-.802 5.145A3.5 3.5 0 1 0 10.663 19h2.674a3.5 3.5 0 1 0 5.11-4.409a2.865 2.865 0 0 0-.954-4.953l-.696-.223a5 5 0 0 0 .2-1.588l-.001-.031C18.128 7.367 19 6.311 19 5c0-1.684-1.397-3-3.059-3c-1.005 0-1.841.554-2.384 1.247A5 5 0 0 0 12 3c-.54 0-1.061.086-1.549.244M8.685 4.257c-.49.435-.895.964-1.184 1.56C7.193 5.624 7 5.304 7 5c0-.535.447-1 1.038-1a1 1 0 0 1 .647.257M17 5c0 .31-.19.63-.497.824a5 5 0 0 0-1.174-1.555c.197-.169.423-.269.612-.269C16.553 4 17 4.475 17 5m-2 12.5a1.5 1.5 0 1 0 3 0a1.5 1.5 0 0 0-3 0m-9 0a1.5 1.5 0 1 0 3 0a1.5 1.5 0 0 0-3 0m5.043-10.012a.5.5 0 0 0-1 0v.01a.5.5 0 0 0 1 0zm3.023.01a.5.5 0 0 0-1 0v.01a.5.5 0 1 0 1 0zM13 9.052a1 1 0 1 0-2 0v.01a1 1 0 1 0 2 0z" clip-rule="evenodd"/></symbol><symbol id="hd-icon-flowbite-terminal-outline" viewBox="0 0 24 24"><path fill="none" stroke="currentColor" stroke-linecap="round" stroke-linejoin="round" stroke-width="2" d="m8 9l3 3l-3 3m5 0h3M4 19h16a1 1 0 0 0 1-1V6a1 1 0 0 0-1-1H4a1 1 0 0 0-1 1v12a1 1 0 0 0 1 1"/></symbol><symbol id="hd-icon-flowbite-terminal-solid" viewBox="0 0 24 24"><path fill="currentColor" fill-rule="evenodd" d="M3 4a1 1 0 0 0-1 1v14a1 1 0 0 0 1 1h18a1 1 0 0 0 1-1V5a1 1 0 0 0-1-1zm4.293 5.707a1 1 0 0 1 1.414-1.414l3 3a1 1 0 0 1 0 1.414l-3 3a1 1 0 0 1-1.414-1.414L9.586 12zM13 14a1 1 0 1 0 0 2h3a1 1 0 1 0 0-2z" clip-rule="evenodd"/></symbol><symbol id="hd-icon-flowbite-text-size-outline" viewBox="0 0 24 24"><path fill="none" stroke="currentColor" stroke-linecap="round" stroke-linejoin="round" stroke-width="2" d="M3 6.2V5h11v1.2M8 5v14m-3 0h6m2-6.8V11h8v1.2M17 11v8m-1.5 0h3"/></symbol><symbol id="hd-icon-flowbite-text-size-solid" viewBox="0 0 24 24"><path fill="currentColor" fill-rule="evenodd" d="M2 5c0-.6.4-1 1-1h11c.6 0 1 .4 1 1v1.2a1 1 0 1 1-2 0V6H9v12h2a1 1 0 1 1 0 2H5a1 1 0 1 1 0-2h2V6H4v.2a1 1 0 1 1-2 0zm10 6c0-.6.4-1 1-1h8c.6 0 1 .4 1 1v1.2a1 1 0 1 1-2 0V12h-2v6h.5a1 1 0 1 1 0 2h-3a1 1 0 1 1 0-2h.5v-6h-2v.2a1 1 0 1 1-2 0z" clip-rule="evenodd"/></symbol><symbol id="hd-icon-flowbite-text-slash-outline" viewBox="0 0 24 24"><path fill="none" stroke="currentColor" stroke-linecap="round" stroke-linejoin="round" stroke-width="2" d="M7 6.2V5h12v1.2M7 19h6m.2-14l-1.677 6.523M9.6 19l1.029-4M5 5l6.523 6.523M19 19l-7.477-7.477"/></symbol><symbol id="hd-icon-flowbite-text-slash-solid" viewBox="0 0 24 24"><path fill="currentColor" fill-rule="evenodd" d="M13.2 4H7a1 1 0 0 0-1 .6l-.3-.3a1 1 0 0 0-1.4 1.4l14 14a1 1 0 0 0 1.4-1.4l-7-7L14 6h4v.2a1 1 0 1 0 2 0V5c0-.6-.4-1-1-1zM11 9.6L12 6H8v.5l3 3Zm-.1 4.4c.5.2.8.7.7 1.2l-.7 2.8H13a1 1 0 1 1 0 2H7a1 1 0 0 1 0-2h1.8l.9-3.2a1 1 0 0 1 1.2-.8" clip-rule="evenodd"/></symbol><symbol id="hd-icon-flowbite-text-underline-outline" viewBox="0 0 24 24"><path fill="none" stroke="currentColor" stroke-linecap="round" stroke-width="2" d="M5 19h14M7.6 16l4.298-10.93a.11.11 0 0 1 .204 0L16.4 16m-8.8 0H6.5m1.1 0h1.65m7.15 0h-1.65m1.65 0h1.1m-8.333-4h5.66"/></symbol><symbol id="hd-icon-flowbite-theatre-outline" viewBox="0 0 24 24"><path fill="none" stroke="currentColor" stroke-linecap="round" stroke-width="2" d="m7.533 11.862l.01-.003m5.581 7.143c-.5.515-.92.847-1.06.89c-.48.145-5.43-1.28-6.238-3.33c-.81-2.051-1.831-5.816-1.89-6.22c-.06-.404 1.56-1.724 3.597-2.61m1.989 8.055c-.227.262-.39.56-.556.847M13.5 12c.5.5 1 1.049 2 1.049S17 12.5 17.5 12m-4-4h.01m3.99 0h.01M10.5 5.5c0-.29 2.5-1.5 5-1.5s5 1.136 5 1.5V12c0 1.966-4.291 5-5 5c-.743 0-5-3.034-5-5z"/></symbol><symbol id="hd-icon-flowbite-theatre-solid" viewBox="0 0 24 24"><g fill="currentColor" fill-rule="evenodd" clip-rule="evenodd"><path d="m7.5 6.495l-.007.002c-1.37.416-2.572 1.225-3.405 1.893a14 14 0 0 0-1.284 1.165l-.077.081l-.022.024l-.007.007l-.002.003l-.001.002a1 1 0 0 0-.216.961l1.89 6.22c.281.925.907 1.632 1.595 2.158c.69.528 1.497.917 2.254 1.198c.76.284 1.508.471 2.103.58c.297.054.568.09.793.107q.17.014.329.012c.081-.002.243-.008.411-.06c.168-.05.306-.135.374-.18a4 4 0 0 0 .267-.191c.177-.14.382-.32.6-.531l-.23-.115a14 14 0 0 1-2.068-1.307c-.49-.373-1.01-.824-1.49-1.35a1 1 0 0 1-1.707-1.04l.06-.103c.108-.19.237-.417.407-.65A5.4 5.4 0 0 1 7.5 13zm-1.778 4.551a1 1 0 0 0 .581 1.914l.01-.003a1 1 0 1 0-.581-1.914z"/><path d="M15 4c-1.431 0-2.817.425-3.809.822a14 14 0 0 0-1.567.741l-.097.055l-.028.017l-.009.005l-.003.001l-.001.002A1 1 0 0 0 9 6.5V13c0 .967.393 1.826.899 2.53s1.165 1.312 1.807 1.8c.646.493 1.307.89 1.845 1.166c.268.139.517.252.728.334c.104.04.21.078.31.107c.079.022.236.063.411.063s.332-.041.41-.063q.153-.044.311-.107c.21-.082.46-.195.728-.334a12.7 12.7 0 0 0 1.845-1.165c.642-.49 1.301-1.097 1.807-1.801S21 13.967 21 13V6.5c0-.351-.185-.677-.486-.858h-.001l-.003-.002l-.009-.005l-.028-.017l-.097-.055q-.125-.07-.348-.187a14 14 0 0 0-1.22-.554C17.819 4.425 16.433 4 15 4m5 2.5l.514-.858zM13 7a1 1 0 1 0 0 2h.01a1 1 0 1 0 0-2zm4 0a1 1 0 1 0 0 2h.01a1 1 0 1 0 0-2zm-4.707 4.293a1 1 0 0 0 0 1.414l.084.085c.477.483 1.243 1.257 2.623 1.257s2.146-.774 2.623-1.257l.084-.085a1 1 0 0 0-1.414-1.414c-.53.53-.757.756-1.293.756s-.764-.227-1.293-.756a1 1 0 0 0-1.414 0"/></g></symbol><symbol id="hd-icon-flowbite-thumbs-down-outline" viewBox="0 0 24 24"><path fill="none" stroke="currentColor" stroke-linecap="round" stroke-linejoin="round" stroke-width="2" d="M17 13c-.889.086-1.416.543-2.156 1.057a22.3 22.3 0 0 0-3.958 5.084a1.6 1.6 0 0 1-.582.628a1.55 1.55 0 0 1-1.466.087a1.6 1.6 0 0 1-.537-.406a1.67 1.67 0 0 1-.384-1.279l1.389-4.114M17 13h3V6.5A1.5 1.5 0 0 0 18.5 5v0A1.5 1.5 0 0 0 17 6.5zm-6.5 1H5.585c-.286 0-.372-.014-.626-.15a1.8 1.8 0 0 1-.637-.572a1.87 1.87 0 0 1-.215-1.673l2.098-6.4C6.462 4.48 6.632 4 7.88 4c2.302 0 4.79.943 6.67 1.475"/></symbol><symbol id="hd-icon-flowbite-thumbs-down-solid" viewBox="0 0 24 24"><path fill="currentColor" fill-rule="evenodd" d="M8.97 14.316H5.004c-.322 0-.64-.08-.925-.232a2 2 0 0 1-.717-.645a2.1 2.1 0 0 1-.242-1.883l2.36-7.201C5.769 3.54 5.96 3 7.365 3c2.072 0 4.276.678 6.156 1.256c.473.145.925.284 1.35.404h.114v9.862a25.5 25.5 0 0 0-4.238 5.514c-.197.376-.516.67-.901.83a1.74 1.74 0 0 1-1.21.048a1.8 1.8 0 0 1-.96-.757a1.87 1.87 0 0 1-.269-1.211l1.562-4.63ZM19.822 14H17V6a2 2 0 1 1 4 0v6.823c0 .65-.527 1.177-1.177 1.177Z" clip-rule="evenodd"/></symbol><symbol id="hd-icon-flowbite-thumbs-up-outline" viewBox="0 0 24 24"><path fill="none" stroke="currentColor" stroke-linecap="round" stroke-linejoin="round" stroke-width="2" d="M7 11c.889-.086 1.416-.543 2.156-1.057a22.3 22.3 0 0 0 3.958-5.084a1.6 1.6 0 0 1 .582-.628a1.55 1.55 0 0 1 1.466-.087c.205.095.388.233.537.406a1.64 1.64 0 0 1 .384 1.279l-1.388 4.114M7 11H4v6.5A1.5 1.5 0 0 0 5.5 19v0A1.5 1.5 0 0 0 7 17.5zm6.5-1h4.915c.286 0 .372.014.626.15s.472.332.637.572a1.87 1.87 0 0 1 .215 1.673l-2.098 6.4C17.538 19.52 17.368 20 16.12 20c-2.303 0-4.79-.943-6.67-1.475"/></symbol><symbol id="hd-icon-flowbite-thumbs-up-solid" viewBox="0 0 24 24"><path fill="currentColor" fill-rule="evenodd" d="M15.03 9.684h3.965c.322 0 .64.08.925.232s.532.374.717.645a2.11 2.11 0 0 1 .242 1.883l-2.36 7.201c-.288.814-.48 1.355-1.884 1.355c-2.072 0-4.276-.677-6.157-1.256c-.472-.145-.924-.284-1.348-.404h-.115V9.478a25.5 25.5 0 0 0 4.238-5.514a1.8 1.8 0 0 1 .901-.83a1.74 1.74 0 0 1 1.21-.048c.396.13.736.397.96.757c.225.36.32.788.269 1.211zM4.177 10H7v8a2 2 0 1 1-4 0v-6.823C3 10.527 3.527 10 4.176 10Z" clip-rule="evenodd"/></symbol><symbol id="hd-icon-flowbite-thumbtack-outline" viewBox="0 0 24 24"><path fill="none" stroke="currentColor" stroke-linecap="round" stroke-width="2" d="M12 20v-4M7 4h10M9 5v5c0 .552-.47 1.005-.948 1.279c-1.435.822-2.602 3.245-2.257 4.365c.078.254.354.356.62.356h11.17c.266 0 .542-.102.62-.356c.345-1.12-.822-3.543-2.256-4.365c-.48-.274-.949-.727-.949-1.279V5a1 1 0 0 0-1-1h-4a1 1 0 0 0-1 1Z"/></symbol><symbol id="hd-icon-flowbite-thumbtack-solid" viewBox="0 0 24 24"><path fill="currentColor" d="M8 5v4.997a.3.3 0 0 1-.068.113c-.08.098-.213.207-.378.301c-.947.543-1.713 1.54-2.191 2.488A6.2 6.2 0 0 0 4.82 14.4c-.1.48-.138 1.031.018 1.539C5.12 16.846 6.02 17 6.414 17H11v3a1 1 0 1 0 2 0v-3h4.586c.395 0 1.295-.154 1.575-1.061c.156-.508.118-1.059.017-1.539a6.2 6.2 0 0 0-.541-1.5c-.479-.95-1.244-1.946-2.191-2.489a1.4 1.4 0 0 1-.378-.301a.3.3 0 0 1-.068-.113V5h1a1 1 0 1 0 0-2H7a1 1 0 1 0 0 2z"/></symbol><symbol id="hd-icon-flowbite-ticket-outline" viewBox="0 0 24 24"><path fill="none" stroke="currentColor" stroke-linecap="round" stroke-linejoin="round" stroke-width="2" d="M18.5 12A2.5 2.5 0 0 1 21 9.5V7a1 1 0 0 0-1-1H4a1 1 0 0 0-1 1v2.5a2.5 2.5 0 0 1 0 5V17a1 1 0 0 0 1 1h16a1 1 0 0 0 1-1v-2.5a2.5 2.5 0 0 1-2.5-2.5"/></symbol><symbol id="hd-icon-flowbite-ticket-solid" viewBox="0 0 24 24"><path fill="currentColor" d="M4 5a2 2 0 0 0-2 2v2.5a1 1 0 0 0 1 1a1.5 1.5 0 1 1 0 3a1 1 0 0 0-1 1V17a2 2 0 0 0 2 2h16a2 2 0 0 0 2-2v-2.5a1 1 0 0 0-1-1a1.5 1.5 0 1 1 0-3a1 1 0 0 0 1-1V7a2 2 0 0 0-2-2z"/></symbol><symbol id="hd-icon-flowbite-toggle-header-cell-outline" viewBox="0 0 24 24"><path fill="none" stroke="currentColor" stroke-linecap="round" stroke-linejoin="round" stroke-width="2" d="M3 15v3a1 1 0 0 0 1 1h10M3 15v-4m0 4h9m-9-4V6a1 1 0 0 1 1-1h16a1 1 0 0 1 1 1v3M3 11h11m-2-.208V19m3-4h1.99M21 15a2 2 0 1 1-4 0a2 2 0 0 1 4 0"/></symbol><symbol id="hd-icon-flowbite-toggle-header-column-outline" viewBox="0 0 24 24"><path fill="none" stroke="currentColor" stroke-linecap="round" stroke-linejoin="round" stroke-width="2" d="M15 5v14m6-8h-6m6 4h-6m-9-3h1.99M4 19h16a1 1 0 0 0 1-1V6a1 1 0 0 0-1-1H4a1 1 0 0 0-1 1v12a1 1 0 0 0 1 1m8-7a2 2 0 1 1-4 0a2 2 0 0 1 4 0"/></symbol><symbol id="hd-icon-flowbite-toggle-header-row-outline" viewBox="0 0 24 24"><path fill="none" stroke="currentColor" stroke-linecap="round" stroke-linejoin="round" stroke-width="2" d="M3 15v3a1 1 0 0 0 1 1h16a1 1 0 0 0 1-1v-3M3 15V6a1 1 0 0 1 1-1h16a1 1 0 0 1 1 1v9M3 15h18M8 15v4m4-4v4m4-4v4m-7-9h1.99M15 10a2 2 0 1 1-4 0a2 2 0 0 1 4 0"/></symbol><symbol id="hd-icon-flowbite-tools-outline" viewBox="0 0 24 24"><path fill="none" stroke="currentColor" stroke-linejoin="round" stroke-width="2" d="m7.582 8.96l2.232 2.232l-1.618 1.618a3.523 3.523 0 0 0-3.697 5.12a1 1 0 0 0 .936.53a1 1 0 0 0 .53.936a3.522 3.522 0 0 0 5.12-3.697l4.81-4.811a3.523 3.523 0 0 0 3.697-5.12a1 1 0 0 0-.935-.53a1 1 0 0 0-.531-.936a3.523 3.523 0 0 0-5.12 3.697l-1.778 1.778l-2.232-2.231zm1.31-3.14a1 1 0 0 0-.536-.761L6.374 4.046a1 1 0 0 0-1.162.183l-.863.863a1 1 0 0 0-.183 1.162l1.013 1.982a1 1 0 0 0 .762.537l1.112.144a1 1 0 0 0 .836-.285l.863-.863a1 1 0 0 0 .285-.835zm10.553 10.585l-3.119-3.119a2 2 0 0 0-2.828 0l-.172.173a2 2 0 0 0 0 2.828l3.118 3.119a2 2 0 0 0 2.829 0l.172-.172a2 2 0 0 0 0-2.829Z"/></symbol><symbol id="hd-icon-flowbite-tracking-outline" viewBox="0 0 24 24"><path fill="none" stroke="currentColor" stroke-linecap="round" stroke-width="2" d="M5 19h4m6 0h4m-6.963-4.384V8.634L17 5.94m-4.93 2.662L7.042 5.94M12 2.997l5.033 2.906v5.812L12 14.62l-5.033-2.906V5.903zM14 19a2 2 0 1 1-4 0a2 2 0 0 1 4 0Z"/></symbol><symbol id="hd-icon-flowbite-tracking-solid" viewBox="0 0 24 24"><g fill="currentColor"><path fill-rule="evenodd" d="M9.166 19.986A1 1 0 0 1 9 20H5a1 1 0 1 1 0-2h4q.085 0 .166.014a3.001 3.001 0 0 1 5.668 0A1 1 0 0 1 15 18h4a1 1 0 1 1 0 2h-4q-.084 0-.166-.014a3.001 3.001 0 0 1-5.668 0M11 19a1 1 0 1 1 2 0a1 1 0 0 1-2 0" clip-rule="evenodd"/><path d="M11.5 2.131a1 1 0 0 1 1 0l4.601 2.657q-.09.028-.179.075L12.08 7.475L6.946 4.76zM5.967 6.505v5.21a1 1 0 0 0 .5.866l4.57 2.638V9.186zm7.07 8.671l4.496-2.595a1 1 0 0 0 .5-.866v-5.2a1 1 0 0 1-.161.108l-4.835 2.608z"/></g></symbol><symbol id="hd-icon-flowbite-trash-bin-outline" viewBox="0 0 24 24"><path fill="none" stroke="currentColor" stroke-linecap="round" stroke-linejoin="round" stroke-width="2" d="M5 7h14m-9 3v8m4-8v8M10 3h4a1 1 0 0 1 1 1v3H9V4a1 1 0 0 1 1-1M6 7h12v13a1 1 0 0 1-1 1H7a1 1 0 0 1-1-1z"/></symbol><symbol id="hd-icon-flowbite-trash-bin-solid" viewBox="0 0 24 24"><path fill="currentColor" fill-rule="evenodd" d="M8.586 2.586A2 2 0 0 1 10 2h4a2 2 0 0 1 2 2v2h3a1 1 0 1 1 0 2v12a2 2 0 0 1-2 2H7a2 2 0 0 1-2-2V8a1 1 0 0 1 0-2h3V4a2 2 0 0 1 .586-1.414M10 6h4V4h-4zm1 4a1 1 0 1 0-2 0v8a1 1 0 1 0 2 0zm4 0a1 1 0 1 0-2 0v8a1 1 0 1 0 2 0z" clip-rule="evenodd"/></symbol><symbol id="hd-icon-flowbite-truck-clock-outline" viewBox="0 0 24 24"><path fill="none" stroke="currentColor" stroke-linecap="round" stroke-linejoin="round" stroke-width="2" d="M13 7h6l2 4m-8-4v8H9m4-8V6a1 1 0 0 0-1-1H4a1 1 0 0 0-1 1v9h2m14 0h2v-4m0 0h-5M8 8.667V10l1.5 1.5m10 5a2.5 2.5 0 1 1-5 0a2.5 2.5 0 0 1 5 0m-10 0a2.5 2.5 0 1 1-5 0a2.5 2.5 0 0 1 5 0"/></symbol><symbol id="hd-icon-flowbite-truck-clock-solid" viewBox="0 0 24 24"><path fill="currentColor" fill-rule="evenodd" d="M2.586 4.586A2 2 0 0 1 4 4h8a2 2 0 0 1 2 2h5a1 1 0 0 1 .894.553l2 4c.07.139.106.292.106.447v4a1 1 0 0 1-1 1h-.535a3.5 3.5 0 1 1-6.93 0h-3.07a3.5 3.5 0 1 1-6.93 0H3a1 1 0 0 1-1-1V6a2 2 0 0 1 .586-1.414M18.208 15.61a1.497 1.497 0 0 0-2.416 0a1.5 1.5 0 1 0 2.416 0m-10 0a1.498 1.498 0 0 0-2.416 0a1.5 1.5 0 1 0 2.416 0m5.79-7.612v2.02h5.396l-1-2.02zM9 8.667a1 1 0 1 0-2 0V10a1 1 0 0 0 .293.707l1.5 1.5a1 1 0 0 0 1.414-1.414L9 9.586z" clip-rule="evenodd"/></symbol><symbol id="hd-icon-flowbite-truck-outline" viewBox="0 0 24 24"><path fill="none" stroke="currentColor" stroke-linecap="round" stroke-linejoin="round" stroke-width="2" d="M13 7h6l2 4m-8-4v8m0-8V6a1 1 0 0 0-1-1H4a1 1 0 0 0-1 1v9h2m8 0H9m4 0h2m4 0h2v-4m0 0h-5m3.5 5.5a2.5 2.5 0 1 1-5 0a2.5 2.5 0 0 1 5 0m-10 0a2.5 2.5 0 1 1-5 0a2.5 2.5 0 0 1 5 0"/></symbol><symbol id="hd-icon-flowbite-truck-solid" viewBox="0 0 24 24"><path fill="currentColor" fill-rule="evenodd" d="M4 4a2 2 0 0 0-2 2v9a1 1 0 0 0 1 1h.535a3.5 3.5 0 1 0 6.93 0h3.07a3.5 3.5 0 1 0 6.93 0H21a1 1 0 0 0 1-1v-4a1 1 0 0 0-.106-.447l-2-4A1 1 0 0 0 19 6h-5a2 2 0 0 0-2-2zm14.192 11.59l.016.02a1.5 1.5 0 1 1-.016-.021Zm-10 0l.016.02a1.5 1.5 0 1 1-.016-.021Zm5.806-5.572v-2.02h4.396l1 2.02z" clip-rule="evenodd"/></symbol><symbol id="hd-icon-flowbite-twitter-solid" viewBox="0 0 24 24"><path fill="currentColor" fill-rule="evenodd" d="M22 5.892a8.2 8.2 0 0 1-2.355.635a4.07 4.07 0 0 0 1.8-2.235a8.3 8.3 0 0 1-2.605.981A4.13 4.13 0 0 0 15.85 4a4.07 4.07 0 0 0-4.1 4.038q0 .466.105.919A11.7 11.7 0 0 1 3.4 4.734a4.006 4.006 0 0 0 1.268 5.392a4.2 4.2 0 0 1-1.859-.5v.05A4.06 4.06 0 0 0 6.1 13.635a4.2 4.2 0 0 1-1.856.07a4.11 4.11 0 0 0 3.831 2.807A8.36 8.36 0 0 1 2 18.184A11.73 11.73 0 0 0 8.291 20A11.5 11.5 0 0 0 19.964 8.5c0-.177 0-.349-.012-.523A8.1 8.1 0 0 0 22 5.892" clip-rule="evenodd"/></symbol><symbol id="hd-icon-flowbite-undo-outline" viewBox="0 0 24 24"><path fill="none" stroke="currentColor" stroke-linecap="round" stroke-linejoin="round" stroke-width="2" d="M3 9h13a5 5 0 0 1 0 10H7M3 9l4-4M3 9l4 4"/></symbol><symbol id="hd-icon-flowbite-undo-solid" viewBox="0 0 24 24"><g fill="none" stroke="currentColor" stroke-linecap="round" stroke-width="2"><path d="M20 9H8a5 5 0 0 0-5 5v0a5 5 0 0 0 5 5h9"/><path stroke-linejoin="round" d="m17 5l4 4l-4 4"/></g></symbol><symbol id="hd-icon-flowbite-upload-outline" viewBox="0 0 24 24"><path fill="none" stroke="currentColor" stroke-linecap="round" stroke-linejoin="round" stroke-width="2" d="M12 5v9m-5 0H5a1 1 0 0 0-1 1v4a1 1 0 0 0 1 1h14a1 1 0 0 0 1-1v-4a1 1 0 0 0-1-1h-2M8 9l4-5l4 5m1 8h.01"/></symbol><symbol id="hd-icon-flowbite-upload-solid" viewBox="0 0 24 24"><path fill="currentColor" fill-rule="evenodd" d="M12 3a1 1 0 0 1 .78.375l4 5a1 1 0 1 1-1.56 1.25L13 6.85V14a1 1 0 1 1-2 0V6.85L8.78 9.626a1 1 0 1 1-1.56-1.25l4-5A1 1 0 0 1 12 3M9 14v-1H5a2 2 0 0 0-2 2v4a2 2 0 0 0 2 2h14a2 2 0 0 0 2-2v-4a2 2 0 0 0-2-2h-4v1a3 3 0 1 1-6 0m8 2a1 1 0 1 0 0 2h.01a1 1 0 1 0 0-2z" clip-rule="evenodd"/></symbol><symbol id="hd-icon-flowbite-user-add-outline" viewBox="0 0 24 24"><path fill="none" stroke="currentColor" stroke-linecap="round" stroke-linejoin="round" stroke-width="2" d="M16 12h4m-2 2v-4M4 18v-1a3 3 0 0 1 3-3h4a3 3 0 0 1 3 3v1a1 1 0 0 1-1 1H5a1 1 0 0 1-1-1m8-10a3 3 0 1 1-6 0a3 3 0 0 1 6 0"/></symbol><symbol id="hd-icon-flowbite-user-add-solid" viewBox="0 0 24 24"><path fill="currentColor" fill-rule="evenodd" d="M9 4a4 4 0 1 0 0 8a4 4 0 0 0 0-8m-2 9a4 4 0 0 0-4 4v1a2 2 0 0 0 2 2h8a2 2 0 0 0 2-2v-1a4 4 0 0 0-4-4zm8-1a1 1 0 0 1 1-1h1v-1a1 1 0 1 1 2 0v1h1a1 1 0 1 1 0 2h-1v1a1 1 0 1 1-2 0v-1h-1a1 1 0 0 1-1-1" clip-rule="evenodd"/></symbol><symbol id="hd-icon-flowbite-user-circle-outline" viewBox="0 0 24 24"><path fill="none" stroke="currentColor" stroke-linecap="round" stroke-linejoin="round" stroke-width="2" d="M12 21a9 9 0 1 0 0-18a9 9 0 0 0 0 18m0 0a8.95 8.95 0 0 0 4.951-1.488A3.987 3.987 0 0 0 13 16h-2a3.987 3.987 0 0 0-3.951 3.512A8.95 8.95 0 0 0 12 21m3-11a3 3 0 1 1-6 0a3 3 0 0 1 6 0"/></symbol><symbol id="hd-icon-flowbite-user-circle-solid" viewBox="0 0 24 24"><path fill="currentColor" fill-rule="evenodd" d="M12 20a7.97 7.97 0 0 1-5.002-1.756l.002.001v-.683c0-1.794 1.492-3.25 3.333-3.25h3.334c1.84 0 3.333 1.456 3.333 3.25v.683A7.97 7.97 0 0 1 12 20M2 12C2 6.477 6.477 2 12 2s10 4.477 10 10c0 5.5-4.44 9.963-9.932 10h-.138C6.438 21.962 2 17.5 2 12m10-5c-1.84 0-3.333 1.455-3.333 3.25S10.159 13.5 12 13.5c1.84 0 3.333-1.455 3.333-3.25S13.841 7 12 7" clip-rule="evenodd"/></symbol><symbol id="hd-icon-flowbite-user-edit-outline" viewBox="0 0 24 24"><path fill="none" stroke="currentColor" stroke-linecap="square" stroke-linejoin="round" stroke-width="2" d="M7 19H5a1 1 0 0 1-1-1v-1a3 3 0 0 1 3-3h1m4-6a3 3 0 1 1-6 0a3 3 0 0 1 6 0Zm7.441 1.559a1.907 1.907 0 0 1 0 2.698l-6.069 6.069L10 19l.674-3.372l6.07-6.07a1.907 1.907 0 0 1 2.697 0Z"/></symbol><symbol id="hd-icon-flowbite-user-edit-solid" viewBox="0 0 24 24"><path fill="currentColor" fill-rule="evenodd" d="M5 8a4 4 0 1 1 7.796 1.263l-2.533 2.534A4 4 0 0 1 5 8m4.06 5H7a4 4 0 0 0-4 4v1a2 2 0 0 0 2 2h2.172a3 3 0 0 1-.114-1.588l.674-3.372a3 3 0 0 1 .82-1.533zm9.032-5a2.9 2.9 0 0 0-2.056.852L9.967 14.92a1 1 0 0 0-.273.51l-.675 3.373a1 1 0 0 0 1.177 1.177l3.372-.675a1 1 0 0 0 .511-.273l6.07-6.07a2.91 2.91 0 0 0-.944-4.742A2.9 2.9 0 0 0 18.092 8" clip-rule="evenodd"/></symbol><symbol id="hd-icon-flowbite-user-graduate-outline" viewBox="0 0 24 24"><path fill="none" stroke="currentColor" stroke-linecap="round" stroke-linejoin="round" stroke-width="2" d="M14.614 7.2c.348.49.6 1.154.6 1.8a3 3 0 1 1-5.4-1.8M6.214 6v4m0-4l6-3l6 3l-6 2l-2.4-.8M6.214 6l3.6 1.2m-3.6 12.6v-2.15c0-1.683 1.273-3.308 2.951-3.649l3.05 2.935l3-2.945c1.702.32 3 1.96 3 3.659v2.15c0 .631-.538 1.143-1.2 1.143h-9.6c-.663 0-1.2-.512-1.2-1.143"/></symbol><symbol id="hd-icon-flowbite-user-graduate-solid" viewBox="0 0 24 24"><g fill="currentColor"><path d="M12.447 2.106a1 1 0 0 0-.894 0L5.905 4.93l.377.11l.034.011L12 6.946l5.68-1.894l.393-.133zM5 10V6.748l.7.206l1.3.433V10a1 1 0 1 1-2 0m3-1c0-.424.066-.833.188-1.216l3.496 1.165a1 1 0 0 0 .632 0l3.496-1.165A4 4 0 1 1 8 9"/><path d="M14.3 13.277a1 1 0 0 1 .884-.27C17.38 13.42 19 15.489 19 17.65v2.15c0 1.23-1.031 2.143-2.2 2.143H7.2c-1.168 0-2.2-.914-2.2-2.143v-2.15c0-2.141 1.59-4.19 3.752-4.629a1 1 0 0 1 .892.26l2.35 2.26z"/></g></symbol><symbol id="hd-icon-flowbite-user-headset-outline" viewBox="0 0 24 24"><path fill="none" stroke="currentColor" stroke-linecap="round" stroke-linejoin="round" stroke-width="2" d="M14.079 6.839a3 3 0 0 0-4.255.1M13 20h1.083A3.916 3.916 0 0 0 18 16.083V9A6 6 0 1 0 6 9v7m7 4v-1a1 1 0 0 0-1-1h-1a1 1 0 0 0-1 1v1a1 1 0 0 0 1 1h1a1 1 0 0 0 1-1m-7-4v-6H5a2 2 0 0 0-2 2v2a2 2 0 0 0 2 2zm12-6h1a2 2 0 0 1 2 2v2a2 2 0 0 1-2 2h-1z"/></symbol><symbol id="hd-icon-flowbite-user-headset-solid" viewBox="0 0 24 24"><path fill="currentColor" fill-rule="evenodd" d="M12 2a7 7 0 0 0-7 7a3 3 0 0 0-3 3v2a3 3 0 0 0 3 3h1a1 1 0 0 0 1-1V9a5 5 0 1 1 10 0v7.083A2.92 2.92 0 0 1 14.083 19H14a2 2 0 0 0-2-2h-1a2 2 0 0 0-2 2v1a2 2 0 0 0 2 2h1a2 2 0 0 0 1.732-1h.351a4.92 4.92 0 0 0 4.83-4H19a3 3 0 0 0 3-3v-2a3 3 0 0 0-3-3a7 7 0 0 0-7-7m1.45 3.275a4 4 0 0 0-4.352.976a1 1 0 0 0 1.452 1.376a2 2 0 0 1 2.836-.067a1 1 0 1 0 1.386-1.442a4 4 0 0 0-1.321-.843Z" clip-rule="evenodd"/></symbol><symbol id="hd-icon-flowbite-user-outline" viewBox="0 0 24 24"><path fill="none" stroke="currentColor" stroke-width="2" d="M7 17v1a1 1 0 0 0 1 1h8a1 1 0 0 0 1-1v-1a3 3 0 0 0-3-3h-4a3 3 0 0 0-3 3Zm8-9a3 3 0 1 1-6 0a3 3 0 0 1 6 0Z"/></symbol><symbol id="hd-icon-flowbite-user-remove-outline" viewBox="0 0 24 24"><path fill="none" stroke="currentColor" stroke-linecap="round" stroke-linejoin="round" stroke-width="2" d="M16 12h4M4 18v-1a3 3 0 0 1 3-3h4a3 3 0 0 1 3 3v1a1 1 0 0 1-1 1H5a1 1 0 0 1-1-1m8-10a3 3 0 1 1-6 0a3 3 0 0 1 6 0"/></symbol><symbol id="hd-icon-flowbite-user-remove-solid" viewBox="0 0 24 24"><path fill="currentColor" fill-rule="evenodd" d="M5 8a4 4 0 1 1 8 0a4 4 0 0 1-8 0m-2 9a4 4 0 0 1 4-4h4a4 4 0 0 1 4 4v1a2 2 0 0 1-2 2H5a2 2 0 0 1-2-2zm13-6a1 1 0 1 0 0 2h4a1 1 0 1 0 0-2z" clip-rule="evenodd"/></symbol><symbol id="hd-icon-flowbite-user-settings-outline" viewBox="0 0 24 24"><path fill="none" stroke="currentColor" stroke-linecap="square" stroke-linejoin="round" stroke-width="2" d="M10 19H5a1 1 0 0 1-1-1v-1a3 3 0 0 1 3-3h2m10 1a3 3 0 0 1-3 3m3-3a3 3 0 0 0-3-3m3 3h1m-4 3a3 3 0 0 1-3-3m3 3v1m-3-4a3 3 0 0 1 3-3m-3 3h-1m4-3v-1m-2.121 1.879l-.707-.707m5.656 5.656l-.707-.707m-4.242 0l-.707.707m5.656-5.656l-.707.707M12 8a3 3 0 1 1-6 0a3 3 0 0 1 6 0Z"/></symbol><symbol id="hd-icon-flowbite-user-settings-solid" viewBox="0 0 24 24"><path fill="currentColor" fill-rule="evenodd" d="M17 10v1.126c.367.095.714.24 1.032.428l.796-.797l1.415 1.415l-.797.796c.188.318.333.665.428 1.032H21v2h-1.126c-.095.367-.24.714-.428 1.032l.797.796l-1.415 1.415l-.796-.797a4 4 0 0 1-1.032.428V20h-2v-1.126a4 4 0 0 1-1.032-.428l-.796.797l-1.415-1.415l.797-.796A4 4 0 0 1 12.126 16H11v-2h1.126c.095-.367.24-.714.428-1.032l-.797-.796l1.415-1.415l.796.797A4 4 0 0 1 15 11.126V10zm.406 3.578l.016.016c.354.358.574.85.578 1.392v.028a2 2 0 0 1-3.409 1.406l-.01-.012a2 2 0 0 1 2.826-2.83ZM5 8a4 4 0 1 1 7.938.703a7.03 7.03 0 0 0-3.235 3.235A4 4 0 0 1 5 8m4.29 5H7a4 4 0 0 0-4 4v1a2 2 0 0 0 2 2h6.101A6.98 6.98 0 0 1 9 15c0-.695.101-1.366.29-2" clip-rule="evenodd"/></symbol><symbol id="hd-icon-flowbite-user-solid" viewBox="0 0 24 24"><path fill="currentColor" fill-rule="evenodd" d="M12 4a4 4 0 1 0 0 8a4 4 0 0 0 0-8m-2 9a4 4 0 0 0-4 4v1a2 2 0 0 0 2 2h8a2 2 0 0 0 2-2v-1a4 4 0 0 0-4-4z" clip-rule="evenodd"/></symbol><symbol id="hd-icon-flowbite-users-group-outline" viewBox="0 0 24 24"><path fill="none" stroke="currentColor" stroke-linecap="round" stroke-width="2" d="M4.5 17H4a1 1 0 0 1-1-1a3 3 0 0 1 3-3h1m0-3.05A2.5 2.5 0 1 1 9 5.5M19.5 17h.5a1 1 0 0 0 1-1a3 3 0 0 0-3-3h-1m0-3.05a2.5 2.5 0 1 0-2-4.45m.5 13.5h-7a1 1 0 0 1-1-1a3 3 0 0 1 3-3h3a3 3 0 0 1 3 3a1 1 0 0 1-1 1Zm-1-9.5a2.5 2.5 0 1 1-5 0a2.5 2.5 0 0 1 5 0Z"/></symbol><symbol id="hd-icon-flowbite-users-group-solid" viewBox="0 0 24 24"><path fill="currentColor" fill-rule="evenodd" d="M12 6a3.5 3.5 0 1 0 0 7a3.5 3.5 0 0 0 0-7m-1.5 8a4 4 0 0 0-4 4a2 2 0 0 0 2 2h7a2 2 0 0 0 2-2a4 4 0 0 0-4-4zm6.82-3.096a5.51 5.51 0 0 0-2.797-6.293a3.5 3.5 0 1 1 2.796 6.292ZM19.5 18h.5a2 2 0 0 0 2-2a4 4 0 0 0-4-4h-1.1a5.5 5.5 0 0 1-.471.762A6 6 0 0 1 19.5 18M4 7.5a3.5 3.5 0 0 1 5.477-2.889a5.5 5.5 0 0 0-2.796 6.293A3.5 3.5 0 0 1 4 7.5M7.1 12H6a4 4 0 0 0-4 4a2 2 0 0 0 2 2h.5a6 6 0 0 1 3.071-5.238A5.5 5.5 0 0 1 7.1 12" clip-rule="evenodd"/></symbol><symbol id="hd-icon-flowbite-users-outline" viewBox="0 0 24 24"><path fill="none" stroke="currentColor" stroke-linecap="round" stroke-width="2" d="M16 19h4a1 1 0 0 0 1-1v-1a3 3 0 0 0-3-3h-2m-2.236-4a3 3 0 1 0 0-4M3 18v-1a3 3 0 0 1 3-3h4a3 3 0 0 1 3 3v1a1 1 0 0 1-1 1H4a1 1 0 0 1-1-1Zm8-10a3 3 0 1 1-6 0a3 3 0 0 1 6 0Z"/></symbol><symbol id="hd-icon-flowbite-users-solid" viewBox="0 0 24 24"><path fill="currentColor" fill-rule="evenodd" d="M8 4a4 4 0 1 0 0 8a4 4 0 0 0 0-8m-2 9a4 4 0 0 0-4 4v1a2 2 0 0 0 2 2h8a2 2 0 0 0 2-2v-1a4 4 0 0 0-4-4zm7.25-2.095c.478-.86.75-1.85.75-2.905a6 6 0 0 0-.75-2.906a4 4 0 1 1 0 5.811M15.466 20c.34-.588.535-1.271.535-2v-1a5.98 5.98 0 0 0-1.528-4H18a4 4 0 0 1 4 4v1a2 2 0 0 1-2 2z" clip-rule="evenodd"/></symbol><symbol id="hd-icon-flowbite-video-camera-outline" viewBox="0 0 24 24"><path fill="none" stroke="currentColor" stroke-linecap="round" stroke-linejoin="round" stroke-width="2" d="M14 6H4a1 1 0 0 0-1 1v10a1 1 0 0 0 1 1h10a1 1 0 0 0 1-1V7a1 1 0 0 0-1-1m7 11l-6-2V9l6-2z"/></symbol><symbol id="hd-icon-flowbite-video-camera-solid" viewBox="0 0 24 24"><path fill="currentColor" fill-rule="evenodd" d="M14 7a2 2 0 0 0-2-2H4a2 2 0 0 0-2 2v10a2 2 0 0 0 2 2h8a2 2 0 0 0 2-2zm2 9.387l4.684 1.562A1 1 0 0 0 22 17V7a1 1 0 0 0-1.316-.949L16 7.613z" clip-rule="evenodd"/></symbol><symbol id="hd-icon-flowbite-visa-solid" viewBox="0 0 24 24"><g fill="currentColor"><path fill="none" d="M17.4 12.6h1l-.3-1.4v-.4l-.2.4z"/><path fill-rule="evenodd" d="M2 6.3c0-1.1.9-2 2-2h16a2 2 0 0 1 2 2v12a2 2 0 0 1-2 2H4a2 2 0 0 1-2-2zm12.5 3.2c.4 0 .8 0 1.1.2l-.1 1h-.1a2 2 0 0 0-1-.3c-.5 0-.7.3-.7.5s.2.3.7.5c.7.4 1 .8 1 1.3c0 1-.8 1.7-2.2 1.7c-.6 0-1.1-.2-1.4-.3l.2-1h.1c.4.2.7.3 1.2.3c.4 0 .8-.2.8-.5c0-.2-.2-.3-.7-.6c-.5-.2-1.1-.6-1.1-1.3c0-.9 1-1.5 2.2-1.5m3.5 0h1l1 4.8h-1.2l-.2-.7H17l-.3.7h-1.3l1.9-4.4c.1-.3.3-.3.7-.3Zm-6.2 0h-1.3l-.8 4.8H11zm-4.5 3.3l-.1-.7l-.5-2.2c0-.3-.3-.3-.6-.4h-2v.1l1.2.5l.1.2l1.1 4H8l2-4.7H8.7l-1.3 3.2Z" clip-rule="evenodd"/></g></symbol><symbol id="hd-icon-flowbite-volume-down-outline" viewBox="0 0 24 24"><path fill="none" stroke="currentColor" stroke-linecap="round" stroke-linejoin="round" stroke-width="2" d="M17.5 8.43A5 5 0 0 1 19 12a4.98 4.98 0 0 1-1.43 3.5M14 6.135v11.73a1 1 0 0 1-1.64.768L8 15H6a1 1 0 0 1-1-1v-4a1 1 0 0 1 1-1h2l4.36-3.633a1 1 0 0 1 1.64.768"/></symbol><symbol id="hd-icon-flowbite-volume-down-solid" viewBox="0 0 24 24"><g fill="currentColor"><path d="M15 6.037c0-1.724-1.978-2.665-3.28-1.562L7.638 7.933H6c-1.105 0-2 .91-2 2.034v4.066c0 1.123.895 2.034 2 2.034h1.638l4.082 3.458c1.302 1.104 3.28.162 3.28-1.562z"/><path fill-rule="evenodd" d="M16.786 7.658a.99.99 0 0 1 1.414-.014A6.14 6.14 0 0 1 20 12c0 1.662-.655 3.17-1.715 4.27a.99.99 0 0 1-1.414.014a1.03 1.03 0 0 1-.014-1.437A4.1 4.1 0 0 0 18 12a4.1 4.1 0 0 0-1.2-2.904a1.03 1.03 0 0 1-.014-1.438" clip-rule="evenodd"/></g></symbol><symbol id="hd-icon-flowbite-volume-mute-outline" viewBox="0 0 24 24"><path fill="none" stroke="currentColor" stroke-linecap="round" stroke-linejoin="round" stroke-width="2" d="M15.5 8.43A5 5 0 0 1 17 12c0 1.126-.5 2.5-1.5 3.5m2.864-9.864A8.97 8.97 0 0 1 21 12c0 2.023-.5 4.5-2.5 6M7.8 7.5l2.56-2.133a1 1 0 0 1 1.64.768V12m0 4.5v1.365a1 1 0 0 1-1.64.768L6 15H4a1 1 0 0 1-1-1v-4a1 1 0 0 1 1-1m1-4l14 14"/></symbol><symbol id="hd-icon-flowbite-volume-mute-solid" viewBox="0 0 24 24"><path fill="currentColor" d="M5.707 4.293a1 1 0 0 0-1.414 1.414l14 14a1 1 0 0 0 1.414-1.414l-.004-.005C21.57 16.498 22 13.938 22 12a9.97 9.97 0 0 0-2.929-7.071a1 1 0 1 0-1.414 1.414A7.97 7.97 0 0 1 20 12c0 1.752-.403 3.636-1.712 4.873l-1.433-1.433C17.616 14.37 18 13.107 18 12c0-1.678-.69-3.197-1.8-4.285a1 1 0 1 0-1.4 1.428A4 4 0 0 1 16 12c0 .606-.195 1.335-.59 1.996L13 11.586V6.135c0-1.696-1.978-2.622-3.28-1.536L7.698 6.284l-1.99-1.991ZM4 8h.586L13 16.414v1.451c0 1.696-1.978 2.622-3.28 1.536L5.638 16H4a2 2 0 0 1-2-2v-4a2 2 0 0 1 2-2"/></symbol><symbol id="hd-icon-flowbite-volume-up-outline" viewBox="0 0 24 24"><path fill="none" stroke="currentColor" stroke-linecap="round" stroke-linejoin="round" stroke-width="2" d="M15.5 8.43A5 5 0 0 1 17 12a4.98 4.98 0 0 1-1.43 3.5m2.794 2.864A8.97 8.97 0 0 0 21 12a8.97 8.97 0 0 0-2.636-6.364M12 6.135v11.73a1 1 0 0 1-1.64.768L6 15H4a1 1 0 0 1-1-1v-4a1 1 0 0 1 1-1h2l4.36-3.633a1 1 0 0 1 1.64.768"/></symbol><symbol id="hd-icon-flowbite-volume-up-solid" viewBox="0 0 24 24"><g fill="currentColor"><path d="M13 6.037c0-1.724-1.978-2.665-3.28-1.562L5.638 7.933H4c-1.105 0-2 .91-2 2.034v4.066c0 1.123.895 2.034 2 2.034h1.638l4.082 3.458c1.302 1.104 3.28.162 3.28-1.562z"/><path fill-rule="evenodd" d="M14.786 7.658a.99.99 0 0 1 1.414-.014A6.14 6.14 0 0 1 18 12c0 1.662-.655 3.17-1.715 4.27a.99.99 0 0 1-1.414.014a1.03 1.03 0 0 1-.014-1.437A4.1 4.1 0 0 0 16 12a4.1 4.1 0 0 0-1.2-2.904a1.03 1.03 0 0 1-.014-1.438" clip-rule="evenodd"/><path fill-rule="evenodd" d="M17.657 4.811a.99.99 0 0 1 1.414 0A10.22 10.22 0 0 1 22 12c0 2.807-1.12 5.35-2.929 7.189a.99.99 0 0 1-1.414 0a1.03 1.03 0 0 1 0-1.438A8.17 8.17 0 0 0 20 12a8.17 8.17 0 0 0-2.343-5.751a1.03 1.03 0 0 1 0-1.438" clip-rule="evenodd"/></g></symbol><symbol id="hd-icon-flowbite-vue-solid" viewBox="0 0 24 24"><path fill="currentColor" d="M14.5 3L12 7.156L9.857 3H2l10 18L22 3zM4.486 4.5h2.4L12 13.8l5.107-9.3h2.4L12 18.021z"/></symbol><symbol id="hd-icon-flowbite-wallet-outline" viewBox="0 0 24 24"><path fill="none" stroke="currentColor" stroke-linecap="round" stroke-linejoin="round" stroke-width="2" d="M17 8H5m12 0a1 1 0 0 1 1 1v2.6M17 8l-4-4M5 8a1 1 0 0 0-1 1v10a1 1 0 0 0 1 1h12a1 1 0 0 0 1-1v-2.6M5 8l4-4l4 4m6 4h-4a2 2 0 1 0 0 4h4a1 1 0 0 0 1-1v-2a1 1 0 0 0-1-1"/></symbol><symbol id="hd-icon-flowbite-wallet-solid" viewBox="0 0 24 24"><g fill="currentColor" fill-rule="evenodd" clip-rule="evenodd"><path d="M12 14a3 3 0 0 1 3-3h4a2 2 0 0 1 2 2v2a2 2 0 0 1-2 2h-4a3 3 0 0 1-3-3m3-1a1 1 0 1 0 0 2h4v-2z"/><path d="M12.293 3.293a1 1 0 0 1 1.414 0L16.414 6h-2.828l-1.293-1.293a1 1 0 0 1 0-1.414M12.414 6L9.707 3.293a1 1 0 0 0-1.414 0L5.586 6zM4.586 7l-.056.055A2 2 0 0 0 3 9v10a2 2 0 0 0 2 2h12a2 2 0 0 0 2-2h-4a5 5 0 0 1 0-10h4a2 2 0 0 0-1.53-1.945L17.414 7z"/></g></symbol><symbol id="hd-icon-flowbite-wand-magic-sparkles-outline" viewBox="0 0 24 24"><path fill="none" stroke="currentColor" stroke-linecap="round" stroke-linejoin="round" stroke-width="2" d="M16.872 9.687L20 6.56L17.44 4L4 17.44L6.56 20L16.873 9.687Zm0 0l-2.56-2.56M6 7v2m0 0v2m0-2H4m2 0h2m7 7v2m0 0v2m0-2h-2m2 0h2M8 4h.01v.01H8zm2 2h.01v.01H10zm2-2h.01v.01H12zm8 8h.01v.01H20zm-2 2h.01v.01H18zm2 2h.01v.01H20z"/></symbol><symbol id="hd-icon-flowbite-wand-magic-sparkles-solid" viewBox="0 0 24 24"><g fill="currentColor"><path fill-rule="evenodd" d="M17.44 3a1 1 0 0 1 .707.293l2.56 2.56a1 1 0 0 1 0 1.414L18.194 9.78L14.22 5.806l2.513-2.513A1 1 0 0 1 17.44 3m-4.634 4.22l-9.513 9.513a1 1 0 0 0 0 1.414l2.56 2.56a1 1 0 0 0 1.414 0l9.513-9.513zM6 6a1 1 0 0 1 1 1v1h1a1 1 0 0 1 0 2H7v1a1 1 0 1 1-2 0v-1H4a1 1 0 0 1 0-2h1V7a1 1 0 0 1 1-1m9 9a1 1 0 0 1 1 1v1h1a1 1 0 1 1 0 2h-1v1a1 1 0 1 1-2 0v-1h-1a1 1 0 1 1 0-2h1v-1a1 1 0 0 1 1-1" clip-rule="evenodd"/><path d="M19 13h-2v2h2zM13 3h-2v2h2zm-2 2H9v2h2zM9 3H7v2h2zm12 8h-2v2h2zm0 4h-2v2h2z"/></g></symbol><symbol id="hd-icon-flowbite-water-bottle-outline" viewBox="0 0 24 24"><path fill="none" stroke="currentColor" stroke-linecap="round" stroke-linejoin="round" stroke-width="2" d="M11 6v2s-3 1-3 3.25s1 2.25 1 3s-1 1.125-1 2.25V19c0 .938 1 2 2.5 2s2-.937 2-.937s.5.937 2 .937s2.5-1.062 2.5-2v-2.5c0-1.125-1-1.5-1-2.25s1-.75 1-3S14 8 14 8V6m-3 0h-1V3h5v3h-1m-3 0h3m-5.956 6h8.912M8 17h9"/></symbol><symbol id="hd-icon-flowbite-water-bottle-solid" viewBox="0 0 24 24"><path fill="currentColor" d="M9 3a1 1 0 0 1 1-1h5a1 1 0 0 1 1 1v2a1 1 0 0 1-1 1h-5a1 1 0 0 1-1-1zm-.127 5c-.792.573-1.762 1.556-1.864 3H17.99c-.102-1.444-1.072-2.427-1.864-3zm8.882 5H7.245c.151.455.353.78.544 1.04l.129.175l.047.064c-.037.059-.083.118-.157.215l-.103.134c-.226.297-.544.74-.66 1.372h10.91c-.116-.631-.434-1.075-.66-1.372l-.103-.134a3 3 0 0 1-.157-.215l.047-.064l.129-.175c.191-.26.393-.585.544-1.04M18 18H7v1c0 1.611 1.577 3 3.5 3c.87 0 1.529-.247 2-.555c.471.308 1.13.555 2 .555c1.923 0 3.5-1.389 3.5-3z"/></symbol><symbol id="hd-icon-flowbite-whatsapp-solid" viewBox="0 0 24 24"><g fill="currentColor"><path fill-rule="evenodd" d="M12 4a8 8 0 0 0-6.895 12.06l.569.718l-.697 2.359l2.32-.648l.379.243A8 8 0 1 0 12 4M2 12C2 6.477 6.477 2 12 2s10 4.477 10 10s-4.477 10-10 10a9.96 9.96 0 0 1-5.016-1.347l-4.948 1.382l1.426-4.829l-.006-.007l-.033-.055A9.96 9.96 0 0 1 2 12" clip-rule="evenodd"/><path d="M16.735 13.492c-.038-.018-1.497-.736-1.756-.83a1 1 0 0 0-.34-.075c-.196 0-.362.098-.49.291c-.146.217-.587.732-.723.886c-.018.02-.042.045-.057.045c-.013 0-.239-.093-.307-.123c-1.564-.68-2.751-2.313-2.914-2.589c-.023-.04-.024-.057-.024-.057c.005-.021.058-.074.085-.101c.08-.079.166-.182.249-.283l.117-.14c.121-.14.175-.25.237-.375l.033-.066a.68.68 0 0 0-.02-.64c-.034-.069-.65-1.555-.715-1.711c-.158-.377-.366-.552-.655-.552c-.027 0 0 0-.112.005c-.137.005-.883.104-1.213.311c-.35.22-.94.924-.94 2.16c0 1.112.705 2.162 1.008 2.561l.041.06c1.161 1.695 2.608 2.951 4.074 3.537c1.412.564 2.081.63 2.461.63c.16 0 .288-.013.4-.024l.072-.007c.488-.043 1.56-.599 1.804-1.276c.192-.534.243-1.117.115-1.329c-.088-.144-.239-.216-.43-.308"/></g></symbol><symbol id="hd-icon-flowbite-wheat-exclamation-outline" viewBox="0 0 24 24"><path fill="none" stroke="currentColor" stroke-linecap="round" stroke-linejoin="round" stroke-width="2" d="M8.54 15.46c-.155.05-.83-1.917-.898-2.362c-.088-.569.031-1.77.15-1.796c.12-.027.687 1.24.756 1.686c.07.444.147 2.421-.008 2.472m0 0c-.008-.163 2.067-.305 2.514-.257c.572.062 1.701.488 1.696.61c-.005.123-1.376.343-1.824.294c-.447-.048-2.377-.484-2.386-.647m3.715-3.715L4 20m8.255-8.255l6.604-6.604m-6.604 6.604c-.155.05-.83-1.917-.898-2.362c-.089-.569.03-1.77.15-1.796s.687 1.241.756 1.686c.07.445.147 2.422-.008 2.472m0 0c-.008-.163 2.066-.305 2.514-.256c.572.062 1.701.488 1.696.61c-.005.123-1.377.342-1.824.294s-2.378-.485-2.386-.648M20 8.953l-1.271 1.271M15.047 4l-1.271 1.271M19.99 20H20m-.01-3v-3M5.27 18.73c-.156.05-.83-1.917-.899-2.361c-.088-.57.031-1.77.151-1.797s.687 1.242.756 1.686c.069.445.147 2.422-.008 2.472m0 0c-.009-.163 2.066-.304 2.513-.256c.573.062 1.702.488 1.696.61c-.005.123-1.376.343-1.824.294c-.447-.048-2.377-.484-2.385-.647"/></symbol><symbol id="hd-icon-flowbite-wheat-outline" viewBox="0 0 24 24"><path fill="none" stroke="currentColor" stroke-linecap="round" stroke-linejoin="round" stroke-width="2" d="M8.54 15.46c-.155.05-.83-1.917-.898-2.362c-.088-.569.031-1.77.15-1.796c.12-.027.687 1.24.756 1.686c.07.444.147 2.421-.008 2.472m0 0c-.008-.163 2.067-.305 2.514-.257c.572.062 1.701.488 1.696.61c-.005.123-1.376.343-1.824.294c-.447-.048-2.377-.484-2.386-.647m3.715-3.715L4 20m8.255-8.255l6.604-6.604m-6.604 6.604c-.155.05-.83-1.917-.898-2.362c-.089-.569.03-1.77.15-1.796s.687 1.241.756 1.686c.07.445.147 2.422-.008 2.472m0 0c-.008-.163 2.066-.305 2.514-.256c.572.062 1.701.488 1.696.61c-.005.123-1.377.342-1.824.294s-2.378-.485-2.386-.648M20 8.953l-1.271 1.271M15.047 4l-1.271 1.271M5.27 18.731c-.156.05-.83-1.918-.899-2.362c-.088-.57.031-1.77.151-1.797s.687 1.242.756 1.686c.069.445.147 2.422-.008 2.472m0 0c-.009-.164 2.066-.305 2.513-.257c.573.062 1.702.488 1.696.61c-.005.123-1.376.343-1.824.294c-.447-.048-2.377-.484-2.385-.647"/></symbol><symbol id="hd-icon-flowbite-whiskey-glass-outline" viewBox="0 0 24 24"><path fill="none" stroke="currentColor" stroke-linecap="round" stroke-linejoin="round" stroke-width="2" d="M7 14h10M6 7l.847 10.166A2 2 0 0 0 8.84 19h6.32a2 2 0 0 0 1.993-1.834L18 7z"/></symbol><symbol id="hd-icon-flowbite-whiskey-glass-solid" viewBox="0 0 24 24"><path fill="currentColor" fill-rule="evenodd" d="M6 6a1 1 0 0 0-.997 1.083l.848 10.166A3 3 0 0 0 8.84 20h6.319a3 3 0 0 0 2.99-2.75l.847-10.167A1 1 0 0 0 18 6zm1.503 7l-.416-5h9.826l-.417 5z" clip-rule="evenodd"/></symbol><symbol id="hd-icon-flowbite-window-outline" viewBox="0 0 24 24"><path fill="none" stroke="currentColor" stroke-linecap="round" stroke-linejoin="round" stroke-width="2" d="M6 8h.01M9 8h.01M12 8h.01M4 11h16M4 19h16a1 1 0 0 0 1-1V6a1 1 0 0 0-1-1H4a1 1 0 0 0-1 1v12a1 1 0 0 0 1 1"/></symbol><symbol id="hd-icon-flowbite-window-restore-solid" viewBox="0 0 24 24"><g fill="currentColor" fill-rule="evenodd" clip-rule="evenodd"><path d="M8 5a1 1 0 0 1 1-1h11a2 2 0 0 1 2 2v9a2 2 0 0 1-2 2h-1a1 1 0 1 1 0-2h1V6H9a1 1 0 0 1-1-1"/><path d="M4 7a2 2 0 0 0-2 2v9a2 2 0 0 0 2 2h11a2 2 0 0 0 2-2V9a2 2 0 0 0-2-2zm0 11v-5.5h11V18z"/></g></symbol><symbol id="hd-icon-flowbite-window-solid" viewBox="0 0 24 24"><path fill="currentColor" fill-rule="evenodd" d="M4 4a2 2 0 0 0-2 2v12a2 2 0 0 0 2 2h16a2 2 0 0 0 2-2V6a2 2 0 0 0-2-2zm16 7H4v7h16zM5 8a1 1 0 0 1 1-1h.01a1 1 0 0 1 0 2H6a1 1 0 0 1-1-1m4-1a1 1 0 0 0 0 2h.01a1 1 0 0 0 0-2zm2 1a1 1 0 0 1 1-1h.01a1 1 0 1 1 0 2H12a1 1 0 0 1-1-1" clip-rule="evenodd"/></symbol><symbol id="hd-icon-flowbite-windows-solid" viewBox="0 0 24 24"><path fill="currentColor" fill-rule="evenodd" d="M3.005 12L3 6.408l6.8-.923v6.517H3.005ZM11 5.32L19.997 4v8H11zM20.067 13l-.069 8l-9.065-1.275L11 13zM9.8 19.58l-6.795-.931V13H9.8z" clip-rule="evenodd"/></symbol><symbol id="hd-icon-flowbite-wine-bottle-outline" viewBox="0 0 24 24"><path fill="none" stroke="currentColor" stroke-linecap="round" stroke-linejoin="round" stroke-width="2" d="M10 8h4m-3-5a1 1 0 0 0-1 1v6c-2 1-2 2.5-2 4.5V20a1 1 0 0 0 1 1h6a1 1 0 0 0 1-1v-5.5c0-2 0-3.5-2-4.5V4a1 1 0 0 0-1-1zm5 10h-4v5h4z"/></symbol><symbol id="hd-icon-flowbite-wine-bottle-solid" viewBox="0 0 24 24"><g fill="currentColor"><path d="M9 4a2 2 0 0 1 2-2h2a2 2 0 0 1 2 2v3H9zm0 5v.42c-.878.565-1.412 1.28-1.699 2.139C7 12.465 7 13.482 7 14.41V20a2 2 0 0 0 2 2h6a2 2 0 0 0 2-2v-1h-5a1 1 0 0 1-1-1v-5a1 1 0 0 1 1-1h4.821a5 5 0 0 0-.122-.441c-.287-.86-.821-1.574-1.699-2.14V9z"/><path d="M17 14h-4v3h4z"/></g></symbol><symbol id="hd-icon-flowbite-wine-glass-empty-outline" viewBox="0 0 24 24"><path fill="none" stroke="currentColor" stroke-linecap="round" stroke-linejoin="round" stroke-width="2" d="M12 14c2.761 0 5-2.668 5-5.43c0-1.385-1.12-4.507-1.5-5.57h-7C8.152 4.021 7 7.172 7 8.57C7 11.333 9.239 14 12 14m0 0v7m-3 0h6"/></symbol><symbol id="hd-icon-flowbite-wine-glass-empty-solid" viewBox="0 0 24 24"><path fill="currentColor" d="M8.5 2a1 1 0 0 0-.947.677l-.128.373a60 60 0 0 0-.762 2.303C6.338 6.422 6 7.699 6 8.57c0 2.884 2.092 5.783 5 6.335V20H9a1 1 0 1 0 0 2h6a1 1 0 1 0 0-2h-2v-5.094c2.908-.552 5-3.451 5-6.335c0-.863-.328-2.127-.65-3.195a56 56 0 0 0-.907-2.71l-.002-.003A1 1 0 0 0 15.5 2z"/></symbol><symbol id="hd-icon-flowbite-wine-glass-outline" viewBox="0 0 24 24"><path fill="none" stroke="currentColor" stroke-linecap="round" stroke-linejoin="round" stroke-width="2" d="M12 14c2.761 0 5-2.668 5-5.43c0-1.385-1.12-4.507-1.5-5.57h-7C8.152 4.021 7 7.172 7 8.57C7 11.333 9.239 14 12 14m0 0v7m0 0H9m3 0h3M7 9h9"/></symbol><symbol id="hd-icon-flowbite-wine-glass-solid" viewBox="0 0 24 24"><path fill="currentColor" fill-rule="evenodd" d="M8.5 2a1 1 0 0 0-.947.677l-.128.373a60 60 0 0 0-.762 2.303C6.338 6.422 6 7.699 6 8.57q0 .152.008.304a1 1 0 0 0 .035.415c.311 2.632 2.291 5.11 4.957 5.616V20H9a1 1 0 1 0 0 2h6a1 1 0 1 0 0-2h-2v-5.094c2.908-.552 5-3.451 5-6.335c0-.863-.328-2.127-.65-3.195a56 56 0 0 0-.907-2.71l-.002-.003A1 1 0 0 0 15.5 2zm-.443 6h7.887c-.088-.542-.273-1.266-.509-2.047A47 47 0 0 0 14.794 4H9.212c-.185.536-.42 1.223-.636 1.935c-.24.788-.429 1.519-.519 2.065" clip-rule="evenodd"/></symbol><symbol id="hd-icon-flowbite-x-circle-solid" viewBox="0 0 24 24"><path fill="currentColor" fill-rule="evenodd" d="M2 12a10 10 0 1 1 20 0a10 10 0 0 1-20 0m7.7-3.7a1 1 0 0 0-1.4 1.4l2.3 2.3l-2.3 2.3a1 1 0 1 0 1.4 1.4l2.3-2.3l2.3 2.3a1 1 0 0 0 1.4-1.4L13.4 12l2.3-2.3a1 1 0 0 0-1.4-1.4L12 10.6z" clip-rule="evenodd"/></symbol><symbol id="hd-icon-flowbite-x-company-solid" viewBox="0 0 24 24"><path fill="currentColor" d="M13.8 10.5L20.7 2h-3l-5.3 6.5L7.7 2H1l7.8 11l-7.3 9h3l5.7-7l5.1 7H22zm-2.4 3l-1.4-2l-5.6-7.9h2.3l4.5 6.3l1.4 2l6 8.5h-2.3l-4.9-7Z"/></symbol><symbol id="hd-icon-flowbite-x-solid" viewBox="0 0 24 24"><path fill="currentColor" d="M13.795 10.533L20.68 2h-3.073l-5.255 6.517L7.69 2H1l7.806 10.91L1.47 22h3.074l5.705-7.07L15.31 22H22zm-2.38 2.95L9.97 11.464L4.36 3.627h2.31l4.528 6.317l1.443 2.02l6.018 8.409h-2.31z"/></symbol><symbol id="hd-icon-flowbite-youtube-solid" viewBox="0 0 24 24"><path fill="currentColor" fill-rule="evenodd" d="M21.7 8.037a4.26 4.26 0 0 0-.789-1.964a2.84 2.84 0 0 0-1.984-.839c-2.767-.2-6.926-.2-6.926-.2s-4.157 0-6.928.2a2.84 2.84 0 0 0-1.983.839a4.2 4.2 0 0 0-.79 1.965a30 30 0 0 0-.2 3.206v1.5a30 30 0 0 0 .2 3.206c.094.712.364 1.39.784 1.972c.604.536 1.38.837 2.187.848c1.583.151 6.731.2 6.731.2s4.161 0 6.928-.2a2.84 2.84 0 0 0 1.985-.84a4.3 4.3 0 0 0 .787-1.965a30 30 0 0 0 .2-3.206v-1.516a31 31 0 0 0-.202-3.206m-11.692 6.554v-5.62l5.4 2.819z" clip-rule="evenodd"/></symbol></svg>