<svg xmlns="http://www.w3.org/2000/svg" xmlns:xlink="http://www.w3.org/1999/xlink"><symbol id="hd-icon-octicon-accessibility-16" viewBox="0 0 16 16"><path fill="currentColor" d="M9.923 5.302q.094.095.178.198H14A.75.75 0 0 1 14 7h-3.3l.578 5.163l.362 2.997a.75.75 0 0 1-1.49.18L9.868 13H6.132l-.282 2.34a.75.75 0 0 1-1.49-.18l.362-2.997L5.3 7H2a.75.75 0 0 1 0-1.5h3.9a3 3 0 0 1 .176-.198a3 3 0 1 1 3.847 0M9.2 7.073a1.206 1.206 0 0 0-2.398 0L6.305 11.5h3.39ZM9.5 3a1.5 1.5 0 1 0-3.001.001A1.5 1.5 0 0 0 9.5 3"/></symbol><symbol id="hd-icon-octicon-accessibility-24" viewBox="0 0 24 24"><path fill="currentColor" d="M13.974 8.114a3.573 3.573 0 1 0-3.947 0c-.302.21-.57.467-.79.762H3.708a.75.75 0 1 0 0 1.5h4.885a3 3 0 0 0-.026.188l-.814 7.267l-.499 4.142a.75.75 0 1 0 1.49.18l.42-3.486h5.67l.42 3.485a.75.75 0 0 0 1.49-.18l-.5-4.142l-.813-7.266a4 4 0 0 0-.026-.188h4.885a.75.75 0 1 0 0-1.5h-5.527a3.5 3.5 0 0 0-.79-.762Zm.099-2.979a2.073 2.073 0 1 1-4.146 0a2.073 2.073 0 0 1 4.146 0m-.131 5.596l.72 6.436H9.338l.72-6.436a1.954 1.954 0 0 1 3.884 0"/></symbol><symbol id="hd-icon-octicon-accessibility-inset-16" viewBox="0 0 16 16"><path fill="currentColor" d="M8 0a8 8 0 1 1 0 16A8 8 0 0 1 8 0M3.75 6a.75.75 0 0 0 0 1.5h2.409a2 2 0 0 0-.025.151l-.307 2.508l-.323 3.011a.75.75 0 0 0 1.492.16l.25-2.33h1.509l.25 2.33a.748.748 0 0 0 1.199.552a.75.75 0 0 0 .291-.712l-.32-3l-.309-2.519a2 2 0 0 0-.025-.151h2.409a.75.75 0 0 0 0-1.5zM8 6a2 2 0 1 0 .001-3.999A2 2 0 0 0 8 6"/></symbol><symbol id="hd-icon-octicon-accessibility-inset-24" viewBox="0 0 24 24"><path fill="currentColor" d="M12 0C5.373 0 0 5.373 0 12s5.373 12 12 12s12-5.373 12-12S18.627 0 12 0m2.5 6.5a2.5 2.5 0 1 1-5 0a2.5 2.5 0 0 1 5 0M12 9h6.375a.75.75 0 0 1 0 1.5h-4.028l.542 4.42l.482 4.5a.75.75 0 1 1-1.492.16l-.41-3.83H10.53l-.41 3.83a.75.75 0 1 1-1.492-.16l.484-4.511l.54-4.409H5.625a.75.75 0 0 1 0-1.5z"/></symbol><symbol id="hd-icon-octicon-agent-16" viewBox="0 0 16 16"><path fill="currentColor" d="M14.5 8.9v-.052A2.956 2.956 0 0 0 11.542 5.9a.82.82 0 0 1-.751-.501l-.145-.348A3.5 3.5 0 0 0 7.421 2.9h-.206a3.754 3.754 0 0 0-3.736 4.118l.011.121a.82.82 0 0 1-.619.879A1.81 1.81 0 0 0 1.5 9.773v.14c0 1.097.89 1.987 1.987 1.987H4.5a.75.75 0 0 1 0 1.5H3.487A3.487 3.487 0 0 1 0 9.913v-.14C0 8.449.785 7.274 1.963 6.75A5.253 5.253 0 0 1 7.215 1.4h.206a4.99 4.99 0 0 1 4.586 3.024A4.455 4.455 0 0 1 16 8.848V8.9a.75.75 0 0 1-1.5 0"/><path fill="currentColor" d="m8.38 7.67l2.25 2.25a.75.75 0 0 1 0 1.061L8.38 13.23a.749.749 0 1 1-1.06-1.06l1.719-1.72L7.32 8.731A.75.75 0 0 1 8.38 7.67M15 13.45h-3a.75.75 0 0 1 0-1.5h3a.75.75 0 0 1 0 1.5"/></symbol><symbol id="hd-icon-octicon-agent-24" viewBox="0 0 24 24"><path fill="currentColor" d="M22.5 13.919v-.278a5.097 5.097 0 0 0-4.961-5.086a.86.86 0 0 1-.754-.497l-.149-.327A6.41 6.41 0 0 0 10.81 4a6.133 6.133 0 0 0-6.13 6.32l.019.628a.86.86 0 0 1-.67.869A3.26 3.26 0 0 0 1.5 14.996v.108A3.397 3.397 0 0 0 4.896 18.5h1.577a.75.75 0 0 1 0 1.5H4.896A4.896 4.896 0 0 1 0 15.104v-.108a4.76 4.76 0 0 1 3.185-4.493l-.004-.137A7.633 7.633 0 0 1 10.81 2.5a7.91 7.91 0 0 1 7.176 4.58C21.36 7.377 24 10.207 24 13.641v.278a.75.75 0 0 1-1.5 0"/><path fill="currentColor" d="m12.306 11.77l3.374 3.375a.75.75 0 0 1 0 1.061l-3.375 3.375l-.057.051a.75.75 0 0 1-1.004-.051a.75.75 0 0 1-.051-1.004l.051-.057l2.845-2.845l-2.844-2.844a.75.75 0 1 1 1.061-1.061M22.5 19.8H18a.75.75 0 0 1 0-1.5h4.5a.75.75 0 0 1 0 1.5"/></symbol><symbol id="hd-icon-octicon-ai-model-16" viewBox="0 0 16 16"><path fill="currentColor" d="M10.628 7.25a2.25 2.25 0 1 1 0 1.5H8.622a2.25 2.25 0 0 1-2.513 1.466L5.03 12.124a2.25 2.25 0 1 1-1.262-.814l1.035-1.832A2.25 2.25 0 0 1 4.25 8c0-.566.209-1.082.553-1.478L3.768 4.69a2.25 2.25 0 1 1 1.262-.814l1.079 1.908A2.25 2.25 0 0 1 8.622 7.25ZM2.5 2.5a.75.75 0 1 0 1.5 0a.75.75 0 0 0-1.5 0m4 4.75a.75.75 0 1 0 0 1.5a.75.75 0 0 0 0-1.5m6.25 0a.75.75 0 1 0 0 1.5a.75.75 0 0 0 0-1.5m-9.5 5.5a.75.75 0 1 0 0 1.5a.75.75 0 0 0 0-1.5"/></symbol><symbol id="hd-icon-octicon-ai-model-24" viewBox="0 0 24 24"><path fill="currentColor" d="M19.375 8.5a3.25 3.25 0 1 1-3.163 4h-3a3.252 3.252 0 0 1-4.443 2.509L7.214 17.76a3.25 3.25 0 1 1-1.342-.674l1.672-2.957A3.24 3.24 0 0 1 6.75 12c0-.907.371-1.727.97-2.316L6.117 6.846A3.253 3.253 0 0 1 1.875 3.75a3.25 3.25 0 1 1 5.526 2.32l1.603 2.836A3.25 3.25 0 0 1 13.093 11h3.119a3.25 3.25 0 0 1 3.163-2.5M10 10.25a1.75 1.75 0 1 0-.001 3.499A1.75 1.75 0 0 0 10 10.25M5.125 2a1.75 1.75 0 1 0 0 3.5a1.75 1.75 0 0 0 0-3.5m12.5 9.75a1.75 1.75 0 1 0 3.5 0a1.75 1.75 0 0 0-3.5 0m-14.25 8.5a1.75 1.75 0 1 0 3.501-.001a1.75 1.75 0 0 0-3.501.001"/></symbol><symbol id="hd-icon-octicon-alert" viewBox="0 0 16 16"><path fill-rule="evenodd" d="M8.893 1.5c-.183-.31-.52-.5-.887-.5s-.703.19-.886.5L.138 13.499a.98.98 0 0 0 0 1.001c.193.31.53.501.886.501h13.964c.367 0 .704-.19.877-.5a1.03 1.03 0 0 0 .01-1.002L8.893 1.5zm.133 11.497H6.987v-2.003h2.039v2.003zm0-3.004H6.987V5.987h2.039v4.006z" fill="currentColor"/></symbol><symbol id="hd-icon-octicon-alert-16" viewBox="0 0 16 16"><path fill="currentColor" d="M6.457 1.047c.659-1.234 2.427-1.234 3.086 0l6.082 11.378A1.75 1.75 0 0 1 14.082 15H1.918a1.75 1.75 0 0 1-1.543-2.575Zm1.763.707a.25.25 0 0 0-.44 0L1.698 13.132a.25.25 0 0 0 .22.368h12.164a.25.25 0 0 0 .22-.368Zm.53 3.996v2.5a.75.75 0 0 1-1.5 0v-2.5a.75.75 0 0 1 1.5 0M9 11a1 1 0 1 1-2 0a1 1 0 0 1 2 0"/></symbol><symbol id="hd-icon-octicon-alert-24" viewBox="0 0 24 24"><path fill="currentColor" d="M13 17.5a1 1 0 1 1-2 0a1 1 0 0 1 2 0m-.25-8.25a.75.75 0 0 0-1.5 0v4.5a.75.75 0 0 0 1.5 0z"/><path fill="currentColor" d="M9.836 3.244c.963-1.665 3.365-1.665 4.328 0l8.967 15.504c.963 1.667-.24 3.752-2.165 3.752H3.034c-1.926 0-3.128-2.085-2.165-3.752Zm3.03.751a1.002 1.002 0 0 0-1.732 0L2.168 19.499A1.002 1.002 0 0 0 3.034 21h17.932a1.002 1.002 0 0 0 .866-1.5L12.866 3.994Z"/></symbol><symbol id="hd-icon-octicon-alert-fill-12" viewBox="0 0 12 12"><path fill="currentColor" d="M4.855.708c.5-.896 1.79-.896 2.29 0l4.675 8.351a1.312 1.312 0 0 1-1.146 1.954H1.33A1.313 1.313 0 0 1 .183 9.058ZM7 7V3H5v4Zm-1 3a1 1 0 1 0 0-2a1 1 0 0 0 0 2"/></symbol><symbol id="hd-icon-octicon-alert-fill-16" viewBox="0 0 16 16"><path fill="currentColor" d="M6.457 1.047c.659-1.234 2.427-1.234 3.086 0l6.082 11.378A1.75 1.75 0 0 1 14.082 15H1.918a1.75 1.75 0 0 1-1.543-2.575ZM8 5a.75.75 0 0 0-.75.75v2.5a.75.75 0 0 0 1.5 0v-2.5A.75.75 0 0 0 8 5m1 6a1 1 0 1 0-2 0a1 1 0 0 0 2 0"/></symbol><symbol id="hd-icon-octicon-alert-fill-24" viewBox="0 0 24 24"><path fill="currentColor" d="M9.836 3.244c.963-1.665 3.365-1.665 4.328 0l8.967 15.504c.963 1.667-.24 3.752-2.165 3.752H3.034c-1.926 0-3.128-2.085-2.165-3.752ZM12 8.5a.75.75 0 0 0-.75.75v4.5a.75.75 0 0 0 1.5 0v-4.5A.75.75 0 0 0 12 8.5m1 9a1 1 0 1 0-2 0a1 1 0 0 0 2 0"/></symbol><symbol id="hd-icon-octicon-apps-16" viewBox="0 0 16 16"><path fill="currentColor" d="M1.5 3.25c0-.966.784-1.75 1.75-1.75h2.5c.966 0 1.75.784 1.75 1.75v2.5A1.75 1.75 0 0 1 5.75 7.5h-2.5A1.75 1.75 0 0 1 1.5 5.75Zm7 0c0-.966.784-1.75 1.75-1.75h2.5c.966 0 1.75.784 1.75 1.75v2.5a1.75 1.75 0 0 1-1.75 1.75h-2.5A1.75 1.75 0 0 1 8.5 5.75Zm-7 7c0-.966.784-1.75 1.75-1.75h2.5c.966 0 1.75.784 1.75 1.75v2.5a1.75 1.75 0 0 1-1.75 1.75h-2.5a1.75 1.75 0 0 1-1.75-1.75Zm7 0c0-.966.784-1.75 1.75-1.75h2.5c.966 0 1.75.784 1.75 1.75v2.5a1.75 1.75 0 0 1-1.75 1.75h-2.5a1.75 1.75 0 0 1-1.75-1.75ZM3.25 3a.25.25 0 0 0-.25.25v2.5c0 .138.112.25.25.25h2.5A.25.25 0 0 0 6 5.75v-2.5A.25.25 0 0 0 5.75 3Zm7 0a.25.25 0 0 0-.25.25v2.5c0 .138.112.25.25.25h2.5a.25.25 0 0 0 .25-.25v-2.5a.25.25 0 0 0-.25-.25Zm-7 7a.25.25 0 0 0-.25.25v2.5c0 .138.112.25.25.25h2.5a.25.25 0 0 0 .25-.25v-2.5a.25.25 0 0 0-.25-.25Zm7 0a.25.25 0 0 0-.25.25v2.5c0 .138.112.25.25.25h2.5a.25.25 0 0 0 .25-.25v-2.5a.25.25 0 0 0-.25-.25Z"/></symbol><symbol id="hd-icon-octicon-apps-24" viewBox="0 0 24 24"><path fill="currentColor" d="M5.5 2.75A2.75 2.75 0 0 0 2.75 5.5v3a2.75 2.75 0 0 0 2.75 2.75h3a2.75 2.75 0 0 0 2.75-2.75v-3A2.75 2.75 0 0 0 8.5 2.75zM4.25 5.5c0-.69.56-1.25 1.25-1.25h3c.69 0 1.25.56 1.25 1.25v3c0 .69-.56 1.25-1.25 1.25h-3c-.69 0-1.25-.56-1.25-1.25zm1.25 7.25a2.75 2.75 0 0 0-2.75 2.75v3a2.75 2.75 0 0 0 2.75 2.75h3a2.75 2.75 0 0 0 2.75-2.75v-3a2.75 2.75 0 0 0-2.75-2.75zM4.25 15.5c0-.69.56-1.25 1.25-1.25h3c.69 0 1.25.56 1.25 1.25v3c0 .69-.56 1.25-1.25 1.25h-3c-.69 0-1.25-.56-1.25-1.25zm8.5-10a2.75 2.75 0 0 1 2.75-2.75h3a2.75 2.75 0 0 1 2.75 2.75v3a2.75 2.75 0 0 1-2.75 2.75h-3a2.75 2.75 0 0 1-2.75-2.75zm2.75-1.25c-.69 0-1.25.56-1.25 1.25v3c0 .69.56 1.25 1.25 1.25h3c.69 0 1.25-.56 1.25-1.25v-3c0-.69-.56-1.25-1.25-1.25zm0 8.5a2.75 2.75 0 0 0-2.75 2.75v3a2.75 2.75 0 0 0 2.75 2.75h3a2.75 2.75 0 0 0 2.75-2.75v-3a2.75 2.75 0 0 0-2.75-2.75zm-1.25 2.75c0-.69.56-1.25 1.25-1.25h3c.69 0 1.25.56 1.25 1.25v3c0 .69-.56 1.25-1.25 1.25h-3c-.69 0-1.25-.56-1.25-1.25z"/></symbol><symbol id="hd-icon-octicon-archive" viewBox="0 0 14 16"><path fill-rule="evenodd" d="M13 2H1v2h12V2zM0 4a1 1 0 0 0 1 1v9a1 1 0 0 0 1 1h10a1 1 0 0 0 1-1V5a1 1 0 0 0 1-1V2a1 1 0 0 0-1-1H1a1 1 0 0 0-1 1v2zm2 1h10v9H2V5zm2 3h6V7H4v1z" fill="currentColor"/></symbol><symbol id="hd-icon-octicon-archive-16" viewBox="0 0 16 16"><path fill="currentColor" d="M0 2.75C0 1.784.784 1 1.75 1h12.5c.966 0 1.75.784 1.75 1.75v1.5A1.75 1.75 0 0 1 14.25 6H1.75A1.75 1.75 0 0 1 0 4.25ZM1.75 7a.75.75 0 0 1 .75.75v5.5c0 .138.112.25.25.25h10.5a.25.25 0 0 0 .25-.25v-5.5a.75.75 0 0 1 1.5 0v5.5A1.75 1.75 0 0 1 13.25 15H2.75A1.75 1.75 0 0 1 1 13.25v-5.5A.75.75 0 0 1 1.75 7m0-4.5a.25.25 0 0 0-.25.25v1.5c0 .138.112.25.25.25h12.5a.25.25 0 0 0 .25-.25v-1.5a.25.25 0 0 0-.25-.25ZM6.25 8h3.5a.75.75 0 0 1 0 1.5h-3.5a.75.75 0 0 1 0-1.5"/></symbol><symbol id="hd-icon-octicon-archive-24" viewBox="0 0 24 24"><path fill="currentColor" d="M2.75 2h18.5c.966 0 1.75.784 1.75 1.75v3.5A1.75 1.75 0 0 1 21.25 9H2.75A1.75 1.75 0 0 1 1 7.25v-3.5C1 2.784 1.784 2 2.75 2m18.5 1.5H2.75a.25.25 0 0 0-.25.25v3.5c0 .138.112.25.25.25h18.5a.25.25 0 0 0 .25-.25v-3.5a.25.25 0 0 0-.25-.25M2.75 10a.75.75 0 0 1 .75.75v9.5c0 .138.112.25.25.25h16.5a.25.25 0 0 0 .25-.25v-9.5a.75.75 0 0 1 1.5 0v9.5A1.75 1.75 0 0 1 20.25 22H3.75A1.75 1.75 0 0 1 2 20.25v-9.5a.75.75 0 0 1 .75-.75"/><path fill="currentColor" d="M9.75 11.5a.75.75 0 0 0 0 1.5h4.5a.75.75 0 0 0 0-1.5z"/></symbol><symbol id="hd-icon-octicon-arrow-both" viewBox="0 0 20 16"><path d="M0 8l6-5v3h8V3l6 5l-6 5v-3H6v3L0 8z" fill="currentColor"/></symbol><symbol id="hd-icon-octicon-arrow-both-16" viewBox="0 0 16 16"><path fill="currentColor" d="M3.72 3.72a.75.75 0 0 1 1.042.018a.75.75 0 0 1 .018 1.042L2.56 7h10.88l-2.22-2.22a.75.75 0 0 1 .018-1.042a.75.75 0 0 1 1.042-.018l3.5 3.5a.75.75 0 0 1 0 1.06l-3.5 3.5a.749.749 0 0 1-1.275-.326a.75.75 0 0 1 .215-.734l2.22-2.22H2.56l2.22 2.22a.749.749 0 0 1-.326 1.275a.75.75 0 0 1-.734-.215l-3.5-3.5a.75.75 0 0 1 0-1.06Z"/></symbol><symbol id="hd-icon-octicon-arrow-both-24" viewBox="0 0 24 24"><path fill="currentColor" d="M7.78 5.97a.75.75 0 0 0-1.06 0l-5.25 5.25a.75.75 0 0 0 0 1.06l5.25 5.25a.75.75 0 0 0 1.06-1.06L3.81 12.5h16.38l-3.97 3.97a.75.75 0 1 0 1.06 1.06l5.25-5.25a.75.75 0 0 0 0-1.06l-5.25-5.25a.75.75 0 1 0-1.06 1.06L20.19 11H3.81l3.97-3.97a.75.75 0 0 0 0-1.06"/></symbol><symbol id="hd-icon-octicon-arrow-down" viewBox="0 0 10 16"><path fill-rule="evenodd" d="M7 7V3H3v4H0l5 6l5-6H7z" fill="currentColor"/></symbol><symbol id="hd-icon-octicon-arrow-down-16" viewBox="0 0 16 16"><path fill="currentColor" d="M13.03 8.22a.75.75 0 0 1 0 1.06l-4.25 4.25a.75.75 0 0 1-1.06 0L3.47 9.28a.75.75 0 0 1 .018-1.042a.75.75 0 0 1 1.042-.018l2.97 2.97V3.75a.75.75 0 0 1 1.5 0v7.44l2.97-2.97a.75.75 0 0 1 1.06 0"/></symbol><symbol id="hd-icon-octicon-arrow-down-24" viewBox="0 0 24 24"><path fill="currentColor" d="M4.97 13.22a.75.75 0 0 1 1.06 0L11 18.19V3.75a.75.75 0 0 1 1.5 0v14.44l4.97-4.97a.749.749 0 0 1 1.275.326a.75.75 0 0 1-.215.734l-6.25 6.25a.75.75 0 0 1-1.06 0l-6.25-6.25a.75.75 0 0 1 0-1.06"/></symbol><symbol id="hd-icon-octicon-arrow-down-left-16" viewBox="0 0 16 16"><path fill="currentColor" d="M11.78 4.22a.75.75 0 0 1 0 1.06l-5.26 5.26h4.2a.75.75 0 0 1 0 1.5H4.71a.75.75 0 0 1-.75-.75V5.28a.75.75 0 0 1 1.5 0v4.2l5.26-5.26a.75.75 0 0 1 1.06 0"/></symbol><symbol id="hd-icon-octicon-arrow-down-left-24" viewBox="0 0 24 24"><path fill="currentColor" d="M5.75 8.5a.75.75 0 0 1 .75.75v7.19L16.72 6.22a.75.75 0 0 1 1.042.018a.75.75 0 0 1 .018 1.042L7.56 17.5h7.19a.75.75 0 0 1 0 1.5h-9a.75.75 0 0 1-.75-.75v-9a.75.75 0 0 1 .75-.75"/></symbol><symbol id="hd-icon-octicon-arrow-down-right-16" viewBox="0 0 16 16"><path fill="currentColor" d="M4.22 4.179a.75.75 0 0 1 1.06 0l5.26 5.26v-4.2a.75.75 0 0 1 1.5 0v6.01a.75.75 0 0 1-.75.75H5.28a.75.75 0 0 1 0-1.5h4.2L4.22 5.24a.75.75 0 0 1 0-1.06Z"/></symbol><symbol id="hd-icon-octicon-arrow-down-right-24" viewBox="0 0 24 24"><path fill="currentColor" d="M18.25 8.5a.75.75 0 0 1 .75.75v9a.75.75 0 0 1-.75.75h-9a.75.75 0 0 1 0-1.5h7.19L6.22 7.28a.75.75 0 0 1 .018-1.042a.75.75 0 0 1 1.042-.018L17.5 16.44V9.25a.75.75 0 0 1 .75-.75"/></symbol><symbol id="hd-icon-octicon-arrow-left" viewBox="0 0 10 16"><path fill-rule="evenodd" d="M6 3L0 8l6 5v-3h4V6H6V3z" fill="currentColor"/></symbol><symbol id="hd-icon-octicon-arrow-left-16" viewBox="0 0 16 16"><path fill="currentColor" d="M7.78 12.53a.75.75 0 0 1-1.06 0L2.47 8.28a.75.75 0 0 1 0-1.06l4.25-4.25a.75.75 0 0 1 1.042.018a.75.75 0 0 1 .018 1.042L4.81 7h7.44a.75.75 0 0 1 0 1.5H4.81l2.97 2.97a.75.75 0 0 1 0 1.06"/></symbol><symbol id="hd-icon-octicon-arrow-left-24" viewBox="0 0 24 24"><path fill="currentColor" d="M10.78 19.03a.75.75 0 0 1-1.06 0l-6.25-6.25a.75.75 0 0 1 0-1.06l6.25-6.25a.749.749 0 0 1 1.275.326a.75.75 0 0 1-.215.734L5.81 11.5h14.44a.75.75 0 0 1 0 1.5H5.81l4.97 4.97a.75.75 0 0 1 0 1.06"/></symbol><symbol id="hd-icon-octicon-arrow-right" viewBox="0 0 10 16"><path fill-rule="evenodd" d="M10 8L4 3v3H0v4h4v3l6-5z" fill="currentColor"/></symbol><symbol id="hd-icon-octicon-arrow-right-16" viewBox="0 0 16 16"><path fill="currentColor" d="M8.22 2.97a.75.75 0 0 1 1.06 0l4.25 4.25a.75.75 0 0 1 0 1.06l-4.25 4.25a.75.75 0 0 1-1.042-.018a.75.75 0 0 1-.018-1.042l2.97-2.97H3.75a.75.75 0 0 1 0-1.5h7.44L8.22 4.03a.75.75 0 0 1 0-1.06"/></symbol><symbol id="hd-icon-octicon-arrow-right-24" viewBox="0 0 24 24"><path fill="currentColor" d="M13.22 19.03a.75.75 0 0 1 0-1.06L18.19 13H3.75a.75.75 0 0 1 0-1.5h14.44l-4.97-4.97a.749.749 0 0 1 .326-1.275a.75.75 0 0 1 .734.215l6.25 6.25a.75.75 0 0 1 0 1.06l-6.25 6.25a.75.75 0 0 1-1.06 0"/></symbol><symbol id="hd-icon-octicon-arrow-small-down" viewBox="0 0 6 16"><path fill-rule="evenodd" d="M4 7V5H2v2H0l3 4l3-4H4z" fill="currentColor"/></symbol><symbol id="hd-icon-octicon-arrow-small-left" viewBox="0 0 6 16"><path fill-rule="evenodd" d="M4 7V5L0 8l4 3V9h2V7H4z" fill="currentColor"/></symbol><symbol id="hd-icon-octicon-arrow-small-right" viewBox="0 0 6 16"><path fill-rule="evenodd" d="M6 8L2 5v2H0v2h2v2l4-3z" fill="currentColor"/></symbol><symbol id="hd-icon-octicon-arrow-small-up" viewBox="0 0 6 16"><path fill-rule="evenodd" d="M3 5L0 9h2v2h2V9h2L3 5z" fill="currentColor"/></symbol><symbol id="hd-icon-octicon-arrow-switch-16" viewBox="0 0 16 16"><path fill="currentColor" d="M5.22 14.78a.75.75 0 0 0 1.06-1.06L4.56 12h8.69a.75.75 0 0 0 0-1.5H4.56l1.72-1.72a.75.75 0 0 0-1.06-1.06l-3 3a.75.75 0 0 0 0 1.06zm5.56-6.5a.75.75 0 1 1-1.06-1.06l1.72-1.72H2.75a.75.75 0 0 1 0-1.5h8.69L9.72 2.28a.75.75 0 0 1 1.06-1.06l3 3a.75.75 0 0 1 0 1.06z"/></symbol><symbol id="hd-icon-octicon-arrow-switch-24" viewBox="0 0 24 24"><path fill="currentColor" d="M7.72 21.78a.75.75 0 0 0 1.06-1.06L5.56 17.5h14.69a.75.75 0 0 0 0-1.5H5.56l3.22-3.22a.75.75 0 1 0-1.06-1.06l-4.5 4.5a.75.75 0 0 0 0 1.06zm8.56-9.5a.75.75 0 1 1-1.06-1.06L18.44 8H3.75a.75.75 0 0 1 0-1.5h14.69l-3.22-3.22a.75.75 0 0 1 1.06-1.06l4.5 4.5a.75.75 0 0 1 0 1.06z"/></symbol><symbol id="hd-icon-octicon-arrow-up" viewBox="0 0 10 16"><path fill-rule="evenodd" d="M5 3L0 9h3v4h4V9h3L5 3z" fill="currentColor"/></symbol><symbol id="hd-icon-octicon-arrow-up-16" viewBox="0 0 16 16"><path fill="currentColor" d="M3.47 7.78a.75.75 0 0 1 0-1.06l4.25-4.25a.75.75 0 0 1 1.06 0l4.25 4.25a.75.75 0 0 1-.018 1.042a.75.75 0 0 1-1.042.018L9 4.81v7.44a.75.75 0 0 1-1.5 0V4.81L4.53 7.78a.75.75 0 0 1-1.06 0"/></symbol><symbol id="hd-icon-octicon-arrow-up-24" viewBox="0 0 24 24"><path fill="currentColor" d="M18.655 10.405a.75.75 0 0 1-1.06 0l-4.97-4.97v14.44a.75.75 0 0 1-1.5 0V5.435l-4.97 4.97a.749.749 0 0 1-1.275-.326a.75.75 0 0 1 .215-.734l6.25-6.25a.75.75 0 0 1 1.06 0l6.25 6.25a.75.75 0 0 1 0 1.06"/></symbol><symbol id="hd-icon-octicon-arrow-up-left-16" viewBox="0 0 16 16"><path fill="currentColor" d="M3.96 4.75A.75.75 0 0 1 4.71 4h6.01a.75.75 0 0 1 0 1.5h-4.2l5.26 5.26a.75.75 0 0 1-1.06 1.061l-5.26-5.26v4.2a.75.75 0 0 1-1.5 0Z"/></symbol><symbol id="hd-icon-octicon-arrow-up-left-24" viewBox="0 0 24 24"><path fill="currentColor" d="M5.75 15.5a.75.75 0 0 1-.75-.75v-9A.75.75 0 0 1 5.75 5h9a.75.75 0 0 1 0 1.5H7.56l10.22 10.22a.749.749 0 0 1-.326 1.275a.75.75 0 0 1-.734-.215L6.5 7.56v7.19a.75.75 0 0 1-.75.75"/></symbol><symbol id="hd-icon-octicon-arrow-up-right-16" viewBox="0 0 16 16"><path fill="currentColor" d="M4.53 4.75A.75.75 0 0 1 5.28 4h6.01a.75.75 0 0 1 .75.75v6.01a.75.75 0 0 1-1.5 0v-4.2l-5.26 5.261a.749.749 0 0 1-1.275-.326a.75.75 0 0 1 .215-.734L9.48 5.5h-4.2a.75.75 0 0 1-.75-.75"/></symbol><symbol id="hd-icon-octicon-arrow-up-right-24" viewBox="0 0 24 24"><path fill="currentColor" d="M18.25 15.5a.75.75 0 0 1-.75-.75V7.56L7.28 17.78a.749.749 0 0 1-1.275-.326a.75.75 0 0 1 .215-.734L16.44 6.5H9.25a.75.75 0 0 1 0-1.5h9a.75.75 0 0 1 .75.75v9a.75.75 0 0 1-.75.75"/></symbol><symbol id="hd-icon-octicon-beaker" viewBox="0 0 16 16"><path fill-rule="evenodd" d="M14.38 14.59L11 7V3h1V2H3v1h1v4L.63 14.59A1 1 0 0 0 1.54 16h11.94c.72 0 1.2-.75.91-1.41h-.01zM3.75 10L5 7V3h5v4l1.25 3h-7.5zM8 8h1v1H8V8zM7 7H6V6h1v1zm0-3h1v1H7V4zm0-3H6V0h1v1z" fill="currentColor"/></symbol><symbol id="hd-icon-octicon-beaker-16" viewBox="0 0 16 16"><path fill="currentColor" d="M5 5.782V2.5h-.25a.75.75 0 0 1 0-1.5h6.5a.75.75 0 0 1 0 1.5H11v3.282l3.666 5.76C15.619 13.04 14.543 15 12.767 15H3.233c-1.776 0-2.852-1.96-1.899-3.458Zm-2.4 6.565a.75.75 0 0 0 .633 1.153h9.534a.75.75 0 0 0 .633-1.153L12.225 10.5h-8.45ZM9.5 2.5h-3V6c0 .143-.04.283-.117.403L4.73 9h6.54L9.617 6.403A.75.75 0 0 1 9.5 6Z"/></symbol><symbol id="hd-icon-octicon-beaker-24" viewBox="0 0 24 24"><path fill="currentColor" d="M8 8.807V3.5h-.563a.75.75 0 0 1 0-1.5h9.125a.75.75 0 0 1 0 1.5H16v5.307l5.125 9.301c.964 1.75-.302 3.892-2.299 3.892H5.174c-1.998 0-3.263-2.142-2.3-3.892ZM4.189 18.832a1.123 1.123 0 0 0 .985 1.668h13.652a1.123 1.123 0 0 0 .985-1.668L17.7 15H6.3ZM14.5 3.5h-5V9a.75.75 0 0 1-.093.362L7.127 13.5h9.746l-2.28-4.138A.75.75 0 0 1 14.5 9Z"/></symbol><symbol id="hd-icon-octicon-bell" viewBox="0 0 15 16"><path fill-rule="evenodd" d="M14 12v1H0v-1l.73-.58c.77-.77.81-2.55 1.19-4.42C2.69 3.23 6 2 6 2c0-.55.45-1 1-1s1 .45 1 1c0 0 3.39 1.23 4.16 5c.38 1.88.42 3.66 1.19 4.42l.66.58H14zm-7 4c1.11 0 2-.89 2-2H5c0 1.11.89 2 2 2z" fill="currentColor"/></symbol><symbol id="hd-icon-octicon-bell-16" viewBox="0 0 16 16"><path fill="currentColor" d="M8 16a2 2 0 0 0 1.985-1.75c.017-.137-.097-.25-.235-.25h-3.5c-.138 0-.252.113-.235.25A2 2 0 0 0 8 16M3 5a5 5 0 0 1 10 0v2.947q0 .076.042.139l1.703 2.555A1.519 1.519 0 0 1 13.482 13H2.518a1.516 1.516 0 0 1-1.263-2.36l1.703-2.554A.26.26 0 0 0 3 7.947Zm5-3.5A3.5 3.5 0 0 0 4.5 5v2.947c0 .346-.102.683-.294.97l-1.703 2.556l-.003.01l.001.006q0 .003.004.006l.006.004l.007.001h10.964l.007-.001l.006-.004l.004-.006l.001-.007l-.003-.01l-1.703-2.554a1.75 1.75 0 0 1-.294-.97V5A3.5 3.5 0 0 0 8 1.5"/></symbol><symbol id="hd-icon-octicon-bell-24" viewBox="0 0 24 24"><path fill="currentColor" d="M12 1c3.681 0 7 2.565 7 6v4.539c0 .642.189 1.269.545 1.803l2.2 3.298A1.517 1.517 0 0 1 20.482 19H15.5a3.5 3.5 0 1 1-7 0H3.519a1.518 1.518 0 0 1-1.265-2.359l2.2-3.299A3.25 3.25 0 0 0 5 11.539V7c0-3.435 3.318-6 7-6M6.5 7v4.539a4.75 4.75 0 0 1-.797 2.635l-2.2 3.298l-.003.01l.001.007l.004.006l.006.004l.007.001h16.964l.007-.001l.006-.004l.004-.006l.001-.006l-.003-.01l-2.199-3.299a4.75 4.75 0 0 1-.798-2.635V7c0-2.364-2.383-4.5-5.5-4.5S6.5 4.636 6.5 7M14 19h-4a2 2 0 1 0 4 0"/></symbol><symbol id="hd-icon-octicon-bell-fill-16" viewBox="0 0 16 16"><path fill="currentColor" d="M8 16c.9 0 1.7-.6 1.9-1.5c.1-.3-.1-.5-.4-.5h-3c-.3 0-.5.2-.4.5c.2.9 1 1.5 1.9 1.5M3 5c0-2.8 2.2-5 5-5s5 2.2 5 5v3l1.7 2.6c.2.2.3.5.3.8c0 .8-.7 1.5-1.5 1.5h-11c-.8.1-1.5-.6-1.5-1.4c0-.3.1-.6.3-.8L3 8.1z"/></symbol><symbol id="hd-icon-octicon-bell-fill-24" viewBox="0 0 24 24"><path fill="currentColor" d="M6 8a6 6 0 1 1 12 0v2.917c0 .703.228 1.387.65 1.95L20.7 15.6a1.5 1.5 0 0 1-1.2 2.4h-15a1.5 1.5 0 0 1-1.2-2.4l2.05-2.733a3.25 3.25 0 0 0 .65-1.95Zm6 13.5A3.5 3.5 0 0 1 8.645 19h6.71A3.5 3.5 0 0 1 12 21.5"/></symbol><symbol id="hd-icon-octicon-bell-slash-16" viewBox="0 0 16 16"><path fill="currentColor" d="m4.182 4.31l.016.011l10.104 7.316l.013.01l1.375.996a.75.75 0 1 1-.88 1.214L13.626 13H2.518a1.516 1.516 0 0 1-1.263-2.36l1.703-2.554A.26.26 0 0 0 3 7.947V5.305L.31 3.357a.75.75 0 1 1 .88-1.214Zm7.373 7.19L4.5 6.391v1.556c0 .346-.102.683-.294.97l-1.703 2.556l-.003.01q0 .008.005.012l.006.004l.007.001ZM8 1.5c-.997 0-1.895.416-2.534 1.086A.75.75 0 1 1 4.38 1.55A5 5 0 0 1 13 5v2.373a.75.75 0 0 1-1.5 0V5A3.5 3.5 0 0 0 8 1.5M8 16a2 2 0 0 1-1.985-1.75c-.017-.137.097-.25.235-.25h3.5c.138 0 .252.113.235.25A2 2 0 0 1 8 16"/></symbol><symbol id="hd-icon-octicon-bell-slash-24" viewBox="0 0 24 24"><path fill="currentColor" d="M1.22 1.22a.75.75 0 0 1 1.06 0l20.5 20.5a.749.749 0 0 1-.326 1.275a.75.75 0 0 1-.734-.215L17.94 19H15.5a3.5 3.5 0 1 1-7 0H3.518a1.516 1.516 0 0 1-1.263-2.36l2.2-3.298A3.25 3.25 0 0 0 5 11.539V7q0-.441.073-.866L1.22 2.28a.75.75 0 0 1 0-1.06M6.5 7.56h-.001v3.979a4.75 4.75 0 0 1-.797 2.635l-2.2 3.298l-.003.01l.001.007l.004.006l.006.004l.007.001H16.44ZM10 19a2 2 0 1 0 4 0Zm2-16.5c-1.463 0-2.8.485-3.788 1.257l-.04.032a.75.75 0 1 1-.935-1.173l.05-.04C8.548 1.59 10.212 1 12 1c3.681 0 7 2.565 7 6v4.539c0 .642.19 1.269.546 1.803l1.328 1.992a.75.75 0 1 1-1.248.832l-1.328-1.992a4.75 4.75 0 0 1-.798-2.635V7c0-2.364-2.383-4.5-5.5-4.5"/></symbol><symbol id="hd-icon-octicon-blocked-16" viewBox="0 0 16 16"><path fill="currentColor" d="M4.467.22a.75.75 0 0 1 .53-.22h6.006c.199 0 .389.079.53.22l4.247 4.247c.141.14.22.331.22.53v6.006a.75.75 0 0 1-.22.53l-4.247 4.247a.75.75 0 0 1-.53.22H4.997a.75.75 0 0 1-.53-.22L.22 11.533a.75.75 0 0 1-.22-.53V4.997c0-.199.079-.389.22-.53Zm.84 1.28L1.5 5.308v5.384L5.308 14.5h5.384l3.808-3.808V5.308L10.692 1.5ZM4 7.75A.75.75 0 0 1 4.75 7h6.5a.75.75 0 0 1 0 1.5h-6.5A.75.75 0 0 1 4 7.75"/></symbol><symbol id="hd-icon-octicon-blocked-24" viewBox="0 0 24 24"><path fill="currentColor" d="M7.638 2.22a.75.75 0 0 1 .53-.22h7.664c.199 0 .389.079.53.22l5.418 5.418c.141.14.22.332.22.53v7.664a.75.75 0 0 1-.22.53l-5.418 5.418a.75.75 0 0 1-.53.22H8.168a.75.75 0 0 1-.53-.22l-5.42-5.418a.75.75 0 0 1-.219-.53V8.168c0-.199.079-.389.22-.53l5.418-5.42ZM8.48 3.5L3.5 8.48v7.04l4.98 4.98h7.04l4.98-4.98V8.48L15.52 3.5ZM7 11.75a.75.75 0 0 1 .75-.75h8.5a.75.75 0 0 1 0 1.5h-8.5a.75.75 0 0 1-.75-.75"/></symbol><symbol id="hd-icon-octicon-bold" viewBox="0 0 10 16"><path fill-rule="evenodd" d="M1 2h3.83c2.48 0 4.3.75 4.3 2.95c0 1.14-.63 2.23-1.67 2.61v.06c1.33.3 2.3 1.23 2.3 2.86c0 2.39-1.97 3.52-4.61 3.52H1V2zm3.66 4.95c1.67 0 2.38-.66 2.38-1.69c0-1.17-.78-1.61-2.34-1.61H3.13v3.3h1.53zm.27 5.39c1.77 0 2.75-.64 2.75-1.98c0-1.27-.95-1.81-2.75-1.81h-1.8v3.8h1.8v-.01z" fill="currentColor"/></symbol><symbol id="hd-icon-octicon-bold-16" viewBox="0 0 16 16"><path fill="currentColor" d="M4 2h4.5a3.501 3.501 0 0 1 2.852 5.53A3.499 3.499 0 0 1 9.5 14H4a1 1 0 0 1-1-1V3a1 1 0 0 1 1-1m1 7v3h4.5a1.5 1.5 0 0 0 0-3Zm3.5-2a1.5 1.5 0 0 0 0-3H5v3Z"/></symbol><symbol id="hd-icon-octicon-bold-24" viewBox="0 0 24 24"><path fill="currentColor" d="M6 4.75c0-.69.56-1.25 1.25-1.25h5a4.752 4.752 0 0 1 3.888 7.479A5 5 0 0 1 14 20.5H7.25c-.69 0-1.25-.56-1.25-1.25ZM8.5 13v5H14a2.5 2.5 0 1 0 0-5Zm0-2.5h3.751A2.25 2.25 0 0 0 12.25 6H8.5Z"/></symbol><symbol id="hd-icon-octicon-book" viewBox="0 0 16 16"><path fill-rule="evenodd" d="M3 5h4v1H3V5zm0 3h4V7H3v1zm0 2h4V9H3v1zm11-5h-4v1h4V5zm0 2h-4v1h4V7zm0 2h-4v1h4V9zm2-6v9c0 .55-.45 1-1 1H9.5l-1 1l-1-1H2c-.55 0-1-.45-1-1V3c0-.55.45-1 1-1h5.5l1 1l1-1H15c.55 0 1 .45 1 1zm-8 .5L7.5 3H2v9h6V3.5zm7-.5H9.5l-.5.5V12h6V3z" fill="currentColor"/></symbol><symbol id="hd-icon-octicon-book-16" viewBox="0 0 16 16"><path fill="currentColor" d="M0 1.75A.75.75 0 0 1 .75 1h4.253c1.227 0 2.317.59 3 1.501A3.74 3.74 0 0 1 11.006 1h4.245a.75.75 0 0 1 .75.75v10.5a.75.75 0 0 1-.75.75h-4.507a2.25 2.25 0 0 0-1.591.659l-.622.621a.75.75 0 0 1-1.06 0l-.622-.621A2.25 2.25 0 0 0 5.258 13H.75a.75.75 0 0 1-.75-.75Zm7.251 10.324l.004-5.073l-.002-2.253A2.25 2.25 0 0 0 5.003 2.5H1.5v9h3.757a3.75 3.75 0 0 1 1.994.574M8.755 4.75l-.004 7.322a3.75 3.75 0 0 1 1.992-.572H14.5v-9h-3.495a2.25 2.25 0 0 0-2.25 2.25"/></symbol><symbol id="hd-icon-octicon-book-24" viewBox="0 0 24 24"><path fill="currentColor" d="M0 3.75A.75.75 0 0 1 .75 3h7.497c1.566 0 2.945.8 3.751 2.014A4.5 4.5 0 0 1 15.75 3h7.5a.75.75 0 0 1 .75.75v15.063a.75.75 0 0 1-.755.75l-7.682-.052a3 3 0 0 0-2.142.878l-.89.891a.75.75 0 0 1-1.061 0l-.902-.901a3 3 0 0 0-2.121-.879H.75a.75.75 0 0 1-.75-.75Zm12.75 15.232a4.5 4.5 0 0 1 2.823-.971l6.927.047V4.5h-6.75a3 3 0 0 0-3 3ZM11.247 7.497a3 3 0 0 0-3-2.997H1.5V18h6.947c1.018 0 2.006.346 2.803.98Z"/></symbol><symbol id="hd-icon-octicon-bookmark" viewBox="0 0 10 16"><path fill-rule="evenodd" d="M9 0H1C.27 0 0 .27 0 1v15l5-3.09L10 16V1c0-.73-.27-1-1-1zm-.78 4.25L6.36 5.61l.72 2.16c.06.22-.02.28-.2.17L5 6.6L3.12 7.94c-.19.11-.25.05-.2-.17l.72-2.16l-1.86-1.36c-.17-.16-.14-.23.09-.23l2.3-.03l.7-2.16h.25l.7 2.16l2.3.03c.23 0 .27.08.09.23h.01z" fill="currentColor"/></symbol><symbol id="hd-icon-octicon-bookmark-16" viewBox="0 0 16 16"><path fill="currentColor" d="M3 2.75C3 1.784 3.784 1 4.75 1h6.5c.966 0 1.75.784 1.75 1.75v11.5a.75.75 0 0 1-1.227.579L8 11.722l-3.773 3.107A.751.751 0 0 1 3 14.25Zm1.75-.25a.25.25 0 0 0-.25.25v9.91l3.023-2.489a.75.75 0 0 1 .954 0l3.023 2.49V2.75a.25.25 0 0 0-.25-.25Z"/></symbol><symbol id="hd-icon-octicon-bookmark-24" viewBox="0 0 24 24"><path fill="currentColor" d="M5 3.75C5 2.784 5.784 2 6.75 2h10.5c.966 0 1.75.784 1.75 1.75v17.5a.75.75 0 0 1-1.218.586L12 17.21l-5.781 4.625A.75.75 0 0 1 5 21.25Zm1.75-.25a.25.25 0 0 0-.25.25v15.94l5.031-4.026a.75.75 0 0 1 .938 0L17.5 19.69V3.75a.25.25 0 0 0-.25-.25Z"/></symbol><symbol id="hd-icon-octicon-bookmark-fill-24" viewBox="0 0 24 24"><path fill="currentColor" d="M6.69 2h10.56c.966 0 1.75.784 1.75 1.75v17.5a.75.75 0 0 1-1.218.585L12 17.21l-5.781 4.626A.75.75 0 0 1 5 21.253L4.94 3.756A1.75 1.75 0 0 1 6.69 2"/></symbol><symbol id="hd-icon-octicon-bookmark-filled-16" viewBox="0 0 16 16"><path fill="currentColor" d="M3 2.75C3 1.784 3.784 1 4.75 1h6.5c.966 0 1.75.784 1.75 1.75v11.5a.75.75 0 0 1-1.227.579L8 11.722l-3.773 3.107A.75.75 0 0 1 3 14.25z"/></symbol><symbol id="hd-icon-octicon-bookmark-slash-16" viewBox="0 0 16 16"><path fill="currentColor" d="M1.19 1.143L4.182 3.31l.014.01l8.486 6.145l.014.01l2.994 2.168a.75.75 0 1 1-.88 1.214L13 11.547v2.703a.75.75 0 0 1-1.206.596L8 11.944l-3.794 2.902A.75.75 0 0 1 3 14.25V4.305L.31 2.357a.75.75 0 1 1 .88-1.214M4.5 5.39v7.341l3.044-2.328a.75.75 0 0 1 .912 0l3.044 2.328V10.46ZM5.865 1h5.385c.966 0 1.75.784 1.75 1.75v3.624a.75.75 0 0 1-1.5 0V2.75a.25.25 0 0 0-.25-.25H5.865a.75.75 0 0 1 0-1.5"/></symbol><symbol id="hd-icon-octicon-bookmark-slash-24" viewBox="0 0 24 24"><path fill="currentColor" d="m1.565 2.018l21.75 15.75a.75.75 0 1 1-.88 1.215L19 16.495v4.764a.748.748 0 0 1-1.219.584L12 17.21l-5.781 4.634A.75.75 0 0 1 5 21.259V6.357L.685 3.232a.75.75 0 0 1 .88-1.214M17.5 15.408l-11-7.965v12.254l5.031-4.032a.75.75 0 0 1 .938 0l5.031 4.032ZM7.25 2a.75.75 0 0 0 0 1.5h10a.25.25 0 0 1 .25.25v6.5a.75.75 0 0 0 1.5 0v-6.5A1.75 1.75 0 0 0 17.25 2z"/></symbol><symbol id="hd-icon-octicon-bookmark-slash-fill-16" viewBox="0 0 16 16"><path fill="currentColor" d="M1.19 1.143a.75.75 0 1 0-.88 1.215L3 4.305v9.945a.75.75 0 0 0 1.206.596L8 11.944l3.794 2.902A.75.75 0 0 0 13 14.25v-2.703l1.81 1.31a.75.75 0 1 0 .88-1.214l-2.994-2.168l-.014-.01L4.196 3.32l-.014-.01zm2.934.203A.5.5 0 0 1 4.6 1h7.233C12.478 1 13 1.522 13 2.167v5.05a.5.5 0 0 1-.793.405l-7.9-5.717a.5.5 0 0 1-.183-.559"/></symbol><symbol id="hd-icon-octicon-bookmark-slash-fill-24" viewBox="0 0 24 24"><path fill="currentColor" d="m3.232 2.175l18.5 15.5a.75.75 0 1 1-.964 1.15L19 17.343v3.907a.75.75 0 0 1-1.218.585L12 17.21l-5.781 4.626A.75.75 0 0 1 5 21.253L4.947 5.569L2.268 3.325a.75.75 0 1 1 .964-1.15M7.421 2h9.829c.966 0 1.75.784 1.75 1.75v8.073a.75.75 0 0 1-1.232.575L6.94 3.325A.75.75 0 0 1 7.421 2"/></symbol><symbol id="hd-icon-octicon-boolean-off-16" viewBox="0 0 16 16"><path fill="currentColor" d="M13.25 1c.966 0 1.75.784 1.75 1.75v10.5c0 .464-.184.909-.513 1.237A1.75 1.75 0 0 1 13.25 15H2.75c-.464 0-.909-.184-1.237-.513A1.75 1.75 0 0 1 1 13.25V2.75C1 1.784 1.784 1 2.75 1zM2.75 2.5a.25.25 0 0 0-.25.25v10.5c0 .138.112.25.25.25h10.5a.25.25 0 0 0 .25-.25V2.75a.25.25 0 0 0-.25-.25z"/><path fill="currentColor" d="M9.5 8a1.5 1.5 0 1 0-3.001.001A1.5 1.5 0 0 0 9.5 8M11 8a3 3 0 1 1-6 0a3 3 0 0 1 6 0"/></symbol><symbol id="hd-icon-octicon-boolean-off-24" viewBox="0 0 24 24"><path fill="currentColor" d="M2 3.75C2 2.784 2.784 2 3.75 2h16.5c.966 0 1.75.784 1.75 1.75v16.5c0 .464-.184.909-.513 1.237A1.75 1.75 0 0 1 20.25 22H3.75c-.464 0-.909-.184-1.237-.513A1.75 1.75 0 0 1 2 20.25zm1.75-.25a.25.25 0 0 0-.25.25v16.5c0 .138.112.25.25.25h16.5a.25.25 0 0 0 .25-.25V3.75a.25.25 0 0 0-.25-.25z"/><path fill="currentColor" d="M14.5 12a2.5 2.5 0 1 0-5 0a2.5 2.5 0 0 0 5 0m1.5 0a4 4 0 1 1-8 0a4 4 0 0 1 8 0"/></symbol><symbol id="hd-icon-octicon-boolean-on-16" viewBox="0 0 16 16"><path fill="currentColor" d="M13.25 1c.966 0 1.75.784 1.75 1.75v10.5c0 .464-.184.909-.513 1.237A1.75 1.75 0 0 1 13.25 15H2.75c-.464 0-.909-.184-1.237-.513A1.75 1.75 0 0 1 1 13.25V2.75C1 1.784 1.784 1 2.75 1zM2.75 2.5a.25.25 0 0 0-.25.25v10.5c0 .138.112.25.25.25h10.5a.25.25 0 0 0 .25-.25V2.75a.25.25 0 0 0-.25-.25z"/><path fill="currentColor" d="M8.75 5.75a.75.75 0 0 0-1.5 0v4.5a.75.75 0 0 0 1.5 0z"/></symbol><symbol id="hd-icon-octicon-boolean-on-24" viewBox="0 0 24 24"><path fill="currentColor" d="M2 3.75C2 2.784 2.784 2 3.75 2h16.5c.966 0 1.75.784 1.75 1.75v16.5c0 .464-.184.909-.513 1.237A1.75 1.75 0 0 1 20.25 22H3.75c-.464 0-.909-.184-1.237-.513A1.75 1.75 0 0 1 2 20.25zm1.75-.25a.25.25 0 0 0-.25.25v16.5c0 .138.112.25.25.25h16.5a.25.25 0 0 0 .25-.25V3.75a.25.25 0 0 0-.25-.25z"/><path fill="currentColor" d="M12.75 8.75a.75.75 0 0 0-1.5 0v6.5a.75.75 0 0 0 1.5 0z"/></symbol><symbol id="hd-icon-octicon-briefcase" viewBox="0 0 14 16"><path fill-rule="evenodd" d="M9 4V3c0-.55-.45-1-1-1H6c-.55 0-1 .45-1 1v1H1c-.55 0-1 .45-1 1v8c0 .55.45 1 1 1h12c.55 0 1-.45 1-1V5c0-.55-.45-1-1-1H9zM6 3h2v1H6V3zm7 6H8v1H6V9H1V5h1v3h10V5h1v4z" fill="currentColor"/></symbol><symbol id="hd-icon-octicon-briefcase-16" viewBox="0 0 16 16"><path fill="currentColor" d="M6.75 0h2.5C10.216 0 11 .784 11 1.75V3h3.25c.966 0 1.75.784 1.75 1.75v8.5A1.75 1.75 0 0 1 14.25 15H1.75A1.75 1.75 0 0 1 0 13.25v-8.5C0 3.784.784 3 1.75 3H5V1.75C5 .784 5.784 0 6.75 0M3.5 9.5a3.5 3.5 0 0 1-2-.627v4.377c0 .138.112.25.25.25h12.5a.25.25 0 0 0 .25-.25V8.873a3.5 3.5 0 0 1-2 .627Zm-1.75-5a.25.25 0 0 0-.25.25V6a2 2 0 0 0 2 2h9a2 2 0 0 0 2-2V4.75a.25.25 0 0 0-.25-.25zM9.5 3V1.75a.25.25 0 0 0-.25-.25h-2.5a.25.25 0 0 0-.25.25V3Z"/></symbol><symbol id="hd-icon-octicon-briefcase-24" viewBox="0 0 24 24"><path fill="currentColor" d="M7.5 1.75C7.5.784 8.284 0 9.25 0h5.5c.966 0 1.75.784 1.75 1.75V4h4.75c.966 0 1.75.784 1.75 1.75v14.5A1.75 1.75 0 0 1 21.25 22H2.75A1.75 1.75 0 0 1 1 20.25V5.75C1 4.784 1.784 4 2.75 4H7.5Zm-5 10.24v8.26c0 .138.112.25.25.25h18.5a.25.25 0 0 0 .25-.25v-8.26A4.24 4.24 0 0 1 18.75 13H5.25a4.24 4.24 0 0 1-2.75-1.01m19-3.24v-3a.25.25 0 0 0-.25-.25H2.75a.25.25 0 0 0-.25.25v3a2.75 2.75 0 0 0 2.75 2.75h13.5a2.75 2.75 0 0 0 2.75-2.75m-6.5-7a.25.25 0 0 0-.25-.25h-5.5a.25.25 0 0 0-.25.25V4h6Z"/></symbol><symbol id="hd-icon-octicon-broadcast" viewBox="0 0 16 16"><path fill-rule="evenodd" d="M9 9H8c.55 0 1-.45 1-1V7c0-.55-.45-1-1-1H7c-.55 0-1 .45-1 1v1c0 .55.45 1 1 1H6c-.55 0-1 .45-1 1v2h1v3c0 .55.45 1 1 1h1c.55 0 1-.45 1-1v-3h1v-2c0-.55-.45-1-1-1zM7 7h1v1H7V7zm2 4H8v4H7v-4H6v-1h3v1zm2.09-3.5c0-1.98-1.61-3.59-3.59-3.59A3.593 3.593 0 0 0 4 8.31v1.98c-.61-.77-1-1.73-1-2.8c0-2.48 2.02-4.5 4.5-4.5S12 5.01 12 7.49c0 1.06-.39 2.03-1 2.8V8.31c.06-.27.09-.53.09-.81zm3.91 0c0 2.88-1.63 5.38-4 6.63v-1.05a6.553 6.553 0 0 0 3.09-5.58A6.59 6.59 0 0 0 7.5.91A6.59 6.59 0 0 0 .91 7.5c0 2.36 1.23 4.42 3.09 5.58v1.05A7.497 7.497 0 0 1 7.5 0C11.64 0 15 3.36 15 7.5z" fill="currentColor"/></symbol><symbol id="hd-icon-octicon-broadcast-16" viewBox="0 0 16 16"><path fill="currentColor" d="M8.75 8.582v5.668a.75.75 0 0 1-1.5 0V8.582a1.75 1.75 0 1 1 1.5 0m3.983-7.125a.75.75 0 0 1 1.06.026A7.98 7.98 0 0 1 16 7c0 2.139-.84 4.083-2.207 5.517a.75.75 0 1 1-1.086-1.034A6.47 6.47 0 0 0 14.5 7a6.47 6.47 0 0 0-1.793-4.483a.75.75 0 0 1 .026-1.06m-9.466 0c.3.286.312.76.026 1.06A6.47 6.47 0 0 0 1.5 7a6.47 6.47 0 0 0 1.793 4.483a.75.75 0 0 1-1.086 1.034A7.97 7.97 0 0 1 0 7c0-2.139.84-4.083 2.207-5.517a.75.75 0 0 1 1.06-.026m8.556 2.321A5 5 0 0 1 13 7a5 5 0 0 1-1.177 3.222a.75.75 0 1 1-1.146-.967A3.5 3.5 0 0 0 11.5 7c0-.86-.309-1.645-.823-2.255a.75.75 0 0 1 1.146-.967m-6.492.958A3.48 3.48 0 0 0 4.5 7a3.48 3.48 0 0 0 .823 2.255a.75.75 0 0 1-1.146.967A4.98 4.98 0 0 1 3 7a4.98 4.98 0 0 1 1.188-3.236a.75.75 0 1 1 1.143.972"/></symbol><symbol id="hd-icon-octicon-broadcast-24" viewBox="0 0 24 24"><path fill="currentColor" d="M20.485 2.515a.75.75 0 0 0-1.06 1.06A10.47 10.47 0 0 1 22.5 11c0 2.9-1.174 5.523-3.075 7.424a.75.75 0 0 0 1.06 1.061A11.97 11.97 0 0 0 24 11c0-3.314-1.344-6.315-3.515-8.485m-15.91 1.06a.75.75 0 0 0-1.06-1.06A11.97 11.97 0 0 0 0 11c0 3.313 1.344 6.314 3.515 8.485a.75.75 0 0 0 1.06-1.06A10.47 10.47 0 0 1 1.5 11c0-2.9 1.174-5.524 3.075-7.425M8.11 7.11a.75.75 0 0 0-1.06-1.06A6.98 6.98 0 0 0 5 11a6.98 6.98 0 0 0 2.05 4.95a.75.75 0 0 0 1.06-1.061a5.48 5.48 0 0 1-1.61-3.89a5.48 5.48 0 0 1 1.61-3.888Zm8.84-1.06a.75.75 0 1 0-1.06 1.06A5.48 5.48 0 0 1 17.5 11a5.48 5.48 0 0 1-1.61 3.889a.75.75 0 1 0 1.06 1.06A6.98 6.98 0 0 0 19 11a6.98 6.98 0 0 0-2.05-4.949ZM14 11a2 2 0 0 1-1.25 1.855v8.395a.75.75 0 0 1-1.5 0v-8.395A2 2 0 1 1 14 11"/></symbol><symbol id="hd-icon-octicon-browser" viewBox="0 0 14 16"><path fill-rule="evenodd" d="M5 3h1v1H5V3zM3 3h1v1H3V3zM1 3h1v1H1V3zm12 10H1V5h12v8zm0-9H7V3h6v1zm1-1c0-.55-.45-1-1-1H1c-.55 0-1 .45-1 1v10c0 .55.45 1 1 1h12c.55 0 1-.45 1-1V3z" fill="currentColor"/></symbol><symbol id="hd-icon-octicon-browser-16" viewBox="0 0 16 16"><path fill="currentColor" d="M0 2.75C0 1.784.784 1 1.75 1h12.5c.966 0 1.75.784 1.75 1.75v10.5A1.75 1.75 0 0 1 14.25 15H1.75A1.75 1.75 0 0 1 0 13.25ZM14.5 6h-13v7.25c0 .138.112.25.25.25h12.5a.25.25 0 0 0 .25-.25Zm-6-3.5v2h6V2.75a.25.25 0 0 0-.25-.25ZM5 2.5v2h2v-2Zm-3.25 0a.25.25 0 0 0-.25.25V4.5h2v-2Z"/></symbol><symbol id="hd-icon-octicon-browser-24" viewBox="0 0 24 24"><path fill="currentColor" d="M0 3.75C0 2.784.784 2 1.75 2h20.5c.966 0 1.75.784 1.75 1.75v16.5A1.75 1.75 0 0 1 22.25 22H1.75A1.75 1.75 0 0 1 0 20.25ZM22.5 7h-21v13.25c0 .138.112.25.25.25h20.5a.25.25 0 0 0 .25-.25Zm-10-3.5v2h10V3.75a.25.25 0 0 0-.25-.25ZM7 3.5v2h4v-2Zm-5.25 0a.25.25 0 0 0-.25.25V5.5h4v-2Z"/></symbol><symbol id="hd-icon-octicon-bug-16" viewBox="0 0 16 16"><path fill="currentColor" d="M4.72.22a.75.75 0 0 1 1.06 0l1 .999a3.5 3.5 0 0 1 2.441 0l.999-1a.748.748 0 0 1 1.265.332a.75.75 0 0 1-.205.729l-.775.776c.616.63.995 1.493.995 2.444v.327q0 .15-.025.292c.408.14.764.392 1.029.722l1.968-.787a.75.75 0 0 1 .556 1.392L13 7.258V9h2.25a.75.75 0 0 1 0 1.5H13v.5q-.002.615-.141 1.186l2.17.868a.75.75 0 0 1-.557 1.392l-2.184-.873A5 5 0 0 1 8 16a5 5 0 0 1-4.288-2.427l-2.183.873a.75.75 0 0 1-.558-1.392l2.17-.868A5 5 0 0 1 3 11v-.5H.75a.75.75 0 0 1 0-1.5H3V7.258L.971 6.446a.75.75 0 0 1 .558-1.392l1.967.787c.265-.33.62-.583 1.03-.722a2 2 0 0 1-.026-.292V4.5c0-.951.38-1.814.995-2.444L4.72 1.28a.75.75 0 0 1 0-1.06m.53 6.28a.75.75 0 0 0-.75.75V11a3.5 3.5 0 1 0 7 0V7.25a.75.75 0 0 0-.75-.75ZM6.173 5h3.654A.17.17 0 0 0 10 4.827V4.5a2 2 0 1 0-4 0v.327c0 .096.077.173.173.173"/></symbol><symbol id="hd-icon-octicon-bug-24" viewBox="0 0 24 24"><path fill="currentColor" d="M7.72.22a.75.75 0 0 1 1.06 0l1.204 1.203A5 5 0 0 1 12 1c.717 0 1.4.151 2.016.423L15.22.22a.75.75 0 0 1 1.042.018a.75.75 0 0 1 .018 1.042l-.971.972A5 5 0 0 1 17 6v1.104a2.76 2.76 0 0 1 1.917 1.974l1.998-.999a.75.75 0 0 1 .67 1.342L19 10.714V13.5l3.25.003a.75.75 0 0 1 0 1.5L19 15.001V16c0 .568-.068 1.134-.204 1.686l.04.018l2.75 1.375a.75.75 0 1 1-.671 1.342l-2.638-1.319A7 7 0 0 1 12 23a7 7 0 0 1-6.197-3.742l-2.758 1.181a.752.752 0 0 1-1.064-.776a.75.75 0 0 1 .474-.602l2.795-1.199A7 7 0 0 1 5 16v-.996H1.75a.75.75 0 0 1 0-1.5H5v-2.79L2.415 9.42a.75.75 0 0 1 .67-1.342l1.998.999A2.76 2.76 0 0 1 7 7.104V6a5 5 0 0 1 1.69-3.748l-.97-.972a.75.75 0 0 1 0-1.06M6.5 9.75V16a5.5 5.5 0 1 0 11 0V9.75c0-.69-.56-1.25-1.25-1.25h-8.5c-.69 0-1.25.56-1.25 1.25M8.5 7h7V6a3.5 3.5 0 1 0-7 0Z"/></symbol><symbol id="hd-icon-octicon-cache-16" viewBox="0 0 16 16"><path fill="currentColor" d="M2.5 5.724V8c0 .248.238.7 1.169 1.159c.874.43 2.144.745 3.62.822a.75.75 0 1 1-.078 1.498c-1.622-.085-3.102-.432-4.204-.975a6 6 0 0 1-.507-.28V12.5c0 .133.058.318.282.551c.227.237.591.483 1.101.707c1.015.447 2.47.742 4.117.742q.61 0 1.183-.052a.751.751 0 1 1 .134 1.494Q8.676 15.999 8 16c-1.805 0-3.475-.32-4.721-.869c-.623-.274-1.173-.619-1.579-1.041c-.408-.425-.7-.964-.7-1.59v-9c0-.626.292-1.165.7-1.591c.406-.42.956-.766 1.579-1.04C4.525.32 6.195 0 8 0s3.476.32 4.721.869c.623.274 1.173.619 1.579 1.041c.408.425.7.964.7 1.59s-.292 1.165-.7 1.591c-.406.42-.956.766-1.578 1.04C11.475 6.68 9.805 7 8 7s-3.475-.32-4.721-.869a6 6 0 0 1-.779-.407m0-2.224c0 .133.058.318.282.551c.227.237.591.483 1.101.707C4.898 5.205 6.353 5.5 8 5.5s3.101-.295 4.118-.742c.508-.224.873-.471 1.1-.708c.224-.232.282-.417.282-.55s-.058-.318-.282-.551c-.227-.237-.591-.483-1.101-.707C11.102 1.795 9.647 1.5 8 1.5s-3.101.295-4.118.742c-.508.224-.873.471-1.1.708c-.224.232-.282.417-.282.55"/><path fill="currentColor" d="M14.49 7.582a.375.375 0 0 0-.66-.313l-3.625 4.625a.375.375 0 0 0 .295.606h2.127l-.619 2.922a.375.375 0 0 0 .666.304l3.125-4.125A.375.375 0 0 0 15.5 11h-1.778z"/></symbol><symbol id="hd-icon-octicon-cache-24" viewBox="0 0 24 24"><path fill="currentColor" d="M5.505 9.117a7.7 7.7 0 0 1-1.497-.852V12c0 .524.473 1.23 1.8 1.883c1.267.625 3.085 1.071 5.18 1.182a.76.76 0 0 1-.08 1.517c-2.242-.118-4.274-.598-5.772-1.336a7.3 7.3 0 0 1-1.128-.68V18.3c0 .282.127.61.476.973c.352.366.899.732 1.633 1.055c1.466.645 3.545 1.063 5.881 1.063q.867 0 1.683-.074a.76.76 0 0 1 .135 1.513a21 21 0 0 1-1.818.08c-2.496 0-4.792-.443-6.493-1.192c-.849-.374-1.584-.838-2.117-1.393c-.536-.558-.9-1.244-.9-2.025V5.7c0-.782.364-1.467.9-2.025c.533-.555 1.268-1.02 2.117-1.393c1.7-.749 3.997-1.193 6.493-1.193s4.793.444 6.493 1.193c.85.373 1.585.838 2.117 1.393c.537.558.9 1.243.9 2.025s-.363 1.467-.9 2.025c-.532.554-1.267 1.02-2.117 1.393c-1.7.748-3.996 1.192-6.493 1.192c-2.496 0-4.792-.444-6.493-1.192Zm-1.021-4.39c-.35.362-.476.69-.476.972s.127.61.476.972c.352.367.899.732 1.633 1.055c1.466.646 3.545 1.064 5.881 1.064s4.415-.418 5.882-1.064c.734-.323 1.28-.688 1.633-1.055c.35-.363.476-.69.476-.972s-.127-.61-.476-.973c-.353-.367-.9-.732-1.633-1.055c-1.467-.645-3.545-1.063-5.882-1.063s-4.415.418-5.88 1.063c-.735.323-1.282.688-1.634 1.055Z"/><path fill="currentColor" d="M21.425 11.11a.5.5 0 0 0-.881-.418l-5.438 6.937a.5.5 0 0 0 .394.808h3.268l-.945 4.46a.5.5 0 0 0 .888.405l4.688-6.188a.5.5 0 0 0-.399-.802h-2.745z"/></symbol><symbol id="hd-icon-octicon-calendar" viewBox="0 0 14 16"><path fill-rule="evenodd" d="M13 2h-1v1.5c0 .28-.22.5-.5.5h-2c-.28 0-.5-.22-.5-.5V2H6v1.5c0 .28-.22.5-.5.5h-2c-.28 0-.5-.22-.5-.5V2H2c-.55 0-1 .45-1 1v11c0 .55.45 1 1 1h11c.55 0 1-.45 1-1V3c0-.55-.45-1-1-1zm0 12H2V5h11v9zM5 3H4V1h1v2zm6 0h-1V1h1v2zM6 7H5V6h1v1zm2 0H7V6h1v1zm2 0H9V6h1v1zm2 0h-1V6h1v1zM4 9H3V8h1v1zm2 0H5V8h1v1zm2 0H7V8h1v1zm2 0H9V8h1v1zm2 0h-1V8h1v1zm-8 2H3v-1h1v1zm2 0H5v-1h1v1zm2 0H7v-1h1v1zm2 0H9v-1h1v1zm2 0h-1v-1h1v1zm-8 2H3v-1h1v1zm2 0H5v-1h1v1zm2 0H7v-1h1v1zm2 0H9v-1h1v1z" fill="currentColor"/></symbol><symbol id="hd-icon-octicon-calendar-16" viewBox="0 0 16 16"><path fill="currentColor" d="M4.75 0a.75.75 0 0 1 .75.75V2h5V.75a.75.75 0 0 1 1.5 0V2h1.25c.966 0 1.75.784 1.75 1.75v10.5A1.75 1.75 0 0 1 13.25 16H2.75A1.75 1.75 0 0 1 1 14.25V3.75C1 2.784 1.784 2 2.75 2H4V.75A.75.75 0 0 1 4.75 0M2.5 7.5v6.75c0 .138.112.25.25.25h10.5a.25.25 0 0 0 .25-.25V7.5Zm10.75-4H2.75a.25.25 0 0 0-.25.25V6h11V3.75a.25.25 0 0 0-.25-.25"/></symbol><symbol id="hd-icon-octicon-calendar-24" viewBox="0 0 24 24"><path fill="currentColor" d="M6.75 0a.75.75 0 0 1 .75.75V3h9V.75a.75.75 0 0 1 1.5 0V3h2.75c.966 0 1.75.784 1.75 1.75v16a1.75 1.75 0 0 1-1.75 1.75H3.25a1.75 1.75 0 0 1-1.75-1.75v-16C1.5 3.784 2.284 3 3.25 3H6V.75A.75.75 0 0 1 6.75 0M21 9.5H3v11.25c0 .138.112.25.25.25h17.5a.25.25 0 0 0 .25-.25Zm-17.75-5a.25.25 0 0 0-.25.25V8h18V4.75a.25.25 0 0 0-.25-.25Z"/></symbol><symbol id="hd-icon-octicon-check" viewBox="0 0 12 16"><path fill-rule="evenodd" d="M12 5l-8 8l-4-4l1.5-1.5L4 10l6.5-6.5L12 5z" fill="currentColor"/></symbol><symbol id="hd-icon-octicon-check-16" viewBox="0 0 16 16"><path fill="currentColor" d="M13.78 4.22a.75.75 0 0 1 0 1.06l-7.25 7.25a.75.75 0 0 1-1.06 0L2.22 9.28a.75.75 0 0 1 .018-1.042a.75.75 0 0 1 1.042-.018L6 10.94l6.72-6.72a.75.75 0 0 1 1.06 0"/></symbol><symbol id="hd-icon-octicon-check-24" viewBox="0 0 24 24"><path fill="currentColor" d="M21.03 5.72a.75.75 0 0 1 0 1.06l-11.5 11.5a.747.747 0 0 1-1.072-.012l-5.5-5.75a.75.75 0 1 1 1.084-1.036l4.97 5.195L19.97 5.72a.75.75 0 0 1 1.06 0"/></symbol><symbol id="hd-icon-octicon-check-circle-16" viewBox="0 0 16 16"><path fill="currentColor" d="M0 8a8 8 0 1 1 16 0A8 8 0 0 1 0 8m1.5 0a6.5 6.5 0 1 0 13 0a6.5 6.5 0 0 0-13 0m10.28-1.72l-4.5 4.5a.75.75 0 0 1-1.06 0l-2-2a.75.75 0 0 1 .018-1.042a.75.75 0 0 1 1.042-.018l1.47 1.47l3.97-3.97a.75.75 0 0 1 1.042.018a.75.75 0 0 1 .018 1.042"/></symbol><symbol id="hd-icon-octicon-check-circle-24" viewBox="0 0 24 24"><path fill="currentColor" d="M17.28 9.28a.75.75 0 0 0-1.06-1.06l-5.97 5.97l-2.47-2.47a.75.75 0 0 0-1.06 1.06l3 3a.75.75 0 0 0 1.06 0z"/><path fill="currentColor" d="M12 1c6.075 0 11 4.925 11 11s-4.925 11-11 11S1 18.075 1 12S5.925 1 12 1M2.5 12a9.5 9.5 0 0 0 9.5 9.5a9.5 9.5 0 0 0 9.5-9.5A9.5 9.5 0 0 0 12 2.5A9.5 9.5 0 0 0 2.5 12"/></symbol><symbol id="hd-icon-octicon-check-circle-fill-12" viewBox="0 0 12 12"><path fill="currentColor" d="M6 0a6 6 0 1 1 0 12A6 6 0 0 1 6 0m-.705 8.737L9.63 4.403L8.392 3.166L5.295 6.263l-1.7-1.702L2.356 5.8z"/></symbol><symbol id="hd-icon-octicon-check-circle-fill-16" viewBox="0 0 16 16"><path fill="currentColor" d="M8 16A8 8 0 1 1 8 0a8 8 0 0 1 0 16m3.78-9.72a.75.75 0 0 0-.018-1.042a.75.75 0 0 0-1.042-.018L6.75 9.19L5.28 7.72a.75.75 0 0 0-1.042.018a.75.75 0 0 0-.018 1.042l2 2a.75.75 0 0 0 1.06 0Z"/></symbol><symbol id="hd-icon-octicon-check-circle-fill-24" viewBox="0 0 24 24"><path fill="currentColor" d="M1 12C1 5.925 5.925 1 12 1s11 4.925 11 11s-4.925 11-11 11S1 18.075 1 12m16.28-2.72a.75.75 0 0 0-.018-1.042a.75.75 0 0 0-1.042-.018l-5.97 5.97l-2.47-2.47a.75.75 0 0 0-1.042.018a.75.75 0 0 0-.018 1.042l3 3a.75.75 0 0 0 1.06 0Z"/></symbol><symbol id="hd-icon-octicon-checkbox-16" viewBox="0 0 16 16"><path fill="currentColor" d="M2.75 1h10.5c.966 0 1.75.784 1.75 1.75v10.5A1.75 1.75 0 0 1 13.25 15H2.75A1.75 1.75 0 0 1 1 13.25V2.75C1 1.784 1.784 1 2.75 1M2.5 2.75v10.5c0 .138.112.25.25.25h10.5a.25.25 0 0 0 .25-.25V2.75a.25.25 0 0 0-.25-.25H2.75a.25.25 0 0 0-.25.25m9.28 3.53l-4.5 4.5a.75.75 0 0 1-1.06 0l-2-2a.75.75 0 0 1 .018-1.042a.75.75 0 0 1 1.042-.018l1.47 1.47l3.97-3.97a.75.75 0 0 1 1.042.018a.75.75 0 0 1 .018 1.042"/></symbol><symbol id="hd-icon-octicon-checkbox-24" viewBox="0 0 24 24"><path fill="currentColor" d="M17.28 9.28a.75.75 0 0 0-1.06-1.06l-5.97 5.97l-2.47-2.47a.75.75 0 0 0-1.06 1.06l3 3a.75.75 0 0 0 1.06 0z"/><path fill="currentColor" d="M3.75 2h16.5c.966 0 1.75.784 1.75 1.75v16.5A1.75 1.75 0 0 1 20.25 22H3.75A1.75 1.75 0 0 1 2 20.25V3.75C2 2.784 2.784 2 3.75 2M3.5 3.75v16.5c0 .138.112.25.25.25h16.5a.25.25 0 0 0 .25-.25V3.75a.25.25 0 0 0-.25-.25H3.75a.25.25 0 0 0-.25.25"/></symbol><symbol id="hd-icon-octicon-checkbox-fill-16" viewBox="0 0 16 16"><path fill="currentColor" d="M2.75 1h10.5c.967 0 1.75.783 1.75 1.75v10.5A1.75 1.75 0 0 1 13.25 15H2.75A1.75 1.75 0 0 1 1 13.25V2.75C1 1.783 1.783 1 2.75 1m9.03 5.28a.749.749 0 1 0-1.06-1.06L6.75 9.189L5.28 7.72a.749.749 0 1 0-1.06 1.06l2 2a.75.75 0 0 0 1.06 0Z"/></symbol><symbol id="hd-icon-octicon-checkbox-fill-24" viewBox="0 0 24 24"><path fill="currentColor" d="M20.25 2c.966 0 1.75.783 1.75 1.75v16.5A1.75 1.75 0 0 1 20.25 22H3.75A1.75 1.75 0 0 1 2 20.25V3.75C2 2.783 2.783 2 3.75 2Zm-2.97 6.22a.75.75 0 0 0-1.06 0l-5.97 5.969l-2.47-2.469a.749.749 0 1 0-1.06 1.06l3 3a.75.75 0 0 0 1.06 0l6.5-6.5a.75.75 0 0 0 0-1.06"/></symbol><symbol id="hd-icon-octicon-checklist" viewBox="0 0 16 16"><path fill-rule="evenodd" d="M16 8.5l-6 6l-3-3L8.5 10l1.5 1.5L14.5 7L16 8.5zM5.7 12.2l.8.8H2c-.55 0-1-.45-1-1V3c0-.55.45-1 1-1h7c.55 0 1 .45 1 1v6.5l-.8-.8c-.39-.39-1.03-.39-1.42 0L5.7 10.8a.996.996 0 0 0 0 1.41v-.01zM4 4h5V3H4v1zm0 2h5V5H4v1zm0 2h3V7H4v1zM3 9H2v1h1V9zm0-2H2v1h1V7zm0-2H2v1h1V5zm0-2H2v1h1V3z" fill="currentColor"/></symbol><symbol id="hd-icon-octicon-checklist-16" viewBox="0 0 16 16"><path fill="currentColor" d="M2.5 1.75v11.5c0 .138.112.25.25.25h3.17a.75.75 0 0 1 0 1.5H2.75A1.75 1.75 0 0 1 1 13.25V1.75C1 .784 1.784 0 2.75 0h8.5C12.216 0 13 .784 13 1.75v7.736a.75.75 0 0 1-1.5 0V1.75a.25.25 0 0 0-.25-.25h-8.5a.25.25 0 0 0-.25.25m13.274 9.537l-4.557 4.45a.75.75 0 0 1-1.055-.008l-1.943-1.95a.75.75 0 0 1 1.062-1.058l1.419 1.425l4.026-3.932a.75.75 0 1 1 1.048 1.074M4.75 4h4.5a.75.75 0 0 1 0 1.5h-4.5a.75.75 0 0 1 0-1.5M4 7.75A.75.75 0 0 1 4.75 7h2a.75.75 0 0 1 0 1.5h-2A.75.75 0 0 1 4 7.75"/></symbol><symbol id="hd-icon-octicon-checklist-24" viewBox="0 0 24 24"><path fill="currentColor" d="M3.5 3.75a.25.25 0 0 1 .25-.25h13.5a.25.25 0 0 1 .25.25v10a.75.75 0 0 0 1.5 0v-10A1.75 1.75 0 0 0 17.25 2H3.75A1.75 1.75 0 0 0 2 3.75v16.5c0 .966.784 1.75 1.75 1.75h7a.75.75 0 0 0 0-1.5h-7a.25.25 0 0 1-.25-.25z"/><path fill="currentColor" d="M6.25 7a.75.75 0 0 0 0 1.5h8.5a.75.75 0 0 0 0-1.5zm-.75 4.75a.75.75 0 0 1 .75-.75h4.5a.75.75 0 0 1 0 1.5h-4.5a.75.75 0 0 1-.75-.75m16.28 4.53a.75.75 0 1 0-1.06-1.06l-4.97 4.97l-1.97-1.97a.75.75 0 1 0-1.06 1.06l2.5 2.5a.75.75 0 0 0 1.06 0z"/></symbol><symbol id="hd-icon-octicon-chevron-down" viewBox="0 0 10 16"><path fill-rule="evenodd" d="M5 11L0 6l1.5-1.5L5 8.25L8.5 4.5L10 6l-5 5z" fill="currentColor"/></symbol><symbol id="hd-icon-octicon-chevron-down-12" viewBox="0 0 12 12"><path fill="currentColor" d="M6 8.825c-.2 0-.4-.1-.5-.2l-3.3-3.3c-.3-.3-.3-.8 0-1.1s.8-.3 1.1 0l2.7 2.7l2.7-2.7c.3-.3.8-.3 1.1 0s.3.8 0 1.1l-3.2 3.2q-.3.3-.6.3"/></symbol><symbol id="hd-icon-octicon-chevron-down-16" viewBox="0 0 16 16"><path fill="currentColor" d="M12.78 5.22a.75.75 0 0 1 0 1.06l-4.25 4.25a.75.75 0 0 1-1.06 0L3.22 6.28a.749.749 0 1 1 1.06-1.06L8 8.939l3.72-3.719a.75.75 0 0 1 1.06 0"/></symbol><symbol id="hd-icon-octicon-chevron-down-24" viewBox="0 0 24 24"><path fill="currentColor" d="M5.22 8.22a.75.75 0 0 0 0 1.06l6.25 6.25a.75.75 0 0 0 1.06 0l6.25-6.25a.749.749 0 1 0-1.06-1.06L12 13.939L6.28 8.22a.75.75 0 0 0-1.06 0"/></symbol><symbol id="hd-icon-octicon-chevron-left" viewBox="0 0 8 16"><path fill-rule="evenodd" d="M5.5 3L7 4.5L3.25 8L7 11.5L5.5 13l-5-5l5-5z" fill="currentColor"/></symbol><symbol id="hd-icon-octicon-chevron-left-12" viewBox="0 0 12 12"><path fill="currentColor" d="M3.587 6.025c0 .2.1.4.2.5l3.3 3.3c.3.3.8.3 1.1 0s.3-.8 0-1.1l-2.7-2.7l2.7-2.7c.3-.3.3-.8 0-1.1s-.8-.3-1.1 0l-3.2 3.2q-.3.3-.3.6"/></symbol><symbol id="hd-icon-octicon-chevron-left-16" viewBox="0 0 16 16"><path fill="currentColor" d="M9.78 12.78a.75.75 0 0 1-1.06 0L4.47 8.53a.75.75 0 0 1 0-1.06l4.25-4.25a.75.75 0 0 1 1.042.018a.75.75 0 0 1 .018 1.042L6.06 8l3.72 3.72a.75.75 0 0 1 0 1.06"/></symbol><symbol id="hd-icon-octicon-chevron-left-24" viewBox="0 0 24 24"><path fill="currentColor" d="M15.28 5.22a.75.75 0 0 1 0 1.06L9.56 12l5.72 5.72a.749.749 0 0 1-.326 1.275a.75.75 0 0 1-.734-.215l-6.25-6.25a.75.75 0 0 1 0-1.06l6.25-6.25a.75.75 0 0 1 1.06 0"/></symbol><symbol id="hd-icon-octicon-chevron-right" viewBox="0 0 8 16"><path fill-rule="evenodd" d="M7.5 8l-5 5L1 11.5L4.75 8L1 4.5L2.5 3l5 5z" fill="currentColor"/></symbol><symbol id="hd-icon-octicon-chevron-right-12" viewBox="0 0 12 12"><path fill="currentColor" d="M4.7 10c-.2 0-.4-.1-.5-.2c-.3-.3-.3-.8 0-1.1L6.9 6L4.2 3.3c-.3-.3-.3-.8 0-1.1s.8-.3 1.1 0l3.3 3.2c.3.3.3.8 0 1.1L5.3 9.7q-.3.3-.6.3"/></symbol><symbol id="hd-icon-octicon-chevron-right-16" viewBox="0 0 16 16"><path fill="currentColor" d="M6.22 3.22a.75.75 0 0 1 1.06 0l4.25 4.25a.75.75 0 0 1 0 1.06l-4.25 4.25a.75.75 0 0 1-1.042-.018a.75.75 0 0 1-.018-1.042L9.94 8L6.22 4.28a.75.75 0 0 1 0-1.06"/></symbol><symbol id="hd-icon-octicon-chevron-right-24" viewBox="0 0 24 24"><path fill="currentColor" d="M8.72 18.78a.75.75 0 0 1 0-1.06L14.44 12L8.72 6.28a.75.75 0 0 1 .018-1.042a.75.75 0 0 1 1.042-.018l6.25 6.25a.75.75 0 0 1 0 1.06l-6.25 6.25a.75.75 0 0 1-1.06 0"/></symbol><symbol id="hd-icon-octicon-chevron-up" viewBox="0 0 10 16"><path fill-rule="evenodd" d="M10 10l-1.5 1.5L5 7.75L1.5 11.5L0 10l5-5l5 5z" fill="currentColor"/></symbol><symbol id="hd-icon-octicon-chevron-up-12" viewBox="0 0 12 12"><path fill="currentColor" d="M6 4c-.2 0-.4.1-.5.2L2.2 7.5c-.3.3-.3.8 0 1.1s.8.3 1.1 0L6 5.9l2.7 2.7c.3.3.8.3 1.1 0s.3-.8 0-1.1L6.6 4.3Q6.3 4 6 4"/></symbol><symbol id="hd-icon-octicon-chevron-up-16" viewBox="0 0 16 16"><path fill="currentColor" d="M3.22 10.53a.75.75 0 0 1 0-1.06l4.25-4.25a.75.75 0 0 1 1.06 0l4.25 4.25a.749.749 0 1 1-1.06 1.06L8 6.811L4.28 10.53a.75.75 0 0 1-1.06 0"/></symbol><symbol id="hd-icon-octicon-chevron-up-24" viewBox="0 0 24 24"><path fill="currentColor" d="M18.78 15.78a.75.75 0 0 1-1.06 0L12 10.061L6.28 15.78a.749.749 0 1 1-1.06-1.06l6.25-6.25a.75.75 0 0 1 1.06 0l6.25 6.25a.75.75 0 0 1 0 1.06"/></symbol><symbol id="hd-icon-octicon-circle-16" viewBox="0 0 16 16"><path fill="currentColor" d="M0 8a8 8 0 1 1 16 0A8 8 0 0 1 0 8m8-6.5a6.5 6.5 0 1 0 0 13a6.5 6.5 0 0 0 0-13"/></symbol><symbol id="hd-icon-octicon-circle-24" viewBox="0 0 24 24"><path fill="currentColor" d="M1 12C1 5.925 5.925 1 12 1s11 4.925 11 11s-4.925 11-11 11S1 18.075 1 12m11-9.5A9.5 9.5 0 0 0 2.5 12a9.5 9.5 0 0 0 9.5 9.5a9.5 9.5 0 0 0 9.5-9.5A9.5 9.5 0 0 0 12 2.5"/></symbol><symbol id="hd-icon-octicon-circle-slash" viewBox="0 0 14 16"><path fill-rule="evenodd" d="M7 1C3.14 1 0 4.14 0 8s3.14 7 7 7s7-3.14 7-7s-3.14-7-7-7zm0 1.3c1.3 0 2.5.44 3.47 1.17l-8 8A5.755 5.755 0 0 1 1.3 8c0-3.14 2.56-5.7 5.7-5.7zm0 11.41c-1.3 0-2.5-.44-3.47-1.17l8-8c.73.97 1.17 2.17 1.17 3.47c0 3.14-2.56 5.7-5.7 5.7z" fill="currentColor"/></symbol><symbol id="hd-icon-octicon-circle-slash-16" viewBox="0 0 16 16"><path fill="currentColor" d="M8 0a8 8 0 1 1 0 16A8 8 0 0 1 8 0M3.965 13.096a6.5 6.5 0 0 0 9.131-9.131ZM1.5 8a6.47 6.47 0 0 0 1.404 4.035l9.131-9.131A6.499 6.499 0 0 0 1.5 8"/></symbol><symbol id="hd-icon-octicon-circle-slash-24" viewBox="0 0 24 24"><path fill="currentColor" d="M12 1c6.075 0 11 4.925 11 11s-4.925 11-11 11S1 18.075 1 12S5.925 1 12 1M5.834 19.227A9.46 9.46 0 0 0 12 21.5a9.5 9.5 0 0 0 9.5-9.5a9.46 9.46 0 0 0-2.273-6.166ZM2.5 12a9.46 9.46 0 0 0 2.273 6.166L18.166 4.773A9.46 9.46 0 0 0 12 2.5A9.5 9.5 0 0 0 2.5 12"/></symbol><symbol id="hd-icon-octicon-circuit-board" viewBox="0 0 14 16"><path fill-rule="evenodd" d="M3 5c0-.55.45-1 1-1s1 .45 1 1s-.45 1-1 1s-1-.45-1-1zm8 0c0-.55-.45-1-1-1s-1 .45-1 1s.45 1 1 1s1-.45 1-1zm0 6c0-.55-.45-1-1-1s-1 .45-1 1s.45 1 1 1s1-.45 1-1zm2-10H5v2.17c.36.19.64.47.83.83h2.34c.42-.78 1.33-1.28 2.34-1.05c.75.19 1.36.8 1.53 1.55c.31 1.38-.72 2.59-2.05 2.59c-.8 0-1.48-.44-1.83-1.09H5.83c-.42.8-1.33 1.28-2.34 1.03c-.73-.17-1.34-.78-1.52-1.52C1.72 4.49 2.2 3.59 3 3.17V1H1c-.55 0-1 .45-1 1v12c0 .55.45 1 1 1l5-5h2.17c.42-.78 1.33-1.28 2.34-1.05c.75.19 1.36.8 1.53 1.55c.31 1.38-.72 2.59-2.05 2.59c-.8 0-1.48-.44-1.83-1.09H6.99L4 15h9c.55 0 1-.45 1-1V2c0-.55-.45-1-1-1z" fill="currentColor"/></symbol><symbol id="hd-icon-octicon-clippy" viewBox="0 0 14 16"><path fill-rule="evenodd" d="M2 13h4v1H2v-1zm5-6H2v1h5V7zm2 3V8l-3 3l3 3v-2h5v-2H9zM4.5 9H2v1h2.5V9zM2 12h2.5v-1H2v1zm9 1h1v2c-.02.28-.11.52-.3.7c-.19.18-.42.28-.7.3H1c-.55 0-1-.45-1-1V4c0-.55.45-1 1-1h3c0-1.11.89-2 2-2c1.11 0 2 .89 2 2h3c.55 0 1 .45 1 1v5h-1V6H1v9h10v-2zM2 5h8c0-.55-.45-1-1-1H8c-.55 0-1-.45-1-1s-.45-1-1-1s-1 .45-1 1s-.45 1-1 1H3c-.55 0-1 .45-1 1z" fill="currentColor"/></symbol><symbol id="hd-icon-octicon-clock" viewBox="0 0 14 16"><path fill-rule="evenodd" d="M8 8h3v2H7c-.55 0-1-.45-1-1V4h2v4zM7 2.3c3.14 0 5.7 2.56 5.7 5.7s-2.56 5.7-5.7 5.7A5.71 5.71 0 0 1 1.3 8c0-3.14 2.56-5.7 5.7-5.7zM7 1C3.14 1 0 4.14 0 8s3.14 7 7 7s7-3.14 7-7s-3.14-7-7-7z" fill="currentColor"/></symbol><symbol id="hd-icon-octicon-clock-16" viewBox="0 0 16 16"><path fill="currentColor" d="M8 0a8 8 0 1 1 0 16A8 8 0 0 1 8 0M1.5 8a6.5 6.5 0 1 0 13 0a6.5 6.5 0 0 0-13 0m7-3.25v2.992l2.028.812a.75.75 0 0 1-.557 1.392l-2.5-1A.75.75 0 0 1 7 8.25v-3.5a.75.75 0 0 1 1.5 0"/></symbol><symbol id="hd-icon-octicon-clock-24" viewBox="0 0 24 24"><path fill="currentColor" d="M12.5 7.25a.75.75 0 0 0-1.5 0v5.5c0 .27.144.518.378.651l3.5 2a.75.75 0 0 0 .744-1.302L12.5 12.315z"/><path fill="currentColor" d="M12 1c6.075 0 11 4.925 11 11s-4.925 11-11 11S1 18.075 1 12S5.925 1 12 1M2.5 12a9.5 9.5 0 0 0 9.5 9.5a9.5 9.5 0 0 0 9.5-9.5A9.5 9.5 0 0 0 12 2.5A9.5 9.5 0 0 0 2.5 12"/></symbol><symbol id="hd-icon-octicon-clock-fill-16" viewBox="0 0 16 16"><path fill="currentColor" d="M0 8a8 8 0 1 1 16 0A8 8 0 0 1 0 8m8.575-3.25a.825.825 0 1 0-1.65 0v3.5c0 .337.205.64.519.766l2.5 1a.825.825 0 0 0 .612-1.532l-1.981-.793Z"/></symbol><symbol id="hd-icon-octicon-clock-fill-24" viewBox="0 0 24 24"><path fill="currentColor" d="M1 12C1 5.925 5.925 1 12 1s11 4.925 11 11s-4.925 11-11 11S1 18.075 1 12m11.575-4.75a.825.825 0 1 0-1.65 0v5.5c0 .296.159.57.416.716l3.5 2a.825.825 0 0 0 .818-1.432l-3.084-1.763Z"/></symbol><symbol id="hd-icon-octicon-cloud-16" viewBox="0 0 16 16"><path fill="currentColor" d="M2 7.25A5.225 5.225 0 0 1 7.25 2a5.22 5.22 0 0 1 4.767 3.029A4.47 4.47 0 0 1 16 9.5c0 2.505-1.995 4.5-4.5 4.5h-8A3.474 3.474 0 0 1 0 10.5c0-1.41.809-2.614 2.001-3.17Zm1.54.482a.75.75 0 0 1-.556.832c-.86.22-1.484.987-1.484 1.936c0 1.124.876 2 2 2h8c1.676 0 3-1.324 3-3s-1.324-3-3-3a.75.75 0 0 1-.709-.504A3.72 3.72 0 0 0 7.25 3.5C5.16 3.5 3.5 5.16 3.5 7.25q.003.22.035.436l.004.036l.001.008Z"/></symbol><symbol id="hd-icon-octicon-cloud-24" viewBox="0 0 24 24"><path fill="currentColor" d="M3.103 10.107c0-4.244 3.445-7.607 7.733-7.607c3.19 0 5.912 1.858 7.099 4.563l.01.022l.001.006C21.348 7.345 24 10.095 24 13.536C24 17.148 21.076 20 17.431 20H5.017C2.23 20 0 17.83 0 15.06a4.9 4.9 0 0 1 3.112-4.581a8 8 0 0 1-.009-.372M10.836 4c-3.485 0-6.233 2.717-6.233 6.107c0 .284.022.602.052.756a.75.75 0 0 1-.552.869c-1.52.385-2.603 1.712-2.603 3.328c0 1.917 1.532 3.44 3.517 3.44h12.414c2.843 0 5.069-2.206 5.069-4.964s-2.226-4.965-5.069-4.965a.75.75 0 0 1-.696-.47l-.179-.446C15.606 5.5 13.424 4 10.836 4"/></symbol><symbol id="hd-icon-octicon-cloud-download" viewBox="0 0 16 16"><path fill-rule="evenodd" d="M9 12h2l-3 3l-3-3h2V7h2v5zm3-8c0-.44-.91-3-4.5-3C5.08 1 3 2.92 3 5C1.02 5 0 6.52 0 8c0 1.53 1 3 3 3h3V9.7H3C1.38 9.7 1.3 8.28 1.3 8c0-.17.05-1.7 1.7-1.7h1.3V5c0-1.39 1.56-2.7 3.2-2.7c2.55 0 3.13 1.55 3.2 1.8v1.2H12c.81 0 2.7.22 2.7 2.2c0 2.09-2.25 2.2-2.7 2.2h-2V11h2c2.08 0 4-1.16 4-3.5C16 5.06 14.08 4 12 4z" fill="currentColor"/></symbol><symbol id="hd-icon-octicon-cloud-offline-16" viewBox="0 0 16 16"><path fill="currentColor" d="M7.25 2c-.69 0-1.351.13-1.957.371a.75.75 0 1 0 .554 1.394c.43-.17.903-.265 1.403-.265a3.72 3.72 0 0 1 3.541 2.496a.75.75 0 0 0 .709.504c1.676 0 3 1.324 3 3a3 3 0 0 1-.681 1.92a.75.75 0 0 0 1.156.955A4.5 4.5 0 0 0 16 9.5a4.47 4.47 0 0 0-3.983-4.471A5.22 5.22 0 0 0 7.25 2M.72 1.72a.75.75 0 0 1 1.06 0l2.311 2.31q.045.038.08.08l8.531 8.532l.035.034l2.043 2.044a.749.749 0 0 1-.326 1.275a.75.75 0 0 1-.734-.215l-1.8-1.799a5 5 0 0 1-.42.019h-8A3.474 3.474 0 0 1 0 10.5c0-1.41.809-2.614 2.001-3.17a5.2 5.2 0 0 1 .646-2.622L.72 2.78a.75.75 0 0 1 0-1.06M3.5 7.25q.006.242.041.481a.75.75 0 0 1-.557.833c-.86.22-1.484.986-1.484 1.936c0 1.124.876 2 2 2h6.94L3.771 5.832A3.8 3.8 0 0 0 3.5 7.25"/></symbol><symbol id="hd-icon-octicon-cloud-offline-24" viewBox="0 0 24 24"><path fill="currentColor" d="m2.78 2.22l19.5 19.5a.749.749 0 0 1-.326 1.275a.75.75 0 0 1-.734-.215l-2.845-2.845a7 7 0 0 1-.944.065H5.017C2.229 20 0 17.831 0 15.059a4.9 4.9 0 0 1 3.111-4.58A7.52 7.52 0 0 1 4.36 5.922L1.72 3.28a.75.75 0 0 1 .018-1.042a.75.75 0 0 1 1.042-.018M16.94 18.5L5.448 7.01a6.03 6.03 0 0 0-.794 3.853a.75.75 0 0 1-.552.869c-1.52.385-2.603 1.712-2.603 3.328c0 1.917 1.532 3.44 3.517 3.44Zm-6.104-16a7.9 7.9 0 0 0-3.638.88a.75.75 0 1 0 .692 1.331A6.4 6.4 0 0 1 10.836 4c2.588 0 4.77 1.5 5.72 3.655l.179.445a.75.75 0 0 0 .696.471c2.843 0 5.069 2.206 5.069 4.965a4.9 4.9 0 0 1-1.684 3.716a.75.75 0 0 0 .986 1.13A6.4 6.4 0 0 0 24 13.536c0-3.44-2.652-6.191-6.054-6.445l-.002-.006l-.01-.022C16.749 4.358 14.026 2.5 10.837 2.5Z"/></symbol><symbol id="hd-icon-octicon-cloud-upload" viewBox="0 0 16 16"><path fill-rule="evenodd" d="M7 9H5l3-3l3 3H9v5H7V9zm5-4c0-.44-.91-3-4.5-3C5.08 2 3 3.92 3 6C1.02 6 0 7.52 0 9c0 1.53 1 3 3 3h3v-1.3H3c-1.62 0-1.7-1.42-1.7-1.7c0-.17.05-1.7 1.7-1.7h1.3V6c0-1.39 1.56-2.7 3.2-2.7c2.55 0 3.13 1.55 3.2 1.8v1.2H12c.81 0 2.7.22 2.7 2.2c0 2.09-2.25 2.2-2.7 2.2h-2V12h2c2.08 0 4-1.16 4-3.5C16 6.06 14.08 5 12 5z" fill="currentColor"/></symbol><symbol id="hd-icon-octicon-code" viewBox="0 0 14 16"><path fill-rule="evenodd" d="M9.5 3L8 4.5L11.5 8L8 11.5L9.5 13L14 8L9.5 3zm-5 0L0 8l4.5 5L6 11.5L2.5 8L6 4.5L4.5 3z" fill="currentColor"/></symbol><symbol id="hd-icon-octicon-code-16" viewBox="0 0 16 16"><path fill="currentColor" d="m11.28 3.22l4.25 4.25a.75.75 0 0 1 0 1.06l-4.25 4.25a.749.749 0 0 1-1.275-.326a.75.75 0 0 1 .215-.734L13.94 8l-3.72-3.72a.749.749 0 0 1 .326-1.275a.75.75 0 0 1 .734.215m-6.56 0a.75.75 0 0 1 1.042.018a.75.75 0 0 1 .018 1.042L2.06 8l3.72 3.72a.749.749 0 0 1-.326 1.275a.75.75 0 0 1-.734-.215L.47 8.53a.75.75 0 0 1 0-1.06Z"/></symbol><symbol id="hd-icon-octicon-code-24" viewBox="0 0 24 24"><path fill="currentColor" d="M15.22 4.97a.75.75 0 0 1 1.06 0l6.5 6.5a.75.75 0 0 1 0 1.06l-6.5 6.5a.749.749 0 0 1-1.275-.326a.75.75 0 0 1 .215-.734L21.19 12l-5.97-5.97a.75.75 0 0 1 0-1.06m-6.44 0a.75.75 0 0 1 0 1.06L2.81 12l5.97 5.97a.749.749 0 0 1-.326 1.275a.75.75 0 0 1-.734-.215l-6.5-6.5a.75.75 0 0 1 0-1.06l6.5-6.5a.75.75 0 0 1 1.06 0"/></symbol><symbol id="hd-icon-octicon-code-of-conduct-16" viewBox="0 0 16 16"><path fill="currentColor" d="M8.048 2.241c.964-.709 2.079-1.238 3.325-1.241a4.62 4.62 0 0 1 3.282 1.355c.41.408.757.86.996 1.428c.238.568.348 1.206.347 1.968c0 2.193-1.505 4.254-3.081 5.862c-1.496 1.526-3.213 2.796-4.249 3.563l-.22.163a.75.75 0 0 1-.895 0l-.221-.163c-1.036-.767-2.753-2.037-4.249-3.563C1.51 10.008.007 7.952.002 5.762a4.6 4.6 0 0 1 1.353-3.407C3.123.585 6.223.537 8.048 2.24Zm-1.153.983c-1.25-1.033-3.321-.967-4.48.191a3.12 3.12 0 0 0-.913 2.335c0 1.556 1.109 3.24 2.652 4.813C5.463 11.898 6.96 13.032 8 13.805c.353-.262.758-.565 1.191-.905l-1.326-1.223a.75.75 0 0 1 1.018-1.102l1.48 1.366c.328-.281.659-.577.984-.887L9.99 9.802a.75.75 0 1 1 1.019-1.103l1.384 1.28q.443-.494.81-.995L12.92 8.7l-1.167-1.168c-.674-.671-1.78-.664-2.474.03q-.404.405-.802.797c-.893.882-2.319.843-3.185-.032q-.518-.524-1.043-1.047a.75.75 0 0 1-.04-1.016q.244-.288.52-.623c.62-.748 1.356-1.637 2.166-2.417m7.112 4.442c.313-.65.491-1.293.491-1.916v-.001c0-.614-.088-1.045-.23-1.385c-.143-.339-.357-.633-.673-.949a3.1 3.1 0 0 0-2.218-.915c-1.092.003-2.165.627-3.226 1.602c-.823.755-1.554 1.637-2.228 2.45l-.127.154l.562.566a.755.755 0 0 0 1.066.02l.794-.79c1.258-1.258 3.312-1.31 4.594-.032c.396.394.792.791 1.173 1.173Z"/></symbol><symbol id="hd-icon-octicon-code-of-conduct-24" viewBox="0 0 24 24"><path fill="currentColor" d="M2.828 4.328C5.26 1.896 9.5 1.881 11.935 4.317q.036.036.067.076c1.391-1.078 2.993-1.886 4.777-1.89a6.22 6.22 0 0 1 4.424 1.825c.559.56 1.023 1.165 1.34 1.922s.47 1.617.468 2.663c0 2.972-2.047 5.808-4.269 8.074c-2.098 2.14-4.507 3.924-5.974 5.009l-.311.23a.75.75 0 0 1-.897 0l-.312-.23c-1.466-1.085-3.875-2.869-5.973-5.009c-2.22-2.263-4.264-5.095-4.27-8.063a6.22 6.22 0 0 1 1.823-4.596m8.033 1.042c-1.846-1.834-5.124-1.823-6.969.022a4.7 4.7 0 0 0-1.382 3.52c0 2.332 1.65 4.79 3.839 7.022c1.947 1.986 4.184 3.66 5.66 4.752a78 78 0 0 0 2.159-1.645l-2.14-1.974a.752.752 0 0 1 1.02-1.106l2.295 2.118c.616-.52 1.242-1.08 1.85-1.672l-2.16-1.992a.753.753 0 0 1 1.021-1.106l2.188 2.02a19 19 0 0 0 1.528-1.877l-.585-.586l-1.651-1.652c-1.078-1.074-2.837-1.055-3.935.043c-.379.38-.76.758-1.132 1.126c-1.14 1.124-2.96 1.077-4.07-.043q-.733-.742-1.475-1.482a.75.75 0 0 1-.04-1.019q.351-.416.745-.893c.928-1.12 2.023-2.442 3.234-3.576m9.725 6.77c.579-1.08.92-2.167.92-3.228c.002-.899-.128-1.552-.35-2.08c-.22-.526-.551-.974-1.017-1.44a4.7 4.7 0 0 0-3.356-1.384c-1.66.004-3.25.951-4.77 2.346c-1.18 1.084-2.233 2.353-3.188 3.506l-.351.423q.497.498.993.998a1.375 1.375 0 0 0 1.943.03c.37-.365.748-.74 1.125-1.118c1.662-1.663 4.373-1.726 6.06-.045c.56.558 1.12 1.12 1.658 1.658Z"/></symbol><symbol id="hd-icon-octicon-code-review-16" viewBox="0 0 16 16"><path fill="currentColor" d="M1.75 1h12.5c.966 0 1.75.784 1.75 1.75v8.5A1.75 1.75 0 0 1 14.25 13H8.061l-2.574 2.573A1.458 1.458 0 0 1 3 14.543V13H1.75A1.75 1.75 0 0 1 0 11.25v-8.5C0 1.784.784 1 1.75 1M1.5 2.75v8.5c0 .138.112.25.25.25h2a.75.75 0 0 1 .75.75v2.19l2.72-2.72a.75.75 0 0 1 .53-.22h6.5a.25.25 0 0 0 .25-.25v-8.5a.25.25 0 0 0-.25-.25H1.75a.25.25 0 0 0-.25.25m5.28 1.72a.75.75 0 0 1 0 1.06L5.31 7l1.47 1.47a.75.75 0 0 1-.018 1.042a.75.75 0 0 1-1.042.018l-2-2a.75.75 0 0 1 0-1.06l2-2a.75.75 0 0 1 1.06 0m2.44 0a.75.75 0 0 1 1.06 0l2 2a.75.75 0 0 1 0 1.06l-2 2a.75.75 0 0 1-1.042-.018a.75.75 0 0 1-.018-1.042L10.69 7L9.22 5.53a.75.75 0 0 1 0-1.06"/></symbol><symbol id="hd-icon-octicon-code-review-24" viewBox="0 0 24 24"><path fill="currentColor" d="M10.3 6.74a.75.75 0 0 1-.04 1.06l-2.908 2.7l2.908 2.7a.75.75 0 1 1-1.02 1.1l-3.5-3.25a.75.75 0 0 1 0-1.1l3.5-3.25a.75.75 0 0 1 1.06.04m3.44 1.06a.75.75 0 1 1 1.02-1.1l3.5 3.25a.75.75 0 0 1 0 1.1l-3.5 3.25a.75.75 0 1 1-1.02-1.1l2.908-2.7z"/><path fill="currentColor" d="M1.5 4.25c0-.966.784-1.75 1.75-1.75h17.5c.966 0 1.75.784 1.75 1.75v12.5a1.75 1.75 0 0 1-1.75 1.75h-9.69l-3.573 3.573A1.458 1.458 0 0 1 5 21.043V18.5H3.25a1.75 1.75 0 0 1-1.75-1.75ZM3.25 4a.25.25 0 0 0-.25.25v12.5c0 .138.112.25.25.25h2.5a.75.75 0 0 1 .75.75v3.19l3.72-3.72a.75.75 0 0 1 .53-.22h10a.25.25 0 0 0 .25-.25V4.25a.25.25 0 0 0-.25-.25Z"/></symbol><symbol id="hd-icon-octicon-code-square-16" viewBox="0 0 16 16"><path fill="currentColor" d="M0 1.75C0 .784.784 0 1.75 0h12.5C15.216 0 16 .784 16 1.75v12.5A1.75 1.75 0 0 1 14.25 16H1.75A1.75 1.75 0 0 1 0 14.25Zm1.75-.25a.25.25 0 0 0-.25.25v12.5c0 .138.112.25.25.25h12.5a.25.25 0 0 0 .25-.25V1.75a.25.25 0 0 0-.25-.25Zm7.47 3.97a.75.75 0 0 1 1.06 0l2 2a.75.75 0 0 1 0 1.06l-2 2a.749.749 0 0 1-1.275-.326a.75.75 0 0 1 .215-.734L10.69 8L9.22 6.53a.75.75 0 0 1 0-1.06M6.78 6.53L5.31 8l1.47 1.47a.749.749 0 0 1-.326 1.275a.75.75 0 0 1-.734-.215l-2-2a.75.75 0 0 1 0-1.06l2-2a.75.75 0 0 1 1.042.018a.75.75 0 0 1 .018 1.042"/></symbol><symbol id="hd-icon-octicon-code-square-24" viewBox="0 0 24 24"><path fill="currentColor" d="M10.3 8.24a.75.75 0 0 1-.04 1.06L7.352 12l2.908 2.7a.75.75 0 1 1-1.02 1.1l-3.5-3.25a.75.75 0 0 1 0-1.1l3.5-3.25a.75.75 0 0 1 1.06.04m3.44 1.06a.75.75 0 1 1 1.02-1.1l3.5 3.25a.75.75 0 0 1 0 1.1l-3.5 3.25a.75.75 0 1 1-1.02-1.1l2.908-2.7z"/><path fill="currentColor" d="M2 3.75C2 2.784 2.784 2 3.75 2h16.5c.966 0 1.75.784 1.75 1.75v16.5A1.75 1.75 0 0 1 20.25 22H3.75A1.75 1.75 0 0 1 2 20.25Zm1.75-.25a.25.25 0 0 0-.25.25v16.5c0 .138.112.25.25.25h16.5a.25.25 0 0 0 .25-.25V3.75a.25.25 0 0 0-.25-.25Z"/></symbol><symbol id="hd-icon-octicon-codescan-16" viewBox="0 0 16 16"><path fill="currentColor" d="M8.47 4.97a.75.75 0 0 0 0 1.06L9.94 7.5L8.47 8.97a.75.75 0 1 0 1.06 1.06l2-2a.75.75 0 0 0 0-1.06l-2-2a.75.75 0 0 0-1.06 0M6.53 6.03a.75.75 0 0 0-1.06-1.06l-2 2a.75.75 0 0 0 0 1.06l2 2a.75.75 0 1 0 1.06-1.06L5.06 7.5z"/><path fill="currentColor" d="M12.246 13.307a7.501 7.501 0 1 1 1.06-1.06l2.474 2.473a.749.749 0 0 1-.326 1.275a.75.75 0 0 1-.734-.215ZM1.5 7.5a6 6 0 0 0 3.608 5.504a6 6 0 0 0 6.486-1.117a.75.75 0 0 1 .292-.293A6 6 0 1 0 1.5 7.5"/></symbol><symbol id="hd-icon-octicon-codescan-24" viewBox="0 0 24 24"><path fill="currentColor" d="M11.97 6.97a.75.75 0 0 0 0 1.06l2.47 2.47l-2.47 2.47a.75.75 0 1 0 1.06 1.06l3-3a.75.75 0 0 0 0-1.06l-3-3a.75.75 0 0 0-1.06 0M9.03 8.03a.75.75 0 0 0-1.06-1.06l-3 3a.75.75 0 0 0 0 1.06l3 3a.75.75 0 0 0 1.06-1.06L6.56 10.5z"/><path fill="currentColor" d="M10.5 0C16.299 0 21 4.701 21 10.5a10.46 10.46 0 0 1-2.564 6.875l4.344 4.345a.749.749 0 0 1-.326 1.275a.75.75 0 0 1-.734-.215l-4.345-4.344A10.46 10.46 0 0 1 10.5 21C4.701 21 0 16.299 0 10.5S4.701 0 10.5 0m-9 10.5a9 9 0 0 0 9 9a9 9 0 0 0 9-9a9 9 0 0 0-9-9a9 9 0 0 0-9 9"/></symbol><symbol id="hd-icon-octicon-codescan-checkmark-16" viewBox="0 0 16 16"><path fill="currentColor" d="M10.28 6.28a.75.75 0 1 0-1.06-1.06L6.25 8.19l-.97-.97a.75.75 0 0 0-1.06 1.06l1.5 1.5a.75.75 0 0 0 1.06 0z"/><path fill="currentColor" d="M7.5 15a7.5 7.5 0 1 1 5.807-2.754l2.473 2.474a.749.749 0 0 1-.326 1.275a.75.75 0 0 1-.734-.215l-2.474-2.473A7.47 7.47 0 0 1 7.5 15m0-13.5a6 6 0 1 0 4.094 10.386a.75.75 0 0 1 .293-.292a6 6 0 0 0 1.117-6.486A6 6 0 0 0 7.5 1.5"/></symbol><symbol id="hd-icon-octicon-codescan-checkmark-24" viewBox="0 0 24 24"><path fill="currentColor" d="M15.03 8.28a.75.75 0 0 0-1.06-1.06l-5.22 5.22l-2.22-2.22a.75.75 0 1 0-1.06 1.06l2.75 2.75a.75.75 0 0 0 1.06 0z"/><path fill="currentColor" d="M0 10.5C0 4.701 4.701 0 10.5 0S21 4.701 21 10.5c0 2.63-.967 5.033-2.564 6.875l4.344 4.345a.749.749 0 0 1-.326 1.275a.75.75 0 0 1-.734-.215l-4.345-4.344A10.46 10.46 0 0 1 10.5 21C4.701 21 0 16.299 0 10.5m10.5-9a9 9 0 0 0-9 9a9 9 0 0 0 9 9a9 9 0 0 0 9-9a9 9 0 0 0-9-9"/></symbol><symbol id="hd-icon-octicon-codespaces-16" viewBox="0 0 16 16"><path fill="currentColor" d="M0 11.25c0-.966.784-1.75 1.75-1.75h12.5c.966 0 1.75.784 1.75 1.75v3A1.75 1.75 0 0 1 14.25 16H1.75A1.75 1.75 0 0 1 0 14.25Zm2-9.5C2 .784 2.784 0 3.75 0h8.5C13.216 0 14 .784 14 1.75v5a1.75 1.75 0 0 1-1.75 1.75h-8.5A1.75 1.75 0 0 1 2 6.75Zm1.75-.25a.25.25 0 0 0-.25.25v5c0 .138.112.25.25.25h8.5a.25.25 0 0 0 .25-.25v-5a.25.25 0 0 0-.25-.25Zm-2 9.5a.25.25 0 0 0-.25.25v3c0 .138.112.25.25.25h12.5a.25.25 0 0 0 .25-.25v-3a.25.25 0 0 0-.25-.25Z"/><path fill="currentColor" d="M7 12.75a.75.75 0 0 1 .75-.75h4.5a.75.75 0 0 1 0 1.5h-4.5a.75.75 0 0 1-.75-.75m-4 0a.75.75 0 0 1 .75-.75h.5a.75.75 0 0 1 0 1.5h-.5a.75.75 0 0 1-.75-.75"/></symbol><symbol id="hd-icon-octicon-codespaces-24" viewBox="0 0 24 24"><path fill="currentColor" d="M3.5 3.75C3.5 2.784 4.284 2 5.25 2h13.5c.966 0 1.75.784 1.75 1.75v7.5A1.75 1.75 0 0 1 18.75 13H5.25a1.75 1.75 0 0 1-1.75-1.75Zm-2 12c0-.966.784-1.75 1.75-1.75h17.5c.966 0 1.75.784 1.75 1.75v4a1.75 1.75 0 0 1-1.75 1.75H3.25a1.75 1.75 0 0 1-1.75-1.75ZM5.25 3.5a.25.25 0 0 0-.25.25v7.5c0 .138.112.25.25.25h13.5a.25.25 0 0 0 .25-.25v-7.5a.25.25 0 0 0-.25-.25Zm-2 12a.25.25 0 0 0-.25.25v4c0 .138.112.25.25.25h17.5a.25.25 0 0 0 .25-.25v-4a.25.25 0 0 0-.25-.25Z"/><path fill="currentColor" d="M10 17.75a.75.75 0 0 1 .75-.75h6.5a.75.75 0 0 1 0 1.5h-6.5a.75.75 0 0 1-.75-.75m-4 0a.75.75 0 0 1 .75-.75h.5a.75.75 0 0 1 0 1.5h-.5a.75.75 0 0 1-.75-.75"/></symbol><symbol id="hd-icon-octicon-columns-16" viewBox="0 0 16 16"><path fill="currentColor" d="M2.75 0h2.5C6.216 0 7 .784 7 1.75v12.5A1.75 1.75 0 0 1 5.25 16h-2.5A1.75 1.75 0 0 1 1 14.25V1.75C1 .784 1.784 0 2.75 0m8 0h2.5C14.216 0 15 .784 15 1.75v12.5A1.75 1.75 0 0 1 13.25 16h-2.5A1.75 1.75 0 0 1 9 14.25V1.75C9 .784 9.784 0 10.75 0M2.5 1.75v12.5c0 .138.112.25.25.25h2.5a.25.25 0 0 0 .25-.25V1.75a.25.25 0 0 0-.25-.25h-2.5a.25.25 0 0 0-.25.25m8 0v12.5c0 .138.112.25.25.25h2.5a.25.25 0 0 0 .25-.25V1.75a.25.25 0 0 0-.25-.25h-2.5a.25.25 0 0 0-.25.25"/></symbol><symbol id="hd-icon-octicon-columns-24" viewBox="0 0 24 24"><path fill="currentColor" d="M3.75 2h5.5c.966 0 1.75.784 1.75 1.75v16.5A1.75 1.75 0 0 1 9.25 22h-5.5A1.75 1.75 0 0 1 2 20.25V3.75C2 2.784 2.784 2 3.75 2m11 0h5.5c.966 0 1.75.784 1.75 1.75v16.5A1.75 1.75 0 0 1 20.25 22h-5.5A1.75 1.75 0 0 1 13 20.25V3.75c0-.966.784-1.75 1.75-1.75M3.5 3.75v16.5c0 .138.112.25.25.25h5.5a.25.25 0 0 0 .25-.25V3.75a.25.25 0 0 0-.25-.25h-5.5a.25.25 0 0 0-.25.25m11 0v16.5c0 .138.112.25.25.25h5.5a.25.25 0 0 0 .25-.25V3.75a.25.25 0 0 0-.25-.25h-5.5a.25.25 0 0 0-.25.25"/></symbol><symbol id="hd-icon-octicon-command-palette-16" viewBox="0 0 16 16"><path fill="currentColor" d="m6.354 8.04l-4.773 4.773a.75.75 0 1 0 1.061 1.06L7.945 8.57a.75.75 0 0 0 0-1.06L2.642 2.206a.75.75 0 0 0-1.06 1.061L6.353 8.04ZM8.75 11.5a.75.75 0 0 0 0 1.5h5.5a.75.75 0 0 0 0-1.5z"/></symbol><symbol id="hd-icon-octicon-command-palette-24" viewBox="0 0 24 24"><path fill="currentColor" d="M3.045 18.894L9.94 12L3.045 5.106a.75.75 0 0 1 1.06-1.061l7.425 7.425a.75.75 0 0 1 0 1.06l-7.424 7.425a.75.75 0 0 1-1.061-1.06Zm8.205.606a.75.75 0 0 0 0 1.5h9.5a.75.75 0 0 0 0-1.5z"/></symbol><symbol id="hd-icon-octicon-comment" viewBox="0 0 16 16"><path fill-rule="evenodd" d="M14 1H2c-.55 0-1 .45-1 1v8c0 .55.45 1 1 1h2v3.5L7.5 11H14c.55 0 1-.45 1-1V2c0-.55-.45-1-1-1zm0 9H7l-2 2v-2H2V2h12v8z" fill="currentColor"/></symbol><symbol id="hd-icon-octicon-comment-16" viewBox="0 0 16 16"><path fill="currentColor" d="M1 2.75C1 1.784 1.784 1 2.75 1h10.5c.966 0 1.75.784 1.75 1.75v7.5A1.75 1.75 0 0 1 13.25 12H9.06l-2.573 2.573A1.458 1.458 0 0 1 4 13.543V12H2.75A1.75 1.75 0 0 1 1 10.25Zm1.75-.25a.25.25 0 0 0-.25.25v7.5c0 .138.112.25.25.25h2a.75.75 0 0 1 .75.75v2.19l2.72-2.72a.75.75 0 0 1 .53-.22h4.5a.25.25 0 0 0 .25-.25v-7.5a.25.25 0 0 0-.25-.25Z"/></symbol><symbol id="hd-icon-octicon-comment-24" viewBox="0 0 24 24"><path fill="currentColor" d="M1.5 4.25c0-.966.784-1.75 1.75-1.75h17.5c.966 0 1.75.784 1.75 1.75v12.5a1.75 1.75 0 0 1-1.75 1.75h-9.69l-3.573 3.573A1.458 1.458 0 0 1 5 21.043V18.5H3.25a1.75 1.75 0 0 1-1.75-1.75ZM3.25 4a.25.25 0 0 0-.25.25v12.5c0 .138.112.25.25.25h2.5a.75.75 0 0 1 .75.75v3.19l3.72-3.72a.75.75 0 0 1 .53-.22h10a.25.25 0 0 0 .25-.25V4.25a.25.25 0 0 0-.25-.25Z"/></symbol><symbol id="hd-icon-octicon-comment-ai-16" viewBox="0 0 16 16"><path fill="currentColor" d="M7.75 1a.75.75 0 0 1 0 1.5h-5a.25.25 0 0 0-.25.25v7.5c0 .138.112.25.25.25h2c.199 0 .39.079.53.22c.141.14.22.331.22.53v2.19l2.72-2.72a.75.75 0 0 1 .53-.22h4.5a.25.25 0 0 0 .25-.25v-2a.75.75 0 0 1 1.5 0v2c0 .464-.184.909-.513 1.237A1.75 1.75 0 0 1 13.25 12H9.06l-2.573 2.573A1.457 1.457 0 0 1 4 13.543V12H2.75A1.75 1.75 0 0 1 1 10.25v-7.5C1 1.784 1.784 1 2.75 1zm4.519-.837a.248.248 0 0 1 .466 0l.238.648a3.73 3.73 0 0 0 2.218 2.219l.649.238a.249.249 0 0 1 0 .467l-.649.238a3.73 3.73 0 0 0-2.218 2.218l-.238.649a.248.248 0 0 1-.466 0l-.239-.649a3.73 3.73 0 0 0-2.218-2.218l-.649-.238a.249.249 0 0 1 0-.467l.649-.238A3.73 3.73 0 0 0 12.03.811z"/></symbol><symbol id="hd-icon-octicon-comment-ai-24" viewBox="0 0 24 24"><path fill="currentColor" d="M11.25 2.5a.75.75 0 0 1 0 1.5h-8a.25.25 0 0 0-.25.25v12.5c0 .138.112.25.25.25h2.5c.199 0 .39.079.53.22c.141.14.22.331.22.53v3.195l3.743-3.725a.75.75 0 0 1 .53-.22h9.977a.25.25 0 0 0 .25-.25v-4.5a.75.75 0 0 1 1.5 0v4.5c0 .464-.184.909-.513 1.237a1.75 1.75 0 0 1-1.237.513h-9.684l-3.579 3.57a1.45 1.45 0 0 1-1.588.316A1.46 1.46 0 0 1 5 21.04V18.5H3.25a1.75 1.75 0 0 1-1.75-1.75V4.25c0-.966.784-1.75 1.75-1.75zM17.748 1a.33.33 0 0 1 .192.061a.33.33 0 0 1 .124.161l.323.88a5.05 5.05 0 0 0 3.008 3.007l.879.323a.33.33 0 0 1 .221.316a.34.34 0 0 1-.221.316l-.879.323a5 5 0 0 0-1.836 1.172a5 5 0 0 0-1.172 1.836l-.323.879a.33.33 0 0 1-.316.221a.33.33 0 0 1-.316-.221l-.323-.879a5.05 5.05 0 0 0-3.007-3.008l-.88-.323a.337.337 0 0 1 0-.632l.88-.323a5.1 5.1 0 0 0 1.836-1.171a5.1 5.1 0 0 0 1.171-1.836l.323-.88A.33.33 0 0 1 17.748 1"/></symbol><symbol id="hd-icon-octicon-comment-discussion" viewBox="0 0 16 16"><path fill-rule="evenodd" d="M15 1H6c-.55 0-1 .45-1 1v2H1c-.55 0-1 .45-1 1v6c0 .55.45 1 1 1h1v3l3-3h4c.55 0 1-.45 1-1V9h1l3 3V9h1c.55 0 1-.45 1-1V2c0-.55-.45-1-1-1zM9 11H4.5L3 12.5V11H1V5h4v3c0 .55.45 1 1 1h3v2zm6-3h-2v1.5L11.5 8H6V2h9v6z" fill="currentColor"/></symbol><symbol id="hd-icon-octicon-comment-discussion-16" viewBox="0 0 16 16"><path fill="currentColor" d="M1.75 1h8.5c.966 0 1.75.784 1.75 1.75v5.5A1.75 1.75 0 0 1 10.25 10H7.061l-2.574 2.573A1.458 1.458 0 0 1 2 11.543V10h-.25A1.75 1.75 0 0 1 0 8.25v-5.5C0 1.784.784 1 1.75 1M1.5 2.75v5.5c0 .138.112.25.25.25h1a.75.75 0 0 1 .75.75v2.19l2.72-2.72a.75.75 0 0 1 .53-.22h3.5a.25.25 0 0 0 .25-.25v-5.5a.25.25 0 0 0-.25-.25h-8.5a.25.25 0 0 0-.25.25m13 2a.25.25 0 0 0-.25-.25h-.5a.75.75 0 0 1 0-1.5h.5c.966 0 1.75.784 1.75 1.75v5.5A1.75 1.75 0 0 1 14.25 12H14v1.543a1.458 1.458 0 0 1-2.487 1.03L9.22 12.28a.749.749 0 0 1 .326-1.275a.75.75 0 0 1 .734.215l2.22 2.22v-2.19a.75.75 0 0 1 .75-.75h1a.25.25 0 0 0 .25-.25Z"/></symbol><symbol id="hd-icon-octicon-comment-discussion-24" viewBox="0 0 24 24"><path fill="currentColor" d="M1.75 1h12.5c.966 0 1.75.784 1.75 1.75v9.5A1.75 1.75 0 0 1 14.25 14H8.061l-2.574 2.573A1.458 1.458 0 0 1 3 15.543V14H1.75A1.75 1.75 0 0 1 0 12.25v-9.5C0 1.784.784 1 1.75 1M1.5 2.75v9.5c0 .138.112.25.25.25h2a.75.75 0 0 1 .75.75v2.19l2.72-2.72a.75.75 0 0 1 .53-.22h6.5a.25.25 0 0 0 .25-.25v-9.5a.25.25 0 0 0-.25-.25H1.75a.25.25 0 0 0-.25.25"/><path fill="currentColor" d="M22.5 8.75a.25.25 0 0 0-.25-.25h-3.5a.75.75 0 0 1 0-1.5h3.5c.966 0 1.75.784 1.75 1.75v9.5A1.75 1.75 0 0 1 22.25 20H21v1.543a1.457 1.457 0 0 1-2.487 1.03L15.939 20H10.75A1.75 1.75 0 0 1 9 18.25v-1.465a.75.75 0 0 1 1.5 0v1.465c0 .138.112.25.25.25h5.5a.75.75 0 0 1 .53.22l2.72 2.72v-2.19a.75.75 0 0 1 .75-.75h2a.25.25 0 0 0 .25-.25z"/></symbol><symbol id="hd-icon-octicon-commit-24" viewBox="0 0 24 24"><path fill="currentColor" d="M0 11.75A.75.75 0 0 1 .75 11h5a.75.75 0 0 1 0 1.5h-5a.75.75 0 0 1-.75-.75m17.5 0a.75.75 0 0 1 .75-.75h5a.75.75 0 0 1 0 1.5h-5a.75.75 0 0 1-.75-.75"/><path fill="currentColor" d="M12 17.75a6 6 0 1 1 0-12a6 6 0 0 1 0 12m0-1.5a4.5 4.5 0 1 0 0-9a4.5 4.5 0 0 0 0 9"/></symbol><symbol id="hd-icon-octicon-compose-16" viewBox="0 0 16 16"><path fill="currentColor" d="m14.515.456l.965.965a1.555 1.555 0 0 1 0 2.2L9.745 9.355a1.55 1.55 0 0 1-.672.396l-2.89.826a.67.67 0 0 1-.828-.474a.66.66 0 0 1 .004-.35l.825-2.89c.073-.254.209-.486.396-.673L12.315.456c.144-.145.316-.259.505-.337a1.54 1.54 0 0 1 1.19 0c.189.078.361.192.505.337m-3.322 3.008l-3.67 3.669a.2.2 0 0 0-.057.096L6.97 8.965l1.736-.496a.2.2 0 0 0 .096-.056l3.67-3.67Zm2.065-2.066L12.135 2.52l1.28 1.28l1.122-1.122a.22.22 0 0 0 .065-.157a.22.22 0 0 0-.065-.157l-.965-.966a.22.22 0 0 0-.157-.065a.23.23 0 0 0-.157.065"/><path fill="currentColor" d="M0 14.25V2.75A1.75 1.75 0 0 1 1.75 1H7a.75.75 0 0 1 0 1.5H1.75a.25.25 0 0 0-.25.25v11.5a.25.25 0 0 0 .25.25h11.5a.25.25 0 0 0 .25-.25V8.5a.75.75 0 0 1 1.5 0v5.75c0 .464-.184.909-.513 1.237A1.75 1.75 0 0 1 13.25 16H1.75A1.75 1.75 0 0 1 0 14.25"/></symbol><symbol id="hd-icon-octicon-compose-24" viewBox="0 0 24 24"><path fill="currentColor" d="M1 21.25V4a1.75 1.75 0 0 1 1.75-1.75h7.51a.75.75 0 0 1 0 1.5H2.75A.25.25 0 0 0 2.5 4v17.25a.25.25 0 0 0 .25.25H20a.25.25 0 0 0 .25-.25V13a.75.75 0 0 1 1.5 0v8.25c0 .464-.184.909-.513 1.237A1.75 1.75 0 0 1 20 23H2.75A1.75 1.75 0 0 1 1 21.25"/><path fill="currentColor" d="M19.013 1.427a1.75 1.75 0 0 1 2.474 0l1.086 1.086a1.75 1.75 0 0 1 0 2.474l-8.61 8.61c-.21.21-.47.364-.756.445l-3.25.929a.751.751 0 0 1-.928-.927l.929-3.25c.082-.287.235-.547.445-.758zm-7.55 9.67a.24.24 0 0 0-.063.108l-.558 1.953l1.953-.558a.25.25 0 0 0 .108-.064L19.19 6.25l-1.44-1.44Zm8.964-8.61a.25.25 0 0 0-.177-.073a.25.25 0 0 0-.177.073L18.811 3.75l1.439 1.44l1.263-1.263a.25.25 0 0 0 .073-.177a.25.25 0 0 0-.073-.177Z"/></symbol><symbol id="hd-icon-octicon-container-16" viewBox="0 0 16 16"><path fill="currentColor" d="m10.41.24l4.711 2.774c.544.316.878.897.879 1.526v5.01a1.77 1.77 0 0 1-.88 1.53l-7.753 4.521l-.002.001a1.77 1.77 0 0 1-1.774 0H5.59L.873 12.85A1.76 1.76 0 0 1 0 11.327V6.292c0-.304.078-.598.22-.855l.004-.005l.01-.019c.15-.262.369-.486.64-.643L8.641.239a1.75 1.75 0 0 1 1.765 0l.002.001ZM9.397 1.534l-7.17 4.182l4.116 2.388a.27.27 0 0 0 .269 0l7.152-4.148l-4.115-2.422a.25.25 0 0 0-.252 0m-7.768 10.02l4.1 2.393V9.474a2 2 0 0 1-.138-.072L1.5 7.029v4.298c0 .095.05.181.129.227m8.6.642l1.521-.887v-4.45l-1.521.882ZM7.365 9.402h.001q-.066.038-.136.071v4.472l1.5-.875V8.61Zm5.885 1.032l1.115-.65h.002a.27.27 0 0 0 .133-.232V5.264l-1.25.725Z"/></symbol><symbol id="hd-icon-octicon-container-24" viewBox="0 0 24 24"><path fill="currentColor" d="M13.152.682a2.25 2.25 0 0 1 2.269 0l.007.004l6.957 4.276a2.28 2.28 0 0 1 1.126 1.964v7.516c0 .81-.432 1.56-1.133 1.968l-.002.001l-11.964 7.037l-.004.003c-.706.41-1.578.41-2.284 0l-.026-.015l-6.503-4.502a2.27 2.27 0 0 1-1.096-1.943V9.438c0-.392.1-.77.284-1.1l.003-.006l.014-.026c.197-.342.48-.627.82-.827h.002L13.152.681Zm.757 1.295h-.001L2.648 8.616l6.248 4.247a.78.78 0 0 0 .758-.01h.001l11.633-6.804l-6.629-4.074a.75.75 0 0 0-.75.003ZM8.517 14.33a2.3 2.3 0 0 1-.393-.18l-.023-.014l-6.102-4.147v7.003c0 .275.145.528.379.664l.025.014l6.114 4.232zM18 9.709l-3.25 1.9v7.548L18 17.245Zm-7.59 4.438l-.002.002a2.3 2.3 0 0 1-.391.18v7.612l3.233-1.902v-7.552Zm9.09-5.316v7.532l2.124-1.25a.78.78 0 0 0 .387-.671V7.363Z"/></symbol><symbol id="hd-icon-octicon-copilot-16" viewBox="0 0 16 16"><path fill="currentColor" d="M7.998 15.035c-4.562 0-7.873-2.914-7.998-3.749V9.338c.085-.628.677-1.686 1.588-2.065q.019-.105.036-.218c.029-.183.06-.384.126-.612c-.201-.508-.254-1.084-.254-1.656c0-.87.128-1.769.693-2.484c.579-.733 1.494-1.124 2.724-1.261c1.206-.134 2.262.034 2.944.765q.075.08.139.165q.068-.085.143-.165c.682-.731 1.738-.899 2.944-.765c1.23.137 2.145.528 2.724 1.261c.566.715.693 1.614.693 2.484c0 .572-.053 1.148-.254 1.656c.066.228.098.429.126.612q.018.113.037.218c.924.385 1.522 1.471 1.591 2.095v1.872c0 .766-3.351 3.795-8.002 3.795m0-1.485c2.28 0 4.584-1.11 5.002-1.433V7.862l-.023-.116c-.49.21-1.075.291-1.727.291c-1.146 0-2.059-.327-2.71-.991A3.2 3.2 0 0 1 8 6.303a3.2 3.2 0 0 1-.544.743c-.65.664-1.563.991-2.71.991c-.652 0-1.236-.081-1.727-.291l-.023.116v4.255c.419.323 2.722 1.433 5.002 1.433M6.762 2.83c-.193-.206-.637-.413-1.682-.297c-1.019.113-1.479.404-1.713.7c-.247.312-.369.789-.369 1.554c0 .793.129 1.171.308 1.371c.162.181.519.379 1.442.379c.853 0 1.339-.235 1.638-.54c.315-.322.527-.827.617-1.553c.117-.935-.037-1.395-.241-1.614m4.155-.297c-1.044-.116-1.488.091-1.681.297c-.204.219-.359.679-.242 1.614c.091.726.303 1.231.618 1.553c.299.305.784.54 1.638.54c.922 0 1.28-.198 1.442-.379c.179-.2.308-.578.308-1.371c0-.765-.123-1.242-.37-1.554c-.233-.296-.693-.587-1.713-.7"/><path fill="currentColor" d="M6.25 9.037a.75.75 0 0 1 .75.75v1.501a.75.75 0 0 1-1.5 0V9.787a.75.75 0 0 1 .75-.75m4.25.75v1.501a.75.75 0 0 1-1.5 0V9.787a.75.75 0 0 1 1.5 0"/></symbol><symbol id="hd-icon-octicon-copilot-24" viewBox="0 0 24 24"><path fill="currentColor" d="M23.922 16.992c-.861 1.495-5.859 5.023-11.922 5.023S.939 18.487.078 16.992A.6.6 0 0 1 0 16.736v-2.869a.8.8 0 0 1 .053-.22c.372-.935 1.347-2.292 2.605-2.656c.167-.429.414-1.055.644-1.517a10 10 0 0 1-.052-1.086c0-1.331.282-2.499 1.132-3.368c.397-.406.89-.717 1.474-.952c1.399-1.136 3.392-2.093 6.122-2.093s4.767.957 6.166 2.093c.584.235 1.077.546 1.474.952c.85.869 1.132 2.037 1.132 3.368c0 .368-.014.733-.052 1.086c.23.462.477 1.088.644 1.517c1.258.364 2.233 1.721 2.605 2.656a.8.8 0 0 1 .053.22v2.869a.6.6 0 0 1-.078.256M12.172 11h-.344a4 4 0 0 1-.355.508C10.703 12.455 9.555 13 7.965 13c-1.725 0-2.989-.359-3.782-1.259a2 2 0 0 1-.085-.104L4 11.741v6.585c1.435.779 4.514 2.179 8 2.179s6.565-1.4 8-2.179v-6.585l-.098-.104s-.033.045-.085.104c-.793.9-2.057 1.259-3.782 1.259c-1.59 0-2.738-.545-3.508-1.492a4 4 0 0 1-.355-.508h-.016zm.641-2.935c.136 1.057.403 1.913.878 2.497c.442.544 1.134.938 2.344.938c1.573 0 2.292-.337 2.657-.751c.384-.435.558-1.15.558-2.361c0-1.14-.243-1.847-.705-2.319c-.477-.488-1.319-.862-2.824-1.025c-1.487-.161-2.192.138-2.533.529c-.269.307-.437.808-.438 1.578v.021q0 .397.063.893m-1.626 0q.063-.496.063-.894v-.02c-.001-.77-.169-1.271-.438-1.578c-.341-.391-1.046-.69-2.533-.529c-1.505.163-2.347.537-2.824 1.025c-.462.472-.705 1.179-.705 2.319c0 1.211.175 1.926.558 2.361c.365.414 1.084.751 2.657.751c1.21 0 1.902-.394 2.344-.938c.475-.584.742-1.44.878-2.497"/><path fill="currentColor" d="M14.5 14.25a1 1 0 0 1 1 1v2a1 1 0 0 1-2 0v-2a1 1 0 0 1 1-1m-5 0a1 1 0 0 1 1 1v2a1 1 0 0 1-2 0v-2a1 1 0 0 1 1-1"/></symbol><symbol id="hd-icon-octicon-copilot-48" viewBox="0 0 48 48"><path fill="currentColor" d="M47.801 34.003c-1.72 2.988-11.706 10.037-23.82 10.037S1.881 36.991.161 34.003a1.3 1.3 0 0 1-.161-.57v-5.615q.017-.256.11-.498c.744-1.867 2.692-4.58 5.206-5.308c.333-.855.826-2.106 1.287-3.029a20 20 0 0 1-.104-2.171c0-2.659.563-4.992 2.262-6.729c.793-.811 1.777-1.433 2.945-1.901C14.502 5.911 18.483 4 23.938 4s9.523 1.911 12.319 4.182c1.167.468 2.151 1.09 2.944 1.901c1.699 1.737 2.263 4.07 2.263 6.729c0 .736-.027 1.465-.105 2.171c.461.923.954 2.174 1.288 3.029c2.513.728 4.461 3.441 5.205 5.308c.081.205.115.424.115.645v5.318c0 .252-.04.502-.166.72M24.325 22.031h-.688a8.5 8.5 0 0 1-.709 1.016c-1.537 1.892-3.833 2.98-7.008 2.98c-3.447 0-5.972-.717-7.557-2.514a4 4 0 0 1-.171-.21l-.195.21v13.155c2.867 1.558 9.02 4.353 15.984 4.353s13.117-2.795 15.984-4.353V23.513l-.195-.21s-.066.091-.171.21c-1.584 1.797-4.11 2.514-7.557 2.514c-3.175 0-5.47-1.088-7.008-2.98a9 9 0 0 1-.709-1.016h-.033zm-1.969-5.864a14 14 0 0 0 .127-1.785v-.042c-.003-1.537-.339-2.538-.876-3.152c-.681-.78-2.09-1.378-5.06-1.057c-3.008.326-4.69 1.073-5.643 2.048c-.923.944-1.408 2.356-1.408 4.633c0 2.42.348 3.849 1.115 4.719c.729.827 2.165 1.499 5.309 1.499c2.417 0 3.799-.786 4.683-1.873c.948-1.168 1.482-2.878 1.753-4.99m3.25 0c.271 2.112.805 3.822 1.754 4.99c.883 1.087 2.265 1.873 4.682 1.873c3.145 0 4.58-.672 5.309-1.499c.767-.87 1.116-2.299 1.116-4.719c0-2.277-.485-3.689-1.408-4.633c-.954-.975-2.635-1.722-5.644-2.048c-2.969-.321-4.378.277-5.06 1.057c-.537.614-.873 1.615-.876 3.152v.042q.001.793.127 1.785"/><path fill="currentColor" d="M28.998 28.516c1.104 0 1.999.895 1.999 1.999v3.998a2 2 0 1 1-3.998 0v-3.998c0-1.104.895-1.999 1.999-1.999m-9.996 0c1.104 0 1.999.895 1.999 1.999v3.998a2 2 0 1 1-3.998 0v-3.998c0-1.104.895-1.999 1.999-1.999"/></symbol><symbol id="hd-icon-octicon-copilot-96" viewBox="0 0 96 96"><path fill="currentColor" d="M95.667 67.954C92.225 73.933 72.24 88.04 47.997 88.04S3.769 73.933.328 67.954c-.216-.375-.307-.796-.328-1.226V55.661c.019-.371.089-.736.226-1.081c1.489-3.738 5.386-9.166 10.417-10.623c.667-1.712 1.655-4.215 2.576-6.062c-.154-1.414-.208-2.872-.208-4.345c0-5.322 1.128-9.99 4.527-13.466c1.587-1.623 3.557-2.869 5.893-3.805c5.595-4.545 13.563-8.369 24.48-8.369s19.057 3.824 24.652 8.369c2.337.936 4.306 2.182 5.894 3.805c3.399 3.476 4.527 8.144 4.527 13.466c0 1.473-.054 2.931-.208 4.345c.921 1.847 1.909 4.35 2.576 6.062c5.03 1.457 8.928 6.885 10.417 10.623c.163.41.231.848.231 1.289v10.644c0 .504-.081 1.004-.333 1.441M48.686 43.993l-.3.001l-1.077-.001q-.633 1.066-1.418 2.035c-3.078 3.787-7.672 5.964-14.026 5.964c-6.897 0-11.952-1.435-15.123-5.032a8 8 0 0 1-.342-.419l-.39.419v26.326c5.737 3.118 18.05 8.713 31.987 8.713c13.938 0 26.251-5.595 31.988-8.713V46.96l-.39-.419s-.132.181-.342.419c-3.171 3.597-8.226 5.032-15.123 5.032c-6.354 0-10.949-2.177-14.026-5.964a17 17 0 0 1-1.418-2.034h-.066zm-3.94-11.733c.17-1.326.251-2.513.253-3.573v-.084c-.005-3.077-.678-5.079-1.752-6.308c-1.365-1.562-4.184-2.758-10.127-2.115c-6.021.652-9.386 2.146-11.294 4.098c-1.847 1.889-2.818 4.715-2.818 9.272c0 4.842.698 7.703 2.232 9.443c1.459 1.655 4.332 3.001 10.625 3.001c4.837 0 7.603-1.573 9.371-3.749c1.899-2.336 2.967-5.759 3.51-9.985m6.503 0c.543 4.226 1.611 7.649 3.51 9.985c1.768 2.176 4.533 3.749 9.371 3.749c6.292 0 9.165-1.346 10.624-3.001c1.535-1.74 2.232-4.601 2.232-9.443c0-4.557-.97-7.383-2.817-9.272c-1.908-1.952-5.274-3.446-11.294-4.098c-5.943-.643-8.763.553-10.127 2.115c-1.074 1.229-1.747 3.231-1.752 6.308v.084c.002 1.06.083 2.247.253 3.573m-2.563 11.734h.066z"/><path fill="currentColor" d="M38.5 55.75a3.5 3.5 0 0 1 3.5 3.5v8.5a3.5 3.5 0 1 1-7 0v-8.5a3.5 3.5 0 0 1 3.5-3.5m19 0a3.5 3.5 0 0 1 3.5 3.5v8.5a3.5 3.5 0 1 1-7 0v-8.5a3.5 3.5 0 0 1 3.5-3.5"/></symbol><symbol id="hd-icon-octicon-copilot-error-16" viewBox="0 0 16 16"><path fill="currentColor" d="M16 11.24c0 .112-.072.274-.21.467L13 9.688V7.862l-.023-.116c-.49.21-1.075.291-1.727.291q-.297 0-.571-.029L6.833 5.226a4 4 0 0 0 .17-.782c.117-.935-.037-1.395-.241-1.614c-.193-.206-.637-.413-1.682-.297c-.683.076-1.115.231-1.395.415l-1.257-.91c.579-.564 1.413-.877 2.485-.996c1.206-.134 2.262.034 2.944.765q.075.08.139.165q.068-.085.143-.165c.682-.731 1.738-.899 2.944-.765c1.23.137 2.145.528 2.724 1.261c.566.715.693 1.614.693 2.484c0 .572-.053 1.148-.254 1.656c.066.228.098.429.126.612q.018.113.037.218c.924.385 1.522 1.471 1.591 2.095Zm-5.083-8.707c-1.044-.116-1.488.091-1.681.297c-.204.219-.359.679-.242 1.614c.091.726.303 1.231.618 1.553c.299.305.784.54 1.638.54c.922 0 1.28-.198 1.442-.379c.179-.2.308-.578.308-1.371c0-.765-.123-1.242-.37-1.554c-.233-.296-.693-.587-1.713-.7m2.511 11.074c-1.393.776-3.272 1.428-5.43 1.428c-4.562 0-7.873-2.914-7.998-3.749V9.338c.085-.628.677-1.686 1.588-2.065q.019-.105.036-.218c.029-.183.06-.384.126-.612c-.18-.455-.241-.963-.252-1.475L.31 4.107A.75.75 0 0 1 0 3.509V3.49a.75.75 0 0 1 .625-.73c.156-.026.306.047.435.139l14.667 10.578a.6.6 0 0 1 .227.264a.8.8 0 0 1 .046.249v.022a.75.75 0 0 1-1.19.596Zm-1.367-.991L5.635 7.964a5 5 0 0 1-.889.073c-.652 0-1.236-.081-1.727-.291l-.023.116v4.255c.419.323 2.722 1.433 5.002 1.433c1.539 0 3.089-.505 4.063-.934"/></symbol><symbol id="hd-icon-octicon-copilot-warning-16" viewBox="0 0 16 16"><path fill="currentColor" d="M8.498 14.811a4.5 4.5 0 0 1-1.161-1.337a4.5 4.5 0 0 1-.587-2.224a4.496 4.496 0 0 1 4.5-4.5a4.5 4.5 0 0 1 4.5 4.5a4.5 4.5 0 0 1-7.252 3.561M10.5 8.75V11a.75.75 0 0 0 1.5 0V8.75a.75.75 0 1 0-1.5 0m.75 5.75a1 1 0 1 0 0-2a1 1 0 0 0 0 2"/><path fill="currentColor" d="m14.354 6.114l-.05-.029a6 6 0 0 0-1.351-.589c.03-.19.047-.422.047-.709c0-.765-.123-1.242-.37-1.554c-.233-.296-.693-.587-1.713-.7c-1.044-.116-1.488.091-1.681.297c-.204.219-.359.679-.242 1.614c.058.462.165.834.316 1.127A6.03 6.03 0 0 0 6.369 7.76q-.71.277-1.623.277c-.652 0-1.236-.081-1.727-.291l-.023.116v4.255c.265.205 1.285.725 2.577 1.079a6 6 0 0 0 .939 1.736C2.733 14.407.111 12.027 0 11.286V9.338c.085-.628.677-1.686 1.588-2.065q.019-.105.036-.218c.029-.183.06-.384.126-.612c-.201-.508-.254-1.084-.254-1.656c0-.87.128-1.769.693-2.484c.579-.733 1.494-1.124 2.724-1.261c1.206-.134 2.262.034 2.944.765q.075.08.139.165q.068-.085.143-.165c.682-.731 1.738-.899 2.944-.765c1.23.137 2.145.528 2.724 1.261c.566.715.693 1.614.693 2.484c0 .452-.033.906-.146 1.327M6.762 2.83c-.193-.206-.637-.413-1.682-.297c-1.019.113-1.479.404-1.713.7c-.247.312-.369.789-.369 1.554c0 .793.129 1.171.308 1.371c.162.181.519.379 1.442.379c.853 0 1.339-.235 1.638-.54c.315-.322.527-.827.617-1.553c.117-.935-.037-1.395-.241-1.614"/></symbol><symbol id="hd-icon-octicon-copy-16" viewBox="0 0 16 16"><path fill="currentColor" d="M0 6.75C0 5.784.784 5 1.75 5h1.5a.75.75 0 0 1 0 1.5h-1.5a.25.25 0 0 0-.25.25v7.5c0 .138.112.25.25.25h7.5a.25.25 0 0 0 .25-.25v-1.5a.75.75 0 0 1 1.5 0v1.5A1.75 1.75 0 0 1 9.25 16h-7.5A1.75 1.75 0 0 1 0 14.25Z"/><path fill="currentColor" d="M5 1.75C5 .784 5.784 0 6.75 0h7.5C15.216 0 16 .784 16 1.75v7.5A1.75 1.75 0 0 1 14.25 11h-7.5A1.75 1.75 0 0 1 5 9.25Zm1.75-.25a.25.25 0 0 0-.25.25v7.5c0 .138.112.25.25.25h7.5a.25.25 0 0 0 .25-.25v-7.5a.25.25 0 0 0-.25-.25Z"/></symbol><symbol id="hd-icon-octicon-copy-24" viewBox="0 0 24 24"><path fill="currentColor" d="M7.024 3.75c0-.966.784-1.75 1.75-1.75H20.25c.966 0 1.75.784 1.75 1.75v11.498a1.75 1.75 0 0 1-1.75 1.75H8.774a1.75 1.75 0 0 1-1.75-1.75Zm1.75-.25a.25.25 0 0 0-.25.25v11.498c0 .139.112.25.25.25H20.25a.25.25 0 0 0 .25-.25V3.75a.25.25 0 0 0-.25-.25Z"/><path fill="currentColor" d="M1.995 10.749a1.75 1.75 0 0 1 1.75-1.751H5.25a.75.75 0 1 1 0 1.5H3.745a.25.25 0 0 0-.25.25L3.5 20.25c0 .138.111.25.25.25h9.5a.25.25 0 0 0 .25-.25v-1.51a.75.75 0 1 1 1.5 0v1.51A1.75 1.75 0 0 1 13.25 22h-9.5A1.75 1.75 0 0 1 2 20.25z"/></symbol><symbol id="hd-icon-octicon-cpu-16" viewBox="0 0 16 16"><path fill="currentColor" d="M6.5.75V2h3V.75a.75.75 0 0 1 1.5 0V2h1.25c.966 0 1.75.784 1.75 1.75V5h1.25a.75.75 0 0 1 0 1.5H14v3h1.25a.75.75 0 0 1 0 1.5H14v1.25A1.75 1.75 0 0 1 12.25 14H11v1.25a.75.75 0 0 1-1.5 0V14h-3v1.25a.75.75 0 0 1-1.5 0V14H3.75A1.75 1.75 0 0 1 2 12.25V11H.75a.75.75 0 0 1 0-1.5H2v-3H.75a.75.75 0 0 1 0-1.5H2V3.75C2 2.784 2.784 2 3.75 2H5V.75a.75.75 0 0 1 1.5 0m5.75 11.75a.25.25 0 0 0 .25-.25v-8.5a.25.25 0 0 0-.25-.25h-8.5a.25.25 0 0 0-.25.25v8.5c0 .138.112.25.25.25ZM5.75 5h4.5a.75.75 0 0 1 .75.75v4.5a.75.75 0 0 1-.75.75h-4.5a.75.75 0 0 1-.75-.75v-4.5A.75.75 0 0 1 5.75 5m.75 4.5h3v-3h-3Z"/></symbol><symbol id="hd-icon-octicon-cpu-24" viewBox="0 0 24 24"><path fill="currentColor" d="M8.75 8h6.5a.75.75 0 0 1 .75.75v6.5a.75.75 0 0 1-.75.75h-6.5a.75.75 0 0 1-.75-.75v-6.5A.75.75 0 0 1 8.75 8m.75 6.5h5v-5h-5Z"/><path fill="currentColor" d="M15.25 1a.75.75 0 0 1 .75.75V4h2.25c.966 0 1.75.784 1.75 1.75V8h2.25a.75.75 0 0 1 0 1.5H20v5h2.25a.75.75 0 0 1 0 1.5H20v2.25A1.75 1.75 0 0 1 18.25 20H16v2.25a.75.75 0 0 1-1.5 0V20h-5v2.25a.75.75 0 0 1-1.5 0V20H5.75A1.75 1.75 0 0 1 4 18.25V16H1.75a.75.75 0 0 1 0-1.5H4v-5H1.75a.75.75 0 0 1 0-1.5H4V5.75C4 4.784 4.784 4 5.75 4H8V1.75a.75.75 0 0 1 1.5 0V4h5V1.75a.75.75 0 0 1 .75-.75m3 17.5a.25.25 0 0 0 .25-.25V5.75a.25.25 0 0 0-.25-.25H5.75a.25.25 0 0 0-.25.25v12.5c0 .138.112.25.25.25Z"/></symbol><symbol id="hd-icon-octicon-credit-card" viewBox="0 0 16 16"><path fill-rule="evenodd" d="M12 9H2V8h10v1zm4-6v9c0 .55-.45 1-1 1H1c-.55 0-1-.45-1-1V3c0-.55.45-1 1-1h14c.55 0 1 .45 1 1zm-1 3H1v6h14V6zm0-3H1v1h14V3zm-9 7H2v1h4v-1z" fill="currentColor"/></symbol><symbol id="hd-icon-octicon-credit-card-16" viewBox="0 0 16 16"><path fill="currentColor" d="M10.75 9a.75.75 0 0 0 0 1.5h1.5a.75.75 0 0 0 0-1.5z"/><path fill="currentColor" d="M0 3.75C0 2.784.784 2 1.75 2h12.5c.966 0 1.75.784 1.75 1.75v8.5A1.75 1.75 0 0 1 14.25 14H1.75A1.75 1.75 0 0 1 0 12.25ZM14.5 6.5h-13v5.75c0 .138.112.25.25.25h12.5a.25.25 0 0 0 .25-.25Zm0-2.75a.25.25 0 0 0-.25-.25H1.75a.25.25 0 0 0-.25.25V5h13Z"/></symbol><symbol id="hd-icon-octicon-credit-card-24" viewBox="0 0 24 24"><path fill="currentColor" d="M15.25 14a.75.75 0 0 0 0 1.5h3.5a.75.75 0 0 0 0-1.5z"/><path fill="currentColor" d="M1.75 3h20.5c.966 0 1.75.784 1.75 1.75v14.5A1.75 1.75 0 0 1 22.25 21H1.75A1.75 1.75 0 0 1 0 19.25V4.75C0 3.784.784 3 1.75 3m-.25 7v9.25c0 .138.112.25.25.25h20.5a.25.25 0 0 0 .25-.25V10Zm0-5.25V8.5h21V4.75a.25.25 0 0 0-.25-.25H1.75a.25.25 0 0 0-.25.25"/></symbol><symbol id="hd-icon-octicon-cross-reference-16" viewBox="0 0 16 16"><path fill="currentColor" d="M2.75 3.5a.25.25 0 0 0-.25.25v7.5c0 .138.112.25.25.25h2a.75.75 0 0 1 .75.75v2.19l2.72-2.72a.75.75 0 0 1 .53-.22h4.5a.25.25 0 0 0 .25-.25v-2.5a.75.75 0 0 1 1.5 0v2.5A1.75 1.75 0 0 1 13.25 13H9.06l-2.573 2.573A1.458 1.458 0 0 1 4 14.543V13H2.75A1.75 1.75 0 0 1 1 11.25v-7.5C1 2.784 1.784 2 2.75 2h5.5a.75.75 0 0 1 0 1.5ZM16 1.25v4.146a.25.25 0 0 1-.427.177L14.03 4.03l-3.75 3.75a.749.749 0 0 1-1.275-.326a.75.75 0 0 1 .215-.734l3.75-3.75l-1.543-1.543A.25.25 0 0 1 11.604 1h4.146a.25.25 0 0 1 .25.25"/></symbol><symbol id="hd-icon-octicon-cross-reference-24" viewBox="0 0 24 24"><path fill="currentColor" d="M16.5 2.25a.75.75 0 0 1 .75-.75h5.5a.75.75 0 0 1 .75.75v5.5a.75.75 0 0 1-1.5 0V4.06l-6.22 6.22a.75.75 0 1 1-1.06-1.06L20.94 3h-3.69a.75.75 0 0 1-.75-.75"/><path fill="currentColor" d="M3.25 4a.25.25 0 0 0-.25.25v12.5c0 .138.112.25.25.25h2.5a.75.75 0 0 1 .75.75v3.19l3.72-3.72a.75.75 0 0 1 .53-.22h10a.25.25 0 0 0 .25-.25v-6a.75.75 0 0 1 1.5 0v6a1.75 1.75 0 0 1-1.75 1.75h-9.69l-3.573 3.573A1.457 1.457 0 0 1 5 21.043V18.5H3.25a1.75 1.75 0 0 1-1.75-1.75V4.25c0-.966.784-1.75 1.75-1.75h11a.75.75 0 0 1 0 1.5z"/></symbol><symbol id="hd-icon-octicon-crosshairs-16" viewBox="0 0 16 16"><path fill="currentColor" d="M14 8A6 6 0 1 1 2 8a6 6 0 0 1 12 0m-1.5 0a4.5 4.5 0 1 0-9 0a4.5 4.5 0 0 0 9 0"/><path fill="currentColor" d="M5 7.25a.75.75 0 0 1 0 1.5H1a.75.75 0 0 1 0-1.5Zm3-7a.75.75 0 0 1 .75.75v4a.75.75 0 0 1-1.5 0V1A.75.75 0 0 1 8 .25m7 7a.75.75 0 0 1 0 1.5h-4a.75.75 0 0 1 0-1.5Zm-7 3a.75.75 0 0 1 .75.75v4a.75.75 0 0 1-1.5 0v-4a.75.75 0 0 1 .75-.75"/></symbol><symbol id="hd-icon-octicon-crosshairs-24" viewBox="0 0 24 24"><path fill="currentColor" d="M21 12a9 9 0 0 1-9 9a9 9 0 0 1-9-9a9 9 0 0 1 9-9a9 9 0 0 1 9 9m-1.5 0a7.5 7.5 0 1 0-15 0a7.5 7.5 0 0 0 15 0"/><path fill="currentColor" d="M12 .25a.75.75 0 0 1 .75.75v5a.75.75 0 0 1-1.5 0V1A.75.75 0 0 1 12 .25m-6 11a.75.75 0 0 1 0 1.5H1a.75.75 0 0 1 0-1.5Zm17 0a.75.75 0 0 1 0 1.5h-5a.75.75 0 0 1 0-1.5Zm-11 6a.75.75 0 0 1 .75.75v5a.75.75 0 0 1-1.5 0v-5a.75.75 0 0 1 .75-.75"/></symbol><symbol id="hd-icon-octicon-dash" viewBox="0 0 8 16"><path fill-rule="evenodd" d="M0 7v2h8V7H0z" fill="currentColor"/></symbol><symbol id="hd-icon-octicon-dash-16" viewBox="0 0 16 16"><path fill="currentColor" d="M2 7.75A.75.75 0 0 1 2.75 7h10a.75.75 0 0 1 0 1.5h-10A.75.75 0 0 1 2 7.75"/></symbol><symbol id="hd-icon-octicon-dash-24" viewBox="0 0 24 24"><path fill="currentColor" d="M4.5 12.75a.75.75 0 0 1 .75-.75h13.5a.75.75 0 0 1 0 1.5H5.25a.75.75 0 0 1-.75-.75"/></symbol><symbol id="hd-icon-octicon-dashboard" viewBox="0 0 16 16"><path fill-rule="evenodd" d="M9 5H8V4h1v1zm4 3h-1v1h1V8zM6 5H5v1h1V5zM5 8H4v1h1V8zm11-5.5l-.5-.5L9 7c-.06-.02-1 0-1 0c-.55 0-1 .45-1 1v1c0 .55.45 1 1 1h1c.55 0 1-.45 1-1v-.92l6-5.58zm-1.59 4.09c.19.61.3 1.25.3 1.91c0 3.42-2.78 6.2-6.2 6.2c-3.42 0-6.21-2.78-6.21-6.2c0-3.42 2.78-6.2 6.2-6.2c1.2 0 2.31.34 3.27.94l.94-.94A7.459 7.459 0 0 0 8.51 1C4.36 1 1 4.36 1 8.5C1 12.64 4.36 16 8.5 16c4.14 0 7.5-3.36 7.5-7.5c0-1.03-.2-2.02-.59-2.91l-1 1z" fill="currentColor"/></symbol><symbol id="hd-icon-octicon-database" viewBox="0 0 12 16"><path fill-rule="evenodd" d="M6 15c-3.31 0-6-.9-6-2v-2c0-.17.09-.34.21-.5c.67.86 3 1.5 5.79 1.5s5.12-.64 5.79-1.5c.13.16.21.33.21.5v2c0 1.1-2.69 2-6 2zm0-4c-3.31 0-6-.9-6-2V7c0-.11.04-.21.09-.31c.03-.06.07-.13.12-.19C.88 7.36 3.21 8 6 8s5.12-.64 5.79-1.5c.05.06.09.13.12.19c.05.1.09.21.09.31v2c0 1.1-2.69 2-6 2zm0-4c-3.31 0-6-.9-6-2V3c0-1.1 2.69-2 6-2s6 .9 6 2v2c0 1.1-2.69 2-6 2zm0-5c-2.21 0-4 .45-4 1s1.79 1 4 1s4-.45 4-1s-1.79-1-4-1z" fill="currentColor"/></symbol><symbol id="hd-icon-octicon-database-16" viewBox="0 0 16 16"><path fill="currentColor" d="M1 3.5c0-.626.292-1.165.7-1.59c.406-.422.956-.767 1.579-1.041C4.525.32 6.195 0 8 0s3.475.32 4.722.869c.622.274 1.172.62 1.578 1.04c.408.426.7.965.7 1.591v9c0 .626-.292 1.165-.7 1.59c-.406.422-.956.767-1.579 1.041C11.476 15.68 9.806 16 8 16c-1.805 0-3.475-.32-4.721-.869c-.623-.274-1.173-.62-1.579-1.04c-.408-.426-.7-.965-.7-1.591Zm1.5 0c0 .133.058.318.282.551c.227.237.591.483 1.101.707C4.898 5.205 6.353 5.5 8 5.5s3.101-.295 4.118-.742c.508-.224.873-.471 1.1-.708c.224-.232.282-.417.282-.55s-.058-.318-.282-.551c-.227-.237-.591-.483-1.101-.707C11.102 1.795 9.647 1.5 8 1.5s-3.101.295-4.118.742c-.508.224-.873.471-1.1.708c-.224.232-.282.417-.282.55m0 4.5c0 .133.058.318.282.551c.227.237.591.483 1.101.707C4.898 9.705 6.353 10 8 10s3.101-.295 4.118-.742c.508-.224.873-.471 1.1-.708c.224-.232.282-.417.282-.55V5.724c-.241.15-.503.286-.778.407C11.475 6.68 9.805 7 8 7s-3.475-.32-4.721-.869a6 6 0 0 1-.779-.407Zm0 2.225V12.5c0 .133.058.318.282.55c.227.237.592.484 1.1.708c1.016.447 2.471.742 4.118.742s3.102-.295 4.117-.742c.51-.224.874-.47 1.101-.707c.224-.233.282-.418.282-.551v-2.275c-.241.15-.503.285-.778.406c-1.247.549-2.917.869-4.722.869s-3.475-.32-4.721-.869a6 6 0 0 1-.779-.406"/></symbol><symbol id="hd-icon-octicon-database-24" viewBox="0 0 24 24"><path fill="currentColor" d="M12 1.25c2.487 0 4.773.402 6.466 1.079c.844.337 1.577.758 2.112 1.264c.536.507.922 1.151.922 1.907v12.987l-.026.013h.026c0 .756-.386 1.4-.922 1.907c-.535.506-1.268.927-2.112 1.264c-1.693.677-3.979 1.079-6.466 1.079s-4.774-.402-6.466-1.079c-.844-.337-1.577-.758-2.112-1.264C2.886 19.9 2.5 19.256 2.5 18.5h.026l-.026-.013V5.5c0-.756.386-1.4.922-1.907c.535-.506 1.268-.927 2.112-1.264C7.226 1.652 9.513 1.25 12 1.25M4 14.371v4.116l-.013.013H4c0 .211.103.487.453.817c.351.332.898.666 1.638.962c1.475.589 3.564.971 5.909.971s4.434-.381 5.909-.971c.739-.296 1.288-.63 1.638-.962c.349-.33.453-.607.453-.817h.013L20 18.487v-4.116a8 8 0 0 1-1.534.8c-1.693.677-3.979 1.079-6.466 1.079s-4.774-.402-6.466-1.079a8 8 0 0 1-1.534-.8M20 12V7.871a8 8 0 0 1-1.534.8C16.773 9.348 14.487 9.75 12 9.75s-4.774-.402-6.466-1.079A8 8 0 0 1 4 7.871V12c0 .21.104.487.453.817c.35.332.899.666 1.638.961c1.475.59 3.564.972 5.909.972s4.434-.382 5.909-.972c.74-.295 1.287-.629 1.638-.96c.35-.33.453-.607.453-.818M4 5.5c0 .211.103.487.453.817c.351.332.898.666 1.638.962c1.475.589 3.564.971 5.909.971s4.434-.381 5.909-.971c.739-.296 1.288-.63 1.638-.962c.349-.33.453-.607.453-.817c0-.211-.103-.487-.453-.817c-.351-.332-.898-.666-1.638-.962c-1.475-.589-3.564-.971-5.909-.971s-4.434.381-5.909.971c-.739.296-1.288.63-1.638.962C4.104 5.013 4 5.29 4 5.5"/></symbol></svg>