<svg xmlns="http://www.w3.org/2000/svg" xmlns:xlink="http://www.w3.org/1999/xlink"><symbol id="hd-icon-garden-monitor-stroke-12" viewBox="0 0 12 12"><g fill="none" stroke="currentColor"><rect width="11" height="7" x=".5" y=".5" rx=".5" ry=".5"/><path stroke-linecap="round" d="M8.5 11.5a2.56 2.56 0 0 0-5 0"/></g></symbol><symbol id="hd-icon-garden-monitor-stroke-16" viewBox="0 0 16 16"><g fill="none" stroke="currentColor"><rect width="15" height="10" x=".5" y=".5" rx=".5" ry=".5"/><path stroke-linecap="round" d="M11.5 15.5a3.54 3.54 0 0 0-7 0"/></g></symbol><symbol id="hd-icon-garden-moon-fill-12" viewBox="0 0 12 12"><path fill="currentColor" d="M2 8a5 5 0 0 0 4.6-6.964a5 5 0 1 1-5.2 6.929Q1.697 8 2 8"/></symbol><symbol id="hd-icon-garden-moon-fill-16" viewBox="0 0 16 16"><path fill="currentColor" d="M3 10a7 7 0 0 0 6.773-8.773a7 7 0 1 1-8.547 8.547A7 7 0 0 0 3 10"/></symbol><symbol id="hd-icon-garden-moon-stroke-12" viewBox="0 0 12 12"><path fill="none" stroke="currentColor" d="M6 10.5a4.5 4.5 0 0 1-3.746-2.006a5.5 5.5 0 0 0 5.093-6.79A4.5 4.5 0 0 1 6 10.5Z"/></symbol><symbol id="hd-icon-garden-moon-stroke-16" viewBox="0 0 16 16"><path fill="none" stroke="currentColor" d="M3 10.5a7.5 7.5 0 0 0 7.43-8.53A6.502 6.502 0 0 1 8 14.5a6.5 6.5 0 0 1-6.03-4.07q.505.07 1.03.07Z"/></symbol><symbol id="hd-icon-garden-multiline-fill-12" viewBox="0 0 12 12"><path fill="none" stroke="currentColor" stroke-linecap="round" stroke-width="2" d="M2 4h8M2 1h8M2 7h8m-8 3h3.5"/></symbol><symbol id="hd-icon-garden-multiline-fill-16" viewBox="0 0 16 16"><path fill="none" stroke="currentColor" stroke-linecap="round" stroke-width="2" d="M2 6h12M2 2h12M2 10h12M2 14h6"/></symbol><symbol id="hd-icon-garden-multiline-stroke-12" viewBox="0 0 12 12"><path fill="none" stroke="currentColor" stroke-linecap="round" d="M1.5 4.5h9m-9-3h9m-9 6h9m-9 3h4"/></symbol><symbol id="hd-icon-garden-multiline-stroke-16" viewBox="0 0 16 16"><path fill="none" stroke="currentColor" stroke-linecap="round" d="M1.5 6.5h13m-13-4h13m-13 8h13m-13 4h6"/></symbol><symbol id="hd-icon-garden-new-window-fill-12" viewBox="0 0 12 12"><path fill="none" stroke="currentColor" stroke-linecap="round" d="M10.5 8.5V10c0 .28-.22.5-.5.5H2c-.28 0-.5-.22-.5-.5V2c0-.28.22-.5.5-.5h1.5M6 6l4-4"/><path fill="currentColor" d="M10.5 6.5a.47.47 0 0 1-.35-.15l-4.5-4.5a.47.47 0 0 1-.11-.54C5.62 1.12 5.8 1 6 1h4c.55 0 1 .45 1 1v4c0 .2-.12.38-.31.46c-.06.03-.13.04-.19.04"/></symbol><symbol id="hd-icon-garden-new-window-fill-16" viewBox="0 0 16 16"><path fill="none" stroke="currentColor" stroke-linecap="round" stroke-width="1.25" d="M14.5 10.5V14c0 .28-.22.5-.5.5H2c-.28 0-.5-.22-.5-.5V2c0-.28.22-.5.5-.5h3.5M8 8l4-4"/><path fill="currentColor" d="M15 7.29V2c0-.55-.45-1-1-1H8.71a.5.5 0 0 0-.36.85l5.79 5.79c.32.32.86.1.86-.35"/></symbol><symbol id="hd-icon-garden-new-window-stroke-12" viewBox="0 0 12 12"><path fill="none" stroke="currentColor" stroke-linecap="round" d="M10.5 8.5V10c0 .3-.2.5-.5.5H2c-.3 0-.5-.2-.5-.5V2c0-.3.2-.5.5-.5h1.5M6 6l4-4m-3.5-.5H10c.3 0 .5.2.5.5v3.5"/></symbol><symbol id="hd-icon-garden-new-window-stroke-16" viewBox="0 0 16 16"><path fill="none" stroke="currentColor" stroke-linecap="round" stroke-linejoin="round" d="M14.5 10.5V14c0 .3-.2.5-.5.5H2c-.3 0-.5-.2-.5-.5V2c0-.3.2-.5.5-.5h3.5"/><path fill="none" stroke="currentColor" stroke-linecap="round" d="m8 8l6.5-6.5"/><path fill="none" stroke="currentColor" stroke-linecap="round" stroke-linejoin="round" d="M8.5 1.5h6v6"/></symbol><symbol id="hd-icon-garden-notes-fill-12" viewBox="0 0 12 12"><path fill="currentColor" d="M9.46 6.24a.48.48 0 0 1-.32.15L6 6.56A.51.51 0 0 1 5.44 6l.17-3.17a.48.48 0 0 1 .15-.32L7.29 1H1.5a.5.5 0 0 0-.5.5v9a.5.5 0 0 0 .5.5h9a.5.5 0 0 0 .5-.5V4.71zm-1.04-.82L7 5.5a.48.48 0 0 1-.5-.5l.08-1.42a.48.48 0 0 1 .13-.32L9.84.14a.46.46 0 0 1 .67 0l1.35 1.35a.46.46 0 0 1 0 .67L8.74 5.29a.48.48 0 0 1-.32.13"/></symbol><symbol id="hd-icon-garden-notes-fill-16" viewBox="0 0 16 16"><path fill="currentColor" d="M12.13 8.37a.47.47 0 0 1-.33.14l-3.93.14a.5.5 0 0 1-.52-.52l.14-3.93a.47.47 0 0 1 .14-.33L10.5 1h-9a.5.5 0 0 0-.5.5v13a.5.5 0 0 0 .5.5h13a.5.5 0 0 0 .5-.5v-9zm-.94-.94L9 7.5a.51.51 0 0 1-.5-.5l.07-2.16a.54.54 0 0 1 .16-.35L13 .15a.52.52 0 0 1 .73 0l2.08 2.08a.52.52 0 0 1 0 .73l-4.27 4.31a.54.54 0 0 1-.35.16"/></symbol><symbol id="hd-icon-garden-notes-stroke-12" viewBox="0 0 12 12"><g fill="none" stroke="currentColor"><path stroke-linejoin="round" d="M7.74 6.38L5.5 6.5l.12-2.24L9.38.5l2.12 2.12z"/><path stroke-linecap="round" d="M5.59 1.5H1.91a.41.41 0 0 0-.41.41v8.18a.41.41 0 0 0 .41.41h8.18a.41.41 0 0 0 .41-.41V6.41"/></g></symbol><symbol id="hd-icon-garden-notes-stroke-16" viewBox="0 0 16 16"><g fill="none" stroke="currentColor"><path stroke-linejoin="round" d="m10.51 8.4l-3.01.1l.1-3.01L12.59.5l2.91 2.91z"/><path stroke-linecap="round" d="M7.41 1.5H2.09a.58.58 0 0 0-.59.59v11.82a.58.58 0 0 0 .59.59h11.82a.58.58 0 0 0 .59-.59V8.59"/></g></symbol><symbol id="hd-icon-garden-notification-fill-12" viewBox="0 0 12 12"><path fill="currentColor" d="M10.46 9H1.54a1 1 0 0 1-.99-1.13c.17-1.26.69-2.07 1.47-2.3C2.1 4.18 2.63 0 6 0s3.9 4.18 3.98 5.57c.77.23 1.3 1.04 1.47 2.3c.04.29-.05.58-.24.79s-.46.34-.75.34M6 12c1.1 0 2-.9 2-2H4c0 1.1.9 2 2 2"/></symbol><symbol id="hd-icon-garden-notification-fill-16" viewBox="0 0 16 16"><path fill="currentColor" d="M8 0C6.53 0 5.3.52 4.32 1.56c-2 2.12-2.3 5.86-2.33 7.59C.55 9.6 0 11 0 12c0 .55.45 1 1 1h14c.55 0 1-.45 1-1c0-1-.55-2.4-1.99-2.85c-.03-1.73-.33-5.47-2.33-7.59C10.7.52 9.47 0 8 0m0 16c1.1 0 2-.9 2-2H6c0 1.1.9 2 2 2"/></symbol><symbol id="hd-icon-garden-notification-stroke-12" viewBox="0 0 12 12"><path fill="none" stroke="currentColor" stroke-linejoin="round" d="M9.5 6S9.5.5 6 .5S2.5 6 2.5 6C1.46 6 1.14 7.19 1.04 7.93c-.04.3.2.57.5.57h8.92c.3 0 .54-.27.5-.57C10.86 7.19 10.54 6 9.5 6zm-5 3c0 .83.67 1.5 1.5 1.5S7.5 9.83 7.5 9"/></symbol><symbol id="hd-icon-garden-notification-stroke-16" viewBox="0 0 16 16"><path fill="none" stroke="currentColor" stroke-linejoin="round" d="M13.5 9.5s0-9-5.5-9s-5.5 9-5.5 9C.65 9.5.44 11.15.46 12c.01.28.22.5.5.5h14.08c.28 0 .49-.22.5-.5c.02-.85-.19-2.5-2.04-2.5zm-7 3.5c0 .83.67 1.5 1.5 1.5s1.5-.67 1.5-1.5"/></symbol><symbol id="hd-icon-garden-number-fill-12" viewBox="0 0 12 12"><path fill="currentColor" stroke="currentColor" stroke-linecap="round" stroke-width="2" d="M1.5 4H11M1 8h9.5M9 1L7 11M5 1L3 11"/></symbol><symbol id="hd-icon-garden-number-fill-16" viewBox="0 0 16 16"><path fill="currentColor" stroke="currentColor" stroke-linecap="round" stroke-width="2" d="M2.5 5.5h12m-13 5h12m-1.5-9l-3 13m-2-13l-3 13"/></symbol><symbol id="hd-icon-garden-number-stroke-12" viewBox="0 0 12 12"><path fill="currentColor" stroke="currentColor" stroke-linecap="round" d="M1.5 4.5H11m-10 3h9.5M8.5 1l-2 10m-1-10l-2 10"/></symbol><symbol id="hd-icon-garden-number-stroke-16" viewBox="0 0 16 16"><path fill="currentColor" stroke="currentColor" stroke-linecap="round" d="M2.1 5.5H15m-14.1 5h13m-1.9-9l-3 13m-2-13l-3 13"/></symbol><symbol id="hd-icon-garden-organization-26" viewBox="0 0 26 26"><path fill="none" stroke="currentColor" stroke-linecap="round" stroke-linejoin="round" stroke-width="2" d="M15 23v-8h-4v8H6.9c-.5 0-.9-.4-.9-.9V3.9c0-.5.4-.9.9-.9h12.2c.5 0 .9.4.9.9v18.2c0 .5-.4.9-.9.9zM10 7h6m-6 3h6"/></symbol><symbol id="hd-icon-garden-original-size-fill-12" viewBox="0 0 12 12"><path fill="currentColor" d="M4 1c.552 0 1 .45 1 1s-.45 1-1 1H3v1c0 .55-.45 1-1 1s-1-.45-1-1V2c0-.55.45-1 1-1zm4 0c-.552 0-1 .45-1 1s.45 1 1 1h1v1c0 .55.45 1 1 1s1-.45 1-1V2c0-.55-.45-1-1-1zM7 5H5a1 1 0 1 0 0 2h2a1 1 0 1 0 0-2m-3 6c.552 0 1-.45 1-1s-.45-1-1-1H3V8c0-.55-.45-1-1-1s-1 .45-1 1v2c0 .55.45 1 1 1zm4 0c-.552 0-1-.45-1-1s.45-1 1-1h1V8c0-.55.45-1 1-1s1 .45 1 1v2c0 .55-.45 1-1 1z"/></symbol><symbol id="hd-icon-garden-original-size-fill-16" viewBox="0 0 16 16"><path fill="currentColor" d="M12 15c-.552 0-1-.45-1-1s.45-1 1-1h1v-1c0-.55.45-1 1-1s1 .45 1 1v2c0 .55-.45 1-1 1zm-8 0c.552 0 1-.45 1-1s-.45-1-1-1H3v-1c0-.55-.45-1-1-1s-1 .45-1 1v2c0 .55.45 1 1 1zm7-10H5a1 1 0 0 0-1 1v4a1 1 0 0 0 1 1h6a1 1 0 0 0 1-1V6a1 1 0 0 0-1-1m1-4c-.552 0-1 .45-1 1s.45 1 1 1h1v1c0 .55.45 1 1 1s1-.45 1-1V2c0-.55-.45-1-1-1zM4 1c.552 0 1 .45 1 1s-.45 1-1 1H3v1c0 .55-.45 1-1 1s-1-.45-1-1V2c0-.55.45-1 1-1z"/></symbol><symbol id="hd-icon-garden-original-size-stroke-12" viewBox="0 0 12 12"><path fill="currentColor" d="M10.5 8c-.28 0-.5.22-.5.5V10H8.5c-.28 0-.5.22-.5.5s.25.5.5.5h2c.245 0 .5-.22.5-.5v-2a.5.5 0 0 0-.5-.5m-9 0c.28 0 .5.22.5.5V10h1.5c.28 0 .5.22.5.5s-.25.5-.5.5h-2c-.245 0-.5-.22-.5-.5v-2a.5.5 0 0 1 .5-.5M8 5v2H4V5zm0-1H4a1 1 0 0 0-1 1v2a1 1 0 0 0 1 1h4a1 1 0 0 0 1-1V5a1 1 0 0 0-1-1m2.5 0c-.28 0-.5-.22-.5-.5V2H8.5c-.28 0-.5-.22-.5-.5s.25-.5.5-.5h2c.245 0 .5.22.5.5v2a.5.5 0 0 1-.5.5m-9 0c.28 0 .5-.22.5-.5V2h1.5c.28 0 .5-.22.5-.5S3.75 1 3.5 1h-2c-.245 0-.5.22-.5.5v2a.5.5 0 0 0 .5.5"/></symbol><symbol id="hd-icon-garden-original-size-stroke-16" viewBox="0 0 16 16"><path fill="currentColor" d="M14.5 11c-.28 0-.5.22-.5.5V13h-1.5c-.28 0-.5.22-.5.5s.25.5.5.5h2c.245 0 .5-.22.5-.5v-2a.5.5 0 0 0-.5-.5m-13 0c.28 0 .5.22.5.5V13h1.5c.28 0 .5.22.5.5s-.25.5-.5.5h-2c-.245 0-.5-.22-.5-.5v-2a.5.5 0 0 1 .5-.5M12 4H4a1 1 0 0 0-1 1v5a1 1 0 0 0 1 1h8a1 1 0 0 0 1-1V5a1 1 0 0 0-1-1m0 1v5H4V5zm2.5-1c-.28 0-.5-.22-.5-.5V2h-1.5c-.28 0-.5-.22-.5-.5s.25-.5.5-.5h2c.245 0 .5.22.5.5v2a.5.5 0 0 1-.5.5m-13 0c.28 0 .5-.22.5-.5V2h1.5c.28 0 .5-.22.5-.5S3.75 1 3.5 1h-2c-.245 0-.5.22-.5.5v2a.5.5 0 0 0 .5.5"/></symbol><symbol id="hd-icon-garden-overflow-fill-12" viewBox="0 0 12 12"><g fill="currentColor"><circle cx="1.5" cy="6" r="1.5"/><circle cx="10.5" cy="6" r="1.5"/><circle cx="6" cy="6" r="1.5"/></g></symbol><symbol id="hd-icon-garden-overflow-fill-16" viewBox="0 0 16 16"><g fill="currentColor"><circle cx="2" cy="8" r="2"/><circle cx="8" cy="8" r="2"/><circle cx="14" cy="8" r="2"/></g></symbol><symbol id="hd-icon-garden-overflow-stroke-12" viewBox="0 0 12 12"><g fill="currentColor"><circle cx="2" cy="6" r="1"/><circle cx="10" cy="6" r="1"/><circle cx="6" cy="6" r="1"/></g></symbol><symbol id="hd-icon-garden-overflow-stroke-16" viewBox="0 0 16 16"><g fill="currentColor"><circle cx="2.5" cy="8" r="1.5"/><circle cx="8" cy="8" r="1.5"/><circle cx="13.5" cy="8" r="1.5"/></g></symbol><symbol id="hd-icon-garden-overflow-vertical-fill-12" viewBox="0 0 12 12"><path fill="currentColor" d="M7.5 1.5a1.5 1.5 0 1 1-3 0a1.5 1.5 0 0 1 3 0m0 9a1.5 1.5 0 1 1-3 0a1.5 1.5 0 0 1 3 0m0-4.5a1.5 1.5 0 1 1-3 0a1.5 1.5 0 0 1 3 0"/></symbol><symbol id="hd-icon-garden-overflow-vertical-fill-16" viewBox="0 0 16 16"><path fill="currentColor" d="M8 12a2 2 0 1 1 0 4a2 2 0 0 1 0-4m0-6a2 2 0 1 1 0 4a2 2 0 0 1 0-4m0-6a2 2 0 1 1 0 4a2 2 0 0 1 0-4"/></symbol><symbol id="hd-icon-garden-overflow-vertical-stroke-12" viewBox="0 0 12 12"><path fill="currentColor" d="M7 2a1 1 0 1 1-2 0a1 1 0 0 1 2 0m0 8a1 1 0 1 1-2 0a1 1 0 0 1 2 0m0-4a1 1 0 1 1-2 0a1 1 0 0 1 2 0"/></symbol><symbol id="hd-icon-garden-overflow-vertical-stroke-16" viewBox="0 0 16 16"><path fill="currentColor" d="M9.5 2.5a1.5 1.5 0 1 1-3 0a1.5 1.5 0 0 1 3 0m0 5.5a1.5 1.5 0 1 1-3 0a1.5 1.5 0 0 1 3 0m0 5.5a1.5 1.5 0 1 1-3 0a1.5 1.5 0 0 1 3 0"/></symbol><symbol id="hd-icon-garden-palette-fill-12" viewBox="0 0 12 12"><path fill="currentColor" d="M.736 3.322C2.368.426 5.903-.812 8.634.56c1.646.827 2.307 2.72 1.536 4.297l-.089.168l-.58 1.029a.94.94 0 0 0-.104.651a1 1 0 0 0 .54.688c.079.047.18.078.294.103l.118.024l.435.072l.182.037c.513.119 1 .377 1.032 1.23q.005.127-.012.249c-.106.813-.877 1.41-1.66 1.82l-.167.084l-.276.13l-.263.112l-.247.098l-.422.154c-1.737.605-3.798.764-5.609-.146C.272 9.818-.895 6.22.736 3.322M7 4a1 1 0 1 0 0-2a1 1 0 0 0 0 2M4 5a1 1 0 1 0 0-2a1 1 0 0 0 0 2M3 8a1 1 0 1 0 0-2a1 1 0 0 0 0 2"/></symbol><symbol id="hd-icon-garden-palette-fill-16" viewBox="0 0 16 16"><path fill="currentColor" d="M11.511.745c2.207 1.108 3.086 3.654 2.032 5.763l-.102.19l-.772 1.372a1.25 1.25 0 0 0-.14.869c.078.378.33.722.719.917c.106.062.24.104.393.138l.157.031l.58.096l.242.05c.684.158 1.334.502 1.376 1.64a2 2 0 0 1-.015.332c-.144 1.097-1.195 1.897-2.25 2.445l-.186.094l-.369.172l-.35.15l-.33.131l-.562.205c-2.315.806-5.062 1.019-7.477-.194C.363 13.09-1.193 8.292.983 4.43C3.158.568 7.871-1.083 11.511.745M4.5 8a1.5 1.5 0 1 0 0 3a1.5 1.5 0 0 0 0-3m1-4a1.5 1.5 0 1 0 0 3a1.5 1.5 0 0 0 0-3m4-1a1.5 1.5 0 1 0 0 3a1.5 1.5 0 0 0 0-3"/></symbol><symbol id="hd-icon-garden-palette-stroke-12" viewBox="0 0 12 12"><path fill="currentColor" d="M.736 3.322C2.368.426 5.903-.812 8.634.56c1.646.827 2.307 2.72 1.536 4.297l-.089.168l-.58 1.029a.94.94 0 0 0-.104.651a1 1 0 0 0 .54.688c.079.047.18.078.294.103l.118.024l.435.072l.182.037c.513.119 1 .377 1.032 1.23q.005.127-.012.249c-.106.813-.877 1.41-1.66 1.82l-.167.084l-.276.13l-.263.112l-.247.098l-.422.154c-1.737.605-3.798.764-5.609-.146C.272 9.818-.895 6.22.736 3.322m7.449-1.87C5.948.33 2.985 1.367 1.607 3.814C.26 6.205 1.223 9.177 3.791 10.466c1.309.657 2.906.693 4.516.198l.302-.1l.395-.142l.222-.088l.232-.099l.26-.12c.786-.388 1.233-.806 1.277-1.138l.003-.04v-.042c-.007-.186-.005-.224-.112-.257l-.12-.03l-.144-.03l-.45-.075c-.298-.054-.517-.117-.685-.217a2 2 0 0 1-1.07-1.382a1.93 1.93 0 0 1 .134-1.184l.08-.158l.58-1.029c.621-1.104.176-2.477-1.026-3.08zM7 2a1 1 0 1 1 0 2a1 1 0 0 1 0-2M4 3a1 1 0 1 1 0 2a1 1 0 0 1 0-2M3 6a1 1 0 1 1 0 2a1 1 0 0 1 0-2"/></symbol><symbol id="hd-icon-garden-palette-stroke-16" viewBox="0 0 16 16"><path fill="currentColor" d="M.983 4.43C3.158.568 7.871-1.083 11.511.745c2.207 1.108 3.086 3.654 2.032 5.763l-.102.19l-.772 1.372a1.25 1.25 0 0 0-.14.869c.078.378.33.722.719.917c.106.062.24.104.393.138l.157.031l.58.096l.242.05c.684.158 1.334.502 1.376 1.64a2 2 0 0 1-.015.332c-.144 1.097-1.195 1.897-2.25 2.445l-.186.094l-.369.172l-.35.15l-.33.131l-.562.205c-2.315.806-5.062 1.019-7.477-.194C.363 13.09-1.193 8.292.983 4.43m10.08-2.79C7.916.058 3.776 1.507 1.854 4.92c-1.89 3.358-.539 7.53 3.052 9.332c1.854.932 4.107.97 6.364.255l.323-.107l.535-.195l.304-.12l.32-.136l.351-.164c1.14-.56 1.81-1.187 1.886-1.772a1 1 0 0 0 .008-.165c-.017-.446-.11-.573-.471-.672l-.106-.026l-.204-.043l-.595-.098c-.301-.054-.533-.116-.717-.203l-.105-.056a2.33 2.33 0 0 1-1.25-1.612a2.25 2.25 0 0 1 .156-1.375l.093-.183l.772-1.372c.924-1.64.263-3.68-1.507-4.569zM9.5 3a1.5 1.5 0 1 1 0 3a1.5 1.5 0 0 1 0-3m0 1a.5.5 0 1 0 0 1a.5.5 0 0 0 0-1m-5 4a1.5 1.5 0 1 1 0 3a1.5 1.5 0 0 1 0-3m0 1a.5.5 0 1 0 0 1a.5.5 0 0 0 0-1m1-5a1.5 1.5 0 1 1 0 3a1.5 1.5 0 0 1 0-3m0 1a.5.5 0 1 0 0 1a.5.5 0 0 0 0-1"/></symbol><symbol id="hd-icon-garden-panels-fill-12" viewBox="0 0 12 12"><path fill="currentColor" d="M5 0H2c-.6 0-1 .4-1 1v7h4zm1 3h5V1c0-.6-.4-1-1-1H6zm0 9h4c.6 0 1-.4 1-1V4H6zM5 9H1v2c0 .6.4 1 1 1h3z"/></symbol><symbol id="hd-icon-garden-panels-fill-16" viewBox="0 0 16 16"><path fill="currentColor" d="M8 4h7V1c0-.6-.4-1-1-1H8zm0 1v11h6c.6 0 1-.4 1-1V5zm6 10.5V15zM7 11V0H2c-.6 0-1 .4-1 1v10zm0 1H1v3c0 .6.4 1 1 1h5z"/></symbol><symbol id="hd-icon-garden-panels-stroke-12" viewBox="0 0 12 12"><path fill="none" stroke="currentColor" stroke-linejoin="round" d="M10 11.5H2c-.3 0-.5-.2-.5-.5V1c0-.3.2-.5.5-.5h8c.3 0 .5.2.5.5v10c0 .3-.2.5-.5.5zM5.5.5v11m-4-3h4m0-5h5"/></symbol><symbol id="hd-icon-garden-panels-stroke-16" viewBox="0 0 16 16"><path fill="none" stroke="currentColor" stroke-linejoin="round" d="M14 15.5H2c-.3 0-.5-.2-.5-.5V1c0-.3.2-.5.5-.5h12c.3 0 .5.2.5.5v14c0 .3-.2.5-.5.5zM7.5.5v15m-6-4h6m0-7h7"/></symbol><symbol id="hd-icon-garden-paperclip-12" viewBox="0 0 12 12"><path fill="none" stroke="currentColor" stroke-linecap="round" d="M2.5 4v4.5c0 1.7 1.3 3 3 3s3-1.3 3-3v-6c0-1.1-.9-2-2-2s-2 .9-2 2v6c0 .6.4 1 1 1s1-.4 1-1V4"/></symbol><symbol id="hd-icon-garden-paperclip-16" viewBox="0 0 16 16"><path fill="none" stroke="currentColor" stroke-linecap="round" d="M9.5 4v7.7c0 .8-.7 1.5-1.5 1.5s-1.5-.7-1.5-1.5V3C6.5 1.6 7.6.5 9 .5s2.5 1.1 2.5 2.5v9c0 1.9-1.6 3.5-3.5 3.5S4.5 13.9 4.5 12V4"/></symbol><symbol id="hd-icon-garden-parentheses-fill-12" viewBox="0 0 12 12"><path fill="currentColor" d="M2.29 10.8c.093.131.233.22.39.258c.632.154 1.207-.615.957-1.217c-.486-1.176-.9-2.64-.9-3.846s.409-2.664.892-3.832c.247-.597-.33-1.372-.957-1.22a.65.65 0 0 0-.379.25C1.419 2.415 1 4.069 1 5.995c0 1.898.414 3.556 1.29 4.805m7.031.258a.66.66 0 0 0 .388-.258C10.582 9.55 11 7.893 11 5.995c0-1.925-.423-3.575-1.293-4.8a.65.65 0 0 0-.38-.252C8.7.79 8.124 1.565 8.37 2.162c.482 1.168.888 2.627.888 3.833c0 1.205-.41 2.67-.896 3.846c-.248.6.327 1.37.958 1.218"/></symbol><symbol id="hd-icon-garden-parentheses-fill-16" viewBox="0 0 16 16"><path fill="currentColor" d="M2.498 14.487c.188.327.544.513.921.513c.895 0 1.482-1.026 1.151-1.857C3.979 11.659 3.5 9.766 3.5 8c0-1.753.477-3.653 1.067-5.139C4.897 2.031 4.308 1 3.414 1c-.374 0-.727.184-.915.508C1.475 3.275 1 5.438 1 7.996c0 2.551.474 4.713 1.498 6.491M12.581 15c.377 0 .733-.186.92-.513C14.527 12.71 15 10.547 15 7.997c0-2.56-.475-4.722-1.499-6.49A1.05 1.05 0 0 0 12.586 1c-.894 0-1.49 1.034-1.173 1.87c.56 1.484.995 3.377.995 5.126c0 1.763-.436 3.653-.999 5.137c-.317.837.277 1.867 1.172 1.867"/></symbol><symbol id="hd-icon-garden-parentheses-stroke-12" viewBox="0 0 12 12"><path fill="currentColor" d="M2.375 10.819c.084.115.22.181.363.181c.382 0 .623-.457.461-.803c-.52-1.112-.874-2.72-.874-4.2c0-1.47.353-3.083.872-4.193c.162-.346-.08-.804-.461-.804a.44.44 0 0 0-.36.18C1.435 2.473 1 4.08 1 5.996c0 1.912.434 3.517 1.375 4.822M9.262 11a.45.45 0 0 0 .363-.181C10.565 9.514 11 7.909 11 5.997c0-1.917-.435-3.523-1.376-4.818A.44.44 0 0 0 9.264 1c-.381 0-.623.458-.46.804c.518 1.11.871 2.723.871 4.193c0 1.48-.354 3.088-.874 4.2c-.162.346.079.803.461.803"/></symbol><symbol id="hd-icon-garden-parentheses-stroke-16" viewBox="0 0 16 16"><path fill="currentColor" d="M2.56 14.79a.45.45 0 0 0 .385.21c.37 0 .606-.422.455-.76c-.65-1.444-1.098-3.698-1.098-5.74c0-2.03.449-4.293 1.098-5.74c.151-.338-.085-.76-.455-.76a.45.45 0 0 0-.384.21C1.492 3.932 1 6.008 1 8.5s.492 4.562 1.56 6.29m9.5.21a.45.45 0 0 0 .385-.212C13.508 13.061 14 10.992 14 8.5s-.487-4.568-1.555-6.29a.45.45 0 0 0-.384-.21c-.37 0-.606.422-.455.76c.65 1.447 1.098 3.71 1.098 5.74c0 2.042-.449 4.297-1.098 5.741c-.151.337.085.759.454.759"/></symbol><symbol id="hd-icon-garden-pause-fill-12" viewBox="0 0 12 12"><g fill="currentColor"><rect width="3" height="10" x="2" y="1" rx="1" ry="1"/><rect width="3" height="10" x="7" y="1" rx="1" ry="1"/></g></symbol><symbol id="hd-icon-garden-pause-fill-16" viewBox="0 0 16 16"><g fill="currentColor"><rect width="4" height="14" x="3" y="1" rx="1" ry="1"/><rect width="4" height="14" x="9" y="1" rx="1" ry="1"/></g></symbol><symbol id="hd-icon-garden-pause-stroke-12" viewBox="0 0 12 12"><path fill="none" stroke="currentColor" stroke-linecap="round" stroke-width="2" d="M4 2v8m4-8v8"/></symbol><symbol id="hd-icon-garden-pause-stroke-16" viewBox="0 0 16 16"><path fill="none" stroke="currentColor" stroke-linecap="round" stroke-width="2" d="M5 2v12m6-12v12"/></symbol><symbol id="hd-icon-garden-pencil-fill-12" viewBox="0 0 12 12"><path fill="currentColor" d="M6.7 2.59L.15 9.15A.47.47 0 0 0 0 9.5v2c0 .28.22.5.5.5h2c.13 0 .26-.05.35-.15L9.41 5.3zm4.8-.8L10.21.5A.996.996 0 0 0 8.8.5L7.6 1.7l2.71 2.71l1.2-1.2c.38-.39.38-1.03-.01-1.42"/></symbol><symbol id="hd-icon-garden-pencil-fill-16" viewBox="0 0 16 16"><path fill="currentColor" d="m10.04 2.75l-9.9 9.9A.5.5 0 0 0 0 13v2.5c0 .28.22.5.5.5H3c.13 0 .26-.05.35-.15l9.9-9.9zm5.46-.46L13.71.5a.996.996 0 0 0-1.41 0l-1.54 1.54l3.21 3.21l1.54-1.54c.38-.39.38-1.03-.01-1.42"/></symbol><symbol id="hd-icon-garden-pencil-stroke-12" viewBox="0 0 12 12"><path fill="none" stroke="currentColor" stroke-linejoin="round" d="M.5 11.5v-2L9.1.9c.2-.2.5-.2.7 0l1.3 1.3c.2.2.2.5 0 .7l-8.6 8.6zm7-9l2 2"/></symbol><symbol id="hd-icon-garden-pencil-stroke-16" viewBox="0 0 16 16"><path fill="none" stroke="currentColor" stroke-linejoin="round" d="M.5 15.5V13L12.6.9c.2-.2.5-.2.7 0l1.8 1.8c.2.2.2.5 0 .7L3 15.5zM11 3l2 2"/></symbol><symbol id="hd-icon-garden-person-26" viewBox="0 0 26 26"><g fill="currentColor"><circle cx="13" cy="9" r="4"/><path d="M7.019 21c-.613 0-1.105-.538-1.007-1.136C6.561 16.538 9.481 14 13 14s6.439 2.538 6.987 5.864c.099.598-.394 1.136-1.006 1.136z"/></g></symbol><symbol id="hd-icon-garden-phone-call-end-fill-12" viewBox="0 0 12 12"><path fill="currentColor" d="M4 6h4v1a1 1 0 0 0 1 1h2a1 1 0 0 0 1-1V6a3 3 0 0 0-3-3H3a3 3 0 0 0-3 3v1a1 1 0 0 0 1 1h2a1 1 0 0 0 1-1z"/></symbol><symbol id="hd-icon-garden-phone-call-end-fill-16" viewBox="0 0 16 16"><path fill="currentColor" d="M6 8v2a1 1 0 0 1-1 1H1a1 1 0 0 1-1-1V8a4 4 0 0 1 4-4h8a4 4 0 0 1 4 4v2a1 1 0 0 1-1 1h-4a1 1 0 0 1-1-1V8z"/></symbol><symbol id="hd-icon-garden-phone-call-end-stroke-12" viewBox="0 0 12 12"><path fill="currentColor" d="M4 6h4v1a1 1 0 0 0 1 1h2a1 1 0 0 0 1-1V6a3 3 0 0 0-3-3H3a3 3 0 0 0-3 3v1a1 1 0 0 0 1 1h2a1 1 0 0 0 1-1zM3 7H1V6a2 2 0 0 1 2-2h6a2 2 0 0 1 2 2v1H9V5H3z"/></symbol><symbol id="hd-icon-garden-phone-call-end-stroke-16" viewBox="0 0 16 16"><path fill="currentColor" d="M6 8v2a1 1 0 0 1-1 1H1a1 1 0 0 1-1-1V8a4 4 0 0 1 4-4h8a4 4 0 0 1 4 4v2a1 1 0 0 1-1 1h-4a1 1 0 0 1-1-1V8zM4 5a3 3 0 0 0-3 3v2h4V7h6v3h4V8a3 3 0 0 0-3-3z"/></symbol><symbol id="hd-icon-garden-phone-call-in-fill-12" viewBox="0 0 12 12"><path fill="currentColor" d="m7 7.586l.293-.293a1 1 0 0 1 1.414 0l2 2a1 1 0 0 1 0 1.414l-.232.232a3.5 3.5 0 0 1-4.95 0L1.061 6.475a3.5 3.5 0 0 1 0-4.95l.232-.232a1 1 0 0 1 1.414 0l2 2a1 1 0 0 1 0 1.414L4.414 5zM11.5 5H8c-.55 0-1-.45-1-1V.5c0-.2.12-.38.31-.46s.4-.04.54.11l4 4c.15.14.19.35.11.54S11.7 5 11.5 5"/></symbol><symbol id="hd-icon-garden-phone-call-in-fill-16" viewBox="0 0 16 16"><path fill="currentColor" d="M10.293 10.293a1 1 0 0 1 1.414 0l2 2a1 1 0 0 1 0 1.414l-1.232 1.232a3.5 3.5 0 0 1-4.95 0L1.061 8.475a3.5 3.5 0 0 1 0-4.95l1.232-1.232a1 1 0 0 1 1.414 0l2 2a1 1 0 0 1 0 1.414L4.414 7L9 11.586zM15.5 7H10c-.55 0-1-.45-1-1V.5c0-.2.12-.38.31-.46s.4-.04.54.11l6 6c.15.14.19.35.11.54S15.7 7 15.5 7"/></symbol><symbol id="hd-icon-garden-phone-call-in-stroke-12" viewBox="0 0 12 12"><path fill="currentColor" d="m2.707 1.293l2 2a1 1 0 0 1 0 1.414L4.414 5L7 7.586l.293-.293a1 1 0 0 1 1.414 0l2 2a1 1 0 0 1 0 1.414l-.232.232a3.5 3.5 0 0 1-4.95 0L1.061 6.475a3.5 3.5 0 0 1 0-4.95l.232-.232a1 1 0 0 1 1.414 0M2 2l-.232.232a2.5 2.5 0 0 0 0 3.536l4.464 4.464a2.5 2.5 0 0 0 3.536 0L10 10L8 8L7 9L3 5l1-1zm5.5-2a.5.5 0 0 1 .492.41L8 .5V4h3.5a.5.5 0 0 1 .492.41L12 4.5a.5.5 0 0 1-.41.492L11.5 5h-4a.5.5 0 0 1-.492-.41L7 4.5v-4a.5.5 0 0 1 .5-.5"/></symbol><symbol id="hd-icon-garden-phone-call-in-stroke-16" viewBox="0 0 16 16"><path fill="currentColor" d="M9.999 5.997h5.5a.5.5 0 1 1 0 1h-6a.5.5 0 0 1-.5-.5V.5a.5.5 0 0 1 1 0zM3.707 2.293l2 2a1 1 0 0 1 0 1.414L4.414 7L9 11.586l1.293-1.293a1 1 0 0 1 1.414 0l2 2a1 1 0 0 1 0 1.414l-1.232 1.232a3.5 3.5 0 0 1-4.95 0L1.061 8.475a3.5 3.5 0 0 1 0-4.95l1.232-1.232a1 1 0 0 1 1.414 0M3 3L1.768 4.232a2.5 2.5 0 0 0 0 3.536l6.464 6.464a2.5 2.5 0 0 0 3.536 0L13 13l-2-2l-2 2l-6-6l2-2z"/></symbol><symbol id="hd-icon-garden-phone-call-out-fill-12" viewBox="0 0 12 12"><path fill="currentColor" d="m7 7.586l.293-.293a1 1 0 0 1 1.414 0l2 2a1 1 0 0 1 0 1.414l-.232.232a3.5 3.5 0 0 1-4.95 0L1.061 6.475a3.5 3.5 0 0 1 0-4.95l.232-.232a1 1 0 0 1 1.414 0l2 2a1 1 0 0 1 0 1.414L4.414 5zm3.5-.591a.47.47 0 0 1-.35-.15l-5-4.996a.47.47 0 0 1-.11-.54A.5.5 0 0 1 5.5 1H10c.55 0 1 .45 1 1v4.495c0 .2-.12.38-.31.46c-.06.03-.13.04-.19.04"/></symbol><symbol id="hd-icon-garden-phone-call-out-fill-16" viewBox="0 0 16 16"><path fill="currentColor" d="M10.293 10.293a1 1 0 0 1 1.414 0l2 2a1 1 0 0 1 0 1.414l-1.232 1.232a3.5 3.5 0 0 1-4.95 0L1.061 8.475a3.5 3.5 0 0 1 0-4.95l1.232-1.232a1 1 0 0 1 1.414 0l2 2a1 1 0 0 1 0 1.414L4.414 7L9 11.586zM13.5 9a.47.47 0 0 1-.35-.15l-6-6a.47.47 0 0 1-.11-.54c.08-.19.26-.31.46-.31H13c.55 0 1 .45 1 1v5.5c0 .2-.12.38-.31.46c-.06.03-.13.04-.19.04"/></symbol><symbol id="hd-icon-garden-phone-call-out-stroke-12" viewBox="0 0 12 12"><path fill="currentColor" d="m2.707 1.293l2 2a1 1 0 0 1 0 1.414L4.414 5L7 7.586l.293-.293a1 1 0 0 1 1.414 0l2 2a1 1 0 0 1 0 1.414l-.232.232a3.5 3.5 0 0 1-4.95 0L1.061 6.475a3.5 3.5 0 0 1 0-4.95l.232-.232a1 1 0 0 1 1.414 0M2 2l-.232.232a2.5 2.5 0 0 0 0 3.536l4.464 4.464a2.5 2.5 0 0 0 3.536 0L10 10L8 8L7 9L3 5l1-1zm8.5-1a.5.5 0 0 1 .492.41L11 1.5v4a.5.5 0 0 1-.992.09L10 5.5V2H6.5a.5.5 0 0 1-.492-.41L6 1.5a.5.5 0 0 1 .41-.492L6.5 1z"/></symbol><symbol id="hd-icon-garden-phone-call-out-stroke-16" viewBox="0 0 16 16"><path fill="currentColor" d="m3.707 2.293l2 2a1 1 0 0 1 0 1.414L4.414 7L9 11.586l1.293-1.293a1 1 0 0 1 1.414 0l2 2a1 1 0 0 1 0 1.414l-1.232 1.232a3.5 3.5 0 0 1-4.95 0L1.061 8.475a3.5 3.5 0 0 1 0-4.95l1.232-1.232a1 1 0 0 1 1.414 0M3 3L1.768 4.232a2.5 2.5 0 0 0 0 3.536l6.464 6.464a2.5 2.5 0 0 0 3.536 0L13 13l-2-2l-2 2l-6-6l2-2zm4.5 0a.5.5 0 0 1 0-1h6a.5.5 0 0 1 .5.5v6a.5.5 0 1 1-1 0V3z"/></symbol><symbol id="hd-icon-garden-phone-call-pause-fill-12" viewBox="0 0 12 12"><path fill="currentColor" d="m2.707 1.293l2 2a1 1 0 0 1 0 1.414L4.414 5L7 7.586l.293-.293a1 1 0 0 1 1.414 0l2 2a1 1 0 0 1 0 1.414l-.232.232a3.5 3.5 0 0 1-4.95 0L1.061 6.475a3.5 3.5 0 0 1 0-4.95l.232-.232a1 1 0 0 1 1.414 0M8.5 0a.5.5 0 0 1 .492.41L9 .5v4a.5.5 0 0 1-.992.09L8 4.5v-4a.5.5 0 0 1 .5-.5m2 0a.5.5 0 0 1 .5.5v4a.5.5 0 1 1-1 0v-4a.5.5 0 0 1 .5-.5"/></symbol><symbol id="hd-icon-garden-phone-call-pause-fill-16" viewBox="0 0 16 16"><path fill="currentColor" d="m3.707 2.293l2 2a1 1 0 0 1 0 1.414L4.414 7L9 11.586l1.293-1.293a1 1 0 0 1 1.414 0l2 2a1 1 0 0 1 0 1.414l-1.232 1.232a3.5 3.5 0 0 1-4.95 0L1.061 8.475a3.5 3.5 0 0 1 0-4.95l1.232-1.232a1 1 0 0 1 1.414 0M13.5 0a.5.5 0 0 1 .492.41L14 .5v5a.5.5 0 0 1-.992.09L13 5.5v-5a.5.5 0 0 1 .5-.5m-3 0a.5.5 0 0 1 .5.5v5a.5.5 0 1 1-1 0v-5a.5.5 0 0 1 .5-.5"/></symbol><symbol id="hd-icon-garden-phone-call-pause-stroke-12" viewBox="0 0 12 12"><path fill="currentColor" d="m2.707 1.293l2 2a1 1 0 0 1 0 1.414L4.414 5L7 7.586l.293-.293a1 1 0 0 1 1.414 0l2 2a1 1 0 0 1 0 1.414l-.232.232a3.5 3.5 0 0 1-4.95 0L1.061 6.475a3.5 3.5 0 0 1 0-4.95l.232-.232a1 1 0 0 1 1.414 0M2 2l-.232.232a2.5 2.5 0 0 0 0 3.536l4.464 4.464a2.5 2.5 0 0 0 3.536 0L10 10L8 8L7 9L3 5l1-1zm6.5-2a.5.5 0 0 1 .492.41L9 .5v4a.5.5 0 0 1-.992.09L8 4.5v-4a.5.5 0 0 1 .5-.5m2 0a.5.5 0 0 1 .5.5v4a.5.5 0 1 1-1 0v-4a.5.5 0 0 1 .5-.5"/></symbol><symbol id="hd-icon-garden-phone-call-pause-stroke-16" viewBox="0 0 16 16"><path fill="currentColor" d="m3.707 2.293l2 2a1 1 0 0 1 0 1.414L4.414 7L9 11.586l1.293-1.293a1 1 0 0 1 1.414 0l2 2a1 1 0 0 1 0 1.414l-1.232 1.232a3.5 3.5 0 0 1-4.95 0L1.061 8.475a3.5 3.5 0 0 1 0-4.95l1.232-1.232a1 1 0 0 1 1.414 0M3 3L1.768 4.232a2.5 2.5 0 0 0 0 3.536l6.464 6.464a2.5 2.5 0 0 0 3.536 0L13 13l-2-2l-2 2l-6-6l2-2zm10.5-3a.5.5 0 0 1 .492.41L14 .5v5a.5.5 0 0 1-.992.09L13 5.5v-5a.5.5 0 0 1 .5-.5m-3 0a.5.5 0 0 1 .5.5v5a.5.5 0 1 1-1 0v-5a.5.5 0 0 1 .5-.5"/></symbol><symbol id="hd-icon-garden-phone-call-speaker-fill-12" viewBox="0 0 12 12"><path fill="currentColor" d="m2.707 1.293l2 2a1 1 0 0 1 0 1.414L4.414 5L7 7.586l.293-.293a1 1 0 0 1 1.414 0l2 2a1 1 0 0 1 0 1.414l-.232.232a3.5 3.5 0 0 1-4.95 0L1.061 6.475a3.5 3.5 0 0 1 0-4.95l.232-.232a1 1 0 0 1 1.414 0M2 2l-.232.232a2.5 2.5 0 0 0 0 3.536l4.464 4.464a2.5 2.5 0 0 0 3.536 0L10 10L8 8L7 9L3 5l1-1zm4.5 1a.5.5 0 1 1 0-1c1.953 0 3.53 1.58 3.53 3.53a.5.5 0 0 1-1 0C9.03 4.132 7.9 3 6.5 3m.23-2a.5.5 0 1 1 0-1A5.27 5.27 0 0 1 12 5.27a.5.5 0 1 1-1 0A4.27 4.27 0 0 0 6.73 1"/></symbol><symbol id="hd-icon-garden-phone-call-speaker-fill-16" viewBox="0 0 16 16"><path fill="currentColor" d="M10.293 10.293a1 1 0 0 1 1.414 0l2 2a1 1 0 0 1 0 1.414l-1.232 1.232a3.5 3.5 0 0 1-4.95 0L1.061 8.475a3.5 3.5 0 0 1 0-4.95l1.232-1.232a1 1 0 0 1 1.414 0l2 2a1 1 0 0 1 0 1.414L4.414 7L9 11.586zM8.5 5.5a1 1 0 1 1 0-2c2.212 0 4 1.788 4 4a1 1 0 1 1-2 0c0-1.108-.892-2-2-2m0-3.5a1 1 0 1 1 0-2A7.5 7.5 0 0 1 16 7.5a1 1 0 1 1-2 0A5.5 5.5 0 0 0 8.5 2"/></symbol><symbol id="hd-icon-garden-phone-call-speaker-stroke-12" viewBox="0 0 12 12"><path fill="currentColor" d="m2.707 1.293l2 2a1 1 0 0 1 0 1.414L4.414 5L7 7.586l.293-.293a1 1 0 0 1 1.414 0l2 2a1 1 0 0 1 0 1.414l-.232.232a3.5 3.5 0 0 1-4.95 0L1.061 6.475a3.5 3.5 0 0 1 0-4.95l.232-.232a1 1 0 0 1 1.414 0M2 2l-.232.232a2.5 2.5 0 0 0 0 3.536l4.464 4.464a2.5 2.5 0 0 0 3.536 0L10 10L8 8L7 9L3 5l1-1zm4.5 0c1.953 0 3.53 1.58 3.53 3.53a.5.5 0 0 1-1 0C9.03 4.132 7.9 3 6.5 3a.5.5 0 1 1 0-1m.23-2A5.27 5.27 0 0 1 12 5.27a.5.5 0 1 1-1 0A4.27 4.27 0 0 0 6.73 1a.5.5 0 1 1 0-1"/></symbol><symbol id="hd-icon-garden-phone-call-speaker-stroke-16" viewBox="0 0 16 16"><path fill="currentColor" d="m3.707 2.293l2 2a1 1 0 0 1 0 1.414L4.414 7L9 11.586l1.293-1.293a1 1 0 0 1 1.414 0l2 2a1 1 0 0 1 0 1.414l-1.232 1.232a3.5 3.5 0 0 1-4.95 0L1.061 8.475a3.5 3.5 0 0 1 0-4.95l1.232-1.232a1 1 0 0 1 1.414 0M3 3L1.768 4.232a2.5 2.5 0 0 0 0 3.536l6.464 6.464a2.5 2.5 0 0 0 3.536 0L13 13l-2-2l-2 2l-6-6l2-2zm5.5 1.998a.5.5 0 1 1 0-1c1.936 0 3.5 1.563 3.5 3.499a.5.5 0 0 1-1 0a2.495 2.495 0 0 0-2.5-2.5zm0-3.498a.5.5 0 1 1 0-1a7 7 0 0 1 7 6.997a.5.5 0 0 1-1 0a5.996 5.996 0 0 0-6-5.997"/></symbol><symbol id="hd-icon-garden-phone-call-transfer-fill-12" viewBox="0 0 12 12"><path fill="currentColor" d="m7 7.586l.293-.293a1 1 0 0 1 1.414 0l2 2a1 1 0 0 1 0 1.414l-.232.232a3.5 3.5 0 0 1-4.95 0L1.061 6.475a3.5 3.5 0 0 1 0-4.95l.232-.232a1 1 0 0 1 1.414 0l2 2a1 1 0 0 1 0 1.414L4.414 5zM9.85.15L11.5 1.8c.39.39.39 1.02 0 1.41L9.85 4.85A.47.47 0 0 1 9.5 5c-.06 0-.13-.01-.19-.04A.5.5 0 0 1 9 4.5V3H6.5a.5.5 0 1 1 0-1H9V.5c0-.2.12-.38.31-.46s.4-.04.54.11"/></symbol><symbol id="hd-icon-garden-phone-call-transfer-fill-16" viewBox="0 0 16 16"><path fill="currentColor" d="M10.293 10.293a1 1 0 0 1 1.414 0l2 2a1 1 0 0 1 0 1.414l-1.232 1.232a3.5 3.5 0 0 1-4.95 0L1.061 8.475a3.5 3.5 0 0 1 0-4.95l1.232-1.232a1 1 0 0 1 1.414 0l2 2a1 1 0 0 1 0 1.414L4.414 7L9 11.586zM12.85.149l2.65 2.65c.39.39.39 1.02 0 1.41l-2.65 2.65a.5.5 0 0 1-.85-.36V3.998H8a.5.5 0 0 1 0-1h4v-2.5c0-.45.54-.67.85-.35z"/></symbol><symbol id="hd-icon-garden-phone-call-transfer-only-fill-12" viewBox="0 0 12 12"><path fill="currentColor" d="m7 7.586l.293-.293a1 1 0 0 1 1.414 0l2 2a1 1 0 0 1 0 1.414l-.232.232a3.5 3.5 0 0 1-4.95 0L1.061 6.475a3.5 3.5 0 0 1 0-4.95l.232-.232a1 1 0 0 1 1.414 0l2 2a1 1 0 0 1 0 1.414L4.414 5zM8.146.147a.5.5 0 0 1 .847.268L9 .501l-.001 1.5h2.455c.69 0 .726.898.11.992l-.11.008H9v1.5a.5.5 0 0 1-.787.41l-.066-.056L6.115 2.82l-.03-.04a.5.5 0 0 1 0-.561l.03-.04z"/></symbol><symbol id="hd-icon-garden-phone-call-transfer-only-fill-16" viewBox="0 0 16 16"><path fill="currentColor" d="M10.293 10.293a1 1 0 0 1 1.414 0l2 2a1 1 0 0 1 0 1.414l-1.232 1.232a3.5 3.5 0 0 1-4.95 0L1.061 8.475a3.5 3.5 0 0 1 0-4.95l1.232-1.232a1 1 0 0 1 1.414 0l2 2a1 1 0 0 1 0 1.414L4.414 7L9 11.586zM10.146.146a.5.5 0 0 1 .847.268L11 .5V3h3.364c.848 0 .848 1 0 1H11v2.5a.5.5 0 0 1-.788.41l-.066-.056l-3-3a.5.5 0 0 1-.057-.638l.057-.07z"/></symbol><symbol id="hd-icon-garden-phone-call-transfer-only-stroke-12" viewBox="0 0 12 12"><path fill="currentColor" d="m7 7.586l.293-.293a1 1 0 0 1 1.414 0l2 2a1 1 0 0 1 0 1.414l-.232.232a3.5 3.5 0 0 1-4.95 0L1.061 6.475a3.5 3.5 0 0 1 0-4.95l.232-.232a1 1 0 0 1 1.414 0l2 2a1 1 0 0 1 0 1.414L4.414 5zM2 2l-.232.232a2.5 2.5 0 0 0 0 3.536l4.464 4.464a2.5 2.5 0 0 0 3.536 0L10 10L8 8L7 9L3 5l1-1zM8.854.146a.5.5 0 0 1 .057.638l-.057.07l-1.147 1.145L11.455 2c.689 0 .725.898.108.992L11.455 3l-3.75-.001l1.149 1.147a.5.5 0 0 1 .057.638l-.057.07a.5.5 0 0 1-.638.057l-.07-.057l-2-2a.5.5 0 0 1-.102-.56l.052-.09l.05-.058l2-2a.5.5 0 0 1 .708 0"/></symbol><symbol id="hd-icon-garden-phone-call-transfer-only-stroke-16" viewBox="0 0 16 16"><path fill="currentColor" d="M10.293 10.293a1 1 0 0 1 1.414 0l2 2a1 1 0 0 1 0 1.414l-1.232 1.232a3.5 3.5 0 0 1-4.95 0L1.061 8.475a3.5 3.5 0 0 1 0-4.95l1.232-1.232a1 1 0 0 1 1.414 0l2 2a1 1 0 0 1 0 1.414L4.414 7L9 11.586zM11 11l-2 2l-6-6l2-2l-2-2l-1.232 1.232a2.5 2.5 0 0 0 0 3.536l6.464 6.464a2.5 2.5 0 0 0 3.536 0L13 13zM10.854.146a.5.5 0 0 1 0 .708L8.708 2.999L14.364 3c.808 0 .846.907.115.993L14.364 4l-5.658-.001l2.148 2.147a.5.5 0 0 1-.708.708l-3-3a.5.5 0 0 1 0-.708l3-3a.5.5 0 0 1 .708 0"/></symbol><symbol id="hd-icon-garden-phone-call-transfer-stroke-12" viewBox="0 0 12 12"><path fill="currentColor" d="m2.707 1.293l2 2a1 1 0 0 1 0 1.414L4.414 5L7 7.586l.293-.293a1 1 0 0 1 1.414 0l2 2a1 1 0 0 1 0 1.414l-.232.232a3.5 3.5 0 0 1-4.95 0L1.061 6.475a3.5 3.5 0 0 1 0-4.95l.232-.232a1 1 0 0 1 1.414 0M2 2l-.232.232a2.5 2.5 0 0 0 0 3.536l4.464 4.464a2.5 2.5 0 0 0 3.536 0L10 10L8 8L7 9L3 5l1-1zM8.646.146a.5.5 0 0 1 .708 0l1.942 1.94a.5.5 0 0 1 .201.359l.002.027l-.002.082a.5.5 0 0 1-.201.36l-1.942 1.94a.5.5 0 1 1-.708-.708L9.793 3H6.5c-.667 0-.667-1 0-1h3.293L8.646.854A.5.5 0 0 1 8.59.216z"/></symbol><symbol id="hd-icon-garden-phone-call-transfer-stroke-16" viewBox="0 0 16 16"><path fill="currentColor" d="m3.707 2.293l2 2a1 1 0 0 1 0 1.414L4.414 7L9 11.586l1.293-1.293a1 1 0 0 1 1.414 0l2 2a1 1 0 0 1 0 1.414l-1.232 1.232a3.5 3.5 0 0 1-4.95 0L1.061 8.475a3.5 3.5 0 0 1 0-4.95l1.232-1.232a1 1 0 0 1 1.414 0M3 3L1.768 4.232a2.5 2.5 0 0 0 0 3.536l6.464 6.464a2.5 2.5 0 0 0 3.536 0L13 13l-2-2l-2 2l-6-6l2-2zM11.646.146a.5.5 0 0 1 .708 0l3 3a.5.5 0 0 1 0 .708l-3 3a.5.5 0 0 1-.708-.708L13.793 4H8.136c-.848 0-.848-1 0-1h5.657L11.646.854a.5.5 0 0 1-.057-.638z"/></symbol><symbol id="hd-icon-garden-phone-fill-12" viewBox="0 0 12 12"><path fill="currentColor" d="M8.293 7.293a1 1 0 0 1 1.414 0l2 2a1 1 0 0 1 0 1.414l-.232.232a3.5 3.5 0 0 1-4.95 0L1.061 5.475a3.5 3.5 0 0 1 0-4.95l.232-.232a1 1 0 0 1 1.414 0l2 2a1 1 0 0 1 0 1.414L4.414 4L8 7.586z"/></symbol><symbol id="hd-icon-garden-phone-fill-16" viewBox="0 0 16 16"><path fill="currentColor" d="m10 10.586l1.293-1.293a1 1 0 0 1 1.414 0l3 3a1 1 0 0 1 0 1.414l-1.232 1.232a3.5 3.5 0 0 1-4.95 0L1.061 6.475a3.5 3.5 0 0 1 0-4.95L2.293.293a1 1 0 0 1 1.414 0l3 3a1 1 0 0 1 0 1.414L5.414 6z"/></symbol><symbol id="hd-icon-garden-phone-stroke-12" viewBox="0 0 12 12"><path fill="currentColor" d="M8.293 7.293a1 1 0 0 1 1.414 0l2 2a1 1 0 0 1 0 1.414l-.232.232a3.5 3.5 0 0 1-4.95 0L1.061 5.475a3.5 3.5 0 0 1 0-4.95l.232-.232a1 1 0 0 1 1.414 0l2 2a1 1 0 0 1 0 1.414L4.414 4L8 7.586zM11 10L9 8L8 9L3 4l1-1l-2-2l-.232.232a2.5 2.5 0 0 0 0 3.536l5.464 5.464a2.5 2.5 0 0 0 3.536 0z"/></symbol><symbol id="hd-icon-garden-phone-stroke-16" viewBox="0 0 16 16"><path fill="currentColor" d="m10 10.586l1.293-1.293a1 1 0 0 1 1.414 0l3 3a1 1 0 0 1 0 1.414l-1.232 1.232a3.5 3.5 0 0 1-4.95 0L1.061 6.475a3.5 3.5 0 0 1 0-4.95L2.293.293a1 1 0 0 1 1.414 0l3 3a1 1 0 0 1 0 1.414L5.414 6zM3 1L1.768 2.232a2.5 2.5 0 0 0 0 3.536l8.464 8.464a2.5 2.5 0 0 0 3.536 0L15 13l-3-3l-2 2l-6-6l2-2z"/></symbol><symbol id="hd-icon-garden-pin-fill-12" viewBox="0 0 12 12"><path fill="currentColor" d="M5.93.018c.184-.05.38.003.514.138l5.4 5.4a.532.532 0 0 1-.238.89L9.905 6.9a.53.53 0 0 1-.513-.138l-.473-.473l-2.198 5.38a.532.532 0 0 1-.868.175L3.38 9.372l-2.21 2.21a.532.532 0 1 1-.752-.752l2.21-2.21L.156 6.147A.532.532 0 0 1 .33 5.28l5.38-2.198l-.473-.473a.53.53 0 0 1-.138-.513l.455-1.7A.53.53 0 0 1 5.93.017"/></symbol><symbol id="hd-icon-garden-pin-fill-16" viewBox="0 0 16 16"><path fill="currentColor" d="M.933 15.62a.542.542 0 0 1-.393-.927l3.137-3.138L.15 8.028a.512.512 0 0 1 .169-.836l7.62-3.113l-.837-.837a.54.54 0 0 1-.14-.524L7.58.403a.543.543 0 0 1 .91-.244l7.352 7.352a.543.543 0 0 1-.244.909l-2.315.619a.54.54 0 0 1-.524-.141l-.837-.836L9.1 14.968l-.006.013l-.286.7a.512.512 0 0 1-.836.169l-3.527-3.527l-3.138 3.137a.54.54 0 0 1-.374.16"/></symbol><symbol id="hd-icon-garden-pin-remove-fill-12" viewBox="0 0 12 12"><path fill="currentColor" d="M5.93.018c.184-.05.38.003.514.138l5.4 5.4a.532.532 0 0 1-.238.89L9.905 6.9a.53.53 0 0 1-.513-.138l-.473-.473l-.54 1.322l-3.99-3.99l1.322-.54l-.473-.473a.53.53 0 0 1-.138-.513l.455-1.7A.53.53 0 0 1 5.93.017m-4.05 4.63l5.474 5.474l-.632 1.548a.532.532 0 0 1-.868.175L3.38 9.372l-2.21 2.21a.532.532 0 1 1-.752-.752l2.21-2.21L.156 6.147A.532.532 0 0 1 .33 5.28zm-.025-2.5a.5.5 0 1 0-.708.707l8 8a.5.5 0 0 0 .708-.708z"/></symbol><symbol id="hd-icon-garden-pin-remove-fill-16" viewBox="0 0 16 16"><path fill="currentColor" d="M.933 15.62a.542.542 0 0 1-.393-.927l3.137-3.138L.15 8.028a.512.512 0 0 1 .169-.836l2.585-1.057l6.96 6.96l-.764 1.873l-.006.013l-.286.7a.512.512 0 0 1-.836.169l-3.527-3.527l-3.138 3.137a.54.54 0 0 1-.374.16m9.983-5.096l-5.44-5.44L7.938 4.08l-.836-.837a.54.54 0 0 1-.14-.524L7.58.403a.543.543 0 0 1 .91-.244l7.352 7.352a.543.543 0 0 1-.244.909l-2.315.619a.54.54 0 0 1-.524-.141l-.837-.836zm-8.9-7.812a.512.512 0 1 0-.724.724l11.272 11.272a.512.512 0 0 0 .724-.725z"/></symbol><symbol id="hd-icon-garden-pin-remove-stroke-12" viewBox="0 0 12 12"><path fill="currentColor" d="m6.444.156l5.4 5.4a.532.532 0 0 1-.238.89L9.905 6.9a.53.53 0 0 1-.513-.138l-.473-.473l-.54 1.322l-.816-.815l.54-1.322l-1.577-1.577l-1.322.54l-.815-.816l1.322-.54l-.473-.473a.53.53 0 0 1-.138-.513l.455-1.7a.532.532 0 0 1 .89-.24m-.1 1.403l-.137.514l3.72 3.72l.514-.137zm.194 7.747l.815.815l-.632 1.548a.532.532 0 0 1-.868.175L3.38 9.372l-2.21 2.21a.532.532 0 1 1-.752-.752l2.21-2.21L.156 6.147A.532.532 0 0 1 .33 5.28l1.548-.632l.815.815l-1.22.499l4.565 4.566zm-4.684-7.16a.5.5 0 1 0-.708.708l8 8a.5.5 0 0 0 .708-.708z"/></symbol><symbol id="hd-icon-garden-pin-remove-stroke-16" viewBox="0 0 16 16"><path fill="currentColor" d="m9.865 13.096l-.833-.833l-.902 2.21L1.528 7.87l2.21-.902l-.834-.833L.32 7.192a.512.512 0 0 0-.169.836l3.527 3.527L.54 14.693a.543.543 0 1 0 .767.767l3.138-3.137l3.527 3.527c.259.259.698.17.836-.169zM2.017 2.711l11.271 11.271a.512.512 0 0 1-.724.725L1.292 3.436a.512.512 0 1 1 .725-.724M8.415.097L8.49.16l7.352 7.352a.543.543 0 0 1-.154.876l-.09.033l-2.315.619a.54.54 0 0 1-.45-.08l-.074-.061l-.837-.836l-1.005 2.462l-.833-.833L11.09 7.23L8.77 4.91L6.31 5.917l-.833-.833L7.938 4.08l-.836-.837a.54.54 0 0 1-.157-.43l.017-.094L7.58.403a.543.543 0 0 1 .835-.306m-.029 1.495l-.295 1.104l5.213 5.213l1.104-.295z"/></symbol><symbol id="hd-icon-garden-pin-stroke-12" viewBox="0 0 12 12"><path fill="currentColor" d="m6.372.095l.072.06l5.4 5.4a.532.532 0 0 1-.15.858l-.088.032l-1.701.455a.53.53 0 0 1-.441-.078l-.072-.06l-.473-.473l-2.198 5.38a.532.532 0 0 1-.797.235l-.071-.06L3.38 9.372l-2.21 2.21a.532.532 0 0 1-.813-.678l.061-.074l2.21-2.21L.156 6.147a.532.532 0 0 1 .092-.826l.083-.042l5.38-2.198l-.473-.473a.53.53 0 0 1-.154-.42l.016-.093l.455-1.7a.532.532 0 0 1 .817-.3m.154 3.802L1.473 5.96l4.566 4.566l2.064-5.053zm-.182-2.338l-.137.514l3.72 3.72l.514-.137z"/></symbol><symbol id="hd-icon-garden-pin-stroke-16" viewBox="0 0 16 16"><path fill="currentColor" d="M8.489.159a.543.543 0 0 0-.909.244l-.618 2.315a.54.54 0 0 0 .14.524l.836.837l-7.62 3.113a.512.512 0 0 0-.168.836l3.527 3.527L.54 14.693a.543.543 0 1 0 .767.767l3.138-3.137l3.527 3.527c.259.259.698.17.836-.169l3.113-7.62l.837.837c.137.137.337.19.524.14l2.315-.618a.543.543 0 0 0 .244-.909zm.282 4.752L11.09 7.23l-2.96 7.243L1.529 7.87zm-.385-3.319l6.022 6.022l-1.104.295l-5.213-5.213z"/></symbol><symbol id="hd-icon-garden-platform-26" viewBox="0 0 26 26"><path fill="currentColor" d="m22.475 18.881l-8.891 4.925c-.525.259-.643.259-1.168 0l-8.89-4.925c-1.164-.644-.195-2.385.97-1.74L13 21.85l8.505-4.71c1.164-.645 2.133 1.096.97 1.74zm0-5l-8.891 4.925c-.525.259-.643.259-1.168 0l-8.89-4.925c-1.164-.644-.195-2.385.97-1.74L13 16.85l8.505-4.71c1.164-.645 2.133 1.096.97 1.74zM3.515 8.89a1 1 0 0 1-.002-1.749l9-5.015a1 1 0 0 1 .974 0l9 5.015a1 1 0 0 1-.003 1.749l-9.007 4.985a1 1 0 0 1-.97 0z"/></symbol><symbol id="hd-icon-garden-play-26" viewBox="0 0 26 26"><circle cx="13" cy="13" r="11" fill="none" stroke="currentColor" stroke-width="2"/><path fill="currentColor" d="m17 13l-6 4V9"/></symbol><symbol id="hd-icon-garden-play-circle-fill-12" viewBox="0 0 12 12"><path fill="currentColor" d="M6 0a6 6 0 1 0 6 6a6.005 6.005 0 0 0-6-6m2.47 6.4L4.8 9.15a.5.5 0 0 1-.8-.4v-5.5a.5.5 0 0 1 .8-.4L8.47 5.6a.508.508 0 0 1 0 .8"/></symbol><symbol id="hd-icon-garden-play-circle-fill-16" viewBox="0 0 16 16"><path fill="currentColor" d="M8 0C3.58 0 0 3.58 0 8s3.58 8 8 8s8-3.58 8-8s-3.58-8-8-8m2.79 8.71l-3.94 3.94a.5.5 0 0 1-.85-.36V3.71c0-.45.54-.67.85-.35l3.94 3.94c.39.38.39 1.02 0 1.41"/></symbol><symbol id="hd-icon-garden-play-circle-stroke-12" viewBox="0 0 12 12"><circle cx="6" cy="6" r="5.5" fill="none" stroke="currentColor"/><path fill="currentColor" d="M8.467 5.6L4.8 2.85a.5.5 0 0 0-.8.4v5.5a.5.5 0 0 0 .8.4L8.467 6.4a.5.5 0 0 0 0-.8"/></symbol><symbol id="hd-icon-garden-play-circle-stroke-16" viewBox="0 0 16 16"><circle cx="8" cy="8" r="7.5" fill="none" stroke="currentColor" stroke-width="1.034"/><path fill="currentColor" d="M10.79 7.29L6.85 3.35a.5.5 0 0 0-.85.36v8.59c0 .45.54.67.85.35l3.94-3.94c.39-.39.39-1.03 0-1.42"/></symbol><symbol id="hd-icon-garden-play-fill-12" viewBox="0 0 12 12"><path fill="currentColor" d="M4 11.79c-.13 0-.26-.03-.38-.08a.98.98 0 0 1-.62-.92V1.21A1 1 0 0 1 4.71.5l4.44 4.44c.58.58.58 1.54 0 2.12L4.71 11.5c-.19.19-.45.29-.71.29"/></symbol><symbol id="hd-icon-garden-play-fill-16" viewBox="0 0 16 16"><path fill="currentColor" d="M6 15.79c-.13 0-.26-.03-.38-.08a.98.98 0 0 1-.62-.92V1.21a1 1 0 0 1 .62-.93C6 .12 6.42.21 6.71.5l6.44 6.44c.58.58.58 1.54 0 2.12L6.71 15.5c-.19.19-.45.29-.71.29"/></symbol><symbol id="hd-icon-garden-play-stroke-12" viewBox="0 0 12 12"><path fill="none" stroke="currentColor" d="M3.5 1.2v9.6c0 .4.5.7.9.4l4.4-4.4c.4-.4.4-1 0-1.4L4.4.9c-.4-.4-.9-.1-.9.3z"/></symbol><symbol id="hd-icon-garden-play-stroke-16" viewBox="0 0 16 16"><path fill="none" stroke="currentColor" d="M5.5 1.2v13.6c0 .4.5.7.9.4l6.4-6.4c.4-.4.4-1 0-1.4L6.4.9c-.4-.4-.9-.1-.9.3z"/></symbol><symbol id="hd-icon-garden-plug-fill-12" viewBox="0 0 12 12"><path fill="currentColor" d="M9.854.146a.5.5 0 0 1 .057.638l-.057.07L7.707 3L9 4.293l2.146-2.147a.5.5 0 0 1 .765.638l-.057.07L9.707 5l1.147 1.146a.5.5 0 0 1-.638.765l-.07-.057l-.308-.309l-.06.084l-.07.078L7.413 9a2 2 0 0 1-2.701.117L4.586 9l-.44-.439l-3.292 3.293a.5.5 0 0 1-.765-.638l.057-.07L3.44 7.854L3 7.414a2 2 0 0 1-.117-2.701L3 4.586l2.293-2.293a1 1 0 0 1 .162-.131l-.309-.308a.5.5 0 0 1 .638-.765l.07.057L7 2.293L9.146.146a.5.5 0 0 1 .708 0"/></symbol><symbol id="hd-icon-garden-plug-fill-16" viewBox="0 0 16 16"><path fill="currentColor" d="M12.854.146a.5.5 0 0 1 .057.638l-.057.07L9.707 4L12 6.293l3.146-3.147a.5.5 0 0 1 .765.638l-.057.07L12.707 7l1.147 1.146a.5.5 0 0 1-.638.765l-.07-.057l-.308-.309l-.06.084l-.07.078l-3.058 3.057c-.87.87-2.256.91-3.172.119l-.128-.119l-.704-.704l-4.792 4.794a.5.5 0 0 1-.765-.638l.057-.07l4.793-4.793l-.703-.703a2.334 2.334 0 0 1-.119-3.172l.119-.128l3.057-3.057a1 1 0 0 1 .162-.131l-.309-.308a.5.5 0 0 1 .638-.765l.07.057L9 3.293L12.146.146a.5.5 0 0 1 .708 0"/></symbol><symbol id="hd-icon-garden-plug-stroke-12" viewBox="0 0 12 12"><path fill="currentColor" d="M9.854.146a.5.5 0 0 1 .057.638l-.057.07L7.707 3L9 4.293l2.146-2.147a.5.5 0 0 1 .765.638l-.057.07L9.707 5l1.147 1.146a.5.5 0 0 1-.638.765l-.07-.057l-.308-.309l-.06.084l-.07.078L7.413 9a2 2 0 0 1-2.701.117L4.586 9l-.44-.439l-3.292 3.293a.5.5 0 0 1-.765-.638l.057-.07L3.44 7.854L3 7.414a2 2 0 0 1-.117-2.701L3 4.586l2.293-2.293a1 1 0 0 1 .162-.131l-.309-.308a.5.5 0 0 1 .638-.765l.07.057L7 2.293L9.146.146a.5.5 0 0 1 .708 0M6.146 2.853l-2.439 2.44a1 1 0 0 0-.083 1.32l.083.094l1.586 1.586a1 1 0 0 0 1.32.083l.094-.083l2.439-2.44z"/></symbol><symbol id="hd-icon-garden-plug-stroke-16" viewBox="0 0 16 16"><path fill="currentColor" d="M12.854.146a.5.5 0 0 1 .057.638l-.057.07L9.707 4L12 6.293l3.146-3.147a.5.5 0 0 1 .765.638l-.057.07L12.707 7l1.147 1.146a.5.5 0 0 1-.638.765l-.07-.057l-.308-.309l-.06.084l-.07.078l-3.058 3.057c-.87.87-2.256.91-3.172.119l-.128-.119l-.704-.704l-4.792 4.794a.5.5 0 0 1-.765-.638l.057-.07l4.793-4.793l-.703-.703a2.334 2.334 0 0 1-.119-3.172l.119-.128l3.057-3.057a1 1 0 0 1 .162-.131l-.309-.308a.5.5 0 0 1 .638-.765l.07.057L9 3.293L12.146.146a.5.5 0 0 1 .708 0M8.146 3.853L4.943 7.057a1.334 1.334 0 0 0-.097 1.778l.097.108l2.114 2.114a1.334 1.334 0 0 0 1.778.097l.108-.097l3.203-3.204z"/></symbol><symbol id="hd-icon-garden-plus-circle-fill-12" viewBox="0 0 12 12"><path fill="currentColor" d="M5.5 1C2.46 1 0 3.46 0 6.5S2.46 12 5.5 12S11 9.54 11 6.5S8.54 1 5.5 1m3 6H6v2.5c0 .28-.22.5-.5.5S5 9.78 5 9.5V7H2.5c-.28 0-.5-.22-.5-.5s.22-.5.5-.5H5V3.5c0-.28.22-.5.5-.5s.5.22.5.5V6h2.5c.28 0 .5.22.5.5s-.22.5-.5.5"/></symbol><symbol id="hd-icon-garden-plus-circle-fill-16" viewBox="0 0 16 16"><path fill="currentColor" d="M7.5 1C3.36 1 0 4.36 0 8.5S3.36 16 7.5 16S15 12.64 15 8.5S11.64 1 7.5 1m4 8H8v3.5c0 .28-.22.5-.5.5s-.5-.22-.5-.5V9H3.5c-.28 0-.5-.22-.5-.5s.22-.5.5-.5H7V4.5c0-.28.22-.5.5-.5s.5.22.5.5V8h3.5c.28 0 .5.22.5.5s-.22.5-.5.5"/></symbol><symbol id="hd-icon-garden-plus-circle-stroke-12" viewBox="0 0 12 12"><circle cx="5.5" cy="6.5" r="5" fill="none" stroke="currentColor"/><path fill="none" stroke="currentColor" stroke-linecap="round" d="M5.5 3.5v6m3-3h-6"/></symbol><symbol id="hd-icon-garden-plus-circle-stroke-16" viewBox="0 0 16 16"><circle cx="7.5" cy="8.5" r="7" fill="none" stroke="currentColor"/><path fill="none" stroke="currentColor" stroke-linecap="round" d="M7.5 4.5v8m4-4h-8"/></symbol><symbol id="hd-icon-garden-plus-fill-12" viewBox="0 0 12 12"><path fill="currentColor" stroke="currentColor" stroke-linecap="round" stroke-width="2" d="M6 2v8m4-4H2"/></symbol><symbol id="hd-icon-garden-plus-fill-16" viewBox="0 0 16 16"><path fill="currentColor" stroke="currentColor" stroke-linecap="round" stroke-width="2" d="M8 2v12m6-6H2"/></symbol><symbol id="hd-icon-garden-plus-stroke-12" viewBox="0 0 12 12"><path fill="currentColor" stroke="currentColor" stroke-linecap="round" d="M5.5 2.5v8m4-4h-8"/></symbol><symbol id="hd-icon-garden-plus-stroke-16" viewBox="0 0 16 16"><path fill="currentColor" stroke="currentColor" stroke-linecap="round" d="M7.5 2.5v12m6-6h-12"/></symbol><symbol id="hd-icon-garden-puzzle-piece-fill-12" viewBox="0 0 12 12"><path fill="currentColor" d="M10.1 3.94c.63-.29 1.04-.98.87-1.75c-.12-.56-.59-1.03-1.15-1.15c-.78-.17-1.47.23-1.76.86L6.27.11a.38.38 0 0 0-.54 0L4.18 1.66c-.19.19-.12.51.13.62a1.54 1.54 0 1 1-2.03 2.03c-.11-.25-.43-.32-.62-.13L.11 5.73a.38.38 0 0 0 0 .54L1.9 8.06c-.63.29-1.03.98-.87 1.75c.12.56.59 1.03 1.15 1.15c.77.17 1.46-.24 1.75-.87l1.79 1.79c.15.15.39.15.54 0l1.54-1.54c.19-.19.13-.51-.12-.62c-.53-.24-.91-.78-.91-1.41a1.54 1.54 0 0 1 2.95-.62c.11.25.43.32.62.12l1.54-1.54a.38.38 0 0 0 0-.54z"/></symbol><symbol id="hd-icon-garden-puzzle-piece-fill-16" viewBox="0 0 16 16"><path fill="currentColor" d="M13.32 5.32c.82-.37 1.35-1.27 1.13-2.27c-.16-.73-.77-1.34-1.5-1.5c-1-.22-1.9.31-2.27 1.13L8.35.35c-.2-.2-.51-.2-.71 0l-2 2.01a.5.5 0 0 0 .16.81C6.51 3.48 7 4.18 7 5c0 1.1-.9 2-2 2c-.82 0-1.52-.49-1.83-1.2a.5.5 0 0 0-.81-.16L.35 7.65c-.2.2-.2.51 0 .71l2.33 2.33a1.997 1.997 0 1 0 2.64 2.64l2.33 2.33c.2.2.51.2.71 0l2.01-2.01a.5.5 0 0 0-.16-.81A2.01 2.01 0 0 1 9 11c0-1.1.9-2 2-2c.82 0 1.52.49 1.83 1.2a.5.5 0 0 0 .81.16l2.01-2.01c.2-.2.2-.51 0-.71z"/></symbol><symbol id="hd-icon-garden-puzzle-piece-stroke-12" viewBox="0 0 12 12"><path fill="none" stroke="currentColor" stroke-linejoin="round" d="M11.39 5.73L9.73 4.07c.67-.15 1.17-.75 1.17-1.47c0-.83-.68-1.51-1.51-1.51c-.72 0-1.31.5-1.47 1.17L6.27.61a.37.37 0 0 0-.53 0L4.07 2.27c.67.15 1.17.75 1.17 1.47c0 .83-.68 1.51-1.51 1.51c-.72 0-1.31-.5-1.47-1.17L.61 5.73c-.15.15-.15.39 0 .53l1.66 1.66c-.67.16-1.17.76-1.17 1.47c0 .83.68 1.51 1.51 1.51c.72 0 1.31-.5 1.47-1.17l1.66 1.66c.15.15.39.15.53 0l1.66-1.66c-.67-.15-1.18-.75-1.18-1.47c0-.83.68-1.51 1.51-1.51c.72 0 1.31.5 1.47 1.17l1.66-1.66c.15-.14.15-.38 0-.53z"/></symbol><symbol id="hd-icon-garden-puzzle-piece-stroke-16" viewBox="0 0 16 16"><path fill="none" stroke="currentColor" stroke-linejoin="round" d="m15.15 7.65l-2.2-2.2c.89-.2 1.55-1 1.55-1.95c0-1.1-.9-2-2-2c-.95 0-1.74.66-1.95 1.55L8.35.85c-.2-.2-.51-.2-.71 0l-2.2 2.2C6.34 3.26 7 4.05 7 5c0 1.1-.9 2-2 2c-.95 0-1.74-.66-1.95-1.55l-2.2 2.2c-.2.2-.2.51 0 .71l2.2 2.2c-.89.2-1.55 1-1.55 1.95c0 1.1.9 2 2 2c.95 0 1.74-.66 1.95-1.55l2.2 2.2c.2.2.51.2.71 0l2.2-2.2C9.66 12.74 9 11.95 9 11c0-1.1.9-2 2-2c.95 0 1.74.66 1.95 1.55l2.2-2.2c.19-.19.19-.51 0-.7z"/></symbol><symbol id="hd-icon-garden-question-mark-fill-12" viewBox="0 0 12 12"><path fill="none" stroke="currentColor" stroke-linecap="round" stroke-width="2" d="M6 7v-.5c0-.7.4-1.3 1-1.6c.7-.4 1.2-1.3 1-2.2c-.2-.8-.9-1.5-1.7-1.7c-1.1-.2-2 .5-2.3 1.4"/><circle cx="6" cy="10.5" r="1.5" fill="currentColor"/></symbol><symbol id="hd-icon-garden-question-mark-fill-16" viewBox="0 0 16 16"><circle cx="8" cy="14" r="1.5" fill="currentColor"/><path fill="none" stroke="currentColor" stroke-linecap="round" stroke-width="2" d="M8 10.5V9.4c0-1 .6-1.8 1.4-2.3c1.1-.6 1.8-1.8 1.6-3.1c-.2-1.2-1.2-2.2-2.4-2.4c-1.6-.3-3 .6-3.4 1.9"/></symbol><symbol id="hd-icon-garden-question-mark-stroke-12" viewBox="0 0 12 12"><path fill="none" stroke="currentColor" stroke-linecap="round" d="M5.5 7.5V7c0-.7.4-1.3 1-1.6c.7-.4 1.2-1.3 1-2.2c-.1-.8-.8-1.5-1.7-1.7c-1-.2-2 .5-2.3 1.4"/><circle cx="5.5" cy="10" r="1" fill="currentColor"/></symbol><symbol id="hd-icon-garden-question-mark-stroke-16" viewBox="0 0 16 16"><circle cx="7.5" cy="13.5" r="1" fill="currentColor"/><path fill="none" stroke="currentColor" stroke-linecap="round" d="M7.5 10.5V9.4c0-1 .6-1.8 1.4-2.3c1.1-.6 1.8-1.8 1.6-3.1c-.3-1.3-1.2-2.2-2.5-2.5c-1.5-.3-2.9.6-3.4 2"/></symbol><symbol id="hd-icon-garden-quote-fill-12" viewBox="0 0 12 12"><path fill="currentColor" d="M10 7H8c-.55 0-1-.45-1-1V4c0-.55.45-1 1-1h2c.55 0 1 .45 1 1v2c0 .55-.45 1-1 1M5 7H3c-.55 0-1-.45-1-1V4c0-.55.45-1 1-1h2c.55 0 1 .45 1 1v2c0 .55-.45 1-1 1"/><path fill="none" stroke="currentColor" stroke-linecap="round" stroke-width="2" d="M9 9.5c.5-.5 1-1.5 1-3V5M4 9.5c.5-.5 1-1.5 1-3V5"/></symbol><symbol id="hd-icon-garden-quote-fill-16" viewBox="0 0 16 16"><path fill="currentColor" d="M7 8H4c-.55 0-1-.45-1-1V4c0-.55.45-1 1-1h3c.55 0 1 .45 1 1v3c0 .55-.45 1-1 1m6 0h-3c-.55 0-1-.45-1-1V4c0-.55.45-1 1-1h3c.55 0 1 .45 1 1v3c0 .55-.45 1-1 1"/><path fill="none" stroke="currentColor" stroke-linecap="round" stroke-width="2" d="M5.5 12C6.5 11 7 9.5 7 8V6m4.5 6c1-1 1.5-2.5 1.5-4V6"/></symbol><symbol id="hd-icon-garden-quote-stroke-12" viewBox="0 0 12 12"><path fill="none" stroke="currentColor" stroke-linecap="round" d="M5 6.5H3c-.3 0-.5-.2-.5-.5V4c0-.3.2-.5.5-.5h2c.3 0 .5.2.5.5v2c0 .3-.2.5-.5.5zm5 0H8c-.3 0-.5-.2-.5-.5V4c0-.3.2-.5.5-.5h2c.3 0 .5.2.5.5v2c0 .3-.2.5-.5.5zM9.5 10c.5-.5 1-1.5 1-3V5.5m-6 4.5c.5-.5 1-1.5 1-3V5.5"/></symbol><symbol id="hd-icon-garden-quote-stroke-16" viewBox="0 0 16 16"><path fill="none" stroke="currentColor" stroke-linecap="round" d="M7 7.5H4c-.3 0-.5-.2-.5-.5V4c0-.3.2-.5.5-.5h3c.3 0 .5.2.5.5v3c0 .3-.2.5-.5.5zm6 0h-3c-.3 0-.5-.2-.5-.5V4c0-.3.2-.5.5-.5h3c.3 0 .5.2.5.5v3c0 .3-.2.5-.5.5zM12 12c1-1 1.5-2.5 1.5-4V6M6 12c1-1 1.5-2.5 1.5-4V6"/></symbol><symbol id="hd-icon-garden-rearrange-fill-12" viewBox="0 0 12 12"><g fill="currentColor"><rect width="10" height="3" rx="1" ry="1"/><rect width="10" height="3" x="2" y="4" rx="1" ry="1"/><rect width="10" height="3" y="8" rx="1" ry="1"/></g></symbol><symbol id="hd-icon-garden-rearrange-fill-16" viewBox="0 0 16 16"><g fill="currentColor"><rect width="13" height="4" rx="1" ry="1"/><rect width="13" height="4" y="12" rx="1" ry="1"/><rect width="13" height="4" x="3" y="6" rx="1" ry="1"/></g></symbol><symbol id="hd-icon-garden-rearrange-stroke-12" viewBox="0 0 12 12"><path fill="currentColor" stroke="currentColor" stroke-linecap="round" stroke-width="2" d="M1 2h8m-8 8h8M3 6h8"/></symbol><symbol id="hd-icon-garden-rearrange-stroke-16" viewBox="0 0 16 16"><path fill="currentColor" stroke="currentColor" stroke-linecap="round" stroke-width="2" d="M1 2h11M1 14h11M4 8h11"/></symbol><symbol id="hd-icon-garden-record-fill-12" viewBox="0 0 12 12"><circle cx="6" cy="6" r="4" fill="currentColor"/><circle cx="6" cy="6" r="5.5" fill="none" stroke="currentColor"/></symbol><symbol id="hd-icon-garden-record-fill-16" viewBox="0 0 16 16"><circle cx="8" cy="8" r="5" fill="currentColor"/><circle cx="8" cy="8" r="7.5" fill="none" stroke="currentColor"/></symbol><symbol id="hd-icon-garden-record-stroke-12" viewBox="0 0 12 12"><circle cx="6" cy="6" r="4" fill="currentColor"/></symbol><symbol id="hd-icon-garden-record-stroke-16" viewBox="0 0 16 16"><circle cx="8" cy="8" r="5" fill="currentColor"/></symbol><symbol id="hd-icon-garden-relationshape-chat-26" viewBox="0 0 26 26"><path fill="currentColor" d="M9.3 5.4c4.9 4.9 4.9 12.7 0 17.6L.5 14.2zm9.9 10c-3.4-3.4-3.4-9 0-12.4l6.2 6.2z"/></symbol><symbol id="hd-icon-garden-relationshape-connect-26" viewBox="0 0 26 26"><path fill="currentColor" d="M8.1 15.5V8.1H.4V23h15.1v-7.5zm15.014-2.459l-7.484-2.53l2.53-7.484l7.483 2.53z"/></symbol><symbol id="hd-icon-garden-relationshape-explore-26" viewBox="0 0 26 26"><path fill="currentColor" d="m.6 22.9l8.7-15l8.7 15zM16.8 13V3.1l8.6 5z"/></symbol><symbol id="hd-icon-garden-relationshape-gather-26" viewBox="0 0 26 26"><path fill="currentColor" d="M19 3c0 2.94-2.69 6-6 6S7 5.926 7 3zm5 9c0 6.708-4.923 11-10.993 11S2.015 18.708 2 12z"/></symbol><symbol id="hd-icon-garden-relationshape-guide-26" viewBox="0 0 26 26"><path fill="currentColor" d="m7 7.8l6-6l6 6zM.5 23L13 10.4L25.5 23z"/></symbol><symbol id="hd-icon-garden-relationshape-message-26" viewBox="0 0 26 26"><circle cx="4.9" cy="7.4" r="4.4" fill="currentColor"/><circle cx="18" cy="15.5" r="7.5" fill="currentColor"/></symbol><symbol id="hd-icon-garden-relationshape-sell-26" viewBox="0 0 26 26"><path fill="currentColor" d="M11 23v-8H3zM23 4v19L4 4z"/></symbol><symbol id="hd-icon-garden-relationshape-support-26" viewBox="0 0 26 26"><path fill="currentColor" d="M14.3 5.2L5.4 2.7l-2.5 8.9l-2.5 8.9l8.9 2.4l2.5-8.8zm-.077 8.931l8.853-2.503l2.503 8.853l-8.853 2.503z"/></symbol><symbol id="hd-icon-garden-relationshape-talk-26" viewBox="0 0 26 26"><path fill="currentColor" d="M6.8 3.3C3.4 3.3.6 6.5.6 9.5H13c0-3-2.8-6.2-6.2-6.2m8.1 19.9c5.8 0 10.5-4.1 10.5-10.5H4.3c0 6.4 4.8 10.5 10.6 10.5"/></symbol><symbol id="hd-icon-garden-reload-fill-12" viewBox="0 0 12 12"><path fill="none" stroke="currentColor" stroke-linecap="round" stroke-width="2" d="M10 4c-.8-1.1-2-2.5-4.1-2.5c-2.5 0-4.4 2-4.4 4.5s2 4.5 4.4 4.5c1.3 0 2.5-.6 3.3-1.5M11 1.5v3c0 .3-.2.5-.5.5h-3"/></symbol><symbol id="hd-icon-garden-reload-fill-16" viewBox="0 0 16 16"><path fill="none" stroke="currentColor" stroke-linecap="round" stroke-width="2" d="M13.1 12c-1.2 1.5-3 2.5-5.1 2.5c-3.6 0-6.5-2.9-6.5-6.5S4.4 1.5 8 1.5c2.2 0 4.1 1.1 5.3 2.7m.2-3.2v3c0 .3-.2.5-.5.5h-3"/></symbol><symbol id="hd-icon-garden-reload-stroke-12" viewBox="0 0 12 12"><path fill="none" stroke="currentColor" stroke-linecap="round" d="M10 4c-.8-1.1-2-2.5-4.1-2.5c-2.5 0-4.4 2-4.4 4.5s2 4.5 4.4 4.5c1.3 0 2.5-.6 3.3-1.5m1.3-7.5V4c0 .3-.2.5-.5.5H7.5"/></symbol><symbol id="hd-icon-garden-reload-stroke-16" viewBox="0 0 16 16"><path fill="none" stroke="currentColor" stroke-linecap="round" d="M13.1 12c-1.2 1.5-3 2.5-5.1 2.5c-3.6 0-6.5-2.9-6.5-6.5S4.4 1.5 8 1.5c2.2 0 4.1 1.1 5.3 2.7m.2-3.7V4c0 .3-.2.5-.5.5H9.5"/></symbol><symbol id="hd-icon-garden-sandbox-fill-12" viewBox="0 0 12 12"><path fill="currentColor" d="m2 1l-.117.007A1 1 0 0 0 1 2v1.931l-.992 6.945A1 1 0 0 0 1 12h3a1 1 0 0 0 1-1V9l.005-.113C5.04 8.405 5.475 8 6 8l.113.005C6.595 8.04 7 8.475 7 9v2a1 1 0 0 0 1 1h3l.118-.007a1 1 0 0 0 .874-1.117L11 3.939V2a1 1 0 0 0-1-1H9l-.117.007A1 1 0 0 0 8 2v1h-.5V2a1 1 0 0 0-1-1h-1l-.117.007A1 1 0 0 0 4.5 2v1H4V2a1 1 0 0 0-1-1z"/></symbol><symbol id="hd-icon-garden-sandbox-fill-16" viewBox="0 0 16 16"><path fill="currentColor" d="m3 1l-.117.007A1 1 0 0 0 2 2v1.898L.02 13.804A1 1 0 0 0 1 15h4a1 1 0 0 0 1-1v-3l.005-.147C6.065 9.828 6.939 9 8 9l.147.005C9.172 9.065 10 9.939 10 11v3a1 1 0 0 0 1 1h4l.116-.007a1 1 0 0 0 .865-1.19L14 3.904V2a1 1 0 0 0-1-1h-1l-.117.007A1 1 0 0 0 11 2v1h-1V2a1 1 0 0 0-1-1H7l-.117.007A1 1 0 0 0 6 2v1H5V2a1 1 0 0 0-1-1z"/></symbol><symbol id="hd-icon-garden-sandbox-stroke-12" viewBox="0 0 12 12"><path fill="currentColor" d="m2 1l-.116.007A1 1 0 0 0 1 2v1.931l-.992 6.945A1 1 0 0 0 1 12h3a1 1 0 0 0 1-1V9l.005-.113C5.041 8.405 5.475 8 6 8l.113.005C6.595 8.04 7 8.475 7 9v2a1 1 0 0 0 1 1h3l.119-.007a1 1 0 0 0 .873-1.117L11 3.939V2a1 1 0 0 0-1-1H9l-.116.007A1 1 0 0 0 8 2v1h-.5V2a1 1 0 0 0-1-1h-1l-.116.007A1 1 0 0 0 4.5 2v1H4V2a1 1 0 0 0-1-1zm1 1v2h2.5V2h1v2H9V2h1v2l1 7H8V9a2 2 0 0 0-1.85-1.995L6 7a2 2 0 0 0-1.994 1.85L4 9v2H1l1-7V2z"/></symbol><symbol id="hd-icon-garden-sandbox-stroke-16" viewBox="0 0 16 16"><path fill="currentColor" d="m3 1l-.116.007A1 1 0 0 0 2 2v1.898L.02 13.804A1 1 0 0 0 1 15h4a1 1 0 0 0 1-1v-3l.005-.147C6.065 9.828 6.94 9 8 9l.148.005C9.172 9.065 10 9.939 10 11v3a1 1 0 0 0 1 1h4l.117-.007a1 1 0 0 0 .864-1.19L14 3.904V2a1 1 0 0 0-1-1h-1l-.117.007A1 1 0 0 0 11 2v1h-1V2a1 1 0 0 0-1-1H7l-.116.007A1 1 0 0 0 6 2v1H5V2a1 1 0 0 0-1-1zm1 1v2h3V2h2v2h3V2h1v2l2 10h-4v-3a3 3 0 0 0-2.823-2.995L8 8a3 3 0 0 0-2.995 2.824L5 11v3H1L3 4V2z"/></symbol><symbol id="hd-icon-garden-search-26" viewBox="0 0 26 26"><g fill="none" stroke="currentColor" stroke-linecap="round" stroke-width="2"><circle cx="11" cy="11" r="7"/><path d="m16 16l6 6"/></g></symbol><symbol id="hd-icon-garden-search-fill-12" viewBox="0 0 12 12"><circle cx="4.5" cy="4.5" r="3.5" fill="none" stroke="currentColor" stroke-width="2"/><path fill="currentColor" stroke="currentColor" stroke-linecap="round" stroke-width="2" d="M11 11L7.5 7.5"/></symbol><symbol id="hd-icon-garden-search-fill-16" viewBox="0 0 16 16"><circle cx="6" cy="6" r="5" fill="none" stroke="currentColor" stroke-width="2"/><path fill="currentColor" stroke="currentColor" stroke-linecap="round" stroke-width="2" d="m15 15l-5-5"/></symbol><symbol id="hd-icon-garden-search-stroke-12" viewBox="0 0 12 12"><circle cx="4.5" cy="4.5" r="4" fill="none" stroke="currentColor"/><path fill="currentColor" stroke="currentColor" stroke-linecap="round" d="M11 11L7.5 7.5"/></symbol><symbol id="hd-icon-garden-search-stroke-16" viewBox="0 0 16 16"><circle cx="6" cy="6" r="5.5" fill="none" stroke="currentColor"/><path fill="currentColor" stroke="currentColor" stroke-linecap="round" d="m15 15l-5-5"/></symbol><symbol id="hd-icon-garden-security-26" viewBox="0 0 26 26"><path fill="currentColor" d="m21.7 6.87l-8.5-3.78a.47.47 0 0 0-.4 0L4.3 6.87a.5.5 0 0 0-.3.45V10c0 4.92 2.94 10.88 8.82 12.94a.56.56 0 0 0 .36 0C19.06 20.88 22 14.92 22 10V7.32a.5.5 0 0 0-.3-.45m-4.012 3.31l-5.28 6.722a.88.88 0 0 1-.636.332l-.052.002a.88.88 0 0 1-.62-.257l-2.72-2.72a.875.875 0 1 1 1.24-1.237l2.022 2.022l4.67-5.945a.876.876 0 0 1 1.377 1.082z"/></symbol><symbol id="hd-icon-garden-settings-fill-26" viewBox="0 0 26 26"><path fill="currentColor" d="M13 16.627a3.625 3.625 0 0 1-3.63-3.622A3.633 3.633 0 0 1 13 9.373a3.633 3.633 0 0 1 3.63 3.632A3.625 3.625 0 0 1 13 16.627m8.295-4.902h-.006a2.12 2.12 0 0 1-1.955-1.307l-.031-.075a2.12 2.12 0 0 1 .459-2.306a.693.693 0 0 0 0-.998l-.809-.809a.71.71 0 0 0-.997 0a2.11 2.11 0 0 1-2.295.457l-.08-.033a2.11 2.11 0 0 1-1.302-1.948a.705.705 0 0 0-.705-.706h-1.148a.705.705 0 0 0-.705.706c0 .855-.514 1.628-1.306 1.95l-.063.027a2.11 2.11 0 0 1-2.308-.453a.72.72 0 0 0-1.006 0l-.81.81a.71.71 0 0 0 0 .997l.007.006a2.11 2.11 0 0 1 .454 2.305l-.028.066a2.1 2.1 0 0 1-1.95 1.311h-.006a.706.706 0 0 0-.705.706v1.138c0 .39.316.706.705.706h.002a2.1 2.1 0 0 1 1.949 1.306l.029.069a2.11 2.11 0 0 1-.452 2.31l-.004.003a.71.71 0 0 0 0 .998l.809.809a.72.72 0 0 0 1.006 0l.005-.005a2.11 2.11 0 0 1 2.307-.452l.059.024a2.1 2.1 0 0 1 1.306 1.95v.007c0 .395.32.706.705.706h1.148c.385 0 .705-.31.705-.706v-.007c0-.855.514-1.627 1.306-1.95l.059-.024a2.11 2.11 0 0 1 2.307.452l.005.005a.71.71 0 0 0 .997 0l.809-.81a.693.693 0 0 0 0-.997l-.004-.003a2.11 2.11 0 0 1-.452-2.31l.029-.069a2.1 2.1 0 0 1 1.948-1.306h.012a.706.706 0 0 0 .705-.706v-1.138a.706.706 0 0 0-.705-.706"/></symbol><symbol id="hd-icon-garden-shapes-26" viewBox="0 0 26 26"><path fill="currentColor" d="M19.75 14a5.75 5.75 0 1 1 0 11.5a5.75 5.75 0 0 1 0-11.5M10 15a1 1 0 0 1 1 1v8a1 1 0 0 1-1 1H2a1 1 0 0 1-1-1v-8a1 1 0 0 1 1-1zm3.934-13.49l5.063 9a1 1 0 0 1-.872 1.49H8a1 1 0 0 1-.872-1.49l5.063-9a1 1 0 0 1 1.743 0"/></symbol><symbol id="hd-icon-garden-shapes-fill-12" viewBox="0 0 12 12"><path fill="currentColor" d="M0 8a1 1 0 0 1 1-1h3a1 1 0 0 1 1 1v3a1 1 0 0 1-1 1H1a1 1 0 0 1-1-1zm9.25-1.5a2.75 2.75 0 1 1 0 5.5a2.75 2.75 0 0 1 0-5.5M6.832.445l2 3A1 1 0 0 1 8 5H4a1 1 0 0 1-.832-1.555l2-3a1 1 0 0 1 1.664 0"/></symbol><symbol id="hd-icon-garden-shapes-fill-16" viewBox="0 0 16 16"><path fill="currentColor" d="M6 9a1 1 0 0 1 1 1v5a1 1 0 0 1-1 1H1a1 1 0 0 1-1-1v-5a1 1 0 0 1 1-1zm6.25-.5a3.75 3.75 0 1 1 0 7.5a3.75 3.75 0 0 1 0-7.5M8.857.486l3 5A1 1 0 0 1 11 7H5a1 1 0 0 1-.857-1.514l3-5a1 1 0 0 1 1.714 0"/></symbol><symbol id="hd-icon-garden-shapes-stroke-12" viewBox="0 0 12 12"><path fill="currentColor" d="M4 7a1 1 0 0 1 1 1v3a1 1 0 0 1-1 1H1a1 1 0 0 1-1-1V8a1 1 0 0 1 1-1zm5.25-.5a2.75 2.75 0 1 1 0 5.5a2.75 2.75 0 0 1 0-5.5M4 8H1v3h3zm5.25-.5a1.75 1.75 0 1 0 0 3.5a1.75 1.75 0 0 0 0-3.5M6.832.445l2 3A1 1 0 0 1 8 5H4a1 1 0 0 1-.832-1.555l2-3a1 1 0 0 1 1.664 0M6 1L4 4h4z"/></symbol><symbol id="hd-icon-garden-shapes-stroke-16" viewBox="0 0 16 16"><path fill="currentColor" d="M6 9a1 1 0 0 1 1 1v5a1 1 0 0 1-1 1H1a1 1 0 0 1-1-1v-5a1 1 0 0 1 1-1zm6.25-.5a3.75 3.75 0 1 1 0 7.5a3.75 3.75 0 0 1 0-7.5M6 10H1v5h5zm6.25-.5a2.75 2.75 0 1 0 0 5.5a2.75 2.75 0 0 0 0-5.5M8.857.486l3 5A1 1 0 0 1 11 7H5a1 1 0 0 1-.857-1.514l3-5a1 1 0 0 1 1.714 0M8 1L5 6h6z"/></symbol><symbol id="hd-icon-garden-share-fill-12" viewBox="0 0 12 12"><path fill="none" stroke="currentColor" stroke-linecap="round" d="M5.5 7.5V1m2 3.5H10c.28 0 .5.22.5.5v6c0 .28-.22.5-.5.5H1c-.28 0-.5-.22-.5-.5V5c0-.28.22-.5.5-.5h2.5"/><path fill="currentColor" d="M8 2.5c0 .06-.01.13-.04.19c-.08.19-.26.31-.46.31h-4c-.2 0-.38-.12-.46-.31s-.04-.4.11-.54L4.79.5A.996.996 0 0 1 6.2.5l1.65 1.65c.1.09.15.22.15.35"/></symbol><symbol id="hd-icon-garden-share-fill-16" viewBox="0 0 16 16"><path fill="none" stroke="currentColor" stroke-linecap="round" d="M10.5 6.5H14c.28 0 .5.22.5.5v8c0 .28-.22.5-.5.5H1c-.28 0-.5-.22-.5-.5V7c0-.28.22-.5.5-.5h3.5m3 4V1"/><path fill="currentColor" d="M10.5 4h-6c-.45 0-.67-.54-.35-.85L6.79.5A.996.996 0 0 1 8.2.5l2.65 2.65c.32.31.1.85-.35.85"/></symbol><symbol id="hd-icon-garden-share-stroke-12" viewBox="0 0 12 12"><path fill="none" stroke="currentColor" stroke-linecap="round" d="M7.5 4.5H10c.3 0 .5.2.5.5v6c0 .3-.2.5-.5.5H1c-.3 0-.5-.2-.5-.5V5c0-.3.2-.5.5-.5h2.5m2 3V1m-2 1.5L5.1.9c.2-.2.5-.2.7 0l1.6 1.6"/></symbol><symbol id="hd-icon-garden-share-stroke-16" viewBox="0 0 16 16"><path fill="none" stroke="currentColor" stroke-linecap="round" d="M10.5 6.5H14c.3 0 .5.2.5.5v8c0 .3-.2.5-.5.5H1c-.3 0-.5-.2-.5-.5V7c0-.3.2-.5.5-.5h3.5m3 4V1m-3 2.5L7.1.9c.2-.2.5-.2.7 0l2.6 2.6"/></symbol><symbol id="hd-icon-garden-shield-fill-12" viewBox="0 0 12 12"><path fill="currentColor" d="M6 12c-.81 0-5-2.78-5-8V2.5c0-.2.12-.38.3-.46l4.5-2a.5.5 0 0 1 .41 0l4.5 2c.17.08.29.26.29.46V4c0 5.22-4.19 8-5 8m.05-1"/></symbol><symbol id="hd-icon-garden-shield-fill-16" viewBox="0 0 16 16"><path fill="currentColor" d="M8 16q-.09 0-.18-.03C7.75 15.94 1 13.25 1 5V3c0-.21.13-.39.32-.47l6.5-2.5q.18-.06.36 0l6.5 2.5c.19.08.32.26.32.47v2c0 8.25-6.75 10.94-6.82 10.97Q8.09 16 8 16"/></symbol><symbol id="hd-icon-garden-shield-stroke-12" viewBox="0 0 12 12"><path fill="none" stroke="currentColor" stroke-linejoin="round" d="M6 11.5c.5 0 4.5-2.5 4.5-7.5V2.5L6 .5l-4.5 2V4c0 5 4 7.5 4.5 7.5z"/></symbol><symbol id="hd-icon-garden-shield-stroke-16" viewBox="0 0 16 16"><path fill="none" stroke="currentColor" stroke-linecap="round" d="M8 15.5S14.5 13 14.5 5V3L8 .5L1.5 3v2C1.5 13 8 15.5 8 15.5z"/></symbol><symbol id="hd-icon-garden-shopping-cart-fill-12" viewBox="0 0 12 12"><path fill="currentColor" d="M4.55 9.5a1.25 1.25 0 1 1 0 2.5a1.25 1.25 0 0 1 0-2.5m5.2 0a1.25 1.25 0 1 1 0 2.5a1.25 1.25 0 0 1 0-2.5m0 1a.25.25 0 1 0 0 .5a.25.25 0 0 0 0-.5m-5.2 0a.25.25 0 1 0 0 .5a.25.25 0 0 0 0-.5M1.7 0a.5.5 0 0 1 .398.197l.05.08l.359.722L11 1a1 1 0 0 1 .94 1.341l-.046.106l-2 4a1 1 0 0 1-.77.545L9 7H5a1 1 0 0 1-.182-.017L4.309 8H10.5a.5.5 0 0 1 .09.992L10.5 9H4.309a1 1 0 0 1-.94-1.34l.046-.107l.621-1.244l-1.93-3.862a1 1 0 0 1-.05-.116L1.39 1H.5A.5.5 0 0 1 .008.59L0 .5A.5.5 0 0 1 .41.008L.5 0z"/></symbol><symbol id="hd-icon-garden-shopping-cart-fill-16" viewBox="0 0 16 16"><path fill="currentColor" d="M5.5 13a1.5 1.5 0 1 1 0 3a1.5 1.5 0 0 1 0-3m8 0a1.5 1.5 0 1 1 0 3a1.5 1.5 0 0 1 0-3m-8 .9a.6.6 0 1 0 0 1.2a.6.6 0 0 0 0-1.2m8 0a.6.6 0 1 0 0 1.2a.6.6 0 0 0 0-1.2M2.5 0a.5.5 0 0 1 .43.245l.038.08L3.596 2H15a1 1 0 0 1 .965 1.262l-.037.11l-2 5a1 1 0 0 1-.807.62L13 9H6q-.08 0-.156-.012L5.04 11h9.46a.5.5 0 0 1 .09.992L14.5 12H5.039a1 1 0 0 1-.969-1.25l.04-.121l.853-2.135L2.152.999L.5 1A.5.5 0 0 1 .008.59L0 .5A.5.5 0 0 1 .41.008L.5 0z"/></symbol><symbol id="hd-icon-garden-shopping-cart-stroke-12" viewBox="0 0 12 12"><path fill="currentColor" d="M4.55 9.5a1.25 1.25 0 1 1 0 2.5a1.25 1.25 0 0 1 0-2.5m5.2 0a1.25 1.25 0 1 1 0 2.5a1.25 1.25 0 0 1 0-2.5m-5.2 1a.25.25 0 1 0 0 .5a.25.25 0 0 0 0-.5m5.2 0a.25.25 0 1 0 0 .5a.25.25 0 0 0 0-.5M11 1a1 1 0 0 1 .94 1.341l-.046.106l-2 4a1 1 0 0 1-.77.545L9 7H5a1 1 0 0 1-.182-.017L4.309 8H10.5a.5.5 0 0 1 .09.992L10.5 9H4.309a1 1 0 0 1-.94-1.34l.046-.107l.621-1.244l-1.93-3.862a1 1 0 0 1-.05-.116L1.39 1H.5A.5.5 0 0 1 .008.59L0 .5A.5.5 0 0 1 .41.008L.5 0h1.2a.5.5 0 0 1 .398.197l.05.08l.361.723zm0 1H3.009l1.938 3.876l.033.084L5 6h4z"/></symbol><symbol id="hd-icon-garden-shopping-cart-stroke-16" viewBox="0 0 16 16"><path fill="currentColor" d="M5.5 13a1.5 1.5 0 1 1 0 3a1.5 1.5 0 0 1 0-3m8 0a1.5 1.5 0 1 1 0 3a1.5 1.5 0 0 1 0-3m-8 .9a.6.6 0 1 0 0 1.2a.6.6 0 0 0 0-1.2m8 0a.6.6 0 1 0 0 1.2a.6.6 0 0 0 0-1.2M15 2a1 1 0 0 1 .965 1.262l-.037.11l-2 5a1 1 0 0 1-.807.62L13 9H6q-.08 0-.156-.012L5.04 11h9.46a.5.5 0 0 1 .09.992L14.5 12H5.039a1 1 0 0 1-.969-1.25l.04-.121l.853-2.135L2.152.999L.5 1A.5.5 0 0 1 .008.59L0 .5A.5.5 0 0 1 .41.008L.5 0h2a.5.5 0 0 1 .43.245l.038.08L3.597 2zm0 1H4l2 5h7z"/></symbol><symbol id="hd-icon-garden-signpost-fill-12" viewBox="0 0 12 12"><path fill="currentColor" d="M5 0h2v1H5zm0 8h2v4H5zm4.29-1H2a1 1 0 0 1-1-1V3a1 1 0 0 1 1-1h7.29a1 1 0 0 1 .71.29l1.5 1.5a1 1 0 0 1 0 1.41L10 6.71a1 1 0 0 1-.71.29"/></symbol><symbol id="hd-icon-garden-signpost-fill-16" viewBox="0 0 16 16"><path fill="currentColor" d="M7 0h1.96v2H7zm0 11h2v5H7zm5.5-1H2a1 1 0 0 1-1-1V4a1 1 0 0 1 1-1h10.5a.5.5 0 0 1 .35.15l2.65 2.64a1 1 0 0 1 0 1.41l-2.65 2.65a.5.5 0 0 1-.35.15"/></symbol><symbol id="hd-icon-garden-signpost-stroke-12" viewBox="0 0 12 12"><path fill="none" stroke="currentColor" d="M2 2.5h7.293a.5.5 0 0 1 .354.146l1.5 1.5a.5.5 0 0 1 0 .707l-1.5 1.5a.5.5 0 0 1-.354.147H2a.5.5 0 0 1-.5-.5V3a.5.5 0 0 1 .5-.5z"/><path fill="currentColor" d="M5 0h2v1H5zm0 8h2v4H5z"/></symbol><symbol id="hd-icon-garden-signpost-stroke-16" viewBox="0 0 16 16"><path fill="none" stroke="currentColor" d="M12.293 9.5H2a.5.5 0 0 1-.5-.5V4a.5.5 0 0 1 .5-.5h10.293a.5.5 0 0 1 .354.146l2.5 2.5a.5.5 0 0 1 0 .707l-2.5 2.5a.5.5 0 0 1-.354.147z"/><path fill="currentColor" d="M7 0h2v2H7zm0 11h2v5H7z"/></symbol><symbol id="hd-icon-garden-slack-fill-12" viewBox="0 0 12 12"><path fill="currentColor" d="M4.435 0a1.304 1.304 0 1 0 0 2.609h1.304V1.304A1.304 1.304 0 0 0 4.435 0m3.13 0c-.72 0-1.304.584-1.304 1.304v3.13a1.304 1.304 0 1 0 2.609 0v-3.13C8.87.584 8.286 0 7.565 0m-6.26 3.13a1.304 1.304 0 1 0 0 2.61h3.13a1.304 1.304 0 1 0 0-2.61zm9.39 0c-.72 0-1.304.584-1.304 1.305v1.304h1.305a1.304 1.304 0 1 0 0-2.609zm-9.39 3.13a1.304 1.304 0 1 0 1.304 1.305V6.261H1.304zm3.13 0c-.72 0-1.305.585-1.305 1.305v3.13a1.304 1.304 0 1 0 2.61 0v-3.13c0-.72-.585-1.304-1.305-1.304zm3.13 0a1.304 1.304 0 1 0 0 2.61h3.13a1.304 1.304 0 1 0 0-2.61zM6.261 9.392v1.305A1.304 1.304 0 1 0 7.565 9.39H6.261z"/></symbol><symbol id="hd-icon-garden-slack-fill-16" viewBox="0 0 16 16"><path fill="currentColor" d="M5.913 0a1.739 1.739 0 1 0 0 3.478h1.74V1.74A1.743 1.743 0 0 0 5.912 0zm4.174 0c-.96 0-1.74.778-1.74 1.74v4.173a1.739 1.739 0 1 0 3.48 0V1.739c0-.96-.78-1.739-1.74-1.739M1.739 4.174a1.739 1.739 0 1 0 0 3.478h4.174a1.739 1.739 0 1 0 0-3.478zm12.522 0c-.96 0-1.74.778-1.74 1.739v1.74h1.74a1.739 1.739 0 1 0 0-3.48zM1.739 8.348a1.739 1.739 0 1 0 1.74 1.739v-1.74zm4.174 0c-.96 0-1.74.778-1.74 1.739v4.174a1.739 1.739 0 1 0 3.48 0v-4.174c0-.96-.78-1.74-1.74-1.74zm4.174 0a1.739 1.739 0 1 0 0 3.478h4.174a1.739 1.739 0 1 0 0-3.478zm-1.74 4.174v1.739a1.739 1.739 0 1 0 1.74-1.74z"/></symbol><symbol id="hd-icon-garden-slack-stroke-12" viewBox="0 0 12 12"><path fill="currentColor" d="M7.304 0c1.069 0 1.96.806 2.08 1.915l.007.172v.588A2.087 2.087 0 0 1 12 4.696c0 .49-.17.943-.46 1.3c.288.358.46.813.46 1.308c0 1.069-.806 1.96-1.915 2.08l-.172.007h-.588A2.087 2.087 0 0 1 7.304 12c-.49 0-.943-.17-1.3-.46a2.08 2.08 0 0 1-1.308.46c-1.069 0-1.96-.806-2.08-1.915l-.007-.172v-.588A2.087 2.087 0 0 1 0 7.304c0-.49.17-.943.46-1.3A2.08 2.08 0 0 1 0 4.695c0-1.069.806-1.96 1.915-2.08l.172-.007h.588A2.087 2.087 0 0 1 4.696 0c.49 0 .943.17 1.3.46C6.355.172 6.81 0 7.305 0zM4.696 6.217c-.56 0-1.022.424-1.08.969l-.007.118v2.609l.006.119a1.087 1.087 0 0 0 2.161 0l.007-.119V7.304l-.007-.118a1.087 1.087 0 0 0-1.08-.969m2.608 2.61H6.217v1.086l.007.119a1.087 1.087 0 1 0 1.08-1.206zm-4.13-2.61H2.087l-.119.007a1.087 1.087 0 1 0 1.2 1.199l.006-.119zm6.739 0H7.304l-.118.007a1.087 1.087 0 0 0 0 2.16l.118.007h2.609l.119-.006a1.087 1.087 0 0 0-.119-2.168M7.304 1c-.56 0-1.021.424-1.08.968l-.007.119v2.609l.007.118a1.087 1.087 0 0 0 2.16 0l.007-.118V2.087l-.006-.119A1.087 1.087 0 0 0 7.305 1zM4.696 3.609H2.087l-.119.006a1.087 1.087 0 0 0 0 2.161l.119.007h2.609l.118-.007a1.087 1.087 0 0 0-.118-2.167m5.217 0c-.56 0-1.022.424-1.08.968l-.007.119v1.087h1.087l.119-.007a1.087 1.087 0 0 0-.119-2.167M4.696 1a1.087 1.087 0 1 0 0 2.174h1.087V2.087l-.007-.119A1.087 1.087 0 0 0 4.696 1"/></symbol><symbol id="hd-icon-garden-slack-stroke-16" viewBox="0 0 16 16"><path fill="currentColor" d="M9.826 0a2.52 2.52 0 0 1 2.516 2.356l.006.166l-.001 1.398A2.522 2.522 0 0 1 15.217 8a2.522 2.522 0 0 1-1.573 4.342l-.166.006l-1.398-.001A2.522 2.522 0 0 1 8 15.218a2.522 2.522 0 0 1-4.343-1.574l-.005-.166l.001-1.398c-.294.148-.62.24-.965.262l-.166.006A2.522 2.522 0 0 1 .782 8a2.522 2.522 0 0 1 1.574-4.343l.166-.006l1.398.001a2.5 2.5 0 0 1-.262-.965l-.006-.166A2.522 2.522 0 0 1 8 .782A2.5 2.5 0 0 1 9.826 0M6.174 8.304c-.84 0-1.522.681-1.522 1.522v3.652a1.522 1.522 0 1 0 3.044 0V9.826c0-.84-.681-1.522-1.522-1.522m3.652 3.653H8.304v1.521a1.522 1.522 0 1 0 1.522-1.521M4.043 8.304H2.522a1.522 1.522 0 1 0 1.521 1.522zm9.435 0H9.826a1.522 1.522 0 1 0 0 3.044h3.652a1.522 1.522 0 1 0 0-3.044M9.826 1c-.84 0-1.522.681-1.522 1.522v3.652a1.522 1.522 0 1 0 3.044 0V2.522c0-.84-.681-1.522-1.522-1.522M6.174 4.652H2.522a1.522 1.522 0 1 0 0 3.044h3.652a1.522 1.522 0 1 0 0-3.044m7.304 0c-.84 0-1.521.681-1.521 1.522v1.522h1.521a1.522 1.522 0 1 0 0-3.044M6.174 1a1.522 1.522 0 1 0 0 3.043h1.522V2.522C7.696 1.682 7.015 1 6.174 1"/></symbol><symbol id="hd-icon-garden-smile-slight-fill-12" viewBox="0 0 12 12"><path fill="currentColor" d="M6 0a6 6 0 1 0 6 6a6 6 0 0 0-6-6M3 5a1 1 0 1 1 1 1a1 1 0 0 1-1-1m5.11 3.45a5.5 5.5 0 0 1-4.22 0a.62.62 0 0 1-.34-.81a.63.63 0 0 1 .82-.34a4.3 4.3 0 0 0 3.26 0a.63.63 0 0 1 .82.34a.62.62 0 0 1-.34.81M8 6a1 1 0 1 1 1-1a1 1 0 0 1-1 1"/></symbol><symbol id="hd-icon-garden-smile-slight-fill-16" viewBox="0 0 16 16"><path fill="currentColor" d="M8 0a8 8 0 1 0 8 8a8 8 0 0 0-8-8m2 5a1 1 0 1 1-1 1a1 1 0 0 1 1-1M6 5a1 1 0 1 1-1 1a1 1 0 0 1 1-1m4.74 6.08a7.22 7.22 0 0 1-5.48 0a.63.63 0 0 1 .48-1.16a5.9 5.9 0 0 0 4.52 0a.63.63 0 1 1 .48 1.16"/></symbol><symbol id="hd-icon-garden-smile-slight-stroke-12" viewBox="0 0 12 12"><g fill="none" stroke="currentColor"><circle cx="6" cy="6" r="5.5"/><path stroke-linecap="round" d="M4.13 7.88a4.94 4.94 0 0 0 3.74 0"/></g><g fill="currentColor"><circle cx="4" cy="5" r="1"/><circle cx="8" cy="5" r="1"/></g></symbol><symbol id="hd-icon-garden-smile-slight-stroke-16" viewBox="0 0 16 16"><g fill="none" stroke="currentColor"><circle cx="8" cy="8" r="7.5"/><path stroke-linecap="round" d="M5.5 10.5a6.56 6.56 0 0 0 5 0"/></g><g fill="currentColor"><circle cx="10" cy="6" r="1"/><circle cx="6" cy="6" r="1"/></g></symbol><symbol id="hd-icon-garden-smiley-fill-12" viewBox="0 0 12 12"><path fill="currentColor" d="M6 0C2.69 0 0 2.69 0 6s2.69 6 6 6s6-2.69 6-6s-2.69-6-6-6m2 4c.55 0 1 .45 1 1s-.45 1-1 1s-1-.45-1-1s.45-1 1-1M4 4c.55 0 1 .45 1 1s-.45 1-1 1s-1-.45-1-1s.45-1 1-1m5.03 3.75a3.5 3.5 0 0 1-6.06 0a.493.493 0 0 1 .18-.68c.24-.14.55-.06.68.18C4.28 8.02 5.11 8.5 6 8.5s1.72-.48 2.17-1.25c.13-.24.44-.32.68-.18s.32.44.18.68"/></symbol><symbol id="hd-icon-garden-smiley-fill-16" viewBox="0 0 16 16"><path fill="currentColor" d="M8 0C3.58 0 0 3.58 0 8s3.58 8 8 8s8-3.58 8-8s-3.58-8-8-8m2 5c.55 0 1 .45 1 1s-.45 1-1 1s-1-.45-1-1s.45-1 1-1M6 5c.55 0 1 .45 1 1s-.45 1-1 1s-1-.45-1-1s.45-1 1-1m6.48 4.16A4.63 4.63 0 0 1 8 12.63c-2.11 0-3.95-1.42-4.48-3.46c-.08-.34.12-.68.45-.77c.34-.09.68.11.76.45A3.38 3.38 0 0 0 8 11.38a3.38 3.38 0 0 0 3.27-2.53c.09-.33.42-.53.76-.45c.33.08.54.42.45.76"/></symbol><symbol id="hd-icon-garden-smiley-stroke-12" viewBox="0 0 12 12"><g fill="none" stroke="currentColor"><circle cx="6" cy="6" r="5.5"/><path stroke-linecap="round" d="M3.5 7.5C4 8.4 4.9 9 6 9s2-.6 2.5-1.5"/></g><g fill="currentColor"><circle cx="4" cy="5" r="1"/><circle cx="8" cy="5" r="1"/></g></symbol></svg>