<svg xmlns="http://www.w3.org/2000/svg" xmlns:xlink="http://www.w3.org/1999/xlink"><symbol id="hd-icon-garden-123-fill-12" viewBox="0 0 12 12"><path fill="currentColor" d="M11 0a1 1 0 0 1 1 1v10a1 1 0 0 1-1 1H1a1 1 0 0 1-1-1V1a1 1 0 0 1 1-1zM5.926 3l-.17.006a1.39 1.39 0 0 0-1.25 1.25l-.006.133V4.5l.008.09a.5.5 0 0 0 .984 0L5.5 4.5v-.111l.008-.078a.39.39 0 0 1 .303-.303L5.889 4h.037l.091.007a.567.567 0 0 1 .426.79l-.096.201l-.223.43l-.394.73l-1.171 2.107a.5.5 0 0 0 .357.728L5 9h2l.09-.008a.5.5 0 0 0 .402-.402L7.5 8.5l-.008-.09a.5.5 0 0 0-.402-.402L7 8H5.85l.347-.621l.584-1.06l.39-.737l.138-.274l.048-.105a1.567 1.567 0 0 0-1.289-2.197zM2.502 3l-.044.002l-.032.003l-.054.012l-.063.02l-.059.03l-.062.042l-.042.037l-1 1l-.057.07a.5.5 0 0 0 .695.695l.07-.057L2 4.706V8h-.5l-.09.008a.5.5 0 0 0 0 .984L1.5 9h2l.09-.008a.5.5 0 0 0 0-.984L3.5 8H3V3.5l-.002-.046l-.015-.082l-.02-.063l-.03-.059l-.042-.062l-.037-.042l-.032-.028l-.055-.04l-.076-.04l-.063-.021l-.061-.012zM10.5 3h-2l-.09.008a.5.5 0 0 0-.402.402L8 3.5l.008.09a.5.5 0 0 0 .402.402L8.5 4l1-.001L8.6 5.2A.5.5 0 0 0 9 6c.645 0 .875.173.96.51c.019.078.03.153.035.252L10 7l-.004.253l-.014.189l-.012.087C9.912 7.875 9.8 8 9.5 8c-.39 0-.5-.11-.5-.5a.5.5 0 0 0-1 0C8 8.443 8.557 9 9.5 9c.86 0 1.326-.525 1.456-1.307c.03-.174.04-.318.043-.525v-.344a2.5 2.5 0 0 0-.04-.421l-.03-.135l-.042-.145a1.5 1.5 0 0 0-.695-.854l-.152-.076l-.143-.057L10.9 3.8a.5.5 0 0 0-.315-.793z"/></symbol><symbol id="hd-icon-garden-123-fill-16" viewBox="0 0 16 16"><path fill="currentColor" d="M15 0a1 1 0 0 1 1 1v14a1 1 0 0 1-1 1H1a1 1 0 0 1-1-1V1a1 1 0 0 1 1-1zm-.5 4h-3l-.09.008A.5.5 0 0 0 11 4.5l.008.09A.5.5 0 0 0 11.5 5h2.19l-.226.3l-.238.297l-.278.338l-.318.376l-.357.411l-.395.444A.5.5 0 0 0 12.25 8c1.197 0 1.612.398 1.719 1.25l.017.173l.012.302L14 10c0 .117-.035.327-.135.526c-.152.305-.405.474-.865.474c-.724 0-1-.276-1-1a.5.5 0 1 0-1 0c0 1.276.724 2 2 2c.853 0 1.443-.394 1.76-1.026A2.2 2.2 0 0 0 15 10l-.002-.308l-.008-.243l-.017-.215l-.012-.109l-.024-.164c-.158-.913-.65-1.547-1.561-1.817l-.116-.031l.108-.122l.351-.413l.307-.374q.072-.088.137-.173l.242-.32C14.809 5.156 15 4.77 15 4.5a.5.5 0 0 0-.5-.5m-5 2c0-2.667-4-2.667-4 0a.5.5 0 1 0 1 0c0-1.333 2-1.333 2 0c0 .567-.24 1.064-.802 1.768l-.066.08l-.758.91c-.765.948-1.171 1.678-1.364 2.644A.5.5 0 0 0 6 12h3l.09-.008a.5.5 0 0 0 .41-.492l-.008-.09A.5.5 0 0 0 9 11H6.658l.055-.139c.197-.473.499-.93.95-1.49l.782-.938l.199-.253C9.223 7.413 9.5 6.773 9.5 6M2.502 4l-.044.002l-.032.003l-.054.012l-.063.02l-.059.03l-.062.042l-.042.037l-1 1l-.057.07a.5.5 0 0 0 .765.638L2 5.706V11h-.5l-.09.008A.5.5 0 0 0 1.5 12h2l.09-.008A.5.5 0 0 0 3.5 11H3V4.5l-.002-.046l-.015-.082l-.02-.063l-.03-.059l-.042-.062l-.037-.042l-.032-.028l-.055-.04l-.076-.04l-.063-.021l-.061-.012z"/></symbol><symbol id="hd-icon-garden-123-stroke-12" viewBox="0 0 12 12"><path fill="currentColor" d="M10.5 3a.5.5 0 0 1 .4.8L9.897 5.136l.143.057c.424.188.705.508.847.93l.043.145c.046.186.063.34.068.556L11 7c0 .304-.008.476-.044.693C10.826 8.475 10.36 9 9.5 9C8.557 9 8 8.443 8 7.5a.5.5 0 0 1 1 0c0 .39.11.5.5.5c.301 0 .412-.125.47-.471l.012-.087l.014-.19l.004-.114V7c0-.238-.008-.36-.04-.49C9.874 6.173 9.644 6 9 6a.5.5 0 0 1-.4-.8l.9-1.201L8.5 4a.5.5 0 0 1-.492-.41L8 3.5a.5.5 0 0 1 .41-.492L8.5 3zM5.926 3a1.567 1.567 0 0 1 1.431 2.203l-.048.105l-.137.274l-.391.736l-.584 1.061L5.85 8H7a.5.5 0 0 1 .492.41l.008.09a.5.5 0 0 1-.41.492L7 9H5a.5.5 0 0 1-.441-.735l1.17-2.108l.395-.728l.223-.43a5 5 0 0 0 .096-.202a.567.567 0 0 0-.426-.79L5.926 4h-.037a.39.39 0 0 0-.38.31l-.009.08v.11a.5.5 0 0 1-.992.09L4.5 4.5v-.111a1.39 1.39 0 0 1 1.255-1.383L5.925 3zM1.5 9a.5.5 0 0 1-.09-.992L1.5 8H2V4.706l-.146.148a.5.5 0 0 1-.765-.638l.057-.07l1-1l.042-.037l.062-.042l.06-.03l.062-.02l.054-.012l.032-.003L2.512 3q.03 0 .062.005L2.5 3l.053.003l.075.014l.063.02l.076.04l.055.04l.032.03l.037.041l.042.062l.03.06l.02.062l.015.082L3 3.5V8h.5a.5.5 0 0 1 .09.992L3.5 9z"/></symbol><symbol id="hd-icon-garden-123-stroke-16" viewBox="0 0 16 16"><path fill="currentColor" d="M14.5 4a.5.5 0 0 1 .5.5c0 .27-.19.656-.595 1.211l-.242.32l-.137.173l-.307.374l-.35.413l-.109.122l.116.031c.912.27 1.403.904 1.56 1.817l.025.164l.012.11l.017.214l.008.243L15 10c0 .258-.059.61-.24.974C14.443 11.606 13.853 12 13 12c-1.276 0-2-.724-2-2a.5.5 0 1 1 1 0c0 .724.276 1 1 1c.46 0 .713-.169.865-.474c.1-.199.135-.41.135-.526l-.002-.275l-.012-.302l-.017-.173C13.862 8.398 13.447 8 12.25 8a.5.5 0 0 1-.372-.834l.395-.444l.357-.41l.318-.377l.278-.338l.238-.298L13.69 5H11.5a.5.5 0 0 1-.492-.41L11 4.5a.5.5 0 0 1 .41-.492L11.5 4zm-9 2c0-2.667 4-2.667 4 0c0 .773-.277 1.413-.856 2.18l-.199.253l-.781.939c-.452.559-.754 1.016-.951 1.489L6.658 11H9a.5.5 0 0 1 .492.41l.008.09a.5.5 0 0 1-.41.492L9 12H6a.5.5 0 0 1-.49-.598c.193-.966.599-1.696 1.364-2.645l.758-.908l.066-.081C8.26 7.064 8.5 6.568 8.5 6c0-1.333-2-1.333-2 0a.5.5 0 0 1-1 0m-4 6a.5.5 0 0 1-.09-.992L1.5 11H2V5.706l-.146.148a.5.5 0 0 1-.765-.638l.057-.07l1-1l.042-.037l.062-.042l.06-.03l.062-.02l.054-.012l.032-.003L2.512 4q.03 0 .062.005L2.5 4l.053.003l.075.014l.063.02l.076.04l.055.04l.032.03l.037.041l.042.062l.03.06l.02.062l.015.082L3 4.5V11h.5a.5.5 0 0 1 .09.992L3.5 12z"/></symbol><symbol id="hd-icon-garden-adjust-fill-12" viewBox="0 0 12 12"><path fill="currentColor" stroke="currentColor" stroke-linecap="round" d="M3.5.5v1m0 7v3m5-11v3m0 7v1"/><g fill="currentColor"><circle cx="8.5" cy="7" r="2"/><circle cx="3.5" cy="5" r="2"/></g></symbol><symbol id="hd-icon-garden-adjust-fill-16" viewBox="0 0 16 16"><path fill="none" stroke="currentColor" stroke-linecap="round" d="M4.5.5v2m0 8v5m7-15v5m0 8v2"/><g fill="currentColor"><circle cx="4.5" cy="6.5" r="2.5"/><circle cx="11.5" cy="9.5" r="2.5"/></g></symbol><symbol id="hd-icon-garden-adjust-stroke-12" viewBox="0 0 12 12"><g fill="none" stroke="currentColor"><circle cx="8.5" cy="7" r="1.5"/><circle cx="3.5" cy="5" r="1.5"/><path stroke-linecap="round" d="M3.5.5v1m0 7v3m5-11v3m0 7v1"/></g></symbol><symbol id="hd-icon-garden-adjust-stroke-16" viewBox="0 0 16 16"><g fill="none" stroke="currentColor"><circle cx="4.5" cy="6.5" r="2"/><circle cx="11.5" cy="9.5" r="2"/><path stroke-linecap="round" d="M4.5.5v2m0 8v5m7-15v5m0 8v2"/></g></symbol><symbol id="hd-icon-garden-alert-error-fill-12" viewBox="0 0 12 12"><path fill="currentColor" d="M5.5 1C2.46 1 0 3.46 0 6.5S2.46 12 5.5 12S11 9.54 11 6.5S8.54 1 5.5 1M5 3.5c0-.28.22-.5.5-.5s.5.22.5.5v3c0 .28-.22.5-.5.5S5 6.78 5 6.5zm.5 6.5c-.55 0-1-.45-1-1s.45-1 1-1s1 .45 1 1s-.45 1-1 1"/></symbol><symbol id="hd-icon-garden-alert-error-fill-16" viewBox="0 0 16 16"><path fill="currentColor" d="M7.5 1C3.36 1 0 4.36 0 8.5S3.36 16 7.5 16S15 12.64 15 8.5S11.64 1 7.5 1M7 4.5c0-.28.22-.5.5-.5s.5.22.5.5V9c0 .28-.22.5-.5.5S7 9.28 7 9zm.5 8.5c-.55 0-1-.45-1-1s.45-1 1-1s1 .45 1 1s-.45 1-1 1"/></symbol><symbol id="hd-icon-garden-alert-error-stroke-12" viewBox="0 0 12 12"><g fill="none" stroke="currentColor"><circle cx="5.5" cy="6.5" r="5"/><path stroke-linecap="round" d="M5.5 3.5v3"/></g><circle cx="5.5" cy="9" r="1" fill="currentColor"/></symbol><symbol id="hd-icon-garden-alert-error-stroke-16" viewBox="0 0 16 16"><g fill="none" stroke="currentColor"><circle cx="7.5" cy="8.5" r="7"/><path stroke-linecap="round" d="M7.5 4.5V9"/></g><circle cx="7.5" cy="12" r="1" fill="currentColor"/></symbol><symbol id="hd-icon-garden-alert-warning-fill-12" viewBox="0 0 12 12"><path fill="currentColor" d="m10.88 9.53l-4.5-8.5c-.35-.66-1.42-.66-1.77 0l-4.5 8.5A1.006 1.006 0 0 0 1 11h9c.35 0 .67-.18.86-.48a1 1 0 0 0 .02-.99M5 4c0-.28.22-.5.5-.5s.5.22.5.5v2c0 .28-.22.5-.5.5S5 6.28 5 6zm.5 5.3c-.44 0-.8-.36-.8-.8s.36-.8.8-.8s.8.36.8.8s-.36.8-.8.8"/></symbol><symbol id="hd-icon-garden-alert-warning-fill-16" viewBox="0 0 16 16"><path fill="currentColor" d="M14.57 13.54L8.39 1.63c-.34-.67-1.43-.67-1.78 0L.43 13.54c-.16.31-.15.68.03.98s.51.48.86.48h12.36c.35 0 .67-.18.85-.48s.2-.67.04-.98M7 6c0-.28.22-.5.5-.5s.5.22.5.5v3.5c0 .28-.22.5-.5.5S7 9.78 7 9.5zm.5 7c-.55 0-1-.45-1-1s.45-1 1-1s1 .45 1 1s-.45 1-1 1"/></symbol><symbol id="hd-icon-garden-alert-warning-stroke-12" viewBox="0 0 12 12"><path fill="none" stroke="currentColor" stroke-linecap="round" d="m5.06 1.27l-4.5 8.5c-.18.33.06.73.44.73h9c.38 0 .62-.4.44-.73l-4.5-8.5a.494.494 0 0 0-.88 0zM5.5 4v2"/><circle cx="5.5" cy="8" r=".8" fill="currentColor"/></symbol><symbol id="hd-icon-garden-alert-warning-stroke-16" viewBox="0 0 16 16"><path fill="none" stroke="currentColor" stroke-linecap="round" d="M.88 13.77L7.06 1.86c.19-.36.7-.36.89 0l6.18 11.91c.17.33-.07.73-.44.73H1.32c-.37 0-.61-.4-.44-.73zM7.5 6v3.5"/><circle cx="7.5" cy="12" r="1" fill="currentColor"/></symbol><symbol id="hd-icon-garden-align-center-fill-12" viewBox="0 0 12 12"><path fill="currentColor" stroke="currentColor" stroke-linecap="round" stroke-width="2" d="M2 1h8M4 4h4M2 7h8m-6 3h4"/></symbol><symbol id="hd-icon-garden-align-center-fill-16" viewBox="0 0 16 16"><path fill="currentColor" stroke="currentColor" stroke-linecap="round" stroke-width="2" d="M2 2h12M4 6h8M2 10h12M4 14h8"/></symbol><symbol id="hd-icon-garden-align-center-stroke-12" viewBox="0 0 12 12"><path fill="currentColor" stroke="currentColor" stroke-linecap="round" d="M1.5 1.5h9m-7 3h5m-7 3h9m-7 3h5"/></symbol><symbol id="hd-icon-garden-align-center-stroke-16" viewBox="0 0 16 16"><path fill="currentColor" stroke="currentColor" stroke-linecap="round" d="M1.5 1.5h13m-11 4h9m-11 4h13m-11 4h9"/></symbol><symbol id="hd-icon-garden-align-justify-fill-12" viewBox="0 0 12 12"><path fill="currentColor" d="M2 11a1 1 0 0 1 0-2h8a1 1 0 0 1 0 2zm0-3a1 1 0 1 1 0-2h8a1 1 0 0 1 0 2zm0-3a1 1 0 1 1 0-2h8a1 1 0 0 1 0 2zm0-3a1 1 0 1 1 0-2h8a1 1 0 0 1 0 2z"/></symbol><symbol id="hd-icon-garden-align-justify-fill-16" viewBox="0 0 16 16"><path fill="currentColor" d="M2 15a1 1 0 0 1 0-2h12a1 1 0 0 1 0 2zm0-4a1 1 0 0 1 0-2h12a1 1 0 0 1 0 2zm0-4a1 1 0 1 1 0-2h12a1 1 0 0 1 0 2zm0-4a1 1 0 1 1 0-2h12a1 1 0 0 1 0 2z"/></symbol><symbol id="hd-icon-garden-align-justify-stroke-12" viewBox="0 0 12 12"><path fill="currentColor" d="M1.5 11a.5.5 0 1 1 0-1h9a.5.5 0 1 1 0 1zm0-3a.5.5 0 0 1 0-1h9a.5.5 0 1 1 0 1zm0-3a.5.5 0 0 1 0-1h9a.5.5 0 1 1 0 1zm0-3a.5.5 0 0 1 0-1h9a.5.5 0 1 1 0 1z"/></symbol><symbol id="hd-icon-garden-align-justify-stroke-16" viewBox="0 0 16 16"><path fill="currentColor" d="M1.5 10a.5.5 0 0 1 0-1h13a.5.5 0 1 1 0 1zm0-8a.5.5 0 0 1 0-1h13a.5.5 0 1 1 0 1zm0 4a.5.5 0 0 1 0-1h13a.5.5 0 1 1 0 1zm0 8a.5.5 0 1 1 0-1h13a.5.5 0 1 1 0 1z"/></symbol><symbol id="hd-icon-garden-align-left-fill-12" viewBox="0 0 12 12"><path fill="currentColor" stroke="currentColor" stroke-linecap="round" stroke-width="2" d="M2 1h8M2 4h5M2 7h8m-8 3h5"/></symbol><symbol id="hd-icon-garden-align-left-fill-16" viewBox="0 0 16 16"><path fill="currentColor" stroke="currentColor" stroke-linecap="round" stroke-width="2" d="M2 2h12M2 6h8m-8 4h12M2 14h8"/></symbol><symbol id="hd-icon-garden-align-left-stroke-12" viewBox="0 0 12 12"><path fill="currentColor" stroke="currentColor" stroke-linecap="round" d="M1.5 1.5h9m-9 3h6m-6 3h9m-9 3h6"/></symbol><symbol id="hd-icon-garden-align-left-stroke-16" viewBox="0 0 16 16"><path fill="currentColor" stroke="currentColor" stroke-linecap="round" d="M1.5 1.5h13m-13 4h9m-9 4h13m-13 4h9"/></symbol><symbol id="hd-icon-garden-align-right-fill-12" viewBox="0 0 12 12"><path fill="currentColor" stroke="currentColor" stroke-linecap="round" stroke-width="2" d="M2 1h8M4 4h6M2 7h8m-6 3h6"/></symbol><symbol id="hd-icon-garden-align-right-fill-16" viewBox="0 0 16 16"><path fill="currentColor" stroke="currentColor" stroke-linecap="round" stroke-width="2" d="M2 2h12M5.5 6H14M2 10h12m-8.5 4H14"/></symbol><symbol id="hd-icon-garden-align-right-stroke-12" viewBox="0 0 12 12"><path fill="currentColor" stroke="currentColor" stroke-linecap="round" d="M1.5 1.5h9m-7 3h7m-9 3h9m-7 3h7"/></symbol><symbol id="hd-icon-garden-align-right-stroke-16" viewBox="0 0 16 16"><path fill="currentColor" stroke="currentColor" stroke-linecap="round" d="M1.5 1.5h13m-9 4h9m-13 4h13m-9 4h9"/></symbol><symbol id="hd-icon-garden-alt-text-fill-12" viewBox="0 0 12 12"><path fill="currentColor" d="M11 0a1 1 0 0 1 1 1v10a1 1 0 0 1-1 1H1a1 1 0 0 1-1-1V1a1 1 0 0 1 1-1zM2.5 3a1.5 1.5 0 0 0-1.493 1.356L1 4.5v4l.008.09a.5.5 0 0 0 .984 0L2 8.5V7h1v1.5l.008.09a.5.5 0 0 0 .984 0L4 8.5v-4l-.007-.144A1.5 1.5 0 0 0 2.5 3m3 0a.5.5 0 0 0-.492.41L5 3.5v5l.008.09a.5.5 0 0 0 .402.402L5.5 9h2l.09-.008a.5.5 0 0 0 .402-.402L8 8.5l-.008-.09a.5.5 0 0 0-.402-.402L7.5 8H6V3.5l-.008-.09A.5.5 0 0 0 5.5 3m5 0h-2l-.09.008a.5.5 0 0 0 0 .984L8.5 4H9v4.5l.008.09a.5.5 0 0 0 .984 0L10 8.5V4h.5l.09-.008a.5.5 0 0 0 0-.984zm-8 1a.5.5 0 0 1 .492.41L3 4.5V6H2V4.5l.008-.09A.5.5 0 0 1 2.5 4"/></symbol><symbol id="hd-icon-garden-alt-text-fill-16" viewBox="0 0 16 16"><path fill="currentColor" d="M15 0a1 1 0 0 1 1 1v14a1 1 0 0 1-1 1H1a1 1 0 0 1-1-1V1a1 1 0 0 1 1-1zM3 4a2 2 0 0 0-1.995 1.85L1 6v5.5l.008.09a.5.5 0 0 0 .984 0L2 11.5V9h2v2.5l.008.09a.5.5 0 0 0 .984 0L5 11.5V6l-.005-.15A2 2 0 0 0 3 4m4.5 0a.5.5 0 0 0-.492.41L7 4.5v7l.008.09a.5.5 0 0 0 .402.402L7.5 12h2l.09-.008a.5.5 0 0 0 .402-.402L10 11.5l-.008-.09a.5.5 0 0 0-.402-.402L9.5 11H8V4.5l-.008-.09A.5.5 0 0 0 7.5 4m7 0h-4l-.09.008a.5.5 0 0 0 0 .984L10.5 5H12v6.5l.008.09a.5.5 0 0 0 .984 0L13 11.5V5h1.5l.09-.008a.5.5 0 0 0 0-.984zM3 5a1 1 0 0 1 .993.883L4 6v2H2V6l.007-.117A1 1 0 0 1 3 5"/></symbol><symbol id="hd-icon-garden-alt-text-stroke-12" viewBox="0 0 12 12"><path fill="currentColor" d="M2.5 3a1.5 1.5 0 0 1 1.493 1.356L4 4.5v4a.5.5 0 0 1-.992.09L3 8.5V7H2v1.5a.5.5 0 0 1-.992.09L1 8.5v-4A1.5 1.5 0 0 1 2.5 3m3 0a.5.5 0 0 1 .492.41L6 3.5v4.499L7.5 8a.5.5 0 0 1 .492.41L8 8.5a.5.5 0 0 1-.41.492L7.5 9h-2a.5.5 0 0 1-.492-.41L5 8.5v-5a.5.5 0 0 1 .5-.5m5 0a.5.5 0 0 1 .09.992L10.5 4H10v4.5a.5.5 0 0 1-.992.09L9 8.5V4h-.5a.5.5 0 0 1-.09-.992L8.5 3zm-8 1a.5.5 0 0 0-.492.41L2 4.5V6h1V4.5a.5.5 0 0 0-.5-.5"/></symbol><symbol id="hd-icon-garden-alt-text-stroke-16" viewBox="0 0 16 16"><path fill="currentColor" d="M3 4a2 2 0 0 1 1.995 1.85L5 6v5.5a.5.5 0 0 1-.992.09L4 11.5V9H2v2.5a.5.5 0 0 1-.992.09L1 11.5V6a2 2 0 0 1 2-2m4.5 0a.5.5 0 0 1 .492.41L8 4.5v6.499L9.5 11a.5.5 0 0 1 .492.41l.008.09a.5.5 0 0 1-.41.492L9.5 12h-2a.5.5 0 0 1-.492-.41L7 11.5v-7a.5.5 0 0 1 .5-.5m7 0a.5.5 0 0 1 .09.992L14.5 5H13v6.5a.5.5 0 0 1-.992.09L12 11.5V5h-1.5a.5.5 0 0 1-.09-.992L10.5 4zM3 5a1 1 0 0 0-.993.883L2 6v2h2V6a1 1 0 0 0-1-1"/></symbol><symbol id="hd-icon-garden-answer-bot-26" viewBox="0 0 26 26"><rect width="3" height="3" x="4" y="11" fill="currentColor" rx="3" ry="3"/><rect width="3" height="3" x="19" y="11" fill="currentColor" rx="3" ry="3"/></symbol><symbol id="hd-icon-garden-app-26" viewBox="0 0 26 26"><path fill="none" stroke="currentColor" stroke-linejoin="round" stroke-width="2" d="m4 8l9-5l9 5v9.7L13 23l-9-5.2zm9 5L4 8m9 5l9-5m-9 5v10"/></symbol><symbol id="hd-icon-garden-arrange-content-26" viewBox="0 0 26 26"><path fill="currentColor" d="M7 14v-2a1 1 0 0 1 1-1h13a1 1 0 0 1 1 1v2a1 1 0 0 1-1 1H8a1 1 0 0 1-1-1m-3 6v-2.16a1 1 0 0 1 1-1h13a1 1 0 0 1 1 1V20a1 1 0 0 1-1 1H5a1 1 0 0 1-1-1M4 8.16V6a1 1 0 0 1 1-1h13a1 1 0 0 1 1 1v2.17a1 1 0 0 1-1 1H5a1 1 0 0 1-1-1"/></symbol><symbol id="hd-icon-garden-arrow-left-fill-12" viewBox="0 0 12 12"><path fill="none" stroke="currentColor" stroke-linecap="round" d="M1 6.5h10.5"/><path fill="currentColor" d="M4.5 11a.47.47 0 0 1-.35-.15L.5 7.21a.996.996 0 0 1 0-1.41l3.65-3.65c.14-.15.35-.19.54-.11S5 2.3 5 2.5v8c0 .2-.12.38-.31.46c-.06.03-.13.04-.19.04"/></symbol><symbol id="hd-icon-garden-arrow-left-fill-16" viewBox="0 0 16 16"><path fill="none" stroke="currentColor" stroke-linecap="round" d="M1 8.5h14.5"/><path fill="currentColor" d="M5.15 13.65L.71 9.21a.996.996 0 0 1 0-1.41l4.44-4.44c.31-.32.85-.1.85.35v9.59a.5.5 0 0 1-.85.35"/></symbol><symbol id="hd-icon-garden-arrow-left-sm-fill-12" viewBox="0 0 12 12"><path fill="currentColor" d="m2.157 6.835l2.386 2.097a.3.3 0 0 0 .29.05c.1-.036.165-.12.167-.215V7h4.571c.237 0 .429-.224.429-.5S9.808 6 9.571 6H5V4.237c0-.213-.29-.317-.457-.165L2.157 6.169A.44.44 0 0 0 2 6.502c0 .125.057.245.157.333"/></symbol><symbol id="hd-icon-garden-arrow-left-sm-fill-16" viewBox="0 0 16 16"><path fill="currentColor" d="m3.21 8.97l3.181 2.935a.38.38 0 0 0 .387.07a.33.33 0 0 0 .222-.301V9h5.5a.5.5 0 0 0 0-1H7V5.332c0-.298-.387-.443-.609-.232L3.21 8.037a.63.63 0 0 0-.21.466c0 .175.075.342.21.466Z"/></symbol><symbol id="hd-icon-garden-arrow-left-sm-stroke-12" viewBox="0 0 12 12"><path fill="currentColor" d="M2.146 6.854a.5.5 0 0 1 0-.708l2-2a.5.5 0 1 1 .708.708L3.707 6H9.5a.5.5 0 0 1 0 1H3.707l1.147 1.146a.5.5 0 1 1-.708.708z"/></symbol><symbol id="hd-icon-garden-arrow-left-sm-stroke-16" viewBox="0 0 16 16"><path fill="currentColor" d="M3.146 8.854a.5.5 0 0 1 0-.708l3-3a.5.5 0 1 1 .708.708L4.707 8H12.5a.5.5 0 0 1 0 1H4.707l2.147 2.146a.5.5 0 1 1-.708.707z"/></symbol><symbol id="hd-icon-garden-arrow-left-stroke-12" viewBox="0 0 12 12"><path fill="none" stroke="currentColor" stroke-linecap="round" d="M4 3L.9 6.1c-.2.2-.2.5 0 .7L4 10M1 6.5h10.5"/></symbol><symbol id="hd-icon-garden-arrow-left-stroke-16" viewBox="0 0 16 16"><path fill="none" stroke="currentColor" stroke-linecap="round" d="M1 8.5h14.5m-10-5L.9 8.1c-.2.2-.2.5 0 .7l4.6 4.6"/></symbol><symbol id="hd-icon-garden-arrow-left-up-fill-12" viewBox="0 0 12 12"><path fill="currentColor" d="M4 7.5a.5.5 0 0 1-.788.41l-.066-.056l-3-3a.5.5 0 0 1-.057-.638l.057-.07l3-3a.5.5 0 0 1 .847.268L4 1.5V4h1.5a6.5 6.5 0 0 1 6.5 6.5a.5.5 0 1 1-1 0a5.5 5.5 0 0 0-5.279-5.496L5.5 5H4z"/></symbol><symbol id="hd-icon-garden-arrow-left-up-fill-16" viewBox="0 0 16 16"><path fill="currentColor" d="M5 10.5a.5.5 0 0 1-.788.41l-.066-.056l-4-4a.5.5 0 0 1-.057-.638l.057-.07l4-4a.5.5 0 0 1 .847.268L5 2.5V6h3.5a7.5 7.5 0 0 1 7.5 7.5a.5.5 0 1 1-1 0a6.5 6.5 0 0 0-6.267-6.496L8.5 7H5z"/></symbol><symbol id="hd-icon-garden-arrow-left-up-stroke-12" viewBox="0 0 12 12"><path fill="currentColor" d="M3.854 7.146a.5.5 0 0 1 .057.638l-.057.07a.5.5 0 0 1-.638.057l-.07-.057l-3-3a.5.5 0 0 1-.057-.638l.057-.07l3-3a.5.5 0 0 1 .765.638l-.057.07L1.706 4H5.5a6.5 6.5 0 0 1 6.5 6.5a.5.5 0 1 1-1 0a5.5 5.5 0 0 0-5.279-5.496L5.5 5H1.708z"/></symbol><symbol id="hd-icon-garden-arrow-left-up-stroke-16" viewBox="0 0 16 16"><path fill="currentColor" d="M4.854 10.146a.5.5 0 0 1 .057.638l-.057.07a.5.5 0 0 1-.638.057l-.07-.057l-4-4l-.037-.042l-.042-.062l-.03-.06l-.02-.062l-.012-.054l-.003-.031L0 6.489q0-.03.005-.063L0 6.5l.003-.053l.014-.075l.02-.063l.052-.093l.046-.057l4.011-4.013a.5.5 0 0 1 .765.638l-.057.07L1.707 6H8.5a7.5 7.5 0 0 1 7.5 7.5a.5.5 0 1 1-1 0a6.5 6.5 0 0 0-6.267-6.496L8.5 7H1.707z"/></symbol><symbol id="hd-icon-garden-arrow-retweet-fill-12" viewBox="0 0 12 12"><path fill="currentColor" d="M2.5 2h.012q.03 0 .062.005za.5.5 0 0 1 .354.146l2 2A.5.5 0 0 1 4.5 5H3v2.5a1.5 1.5 0 0 0 1.356 1.493L4.5 9H6a.5.5 0 0 1 .09.992L6 10H4.5a2.5 2.5 0 0 1-2.495-2.336L2 7.5V5H.5a.5.5 0 0 1-.354-.854l2-2l.013-.011l.039-.033l-.052.044A.5.5 0 0 1 2.5 2m6.954 7.998l.021.001l-.028-.002l-.016-.003h-.002l-.034-.005l-.046-.012l-.04-.015l-.076-.04l-.035-.024l-.005-.003l-.001-.001l-.014-.011l.01.008l.01.007l-.04-.033l-2.011-2.011a.5.5 0 0 1 .268-.847L7.5 7H9V4.5a1.5 1.5 0 0 0-1.356-1.493L7.5 3H6a.5.5 0 0 1-.09-.992L6 2h1.5a2.5 2.5 0 0 1 2.495 2.336L10 4.5V7h1.5a.5.5 0 0 1 .41.788l-.056.066L9.84 9.866A.5.5 0 0 1 9.5 10l-.068-.006zM9.48 10h.02l-.025-.001zm-.287-.105l-.004-.003z"/></symbol><symbol id="hd-icon-garden-arrow-retweet-fill-16" viewBox="0 0 16 16"><path fill="currentColor" d="M3 2h.02q.034 0 .07.004za1 1 0 0 1 .595.196q.06.044.112.097l-.09-.08l.008.007l.082.073l2 2C6.337 4.923 5.891 6 5 6H4v5a1 1 0 0 0 .883.993L5 12h3a1 1 0 0 1 .117 1.993L8 14H5a3 3 0 0 1-2.995-2.824L2 11V6H1C.148 6-.297 5.014.217 4.377l.076-.084l2-2l.082-.073A1 1 0 0 1 3 2m8 0a3 3 0 0 1 2.995 2.824L14 5v5h1c.852 0 1.297.986.783 1.623l-.076.084l-2 2A1 1 0 0 1 13 14h-.032l-.054-.004L13 14a1 1 0 0 1-.595-.196a1 1 0 0 1-.112-.097l.09.08a1 1 0 0 1-.09-.08l-2-2C9.663 11.077 10.109 10 11 10l1-.001V5a1 1 0 0 0-.883-.993L11 4H8a1 1 0 0 1-.117-1.993L8 2z"/></symbol><symbol id="hd-icon-garden-arrow-retweet-stroke-12" viewBox="0 0 12 12"><path fill="currentColor" d="M2.511 2q.031 0 .063.005l.031.006l.046.012l.04.015a.5.5 0 0 1 .093.05l.018.014q.02.014.04.033l2.012 2.011a.5.5 0 0 1-.638.765l-.07-.057L3 3.707V7.5a1.5 1.5 0 0 0 1.356 1.493L4.5 9H6a.5.5 0 0 1 .09.992L6 10H4.5a2.5 2.5 0 0 1-2.495-2.336L2 7.5V3.707L.854 4.854a.5.5 0 0 1-.765-.638l.057-.07L2.16 2.135l.019-.017l.01-.009l-.042.037l.047-.041l.04-.028a.5.5 0 0 1 .162-.066l.036-.006L2.5 2zM7.5 2A2.5 2.5 0 0 1 10 4.5v3.792l1.146-1.146a.5.5 0 0 1 .765.638l-.057.07l-2 2l-.013.011l-.039.033l.052-.044A.5.5 0 0 1 9.5 10l.072-.005L9.52 10H9.5a.5.5 0 0 1-.284-.089l-.018-.013l-.04-.033l-.012-.011l-2-2a.5.5 0 0 1 .638-.765l.07.057L9 8.292V4.5a1.5 1.5 0 0 0-1.356-1.493L7.5 3H6a.5.5 0 0 1 0-1zm-5.302.102l-.005.003l-.005.004zm.239-.098l-.006.001h-.005zm.014-.002l-.014.002l.01-.001zM2.5 2l-.049.002L2.489 2z"/></symbol><symbol id="hd-icon-garden-arrow-retweet-stroke-16" viewBox="0 0 16 16"><path fill="currentColor" d="m2.784 2.089l.07.057l2 2a.5.5 0 0 1-.638.765l-.07-.057l-1.145-1.145L3 11.5a1.5 1.5 0 0 0 1.356 1.493L4.5 13h3a.5.5 0 0 1 .09.992L7.5 14h-3a2.5 2.5 0 0 1-2.495-2.336L2 11.5l.001-7.793L.854 4.854a.5.5 0 0 1-.638.057l-.07-.057a.5.5 0 0 1-.057-.638l.057-.07l2-2a.5.5 0 0 1 .638-.057M11.5 2a2.5 2.5 0 0 1 2.495 2.336L14 4.5l-.001 7.793l1.147-1.147a.5.5 0 0 1 .638-.057l.07.057a.5.5 0 0 1 .057.638l-.057.07l-2 2a.5.5 0 0 1-.638.057l-.07-.057l-2-2a.5.5 0 0 1 .638-.765l.07.057l1.145 1.145L13 4.5a1.5 1.5 0 0 0-1.356-1.493L11.5 3h-3a.5.5 0 0 1-.09-.992L8.5 2z"/></symbol><symbol id="hd-icon-garden-arrow-reverse-fill-12" viewBox="0 0 12 12"><path fill="none" stroke="currentColor" stroke-linecap="round" d="M7 1L.5 7.5m11-3L5 11"/><path fill="currentColor" d="M8 4.79V.5c0-.28-.22-.5-.5-.5H3.21a.5.5 0 0 0-.36.85l4.29 4.29c.32.32.86.1.86-.35M4 7.21v4.29c0 .28.22.5.5.5h4.29c.45 0 .67-.54.35-.85l-4.29-4.3a.5.5 0 0 0-.85.36"/></symbol><symbol id="hd-icon-garden-arrow-reverse-fill-16" viewBox="0 0 16 16"><path fill="none" stroke="currentColor" stroke-linecap="round" stroke-width="1.25" d="m1 10l7.5-7.5m-1 11L15 6"/><path fill="currentColor" d="M11 5.79V.5c0-.28-.22-.5-.5-.5H5.21a.5.5 0 0 0-.36.85l5.29 5.29c.32.32.86.1.86-.35m-6 4.42v5.29c0 .28.22.5.5.5h5.29c.45 0 .67-.54.35-.85l-5.29-5.3a.5.5 0 0 0-.85.36"/></symbol><symbol id="hd-icon-garden-arrow-reverse-stroke-12" viewBox="0 0 12 12"><path fill="none" stroke="currentColor" stroke-linecap="round" d="M7 1L.5 7.5m11-3L5 11M3.5.5H7c.3 0 .5.2.5.5v3.5m1 7H5c-.3 0-.5-.2-.5-.5V7.5"/></symbol><symbol id="hd-icon-garden-arrow-reverse-stroke-16" viewBox="0 0 16 16"><path fill="none" stroke="currentColor" stroke-linecap="round" d="m1 10l9-9M6 15l9-9M4.5.5H10c.3 0 .5.2.5.5v5.5m1 9H6c-.3 0-.5-.2-.5-.5V9.5"/></symbol><symbol id="hd-icon-garden-arrow-right-left-26" viewBox="0 0 26 26"><path fill="currentColor" d="M7.293 14.293c.602-.603 1.614-.22 1.701.593L9 15v3h13a1 1 0 0 1 .117 1.993L22 20H8.999L9 23c0 .852-.986 1.297-1.623.783l-.084-.076l-4-4a1 1 0 0 1-.083-1.32l.083-.094zM17 3c0-.852.986-1.297 1.623-.783l.084.076l4 4a1 1 0 0 1 .083 1.32l-.083.094l-4 4c-.602.603-1.614.22-1.701-.593L17 11V8H4a1 1 0 0 1-.117-1.993L4 6h13z"/></symbol><symbol id="hd-icon-garden-arrow-trending-fill-12" viewBox="0 0 12 12"><path fill="currentColor" d="M11.501 2a.5.5 0 0 1 .492.41L12 2.5v3a.5.5 0 0 1-.788.41l-.066-.056l-.793-.794l-3.147 3.147a1 1 0 0 1-1.32.083l-.094-.083L4.5 6.915L1.707 9.707a1 1 0 0 1-1.32.083l-.094-.083a1 1 0 0 1-.083-1.32l.083-.094l3.5-3.5a1 1 0 0 1 1.32-.083l.094.083L6.5 6.085l2.439-2.44l-.792-.791a.5.5 0 0 1 .268-.847L8.501 2z"/></symbol><symbol id="hd-icon-garden-arrow-trending-fill-16" viewBox="0 0 16 16"><path fill="currentColor" d="M15.5 3a.5.5 0 0 1 .492.41L16 3.5v4a.5.5 0 0 1-.788.41l-.066-.056l-1.292-1.293l-4.147 4.146a1 1 0 0 1-1.32.083l-.094-.083L6 8.415l-4.293 4.292a1 1 0 0 1-1.32.083l-.094-.083a1 1 0 0 1-.083-1.32l.083-.094l5-5a1 1 0 0 1 1.32-.083l.094.083L9 8.585l3.439-3.439l-1.293-1.292a.5.5 0 0 1 .268-.847L11.5 3z"/></symbol><symbol id="hd-icon-garden-arrow-trending-stroke-12" viewBox="0 0 12 12"><path fill="currentColor" d="M11.5 2a.5.5 0 0 1 .492.41L12 2.5v3a.5.5 0 0 1-.992.09L11 5.5V3.706L6.854 7.854a.5.5 0 0 1-.638.057l-.07-.057L4.5 6.207L.854 9.854a.5.5 0 0 1-.638.057l-.07-.057a.5.5 0 0 1-.057-.638l.057-.07l4-4a.5.5 0 0 1 .638-.057l.07.057L6.5 6.793L10.292 3H8.5a.5.5 0 0 1-.492-.41L8 2.5a.5.5 0 0 1 .41-.492L8.5 2z"/></symbol><symbol id="hd-icon-garden-arrow-trending-stroke-16" viewBox="0 0 16 16"><path fill="currentColor" d="M15.5 3a.5.5 0 0 1 .492.41L16 3.5v4a.5.5 0 0 1-.992.09L15 7.5V4.706L9.854 9.854a.5.5 0 0 1-.638.057l-.07-.057L6.5 7.207L.854 12.854a.5.5 0 0 1-.638.057l-.07-.057a.5.5 0 0 1-.057-.638l.057-.07l6-6a.5.5 0 0 1 .638-.057l.07.057L9.5 8.793L14.292 4H11.5a.5.5 0 0 1-.492-.41L11 3.5a.5.5 0 0 1 .41-.492L11.5 3z"/></symbol><symbol id="hd-icon-garden-asterisk-fill-12" viewBox="0 0 12 12"><path fill="currentColor" stroke="currentColor" stroke-linecap="round" stroke-width="2" d="M6 1v10M1.5 3.5l9 5m-9 0l9-5"/></symbol><symbol id="hd-icon-garden-asterisk-fill-16" viewBox="0 0 16 16"><path fill="currentColor" stroke="currentColor" stroke-linecap="round" stroke-width="2" d="M8 1v14M2 4.5l12 7m-12 0l12-7"/></symbol><symbol id="hd-icon-garden-asterisk-stroke-12" viewBox="0 0 12 12"><path fill="currentColor" stroke="currentColor" stroke-linecap="round" d="M5.5 1v10M1 3.5l9 5m-9 0l9-5"/></symbol><symbol id="hd-icon-garden-asterisk-stroke-16" viewBox="0 0 16 16"><path fill="currentColor" stroke="currentColor" stroke-linecap="round" d="M7.5 1.5v14M1.5 5l12 7m-12 0l12-7"/></symbol><symbol id="hd-icon-garden-at-fill-12" viewBox="0 0 12 12"><path fill="none" stroke="currentColor" stroke-linecap="round" stroke-width="2" d="M8 4v2h0a2 2 0 0 1-2 2h0a2 2 0 0 1-2-2h0a2 2 0 0 1 2-2h0a2 2 0 0 1 2 2h0v.5A1.5 1.5 0 0 0 9.5 8h0A1.5 1.5 0 0 0 11 6.5V6h0a5 5 0 0 0-5-5h0a5 5 0 0 0-5 5h0a5 5 0 0 0 5 5h2"/></symbol><symbol id="hd-icon-garden-at-fill-16" viewBox="0 0 16 16"><path fill="none" stroke="currentColor" stroke-linecap="round" stroke-width="2" d="M11 5v3h0a3 3 0 0 1-3 3h0a3 3 0 0 1-3-3h0a3 3 0 0 1 3-3h0a3 3 0 0 1 3 3h0v1a2 2 0 0 0 2 2h0a2 2 0 0 0 2-2V8h0a7 7 0 0 0-7-7h0a7 7 0 0 0-7 7h0a7 7 0 0 0 7 7h2.8"/></symbol><symbol id="hd-icon-garden-at-stroke-12" viewBox="0 0 12 12"><path fill="none" stroke="currentColor" stroke-linecap="round" d="M8.5 3.5V6h0A2.5 2.5 0 0 1 6 8.5h0A2.5 2.5 0 0 1 3.5 6h0A2.5 2.5 0 0 1 6 3.5h0A2.5 2.5 0 0 1 8.5 6h0v1A1.5 1.5 0 0 0 10 8.5h0A1.5 1.5 0 0 0 11.5 7V6h0A5.5 5.5 0 0 0 6 .5h0A5.5 5.5 0 0 0 .5 6h0A5.5 5.5 0 0 0 6 11.5h2.5"/></symbol><symbol id="hd-icon-garden-at-stroke-16" viewBox="0 0 16 16"><path fill="none" stroke="currentColor" stroke-linecap="round" d="M11.5 4.5V8h0A3.5 3.5 0 0 1 8 11.5h0A3.5 3.5 0 0 1 4.5 8h0A3.5 3.5 0 0 1 8 4.5h0A3.5 3.5 0 0 1 11.5 8h0v1.5a2 2 0 0 0 2 2h0a2 2 0 0 0 2-2V8h0A7.5 7.5 0 0 0 8 .5h0A7.5 7.5 0 0 0 .5 8h0A7.5 7.5 0 0 0 8 15.5h3.41"/></symbol><symbol id="hd-icon-garden-bar-chart-26" viewBox="0 0 26 26"><path fill="currentColor" d="M20.037 21.001L17.963 21c-.532-.001-.963-.449-.963-1.003V6.002c0-.554.431-1.003.963-1.002l2.078.001c.53 0 .959.448.959 1v13.998c0 .553-.431 1.002-.963 1.002M8.043 21H5.957C5.428 21 5 20.554 5 20.003v-7.006c0-.551.428-.997.957-.997h2.086c.529 0 .957.446.957.997v7.006c0 .551-.428.997-.957.997m5.999 0h-2.084a.96.96 0 0 1-.958-.958V9.958c0-.529.43-.958.958-.958h2.084c.529 0 .958.43.958.958v10.084c0 .529-.43.958-.958.958"/></symbol><symbol id="hd-icon-garden-bar-chart-fill-12" viewBox="0 0 12 12"><path fill="currentColor" d="M9 0a1 1 0 0 0-1 1v10a1 1 0 0 0 1 1h1a1 1 0 0 0 1-1V1a1 1 0 0 0-1-1zM5 3a1 1 0 0 0-1 1v7a1 1 0 0 0 1 1h1a1 1 0 0 0 1-1V4a1 1 0 0 0-1-1zM1 6a1 1 0 0 0-1 1v4a1 1 0 0 0 1 1h1a1 1 0 0 0 1-1V7a1 1 0 0 0-1-1z"/></symbol><symbol id="hd-icon-garden-bar-chart-fill-16" viewBox="0 0 16 16"><path fill="currentColor" d="M15.037 16.001L12.963 16c-.532-.001-.963-.449-.963-1.003V1.002c0-.554.431-1.003.963-1.002l2.078.001c.53 0 .959.448.959 1v13.998c0 .553-.431 1.002-.963 1.002M3.043 16H.957C.428 16 0 15.554 0 15.003V7.997C0 7.446.428 7 .957 7h2.086c.529 0 .957.446.957.997v7.006c0 .551-.428.997-.957.997m5.999 0H6.958A.96.96 0 0 1 6 15.042V4.958C6 4.429 6.43 4 6.958 4h2.084c.529 0 .958.43.958.958v10.084c0 .529-.43.958-.958.958"/></symbol><symbol id="hd-icon-garden-bar-chart-stroke-12" viewBox="0 0 12 12"><path fill="currentColor" d="M0 7a1 1 0 0 1 1-1h1a1 1 0 0 1 1 1v4a1 1 0 0 1-1 1H1a1 1 0 0 1-1-1zm2 0H1v4h1zm2-3a1 1 0 0 1 1-1h1a1 1 0 0 1 1 1v7a1 1 0 0 1-1 1H5a1 1 0 0 1-1-1zm2 0H5v7h1zm2-3a1 1 0 0 1 1-1h1a1 1 0 0 1 1 1v10a1 1 0 0 1-1 1H9a1 1 0 0 1-1-1zm2 0H9v10h1z"/></symbol><symbol id="hd-icon-garden-bar-chart-stroke-16" viewBox="0 0 16 16"><path fill="currentColor" d="M15 15.001L13 15V1l2 .001zm.041-15L12.963 0C12.431-.001 12 .448 12 1.002v13.995c0 .554.431 1.002.963 1.003l2.074.001c.532 0 .963-.449.963-1.002V1.001c0-.552-.429-1-.959-1M3 15H1V8h2zm6 0H7V5h2zM.957 16h2.086c.529 0 .957-.446.957-.997V7.997C4 7.446 3.572 7 3.043 7H.957C.428 7 0 7.446 0 7.997v7.006c0 .551.428.997.957.997m6.001 0h2.084a.96.96 0 0 0 .958-.958V4.958A.96.96 0 0 0 9.042 4H6.958A.96.96 0 0 0 6 4.958v10.084c0 .53.429.958.958.958"/></symbol><symbol id="hd-icon-garden-basketball-fill-12" viewBox="0 0 12 12"><path fill="currentColor" d="M2.126 10.582L6 6.707l1.129 1.129A4.98 4.98 0 0 0 6 11v1a5.98 5.98 0 0 1-3.874-1.418m-.708-.708A5.98 5.98 0 0 1 0 6h1a4.98 4.98 0 0 0 3.164-1.129L5.293 6zM.083 5a6 6 0 0 1 1.335-2.874L3.453 4.16A4 4 0 0 1 1 5zm2.043-3.582A6 6 0 0 1 5 .083V1c0 .924-.314 1.775-.84 2.453zM6 0c1.477 0 2.83.534 3.874 1.418L6 5.293L4.871 4.164A4.98 4.98 0 0 0 6 1zm4.582 2.126A5.98 5.98 0 0 1 12 6h-1a4.98 4.98 0 0 0-3.164 1.129L6.707 6zM11.917 7a6 6 0 0 1-1.335 2.874L8.547 7.84A4 4 0 0 1 11 7zm-2.043 3.582A6 6 0 0 1 7 11.917V11c0-.924.314-1.775.84-2.453z"/></symbol><symbol id="hd-icon-garden-basketball-fill-16" viewBox="0 0 16 16"><path fill="currentColor" d="M7 15.938A7.97 7.97 0 0 1 2.708 14L8 8.707l1 1A7.97 7.97 0 0 0 7 15zm-5-2.646A7.97 7.97 0 0 1 .063 9H1a7.97 7.97 0 0 0 5.292-2l1 1zM0 8a7.97 7.97 0 0 1 2-5.292L5.585 6.29A6.97 6.97 0 0 1 1 8zm2.708-6A7.97 7.97 0 0 1 8 0v1a6.97 6.97 0 0 1-1.71 4.584zM9 .063A7.97 7.97 0 0 1 13.292 2L8 7.293l-1-1A7.97 7.97 0 0 0 9 1zm5 2.646A7.97 7.97 0 0 1 15.937 7H15a7.97 7.97 0 0 0-5.292 2l-1-1zM16 8a7.97 7.97 0 0 1-2 5.292L10.415 9.71A6.97 6.97 0 0 1 15 8zm-2.708 6A7.97 7.97 0 0 1 8 16v-1c0-1.753.644-3.356 1.71-4.584z"/></symbol><symbol id="hd-icon-garden-basketball-stroke-12" viewBox="0 0 12 12"><path fill="none" stroke="currentColor" d="M6 11.5a5.5 5.5 0 1 0 0-11a5.5 5.5 0 0 0 0 11zM2 10l8-8m0 8L2 2M5.5.522V1A4.5 4.5 0 0 1 1 5.5H.522M6.5 11.478V11A4.5 4.5 0 0 1 11 6.5h.478"/></symbol><symbol id="hd-icon-garden-basketball-stroke-16" viewBox="0 0 16 16"><path fill="none" stroke="currentColor" d="M8 15.5a7.5 7.5 0 1 0 0-15a7.5 7.5 0 0 0 0 15zm-.5 0V15A7.5 7.5 0 0 1 15 7.5h.5m-7-7V1A7.5 7.5 0 0 1 1 8.5H.5M3 13L13 3m0 10L3 3"/></symbol><symbol id="hd-icon-garden-bold-fill-12" viewBox="0 0 12 12"><path fill="currentColor" d="M5.9 0c1.96 0 3.6 1.554 3.6 3.5a3.42 3.42 0 0 1-.86 2.265A3.45 3.45 0 0 1 10 8.5c0 1.946-1.64 3.5-3.6 3.5H3a1 1 0 0 1-1-1V1a1 1 0 0 1 1-1zM4 10h2.4C7.279 10 8 9.317 8 8.5S7.279 7 6.4 7H4zm1.9-8H4v3h1.9c.879 0 1.6-.683 1.6-1.5S6.779 2 5.9 2"/></symbol><symbol id="hd-icon-garden-bold-fill-16" viewBox="0 0 16 16"><path fill="currentColor" d="M7.5 0C9.952 0 12 2.048 12 4.5a4.48 4.48 0 0 1-1.27 3.108C12.078 8.39 13 9.855 13 11.5c0 2.452-2.048 4.5-4.5 4.5H4a1 1 0 0 1-1-1V1a1 1 0 0 1 1-1zM5 14h3.5c1.348 0 2.5-1.152 2.5-2.5S9.848 9 8.5 9H5zM7.5 2H5v5h2.5C8.848 7 10 5.848 10 4.5S8.848 2 7.5 2"/></symbol><symbol id="hd-icon-garden-bold-stroke-12" viewBox="0 0 12 12"><path fill="currentColor" d="M5.4 1c1.69 0 3.1 1.336 3.1 3c0 .95-.46 1.794-1.17 2.342C8.317 6.842 9 7.842 9 9c0 1.664-1.41 3-3.1 3H2.5a.5.5 0 0 1-.5-.5v-10a.5.5 0 0 1 .5-.5zM3 11h2.9C7.05 11 8 10.1 8 9s-.95-2-2.1-2H3zm2.4-9H3v4h2.4c1.15 0 2.1-.9 2.1-2s-.95-2-2.1-2"/></symbol><symbol id="hd-icon-garden-bold-stroke-16" viewBox="0 0 16 16"><path fill="currentColor" d="M7 1c2.176 0 4 1.824 4 4c0 1.315-.666 2.501-1.673 3.234C10.869 8.792 12 10.287 12 12c0 2.176-1.824 4-4 4H3.5a.5.5 0 0 1-.5-.5v-14a.5.5 0 0 1 .5-.5zM4 15h4c1.624 0 3-1.376 3-3S9.624 9 8 9H4zM7 2H4v6h3c1.624 0 3-1.376 3-3S8.624 2 7 2"/></symbol><symbol id="hd-icon-garden-book-26" viewBox="0 0 26 26"><path fill="currentColor" d="M19 1c1.105 0 2 .892 2 2v3.27c.596.346 1 .992 1 1.73v15c0 1.099-.897 2-2 2H6.51A3.503 3.503 0 0 1 3 21.49V4.506A3.505 3.505 0 0 1 6.5 1zM5 7.663v13.83A1.503 1.503 0 0 0 6.508 23H20V8H6.512A3.5 3.5 0 0 1 5 7.663M16 15a1 1 0 0 1 0 2h-6a1 1 0 1 1 0-2zm0-4a1 1 0 1 1 0 2h-6a1 1 0 0 1 0-2zm3-8H6.5a1.5 1.5 0 1 0 .008 3H19z"/></symbol><symbol id="hd-icon-garden-book-closed-fill-12" viewBox="0 0 12 12"><path fill="currentColor" d="M10 2V1c0-.6-.5-1-1-1H2.5C1.4 0 1 .9 1 1.5v9c0 1.1.9 1.5 1.5 1.5H10c.6 0 1-.4 1-1V3c0-.6-.4-1-1-1M7.5 8h-3c-.3 0-.5-.2-.5-.5s.2-.5.5-.5h3c.3 0 .5.2.5.5s-.2.5-.5.5m0-2h-3c-.3 0-.5-.2-.5-.5s.2-.5.5-.5h3c.3 0 .5.2.5.5s-.2.5-.5.5M9 2H2.5c-.4 0-.5-.3-.5-.5s.1-.5.5-.5H9z"/></symbol><symbol id="hd-icon-garden-book-closed-fill-16" viewBox="0 0 16 16"><path fill="none" stroke="currentColor" d="M2.5 1.5s0-1 1-1H12s.5 0 .5.5v1.5"/><path fill="currentColor" d="M13 2H3.5c-.4 0-.5-.3-.5-.5H2v13c0 1.1.9 1.5 1.5 1.5H13c.6 0 1-.4 1-1V3c0-.6-.4-1-1-1m-2.5 8h-5c-.3 0-.5-.2-.5-.5s.2-.5.5-.5h5c.3 0 .5.2.5.5s-.2.5-.5.5m0-3h-5c-.3 0-.5-.2-.5-.5s.2-.5.5-.5h5c.3 0 .5.2.5.5s-.2.5-.5.5"/></symbol><symbol id="hd-icon-garden-book-closed-stroke-12" viewBox="0 0 12 12"><path fill="none" stroke="currentColor" stroke-linecap="round" d="M10.5 11c0 .3-.2.5-.5.5H2.5s-1 0-1-1v-9s0 1 1 1H10c.3 0 .5.2.5.5zm-9-9.5s0-1 1-1H9s.5 0 .5.5v1.5m-5 3h3m-3 2h3"/></symbol><symbol id="hd-icon-garden-book-closed-stroke-16" viewBox="0 0 16 16"><path fill="none" stroke="currentColor" stroke-linecap="round" d="M2.5 1.5s0-1 1-1H12s.5 0 .5.5v1.5m1 12.5c0 .3-.2.5-.5.5H3.5s-1 0-1-1v-13s0 1 1 1H13c.3 0 .5.2.5.5zm-8-5.5h5m-5-3h5"/></symbol><symbol id="hd-icon-garden-book-open-fill-12" viewBox="0 0 12 12"><path fill="currentColor" d="M11.19 1.13C8.82.68 6.77 1.5 6 1.88C5.23 1.5 3.18.69.81 1.13c-.47.08-.81.5-.81.98v8.1c0 .29.13.57.35.76s.51.27.79.22c2.08-.33 3.91.45 4.42.69c.14.07.29.1.43.1s.3-.03.43-.1c.51-.25 2.35-1.03 4.42-.69c.28.05.57-.04.79-.22c.24-.19.37-.47.37-.77V2.1c0-.47-.34-.89-.81-.97M2.53 3.38c.74.03 1.49.16 2.24.39c.33.1.52.45.42.78c-.09.26-.34.43-.61.43q-.09 0-.18-.03c-.65-.2-1.29-.31-1.93-.33a.63.63 0 0 1-.6-.65c.02-.34.32-.62.66-.59m0 2c.74.03 1.49.16 2.24.39c.33.1.52.45.42.78c-.09.26-.34.43-.61.43q-.09 0-.18-.03c-.65-.2-1.29-.31-1.93-.33a.63.63 0 0 1-.6-.65c.02-.34.32-.6.66-.59m2.65 3.16a.63.63 0 0 1-.6.45q-.09 0-.18-.03c-.65-.2-1.29-.31-1.93-.33c-.34-.01-.61-.3-.6-.65s.31-.63.65-.6c.74.03 1.49.16 2.24.39c.34.09.52.44.42.77m4.43.08c-.63.03-1.28.14-1.93.34a.62.62 0 0 1-.78-.41c-.1-.34.09-.69.42-.79c.75-.23 1.5-.36 2.24-.39c.38-.04.64.25.65.6s-.26.64-.6.65m0-2c-.64.03-1.28.14-1.93.34c-.06.02-.12.02-.18.02a.62.62 0 0 1-.6-.44c-.1-.33.09-.68.42-.78c.75-.23 1.5-.36 2.24-.39c.38-.02.64.25.65.6s-.26.64-.6.65m0-2c-.64.03-1.28.14-1.93.34c-.06.02-.12.02-.18.02a.62.62 0 0 1-.6-.44c-.1-.33.09-.68.42-.78c.75-.23 1.5-.36 2.24-.39c.38-.03.64.25.65.6s-.26.64-.6.65"/></symbol><symbol id="hd-icon-garden-book-open-fill-16" viewBox="0 0 16 16"><path fill="currentColor" d="M15.2 1.2C11.81.51 8.84 1.8 8 2.22C7.16 1.8 4.19.51.8 1.2c-.46.09-.8.51-.8.99v11.7c0 .29.13.57.35.76c.23.19.54.27.84.22c3.01-.54 5.64.61 6.37.97c.14.07.29.1.44.1s.3-.03.44-.1c.73-.36 3.36-1.51 6.37-.97c.3.05.61-.03.84-.22s.35-.46.35-.76V2.19c0-.48-.34-.9-.8-.99M3.01 3.75c1.09.02 2.19.2 3.29.53a.75.75 0 0 1-.22 1.47c-.07 0-.15-.01-.22-.03c-.96-.3-1.93-.45-2.87-.47a.75.75 0 0 1-.74-.76c.01-.42.36-.72.76-.74m0 3c1.09.02 2.19.2 3.29.53a.75.75 0 0 1-.22 1.47c-.07 0-.15-.01-.22-.03c-.96-.3-1.93-.45-2.87-.47a.749.749 0 1 1 .02-1.5m3.79 4.47a.76.76 0 0 1-.94.5c-.96-.29-1.93-.45-2.87-.47a.76.76 0 0 1-.74-.76c.01-.41.36-.74.76-.74c1.09.02 2.19.2 3.29.53c.39.12.62.54.5.94m6.29.03c-.95.02-1.91.17-2.87.47a.76.76 0 0 1-.94-.5c-.12-.4.1-.82.5-.94c1.09-.33 2.2-.51 3.28-.53h.01c.41 0 .74.33.75.74c.02.41-.31.75-.73.76m0-3c-.94.02-1.91.17-2.87.47a.76.76 0 0 1-.94-.5c-.12-.4.1-.81.5-.94c1.1-.33 2.2-.51 3.28-.53h.01c.41 0 .74.33.75.74c.02.41-.31.75-.73.76m0-3c-.94.02-1.91.17-2.87.47a.76.76 0 0 1-.94-.5c-.12-.4.1-.81.5-.94c1.1-.33 2.2-.51 3.28-.53h.01c.41 0 .74.33.75.74c.02.41-.31.75-.73.76"/></symbol><symbol id="hd-icon-garden-book-open-stroke-12" viewBox="0 0 12 12"><path fill="none" stroke="currentColor" stroke-linecap="round" d="M6.2 2.3c.7-.3 2.6-1.1 4.9-.7c.2 0 .4.3.4.5v8.1c0 .3-.3.5-.6.5c-2.2-.4-4.1.4-4.7.7c-.1.1-.3.1-.4 0c-.6-.3-2.5-1.1-4.7-.7c-.3 0-.6-.2-.6-.5V2.1c0-.2.2-.4.4-.5c2.3-.4 4.2.4 4.9.7c.1.1.3.1.4 0zM2.5 4c.8 0 1.5.2 2.1.4M2.5 6c.8 0 1.5.2 2.1.4M2.5 8c.8 0 1.5.2 2.1.4m5-4.4c-.8 0-1.5.2-2.1.4M9.6 6c-.8 0-1.5.2-2.1.4M9.6 8c-.8 0-1.5.2-2.1.4"/></symbol><symbol id="hd-icon-garden-book-open-stroke-16" viewBox="0 0 16 16"><path fill="none" stroke="currentColor" stroke-linecap="round" d="M8.2 2.7c.8-.4 3.6-1.6 6.9-1c.2 0 .4.3.4.5v11.7c0 .3-.3.5-.6.5c-3.2-.6-5.9.6-6.7 1c-.1.1-.3.1-.4 0c-.8-.4-3.5-1.6-6.7-1c-.3.1-.6-.2-.6-.5V2.2c0-.2.2-.4.4-.5c3.2-.7 6.1.6 6.9 1zM3 4.5c1.2 0 2.2.2 3.1.5M3 7.5c1.2 0 2.2.2 3.1.5M3 10.5c1.2 0 2.2.2 3.1.5m7-6.5c-1.2 0-2.2.2-3.1.5m3.1 2.5c-1.2 0-2.2.2-3.1.5m3.1 2.5c-1.2 0-2.2.2-3.1.5"/></symbol><symbol id="hd-icon-garden-bookmark-fill-12" viewBox="0 0 12 12"><path fill="currentColor" d="M2 2a2 2 0 0 1 2-2h4a2 2 0 0 1 2 2v10L6 9.083L2 12z"/></symbol><symbol id="hd-icon-garden-bookmark-fill-16" viewBox="0 0 16 16"><path fill="currentColor" d="M3 2a2 2 0 0 1 2-2h6a2 2 0 0 1 2 2v14l-5-3.889L3 16z"/></symbol><symbol id="hd-icon-garden-bookmark-stroke-12" viewBox="0 0 12 12"><path fill="currentColor" d="M6 9.083L10 12V2a2 2 0 0 0-2-2H4a2 2 0 0 0-2 2v10zm-3 .95V2a1 1 0 0 1 1-1h4a1 1 0 0 1 1 1v8.033L6 7.846z"/></symbol><symbol id="hd-icon-garden-bookmark-stroke-16" viewBox="0 0 16 16"><path fill="currentColor" d="M8 12.111L3 16V2a2 2 0 0 1 2-2h6a2 2 0 0 1 2 2v14zm-4 1.844l4-3.11l4 3.11V2a1 1 0 0 0-1-1H5a1 1 0 0 0-1 1z"/></symbol><symbol id="hd-icon-garden-bot-generic-26" viewBox="0 0 26 26"><path fill="currentColor" d="M19 5c1.054 0 1.918.816 1.995 1.85L21 7v12a2 2 0 0 1-1.85 1.995L19 21H7a2 2 0 0 1-1.995-1.85L5 19V7c0-1.054.816-1.918 1.85-1.995L7 5zm-3 11h-6v2h6zM2.5 10a.5.5 0 0 1 .492.41L3 10.5v5a.5.5 0 0 1-.5.5c-1 0-2.5-1.165-2.5-3s1.5-3 2.5-3m21 0c1 0 2.5 1.165 2.5 3s-1.5 3-2.5 3a.5.5 0 0 1-.5-.5v-5a.5.5 0 0 1 .5-.5m-7 0c-.825 0-1.5.675-1.5 1.5c0 .776.598 1.42 1.356 1.493L16.5 13l.144-.007A1.505 1.505 0 0 0 18 11.5c0-.825-.675-1.5-1.5-1.5m-7 0c-.776 0-1.42.598-1.493 1.356L8 11.5l.007.144A1.505 1.505 0 0 0 9.5 13c.825 0 1.5-.675 1.5-1.5S10.325 10 9.5 10"/></symbol><symbol id="hd-icon-garden-bot-sparkle-fill-12" viewBox="0 0 12 12"><path fill="currentColor" d="M0 3.002c0-.116.073-.218.186-.254q.103-.034.215-.068c.463-.142.985-.301 1.132-.813l.215-.684c.07-.244.44-.244.51 0l.222.695c.102.306.35.553.652.655l.685.215c.244.069.244.44 0 .509c-.075.028-.168.055-.268.085c-.298.088-.663.197-.821.384c-.188.16-.3.537-.39.836a4 4 0 0 1-.08.252a.27.27 0 0 1-.251.186a.27.27 0 0 1-.255-.182l-.23-.684a1.06 1.06 0 0 0-.655-.659l-.681-.218A.27.27 0 0 1 0 3.002M.76 5.03a1.001 1.001 0 0 0-.143 1.894A1 1 0 0 0 1 7v3.91c0 .602.488 1.09 1.09 1.09h7.82A1.09 1.09 0 0 0 11 10.91V7a1 1 0 0 0 0-2v-.91A1.09 1.09 0 0 0 9.91 3H7v-.955a.545.545 0 0 0-.545-.545h-.91A.545.545 0 0 0 5 2.045v.958c0 .451-.262 1.022-.89 1.211l-.672.215a.1.1 0 0 0-.022.02v.002l-.207.656c-.187.63-.758.893-1.211.893C1.55 6 .99 5.744.794 5.134zM7 7a1 1 0 1 1 2 0a1 1 0 0 1-2 0M4.5 9h3v1h-3zM5 7a1 1 0 1 1-2 0a1 1 0 0 1 2 0"/></symbol><symbol id="hd-icon-garden-bot-sparkle-fill-16" viewBox="0 0 16 16"><path fill="currentColor" d="M.279 3.53A.4.4 0 0 0 0 3.914c0 .174.115.327.279.382l1.021.327c.46.158.83.53.984.988l.344 1.026a.4.4 0 0 0 .382.273c.17 0 .323-.114.377-.278a7 7 0 0 0 .12-.379c.134-.449.303-1.013.585-1.253c.237-.282.784-.444 1.23-.577a6 6 0 0 0 .403-.127c.367-.104.367-.66 0-.764l-1.027-.323a1.58 1.58 0 0 1-.978-.982l-.333-1.043c-.104-.365-.66-.365-.765 0L2.3 2.21c-.222.767-1.004 1.007-1.7 1.22q-.166.05-.321.1M7 4h-.003c-.031.483-.322 1.043-.955 1.244a8 8 0 0 1-.416.131l-.013.004c-.153.046-.292.087-.424.133a2 2 0 0 0-.301.124l-.05.029l-.034.041l-.042.036l-.032.053q-.056.106-.127.305a10 10 0 0 0-.133.423l-.008.026c-.039.13-.084.282-.131.413a1.4 1.4 0 0 1-1.32.947a1.4 1.4 0 0 1-1.332-.956L1.5 6.418v.037a1.5 1.5 0 0 0 0 3V15a1 1 0 0 0 1 1h11a1 1 0 0 0 1-1V9.545a1.5 1.5 0 0 0 0-3V5a1 1 0 0 0-1-1H9V2.727A.727.727 0 0 0 8.273 2h-.546A.727.727 0 0 0 7 2.727zm-.453 5a1 1 0 1 1-2 0a1 1 0 0 1 2 0m4.976 0a1 1 0 1 1-2 0a1 1 0 0 1 2 0M10 12v1H6v-1z"/></symbol><symbol id="hd-icon-garden-bot-sparkle-stroke-12" viewBox="0 0 12 12"><path fill="currentColor" d="M0 3.002c0-.116.073-.218.186-.254c.502-.168 1.176-.288 1.347-.881l.215-.684c.07-.244.44-.244.51 0l.222.695c.102.306.35.553.652.655l.685.215c.244.069.244.44 0 .509c-.295.11-.878.218-1.089.47c-.248.21-.364.796-.47 1.087A.27.27 0 0 1 2.007 5a.27.27 0 0 1-.255-.182l-.23-.684a1.06 1.06 0 0 0-.655-.659l-.681-.218A.27.27 0 0 1 0 3.002M.76 5.03A1.001 1.001 0 0 0 1 7v3.91c0 .602.488 1.09 1.09 1.09h7.82A1.09 1.09 0 0 0 11 10.91V7a1 1 0 0 0 0-2v-.91A1.09 1.09 0 0 0 9.91 3H7v-.955a.545.545 0 0 0-.545-.545h-.91A.545.545 0 0 0 5 2.045v.958c0 .335-.144.735-.474.997h5.383c.05 0 .091.04.091.09v6.82c0 .05-.04.09-.09.09H2.09a.09.09 0 0 1-.09-.09V6h-.002C1.55 6 .99 5.744.794 5.134zM7.5 9h-3v1h3zM5 7a1 1 0 1 1-2 0a1 1 0 0 1 2 0m4 0a1 1 0 1 1-2 0a1 1 0 0 1 2 0"/></symbol><symbol id="hd-icon-garden-bot-sparkle-stroke-16" viewBox="0 0 16 16"><path fill="currentColor" d="M6.547 9a1 1 0 1 1-2 0a1 1 0 0 1 2 0m4.976 0a1 1 0 1 1-2 0a1 1 0 0 1 2 0M6 12h4v1H6zM0 3.913c0-.175.11-.328.279-.382c.754-.252 1.764-.432 2.021-1.321l.322-1.027c.104-.365.661-.365.765 0l.333 1.043c.153.458.525.83.978.982l1.027.323c.367.103.367.66 0 .764c-.442.163-1.316.327-1.633.704c-.372.316-.546 1.195-.705 1.632a.4.4 0 0 1-.377.278a.4.4 0 0 1-.382-.273L2.284 5.61a1.59 1.59 0 0 0-.984-.988L.28 4.295A.405.405 0 0 1 0 3.913m2.5 3.901V15h11V5H6.495c.322-.265.48-.652.502-1H7V2.727C7 2.326 7.326 2 7.727 2h.546c.401 0 .727.326.727.727V4h4.5a1 1 0 0 1 1 1v1.545a1.5 1.5 0 0 1 0 3V15a1 1 0 0 1-1 1h-11a1 1 0 0 1-1-1V9.455a1.5 1.5 0 0 1 0-3v-.037l.18.535c.135.406.442.714.82.86Z"/></symbol><symbol id="hd-icon-garden-box-3d-fill-12" viewBox="0 0 12 12"><path fill="currentColor" d="M10.56 2.69L6.4.46a.87.87 0 0 0-.8 0L1.44 2.69c-.27.15-.44.44-.44.75v5.12c0 .31.17.6.45.75l4.15 2.24c.13.07.27.1.4.1c.14 0 .28-.03.4-.1l4.16-2.24c.27-.15.44-.44.44-.75V3.44c0-.31-.17-.6-.44-.75m-.57 1.52L6.5 6.09v4.41c0 .28-.22.5-.5.5s-.5-.22-.5-.5V6.09L1.99 4.2a.623.623 0 0 1 .59-1.1L6 4.94l3.4-1.83c.3-.17.68-.05.85.25c.16.31.05.69-.26.85"/></symbol><symbol id="hd-icon-garden-box-3d-fill-16" viewBox="0 0 16 16"><path fill="currentColor" d="m14.47 3.42l-6-3.23a1 1 0 0 0-.95 0l-6 3.23c-.32.17-.52.51-.52.88v7.4c0 .37.2.71.53.88l6 3.23a1 1 0 0 0 .95 0l6-3.23c.32-.17.52-.51.52-.88V4.3c0-.37-.2-.71-.53-.88m-.67 1.63L8.5 7.94v6.56c0 .28-.22.5-.5.5s-.5-.22-.5-.5V7.94L2.2 5.05a.637.637 0 0 1-.25-.85c.17-.3.55-.41.85-.25L8 6.79l5.2-2.84c.3-.17.68-.05.85.25c.16.3.05.68-.25.85"/></symbol><symbol id="hd-icon-garden-box-3d-stroke-12" viewBox="0 0 12 12"><path fill="none" stroke="currentColor" stroke-linejoin="round" d="M5.84.9L1.68 3.13c-.11.06-.18.18-.18.31v5.12c0 .13.07.24.18.3l4.15 2.24c.1.06.23.06.33 0l4.15-2.24a.35.35 0 0 0 .18-.3V3.44c0-.13-.07-.24-.18-.3L6.16.9a.31.31 0 0 0-.32 0zM1.5 3.23L6 5.65l4.5-2.42M6 5.65v5.2"/></symbol><symbol id="hd-icon-garden-box-3d-stroke-16" viewBox="0 0 16 16"><path fill="none" stroke="currentColor" d="m7.76.63l-6 3.23c-.16.09-.26.25-.26.44v7.4c0 .18.1.35.26.44l6 3.23c.15.08.33.08.47 0l6-3.23c.16-.09.26-.26.26-.44V4.3c0-.18-.1-.35-.26-.44l-6-3.23a.49.49 0 0 0-.47 0zM1.5 4L8 7.5L14.5 4M8 7.5V15"/></symbol><symbol id="hd-icon-garden-building-26" viewBox="0 0 26 26"><path fill="currentColor" d="M5 4a1 1 0 0 1 1-1h14a1 1 0 0 1 1 1v18a1 1 0 0 1-1 1h-3a1 1 0 0 1-1-1v-4a1 1 0 0 0-1-1h-4a1 1 0 0 0-1 1v4a1 1 0 0 1-1 1H6a1 1 0 0 1-1-1zm4 2v3h3V6zm0 5v3h3v-3zm5-5v3h3V6zm0 5v3h3v-3z"/></symbol><symbol id="hd-icon-garden-building-fill-12" viewBox="0 0 12 12"><path fill="currentColor" d="M10 0H2c-.55 0-1 .45-1 1v10c0 .55.45 1 1 1h1.5c.28 0 .5-.22.5-.5v-3c0-.28.22-.5.5-.5h3c.28 0 .5.22.5.5v3c0 .28.22.5.5.5H10c.55 0 1-.45 1-1V1c0-.55-.45-1-1-1M5 7H3V5h2zm0-3H3V2h2zm4 3H7V5h2zm0-3H7V2h2z"/></symbol><symbol id="hd-icon-garden-building-fill-16" viewBox="0 0 16 16"><path fill="currentColor" d="M13 0H3c-.55 0-1 .45-1 1v14c0 .55.45 1 1 1h2.5c.28 0 .5-.22.5-.5v-4c0-.28.22-.5.5-.5h3c.28 0 .5.22.5.5v4c0 .28.22.5.5.5H13c.55 0 1-.45 1-1V1c0-.55-.45-1-1-1M7 9H5V7h2zm0-4H5V3h2zm4 4H9V7h2zm0-4H9V3h2z"/></symbol><symbol id="hd-icon-garden-building-stroke-12" viewBox="0 0 12 12"><path fill="none" stroke="currentColor" d="M10 .5H2c-.3 0-.5.2-.5.5v10c0 .3.2.5.5.5h2c.3 0 .5-.2.5-.5V9c0-.3.2-.5.5-.5h2c.3 0 .5.2.5.5v2c0 .3.2.5.5.5h2c.3 0 .5-.2.5-.5V1c0-.3-.2-.5-.5-.5z"/><path fill="currentColor" d="M3 5h2v2H3zm4 0h2v2H7zM3 2h2v2H3zm4 0h2v2H7z"/></symbol><symbol id="hd-icon-garden-building-stroke-16" viewBox="0 0 16 16"><path fill="none" stroke="currentColor" d="M13 .5H3c-.3 0-.5.2-.5.5v14c0 .3.2.5.5.5h3c.3 0 .5-.2.5-.5v-3c0-.3.2-.5.5-.5h2c.3 0 .5.2.5.5v3c0 .3.2.5.5.5h3c.3 0 .5-.2.5-.5V1c0-.3-.2-.5-.5-.5z"/><path fill="currentColor" d="M5 7h2v2H5zm4 0h2v2H9zM5 3h2v2H5zm4 0h2v2H9z"/></symbol><symbol id="hd-icon-garden-calendar-fill-12" viewBox="0 0 12 12"><path fill="currentColor" d="M2 1a1 1 0 0 1 2 0v2a1 1 0 0 1-2 0zm6 0a1 1 0 0 1 2 0v2a1 1 0 0 1-2 0zM5 2h2v1a2 2 0 1 0 4 0V2a1 1 0 0 1 1 1v8a1 1 0 0 1-1 1H1a1 1 0 0 1-1-1V3a1 1 0 0 1 1-1v1a2 2 0 1 0 4 0zm2 5a1 1 0 1 0-2 0a1 1 0 0 0 2 0m2 1a1 1 0 1 0 0-2a1 1 0 0 0 0 2m-2 2a1 1 0 1 0-2 0a1 1 0 0 0 2 0m-4 1a1 1 0 1 0 0-2a1 1 0 0 0 0 2m7-1a1 1 0 1 0-2 0a1 1 0 0 0 2 0"/></symbol><symbol id="hd-icon-garden-calendar-fill-16" viewBox="0 0 16 16"><path fill="currentColor" d="M3 1a1 1 0 0 1 2 0v3a1 1 0 0 1-2 0zm8 0a1 1 0 1 1 2 0v3a1 1 0 1 1-2 0zM6 2h4v2a2 2 0 1 0 4 0V2h1a1 1 0 0 1 1 1v12a1 1 0 0 1-1 1H1a1 1 0 0 1-1-1V3a1 1 0 0 1 1-1h1v2a2 2 0 1 0 4 0zm3 7a1 1 0 1 0-2 0a1 1 0 0 0 2 0m3 1a1 1 0 1 0 0-2a1 1 0 0 0 0 2m-3 3a1 1 0 1 0-2 0a1 1 0 0 0 2 0m-5 1a1 1 0 1 0 0-2a1 1 0 0 0 0 2m9-1a1 1 0 1 0-2 0a1 1 0 0 0 2 0"/></symbol><symbol id="hd-icon-garden-calendar-stroke-12" viewBox="0 0 12 12"><path fill="currentColor" d="M2 1a1 1 0 0 1 2 0v1h4V1a1 1 0 1 1 2 0v1h1a1 1 0 0 1 1 1v8a1 1 0 0 1-1 1H1a1 1 0 0 1-1-1V3a1 1 0 0 1 1-1h1zm6 2H4a1 1 0 0 1-2 0H1v8h10V3h-1a1 1 0 1 1-2 0M7 6a1 1 0 1 1-2 0a1 1 0 0 1 2 0m3 0a1 1 0 1 1-2 0a1 1 0 0 1 2 0M7 9a1 1 0 1 1-2 0a1 1 0 0 1 2 0M4 9a1 1 0 1 1-2 0a1 1 0 0 1 2 0m6 0a1 1 0 1 1-2 0a1 1 0 0 1 2 0"/></symbol><symbol id="hd-icon-garden-calendar-stroke-16" viewBox="0 0 16 16"><path fill="currentColor" d="M9 8a1 1 0 1 1-2 0a1 1 0 0 1 2 0m4 0a1 1 0 1 1-2 0a1 1 0 0 1 2 0m-5 5a1 1 0 1 0 0-2a1 1 0 0 0 0 2m-3-1a1 1 0 1 1-2 0a1 1 0 0 1 2 0m7 1a1 1 0 1 0 0-2a1 1 0 0 0 0 2M4 0a1 1 0 0 0-1 1v1H1a1 1 0 0 0-1 1v12a1 1 0 0 0 1 1h14a1 1 0 0 0 1-1V3a1 1 0 0 0-1-1h-2V1a1 1 0 1 0-2 0v1H5V1a1 1 0 0 0-1-1m7 4a1 1 0 1 0 2 0V3h2v12H1V3h2v1a1 1 0 0 0 2 0V3h6z"/></symbol><symbol id="hd-icon-garden-call-in-26" viewBox="0 0 26 26"><path fill="currentColor" d="M19.164 17.152c1.191 1.087 1.557 1.824 1.778 2.238a.5.5 0 0 1-.09.588c-1.078 1.09-1.784 1.87-2.813 1.992c-2.3.29-5.724-1.535-9.092-4.917c-3.381-3.367-5.207-6.791-4.917-9.09c.122-1.03.905-1.737 1.997-2.816a.49.49 0 0 1 .58-.09c.412.221 1.151.585 2.24 1.78c1.112 1.224 1.466 2.144 1.537 2.668a.66.66 0 0 1-.205.517c-.411.41-1.352 1.265-1.48 1.704c-.169.538.142 1.203.687 2.002c.34.481.807 1.033 1.33 1.557c.523.523 1.075.99 1.556 1.33c.8.544 1.465.855 2.003.686c.439-.128 1.294-1.068 1.705-1.478a.65.65 0 0 1 .516-.206c.524.07 1.444.425 2.668 1.535M14.897 5.287c.492 0 .897.407.897.9l.007 2.769l4.671-4.692a.89.89 0 0 1 1.266 0a.9.9 0 0 1 0 1.27l-4.664 4.671h2.72c.491 0 .896.407.896.901a.89.89 0 0 1-.89.894h-4.774A1.03 1.03 0 0 1 14 10.968l.007-4.787c0-.494.405-.901.89-.894"/></symbol><symbol id="hd-icon-garden-camera-fill-12" viewBox="0 0 12 12"><path fill="currentColor" d="M11.09 2.55H9.42V2.4A1.66 1.66 0 0 0 7.76.74H4.21A1.66 1.66 0 0 0 2.55 2.4v.15H.91a.91.91 0 0 0-.91.91v6.65a.91.91 0 0 0 .91.89h10.18a.91.91 0 0 0 .91-.91V3.46a.91.91 0 0 0-.91-.91M6 9.26a2.51 2.51 0 1 1 2.51-2.51A2.51 2.51 0 0 1 6 9.26M6 4.9a1.85 1.85 0 1 0 1.85 1.85A1.85 1.85 0 0 0 6 4.9"/></symbol><symbol id="hd-icon-garden-camera-fill-16" viewBox="0 0 16 16"><path fill="currentColor" d="M14.79 3h-2.23v-.2A2.22 2.22 0 0 0 10.34.59H5.62A2.22 2.22 0 0 0 3.4 2.82V3H1.21A1.21 1.21 0 0 0 0 4.23v8.87a1.21 1.21 0 0 0 1.21 1.21h13.58A1.21 1.21 0 0 0 16 13.1V4.23A1.21 1.21 0 0 0 14.79 3M8 12a3.35 3.35 0 1 1 3.35-3.34A3.35 3.35 0 0 1 8 12m0-5.85a2.47 2.47 0 1 0 2.47 2.47A2.48 2.48 0 0 0 8 6.15"/></symbol><symbol id="hd-icon-garden-camera-stroke-12" viewBox="0 0 12 12"><path fill="currentColor" d="M7.73 1.71a.67.67 0 0 1 .68.67v1.16H11v6.51H.94V3.54H3.5V2.38a.67.67 0 0 1 .67-.67zm0-1H4.17A1.67 1.67 0 0 0 2.5 2.38v.16H.85a.91.91 0 0 0-.91.91v6.69a.91.91 0 0 0 .91.91h10.24a.91.91 0 0 0 .91-.91V3.45a.91.91 0 0 0-.91-.91H9.41v-.16A1.68 1.68 0 0 0 7.73.71M6 5.23a1.53 1.53 0 1 1-1.56 1.53A1.53 1.53 0 0 1 6 5.23m0-1a2.53 2.53 0 1 0 2.49 2.53A2.53 2.53 0 0 0 6 4.23"/></symbol><symbol id="hd-icon-garden-camera-stroke-16" viewBox="0 0 16 16"><path fill="currentColor" d="M10.34 1.67a1.16 1.16 0 0 1 1.16 1.15v1.27h3.29a.15.15 0 0 1 .14.15v8.86a.14.14 0 0 1-.14.15H1.21a.14.14 0 0 1-.14-.15V4.24a.15.15 0 0 1 .14-.15h3.25V2.82a1.16 1.16 0 0 1 1.16-1.15zm0-1.07H5.62A2.22 2.22 0 0 0 3.4 2.82V3H1.21A1.21 1.21 0 0 0 0 4.24v8.86a1.22 1.22 0 0 0 1.21 1.22h13.58A1.22 1.22 0 0 0 16 13.1V4.24A1.21 1.21 0 0 0 14.79 3h-2.23v-.18A2.22 2.22 0 0 0 10.34.6M8 6.28a2.35 2.35 0 1 1-2.35 2.35A2.35 2.35 0 0 1 8 6.28m0-1a3.35 3.35 0 1 0 3.35 3.35A3.35 3.35 0 0 0 8 5.28"/></symbol><symbol id="hd-icon-garden-car-fill-12" viewBox="0 0 12 12"><path fill="currentColor" d="M1.11 4L2.015.379A.5.5 0 0 1 2.5 0h7a.5.5 0 0 1 .485.379L10.89 4H11a1 1 0 0 1 1 1v4a1 1 0 0 1-1 1v1a1 1 0 0 1-2 0v-1H3v1a1 1 0 0 1-2 0v-1a1 1 0 0 1-1-1V5a1 1 0 0 1 1-1zM3 6a1 1 0 1 0 0 2a1 1 0 0 0 0-2m6 0a1 1 0 1 0 0 2a1 1 0 0 0 0-2M2.89 1l-.75 3h7.72l-.75-3z"/></symbol><symbol id="hd-icon-garden-car-fill-16" viewBox="0 0 16 16"><path fill="currentColor" d="M12 13H4v1.5a1.5 1.5 0 0 1-3 0v-1.585A1.5 1.5 0 0 1 0 11.5v-5a1.5 1.5 0 0 1 1.145-1.458L3.035.314A.5.5 0 0 1 3.5 0h9a.5.5 0 0 1 .464.314l1.891 4.728A1.5 1.5 0 0 1 16 6.5v5a1.5 1.5 0 0 1-1 1.415V14.5a1.5 1.5 0 0 1-3 0zM5 9a1 1 0 1 0-2 0a1 1 0 0 0 2 0m7-1a1 1 0 1 0 0 2a1 1 0 0 0 0-2M2.239 5H13.76l-1.6-4H3.84z"/></symbol><symbol id="hd-icon-garden-car-stroke-12" viewBox="0 0 12 12"><path fill="none" stroke="currentColor" stroke-linejoin="round" d="M1 4.5h10a.5.5 0 0 1 .5.5v4a.5.5 0 0 1-.5.5H1A.5.5 0 0 1 .5 9V5a.5.5 0 0 1 .5-.5zm.5 5h1V11a.5.5 0 1 1-1 0zm8 0h1V11a.5.5 0 1 1-1 0zm-7-9h7l1 4h-9zm.5 6a.5.5 0 1 0 0 1a.5.5 0 0 0 0-1zm6 0a.5.5 0 1 0 0 1a.5.5 0 0 0 0-1z"/></symbol><symbol id="hd-icon-garden-car-stroke-16" viewBox="0 0 16 16"><path fill="none" stroke="currentColor" stroke-linejoin="round" d="M1.5 5.5h13a1 1 0 0 1 1 1v5a1 1 0 0 1-1 1h-13a1 1 0 0 1-1-1v-5a1 1 0 0 1 1-1zm2-5h9l2 5h-13zm-2 12h2v2a1 1 0 0 1-2 0zm11 0h2v2a1 1 0 0 1-2 0zM4 8.5a.5.5 0 1 0 0 1a.5.5 0 0 0 0-1zm8 0a.5.5 0 1 0 0 1a.5.5 0 0 0 0-1z"/></symbol><symbol id="hd-icon-garden-center-fill-12" viewBox="0 0 12 12"><path fill="currentColor" d="M10 11a1 1 0 0 0 0-2H2a1 1 0 1 0 0 2zM8 3H4a1 1 0 0 0-1 1v3a1 1 0 0 0 1 1h4a1 1 0 0 0 1-1V4a1 1 0 0 0-1-1M2 0a1 1 0 1 0 0 2h8a1 1 0 0 0 0-2z"/></symbol><symbol id="hd-icon-garden-center-fill-16" viewBox="0 0 16 16"><path fill="currentColor" d="M2 15a1 1 0 0 1 0-2h12a1 1 0 0 1 0 2zm9-10H5a1 1 0 0 0-1 1v4a1 1 0 0 0 1 1h6a1 1 0 0 0 1-1V6a1 1 0 0 0-1-1M2 3a1 1 0 1 1 0-2h12a1 1 0 0 1 0 2z"/></symbol><symbol id="hd-icon-garden-center-stroke-12" viewBox="0 0 12 12"><path fill="currentColor" d="M10.5 11a.5.5 0 1 0 0-1h-9a.5.5 0 1 0 0 1zM4 3h4a1 1 0 0 1 1 1v4a1 1 0 0 1-1 1H4a1 1 0 0 1-1-1V4a1 1 0 0 1 1-1m0 1v4h4V4zM1.5 1a.5.5 0 0 0 0 1h9a.5.5 0 1 0 0-1z"/></symbol><symbol id="hd-icon-garden-center-stroke-16" viewBox="0 0 16 16"><path fill="currentColor" d="M1.5 14a.5.5 0 1 1 0-1h13a.5.5 0 1 1 0 1zM11 4H5a1 1 0 0 0-1 1v5a1 1 0 0 0 1 1h6a1 1 0 0 0 1-1V5a1 1 0 0 0-1-1m0 1v5H5V5zm3.5-4a.5.5 0 1 1 0 1h-13a.5.5 0 0 1 0-1z"/></symbol><symbol id="hd-icon-garden-chat-26" viewBox="0 0 26 26"><path fill="currentColor" d="M20.95 4H5.05C4.473 4 4 4.476 4 5.059v12.536c0 .583.473 1.06 1.05 1.06h5.178v3.08c0 .212.23.34.41.223l5.134-3.304h5.178c.577 0 1.05-.476 1.05-1.059V5.06C22 4.476 21.527 4 20.95 4M8.918 14C8.416 14 8 13.563 8 13.011v-.022c0-.552.416-.989.918-.989h8.154c.512 0 .928.448.928 1s-.416 1-.928 1zm0-4C8.416 10 8 9.563 8 9.011V8.99c0-.553.416-.99.918-.99h8.154c.512 0 .928.448.928 1s-.416 1-.928 1z"/></symbol><symbol id="hd-icon-garden-check-badge-fill-12" viewBox="0 0 12 12"><path fill="currentColor" d="m6.933.332l.113.101l.89.89l1.26.001a1.48 1.48 0 0 1 1.453 1.198l.02.138l.007.143l-.002 1.259l.893.892a1.48 1.48 0 0 1 .19 1.86l-.089.12l-.101.112l-.893.891l.001 1.258c0 .659-.432 1.224-1.056 1.415l-.136.035l-.142.023l-.144.007h-1.26l-.891.892a1.48 1.48 0 0 1-1.86.19l-.12-.089l-.112-.101l-.892-.893l-1.258.001A1.48 1.48 0 0 1 1.35 9.48l-.02-.139l-.006-.142V7.936l-.89-.89a1.48 1.48 0 0 1-.19-1.86l.088-.12l.101-.112l.89-.891l.001-1.26c0-.72.516-1.32 1.198-1.452l.139-.02l.142-.007h1.26l.891-.89a1.48 1.48 0 0 1 1.98-.102zm1.212 3.657l-.085.071L5.5 6.62L4.44 5.56a.63.63 0 0 0-.88 0a.63.63 0 0 0-.071.795l.071.085l1.5 1.5a.625.625 0 0 0 .804.065l.076-.065l3-3a.61.61 0 0 0 0-.88a.63.63 0 0 0-.795-.071"/></symbol><symbol id="hd-icon-garden-check-badge-fill-16" viewBox="0 0 16 16"><path fill="currentColor" d="M6.102 1.579a1.977 1.977 0 0 1 2.67-.116l.126.116l1.037 1.037l1.47.002c.99 0 1.81.727 1.955 1.677l.017.152l.005.148l-.001 1.467l1.04 1.04c.69.691.763 1.766.218 2.537l-.103.133l-.115.126l-1.04 1.036l.001 1.472c0 .99-.727 1.81-1.677 1.954l-.152.017l-.148.005l-1.471-.001l-1.036 1.04a1.98 1.98 0 0 1-2.537.218l-.133-.102l-.126-.116l-1.04-1.04l-1.468.001c-.99 0-1.81-.727-1.954-1.677l-.017-.151l-.005-.148l-.002-1.471L.579 9.898A1.98 1.98 0 0 1 .36 7.36l.103-.132l.115-.126l1.038-1.04l.002-1.469c0-.99.727-1.81 1.677-1.954l.151-.017l.148-.005l1.469-.002zm4.043 4.41l-.085.071L6.5 9.62L4.94 8.06a.63.63 0 0 0-.88 0a.63.63 0 0 0-.071.795l.071.085l2 2a.625.625 0 0 0 .804.065l.076-.065l4-4a.61.61 0 0 0 0-.88a.63.63 0 0 0-.795-.071"/></symbol><symbol id="hd-icon-garden-check-badge-stroke-12" viewBox="0 0 12 12"><path fill="currentColor" d="M4.954.433a1.48 1.48 0 0 1 1.98-.101l.112.101l.89.89l1.26.001a1.48 1.48 0 0 1 1.453 1.198l.02.138l.007.143l-.002 1.259l.893.892a1.48 1.48 0 0 1 .19 1.86l-.089.12l-.101.112l-.893.891l.001 1.258c0 .659-.432 1.224-1.056 1.415l-.136.035l-.142.023l-.144.007h-1.26l-.891.892a1.48 1.48 0 0 1-1.86.19l-.12-.089l-.112-.101l-.892-.893l-1.258.001A1.48 1.48 0 0 1 1.35 9.48l-.02-.139l-.006-.142V7.936l-.89-.89a1.48 1.48 0 0 1-.19-1.86l.088-.12l.101-.112l.89-.891l.001-1.26c0-.72.516-1.32 1.198-1.452l.139-.02l.142-.007h1.26l.891-.89zm1.394.711a.49.49 0 0 0-.618-.063l-.078.063L4.476 2.32H2.812a.49.49 0 0 0-.484.404l-.008.088v1.664L1.144 5.652a.49.49 0 0 0-.063.618l.063.078L2.32 7.524v1.674l.008.078a.49.49 0 0 0 .312.372l.083.023l.089.008l1.662-.001l1.178 1.178a.49.49 0 0 0 .618.063l.078-.063l1.178-1.178h1.633l.087-.002a.49.49 0 0 0 .407-.33l.02-.077l.006-.082l-.001-1.661l1.178-1.178a.49.49 0 0 0 .063-.618l-.063-.078l-1.178-1.178V2.812a.49.49 0 0 0-.402-.484l-.088-.008H7.524zm2.256 3.002a.5.5 0 0 1 0 .708l-3 3a.5.5 0 0 1-.708 0l-1.5-1.5a.5.5 0 1 1 .708-.708L5.25 6.793l2.646-2.647a.5.5 0 0 1 .708 0"/></symbol><symbol id="hd-icon-garden-check-badge-stroke-16" viewBox="0 0 16 16"><path fill="currentColor" d="m5.063 2.616l-1.47.002l-.147.005a1.977 1.977 0 0 0-1.828 1.971l-.002 1.469l-1.038 1.04l-.115.126A1.977 1.977 0 0 0 .58 9.898l1.037 1.037l.002 1.471l.005.148a1.977 1.977 0 0 0 1.971 1.828l1.468-.001l1.04 1.04l.126.116a1.977 1.977 0 0 0 2.67-.116l1.036-1.04l1.471.001l.148-.005a1.977 1.977 0 0 0 1.83-1.971l-.002-1.472l1.04-1.036l.115-.126a1.977 1.977 0 0 0-.115-2.67l-1.04-1.04l.001-1.467l-.005-.148a1.977 1.977 0 0 0-1.971-1.83l-1.471-.001l-1.037-1.037a1.976 1.976 0 0 0-2.796 0zm3.127-.33l1.331 1.331h1.885c.539 0 .976.438.976.977v1.883l1.332 1.333c.381.38.381 1 0 1.38l-1.333 1.331l.001 1.885a.976.976 0 0 1-.976.976H9.52l-1.33 1.332a.976.976 0 0 1-1.381 0l-1.333-1.333l-1.883.001a.976.976 0 0 1-.976-.976l-.001-1.885l-1.331-1.33a.976.976 0 0 1 0-1.381l1.331-1.333V4.594c0-.539.438-.976.977-.976l1.883-.001L6.81 2.286a.976.976 0 0 1 1.38 0m2.664 3.86a.5.5 0 0 1 0 .708l-4 4a.5.5 0 0 1-.708 0l-2-2a.5.5 0 1 1 .708-.708L6.5 9.793l3.646-3.647a.5.5 0 0 1 .708 0"/></symbol><symbol id="hd-icon-garden-check-box-double-fill-12" viewBox="0 0 12 12"><path fill="currentColor" d="M9 0H1C.45 0 0 .45 0 1v8c0 .55.45 1 1 1h8c.55 0 1-.45 1-1V1c0-.55-.45-1-1-1M7.94 3.94l-3.5 3.5c-.12.12-.28.18-.44.18s-.32-.06-.44-.18l-1.5-1.5c-.24-.24-.24-.64 0-.88s.64-.24.88 0L4 6.12l3.06-3.06c.24-.24.64-.24.88 0c.25.24.25.64 0 .88"/><path fill="none" stroke="currentColor" stroke-linecap="round" d="M2.5 11.5H11c.28 0 .5-.22.5-.5V2.5"/></symbol><symbol id="hd-icon-garden-check-box-double-fill-16" viewBox="0 0 16 16"><path fill="none" stroke="currentColor" stroke-linecap="round" d="M4.5 14.5H14c.28 0 .5-.22.5-.5V4.5"/><path fill="currentColor" d="M12 1H2c-.55 0-1 .45-1 1v10c0 .55.45 1 1 1h10c.55 0 1-.45 1-1V2c0-.55-.45-1-1-1m-1.06 3.94l-4.5 4.5c-.12.12-.28.18-.44.18s-.32-.06-.44-.18l-2.5-2.5c-.24-.24-.24-.64 0-.88s.64-.24.88 0L6 8.12l4.06-4.06c.24-.24.64-.24.88 0c.25.24.25.64 0 .88"/></symbol><symbol id="hd-icon-garden-check-box-double-stroke-12" viewBox="0 0 12 12"><g fill="none" stroke="currentColor"><rect width="9" height="9" x=".5" y=".5" rx=".5" ry=".5"/><path stroke-linecap="round" stroke-linejoin="round" d="M2.5 5.5L4 7l3.5-3.5m-5 8H11a.5.5 0 0 0 .5-.5V2.5"/></g></symbol><symbol id="hd-icon-garden-check-box-double-stroke-16" viewBox="0 0 16 16"><g fill="none" stroke="currentColor"><rect width="11" height="11" x="1.5" y="1.5" rx=".5" ry=".5"/><path stroke-linecap="round" stroke-linejoin="round" d="M3.5 6.5L6 9l4.5-4.5m-6 10H14a.5.5 0 0 0 .5-.5V4.5"/></g></symbol><symbol id="hd-icon-garden-check-box-fill-12" viewBox="0 0 12 12"><path fill="currentColor" d="M11 0H1C.45 0 0 .45 0 1v10c0 .55.45 1 1 1h10c.55 0 1-.45 1-1V1c0-.55-.45-1-1-1M9.44 4.94l-4 4c-.12.12-.28.18-.44.18s-.32-.06-.44-.18l-2-2c-.24-.24-.24-.64 0-.88s.64-.24.88 0L5 7.62l3.56-3.56c.24-.24.64-.24.88 0c.25.24.25.64 0 .88"/></symbol><symbol id="hd-icon-garden-check-box-fill-16" viewBox="0 0 16 16"><path fill="currentColor" d="M14 1H2c-.55 0-1 .45-1 1v12c0 .55.45 1 1 1h12c.55 0 1-.45 1-1V2c0-.55-.45-1-1-1m-1.56 5.44l-5 5c-.12.12-.28.18-.44.18s-.32-.06-.44-.18l-2.5-2.5c-.24-.24-.24-.64 0-.88s.64-.24.88 0L7 10.12l4.56-4.56c.24-.24.64-.24.88 0c.25.24.25.64 0 .88"/></symbol><symbol id="hd-icon-garden-check-box-stroke-12" viewBox="0 0 12 12"><g fill="none" stroke="currentColor"><rect width="11" height="11" x=".5" y=".5" rx=".5" ry=".5"/><path stroke-linecap="round" stroke-linejoin="round" d="m3 6.5l2 2l4-4"/></g></symbol><symbol id="hd-icon-garden-check-box-stroke-16" viewBox="0 0 16 16"><g fill="none" stroke="currentColor"><rect width="13" height="13" x="1.5" y="1.5" rx=".5" ry=".5"/><path stroke-linecap="round" stroke-linejoin="round" d="M4.5 8.5L7 11l5-5"/></g></symbol><symbol id="hd-icon-garden-check-circle-fill-12" viewBox="0 0 12 12"><path fill="currentColor" d="M6 0C2.69 0 0 2.69 0 6s2.69 6 6 6s6-2.69 6-6s-2.69-6-6-6m3.44 4.94l-3.5 3.5c-.12.12-.28.18-.44.18s-.32-.06-.44-.18l-2-2c-.24-.24-.24-.64 0-.88s.64-.24.88 0L5.5 7.12l3.06-3.06c.24-.24.64-.24.88 0c.25.24.25.64 0 .88"/></symbol><symbol id="hd-icon-garden-check-circle-fill-16" viewBox="0 0 16 16"><path fill="currentColor" d="M7.5 1C3.36 1 0 4.36 0 8.5S3.36 16 7.5 16S15 12.64 15 8.5S11.64 1 7.5 1m4.44 5.94l-5 5c-.12.12-.28.18-.44.18s-.32-.06-.44-.18l-2.5-2.5c-.24-.24-.24-.64 0-.88s.64-.24.88 0l2.06 2.06l4.56-4.56c.24-.24.64-.24.88 0c.25.24.25.64 0 .88"/></symbol><symbol id="hd-icon-garden-check-circle-stroke-12" viewBox="0 0 12 12"><g fill="none" stroke="currentColor"><path stroke-linecap="round" stroke-linejoin="round" d="m3.5 6l2 2L9 4.5"/><circle cx="6" cy="6" r="5.5"/></g></symbol><symbol id="hd-icon-garden-check-circle-stroke-16" viewBox="0 0 16 16"><g fill="none" stroke="currentColor"><path stroke-linecap="round" stroke-linejoin="round" d="m4 9l2.5 2.5l5-5"/><circle cx="7.5" cy="8.5" r="7"/></g></symbol><symbol id="hd-icon-garden-check-double-fill-12" viewBox="0 0 12 12"><path fill="none" stroke="currentColor" stroke-linecap="round" stroke-linejoin="round" stroke-width="2" d="m1 6l2 2l4-4m0 4l4-4"/></symbol><symbol id="hd-icon-garden-check-double-fill-16" viewBox="0 0 16 16"><path fill="none" stroke="currentColor" stroke-linecap="round" stroke-linejoin="round" stroke-width="2" d="m1 9l2.5 2.5L10 5m-1.5 6.5L15 5"/></symbol><symbol id="hd-icon-garden-check-double-stroke-12" viewBox="0 0 12 12"><path fill="none" stroke="currentColor" stroke-linecap="round" stroke-linejoin="round" d="m1 6l2.5 2.5l5-5m-2 5l5-5"/></symbol><symbol id="hd-icon-garden-check-double-stroke-16" viewBox="0 0 16 16"><path fill="none" stroke="currentColor" stroke-linecap="round" stroke-linejoin="round" d="M1.5 9L4 11.5L10.5 5M8 11.5L14.5 5"/></symbol><symbol id="hd-icon-garden-check-lg-fill-12" viewBox="0 0 12 12"><path fill="none" stroke="currentColor" stroke-linecap="round" stroke-linejoin="round" stroke-width="2" d="m1 7l3 3l7-7"/></symbol><symbol id="hd-icon-garden-check-lg-fill-16" viewBox="0 0 16 16"><path fill="none" stroke="currentColor" stroke-linecap="round" stroke-linejoin="round" stroke-width="2" d="m1 9l4 4L15 3"/></symbol><symbol id="hd-icon-garden-check-lg-stroke-12" viewBox="0 0 12 12"><path fill="none" stroke="currentColor" stroke-linecap="round" stroke-linejoin="round" d="m1 7l3 3l7-7"/></symbol><symbol id="hd-icon-garden-check-lg-stroke-16" viewBox="0 0 16 16"><path fill="none" stroke="currentColor" stroke-linecap="round" stroke-linejoin="round" d="m1 9l4 4L15 3"/></symbol><symbol id="hd-icon-garden-check-sm-fill-12" viewBox="0 0 12 12"><path fill="none" stroke="currentColor" stroke-linecap="round" stroke-linejoin="round" stroke-width="2" d="m3 6l2 2l4-4"/></symbol><symbol id="hd-icon-garden-check-sm-fill-16" viewBox="0 0 16 16"><path fill="none" stroke="currentColor" stroke-linecap="round" stroke-linejoin="round" stroke-width="2" d="m3 9l3 3l7-7"/></symbol><symbol id="hd-icon-garden-check-sm-stroke-12" viewBox="0 0 12 12"><path fill="none" stroke="currentColor" stroke-linecap="round" stroke-linejoin="round" stroke-width="1.25" d="m3 6l2 2l4-4"/></symbol><symbol id="hd-icon-garden-check-sm-stroke-16" viewBox="0 0 16 16"><path fill="none" stroke="currentColor" stroke-linecap="round" stroke-linejoin="round" stroke-width="1.25" d="m3 9l3 3l7-7"/></symbol><symbol id="hd-icon-garden-checkbox-26" viewBox="0 0 26 26"><path fill="currentColor" d="M17.8 10.59L12.39 16l-.53.53a.996.996 0 0 1-1.41 0l-.41-.41l-1.83-1.82a.87.87 0 0 1 0-1.23l.02-.01c.33-.34.88-.34 1.22 0l1.7 1.7l5.41-5.41c.34-.33.89-.33 1.22 0l.02.02c.33.34.33.88 0 1.22M19.99 5H6c-.55 0-1 .45-1 1.01V20c0 .55.45 1 1 1h13.99c.56 0 1.01-.45 1.01-1V6.01C21 5.45 20.55 5 19.99 5"/></symbol><symbol id="hd-icon-garden-chevron-box-fill-12" viewBox="0 0 12 12"><path fill="currentColor" d="M11 1H1c-.55 0-1 .45-1 1v8c0 .55.45 1 1 1h10c.55 0 1-.45 1-1V2c0-.55-.45-1-1-1M8.94 5.44L6.8 7.59c-.22.22-.51.33-.8.33s-.58-.11-.8-.33L3.06 5.44c-.24-.24-.24-.64 0-.88s.64-.24.88 0L6 6.62l2.06-2.06c.24-.24.64-.24.88 0c.25.24.25.64 0 .88"/></symbol><symbol id="hd-icon-garden-chevron-box-fill-16" viewBox="0 0 16 16"><path fill="currentColor" d="M15 1H1c-.55 0-1 .45-1 1v12c0 .55.45 1 1 1h14c.55 0 1-.45 1-1V2c0-.55-.45-1-1-1m-2.56 5.94L8.8 10.59c-.22.22-.51.33-.8.33s-.58-.11-.8-.33L3.56 6.94c-.24-.24-.24-.64 0-.88s.64-.24.88 0L8 9.62l3.56-3.56c.24-.24.64-.24.88 0c.25.24.25.64 0 .88"/></symbol><symbol id="hd-icon-garden-chevron-box-stroke-12" viewBox="0 0 12 12"><g fill="none" stroke="currentColor"><rect width="11" height="9" x=".5" y="1.5" rx=".5" ry=".5"/><path stroke-linecap="round" d="m3.5 5l2.15 2.15a.5.5 0 0 0 .71 0L8.5 5"/></g></symbol><symbol id="hd-icon-garden-chevron-box-stroke-16" viewBox="0 0 16 16"><g fill="none" stroke="currentColor"><rect width="15" height="13" x=".5" y="1.5" rx=".5" ry=".5"/><path stroke-linecap="round" d="m4 6.5l3.65 3.65a.5.5 0 0 0 .71 0L12 6.5"/></g></symbol><symbol id="hd-icon-garden-chevron-double-down-fill-12" viewBox="0 0 12 12"><path fill="currentColor" d="m5.387 5.79l-.094-.083l-4-4A1 1 0 0 1 2.613.21l.094.083L6 3.585L9.293.293a1 1 0 0 1 1.32-.083l.094.083a1 1 0 0 1 .083 1.32l-.083.094l-4 4a1 1 0 0 1-1.32.083m0 6l-.094-.083l-4-4a1 1 0 0 1 1.32-1.497l.094.083L6 9.585l3.293-3.292a1 1 0 0 1 1.32-.083l.094.083a1 1 0 0 1 .083 1.32l-.083.094l-4 4a1 1 0 0 1-1.32.083"/></symbol><symbol id="hd-icon-garden-chevron-double-down-fill-16" viewBox="0 0 16 16"><path fill="currentColor" d="M13.78 8.375a1 1 0 0 1-.062 1.321l-.093.085l-5 4a1 1 0 0 1-1.147.072l-.103-.072l-5-4a1 1 0 0 1 1.147-1.634l.103.072L8 11.72l4.375-3.5a1 1 0 0 1 1.406.156zm0-6a1 1 0 0 1-.062 1.321l-.093.085l-5 4a1 1 0 0 1-1.147.072l-.103-.072l-5-4a1 1 0 0 1 1.147-1.634l.103.072L8 5.72l4.375-3.5a1 1 0 0 1 1.406.156z"/></symbol><symbol id="hd-icon-garden-chevron-double-down-stroke-12" viewBox="0 0 12 12"><path fill="currentColor" d="m5.716 5.911l-.07-.057l-4-4a.5.5 0 0 1 .638-.765l.07.057L6 4.793l3.646-3.647a.5.5 0 0 1 .638-.057l.07.057a.5.5 0 0 1 .057.638l-.057.07l-4 4a.5.5 0 0 1-.638.057m0 5l-.07-.057l-4-4a.5.5 0 0 1 .638-.765l.07.057L6 9.793l3.646-3.647a.5.5 0 0 1 .638-.057l.07.057a.5.5 0 0 1 .057.638l-.057.07l-4 4a.5.5 0 0 1-.638.057"/></symbol><symbol id="hd-icon-garden-chevron-double-down-stroke-16" viewBox="0 0 16 16"><path fill="currentColor" d="M13.39 8.188a.5.5 0 0 1-.013.64l-.065.062l-5 4a.5.5 0 0 1-.542.054l-.082-.054l-5-4a.5.5 0 0 1 .55-.83l.074.05L8 11.859l4.688-3.75a.5.5 0 0 1 .702.079m0-5a.5.5 0 0 1-.013.64l-.065.062l-5 4a.5.5 0 0 1-.542.054l-.082-.054l-5-4a.5.5 0 0 1 .55-.83l.074.05L8 6.859l4.688-3.75a.5.5 0 0 1 .702.079"/></symbol><symbol id="hd-icon-garden-chevron-double-left-fill-12" viewBox="0 0 12 12"><path fill="currentColor" d="m6.21 5.387l.083-.094l4-4a1 1 0 0 1 1.497 1.32l-.083.094L8.415 6l3.292 3.293a1 1 0 0 1 .083 1.32l-.083.094a1 1 0 0 1-1.32.083l-.094-.083l-4-4a1 1 0 0 1-.083-1.32m-6 0l.083-.094l4-4a1 1 0 0 1 1.497 1.32l-.083.094L2.415 6l3.292 3.293a1 1 0 0 1 .083 1.32l-.083.094a1 1 0 0 1-1.32.083l-.094-.083l-4-4a1 1 0 0 1-.083-1.32"/></symbol><symbol id="hd-icon-garden-chevron-double-left-fill-16" viewBox="0 0 16 16"><path fill="currentColor" d="M7.625 13.78a1 1 0 0 1-1.321-.062l-.085-.093l-4-5a1 1 0 0 1-.072-1.146l.072-.104l4-5a1 1 0 0 1 1.634 1.147l-.072.103L4.28 8l3.5 4.375a1 1 0 0 1-.156 1.406zm6 0a1 1 0 0 1-1.321-.062l-.085-.093l-4-5a1 1 0 0 1-.072-1.146l.072-.104l4-5a1 1 0 0 1 1.634 1.147l-.072.103L10.28 8l3.5 4.375a1 1 0 0 1-.156 1.406z"/></symbol><symbol id="hd-icon-garden-chevron-double-left-stroke-12" viewBox="0 0 12 12"><path fill="currentColor" d="m6.089 5.716l.057-.07l4-4a.5.5 0 0 1 .765.638l-.057.07L7.207 6l3.647 3.646a.5.5 0 0 1 .057.638l-.057.07a.5.5 0 0 1-.638.057l-.07-.057l-4-4a.5.5 0 0 1-.057-.638m-5 0l.057-.07l4-4a.5.5 0 0 1 .765.638l-.057.07L2.207 6l3.647 3.646a.5.5 0 0 1 .057.638l-.057.07a.5.5 0 0 1-.638.057l-.07-.057l-4-4a.5.5 0 0 1-.057-.638"/></symbol><symbol id="hd-icon-garden-chevron-double-left-stroke-16" viewBox="0 0 16 16"><path fill="currentColor" d="M7.812 13.39a.5.5 0 0 1-.64-.012l-.062-.066l-4-5a.5.5 0 0 1-.054-.542l.054-.082l4-5a.5.5 0 0 1 .83.55l-.05.074L4.141 8l3.75 4.688a.5.5 0 0 1-.079.702m5 0a.5.5 0 0 1-.64-.012l-.062-.066l-4-5a.5.5 0 0 1-.054-.542l.054-.082l4-5a.5.5 0 0 1 .83.55l-.05.074L9.141 8l3.75 4.688a.5.5 0 0 1-.079.702"/></symbol><symbol id="hd-icon-garden-chevron-double-right-fill-12" viewBox="0 0 12 12"><path fill="currentColor" d="m5.79 6.613l-.083.094l-4 4A1 1 0 0 1 .21 9.387l.083-.094L3.585 6L.293 2.707a1 1 0 0 1-.083-1.32l.083-.094a1 1 0 0 1 1.32-.083l.094.083l4 4a1 1 0 0 1 .083 1.32m6 0l-.083.094l-4 4a1 1 0 0 1-1.497-1.32l.083-.094L9.585 6L6.293 2.707a1 1 0 0 1-.083-1.32l.083-.094a1 1 0 0 1 1.32-.083l.094.083l4 4a1 1 0 0 1 .083 1.32"/></symbol><symbol id="hd-icon-garden-chevron-double-right-fill-16" viewBox="0 0 16 16"><path fill="currentColor" d="M8.375 2.22a1 1 0 0 1 1.321.062l.085.093l4 5a1 1 0 0 1 .072 1.147l-.072.103l-4 5a1 1 0 0 1-1.634-1.147l.072-.103L11.72 8l-3.5-4.375a1 1 0 0 1 .156-1.406zm-6 0a1 1 0 0 1 1.321.062l.085.093l4 5a1 1 0 0 1 .072 1.147l-.072.103l-4 5a1 1 0 0 1-1.634-1.147l.072-.103L5.72 8l-3.5-4.375a1 1 0 0 1 .156-1.406z"/></symbol><symbol id="hd-icon-garden-chevron-double-right-stroke-12" viewBox="0 0 12 12"><path fill="currentColor" d="m5.911 6.284l-.057.07l-4 4a.5.5 0 0 1-.765-.638l.057-.07L4.793 6L1.146 2.354a.5.5 0 0 1-.057-.638l.057-.07a.5.5 0 0 1 .638-.057l.07.057l4 4a.5.5 0 0 1 .057.638m5 0l-.057.07l-4 4a.5.5 0 0 1-.765-.638l.057-.07L9.793 6L6.146 2.354a.5.5 0 0 1-.057-.638l.057-.07a.5.5 0 0 1 .638-.057l.07.057l4 4a.5.5 0 0 1 .057.638"/></symbol><symbol id="hd-icon-garden-chevron-double-right-stroke-16" viewBox="0 0 16 16"><path fill="currentColor" d="M8.188 2.61a.5.5 0 0 1 .64.013l.062.065l4 5a.5.5 0 0 1 .054.542l-.054.082l-4 5a.5.5 0 0 1-.83-.55l.05-.074L11.859 8l-3.75-4.688a.5.5 0 0 1 .079-.702m-5 0a.5.5 0 0 1 .64.013l.062.065l4 5a.5.5 0 0 1 .054.542l-.054.082l-4 5a.5.5 0 0 1-.83-.55l.05-.074L6.859 8l-3.75-4.688a.5.5 0 0 1 .079-.702"/></symbol><symbol id="hd-icon-garden-chevron-double-up-fill-12" viewBox="0 0 12 12"><path fill="currentColor" d="m6.613 6.21l.094.083l4 4a1 1 0 0 1-1.32 1.497l-.094-.083L6 8.415l-3.293 3.292a1 1 0 0 1-1.32.083l-.094-.083a1 1 0 0 1-.083-1.32l.083-.094l4-4a1 1 0 0 1 1.32-.083m0-6l.094.083l4 4a1 1 0 0 1-1.32 1.497l-.094-.083L6 2.415L2.707 5.707a1 1 0 0 1-1.32.083l-.094-.083a1 1 0 0 1-.083-1.32l.083-.094l4-4A1 1 0 0 1 6.613.21"/></symbol><symbol id="hd-icon-garden-chevron-double-up-fill-16" viewBox="0 0 16 16"><path fill="currentColor" d="M2.22 7.625a1 1 0 0 1 .062-1.321l.093-.085l5-4a1 1 0 0 1 1.147-.072l.103.072l5 4a1 1 0 0 1-1.147 1.634l-.103-.072L8 4.28l-4.375 3.5a1 1 0 0 1-1.406-.156zm0 6a1 1 0 0 1 .062-1.321l.093-.085l5-4a1 1 0 0 1 1.147-.072l.103.072l5 4a1 1 0 0 1-1.147 1.634l-.103-.072L8 10.28l-4.375 3.5a1 1 0 0 1-1.406-.156z"/></symbol><symbol id="hd-icon-garden-chevron-double-up-stroke-12" viewBox="0 0 12 12"><path fill="currentColor" d="m6.284 6.089l.07.057l4 4a.5.5 0 0 1-.638.765l-.07-.057L6 7.207l-3.646 3.647a.5.5 0 0 1-.638.057l-.07-.057a.5.5 0 0 1-.057-.638l.057-.07l4-4a.5.5 0 0 1 .638-.057m0-5l.07.057l4 4a.5.5 0 0 1-.638.765l-.07-.057L6 2.207L2.354 5.854a.5.5 0 0 1-.638.057l-.07-.057a.5.5 0 0 1-.057-.638l.057-.07l4-4a.5.5 0 0 1 .638-.057"/></symbol><symbol id="hd-icon-garden-chevron-double-up-stroke-16" viewBox="0 0 16 16"><path fill="currentColor" d="M2.61 7.812a.5.5 0 0 1 .013-.64l.065-.062l5-4a.5.5 0 0 1 .542-.054l.082.054l5 4a.5.5 0 0 1-.55.83l-.074-.05L8 4.141l-4.688 3.75a.5.5 0 0 1-.702-.079m0 5a.5.5 0 0 1 .013-.64l.065-.062l5-4a.5.5 0 0 1 .542-.054l.082.054l5 4a.5.5 0 0 1-.55.83l-.074-.05L8 9.141l-4.688 3.75a.5.5 0 0 1-.702-.079"/></symbol><symbol id="hd-icon-garden-chevron-down-fill-12" viewBox="0 0 12 12"><path fill="currentColor" d="M1.293 3.293a1 1 0 0 1 1.32-.083l.094.083L6 6.585l3.293-3.292a1 1 0 0 1 1.32-.083l.094.083a1 1 0 0 1 .083 1.32l-.083.094l-4 4a1 1 0 0 1-1.32.083l-.094-.083l-4-4a1 1 0 0 1 0-1.414"/></symbol><symbol id="hd-icon-garden-chevron-down-fill-16" viewBox="0 0 16 16"><path fill="currentColor" d="M12.375 5.22a1 1 0 0 1 1.343 1.476l-.093.085l-5 4a1 1 0 0 1-1.147.072l-.103-.072l-5-4a1 1 0 0 1 1.147-1.634l.103.072L8 8.72z"/></symbol><symbol id="hd-icon-garden-chevron-down-stroke-12" viewBox="0 0 12 12"><path fill="currentColor" d="M1.646 3.646a.5.5 0 0 1 .638-.057l.07.057L6 7.293l3.646-3.647a.5.5 0 0 1 .638-.057l.07.057a.5.5 0 0 1 .057.638l-.057.07l-4 4a.5.5 0 0 1-.638.057l-.07-.057l-4-4a.5.5 0 0 1 0-.708"/></symbol><symbol id="hd-icon-garden-chevron-down-stroke-16" viewBox="0 0 16 16"><path fill="currentColor" d="M12.688 5.61a.5.5 0 0 1 .69.718l-.066.062l-5 4a.5.5 0 0 1-.542.054l-.082-.054l-5-4a.5.5 0 0 1 .55-.83l.074.05L8 9.359l4.688-3.75z"/></symbol><symbol id="hd-icon-garden-chevron-left-fill-12" viewBox="0 0 12 12"><path fill="currentColor" d="M8.707 1.293a1 1 0 0 1 .083 1.32l-.083.094L5.415 6l3.292 3.293a1 1 0 0 1 .083 1.32l-.083.094a1 1 0 0 1-1.32.083l-.094-.083l-4-4a1 1 0 0 1-.083-1.32l.083-.094l4-4a1 1 0 0 1 1.414 0"/></symbol><symbol id="hd-icon-garden-chevron-left-fill-16" viewBox="0 0 16 16"><path fill="currentColor" d="M10.78 12.375a1 1 0 0 1-1.476 1.343l-.085-.093l-4-5a1 1 0 0 1-.072-1.147l.072-.103l4-5a1 1 0 0 1 1.634 1.147l-.072.103L7.28 8z"/></symbol><symbol id="hd-icon-garden-chevron-left-stroke-12" viewBox="0 0 12 12"><path fill="currentColor" d="M8.354 1.646a.5.5 0 0 1 .057.638l-.057.07L4.707 6l3.647 3.646a.5.5 0 0 1 .057.638l-.057.07a.5.5 0 0 1-.638.057l-.07-.057l-4-4a.5.5 0 0 1-.057-.638l.057-.07l4-4a.5.5 0 0 1 .708 0"/></symbol><symbol id="hd-icon-garden-chevron-left-stroke-16" viewBox="0 0 16 16"><path fill="currentColor" d="M10.39 12.688a.5.5 0 0 1-.718.69l-.062-.066l-4-5a.5.5 0 0 1-.054-.542l.054-.082l4-5a.5.5 0 0 1 .83.55l-.05.074L6.641 8z"/></symbol><symbol id="hd-icon-garden-chevron-right-fill-12" viewBox="0 0 12 12"><path fill="currentColor" d="M3.293 10.707a1 1 0 0 1-.083-1.32l.083-.094L6.585 6L3.293 2.707a1 1 0 0 1-.083-1.32l.083-.094a1 1 0 0 1 1.32-.083l.094.083l4 4a1 1 0 0 1 .083 1.32l-.083.094l-4 4a1 1 0 0 1-1.414 0"/></symbol><symbol id="hd-icon-garden-chevron-right-fill-16" viewBox="0 0 16 16"><path fill="currentColor" d="M5.22 3.625a1 1 0 0 1 1.476-1.343l.085.093l4 5a1 1 0 0 1 .072 1.146l-.072.104l-4 5a1 1 0 0 1-1.634-1.147l.072-.103L8.72 8z"/></symbol><symbol id="hd-icon-garden-chevron-right-stroke-12" viewBox="0 0 12 12"><path fill="currentColor" d="M3.646 10.354a.5.5 0 0 1-.057-.638l.057-.07L7.293 6L3.646 2.354a.5.5 0 0 1-.057-.638l.057-.07a.5.5 0 0 1 .638-.057l.07.057l4 4a.5.5 0 0 1 .057.638l-.057.07l-4 4a.5.5 0 0 1-.708 0"/></symbol><symbol id="hd-icon-garden-chevron-right-stroke-16" viewBox="0 0 16 16"><path fill="currentColor" d="M5.61 3.312a.5.5 0 0 1 .718-.69l.062.066l4 5a.5.5 0 0 1 .054.542l-.054.082l-4 5a.5.5 0 0 1-.83-.55l.05-.074L9.359 8l-3.75-4.688z"/></symbol><symbol id="hd-icon-garden-chevron-up-fill-12" viewBox="0 0 12 12"><path fill="currentColor" d="M10.707 8.707a1 1 0 0 1-1.32.083l-.094-.083L6 5.415L2.707 8.707a1 1 0 0 1-1.32.083l-.094-.083a1 1 0 0 1-.083-1.32l.083-.094l4-4a1 1 0 0 1 1.32-.083l.094.083l4 4a1 1 0 0 1 0 1.414"/></symbol><symbol id="hd-icon-garden-chevron-up-fill-16" viewBox="0 0 16 16"><path fill="currentColor" d="M3.625 10.78a1 1 0 0 1-1.343-1.476l.093-.085l5-4a1 1 0 0 1 1.147-.072l.103.072l5 4a1 1 0 0 1-1.147 1.634l-.103-.072L8 7.28z"/></symbol><symbol id="hd-icon-garden-chevron-up-stroke-12" viewBox="0 0 12 12"><path fill="currentColor" d="M10.354 8.354a.5.5 0 0 1-.638.057l-.07-.057L6 4.707L2.354 8.354a.5.5 0 0 1-.638.057l-.07-.057a.5.5 0 0 1-.057-.638l.057-.07l4-4a.5.5 0 0 1 .638-.057l.07.057l4 4a.5.5 0 0 1 0 .708"/></symbol><symbol id="hd-icon-garden-chevron-up-stroke-16" viewBox="0 0 16 16"><path fill="currentColor" d="M3.312 10.39a.5.5 0 0 1-.69-.718l.066-.062l5-4a.5.5 0 0 1 .542-.054l.082.054l5 4a.5.5 0 0 1-.55.83l-.074-.05L8 6.641z"/></symbol><symbol id="hd-icon-garden-circle-fill-12" viewBox="0 0 12 12"><circle cx="6" cy="6" r="5" fill="currentColor"/></symbol><symbol id="hd-icon-garden-circle-fill-16" viewBox="0 0 16 16"><circle cx="8" cy="8" r="7" fill="currentColor"/></symbol><symbol id="hd-icon-garden-circle-full-fill-12" viewBox="0 0 12 12"><circle cx="6" cy="6" r="5" fill="currentColor"/></symbol><symbol id="hd-icon-garden-circle-full-fill-16" viewBox="0 0 16 16"><circle cx="8" cy="8" r="8" fill="currentColor"/></symbol><symbol id="hd-icon-garden-circle-full-stroke-12" viewBox="0 0 12 12"><circle cx="6" cy="6" r="4.5" fill="none" stroke="currentColor"/></symbol></svg>