<svg xmlns="http://www.w3.org/2000/svg" xmlns:xlink="http://www.w3.org/1999/xlink"><symbol id="hd-icon-streamline-entertainment-speaker-2-speakers-music-audio" viewBox="0 0 14 14"><g fill="none" stroke="currentColor" stroke-linecap="round" stroke-linejoin="round"><rect width="10" height="13" x="2" y=".5" rx="1"/><circle cx="7" cy="9" r="2.5"/><circle cx="7" cy="3.5" r=".5"/><circle cx="7" cy="9" r=".5"/></g></symbol><symbol id="hd-icon-streamline-entertainment-ticket-hobby-ticket-event-entertainment-stub-theater" viewBox="0 0 14 14"><path fill="none" stroke="currentColor" stroke-linecap="round" stroke-linejoin="round" d="m4.65 2.24l-.39.09a1.19 1.19 0 0 1-.91 1.43a1.22 1.22 0 0 1-1.44-.92L1.13 3a.81.81 0 0 0-.61 1s.36 1.67.78 3.55m10.85-5.32a1.32 1.32 0 1 1-2.44-1L8.9.85a.89.89 0 0 0-1.16.47L4.38 9.23l-.44 1a.89.89 0 0 0 .47 1.16l4.06 1.73a.89.89 0 0 0 1.16-.47l3.8-8.94A.89.89 0 0 0 13 2.58Z"/></symbol><symbol id="hd-icon-streamline-entertainment-volume-down-speaker-down-volume-control-audio-music-decrease" viewBox="0 0 14 14"><path fill="none" stroke="currentColor" stroke-linecap="round" stroke-linejoin="round" d="M3 5H1.5a1 1 0 0 0-1 1v2a1 1 0 0 0 1 1H3Zm0 4l3.91 2.81a1 1 0 0 0 1 .08A1 1 0 0 0 8.5 11V3a1 1 0 0 0-.5-.89a1 1 0 0 0-1 .08L3 5m7.5 1.5h3"/></symbol><symbol id="hd-icon-streamline-entertainment-volume-level-high-speaker-high-volume-control-audio-music" viewBox="0 0 14 14"><path fill="none" stroke="currentColor" stroke-linecap="round" stroke-linejoin="round" d="M3 5H1.5a1 1 0 0 0-1 1v2a1 1 0 0 0 1 1H3Zm0 4l3.91 2.81a1 1 0 0 0 1 .08A1 1 0 0 0 8.5 11V3a1 1 0 0 0-.5-.89a1 1 0 0 0-1 .08L3 5m9.5-1a4.38 4.38 0 0 1 1 3a6.92 6.92 0 0 1-1 3.5m-2-5A2.19 2.19 0 0 1 11 7a2.19 2.19 0 0 1-.5 1.5"/></symbol><symbol id="hd-icon-streamline-entertainment-volume-level-low-volume-speaker-lower-down-control-music-low-audio" viewBox="0 0 14 14"><path fill="none" stroke="currentColor" stroke-linecap="round" stroke-linejoin="round" d="M3 5H1.5a1 1 0 0 0-1 1v2a1 1 0 0 0 1 1H3Zm0 4l3.91 2.81a1 1 0 0 0 1 .08A1 1 0 0 0 8.5 11V3a1 1 0 0 0-.5-.89a1 1 0 0 0-1 .08L3 5m7.5.5A2.19 2.19 0 0 1 11 7a2.19 2.19 0 0 1-.5 1.5"/></symbol><symbol id="hd-icon-streamline-entertainment-volume-level-off-volume-speaker-control-music-audio" viewBox="0 0 14 14"><path fill="none" stroke="currentColor" stroke-linecap="round" stroke-linejoin="round" d="M3 5H1.5a1 1 0 0 0-1 1v2a1 1 0 0 0 1 1H3Zm0 4l3.91 2.81a1 1 0 0 0 1 .08A1 1 0 0 0 8.5 11V3a1 1 0 0 0-.5-.89a1 1 0 0 0-1 .08L3 5"/></symbol><symbol id="hd-icon-streamline-entertainment-volume-mute-speaker-remove-volume-control-audio-music-mute-off" viewBox="0 0 14 14"><path fill="none" stroke="currentColor" stroke-linecap="round" stroke-linejoin="round" d="M3 5H1.5a1 1 0 0 0-1 1v2a1 1 0 0 0 1 1H3Zm0 4l3.91 2.81a1 1 0 0 0 1 .08A1 1 0 0 0 8.5 11V3a1 1 0 0 0-.5-.89a1 1 0 0 0-1 .08L3 5m10.5.5l-3 3m0-3l3 3"/></symbol><symbol id="hd-icon-streamline-entertainment-volume-off-speaker-music-mute-volume-control-audio-off-mute" viewBox="0 0 14 14"><path fill="none" stroke="currentColor" stroke-linecap="round" stroke-linejoin="round" d="m.5 13.5l13-13M4.5 5H3a1 1 0 0 0-1 1v2a1 1 0 0 0 1 1h1.5ZM10 4V3a1 1 0 0 0-.55-.89a1 1 0 0 0-1 .08L4.5 5m2.17 5.56l1.74 1.25a1 1 0 0 0 1 .08A1 1 0 0 0 10 11V7M4.5 9l.29.21"/></symbol><symbol id="hd-icon-streamline-entertainment-volume-up-volume-speaker-up-control-music-plus-add-audio-increase" viewBox="0 0 14 14"><path fill="none" stroke="currentColor" stroke-linecap="round" stroke-linejoin="round" d="M12 5v3m-1.5-1.5h3M3 5H1.5a1 1 0 0 0-1 1v2a1 1 0 0 0 1 1H3Zm0 4l3.91 2.81a1 1 0 0 0 1 .08A1 1 0 0 0 8.5 11V3a1 1 0 0 0-.5-.89a1 1 0 0 0-1 .08L3 5"/></symbol><symbol id="hd-icon-streamline-entertainment-walk-man-player-tapes-tape-headphones-music-walkman-headset-audio" viewBox="0 0 14 14"><g fill="none" stroke="currentColor" stroke-linecap="round" stroke-linejoin="round"><rect width="5" height="7" x="4.5" y="6.5" rx="1"/><path d="M2 7.5v3m10-3v3m-10-2H1A.5.5 0 0 1 .5 8V7A6.5 6.5 0 0 1 7 .5h0A6.5 6.5 0 0 1 13.5 7v1a.5.5 0 0 1-.5.5h-1M7 9v1"/></g></symbol><symbol id="hd-icon-streamline-epic-games-1" viewBox="0 0 14 14"><g fill="none" stroke="currentColor" stroke-linecap="round" stroke-linejoin="round"><path d="M1.223 1.429c0-.513.37-.929.825-.929h9.904c.455 0 .825.416.825.929v8.247c0 .352-.177.673-.456.83L7 13.5l-5.32-2.993c-.28-.158-.457-.48-.457-.83z"/><path d="M8.394 7.202H5.61V2.56h2.785M5.609 4.88h2.785M5.143 9.457l1.858.929l1.857-.929"/></g></symbol><symbol id="hd-icon-streamline-epic-games-1-remix" viewBox="0 0 14 14"><path fill="currentColor" fill-rule="evenodd" d="M2.377 0C1.512 0 .98.79.98 1.536v8.089c0 .53.252 1.068.733 1.352l4.968 2.936c.196.116.44.116.636 0l4.968-2.936c.481-.284.733-.823.733-1.352v-8.09C13.02.79 12.49 0 11.624 0zM2.23 1.536a.37.37 0 0 1 .078-.24c.038-.046.064-.046.068-.046h9.247c.003 0 .029 0 .067.045c.04.047.078.13.078.24v8.09c0 .16-.077.252-.119.276L7 12.65L2.35 9.901c-.042-.024-.119-.116-.119-.276zm3.298.675a.625.625 0 0 0-.625.625V7.25c0 .345.28.625.625.625H8.47a.625.625 0 0 0 0-1.25H6.154v-.957H8.47a.625.625 0 0 0 0-1.25H6.154v-.957H8.47a.625.625 0 0 0 0-1.25zm-.49 6.616a.625.625 0 0 0-.28 1.184l1.962.98a.63.63 0 0 0 .559 0l1.961-.98a.625.625 0 0 0-.28-1.184z" clip-rule="evenodd"/></symbol><symbol id="hd-icon-streamline-epic-games-1-solid" viewBox="0 0 14 14"><path fill="currentColor" fill-rule="evenodd" d="M2.048 0C1.263 0 .723.697.723 1.429v8.247c0 .511.256 1.01.711 1.266l5.32 2.994a.5.5 0 0 0 .491 0l5.32-2.994c.455-.255.712-.755.712-1.266V1.43c0-.732-.54-1.429-1.325-1.429zm2.936 2.707c0-.345.28-.625.625-.625h2.785a.625.625 0 0 1 0 1.25h-2.16v1.072h2.16a.625.625 0 0 1 0 1.25h-2.16v1.071h2.16a.625.625 0 0 1 0 1.25H5.61a.625.625 0 0 1-.625-.625zm.462 6.98a.625.625 0 1 0-.605 1.095l1.857 1.027a.63.63 0 0 0 .605 0l1.857-1.027a.625.625 0 1 0-.605-1.094L7 10.548z" clip-rule="evenodd"/></symbol><symbol id="hd-icon-streamline-equal-sign" viewBox="0 0 14 14"><path fill="none" stroke="currentColor" stroke-linecap="round" stroke-linejoin="round" d="M.75 4.5h12.5m-12.5 5h12.5"/></symbol><symbol id="hd-icon-streamline-equal-sign-remix" viewBox="0 0 14 14"><path fill="currentColor" fill-rule="evenodd" d="M.625 3.875a.625.625 0 1 0 0 1.25h12.75a.625.625 0 1 0 0-1.25zm0 5a.625.625 0 1 0 0 1.25h12.75a.625.625 0 1 0 0-1.25z" clip-rule="evenodd"/></symbol><symbol id="hd-icon-streamline-equal-sign-solid" viewBox="0 0 14 14"><path fill="currentColor" fill-rule="evenodd" d="M1 3.5a1 1 0 0 0 0 2h12a1 1 0 1 0 0-2zm0 5a1 1 0 0 0 0 2h12a1 1 0 1 0 0-2z" clip-rule="evenodd"/></symbol><symbol id="hd-icon-streamline-erlenmeyer-flask" viewBox="0 0 14 14"><path fill="none" stroke="currentColor" stroke-linecap="round" stroke-linejoin="round" d="M9 .5v6l3.59 4.57a1.5 1.5 0 0 1-1.18 2.43H2.59a1.5 1.5 0 0 1-1.18-2.43L5 6.5v-6M3.5.5h7"/></symbol><symbol id="hd-icon-streamline-erlenmeyer-flask-remix" viewBox="0 0 14 14"><path fill="currentColor" fill-rule="evenodd" d="M4.375 1.5H3.5a.75.75 0 0 1 0-1.5h7a.75.75 0 0 1 0 1.5h-.875v3.693l3.1 4.87A2.561 2.561 0 0 1 10.564 14H3.436a2.561 2.561 0 0 1-2.16-3.936l3.099-4.871zm1.25 0v3.875a.63.63 0 0 1-.098.336L2.33 10.735a1.311 1.311 0 0 0 1.106 2.015h7.128a1.311 1.311 0 0 0 1.106-2.015L8.473 5.71a.63.63 0 0 1-.098-.336V1.5z" clip-rule="evenodd"/></symbol><symbol id="hd-icon-streamline-erlenmeyer-flask-solid" viewBox="0 0 14 14"><path fill="currentColor" fill-rule="evenodd" d="M3.02.75A.75.75 0 0 1 3.77 0h6.46a.75.75 0 0 1 0 1.5H9.5v4.827l3.486 4.437c1.031 1.313.097 3.236-1.572 3.236H2.586c-1.669 0-2.604-1.923-1.572-3.236L4.5 6.327V1.5h-.73a.75.75 0 0 1-.75-.75" clip-rule="evenodd"/></symbol><symbol id="hd-icon-streamline-esports" viewBox="0 0 14 14"><g fill="none" stroke="currentColor" stroke-linecap="round" stroke-linejoin="round"><path d="M12.32 6.536c.638 1.544 1.197 3.545 1.18 4.643c-.024 1.48-.928 2.32-1.856 2.32c-.843-.395-1.859-2.32-2.786-2.32H5.142c-.927 0-1.943 1.925-2.786 2.32c-.928 0-1.832-.84-1.856-2.32c-.018-1.098.542-3.099 1.18-4.643m1.605-5.107v2.785a.93.93 0 0 0 .929.929h5.571a.93.93 0 0 0 .929-.929V1.43l-1.857.928L7 .5L5.142 2.357z"/><path d="M3.5 8.25a1 1 0 1 0 2 0a1 1 0 1 0-2 0m5 0a1 1 0 1 0 2 0a1 1 0 1 0-2 0"/></g></symbol><symbol id="hd-icon-streamline-esports-remix" viewBox="0 0 14 14"><path fill="currentColor" fill-rule="evenodd" d="M7.441.558a.625.625 0 0 0-.884 0L5.02 2.097L3.565 1.37a.625.625 0 0 0-.905.559v2.285c0 .858.696 1.554 1.554 1.554h5.571c.858 0 1.554-.696 1.554-1.554V1.93a.625.625 0 0 0-.905-.56l-1.454.728zm-5.114 5.4c.32.13.472.496.34.815a18 18 0 0 0-.744 2.23c-.197.756-.304 1.41-.298 1.832c.016 1.003.526 1.44.94 1.524c.079-.06.18-.151.308-.284c.134-.14.266-.29.41-.455l.22-.251c.222-.249.475-.52.742-.73c.257-.202.615-.419 1.04-.419h3.43c.425 0 .783.217 1.04.419c.267.21.52.481.742.73l.22.25c.144.165.276.316.41.456c.128.133.23.224.308.284c.414-.084.924-.52.94-1.524c.006-.423-.101-1.076-.298-1.831a18 18 0 0 0-.745-2.23a.625.625 0 1 1 1.156-.476c.305.743.59 1.592.799 2.39c.204.787.347 1.571.338 2.167c-.026 1.62-1.052 2.77-2.339 2.77a.6.6 0 0 1-.267-.06c-.305-.144-.576-.398-.793-.624c-.155-.162-.32-.35-.474-.526l-.189-.215a5 5 0 0 0-.58-.579a1 1 0 0 0-.202-.13a.2.2 0 0 0-.066-.02h-3.43a.2.2 0 0 0-.066.02q-.075.033-.201.13a5 5 0 0 0-.581.58l-.189.214c-.154.176-.319.364-.474.526c-.217.226-.488.48-.793.624a.6.6 0 0 1-.267.06c-1.287 0-2.313-1.15-2.339-2.77c-.009-.596.134-1.38.338-2.166c.208-.799.494-1.648.799-2.39a.625.625 0 0 1 .815-.341M3 8.25a1.5 1.5 0 1 1 3 0a1.5 1.5 0 0 1-3 0m6.5-1.5a1.5 1.5 0 1 0 0 3a1.5 1.5 0 0 0 0-3" clip-rule="evenodd"/></symbol><symbol id="hd-icon-streamline-esports-solid" viewBox="0 0 14 14"><path fill="currentColor" fill-rule="evenodd" d="M3.469 2.256v1.275a.9.9 0 0 0 .154.499c.16.232.426.384.728.384h5.297a.88.88 0 0 0 .728-.384a.9.9 0 0 0 .155-.5V1.288a.3.3 0 0 0-.014-.083a.25.25 0 0 0-.348-.14l-.448.223l-.419.21l-.021.01l-.516.258L7.176.177a.25.25 0 0 0-.353 0L5.234 1.765l-.515-.257l-.022-.011l-.42-.21l-.447-.223a.25.25 0 0 0-.361.223zM2.279 4.04a1.28 1.28 0 0 0-1.065.807C.866 5.753.56 6.973.342 8.115C.126 9.251-.01 10.359.001 11.038c.012.767.13 1.478.51 2.002c.408.562 1.042.812 1.846.812a.5.5 0 0 0 .224-.053c.604-.303 1.118-.884 1.547-1.415q.194-.241.369-.467c.25-.32.477-.61.704-.851h3.59c.205.231.412.51.64.82q.175.236.37.492c.408.533.907 1.125 1.499 1.42a.5.5 0 0 0 .223.054c.803 0 1.455-.248 1.892-.793c.418-.522.572-1.234.584-2.02c.011-.675-.123-1.77-.336-2.897c-.214-1.132-.517-2.344-.86-3.252a1.34 1.34 0 0 0-1.085-.847a2.13 2.13 0 0 1-2.07 1.62H4.35A2.134 2.134 0 0 1 2.28 4.04m3.33 4.573a1.307 1.307 0 1 1-2.614 0a1.307 1.307 0 0 1 2.613 0m4.09 1.307a1.307 1.307 0 1 0 0-2.614a1.307 1.307 0 0 0 0 2.614" clip-rule="evenodd"/></symbol><symbol id="hd-icon-streamline-ethereum" viewBox="0 0 14 14"><g fill="none" stroke="currentColor" stroke-linecap="round" stroke-linejoin="round"><path d="m7.17.573l4.738 6.432l-4.737 6.432l-4.738-6.432z"/><path d="M11.908 7.005L7.17 8.578L2.433 7.005"/></g></symbol><symbol id="hd-icon-streamline-ethereum-circle" viewBox="0 0 14 14"><g fill="none" stroke="currentColor" stroke-linecap="round" stroke-linejoin="round"><path d="M7 13.5a6.5 6.5 0 1 0 0-13a6.5 6.5 0 0 0 0 13"/><path d="M7 3L4.5 6L7 8l2.5-2zM4.5 9L7 11l2.5-2"/></g></symbol><symbol id="hd-icon-streamline-ethereum-circle-remix" viewBox="0 0 14 14"><path fill="currentColor" fill-rule="evenodd" d="M12.751 7.001a5.751 5.751 0 1 0-11.502 0a5.751 5.751 0 0 0 11.502 0M7 0a7.001 7.001 0 1 1 0 14.002A7.001 7.001 0 0 1 7 0m.384 2.68a.5.5 0 0 0-.768 0l-2.5 3a.5.5 0 0 0 .072.71l2.5 2a.5.5 0 0 0 .624 0l2.5-2a.5.5 0 0 0 .072-.71zm-3.25 5.933a.625.625 0 0 1 .878-.104L7 10.08l1.988-1.57a.625.625 0 0 1 .774.982l-2.375 1.875a.625.625 0 0 1-.774 0L4.238 9.49a.625.625 0 0 1-.104-.878" clip-rule="evenodd"/></symbol><symbol id="hd-icon-streamline-ethereum-circle-solid" viewBox="0 0 14 14"><path fill="currentColor" fill-rule="evenodd" d="M14 7A7 7 0 1 1 0 7a7 7 0 0 1 14 0M7 2.5a.5.5 0 0 1 .384.18l2.5 3a.5.5 0 0 1-.072.71l-2.5 2a.5.5 0 0 1-.624 0l-2.5-2a.5.5 0 0 1-.072-.71l2.5-3A.5.5 0 0 1 7 2.5M4.89 8.512a.625.625 0 1 0-.78.976l2.5 2a.625.625 0 0 0 .78 0l2.5-2a.625.625 0 1 0-.78-.976L7 10.2z" clip-rule="evenodd"/></symbol><symbol id="hd-icon-streamline-ethereum-remix" viewBox="0 0 14 14"><path fill="currentColor" fill-rule="evenodd" d="M7 0c.192 0 .373.088.492.24l4.998 6.37a.6.6 0 0 1 .112.22a.63.63 0 0 1-.11.555l-5 6.375a.625.625 0 0 1-.984 0l-5-6.375a.624.624 0 0 1 .002-.775L6.508.24A.63.63 0 0 1 7 0m0 1.638l3.943 5.027L7 7.847L3.057 6.665z" clip-rule="evenodd"/></symbol><symbol id="hd-icon-streamline-ethereum-solid" viewBox="0 0 14 14"><path fill="currentColor" fill-rule="evenodd" d="M7.17.073a.5.5 0 0 1 .403.203L12.04 6.34L7.17 7.956L2.3 6.34L6.769.276A.5.5 0 0 1 7.17.073M2.289 7.652l4.48 6.082a.5.5 0 0 0 .805 0l4.48-6.082l-4.685 1.556a.63.63 0 0 1-.394 0z" clip-rule="evenodd"/></symbol><symbol id="hd-icon-streamline-euro" viewBox="0 0 14 14"><path fill="none" stroke="currentColor" stroke-linecap="round" stroke-linejoin="round" d="M12 12.59a5 5 0 0 1-2 .41a5.77 5.77 0 0 1-5.5-6A5.77 5.77 0 0 1 10 1a4.9 4.9 0 0 1 1.63.27M2 5.5h6m-6 3h6"/></symbol><symbol id="hd-icon-streamline-euro-remix" viewBox="0 0 14 14"><path fill="currentColor" fill-rule="evenodd" d="M7.407 2.737a5.5 5.5 0 0 0-1.765 2.138H8.5a.625.625 0 0 1 0 1.25H5.267a4.5 4.5 0 0 0-.047.864v.054q-.017.42.044.832H8.5a.625.625 0 0 1 0 1.25H5.633a5.6 5.6 0 0 0 1.793 2.195c1.377 1.013 3.166 1.394 4.837.708a.625.625 0 1 1 .474 1.157c-2.144.879-4.39.365-6.052-.858c-1.084-.798-1.952-1.92-2.395-3.202H1.5a.625.625 0 1 1 0-1.25h2.503a5.6 5.6 0 0 1-.033-.859q-.016-.454.035-.891H1.5a.625.625 0 1 1 0-1.25h2.795c.443-1.264 1.3-2.357 2.372-3.145C8.321.516 10.547-.015 12.695.692a.625.625 0 0 1-.39 1.188c-1.714-.565-3.524-.152-4.898.857" clip-rule="evenodd"/></symbol><symbol id="hd-icon-streamline-euro-solid" viewBox="0 0 14 14"><path fill="currentColor" fill-rule="evenodd" d="M10.026 2c.434 0 .865.072 1.276.215a1 1 0 0 0 .656-1.89A5.9 5.9 0 0 0 9.954.001a6.77 6.77 0 0 0-5.951 4.19H2a1 1 0 1 0 0 2h1.52q-.035.402-.02.81a7 7 0 0 0 .02.808H2a1 1 0 1 0 0 2h2.003A6.77 6.77 0 0 0 9.996 14a6 6 0 0 0 2.4-.492a1 1 0 0 0-.793-1.836a4 4 0 0 1-1.579.328a4.77 4.77 0 0 1-3.776-2.19H8a1 1 0 1 0 0-2H5.53a5 5 0 0 1-.03-.768V6.96q-.017-.388.03-.768H8a1 1 0 0 0 0-2H6.248A4.77 4.77 0 0 1 10.025 2" clip-rule="evenodd"/></symbol><symbol id="hd-icon-streamline-expand" viewBox="0 0 14 14"><path fill="none" stroke="currentColor" stroke-linecap="round" stroke-linejoin="round" d="M11.5.5h1a1 1 0 0 1 1 1v1m-13 0v-1a1 1 0 0 1 1-1h1m3 0h3m5 5v3m-13-3v3m11 5h1a1 1 0 0 0 1-1v-1m-13 0v1a1 1 0 0 0 1 1h1m3 0h3M9 4H5a1 1 0 0 0-1 1v4a1 1 0 0 0 1 1h4a1 1 0 0 0 1-1V5a1 1 0 0 0-1-1"/></symbol><symbol id="hd-icon-streamline-expand-horizontal-1" viewBox="0 0 14 14"><path fill="none" stroke="currentColor" stroke-linecap="round" stroke-linejoin="round" d="M3.48 3.87L.61 6.74a.36.36 0 0 0 0 .52l2.87 2.87m7.04-6.26l2.87 2.87a.36.36 0 0 1 0 .52l-2.87 2.87M7 13.5V.5"/></symbol><symbol id="hd-icon-streamline-expand-horizontal-1-solid" viewBox="0 0 14 14"><path fill="currentColor" fill-rule="evenodd" d="M7 0a.75.75 0 0 1 .75.75v12.5a.75.75 0 0 1-1.5 0V.75A.75.75 0 0 1 7 0M3.671 3.408a.5.5 0 0 1 .309.462v6.26a.5.5 0 0 1-.854.354L.26 7.617a.86.86 0 0 1 0-1.233l2.867-2.867a.5.5 0 0 1 .545-.109m6.658 0a.5.5 0 0 1 .545.109l2.867 2.867a.86.86 0 0 1 0 1.233l-2.867 2.867a.5.5 0 0 1-.854-.354V3.87a.5.5 0 0 1 .309-.462" clip-rule="evenodd"/></symbol><symbol id="hd-icon-streamline-expand-remix" viewBox="0 0 14 14"><path fill="currentColor" fill-rule="evenodd" d="M1.735 1.735c.07-.07.166-.11.265-.11h1a.625.625 0 1 0 0-1.25H2A1.625 1.625 0 0 0 .375 2v1a.625.625 0 1 0 1.25 0V2c0-.1.04-.195.11-.265M11 .375a.625.625 0 1 0 0 1.25h1a.375.375 0 0 1 .375.375v1a.625.625 0 1 0 1.25 0V2A1.625 1.625 0 0 0 12 .375zM4.875 1c0-.345.28-.625.625-.625h3a.625.625 0 1 1 0 1.25h-3A.625.625 0 0 1 4.875 1m8.75 4.5a.625.625 0 1 0-1.25 0v3a.625.625 0 1 0 1.25 0zM1 4.875c.345 0 .625.28.625.625v3a.625.625 0 1 1-1.25 0v-3c0-.345.28-.625.625-.625M13.625 11a.625.625 0 1 0-1.25 0v1a.375.375 0 0 1-.375.375h-1a.625.625 0 1 0 0 1.25h1A1.625 1.625 0 0 0 13.625 12zM1 10.375c.345 0 .625.28.625.625v1a.375.375 0 0 0 .375.375h1a.625.625 0 1 1 0 1.25H2A1.625 1.625 0 0 1 .375 12v-1c0-.345.28-.625.625-.625m4.5 2a.625.625 0 1 0 0 1.25h3a.625.625 0 1 0 0-1.25zM5 3.5A1.5 1.5 0 0 0 3.5 5v4A1.5 1.5 0 0 0 5 10.5h4A1.5 1.5 0 0 0 10.5 9V5A1.5 1.5 0 0 0 9 3.5z" clip-rule="evenodd"/></symbol><symbol id="hd-icon-streamline-expand-solid" viewBox="0 0 14 14"><path fill="currentColor" fill-rule="evenodd" d="M1.5 1.75a.25.25 0 0 1 .25-.25h.5a.75.75 0 0 0 0-1.5h-.5A1.75 1.75 0 0 0 0 1.75v.5a.75.75 0 0 0 1.5 0zm9.5-1a.75.75 0 0 1 .75-.75h.5C13.216 0 14 .784 14 1.75v.5a.75.75 0 0 1-1.5 0v-.5a.25.25 0 0 0-.25-.25h-.5A.75.75 0 0 1 11 .75M3.5 5A1.5 1.5 0 0 1 5 3.5h4A1.5 1.5 0 0 1 10.5 5v4A1.5 1.5 0 0 1 9 10.5H5A1.5 1.5 0 0 1 3.5 9zm9.75 6a.75.75 0 0 1 .75.75v.5A1.75 1.75 0 0 1 12.25 14h-.5a.75.75 0 0 1 0-1.5h.5a.25.25 0 0 0 .25-.25v-.5a.75.75 0 0 1 .75-.75m-11.75.75a.75.75 0 0 0-1.5 0v.5C0 13.217.784 14 1.75 14h.5a.75.75 0 0 0 0-1.5h-.5a.25.25 0 0 1-.25-.25zm3.75 1.5A.75.75 0 0 1 6 12.5h2A.75.75 0 0 1 8 14H6a.75.75 0 0 1-.75-.75M6 0a.75.75 0 0 0 0 1.5h2A.75.75 0 0 0 8 0zM.75 5.25A.75.75 0 0 1 1.5 6v2A.75.75 0 0 1 0 8V6a.75.75 0 0 1 .75-.75M14 6a.75.75 0 0 0-1.5 0v2A.75.75 0 0 0 14 8z" clip-rule="evenodd"/></symbol><symbol id="hd-icon-streamline-expand-window-2" viewBox="0 0 14 14"><path fill="none" stroke="currentColor" stroke-linecap="round" stroke-linejoin="round" d="M13.5 8v4.5a1 1 0 0 1-1 1h-11a1 1 0 0 1-1-1v-11a1 1 0 0 1 1-1H6m4 0h3.5V4m0-3.5L7 7"/></symbol><symbol id="hd-icon-streamline-expand-window-2-solid" viewBox="0 0 14 14"><path fill="currentColor" fill-rule="evenodd" d="M7 2H2.5a.5.5 0 0 0-.5.5v9a.5.5 0 0 0 .5.5h9a.5.5 0 0 0 .5-.5V7a1 1 0 1 1 2 0v4.5a2.5 2.5 0 0 1-2.5 2.5h-9A2.5 2.5 0 0 1 0 11.5v-9A2.5 2.5 0 0 1 2.5 0H7a1 1 0 0 1 0 2M9.538.309A.5.5 0 0 1 10 0h3.5a.5.5 0 0 1 .5.5V4a.5.5 0 0 1-.854.354L12.104 3.31L7.707 7.707a1 1 0 0 1-1.414-1.414l4.396-4.397L9.646.854a.5.5 0 0 1-.108-.545" clip-rule="evenodd"/></symbol><symbol id="hd-icon-streamline-eye-optic" viewBox="0 0 14 14"><g fill="none" stroke="currentColor" stroke-linecap="round" stroke-linejoin="round"><path d="M7 3.625c-4.187 0-5.945 3.766-5.945 3.844S2.813 11.312 7 11.312s5.945-3.765 5.945-3.843S11.187 3.625 7 3.625M2.169 5.813L.61 4.252m4.525-.354L4.5 1.843m7.331 3.97l1.559-1.56m-4.525-.355L9.5 1.843"/><path d="M5.306 7.081a1.738 1.738 0 1 0 3.388.776a1.738 1.738 0 1 0-3.388-.776"/></g></symbol><symbol id="hd-icon-streamline-eye-optic-remix" viewBox="0 0 14 14"><path fill="currentColor" fill-rule="evenodd" d="M4.317 1.001a.625.625 0 0 1 .784.408l.485 1.533c.44-.104.912-.162 1.416-.162s.975.058 1.415.161l.481-1.531a.625.625 0 1 1 1.193.375l-.493 1.567a7 7 0 0 1 2.037 1.472l1.298-1.3a.625.625 0 0 1 .885.883l-1.375 1.377c.291.4.518.778.686 1.088a8 8 0 0 1 .352.748a2 2 0 0 1 .04.12l.01.044a.6.6 0 0 1 0 .239a1 1 0 0 1-.025.093l-.025.072q-.029.073-.075.181a8 8 0 0 1-.277.566a9.4 9.4 0 0 1-1.134 1.654c-1.027 1.197-2.664 2.439-4.993 2.439s-3.966-1.242-4.994-2.439A9.4 9.4 0 0 1 .875 8.935a8 8 0 0 1-.352-.747a2 2 0 0 1-.04-.12l-.01-.045c-.002-.013-.011-.06-.011-.12s.009-.106.011-.118a1 1 0 0 1 .025-.093q.011-.037.025-.072q.027-.074.074-.181c.063-.144.155-.339.278-.567c.17-.317.404-.704.704-1.112L.19 4.414a.625.625 0 1 1 .87-.898l1.329 1.288a7 7 0 0 1 2.016-1.451l-.496-1.567A.625.625 0 0 1 4.317 1M1.976 8.343a7 7 0 0 1-.218-.44a8.2 8.2 0 0 1 1.198-1.87C3.845 4.999 5.165 4.03 7.002 4.03s3.157.97 4.045 2.003a8.2 8.2 0 0 1 1.198 1.87c-.05.111-.121.262-.217.44a8.2 8.2 0 0 1-.98 1.432c-.889 1.034-2.21 2.003-4.046 2.003s-3.157-.97-4.046-2.003a8.2 8.2 0 0 1-.98-1.432m2.76-.47c.01-1.244 1.036-2.24 2.28-2.24s2.256.996 2.248 2.24c-.009 1.242-1.036 2.238-2.28 2.238s-2.256-.996-2.247-2.239" clip-rule="evenodd"/></symbol><symbol id="hd-icon-streamline-eye-optic-solid" viewBox="0 0 14 14"><path fill="currentColor" fill-rule="evenodd" d="M4.353 1.268a.75.75 0 0 1 .938.495l.407 1.318A7 7 0 0 1 7 2.963q.69.002 1.302.118l.407-1.318a.75.75 0 0 1 1.434.443l-.406 1.312c.78.336 1.426.79 1.946 1.26l.985-.985a.75.75 0 0 1 1.061 1.06l-1.032 1.033c.147.195.272.378.375.54c.124.197.218.366.283.494a3 3 0 0 1 .112.246a1 1 0 0 1 .036.124a.77.77 0 0 1-.036.428q-.016.043-.032.078a3 3 0 0 1-.08.169a6 6 0 0 1-.283.493a8 8 0 0 1-1.137 1.41C10.9 10.89 9.279 11.922 7 11.922S3.1 10.89 2.066 9.87A8 8 0 0 1 .929 8.458a6 6 0 0 1-.284-.493a3 3 0 0 1-.112-.247a1 1 0 0 1-.035-.124a.76.76 0 0 1 .035-.428l.032-.078q.031-.073.08-.168a7 7 0 0 1 .659-1.033L.27 4.853a.75.75 0 0 1 1.06-1.061l.986.985a7.1 7.1 0 0 1 1.946-1.26l-.406-1.312a.75.75 0 0 1 .495-.938m2.174 8.238a2.117 2.117 0 1 0 .945-4.128a2.117 2.117 0 0 0-.945 4.128" clip-rule="evenodd"/></symbol><symbol id="hd-icon-streamline-face-scan-1" viewBox="0 0 14 14"><path fill="none" stroke="currentColor" stroke-linecap="round" stroke-linejoin="round" d="M13.5 10.5v2a1 1 0 0 1-1 1h-2m0-13h2a1 1 0 0 1 1 1v2m-13 0v-2a1 1 0 0 1 1-1h2m0 13h-2a1 1 0 0 1-1-1v-2m6.5-6V8H5.5m-1 2a3.63 3.63 0 0 0 5 0M4 4.75a.25.25 0 0 1 0-.5m0 .5a.25.25 0 0 0 0-.5m6 .5a.25.25 0 0 1 0-.5m0 .5a.25.25 0 1 0 0-.5"/></symbol><symbol id="hd-icon-streamline-face-scan-1-remix" viewBox="0 0 14 14"><path fill="currentColor" fill-rule="evenodd" d="M2 1.625A.375.375 0 0 0 1.625 2v2a.625.625 0 1 1-1.25 0V2A1.625 1.625 0 0 1 2 .375h2a.625.625 0 1 1 0 1.25zm8-1.25a.625.625 0 1 0 0 1.25h2a.375.375 0 0 1 .375.375v2a.625.625 0 1 0 1.25 0V2A1.625 1.625 0 0 0 12 .375zM13.625 10a.625.625 0 1 0-1.25 0v2a.375.375 0 0 1-.375.375h-2a.625.625 0 1 0 0 1.25h2A1.625 1.625 0 0 0 13.625 12zm-12 0a.625.625 0 1 0-1.25 0v2A1.625 1.625 0 0 0 2 13.625h2a.625.625 0 1 0 0-1.25H2A.375.375 0 0 1 1.625 12zM7 3.5a.75.75 0 0 1 .75.75v3.5A.75.75 0 0 1 7 8.5H5.5a.75.75 0 0 1 0-1.5h.75V4.25A.75.75 0 0 1 7 3.5M5.017 9.206a.75.75 0 1 0-1.034 1.088a4.38 4.38 0 0 0 6.034 0a.75.75 0 1 0-1.034-1.088a2.88 2.88 0 0 1-3.966 0M4 3.25a1 1 0 1 1 0 2a1 1 0 0 1 0-2m5 1a1 1 0 1 0 2 0a1 1 0 0 0-2 0" clip-rule="evenodd"/></symbol><symbol id="hd-icon-streamline-face-scan-1-solid" viewBox="0 0 14 14"><path fill="currentColor" fill-rule="evenodd" d="M1.75 1.5a.25.25 0 0 0-.25.25v1.5a.75.75 0 0 1-1.5 0v-1.5A1.75 1.75 0 0 1 1.75 0h1.5a.75.75 0 0 1 0 1.5zm6 3a.75.75 0 0 0-1.5 0v2.75H5.5a.75.75 0 0 0 0 1.5H7A.75.75 0 0 0 7.75 8zM14 10.75a.75.75 0 0 0-1.5 0v1.5a.25.25 0 0 1-.25.25h-1.5a.75.75 0 0 0 0 1.5h1.5A1.75 1.75 0 0 0 14 12.25zm-12.5 0a.75.75 0 0 0-1.5 0v1.5A1.75 1.75 0 0 0 1.75 14h1.5a.75.75 0 0 0 0-1.5h-1.5a.25.25 0 0 1-.25-.25zm8.5-10a.75.75 0 0 1 .75-.75h1.5A1.75 1.75 0 0 1 14 1.75v1.5a.75.75 0 0 1-1.5 0v-1.5a.25.25 0 0 0-.25-.25h-1.5A.75.75 0 0 1 10 .75M5.017 9.456a.75.75 0 1 0-1.034 1.088a4.38 4.38 0 0 0 6.034 0a.75.75 0 1 0-1.034-1.088a2.88 2.88 0 0 1-3.966 0M5 4.5a1 1 0 1 1-2 0a1 1 0 0 1 2 0m5 1a1 1 0 1 0 0-2a1 1 0 0 0 0 2" clip-rule="evenodd"/></symbol><symbol id="hd-icon-streamline-facebook-1" viewBox="0 0 14 14"><path fill="none" stroke="currentColor" stroke-linecap="round" stroke-linejoin="round" d="M.5 12.5v-11a1 1 0 0 1 1-1h11a1 1 0 0 1 1 1v11a1 1 0 0 1-1 1h-3V8.76h.71a.61.61 0 0 0 .61-.61v-.77a.61.61 0 0 0-.61-.61h-.67v-.94c0-.84.38-.84.76-.84h.49a.55.55 0 0 0 .43-.18a.58.58 0 0 0 .18-.43v-.74a.62.62 0 0 0-.6-.64H9.65a2.32 2.32 0 0 0-2.39 2.6v1.17h-.64a.61.61 0 0 0-.62.61v.77a.61.61 0 0 0 .62.61h.64v4.74H1.5a1 1 0 0 1-1-1"/></symbol><symbol id="hd-icon-streamline-facebook-1-remix" viewBox="0 0 14 14"><path fill="currentColor" fill-rule="evenodd" d="M1.735 1.735c.07-.07.166-.11.265-.11h10a.375.375 0 0 1 .375.375v10a.375.375 0 0 1-.375.375H9V9.01h.96a.61.61 0 0 0 .61-.61v-.77a.61.61 0 0 0-.61-.61h-.92v-.69c0-.84.38-.84.76-.84h.74a.55.55 0 0 0 .43-.18a.58.58 0 0 0 .18-.43v-.74a.62.62 0 0 0-.6-.64l-.334-.002c-1-.01-2.15-.023-2.861.75c-.63.685-.615 1.521-.6 2.375q.005.198.005.397h-.89a.61.61 0 0 0-.62.61v.77a.61.61 0 0 0 .62.61h.89v3.365H2A.375.375 0 0 1 1.625 12V2c0-.1.04-.195.11-.265M2 .375A1.625 1.625 0 0 0 .375 2v10A1.625 1.625 0 0 0 2 13.625h10A1.625 1.625 0 0 0 13.625 12V2A1.625 1.625 0 0 0 12 .375z" clip-rule="evenodd"/></symbol><symbol id="hd-icon-streamline-facebook-1-solid" viewBox="0 0 14 14"><path fill="currentColor" d="M0 12.923V1.077A1.077 1.077 0 0 1 1.077 0h11.846A1.077 1.077 0 0 1 14 1.077v11.846A1.077 1.077 0 0 1 12.923 14h-3.23V8.895h.764a.657.657 0 0 0 .657-.657V7.41a.655.655 0 0 0-.657-.657h-.722V5.74c0-.905.41-.905.819-.905h.527a.6.6 0 0 0 .464-.193a.63.63 0 0 0 .193-.464v-.796a.67.67 0 0 0-.646-.69H9.854a2.498 2.498 0 0 0-2.574 2.8v1.26h-.69a.657.657 0 0 0-.667.657v.83a.657.657 0 0 0 .668.656h.689V14H1.077A1.077 1.077 0 0 1 0 12.923"/></symbol><symbol id="hd-icon-streamline-factorial" viewBox="0 0 14 14"><path fill="none" stroke="currentColor" stroke-linecap="round" stroke-linejoin="round" d="M12.5.5V10M1 13.5V6a4 4 0 1 1 8 0v7.5M1 2v4m11 7a.5.5 0 1 0 1 0a.5.5 0 1 0-1 0"/></symbol><symbol id="hd-icon-streamline-factorial-remix" viewBox="0 0 14 14"><path fill="currentColor" fill-rule="evenodd" d="M1 .375c.345 0 .625.28.625.625v.838a4.625 4.625 0 0 1 8 3.162v8a.625.625 0 1 1-1.25 0V5a3.375 3.375 0 0 0-6.75 0v8a.625.625 0 1 1-1.25 0V1c0-.345.28-.625.625-.625M13.375 1a.625.625 0 1 0-1.25 0v9a.625.625 0 1 0 1.25 0zm-1.5 11.75a.875.875 0 1 0 1.75 0a.875.875 0 0 0-1.75 0" clip-rule="evenodd"/></symbol><symbol id="hd-icon-streamline-factorial-solid" viewBox="0 0 14 14"><path fill="currentColor" fill-rule="evenodd" d="M12.078.078a1 1 0 0 1 1 1v7.86a1 1 0 1 1-2 0v-7.86a1 1 0 0 1 1-1M5.153 3.384A2.69 2.69 0 0 0 2.46 6.065v6.904a1 1 0 1 1-2 0V2.384a1 1 0 0 1 1.99-.146a4.7 4.7 0 0 1 2.703-.854a4.69 4.69 0 0 1 4.694 4.681v6.904a1 1 0 1 1-2 0V6.065a2.69 2.69 0 0 0-2.694-2.681m5.463 9.077a1.462 1.462 0 1 1 2.924 0a1.462 1.462 0 0 1-2.924 0" clip-rule="evenodd"/></symbol><symbol id="hd-icon-streamline-fahrenheit" viewBox="0 0 14 14"><path fill="none" stroke="currentColor" stroke-linecap="round" stroke-linejoin="round" d="M2.5 3.5a1.5 1.5 0 1 0 0-3a1.5 1.5 0 0 0 0 3m4.5 10v-12h6M7 7h4"/></symbol><symbol id="hd-icon-streamline-fahrenheit-remix" viewBox="0 0 14 14"><path fill="currentColor" fill-rule="evenodd" d="M2.875 1.225a.9.9 0 1 0 0 1.8a.9.9 0 0 0 0-1.8m-2.1.9a2.1 2.1 0 1 1 4.2 0a2.1 2.1 0 0 1-4.2 0M6 1.625C6 1.28 6.28 1 6.625 1h6a.625.625 0 1 1 0 1.25H7.25v4.125h3.375a.625.625 0 1 1 0 1.25H7.25v5.75a.625.625 0 1 1-1.25 0z" clip-rule="evenodd"/></symbol><symbol id="hd-icon-streamline-fahrenheit-solid" viewBox="0 0 14 14"><path fill="currentColor" fill-rule="evenodd" d="M2.25 1.5a.75.75 0 1 0 0 1.5a.75.75 0 0 0 0-1.5M0 2.25a2.25 2.25 0 1 1 4.5 0a2.25 2.25 0 0 1-4.5 0M6 1a1 1 0 0 1 1-1h6a1 1 0 1 1 0 2H8v3.5h4a1 1 0 1 1 0 2H8V13a1 1 0 1 1-2 0z" clip-rule="evenodd"/></symbol><symbol id="hd-icon-streamline-fastforward-clock" viewBox="0 0 14 14"><g fill="none" stroke="currentColor" stroke-linecap="round"><path stroke-linejoin="round" d="M7 3.5v4l2.6 1.3"/><path d="M13.326 8.5a6.5 6.5 0 1 1-.558-4.5"/><path stroke-linejoin="round" d="M13.5 2v2.5H11"/></g></symbol><symbol id="hd-icon-streamline-fastforward-clock-remix" viewBox="0 0 14 14"><path fill="currentColor" fill-rule="evenodd" d="M7 1.25a5.75 5.75 0 1 0 5.596 7.077a.625.625 0 0 1 1.217.288a7 7 0 1 1-1.462-6.129l.582-.582A.625.625 0 0 1 14 2.346v2.202c0 .345-.28.625-.625.625h-2.202a.625.625 0 0 1-.442-1.067l.732-.732A5.74 5.74 0 0 0 7 1.249m.875 2.25a.875.875 0 1 0-1.75 0V7c0 .483.392.875.875.875h2.5a.875.875 0 1 0 0-1.75H7.875z" clip-rule="evenodd"/></symbol><symbol id="hd-icon-streamline-fastforward-clock-solid" viewBox="0 0 14 14"><g fill="currentColor" fill-rule="evenodd" clip-rule="evenodd"><path d="M7 2.75a.75.75 0 0 1 .75.75v3.575l2.136 1.282a.75.75 0 1 1-.772 1.286l-2.5-1.5A.75.75 0 0 1 6.25 7.5v-4A.75.75 0 0 1 7 2.75"/><path d="M1.5 7a5.5 5.5 0 0 1 9.82-3.405l-.966.965a.5.5 0 0 0 .353.854H13.5a.5.5 0 0 0 .5-.5V2.12a.5.5 0 0 0-.854-.354l-.76.761a7 7 0 1 0 1.427 6.086a.75.75 0 0 0-1.46-.344A5.5 5.5 0 0 1 1.5 7"/></g></symbol><symbol id="hd-icon-streamline-figma" viewBox="0 0 14 14"><g fill="none" stroke="currentColor" stroke-linecap="round" stroke-linejoin="round"><path d="M2.536 2.759c0-1.11.899-2.009 2.008-2.009H7v4.018H4.544c-1.11 0-2.008-.9-2.008-2.01m8.928.001c0-1.11-.899-2.009-2.008-2.009H7v4.018h2.456c1.11 0 2.008-.9 2.008-2.01"/><path d="M11.464 7A2.232 2.232 0 1 0 7 7a2.232 2.232 0 0 0 4.464 0m-8.928 4.241c0-1.11.899-2.009 2.008-2.009H7v1.786c0 1.233-1 2.232-2.232 2.232h-.224c-1.11 0-2.008-.9-2.008-2.009"/><path d="M2.536 7c0-1.233.999-2.232 2.232-2.232H7v4.464H4.768c-1.233 0-2.232-1-2.232-2.232"/></g></symbol><symbol id="hd-icon-streamline-figma-remix" viewBox="0 0 14 14"><path fill="currentColor" fill-rule="evenodd" d="M1.82 2.673A2.674 2.674 0 0 1 4.494 0h5.011a2.674 2.674 0 0 1 1.644 4.783a2.902 2.902 0 0 1-3.525 4.602v1.714c0 1.603-1.3 2.902-2.902 2.902h-.228A2.674 2.674 0 0 1 2.85 9.217a2.9 2.9 0 0 1-1.03-2.218c0-.889.4-1.685 1.03-2.217a2.67 2.67 0 0 1-1.03-2.109m2.675 1.433v-.008a1.424 1.424 0 0 1 0-2.849h1.88v2.848h-1.88zm4.74 1.242a1.652 1.652 0 1 0 .084 0zm-4.74 4.554a1.424 1.424 0 1 0 0 2.848h.227c.912 0 1.652-.74 1.652-1.652V9.902z" clip-rule="evenodd"/></symbol><symbol id="hd-icon-streamline-figma-solid" viewBox="0 0 14 14"><path fill="currentColor" fill-rule="evenodd" d="M4.502 5.06a1.962 1.962 0 0 0 .03 3.925h1.963V5.061zm5.505 0a1.962 1.962 0 1 1-.098 0zM10.23.179a1.691 1.691 0 0 1 0 3.383H7.995V.178zM2.57 1.87c0-.934.758-1.692 1.692-1.692h2.233v3.383H4.262A1.69 1.69 0 0 1 2.57 1.87m1.692 8.616a1.691 1.691 0 0 0 0 3.383h.27a1.963 1.963 0 0 0 1.963-1.963v-1.42z" clip-rule="evenodd"/></symbol><symbol id="hd-icon-streamline-file-add-alternate" viewBox="0 0 14 14"><path fill="none" stroke="currentColor" stroke-linecap="round" stroke-linejoin="round" d="M2.5 5V1.5a1 1 0 0 1 1-1H10L13.5 4v8.5a1 1 0 0 1-1 1h-5m-4-6v6m-3-3h6"/></symbol><symbol id="hd-icon-streamline-file-add-alternate-remix" viewBox="0 0 14 14"><path fill="currentColor" fill-rule="evenodd" d="M3.375 1.25A.375.375 0 0 0 3 1.625v3.75a.625.625 0 1 1-1.25 0v-3.75A1.625 1.625 0 0 1 3.375 0h6.5c.166 0 .325.066.442.183l3.5 3.5a.63.63 0 0 1 .183.442v8.25A1.625 1.625 0 0 1 12.375 14h-4.75a.625.625 0 1 1 0-1.25h4.75a.375.375 0 0 0 .375-.375V4.384L9.616 1.25zM3.5 7a.75.75 0 0 1 .75.75v2h2a.75.75 0 0 1 0 1.5h-2v2a.75.75 0 0 1-1.5 0v-2h-2a.75.75 0 0 1 0-1.5h2v-2A.75.75 0 0 1 3.5 7" clip-rule="evenodd"/></symbol><symbol id="hd-icon-streamline-file-add-alternate-solid" viewBox="0 0 14 14"><path fill="currentColor" fill-rule="evenodd" d="M3.5 0A1.5 1.5 0 0 0 2 1.5v5.189A2 2 0 0 1 5.25 8.25v.5h.5a2 2 0 1 1 0 4h-.5v.5c0 .265-.052.518-.145.75H12.5a1.5 1.5 0 0 0 1.5-1.5v-8a.5.5 0 0 0-.146-.354l-4-4A.5.5 0 0 0 9.5 0zM4 8.25a.75.75 0 0 0-1.5 0V10H.75a.75.75 0 0 0 0 1.5H2.5v1.75a.75.75 0 0 0 1.5 0V11.5h1.75a.75.75 0 0 0 0-1.5H4z" clip-rule="evenodd"/></symbol><symbol id="hd-icon-streamline-file-code-1" viewBox="0 0 14 14"><g fill="none" stroke="currentColor" stroke-linecap="round" stroke-linejoin="round"><path d="M12.5 12.5a1 1 0 0 1-1 1h-9a1 1 0 0 1-1-1v-11a1 1 0 0 1 1-1H9L12.5 4z"/><path d="m5.5 10.5l-2-2l2-2m3 4l2-2l-2-2"/></g></symbol><symbol id="hd-icon-streamline-file-code-1-remix" viewBox="0 0 14 14"><path fill="currentColor" fill-rule="evenodd" d="M2.5 1.25a.375.375 0 0 0-.375.375v10.75a.375.375 0 0 0 .375.375h9a.375.375 0 0 0 .375-.375V4.384L8.741 1.25zM1.351.476A1.63 1.63 0 0 1 2.5 0H9c.166 0 .325.066.442.183l3.5 3.5a.63.63 0 0 1 .183.442v8.25A1.625 1.625 0 0 1 11.5 14h-9a1.625 1.625 0 0 1-1.625-1.625V1.625c0-.431.171-.844.476-1.149m4.59 5.582a.625.625 0 0 1 0 .884L4.385 8.5l1.558 1.558a.625.625 0 1 1-.884.884l-2-2a.625.625 0 0 1 0-.884l2-2a.625.625 0 0 1 .884 0m3 0a.625.625 0 1 0-.883.884L9.616 8.5l-1.558 1.558a.625.625 0 1 0 .884.884l2-2a.625.625 0 0 0 0-.884z" clip-rule="evenodd"/></symbol><symbol id="hd-icon-streamline-file-code-1-solid" viewBox="0 0 14 14"><path fill="currentColor" fill-rule="evenodd" d="M1.44.44A1.5 1.5 0 0 1 2.5 0h6a.5.5 0 0 1 .354.146l4 4A.5.5 0 0 1 13 4.5v8a1.5 1.5 0 0 1-1.5 1.5h-9A1.5 1.5 0 0 1 1 12.5v-11c0-.398.158-.78.44-1.06m4.59 5.53a.75.75 0 0 1 0 1.06L4.56 8.5l1.47 1.47a.75.75 0 1 1-1.06 1.06l-2-2a.75.75 0 0 1 0-1.06l2-2a.75.75 0 0 1 1.06 0m1.94 1.06a.75.75 0 0 1 1.06-1.06l2 2a.75.75 0 0 1 0 1.06l-2 2a.75.75 0 1 1-1.06-1.06L9.44 8.5z" clip-rule="evenodd"/></symbol><symbol id="hd-icon-streamline-file-delete-alternate" viewBox="0 0 14 14"><path fill="none" stroke="currentColor" stroke-linecap="round" stroke-linejoin="round" d="M2.5 7V1.5a1 1 0 0 1 1-1H10L13.5 4v8.5a1 1 0 0 1-1 1H8M4.74 9.26L.5 13.5m0-4.24l4.24 4.24"/></symbol><symbol id="hd-icon-streamline-file-delete-alternate-remix" viewBox="0 0 14 14"><path fill="currentColor" fill-rule="evenodd" d="M3.375 1.25A.375.375 0 0 0 3 1.625v4.75a.625.625 0 1 1-1.25 0v-4.75A1.625 1.625 0 0 1 3.375 0h6.5c.166 0 .325.066.442.183l3.5 3.5a.63.63 0 0 1 .183.442v8.25A1.625 1.625 0 0 1 12.375 14h-4.75a.625.625 0 1 1 0-1.25h4.75a.375.375 0 0 0 .375-.375V4.384L9.616 1.25zM5.53 8.47a.75.75 0 0 1 0 1.06l-1.594 1.595L5.53 12.72a.75.75 0 1 1-1.06 1.06l-1.595-1.594L1.28 13.78a.75.75 0 0 1-1.06-1.06l1.594-1.595L.22 9.53a.75.75 0 0 1 1.06-1.06l1.595 1.594L4.47 8.47a.75.75 0 0 1 1.06 0" clip-rule="evenodd"/></symbol><symbol id="hd-icon-streamline-file-delete-alternate-solid" viewBox="0 0 14 14"><path fill="currentColor" fill-rule="evenodd" d="M3.5 0A1.5 1.5 0 0 0 2 1.5v5.949q.086.068.164.147l.706.706l.706-.706a2 2 0 0 1 2.828 2.828l-.706.706l.706.706A2 2 0 0 1 6.844 14H12.5a1.5 1.5 0 0 0 1.5-1.5v-8a.5.5 0 0 0-.146-.354l-4-4A.5.5 0 0 0 9.5 0zm2.02 8.48a.75.75 0 0 1 0 1.06l-1.59 1.59l1.59 1.59a.75.75 0 1 1-1.06 1.06l-1.59-1.59l-1.59 1.59a.75.75 0 0 1-1.06-1.06l1.59-1.59L.22 9.54a.75.75 0 1 1 1.06-1.06l1.59 1.59l1.59-1.59a.75.75 0 0 1 1.06 0" clip-rule="evenodd"/></symbol><symbol id="hd-icon-streamline-file-remove-alternate" viewBox="0 0 14 14"><path fill="none" stroke="currentColor" stroke-linecap="round" stroke-linejoin="round" d="M2.5 7.5v-6a1 1 0 0 1 1-1H10L13.5 4v8.5a1 1 0 0 1-1 1h-6m-6-3h5"/></symbol><symbol id="hd-icon-streamline-file-remove-alternate-remix" viewBox="0 0 14 14"><path fill="currentColor" fill-rule="evenodd" d="M3.11 1.36c.07-.07.166-.11.265-.11h6.241l3.134 3.134v7.991a.375.375 0 0 1-.375.375h-7.75a.625.625 0 1 0 0 1.25h7.75A1.625 1.625 0 0 0 14 12.375v-8.25a.63.63 0 0 0-.183-.442l-3.5-3.5A.63.63 0 0 0 9.875 0h-6.5A1.625 1.625 0 0 0 1.75 1.625v6.25a.625.625 0 1 0 1.25 0v-6.25c0-.1.04-.195.11-.265M.75 9.75a.75.75 0 0 0 0 1.5h5a.75.75 0 0 0 0-1.5z" clip-rule="evenodd"/></symbol><symbol id="hd-icon-streamline-file-remove-alternate-solid" viewBox="0 0 14 14"><path fill="currentColor" fill-rule="evenodd" d="M3.5 0A1.5 1.5 0 0 0 2 1.5v6.75h3.75a2 2 0 1 1 0 4H2v.25A1.5 1.5 0 0 0 3.5 14h9a1.5 1.5 0 0 0 1.5-1.5v-8a.5.5 0 0 0-.146-.354l-4-4A.5.5 0 0 0 9.5 0zm3 10.25a.75.75 0 0 0-.75-.75h-5a.75.75 0 1 0 0 1.5h5a.75.75 0 0 0 .75-.75" clip-rule="evenodd"/></symbol><symbol id="hd-icon-streamline-film-roll-1" viewBox="0 0 14 14"><g fill="none" stroke="currentColor" stroke-linecap="round" stroke-linejoin="round"><path d="M.75 6a4.75 4.75 0 1 0 9.5 0a4.75 4.75 0 1 0-9.5 0m9.5.25v5a1.5 1.5 0 0 0 3 0"/><path d="M5.5 3.945a.25.25 0 0 1 0-.5m0 .5a.25.25 0 0 0 0-.5m0 5.11a.25.25 0 0 1 0-.5m0 .5a.25.25 0 0 0 0-.5M3.195 6.25a.25.25 0 0 1 0-.5m0 .5a.25.25 0 0 0 0-.5m4.61.5a.25.25 0 1 1 0-.5m0 .5a.25.25 0 0 0 0-.5"/></g></symbol><symbol id="hd-icon-streamline-film-roll-1-remix" viewBox="0 0 14 14"><path fill="currentColor" fill-rule="evenodd" d="M1.25 5.5a4.25 4.25 0 1 1 8.5 0a4.25 4.25 0 0 1-8.5 0m8.5 3.491v2.884a2.125 2.125 0 0 0 4.25 0v-.316a.625.625 0 1 0-1.25 0v.316a.875.875 0 0 1-1.75 0V5.5a5.5 5.5 0 1 0-1.25 3.491M4.5 3.321a1 1 0 1 0 2 0a1 1 0 0 0-2 0m0 4.359a1 1 0 1 0 2 0a1 1 0 0 0-2 0M2.32 5.5a1 1 0 1 0 2 0a1 1 0 0 0-2 0m4.36 0a1 1 0 1 0 2 0a1 1 0 0 0-2 0" clip-rule="evenodd"/></symbol><symbol id="hd-icon-streamline-film-roll-1-solid" viewBox="0 0 14 14"><path fill="currentColor" fill-rule="evenodd" d="M0 6a5.5 5.5 0 1 1 10.997.183L11 6.25v5a.75.75 0 0 0 1.5 0a.75.75 0 0 1 1.5 0a2.25 2.25 0 0 1-4.5 0V9.775A5.5 5.5 0 0 1 0 6m6.375-2.5a.875.875 0 1 1-1.75 0a.875.875 0 0 1 1.75 0m-3.18 3.383a.875.875 0 1 0 0-1.75a.875.875 0 0 0 0 1.75m5.485-.875a.875.875 0 1 1-1.75 0a.875.875 0 0 1 1.75 0M5.5 9.242a.875.875 0 1 0 0-1.75a.875.875 0 0 0 0 1.75" clip-rule="evenodd"/></symbol><symbol id="hd-icon-streamline-film-slate" viewBox="0 0 14 14"><path fill="none" stroke="currentColor" stroke-linecap="round" stroke-linejoin="round" d="M1.365 6.127h11.448v6.232a1 1 0 0 1-1 1H2.364a1 1 0 0 1-1-1zm-.001 0L12.42 3.164l-.48-1.79a1 1 0 0 0-1.225-.708L1.591 3.112a1 1 0 0 0-.707 1.224zm2.626 4.69h1.278m-.871-5.503l.64-3.126m2.972 2.158l.64-3.126"/></symbol><symbol id="hd-icon-streamline-film-slate-remix" viewBox="0 0 14 14"><path fill="currentColor" fill-rule="evenodd" d="m8.86 4.886l3.716-.996a.5.5 0 0 0 .354-.612l-.48-1.791a1.5 1.5 0 0 0-1.837-1.06l-.884.236zm-.481-3.861l-2.791.748l-.87 4.222l2.791-.747zM1.487 2.872l2.75-.737l-.87 4.222l-.046.013h9.68c.344 0 .624.28.624.625V12c0 .898-.727 1.625-1.625 1.625H2.5A1.625 1.625 0 0 1 .875 12V6.995c0-.126.038-.244.102-.342a.5.5 0 0 1-.07-.154l-.48-1.79a1.5 1.5 0 0 1 1.06-1.837m.638 4.748V12c0 .207.168.375.375.375H12a.375.375 0 0 0 .375-.375V7.62zm2.052 2.197a.75.75 0 1 0 0 1.5h1.279a.75.75 0 0 0 0-1.5z" clip-rule="evenodd"/></symbol><symbol id="hd-icon-streamline-film-slate-solid" viewBox="0 0 14 14"><path fill="currentColor" fill-rule="evenodd" d="m1.176 6.08l2.294-.614l.01-.045l.768-3.315l1.368-.367l-.003.014L4.837 5.1l2.873-.77l.003-.012L8.51.964L9.882.597l-.003.01l-.797 3.355L12.97 2.92L12.441.946a1 1 0 0 0-1.225-.707L1.354 2.882a1 1 0 0 0-.707 1.224zm.001 0h12.21v6.715a1 1 0 0 1-1 1H2.178a1 1 0 0 1-1-1zm2.174 5.004c0-.345.28-.625.625-.625h1.365a.625.625 0 0 1 0 1.25H3.976a.625.625 0 0 1-.625-.625" clip-rule="evenodd"/></symbol><symbol id="hd-icon-streamline-filter-2" viewBox="0 0 14 14"><path fill="none" stroke="currentColor" stroke-linecap="round" stroke-linejoin="round" d="M13.5.5H.5l5 7v6l3-2v-4z"/></symbol><symbol id="hd-icon-streamline-filter-2-remix" viewBox="0 0 14 14"><path fill="none" stroke="currentColor" stroke-linecap="round" stroke-linejoin="round" stroke-width="1.25" d="M13.375.625H.625L5.5 7.5v5.875l3-2V7.5z"/></symbol><symbol id="hd-icon-streamline-filter-2-solid" viewBox="0 0 14 14"><path fill="currentColor" fill-rule="evenodd" d="M.5 0a.5.5 0 0 0-.407.79L5 7.66v5.84a.5.5 0 0 0 .777.416l3-2A.5.5 0 0 0 9 11.5V7.66L13.907.79A.5.5 0 0 0 13.5 0z" clip-rule="evenodd"/></symbol><symbol id="hd-icon-streamline-fingerprint-1" viewBox="0 0 14 14"><g fill="none" stroke="currentColor" stroke-linecap="round" stroke-linejoin="round"><path d="M1 13.5v-7a6 6 0 1 1 12 0v2m-9 5v-2"/><path d="M4 9V7a3 3 0 0 1 6 0v6.5m3-2v2M7 12v1.5m0-4v-2"/></g></symbol><symbol id="hd-icon-streamline-fingerprint-1-remix" viewBox="0 0 14 14"><path fill="currentColor" fill-rule="evenodd" d="M2.125 6.125a4.875 4.875 0 1 1 9.75 0v2a.625.625 0 1 0 1.25 0v-2a6.125 6.125 0 0 0-12.25 0v7.25a.625.625 0 1 0 1.25 0zm2.5 0a2.375 2.375 0 1 1 4.75 0v7.25a.625.625 0 1 0 1.25 0v-7.25a3.625 3.625 0 0 0-7.25 0v2.5a.625.625 0 1 0 1.25 0zM4 10.5c.345 0 .625.28.625.625v2.25a.625.625 0 1 1-1.25 0v-2.25c0-.345.28-.625.625-.625m3.625-.375a.625.625 0 1 0-1.25 0v3.25a.625.625 0 1 0 1.25 0zM7 6c.345 0 .625.28.625.625v1.5a.625.625 0 1 1-1.25 0v-1.5C6.375 6.28 6.655 6 7 6m6.125 4.625a.625.625 0 1 0-1.25 0v2.75a.625.625 0 1 0 1.25 0z" clip-rule="evenodd"/></symbol><symbol id="hd-icon-streamline-fingerprint-1-solid" viewBox="0 0 14 14"><path fill="currentColor" fill-rule="evenodd" d="M1.75 6.75a5.25 5.25 0 1 1 10.5 0v2a.75.75 0 0 0 1.5 0v-2a6.75 6.75 0 0 0-13.5 0v6.5a.75.75 0 0 0 1.5 0zm3 5a.75.75 0 0 0-1.5 0v1.5a.75.75 0 0 0 1.5 0zM7 5a2.25 2.25 0 0 0-2.25 2.25v1.5a.75.75 0 0 1-1.5 0v-1.5a3.75 3.75 0 1 1 7.5 0v6a.75.75 0 0 1-1.5 0v-6A2.25 2.25 0 0 0 7 5m6.75 6.75a.75.75 0 0 0-1.5 0v1.5a.75.75 0 0 0 1.5 0zM7 11.5a.75.75 0 0 1 .75.75v1a.75.75 0 0 1-1.5 0v-1A.75.75 0 0 1 7 11.5m.75-3.75a.75.75 0 0 0-1.5 0v1.5a.75.75 0 0 0 1.5 0z" clip-rule="evenodd"/></symbol><symbol id="hd-icon-streamline-fingerprint-2" viewBox="0 0 14 14"><g fill="none" stroke="currentColor" stroke-linecap="round" stroke-linejoin="round"><path d="M7 13.39a5 5 0 0 0 5-5V5.61a5 5 0 0 0-1.27-3.33M2 6.72v1.67A5 5 0 0 0 5.06 13M9.5 1.28a5 5 0 0 0-6.83 1.83a4.9 4.9 0 0 0-.57 1.52"/><path d="M6.48 3.51A2.51 2.51 0 0 1 9.5 6v1.61m-.64 2.1A2.5 2.5 0 0 1 4.5 8V6a2.5 2.5 0 0 1 .2-1M7 6.11v1.67"/></g></symbol><symbol id="hd-icon-streamline-fingerprint-2-remix" viewBox="0 0 14 14"><path fill="currentColor" fill-rule="evenodd" d="M1.265 4.185A6.022 6.022 0 0 1 9.512.547a.625.625 0 0 1-.522 1.135a4.772 4.772 0 0 0-6.534 2.883a.625.625 0 1 1-1.191-.38M11.95 2.593a.625.625 0 0 0-1.028.712c.534.77.847 1.705.847 2.714v1.962A4.77 4.77 0 0 1 7 12.75A.625.625 0 1 0 7 14a6.02 6.02 0 0 0 6.02-6.02V6.019a6 6 0 0 0-1.07-3.426M2.23 6.76a.625.625 0 1 0-1.25 0v1.22a6.02 6.02 0 0 0 3.303 5.374a.625.625 0 1 0 .565-1.115A4.77 4.77 0 0 1 2.23 7.981zm2.584-1.513a.625.625 0 1 0-1.179-.417a3.6 3.6 0 0 0-.203 1.19v1.96a3.568 3.568 0 0 0 5.947 2.66a.625.625 0 0 0-.834-.932A2.318 2.318 0 0 1 4.682 7.98V6.02c0-.272.047-.532.132-.772m1.458-2.721a3.568 3.568 0 0 1 4.296 3.493v1.47a.625.625 0 1 1-1.25 0V6.02a2.318 2.318 0 0 0-2.792-2.27a.625.625 0 1 1-.254-1.223M7.625 6.02a.625.625 0 1 0-1.25 0v1.962a.625.625 0 1 0 1.25 0z" clip-rule="evenodd"/></symbol><symbol id="hd-icon-streamline-fingerprint-2-solid" viewBox="0 0 14 14"><path fill="currentColor" fill-rule="evenodd" d="M5.54.192a5.64 5.64 0 0 1 3.767.301a.75.75 0 1 1-.614 1.369A4.14 4.14 0 0 0 3.414 3.57c-.2.345-.347.716-.438 1.102a.75.75 0 0 1-1.46-.344A5.64 5.64 0 0 1 5.54.192m6.073 2.203a.75.75 0 1 0-1.226.863a4.14 4.14 0 0 1 .753 2.383V8.36A4.14 4.14 0 0 1 7 12.5A.75.75 0 0 0 7 14a5.64 5.64 0 0 0 5.64-5.64V5.64a5.64 5.64 0 0 0-1.027-3.245M2.86 6.726a.75.75 0 1 0-1.5 0V8.36a5.64 5.64 0 0 0 2.757 4.849a.75.75 0 0 0 .766-1.29A4.14 4.14 0 0 1 2.86 8.36zm3.988-2.435a1.705 1.705 0 0 1 1.847 1.721V7a.75.75 0 1 0 1.5 0v-.974a3.205 3.205 0 0 0-3.473-3.23a.75.75 0 0 0 .126 1.495m-1.805.062a.75.75 0 0 1 .398.983a1.7 1.7 0 0 0-.136.681V7.99A1.695 1.695 0 0 0 8.26 9.15a.75.75 0 0 1 1.116 1.001a3.195 3.195 0 0 1-5.572-2.179V6.023c-.002-.436.084-.87.255-1.272a.75.75 0 0 1 .983-.398M7.75 6.129a.75.75 0 1 0-1.5 0v1.634a.75.75 0 0 0 1.5 0z" clip-rule="evenodd"/></symbol><symbol id="hd-icon-streamline-fire-alarm-2" viewBox="0 0 14 14"><path fill="none" stroke="currentColor" stroke-linecap="round" stroke-linejoin="round" d="M6.31 3.773c-.226-.097-.431.13-.334.292a5.5 5.5 0 0 1 .67 1.923c.14.956 0 2.003-.616 2.777a.26.26 0 0 1-.195.097a.26.26 0 0 1-.205-.086c-.279-.289-.568-.581-.756-.94c-.054-.108-.249-.281-.53 0c-.678.558-1.09 1.416-1.005 2.29c.036 1.937 1.747 3.35 3.623 3.374c1.914.023 3.601-1.394 3.617-3.374a6.2 6.2 0 0 0-1.081-3.5a7.7 7.7 0 0 0-3.187-2.853M9.453.5a4 4 0 0 1 4 4m-4-1.5a1.5 1.5 0 0 1 1.5 1.5M4.547.5a4 4 0 0 0-4 4m4-1.5a1.5 1.5 0 0 0-1.5 1.5"/></symbol><symbol id="hd-icon-streamline-fire-alarm-2-remix" viewBox="0 0 14 14"><path fill="currentColor" fill-rule="evenodd" d="M4.75 1.5A3.25 3.25 0 0 0 1.5 4.75a.75.75 0 0 1-1.5 0A4.75 4.75 0 0 1 4.75 0a.75.75 0 0 1 0 1.5m5.847 9.22c.09-2.065-1.345-4.469-3.821-5.623a.86.86 0 0 0-.83.023a.77.77 0 0 0-.35.444a.77.77 0 0 0 .085.61c.316.55.502 1.19.506 1.777q.003.48-.149.856a2.7 2.7 0 0 1-.252-.448a.625.625 0 0 0-.875-.295A2.98 2.98 0 0 0 3.4 10.708l.62-.015l-.62.025c.077 1.891 1.731 3.387 3.619 3.276c1.082-.004 1.969-.346 2.597-.958s.943-1.442.981-2.316l-.517-.023zm-1.249-.055c.053-1.219-.66-2.756-2.054-3.808c.09.358.14.724.143 1.085c.006.83-.242 1.685-.9 2.31a.624.624 0 0 1-.833.027a4 4 0 0 1-.664-.718c-.253.31-.4.71-.39 1.11c.05 1.195 1.115 2.152 2.308 2.074h.04c.825 0 1.385-.253 1.745-.604c.364-.354.578-.863.605-1.476M9.25 0a.75.75 0 0 0 0 1.5a3.25 3.25 0 0 1 3.25 3.25a.75.75 0 0 0 1.5 0A4.75 4.75 0 0 0 9.25 0m-4.5 4a.75.75 0 0 0-.75.75a.75.75 0 0 1-1.5 0A2.25 2.25 0 0 1 4.75 2.5a.75.75 0 0 1 0 1.5m4.5-1.5a.75.75 0 0 0 0 1.5a.75.75 0 0 1 .75.75a.75.75 0 0 0 1.5 0A2.25 2.25 0 0 0 9.25 2.5" clip-rule="evenodd"/></symbol><symbol id="hd-icon-streamline-fire-alarm-2-solid" viewBox="0 0 14 14"><path fill="currentColor" fill-rule="evenodd" d="M5.51.75A.75.75 0 0 0 4.76 0A4.75 4.75 0 0 0 .014 4.748a.75.75 0 1 0 1.5 0A3.25 3.25 0 0 1 4.76 1.5a.75.75 0 0 0 .75-.75m2.98 0A.75.75 0 0 1 9.24 0a4.75 4.75 0 0 1 4.747 4.748a.75.75 0 0 1-1.5 0A3.25 3.25 0 0 0 9.24 1.5a.75.75 0 0 1-.75-.75m-2 2.57a.76.76 0 0 0-.832.147c-.184.177-.328.521-.132.855c.31.539.515 1.13.607 1.744c.114.771.018 1.557-.354 2.165c-.2-.214-.364-.405-.478-.622a.78.78 0 0 0-.508-.402c-.304-.072-.584.053-.8.26c-.773.646-1.265 1.643-1.169 2.69c.052 2.241 2.024 3.817 4.114 3.843c2.15.026 4.103-1.574 4.12-3.868v-.003c0-1.346-.405-2.66-1.161-3.773A8.2 8.2 0 0 0 6.51 3.33l-.01-.005zm2.75-.821a.75.75 0 1 0 0 1.5a.75.75 0 0 1 .75.75a.75.75 0 1 0 1.5 0a2.25 2.25 0 0 0-2.25-2.25m-6.07.658a.75.75 0 0 1 1.06 1.061a.75.75 0 0 0-.219.53a.75.75 0 1 1-1.5 0c0-.596.237-1.169.659-1.59" clip-rule="evenodd"/></symbol><symbol id="hd-icon-streamline-fire-extinguisher-sign" viewBox="0 0 14 14"><g fill="none" stroke="currentColor" stroke-linecap="round" stroke-linejoin="round"><path d="M7.5 13.5h-4a1 1 0 0 1-1-1v-5a3 3 0 0 1 6 0v5a1 1 0 0 1-1 1m-2-9v-2"/><path d="M.5 6.5v-2a2 2 0 0 1 2-2h7m0 .61V1.89a.5.5 0 0 1 .379-.485l3-.75a.5.5 0 0 1 .621.485v2.72a.5.5 0 0 1-.621.485l-3-.75A.5.5 0 0 1 9.5 3.11M8.5 8h-2a1 1 0 0 0-1 1v1a1 1 0 0 0 1 1h2"/></g></symbol><symbol id="hd-icon-streamline-fire-extinguisher-sign-remix" viewBox="0 0 14 14"><path fill="currentColor" fill-rule="evenodd" d="M11.912.035a1.07 1.07 0 0 1 1.338 1.033v2.114a1.068 1.068 0 0 1-1.338 1.033l-2.446-.638a1.13 1.13 0 0 1-.773-.702H7.125v1.183a3.376 3.376 0 0 1 2.75 3.317v5c0 .898-.728 1.625-1.625 1.625h-3.5a1.625 1.625 0 0 1-1.625-1.625v-5a3.376 3.376 0 0 1 2.75-3.317V2.875h-1a2.75 2.75 0 0 0-2.75 2.75v1.75a.75.75 0 0 1-1.5 0v-1.75a4.25 4.25 0 0 1 4.25-4.25h3.818c.124-.34.408-.607.773-.702zM6.5 5.25a2.125 2.125 0 0 0-2.125 2.125v5c0 .207.168.375.375.375h3.5a.375.375 0 0 0 .375-.375v-5A2.125 2.125 0 0 0 6.5 5.25" clip-rule="evenodd"/></symbol><symbol id="hd-icon-streamline-fire-extinguisher-sign-solid" viewBox="0 0 14 14"><path fill="currentColor" fill-rule="evenodd" d="M12.758.17A1 1 0 0 1 14 1.14v2.72a1 1 0 0 1-1.242.97l-3-.75A1 1 0 0 1 9 3.125H6.125v.93A3.5 3.5 0 0 1 9 7.5v5A1.5 1.5 0 0 1 7.5 14h-4A1.5 1.5 0 0 1 2 12.5v-5a3.5 3.5 0 0 1 2.875-3.444v-.931H2.656c-.76 0-1.375.616-1.375 1.375v2a.625.625 0 1 1-1.25 0v-2a2.625 2.625 0 0 1 2.625-2.625H9A1 1 0 0 1 9.757.92zM6 8h2v3H6a1 1 0 0 1-1-1V9a1 1 0 0 1 1-1" clip-rule="evenodd"/></symbol><symbol id="hd-icon-streamline-fireworks-rocket" viewBox="0 0 14 14"><g fill="none" stroke="currentColor" stroke-linecap="round" stroke-linejoin="round"><path d="M6.033 7.92L.852 13.102M7 9.006l-.16.16a2 2 0 0 0-.005 2.815l.332.336m1.188-9.809l3.09 3.09L8.45 9.535a.5.5 0 0 1-.751.051L4.367 6.254a.5.5 0 0 1 .05-.752z"/><path d="M7.936 2.09a.7.7 0 0 1-.17-.263a.54.54 0 0 1-.027-.282a.4.4 0 0 1 .11-.231q.092-.092.232-.111l4.357-.406a.56.56 0 0 1 .263.04a.73.73 0 0 1 .403.403a.56.56 0 0 1 .04.263l-.394 4.37a.4.4 0 0 1-.11.23a.4.4 0 0 1-.232.111a.54.54 0 0 1-.274-.025a.7.7 0 0 1-.259-.16zm2.088 8.488l.451.45m2.35-.45l-.452.45m-2.349 2.074l.451-.451m2.35.451l-.452-.451"/></g></symbol><symbol id="hd-icon-streamline-fireworks-rocket-remix" viewBox="0 0 14 14"><path fill="currentColor" fill-rule="evenodd" d="M12.62.005c.193-.019.382.015.55.082a1.34 1.34 0 0 1 .743.743c.067.168.1.356.082.55l-.387 4.281l-.003.026a1 1 0 0 1-.286.587c-.16.16-.362.253-.57.284c-.2.034-.397.01-.574-.052a1.3 1.3 0 0 1-.401-.227L9.266 9.576a1.115 1.115 0 0 1-1.676.114L6.392 8.492l-.361.361a1.5 1.5 0 0 0 .588 1.978a.625.625 0 1 1-.625 1.083a2.74 2.74 0 0 1-1.296-1.728l-3.631 3.63a.625.625 0 1 1-.884-.883L5.05 8.066a1 1 0 0 1 .077-.077l.381-.381L4.322 6.42a1.115 1.115 0 0 1 .113-1.676l3.297-2.508a1.3 1.3 0 0 1-.221-.386a1.16 1.16 0 0 1-.057-.589c.03-.208.124-.41.283-.57a1 1 0 0 1 .611-.289zM8.619 3.133L5.314 5.646l3.05 3.05l2.514-3.304zm.196 7.325a.625.625 0 0 0-.883 0l-.443.442a.625.625 0 1 0 .884.884l.442-.443a.625.625 0 0 0 0-.883m-2.747 3.359a.625.625 0 1 1-.883-.884l.442-.443a.625.625 0 1 1 .884.884zm2.747 0a.625.625 0 0 1-.883 0l-.443-.443a.625.625 0 1 1 .884-.884l.442.443a.625.625 0 0 1 0 .884" clip-rule="evenodd"/></symbol><symbol id="hd-icon-streamline-fireworks-rocket-solid" viewBox="0 0 14 14"><path fill="currentColor" fill-rule="evenodd" d="M8.334 1.472a.8.8 0 0 1-.18-.277a.57.57 0 0 1-.029-.298a.42.42 0 0 1 .117-.244a.42.42 0 0 1 .244-.117l4.602-.429a.6.6 0 0 1 .277.043a.77.77 0 0 1 .426.425a.6.6 0 0 1 .042.278l-.416 4.614a.42.42 0 0 1-.117.244a.42.42 0 0 1-.244.117a.56.56 0 0 1-.29-.026a.8.8 0 0 1-.273-.17zM7.279 8.585l-.17.172a1.375 1.375 0 0 0-.004 1.935l.428.434a.625.625 0 1 1-.89.878l-.428-.434a2.62 2.62 0 0 1-.73-2.217l-4.191 4.19a.625.625 0 1 1-.884-.883l5.472-5.472l-1.341-1.34a.5.5 0 0 1 .05-.752l3.18-2.419l3.504 3.504l-2.418 3.18a.5.5 0 0 1-.751.05zm2.303 1.55a.625.625 0 0 1 .884 0l.451.452a.625.625 0 0 1-.884.884l-.45-.451a.625.625 0 0 1 0-.884m2.8 0a.625.625 0 1 1 .885.885l-.452.45a.625.625 0 0 1-.884-.883zm-2.8 3.409c.244.244.64.244.884 0l.451-.452a.625.625 0 0 0-.884-.883l-.45.45a.625.625 0 0 0 0 .885m2.8 0a.625.625 0 1 0 .885-.884l-.452-.451a.625.625 0 1 0-.884.883z" clip-rule="evenodd"/></symbol><symbol id="hd-icon-streamline-fist" viewBox="0 0 14 14"><g fill="none" stroke="currentColor" stroke-linecap="round" stroke-linejoin="round"><path d="M3.901 13.407v-2.464c-1.304-.452-2.18-1.97-2.18-3.754c0-1.063.24-2.174 1.42-2.174h2.993a1.111 1.111 0 0 1 .322 2.174l-1.71.519c.874 0 1.948.83 1.925 1.905m3.144 3.795v-2.465s.587-.293 1.2-.88c1.181-1.131 1.335-2.919 1.016-4.523c-.107-.534-.26-1.076-.477-1.532m-8.886.934V3.056a1.478 1.478 0 0 1 2.957 0v1.886"/><path d="M5.625 4.554V2.072a1.48 1.48 0 1 1 2.959 0v2.482a1.48 1.48 0 0 1-1.365 1.474"/><path d="M8.584 3.057a1.479 1.479 0 1 1 2.957 0v1.27a1.479 1.479 0 1 1-2.957 0z"/></g></symbol><symbol id="hd-icon-streamline-fist-remix" viewBox="0 0 14 14"><path fill="currentColor" fill-rule="evenodd" d="M7.623 5.233c-.285-.474-.79-.8-1.373-.84V2.104a.854.854 0 0 1 1.709 0v2.45a.85.85 0 0 1-.336.679m1.075.695c-.233.27-.534.48-.876.604a1.74 1.74 0 0 1-1.185 1.255l-.135.041c.458.433.81 1.06.794 1.799a.625.625 0 1 1-1.25-.027c.007-.317-.147-.63-.422-.88c-.281-.257-.624-.387-.879-.387a.625.625 0 0 1-.181-1.223l1.71-.519a.49.49 0 0 0 .341-.401a.6.6 0 0 1-.019-.213a.49.49 0 0 0-.462-.337H3.14a.7.7 0 0 0-.382.091a.6.6 0 0 0-.212.254c-.14.275-.2.697-.2 1.204c0 1.618.79 2.828 1.76 3.164c.25.087.42.324.42.59v2.432a.625.625 0 1 1-1.25 0v-2.022c-1.383-.713-2.18-2.389-2.18-4.164c0-.556.058-1.222.334-1.768c.136-.27.333-.525.612-.715v-1.65A2.103 2.103 0 0 1 5.19 1.23a2.105 2.105 0 0 1 3.829 0a2.104 2.104 0 0 1 3.147 1.827v.786a7.5 7.5 0 0 1 .478 1.575c.336 1.687.213 3.747-1.197 5.096a6.5 6.5 0 0 1-1.008.788v2.073a.625.625 0 0 1-1.25 0v-2.418a.63.63 0 0 1 .353-.577l.005-.002l.06-.033a5.3 5.3 0 0 0 .976-.734c.903-.865 1.117-2.273.878-3.713a2.1 2.1 0 0 1-1.399.532c-.52 0-.997-.189-1.364-.502m.51-1.59a.854.854 0 0 0 1.708-.012V3.057a.854.854 0 0 0-1.707-.012zM5 4.39V3.056a.853.853 0 0 0-1.707 0V4.39z" clip-rule="evenodd"/></symbol><symbol id="hd-icon-streamline-fist-solid" viewBox="0 0 14 14"><path fill="currentColor" fill-rule="evenodd" d="M4.88 3.667H2.14V2.37a1.37 1.37 0 0 1 2.74-.003zm3.484 1.172a1.99 1.99 0 0 0-1.816-1.172H5.88V1.37a1.37 1.37 0 0 1 2.74 0v2.671c0 .298-.095.573-.256.798m-1.751.08a.744.744 0 0 1 .15 1.454l-2.107.64a.625.625 0 0 0 .181 1.222c.357 0 .812.178 1.18.514c.362.33.577.754.568 1.195a.625.625 0 1 0 1.25.027c.018-.883-.413-1.633-.975-2.146a3 3 0 0 0-.151-.13l.417-.126a2 2 0 0 0 1.377-1.515a2.4 2.4 0 0 0 .617-.556a2.368 2.368 0 0 0 3.85-.152q.07.346.07.704v1.034a4.03 4.03 0 0 1-2.339 3.742V13.5a.5.5 0 0 1-.5.5H3.795a.5.5 0 0 1-.5-.5v-2.43c-1.4-.486-2.34-2.422-2.339-3.742c0-1.141.257-2.333 1.523-2.333zm4.377-3.853a1.37 1.37 0 0 0-1.37 1.37v1.605a1.37 1.37 0 1 0 2.74 0V2.436a1.37 1.37 0 0 0-1.37-1.37" clip-rule="evenodd"/></symbol><symbol id="hd-icon-streamline-fit-to-height-square" viewBox="0 0 14 14"><g fill="none" stroke="currentColor" stroke-linecap="round" stroke-linejoin="round"><path d="M10.5 13.5h-7a3 3 0 0 1-3-3v-7a3 3 0 0 1 3-3h7a3 3 0 0 1 3 3v7a3 3 0 0 1-3 3m-3.5-3v-7"/><path d="m9 5.5l-2-2l-2 2m0 3l2 2l2-2"/></g></symbol><symbol id="hd-icon-streamline-fit-to-height-square-solid" viewBox="0 0 14 14"><path fill="currentColor" fill-rule="evenodd" d="M0 10.5A3.5 3.5 0 0 0 3.5 14h7a3.5 3.5 0 0 0 3.5-3.5v-7A3.5 3.5 0 0 0 10.5 0h-7A3.5 3.5 0 0 0 0 3.5zM6.25 6v2H5a.5.5 0 0 0-.354.854l2 2a.5.5 0 0 0 .708 0l2-2A.5.5 0 0 0 9 8H7.75V6H9a.5.5 0 0 0 .354-.854l-2-2a.5.5 0 0 0-.708 0l-2 2A.5.5 0 0 0 5 6z" clip-rule="evenodd"/></symbol><symbol id="hd-icon-streamline-flash-1" viewBox="0 0 14 14"><path fill="none" stroke="currentColor" stroke-linecap="round" stroke-linejoin="round" d="M4.25.5L2 5.81a.5.5 0 0 0 .46.69h2.79l-2 7l8.59-8.14a.5.5 0 0 0-.34-.86H7.75l2-4z"/></symbol><symbol id="hd-icon-streamline-flash-1-remix" viewBox="0 0 14 14"><path fill="none" stroke="currentColor" stroke-linecap="round" stroke-linejoin="round" stroke-width="1.25" d="m4.066.624l-2.42 5.209a.45.45 0 0 0 .05.458a.5.5 0 0 0 .192.16a.6.6 0 0 0 .252.059h2.756l-2.151 6.866l9.486-7.985a.5.5 0 0 0 .152-.249a.45.45 0 0 0-.025-.284a.5.5 0 0 0-.195-.224a.6.6 0 0 0-.298-.086H9.057L11.208.624z"/></symbol><symbol id="hd-icon-streamline-flash-1-solid" viewBox="0 0 14 14"><path fill="currentColor" fill-rule="evenodd" d="M4.272 0a.5.5 0 0 0-.46.305l-2.25 5.31l-.002.005A1 1 0 0 0 2.48 7h2.13l-1.82 6.363a.5.5 0 0 0 .825.5l8.59-8.14l.003-.003A1 1 0 0 0 11.53 4H8.581L10.22.724A.5.5 0 0 0 9.772 0z" clip-rule="evenodd"/></symbol><symbol id="hd-icon-streamline-flash-2" viewBox="0 0 14 14"><path fill="none" stroke="currentColor" stroke-linecap="round" stroke-linejoin="round" d="M8 .5v5h3.5l-5.5 8v-5H2.5z"/></symbol><symbol id="hd-icon-streamline-flash-2-remix" viewBox="0 0 14 14"><path fill="none" stroke="currentColor" stroke-linecap="round" stroke-linejoin="round" stroke-width="1.25" d="M8 .625V5.5h4.375L6 13.375V8.5H1.625z"/></symbol><symbol id="hd-icon-streamline-flash-2-solid" viewBox="0 0 14 14"><path fill="currentColor" fill-rule="evenodd" d="M8.5.5a.5.5 0 0 0-.912-.283l-5.5 8A.5.5 0 0 0 2.5 9h3v4.5a.5.5 0 0 0 .912.283l5.5-8A.5.5 0 0 0 11.5 5h-3z" clip-rule="evenodd"/></symbol><symbol id="hd-icon-streamline-flash-3" viewBox="0 0 14 14"><path fill="none" stroke="currentColor" stroke-linecap="round" stroke-linejoin="round" d="M3.502 5.424L4.58 1.486A1 1 0 0 1 5.544.75h1.647a1 1 0 0 1 .965 1.263l-.594 2.175h1.589a1 1 0 0 1 .943 1.331L8.75 9.344h2.75l-5.125 4.125l-3.187-4.125H5.53l.782-2.656H4.467a1 1 0 0 1-.965-1.264"/></symbol><symbol id="hd-icon-streamline-flash-3-remix" viewBox="0 0 14 14"><path fill="none" stroke="currentColor" stroke-linecap="round" stroke-linejoin="round" stroke-width="1.25" d="M2.203 5.545L3.63.976a.5.5 0 0 1 .477-.351h4.005a.5.5 0 0 1 .478.647l-.804 2.617h2.494a.5.5 0 0 1 .47.672L9.056 9.16H12l-6.02 4.216L2.033 9.16h2.759l.836-2.965H2.68a.5.5 0 0 1-.477-.65"/></symbol><symbol id="hd-icon-streamline-flash-3-solid" viewBox="0 0 14 14"><path fill="currentColor" d="M3.08 5.28L4.286.875a1 1 0 0 1 .965-.736h1.94A1 1 0 0 1 8.156 1.4L7.49 3.847h1.826a1 1 0 0 1 .943 1.332L8.77 9.41h1.359a.5.5 0 0 1 .322.883l-3.845 3.233a.5.5 0 0 1-.717-.077L3.39 10.217a.5.5 0 0 1 .395-.806h1.511l.843-2.866H4.045A1 1 0 0 1 3.08 5.28"/></symbol><symbol id="hd-icon-streamline-flash-off" viewBox="0 0 14 14"><path fill="none" stroke="currentColor" stroke-linecap="round" stroke-linejoin="round" d="m.5.5l13 13M5.19 5.19L8.5.5V5h3L8.81 8.81m-1.66 2.35L5.5 13.5V9h-3l1.41-2"/></symbol><symbol id="hd-icon-streamline-flash-off-remix" viewBox="0 0 14 14"><path fill="currentColor" fill-rule="evenodd" d="M8.625.625a.625.625 0 0 0-1.11-.393L4.651 3.768L1.067.183a.625.625 0 1 0-.884.884l12.75 12.75a.625.625 0 1 0 .884-.884l-3.678-3.678l2.722-3.362a.625.625 0 0 0-.486-1.018h-3.75zM3.752 5.873c.268.217.31.61.092.879l-.909 1.123H5.5c.166 0 .325.066.442.183l.5.5A.63.63 0 0 1 6.625 9v2.61l.846-1.046a.625.625 0 1 1 .972.787l-1.957 2.417a.625.625 0 0 1-1.111-.393V9.26l-.134-.134H1.625a.625.625 0 0 1-.486-1.018l1.734-2.142a.625.625 0 0 1 .879-.092" clip-rule="evenodd"/></symbol><symbol id="hd-icon-streamline-flash-off-solid" viewBox="0 0 14 14"><path fill="currentColor" fill-rule="evenodd" d="M8.5.5a.5.5 0 0 0-.912-.283l-2.571 3.74L1.28.22A.75.75 0 1 0 .22 1.28l12.5 12.5a.75.75 0 1 0 1.06-1.06L9.847 8.787l2.065-3.004A.5.5 0 0 0 11.5 5h-3zM2.088 8.217l1.347-1.96l4.83 4.83l-1.853 2.696A.5.5 0 0 1 5.5 13.5V9h-3a.5.5 0 0 1-.412-.783" clip-rule="evenodd"/></symbol><symbol id="hd-icon-streamline-flip-vertical-arrow-2" viewBox="0 0 14 14"><path fill="none" stroke="currentColor" stroke-linecap="round" stroke-linejoin="round" d="m11 13.5l-4-4l-4 4zm0-13l-4 4l-4-4zM13.5 7h-1m-2 0h-1m-2 0h-1m-2 0h-1m-2 0h-1"/></symbol><symbol id="hd-icon-streamline-flip-vertical-arrow-2-remix" viewBox="0 0 14 14"><path fill="currentColor" fill-rule="evenodd" d="M13.625 7c0 .345-.28.625-.625.625h-1.25a.625.625 0 1 1 0-1.25H13c.345 0 .625.28.625.625m-2.548 6.24a.63.63 0 0 1-.577.385h-7a.625.625 0 0 1-.442-1.067l3.5-3.5a.625.625 0 0 1 .884 0l3.5 3.5a.625.625 0 0 1 .135.681m-.135-11.798A.625.625 0 0 0 10.5.375h-7a.625.625 0 0 0-.442 1.067l3.5 3.5c.244.244.64.244.884 0zM9.416 7.625a.625.625 0 1 0 0-1.25h-1.25a.625.625 0 0 0 0 1.25zM6.458 7c0 .345-.28.625-.625.625h-1.25a.625.625 0 1 1 0-1.25h1.25c.346 0 .625.28.625.625m-4.208.625a.625.625 0 1 0 0-1.25H1a.625.625 0 1 0 0 1.25z" clip-rule="evenodd"/></symbol><symbol id="hd-icon-streamline-flip-vertical-arrow-2-solid" viewBox="0 0 14 14"><path fill="currentColor" fill-rule="evenodd" d="m2.854.854l3.792 3.792a.5.5 0 0 0 .707 0L11.147.854A.5.5 0 0 0 10.793 0H3.207a.5.5 0 0 0-.353.854m0 12.292l3.792-3.793a.5.5 0 0 1 .707 0l3.793 3.793a.5.5 0 0 1-.353.854H3.207a.5.5 0 0 1-.353-.854M1.75 7.75h-1a.75.75 0 0 1 0-1.5h1a.75.75 0 1 1 0 1.5m2.833 0h1a.75.75 0 1 0 0-1.5h-1a.75.75 0 0 0 0 1.5m4.834 0h-1a.75.75 0 1 1 0-1.5h1a.75.75 0 0 1 0 1.5m2.833 0h1a.75.75 0 0 0 0-1.5h-1a.75.75 0 0 0 0 1.5" clip-rule="evenodd"/></symbol><symbol id="hd-icon-streamline-flip-vertical-circle-1" viewBox="0 0 14 14"><path fill="none" stroke="currentColor" stroke-linecap="round" stroke-linejoin="round" d="M.5 7h13a6.5 6.5 0 1 1-13 0M13 4.39a6 6 0 0 0-.76-1.3a6.3 6.3 0 0 0-1-1.09M1.05 4.39c.199-.463.454-.9.76-1.3A6.3 6.3 0 0 1 2.85 2M8.5.67a6.7 6.7 0 0 0-3 0"/></symbol><symbol id="hd-icon-streamline-flip-vertical-circle-1-remix" viewBox="0 0 14 14"><path fill="currentColor" fill-rule="evenodd" d="M8.612.182a7.2 7.2 0 0 0-3.223 0a.625.625 0 0 0 .28 1.218a5.95 5.95 0 0 1 2.663 0a.625.625 0 1 0 .28-1.218m-5.2 1.515a.626.626 0 0 1-.085.88a5.6 5.6 0 0 0-.918.962l-.003.005a5.4 5.4 0 0 0-.668 1.142a.625.625 0 1 1-1.149-.493c.215-.5.491-.973.822-1.406a6.8 6.8 0 0 1 1.12-1.174a.625.625 0 0 1 .88.084m8.156-.075a.625.625 0 0 0-.816.947q.496.429.882.961l.01.014q.405.53.668 1.142a.625.625 0 1 0 1.148-.493a6.6 6.6 0 0 0-.818-1.401a7 7 0 0 0-1.074-1.17M0 7c0-.345.28-.625.625-.625h12.752A.625.625 0 0 1 14 7A7.001 7.001 0 0 1 0 7" clip-rule="evenodd"/></symbol><symbol id="hd-icon-streamline-flip-vertical-circle-1-solid" viewBox="0 0 14 14"><path fill="currentColor" fill-rule="evenodd" d="M8.61.183a7.2 7.2 0 0 0-3.22 0a.75.75 0 1 0 .336 1.461a5.7 5.7 0 0 1 2.548 0A.75.75 0 0 0 8.61.183M3.588 1.715a.75.75 0 0 1-.101 1.056c-.328.27-.622.579-.877.919l-.004.005a5 5 0 0 0-.638 1.091a.75.75 0 0 1-1.378-.592c.215-.5.49-.973.821-1.406a7 7 0 0 1 1.121-1.174a.75.75 0 0 1 1.056.1m7.979-.09a.75.75 0 1 0-.98 1.135c.316.273.6.581.843.92l.012.015c.257.336.471.703.638 1.091a.75.75 0 0 0 1.378-.592a6.6 6.6 0 0 0-.817-1.401a7 7 0 0 0-1.074-1.169M.22 6.47a.75.75 0 0 1 .53-.22h12.5A.75.75 0 0 1 14 7A7 7 0 1 1 0 7a.75.75 0 0 1 .22-.53" clip-rule="evenodd"/></symbol><symbol id="hd-icon-streamline-flip-vertical-square-2" viewBox="0 0 14 14"><path fill="none" stroke="currentColor" stroke-linecap="round" stroke-linejoin="round" d="M13.5 2.5v-1a1 1 0 0 0-1-1h-1m-3 0h-3m-5 2v-1a1 1 0 0 1 1-1h1m-2 9v3a1 1 0 0 0 1 1h11a1 1 0 0 0 1-1v-3m-13-4V7h13V5.5"/></symbol><symbol id="hd-icon-streamline-flip-vertical-square-2-remix" viewBox="0 0 14 14"><path fill="currentColor" fill-rule="evenodd" d="M1 3.625c.345 0 .625-.28.625-.625V2c0-.207.168-.375.375-.375h1a.625.625 0 1 0 0-1.25H2C1.103.375.375 1.103.375 2v1c0 .345.28.625.625.625M.375 7V5.5a.625.625 0 1 1 1.25 0V7h10.75V5.5a.625.625 0 1 1 1.25 0V12c0 .898-.727 1.625-1.625 1.625H2A1.625 1.625 0 0 1 .375 12zM5.5 1.625a.625.625 0 1 1 0-1.25h3a.625.625 0 1 1 0 1.25zm7.5 2c.345 0 .625-.28.625-.625V2c0-.897-.727-1.625-1.625-1.625h-1a.625.625 0 1 0 0 1.25h1c.207 0 .375.168.375.375v1c0 .345.28.625.625.625" clip-rule="evenodd"/></symbol><symbol id="hd-icon-streamline-flip-vertical-square-2-solid" viewBox="0 0 14 14"><path fill="currentColor" fill-rule="evenodd" d="M11.75 0a.75.75 0 0 0 0 1.5h.5a.25.25 0 0 1 .25.25v.5a.75.75 0 0 0 1.5 0v-.5A1.75 1.75 0 0 0 12.25 0zM14 7V5.5a.75.75 0 0 0-1.5 0v.75h-11V5.5a.75.75 0 0 0-1.5 0v6.75C0 13.216.784 14 1.75 14h10.5A1.75 1.75 0 0 0 14 12.25zM1.75 1.5a.25.25 0 0 0-.25.25v.5a.75.75 0 1 1-1.5 0v-.5C0 .784.784 0 1.75 0h.5a.75.75 0 1 1 0 1.5zM6 0a.75.75 0 0 0 0 1.5h2A.75.75 0 0 0 8 0z" clip-rule="evenodd"/></symbol><symbol id="hd-icon-streamline-floppy-disk" viewBox="0 0 14 14"><g fill="none" stroke="currentColor" stroke-linecap="round" stroke-linejoin="round"><path d="M13.5 12.5a1 1 0 0 1-1 1h-11a1 1 0 0 1-1-1V4.91a1 1 0 0 1 .29-.7L4.21.79a1 1 0 0 1 .7-.29h7.59a1 1 0 0 1 1 1z"/><path d="M10.5 13.5V9a.5.5 0 0 0-.5-.5H4a.5.5 0 0 0-.5.5v4.5m7-13V4a.5.5 0 0 1-.5.5H6a.5.5 0 0 1-.5-.5V.5"/></g></symbol><symbol id="hd-icon-streamline-floppy-disk-remix" viewBox="0 0 14 14"><path fill="currentColor" fill-rule="evenodd" d="M5.41.375h-.003A1.63 1.63 0 0 0 4.27.846l-.002.002l-3.42 3.42l-.002.002c-.3.303-.47.711-.471 1.137V12A1.625 1.625 0 0 0 2 13.625h10A1.625 1.625 0 0 0 13.625 12V2A1.625 1.625 0 0 0 12 .375zm-.16 1.288a.4.4 0 0 0-.1.07L1.734 5.15a.38.38 0 0 0-.109.262V12a.375.375 0 0 0 .375.375h1.25V9A.75.75 0 0 1 4 8.25h6a.75.75 0 0 1 .75.75v3.375H12a.375.375 0 0 0 .375-.375V2A.375.375 0 0 0 12 1.625h-1.25V4a.75.75 0 0 1-.75.75H6A.75.75 0 0 1 5.25 4z" clip-rule="evenodd"/></symbol><symbol id="hd-icon-streamline-floppy-disk-solid" viewBox="0 0 14 14"><path fill="currentColor" fill-rule="evenodd" d="M4.875 0a1.5 1.5 0 0 0-1.017.435l-.002.001l-3.42 3.42l-.001.002A1.5 1.5 0 0 0 0 4.908V12.5A1.5 1.5 0 0 0 1.5 14h.634V9.5c0-.341.165-.638.404-.836a1.3 1.3 0 0 1 .827-.289h7.27c.292 0 .59.095.827.29c.24.197.404.494.404.835V14h.634a1.5 1.5 0 0 0 1.5-1.5v-11A1.5 1.5 0 0 0 12.5 0h-.634v3.5c0 .328-.15.623-.382.825c-.23.2-.524.3-.817.3H6.074c-.292 0-.587-.1-.816-.3a1.1 1.1 0 0 1-.383-.825zm5.741 0H6.125v3.375h4.491zm0 14H3.384V9.625h7.232z" clip-rule="evenodd"/></symbol><symbol id="hd-icon-streamline-flower" viewBox="0 0 14 14"><g fill="none" stroke="currentColor" stroke-linecap="round" stroke-linejoin="round"><path d="M7 8.75c.828 0 1.5-.667 1.5-1.49S7.828 5.77 7 5.77s-1.5.667-1.5 1.49s.672 1.49 1.5 1.49"/><path d="M13.37 5.34a2.57 2.57 0 0 0-3.24-1.64a2.3 2.3 0 0 0-.65.3a2.58 2.58 0 1 0-4.96 0a2.3 2.3 0 0 0-.65-.31a2.561 2.561 0 1 0-1.59 4.87a3 3 0 0 0 .72.12a3 3 0 0 0-.5.51a2.54 2.54 0 0 0 .57 3.57a2.59 2.59 0 0 0 3.6-.56a2.5 2.5 0 0 0 .33-.64q.123.345.34.64a2.59 2.59 0 0 0 4.283-.17a2.54 2.54 0 0 0-.113-2.84a3 3 0 0 0-.5-.51a3 3 0 0 0 .71-.12a2.55 2.55 0 0 0 1.65-3.22"/></g></symbol><symbol id="hd-icon-streamline-flower-alt" viewBox="0 0 14 14"><g fill="none" stroke="currentColor" stroke-linecap="round" stroke-linejoin="round"><path d="M1.5 13.5h11a1 1 0 0 0 1-1v-11a1 1 0 0 0-1-1h-11a1 1 0 0 0-1 1v11a1 1 0 0 0 1 1"/><path d="M10 6.5a3 3 0 1 1-6 0V4.31a.5.5 0 0 1 .72-.45L7 5l2.28-1.14a.5.5 0 0 1 .72.45zm-3 3v4m0 0L9.5 11M7 13.5L4.5 11"/></g></symbol><symbol id="hd-icon-streamline-flower-alt-remix" viewBox="0 0 14 14"><path fill="currentColor" fill-rule="evenodd" d="M12.375 12.077a.3.3 0 0 1-.298.298H8.509l1.433-1.433a.625.625 0 1 0-.884-.884l-1.433 1.433V9.443C9.245 9.142 10.5 7.697 10.5 6V3.81c0-.342-.18-.668-.47-.849a1.01 1.01 0 0 0-.965-.052l-.009.004L7 3.94L4.944 2.913l-.009-.004a1 1 0 0 0-.965.052c-.29.181-.47.507-.47.849V6c0 1.697 1.255 3.142 2.875 3.443v2.048l-1.433-1.433a.625.625 0 1 0-.884.884l1.433 1.433H1.923a.3.3 0 0 1-.298-.298V1.923c0-.165.133-.298.298-.298h10.154c.164 0 .298.133.298.298zm-5.376 1.548H1.923a1.55 1.55 0 0 1-1.548-1.548V1.923c0-.855.693-1.548 1.548-1.548h10.154c.855 0 1.548.693 1.548 1.548v10.154c0 .855-.693 1.548-1.548 1.548zM7 4.5" clip-rule="evenodd"/></symbol><symbol id="hd-icon-streamline-flower-alt-solid" viewBox="0 0 14 14"><path fill="currentColor" fill-rule="evenodd" d="M14 12.5a1.5 1.5 0 0 1-1.5 1.5h-11A1.5 1.5 0 0 1 0 12.5v-11A1.5 1.5 0 0 1 1.5 0h11A1.5 1.5 0 0 1 14 1.5zM9.121 7.22A3 3 0 0 0 10 5.097v-2.19a.5.5 0 0 0-.72-.45L7 3.598l-2.28-1.14a.5.5 0 0 0-.72.45v2.19a3 3 0 0 0 2.375 2.934v2.052L4.942 8.651a.625.625 0 1 0-.884.884l2.5 2.5a.62.62 0 0 0 .436.183h.012a.62.62 0 0 0 .436-.183l2.5-2.5a.625.625 0 0 0-.884-.884l-1.433 1.433V8.032a3 3 0 0 0 1.496-.813" clip-rule="evenodd"/></symbol><symbol id="hd-icon-streamline-flower-remix" viewBox="0 0 14 14"><path fill="currentColor" fill-rule="evenodd" d="M3.932 2.905a3.126 3.126 0 0 1 6.136 0q.213-.03.432-.03a3.125 3.125 0 0 1 1.542 5.843A3.125 3.125 0 0 1 7 12.408a3.125 3.125 0 0 1-5.042-3.69a3.125 3.125 0 0 1 1.974-5.814M7 1.625A1.875 1.875 0 0 0 5.132 3.66a.625.625 0 0 1-.876.624A1.875 1.875 0 1 0 3.18 7.848a.625.625 0 0 1 .258 1.125a1.875 1.875 0 1 0 2.944 1.795a.625.625 0 0 1 1.238 0a1.876 1.876 0 1 0 2.944-1.795a.625.625 0 0 1 .257-1.125a1.876 1.876 0 1 0-1.076-3.564a.625.625 0 0 1-.876-.624A1.875 1.875 0 0 0 7 1.625M7 5a2 2 0 1 0 0 4a2 2 0 0 0 0-4" clip-rule="evenodd"/></symbol><symbol id="hd-icon-streamline-flower-solid" viewBox="0 0 14 14"><path fill="currentColor" fill-rule="evenodd" d="M4.822 1.112a3.08 3.08 0 0 1 5.257 2.08a3.07 3.07 0 0 1 3.766 1.992l-.475.156l.475-.155a3.05 3.05 0 0 1-1.86 3.813a3.04 3.04 0 0 1-.753 4.168a3.09 3.09 0 0 1-4.227-.581a3.09 3.09 0 0 1-5.043-.291A3.04 3.04 0 0 1 2.022 9a3.062 3.062 0 0 1 1.9-5.817a3.08 3.08 0 0 1 .9-2.07M9.205 7.26c0 1.21-.987 2.19-2.205 2.19s-2.205-.98-2.205-2.19S5.782 5.07 7 5.07s2.205.98 2.205 2.19" clip-rule="evenodd"/></symbol><symbol id="hd-icon-streamline-flu-mask" viewBox="0 0 14 14"><path fill="none" stroke="currentColor" stroke-linecap="round" stroke-linejoin="round" d="M7 10.25c2.5 0 3.5-1 3.5-1v-5.5h-7v5.5s1 1 3.5 1m-1-4h2m-4.5-2.5H2.268C1.29 3.75.5 4.541.5 5.518v0c0 .469.186.918.518 1.25L3.5 9.25m7-5.5h1.232c.977 0 1.768.791 1.768 1.768v0c0 .469-.186.918-.518 1.25L10.5 9.25"/></symbol><symbol id="hd-icon-streamline-flu-mask-remix" viewBox="0 0 14 14"><path fill="currentColor" fill-rule="evenodd" d="m11 8.61l1.12-1.12a2.15 2.15 0 0 0 .631-1.522v-.612a.846.846 0 0 0-1.388-.65L11 5.007zm-.231 1.979a.6.6 0 0 0 .106-.086l2.13-2.129A3.4 3.4 0 0 0 14 5.968v-.612a2.097 2.097 0 0 0-3.439-1.611l-.396.33a1.6 1.6 0 0 1-.383-.204c-.253-.178-.495-.424-.763-.708l-.074-.08c-.235-.25-.497-.528-.774-.745c-.312-.245-.7-.46-1.172-.46s-.86.216-1.17.46c-.27.216-.528.492-.76.74l-.08.086c-.43.46-.778.789-1.154.913l-.399-.332A2.096 2.096 0 0 0 0 5.355v.613c0 .902.359 1.768.997 2.406l2.129 2.13a.6.6 0 0 0 .106.085q.045.051.101.111c.155.165.387.377.703.588c.638.425 1.608.833 2.965.833s2.327-.408 2.965-.833a4 4 0 0 0 .804-.7M3 5.008V8.61L1.88 7.49a2.15 2.15 0 0 1-.631-1.523v-.612a.846.846 0 0 1 1.388-.65zM5.375 6.5c0-.345.28-.625.625-.625h2a.625.625 0 1 1 0 1.25H6a.625.625 0 0 1-.625-.625M6 8.375a.625.625 0 1 0 0 1.25h2a.625.625 0 1 0 0-1.25z" clip-rule="evenodd"/></symbol><symbol id="hd-icon-streamline-flu-mask-solid" viewBox="0 0 14 14"><path fill="currentColor" fill-rule="evenodd" d="M.03 5.837c0-1.365 1.047-2.56 2.442-2.56h9.056c1.395 0 2.442 1.195 2.442 2.56c0 .553-.17 1.092-.488 1.535a2.4 2.4 0 0 1-.479.479l-1.838 1.438A6.75 6.75 0 0 1 2.86 9.3L1.002 7.854a2.4 2.4 0 0 1-.488-.487a2.64 2.64 0 0 1-.484-1.53m2.442-1.06c-.474 0-.942.427-.942 1.06c0 .245.076.477.207.66a1 1 0 0 0 .186.173l1.344 1.045V4.778zm9.607 1.892l-1.346 1.053V4.778h.795c.474 0 .942.426.942 1.059c0 .246-.076.479-.208.663a1 1 0 0 1-.183.17m-5.77-1.161a.625.625 0 0 0 0 1.25h1.383a.625.625 0 1 0 0-1.25z" clip-rule="evenodd"/></symbol><symbol id="hd-icon-streamline-focus-points" viewBox="0 0 14 14"><path fill="none" stroke="currentColor" stroke-linecap="round" stroke-linejoin="round" d="M2.5 1.5h-1a1 1 0 0 0-1 1v1m13 0v-1a1 1 0 0 0-1-1h-1m0 11h1a1 1 0 0 0 1-1v-1m-13 0v1a1 1 0 0 0 1 1h1m4.5-5a.5.5 0 1 0 0-1a.5.5 0 0 0 0 1m-4 0a.5.5 0 1 0 0-1a.5.5 0 0 0 0 1m8 0a.5.5 0 1 0 0-1a.5.5 0 0 0 0 1m-4 4a.5.5 0 1 0 0-1a.5.5 0 0 0 0 1m0-8a.5.5 0 1 0 0-1a.5.5 0 0 0 0 1"/></symbol><symbol id="hd-icon-streamline-focus-points-remix" viewBox="0 0 14 14"><path fill="currentColor" fill-rule="evenodd" d="M1.36 2.36c.07-.07.166-.11.265-.11h2a.625.625 0 1 0 0-1.25h-2A1.625 1.625 0 0 0 0 2.625v2a.625.625 0 1 0 1.25 0v-2c0-.1.04-.195.11-.265m8.39-.735c0-.345.28-.625.625-.625h2A1.625 1.625 0 0 1 14 2.625v2a.625.625 0 1 1-1.25 0v-2a.375.375 0 0 0-.375-.375h-2a.625.625 0 0 1-.625-.625M5.75 3a1.25 1.25 0 1 1 2.5 0a1.25 1.25 0 0 1-2.5 0M3 5.75a1.25 1.25 0 1 0 0 2.5a1.25 1.25 0 0 0 0-2.5m4 0a1.25 1.25 0 1 0 0 2.5a1.25 1.25 0 0 0 0-2.5M9.75 7a1.25 1.25 0 1 1 2.5 0a1.25 1.25 0 0 1-2.5 0M7 9.75a1.25 1.25 0 1 0 0 2.5a1.25 1.25 0 0 0 0-2.5m6.375-1c.345 0 .625.28.625.625v2A1.625 1.625 0 0 1 12.375 13h-2a.625.625 0 1 1 0-1.25h2a.375.375 0 0 0 .375-.375v-2c0-.345.28-.625.625-.625M1.25 9.375a.625.625 0 1 0-1.25 0v2A1.625 1.625 0 0 0 1.625 13h2a.625.625 0 1 0 0-1.25h-2a.375.375 0 0 1-.375-.375z" clip-rule="evenodd"/></symbol><symbol id="hd-icon-streamline-focus-points-solid" viewBox="0 0 14 14"><path fill="currentColor" fill-rule="evenodd" d="M.542 1.497c.32-.32.753-.5 1.205-.5h.955a.75.75 0 0 1 0 1.5h-.955a.205.205 0 0 0-.205.205v.955a.75.75 0 0 1-1.5 0v-.955c0-.452.18-.886.5-1.205m10.006.25a.75.75 0 0 1 .75-.75h.955a1.705 1.705 0 0 1 1.705 1.705v.955a.75.75 0 0 1-1.5 0v-.955a.205.205 0 0 0-.205-.205h-.955a.75.75 0 0 1-.75-.75m3.41 8.596a.75.75 0 1 0-1.5 0v.955a.205.205 0 0 1-.205.205h-.955a.75.75 0 0 0 0 1.5h.955a1.705 1.705 0 0 0 1.705-1.705zM.792 9.593a.75.75 0 0 1 .75.75v.955a.205.205 0 0 0 .205.205h.955a.75.75 0 0 1 0 1.5h-.955a1.705 1.705 0 0 1-1.705-1.705v-.955a.75.75 0 0 1 .75-.75M6 3a1 1 0 1 1 2 0a1 1 0 0 1-2 0M3 6a1 1 0 1 0 0 2a1 1 0 0 0 0-2m4 0a1 1 0 1 0 0 2a1 1 0 0 0 0-2m3 1a1 1 0 1 1 2 0a1 1 0 0 1-2 0m-3 3a1 1 0 1 0 0 2a1 1 0 0 0 0-2" clip-rule="evenodd"/></symbol><symbol id="hd-icon-streamline-folder-add" viewBox="0 0 14 14"><path fill="none" stroke="currentColor" stroke-linecap="round" stroke-linejoin="round" d="M7 5.5v5M4.5 8h5m-9 4.25V1.75a1 1 0 0 1 1-1h3.69a1 1 0 0 1 1 .76l.31 1.24h6a1 1 0 0 1 1 1v8.5a1 1 0 0 1-1 1h-11a1 1 0 0 1-1-1"/></symbol><symbol id="hd-icon-streamline-folder-add-remix" viewBox="0 0 14 14"><path fill="currentColor" fill-rule="evenodd" d="M1.25 2c0-.207.168-.375.375-.375h2.72c.171 0 .321.117.363.284l.31 1.243c.07.278.32.473.607.473h6.75c.207 0 .375.168.375.375v8a.375.375 0 0 1-.375.375H1.625A.375.375 0 0 1 1.25 12zM1.625.375C.728.375 0 1.103 0 2v10c0 .898.728 1.625 1.625 1.625h10.75c.898 0 1.625-.727 1.625-1.625V4c0-.897-.727-1.625-1.625-1.625H6.113l-.192-.77A1.625 1.625 0 0 0 4.344.376zM7 4.75a.75.75 0 0 1 .75.75v1.75H9.5a.75.75 0 0 1 0 1.5H7.75v1.75a.75.75 0 0 1-1.5 0V8.75H4.5a.75.75 0 0 1 0-1.5h1.75V5.5A.75.75 0 0 1 7 4.75" clip-rule="evenodd"/></symbol><symbol id="hd-icon-streamline-folder-add-solid" viewBox="0 0 14 14"><path fill="currentColor" fill-rule="evenodd" d="M5.183.5a1.5 1.5 0 0 1 1.492 1.14l.215.86h5.61A1.5 1.5 0 0 1 14 4v8a1.5 1.5 0 0 1-1.5 1.5h-11A1.5 1.5 0 0 1 0 12V2A1.5 1.5 0 0 1 1.5.5zM7 4.75a.75.75 0 0 1 .75.75v1.75H9.5a.75.75 0 0 1 0 1.5H7.75v1.75a.75.75 0 0 1-1.5 0V8.75H4.5a.75.75 0 0 1 0-1.5h1.75V5.5A.75.75 0 0 1 7 4.75" clip-rule="evenodd"/></symbol><symbol id="hd-icon-streamline-folder-check" viewBox="0 0 14 14"><g fill="none" stroke="currentColor" stroke-linecap="round" stroke-linejoin="round"><path d="M.5 12.25V1.75a1 1 0 0 1 1-1h3.69a1 1 0 0 1 1 .76l.31 1.24h6a1 1 0 0 1 1 1v8.5a1 1 0 0 1-1 1h-11a1 1 0 0 1-1-1"/><path d="M4.5 9L6 10l3-4"/></g></symbol><symbol id="hd-icon-streamline-folder-check-remix" viewBox="0 0 14 14"><path fill="currentColor" fill-rule="evenodd" d="M1.25 2c0-.207.168-.375.375-.375h2.72c.171 0 .321.117.363.284l.31 1.243c.07.278.32.473.607.473h6.75c.207 0 .375.168.375.375v8a.375.375 0 0 1-.375.375H1.625A.375.375 0 0 1 1.25 12zM1.625.375C.728.375 0 1.103 0 2v10c0 .898.728 1.625 1.625 1.625h10.75c.898 0 1.625-.727 1.625-1.625V4c0-.897-.727-1.625-1.625-1.625H6.113l-.192-.77A1.625 1.625 0 0 0 4.344.376zM9.6 6.45a.75.75 0 1 0-1.2-.9L5.826 8.982l-.91-.606a.75.75 0 0 0-.832 1.248l1.5 1A.75.75 0 0 0 6.6 10.45z" clip-rule="evenodd"/></symbol><symbol id="hd-icon-streamline-folder-check-solid" viewBox="0 0 14 14"><path fill="currentColor" fill-rule="evenodd" d="M5.183.5a1.5 1.5 0 0 1 1.492 1.14l.215.86h5.61A1.5 1.5 0 0 1 14 4v8a1.5 1.5 0 0 1-1.5 1.5h-11A1.5 1.5 0 0 1 0 12V2A1.5 1.5 0 0 1 1.5.5zM9.6 6.45a.75.75 0 1 0-1.2-.9L5.826 8.982l-.91-.606a.75.75 0 0 0-.832 1.248l1.5 1A.75.75 0 0 0 6.6 10.45z" clip-rule="evenodd"/></symbol><symbol id="hd-icon-streamline-folder-delete" viewBox="0 0 14 14"><path fill="none" stroke="currentColor" stroke-linecap="round" stroke-linejoin="round" d="M.5 12.25V1.75a1 1 0 0 1 1-1h3.69a1 1 0 0 1 1 .76l.31 1.24h6a1 1 0 0 1 1 1v8.5a1 1 0 0 1-1 1h-11a1 1 0 0 1-1-1M4.5 8h5"/></symbol><symbol id="hd-icon-streamline-folder-delete-remix" viewBox="0 0 14 14"><path fill="currentColor" fill-rule="evenodd" d="M1.25 2c0-.207.168-.375.375-.375h2.72c.171 0 .321.117.363.284l.31 1.243c.07.278.32.473.607.473h6.75c.207 0 .375.168.375.375v8a.375.375 0 0 1-.375.375H1.625A.375.375 0 0 1 1.25 12zM1.625.375C.728.375 0 1.103 0 2v10c0 .898.728 1.625 1.625 1.625h10.75c.898 0 1.625-.727 1.625-1.625V4c0-.897-.727-1.625-1.625-1.625H6.113l-.192-.77A1.625 1.625 0 0 0 4.344.376zM4.5 7.25a.75.75 0 0 0 0 1.5h5a.75.75 0 0 0 0-1.5z" clip-rule="evenodd"/></symbol><symbol id="hd-icon-streamline-folder-delete-solid" viewBox="0 0 14 14"><path fill="currentColor" fill-rule="evenodd" d="M5.183.5a1.5 1.5 0 0 1 1.492 1.14l.215.86h5.61A1.5 1.5 0 0 1 14 4v8a1.5 1.5 0 0 1-1.5 1.5h-11A1.5 1.5 0 0 1 0 12V2A1.5 1.5 0 0 1 1.5.5zM4.5 7.25a.75.75 0 0 0 0 1.5h5a.75.75 0 0 0 0-1.5z" clip-rule="evenodd"/></symbol><symbol id="hd-icon-streamline-food-baguette-cook-bread-gluten-drink-cooking-nutrition-baguette-food" viewBox="0 0 14 14"><path fill="none" stroke="currentColor" stroke-linecap="round" stroke-linejoin="round" d="m1.636 6.93l6.468-5.074a3 3 0 0 1 4.212.509l.975 1.243a1 1 0 0 1-.17 1.404l-9.615 7.542a1 1 0 0 1-1.404-.17l-.975-1.243a3 3 0 0 1 .51-4.212Zm1.234-.97l1.56 2m2.03-4.82l1.57 2"/></symbol><symbol id="hd-icon-streamline-food-barbeque-pot-cook-grill-bbq-drink-cooking-nutrition-pot-barbecue-grilling-food-cauldron" viewBox="0 0 14 14"><path fill="none" stroke="currentColor" stroke-linecap="round" stroke-linejoin="round" d="M7 12a6.51 6.51 0 0 0 6.48-6a.5.5 0 0 0-.48-.5H1a.5.5 0 0 0-.48.5A6.51 6.51 0 0 0 7 12Zm-2.95-.71L3.5 13.5m6.45-2.21l.55 2.21M3.5 3V2m7 1V2M7 3V.5"/></symbol><symbol id="hd-icon-streamline-food-burger-drink-burger-fast-cook-cooking-nutrition-food" viewBox="0 0 14 14"><path fill="none" stroke="currentColor" stroke-linecap="round" stroke-linejoin="round" d="M4 .5h6A3.5 3.5 0 0 1 13.5 4v0a1 1 0 0 1-1 1h-11a1 1 0 0 1-1-1v0A3.5 3.5 0 0 1 4 .5Zm-3.5 7h13M13 10H7l-1.5 1.5l-3-1.5H1a.5.5 0 0 0-.5.5h0a3 3 0 0 0 3 3h7a3 3 0 0 0 3-3h0a.5.5 0 0 0-.5-.5Z"/></symbol><symbol id="hd-icon-streamline-food-cake-candle-birthday-event-special-sweet-cake-bake" viewBox="0 0 14 14"><g fill="none" stroke="currentColor" stroke-linecap="round" stroke-linejoin="round"><rect width="13" height="8" x=".5" y="5.5" rx="1"/><path d="M3 3.5v-2m4 2v-2m4 2v-2m2.5 8.5H13a2 2 0 0 1-2-2a2 2 0 0 1-4 0a2 2 0 0 1-4 0a2 2 0 0 1-2 2H.5"/></g></symbol><symbol id="hd-icon-streamline-food-candy-cane-candy-sweet-cane-christmas" viewBox="0 0 14 14"><path fill="none" stroke="currentColor" stroke-linecap="round" stroke-linejoin="round" d="M5.5 5a1.5 1.5 0 0 1 3 0v7a1.5 1.5 0 0 0 3 0V5a4.5 4.5 0 0 0-9 0v1a1.5 1.5 0 0 0 3 0Zm3 5l3-3M8.42 4.51L9.95 1.6M5.86 4.02L3.03 2.88"/></symbol><symbol id="hd-icon-streamline-food-cheese-1-cook-cheese-animal-products-cooking-nutrition-dairy-food" viewBox="0 0 14 14"><g fill="none" stroke="currentColor" stroke-linecap="round" stroke-linejoin="round"><path d="M.59 5.75H13M9.09.77L9 .75L.75 5.6A.5.5 0 0 0 .5 6v1.75c1 0 2.5 0 2.5 1.75S1.47 11.25.5 11.25v1.5a.5.5 0 0 0 .5.5h12a.5.5 0 0 0 .5-.5v-7A5.88 5.88 0 0 0 9.09.77Z"/><circle cx="10" cy="8.25" r=".5"/><circle cx="6.5" cy="10.25" r=".5"/></g></symbol><symbol id="hd-icon-streamline-food-cheese-2-cook-cheese-animal-products-cooking-nutrition-dairy-food" viewBox="0 0 14 14"><g fill="none" stroke="currentColor" stroke-linecap="round" stroke-linejoin="round"><path d="M9.09.77L9 .75L.75 5.61A.47.47 0 0 0 .5 6v6.71a.5.5 0 0 0 .5.5h12a.5.5 0 0 0 .5-.5v-7A5.88 5.88 0 0 0 9.09.77ZM.59 5.75H13"/><path d="M.5 10.42h0l.08-.07A2 2 0 0 1 2 9.75a2 2 0 0 1 2 2a2 2 0 0 1-.59 1.41l-.08.09"/><circle cx="9" cy="9.25" r="1.5"/></g></symbol><symbol id="hd-icon-streamline-food-cherries-cook-plant-cherry-plants-drink-cooking-nutrition-vegetarian-fruit-food" viewBox="0 0 14 14"><g fill="none" stroke="currentColor" stroke-linecap="round" stroke-linejoin="round"><circle cx="3.36" cy="10.9" r="2.6"/><circle cx="10.64" cy="9.86" r="2.6"/><path d="M9.41 7.57A10.36 10.36 0 0 1 6 .5a13.78 13.78 0 0 0-2.6 7.8M3.36.5h5.2"/></g></symbol><symbol id="hd-icon-streamline-food-drinks-beer-mug-beer-cook-brewery-drink-mug-cooking-nutrition-brew-brewing-food" viewBox="0 0 14 14"><path fill="none" stroke="currentColor" stroke-linecap="round" stroke-linejoin="round" d="M1.5.5h8a1 1 0 0 1 1 1v10a2 2 0 0 1-2 2h-6a2 2 0 0 1-2-2v-10a1 1 0 0 1 1-1Zm9 2.5h2a1 1 0 0 1 1 1v4.5a1 1 0 0 1-1 1h-2M3.75 4v5.5M7.25 4v5.5"/></symbol><symbol id="hd-icon-streamline-food-drinks-cocktail-1-cook-alcohol-food-cocktail-drink-cooking-nutrition-alcoholic-beverage-glass" viewBox="0 0 14 14"><path fill="none" stroke="currentColor" stroke-linecap="round" stroke-linejoin="round" d="M7 8.5L2.48 1.26A.5.5 0 0 1 2.9.5h8.2a.5.5 0 0 1 .42.76Zm0 0v5m-2.5 0h5M3.56 3h6.88"/></symbol><symbol id="hd-icon-streamline-food-drinks-cocktail-glass-cook-alcohol-food-cocktail-drink-cooking-alcoholic-beverage-glass" viewBox="0 0 14 14"><path fill="none" stroke="currentColor" stroke-linecap="round" stroke-linejoin="round" d="M1.71.5a.48.48 0 0 0-.46.31a.49.49 0 0 0 .1.54L7 7l5.65-5.65a.49.49 0 0 0 .1-.54a.48.48 0 0 0-.46-.31ZM7 7v6.5m-3 0h6"/></symbol><symbol id="hd-icon-streamline-food-drinks-cocktail-shaker-alcohol-drink-mix-shake-cocktail" viewBox="0 0 14 14"><g fill="none" stroke="currentColor" stroke-linecap="round" stroke-linejoin="round"><path d="m11.5 6l-.89 6.62a1 1 0 0 1-1 .88H4.38a1 1 0 0 1-1-.88L2.5 6m8.23-2.32a1 1 0 0 0-1-.68H4.22a1 1 0 0 0-.95.68L2.5 6h9Z"/><path d="M8.5 3V1.5a1 1 0 0 0-1-1h-1a1 1 0 0 0-1 1V3"/></g></symbol><symbol id="hd-icon-streamline-food-drinks-coffee-mug-coffee-cook-cup-drink-mug-cooking-nutrition-cafe-caffeine-food" viewBox="0 0 14 14"><path fill="none" stroke="currentColor" stroke-linecap="round" stroke-linejoin="round" d="M3 5.5h5a1 1 0 0 1 1 1v5a2 2 0 0 1-2 2H4a2 2 0 0 1-2-2v-5a1 1 0 0 1 1-1Zm6 1h.5a2.5 2.5 0 0 1 0 5H9M4 .5v2m3-2v2"/></symbol><symbol id="hd-icon-streamline-food-drinks-milk-canister-milk-dairy-canister-drink" viewBox="0 0 14 14"><path fill="none" stroke="currentColor" stroke-linecap="round" stroke-linejoin="round" d="m11 7.5l-1.5-2h-5L3 7.5v5a1 1 0 0 0 1 1h6a1 1 0 0 0 1-1Zm0 0l2.5-2M3 7.5l-2.5-2m4-5h5a1 1 0 0 1 1 1V3h0h-7h0V1.5a1 1 0 0 1 1-1Zm0 2.5v2.5m5-2.5v2.5"/></symbol><symbol id="hd-icon-streamline-food-drinks-tea-cup-herbal-cook-tea-tisane-cup-drink-cooking-nutrition-mug-food" viewBox="0 0 14 14"><path fill="none" stroke="currentColor" stroke-linecap="round" stroke-linejoin="round" d="M2 4h8a.5.5 0 0 1 .5.5V9a2 2 0 0 1-2 2h-5a2 2 0 0 1-2-2V4.5A.5.5 0 0 1 2 4ZM.5 13.5h13m-3-8.5h1a2 2 0 0 1 2 2h0a2 2 0 0 1-2 2h-1M3 .5v1m5-1v1M5.5.5v1"/></symbol><symbol id="hd-icon-streamline-food-drinks-teapot-tea-pot-drink-hot-herb" viewBox="0 0 14 14"><g fill="none" stroke="currentColor" stroke-linecap="round" stroke-linejoin="round"><path d="M8 6a5.51 5.51 0 0 0-4.46 2.28L1.5 7l-1 1l2 3.5v1a1 1 0 0 0 1 1h9a1 1 0 0 0 1-1v-1A5.5 5.5 0 0 0 8 6Zm0 0V4.5"/><path d="M4 7.73V4.5a4 4 0 0 1 8 0v3.23"/></g></symbol><symbol id="hd-icon-streamline-food-drinks-water-glass-glass-water-juice-drink-liquid" viewBox="0 0 14 14"><path fill="none" stroke="currentColor" stroke-linecap="round" stroke-linejoin="round" d="M11.2 11.73a2 2 0 0 1-2 1.77H4.78a2 2 0 0 1-2-1.77L1.5.5h11ZM1.96 4.5h10.08"/></symbol><symbol id="hd-icon-streamline-food-drinks-wine-bottle-cook-bottle-wine-drink-cooking-nutrition-food" viewBox="0 0 14 14"><path fill="none" stroke="currentColor" stroke-linecap="round" stroke-linejoin="round" d="M8.25 4V1a.5.5 0 0 0-.5-.5h-1.5a.5.5 0 0 0-.5.5v3h0a3.36 3.36 0 0 0-1.5 2.8v5.7a1 1 0 0 0 1 1h3.5a1 1 0 0 0 1-1V6.8A3.36 3.36 0 0 0 8.25 4Zm-4 3.5h5.5m0 3.5h-5.5"/></symbol><symbol id="hd-icon-streamline-food-drinks-wine-glass-drink-cook-glass-cooking-wine-nutrition-food" viewBox="0 0 14 14"><path fill="none" stroke="currentColor" stroke-linecap="round" stroke-linejoin="round" d="M3.67.5a1 1 0 0 0-1 .89C2.56 2.45 2.5 4.05 2.5 4.5c0 2.62 2 4 4.5 4s4.5-1.38 4.5-4c0-.45-.06-2-.17-3.11a1 1 0 0 0-1-.89ZM7 8.5v5m-2 0h4"/></symbol><symbol id="hd-icon-streamline-food-drum-stick-1-cook-animal-drumsticks-products-chicken-cooking-nutrition-food" viewBox="0 0 14 14"><path fill="none" stroke="currentColor" stroke-linecap="round" stroke-linejoin="round" d="M13.49 9.6a1.66 1.66 0 0 0-3-.79l-1-1s-.08-.05-.11-.08A5.6 5.6 0 0 0 8 1.87a4.15 4.15 0 0 0-6.13 0A4.16 4.16 0 0 0 1.83 8a5.58 5.58 0 0 0 6 1.34a.56.56 0 0 0 0 .08L9 10.58A1.63 1.63 0 0 0 8.43 12a1.66 1.66 0 0 0 3.31-.34a1.6 1.6 0 0 0-.05-.21H12a1.65 1.65 0 0 0 1.49-1.85Z"/></symbol><symbol id="hd-icon-streamline-food-fish-cook-cooking-fish-seafood-nutrition-food" viewBox="0 0 14 14"><g fill="none" stroke="currentColor" stroke-linecap="round" stroke-linejoin="round"><path d="M8.23 11.06a5 5 0 0 0 2.63-2.14a2.88 2.88 0 0 0 1.25 1A1 1 0 0 0 13.5 9V6.39a1 1 0 0 0-1.39-.92a2.83 2.83 0 0 0-1.25 1c-1-1.56-3.72-2.77-6.45-2.77a4 4 0 0 0-3.91 4a4 4 0 0 0 4.16 3.75h1.08"/><circle cx="4" cy="6.69" r=".5"/><path d="M3.23 3.87C4 2.68 5.81 1.34 9.82 1.8a5.16 5.16 0 0 0 0 3.57M4.64 9.53a3.5 3.5 0 0 0 4 2.76L7.63 9"/></g></symbol><symbol id="hd-icon-streamline-food-ice-cream-1-cook-frozen-bite-popsicle-cream-ice-cooking-nutrition-freezer-cold-food" viewBox="0 0 14 14"><path fill="none" stroke="currentColor" stroke-linecap="round" stroke-linejoin="round" d="M8 10v2.5a1 1 0 0 1-1 1h0a1 1 0 0 1-1-1V10m3.75-7A1.75 1.75 0 0 1 8 1.25a1.74 1.74 0 0 1 .1-.56A3.63 3.63 0 0 0 7 .5A3.5 3.5 0 0 0 3.5 4v5a1 1 0 0 0 1 1h5a1 1 0 0 0 1-1V4a3.63 3.63 0 0 0-.19-1.1a1.74 1.74 0 0 1-.56.1Z"/></symbol><symbol id="hd-icon-streamline-food-ice-cream-2-cook-frozen-food-popsicle-freezer-nutrition-cream-stick-cold-ice-cooking" viewBox="0 0 14 14"><g fill="none" stroke="currentColor" stroke-linecap="round" stroke-linejoin="round"><rect width="8" height="9" x="3" y=".5" rx="1"/><path d="M5.5 3v3.5m3-3.5v3.5m0 3V12a1.5 1.5 0 0 1-3 0V9.5"/></g></symbol><symbol id="hd-icon-streamline-food-ice-cream-3-cook-frozen-cone-cream-ice-cooking-nutrition-freezer-cold-food" viewBox="0 0 14 14"><g fill="none" stroke="currentColor" stroke-linecap="round" stroke-linejoin="round"><path d="m10.36 6.48l-2.87 6.7a.54.54 0 0 1-1 0l-2.85-6.7"/><circle cx="4.88" cy="4.75" r="2.13"/><path d="M4.88 2.63a2.12 2.12 0 1 1 4.24 0"/><circle cx="9.13" cy="4.75" r="2.13"/></g></symbol><symbol id="hd-icon-streamline-food-kitchenware-bowl-chop-stick-cook-soup-bowl-chopsticks-cooking-nutrition-asian-food" viewBox="0 0 14 14"><path fill="none" stroke="currentColor" stroke-linecap="round" stroke-linejoin="round" d="M7 13.5A6.5 6.5 0 0 0 13.5 7H.5A6.5 6.5 0 0 0 7 13.5ZM7.5 5l3-4.5M9 5.5l3.5-3"/></symbol><symbol id="hd-icon-streamline-food-kitchenware-chef-toque-hat-cook-gear-chef-cooking-nutrition-tools-clothes-hat-clothing-food" viewBox="0 0 14 14"><path fill="none" stroke="currentColor" stroke-linecap="round" stroke-linejoin="round" d="M2.5 13.5h9m1.93-10.1a2.49 2.49 0 0 0-4.09-1.26a2.49 2.49 0 0 0-4.68 0A2.49 2.49 0 0 0 .57 3.4A2.51 2.51 0 0 0 2.5 6.45V10a1 1 0 0 0 1 1h7a1 1 0 0 0 1-1V6.45a2.51 2.51 0 0 0 1.93-3.05ZM2.5 8.5h9"/></symbol><symbol id="hd-icon-streamline-food-kitchenware-fork-spoon-fork-spoon-food-dine-cook-utensils-eat-restaurant-dining" viewBox="0 0 14 14"><g fill="none" stroke="currentColor" stroke-linecap="round" stroke-linejoin="round"><ellipse cx="10.6" cy="3.5" rx="2.4" ry="3"/><path d="M10.6 6.5v7M3.5.5v13M6 .5V3a2.5 2.5 0 0 1-2.5 2.5h0A2.5 2.5 0 0 1 1 3V.5"/></g></symbol><symbol id="hd-icon-streamline-food-kitchenware-microwave-cook-food-appliances-cooking-nutrition-appliance-microwave" viewBox="0 0 14 14"><g fill="none" stroke="currentColor" stroke-linecap="round" stroke-linejoin="round"><rect width="13" height="9" x=".5" y="2.5" rx=".5"/><rect width="6.5" height="5" x="2.5" y="4.5" rx=".5"/><path d="M11 5h.5M11 6.5h.5M11.25 9h0"/></g></symbol><symbol id="hd-icon-streamline-food-kitchenware-no-food-allowed-fork-spoon-food-dine-cook-utensils-eat-restaurant-not-allowed" viewBox="0 0 14 14"><path fill="none" stroke="currentColor" stroke-linecap="round" stroke-linejoin="round" d="M3.5.5v10M6 .5V3a2.5 2.5 0 0 1-2.5 2.5h0A2.5 2.5 0 0 1 1 3V.5m-.5 13l13-13m-1 5A14.61 14.61 0 0 1 13 10H8.5m0-4.5v-5a7.41 7.41 0 0 1 2.66 2.34M8.5 13.5V9"/></symbol><symbol id="hd-icon-streamline-food-kitchenware-refrigerator-fridge-cook-appliances-cooking-nutrition-freezer-appliance-food" viewBox="0 0 14 14"><g fill="none" stroke="currentColor" stroke-linecap="round" stroke-linejoin="round"><rect width="9" height="12" x="2.5" y=".5" rx="1"/><path d="M2.5 6h9m-7-3v.5m-.5 9v1m6-1v1"/></g></symbol><symbol id="hd-icon-streamline-food-kitchenware-serving-dome-cook-tool-dome-kitchen-serving-paltter-dish-tools-food" viewBox="0 0 14 14"><path fill="none" stroke="currentColor" stroke-linecap="round" stroke-linejoin="round" d="M7 3h0a6.5 6.5 0 0 1 6.5 6.5v0a1 1 0 0 1-1 1h-11a1 1 0 0 1-1-1v0A6.5 6.5 0 0 1 7 3Zm0 0V1.5m-6.5 11h13"/></symbol><symbol id="hd-icon-streamline-food-kitchenware-spoon-plate-fork-plate-food-dine-cook-utensils-eat-restaurant-dining" viewBox="0 0 14 14"><g fill="none" stroke="currentColor" stroke-linecap="round" stroke-linejoin="round"><path d="M.5.5v2.25a2.5 2.5 0 0 0 5 0V.5M3 .5v13m10.5 0a6.5 6.5 0 0 1 0-13"/><path d="M13.5 10.5a3.5 3.5 0 0 1 0-7"/></g></symbol><symbol id="hd-icon-streamline-food-meat-cook-meat-cown-slice-organic-cooking-nutrition-food" viewBox="0 0 14 14"><g fill="none" stroke="currentColor" stroke-linecap="round" stroke-linejoin="round"><path d="M2.5 5.44V4.5a2 2 0 0 1 2-2h6.05a.91.91 0 0 1 .95.84v3.82a.91.91 0 0 1-.95.84H8.8"/><path d="M13.5 9.24v2.88a1.38 1.38 0 0 1-1.38 1.38H6.79a1.38 1.38 0 0 1-1.33-1h0a1.37 1.37 0 0 0-1.32-1h-.56A3.08 3.08 0 0 1 .5 8.42V4.56"/><path d="M11.5.5a2 2 0 0 1 2 2v6.74a1.38 1.38 0 0 1-1.38 1.38H8a1.38 1.38 0 0 1-1.33-1h0a1.37 1.37 0 0 0-1.32-1h-.79a4.06 4.06 0 0 1 0-8.12Z"/><circle cx="5.33" cy="5.14" r=".5"/></g></symbol><symbol id="hd-icon-streamline-food-pizza-drink-cook-fast-cooking-nutrition-pizza-food" viewBox="0 0 14 14"><g fill="none" stroke="currentColor" stroke-linecap="round" stroke-linejoin="round"><path d="M9.75.5L8 6l5.5-1.75A3.75 3.75 0 0 0 9.75.5Z"/><path d="M7.5.52L7 .5A6.5 6.5 0 1 0 13.5 7v-.5"/><circle cx="5.5" cy="9.5" r=".5"/><circle cx="4" cy="5" r=".5"/><circle cx="10.5" cy="8" r=".5"/></g></symbol><symbol id="hd-icon-streamline-food-popcorn-cook-corn-movie-snack-cooking-nutrition-bake" viewBox="0 0 14 14"><g fill="none" stroke="currentColor" stroke-linecap="round" stroke-linejoin="round"><path d="m2.56 6l.83 6.62a1 1 0 0 0 1 .88h5.23a1 1 0 0 0 1-.88L11.44 6"/><path d="M11 3.07a1.49 1.49 0 0 0-.36.05a1.81 1.81 0 0 0 .14-.69A2 2 0 0 0 8.76.5A2 2 0 0 0 7 1.56A2 2 0 0 0 5.24.5a2 2 0 0 0-2 1.93a1.81 1.81 0 0 0 .14.69A1.49 1.49 0 0 0 3 3.07a1.5 1.5 0 1 0 0 3a1.56 1.56 0 0 0 1.2-.56a1.53 1.53 0 0 0 1.44 1A1.55 1.55 0 0 0 7 5.76a1.55 1.55 0 0 0 1.32.74a1.53 1.53 0 0 0 1.44-1a1.56 1.56 0 0 0 1.2.56a1.5 1.5 0 1 0 0-3Z"/></g></symbol><symbol id="hd-icon-streamline-food-steak-cook-grill-steak-bbq-cooking-nutrition-barbecue-grilling-food" viewBox="0 0 14 14"><g fill="none" stroke="currentColor" stroke-linecap="round" stroke-linejoin="round"><path d="M8.62 2.5C4.29 2.5.5 3.15.5 6a2.75 2.75 0 0 0 3 2.44a3.55 3.55 0 0 0 1.28-.24a1 1 0 0 1 .8 0a6.41 6.41 0 0 0 3.04.8c2.7 0 4.88-1.46 4.88-3.25S11.32 2.5 8.62 2.5Z"/><path d="M13.5 5.75v2.5c0 1.79-2.18 3.25-4.88 3.25a6.41 6.41 0 0 1-3.06-.73a1 1 0 0 0-.8 0a3.55 3.55 0 0 1-1.28.23a2.75 2.75 0 0 1-3-2.44V6"/><circle cx="4" cy="5.5" r=".5"/></g></symbol><symbol id="hd-icon-streamline-food-toast-bread-toast-breakfast" viewBox="0 0 14 14"><path fill="none" stroke="currentColor" stroke-linecap="round" stroke-linejoin="round" d="M13.5 3A2.5 2.5 0 0 0 11 .5H3A2.5 2.5 0 0 0 1.5 5v7.5a1 1 0 0 0 1 1h9a1 1 0 0 0 1-1V5a2.49 2.49 0 0 0 1-2Zm-5 .5l-4 4m5-1l-4 4"/></symbol><symbol id="hd-icon-streamline-food-water-melon-cook-plant-plants-drink-cooking-nutrition-watermelon-fruit-vegetarian-food" viewBox="0 0 14 14"><g fill="none" stroke="currentColor" stroke-linecap="round" stroke-linejoin="round"><path d="M6.13 1L1 10.65a1.14 1.14 0 0 0 .48 1.55a12.22 12.22 0 0 0 11 0a1.14 1.14 0 0 0 .52-1.55L7.87 1a1 1 0 0 0-1.74 0Z"/><path d="M12.24 9.29a12 12 0 0 1-10.48 0M5.5 7.5V8m3-.5V8M7 4.5V5"/></g></symbol><symbol id="hd-icon-streamline-food-wheat-cook-plant-bread-gluten-grain-cooking-nutrition-food-wheat" viewBox="0 0 14 14"><path fill="none" stroke="currentColor" stroke-linecap="round" stroke-linejoin="round" d="m5.53 10.85l.84 2.35M1.98.97l.34.94m3.21 8.94l-1.75-.43m1.75.43L6.6 9.4m-1.92-.9l-1.75-.44m1.75.44l1.08-1.45m-1.92-.91l-1.75-.43m1.75.43L4.91 4.7m-1.92-.91l-1.75-.43m1.75.43l1.08-1.45m5.44 7.91l-.56 2.25M11.85.8l-.22.9m-2.12 8.55L8.38 9.01m1.13 1.24l1.57-.56M10.06 8L8.94 6.76M10.06 8l1.58-.57m-1.02-1.68L9.5 4.51m1.12 1.24l1.58-.57M11.18 3.5l-1.12-1.24m1.12 1.24l1.58-.57"/></symbol><symbol id="hd-icon-streamline-fork-knife" viewBox="0 0 14 14"><path fill="none" stroke="currentColor" stroke-linecap="round" stroke-linejoin="round" d="M8.5 13.5V.5c4 2 4.5 7.5 4.5 9.5H8.5M3.5.5v13M6 .5V3a2.5 2.5 0 0 1-2.5 2.5v0A2.5 2.5 0 0 1 1 3V.5"/></symbol><symbol id="hd-icon-streamline-fork-knife-remix" viewBox="0 0 14 14"><path fill="currentColor" fill-rule="evenodd" d="M8.171.468A.63.63 0 0 1 8.78.441c2.19 1.095 3.4 3.004 4.059 4.849c.657 1.84.786 3.668.786 4.71a.624.624 0 0 1-.625.625H9.625V13a.875.875 0 0 1-1.75 0V1c0-.217.112-.418.296-.532m.954 1.643v7.264h3.234c-.048-.974-.219-2.324-.698-3.665c-.484-1.357-1.271-2.671-2.536-3.6m-5 3.157A1.88 1.88 0 0 0 5.375 3.5V1a.625.625 0 1 1 1.25 0v2.5c0 1.422-.95 2.622-2.25 3V13a.875.875 0 0 1-1.75 0V6.5a3.13 3.13 0 0 1-2.25-3V1a.625.625 0 0 1 1.25 0v2.5c0 .816.522 1.51 1.25 1.768V1a.625.625 0 1 1 1.25 0z" clip-rule="evenodd"/></symbol><symbol id="hd-icon-streamline-fork-knife-solid" viewBox="0 0 14 14"><path fill="currentColor" fill-rule="evenodd" d="M7.974.15a1 1 0 0 1 .973-.044c2.333 1.166 3.467 3.203 4.015 5.12c.538 1.884.538 3.748.538 4.75V10a1 1 0 0 1-1 1h-3v2a1 1 0 1 1-2 0V1a1 1 0 0 1 .474-.85M1 .25a.75.75 0 0 1 .75.75v2.5a1.75 1.75 0 0 0 1 1.581V1a.75.75 0 0 1 1.5 0v4.081a1.75 1.75 0 0 0 1-1.581V1a.75.75 0 0 1 1.5 0v2.5A3.25 3.25 0 0 1 4.5 6.592V13a1 1 0 1 1-2 0V6.592A3.25 3.25 0 0 1 .25 3.5V1A.75.75 0 0 1 1 .25" clip-rule="evenodd"/></symbol><symbol id="hd-icon-streamline-fork-spoon" viewBox="0 0 14 14"><path fill="none" stroke="currentColor" stroke-linecap="round" stroke-linejoin="round" d="M10.6 6.5c1.326 0 2.4-1.343 2.4-3s-1.074-3-2.4-3s-2.4 1.343-2.4 3s1.075 3 2.4 3m0 0v7M3.5.5v13M6 .5V3a2.5 2.5 0 0 1-2.5 2.5v0A2.5 2.5 0 0 1 1 3V.5"/></symbol><symbol id="hd-icon-streamline-fork-spoon-remix" viewBox="0 0 14 14"><path fill="currentColor" fill-rule="evenodd" d="M1.625 1a.625.625 0 1 0-1.25 0v2.5c0 1.422.95 2.622 2.25 3V13a.875.875 0 0 0 1.75 0V6.5a3.13 3.13 0 0 0 2.25-3V1a.625.625 0 1 0-1.25 0v2.5c0 .816-.522 1.51-1.25 1.768V1a.625.625 0 1 0-1.25 0v4.268A1.88 1.88 0 0 1 1.625 3.5zm8.875.625c-.934 0-1.875.952-1.875 2.375s.941 2.375 1.875 2.375S12.375 5.423 12.375 4s-.941-2.375-1.875-2.375M7.375 4C7.375 2.11 8.672.375 10.5.375S13.625 2.11 13.625 4c0 1.572-.897 3.036-2.25 3.485V13a.875.875 0 0 1-1.75 0V7.485C8.272 7.036 7.375 5.572 7.375 4" clip-rule="evenodd"/></symbol><symbol id="hd-icon-streamline-fork-spoon-solid" viewBox="0 0 14 14"><path fill="currentColor" fill-rule="evenodd" d="M.785.024a.75.75 0 0 1 .75.75v2.5a1.75 1.75 0 0 0 1 1.581V.774a.75.75 0 1 1 1.5 0v4.081a1.75 1.75 0 0 0 1-1.581v-2.5a.75.75 0 1 1 1.5 0v2.5a3.25 3.25 0 0 1-2.25 3.092V13a1 1 0 0 1-2 0V6.367a3.25 3.25 0 0 1-2.25-3.093v-2.5a.75.75 0 0 1 .75-.75m10.05 0c-1.772 0-2.941 1.727-2.941 3.489c0 1.404.742 2.786 1.94 3.29V13a1 1 0 1 0 2 0V6.802c1.2-.503 1.942-1.885 1.942-3.29c0-1.761-1.17-3.488-2.941-3.488" clip-rule="evenodd"/></symbol><symbol id="hd-icon-streamline-fragile" viewBox="0 0 14 14"><g fill="none" stroke="currentColor" stroke-linecap="round" stroke-linejoin="round"><path d="M3.67.5a1 1 0 0 0-1 .89C2.56 2.45 2.5 4.05 2.5 4.5c0 2.62 2 4 4.5 4s4.5-1.38 4.5-4c0-.45-.06-2-.17-3.11a1 1 0 0 0-1-.89zM7 8.5v5m-2 0h4"/><path d="m7 .5l-1.5 2l2 1.5l-1 1.5"/></g></symbol><symbol id="hd-icon-streamline-fragile-remix" viewBox="0 0 14 14"><path fill="currentColor" fill-rule="evenodd" d="M2.5 0C1.603 0 .875.728.875 1.625v2.884c0 1.776.685 3.179 1.83 4.127c.986.816 2.273 1.263 3.67 1.365v2.744h-2a.625.625 0 1 0 0 1.25h5.25a.625.625 0 1 0 0-1.25h-2v-2.744c1.397-.102 2.684-.55 3.67-1.365c1.145-.948 1.83-2.351 1.83-4.127V1.625C13.125.728 12.398 0 11.5 0zm-.375 1.625c0-.207.168-.375.375-.375h3.042l-.932.932a.75.75 0 0 0 .131 1.166l1.814 1.137l-1.141 1.14a.75.75 0 1 0 1.06 1.062L8.282 4.88a.75.75 0 0 0-.132-1.166L6.336 2.577L7.454 1.46a.8.8 0 0 0 .148-.21H11.5c.207 0 .375.168.375.375v2.884c0 1.427-.537 2.468-1.378 3.164c-.855.708-2.078 1.1-3.497 1.1s-2.642-.392-3.497-1.1c-.841-.696-1.378-1.737-1.378-3.164z" clip-rule="evenodd"/></symbol><symbol id="hd-icon-streamline-fragile-solid" viewBox="0 0 14 14"><path fill="currentColor" fill-rule="evenodd" d="M6.048 0H3.254a1.136 1.136 0 0 0-1.125 1.001L1.938 4.5c0 2.588 1.735 4.1 4.062 4.431v3.045H4.165a1 1 0 1 0 0 2h5.67a1 1 0 1 0 0-2H8V8.93c2.327-.33 4.063-1.843 4.063-4.431L11.871 1a1.136 1.136 0 0 0-1.125-1H7.534l-.009.014L6.318 1.89L7.91 3.282c.224.196.28.523.131.781l-1 1.747a.625.625 0 0 1-1.084-.62l.745-1.303l-1.614-1.41a.625.625 0 0 1-.115-.81z" clip-rule="evenodd"/></symbol><symbol id="hd-icon-streamline-front-camera" viewBox="0 0 14 14"><g fill="none" stroke="currentColor" stroke-linecap="round" stroke-linejoin="round"><path d="M4.96 6.5a.25.25 0 0 1 0-.5m0 .5a.25.25 0 0 0 0-.5m4.083.5a.25.25 0 0 1 0-.5m0 .5a.25.25 0 0 0 0-.5M4.555 8.857c.477.485 1.318.929 2.443.929s1.967-.444 2.444-.929"/><path d="M13.5 4.5a1 1 0 0 0-1-1h-2L9 1.5H5l-1.5 2h-2a1 1 0 0 0-1 1v7a1 1 0 0 0 1 1h11a1 1 0 0 0 1-1z"/></g></symbol><symbol id="hd-icon-streamline-front-camera-remix" viewBox="0 0 14 14"><path fill="currentColor" fill-rule="evenodd" d="M5 .75a.63.63 0 0 0-.5.25L3.188 2.75H1.625C.728 2.75 0 3.478 0 4.375v7.25c0 .898.728 1.625 1.625 1.625h10.75c.898 0 1.625-.727 1.625-1.625v-7.25c0-.897-.727-1.625-1.625-1.625h-1.562L9.5 1A.63.63 0 0 0 9 .75zm-1 3L5.313 2h3.375L10 3.75c.118.157.303.25.5.25h1.875c.207 0 .375.168.375.375v7.25a.375.375 0 0 1-.375.375H1.625a.375.375 0 0 1-.375-.375v-7.25c0-.207.168-.375.375-.375H3.5a.63.63 0 0 0 .5-.25m1 1.5a1 1 0 1 1 0 2a1 1 0 0 1 0-2m3 1a1 1 0 1 0 2 0a1 1 0 0 0-2 0M4.03 8.322a.75.75 0 0 1 1.06.01c.335.34.983.704 1.908.704s1.574-.364 1.909-.705a.75.75 0 1 1 1.07 1.052c-.619.629-1.653 1.153-2.979 1.153c-1.325 0-2.36-.524-2.978-1.153a.75.75 0 0 1 .01-1.06" clip-rule="evenodd"/></symbol><symbol id="hd-icon-streamline-front-camera-solid" viewBox="0 0 14 14"><path fill="currentColor" fill-rule="evenodd" d="M4.6 1.2A.5.5 0 0 1 5 1h4a.5.5 0 0 1 .4.2L10.75 3h1.75A1.5 1.5 0 0 1 14 4.5v7a1.5 1.5 0 0 1-1.5 1.5h-11A1.5 1.5 0 0 1 0 11.5v-7A1.5 1.5 0 0 1 1.5 3h1.75zM4.75 7a.75.75 0 1 0 0-1.5a.75.75 0 0 0 0 1.5M5 8.42a.625.625 0 1 0-.89.876c.594.604 1.596 1.115 2.888 1.115c1.293 0 2.295-.51 2.89-1.115a.625.625 0 1 0-.892-.877c-.358.365-1.039.742-1.998.742c-.958 0-1.639-.377-1.997-.742m5-2.17a.75.75 0 1 1-1.5 0a.75.75 0 0 1 1.5 0" clip-rule="evenodd"/></symbol><symbol id="hd-icon-streamline-galaxy-1" viewBox="0 0 14 14"><g fill="none" stroke="currentColor" stroke-linecap="round" stroke-linejoin="round"><path d="M7.013 9c3 0 5.713-2 5.713-5.083M7.013 5c-3 0-5.739 2-5.739 5.083"/><path d="M5 7a2 2 0 1 0 4 0a2 2 0 1 0-4 0"/><path d="M8.739 7.989C10.239 5.39 9.863 2.042 7.193.5M5.274 5.989c-1.5 2.598-1.137 5.97 1.533 7.511"/><path d="M8.726 5.989c-1.5-2.598-4.589-3.947-7.259-2.406m3.794 4.406c1.5 2.598 4.602 3.97 7.272 2.428"/></g></symbol><symbol id="hd-icon-streamline-galaxy-1-remix" viewBox="0 0 14 14"><path fill="currentColor" fill-rule="evenodd" d="M6.648.312a.625.625 0 0 1 .854-.23c2.822 1.63 3.286 5.006 2.01 7.694c1.471-.719 2.48-2.082 2.48-3.8a.625.625 0 0 1 1.25 0c0 3.254-2.685 5.342-5.645 5.587c1.36.908 3.039 1.101 4.518.247a.625.625 0 1 1 .625 1.083c-2.813 1.624-5.966.331-7.66-2.098c-.109 1.632.564 3.185 2.043 4.04a.625.625 0 0 1-.625 1.082c-2.813-1.624-3.27-5-2.013-7.683c-1.468.722-2.476 2.081-2.476 3.79a.625.625 0 1 1-1.25 0c0-3.253 2.704-5.338 5.66-5.586c-1.359-.916-3.044-1.108-4.533-.249a.625.625 0 0 1-.625-1.082c2.821-1.63 5.978-.343 7.668 2.106c.112-1.634-.564-3.188-2.052-4.048a.625.625 0 0 1-.23-.853" clip-rule="evenodd"/></symbol><symbol id="hd-icon-streamline-galaxy-1-solid" viewBox="0 0 14 14"><path fill="currentColor" fill-rule="evenodd" d="M7.558.198a.75.75 0 1 0-.75 1.3c1.249.72 1.888 1.977 1.917 3.346c-1.714-2.18-4.668-3.269-7.337-1.728a.75.75 0 0 0 .75 1.3c1.251-.723 2.661-.647 3.863.015C3.26 4.83.83 6.84.83 9.918a.75.75 0 1 0 1.5 0c0-1.434.769-2.613 1.939-3.324c-1.016 2.57-.489 5.672 2.172 7.208a.75.75 0 1 0 .75-1.3c-1.242-.716-1.878-1.972-1.909-3.34C7 11.326 9.95 12.42 12.611 10.884a.75.75 0 0 0-.75-1.3c-1.24.717-2.644.641-3.844-.014c2.74-.399 5.151-2.412 5.151-5.488a.75.75 0 0 0-1.5 0c0 1.442-.768 2.624-1.94 3.334c1.032-2.575.497-5.677-2.171-7.218M7 8.001A1.001 1.001 0 1 0 7 6a1.001 1.001 0 0 0 0 2" clip-rule="evenodd"/></symbol><symbol id="hd-icon-streamline-galaxy-2" viewBox="0 0 14 14"><g fill="none" stroke="currentColor" stroke-linecap="round" stroke-linejoin="round"><path d="M4.987 7a2 2 0 1 0 4 0a2 2 0 1 0-4 0"/><path d="M7 9c3.5 0 6.5-2 6.5-4.5c0-3-6.5-3.5-9-2"/><path d="M7 5C3.5 5 .5 7 .5 9.5c0 3 6.5 3.5 9 2"/></g></symbol></svg>