<svg xmlns="http://www.w3.org/2000/svg" xmlns:xlink="http://www.w3.org/1999/xlink"><symbol id="hd-icon-fluent-mdl2-contact-lock" viewBox="0 0 2048 2048"><path fill="currentColor" d="M1357 1051q-20 26-34 55t-24 62q-86-70-189-107t-214-37q-88 0-170 23t-153 64t-129 100t-100 130t-65 153t-23 170H128q0-120 35-231t101-205t156-167t204-115q-56-35-100-82t-76-104t-47-119t-17-129q0-106 40-199t110-162T697 41T896 0t199 40t162 110t110 163t41 199q0 66-16 129t-48 119t-76 103t-101 83q104 40 190 105M512 512q0 80 30 149t82 122t122 83t150 30q79 0 149-30t122-82t83-122t30-150q0-79-30-149t-82-122t-123-83t-149-30q-80 0-149 30t-122 82t-83 123t-30 149m1536 896v640h-768v-640h128v-128q0-53 20-99t55-82t81-55t100-20q53 0 99 20t82 55t55 81t20 100v128zm-512 0h256v-128q0-27-10-50t-27-40t-41-28t-50-10q-27 0-50 10t-40 27t-28 41t-10 50zm384 128h-512v384h512z"/></symbol><symbol id="hd-icon-fluent-mdl2-content-feed" viewBox="0 0 2048 2048"><path fill="currentColor" d="M1024 1920v-128h256v128zm-768 128v-512h1536v512h-128v-384H896v384H768v-384H384v384zm768-896v-128h512v128zm512-896v128h-512V256zM256 1408V768h1536v640zm640-512v384h768V896zm-512 0v384h384V896zM256 0h1536v640H256zm512 512V128H384v384zm896 0V128H896v384z"/></symbol><symbol id="hd-icon-fluent-mdl2-content-settings" viewBox="0 0 2048 2048"><path fill="currentColor" d="M2048 128v1064q-28-31-60-57t-68-50V640H128v1024h868q3 33 10 65t18 63H0V128zm-128 128H128v256h1792zM256 1536V768h640v768zm128-128h384V896H384zm1024-512h-384V768h384zm-384 130h384q-122 41-216 126h-168zm1014 462l-124 51q6 30 6 59q0 32-6 63l124 51l-49 119l-124-52q-17 25-38 47t-48 39l52 124l-119 49l-51-124q-30 6-61 6q-15 0-30-3t-30-6l-52 127l-119-49l52-125q-25-17-45-39t-38-47l-127 53l-49-119l124-51q-6-30-6-59q0-31 6-63l-124-51l49-119l124 52q17-25 38-47t48-39l-52-124l119-49l51 124q30-6 59-6q31 0 63 6l51-124l119 49l-52 124q25 17 47 38t39 48l124-52zm-438 303q40 0 75-15t61-41t41-61t15-74t-15-74t-41-61t-62-42t-74-15q-39 0-74 15t-61 41t-42 62t-15 74q0 40 15 74t41 61t62 41t74 15"/></symbol><symbol id="hd-icon-fluent-mdl2-context-menu" viewBox="0 0 2048 2048"><path fill="currentColor" d="M1792 128v1664H256V128zm-128 128H384v1408h1280zm-256 768H640V896h768zm0 384H640v-128h768zm0-768H640V512h768z"/></symbol><symbol id="hd-icon-fluent-mdl2-contrast" viewBox="0 0 2048 2048"><path fill="currentColor" d="M1024 0q141 0 272 36t245 103t207 160t160 208t103 245t37 272q0 141-36 272t-103 245t-160 207t-208 160t-245 103t-272 37q-141 0-272-36t-245-103t-207-160t-160-208t-103-244t-37-273q0-141 36-272t103-245t160-207t208-160T751 37t273-37m0 1920q123 0 237-32t214-90t182-141t140-181t91-214t32-238q0-123-32-237t-90-214t-141-182t-181-140t-214-91t-238-32q-65 0-128 9v1774q63 9 128 9"/></symbol><symbol id="hd-icon-fluent-mdl2-copy" viewBox="0 0 2048 2048"><path fill="currentColor" d="M1920 805v1243H640v-384H128V0h859l384 384h128zm-384-37h165l-165-165zM640 384h549L933 128H256v1408h384zm1152 512h-384V512H768v1408h1024z"/></symbol><symbol id="hd-icon-fluent-mdl2-copy-edit" viewBox="0 0 2048 2048"><path fill="currentColor" d="M1792 1920v-260l128-129v517h-515l127-128zM1408 896V512H768v1388q0 1-5 22t-12 48t-13 50t-7 28h-91v-384H128V0h859l384 384h128l355 355q-82 0-153 29l-165-165v165h165q-28 12-49 25t-39 29t-36 34t-39 40zM640 384h549L933 128H256v1408h384zm1408 710q0 39-15 76t-43 65l-717 719l-377 94l94-377l717-718q28-28 65-42t76-15q42 0 78 15t64 42t42 63t16 78m-128 0q0-31-20-50t-52-20q-14 0-27 4t-23 15l-692 694l-34 135l135-34l692-693q21-21 21-51"/></symbol><symbol id="hd-icon-fluent-mdl2-cotton" viewBox="0 0 2048 2048"><path fill="currentColor" d="M1504 393q91 18 167 64t131 112t87 150t31 177q0 101-37 191t-103 160t-153 112t-189 48q-71 106-178 173t-236 81v387H896v-387q-128-14-235-81t-179-173q-101-5-189-47t-153-112t-102-160T0 896q0-93 31-176t86-150t132-113t167-64q29-88 83-160t125-124t157-80T960 0q93 0 178 28t157 81t126 124t83 160m-96 887q79 0 149-30t122-82t83-122t30-150q0-79-30-149t-82-122t-123-83t-149-30h-3q-1 0-3 1q-12-82-51-152t-98-123t-134-81t-159-29q-84 0-159 29t-134 81t-98 122t-51 153h-3q-1 0-3-1q-80 1-150 31t-122 81t-82 122t-30 150q0 80 30 149t82 122t122 83t150 30h45q24 51 59 93t79 75t94 54t107 29v-129q-56-12-103-41t-81-70t-53-94t-19-109h128q0 30 9 58t26 53t40 42t53 28V896h128v373q29-10 52-28t41-42t26-52t9-59h128q0 57-19 109t-53 93t-81 71t-103 41v129q55-8 106-29t95-53t79-75t59-94z"/></symbol><symbol id="hd-icon-fluent-mdl2-coupon" viewBox="0 0 2048 2048"><path fill="currentColor" d="M624 832q0 36-14 68t-38 56t-56 38t-68 14t-68-14t-56-38t-38-56t-14-68t14-68t38-56t56-38t68-14t68 14t56 38t38 56t14 68m-176 80q33 0 56-23t24-57q0-33-23-56t-57-24q-33 0-56 23t-24 57q0 33 23 56t57 24m512 128q36 0 68 14t56 38t38 56t14 68t-14 68t-38 56t-56 38t-68 14t-68-14t-56-38t-38-56t-14-68t14-68t38-56t56-38t68-14m0 256q33 0 56-23t24-57q0-33-23-56t-57-24q-33 0-56 23t-24 57q0 33 23 56t57 24M842 640h108l-384 768H458zm566-256l640 640l-640 640H0V384zm-53 1152l512-512l-512-512H128v1024zm181-576q26 0 45 19t19 45t-19 45t-45 19t-45-19t-19-45t19-45t45-19"/></symbol><symbol id="hd-icon-fluent-mdl2-create-mail-rule" viewBox="0 0 2048 2048"><path fill="currentColor" d="M2048 1152v896H640v-896zM935 1280l409 245l409-245zm985 640v-591l-576 346l-576-346v591zM928 512q-31 0-54 9t-44 24t-41 31t-45 31t-58 23t-78 10H128v896h384v128H0V384q0-27 10-50t27-40t41-28t50-10h480q45 0 77 9t58 24t46 31t40 31t44 23t55 10h736q27 0 50 10t40 27t28 41t10 50v512h-128V512zM128 384v128h480q24 0 42-4t33-13t29-20t32-27q-17-15-31-26t-30-20t-33-13t-42-5z"/></symbol><symbol id="hd-icon-fluent-mdl2-cricket" viewBox="0 0 2048 2048"><path fill="currentColor" d="M1280 1408q53 0 99 20t82 55t55 81t20 100q0 53-20 99t-55 82t-81 55t-100 20q-53 0-99-20t-82-55t-55-81t-20-100q0-53 20-99t55-82t81-55t100-20m0 384q27 0 50-10t40-27t28-41t10-50q0-27-10-50t-27-40t-41-28t-50-10q-27 0-50 10t-40 27t-28 41t-10 50q0 27 10 50t27 40t41 28t50 10M1984 0q26 0 45 19t19 45t-19 45l-546 547q26 39 39 84t14 92v27L347 2048L0 1701L1189 512q58 0 105 10t98 43l547-546q19-19 45-19m-578 807q-4-32-18-60t-36-50t-50-36t-61-19L181 1701l166 166z"/></symbol><symbol id="hd-icon-fluent-mdl2-crop" viewBox="0 0 2048 2048"><path fill="currentColor" d="M2048 1536v129h-385v383h-127v-383H383V512H0V385h383V0h129v385h1061l365-366l91 90l-366 366v1061zM512 512v933l933-933zm1024 1024V603l-933 933z"/></symbol><symbol id="hd-icon-fluent-mdl2-crown" viewBox="0 0 2048 2048"><path fill="currentColor" d="M1793 321q40 0 75 15t61 41t41 61t15 75t-15 75t-42 61t-61 41t-75 15v1216H256V705q-40 0-74-15t-61-41t-41-62t-15-74q0-40 15-75t41-61t61-41t75-15t75 15t61 41t41 61t15 75q0 55-29 102t-80 71l361 479l260-471q-29-10-52-28t-41-42t-26-52t-9-59q0-40 15-75t41-61t61-41t75-15t75 15t61 41t41 61t15 75q0 61-34 110t-92 70l263 473l354-481q-49-24-78-70t-29-102q0-40 15-75t41-61t61-41t75-15M961 513q0 27 19 45t46 19v-1l1 1q26-1 44-19t18-45q0-26-19-45t-45-19t-45 19t-19 45m-768 0q0 26 18 45t45 19v-1l1 1q26 0 45-19t19-45t-19-45t-45-19t-45 19t-19 45m1470 451l-324 441l-312-563l-309 559l-333-441v832h1278zm129-387q26 0 45-18t20-46q0-26-19-45t-45-19t-45 19t-19 45q0 25 17 43t42 21l4-5z"/></symbol><symbol id="hd-icon-fluent-mdl2-crown-solid" viewBox="0 0 2048 2048"><path fill="currentColor" d="m1354 1167l438-527v1280H256V640l445 526l323-526zM384 384q0 27-10 50t-27 40t-41 28t-50 10q-27 0-50-10t-40-27t-28-41t-10-50q0-27 10-50t27-40t41-28t50-10q27 0 50 10t40 27t28 41t10 50m640 128q-27 0-50-10t-40-27t-28-41t-10-50q0-27 10-50t27-40t41-28t50-10q27 0 50 10t40 27t28 41t10 50q0 27-10 50t-27 40t-41 28t-50 10m768-256q27 0 50 10t40 27t28 41t10 50q0 27-10 50t-27 40t-41 28t-50 10q-27 0-50-10t-40-27t-28-41t-10-50q0-27 10-50t27-40t41-28t50-10"/></symbol><symbol id="hd-icon-fluent-mdl2-cube-shape" viewBox="0 0 2048 2048"><path fill="currentColor" d="M1792 569v1038l-832 417l-832-417V569l832-417zM960 296L335 608l625 312l625-312zM256 1528l640 321v-817L256 711zm1408 0V711l-640 321v817z"/></symbol><symbol id="hd-icon-fluent-mdl2-cube-shape-solid" viewBox="0 0 2048 2048"><path fill="currentColor" d="m960 152l750 376l-750 375l-750-375zM128 1607V665l768 384v942zm896-558l768-384v942l-768 384z"/></symbol><symbol id="hd-icon-fluent-mdl2-currency" viewBox="0 0 2048 2048"><path fill="currentColor" d="M512 920q64 32 132 71t124 89t92 115t36 149q0 83-29 158t-80 135t-121 99t-154 51v133H384v-132q-109-13-204-69T15 1577l98-82q52 63 121 106t150 58v-659q-43-21-88-45t-88-53t-80-62t-66-74t-45-87T0 576q0-83 29-158t80-135t121-99t154-51V0h128v132q109 13 204 69t165 142l-98 82q-52-63-121-106t-150-58zM128 576q0 51 25 93t62 78t83 63t86 46V262q-56 12-103 41t-81 70t-53 94t-19 109m384 1082q56-12 103-41t81-70t53-94t19-109q0-51-25-94t-62-78t-83-62t-86-46zm1521-17q-57 69-135 110t-170 41q-83 0-153-28t-128-75t-105-111t-82-134t-58-146t-35-146h-143v-128h130q-1-16-1-32t-1-32v-32q0-16 2-32h-130V768h143q12-71 35-146t58-146t81-134t105-110t129-76t153-28q92 0 169 41t136 110l-98 82q-38-47-91-76t-116-29t-116 23t-99 63t-80 91t-63 108t-45 115t-28 112h239v128h-254q-1 16-1 32t-1 32v32q0 16 2 32h254v128h-239q10 53 28 111t45 115t62 109t81 91t98 62t117 24q62 0 115-29t92-76z"/></symbol><symbol id="hd-icon-fluent-mdl2-custom-list" viewBox="0 0 2048 2048"><path fill="currentColor" d="M256 0h1536v2048H256zm1408 1920V128H384v1792zM1536 384v128H768V384zm-128 384v128H768V768zm-256 384v128H768v-128zm384 384v128H768v-128zM640 384v128H512V384zm0 384v128H512V768zm0 384v128H512v-128zm0 384v128H512v-128z"/></symbol><symbol id="hd-icon-fluent-mdl2-custom-list-mirrored" viewBox="0 0 2048 2048"><path fill="currentColor" d="M1792 0H256v2048h1536zM384 1920V128h1280v1792zM512 384v128h768V384zm128 384v128h640V768zm256 384v128h384v-128zm-384 384v128h768v-128zm896-1152v128h128V384zm0 384v128h128V768zm0 384v128h128v-128zm0 384v128h128v-128z"/></symbol><symbol id="hd-icon-fluent-mdl2-customize-toolbar" viewBox="0 0 2048 2048"><path fill="currentColor" d="M896 1024H384V512h512zM512 640v256h256V640zm1152-128v512h-512V512zm-128 384V640h-256v256zM0 256h2048v768h-128V384H128v768h896v128H0zm1989 1113l49 119l-124 51q6 30 6 61t-6 61l124 51l-49 119l-124-52q-35 51-86 86l52 124l-119 49l-51-124q-30 6-61 6t-61-6l-51 124l-119-49l52-124q-51-35-86-86l-124 52l-49-119l124-51q-6-30-6-61t6-61l-124-51l49-119l124 52q35-51 86-86l-52-124l119-49l51 124q30-6 61-6t61 6l51-124l119 49l-52 124q51 35 86 86zm-197 231q0-40-15-75t-41-61t-61-41t-75-15t-75 15t-61 41t-41 61t-15 75t15 75t41 61t61 41t75 15t75-15t61-41t41-61t15-75"/></symbol><symbol id="hd-icon-fluent-mdl2-cut" viewBox="0 0 2048 2048"><path fill="currentColor" d="M1416 1536q51 2 96 22t79 56t53 81t20 97q0 53-20 99t-55 81t-82 55t-99 21q-53 0-99-20t-81-55t-55-81t-21-100q0-71 36-132t100-94l-266-531l-265 529q32 17 57 41t44 54t28 63t10 70q0 53-20 99t-55 81t-82 55t-99 21q-53 0-99-20t-81-55t-55-81t-21-100q0-51 19-96t52-80t77-56t96-24l322-646l-339-678l58-175l353 708l353-708l58 175l-339 678zm-776 384q27 0 50-10t40-27t28-41t10-50q0-27-10-50t-27-40t-41-28t-50-10q-27 0-50 10t-40 27t-28 41t-10 50q0 27 10 50t27 40t41 28t50 10m768 0q27 0 50-10t40-27t28-41t10-50q0-27-10-50t-27-40t-41-28t-50-10q-27 0-50 10t-40 27t-28 41t-10 50q0 27 10 50t27 40t41 28t50 10"/></symbol><symbol id="hd-icon-fluent-mdl2-cycling" viewBox="0 0 2048 2048"><path fill="currentColor" d="M384 1152q79 0 149 30t122 82t83 123t30 149q0 80-30 149t-82 122t-123 83t-149 30q-80 0-149-30t-122-82t-83-122t-30-150q0-79 30-149t82-122t122-83t150-30m0 640q53 0 99-20t82-55t55-81t20-100q0-53-20-99t-55-82t-81-55t-100-20q-53 0-99 20t-82 55t-55 81t-20 100q0 53 20 99t55 82t81 55t100 20m1280-640q79 0 149 30t122 82t83 123t30 149q0 80-30 149t-82 122t-123 83t-149 30q-80 0-149-30t-122-82t-83-122t-30-150q0-79 30-149t82-122t122-83t150-30m0 640q53 0 99-20t82-55t55-81t20-100q0-53-20-99t-55-82t-81-55t-100-20q-53 0-99 20t-82 55t-55 81t-20 100q0 53 20 99t55 82t81 55t100 20m-256-704q-26 0-45-19l-115-114l-102 101q9 9 21 20t23 23t18 25t8 28v448q0 40-15 75t-41 61t-61 41t-75 15t-75-15t-61-41t-41-61t-15-75v-294l-54-54l-55-55q-39-38-61-76t-22-96q0-30 6-54t17-45t27-40t37-39l429-429q-2-8-3-17t-1-17q0-53 20-99t55-82t81-55t100-20q53 0 99 20t82 55t55 81t20 100q0 42-13 80t-36 71t-57 55t-73 37l77 77h166q40 0 75 15t61 41t41 61t15 75t-15 75t-41 61t-61 41t-75 15zm0-832q-27 0-50 10t-40 27t-28 41t-10 50q0 27 10 50t27 40t41 28t50 10q27 0 50-10t40-27t28-41t10-50q0-27-10-50t-27-40t-41-28t-50-10m-416 800q0-26 19-45l192-192q19-19 45-19t45 19l141 141h294q26 0 45-19t19-45t-19-45t-45-19h-192q-26 0-45-19l-275-275l-403 403q-18 18-31 36t-14 47q0 26 12 44t29 35l132 132q19 19 19 45v320q0 26 19 45t45 19t45-19t19-45v-422l-77-77q-19-19-19-45"/></symbol><symbol id="hd-icon-fluent-mdl2-d-o-m" viewBox="0 0 2048 2048"><path fill="currentColor" d="M1536 1280h-512v-256H640v512h384v-128h512v512h-512v-256H512V512H384V0h512v512H640v384h384V768h512zm-398-398v284h284V882zM498 398h284V114H498zm640 1124v284h284v-284z"/></symbol><symbol id="hd-icon-fluent-mdl2-d-r-m" viewBox="0 0 2048 2048"><path fill="currentColor" d="M960 0q132 0 255 34t229 97t194 150t150 194t97 230t35 255t-34 255t-97 229t-150 194t-194 150t-230 97t-255 35t-255-34t-229-97t-194-150t-150-194t-97-229T0 960q0-132 34-255t97-229t150-194t194-150t229-97T960 0m576 896H384v128h1152z"/></symbol><symbol id="hd-icon-fluent-mdl2-dashboard-add" viewBox="0 0 2048 2048"><path fill="currentColor" d="M1196 436q-115-52-239-52q-79 0-152 20t-137 59t-116 90t-89 117t-58 137t-21 153q0 115 44 220t125 187l-91 91q-100-100-153-228t-53-270q0-97 25-187t71-168t110-142t142-109t168-71t188-25q75 0 147 15t141 47zm241 844q48-71 73-152t25-167q0-62-13-121t-38-116l116-52q31 68 46 140t16 148q0 84-19 164t-57 156zM128 960q0 115 30 221t84 198t130 169t168 130t199 84t221 30q166 0 320-64v136q-154 56-320 56q-132 0-254-34t-230-97t-194-150t-150-195t-97-229T0 960q0-132 34-254t97-230t150-194t195-150t229-97T960 0q132 0 254 34t230 97t194 150t150 195t97 229t35 255q0 166-56 320h-136q64-154 64-320q0-115-30-221t-84-198t-130-169t-168-130t-199-84t-221-30q-115 0-221 30t-198 84t-169 130t-130 168t-84 199t-30 221m1004-84q20 40 20 84q0 40-15 75t-41 61t-61 41t-75 15t-75-15t-61-41t-41-61t-15-75t15-75t41-61t61-41t75-15q43 0 83 19l368-368l90 90zm-172 148q26 0 45-19t19-45t-19-45t-45-19t-45 19t-19 45t19 45t45 19m1088 640v128h-256v256h-128v-256h-256v-128h256v-256h128v256z"/></symbol><symbol id="hd-icon-fluent-mdl2-data-connection-library" viewBox="0 0 2048 2048"><path fill="currentColor" d="m1627 640l421 421v987H896V640zm37 384h165l-165-165zm256 896v-768h-384V768h-512v1152zm-768-640h128v512h-128zm256 256h128v256h-128zm256-128h128v384h-128zM608 128q45 0 77 9t58 24t46 31t40 31t44 23t55 10h992q27 0 50 10t40 27t28 41t10 50v451l-128-128V384H928q-31 0-54 9t-44 24t-41 31t-45 31t-58 23t-78 10H128v1152h640v128H0V256q0-27 10-50t27-40t41-28t50-10zm0 256q24 0 42-4t33-13t29-20t32-27q-17-15-31-26t-30-20t-33-13t-42-5H128v128z"/></symbol><symbol id="hd-icon-fluent-mdl2-data-management-settings" viewBox="0 0 2048 2048"><path fill="currentColor" d="M960 1796q48 0 98-3q25 66 62 123q-40 4-80 6t-80 2q-134 0-262-22q-37-6-84-17t-96-29t-96-41t-84-55t-59-69t-23-87V452q0-45 19-80t51-66q34-34 81-60t103-45t115-33t119-21t114-11t102-4q72 0 159 8t175 27t167 54t133 85q31 29 50 66t20 80v572h-128V642q-60 37-131 62t-147 40t-152 21t-146 7q-69 0-145-6t-153-22t-147-40t-131-62v962q0 20 14 37t29 28q47 37 114 61t142 39t147 21t130 6m0-1536q-51 0-106 3t-112 12t-110 22t-101 33q-15 6-40 18t-49 29t-41 35t-17 40q0 8 3 15t8 14q22 32 63 57t92 43t108 30t113 19t104 11t85 3q35 0 84-3t105-10t112-20t109-30t91-42t64-58q5-7 8-14t3-15q0-21-17-40t-41-35t-49-28t-40-19q-47-19-101-32t-110-22t-111-12t-107-4m954 1279q6 30 6 61t-6 61l124 51l-49 119l-124-52q-35 51-86 86l52 124l-119 49l-51-124q-30 6-61 6t-61-6l-51 124l-119-49l52-124q-51-35-86-86l-124 52l-49-119l124-51q-6-30-6-61t6-61l-124-51l49-119l124 52q35-51 86-86l-52-124l119-49l51 124q30-6 61-6t61 6l51-124l119 49l-52 124q51 35 86 86l124-52l49 119zm-314 253q40 0 75-15t61-41t41-61t15-75t-15-75t-41-61t-61-41t-75-15t-75 15t-61 41t-41 61t-15 75t15 75t41 61t61 41t75 15"/></symbol><symbol id="hd-icon-fluent-mdl2-database" viewBox="0 0 2048 2048"><path fill="currentColor" d="M960 128q72 0 159 8t175 27t167 54t133 85q31 29 50 66t20 80v1152q0 45-19 80t-51 66q-52 51-131 84t-168 54t-177 28t-158 8q-72 0-159-8t-175-27t-167-54t-133-85q-31-29-50-66t-20-80V448q0-45 19-80t51-66q52-51 131-84t168-54t177-28t158-8m0 128q-51 0-106 3t-112 12t-109 22t-102 33q-15 6-40 18t-49 29t-41 35t-17 40q0 8 3 15t8 14q21 32 60 56t89 42t106 30t111 20t107 11t92 4q40 0 91-3t107-11t112-20t105-31t89-42t61-56q5-7 8-14t3-15q0-20-17-39t-41-36t-49-28t-40-19q-48-19-101-32t-110-22t-111-12t-107-4m0 1536q51 0 106-3t112-12t109-22t102-33q15-6 40-18t49-29t41-35t17-40V638q-57 37-129 62t-149 40t-155 21t-143 7q-66 0-143-6t-155-22t-149-40t-129-62v962q0 20 17 39t41 36t49 28t40 19q48 20 101 33t110 21t111 12t107 4"/></symbol><symbol id="hd-icon-fluent-mdl2-database-sync" viewBox="0 0 2048 2048"><path fill="currentColor" d="M252 569q-32-12-63-26t-61-33v706q0 19 14 37t35 33t43 26t36 18v136q-41-15-86-37t-83-52t-62-71t-25-90V320q0-48 22-86t60-70t84-54t96-41t96-29t84-18Q570 0 704 0q47 0 110 4t133 16t140 29t131 47t107 66t69 90q-50-9-99-15t-100-10q-51-28-112-47t-127-30t-130-17t-122-5q-58 0-129 5t-143 20t-138 37t-115 59q-17 12-34 30t-17 41q0 26 24 48t56 41t66 32t53 19q-23 24-42 51t-33 58m836 455q-68 0-144-6t-153-22t-149-41t-130-61v706q0 23 18 44t48 38t66 32t72 26t64 18t46 11q49 9 98 14t100 8v128q-44-2-108-9t-136-22t-142-39t-127-59t-92-82t-35-108V704q0-47 22-86t58-69t83-54t95-41t96-29t83-18q66-12 133-17t134-6q67 0 134 5t133 18q36 7 83 18t95 28t95 41t83 54t59 70t22 86v320h-128V894q-59 36-130 61t-148 40t-153 22t-145 7m0-512q-57 0-130 6t-148 20t-143 40t-115 63q-14 11-27 27t-13 36q0 19 13 35t27 28q46 38 114 63t143 39t148 21t131 6q57 0 130-6t148-20t143-40t114-63q14-11 27-27t14-36q0-19-13-35t-28-28q-46-38-114-63t-142-39t-148-21t-131-6m832 640h128v384h-384v-128h190q-45-60-112-94t-142-34q-59 0-111 20t-95 55t-70 85t-38 107l-127-22q14-81 54-149t98-118t133-78t156-28q91 0 174 35t146 102zm-320 768q59 0 111-20t95-55t70-85t39-107l126 22q-14 81-54 149t-98 118t-133 78t-156 28q-91 0-174-35t-146-102v137h-128v-384h384v128h-190q45 60 112 94t142 34"/></symbol><symbol id="hd-icon-fluent-mdl2-database-view" viewBox="0 0 2048 2048"><path fill="currentColor" d="M256 1280v-128h1152v128zM384 0h1664v1536h-256v-128h128V384H384zm1536 256V128H512v128zM0 2048V512h1664v1536zM128 640v128h1408V640zm0 256v1024h1408V896z"/></symbol><symbol id="hd-icon-fluent-mdl2-dataflows" viewBox="0 0 2048 2048"><path fill="currentColor" d="M1280 0h640v640h-256v512H512v256h256v640H128v-640h256V640H128V0h640v640H512v384h1024V640h-256zM256 512h384V128H256zm384 1408v-384H256v384zM1792 512V128h-384v384z"/></symbol><symbol id="hd-icon-fluent-mdl2-dataflows-link" viewBox="0 0 2048 2048"><path fill="currentColor" d="M2048 1728q0 66-25 124t-68 102t-102 69t-125 25h-256q-67 0-125-25t-101-68t-69-102t-25-125q0-57 19-109t53-93t81-71t103-41v133q-58 21-93 69t-35 112q0 40 15 75t41 61t61 41t75 15h256q40 0 75-15t61-41t41-61t15-75q0-65-37-113t-97-70q6-36 6-73q0-15-1-29t-3-29q57 12 104 40t82 70t54 93t20 111M384 1024v384h256v640H0v-640h256V640H0V0h640v640H384v256h1024V640h-256V0h640v640h-256v384zm896-512h384V128h-384zm-1152 0h384V128H128zm384 1024H128v384h384zm384-64q0 65 37 113t97 70q-6 36-6 73q0 15 1 29t3 29q-56-9-104-38t-82-71t-54-96t-20-109q0-66 25-124t68-102t102-69t125-25h256q66 0 124 25t101 69t69 102t26 124q0 54-20 105t-56 94t-81 72t-99 43v-133q42-9 67-23t38-36t18-52t5-70t-15-75t-41-61t-61-41t-75-15h-256q-40 0-75 15t-61 41t-41 61t-15 75"/></symbol><symbol id="hd-icon-fluent-mdl2-date-time" viewBox="0 0 2048 2048"><path fill="currentColor" d="M1792 993q60 41 107 93t81 114t50 131t18 141q0 119-45 224t-124 183t-183 123t-224 46q-91 0-176-27t-156-78t-126-122t-85-157H128V128h256V0h128v128h896V0h128v128h256zM256 256v256h1408V256h-128v128h-128V256H512v128H384V256zm643 1280q-3-31-3-64q0-86 24-167t73-153h-97v-128h128v86q41-51 91-90t108-67t121-42t128-15q100 0 192 33V640H256v896zm573 384q93 0 174-35t142-96t96-142t36-175q0-93-35-174t-96-142t-142-96t-175-36q-93 0-174 35t-142 96t-96 142t-36 175q0 93 35 174t96 142t142 96t175 36m64-512h192v128h-320v-384h128zM384 1024h128v128H384zm256 0h128v128H640zm0-256h128v128H640zm-256 512h128v128H384zm256 0h128v128H640zm384-384H896V768h128zm256 0h-128V768h128zm256 0h-128V768h128z"/></symbol><symbol id="hd-icon-fluent-mdl2-date-time-12" viewBox="0 0 2048 2048"><path fill="currentColor" d="M1707 911q78 37 141 93t108 127t68 152t24 168q0 123-47 232t-128 190t-190 128t-232 47q-87 0-168-24t-151-68t-127-107t-94-142H0V171h341V0h171v171h683V0h170v171h342zM171 512h1365V341H171zm688 1024q-6-42-6-85q0-124 47-233t128-190t190-128t233-47q43 0 85 6V683H171v853zm592 341q88 0 165-33t136-92t91-135t34-166q0-88-33-166t-91-136t-136-91t-166-34q-89 0-166 33t-136 92t-91 136t-34 166q0 89 33 166t92 135t136 91t166 34m85-512h171v171h-342v-341h171z"/></symbol><symbol id="hd-icon-fluent-mdl2-date-time-2" viewBox="0 0 2048 2048"><path fill="currentColor" d="M1792 993q60 41 107 93t81 114t50 131t18 141q0 119-45 224t-124 183t-183 123t-224 46q-91 0-176-27t-156-78t-126-122t-85-157H128V128h256V0h128v128h896V0h128v128h256zM256 256v256h1408V256h-128v128h-128V256H512v128H384V256zm643 1280q-3-31-3-64q0-119 45-224t124-183t183-123t224-46q100 0 192 33V640H256v896zm573 384q93 0 174-35t142-96t96-142t36-175q0-93-35-174t-96-142t-142-96t-175-36q-93 0-174 35t-142 96t-96 142t-36 175q0 93 35 174t96 142t142 96t175 36m64-512h192v128h-320v-384h128z"/></symbol><symbol id="hd-icon-fluent-mdl2-date-time-mirrored" viewBox="0 0 2048 2048"><path fill="currentColor" d="M1792 993q60 41 107 93t81 114t50 131t18 141q0 119-45 224t-124 183t-183 123t-224 46q-91 0-176-27t-156-78t-126-122t-85-157H128V128h256V0h128v128h896V0h128v128h256zM256 256v256h1408V256h-128v128h-128V256H512v128H384V256zm643 1280q-3-31-3-64q0-86 24-167t73-153h-97v-128h128v86q41-51 91-90t108-67t121-42t128-15q100 0 192 33V640H256v896zm573 384q93 0 174-35t142-96t96-142t36-175q0-93-35-174t-96-142t-142-96t-175-36q-93 0-174 35t-142 96t-96 142t-36 175q0 93 35 174t96 142t142 96t175 36m64-512h192v128h-320v-384h128zM384 1024h128v128H384zm256 0h128v128H640zm0-256h128v128H640zm0 512h128v128H640zm384-384H896V768h128zm256 0h-128V768h128zM384 768h128v128H384z"/></symbol><symbol id="hd-icon-fluent-mdl2-deactivate-orders" viewBox="0 0 2048 2048"><path fill="currentColor" d="m1819 1728l226 227l-90 90l-227-226l-227 227l-90-91l227-227l-227-227l90-90l227 227l227-227l90 91zM512 640H384V512h128zm0 256H384V768h128zm-128 128h128v128H384zm-128 896h1024v128H128V0h1115l549 549v731h-128V640h-512V128H256zM1280 512h293l-293-293zm-256 128H640V512h384zm0 256H640V768h384zm-384 128h384v128H640z"/></symbol><symbol id="hd-icon-fluent-mdl2-decimals" viewBox="0 0 2048 2048"><path fill="currentColor" d="M465 265q90 0 155 32t110 85t72 124t43 147t20 154t5 147q0 71-7 150t-25 157t-48 149t-79 126t-116 86t-159 33q-86 0-150-31t-109-82t-75-120t-46-142t-23-150t-7-142q0-73 6-155t23-162t47-154t80-130t118-89t165-33m-16 1285q67 0 115-29t82-78t53-111t30-127t14-126t3-111q0-48-2-110t-12-129t-28-131t-51-115t-80-82t-116-31q-71 0-121 31t-84 81t-54 116t-31 132t-14 132t-3 116t3 111t13 125t30 124t53 108t82 75t118 29m574-116q44 0 73 29t30 74q0 21-8 39t-22 32t-33 22t-40 8q-44 0-72-28t-29-73q0-44 28-73t73-30m594-1169q90 0 155 32t110 85t72 124t43 147t20 154t5 147q0 71-7 150t-25 157t-48 149t-79 126t-116 86t-159 33q-86 0-150-31t-109-82t-75-120t-46-142t-23-150t-7-142q0-73 6-155t23-162t47-154t80-130t118-89t165-33m-16 1285q67 0 115-29t82-78t53-111t30-127t14-126t3-111q0-48-2-110t-12-129t-28-131t-51-115t-80-82t-116-31q-71 0-121 31t-84 81t-54 116t-31 132t-14 132t-3 116t3 111t13 125t30 124t53 108t82 75t118 29"/></symbol><symbol id="hd-icon-fluent-mdl2-decision-solid" viewBox="0 0 2048 2048"><path fill="currentColor" d="M490 1343q-25 0-48-10t-42-28L37 942Q0 905 0 852q0-27 10-50t27-40t41-27t50-10t49 9t42 28l362 362q18 18 27 41t10 50q0 26-10 49t-27 41t-41 28t-50 10m724-724q-25 0-48-10t-42-28L762 219q-38-38-38-91q0-27 10-50t27-40t41-28t50-10q53 0 90 37l363 363q18 18 27 41t10 50q0 26-10 49t-27 41t-41 28t-50 10m-520 391L332 648l316-316l362 362zm1244 838q19 19 19 45t-19 45t-45 19t-45-19L897 988l91-91zM0 1920h1024v128H0zm128-256h768v128H128z"/></symbol><symbol id="hd-icon-fluent-mdl2-decline-call" viewBox="0 0 2048 2048"><path fill="currentColor" d="M1024 512q75 0 159 8t171 25t171 44t164 64t145 86t119 109q43 51 69 111t26 129v128q0 40-15 75t-41 61t-61 41t-75 15h-256q-40 0-75-15t-61-41t-41-61t-15-75v-128q0-26-19-45t-45-19H704q-26 0-45 19t-19 45v128q0 40-15 75t-41 61t-61 41t-75 15H192q-40 0-75-15t-61-41t-41-61t-15-75v-128q0-68 26-128t69-112q51-60 118-108t146-86t163-64t172-44t170-26t160-8m896 576q0-52-25-98t-63-85t-85-69t-87-53q-70-37-148-64t-161-44t-165-26t-162-9q-79 0-162 8t-165 26t-160 45t-149 64q-41 22-87 52t-84 69t-64 85t-25 99v128q0 26 19 45t45 19h256q26 0 45-19t19-45v-128q0-40 15-75t41-61t61-41t75-15h640q40 0 75 15t61 41t41 61t15 75v128q0 26 19 45t45 19h256q26 0 45-19t19-45z"/></symbol><symbol id="hd-icon-fluent-mdl2-decrease-indent" viewBox="0 0 2048 2048"><path fill="currentColor" d="M128 128h1792v128H128zm0 1664v-128h1792v128zM1152 768V640h768v128zm0 512v-128h768v128zM317 643l90 90l-163 163h646v128H244l163 163l-90 90L0 960z"/></symbol><symbol id="hd-icon-fluent-mdl2-decrease-indent-arrow" viewBox="0 0 2048 2048"><path fill="currentColor" d="M896 896v128H250l163 163l-90 90L6 960l317-317l90 90l-163 163z"/></symbol><symbol id="hd-icon-fluent-mdl2-decrease-indent-arrow-mirrored" viewBox="0 0 2048 2048"><path fill="currentColor" d="m1731 643l317 317l-317 317l-90-90l163-163h-646V896h646l-163-163z"/></symbol><symbol id="hd-icon-fluent-mdl2-decrease-indent-legacy" viewBox="0 0 2048 2048"><path fill="currentColor" d="M1024 384h1024v128H1024zm0 1152v-128h1024v128zm0-512V896h1024v128zm768-384v128h-768V640zm0 512v128h-768v-128zM413 733L250 896h646v128H250l163 163l-90 90L6 960l317-317z"/></symbol><symbol id="hd-icon-fluent-mdl2-decrease-indent-mirrored" viewBox="0 0 2048 2048"><path fill="currentColor" d="M1920 128v128H128V128zM128 1792v-128h1792v128zM896 640v128H128V640zm0 512v128H128v-128zm835 125l-90-90l163-163h-646V896h646l-163-163l90-90l317 317z"/></symbol><symbol id="hd-icon-fluent-mdl2-decrease-indent-text" viewBox="0 0 2048 2048"><path fill="currentColor" d="M1792 640v128h-768V640zm0 512v128h-768v-128zm-768-768h1024v128H1024zm0 640V896h1024v128zm0 512v-128h1024v128z"/></symbol><symbol id="hd-icon-fluent-mdl2-decrease-indent-text-mirrored" viewBox="0 0 2048 2048"><path fill="currentColor" d="M256 1280v-128h768v128zM0 1536v-128h1024v128zM0 384h1024v128H0zm0 640V896h1024v128zm256-256V640h768v128z"/></symbol><symbol id="hd-icon-fluent-mdl2-default-ratio" viewBox="0 0 2048 2048"><path fill="currentColor" d="M640 860q-29 17-61 26t-67 10V768q27 0 50-10t40-27t28-41t10-50h128v640H640zm640 0q-29 17-61 26t-67 10V768q27 0 50-10t40-27t28-41t10-50h128v640h-128zm-320 36q-26 0-45-19t-19-45t19-45t45-19t45 19t19 45t-19 45t-45 19m0 256q-26 0-45-19t-19-45t19-45t45-19t45 19t19 45t-19 45t-45 19M1920 0v1920H0V0zm-128 128H128v1664h1664z"/></symbol><symbol id="hd-icon-fluent-mdl2-defect-solid" viewBox="0 0 2048 2048"><path fill="currentColor" d="M1192 42q107 37 194 102t149 152t95 191t34 217q0 144-55 267t-156 226q-71 73-113 155t-53 184H633q-11-102-52-184t-113-154q-100-103-156-226t-56-268q0-97 25-187t71-169t110-142T604 96t168-71T960 0q11 0 21 1t22 3L623 384l448 448l-263 263l113 114l376-377l-448-448zM640 1664h640v192q0 40-15 75t-41 61t-61 41t-75 15H832q-40 0-75-15t-61-41t-41-61t-15-75z"/></symbol><symbol id="hd-icon-fluent-mdl2-delete" viewBox="0 0 2048 2048"><path fill="currentColor" d="M1792 384h-128v1472q0 40-15 75t-41 61t-61 41t-75 15H448q-40 0-75-15t-61-41t-41-61t-15-75V384H128V256h512V128q0-27 10-50t27-40t41-28t50-10h384q27 0 50 10t40 27t28 41t10 50v128h512zM768 256h384V128H768zm768 128H384v1472q0 26 19 45t45 19h1024q26 0 45-19t19-45zM768 1664H640V640h128zm256 0H896V640h128zm256 0h-128V640h128z"/></symbol><symbol id="hd-icon-fluent-mdl2-delete-columns" viewBox="0 0 2048 2048"><path fill="currentColor" d="M640 0h640v1092l-320 319l-320-320zm1280 0v1024h-512V896h384V0zM128 896h384v128H0V0h128zm1149 606l-226 226l226 227l-90 90l-227-226l-227 227l-90-91l227-227l-227-227l90-90l227 227l227-227z"/></symbol><symbol id="hd-icon-fluent-mdl2-delete-rows" viewBox="0 0 2048 2048"><path fill="currentColor" d="M896 128H0V0h1024v512H896zm515 832l-320 320H0V640h1092zm-515 448h128v512H0v-128h896zm1059-131l-227-227l-227 227l-90-90l227-227l-227-227l91-90l226 226l227-226l90 90l-226 227l227 227z"/></symbol><symbol id="hd-icon-fluent-mdl2-delete-rows-mirrored" viewBox="0 0 2048 2048"><path fill="currentColor" d="M1150 128h896V0H1022v512h128zM635 960l320 320h1091V640H954zm515 448h-128v512h1024v-128h-896zM91 1277l227-227l227 227l90-90l-227-227l227-227l-91-90l-226 226L91 643L1 733l226 227L0 1187z"/></symbol><symbol id="hd-icon-fluent-mdl2-delete-table" viewBox="0 0 2048 2048"><path fill="currentColor" d="m1819 1728l227 227l-91 90l-227-227l-227 227l-90-90l227-227l-227-227l91-90l226 226l227-226l90 90zm226 0l3-3v6zm3-1600v1152h-642l-126 126v-126H768v384h512v128H0V128zM640 1280H128v384h512zm0-512H128v384h512zm0-512H128v384h512zm640 512H768v384h512zm0-512H768v384h512zm640 512h-512v384h512zm0-512h-512v384h512z"/></symbol><symbol id="hd-icon-fluent-mdl2-delivery-truck" viewBox="0 0 2048 2048"><path fill="currentColor" d="M2048 1536h-524q-10 29-28 52t-41 40t-52 26t-59 10q-30 0-58-9t-52-26t-42-40t-28-53H628q-10 29-28 52t-41 40t-52 26t-59 10q-30 0-58-9t-52-26t-42-40t-28-53H0V384h1408v128h360l280 561zM128 1408h140q10-28 28-52t41-40t52-26t59-10t58 9t52 26t42 41t28 52h536q14-41 44-71t72-45V512H128zm320 128q26 0 45-19t19-45t-19-45t-45-19t-45 19t-19 45t19 45t45 19m896 0q26 0 45-19t19-45t-19-45t-45-19t-45 19t-19 45t19 45t45 19m576-433l-232-463h-280v652q41 14 71 44t45 72h396z"/></symbol><symbol id="hd-icon-fluent-mdl2-dependency-add" viewBox="0 0 2048 2048"><path fill="currentColor" d="M128 512v640h512v128H0V384h1280v512h-128V512zm640 1408v-896h1280v896zm128-768v640h1024v-640zm384-1023V0h257q51 0 98 19t84 56q36 36 55 83t20 99v294l164-162l90 90l-318 318l-319-318l91-90l164 162V257q0-27-10-50t-27-41t-41-27t-51-10z"/></symbol><symbol id="hd-icon-fluent-mdl2-dependency-remove" viewBox="0 0 2048 2048"><path fill="currentColor" d="M128 512v640h512v128H0V384h1280v512h-128V512zm640 1408v-896h1280v896zm128-768v640h1024v-640zM2048 92l-228 228l228 228l-91 92l-229-229l-228 229l-92-91l229-229l-229-229l92-91l228 229L1957 0z"/></symbol><symbol id="hd-icon-fluent-mdl2-deploy" viewBox="0 0 2048 2048"><path fill="currentColor" d="m960 870l301 301l-90 90l-147-146v677H896v-677l-147 146l-90-90zM768 128h512v512H768zm128 384h256V256H896zM128 128h512v512H128zm1792 0v512h-512V128z"/></symbol><symbol id="hd-icon-fluent-mdl2-descending" viewBox="0 0 2048 2048"><path fill="currentColor" d="M1728 896h-512l320-640h-320V128h512l-320 640h320zM512 1638l163-163l90 90l-317 318l-317-318l90-90l163 163V128h128zm1152 154l-43-128h-298l-43 128h-128l256-768h128l256 768zm-299-256h214l-107-320z"/></symbol><symbol id="hd-icon-fluent-mdl2-design" viewBox="0 0 2048 2048"><path fill="currentColor" d="M1280 128h768v1920H0V37l1280 1280zM128 1920h1573L128 347zm1627-128l128 128h37V256h-512v128h256v128h-256v128h256v128h-256v128h384v128h-384v128h256v128h-256v128h256v128h-165l128 128h165v128zM384 1061l603 603H384zm128 310v165h165z"/></symbol><symbol id="hd-icon-fluent-mdl2-desktop-screenshot" viewBox="0 0 2048 2048"><path fill="currentColor" d="M1152 1536v128h256v128H768v-128h256v-128H128v-384h128v256h1664V512h-512V384h640v1152zm128-512H0V128h293L421 0h438l128 128h293zm-128-768H933L805 128H475L347 256H128v640h1024zm-512 0q53 0 99 20t82 55t55 81t20 100q0 53-20 99t-55 82t-81 55t-100 20q-53 0-99-20t-82-55t-55-81t-20-100q0-53 20-99t55-82t81-55t100-20m0 384q27 0 50-10t40-27t28-41t10-50q0-27-10-50t-27-40t-41-28t-50-10q-27 0-50 10t-40 27t-28 41t-10 50q0 27 10 50t27 40t41 28t50 10"/></symbol><symbol id="hd-icon-fluent-mdl2-developer-tools" viewBox="0 0 2048 2048"><path fill="currentColor" d="M1664 1152h-128v704q0 40-15 75t-41 61t-61 41t-75 15t-75-15t-61-41t-41-61t-15-75v-704h-128v-128h256V475l-128-128V0h384v347l-128 128v549h256zm-384-859l64 65l64-65V128h-128zm128 859h-128v704q0 26 19 45t45 19t45-19t19-45zM704 0q66 0 124 25t101 69t69 102t26 124q0 75-34 142t-94 113v1281q0 40-15 75t-41 61t-61 41t-75 15t-75-15t-61-41t-41-61t-15-75V575q-60-45-94-112t-34-143q0-66 25-124t68-101t102-69T704 0m64 504q28-16 51-34t41-39t26-49t10-62q0-30-9-58t-26-52t-41-42t-52-28v180l-64 64l-64-64V140q-29 10-52 28t-40 42t-26 52t-10 58q0 35 9 62t27 48t40 40t52 34v1352q0 26 19 45t45 19t45-19t19-45z"/></symbol><symbol id="hd-icon-fluent-mdl2-device-bug" viewBox="0 0 2048 2048"><path fill="currentColor" d="M1792 1627v74l237 238l-90 90l-174-173q-19 44-49 79t-68 60t-83 39t-93 14t-92-13t-83-39t-69-61t-49-79l-174 173l-90-90l237-238v-48q0-39 2-73t10-68t26-65t47-64q-21-48-21-103q0-46 16-89t46-78l-107-108l90-90l124 124q42-15 87-15t87 15l124-124l90 90l-107 108q30 35 46 78t16 89q0 55-21 103q37 41 58 89l174-173l90 90zm-192-347q0-27-10-50t-27-40t-41-28t-50-10q-27 0-50 10t-40 27t-28 41t-10 50q0 13 3 26q29-14 61-20t64-6t64 6t61 20q3-13 3-26m80 448v-128q0-43-16-81t-45-66t-66-44t-81-17q-43 0-81 16t-66 45t-44 66t-17 81v128q0 43 16 81t45 66t66 44t81 17q43 0 81-16t66-45t44-66t17-81m-656-64H640v-128h256v-128H0V256h1920v512h-128V384H128v896h896z"/></symbol><symbol id="hd-icon-fluent-mdl2-device-off" viewBox="0 0 2048 2048"><path fill="currentColor" d="M128 384v896h957q-19 30-33 62t-26 66h-2v7q-2 12-6 24t-8 24q-8 34-13 68t-5 69q0 16 2 32t4 32H640v-128h256v-128H0V256h1920v829q-30-19-62-33t-66-26V384zm1472 768q93 0 174 35t143 96t96 142t35 175q0 93-35 174t-96 143t-142 96t-175 35q-93 0-174-35t-143-96t-96-142t-35-175q0-93 35-174t96-143t142-96t175-35m-320 448q0 66 25 124t68 102t102 69t125 25q47 0 92-13t84-40l-443-443q-26 39-39 84t-14 92m587 176q26-39 39-84t14-92q0-66-25-124t-69-101t-102-69t-124-26q-47 0-92 13t-84 40z"/></symbol><symbol id="hd-icon-fluent-mdl2-device-run" viewBox="0 0 2048 2048"><path fill="currentColor" d="M128 384v896h1024v128h-128v128h128v128H640v-128h256v-128H0V256h1920v1093l-128-76V384zm1152 768l747 448l-747 448zm128 226v444l370-222z"/></symbol><symbol id="hd-icon-fluent-mdl2-devices-2" viewBox="0 0 2048 2048"><path fill="currentColor" d="M2048 1663q0 27-10 50t-27 41t-41 28t-50 10H896q-27 0-50-10t-40-27t-28-41t-10-50v-128H122q-25 0-47-9t-39-26t-26-39t-10-48q0-35 11-70t36-61l209-220V256h1408v512h256q26 0 49 10t40 27t28 40t11 49zM768 1408v-256H348l-206 217q-6 7-9 18t-5 21zm0-512q0-27 10-50t27-40t41-28t50-10h640V384H384v640h384zm1152 768V896H896v768zm-640-256h256v128h-256z"/></symbol><symbol id="hd-icon-fluent-mdl2-devices-3" viewBox="0 0 2048 2048"><path fill="currentColor" d="M256 384h1664v1024h-768v128h256v128H768v-128h256v-128H640v256H128V896h128zm256 1152v-512H256v512zm128-256h1152V512H384v384h256z"/></symbol><symbol id="hd-icon-fluent-mdl2-devices-4" viewBox="0 0 2048 2048"><path fill="currentColor" d="M2048 1664h-256v256H896v-256H640v-640q0-27 10-50t27-40t41-28t50-10h128V512h640V256H384v640h162q-34 60-34 128H347l-211 211q-8 8-8 19t7 18t19 8h358v128H154q-32 0-60-12t-49-33t-33-49t-12-60q0-31 11-59t34-51l211-211V128h1408v384h128v384h128q27 0 50 10t40 27t28 41t10 50zM1024 896h640V640h-640zm640 640h-640v256h640zm256-512H768v512h128v-128h896v128h128zm-960 256q-26 0-45-19t-19-45t19-45t45-19t45 19t19 45t-19 45t-45 19"/></symbol><symbol id="hd-icon-fluent-mdl2-diagnostic" viewBox="0 0 2048 2048"><path fill="currentColor" d="M1920 128v1792H128V128zM256 256v1024h150l109-109q19-19 45-19t45 19l177 176l244-947q5-21 22-34t40-14q23 0 40 13t22 36l102 417h156q22 0 39 13t23 35l72 286h250V256zm1536 1536v-512h-300q-23 0-40-13t-22-36l-72-285h-156q-23 0-40-13t-22-36l-54-218l-208 809q-5 21-22 34t-40 14q-26 0-45-19l-211-211l-83 83q-19 19-45 19H256v384z"/></symbol><symbol id="hd-icon-fluent-mdl2-diagnostic-data-bar-tooltip" viewBox="0 0 2048 2048"><path fill="currentColor" d="M128 0h1792v1792h-640l-256 256l-256-256H128zm1664 1664V128H256v1536h564l204 204l204-204zM768 640v896H512V640zm384 384v512H896v-512zm384-640v1152h-256V384z"/></symbol><symbol id="hd-icon-fluent-mdl2-dialpad" viewBox="0 0 2048 2048"><path fill="currentColor" d="M640 384H384V128h256zm512 0H896V128h256zm512 0h-256V128h256zM640 896H384V640h256zm512 0H896V640h256zm512 0h-256V640h256zM640 1408H384v-256h256zm512 0H896v-256h256zm0 512H896v-256h256zm512-512h-256v-256h256z"/></symbol><symbol id="hd-icon-fluent-mdl2-diamond" viewBox="0 0 2048 2048"><path fill="currentColor" d="m1928 829l-904 1113L120 829l537-573h734zm-666-61l-144-384H930L786 768zM779 896l245 858l245-858zm-93-512L327 768h343l144-384zM314 896l542 667l-191-667zm878 667l542-667h-351zm529-795l-359-384h-128l144 384z"/></symbol><symbol id="hd-icon-fluent-mdl2-diamond-solid" viewBox="0 0 2048 2048"><path fill="currentColor" d="m625 768l267-640h264l267 640zm971 0l-267-640h123l542 640zm-174 128l-398 946l-398-946zm575 0l-847 1058l446-1058zm-1545 0l446 1058L51 896zm0-128H54l540-640h125z"/></symbol><symbol id="hd-icon-fluent-mdl2-dictionary" viewBox="0 0 2048 2048"><path fill="currentColor" d="M1664 0v2048H256q-53 0-99-20t-82-55t-55-81t-20-100V256q0-49 21-95t57-82t82-57t96-22zm-128 1664H256q-27 0-50 10t-40 27t-28 41t-10 50q0 27 10 50t27 40t41 28t50 10h1280zm-1408-94q60-34 128-34h1280V128H256q-23 0-46 11t-41 30t-29 41t-12 46zM384 384h896v384H384zm128 256h640V512H512z"/></symbol><symbol id="hd-icon-fluent-mdl2-dictionary-remove" viewBox="0 0 2048 2048"><path fill="currentColor" d="M256 1920h766l128 128H256q-53 0-99-20t-82-55t-55-81t-20-100V256q0-49 21-95t58-82t82-57t95-22h1408v1219l-64 64l-64-64V128H256q-23 0-46 11t-41 30t-29 41t-12 46v1316q29-17 61-26t67-10h963l64 64l-64 64H256q-27 0-50 10t-40 27t-28 41t-10 50q0 27 10 50t27 40t41 28t50 10M1280 768H384V384h896zM512 512v128h640V512zm1469 797l-291 291l291 291l-90 90l-291-291l-291 291l-90-90l291-291l-291-291l90-90l291 291l291-291z"/></symbol><symbol id="hd-icon-fluent-mdl2-diet-plan-notebook" viewBox="0 0 2048 2048"><path fill="currentColor" d="M1668 129h124v1919H256V129h126V0h128v129h258V0h128v129h258V0h128v129h258V0h128zm-4 1791V257H384v1663zM1408 513v128H640V513zM640 1666v-128h768v128zm0-513v-128h768v128z"/></symbol><symbol id="hd-icon-fluent-mdl2-diff-inline" viewBox="0 0 2048 2048"><path fill="currentColor" d="M1792 0v2048H256V0zM384 128v384h1280V128zm1280 1408H384v384h1280zm0-256V640H384v640z"/></symbol><symbol id="hd-icon-fluent-mdl2-diff-side-by-side" viewBox="0 0 2048 2048"><path fill="currentColor" d="M0 384h896v1280H0zm768 1152V768H128v768zM128 512v128h640V512zm1920-128v1280h-896V384zm-128 896h-640v256h640zm0-768h-640v512h640z"/></symbol><symbol id="hd-icon-fluent-mdl2-disable-updates" viewBox="0 0 2048 2048"><path fill="currentColor" d="M1600 1152q93 0 174 35t143 96t96 142t35 175q0 93-35 174t-96 143t-142 96t-175 35q-93 0-174-35t-143-96t-96-142t-35-175q0-93 35-174t96-143t142-96t175-35m-320 448q0 66 25 124t68 102t102 69t125 25q47 0 92-13t84-40l-443-443q-26 39-39 84t-14 92m587 176q26-39 39-84t14-92q0-66-25-124t-69-101t-102-69t-124-26q-47 0-92 13t-84 40zM512 768H0V256h128v275q67-122 163-220t213-168T752 37t272-37q141 0 272 36t244 104t207 160t161 207t103 245t37 272q0 39-3 78t-10 77q-26-27-56-51t-62-45q1-15 2-29t1-30q0-123-32-237t-90-214t-141-182t-181-140t-214-91t-238-32q-129 0-250 36T547 267T358 428T218 640h294zm571 1149q20 32 44 62t52 56q-38 6-77 9t-78 4q-114 0-223-25t-209-71t-187-114t-159-150t-124-182t-84-209l123-34q40 145 123 265t198 208t253 135t289 49q15 0 29-1t30-2"/></symbol><symbol id="hd-icon-fluent-mdl2-disconnect-virtual-machine" viewBox="0 0 2048 2048"><path fill="currentColor" d="m1277 1501l-227 227l227 227l-90 90l-227-227l-227 227l-90-90l227-227l-227-227l90-90l227 227l227-227zm-669 163l64 64l-64 64H128v-128zm640 64l64-64h480v128h-480zM128 128h1664v1152h-768v96l-64 64l-64-64v-96H128zm1536 1024V256H256v896z"/></symbol><symbol id="hd-icon-fluent-mdl2-dislike" viewBox="0 0 2048 2048"><path fill="currentColor" d="M960 256q178 0 345 69q72 29 144 44t151 15h448v896h-417q-65 0-122 24t-104 70l-622 621q-25 25-50 39t-61 14q-33 0-62-12t-51-35t-34-51t-13-62q0-81 18-154t53-146q20-43 34-87t19-93H192q-39 0-74-15t-61-41t-42-61t-15-75q0-32 10-61l256-768q20-59 70-95t112-36zm960 256h-320q-179 0-345-69q-144-59-295-59H448q-20 0-37 12t-24 32q-5 14-18 54t-33 96t-42 124t-46 137t-44 134t-39 118t-27 86t-10 39q0 26 19 45t45 19h576q0 53-2 98t-10 89t-22 86t-37 91q-28 58-42 118t-15 126q0 14 9 23t23 9q6 0 10-4t9-9l623-624q32-32 68-56t78-41q80-34 171-34h289z"/></symbol><symbol id="hd-icon-fluent-mdl2-dislike-solid" viewBox="0 0 2048 2048"><path fill="currentColor" d="M960 256q178 0 345 69q72 29 144 44t151 15h448v896h-417q-65 0-122 24t-104 70l-622 621q-25 25-50 39t-61 14q-33 0-62-12t-51-35t-34-51t-13-62q0-81 18-154t53-146q20-43 34-87t19-93H192q-39 0-74-15t-61-41t-42-61t-15-75q0-32 10-61l256-768q20-59 70-95t112-36z"/></symbol><symbol id="hd-icon-fluent-mdl2-distribute-down" viewBox="0 0 2048 2048"><path fill="currentColor" d="m1747 1587l90 90l-365 365l-365-365l90-90l211 211v-774H512v774l211-211l90 90l-365 365l-365-365l90-90l211 211V896h512V0h128v896h512v902z"/></symbol><symbol id="hd-icon-fluent-mdl2-doc-library" viewBox="0 0 2048 2048"><path fill="currentColor" d="m1627 640l421 421v987H896V640zm37 384h165l-165-165zm256 896v-768h-384V768h-512v1152zM608 128q45 0 77 9t58 24t46 31t40 31t44 23t55 10h992q27 0 50 10t40 27t28 41t10 50v451l-128-128V384H928q-31 0-54 9t-44 24t-41 31t-45 31t-58 23t-78 10H128v1152h640v128H0V256q0-27 10-50t27-40t41-28t50-10zm0 256q24 0 42-4t33-13t29-20t32-27q-17-15-31-26t-30-20t-33-13t-42-5H128v128z"/></symbol><symbol id="hd-icon-fluent-mdl2-dock-left" viewBox="0 0 2048 2048"><path fill="currentColor" d="M0 384h2048v1152H0zm128 128v896h384V512zm1792 896V512H640v896z"/></symbol><symbol id="hd-icon-fluent-mdl2-dock-left-mirrored" viewBox="0 0 2048 2048"><path fill="currentColor" d="M2048 384H0v1152h2048zm-128 128v896h-384V512zM128 1408V512h1280v896z"/></symbol><symbol id="hd-icon-fluent-mdl2-dock-right" viewBox="0 0 2048 2048"><path fill="currentColor" d="M0 384h2048v1152H0zm128 128v896h1280V512zm1792 896V512h-384v896z"/></symbol><symbol id="hd-icon-fluent-mdl2-docker-logo" viewBox="0 0 2048 2048"><path fill="currentColor" d="M780 848v149h-14V848zm-53 0v149h-14V848zm-197-57V641h15v150zm144-150v150h-15V641zM504 791V641h14v150zm-27 0V641h15v150zm-26 0V641h14v150zm303 57v149h-15V848zm-54 0v149h-14V848zm0-207v150h-14V641zm54 0v150h-15V641zm-27 0v150h-14V641zm-53 207v149h-15V848zm106-207v150h-14V641zm27 207v149h-14V848zM270 997V848h15v149zm-26 0V848h14v149zm53 0V848h14v149zm260-206V641h14v150zM377 997V848h14v149zm207 0V848h14v149zm-260 0V848h14v149zm26 0V848h15v149zm101 0V848h14v149zm133-206V641h14v150zM477 997V848h15v149zm80 0V848h14v149zm-27 0V848h15v149zm-26 0V848h14v149zm303-356v150h-14V641zm129-207v150h-14V434zm-27 0v150h-14V434zm-26 207v150h-15V641zm0-207v150h-15V434zm133 0v150h-15V434zm-53 0v150h-15V434zm26 0v150h-14V434zm236 414v149h-15V848zm-107 0v149h-14V848zm-26 0v149h-15V848zm106 0v149h-14V848zm-53 0v149h-15V848zm26 0v149h-14V848zm-262 0v149h-14V848zm27 0v149h-14V848zm27 0v149h-15V848zm-80 0v149h-15V848zm26-207v150h-14V641zm107 0v150h-15V641zm-27 207v149h-14V848zm27 0v149h-15V848zm-27-207v150h-14V641zm-26 0v150h-15V641zm-27 0v150h-14V641zm-324 678q-7 5-7 13q0 6 4 10t10 5q10 0 13-8q3 6 3 14q0 15-10 25t-26 11q-15 0-25-10t-11-26q0-15 10-25t26-11q5 0 13 2m1435-454l-16 29q-22 40-52 67t-66 45t-76 24t-83 8h-13q-6 0-14-1q-69 169-175 292t-243 205t-297 120t-338 39q-134 0-256-39t-216-114t-148-186t-55-254q0-23 1-45t6-45h191V803h209V596h415V389h244v414h207v207h105q57 0 112-14t105-42q-27-34-39-76t-12-86q0-60 17-105t58-90q28 23 54 47t48 52t36 60t19 71q23-8 47-11t50-3q52 0 91 13t84 39M438 629v174h174V629zm211 724q0-21-14-35t-36-15q-21 0-35 14t-15 36q0 20 15 35t35 15t35-15t15-35M438 836v174h174V836zm-207 0v174h175V836zm444 826h28q14 0 29-2q-77-36-136-90t-94-133q-40 11-81 16t-83 8l-2 1q-25 1-49 1t-49 1q-19 0-37-1t-38-2q55 54 112 92t121 63t132 35t147 11m146-652V836H647v174zm0-207V629H647v174zm209 207V836H856v174zm0-207V629H856v174zm0-207V422H856v174zm209 414V836h-174v174z"/></symbol><symbol id="hd-icon-fluent-mdl2-document" viewBox="0 0 2048 2048"><path fill="currentColor" d="M549 0h1243v1755l-293 293H256V293zm1115 1701V128H603L384 347v1573h1061z"/></symbol><symbol id="hd-icon-fluent-mdl2-document-approval" viewBox="0 0 2048 2048"><path fill="currentColor" d="m2029 1453l-557 558l-269-270l90-90l179 178l467-466zm-877-813V128H256v1792h896v128H128V0h1115l549 549v731l-128 128V640zm128-128h293l-293-293z"/></symbol><symbol id="hd-icon-fluent-mdl2-document-management" viewBox="0 0 2048 2048"><path fill="currentColor" d="M1914 1539q6 30 6 61t-6 61l124 51l-49 119l-124-52q-35 51-86 86l52 124l-119 49l-51-124q-30 6-61 6t-61-6l-51 124l-119-49l52-124q-51-35-86-86l-124 52l-49-119l124-51q-6-30-6-61t6-61l-124-51l49-119l124 52q35-51 86-86l-52-124l119-49l51 124q30-6 61-6t61 6l51-124l119 49l-52 124q51 35 86 86l124-52l49 119zm-314 253q40 0 75-15t61-41t41-61t15-75t-15-75t-41-61t-61-41t-75-15t-75 15t-61 41t-41 61t-15 75t15 75t41 61t61 41t75 15M1152 640V128H256v1792h896v128H128V0h1115l549 549v475h-128V640zm128-128h293l-293-293z"/></symbol><symbol id="hd-icon-fluent-mdl2-document-reply" viewBox="0 0 2048 2048"><path fill="currentColor" d="M1792 1536q53 0 99 20t82 55t55 81t20 100q0 53-20 99t-55 82t-81 55t-100 20v-128q27 0 50-10t40-27t28-41t10-50q0-27-10-50t-27-40t-41-28t-50-10h-293l162 163l-90 90l-317-317l317-317l90 90l-162 163zm-445 384l128 128H128V0h1115l549 549v729l-128-128V640h-512V128H256v1792zm-67-1408h293l-293-293z"/></symbol><symbol id="hd-icon-fluent-mdl2-document-search" viewBox="0 0 2048 2048"><path fill="currentColor" d="M1664 896q79 0 149 30t122 82t82 123t30 149q0 80-30 149t-82 122t-122 83t-149 30q-60 0-117-18t-105-53l-437 436q-19 19-45 19t-45-19t-19-45t19-45l436-437q-35-48-53-105t-18-117q0-79 30-149t82-122t122-83t150-30m0 640q53 0 99-20t82-55t55-81t20-100q0-53-20-99t-55-82t-81-55t-100-20q-53 0-99 20t-82 55t-55 81t-20 100q0 53 20 99t55 82t81 55t100 20m-656 128l-128 128H256V0h859l549 549v219h-128V640h-512V128H384v1536zm144-1152h293l-293-293z"/></symbol><symbol id="hd-icon-fluent-mdl2-document-set" viewBox="0 0 2048 2048"><path fill="currentColor" d="M1792 1280h128v768H128V640h128V256h128V0h1408zM512 128v128h1024v1024h128V128zM384 384v256h347l640 640h37V384zm1408 1536v-512h-475L677 768H256v1152z"/></symbol><symbol id="hd-icon-fluent-mdl2-documentation" viewBox="0 0 2048 2048"><path fill="currentColor" d="M1920 512v1408H768v-256H512v-256H256V0h731l256 256h421v256zm-896-128h165l-165-165zm256 896V512H896V128H384v1152zm256 256V384h-128v1024H640v128zm257-896h-129v1024H896v128h897z"/></symbol><symbol id="hd-icon-fluent-mdl2-donut-chart" viewBox="0 0 2048 2048"><path fill="currentColor" d="M1024 128q123 0 237 32t214 90t182 141t140 181t91 214t32 238q0 123-32 237t-90 214t-141 182t-181 140t-214 91t-238 32q-123 0-237-32t-214-90t-182-141t-140-181t-91-214t-32-238q0-123 32-237t90-214t141-182t181-140t214-91t238-32m128 402q84 22 154 69t122 112t79 146t29 167h256q0-140-48-267t-133-228t-203-169t-256-93zm256 494q0-79-30-149t-82-122t-123-83t-149-30q-80 0-149 30t-122 82t-83 123t-30 149q0 80 30 149t82 122t122 83t150 30q79 0 149-30t122-82t83-122t30-150m-384 768q140 0 267-48t228-133t169-203t93-256h-263q-22 84-69 154t-112 122t-146 79t-167 29q-106 0-199-40t-162-110t-110-163t-41-199t40-199t110-162t163-110t199-41V256q-106 0-204 27t-183 78t-156 120t-120 155t-77 184t-28 204t27 204t78 183t120 156t155 120t184 77t204 28"/></symbol><symbol id="hd-icon-fluent-mdl2-door" viewBox="0 0 2048 2048"><path fill="currentColor" d="M1664 0v2048H384V0zm-128 128H512v1792h1024zm-192 1024q-26 0-45-19t-19-45t19-45t45-19t45 19t19 45t-19 45t-45 19"/></symbol><symbol id="hd-icon-fluent-mdl2-double-bookmark" viewBox="0 0 2048 2048"><path fill="currentColor" d="M1792 0v1767l-256-128v385l-640-320l-640 320V256h256V0zm-384 1816V384H384v1432l512-256zm256-256V128H640v128h896v1240z"/></symbol><symbol id="hd-icon-fluent-mdl2-double-chevron-down" viewBox="0 0 2048 2048"><path fill="currentColor" d="M2048 91L1024 1115L0 91L91 0l933 933L1957 0zM1024 1829l933-933l91 91l-1024 1024L0 987l91-91z"/></symbol><symbol id="hd-icon-fluent-mdl2-double-chevron-down-12" viewBox="0 0 2048 2048"><path fill="currentColor" d="m1024 1757l878-879l121 121l-999 999L25 999l121-121zm999-1611l-999 999L25 146L146 25l878 878l878-878z"/></symbol><symbol id="hd-icon-fluent-mdl2-double-chevron-down-8" viewBox="0 0 2048 2048"><path fill="currentColor" d="M1024 949L262 187L443 6l581 581L1605 6l181 181zm581 81l181 181l-762 762l-762-762l181-181l581 581z"/></symbol><symbol id="hd-icon-fluent-mdl2-double-chevron-left" viewBox="0 0 2048 2048"><path fill="currentColor" d="m2048 91l-933 933l933 933l-91 91L933 1024L1957 0zm-896 0l-933 933l933 933l-91 91L37 1024L1061 0z"/></symbol><symbol id="hd-icon-fluent-mdl2-double-chevron-left-12" viewBox="0 0 2048 2048"><path fill="currentColor" d="m1170 146l-879 878l879 878l-121 121l-999-999l999-999zm853 0l-878 878l878 878l-121 121l-999-999l999-999z"/></symbol><symbol id="hd-icon-fluent-mdl2-double-chevron-left-8" viewBox="0 0 2048 2048"><path fill="currentColor" d="m1461 1024l581 581l-181 181l-762-762l762-762l181 181zm-443-581l-581 581l581 581l-181 181l-762-762l762-762z"/></symbol><symbol id="hd-icon-fluent-mdl2-double-chevron-left-med" viewBox="0 0 2048 2048"><path fill="currentColor" d="m1170 146l-879 878l879 878l-121 121l-999-999l999-999zm853 0l-878 878l878 878l-121 121l-999-999l999-999z"/></symbol><symbol id="hd-icon-fluent-mdl2-double-chevron-left-med-mirrored" viewBox="0 0 2048 2048"><path fill="currentColor" d="m903 146l879 878l-879 878l121 121l999-999l-999-999zm-853 0l878 878l-878 878l121 121l999-999L171 25z"/></symbol><symbol id="hd-icon-fluent-mdl2-double-chevron-right" viewBox="0 0 2048 2048"><path fill="currentColor" d="m91 0l1024 1024L91 2048l-91-91l933-933L0 91zm896 0l1024 1024L987 2048l-91-91l933-933L896 91z"/></symbol><symbol id="hd-icon-fluent-mdl2-double-chevron-right-12" viewBox="0 0 2048 2048"><path fill="currentColor" d="m999 25l999 999l-999 999l-121-121l879-878l-879-878zm-853 0l999 999l-999 999l-121-121l878-878L25 146z"/></symbol><symbol id="hd-icon-fluent-mdl2-double-chevron-right-8" viewBox="0 0 2048 2048"><path fill="currentColor" d="m187 262l762 762l-762 762L6 1605l581-581L6 443zm1786 762l-762 762l-181-181l581-581l-581-581l181-181z"/></symbol><symbol id="hd-icon-fluent-mdl2-double-chevron-up" viewBox="0 0 2048 2048"><path fill="currentColor" d="M0 1957L1024 933l1024 1024l-91 91l-933-933l-933 933zM1024 219L91 1152l-91-91L1024 37l1024 1024l-91 91z"/></symbol><symbol id="hd-icon-fluent-mdl2-double-chevron-up-12" viewBox="0 0 2048 2048"><path fill="currentColor" d="m1024 291l-878 879l-121-121l999-999l999 999l-121 121zM25 1902l999-999l999 999l-121 121l-878-878l-878 878z"/></symbol><symbol id="hd-icon-fluent-mdl2-double-chevron-up-8" viewBox="0 0 2048 2048"><path fill="currentColor" d="m1024 1099l762 762l-181 181l-581-581l-581 581l-181-181zm-581-81L262 837l762-762l762 762l-181 181l-581-581z"/></symbol><symbol id="hd-icon-fluent-mdl2-double-column" viewBox="0 0 2048 2048"><path fill="currentColor" d="M0 1792V256h896v1536zM128 384v1280h640V384zm896-128h896v1536h-896zm768 1408V384h-640v1280z"/></symbol><symbol id="hd-icon-fluent-mdl2-double-column-edit" viewBox="0 0 2048 2048"><path fill="currentColor" d="m1152 1282l-128 129V256h896v490q-18-3-36-5t-36-2q-14 0-28 1t-28 4V384h-640zm-256 257l-50 51l-51 202H0V256h896zM768 384H128v1280h640zm1080 512q42 0 78 15t64 42t42 63t16 78q0 39-15 76t-43 65l-717 719l-377 94l94-377l717-718q28-28 65-42t76-15m51 249q21-21 21-51q0-31-20-50t-52-20q-14 0-27 4t-23 15l-692 694l-34 135l135-34z"/></symbol><symbol id="hd-icon-fluent-mdl2-double-down-arrow" viewBox="0 0 2048 2048"><path fill="currentColor" d="m512 1798l261-261l90 90l-415 415l-415-415l90-90l261 261V0h128zm1285-261l90 90l-415 415l-415-415l90-90l261 261V0h128v1798z"/></symbol><symbol id="hd-icon-fluent-mdl2-down" viewBox="0 0 2048 2048"><path fill="currentColor" d="m1965 1101l-941 941l-941-941l90-90l787 787V0h128v1798l787-787z"/></symbol><symbol id="hd-icon-fluent-mdl2-download" viewBox="0 0 2048 2048"><path fill="currentColor" d="M384 2048v-128h1152v128zm1197-979l-621 626l-621-626l90-90l467 470V0h128v1449l467-470z"/></symbol><symbol id="hd-icon-fluent-mdl2-download-document" viewBox="0 0 2048 2048"><path fill="currentColor" d="M256 1920h1024v128H128V0h1115l549 549v347h-128V640h-512V128H256zM1280 512h293l-293-293zm512 1061l163-162l90 90l-317 317l-317-317l90-90l163 162v-549h128zm256 347v128h-640v-128z"/></symbol><symbol id="hd-icon-fluent-mdl2-drag-object" viewBox="0 0 2048 2048"><path fill="currentColor" d="m1043 1395l90 90l-173 174l-173-174l90-90l83 83zM877 526l-90-91l173-173l173 173l-90 91l-83-83zM269 877l-82 83l82 83l-90 90L6 960l173-173zm1645 83l-173 173l-90-90l83-83l-83-83l90-90zM384 640h1152v128H384zm0 256h1152v128H384zm0 256h1152v128H384z"/></symbol><symbol id="hd-icon-fluent-mdl2-drill-down" viewBox="0 0 2048 2048"><path fill="currentColor" d="M1024 0q141 0 272 36t245 103t207 160t160 208t103 245t37 272q0 141-36 272t-103 245t-160 207t-208 160t-245 103t-272 37q-141 0-272-36t-245-103t-207-160t-160-208t-103-244t-37-273q0-141 36-272t103-245t160-207t208-160T751 37t273-37m0 1920q123 0 237-32t214-90t182-141t140-181t91-214t32-238q0-123-32-237t-90-214t-141-182t-181-140t-214-91t-238-32q-123 0-237 32t-214 90t-182 141t-140 181t-91 214t-32 238q0 123 32 237t90 214t141 182t181 140t214 91t238 32m531-1005l90 90l-620 622l-622-622l90-90l467 467V384h129v997z"/></symbol><symbol id="hd-icon-fluent-mdl2-drill-down-solid" viewBox="0 0 2048 2048"><path fill="currentColor" d="M1024 0q141 0 272 36t244 104t207 160t161 207t103 245t37 272q0 141-36 272t-104 244t-160 207t-207 161t-245 103t-272 37q-141 0-272-36t-244-104t-207-160t-161-207t-103-245t-37-272q0-141 36-272t104-244t160-207t207-161T752 37t272-37m621 1005l-90-90l-467 466V384H961v998L493 915l-90 90l622 622z"/></symbol><symbol id="hd-icon-fluent-mdl2-drill-expand" viewBox="0 0 2048 2048"><path fill="currentColor" d="M1024 0q141 0 272 36t245 103t207 160t160 208t103 245t37 272q0 141-36 272t-103 245t-160 207t-208 160t-245 103t-272 37q-141 0-272-36t-245-103t-207-160t-160-208t-103-244t-37-273q0-141 36-272t103-245t160-207t208-160T751 37t273-37m0 1920q123 0 237-32t214-90t182-141t140-181t91-214t32-238q0-123-32-237t-90-214t-141-182t-181-140t-214-91t-238-32q-123 0-237 32t-214 90t-182 141t-140 181t-91 214t-32 238q0 123 32 237t90 214t141 182t181 140t214 91t238 32m531-749l90 90l-301 301l-301-301l90-90l147 146V896H768v421l147-146l90 90l-301 301l-301-301l90-90l147 146V768h320V384h128v384h320v549z"/></symbol><symbol id="hd-icon-fluent-mdl2-drill-show" viewBox="0 0 2048 2048"><path fill="currentColor" d="M1024 0q141 0 272 36t245 103t207 160t160 208t103 245t37 272q0 141-36 272t-103 245t-160 207t-208 160t-245 103t-272 37q-141 0-272-36t-245-103t-207-160t-160-208t-103-244t-37-273q0-141 36-272t103-245t160-207t208-160T751 37t273-37m0 1920q123 0 237-32t214-90t182-141t140-181t91-214t32-238q0-123-32-237t-90-214t-141-182t-181-140t-214-91t-238-32q-123 0-237 32t-214 90t-182 141t-140 181t-91 214t-32 238q0 123 32 237t90 214t141 182t181 140t214 91t238 32m-109-749l90 90l-301 301l-301-301l90-90l147 146V512h128v805zm640 0l90 90l-301 301l-301-301l90-90l147 146V512h128v805z"/></symbol><symbol id="hd-icon-fluent-mdl2-drill-through" viewBox="0 0 2048 2048"><path fill="currentColor" d="M1024 0q141 0 272 36t245 103t207 160t160 208t103 245t37 272q0 141-36 272t-103 245t-160 207t-208 160t-245 103t-272 37q-141 0-272-36t-245-103t-207-160t-160-208t-103-244t-37-273q0-141 36-272t103-245t160-207t208-160T751 37t273-37m0 1920q123 0 237-32t214-90t182-141t140-181t91-214t32-238q0-123-32-237t-90-214t-141-182t-181-140t-214-91t-238-32q-123 0-237 32t-214 90t-182 141t-140 181t-91 214t-32 238q0 123 32 237t90 214t141 182t181 140t214 91t238 32m109-1389l494 492l-494 494l-90-90l339-339H832q-89 0-171-34t-146-97q-63-63-97-145t-34-172h128q0 66 25 124t68 102t102 69t125 25h274q136 0 275-1l-338-338z"/></symbol><symbol id="hd-icon-fluent-mdl2-driver-off" viewBox="0 0 2048 2048"><path fill="currentColor" d="M1152 224q-27 0-50 10t-40 27t-28 41t-10 50v160H640v384H416q-27 0-50 10t-40 27t-28 41t-10 50q0 27 10 50t27 40t41 28t50 10h224v384h358l-4 32q-2 16-2 32q0 32 4 63t11 62q1 4 4 13t6 19t5 18t2 10v195q-59-34-93-92t-35-128v-96H512v-384h-96q-53 0-99-20t-82-55t-55-81t-20-100q0-53 20-99t55-82t81-55t100-20h96V384h384v-32q0-53 20-99t55-82t81-55t100-20q53 0 99 20t82 55t55 81t20 100v32h384v512h-160q-46 0-80 30t-43 75q-34 5-67 13t-65 22v-6q0-3-1-6q0-53 20-99t55-82t81-55t100-20h32V512h-384V352q0-27-10-50t-27-40t-41-28t-50-10m896 1376q0 93-35 174t-96 143t-142 96t-175 35q-93 0-174-35t-143-96t-96-142t-35-175q0-93 35-174t96-143t142-96t175-35q93 0 174 35t143 96t96 142t35 175m-768 0q0 66 25 124t68 102t102 69t125 25q47 0 92-13t84-40l-443-443q-26 39-39 84t-14 92m587 176q26-39 39-84t14-92q0-66-25-124t-69-101t-102-69t-124-26q-47 0-92 13t-84 40z"/></symbol><symbol id="hd-icon-fluent-mdl2-drop" viewBox="0 0 2048 2048"><path fill="currentColor" d="M1606 1166q58 114 58 242q0 88-23 170t-64 153t-100 129t-130 100t-153 65t-170 23t-170-23t-153-64t-129-100t-100-130t-65-153t-23-170q0-127 56-241L1019 0z"/></symbol><symbol id="hd-icon-fluent-mdl2-drop-shape" viewBox="0 0 2048 2048"><path fill="currentColor" d="M1607 1166q28 57 42 118t15 124q0 88-23 170t-64 153t-100 129t-130 100t-153 65t-170 23t-170-23t-153-64t-129-100t-100-130t-65-153t-23-170q0-63 14-124t43-118L1024 0zm-583 754q106 0 199-40t163-109t110-163t40-200q0-48-11-95t-33-90l-468-937l-468 937q-22 43-33 90t-11 95q0 106 40 199t109 163t163 110t200 40"/></symbol><symbol id="hd-icon-fluent-mdl2-drop-shape-solid" viewBox="0 0 2048 2048"><path fill="currentColor" d="M1607 1166q28 57 42 118t15 124q0 88-23 170t-64 153t-100 129t-130 100t-153 65t-170 23t-170-23t-153-64t-129-100t-100-130t-65-153t-23-170q0-63 14-124t43-118L1024 0z"/></symbol><symbol id="hd-icon-fluent-mdl2-dropbox-logo" viewBox="0 0 2048 2048"><path fill="currentColor" d="m668 249l356 297l-513 316l-351-281zm-508 895l351-282l513 317l-356 296zm864 35l513-317l351 282l-508 331zm864-598l-351 281l-513-316l356-297zm-863 662l357 295l152-99v112l-509 305l-509-305v-112l152 99z"/></symbol><symbol id="hd-icon-fluent-mdl2-dropdown" viewBox="0 0 2048 2048"><path fill="currentColor" d="M0 256h2048v1408H0zm1920 1280V384H128v1152zm-128-640l-256 256l-256-256z"/></symbol><symbol id="hd-icon-fluent-mdl2-duplicate-row" viewBox="0 0 2048 2048"><path fill="currentColor" d="M1664 768h384v768H384v-384H0V384h1664zM384 1024V768h1152V512H128v512zm1536 384V896H512v512z"/></symbol><symbol id="hd-icon-fluent-mdl2-duststorm" viewBox="0 0 2048 2048"><path fill="currentColor" d="M1536 640q0 80-30 149t-82 122t-123 83t-149 30H0V896h1152q53 0 99-20t82-55t55-81t20-100q0-53-20-99t-55-82t-81-55t-100-20q-53 0-99 20t-82 55t-55 81t-20 100H768q0-79 30-149t82-122t122-83t150-30q79 0 149 30t122 82t83 123t30 149m256 256q53 0 99 20t82 55t55 81t20 100q0 53-20 99t-55 82t-81 55t-100 20h-162q34 58 34 128q0 53-20 99t-55 82t-81 55t-100 20q-53 0-99-20t-82-55t-55-81t-20-100h128q0 27 10 50t27 40t41 28t50 10q27 0 50-10t40-27t28-41t10-50q0-27-10-50t-27-40t-41-28t-50-10H0v-128h1792q27 0 50-10t40-27t28-41t10-50q0-27-10-50t-27-40t-41-28t-50-10q-27 0-50 10t-40 27t-28 41t-10 50h-128q0-53 20-99t55-82t81-55t100-20m-64-128q-26 0-45-19t-19-45t19-45t45-19t45 19t19 45t-19 45t-45 19m-1152 0q-26 0-45-19t-19-45t19-45t45-19t45 19t19 45t-19 45t-45 19m384 768q26 0 45 19t19 45t-19 45t-45 19t-45-19t-19-45t19-45t45-19"/></symbol><symbol id="hd-icon-fluent-mdl2-e-discovery" viewBox="0 0 2048 2048"><path fill="currentColor" d="m220 1792l-42 128h1486v128H0q2-6 12-37t25-73t30-91t29-88t23-68t9-27V896H0V768l896-448V0h383v256h-255v64l896 448v128h-128v128h-128V896h-128v128h-128V896h-128v128h-128V896h-128v896zm420-128V896H512v768zm256 0V896H768v768zm64-1233L286 768h1348zM256 896v768h128V896zm1792 1088q0 26-19 45t-45 19t-45-19l-291-290q-39 26-84 39t-92 14q-66 0-124-25t-102-68t-69-102t-25-125t25-124t68-101t102-69t125-26t124 25t101 69t69 102t26 124q0 47-13 92t-40 84l290 291q19 19 19 45m-768-512q0 40 15 75t41 61t61 41t75 15t75-15t61-41t41-61t15-75t-15-75t-41-61t-61-41t-75-15t-75 15t-61 41t-41 61t-15 75"/></symbol><symbol id="hd-icon-fluent-mdl2-e-m-i" viewBox="0 0 2048 2048"><path fill="currentColor" d="M1536 128v1792h-512v-512H896v512H384V128zm-128 128H512v1536h256v-512h384v512h256zM768 640H640V384h128zm256 0H896V384h128zm-256 384H640V768h128zm256 0H896V768h128zm256-384h-128V384h128zm0 384h-128V768h128z"/></symbol><symbol id="hd-icon-fluent-mdl2-eat-drink" viewBox="0 0 2048 2048"><path fill="currentColor" d="M960 0q26 0 45 19t19 45v704q0 53-20 99t-55 81t-82 55t-99 21v960q0 26-19 45t-45 19t-45-19t-19-45v-960q-53 0-99-20t-81-55t-55-81t-21-100V64q0-26 19-45t45-19t45 19t19 45v704q0 27 10 50t27 40t41 28t50 10V64q0-26 19-45t45-19t45 19t19 45v832q27 0 50-10t40-27t28-41t10-50V64q0-26 19-45t45-19m704 0v1984q0 26-19 45t-45 19t-45-19t-19-45v-576q-37 0-80 1t-85-1t-82-12t-70-31t-49-57t-18-92V448q0-93 35-174t96-142t142-96t175-36zm-128 134q-56 11-102 40t-81 72t-54 93t-19 109v768q0 26 19 45t45 19h192z"/></symbol><symbol id="hd-icon-fluent-mdl2-edit" viewBox="0 0 2048 2048"><path fill="currentColor" d="M2048 335q0 66-25 128t-73 110L633 1890L0 2048l158-633L1475 98q48-48 110-73t128-25q69 0 130 26t106 72t72 107t27 130M326 1428q106 35 182 111t112 183L1701 640l-293-293zm-150 444l329-82q-10-46-32-87t-55-73t-73-54t-87-33zM1792 549q25-25 48-47t41-46t28-53t11-67q0-43-16-80t-45-66t-66-45t-81-17q-38 0-66 10t-53 29t-47 41t-47 48z"/></symbol><symbol id="hd-icon-fluent-mdl2-edit-contact" viewBox="0 0 2048 2048"><path fill="currentColor" d="M1243 1236q-45-51-99-90t-116-67t-126-41t-134-14q-88 0-170 23t-153 64t-129 100t-100 130t-65 153t-23 170H0q0-120 35-231t101-205t156-167t204-115q-113-74-176-186t-64-248q0-106 40-199t109-163T568 40T768 0t199 40t163 109t110 163t40 200q0 66-16 129t-48 119t-75 103t-101 83q84 32 158 82t135 117zM384 512q0 80 30 149t82 122t122 83t150 30q79 0 149-30t122-82t83-122t30-150q0-79-30-149t-82-122t-123-83t-149-30q-80 0-149 30t-122 82t-83 123t-30 149m1464 384q42 0 78 15t64 41t42 63t16 79q0 39-15 76t-43 65l-717 717l-377 94l94-377l717-716q29-29 65-43t76-14m51 249q21-21 21-51q0-31-20-50t-52-20q-14 0-27 4t-23 15l-692 692l-34 135l135-34z"/></symbol><symbol id="hd-icon-fluent-mdl2-edit-create" viewBox="0 0 2048 2048"><path fill="currentColor" d="M226 701q-48-48-73-109t-25-128q0-71 26-131t71-105t107-70t131-26q66 0 128 23t110 71l353 353l-91 91l-195-195l-293 293l195 195l-91 91zm238-443q-43 0-81 15t-66 44t-44 65t-17 82q0 38 10 66t29 53t41 47t48 47l293-293q-26-25-47-48t-46-40t-52-28t-68-10m1584 1790l-633-158l-293-293l91-91l217 218q16-52 44-98t67-85t84-66t99-45l-218-217l91-91l293 293zm-176-176l-82-329q-47 10-87 32t-73 55t-55 73t-32 87zM1728 192q53 0 99 20t82 55t55 81t20 100q0 51-19 98t-56 83L763 1775q-9 59-37 108t-70 87t-95 57t-113 21H0v-128q11 0 23-3t22-9q25-13 41-33t25-44t13-50t4-53q0-59 20-112t58-96t86-70t109-37L1547 267q36-36 83-55t98-20M448 1920q40 0 75-15t61-41t41-61t15-75t-15-75t-41-61t-61-41t-75-15t-75 15t-61 41t-41 61t-15 75q0 104-64 192zm518-529q-32-63-75-106t-106-75l-221 221q62 24 109 71t72 110zm852-853q37-37 37-90q0-26-10-49t-27-40t-41-28t-49-10q-53 0-90 37l-759 758q61 36 103 78t78 103z"/></symbol><symbol id="hd-icon-fluent-mdl2-edit-mail" viewBox="0 0 2048 2048"><path fill="currentColor" d="M1707 953q28-28 65-41t76-13q42 0 78 14t62 41t42 62t16 78q0 39-15 76t-43 65l-715 717l-377 94l94-377zm192 192q21-21 21-51q0-32-20-50t-52-19q-14 0-27 4t-23 14l-692 692l-34 135l135-34zm149-761v450q-29-21-61-34t-67-22V648l-896 447l-896-447v888h814l-128 128H0V384zM1024 953l881-441H143z"/></symbol><symbol id="hd-icon-fluent-mdl2-edit-mirrored" viewBox="0 0 2048 2048"><path fill="currentColor" d="M0 335q0 66 25 128t73 110l1317 1317l633 158l-158-633L573 98q-48-48-110-73T335 0q-69 0-130 26T99 98T27 205T0 335m1722 1093q-106 35-182 111t-112 183L347 640l293-293zm150 444l-329-82q10-46 32-87t55-73t73-54t87-33zM256 549q-25-25-48-47t-41-46t-28-53t-11-67q0-43 16-80t45-66t66-45t81-17q38 0 66 10t53 29t47 41t47 48z"/></symbol><symbol id="hd-icon-fluent-mdl2-edit-note" viewBox="0 0 2048 2048"><path fill="currentColor" d="M384 1920h412l-32 128H256V128h128V0h128v128h256V0h128v128h256V0h128v128h256V0h128v128h128v648q-34 5-66 17t-62 31V256H384zM1848 896q42 0 78 15t64 41t42 63t16 79q0 39-15 76t-43 65l-717 717l-377 94l94-377l717-716q29-29 65-43t76-14m51 249q21-21 21-51q0-31-20-50t-52-20q-14 0-27 4t-23 15l-692 692l-34 135l135-34z"/></symbol><symbol id="hd-icon-fluent-mdl2-edit-photo" viewBox="0 0 2048 2048"><path fill="currentColor" d="M1536 576q0-26 19-45t45-19t45 19t19 45t-19 45t-45 19t-45-19t-19-45M128 1664h732l-32 128H0V256h2048v580q-28-22-60-37t-68-23V384H128v677l448-447l384 384l256-256l261 260l-91 91l-170-171l-166 166l171 170l-91 91l-554-555l-448 449zm1792-178l128-128v434h-434l128-128h178zm128-392q0 39-15 76t-43 65l-717 717l-377 94l94-376l717-717q28-28 65-41t76-13q42 0 78 14t64 41t42 61t16 79m-149 51q21-21 21-51q0-32-20-50t-52-19q-14 0-27 4t-23 14l-692 692l-34 135l135-34z"/></symbol><symbol id="hd-icon-fluent-mdl2-edit-solid-12" viewBox="0 0 2048 2048"><path fill="currentColor" d="M1754 0q61 0 114 21t94 60t63 91t23 114q0 47-10 84t-28 69t-44 62t-58 61l-424-423q31-31 59-57t60-44t67-28t84-10m-420 290l422 422L753 1713L0 2046l348-759z"/></symbol><symbol id="hd-icon-fluent-mdl2-edit-solid-mirrored-12" viewBox="0 0 2048 2048"><path fill="currentColor" d="M294 0q-61 0-114 21T86 81t-63 91T0 286q0 47 10 84t28 69t44 62t58 61l424-423q-31-31-59-57t-60-44t-67-28t-84-10m420 290L292 712l1003 1001l753 333l-348-759z"/></symbol><symbol id="hd-icon-fluent-mdl2-edit-style" viewBox="0 0 2048 2048"><path fill="currentColor" d="M1055 896H609l-85 256H384L768 0h128l330 988l-106 105zm-43-128L832 228L652 768zm581 131q42 0 78 14t63 41t42 61t16 79q0 39-15 76t-43 65l-717 717l-377 94l94-377l717-716q28-28 65-41t77-13m50 246q21-21 21-51q0-32-20-50t-52-19q-14 0-27 4t-23 14l-692 692l-34 135l135-34z"/></symbol><symbol id="hd-icon-fluent-mdl2-education" viewBox="0 0 2048 2048"><path fill="currentColor" d="M1582 1065q41 72 61 150t21 161v103l-640 321l-640-321q0-60 1-112t9-101t24-98t48-103L256 960v587q29 10 52 28t41 42t26 52t9 59v320H0v-320q0-30 9-58t26-53t40-42t53-28V896L0 832l1024-512l1024 512zM256 1728q0-26-19-45t-45-19t-45 19t-19 45v192h128zm30-896l738 369l738-369l-738-369zm1250 568q0-77-15-143t-53-135l-444 222l-444-222q-33 58-50 122t-18 132v24l512 256z"/></symbol><symbol id="hd-icon-fluent-mdl2-egnyte-logo" viewBox="0 0 2048 2048"><path fill="currentColor" d="m1843 662l-663 488v770H870v-768q-1-1-28-21t-71-52t-100-75t-117-86t-119-87t-107-78t-81-60t-42-31l262-193l557 410l557-411zm-431 599l418 308l-92 125l-418-308zm-309-613H947V128h156zm-467 613l92 125l-418 308l-92-125z"/></symbol><symbol id="hd-icon-fluent-mdl2-ellipse" viewBox="0 0 2048 2048"><path fill="currentColor" d="M1024 256q131 0 268 27t264 85t233 144t175 206q41 71 62 147t22 159q0 82-21 158t-63 148q-68 119-174 206t-233 144t-264 84t-269 28q-131 0-268-27t-264-85t-233-144t-175-206q-41-71-62-147T0 1024q0-82 21-158t63-148q68-119 174-206t233-144t264-84t269-28m0 1408q84 0 169-11t167-36t159-60t146-87q54-40 101-88t81-105t53-120t20-133q0-70-19-133t-54-119t-81-105t-101-89q-68-50-145-86t-160-61t-167-35t-169-12q-84 0-169 11t-167 36t-159 60t-146 87q-54 40-101 88t-81 105t-53 120t-20 133q0 70 19 133t54 119t81 105t101 89q68 50 145 86t160 61t167 35t169 12"/></symbol><symbol id="hd-icon-fluent-mdl2-embed" viewBox="0 0 2048 2048"><path fill="currentColor" d="m467 595l90 90l-338 339l338 339l-90 90l-430-429zm1114 0l430 429l-430 429l-90-90l338-339l-338-339zM701 1792l512-1536h134L835 1792z"/></symbol><symbol id="hd-icon-fluent-mdl2-emoji" viewBox="0 0 2048 2048"><path fill="currentColor" d="M1024 0q141 0 272 36t245 103t207 160t160 208t103 245t37 272q0 141-36 272t-103 245t-160 207t-208 160t-245 103t-272 37q-141 0-272-36t-245-103t-207-160t-160-208t-103-244t-37-273q0-141 36-272t103-245t160-207t208-160T751 37t273-37m0 1920q123 0 237-32t214-90t182-141t140-181t91-214t32-238q0-123-32-237t-90-214t-141-182t-181-140t-214-91t-238-32q-123 0-237 32t-214 90t-182 141t-140 181t-91 214t-32 238q0 123 32 237t90 214t141 182t181 140t214 91t238 32M640 512q27 0 50 10t40 27t28 41t10 50H512q0-27 10-50t27-40t41-28t50-10m768 0q27 0 50 10t40 27t28 41t10 50h-256q0-27 10-50t27-40t41-28t50-10m64 256q40 0 75 15t61 41t41 61t15 75v64q0 133-50 249t-137 204t-203 137t-250 50q-133 0-249-50t-204-137t-137-203t-50-250q0-48 8-94t29-82t58-58t97-22q74 0 129 20t104 44t100 44t115 20t114-20t100-44t105-44t129-20m64 192q0-26-19-45t-45-19q-43 0-79 9t-69 24t-66 31t-68 31t-76 23t-90 10q-49 0-89-9t-76-24t-68-31t-66-31t-70-23t-79-10q-26 0-45 19t-19 45v64q0 106 40 199t110 162t163 110t199 41t199-40t162-110t110-163t41-199z"/></symbol><symbol id="hd-icon-fluent-mdl2-emoji-2" viewBox="0 0 2048 2048"><path fill="currentColor" d="M640 896q-27 0-50-10t-40-27t-28-41t-10-50q0-27 10-50t27-40t41-28t50-10q27 0 50 10t40 27t28 41t10 50q0 27-10 50t-27 40t-41 28t-50 10m768 0q-27 0-50-10t-40-27t-28-41t-10-50q0-27 10-50t27-40t41-28t50-10q27 0 50 10t40 27t28 41t10 50q0 27-10 50t-27 40t-41 28t-50 10M1024 0q141 0 272 36t245 103t207 160t160 208t103 245t37 272q0 141-36 272t-103 245t-160 207t-208 160t-245 103t-272 37q-141 0-272-36t-245-103t-207-160t-160-208t-103-244t-37-273q0-141 36-272t103-245t160-207t208-160T751 37t273-37m0 1920q123 0 237-32t214-90t182-141t140-181t91-214t32-238q0-123-32-237t-90-214t-141-182t-181-140t-214-91t-238-32q-123 0-237 32t-214 90t-182 141t-140 181t-91 214t-32 238q0 123 32 237t90 214t141 182t181 140t214 91t238 32m0-384q73 0 141-20t128-57t106-90t81-118l115 58q-41 81-101 147t-134 112t-159 71t-177 25t-177-25t-159-71t-134-112t-101-147l115-58q33 65 80 118t107 90t127 57t142 20"/></symbol><symbol id="hd-icon-fluent-mdl2-emoji-disappointed" viewBox="0 0 2048 2048"><path fill="currentColor" d="M1024 1280q72 0 149 16t147 48t128 83t92 118l-115 57q-26-51-72-87t-101-61t-116-35t-112-11q-54 0-113 10t-115 34t-101 61t-72 89l-115-57q34-69 91-119t128-83t147-47t150-16m0-1280q141 0 272 36t244 104t207 160t161 207t103 245t37 272q0 141-36 272t-103 245t-160 207t-208 160t-245 103t-272 37q-141 0-272-36t-245-103t-207-160t-160-208t-103-244t-37-273q0-141 36-272t103-245t160-207t208-160T751 37t273-37m0 1920q123 0 237-32t214-90t182-141t140-181t91-214t32-238q0-123-32-237t-90-214t-141-182t-181-140t-214-91t-238-32q-123 0-237 32t-214 90t-182 141t-140 181t-91 214t-32 238q0 123 32 237t90 214t141 182t181 140t214 91t238 32M767 917q-47-21-97-21q-35 0-68 10t-62 28t-51 45t-38 58l-117-53q22-49 57-89t79-68t94-43t105-16q80 0 151 33zm461-116q35-17 73-25t78-8q54 0 104 15t95 44t78 68t58 89l-117 53q-15-32-37-58t-51-44t-62-29t-69-10q-52 0-98 21z"/></symbol><symbol id="hd-icon-fluent-mdl2-emoji-neutral" viewBox="0 0 2048 2048"><path fill="currentColor" d="M640 1408h768v128H640zM1024 0q141 0 272 36t244 104t207 160t161 207t103 245t37 272q0 141-36 272t-103 245t-160 207t-208 160t-245 103t-272 37q-141 0-272-36t-245-103t-207-160t-160-208t-103-244t-37-273q0-141 36-272t103-245t160-207t208-160T751 37t273-37m0 1920q123 0 237-32t214-90t182-141t140-181t91-214t32-238q0-123-32-237t-90-214t-141-182t-181-140t-214-91t-238-32q-123 0-237 32t-214 90t-182 141t-140 181t-91 214t-32 238q0 123 32 237t90 214t141 182t181 140t214 91t238 32M768 896q0 27-10 50t-27 40t-41 28t-50 10q-27 0-50-10t-40-27t-28-41t-10-50q0-27 10-50t27-40t41-28t50-10q27 0 50 10t40 27t28 41t10 50m640-128q27 0 50 10t40 27t28 41t10 50q0 27-10 50t-27 40t-41 28t-50 10q-27 0-50-10t-40-27t-28-41t-10-50q0-27 10-50t27-40t41-28t50-10"/></symbol><symbol id="hd-icon-fluent-mdl2-emoji-tab-symbols" viewBox="0 0 2048 2048"><path fill="currentColor" d="M1920 1152h128v384h-384v-128h192q-45-60-113-94t-143-34q-51 0-98 15t-87 44t-70 67t-47 87l-120-42q24-67 66-122t97-94t122-61t137-22q91 0 174 35t146 100zM448 0q93 0 174 35t143 96t96 142t35 175q0 93-35 174t-96 143t-142 96t-175 35q-93 0-174-35t-143-96t-96-142T0 448q0-93 35-174t96-143t142-96T448 0M128 448q0 66 25 124t68 102t102 69t125 25q47 0 92-13t84-40L181 272q-26 39-39 84t-14 92m587 176q26-39 39-84t14-92q0-66-25-124t-69-101t-102-69t-124-26q-47 0-92 13t-84 40zm-203 912h384v128H512v384H384v-384H0v-128h384v-384h128zm1088 384q51 0 98-15t86-44t70-67t48-87l120 42q-24 67-66 122t-97 94t-122 61t-137 22q-91 0-174-35t-146-100v135h-128v-384h384v128h-192q45 60 113 94t143 34M1230 521q-38-38-58-87t-20-102q0-56 21-105t57-85t84-57t105-21q51 0 97 18t84 52q37-34 83-52t98-18q55 0 104 21t85 57t57 85t21 105q0 53-20 102t-58 87l-370 369zm190-329q-29 0-54 11t-45 30t-30 44t-11 55q0 28 10 53t31 45l279 279l279-279q41-41 41-98q0-29-11-54t-30-45t-44-30t-55-11q-57 0-98 41l-82 82l-82-82q-20-20-45-30t-53-11"/></symbol><symbol id="hd-icon-fluent-mdl2-empty-recycle-bin" viewBox="0 0 2048 2048"><path fill="currentColor" d="M782 1589q-32 0-48-29q-6-11-21-38t-31-56t-29-55t-13-35q0-16 7-34t18-36t21-34t18-28l-64-51h197l47 194l-77-61l-55 111h183v152zm231-644l-84 165l-127-64l60-119q14-30 48-30l221-1q32 0 48 30l54 101l58-44l-30 207l-218-20l62-46zm122 719l-124-166l124-152v103h163l-67-123l122-72q4 9 13 25t19 35t16 35t7 27q0 12-6 24l-85 168q-7 14-20 21t-28 8h-134zm599-1024h132l-271 1211q-130 97-268 147t-302 50q-162 0-301-50t-268-147L137 441l-6-28q-3-14-3-29q0-58 29-105t78-85t109-65t123-49t121-33t103-20Q856 0 1024 0q51 0 101 2t102 8q-66 20-127 49t-118 70q-48 1-106 5t-120 12t-126 21t-123 32t-111 44t-90 58q-18 16-34 37t-16 46q0 15 6 28t16 26t21 23t23 19q42 32 96 56t116 41t126 30t129 19t124 11t111 3h22q11 0 22-1l1 1h632q-74 35-158 59t-173 40t-177 22t-169 7q-84 0-178-7t-188-25t-184-45t-164-69l260 1154q100 70 217 105t239 36q121 0 237-35t217-106zM2048 0v512h-512V384h292q-76-60-167-91t-188-31q-114 0-218 43t-186 124l-90-90q99-99 226-152t268-53q122 0 237 41t210 119V0z"/></symbol><symbol id="hd-icon-fluent-mdl2-encryption" viewBox="0 0 2048 2048"><path fill="currentColor" d="M1920 256v512q0 151-38 285t-105 253t-158 223t-198 195t-224 171t-237 150q-119-70-236-149t-224-171t-198-196t-159-223t-105-253T0 768V256q83 0 161-6t152-22t146-45t144-75q85-55 170-81T960 0q51 0 97 6t89 20t86 34t85 48q72 46 144 75t146 45t152 22t161 6m-128 512V382q-149-8-285-48t-263-121q-68-44-135-64t-149-21q-81 0-148 20t-136 65q-126 81-262 121t-286 48v386q0 127 33 244t92 222t138 200t172 178t193 155t204 130q102-59 203-130t194-154t172-178t138-200t91-223t34-244M960 320q66 0 124 25t101 69t69 102t26 124v128h128v640H512V768h128V640q0-66 25-124t68-101t102-69t125-26m320 960V896H640v384zM768 768h384V640q0-40-15-75t-41-61t-61-41t-75-15t-75 15t-61 41t-41 61t-15 75z"/></symbol><symbol id="hd-icon-fluent-mdl2-end-point-solid" viewBox="0 0 2048 2048"><path fill="currentColor" d="M256 2048V0h768v1024H384v1024zm896-1792h768v1024h-768z"/></symbol><symbol id="hd-icon-fluent-mdl2-engineering-group" viewBox="0 0 2048 2048"><path fill="currentColor" d="M453 512q110-123 258-189t313-67q32 0 64 3t64 8v130q-32-6-64-9t-64-4q-104 0-200 33t-180 95zm1198 640q6-32 9-64t4-64q0-32-3-64t-10-64h130q5 32 8 64t3 64t-3 64t-8 64zM515 1408q45 60 102 107t122 81t138 50t147 18q32 0 64-3t64-10v130q-32 5-64 8t-64 3q-103 0-200-26t-183-77t-158-121t-123-160zM2048 128v640h-768V128zm-128 128h-512v384h512zm-640 1024h768v640h-768zm128 512h512v-384h-512zm-640-512H0V640h768zM640 768H128v384h512z"/></symbol><symbol id="hd-icon-fluent-mdl2-entitlement-policy" viewBox="0 0 2048 2048"><path fill="currentColor" d="M128 128v1792h896v128H0V0h1115l549 549v731h-128V640h-512V128zm1024 91v293h293zM256 512h640v128H256zm1152 256v128H256V768zM256 1152v-128h1152v128zm0 256v-128h768v128zm0 256v-128h768v128zm1152-256h640v128h-640zm0 384v-128h640v128zm0 256v-128h640v128zm-256-512v-128h128v128zm0 256v-128h128v128zm0 256v-128h128v128z"/></symbol><symbol id="hd-icon-fluent-mdl2-entitlement-redemption" viewBox="0 0 2048 2048"><path fill="currentColor" d="M256 512h640v128H256zm1152 256v128H256V768zm0 256v128H256v-128zm0 256v128H256v-128zM256 1664v-128h926l-128 128zm-128 256h1027l128 128H0V0h1115l549 549v862l-128 128V640h-512V128H128zM1152 219v293h293zm787 1144l90 90l-557 558l-269-270l90-90l179 178z"/></symbol><symbol id="hd-icon-fluent-mdl2-entry-decline" viewBox="0 0 2048 2048"><path fill="currentColor" d="M512 768h1024v128H512zm1024-256H512V384h1024zm-384 1408l127 128H256V0h1536v1348l-64 63l-64-64V128H384v1792zm576 125l3 3h-6zm-192-893l-129 128H512v-128zm-317 384l128 128H512v-128zm600 192l226 227l-90 90l-227-226l-227 227l-90-91l227-227l-227-227l90-90l227 227l227-227l90 91z"/></symbol><symbol id="hd-icon-fluent-mdl2-entry-view" viewBox="0 0 2048 2048"><path fill="currentColor" d="M777 1920q15 35 36 67t48 61H0V0h1536v911q-32-9-64-17t-64-13V128H128v1792zm503-1408H256V384h1024zM256 768h1024v128H256zm960 640q66 0 124 25t101 69t69 102t26 124t-25 124t-69 102t-102 69t-124 25t-124-25t-102-68t-69-102t-25-125t25-124t68-101t102-69t125-26m0 512q40 0 75-15t61-41t41-61t15-75t-15-75t-41-61t-61-41t-75-15t-75 15t-61 41t-41 61t-15 75t15 75t41 61t61 41t75 15m0-896q100 0 200 21t193 64t173 103t139 139t93 173t34 204h-128q0-91-29-169t-81-142t-119-113t-147-83t-162-51t-166-18q-82 0-166 17t-162 51t-146 83t-120 114t-80 142t-30 169H384q0-109 34-204t93-173t139-139t172-103t193-63t201-22"/></symbol><symbol id="hd-icon-fluent-mdl2-equalizer" viewBox="0 0 2048 2048"><path fill="currentColor" d="M2048 256v128h-768v64q0 40-15 75t-41 61t-61 41t-75 15t-75-15t-61-41t-41-61t-15-75v-64H0V256h896v-64q0-40 15-75t41-61t61-41t75-15t75 15t61 41t41 61t15 75v64zm-448 1024q40 0 75 15t61 41t41 61t15 75v64h256v128h-256v64q0 40-15 75t-41 61t-61 41t-75 15t-75-15t-61-41t-41-61t-15-75v-64H0v-128h1408v-64q0-40 15-75t41-61t61-41t75-15M448 640q40 0 75 15t61 41t41 61t15 75v64h1408v128H640v64q0 40-15 75t-41 61t-61 41t-75 15t-75-15t-61-41t-41-61t-15-75v-64H0V896h256v-64q0-40 15-75t41-61t61-41t75-15m64 192q0-26-19-45t-45-19t-45 19t-19 45v256q0 26 19 45t45 19t45-19t19-45zm640-640q0-26-19-45t-45-19t-45 19t-19 45v256q0 26 19 45t45 19t45-19t19-45zm512 1280q0-26-19-45t-45-19t-45 19t-19 45v256q0 26 19 45t45 19t45-19t19-45z"/></symbol><symbol id="hd-icon-fluent-mdl2-erase-tool" viewBox="0 0 2048 2048"><path fill="currentColor" d="M1115 1792h421v128H453L50 1516q-24-24-37-56t-13-68q0-35 13-67t38-58L1248 69l794 795zm133-1542L538 960l614 613l709-709zM933 1792l128-128l-613-614l-306 307q-14 14-14 35t14 35l364 365z"/></symbol><symbol id="hd-icon-fluent-mdl2-error" viewBox="0 0 2048 2048"><path fill="currentColor" d="M960 0q133 0 255 34t230 96t194 150t150 195t97 229t34 256q0 133-34 255t-96 230t-150 194t-195 150t-229 97t-256 34q-133 0-255-34t-230-96t-194-150t-150-195t-97-229T0 960q0-133 34-255t96-230t150-194t195-150t229-97T960 0m0 1792q114 0 220-30t199-84t169-130t130-168t84-199t30-221t-30-220t-84-199t-130-169t-168-130t-199-84t-221-30q-115 0-221 30t-198 84t-169 130t-130 168t-84 199t-30 221q0 114 30 220t84 199t130 169t168 130t199 84t221 30M896 512h128v640H896zm0 768h128v128H896z"/></symbol><symbol id="hd-icon-fluent-mdl2-error-badge" viewBox="0 0 2048 2048"><path fill="currentColor" d="M1024 0q141 0 272 36t244 104t207 160t161 207t103 245t37 272q0 141-36 272t-104 244t-160 207t-207 161t-245 103t-272 37q-141 0-272-36t-244-104t-207-160t-161-207t-103-245t-37-272q0-141 36-272t104-244t160-207t207-161T752 37t272-37m0 1920q124 0 238-32t214-90t181-140t140-181t91-214t32-239t-32-238t-90-214t-140-181t-181-140t-214-91t-239-32t-238 32t-214 90t-181 140t-140 181t-91 214t-32 239t32 238t90 214t140 181t181 140t214 91t239 32m443-1249l-352 353l352 353l-90 90l-353-352l-353 352l-90-90l352-353l-352-353l90-90l353 352l353-352z"/></symbol><symbol id="hd-icon-fluent-mdl2-event" viewBox="0 0 2048 2048"><path fill="currentColor" d="M1664 128h384v1792H0V128h384V0h128v128h1024V0h128zM384 256H128v256h1792V256h-256v128h-128V256H512v128H384zM128 1792h1792V640H128z"/></symbol><symbol id="hd-icon-fluent-mdl2-event-12" viewBox="0 0 2048 2048"><path fill="currentColor" d="M1536 171h341v1877H0V171h341V0h171v171h853V0h171zm171 1706V683H171v1194zm0-1365V341H171v171z"/></symbol><symbol id="hd-icon-fluent-mdl2-event-accepted" viewBox="0 0 2048 2048"><path fill="currentColor" d="M2048 128v1024h-128V640H128v1152h896v128H0V128h384V0h128v128h1024V0h128v128zm-128 384V256h-256v128h-128V256H512v128H384V256H128v256zm19 851l90 90l-557 558l-269-270l90-90l179 178z"/></symbol><symbol id="hd-icon-fluent-mdl2-event-date" viewBox="0 0 2048 2048"><path fill="currentColor" d="M2048 128v1792H0V128h384V0h128v128h1024V0h128v128zM128 256v256h1792V256h-256v128h-128V256H512v128H384V256zm1792 1536V640H128v1152zm-512-896v640h-128v-486q-27 14-62 26t-66 12V960q12 0 31-6t39-15t36-21t22-21v-1zm-384 192q0 39-11 70t-31 58t-44 51t-51 46t-51 46t-47 49h235v128H640v-36q0-19-1-38t4-38t10-36q11-27 33-53t50-53t55-51t51-49t39-47t15-47q0-27-19-45t-45-19q-23 0-40 14t-23 37l-125-26q6-33 23-61t44-48t57-32t64-12q40 0 75 15t61 41t41 61t15 75"/></symbol><symbol id="hd-icon-fluent-mdl2-event-date-missed-12" viewBox="0 0 2048 2048"><path fill="currentColor" d="M1536 171h341v1877H0V171h341V0h171v171h853V0h171zm171 1706V683H171v1194zm0-1365V341H171v171zm-854 853V853h171v512zm0 342v-171h171v171z"/></symbol><symbol id="hd-icon-fluent-mdl2-event-declined" viewBox="0 0 2048 2048"><path fill="currentColor" d="M2048 128v1152h-128V640H128v1152h1152v128H0V128h384V0h128v128h1024V0h128v128zm-128 384V256h-256v128h-128V256H512v128H384V256H128v256zm125 990l-226 226l226 227l-90 90l-227-226l-227 227l-90-91l227-227l-227-227l90-90l227 227l227-227z"/></symbol><symbol id="hd-icon-fluent-mdl2-event-info" viewBox="0 0 2048 2048"><path fill="currentColor" d="M2048 128v1792H0V128h384V0h128v128h1024V0h128v128zM128 256v256h1792V256h-256v128h-128V256H512v128H384V256zm1792 1536V640H128v1152zM896 1024h128v640H896zm64-256q26 0 45 19t19 45t-19 45t-45 19t-45-19t-19-45t19-45t45-19"/></symbol><symbol id="hd-icon-fluent-mdl2-event-tentative" viewBox="0 0 2048 2048"><path fill="currentColor" d="M2048 128v896h-128V640H128v1152h1408v128H0V128h384V0h128v128h1024V0h128v128zm-128 384V256h-256v128h-128V256H512v128H384V256H128v256zm-256 1408h128v128h-128zm64-768q53 0 99 20t82 55t55 81t20 100q0 46-14 81t-35 63t-47 50t-46 45t-36 45t-14 52v48h-128v-48q0-47 14-81t35-63t47-50t46-45t36-45t14-52q0-27-10-50t-27-40t-41-28t-50-10q-27 0-50 10t-40 27t-28 41t-10 50h-128q0-53 20-99t55-82t81-55t100-20"/></symbol><symbol id="hd-icon-fluent-mdl2-event-tentative-mirrored" viewBox="0 0 2048 2048"><path fill="currentColor" d="M0 128v896h128V640h1792v1152H512v128h1536V128h-384V0h-128v128H512V0H384v128zm128 384V256h256v128h128V256h1024v128h128V256h256v256zm256 1408H256v128h128zm-64-768q-53 0-99 20t-82 55t-55 81t-20 100q0 46 14 81t35 63t47 50t46 45t36 45t14 52v48h128v-48q0-47-14-81t-35-63t-47-50t-46-45t-36-45t-14-52q0-27 10-50t27-40t41-28t50-10q27 0 50 10t40 27t28 41t10 50h128q0-53-20-99t-55-82t-81-55t-100-20"/></symbol><symbol id="hd-icon-fluent-mdl2-event-to-do-logo" viewBox="0 0 2048 2048"><path fill="currentColor" d="M128 640v768h256v128H0V128h256V0h128v128h768V0h128v128h256v640h-128V640zm128-384H128v256h1280V256h-128v128h-128V256H384v128H256zm1792 828q0 20-8 39t-23 34q-208 208-412 414t-413 412q-32 30-75 30t-73-30l-411-410q-15-14-23-33t-8-41q0-43 31-74l177-177q31-31 74-31q42 0 73 31l160 160l576-575q30-30 73-30q20 0 40 8t35 22l176 177q14 14 22 33t9 41M885 1642l143-143l-144-144l-143 144zm1025-559l-144-144q-199 200-395 397t-397 397q36 36 71 72t72 72q200-199 397-396t396-398"/></symbol><symbol id="hd-icon-fluent-mdl2-exercise-tracker" viewBox="0 0 2048 2048"><path fill="currentColor" d="M128 640q42 0 67 20t43 44t37 44t45 20q48 0 85-19t68-47t61-62t64-61t74-48t96-19q36 0 70 11t63 32l1 2q17 12 32 24t33 25q12-12 25-21t32-9q27 0 45 19t19 46q0 20-13 38q32 20 64 38t64 37q16-17 34-33t43-17q26 0 45 19t19 45q0 16-6 26t-15 22q34 17 68 33t70 31q16-16 33-32t42-16q26 0 45 19t19 45q0 21-12 37q63 26 127 48t129 46q34 13 70 33t66 49t49 63t19 76v32q0 56-27 101t-70 80t-92 62t-96 43q-145 55-300 76t-311 22h-128q-42 0-75-10t-63-22t-57-22t-61-10q-27 0-50 6t-48 19q-38 19-76 29t-82 10H192q-40 0-75-15t-61-41t-41-61t-15-75V768q0-27 10-50t27-40t41-28t50-10m1792 608q0-16-13-31t-33-29t-39-24t-34-16q-78-30-155-57t-155-59l-102 101q-19 19-45 19t-45-19t-19-45q0-15 9-30t23-30t27-28t25-23q-35-16-69-32t-68-34l-94 94q-19 19-45 19t-45-19t-19-45t19-45l66-67q-32-18-63-37t-63-39L877 877q-19 19-45 19t-45-19t-19-45t19-45l89-89q-24-19-49-38t-59-20q-28 0-53 12t-44 32h-1q-40 40-76 78t-76 68t-87 48t-111 18q-32 0-58-9t-47-25t-41-37t-36-45q-6-8-10-11v511h1792zM512 1536q33 0 60-10t57-22t62-22t77-10q44 0 81 10t77 29q35 17 67 22t71 5q87 0 184-4t195-18t190-39t169-69H128v64q0 26 19 45t45 19z"/></symbol><symbol id="hd-icon-fluent-mdl2-expand-menu" viewBox="0 0 2048 2048"><path fill="currentColor" d="M128 128h1792v640H128zm0 1664v-640h1792v640z"/></symbol><symbol id="hd-icon-fluent-mdl2-explore-content" viewBox="0 0 2048 2048"><path fill="currentColor" d="M2048 0v1792h-128V128H256V0zM128 256h1664v1664H128zm128 1536h1408V384H256zm768-768h384v128h-384v384H896v-384H512v-128h384V640h128z"/></symbol><symbol id="hd-icon-fluent-mdl2-explore-content-single" viewBox="0 0 2048 2048"><path fill="currentColor" d="M1792 256v1664H128V256zm-128 128H256v1408h1408zm-768 768H512v-128h384V640h128v384h384v128h-384v384H896z"/></symbol><symbol id="hd-icon-fluent-mdl2-explore-data" viewBox="0 0 2048 2048"><path fill="currentColor" d="M256 1408v-256H0V0h1536v256h256v512h-128V384H384v896h768v128zm0-384V256h1152V128H128v896zm256 128V896h128v256zm256 0V640h128v512zm256 0V768h128v384zm640-256q79 0 149 30t122 82t83 123t30 149q0 80-30 149t-82 122t-123 83t-149 30q-60 0-117-18t-105-53l-437 436q-19 19-45 19t-45-19t-19-45t19-45l436-437q-35-48-53-105t-18-117q0-79 30-149t82-122t122-83t150-30m0 640q53 0 99-20t82-55t55-81t20-100q0-53-20-99t-55-82t-81-55t-100-20q-53 0-99 20t-82 55t-55 81t-20 100q0 53 20 99t55 82t81 55t100 20"/></symbol><symbol id="hd-icon-fluent-mdl2-export" viewBox="0 0 2048 2048"><path fill="currentColor" d="m1497 589l308 309H262v128h1540l-305 305l90 90l461-461l-461-461zM134 512H6v896h128z"/></symbol><symbol id="hd-icon-fluent-mdl2-export-mirrored" viewBox="0 0 2048 2048"><path fill="currentColor" d="M557 589L249 898h1543v128H252l305 305l-90 90L6 960l461-461zm1363-77h128v896h-128z"/></symbol><symbol id="hd-icon-fluent-mdl2-external-build" viewBox="0 0 2048 2048"><path fill="currentColor" d="M256 256v1536h256v128H128V128h1792v768h-128V256zm1649 1162l143 157v217h-128v-167l-101-112q-36 20-77 22l-78 89v168h-128v-216l72-82q-5-3-8-6t-8-8l-248-249l-192 193v496h128v128H640v-128h128v-576q0-38 14-73t42-63l384-384q27-27 62-41t74-15q38 0 73 14t63 42l384 384q27 27 41 62t15 74q0 40-15 74m-862-247q61 29 90 90l256-256q19-19 19-45t-19-45t-45-19t-45 19zm-147 749h128v-576q0-26-19-45t-45-19t-45 19t-19 45zm832-512q26 0 45-19t19-45t-19-45l-256-256q-14 31-36 52t-47 46l249 248q19 19 45 19"/></symbol><symbol id="hd-icon-fluent-mdl2-external-git" viewBox="0 0 2048 2048"><path fill="currentColor" d="M1342 640q38 0 65 27l614 614q27 27 27 65q0 37-27 64l-611 612q-13 13-30 19t-35 7q-17 0-34-6t-30-20l-614-615q-27-27-27-64q0-38 27-65l421-421l160 160q-9 20-9 42q0 21 8 41t24 35q7 7 9 7t11 3v390q-8 4-14 10t-12 12q-19 19-28 38t-10 46q0 23 9 43t24 36t35 24t44 9q24 0 45-7t36-22t25-35t10-44q0-29-17-58t-43-43v-379l146 145q-9 20-9 42t8 41t24 35t34 23t42 9q22 0 42-8t34-23t23-34t9-43q0-23-8-42t-23-34t-35-23t-42-9q-9 0-18 1t-17 4l-156-156q6-16 6-35q0-22-8-42t-24-34t-34-22t-42-9q-20 0-34 5l-162-162l127-127q27-27 64-27M256 1792h512v128H128V128h1792v640h-128V256H256z"/></symbol><symbol id="hd-icon-fluent-mdl2-external-t-f-v-c" viewBox="0 0 2048 2048"><path fill="currentColor" d="M256 1792h384v128H128V128h1792v512h-128V256H256zm1600-640q-60 0-109-34t-71-90l-147 49q7 35 7 75q0 66-21 128t-64 113l255 291q42-20 86-20q40 0 75 15t61 41t41 61t15 75t-15 75t-41 61t-61 41t-75 15t-75-15t-61-41t-41-61t-15-75q0-29 8-57t25-51l-251-288q-50 37-108 56t-122 20h-17q-9 0-17-1l-54 160q41 26 64 69t24 92q0 40-15 75t-41 61t-61 41t-75 15t-75-15t-61-41t-41-61t-15-75q0-44 16-79t44-61t65-38t80-14l50-150q-57-20-104-56t-80-84t-52-104t-19-118q0-79 30-149t82-122t122-83t150-30q55 0 107 15t97 44t81 69t61 90l168-56q6-35 23-64t42-52t57-34t68-12q40 0 75 15t61 41t41 61t15 75t-15 75t-41 61t-61 41t-75 15m-704 192q40 0 75-15t61-41t41-61t15-75t-15-75t-41-61t-61-41t-75-15t-75 15t-61 41t-41 61t-15 75t15 75t41 61t61 41t75 15"/></symbol><symbol id="hd-icon-fluent-mdl2-external-x-a-m-l" viewBox="0 0 2048 2048"><path fill="currentColor" d="M1792 256H256v1664H128V128h1792v1024h-128zm-137 1408l-220 384H997l-220-384l220-384h438zm361 0l-219 384h-148l220-384l-220-384h148zm-1453 0l220 384H635l-219-384l219-384h148z"/></symbol><symbol id="hd-icon-fluent-mdl2-eye-shadow" viewBox="0 0 2048 2048"><path fill="currentColor" d="M1305 896h743v1024H0V896h771q75-91 154-176t162-168q31-31 86-84t122-114t143-124t148-114t135-83t107-33q41 0 66 25t26 67q0 35-21 82t-56 103t-82 116t-98 122t-104 119t-101 108t-88 90t-65 64m-412 54q25 11 45 31t32 46q57-47 128-113t149-142t156-158t148-164t126-157t91-141q-64 34-140 90t-158 126t-163 148t-159 156t-142 149t-113 129m-101 107q-24 0-57 7t-69 18t-74 27t-72 33t-62 36t-45 37q-16 17-22 36t-7 42q0 44 21 87t56 78t78 56t88 22q23 0 42-6t36-23q18-17 36-44t36-62t33-72t27-74t19-69t7-58q0-41-15-56t-56-15m1128 735v-768h-752q-45 40-89 78t-92 77q-5 45-23 104t-45 118t-59 111t-65 85q-35 35-78 51t-92 16q-71 0-137-31t-118-83t-83-118t-31-138q0-54 17-94t48-72t69-56t83-48H128v768zm-768-384q0-53 20-99t55-82t81-55t100-20q53 0 99 20t82 55t55 81t20 100q0 53-20 99t-55 82t-81 55t-100 20q-53 0-99-20t-82-55t-55-81t-20-100m256-128q-27 0-50 10t-40 27t-28 41t-10 50q0 27 10 50t27 40t41 28t50 10q27 0 50-10t40-27t28-41t10-50q0-27-10-50t-27-40t-41-28t-50-10"/></symbol><symbol id="hd-icon-fluent-mdl2-eyedropper" viewBox="0 0 2048 2048"><path fill="currentColor" d="M1758 0q60 0 113 23t92 62t62 92t23 113q0 58-22 111t-63 95l-240 240q33 32 51 72t18 88q0 46-17 86t-50 72l-157 157l-160-161l-805 805l-26 1q-51 2-87 17t-64 36t-50 46t-48 45t-55 34t-73 14q-41 0-77-16t-64-43t-43-63t-16-78q0-43 13-73t35-55t45-47t45-50t37-64t17-88l1-26l805-805l-161-160l157-157q32-32 72-49t86-18q47 0 87 18t73 51l240-240q41-41 94-63t112-22m-441 960l-229-229l-769 769q-5 51-19 91t-36 74t-51 66t-64 67q-21 21-21 51q0 29 21 50t50 21q30 0 51-21q35-34 67-63t66-52t74-36t91-19zm555-555q48-48 48-114q0-33-13-63t-35-52t-52-35t-63-13q-66 0-114 48l-331 330l-94-94q-28-28-66-28q-21 0-39 10t-35 25t-32 31t-28 30l550 550l68-68q28-28 28-66q0-20-7-36t-22-31l-93-93z"/></symbol><symbol id="hd-icon-fluent-mdl2-f-12-dev-tools" viewBox="0 0 2048 2048"><path fill="currentColor" d="M2048 256v1280h-86l-128-128h86V384H128v1024h512v128H0V256zm-267 1280h-576q-218 219-437 437V523zm-309-128L896 832v832l256-256z"/></symbol><symbol id="hd-icon-fluent-mdl2-facebook-logo" viewBox="0 0 2048 2048"><path fill="currentColor" d="M1024 0q141 0 272 36t244 104t207 160t161 207t103 245t37 272q0 126-29 244t-84 225t-132 196t-174 161t-208 118t-237 68v-716h239l45-296h-284V832q0-55 18-87t48-48t68-21t79-5h42q21 0 41 1V420q-56-10-114-15t-115-5q-93 0-165 28t-121 80t-75 125t-26 165v226H604v296h260v716q-125-19-237-67t-208-118t-173-161t-132-197t-84-224t-30-245q0-141 36-272t104-244t160-207t207-161T752 37t272-37"/></symbol><symbol id="hd-icon-fluent-mdl2-family" viewBox="0 0 2048 2048"><path fill="currentColor" d="M1790 1717q98 48 162 135t81 196h-110q-11-57-41-106t-73-84t-97-56t-112-20q-59 0-112 20t-97 55t-73 85t-41 106h-110q16-108 80-195t163-136q-57-45-88-109t-32-136q0-45 12-87t36-79t57-66t74-49q-27-39-62-69t-76-53t-86-33t-93-12q-80 0-153 31t-127 91q24 65 24 134q0 92-41 173t-115 136q65 33 117 81t90 108t57 128t20 142H896q0-79-30-149t-82-122t-123-83t-149-30q-80 0-149 30t-122 82t-83 123t-30 149H0q0-73 20-141t57-128t89-108t118-82q-74-55-115-136t-41-173q0-79 30-149t82-122t122-83t150-30q85 0 161 36t132 100q26-25 56-45t63-38q-74-55-115-136t-41-173q0-79 30-149t82-122t122-83t150-30q79 0 149 30t122 82t83 123t30 149q0 92-41 173t-115 136q70 37 126 90t95 123q64 0 120 24t99 67t66 98t24 121q0 72-31 136t-89 109M512 1536q53 0 99-20t82-55t55-81t20-100q0-53-20-99t-55-82t-81-55t-100-20q-53 0-99 20t-82 55t-55 81t-20 100q0 53 20 99t55 82t81 55t100 20m384-896q0 53 20 99t55 82t81 55t100 20q53 0 99-20t82-55t55-81t20-100q0-53-20-99t-55-82t-81-55t-100-20q-53 0-99 20t-82 55t-55 81t-20 100m704 630q-42 0-78 16t-64 43t-44 64t-16 79t16 78t43 64t64 44t79 16t78-16t64-43t44-64t16-79t-16-78t-43-64t-64-44t-79-16"/></symbol><symbol id="hd-icon-fluent-mdl2-fang-body" viewBox="0 0 2048 2048"><path fill="currentColor" d="M1709 1668q46 8 84 31t67 56t44 76t16 89v128H384q-80 0-150-30t-122-82t-82-122t-30-150q0-79 30-149t82-122t122-83t150-30v128q-53 0-99 20t-82 55t-55 81t-20 100q0 53 20 99t55 82t81 55t100 20q25 0 49-9t42-28q18-18 27-42t10-49q0-196 73-377q35-88 85-163t116-144q117-123 177-274t61-322V384q0-53 20-99t55-82t81-55t100-20h192q62 0 110 21t94 61q26 23 53 34t63 12q27 0 50 10t40 27t28 41t10 50v128q0 40-15 75t-41 61t-61 41t-75 15h-64v704q0 66 11 131t34 129m83 252q0-26-10-49t-27-41t-41-28t-50-10h-43q-20-49-35-95t-27-92t-17-95t-6-102V704q0-27 10-50t27-40t41-28t50-10h40q22 0 42-4t33-18t13-42V384q-45 0-78-9t-58-24t-45-31t-41-31t-44-23t-54-10h-192q-26 0-49 10t-41 27t-28 41t-10 50v192q0 26 19 45t45 19q28 0 41-13t19-32t5-42t-1-41h128v64q0 40-15 75t-41 61t-61 41t-75 15q-48 0-91-23q-32 131-93 242t-154 209q-117 123-177 274t-61 322q0 68-34 128h802q0-27-10-50t-27-40t-41-28t-50-10h-128q0-53-20-99t-55-82t-81-55t-100-20v-128q62 0 118 18t104 52t83 81t57 105h22v-512h128v546q60 35 94 94t34 128z"/></symbol><symbol id="hd-icon-fluent-mdl2-fast-forward" viewBox="0 0 2048 2048"><path fill="currentColor" d="m1152 379l806 645l-806 650zm128 266v762l474-383zM256 1674V379l806 645zM384 645v762l474-383z"/></symbol><symbol id="hd-icon-fluent-mdl2-fast-forward-eight-x" viewBox="0 0 2048 2048"><path fill="currentColor" d="m1668 510l-644 520V513l-640 517V-5l640 512V-5zM512 762l312-251l-312-250zm640-501v501l312-251zm-140 1531q0 61-22 108t-61 81t-89 50t-109 17q-57 0-108-17t-90-50t-60-80t-23-109q0-38 12-73t33-66t50-53t65-37q-54-30-88-78t-35-112q0-51 20-92t53-69t78-44t93-16t92 15t78 44t54 70t20 92q0 63-34 111t-88 79q34 14 63 37t51 54t33 65t12 73m-280-266q30 0 56-11t45-32t31-46t12-56q0-30-11-56t-30-46t-46-31t-57-12q-32 0-58 11t-45 30t-30 46t-11 58q0 30 11 56t30 46t46 31t57 12m174 258q0-38-13-70t-36-56t-55-37t-70-14q-38 0-70 13t-55 37t-37 56t-13 71q0 81 47 128t128 48q39 0 71-13t55-36t35-55t13-72m626-376h113l-215 324l211 316h-119q-38-64-77-127t-77-129h-2q-8 12-14 24t-15 25l-129 207h-118l218-314l-208-326h119q38 67 76 133t75 136h2z"/></symbol><symbol id="hd-icon-fluent-mdl2-fast-forward-four-x" viewBox="0 0 2048 2048"><path fill="currentColor" d="m1668 510l-644 520V513l-640 517V-5l640 512V-5zM512 762l312-251l-312-250zm640-501v501l312-251zm-243 891v592h115v93H909v211H808v-211H387v-88q59-66 116-137t111-147t101-153t85-160zm-101 592v-439q-66 118-143 225t-163 214zm724-336h113l-215 324l211 316h-119q-38-64-77-127t-77-129h-2q-8 12-14 24t-15 25l-129 207h-118l218-314l-208-326h119q38 67 76 133t75 136h2z"/></symbol><symbol id="hd-icon-fluent-mdl2-fast-forward-one-five-x" viewBox="0 0 2048 2048"><path fill="currentColor" d="M1024 1030V513l-640 517V-5l640 512V-5l644 515zM512 762l312-252l-312-249zm640-501v501l312-251zm-806 891h38v896H284v-757q-19 17-44 33t-52 29t-54 25t-53 17v-102q30-8 67-23t73-34t69-41t56-43m229 704q19 0 37 7t31 21t21 31t8 37q0 41-28 68t-69 28q-40 0-67-28t-28-68q0-19 7-36t21-31t30-21t37-8m712-92q0 69-24 122t-67 89t-99 54t-122 19q-22 0-46-1t-48-5t-46-11t-42-20v-107q42 27 87 42t96 16q44 0 82-12t66-37t44-61t16-82q0-51-18-86t-50-57t-72-31t-86-10q-36 0-75 1t-74 7l30-442h408v91H927l-18 258q20 0 40-1t41-2q63 0 117 16t95 50t62 83t23 117m660-356l-215 324l211 316h-119q-39-64-77-127t-77-129h-2q-42 63-80 127t-78 129h-118l218-314l-209-326h120q38 67 76 133t75 136h2l160-269z"/></symbol><symbol id="hd-icon-fluent-mdl2-fast-forward-one-x" viewBox="0 0 2048 2048"><path fill="currentColor" d="m1668 510l-644 520V513l-640 517V-5l640 512V-5zM512 762l312-251l-312-250zm640-501v501l312-251zm-294 891h38v896H796v-757q-19 17-44 33t-52 29t-54 25t-53 17v-102q30-8 67-23t73-34t69-41t56-43m674 256h113l-215 324l211 316h-119q-38-64-77-127t-77-129h-2q-8 12-14 24t-15 25l-129 207h-118l218-314l-208-326h119q38 67 76 133t75 136h2z"/></symbol><symbol id="hd-icon-fluent-mdl2-fast-forward-point-five-x" viewBox="0 0 2048 2048"><path fill="currentColor" d="M1024 1030V513l-640 517V-5l640 512V-5l644 515zM512 762l312-252l-312-249zm640-501v501l312-251zm896 1147l-215 324l211 316h-119q-39-64-77-127t-77-129h-2q-42 63-80 127t-78 129h-118l218-314l-209-326h120q38 67 77 133t73 136h3l160-269zM703 1856q19 0 37 7t31 21t21 31t8 37q0 41-28 68t-69 28q-40 0-67-28t-28-68q0-19 7-36t21-31t30-21t37-8m688-92q0 69-24 122t-67 89t-99 54t-122 19q-22 0-46-1t-48-5t-47-11t-42-20v-107q42 27 88 42t96 16q44 0 82-13t66-37t44-60t16-82q0-51-18-86t-50-56t-72-32t-86-10h-27q-30 0-61 1t-61 7l30-442h407v91h-320l-17 258q20 0 40-1t40-2q63 0 117 16t95 50t63 83t23 117M292 1152q59 0 102 20t74 54t49 78t29 94t14 101t4 97q0 47-5 99t-17 102t-33 95t-53 80t-77 55t-105 21q-57 0-99-19t-73-53t-50-76t-31-92t-16-97t-5-94q0-48 4-101t16-105t33-99t53-82t78-57t108-21m-9 811q42 0 71-18t50-48t32-67t18-78t7-78t2-68q0-29-1-67t-7-80t-17-81t-31-71t-49-51t-71-20q-44 0-74 19t-51 51t-33 72t-18 82t-7 81t-2 71q0 30 1 68t8 77t18 76t32 66t50 46t72 18"/></symbol><symbol id="hd-icon-fluent-mdl2-fast-forward-two-x" viewBox="0 0 2048 2048"><path fill="currentColor" d="m1668 510l-644 520V513l-640 517V-5l640 512V-5zM512 762l312-251l-312-250zm640-501v501l312-251zM562 1958h439v90H457v-44q0-25 2-50t10-49q15-55 50-96t79-77t91-68t86-71t64-85t25-110q0-75-43-118t-119-43q-30 0-59 8t-57 24t-51 34t-44 42v-108q47-47 102-66t121-19q54 0 100 16t81 46t53 74t19 101q0 83-30 141t-75 102t-97 78t-98 71t-75 77t-30 100m970-550h113l-215 324l211 316h-119q-38-64-77-127t-77-129h-2q-8 12-14 24t-15 25l-129 207h-118l218-314l-208-326h119q38 67 76 133t75 136h2z"/></symbol></svg>