<svg xmlns="http://www.w3.org/2000/svg" xmlns:xlink="http://www.w3.org/1999/xlink"><symbol id="hd-icon-ep-add-location" viewBox="0 0 1024 1024"><path fill="currentColor" d="M288 896h448q32 0 32 32t-32 32H288q-32 0-32-32t32-32"/><path fill="currentColor" d="M800 416a288 288 0 1 0-576 0c0 118.1 94.5 272.1 288 456.6C705.5 688 800 534 800 416M512 960Q160 640 160 416a352 352 0 0 1 704 0q0 224-352 544"/><path fill="currentColor" d="M544 384h96a32 32 0 1 1 0 64h-96v96a32 32 0 0 1-64 0v-96h-96a32 32 0 0 1 0-64h96v-96a32 32 0 0 1 64 0z"/></symbol><symbol id="hd-icon-ep-aim" viewBox="0 0 1024 1024"><path fill="currentColor" d="M512 896a384 384 0 1 0 0-768a384 384 0 0 0 0 768m0 64a448 448 0 1 1 0-896a448 448 0 0 1 0 896"/><path fill="currentColor" d="M512 96a32 32 0 0 1 32 32v192a32 32 0 0 1-64 0V128a32 32 0 0 1 32-32m0 576a32 32 0 0 1 32 32v192a32 32 0 1 1-64 0V704a32 32 0 0 1 32-32M96 512a32 32 0 0 1 32-32h192a32 32 0 0 1 0 64H128a32 32 0 0 1-32-32m576 0a32 32 0 0 1 32-32h192a32 32 0 1 1 0 64H704a32 32 0 0 1-32-32"/></symbol><symbol id="hd-icon-ep-alarm-clock" viewBox="0 0 1024 1024"><path fill="currentColor" d="M512 832a320 320 0 1 0 0-640a320 320 0 0 0 0 640m0 64a384 384 0 1 1 0-768a384 384 0 0 1 0 768"/><path fill="currentColor" d="m292.3 824.6l55.4 32l-48 83.1a32 32 0 1 1-55.4-32zm439.4 0l-55.4 32l48 83.1a32 32 0 1 0 55.4-32zM512 512h160a32 32 0 1 1 0 64H480a32 32 0 0 1-32-32V320a32 32 0 0 1 64 0zM90.5 312.3A160 160 0 0 1 312.3 90.5l-46.8 46.8a96 96 0 0 0-128 128zm835.3 0A160 160 0 0 0 704 90.5l46.8 46.8a96 96 0 0 1 128 128z"/></symbol><symbol id="hd-icon-ep-apple" viewBox="0 0 1024 1024"><path fill="currentColor" d="M599.9 203.8a189 189 0 0 1 64.4-4.7l2.6.1c31.1 1 51.2 4.1 79.5 16.4c37.6 16 74.5 45 111.5 89.3c96.3 115.3 82.7 372.8-34.8 521.7c-7.7 9.8-32 41.6-30.7 40a427 427 0 0 1-30.1 35.7c-31.2 32.6-65.3 49.3-110 50c-31.4.7-53.6-5.2-84.4-18.7l-6.5-2.8c-21-9.3-30.6-12-47.3-12c-18.1 0-28.6 3-51.1 12.7l-6.5 2.8c-28.4 12.3-48.3 18-76.1 19.2c-74.2 2.8-117-38-180.7-132.1C103 679.3 67 472 144.7 335c46.2-82 129.9-133.7 220.6-135c32.8-.6 60.3 6.8 99.7 22.7a426 426 0 0 0 37.3 14.2q24.4-30.3 34.6-50.2q20.4-39.5 40.7-100.8a32 32 0 1 1 60.8 20.2a837 837 0 0 1-38.5 97.7m-51.5 78a1161 1161 0 0 1-52 58.9a32 32 0 1 1-46.7-43.8l12.3-13.3c-28-11.2-61.2-26.6-95.7-26c-70.4 1-135.3 41.5-171.6 105.7C121.6 492.6 176 684.2 247.3 789c34.8 51.3 76.3 109 131 107c52.4-2.2 72.3-34.8 135.8-34.8s81.3 34.7 137 33.6c56.4-1.1 75.7-39 126.8-103.9c108-136.8 108-362.7 35.8-449S689 257.6 662 256.6c-41.5-4.3-81.6 12.5-113.6 25.2"/></symbol><symbol id="hd-icon-ep-arrow-down" viewBox="0 0 1024 1024"><path fill="currentColor" d="M831.9 340.9L512 652.7L192.1 340.9a30.6 30.6 0 0 0-42.7 0a29 29 0 0 0 0 41.6l340.3 331.7a32 32 0 0 0 44.6 0l340.3-331.7a29 29 0 0 0 0-41.7a30.6 30.6 0 0 0-42.7 0z"/></symbol><symbol id="hd-icon-ep-arrow-down-bold" viewBox="0 0 1024 1024"><path fill="currentColor" d="M104.7 338.8a64 64 0 0 1 90.5 0L512 655.6l316.8-316.8a64 64 0 0 1 90.5 90.4l-362 362.1a64 64 0 0 1-90.5 0l-362.1-362a64 64 0 0 1 0-90.5"/></symbol><symbol id="hd-icon-ep-arrow-left" viewBox="0 0 1024 1024"><path fill="currentColor" d="M609.4 149.4L277.8 489.6a32 32 0 0 0 0 44.7l331.6 340.3a29 29 0 0 0 41.7 0a30.6 30.6 0 0 0 0-42.7l-311.8-320L651 192.1a30.6 30.6 0 0 0 0-42.7a29 29 0 0 0-41.7 0"/></symbol><symbol id="hd-icon-ep-arrow-left-bold" viewBox="0 0 1024 1024"><path fill="currentColor" d="M685.2 104.7a64 64 0 0 1 0 90.5L368.4 512l316.8 316.8a64 64 0 0 1-90.4 90.5l-362.1-362a64 64 0 0 1 0-90.5l362-362.1a64 64 0 0 1 90.5 0"/></symbol><symbol id="hd-icon-ep-arrow-right" viewBox="0 0 1024 1024"><path fill="currentColor" d="M340.9 149.3a30.6 30.6 0 0 0 0 42.8L652.7 512L341 831.9a30.6 30.6 0 0 0 0 42.7a29 29 0 0 0 41.7 0l331.6-340.3a32 32 0 0 0 0-44.6L382.6 149.4a29 29 0 0 0-41.7 0z"/></symbol><symbol id="hd-icon-ep-arrow-right-bold" viewBox="0 0 1024 1024"><path fill="currentColor" d="M338.8 104.7a64 64 0 0 0 0 90.5L655.6 512L338.8 828.8a64 64 0 0 0 90.4 90.5l362.1-362a64 64 0 0 0 0-90.5l-362-362.1a64 64 0 0 0-90.5 0"/></symbol><symbol id="hd-icon-ep-arrow-up" viewBox="0 0 1024 1024"><path fill="currentColor" d="M488.8 344.3L149 701a32 32 0 0 0 0 44.2l.4.3a29.4 29.4 0 0 0 42.7 0l320-335.8l319.8 335.8a29.4 29.4 0 0 0 42.7 0l.4-.3a32 32 0 0 0 0-44.2L535.2 344.3a32 32 0 0 0-46.4 0"/></symbol><symbol id="hd-icon-ep-arrow-up-bold" viewBox="0 0 1024 1024"><path fill="currentColor" d="M104.7 685.2a64 64 0 0 0 90.5 0L512 368.4l316.8 316.8a64 64 0 0 0 90.5-90.4l-362-362.1a64 64 0 0 0-90.5 0l-362.1 362a64 64 0 0 0 0 90.5"/></symbol><symbol id="hd-icon-ep-avatar" viewBox="0 0 1024 1024"><path fill="currentColor" d="M628.7 528.9A416 416 0 0 1 928 928H96a416 416 0 0 1 299.3-399.1L512 704zM720 304a208 208 0 1 1-416 0a208 208 0 0 1 416 0"/></symbol><symbol id="hd-icon-ep-back" viewBox="0 0 1024 1024"><path fill="currentColor" d="M224 480h640a32 32 0 1 1 0 64H224a32 32 0 0 1 0-64"/><path fill="currentColor" d="m237.2 512l265.5 265.3a32 32 0 0 1-45.4 45.4l-288-288a32 32 0 0 1 0-45.4l288-288a32 32 0 1 1 45.4 45.4z"/></symbol><symbol id="hd-icon-ep-baseball" viewBox="0 0 1024 1024"><path fill="currentColor" d="M195.2 828.8a448 448 0 1 1 633.6-633.6a448 448 0 0 1-633.6 633.6m45.2-45.2a384 384 0 1 0 543.2-543.2a384 384 0 0 0-543.2 543.2"/><path fill="currentColor" d="M497.5 96.9a1678 1678 0 0 1 64.9 14.5a256.1 256.1 0 0 0 350.2 350.2q7.5 30.7 14.5 65A320.1 320.1 0 0 1 497.5 96.8m-389 395A320.1 320.1 0 0 1 532 915.6q-34.6-5.5-65.7-11.5a256.1 256.1 0 0 0-346.5-346.5a1737 1737 0 0 1-11.4-65.7"/></symbol><symbol id="hd-icon-ep-basketball" viewBox="0 0 1024 1024"><path fill="currentColor" d="M778.8 788.2a383 383 0 0 0 116-245.6a257 257 0 0 0-241.7-14a763 763 0 0 1 125.7 259.6m-55 44.2a700 700 0 0 0-125.1-269.6a256 256 0 0 0-56.1 332a383 383 0 0 0 181.1-62.4m-254 61.3a320 320 0 0 1 88-380.1a716 716 0 0 0-48.1-48.1a320 320 0 0 1-379.3 88.4a382 382 0 0 0 110.1 229.7a382 382 0 0 0 229.2 110zM129.2 481.1a256 256 0 0 0 331-56.5a700 700 0 0 0-268.7-124.3A383 383 0 0 0 129.3 481m106.5-235.9a763 763 0 0 1 258.7 125.1a257 257 0 0 0-13.4-241a383 383 0 0 0-245.3 116m318.1-115a321 321 0 0 1-8.4 281.3a780 780 0 0 1 66.1 66.2a321 321 0 0 1 282.2-8.2a382 382 0 0 0-110.2-229A382 382 0 0 0 554 130.2zm274.9 698.5a448 448 0 1 1-633.6-633.6a448 448 0 0 1 633.6 633.6"/></symbol><symbol id="hd-icon-ep-bell" viewBox="0 0 1024 1024"><path fill="currentColor" d="M512 64a64 64 0 0 1 64 64v64H448v-64a64 64 0 0 1 64-64"/><path fill="currentColor" d="M256 768h512V448a256 256 0 1 0-512 0zm256-640a320 320 0 0 1 320 320v384H192V448a320 320 0 0 1 320-320"/><path fill="currentColor" d="M96 768h832q32 0 32 32t-32 32H96q-32 0-32-32t32-32m352 128h128a64 64 0 0 1-128 0"/></symbol><symbol id="hd-icon-ep-bell-filled" viewBox="0 0 1024 1024"><path fill="currentColor" d="M640 832a128 128 0 0 1-256 0zm192-64H134.4a38.4 38.4 0 0 1 0-76.8H192V448a320 320 0 0 1 256.3-313.6a64 64 0 1 1 127.4 0A320 320 0 0 1 832 448v243.2h57.6a38.4 38.4 0 0 1 0 76.8z"/></symbol><symbol id="hd-icon-ep-bicycle" viewBox="0 0 1024 1024"><path fill="currentColor" d="M256 832a128 128 0 1 0 0-256a128 128 0 0 0 0 256m0 64a192 192 0 1 1 0-384a192 192 0 0 1 0 384"/><path fill="currentColor" d="M288 672h320q32 0 32 32t-32 32H288q-32 0-32-32t32-32"/><path fill="currentColor" d="M768 832a128 128 0 1 0 0-256a128 128 0 0 0 0 256m0 64a192 192 0 1 1 0-384a192 192 0 0 1 0 384"/><path fill="currentColor" d="M480 192a32 32 0 0 1 0-64h160a32 32 0 0 1 31 24.3l96 384a32 32 0 0 1-62 15.4L615 192zM96 384a32 32 0 0 1 0-64h128a32 32 0 0 1 30.3 21.9l64 192a32 32 0 1 1-60.6 20.2L201 384z"/><path fill="currentColor" d="m373.4 599.8l-42.8-47.6l320-288l42.8 47.6z"/></symbol><symbol id="hd-icon-ep-bottom" viewBox="0 0 1024 1024"><path fill="currentColor" d="M544 805.9V168a32 32 0 1 0-64 0v637.9l-233.3-248a30.7 30.7 0 0 0-45.4 0a35.5 35.5 0 0 0 0 48.1l288 306a30.7 30.7 0 0 0 45.4 0l288-306a35.5 35.5 0 0 0 0-48a30.7 30.7 0 0 0-45.4 0z"/></symbol><symbol id="hd-icon-ep-bottom-left" viewBox="0 0 1024 1024"><path fill="currentColor" d="M256 768h416a32 32 0 1 1 0 64H224a32 32 0 0 1-32-32V352a32 32 0 0 1 64 0z"/><path fill="currentColor" d="M246.7 822.7a32 32 0 0 1-45.4-45.4l544-544a32 32 0 0 1 45.4 45.4z"/></symbol><symbol id="hd-icon-ep-bottom-right" viewBox="0 0 1024 1024"><path fill="currentColor" d="M352 768a32 32 0 1 0 0 64h448a32 32 0 0 0 32-32V352a32 32 0 0 0-64 0v416z"/><path fill="currentColor" d="M777.3 822.7a32 32 0 0 0 45.4-45.4l-544-544a32 32 0 0 0-45.4 45.4z"/></symbol><symbol id="hd-icon-ep-bowl" viewBox="0 0 1024 1024"><path fill="currentColor" d="M714.4 704a352 352 0 0 0 148.2-256H161.4a352 352 0 0 0 148.2 256zM288 766.6A416 416 0 0 1 96 416a32 32 0 0 1 32-32h768a32 32 0 0 1 32 32a416 416 0 0 1-192 350.6V832a64 64 0 0 1-64 64H352a64 64 0 0 1-64-64zM493.2 320h-90.4L657.2 65.6a32 32 0 1 1 45.2 45.2zm187.4 0h-128l269.7-155.7a32 32 0 0 1 32 55.4zM352 768v64h320v-64z"/></symbol><symbol id="hd-icon-ep-box" viewBox="0 0 1024 1024"><path fill="currentColor" d="M317 128L128 344v552h768V344L707 128zm-14.5-64h419a32 32 0 0 1 24 10.9l206.6 236A32 32 0 0 1 960 332v596a32 32 0 0 1-32 32H96a32 32 0 0 1-32-32V332a32 32 0 0 1 8-21L278.3 75a32 32 0 0 1 24.1-11"/><path fill="currentColor" d="M64 320h896v64H64z"/><path fill="currentColor" d="M448 327.9V640h128V327.9L526 128h-28zM448 64h128l64 256v352a32 32 0 0 1-32 32H416a32 32 0 0 1-32-32V320z"/></symbol><symbol id="hd-icon-ep-briefcase" viewBox="0 0 1024 1024"><path fill="currentColor" d="M320 320V128h384v192h192v192H128V320zM128 576h768v320H128zm256-256h256V192H384z"/></symbol><symbol id="hd-icon-ep-brush" viewBox="0 0 1024 1024"><path fill="currentColor" d="M896 448H128v192a64 64 0 0 0 64 64h192v192h256V704h192a64 64 0 0 0 64-64zm-770.8-64q0-71.4 15.6-128q22.1-81 83.2-160h417.3l-15.4 70.3L736 96h211.2q-37.3 64.4-51.2 160a664 664 0 0 0-6.1 128H960v256a128 128 0 0 1-128 128H704v160a32 32 0 0 1-32 32H352a32 32 0 0 1-32-32V768H192A128 128 0 0 1 64 640V384zm64 0h636.6a730 730 0 0 1 6.8-137.2a619 619 0 0 1 18.7-86.8h-96.6L533.6 301.2L561.9 160H256.5a376 376 0 0 0-54 112.8q-13 48.2-13.2 111.2"/></symbol><symbol id="hd-icon-ep-brush-filled" viewBox="0 0 1024 1024"><path fill="currentColor" d="M608 704v160a96 96 0 0 1-192 0V704h-96a128 128 0 0 1-128-128h640a128 128 0 0 1-128 128zM192 512V128h640v384z"/></symbol><symbol id="hd-icon-ep-burger" viewBox="0 0 1024 1024"><path fill="currentColor" d="M160 512a32 32 0 0 0-32 32v64a32 32 0 0 0 30 32h706a32 32 0 0 0 32-32v-64a32 32 0 0 0-32-32zm736-58.6a96 96 0 0 1 64 90.6v64a96 96 0 0 1-52 85.3l-52.6 140.3a96 96 0 0 1-89.9 62.3h-507a96 96 0 0 1-89.9-62.3L116 693.4A96 96 0 0 1 64 608v-64a96 96 0 0 1 64-90.6V448a384 384 0 1 1 768 5.4m-64-5.4a320 320 0 0 0-640 0zM512 704H188.4l40.1 107.1a32 32 0 0 0 30 20.8h507a32 32 0 0 0 30-20.8L835.6 704z"/></symbol><symbol id="hd-icon-ep-calendar" viewBox="0 0 1024 1024"><path fill="currentColor" d="M128 384v512h768V192H768v32a32 32 0 1 1-64 0v-32H320v32a32 32 0 0 1-64 0v-32H128v128h768v64zm192-256h384V96a32 32 0 1 1 64 0v32h160a32 32 0 0 1 32 32v768a32 32 0 0 1-32 32H96a32 32 0 0 1-32-32V160a32 32 0 0 1 32-32h160V96a32 32 0 0 1 64 0zm-32 384h64a32 32 0 0 1 0 64h-64a32 32 0 0 1 0-64m0 192h64a32 32 0 1 1 0 64h-64a32 32 0 1 1 0-64m192-192h64a32 32 0 0 1 0 64h-64a32 32 0 0 1 0-64m0 192h64a32 32 0 1 1 0 64h-64a32 32 0 1 1 0-64m192-192h64a32 32 0 1 1 0 64h-64a32 32 0 1 1 0-64m0 192h64a32 32 0 1 1 0 64h-64a32 32 0 1 1 0-64"/></symbol><symbol id="hd-icon-ep-camera" viewBox="0 0 1024 1024"><path fill="currentColor" d="M896 256H128v576h768zm-199.4-64l-32-64h-305l-32 64zM96 192h160l46.3-92.6A64 64 0 0 1 359.6 64h305a64 64 0 0 1 57.1 35.3l46.5 92.7H928a32 32 0 0 1 32 32v640a32 32 0 0 1-32 32H96a32 32 0 0 1-32-32V224a32 32 0 0 1 32-32m416 512a160 160 0 1 0 0-320a160 160 0 0 0 0 320m0 64a224 224 0 1 1 0-448a224 224 0 0 1 0 448"/></symbol><symbol id="hd-icon-ep-camera-filled" viewBox="0 0 1024 1024"><path fill="currentColor" d="M160 224a64 64 0 0 0-64 64v512a64 64 0 0 0 64 64h704a64 64 0 0 0 64-64V288a64 64 0 0 0-64-64H748.4L702 131.3A64 64 0 0 0 644.7 96H379.3a64 64 0 0 0-57.2 35.4L275.8 224zm352 435.2a115.2 115.2 0 1 0 0-230.4a115.2 115.2 0 0 0 0 230.4m0 140.8a256 256 0 1 1 0-512a256 256 0 0 1 0 512"/></symbol><symbol id="hd-icon-ep-caret-bottom" viewBox="0 0 1024 1024"><path fill="currentColor" d="m192 384l320 384l320-384z"/></symbol><symbol id="hd-icon-ep-caret-left" viewBox="0 0 1024 1024"><path fill="currentColor" d="M672 192L288 512l384 320z"/></symbol><symbol id="hd-icon-ep-caret-right" viewBox="0 0 1024 1024"><path fill="currentColor" d="M384 192v640l384-320z"/></symbol><symbol id="hd-icon-ep-caret-top" viewBox="0 0 1024 1024"><path fill="currentColor" d="M512 320L192 704h640z"/></symbol><symbol id="hd-icon-ep-cellphone" viewBox="0 0 1024 1024"><path fill="currentColor" d="M256 128a64 64 0 0 0-64 64v640a64 64 0 0 0 64 64h512a64 64 0 0 0 64-64V192a64 64 0 0 0-64-64zm0-64h512a128 128 0 0 1 128 128v640a128 128 0 0 1-128 128H256a128 128 0 0 1-128-128V192A128 128 0 0 1 256 64m128 128h256a32 32 0 1 1 0 64H384a32 32 0 0 1 0-64m128 640a64 64 0 1 1 0-128a64 64 0 0 1 0 128"/></symbol><symbol id="hd-icon-ep-chat-dot-round" viewBox="0 0 1024 1024"><path fill="currentColor" d="M174.7 855.7L310 810.6l23.7 11.8A398 398 0 0 0 512 864c211.8 0 384-166.8 384-352S723.8 160 512 160S128 326.8 128 512c0 69.1 25 139.3 70.8 199.2L221 740zm-45.2 82.5A32 32 0 0 1 89.6 896L148 750c-53.3-69.6-84-153-84-238C64 299.9 256 96 512 96s448 203.9 448 416s-192 416-448 416a461 461 0 0 1-207-48.4z"/><path fill="currentColor" d="M512 563.2a51.2 51.2 0 1 1 0-102.4a51.2 51.2 0 0 1 0 102.4m192 0a51.2 51.2 0 1 1 0-102.4a51.2 51.2 0 0 1 0 102.4m-384 0a51.2 51.2 0 1 1 0-102.4a51.2 51.2 0 0 1 0 102.4"/></symbol><symbol id="hd-icon-ep-chat-dot-square" viewBox="0 0 1024 1024"><path fill="currentColor" d="M273.5 736H800a64 64 0 0 0 64-64V256a64 64 0 0 0-64-64H224a64 64 0 0 0-64 64v570.9zm22.5 64L148 918.4a32 32 0 0 1-52-25V256a128 128 0 0 1 128-128h576a128 128 0 0 1 128 128v416a128 128 0 0 1-128 128z"/><path fill="currentColor" d="M512 499.2a51.2 51.2 0 1 1 0-102.4a51.2 51.2 0 0 1 0 102.4m192 0a51.2 51.2 0 1 1 0-102.4a51.2 51.2 0 0 1 0 102.4m-384 0a51.2 51.2 0 1 1 0-102.4a51.2 51.2 0 0 1 0 102.4"/></symbol><symbol id="hd-icon-ep-chat-line-round" viewBox="0 0 1024 1024"><path fill="currentColor" d="M174.7 855.7L310 810.6l23.7 11.8A398 398 0 0 0 512 864c211.8 0 384-166.8 384-352S723.8 160 512 160S128 326.8 128 512c0 69.1 25 139.3 70.8 199.2L221 740zm-45.2 82.5A32 32 0 0 1 89.6 896L148 750c-53.3-69.6-84-153-84-238C64 299.9 256 96 512 96s448 203.9 448 416s-192 416-448 416a461 461 0 0 1-207-48.4z"/><path fill="currentColor" d="M352 576h320q32 0 32 32t-32 32H352q-32 0-32-32t32-32m32-192h256q32 0 32 32t-32 32H384q-32 0-32-32t32-32"/></symbol><symbol id="hd-icon-ep-chat-line-square" viewBox="0 0 1024 1024"><path fill="currentColor" d="M160 826.9L273.5 736H800a64 64 0 0 0 64-64V256a64 64 0 0 0-64-64H224a64 64 0 0 0-64 64zM296 800L148 918.4a32 32 0 0 1-52-25V256a128 128 0 0 1 128-128h576a128 128 0 0 1 128 128v416a128 128 0 0 1-128 128z"/><path fill="currentColor" d="M352 512h320q32 0 32 32t-32 32H352q-32 0-32-32t32-32m0-192h320q32 0 32 32t-32 32H352q-32 0-32-32t32-32"/></symbol><symbol id="hd-icon-ep-chat-round" viewBox="0 0 1024 1024"><path fill="currentColor" d="m174.7 855.7l130-43.4l23.5 11.4A418 418 0 0 0 512 864c223.7 0 384-159.9 384-352c0-192.8-159.1-352-384-352S128 319.2 128 512a341 341 0 0 0 69.2 204.3L219 745zm-45.2 82.5A32 32 0 0 1 89.6 896l56.5-141.2A405 405 0 0 1 64 512C64 299.9 235.6 96 512 96s448 203.9 448 416s-173.4 416-448 416a481 481 0 0 1-211.7-46.7z"/></symbol><symbol id="hd-icon-ep-chat-square" viewBox="0 0 1024 1024"><path fill="currentColor" d="M273.5 736H800a64 64 0 0 0 64-64V256a64 64 0 0 0-64-64H224a64 64 0 0 0-64 64v570.9zm22.5 64L148 918.4a32 32 0 0 1-52-25V256a128 128 0 0 1 128-128h576a128 128 0 0 1 128 128v416a128 128 0 0 1-128 128z"/></symbol><symbol id="hd-icon-ep-check" viewBox="0 0 1024 1024"><path fill="currentColor" d="M406.7 707L195.8 496.2a32 32 0 1 0-45.2 45.2l256 256l512-512a32 32 0 0 0-45.3-45.2L406.6 706.9z"/></symbol><symbol id="hd-icon-ep-checked" viewBox="0 0 1024 1024"><path fill="currentColor" d="M704 192h160v736H160V192h160v64h384zM311.6 537.3l-45.3 45.2l181 181l316.9-316.8l-45.4-45.2L447.4 673zM384 192V96h256v96z"/></symbol><symbol id="hd-icon-ep-cherry" viewBox="0 0 1024 1024"><path fill="currentColor" d="M261 449.6q20.8-104.6 63.4-177.7Q360 210.7 436.7 128H320a32 32 0 0 1 0-64h384a32 32 0 1 1 0 64H554.8q22.3 58.9 79.5 141.8c47.4 68.4 84.8 106.7 106.3 114.3a224 224 0 1 1-85 14.7q-33.7-34.3-73.9-92.6q-58.3-84-84.4-149.3q-83 87.6-117.7 147.2q-34.8 59.7-53.6 147.1a224 224 0 1 1-65-1.6M288 832a160 160 0 1 0 0-320a160 160 0 0 0 0 320m448-64a160 160 0 1 0 0-320a160 160 0 0 0 0 320"/></symbol><symbol id="hd-icon-ep-chicken" viewBox="0 0 1024 1024"><path fill="currentColor" d="m350 717l128.7-128.8a107 107 0 0 1-26.2-19.1a107 107 0 0 1-19-26.2L304.7 671.7q1.2 4.7 2 9.3l2.1 31.9l31.9 2zm57.3 33.2A128 128 0 1 1 191 864.6l-2-32l-32-2a128 128 0 1 1 114.5-216.3l145.1-145c-2.4-101.5 58.2-239.2 149.1-330.1C673 31.9 797 53.7 882.5 139.2s107.3 209.4 0 316.8c-91 90.9-228.7 151.4-330.1 149zm90.5-226.3c49.5 49.6 233.3-7 339.4-113c78.2-78.3 63.2-163.1 0-226.4c-63.2-63.2-148-78.2-226.3 0c-106 106.1-162.6 290-113.1 339.4M244.8 709a64 64 0 1 0-59.8 59.9l56.3-3.6zm8.1 127.7a64 64 0 1 0 59.9-59.8l-56.4 3.5z"/></symbol><symbol id="hd-icon-ep-chrome-filled" viewBox="0 0 1024 1024"><path fill="currentColor" d="M938.7 512c0-44.6-6.9-87.6-19.6-128H682.7a212 212 0 0 1 42.6 128c.1 38.7-10.4 76.7-30.4 109.9L512 938.7c235.7 0 426.7-191 426.7-426.7"/><path fill="currentColor" d="M576.8 401.6a128 128 0 0 0-63.6-17.6a128 128 0 0 0-111.1 62.4a128 128 0 0 0-2.2 127.5l1.3 2.1a128 128 0 0 0 46.3 46.6A128 128 0 0 0 511 640c22.3.2 44.3-5.4 63.7-16.3a128 128 0 0 0 47.2-45.8l1-1.9a128 128 0 0 0 .4-127.5a128 128 0 0 0-46.4-46.9"/><path fill="currentColor" d="M394.5 334A213 213 0 0 1 512 298.7h369.6A427 427 0 0 0 512 85.3a426 426 0 0 0-171.7 36a426 426 0 0 0-142.7 102.2l118.2 204.7a213 213 0 0 1 78.6-94.2m20.4 368a213 213 0 0 1-89.6-86.9L142.5 298.6a426.8 426.8 0 0 0 276.8 630l118.2-204.7a213 213 0 0 1-122.7-22"/></symbol><symbol id="hd-icon-ep-circle-check" viewBox="0 0 1024 1024"><path fill="currentColor" d="M512 896a384 384 0 1 0 0-768a384 384 0 0 0 0 768m0 64a448 448 0 1 1 0-896a448 448 0 0 1 0 896"/><path fill="currentColor" d="M745.3 361.3a32 32 0 0 1 45.4 45.4l-288 288a32 32 0 0 1-45.4 0l-160-160a32 32 0 1 1 45.4-45.4L480 626.8z"/></symbol><symbol id="hd-icon-ep-circle-check-filled" viewBox="0 0 1024 1024"><path fill="currentColor" d="M512 64a448 448 0 1 1 0 896a448 448 0 0 1 0-896m-55.8 536.4l-99.5-99.6a38.4 38.4 0 1 0-54.4 54.3L429.1 682a38.3 38.3 0 0 0 54.3 0l262.4-262.5a38.4 38.4 0 1 0-54.3-54.3z"/></symbol><symbol id="hd-icon-ep-circle-close" viewBox="0 0 1024 1024"><path fill="currentColor" d="m466.8 512l-90.5-90.5a32 32 0 0 1 45.2-45.2l90.5 90.5l90.5-90.5a32 32 0 1 1 45.2 45.2L557.2 512l90.5 90.5a32 32 0 1 1-45.2 45.2L512 557.2l-90.5 90.5a32 32 0 0 1-45.2-45.2z"/><path fill="currentColor" d="M512 896a384 384 0 1 0 0-768a384 384 0 0 0 0 768m0 64a448 448 0 1 1 0-896a448 448 0 0 1 0 896"/></symbol><symbol id="hd-icon-ep-circle-close-filled" viewBox="0 0 1024 1024"><path fill="currentColor" d="M512 64a448 448 0 1 1 0 896a448 448 0 0 1 0-896m0 393.7L408 353.6a38.4 38.4 0 1 0-54.4 54.3l104 104.1l-104 104a38.4 38.4 0 1 0 54.3 54.4l104.1-104l104 104a38.4 38.4 0 1 0 54.4-54.3L566.4 512l104-104a38.4 38.4 0 1 0-54.3-54.4z"/></symbol><symbol id="hd-icon-ep-circle-plus" viewBox="0 0 1024 1024"><path fill="currentColor" d="M352 480h320a32 32 0 1 1 0 64H352a32 32 0 0 1 0-64"/><path fill="currentColor" d="M480 672V352a32 32 0 1 1 64 0v320a32 32 0 0 1-64 0"/><path fill="currentColor" d="M512 896a384 384 0 1 0 0-768a384 384 0 0 0 0 768m0 64a448 448 0 1 1 0-896a448 448 0 0 1 0 896"/></symbol><symbol id="hd-icon-ep-circle-plus-filled" viewBox="0 0 1024 1024"><path fill="currentColor" d="M512 64a448 448 0 1 1 0 896a448 448 0 0 1 0-896m-38.4 409.6H326.4a38.4 38.4 0 1 0 0 76.8h147.2v147.2a38.4 38.4 0 0 0 76.8 0V550.4h147.2a38.4 38.4 0 0 0 0-76.8H550.4V326.4a38.4 38.4 0 1 0-76.8 0z"/></symbol><symbol id="hd-icon-ep-clock" viewBox="0 0 1024 1024"><path fill="currentColor" d="M512 896a384 384 0 1 0 0-768a384 384 0 0 0 0 768m0 64a448 448 0 1 1 0-896a448 448 0 0 1 0 896"/><path fill="currentColor" d="M480 256a32 32 0 0 1 32 32v256a32 32 0 0 1-64 0V288a32 32 0 0 1 32-32"/><path fill="currentColor" d="M480 512h256q32 0 32 32t-32 32H480q-32 0-32-32t32-32"/></symbol><symbol id="hd-icon-ep-close" viewBox="0 0 1024 1024"><path fill="currentColor" d="M764.3 214.6L512 466.9L259.7 214.6a32 32 0 0 0-45.1 45.1L466.8 512L214.5 764.2a32 32 0 1 0 45.1 45.2L512 557.2l252.3 252.3a32 32 0 0 0 45.1-45.1L557.1 512l252.3-252.4a32 32 0 1 0-45.1-45.2z"/></symbol><symbol id="hd-icon-ep-close-bold" viewBox="0 0 1024 1024"><path fill="currentColor" d="M195.2 195.2a64 64 0 0 1 90.5 0L512 421.5l226.3-226.3a64 64 0 0 1 90.5 90.5L602.5 512l226.3 226.3a64 64 0 0 1-90.5 90.5L512 602.5L285.7 828.8a64 64 0 0 1-90.5-90.5L421.5 512L195.2 285.7a64 64 0 0 1 0-90.5"/></symbol><symbol id="hd-icon-ep-cloudy" viewBox="0 0 1024 1024"><path fill="currentColor" d="M598.4 831.9H328.2a256 256 0 0 1-34.5-510.6A352 352 0 1 1 598.4 832M327 768h272.3a288 288 0 1 0-248.5-417.7L335 381.4l-34.8 3.6a192 192 0 0 0 26.9 383z"/></symbol><symbol id="hd-icon-ep-coffee" viewBox="0 0 1024 1024"><path fill="currentColor" d="M822.6 192h14.3a32 32 0 0 1 31.6 26.8l21.3 128a32 32 0 0 1-31.6 37.2H809l-39 546.3a32 32 0 0 1-32 29.7H286a32 32 0 0 1-32-29.7L215 384h-49.1a32 32 0 0 1-31.6-37.2l21.3-128a32 32 0 0 1 31.6-26.8h14l-6.7-93.7a32 32 0 0 1 32-34.3h571a32 32 0 0 1 32 34.3zm-64.1 0l4.5-64H260.7l4.6 64zM210.3 320h610.2l-10.7-64H214.2l-10.7 64zm68.7 64l36.6 512h392.6l36.5-512z"/></symbol><symbol id="hd-icon-ep-coffee-cup" viewBox="0 0 1024 1024"><path fill="currentColor" d="M768 192a192 192 0 1 1-8 383.8A256 256 0 0 1 512 768H320A256 256 0 0 1 64 512V160a32 32 0 0 1 32-32h640a32 32 0 0 1 32 32zm0 64v256a128 128 0 1 0 0-256M96 832h640a32 32 0 1 1 0 64H96a32 32 0 1 1 0-64m32-640v320a192 192 0 0 0 192 192h192a192 192 0 0 0 192-192V192z"/></symbol><symbol id="hd-icon-ep-coin" viewBox="0 0 1024 1024"><path fill="currentColor" d="m162 580.7l29.8 59c-20.5 20-31.8 42-31.8 64.3c0 82.3 155.3 160 352 160s352-77.7 352-160c0-22.3-11.4-44.2-31.8-64.3l30.5-58.5C903.9 615.8 928 657.7 928 704c0 129.7-188.5 224-416 224S96 833.7 96 704c0-46.6 24.3-88.6 66-123.3"/><path fill="currentColor" d="m162 388.7l29.8 59c-20.5 20.1-31.8 42-31.8 64.3c0 82.3 155.3 160 352 160s352-77.7 352-160c0-22.3-11.4-44.2-31.8-64.3l30.5-58.5C903.9 423.8 928 465.7 928 512c0 129.7-188.5 224-416 224S96 641.7 96 512c0-46.6 24.3-88.6 66-123.3"/><path fill="currentColor" d="M512 544c-227.5 0-416-94.3-416-224S284.5 96 512 96s416 94.3 416 224s-188.5 224-416 224m0-64c196.7 0 352-77.7 352-160S708.7 160 512 160s-352 77.7-352 160s155.3 160 352 160"/></symbol><symbol id="hd-icon-ep-cold-drink" viewBox="0 0 1024 1024"><path fill="currentColor" d="M768 64a192 192 0 1 1-70 370.9L480 725.4V896h96a32 32 0 1 1 0 64H320a32 32 0 1 1 0-64h96V725.4L76.8 273.5A64 64 0 0 1 64 235.1v-10.7a32 32 0 0 1 32-32h71.8l-65.5-83.8a32 32 0 0 1 50.4-39.4L249 192.4h337.7A192 192 0 0 1 768 64M656.9 192.4H800a32 32 0 0 1 32 32v10.7a64 64 0 0 1-12.8 38.4l-80.4 107.2a128 128 0 1 0-82-188.2zm-357.9 64l129.5 165.8a32 32 0 0 1-50.5 39.4L217.8 256.4H144l304 405l304-405z"/></symbol><symbol id="hd-icon-ep-collection" viewBox="0 0 1024 1024"><path fill="currentColor" d="M192 736h640V128H256a64 64 0 0 0-64 64zm64-672h608a32 32 0 0 1 32 32v672a32 32 0 0 1-32 32H160l-32 57.5V192A128 128 0 0 1 256 64"/><path fill="currentColor" d="M240 800a48 48 0 1 0 0 96h592v-96zm0-64h656v160a64 64 0 0 1-64 64H240a112 112 0 0 1 0-224m144-608v250.9l96-76.8l96 76.8V128zm-64-64h320v381.4a32 32 0 0 1-52 25L480 384l-108 86.4a32 32 0 0 1-52-25z"/></symbol><symbol id="hd-icon-ep-collection-tag" viewBox="0 0 1024 1024"><path fill="currentColor" d="M256 128v698.9L452 670a96 96 0 0 1 120 0l196 156.8V128zm-32-64h576a32 32 0 0 1 32 32v797.4a32 32 0 0 1-52 25L532 720a32 32 0 0 0-40 0L244 918.4a32 32 0 0 1-52-25V96a32 32 0 0 1 32-32"/></symbol><symbol id="hd-icon-ep-comment" viewBox="0 0 1024 1024"><path fill="currentColor" d="M736 504a56 56 0 1 1 0-112a56 56 0 0 1 0 112m-224 0a56 56 0 1 1 0-112a56 56 0 0 1 0 112m-224 0a56 56 0 1 1 0-112a56 56 0 0 1 0 112M128 128v640h192v160l224-160h352V128z"/></symbol><symbol id="hd-icon-ep-compass" viewBox="0 0 1024 1024"><path fill="currentColor" d="M512 896a384 384 0 1 0 0-768a384 384 0 0 0 0 768m0 64a448 448 0 1 1 0-896a448 448 0 0 1 0 896"/><path fill="currentColor" d="M725.9 315q-74.1 170.6-157.3 253.6Q485.5 652 315 726a12.8 12.8 0 0 1-16.9-16.9q74.3-170.6 157.3-253.6t253.7-157.3a12.8 12.8 0 0 1 16.8 16.8"/></symbol><symbol id="hd-icon-ep-connection" viewBox="0 0 1024 1024"><path fill="currentColor" d="M640 384v64H448a128 128 0 0 0-128 128v128a128 128 0 0 0 128 128h320a128 128 0 0 0 128-128V576a128 128 0 0 0-64-110.8v-70.3a192 192 0 0 1 128 181v128a192 192 0 0 1-192 192H448a192 192 0 0 1-192-192V576a192 192 0 0 1 192-192z"/><path fill="currentColor" d="M384 640v-64h192a128 128 0 0 0 128-128V320a128 128 0 0 0-128-128H256a128 128 0 0 0-128 128v128a128 128 0 0 0 64 110.8v70.3A192 192 0 0 1 64 448V320a192 192 0 0 1 192-192h320a192 192 0 0 1 192 192v128a192 192 0 0 1-192 192z"/></symbol><symbol id="hd-icon-ep-coordinate" viewBox="0 0 1024 1024"><path fill="currentColor" d="M480 512h64v320h-64z"/><path fill="currentColor" d="M192 896h640a64 64 0 0 0-64-64H256a64 64 0 0 0-64 64m64-128h512a128 128 0 0 1 128 128v64H128v-64a128 128 0 0 1 128-128m256-256a192 192 0 1 0 0-384a192 192 0 0 0 0 384m0 64a256 256 0 1 1 0-512a256 256 0 0 1 0 512"/></symbol><symbol id="hd-icon-ep-copy-document" viewBox="0 0 1024 1024"><path fill="currentColor" d="M768 832a128 128 0 0 1-128 128H192A128 128 0 0 1 64 832V384a128 128 0 0 1 128-128v64a64 64 0 0 0-64 64v448a64 64 0 0 0 64 64h448a64 64 0 0 0 64-64z"/><path fill="currentColor" d="M384 128a64 64 0 0 0-64 64v448a64 64 0 0 0 64 64h448a64 64 0 0 0 64-64V192a64 64 0 0 0-64-64zm0-64h448a128 128 0 0 1 128 128v448a128 128 0 0 1-128 128H384a128 128 0 0 1-128-128V192A128 128 0 0 1 384 64"/></symbol><symbol id="hd-icon-ep-cpu" viewBox="0 0 1024 1024"><path fill="currentColor" d="M320 256a64 64 0 0 0-64 64v384a64 64 0 0 0 64 64h384a64 64 0 0 0 64-64V320a64 64 0 0 0-64-64zm0-64h384a128 128 0 0 1 128 128v384a128 128 0 0 1-128 128H320a128 128 0 0 1-128-128V320a128 128 0 0 1 128-128"/><path fill="currentColor" d="M512 64a32 32 0 0 1 32 32v128h-64V96a32 32 0 0 1 32-32m160 0a32 32 0 0 1 32 32v128h-64V96a32 32 0 0 1 32-32m-320 0a32 32 0 0 1 32 32v128h-64V96a32 32 0 0 1 32-32m160 896a32 32 0 0 1-32-32V800h64v128a32 32 0 0 1-32 32m160 0a32 32 0 0 1-32-32V800h64v128a32 32 0 0 1-32 32m-320 0a32 32 0 0 1-32-32V800h64v128a32 32 0 0 1-32 32M64 512a32 32 0 0 1 32-32h128v64H96a32 32 0 0 1-32-32m0-160a32 32 0 0 1 32-32h128v64H96a32 32 0 0 1-32-32m0 320a32 32 0 0 1 32-32h128v64H96a32 32 0 0 1-32-32m896-160a32 32 0 0 1-32 32H800v-64h128a32 32 0 0 1 32 32m0-160a32 32 0 0 1-32 32H800v-64h128a32 32 0 0 1 32 32m0 320a32 32 0 0 1-32 32H800v-64h128a32 32 0 0 1 32 32"/></symbol><symbol id="hd-icon-ep-credit-card" viewBox="0 0 1024 1024"><path fill="currentColor" d="M896 324.1c0-42.4-2.5-55.3-9.5-68.5a52 52 0 0 0-22.2-22c-13.1-7.1-26-9.6-68.4-9.6H228.1c-42.4 0-55.3 2.5-68.5 9.5a52 52 0 0 0-22 22.2c-7.1 13.1-9.6 26-9.6 68.4v375.8c0 42.4 2.5 55.3 9.5 68.5a52 52 0 0 0 22.2 22c13.1 7.1 26 9.6 68.4 9.6h567.8c42.4 0 55.3-2.5 68.5-9.5a52 52 0 0 0 22-22.2c7.1-13.1 9.6-26 9.6-68.4zm64 0v375.8c0 57-6 77.8-17 98.6q-17 31.5-48.5 48.4C863 864 853 864 796 864H228c-57 0-77.7-6-98.5-17A116 116 0 0 1 81 798.4C70 777.7 64 757 64 700V324c0-57 5.9-77.7 17-98.5q17-31.6 48.4-48.5c31.4-16.9 41.6-17 98.6-17h567.8c57.1 0 77.8 5.9 98.6 17q31.6 17 48.4 48.4C959.6 256.8 960 267 960 324z"/><path fill="currentColor" d="M64 320h896v64H64zm0 128h896v64H64zm128 192h256v64H192z"/></symbol><symbol id="hd-icon-ep-crop" viewBox="0 0 1024 1024"><path fill="currentColor" d="M256 768h672a32 32 0 1 1 0 64H224a32 32 0 0 1-32-32V96a32 32 0 0 1 64 0z"/><path fill="currentColor" d="M832 224v704a32 32 0 1 1-64 0V256H96a32 32 0 0 1 0-64h704a32 32 0 0 1 32 32"/></symbol><symbol id="hd-icon-ep-d-arrow-left" viewBox="0 0 1024 1024"><path fill="currentColor" d="M529.4 149.4a29 29 0 0 1 41.7 0a30.6 30.6 0 0 1 0 42.7L259.3 511.9L571 832a30.6 30.6 0 0 1-.5 43.2a29 29 0 0 1-41.2-.5L197.8 534.3a32 32 0 0 1 0-44.7zm256 0a29 29 0 0 1 41.7 0a30.6 30.6 0 0 1 0 42.7L515.3 511.9L827 832a30.6 30.6 0 0 1-.5 43.2a29 29 0 0 1-41.2-.5L453.8 534.3a32 32 0 0 1 0-44.7z"/></symbol><symbol id="hd-icon-ep-d-arrow-right" viewBox="0 0 1024 1024"><path fill="currentColor" d="M452.9 149.3a29 29 0 0 1 41.7 0l331.6 340.4a32 32 0 0 1 0 44.6L494.6 874.6a29 29 0 0 1-41.7 0a30.6 30.6 0 0 1 0-42.7L764.7 512L453 192a30.6 30.6 0 0 1 0-42.7m-256 0a29 29 0 0 1 41.7 0l331.6 340.4a32 32 0 0 1 0 44.6L238.6 874.6a29 29 0 0 1-41.7 0a30.6 30.6 0 0 1 0-42.7L508.7 512L197 192a30.6 30.6 0 0 1 0-42.7"/></symbol><symbol id="hd-icon-ep-d-caret" viewBox="0 0 1024 1024"><path fill="currentColor" d="m512 128l288 320H224zM224 576h576L512 896z"/></symbol><symbol id="hd-icon-ep-data-analysis" viewBox="0 0 1024 1024"><path fill="currentColor" d="m665.2 768l110.9 192h-73.9L591.4 768H433L322.2 960h-73.9l110.9-192H160a32 32 0 0 1-32-32V192H64a32 32 0 0 1 0-64h896a32 32 0 1 1 0 64h-64v544a32 32 0 0 1-32 32zM832 192H192v512h640zM352 448a32 32 0 0 1 32 32v64a32 32 0 0 1-64 0v-64a32 32 0 0 1 32-32m160-64a32 32 0 0 1 32 32v128a32 32 0 0 1-64 0V416a32 32 0 0 1 32-32m160-64a32 32 0 0 1 32 32v192a32 32 0 1 1-64 0V352a32 32 0 0 1 32-32"/></symbol><symbol id="hd-icon-ep-data-board" viewBox="0 0 1024 1024"><path fill="currentColor" d="M32 128h960v64H32z"/><path fill="currentColor" d="M192 192v512h640V192zm-64-64h768v608a32 32 0 0 1-32 32H160a32 32 0 0 1-32-32z"/><path fill="currentColor" d="M322.2 960h-73.9L393 709.4l55.4 32zm453.9 0h-73.9L576 741.4l55.4-32z"/></symbol><symbol id="hd-icon-ep-data-line" viewBox="0 0 1024 1024"><path fill="currentColor" d="M359.2 768H160a32 32 0 0 1-32-32V192H64a32 32 0 0 1 0-64h896a32 32 0 1 1 0 64h-64v544a32 32 0 0 1-32 32H665.2l110.9 192h-73.9L591.4 768H433L322.2 960h-73.9zM832 192H192v512h640zM342.7 534.7a32 32 0 1 1-45.4-45.4L445 341.8l125.4 94L679 300a32 32 0 1 1 50 40L581.6 524.2l-130.6-98l-108.3 108.4z"/></symbol><symbol id="hd-icon-ep-delete" viewBox="0 0 1024 1024"><path fill="currentColor" d="M160 256H96a32 32 0 0 1 0-64h256V96a32 32 0 0 1 32-32h256a32 32 0 0 1 32 32v96h256a32 32 0 1 1 0 64h-64v672a32 32 0 0 1-32 32H192a32 32 0 0 1-32-32zm448-64v-64H416v64zM224 896h576V256H224zm192-128a32 32 0 0 1-32-32V416a32 32 0 0 1 64 0v320a32 32 0 0 1-32 32m192 0a32 32 0 0 1-32-32V416a32 32 0 0 1 64 0v320a32 32 0 0 1-32 32"/></symbol><symbol id="hd-icon-ep-delete-filled" viewBox="0 0 1024 1024"><path fill="currentColor" d="M352 192V96a32 32 0 0 1 32-32h256a32 32 0 0 1 32 32v96h256a32 32 0 1 1 0 64H96a32 32 0 0 1 0-64zm64 0h192v-64H416zM192 960a32 32 0 0 1-32-32V256h704v672a32 32 0 0 1-32 32zm224-192a32 32 0 0 0 32-32V416a32 32 0 0 0-64 0v320a32 32 0 0 0 32 32m192 0a32 32 0 0 0 32-32V416a32 32 0 0 0-64 0v320a32 32 0 0 0 32 32"/></symbol><symbol id="hd-icon-ep-delete-location" viewBox="0 0 1024 1024"><path fill="currentColor" d="M288 896h448q32 0 32 32t-32 32H288q-32 0-32-32t32-32"/><path fill="currentColor" d="M800 416a288 288 0 1 0-576 0c0 118.1 94.5 272.1 288 456.6C705.5 688 800 534 800 416M512 960Q160 640 160 416a352 352 0 0 1 704 0q0 224-352 544"/><path fill="currentColor" d="M384 384h256q32 0 32 32t-32 32H384q-32 0-32-32t32-32"/></symbol><symbol id="hd-icon-ep-dessert" viewBox="0 0 1024 1024"><path fill="currentColor" d="M128 416v-48a144 144 0 0 1 168.6-141.9a224.1 224.1 0 0 1 430.8 0A144 144 0 0 1 896 368v48a384 384 0 0 1-352 382.7V896h-64v-97.3A384 384 0 0 1 128 416m287.1-32h193.8a144 144 0 0 1 58.9-132.8a160 160 0 0 0-311.6 0A144 144 0 0 1 415.1 384m-72.9 0a72 72 0 1 0-140.5 0zm339.6 0h140.4a72 72 0 1 0-140.5 0zM512 736a320 320 0 0 0 318.4-288H193.6A320 320 0 0 0 512 736M384 896h256a32 32 0 1 1 0 64H384a32 32 0 1 1 0-64"/></symbol><symbol id="hd-icon-ep-discount" viewBox="0 0 1024 1024"><path fill="currentColor" d="M224 704h576V318.3L552.5 115.8a64 64 0 0 0-81 0L224 318.3zm0 64v128h576V768zM593 66.3l259.2 212.1a32 32 0 0 1 11.8 24.8V928a32 32 0 0 1-32 32H192a32 32 0 0 1-32-32V303.2a32 32 0 0 1 11.7-24.8L431 66.3a128 128 0 0 1 162.1 0"/><path fill="currentColor" d="M512 448a64 64 0 1 0 0-128a64 64 0 0 0 0 128m0 64a128 128 0 1 1 0-256a128 128 0 0 1 0 256"/></symbol><symbol id="hd-icon-ep-dish" viewBox="0 0 1024 1024"><path fill="currentColor" d="M480 257.2V192h-96a32 32 0 0 1 0-64h256a32 32 0 1 1 0 64h-96v65.2A448 448 0 0 1 955.5 768h-887A448 448 0 0 1 480 257.2M128 704h768a384 384 0 1 0-768 0M96 832h832a32 32 0 1 1 0 64H96a32 32 0 1 1 0-64"/></symbol><symbol id="hd-icon-ep-dish-dot" viewBox="0 0 1024 1024"><path fill="currentColor" d="m384 274.6l.1-50.7A128 128 0 0 1 512.1 96c70.6 0 127.7 57.2 127.7 127.7v50.7A448 448 0 0 1 955.4 768H68.5A448 448 0 0 1 384 274.6M96 832h832a32 32 0 1 1 0 64H96a32 32 0 1 1 0-64m32-128h768a384 384 0 1 0-768 0m447.8-448v-32.3a63.7 63.7 0 0 0-63.7-63.7a64 64 0 0 0-64 64v32z"/></symbol><symbol id="hd-icon-ep-document" viewBox="0 0 1024 1024"><path fill="currentColor" d="M832 384H576V128H192v768h640zm-26.5-64L640 154.5V320zM160 64h480l256 256v608a32 32 0 0 1-32 32H160a32 32 0 0 1-32-32V96a32 32 0 0 1 32-32m160 448h384v64H320zm0-192h160v64H320zm0 384h384v64H320z"/></symbol><symbol id="hd-icon-ep-document-add" viewBox="0 0 1024 1024"><path fill="currentColor" d="M832 384H576V128H192v768h640zm-26.5-64L640 154.5V320zM160 64h480l256 256v608a32 32 0 0 1-32 32H160a32 32 0 0 1-32-32V96a32 32 0 0 1 32-32m320 512V448h64v128h128v64H544v128h-64V640H352v-64z"/></symbol><symbol id="hd-icon-ep-document-checked" viewBox="0 0 1024 1024"><path fill="currentColor" d="M805.5 320L640 154.5V320zm26.5 64H576V128H192v768h640zM160 64h480l256 256v608a32 32 0 0 1-32 32H160a32 32 0 0 1-32-32V96a32 32 0 0 1 32-32m318.4 582.1l181-181l45.2 45.3l-226.2 226.2L320 578.3l45.2-45.3z"/></symbol><symbol id="hd-icon-ep-document-copy" viewBox="0 0 1024 1024"><path fill="currentColor" d="M128 320v576h576V320zm-32-64h640a32 32 0 0 1 32 32v640a32 32 0 0 1-32 32H96a32 32 0 0 1-32-32V288a32 32 0 0 1 32-32M960 96v704a32 32 0 0 1-32 32h-96v-64h64V128H384v64h-64V96a32 32 0 0 1 32-32h576a32 32 0 0 1 32 32M256 672h320v64H256zm0-192h320v64H256z"/></symbol><symbol id="hd-icon-ep-document-delete" viewBox="0 0 1024 1024"><path fill="currentColor" d="M805.5 320L640 154.5V320zm26.5 64H576V128H192v768h640zM160 64h480l256 256v608a32 32 0 0 1-32 32H160a32 32 0 0 1-32-32V96a32 32 0 0 1 32-32m309 546.3l-90.5-90.6l45.2-45.3l90.6 90.5l90.5-90.4l45.2 45.2l-90.4 90.6l90.4 90.5l-45.2 45.2l-90.5-90.4l-90.6 90.4l-45.2-45.2z"/></symbol><symbol id="hd-icon-ep-document-remove" viewBox="0 0 1024 1024"><path fill="currentColor" d="M805.5 320L640 154.5V320zm26.5 64H576V128H192v768h640zM160 64h480l256 256v608a32 32 0 0 1-32 32H160a32 32 0 0 1-32-32V96a32 32 0 0 1 32-32m192 512h320v64H352z"/></symbol><symbol id="hd-icon-ep-download" viewBox="0 0 1024 1024"><path fill="currentColor" d="M160 832h704a32 32 0 1 1 0 64H160a32 32 0 1 1 0-64m384-253.7L780.3 342l45.2 45.2L508.8 704L192 387.2l45.2-45.2L480 584.7V128h64z"/></symbol><symbol id="hd-icon-ep-drizzling" viewBox="0 0 1024 1024"><path fill="currentColor" d="m739.3 291.3l-35.2-6.6l-12.8-33.4a192 192 0 0 0-366 23.3l-9.8 40.9l-41.5 7a176 176 0 0 0-146.3 173.6c0 97.2 78.8 175.9 175.9 175.9h400a192 192 0 0 0 35.7-380.7M959.6 480a256 256 0 0 1-256 256h-400A240 240 0 0 1 63.7 496.2a240 240 0 0 1 199.5-236.8a256.1 256.1 0 0 1 487.9-31A256 256 0 0 1 959.6 480M288 800h64v64h-64zm192 0h64v64h-64zm-96 96h64v64h-64zm192 0h64v64h-64zm96-96h64v64h-64z"/></symbol><symbol id="hd-icon-ep-edit" viewBox="0 0 1024 1024"><path fill="currentColor" d="M832 512a32 32 0 1 1 64 0v352a32 32 0 0 1-32 32H160a32 32 0 0 1-32-32V160a32 32 0 0 1 32-32h352a32 32 0 0 1 0 64H192v640h640z"/><path fill="currentColor" d="m470 554.2l52.8-7.5L847 222.4a32 32 0 1 0-45.2-45.2L477.4 501.4l-7.5 52.8zm422.4-422.4a96 96 0 0 1 0 135.8L560.5 599.5a32 32 0 0 1-18.1 9l-105.6 15.2a32 32 0 0 1-36.2-36.2l15-105.6a32 32 0 0 1 9.1-18.2l332-331.8a96 96 0 0 1 135.7 0z"/></symbol><symbol id="hd-icon-ep-edit-pen" viewBox="0 0 1024 1024"><path fill="currentColor" d="m199 672.6l194 112l224-388l-193.9-112l-224 388.1zm-23.8 60.2L208 881.1l145-45.7zM455 229.2l194 112l56.7-98l-194-112zM104.3 708.8l384-665l304.8 176l-384 665h.1l-248.4 78.3zm384 254.3v-64h448v64z"/></symbol><symbol id="hd-icon-ep-eleme" viewBox="0 0 1024 1024"><path fill="currentColor" d="M300 188.8a379.4 379.4 0 0 1 522.3 109.4c5.7 10.6 11.5 20.2 17.3 30.8v1a22.4 22.4 0 0 1-7.7 26.8L479.6 585.3c-9.6 6.7-22.1 3.8-28.8-5.8l-18.3-27.8a54.3 54.3 0 0 1 16.3-74.9l225.6-146.9c9.6-6.7 12.5-19.2 5.8-28.8c-1-1.9-2-3.8-3.8-4.8A268 268 0 0 0 360.5 279a269.4 269.4 0 0 0-78.7 371.6a268 268 0 0 0 370.6 78.7a54.3 54.3 0 0 1 74.8 16.3l17.3 26.9a21 21 0 0 1-4.8 27.8a223 223 0 0 1-28.8 21.1A378 378 0 0 1 188.7 711A378 378 0 0 1 300 188.8m526.1 305.3a22.3 22.3 0 0 1 28.8 5.7l23 35.6a63 63 0 0 1-18.2 87.3l-35.5 23c-9.6 6.8-22 3.9-28.8-5.7l-46-71c-6.8-9.6-4-22.1 5.7-28.8z"/></symbol><symbol id="hd-icon-ep-eleme-filled" viewBox="0 0 1024 1024"><path fill="currentColor" d="M176 64h672a112 112 0 0 1 112 112v672a112 112 0 0 1-112 112H176A112 112 0 0 1 64 848V176A112 112 0 0 1 176 64m150.5 173.6a331 331 0 0 0-97.4 457a330.7 330.7 0 0 0 457 96.6c9.2-6 17.6-11.8 25.1-18.6a18 18 0 0 0 4.3-24.3l-15.1-23.5a47.6 47.6 0 0 0-65.6-14.3a234.6 234.6 0 0 1-324.2-68.9a236 236 0 0 1 68.9-325.1a234 234 0 0 1 276.3 15.1c1.7.9 2.6 2.6 3.4 4.3c5.9 8.4 3.3 19.3-5.1 25.2L456.8 489.6a47.6 47.6 0 0 0-14.3 65.5l16 24.4a18 18 0 0 0 25.2 5l308.2-200a19.6 19.6 0 0 0 6.8-23.4v-1c-5-9.1-10-17.5-15.1-26.8a332 332 0 0 0-457-95.7zM787 504.7L724.7 545c-8.3 6-11 16.8-5 25.2l40.3 62.1c5.9 8.5 16.8 11 25.2 5.1l31-20.1a55.4 55.4 0 0 0 16-76.5l-20.2-31a19.5 19.5 0 0 0-25.1-5.2z"/></symbol><symbol id="hd-icon-ep-element-plus" viewBox="0 0 1024 1024"><path fill="currentColor" d="M839.7 734.7c0 33.3-17.9 41-17.9 41S519.7 949.8 499.2 960a33 33 0 0 1-30.7 0S153.6 775.7 143.4 768a56 56 0 0 1-12.8-20.5V368.6c0-17.9 20.5-28.2 20.5-28.2L466 158.6q19.2-7.6 38.4 0s279 161.3 309.8 179.2a43 43 0 0 1 25.6 46.1c-.1-5-.1 317.5-.1 350.8M714.2 371.2c-64-35.8-217.6-125.4-217.6-125.4c-7.7-5.1-20.5-5.1-30.7 0L217.6 389.1s-17.9 10.2-17.9 23v297c0 5.1 5.1 12.8 7.7 17.9c7.7 5.1 256 148.5 256 148.5a23 23 0 0 0 25.6 0c15.4-7.7 250.9-145.9 250.9-145.9s12.8-5.1 12.8-30.7v-74.2l-276.5 169v-64c0-17.9 7.7-30.7 20.5-46.1L745 535a63 63 0 0 0 10.2-30.7v-66.6l-279 169v-69.1c0-15.4 5.1-30.7 17.9-38.4zM919 135.7c0-5.1-5.1-7.7-7.7-7.7h-58.9V66.6c0-5.1-5.1-5.1-10.2-5.1l-30.7 5.1c-5.1 0-5.1 2.6-5.1 5.1V128h-56.3c-5.1 0-5.1 5.1-7.7 5.1v38.4h69.1v64c0 5.1 5.1 5.1 10.2 5.1l30.7-5.1c5.1 0 5.1-2.6 5.1-5.1v-56.3h64z"/></symbol><symbol id="hd-icon-ep-expand" viewBox="0 0 1024 1024"><path fill="currentColor" d="M128 192h768v128H128zm0 256h512v128H128zm0 256h768v128H128zm576-352l192 160l-192 128z"/></symbol><symbol id="hd-icon-ep-failed" viewBox="0 0 1024 1024"><path fill="currentColor" d="M557.2 608L693 472.3L647.7 427L512.1 562.8L376.3 427L331 472.3L466.8 608L331 743.7l45.2 45.3L512 653.2L647.7 789l45.3-45.3L557.3 608zM704 192h160v736H160V192h160v64h384zm-320 0V96h256v96z"/></symbol><symbol id="hd-icon-ep-female" viewBox="0 0 1024 1024"><path fill="currentColor" d="M512 640a256 256 0 1 0 0-512a256 256 0 0 0 0 512m0 64a320 320 0 1 1 0-640a320 320 0 0 1 0 640"/><path fill="currentColor" d="M512 640q32 0 32 32v256q0 32-32 32t-32-32V672q0-32 32-32"/><path fill="currentColor" d="M352 800h320q32 0 32 32t-32 32H352q-32 0-32-32t32-32"/></symbol><symbol id="hd-icon-ep-files" viewBox="0 0 1024 1024"><path fill="currentColor" d="M128 384v448h768V384zm-32-64h832a32 32 0 0 1 32 32v512a32 32 0 0 1-32 32H96a32 32 0 0 1-32-32V352a32 32 0 0 1 32-32m64-128h704v64H160zm96-128h512v64H256z"/></symbol><symbol id="hd-icon-ep-film" viewBox="0 0 1024 1024"><path fill="currentColor" d="M160 160v704h704V160zm-32-64h768a32 32 0 0 1 32 32v768a32 32 0 0 1-32 32H128a32 32 0 0 1-32-32V128a32 32 0 0 1 32-32"/><path fill="currentColor" d="M320 288V128h64v352h256V128h64v160h160v64H704v128h160v64H704v128h160v64H704v160h-64V544H384v352h-64V736H128v-64h192V544H128v-64h192V352H128v-64z"/></symbol><symbol id="hd-icon-ep-filter" viewBox="0 0 1024 1024"><path fill="currentColor" d="M384 523.4V928a32 32 0 0 0 46.3 28.6l192-96A32 32 0 0 0 640 832V523.4l280.8-343.1a32 32 0 1 0-49.6-40.6l-288 352A32 32 0 0 0 576 512v300.2l-128 64V512a32 32 0 0 0-7.2-20.3L195.5 192H704a32 32 0 1 0 0-64H128a32 32 0 0 0-24.8 52.3z"/></symbol><symbol id="hd-icon-ep-finished" viewBox="0 0 1024 1024"><path fill="currentColor" d="M280.8 753.7L691.5 167a32 32 0 1 1 52.4 36.7L314.2 817.5a32 32 0 0 1-45.4 7.3L38.4 652a32 32 0 0 1 38.4-51.2zM736 448a32 32 0 1 1 0-64h192a32 32 0 1 1 0 64zM608 640a32 32 0 0 1 0-64h320a32 32 0 1 1 0 64zM480 832a32 32 0 1 1 0-64h448a32 32 0 1 1 0 64z"/></symbol><symbol id="hd-icon-ep-first-aid-kit" viewBox="0 0 1024 1024"><path fill="currentColor" d="M192 256a64 64 0 0 0-64 64v448a64 64 0 0 0 64 64h640a64 64 0 0 0 64-64V320a64 64 0 0 0-64-64zm0-64h640a128 128 0 0 1 128 128v448a128 128 0 0 1-128 128H192A128 128 0 0 1 64 768V320a128 128 0 0 1 128-128"/><path fill="currentColor" d="M544 512h96a32 32 0 0 1 0 64h-96v96a32 32 0 0 1-64 0v-96h-96a32 32 0 0 1 0-64h96v-96a32 32 0 0 1 64 0zM352 128v64h320v-64zm-32-64h384a32 32 0 0 1 32 32v128a32 32 0 0 1-32 32H320a32 32 0 0 1-32-32V96a32 32 0 0 1 32-32"/></symbol><symbol id="hd-icon-ep-flag" viewBox="0 0 1024 1024"><path fill="currentColor" d="M288 128h608L736 384l160 256H288v320h-96V64h96z"/></symbol><symbol id="hd-icon-ep-fold" viewBox="0 0 1024 1024"><path fill="currentColor" d="M896 192H128v128h768zm0 256H384v128h512zm0 256H128v128h768zM320 384L128 512l192 128z"/></symbol><symbol id="hd-icon-ep-folder" viewBox="0 0 1024 1024"><path fill="currentColor" d="M128 192v640h768V320H485.8L357.5 192zm-32-64h287.9l128.4 128H928a32 32 0 0 1 32 32v576a32 32 0 0 1-32 32H96a32 32 0 0 1-32-32V160a32 32 0 0 1 32-32"/></symbol><symbol id="hd-icon-ep-folder-add" viewBox="0 0 1024 1024"><path fill="currentColor" d="M128 192v640h768V320H485.8L357.5 192zm-32-64h287.9l128.4 128H928a32 32 0 0 1 32 32v576a32 32 0 0 1-32 32H96a32 32 0 0 1-32-32V160a32 32 0 0 1 32-32m384 416V416h64v128h128v64H544v128h-64V608H352v-64z"/></symbol><symbol id="hd-icon-ep-folder-checked" viewBox="0 0 1024 1024"><path fill="currentColor" d="M128 192v640h768V320H485.8L357.5 192zm-32-64h287.9l128.4 128H928a32 32 0 0 1 32 32v576a32 32 0 0 1-32 32H96a32 32 0 0 1-32-32V160a32 32 0 0 1 32-32m414 502.1l181-181l45.3 45.3l-226.2 226.2l-158.4-158.3l45.2-45.3z"/></symbol><symbol id="hd-icon-ep-folder-delete" viewBox="0 0 1024 1024"><path fill="currentColor" d="M128 192v640h768V320H485.8L357.5 192zm-32-64h287.9l128.4 128H928a32 32 0 0 1 32 32v576a32 32 0 0 1-32 32H96a32 32 0 0 1-32-32V160a32 32 0 0 1 32-32m370.8 448l-90.5-90.5l45.2-45.2l90.5 90.5l90.5-90.5l45.2 45.2l-90.5 90.5l90.5 90.5l-45.2 45.2l-90.5-90.5l-90.5 90.5l-45.2-45.2z"/></symbol><symbol id="hd-icon-ep-folder-opened" viewBox="0 0 1024 1024"><path fill="currentColor" d="M878 448H242l-96 384h636zm-46-64v-64H485.8L357.5 192H128v448l58-231.7a32 32 0 0 1 31-24.3zm-25 512H96a32 32 0 0 1-32-32V160a32 32 0 0 1 32-32h287.9l128.4 128H864a32 32 0 0 1 32 32v96h23a32 32 0 0 1 31 39.7l-112 448a32 32 0 0 1-31 24.3"/></symbol><symbol id="hd-icon-ep-folder-remove" viewBox="0 0 1024 1024"><path fill="currentColor" d="M128 192v640h768V320H485.8L357.5 192zm-32-64h287.9l128.4 128H928a32 32 0 0 1 32 32v576a32 32 0 0 1-32 32H96a32 32 0 0 1-32-32V160a32 32 0 0 1 32-32m256 416h320v64H352z"/></symbol><symbol id="hd-icon-ep-food" viewBox="0 0 1024 1024"><path fill="currentColor" d="M128 352.6v-.6a288 288 0 0 1 491-204.2a192 192 0 0 1 274.3 204.5a64 64 0 0 1 57.2 74.2Q907.1 687.5 736 757v43a96 96 0 0 1-96 96H384a96 96 0 0 1-96-96v-43Q117 687.5 73.5 426.5a64 64 0 0 1 54.5-73.9m64-.6h64a160 160 0 0 1 320 0h64a224 224 0 0 0-448 0m128 0h192a96 96 0 0 0-192 0m439.4 0H828a128.3 128.3 0 0 0-124-160a127 127 0 0 0-43.5 7.6a292 292 0 0 1 27.8 58.3a64.1 64.1 0 0 1 71.1 94.1M672 768H352v32a32 32 0 0 0 32 32h256a32 32 0 0 0 32-32zm-342.5-64h365c101.5-32.6 165.8-125 193-288h-751c27.2 163 91.5 255.4 193 288"/></symbol><symbol id="hd-icon-ep-football" viewBox="0 0 1024 1024"><path fill="currentColor" d="M512 960a448 448 0 1 1 0-896a448 448 0 0 1 0 896m0-64a384 384 0 1 0 0-768a384 384 0 0 0 0 768"/><path fill="currentColor" d="M186.8 268.3q24-24.7 47-46a321 321 0 0 0 66 81.2l-32.5 56.4a386 386 0 0 1-80.5-91.6m653.7-5.3a386 386 0 0 1-83.8 97l-32.5-56.4a323 323 0 0 0 68.5-85.8q23.4 21 47.8 45.2M466 445.2l11.1-63a324 324 0 0 0 69.8 0l11.1 63a388 388 0 0 1-92 0m-62.7-12.8a382 382 0 0 1-83.3-35.9l32-55.4a320 320 0 0 0 62.5 27.7zM704 396.6a382 382 0 0 1-83.4 35.8L609.5 369a320 320 0 0 0 62.5-27.7l32 55.4zM183.3 761.4a386 386 0 0 1 84-97.3l32.5 56.3a324 324 0 0 0-67.5 84q-24-20-49-43m657.5.1a1443 1443 0 0 1-49 43.1a321 321 0 0 0-67.6-84.2l32.5-56.3a385 385 0 0 1 84.1 97.4M466 578.8a388 388 0 0 1 92 0l-11 63a324 324 0 0 0-69.8 0zm-62.7 12.8l11.2 63.5a320 320 0 0 0-62.5 27.7l-32-55.4a382 382 0 0 1 83.3-35.8M704 627.4l-32 55.4a318 318 0 0 0-62.5-27.7l11.2-63.5a379 379 0 0 1 83.2 35.8z"/></symbol><symbol id="hd-icon-ep-fork-spoon" viewBox="0 0 1024 1024"><path fill="currentColor" d="M256 410.3V96a32 32 0 0 1 64 0v314.3a96 96 0 0 0 64-90.6V96a32 32 0 0 1 64 0v223.7a160 160 0 0 1-128 156.8V928a32 32 0 1 1-64 0V476.5a160 160 0 0 1-128-156.8V96a32 32 0 0 1 64 0v223.7a96 96 0 0 0 64 90.6m416 162.2C581.2 552 512 446.8 512 320c0-141.4 86-256 192-256s192 114.6 192 256c0 126.8-69.2 232.1-160 252.5V928a32 32 0 1 1-64 0zm32-60.5c66 0 128-82.6 128-192s-62-192-128-192s-128 82.6-128 192s62 192 128 192"/></symbol><symbol id="hd-icon-ep-fries" viewBox="0 0 1024 1024"><path fill="currentColor" d="M608 224v-64a32 32 0 0 0-64 0v336h26.9a64 64 0 0 0 37.1-11.9zm101.1 160a64 64 0 0 0-37.1 11.9V384h64V224a32 32 0 1 0-64 0v160zm74.9 0a93 93 0 0 1 91.3 110l-60.6 323.7a96 96 0 0 1-94.4 78.3H303.7a96 96 0 0 1-94.4-78.3L148.7 494A93 93 0 0 1 240 384h-16V224a96 96 0 0 1 188.6-25.3a96 96 0 0 1 67.4-1.3V160a96 96 0 0 1 188.6-25.3A96 96 0 0 1 800 224v160zM670.8 512a128 128 0 0 1-100 48H453.2a128 128 0 0 1-99.8-48H352v-1.5a128 128 0 0 1-10-15L315 448h-75a29 29 0 0 0-28.5 34.3L241.1 640h541.8l29.6-157.7A29 29 0 0 0 784 448h-74.9L682 495.5a132 132 0 0 1-10 15v1.5zM480 288a32 32 0 0 0-64 0v196.1a64 64 0 0 0 37.1 11.9H480zm-128 96V224a32 32 0 0 0-64 0v160zh-37.1a64 64 0 0 1 37.1 11.9zm-98.9 320l19 101.9a32 32 0 0 0 31.6 26.1h416.6a32 32 0 0 0 31.5-26.1l19-101.9z"/></symbol><symbol id="hd-icon-ep-full-screen" viewBox="0 0 1024 1024"><path fill="currentColor" d="m160 96l192 .3a32 32 0 0 1 0 64l-192-.2V352a32 32 0 0 1-64 0V96zm0 832H96V672a32 32 0 1 1 64 0v192l192-.3a32 32 0 1 1 0 64zM864 96h64v256a32 32 0 1 1-64 0V160l-192 .3a32 32 0 1 1 0-64zm0 832l-192-.3a32 32 0 0 1 0-64l192 .2V672a32 32 0 1 1 64 0v256z"/></symbol><symbol id="hd-icon-ep-goblet" viewBox="0 0 1024 1024"><path fill="currentColor" d="M544 638.4V896h96a32 32 0 1 1 0 64H384a32 32 0 1 1 0-64h96V638.4A320 320 0 0 1 192 320q0-128.4 64-256h512q64 96.4 64 256a320 320 0 0 1-288 318.4M256 320a256 256 0 1 0 512 0c0-78.6-12.6-142.4-37-192H296.9A488 488 0 0 0 256 320"/></symbol><symbol id="hd-icon-ep-goblet-full" viewBox="0 0 1024 1024"><path fill="currentColor" d="M256 320h512c0-78.6-12.6-142.4-37-192H296.9A488 488 0 0 0 256 320m504 64H264a256.1 256.1 0 0 0 496 0M544 638.4V896h96a32 32 0 1 1 0 64H384a32 32 0 1 1 0-64h96V638.4A320 320 0 0 1 192 320q0-128.4 64-256h512q64 96.4 64 256a320 320 0 0 1-288 318.4"/></symbol><symbol id="hd-icon-ep-goblet-square" viewBox="0 0 1024 1024"><path fill="currentColor" d="M544 639v257h96a32 32 0 1 1 0 64H384a32 32 0 1 1 0-64h96V638.8c-229.4-15.4-288-196.3-288-319.1V96a32 32 0 0 1 32-32h576a32 32 0 0 1 32 32v224c0 122.8-58.6 303.7-288 319M256 319.6c0 149.5 80 256.2 256 256.2c176.1.1 256-106.3 256-255.9V128H256z"/></symbol><symbol id="hd-icon-ep-goblet-square-full" viewBox="0 0 1024 1024"><path fill="currentColor" d="M256 271c10 6.6 22.5 14.8 29 18.5a220 220 0 0 0 114.7 30.8c30.6 0 49.5-9.5 91.1-41.2l.7-.4c52.9-40.4 82.3-55 132.2-54.7c55.6.4 99.6 20.8 142.8 57.4l1.5 1.3V128H256zm1 76.2c9.4 135 89.9 228.7 255 228.8c157.4 0 238-85 253.2-210a952 952 0 0 1-40.1-35.7c-32.7-27.8-63.4-42-102-42.2c-31.5-.3-50.6 9.2-93 41.6l-.6.4c-52.1 39.6-81 54.2-129.8 54.2a283 283 0 0 1-142.8-37zm223 291.6c-229.4-15.4-288-196.3-288-319.1V96a32 32 0 0 1 32-32h576a32 32 0 0 1 32 32v224c0 122.8-58.6 303.7-288 319v257h96a32 32 0 1 1 0 64H384a32 32 0 1 1 0-64h96z"/></symbol><symbol id="hd-icon-ep-gold-medal" viewBox="0 0 1024 1024"><path fill="currentColor" d="M772.1 452.8L826 101q2-15-7.5-26C809 64 804.4 64 795 64H229q-14 0-23.6 11c-9.6 11-8.8 16-7.5 26l54 352q-57.6 79-59.9 187q3 136 93.5 226.5C376 957 421.3 958 512 960q136-3 226.5-93.5T832 640q-2.4-108-59.9-187.2M640.1 128h117l-39 254a666 666 0 0 0-60-27.3q-9-4.5-18.1-8.4V128zm-64.1 0v198.8a363 363 0 0 0-64-6.8q-15.7 0-31.6 2a360 360 0 0 0-32.4 4.8V128zm-192 0v218.3a306 306 0 0 0-18.3 8.6Q337 366.2 306 382l-39-254zm309 693q-72 72-181 75q-109-3-181-75c-72-72-73-108.3-75-181q3-109 75-181a251 251 0 0 1 65.2-47.4q57.6-22.6 98.5-26.6q7.6-.6 15.4-1h3.9q7.6.3 15.1 1q41.1 4 99 26.7q35.5 18 64.9 47.3q72 72 75 181q-3 109-75 181"/><path fill="currentColor" d="M544 480H416v64h64v192h-64v64h192v-64h-64z"/></symbol><symbol id="hd-icon-ep-goods" viewBox="0 0 1024 1024"><path fill="currentColor" d="M320 288v-22.3C320 154.7 405.5 64 512 64s192 90.7 192 201.7V288h131a32 32 0 0 1 31.9 28.8l57.6 576a32 32 0 0 1-31.8 35.2H131.3a32 32 0 0 1-31.8-35.2l57.6-576A32 32 0 0 1 189 288zm64 0h256v-22.3c0-76.5-57.7-137.7-128-137.7s-128 61.2-128 137.7zm-64 64H218l-51.3 512h690.6L806 352H704v96a32 32 0 1 1-64 0v-96H384v96a32 32 0 0 1-64 0z"/></symbol><symbol id="hd-icon-ep-goods-filled" viewBox="0 0 1024 1024"><path fill="currentColor" d="M192 352h640l64 544H128zm128 224h64V448h-64zm320 0h64V448h-64zM384 288h-64a192 192 0 1 1 384 0h-64a128 128 0 1 0-256 0"/></symbol><symbol id="hd-icon-ep-grape" viewBox="0 0 1024 1024"><path fill="currentColor" d="M544 195.2a160 160 0 0 1 96 60.8a160 160 0 1 1 146.2 255a160 160 0 0 1-128 224a160 160 0 1 1-292.4 0a160 160 0 0 1-128-224A160 160 0 1 1 384 256a160 160 0 0 1 96-60.8V128h-64a32 32 0 0 1 0-64h192a32 32 0 0 1 0 64h-64zM512 448a96 96 0 1 0 0-192a96 96 0 0 0 0 192m-256 0a96 96 0 1 0 0-192a96 96 0 0 0 0 192m128 224a96 96 0 1 0 0-192a96 96 0 0 0 0 192m128 224a96 96 0 1 0 0-192a96 96 0 0 0 0 192m128-224a96 96 0 1 0 0-192a96 96 0 0 0 0 192m128-224a96 96 0 1 0 0-192a96 96 0 0 0 0 192"/></symbol><symbol id="hd-icon-ep-grid" viewBox="0 0 1024 1024"><path fill="currentColor" d="M640 384v256H384V384zm64 0h192v256H704zm-64 512H384V704h256zm64 0V704h192v192zm-64-768v192H384V128zm64 0h192v192H704zM320 384v256H128V384zm0 512H128V704h192zm0-768v192H128V128z"/></symbol><symbol id="hd-icon-ep-guide" viewBox="0 0 1024 1024"><path fill="currentColor" d="M640 608h-64V416h64zm0 160v160a32 32 0 0 1-32 32H416a32 32 0 0 1-32-32V768h64v128h128V768zM384 608V416h64v192zm256-352h-64V128H448v128h-64V96a32 32 0 0 1 32-32h192a32 32 0 0 1 32 32z"/><path fill="currentColor" d="m220.8 256l-71.2 80l71.1 80H768V256zm-14.4-64H800a32 32 0 0 1 32 32v224a32 32 0 0 1-32 32H206.4a32 32 0 0 1-24-10.8L83 357.2a32 32 0 0 1 0-42.4l99.6-112a32 32 0 0 1 23.9-10.8m678.8 496L814 768H266.8V608H814zm-56.8-144H235a32 32 0 0 0-32 32v224a32 32 0 0 0 32 32h593.6a32 32 0 0 0 24-10.8l99.5-112a32 32 0 0 0 0-42.4l-99.6-112a32 32 0 0 0-24-10.8"/></symbol><symbol id="hd-icon-ep-handbag" viewBox="0 0 1024 1024"><path fill="currentColor" d="M887 265q-9-9-23-9H704q-2-82-56-136c-54-54-81.3-54.7-136-56q-82 2-136 56c-54 54-54.7 81.3-56 136H160q-14 0-23 9t-9 23v640q0 14 9 23c9 9 13.7 9 23 9h704q14 0 23-9c9-9 9-13.7 9-23V288q0-14-9-23m-465.5-99.5A126 126 0 0 1 512 128q54 1 90.5 37.5C639 202 639.3 220 640 256H384q1-54 37.5-90.5M832 896H192V320h128v128h64V320h256v128h64V320h128z"/></symbol><symbol id="hd-icon-ep-headset" viewBox="0 0 1024 1024"><path fill="currentColor" d="M896 529.2V512a384 384 0 1 0-768 0v17.2A128 128 0 0 1 320 640v128a128 128 0 1 1-256 0V512a448 448 0 1 1 896 0v256a128 128 0 1 1-256 0V640a128 128 0 0 1 192-110.8m0 110.8a64 64 0 0 0-128 0v128a64 64 0 0 0 128 0zm-768 0v128a64 64 0 0 0 128 0V640a64 64 0 1 0-128 0"/></symbol><symbol id="hd-icon-ep-help" viewBox="0 0 1024 1024"><path fill="currentColor" d="m760 805.2l-91-91A255 255 0 0 1 512 768a255 255 0 0 1-157-53.8l-91 91A383 383 0 0 0 512 896c94.5 0 181.1-34.2 248-90.8m45.2-45.3A383 383 0 0 0 896 512c0-94.5-34.2-181.1-90.8-248l-91 91C748 398.4 768 453 768 512s-20.1 113.6-53.8 157zM760 218.8A383 383 0 0 0 512 128a383 383 0 0 0-248 90.8l91 91A255 255 0 0 1 512 256c59.1 0 113.6 20.1 157 53.8zM218.8 264A383 383 0 0 0 128 512c0 94.5 34.2 181.1 90.8 248l91-91A255 255 0 0 1 256 512c0-59.1 20.1-113.6 53.8-157zM636 658.6a195 195 0 0 0 22.6-22.6A191 191 0 0 0 704 512a191 191 0 0 0-68-146.6A191 191 0 0 0 512 320a191 191 0 0 0-146.6 68A191 191 0 0 0 320 512a191 191 0 0 0 68 146.6A191 191 0 0 0 512 704c47.3 0 90.6-17 124-45.4M512 960a448 448 0 1 1 0-896a448 448 0 0 1 0 896"/></symbol><symbol id="hd-icon-ep-help-filled" viewBox="0 0 1024 1024"><path fill="currentColor" d="M926.8 480H701.3A192.5 192.5 0 0 0 544 322.7V97.2A416 416 0 0 1 926.8 480m0 64A416 416 0 0 1 544 926.8V701.3A192.5 192.5 0 0 0 701.3 544zm-829.5 0h225.5A192.5 192.5 0 0 0 480 701.3v225.5A416 416 0 0 1 97.2 544zm0-64A416 416 0 0 1 480 97.2v225.5A192.5 192.5 0 0 0 322.7 480z"/></symbol><symbol id="hd-icon-ep-hide" viewBox="0 0 1024 1024"><path fill="currentColor" d="M876.8 156.8c0-9.6-3.2-16-9.6-22.4s-12.8-9.6-22.4-9.6s-16 3.2-22.4 9.6L736 220.8c-64-32-137.6-51.2-224-60.8c-160 16-288 73.6-377.6 176S0 496 0 512s48 73.6 134.4 176c22.4 25.6 44.8 48 73.6 67.2l-86.4 89.6c-6.4 6.4-9.6 12.8-9.6 22.4s3.2 16 9.6 22.4s12.8 9.6 22.4 9.6s16-3.2 22.4-9.6l704-710.4c3.2-6.4 6.4-12.8 6.4-22.4m-646.4 528Q115.2 579.2 76.8 512q43.2-72 153.6-172.8C304 272 400 230.4 512 224c64 3.2 124.8 19.2 176 44.8l-54.4 54.4A218 218 0 0 0 512 288c-64 0-115.2 22.4-160 64s-64 96-64 160c0 48 12.8 89.6 35.2 124.8L256 707.2c-9.6-6.4-19.2-16-25.6-22.4m140.8-96Q352 555.2 352 512c0-44.8 16-83.2 48-112s67.2-48 112-48c28.8 0 54.4 6.4 73.6 19.2zM889.6 336c-12.8-16-28.8-28.8-41.6-41.6l-48 48c73.6 67.2 124.8 124.8 150.4 169.6q-43.2 72-153.6 172.8C723.2 752 624 793.6 512 800a478 478 0 0 1-140.8-28.8l-48 48A680 680 0 0 0 512 864c160-16 288-73.6 377.6-176S1024 528 1024 512s-48-73.6-134.4-176"/><path fill="currentColor" d="M512 672c-12.8 0-25.6-3.2-38.4-6.4l-51.2 51.2A215 215 0 0 0 512 736c64 0 115.2-22.4 160-64c41.6-41.6 64-96 64-160c0-32-6.4-64-19.2-89.6l-51.2 51.2c3.2 12.8 6.4 25.6 6.4 38.4c0 44.8-16 83.2-48 112s-67.2 48-112 48"/></symbol><symbol id="hd-icon-ep-histogram" viewBox="0 0 1024 1024"><path fill="currentColor" d="M416 896V128h192v768zm-288 0V448h192v448zm576 0V320h192v576z"/></symbol><symbol id="hd-icon-ep-home-filled" viewBox="0 0 1024 1024"><path fill="currentColor" d="M512 128L128 448v448h256V640h256v256h256V448z"/></symbol><symbol id="hd-icon-ep-hot-water" viewBox="0 0 1024 1024"><path fill="currentColor" d="M273 477.9h478v-68.3H273zm0 68.2v51.2a187.7 187.7 0 0 0 187.8 187.8h102.4a187.7 187.7 0 0 0 187.7-187.8v-51.2zm-34-204.8h546a34 34 0 0 1 34.2 34.2v221.8a256 256 0 0 1-256 256H460.8a256 256 0 0 1-256-256V375.5a34 34 0 0 1 34.1-34.2M512 34.1a34 34 0 0 1 34.1 34.2v170.6a34.1 34.1 0 0 1-68.2 0V68.3A34 34 0 0 1 512 34m-136.5 68.3a34 34 0 0 1 34.1 34.1V239a34.1 34.1 0 0 1-68.3 0V136.5a34 34 0 0 1 34.2-34.1m273 0a34 34 0 0 1 34.2 34.1V239a34.1 34.1 0 1 1-68.3 0V136.5a34 34 0 0 1 34.1-34.1M170.7 921.7h682.6a34.1 34.1 0 1 1 0 68.2H170.7a34.1 34.1 0 1 1 0-68.2"/></symbol><symbol id="hd-icon-ep-house" viewBox="0 0 1024 1024"><path fill="currentColor" d="M192 414v482h640V414L512 147.3zm-52.5-39.6l352-293.3a32 32 0 0 1 41 0l352 293.3A32 32 0 0 1 896 399v529a32 32 0 0 1-32 32H160a32 32 0 0 1-32-32V399a32 32 0 0 1 11.5-24.6"/></symbol><symbol id="hd-icon-ep-ice-cream" viewBox="0 0 1024 1024"><path fill="currentColor" d="M128.6 448a208 208 0 0 1 193.6-191.6A224 224 0 0 1 767.4 272a208 208 0 0 1 127.4 176h1.2L548.8 983.7a32 32 0 0 1-53.2.7L128 448zm64.3 0h286.2a144 144 0 0 0-286.2 0m351.4 0h286.2a144 144 0 0 0-286.2 0m-294.9 64l271.8 396.6l257-396.6zm262.3-159.4a208 208 0 0 1 189.2-96.2a160 160 0 0 0-314.8 5.7c52.6 13 97.3 46 125.6 90.5"/></symbol><symbol id="hd-icon-ep-ice-cream-round" viewBox="0 0 1024 1024"><path fill="currentColor" d="m308.4 489.3l226.3 226.3a32 32 0 0 0 45.2 0L783.6 512A192 192 0 1 0 512 240.4L308.4 444.2a32 32 0 0 0 0 45.2zM444 715.6L308.4 851.4a96 96 0 0 1-135.8-135.8L308.4 580L263 534.7a96 96 0 0 1 0-135.9l203.7-203.6a256 256 0 0 1 362 362L625.2 761a96 96 0 0 1-135.9 0l-45.2-45.3zm-45.3-45.2l-45.2-45.2l-135.7 135.7a32 32 0 0 0 45.2 45.2zm249-384.6a32 32 0 0 1 0 45.2L466.6 512a32 32 0 1 1-45.2-45.2l181-181.1a32 32 0 0 1 45.3 0zm90.5 90.5a32 32 0 0 1 0 45.2l-181 181a32 32 0 1 1-45.3-45.3l181-181a32 32 0 0 1 45.3 0"/></symbol><symbol id="hd-icon-ep-ice-cream-square" viewBox="0 0 1024 1024"><path fill="currentColor" d="M416 640h256a32 32 0 0 0 32-32V160a32 32 0 0 0-32-32H352a32 32 0 0 0-32 32v448a32 32 0 0 0 32 32zm192 64v160a96 96 0 0 1-192 0V704h-64a96 96 0 0 1-96-96V160a96 96 0 0 1 96-96h320a96 96 0 0 1 96 96v448a96 96 0 0 1-96 96zm-64 0h-64v160a32 32 0 1 0 64 0z"/></symbol><symbol id="hd-icon-ep-ice-drink" viewBox="0 0 1024 1024"><path fill="currentColor" d="M512 448v128h239.7l16-128zm-64 0H256.3l16 128H448zm64-255.4V384h247.7A256 256 0 0 0 512 192.6m-64 8.1A257 257 0 0 0 264.3 384H448zm64-72A320 320 0 0 1 825.5 384H896a32 32 0 1 1 0 64h-64v2l-57 454a64 64 0 0 1-63.4 56H312.4a64 64 0 0 1-63.4-56l-57-454v-2h-64a32 32 0 0 1 0-64h70.5A320 320 0 0 1 448 135V96a96 96 0 0 1 96-96h128a32 32 0 1 1 0 64H544a32 32 0 0 0-32 32zM743.7 640H280.3l32.1 256h399.2z"/></symbol><symbol id="hd-icon-ep-ice-tea" viewBox="0 0 1024 1024"><path fill="currentColor" d="M197.7 259.6a320.1 320.1 0 0 1 628.6 0A96 96 0 0 1 896 352v64a96 96 0 0 1-71.6 92.9l-49.4 395a64 64 0 0 1-63.5 56.1h-399a64 64 0 0 1-63.5-56l-49.4-395.1A96 96 0 0 1 128 416v-64a96 96 0 0 1 69.7-92.4m66.4-3.6h495.8a256.1 256.1 0 0 0-495.8 0m495.4 256h-495l48 384h399zM224 448h576a32 32 0 0 0 32-32v-64a32 32 0 0 0-32-32H224a32 32 0 0 0-32 32v64a32 32 0 0 0 32 32m160 192h64v64h-64zm192 64h64v64h-64zm-128 64h64v64h-64zm64-192h64v64h-64z"/></symbol><symbol id="hd-icon-ep-info-filled" viewBox="0 0 1024 1024"><path fill="currentColor" d="M512 64a448 448 0 1 1 0 896a448 448 0 0 1 0-896m67.2 275c33.3 0 60.3-23 60.3-57.3s-27-57.3-60.3-57.3s-60.2 23-60.2 57.3s27 57.4 60.2 57.4m11.7 360.1c0-6.8 2.4-24.6 1-34.8L539.3 725c-10.9 11.4-24.5 19.4-30.9 17.3a13 13 0 0 1-8.2-14.7l87.6-277c7.2-35.2-12.5-67.2-54.3-71.3c-44 0-109 44.7-148.5 101.5c0 6.8-1.3 23.6 0 33.8l52.6-60.6c11-11.4 23.6-19.4 30-17.2a13 13 0 0 1 7.8 16.1l-87 275.7c-10 32.2 9 63.8 55.1 71c67.9 0 108-43.6 147.5-100.4z"/></symbol><symbol id="hd-icon-ep-iphone" viewBox="0 0 1024 1024"><path fill="currentColor" d="M224 768v96a64 64 0 0 0 64 64h448a64 64 0 0 0 64-64v-96zm0-64h576V160a64 64 0 0 0-64-64H288a64 64 0 0 0-64 64zm32 288a96 96 0 0 1-96-96V128a96 96 0 0 1 96-96h512a96 96 0 0 1 96 96v768a96 96 0 0 1-96 96zm304-144a48 48 0 1 1-96 0a48 48 0 0 1 96 0"/></symbol><symbol id="hd-icon-ep-key" viewBox="0 0 1024 1024"><path fill="currentColor" d="M448 456V96a32 32 0 0 1 32-32h192a32 32 0 0 1 0 64H512v128h160a32 32 0 0 1 0 64H512v128a256 256 0 1 1-64 8m64 440a192 192 0 1 0 0-384a192 192 0 0 0 0 384"/></symbol><symbol id="hd-icon-ep-knife-fork" viewBox="0 0 1024 1024"><path fill="currentColor" d="M256 410.6V96a32 32 0 0 1 64 0v314.6a96 96 0 0 0 64-90.6V96a32 32 0 0 1 64 0v224a160 160 0 0 1-128 156.8V928a32 32 0 1 1-64 0V476.8A160 160 0 0 1 128 320V96a32 32 0 0 1 64 0v224a96 96 0 0 0 64 90.6m384-250.3V544h126.7q-5-118.1-28.6-207.7q-21.3-82-98.1-176m0 447.7v320a32 32 0 1 1-64 0V64h64q128 134.2 160 256c32 121.8 32 177.2 32 288z"/></symbol><symbol id="hd-icon-ep-lightning" viewBox="0 0 1024 1024"><path fill="currentColor" d="M288 671.4v64A240 240 0 0 1 63.7 496.3a240 240 0 0 1 199.5-236.8a256.1 256.1 0 0 1 487.9-31A256 256 0 0 1 736 734v-64.8a192 192 0 0 0 3.3-377.9l-35.2-6.6l-12.8-33.4a192 192 0 0 0-366 23.3l-9.8 40.9l-41.5 7a176 176 0 0 0-146.3 173.6c0 92 70.5 167.3 160.3 175.2z"/><path fill="currentColor" d="M416 736a32 32 0 0 1-27.8-47.9l128-224a32 32 0 1 1 55.6 31.8L471.2 672H608a32 32 0 0 1 27.8 47.9l-128 224A32 32 0 1 1 452 912l101-176z"/></symbol><symbol id="hd-icon-ep-link" viewBox="0 0 1024 1024"><path fill="currentColor" d="m715.6 625.2l-45.2-45.3l90.5-90.6c75-74.9 85.1-186.3 22.7-248.9c-62.6-62.4-174-52.3-249 22.7l-90.4 90.5l-45.3-45.2l90.5-90.5c100-100 252-110.1 339.5-22.7c87.5 87.5 77.3 239.4-22.7 339.5l-90.5 90.5zm-90.4 90.4l-90.5 90.5c-100 100-252 110.1-339.5 22.7c-87.5-87.5-77.3-239.4 22.7-339.5l90.5-90.5l45.2 45.3l-90.5 90.6c-75 74.9-85.1 186.3-22.7 248.9c62.6 62.4 174 52.3 249-22.7l90.5-90.5zm0-362l45.2 45.2l-271.6 271.6l-45.2-45.2z"/></symbol><symbol id="hd-icon-ep-list" viewBox="0 0 1024 1024"><path fill="currentColor" d="M704 192h160v736H160V192h160v64h384zM288 512h448v-64H288zm0 256h448v-64H288zm96-576V96h256v96z"/></symbol><symbol id="hd-icon-ep-loading" viewBox="0 0 1024 1024"><path fill="currentColor" d="M512 64a32 32 0 0 1 32 32v192a32 32 0 0 1-64 0V96a32 32 0 0 1 32-32m0 640a32 32 0 0 1 32 32v192a32 32 0 1 1-64 0V736a32 32 0 0 1 32-32m448-192a32 32 0 0 1-32 32H736a32 32 0 1 1 0-64h192a32 32 0 0 1 32 32m-640 0a32 32 0 0 1-32 32H96a32 32 0 0 1 0-64h192a32 32 0 0 1 32 32M195.2 195.2a32 32 0 0 1 45.2 0l136 135.8a32 32 0 0 1-45.3 45.3L195.2 240.4a32 32 0 0 1 0-45.2m452.5 452.5a32 32 0 0 1 45.3 0l135.8 135.9a32 32 0 0 1-45.2 45.2L647.7 693a32 32 0 0 1 0-45.3m181.1-452.4a32 32 0 0 1 0 45.1L693 376.4a32 32 0 0 1-45.3-45.3l135.9-135.8a32 32 0 0 1 45.2 0M376.3 647.7a32 32 0 0 1 0 45.3L240.4 828.8a32 32 0 0 1-45.2-45.2L331 647.7a32 32 0 0 1 45.3 0"/></symbol><symbol id="hd-icon-ep-location" viewBox="0 0 1024 1024"><path fill="currentColor" d="M800 416a288 288 0 1 0-576 0c0 118.1 94.5 272.1 288 456.6C705.5 688 800 534 800 416M512 960Q160 640 160 416a352 352 0 0 1 704 0q0 224-352 544"/><path fill="currentColor" d="M512 512a96 96 0 1 0 0-192a96 96 0 0 0 0 192m0 64a160 160 0 1 1 0-320a160 160 0 0 1 0 320"/></symbol><symbol id="hd-icon-ep-location-filled" viewBox="0 0 1024 1024"><path fill="currentColor" d="M512 928c24 0 117.5-68.4 192-153.2c99.5-113 160-239 160-358.8c0-189.6-155.8-320-352-320S160 226.4 160 416c0 120.3 60.5 246.4 160 359.2C394.3 859.8 488 928 512 928m0-435.2a64 64 0 1 0 0-128a64 64 0 0 0 0 128m0 140.8a204.8 204.8 0 1 1 0-409.6a204.8 204.8 0 0 1 0 409.6"/></symbol><symbol id="hd-icon-ep-location-information" viewBox="0 0 1024 1024"><path fill="currentColor" d="M288 896h448q32 0 32 32t-32 32H288q-32 0-32-32t32-32"/><path fill="currentColor" d="M800 416a288 288 0 1 0-576 0c0 118.1 94.5 272.1 288 456.6C705.5 688 800 534 800 416M512 960Q160 640 160 416a352 352 0 0 1 704 0q0 224-352 544"/><path fill="currentColor" d="M512 512a96 96 0 1 0 0-192a96 96 0 0 0 0 192m0 64a160 160 0 1 1 0-320a160 160 0 0 1 0 320"/></symbol><symbol id="hd-icon-ep-lock" viewBox="0 0 1024 1024"><path fill="currentColor" d="M224 448a32 32 0 0 0-32 32v384a32 32 0 0 0 32 32h576a32 32 0 0 0 32-32V480a32 32 0 0 0-32-32zm0-64h576a96 96 0 0 1 96 96v384a96 96 0 0 1-96 96H224a96 96 0 0 1-96-96V480a96 96 0 0 1 96-96"/><path fill="currentColor" d="M512 544a32 32 0 0 1 32 32v192a32 32 0 1 1-64 0V576a32 32 0 0 1 32-32m192-160v-64a192 192 0 1 0-384 0v64zM512 64a256 256 0 0 1 256 256v128H256V320A256 256 0 0 1 512 64"/></symbol><symbol id="hd-icon-ep-lollipop" viewBox="0 0 1024 1024"><path fill="currentColor" d="M513.3 448a64 64 0 1 1 76.5 49.7A96 96 0 0 0 768 448h64a160 160 0 0 1-320 0zm-127-29.7a256 256 0 1 0 43.5-180.5A256 256 0 0 1 832 448h-64a192 192 0 0 0-381.7-29.7M492 667.8L285.7 874A96 96 0 0 1 150 738.3L356.2 532A320 320 0 1 1 492 667.8m-54.5-36a322 322 0 0 1-45.2-45.3l-197.1 197a32 32 0 1 0 45.2 45.3l197.1-197.1z"/></symbol><symbol id="hd-icon-ep-magic-stick" viewBox="0 0 1024 1024"><path fill="currentColor" d="M512 64h64v192h-64zm0 576h64v192h-64zM160 480v-64h192v64zm576 0v-64h192v64zM249.9 199l45.1-45l135.7 135.7l-45.2 45.2l-135.7-135.7zm407.3 407.4l45.2-45.2l135.7 135.7l-45.2 45.2zM114 923.2L68.8 878l316.8-316.8l45.2 45.2zm588.4-588.4l-45.2-45.2l135.7-135.7l45.2 45.2z"/></symbol><symbol id="hd-icon-ep-magnet" viewBox="0 0 1024 1024"><path fill="currentColor" d="M832 320V192H704v320a192 192 0 1 1-384 0V192H192v128h128v64H192v128a320 320 0 0 0 640 0V384H704v-64zM640 512V128h256v384a384 384 0 1 1-768 0V128h256v384a128 128 0 1 0 256 0"/></symbol><symbol id="hd-icon-ep-male" viewBox="0 0 1024 1024"><path fill="currentColor" d="M399.5 849.5a225 225 0 1 0 0-450a225 225 0 0 0 0 450m0 56.3a281.3 281.3 0 1 1 0-562.5a281.3 281.3 0 0 1 0 562.5m253.1-787.5h225q28.1 0 28.1 28t-28 28.2h-225q-28.2 0-28.2-28.1t28.1-28.2"/><path fill="currentColor" d="M877.6 118.3q28.1 0 28.1 28v225q0 28.2-28 28.2t-28.2-28.1v-225q0-28.2 28.1-28.2"/><path fill="currentColor" d="m604.8 458.9l-39.7-39.8l292.6-292.6l39.8 39.8z"/></symbol><symbol id="hd-icon-ep-management" viewBox="0 0 1024 1024"><path fill="currentColor" d="M576 128v288l96-96l96 96V128h128v768H320V128zm-448 0h128v768H128z"/></symbol><symbol id="hd-icon-ep-map-location" viewBox="0 0 1024 1024"><path fill="currentColor" d="M800 416a288 288 0 1 0-576 0c0 118.1 94.5 272.1 288 456.6C705.5 688 800 534 800 416M512 960Q160 640 160 416a352 352 0 0 1 704 0q0 224-352 544"/><path fill="currentColor" d="M512 448a64 64 0 1 0 0-128a64 64 0 0 0 0 128m0 64a128 128 0 1 1 0-256a128 128 0 0 1 0 256m345.6 192L960 960H672v-64H352v64H64l102.4-256zm-69 0H235.4l-76.8 192h707z"/></symbol><symbol id="hd-icon-ep-medal" viewBox="0 0 1024 1024"><path fill="currentColor" d="M512 896a256 256 0 1 0 0-512a256 256 0 0 0 0 512m0 64a320 320 0 1 1 0-640a320 320 0 0 1 0 640"/><path fill="currentColor" d="M576 128H448v200a287 287 0 0 1 64-8a288 288 0 0 1 64 8zm64 0v219.6q36.6 13.7 78.4 34l39-253.6zm-256 0H266.6l39 253.6a897 897 0 0 1 78.4-34zM229.3 64h565.4a32 32 0 0 1 31.6 36.9L768 480q-170.7-96-256-96c-85.3 0-142.2 32-256 96l-58.3-379.1A32 32 0 0 1 229.3 64"/></symbol><symbol id="hd-icon-ep-memo" viewBox="0 0 1024 1024"><path fill="currentColor" d="M480 320h192q32 0 32-32c0-32-10.7-32-32-32H480q-32 0-32 32c0 32 10.7 32 32 32"/><path fill="currentColor" d="M887 73q-9-9-23-9H160q-14 0-23 9t-9 23v832q0 14 9 23c9 9 13.7 9 23 9h704q14 0 23-9c9-9 9-13.7 9-23V96q0-14-9-23M192 896V128h96v768zm640 0H352V128h480z"/><path fill="currentColor" d="M480 512h192q32 0 32-32c0-32-10.7-32-32-32H480q-32 0-32 32c0 32 10.7 32 32 32m0 192h192q32 0 32-32c0-32-10.7-32-32-32H480q-32 0-32 32c0 32 10.7 32 32 32"/></symbol><symbol id="hd-icon-ep-menu" viewBox="0 0 1024 1024"><path fill="currentColor" d="M160 448a32 32 0 0 1-32-32V160a32 32 0 0 1 32-32h256a32 32 0 0 1 32 32v256a32 32 0 0 1-32 32zm448 0a32 32 0 0 1-32-32V160a32 32 0 0 1 32-32h256a32 32 0 0 1 32 32v256a32 32 0 0 1-32 32zM160 896a32 32 0 0 1-32-32V608a32 32 0 0 1 32-32h256a32 32 0 0 1 32 32v256a32 32 0 0 1-32 32zm448 0a32 32 0 0 1-32-32V608a32 32 0 0 1 32-32h256a32 32 0 0 1 32 32v256a32 32 0 0 1-32 32z"/></symbol><symbol id="hd-icon-ep-message" viewBox="0 0 1024 1024"><path fill="currentColor" d="M128 224v512a64 64 0 0 0 64 64h640a64 64 0 0 0 64-64V224zm0-64h768a64 64 0 0 1 64 64v512a128 128 0 0 1-128 128H192A128 128 0 0 1 64 736V224a64 64 0 0 1 64-64"/><path fill="currentColor" d="M904 224L656.5 506.9a192 192 0 0 1-289 0L120 224zm-699 0l210.6 240.7a128 128 0 0 0 192.7 0L819 224z"/></symbol><symbol id="hd-icon-ep-message-box" viewBox="0 0 1024 1024"><path fill="currentColor" d="M288 384h448v64H288zm96-128h256v64H384zM131.5 512H384v128h256V512h252.5L722 192H302zM896 576H704v128H320V576H128v256h768zM275.8 128h472.4a32 32 0 0 1 28.6 17.7l179.9 359.5a32 32 0 0 1 3.3 14.4V864a32 32 0 0 1-32 32H96a32 32 0 0 1-32-32V519.6a32 32 0 0 1 3.4-14.4l179.8-359.5a32 32 0 0 1 28.6-17.7"/></symbol><symbol id="hd-icon-ep-mic" viewBox="0 0 1024 1024"><path fill="currentColor" d="M480 704h160a64 64 0 0 0 64-64v-32h-96a32 32 0 0 1 0-64h96v-96h-96a32 32 0 0 1 0-64h96v-96h-96a32 32 0 0 1 0-64h96v-32a64 64 0 0 0-64-64H384a64 64 0 0 0-64 64v32h96a32 32 0 0 1 0 64h-96v96h96a32 32 0 0 1 0 64h-96v96h96a32 32 0 0 1 0 64h-96v32a64 64 0 0 0 64 64zm64 64v128h192a32 32 0 1 1 0 64H288a32 32 0 1 1 0-64h192V768h-96a128 128 0 0 1-128-128V192A128 128 0 0 1 384 64h256a128 128 0 0 1 128 128v448a128 128 0 0 1-128 128z"/></symbol><symbol id="hd-icon-ep-microphone" viewBox="0 0 1024 1024"><path fill="currentColor" d="M512 128a128 128 0 0 0-128 128v256a128 128 0 1 0 256 0V256a128 128 0 0 0-128-128m0-64a192 192 0 0 1 192 192v256a192 192 0 1 1-384 0V256A192 192 0 0 1 512 64m-32 832v-64a288 288 0 0 1-288-288v-32a32 32 0 0 1 64 0v32a224 224 0 0 0 224 224h64a224 224 0 0 0 224-224v-32a32 32 0 1 1 64 0v32a288 288 0 0 1-288 288v64h64a32 32 0 1 1 0 64H416a32 32 0 1 1 0-64z"/></symbol><symbol id="hd-icon-ep-milk-tea" viewBox="0 0 1024 1024"><path fill="currentColor" d="M416 128V96a96 96 0 0 1 96-96h128a32 32 0 1 1 0 64H512a32 32 0 0 0-32 32v32h320a96 96 0 0 1 11.7 191.3l-39.7 581a64 64 0 0 1-63.8 59.7H315.8a64 64 0 0 1-63.9-59.6l-39.6-581.1A96 96 0 0 1 224 128zM276.5 320l39.3 576h392.4l4.8-70.8a224 224 0 0 1 30-439.8l4.5-65.4zM224 256h576a32 32 0 1 0 0-64H224a32 32 0 0 0 0 64m493.4 503.9l21.2-309.1a160 160 0 0 0-21.2 309"/></symbol><symbol id="hd-icon-ep-minus" viewBox="0 0 1024 1024"><path fill="currentColor" d="M128 544h768a32 32 0 1 0 0-64H128a32 32 0 0 0 0 64"/></symbol><symbol id="hd-icon-ep-money" viewBox="0 0 1024 1024"><path fill="currentColor" d="M256 640v192h640V384H768v-64h151c14.2 0 19.4 1.5 24.6 4.3a29 29 0 0 1 12.2 12c2.7 5.3 4.2 10.5 4.2 24.7v494c0 14.2-1.5 19.4-4.3 24.6a29 29 0 0 1-12 12.2c-5.3 2.7-10.5 4.2-24.7 4.2H233c-14.2 0-19.4-1.5-24.6-4.3a29 29 0 0 1-12.2-12c-2.7-5.3-4.2-10.5-4.2-24.7V640z"/><path fill="currentColor" d="M768 192H128v448h640zm64-23v494c0 14.2-1.5 19.4-4.3 24.6a29 29 0 0 1-12 12.2c-5.3 2.7-10.5 4.2-24.7 4.2H105c-14.2 0-19.4-1.5-24.6-4.3a29 29 0 0 1-12.2-12c-2.7-5.3-4.2-10.5-4.2-24.7V169c0-14.2 1.5-19.4 4.3-24.6a29 29 0 0 1 12-12.2c5.3-2.7 10.5-4.2 24.7-4.2h686c14.2 0 19.4 1.5 24.6 4.3a29 29 0 0 1 12.1 12c2.8 5.3 4.2 10.5 4.2 24.7z"/><path fill="currentColor" d="M448 576a160 160 0 1 1 0-320a160 160 0 0 1 0 320m0-64a96 96 0 1 0 0-192a96 96 0 0 0 0 192"/></symbol><symbol id="hd-icon-ep-monitor" viewBox="0 0 1024 1024"><path fill="currentColor" d="M544 768v128h192a32 32 0 1 1 0 64H288a32 32 0 1 1 0-64h192V768H192A128 128 0 0 1 64 640V256a128 128 0 0 1 128-128h640a128 128 0 0 1 128 128v384a128 128 0 0 1-128 128zM192 192a64 64 0 0 0-64 64v384a64 64 0 0 0 64 64h640a64 64 0 0 0 64-64V256a64 64 0 0 0-64-64z"/></symbol><symbol id="hd-icon-ep-moon" viewBox="0 0 1024 1024"><path fill="currentColor" d="M240.4 240.4A384 384 0 1 0 800 766.1a448 448 0 0 1-542-542a391 391 0 0 0-17.5 16.3m181.1 362.1a384 384 0 0 0 525.6 16.4a448 448 0 1 1-542-542.1a384 384 0 0 0 16.4 525.7"/></symbol><symbol id="hd-icon-ep-moon-night" viewBox="0 0 1024 1024"><path fill="currentColor" d="M384 512a448 448 0 0 1 215.9-383.3A384 384 0 0 0 213.8 640h188.8A448 448 0 0 1 384 512M171.1 704a448 448 0 0 1 637-575.3A384 384 0 0 0 499.3 704z"/><path fill="currentColor" d="M32 640h960q32 0 32 32t-32 32H32q-32 0-32-32t32-32m128 128h384a32 32 0 1 1 0 64H160a32 32 0 1 1 0-64m160 127.7l224 .2a32 32 0 0 1 32 32v.1a32 32 0 0 1-32 32l-224-.4a32 32 0 0 1-32-32a32 32 0 0 1 32-32z"/></symbol><symbol id="hd-icon-ep-more" viewBox="0 0 1024 1024"><path fill="currentColor" d="M176 416a112 112 0 1 0 0 224a112 112 0 0 0 0-224m0 64a48 48 0 1 1 0 96a48 48 0 0 1 0-96m336-64a112 112 0 1 1 0 224a112 112 0 0 1 0-224m0 64a48 48 0 1 0 0 96a48 48 0 0 0 0-96m336-64a112 112 0 1 1 0 224a112 112 0 0 1 0-224m0 64a48 48 0 1 0 0 96a48 48 0 0 0 0-96"/></symbol><symbol id="hd-icon-ep-more-filled" viewBox="0 0 1024 1024"><path fill="currentColor" d="M176 416a112 112 0 1 1 0 224a112 112 0 0 1 0-224m336 0a112 112 0 1 1 0 224a112 112 0 0 1 0-224m336 0a112 112 0 1 1 0 224a112 112 0 0 1 0-224"/></symbol><symbol id="hd-icon-ep-mostly-cloudy" viewBox="0 0 1024 1024"><path fill="currentColor" d="m737.2 358l-33.2-8.2l-11.8-32a192 192 0 0 0-367.4 23l-9 39.1l-39 9A192 192 0 0 0 320 768h368a208 208 0 0 0 207.8-208a208 208 0 0 0-158.6-202m15.2-62.3A272 272 0 0 1 959.7 560a272 272 0 0 1-271.5 272H320a256 256 0 0 1-57.5-505.5a256.1 256.1 0 0 1 489.9-30.8"/></symbol><symbol id="hd-icon-ep-mouse" viewBox="0 0 1024 1024"><path fill="currentColor" d="M438.1 256c-68.3 0-92.7 4.7-117.7 18.1q-30.2 16.1-46.3 46.3c-13.4 25-18.1 49.4-18.1 117.7V714c0 68.3 4.7 92.7 18.1 117.7q16.1 30.2 46.3 46.3c25 13.4 49.4 18.1 117.7 18.1H586c68.3 0 92.7-4.7 117.7-18.1q30.2-16.1 46.3-46.3c13.4-25 18.1-49.4 18.1-117.7V438c0-68.3-4.7-92.7-18.1-117.7a111 111 0 0 0-46.3-46.3c-25-13.4-49.4-18.1-117.7-18.1zm0-64H586c85.5 0 116.6 9 147.9 25.6a174 174 0 0 1 72.5 72.6c16.8 31.3 25.7 62.4 25.7 147.9v275.8c0 85.5-9 116.6-25.6 147.9a175 175 0 0 1-72.6 72.5C702.6 951.1 671.5 960 586 960H438.1c-85.5 0-116.6-9-147.9-25.6a175 175 0 0 1-72.6-72.7c-16.8-31.3-25.7-62.3-25.7-147.8V438c0-85.5 9-116.5 25.6-147.8a175 175 0 0 1 72.8-72.6c31.2-16.7 62.3-25.6 147.8-25.6"/><path fill="currentColor" d="M512 320q32 0 32 32v128q0 32-32 32t-32-32V352q0-32 32-32m32-96a32 32 0 0 1-64 0v-64a32 32 0 0 0-32-32h-96a32 32 0 0 1 0-64h96a96 96 0 0 1 96 96z"/></symbol><symbol id="hd-icon-ep-mug" viewBox="0 0 1024 1024"><path fill="currentColor" d="M736 800V160H160v640a64 64 0 0 0 64 64h448a64 64 0 0 0 64-64m64-544h63.6a96 96 0 0 1 96 96v224a96 96 0 0 1-96 96H800v128a128 128 0 0 1-128 128H224A128 128 0 0 1 96 800V128a32 32 0 0 1 32-32h640a32 32 0 0 1 32 32zm0 64v288h63.6a32 32 0 0 0 32-32V352a32 32 0 0 0-32-32z"/></symbol><symbol id="hd-icon-ep-mute" viewBox="0 0 1024 1024"><path fill="currentColor" d="m412.2 592.1l-45.5 45.5A191 191 0 0 1 320 512V256a192 192 0 1 1 384 0v44.4l-64 64V256a128 128 0 1 0-256 0v256c0 30.3 10.6 58.2 28.2 80.1m52 38.6A128 128 0 0 0 640 512v-57.2l64-64V512a192 192 0 0 1-287.7 166.5zM314.8 780l46.1-46.1A223 223 0 0 0 480 768h64a224 224 0 0 0 224-224v-32a32 32 0 1 1 64 0v32a288 288 0 0 1-288 288v64h64a32 32 0 1 1 0 64H416a32 32 0 1 1 0-64h64v-64a286 286 0 0 1-165.1-52m-48.1-42.4A287 287 0 0 1 192 544v-32a32 32 0 0 1 64 0v32c0 56.8 21.2 108.8 56 148.3z"/><path fill="currentColor" d="M150.7 859a32 32 0 0 1-45.4-45l704-708.5a32 32 0 0 1 45.4 45z"/></symbol><symbol id="hd-icon-ep-mute-notification" viewBox="0 0 1024 1024"><path fill="currentColor" d="m241.2 832l63.6-64H768V448c0-42.4-10.2-82.3-28.5-117.5l47-47.2A319 319 0 0 1 832 448v320h96a32 32 0 1 1 0 64zm-90.2 0H96a32 32 0 1 1 0-64h96V448a320 320 0 0 1 256-313.6V128a64 64 0 1 1 128 0v6.4a320 320 0 0 1 171.6 97L702.5 277A256 256 0 0 0 256 448v278.3zm297 64h128a64 64 0 0 1-128 0"/><path fill="currentColor" d="M150.7 859a32 32 0 0 1-45.4-45l704-708.5a32 32 0 0 1 45.4 45z"/></symbol><symbol id="hd-icon-ep-no-smoking" viewBox="0 0 1024 1024"><path fill="currentColor" d="M440.3 576H256v128h56.3l-64 64H224a32 32 0 0 1-32-32V544a32 32 0 0 1 32-32h280.3zm143.4 128H704V583.7l71.7-71.7H928a32 32 0 0 1 32 32v192a32 32 0 0 1-32 32H519.7zM768 576v128h128V576zm-29.7-207.6l45.3 45.3l-497.9 497.9l-45.3-45.3zM256 64h64v320h-64zM128 192h64v192h-64zM64 512h64v256H64z"/></symbol><symbol id="hd-icon-ep-notebook" viewBox="0 0 1024 1024"><path fill="currentColor" d="M192 128v768h640V128zm-32-64h704a32 32 0 0 1 32 32v832a32 32 0 0 1-32 32H160a32 32 0 0 1-32-32V96a32 32 0 0 1 32-32"/><path fill="currentColor" d="M672 128h64v768h-64zM96 192h128q32 0 32 32t-32 32H96q-32 0-32-32t32-32m0 192h128q32 0 32 32t-32 32H96q-32 0-32-32t32-32m0 192h128q32 0 32 32t-32 32H96q-32 0-32-32t32-32m0 192h128q32 0 32 32t-32 32H96q-32 0-32-32t32-32"/></symbol><symbol id="hd-icon-ep-notification" viewBox="0 0 1024 1024"><path fill="currentColor" d="M512 128v64H256a64 64 0 0 0-64 64v512a64 64 0 0 0 64 64h512a64 64 0 0 0 64-64V512h64v256a128 128 0 0 1-128 128H256a128 128 0 0 1-128-128V256a128 128 0 0 1 128-128z"/><path fill="currentColor" d="M768 384a128 128 0 1 0 0-256a128 128 0 0 0 0 256m0 64a192 192 0 1 1 0-384a192 192 0 0 1 0 384"/></symbol><symbol id="hd-icon-ep-odometer" viewBox="0 0 1024 1024"><path fill="currentColor" d="M512 896a384 384 0 1 0 0-768a384 384 0 0 0 0 768m0 64a448 448 0 1 1 0-896a448 448 0 0 1 0 896"/><path fill="currentColor" d="M192 512a320 320 0 1 1 640 0a32 32 0 1 1-64 0a256 256 0 1 0-512 0a32 32 0 0 1-64 0"/><path fill="currentColor" d="M570.4 627.8a96 96 0 1 1-60.8-19.8l61-187.8a32 32 0 1 1 60.8 19.8zm-68.3 106.7a32 32 0 1 0 19.8-61a32 32 0 0 0-19.8 61"/></symbol><symbol id="hd-icon-ep-office-building" viewBox="0 0 1024 1024"><path fill="currentColor" d="M192 128v704h384V128zm-32-64h448a32 32 0 0 1 32 32v768a32 32 0 0 1-32 32H160a32 32 0 0 1-32-32V96a32 32 0 0 1 32-32"/><path fill="currentColor" d="M256 256h256v64H256zm0 192h256v64H256zm0 192h256v64H256zm384-128h128v64H640zm0 128h128v64H640zM64 832h896v64H64z"/><path fill="currentColor" d="M640 384v448h192V384zm-32-64h256a32 32 0 0 1 32 32v512a32 32 0 0 1-32 32H608a32 32 0 0 1-32-32V352a32 32 0 0 1 32-32"/></symbol><symbol id="hd-icon-ep-open" viewBox="0 0 1024 1024"><path fill="currentColor" d="M330 257.1a254.9 254.9 0 0 0 0 509.8h364a254.9 254.9 0 0 0 0-509.8zm0-72.8h364a327.7 327.7 0 1 1 0 655.4H330a327.7 327.7 0 1 1 0-655.4"/><path fill="currentColor" d="M694 621.2a109.2 109.2 0 1 0 0-218.4a109.2 109.2 0 0 0 0 218.4m0 72.8a182 182 0 1 1 0-364a182 182 0 0 1 0 364"/></symbol><symbol id="hd-icon-ep-operation" viewBox="0 0 1024 1024"><path fill="currentColor" d="M389.4 768a96 96 0 0 1 181.2 0H896v64H570.6a96 96 0 0 1-181.2 0H128v-64zm192-288a96 96 0 0 1 181.2 0H896v64H762.6a96 96 0 0 1-181.2 0H128v-64zm-320-288a96 96 0 0 1 181.2 0H896v64H442.6a96 96 0 0 1-181.2 0H128v-64z"/></symbol><symbol id="hd-icon-ep-opportunity" viewBox="0 0 1024 1024"><path fill="currentColor" d="M384 960v-64h192v64zm448-544a351 351 0 0 1-128.3 271.4C665.3 719 640 763.8 640 813.5V832H320v-14.3c0-48-19.4-95.4-57.2-125a352 352 0 0 1-128.5-344.3A351 351 0 0 1 404.1 72A352.4 352.4 0 0 1 832 416m-544 32c0-132.3 75.9-224 192-224v-64c-154.4 0-256 122.8-256 288z"/></symbol><symbol id="hd-icon-ep-orange" viewBox="0 0 1024 1024"><path fill="currentColor" d="M544 894.7a382 382 0 0 0 216-89.5l-183-183q-15.3 9.1-33 13.8zM805.2 760a382 382 0 0 0 89.5-216H636q-4.6 17.7-13.7 33zm89.5-280a382 382 0 0 0-89.5-216l-183 183q9.1 15.3 13.8 33zM759.9 218.8A382 382 0 0 0 544 129.3V388q17.7 4.6 33 13.7zM480 129.3a382 382 0 0 0-216 89.5l183 183q15.3-9.2 33-13.8zM218.8 264.1A382 382 0 0 0 129.3 480H388q4.6-17.7 13.7-33zM129.3 544a382 382 0 0 0 89.5 216l183-183a127 127 0 0 1-13.8-33zm134.8 261.2A382 382 0 0 0 480 894.7V636a127 127 0 0 1-33-13.7zM512 960a448 448 0 1 1 0-896a448 448 0 0 1 0 896m0-384a64 64 0 1 0 0-128a64 64 0 0 0 0 128"/></symbol><symbol id="hd-icon-ep-paperclip" viewBox="0 0 1024 1024"><path fill="currentColor" d="M602.5 240.4A192 192 0 1 1 874 512L557.2 828.8a256 256 0 0 1-362-362L602.5 59.5l45.2 45.2L240.4 512A192 192 0 0 0 512 783.6l316.8-316.8a128 128 0 1 0-181-181.1L353.5 579.9a32 32 0 1 0 45.2 45.3L693 331l45.3 45.3l-294.2 294.1a96 96 0 1 1-135.7-135.7z"/></symbol><symbol id="hd-icon-ep-partly-cloudy" viewBox="0 0 1024 1024"><path fill="currentColor" d="M598.4 895.9H328.2a256 256 0 0 1-34.5-510.6A352 352 0 1 1 598.4 896M327 832h272.3a288 288 0 1 0-248.5-417.7L335 445.4l-34.8 3.6a192 192 0 0 0 26.9 383z"/><path fill="currentColor" d="M139.8 501.9a256 256 0 1 1 417.9-277.1a222 222 0 0 0-61.5 18.8a192 192 0 1 0-307 216.9z"/></symbol><symbol id="hd-icon-ep-pear" viewBox="0 0 1024 1024"><path fill="currentColor" d="M542.3 258.8a443 443 0 0 0-9 25.1a32 32 0 1 1-60.8-20l1.1-3.4a163 163 0 0 0-122 131.4l-17.1 102.8l-20.8 15.3C256.2 552.7 224 611 224 672c0 120.6 126.4 224 288 224s288-103.4 288-224c0-61.1-32.2-119.3-89.7-162l-20.8-15.3l-17-102.8a163 163 0 0 0-130.2-133m-40-66.6Q514 169 528 148.5q34.9-51 78.6-77.1a32 32 0 1 1 32.7 55q-30.9 18.3-58.5 58.3a317 317 0 0 0-9.8 15.1a227 227 0 0 1 164.5 181.6l12.8 77.2C819.4 511.4 864 587.4 864 672c0 159-157.6 288-352 288S160 831 160 672c0-84.6 44.6-160.6 115.6-213.4l12.8-77.2A226.6 226.6 0 0 1 502 192.2z"/></symbol><symbol id="hd-icon-ep-phone" viewBox="0 0 1024 1024"><path fill="currentColor" d="m79.4 432.3l512.3 512.3a32 32 0 0 0 35.2 6.8L880.4 843a32 32 0 0 0 10-52L736.5 637a32 32 0 0 0-37-6l-69.8 35l-271.6-271.7l35-69.8a32 32 0 0 0-6-37l-154-153.8a32 32 0 0 0-52 10L72.5 397.1a32 32 0 0 0 6.8 35.2zm60.4-30l81.6-190l104.2 104.2l-24.7 49.2l-20.6 41.2l32.6 32.7L584.4 711l32.7 32.6l41.2-20.6l49.3-24.6l104.2 104.1L621.7 884zM512 320v-64a256 256 0 0 1 256 256h-64a192 192 0 0 0-192-192m0-192V64a448 448 0 0 1 448 448h-64a384 384 0 0 0-384-384"/></symbol><symbol id="hd-icon-ep-phone-filled" viewBox="0 0 1024 1024"><path fill="currentColor" d="M199.2 125.6L90.6 379a32 32 0 0 0 6.8 35.2l512.4 512.4a32 32 0 0 0 35.2 6.8l253.4-108.6a32 32 0 0 0 10-52l-138.7-139a32 32 0 0 0-37-6L602.6 693L331 421.5l65-130.2a32 32 0 0 0-6-36.9L251.3 115.5a32 32 0 0 0-52 10"/></symbol><symbol id="hd-icon-ep-picture" viewBox="0 0 1024 1024"><path fill="currentColor" d="M160 160v704h704V160zm-32-64h768a32 32 0 0 1 32 32v768a32 32 0 0 1-32 32H128a32 32 0 0 1-32-32V128a32 32 0 0 1 32-32"/><path fill="currentColor" d="M384 288q64 0 64 64t-64 64t-64-64t64-64M185.4 877l-50.8-39l216.1-282a96 96 0 0 1 134.6-17.8l1.9 1.4L610 638.8a32 32 0 0 0 45-4.9L871 364l50 40l-215.8 269.8l-.3.3a96 96 0 0 1-135 14.5l-123-99.1l-.6-.5a32 32 0 0 0-44.8 6z"/></symbol><symbol id="hd-icon-ep-picture-filled" viewBox="0 0 1024 1024"><path fill="currentColor" d="M96 896a32 32 0 0 1-32-32V160a32 32 0 0 1 32-32h832a32 32 0 0 1 32 32v704a32 32 0 0 1-32 32zm315.5-228.5l-69-69a32 32 0 0 0-45.2 0L128 768.2h778.7L664.6 477.5a32 32 0 0 0-49.2 0l-156.6 188a32 32 0 0 1-47.3 2M256 384a96 96 0 1 0 192 0a96 96 0 0 0-192 0"/></symbol><symbol id="hd-icon-ep-picture-rounded" viewBox="0 0 1024 1024"><path fill="currentColor" d="M512 128a384 384 0 1 0 0 768a384 384 0 0 0 0-768m0-64a448 448 0 1 1 0 896a448 448 0 0 1 0-896"/><path fill="currentColor" d="M640 288q64 0 64 64t-64 64t-64-64t64-64M214.7 790.7l-45.4-45.4L355 559.7a96 96 0 0 1 123.7-10.2L617 648.2a32 32 0 0 0 39.8-2.2l249.9-223.6l42.6 47.7l-249.8 223.6a96 96 0 0 1-119.8 6.6l-138.2-98.8a32 32 0 0 0-41.2 3.5L214.7 790.6z"/></symbol><symbol id="hd-icon-ep-pie-chart" viewBox="0 0 1024 1024"><path fill="currentColor" d="M448 68.5v64.8A384.1 384.1 0 0 0 512 896a384 384 0 0 0 378.7-320h64.8A448.1 448.1 0 0 1 64 512A448 448 0 0 1 448 68.5"/><path fill="currentColor" d="M576 97.3V448h350.7A384 384 0 0 0 576 97.3M512 64V33.2A448 448 0 0 1 990.8 512H512z"/></symbol><symbol id="hd-icon-ep-place" viewBox="0 0 1024 1024"><path fill="currentColor" d="M512 512a192 192 0 1 0 0-384a192 192 0 0 0 0 384m0 64a256 256 0 1 1 0-512a256 256 0 0 1 0 512"/><path fill="currentColor" d="M512 512a32 32 0 0 1 32 32v256a32 32 0 1 1-64 0V544a32 32 0 0 1 32-32"/><path fill="currentColor" d="M384 649v65c-114.2 18.4-192 57.9-192 86c0 37.7 139.9 96 320 96s320-58.3 320-96c0-28.2-77.8-67.6-192-86v-65c149.1 22 256 81.4 256 151c0 88.3-171.9 160-384 160s-384-71.7-384-160c0-69.7 106.9-129 256-151"/></symbol><symbol id="hd-icon-ep-platform" viewBox="0 0 1024 1024"><path fill="currentColor" d="M448 832v-64h128v64h192v64H256v-64zM128 704V128h768v576z"/></symbol></svg>