<svg xmlns="http://www.w3.org/2000/svg" xmlns:xlink="http://www.w3.org/1999/xlink"><symbol id="hd-icon-f7-tv-music-note" viewBox="0 0 56 56"><path fill="currentColor" d="M5.454 43.096h45.092c3.629 0 5.454-1.74 5.454-5.453V13.324c0-3.713-1.825-5.453-5.454-5.453H5.454C1.824 7.87 0 9.61 0 13.324v24.319c0 3.713 1.825 5.453 5.454 5.453m.063-3.416c-1.443 0-2.1-.594-2.1-2.08V13.388c0-1.507.657-2.1 2.1-2.1h44.966c1.464 0 2.1.593 2.1 2.1V37.6c0 1.486-.636 2.08-2.1 2.08Zm28.499-18.822c1.018-.276 1.337-.489 1.337-1.72V14.98c0-.806-.276-1.167-1.4-.89l-6.218 1.548c-1.04.255-1.274.467-1.274 1.72v9.57c0 .933-.084 1.103-1.145 1.4l-1.953.51c-1.93.509-3.565 1.654-3.565 3.734c0 1.804 1.358 3.12 3.502 3.12c3.034 0 5.092-2.186 5.092-5.263V23.15c0-.785.17-.997.658-1.103Zm9.421 28.137c0-1.103-.89-1.994-1.973-1.994h-26.97c-1.083 0-1.953.89-1.953 1.994s.87 1.995 1.952 1.995h26.97a1.99 1.99 0 0 0 1.974-1.995"/></symbol><symbol id="hd-icon-f7-tv-music-note-fill" viewBox="0 0 56 56"><path fill="currentColor" d="M5.454 43.096h45.092c3.629 0 5.454-1.74 5.454-5.453V13.324c0-3.713-1.825-5.453-5.454-5.453H5.454C1.824 7.87 0 9.61 0 13.324v24.319c0 3.713 1.825 5.453 5.454 5.453m28.88-22.323l-5.199 1.252c-.53.127-.7.34-.7 1.167v7.618c0 3.225-2.165 5.496-5.347 5.496c-2.25 0-3.65-1.358-3.65-3.247c0-2.186 1.697-3.395 3.713-3.926l2.058-.53c1.104-.297 1.189-.488 1.189-1.486V17.102c0-1.316.254-1.528 1.337-1.804l6.535-1.634c1.189-.297 1.465.085 1.465.934v4.37c0 1.295-.319 1.529-1.4 1.805m9.103 28.222c0-1.103-.89-1.994-1.973-1.994h-26.97c-1.083 0-1.953.89-1.953 1.994s.87 1.995 1.952 1.995h26.97a1.99 1.99 0 0 0 1.974-1.995"/></symbol><symbol id="hd-icon-f7-uiwindow-split-2x1" viewBox="0 0 56 56"><path fill="currentColor" d="M7.715 49.574h40.57c4.899 0 7.36-2.437 7.36-7.265V13.69c0-4.828-2.461-7.265-7.36-7.265H7.715C2.84 6.426.355 8.84.355 13.69v28.62c0 4.851 2.485 7.265 7.36 7.265M4.129 13.88c0-2.438 1.312-3.68 3.656-3.68h40.43c2.32 0 3.656 1.242 3.656 3.68v6.516H4.129ZM48.215 45.8H29.769V23.746h22.102v18.375c0 2.438-1.336 3.68-3.656 3.68m-40.43 0c-2.344 0-3.656-1.242-3.656-3.68V23.746H26.23v22.055Z"/></symbol><symbol id="hd-icon-f7-umbrella" viewBox="0 0 56 56"><path fill="currentColor" d="M7.785 30.672c.703 0 1.195-.516 1.594-1.125c1.312-1.992 2.86-3.235 5.18-3.235c2.343 0 3.703 1.22 4.851 3.211c.375.657.797 1.149 1.5 1.149s1.149-.492 1.5-1.125c.774-1.383 2.11-2.485 3.61-3.024v19.829c0 1.828-1.29 3.257-3.258 3.257c-1.922 0-3.211-1.453-3.211-3.257c0-1.43-.89-2.25-2.016-2.25c-1.101 0-1.945.82-1.945 2.25c0 4.007 3.047 7.195 7.172 7.195c4.148 0 7.218-3.188 7.218-7.195V26.523a6.94 6.94 0 0 1 3.61 3.024c.351.633.773 1.125 1.5 1.125c.703 0 1.125-.492 1.5-1.149c1.148-1.968 2.508-3.21 4.851-3.21c2.32 0 3.891 1.218 5.18 3.234c.398.61.89 1.125 1.594 1.125c.96 0 1.875-.774 1.875-2.04c0-8.366-6.328-19.968-20.11-21V4.54c0-1.242-.843-2.086-1.992-2.086c-1.125 0-1.968.844-1.968 2.086v3.094c-13.782 1.031-20.11 12.633-20.11 21c0 1.265.89 2.039 1.875 2.039m26.93-4.406c-1.383-2.04-3.938-3.516-6.727-3.516c-2.765 0-5.32 1.477-6.703 3.516c-.117.187-.164.257-.281.257c-.094 0-.188-.07-.281-.257c-1.313-2.344-3.493-3.399-5.696-3.399c-2.343 0-4.265 1.219-5.39 2.813c1.242-6.07 7.218-14.508 18.351-14.508c11.157 0 17.133 8.437 18.375 14.508c-1.125-1.594-3.047-2.813-5.39-2.813c-2.203 0-4.407 1.055-5.696 3.399c-.117.187-.187.257-.28.257c-.118 0-.165-.07-.282-.257"/></symbol><symbol id="hd-icon-f7-umbrella-fill" viewBox="0 0 56 56"><path fill="currentColor" d="M7.785 30.672c.703 0 1.195-.516 1.594-1.125c1.312-1.992 2.86-3.235 5.18-3.235c2.343 0 3.703 1.22 4.851 3.211c.375.657.797 1.149 1.5 1.149s1.149-.492 1.5-1.125c.774-1.383 2.11-2.485 3.61-3.024v19.829c0 1.828-1.29 3.257-3.258 3.257c-1.922 0-3.211-1.453-3.211-3.257c0-1.43-.89-2.25-2.016-2.25c-1.101 0-1.945.82-1.945 2.25c0 4.007 3.047 7.195 7.172 7.195c4.148 0 7.218-3.188 7.218-7.195V26.523a6.94 6.94 0 0 1 3.61 3.024c.351.633.773 1.125 1.5 1.125c.703 0 1.125-.492 1.5-1.149c1.148-1.968 2.508-3.21 4.851-3.21c2.32 0 3.891 1.359 5.18 3.375c.398.609.89.984 1.594.984c.96 0 1.875-.774 1.875-2.04c0-8.366-6.328-19.968-20.11-21V4.54c0-1.242-.843-2.086-1.992-2.086c-1.125 0-1.968.844-1.968 2.086v3.094c-13.782 1.031-20.11 12.633-20.11 21c0 1.265.89 2.039 1.875 2.039"/></symbol><symbol id="hd-icon-f7-underline" viewBox="0 0 56 56"><path fill="currentColor" d="M27.988 41.734c8.461 0 13.664-5.062 13.664-12.422V9.228c0-1.313-.867-2.157-2.18-2.157c-1.335 0-2.156.844-2.156 2.157V28.96c0 5.227-3.445 8.766-9.328 8.766c-5.86 0-9.304-3.54-9.304-8.766V9.227c0-1.313-.868-2.157-2.18-2.157c-1.336 0-2.156.844-2.156 2.157v20.086c0 7.359 5.226 12.421 13.64 12.421M15.731 48.93h24.515c.773 0 1.406-.586 1.406-1.383s-.633-1.406-1.406-1.406H15.73a1.39 1.39 0 0 0-1.382 1.406a1.37 1.37 0 0 0 1.382 1.383"/></symbol><symbol id="hd-icon-f7-upload-circle" viewBox="0 0 56 56"><path fill="currentColor" fill-rule="evenodd" d="M28 4c13.255 0 24 10.745 24 24S41.255 52 28 52S4 41.255 4 28S14.745 4 28 4m0 4C16.954 8 8 16.954 8 28s8.954 20 20 20s20-8.954 20-20S39.046 8 28 8m1.603 5.43c.457-.014.918.156 1.267.505l6.054 6.054c.672.672.673 1.758.003 2.428a1.713 1.713 0 0 1-2.428-.004l-3.143-3.143v13.016a7.714 7.714 0 1 1-7.714-7.714a1.714 1.714 0 0 1 0 3.428a4.286 4.286 0 1 0 4.285 4.286V19.27l-3.143 3.143a1.716 1.716 0 0 1-2.428.004a1.713 1.713 0 0 1 .004-2.428l6.054-6.054a1.72 1.72 0 0 1 1.19-.506"/></symbol><symbol id="hd-icon-f7-upload-circle-fill" viewBox="0 0 56 56"><path fill="currentColor" fill-rule="evenodd" d="M28 52C14.745 52 4 41.255 4 28S14.745 4 28 4s24 10.745 24 24s-10.745 24-24 24m3.356-19.714V19.27l3.143 3.143a1.713 1.713 0 0 0 2.428.004c.67-.67.669-1.756-.003-2.428l-6.054-6.054a1.72 1.72 0 0 0-1.504-.484a1.7 1.7 0 0 0-.952.484l-6.054 6.054a1.713 1.713 0 0 0-.004 2.428c.67.67 1.756.668 2.428-.004l3.143-3.143v13.016A4.286 4.286 0 1 1 23.642 28a1.714 1.714 0 1 0 0-3.428a7.714 7.714 0 1 0 7.714 7.714"/></symbol><symbol id="hd-icon-f7-videocam" viewBox="0 0 56 56"><path fill="currentColor" d="M32.5 12a7 7 0 0 1 7 7v3.261l7.6-6.49a3.25 3.25 0 0 1 1.88-.77l.23-.009a3.25 3.25 0 0 1 3.246 3.066l.005.184v19.66a3.25 3.25 0 0 1-5.187 2.61l-.155-.123l-7.619-6.406V37a7 7 0 0 1-7 7h-22a7 7 0 0 1-7-7V19a7 7 0 0 1 7-7zm0 3h-22a4 4 0 0 0-3.995 3.8L6.5 19v18a4 4 0 0 0 3.8 3.995l.2.005h22a4 4 0 0 0 3.995-3.8l.005-.2V19a4 4 0 0 0-3.8-3.995zm16.71 2.992a.25.25 0 0 0-.113.027l-.049.033l-9.151 7.816l-.037.04a.3.3 0 0 0-.045.096l-.006.054v4.148l.006.055a.3.3 0 0 0 .046.097l.037.04l9.152 7.695l.056.036a.25.25 0 0 0 .348-.17l.007-.058V18.242l-.007-.057a.25.25 0 0 0-.243-.193"/></symbol><symbol id="hd-icon-f7-videocam-circle" viewBox="0 0 56 56"><path fill="currentColor" d="M28 4c13.255 0 24 10.745 24 24S41.255 52 28 52S4 41.255 4 28S14.745 4 28 4m0 4C16.954 8 8 16.954 8 28s8.954 20 20 20s20-8.954 20-20S39.046 8 28 8m2.77 10l.207.005a4.29 4.29 0 0 1 4.077 4.076l.005.208v11.03l-.005.207a4.29 4.29 0 0 1-4.077 4.077l-.208.005H17.29l-.208-.005a4.29 4.29 0 0 1-4.076-4.077L13 33.318V22.29l.005-.208a4.29 4.29 0 0 1 4.076-4.076L17.29 18zm10.239 1.833l.157.006a1.99 1.99 0 0 1 1.816 1.717l.015.156l.003.113V33.87l-.008.175a1.99 1.99 0 0 1-3.027 1.521l-.143-.097l-.095-.075l-3.443-2.895v-9.26l3.431-2.93l.144-.111c.247-.175.53-.29.828-.34l.18-.02z"/></symbol><symbol id="hd-icon-f7-videocam-circle-fill" viewBox="0 0 56 56"><path fill="currentColor" d="M28 4c13.255 0 24 10.745 24 24S41.255 52 28 52S4 41.255 4 28S14.745 4 28 4m2.77 14H17.29a4.29 4.29 0 0 0-4.285 4.081L13 22.29v11.03a4.29 4.29 0 0 0 4.081 4.284l.208.005h13.48a4.29 4.29 0 0 0 4.285-4.082l.005-.208V22.29a4.29 4.29 0 0 0-4.082-4.284zm10.239 1.833l-.142.005a2 2 0 0 0-1.008.36l-.144.112l-3.431 2.93v9.26l3.443 2.895l.095.075a1.991 1.991 0 0 0 3.17-1.424L43 33.87V21.825l-.003-.113a1.99 1.99 0 0 0-1.83-1.873z"/></symbol><symbol id="hd-icon-f7-videocam-fill" viewBox="0 0 56 56"><path fill="currentColor" d="M39.5 37a7 7 0 0 1-7 7h-22a7 7 0 0 1-7-7V19a7 7 0 0 1 7-7h22a7 7 0 0 1 7 7zm9.71-22.008a3.25 3.25 0 0 1 3.246 3.066l.005.184v19.66a3.25 3.25 0 0 1-5.187 2.61l-.155-.123l-5.619-4.725V20.553l5.6-4.782a3.25 3.25 0 0 1 1.88-.77z"/></symbol><symbol id="hd-icon-f7-view-2d" viewBox="0 0 56 56"><path fill="currentColor" d="M2.024 44.969h19.334c1.186 0 1.93-.745 1.93-1.885c0-1.117-.744-1.861-1.93-1.861H5.863v-.117l9.097-8.84c5.537-5.375 7.165-8.167 7.165-11.75c0-5.327-4.722-9.399-11.027-9.399c-4.956 0-9.19 2.676-10.61 6.77C.21 18.68.1 19.33.1 19.912c0 1.163.691 1.93 1.831 1.93c1.094 0 1.559-.511 1.908-1.674c.186-.722.442-1.373.814-1.978c1.233-2.07 3.537-3.397 6.445-3.397c3.769 0 6.77 2.653 6.77 5.956c0 2.676-1.093 4.49-5.7 9.027L1.28 40.595C.303 41.572 0 42.154 0 43.015c0 1.21.791 1.954 2.024 1.954m27.989-.047h9.538C49.974 44.922 56 38.71 56 28.217s-6.026-16.565-16.449-16.565h-9.539c-1.28 0-2.093.838-2.093 2.14v28.966c0 1.326.814 2.164 2.093 2.164m2.117-3.815V15.42h7.119c8.003 0 12.447 4.654 12.447 12.82c0 8.212-4.444 12.865-12.447 12.865Z"/></symbol><symbol id="hd-icon-f7-view-3d" viewBox="0 0 56 56"><path fill="currentColor" d="M11.678 45.115c7.035 0 12.092-4.115 12.092-9.724c0-4.552-3.264-7.54-8.506-7.885v-.092c4.368-.736 7.08-3.655 7.08-7.747c0-4.966-4.505-8.552-10.758-8.552c-4.735 0-8.574 2.069-10.207 5.494c-.413.85-.62 1.632-.62 2.529c0 1.08.735 1.793 1.793 1.793s1.517-.39 1.862-1.471c.988-3.012 3.517-4.736 7.034-4.736c4.092 0 6.736 2.161 6.736 5.494c0 3.426-2.805 5.701-6.943 5.701H8.713c-1.08 0-1.793.667-1.793 1.725c0 1.034.712 1.724 1.793 1.724h2.574c5.104 0 8.138 2.16 8.138 6c0 3.54-3.15 6.046-7.7 6.046c-3.978 0-6.828-1.77-7.863-4.805c-.345-.988-.92-1.425-1.885-1.425C.782 35.184 0 35.92 0 37.115c0 .805.207 1.54.644 2.345c1.908 3.632 5.908 5.655 11.034 5.655m18.644-.575h9.425C50.047 44.54 56 38.402 56 28.035c0-10.368-5.954-16.368-16.253-16.368h-9.425c-1.264 0-2.069.827-2.069 2.114v28.621c0 1.31.805 2.138 2.069 2.138m2.092-3.77V15.39h7.057c7.886 0 12.276 4.598 12.276 12.667c0 8.115-4.39 12.713-12.276 12.713Z"/></symbol><symbol id="hd-icon-f7-viewfinder" viewBox="0 0 56 56"><path fill="currentColor" d="M47.617 21.402c1.242 0 1.899-.68 1.899-1.922v-5.742c0-4.828-2.438-7.242-7.36-7.242h-5.719c-1.242 0-1.921.68-1.921 1.875c0 1.219.68 1.899 1.921 1.899h5.672c2.297 0 3.633 1.242 3.633 3.68v5.53c0 1.243.68 1.922 1.875 1.922m-39.234 0c1.219 0 1.875-.68 1.875-1.922v-5.53c0-2.438 1.312-3.68 3.656-3.68h5.672c1.219 0 1.898-.68 1.898-1.899c0-1.195-.68-1.875-1.898-1.875h-5.742c-4.875 0-7.36 2.414-7.36 7.242v5.743c0 1.242.68 1.921 1.899 1.921m5.46 28.102h5.743c1.219 0 1.898-.68 1.898-1.875c0-1.219-.68-1.898-1.898-1.898h-5.672c-2.344 0-3.656-1.243-3.656-3.68V36.52c0-1.243-.68-1.922-1.875-1.922c-1.242 0-1.899.68-1.899 1.922v5.718c0 4.852 2.485 7.266 7.36 7.266m22.594 0h5.72c4.921 0 7.359-2.438 7.359-7.266V36.52c0-1.243-.68-1.922-1.899-1.922s-1.875.68-1.875 1.922v5.53c0 2.438-1.336 3.68-3.633 3.68h-5.672c-1.242 0-1.921.68-1.921 1.899c0 1.195.68 1.875 1.921 1.875"/></symbol><symbol id="hd-icon-f7-viewfinder-circle" viewBox="0 0 56 56"><path fill="currentColor" d="M28 51.906c13.055 0 23.906-10.828 23.906-23.906c0-13.055-10.875-23.906-23.93-23.906C14.899 4.094 4.095 14.945 4.095 28c0 13.078 10.828 23.906 23.906 23.906m0-3.984C16.937 47.922 8.1 39.062 8.1 28c0-11.04 8.813-19.922 19.876-19.922c11.039 0 19.921 8.883 19.945 19.922c.023 11.063-8.883 19.922-19.922 19.922m-7.195-31.43c-2.907 0-4.43 1.5-4.43 4.406v3.094c0 1.031.68 1.711 1.687 1.711s1.688-.656 1.688-1.71V21.46c0-1.102.492-1.594 1.57-1.594h2.602c1.031 0 1.71-.68 1.71-1.687s-.679-1.688-1.71-1.688Zm14.203 0H31.89c-1.007 0-1.71.68-1.71 1.688s.703 1.687 1.71 1.687h2.626c1.054 0 1.57.492 1.57 1.594v2.531c0 1.055.656 1.711 1.664 1.711c1.031 0 1.71-.68 1.71-1.71v-3.095c0-2.906-1.546-4.406-4.452-4.406M20.805 39.578h3.117c1.031 0 1.71-.68 1.71-1.687s-.679-1.688-1.71-1.688H21.32c-1.078 0-1.57-.492-1.57-1.594v-2.53c0-1.056-.68-1.712-1.688-1.712c-1.007 0-1.687.68-1.687 1.711v3.094c0 2.906 1.523 4.406 4.43 4.406m14.203 0c2.906 0 4.453-1.5 4.453-4.406v-3.094c0-1.031-.68-1.71-1.711-1.71c-1.008 0-1.664.655-1.664 1.71v2.531c0 1.102-.516 1.594-1.57 1.594H31.89c-1.008 0-1.711.68-1.711 1.688c0 1.007.703 1.687 1.71 1.687Z"/></symbol><symbol id="hd-icon-f7-viewfinder-circle-fill" viewBox="0 0 56 56"><path fill="currentColor" d="M28 51.906c13.055 0 23.906-10.828 23.906-23.906c0-13.055-10.875-23.906-23.93-23.906C14.899 4.094 4.095 14.945 4.095 28c0 13.078 10.828 23.906 23.906 23.906m-7.195-35.414h3.117c1.031 0 1.71.68 1.71 1.688s-.679 1.687-1.71 1.687H21.32c-1.078 0-1.57.492-1.57 1.594v2.531c0 1.055-.68 1.711-1.688 1.711c-1.007 0-1.687-.68-1.687-1.71v-3.095c0-2.906 1.523-4.406 4.43-4.406m14.203 0c2.906 0 4.453 1.5 4.453 4.406v3.094c0 1.031-.68 1.711-1.711 1.711c-1.008 0-1.664-.656-1.664-1.71V21.46c0-1.102-.516-1.594-1.57-1.594H31.89c-1.008 0-1.711-.68-1.711-1.687s.703-1.688 1.71-1.688ZM20.805 39.578c-2.907 0-4.43-1.5-4.43-4.406v-3.094c0-1.031.68-1.71 1.687-1.71s1.688.655 1.688 1.71v2.531c0 1.102.492 1.594 1.57 1.594h2.602c1.031 0 1.71.68 1.71 1.688c0 1.007-.679 1.687-1.71 1.687Zm14.203 0H31.89c-1.007 0-1.71-.68-1.71-1.687s.703-1.688 1.71-1.688h2.626c1.054 0 1.57-.492 1.57-1.594v-2.53c0-1.056.656-1.712 1.664-1.712c1.031 0 1.71.68 1.71 1.711v3.094c0 2.906-1.546 4.406-4.452 4.406"/></symbol><symbol id="hd-icon-f7-wallet" viewBox="0 0 56 56"><path fill="currentColor" d="M46.847 8.448A6 6 0 0 1 47.052 10l-.001 6.001l.174.004A6 6 0 0 1 53 22v24a6 6 0 0 1-6 6H9a6 6 0 0 1-6-6V22l.003-.205l.01-.18a6 6 0 0 1 4.436-6.167l32.05-11.243a6 6 0 0 1 7.348 4.243M47 20H9a2 2 0 0 0-1.995 1.851l-.005.15v24a2 2 0 0 0 1.85 1.994L9 48h38a2 2 0 0 0 1.995-1.85L49 46V22a2 2 0 0 0-1.85-1.994zM37 30a4 4 0 1 1 0 8a4 4 0 0 1 0-8m3.68-21.965l-.048.011L17.957 16h25.094v-6a2 2 0 0 0-.03-.347l-.038-.17a2 2 0 0 0-2.304-1.448"/></symbol><symbol id="hd-icon-f7-wallet-fill" viewBox="0 0 56 56"><path fill="currentColor" d="M6.081 16.001h40.97l.174.005A6 6 0 0 1 53 22v24a6 6 0 0 1-6 6H9a6 6 0 0 1-6-6V22l.003-.205l.01-.18A6.01 6.01 0 0 1 6.081 16M37 30a4 4 0 1 0 0 8a4 4 0 0 0 0-8m9.847-21.55a6 6 0 0 1 .205 1.55l-.001 3H14.424l25.075-8.795a6 6 0 0 1 7.348 4.243"/></symbol><symbol id="hd-icon-f7-wand-rays" viewBox="0 0 56 56"><path fill="currentColor" d="M30.027 5.066c0-1.101-.937-2.039-2.039-2.039c-1.101 0-2.039.938-2.039 2.04v7.218c0 1.125.938 2.063 2.04 2.063c1.1 0 2.038-.938 2.038-2.063Zm7.547 10.454c-.773.773-.773 2.085 0 2.882c.797.774 2.133.774 2.907 0l5.109-5.11a2.065 2.065 0 0 0 0-2.905c-.774-.774-2.086-.774-2.883 0Zm-22.078 2.882c.774.774 2.086.774 2.86 0c.796-.797.796-2.11 0-2.883l-5.063-5.109c-.773-.773-2.086-.797-2.883-.023c-.773.773-.773 2.086 0 2.883ZM46.95 50.77c.985 1.007 2.672 1.007 3.61 0a2.597 2.597 0 0 0 0-3.61L28.293 24.8c-.984-.984-2.695-.984-3.61 0c-.984 1.032-.96 2.65 0 3.634ZM5.066 25.95c-1.101 0-2.039.937-2.039 2.038c0 1.102.938 2.04 2.04 2.04h7.242c1.125 0 2.062-.938 2.062-2.04c0-1.101-.937-2.039-2.062-2.039Zm45.844 4.077c1.102 0 2.063-.937 2.063-2.039c0-1.101-.961-2.039-2.063-2.039h-7.219c-1.125 0-2.062.938-2.062 2.04c0 1.1.937 2.038 2.062 2.038Zm-17.578 4.641l-6.89-6.89c-.422-.422-.516-.868-.141-1.29c.422-.375.867-.281 1.312.164l6.868 6.89Zm-22.945 8.016c-.774.773-.797 2.109-.024 2.882c.774.774 2.11.797 2.907.024l5.085-5.11a2.01 2.01 0 0 0 0-2.859c-.75-.797-2.085-.797-2.859 0Zm19.64 1.03c0-1.124-.937-2.062-2.039-2.062c-1.101 0-2.039.938-2.039 2.063v7.219c0 1.101.938 2.039 2.04 2.039c1.1 0 2.038-.938 2.038-2.04Z"/></symbol><symbol id="hd-icon-f7-wand-rays-inverse" viewBox="0 0 56 56"><path fill="currentColor" d="M30.027 5.066c0-1.101-.937-2.039-2.039-2.039c-1.101 0-2.039.938-2.039 2.04v7.218c0 1.125.938 2.063 2.04 2.063c1.1 0 2.038-.938 2.038-2.063Zm7.547 10.454c-.773.773-.773 2.085 0 2.882c.797.774 2.133.774 2.907 0l5.109-5.11a2.065 2.065 0 0 0 0-2.905c-.774-.774-2.086-.774-2.883 0Zm-22.078 2.882c.774.774 2.086.774 2.86 0c.796-.797.796-2.11 0-2.883l-5.063-5.109c-.773-.773-2.086-.797-2.883-.023a2.08 2.08 0 0 0 0 2.883ZM46.95 50.77c.985 1.007 2.672 1.007 3.61 0a2.597 2.597 0 0 0 0-3.61L28.293 24.8c-.984-.984-2.695-.984-3.61 0c-.984 1.032-.96 2.65 0 3.634ZM5.066 25.95c-1.101 0-2.039.937-2.039 2.038c0 1.102.938 2.04 2.04 2.04h7.242c1.125 0 2.062-.938 2.062-2.04c0-1.101-.937-2.039-2.062-2.039Zm45.844 4.077c1.102 0 2.063-.937 2.063-2.039c0-1.101-.961-2.039-2.063-2.039h-7.219c-1.125 0-2.062.938-2.062 2.04c0 1.1.937 2.038 2.062 2.038Zm-3.117 19.125L33.332 34.668l1.148-1.125l14.462 14.484c.421.399.515.867.14 1.29c-.399.351-.844.28-1.289-.165m-37.406-6.468c-.774.773-.797 2.109-.024 2.882c.774.774 2.11.797 2.907.024l5.085-5.11a2.01 2.01 0 0 0 0-2.859c-.75-.797-2.085-.797-2.859 0Zm19.64 1.03c0-1.124-.937-2.062-2.039-2.062c-1.101 0-2.039.938-2.039 2.063v7.219c0 1.101.938 2.039 2.04 2.039c1.1 0 2.038-.938 2.038-2.04Z"/></symbol><symbol id="hd-icon-f7-wand-stars" viewBox="0 0 56 56"><path fill="currentColor" d="M21.871 15.566c.281 0 .422-.164.469-.421c.797-3.75.75-3.891 4.664-4.688c.281-.047.445-.21.445-.469c0-.281-.164-.445-.445-.492c-3.914-.797-3.867-.937-4.664-4.664c-.047-.258-.188-.445-.469-.445s-.422.187-.492.445c-.774 3.727-.727 3.867-4.664 4.664c-.258.047-.445.211-.445.492c0 .258.187.422.445.469c3.937.797 3.89.938 4.664 4.688c.07.257.21.421.492.421m19.36 8.274c.328 0 .515-.211.562-.516c.82-4.453.844-4.734 5.554-5.555c.305-.046.54-.257.54-.585c0-.329-.235-.516-.54-.586c-4.71-.797-4.734-1.078-5.554-5.532c-.047-.304-.234-.539-.562-.539s-.54.235-.586.54c-.797 4.453-.82 4.734-5.532 5.53c-.328.071-.539.258-.539.587s.211.539.54.585c4.71.82 4.734 1.102 5.53 5.555c.047.305.258.516.587.516M9.027 30.566c.329 0 .516-.234.563-.539c.82-4.453.844-4.734 5.555-5.53c.304-.071.539-.259.539-.587s-.235-.539-.54-.586c-4.71-.82-4.734-1.101-5.554-5.555c-.047-.304-.235-.515-.563-.515s-.539.21-.585.515c-.82 4.454-.82 4.735-5.532 5.555c-.328.047-.539.258-.539.586s.211.516.54.586c4.71.797 4.71 1.078 5.53 5.531c.047.305.258.54.586.54m40.008 20.04c1.008 1.007 2.695 1.007 3.61 0c.984-1.032.984-2.626 0-3.61l-22.266-22.36c-.984-.984-2.672-.984-3.61 0c-.984 1.032-.96 2.65 0 3.634ZM35.418 34.504l-6.867-6.89c-.422-.423-.54-.868-.14-1.29c.398-.375.843-.281 1.288.164l6.89 6.89ZM20.16 50.98c.422 0 .727-.305.774-.75c.773-6.258 1.078-6.422 7.43-7.454c.515-.093.82-.328.82-.797c0-.445-.305-.726-.727-.796c-6.398-1.22-6.75-1.196-7.523-7.453c-.047-.446-.352-.75-.774-.75c-.445 0-.75.304-.797.726c-.82 6.352-1.054 6.563-7.523 7.477c-.422.047-.727.351-.727.797c0 .445.305.703.727.796c6.469 1.242 6.68 1.242 7.523 7.5a.774.774 0 0 0 .797.703"/></symbol><symbol id="hd-icon-f7-wand-stars-inverse" viewBox="0 0 56 56"><path fill="currentColor" d="M21.871 15.566c.281 0 .422-.164.469-.421c.797-3.75.75-3.891 4.664-4.688c.281-.047.445-.21.445-.469c0-.281-.164-.445-.445-.492c-3.914-.797-3.867-.937-4.664-4.664c-.047-.258-.188-.445-.469-.445s-.422.187-.492.445c-.774 3.727-.727 3.867-4.664 4.664c-.258.047-.445.211-.445.492c0 .258.187.422.445.469c3.937.797 3.89.938 4.664 4.688c.07.257.21.421.492.421m19.36 8.274c.328 0 .515-.211.562-.516c.82-4.453.844-4.734 5.554-5.555c.305-.046.54-.257.54-.585c0-.329-.235-.516-.54-.586c-4.71-.797-4.734-1.078-5.554-5.532c-.047-.304-.234-.539-.562-.539s-.54.235-.586.54c-.797 4.453-.82 4.734-5.532 5.53c-.328.071-.539.258-.539.587s.211.539.54.585c4.71.82 4.734 1.102 5.53 5.555c.047.305.258.516.587.516M9.027 30.566c.329 0 .516-.234.563-.539c.82-4.453.844-4.734 5.555-5.53c.304-.071.539-.259.539-.587s-.235-.539-.54-.586c-4.71-.82-4.734-1.101-5.554-5.555c-.047-.304-.235-.515-.563-.515s-.539.21-.585.515c-.82 4.454-.82 4.735-5.532 5.555c-.328.047-.539.258-.539.586s.211.516.54.586c4.71.797 4.71 1.078 5.53 5.531c.047.305.258.54.586.54m40.032 20.04c.984 1.007 2.671 1.007 3.609 0c.938-1.055.96-2.626 0-3.61l-22.289-22.36c-.984-.984-2.672-.984-3.61 0c-.96 1.055-.96 2.65 0 3.634Zm-28.899.374c.422 0 .727-.304.774-.75c.773-6.257 1.078-6.421 7.43-7.453c.515-.093.82-.328.82-.797c0-.445-.305-.726-.727-.796c-6.398-1.22-6.75-1.196-7.523-7.453c-.047-.446-.352-.75-.774-.75c-.445 0-.75.304-.797.726c-.82 6.352-1.054 6.563-7.523 7.477c-.422.047-.727.351-.727.797c0 .445.305.703.727.796c6.469 1.242 6.68 1.242 7.523 7.5a.774.774 0 0 0 .797.703m29.743-1.992L35.442 34.504l1.148-1.125l14.46 14.484c.423.399.516.867.141 1.29c-.422.35-.867.28-1.288-.165"/></symbol><symbol id="hd-icon-f7-waveform" viewBox="0 0 56 56"><path fill="currentColor" d="M24.59 49.574c.96 0 1.664-.726 1.664-1.64V8.066c0-.914-.703-1.64-1.664-1.64c-.938 0-1.64.726-1.64 1.64v39.868c0 .914.702 1.64 1.64 1.64m13.64-4.687c.938 0 1.641-.75 1.641-1.664V12.777c0-.914-.703-1.664-1.64-1.664c-.938 0-1.665.75-1.665 1.664v30.446c0 .914.727 1.664 1.664 1.664M17.793 41.09c.938 0 1.64-.727 1.64-1.64v-22.9c0-.913-.703-1.64-1.64-1.64c-.961 0-1.664.727-1.664 1.64v22.9c0 .913.703 1.64 1.664 1.64m13.617-2.531c.938 0 1.664-.727 1.664-1.641V19.082c0-.914-.726-1.64-1.664-1.64s-1.64.726-1.64 1.64v17.836c0 .914.703 1.64 1.64 1.64m13.64-4.196c.938 0 1.641-.75 1.641-1.664V23.3c0-.914-.703-1.664-1.64-1.664a1.64 1.64 0 0 0-1.664 1.664v9.398a1.64 1.64 0 0 0 1.664 1.664m-34.077-1.851c.937 0 1.64-.727 1.64-1.64v-5.743c0-.914-.703-1.64-1.64-1.64c-.961 0-1.664.726-1.664 1.64v5.742c0 .914.703 1.64 1.664 1.64"/></symbol><symbol id="hd-icon-f7-waveform-circle" viewBox="0 0 56 56"><path fill="currentColor" d="M28 51.906c13.055 0 23.906-10.828 23.906-23.906c0-13.055-10.875-23.906-23.93-23.906C14.899 4.094 4.095 14.945 4.095 28c0 13.078 10.828 23.906 23.906 23.906m0-3.984C16.937 47.922 8.1 39.062 8.1 28c0-11.04 8.813-19.922 19.876-19.922c11.039 0 19.921 8.883 19.945 19.922c.023 11.063-8.883 19.922-19.922 19.922m-2.367-4.383c.726 0 1.265-.562 1.265-1.289v-28.5c0-.727-.562-1.312-1.265-1.312c-.75 0-1.313.585-1.313 1.312v28.5c0 .75.54 1.29 1.313 1.29m9.468-3.398a1.29 1.29 0 0 0 1.313-1.29V17.126c0-.727-.563-1.29-1.313-1.29c-.703 0-1.265.587-1.265 1.29v21.727c0 .703.562 1.289 1.265 1.289m-14.226-2.977c.703 0 1.265-.562 1.265-1.289V20.078a1.26 1.26 0 0 0-1.265-1.265c-.727 0-1.313.562-1.313 1.265v15.797c0 .727.586 1.29 1.313 1.29m9.492-1.875c.727 0 1.29-.539 1.29-1.266v-12.07c0-.726-.563-1.265-1.29-1.265s-1.289.562-1.289 1.265v12.07c0 .704.563 1.266 1.29 1.266m9.516-2.789c.726 0 1.289-.54 1.289-1.266v-6.492c0-.726-.563-1.265-1.29-1.265c-.726 0-1.288.539-1.288 1.265v6.492c0 .727.562 1.266 1.289 1.266m-23.79-1.172c.727 0 1.313-.562 1.313-1.265v-4.149c0-.703-.586-1.266-1.312-1.266c-.704 0-1.29.563-1.29 1.266v4.148c0 .704.586 1.266 1.29 1.266"/></symbol><symbol id="hd-icon-f7-waveform-circle-fill" viewBox="0 0 56 56"><path fill="currentColor" d="M28 51.906c13.055 0 23.906-10.851 23.906-23.906c0-13.078-10.875-23.906-23.93-23.906C14.899 4.094 4.095 14.922 4.095 28c0 13.055 10.828 23.906 23.906 23.906m-2.367-8.414c-.774 0-1.313-.539-1.313-1.289v-28.5c0-.726.563-1.312 1.313-1.312c.703 0 1.265.586 1.265 1.312v28.5c0 .727-.539 1.29-1.265 1.29m9.468-3.398c-.703 0-1.265-.586-1.265-1.29V17.079c0-.703.562-1.289 1.265-1.289c.75 0 1.313.563 1.313 1.29v21.726a1.29 1.29 0 0 1-1.313 1.289m-14.226-2.977c-.727 0-1.313-.562-1.313-1.289V20.031c0-.703.586-1.265 1.313-1.265a1.26 1.26 0 0 1 1.265 1.265v15.797c0 .727-.562 1.29-1.265 1.29m9.492-1.875c-.727 0-1.289-.562-1.289-1.265v-12.07c0-.704.563-1.266 1.29-1.266c.726 0 1.288.539 1.288 1.265v12.07c0 .727-.562 1.266-1.289 1.266m9.516-2.789c-.727 0-1.29-.539-1.29-1.266v-6.492c0-.726.563-1.265 1.29-1.265c.726 0 1.289.539 1.289 1.265v6.493c0 .726-.563 1.265-1.29 1.265m-23.79-1.172c-.703 0-1.288-.562-1.288-1.265v-4.149c0-.703.585-1.265 1.289-1.265c.726 0 1.312.562 1.312 1.265v4.149c0 .703-.586 1.265-1.312 1.265"/></symbol><symbol id="hd-icon-f7-waveform-path" viewBox="0 0 56 56"><path fill="currentColor" d="M1.644 32.55h6.689c.616 0 1.187-.366 1.347-1.028l.662-2.945l3.219 14.907c.296 1.37 2.534 1.37 2.74-.022l2.784-18.31l3.265 28.24c.205 1.69 2.625 1.667 2.762 0l3.014-33.673l2.99 33.65c.16 1.713 2.557 1.713 2.763 0l3.264-28.216l2.808 18.332c.206 1.392 2.42 1.392 2.74 0l3.173-14.725l.685 2.762c.205.753.73 1.027 1.347 1.027h6.483c.914 0 1.621-.707 1.621-1.598c0-.89-.707-1.62-1.62-1.62H48.9l-1.826-7.078c-.41-1.53-2.397-1.53-2.717 0l-2.83 13.333l-3.22-21.026c-.25-1.667-2.556-1.621-2.762.023L32.67 39.535L29.52 3.921c-.138-1.712-2.649-1.712-2.809 0l-3.15 35.614l-2.877-24.952c-.182-1.69-2.488-1.69-2.762-.023l-3.219 21.026l-2.808-13.333c-.32-1.415-2.351-1.415-2.74 0L7.329 29.33H1.644C.73 29.33 0 30.06 0 30.951c0 .89.73 1.598 1.644 1.598"/></symbol><symbol id="hd-icon-f7-waveform-path-badge-minus" viewBox="0 0 56 56"><path fill="currentColor" d="M19.236 30.655a13 13 0 0 1 2.227 2.31l.875-5.89l2.977 25.75c.187 1.541 2.394 1.52 2.518 0l2.749-30.706l2.727 30.686c.125 1.562 2.331 1.562 2.519 0l2.977-25.73l2.56 16.716c.167 1.27 2.207 1.27 2.499 0l2.893-13.428l.625 2.52c.187.686.666.936 1.228.936h5.912c.833 0 1.478-.645 1.478-1.457a1.47 1.47 0 0 0-1.478-1.478h-4.996L47.86 24.43c-.374-1.395-2.185-1.395-2.477 0l-2.582 12.158l-2.934-19.173c-.23-1.52-2.332-1.478-2.52.02L34.724 40.19L31.851 7.714c-.145-1.562-2.415-1.562-2.56 0L26.418 40.19l-2.623-22.754c-.187-1.541-2.29-1.541-2.52-.021ZM15.78 24.43c-.291-1.29-2.144-1.29-2.498 0l-.77 2.977c1.498.209 2.893.666 4.163 1.312Zm-5.204 26.814c5.808 0 10.575-4.747 10.575-10.576c0-5.808-4.767-10.575-10.575-10.575C4.788 30.093 0 34.86 0 40.668c0 5.83 4.788 10.576 10.576 10.576m-5.35-9.306c-.688 0-1.27-.604-1.27-1.27c0-.687.582-1.27 1.27-1.27h10.7c.708 0 1.29.583 1.29 1.27c0 .666-.582 1.27-1.29 1.27Z"/></symbol><symbol id="hd-icon-f7-waveform-path-badge-plus" viewBox="0 0 56 56"><path fill="currentColor" d="M19.236 30.655a13 13 0 0 1 2.227 2.31l.875-5.89l2.977 25.75c.187 1.541 2.394 1.52 2.518 0l2.749-30.706l2.727 30.686c.125 1.562 2.331 1.562 2.519 0l2.977-25.73l2.56 16.716c.167 1.27 2.207 1.27 2.499 0l2.893-13.428l.625 2.52c.187.686.666.936 1.228.936h5.912c.833 0 1.478-.645 1.478-1.457a1.47 1.47 0 0 0-1.478-1.478h-4.996L47.86 24.43c-.374-1.395-2.185-1.395-2.477 0l-2.582 12.158l-2.934-19.173c-.23-1.52-2.332-1.478-2.52.02L34.724 40.19L31.851 7.714c-.145-1.562-2.415-1.562-2.56 0L26.418 40.19l-2.623-22.754c-.187-1.541-2.29-1.541-2.52-.021ZM15.78 24.43c-.291-1.29-2.144-1.29-2.498 0l-.77 2.977c1.498.209 2.893.666 4.163 1.312Zm-5.204 26.814c5.745 0 10.575-4.788 10.575-10.576c0-5.808-4.767-10.575-10.575-10.575C4.788 30.093 0 34.86 0 40.668c0 5.83 4.788 10.576 10.576 10.576m.02-3.706c-.728 0-1.374-.5-1.374-1.29v-4.31H5.246c-.708 0-1.29-.583-1.29-1.27c0-.707.582-1.29 1.29-1.29h3.976v-4.31c0-.77.646-1.27 1.374-1.27c.708 0 1.354.5 1.354 1.27v4.31h3.976c.708 0 1.27.583 1.27 1.29c0 .687-.562 1.27-1.27 1.27H11.95v4.31c0 .79-.646 1.29-1.354 1.29"/></symbol><symbol id="hd-icon-f7-waveform-path-ecg" viewBox="0 0 56 56"><path fill="currentColor" d="M6.215 31.387H16.62q1.583 0 1.898-1.407l3.516-16.148L28.2 50.84c.281 1.687 2.883 1.664 3.211 0l5.977-28.008l1.382 6.96c.211 1.08.82 1.595 1.922 1.595h9.094c.938 0 1.688-.727 1.688-1.64c0-.938-.727-1.665-1.688-1.665h-8.297l-2.695-11.93c-.352-1.617-2.766-1.617-3.164.07l-5.883 26.274l-6.14-37.336c-.258-1.64-2.673-1.687-3.048 0L15.59 28.082H6.215c-.938 0-1.688.75-1.688 1.664s.75 1.64 1.688 1.64"/></symbol><symbol id="hd-icon-f7-wifi" viewBox="0 0 56 56"><path fill="currentColor" d="M5.465 25.035c.445.445 1.101.422 1.523-.023c5.532-5.883 12.844-8.977 21.024-8.977c8.226 0 15.562 3.117 21.07 9c.398.399 1.032.399 1.453-.047l3.118-3.117c.374-.398.374-.914.07-1.289c-5.297-6.516-15.258-11.32-25.711-11.32S7.598 14.066 2.3 20.582c-.328.375-.305.89.07 1.29Zm9.375 9.399c.469.492 1.078.445 1.523-.07c2.719-3.024 7.125-5.204 11.649-5.157c4.57-.047 8.953 2.203 11.695 5.227c.445.468 1.031.468 1.477-.024l3.492-3.445c.375-.375.422-.867.07-1.266c-3.398-4.195-9.703-7.289-16.734-7.289s-13.336 3.117-16.735 7.29c-.351.398-.304.866.07 1.265Zm13.172 12.304c.492 0 .937-.258 1.804-1.101l5.485-5.274c.351-.328.422-.843.117-1.242c-1.477-1.898-4.242-3.539-7.406-3.539c-3.235 0-6.047 1.711-7.5 3.68c-.211.328-.14.773.21 1.101l5.485 5.274c.867.843 1.313 1.101 1.805 1.101"/></symbol><symbol id="hd-icon-f7-wifi-exclamationmark" viewBox="0 0 56 56"><path fill="currentColor" d="M28.023 37.504c1.243 0 2.086-.82 2.11-2.11l.21-25.945c0-1.336-1.077-2.25-2.343-2.25s-2.344.914-2.344 2.25c.094 8.649.164 17.32.258 25.946c.023 1.289.867 2.109 2.11 2.109M5.453 26.37c.445.445 1.102.422 1.523-.023c4.313-4.594 9.727-7.477 15.774-8.508l-.094-6.82c-8.344 1.312-15.89 5.578-20.367 10.898c-.328.375-.305.89.07 1.289Zm43.617 0c.399.399 1.032.399 1.5-.07l3.07-3.094c.4-.398.4-.914.07-1.29c-4.476-5.32-12.023-9.585-20.366-10.874l-.07 6.82c6.023 1.078 11.39 4.008 15.796 8.508m-34.242 9.4c.469.492 1.078.445 1.524-.07c1.687-1.852 3.984-3.352 6.538-4.243l-.093-7.102c-4.828 1.079-8.953 3.633-11.531 6.68c-.352.399-.305.867.07 1.266Zm24.867 0c.446.468 1.008.445 1.5-.047l3.469-3.422c.375-.375.422-.867.07-1.266c-2.578-3.047-6.703-5.601-11.507-6.68l-.07 7.149c2.554.914 4.85 2.437 6.538 4.265M28 48.8c1.992 0 3.562-1.616 3.562-3.585A3.53 3.53 0 0 0 28 41.652c-1.969 0-3.586 1.57-3.586 3.563A3.6 3.6 0 0 0 28 48.8"/></symbol><symbol id="hd-icon-f7-wifi-slash" viewBox="0 0 56 56"><path fill="currentColor" d="M47.77 49.973a1.81 1.81 0 0 0 2.554 0c.68-.727.703-1.852 0-2.555L8.277 5.371c-.703-.703-1.851-.703-2.578 0c-.68.68-.68 1.875 0 2.555Zm1.312-20.344c.398.398 1.032.398 1.476-.047l3.095-3.117c.374-.399.374-.914.07-1.29c-5.414-6.421-15.258-11.32-25.711-11.32c-2.274 0-4.524.235-6.703.68l6.187 6.164c8.274-.164 15.797 3.024 21.586 8.93m-43.617-.047c.445.445 1.101.422 1.523-.023c2.813-3 6.117-5.25 9.75-6.75l-4.968-4.97c-3.797 1.946-7.079 4.5-9.47 7.337c-.327.375-.304.89.071 1.289Zm9.375 9.422c.469.469 1.078.445 1.523-.07c2.696-2.977 7.008-5.063 11.39-5.11l-5.952-5.93c-4.383 1.172-8.133 3.563-10.524 6.399c-.351.398-.304.89.07 1.266Zm28.64-2.297l1.196-1.148c.375-.375.422-.868.07-1.266c-2.25-2.695-5.742-4.945-9.82-6.14ZM28.035 51.332c.492 0 .938-.258 1.805-1.102l5.484-5.273c.352-.328.422-.844.117-1.242c-1.476-1.899-4.242-3.54-7.406-3.54c-3.234 0-6.047 1.712-7.5 3.68c-.21.329-.14.774.211 1.102l5.484 5.273c.868.844 1.313 1.102 1.805 1.102"/></symbol><symbol id="hd-icon-f7-wind" viewBox="0 0 56 56"><path fill="currentColor" d="M6.156 21.285c3.375-1.078 6.868-1.617 10.196-1.617c4.312 0 7.476.68 11.554.68c4.219 0 6.844-2.86 6.844-6.586c0-3.82-2.93-6.54-6.539-6.54c-2.672 0-5.016 1.665-6 3.891c-.375.774-.234 1.688.586 2.11c.75.375 1.664.14 2.156-.82c.516-1.196 1.781-2.133 3.258-2.133c1.945 0 3.469 1.359 3.469 3.492S30.203 17.3 27.906 17.3c-3.89 0-7.101-.703-11.554-.703c-3.82 0-7.688.68-11.133 1.78c-.985.282-1.36 1.126-1.125 1.946c.234.797 1.008 1.266 2.062.961m36.657 10.969c5.46 0 9.328-3.469 9.328-8.32c0-4.782-3.68-8.25-8.25-8.25c-4.242 0-7.383 2.953-7.946 6.843c-.14.961.399 1.735 1.242 1.852c.868.117 1.618-.422 1.805-1.524c.399-2.437 2.438-4.125 4.899-4.125c2.86 0 5.18 2.133 5.18 5.204c0 3.117-2.461 5.273-6.258 5.273c-7.149 0-14.86-4.078-24.235-4.078c-4.828 0-9.234.773-13.36 2.25c-.96.328-1.359 1.148-1.124 1.969c.234.797 1.031 1.289 2.062.937c3.82-1.453 7.805-2.086 12.422-2.086c9.352 0 16.336 4.055 24.235 4.055M27.93 48.777c3.61 0 6.398-2.672 6.398-6.492c0-5.531-5.648-8.625-16.055-8.625c-4.359 0-9.07.844-13.054 2.227c-.961.328-1.36 1.148-1.125 1.968c.234.797 1.031 1.29 2.062.938c3.727-1.336 7.899-2.062 12.118-2.062c8.507 0 13.007 2.132 13.007 5.554c0 2.156-1.5 3.446-3.351 3.446c-1.852 0-2.977-1.243-3.305-3.212c-.14-.867-.773-1.57-1.781-1.5c-1.055.07-1.477.962-1.336 1.899c.422 3.258 2.836 5.86 6.422 5.86"/></symbol><symbol id="hd-icon-f7-wind-snow" viewBox="0 0 56 56"><path fill="currentColor" d="M48.918 13.797c.422 0 .727-.399.703-.844l-.14-2.226l1.85 1.265c.33.235.868.14 1.102-.21a.778.778 0 0 0-.374-1.102l-2.016-.985l2.039-1.008a.804.804 0 0 0 .351-1.078c-.187-.375-.773-.445-1.101-.21L49.48 8.687l.165-2.274a.74.74 0 0 0-.727-.82c-.492 0-.773.375-.75.82l.14 2.274l-1.898-1.29c-.328-.234-.82-.21-1.055.211c-.21.352-.117.844.329 1.079l2.015 1.007l-2.015.985c-.446.187-.563.703-.352 1.101c.211.375.75.446 1.078.211l1.899-1.265l-.118 2.226c-.023.445.235.844.727.844M5.652 22.914c3.375-1.078 6.868-1.617 10.196-1.617c4.312 0 7.476.68 11.554.68c4.219 0 6.844-2.86 6.844-6.586c0-3.82-2.93-6.54-6.539-6.54c-2.672 0-5.016 1.665-6 3.891c-.375.774-.234 1.688.586 2.11c.75.375 1.664.14 2.156-.82c.516-1.196 1.781-2.134 3.258-2.134c1.945 0 3.469 1.36 3.469 3.493s-1.477 3.539-3.774 3.539c-3.89 0-7.101-.703-11.554-.703c-3.82 0-7.688.68-11.133 1.78c-.985.282-1.36 1.126-1.125 1.946c.234.797 1.008 1.266 2.062.961M42.31 33.883c5.46 0 9.328-3.469 9.328-8.32c0-4.782-3.68-8.25-8.25-8.25c-4.242 0-7.383 2.953-7.946 6.843c-.14.961.399 1.735 1.242 1.852c.868.117 1.618-.422 1.805-1.524c.399-2.437 2.438-4.125 4.899-4.125c2.86 0 5.18 2.133 5.18 5.203c0 3.118-2.461 5.274-6.258 5.274c-7.149 0-14.86-4.078-24.235-4.078c-4.828 0-9.234.773-13.36 2.25c-.96.328-1.359 1.148-1.124 1.969c.234.796 1.031 1.289 2.062.937c3.82-1.453 7.805-2.086 12.422-2.086c9.352 0 16.336 4.055 24.235 4.055M27.426 50.406c3.61 0 6.398-2.672 6.398-6.492c0-5.531-5.648-8.625-16.054-8.625c-4.36 0-9.07.844-13.055 2.227c-.961.328-1.36 1.148-1.125 1.968c.234.797 1.031 1.29 2.062.938c3.727-1.336 7.899-2.063 12.118-2.063c8.507 0 13.007 2.133 13.007 5.555c0 2.156-1.5 3.445-3.351 3.445c-1.852 0-2.977-1.242-3.305-3.21c-.14-.868-.773-1.57-1.781-1.5c-1.055.07-1.477.96-1.336 1.898c.422 3.258 2.836 5.86 6.422 5.86m21.492-4.195c.422 0 .727-.398.703-.844l-.14-2.226l1.85 1.265c.33.235.868.14 1.102-.21a.783.783 0 0 0-.374-1.102l-2.016-.985l2.039-1.007a.804.804 0 0 0 .351-1.079c-.187-.375-.773-.445-1.101-.21l-1.852 1.289l.165-2.25c.046-.47-.305-.844-.727-.844c-.492 0-.773.375-.75.844l.14 2.25l-1.898-1.29c-.328-.234-.82-.187-1.055.211c-.21.352-.117.844.329 1.079l2.015 1.007l-2.015.985a.786.786 0 0 0-.352 1.101c.211.375.75.446 1.078.211l1.899-1.265l-.118 2.226c-.023.446.235.844.727.844"/></symbol><symbol id="hd-icon-f7-wrench" viewBox="0 0 56 56"><path fill="currentColor" d="M4.673 52.303c3.698 3.697 8.807 3.495 12.84-.516c4.617-4.616 9.188-13.849 15.62-20.28c4.997-4.997 10.667-.135 17.546-6.723c2.756-2.621 4.28-6.386 3.72-9.12l-8.605 2.353c-1.434.38-2.465-.538-2.913-2.084l-.65-2.264c-.448-1.546.09-2.846 1.523-3.226l8.583-2.331c-.246-.784-.986-1.86-1.905-2.801C45.256 0 36.585.6 31.588 4.818c-7.463 7.104-1.816 14.61-6.723 19.518c-5.849 5.849-15.104 10.51-19.698 15.126c-4.033 4.011-4.212 9.12-.493 12.84m2.13-2.152c-2.42-2.465-2.242-5.938.447-8.605c4.64-4.616 14.454-9.77 19.765-15.081c5.782-5.782-.314-12.997 6.745-19.518c3.563-3.294 9.681-3.54 13.804-.381L43.15 7.73c-3.272.852-4.706 3.361-3.72 6.768l.627 2.173l2.487 9.12c-3.854.56-7.843-.111-11.562 3.564c-5.827 5.826-10.914 15.708-15.552 20.37c-2.712 2.733-6.208 2.913-8.628.425m26.06-31.798l4.819-1.277c.426-.112.672-.538.56-1.009a.79.79 0 0 0-.964-.56l-4.84 1.3a.79.79 0 0 0-.56.963c.134.47.515.717.986.583m.606 2.465l4.795-1.277a.79.79 0 0 0 .56-1.009c-.111-.426-.56-.65-.963-.56l-4.84 1.322c-.426.09-.672.538-.56.941c.134.47.537.717 1.008.583m12.885-.112l4.639-1.255c-.516 1.21-1.255 2.42-2.33 3.473c-1.323 1.278-2.69 2.017-4.102 2.42l-1.254-4.57c.896.268 1.927.246 3.047-.068m-12.302 2.577l4.862-1.3c.404-.112.65-.56.56-.986a.783.783 0 0 0-.985-.538l-4.818 1.3a.813.813 0 0 0-.583.964c.09.47.538.672.964.56M8.393 48.627c1.412 1.367 3.832 1.39 5.177-.022c1.412-1.479 1.479-3.832.022-5.244c-1.456-1.389-3.832-1.456-5.244.023c-1.389 1.434-1.411 3.832.045 5.243"/></symbol><symbol id="hd-icon-f7-wrench-fill" viewBox="0 0 56 56"><path fill="currentColor" d="M4.71 52.307c3.693 3.693 8.797 3.491 12.803-.492c3.2-3.201 9.848-14.504 15.623-20.279c3.85-3.85 8.102-1.813 12.377-3.558L41.708 14.1c-.47-1.724.224-3.156 2.216-3.693l8.393-2.238c-.269-.784-1.007-1.858-1.925-2.798C45.222.2 36.672 0 31.57 4.835c-7.43 7.095-1.79 14.593-6.692 19.494C18.723 30.484 9.77 34.827 5.204 39.482c-4.007 4.029-4.23 9.087-.493 12.825m27.821-33.931c-.492.134-.895-.112-1.074-.65c-.134-.402.157-.895.627-1.029l5.215-1.41c.425-.112.917.157 1.052.627c.134.515-.157.962-.627 1.096Zm15.467 8.527a15.6 15.6 0 0 0 2.663-2.059c2.82-2.551 4.275-6.401 3.693-9.132l-6.782 1.858c-.76.201-1.387.246-2.104.134ZM33.203 21.04c-.493.134-.918-.112-1.097-.649c-.134-.403.157-.895.627-1.007l5.215-1.432c.425-.09.917.156 1.052.626c.156.515-.157.963-.627 1.097Zm.649 2.664c-.47.134-.94-.112-1.052-.627c-.112-.47.157-.895.627-1.03l5.192-1.387a.83.83 0 0 1 1.075.582c.09.447-.18.94-.605 1.052ZM8.224 48.815c-1.522-1.522-1.544-4.073-.044-5.595c1.522-1.567 4.05-1.5 5.618-.023c1.611 1.522 1.454 4.03-.023 5.618c-1.41 1.545-4.051 1.5-5.55 0"/></symbol><symbol id="hd-icon-f7-xmark" viewBox="0 0 56 56"><path fill="currentColor" d="M10.023 43.023c-.796.797-.82 2.157 0 2.954c.82.796 2.157.796 2.977 0l15-15l15 15c.797.796 2.156.82 2.977 0c.796-.82.796-2.157 0-2.954L30.953 28l15.024-15c.796-.797.82-2.156 0-2.953c-.844-.82-2.18-.82-2.977 0l-15 15l-15-15c-.82-.82-2.18-.844-2.977 0c-.796.82-.796 2.156 0 2.953l15 15Z"/></symbol><symbol id="hd-icon-f7-xmark-circle" viewBox="0 0 56 56"><path fill="currentColor" d="M28 51.906c13.055 0 23.906-10.828 23.906-23.906c0-13.055-10.875-23.906-23.93-23.906C14.899 4.094 4.095 14.945 4.095 28c0 13.078 10.828 23.906 23.906 23.906m0-3.984C16.937 47.922 8.1 39.062 8.1 28c0-11.04 8.813-19.922 19.876-19.922c11.039 0 19.921 8.883 19.945 19.922c.023 11.063-8.883 19.922-19.922 19.922m-8.016-9.984c.516 0 .985-.211 1.336-.586l6.657-6.68l6.656 6.68c.351.351.82.586 1.36.586c1.03 0 1.874-.868 1.874-1.899c0-.539-.21-.984-.562-1.336l-6.657-6.656l6.68-6.703c.375-.399.563-.797.563-1.313a1.865 1.865 0 0 0-1.875-1.875c-.493 0-.915.164-1.313.563l-6.727 6.703l-6.703-6.68c-.351-.375-.773-.539-1.289-.539c-1.054 0-1.875.797-1.875 1.852c0 .515.188.96.563 1.312l6.656 6.68l-6.656 6.68c-.375.328-.563.796-.563 1.312c0 1.031.82 1.898 1.875 1.898"/></symbol><symbol id="hd-icon-f7-xmark-circle-fill" viewBox="0 0 56 56"><path fill="currentColor" d="M28 51.906c13.055 0 23.906-10.828 23.906-23.906c0-13.055-10.875-23.906-23.93-23.906C14.899 4.094 4.095 14.945 4.095 28c0 13.078 10.828 23.906 23.906 23.906m-8.414-13.5a1.99 1.99 0 0 1-1.992-1.992c0-.539.234-1.008.609-1.36l6.984-7.03l-6.984-7.032a1.8 1.8 0 0 1-.61-1.36c0-1.077.891-1.945 1.993-1.945c.539 0 1.008.211 1.36.586l7.03 7.008l7.079-7.031c.398-.422.82-.61 1.336-.61c1.101 0 1.992.891 1.992 1.97c0 .538-.188.984-.586 1.359l-7.031 7.054l7.007 6.985c.352.375.586.844.586 1.406a1.99 1.99 0 0 1-1.992 1.992a1.93 1.93 0 0 1-1.383-.586l-7.007-7.031l-6.985 7.031a1.93 1.93 0 0 1-1.406.586"/></symbol><symbol id="hd-icon-f7-xmark-octagon" viewBox="0 0 56 56"><path fill="currentColor" d="M20.887 50.71h14.226c2.977 0 4.407-.96 5.93-2.624l8.625-9.563c1.547-1.71 1.945-2.836 1.945-5.156v-10.71c0-2.344-.398-3.446-1.945-5.157l-8.625-9.562c-1.523-1.665-2.953-2.649-5.93-2.649H20.887c-2.977 0-4.383.984-5.93 2.649L6.332 17.5c-1.547 1.71-1.945 2.813-1.945 5.156v10.711c0 2.32.398 3.446 1.945 5.156l8.625 9.563c1.547 1.664 2.953 2.625 5.93 2.625m1.265-3.75c-2.343 0-3-.515-4.312-1.921l-7.97-8.79c-.937-1.031-1.148-1.617-1.148-3.328v-9.82c0-1.711.21-2.297 1.148-3.329l7.969-8.789c1.312-1.43 1.969-1.921 4.312-1.921h11.696c2.343 0 3 .492 4.312 1.921l7.992 8.79c.914 1.03 1.126 1.617 1.126 3.328v9.82c0 1.71-.212 2.297-1.126 3.328l-7.992 8.789c-1.312 1.406-1.969 1.922-4.312 1.922Zm-2.156-9.046c.516 0 .984-.21 1.336-.586l6.656-6.656l6.657 6.656c.351.352.796.586 1.335.586a1.905 1.905 0 0 0 1.899-1.898c0-.54-.211-.961-.586-1.336l-6.656-6.657l6.68-6.703c.398-.398.585-.797.585-1.312c0-1.055-.843-1.875-1.898-1.875c-.492 0-.89.187-1.29.586l-6.726 6.68l-6.703-6.657a1.7 1.7 0 0 0-1.289-.562c-1.055 0-1.898.797-1.898 1.851c0 .516.21.961.585 1.313l6.657 6.68l-6.657 6.68c-.374.35-.585.796-.585 1.312c0 1.03.843 1.898 1.898 1.898"/></symbol><symbol id="hd-icon-f7-xmark-octagon-fill" viewBox="0 0 56 56"><path fill="currentColor" d="M20.887 50.71h14.226c2.977 0 4.407-.96 5.93-2.624l8.625-9.563c1.547-1.71 1.945-2.836 1.945-5.156v-10.71c0-2.344-.398-3.446-1.945-5.157l-8.625-9.562c-1.523-1.665-2.953-2.649-5.93-2.649H20.887c-2.977 0-4.383.984-5.93 2.649L6.332 17.5c-1.547 1.71-1.945 2.813-1.945 5.156v10.711c0 2.32.398 3.446 1.945 5.156l8.625 9.563c1.547 1.664 2.953 2.625 5.93 2.625m-1.29-12.304a2.006 2.006 0 0 1-1.992-1.992c0-.539.235-1.031.586-1.36l7.008-7.03l-7.008-7.032a1.87 1.87 0 0 1-.586-1.36c0-1.1.891-1.945 1.993-1.945q.809 0 1.335.563l7.055 7.031l7.078-7.054c.399-.422.82-.586 1.336-.586a1.97 1.97 0 0 1 1.992 1.968c0 .54-.187.985-.585 1.36l-7.032 7.054l7.008 6.985c.352.375.586.843.586 1.406c0 1.078-.89 1.992-1.992 1.992c-.563 0-1.031-.258-1.383-.61l-7.008-7.007l-7.008 7.008c-.351.375-.843.61-1.382.61"/></symbol><symbol id="hd-icon-f7-xmark-rectangle" viewBox="0 0 56 56"><path fill="currentColor" d="M7.715 49.574h40.57c4.899 0 7.36-2.437 7.36-7.265V13.69c0-4.828-2.461-7.265-7.36-7.265H7.715C2.84 6.426.355 8.84.355 13.69v28.62c0 4.851 2.485 7.265 7.36 7.265m.07-3.773c-2.344 0-3.656-1.242-3.656-3.68V13.88c0-2.438 1.312-3.68 3.656-3.68h40.43c2.32 0 3.656 1.242 3.656 3.68v28.24c0 2.438-1.336 3.68-3.656 3.68Zm12.563-8.297c.515 0 .914-.188 1.265-.54l6.352-6.398l6.398 6.399c.352.328.727.539 1.266.539c.984 0 1.781-.82 1.781-1.781c0-.54-.187-.914-.539-1.266l-6.375-6.375l6.398-6.422c.376-.375.54-.726.54-1.242a1.76 1.76 0 0 0-1.782-1.758c-.492 0-.843.14-1.218.516l-6.47 6.422l-6.398-6.399c-.328-.351-.703-.492-1.218-.492c-.985 0-1.782.75-1.782 1.734c0 .516.188.891.516 1.243l6.398 6.398l-6.398 6.398a1.68 1.68 0 0 0-.516 1.243c0 .96.797 1.78 1.782 1.78"/></symbol><symbol id="hd-icon-f7-xmark-rectangle-fill" viewBox="0 0 56 56"><path fill="currentColor" d="M7.715 49.574h40.57c4.899 0 7.36-2.437 7.36-7.265V13.69c0-4.828-2.461-7.265-7.36-7.265H7.715C2.84 6.426.355 8.84.355 13.69v28.62c0 4.851 2.485 7.265 7.36 7.265m11.976-11.18c-1.101 0-2.015-.937-2.015-2.015c0-.492.234-1.008.61-1.36l6.937-6.937l-6.938-6.96c-.352-.352-.61-.845-.61-1.337c0-1.101.915-1.969 2.016-1.969c.492 0 .961.211 1.336.586l6.938 6.938l7.031-6.961c.398-.422.844-.61 1.313-.61c1.101 0 2.015.891 2.015 1.993q0 .738-.633 1.336l-6.937 6.984l6.914 6.89c.398.352.633.891.633 1.407c0 1.078-.914 2.016-2.016 2.016c-.515 0-1.031-.282-1.36-.633l-6.96-6.938l-6.914 6.938c-.352.375-.867.633-1.36.633"/></symbol><symbol id="hd-icon-f7-xmark-seal" viewBox="0 0 56 56"><path fill="currentColor" d="M23.664 52.399c2.977 2.976 5.695 2.953 8.649 0l3.609-3.587c.375-.351.703-.492 1.195-.492h5.063c4.195 0 6.14-1.922 6.14-6.14v-5.063c0-.492.141-.82.492-1.195l3.563-3.61c3-2.953 2.976-5.671 0-8.648l-3.563-3.61c-.351-.35-.492-.702-.492-1.171v-5.086c0-4.172-1.922-6.14-6.14-6.14h-5.063c-.492 0-.82-.118-1.195-.47l-3.61-3.585c-2.953-2.977-5.671-2.953-8.648 0l-3.61 3.586c-.35.351-.702.468-1.171.468h-5.086c-4.195 0-6.14 1.922-6.14 6.14v5.087c0 .469-.118.82-.47 1.172l-3.585 3.61c-2.977 2.976-2.953 5.694 0 8.648l3.586 3.609c.351.375.468.703.468 1.195v5.063c0 4.195 1.946 6.14 6.14 6.14h5.087c.469 0 .82.141 1.172.492Zm2.625-2.626l-4.406-4.43c-.516-.538-1.055-.75-1.781-.75h-6.305c-2.086 0-2.414-.327-2.414-2.413v-6.305c0-.703-.211-1.242-.727-1.758l-4.43-4.406c-1.476-1.5-1.476-1.922 0-3.422l4.43-4.406c.516-.516.727-1.055.727-1.781v-6.305c0-2.11.305-2.414 2.414-2.414h6.305c.726 0 1.265-.188 1.78-.727l4.407-4.43c1.5-1.476 1.922-1.476 3.422 0l4.406 4.43c.516.54 1.055.727 1.758.727h6.305c2.086 0 2.414.328 2.414 2.414v6.305c0 .726.234 1.265.75 1.78l4.43 4.407c1.476 1.5 1.476 1.922 0 3.422l-4.43 4.406c-.516.516-.75 1.055-.75 1.758v6.305c0 2.086-.328 2.414-2.414 2.414h-6.305c-.703 0-1.242.21-1.758.75l-4.406 4.43c-1.5 1.476-1.922 1.476-3.422 0m-6.305-11.765c.516 0 .985-.188 1.336-.563l6.657-6.68l6.656 6.68c.351.352.82.563 1.36.563a1.886 1.886 0 0 0 1.874-1.899c0-.539-.21-.96-.562-1.336l-6.657-6.656l6.68-6.703c.375-.398.563-.797.563-1.312a1.88 1.88 0 0 0-1.875-1.875c-.492 0-.914.187-1.313.585l-6.726 6.68l-6.704-6.656a1.7 1.7 0 0 0-1.289-.563c-1.054 0-1.875.82-1.875 1.852c0 .516.188.961.563 1.313l6.656 6.68l-6.656 6.679a1.74 1.74 0 0 0-.563 1.312c0 1.055.82 1.899 1.875 1.899"/></symbol><symbol id="hd-icon-f7-xmark-seal-fill" viewBox="0 0 56 56"><path fill="currentColor" d="M23.664 52.399c2.953 2.976 5.695 2.953 8.649 0l3.609-3.587c.375-.351.703-.492 1.195-.492h5.063c4.195 0 6.14-1.922 6.14-6.14v-5.063c0-.492.141-.82.492-1.195l3.563-3.61c3-2.953 2.976-5.695 0-8.648l-3.563-3.61c-.351-.35-.492-.702-.492-1.171v-5.086c0-4.172-1.922-6.14-6.14-6.14h-5.063c-.492 0-.82-.118-1.195-.47l-3.61-3.585c-2.953-2.977-5.695-2.953-8.648 0l-3.61 3.586c-.35.351-.702.468-1.171.468h-5.086c-4.195 0-6.14 1.922-6.14 6.14v5.087c0 .469-.118.82-.47 1.172l-3.585 3.61c-2.977 2.952-2.953 5.694 0 8.648l3.586 3.609c.351.375.468.703.468 1.195v5.063c0 4.195 1.946 6.14 6.14 6.14h5.087c.469 0 .82.141 1.172.492Zm-4.031-13.852c-1.078 0-1.992-.914-1.992-2.016c0-.515.234-1.008.586-1.336l6.984-7.007l-6.984-6.985a1.87 1.87 0 0 1-.586-1.36c0-1.077.89-1.945 1.992-1.945c.539 0 1.008.211 1.312.563l7.032 6.984l7.054-7.007c.375-.422.82-.586 1.336-.586a1.98 1.98 0 0 1 1.969 1.968c0 .54-.164.985-.586 1.36l-6.984 7.008l6.96 6.96c.376.375.587.844.587 1.383c0 1.102-.868 2.016-1.97 2.016a1.98 1.98 0 0 1-1.382-.586l-6.984-7.008l-6.985 7.008a1.87 1.87 0 0 1-1.36.586"/></symbol><symbol id="hd-icon-f7-xmark-shield" viewBox="0 0 56 56"><path fill="currentColor" d="M27.988 51.672c.375 0 .985-.14 1.594-.469c13.313-7.476 17.906-10.64 17.906-19.195v-17.93c0-2.46-1.078-3.234-3.047-4.078c-2.765-1.148-11.718-4.36-14.484-5.32c-.633-.211-1.289-.352-1.969-.352c-.656 0-1.312.188-1.945.352c-2.766.843-11.719 4.195-14.484 5.32c-1.97.82-3.047 1.617-3.047 4.078v17.93c0 8.554 4.617 11.695 17.906 19.195c.61.328 1.195.469 1.57.469m0-4.266c-.351 0-.75-.14-1.453-.562c-10.828-6.563-14.297-8.485-14.297-15.703V14.78c0-.797.164-1.101.797-1.36c3.563-1.405 10.43-3.843 14.04-5.132q.526-.21.913-.21c.282 0 .563.07.938.21c3.61 1.29 10.406 3.89 14.039 5.133c.633.234.797.562.797 1.36V31.14c0 7.218-3.492 9.117-14.297 15.703c-.703.422-1.102.562-1.477.562M19.996 37.28a1.8 1.8 0 0 0 1.336-.586l6.633-6.656l6.68 6.656c.351.352.796.586 1.335.586a1.89 1.89 0 0 0 1.899-1.898c0-.54-.211-.961-.586-1.336l-6.656-6.656l6.68-6.703c.398-.399.585-.797.585-1.313a1.886 1.886 0 0 0-1.898-1.875c-.492 0-.89.188-1.29.586l-6.75 6.68l-6.679-6.657a1.7 1.7 0 0 0-1.289-.562c-1.055 0-1.898.82-1.898 1.851c0 .516.21.961.586 1.313l6.656 6.68l-6.656 6.68c-.375.35-.586.796-.586 1.312a1.89 1.89 0 0 0 1.898 1.898"/></symbol><symbol id="hd-icon-f7-xmark-shield-fill" viewBox="0 0 56 56"><path fill="currentColor" d="M27.988 51.297c.375 0 .961-.14 1.57-.445C42.66 43.469 47.185 40.375 47.185 31.96V14.289c0-2.414-1.055-3.187-3-4.008c-2.743-1.125-11.532-4.289-14.25-5.25c-.633-.187-1.266-.328-1.946-.328c-.656 0-1.289.14-1.922.328c-2.718.985-11.507 4.149-14.25 5.25c-1.945.797-3 1.594-3 4.008v17.672c0 8.414 4.547 11.484 17.625 18.89c.61.305 1.172.446 1.547.446m-8.367-13.524a1.99 1.99 0 0 1-1.992-1.992c0-.539.21-1.008.586-1.36l7.008-7.03l-7.008-7.032A1.87 1.87 0 0 1 17.629 19c0-1.078.89-1.945 1.992-1.945c.54 0 .985.21 1.336.586l7.031 7.007l7.102-7.03c.398-.423.82-.61 1.336-.61c1.101 0 1.992.89 1.992 1.969c0 .539-.187.984-.586 1.359l-7.031 7.055l7.008 6.984c.351.375.586.844.586 1.406a1.99 1.99 0 0 1-1.993 1.992a1.93 1.93 0 0 1-1.383-.586l-7.03-7.03l-6.985 7.03a1.88 1.88 0 0 1-1.383.586"/></symbol><symbol id="hd-icon-f7-xmark-square" viewBox="0 0 56 56"><path fill="currentColor" d="M13.785 49.574h28.453c4.899 0 7.336-2.437 7.336-7.265V13.69c0-4.828-2.437-7.265-7.336-7.265H13.785c-4.875 0-7.36 2.414-7.36 7.265v28.62c0 4.851 2.485 7.265 7.36 7.265m.07-3.773c-2.343 0-3.656-1.242-3.656-3.68V13.88c0-2.438 1.313-3.68 3.656-3.68h28.313c2.32 0 3.633 1.242 3.633 3.68v28.24c0 2.438-1.313 3.68-3.633 3.68Zm6.165-7.922c.515 0 .984-.211 1.335-.586l6.657-6.656l6.656 6.656c.352.352.82.586 1.36.586a1.886 1.886 0 0 0 1.874-1.898c0-.54-.21-.961-.562-1.337l-6.657-6.656l6.68-6.703c.375-.398.563-.797.563-1.312a1.88 1.88 0 0 0-1.875-1.875c-.492 0-.914.187-1.313.586l-6.726 6.68l-6.704-6.657a1.7 1.7 0 0 0-1.288-.562c-1.055 0-1.876.82-1.876 1.851c0 .516.188.961.563 1.313l6.656 6.68l-6.656 6.679a1.74 1.74 0 0 0-.563 1.313c0 1.054.82 1.898 1.876 1.898"/></symbol><symbol id="hd-icon-f7-xmark-square-fill" viewBox="0 0 56 56"><path fill="currentColor" d="M13.785 49.574h28.453c4.899 0 7.336-2.437 7.336-7.265V13.69c0-4.828-2.437-7.265-7.336-7.265H13.785c-4.875 0-7.36 2.414-7.36 7.265v28.62c0 4.851 2.485 7.265 7.36 7.265m5.836-11.203a1.97 1.97 0 0 1-1.969-1.992c0-.54.211-1.008.586-1.36l7.008-7.03l-7.008-7.032c-.375-.328-.586-.82-.586-1.36c0-1.077.867-1.945 1.969-1.945c.54 0 1.008.211 1.36.586l7.03 7.008l7.079-7.031c.398-.422.843-.61 1.36-.61a1.98 1.98 0 0 1 1.968 1.97c0 .538-.164.984-.586 1.359l-7.031 7.054l7.008 6.985c.375.375.585.843.585 1.406c0 1.102-.89 1.992-1.968 1.992a1.98 1.98 0 0 1-1.407-.586l-7.007-7.031l-6.985 7.031a1.93 1.93 0 0 1-1.406.586"/></symbol><symbol id="hd-icon-f7-zoom-in" viewBox="0 0 56 56"><path fill="currentColor" d="M23.957 41.77a18.02 18.02 0 0 0 10.477-3.376l11.109 11.11a2.66 2.66 0 0 0 1.898.773c1.524 0 2.625-1.172 2.625-2.672c0-.703-.234-1.359-.75-1.874L38.277 34.668c2.32-3.047 3.703-6.82 3.703-10.922c0-9.914-8.109-18.023-18.023-18.023c-9.937 0-18.023 8.109-18.023 18.023S14.02 41.77 23.957 41.77m0-3.891c-7.758 0-14.133-6.398-14.133-14.133S16.2 9.613 23.957 9.613c7.734 0 14.133 6.399 14.133 14.133c0 7.735-6.399 14.133-14.133 14.133m1.898-7.195v-5.18h4.735c.96 0 1.781-.82 1.781-1.758c0-.937-.82-1.758-1.781-1.758h-4.735v-5.18c0-1.124-.914-1.804-1.898-1.804s-1.922.68-1.922 1.805v5.18h-4.734c-.961 0-1.758.82-1.758 1.757c0 .938.797 1.758 1.758 1.758h4.734v5.18c0 1.125.938 1.804 1.922 1.804s1.898-.68 1.898-1.804"/></symbol><symbol id="hd-icon-f7-zoom-out" viewBox="0 0 56 56"><path fill="currentColor" d="M23.957 41.77a18.02 18.02 0 0 0 10.477-3.376l11.109 11.11a2.66 2.66 0 0 0 1.898.773c1.524 0 2.625-1.172 2.625-2.672c0-.703-.234-1.359-.75-1.874L38.277 34.668c2.32-3.047 3.703-6.82 3.703-10.922c0-9.914-8.109-18.023-18.023-18.023c-9.937 0-18.023 8.109-18.023 18.023S14.02 41.77 23.957 41.77m0-3.891c-7.758 0-14.133-6.398-14.133-14.133S16.2 9.613 23.957 9.613c7.734 0 14.133 6.399 14.133 14.133c0 7.735-6.399 14.133-14.133 14.133m-6.656-12.375H30.59c.96 0 1.781-.82 1.781-1.758c0-.937-.82-1.758-1.781-1.758H17.3c-.96 0-1.757.82-1.757 1.758s.797 1.758 1.758 1.758"/></symbol><symbol id="hd-icon-f7-zzz" viewBox="0 0 56 56"><path fill="currentColor" d="M10.492 26.875h14.906c1.125 0 1.758-.61 1.758-1.64c0-1.032-.633-1.618-1.758-1.618H12.883v-.094l13.125-15.82c.75-.89.937-1.43.937-2.133c0-1.289-.89-2.086-2.437-2.086H9.93c-1.125 0-1.758.586-1.758 1.618c0 1.054.633 1.64 1.758 1.64h12.492v.094L8.992 23.055c-.539.633-.68 1.101-.68 1.78c0 1.22.868 2.04 2.18 2.04m23.813 12.61h11.812c1.102 0 1.711-.563 1.711-1.594c0-.961-.61-1.547-1.71-1.547h-9.61v-.094l10.031-12.094c.797-.96 1.055-1.5 1.055-2.156c0-1.266-.844-2.039-2.344-2.039H33.742c-1.078 0-1.71.586-1.71 1.57c0 1.008.632 1.57 1.71 1.57h9.586v.094l-10.312 12.47c-.61.726-.82 1.194-.82 1.874c0 1.148.82 1.945 2.109 1.945m-16.922 13.03h9.469c1.007 0 1.593-.562 1.593-1.476c0-.937-.586-1.453-1.593-1.453h-7.407v-.094l7.782-9.469c.75-.914.984-1.476.984-2.156c0-1.125-.773-1.758-2.04-1.758h-9.374c-1.008 0-1.57.54-1.57 1.453c0 .938.562 1.477 1.57 1.477h7.523v.07l-8.156 9.844c-.562.703-.75 1.102-.75 1.758c0 1.055.774 1.805 1.969 1.805"/></symbol></svg>