<svg xmlns="http://www.w3.org/2000/svg" xmlns:xlink="http://www.w3.org/1999/xlink"><symbol id="hd-icon-iconoir-border-left" viewBox="0 0 24 24"><path fill="none" stroke="currentColor" stroke-linecap="round" stroke-linejoin="round" stroke-width="1.5" d="m20.01 20l-.011.01M20.01 16l-.011.01M20.01 12l-.011.01M20.01 8l-.011.01M20.01 4l-.011.01M8.01 4l-.011.01M12.01 4l-.011.01M12.01 12l-.011.01M16.01 4l-.011.01M8.01 20l-.011.01M12.01 20l-.011.01M16.01 20l-.011.01M4 4v16"/></symbol><symbol id="hd-icon-iconoir-border-out" viewBox="0 0 24 24"><path fill="none" stroke="currentColor" stroke-linecap="round" stroke-linejoin="round" stroke-width="1.5" d="m12.01 16l-.01.011M12.01 12l-.01.011M12.01 8l-.01.011M8.01 12l-.01.011M16.01 12l-.01.011M21 3.6v16.8a.6.6 0 0 1-.6.6H3.6a.6.6 0 0 1-.6-.6V3.6a.6.6 0 0 1 .6-.6h16.8a.6.6 0 0 1 .6.6"/></symbol><symbol id="hd-icon-iconoir-border-right" viewBox="0 0 24 24"><path fill="none" stroke="currentColor" stroke-linecap="round" stroke-linejoin="round" stroke-width="1.5" d="m4 20l.01.01M4 16l.01.01M4 12l.01.01M4 8l.01.01M4 4l.01.01M16 4l.01.01M12 4l.01.01M12 12l.01.01M8 4l.01.01M16 20l.01.01M12 20l.01.01M8 20l.01.01M20.01 4v16"/></symbol><symbol id="hd-icon-iconoir-border-tl" viewBox="0 0 24 24"><path fill="none" stroke="currentColor" stroke-linecap="round" stroke-linejoin="round" stroke-width="1.5" d="m8 20.01l.01-.011m3.99.011l.01-.011m3.99.011l.01-.011m3.99.011l.01-.011M20 16.01l.01-.011M20 12.01l.01-.011M20 8.01l.01-.011M4 20V4h16"/></symbol><symbol id="hd-icon-iconoir-border-top" viewBox="0 0 24 24"><path fill="none" stroke="currentColor" stroke-linecap="round" stroke-linejoin="round" stroke-width="1.5" d="m20 20.01l.01-.011M16 20.01l.01-.011M12 20.01l.01-.011M8 20.01l.01-.011M4 20.01l.01-.011M4 8.01l.01-.011M4 12.01l.01-.011m7.99.011l.01-.011M4 16.01l.01-.011M20 8.01l.01-.011M20 12.01l.01-.011M20 16.01l.01-.011M4 4h16"/></symbol><symbol id="hd-icon-iconoir-border-tr" viewBox="0 0 24 24"><path fill="none" stroke="currentColor" stroke-linecap="round" stroke-linejoin="round" stroke-width="1.5" d="M20.01 20V4h-16M4 8l.01-.01M4 12l.01-.01M4 16l.01-.01M4 20l.01-.01M16 20l.01-.01M12 20l.01-.01M8 20l.01-.01"/></symbol><symbol id="hd-icon-iconoir-bounce-left" viewBox="0 0 24 24"><path fill="none" stroke="currentColor" stroke-linecap="round" stroke-linejoin="round" stroke-width="1.5" d="M6 7a2 2 0 1 1 0-4a2 2 0 0 1 0 4m15 8.5c-3-1-5.5-.5-8 4.5c-.5-3-2-7.5-3.5-10"/></symbol><symbol id="hd-icon-iconoir-bounce-right" viewBox="0 0 24 24"><path fill="none" stroke="currentColor" stroke-linecap="round" stroke-linejoin="round" stroke-width="1.5" d="M19 7a2 2 0 1 1 0-4a2 2 0 0 1 0 4M4 15.5c3-1 5.5-.5 8 4.5c.5-3 2-7.5 3.5-10"/></symbol><symbol id="hd-icon-iconoir-bowling-ball" viewBox="0 0 24 24"><g fill="none" stroke="currentColor" stroke-linecap="round" stroke-linejoin="round" stroke-width="1.5"><path d="M12 22c5.523 0 10-4.477 10-10S17.523 2 12 2S2 6.477 2 12s4.477 10 10 10"/><path fill="currentColor" d="M11.5 8a.5.5 0 1 0 0-1a.5.5 0 0 0 0 1m-4 3a.5.5 0 1 0 0-1a.5.5 0 0 0 0 1m4 2a.5.5 0 1 0 0-1a.5.5 0 0 0 0 1"/></g></symbol><symbol id="hd-icon-iconoir-box" viewBox="0 0 24 24"><path fill="none" stroke="currentColor" stroke-linecap="round" stroke-linejoin="round" stroke-width="1.5" d="M10 12h4M3 3h18m0 4v13.4a.6.6 0 0 1-.6.6H3.6a.6.6 0 0 1-.6-.6V7"/></symbol><symbol id="hd-icon-iconoir-box-3d-center" viewBox="0 0 24 24"><g fill="none" stroke="currentColor" stroke-linecap="round" stroke-linejoin="round" stroke-width="1.5"><path fill="currentColor" d="M12 17a1 1 0 1 0 0-2a1 1 0 0 0 0 2"/><path d="M21 7.353v9.294a.6.6 0 0 1-.309.525l-8.4 4.666a.6.6 0 0 1-.582 0l-8.4-4.666A.6.6 0 0 1 3 16.647V7.353a.6.6 0 0 1 .309-.524l8.4-4.667a.6.6 0 0 1 .582 0l8.4 4.667a.6.6 0 0 1 .309.524"/><path d="m20.5 16.722l-8.209-4.56a.6.6 0 0 0-.582 0L3.5 16.722m.028-9.428l8.18 4.544a.6.6 0 0 0 .583 0l8.209-4.56M12 3v9m0 7.5V22"/></g></symbol><symbol id="hd-icon-iconoir-box-3d-point" viewBox="0 0 24 24"><g fill="none" stroke="currentColor" stroke-linecap="round" stroke-linejoin="round" stroke-width="1.5"><path fill="currentColor" d="M3 18a1 1 0 1 0 0-2a1 1 0 0 0 0 2"/><path d="M21 7.353v9.294a.6.6 0 0 1-.309.525l-8.4 4.666a.6.6 0 0 1-.582 0l-8.4-4.666A.6.6 0 0 1 3 16.647V7.353a.6.6 0 0 1 .309-.524l8.4-4.667a.6.6 0 0 1 .582 0l8.4 4.667a.6.6 0 0 1 .309.524"/><path d="m3.528 7.294l8.18 4.544a.6.6 0 0 0 .583 0l8.209-4.56M12 21v-9"/></g></symbol><symbol id="hd-icon-iconoir-box-3d-three-points" viewBox="0 0 24 24"><g fill="none" stroke="currentColor" stroke-linecap="round" stroke-linejoin="round" stroke-width="1.5"><path fill="currentColor" d="M12 23a1 1 0 1 0 0-2a1 1 0 0 0 0 2M3 8a1 1 0 1 0 0-2a1 1 0 0 0 0 2m0 10a1 1 0 1 0 0-2a1 1 0 0 0 0 2"/><path d="M21 7.353v9.294a.6.6 0 0 1-.309.525l-8.4 4.666a.6.6 0 0 1-.582 0l-8.4-4.666A.6.6 0 0 1 3 16.647V7.353a.6.6 0 0 1 .309-.524l8.4-4.667a.6.6 0 0 1 .582 0l8.4 4.667a.6.6 0 0 1 .309.524"/><path d="m3.528 7.294l8.18 4.544a.6.6 0 0 0 .583 0l8.209-4.56M12 21v-9"/></g></symbol><symbol id="hd-icon-iconoir-box-iso" viewBox="0 0 24 24"><g fill="none" stroke-width="1.5"><path fill="currentColor" d="m2.695 7.185l9 4l.61-1.37l-9-4zM12.75 21.5v-11h-1.5v11zm-.445-10.315l9-4l-.61-1.37l-9 4z"/><path stroke="currentColor" stroke-linecap="round" stroke-linejoin="round" d="M3 17.11V6.89a.6.6 0 0 1 .356-.548l8.4-3.734a.6.6 0 0 1 .488 0l8.4 3.734A.6.6 0 0 1 21 6.89v10.22a.6.6 0 0 1-.356.548l-8.4 3.734a.6.6 0 0 1-.488 0l-8.4-3.734A.6.6 0 0 1 3 17.11"/><path stroke="currentColor" stroke-linecap="round" stroke-linejoin="round" d="m7.5 4.5l8.644 3.842a.6.6 0 0 1 .356.548v3.61"/></g></symbol><symbol id="hd-icon-iconoir-boxing-glove" viewBox="0 0 24 24"><g fill="none" stroke="currentColor" stroke-linecap="round" stroke-linejoin="round" stroke-width="1.5"><path d="M8.489 17.727h9.867m-9.867 0V21h9.867v-3.273m-9.867 0C5.2 15.546 3.556 10.091 4.104 8.455c.438-1.31 2.375-.91 3.289-.546C7.393 4.091 9.037 3 13.423 3C17.806 3 20 4.09 20 9.545c0 4.364-1.096 7.273-1.644 8.182"/><path d="M7.393 7.91C7.758 8.272 8.818 9 10.133 9h4.934M7.393 7.91c0 3.817 1.644 4.363 2.74 4.363"/></g></symbol><symbol id="hd-icon-iconoir-brain" viewBox="0 0 24 24"><g fill="none" stroke="currentColor" stroke-linecap="round" stroke-linejoin="round" stroke-width="1.5"><path d="M7 14a3 3 0 1 0 1 5.83"/><path d="M4.264 15.605a4 4 0 0 1-.874-6.636m.03-.081A2.5 2.5 0 0 1 7 5.5m.238.065A2.5 2.5 0 1 1 12 4.5V20m-4 0a2 2 0 1 0 4 0m0-13a3 3 0 0 0 3 3m2 4a3 3 0 1 1-1 5.83"/><path d="M19.736 15.605a4 4 0 0 0 .874-6.636m-.03-.081A2.5 2.5 0 0 0 17 5.5m-5-1a2.5 2.5 0 1 1 4.762 1.065M16 20a2 2 0 1 1-4 0"/></g></symbol><symbol id="hd-icon-iconoir-brain-electricity" viewBox="0 0 24 24"><g fill="none" stroke="currentColor" stroke-linecap="round" stroke-linejoin="round" stroke-width="1.5"><path d="M7 14a3 3 0 1 0 1 5.83"/><path d="M4.264 15.605a4 4 0 0 1-.874-6.636m.03-.081A2.5 2.5 0 0 1 7 5.5m.238.065A2.5 2.5 0 1 1 12 4.5V20m-4 0a2 2 0 1 0 4 0m0-13a3 3 0 0 0 3 3m5.61-1.031A3.99 3.99 0 0 1 22 12c0 .703-.181 1.364-.5 1.938m-.92-5.05A2.5 2.5 0 0 0 17 5.5m-5-1a2.5 2.5 0 1 1 4.762 1.065M14 22a2 2 0 0 1-2-2m6.667-4L17 19h4l-1.667 3"/></g></symbol><symbol id="hd-icon-iconoir-brain-research" viewBox="0 0 24 24"><g fill="none" stroke="currentColor" stroke-linecap="round" stroke-linejoin="round" stroke-width="1.5"><path d="M7 14a3 3 0 1 0 1 5.83"/><path d="M4.264 15.605a4 4 0 0 1-.874-6.636m.03-.081A2.5 2.5 0 0 1 7 5.5m.238.065A2.5 2.5 0 1 1 12 4.5V20m-4 0a2 2 0 1 0 4 0m0-13a3 3 0 0 0 3 3m5.61-1.031A3.99 3.99 0 0 1 22 12c0 .703-.181 1.364-.5 1.938m-.92-5.05A2.5 2.5 0 0 0 17 5.5m-5-1a2.5 2.5 0 1 1 4.762 1.065M14 22a2 2 0 0 1-2-2m8.5.5L22 22m-6-3.5a2.5 2.5 0 1 0 5 0a2.5 2.5 0 0 0-5 0"/></g></symbol><symbol id="hd-icon-iconoir-brain-warning" viewBox="0 0 24 24"><g fill="none" stroke="currentColor" stroke-linecap="round" stroke-linejoin="round" stroke-width="1.5"><path d="M7 14a3 3 0 1 0 1 5.83"/><path d="M4.264 15.605a4 4 0 0 1-.874-6.636m.03-.081A2.5 2.5 0 0 1 7 5.5m5-1a2.5 2.5 0 1 0-4.762 1.065M8 20a2 2 0 1 0 4 0m5-6a3 3 0 1 1-1 5.83"/><path d="M19.736 15.605a4 4 0 0 0 .874-6.636m-.03-.081A2.5 2.5 0 0 0 17 5.5m-5-1a2.5 2.5 0 1 1 4.762 1.065M16 20a2 2 0 1 1-4 0m0-12v4m0 4.01l.01-.011"/></g></symbol><symbol id="hd-icon-iconoir-bread-slice" viewBox="0 0 24 24"><g fill="none" stroke="currentColor" stroke-linecap="round" stroke-linejoin="round" stroke-width="1.5"><path d="M7 20V9S3 4 9.5 4H17c7 0 3 5 3 5v9a2 2 0 0 1-2 2z"/><path d="M7 20H6a2 2 0 0 1-2-2V9S0 4 6.5 4H10"/></g></symbol><symbol id="hd-icon-iconoir-bridge-3d" viewBox="0 0 24 24"><g fill="none" stroke="currentColor" stroke-linecap="round" stroke-linejoin="round" stroke-width="1.5"><path d="M18 4h3"/><path fill="currentColor" d="M10 21a1 1 0 1 0 0-2a1 1 0 0 0 0 2m4-16a1 1 0 1 0 0-2a1 1 0 0 0 0 2"/><path d="M10 20s6.5-2.5 2-8s2-8 2-8M3 20h3"/></g></symbol><symbol id="hd-icon-iconoir-bridge-surface" viewBox="0 0 24 24"><path fill="none" stroke="currentColor" stroke-linecap="round" stroke-linejoin="round" stroke-width="1.5" d="M3 12c0 4 2 9 8 9M10 6c0 4 2 9 8 9M3 8.5v-2M10 3V1M3 12l7-6m1 15l7-6m-3.5 6h2m4.5-6h2"/></symbol><symbol id="hd-icon-iconoir-bright-crown" viewBox="0 0 24 24"><path fill="none" stroke="currentColor" stroke-linecap="round" stroke-linejoin="round" stroke-width="1.5" d="M22 12h1M12 2V1m0 22v-1m8-2l-1-1m1-15l-1 1M4 20l1-1M4 4l1 1m-4 7h1m14.8 3.5l1.2-7l-4.2 2.1L12 8.5l-1.8 2.1L6 8.5l1.2 7z"/></symbol><symbol id="hd-icon-iconoir-bright-star" viewBox="0 0 24 24"><path fill="none" stroke="currentColor" stroke-linecap="round" stroke-linejoin="round" stroke-width="1.5" d="m9.952 9.623l1.559-3.305a.535.535 0 0 1 .978 0l1.559 3.305l3.485.533c.447.068.625.644.302.974l-2.522 2.57l.595 3.631c.077.467-.391.822-.791.602L12 16.218l-3.117 1.715c-.4.22-.868-.135-.791-.602l.595-3.63l-2.522-2.571c-.323-.33-.145-.906.302-.974zM22 12h1M12 2V1m0 22v-1m8-2l-1-1m1-15l-1 1M4 20l1-1M4 4l1 1m-4 7h1"/></symbol><symbol id="hd-icon-iconoir-brightness" viewBox="0 0 24 24"><g fill="none" stroke-width="1.5"><path stroke="currentColor" d="m12 7l1.53 1.304l2.006.16l.16 2.005L17 12l-1.305 1.53l-.16 2.006l-2.004.16L12 17l-1.53-1.305l-2.006-.16l-.16-2.004L7 12l1.304-1.53l.16-2.006l2.005-.16z"/><path fill="currentColor" d="M10.47 15.696L12 17V7l-1.53 1.304l-2.006.16l-.16 2.005L7 12l1.304 1.53l.16 2.006z"/><path stroke="currentColor" stroke-linecap="round" stroke-linejoin="round" d="M21 3.6v16.8a.6.6 0 0 1-.6.6H3.6a.6.6 0 0 1-.6-.6V3.6a.6.6 0 0 1 .6-.6h16.8a.6.6 0 0 1 .6.6"/></g></symbol><symbol id="hd-icon-iconoir-brightness-window" viewBox="0 0 24 24"><g fill="none" stroke-width="1.5"><path stroke="currentColor" stroke-linecap="round" d="M12 21H4a2 2 0 0 1-2-2V5a2 2 0 0 1 2-2h16a2 2 0 0 1 2 2v7"/><path stroke="currentColor" stroke-linecap="round" stroke-linejoin="round" d="M2 7h20M5 5.01l.01-.011M8 5.01l.01-.011M11 5.01l.01-.011"/><path stroke="currentColor" d="m18 14l1.225 1.044l1.603.128l.128 1.603L22 18l-1.044 1.225l-.128 1.603l-1.603.128L18 22l-1.225-1.044l-1.603-.128l-.128-1.603L14 18l1.044-1.225l.128-1.603l1.603-.128z"/><path fill="currentColor" d="M16.775 20.956L18 22v-8l-1.225 1.044l-1.603.128l-.128 1.603L14 18l1.044 1.225l.128 1.603z"/></g></symbol><symbol id="hd-icon-iconoir-bubble-download" viewBox="0 0 24 24"><path fill="none" stroke="currentColor" stroke-linecap="round" stroke-linejoin="round" stroke-width="1.5" d="M19 2v6m0 0l3-3m-3 3l-3-3m-3-2.95Q12.507 2 12 2C6.477 2 2 6.477 2 12c0 1.821.487 3.53 1.338 5L2.5 21.5l4.5-.838A9.96 9.96 0 0 0 12 22c5.523 0 10-4.477 10-10q0-.507-.05-1"/></symbol><symbol id="hd-icon-iconoir-bubble-income" viewBox="0 0 24 24"><path fill="none" stroke="currentColor" stroke-linecap="round" stroke-linejoin="round" stroke-width="1.5" d="M22 5h-6m0 0l3-3m-3 3l3 3m-6-5.95Q12.507 2 12 2C6.477 2 2 6.477 2 12c0 1.821.487 3.53 1.338 5L2.5 21.5l4.5-.838A9.96 9.96 0 0 0 12 22c5.523 0 10-4.477 10-10q0-.507-.05-1"/></symbol><symbol id="hd-icon-iconoir-bubble-outcome" viewBox="0 0 24 24"><path fill="none" stroke="currentColor" stroke-linecap="round" stroke-linejoin="round" stroke-width="1.5" d="M16 5h6m0 0l-3 3m3-3l-3-3m-6 .05Q12.507 2 12 2C6.477 2 2 6.477 2 12c0 1.821.487 3.53 1.338 5L2.5 21.5l4.5-.838A9.96 9.96 0 0 0 12 22c5.523 0 10-4.477 10-10q0-.507-.05-1"/></symbol><symbol id="hd-icon-iconoir-bubble-search" viewBox="0 0 24 24"><g fill="none" stroke="currentColor" stroke-linecap="round" stroke-linejoin="round" stroke-width="1.5"><path d="M20.5 6.5L22 8m-6-3.5a2.5 2.5 0 1 0 5 0a2.5 2.5 0 0 0-5 0"/><path d="M13 2.05Q12.507 2 12 2C6.477 2 2 6.477 2 12c0 1.821.487 3.53 1.338 5L2.5 21.5l4.5-.838A9.96 9.96 0 0 0 12 22c5.523 0 10-4.477 10-10q0-.507-.05-1"/></g></symbol><symbol id="hd-icon-iconoir-bubble-search-solid" viewBox="0 0 24 24"><g fill="currentColor" fill-rule="evenodd" clip-rule="evenodd"><path d="M22.586 10.173a2.25 2.25 0 0 1-2.177-.582l-.541-.541a4.75 4.75 0 0 1-5.19-7.371a7.7 7.7 0 0 0-1.604-.376A11 11 0 0 0 12 1.25C6.063 1.25 1.25 6.063 1.25 12c0 1.856.471 3.605 1.3 5.13l-.787 4.233a.75.75 0 0 0 .874.874l4.233-.788A10.7 10.7 0 0 0 12 22.75c5.937 0 10.75-4.813 10.75-10.75q0-.543-.053-1.074s-.045-.325-.111-.753M19.97 5.97a.75.75 0 0 1 1.06 0l1.5 1.5a.75.75 0 0 1-1.06 1.06l-1.5-1.5a.75.75 0 0 1 0-1.06"/><path d="M18.5 2.75a1.75 1.75 0 1 0 0 3.5a1.75 1.75 0 0 0 0-3.5M15.25 4.5a3.25 3.25 0 1 1 6.5 0a3.25 3.25 0 0 1-6.5 0"/></g></symbol><symbol id="hd-icon-iconoir-bubble-star" viewBox="0 0 24 24"><g fill="none" stroke="currentColor" stroke-linecap="round" stroke-linejoin="round" stroke-width="1.5"><path d="m17.306 4.113l.909-1.927a.312.312 0 0 1 .57 0l.91 1.927l2.032.311c.261.04.365.376.177.568l-1.471 1.5l.347 2.118c.044.272-.229.48-.462.351l-1.818-1l-1.818 1c-.233.128-.506-.079-.462-.351l.347-2.118l-1.47-1.5c-.19-.192-.085-.528.176-.568z"/><path d="M13 2.05Q12.507 2 12 2C6.477 2 2 6.477 2 12c0 1.821.487 3.53 1.338 5L2.5 21.5l4.5-.838A9.96 9.96 0 0 0 12 22c5.523 0 10-4.477 10-10q0-.507-.05-1"/></g></symbol><symbol id="hd-icon-iconoir-bubble-upload" viewBox="0 0 24 24"><path fill="none" stroke="currentColor" stroke-linecap="round" stroke-linejoin="round" stroke-width="1.5" d="M19 8V2m0 0l3 3m-3-3l-3 3m-3-2.95Q12.507 2 12 2C6.477 2 2 6.477 2 12c0 1.821.487 3.53 1.338 5L2.5 21.5l4.5-.838A9.96 9.96 0 0 0 12 22c5.523 0 10-4.477 10-10q0-.507-.05-1"/></symbol><symbol id="hd-icon-iconoir-bubble-warning" viewBox="0 0 24 24"><path fill="none" stroke="currentColor" stroke-linecap="round" stroke-linejoin="round" stroke-width="1.5" d="M18 2v3m0 4.01l.01-.011M13 2.05Q12.507 2 12 2C6.477 2 2 6.477 2 12c0 1.821.487 3.53 1.338 5L2.5 21.5l4.5-.838A9.96 9.96 0 0 0 12 22c5.523 0 10-4.477 10-10q0-.507-.05-1"/></symbol><symbol id="hd-icon-iconoir-bubble-xmark" viewBox="0 0 24 24"><path fill="none" stroke="currentColor" stroke-linecap="round" stroke-linejoin="round" stroke-width="1.5" d="M13 2.05Q12.507 2 12 2C6.477 2 2 6.477 2 12c0 1.821.487 3.53 1.338 5L2.5 21.5l4.5-.838A9.96 9.96 0 0 0 12 22c5.523 0 10-4.477 10-10q0-.507-.05-1m-4.829-3.636l2.121-2.121m0 0l2.122-2.122m-2.122 2.122l-2.12-2.122m2.12 2.122l2.122 2.121"/></symbol><symbol id="hd-icon-iconoir-bubble-xmark-solid" viewBox="0 0 24 24"><g fill="currentColor" fill-rule="evenodd" clip-rule="evenodd"><path d="m19.773 8.955l-.53-.53l-.53.53a2.25 2.25 0 0 1-3.183-3.182l.53-.53l-.53-.53a2.25 2.25 0 0 1-.21-2.94A10.7 10.7 0 0 0 12 1.25C6.063 1.25 1.25 6.063 1.25 12c0 1.856.471 3.605 1.3 5.13l-.787 4.233a.75.75 0 0 0 .874.874l4.233-.788A10.7 10.7 0 0 0 12 22.75c5.937 0 10.75-4.813 10.75-10.75c0-.914-.114-1.802-.329-2.65a2.25 2.25 0 0 1-2.648-.395"/><path d="M16.59 2.59a.75.75 0 0 1 1.061 0l1.591 1.592l1.591-1.591a.75.75 0 1 1 1.061 1.06l-1.591 1.591l1.591 1.591a.75.75 0 0 1-1.06 1.061l-1.592-1.59l-1.59 1.59a.75.75 0 1 1-1.061-1.06l1.59-1.592l-1.59-1.59a.75.75 0 0 1 0-1.061"/></g></symbol><symbol id="hd-icon-iconoir-bug" viewBox="0 0 24 24"><g fill="none" stroke="currentColor" stroke-linecap="round" stroke-linejoin="round" stroke-width="1.5"><path d="M12 21c-3.866 0-7-4.03-7-9s3.134-9 7-9s7 4.03 7 9s-3.134 9-7 9m6-3.5l2 2m-1-10l2-1m-16 1l-2-1"/><path d="M18 8s-3 1-6 1M6 8s3 1 6 1m0 0v12m-7-7H2m20 0h-3M6 17.5l-2 2"/></g></symbol><symbol id="hd-icon-iconoir-bug-solid" viewBox="0 0 24 24"><path fill="currentColor" fill-rule="evenodd" d="M12 2.25c3.415 0 6.157 2.687 7.244 6.29l1.42-.711a.75.75 0 0 1 .671 1.342l-1.743.872a12.2 12.2 0 0 1 .094 3.207H22a.75.75 0 0 1 0 1.5h-2.565a11.3 11.3 0 0 1-.811 2.313l1.906 1.907a.75.75 0 1 1-1.06 1.06l-1.624-1.623C16.452 20.433 14.391 21.75 12 21.75s-4.452-1.317-5.846-3.343L4.53 20.03a.75.75 0 0 1-1.06-1.06l1.906-1.907a11.3 11.3 0 0 1-.81-2.313H2a.75.75 0 0 1 0-1.5h2.314a12.2 12.2 0 0 1 .094-3.207L2.665 9.17a.75.75 0 1 1 .67-1.342l1.42.71C5.843 4.937 8.585 2.25 12 2.25M11.25 19a.75.75 0 0 0 1.5 0V9.731a21 21 0 0 0 3.409-.47a.75.75 0 1 0-.318-1.467c-1.081.235-2.47.456-3.841.456c-1.372 0-2.76-.221-3.841-.456A.75.75 0 0 0 7.84 9.26c.95.206 2.154.41 3.409.471z" clip-rule="evenodd"/></symbol><symbol id="hd-icon-iconoir-building" viewBox="0 0 24 24"><path fill="none" stroke="currentColor" stroke-linecap="round" stroke-linejoin="round" stroke-width="1.5" d="m10 9.01l.01-.011M14 9.01l.01-.011M10 13.01l.01-.011m3.99.011l.01-.011M10 17.01l.01-.011m3.99.011l.01-.011M6 20.4V5.6a.6.6 0 0 1 .6-.6H12V3.6a.6.6 0 0 1 .6-.6h4.8a.6.6 0 0 1 .6.6v16.8a.6.6 0 0 1-.6.6H6.6a.6.6 0 0 1-.6-.6"/></symbol><symbol id="hd-icon-iconoir-bus" viewBox="0 0 24 24"><g fill="none" stroke="currentColor" stroke-linecap="round" stroke-width="1.5"><path stroke-linejoin="round" d="m7 16.01l.01-.011m9.99.011l.01-.011M3 12h18v7a1 1 0 0 1-1 1H4a1 1 0 0 1-1-1zm18-4V6a4 4 0 0 0-4-4H7a4 4 0 0 0-4 4v2m4 0h10"/><path d="M4.5 20v1.9a.6.6 0 0 0 .6.6h2.8a.6.6 0 0 0 .6-.6V20m7 0v1.9a.6.6 0 0 0 .6.6h2.8a.6.6 0 0 0 .6-.6V20"/></g></symbol><symbol id="hd-icon-iconoir-bus-green" viewBox="0 0 24 24"><g fill="none" stroke="currentColor" stroke-linecap="round" stroke-width="1.5"><path stroke-linejoin="round" d="m7 16.01l.01-.011M21 12H3v7a1 1 0 0 0 1 1h9m4 3s.9-3.118 3-5"/><path stroke-linejoin="round" d="m19.802 21.425l-.134.012a3.094 3.094 0 0 1-3.366-2.774a3.06 3.06 0 0 1 2.761-3.35l2.986-.28a.35.35 0 0 1 .381.314l.255 2.58a3.194 3.194 0 0 1-2.883 3.497M21 8V6a4 4 0 0 0-4-4H7a4 4 0 0 0-4 4v2m4 0h10"/><path d="M4.5 20v1.9a.6.6 0 0 0 .6.6h2.8a.6.6 0 0 0 .6-.6V20"/></g></symbol><symbol id="hd-icon-iconoir-bus-stop" viewBox="0 0 24 24"><g fill="none" stroke="currentColor" stroke-linecap="round" stroke-width="1.5"><path stroke-linejoin="round" d="m16 16.01l.01-.011M6 16.01l.01-.011M20 22V8m0 0h-2V2h4v6zm-4 12H2.6a.6.6 0 0 1-.6-.6v-6.8a.6.6 0 0 1 .6-.6H16m-2-4H6m8-6H6a4 4 0 0 0-4 4v2"/><path d="M3.5 20v1.9a.6.6 0 0 0 .6.6h2.8a.6.6 0 0 0 .6-.6V20m7 0v1.9a.6.6 0 0 0 .6.6h.9"/></g></symbol><symbol id="hd-icon-iconoir-c-square" viewBox="0 0 24 24"><g fill="none" stroke="currentColor" stroke-linecap="round" stroke-linejoin="round" stroke-width="1.5"><path d="M21 3.6v16.8a.6.6 0 0 1-.6.6H3.6a.6.6 0 0 1-.6-.6V3.6a.6.6 0 0 1 .6-.6h16.8a.6.6 0 0 1 .6.6"/><path d="M14 10v-.2A1.8 1.8 0 0 0 12.2 8h-.4A1.8 1.8 0 0 0 10 9.8v4.4a1.8 1.8 0 0 0 1.8 1.8h.4a1.8 1.8 0 0 0 1.8-1.8V14"/></g></symbol><symbol id="hd-icon-iconoir-cable-tag" viewBox="0 0 24 24"><g fill="none" stroke="currentColor" stroke-width="1.5"><path d="M2 15V9a6 6 0 0 1 6-6h8a6 6 0 0 1 6 6v6a6 6 0 0 1-6 6H8a6 6 0 0 1-6-6Z"/><path stroke-linecap="round" stroke-linejoin="round" d="M11.667 8L10 12h4l-1.667 4"/></g></symbol><symbol id="hd-icon-iconoir-cable-tag-solid" viewBox="0 0 24 24"><path fill="currentColor" fill-rule="evenodd" d="M8 2.25A6.75 6.75 0 0 0 1.25 9v6A6.75 6.75 0 0 0 8 21.75h8A6.75 6.75 0 0 0 22.75 15V9A6.75 6.75 0 0 0 16 2.25zm4.359 6.039a.75.75 0 0 0-1.385-.577l-1.666 4A.75.75 0 0 0 10 12.75h2.875l-1.234 2.962a.75.75 0 0 0 1.385.577l1.666-4A.75.75 0 0 0 14 11.25h-2.875z" clip-rule="evenodd"/></symbol><symbol id="hd-icon-iconoir-calculator" viewBox="0 0 24 24"><g fill="none" stroke="currentColor" stroke-width="1.5"><path d="M1 21V3a2 2 0 0 1 2-2h18a2 2 0 0 1 2 2v18a2 2 0 0 1-2 2H3a2 2 0 0 1-2-2Z"/><path stroke-linecap="round" stroke-linejoin="round" d="M15 7h4m-4 8.5h4m-4 3h4M5 7h2m2 0H7m0 0V5m0 2v2m-1.414 9.414L7 17m1.415-1.414L7 17m0 0l-1.414-1.414M7 17l1.415 1.414"/></g></symbol><symbol id="hd-icon-iconoir-calendar" viewBox="0 0 24 24"><path fill="none" stroke="currentColor" stroke-linecap="round" stroke-linejoin="round" stroke-width="1.5" d="M15 4V2m0 2v2m0-2h-4.5M3 10v9a2 2 0 0 0 2 2h14a2 2 0 0 0 2-2v-9zm0 0V6a2 2 0 0 1 2-2h2m0-2v4m14 4V6a2 2 0 0 0-2-2h-.5"/></symbol><symbol id="hd-icon-iconoir-calendar-arrow-down" viewBox="0 0 24 24"><path fill="none" stroke="currentColor" stroke-linecap="round" stroke-linejoin="round" stroke-width="1.5" d="M13 21H5a2 2 0 0 1-2-2v-9h18v3m-6-9V2m0 2v2m0-2h-4.5M3 10V6a2 2 0 0 1 2-2h2m0-2v4m14 4V6a2 2 0 0 0-2-2h-.5m.5 12v6m0 0l3-3m-3 3l-3-3"/></symbol><symbol id="hd-icon-iconoir-calendar-arrow-down-solid" viewBox="0 0 24 24"><g fill="currentColor" fill-rule="evenodd" stroke-width="1.5" clip-rule="evenodd"><path d="M3 9.25a.75.75 0 0 0-.75.75v9A2.75 2.75 0 0 0 5 21.75h10.568l-1.159-1.159a2.25 2.25 0 0 1 2.341-3.713V16a2.25 2.25 0 0 1 4.5 0v.81l.28-.28a.75.75 0 0 0 .22-.53v-6a.75.75 0 0 0-.75-.75z"/><path d="M7 1.25a.75.75 0 0 1 .75.75v4a.75.75 0 0 1-1.5 0V4.75H5c-.69 0-1.25.56-1.25 1.25v4a.75.75 0 0 1-1.5 0V6A2.75 2.75 0 0 1 5 3.25h1.25V2A.75.75 0 0 1 7 1.25m8 0a.75.75 0 0 1 .75.75v4a.75.75 0 0 1-1.5 0V4.75H10.5a.75.75 0 0 1 0-1.5h3.75V2a.75.75 0 0 1 .75-.75M17.75 4a.75.75 0 0 1 .75-.75h.5A2.75 2.75 0 0 1 21.75 6v4a.75.75 0 0 1-1.5 0V6c0-.69-.56-1.25-1.25-1.25h-.5a.75.75 0 0 1-.75-.75m.72 18.53a.75.75 0 0 0 1.06 0l3-3a.75.75 0 1 0-1.06-1.06l-1.72 1.72V16a.75.75 0 0 0-1.5 0v4.19l-1.72-1.72a.75.75 0 1 0-1.06 1.06z"/></g></symbol><symbol id="hd-icon-iconoir-calendar-arrow-up" viewBox="0 0 24 24"><path fill="none" stroke="currentColor" stroke-linecap="round" stroke-linejoin="round" stroke-width="1.5" d="M13 21H5a2 2 0 0 1-2-2v-9h18v3m-6-9V2m0 2v2m0-2h-4.5M3 10V6a2 2 0 0 1 2-2h2m0-2v4m14 4V6a2 2 0 0 0-2-2h-.5m.5 18v-6m0 0l3 3m-3-3l-3 3"/></symbol><symbol id="hd-icon-iconoir-calendar-arrow-up-solid" viewBox="0 0 24 24"><g fill="currentColor" fill-rule="evenodd" stroke-width="1.5" clip-rule="evenodd"><path d="M3 9.25a.75.75 0 0 0-.75.75v9A2.75 2.75 0 0 0 5 21.75h11a.75.75 0 0 0 .53-.22l.22-.22v-.188a2.25 2.25 0 0 1-2.341-3.713l3-3a2.25 2.25 0 0 1 3.182 0l1.159 1.159V10a.75.75 0 0 0-.75-.75z"/><path d="M7 1.25a.75.75 0 0 1 .75.75v4a.75.75 0 0 1-1.5 0V4.75H5c-.69 0-1.25.56-1.25 1.25v4a.75.75 0 0 1-1.5 0V6A2.75 2.75 0 0 1 5 3.25h1.25V2A.75.75 0 0 1 7 1.25m8 0a.75.75 0 0 1 .75.75v4a.75.75 0 0 1-1.5 0V4.75H10.5a.75.75 0 0 1 0-1.5h3.75V2a.75.75 0 0 1 .75-.75M17.75 4a.75.75 0 0 1 .75-.75h.5A2.75 2.75 0 0 1 21.75 6v4a.75.75 0 0 1-1.5 0V6c0-.69-.56-1.25-1.25-1.25h-.5a.75.75 0 0 1-.75-.75m.72 11.47a.75.75 0 0 1 1.06 0l3 3a.75.75 0 1 1-1.06 1.06l-1.72-1.72V22a.75.75 0 0 1-1.5 0v-4.19l-1.72 1.72a.75.75 0 1 1-1.06-1.06z"/></g></symbol><symbol id="hd-icon-iconoir-calendar-check" viewBox="0 0 24 24"><path fill="none" stroke="currentColor" stroke-linecap="round" stroke-linejoin="round" stroke-width="1.5" d="M13 21H5a2 2 0 0 1-2-2v-9h18v5M15 4V2m0 2v2m0-2h-4.5M3 10V6a2 2 0 0 1 2-2h2m0-2v4m14 4V6a2 2 0 0 0-2-2h-.5M16 20l2 2l4-4"/></symbol><symbol id="hd-icon-iconoir-calendar-check-solid" viewBox="0 0 24 24"><g fill="currentColor" fill-rule="evenodd" stroke-width="1.5" clip-rule="evenodd"><path d="M3 9.25a.75.75 0 0 0-.75.75v9A2.75 2.75 0 0 0 5 21.75h9.568l-.159-.159a2.25 2.25 0 1 1 3.182-3.182l.41.409l2.408-2.409a2.24 2.24 0 0 1 1.341-.645V10a.75.75 0 0 0-.75-.75z"/><path d="M7 1.25a.75.75 0 0 1 .75.75v4a.75.75 0 0 1-1.5 0V4.75H5c-.69 0-1.25.56-1.25 1.25v4a.75.75 0 0 1-1.5 0V6A2.75 2.75 0 0 1 5 3.25h1.25V2A.75.75 0 0 1 7 1.25m8 0a.75.75 0 0 1 .75.75v4a.75.75 0 0 1-1.5 0V4.75H10.5a.75.75 0 0 1 0-1.5h3.75V2a.75.75 0 0 1 .75-.75M17.75 4a.75.75 0 0 1 .75-.75h.5A2.75 2.75 0 0 1 21.75 6v4a.75.75 0 0 1-1.5 0V6c0-.69-.56-1.25-1.25-1.25h-.5a.75.75 0 0 1-.75-.75m-2.28 15.47a.75.75 0 0 1 1.06 0L18 20.94l3.47-3.47a.75.75 0 1 1 1.06 1.06l-4 4a.75.75 0 0 1-1.06 0l-2-2a.75.75 0 0 1 0-1.06"/></g></symbol><symbol id="hd-icon-iconoir-calendar-minus" viewBox="0 0 24 24"><path fill="none" stroke="currentColor" stroke-linecap="round" stroke-linejoin="round" stroke-width="1.5" d="M13 21H5a2 2 0 0 1-2-2v-9h18v3m-6-9V2m0 2v2m0-2h-4.5M3 10V6a2 2 0 0 1 2-2h2m0-2v4m14 4V6a2 2 0 0 0-2-2h-.5m-2.508 15H22"/></symbol><symbol id="hd-icon-iconoir-calendar-minus-solid" viewBox="0 0 24 24"><g fill="currentColor" fill-rule="evenodd" stroke-width="1.5" clip-rule="evenodd"><path d="M15.242 19a.75.75 0 0 1 .75-.75H22a.75.75 0 0 1 0 1.5h-6.008a.75.75 0 0 1-.75-.75"/><path d="M3 9.25a.75.75 0 0 0-.75.75v9A2.75 2.75 0 0 0 5 21.75h11a.75.75 0 0 0 .53-.22l.28-.28h-.818a2.25 2.25 0 1 1 0-4.5h5.319l.22-.22a.75.75 0 0 0 .219-.53v-6a.75.75 0 0 0-.75-.75z"/><path d="M7 1.25a.75.75 0 0 1 .75.75v4a.75.75 0 0 1-1.5 0V4.75H5c-.69 0-1.25.56-1.25 1.25v4a.75.75 0 0 1-1.5 0V6A2.75 2.75 0 0 1 5 3.25h1.25V2A.75.75 0 0 1 7 1.25m8 0a.75.75 0 0 1 .75.75v4a.75.75 0 0 1-1.5 0V4.75H10.5a.75.75 0 0 1 0-1.5h3.75V2a.75.75 0 0 1 .75-.75M17.75 4a.75.75 0 0 1 .75-.75h.5A2.75 2.75 0 0 1 21.75 6v4a.75.75 0 0 1-1.5 0V6c0-.69-.56-1.25-1.25-1.25h-.5a.75.75 0 0 1-.75-.75"/></g></symbol><symbol id="hd-icon-iconoir-calendar-plus" viewBox="0 0 24 24"><path fill="none" stroke="currentColor" stroke-linecap="round" stroke-linejoin="round" stroke-width="1.5" d="M13 21H5a2 2 0 0 1-2-2v-9h18v3m-6-9V2m0 2v2m0-2h-4.5M3 10V6a2 2 0 0 1 2-2h2m0-2v4m14 4V6a2 2 0 0 0-2-2h-.5m-2.508 15h3M22 19h-3.008m0 0v-3m0 3v3"/></symbol><symbol id="hd-icon-iconoir-calendar-plus-solid" viewBox="0 0 24 24"><g fill="currentColor" fill-rule="evenodd" stroke-width="1.5" clip-rule="evenodd"><path d="M18.992 15.25a.75.75 0 0 1 .75.75v2.25H22a.75.75 0 0 1 0 1.5h-2.258V22a.75.75 0 0 1-1.5 0v-2.25h-2.25a.75.75 0 0 1 0-1.5h2.25V16a.75.75 0 0 1 .75-.75"/><path d="M3 9.25a.75.75 0 0 0-.75.75v9A2.75 2.75 0 0 0 5 21.75h11a.75.75 0 0 0 .53-.22l.212-.212v-.068h-.75a2.25 2.25 0 1 1 0-4.5h.75V16a2.25 2.25 0 1 1 4.5 0v.75h.069l.22-.22a.75.75 0 0 0 .219-.53v-6a.75.75 0 0 0-.75-.75z"/><path d="M7 1.25a.75.75 0 0 1 .75.75v4a.75.75 0 0 1-1.5 0V4.75H5c-.69 0-1.25.56-1.25 1.25v4a.75.75 0 0 1-1.5 0V6A2.75 2.75 0 0 1 5 3.25h1.25V2A.75.75 0 0 1 7 1.25m8 0a.75.75 0 0 1 .75.75v4a.75.75 0 0 1-1.5 0V4.75H10.5a.75.75 0 0 1 0-1.5h3.75V2a.75.75 0 0 1 .75-.75M17.75 4a.75.75 0 0 1 .75-.75h.5A2.75 2.75 0 0 1 21.75 6v4a.75.75 0 0 1-1.5 0V6c0-.69-.56-1.25-1.25-1.25h-.5a.75.75 0 0 1-.75-.75"/></g></symbol><symbol id="hd-icon-iconoir-calendar-rotate" viewBox="0 0 24 24"><g fill="none" stroke="currentColor" stroke-linecap="round" stroke-linejoin="round" stroke-width="1.5"><path d="M10 21H5a2 2 0 0 1-2-2v-9h18m-6-6V2m0 2v2m0-2h-4.5M3 10V6a2 2 0 0 1 2-2h2m0-2v4m14 4V6a2 2 0 0 0-2-2h-.5"/><path d="M21.667 16.667C21.048 15.097 19.635 14 17.99 14c-1.759 0-3.253 1.255-3.794 3"/><path d="M19.995 16.772H21.4a.6.6 0 0 0 .6-.6V14.55m-7.666 4.783C14.953 20.903 16.366 22 18.01 22c1.759 0 3.253-1.255 3.794-3"/><path d="M16.005 19.228H14.6a.6.6 0 0 0-.6.6v1.622"/></g></symbol><symbol id="hd-icon-iconoir-calendar-rotate-solid" viewBox="0 0 24 24"><g fill="currentColor" fill-rule="evenodd" stroke-width="1.5" clip-rule="evenodd"><path d="M3 9.25a.75.75 0 0 0-.75.75v9A2.75 2.75 0 0 0 5 21.75h6.5v-3.5a6.75 6.75 0 0 1 6.75-6.75c1.281 0 2.48.473 3.5 1.093V10a.75.75 0 0 0-.75-.75z"/><path d="M7 1.25a.75.75 0 0 1 .75.75v4a.75.75 0 0 1-1.5 0V4.75H5c-.69 0-1.25.56-1.25 1.25v4a.75.75 0 0 1-1.5 0V6A2.75 2.75 0 0 1 5 3.25h1.25V2A.75.75 0 0 1 7 1.25m8 0a.75.75 0 0 1 .75.75v4a.75.75 0 0 1-1.5 0V4.75H10.5a.75.75 0 0 1 0-1.5h3.75V2a.75.75 0 0 1 .75-.75M17.75 4a.75.75 0 0 1 .75-.75h.5A2.75 2.75 0 0 1 21.75 6v4a.75.75 0 0 1-1.5 0V6c0-.69-.56-1.25-1.25-1.25h-.5a.75.75 0 0 1-.75-.75m.24 10.75c-1.378 0-2.617.989-3.076 2.472a.75.75 0 1 1-1.433-.444c.622-2.008 2.371-3.528 4.51-3.528c1.998 0 3.66 1.33 4.374 3.142a.75.75 0 0 1-1.396.55c-.524-1.329-1.688-2.192-2.978-2.192"/><path d="M22 13.8a.75.75 0 0 1 .75.75v1.622a1.35 1.35 0 0 1-1.35 1.35h-1.405a.75.75 0 0 1 0-1.5h1.255V14.55a.75.75 0 0 1 .75-.75m-3.99 7.45c1.379 0 2.618-.989 3.077-2.472a.75.75 0 1 1 1.433.444c-.622 2.008-2.371 3.528-4.51 3.528c-1.998 0-3.66-1.33-4.374-3.142a.75.75 0 1 1 1.396-.55c.524 1.329 1.688 2.192 2.978 2.192"/><path d="M14 22.2a.75.75 0 0 1-.75-.75v-1.622c0-.746.604-1.35 1.35-1.35h1.405a.75.75 0 0 1 0 1.5H14.75v1.472a.75.75 0 0 1-.75.75"/></g></symbol><symbol id="hd-icon-iconoir-calendar-xmark" viewBox="0 0 24 24"><path fill="none" stroke="currentColor" stroke-linecap="round" stroke-linejoin="round" stroke-width="1.5" d="M15 21H5a2 2 0 0 1-2-2v-9h18v5M15 4V2m0 2v2m0-2h-4.5M3 10V6a2 2 0 0 1 2-2h2m0-2v4m14 4V6a2 2 0 0 0-2-2h-.5M18 22.243l2.121-2.122m0 0L22.243 18m-2.122 2.121L18 18m2.121 2.121l2.122 2.122"/></symbol><symbol id="hd-icon-iconoir-calendar-xmark-solid" viewBox="0 0 24 24"><g fill="currentColor" fill-rule="evenodd" stroke-width="1.5" clip-rule="evenodd"><path d="M3 9.25a.75.75 0 0 0-.75.75v9A2.75 2.75 0 0 0 5 21.75h10.804a2.24 2.24 0 0 1 .605-1.098l.53-.53l-.53-.531a2.25 2.25 0 1 1 3.182-3.182l.53.53l.53-.53a2.24 2.24 0 0 1 1.099-.605V10a.75.75 0 0 0-.75-.75z"/><path d="M7 1.25a.75.75 0 0 1 .75.75v4a.75.75 0 0 1-1.5 0V4.75H5c-.69 0-1.25.56-1.25 1.25v4a.75.75 0 0 1-1.5 0V6A2.75 2.75 0 0 1 5 3.25h1.25V2A.75.75 0 0 1 7 1.25m8 0a.75.75 0 0 1 .75.75v4a.75.75 0 0 1-1.5 0V4.75H10.5a.75.75 0 0 1 0-1.5h3.75V2a.75.75 0 0 1 .75-.75M17.75 4a.75.75 0 0 1 .75-.75h.5A2.75 2.75 0 0 1 21.75 6v4a.75.75 0 0 1-1.5 0V6c0-.69-.56-1.25-1.25-1.25h-.5a.75.75 0 0 1-.75-.75m-.28 13.47a.75.75 0 0 1 1.06 0l1.591 1.59l1.591-1.59a.75.75 0 0 1 1.061 1.06l-1.591 1.591l1.591 1.591a.75.75 0 0 1-1.06 1.061l-1.592-1.591l-1.59 1.591a.75.75 0 1 1-1.061-1.06l1.59-1.592l-1.59-1.59a.75.75 0 0 1 0-1.061"/></g></symbol><symbol id="hd-icon-iconoir-camera" viewBox="0 0 24 24"><g fill="none" stroke="currentColor" stroke-linecap="round" stroke-linejoin="round" stroke-width="1.5"><path d="M2 19V9a2 2 0 0 1 2-2h.5a2 2 0 0 0 1.6-.8l2.22-2.96A.6.6 0 0 1 8.8 3h6.4a.6.6 0 0 1 .48.24L17.9 6.2a2 2 0 0 0 1.6.8h.5a2 2 0 0 1 2 2v10a2 2 0 0 1-2 2H4a2 2 0 0 1-2-2"/><path d="M12 17a4 4 0 1 0 0-8a4 4 0 0 0 0 8"/></g></symbol><symbol id="hd-icon-iconoir-camera-solid" viewBox="0 0 24 24"><path fill="currentColor" fill-rule="evenodd" d="M7.72 2.79L5.5 5.75a1.25 1.25 0 0 1-1 .5H4A2.75 2.75 0 0 0 1.25 9v10A2.75 2.75 0 0 0 4 21.75h16A2.75 2.75 0 0 0 22.75 19V9A2.75 2.75 0 0 0 20 6.25h-.5a1.25 1.25 0 0 1-1-.5l-2.22-2.96a1.35 1.35 0 0 0-1.08-.54H8.8c-.425 0-.825.2-1.08.54M12 8.25a4.75 4.75 0 1 0 0 9.5a4.75 4.75 0 0 0 0-9.5" clip-rule="evenodd"/></symbol><symbol id="hd-icon-iconoir-candlestick-chart" viewBox="0 0 24 24"><path fill="none" stroke="currentColor" stroke-linecap="round" stroke-linejoin="round" stroke-width="1.5" d="M5 16v-2m7 7v-2m7-6v-2M5 8V6m7 7v-2m7-6V3M7 8.6v4.8a.6.6 0 0 1-.6.6H3.6a.6.6 0 0 1-.6-.6V8.6a.6.6 0 0 1 .6-.6h2.8a.6.6 0 0 1 .6.6m7 5v4.8a.6.6 0 0 1-.6.6h-2.8a.6.6 0 0 1-.6-.6v-4.8a.6.6 0 0 1 .6-.6h2.8a.6.6 0 0 1 .6.6m7-8v4.8a.6.6 0 0 1-.6.6h-2.8a.6.6 0 0 1-.6-.6V5.6a.6.6 0 0 1 .6-.6h2.8a.6.6 0 0 1 .6.6"/></symbol><symbol id="hd-icon-iconoir-car" viewBox="0 0 24 24"><g fill="none" stroke="currentColor" stroke-width="1.5"><path stroke-linecap="round" stroke-linejoin="round" d="M8 10h8m-9 4h1m8 0h1"/><path d="M3 18v-6.59a2 2 0 0 1 .162-.787l2.319-5.41A2 2 0 0 1 7.319 4h9.362a2 2 0 0 1 1.838 1.212l2.32 5.41a2 2 0 0 1 .161.789V18M3 18v2.4a.6.6 0 0 0 .6.6h2.8a.6.6 0 0 0 .6-.6V18m-4 0h4m14 0v2.4a.6.6 0 0 1-.6.6h-2.8a.6.6 0 0 1-.6-.6V18m4 0h-4M7 18h10"/></g></symbol><symbol id="hd-icon-iconoir-card-lock" viewBox="0 0 24 24"><path fill="none" stroke="currentColor" stroke-linecap="round" stroke-linejoin="round" stroke-width="1.5" d="M22 9V7a2 2 0 0 0-2-2H4a2 2 0 0 0-2 2v10a2 2 0 0 0 2 2h10m8-10H6m16 0v4m-.833 5.5h.233a.6.6 0 0 1 .6.6v2.3a.6.6 0 0 1-.6.6h-3.8a.6.6 0 0 1-.6-.6v-2.3a.6.6 0 0 1 .6-.6h.233m3.334 0v-1.75c0-.583-.334-1.75-1.667-1.75s-1.667 1.167-1.667 1.75v1.75m3.334 0h-3.334"/></symbol><symbol id="hd-icon-iconoir-card-no-access" viewBox="0 0 24 24"><path fill="none" stroke="currentColor" stroke-linecap="round" stroke-linejoin="round" stroke-width="1.5" d="M22 9V7a2 2 0 0 0-2-2H4a2 2 0 0 0-2 2v10a2 2 0 0 0 2 2h8M22 9H6m16 0v4m-1 3.05a3.5 3.5 0 1 0-5 4.9m5-4.9a3.5 3.5 0 0 1-5 4.9m5-4.9l-5 4.9"/></symbol><symbol id="hd-icon-iconoir-card-reader" viewBox="0 0 24 24"><g fill="none" stroke="currentColor" stroke-width="1.5"><path d="M5 19V3h14v16a2 2 0 0 1-2 2H7a2 2 0 0 1-2-2Z"/><path d="M5 6H3.5a1.5 1.5 0 1 1 0-3h17a1.5 1.5 0 0 1 0 3H19"/><path stroke-linecap="round" stroke-linejoin="round" d="M15 3v18"/></g></symbol><symbol id="hd-icon-iconoir-card-shield" viewBox="0 0 24 24"><g fill="none" stroke="currentColor" stroke-linecap="round" stroke-linejoin="round" stroke-width="1.5"><path d="M22 9V7a2 2 0 0 0-2-2H4a2 2 0 0 0-2 2v10a2 2 0 0 0 2 2h8M22 9H6m16 0v2"/><path d="m18.992 14.125l2.556.649c.266.068.453.31.445.584C21.821 21.116 18.5 22 18.5 22s-3.321-.884-3.493-6.642a.59.59 0 0 1 .445-.584l2.556-.649c.323-.082.661-.082.984 0"/></g></symbol><symbol id="hd-icon-iconoir-card-wallet" viewBox="0 0 24 24"><g fill="none" stroke="currentColor" stroke-width="1.5"><path d="M19 20H5a2 2 0 0 1-2-2V9a2 2 0 0 1 2-2h14a2 2 0 0 1 2 2v9a2 2 0 0 1-2 2ZM7 7V3.6a.6.6 0 0 1 .6-.6h8.8a.6.6 0 0 1 .6.6V7m-7-4v4m2-4v4"/><path fill="currentColor" stroke-linecap="round" stroke-linejoin="round" d="M16.5 14a.5.5 0 1 1 0-1a.5.5 0 0 1 0 1"/></g></symbol><symbol id="hd-icon-iconoir-cart" viewBox="0 0 24 24"><g fill="none" stroke="currentColor" stroke-linecap="round" stroke-linejoin="round" stroke-width="1.5"><path fill="currentColor" d="M19.5 22a1.5 1.5 0 1 0 0-3a1.5 1.5 0 0 0 0 3m-10 0a1.5 1.5 0 1 0 0-3a1.5 1.5 0 0 0 0 3"/><path d="M5 4h17l-2 11H7zm0 0c-.167-.667-1-2-3-2m18 13H5.23c-1.784 0-2.73.781-2.73 2s.946 2 2.73 2H19.5"/></g></symbol><symbol id="hd-icon-iconoir-cart-alt" viewBox="0 0 24 24"><g fill="none" stroke="currentColor" stroke-linecap="round" stroke-linejoin="round" stroke-width="1.5"><path fill="currentColor" d="M19.5 22a1.5 1.5 0 1 0 0-3a1.5 1.5 0 0 0 0 3m-10 0a1.5 1.5 0 1 0 0-3a1.5 1.5 0 0 0 0 3"/><path d="M16.5 4H22l-2 11h-4.5m1-11l-1 11m1-11h-5.75m4.75 11h-4m-.75-11H5l2 11h4.5m-.75-11l.75 11M5 4c-.167-.667-1-2-3-2m18 13H5.23c-1.784 0-2.73.781-2.73 2s.946 2 2.73 2H19.5"/></g></symbol><symbol id="hd-icon-iconoir-cart-minus" viewBox="0 0 24 24"><path fill="none" stroke="currentColor" stroke-linecap="round" stroke-linejoin="round" stroke-width="1.5" d="M3 6h19l-3 10H6zm0 0l-.75-2.5M9.992 11h4M11 19.5a1.5 1.5 0 0 1-3 0m9 0a1.5 1.5 0 0 1-3 0"/></symbol><symbol id="hd-icon-iconoir-cart-plus" viewBox="0 0 24 24"><path fill="none" stroke="currentColor" stroke-linecap="round" stroke-linejoin="round" stroke-width="1.5" d="M3 6h19l-3 10H6zm0 0l-.75-2.5M9.992 11h2m2 0h-2m0 0V9m0 2v2M11 19.5a1.5 1.5 0 0 1-3 0m9 0a1.5 1.5 0 0 1-3 0"/></symbol><symbol id="hd-icon-iconoir-cash" viewBox="0 0 24 24"><g fill="none" stroke="currentColor" stroke-linecap="round" stroke-linejoin="round" stroke-width="1.5"><path d="M2 17V7a2 2 0 0 1 2-2h16a2 2 0 0 1 2 2v10a2 2 0 0 1-2 2H4a2 2 0 0 1-2-2"/><path d="M12 15a3 3 0 1 1 0-6a3 3 0 0 1 0 6m6.5-2.99l.01-.011M5.5 12.01l.01-.011"/></g></symbol><symbol id="hd-icon-iconoir-cash-solid" viewBox="0 0 24 24"><path fill="currentColor" fill-rule="evenodd" d="M4 4.25A2.75 2.75 0 0 0 1.25 7v10A2.75 2.75 0 0 0 4 19.75h16A2.75 2.75 0 0 0 22.75 17V7A2.75 2.75 0 0 0 20 4.25zm15.067 8.251a.75.75 0 1 0-1.114-1.004l-.01.011a.75.75 0 1 0 1.114 1.004zm-13.055-1.06a.75.75 0 0 1 .055 1.06l-.01.011a.75.75 0 1 1-1.114-1.004l.01-.011a.75.75 0 0 1 1.059-.055M12 8.25a3.75 3.75 0 1 0 0 7.5a3.75 3.75 0 0 0 0-7.5" clip-rule="evenodd"/></symbol><symbol id="hd-icon-iconoir-cell-2x2" viewBox="0 0 24 24"><path fill="none" stroke="currentColor" stroke-width="1.5" d="M21 3.6V12h-9V3h8.4a.6.6 0 0 1 .6.6Zm0 16.8V12h-9v9h8.4a.6.6 0 0 0 .6-.6ZM3 12V3.6a.6.6 0 0 1 .6-.6H12v9zm0 0v8.4a.6.6 0 0 0 .6.6H12v-9z"/></symbol><symbol id="hd-icon-iconoir-cellar" viewBox="0 0 24 24"><g fill="none" stroke="currentColor" stroke-linecap="round" stroke-linejoin="round" stroke-width="1.5"><path d="M3 21h18v-9a9 9 0 1 0-18 0zm0-4h18"/><path d="M9 17v-4h12m-8 0V9h7"/></g></symbol><symbol id="hd-icon-iconoir-center-align" viewBox="0 0 24 24"><path fill="none" stroke="currentColor" stroke-linecap="round" stroke-linejoin="round" stroke-width="1.5" d="m4 16.01l.01-.011M4 20.01l.01-.011M4 8.01l.01-.011M4 4.01l.01-.011M4 12.01l.01-.011M8 20.01l.01-.011m3.99.011l.01-.011m3.99.011l.01-.011m3.99.011l.01-.011M20 16.01l.01-.011M20 12.01l.01-.011M20 8.01l.01-.011M20 4.01l.01-.011M16 4.01l.01-.011M12 4.01l.01-.011M8 4.01l.01-.011M8 16V8h8v8z"/></symbol><symbol id="hd-icon-iconoir-center-align-solid" viewBox="0 0 24 24"><g fill="none" stroke="currentColor" stroke-linecap="round" stroke-linejoin="round" stroke-width="1.5"><path d="m4 16.01l.01-.011M4 20.01l.01-.011M4 8.01l.01-.011M4 4.01l.01-.011M4 12.01l.01-.011M8 20.01l.01-.011m3.99.011l.01-.011m3.99.011l.01-.011m3.99.011l.01-.011M20 16.01l.01-.011M20 12.01l.01-.011M20 8.01l.01-.011M20 4.01l.01-.011M16 4.01l.01-.011M12 4.01l.01-.011M8 4.01l.01-.011"/><path fill="currentColor" d="M8 16V8h8v8z"/></g></symbol><symbol id="hd-icon-iconoir-chat-bubble" viewBox="0 0 24 24"><g fill="none" stroke="currentColor" stroke-linecap="round" stroke-linejoin="round" stroke-width="1.5"><path fill="currentColor" d="M17 12.5a.5.5 0 1 0 0-1a.5.5 0 0 0 0 1m-5 0a.5.5 0 1 0 0-1a.5.5 0 0 0 0 1m-5 0a.5.5 0 1 0 0-1a.5.5 0 0 0 0 1"/><path d="M12 22c5.523 0 10-4.477 10-10S17.523 2 12 2S2 6.477 2 12c0 1.821.487 3.53 1.338 5L2.5 21.5l4.5-.838A9.96 9.96 0 0 0 12 22"/></g></symbol><symbol id="hd-icon-iconoir-chat-bubble-check" viewBox="0 0 24 24"><g fill="none" stroke="currentColor" stroke-linecap="round" stroke-linejoin="round" stroke-width="1.5"><path d="m8 12l3 3l5-5"/><path d="M12 22c5.523 0 10-4.477 10-10S17.523 2 12 2S2 6.477 2 12c0 1.821.487 3.53 1.338 5L2.5 21.5l4.5-.838A9.96 9.96 0 0 0 12 22"/></g></symbol><symbol id="hd-icon-iconoir-chat-bubble-check-solid" viewBox="0 0 24 24"><path fill="currentColor" fill-rule="evenodd" d="M12 1.25C6.063 1.25 1.25 6.063 1.25 12c0 1.856.471 3.605 1.3 5.13l-.787 4.233a.75.75 0 0 0 .874.874l4.233-.788A10.7 10.7 0 0 0 12 22.75c5.937 0 10.75-4.813 10.75-10.75S17.937 1.25 12 1.25m4.53 9.28a.75.75 0 1 0-1.06-1.06L11 13.94l-2.47-2.47a.75.75 0 0 0-1.06 1.06l3 3a.75.75 0 0 0 1.06 0z" clip-rule="evenodd"/></symbol><symbol id="hd-icon-iconoir-chat-bubble-empty" viewBox="0 0 24 24"><path fill="none" stroke="currentColor" stroke-linecap="round" stroke-linejoin="round" stroke-width="1.5" d="M12 22c5.523 0 10-4.477 10-10S17.523 2 12 2S2 6.477 2 12c0 1.821.487 3.53 1.338 5L2.5 21.5l4.5-.838A9.96 9.96 0 0 0 12 22"/></symbol><symbol id="hd-icon-iconoir-chat-bubble-empty-solid" viewBox="0 0 24 24"><path fill="currentColor" fill-rule="evenodd" d="M1.25 12C1.25 6.063 6.063 1.25 12 1.25S22.75 6.063 22.75 12S17.937 22.75 12 22.75c-1.856 0-3.605-.471-5.13-1.3l-4.233.787a.75.75 0 0 1-.874-.874l.788-4.233A10.7 10.7 0 0 1 1.25 12" clip-rule="evenodd"/></symbol><symbol id="hd-icon-iconoir-chat-bubble-question" viewBox="0 0 24 24"><g fill="none" stroke="currentColor" stroke-linecap="round" stroke-linejoin="round" stroke-width="1.5"><path d="M9 9c0-3.5 5.5-3.5 5.5 0c0 2.5-2.5 2-2.5 5m0 4.01l.01-.011"/><path d="M12 22c5.523 0 10-4.477 10-10S17.523 2 12 2S2 6.477 2 12c0 1.821.487 3.53 1.338 5L2.5 21.5l4.5-.838A9.96 9.96 0 0 0 12 22"/></g></symbol><symbol id="hd-icon-iconoir-chat-bubble-question-solid" viewBox="0 0 24 24"><path fill="currentColor" fill-rule="evenodd" d="M1.25 12C1.25 6.063 6.063 1.25 12 1.25S22.75 6.063 22.75 12S17.937 22.75 12 22.75c-1.856 0-3.605-.471-5.13-1.3l-4.233.787a.75.75 0 0 1-.874-.874l.788-4.233A10.7 10.7 0 0 1 1.25 12m9.095-4.397C10 7.895 9.75 8.341 9.75 9a.75.75 0 0 1-1.5 0c0-1.091.437-1.958 1.124-2.54c.67-.57 1.538-.835 2.376-.835s1.705.265 2.376.834c.687.583 1.124 1.45 1.124 2.541c0 .766-.196 1.35-.517 1.83c-.269.404-.619.716-.894.962l-.087.078c-.308.276-.539.504-.709.804c-.162.287-.293.688-.293 1.326a.75.75 0 0 1-1.5 0c0-.862.181-1.524.488-2.065c.299-.528.693-.894 1.01-1.18l.072-.065c.3-.27.508-.455.665-.692c.149-.222.265-.514.265-.998c0-.659-.25-1.105-.595-1.397c-.36-.306-.868-.478-1.405-.478s-1.045.172-1.405.478m2.222 10.898a.75.75 0 1 0-1.114-1.004l-.01.011a.75.75 0 0 0 1.114 1.004z" clip-rule="evenodd"/></symbol><symbol id="hd-icon-iconoir-chat-bubble-solid" viewBox="0 0 24 24"><path fill="currentColor" fill-rule="evenodd" d="M12 1.25C6.063 1.25 1.25 6.063 1.25 12c0 1.856.471 3.605 1.3 5.13l-.787 4.233a.75.75 0 0 0 .874.874l4.233-.788A10.7 10.7 0 0 0 12 22.75c5.937 0 10.75-4.813 10.75-10.75S17.937 1.25 12 1.25m5 9.5a1.25 1.25 0 1 0 0 2.5a1.25 1.25 0 0 0 0-2.5M10.75 12a1.25 1.25 0 1 1 2.5 0a1.25 1.25 0 0 1-2.5 0M7 10.75a1.25 1.25 0 1 0 0 2.5a1.25 1.25 0 0 0 0-2.5" clip-rule="evenodd"/></symbol><symbol id="hd-icon-iconoir-chat-bubble-translate" viewBox="0 0 24 24"><g fill="none" stroke="currentColor" stroke-linecap="round" stroke-linejoin="round" stroke-width="1.5"><path d="M12 22c5.523 0 10-4.477 10-10S17.523 2 12 2S2 6.477 2 12c0 1.821.487 3.53 1.338 5L2.5 21.5l4.5-.838A9.96 9.96 0 0 0 12 22"/><path d="M7 8.517h5m5 0h-1.786m-3.214 0h3.214m-3.214 0V7m3.214 1.517c-.586 2.075-1.813 4.037-3.214 5.76M8.429 18C9.56 16.97 10.84 15.705 12 14.277m0 0c-.714-.829-1.714-2.17-2-2.777m2 2.777l2.143 2.206"/></g></symbol><symbol id="hd-icon-iconoir-chat-bubble-translate-solid" viewBox="0 0 24 24"><path fill="currentColor" fill-rule="evenodd" d="M12 1.25C6.063 1.25 1.25 6.063 1.25 12c0 1.856.471 3.605 1.3 5.13l-.787 4.233a.75.75 0 0 0 .874.874l4.233-.788A10.7 10.7 0 0 0 12 22.75c5.937 0 10.75-4.813 10.75-10.75S17.937 1.25 12 1.25M12.75 7a.75.75 0 0 0-1.5 0v.767H7a.75.75 0 0 0 0 1.5h7.173c-.512 1.326-1.286 2.61-2.187 3.81a25 25 0 0 1-.54-.713c-.376-.516-.658-.952-.767-1.183a.75.75 0 0 0-1.358.638c.177.375.538.914.912 1.428c.252.345.527.703.791 1.03a35 35 0 0 1-3.1 3.168a.75.75 0 1 0 1.01 1.11a37 37 0 0 0 3.107-3.16l1.564 1.61a.75.75 0 1 0 1.076-1.045l-1.684-1.733c1.15-1.492 2.17-3.17 2.77-4.96H17a.75.75 0 0 0 0-1.5h-4.25z" clip-rule="evenodd"/></symbol><symbol id="hd-icon-iconoir-chat-bubble-warning" viewBox="0 0 24 24"><path fill="none" stroke="currentColor" stroke-linecap="round" stroke-linejoin="round" stroke-width="1.5" d="M12 8v4m0 4.01l.01-.011M12 22c5.523 0 10-4.477 10-10S17.523 2 12 2S2 6.477 2 12c0 1.821.487 3.53 1.338 5L2.5 21.5l4.5-.838A9.96 9.96 0 0 0 12 22"/></symbol><symbol id="hd-icon-iconoir-chat-bubble-warning-solid" viewBox="0 0 24 24"><path fill="currentColor" fill-rule="evenodd" d="M1.25 12C1.25 6.063 6.063 1.25 12 1.25S22.75 6.063 22.75 12S17.937 22.75 12 22.75c-1.856 0-3.605-.471-5.13-1.3l-4.233.787a.75.75 0 0 1-.874-.874l.788-4.233A10.7 10.7 0 0 1 1.25 12M12 7.25a.75.75 0 0 1 .75.75v4a.75.75 0 0 1-1.5 0V8a.75.75 0 0 1 .75-.75m.567 9.251a.75.75 0 1 0-1.114-1.004l-.01.011a.75.75 0 1 0 1.114 1.004z" clip-rule="evenodd"/></symbol><symbol id="hd-icon-iconoir-chat-bubble-xmark" viewBox="0 0 24 24"><path fill="none" stroke="currentColor" stroke-linecap="round" stroke-linejoin="round" stroke-width="1.5" d="m9.5 14.5l2.493-2.5M14.5 9.5L11.993 12m0 0L9.5 9.5m2.493 2.5l2.507 2.5M12 22c5.523 0 10-4.477 10-10S17.523 2 12 2S2 6.477 2 12c0 1.821.487 3.53 1.338 5L2.5 21.5l4.5-.838A9.96 9.96 0 0 0 12 22"/></symbol><symbol id="hd-icon-iconoir-chat-bubble-xmark-solid" viewBox="0 0 24 24"><path fill="currentColor" fill-rule="evenodd" d="M12 1.25C6.063 1.25 1.25 6.063 1.25 12c0 1.856.471 3.605 1.3 5.13l-.787 4.233a.75.75 0 0 0 .874.874l4.233-.788A10.7 10.7 0 0 0 12 22.75c5.937 0 10.75-4.813 10.75-10.75S17.937 1.25 12 1.25m-1.969 7.72a.75.75 0 0 0-1.062 1.06L10.934 12l-1.965 1.97a.75.75 0 1 0 1.062 1.06l1.963-1.97l1.976 1.971a.75.75 0 1 0 1.06-1.062L13.055 12l1.975-1.969a.75.75 0 1 0-1.06-1.062l-1.976 1.97z" clip-rule="evenodd"/></symbol><symbol id="hd-icon-iconoir-chat-lines" viewBox="0 0 24 24"><path fill="none" stroke="currentColor" stroke-linecap="round" stroke-linejoin="round" stroke-width="1.5" d="M8 10h8m-8 4h4m0 8c5.523 0 10-4.477 10-10S17.523 2 12 2S2 6.477 2 12c0 1.821.487 3.53 1.338 5L2.5 21.5l4.5-.838A9.96 9.96 0 0 0 12 22"/></symbol><symbol id="hd-icon-iconoir-chat-lines-solid" viewBox="0 0 24 24"><path fill="currentColor" fill-rule="evenodd" d="M1.25 12C1.25 6.063 6.063 1.25 12 1.25S22.75 6.063 22.75 12S17.937 22.75 12 22.75c-1.856 0-3.605-.471-5.13-1.3l-4.233.787a.75.75 0 0 1-.874-.874l.788-4.233A10.7 10.7 0 0 1 1.25 12m6-2A.75.75 0 0 1 8 9.25h8a.75.75 0 0 1 0 1.5H8a.75.75 0 0 1-.75-.75M8 13.25a.75.75 0 0 0 0 1.5h4a.75.75 0 0 0 0-1.5z" clip-rule="evenodd"/></symbol><symbol id="hd-icon-iconoir-chat-minus-in" viewBox="0 0 24 24"><path fill="none" stroke="currentColor" stroke-linecap="round" stroke-linejoin="round" stroke-width="1.5" d="M12 22c5.523 0 10-4.477 10-10S17.523 2 12 2S2 6.477 2 12c0 1.821.487 3.53 1.338 5L2.5 21.5l4.5-.838A9.96 9.96 0 0 0 12 22M9 12h6"/></symbol><symbol id="hd-icon-iconoir-chat-minus-in-solid" viewBox="0 0 24 24"><path fill="currentColor" fill-rule="evenodd" d="M12 1.25C6.063 1.25 1.25 6.063 1.25 12c0 1.856.471 3.605 1.3 5.13l-.787 4.233a.75.75 0 0 0 .874.874l4.233-.788A10.7 10.7 0 0 0 12 22.75c5.937 0 10.75-4.813 10.75-10.75S17.937 1.25 12 1.25m-3 10a.75.75 0 0 0 0 1.5h6a.75.75 0 0 0 0-1.5z" clip-rule="evenodd"/></symbol><symbol id="hd-icon-iconoir-chat-plus-in" viewBox="0 0 24 24"><path fill="none" stroke="currentColor" stroke-linecap="round" stroke-linejoin="round" stroke-width="1.5" d="M9 12h3m3 0h-3m0 0V9m0 3v3m0 7c5.523 0 10-4.477 10-10S17.523 2 12 2S2 6.477 2 12c0 1.821.487 3.53 1.338 5L2.5 21.5l4.5-.838A9.96 9.96 0 0 0 12 22"/></symbol><symbol id="hd-icon-iconoir-chat-plus-in-solid" viewBox="0 0 24 24"><path fill="currentColor" fill-rule="evenodd" d="M12 1.25C6.063 1.25 1.25 6.063 1.25 12c0 1.856.471 3.605 1.3 5.13l-.787 4.233a.75.75 0 0 0 .874.874l4.233-.788A10.7 10.7 0 0 0 12 22.75c5.937 0 10.75-4.813 10.75-10.75S17.937 1.25 12 1.25M12.75 9a.75.75 0 0 0-1.5 0v2.25H9a.75.75 0 0 0 0 1.5h2.25V15a.75.75 0 0 0 1.5 0v-2.25H15a.75.75 0 0 0 0-1.5h-2.25z" clip-rule="evenodd"/></symbol><symbol id="hd-icon-iconoir-check" viewBox="0 0 24 24"><path fill="none" stroke="currentColor" stroke-linecap="round" stroke-linejoin="round" stroke-width="1.5" d="m5 13l4 4L19 7"/></symbol><symbol id="hd-icon-iconoir-check-circle" viewBox="0 0 24 24"><g fill="none" stroke="currentColor" stroke-linecap="round" stroke-linejoin="round" stroke-width="1.5"><path d="m7 12.5l3 3l7-7"/><path d="M12 22c5.523 0 10-4.477 10-10S17.523 2 12 2S2 6.477 2 12s4.477 10 10 10"/></g></symbol><symbol id="hd-icon-iconoir-check-circle-solid" viewBox="0 0 24 24"><path fill="currentColor" fill-rule="evenodd" d="M12 1.25C6.063 1.25 1.25 6.063 1.25 12S6.063 22.75 12 22.75S22.75 17.937 22.75 12S17.937 1.25 12 1.25M7.53 11.97a.75.75 0 0 0-1.06 1.06l3 3a.75.75 0 0 0 1.06 0l7-7a.75.75 0 0 0-1.06-1.06L10 14.44z" clip-rule="evenodd"/></symbol><symbol id="hd-icon-iconoir-check-square" viewBox="0 0 24 24"><g fill="none" stroke="currentColor" stroke-width="1.5"><path d="M3 20.4V3.6a.6.6 0 0 1 .6-.6h16.8a.6.6 0 0 1 .6.6v16.8a.6.6 0 0 1-.6.6H3.6a.6.6 0 0 1-.6-.6Z"/><path stroke-linecap="round" stroke-linejoin="round" d="m7 12.5l3 3l7-7"/></g></symbol><symbol id="hd-icon-iconoir-check-square-solid" viewBox="0 0 24 24"><path fill="currentColor" fill-rule="evenodd" d="M3.6 2.25A1.35 1.35 0 0 0 2.25 3.6v16.8c0 .746.604 1.35 1.35 1.35h16.8a1.35 1.35 0 0 0 1.35-1.35V3.6a1.35 1.35 0 0 0-1.35-1.35zm13.93 6.78a.75.75 0 0 0-1.06-1.06L10 14.44l-2.47-2.47a.75.75 0 0 0-1.06 1.06l3 3a.75.75 0 0 0 1.06 0z" clip-rule="evenodd"/></symbol><symbol id="hd-icon-iconoir-chocolate" viewBox="0 0 24 24"><path fill="none" stroke="currentColor" stroke-linecap="round" stroke-linejoin="round" stroke-width="1.5" d="M19 6.5c-3 0-4.5-.5-4.5-3.5H5v18h14zm0 8.5H5m0-6h14m-7 12V3"/></symbol><symbol id="hd-icon-iconoir-chromecast" viewBox="0 0 24 24"><path fill="none" stroke="currentColor" stroke-linecap="round" stroke-linejoin="round" stroke-width="1.5" d="m2 20.01l.01-.011M15 20h5a2 2 0 0 0 2-2V6a2 2 0 0 0-2-2H4a2 2 0 0 0-2 2v1m0 9c2 .5 3.5 2 4 4m-4-8c4 .5 7.5 4 8 8"/></symbol><symbol id="hd-icon-iconoir-chromecast-active" viewBox="0 0 24 24"><g fill="none" stroke-width="1.5"><path stroke="currentColor" stroke-linecap="round" stroke-linejoin="round" d="m2 20.01l.01-.011M15 20h5a2 2 0 0 0 2-2V6a2 2 0 0 0-2-2H4a2 2 0 0 0-2 2v1m0 9c2 .5 3.5 2 4 4m-4-8c4 .5 7.5 4 8 8"/><path fill="currentColor" fill-rule="evenodd" d="M5.002 7.63a.6.6 0 0 1 .6-.6h12.804a.6.6 0 0 1 .6.6v8.832a.6.6 0 0 1-.6.6H13.44a.62.62 0 0 1-.556-.355c-.422-.892-1.622-3.26-3.07-4.707c-1.42-1.419-3.572-2.444-4.435-2.82a.62.62 0 0 1-.378-.569z" clip-rule="evenodd"/></g></symbol><symbol id="hd-icon-iconoir-church" viewBox="0 0 24 24"><path fill="none" stroke="currentColor" stroke-linecap="round" stroke-linejoin="round" stroke-width="1.5" d="m12 6l-7.718 4.824a.6.6 0 0 0-.282.508V21.4a.6.6 0 0 0 .6.6H12m0-16l7.718 4.824a.6.6 0 0 1 .282.508V21.4a.6.6 0 0 1-.6.6H12m0-16V4m0-2v2m-2 0h2m0 0h2m-2 18v-5m4 .01l.01-.011M16 13.01l.01-.011M12 13.01l.01-.011M8 13.01l.01-.011M8 17.01l.01-.011"/></symbol><symbol id="hd-icon-iconoir-church-side" viewBox="0 0 24 24"><g fill="none" stroke="currentColor" stroke-linecap="round" stroke-linejoin="round" stroke-width="1.5"><path d="M7.576 7.424a.6.6 0 0 1 .848 0l3.4 3.4a.6.6 0 0 1 .176.425V21.4a.6.6 0 0 1-.6.6H4.6a.6.6 0 0 1-.6-.6V11.249a.6.6 0 0 1 .176-.425zM8 7V4m0-2v2m0 0H6m2 0h2"/><path d="M12 22h7.4a.6.6 0 0 0 .6-.6V10.749a.6.6 0 0 0-.176-.425l-3.148-3.148A.6.6 0 0 0 16.252 7H8m0 15v-5m0-3.99l.01-.011"/></g></symbol><symbol id="hd-icon-iconoir-cigarette-slash" viewBox="0 0 24 24"><g fill="none" stroke="currentColor" stroke-width="1.5"><path stroke-linecap="round" stroke-linejoin="round" d="M18 15v3m0-7c0-1-1-2-3-2h-1a3 3 0 0 1-3-3V2m11 9c0-6-4-6-4-6s4 1 4-3m0 13v3"/><path d="M2.6 18H18l-3-3H2.6a.6.6 0 0 0-.6.6v1.8a.6.6 0 0 0 .6.6Z"/><path stroke-linecap="round" stroke-linejoin="round" d="m3 3l18 18"/></g></symbol><symbol id="hd-icon-iconoir-cinema-old" viewBox="0 0 24 24"><g fill="none" stroke="currentColor" stroke-linecap="round" stroke-linejoin="round" stroke-width="1.5"><path d="M7 14a2 2 0 1 0 0-4a2 2 0 0 0 0 4m10 0a2 2 0 1 0 0-4a2 2 0 0 0 0 4m-5-5a2 2 0 1 0 0-4a2 2 0 0 0 0 4m0 10a2 2 0 1 0 0-4a2 2 0 0 0 0 4"/><path d="M2 12c0 5.523 4.477 10 10 10s10-4.477 10-10S17.523 2 12 2S2 6.477 2 12m0 0v10"/></g></symbol><symbol id="hd-icon-iconoir-circle" viewBox="0 0 24 24"><path fill="none" stroke="currentColor" stroke-linecap="round" stroke-linejoin="round" stroke-width="1.5" d="M12 22c5.523 0 10-4.477 10-10S17.523 2 12 2S2 6.477 2 12s4.477 10 10 10"/></symbol><symbol id="hd-icon-iconoir-circle-spark" viewBox="0 0 24 24"><g fill="none" stroke="currentColor" stroke-linejoin="round" stroke-width="1.5"><path stroke-linecap="round" d="M22 12c0 5.523-4.477 10-10 10S2 17.523 2 12S6.477 2 12 2"/><path d="M13 6.5c3.134 0 4.5-1.318 4.5-4.5c0 3.182 1.357 4.5 4.5 4.5c-3.143 0-4.5 1.357-4.5 4.5c0-3.143-1.366-4.5-4.5-4.5Z"/></g></symbol><symbol id="hd-icon-iconoir-city" viewBox="0 0 24 24"><path fill="none" stroke="currentColor" stroke-linecap="round" stroke-linejoin="round" stroke-width="1.5" d="m7 9.01l.01-.011M11 9.01l.01-.011M7 13.01l.01-.011m3.99.011l.01-.011M7 17.01l.01-.011m3.99.011l.01-.011M15 21H3.6a.6.6 0 0 1-.6-.6V5.6a.6.6 0 0 1 .6-.6H9V3.6a.6.6 0 0 1 .6-.6h4.8a.6.6 0 0 1 .6.6V9m0 12h5.4a.6.6 0 0 0 .6-.6V9.6a.6.6 0 0 0-.6-.6H15m0 12v-4m0-8v4m0 0h2m-2 0v4m0 0h2"/></symbol><symbol id="hd-icon-iconoir-clipboard-check" viewBox="0 0 24 24"><g fill="none" stroke="currentColor" stroke-linecap="round" stroke-width="1.5"><path d="M8.5 4H6a2 2 0 0 0-2 2v14a2 2 0 0 0 2 2h6m3.5-18H18a2 2 0 0 1 2 2v9"/><path d="M8 6.4V4.5a.5.5 0 0 1 .5-.5c.276 0 .504-.224.552-.496C9.2 2.652 9.774 1 12 1s2.8 1.652 2.948 2.504c.048.272.276.496.552.496a.5.5 0 0 1 .5.5v1.9a.6.6 0 0 1-.6.6H8.6a.6.6 0 0 1-.6-.6Z"/><path stroke-linejoin="round" d="m15.5 20.5l2 2l5-5"/></g></symbol><symbol id="hd-icon-iconoir-clock" viewBox="0 0 24 24"><g fill="none" stroke="currentColor" stroke-linecap="round" stroke-linejoin="round" stroke-width="1.5"><path d="M12 6v6h6"/><path d="M12 22c5.523 0 10-4.477 10-10S17.523 2 12 2S2 6.477 2 12s4.477 10 10 10"/></g></symbol><symbol id="hd-icon-iconoir-clock-rotate-right" viewBox="0 0 24 24"><g fill="none" stroke="currentColor" stroke-linecap="round" stroke-linejoin="round" stroke-width="1.5"><path d="M12 6v6h6"/><path d="M21.888 10.5C21.164 5.689 17.013 2 12 2C6.477 2 2 6.477 2 12s4.477 10 10 10c4.1 0 7.625-2.468 9.168-6"/><path d="M17 16h4.4a.6.6 0 0 1 .6.6V21"/></g></symbol><symbol id="hd-icon-iconoir-clock-solid" viewBox="0 0 24 24"><path fill="currentColor" fill-rule="evenodd" d="M12 1.25C6.063 1.25 1.25 6.063 1.25 12S6.063 22.75 12 22.75S22.75 17.937 22.75 12S17.937 1.25 12 1.25M12.75 6a.75.75 0 0 0-1.5 0v6c0 .414.336.75.75.75h6a.75.75 0 0 0 0-1.5h-5.25z" clip-rule="evenodd"/></symbol><symbol id="hd-icon-iconoir-closed-captions-tag" viewBox="0 0 24 24"><g fill="none" stroke="currentColor" stroke-width="1.5"><path d="M1 15V9a6 6 0 0 1 6-6h10a6 6 0 0 1 6 6v6a6 6 0 0 1-6 6H7a6 6 0 0 1-6-6Z"/><path stroke-linecap="round" d="m10.5 10l-.172-.172a2.83 2.83 0 0 0-2-.828v0A2.83 2.83 0 0 0 5.5 11.828v.344A2.83 2.83 0 0 0 8.328 15v0c.75 0 1.47-.298 2-.828L10.5 14m8-4l-.172-.172a2.83 2.83 0 0 0-2-.828v0a2.83 2.83 0 0 0-2.828 2.828v.344A2.83 2.83 0 0 0 16.328 15v0c.75 0 1.47-.298 2-.828L18.5 14"/></g></symbol><symbol id="hd-icon-iconoir-closed-captions-tag-solid" viewBox="0 0 24 24"><path fill="currentColor" fill-rule="evenodd" d="M.25 9A6.75 6.75 0 0 1 7 2.25h10A6.75 6.75 0 0 1 23.75 9v6A6.75 6.75 0 0 1 17 21.75H7A6.75 6.75 0 0 1 .25 15zm4.5 2.828a3.578 3.578 0 0 1 6.109-2.53l.171.172a.75.75 0 0 1-1.06 1.06l-.172-.171a2.078 2.078 0 0 0-3.548 1.47v.343a2.078 2.078 0 0 0 3.548 1.47l.172-.172a.75.75 0 1 1 1.06 1.06l-.171.172a3.578 3.578 0 0 1-6.109-2.53zM16.328 8.25a3.58 3.58 0 0 0-3.578 3.578v.344a3.578 3.578 0 0 0 6.109 2.53l.171-.172a.75.75 0 1 0-1.06-1.06l-.172.171a2.079 2.079 0 0 1-3.548-1.47v-.343a2.078 2.078 0 0 1 3.548-1.47l.172.172a.75.75 0 0 0 1.06-1.06l-.171-.172a3.58 3.58 0 0 0-2.53-1.048" clip-rule="evenodd"/></symbol><symbol id="hd-icon-iconoir-closet" viewBox="0 0 24 24"><g fill="none" stroke="currentColor" stroke-width="1.5"><path stroke-linecap="round" stroke-linejoin="round" d="M9 14H8m8 0h-1"/><path d="M12 2h8.4a.6.6 0 0 1 .6.6v18.8a.6.6 0 0 1-.6.6H12m0-20H3.6a.6.6 0 0 0-.6.6v18.8a.6.6 0 0 0 .6.6H12m0-20v20"/></g></symbol><symbol id="hd-icon-iconoir-cloud" viewBox="0 0 24 24"><path fill="none" stroke="currentColor" stroke-linejoin="round" stroke-width="1.5" d="M12 4c-6 0-6 4-6 6c-1.667 0-5 1-5 5s3.333 5 5 5h12c1.667 0 5-1 5-5s-3.333-5-5-5c0-2 0-6-6-6Z"/></symbol><symbol id="hd-icon-iconoir-cloud-bookmark" viewBox="0 0 24 24"><g fill="none" stroke="currentColor" stroke-linecap="round" stroke-linejoin="round" stroke-width="1.5"><path d="M8.5 12h7v10L12 20l-3.5 2z"/><path d="M20 17.607c1.494-.585 3-1.918 3-4.607c0-4-3.333-5-5-5c0-2 0-6-6-6S6 6 6 8c-1.667 0-5 1-5 5c0 2.689 1.506 4.022 3 4.607"/></g></symbol><symbol id="hd-icon-iconoir-cloud-check" viewBox="0 0 24 24"><g fill="none" stroke="currentColor" stroke-linecap="round" stroke-linejoin="round" stroke-width="1.5"><path d="m8 18l3 3l5-5"/><path d="M20 17.607c1.494-.585 3-1.918 3-4.607c0-4-3.333-5-5-5c0-2 0-6-6-6S6 6 6 8c-1.667 0-5 1-5 5c0 2.689 1.506 4.022 3 4.607"/></g></symbol><symbol id="hd-icon-iconoir-cloud-desync" viewBox="0 0 24 24"><g fill="none" stroke="currentColor" stroke-linecap="round" stroke-linejoin="round" stroke-width="1.5"><path d="M20 17.607c1.494-.585 3-1.918 3-4.607c0-4-3.333-5-5-5c0-2 0-6-6-6S6 6 6 8c-1.667 0-5 1-5 5c0 2.689 1.506 4.022 3 4.607m12.42 1.88l-1.768 1.768a4 4 0 0 1-5.656 0l-.354-.353"/><path d="m16.067 21.962l.353-2.475l-2.475.354zm-8.487-5.06l1.768-1.768a4 4 0 0 1 5.657 0l.354.353"/><path d="m7.934 14.427l-.353 2.475l2.474-.354z"/></g></symbol><symbol id="hd-icon-iconoir-cloud-download" viewBox="0 0 24 24"><path fill="none" stroke="currentColor" stroke-linecap="round" stroke-linejoin="round" stroke-width="1.5" d="M12 13v9m0 0l3.5-3.5M12 22l-3.5-3.5m11.5-.893c1.494-.585 3-1.918 3-4.607c0-4-3.333-5-5-5c0-2 0-6-6-6S6 6 6 8c-1.667 0-5 1-5 5c0 2.689 1.506 4.022 3 4.607"/></symbol><symbol id="hd-icon-iconoir-cloud-square" viewBox="0 0 24 24"><g fill="none" stroke="currentColor" stroke-width="1.5"><path d="M3 20.4V3.6a.6.6 0 0 1 .6-.6h16.8a.6.6 0 0 1 .6.6v16.8a.6.6 0 0 1-.6.6H3.6a.6.6 0 0 1-.6-.6Z"/><path stroke-linejoin="round" d="M12 8c-3.273 0-3.273 2-3.273 3C7.818 11 6 11.5 6 13.5S7.818 16 8.727 16h6.546c.909 0 2.727-.5 2.727-2.5S16.182 11 15.273 11c0-1 0-3-3.273-3Z"/></g></symbol><symbol id="hd-icon-iconoir-cloud-square-solid" viewBox="0 0 24 24"><path fill="currentColor" fill-rule="evenodd" d="M3.6 2.25A1.35 1.35 0 0 0 2.25 3.6v16.8c0 .746.604 1.35 1.35 1.35h16.8a1.35 1.35 0 0 0 1.35-1.35V3.6a1.35 1.35 0 0 0-1.35-1.35zm8.4 5c-1.792 0-2.897.557-3.491 1.464c-.35.536-.47 1.128-.511 1.609c-.445.085-.94.255-1.388.551c-.76.502-1.36 1.353-1.36 2.626s.6 2.124 1.36 2.626c.72.475 1.555.624 2.117.624h6.546c.562 0 1.398-.149 2.117-.624c.76-.502 1.36-1.353 1.36-2.626s-.6-2.124-1.36-2.626a3.9 3.9 0 0 0-1.388-.551c-.04-.481-.16-1.073-.51-1.609c-.594-.907-1.7-1.464-3.492-1.464" clip-rule="evenodd"/></symbol><symbol id="hd-icon-iconoir-cloud-sunny" viewBox="0 0 24 24"><path fill="none" stroke="currentColor" stroke-linecap="round" stroke-linejoin="round" stroke-width="1.5" d="M6 13c-1.667 0-5 1-5 5s3.333 5 5 5h12c1.667 0 5-1 5-5s-3.333-5-5-5m-6-1a3 3 0 1 0 0-6a3 3 0 0 0 0 6m7-3h1m-8-7V1m6.5 2.5l-1 1m-12-1l1 1M4 9h1"/></symbol><symbol id="hd-icon-iconoir-cloud-sync" viewBox="0 0 24 24"><g fill="none" stroke="currentColor" stroke-linecap="round" stroke-linejoin="round" stroke-width="1.5"><path d="M20 17.607c1.494-.585 3-1.918 3-4.607c0-4-3.333-5-5-5c0-2 0-6-6-6S6 6 6 8c-1.667 0-5 1-5 5c0 2.689 1.506 4.022 3 4.607m3.58 1.88l1.768 1.768a4 4 0 0 0 5.657 0l.354-.353"/><path d="m7.934 21.962l-.353-2.475l2.474.354zm8.364-5.06l-1.768-1.768a4 4 0 0 0-5.657 0l-.353.353"/><path d="m15.945 14.427l.353 2.475l-2.475-.354z"/></g></symbol><symbol id="hd-icon-iconoir-cloud-upload" viewBox="0 0 24 24"><path fill="none" stroke="currentColor" stroke-linecap="round" stroke-linejoin="round" stroke-width="1.5" d="M12 22v-9m0 0l3.5 3.5M12 13l-3.5 3.5M20 17.607c1.494-.585 3-1.918 3-4.607c0-4-3.333-5-5-5c0-2 0-6-6-6S6 6 6 8c-1.667 0-5 1-5 5c0 2.689 1.506 4.022 3 4.607"/></symbol><symbol id="hd-icon-iconoir-cloud-xmark" viewBox="0 0 24 24"><path fill="none" stroke="currentColor" stroke-linecap="round" stroke-linejoin="round" stroke-width="1.5" d="m9 22l3-3m3-3l-3 3m0 0l-3-3m3 3l3 3m5-4.393c1.494-.585 3-1.918 3-4.607c0-4-3.333-5-5-5c0-2 0-6-6-6S6 6 6 8c-1.667 0-5 1-5 5c0 2.689 1.506 4.022 3 4.607"/></symbol><symbol id="hd-icon-iconoir-code" viewBox="0 0 24 24"><path fill="none" stroke="currentColor" stroke-linecap="round" stroke-linejoin="round" stroke-width="1.5" d="M13.5 6L10 18.5m-3.5-10L3 12l3.5 3.5m11-7L21 12l-3.5 3.5"/></symbol><symbol id="hd-icon-iconoir-code-brackets" viewBox="0 0 24 24"><path fill="none" stroke="currentColor" stroke-linecap="round" stroke-linejoin="round" stroke-width="1.5" d="M9 21H8c-1.105 0-2-.894-2-1.999V14c0-1-1.5-2-1.5-2S6 11 6 10V5a2 2 0 0 1 2-2h1m6 18h1c1.105 0 2-.894 2-1.999V14c0-1 1.5-2 1.5-2S18 11 18 10V5a2 2 0 0 0-2-2h-1"/></symbol><symbol id="hd-icon-iconoir-code-brackets-square" viewBox="0 0 24 24"><g fill="none" stroke="currentColor" stroke-linecap="round" stroke-linejoin="round" stroke-width="1.5"><path d="M10 17h-.667a2 2 0 0 1-2-2v-1.889C7.333 12.556 6 12 6 12s1.333-.556 1.333-1.111V9a2 2 0 0 1 2-2H10m4 10h.667a2 2 0 0 0 2-2v-1.889C16.667 12.556 18 12 18 12s-1.333-.556-1.333-1.111V9a2 2 0 0 0-2-2H14"/><path d="M21 3.6v16.8a.6.6 0 0 1-.6.6H3.6a.6.6 0 0 1-.6-.6V3.6a.6.6 0 0 1 .6-.6h16.8a.6.6 0 0 1 .6.6"/></g></symbol><symbol id="hd-icon-iconoir-codepen" viewBox="0 0 24 24"><g fill="none" stroke="currentColor" stroke-linecap="round" stroke-linejoin="round" stroke-width="1.5"><path d="M21 9v6M3 15V9m9 12v-6m0-12v6m0 6L3 9l9-6l9 6z"/><path d="m12 21l-9-6l9-6l9 6z"/></g></symbol><symbol id="hd-icon-iconoir-coffee-cup" viewBox="0 0 24 24"><g fill="none" stroke="currentColor" stroke-linecap="round" stroke-linejoin="round" stroke-width="1.5"><path d="M17 11.6V15a6 6 0 0 1-6 6H9a6 6 0 0 1-6-6v-3.4a.6.6 0 0 1 .6-.6h12.8a.6.6 0 0 1 .6.6M12 9c0-1 .714-2 2.143-2v0A2.857 2.857 0 0 0 17 4.143V3.5M8 9v-.5a3 3 0 0 1 3-3v0a2 2 0 0 0 2-2V3"/><path d="M16 11h2.5a2.5 2.5 0 0 1 0 5H17"/></g></symbol><symbol id="hd-icon-iconoir-coin-slash" viewBox="0 0 24 24"><g fill="none" stroke="currentColor" stroke-linecap="round" stroke-linejoin="round" stroke-width="1.5"><path d="M4.623 5.248A9.96 9.96 0 0 0 2 12c0 5.523 4.477 10 10 10a9.96 9.96 0 0 0 6.615-2.5m2.687-3.822A10 10 0 0 0 22 12c0-5.523-4.477-10-10-10c-1.231 0-2.41.223-3.5.63"/><path d="M9 15c.644.86 1.843 1.35 3 1.391c1.114.04 2.19-.336 2.697-1.198M12 16.391V18.5m-2.5-9c0 1.181.852 1.665 1.886 2M15 8.5c-.685-.685-1.891-1.161-3-1.191V5.5M3 3l18 18"/></g></symbol><symbol id="hd-icon-iconoir-coins" viewBox="0 0 24 24"><g fill="none" stroke="currentColor" stroke-linecap="round" stroke-linejoin="round" stroke-width="1.5"><path d="M16 13c-2.761 0-5-1.12-5-2.5S13.239 8 16 8s5 1.12 5 2.5s-2.239 2.5-5 2.5m-5 1.5c0 1.38 2.239 2.5 5 2.5s5-1.12 5-2.5m-18-5C3 10.88 5.239 12 8 12c1.126 0 2.165-.186 3-.5M3 13c0 1.38 2.239 2.5 5 2.5c1.126 0 2.164-.186 3-.5"/><path d="M3 5.5v11C3 17.88 5.239 19 8 19c1.126 0 2.164-.186 3-.5m2-10v-3m-2 5v8c0 1.38 2.239 2.5 5 2.5s5-1.12 5-2.5v-8"/><path d="M8 8C5.239 8 3 6.88 3 5.5S5.239 3 8 3s5 1.12 5 2.5S10.761 8 8 8"/></g></symbol><symbol id="hd-icon-iconoir-coins-swap" viewBox="0 0 24 24"><g fill="none" stroke="currentColor" stroke-linecap="round" stroke-linejoin="round" stroke-width="1.5"><path d="M9.019 9A6.5 6.5 0 1 1 15 14.981"/><path d="M8.5 22a6.5 6.5 0 1 1 0-13a6.5 6.5 0 0 1 0 13M22 17a3 3 0 0 1-3 3h-2m0 0l2-2m-2 2l2 2M2 7a3 3 0 0 1 3-3h2m0 0L5 6m2-2L5 2"/></g></symbol><symbol id="hd-icon-iconoir-collage-frame" viewBox="0 0 24 24"><path fill="none" stroke="currentColor" stroke-width="1.5" d="M19.4 20H4.6a.6.6 0 0 1-.6-.6V4.6a.6.6 0 0 1 .6-.6h14.8a.6.6 0 0 1 .6.6v14.8a.6.6 0 0 1-.6.6ZM11 12V4m-7 8h16"/></symbol><symbol id="hd-icon-iconoir-collapse" viewBox="0 0 24 24"><path fill="none" stroke="currentColor" stroke-linecap="round" stroke-linejoin="round" stroke-width="1.5" d="m20 20l-5-5m0 0v4m0-4h4M4 20l5-5m0 0v4m0-4H5M20 4l-5 5m0 0V5m0 4h4M4 4l5 5m0 0V5m0 4H5"/></symbol><symbol id="hd-icon-iconoir-color-filter" viewBox="0 0 24 24"><g fill="none" stroke="currentColor" stroke-linecap="round" stroke-linejoin="round" stroke-width="1.5"><path d="M12 14.5a6 6 0 1 0 0-12a6 6 0 0 0 0 12"/><path d="M16 21.5a6 6 0 1 0 0-12a6 6 0 0 0 0 12"/><path d="M8 21.5a6 6 0 1 0 0-12a6 6 0 0 0 0 12"/></g></symbol><symbol id="hd-icon-iconoir-color-picker" viewBox="0 0 24 24"><path fill="none" stroke="currentColor" stroke-linecap="round" stroke-linejoin="round" stroke-width="1.5" d="m7 13.161l5.464-5.464a1 1 0 0 1 1.415 0l2.12 2.12a1 1 0 0 1 0 1.415l-1.928 1.929m-7.071 0l-2.172 2.172a1 1 0 0 0-.218.327l-1.028 2.496c-.508 1.233.725 2.466 1.958 1.959l2.497-1.028q.185-.077.326-.218l5.708-5.708m-7.071 0h7.071m-.193-9.707l2.121 2.121m4.243 4.243l-2.121-2.121m-2.122-2.122l1.414-1.414a1 1 0 0 1 1.415 0l.707.707a1 1 0 0 1 0 1.414L18.12 7.697m-2.122-2.122l2.122 2.122"/></symbol><symbol id="hd-icon-iconoir-color-picker-empty" viewBox="0 0 24 24"><path fill="none" stroke="currentColor" stroke-linecap="round" stroke-linejoin="round" stroke-width="1.5" d="M13.879 7.697L16 9.817a1 1 0 0 1 0 1.415L8.363 18.87a1.001 1.001 0 0 1-.326.218L5.54 20.114c-1.233.508-2.466-.725-1.958-1.958L4.61 15.66a.999.999 0 0 1 .218-.327l7.636-7.636a1 1 0 0 1 1.415 0Zm0-4.243L16 5.575m4.243 4.243L18.12 7.697M16 5.575l1.413-1.414a1 1 0 0 1 1.414 0l.708.707a1 1 0 0 1 0 1.414L18.12 7.697M16 5.575l2.12 2.122"/></symbol><symbol id="hd-icon-iconoir-color-wheel" viewBox="0 0 24 24"><g fill="none" stroke="currentColor" stroke-linecap="round" stroke-linejoin="round" stroke-width="1.5"><path d="M12 22C6.477 22 2 17.523 2 12S6.477 2 12 2s10 4.477 10 10s-4.477 10-10 10"/><path d="M12 16a4 4 0 1 1 0-8a4 4 0 0 1 0 8m0-14v6m0 8v6M2 12h6m8 0h6M4.929 4.929L9.172 9.17m5.656 5.659l4.243 4.242m-14.142 0l4.243-4.242m5.656-5.658l4.243-4.242"/></g></symbol><symbol id="hd-icon-iconoir-combine" viewBox="0 0 24 24"><g fill="none" stroke="currentColor" stroke-linecap="round" stroke-linejoin="round" stroke-width="1.5"><path d="M21 9.6v10.8a.6.6 0 0 1-.6.6H9.6a.6.6 0 0 1-.6-.6V9.6a.6.6 0 0 1 .6-.6h10.8a.6.6 0 0 1 .6.6"/><path d="M15 3.6v10.8a.6.6 0 0 1-.6.6H3.6a.6.6 0 0 1-.6-.6V3.6a.6.6 0 0 1 .6-.6h10.8a.6.6 0 0 1 .6.6"/></g></symbol><symbol id="hd-icon-iconoir-commodity" viewBox="0 0 24 24"><g fill="none" stroke="currentColor" stroke-linecap="round" stroke-width="1.5"><path d="m12.147 18.28l1.184-5.8a.6.6 0 0 1 .588-.48h6.162a.6.6 0 0 1 .588.48l1.184 5.8a.6.6 0 0 1-.588.72h-8.53a.6.6 0 0 1-.588-.72Z"/><path d="m7.147 11.28l1.184-5.8A.6.6 0 0 1 8.918 5h6.164a.6.6 0 0 1 .587.48l1.184 5.8a.6.6 0 0 1-.588.72h-8.53a.6.6 0 0 1-.588-.72Z"/><path d="m2.147 18.28l1.184-5.8a.6.6 0 0 1 .587-.48h6.163a.6.6 0 0 1 .588.48l1.184 5.8a.6.6 0 0 1-.588.72h-8.53a.6.6 0 0 1-.588-.72Z"/></g></symbol><symbol id="hd-icon-iconoir-community" viewBox="0 0 24 24"><path fill="none" stroke="currentColor" stroke-linecap="round" stroke-linejoin="round" stroke-width="1.5" d="M7 18v-1a5 5 0 0 1 5-5v0a5 5 0 0 1 5 5v1M1 18v-1a3 3 0 0 1 3-3v0m19 4v-1a3 3 0 0 0-3-3v0m-8-2a3 3 0 1 0 0-6a3 3 0 0 0 0 6m-8 2a2 2 0 1 0 0-4a2 2 0 0 0 0 4m16 0a2 2 0 1 0 0-4a2 2 0 0 0 0 4"/></symbol><symbol id="hd-icon-iconoir-comp-align-bottom" viewBox="0 0 24 24"><g fill="none" stroke="currentColor" stroke-width="1.5"><path stroke-linecap="round" stroke-linejoin="round" d="M22 21H2"/><path d="M8 15V5a2 2 0 0 1 2-2h4a2 2 0 0 1 2 2v10a2 2 0 0 1-2 2h-4a2 2 0 0 1-2-2Z"/></g></symbol><symbol id="hd-icon-iconoir-comp-align-bottom-solid" viewBox="0 0 24 24"><g fill="none" stroke="currentColor" stroke-width="1.5"><path stroke-linecap="round" stroke-linejoin="round" d="M22 21H2"/><path fill="currentColor" d="M8 15V5a2 2 0 0 1 2-2h4a2 2 0 0 1 2 2v10a2 2 0 0 1-2 2h-4a2 2 0 0 1-2-2Z"/></g></symbol><symbol id="hd-icon-iconoir-comp-align-left" viewBox="0 0 24 24"><g fill="none" stroke="currentColor" stroke-width="1.5"><path stroke-linecap="round" stroke-linejoin="round" d="M3 22V2"/><path d="M19 16H9a2 2 0 0 1-2-2v-4a2 2 0 0 1 2-2h10a2 2 0 0 1 2 2v4a2 2 0 0 1-2 2Z"/></g></symbol><symbol id="hd-icon-iconoir-comp-align-left-solid" viewBox="0 0 24 24"><g fill="none" stroke="currentColor" stroke-width="1.5"><path stroke-linecap="round" stroke-linejoin="round" d="M3 22V2"/><path fill="currentColor" d="M19 16H9a2 2 0 0 1-2-2v-4a2 2 0 0 1 2-2h10a2 2 0 0 1 2 2v4a2 2 0 0 1-2 2Z"/></g></symbol><symbol id="hd-icon-iconoir-comp-align-right" viewBox="0 0 24 24"><g fill="none" stroke="currentColor" stroke-width="1.5"><path stroke-linecap="round" stroke-linejoin="round" d="M21 22V2"/><path d="M15 16H5a2 2 0 0 1-2-2v-4a2 2 0 0 1 2-2h10a2 2 0 0 1 2 2v4a2 2 0 0 1-2 2Z"/></g></symbol><symbol id="hd-icon-iconoir-comp-align-right-solid" viewBox="0 0 24 24"><g fill="none" stroke="currentColor" stroke-width="1.5"><path stroke-linecap="round" stroke-linejoin="round" d="M21 22V2"/><path fill="currentColor" d="M15 16H5a2 2 0 0 1-2-2v-4a2 2 0 0 1 2-2h10a2 2 0 0 1 2 2v4a2 2 0 0 1-2 2Z"/></g></symbol><symbol id="hd-icon-iconoir-comp-align-top" viewBox="0 0 24 24"><g fill="none" stroke="currentColor" stroke-width="1.5"><path stroke-linecap="round" stroke-linejoin="round" d="M22 3H2"/><path d="M8 19V9a2 2 0 0 1 2-2h4a2 2 0 0 1 2 2v10a2 2 0 0 1-2 2h-4a2 2 0 0 1-2-2Z"/></g></symbol><symbol id="hd-icon-iconoir-comp-align-top-solid" viewBox="0 0 24 24"><g fill="none" stroke="currentColor" stroke-width="1.5"><path stroke-linecap="round" stroke-linejoin="round" d="M22 3H2"/><path fill="currentColor" d="M8 19V9a2 2 0 0 1 2-2h4a2 2 0 0 1 2 2v10a2 2 0 0 1-2 2h-4a2 2 0 0 1-2-2Z"/></g></symbol><symbol id="hd-icon-iconoir-compact-disc" viewBox="0 0 24 24"><g fill="none" stroke="currentColor" stroke-linecap="round" stroke-linejoin="round" stroke-width="1.5"><path d="M12 22c5.523 0 10-4.477 10-10S17.523 2 12 2S2 6.477 2 12s4.477 10 10 10"/><path d="M12 15a3 3 0 1 0 0-6a3 3 0 0 0 0 6"/></g></symbol><symbol id="hd-icon-iconoir-compass" viewBox="0 0 24 24"><g fill="none" stroke="currentColor" stroke-linecap="round" stroke-linejoin="round" stroke-width="1.5"><path d="M10.586 10.586L16.95 7.05l-3.536 6.364L7.05 16.95z"/><path d="M12 22c5.523 0 10-4.477 10-10S17.523 2 12 2S2 6.477 2 12s4.477 10 10 10"/></g></symbol><symbol id="hd-icon-iconoir-compass-solid" viewBox="0 0 24 24"><path fill="currentColor" fill-rule="evenodd" d="M12 1.25c5.937 0 10.75 4.813 10.75 10.75S17.937 22.75 12 22.75S1.25 17.937 1.25 12S6.063 1.25 12 1.25m5.605 6.164a.75.75 0 0 0-1.02-1.02L10.221 9.93a.75.75 0 0 0-.291.291l-3.536 6.364a.75.75 0 0 0 1.02 1.02l6.364-3.535a.75.75 0 0 0 .291-.292z" clip-rule="evenodd"/></symbol><symbol id="hd-icon-iconoir-component" viewBox="0 0 24 24"><path fill="none" stroke="currentColor" stroke-width="1.5" d="m5.212 15.111l-2.687-2.687a.6.6 0 0 1 0-.848l2.687-2.687a.6.6 0 0 1 .848 0l2.687 2.687a.6.6 0 0 1 0 .848L6.06 15.111a.6.6 0 0 1-.848 0Zm6.364 6.364l-2.687-2.687a.6.6 0 0 1 0-.849l2.687-2.687a.6.6 0 0 1 .848 0l2.687 2.687a.6.6 0 0 1 0 .849l-2.687 2.687a.6.6 0 0 1-.848 0Zm0-12.727L8.889 6.06a.6.6 0 0 1 0-.848l2.687-2.687a.6.6 0 0 1 .848 0l2.687 2.687a.6.6 0 0 1 0 .848l-2.687 2.688a.6.6 0 0 1-.848 0Zm6.364 6.363l-2.687-2.687a.6.6 0 0 1 0-.848l2.687-2.687a.6.6 0 0 1 .848 0l2.687 2.687a.6.6 0 0 1 0 .848l-2.687 2.687a.6.6 0 0 1-.848 0Z"/></symbol><symbol id="hd-icon-iconoir-component-solid" viewBox="0 0 24 24"><path fill="currentColor" stroke="currentColor" stroke-width="1.5" d="m5.212 15.111l-2.687-2.687a.6.6 0 0 1 0-.848l2.687-2.687a.6.6 0 0 1 .848 0l2.687 2.687a.6.6 0 0 1 0 .848L6.06 15.111a.6.6 0 0 1-.848 0Zm6.364 6.365l-2.687-2.687a.6.6 0 0 1 0-.849l2.687-2.687a.6.6 0 0 1 .848 0l2.687 2.687a.6.6 0 0 1 0 .848l-2.687 2.688a.6.6 0 0 1-.848 0Zm0-12.729L8.889 6.06a.6.6 0 0 1 0-.849l2.687-2.687a.6.6 0 0 1 .848 0l2.687 2.687a.6.6 0 0 1 0 .849l-2.687 2.687a.6.6 0 0 1-.848 0Zm6.364 6.364l-2.687-2.687a.6.6 0 0 1 0-.848l2.687-2.687a.6.6 0 0 1 .848 0l2.687 2.687a.6.6 0 0 1 0 .848l-2.687 2.687a.6.6 0 0 1-.848 0Z"/></symbol><symbol id="hd-icon-iconoir-compress" viewBox="0 0 24 24"><path fill="none" stroke="currentColor" stroke-linecap="round" stroke-linejoin="round" stroke-width="1.5" d="M18 12H6m6 10v-6m0 0l3 3m-3-3l-3 3m3-17v6m0 0l3-3m-3 3L9 5"/></symbol><symbol id="hd-icon-iconoir-compress-lines" viewBox="0 0 24 24"><path fill="none" stroke="currentColor" stroke-linecap="round" stroke-linejoin="round" stroke-width="1.5" d="M18 2H6m12 20H6m6-17v5m0 0l3-3m-3 3L9 7m3 12v-5m0 0l3 3m-3-3l-3 3"/></symbol><symbol id="hd-icon-iconoir-computer" viewBox="0 0 24 24"><g fill="none" stroke="currentColor" stroke-width="1.5"><path stroke-linecap="round" stroke-linejoin="round" d="M2 21h15m4 0h1"/><path d="M2 16.4V3.6a.6.6 0 0 1 .6-.6h18.8a.6.6 0 0 1 .6.6v12.8a.6.6 0 0 1-.6.6H2.6a.6.6 0 0 1-.6-.6Z"/></g></symbol><symbol id="hd-icon-iconoir-constrained-surface" viewBox="0 0 24 24"><g fill="none" stroke="currentColor" stroke-linecap="round" stroke-linejoin="round" stroke-width="1.5"><path d="M3 23a2 2 0 1 1 0-4a2 2 0 0 1 0 4m18 0a2 2 0 1 1 0-4a2 2 0 0 1 0 4M3 5a2 2 0 1 1 0-4a2 2 0 0 1 0 4m18 0a2 2 0 1 1 0-4a2 2 0 0 1 0 4m-8 7c0-1.246-1.158-2.5-2.572-2.5h-.857C8.152 9.5 7 10.62 7 12c0 1.19.855 2.185 2 2.438q.283.062.572.062"/><path d="M11 12c0 1.246 1.159 2.5 2.572 2.5h.857C15.849 14.5 17 13.38 17 12c0-1.19-.855-2.186-2-2.438a2.7 2.7 0 0 0-.572-.062M21 19V5M3 19V5m2-2h14M5 21h14"/></g></symbol><symbol id="hd-icon-iconoir-consumable" viewBox="0 0 24 24"><g fill="none" stroke="currentColor" stroke-linecap="round" stroke-linejoin="round" stroke-width="1.5"><path d="M22.003 3v4.497A.503.503 0 0 1 21.5 8v0a.52.52 0 0 1-.466-.3A10 10 0 0 0 12.003 2c-5.185 0-9.449 3.947-9.95 9"/><path d="M17 10v5a2 2 0 0 1-2 2H9a2 2 0 0 1-2-2v-5a2 2 0 0 1 2-2h6a2 2 0 0 1 2 2m-5 1V8"/><path d="M2.05 21v-4.497c0-.278.226-.503.504-.503v0c.2 0 .38.119.466.3a10 10 0 0 0 9.03 5.7c5.186 0 9.45-3.947 9.952-9"/></g></symbol><symbol id="hd-icon-iconoir-contactless" viewBox="0 0 24 24"><path fill="none" stroke="currentColor" stroke-linecap="round" stroke-linejoin="round" stroke-width="1.5" d="M15 21.5c4-5.5 4-13.5 0-19M11.5 20c3.5-5 3.5-11 0-16m-3 14c2.667-3.75 2.667-8.25 0-12m-3 10c1.5-2.5 1.5-5.5 0-8"/></symbol><symbol id="hd-icon-iconoir-control-slider" viewBox="0 0 24 24"><g fill="none" stroke="currentColor" stroke-width="1.5"><path d="m6.755 17.283l-1.429-10A2 2 0 0 1 7.306 5h3.388a2 2 0 0 1 1.98 2.283l-1.429 10A2 2 0 0 1 9.265 19h-.53a2 2 0 0 1-1.98-1.717Z"/><path stroke-linecap="round" stroke-linejoin="round" d="M2 12h4m16 0H12"/></g></symbol><symbol id="hd-icon-iconoir-cookie" viewBox="0 0 24 24"><g fill="none" stroke="currentColor" stroke-linecap="round" stroke-linejoin="round" stroke-width="1.5"><path d="M12 22c5.523 0 10-4.477 10-10S17.523 2 12 2S2 6.477 2 12s4.477 10 10 10"/><path d="M7.5 11a.5.5 0 1 1 0-1a.5.5 0 0 1 0 1m5.5 7a1 1 0 1 1 0-2a1 1 0 0 1 0 2M11 7.01l.01-.011M8 16.01l.01-.011M16 9.01l.01-.011M17 14.01l.01-.011M13 12.01l.01-.011"/></g></symbol><symbol id="hd-icon-iconoir-cooling-square" viewBox="0 0 24 24"><path fill="none" stroke="currentColor" stroke-linecap="round" stroke-linejoin="round" stroke-width="1.5" d="M21 3.6v16.8a.6.6 0 0 1-.6.6H3.6a.6.6 0 0 1-.6-.6V3.6a.6.6 0 0 1 .6-.6h16.8a.6.6 0 0 1 .6.6M12 7v5m0 5v-5m0 0L7.5 9.5M12 12l4.5 2.5M12 12l4.5-2.5M12 12l-4.5 2.5"/></symbol><symbol id="hd-icon-iconoir-cooling-square-solid" viewBox="0 0 24 24"><path fill="currentColor" fill-rule="evenodd" d="M20.4 21.75a1.35 1.35 0 0 0 1.35-1.35V3.6a1.35 1.35 0 0 0-1.35-1.35H3.6A1.35 1.35 0 0 0 2.25 3.6v16.8c0 .746.604 1.35 1.35 1.35zM12.75 7a.75.75 0 0 0-1.5 0v3.725l-3.386-1.88a.75.75 0 0 0-.728 1.31L10.456 12l-3.32 1.844a.75.75 0 1 0 .728 1.312l3.386-1.881V17a.75.75 0 0 0 1.5 0v-3.725l3.386 1.88a.75.75 0 1 0 .728-1.31L13.544 12l3.32-1.844a.75.75 0 1 0-.728-1.312l-3.386 1.881z" clip-rule="evenodd"/></symbol><symbol id="hd-icon-iconoir-copy" viewBox="0 0 24 24"><g fill="none" stroke="currentColor" stroke-linecap="round" stroke-linejoin="round" stroke-width="1.5"><path d="M19.4 20H9.6a.6.6 0 0 1-.6-.6V9.6a.6.6 0 0 1 .6-.6h9.8a.6.6 0 0 1 .6.6v9.8a.6.6 0 0 1-.6.6"/><path d="M15 9V4.6a.6.6 0 0 0-.6-.6H4.6a.6.6 0 0 0-.6.6v9.8a.6.6 0 0 0 .6.6H9"/></g></symbol><symbol id="hd-icon-iconoir-copyright" viewBox="0 0 24 24"><g fill="none" stroke="currentColor" stroke-linecap="round" stroke-linejoin="round" stroke-width="1.5"><path d="M12 22c5.523 0 10-4.477 10-10S17.523 2 12 2S2 6.477 2 12s4.477 10 10 10"/><path d="M13.5 9.17a3 3 0 1 0 0 5.659"/></g></symbol><symbol id="hd-icon-iconoir-corner-bottom-left" viewBox="0 0 24 24"><path fill="none" stroke="currentColor" stroke-linecap="round" stroke-linejoin="round" stroke-width="1.5" d="m4 8l.01.011M4 4l.01.011M8 4l.01.011M12 4l.01.011M16 4l.01.011M20 4l.01.011M20 8l.01.011M20 12l.01.011M20 16l.01.011M20 20l.01.011M16 20l.01.011M4 12.01v8h8v-8z"/></symbol><symbol id="hd-icon-iconoir-corner-bottom-right" viewBox="0 0 24 24"><path fill="none" stroke="currentColor" stroke-linecap="round" stroke-linejoin="round" stroke-width="1.5" d="m20.01 8l-.01.011M20.01 4l-.01.011M16.01 4l-.01.011M12.01 4l-.01.011M8.01 4L8 4.011M4.01 4L4 4.011M4.01 8L4 8.011M4.01 12l-.01.011M4.01 16l-.01.011M4.01 20l-.01.011M8.01 20l-.01.011m12.01-8.001v8h-8v-8z"/></symbol><symbol id="hd-icon-iconoir-corner-top-left" viewBox="0 0 24 24"><path fill="none" stroke="currentColor" stroke-linecap="round" stroke-linejoin="round" stroke-width="1.5" d="m4 16.01l.01-.011M4 20.01l.01-.011M8 20.01l.01-.011m3.99.011l.01-.011m3.99.011l.01-.011m3.99.011l.01-.011M20 16.01l.01-.011M20 12.01l.01-.011M20 8.01l.01-.011M20 4.01l.01-.011M16 4.01l.01-.011M4 12V4h8v8z"/></symbol><symbol id="hd-icon-iconoir-corner-top-right" viewBox="0 0 24 24"><path fill="none" stroke="currentColor" stroke-linecap="round" stroke-linejoin="round" stroke-width="1.5" d="m20.01 16.01l-.01-.011m.01 4.011l-.01-.011m-3.99.011l-.01-.011m-3.99.011l-.01-.011m-3.99.011L8 19.999m-3.99.011L4 19.999m.01-3.989L4 15.999m.01-3.989L4 11.999m.01-3.989L4 7.999m.01-3.989L4 3.999m4.01.011L8 3.999M20.01 12V4h-8v8z"/></symbol><symbol id="hd-icon-iconoir-cpu" viewBox="0 0 24 24"><g fill="none" stroke="currentColor" stroke-linecap="round" stroke-linejoin="round" stroke-width="1.5"><path d="M8 15.4V8.6a.6.6 0 0 1 .6-.6h6.8a.6.6 0 0 1 .6.6v6.8a.6.6 0 0 1-.6.6H8.6a.6.6 0 0 1-.6-.6"/><path d="M20 4.6v14.8a.6.6 0 0 1-.6.6H4.6a.6.6 0 0 1-.6-.6V4.6a.6.6 0 0 1 .6-.6h14.8a.6.6 0 0 1 .6.6M17 4V2m-5 2V2M7 4V2m0 18v2m5-2v2m5-2v2m3-5h2m-2-5h2m-2-5h2M4 17H2m2-5H2m2-5H2"/></g></symbol><symbol id="hd-icon-iconoir-cpu-warning" viewBox="0 0 24 24"><g fill="none" stroke="currentColor" stroke-linecap="round" stroke-linejoin="round" stroke-width="1.5"><path d="M19 2v4m0 4.01l.01-.011M16 14v1.4a.6.6 0 0 1-.6.6H8.6a.6.6 0 0 1-.6-.6V8.6a.6.6 0 0 1 .6-.6H14"/><path d="M20 14v5.4a.6.6 0 0 1-.6.6H4.6a.6.6 0 0 1-.6-.6V4.6a.6.6 0 0 1 .6-.6H14m6 13h2m-5 3v2m-5-2v2m-5-2v2m-3-5H2m2-5H2m2-5H2m10-3V2M7 4V2"/></g></symbol><symbol id="hd-icon-iconoir-cracked-egg" viewBox="0 0 24 24"><g fill="none" stroke="currentColor" stroke-linecap="round" stroke-linejoin="round" stroke-width="1.5"><path d="M12 22a8 8 0 0 0 8-8c0-4.418-3.582-12-8-12S4 9.582 4 14a8 8 0 0 0 8 8"/><path d="M9.5 3.5L12 8l-2.5 3l2.5 3.5"/></g></symbol><symbol id="hd-icon-iconoir-creative-commons" viewBox="0 0 24 24"><g fill="none" stroke="currentColor" stroke-linecap="round" stroke-linejoin="round" stroke-width="1.5"><path d="M12 22c5.523 0 10-4.477 10-10S17.523 2 12 2S2 6.477 2 12s4.477 10 10 10"/><path d="M10.5 9.17a3 3 0 1 0 0 5.659m6.25-5.659a3 3 0 1 0 0 5.659"/></g></symbol><symbol id="hd-icon-iconoir-credit-card" viewBox="0 0 24 24"><path fill="none" stroke="currentColor" stroke-linecap="round" stroke-linejoin="round" stroke-width="1.5" d="M22 9v8a2 2 0 0 1-2 2H4a2 2 0 0 1-2-2V7a2 2 0 0 1 2-2h16a2 2 0 0 1 2 2zm0 0H6"/></symbol><symbol id="hd-icon-iconoir-credit-card-2" viewBox="0 0 24 24"><g fill="none" stroke-width="1.5"><path stroke="currentColor" stroke-linecap="round" stroke-linejoin="round" d="M2 9V5.6a.6.6 0 0 1 .6-.6h18.8a.6.6 0 0 1 .6.6v12.8a.6.6 0 0 1-.6.6H2.6a.6.6 0 0 1-.6-.6V9Zm0 0h14"/><rect width="4" height="4" x="15" y="12" fill="currentColor" rx=".6"/></g></symbol><symbol id="hd-icon-iconoir-credit-card-slash" viewBox="0 0 24 24"><path fill="none" stroke="currentColor" stroke-linecap="round" stroke-linejoin="round" stroke-width="1.5" d="M6 9h3M3 3l18 18m1-12v8a2 2 0 0 1-2 2H4a2 2 0 0 1-2-2V7a2 2 0 0 1 2-2h1m17 4V7a2 2 0 0 0-2-2H10m12 4h-8M9 9H6"/></symbol><symbol id="hd-icon-iconoir-credit-card-solid" viewBox="0 0 24 24"><path fill="currentColor" fill-rule="evenodd" d="M4 4.25A2.75 2.75 0 0 0 1.25 7v10A2.75 2.75 0 0 0 4 19.75h16A2.75 2.75 0 0 0 22.75 17V9.75H6a.75.75 0 0 1 0-1.5h16.75V7A2.75 2.75 0 0 0 20 4.25z" clip-rule="evenodd"/></symbol><symbol id="hd-icon-iconoir-credit-cards" viewBox="0 0 24 24"><g fill="none" stroke="currentColor" stroke-linecap="round" stroke-linejoin="round" stroke-width="1.5"><path d="M22 11.429V18a2 2 0 0 1-2 2H7a2 2 0 0 1-2-2v-1.5m17-5.071V10a2 2 0 0 0-2-2h-1m3 3.429h-3"/><path d="M19 8v6.5a2 2 0 0 1-2 2H4a2 2 0 0 1-2-2v-8a2 2 0 0 1 2-2h13a2 2 0 0 1 2 2zm0 0H5.5"/></g></symbol><symbol id="hd-icon-iconoir-crib" viewBox="0 0 24 24"><g fill="none" stroke="currentColor" stroke-linejoin="round" stroke-width="1.5"><path stroke-linecap="round" d="M3 5v16"/><path d="M3 16h18M3 7h18m-3 9V7m-4 9V7m-4 9V7m-4 9V7M3 19h18"/><path stroke-linecap="round" d="M21 5v16m0-16a1 1 0 1 0 0-2a1 1 0 0 0 0 2M3 5a1 1 0 1 0 0-2a1 1 0 0 0 0 2"/></g></symbol><symbol id="hd-icon-iconoir-crop" viewBox="0 0 24 24"><g fill="none" stroke="currentColor" stroke-linecap="round" stroke-linejoin="round" stroke-width="1.5"><path d="M21 18H6V3"/><path d="M3 6h15v15"/></g></symbol><symbol id="hd-icon-iconoir-crop-rotate-bl" viewBox="0 0 24 24"><g fill="none" stroke="currentColor" stroke-linecap="round" stroke-linejoin="round" stroke-width="1.5"><path d="M4 14v3a4 4 0 0 0 4 4h4"/><path d="M1.5 16.5L4 14l2.5 2.5M20 11V5a1 1 0 0 0-1-1h-6M8 4h2m10 12v-2M10 2v11a1 1 0 0 0 1 1h11"/></g></symbol><symbol id="hd-icon-iconoir-crop-rotate-br" viewBox="0 0 24 24"><g fill="none" stroke="currentColor" stroke-linecap="round" stroke-linejoin="round" stroke-width="1.5"><path d="M14 20h3a4 4 0 0 0 4-4v-4"/><path d="M16.5 22.5L14 20l2.5-2.5M14 11V5a1 1 0 0 0-1-1H7M2 4h2m10 12v-2M4 2v11a1 1 0 0 0 1 1h11"/></g></symbol><symbol id="hd-icon-iconoir-crop-rotate-tl" viewBox="0 0 24 24"><g fill="none" stroke="currentColor" stroke-linecap="round" stroke-linejoin="round" stroke-width="1.5"><path d="M10 4H7a4 4 0 0 0-4 4v4"/><path d="M7.5 1.5L10 4L7.5 6.5M20 17v-6a1 1 0 0 0-1-1h-6m-5 0h2m10 12v-2M10 8v11a1 1 0 0 0 1 1h11"/></g></symbol><symbol id="hd-icon-iconoir-crop-rotate-tr" viewBox="0 0 24 24"><g fill="none" stroke="currentColor" stroke-linecap="round" stroke-linejoin="round" stroke-width="1.5"><path d="M20 10V7a4 4 0 0 0-4-4h-4"/><path d="M22.5 7.5L20 10l-2.5-2.5M14 17v-6a1 1 0 0 0-1-1H7m-5 0h2m10 12v-2M4 8v11a1 1 0 0 0 1 1h11"/></g></symbol><symbol id="hd-icon-iconoir-crown" viewBox="0 0 24 24"><path fill="none" stroke="currentColor" stroke-linecap="round" stroke-linejoin="round" stroke-width="1.5" d="M19.2 17L21 7l-6.3 3L12 7l-2.7 3L3 7l1.8 10z"/></symbol><symbol id="hd-icon-iconoir-crown-circle" viewBox="0 0 24 24"><g fill="none" stroke="currentColor" stroke-linecap="round" stroke-linejoin="round" stroke-width="1.5"><path d="M12 22C6.477 22 2 17.523 2 12S6.477 2 12 2s10 4.477 10 10s-4.477 10-10 10"/><path d="m16.8 15.5l1.2-7l-4.2 2.1L12 8.5l-1.8 2.1L6 8.5l1.2 7z"/></g></symbol><symbol id="hd-icon-iconoir-css3" viewBox="0 0 24 24"><g fill="none" stroke="currentColor" stroke-linecap="round" stroke-linejoin="round" stroke-width="1.5"><path d="m4 3l1.778 17.09L12 22l6.222-1.91L20 3z"/><path d="M7 7h9.5l-1 10l-3.5 1l-3.5-1l-.25-2.5m7.75-3H7.5"/></g></symbol><symbol id="hd-icon-iconoir-cube" viewBox="0 0 24 24"><g fill="none" stroke="currentColor" stroke-linecap="round" stroke-linejoin="round" stroke-width="1.5"><path d="M21 7.353v9.294a.6.6 0 0 1-.309.525l-8.4 4.666a.6.6 0 0 1-.582 0l-8.4-4.666A.6.6 0 0 1 3 16.647V7.353a.6.6 0 0 1 .309-.524l8.4-4.667a.6.6 0 0 1 .582 0l8.4 4.667a.6.6 0 0 1 .309.524"/><path d="m3.528 7.294l8.18 4.544a.6.6 0 0 0 .583 0l8.209-4.56M12 21v-9"/></g></symbol><symbol id="hd-icon-iconoir-cube-bandage" viewBox="0 0 24 24"><g fill="none" stroke="currentColor" stroke-linecap="round" stroke-linejoin="round" stroke-width="1.5"><path d="m12 22l-8.691-4.828A.6.6 0 0 1 3 16.647V7.353a.6.6 0 0 1 .309-.524l8.4-4.667a.6.6 0 0 1 .582 0l8.4 4.667a.6.6 0 0 1 .309.524V11"/><path d="m3.528 7.294l8.18 4.544a.6.6 0 0 0 .583 0l8.209-4.56M12 12v5.5M12 2v7m6.657 8.243l.707.707m-2.121.707l.707.707m.707-4.95l-4.243 4.243a2 2 0 0 0 0 2.828l.707.708a2 2 0 0 0 2.829 0l4.242-4.243a2 2 0 0 0 0-2.828l-.707-.708a2 2 0 0 0-2.828 0"/></g></symbol><symbol id="hd-icon-iconoir-cube-cut-with-curve" viewBox="0 0 24 24"><g fill="none" stroke="currentColor" stroke-linecap="round" stroke-linejoin="round" stroke-width="1.5"><path d="M3.528 7.293L9 10.333M22 2h-2m-8 10v-2a8 8 0 0 1 5.5-7.602M22 12h-2m-8 10v-2a8 8 0 0 1 5.5-7.602"/><path d="m12 22l-8.691-4.828A.6.6 0 0 1 3 16.647V7.353a.6.6 0 0 1 .309-.524l8.4-4.667a.6.6 0 0 1 .582 0L15 3.667M12 12L3.528 7.293M12 21v-9m3 1.5V4"/></g></symbol></svg>